<?xml version="1.0" encoding="utf-8"?>
<!-- Generator: Adobe Illustrator 16.0.0, SVG Export Plug-In . SVG Version: 6.00 Build 0)  -->
<!DOCTYPE svg PUBLIC "-//W3C//DTD SVG 1.1//EN" "http://www.w3.org/Graphics/SVG/1.1/DTD/svg11.dtd">
<svg version="1.1" id="Layer_1" xmlns="http://www.w3.org/2000/svg" xmlns:xlink="http://www.w3.org/1999/xlink" x="0px" y="0px"
	 width="300px" height="300px" viewBox="0 0 300 300" style="enable-background:new 0 0 300 300;" xml:space="preserve">
<g>
	<path style="fill:#1A2A4F;" d="M88.932,136.093H63.449c-0.537-1.253-0.716-2.805-0.716-4.177c0-0.716,0.06-1.611,0.179-2.208
		c4.178-4.237,8.653-9.011,12.592-13.428c2.924-3.282,5.252-6.326,5.252-9.667c0-2.924-2.029-4.595-5.61-4.595
		c-2.625,0-6.803,0.895-10.682,2.745c-0.239-1.015-0.478-2.805-0.478-4.237c0-0.716,0.12-2.148,0.358-3.104
		c2.924-1.253,7.639-2.387,12.233-2.387c6.803,0,12.771,3.163,12.771,10.503c0,6.445-3.461,10.802-10.861,18.56
		c-1.432,1.552-2.984,3.043-4.535,4.655h15.098c0.179,0.776,0.298,2.268,0.298,3.7C89.349,133.646,89.17,135.257,88.932,136.093z"/>
	<path style="fill:#1A2A4F;" d="M106.896,136.689c-3.223,0-7.997-0.656-11.279-1.79c-0.119-0.418-0.298-1.492-0.298-2.686
		c0-1.313,0.179-2.686,0.537-3.819c2.745,0.835,6.982,1.373,10.324,1.373c4.237,0,6.982-2.268,6.982-6.326
		c0-1.731-0.478-3.282-1.492-4.297c-1.313-1.313-3.521-1.85-6.744-1.85h-7.817V95.751h22.558c0.179,0.955,0.299,2.447,0.299,3.521
		c0,1.134-0.179,3.103-0.299,3.819h-14.919v7.4h2.625c4.655,0,8.355,0.835,10.981,3.104c2.327,2.029,3.64,5.132,3.64,9.429
		C121.994,132.154,115.011,136.689,106.896,136.689z"/>
	<path style="fill:#1A2A4F;" d="M127.426,104.404c0-5.132,2.327-9.548,8.952-9.548c6.684,0,8.952,4.416,8.952,9.548
		c0,5.013-2.268,9.667-8.952,9.667C129.753,114.072,127.426,109.417,127.426,104.404z M140.137,136.749
		c-2.566-0.716-5.192-2.447-6.505-4.296L158.1,94.08c2.447,0.656,5.072,2.148,6.564,3.999L140.137,136.749z M138.406,104.523
		c0-2.566-0.537-4.177-2.029-4.177c-1.492,0-2.029,1.611-2.029,4.177c0,2.566,0.597,4.058,2.029,4.058
		S138.406,107.09,138.406,104.523z M152.251,127.32c0-5.132,2.327-9.548,8.952-9.548c6.684,0,8.951,4.416,8.951,9.548
		c0,5.013-2.268,9.667-8.951,9.667C154.578,136.988,152.251,132.333,152.251,127.32z M163.232,127.439
		c0-2.566-0.537-4.177-2.029-4.177s-2.029,1.611-2.029,4.177c0,2.566,0.597,4.058,2.029,4.058
		C162.635,131.498,163.232,130.006,163.232,127.439z"/>
</g>
<g>
	<path style="fill:#1A2A4F;" d="M92.095,49.081H81.413v33.061c-1.134,0.179-2.745,0.298-4.237,0.298
		c-1.492,0-3.103-0.119-4.297-0.298V49.081H62.197c-0.239-0.776-0.417-2.626-0.417-3.641c0-1.014,0.238-2.864,0.477-3.64h29.839
		c0.239,0.776,0.417,2.626,0.417,3.64C92.513,46.455,92.334,48.305,92.095,49.081z"/>
	<path style="fill:#1A2A4F;" d="M111.611,82.738c-11.041,0-16.889-7.639-16.889-20.768s5.848-20.768,16.889-20.768
		c11.04,0,16.888,7.639,16.888,20.768S122.651,82.738,111.611,82.738z M111.611,48.543c-5.132,0-8.057,3.938-8.057,13.427
		s2.924,13.427,8.057,13.427c5.132,0,8.056-3.938,8.056-13.427S116.743,48.543,111.611,48.543z"/>
	<path style="fill:#1A2A4F;" d="M147.777,67.7H143.6v14.442c-1.134,0.179-2.506,0.298-4.297,0.298c-1.611,0-3.103-0.119-4.237-0.298
		V41.859c3.461-0.179,8.713-0.358,12.115-0.358c9.131,0,15.755,3.163,15.755,12.651C162.936,63.403,157.146,67.7,147.777,67.7z
		 M147.539,48.543c-1.193,0-2.745,0.06-3.938,0.119v11.876h3.7c4.595,0,7.042-1.194,7.042-6.087
		C154.342,50.274,152.253,48.543,147.539,48.543z"/>
</g>
<path style="fill:#BBA461;" d="M199.059,47.531c0.175-0.22,0.309-0.385,0.436-0.555c0.01-0.011-0.021-0.051-0.033-0.078
	c-0.152,0.151-0.307,0.3-0.455,0.455C198.993,47.365,199.023,47.418,199.059,47.531 M199.309,83.663
	c-0.1-0.112-0.18-0.201-0.257-0.291c-0.045,0.208-0.095,0.412-0.13,0.622c-0.007,0.036,0.051,0.084,0.079,0.127
	C199.094,83.981,199.188,83.842,199.309,83.663 M200.398,46.294c0.198,0.071,0.368,0.135,0.543,0.189
	c0.027,0.007,0.07-0.036,0.106-0.056c-0.166-0.139-0.33-0.276-0.497-0.413C200.513,46.082,200.476,46.152,200.398,46.294
	 M195.612,61.412c-0.216,0.068-0.435,0.137-0.654,0.206c0.07,0.033,0.146,0.104,0.206,0.092c0.23-0.047,0.455-0.12,0.681-0.185
	C195.775,61.491,195.706,61.458,195.612,61.412 M196.443,68.059c-0.172-0.099-0.259-0.18-0.293-0.161
	c-0.131,0.068-0.246,0.167-0.361,0.263c-0.005,0.006,0.079,0.144,0.093,0.139C196.036,68.245,196.186,68.174,196.443,68.059
	 M192.074,53.401c-0.146-0.271-0.277-0.513-0.408-0.756c-0.051,0.079-0.164,0.201-0.145,0.229c0.149,0.204,0.322,0.389,0.492,0.579
	C192.014,53.453,192.071,53.403,192.074,53.401 M193.848,57.271c0.445,0.081,0.666,0.121,0.888,0.162
	c-0.097-0.114-0.188-0.317-0.291-0.322c-0.204-0.01-0.411,0.09-0.618,0.145C193.896,57.307,193.966,57.36,193.848,57.271
	 M194.949,54.639c0.213-0.081,0.377-0.144,0.541-0.207c-0.371-0.046-0.744-0.093-1.117-0.134c-0.023-0.002-0.051,0.044-0.076,0.068
	C194.514,54.457,194.731,54.549,194.949,54.639 M200.074,70.331c0.307-0.085,0.609-0.17,0.912-0.256
	c-0.218-0.008-0.439-0.04-0.655-0.019c-0.174,0.016-0.343,0.094-0.513,0.145C199.896,70.242,199.976,70.281,200.074,70.331
	 M208.986,94.06c-0.102-0.129-0.232-0.293-0.362-0.458c0.002,0.4,0,0.8,0.013,1.2c0.002,0.07,0.062,0.139,0.096,0.208
	C208.81,94.72,208.887,94.431,208.986,94.06 M196.207,66.396c0.312-0.093,0.585-0.174,0.857-0.255
	c-0.381-0.001-0.764-0.012-1.144,0.002c-0.106,0.003-0.208,0.081-0.313,0.125C195.812,66.311,196.017,66.354,196.207,66.396
	 M199.166,66.596c0.369-0.09,0.716-0.174,1.064-0.258c-0.434,0.011-0.867,0.019-1.301,0.037c-0.052,0.002-0.102,0.055-0.152,0.084
	C198.908,66.504,199.035,66.55,199.166,66.596 M198.669,71.781c-0.267-0.067-0.516-0.108-0.749-0.193
	c-0.199-0.074-0.381-0.201-0.568-0.304c0.167,0.181,0.306,0.417,0.512,0.527c0.213,0.113,0.49,0.103,0.74,0.144
	C198.608,71.956,198.62,71.911,198.669,71.781 M199.878,69.175c0.504-0.414,1.058-0.869,1.609-1.327
	c0.013-0.011,0.007-0.072,0.002-0.073c-0.045-0.006-0.104-0.026-0.132-0.005c-0.562,0.416-1.121,0.838-1.68,1.261
	c-0.014,0.011-0.018,0.057-0.007,0.072C199.683,69.122,199.718,69.123,199.878,69.175 M193.413,61.774
	c-0.037,0.026,0.039-0.025,0.114-0.074c-0.2-0.082-0.424-0.265-0.597-0.224c-0.243,0.057-0.45,0.277-0.672,0.428
	C192.599,61.866,192.939,61.829,193.413,61.774 M196.055,62.4c-0.118-0.038-0.17-0.066-0.178-0.056
	c-0.324,0.347-0.646,0.698-0.958,1.055c-0.012,0.011,0.06,0.095,0.093,0.145C195.344,63.179,195.678,62.814,196.055,62.4
	 M199.711,63.537c0.007,0.005-0.028-0.04-0.033-0.038c-0.076,0.051-0.178,0.091-0.219,0.164c-0.26,0.46-0.513,0.922-0.75,1.395
	c-0.108,0.217-0.172,0.458-0.258,0.688c0.102-0.159,0.209-0.312,0.301-0.475C199.07,64.705,199.381,64.135,199.711,63.537
	 M192.66,54.482c-0.631-0.434-1.224-0.842-1.814-1.25c-0.011,0.023-0.031,0.063-0.026,0.067c0.567,0.428,1.14,0.854,1.71,1.276
	C192.538,54.58,192.576,54.542,192.66,54.482 M196.629,47.656c-0.021,0.015-0.047,0.033-0.073,0.051
	c0.067,0.076,0.124,0.164,0.201,0.228c0.653,0.552,1.311,1.1,1.968,1.648c0.059,0.049,0.123,0.089,0.187,0.134
	c-0.01-0.086,0.016-0.208-0.031-0.252c-0.56-0.514-1.123-1.024-1.7-1.517C197.029,47.819,196.825,47.758,196.629,47.656
	 M192.104,72.638c0.067-0.028,0.134-0.037,0.169-0.075c0.745-0.775,1.488-1.552,2.227-2.333c0.027-0.03,0.005-0.107,0.005-0.161
	c-0.088,0.019-0.204,0.011-0.258,0.064c-0.401,0.393-0.801,0.792-1.184,1.203c-0.349,0.377-0.677,0.773-1.015,1.161
	c-0.021,0.026-0.038,0.06-0.057,0.09C192.031,72.603,192.069,72.622,192.104,72.638 M196.847,60.835
	c0.091-0.025,0.217-0.019,0.26-0.076c0.751-0.972,1.491-1.951,2.228-2.934c0.027-0.038-0.013-0.125-0.021-0.19
	c-0.051,0.029-0.117,0.045-0.148,0.088C198.395,58.752,197.627,59.785,196.847,60.835 M196.851,71.922
	c0.115,0.537,0.288,1.369,0.479,2.196c0.045,0.197,0.157,0.376,0.235,0.565c0.172-0.206,0.356-0.403,0.506-0.624
	c0.035-0.05-0.027-0.189-0.077-0.269C197.575,73.099,197.151,72.412,196.851,71.922 M208.477,128.534
	c-0.088-0.187-0.051-0.109-0.014-0.03c0.012-0.086-0.01-0.201,0.039-0.255c0.548-0.615,1.108-1.216,1.654-1.832
	c0.154-0.171,0.257-0.383,0.404-0.56c0.629-0.757,1.271-1.502,1.893-2.264c0.15-0.185,0.244-0.417,0.345-0.637
	c0.019-0.041-0.053-0.127-0.081-0.19c-0.232,0.111-0.528,0.171-0.68,0.351c-0.188,0.223-0.184,0.637-0.393,0.808
	c-0.799,0.661-1.641,1.269-2.497,1.854c-0.075,0.052-0.374-0.192-0.546-0.329c-0.076-0.06-0.089-0.197-0.132-0.297
	c-0.022,0.099-0.012,0.233-0.073,0.293c-0.361,0.361-0.739,0.706-1.113,1.055c-0.049,0.047-0.138,0.076-0.156,0.13
	c-0.072,0.218-0.091,0.62-0.189,0.638c-1.008,0.19-2.066,0.575-2.832-0.57c-0.269-0.399-0.768-0.664-0.968-1.083
	c-0.427-0.891-0.886-0.959-1.612-0.135c-0.057,0.063-0.201,0.061-0.307,0.069c-0.492,0.036-0.984,0.075-1.479,0.074
	c-0.039-0.001-0.132-0.315-0.098-0.458c0.026-0.105,0.209-0.208,0.342-0.245c0.305-0.085,0.622-0.124,0.932-0.194
	c0.042-0.009,0.074-0.094,0.093-0.15c0.009-0.028-0.022-0.101-0.042-0.103c-0.426-0.041-0.861-0.041-1.278-0.126
	c-0.205-0.042-0.378-0.238-0.563-0.366c0.105-0.023,0.211-0.044,0.315-0.073c0.052-0.014,0.097-0.047,0.144-0.072
	c-0.08-0.059-0.194-0.103-0.234-0.183c-0.07-0.142-0.15-0.317-0.121-0.458c0.024-0.124,0.193-0.217,0.297-0.324
	c-0.181,0.1-0.357,0.213-0.547,0.292c-0.101,0.04-0.229,0.033-0.342,0.02c-0.087-0.009-0.17-0.059-0.256-0.092
	c0.014,0.065,0.047,0.18,0.032,0.188c-0.316,0.15-0.652,0.265-0.955,0.433c-0.222,0.124-0.407,0.313-0.601,0.48
	c-0.163,0.14-0.294,0.357-0.479,0.424c-0.494,0.176-1.005,0.327-1.52,0.393c-0.12,0.017-0.289-0.343-0.436-0.531
	c0.176-0.019,0.352-0.042,0.527-0.054c0.151-0.01,0.358,0.052,0.443-0.025c0.109-0.099,0.119-0.305,0.173-0.465
	c-0.154,0.016-0.322,0.079-0.461,0.038c-0.284-0.084-0.55-0.227-0.827-0.336c-0.042-0.018-0.112-0.003-0.155,0.024
	c-0.191,0.114-0.38,0.237-0.729,0.251c0.196-0.175,0.402-0.338,0.579-0.53c0.094-0.102,0.217-0.285,0.184-0.378
	c-0.094-0.257-0.207-0.589-0.414-0.702c-0.24-0.131-0.591-0.056-0.893-0.075c-0.038-0.002-0.111-0.044-0.109-0.051
	c0.034-0.125,0.038-0.292,0.122-0.363c0.486-0.407,0.989-0.792,1.49-1.18c0.03-0.024,0.083-0.028,0.126-0.027
	c0.42,0.006,0.871,0.116,1.249-0.006c0.301-0.097,0.485-0.506,0.768-0.718c0.298-0.228,0.64-0.406,0.979-0.574
	c0.456-0.223,0.999-0.329,1.377-0.642c0.729-0.603,1.432-1.269,2.021-2.006c0.278-0.347,0.221-0.945,0.415-1.383
	c0.094-0.213,0.421-0.322,0.639-0.48c0.039-0.027,0.069-0.063,0.106-0.095c-0.054-0.025-0.131-0.088-0.159-0.071
	c-0.643,0.372-1.026-0.062-1.053-0.543c-0.021-0.368,0.382-0.769,0.628-1.136c0.087-0.13,0.264-0.2,0.455-0.338
	c-0.961,0.049-1.488-0.687-1.261-1.637c0.009-0.039,0.052-0.073,0.087-0.099c0.184-0.127,0.368-0.25,0.552-0.375
	c-0.238,0.063-0.473,0.139-0.715,0.185c-0.602,0.114-1.231,0.141-1.793,0.353c-0.239,0.091-0.329,0.561-0.506,0.845
	c-0.05,0.076-0.243,0.155-0.247,0.149c-0.512-0.748-0.992-0.072-1.482,0.026c-0.029,0.005-0.064-0.023-0.098-0.035
	c0.133-0.23,0.218-0.513,0.405-0.684c0.78-0.709,1.649-1.328,2.368-2.092c0.533-0.567,0.775-1.423,1.344-1.931
	c0.485-0.434,1.25-0.56,1.898-0.802c0.051-0.019,0.177,0.109,0.237,0.191c0.055,0.074,0.067,0.181,0.099,0.272
	c0.031-0.024,0.083-0.046,0.087-0.074c0.022-0.137,0.083-0.296,0.034-0.407c-0.082-0.194-0.23-0.358-0.354-0.535
	c0.181,0.045,0.363,0.128,0.545,0.127c0.688,0,1.46,0.166,2.047-0.087c1.201-0.517,1.642,0.5,2.381,0.926
	c0.159,0.092,0.323,0.175,0.485,0.261c-0.065-0.228-0.166-0.453-0.189-0.686c-0.056-0.539-1.646-1.094-0.009-1.576
	c0.145-0.042,0.471,0.602,0.743,0.899c0.21,0.229,0.452,0.558,0.706,0.583c0.253,0.024,0.542-0.27,0.807-0.435
	c0.146-0.091,0.276-0.207,0.415-0.31c-0.24,0.102-0.497,0.317-0.713,0.281c-0.374-0.063-0.804-0.196-1.071-0.447
	c-1.231-1.157-1.014-3.15,0.395-3.954c0.142-0.081,0.312-0.11,0.463-0.179c0.077-0.034,0.142-0.098,0.213-0.147
	c-0.111,0.014-0.225,0.047-0.335,0.037c-0.468-0.04-1.269,0.026-1.338-0.166c-0.183-0.511-0.053-1.136-0.048-1.715
	c0.135,0.164,0.268,0.328,0.404,0.49c0.044,0.051,0.096,0.096,0.145,0.143c0.019-0.027,0.059-0.071,0.051-0.082
	c-0.522-0.813,0.179-0.842,0.637-1.124c0.182-0.111,0.133-0.594,0.188-0.908c-0.038-0.003-0.104-0.024-0.115-0.009
	c-0.1,0.155-0.191,0.314-0.285,0.473c-0.034-0.101-0.12-0.222-0.092-0.297c0.072-0.183,0.225-0.333,0.298-0.515
	c0.118-0.293,0.212-0.601,0.288-0.908c0.061-0.236,0.073-0.482,0.114-0.723c0.017-0.095,0.08-0.187,0.073-0.276
	c-0.002-0.047-0.11-0.086-0.172-0.129c-0.009,0.073,0.011,0.175-0.031,0.211c-0.312,0.281-0.634,0.546-0.953,0.818
	c-0.12-0.206-0.236-0.411-0.36-0.613c-0.038-0.062-0.098-0.111-0.146-0.167c-0.076,0.176-0.152,0.351-0.228,0.527
	c-0.189,0.439-0.162,1.206-0.961,0.778c-0.127-0.069,0.063-0.699,0.074-1.073c0.005-0.202-0.056-0.405-0.101-0.604
	c-0.001-0.007-0.202,0.002-0.208,0.028c-0.036,0.152-0.043,0.311-0.058,0.467c-0.01,0.083-0.005,0.233-0.03,0.239
	c-0.134,0.029-0.368,0.072-0.398,0.018c-0.234-0.437-0.407-0.906-0.644-1.341c-0.324-0.59-0.716-1.143-1.019-1.742
	c-0.15-0.297-0.31-0.711-0.214-0.988c0.289-0.845,0.711-1.645,1.054-2.473c0.08-0.198-0.032-0.521,0.091-0.649
	c0.348-0.367,0.773-0.665,1.167-0.992c0.062-0.052,0.113-0.117,0.17-0.176c-0.027-0.023-0.054-0.061-0.085-0.064
	c-0.141-0.017-0.282-0.022-0.423-0.031c0.047-0.07,0.085-0.19,0.143-0.201c0.242-0.045,0.49-0.073,0.736-0.077
	c0.253-0.003,0.505,0.038,0.758,0.039c0.056,0,0.111-0.084,0.167-0.13c-0.125-0.126-0.243-0.352-0.377-0.362
	c-0.761-0.06-1.546-0.177-2.283-0.048c-0.35,0.062-1.673-0.496-1.001,0.893c0.025,0.052-0.172,0.282-0.301,0.327
	c-0.312,0.106-0.645,0.158-0.972,0.219c-0.067,0.012-0.163-0.018-0.212-0.064c-0.088-0.077-0.147-0.182-0.22-0.276
	c-0.075,0.177-0.101,0.413-0.229,0.516c-0.376,0.292-0.792,0.531-1.192,0.791c-0.045-0.232-0.089-0.464-0.134-0.697
	c-0.099,0.232-0.194,0.465-0.291,0.697c-0.238-0.288-0.479-0.573-0.711-0.867c-0.039-0.048-0.037-0.127-0.052-0.192
	c-0.896,0.72-0.997-0.155-1.424-0.616c0.151,0.804,0.311,1.608,0.444,2.416c0.016,0.101-0.142,0.325-0.152,0.321
	c-0.331-0.125-0.697-0.215-0.969-0.427c-0.67-0.521-1.291-1.104-1.943-1.647c-0.065-0.055-0.29-0.05-0.309-0.011
	c-0.2,0.435-0.465,0.873-0.525,1.333c-0.042,0.312,0.225,0.66,0.326,0.999c0.016,0.055-0.107,0.152-0.168,0.231
	c-0.107-0.138-0.243-0.263-0.319-0.416c-0.25-0.518-0.495-1.039-0.713-1.571c-0.251-0.61-0.497-1.226-0.686-1.856
	c-0.029-0.095,0.263-0.287,0.407-0.433c0.083,0.177,0.177,0.35,0.248,0.531c0.084,0.216,0.145,0.44,0.234,0.654
	c0.008,0.02,0.217-0.019,0.217-0.024c-0.013-0.218,0.025-0.472-0.074-0.648c-0.638-1.142,0.289-1.859,0.692-2.724
	c0.265-0.569,0.409-1.2,0.723-1.736c0.3-0.513,0.959-0.888,1.081-1.413c0.193-0.835,0.039-1.671-0.996-2.098
	c-0.285-0.118-0.382-0.757-0.505-1.175c-0.07-0.234-0.023-0.505-0.019-0.759c0.01-0.569,0.027-1.136,0.042-1.704
	c0.403,0.028,0.812,0.018,1.206,0.094c0.586,0.113,1.16,0.289,1.74,0.433c0.031,0.008,0.07-0.014,0.106-0.023
	c-0.023-0.047-0.033-0.121-0.068-0.136c-0.321-0.141-0.69-0.213-0.96-0.418c-0.586-0.448-1.121-0.962-1.677-1.448
	c-0.059-0.053-0.114-0.108-0.173-0.162c-0.021,0.088-0.083,0.188-0.058,0.259c0.071,0.208,0.179,0.401,0.271,0.603
	c0.033,0.072,0.063,0.146,0.094,0.218c-0.071,0.017-0.156,0.065-0.212,0.041c-0.072-0.03-0.179-0.132-0.168-0.177
	c0.186-0.726,0.387-1.448,0.585-2.17c0.031-0.12,0.066-0.237,0.097-0.356c-0.09,0.08-0.206,0.144-0.263,0.243
	c-0.14,0.235-0.246,0.492-0.379,0.733c-0.041,0.076-0.127,0.129-0.19,0.192c-0.035-0.037-0.091-0.07-0.101-0.112
	c-0.043-0.204-0.071-0.41-0.105-0.616c-0.035,0.023-0.102,0.05-0.1,0.069c0.031,0.272,0.068,0.544,0.109,0.816
	c0.015,0.101,0.088,0.218,0.056,0.298c-0.119,0.302-0.269,0.593-0.409,0.886c-0.028,0.057-0.092,0.105-0.096,0.162
	c-0.034,0.44-0.052,0.882-0.092,1.32c-0.005,0.052-0.106,0.138-0.152,0.132c-0.085-0.013-0.209-0.064-0.235-0.13
	c-0.18-0.466-0.337-0.941-0.505-1.412c-0.029-0.079-0.071-0.154-0.107-0.229c-0.025,0.099-0.082,0.202-0.068,0.294
	c0.021,0.127,0.099,0.244,0.143,0.37c0.073,0.209,0.139,0.421,0.207,0.633c-0.051,0.008-0.136,0.039-0.149,0.02
	c-0.165-0.222-0.326-0.448-0.474-0.683c-0.049-0.079-0.051-0.186-0.074-0.279c-0.043,0.088-0.107,0.171-0.123,0.263
	c-0.08,0.499-0.149,0.998-0.215,1.445c-0.914-0.552-1.018-1.748-0.049-2.84c0.65-0.736,1.367-1.41,2.052-2.115
	c0.055-0.057,0.084-0.139,0.125-0.209c-0.074,0.029-0.163,0.043-0.219,0.093c-0.86,0.777-1.727,1.548-2.564,2.348
	c-0.159,0.151-0.192,0.43-0.3,0.643c-0.024,0.05-0.133,0.053-0.173,0.101c-0.12,0.152-0.353,0.359-0.316,0.469
	c0.196,0.593,0.488,1.155,0.69,1.747c0.07,0.208,0.047,0.501-0.047,0.703c-0.266,0.58-0.639,1.112-0.877,1.701
	c-0.304,0.754-0.517,1.547-0.76,2.325c-0.014,0.043,0.032,0.143,0.074,0.163c0.721,0.326,0.492,0.742,0.04,1.051
	c-0.312,0.212-0.726,0.28-1.105,0.374c-0.096,0.024-0.326-0.098-0.326-0.151c0.002-0.358,0.002-0.729,0.096-1.07
	c0.142-0.527,0.493-1.027,0.516-1.55c0.054-1.274,0.332-2.389,1.416-3.196c0.166-0.125,0.211-0.413,0.313-0.627
	c-0.138,0.138-0.263,0.292-0.418,0.407c-0.193,0.143-0.496,0.41-0.609,0.351c-0.906-0.48-0.081-1.021-0.002-1.541
	c0.017-0.114,0.117-0.215,0.179-0.323c-0.128,0.062-0.258,0.117-0.382,0.187c-0.108,0.062-0.209,0.138-0.312,0.208
	c0.041-0.122,0.068-0.252,0.128-0.365c0.22-0.409,0.45-0.812,0.67-1.221c0.004-0.01-0.092-0.105-0.121-0.096
	c-0.115,0.034-0.225,0.095-0.336,0.145c0.071-0.172,0.115-0.361,0.223-0.506c0.039-0.055,0.222-0.003,0.339-0.001
	c0.049,0,0.098-0.002,0.147-0.003c-0.021-0.109-0.049-0.218-0.066-0.329c-0.022-0.151-0.077-0.312-0.047-0.454
	c0.045-0.211,0.149-0.411,0.23-0.616c-0.19,0.094-0.38,0.188-0.821,0.405c0.42-0.491,0.69-0.805,0.955-1.123
	c0.023-0.027,0.032-0.084,0.019-0.118c-0.023-0.059-0.063-0.153-0.104-0.158c-0.184-0.014-0.367-0.003-0.553-0.002
	c0.207-0.301,0.407-0.608,0.623-0.902c0.06-0.082,0.167-0.127,0.254-0.191c-0.091,0.003-0.182,0.01-0.271,0.003
	c-0.079-0.007-0.158-0.029-0.236-0.045c0.025-0.11,0.034-0.227,0.078-0.327c0.296-0.692,0.854-0.715,1.514-0.698
	c0.358,0.01,0.778-0.252,1.066-0.507c0.257-0.227,0.373-0.614,0.549-0.929c-0.248,0.267-0.615,0.493-0.72,0.807
	c-0.244,0.744-0.72,0.445-1.168,0.37c-0.161-0.028-0.321-0.062-0.481-0.092c0.242-0.24,0.479-0.484,0.728-0.717
	c0.095-0.089,0.214-0.153,0.323-0.228c-0.143,0.01-0.289,0.002-0.426,0.034c-0.183,0.041-0.359,0.115-0.536,0.174
	c0.126-0.318,0.163-0.777,0.398-0.927c0.687-0.438,1.454-0.752,2.191-1.116c0.056-0.028,0.111-0.061,0.167-0.091
	c-0.079-0.018-0.166-0.063-0.238-0.046c-0.277,0.065-0.547,0.192-0.826,0.217c-0.211,0.019-0.43-0.084-0.646-0.132
	c0.06-0.153,0.094-0.322,0.184-0.454c0.335-0.499,0.686-0.985,1.031-1.477c-0.495,0.03-0.989,0.058-1.483,0.089
	c-0.154,0.009-0.309,0.023-0.465,0.034c0.229,0.071,0.453,0.149,0.685,0.209c0.227,0.059,0.459,0.098,0.688,0.146
	c-0.123,0.176-0.229,0.367-0.373,0.524c-0.573,0.628-1.17,1.237-1.737,1.872c-0.36,0.4-0.667,0.85-1.035,1.242
	c-0.131,0.14-0.419,0.289-0.551,0.232c-0.176-0.073-0.266-0.345-0.401-0.527c-0.021-0.028-0.1-0.05-0.129-0.034
	c-0.623,0.359-1.578-0.151-1.6-0.884c-0.001-0.044,0.425-0.133,0.65-0.137c0.121-0.004,0.243,0.136,0.369,0.201
	c0.049,0.026,0.113,0.025,0.17,0.036c-0.021-0.059-0.033-0.121-0.063-0.173c-0.052-0.089-0.115-0.171-0.173-0.256
	c0.301-0.131,0.594-0.336,0.907-0.377c0.371-0.051,0.76,0.04,1.143,0.065c0.019,0.001,0.042-0.044,0.063-0.069
	c-0.06-0.032-0.112-0.079-0.174-0.095c-0.377-0.094-0.761-0.267-1.134-0.245c-0.319,0.02-0.619,0.367-0.938,0.385
	c-0.666,0.041-1.34-0.026-2.008-0.088c-0.105-0.01-0.296-0.305-0.277-0.325c0.167-0.199,0.374-0.52,0.563-0.515
	c0.588,0.013,1.172,0.156,1.759,0.239c0.072,0.011,0.205-0.007,0.222-0.049c0.093-0.22,0.196-0.448,0.216-0.681
	c0.008-0.108-0.163-0.231-0.253-0.348c0.201-0.058,0.412-0.093,0.599-0.182c0.19-0.09,0.355-0.233,0.53-0.354
	c-0.048-0.045-0.095-0.091-0.142-0.137c-0.076,0.083-0.146,0.178-0.238,0.241c-0.041,0.028-0.128-0.007-0.188-0.025
	c-0.009-0.003-0.011-0.097,0.012-0.12c0.078-0.078,0.167-0.144,0.251-0.215c-0.192-0.009-0.388-0.02-0.582-0.026
	c-0.211-0.008-0.423-0.011-0.635-0.017c0.173-0.26,0.345-0.523,0.516-0.783c0.063,0.058,0.124,0.165,0.188,0.167
	c0.647,0.012,1.294,0.008,1.927-0.145c-0.643-0.058-1.284-0.112-1.926-0.18c-0.085-0.01-0.235-0.115-0.229-0.151
	c0.025-0.13,0.094-0.345,0.166-0.355c0.2-0.025,0.411,0.038,0.617,0.067c0.474,0.063,0.946,0.128,1.42,0.188
	c0.003,0,0.026-0.095,0.022-0.096c-0.073-0.028-0.152-0.042-0.227-0.069c-0.315-0.118-0.628-0.246-0.946-0.358
	c-0.157-0.056-0.352-0.048-0.479-0.139c-0.104-0.074-0.137-0.251-0.199-0.384c0.439-0.139,0.871-0.331,1.32-0.4
	c0.4-0.061,0.82,0.014,1.232,0.024c0.013,0,0.025-0.056,0.037-0.084c-0.107-0.016-0.219-0.019-0.32-0.051
	c-0.536-0.167-1.07-0.34-1.604-0.518c-0.029-0.01-0.065-0.095-0.051-0.126c0.143-0.342,0.226-0.892,0.46-0.967
	c0.31-0.099,0.737,0.174,1.113,0.29c0.082,0.025,0.166,0.085,0.24,0.073c0.054-0.008,0.092-0.11,0.137-0.17
	c-0.069-0.04-0.134-0.093-0.207-0.116c-0.609-0.195-1.222-0.381-1.831-0.577c-0.041-0.013-0.1-0.092-0.094-0.103
	c0.086-0.13,0.157-0.287,0.277-0.369c0.498-0.342,1.017-0.66,1.519-0.999c0.045-0.03,0.028-0.151,0.041-0.229
	c-0.082,0.039-0.181,0.06-0.24,0.121c-0.16,0.165-0.284,0.374-0.462,0.509c-0.092,0.07-0.275,0.017-0.418,0.019
	c0.026-0.068,0.075-0.136,0.074-0.204c-0.002-0.099-0.04-0.194-0.062-0.292c-0.059,0.022-0.123,0.036-0.174,0.07
	c-0.13,0.083-0.246,0.188-0.378,0.266c-0.215,0.126-0.438,0.239-0.661,0.356c-0.068-0.327-0.115-0.66-0.211-0.979
	c-0.053-0.177-0.28-0.336-0.268-0.491c0.029-0.438,0.145-0.87,0.225-1.304c0.336,0.229,0.646,0.555,1.018,0.656
	c0.309,0.086,0.693-0.09,1.043-0.15c-0.168-0.11-0.326-0.24-0.508-0.325c-0.237-0.112-0.602-0.115-0.719-0.292
	c-0.25-0.378-0.382-0.836-0.538-1.271c-0.007-0.019,0.23-0.162,0.363-0.182c0.113-0.016,0.242,0.06,0.362,0.096
	c0.009-0.062,0.047-0.153,0.02-0.183c-0.128-0.135-0.33-0.224-0.398-0.378c-0.205-0.456-0.362-0.932-0.508-1.41
	c-0.004-0.013,0.397-0.239,0.526-0.18c0.16,0.073,0.229,0.339,0.346,0.518c0.143,0.217,0.295,0.43,0.442,0.646
	c0.024-0.021,0.069-0.044,0.067-0.062c-0.029-0.344-0.054-0.689-0.103-1.031c-0.026-0.197-0.121-0.385-0.137-0.581
	c-0.006-0.077,0.127-0.163,0.196-0.243c0.113,0.136,0.209,0.292,0.342,0.404c0.204,0.169,0.435,0.307,0.651,0.458
	c0.065-0.146,0.131-0.292,0.195-0.438c0.029-0.065,0.059-0.131,0.088-0.196c0.135,0.07,0.271,0.132,0.401,0.208
	c0.284,0.167,0.562,0.341,0.845,0.513c-0.086-0.13-0.152-0.277-0.258-0.384c-0.174-0.172-0.371-0.318-0.563-0.467
	c-0.065-0.051-0.148-0.079-0.221-0.122c-0.002-0.002,0.024-0.062,0.027-0.062c0.087,0.025,0.186,0.038,0.257,0.086
	c0.596,0.399,1.186,0.806,1.776,1.209c0.024,0.016,0.059,0.017,0.087,0.025c-0.062-0.224-0.102-0.458-0.194-0.669
	c-0.145-0.33-0.271-0.692-0.505-0.947c-0.207-0.225-0.59-0.28-0.829-0.487c-0.328-0.285-0.607-0.631-0.88-0.973
	c-0.074-0.094-0.049-0.268-0.071-0.403c0.104,0.053,0.224,0.09,0.308,0.167c0.104,0.094,0.175,0.221,0.262,0.333
	c0.205-0.224,0.618-0.499,0.577-0.661c-0.133-0.522-0.432-1-0.666-1.494c-0.05-0.104-0.105-0.206-0.158-0.308
	c0.106,0.042,0.218,0.128,0.318,0.119c0.435-0.039,0.864-0.153,1.294-0.152c0.34,0.001,0.676,0.148,1.019,0.193
	c0.079,0.011,0.173-0.141,0.271-0.193c0.096-0.049,0.208-0.064,0.314-0.094c-0.126-0.023-0.251-0.062-0.377-0.065
	c-0.922-0.021-1.554-0.964-1.149-1.738c0.003-0.008,0.222,0.119,0.349,0.144c0.118,0.024,0.249-0.002,0.374-0.008
	c-0.068-0.153-0.13-0.31-0.209-0.457c-0.024-0.046-0.1-0.063-0.152-0.095c0.041-0.052,0.078-0.146,0.121-0.147
	c0.095-0.005,0.197,0.021,0.287,0.059c0.096,0.041,0.18,0.108,0.269,0.165c-0.051-0.122-0.067-0.304-0.159-0.356
	c-0.591-0.346-1.23-0.639-0.25-1.303c0.288-0.195,0.491-0.513,0.733-0.774c0.271,0.309,0.549,0.615,0.808,0.934
	c0.032,0.04-0.027,0.155-0.035,0.235c0,0.005,0.11,0.036,0.117,0.025c0.066-0.114,0.143-0.228,0.174-0.353
	c0.032-0.121,0.018-0.253,0.022-0.381c0.06,0.007,0.146-0.009,0.171,0.024c0.157,0.207,0.321,0.413,0.436,0.642
	c0.029,0.061-0.121,0.205-0.179,0.314c-0.116,0.229-0.226,0.46-0.339,0.689c0.043,0.01,0.111,0.044,0.125,0.028
	c0.203-0.23,0.354-0.567,0.604-0.68c0.466-0.206,0.372-1.718,1.353-0.628c0.149,0.165-0.059,0.65-0.1,0.988
	c-0.011,0.091-0.011,0.181-0.017,0.273c0.065-0.065,0.142-0.119,0.193-0.193c0.194-0.278,0.364-0.579,0.583-0.835
	c0.078-0.092,0.269-0.101,0.412-0.117c0.288-0.032,0.583-0.017,0.868-0.07c0.434-0.08,0.861-0.203,1.291-0.306
	c0.686-0.166,1.366-0.385,2.062-0.479c0.55-0.074,1.119,0.008,1.679,0.014c0.164,0.002,0.329-0.019,0.493-0.029
	c-0.07-0.132-0.139-0.265-0.209-0.396c-0.04-0.079-0.105-0.152-0.12-0.235c-0.006-0.04,0.095-0.144,0.12-0.135
	c0.079,0.024,0.139,0.112,0.216,0.135c0.152,0.047,0.314,0.088,0.475,0.095c0.514,0.021,1.027,0.025,1.541,0.036
	c-0.113,0.441-0.274,0.877-0.321,1.326c-0.03,0.275,0.114,0.572,0.185,0.858c0.021,0.087,0.092,0.18,0.073,0.252
	c-0.021,0.089-0.117,0.156-0.177,0.235c-0.465,0.612-0.885,1.264-1.404,1.826c-0.692,0.752-1.438,1.461-2.204,2.141
	c-0.774,0.687-1.591,1.326-2.412,1.959c-0.168,0.132-0.432,0.139-0.647,0.208c-0.034,0.011-0.081,0.076-0.078,0.08
	c0.094,0.113,0.201,0.215,0.287,0.333c0.085,0.116,0.146,0.248,0.219,0.373c-0.259,0.146-0.52,0.417-0.773,0.411
	c-0.508-0.014-1.01-0.182-1.518-0.278c-0.017-0.002-0.07,0.118-0.068,0.119c0.196,0.123,0.384,0.28,0.6,0.347
	c0.417,0.129,0.85,0.222,1.281,0.295c0.188,0.032,0.39-0.004,0.58-0.036c0.112-0.019,0.217-0.09,0.323-0.137
	c0.017,0.103,0.03,0.208,0.049,0.312c0.007,0.029,0.043,0.077,0.045,0.076c0.264-0.132,0.528-0.263,0.784-0.408
	c0.081-0.045,0.139-0.13,0.208-0.198c-0.024,0.097-0.026,0.209-0.077,0.286c-0.371,0.545-0.746,1.087-1.135,1.618
	c-0.055,0.073-0.193,0.084-0.294,0.125c-0.02-0.058-0.02-0.139-0.06-0.167c-0.135-0.103-0.352-0.298-0.414-0.261
	c-0.729,0.462-1.445,0.945-2.141,1.457c-0.129,0.095-0.149,0.337-0.219,0.512c0.13-0.096,0.319-0.162,0.383-0.291
	c0.492-1.016,1.531-0.702,2.325-0.973c0.015-0.005,0.104,0.145,0.093,0.154c-0.501,0.467-1.009,0.925-1.515,1.386
	c-0.03,0.029-0.046,0.077-0.075,0.107c-0.154,0.151-0.285,0.349-0.469,0.435c-0.209,0.098-0.464,0.092-0.697,0.138
	c-0.011,0.002-0.011,0.111-0.007,0.111c0.31,0.048,0.654,0.196,0.92,0.106c0.495-0.167,1.194-0.362,1.363-0.744
	c0.492-1.114,1.825-0.165,2.335-1.09c0.059-0.103,0.434-0.026,0.664-0.04c0.133-0.009,0.292,0.009,0.395-0.057
	c0.52-0.333,0.998-0.904,1.545-0.976c0.566-0.073,1.188,0.361,1.8,0.513c0.254,0.063,0.547-0.057,0.822-0.055
	c0.933,0.007,1.864,0.054,2.795,0.042c0.552-0.006,1.104-0.107,1.658-0.143c0.143-0.009,0.297,0.115,0.433,0.096
	c0.433-0.06,0.875-0.279,1.281-0.22c1.094,0.156,1.467,0.966,1.723,1.962c0.332,1.285-0.527,1.891-1.181,2.72
	c-0.423,0.538-0.507,1.345-0.731,2.037c-0.226,0.695-0.418,1.401-0.661,2.09c-0.262,0.738-0.516,1.488-0.87,2.182
	c-0.229,0.445-0.633,0.803-0.967,1.191c-0.021,0.024-0.135-0.049-0.199-0.041c-0.116,0.012-0.229,0.051-0.342,0.078
	c0.035,0.07,0.085,0.136,0.104,0.208c0.043,0.156,0.152,0.366,0.091,0.463c-0.489,0.78-0.991,1.556-1.545,2.292
	c-0.085,0.111-0.46-0.004-0.7-0.004c-1.186-0.001-2.094,0.625-2.977,1.314c-0.054,0.043-0.181,0.019-0.264-0.008
	c-0.139-0.043-0.27-0.116-0.403-0.176c-0.002,0.032-0.019,0.086-0.008,0.092c0.179,0.104,0.409,0.325,0.532,0.277
	c0.82-0.318,1.609-0.718,2.428-1.039c0.23-0.09,0.53-0.011,0.795,0.014c0.03,0.003,0.088,0.189,0.056,0.247
	c-0.104,0.192-0.237,0.369-0.374,0.539c-0.073,0.092-0.176,0.159-0.266,0.236c0.093-0.012,0.205-0.063,0.275-0.03
	c0.602,0.294,1.195,0.606,1.791,0.911c-0.084,0.109-0.15,0.24-0.255,0.32c-0.556,0.423-1.003,0.875-1.909,0.621
	c-0.401-0.112-1.062,0.742-1.62,1.135c-0.46,0.327-0.925,0.847-1.418,0.884c-0.982,0.075-2.011-0.029-2.778-0.839
	c-0.095-0.1-0.271-0.125-0.411-0.179c-0.003-0.001-0.052,0.086-0.045,0.093c0.097,0.086,0.219,0.151,0.3,0.248
	c0.271,0.328,0.529,0.667,0.791,1.002c0.021,0.028,0.029,0.095,0.046,0.095c0.732,0.031,1.474,0.002,2.197,0.1
	c0.548,0.073,1.101,0.488,1.606,0.419c0.629-0.084,1.217-0.496,1.81-0.795c0.179-0.091,0.358-0.425,0.46-0.394
	c0.432,0.133,0.835,0.358,1.241,0.562c0.04,0.02,0.023,0.157,0.062,0.175c0.543,0.238,1.083,0.489,1.64,0.69
	c0.413,0.151,0.988,0.107,1.249,0.38c0.426,0.444,0.648,1.08,0.972,1.626c0.083,0.141,0.222,0.251,0.339,0.373
	c0.418,0.432,0.79,0.93,1.269,1.28c0.886,0.646,1.256,1.497,1.36,2.556c0.089,0.895,0.312,1.772,0.443,2.664
	c0.02,0.122-0.153,0.274-0.106,0.195c0.188,0.753,0.354,1.424,0.527,2.092c0.012,0.042,0.085,0.066,0.121,0.108
	c0.165,0.187,0.402,0.35,0.479,0.57c0.303,0.861,0.584,1.733,0.814,2.616c0.134,0.524,0.156,1.078,0.228,1.618
	c0.004,0.044,0.002,0.088,0.002,0.131c0.141-0.1,0.268-0.228,0.422-0.293c0.197-0.084,0.462-0.224,0.616-0.156
	c1.06,0.461,2.162,0.876,3.114,1.507c0.511,0.336,0.714,1.107,1.128,1.624c0.662,0.829,1.383,1.612,2.081,2.411
	c0.065,0.074,0.148,0.135,0.224,0.201c-0.089,0.039-0.224,0.052-0.256,0.117c-0.195,0.372-0.598,0.836-0.501,1.125
	c0.319,0.946,0.804,1.84,1.266,2.731c0.184,0.354,0.491,0.64,0.713,0.976c0.146,0.221,0.242,0.474,0.362,0.714
	c-0.186-0.1-0.418-0.326-0.55-0.277c-1.141,0.423-1.526-0.514-2.207-1.044c-0.299-0.235-1.058,0.147-1.611,0.195
	c-0.299,0.027-0.607-0.097-0.909-0.085c-0.112,0.005-0.217,0.204-0.323,0.313c0.103-0.014,0.204-0.039,0.308-0.04
	c0.777-0.006,1.574-0.108,2.323,0.038c0.335,0.065,0.526,0.688,0.86,0.964c0.719,0.595,1.683,0.991,2.189,1.718
	c0.812,1.165,1.593,2.469,1.252,4.017c-0.062,0.279-0.548,0.45-0.794,0.71c-0.456,0.48-0.882,0.986-1.311,1.489
	c-0.07,0.082-0.097,0.2-0.143,0.303c0.106-0.011,0.238-0.067,0.317-0.024c0.334,0.177,0.646,0.397,0.979,0.579
	c0.42,0.227,0.851,0.431,1.277,0.645c0.226-0.465,0.379-0.99,0.699-1.376c0.277-0.335,0.75-0.733,1.123-0.722
	c1.373,0.048,2.744,0.24,4.109,0.406c1.285,0.157,3.068,2.405,3.262,3.655c0.322,2.055-0.918,3.731-1.152,5.646
	c-0.045,0.366-0.871,0.637-1.335,0.954c-0.025,0.019-0.041,0.057-0.056,0.089c-0.074,0.191-0.148,0.385-0.223,0.578
	c-0.117-0.137-0.218-0.295-0.356-0.403c-0.23-0.18-0.487-0.33-0.735-0.487c-0.014-0.008-0.083,0.043-0.082,0.046
	c0.035,0.075,0.056,0.17,0.115,0.213c0.186,0.14,0.389,0.26,0.584,0.388c-0.23,0.014-0.46,0.02-0.689,0.046
	c-0.304,0.032-0.604,0.079-0.906,0.121c0.403,0.066,0.808,0.131,1.212,0.197c0.13,0.022,0.263,0.041,0.393,0.062
	c-0.103,0.152-0.201,0.309-0.312,0.454c-0.032,0.046-0.098,0.069-0.146,0.103c0.051,0.051,0.132,0.093,0.153,0.155
	c0.049,0.146,0.147,0.385,0.091,0.437c-0.573,0.516-1.168,0.931-1.606-0.146c-0.23,0.171-0.452,0.355-0.692,0.509
	c-0.344,0.218-0.701,0.413-1.051,0.622c-0.089,0.053-0.169,0.12-0.252,0.181c0.137,0.1,0.309,0.312,0.402,0.282
	c0.33-0.105,0.629-0.297,0.942-0.448c0.072-0.033,0.155-0.04,0.232-0.059c0.021,0.215,0.094,0.44,0.05,0.639
	c-0.052,0.218-0.203,0.416-0.328,0.61c-0.044,0.069-0.141,0.105-0.212,0.157c0.075,0.003,0.15,0.003,0.226,0.011
	c0.09,0.011,0.178,0.028,0.268,0.042c-0.045,0.079-0.075,0.212-0.137,0.228c-0.653,0.176-1.338,0.27-1.963,0.516
	c-0.516,0.205-0.965,0.584-1.439,0.889c-0.013,0.009,0.002,0.061,0.002,0.091c0.139-0.058,0.275-0.164,0.411-0.166
	c0.526-0.007,1.054,0.02,1.58,0.034c-0.029,0.044-0.05,0.114-0.088,0.128c-0.355,0.126-0.716,0.24-1.072,0.366
	c-0.043,0.016-0.075,0.083-0.095,0.135c-0.008,0.02,0.024,0.082,0.046,0.085c1.04,0.178,2.079,0.461,3.125,0.489
	c0.866,0.024,1.737-0.267,2.61-0.383c0.138-0.018,0.297,0.147,0.449,0.228c-0.131,0.117-0.256,0.237-0.39,0.35
	c-0.06,0.05-0.158,0.072-0.19,0.132c-0.023,0.042,0.017,0.141,0.055,0.194c0.549,0.739,0.251,1.739-0.608,2.047
	c-0.48,0.173-1.016,0.277-1.412,0.568c-0.323,0.236-0.46,0.719-0.712,1.068c-0.119,0.166-0.296,0.331-0.481,0.404
	c-0.534,0.211-1.085,0.384-1.633,0.559c-0.382,0.122-0.787,0.187-1.155,0.34c-0.366,0.155-0.802,0.309-1.025,0.601
	c-0.545,0.704-1.025,0.188-1.573,0.076c-1.006-0.204-2.032-0.41-3.05-0.405c-0.896,0.003-1.94,0.065-2.639,0.528
	c-0.534,0.354-0.619,0-0.9-0.088c-0.054-0.016-0.126-0.111-0.117-0.156c0.012-0.063,0.082-0.127,0.145-0.167
	c0.146-0.1,0.303-0.186,0.456-0.277c-0.134-0.044-0.288-0.155-0.398-0.12c-0.439,0.136-0.864,0.318-1.296,0.48
	c-0.081,0.031-0.169,0.045-0.254,0.067c0.01-0.073,0.029-0.145,0.027-0.216c-0.002-0.124,0.015-0.336-0.036-0.355
	c-0.176-0.065-0.377-0.064-0.567-0.088c0.062,0.083,0.146,0.159,0.18,0.252c0.042,0.111,0.04,0.238,0.058,0.358
	c-0.111-0.016-0.271,0.008-0.324-0.056c-0.239-0.287-0.445-0.599-0.666-0.9c-0.014-0.019-0.034-0.045-0.055-0.049
	c-0.306-0.047-0.612-0.092-0.919-0.136c0.112,0.154,0.225,0.306,0.335,0.461c0.124,0.175,0.247,0.352,0.371,0.526
	c-0.188,0-0.412-0.066-0.554,0.015c-0.301,0.172-0.551,0.429-0.834,0.633c-0.13,0.094-0.286,0.191-0.441,0.208
	c-0.661,0.067-1.328,0.127-1.993,0.143c-0.306,0.006-0.614-0.138-0.919-0.131c-0.13,0.002-0.256,0.216-0.383,0.333
	c0.135,0.087,0.264,0.185,0.405,0.255c0.15,0.075,0.405,0.084,0.451,0.192c0.065,0.155-0.01,0.539-0.032,0.54
	c-0.342,0.009-0.689-0.008-1.029-0.06c-0.659-0.101-1.613-0.558-1.918-0.283c-1.019,0.917-1.251-0.258-1.72-0.524
	c-1.045-0.59-2.016-0.566-3.05-0.083c-0.585,0.273-1.168,0.56-1.777,0.765c-0.092,0.031-0.32-0.352-0.486-0.541
	c-0.081-0.091-0.167-0.177-0.252-0.265c0.014,0.116,0.009,0.234,0.039,0.345c0.155,0.581,0.345,1.172-0.606,1.196
	c-0.059,0.001-0.116,0.08-0.175,0.124c0.059,0.016,0.123,0.024,0.177,0.05c0.112,0.054,0.315,0.127,0.312,0.175
	c-0.021,0.197-0.098,0.391-0.168,0.58c-0.038,0.102-0.153,0.193-0.15,0.289c0.003,0.139,0.072,0.281,0.129,0.414
	c0.035,0.082,0.145,0.155,0.137,0.227c-0.008,0.097-0.094,0.185-0.146,0.276c-0.049-0.104-0.071-0.242-0.153-0.307
	c-0.205-0.166-0.438-0.3-0.659-0.447c-0.009,0.113-0.062,0.258-0.013,0.328c0.049,0.067,0.288,0.04,0.298,0.087
	c0.047,0.207,0.056,0.428,0.047,0.64c-0.003,0.067-0.121,0.12-0.162,0.192c-0.427,0.74-0.424,0.739-0.743,0.354
	c-0.066-0.079-0.155-0.139-0.236-0.207c-0.024,0.095-0.052,0.188-0.072,0.284c-0.03,0.143-0.058,0.285-0.087,0.428
	c-0.127-0.192-0.233-0.407-0.391-0.573c-0.166-0.176-0.367-0.333-0.578-0.449c-0.333-0.179-0.693-0.309-1.034-0.474
	c-0.164-0.08-0.303-0.217-0.47-0.285c-0.133-0.054-0.293-0.044-0.44-0.063c0.065,0.189,0.137,0.377,0.2,0.567
	c0.013,0.041,0.007,0.09,0.009,0.135c-0.033-0.01-0.066-0.026-0.101-0.028c-0.582-0.042-1.165-0.09-1.749-0.117
	c-0.479-0.021-0.97-0.089-1.429,0.002c-0.254,0.049-0.444,0.39-0.673,0.588c-0.318,0.276-0.647,0.541-0.969,0.812
	c-0.394,0.331-0.642,0.399-0.497-0.27c0.007-0.029-0.085-0.111-0.096-0.105c-0.072,0.04-0.177,0.086-0.196,0.151
	c-0.085,0.296-0.079,0.645-0.239,0.884c-0.15,0.223-0.473,0.328-0.717,0.487c-0.052,0.035-0.095,0.086-0.142,0.129
	c0.081,0.027,0.162,0.049,0.241,0.078c0.234,0.087,0.467,0.177,0.7,0.266c-0.163,0.152-0.331,0.302-0.488,0.461
	c-0.856,0.859-0.615-0.308-0.912-0.481c-0.495-0.289-1.014-0.537-1.537-0.771c-0.046-0.021-0.188,0.184-0.292,0.275
	c-0.244,0.212-0.483,0.43-0.745,0.618c-0.034,0.023-0.277-0.139-0.269-0.174c0.092-0.358,0.114-0.839,0.355-1.027
	c0.396-0.309,0.888-0.931,1.474-0.194c0.222-0.224,0.454-0.438,0.663-0.675c0.432-0.492,0.878-0.976,1.266-1.503
	c0.396-0.538,0.695-1.15,1.117-1.667c0.072-0.09,0.535,0.139,0.818,0.218c0.048,0.013,0.1,0.006,0.149,0.01
	c-0.047-0.057-0.085-0.125-0.142-0.169c-0.127-0.098-0.263-0.185-0.395-0.276c0.127-0.097,0.268-0.18,0.379-0.292
	c0.478-0.483,0.89-1.054,1.432-1.447c1.066-0.772,0.422-1.965,0.842-2.869c0.061-0.126,0.511-0.068,0.781-0.096
	c0.286-0.031,0.586-0.023,0.858-0.105c0.521-0.156,1.026-0.364,1.539-0.551c0.025-0.01,0.047-0.025,0.072-0.039
	c-0.063-0.072-0.112-0.184-0.188-0.207c-0.338-0.103-0.926-0.102-0.982-0.277c-0.241-0.757,0.266-1.034,0.943-1.074
	c1.14-0.07,2.279-0.192,3.417-0.17c0.478,0.01,0.941,0.445,1.427,0.481c0.646,0.049,1.349,0.01,1.94-0.217
	C208.168,129.377,208.319,128.792,208.477,128.534"/>
<path style="fill:#BBA461;" d="M184.958,89.292c-0.068-0.159-0.122-0.286-0.176-0.413c-0.053,0.127-0.132,0.251-0.146,0.383
	c-0.008,0.066,0.103,0.144,0.16,0.216C184.846,89.422,184.895,89.365,184.958,89.292 M178.271,96.486
	c-0.156-0.337-0.277-0.648-0.441-0.934c-0.075-0.132-0.216-0.26-0.356-0.311c-0.087-0.032-0.228,0.082-0.344,0.129
	c0.086,0.107,0.178,0.212,0.259,0.324c0.162,0.225,0.311,0.459,0.479,0.68c0.069,0.092,0.167,0.167,0.264,0.23
	C178.146,96.614,178.228,96.523,178.271,96.486 M175.136,93.038c0.057-0.074,0.112-0.148,0.168-0.222
	c0.435,0.377,0.872,0.754,1.302,1.136c0.077,0.069,0.132,0.163,0.197,0.246c0.022-0.106,0.098-0.241,0.057-0.312
	c-0.167-0.305-0.383-0.583-0.554-0.888c-0.137-0.249-0.186-0.702-0.355-0.745c-0.29-0.075-0.661,0.061-0.962,0.193
	c-0.122,0.054-0.146,0.327-0.216,0.501C174.893,92.977,175.016,93.007,175.136,93.038 M185.512,92.669
	c0.023-0.051,0.086-0.241,0.185-0.409c0.157-0.264,0.4-0.494,0.49-0.775c0.106-0.327,0.082-0.695,0.121-1.043
	c0.013-0.117,0.107-0.284,0.062-0.334c-0.072-0.08-0.232-0.112-0.354-0.112c-0.372,0.001-0.746,0.05-1.118,0.027
	c-0.104-0.006-0.198-0.195-0.297-0.3c-0.07,0.257-0.147,0.514-0.211,0.773c-0.1,0.414-0.181,0.833-0.29,1.245
	c-0.04,0.146-0.229,0.3-0.197,0.405c0.048,0.159,0.21,0.357,0.359,0.394C184.6,92.624,184.962,92.621,185.512,92.669
	 M190.154,89.401c-0.21,0.186-0.424,0.388-0.652,0.57c-0.244,0.195-0.562,0.326-0.738,0.565c-0.128,0.175-0.076,0.479-0.104,0.727
	c0.126-0.088,0.239-0.217,0.378-0.254c0.587-0.161,1.222-0.484,1.759-0.369c0.32,0.07,0.575,0.815,0.706,1.3
	c0.146,0.539,0.152,1.125,0.148,1.69c-0.002,0.25-0.178,0.5-0.273,0.75c-0.04-0.018-0.108-0.03-0.112-0.052
	c-0.049-0.311-0.1-0.62-0.124-0.931c-0.034-0.393,0.069-0.842-0.094-1.161c-0.139-0.273-0.569-0.399-0.872-0.591
	c0.012,0.345,0.035,0.69,0.03,1.035c-0.002,0.453-0.026,0.905-0.04,1.358c0,0.042,0.002,0.113,0.023,0.122
	c0.066,0.029,0.144,0.031,0.217,0.047c0.223,0.052,0.443,0.104,0.666,0.157c-0.169,0.35-0.251,0.807-0.525,1.015
	c-0.253,0.193-0.71,0.125-1.078,0.169c-0.034,0.005-0.099-0.003-0.106-0.022c-0.052-0.123-0.091-0.251-0.135-0.378
	c-0.123,0.375-0.183,0.787-0.384,1.117c-0.362,0.597-0.797,1.152-1.246,1.687c-0.021,0.027-0.45-0.399-0.719-0.446
	c-0.447-0.079-0.926-0.053-1.384-0.011c-0.58,0.055-1.155,0.171-1.733,0.261c-0.03-0.288-0.07-0.576-0.092-0.864
	c-0.012-0.196,0.075-0.457-0.021-0.579c-0.103-0.131-0.434-0.075-0.551-0.204c-0.317-0.351-0.576-0.756-0.854-1.144
	c-0.336-0.472-0.662-0.952-1.012-1.417c-0.037-0.048-0.246-0.046-0.288,0.004c-0.345,0.402-0.671,0.818-0.992,1.238
	c-0.032,0.041,0.024,0.141,0.014,0.208c-0.052,0.296-0.075,0.604-0.183,0.88c-0.084,0.221-0.233,0.471-0.428,0.583
	c-0.249,0.145-0.566,0.205-0.861,0.227c-0.402,0.029-0.83,0.065-1.21-0.042c-0.54-0.152-1.045-0.428-1.562-0.657
	c-0.069-0.029-0.148-0.072-0.185-0.132c-0.328-0.524-0.609-1.084-0.982-1.573c-0.271-0.354-0.676-0.602-0.981-0.934
	c-0.057-0.064,0.03-0.335,0.124-0.448c0.177-0.207,0.397-0.387,0.624-0.541c0.143-0.097,0.342-0.106,0.497-0.191
	c0.552-0.302,1.096-0.622,1.642-0.933c-0.219-0.095-0.46-0.16-0.652-0.292c-0.249-0.174-0.46-0.404-0.686-0.61
	c0.322-0.052,0.682-0.034,0.961-0.171c0.521-0.26,1.119-0.515,1.461-0.948c0.403-0.509,0.52-1.235,0.852-1.814
	c0.281-0.492,0.646-0.963,1.072-1.325c0.154-0.13,0.665,0.219,0.897,0.108c0.382-0.181,0.735-0.515,0.972-0.871
	c0.214-0.321,0.061-0.901,0.812-0.603c0.298,0.118,0.755-0.159,1.137-0.266c1.007-0.281,1.968-0.922,3.078-0.255
	c0.384,0.231,0.88,0.27,1.301,0.454c0.09,0.04,0.05,0.337,0.103,0.504c0.104,0.322-0.6,0.972,0.377,0.944
	c0.02,0,0.048,0.035,0.059,0.059c0.361,0.846,0.702,1.702,1.096,2.533c0.126,0.27,0.393,0.472,0.596,0.706
	c-0.01-0.155,0.007-0.317-0.042-0.459c-0.032-0.099-0.162-0.16-0.232-0.25c-0.031-0.04-0.023-0.111-0.034-0.167
	c0.093,0.027,0.238,0.027,0.269,0.086C189.958,88.808,190.023,89.037,190.154,89.401"/>
<path style="fill:#C0588E;" d="M143.318,175.851c0-1.666,0.872-3.334,2.183-4.795c1.309-1.248,3.054-1.873,4.802-1.873
	c1.961,0,3.49,0.625,4.8,1.873c1.527,1.461,2.182,3.129,2.182,4.795c0,1.67-0.654,3.336-2.182,4.586
	c-1.31,1.459-2.839,2.084-4.8,2.084c-1.748,0-3.493-0.625-4.802-2.084C144.19,179.187,143.318,177.521,143.318,175.851
	 M243.708,32.854c2.619,2.292,3.928,5.42,3.928,8.755v97.972c0,3.334-1.309,6.254-3.928,8.545c-2.618,2.503-5.675,3.752-9.384,3.752
	H62.787c-3.711,0-6.984-1.25-9.601-3.752c-2.402-2.291-3.711-5.211-3.711-8.545V41.609c0-3.335,1.309-6.463,3.711-8.755
	c2.617-2.292,5.89-3.751,9.601-3.751h171.538C238.033,29.103,241.09,30.562,243.708,32.854 M254.184,20.556
	c-2.619-2.502-5.674-3.752-9.604-3.752H53.402c-3.709,0-6.984,1.25-9.603,3.752c-2.617,2.501-3.928,5.42-3.708,8.964v151.752
	c-0.22,3.334,1.091,6.461,3.708,8.754c2.619,2.5,5.894,3.752,9.603,3.752H244.58c3.93,0,6.984-1.252,9.604-3.752
	c2.4-2.293,3.928-5.42,4.146-8.754V29.52C258.111,25.976,256.584,23.057,254.184,20.556"/>
<path style="fill:#C0588E;" d="M107.709,225.671c10.476,1.666,22.916,2.502,37.101,2.502h3.928h1.091
	c7.638-0.209,15.931-0.418,24.66-1.043c4.366-0.418,8.512-0.832,12.224-1.459c0.654-2.711,0.654-4.586,0-6.047
	c-0.438-1.041-1.092-2.291-1.966-3.75c-1.528-1.668-3.709-3.752-6.109-5.838c-1.528-4.375-2.183-8.545-2.402-12.924h-57.833
	c0,4.379-0.872,8.549-2.4,12.924c-4.365,3.961-7.202,7.088-8.293,9.588C107.055,221.085,107.055,222.96,107.709,225.671"/>
<g>
	<path style="fill:#1A2A4F;" d="M45.314,257.538c-3.704,0-5.666-2.562-5.666-6.967s1.962-6.967,5.666-6.967s5.666,2.562,5.666,6.967
		S49.018,257.538,45.314,257.538z M45.314,246.066c-1.722,0-2.703,1.322-2.703,4.505s0.981,4.505,2.703,4.505
		s2.703-1.322,2.703-4.505S47.036,246.066,45.314,246.066z"/>
	<path style="fill:#1A2A4F;" d="M61.546,246.247h-5.325v2.923h4.484c0.08,0.221,0.14,0.621,0.14,1.182
		c0,0.439-0.04,0.801-0.14,1.221h-4.484v5.766c-0.38,0.061-0.821,0.1-1.421,0.1c-0.541,0-1.061-0.039-1.441-0.1v-13.533h8.188
		c0.08,0.221,0.14,0.641,0.14,1.201C61.687,245.446,61.646,245.826,61.546,246.247z"/>
	<path style="fill:#1A2A4F;" d="M79.88,257.338c-0.26,0.061-0.881,0.1-1.542,0.1c-0.521,0-1.121-0.06-1.381-0.1l-1.001-2.742h-4.805
		l-0.941,2.742c-0.44,0.061-0.961,0.1-1.481,0.1s-1.121-0.039-1.421-0.1l4.725-13.533c0.28-0.061,0.941-0.1,1.381-0.1
		c0.541,0,1.181,0.039,1.401,0.1L79.88,257.338z M75.095,252.213l-1.181-3.824c-0.14-0.439-0.28-1-0.4-1.621h-0.04
		c-0.1,0.621-0.26,1.182-0.4,1.621l-1.121,3.824H75.095z"/>
	<path style="fill:#1A2A4F;" d="M89.946,257.338h-8.288v-13.533c0.38-0.061,0.901-0.1,1.401-0.1c0.561,0,1.101,0.039,1.461,0.1
		v11.091h5.425c0.08,0.22,0.14,0.641,0.14,1.201C90.086,256.537,90.046,256.918,89.946,257.338z"/>
	<path style="fill:#1A2A4F;" d="M100.473,257.338h-8.288v-13.533c0.38-0.061,0.901-0.1,1.401-0.1c0.561,0,1.101,0.039,1.461,0.1
		v11.091h5.425c0.08,0.22,0.14,0.641,0.14,1.201C100.613,256.537,100.573,256.918,100.473,257.338z"/>
	<path style="fill:#1A2A4F;" d="M116.424,252.193c0,3.443-1.321,5.345-5.165,5.345c-3.884,0-5.105-1.901-5.105-5.345v-8.389
		c0.4-0.061,0.921-0.1,1.401-0.1c0.561,0,1.061,0.039,1.461,0.1v8.588c0,1.842,0.521,2.883,2.262,2.883s2.342-1.041,2.342-2.883
		v-8.588c0.36-0.061,0.961-0.1,1.421-0.1c0.44,0,1.041,0.039,1.381,0.1V252.193z"/>
	<path style="fill:#1A2A4F;" d="M129.994,257.338c-0.36,0.061-1.001,0.1-1.702,0.1c-0.5,0-1.221-0.039-1.642-0.1l-3.503-5.426
		l-0.921,1.102v4.324c-0.38,0.061-0.841,0.1-1.441,0.1c-0.541,0-1.041-0.039-1.421-0.1v-13.533c0.38-0.061,0.941-0.1,1.441-0.1
		c0.561,0,1.061,0.039,1.421,0.1v5.826l2.322-2.723c1.021-1.201,1.582-2.062,1.802-3.104c0.4-0.061,0.961-0.1,1.401-0.1
		c0.36,0,0.981,0.039,1.401,0.1c-0.3,1.582-1.141,2.963-2.342,4.344l-1.602,1.842L129.994,257.338z"/>
	<path style="fill:#1A2A4F;" d="M146.366,252.193c0,3.443-1.321,5.345-5.165,5.345c-3.884,0-5.105-1.901-5.105-5.345v-8.389
		c0.4-0.061,0.921-0.1,1.401-0.1c0.561,0,1.061,0.039,1.461,0.1v8.588c0,1.842,0.521,2.883,2.262,2.883s2.342-1.041,2.342-2.883
		v-8.588c0.36-0.061,0.961-0.1,1.421-0.1c0.44,0,1.041,0.039,1.381,0.1V252.193z"/>
	<path style="fill:#1A2A4F;" d="M160.155,257.338c-0.2,0.04-0.681,0.08-1.021,0.08c-0.341,0-0.682-0.02-1.002-0.08l-6.226-8.668
		v8.668c-0.16,0.04-0.761,0.1-1.321,0.1c-0.46,0-1.001-0.06-1.281-0.1v-13.533c0.32-0.061,0.701-0.08,1.061-0.08
		c0.38,0,0.781,0.04,1.081,0.08l6.106,8.508v-8.508c0.4-0.061,0.921-0.1,1.301-0.1c0.381,0,0.941,0.039,1.302,0.1V257.338z"/>
	<path style="fill:#1A2A4F;" d="M166.058,257.338c-0.38,0.061-0.841,0.1-1.441,0.1c-0.54,0-1.041-0.039-1.421-0.1v-13.533
		c0.38-0.061,0.94-0.1,1.441-0.1c0.561,0,1.061,0.039,1.421,0.1V257.338z"/>
	<path style="fill:#1A2A4F;" d="M173.023,251.412c0.3,0.841,0.6,1.781,0.74,2.582h0.04c0.14-0.801,0.421-1.741,0.721-2.582
		l1.481-4.284c0.381-1.101,0.601-2.162,0.621-3.323c0.4-0.061,0.961-0.1,1.421-0.1c0.421,0,1.021,0.039,1.382,0.1
		c0,1.342-0.24,2.623-0.781,4.044l-3.623,9.489c-0.24,0.061-0.801,0.1-1.281,0.1c-0.541,0-0.981-0.039-1.342-0.1l-3.563-9.449
		c-0.54-1.422-0.78-2.742-0.78-4.084c0.359-0.061,0.84-0.1,1.441-0.1c0.46,0,1.041,0.039,1.4,0.1c0,1.241,0.221,2.223,0.602,3.323
		L173.023,251.412z"/>
	<path style="fill:#1A2A4F;" d="M189.775,257.338h-8.469v-13.533h8.289c0.08,0.221,0.14,0.641,0.14,1.201
		c0,0.44-0.04,0.82-0.14,1.241h-5.426v2.923h4.584c0.08,0.221,0.141,0.621,0.141,1.182c0,0.439-0.04,0.801-0.141,1.221h-4.584v3.323
		h5.605c0.08,0.22,0.141,0.641,0.141,1.201C189.916,256.537,189.875,256.918,189.775,257.338z"/>
	<path style="fill:#1A2A4F;" d="M202.145,257.318c-0.52,0.08-1.061,0.119-1.682,0.119c-0.561,0-1.121-0.02-1.501-0.1l-2.743-4.865
		h-1.181v4.865c-0.501,0.08-0.921,0.1-1.462,0.1c-0.48,0-0.9-0.02-1.4-0.1v-13.533c0.92-0.061,2.842-0.1,4.004-0.1
		c3.402,0,5.104,1.201,5.104,4.324c0,1.661-1.001,3.322-2.402,3.924L202.145,257.318z M196.359,246.047
		c-0.44,0-0.98,0.02-1.321,0.04v4.004h1.001c1.642,0,2.362-0.601,2.362-2.082S197.681,246.047,196.359,246.047z"/>
	<path style="fill:#1A2A4F;" d="M207.848,257.538c-1.462,0-3.063-0.28-4.205-0.801c-0.06-0.28-0.1-0.641-0.1-0.961
		c0-0.48,0.061-0.94,0.2-1.481c1.181,0.48,2.743,0.781,3.964,0.781c1.422,0,2.182-0.661,2.182-1.562c0-1-0.641-1.421-2.582-2.021
		c-2.162-0.66-3.744-1.701-3.744-4.023c0-2.482,2.143-3.864,4.965-3.864c1.302,0,2.463,0.2,3.244,0.46
		c0.06,0.221,0.1,0.581,0.1,1.102c0,0.381-0.04,0.961-0.12,1.281c-1.001-0.26-2.142-0.4-3.063-0.4c-1.501,0-2.322,0.5-2.322,1.301
		c0,0.941,0.741,1.322,2.543,1.883c2.162,0.68,3.764,1.701,3.764,4.104C212.672,255.957,210.609,257.538,207.848,257.538z"/>
	<path style="fill:#1A2A4F;" d="M217.874,257.338c-0.38,0.061-0.841,0.1-1.441,0.1c-0.54,0-1.041-0.039-1.421-0.1v-13.533
		c0.38-0.061,0.94-0.1,1.441-0.1c0.561,0,1.061,0.039,1.421,0.1V257.338z"/>
	<path style="fill:#1A2A4F;" d="M229.904,246.247h-3.584v11.091c-0.38,0.061-0.92,0.1-1.421,0.1s-1.041-0.039-1.441-0.1v-11.091
		h-3.583c-0.08-0.261-0.141-0.881-0.141-1.222c0-0.34,0.08-0.961,0.16-1.221h10.01c0.08,0.26,0.141,0.881,0.141,1.221
		C230.045,245.366,229.984,245.986,229.904,246.247z"/>
	<path style="fill:#1A2A4F;" d="M234.766,257.338c-0.381,0.061-0.841,0.1-1.441,0.1c-0.541,0-1.041-0.039-1.422-0.1v-13.533
		c0.381-0.061,0.941-0.1,1.441-0.1c0.561,0,1.062,0.039,1.422,0.1V257.338z"/>
	<path style="fill:#1A2A4F;" d="M246.275,257.338h-8.469v-13.533h8.289c0.08,0.221,0.14,0.641,0.14,1.201
		c0,0.44-0.04,0.82-0.14,1.241h-5.426v2.923h4.584c0.08,0.221,0.141,0.621,0.141,1.182c0,0.439-0.04,0.801-0.141,1.221h-4.584v3.323
		h5.605c0.08,0.22,0.141,0.641,0.141,1.201C246.416,256.537,246.375,256.918,246.275,257.338z"/>
	<path style="fill:#1A2A4F;" d="M252.357,257.538c-1.461,0-3.062-0.28-4.203-0.801c-0.061-0.28-0.101-0.641-0.101-0.961
		c0-0.48,0.06-0.94,0.2-1.481c1.182,0.48,2.742,0.781,3.964,0.781c1.421,0,2.183-0.661,2.183-1.562c0-1-0.641-1.421-2.583-2.021
		c-2.162-0.66-3.743-1.701-3.743-4.023c0-2.482,2.142-3.864,4.965-3.864c1.301,0,2.462,0.2,3.242,0.46
		c0.061,0.221,0.101,0.581,0.101,1.102c0,0.381-0.04,0.961-0.12,1.281c-1.001-0.26-2.143-0.4-3.062-0.4
		c-1.502,0-2.322,0.5-2.322,1.301c0,0.941,0.74,1.322,2.542,1.883c2.162,0.68,3.764,1.701,3.764,4.104
		C257.183,255.957,255.121,257.538,252.357,257.538z"/>
</g>
<g>
	<path style="fill:#1A2A4F;" d="M48.457,269.343h-5.325v2.923h4.484c0.08,0.221,0.14,0.621,0.14,1.182
		c0,0.439-0.04,0.801-0.14,1.221h-4.484v5.766c-0.38,0.061-0.821,0.1-1.421,0.1c-0.541,0-1.061-0.039-1.441-0.1V266.9h8.188
		c0.08,0.221,0.14,0.641,0.14,1.201C48.597,268.542,48.557,268.922,48.457,269.343z"/>
	<path style="fill:#1A2A4F;" d="M55.281,280.634c-3.704,0-5.666-2.562-5.666-6.967s1.962-6.967,5.666-6.967s5.666,2.562,5.666,6.967
		S58.984,280.634,55.281,280.634z M55.281,269.162c-1.722,0-2.703,1.322-2.703,4.505s0.981,4.505,2.703,4.505
		s2.703-1.322,2.703-4.505S57.002,269.162,55.281,269.162z"/>
	<path style="fill:#1A2A4F;" d="M73.295,280.414c-0.521,0.08-1.061,0.119-1.682,0.119c-0.561,0-1.121-0.02-1.501-0.1l-2.743-4.865
		h-1.181v4.865c-0.5,0.08-0.921,0.1-1.461,0.1c-0.48,0-0.901-0.02-1.401-0.1V266.9c0.921-0.061,2.843-0.1,4.004-0.1
		c3.403,0,5.105,1.201,5.105,4.324c0,1.661-1.001,3.322-2.402,3.924L73.295,280.414z M67.509,269.143c-0.44,0-0.981,0.02-1.321,0.04
		v4.004h1.001c1.642,0,2.362-0.601,2.362-2.082S68.831,269.143,67.509,269.143z"/>
	<path style="fill:#1A2A4F;" d="M84.861,280.634c-3.704,0-5.666-2.562-5.666-6.967s1.962-6.967,5.666-6.967s5.666,2.562,5.666,6.967
		S88.565,280.634,84.861,280.634z M84.861,269.162c-1.722,0-2.703,1.322-2.703,4.505s0.981,4.505,2.703,4.505
		s2.703-1.322,2.703-4.505S86.583,269.162,84.861,269.162z"/>
	<path style="fill:#1A2A4F;" d="M96.449,274.508c0.3,0.841,0.601,1.781,0.741,2.582h0.04c0.14-0.801,0.42-1.741,0.721-2.582
		l1.481-4.284c0.38-1.101,0.601-2.162,0.621-3.323c0.4-0.061,0.961-0.1,1.421-0.1c0.42,0,1.021,0.039,1.381,0.1
		c0,1.342-0.24,2.623-0.781,4.044l-3.624,9.489c-0.24,0.061-0.801,0.1-1.281,0.1c-0.541,0-0.981-0.039-1.341-0.1l-3.563-9.449
		c-0.541-1.422-0.781-2.742-0.781-4.084c0.36-0.061,0.841-0.1,1.441-0.1c0.46,0,1.041,0.039,1.401,0.1
		c0,1.241,0.22,2.223,0.601,3.323L96.449,274.508z"/>
	<path style="fill:#1A2A4F;" d="M113.202,280.434h-8.468V266.9h8.288c0.08,0.221,0.14,0.641,0.14,1.201c0,0.44-0.04,0.82-0.14,1.241
		h-5.425v2.923h4.584c0.08,0.221,0.14,0.621,0.14,1.182c0,0.439-0.04,0.801-0.14,1.221h-4.584v3.323h5.605
		c0.08,0.22,0.14,0.641,0.14,1.201C113.342,279.633,113.302,280.014,113.202,280.434z"/>
	<path style="fill:#1A2A4F;" d="M125.571,280.414c-0.521,0.08-1.061,0.119-1.682,0.119c-0.561,0-1.121-0.02-1.501-0.1l-2.743-4.865
		h-1.181v4.865c-0.5,0.08-0.921,0.1-1.461,0.1c-0.48,0-0.901-0.02-1.401-0.1V266.9c0.921-0.061,2.843-0.1,4.004-0.1
		c3.403,0,5.105,1.201,5.105,4.324c0,1.661-1.001,3.322-2.402,3.924L125.571,280.414z M119.786,269.143
		c-0.44,0-0.981,0.02-1.321,0.04v4.004h1.001c1.642,0,2.362-0.601,2.362-2.082S121.107,269.143,119.786,269.143z"/>
	<path style="fill:#1A2A4F;" d="M139.342,280.434c-0.26,0.061-0.881,0.1-1.542,0.1c-0.521,0-1.121-0.06-1.381-0.1l-1.001-2.742
		h-4.805l-0.941,2.742c-0.44,0.061-0.961,0.1-1.481,0.1s-1.121-0.039-1.421-0.1l4.725-13.533c0.28-0.061,0.941-0.1,1.381-0.1
		c0.541,0,1.181,0.039,1.401,0.1L139.342,280.434z M134.557,275.309l-1.181-3.824c-0.14-0.439-0.28-1-0.4-1.621h-0.04
		c-0.1,0.621-0.26,1.182-0.4,1.621l-1.121,3.824H134.557z"/>
	<path style="fill:#1A2A4F;" d="M149.408,280.434h-8.288V266.9c0.38-0.061,0.901-0.1,1.401-0.1c0.561,0,1.101,0.039,1.461,0.1
		v11.091h5.425c0.08,0.22,0.14,0.641,0.14,1.201C149.548,279.633,149.508,280.014,149.408,280.434z"/>
	<path style="fill:#1A2A4F;" d="M159.936,280.434h-8.289V266.9c0.381-0.061,0.901-0.1,1.401-0.1c0.561,0,1.102,0.039,1.462,0.1
		v11.091h5.426c0.08,0.22,0.14,0.641,0.14,1.201C160.075,279.633,160.035,280.014,159.936,280.434z"/>
	<path style="fill:#1A2A4F;" d="M175.666,280.414c-0.52,0.08-1.061,0.119-1.682,0.119c-0.561,0-1.121-0.02-1.501-0.1l-2.743-4.865
		h-1.181v4.865c-0.501,0.08-0.921,0.1-1.462,0.1c-0.48,0-0.9-0.02-1.4-0.1V266.9c0.92-0.061,2.842-0.1,4.004-0.1
		c3.402,0,5.104,1.201,5.104,4.324c0,1.661-1.001,3.322-2.402,3.924L175.666,280.414z M169.881,269.143
		c-0.44,0-0.98,0.02-1.321,0.04v4.004h1.001c1.642,0,2.362-0.601,2.362-2.082S171.202,269.143,169.881,269.143z"/>
	<path style="fill:#1A2A4F;" d="M186.153,280.434h-8.468V266.9h8.287c0.08,0.221,0.141,0.641,0.141,1.201
		c0,0.44-0.04,0.82-0.141,1.241h-5.425v2.923h4.585c0.08,0.221,0.14,0.621,0.14,1.182c0,0.439-0.04,0.801-0.14,1.221h-4.585v3.323
		h5.605c0.08,0.22,0.14,0.641,0.14,1.201C186.293,279.633,186.254,280.014,186.153,280.434z"/>
	<path style="fill:#1A2A4F;" d="M192.236,280.634c-1.462,0-3.063-0.28-4.205-0.801c-0.06-0.28-0.1-0.641-0.1-0.961
		c0-0.48,0.061-0.94,0.2-1.481c1.181,0.48,2.743,0.781,3.964,0.781c1.422,0,2.182-0.661,2.182-1.562c0-1-0.641-1.421-2.582-2.021
		c-2.162-0.66-3.744-1.701-3.744-4.023c0-2.482,2.143-3.864,4.965-3.864c1.302,0,2.463,0.2,3.244,0.46
		c0.06,0.221,0.1,0.581,0.1,1.102c0,0.381-0.04,0.961-0.12,1.281c-1.001-0.26-2.142-0.4-3.063-0.4c-1.501,0-2.322,0.5-2.322,1.301
		c0,0.941,0.741,1.322,2.543,1.883c2.162,0.68,3.764,1.701,3.764,4.104C197.061,279.053,194.998,280.634,192.236,280.634z"/>
	<path style="fill:#1A2A4F;" d="M207.828,280.434h-8.469V266.9h8.289c0.08,0.221,0.14,0.641,0.14,1.201c0,0.44-0.04,0.82-0.14,1.241
		h-5.426v2.923h4.584c0.08,0.221,0.141,0.621,0.141,1.182c0,0.439-0.04,0.801-0.141,1.221h-4.584v3.323h5.605
		c0.08,0.22,0.141,0.641,0.141,1.201C207.969,279.633,207.928,280.014,207.828,280.434z"/>
	<path style="fill:#1A2A4F;" d="M221.899,280.434c-0.261,0.061-0.881,0.1-1.542,0.1c-0.52,0-1.121-0.06-1.381-0.1l-1.001-2.742
		h-4.805l-0.94,2.742c-0.441,0.061-0.961,0.1-1.482,0.1c-0.52,0-1.121-0.039-1.421-0.1l4.725-13.533c0.28-0.061,0.94-0.1,1.382-0.1
		c0.54,0,1.181,0.039,1.4,0.1L221.899,280.434z M217.115,275.309l-1.182-3.824c-0.141-0.439-0.28-1-0.4-1.621h-0.04
		c-0.101,0.621-0.261,1.182-0.4,1.621l-1.121,3.824H217.115z"/>
	<path style="fill:#1A2A4F;" d="M233.646,280.414c-0.52,0.08-1.061,0.119-1.682,0.119c-0.561,0-1.121-0.02-1.501-0.1l-2.743-4.865
		h-1.181v4.865c-0.501,0.08-0.921,0.1-1.462,0.1c-0.48,0-0.9-0.02-1.4-0.1V266.9c0.92-0.061,2.842-0.1,4.004-0.1
		c3.402,0,5.104,1.201,5.104,4.324c0,1.661-1.001,3.322-2.402,3.924L233.646,280.414z M227.861,269.143
		c-0.44,0-0.98,0.02-1.321,0.04v4.004h1.001c1.642,0,2.362-0.601,2.362-2.082S229.183,269.143,227.861,269.143z"/>
	<path style="fill:#1A2A4F;" d="M244.675,269.723c-0.961-0.3-2.162-0.52-3.123-0.52c-2.282,0-3.764,1.621-3.764,4.523
		c0,2.663,1.161,4.404,3.743,4.404c0.961,0,2.043-0.199,3.004-0.5c0.14,0.36,0.24,0.921,0.24,1.342c0,0.34-0.021,0.76-0.061,0.94
		c-1.001,0.46-2.282,0.721-3.463,0.721c-4.305,0-6.427-2.603-6.427-6.847c0-4.124,2.282-7.087,6.546-7.087
		c1.041,0,2.402,0.261,3.363,0.681c0.061,0.2,0.08,0.641,0.08,0.9C244.814,268.902,244.734,269.482,244.675,269.723z"/>
	<path style="fill:#1A2A4F;" d="M257.504,280.434c-0.36,0.061-0.861,0.1-1.422,0.1s-1.061-0.039-1.441-0.1v-5.605h-4.704v5.605
		c-0.38,0.061-0.821,0.1-1.421,0.1c-0.541,0-1.062-0.039-1.441-0.1V266.9c0.38-0.061,0.94-0.1,1.441-0.1
		c0.561,0,1.061,0.039,1.421,0.1v5.485h4.704V266.9c0.441-0.061,0.941-0.1,1.441-0.1c0.48,0,1.082,0.039,1.422,0.1V280.434z"/>
</g>
</svg>
