<?xml version="1.0" encoding="utf-8"?>
<!-- Generator: Adobe Illustrator 16.0.0, SVG Export Plug-In . SVG Version: 6.00 Build 0)  -->
<!DOCTYPE svg PUBLIC "-//W3C//DTD SVG 1.0//EN" "http://www.w3.org/TR/2001/REC-SVG-20010904/DTD/svg10.dtd">
<svg version="1.0" xmlns="http://www.w3.org/2000/svg" xmlns:xlink="http://www.w3.org/1999/xlink" x="0px" y="0px" width="300px"
	 height="300px" viewBox="0 0 300 300" style="enable-background:new 0 0 300 300;" xml:space="preserve">
<g id="Icons">
	<polygon style="fill:#B4A168;" points="162.595,84.041 161.399,61.251 161.451,61.193 160.751,47.812 133.316,23.162 76.43,26.142 
		82.01,132.623 164.968,128.276 162.647,83.98 	"/>
	<path style="fill:#FFFFFF;" d="M223.056,55.776l5.909,0.439l-9.483,58.229l-5.907-0.438L223.056,55.776z M203.617,49.781
		l3.237-19.888l-50.396-8.208l-15.241,93.588l70.286,11.447l5.182-31.811l6.881-5.187l-7.133,43.78l-81.991-13.353l17.14-105.239
		l56.224,9.156l21.58,29.911l-2.153,13.224l-6.837,4.923l3.111-19.106L203.617,49.781z"/>
	<polygon style="fill:#1A2A4F;" points="223.507,53.02 223.06,55.776 223.056,55.776 213.574,114.007 211.504,126.72 
		141.218,115.273 156.459,21.685 206.857,29.892 203.617,49.782 	"/>
	
		<rect x="184.523" y="31.938" transform="matrix(0.1567 -0.9877 0.9877 0.1567 96.7928 236.0148)" style="fill:#FFFFFF;" width="4.151" height="58.782"/>
	
		<rect x="180.994" y="54.222" transform="matrix(0.1564 -0.9877 0.9877 0.1564 71.8455 251.3488)" style="fill:#FFFFFF;" width="4.151" height="58.783"/>
	
		<rect x="182.759" y="43.08" transform="matrix(0.1567 -0.9877 0.9877 0.1567 84.3001 243.6694)" style="fill:#FFFFFF;" width="4.151" height="58.783"/>
	
		<rect x="179.23" y="65.363" transform="matrix(0.1564 -0.9877 0.9877 0.1564 59.3529 259.0049)" style="fill:#FFFFFF;" width="4.151" height="58.784"/>
	
		<rect x="166.661" y="85.735" transform="matrix(0.1567 -0.9876 0.9876 0.1567 39.3974 254.5139)" style="fill:#FFFFFF;" width="4.151" height="36.904"/>
</g>
<g id="Text" style="display:none;">
	<text transform="matrix(1 0 0 1 87.5977 182.8779)" style="display:inline;"><tspan x="0" y="0" style="fill:#1A2A4F; font-family:'FSMatthew-Bold'; font-size:55.349; letter-spacing:-4;">1</tspan><tspan x="25.958" y="0" style="fill:#1A2A4F; font-family:'FSMatthew-Bold'; font-size:55.349;">00</tspan><tspan x="85.623" y="0" style="fill:#1A2A4F; font-family:'FSMatthew-Bold'; font-size:55.349;">%</tspan></text>
	<text transform="matrix(1 0 0 1 92.7207 209.6299)" style="display:inline;"><tspan x="0" y="0" style="fill:#B4A168; font-family:'FSMatthew-Bold'; font-size:29.7229; letter-spacing:-1;">S</tspan><tspan x="14.98" y="0" style="fill:#B4A168; font-family:'FSMatthew-Bold'; font-size:29.7229;">T</tspan><tspan x="30.971" y="0" style="fill:#B4A168; font-family:'FSMatthew-Bold'; font-size:29.7229;">U</tspan><tspan x="50.202" y="0" style="fill:#B4A168; font-family:'FSMatthew-Bold'; font-size:29.7229;">DEN</tspan><tspan x="105.723" y="0" style="fill:#B4A168; font-family:'FSMatthew-Bold'; font-size:29.7229;">T</tspan></text>
	<text transform="matrix(1 0 0 1 93.6982 227.6582)" style="display:inline;"><tspan x="0" y="0" style="fill:#B4A168; font-family:'FSMatthew-Bold'; font-size:18.797;">S</tspan><tspan x="9.68" y="0" style="fill:#B4A168; font-family:'FSMatthew-Bold'; font-size:18.797; letter-spacing:-1;">A</tspan><tspan x="20.488" y="0" style="fill:#B4A168; font-family:'FSMatthew-Bold'; font-size:18.797;">T</tspan><tspan x="30.601" y="0" style="fill:#B4A168; font-family:'FSMatthew-Bold'; font-size:18.797;">I</tspan><tspan x="35.996" y="0" style="fill:#B4A168; font-family:'FSMatthew-Bold'; font-size:18.797;">S</tspan><tspan x="45.977" y="0" style="fill:#B4A168; font-family:'FSMatthew-Bold'; font-size:18.797; letter-spacing:-1;">F</tspan><tspan x="54.961" y="0" style="fill:#B4A168; font-family:'FSMatthew-Bold'; font-size:18.797;">A</tspan><tspan x="66.653" y="0" style="fill:#B4A168; font-family:'FSMatthew-Bold'; font-size:18.797;">C</tspan><tspan x="77.894" y="0" style="fill:#B4A168; font-family:'FSMatthew-Bold'; font-size:18.797;">T</tspan><tspan x="87.987" y="0" style="fill:#B4A168; font-family:'FSMatthew-Bold'; font-size:18.797;">IO</tspan><tspan x="105.524" y="0" style="fill:#B4A168; font-family:'FSMatthew-Bold'; font-size:18.797;">N</tspan></text>
	<text transform="matrix(1 0 0 1 94.1309 244.8574)" style="display:inline;"><tspan x="0" y="0" style="fill:#1A2A4F; font-family:'FSMatthew'; font-size:11.3482;">F</tspan><tspan x="5.379" y="0" style="fill:#1A2A4F; font-family:'FSMatthew'; font-size:11.3482;">O</tspan><tspan x="12.63" y="0" style="fill:#1A2A4F; font-family:'FSMatthew'; font-size:11.3482;">R</tspan><tspan x="19.087" y="0" style="fill:#1A2A4F; font-family:'FSMatthew'; font-size:11.3482;"> CIVI</tspan><tspan x="41.239" y="0" style="fill:#1A2A4F; font-family:'FSMatthew'; font-size:11.3482;">L</tspan><tspan x="46.697" y="0" style="fill:#1A2A4F; font-family:'FSMatthew'; font-size:11.3482;"> ENGINEE</tspan><tspan x="93.155" y="0" style="fill:#1A2A4F; font-family:'FSMatthew'; font-size:11.3482;">R</tspan><tspan x="99.612" y="0" style="fill:#1A2A4F; font-family:'FSMatthew'; font-size:11.3482;">IN</tspan><tspan x="110.519" y="0" style="fill:#1A2A4F; font-family:'FSMatthew'; font-size:11.3482;">G </tspan></text>
	<text transform="matrix(1 0 0 1 97.9268 254.9453)" style="display:inline;"><tspan x="0" y="0" style="fill:#1A2A4F; font-family:'FSMatthew'; font-size:11.3482;">AND ENVI</tspan><tspan x="48.32" y="0" style="fill:#1A2A4F; font-family:'FSMatthew'; font-size:11.3482;">R</tspan><tspan x="54.562" y="0" style="fill:#1A2A4F; font-family:'FSMatthew'; font-size:11.3482;">ONMEN</tspan><tspan x="92.361" y="0" style="fill:#1A2A4F; font-family:'FSMatthew'; font-size:11.3482;">T</tspan><tspan x="97.707" y="0" style="fill:#1A2A4F; font-family:'FSMatthew'; font-size:11.3482;">A</tspan><tspan x="104.686" y="0" style="fill:#1A2A4F; font-family:'FSMatthew'; font-size:11.3482;">L</tspan><tspan x="109.974" y="0" style="fill:#1A2A4F; font-family:'FSMatthew'; font-size:11.3482;"> </tspan></text>
	<text transform="matrix(1 0 0 1 109.3604 265.0312)" style="display:inline;"><tspan x="0" y="0" style="fill:#1A2A4F; font-family:'FSMatthew'; font-size:11.3482;">H</tspan><tspan x="7.535" y="0" style="fill:#1A2A4F; font-family:'FSMatthew'; font-size:11.3482;">E</tspan><tspan x="13.595" y="0" style="fill:#1A2A4F; font-family:'FSMatthew'; font-size:11.3482;">A</tspan><tspan x="20.574" y="0" style="fill:#1A2A4F; font-family:'FSMatthew'; font-size:11.3482;">L</tspan><tspan x="25.329" y="0" style="fill:#1A2A4F; font-family:'FSMatthew'; font-size:11.3482;">T</tspan><tspan x="31.479" y="0" style="fill:#1A2A4F; font-family:'FSMatthew'; font-size:11.3482;">H </tspan><tspan x="41.681" y="0" style="fill:#1A2A4F; font-family:'FSMatthew'; font-size:11.3482;">C</tspan><tspan x="48.229" y="0" style="fill:#1A2A4F; font-family:'FSMatthew'; font-size:11.3482;">O</tspan><tspan x="55.469" y="0" style="fill:#1A2A4F; font-family:'FSMatthew'; font-size:11.3482;">U</tspan><tspan x="62.777" y="0" style="fill:#1A2A4F; font-family:'FSMatthew'; font-size:11.3482;">R</tspan><tspan x="69.234" y="0" style="fill:#1A2A4F; font-family:'FSMatthew'; font-size:11.3482;">SE</tspan><tspan x="81.218" y="0" style="fill:#1A2A4F; font-family:'FSMatthew'; font-size:11.3482;">S </tspan></text>
	<text transform="matrix(1 0 0 1 124.1748 281.1387)" style="display:inline;"><tspan x="0" y="0" style="fill:#1A2A4F; font-family:'FSMatthew'; font-size:11.3482;">(</tspan><tspan x="3.847" y="0" style="fill:#1A2A4F; font-family:'FSMatthew'; font-size:11.3482;">N</tspan><tspan x="11.632" y="0" style="fill:#1A2A4F; font-family:'FSMatthew'; font-size:11.3482;">S</tspan><tspan x="17.521" y="0" style="fill:#1A2A4F; font-family:'FSMatthew'; font-size:11.3482;">S, 2</tspan><tspan x="34.952" y="0" style="fill:#1A2A4F; font-family:'FSMatthew'; font-size:11.3482;">01</tspan><tspan x="47.48" y="0" style="fill:#1A2A4F; font-family:'FSMatthew'; font-size:11.3482;">4</tspan><tspan x="53.756" y="0" style="fill:#1A2A4F; font-family:'FSMatthew'; font-size:11.3482;">)</tspan></text>
	<text transform="matrix(-0.0523 -0.9986 0.9986 -0.0523 101.478 127.499)" style="display:inline;"><tspan x="0" y="0" style="fill:#FFFFFF; font-family:'FSMatthew-Bold'; font-size:20.6599;">N</tspan><tspan x="13.904" y="0" style="fill:#FFFFFF; font-family:'FSMatthew-Bold'; font-size:20.6599; letter-spacing:-1;">A</tspan><tspan x="25.576" y="0" style="fill:#FFFFFF; font-family:'FSMatthew-Bold'; font-size:20.6599;">T</tspan><tspan x="36.485" y="0" style="fill:#FFFFFF; font-family:'FSMatthew-Bold'; font-size:20.6599;">I</tspan><tspan x="42.207" y="0" style="fill:#FFFFFF; font-family:'FSMatthew-Bold'; font-size:20.6599;">ONA</tspan><tspan x="82.391" y="0" style="fill:#FFFFFF; font-family:'FSMatthew-Bold'; font-size:20.6599;">L</tspan></text>
	<text transform="matrix(-0.0523 -0.9986 0.9986 -0.0523 119.1606 126.5664)" style="display:inline;"><tspan x="0" y="0" style="fill:#FFFFFF; font-family:'FSMatthew-Bold'; font-size:20.6599;">S</tspan><tspan x="10.227" y="0" style="fill:#FFFFFF; font-family:'FSMatthew-Bold'; font-size:20.6599;">TU</tspan><tspan x="34.274" y="0" style="fill:#FFFFFF; font-family:'FSMatthew-Bold'; font-size:20.6599;">D</tspan><tspan x="47.518" y="0" style="fill:#FFFFFF; font-family:'FSMatthew-Bold'; font-size:20.6599;">E</tspan><tspan x="58.322" y="0" style="fill:#FFFFFF; font-family:'FSMatthew-Bold'; font-size:20.6599;">N</tspan><tspan x="72.227" y="0" style="fill:#FFFFFF; font-family:'FSMatthew-Bold'; font-size:20.6599; letter-spacing:-1;">T</tspan><tspan x="82.515" y="0" style="fill:#FFFFFF; font-family:'FSMatthew-Bold'; font-size:20.6599;"> </tspan></text>
	<text transform="matrix(-0.0523 -0.9986 0.9986 -0.0523 136.8457 125.6455)" style="display:inline;"><tspan x="0" y="0" style="fill:#FFFFFF; font-family:'FSMatthew-Bold'; font-size:20.6599;">S</tspan><tspan x="10.764" y="0" style="fill:#FFFFFF; font-family:'FSMatthew-Bold'; font-size:20.6599;">U</tspan><tspan x="23.924" y="0" style="fill:#FFFFFF; font-family:'FSMatthew-Bold'; font-size:20.6599;">R</tspan><tspan x="35.638" y="0" style="fill:#FFFFFF; font-family:'FSMatthew-Bold'; font-size:20.6599;">V</tspan><tspan x="47.766" y="0" style="fill:#FFFFFF; font-family:'FSMatthew-Bold'; font-size:20.6599;">E</tspan><tspan x="58.86" y="0" style="fill:#FFFFFF; font-family:'FSMatthew-Bold'; font-size:20.6599;">Y</tspan></text>
</g>
<g id="Text_Flat">
	<g>
		<path style="fill:#1A2A4F;" d="M109.791,180.878c-0.83,0.166-2.325,0.276-3.93,0.276c-1.549,0-2.933-0.11-3.929-0.276v-28.612
			l-7.859,5.202c-1.881-1.716-3.21-4.04-3.708-6.032l13.006-7.97c0.775-0.166,2.38-0.277,3.21-0.277c0.941,0,2.656,0.166,3.21,0.277
			V180.878z"/>
		<path style="fill:#1A2A4F;" d="M128.665,181.432c-8.855,0-13.172-6.531-13.172-19.26c0-12.84,4.483-19.26,13.338-19.26
			c8.8,0,13.116,6.42,13.116,19.26C141.947,174.9,137.464,181.432,128.665,181.432z M128.72,149.388
			c-3.542,0-5.091,3.265-5.091,12.784c0,9.353,1.549,12.784,5.091,12.784s5.092-3.432,5.092-12.784
			C133.812,152.652,132.262,149.388,128.72,149.388z"/>
		<path style="fill:#1A2A4F;" d="M158.497,181.432c-8.855,0-13.172-6.531-13.172-19.26c0-12.84,4.483-19.26,13.338-19.26
			c8.8,0,13.116,6.42,13.116,19.26C171.779,174.9,167.297,181.432,158.497,181.432z M158.553,149.388
			c-3.543,0-5.092,3.265-5.092,12.784c0,9.353,1.549,12.784,5.092,12.784c3.542,0,5.091-3.432,5.091-12.784
			C163.644,152.652,162.095,149.388,158.553,149.388z"/>
		<path style="fill:#1A2A4F;" d="M175.988,151.49c0-4.759,2.158-8.855,8.301-8.855c6.199,0,8.302,4.096,8.302,8.855
			c0,4.649-2.103,8.966-8.302,8.966C178.146,160.456,175.988,156.14,175.988,151.49z M187.776,181.486
			c-2.38-0.664-4.815-2.269-6.033-3.984l22.691-35.586c2.269,0.609,4.704,1.992,6.088,3.708L187.776,181.486z M186.171,151.602
			c0-2.38-0.498-3.875-1.882-3.875c-1.383,0-1.881,1.495-1.881,3.875c0,2.379,0.553,3.763,1.881,3.763
			S186.171,153.98,186.171,151.602z M199.011,172.742c0-4.76,2.158-8.854,8.302-8.854c6.198,0,8.302,4.095,8.302,8.854
			c0,4.649-2.104,8.966-8.302,8.966C201.169,181.708,199.011,177.392,199.011,172.742z M209.194,172.854
			c0-2.38-0.498-3.874-1.882-3.874s-1.882,1.494-1.882,3.874c0,2.379,0.554,3.763,1.882,3.763S209.194,175.232,209.194,172.854z"/>
	</g>
	<g>
		<path style="fill:#B4A168;" d="M100.419,207.927c-2.17,0-4.548-0.416-6.242-1.188c-0.089-0.416-0.149-0.951-0.149-1.427
			c0-0.714,0.089-1.397,0.297-2.2c1.754,0.714,4.072,1.16,5.885,1.16c2.111,0,3.24-0.981,3.24-2.319c0-1.485-0.951-2.11-3.834-3.002
			c-3.21-0.98-5.559-2.526-5.559-5.975c0-3.686,3.181-5.736,7.372-5.736c1.932,0,3.656,0.297,4.815,0.684
			c0.089,0.327,0.148,0.862,0.148,1.635c0,0.564-0.059,1.427-0.178,1.902c-1.486-0.387-3.18-0.595-4.548-0.595
			c-2.229,0-3.448,0.743-3.448,1.933c0,1.396,1.1,1.962,3.775,2.794c3.21,1.011,5.588,2.526,5.588,6.094
			C107.583,205.579,104.521,207.927,100.419,207.927z"/>
		<path style="fill:#B4A168;" d="M123.276,191.163h-5.321v16.467c-0.565,0.089-1.367,0.148-2.11,0.148s-1.546-0.06-2.14-0.148
			v-16.467h-5.321c-0.119-0.387-0.208-1.309-0.208-1.813c0-0.506,0.119-1.427,0.238-1.813h14.862
			c0.119,0.387,0.208,1.308,0.208,1.813C123.484,189.854,123.395,190.776,123.276,191.163z"/>
		<path style="fill:#B4A168;" d="M141.08,199.991c0,5.112-1.962,7.936-7.669,7.936c-5.767,0-7.58-2.823-7.58-7.936v-12.455
			c0.594-0.089,1.367-0.148,2.081-0.148c0.833,0,1.576,0.06,2.17,0.148v12.752c0,2.734,0.773,4.28,3.359,4.28
			s3.478-1.546,3.478-4.28v-12.752c0.535-0.089,1.427-0.148,2.111-0.148c0.654,0,1.545,0.06,2.051,0.148V199.991z"/>
		<path style="fill:#B4A168;" d="M158.082,205.847c-1.844,1.427-4.221,1.932-7.491,1.932c-1.665,0-4.488-0.06-5.439-0.148v-20.094
			c1.457-0.089,4.488-0.148,6.182-0.148c6.54,0,9.898,2.765,9.898,9.958C161.232,201.061,160.252,204.152,158.082,205.847z
			 M151.424,190.896c-0.803,0-1.695,0.029-2.021,0.06v13.227c0.386,0.03,1.278,0.06,2.199,0.06c3.746,0,5.231-2.378,5.231-6.955
			C156.833,192.263,155.287,190.896,151.424,190.896z"/>
		<path style="fill:#B4A168;" d="M177.074,207.63h-12.573v-20.094h12.306c0.119,0.327,0.208,0.951,0.208,1.784
			c0,0.653-0.06,1.218-0.208,1.843h-8.056v4.339h6.808c0.118,0.327,0.208,0.922,0.208,1.754c0,0.654-0.06,1.189-0.208,1.813h-6.808
			v4.935h8.323c0.119,0.326,0.208,0.951,0.208,1.783C177.282,206.441,177.223,207.006,177.074,207.63z"/>
		<path style="fill:#B4A168;" d="M196.483,207.63c-0.297,0.06-1.011,0.119-1.516,0.119c-0.506,0-1.011-0.03-1.486-0.119
			l-9.244-12.87v12.87c-0.238,0.06-1.13,0.148-1.962,0.148c-0.684,0-1.486-0.089-1.902-0.148v-20.094
			c0.476-0.089,1.04-0.118,1.575-0.118c0.564,0,1.159,0.059,1.605,0.118l9.065,12.633v-12.633c0.595-0.089,1.367-0.148,1.932-0.148
			c0.565,0,1.397,0.06,1.933,0.148V207.63z"/>
		<path style="fill:#B4A168;" d="M214.019,191.163h-5.32v16.467c-0.564,0.089-1.367,0.148-2.11,0.148s-1.546-0.06-2.141-0.148
			v-16.467h-5.32c-0.119-0.387-0.208-1.309-0.208-1.813c0-0.506,0.119-1.427,0.237-1.813h14.862
			c0.119,0.387,0.208,1.308,0.208,1.813C214.227,189.854,214.138,190.776,214.019,191.163z"/>
	</g>
	<g>
		<path style="fill:#B4A168;" d="M98.567,225.846c-1.373,0-2.876-0.263-3.948-0.752c-0.056-0.263-0.094-0.602-0.094-0.902
			c0-0.451,0.057-0.883,0.188-1.391c1.109,0.451,2.576,0.733,3.722,0.733c1.335,0,2.049-0.62,2.049-1.467
			c0-0.939-0.602-1.335-2.425-1.898c-2.03-0.62-3.516-1.598-3.516-3.778c0-2.331,2.012-3.629,4.662-3.629
			c1.222,0,2.312,0.188,3.046,0.433c0.056,0.207,0.094,0.546,0.094,1.034c0,0.357-0.038,0.902-0.113,1.203
			c-0.94-0.244-2.011-0.376-2.876-0.376c-1.41,0-2.181,0.47-2.181,1.222c0,0.884,0.696,1.241,2.388,1.768
			c2.03,0.639,3.534,1.598,3.534,3.854C103.098,224.361,101.161,225.846,98.567,225.846z"/>
		<path style="fill:#B4A168;" d="M115.447,225.658c-0.244,0.057-0.827,0.094-1.447,0.094c-0.489,0-1.053-0.057-1.297-0.094
			l-0.94-2.575h-4.512l-0.884,2.575c-0.413,0.057-0.902,0.094-1.391,0.094c-0.489,0-1.053-0.037-1.335-0.094l4.437-12.708
			c0.263-0.057,0.884-0.094,1.297-0.094c0.508,0,1.109,0.037,1.316,0.094L115.447,225.658z M110.954,220.846l-1.109-3.591
			c-0.131-0.413-0.263-0.939-0.376-1.522h-0.038c-0.094,0.583-0.244,1.109-0.376,1.522l-1.053,3.591H110.954z"/>
		<path style="fill:#B4A168;" d="M124.037,215.244h-3.365v10.414c-0.357,0.057-0.864,0.094-1.334,0.094s-0.978-0.037-1.354-0.094
			v-10.414h-3.365c-0.075-0.245-0.132-0.828-0.132-1.147s0.075-0.902,0.15-1.146h9.399c0.075,0.244,0.132,0.827,0.132,1.146
			S124.112,214.999,124.037,215.244z"/>
		<path style="fill:#B4A168;" d="M128.435,225.658c-0.357,0.057-0.79,0.094-1.354,0.094c-0.507,0-0.978-0.037-1.334-0.094V212.95
			c0.357-0.057,0.883-0.094,1.354-0.094c0.526,0,0.996,0.037,1.334,0.094V225.658z"/>
		<path style="fill:#B4A168;" d="M134.562,225.846c-1.372,0-2.876-0.263-3.947-0.752c-0.057-0.263-0.094-0.602-0.094-0.902
			c0-0.451,0.056-0.883,0.188-1.391c1.109,0.451,2.575,0.733,3.722,0.733c1.334,0,2.049-0.62,2.049-1.467
			c0-0.939-0.602-1.335-2.425-1.898c-2.03-0.62-3.515-1.598-3.515-3.778c0-2.331,2.011-3.629,4.662-3.629
			c1.222,0,2.312,0.188,3.045,0.433c0.057,0.207,0.094,0.546,0.094,1.034c0,0.357-0.038,0.902-0.113,1.203
			c-0.94-0.244-2.012-0.376-2.876-0.376c-1.41,0-2.181,0.47-2.181,1.222c0,0.884,0.695,1.241,2.387,1.768
			c2.03,0.639,3.534,1.598,3.534,3.854C139.093,224.361,137.157,225.846,134.562,225.846z"/>
		<path style="fill:#B4A168;" d="M148.774,215.244h-5v2.744h4.211c0.075,0.207,0.132,0.583,0.132,1.109
			c0,0.413-0.038,0.752-0.132,1.146h-4.211v5.414c-0.357,0.057-0.771,0.094-1.335,0.094c-0.507,0-0.996-0.037-1.354-0.094V212.95
			h7.689c0.075,0.207,0.131,0.602,0.131,1.128C148.905,214.492,148.868,214.849,148.774,215.244z"/>
		<path style="fill:#B4A168;" d="M160.729,225.658c-0.244,0.057-0.827,0.094-1.447,0.094c-0.489,0-1.053-0.057-1.297-0.094
			l-0.94-2.575h-4.512l-0.884,2.575c-0.413,0.057-0.902,0.094-1.391,0.094c-0.489,0-1.053-0.037-1.335-0.094l4.437-12.708
			c0.264-0.057,0.884-0.094,1.297-0.094c0.508,0,1.109,0.037,1.316,0.094L160.729,225.658z M156.235,220.846l-1.108-3.591
			c-0.132-0.413-0.264-0.939-0.377-1.522h-0.037c-0.094,0.583-0.244,1.109-0.376,1.522l-1.053,3.591H156.235z"/>
		<path style="fill:#B4A168;" d="M170.428,215.601c-0.902-0.282-2.03-0.488-2.933-0.488c-2.144,0-3.534,1.522-3.534,4.248
			c0,2.501,1.09,4.136,3.516,4.136c0.902,0,1.917-0.188,2.819-0.47c0.132,0.339,0.226,0.864,0.226,1.26
			c0,0.319-0.019,0.714-0.057,0.884c-0.939,0.432-2.143,0.676-3.252,0.676c-4.041,0-6.034-2.443-6.034-6.429
			c0-3.872,2.144-6.655,6.147-6.655c0.978,0,2.256,0.245,3.158,0.64c0.057,0.188,0.075,0.602,0.075,0.846
			C170.56,214.83,170.484,215.375,170.428,215.601z"/>
		<path style="fill:#B4A168;" d="M181.442,215.244h-3.365v10.414c-0.356,0.057-0.864,0.094-1.335,0.094
			c-0.47,0-0.977-0.037-1.354-0.094v-10.414h-3.364c-0.075-0.245-0.132-0.828-0.132-1.147s0.075-0.902,0.15-1.146h9.399
			c0.075,0.244,0.132,0.827,0.132,1.146S181.518,214.999,181.442,215.244z"/>
		<path style="fill:#B4A168;" d="M185.821,225.658c-0.357,0.057-0.79,0.094-1.354,0.094c-0.508,0-0.978-0.037-1.335-0.094V212.95
			c0.357-0.057,0.884-0.094,1.354-0.094c0.526,0,0.996,0.037,1.335,0.094V225.658z"/>
		<path style="fill:#B4A168;" d="M193.247,225.846c-3.478,0-5.32-2.406-5.32-6.541c0-4.137,1.843-6.543,5.32-6.543
			s5.319,2.406,5.319,6.543C198.566,223.439,196.725,225.846,193.247,225.846z M193.247,215.074c-1.617,0-2.538,1.241-2.538,4.23
			c0,2.988,0.921,4.229,2.538,4.229c1.616,0,2.538-1.241,2.538-4.229C195.785,216.315,194.863,215.074,193.247,215.074z"/>
		<path style="fill:#B4A168;" d="M210.821,225.658c-0.188,0.037-0.639,0.075-0.958,0.075c-0.32,0-0.64-0.019-0.94-0.075l-5.847-8.14
			v8.14c-0.15,0.037-0.714,0.094-1.24,0.094c-0.433,0-0.94-0.057-1.203-0.094V212.95c0.301-0.057,0.658-0.075,0.996-0.075
			c0.357,0,0.733,0.037,1.016,0.075l5.733,7.989v-7.989c0.376-0.057,0.864-0.094,1.222-0.094s0.884,0.037,1.222,0.094V225.658z"/>
	</g>
	<g>
		<path style="fill:#1A2A4F;" d="M99.285,236.114h-3.167v2.315h2.623c0.045,0.137,0.057,0.329,0.057,0.466
			c0,0.147-0.012,0.317-0.057,0.466h-2.623v3.496c-0.193,0.034-0.363,0.057-0.568,0.057c-0.193,0-0.386-0.022-0.567-0.057v-7.674
			h4.303c0.045,0.136,0.057,0.329,0.057,0.465C99.342,235.796,99.33,235.967,99.285,236.114z"/>
		<path style="fill:#1A2A4F;" d="M103.052,242.971c-1.862,0-3.042-1.215-3.042-3.939c0-2.656,1.204-3.962,3.065-3.962
			c1.862,0,3.02,1.306,3.02,3.962C106.094,241.756,104.914,242.971,103.052,242.971z M103.063,236.012
			c-1.158,0-1.862,0.783-1.862,2.997c0,2.18,0.692,3.02,1.851,3.02s1.851-0.84,1.851-3.02
			C104.902,236.795,104.221,236.012,103.063,236.012z"/>
		<path style="fill:#1A2A4F;" d="M112.721,242.857c-0.227,0.034-0.454,0.057-0.681,0.057c-0.216,0-0.397-0.012-0.613-0.057
			l-1.68-2.951h-0.999v2.951c-0.193,0.034-0.386,0.057-0.579,0.057c-0.182,0-0.375-0.022-0.556-0.057v-7.674
			c0.556-0.034,1.226-0.058,1.873-0.058c1.601,0,2.883,0.488,2.883,2.327c0,1.011-0.556,1.896-1.487,2.237L112.721,242.857z
			 M109.611,236.012c-0.261,0-0.67,0-0.863,0.012v2.985h0.772c1.067,0,1.703-0.477,1.703-1.556
			C111.223,236.409,110.621,236.012,109.611,236.012z"/>
		<path style="fill:#1A2A4F;" d="M121.709,236.307c-0.465-0.147-1.146-0.272-1.703-0.272c-1.726,0-2.43,1.295-2.43,3.021
			c0,0.84,0.193,1.623,0.613,2.156c0.42,0.534,1.021,0.783,1.862,0.783c0.602,0,1.169-0.124,1.601-0.249
			c0.045,0.125,0.08,0.295,0.08,0.42c0,0.159-0.011,0.295-0.045,0.442c-0.59,0.228-1.294,0.363-1.873,0.363
			c-2.407,0-3.429-1.657-3.429-3.883c0-1.226,0.363-2.327,1.056-3.054c0.59-0.612,1.453-0.965,2.464-0.965
			c0.681,0,1.374,0.171,1.805,0.363c0.045,0.147,0.057,0.238,0.057,0.397S121.754,236.159,121.709,236.307z"/>
		<path style="fill:#1A2A4F;" d="M124.544,242.857c-0.182,0.022-0.363,0.057-0.545,0.057c-0.205,0-0.386-0.022-0.59-0.057v-7.674
			c0.193-0.034,0.375-0.058,0.579-0.058c0.193,0,0.375,0.023,0.556,0.058V242.857z"/>
		<path style="fill:#1A2A4F;" d="M131.525,237.204l-2.066,5.653c-0.114,0.034-0.375,0.057-0.568,0.057
			c-0.238,0-0.488-0.022-0.602-0.057l-2.112-5.643c-0.25-0.681-0.375-1.544-0.375-2.031c0.17-0.034,0.352-0.058,0.545-0.058
			c0.216,0,0.409,0.023,0.568,0.058c0.011,0.499,0.125,1.214,0.352,1.839l1.26,3.405c0.147,0.387,0.272,0.829,0.329,1.102h0.023
			c0.057-0.307,0.182-0.692,0.329-1.09l1.249-3.417c0.227-0.613,0.352-1.306,0.352-1.839c0.114-0.023,0.307-0.058,0.557-0.058
			c0.193,0,0.386,0.023,0.533,0.058C131.899,235.671,131.786,236.5,131.525,237.204z"/>
		<path style="fill:#1A2A4F;" d="M134.292,242.857c-0.182,0.022-0.363,0.057-0.545,0.057c-0.205,0-0.386-0.022-0.59-0.057v-7.674
			c0.193-0.034,0.375-0.058,0.579-0.058c0.193,0,0.375,0.023,0.556,0.058V242.857z"/>
		<path style="fill:#1A2A4F;" d="M140.796,241.927c0.046,0.136,0.057,0.329,0.057,0.465c0,0.147-0.011,0.318-0.057,0.466h-4.575
			v-7.674c0.193-0.034,0.397-0.058,0.602-0.058c0.193,0,0.352,0.023,0.534,0.058v6.743H140.796z"/>
		<path style="fill:#1A2A4F;" d="M148.819,242.857h-4.473v-7.674h4.302c0.046,0.136,0.057,0.329,0.057,0.465
			c0,0.147-0.011,0.318-0.057,0.466h-3.167v2.315h2.736c0.045,0.137,0.057,0.329,0.057,0.466c0,0.147-0.011,0.317-0.057,0.466
			h-2.736v2.565h3.337c0.045,0.136,0.057,0.329,0.057,0.465C148.876,242.539,148.864,242.71,148.819,242.857z"/>
		<path style="fill:#1A2A4F;" d="M156.229,242.857c-0.091,0.034-0.284,0.045-0.432,0.045c-0.136,0-0.272-0.011-0.397-0.045
			l-4.041-5.733v5.733c-0.103,0.034-0.375,0.057-0.545,0.057c-0.136,0-0.352-0.012-0.5-0.057v-7.674
			c0.091-0.023,0.329-0.046,0.443-0.046c0.147,0,0.34,0.012,0.454,0.046l3.974,5.642v-5.642c0.125-0.034,0.34-0.058,0.488-0.058
			c0.136,0,0.442,0.023,0.556,0.058V242.857z"/>
		<path style="fill:#1A2A4F;" d="M163.549,242.449c-0.613,0.295-1.431,0.521-2.293,0.521c-2.396,0-3.508-1.578-3.508-3.871
			c0-1.34,0.465-2.497,1.316-3.224c0.602-0.511,1.431-0.807,2.384-0.807c0.704,0,1.408,0.147,1.839,0.341
			c0.046,0.147,0.058,0.284,0.058,0.442c0,0.159-0.012,0.296-0.058,0.443c-0.499-0.147-1.214-0.262-1.748-0.262
			c-0.749,0-1.34,0.239-1.748,0.625c-0.59,0.556-0.852,1.441-0.852,2.418c0,1.873,0.817,2.917,2.43,2.917
			c0.408,0,0.806-0.079,1.044-0.182v-2.497c0.182-0.022,0.353-0.057,0.534-0.057c0.204,0,0.397,0.022,0.602,0.057V242.449z"/>
		<path style="fill:#1A2A4F;" d="M166.486,242.857c-0.182,0.022-0.363,0.057-0.545,0.057c-0.204,0-0.386-0.022-0.59-0.057v-7.674
			c0.193-0.034,0.375-0.058,0.579-0.058c0.192,0,0.374,0.023,0.556,0.058V242.857z"/>
		<path style="fill:#1A2A4F;" d="M174.33,242.857c-0.092,0.034-0.284,0.045-0.432,0.045c-0.137,0-0.272-0.011-0.397-0.045
			l-4.042-5.733v5.733c-0.102,0.034-0.374,0.057-0.545,0.057c-0.136,0-0.352-0.012-0.499-0.057v-7.674
			c0.091-0.023,0.329-0.046,0.442-0.046c0.147,0,0.341,0.012,0.454,0.046l3.974,5.642v-5.642c0.125-0.034,0.341-0.058,0.488-0.058
			c0.136,0,0.442,0.023,0.557,0.058V242.857z"/>
		<path style="fill:#1A2A4F;" d="M180.673,242.857H176.2v-7.674h4.303c0.045,0.136,0.057,0.329,0.057,0.465
			c0,0.147-0.012,0.318-0.057,0.466h-3.168v2.315h2.736c0.046,0.137,0.057,0.329,0.057,0.466c0,0.147-0.011,0.317-0.057,0.466
			h-2.736v2.565h3.338c0.046,0.136,0.057,0.329,0.057,0.465C180.729,242.539,180.719,242.71,180.673,242.857z"/>
		<path style="fill:#1A2A4F;" d="M186.642,242.857h-4.473v-7.674h4.303c0.045,0.136,0.057,0.329,0.057,0.465
			c0,0.147-0.012,0.318-0.057,0.466h-3.168v2.315h2.736c0.046,0.137,0.057,0.329,0.057,0.466c0,0.147-0.011,0.317-0.057,0.466
			h-2.736v2.565h3.338c0.046,0.136,0.057,0.329,0.057,0.465C186.698,242.539,186.688,242.71,186.642,242.857z"/>
		<path style="fill:#1A2A4F;" d="M193.246,242.857c-0.227,0.034-0.454,0.057-0.681,0.057c-0.216,0-0.397-0.012-0.613-0.057
			l-1.681-2.951h-0.999v2.951c-0.192,0.034-0.386,0.057-0.579,0.057c-0.182,0-0.374-0.022-0.556-0.057v-7.674
			c0.556-0.034,1.226-0.058,1.873-0.058c1.601,0,2.884,0.488,2.884,2.327c0,1.011-0.557,1.896-1.487,2.237L193.246,242.857z
			 M190.136,236.012c-0.261,0-0.67,0-0.863,0.012v2.985h0.772c1.067,0,1.703-0.477,1.703-1.556
			C191.748,236.409,191.146,236.012,190.136,236.012z"/>
		<path style="fill:#1A2A4F;" d="M195.787,242.857c-0.182,0.022-0.363,0.057-0.545,0.057c-0.205,0-0.387-0.022-0.591-0.057v-7.674
			c0.193-0.034,0.375-0.058,0.579-0.058c0.193,0,0.375,0.023,0.557,0.058V242.857z"/>
		<path style="fill:#1A2A4F;" d="M203.631,242.857c-0.092,0.034-0.284,0.045-0.432,0.045c-0.137,0-0.272-0.011-0.397-0.045
			l-4.042-5.733v5.733c-0.102,0.034-0.374,0.057-0.545,0.057c-0.136,0-0.352-0.012-0.499-0.057v-7.674
			c0.091-0.023,0.329-0.046,0.442-0.046c0.147,0,0.341,0.012,0.454,0.046l3.974,5.642v-5.642c0.125-0.034,0.341-0.058,0.488-0.058
			c0.136,0,0.442,0.023,0.557,0.058V242.857z"/>
		<path style="fill:#1A2A4F;" d="M210.95,242.449c-0.613,0.295-1.431,0.521-2.293,0.521c-2.396,0-3.509-1.578-3.509-3.871
			c0-1.34,0.466-2.497,1.317-3.224c0.602-0.511,1.431-0.807,2.384-0.807c0.704,0,1.408,0.147,1.84,0.341
			c0.045,0.147,0.057,0.284,0.057,0.442c0,0.159-0.012,0.296-0.057,0.443c-0.5-0.147-1.215-0.262-1.749-0.262
			c-0.749,0-1.339,0.239-1.748,0.625c-0.591,0.556-0.852,1.441-0.852,2.418c0,1.873,0.817,2.917,2.43,2.917
			c0.408,0,0.806-0.079,1.044-0.182v-2.497c0.182-0.022,0.353-0.057,0.534-0.057c0.204,0,0.397,0.022,0.602,0.057V242.449z"/>
	</g>
	<g>
		<path style="fill:#1A2A4F;" d="M102.842,251.129h-2.997l-0.59,1.816c-0.147,0.022-0.386,0.057-0.613,0.057
			c-0.159,0-0.386-0.022-0.534-0.057l2.645-7.674c0.136-0.034,0.42-0.058,0.568-0.058c0.159,0,0.42,0.034,0.522,0.058l2.838,7.674
			c-0.103,0.022-0.375,0.057-0.59,0.057c-0.17,0-0.443-0.012-0.613-0.057L102.842,251.129z M100.141,250.198h2.373l-0.908-2.611
			c-0.147-0.432-0.238-0.783-0.295-1.09h-0.011c-0.057,0.307-0.17,0.67-0.306,1.102L100.141,250.198z"/>
		<path style="fill:#1A2A4F;" d="M111.683,252.945c-0.091,0.034-0.284,0.045-0.431,0.045c-0.137,0-0.272-0.011-0.397-0.045
			l-4.042-5.733v5.733c-0.102,0.034-0.375,0.057-0.545,0.057c-0.136,0-0.352-0.012-0.5-0.057v-7.674
			c0.091-0.023,0.329-0.046,0.442-0.046c0.148,0,0.341,0.012,0.454,0.046l3.974,5.642v-5.642c0.125-0.034,0.341-0.058,0.488-0.058
			c0.136,0,0.442,0.023,0.556,0.058V252.945z"/>
		<path style="fill:#1A2A4F;" d="M118.231,252.275c-0.659,0.522-1.567,0.727-2.838,0.727c-0.522,0-1.499-0.022-1.839-0.057v-7.674
			c0.522-0.034,1.226-0.058,2.021-0.058c2.634,0,3.837,1.09,3.837,3.849C119.412,250.55,119.003,251.651,118.231,252.275z
			 M115.563,246.1c-0.227,0-0.636,0.012-0.874,0.022v5.949c0.204,0.022,0.579,0.034,0.976,0.034c0.863,0,1.431-0.238,1.828-0.658
			c0.533-0.557,0.727-1.453,0.727-2.407C118.22,247.099,117.663,246.1,115.563,246.1z"/>
		<path style="fill:#1A2A4F;" d="M128.069,252.945h-4.473v-7.674h4.303c0.045,0.136,0.057,0.329,0.057,0.465
			c0,0.147-0.012,0.318-0.057,0.466h-3.167v2.315h2.736c0.045,0.137,0.057,0.329,0.057,0.466c0,0.147-0.011,0.317-0.057,0.466
			h-2.736v2.565h3.337c0.045,0.136,0.057,0.329,0.057,0.465C128.126,252.627,128.115,252.798,128.069,252.945z"/>
		<path style="fill:#1A2A4F;" d="M135.48,252.945c-0.091,0.034-0.284,0.045-0.431,0.045c-0.137,0-0.272-0.011-0.397-0.045
			l-4.042-5.733v5.733c-0.102,0.034-0.375,0.057-0.545,0.057c-0.136,0-0.352-0.012-0.5-0.057v-7.674
			c0.091-0.023,0.329-0.046,0.442-0.046c0.148,0,0.341,0.012,0.454,0.046l3.974,5.642v-5.642c0.125-0.034,0.341-0.058,0.488-0.058
			c0.136,0,0.442,0.023,0.556,0.058V252.945z"/>
		<path style="fill:#1A2A4F;" d="M142.402,247.292l-2.066,5.653c-0.114,0.034-0.375,0.057-0.568,0.057
			c-0.238,0-0.488-0.022-0.602-0.057l-2.112-5.643c-0.25-0.681-0.375-1.544-0.375-2.031c0.17-0.034,0.352-0.058,0.545-0.058
			c0.216,0,0.409,0.023,0.568,0.058c0.011,0.499,0.125,1.214,0.352,1.839l1.26,3.405c0.147,0.387,0.272,0.829,0.329,1.102h0.023
			c0.057-0.307,0.182-0.692,0.329-1.09l1.249-3.417c0.227-0.613,0.352-1.306,0.352-1.839c0.114-0.023,0.307-0.058,0.557-0.058
			c0.193,0,0.386,0.023,0.533,0.058C142.776,245.759,142.663,246.588,142.402,247.292z"/>
		<path style="fill:#1A2A4F;" d="M145.169,252.945c-0.182,0.022-0.363,0.057-0.545,0.057c-0.205,0-0.386-0.022-0.59-0.057v-7.674
			c0.193-0.034,0.375-0.058,0.579-0.058c0.193,0,0.375,0.023,0.556,0.058V252.945z"/>
		<path style="fill:#1A2A4F;" d="M152.207,252.945c-0.228,0.034-0.455,0.057-0.682,0.057c-0.216,0-0.397-0.012-0.613-0.057
			l-1.68-2.951h-0.999v2.951c-0.193,0.034-0.386,0.057-0.579,0.057c-0.182,0-0.375-0.022-0.556-0.057v-7.674
			c0.556-0.034,1.226-0.058,1.873-0.058c1.601,0,2.883,0.488,2.883,2.327c0,1.011-0.556,1.896-1.487,2.237L152.207,252.945z
			 M149.096,246.1c-0.261,0-0.67,0-0.863,0.012v2.985h0.772c1.067,0,1.703-0.477,1.703-1.556
			C150.708,246.497,150.106,246.1,149.096,246.1z"/>
		<path style="fill:#1A2A4F;" d="M156.03,253.059c-1.862,0-3.042-1.215-3.042-3.939c0-2.656,1.203-3.962,3.064-3.962
			c1.862,0,3.02,1.306,3.02,3.962C159.072,251.844,157.893,253.059,156.03,253.059z M156.041,246.1
			c-1.157,0-1.861,0.783-1.861,2.997c0,2.18,0.692,3.02,1.851,3.02s1.851-0.84,1.851-3.02
			C157.881,246.883,157.199,246.1,156.041,246.1z"/>
		<path style="fill:#1A2A4F;" d="M166.506,252.945c-0.092,0.034-0.284,0.045-0.432,0.045c-0.137,0-0.272-0.011-0.397-0.045
			l-4.042-5.733v5.733c-0.102,0.034-0.374,0.057-0.545,0.057c-0.136,0-0.352-0.012-0.499-0.057v-7.674
			c0.091-0.023,0.329-0.046,0.442-0.046c0.147,0,0.341,0.012,0.454,0.046l3.974,5.642v-5.642c0.125-0.034,0.341-0.058,0.488-0.058
			c0.136,0,0.442,0.023,0.557,0.058V252.945z"/>
		<path style="fill:#1A2A4F;" d="M175.596,252.945c-0.136,0.034-0.34,0.057-0.499,0.057c-0.147,0-0.488-0.022-0.624-0.057
			l-0.137-5.494l-2.01,4.779c-0.057,0.022-0.295,0.045-0.396,0.045c-0.103,0-0.307-0.022-0.375-0.045l-2.044-4.779l-0.136,5.494
			c-0.125,0.022-0.42,0.057-0.579,0.057c-0.113,0-0.386-0.034-0.499-0.057l0.271-7.674c0.171-0.034,0.353-0.058,0.466-0.058
			c0.159,0,0.409,0.034,0.511,0.058l2.396,5.517l2.316-5.517c0.147-0.023,0.431-0.058,0.59-0.058s0.409,0.034,0.5,0.058
			L175.596,252.945z"/>
		<path style="fill:#1A2A4F;" d="M181.859,252.945h-4.473v-7.674h4.303c0.045,0.136,0.057,0.329,0.057,0.465
			c0,0.147-0.012,0.318-0.057,0.466h-3.168v2.315h2.736c0.045,0.137,0.057,0.329,0.057,0.466c0,0.147-0.012,0.317-0.057,0.466
			h-2.736v2.565h3.338c0.046,0.136,0.057,0.329,0.057,0.465C181.916,252.627,181.905,252.798,181.859,252.945z"/>
		<path style="fill:#1A2A4F;" d="M189.27,252.945c-0.09,0.034-0.283,0.045-0.431,0.045c-0.137,0-0.272-0.011-0.397-0.045
			l-4.042-5.733v5.733c-0.102,0.034-0.374,0.057-0.545,0.057c-0.136,0-0.352-0.012-0.499-0.057v-7.674
			c0.091-0.023,0.329-0.046,0.442-0.046c0.147,0,0.341,0.012,0.454,0.046l3.974,5.642v-5.642c0.125-0.034,0.341-0.058,0.488-0.058
			c0.136,0,0.442,0.023,0.556,0.058V252.945z"/>
		<path style="fill:#1A2A4F;" d="M196.089,246.202h-2.293v6.743c-0.192,0.034-0.374,0.057-0.579,0.057
			c-0.192,0-0.374-0.022-0.556-0.057v-6.743h-2.18c-0.046-0.147-0.058-0.318-0.058-0.466c0-0.136,0.012-0.329,0.058-0.465h5.607
			c0.046,0.136,0.058,0.329,0.058,0.465C196.146,245.884,196.135,246.055,196.089,246.202z"/>
		<path style="fill:#1A2A4F;" d="M200.55,251.129h-2.997l-0.591,1.816c-0.147,0.022-0.386,0.057-0.613,0.057
			c-0.158,0-0.386-0.022-0.533-0.057l2.646-7.674c0.136-0.034,0.42-0.058,0.567-0.058c0.159,0,0.42,0.034,0.522,0.058l2.838,7.674
			c-0.103,0.022-0.375,0.057-0.591,0.057c-0.17,0-0.442-0.012-0.612-0.057L200.55,251.129z M197.848,250.198h2.373l-0.908-2.611
			c-0.148-0.432-0.239-0.783-0.296-1.09h-0.011c-0.057,0.307-0.171,0.67-0.307,1.102L197.848,250.198z"/>
		<path style="fill:#1A2A4F;" d="M208.039,252.015c0.045,0.136,0.057,0.329,0.057,0.465c0,0.147-0.012,0.318-0.057,0.466h-4.575
			v-7.674c0.192-0.034,0.397-0.058,0.602-0.058c0.193,0,0.352,0.023,0.533,0.058v6.743H208.039z"/>
	</g>
	<g>
		<path style="fill:#1A2A4F;" d="M115.877,263.031c-0.182,0.022-0.352,0.057-0.534,0.057c-0.205,0-0.397-0.022-0.602-0.057v-3.406
			h-3.394v3.406c-0.193,0.034-0.397,0.057-0.602,0.057c-0.193,0-0.352-0.022-0.533-0.057v-7.674c0.136-0.023,0.34-0.058,0.522-0.058
			c0.205,0,0.409,0.023,0.613,0.058v3.337h3.394v-3.337c0.193-0.034,0.386-0.058,0.591-0.058c0.193,0,0.363,0.023,0.545,0.058
			V263.031z"/>
		<path style="fill:#1A2A4F;" d="M122.22,263.031h-4.473v-7.674h4.303c0.045,0.136,0.057,0.329,0.057,0.465
			c0,0.147-0.012,0.318-0.057,0.466h-3.167v2.315h2.736c0.045,0.137,0.057,0.329,0.057,0.466c0,0.147-0.011,0.317-0.057,0.466
			h-2.736v2.565h3.337c0.045,0.136,0.057,0.329,0.057,0.465C122.276,262.713,122.265,262.884,122.22,263.031z"/>
		<path style="fill:#1A2A4F;" d="M127.871,261.215h-2.997l-0.59,1.816c-0.147,0.022-0.386,0.057-0.613,0.057
			c-0.159,0-0.386-0.022-0.534-0.057l2.645-7.674c0.136-0.034,0.42-0.058,0.568-0.058c0.159,0,0.42,0.034,0.522,0.058l2.838,7.674
			c-0.103,0.022-0.375,0.057-0.59,0.057c-0.17,0-0.443-0.012-0.613-0.057L127.871,261.215z M125.169,260.284h2.373l-0.908-2.611
			c-0.147-0.432-0.238-0.783-0.295-1.09h-0.011c-0.057,0.307-0.17,0.67-0.306,1.102L125.169,260.284z"/>
		<path style="fill:#1A2A4F;" d="M135.361,262.101c0.045,0.136,0.057,0.329,0.057,0.465c0,0.147-0.012,0.318-0.057,0.466h-4.575
			v-7.674c0.193-0.034,0.397-0.058,0.602-0.058c0.193,0,0.352,0.023,0.534,0.058v6.743H135.361z"/>
		<path style="fill:#1A2A4F;" d="M140.49,256.288h-2.293v6.743c-0.193,0.034-0.375,0.057-0.579,0.057
			c-0.193,0-0.375-0.022-0.557-0.057v-6.743h-2.18c-0.045-0.147-0.057-0.318-0.057-0.466c0-0.136,0.011-0.329,0.057-0.465h5.608
			c0.045,0.136,0.057,0.329,0.057,0.465C140.547,255.97,140.536,256.141,140.49,256.288z"/>
		<path style="fill:#1A2A4F;" d="M147.356,263.031c-0.182,0.022-0.352,0.057-0.534,0.057c-0.205,0-0.397-0.022-0.602-0.057v-3.406
			h-3.394v3.406c-0.193,0.034-0.397,0.057-0.602,0.057c-0.193,0-0.352-0.022-0.533-0.057v-7.674c0.136-0.023,0.34-0.058,0.522-0.058
			c0.205,0,0.409,0.023,0.613,0.058v3.337h3.394v-3.337c0.193-0.034,0.386-0.058,0.591-0.058c0.193,0,0.363,0.023,0.545,0.058
			V263.031z"/>
		<path style="fill:#1A2A4F;" d="M156.865,256.48c-0.465-0.147-1.146-0.272-1.703-0.272c-1.725,0-2.43,1.295-2.43,3.021
			c0,0.84,0.193,1.623,0.613,2.156c0.42,0.534,1.021,0.783,1.862,0.783c0.602,0,1.169-0.124,1.601-0.249
			c0.045,0.125,0.08,0.295,0.08,0.42c0,0.159-0.012,0.295-0.046,0.442c-0.591,0.228-1.294,0.363-1.873,0.363
			c-2.407,0-3.429-1.657-3.429-3.883c0-1.226,0.363-2.327,1.056-3.054c0.591-0.612,1.453-0.965,2.464-0.965
			c0.681,0,1.373,0.171,1.805,0.363c0.045,0.147,0.057,0.238,0.057,0.397S156.91,256.333,156.865,256.48z"/>
		<path style="fill:#1A2A4F;" d="M161.132,263.145c-1.862,0-3.042-1.215-3.042-3.939c0-2.656,1.203-3.962,3.064-3.962
			c1.862,0,3.02,1.306,3.02,3.962C164.174,261.93,162.994,263.145,161.132,263.145z M161.144,256.186
			c-1.158,0-1.862,0.783-1.862,2.997c0,2.18,0.692,3.02,1.851,3.02s1.851-0.84,1.851-3.02
			C162.982,256.969,162.301,256.186,161.144,256.186z"/>
		<path style="fill:#1A2A4F;" d="M171.152,260.159c0,1.976-0.681,2.985-2.77,2.985c-2.18,0-2.736-0.965-2.736-2.985v-4.802
			c0.182-0.023,0.363-0.058,0.545-0.058c0.204,0,0.386,0.023,0.59,0.058v4.994c0,1.102,0.239,1.919,1.59,1.919
			s1.68-0.817,1.68-1.919v-4.994c0.182-0.023,0.341-0.058,0.522-0.058c0.204,0,0.375,0.023,0.579,0.058V260.159z"/>
		<path style="fill:#1A2A4F;" d="M178.098,263.031c-0.227,0.034-0.454,0.057-0.681,0.057c-0.216,0-0.397-0.012-0.613-0.057
			l-1.681-2.951h-0.999v2.951c-0.192,0.034-0.386,0.057-0.579,0.057c-0.182,0-0.374-0.022-0.556-0.057v-7.674
			c0.556-0.034,1.226-0.058,1.873-0.058c1.601,0,2.884,0.488,2.884,2.327c0,1.011-0.557,1.896-1.487,2.237L178.098,263.031z
			 M174.987,256.186c-0.261,0-0.67,0-0.863,0.012v2.985h0.772c1.067,0,1.703-0.477,1.703-1.556
			C176.6,256.583,175.998,256.186,174.987,256.186z"/>
		<path style="fill:#1A2A4F;" d="M181.376,263.145c-0.624,0-1.623-0.136-2.18-0.432c-0.034-0.158-0.057-0.306-0.057-0.465
			c0-0.17,0.012-0.341,0.057-0.5c0.534,0.25,1.476,0.466,2.123,0.466c0.942,0,1.578-0.363,1.578-1.146
			c0-0.716-0.329-1.067-1.249-1.408l-0.579-0.216c-1.146-0.431-1.851-1.056-1.851-2.111c0-1.419,1.204-2.089,2.577-2.089
			c0.602,0,1.181,0.068,1.715,0.204c0.034,0.137,0.057,0.284,0.057,0.432c0,0.159-0.022,0.318-0.057,0.477
			c-0.557-0.113-1.079-0.182-1.646-0.182c-0.772,0-1.499,0.307-1.499,1.124c0,0.579,0.318,0.932,1.215,1.271l0.534,0.205
			c1.169,0.431,1.873,0.976,1.873,2.18C183.987,262.43,182.829,263.145,181.376,263.145z"/>
		<path style="fill:#1A2A4F;" d="M189.934,263.031h-4.473v-7.674h4.303c0.045,0.136,0.057,0.329,0.057,0.465
			c0,0.147-0.012,0.318-0.057,0.466h-3.168v2.315h2.736c0.045,0.137,0.057,0.329,0.057,0.466c0,0.147-0.012,0.317-0.057,0.466
			h-2.736v2.565h3.338c0.046,0.136,0.057,0.329,0.057,0.465C189.99,262.713,189.979,262.884,189.934,263.031z"/>
		<path style="fill:#1A2A4F;" d="M193.359,263.145c-0.624,0-1.623-0.136-2.18-0.432c-0.034-0.158-0.057-0.306-0.057-0.465
			c0-0.17,0.012-0.341,0.057-0.5c0.533,0.25,1.476,0.466,2.123,0.466c0.942,0,1.578-0.363,1.578-1.146
			c0-0.716-0.329-1.067-1.249-1.408l-0.579-0.216c-1.146-0.431-1.851-1.056-1.851-2.111c0-1.419,1.204-2.089,2.577-2.089
			c0.602,0,1.181,0.068,1.715,0.204c0.033,0.137,0.057,0.284,0.057,0.432c0,0.159-0.023,0.318-0.057,0.477
			c-0.557-0.113-1.079-0.182-1.646-0.182c-0.771,0-1.498,0.307-1.498,1.124c0,0.579,0.317,0.932,1.214,1.271l0.534,0.205
			c1.169,0.431,1.873,0.976,1.873,2.18C195.971,262.43,194.812,263.145,193.359,263.145z"/>
	</g>
	<g>
		<path style="fill:#1A2A4F;" d="M126.649,280.41c-1.316-1.227-2.021-2.951-2.021-4.688s0.704-3.406,2.021-4.632
			c0.261,0.034,0.432,0.159,0.579,0.363c-1.112,1.316-1.532,2.804-1.532,4.303c0,1.521,0.42,2.975,1.532,4.291
			C127.081,280.251,126.911,280.376,126.649,280.41z"/>
		<path style="fill:#1A2A4F;" d="M134.788,279.139c-0.091,0.034-0.284,0.045-0.432,0.045c-0.136,0-0.272-0.011-0.397-0.045
			l-4.042-5.733v5.733c-0.103,0.034-0.375,0.057-0.545,0.057c-0.136,0-0.352-0.012-0.5-0.057v-7.674
			c0.091-0.023,0.329-0.046,0.443-0.046c0.147,0,0.34,0.012,0.454,0.046l3.973,5.642v-5.642c0.125-0.034,0.34-0.058,0.488-0.058
			c0.136,0,0.443,0.023,0.556,0.058V279.139z"/>
		<path style="fill:#1A2A4F;" d="M138.588,279.252c-0.624,0-1.623-0.136-2.18-0.432c-0.034-0.158-0.057-0.306-0.057-0.465
			c0-0.17,0.011-0.341,0.057-0.5c0.534,0.25,1.476,0.466,2.123,0.466c0.942,0,1.578-0.363,1.578-1.146
			c0-0.716-0.329-1.067-1.249-1.408l-0.579-0.216c-1.146-0.431-1.85-1.056-1.85-2.111c0-1.419,1.203-2.089,2.577-2.089
			c0.602,0,1.181,0.068,1.714,0.204c0.034,0.137,0.057,0.284,0.057,0.432c0,0.159-0.023,0.318-0.057,0.477
			c-0.556-0.113-1.079-0.182-1.646-0.182c-0.772,0-1.499,0.307-1.499,1.124c0,0.579,0.318,0.932,1.215,1.271l0.534,0.205
			c1.169,0.431,1.873,0.976,1.873,2.18C141.199,278.537,140.041,279.252,138.588,279.252z"/>
		<path style="fill:#1A2A4F;" d="M144.478,279.252c-0.624,0-1.623-0.136-2.18-0.432c-0.034-0.158-0.057-0.306-0.057-0.465
			c0-0.17,0.011-0.341,0.057-0.5c0.534,0.25,1.476,0.466,2.123,0.466c0.942,0,1.578-0.363,1.578-1.146
			c0-0.716-0.329-1.067-1.249-1.408l-0.579-0.216c-1.146-0.431-1.85-1.056-1.85-2.111c0-1.419,1.203-2.089,2.577-2.089
			c0.602,0,1.181,0.068,1.714,0.204c0.034,0.137,0.057,0.284,0.057,0.432c0,0.159-0.023,0.318-0.057,0.477
			c-0.556-0.113-1.079-0.182-1.646-0.182c-0.772,0-1.499,0.307-1.499,1.124c0,0.579,0.318,0.932,1.215,1.271l0.534,0.205
			c1.169,0.431,1.873,0.976,1.873,2.18C147.089,278.537,145.931,279.252,144.478,279.252z"/>
		<path style="fill:#1A2A4F;" d="M148.29,278.707c0-0.374,0.307-0.681,0.681-0.681c0.431,0,0.715,0.352,0.715,0.828
			c0,0.897-0.875,1.862-1.635,2.351c-0.159-0.113-0.272-0.262-0.341-0.454c0.488-0.341,0.852-0.783,1.033-1.227
			C148.472,279.332,148.29,279.07,148.29,278.707z"/>
		<path style="fill:#1A2A4F;" d="M156.154,276.789c-0.408,0.454-0.852,0.931-1.328,1.407h3.213c0.034,0.125,0.057,0.363,0.057,0.5
			c0,0.124-0.011,0.317-0.057,0.442h-4.45c-0.079-0.216-0.136-0.42-0.136-0.647c0-0.091,0.011-0.192,0.022-0.283
			c0.602-0.602,1.282-1.317,1.862-1.964c1.066-1.192,1.635-1.885,1.635-2.793c0-0.817-0.545-1.227-1.271-1.227
			c-0.637,0-1.329,0.193-1.852,0.466c-0.033-0.159-0.057-0.317-0.057-0.477c0-0.114,0.023-0.284,0.057-0.386
			c0.522-0.284,1.249-0.478,2.021-0.478c1.271,0,2.271,0.761,2.271,2.01C158.142,274.519,157.449,275.347,156.154,276.789z"/>
		<path style="fill:#1A2A4F;" d="M162.181,279.252c-1.669,0-2.543-1.294-2.543-3.95c0-2.623,0.874-3.951,2.543-3.951
			s2.543,1.294,2.543,3.951C164.724,277.958,163.85,279.252,162.181,279.252z M162.181,272.236c-1.09,0-1.351,1.271-1.351,3.054
			c0,1.794,0.272,3.077,1.351,3.077c1.112,0,1.351-1.283,1.351-3.077S163.271,272.236,162.181,272.236z"/>
		<path style="fill:#1A2A4F;" d="M169.818,279.139c-0.182,0.034-0.375,0.057-0.568,0.057c-0.192,0-0.386-0.022-0.567-0.057v-6.448
			l-1.918,1.237c-0.216-0.204-0.409-0.533-0.478-0.817l2.646-1.646c0.125-0.034,0.272-0.058,0.42-0.058
			c0.159,0,0.318,0.023,0.466,0.058V279.139z"/>
		<path style="fill:#1A2A4F;" d="M177.547,277.356h-1.078v1.771c-0.17,0.034-0.341,0.057-0.522,0.057
			c-0.192,0-0.397-0.011-0.59-0.057v-1.771h-3.27c-0.034-0.147-0.057-0.295-0.057-0.442c0-0.125,0.011-0.239,0.057-0.421
			l2.452-5.028c0.158-0.034,0.397-0.058,0.556-0.058c0.205,0,0.432,0.023,0.647,0.058l-2.464,4.949h2.078V274.7
			c0.192-0.034,0.386-0.058,0.579-0.058c0.182,0,0.352,0.023,0.533,0.058v1.714h1.078c0.046,0.159,0.057,0.329,0.057,0.488
			C177.604,277.05,177.593,277.22,177.547,277.356z"/>
		<path style="fill:#1A2A4F;" d="M179.123,280.41c-0.262-0.034-0.432-0.159-0.579-0.363c1.112-1.316,1.532-2.804,1.532-4.303
			c0-1.521-0.42-2.975-1.532-4.291c0.147-0.204,0.341-0.329,0.602-0.363c1.316,1.226,1.998,2.951,1.998,4.688
			S180.439,279.184,179.123,280.41z"/>
	</g>
	<g>
		<path style="fill:#FFFFFF;" d="M100.811,112.77c0.053,0.203,0.12,0.697,0.138,1.047c0.019,0.351,0.017,0.703-0.028,1.036
			l-8.597,6.885l8.934-0.468c0.05,0.162,0.145,0.778,0.175,1.356c0.025,0.475-0.008,1.035-0.034,1.326l-13.947,0.731
			c-0.08-0.327-0.121-0.717-0.14-1.089c-0.021-0.392-0.001-0.807,0.024-1.118l8.438-6.752l-8.769,0.459
			c-0.083-0.41-0.153-0.944-0.174-1.335c-0.021-0.393-0.009-0.973,0.033-1.346L100.811,112.77z"/>
		<path style="fill:#FFFFFF;" d="M100.056,98.369c0.076,0.265,0.151,0.903,0.187,1.583c0.028,0.536-0.001,1.158-0.029,1.428
			l-2.772,1.18l0.259,4.952l2.877,0.821c0.086,0.451,0.156,0.985,0.184,1.522c0.028,0.536,0.019,1.157-0.026,1.47l-14.203-4.139
			c-0.077-0.285-0.154-0.963-0.178-1.418c-0.029-0.557-0.022-1.219,0.028-1.45L100.056,98.369z M95.033,103.577L91.156,105
			c-0.447,0.168-1.016,0.343-1.65,0.5l0.002,0.042c0.646,0.068,1.231,0.204,1.693,0.325l4.001,0.949L95.033,103.577z"/>
		<path style="fill:#FFFFFF;" d="M88.143,89.746l0.193,3.693l11.431-0.599c0.083,0.389,0.153,0.943,0.18,1.458
			c0.027,0.517,0.015,1.076-0.026,1.491l-11.43,0.599l0.194,3.693c-0.264,0.097-0.9,0.192-1.251,0.21
			c-0.351,0.019-0.995-0.03-1.268-0.099l-0.541-10.315c0.264-0.097,0.9-0.192,1.251-0.21C87.228,89.648,87.87,89.677,88.143,89.746z
			"/>
		<path style="fill:#FFFFFF;" d="M99.331,84.525c0.083,0.39,0.149,0.861,0.182,1.48c0.029,0.557,0.015,1.076-0.027,1.47
			l-13.947,0.731c-0.083-0.388-0.154-0.964-0.182-1.48c-0.03-0.578-0.016-1.096,0.027-1.47L99.331,84.525z"/>
		<path style="fill:#FFFFFF;" d="M99.122,76.592c0.2,3.817-2.334,5.977-6.875,6.215c-4.538,0.238-7.285-1.646-7.485-5.463
			c-0.2-3.816,2.334-5.976,6.873-6.214C96.175,70.892,98.921,72.775,99.122,76.592z M87.3,77.211
			c0.093,1.774,1.508,2.714,4.788,2.542c3.281-0.172,4.589-1.254,4.497-3.029c-0.093-1.774-1.508-2.714-4.789-2.542
			C88.516,74.355,87.207,75.437,87.3,77.211z"/>
		<path style="fill:#FFFFFF;" d="M97.916,57.519c0.052,0.204,0.119,0.697,0.138,1.048c0.018,0.35,0.016,0.703-0.029,1.035
			l-8.597,6.885l8.934-0.468c0.05,0.163,0.145,0.779,0.175,1.356c0.025,0.476-0.008,1.036-0.034,1.326l-13.947,0.731
			c-0.08-0.326-0.121-0.717-0.14-1.088c-0.021-0.392-0.001-0.807,0.024-1.118l8.438-6.753l-8.769,0.459
			c-0.083-0.409-0.153-0.943-0.174-1.335c-0.021-0.392-0.009-0.972,0.034-1.346L97.916,57.519z"/>
		<path style="fill:#FFFFFF;" d="M97.161,43.117c0.076,0.266,0.151,0.903,0.187,1.583c0.028,0.536-0.002,1.159-0.029,1.429
			l-2.772,1.18l0.259,4.952l2.877,0.82c0.086,0.452,0.156,0.986,0.184,1.522c0.028,0.537,0.019,1.158-0.026,1.47l-14.203-4.138
			c-0.077-0.286-0.154-0.964-0.178-1.418c-0.029-0.557-0.022-1.219,0.028-1.45L97.161,43.117z M92.137,48.325l-3.877,1.424
			c-0.447,0.168-1.016,0.342-1.65,0.5l0.002,0.042c0.646,0.069,1.231,0.205,1.693,0.326l4.001,0.949L92.137,48.325z"/>
		<path style="fill:#FFFFFF;" d="M96.637,33.132l0.448,8.541l-13.947,0.731c-0.083-0.388-0.152-0.922-0.179-1.439
			c-0.03-0.577-0.018-1.136,0.024-1.51l11.43-0.599l-0.293-5.592c0.222-0.094,0.653-0.178,1.23-0.208
			C95.805,33.032,96.198,33.052,96.637,33.132z"/>
	</g>
	<g>
		<path style="fill:#FFFFFF;" d="M119.087,119.212c0.079,1.506-0.124,3.171-0.598,4.375c-0.286,0.078-0.655,0.139-0.985,0.155
			c-0.496,0.026-0.974-0.011-1.538-0.126c0.431-1.243,0.656-2.869,0.59-4.127c-0.077-1.465-0.799-2.213-1.728-2.165
			c-1.031,0.055-1.43,0.737-1.944,2.771c-0.564,2.265-1.552,3.95-3.945,4.076c-2.559,0.134-4.098-2-4.25-4.909
			c-0.07-1.341,0.073-2.548,0.3-3.366c0.223-0.074,0.592-0.135,1.128-0.163c0.392-0.021,0.993-0.011,1.328,0.055
			c-0.215,1.046-0.297,2.229-0.247,3.178c0.081,1.548,0.641,2.367,1.466,2.323c0.97-0.051,1.322-0.835,1.802-2.722
			c0.585-2.265,1.551-3.971,4.026-4.101C117.196,114.324,118.938,116.364,119.087,119.212z"/>
		<path style="fill:#FFFFFF;" d="M106.629,104.141l0.193,3.693l11.43-0.599c0.083,0.389,0.153,0.943,0.18,1.459
			c0.027,0.516,0.015,1.075-0.025,1.491l-11.43,0.599l0.193,3.693c-0.264,0.098-0.9,0.191-1.25,0.21s-0.995-0.029-1.268-0.099
			l-0.541-10.316c0.264-0.097,0.9-0.191,1.251-0.21S106.356,104.072,106.629,104.141z"/>
		<path style="fill:#FFFFFF;" d="M112.121,91.688c3.548-0.186,5.58,1.073,5.788,5.035c0.209,4.002-1.685,5.363-5.233,5.549
			l-8.645,0.453c-0.083-0.408-0.153-0.942-0.179-1.438c-0.03-0.578-0.016-1.095,0.024-1.512l8.852-0.464
			c1.898-0.1,2.942-0.692,2.849-2.486c-0.094-1.796-1.199-2.359-3.097-2.26l-8.852,0.464c-0.081-0.366-0.155-0.983-0.18-1.459
			c-0.023-0.453-0.015-1.074,0.029-1.429L112.121,91.688z"/>
		<path style="fill:#FFFFFF;" d="M115.578,79.881c1.057,1.228,1.495,2.858,1.614,5.129c0.061,1.155,0.122,3.118,0.094,3.781
			l-13.947,0.73c-0.114-1.007-0.266-3.109-0.328-4.285c-0.238-4.54,1.559-6.971,6.552-7.232
			C112.142,77.869,114.323,78.437,115.578,79.881z M105.442,85.046c0.029,0.558,0.082,1.175,0.115,1.401l9.181-0.481
			c0.006-0.27-0.005-0.89-0.039-1.529c-0.136-2.599-1.841-3.544-5.019-3.378C106.194,81.241,105.301,82.364,105.442,85.046z"/>
		<path style="fill:#FFFFFF;" d="M116.135,66.839l0.458,8.728l-13.947,0.73l-0.448-8.541c0.223-0.095,0.653-0.179,1.23-0.209
			c0.454-0.023,0.848-0.003,1.287,0.077l0.293,5.591l3.013-0.157l-0.248-4.726c0.222-0.095,0.632-0.178,1.209-0.208
			c0.454-0.023,0.827-0.003,1.266,0.078l0.248,4.726l3.425-0.18l-0.303-5.777c0.223-0.094,0.653-0.179,1.231-0.209
			C115.303,66.737,115.696,66.758,116.135,66.839z"/>
		<path style="fill:#FFFFFF;" d="M115.441,53.594c0.052,0.204,0.119,0.696,0.138,1.048c0.018,0.35,0.016,0.703-0.029,1.035
			l-8.597,6.885l8.934-0.468c0.05,0.163,0.145,0.778,0.175,1.356c0.025,0.475-0.008,1.035-0.034,1.326l-13.947,0.73
			c-0.079-0.326-0.12-0.717-0.14-1.089c-0.021-0.392-0.001-0.807,0.024-1.118l8.439-6.752l-8.769,0.459
			c-0.083-0.409-0.153-0.943-0.173-1.335c-0.021-0.393-0.009-0.973,0.033-1.348L115.441,53.594z"/>
		<path style="fill:#FFFFFF;" d="M103.384,42.226l0.194,3.693l11.43-0.599c0.083,0.389,0.153,0.943,0.18,1.459
			s0.015,1.075-0.026,1.491l-11.43,0.599l0.193,3.693c-0.264,0.098-0.9,0.191-1.251,0.21s-0.994-0.029-1.267-0.099l-0.541-10.316
			c0.264-0.097,0.9-0.191,1.251-0.21S103.112,42.157,103.384,42.226z"/>
	</g>
	<g>
		<path style="fill:#FFFFFF;" d="M136.772,118.291c0.079,1.506-0.123,3.171-0.598,4.375c-0.286,0.078-0.655,0.138-0.985,0.155
			c-0.496,0.026-0.973-0.011-1.538-0.126c0.431-1.244,0.657-2.87,0.591-4.127c-0.077-1.465-0.799-2.213-1.728-2.165
			c-1.032,0.054-1.43,0.737-1.944,2.771c-0.564,2.264-1.552,3.95-3.945,4.076c-2.559,0.134-4.098-2-4.25-4.909
			c-0.07-1.341,0.074-2.548,0.299-3.367c0.224-0.074,0.593-0.135,1.129-0.163c0.392-0.021,0.993-0.011,1.327,0.055
			c-0.214,1.045-0.297,2.229-0.247,3.178c0.081,1.548,0.642,2.367,1.466,2.323c0.97-0.051,1.322-0.835,1.802-2.722
			c0.585-2.265,1.551-3.971,4.026-4.101C134.881,113.404,136.623,115.443,136.772,118.291z"/>
		<path style="fill:#FFFFFF;" d="M130.348,101.105c3.548-0.186,5.58,1.073,5.788,5.034c0.209,4.003-1.685,5.364-5.233,5.55
			l-8.645,0.453c-0.084-0.41-0.153-0.944-0.179-1.439c-0.03-0.578-0.016-1.096,0.024-1.512l8.851-0.464
			c1.898-0.1,2.942-0.692,2.849-2.487c-0.094-1.795-1.199-2.358-3.097-2.258l-8.851,0.464c-0.082-0.368-0.156-0.985-0.181-1.459
			c-0.023-0.454-0.015-1.075,0.029-1.428L130.348,101.105z"/>
		<path style="fill:#FFFFFF;" d="M134.954,87.933c0.11,0.533,0.181,1.087,0.214,1.727c0.03,0.578,0.04,1.156-0.022,1.552
			l-4.865,3.09l0.064,1.218l5.013-0.263c0.109,0.511,0.153,0.943,0.182,1.5c0.026,0.496,0.028,0.93-0.028,1.45l-13.947,0.731
			c-0.111-0.945-0.257-2.923-0.319-4.121c-0.184-3.508,0.962-5.326,4.181-5.494c1.713-0.09,3.479,0.852,4.174,2.264L134.954,87.933z
			 M123.65,94.504c0.023,0.454,0.073,1.01,0.112,1.36l4.126-0.216l-0.054-1.032c-0.089-1.692-0.747-2.402-2.273-2.322
			C124.035,92.374,123.579,93.142,123.65,94.504z"/>
		<path style="fill:#FFFFFF;" d="M128.585,82.867c0.851-0.354,1.803-0.714,2.622-0.903l-0.002-0.04
			c-0.833-0.101-1.817-0.339-2.7-0.603l-4.495-1.296c-1.156-0.333-2.261-0.502-3.458-0.46c-0.083-0.41-0.155-0.985-0.18-1.459
			c-0.022-0.434-0.014-1.055,0.029-1.429c1.382-0.072,2.716,0.105,4.21,0.586l9.975,3.222c0.075,0.245,0.147,0.82,0.173,1.315
			c0.029,0.558,0.012,1.013-0.031,1.388l-9.545,4.182c-1.437,0.635-2.785,0.953-4.167,1.025c-0.082-0.368-0.149-0.862-0.181-1.48
			c-0.025-0.475-0.015-1.074,0.028-1.45c1.279-0.067,2.277-0.347,3.392-0.798L128.585,82.867z"/>
		<path style="fill:#FFFFFF;" d="M133.807,65.67l0.458,8.728l-13.947,0.731l-0.448-8.541c0.223-0.095,0.653-0.179,1.23-0.209
			c0.454-0.023,0.848-0.003,1.287,0.078l0.293,5.591l3.012-0.158l-0.248-4.725c0.223-0.094,0.632-0.178,1.21-0.208
			c0.454-0.024,0.827-0.002,1.266,0.079l0.248,4.725l3.425-0.18l-0.303-5.777c0.223-0.094,0.653-0.179,1.23-0.209
			C132.975,65.569,133.369,65.589,133.807,65.67z"/>
		<path style="fill:#FFFFFF;" d="M122.467,54.949l6.252,2.838l4.663-0.245c0.083,0.388,0.148,0.839,0.18,1.458
			c0.029,0.558,0.016,1.096-0.025,1.491l-4.704,0.247l-5.723,3.321c-1.245,0.728-2.279,1.133-3.331,1.188
			c-0.059-0.328-0.131-0.924-0.159-1.44c-0.026-0.495-0.035-1.054,0.007-1.449c0.867-0.045,1.438-0.199,2.403-0.725l2.775-1.532
			c0.603-0.342,1.332-0.649,1.761-0.754l-0.001-0.021c-0.439-0.08-1.22-0.371-1.769-0.59l-3.066-1.267
			c-0.656-0.276-1.408-0.423-2.357-0.373c-0.083-0.388-0.157-1.005-0.183-1.501c-0.03-0.577-0.011-1.012,0.033-1.346
			C120.276,54.194,121.556,54.542,122.467,54.949z"/>
	</g>
</g>
</svg>
