<?xml version="1.0" encoding="utf-8"?>
<!-- Generator: Adobe Illustrator 16.0.0, SVG Export Plug-In . SVG Version: 6.00 Build 0)  -->
<!DOCTYPE svg PUBLIC "-//W3C//DTD SVG 1.0//EN" "http://www.w3.org/TR/2001/REC-SVG-20010904/DTD/svg10.dtd">
<svg version="1.0" xmlns="http://www.w3.org/2000/svg" xmlns:xlink="http://www.w3.org/1999/xlink" x="0px" y="0px" width="300px"
	 height="300px" viewBox="0 0 300 300" style="enable-background:new 0 0 300 300;" xml:space="preserve">
<g id="Icon">
	<path style="fill:#E44398;" d="M69.225,168.244c-16.698,5.315-35.249-3.733-41.341-20.164
		c-6.081-16.452,2.554-34.151,19.261-39.488c16.698-5.318,35.25,3.73,41.341,20.163C94.567,145.206,85.932,162.905,69.225,168.244
		 M98.781,125.488c-8.161-22.028-33.019-34.152-55.399-27.02c-22.371,7.141-33.937,30.854-25.791,52.878
		c7.278,19.613,27.772,31.329,47.972,28.631c-0.381,1.607-0.318,3.361,0.312,5.06l11.865,32.072
		c1.747,4.671,6.981,7.223,11.706,5.707c4.751-1.501,7.19-6.503,5.446-11.17l-11.87-32.072c-0.628-1.701-1.743-3.105-3.112-4.153
		C97.641,166.015,106.042,145.092,98.781,125.488"/>
</g>
<g id="Text" style="display:none;">
	<text transform="matrix(1 0 0 1 112.6562 150.2471)" style="display:inline;"><tspan x="0" y="0" style="fill:#5DC2AA; font-family:'FSMatthew-Bold'; font-size:63.8224;">£42</tspan><tspan x="103.198" y="0" style="fill:#5DC2AA; font-family:'FSMatthew-Bold'; font-size:63.8224;">M</tspan></text>
	<text transform="matrix(1 0 0 1 118.2822 175.4727)" style="display:inline;"><tspan x="0" y="0" style="fill:#1A2A4F; font-family:'FSMatthew-Bold'; font-size:20.7892;">i</tspan><tspan x="5.737" y="0" style="fill:#1A2A4F; font-family:'FSMatthew-Bold'; font-size:20.7892;">n</tspan><tspan x="17.608" y="0" style="fill:#1A2A4F; font-family:'FSMatthew-Bold'; font-size:20.7892;">v</tspan><tspan x="28.501" y="0" style="fill:#1A2A4F; font-family:'FSMatthew-Bold'; font-size:20.7892;">e</tspan><tspan x="39.498" y="0" style="fill:#1A2A4F; font-family:'FSMatthew-Bold'; font-size:20.7892;">s</tspan><tspan x="48.562" y="0" style="fill:#1A2A4F; font-family:'FSMatthew-Bold'; font-size:20.7892;">t</tspan><tspan x="57.252" y="0" style="fill:#1A2A4F; font-family:'FSMatthew-Bold'; font-size:20.7892;">ed in </tspan></text>
	<text transform="matrix(1 0 0 1 118.2822 199.4609)" style="display:inline;"><tspan x="0" y="0" style="fill:#1A2A4F; font-family:'FSMatthew-Bold'; font-size:20.7892;">r</tspan><tspan x="7.733" y="0" style="fill:#1A2A4F; font-family:'FSMatthew-Bold'; font-size:20.7892;">esea</tspan><tspan x="50.288" y="0" style="fill:#1A2A4F; font-family:'FSMatthew-Bold'; font-size:20.7892;">r</tspan><tspan x="58.021" y="0" style="fill:#1A2A4F; font-family:'FSMatthew-Bold'; font-size:20.7892;">ch and </tspan></text>
	<text transform="matrix(1 0 0 1 118.2822 223.4482)" style="display:inline;"><tspan x="0" y="0" style="fill:#1A2A4F; font-family:'FSMatthew-Bold'; font-size:20.7892;">inn</tspan><tspan x="29.853" y="0" style="fill:#1A2A4F; font-family:'FSMatthew-Bold'; font-size:20.7892;">o</tspan><tspan x="41.349" y="0" style="fill:#1A2A4F; font-family:'FSMatthew-Bold'; font-size:20.7892;">v</tspan><tspan x="51.951" y="0" style="fill:#1A2A4F; font-family:'FSMatthew-Bold'; font-size:20.7892;">a</tspan><tspan x="63.094" y="0" style="fill:#1A2A4F; font-family:'FSMatthew-Bold'; font-size:20.7892;">tion</tspan></text>
	<text transform="matrix(1 0 0 1 118.2822 97.3652)" style="display:inline;"><tspan x="0" y="0" style="fill:#1A2A4F; font-family:'FSMatthew-Bold'; font-size:31.8274;">O</tspan><tspan x="20.337" y="0" style="fill:#1A2A4F; font-family:'FSMatthew-Bold'; font-size:31.8274;">VER</tspan></text>
	
		<text transform="matrix(1 0 0 1 227.9941 223.252)" style="display:inline;fill:#BAA875; font-family:'FSMatthew-Bold'; font-size:12.8824;">(2015/16)</text>
</g>
<g id="Text_Flat">
	<g>
		<path style="fill:#5DC2AA;" d="M144.378,150.247H116.55c-0.319-0.702-0.638-2.362-0.638-3.574c0-0.894,0.127-2.17,0.255-3.064
			c3.638-1.34,5.042-3.574,5.042-7.787v-4.915h-4.723c-0.191-1.149-0.383-2.745-0.383-3.574c0-1.149,0.127-2.489,0.383-3.574h4.723
			v-3.255c0-8.617,5.042-14.042,14.297-14.042c3.383,0,6.958,0.702,9,1.532c0.191,0.638,0.319,2.234,0.319,2.936
			c0,1.149-0.191,2.936-0.447,4.213c-1.979-0.766-5.17-1.34-7.851-1.34c-4.404,0-6.191,2.17-6.191,6.766v3.191h9.446
			c0.255,1.085,0.383,2.425,0.383,3.574c0,0.83-0.128,2.489-0.383,3.574h-9.446v4.596c0,3-1.085,5.617-3.894,7.468v0.064h17.872
			c0.255,0.894,0.383,2.553,0.383,3.702C144.698,147.758,144.57,149.226,144.378,150.247z"/>
		<path style="fill:#5DC2AA;" d="M181.522,140.928h-5.617v9.319c-0.766,0.127-2.553,0.319-4.531,0.319
			c-1.851,0-3.319-0.128-4.341-0.319v-9.319h-18.637c-0.255-0.83-0.447-2.298-0.447-3.447c0-1.34,0.191-2.553,0.447-3.447
			L161.48,107.1c1.149-0.191,3.063-0.319,4.468-0.319c1.979,0,4.085,0.191,5.043,0.319l-13.085,26.297h9.127v-8.808
			c1.149-0.191,2.937-0.319,4.404-0.319c1.532,0,3.383,0.128,4.468,0.319v8.808h5.617c0.319,1.021,0.447,2.426,0.447,3.766
			S181.777,140.226,181.522,140.928z"/>
		<path style="fill:#5DC2AA;" d="M212.284,150.247h-27.255c-0.574-1.34-0.766-3-0.766-4.468c0-0.766,0.063-1.724,0.191-2.362
			c4.468-4.532,9.255-9.638,13.468-14.361c3.127-3.51,5.616-6.766,5.616-10.34c0-3.127-2.17-4.915-5.999-4.915
			c-2.809,0-7.276,0.957-11.426,2.936c-0.255-1.085-0.511-3-0.511-4.532c0-0.766,0.128-2.298,0.384-3.319
			c3.127-1.34,8.17-2.553,13.084-2.553c7.276,0,13.659,3.383,13.659,11.233c0,6.894-3.702,11.553-11.616,19.851
			c-1.532,1.659-3.191,3.255-4.852,4.979h16.148c0.191,0.83,0.319,2.425,0.319,3.957C212.73,147.63,212.539,149.354,212.284,150.247
			z"/>
		<path style="fill:#5DC2AA;" d="M264.3,150.247c-0.767,0.191-2.489,0.319-4.276,0.319c-1.915,0-3.702-0.192-4.468-0.319
			l-0.767-25.914l-9.446,21.829c-0.702,0.255-2.234,0.383-3.191,0.383c-1.148,0-2.553-0.127-3.255-0.319l-9.446-21.893l-0.83,25.914
			c-0.83,0.191-2.809,0.319-4.532,0.319c-1.021,0-2.744-0.128-3.894-0.319l1.852-43.147c1.213-0.127,2.426-0.319,3.702-0.319
			c1.531,0,3,0.127,3.766,0.319l12.638,29.297l12.702-29.297c1.276-0.191,2.553-0.319,3.701-0.319c1.469,0,2.809,0.127,3.767,0.319
			L264.3,150.247z"/>
	</g>
	<g>
		<path style="fill:#1A2A4F;" d="M121.15,163.46c-0.873,0-1.58-0.706-1.58-1.579s0.707-1.579,1.58-1.579
			c0.873,0,1.579,0.706,1.579,1.579S122.023,163.46,121.15,163.46z M122.584,175.473c-0.374,0.083-1.143,0.104-1.476,0.104
			c-0.499,0-1.039-0.041-1.392-0.104v-10.828c0.457-0.062,1.018-0.104,1.392-0.104c0.499,0,1.019,0.042,1.476,0.104V175.473z"/>
		<path style="fill:#1A2A4F;" d="M134.826,175.473c-0.332,0.083-1.039,0.104-1.372,0.104c-0.353,0-1.164-0.041-1.496-0.104v-7.107
			c0-1.122-0.582-1.601-1.517-1.601c-0.748,0-1.601,0.271-2.266,0.686v8.022c-0.478,0.083-1.143,0.104-1.517,0.104
			c-0.333,0-0.935-0.021-1.351-0.104v-10.828c0.27-0.062,0.935-0.104,1.247-0.104c0.291,0,0.894,0.042,1.205,0.104l0.146,0.956
			c0.935-0.686,2.286-1.163,3.492-1.163c2.286,0,3.429,1.413,3.429,3.782V175.473z"/>
		<path style="fill:#1A2A4F;" d="M145.783,167.824l-3.118,7.648c-0.208,0.042-0.748,0.104-1.288,0.104
			c-0.562,0-1.164-0.062-1.414-0.104l-2.993-7.689c-0.395-1.039-0.582-2.058-0.582-3.139c0.375-0.062,0.894-0.104,1.33-0.104
			c0.603,0,1.019,0.042,1.351,0.104c0,0.77,0.104,1.621,0.374,2.432l1.912,5.487h0.042l1.975-5.487
			c0.27-0.811,0.374-1.517,0.374-2.432c0.291-0.041,0.914-0.104,1.372-0.104c0.457,0,0.935,0.042,1.268,0.104
			C146.385,165.809,146.177,166.869,145.783,167.824z"/>
		<path style="fill:#1A2A4F;" d="M157.05,171.066h-6.567c0.042,1.352,0.977,2.349,2.785,2.349c0.977,0,1.974-0.125,2.826-0.354
			c0.125,0.562,0.208,1.185,0.208,1.746c0,0.083,0,0.188-0.021,0.416c-1.061,0.312-2.162,0.457-3.242,0.457
			c-3.949,0-5.591-2.266-5.591-5.57c0-2.889,1.621-5.673,5.133-5.673c3.325,0,4.531,2.452,4.531,5.153
			C157.112,169.965,157.112,170.526,157.05,171.066z M154.244,169.01c0-1.31-0.354-2.411-1.704-2.411
			c-1.289,0-1.975,1.019-2.058,2.411H154.244z"/>
		<path style="fill:#1A2A4F;" d="M162.27,175.681c-1.227,0-2.515-0.188-3.513-0.52c-0.062-0.312-0.083-0.707-0.083-1.122
			c0-0.333,0.083-0.811,0.166-1.102c0.956,0.332,2.328,0.561,3.139,0.561c1.122,0,1.767-0.374,1.767-1.143
			c0-0.665-0.52-0.977-1.892-1.413c-2.182-0.687-3.2-1.704-3.2-3.284c0-2.349,2.161-3.221,4.219-3.221
			c0.956,0,2.016,0.166,2.743,0.395c0.083,0.312,0.125,0.748,0.125,0.998c0,0.27-0.083,0.831-0.188,1.185
			c-0.706-0.208-1.684-0.375-2.494-0.375c-0.997,0-1.683,0.25-1.683,0.873c0,0.665,0.769,0.936,1.974,1.33
			c2.1,0.687,3.097,1.559,3.097,3.201C166.446,174.579,164.41,175.681,162.27,175.681z"/>
		<path style="fill:#1A2A4F;" d="M174.991,175.265c-0.623,0.25-1.371,0.416-2.577,0.416c-2.348,0-3.512-1.144-3.512-3.43v-5.466
			h-1.787c-0.083-0.312-0.146-0.831-0.146-1.101c0-0.25,0.062-0.707,0.124-0.915l1.809-0.125v-2.784
			c0.229-0.042,0.956-0.083,1.434-0.083c0.52,0,1.164,0.041,1.435,0.083v2.784h2.992c0.083,0.291,0.125,0.707,0.125,0.936
			c0,0.25-0.021,0.914-0.104,1.205h-3.013v5.051c0,1.039,0.415,1.496,1.434,1.496c0.562,0,1.247-0.083,1.725-0.249
			c0.084,0.27,0.188,0.789,0.188,1.268C175.116,174.6,175.074,175.036,174.991,175.265z"/>
		<path style="fill:#1A2A4F;" d="M185.801,171.066h-6.567c0.042,1.352,0.977,2.349,2.785,2.349c0.977,0,1.974-0.125,2.826-0.354
			c0.125,0.562,0.208,1.185,0.208,1.746c0,0.083,0,0.188-0.021,0.416c-1.061,0.312-2.162,0.457-3.242,0.457
			c-3.949,0-5.591-2.266-5.591-5.57c0-2.889,1.621-5.673,5.133-5.673c3.325,0,4.531,2.452,4.531,5.153
			C185.863,169.965,185.863,170.526,185.801,171.066z M182.995,169.01c0-1.31-0.354-2.411-1.704-2.411
			c-1.289,0-1.975,1.019-2.058,2.411H182.995z"/>
		<path style="fill:#1A2A4F;" d="M197.006,175.473c-0.333,0.062-0.894,0.104-1.33,0.104c-0.396,0-0.853-0.041-1.144-0.104
			l-0.083-0.956c-0.748,0.728-1.704,1.164-2.826,1.164c-3.097,0-4.427-2.474-4.427-5.445c0-3.2,1.434-5.798,4.738-5.798
			c0.811,0,1.746,0.249,2.203,0.54v-4.655c0.374-0.062,0.997-0.104,1.455-0.104c0.561,0,0.997,0.062,1.413,0.104V175.473z
			 M194.138,167.118c-0.499-0.229-1.144-0.354-1.684-0.354c-1.684,0-2.307,1.496-2.307,3.305c0,1.517,0.374,3.242,2.058,3.242
			c0.811,0,1.434-0.333,1.933-0.748V167.118z"/>
		<path style="fill:#1A2A4F;" d="M205.802,163.46c-0.873,0-1.58-0.706-1.58-1.579s0.707-1.579,1.58-1.579s1.579,0.706,1.579,1.579
			S206.675,163.46,205.802,163.46z M207.235,175.473c-0.374,0.083-1.143,0.104-1.476,0.104c-0.498,0-1.039-0.041-1.393-0.104
			v-10.828c0.458-0.062,1.019-0.104,1.393-0.104c0.499,0,1.019,0.042,1.476,0.104V175.473z"/>
		<path style="fill:#1A2A4F;" d="M219.478,175.473c-0.332,0.083-1.039,0.104-1.371,0.104c-0.354,0-1.164-0.041-1.497-0.104v-7.107
			c0-1.122-0.581-1.601-1.517-1.601c-0.748,0-1.601,0.271-2.266,0.686v8.022c-0.478,0.083-1.143,0.104-1.517,0.104
			c-0.333,0-0.936-0.021-1.352-0.104v-10.828c0.271-0.062,0.936-0.104,1.247-0.104c0.291,0,0.894,0.042,1.206,0.104l0.146,0.956
			c0.935-0.686,2.286-1.163,3.491-1.163c2.286,0,3.429,1.413,3.429,3.782V175.473z"/>
	</g>
	<g>
		<path style="fill:#1A2A4F;" d="M125.722,190.836c-1.081,0.167-2.244,0.541-3.284,1.081v7.544
			c-0.291,0.062-0.914,0.104-1.413,0.104c-0.499,0-1.226-0.041-1.455-0.104v-10.828c0.312-0.041,0.831-0.104,1.247-0.104
			c0.353,0,0.914,0.042,1.205,0.104l0.167,1.33c0.769-0.686,2.161-1.434,3.512-1.537c0.042,0.166,0.083,0.769,0.083,1.205
			C125.785,190.047,125.764,190.545,125.722,190.836z"/>
		<path style="fill:#1A2A4F;" d="M136.282,195.055h-6.567c0.042,1.352,0.977,2.349,2.785,2.349c0.977,0,1.974-0.125,2.826-0.354
			c0.125,0.562,0.208,1.185,0.208,1.746c0,0.083,0,0.188-0.021,0.416c-1.06,0.312-2.161,0.457-3.242,0.457
			c-3.949,0-5.59-2.266-5.59-5.57c0-2.889,1.621-5.673,5.133-5.673c3.325,0,4.531,2.452,4.531,5.153
			C136.345,193.953,136.345,194.515,136.282,195.055z M133.477,192.998c0-1.31-0.354-2.411-1.704-2.411
			c-1.289,0-1.975,1.019-2.058,2.411H133.477z"/>
		<path style="fill:#1A2A4F;" d="M141.502,199.669c-1.227,0-2.515-0.188-3.513-0.52c-0.062-0.312-0.083-0.707-0.083-1.122
			c0-0.333,0.083-0.811,0.167-1.102c0.956,0.332,2.328,0.561,3.138,0.561c1.122,0,1.766-0.374,1.766-1.143
			c0-0.665-0.52-0.977-1.891-1.413c-2.182-0.687-3.2-1.704-3.2-3.284c0-2.349,2.161-3.221,4.219-3.221
			c0.956,0,2.016,0.166,2.743,0.395c0.083,0.312,0.125,0.748,0.125,0.998c0,0.27-0.083,0.831-0.187,1.185
			c-0.707-0.208-1.683-0.375-2.494-0.375c-0.998,0-1.684,0.25-1.684,0.873c0,0.665,0.769,0.936,1.975,1.33
			c2.099,0.687,3.097,1.559,3.097,3.201C145.679,198.567,143.642,199.669,141.502,199.669z"/>
		<path style="fill:#1A2A4F;" d="M156.655,195.055h-6.567c0.042,1.352,0.977,2.349,2.785,2.349c0.977,0,1.974-0.125,2.826-0.354
			c0.125,0.562,0.208,1.185,0.208,1.746c0,0.083,0,0.188-0.021,0.416c-1.061,0.312-2.162,0.457-3.242,0.457
			c-3.949,0-5.591-2.266-5.591-5.57c0-2.889,1.621-5.673,5.133-5.673c3.325,0,4.531,2.452,4.531,5.153
			C156.718,193.953,156.718,194.515,156.655,195.055z M153.85,192.998c0-1.31-0.354-2.411-1.704-2.411
			c-1.289,0-1.975,1.019-2.058,2.411H153.85z"/>
		<path style="fill:#1A2A4F;" d="M167.299,196.447c0,0.894,0.021,1.912,0.021,3.014c-0.332,0.083-0.894,0.104-1.246,0.104
			c-0.396,0-0.915-0.041-1.247-0.104c-0.042-0.249-0.083-0.686-0.104-0.956h-0.041c-0.707,0.728-1.912,1.164-3.014,1.164
			c-2.078,0-3.574-1.289-3.574-3.43c0-3.325,2.95-3.886,5.424-3.886c0.166,0,0.562,0.021,0.894,0.041
			c0-0.124-0.021-0.395-0.041-0.498c-0.146-0.853-0.707-1.206-1.912-1.206c-0.936,0-2.245,0.188-3.242,0.437
			c-0.104-0.291-0.166-0.789-0.166-1.164c0-0.312,0.041-0.789,0.124-0.997c1.164-0.354,2.598-0.54,3.782-0.54
			c2.599,0,4.344,1.205,4.344,3.907V196.447z M164.431,194.39c-0.249-0.021-0.582-0.041-0.872-0.041
			c-1.871,0-2.599,0.748-2.599,1.684c0,0.811,0.541,1.371,1.476,1.371c0.687,0,1.455-0.332,1.995-0.811V194.39z"/>
		<path style="fill:#1A2A4F;" d="M176.011,190.836c-1.081,0.167-2.245,0.541-3.284,1.081v7.544
			c-0.291,0.062-0.914,0.104-1.413,0.104s-1.226-0.041-1.455-0.104v-10.828c0.312-0.041,0.832-0.104,1.247-0.104
			c0.354,0,0.915,0.042,1.206,0.104l0.166,1.33c0.769-0.686,2.161-1.434,3.512-1.537c0.042,0.166,0.084,0.769,0.084,1.205
			C176.073,190.047,176.052,190.545,176.011,190.836z"/>
		<path style="fill:#1A2A4F;" d="M185.281,189.797c0,0.457-0.062,0.956-0.207,1.393c-0.687-0.271-1.58-0.437-2.432-0.437
			c-1.621,0-2.723,1.039-2.723,3.367c0,2.036,0.936,3.221,2.743,3.221c0.936,0,1.829-0.166,2.494-0.395
			c0.124,0.457,0.187,1.019,0.187,1.455c0,0.291,0,0.498-0.021,0.686c-0.831,0.374-1.933,0.582-2.972,0.582
			c-3.596,0-5.383-2.1-5.383-5.508c0-3.533,1.87-5.735,5.508-5.735c1.018,0,2.016,0.207,2.722,0.54
			C185.261,189.194,185.281,189.485,185.281,189.797z"/>
		<path style="fill:#1A2A4F;" d="M197.048,192.208v7.253c-0.332,0.083-1.039,0.104-1.371,0.104c-0.354,0-1.164-0.041-1.497-0.104
			v-7.087c0-1.122-0.582-1.621-1.517-1.621c-0.748,0-1.663,0.271-2.328,0.686v8.022c-0.478,0.083-1.143,0.104-1.517,0.104
			c-0.333,0-0.936-0.021-1.352-0.104v-15.15c0.271-0.062,0.873-0.104,1.393-0.104s1.164,0.041,1.476,0.104v5.092
			c0.915-0.582,2.183-0.977,3.284-0.977C195.905,188.426,197.048,189.839,197.048,192.208z"/>
		<path style="fill:#1A2A4F;" d="M212.889,196.447c0,0.894,0.021,1.912,0.021,3.014c-0.332,0.083-0.894,0.104-1.246,0.104
			c-0.396,0-0.915-0.041-1.247-0.104c-0.042-0.249-0.083-0.686-0.104-0.956h-0.041c-0.707,0.728-1.912,1.164-3.014,1.164
			c-2.078,0-3.574-1.289-3.574-3.43c0-3.325,2.95-3.886,5.424-3.886c0.166,0,0.562,0.021,0.894,0.041
			c0-0.124-0.021-0.395-0.041-0.498c-0.146-0.853-0.707-1.206-1.912-1.206c-0.936,0-2.245,0.188-3.242,0.437
			c-0.104-0.291-0.166-0.789-0.166-1.164c0-0.312,0.041-0.789,0.124-0.997c1.164-0.354,2.598-0.54,3.782-0.54
			c2.599,0,4.344,1.205,4.344,3.907V196.447z M210.021,194.39c-0.249-0.021-0.582-0.041-0.872-0.041
			c-1.871,0-2.599,0.748-2.599,1.684c0,0.811,0.541,1.371,1.476,1.371c0.687,0,1.455-0.332,1.995-0.811V194.39z"/>
		<path style="fill:#1A2A4F;" d="M224.967,199.461c-0.332,0.083-1.039,0.104-1.371,0.104c-0.354,0-1.164-0.041-1.497-0.104v-7.107
			c0-1.122-0.581-1.601-1.517-1.601c-0.748,0-1.601,0.271-2.266,0.686v8.022c-0.478,0.083-1.143,0.104-1.517,0.104
			c-0.333,0-0.936-0.021-1.352-0.104v-10.828c0.271-0.062,0.936-0.104,1.247-0.104c0.291,0,0.894,0.042,1.206,0.104l0.146,0.956
			c0.935-0.686,2.286-1.163,3.491-1.163c2.286,0,3.429,1.413,3.429,3.782V199.461z"/>
		<path style="fill:#1A2A4F;" d="M236.692,199.461c-0.333,0.062-0.894,0.104-1.33,0.104c-0.396,0-0.853-0.041-1.144-0.104
			l-0.083-0.956c-0.748,0.728-1.704,1.164-2.826,1.164c-3.097,0-4.427-2.474-4.427-5.445c0-3.2,1.434-5.798,4.738-5.798
			c0.811,0,1.746,0.249,2.203,0.54v-4.655c0.374-0.062,0.997-0.104,1.455-0.104c0.561,0,0.997,0.062,1.413,0.104V199.461z
			 M233.824,191.106c-0.499-0.229-1.144-0.354-1.684-0.354c-1.684,0-2.307,1.496-2.307,3.305c0,1.517,0.374,3.242,2.058,3.242
			c0.811,0,1.434-0.333,1.933-0.748V191.106z"/>
	</g>
	<g>
		<path style="fill:#1A2A4F;" d="M121.15,211.436c-0.873,0-1.58-0.706-1.58-1.579s0.707-1.579,1.58-1.579
			c0.873,0,1.579,0.706,1.579,1.579S122.023,211.436,121.15,211.436z M122.584,223.448c-0.374,0.083-1.143,0.104-1.476,0.104
			c-0.499,0-1.039-0.041-1.392-0.104V212.62c0.457-0.062,1.018-0.104,1.392-0.104c0.499,0,1.019,0.042,1.476,0.104V223.448z"/>
		<path style="fill:#1A2A4F;" d="M134.826,223.448c-0.332,0.083-1.039,0.104-1.372,0.104c-0.353,0-1.164-0.041-1.496-0.104v-7.107
			c0-1.122-0.582-1.601-1.517-1.601c-0.748,0-1.601,0.271-2.266,0.686v8.022c-0.478,0.083-1.143,0.104-1.517,0.104
			c-0.333,0-0.935-0.021-1.351-0.104V212.62c0.27-0.062,0.935-0.104,1.247-0.104c0.291,0,0.894,0.042,1.205,0.104l0.146,0.956
			c0.935-0.686,2.286-1.163,3.492-1.163c2.286,0,3.429,1.413,3.429,3.782V223.448z"/>
		<path style="fill:#1A2A4F;" d="M146.884,223.448c-0.332,0.083-1.039,0.104-1.372,0.104c-0.353,0-1.164-0.041-1.496-0.104v-7.107
			c0-1.122-0.582-1.601-1.517-1.601c-0.748,0-1.601,0.271-2.266,0.686v8.022c-0.478,0.083-1.143,0.104-1.517,0.104
			c-0.333,0-0.935-0.021-1.351-0.104V212.62c0.27-0.062,0.935-0.104,1.247-0.104c0.291,0,0.894,0.042,1.205,0.104l0.146,0.956
			c0.935-0.686,2.286-1.163,3.492-1.163c2.286,0,3.429,1.413,3.429,3.782V223.448z"/>
		<path style="fill:#1A2A4F;" d="M153.933,223.656c-3.138,0-5.133-2.016-5.133-5.591c0-3.554,1.974-5.652,5.133-5.652
			c3.159,0,5.134,2.078,5.134,5.632S157.092,223.656,153.933,223.656z M153.933,214.657c-1.351,0-2.182,0.914-2.182,3.388
			c0,2.473,0.831,3.366,2.182,3.366c1.352,0,2.183-0.894,2.183-3.366C156.115,215.551,155.284,214.657,153.933,214.657z"/>
		<path style="fill:#1A2A4F;" d="M169.523,215.801l-3.117,7.647c-0.208,0.042-0.748,0.104-1.289,0.104
			c-0.561,0-1.164-0.062-1.413-0.104l-2.992-7.689c-0.396-1.039-0.582-2.058-0.582-3.139c0.374-0.062,0.894-0.104,1.33-0.104
			c0.603,0,1.019,0.042,1.351,0.104c0,0.77,0.104,1.621,0.374,2.432l1.912,5.487h0.042l1.974-5.487
			c0.271-0.811,0.374-1.517,0.374-2.432c0.291-0.041,0.915-0.104,1.372-0.104s0.936,0.042,1.268,0.104
			C170.126,213.784,169.918,214.845,169.523,215.801z"/>
		<path style="fill:#1A2A4F;" d="M180.146,220.435c0,0.894,0.021,1.912,0.021,3.014c-0.332,0.083-0.894,0.104-1.246,0.104
			c-0.396,0-0.915-0.041-1.247-0.104c-0.042-0.249-0.083-0.686-0.104-0.956h-0.041c-0.707,0.728-1.912,1.164-3.014,1.164
			c-2.078,0-3.574-1.289-3.574-3.43c0-3.325,2.95-3.886,5.424-3.886c0.166,0,0.562,0.021,0.894,0.041
			c0-0.124-0.021-0.395-0.041-0.498c-0.146-0.853-0.707-1.206-1.912-1.206c-0.936,0-2.245,0.188-3.242,0.437
			c-0.104-0.291-0.166-0.789-0.166-1.164c0-0.312,0.041-0.789,0.124-0.997c1.164-0.354,2.598-0.54,3.782-0.54
			c2.599,0,4.344,1.205,4.344,3.907V220.435z M177.278,218.377c-0.249-0.021-0.582-0.041-0.872-0.041
			c-1.871,0-2.599,0.748-2.599,1.684c0,0.811,0.541,1.371,1.476,1.371c0.687,0,1.455-0.332,1.995-0.811V218.377z"/>
		<path style="fill:#1A2A4F;" d="M189.522,223.24c-0.623,0.25-1.371,0.416-2.577,0.416c-2.348,0-3.512-1.144-3.512-3.43v-5.466
			h-1.787c-0.083-0.312-0.146-0.831-0.146-1.101c0-0.25,0.062-0.707,0.124-0.915l1.809-0.125v-2.784
			c0.229-0.042,0.956-0.083,1.434-0.083c0.52,0,1.164,0.041,1.435,0.083v2.784h2.992c0.083,0.291,0.125,0.707,0.125,0.936
			c0,0.249-0.021,0.915-0.104,1.205h-3.013v5.051c0,1.039,0.415,1.496,1.434,1.496c0.562,0,1.247-0.083,1.725-0.249
			c0.084,0.27,0.188,0.789,0.188,1.268C189.647,222.575,189.605,223.012,189.522,223.24z"/>
		<path style="fill:#1A2A4F;" d="M193.121,211.436c-0.873,0-1.58-0.706-1.58-1.579s0.707-1.579,1.58-1.579s1.579,0.706,1.579,1.579
			S193.994,211.436,193.121,211.436z M194.555,223.448c-0.374,0.083-1.143,0.104-1.476,0.104c-0.499,0-1.039-0.041-1.393-0.104
			V212.62c0.458-0.062,1.019-0.104,1.393-0.104c0.499,0,1.019,0.042,1.476,0.104V223.448z"/>
		<path style="fill:#1A2A4F;" d="M201.788,223.656c-3.138,0-5.133-2.016-5.133-5.591c0-3.554,1.975-5.652,5.133-5.652
			c3.159,0,5.134,2.078,5.134,5.632S204.947,223.656,201.788,223.656z M201.788,214.657c-1.351,0-2.182,0.914-2.182,3.388
			c0,2.473,0.831,3.366,2.182,3.366c1.352,0,2.183-0.894,2.183-3.366C203.971,215.551,203.14,214.657,201.788,214.657z"/>
		<path style="fill:#1A2A4F;" d="M218.397,223.448c-0.332,0.083-1.039,0.104-1.371,0.104c-0.354,0-1.164-0.041-1.497-0.104v-7.107
			c0-1.122-0.581-1.601-1.517-1.601c-0.748,0-1.601,0.271-2.266,0.686v8.022c-0.478,0.083-1.143,0.104-1.517,0.104
			c-0.333,0-0.936-0.021-1.352-0.104V212.62c0.271-0.062,0.936-0.104,1.247-0.104c0.291,0,0.894,0.042,1.206,0.104l0.146,0.956
			c0.935-0.686,2.286-1.163,3.491-1.163c2.286,0,3.429,1.413,3.429,3.782V223.448z"/>
	</g>
	<g>
		<path style="fill:#1A2A4F;" d="M128.69,97.684c-5.888,0-9.008-4.074-9.008-11.077c0-7.003,3.12-11.077,9.008-11.077
			c5.889,0,9.008,4.074,9.008,11.077C137.698,93.609,134.579,97.684,128.69,97.684z M128.69,79.445
			c-2.737,0-4.297,2.101-4.297,7.162c0,5.061,1.56,7.162,4.297,7.162s4.297-2.101,4.297-7.162
			C132.988,81.546,131.428,79.445,128.69,79.445z"/>
		<path style="fill:#1A2A4F;" d="M147.118,87.943c0.478,1.337,0.955,2.833,1.178,4.106h0.063c0.223-1.273,0.668-2.77,1.146-4.106
			l2.356-6.812c0.604-1.75,0.954-3.438,0.986-5.284c0.637-0.095,1.527-0.159,2.26-0.159c0.669,0,1.623,0.064,2.196,0.159
			c0,2.133-0.382,4.17-1.241,6.43l-5.761,15.087c-0.382,0.096-1.273,0.159-2.037,0.159c-0.859,0-1.56-0.063-2.133-0.159
			l-5.666-15.023c-0.859-2.26-1.241-4.361-1.241-6.494c0.573-0.095,1.336-0.159,2.292-0.159c0.732,0,1.655,0.064,2.228,0.159
			c0,1.974,0.35,3.533,0.955,5.284L147.118,87.943z"/>
		<path style="fill:#1A2A4F;" d="M173.758,97.365h-13.464V75.848h13.177c0.128,0.35,0.223,1.019,0.223,1.91
			c0,0.701-0.063,1.305-0.223,1.974h-8.626v4.647h7.289c0.128,0.35,0.224,0.986,0.224,1.878c0,0.7-0.064,1.273-0.224,1.941h-7.289
			v5.284h8.913c0.127,0.35,0.223,1.019,0.223,1.91C173.98,96.092,173.917,96.697,173.758,97.365z"/>
		<path style="fill:#1A2A4F;" d="M193.427,97.333c-0.827,0.127-1.687,0.191-2.674,0.191c-0.891,0-1.782-0.032-2.387-0.159
			l-4.361-7.735h-1.878v7.735c-0.795,0.127-1.464,0.159-2.323,0.159c-0.764,0-1.433-0.032-2.228-0.159V75.848
			c1.464-0.095,4.52-0.159,6.365-0.159c5.411,0,8.117,1.91,8.117,6.875c0,2.642-1.592,5.284-3.82,6.239L193.427,97.333z
			 M184.229,79.413c-0.7,0-1.56,0.032-2.102,0.064v6.366h1.592c2.61,0,3.756-0.955,3.756-3.31
			C187.475,80.177,186.329,79.413,184.229,79.413z"/>
	</g>
	<g>
		<path style="fill:#BAA875;" d="M231.343,225.029c-1.648-1.52-2.653-3.374-2.653-5.59c0-2.253,1.043-4.159,2.653-5.589
			c0.386,0.077,0.837,0.438,1.018,0.695c-1.263,1.34-1.933,3.091-1.933,4.894c0,1.804,0.722,3.504,1.933,4.895
			C232.18,224.592,231.729,224.952,231.343,225.029z"/>
		<path style="fill:#BAA875;" d="M239.226,223.252h-5.499c-0.116-0.271-0.155-0.605-0.155-0.901c0-0.154,0.013-0.348,0.039-0.477
			c0.901-0.914,1.867-1.944,2.717-2.897c0.632-0.709,1.134-1.365,1.134-2.087c0-0.631-0.438-0.991-1.211-0.991
			c-0.566,0-1.468,0.193-2.305,0.593c-0.052-0.22-0.104-0.605-0.104-0.915c0-0.154,0.026-0.463,0.077-0.67
			c0.632-0.27,1.648-0.515,2.641-0.515c1.468,0,2.756,0.683,2.756,2.267c0,1.391-0.747,2.331-2.344,4.005
			c-0.31,0.335-0.645,0.657-0.979,1.005h3.259c0.038,0.167,0.064,0.489,0.064,0.799
			C239.315,222.724,239.276,223.071,239.226,223.252z"/>
		<path style="fill:#BAA875;" d="M243.58,223.381c-2.061,0-3.064-1.52-3.064-4.481c0-2.988,1.043-4.482,3.104-4.482
			c2.048,0,3.052,1.494,3.052,4.482C246.671,221.861,245.628,223.381,243.58,223.381z M243.593,215.924
			c-0.824,0-1.185,0.76-1.185,2.976c0,2.176,0.36,2.975,1.185,2.975s1.186-0.799,1.186-2.975
			C244.778,216.684,244.417,215.924,243.593,215.924z"/>
		<path style="fill:#BAA875;" d="M252.288,223.252c-0.193,0.039-0.541,0.064-0.914,0.064c-0.36,0-0.683-0.025-0.914-0.064v-6.658
			l-1.829,1.211c-0.438-0.399-0.747-0.94-0.863-1.404l3.026-1.854c0.181-0.038,0.554-0.064,0.747-0.064
			c0.219,0,0.618,0.039,0.747,0.064V223.252z"/>
		<path style="fill:#BAA875;" d="M257.339,223.381c-0.695,0-1.726-0.142-2.435-0.387c-0.025-0.09-0.063-0.321-0.063-0.579
			c0-0.283,0.038-0.58,0.115-0.824c0.593,0.18,1.507,0.296,2.229,0.296c0.914,0,1.507-0.489,1.507-1.365
			c0-0.373-0.104-0.708-0.322-0.927c-0.283-0.283-0.76-0.399-1.455-0.399h-1.688v-4.649h4.868c0.039,0.206,0.064,0.528,0.064,0.76
			c0,0.245-0.039,0.67-0.064,0.824h-3.22v1.598h0.566c1.005,0,1.804,0.18,2.37,0.669c0.502,0.438,0.785,1.107,0.785,2.035
			C260.597,222.402,259.09,223.381,257.339,223.381z"/>
		<path style="fill:#BAA875;" d="M263.433,223.381c-0.142,0.025-0.566,0.064-0.837,0.064c-0.258,0-0.773-0.026-0.94-0.064
			l2.769-8.964c0.193-0.038,0.541-0.064,0.863-0.064c0.335,0,0.708,0.026,0.914,0.064L263.433,223.381z"/>
		<path style="fill:#BAA875;" d="M271.779,223.252c-0.193,0.039-0.541,0.064-0.914,0.064c-0.36,0-0.683-0.025-0.914-0.064v-6.658
			l-1.829,1.211c-0.438-0.399-0.747-0.94-0.863-1.404l3.026-1.854c0.181-0.038,0.555-0.064,0.747-0.064
			c0.22,0,0.618,0.039,0.747,0.064V223.252z"/>
		<path style="fill:#BAA875;" d="M277.345,223.381c-2.344,0-3.245-1.648-3.245-4.083c0-2.743,1.018-4.881,3.863-4.881
			c0.49,0,1.172,0.077,1.456,0.181c0.051,0.181,0.064,0.477,0.064,0.618c0,0.245-0.026,0.579-0.091,0.76
			c-0.335-0.052-0.824-0.09-1.197-0.09c-1.249,0-1.996,0.76-2.138,2.163c0.399-0.258,1.081-0.477,1.713-0.477
			c1.545,0,2.523,1.159,2.523,2.718C280.294,222.028,279.148,223.381,277.345,223.381z M277.358,219.002
			c-0.554,0-1.108,0.232-1.378,0.489c-0.014,0.129-0.014,0.297-0.014,0.489c0,0.799,0.283,1.932,1.327,1.932
			c0.721,0,1.095-0.682,1.095-1.532C278.389,219.543,278.054,219.002,277.358,219.002z"/>
		<path style="fill:#BAA875;" d="M283.309,219.439c0-1.803-0.669-3.554-1.932-4.894c0.181-0.257,0.632-0.618,1.018-0.695
			c1.61,1.43,2.653,3.336,2.653,5.589c0,2.216-1.005,4.07-2.653,5.59c-0.386-0.077-0.837-0.438-1.018-0.695
			C282.588,222.943,283.309,221.243,283.309,219.439z"/>
	</g>
</g>
</svg>
