<?xml version="1.0" encoding="utf-8"?>
<!-- Generator: Adobe Illustrator 16.0.0, SVG Export Plug-In . SVG Version: 6.00 Build 0)  -->
<!DOCTYPE svg PUBLIC "-//W3C//DTD SVG 1.0//EN" "http://www.w3.org/TR/2001/REC-SVG-20010904/DTD/svg10.dtd">
<svg version="1.0" xmlns="http://www.w3.org/2000/svg" xmlns:xlink="http://www.w3.org/1999/xlink" x="0px" y="0px" width="300px"
	 height="300px" viewBox="0 0 300 300" style="enable-background:new 0 0 300 300;" xml:space="preserve">
<g id="Icons">
	
		<polyline style="fill:none;stroke:#333333;stroke-width:4;stroke-linecap:round;stroke-linejoin:round;stroke-miterlimit:10;" points="
		190.718,46.534 211.029,46.534 211.029,66.845 	"/>
	
		<polyline style="fill:none;stroke:#333333;stroke-width:4;stroke-linecap:round;stroke-linejoin:round;stroke-miterlimit:10;" points="
		91.601,104.507 136.058,60.049 166.787,90.778 211.029,46.534 	"/>
	
		<rect x="127.194" y="89.033" style="fill:none;stroke:#B4A168;stroke-width:4;stroke-linecap:round;stroke-linejoin:round;stroke-miterlimit:10;" width="17.879" height="69.713"/>
	
		<rect x="157.556" y="112.251" style="fill:none;stroke:#B4A168;stroke-width:4;stroke-linecap:round;stroke-linejoin:round;stroke-miterlimit:10;" width="17.879" height="46.495"/>
	
		<rect x="96.83" y="121.827" style="fill:none;stroke:#B4A168;stroke-width:4;stroke-linecap:round;stroke-linejoin:round;stroke-miterlimit:10;" width="17.879" height="36.919"/>
	
		<rect x="187.92" y="94.726" style="fill:none;stroke:#B4A168;stroke-width:4;stroke-linecap:round;stroke-linejoin:round;stroke-miterlimit:10;" width="17.879" height="64.02"/>
	
		<line style="fill:none;stroke:#CFC19B;stroke-width:2;stroke-linejoin:round;stroke-dasharray:3.735,2.481;" x1="28.443" y1="43.637" x2="28.443" y2="263.974"/>
	
		<line style="fill:none;stroke:#CFC19B;stroke-width:2;stroke-linejoin:round;stroke-dasharray:3.71,2.456;" x1="49.887" y1="282.329" x2="252.576" y2="282.329"/>
	
		<line style="fill:none;stroke:#CFC19B;stroke-width:2;stroke-linejoin:round;stroke-dasharray:3.692,2.438;" x1="274.189" y1="257.631" x2="274.189" y2="40.339"/>
	
		<line style="fill:none;stroke:#CFC19B;stroke-width:2;stroke-linejoin:round;stroke-dasharray:3.664,2.41;" x1="249.602" y1="18.773" x2="49.933" y2="18.773"/>
	<path style="fill:none;stroke:#CFC19B;stroke-width:2;stroke-linejoin:round;" d="M46.84,18.776h-4.704c0,0-2.915,0-6.056,1.341
		 M266.581,19.919c-1.646-0.712-3.652-1.143-6.086-1.143h-4.703 M274.189,37.209v-4.742c0,0,0-2.914-1.347-6.054 M273.041,274.721
		c0.712-1.646,1.148-3.649,1.148-6.084v-4.743 M255.731,282.329h4.764c0,0,2.912,0,6.055-1.344 M34.029,281.381
		c1.279,0.587,2.853,0.948,4.786,0.948h4.765 M28.443,267.158v4.799c0,0,0,2.317,1.097,4.762 M29.589,26.383
		c-0.715,1.645-1.146,3.649-1.146,6.084v4.795"/>
</g>
<g id="Text" style="display:none;">
	<text transform="matrix(1 0 0 1 98.8267 193.5879)" style="display:inline;"><tspan x="0" y="0" style="fill:#B4A168; font-family:'FSMatthew-Bold'; font-size:28.5187;">6</tspan><tspan x="15.371" y="0" style="fill:#B4A168; font-family:'FSMatthew-Bold'; font-size:28.5187;">T</tspan><tspan x="30.686" y="0" style="fill:#B4A168; font-family:'FSMatthew-Bold'; font-size:28.5187;">H</tspan></text>
	<text transform="matrix(1 0 0 1 148.3354 193.5879)" style="display:inline;"><tspan x="0" y="0" style="fill:#333333; font-family:'FSMatthew-Bold'; font-size:28.5187;"> </tspan><tspan x="6.16" y="0" style="fill:#333333; font-family:'FSMatthew-Bold'; font-size:28.5187; letter-spacing:-1;">F</tspan><tspan x="20.077" y="0" style="fill:#333333; font-family:'FSMatthew-Bold'; font-size:28.5187;">O</tspan><tspan x="38.471" y="0" style="fill:#333333; font-family:'FSMatthew-Bold'; font-size:28.5187;">R </tspan></text>
	<text transform="matrix(1 0 0 1 95.2202 220.3594)" style="display:inline;"><tspan x="0" y="0" style="fill:#333333; font-family:'FSMatthew-Bold'; font-size:28.5187;">F</tspan><tspan x="14.943" y="0" style="fill:#333333; font-family:'FSMatthew-Bold'; font-size:28.5187;">I</tspan><tspan x="23.128" y="0" style="fill:#333333; font-family:'FSMatthew-Bold'; font-size:28.5187;">NAN</tspan><tspan x="80.536" y="0" style="fill:#333333; font-family:'FSMatthew-Bold'; font-size:28.5187;">C</tspan><tspan x="96.819" y="0" style="fill:#333333; font-family:'FSMatthew-Bold'; font-size:28.5187;">E</tspan></text>
	<text transform="matrix(1 0 0 1 76.4546 247.1348)" style="display:inline;"><tspan x="0" y="0" style="fill:#333333; font-family:'FSMatthew-Bold'; font-size:28.5187;">/ </tspan><tspan x="17.795" y="0" style="fill:#333333; font-family:'FSMatthew-Bold'; font-size:28.5187; letter-spacing:-1;">F</tspan><tspan x="31.712" y="0" style="fill:#333333; font-family:'FSMatthew-Bold'; font-size:28.5187;">OOD AN</tspan><tspan x="131.155" y="0" style="fill:#333333; font-family:'FSMatthew-Bold'; font-size:28.5187;">D </tspan></text>
	<text transform="matrix(1 0 0 1 84.896 273.9062)" style="display:inline;"><tspan x="0" y="0" style="fill:#333333; font-family:'FSMatthew-Bold'; font-size:28.5187;">B</tspan><tspan x="16.484" y="0" style="fill:#333333; font-family:'FSMatthew-Bold'; font-size:28.5187;">E</tspan><tspan x="31.969" y="0" style="fill:#333333; font-family:'FSMatthew-Bold'; font-size:28.5187;">V</tspan><tspan x="48.995" y="0" style="fill:#333333; font-family:'FSMatthew-Bold'; font-size:28.5187;">E</tspan><tspan x="64.195" y="0" style="fill:#333333; font-family:'FSMatthew-Bold'; font-size:28.5187;">R</tspan><tspan x="81.535" y="0" style="fill:#333333; font-family:'FSMatthew-Bold'; font-size:28.5187;">A</tspan><tspan x="99.301" y="0" style="fill:#333333; font-family:'FSMatthew-Bold'; font-size:28.5187;">G</tspan><tspan x="117.411" y="0" style="fill:#333333; font-family:'FSMatthew-Bold'; font-size:28.5187;">E</tspan></text>
</g>
<g id="Text_Flat">
	<g>
		<path style="fill:#B4A168;" d="M106.955,193.873c-5.19,0-7.187-3.65-7.187-9.04c0-6.075,2.253-10.809,8.556-10.809
			c1.084,0,2.595,0.171,3.223,0.399c0.114,0.398,0.143,1.055,0.143,1.368c0,0.542-0.057,1.283-0.2,1.683
			c-0.741-0.114-1.825-0.199-2.652-0.199c-2.767,0-4.42,1.683-4.734,4.791c0.884-0.57,2.396-1.056,3.793-1.056
			c3.422,0,5.59,2.567,5.59,6.018C113.485,190.879,110.947,193.873,106.955,193.873z M106.983,184.177
			c-1.226,0-2.453,0.514-3.051,1.084c-0.029,0.285-0.029,0.655-0.029,1.083c0,1.769,0.627,4.278,2.938,4.278
			c1.597,0,2.424-1.512,2.424-3.394C109.265,185.375,108.523,184.177,106.983,184.177z"/>
		<path style="fill:#B4A168;" d="M129.142,177.788h-5.105v15.8c-0.542,0.086-1.312,0.143-2.025,0.143s-1.483-0.057-2.053-0.143
			v-15.8h-5.105c-0.114-0.37-0.199-1.254-0.199-1.739c0-0.484,0.114-1.369,0.228-1.739h14.259c0.114,0.37,0.2,1.255,0.2,1.739
			C129.341,176.534,129.256,177.418,129.142,177.788z"/>
		<path style="fill:#B4A168;" d="M146.509,193.588c-0.513,0.086-1.226,0.143-2.025,0.143c-0.798,0-1.511-0.057-2.053-0.143v-7.985
			h-6.702v7.985c-0.542,0.086-1.169,0.143-2.025,0.143c-0.77,0-1.512-0.057-2.054-0.143V174.31c0.542-0.086,1.341-0.143,2.054-0.143
			c0.798,0,1.511,0.057,2.025,0.143v7.813h6.702v-7.813c0.627-0.086,1.34-0.143,2.053-0.143c0.685,0,1.54,0.057,2.025,0.143V193.588
			z"/>
	</g>
	<g>
		<path style="fill:#333333;" d="M168.298,177.788h-7.586v4.164h6.389c0.114,0.313,0.199,0.884,0.199,1.683
			c0,0.628-0.057,1.141-0.199,1.74h-6.389v8.213c-0.542,0.086-1.169,0.143-2.024,0.143c-0.771,0-1.512-0.057-2.054-0.143V174.31
			h11.664c0.114,0.313,0.2,0.912,0.2,1.711C168.498,176.647,168.44,177.189,168.298,177.788z"/>
		<path style="fill:#333333;" d="M177.737,193.873c-5.275,0-8.07-3.65-8.07-9.925c0-6.273,2.795-9.924,8.07-9.924
			c5.276,0,8.071,3.65,8.071,9.924C185.809,190.223,183.014,193.873,177.737,193.873z M177.737,177.532
			c-2.452,0-3.85,1.882-3.85,6.416c0,4.535,1.397,6.417,3.85,6.417c2.453,0,3.851-1.882,3.851-6.417
			C181.588,179.414,180.19,177.532,177.737,177.532z"/>
		<path style="fill:#333333;" d="M203.147,193.56c-0.741,0.114-1.511,0.171-2.396,0.171c-0.798,0-1.597-0.028-2.139-0.143
			l-3.907-6.93h-1.683v6.93c-0.713,0.114-1.312,0.143-2.082,0.143c-0.684,0-1.283-0.028-1.996-0.143V174.31
			c1.312-0.086,4.05-0.143,5.704-0.143c4.848,0,7.272,1.711,7.272,6.16c0,2.366-1.426,4.733-3.423,5.589L203.147,193.56z
			 M194.906,177.503c-0.628,0-1.397,0.029-1.883,0.058v5.703h1.426c2.339,0,3.365-0.855,3.365-2.966
			S196.788,177.503,194.906,177.503z"/>
	</g>
	<g>
		<path style="fill:#333333;" d="M109.023,204.56h-7.586v4.164h6.388c0.114,0.313,0.199,0.884,0.199,1.683
			c0,0.628-0.057,1.141-0.199,1.74h-6.388v8.213c-0.542,0.086-1.169,0.143-2.025,0.143c-0.77,0-1.512-0.057-2.054-0.143v-19.278
			h11.665c0.114,0.313,0.199,0.912,0.199,1.711C109.223,203.419,109.166,203.961,109.023,204.56z"/>
		<path style="fill:#333333;" d="M116.438,220.359c-0.542,0.086-1.198,0.143-2.053,0.143c-0.77,0-1.483-0.057-2.025-0.143v-19.278
			c0.542-0.086,1.34-0.143,2.054-0.143c0.798,0,1.511,0.057,2.024,0.143V220.359z"/>
		<path style="fill:#333333;" d="M135.945,220.359c-0.285,0.057-0.97,0.114-1.455,0.114s-0.97-0.028-1.426-0.114l-8.87-12.349
			v12.349c-0.228,0.057-1.083,0.143-1.882,0.143c-0.656,0-1.426-0.086-1.825-0.143v-19.278c0.457-0.086,0.999-0.114,1.512-0.114
			c0.542,0,1.112,0.057,1.54,0.114l8.698,12.12v-12.12c0.57-0.086,1.312-0.143,1.854-0.143c0.542,0,1.34,0.057,1.854,0.143V220.359z
			"/>
		<path style="fill:#333333;" d="M156.135,220.359c-0.37,0.086-1.255,0.143-2.195,0.143c-0.742,0-1.598-0.086-1.968-0.143
			l-1.426-3.907h-6.844l-1.34,3.907c-0.627,0.086-1.369,0.143-2.11,0.143c-0.742,0-1.597-0.057-2.025-0.143l6.73-19.278
			c0.399-0.086,1.34-0.143,1.968-0.143c0.77,0,1.683,0.057,1.996,0.143L156.135,220.359z M149.319,213.059l-1.683-5.447
			c-0.2-0.627-0.399-1.426-0.57-2.31h-0.057c-0.143,0.884-0.371,1.683-0.57,2.31l-1.597,5.447H149.319z"/>
		<path style="fill:#333333;" d="M173.873,220.359c-0.285,0.057-0.97,0.114-1.454,0.114s-0.97-0.028-1.426-0.114l-8.869-12.349
			v12.349c-0.229,0.057-1.084,0.143-1.883,0.143c-0.655,0-1.426-0.086-1.825-0.143v-19.278c0.456-0.086,0.998-0.114,1.512-0.114
			c0.542,0,1.112,0.057,1.54,0.114l8.698,12.12v-12.12c0.57-0.086,1.312-0.143,1.854-0.143s1.341,0.057,1.854,0.143V220.359z"/>
		<path style="fill:#333333;" d="M191.042,205.102c-1.369-0.428-3.08-0.741-4.449-0.741c-3.251,0-5.361,2.31-5.361,6.445
			c0,3.793,1.654,6.274,5.333,6.274c1.369,0,2.909-0.285,4.277-0.713c0.2,0.513,0.343,1.312,0.343,1.91
			c0,0.485-0.028,1.084-0.086,1.341c-1.426,0.655-3.251,1.026-4.934,1.026c-6.132,0-9.154-3.707-9.154-9.753
			c0-5.875,3.251-10.096,9.325-10.096c1.483,0,3.423,0.37,4.791,0.97c0.086,0.285,0.114,0.912,0.114,1.283
			C191.241,203.933,191.127,204.76,191.042,205.102z"/>
		<path style="fill:#333333;" d="M206.241,220.359h-12.063v-19.278h11.807c0.114,0.313,0.2,0.912,0.2,1.711
			c0,0.627-0.058,1.169-0.2,1.768h-7.729v4.164h6.531c0.114,0.313,0.199,0.884,0.199,1.683c0,0.628-0.057,1.141-0.199,1.74h-6.531
			v4.733h7.985c0.114,0.313,0.2,0.913,0.2,1.711C206.441,219.219,206.384,219.761,206.241,220.359z"/>
	</g>
	<g>
		<path style="fill:#333333;" d="M81.303,247.42c-0.313,0.057-1.255,0.143-1.854,0.143c-0.57,0-1.711-0.057-2.082-0.143
			l6.131-19.849c0.428-0.086,1.198-0.143,1.911-0.143c0.741,0,1.568,0.057,2.024,0.143L81.303,247.42z"/>
		<path style="fill:#333333;" d="M108.053,231.335h-7.586v4.164h6.388c0.114,0.313,0.199,0.884,0.199,1.683
			c0,0.628-0.057,1.141-0.199,1.74h-6.388v8.213c-0.542,0.086-1.169,0.143-2.025,0.143c-0.77,0-1.512-0.057-2.054-0.143v-19.278
			h11.665c0.114,0.313,0.199,0.912,0.199,1.711C108.252,230.194,108.196,230.736,108.053,231.335z"/>
		<path style="fill:#333333;" d="M117.492,247.42c-5.276,0-8.071-3.65-8.071-9.925c0-6.273,2.795-9.924,8.071-9.924
			s8.071,3.65,8.071,9.924C125.563,243.77,122.768,247.42,117.492,247.42z M117.492,231.079c-2.453,0-3.85,1.882-3.85,6.416
			c0,4.535,1.397,6.417,3.85,6.417s3.85-1.882,3.85-6.417C121.342,232.961,119.945,231.079,117.492,231.079z"/>
		<path style="fill:#333333;" d="M135.887,247.42c-5.276,0-8.071-3.65-8.071-9.925c0-6.273,2.795-9.924,8.071-9.924
			s8.071,3.65,8.071,9.924C143.958,243.77,141.163,247.42,135.887,247.42z M135.887,231.079c-2.453,0-3.85,1.882-3.85,6.416
			c0,4.535,1.397,6.417,3.85,6.417s3.85-1.882,3.85-6.417C139.737,232.961,138.339,231.079,135.887,231.079z"/>
		<path style="fill:#333333;" d="M159.5,245.424c-1.769,1.369-4.05,1.854-7.188,1.854c-1.597,0-4.306-0.057-5.219-0.143v-19.278
			c1.397-0.086,4.307-0.143,5.932-0.143c6.274,0,9.497,2.652,9.497,9.554C162.522,240.832,161.581,243.798,159.5,245.424z
			 M153.111,231.079c-0.77,0-1.625,0.028-1.939,0.057v12.69c0.371,0.029,1.227,0.058,2.11,0.058c3.594,0,5.02-2.281,5.02-6.674
			C158.302,232.391,156.818,231.079,153.111,231.079z"/>
		<path style="fill:#333333;" d="M187.989,247.135c-0.37,0.086-1.255,0.143-2.195,0.143c-0.742,0-1.598-0.086-1.968-0.143
			l-1.426-3.907h-6.845l-1.341,3.907c-0.627,0.086-1.368,0.143-2.11,0.143c-0.741,0-1.597-0.057-2.024-0.143l6.73-19.278
			c0.399-0.086,1.34-0.143,1.968-0.143c0.77,0,1.683,0.057,1.996,0.143L187.989,247.135z M181.174,239.834l-1.683-5.447
			c-0.2-0.627-0.399-1.426-0.57-2.31h-0.058c-0.143,0.884-0.37,1.683-0.57,2.31l-1.597,5.447H181.174z"/>
		<path style="fill:#333333;" d="M205.728,247.135c-0.285,0.057-0.97,0.114-1.454,0.114s-0.97-0.028-1.426-0.114l-8.869-12.349
			v12.349c-0.229,0.057-1.084,0.143-1.883,0.143c-0.655,0-1.426-0.086-1.825-0.143v-19.278c0.456-0.086,0.998-0.114,1.512-0.114
			c0.542,0,1.112,0.057,1.54,0.114l8.698,12.12v-12.12c0.57-0.086,1.312-0.143,1.854-0.143s1.341,0.057,1.854,0.143V247.135z"/>
		<path style="fill:#333333;" d="M222.154,245.424c-1.769,1.369-4.05,1.854-7.188,1.854c-1.597,0-4.306-0.057-5.219-0.143v-19.278
			c1.397-0.086,4.307-0.143,5.932-0.143c6.274,0,9.497,2.652,9.497,9.554C225.177,240.832,224.235,243.798,222.154,245.424z
			 M215.766,231.079c-0.77,0-1.625,0.028-1.939,0.057v12.69c0.371,0.029,1.227,0.058,2.11,0.058c3.594,0,5.02-2.281,5.02-6.674
			C220.956,232.391,219.473,231.079,215.766,231.079z"/>
	</g>
	<g>
		<path style="fill:#333333;" d="M93.052,274.049c-2.025,0-3.993-0.057-6.018-0.171v-19.222c1.654-0.114,3.85-0.171,5.333-0.171
			c4.392,0,7.073,1.34,7.073,4.962c0,1.825-0.77,3.194-2.566,3.992c2.396,0.571,3.936,2.311,3.936,4.649
			C100.81,272.537,97.587,274.049,93.052,274.049z M92.653,257.851c-0.514,0-1.084,0.028-1.54,0.057v4.335h1.597
			c1.854,0,2.738-0.599,2.738-2.339C95.448,258.106,94.05,257.851,92.653,257.851z M93.109,265.437h-1.996v5.19
			c0.542,0.028,1.34,0.057,1.882,0.057c2.539,0,3.765-0.713,3.765-2.624C96.76,266.092,95.705,265.437,93.109,265.437z"/>
		<path style="fill:#333333;" d="M115.582,273.906h-12.063v-19.278h11.807c0.114,0.313,0.2,0.912,0.2,1.711
			c0,0.627-0.057,1.169-0.2,1.768h-7.729v4.164h6.531c0.114,0.313,0.199,0.884,0.199,1.683c0,0.628-0.057,1.141-0.199,1.74h-6.531
			v4.733h7.985c0.114,0.313,0.2,0.913,0.2,1.711C115.782,272.766,115.725,273.308,115.582,273.906z"/>
		<path style="fill:#333333;" d="M124.479,265.465c0.428,1.197,0.856,2.538,1.056,3.679h0.057c0.2-1.141,0.599-2.481,1.027-3.679
			l2.11-6.104c0.542-1.568,0.855-3.08,0.884-4.733c0.57-0.086,1.369-0.143,2.024-0.143c0.599,0,1.455,0.057,1.968,0.143
			c0,1.91-0.342,3.735-1.112,5.761l-5.162,13.518c-0.342,0.086-1.141,0.143-1.825,0.143c-0.77,0-1.397-0.057-1.911-0.143
			l-5.076-13.461c-0.77-2.024-1.112-3.907-1.112-5.817c0.513-0.086,1.198-0.143,2.053-0.143c0.656,0,1.483,0.057,1.996,0.143
			c0,1.768,0.314,3.165,0.856,4.733L124.479,265.465z"/>
		<path style="fill:#333333;" d="M148.093,273.906h-12.063v-19.278h11.807c0.114,0.313,0.2,0.912,0.2,1.711
			c0,0.627-0.057,1.169-0.2,1.768h-7.729v4.164h6.531c0.114,0.313,0.199,0.884,0.199,1.683c0,0.628-0.057,1.141-0.199,1.74h-6.531
			v4.733h7.985c0.114,0.313,0.2,0.913,0.2,1.711C148.292,272.766,148.235,273.308,148.093,273.906z"/>
		<path style="fill:#333333;" d="M165.433,273.878c-0.741,0.114-1.512,0.171-2.396,0.171c-0.799,0-1.598-0.028-2.139-0.143
			l-3.907-6.93h-1.683v6.93c-0.713,0.114-1.312,0.143-2.082,0.143c-0.685,0-1.283-0.028-1.996-0.143v-19.278
			c1.312-0.086,4.05-0.143,5.703-0.143c4.849,0,7.272,1.711,7.272,6.16c0,2.366-1.426,4.733-3.422,5.589L165.433,273.878z
			 M157.19,257.821c-0.627,0-1.397,0.029-1.882,0.058v5.703h1.426c2.339,0,3.365-0.855,3.365-2.966S159.073,257.821,157.19,257.821z
			"/>
		<path style="fill:#333333;" d="M184.739,273.906c-0.37,0.086-1.255,0.143-2.195,0.143c-0.742,0-1.598-0.086-1.968-0.143
			l-1.426-3.907h-6.845l-1.341,3.907c-0.627,0.086-1.368,0.143-2.11,0.143c-0.741,0-1.597-0.057-2.024-0.143l6.73-19.278
			c0.399-0.086,1.34-0.143,1.968-0.143c0.77,0,1.683,0.057,1.996,0.143L184.739,273.906z M177.924,266.605l-1.683-5.447
			c-0.2-0.627-0.399-1.426-0.57-2.31h-0.058c-0.143,0.884-0.37,1.683-0.57,2.31l-1.597,5.447H177.924z"/>
		<path style="fill:#333333;" d="M200.853,273.165c-1.483,0.655-3.907,1.026-6.16,1.026c-6.417,0-9.24-4.106-9.24-9.725
			c0-5.875,3.479-10.124,9.668-10.124c1.768,0,3.793,0.37,4.99,0.884c0.086,0.456,0.143,1.141,0.143,1.454
			c0,0.628-0.113,1.312-0.228,1.74c-1.227-0.399-2.995-0.656-4.62-0.656c-4.106,0-5.732,2.994-5.732,6.645
			c0,3.879,1.711,6.36,5.162,6.36c0.77,0,1.512-0.058,1.939-0.172v-6.159c0.541-0.086,1.283-0.143,1.996-0.143
			c0.798,0,1.568,0.057,2.082,0.143V273.165z"/>
		<path style="fill:#333333;" d="M216.509,273.906h-12.063v-19.278h11.807c0.114,0.313,0.2,0.912,0.2,1.711
			c0,0.627-0.058,1.169-0.2,1.768h-7.729v4.164h6.531c0.114,0.313,0.199,0.884,0.199,1.683c0,0.628-0.057,1.141-0.199,1.74h-6.531
			v4.733h7.985c0.114,0.313,0.2,0.913,0.2,1.711C216.709,272.766,216.651,273.308,216.509,273.906z"/>
	</g>
</g>
</svg>
