<?xml version="1.0" encoding="utf-8"?>
<!-- Generator: Adobe Illustrator 16.0.0, SVG Export Plug-In . SVG Version: 6.00 Build 0)  -->
<!DOCTYPE svg PUBLIC "-//W3C//DTD SVG 1.0//EN" "http://www.w3.org/TR/2001/REC-SVG-20010904/DTD/svg10.dtd">
<svg version="1.0" xmlns="http://www.w3.org/2000/svg" xmlns:xlink="http://www.w3.org/1999/xlink" x="0px" y="0px" width="300px"
	 height="300px" viewBox="0 0 300 300" style="enable-background:new 0 0 300 300;" xml:space="preserve">
<g id="Icon">
	<path style="fill:#B4A168;" d="M61.472,76.501c3.051,0,5.999-0.2,8.79-0.571V44.882c-2.792-0.373-5.739-0.573-8.79-0.573
		c-17.416,0-31.537,6.502-31.537,14.521v3.15C29.935,70,44.056,76.501,61.472,76.501"/>
	<path style="fill:#B4A168;" d="M61.472,92.715c3.051,0,5.999-0.2,8.79-0.572v-9.102c-2.792,0.372-5.739,0.575-8.79,0.575
		c-15.203,0-27.893-4.953-30.873-11.547c-0.433,0.959-0.664,1.956-0.664,2.973v3.151C29.935,86.214,44.056,92.715,61.472,92.715"/>
	<path style="fill:#B4A168;" d="M70.261,99.964v-0.709c-2.791,0.371-5.739,0.576-8.791,0.576c-15.203,0-27.891-4.955-30.872-11.549
		c-0.435,0.961-0.664,1.956-0.664,2.976v3.148c0,8.021,14.12,14.523,31.536,14.523c3.485,0,6.835-0.263,9.968-0.742
		c-0.778-1.612-1.178-3.312-1.178-5.074V99.964z"/>
	<path style="fill:#B4A168;" d="M106.944,19.714c-17.417,0-31.538,6.5-31.538,14.522v3.15c0,8.019,14.121,14.52,31.538,14.52
		c17.417,0,31.536-6.5,31.536-14.52v-3.15C138.479,26.214,124.36,19.714,106.944,19.714"/>
	<path style="fill:#B4A168;" d="M106.944,59.022c-15.203,0-27.893-4.955-30.874-11.547c-0.435,0.958-0.664,1.955-0.664,2.972v3.15
		c0,8.022,14.121,14.523,31.538,14.523c17.417,0,31.536-6.501,31.536-14.523v-3.15c0-1.018-0.229-2.014-0.663-2.972
		C134.835,54.068,122.146,59.022,106.944,59.022"/>
	<path style="fill:#B4A168;" d="M106.944,75.234c-15.203,0-27.893-4.954-30.874-11.547c-0.435,0.96-0.664,1.955-0.664,2.974v3.149
		c0,8.022,14.121,14.524,31.538,14.524c17.417,0,31.536-6.502,31.536-14.524v-3.149c0-1.02-0.229-2.014-0.663-2.974
		C134.835,70.28,122.146,75.234,106.944,75.234"/>
	<path style="fill:#B4A168;" d="M106.944,92.323c-15.203,0-27.893-4.954-30.874-11.549c-0.435,0.961-0.664,1.957-0.664,2.976v3.15
		c0,8.021,14.121,14.521,31.538,14.521c17.417,0,31.536-6.5,31.536-14.521v-3.15c0-1.02-0.229-2.015-0.663-2.976
		C134.835,87.369,122.146,92.323,106.944,92.323"/>
	<path style="fill:#B4A168;" d="M106.944,108.536c-15.203,0-27.893-4.953-30.874-11.547c-0.435,0.961-0.664,1.956-0.664,2.975v3.149
		c0,8.021,14.121,14.521,31.538,14.521c17.417,0,31.536-6.501,31.536-14.521v-3.149c0-1.02-0.229-2.016-0.663-2.975
		C134.835,103.583,122.146,108.536,106.944,108.536"/>
</g>
<g id="Text" style="display:none;">
	<text transform="matrix(1 0 0 1 25.3291 171.2402)" style="display:inline;"><tspan x="0" y="0" style="fill:#BA5D90; font-family:'FSMatthew-Bold'; font-size:65.7307;">BEL</tspan><tspan x="107.14" y="0" style="fill:#BA5D90; font-family:'FSMatthew-Bold'; font-size:65.7307; letter-spacing:-3;">F</tspan><tspan x="138.559" y="0" style="fill:#BA5D90; font-family:'FSMatthew-Bold'; font-size:65.7307;">A</tspan><tspan x="181.086" y="0" style="fill:#BA5D90; font-family:'FSMatthew-Bold'; font-size:65.7307; letter-spacing:-2;">S</tspan><tspan x="214.279" y="0" style="fill:#BA5D90; font-family:'FSMatthew-Bold'; font-size:65.7307;">T</tspan></text>
	<text transform="matrix(1 0 0 1 30.1885 199.2539)" style="display:inline;"><tspan x="0" y="0" style="fill:#1A2A4F; font-family:'FSMatthew-Bold'; font-size:21.4107;">is one </tspan><tspan x="60.891" y="0" style="fill:#1A2A4F; font-family:'FSMatthew-Bold'; font-size:21.4107;">o</tspan><tspan x="72.688" y="0" style="fill:#1A2A4F; font-family:'FSMatthew-Bold'; font-size:21.4107;">f the </tspan><tspan x="124.157" y="0" style="fill:#1A2A4F; font-family:'FSMatthew-Bold'; font-size:21.4107;">t</tspan><tspan x="133.235" y="0" style="fill:#1A2A4F; font-family:'FSMatthew-Bold'; font-size:21.4107;">op 5 mo</tspan><tspan x="210.013" y="0" style="fill:#1A2A4F; font-family:'FSMatthew-Bold'; font-size:21.4107;">s</tspan><tspan x="219.348" y="0" style="fill:#1A2A4F; font-family:'FSMatthew-Bold'; font-size:21.4107;">t </tspan></text>
	<path style="display:inline;fill:#1A2A4F;" d="M40.405,220.851c0,0.921,0.021,1.972,0.021,3.106
		c-0.343,0.085-0.921,0.107-1.285,0.107c-0.408,0-0.942-0.044-1.286-0.107c-0.043-0.257-0.085-0.707-0.107-0.985h-0.043
		c-0.729,0.751-1.97,1.2-3.107,1.2c-2.142,0-3.684-1.328-3.684-3.534c0-3.429,3.042-4.008,5.591-4.008
		c0.171,0,0.579,0.021,0.921,0.044c0-0.13-0.021-0.407-0.043-0.515c-0.149-0.879-0.727-1.242-1.97-1.242
		c-0.964,0-2.313,0.193-3.341,0.45c-0.107-0.3-0.172-0.813-0.172-1.2c0-0.322,0.043-0.814,0.129-1.028
		c1.199-0.363,2.677-0.557,3.899-0.557c2.677,0,4.477,1.241,4.477,4.026V220.851z M37.449,218.73
		c-0.257-0.021-0.6-0.043-0.899-0.043c-1.929,0-2.678,0.771-2.678,1.734c0,0.835,0.557,1.415,1.521,1.415
		c0.707,0,1.5-0.343,2.057-0.836V218.73z M46.976,215.003v8.954c-0.3,0.063-1.007,0.107-1.457,0.107
		c-0.364,0-1.199-0.044-1.499-0.107v-8.954h-1.821c-0.086-0.259-0.149-0.771-0.149-1.029c0-0.363,0.063-0.813,0.17-1.05l1.8-0.127
		v-0.45c0-2.828,1.606-4.285,4.049-4.285c0.707,0,1.585,0.15,2.228,0.386c0.085,0.257,0.107,0.644,0.107,0.943
		c0,0.319-0.086,0.749-0.214,1.092c-0.471-0.15-1.029-0.236-1.585-0.236c-1.071,0-1.628,0.665-1.628,2.037v0.514h3.921v-0.322
		c0-2.869,1.478-4.413,4.284-4.413c0.664,0,1.607,0.15,2.25,0.386c0.086,0.257,0.107,0.644,0.107,0.943
		c0,0.319-0.086,0.749-0.214,1.092c-0.471-0.15-1.028-0.236-1.585-0.236c-1.243,0-1.886,0.665-1.886,2.101v0.45h2.742
		c0.107,0.363,0.128,0.856,0.128,1.092c0,0.257-0.042,0.729-0.106,1.114h-2.764v8.954c-0.3,0.063-1.007,0.107-1.457,0.107
		c-0.363,0-1.199-0.044-1.499-0.107v-8.954H46.976z M62.712,224.172c-3.234,0-5.291-2.079-5.291-5.764
		c0-3.664,2.035-5.826,5.291-5.826c3.257,0,5.292,2.142,5.292,5.805C68.004,222.051,65.969,224.172,62.712,224.172z M62.712,214.896
		c-1.393,0-2.249,0.942-2.249,3.491c0,2.551,0.856,3.472,2.249,3.472s2.249-0.921,2.249-3.472
		C64.961,215.816,64.105,214.896,62.712,214.896z M76.353,215.067c-1.114,0.171-2.314,0.557-3.385,1.113v7.776
		c-0.3,0.063-0.943,0.107-1.457,0.107c-0.514,0-1.264-0.044-1.5-0.107v-11.16c0.321-0.043,0.857-0.107,1.285-0.107
		c0.365,0,0.943,0.042,1.243,0.107l0.17,1.37c0.793-0.707,2.228-1.478,3.621-1.585c0.043,0.172,0.086,0.792,0.086,1.241
		C76.417,214.252,76.395,214.766,76.353,215.067z M87.423,223.957c-0.342,0.063-0.921,0.107-1.371,0.107
		c-0.407,0-0.878-0.044-1.178-0.107l-0.085-0.985c-0.771,0.751-1.757,1.2-2.914,1.2c-3.192,0-4.563-2.55-4.563-5.613
		c0-3.299,1.479-5.977,4.885-5.977c0.835,0,1.8,0.257,2.271,0.557v-4.799c0.385-0.062,1.029-0.106,1.499-0.106
		c0.579,0,1.029,0.064,1.458,0.106V223.957z M84.467,215.346c-0.515-0.235-1.179-0.365-1.735-0.365
		c-1.735,0-2.378,1.543-2.378,3.406c0,1.564,0.386,3.343,2.121,3.343c0.835,0,1.478-0.343,1.993-0.771V215.346z M98.92,220.851
		c0,0.921,0.022,1.972,0.022,3.106c-0.343,0.085-0.921,0.107-1.285,0.107c-0.407,0-0.943-0.044-1.286-0.107
		c-0.043-0.257-0.085-0.707-0.107-0.985h-0.043c-0.729,0.751-1.971,1.2-3.106,1.2c-2.142,0-3.684-1.328-3.684-3.534
		c0-3.429,3.042-4.008,5.591-4.008c0.171,0,0.579,0.021,0.921,0.044c0-0.13-0.021-0.407-0.042-0.515
		c-0.15-0.879-0.728-1.242-1.971-1.242c-0.964,0-2.313,0.193-3.341,0.45c-0.107-0.3-0.172-0.813-0.172-1.2
		c0-0.322,0.044-0.814,0.129-1.028c1.199-0.363,2.678-0.557,3.899-0.557c2.677,0,4.477,1.241,4.477,4.026V220.851z M95.964,218.73
		c-0.257-0.021-0.6-0.043-0.9-0.043c-1.928,0-2.678,0.771-2.678,1.734c0,0.835,0.557,1.415,1.521,1.415
		c0.707,0,1.5-0.343,2.057-0.836V218.73z M105.727,224.172c-1.028,0-2.785-0.13-4.178-0.666V208.34
		c0.322-0.062,0.921-0.106,1.436-0.106c0.643,0,1.285,0.064,1.521,0.106v4.95c0.665-0.366,1.671-0.708,2.614-0.708
		c3.341,0,4.542,2.678,4.542,5.354C111.661,221.622,109.732,224.172,105.727,224.172z M106.54,214.98
		c-0.707,0-1.478,0.235-2.035,0.602v6.125c0.322,0.086,0.9,0.151,1.479,0.151c1.885,0,2.635-1.328,2.635-3.75
		C108.618,216.438,108.125,214.98,106.54,214.98z M116.667,223.957c-0.386,0.085-1.178,0.107-1.521,0.107
		c-0.514,0-1.071-0.044-1.435-0.107V208.34c0.471-0.062,1.05-0.106,1.435-0.106c0.515,0,1.114,0.044,1.521,0.106V223.957z
		 M128.617,219.415h-6.77c0.043,1.394,1.006,2.422,2.87,2.422c1.007,0,2.036-0.13,2.914-0.365c0.129,0.579,0.215,1.221,0.215,1.801
		c0,0.085,0,0.191-0.021,0.428c-1.093,0.32-2.229,0.472-3.342,0.472c-4.07,0-5.762-2.335-5.762-5.742
		c0-2.977,1.67-5.848,5.291-5.848c3.427,0,4.67,2.528,4.67,5.313C128.681,218.28,128.681,218.858,128.617,219.415z M125.725,217.295
		c0-1.35-0.364-2.485-1.757-2.485c-1.328,0-2.036,1.05-2.121,2.485H125.725z M143.433,213.996c0,0.471-0.065,0.984-0.214,1.436
		c-0.707-0.278-1.629-0.451-2.506-0.451c-1.671,0-2.807,1.072-2.807,3.471c0,2.1,0.964,3.32,2.828,3.32
		c0.965,0,1.886-0.172,2.571-0.407c0.129,0.473,0.193,1.051,0.193,1.501c0,0.3,0,0.515-0.022,0.706
		c-0.856,0.386-1.992,0.601-3.062,0.601c-3.707,0-5.549-2.164-5.549-5.678c0-3.642,1.928-5.912,5.677-5.912
		c1.049,0,2.078,0.215,2.807,0.557C143.411,213.374,143.433,213.675,143.433,213.996z M147.305,211.574
		c-0.899,0-1.628-0.729-1.628-1.628c0-0.898,0.729-1.628,1.628-1.628c0.9,0,1.628,0.729,1.628,1.628
		C148.933,210.846,148.205,211.574,147.305,211.574z M148.783,223.957c-0.386,0.085-1.178,0.107-1.521,0.107
		c-0.514,0-1.071-0.044-1.435-0.107v-11.16c0.472-0.065,1.05-0.107,1.435-0.107c0.514,0,1.05,0.042,1.521,0.107V223.957z
		 M158.655,223.743c-0.643,0.257-1.413,0.429-2.656,0.429c-2.42,0-3.62-1.18-3.62-3.534v-5.635h-1.842
		c-0.086-0.321-0.149-0.857-0.149-1.137c0-0.256,0.063-0.728,0.128-0.942l1.864-0.127v-2.872c0.235-0.042,0.986-0.086,1.478-0.086
		c0.536,0,1.2,0.044,1.479,0.086v2.872h3.084c0.087,0.3,0.13,0.727,0.13,0.964c0,0.257-0.022,0.942-0.107,1.242h-3.106v5.204
		c0,1.072,0.429,1.544,1.478,1.544c0.579,0,1.286-0.087,1.779-0.257c0.085,0.277,0.192,0.813,0.192,1.306
		C158.784,223.058,158.741,223.506,158.655,223.743z M162.356,211.574c-0.899,0-1.628-0.729-1.628-1.628
		c0-0.898,0.729-1.628,1.628-1.628c0.9,0,1.629,0.729,1.629,1.628C163.985,210.846,163.257,211.574,162.356,211.574z
		 M163.834,223.957c-0.385,0.085-1.178,0.107-1.521,0.107c-0.514,0-1.07-0.044-1.435-0.107v-11.16
		c0.471-0.065,1.05-0.107,1.435-0.107c0.515,0,1.05,0.042,1.521,0.107V223.957z M175.892,219.415h-6.769
		c0.043,1.394,1.007,2.422,2.869,2.422c1.008,0,2.036-0.13,2.914-0.365c0.129,0.579,0.215,1.221,0.215,1.801
		c0,0.085,0,0.191-0.021,0.428c-1.094,0.32-2.229,0.472-3.343,0.472c-4.07,0-5.763-2.335-5.763-5.742
		c0-2.977,1.671-5.848,5.291-5.848c3.429,0,4.671,2.528,4.671,5.313C175.957,218.28,175.957,218.858,175.892,219.415z M173,217.295
		c0-1.35-0.362-2.485-1.757-2.485c-1.328,0-2.034,1.05-2.12,2.485H173z M181.263,224.172c-1.264,0-2.592-0.193-3.62-0.536
		c-0.064-0.32-0.086-0.729-0.086-1.158c0-0.342,0.086-0.834,0.172-1.134c0.985,0.342,2.399,0.579,3.234,0.579
		c1.156,0,1.821-0.386,1.821-1.18c0-0.685-0.536-1.007-1.948-1.457c-2.251-0.706-3.301-1.757-3.301-3.384
		c0-2.421,2.229-3.32,4.349-3.32c0.986,0,2.078,0.172,2.829,0.407c0.086,0.322,0.127,0.771,0.127,1.028
		c0,0.277-0.084,0.855-0.191,1.221c-0.729-0.214-1.735-0.386-2.572-0.386c-1.027,0-1.735,0.258-1.735,0.899
		c0,0.687,0.794,0.964,2.036,1.37c2.165,0.709,3.192,1.608,3.192,3.3C185.569,223.035,183.471,224.172,181.263,224.172z
		 M199.509,223.743c-0.644,0.257-1.417,0.429-2.656,0.429c-2.423,0-3.62-1.18-3.62-3.534v-5.635h-1.843
		c-0.086-0.321-0.15-0.857-0.15-1.137c0-0.256,0.064-0.728,0.129-0.942l1.864-0.127v-2.872c0.233-0.042,0.983-0.086,1.476-0.086
		c0.536,0,1.201,0.044,1.479,0.086v2.872h3.084c0.086,0.3,0.13,0.727,0.13,0.964c0,0.257-0.022,0.942-0.107,1.242h-3.106v5.204
		c0,1.072,0.429,1.544,1.479,1.544c0.577,0,1.284-0.087,1.777-0.257c0.087,0.277,0.194,0.813,0.194,1.306
		C199.638,223.058,199.594,223.506,199.509,223.743z M206.144,224.172c-3.234,0-5.29-2.079-5.29-5.764
		c0-3.664,2.034-5.826,5.29-5.826c3.257,0,5.291,2.142,5.291,5.805C211.435,222.051,209.4,224.172,206.144,224.172z
		 M206.144,214.896c-1.393,0-2.249,0.942-2.249,3.491c0,2.551,0.856,3.472,2.249,3.472s2.25-0.921,2.25-3.472
		C208.394,215.816,207.536,214.896,206.144,214.896z"/>
	<text transform="matrix(1 0 0 1 30.1885 248.6631)" style="display:inline;"><tspan x="0" y="0" style="fill:#1A2A4F; font-family:'FSMatthew-Bold'; font-size:21.4107;">s</tspan><tspan x="9.335" y="0" style="fill:#1A2A4F; font-family:'FSMatthew-Bold'; font-size:21.4107;">t</tspan><tspan x="18.241" y="0" style="fill:#1A2A4F; font-family:'FSMatthew-Bold'; font-size:21.4107;">udy in the UK</tspan></text>
	<text transform="matrix(1 0 0 1 29.9102 278.9053)" style="display:inline;"><tspan x="0" y="0" style="fill:#BAA875; font-family:'FSMatthew-Bold'; font-size:13.3633;">(</tspan><tspan x="5.131" y="0" style="fill:#BAA875; font-family:'FSMatthew-Bold'; font-size:13.3633;">Sou</tspan><tspan x="27.395" y="0" style="fill:#BAA875; font-family:'FSMatthew-Bold'; font-size:13.3633;">r</tspan><tspan x="32.365" y="0" style="fill:#BAA875; font-family:'FSMatthew-Bold'; font-size:13.3633;">c</tspan><tspan x="38.459" y="0" style="fill:#BAA875; font-family:'FSMatthew-Bold'; font-size:13.3633;">e: independent</tspan><tspan x="128.392" y="0" style="fill:#BAA875; font-family:'FSMatthew-Bold'; font-size:13.3633;">.</tspan><tspan x="131.438" y="0" style="fill:#BAA875; font-family:'FSMatthew-Bold'; font-size:13.3633;">c</tspan><tspan x="137.532" y="0" style="fill:#BAA875; font-family:'FSMatthew-Bold'; font-size:13.3633;">o</tspan><tspan x="144.815" y="0" style="fill:#BAA875; font-family:'FSMatthew-Bold'; font-size:13.3633;">.</tspan><tspan x="147.876" y="0" style="fill:#BAA875; font-family:'FSMatthew-Bold'; font-size:13.3633;">uk)</tspan></text>
</g>
<g id="Text_Flat">
	<g>
		<path style="fill:#BA5D90;" d="M44.129,171.569c-4.667,0-9.203-0.132-13.87-0.395v-44.306c3.812-0.263,8.874-0.395,12.292-0.395
			c10.123,0,16.302,3.09,16.302,11.438c0,4.207-1.775,7.362-5.917,9.203c5.522,1.314,9.072,5.325,9.072,10.714
			C62.009,168.085,54.581,171.569,44.129,171.569z M43.209,134.231c-1.183,0-2.498,0.066-3.55,0.131v9.992h3.681
			c4.273,0,6.311-1.38,6.311-5.39C49.651,134.823,46.43,134.231,43.209,134.231z M44.261,151.717h-4.602v11.964
			c1.249,0.065,3.09,0.132,4.339,0.132c5.85,0,8.677-1.644,8.677-6.048C52.675,153.229,50.243,151.717,44.261,151.717z"/>
		<path style="fill:#BA5D90;" d="M96.123,171.24H68.317v-44.437h27.214c0.263,0.723,0.46,2.104,0.46,3.944
			c0,1.446-0.131,2.695-0.46,4.076H77.717v9.597h15.053c0.263,0.723,0.46,2.038,0.46,3.878c0,1.446-0.131,2.629-0.46,4.01H77.717
			v10.912h18.406c0.263,0.723,0.46,2.104,0.46,3.944C96.583,168.611,96.452,169.859,96.123,171.24z"/>
		<path style="fill:#BA5D90;" d="M130.632,171.24h-27.214v-44.437c1.249-0.197,2.958-0.329,4.602-0.329
			c1.84,0,3.615,0.132,4.798,0.329v36.417h17.814c0.263,0.723,0.46,2.104,0.46,3.944C131.092,168.611,130.96,169.859,130.632,171.24
			z"/>
		<path style="fill:#BA5D90;" d="M164.284,134.823h-17.485v9.597h14.725c0.263,0.723,0.46,2.038,0.46,3.878
			c0,1.446-0.131,2.629-0.46,4.01h-14.725v18.932c-1.249,0.197-2.695,0.329-4.667,0.329c-1.775,0-3.484-0.132-4.733-0.329v-44.437
			h26.885c0.263,0.723,0.46,2.104,0.46,3.944C164.744,132.194,164.613,133.443,164.284,134.823z"/>
		<path style="fill:#BA5D90;" d="M206.09,171.24c-0.854,0.197-2.893,0.329-5.062,0.329c-1.71,0-3.682-0.197-4.536-0.329
			l-3.287-9.006h-15.776l-3.089,9.006c-1.446,0.197-3.155,0.329-4.864,0.329c-1.71,0-3.682-0.132-4.668-0.329l15.514-44.437
			c0.921-0.197,3.09-0.329,4.536-0.329c1.774,0,3.878,0.132,4.602,0.329L206.09,171.24z M190.379,154.412l-3.879-12.555
			c-0.46-1.446-0.92-3.287-1.314-5.325h-0.131c-0.329,2.038-0.854,3.878-1.315,5.325l-3.681,12.555H190.379z"/>
		<path style="fill:#BA5D90;" d="M223.44,171.897c-4.799,0-10.058-0.92-13.805-2.629c-0.197-0.921-0.328-2.104-0.328-3.155
			c0-1.578,0.197-3.09,0.657-4.865c3.878,1.578,9.006,2.564,13.016,2.564c4.667,0,7.165-2.17,7.165-5.128
			c0-3.286-2.104-4.667-8.479-6.639c-7.1-2.169-12.293-5.588-12.293-13.213c0-8.151,7.033-12.687,16.303-12.687
			c4.272,0,8.085,0.658,10.648,1.512c0.197,0.723,0.329,1.906,0.329,3.615c0,1.249-0.132,3.155-0.395,4.207
			c-3.287-0.854-7.034-1.314-10.058-1.314c-4.93,0-7.625,1.643-7.625,4.272c0,3.09,2.432,4.338,8.348,6.179
			c7.1,2.235,12.358,5.587,12.358,13.476C239.282,166.704,232.512,171.897,223.44,171.897z"/>
		<path style="fill:#BA5D90;" d="M274.054,134.823h-11.767v36.417c-1.249,0.197-3.024,0.329-4.667,0.329
			c-1.644,0-3.419-0.132-4.733-0.329v-36.417H241.12c-0.263-0.854-0.46-2.893-0.46-4.01c0-1.118,0.263-3.155,0.525-4.01h32.868
			c0.263,0.854,0.46,2.892,0.46,4.01C274.514,131.931,274.316,133.969,274.054,134.823z"/>
	</g>
	<g>
		<path style="fill:#1A2A4F;" d="M33.143,186.88c-0.899,0-1.627-0.728-1.627-1.627s0.728-1.627,1.627-1.627
			c0.899,0,1.627,0.728,1.627,1.627S34.042,186.88,33.143,186.88z M34.62,199.254c-0.386,0.086-1.178,0.107-1.52,0.107
			c-0.514,0-1.07-0.043-1.435-0.107v-11.153c0.471-0.064,1.049-0.107,1.435-0.107c0.514,0,1.049,0.043,1.52,0.107V199.254z"/>
		<path style="fill:#1A2A4F;" d="M40.722,199.468c-1.263,0-2.59-0.192-3.618-0.535c-0.064-0.321-0.086-0.728-0.086-1.156
			c0-0.342,0.086-0.835,0.171-1.134c0.985,0.342,2.398,0.577,3.232,0.577c1.156,0,1.82-0.385,1.82-1.177
			c0-0.686-0.535-1.007-1.948-1.456c-2.248-0.706-3.297-1.756-3.297-3.383c0-2.419,2.227-3.318,4.346-3.318
			c0.985,0,2.077,0.172,2.826,0.407c0.085,0.321,0.128,0.771,0.128,1.027c0,0.278-0.085,0.856-0.192,1.221
			c-0.728-0.214-1.734-0.386-2.569-0.386c-1.027,0-1.734,0.257-1.734,0.899c0,0.685,0.792,0.963,2.034,1.37
			c2.162,0.706,3.19,1.605,3.19,3.297C45.025,198.333,42.927,199.468,40.722,199.468z"/>
		<path style="fill:#1A2A4F;" d="M56.543,199.468c-3.232,0-5.288-2.076-5.288-5.759c0-3.66,2.034-5.823,5.288-5.823
			c3.254,0,5.288,2.142,5.288,5.802C61.832,197.349,59.798,199.468,56.543,199.468z M56.543,190.198
			c-1.391,0-2.248,0.942-2.248,3.489c0,2.548,0.856,3.469,2.248,3.469c1.392,0,2.248-0.921,2.248-3.469
			C58.792,191.119,57.935,190.198,56.543,190.198z"/>
		<path style="fill:#1A2A4F;" d="M73.65,199.254c-0.343,0.086-1.07,0.107-1.413,0.107c-0.364,0-1.199-0.043-1.542-0.107v-7.321
			c0-1.156-0.599-1.648-1.562-1.648c-0.771,0-1.648,0.278-2.333,0.706v8.264c-0.493,0.086-1.178,0.107-1.563,0.107
			c-0.342,0-0.963-0.021-1.392-0.107v-11.153c0.278-0.064,0.963-0.107,1.285-0.107c0.3,0,0.92,0.043,1.242,0.107l0.15,0.984
			c0.963-0.706,2.355-1.199,3.597-1.199c2.354,0,3.532,1.456,3.532,3.896V199.254z"/>
		<path style="fill:#1A2A4F;" d="M85.511,194.716h-6.765c0.043,1.391,1.006,2.419,2.869,2.419c1.006,0,2.034-0.129,2.912-0.364
			c0.128,0.578,0.214,1.221,0.214,1.798c0,0.086,0,0.193-0.021,0.429c-1.092,0.321-2.227,0.471-3.34,0.471
			c-4.067,0-5.759-2.333-5.759-5.737c0-2.976,1.67-5.845,5.288-5.845c3.425,0,4.667,2.526,4.667,5.31
			C85.575,193.581,85.575,194.159,85.511,194.716z M82.621,192.596c0-1.349-0.364-2.483-1.755-2.483c-1.328,0-2.034,1.05-2.12,2.483
			H82.621z"/>
		<path style="fill:#1A2A4F;" d="M97.052,199.468c-3.232,0-5.288-2.076-5.288-5.759c0-3.66,2.034-5.823,5.288-5.823
			c3.254,0,5.288,2.142,5.288,5.802C102.34,197.349,100.306,199.468,97.052,199.468z M97.052,190.198
			c-1.391,0-2.248,0.942-2.248,3.489c0,2.548,0.856,3.469,2.248,3.469c1.392,0,2.248-0.921,2.248-3.469
			C99.3,191.119,98.443,190.198,97.052,190.198z"/>
		<path style="fill:#1A2A4F;" d="M111.696,185.788c-0.471-0.149-1.028-0.235-1.584-0.235c-1.242,0-1.884,0.664-1.884,2.098v0.45
			h2.74c0.107,0.363,0.128,0.856,0.128,1.092c0,0.257-0.043,0.728-0.107,1.113h-2.762v8.948c-0.3,0.064-1.006,0.107-1.456,0.107
			c-0.364,0-1.199-0.043-1.499-0.107v-8.948h-1.819c-0.086-0.257-0.15-0.771-0.15-1.028c0-0.363,0.064-0.813,0.171-1.049
			l1.798-0.128v-0.321c0-2.869,1.478-4.41,4.282-4.41c0.664,0,1.606,0.149,2.248,0.386c0.085,0.257,0.107,0.642,0.107,0.941
			C111.91,185.018,111.825,185.445,111.696,185.788z"/>
		<path style="fill:#1A2A4F;" d="M124.971,199.04c-0.643,0.257-1.413,0.428-2.655,0.428c-2.419,0-3.618-1.177-3.618-3.532v-5.63
			h-1.841c-0.085-0.321-0.15-0.856-0.15-1.135c0-0.257,0.064-0.729,0.128-0.942l1.863-0.128v-2.869
			c0.235-0.043,0.984-0.086,1.477-0.086c0.535,0,1.199,0.043,1.477,0.086v2.869h3.083c0.086,0.3,0.129,0.728,0.129,0.963
			c0,0.257-0.021,0.942-0.107,1.242h-3.104v5.202c0,1.07,0.428,1.541,1.477,1.541c0.578,0,1.285-0.086,1.777-0.257
			c0.086,0.278,0.193,0.813,0.193,1.306C125.099,198.354,125.056,198.805,124.971,199.04z"/>
		<path style="fill:#1A2A4F;" d="M136.917,191.782v7.472c-0.342,0.086-1.07,0.107-1.413,0.107c-0.364,0-1.199-0.043-1.542-0.107
			v-7.3c0-1.156-0.6-1.67-1.563-1.67c-0.771,0-1.712,0.278-2.397,0.706v8.264c-0.493,0.086-1.178,0.107-1.563,0.107
			c-0.342,0-0.963-0.021-1.392-0.107v-15.606c0.278-0.064,0.899-0.107,1.435-0.107s1.199,0.043,1.52,0.107v5.245
			c0.942-0.6,2.248-1.007,3.382-1.007C135.74,187.886,136.917,189.342,136.917,191.782z"/>
		<path style="fill:#1A2A4F;" d="M148.779,194.716h-6.765c0.043,1.391,1.006,2.419,2.869,2.419c1.006,0,2.034-0.129,2.912-0.364
			c0.128,0.578,0.214,1.221,0.214,1.798c0,0.086,0,0.193-0.021,0.429c-1.092,0.321-2.227,0.471-3.34,0.471
			c-4.067,0-5.759-2.333-5.759-5.737c0-2.976,1.67-5.845,5.288-5.845c3.425,0,4.667,2.526,4.667,5.31
			C148.843,193.581,148.843,194.159,148.779,194.716z M145.889,192.596c0-1.349-0.364-2.483-1.755-2.483
			c-1.328,0-2.034,1.05-2.12,2.483H145.889z"/>
		<path style="fill:#1A2A4F;" d="M162.738,199.04c-0.643,0.257-1.413,0.428-2.654,0.428c-2.42,0-3.618-1.177-3.618-3.532v-5.63
			h-1.841c-0.086-0.321-0.15-0.856-0.15-1.135c0-0.257,0.064-0.729,0.129-0.942l1.862-0.128v-2.869
			c0.235-0.043,0.984-0.086,1.477-0.086c0.535,0,1.199,0.043,1.478,0.086v2.869h3.083c0.085,0.3,0.128,0.728,0.128,0.963
			c0,0.257-0.021,0.942-0.106,1.242h-3.104v5.202c0,1.07,0.428,1.541,1.478,1.541c0.577,0,1.284-0.086,1.776-0.257
			c0.086,0.278,0.192,0.813,0.192,1.306C162.866,198.354,162.824,198.805,162.738,199.04z"/>
		<path style="fill:#1A2A4F;" d="M169.396,199.468c-3.232,0-5.287-2.076-5.287-5.759c0-3.66,2.033-5.823,5.287-5.823
			s5.288,2.142,5.288,5.802C174.685,197.349,172.65,199.468,169.396,199.468z M169.396,190.198c-1.392,0-2.248,0.942-2.248,3.489
			c0,2.548,0.856,3.469,2.248,3.469s2.248-0.921,2.248-3.469C171.645,191.119,170.788,190.198,169.396,190.198z"/>
		<path style="fill:#1A2A4F;" d="M181.751,199.254c-0.664,0-1.563-0.107-2.099-0.257v5.288c-0.385,0.063-1.027,0.106-1.498,0.106
			c-0.578,0-1.027-0.064-1.456-0.106v-16.163c0.343-0.064,0.921-0.107,1.37-0.107c0.407,0,0.856,0.043,1.156,0.107l0.107,0.92
			c0.685-0.642,1.927-1.156,3.082-1.156c3.062,0,4.432,2.505,4.432,5.374C186.846,196.578,185.133,199.254,181.751,199.254z
			 M181.794,190.284c-0.793,0-1.628,0.321-2.142,0.792v5.673c0.407,0.129,1.199,0.214,1.756,0.214c1.584,0,2.397-1.306,2.397-3.468
			C183.806,191.376,183.035,190.284,181.794,190.284z"/>
		<path style="fill:#1A2A4F;" d="M197.595,199.468c-1.156,0-2.869-0.235-4.046-0.642c-0.043-0.15-0.107-0.535-0.107-0.964
			c0-0.471,0.064-0.963,0.192-1.37c0.985,0.3,2.505,0.492,3.704,0.492c1.52,0,2.505-0.813,2.505-2.269
			c0-0.621-0.172-1.178-0.535-1.542c-0.472-0.471-1.264-0.663-2.42-0.663h-2.804v-7.729h8.092c0.064,0.343,0.107,0.878,0.107,1.263
			c0,0.407-0.064,1.113-0.107,1.37h-5.352v2.655h0.941c1.67,0,2.997,0.299,3.939,1.112c0.835,0.729,1.306,1.842,1.306,3.383
			C203.011,197.841,200.506,199.468,197.595,199.468z"/>
		<path style="fill:#1A2A4F;" d="M226.968,199.254c-0.343,0.086-1.07,0.107-1.413,0.107c-0.363,0-1.198-0.043-1.541-0.107v-6.722
			c0-0.813-0.021-1.413-0.321-1.777c-0.278-0.343-0.706-0.471-1.241-0.471c-0.729,0-1.756,0.321-2.42,0.728
			c0.021,0.364,0.043,0.728,0.043,1.156v7.086c-0.343,0.086-1.07,0.107-1.413,0.107c-0.363,0-1.198-0.043-1.541-0.107v-6.722
			c0-0.813-0.021-1.413-0.321-1.777c-0.278-0.343-0.706-0.471-1.241-0.471c-0.75,0-1.713,0.3-2.377,0.706v8.264
			c-0.492,0.086-1.177,0.107-1.562,0.107c-0.343,0-0.963-0.021-1.392-0.107v-11.153c0.278-0.064,0.964-0.107,1.284-0.107
			c0.3,0,0.921,0.043,1.242,0.107l0.128,1.006c0.942-0.706,2.291-1.221,3.49-1.221c1.241,0,2.333,0.429,3.168,1.35
			c1.156-0.793,2.548-1.35,3.961-1.35c1.049,0,2.119,0.429,2.654,1.071c0.664,0.792,0.813,1.819,0.813,3.382V199.254z"/>
		<path style="fill:#1A2A4F;" d="M234.228,199.468c-3.232,0-5.288-2.076-5.288-5.759c0-3.66,2.034-5.823,5.288-5.823
			s5.288,2.142,5.288,5.802C239.516,197.349,237.481,199.468,234.228,199.468z M234.228,190.198c-1.392,0-2.248,0.942-2.248,3.489
			c0,2.548,0.856,3.469,2.248,3.469s2.248-0.921,2.248-3.469C236.476,191.119,235.619,190.198,234.228,190.198z"/>
		<path style="fill:#1A2A4F;" d="M244.825,199.468c-1.263,0-2.59-0.192-3.618-0.535c-0.063-0.321-0.085-0.728-0.085-1.156
			c0-0.342,0.085-0.835,0.171-1.134c0.984,0.342,2.397,0.577,3.232,0.577c1.156,0,1.82-0.385,1.82-1.177
			c0-0.686-0.535-1.007-1.948-1.456c-2.248-0.706-3.297-1.756-3.297-3.383c0-2.419,2.227-3.318,4.346-3.318
			c0.984,0,2.076,0.172,2.826,0.407c0.085,0.321,0.128,0.771,0.128,1.027c0,0.278-0.086,0.856-0.192,1.221
			c-0.729-0.214-1.734-0.386-2.569-0.386c-1.027,0-1.734,0.257-1.734,0.899c0,0.685,0.793,0.963,2.034,1.37
			c2.162,0.706,3.189,1.605,3.189,3.297C249.128,198.333,247.03,199.468,244.825,199.468z"/>
		<path style="fill:#1A2A4F;" d="M257.928,199.04c-0.642,0.257-1.412,0.428-2.654,0.428c-2.419,0-3.618-1.177-3.618-3.532v-5.63
			h-1.841c-0.086-0.321-0.149-0.856-0.149-1.135c0-0.257,0.063-0.729,0.128-0.942l1.862-0.128v-2.869
			c0.235-0.043,0.985-0.086,1.478-0.086c0.535,0,1.199,0.043,1.477,0.086v2.869h3.083c0.086,0.3,0.129,0.728,0.129,0.963
			c0,0.257-0.021,0.942-0.107,1.242h-3.104v5.202c0,1.07,0.429,1.541,1.478,1.541c0.578,0,1.284-0.086,1.777-0.257
			c0.085,0.278,0.192,0.813,0.192,1.306C258.057,198.354,258.014,198.805,257.928,199.04z"/>
	</g>
	<path style="fill:#1A2A4F;" d="M40.405,220.851c0,0.921,0.021,1.972,0.021,3.106c-0.343,0.085-0.921,0.107-1.285,0.107
		c-0.408,0-0.942-0.044-1.286-0.107c-0.043-0.257-0.085-0.707-0.107-0.985h-0.043c-0.729,0.751-1.97,1.2-3.107,1.2
		c-2.142,0-3.684-1.328-3.684-3.534c0-3.429,3.042-4.008,5.591-4.008c0.171,0,0.579,0.021,0.921,0.044
		c0-0.13-0.021-0.407-0.043-0.515c-0.149-0.879-0.727-1.242-1.97-1.242c-0.964,0-2.313,0.193-3.341,0.45
		c-0.107-0.3-0.172-0.813-0.172-1.2c0-0.322,0.043-0.814,0.129-1.028c1.199-0.363,2.677-0.557,3.899-0.557
		c2.677,0,4.477,1.241,4.477,4.026V220.851z M37.449,218.73c-0.257-0.021-0.6-0.043-0.899-0.043c-1.929,0-2.678,0.771-2.678,1.734
		c0,0.835,0.557,1.415,1.521,1.415c0.707,0,1.5-0.343,2.057-0.836V218.73z M46.976,215.003v8.954
		c-0.3,0.063-1.007,0.107-1.457,0.107c-0.364,0-1.199-0.044-1.499-0.107v-8.954h-1.821c-0.086-0.259-0.149-0.771-0.149-1.029
		c0-0.363,0.063-0.813,0.17-1.05l1.8-0.127v-0.45c0-2.828,1.606-4.285,4.049-4.285c0.707,0,1.585,0.15,2.228,0.386
		c0.085,0.257,0.107,0.644,0.107,0.943c0,0.319-0.086,0.749-0.214,1.092c-0.471-0.15-1.029-0.236-1.585-0.236
		c-1.071,0-1.628,0.665-1.628,2.037v0.514h3.921v-0.322c0-2.869,1.478-4.413,4.284-4.413c0.664,0,1.607,0.15,2.25,0.386
		c0.086,0.257,0.107,0.644,0.107,0.943c0,0.319-0.086,0.749-0.214,1.092c-0.471-0.15-1.028-0.236-1.585-0.236
		c-1.243,0-1.886,0.665-1.886,2.101v0.45h2.742c0.107,0.363,0.128,0.856,0.128,1.092c0,0.257-0.042,0.729-0.106,1.114h-2.764v8.954
		c-0.3,0.063-1.007,0.107-1.457,0.107c-0.363,0-1.199-0.044-1.499-0.107v-8.954H46.976z M62.712,224.172
		c-3.234,0-5.291-2.079-5.291-5.764c0-3.664,2.035-5.826,5.291-5.826c3.257,0,5.292,2.142,5.292,5.805
		C68.004,222.051,65.969,224.172,62.712,224.172z M62.712,214.896c-1.393,0-2.249,0.942-2.249,3.491
		c0,2.551,0.856,3.472,2.249,3.472s2.249-0.921,2.249-3.472C64.961,215.816,64.105,214.896,62.712,214.896z M76.353,215.067
		c-1.114,0.171-2.314,0.557-3.385,1.113v7.776c-0.3,0.063-0.943,0.107-1.457,0.107c-0.514,0-1.264-0.044-1.5-0.107v-11.16
		c0.321-0.043,0.857-0.107,1.285-0.107c0.365,0,0.943,0.042,1.243,0.107l0.17,1.37c0.793-0.707,2.228-1.478,3.621-1.585
		c0.043,0.172,0.086,0.792,0.086,1.241C76.417,214.252,76.395,214.766,76.353,215.067z M87.423,223.957
		c-0.342,0.063-0.921,0.107-1.371,0.107c-0.407,0-0.878-0.044-1.178-0.107l-0.085-0.985c-0.771,0.751-1.757,1.2-2.914,1.2
		c-3.192,0-4.563-2.55-4.563-5.613c0-3.299,1.479-5.977,4.885-5.977c0.835,0,1.8,0.257,2.271,0.557v-4.799
		c0.385-0.062,1.029-0.106,1.499-0.106c0.579,0,1.029,0.064,1.458,0.106V223.957z M84.467,215.346
		c-0.515-0.235-1.179-0.365-1.735-0.365c-1.735,0-2.378,1.543-2.378,3.406c0,1.564,0.386,3.343,2.121,3.343
		c0.835,0,1.478-0.343,1.993-0.771V215.346z M98.92,220.851c0,0.921,0.022,1.972,0.022,3.106c-0.343,0.085-0.921,0.107-1.285,0.107
		c-0.407,0-0.943-0.044-1.286-0.107c-0.043-0.257-0.085-0.707-0.107-0.985h-0.043c-0.729,0.751-1.971,1.2-3.106,1.2
		c-2.142,0-3.684-1.328-3.684-3.534c0-3.429,3.042-4.008,5.591-4.008c0.171,0,0.579,0.021,0.921,0.044
		c0-0.13-0.021-0.407-0.042-0.515c-0.15-0.879-0.728-1.242-1.971-1.242c-0.964,0-2.313,0.193-3.341,0.45
		c-0.107-0.3-0.172-0.813-0.172-1.2c0-0.322,0.044-0.814,0.129-1.028c1.199-0.363,2.678-0.557,3.899-0.557
		c2.677,0,4.477,1.241,4.477,4.026V220.851z M95.964,218.73c-0.257-0.021-0.6-0.043-0.9-0.043c-1.928,0-2.678,0.771-2.678,1.734
		c0,0.835,0.557,1.415,1.521,1.415c0.707,0,1.5-0.343,2.057-0.836V218.73z M105.727,224.172c-1.028,0-2.785-0.13-4.178-0.666V208.34
		c0.322-0.062,0.921-0.106,1.436-0.106c0.643,0,1.285,0.064,1.521,0.106v4.95c0.665-0.366,1.671-0.708,2.614-0.708
		c3.341,0,4.542,2.678,4.542,5.354C111.661,221.622,109.732,224.172,105.727,224.172z M106.54,214.98
		c-0.707,0-1.478,0.235-2.035,0.602v6.125c0.322,0.086,0.9,0.151,1.479,0.151c1.885,0,2.635-1.328,2.635-3.75
		C108.618,216.438,108.125,214.98,106.54,214.98z M116.667,223.957c-0.386,0.085-1.178,0.107-1.521,0.107
		c-0.514,0-1.071-0.044-1.435-0.107V208.34c0.471-0.062,1.05-0.106,1.435-0.106c0.515,0,1.114,0.044,1.521,0.106V223.957z
		 M128.617,219.415h-6.77c0.043,1.394,1.006,2.422,2.87,2.422c1.007,0,2.036-0.13,2.914-0.365c0.129,0.579,0.215,1.221,0.215,1.801
		c0,0.085,0,0.191-0.021,0.428c-1.093,0.32-2.229,0.472-3.342,0.472c-4.07,0-5.762-2.335-5.762-5.742
		c0-2.977,1.67-5.848,5.291-5.848c3.427,0,4.67,2.528,4.67,5.313C128.681,218.28,128.681,218.858,128.617,219.415z M125.725,217.295
		c0-1.35-0.364-2.485-1.757-2.485c-1.328,0-2.036,1.05-2.121,2.485H125.725z M143.433,213.996c0,0.471-0.065,0.984-0.214,1.436
		c-0.707-0.278-1.629-0.451-2.506-0.451c-1.671,0-2.807,1.072-2.807,3.471c0,2.1,0.964,3.32,2.828,3.32
		c0.965,0,1.886-0.172,2.571-0.407c0.129,0.473,0.193,1.051,0.193,1.501c0,0.3,0,0.515-0.022,0.706
		c-0.856,0.386-1.992,0.601-3.062,0.601c-3.707,0-5.549-2.164-5.549-5.678c0-3.642,1.928-5.912,5.677-5.912
		c1.049,0,2.078,0.215,2.807,0.557C143.411,213.374,143.433,213.675,143.433,213.996z M147.305,211.574
		c-0.899,0-1.628-0.729-1.628-1.628c0-0.898,0.729-1.628,1.628-1.628c0.9,0,1.628,0.729,1.628,1.628
		C148.933,210.846,148.205,211.574,147.305,211.574z M148.783,223.957c-0.386,0.085-1.178,0.107-1.521,0.107
		c-0.514,0-1.071-0.044-1.435-0.107v-11.16c0.472-0.065,1.05-0.107,1.435-0.107c0.514,0,1.05,0.042,1.521,0.107V223.957z
		 M158.655,223.743c-0.643,0.257-1.413,0.429-2.656,0.429c-2.42,0-3.62-1.18-3.62-3.534v-5.635h-1.842
		c-0.086-0.321-0.149-0.857-0.149-1.137c0-0.256,0.063-0.728,0.128-0.942l1.864-0.127v-2.872c0.235-0.042,0.986-0.086,1.478-0.086
		c0.536,0,1.2,0.044,1.479,0.086v2.872h3.084c0.087,0.3,0.13,0.727,0.13,0.964c0,0.257-0.022,0.942-0.107,1.242h-3.106v5.204
		c0,1.072,0.429,1.544,1.478,1.544c0.579,0,1.286-0.087,1.779-0.257c0.085,0.277,0.192,0.813,0.192,1.306
		C158.784,223.058,158.741,223.506,158.655,223.743z M162.356,211.574c-0.899,0-1.628-0.729-1.628-1.628
		c0-0.898,0.729-1.628,1.628-1.628c0.9,0,1.629,0.729,1.629,1.628C163.985,210.846,163.257,211.574,162.356,211.574z
		 M163.834,223.957c-0.385,0.085-1.178,0.107-1.521,0.107c-0.514,0-1.07-0.044-1.435-0.107v-11.16
		c0.471-0.065,1.05-0.107,1.435-0.107c0.515,0,1.05,0.042,1.521,0.107V223.957z M175.892,219.415h-6.769
		c0.043,1.394,1.007,2.422,2.869,2.422c1.008,0,2.036-0.13,2.914-0.365c0.129,0.579,0.215,1.221,0.215,1.801
		c0,0.085,0,0.191-0.021,0.428c-1.094,0.32-2.229,0.472-3.343,0.472c-4.07,0-5.763-2.335-5.763-5.742
		c0-2.977,1.671-5.848,5.291-5.848c3.429,0,4.671,2.528,4.671,5.313C175.957,218.28,175.957,218.858,175.892,219.415z M173,217.295
		c0-1.35-0.362-2.485-1.757-2.485c-1.328,0-2.034,1.05-2.12,2.485H173z M181.263,224.172c-1.264,0-2.592-0.193-3.62-0.536
		c-0.064-0.32-0.086-0.729-0.086-1.158c0-0.342,0.086-0.834,0.172-1.134c0.985,0.342,2.399,0.579,3.234,0.579
		c1.156,0,1.821-0.386,1.821-1.18c0-0.685-0.536-1.007-1.948-1.457c-2.251-0.706-3.301-1.757-3.301-3.384
		c0-2.421,2.229-3.32,4.349-3.32c0.986,0,2.078,0.172,2.829,0.407c0.086,0.322,0.127,0.771,0.127,1.028
		c0,0.277-0.084,0.855-0.191,1.221c-0.729-0.214-1.735-0.386-2.572-0.386c-1.027,0-1.735,0.258-1.735,0.899
		c0,0.687,0.794,0.964,2.036,1.37c2.165,0.709,3.192,1.608,3.192,3.3C185.569,223.035,183.471,224.172,181.263,224.172z
		 M199.509,223.743c-0.644,0.257-1.417,0.429-2.656,0.429c-2.423,0-3.62-1.18-3.62-3.534v-5.635h-1.843
		c-0.086-0.321-0.15-0.857-0.15-1.137c0-0.256,0.064-0.728,0.129-0.942l1.864-0.127v-2.872c0.233-0.042,0.983-0.086,1.476-0.086
		c0.536,0,1.201,0.044,1.479,0.086v2.872h3.084c0.086,0.3,0.13,0.727,0.13,0.964c0,0.257-0.022,0.942-0.107,1.242h-3.106v5.204
		c0,1.072,0.429,1.544,1.479,1.544c0.577,0,1.284-0.087,1.777-0.257c0.087,0.277,0.194,0.813,0.194,1.306
		C199.638,223.058,199.594,223.506,199.509,223.743z M206.144,224.172c-3.234,0-5.29-2.079-5.29-5.764
		c0-3.664,2.034-5.826,5.29-5.826c3.257,0,5.291,2.142,5.291,5.805C211.435,222.051,209.4,224.172,206.144,224.172z
		 M206.144,214.896c-1.393,0-2.249,0.942-2.249,3.491c0,2.551,0.856,3.472,2.249,3.472s2.25-0.921,2.25-3.472
		C208.394,215.816,207.536,214.896,206.144,214.896z"/>
	<g>
		<path style="fill:#1A2A4F;" d="M34.812,248.877c-1.263,0-2.59-0.192-3.618-0.535c-0.064-0.321-0.086-0.728-0.086-1.156
			c0-0.342,0.086-0.835,0.171-1.134c0.985,0.342,2.398,0.577,3.232,0.577c1.156,0,1.82-0.385,1.82-1.177
			c0-0.686-0.535-1.007-1.948-1.456c-2.248-0.706-3.297-1.756-3.297-3.383c0-2.419,2.227-3.318,4.346-3.318
			c0.985,0,2.077,0.172,2.826,0.407c0.085,0.321,0.128,0.771,0.128,1.027c0,0.278-0.085,0.856-0.192,1.221
			c-0.728-0.214-1.734-0.386-2.569-0.386c-1.027,0-1.734,0.257-1.734,0.899c0,0.685,0.792,0.963,2.034,1.37
			c2.162,0.706,3.19,1.605,3.19,3.297C39.116,247.742,37.018,248.877,34.812,248.877z"/>
		<path style="fill:#1A2A4F;" d="M47.916,248.449c-0.643,0.257-1.413,0.428-2.655,0.428c-2.419,0-3.618-1.177-3.618-3.532v-5.63
			h-1.841c-0.085-0.321-0.15-0.856-0.15-1.135c0-0.257,0.064-0.729,0.128-0.942l1.863-0.128v-2.869
			c0.235-0.043,0.984-0.086,1.477-0.086c0.535,0,1.199,0.043,1.477,0.086v2.869h3.083c0.086,0.3,0.129,0.728,0.129,0.963
			c0,0.257-0.021,0.942-0.107,1.242h-3.104v5.202c0,1.07,0.428,1.541,1.477,1.541c0.578,0,1.285-0.086,1.777-0.257
			c0.086,0.278,0.193,0.813,0.193,1.306C48.044,247.764,48.001,248.214,47.916,248.449z"/>
		<path style="fill:#1A2A4F;" d="M59.305,244.36c0,3.189-1.499,4.517-4.838,4.517c-3.254,0-4.752-1.327-4.752-4.517v-6.851
			c0.299-0.043,0.877-0.107,1.456-0.107c0.514,0,1.156,0.043,1.499,0.107v6.829c0,1.67,0.492,2.269,1.841,2.269
			c1.37,0,1.841-0.599,1.841-2.269v-6.829c0.3-0.064,0.963-0.107,1.499-0.107s1.242,0.064,1.456,0.107V244.36z"/>
		<path style="fill:#1A2A4F;" d="M71.38,248.663c-0.342,0.064-0.92,0.107-1.37,0.107c-0.407,0-0.877-0.043-1.177-0.107l-0.086-0.984
			c-0.771,0.749-1.755,1.198-2.911,1.198c-3.19,0-4.56-2.547-4.56-5.608c0-3.297,1.477-5.974,4.881-5.974
			c0.835,0,1.798,0.258,2.27,0.557v-4.795c0.385-0.064,1.027-0.107,1.499-0.107c0.578,0,1.027,0.064,1.456,0.107V248.663z
			 M68.426,240.057c-0.514-0.235-1.178-0.363-1.734-0.363c-1.734,0-2.376,1.541-2.376,3.403c0,1.563,0.385,3.34,2.119,3.34
			c0.835,0,1.478-0.343,1.991-0.771V240.057z"/>
		<path style="fill:#1A2A4F;" d="M83.478,246.693c0,1.627-0.085,3.426-0.92,4.839c-1.006,1.69-2.698,2.397-4.603,2.397
			c-1.07,0-2.291-0.15-3.275-0.45c-0.064-0.192-0.107-0.706-0.107-1.027c0-0.257,0.085-0.878,0.15-1.135
			c0.856,0.235,2.012,0.386,2.805,0.386c1.284,0,2.055-0.449,2.526-1.306c0.428-0.771,0.493-1.627,0.493-2.462
			c-0.75,0.578-1.734,0.941-2.655,0.941c-2.805,0-3.939-1.455-3.939-4.217v-7.15c0.342-0.086,1.07-0.107,1.413-0.107
			c0.364,0,1.199,0.043,1.542,0.107v6.979c0,1.37,0.492,1.97,1.713,1.97c0.771,0,1.456-0.321,1.905-0.749v-8.199
			c0.492-0.086,1.177-0.107,1.562-0.107c0.343,0,0.963,0.021,1.392,0.107V246.693z"/>
		<path style="fill:#1A2A4F;" d="M92.577,236.289c-0.899,0-1.627-0.728-1.627-1.627s0.728-1.627,1.627-1.627
			c0.899,0,1.627,0.728,1.627,1.627S93.477,236.289,92.577,236.289z M94.055,248.663c-0.386,0.086-1.178,0.107-1.52,0.107
			c-0.514,0-1.07-0.043-1.435-0.107V237.51c0.471-0.064,1.049-0.107,1.435-0.107c0.514,0,1.049,0.043,1.52,0.107V248.663z"/>
		<path style="fill:#1A2A4F;" d="M106.665,248.663c-0.343,0.086-1.07,0.107-1.413,0.107c-0.364,0-1.199-0.043-1.542-0.107v-7.321
			c0-1.156-0.599-1.648-1.562-1.648c-0.771,0-1.648,0.278-2.333,0.706v8.264c-0.493,0.086-1.178,0.107-1.563,0.107
			c-0.342,0-0.963-0.021-1.392-0.107V237.51c0.278-0.064,0.963-0.107,1.285-0.107c0.3,0,0.92,0.043,1.242,0.107l0.15,0.984
			c0.963-0.706,2.355-1.199,3.597-1.199c2.354,0,3.532,1.456,3.532,3.896V248.663z"/>
		<path style="fill:#1A2A4F;" d="M121.159,248.449c-0.643,0.257-1.413,0.428-2.655,0.428c-2.419,0-3.618-1.177-3.618-3.532v-5.63
			h-1.841c-0.085-0.321-0.15-0.856-0.15-1.135c0-0.257,0.064-0.729,0.128-0.942l1.863-0.128v-2.869
			c0.235-0.043,0.984-0.086,1.477-0.086c0.535,0,1.199,0.043,1.477,0.086v2.869h3.083c0.086,0.3,0.129,0.728,0.129,0.963
			c0,0.257-0.021,0.942-0.107,1.242h-3.104v5.202c0,1.07,0.428,1.541,1.477,1.541c0.578,0,1.285-0.086,1.777-0.257
			c0.086,0.278,0.193,0.813,0.193,1.306C121.288,247.764,121.245,248.214,121.159,248.449z"/>
		<path style="fill:#1A2A4F;" d="M133.105,241.191v7.472c-0.342,0.086-1.07,0.107-1.413,0.107c-0.364,0-1.199-0.043-1.542-0.107
			v-7.3c0-1.156-0.6-1.67-1.563-1.67c-0.771,0-1.712,0.278-2.397,0.706v8.264c-0.493,0.086-1.178,0.107-1.563,0.107
			c-0.342,0-0.963-0.021-1.392-0.107v-15.606c0.278-0.064,0.899-0.107,1.435-0.107s1.199,0.043,1.52,0.107v5.245
			c0.942-0.6,2.248-1.007,3.382-1.007C131.928,237.295,133.105,238.751,133.105,241.191z"/>
		<path style="fill:#1A2A4F;" d="M144.967,244.125h-6.765c0.043,1.391,1.006,2.419,2.869,2.419c1.006,0,2.034-0.129,2.912-0.364
			c0.128,0.578,0.214,1.221,0.214,1.799c0,0.085,0,0.192-0.021,0.428c-1.092,0.321-2.227,0.471-3.34,0.471
			c-4.067,0-5.759-2.333-5.759-5.737c0-2.976,1.67-5.845,5.288-5.845c3.425,0,4.667,2.526,4.667,5.31
			C145.031,242.99,145.031,243.568,144.967,244.125z M142.077,242.005c0-1.349-0.364-2.483-1.755-2.483
			c-1.328,0-2.034,1.05-2.12,2.483H142.077z"/>
		<path style="fill:#1A2A4F;" d="M163.059,243.161c0,3.683-1.413,5.716-5.523,5.716c-4.153,0-5.459-2.033-5.459-5.716v-8.97
			c0.428-0.064,0.984-0.107,1.498-0.107c0.6,0,1.135,0.043,1.562,0.107v9.184c0,1.97,0.557,3.083,2.42,3.083
			c1.862,0,2.505-1.113,2.505-3.083v-9.184c0.385-0.064,1.027-0.107,1.52-0.107c0.471,0,1.113,0.043,1.478,0.107V243.161z"/>
		<path style="fill:#1A2A4F;" d="M177.575,248.663c-0.386,0.064-1.07,0.107-1.82,0.107c-0.535,0-1.306-0.043-1.755-0.107
			l-3.747-5.802l-0.984,1.178v4.624c-0.407,0.064-0.899,0.107-1.541,0.107c-0.578,0-1.113-0.043-1.521-0.107v-14.472
			c0.407-0.064,1.006-0.107,1.542-0.107c0.599,0,1.134,0.043,1.52,0.107v6.229l2.483-2.911c1.092-1.285,1.691-2.205,1.927-3.318
			c0.428-0.064,1.027-0.107,1.498-0.107c0.386,0,1.05,0.043,1.499,0.107c-0.321,1.691-1.221,3.168-2.505,4.646l-1.713,1.97
			L177.575,248.663z"/>
	</g>
	<g>
		<path style="fill:#BAA875;" d="M33.386,280.75c-1.711-1.577-2.754-3.502-2.754-5.801c0-2.34,1.083-4.318,2.754-5.802
			c0.401,0.08,0.869,0.454,1.056,0.722c-1.31,1.391-2.005,3.208-2.005,5.08c0,1.871,0.749,3.635,2.005,5.079
			C34.254,280.295,33.787,280.67,33.386,280.75z"/>
		<path style="fill:#BAA875;" d="M38.503,279.039c-0.976,0-2.045-0.188-2.807-0.535c-0.04-0.187-0.066-0.428-0.066-0.642
			c0-0.32,0.04-0.628,0.133-0.989c0.789,0.321,1.832,0.521,2.647,0.521c0.949,0,1.457-0.44,1.457-1.042
			c0-0.669-0.428-0.949-1.724-1.351c-1.443-0.44-2.5-1.136-2.5-2.687c0-1.657,1.43-2.58,3.315-2.58c0.869,0,1.644,0.134,2.166,0.308
			c0.04,0.147,0.067,0.388,0.067,0.735c0,0.254-0.027,0.642-0.081,0.855c-0.668-0.174-1.43-0.268-2.045-0.268
			c-1.002,0-1.551,0.334-1.551,0.869c0,0.628,0.495,0.882,1.698,1.257c1.443,0.454,2.513,1.136,2.513,2.74
			C41.725,277.983,40.348,279.039,38.503,279.039z"/>
		<path style="fill:#BAA875;" d="M45.987,279.039c-2.019,0-3.302-1.297-3.302-3.596c0-2.286,1.27-3.636,3.302-3.636
			s3.301,1.337,3.301,3.622C49.289,277.716,48.019,279.039,45.987,279.039z M45.987,273.251c-0.869,0-1.404,0.588-1.404,2.179
			s0.535,2.166,1.404,2.166c0.869,0,1.403-0.575,1.403-2.166C47.391,273.826,46.856,273.251,45.987,273.251z"/>
		<path style="fill:#BAA875;" d="M56.505,276.219c0,1.991-0.936,2.82-3.021,2.82c-2.032,0-2.967-0.829-2.967-2.82v-4.277
			c0.187-0.027,0.548-0.067,0.909-0.067c0.321,0,0.722,0.027,0.936,0.067v4.264c0,1.043,0.308,1.417,1.15,1.417
			c0.855,0,1.149-0.374,1.149-1.417v-4.264c0.187-0.04,0.602-0.067,0.936-0.067s0.775,0.04,0.909,0.067V276.219z"/>
		<path style="fill:#BAA875;" d="M62.09,273.358c-0.695,0.106-1.443,0.348-2.112,0.694v4.853c-0.187,0.04-0.588,0.066-0.909,0.066
			c-0.321,0-0.789-0.026-0.936-0.066v-6.964c0.201-0.027,0.535-0.067,0.802-0.067c0.227,0,0.588,0.027,0.775,0.067l0.106,0.855
			c0.495-0.441,1.391-0.923,2.259-0.989c0.027,0.106,0.053,0.494,0.053,0.775C62.13,272.851,62.117,273.171,62.09,273.358z"/>
		<path style="fill:#BAA875;" d="M68.05,272.689c0,0.294-0.04,0.615-0.134,0.896c-0.441-0.174-1.016-0.28-1.564-0.28
			c-1.042,0-1.751,0.668-1.751,2.165c0,1.311,0.602,2.072,1.765,2.072c0.602,0,1.176-0.107,1.604-0.254
			c0.08,0.294,0.12,0.655,0.12,0.936c0,0.188,0,0.32-0.013,0.441c-0.535,0.24-1.243,0.374-1.912,0.374
			c-2.312,0-3.462-1.351-3.462-3.542c0-2.272,1.203-3.689,3.542-3.689c0.655,0,1.297,0.134,1.751,0.348
			C68.037,272.302,68.05,272.489,68.05,272.689z"/>
		<path style="fill:#BAA875;" d="M74.972,276.071h-4.224c0.027,0.869,0.628,1.511,1.791,1.511c0.628,0,1.27-0.08,1.818-0.228
			c0.08,0.361,0.134,0.762,0.134,1.123c0,0.054,0,0.12-0.014,0.268c-0.682,0.2-1.39,0.294-2.085,0.294
			c-2.54,0-3.596-1.457-3.596-3.582c0-1.858,1.042-3.649,3.302-3.649c2.139,0,2.914,1.577,2.914,3.314
			C75.012,275.363,75.012,275.724,74.972,276.071z M73.168,274.748c0-0.842-0.228-1.551-1.096-1.551
			c-0.829,0-1.27,0.655-1.323,1.551H73.168z"/>
		<path style="fill:#BAA875;" d="M77.109,273.786c-0.535,0-0.976-0.441-0.976-0.976c0-0.535,0.441-0.977,0.976-0.977
			s0.976,0.441,0.976,0.977C78.084,273.345,77.644,273.786,77.109,273.786z M77.109,279.119c-0.535,0-0.976-0.441-0.976-0.976
			c0-0.535,0.441-0.976,0.976-0.976s0.976,0.44,0.976,0.976C78.084,278.678,77.644,279.119,77.109,279.119z"/>
		<path style="fill:#BAA875;" d="M83.63,271.18c-0.562,0-1.016-0.455-1.016-1.017s0.455-1.016,1.016-1.016
			c0.561,0,1.016,0.454,1.016,1.016S84.191,271.18,83.63,271.18z M84.553,278.905c-0.241,0.054-0.735,0.066-0.949,0.066
			c-0.321,0-0.668-0.026-0.896-0.066v-6.964c0.294-0.04,0.655-0.067,0.896-0.067c0.321,0,0.655,0.027,0.949,0.067V278.905z"/>
		<path style="fill:#BAA875;" d="M92.424,278.905c-0.214,0.054-0.668,0.066-0.882,0.066c-0.227,0-0.749-0.026-0.962-0.066v-4.571
			c0-0.722-0.374-1.029-0.976-1.029c-0.481,0-1.029,0.174-1.457,0.441v5.159c-0.308,0.054-0.735,0.066-0.976,0.066
			c-0.214,0-0.602-0.013-0.869-0.066v-6.964c0.174-0.04,0.602-0.067,0.802-0.067c0.187,0,0.575,0.027,0.775,0.067l0.093,0.614
			c0.602-0.44,1.47-0.748,2.246-0.748c1.47,0,2.206,0.909,2.206,2.433V278.905z"/>
		<path style="fill:#BAA875;" d="M99.961,278.905c-0.214,0.04-0.575,0.066-0.855,0.066c-0.254,0-0.548-0.026-0.735-0.066
			l-0.053-0.615c-0.481,0.468-1.096,0.749-1.818,0.749c-1.992,0-2.847-1.591-2.847-3.502c0-2.059,0.922-3.729,3.047-3.729
			c0.521,0,1.123,0.16,1.417,0.348v-2.994c0.241-0.04,0.642-0.067,0.936-0.067c0.361,0,0.642,0.04,0.909,0.067V278.905z
			 M98.116,273.532c-0.321-0.147-0.735-0.228-1.083-0.228c-1.083,0-1.484,0.962-1.484,2.125c0,0.976,0.241,2.086,1.323,2.086
			c0.521,0,0.922-0.215,1.243-0.481V273.532z"/>
		<path style="fill:#BAA875;" d="M107.364,276.071h-4.224c0.027,0.869,0.628,1.511,1.791,1.511c0.628,0,1.27-0.08,1.818-0.228
			c0.08,0.361,0.134,0.762,0.134,1.123c0,0.054,0,0.12-0.014,0.268c-0.682,0.2-1.39,0.294-2.085,0.294
			c-2.54,0-3.596-1.457-3.596-3.582c0-1.858,1.042-3.649,3.302-3.649c2.139,0,2.914,1.577,2.914,3.314
			C107.404,275.363,107.404,275.724,107.364,276.071z M105.56,274.748c0-0.842-0.228-1.551-1.096-1.551
			c-0.829,0-1.27,0.655-1.323,1.551H105.56z"/>
		<path style="fill:#BAA875;" d="M111.813,278.905c-0.415,0-0.976-0.066-1.31-0.16v3.302c-0.241,0.04-0.642,0.066-0.936,0.066
			c-0.361,0-0.642-0.04-0.909-0.066v-10.092c0.214-0.041,0.575-0.067,0.855-0.067c0.254,0,0.535,0.026,0.722,0.067l0.066,0.574
			c0.428-0.401,1.203-0.722,1.925-0.722c1.912,0,2.767,1.563,2.767,3.354C114.995,277.234,113.925,278.905,111.813,278.905z
			 M111.84,273.305c-0.494,0-1.016,0.2-1.336,0.494v3.543c0.254,0.08,0.749,0.133,1.096,0.133c0.989,0,1.497-0.814,1.497-2.165
			C113.097,273.986,112.615,273.305,111.84,273.305z"/>
		<path style="fill:#BAA875;" d="M122.023,276.071H117.8c0.026,0.869,0.628,1.511,1.791,1.511c0.628,0,1.27-0.08,1.818-0.228
			c0.08,0.361,0.134,0.762,0.134,1.123c0,0.054,0,0.12-0.014,0.268c-0.682,0.2-1.39,0.294-2.085,0.294
			c-2.54,0-3.596-1.457-3.596-3.582c0-1.858,1.042-3.649,3.302-3.649c2.139,0,2.914,1.577,2.914,3.314
			C122.063,275.363,122.063,275.724,122.023,276.071z M120.219,274.748c0-0.842-0.228-1.551-1.096-1.551
			c-0.829,0-1.27,0.655-1.323,1.551H120.219z"/>
		<path style="fill:#BAA875;" d="M129.44,278.905c-0.214,0.054-0.668,0.066-0.882,0.066c-0.227,0-0.749-0.026-0.962-0.066v-4.571
			c0-0.722-0.374-1.029-0.976-1.029c-0.481,0-1.029,0.174-1.457,0.441v5.159c-0.308,0.054-0.735,0.066-0.976,0.066
			c-0.214,0-0.602-0.013-0.869-0.066v-6.964c0.174-0.04,0.602-0.067,0.802-0.067c0.187,0,0.575,0.027,0.775,0.067l0.093,0.614
			c0.602-0.44,1.47-0.748,2.246-0.748c1.47,0,2.206,0.909,2.206,2.433V278.905z"/>
		<path style="fill:#BAA875;" d="M136.977,278.905c-0.214,0.04-0.575,0.066-0.855,0.066c-0.254,0-0.548-0.026-0.735-0.066
			l-0.053-0.615c-0.481,0.468-1.096,0.749-1.818,0.749c-1.992,0-2.847-1.591-2.847-3.502c0-2.059,0.922-3.729,3.047-3.729
			c0.521,0,1.123,0.16,1.417,0.348v-2.994c0.241-0.04,0.642-0.067,0.936-0.067c0.361,0,0.642,0.04,0.909,0.067V278.905z
			 M135.132,273.532c-0.321-0.147-0.735-0.228-1.083-0.228c-1.083,0-1.484,0.962-1.484,2.125c0,0.976,0.241,2.086,1.323,2.086
			c0.521,0,0.922-0.215,1.243-0.481V273.532z"/>
		<path style="fill:#BAA875;" d="M144.38,276.071h-4.224c0.026,0.869,0.628,1.511,1.791,1.511c0.628,0,1.27-0.08,1.818-0.228
			c0.08,0.361,0.134,0.762,0.134,1.123c0,0.054,0,0.12-0.014,0.268c-0.682,0.2-1.39,0.294-2.085,0.294
			c-2.54,0-3.596-1.457-3.596-3.582c0-1.858,1.042-3.649,3.302-3.649c2.139,0,2.914,1.577,2.914,3.314
			C144.42,275.363,144.42,275.724,144.38,276.071z M142.576,274.748c0-0.842-0.228-1.551-1.096-1.551
			c-0.829,0-1.27,0.655-1.323,1.551H142.576z"/>
		<path style="fill:#BAA875;" d="M151.797,278.905c-0.215,0.054-0.669,0.066-0.883,0.066c-0.227,0-0.749-0.026-0.962-0.066v-4.571
			c0-0.722-0.374-1.029-0.976-1.029c-0.481,0-1.029,0.174-1.457,0.441v5.159c-0.308,0.054-0.735,0.066-0.976,0.066
			c-0.214,0-0.602-0.013-0.869-0.066v-6.964c0.174-0.04,0.602-0.067,0.802-0.067c0.187,0,0.575,0.027,0.775,0.067l0.093,0.614
			c0.602-0.44,1.47-0.748,2.246-0.748c1.47,0,2.206,0.909,2.206,2.433V278.905z"/>
		<path style="fill:#BAA875;" d="M157.836,278.771c-0.401,0.16-0.883,0.268-1.657,0.268c-1.511,0-2.259-0.735-2.259-2.206v-3.515
			h-1.15c-0.053-0.201-0.094-0.535-0.094-0.709c0-0.16,0.041-0.454,0.081-0.588l1.163-0.08v-1.791
			c0.146-0.027,0.614-0.054,0.922-0.054c0.334,0,0.748,0.026,0.922,0.054v1.791h1.925c0.054,0.187,0.081,0.454,0.081,0.602
			c0,0.16-0.014,0.588-0.067,0.775h-1.938v3.248c0,0.668,0.268,0.962,0.923,0.962c0.36,0,0.802-0.054,1.109-0.16
			c0.054,0.174,0.12,0.508,0.12,0.815C157.916,278.344,157.89,278.625,157.836,278.771z"/>
		<path style="fill:#BAA875;" d="M159.973,279.119c-0.535,0-0.976-0.441-0.976-0.976c0-0.535,0.44-0.976,0.976-0.976
			c0.534,0,0.976,0.44,0.976,0.976C160.948,278.678,160.507,279.119,159.973,279.119z"/>
		<path style="fill:#BAA875;" d="M167.123,272.689c0,0.294-0.04,0.615-0.134,0.896c-0.441-0.174-1.016-0.28-1.563-0.28
			c-1.043,0-1.751,0.668-1.751,2.165c0,1.311,0.602,2.072,1.764,2.072c0.602,0,1.177-0.107,1.604-0.254
			c0.08,0.294,0.12,0.655,0.12,0.936c0,0.188,0,0.32-0.014,0.441c-0.534,0.24-1.243,0.374-1.911,0.374
			c-2.312,0-3.462-1.351-3.462-3.542c0-2.272,1.203-3.689,3.542-3.689c0.655,0,1.297,0.134,1.751,0.348
			C167.109,272.302,167.123,272.489,167.123,272.689z"/>
		<path style="fill:#BAA875;" d="M171.172,279.039c-2.019,0-3.302-1.297-3.302-3.596c0-2.286,1.27-3.636,3.302-3.636
			c2.031,0,3.302,1.337,3.302,3.622C174.474,277.716,173.203,279.039,171.172,279.039z M171.172,273.251
			c-0.869,0-1.403,0.588-1.403,2.179s0.534,2.166,1.403,2.166s1.403-0.575,1.403-2.166
			C172.575,273.826,172.041,273.251,171.172,273.251z"/>
		<path style="fill:#BAA875;" d="M176.396,279.119c-0.535,0-0.976-0.441-0.976-0.976c0-0.535,0.44-0.976,0.976-0.976
			c0.534,0,0.976,0.44,0.976,0.976C177.372,278.678,176.931,279.119,176.396,279.119z"/>
		<path style="fill:#BAA875;" d="M184.576,276.219c0,1.991-0.936,2.82-3.021,2.82c-2.032,0-2.968-0.829-2.968-2.82v-4.277
			c0.188-0.027,0.548-0.067,0.909-0.067c0.321,0,0.722,0.027,0.936,0.067v4.264c0,1.043,0.308,1.417,1.149,1.417
			c0.855,0,1.149-0.374,1.149-1.417v-4.264c0.188-0.04,0.602-0.067,0.937-0.067c0.334,0,0.774,0.04,0.908,0.067V276.219z"/>
		<path style="fill:#BAA875;" d="M192.42,278.905c-0.227,0.04-0.694,0.066-1.002,0.066c-0.268,0-0.815-0.026-1.016-0.066
			l-1.778-2.994l-0.575,0.548v2.446c-0.24,0.054-0.734,0.066-0.948,0.066c-0.321,0-0.669-0.026-0.896-0.066v-9.744
			c0.294-0.04,0.654-0.067,0.896-0.067c0.32,0,0.654,0.027,0.948,0.067v5.347l1.431-1.391c0.388-0.388,0.655-0.828,0.708-1.176
			c0.228-0.04,0.655-0.067,0.896-0.067c0.28,0,0.668,0.027,0.855,0.067c-0.054,0.695-0.401,1.323-1.163,2.085l-0.909,0.882
			L192.42,278.905z"/>
		<path style="fill:#BAA875;" d="M195.199,274.949c0-1.872-0.695-3.689-2.006-5.08c0.188-0.268,0.655-0.642,1.057-0.722
			c1.671,1.483,2.753,3.462,2.753,5.802c0,2.299-1.042,4.224-2.753,5.801c-0.401-0.08-0.869-0.455-1.057-0.722
			C194.45,278.584,195.199,276.82,195.199,274.949z"/>
	</g>
</g>
</svg>
