<?xml version="1.0" encoding="utf-8"?>
<!-- Generator: Adobe Illustrator 16.0.0, SVG Export Plug-In . SVG Version: 6.00 Build 0)  -->
<!DOCTYPE svg PUBLIC "-//W3C//DTD SVG 1.0//EN" "http://www.w3.org/TR/2001/REC-SVG-20010904/DTD/svg10.dtd">
<svg version="1.0" xmlns="http://www.w3.org/2000/svg" xmlns:xlink="http://www.w3.org/1999/xlink" x="0px" y="0px" width="300px"
	 height="300px" viewBox="0 0 300 300" style="enable-background:new 0 0 300 300;" xml:space="preserve">
<g id="Layer_1">
	<path style="fill:#96C6C4;" d="M79.629,84.076c-2.188-2.431-4.39-8.049-4.388-15.115c0-5.193,3.651-11.335,9.186-13.533
		c-0.646-5.011,0.46-10.99,4.61-14.532c1.973-1.684,4.325-2.94,6.808-3.634l1.511,5.404c-1.702,0.475-3.318,1.339-4.675,2.498
		c-2.911,2.485-3.351,7.796-2.285,11.533c0.223,0.788,0.093,1.637-0.365,2.322c-0.453,0.684-1.184,1.131-1.998,1.231
		c-4.317,0.519-7.183,5.589-7.183,8.713c0,6.593,2.188,10.509,2.954,11.363L79.629,84.076z"/>
	<path style="fill:#96C6C4;" d="M125.368,153.707c-1.294,0-2.586-0.082-3.85-0.245c-5.056-0.65-9.728-3.392-12.816-7.523
		c-2.03-2.718-2.811-5.634-3.566-8.454c-0.022-0.078-0.045-0.158-0.065-0.233c-4.472,0.563-9.188-2.154-11.656-4.249
		c-3.792-3.217-4.946-8.062-3.363-13.844c-5.186-1.759-10.873-6.023-12.985-10.084c-4.769-9.173-3.349-19.948,3.702-28.122
		l4.247,3.669c-5.516,6.393-6.658,14.772-2.968,21.863c1.584,3.053,7.669,7.418,11.958,7.869c0.881,0.092,1.664,0.596,2.115,1.356
		c0.456,0.764,0.521,1.694,0.181,2.51c-1.384,3.329-2.378,7.854,0.743,10.505c2.541,2.155,6.503,3.751,8.475,2.57
		c0.731-0.436,1.62-0.518,2.417-0.223c0.799,0.295,1.417,0.936,1.688,1.744c0.36,1.086,0.65,2.168,0.93,3.214
		c0.649,2.415,1.26,4.695,2.644,6.547c2.152,2.881,5.531,4.868,9.038,5.319c6.347,0.819,16.609-0.826,18.843-8.688
		c0.053-0.18,0.118-0.35,0.205-0.518c0.619-1.199,0.932-2.493,0.932-3.847V29.248c0-4.64-3.774-8.417-8.417-8.417h-1.529
		c-4.33,0-7.927,3.243-8.372,7.54c-0.098,0.955-0.679,1.792-1.537,2.22c-0.856,0.431-1.872,0.391-2.695-0.103
		c-1.352-0.811-5.104-0.468-7.399,0.103c-3.438,1.35-5.283,3.577-5.979,7.201l-5.511-1.059c1.068-5.564,4.31-9.413,9.636-11.443
		c0.097-0.038,0.197-0.071,0.297-0.095c0.951-0.246,4.805-1.151,8.337-0.661c1.94-5.484,7.15-9.313,13.223-9.313h1.529
		c7.736,0,14.031,6.292,14.031,14.025v105.595c0,2.13-0.496,4.258-1.432,6.167C143.773,149.665,134.453,153.707,125.368,153.707"/>
	<path style="fill:#96C6C4;" d="M218.192,63.169c-1.553-1.592-3.728-2.631-6.13-2.916c-0.909-0.109-1.71-0.661-2.141-1.469
		c-0.433-0.812-0.438-1.782-0.019-2.595c1.896-3.705,0.241-8.693-2.489-11.025c-1.58-1.347-3.469-2.278-5.459-2.688
		c-0.923-0.193-1.902-0.256-2.993-0.203l-0.037,0.01c-0.313,0.087-0.896,0.25-1.76,0.167c-1.479-0.143-2.593-1.412-2.538-2.896
		c0.01-0.292,0.085-0.675,0.253-1.056c-0.944-4.182-4.873-9.651-9.028-9.651h-0.012c-2.202,0.008-3.552,0.297-4.653,1.011
		l-3.043-4.713c2.585-1.672,5.331-1.902,7.679-1.91h0.029c7.139,0,12.68,7.268,14.342,13.416c1.006,0.025,1.96,0.135,2.896,0.328
		c2.916,0.601,5.67,1.957,7.967,3.917c3.689,3.148,6.142,9.003,5.004,14.532c2.354,0.793,4.472,2.1,6.151,3.827L218.192,63.169z"/>
	<path style="fill:#96C6C4;" d="M174.622,153.713c-8.823,0-18.144-3.724-20.853-12.707c-0.897-1.84-1.354-3.912-1.354-6.16V29.251
		c0-7.736,6.228-14.031,13.879-14.031h1.532c3.536,0,7.042,1.392,9.615,3.817c1.822,1.714,2.909,3.271,3.326,4.755
		c0.135,0.48,0.25,1.008,0.36,1.659l-5.533,0.937c-0.075-0.448-0.148-0.791-0.23-1.079c0-0.008-0.216-0.723-1.77-2.187
		c-1.547-1.454-3.646-2.288-5.769-2.288h-1.532c-4.635,0-8.268,3.697-8.268,8.417v105.595c0,1.449,0.291,2.743,0.857,3.844
		c0.087,0.165,0.152,0.34,0.205,0.518c2.232,7.856,12.45,9.499,18.771,8.688c3.507-0.448,6.883-2.438,9.035-5.319
		c2.223-2.971,3.52-6.865,3.614-9.02c0.043-0.991,0.604-1.882,1.472-2.353c0.871-0.468,1.922-0.442,2.771,0.065
		c1.944,1.162,5.747-0.38,8.3-2.547c2.823-2.396,2.408-7.514,0.74-11.523c-0.34-0.819-0.273-1.75,0.181-2.513
		c0.456-0.761,1.243-1.264,2.126-1.354c4.151-0.426,8.557-3.199,10.248-6.455c3.269-6.282,4.64-15.437-1.297-22.291
		c-1.016-1.171-0.885-2.943,0.286-3.957c0.524-0.46,1.183-0.688,1.834-0.688c0.016,0,0.03,0,0.046,0.005
		c1.021-0.875,3.557-4.017,3.557-9.963c0-1.114-0.148-2.173-0.441-3.144l5.376-1.617c0.449,1.497,0.676,3.099,0.676,4.761
		c0,6.538-2.462,11.297-5.008,13.758c4.522,7.281,4.575,16.829-0.048,25.725c-2.092,4.022-6.471,7.343-11.29,8.774
		c1.281,5.054,0.998,11.068-3.356,14.763c-3.071,2.607-7.3,4.552-11.127,4.237c-0.781,2.971-2.301,6.207-4.162,8.697
		c-3.09,4.134-7.76,6.878-12.817,7.526C177.285,153.63,175.958,153.713,174.622,153.713"/>
	<path style="fill:#96C6C4;" d="M126.269,82.637c-5.576,0-10.774-4.15-12.589-8.807c-1.62-4.155-0.621-8.268,0.263-11.897
		c0.403-1.652,0.781-3.208,0.906-4.672c0.403-4.678-1.877-10.027-5.549-13.01c-1.834-1.491-4.805-3.033-8.535-1.917l-1.612-5.376
		c4.748-1.419,9.609-0.378,13.688,2.94c5.105,4.15,8.16,11.321,7.599,17.841c-0.163,1.892-0.611,3.737-1.043,5.521
		c-0.753,3.096-1.467,6.024-0.488,8.533c1.179,3.028,5.201,5.906,8.622,5.085c0.253-0.063,0.473-0.105,0.671-0.145
		c0.087-0.015,0.167-0.028,0.24-0.048c-0.153,0.041-0.365,0.16-0.488,0.273l4.558,3.259c-1.071,1.499-2.193,1.824-3.249,2.027
		c-0.123,0.023-0.26,0.047-0.418,0.087C127.984,82.54,127.123,82.637,126.269,82.637"/>
	<path style="fill:#96C6C4;" d="M129.811,49.176c-1.336,0-2.633-0.183-3.832-0.566l1.697-5.348c2.64,0.835,7.331-0.059,10.822-3.367
		c1.997-1.892,5.078-6.092,3.297-12.98l5.431-1.407c1.829,7.066,0.058,13.793-4.865,18.459
		C138.865,47.279,134.116,49.176,129.811,49.176"/>
	<path style="fill:#96C6C4;" d="M91.705,92.042l-0.531-0.23c-4.938-2.13-10.044-4.335-13.093-10.242L83.07,79
		c2.127,4.125,5.747,5.685,10.327,7.662l0.538,0.232L91.705,92.042z"/>
	<path style="fill:#96C6C4;" d="M97.504,67.241c-0.19-2.407-1.582-4.76-3.634-6.142c-1.767-1.191-3.771-1.517-5.644-0.926
		l-1.697-5.349c3.489-1.104,7.303-0.515,10.472,1.617c3.492,2.351,5.769,6.225,6.098,10.36L97.504,67.241z"/>
	<path style="fill:#96C6C4;" d="M108.562,114.583l-4.961-2.621c2.14-4.047,2.688-7.924,1.592-11.203
		c-0.962-2.871-3.184-5.194-6.422-6.71l2.382-5.083c4.663,2.187,7.9,5.649,9.361,10.011
		C112.113,103.751,111.434,109.145,108.562,114.583"/>
	<path style="fill:#96C6C4;" d="M127.077,116.65l-3.901-4.034c2.152-2.08,3.176-6.279,2.383-9.769
		c-0.428-1.885-1.534-4.33-4.38-5.278l1.774-5.324c4.092,1.363,7.039,4.775,8.079,9.358
		C132.261,107.021,130.637,113.209,127.077,116.65"/>
	<path style="fill:#96C6C4;" d="M105.889,140.237c-2.368-5.451-1.996-11.172,1.073-16.539c3.569-6.237,8.71-7.125,14.154-8.066
		l0.132-0.022l0.957,5.529l-0.133,0.022c-5.391,0.933-8.08,1.546-10.239,5.323c-2.187,3.825-2.455,7.699-0.795,11.519
		L105.889,140.237z"/>
	<path style="fill:#96C6C4;" d="M138.053,144.807c-1.717,0-3.457-0.38-4.983-1.131c-5.81-2.858-6.312-7.679-6.328-12.369l5.609-0.02
		c0.018,4.347,0.48,6.016,3.196,7.356c1.339,0.658,3.056,0.748,4.371,0.225c0.891-0.35,1.49-0.941,1.794-1.754l5.256,1.968
		c-0.856,2.29-2.622,4.067-4.979,5.003C140.766,144.567,139.416,144.807,138.053,144.807"/>
	<path style="fill:#96C6C4;" d="M119.594,37.059c-1.491-2.783-2.5-8.654-0.417-11.991l4.76,2.968
		c-0.651,1.044-0.308,4.678,0.601,6.373L119.594,37.059z"/>
	<path style="fill:#96C6C4;" d="M180.117,44.891c-4.901-1.427-7.937-5.549-7.725-10.507c0.196-4.613,3.189-8.405,7.275-9.223
		l1.104,5.501c-1.802,0.363-2.703,2.308-2.771,3.959c-0.051,1.131,0.212,3.872,3.682,4.88L180.117,44.891z"/>
	<path style="fill:#BBA461;" d="M205.438,69.347c2.996,11.185-3.665,22.721-14.848,25.717l-13.958,3.741v15.34h-7.406V93.118
		l19.448-5.21c7.237-1.94,11.545-9.406,9.604-16.642c-1.935-7.24-9.4-11.547-16.642-9.611c-7.235,1.94-11.545,9.406-9.605,16.644
		l1.502,5.609l-7.155,1.917l-1.505-5.606c-2.996-11.186,3.664-22.724,14.848-25.719C190.906,51.503,202.44,58.164,205.438,69.347"/>
	<rect x="169.223" y="120.407" style="fill:#BBA461;" width="7.411" height="8.648"/>
</g>
<g id="Layer_2" style="display:none;">
	<text transform="matrix(1 0 0 1 60.936 254.9014)" style="display:inline;"><tspan x="0" y="0" style="fill:#61B1AD; font-family:'FSMatthew-Bold'; font-size:31.029;">P</tspan><tspan x="17.221" y="0" style="fill:#61B1AD; font-family:'FSMatthew-Bold'; font-size:31.029;">S</tspan><tspan x="32.983" y="0" style="fill:#61B1AD; font-family:'FSMatthew-Bold'; font-size:31.029;">Y</tspan><tspan x="49.676" y="0" style="fill:#61B1AD; font-family:'FSMatthew-Bold'; font-size:31.029;">CHO</tspan><tspan x="107.048" y="0" style="fill:#61B1AD; font-family:'FSMatthew-Bold'; font-size:31.029; letter-spacing:-1;">L</tspan><tspan x="122.283" y="0" style="fill:#61B1AD; font-family:'FSMatthew-Bold'; font-size:31.029;">OG</tspan><tspan x="161.379" y="0" style="fill:#61B1AD; font-family:'FSMatthew-Bold'; font-size:31.029;">Y </tspan></text>
	<text transform="matrix(1 0 0 1 63.3013 197.1621)" style="display:inline;"><tspan x="0" y="0" style="fill:#B4A168; font-family:'FSMatthew-Bold'; font-size:44.9654;">L</tspan><tspan x="23.831" y="0" style="fill:#B4A168; font-family:'FSMatthew-Bold'; font-size:44.9654;">A</tspan><tspan x="52.474" y="0" style="fill:#B4A168; font-family:'FSMatthew-Bold'; font-size:44.9654; letter-spacing:-1;">R</tspan><tspan x="77.969" y="0" style="fill:#B4A168; font-family:'FSMatthew-Bold'; font-size:44.9654;">GE</tspan><tspan x="129.634" y="0" style="fill:#B4A168; font-family:'FSMatthew-Bold'; font-size:44.9654; letter-spacing:-2;">S</tspan><tspan x="151.846" y="0" style="fill:#B4A168; font-family:'FSMatthew-Bold'; font-size:44.9654; letter-spacing:-2;">T</tspan><tspan x="174.239" y="0" style="fill:#B4A168; font-family:'FSMatthew-Bold'; font-size:44.9654; letter-spacing:-1;"> </tspan><tspan x="182.602" y="0" style="fill:#B4A168; font-family:'FSMatthew-Bold'; font-size:44.9654;"> </tspan></text>
	<text transform="matrix(1 0 0 1 61.8862 227.1387)" style="display:inline;"><tspan x="0" y="0" style="fill:#B4A168; font-family:'FSMatthew-Bold'; font-size:36.6385;">S</tspan><tspan x="19.052" y="0" style="fill:#B4A168; font-family:'FSMatthew-Bold'; font-size:36.6385;">CHOO</tspan><tspan x="110.06" y="0" style="fill:#B4A168; font-family:'FSMatthew-Bold'; font-size:36.6385; letter-spacing:-2;">L</tspan><tspan x="126.804" y="0" style="fill:#B4A168; font-family:'FSMatthew-Bold'; font-size:36.6385;"> O</tspan><tspan x="157.616" y="0" style="fill:#B4A168; font-family:'FSMatthew-Bold'; font-size:36.6385;">F </tspan></text>
	<path style="display:inline;fill:#61B1AD;" d="M135.916,268.911c0-2.004-1.152-2.765-3.093-2.765c-0.499,0-1.285,0-1.653,0.021
		v5.726h1.482C134.696,271.894,135.916,270.979,135.916,268.911 M165.096,274.004h4.549l-1.742-5.003
		c-0.284-0.827-0.455-1.502-0.563-2.091h-0.025c-0.108,0.589-0.325,1.282-0.586,2.111L165.096,274.004z M196.845,276.396
		c1.021-1.064,1.395-2.784,1.395-4.612c0-3.722-1.066-5.638-5.097-5.638c-0.436,0-1.216,0.021-1.674,0.042v11.405
		c0.39,0.046,1.108,0.067,1.872,0.067C194.995,277.661,196.084,277.203,196.845,276.396 M200.52,271.827
		c0,2.851-0.781,4.963-2.261,6.159c-1.262,0.998-3.003,1.39-5.441,1.39c-1.001,0-2.87-0.044-3.523-0.107V264.56
		c1.001-0.063,2.347-0.108,3.871-0.108C198.217,264.451,200.52,266.539,200.52,271.827 M186.463,279.269
		c-0.173,0.063-0.543,0.088-0.826,0.088c-0.26,0-0.521-0.024-0.761-0.088l-7.75-10.988v10.988c-0.193,0.063-0.714,0.107-1.04,0.107
		c-0.263,0-0.676-0.02-0.956-0.107V264.56c0.174-0.044,0.631-0.089,0.849-0.089c0.279,0,0.65,0.025,0.868,0.089l7.616,10.812V264.56
		c0.241-0.063,0.653-0.108,0.937-0.108c0.261,0,0.848,0.045,1.063,0.108V279.269z M173.798,279.269
		c-0.194,0.042-0.718,0.107-1.129,0.107c-0.327,0-0.848-0.02-1.176-0.107l-1.218-3.484h-5.747l-1.13,3.484
		c-0.285,0.042-0.74,0.107-1.176,0.107c-0.305,0-0.738-0.044-1.023-0.107l5.073-14.709c0.257-0.063,0.803-0.108,1.087-0.108
		c0.305,0,0.802,0.064,1,0.108L173.798,279.269z M160.197,278.377c0,0.282-0.02,0.607-0.107,0.892h-8.768V264.56
		c0.368-0.063,0.762-0.108,1.152-0.108c0.37,0,0.672,0.045,1.021,0.108v12.926h6.594
		C160.178,277.749,160.197,278.116,160.197,278.377 M149.318,278.377c0,0.282-0.023,0.607-0.111,0.892h-8.568V264.56h8.244
		c0.087,0.262,0.109,0.631,0.109,0.893c0,0.281-0.022,0.606-0.109,0.891h-6.072v4.44h5.246c0.085,0.26,0.107,0.631,0.107,0.891
		c0,0.28-0.022,0.611-0.107,0.892h-5.246v4.92h6.396C149.295,277.749,149.318,278.116,149.318,278.377 M135.262,273.196l3.524,6.072
		c-0.437,0.063-0.871,0.107-1.307,0.107c-0.413,0-0.758-0.02-1.174-0.107l-3.221-5.659h-1.915v5.659
		c-0.37,0.063-0.741,0.107-1.108,0.107c-0.347,0-0.718-0.044-1.064-0.107V264.56c1.064-0.063,2.348-0.108,3.587-0.108
		c3.071,0,5.526,0.934,5.526,4.46C138.11,270.85,137.047,272.545,135.262,273.196 M126.057,279.269
		c-0.349,0.042-0.696,0.107-1.046,0.107c-0.388,0-0.738-0.044-1.126-0.107V264.56c0.368-0.063,0.713-0.108,1.106-0.108
		c0.371,0,0.718,0.045,1.066,0.108V279.269z M116.588,279.269c-0.172,0.063-0.543,0.088-0.823,0.088
		c-0.263,0-0.521-0.024-0.761-0.088l-7.749-10.988v10.988c-0.197,0.063-0.718,0.107-1.043,0.107c-0.26,0-0.673-0.02-0.957-0.107
		V264.56c0.173-0.044,0.631-0.089,0.846-0.089c0.285,0,0.653,0.025,0.872,0.089l7.618,10.812V264.56
		c0.238-0.063,0.653-0.108,0.934-0.108c0.263,0,0.846,0.045,1.063,0.108V279.269z M102.314,279.269
		c-0.348,0.042-0.696,0.107-1.044,0.107c-0.391,0-0.738-0.044-1.131-0.107V264.56c0.373-0.063,0.719-0.108,1.111-0.108
		c0.368,0,0.716,0.045,1.063,0.108V279.269z M239.003,261.588H61.658v22.103h177.345V261.588z"/>
</g>
<g id="Layer_3">
	<g>
		<path style="fill:#61B1AD;" d="M69.875,247.391h-2.172v7.511c-0.59,0.093-1.304,0.155-2.235,0.155
			c-0.838,0-1.614-0.062-2.204-0.155v-20.949c1.8-0.094,4.531-0.187,6.3-0.187c4.749,0,8.194,1.645,8.194,6.58
			C77.758,245.156,74.747,247.391,69.875,247.391z M69.75,237.428c-0.621,0-1.428,0.031-2.048,0.062v6.176h1.924
			c2.39,0,3.663-0.62,3.663-3.166C73.289,238.328,72.202,237.428,69.75,237.428z"/>
		<path style="fill:#61B1AD;" d="M86.195,255.212c-2.266,0-4.749-0.435-6.518-1.241c-0.093-0.435-0.155-0.993-0.155-1.49
			c0-0.745,0.093-1.459,0.31-2.297c1.832,0.745,4.252,1.211,6.146,1.211c2.204,0,3.383-1.024,3.383-2.421
			c0-1.552-0.993-2.204-4.003-3.135c-3.352-1.024-5.804-2.639-5.804-6.238c0-3.849,3.321-5.99,7.697-5.99
			c2.017,0,3.817,0.311,5.028,0.714c0.093,0.342,0.155,0.9,0.155,1.707c0,0.59-0.062,1.49-0.187,1.986
			c-1.552-0.403-3.321-0.621-4.749-0.621c-2.328,0-3.6,0.776-3.6,2.018c0,1.459,1.148,2.049,3.941,2.918
			c3.352,1.055,5.835,2.638,5.835,6.362C93.675,252.76,90.478,255.212,86.195,255.212z"/>
		<path style="fill:#61B1AD;" d="M109.686,238.731l-4.749,9.155v7.015c-0.59,0.093-1.272,0.155-2.204,0.155
			c-0.838,0-1.645-0.062-2.235-0.155v-7.076l-4.531-8.846c-0.993-1.924-1.521-3.507-1.521-5.09c0.497-0.062,1.396-0.124,2.172-0.124
			c0.745,0,1.583,0.031,2.172,0.124c0,1.304,0.187,2.173,0.9,3.662l2.079,4.283c0.466,0.932,0.869,2.049,0.993,2.7h0.031
			c0.155-0.651,0.652-1.8,1.024-2.607l2.142-4.5c0.466-0.962,0.745-2.079,0.745-3.507c0.589-0.093,1.521-0.155,2.266-0.155
			c0.869,0,1.521,0.062,2.017,0.155C110.989,235.504,110.369,237.396,109.686,238.731z"/>
		<path style="fill:#61B1AD;" d="M127.248,238.297c-1.49-0.466-3.352-0.807-4.842-0.807c-3.538,0-5.835,2.514-5.835,7.014
			c0,4.128,1.8,6.828,5.804,6.828c1.49,0,3.166-0.311,4.656-0.775c0.217,0.559,0.372,1.428,0.372,2.079
			c0,0.527-0.031,1.18-0.093,1.459c-1.552,0.714-3.539,1.117-5.37,1.117c-6.673,0-9.962-4.035-9.962-10.614
			c0-6.394,3.538-10.987,10.149-10.987c1.614,0,3.724,0.403,5.214,1.056c0.093,0.31,0.124,0.993,0.124,1.396
			C127.465,237.024,127.341,237.925,127.248,238.297z"/>
		<path style="fill:#61B1AD;" d="M146.548,254.901c-0.559,0.093-1.334,0.155-2.204,0.155c-0.869,0-1.645-0.062-2.234-0.155v-8.69
			h-7.293v8.69c-0.59,0.093-1.272,0.155-2.204,0.155c-0.838,0-1.645-0.062-2.235-0.155v-20.98c0.59-0.093,1.459-0.155,2.235-0.155
			c0.869,0,1.645,0.062,2.204,0.155v8.504h7.293v-8.504c0.683-0.093,1.458-0.155,2.234-0.155c0.745,0,1.676,0.062,2.204,0.155
			V254.901z"/>
		<path style="fill:#61B1AD;" d="M158.43,255.212c-5.741,0-8.783-3.973-8.783-10.801s3.042-10.801,8.783-10.801
			c5.742,0,8.784,3.973,8.784,10.801S164.172,255.212,158.43,255.212z M158.43,237.428c-2.669,0-4.189,2.049-4.189,6.983
			s1.521,6.983,4.189,6.983s4.19-2.049,4.19-6.983S161.099,237.428,158.43,237.428z"/>
		<path style="fill:#61B1AD;" d="M183.161,254.901h-12.849v-20.98c0.589-0.093,1.396-0.155,2.172-0.155
			c0.869,0,1.707,0.062,2.266,0.155v17.194h8.411c0.124,0.341,0.218,0.993,0.218,1.862
			C183.379,253.66,183.316,254.25,183.161,254.901z"/>
		<path style="fill:#61B1AD;" d="M193.367,255.212c-5.741,0-8.783-3.973-8.783-10.801s3.042-10.801,8.783-10.801
			c5.742,0,8.784,3.973,8.784,10.801S199.109,255.212,193.367,255.212z M193.367,237.428c-2.669,0-4.189,2.049-4.189,6.983
			s1.521,6.983,4.189,6.983c2.67,0,4.19-2.049,4.19-6.983S196.037,237.428,193.367,237.428z"/>
		<path style="fill:#61B1AD;" d="M221.047,254.095c-1.613,0.714-4.252,1.117-6.703,1.117c-6.983,0-10.057-4.47-10.057-10.584
			c0-6.394,3.787-11.018,10.521-11.018c1.925,0,4.128,0.403,5.432,0.962c0.093,0.497,0.155,1.242,0.155,1.583
			c0,0.683-0.124,1.428-0.248,1.894c-1.335-0.435-3.259-0.714-5.028-0.714c-4.469,0-6.238,3.259-6.238,7.231
			c0,4.221,1.862,6.921,5.617,6.921c0.838,0,1.646-0.062,2.111-0.187v-6.703c0.589-0.094,1.396-0.155,2.172-0.155
			c0.869,0,1.707,0.062,2.266,0.155V254.095z"/>
		<path style="fill:#61B1AD;" d="M238.082,238.731l-4.749,9.155v7.015c-0.589,0.093-1.272,0.155-2.203,0.155
			c-0.838,0-1.646-0.062-2.234-0.155v-7.076l-4.531-8.846c-0.993-1.924-1.521-3.507-1.521-5.09c0.497-0.062,1.396-0.124,2.173-0.124
			c0.745,0,1.583,0.031,2.173,0.124c0,1.304,0.186,2.173,0.899,3.662l2.08,4.283c0.465,0.932,0.869,2.049,0.993,2.7h0.03
			c0.155-0.651,0.652-1.8,1.024-2.607l2.142-4.5c0.466-0.962,0.745-2.079,0.745-3.507c0.59-0.093,1.521-0.155,2.266-0.155
			c0.869,0,1.521,0.062,2.018,0.155C239.386,235.504,238.765,237.396,238.082,238.731z"/>
	</g>
	<g>
		<path style="fill:#B4A168;" d="M85.291,197.162H66.674v-30.398c0.854-0.135,2.023-0.225,3.148-0.225
			c1.259,0,2.473,0.09,3.282,0.225v24.912h12.187c0.18,0.495,0.315,1.439,0.315,2.698C85.605,195.363,85.515,196.218,85.291,197.162
			z"/>
		<path style="fill:#B4A168;" d="M116.001,197.162c-0.584,0.135-1.979,0.225-3.462,0.225c-1.169,0-2.518-0.135-3.103-0.225
			l-2.249-6.16H96.396l-2.113,6.16c-0.989,0.135-2.159,0.225-3.328,0.225s-2.518-0.09-3.193-0.225l10.612-30.398
			c0.63-0.135,2.114-0.225,3.103-0.225c1.214,0,2.653,0.09,3.147,0.225L116.001,197.162z M105.254,185.65l-2.653-8.589
			c-0.314-0.989-0.629-2.248-0.899-3.643h-0.09c-0.225,1.395-0.584,2.653-0.899,3.643l-2.518,8.589H105.254z"/>
		<path style="fill:#B4A168;" d="M141.542,197.117c-1.169,0.18-2.383,0.27-3.777,0.27c-1.259,0-2.518-0.045-3.373-0.225
			l-6.161-10.927h-2.653v10.927c-1.124,0.18-2.068,0.225-3.282,0.225c-1.08,0-2.024-0.045-3.148-0.225v-30.398
			c2.068-0.135,6.385-0.225,8.994-0.225c7.645,0,11.467,2.698,11.467,9.713c0,3.732-2.249,7.465-5.396,8.813L141.542,197.117z
			 M128.546,171.801c-0.989,0-2.204,0.045-2.968,0.09v8.993h2.249c3.688,0,5.306-1.349,5.306-4.677
			C133.132,172.88,131.514,171.801,128.546,171.801z"/>
		<path style="fill:#B4A168;" d="M167.531,195.993c-2.339,1.034-6.161,1.618-9.713,1.618c-10.118,0-14.57-6.475-14.57-15.334
			c0-9.263,5.486-15.963,15.244-15.963c2.788,0,5.98,0.584,7.869,1.394c0.136,0.72,0.226,1.799,0.226,2.294
			c0,0.989-0.181,2.068-0.36,2.743c-1.934-0.63-4.722-1.035-7.284-1.035c-6.476,0-9.039,4.722-9.039,10.478
			c0,6.116,2.698,10.028,8.139,10.028c1.214,0,2.383-0.09,3.058-0.27v-9.714c0.854-0.135,2.023-0.225,3.147-0.225
			c1.26,0,2.474,0.09,3.283,0.225V195.993z"/>
		<path style="fill:#B4A168;" d="M191.767,197.162h-19.021v-30.398h18.616c0.18,0.495,0.314,1.439,0.314,2.698
			c0,0.989-0.09,1.844-0.314,2.788h-12.187v6.565h10.298c0.18,0.494,0.314,1.394,0.314,2.653c0,0.989-0.09,1.799-0.314,2.742
			h-10.298v7.465h12.591c0.181,0.495,0.315,1.439,0.315,2.698C192.082,195.363,191.992,196.218,191.767,197.162z"/>
		<path style="fill:#B4A168;" d="M204.582,197.611c-3.282,0-6.88-0.629-9.443-1.798c-0.135-0.63-0.225-1.439-0.225-2.159
			c0-1.079,0.135-2.113,0.45-3.327c2.652,1.079,6.16,1.754,8.903,1.754c3.192,0,4.901-1.484,4.901-3.508
			c0-2.248-1.439-3.192-5.801-4.542c-4.856-1.483-8.409-3.822-8.409-9.038c0-5.576,4.812-8.679,11.152-8.679
			c2.923,0,5.531,0.449,7.284,1.034c0.135,0.494,0.226,1.304,0.226,2.474c0,0.854-0.091,2.158-0.271,2.877
			c-2.248-0.584-4.812-0.898-6.88-0.898c-3.372,0-5.216,1.124-5.216,2.923c0,2.113,1.663,2.968,5.711,4.227
			c4.856,1.529,8.453,3.822,8.453,9.219C215.419,194.06,210.788,197.611,204.582,197.611z"/>
		<path style="fill:#B4A168;" d="M238.711,172.25h-8.05v24.912c-0.854,0.135-2.068,0.225-3.192,0.225s-2.339-0.09-3.238-0.225
			V172.25h-8.049c-0.18-0.585-0.314-1.979-0.314-2.743s0.18-2.158,0.359-2.743h22.484c0.18,0.585,0.314,1.979,0.314,2.743
			S238.891,171.665,238.711,172.25z"/>
	</g>
	<g>
		<path style="fill:#B4A168;" d="M71.375,227.505c-2.674,0-5.605-0.513-7.693-1.465c-0.11-0.514-0.184-1.173-0.184-1.759
			c0-0.88,0.11-1.722,0.367-2.711c2.162,0.879,5.019,1.429,7.254,1.429c2.601,0,3.993-1.209,3.993-2.857
			c0-1.832-1.172-2.602-4.726-3.701c-3.957-1.209-6.851-3.113-6.851-7.363c0-4.543,3.92-7.071,9.086-7.071
			c2.381,0,4.506,0.366,5.935,0.843c0.11,0.403,0.183,1.062,0.183,2.015c0,0.696-0.073,1.759-0.22,2.346
			c-1.832-0.477-3.92-0.733-5.605-0.733c-2.748,0-4.25,0.916-4.25,2.382c0,1.722,1.355,2.418,4.653,3.443
			c3.957,1.246,6.888,3.114,6.888,7.511C80.205,224.61,76.431,227.505,71.375,227.505z"/>
		<path style="fill:#B4A168;" d="M100.575,207.538c-1.759-0.55-3.957-0.952-5.715-0.952c-4.177,0-6.888,2.967-6.888,8.279
			c0,4.873,2.125,8.061,6.851,8.061c1.758,0,3.737-0.366,5.496-0.916c0.256,0.659,0.439,1.686,0.439,2.454
			c0,0.623-0.037,1.393-0.11,1.723c-1.832,0.842-4.177,1.318-6.338,1.318c-7.876,0-11.76-4.763-11.76-12.529
			c0-7.547,4.177-12.97,11.98-12.97c1.905,0,4.396,0.477,6.155,1.246c0.11,0.366,0.146,1.172,0.146,1.648
			C100.832,206.036,100.685,207.099,100.575,207.538z"/>
		<path style="fill:#B4A168;" d="M123.364,227.139c-0.66,0.11-1.576,0.184-2.602,0.184c-1.025,0-1.941-0.073-2.638-0.184v-10.258
			h-8.609v10.258c-0.696,0.11-1.502,0.184-2.601,0.184c-0.989,0-1.942-0.073-2.638-0.184v-24.767
			c0.696-0.109,1.722-0.183,2.638-0.183c1.025,0,1.941,0.073,2.601,0.183v10.039h8.609v-10.039c0.806-0.109,1.722-0.183,2.638-0.183
			c0.879,0,1.979,0.073,2.602,0.183V227.139z"/>
		<path style="fill:#B4A168;" d="M137.396,227.505c-6.778,0-10.368-4.689-10.368-12.749c0-8.061,3.59-12.75,10.368-12.75
			s10.368,4.689,10.368,12.75C147.765,222.815,144.174,227.505,137.396,227.505z M137.396,206.513c-3.15,0-4.946,2.418-4.946,8.243
			s1.795,8.243,4.946,8.243c3.151,0,4.946-2.418,4.946-8.243S140.547,206.513,137.396,206.513z"/>
		<path style="fill:#B4A168;" d="M160.661,227.505c-6.777,0-10.368-4.689-10.368-12.749c0-8.061,3.59-12.75,10.368-12.75
			c6.778,0,10.369,4.689,10.369,12.75C171.03,222.815,167.439,227.505,160.661,227.505z M160.661,206.513
			c-3.15,0-4.945,2.418-4.945,8.243s1.795,8.243,4.945,8.243c3.151,0,4.946-2.418,4.946-8.243S163.812,206.513,160.661,206.513z"/>
		<path style="fill:#B4A168;" d="M189.861,227.139h-15.167v-24.767c0.695-0.109,1.648-0.183,2.564-0.183
			c1.025,0,2.015,0.073,2.674,0.183v20.297h9.929c0.146,0.403,0.257,1.173,0.257,2.198
			C190.118,225.673,190.045,226.369,189.861,227.139z"/>
		<path style="fill:#B4A168;" d="M208.218,227.505c-6.778,0-10.368-4.689-10.368-12.749c0-8.061,3.59-12.75,10.368-12.75
			c6.777,0,10.368,4.689,10.368,12.75C218.586,222.815,214.995,227.505,208.218,227.505z M208.218,206.513
			c-3.151,0-4.946,2.418-4.946,8.243s1.795,8.243,4.946,8.243c3.15,0,4.945-2.418,4.945-8.243S211.368,206.513,208.218,206.513z"/>
		<path style="fill:#B4A168;" d="M237.234,206.842h-9.746v5.35h8.207c0.146,0.402,0.257,1.136,0.257,2.161
			c0,0.806-0.074,1.466-0.257,2.235h-8.207v10.551c-0.695,0.11-1.502,0.184-2.601,0.184c-0.989,0-1.942-0.073-2.638-0.184v-24.767
			h14.984c0.146,0.403,0.256,1.173,0.256,2.198C237.49,205.377,237.417,206.073,237.234,206.842z"/>
	</g>
	<path style="fill:#61B1AD;" d="M135.916,268.911c0-2.004-1.152-2.765-3.093-2.765c-0.499,0-1.285,0-1.653,0.021v5.726h1.482
		C134.696,271.894,135.916,270.979,135.916,268.911 M165.096,274.004h4.549l-1.742-5.003c-0.284-0.827-0.455-1.502-0.563-2.091
		h-0.025c-0.108,0.589-0.325,1.282-0.586,2.111L165.096,274.004z M196.845,276.396c1.021-1.064,1.395-2.784,1.395-4.612
		c0-3.722-1.066-5.638-5.097-5.638c-0.436,0-1.216,0.021-1.674,0.042v11.405c0.39,0.046,1.108,0.067,1.872,0.067
		C194.995,277.661,196.084,277.203,196.845,276.396 M200.52,271.827c0,2.851-0.781,4.963-2.261,6.159
		c-1.262,0.998-3.003,1.39-5.441,1.39c-1.001,0-2.87-0.044-3.523-0.107V264.56c1.001-0.063,2.347-0.108,3.871-0.108
		C198.217,264.451,200.52,266.539,200.52,271.827 M186.463,279.269c-0.173,0.063-0.543,0.088-0.826,0.088
		c-0.26,0-0.521-0.024-0.761-0.088l-7.75-10.988v10.988c-0.193,0.063-0.714,0.107-1.04,0.107c-0.263,0-0.676-0.02-0.956-0.107
		V264.56c0.174-0.044,0.631-0.089,0.849-0.089c0.279,0,0.65,0.025,0.868,0.089l7.616,10.812V264.56
		c0.241-0.063,0.653-0.108,0.937-0.108c0.261,0,0.848,0.045,1.063,0.108V279.269z M173.798,279.269
		c-0.194,0.042-0.718,0.107-1.129,0.107c-0.327,0-0.848-0.02-1.176-0.107l-1.218-3.484h-5.747l-1.13,3.484
		c-0.285,0.042-0.74,0.107-1.176,0.107c-0.305,0-0.738-0.044-1.023-0.107l5.073-14.709c0.257-0.063,0.803-0.108,1.087-0.108
		c0.305,0,0.802,0.064,1,0.108L173.798,279.269z M160.197,278.377c0,0.282-0.02,0.607-0.107,0.892h-8.768V264.56
		c0.368-0.063,0.762-0.108,1.152-0.108c0.37,0,0.672,0.045,1.021,0.108v12.926h6.594
		C160.178,277.749,160.197,278.116,160.197,278.377 M149.318,278.377c0,0.282-0.023,0.607-0.111,0.892h-8.568V264.56h8.244
		c0.087,0.262,0.109,0.631,0.109,0.893c0,0.281-0.022,0.606-0.109,0.891h-6.072v4.44h5.246c0.085,0.26,0.107,0.631,0.107,0.891
		c0,0.28-0.022,0.611-0.107,0.892h-5.246v4.92h6.396C149.295,277.749,149.318,278.116,149.318,278.377 M135.262,273.196l3.524,6.072
		c-0.437,0.063-0.871,0.107-1.307,0.107c-0.413,0-0.758-0.02-1.174-0.107l-3.221-5.659h-1.915v5.659
		c-0.37,0.063-0.741,0.107-1.108,0.107c-0.347,0-0.718-0.044-1.064-0.107V264.56c1.064-0.063,2.348-0.108,3.587-0.108
		c3.071,0,5.526,0.934,5.526,4.46C138.11,270.85,137.047,272.545,135.262,273.196 M126.057,279.269
		c-0.349,0.042-0.696,0.107-1.046,0.107c-0.388,0-0.738-0.044-1.126-0.107V264.56c0.368-0.063,0.713-0.108,1.106-0.108
		c0.371,0,0.718,0.045,1.066,0.108V279.269z M116.588,279.269c-0.172,0.063-0.543,0.088-0.823,0.088
		c-0.263,0-0.521-0.024-0.761-0.088l-7.749-10.988v10.988c-0.197,0.063-0.718,0.107-1.043,0.107c-0.26,0-0.673-0.02-0.957-0.107
		V264.56c0.173-0.044,0.631-0.089,0.846-0.089c0.285,0,0.653,0.025,0.872,0.089l7.618,10.812V264.56
		c0.238-0.063,0.653-0.108,0.934-0.108c0.263,0,0.846,0.045,1.063,0.108V279.269z M102.314,279.269
		c-0.348,0.042-0.696,0.107-1.044,0.107c-0.391,0-0.738-0.044-1.131-0.107V264.56c0.373-0.063,0.719-0.108,1.111-0.108
		c0.368,0,0.716,0.045,1.063,0.108V279.269z M239.003,261.588H61.658v22.103h177.345V261.588z"/>
</g>
</svg>
