<?xml version="1.0" encoding="utf-8"?>
<!-- Generator: Adobe Illustrator 16.0.0, SVG Export Plug-In . SVG Version: 6.00 Build 0)  -->
<!DOCTYPE svg PUBLIC "-//W3C//DTD SVG 1.0//EN" "http://www.w3.org/TR/2001/REC-SVG-20010904/DTD/svg10.dtd">
<svg version="1.0" xmlns="http://www.w3.org/2000/svg" xmlns:xlink="http://www.w3.org/1999/xlink" x="0px" y="0px" width="300px"
	 height="300px" viewBox="0 0 300 300" style="enable-background:new 0 0 300 300;" xml:space="preserve">
<g id="Brain">
	<path style="fill:#61B1AD;" d="M135.463,265.064c0-1.968-1.129-2.714-3.035-2.714c-0.489,0-1.26,0-1.621,0.022v5.617h1.454
		C134.268,267.99,135.463,267.092,135.463,265.064 M164.089,270.06h4.461l-1.709-4.907c-0.277-0.812-0.447-1.474-0.553-2.053h-0.025
		c-0.105,0.579-0.318,1.26-0.574,2.072L164.089,270.06z M195.231,272.407c1.002-1.045,1.367-2.732,1.367-4.524
		c0-3.651-1.045-5.532-4.998-5.532c-0.428,0-1.193,0.022-1.643,0.042v11.188c0.383,0.044,1.088,0.066,1.836,0.066
		C193.417,273.647,194.485,273.197,195.231,272.407 M198.837,267.924c0,2.797-0.768,4.869-2.217,6.042
		c-1.238,0.979-2.947,1.363-5.338,1.363c-0.982,0-2.816-0.042-3.457-0.105v-14.43c0.982-0.062,2.303-0.105,3.797-0.105
		C196.577,260.688,198.837,262.735,198.837,267.924 M185.048,275.224c-0.17,0.063-0.533,0.086-0.811,0.086
		c-0.254,0-0.51-0.022-0.746-0.086l-7.602-10.778v10.778c-0.191,0.063-0.701,0.105-1.021,0.105c-0.258,0-0.662-0.02-0.938-0.105
		v-14.43c0.17-0.042,0.619-0.086,0.832-0.086c0.275,0,0.639,0.024,0.854,0.086l7.471,10.606v-10.606
		c0.234-0.062,0.641-0.105,0.918-0.105c0.254,0,0.832,0.044,1.043,0.105V275.224z M172.626,275.224
		c-0.193,0.041-0.705,0.105-1.107,0.105c-0.322,0-0.834-0.02-1.156-0.105l-1.195-3.419h-5.637l-1.107,3.419
		c-0.279,0.041-0.727,0.105-1.153,0.105c-0.3,0-0.725-0.042-1.005-0.105l4.977-14.43c0.254-0.062,0.789-0.105,1.066-0.105
		c0.299,0,0.789,0.063,0.982,0.105L172.626,275.224z M159.283,274.35c0,0.277-0.019,0.596-0.104,0.874h-8.601v-14.43
		c0.361-0.062,0.747-0.105,1.129-0.105c0.363,0,0.66,0.044,1.002,0.105v12.682h6.47C159.265,273.733,159.283,274.094,159.283,274.35
		 M148.611,274.35c0,0.277-0.022,0.596-0.108,0.874h-8.407v-14.43h8.087c0.086,0.258,0.108,0.619,0.108,0.877
		c0,0.275-0.022,0.594-0.108,0.874h-5.956v4.355h5.146c0.084,0.255,0.106,0.618,0.106,0.874c0,0.274-0.022,0.599-0.106,0.874h-5.146
		v4.827h6.275C148.588,273.733,148.611,274.094,148.611,274.35 M134.822,269.267l3.457,5.957c-0.427,0.063-0.854,0.105-1.282,0.105
		c-0.405,0-0.744-0.02-1.151-0.105l-3.16-5.552h-1.878v5.552c-0.363,0.063-0.726,0.105-1.088,0.105
		c-0.341,0-0.704-0.042-1.043-0.105v-14.43c1.043-0.062,2.303-0.105,3.518-0.105c3.013,0,5.421,0.916,5.421,4.376
		C137.617,266.964,136.573,268.629,134.822,269.267 M125.792,275.224c-0.342,0.041-0.682,0.105-1.026,0.105
		c-0.38,0-0.725-0.042-1.105-0.105v-14.43c0.361-0.062,0.7-0.105,1.085-0.105c0.364,0,0.704,0.044,1.046,0.105V275.224z
		 M116.505,275.224c-0.17,0.063-0.534,0.086-0.809,0.086c-0.257,0-0.51-0.022-0.746-0.086l-7.602-10.778v10.778
		c-0.194,0.063-0.705,0.105-1.024,0.105c-0.255,0-0.66-0.02-0.938-0.105v-14.43c0.17-0.042,0.619-0.086,0.83-0.086
		c0.281,0,0.642,0.024,0.855,0.086l7.474,10.606v-10.606c0.233-0.062,0.641-0.105,0.916-0.105c0.258,0,0.83,0.044,1.044,0.105
		V275.224z M102.502,275.224c-0.341,0.041-0.682,0.105-1.024,0.105c-0.383,0-0.724-0.042-1.109-0.105v-14.43
		c0.366-0.062,0.705-0.105,1.09-0.105c0.361,0,0.702,0.044,1.043,0.105V275.224z M236.587,257.88H62.621v21.682h173.966V257.88z"/>
	<path style="fill:#96C6C4;" d="M80.249,83.75c-2.146-2.384-4.306-7.896-4.304-14.827c0-5.094,3.583-11.119,9.011-13.275
		c-0.634-4.915,0.451-10.781,4.522-14.254c1.935-1.652,4.243-2.885,6.678-3.565l1.483,5.3c-1.669,0.467-3.255,1.314-4.586,2.451
		c-2.855,2.438-3.288,7.647-2.242,11.313c0.219,0.774,0.09,1.605-0.358,2.279c-0.444,0.67-1.161,1.109-1.959,1.208
		c-4.235,0.508-7.046,5.482-7.046,8.547c0,6.467,2.146,10.309,2.896,11.146L80.249,83.75z"/>
	<path style="fill:#96C6C4;" d="M125.117,152.055c-1.27,0-2.536-0.081-3.776-0.24c-4.96-0.639-9.543-3.327-12.573-7.381
		c-1.991-2.666-2.757-5.526-3.499-8.293c-0.022-0.076-0.044-0.155-0.063-0.228c-4.388,0.552-9.014-2.114-11.434-4.169
		c-3.719-3.155-4.851-7.908-3.3-13.58c-5.087-1.726-10.665-5.909-12.737-9.892c-4.677-8.998-3.285-19.567,3.631-27.586l4.166,3.599
		c-5.411,6.271-6.531,14.491-2.911,21.446c1.554,2.996,7.522,7.277,11.73,7.719c0.864,0.091,1.633,0.584,2.075,1.331
		c0.447,0.749,0.511,1.662,0.177,2.462c-1.357,3.265-2.333,7.705,0.729,10.304c2.493,2.114,6.379,3.68,8.313,2.521
		c0.717-0.427,1.589-0.508,2.372-0.218c0.783,0.289,1.39,0.917,1.654,1.711c0.354,1.065,0.639,2.126,0.914,3.152
		c0.636,2.369,1.235,4.605,2.593,6.423c2.111,2.825,5.426,4.775,8.866,5.217c6.226,0.803,16.292-0.81,18.484-8.521
		c0.052-0.177,0.116-0.344,0.202-0.508c0.607-1.176,0.914-2.446,0.914-3.774V29.966c0-4.552-3.702-8.257-8.257-8.257h-1.5
		c-4.247,0-7.775,3.182-8.212,7.397c-0.096,0.936-0.666,1.758-1.508,2.177c-0.84,0.423-1.836,0.384-2.644-0.1
		c-1.326-0.796-5.006-0.459-7.258,0.1c-3.373,1.324-5.183,3.509-5.865,7.064l-5.406-1.039c1.048-5.458,4.228-9.234,9.452-11.225
		c0.096-0.037,0.194-0.069,0.292-0.094c0.933-0.24,4.714-1.129,8.178-0.648c1.903-5.379,7.015-9.135,12.97-9.135h1.5
		c7.59,0,13.764,6.172,13.764,13.758V133.55c0,2.089-0.486,4.176-1.404,6.05C143.173,148.09,134.029,152.055,125.117,152.055"/>
	<path style="fill:#96C6C4;" d="M216.171,63.242c-1.521-1.562-3.654-2.581-6.012-2.861c-0.891-0.107-1.676-0.647-2.098-1.44
		c-0.426-0.795-0.432-1.749-0.021-2.546c1.861-3.634,0.238-8.526-2.441-10.814c-1.547-1.321-3.402-2.235-5.354-2.637
		c-0.906-0.189-1.865-0.251-2.936-0.199l-0.037,0.01c-0.307,0.086-0.879,0.246-1.727,0.165c-1.451-0.14-2.543-1.385-2.488-2.841
		c0.01-0.287,0.082-0.663,0.248-1.036c-0.926-4.103-4.781-9.467-8.857-9.467h-0.012c-2.16,0.007-3.484,0.292-4.564,0.992
		l-2.984-4.623c2.535-1.64,5.229-1.866,7.531-1.874h0.029c7.002,0,12.438,7.13,14.068,13.16c0.986,0.025,1.922,0.133,2.842,0.322
		c2.859,0.589,5.561,1.92,7.814,3.842c3.617,3.089,6.025,8.831,4.908,14.254c2.309,0.778,4.387,2.061,6.033,3.754L216.171,63.242z"
		/>
	<path style="fill:#96C6C4;" d="M173.433,152.06c-8.654,0-17.797-3.653-20.454-12.465c-0.882-1.804-1.328-3.837-1.328-6.042V29.969
		c0-7.589,6.108-13.764,13.614-13.764h1.502c3.469,0,6.908,1.365,9.434,3.744c1.787,1.682,2.852,3.209,3.262,4.665
		c0.133,0.472,0.246,0.99,0.354,1.628l-5.428,0.918c-0.074-0.439-0.145-0.776-0.227-1.058c0-0.007-0.211-0.71-1.736-2.146
		c-1.516-1.427-3.576-2.244-5.658-2.244h-1.502c-4.548,0-8.11,3.626-8.11,8.257v103.584c0,1.421,0.286,2.69,0.841,3.771
		c0.086,0.162,0.148,0.333,0.2,0.508c2.19,7.707,12.216,9.317,18.413,8.521c3.441-0.439,6.754-2.392,8.865-5.217
		c2.18-2.914,3.451-6.735,3.545-8.849c0.041-0.972,0.592-1.846,1.443-2.308c0.854-0.458,1.885-0.435,2.717,0.064
		c1.908,1.139,5.639-0.374,8.143-2.5c2.77-2.35,2.361-7.371,0.727-11.304c-0.334-0.803-0.268-1.717,0.176-2.465
		c0.447-0.746,1.221-1.24,2.086-1.328c4.072-0.417,8.395-3.137,10.053-6.332c3.207-6.162,4.553-15.143-1.271-21.865
		c-0.996-1.149-0.869-2.887,0.281-3.882c0.514-0.452,1.16-0.675,1.799-0.675c0.016,0,0.029,0,0.043,0.005
		c1.002-0.859,3.49-3.94,3.49-9.774c0-1.093-0.146-2.131-0.432-3.083l5.271-1.586c0.441,1.468,0.664,3.04,0.664,4.669
		c0,6.413-2.416,11.083-4.912,13.496c4.436,7.142,4.486,16.508-0.049,25.234c-2.051,3.945-6.346,7.204-11.074,8.607
		c1.258,4.957,0.979,10.857-3.293,14.481c-3.012,2.558-7.16,4.466-10.914,4.156c-0.768,2.915-2.258,6.089-4.084,8.532
		c-3.029,4.056-7.611,6.748-12.572,7.383C176.044,151.979,174.743,152.06,173.433,152.06"/>
	<path style="fill:#96C6C4;" d="M126,82.337c-5.469,0-10.569-4.071-12.349-8.639c-1.589-4.076-0.609-8.11,0.258-11.67
		c0.396-1.62,0.766-3.148,0.889-4.584c0.396-4.589-1.842-9.835-5.443-12.761c-1.8-1.463-4.714-2.976-8.372-1.881l-1.581-5.273
		c4.657-1.392,9.425-0.371,13.428,2.885c5.008,4.07,8.003,11.104,7.454,17.5c-0.16,1.856-0.599,3.666-1.024,5.416
		c-0.739,3.037-1.438,5.91-0.479,8.37c1.157,2.971,5.102,5.794,8.458,4.989c0.248-0.062,0.464-0.103,0.658-0.143
		c0.086-0.015,0.165-0.027,0.236-0.046c-0.15,0.039-0.359,0.157-0.479,0.267l4.471,3.197c-1.05,1.47-2.15,1.79-3.187,1.989
		c-0.12,0.021-0.255,0.046-0.41,0.085C127.683,82.242,126.838,82.337,126,82.337"/>
	<path style="fill:#96C6C4;" d="M129.475,49.515c-1.311,0-2.583-0.179-3.759-0.555l1.665-5.247c2.59,0.82,7.191-0.056,10.616-3.302
		c1.959-1.856,4.981-5.976,3.233-12.732l5.328-1.38c1.795,6.931,0.057,13.531-4.773,18.107
		C138.357,47.653,133.698,49.515,129.475,49.515"/>
	<path style="fill:#96C6C4;" d="M92.095,91.564l-0.52-0.226c-4.844-2.089-9.853-4.252-12.843-10.046l4.894-2.522
		c2.087,4.046,5.637,5.576,10.13,7.516l0.528,0.228L92.095,91.564z"/>
	<path style="fill:#96C6C4;" d="M97.784,67.236c-0.187-2.362-1.552-4.669-3.565-6.025c-1.733-1.169-3.7-1.488-5.536-0.909
		l-1.665-5.247c3.422-1.083,7.164-0.505,10.272,1.586c3.425,2.306,5.66,6.106,5.981,10.162L97.784,67.236z"/>
	<path style="fill:#96C6C4;" d="M108.63,113.675l-4.866-2.57c2.099-3.97,2.637-7.773,1.561-10.989
		c-0.942-2.816-3.123-5.094-6.299-6.583l2.336-4.986c4.574,2.146,7.749,5.541,9.183,9.821
		C112.115,103.049,111.449,108.34,108.63,113.675"/>
	<path style="fill:#96C6C4;" d="M126.794,115.703l-3.828-3.958c2.111-2.04,3.115-6.16,2.337-9.583
		c-0.42-1.848-1.506-4.247-4.297-5.177l1.741-5.223c4.014,1.338,6.904,4.685,7.925,9.181
		C131.879,106.258,130.286,112.328,126.794,115.703"/>
	<path style="fill:#96C6C4;" d="M106.009,138.841c-2.323-5.347-1.958-10.96,1.053-16.224c3.5-6.118,8.544-6.99,13.884-7.913
		l0.13-0.022l0.938,5.424l-0.13,0.022c-5.289,0.916-7.926,1.517-10.044,5.222c-2.146,3.751-2.409,7.552-0.781,11.299
		L106.009,138.841z"/>
	<path style="fill:#96C6C4;" d="M137.56,143.324c-1.685,0-3.391-0.373-4.888-1.11c-5.699-2.804-6.192-7.533-6.207-12.133l5.502-0.02
		c0.018,4.265,0.472,5.902,3.135,7.216c1.313,0.645,2.998,0.734,4.287,0.221c0.874-0.344,1.463-0.923,1.761-1.721l5.156,1.93
		c-0.839,2.247-2.573,3.99-4.883,4.908C140.221,143.088,138.898,143.324,137.56,143.324"/>
	<path style="fill:#96C6C4;" d="M119.453,37.629c-1.463-2.73-2.452-8.49-0.41-11.763l4.669,2.913
		c-0.638,1.023-0.302,4.588,0.589,6.25L119.453,37.629z"/>
	<path style="fill:#96C6C4;" d="M178.823,45.311c-4.809-1.399-7.785-5.443-7.578-10.307c0.193-4.524,3.131-8.244,7.137-9.047
		l1.082,5.397c-1.768,0.356-2.65,2.263-2.717,3.884c-0.049,1.11,0.209,3.799,3.611,4.788L178.823,45.311z"/>
	<path style="fill:#B4A168;" d="M203.661,69.3c2.938,10.973-3.596,22.288-14.564,25.227l-13.693,3.67v15.048h-7.264V92.62
		l19.076-5.112c7.1-1.902,11.326-9.227,9.424-16.324c-1.898-7.103-9.223-11.328-16.326-9.428
		c-7.098,1.902-11.324,9.227-9.422,16.327l1.473,5.502l-7.02,1.881l-1.475-5.5c-2.939-10.972,3.594-22.29,14.562-25.229
		C189.405,51.798,200.722,58.331,203.661,69.3"/>
	<rect x="168.138" y="119.389" style="fill:#B4A168;" width="7.27" height="8.482"/>
</g>
<g id="Text">
	<text transform="matrix(1 0 0 1 61.9136 251.3213)"><tspan x="0" y="0" style="fill:#61B1AD; font-family:'FSMatthew-Bold'; font-size:30.4379;">P</tspan><tspan x="16.893" y="0" style="fill:#61B1AD; font-family:'FSMatthew-Bold'; font-size:30.4379;">S</tspan><tspan x="32.355" y="0" style="fill:#61B1AD; font-family:'FSMatthew-Bold'; font-size:30.4379;">Y</tspan><tspan x="48.73" y="0" style="fill:#61B1AD; font-family:'FSMatthew-Bold'; font-size:30.4379;">CHO</tspan><tspan x="105.008" y="0" style="fill:#61B1AD; font-family:'FSMatthew-Bold'; font-size:30.4379; letter-spacing:-1;">L</tspan><tspan x="119.954" y="0" style="fill:#61B1AD; font-family:'FSMatthew-Bold'; font-size:30.4379;">OG</tspan><tspan x="158.303" y="0" style="fill:#61B1AD; font-family:'FSMatthew-Bold'; font-size:30.4379;">Y </tspan></text>
	<text transform="matrix(1 0 0 1 64.2339 194.6836)"><tspan x="0" y="0" style="fill:#B4A168; font-family:'FSMatthew-Bold'; font-size:44.1088;">L</tspan><tspan x="23.377" y="0" style="fill:#B4A168; font-family:'FSMatthew-Bold'; font-size:44.1088;">A</tspan><tspan x="51.474" y="0" style="fill:#B4A168; font-family:'FSMatthew-Bold'; font-size:44.1088; letter-spacing:-1;">R</tspan><tspan x="76.483" y="0" style="fill:#B4A168; font-family:'FSMatthew-Bold'; font-size:44.1088;">GE</tspan><tspan x="127.165" y="0" style="fill:#B4A168; font-family:'FSMatthew-Bold'; font-size:44.1088; letter-spacing:-2;">S</tspan><tspan x="148.954" y="0" style="fill:#B4A168; font-family:'FSMatthew-Bold'; font-size:44.1088; letter-spacing:-2;">T</tspan><tspan x="170.92" y="0" style="fill:#B4A168; font-family:'FSMatthew-Bold'; font-size:44.1088; letter-spacing:-1;"> </tspan><tspan x="179.124" y="0" style="fill:#B4A168; font-family:'FSMatthew-Bold'; font-size:44.1088;"> </tspan></text>
	<text transform="matrix(1 0 0 1 62.8472 224.0879)"><tspan x="0" y="0" style="fill:#B4A168; font-family:'FSMatthew-Bold'; font-size:35.9405;">S</tspan><tspan x="18.689" y="0" style="fill:#B4A168; font-family:'FSMatthew-Bold'; font-size:35.9405;">CHOO</tspan><tspan x="107.963" y="0" style="fill:#B4A168; font-family:'FSMatthew-Bold'; font-size:35.9405; letter-spacing:-2;">L</tspan><tspan x="124.387" y="0" style="fill:#B4A168; font-family:'FSMatthew-Bold'; font-size:35.9405;"> O</tspan><tspan x="154.614" y="0" style="fill:#B4A168; font-family:'FSMatthew-Bold'; font-size:35.9405;">F </tspan></text>
</g>
<g id="Text_Flat">
	<g>
		<path style="fill:#61B1AD;" d="M70.681,243.954H68.55v7.367c-0.579,0.092-1.279,0.152-2.192,0.152
			c-0.822,0-1.583-0.061-2.161-0.152v-20.548c1.766-0.092,4.444-0.183,6.18-0.183c4.657,0,8.036,1.613,8.036,6.453
			C78.413,241.763,75.46,243.954,70.681,243.954z M70.559,234.183c-0.609,0-1.4,0.03-2.009,0.062v6.058h1.887
			c2.344,0,3.592-0.609,3.592-3.105C74.029,235.065,72.964,234.183,70.559,234.183z"/>
		<path style="fill:#61B1AD;" d="M86.69,251.626c-2.222,0-4.658-0.427-6.393-1.218c-0.091-0.427-0.152-0.975-0.152-1.461
			c0-0.731,0.091-1.431,0.305-2.253c1.796,0.73,4.17,1.188,6.027,1.188c2.161,0,3.318-1.005,3.318-2.375
			c0-1.521-0.974-2.161-3.927-3.074c-3.288-1.005-5.693-2.588-5.693-6.119c0-3.774,3.257-5.875,7.55-5.875
			c1.979,0,3.744,0.305,4.931,0.7c0.091,0.335,0.152,0.883,0.152,1.674c0,0.579-0.061,1.462-0.183,1.949
			c-1.522-0.396-3.257-0.609-4.658-0.609c-2.283,0-3.531,0.761-3.531,1.979c0,1.431,1.126,2.01,3.866,2.861
			c3.288,1.035,5.723,2.588,5.723,6.241C94.027,249.221,90.891,251.626,86.69,251.626z"/>
		<path style="fill:#61B1AD;" d="M109.733,235.461l-4.658,8.98v6.88c-0.579,0.092-1.248,0.152-2.161,0.152
			c-0.822,0-1.614-0.061-2.192-0.152v-6.94l-4.444-8.676c-0.974-1.888-1.492-3.44-1.492-4.992c0.487-0.062,1.37-0.122,2.131-0.122
			c0.73,0,1.552,0.03,2.131,0.122c0,1.278,0.183,2.131,0.883,3.592l2.04,4.201c0.457,0.913,0.853,2.009,0.974,2.648h0.03
			c0.152-0.64,0.64-1.766,1.005-2.558l2.1-4.414c0.457-0.943,0.731-2.039,0.731-3.439c0.578-0.092,1.491-0.152,2.222-0.152
			c0.852,0,1.492,0.061,1.979,0.152C111.011,232.296,110.402,234.152,109.733,235.461z"/>
		<path style="fill:#61B1AD;" d="M126.96,235.035c-1.461-0.457-3.288-0.791-4.749-0.791c-3.471,0-5.723,2.465-5.723,6.879
			c0,4.049,1.766,6.697,5.692,6.697c1.461,0,3.105-0.304,4.566-0.761c0.213,0.548,0.365,1.4,0.365,2.039
			c0,0.518-0.03,1.157-0.091,1.432c-1.522,0.699-3.47,1.096-5.267,1.096c-6.544,0-9.771-3.958-9.771-10.411
			c0-6.271,3.47-10.776,9.955-10.776c1.583,0,3.653,0.396,5.114,1.035c0.091,0.305,0.122,0.974,0.122,1.37
			C127.173,233.787,127.051,234.67,126.96,235.035z"/>
		<path style="fill:#61B1AD;" d="M145.893,251.321c-0.548,0.092-1.309,0.152-2.162,0.152c-0.852,0-1.613-0.061-2.191-0.152v-8.523
			h-7.154v8.523c-0.579,0.092-1.248,0.152-2.161,0.152c-0.822,0-1.614-0.061-2.192-0.152v-20.578
			c0.578-0.092,1.431-0.152,2.192-0.152c0.852,0,1.613,0.061,2.161,0.152v8.341h7.154v-8.341c0.669-0.092,1.431-0.152,2.191-0.152
			c0.731,0,1.644,0.061,2.162,0.152V251.321z"/>
		<path style="fill:#61B1AD;" d="M157.549,251.626c-5.631,0-8.615-3.896-8.615-10.594s2.984-10.594,8.615-10.594
			s8.615,3.896,8.615,10.594S163.18,251.626,157.549,251.626z M157.549,234.183c-2.617,0-4.109,2.01-4.109,6.85
			s1.492,6.85,4.109,6.85c2.618,0,4.109-2.01,4.109-6.85S160.167,234.183,157.549,234.183z"/>
		<path style="fill:#61B1AD;" d="M181.809,251.321h-12.604v-20.578c0.578-0.092,1.371-0.152,2.131-0.152
			c0.854,0,1.674,0.061,2.223,0.152v16.864h8.25c0.121,0.335,0.213,0.975,0.213,1.826
			C182.021,250.104,181.961,250.682,181.809,251.321z"/>
		<path style="fill:#61B1AD;" d="M191.82,251.626c-5.631,0-8.613-3.896-8.613-10.594s2.982-10.594,8.613-10.594
			c5.633,0,8.615,3.896,8.615,10.594S197.453,251.626,191.82,251.626z M191.82,234.183c-2.617,0-4.109,2.01-4.109,6.85
			s1.492,6.85,4.109,6.85c2.619,0,4.109-2.01,4.109-6.85S194.439,234.183,191.82,234.183z"/>
		<path style="fill:#61B1AD;" d="M218.973,250.53c-1.584,0.699-4.17,1.096-6.576,1.096c-6.848,0-9.861-4.384-9.861-10.381
			c0-6.271,3.713-10.807,10.318-10.807c1.887,0,4.049,0.396,5.328,0.943c0.09,0.487,0.152,1.218,0.152,1.553
			c0,0.67-0.123,1.4-0.244,1.857c-1.309-0.427-3.197-0.7-4.932-0.7c-4.383,0-6.119,3.196-6.119,7.093c0,4.14,1.826,6.788,5.51,6.788
			c0.822,0,1.613-0.061,2.07-0.183v-6.575c0.578-0.092,1.371-0.152,2.131-0.152c0.854,0,1.674,0.061,2.223,0.152V250.53z"/>
		<path style="fill:#61B1AD;" d="M235.682,235.461l-4.656,8.98v6.88c-0.578,0.092-1.248,0.152-2.162,0.152
			c-0.822,0-1.613-0.061-2.191-0.152v-6.94l-4.445-8.676c-0.973-1.888-1.49-3.44-1.49-4.992c0.486-0.062,1.369-0.122,2.131-0.122
			c0.73,0,1.553,0.03,2.131,0.122c0,1.278,0.182,2.131,0.883,3.592l2.039,4.201c0.457,0.913,0.852,2.009,0.975,2.648h0.029
			c0.152-0.64,0.641-1.766,1.006-2.558l2.1-4.414c0.457-0.943,0.73-2.039,0.73-3.439c0.578-0.092,1.492-0.152,2.223-0.152
			c0.852,0,1.492,0.061,1.979,0.152C236.961,232.296,236.352,234.152,235.682,235.461z"/>
	</g>
	<g>
		<path style="fill:#B4A168;" d="M85.805,194.684H67.542v-29.82c0.838-0.133,1.985-0.221,3.088-0.221
			c1.235,0,2.426,0.088,3.22,0.221v24.438h11.955c0.176,0.485,0.309,1.412,0.309,2.646
			C86.114,192.919,86.026,193.757,85.805,194.684z"/>
		<path style="fill:#B4A168;" d="M115.932,194.684c-0.574,0.133-1.941,0.221-3.397,0.221c-1.147,0-2.47-0.133-3.044-0.221
			l-2.206-6.044H96.698l-2.073,6.044c-0.971,0.133-2.118,0.221-3.265,0.221s-2.47-0.088-3.132-0.221l10.411-29.82
			c0.618-0.133,2.073-0.221,3.044-0.221c1.191,0,2.603,0.088,3.088,0.221L115.932,194.684z M105.389,183.391l-2.603-8.426
			c-0.309-0.971-0.618-2.205-0.882-3.573h-0.088c-0.221,1.368-0.574,2.603-0.882,3.573l-2.47,8.426H105.389z"/>
		<path style="fill:#B4A168;" d="M140.985,194.64c-1.147,0.177-2.338,0.265-3.706,0.265c-1.235,0-2.47-0.044-3.309-0.221
			l-6.043-10.72h-2.603v10.72c-1.103,0.177-2.029,0.221-3.22,0.221c-1.059,0-1.985-0.044-3.088-0.221v-29.82
			c2.029-0.133,6.264-0.221,8.823-0.221c7.499,0,11.249,2.646,11.249,9.528c0,3.661-2.206,7.323-5.293,8.646L140.985,194.64z
			 M128.236,169.804c-0.971,0-2.162,0.044-2.912,0.088v8.823h2.206c3.617,0,5.206-1.323,5.206-4.588
			S131.147,169.804,128.236,169.804z"/>
		<path style="fill:#B4A168;" d="M166.479,193.537c-2.293,1.014-6.043,1.588-9.527,1.588c-9.926,0-14.293-6.353-14.293-15.043
			c0-9.087,5.382-15.66,14.955-15.66c2.734,0,5.867,0.573,7.719,1.367c0.133,0.706,0.221,1.765,0.221,2.25
			c0,0.971-0.176,2.029-0.354,2.691c-1.896-0.618-4.631-1.015-7.146-1.015c-6.353,0-8.867,4.632-8.867,10.278
			c0,5.999,2.647,9.837,7.985,9.837c1.191,0,2.338-0.088,3-0.265v-9.528c0.838-0.133,1.984-0.221,3.088-0.221
			c1.234,0,2.426,0.088,3.219,0.221V193.537z"/>
		<path style="fill:#B4A168;" d="M190.254,194.684h-18.66v-29.82h18.264c0.176,0.485,0.309,1.411,0.309,2.646
			c0,0.971-0.088,1.809-0.309,2.735h-11.955v6.44h10.102c0.178,0.485,0.309,1.367,0.309,2.603c0,0.971-0.088,1.765-0.309,2.69
			h-10.102v7.323h12.352c0.176,0.485,0.309,1.412,0.309,2.646C190.562,192.919,190.475,193.757,190.254,194.684z"/>
		<path style="fill:#B4A168;" d="M202.824,195.125c-3.221,0-6.75-0.618-9.266-1.765c-0.131-0.618-0.219-1.412-0.219-2.117
			c0-1.06,0.131-2.073,0.439-3.265c2.604,1.059,6.045,1.721,8.734,1.721c3.133,0,4.809-1.456,4.809-3.441
			c0-2.205-1.41-3.132-5.689-4.455c-4.766-1.456-8.25-3.75-8.25-8.867c0-5.47,4.721-8.514,10.939-8.514
			c2.869,0,5.426,0.441,7.146,1.015c0.133,0.485,0.221,1.279,0.221,2.427c0,0.838-0.088,2.117-0.264,2.822
			c-2.207-0.573-4.721-0.882-6.75-0.882c-3.309,0-5.117,1.103-5.117,2.867c0,2.073,1.633,2.912,5.604,4.146
			c4.764,1.5,8.293,3.75,8.293,9.044C213.455,191.64,208.91,195.125,202.824,195.125z"/>
		<path style="fill:#B4A168;" d="M236.303,170.245h-7.896v24.438c-0.838,0.133-2.029,0.221-3.131,0.221
			c-1.104,0-2.295-0.088-3.176-0.221v-24.438h-7.896c-0.178-0.573-0.309-1.941-0.309-2.691s0.176-2.117,0.352-2.69h22.057
			c0.178,0.573,0.309,1.94,0.309,2.69S236.48,169.672,236.303,170.245z"/>
	</g>
	<g>
		<path style="fill:#B4A168;" d="M72.154,224.447c-2.624,0-5.498-0.503-7.546-1.438c-0.108-0.503-0.18-1.149-0.18-1.725
			c0-0.862,0.108-1.689,0.359-2.659c2.12,0.862,4.923,1.401,7.115,1.401c2.551,0,3.917-1.186,3.917-2.803
			c0-1.797-1.15-2.552-4.635-3.63c-3.881-1.186-6.72-3.054-6.72-7.223c0-4.456,3.845-6.936,8.912-6.936
			c2.336,0,4.42,0.359,5.821,0.827c0.108,0.395,0.18,1.042,0.18,1.977c0,0.683-0.072,1.725-0.215,2.299
			c-1.797-0.467-3.845-0.718-5.498-0.718c-2.695,0-4.168,0.897-4.168,2.335c0,1.689,1.33,2.372,4.563,3.378
			c3.881,1.222,6.756,3.055,6.756,7.367C80.814,221.608,77.113,224.447,72.154,224.447z"/>
		<path style="fill:#B4A168;" d="M100.797,204.863c-1.725-0.539-3.881-0.935-5.605-0.935c-4.097,0-6.756,2.911-6.756,8.121
			c0,4.779,2.084,7.905,6.72,7.905c1.725,0,3.666-0.359,5.39-0.898c0.251,0.647,0.431,1.653,0.431,2.408
			c0,0.61-0.036,1.365-0.108,1.688c-1.796,0.827-4.096,1.294-6.216,1.294c-7.726,0-11.535-4.672-11.535-12.29
			c0-7.402,4.097-12.721,11.75-12.721c1.869,0,4.312,0.468,6.037,1.222c0.108,0.359,0.144,1.15,0.144,1.617
			C101.048,203.39,100.905,204.432,100.797,204.863z"/>
		<path style="fill:#B4A168;" d="M123.151,224.088c-0.647,0.107-1.545,0.18-2.551,0.18c-1.006,0-1.905-0.072-2.587-0.18v-10.062
			h-8.445v10.062c-0.683,0.107-1.473,0.18-2.551,0.18c-0.97,0-1.904-0.072-2.587-0.18v-24.292c0.683-0.107,1.688-0.18,2.587-0.18
			c1.006,0,1.905,0.072,2.551,0.18v9.847h8.445v-9.847c0.791-0.107,1.689-0.18,2.587-0.18c0.862,0,1.94,0.072,2.551,0.18V224.088z"
			/>
		<path style="fill:#B4A168;" d="M136.917,224.447c-6.648,0-10.169-4.6-10.169-12.505c0-7.906,3.521-12.506,10.169-12.506
			s10.169,4.6,10.169,12.506C147.087,219.848,143.565,224.447,136.917,224.447z M136.917,203.856c-3.09,0-4.851,2.372-4.851,8.086
			c0,5.713,1.761,8.085,4.851,8.085s4.851-2.372,4.851-8.085C141.769,206.229,140.008,203.856,136.917,203.856z"/>
		<path style="fill:#B4A168;" d="M159.74,224.447c-6.648,0-10.17-4.6-10.17-12.505c0-7.906,3.521-12.506,10.17-12.506
			c6.646,0,10.17,4.6,10.17,12.506C169.91,219.848,166.387,224.447,159.74,224.447z M159.74,203.856
			c-3.091,0-4.852,2.372-4.852,8.086c0,5.713,1.761,8.085,4.852,8.085c3.09,0,4.852-2.372,4.852-8.085
			C164.592,206.229,162.83,203.856,159.74,203.856z"/>
		<path style="fill:#B4A168;" d="M188.383,224.088h-14.877v-24.292c0.684-0.107,1.617-0.18,2.516-0.18
			c1.006,0,1.977,0.072,2.623,0.18v19.908h9.738c0.145,0.396,0.252,1.149,0.252,2.156
			C188.635,222.65,188.562,223.333,188.383,224.088z"/>
		<path style="fill:#B4A168;" d="M206.391,224.447c-6.648,0-10.17-4.6-10.17-12.505c0-7.906,3.521-12.506,10.17-12.506
			c6.646,0,10.168,4.6,10.168,12.506C216.559,219.848,213.037,224.447,206.391,224.447z M206.391,203.856
			c-3.092,0-4.852,2.372-4.852,8.086c0,5.713,1.76,8.085,4.852,8.085c3.09,0,4.85-2.372,4.85-8.085
			C211.24,206.229,209.48,203.856,206.391,203.856z"/>
		<path style="fill:#B4A168;" d="M234.854,204.181h-9.559v5.246h8.049c0.143,0.396,0.252,1.114,0.252,2.12
			c0,0.79-0.072,1.438-0.252,2.191h-8.049v10.35c-0.684,0.107-1.475,0.18-2.553,0.18c-0.969,0-1.904-0.072-2.586-0.18v-24.292
			h14.697c0.143,0.396,0.25,1.15,0.25,2.156C235.104,202.743,235.033,203.426,234.854,204.181z"/>
	</g>
</g>
</svg>
