<?xml version="1.0" encoding="utf-8"?>
<!-- Generator: Adobe Illustrator 16.0.0, SVG Export Plug-In . SVG Version: 6.00 Build 0)  -->
<!DOCTYPE svg PUBLIC "-//W3C//DTD SVG 1.0//EN" "http://www.w3.org/TR/2001/REC-SVG-20010904/DTD/svg10.dtd">
<svg version="1.0" xmlns="http://www.w3.org/2000/svg" xmlns:xlink="http://www.w3.org/1999/xlink" x="0px" y="0px" width="300px"
	 height="300px" viewBox="0 0 300 300" style="enable-background:new 0 0 300 300;" xml:space="preserve">
<g id="Buildings">
	<path style="fill:#1A2A4F;" d="M150.354,127.605h-5.993v-8.809h5.993V127.605z M150.354,142.786h-5.993v-8.808h5.993V142.786z
		 M150.354,157.968h-5.993v-8.796h5.993V157.968z M150.354,173.145h-5.993v-8.796h5.993V173.145z M141.094,127.605h-5.993v-8.809
		h5.993V127.605z M141.094,142.786h-5.993v-8.808h5.993V142.786z M141.094,157.968h-5.993v-8.796h5.993V157.968z M141.094,173.145
		h-5.993v-8.796h5.993V173.145z M131.835,127.605h-5.993v-8.809h5.993V127.605z M131.835,142.786h-5.993v-8.808h5.993V142.786z
		 M131.835,157.968h-5.993v-8.796h5.993V157.968z M131.835,173.145h-5.993v-8.796h5.993V173.145z M119.732,114.85v3.948h2.844v8.807
		h-2.844v6.372h2.844v8.809h-2.844v6.386h2.844v8.796h-2.844v6.383h2.844v8.794h-2.844v33.856h5.718v-9.854h6.762v9.854h21.319
		V114.85H119.732z"/>
	<path style="fill:#1A2A4F;" d="M44.604,127.606h-5.979v-8.809h5.979V127.606z M44.604,142.785h-5.979v-8.808h5.979V142.785z
		 M44.604,157.966h-5.979v-8.796h5.979V157.966z M44.604,173.146h-5.979v-8.795h5.979V173.146z M35.359,127.606h-5.992v-8.809h5.992
		V127.606z M35.359,142.785h-5.992v-8.808h5.992V142.785z M35.359,157.966h-5.992v-8.796h5.992V157.966z M35.359,173.146h-5.992
		v-8.795h5.992V173.146z M26.1,127.606h-5.993v-8.809H26.1V127.606z M26.1,142.785h-5.993v-8.808H26.1V142.785z M26.1,157.966
		h-5.993v-8.796H26.1V157.966z M26.1,173.146h-5.993v-8.795H26.1V173.146z M50.713,118.797v-3.948H16.915v92.152h21.319v-9.853
		h6.762v9.853h5.717v-33.855h-2.83v-8.795h2.83v-6.385h-2.83v-8.796h2.83v-6.385h-2.83v-8.808h2.83v-6.371h-2.83v-8.809H50.713z"/>
	<rect x="64.346" y="71.505" style="fill:#B4A168;" width="41.76" height="6.806"/>
	<path style="fill:#B4A168;" d="M111.43,101.236h-7.296V90.513h7.296V101.236z M111.43,119.732h-7.296v-10.725h7.296V119.732z
		 M111.43,138.227h-7.296v-10.724h7.296V138.227z M111.43,156.724h-7.296v-10.725h7.296V156.724z M111.43,175.219h-7.296v-10.727
		h7.296V175.219z M110.636,194.027h-5.708v-5.711h5.708V194.027z M100.151,101.236h-7.294V90.513h7.294V101.236z M100.151,119.732
		h-7.294v-10.725h7.294V119.732z M100.151,138.227h-7.294v-10.724h7.294V138.227z M100.151,156.724h-7.294v-10.725h7.294V156.724z
		 M100.151,175.219h-7.294v-10.727h7.294V175.219z M99.357,194.027h-5.709v-5.711h5.709V194.027z M88.874,101.236h-7.296V90.513
		h7.296V101.236z M88.874,119.732h-7.296v-10.725h7.296V119.732z M88.874,138.227h-7.296v-10.724h7.296V138.227z M88.874,156.724
		h-7.296v-10.725h7.296V156.724z M88.874,175.219h-7.296v-10.727h7.296V175.219z M88.08,194.027h-5.708v-5.711h5.708V194.027z
		 M77.594,101.236h-7.293V90.513h7.293V101.236z M77.594,119.732h-7.293v-10.725h7.293V119.732z M77.594,138.227h-7.293v-10.724
		h7.293V138.227z M77.594,156.724h-7.293v-10.725h7.293V156.724z M77.594,175.219h-7.293v-10.727h7.293V175.219z M76.802,194.027
		h-5.709v-5.711h5.709V194.027z M66.317,101.236h-7.296V90.513h7.296V101.236z M66.317,119.732h-7.296v-10.725h7.296V119.732z
		 M66.317,138.227h-7.296v-10.724h7.296V138.227z M66.317,156.724h-7.296v-10.725h7.296V156.724z M66.317,175.219h-7.296v-10.727
		h7.296V175.219z M65.523,194.027h-5.709v-5.711h5.709V194.027z M55.137,81.648v133.953h25.966v-11.161h8.245v11.161h25.966V81.648
		H55.137z"/>
	<rect x="16.091" y="223.708" style="fill:#B4A168;" width="267.386" height="13.989"/>
	<rect x="16.091" y="59.369" style="fill:#B4A168;" width="267.386" height="3.293"/>
</g>
<g id="Text" style="display:none;">
	<text transform="matrix(1 0 0 1 170.0322 216.5488)" style="display:inline;"><tspan x="0" y="0" style="fill:#B4A168; font-family:'FSMatthew-Bold'; font-size:21.6171;">IN</tspan><tspan x="22.027" y="0" style="fill:#B4A168; font-family:'FSMatthew-Bold'; font-size:21.6171;"> </tspan><tspan x="26.156" y="0" style="fill:#B4A168; font-family:'FSMatthew-Bold'; font-size:21.6171;">THE U</tspan><tspan x="84.911" y="0" style="fill:#B4A168; font-family:'FSMatthew-Bold'; font-size:21.6171;">K</tspan></text>
	<text transform="matrix(1 0 0 1 164.748 197.5986)" style="display:inline;"><tspan x="0" y="0" style="fill:#1A2A4F; font-family:'FSMatthew-Bold'; font-size:64.0732; letter-spacing:-3;">3R</tspan><tspan x="66.571" y="0" style="fill:#1A2A4F; font-family:'FSMatthew-Bold'; font-size:64.0732;">D</tspan></text>
	<text transform="matrix(1 0 0 1 169.1387 148.8008)" style="display:inline;"><tspan x="0" y="0" style="fill:#B4A168; font-family:'FSMatthew-Bold'; font-size:27.1313;">R</tspan><tspan x="16.252" y="0" style="fill:#B4A168; font-family:'FSMatthew-Bold'; font-size:27.1313;">AN</tspan><tspan x="51.793" y="0" style="fill:#B4A168; font-family:'FSMatthew-Bold'; font-size:27.1313;">KE</tspan><tspan x="82.099" y="0" style="fill:#B4A168; font-family:'FSMatthew-Bold'; font-size:27.1313;">D</tspan></text>
	<text transform="matrix(1 0 0 1 168.9492 99.1479)" style="display:inline;"><tspan x="0" y="0" style="fill:#1A2A4F; font-family:'FSMatthew-Bold'; font-size:44.9907;">R</tspan><tspan x="26.095" y="0" style="fill:#1A2A4F; font-family:'FSMatthew-Bold'; font-size:44.9907;">E</tspan><tspan x="50.345" y="0" style="fill:#1A2A4F; font-family:'FSMatthew-Bold'; font-size:44.9907;">A</tspan><tspan x="79.003" y="0" style="fill:#1A2A4F; font-family:'FSMatthew-Bold'; font-size:44.9907; letter-spacing:-2;">L</tspan><tspan x="100.463" y="0" style="fill:#1A2A4F; font-family:'FSMatthew-Bold'; font-size:44.9907;"> </tspan></text>
	<text transform="matrix(1 0 0 1 169.4785 125.8984)" style="display:inline;"><tspan x="0" y="0" style="fill:#1A2A4F; font-family:'FSMatthew-Bold'; font-size:31.9191;">E</tspan><tspan x="16.693" y="0" style="fill:#1A2A4F; font-family:'FSMatthew-Bold'; font-size:31.9191; letter-spacing:-1;">S</tspan><tspan x="32.493" y="0" style="fill:#1A2A4F; font-family:'FSMatthew-Bold'; font-size:31.9191; letter-spacing:-2;">T</tspan><tspan x="47.176" y="0" style="fill:#1A2A4F; font-family:'FSMatthew-Bold'; font-size:31.9191; letter-spacing:-2;">A</tspan><tspan x="65.21" y="0" style="fill:#1A2A4F; font-family:'FSMatthew-Bold'; font-size:31.9191;">T</tspan><tspan x="82.031" y="0" style="fill:#1A2A4F; font-family:'FSMatthew-Bold'; font-size:31.9191;">E</tspan></text>
	<text transform="matrix(1 0 0 1 79.8345 234.5957)" style="display:inline;"><tspan x="0" y="0" style="fill:#1A2A4F; font-family:'FSMatthew'; font-size:11.9016;">(</tspan><tspan x="4.272" y="0" style="fill:#1A2A4F; font-family:'FSMatthew'; font-size:11.9016;">T</tspan><tspan x="10.723" y="0" style="fill:#1A2A4F; font-family:'FSMatthew'; font-size:11.9016;">HE SUN</tspan><tspan x="49.819" y="0" style="fill:#1A2A4F; font-family:'FSMatthew'; font-size:11.9016;">D</tspan><tspan x="57.246" y="0" style="fill:#1A2A4F; font-family:'FSMatthew'; font-size:11.9016;">A</tspan><tspan x="63.911" y="0" style="fill:#1A2A4F; font-family:'FSMatthew'; font-size:11.9016;">Y</tspan><tspan x="70.254" y="0" style="fill:#1A2A4F; font-family:'FSMatthew'; font-size:11.9016;"> </tspan><tspan x="72.587" y="0" style="fill:#1A2A4F; font-family:'FSMatthew'; font-size:11.9016;">TI</tspan><tspan x="82.298" y="0" style="fill:#1A2A4F; font-family:'FSMatthew'; font-size:11.9016;">MES, 2</tspan><tspan x="116.289" y="0" style="fill:#1A2A4F; font-family:'FSMatthew'; font-size:11.9016;">01</tspan><tspan x="129.428" y="0" style="fill:#1A2A4F; font-family:'FSMatthew'; font-size:11.9016;">7</tspan><tspan x="136.01" y="0" style="fill:#1A2A4F; font-family:'FSMatthew'; font-size:11.9016;">) </tspan></text>
</g>
<g id="Text_Flat">
	<g>
		<path style="fill:#B4A168;" d="M174.789,216.549c-0.411,0.064-0.908,0.108-1.557,0.108c-0.584,0-1.125-0.044-1.535-0.108v-14.616
			c0.41-0.064,1.016-0.108,1.557-0.108c0.605,0,1.146,0.044,1.535,0.108V216.549z"/>
		<path style="fill:#B4A168;" d="M190.117,216.549c-0.217,0.043-0.735,0.087-1.103,0.087c-0.368,0-0.735-0.022-1.081-0.087
			l-6.725-9.362v9.362c-0.173,0.043-0.822,0.108-1.427,0.108c-0.498,0-1.081-0.065-1.384-0.108v-14.616
			c0.346-0.064,0.756-0.087,1.146-0.087c0.411,0,0.843,0.044,1.168,0.087l6.594,9.189v-9.189c0.433-0.064,0.995-0.108,1.406-0.108
			c0.41,0,1.016,0.044,1.405,0.108V216.549z"/>
		<path style="fill:#B4A168;" d="M207.519,204.57h-3.87v11.979c-0.411,0.064-0.995,0.108-1.535,0.108
			c-0.541,0-1.125-0.044-1.558-0.108V204.57h-3.87c-0.086-0.281-0.151-0.951-0.151-1.318c0-0.368,0.087-1.038,0.173-1.319h10.812
			c0.086,0.281,0.151,0.951,0.151,1.319C207.67,203.619,207.604,204.289,207.519,204.57z"/>
		<path style="fill:#B4A168;" d="M221.224,216.549c-0.39,0.064-0.93,0.108-1.535,0.108s-1.146-0.044-1.557-0.108v-6.054h-5.081
			v6.054c-0.411,0.064-0.887,0.108-1.535,0.108c-0.584,0-1.146-0.044-1.557-0.108v-14.616c0.41-0.064,1.016-0.108,1.557-0.108
			c0.605,0,1.146,0.044,1.535,0.108v5.924h5.081v-5.924c0.476-0.064,1.016-0.108,1.557-0.108c0.519,0,1.167,0.044,1.535,0.108
			V216.549z"/>
		<path style="fill:#B4A168;" d="M233.934,216.549h-9.146v-14.616h8.951c0.086,0.237,0.151,0.691,0.151,1.297
			c0,0.476-0.044,0.887-0.151,1.341h-5.859v3.157h4.951c0.086,0.237,0.151,0.67,0.151,1.275c0,0.476-0.043,0.865-0.151,1.319h-4.951
			v3.589h6.054c0.087,0.237,0.151,0.691,0.151,1.297C234.085,215.684,234.042,216.095,233.934,216.549z"/>
		<path style="fill:#B4A168;" d="M253.065,210.992c0,3.719-1.427,5.772-5.578,5.772c-4.194,0-5.514-2.054-5.514-5.772v-9.06
			c0.433-0.064,0.995-0.108,1.514-0.108c0.605,0,1.146,0.044,1.578,0.108v9.275c0,1.989,0.562,3.114,2.443,3.114
			s2.53-1.125,2.53-3.114v-9.275c0.389-0.064,1.037-0.108,1.535-0.108c0.476,0,1.124,0.044,1.491,0.108V210.992z"/>
		<path style="fill:#B4A168;" d="M268.046,216.549c-0.389,0.064-1.081,0.108-1.838,0.108c-0.54,0-1.318-0.044-1.772-0.108
			l-3.784-5.859l-0.994,1.189v4.67c-0.411,0.064-0.908,0.108-1.557,0.108c-0.584,0-1.125-0.044-1.535-0.108v-14.616
			c0.41-0.064,1.016-0.108,1.557-0.108c0.605,0,1.146,0.044,1.535,0.108v6.292l2.508-2.94c1.103-1.298,1.708-2.228,1.946-3.352
			c0.432-0.064,1.037-0.108,1.513-0.108c0.39,0,1.06,0.044,1.514,0.108c-0.324,1.708-1.232,3.2-2.529,4.691l-1.729,1.989
			L268.046,216.549z"/>
	</g>
	<g>
		<path style="fill:#1A2A4F;" d="M179.997,198.239c-4.165,0-9.162-0.576-12.237-2.114c-0.192-0.641-0.32-2.051-0.32-2.883
			c0-1.346,0.191-3.012,0.512-4.357c3.46,1.346,7.497,2.051,10.7,2.051c5.254,0,8.201-2.436,8.201-6.472
			c0-4.356-2.627-6.087-7.496-6.087h-3.524c-0.191-0.705-0.384-2.114-0.384-3.652c0-1.281,0.256-2.818,0.448-3.396h3.332
			c4.421,0,6.471-2.37,6.471-5.702c0-3.14-2.307-4.678-5.958-4.678c-3.268,0-7.112,0.833-10.316,2.179
			c-0.32-1.089-0.576-2.883-0.576-4.293c0-0.961,0.128-2.435,0.32-3.011c2.755-1.218,7.816-2.179,12.109-2.179
			c7.497,0,13.775,3.716,13.775,11.341c0,4.229-1.922,7.753-5.574,9.418v0.129c4.229,1.602,6.792,5.445,6.792,9.866
			C196.271,193.562,188.839,198.239,179.997,198.239z"/>
		<path style="fill:#1A2A4F;" d="M233.112,197.534c-1.666,0.257-3.396,0.385-5.382,0.385c-1.794,0-3.588-0.064-4.806-0.32
			l-8.777-15.569h-3.78v15.569c-1.602,0.256-2.947,0.32-4.678,0.32c-1.537,0-2.883-0.064-4.484-0.32v-43.312
			c2.947-0.192,9.098-0.32,12.814-0.32c10.892,0,16.338,3.845,16.338,13.84c0,5.317-3.203,10.636-7.688,12.558L233.112,197.534z
			 M214.596,161.462c-1.409,0-3.14,0.064-4.229,0.129v12.813h3.203c5.254,0,7.561-1.922,7.561-6.663
			S218.824,161.462,214.596,161.462z"/>
		<path style="fill:#1A2A4F;" d="M263.996,193.754c-3.973,3.076-9.099,4.165-16.146,4.165c-3.588,0-9.675-0.128-11.725-0.32v-43.312
			c3.14-0.192,9.675-0.32,13.326-0.32c14.097,0,21.336,5.959,21.336,21.464C270.787,183.438,268.673,190.103,263.996,193.754z
			 M249.644,161.526c-1.729,0-3.651,0.064-4.356,0.128v28.512c0.833,0.064,2.755,0.129,4.741,0.129
			c8.073,0,11.276-5.126,11.276-14.993C261.305,164.474,257.973,161.526,249.644,161.526z"/>
	</g>
	<g>
		<path style="fill:#B4A168;" d="M184.685,148.773c-0.706,0.108-1.438,0.163-2.279,0.163c-0.76,0-1.52-0.027-2.035-0.136
			l-3.717-6.593h-1.601v6.593c-0.678,0.108-1.248,0.136-1.98,0.136c-0.65,0-1.221-0.027-1.898-0.136v-18.34
			c1.248-0.082,3.853-0.136,5.426-0.136c4.612,0,6.918,1.628,6.918,5.86c0,2.252-1.356,4.504-3.256,5.318L184.685,148.773z
			 M176.844,133.5c-0.597,0-1.329,0.027-1.791,0.054v5.426h1.356c2.225,0,3.202-0.813,3.202-2.821S178.634,133.5,176.844,133.5z"/>
		<path style="fill:#B4A168;" d="M202.809,148.801c-0.354,0.081-1.194,0.136-2.09,0.136c-0.705,0-1.519-0.081-1.871-0.136
			l-1.357-3.717h-6.511l-1.275,3.717c-0.597,0.081-1.302,0.136-2.008,0.136c-0.705,0-1.519-0.055-1.926-0.136l6.402-18.34
			c0.38-0.082,1.275-0.136,1.872-0.136c0.732,0,1.601,0.054,1.899,0.136L202.809,148.801z M196.324,141.855l-1.601-5.182
			c-0.19-0.597-0.38-1.357-0.543-2.198h-0.054c-0.136,0.841-0.354,1.601-0.543,2.198l-1.52,5.182H196.324z"/>
		<path style="fill:#B4A168;" d="M219.412,148.801c-0.271,0.055-0.923,0.108-1.384,0.108s-0.922-0.027-1.356-0.108l-8.438-11.748
			v11.748c-0.217,0.055-1.031,0.136-1.79,0.136c-0.624,0-1.356-0.081-1.736-0.136v-18.34c0.434-0.082,0.949-0.108,1.438-0.108
			c0.516,0,1.058,0.054,1.465,0.108l8.274,11.53v-11.53c0.543-0.082,1.248-0.136,1.764-0.136s1.275,0.054,1.764,0.136V148.801z"/>
		<path style="fill:#B4A168;" d="M237.372,148.801c-0.488,0.081-1.356,0.136-2.306,0.136c-0.678,0-1.655-0.055-2.225-0.136
			l-4.748-7.352l-1.248,1.492v5.86c-0.516,0.081-1.139,0.136-1.953,0.136c-0.732,0-1.411-0.055-1.926-0.136v-18.34
			c0.515-0.082,1.274-0.136,1.953-0.136c0.76,0,1.438,0.054,1.926,0.136v7.895l3.147-3.689c1.384-1.628,2.144-2.794,2.441-4.205
			c0.543-0.082,1.303-0.136,1.899-0.136c0.488,0,1.329,0.054,1.899,0.136c-0.407,2.143-1.547,4.015-3.175,5.887l-2.17,2.496
			L237.372,148.801z"/>
		<path style="fill:#B4A168;" d="M250.559,148.801h-11.476v-18.34h11.231c0.108,0.298,0.189,0.868,0.189,1.628
			c0,0.597-0.054,1.112-0.189,1.682h-7.353v3.961h6.213c0.108,0.299,0.19,0.841,0.19,1.601c0,0.597-0.055,1.085-0.19,1.655h-6.213
			v4.503h7.597c0.108,0.299,0.19,0.868,0.19,1.628C250.749,147.716,250.694,148.231,250.559,148.801z"/>
		<path style="fill:#B4A168;" d="M265.073,147.173c-1.682,1.303-3.853,1.764-6.836,1.764c-1.52,0-4.097-0.055-4.965-0.136v-18.34
			c1.329-0.082,4.097-0.136,5.643-0.136c5.969,0,9.034,2.523,9.034,9.088C267.949,142.805,267.054,145.626,265.073,147.173z
			 M258.996,133.526c-0.732,0-1.546,0.027-1.845,0.054v12.073c0.353,0.027,1.167,0.054,2.008,0.054c3.419,0,4.775-2.17,4.775-6.349
			C263.935,134.774,262.523,133.526,258.996,133.526z"/>
	</g>
	<g>
		<path style="fill:#1A2A4F;" d="M194.733,99.103c-1.17,0.18-2.385,0.27-3.78,0.27c-1.26,0-2.52-0.045-3.375-0.225l-6.164-10.935
			h-2.655v10.935c-1.125,0.18-2.07,0.225-3.285,0.225c-1.08,0-2.024-0.045-3.149-0.225V68.729c2.069-0.135,6.39-0.225,8.999-0.225
			c7.65,0,11.475,2.7,11.475,9.719c0,3.735-2.249,7.47-5.399,8.82L194.733,99.103z M181.729,73.769c-0.99,0-2.205,0.045-2.97,0.09v9
			h2.25c3.689,0,5.31-1.35,5.31-4.68C186.318,74.849,184.698,73.769,181.729,73.769z"/>
		<path style="fill:#1A2A4F;" d="M217.453,99.148h-19.034V68.729h18.629c0.181,0.495,0.315,1.44,0.315,2.7
			c0,0.99-0.09,1.845-0.315,2.79h-12.194v6.57h10.305c0.18,0.495,0.314,1.395,0.314,2.655c0,0.99-0.09,1.8-0.314,2.745h-10.305v7.47
			h12.6c0.18,0.495,0.314,1.44,0.314,2.7C217.768,97.348,217.678,98.203,217.453,99.148z"/>
		<path style="fill:#1A2A4F;" d="M248.183,99.148c-0.585,0.135-1.979,0.225-3.465,0.225c-1.17,0-2.52-0.135-3.104-0.225l-2.25-6.165
			h-10.8l-2.115,6.165c-0.989,0.135-2.159,0.225-3.329,0.225s-2.521-0.09-3.195-0.225l10.62-30.419
			c0.63-0.135,2.114-0.225,3.104-0.225c1.215,0,2.655,0.09,3.149,0.225L248.183,99.148z M237.428,87.628l-2.654-8.595
			c-0.315-0.99-0.63-2.25-0.9-3.645h-0.09c-0.225,1.395-0.585,2.655-0.899,3.645l-2.521,8.595H237.428z"/>
		<path style="fill:#1A2A4F;" d="M269.956,99.148h-18.629V68.729c0.854-0.135,2.024-0.225,3.149-0.225
			c1.261,0,2.476,0.09,3.285,0.225v24.929h12.194c0.181,0.495,0.315,1.44,0.315,2.7C270.271,97.348,270.182,98.203,269.956,99.148z"
			/>
	</g>
	<g>
		<path style="fill:#1A2A4F;" d="M185.375,125.898h-13.502v-21.579h13.215c0.128,0.352,0.224,1.021,0.224,1.916
			c0,0.702-0.063,1.309-0.224,1.979h-8.65v4.661h7.31c0.128,0.351,0.224,0.99,0.224,1.883c0,0.702-0.063,1.277-0.224,1.947h-7.31
			v5.299h8.938c0.128,0.351,0.224,1.021,0.224,1.916C185.599,124.622,185.535,125.228,185.375,125.898z"/>
		<path style="fill:#1A2A4F;" d="M194.439,126.218c-2.33,0-4.884-0.447-6.703-1.277c-0.096-0.447-0.16-1.021-0.16-1.532
			c0-0.766,0.096-1.5,0.319-2.362c1.884,0.766,4.373,1.245,6.32,1.245c2.267,0,3.479-1.054,3.479-2.49
			c0-1.596-1.021-2.266-4.117-3.224c-3.448-1.053-5.97-2.713-5.97-6.416c0-3.958,3.415-6.161,7.916-6.161
			c2.075,0,3.927,0.319,5.172,0.734c0.096,0.352,0.159,0.926,0.159,1.756c0,0.606-0.063,1.532-0.191,2.043
			c-1.596-0.415-3.415-0.639-4.884-0.639c-2.395,0-3.703,0.798-3.703,2.075c0,1.5,1.182,2.107,4.054,3
			c3.448,1.085,6.002,2.713,6.002,6.544C202.133,123.696,198.845,126.218,194.439,126.218z"/>
		<path style="fill:#1A2A4F;" d="M218.698,108.214h-5.714v17.685c-0.606,0.096-1.468,0.16-2.267,0.16
			c-0.798,0-1.659-0.064-2.298-0.16v-17.685h-5.714c-0.128-0.415-0.224-1.404-0.224-1.947c0-0.542,0.128-1.532,0.256-1.947h15.96
			c0.128,0.415,0.224,1.405,0.224,1.947C218.922,106.81,218.826,107.799,218.698,108.214z"/>
		<path style="fill:#1A2A4F;" d="M237.147,125.898c-0.415,0.096-1.404,0.16-2.458,0.16c-0.829,0-1.787-0.096-2.202-0.16
			l-1.596-4.373h-7.661l-1.501,4.373c-0.702,0.096-1.532,0.16-2.362,0.16c-0.829,0-1.787-0.064-2.266-0.16l7.533-21.579
			c0.447-0.096,1.5-0.159,2.202-0.159c0.862,0,1.884,0.063,2.234,0.159L237.147,125.898z M229.519,117.727l-1.884-6.097
			c-0.223-0.702-0.446-1.596-0.638-2.585h-0.064c-0.159,0.99-0.415,1.883-0.638,2.585l-1.788,6.097H229.519z"/>
		<path style="fill:#1A2A4F;" d="M251.415,108.214h-5.714v17.685c-0.606,0.096-1.468,0.16-2.267,0.16
			c-0.798,0-1.659-0.064-2.298-0.16v-17.685h-5.714c-0.128-0.415-0.224-1.404-0.224-1.947c0-0.542,0.128-1.532,0.256-1.947h15.96
			c0.128,0.415,0.224,1.405,0.224,1.947C251.639,106.81,251.543,107.799,251.415,108.214z"/>
		<path style="fill:#1A2A4F;" d="M267.406,125.898h-13.502v-21.579h13.215c0.128,0.352,0.224,1.021,0.224,1.916
			c0,0.702-0.063,1.309-0.224,1.979h-8.65v4.661h7.31c0.128,0.351,0.224,0.99,0.224,1.883c0,0.702-0.063,1.277-0.224,1.947h-7.31
			v5.299h8.938c0.128,0.351,0.224,1.021,0.224,1.916C267.63,124.622,267.566,125.228,267.406,125.898z"/>
	</g>
	<g>
		<path style="fill:#1A2A4F;" d="M82.429,235.929c-1.381-1.285-2.119-3.095-2.119-4.915c0-1.821,0.738-3.571,2.119-4.856
			c0.273,0.036,0.452,0.167,0.607,0.381c-1.167,1.381-1.607,2.939-1.607,4.511c0,1.595,0.44,3.118,1.607,4.499
			C82.881,235.762,82.703,235.893,82.429,235.929z"/>
		<path style="fill:#1A2A4F;" d="M90.189,227.526h-2.404v7.069c-0.203,0.036-0.393,0.06-0.607,0.06c-0.203,0-0.393-0.023-0.583-0.06
			v-7.069h-2.285c-0.047-0.155-0.059-0.334-0.059-0.488c0-0.143,0.012-0.345,0.059-0.488h5.88c0.047,0.144,0.059,0.346,0.059,0.488
			C90.248,227.192,90.236,227.371,90.189,227.526z"/>
		<path style="fill:#1A2A4F;" d="M97.389,234.596c-0.19,0.023-0.369,0.06-0.559,0.06c-0.214,0-0.417-0.023-0.631-0.06v-3.57h-3.559
			v3.57c-0.203,0.036-0.417,0.06-0.631,0.06c-0.203,0-0.369-0.023-0.56-0.06v-8.046c0.143-0.023,0.357-0.06,0.547-0.06
			c0.214,0,0.429,0.024,0.643,0.06v3.499h3.559v-3.499c0.202-0.035,0.404-0.06,0.619-0.06c0.203,0,0.381,0.024,0.571,0.06V234.596z"
			/>
		<path style="fill:#1A2A4F;" d="M104.042,234.596h-4.689v-8.046h4.511c0.048,0.144,0.06,0.346,0.06,0.488
			c0,0.154-0.012,0.333-0.06,0.488h-3.32v2.428h2.868c0.047,0.143,0.06,0.345,0.06,0.488c0,0.154-0.012,0.333-0.06,0.487h-2.868
			v2.69h3.499c0.047,0.143,0.06,0.345,0.06,0.487C104.102,234.263,104.09,234.441,104.042,234.596z"/>
		<path style="fill:#1A2A4F;" d="M110.433,234.715c-0.655,0-1.702-0.143-2.285-0.452c-0.036-0.167-0.06-0.321-0.06-0.488
			c0-0.179,0.012-0.357,0.06-0.523c0.559,0.262,1.547,0.487,2.226,0.487c0.988,0,1.654-0.381,1.654-1.201
			c0-0.75-0.345-1.119-1.309-1.477l-0.607-0.226c-1.202-0.452-1.94-1.107-1.94-2.214c0-1.488,1.261-2.19,2.702-2.19
			c0.631,0,1.238,0.071,1.797,0.215c0.036,0.143,0.06,0.297,0.06,0.452c0,0.166-0.024,0.333-0.06,0.5
			c-0.583-0.119-1.13-0.19-1.726-0.19c-0.809,0-1.571,0.321-1.571,1.178c0,0.607,0.333,0.977,1.273,1.333l0.559,0.215
			c1.226,0.452,1.964,1.023,1.964,2.285C113.17,233.965,111.957,234.715,110.433,234.715z"/>
		<path style="fill:#1A2A4F;" d="M120.455,231.585c0,2.07-0.714,3.13-2.904,3.13c-2.285,0-2.868-1.012-2.868-3.13v-5.035
			c0.19-0.023,0.381-0.06,0.571-0.06c0.214,0,0.405,0.024,0.619,0.06v5.237c0,1.154,0.25,2.011,1.667,2.011s1.761-0.856,1.761-2.011
			v-5.237c0.19-0.023,0.357-0.06,0.548-0.06c0.214,0,0.393,0.024,0.607,0.06V231.585z"/>
		<path style="fill:#1A2A4F;" d="M128.583,234.596c-0.095,0.036-0.297,0.048-0.452,0.048c-0.143,0-0.286-0.012-0.417-0.048
			l-4.237-6.011v6.011c-0.107,0.036-0.393,0.06-0.571,0.06c-0.143,0-0.369-0.012-0.524-0.06v-8.046
			c0.095-0.023,0.345-0.048,0.464-0.048c0.155,0,0.357,0.013,0.476,0.048l4.166,5.915v-5.915c0.131-0.035,0.357-0.06,0.512-0.06
			c0.143,0,0.464,0.024,0.583,0.06V234.596z"/>
		<path style="fill:#1A2A4F;" d="M135.45,233.894c-0.69,0.548-1.643,0.762-2.976,0.762c-0.547,0-1.571-0.023-1.928-0.06v-8.046
			c0.547-0.035,1.286-0.06,2.119-0.06c2.761,0,4.023,1.143,4.023,4.035C136.688,232.084,136.259,233.239,135.45,233.894z
			 M132.653,227.419c-0.238,0-0.667,0.012-0.917,0.023v6.237c0.214,0.023,0.607,0.035,1.023,0.035c0.904,0,1.5-0.25,1.916-0.69
			c0.56-0.583,0.762-1.523,0.762-2.522C135.438,228.466,134.855,227.419,132.653,227.419z"/>
		<path style="fill:#1A2A4F;" d="M142.234,232.691h-3.142l-0.619,1.904c-0.155,0.023-0.405,0.06-0.643,0.06
			c-0.167,0-0.405-0.023-0.56-0.06l2.773-8.046c0.143-0.035,0.44-0.06,0.595-0.06c0.167,0,0.44,0.036,0.547,0.06l2.976,8.046
			c-0.107,0.023-0.393,0.06-0.619,0.06c-0.179,0-0.464-0.012-0.643-0.06L142.234,232.691z M139.401,231.716h2.487l-0.952-2.737
			c-0.154-0.453-0.25-0.821-0.309-1.143h-0.012c-0.06,0.321-0.178,0.702-0.321,1.154L139.401,231.716z"/>
		<path style="fill:#1A2A4F;" d="M146.233,231.775l-1.773-3.523c-0.298-0.595-0.477-1.214-0.477-1.714
			c0.167-0.036,0.31-0.048,0.583-0.048c0.214,0,0.417,0.012,0.583,0.048c0,0.404,0.048,0.785,0.298,1.31l1.38,2.844h0.024
			l1.38-2.772c0.25-0.5,0.298-0.988,0.298-1.369c0.167-0.048,0.286-0.06,0.547-0.06c0.202,0,0.417,0.024,0.595,0.06
			c0,0.452-0.119,1.071-0.44,1.702l-1.809,3.547v2.797c-0.167,0.036-0.405,0.06-0.595,0.06c-0.214,0-0.405-0.023-0.595-0.06V231.775
			z"/>
		<path style="fill:#1A2A4F;" d="M158.504,227.526H156.1v7.069c-0.202,0.036-0.393,0.06-0.607,0.06c-0.202,0-0.393-0.023-0.583-0.06
			v-7.069h-2.285c-0.048-0.155-0.06-0.334-0.06-0.488c0-0.143,0.012-0.345,0.06-0.488h5.88c0.048,0.144,0.06,0.346,0.06,0.488
			C158.563,227.192,158.552,227.371,158.504,227.526z"/>
		<path style="fill:#1A2A4F;" d="M161.015,234.596c-0.19,0.023-0.381,0.06-0.571,0.06c-0.215,0-0.405-0.023-0.619-0.06v-8.046
			c0.202-0.035,0.393-0.06,0.607-0.06c0.202,0,0.393,0.024,0.583,0.06V234.596z"/>
		<path style="fill:#1A2A4F;" d="M170.595,234.596c-0.143,0.036-0.356,0.06-0.523,0.06c-0.154,0-0.512-0.023-0.654-0.06
			l-0.144-5.761l-2.106,5.011c-0.06,0.024-0.31,0.048-0.416,0.048c-0.107,0-0.321-0.023-0.393-0.048l-2.143-5.011l-0.143,5.761
			c-0.132,0.023-0.44,0.06-0.607,0.06c-0.119,0-0.404-0.036-0.523-0.06l0.285-8.046c0.179-0.035,0.369-0.06,0.488-0.06
			c0.167,0,0.429,0.036,0.535,0.06l2.512,5.784l2.428-5.784c0.155-0.023,0.452-0.06,0.619-0.06s0.429,0.036,0.523,0.06
			L170.595,234.596z"/>
		<path style="fill:#1A2A4F;" d="M177.165,234.596h-4.689v-8.046h4.511c0.048,0.144,0.06,0.346,0.06,0.488
			c0,0.154-0.012,0.333-0.06,0.488h-3.32v2.428h2.868c0.048,0.143,0.06,0.345,0.06,0.488c0,0.154-0.012,0.333-0.06,0.487h-2.868
			v2.69h3.499c0.048,0.143,0.06,0.345,0.06,0.487C177.225,234.263,177.213,234.441,177.165,234.596z"/>
		<path style="fill:#1A2A4F;" d="M180.759,234.715c-0.654,0-1.702-0.143-2.285-0.452c-0.036-0.167-0.06-0.321-0.06-0.488
			c0-0.179,0.012-0.357,0.06-0.523c0.56,0.262,1.547,0.487,2.226,0.487c0.988,0,1.654-0.381,1.654-1.201
			c0-0.75-0.345-1.119-1.31-1.477l-0.606-0.226c-1.202-0.452-1.94-1.107-1.94-2.214c0-1.488,1.262-2.19,2.702-2.19
			c0.631,0,1.237,0.071,1.797,0.215c0.036,0.143,0.06,0.297,0.06,0.452c0,0.166-0.023,0.333-0.06,0.5
			c-0.583-0.119-1.131-0.19-1.726-0.19c-0.81,0-1.571,0.321-1.571,1.178c0,0.607,0.334,0.977,1.273,1.333l0.56,0.215
			c1.226,0.452,1.964,1.023,1.964,2.285C183.496,233.965,182.282,234.715,180.759,234.715z"/>
		<path style="fill:#1A2A4F;" d="M184.758,234.144c0-0.393,0.321-0.714,0.714-0.714c0.452,0,0.75,0.368,0.75,0.868
			c0,0.94-0.917,1.952-1.714,2.464c-0.167-0.119-0.286-0.273-0.357-0.476c0.512-0.357,0.893-0.821,1.083-1.286
			C184.948,234.798,184.758,234.524,184.758,234.144z"/>
		<path style="fill:#1A2A4F;" d="M193.006,232.132c-0.429,0.477-0.893,0.977-1.393,1.476h3.368c0.035,0.131,0.06,0.381,0.06,0.524
			c0,0.131-0.013,0.333-0.06,0.464h-4.666c-0.083-0.227-0.143-0.44-0.143-0.679c0-0.095,0.012-0.202,0.023-0.297
			c0.631-0.631,1.345-1.381,1.952-2.06c1.119-1.25,1.714-1.976,1.714-2.928c0-0.856-0.571-1.285-1.333-1.285
			c-0.666,0-1.393,0.202-1.939,0.488c-0.036-0.167-0.06-0.334-0.06-0.5c0-0.119,0.023-0.298,0.06-0.405
			c0.547-0.297,1.309-0.5,2.118-0.5c1.333,0,2.38,0.798,2.38,2.107C195.088,229.752,194.362,230.62,193.006,232.132z"/>
		<path style="fill:#1A2A4F;" d="M199.324,234.715c-1.749,0-2.666-1.357-2.666-4.142c0-2.75,0.917-4.143,2.666-4.143
			c1.75,0,2.666,1.357,2.666,4.143C201.99,233.357,201.074,234.715,199.324,234.715z M199.324,227.359
			c-1.143,0-1.416,1.333-1.416,3.201c0,1.881,0.286,3.226,1.416,3.226c1.167,0,1.417-1.345,1.417-3.226
			C200.741,228.681,200.467,227.359,199.324,227.359z"/>
		<path style="fill:#1A2A4F;" d="M207.335,234.596c-0.19,0.036-0.393,0.06-0.595,0.06s-0.405-0.023-0.596-0.06v-6.76l-2.011,1.297
			c-0.227-0.214-0.429-0.56-0.5-0.857l2.772-1.726c0.132-0.035,0.286-0.06,0.44-0.06c0.167,0,0.334,0.024,0.488,0.06V234.596z"/>
		<path style="fill:#1A2A4F;" d="M215.035,227.442l-3.297,7.153c-0.19,0.036-0.417,0.06-0.631,0.06c-0.179,0-0.416-0.023-0.607-0.06
			l3.356-7.069h-3.88c-0.035-0.155-0.06-0.346-0.06-0.524c0-0.19,0.024-0.309,0.06-0.452h5.07c0.036,0.144,0.048,0.25,0.048,0.452
			C215.095,227.157,215.059,227.396,215.035,227.442z"/>
		<path style="fill:#1A2A4F;" d="M217.095,235.929c-0.274-0.036-0.452-0.167-0.607-0.381c1.167-1.381,1.606-2.939,1.606-4.511
			c0-1.595-0.439-3.118-1.606-4.499c0.155-0.214,0.357-0.345,0.631-0.381c1.381,1.285,2.095,3.095,2.095,4.915
			C219.213,232.894,218.475,234.644,217.095,235.929z"/>
	</g>
</g>
</svg>
