<?xml version="1.0" encoding="utf-8"?>
<!-- Generator: Adobe Illustrator 16.0.0, SVG Export Plug-In . SVG Version: 6.00 Build 0)  -->
<!DOCTYPE svg PUBLIC "-//W3C//DTD SVG 1.0//EN" "http://www.w3.org/TR/2001/REC-SVG-20010904/DTD/svg10.dtd">
<svg version="1.0" xmlns="http://www.w3.org/2000/svg" xmlns:xlink="http://www.w3.org/1999/xlink" x="0px" y="0px" width="300px"
	 height="300px" viewBox="0 0 300 300" style="enable-background:new 0 0 300 300;" xml:space="preserve">
<g id="Graphic">
	<rect x="154.494" y="83.305" style="fill:#B4A168;" width="6.268" height="25.382"/>
	<polygon style="fill:#B4A168;" points="134.787,52.753 134.787,73.226 112.261,87.155 112.261,108.374 118.528,108.374 
		118.528,90.647 141.054,76.718 141.054,52.753 	"/>
	<polygon style="fill:#B4A168;" points="155.895,56.716 179.778,72.39 179.778,90.984 186.047,90.984 186.047,69.006 
		162.162,53.333 162.155,30.349 155.887,30.349 	"/>
	<path style="fill:#B4A168;" d="M119.241,115.246c0,2.189-1.774,3.964-3.964,3.964c-2.189,0-3.962-1.775-3.962-3.964
		c0-2.188,1.773-3.963,3.962-3.963C117.467,111.283,119.241,113.058,119.241,115.246 M104.117,115.246
		c0,6.164,4.996,11.161,11.16,11.161c6.165,0,11.162-4.997,11.162-11.161c0-6.164-4.998-11.16-11.162-11.16
		C109.113,104.086,104.117,109.083,104.117,115.246"/>
	<path style="fill:#B4A168;" d="M119.241,66.865c0,2.188-1.774,3.964-3.964,3.964c-2.189,0-3.962-1.775-3.962-3.964
		c0-2.189,1.773-3.964,3.962-3.964C117.467,62.9,119.241,64.676,119.241,66.865 M104.117,66.865c0,6.164,4.996,11.16,11.16,11.16
		c6.165,0,11.162-4.996,11.162-11.16s-4.998-11.16-11.162-11.16C109.113,55.705,104.117,60.701,104.117,66.865"/>
	<path style="fill:#B4A168;" d="M141.203,97.328c0,2.188-1.774,3.964-3.964,3.964c-2.189,0-3.962-1.776-3.962-3.964
		c0-2.188,1.773-3.963,3.962-3.963C139.429,93.365,141.203,95.14,141.203,97.328 M126.079,97.328c0,6.164,4.996,11.161,11.16,11.161
		c6.165,0,11.162-4.997,11.162-11.161c0-6.164-4.997-11.162-11.162-11.162C131.075,86.166,126.079,91.165,126.079,97.328"/>
	<path style="fill:#B4A168;" d="M161.62,115.327c0,2.189-1.772,3.964-3.961,3.964c-2.19,0-3.964-1.775-3.964-3.964
		c0-2.188,1.773-3.963,3.964-3.963C159.848,111.364,161.62,113.138,161.62,115.327 M146.497,115.327
		c0,6.164,4.997,11.161,11.162,11.161c6.163,0,11.16-4.997,11.16-11.161c0-6.164-4.997-11.16-11.16-11.16
		C151.494,104.167,146.497,109.163,146.497,115.327"/>
	<path style="fill:#B4A168;" d="M161.62,76.31c0,2.189-1.772,3.964-3.961,3.964c-2.19,0-3.964-1.775-3.964-3.964
		c0-2.188,1.773-3.963,3.964-3.963C159.848,72.347,161.62,74.122,161.62,76.31 M146.497,76.31c0,6.164,4.997,11.161,11.162,11.161
		c6.163,0,11.16-4.997,11.16-11.161c0-6.164-4.997-11.16-11.16-11.16C151.494,65.15,146.497,70.146,146.497,76.31"/>
	<path style="fill:#B4A168;" d="M163.126,23.507c0,2.189-1.773,3.964-3.965,3.964c-2.188,0-3.962-1.775-3.962-3.964
		c0-2.188,1.773-3.963,3.962-3.963C161.353,19.544,163.126,21.318,163.126,23.507 M148.001,23.507
		c0,6.164,4.996,11.162,11.162,11.162c6.164,0,11.159-4.999,11.159-11.162s-4.995-11.16-11.159-11.16
		C152.997,12.347,148.001,17.343,148.001,23.507"/>
	<path style="fill:#B4A168;" d="M187.401,97.328c0,2.188-1.774,3.964-3.964,3.964c-2.188,0-3.962-1.776-3.962-3.964
		c0-2.188,1.773-3.963,3.962-3.963C185.627,93.365,187.401,95.14,187.401,97.328 M172.276,97.328
		c0,6.164,4.995,11.161,11.161,11.161c6.164,0,11.162-4.997,11.162-11.161c0-6.164-4.998-11.162-11.162-11.162
		C177.271,86.166,172.276,91.165,172.276,97.328"/>
	<path style="fill:#B4A168;" d="M187.401,46.523c0,2.188-1.774,3.964-3.964,3.964c-2.188,0-3.962-1.776-3.962-3.964
		s1.773-3.963,3.962-3.963C185.627,42.56,187.401,44.334,187.401,46.523 M172.276,46.523c0,6.164,4.995,11.161,11.161,11.161
		c6.164,0,11.162-4.998,11.162-11.161s-4.998-11.16-11.162-11.16C177.271,35.363,172.276,40.359,172.276,46.523"/>
	<path style="fill:#B4A168;" d="M141.203,45.98c0,2.188-1.774,3.963-3.964,3.963c-2.189,0-3.962-1.774-3.962-3.963
		c0-2.189,1.773-3.964,3.962-3.964C139.429,42.016,141.203,43.792,141.203,45.98 M126.079,45.98c0,6.164,4.996,11.16,11.16,11.16
		c6.165,0,11.162-4.996,11.162-11.16c0-6.165-4.997-11.161-11.162-11.161C131.075,34.82,126.079,39.816,126.079,45.98"/>
</g>
<g id="Text" style="display:none;">
	<text transform="matrix(1 0 0 1 101.4912 164.1514)" style="display:inline;"><tspan x="0" y="0" style="fill:#1A2A4F; font-family:'FSMatthew-Bold'; font-size:40.5642;">F</tspan><tspan x="20.85" y="0" style="fill:#1A2A4F; font-family:'FSMatthew-Bold'; font-size:40.5642;">I</tspan><tspan x="32.086" y="0" style="fill:#1A2A4F; font-family:'FSMatthew-Bold'; font-size:40.5642;">R</tspan><tspan x="55.613" y="0" style="fill:#1A2A4F; font-family:'FSMatthew-Bold'; font-size:40.5642; letter-spacing:-1;">S</tspan><tspan x="75.651" y="0" style="fill:#1A2A4F; font-family:'FSMatthew-Bold'; font-size:40.5642;">T</tspan></text>
	<text transform="matrix(1 0 0 1 101.2783 196.6025)" style="display:inline;"><tspan x="0" y="0" style="fill:#B4A168; font-family:'FSMatthew-Bold'; font-size:41.9165; letter-spacing:-1;">D</tspan><tspan x="25.82" y="0" style="fill:#B4A168; font-family:'FSMatthew-Bold'; font-size:41.9165; letter-spacing:-3;">A</tspan><tspan x="49.502" y="0" style="fill:#B4A168; font-family:'FSMatthew-Bold'; font-size:41.9165; letter-spacing:-3;">T</tspan><tspan x="68.784" y="0" style="fill:#B4A168; font-family:'FSMatthew-Bold'; font-size:41.9165;">A</tspan></text>
	<text transform="matrix(1 0 0 1 87.5488 225.8086)" style="display:inline;"><tspan x="0" y="0" style="fill:#B4A168; font-family:'FSMatthew-Bold'; font-size:33.8036;">S</tspan><tspan x="17.611" y="0" style="fill:#B4A168; font-family:'FSMatthew-Bold'; font-size:33.8036;">CI</tspan><tspan x="45.938" y="0" style="fill:#B4A168; font-family:'FSMatthew-Bold'; font-size:33.8036;">ENC</tspan><tspan x="105.398" y="0" style="fill:#B4A168; font-family:'FSMatthew-Bold'; font-size:33.8036;">E</tspan></text>
	
		<text transform="matrix(1 0 0 1 211.166 225.8086)" style="display:inline;fill:#FFFFFF; font-family:'FSMatthew-Bold'; font-size:33.8036;"> </text>
	<text transform="matrix(1 0 0 1 87.0879 249.9062)" style="display:inline;"><tspan x="0" y="0" style="fill:#B4A168; font-family:'FSMatthew-Bold'; font-size:28.6167; letter-spacing:-1;">A</tspan><tspan x="17.542" y="0" style="fill:#B4A168; font-family:'FSMatthew-Bold'; font-size:28.6167;">C</tspan><tspan x="34.254" y="0" style="fill:#B4A168; font-family:'FSMatthew-Bold'; font-size:28.6167;">ADE</tspan><tspan x="85.82" y="0" style="fill:#B4A168; font-family:'FSMatthew-Bold'; font-size:28.6167; letter-spacing:-1;">M</tspan><tspan x="108.342" y="0" style="fill:#B4A168; font-family:'FSMatthew-Bold'; font-size:28.6167;">Y</tspan></text>
	<text transform="matrix(1 0 0 1 96.7041 269.3633)" style="display:inline;"><tspan x="0" y="0" style="fill:#1A2A4F; font-family:'FSMatthew-Bold'; font-size:17.5778;">I</tspan><tspan x="4.869" y="0" style="fill:#1A2A4F; font-family:'FSMatthew-Bold'; font-size:17.5778;">N NO</tspan><tspan x="43.311" y="0" style="fill:#1A2A4F; font-family:'FSMatthew-Bold'; font-size:17.5778;">R</tspan><tspan x="53.137" y="0" style="fill:#1A2A4F; font-family:'FSMatthew-Bold'; font-size:17.5778;">T</tspan><tspan x="62.4" y="0" style="fill:#1A2A4F; font-family:'FSMatthew-Bold'; font-size:17.5778;">H</tspan><tspan x="73.861" y="0" style="fill:#1A2A4F; font-family:'FSMatthew-Bold'; font-size:17.5778;">E</tspan><tspan x="83.054" y="0" style="fill:#1A2A4F; font-family:'FSMatthew-Bold'; font-size:17.5778;">R</tspan><tspan x="93.249" y="0" style="fill:#1A2A4F; font-family:'FSMatthew-Bold'; font-size:17.5778;">N</tspan></text>
	<text transform="matrix(1 0 0 1 115.2832 284.2363)" style="display:inline;"><tspan x="0" y="0" style="fill:#1A2A4F; font-family:'FSMatthew-Bold'; font-size:17.5778;">IRE</tspan><tspan x="24.24" y="0" style="fill:#1A2A4F; font-family:'FSMatthew-Bold'; font-size:17.5778;">L</tspan><tspan x="33.556" y="0" style="fill:#1A2A4F; font-family:'FSMatthew-Bold'; font-size:17.5778;">AN</tspan><tspan x="56.582" y="0" style="fill:#1A2A4F; font-family:'FSMatthew-Bold'; font-size:17.5778;">D</tspan></text>
</g>
<g id="Text_Flat">
	<text transform="matrix(1 0 0 1 101.4912 164.1514)"><tspan x="0" y="0" style="fill:#1A2A4F; font-family:'FSMatthew-Bold'; font-size:40.5642;">F</tspan><tspan x="20.85" y="0" style="fill:#1A2A4F; font-family:'FSMatthew-Bold'; font-size:40.5642;">I</tspan><tspan x="32.086" y="0" style="fill:#1A2A4F; font-family:'FSMatthew-Bold'; font-size:40.5642;">R</tspan><tspan x="55.613" y="0" style="fill:#1A2A4F; font-family:'FSMatthew-Bold'; font-size:40.5642; letter-spacing:-1;">S</tspan><tspan x="75.651" y="0" style="fill:#1A2A4F; font-family:'FSMatthew-Bold'; font-size:40.5642;">T</tspan></text>
	<text transform="matrix(1 0 0 1 101.2783 196.6025)"><tspan x="0" y="0" style="fill:#B4A168; font-family:'FSMatthew-Bold'; font-size:41.9165; letter-spacing:-1;">D</tspan><tspan x="25.82" y="0" style="fill:#B4A168; font-family:'FSMatthew-Bold'; font-size:41.9165; letter-spacing:-3;">A</tspan><tspan x="49.502" y="0" style="fill:#B4A168; font-family:'FSMatthew-Bold'; font-size:41.9165; letter-spacing:-3;">T</tspan><tspan x="68.784" y="0" style="fill:#B4A168; font-family:'FSMatthew-Bold'; font-size:41.9165;">A</tspan></text>
	<text transform="matrix(1 0 0 1 87.5488 225.8086)"><tspan x="0" y="0" style="fill:#B4A168; font-family:'FSMatthew-Bold'; font-size:33.8036;">S</tspan><tspan x="17.611" y="0" style="fill:#B4A168; font-family:'FSMatthew-Bold'; font-size:33.8036;">CI</tspan><tspan x="45.938" y="0" style="fill:#B4A168; font-family:'FSMatthew-Bold'; font-size:33.8036;">ENC</tspan><tspan x="105.398" y="0" style="fill:#B4A168; font-family:'FSMatthew-Bold'; font-size:33.8036;">E</tspan></text>
	<text transform="matrix(1 0 0 1 211.166 225.8086)" style="fill:#FFFFFF; font-family:'FSMatthew-Bold'; font-size:33.8036;"> </text>
	<text transform="matrix(1 0 0 1 87.0879 249.9062)"><tspan x="0" y="0" style="fill:#B4A168; font-family:'FSMatthew-Bold'; font-size:28.6167; letter-spacing:-1;">A</tspan><tspan x="17.542" y="0" style="fill:#B4A168; font-family:'FSMatthew-Bold'; font-size:28.6167;">C</tspan><tspan x="34.254" y="0" style="fill:#B4A168; font-family:'FSMatthew-Bold'; font-size:28.6167;">ADE</tspan><tspan x="85.82" y="0" style="fill:#B4A168; font-family:'FSMatthew-Bold'; font-size:28.6167; letter-spacing:-1;">M</tspan><tspan x="108.342" y="0" style="fill:#B4A168; font-family:'FSMatthew-Bold'; font-size:28.6167;">Y</tspan></text>
	<text transform="matrix(1 0 0 1 96.7041 269.3633)"><tspan x="0" y="0" style="fill:#1A2A4F; font-family:'FSMatthew-Bold'; font-size:17.5778;">I</tspan><tspan x="4.869" y="0" style="fill:#1A2A4F; font-family:'FSMatthew-Bold'; font-size:17.5778;">N NO</tspan><tspan x="43.311" y="0" style="fill:#1A2A4F; font-family:'FSMatthew-Bold'; font-size:17.5778;">R</tspan><tspan x="53.137" y="0" style="fill:#1A2A4F; font-family:'FSMatthew-Bold'; font-size:17.5778;">T</tspan><tspan x="62.4" y="0" style="fill:#1A2A4F; font-family:'FSMatthew-Bold'; font-size:17.5778;">H</tspan><tspan x="73.861" y="0" style="fill:#1A2A4F; font-family:'FSMatthew-Bold'; font-size:17.5778;">E</tspan><tspan x="83.054" y="0" style="fill:#1A2A4F; font-family:'FSMatthew-Bold'; font-size:17.5778;">R</tspan><tspan x="93.249" y="0" style="fill:#1A2A4F; font-family:'FSMatthew-Bold'; font-size:17.5778;">N</tspan></text>
	<text transform="matrix(1 0 0 1 115.2832 284.2363)"><tspan x="0" y="0" style="fill:#1A2A4F; font-family:'FSMatthew-Bold'; font-size:17.5778;">IRE</tspan><tspan x="24.24" y="0" style="fill:#1A2A4F; font-family:'FSMatthew-Bold'; font-size:17.5778;">L</tspan><tspan x="33.556" y="0" style="fill:#1A2A4F; font-family:'FSMatthew-Bold'; font-size:17.5778;">AN</tspan><tspan x="56.582" y="0" style="fill:#1A2A4F; font-family:'FSMatthew-Bold'; font-size:17.5778;">D</tspan></text>
</g>
</svg>
