<?xml version="1.0" encoding="utf-8"?>
<!-- Generator: Adobe Illustrator 16.0.0, SVG Export Plug-In . SVG Version: 6.00 Build 0)  -->
<!DOCTYPE svg PUBLIC "-//W3C//DTD SVG 1.0//EN" "http://www.w3.org/TR/2001/REC-SVG-20010904/DTD/svg10.dtd">
<svg version="1.0" xmlns="http://www.w3.org/2000/svg" xmlns:xlink="http://www.w3.org/1999/xlink" x="0px" y="0px" width="300px"
	 height="300px" viewBox="0 0 300 300" style="enable-background:new 0 0 300 300;" xml:space="preserve">
<g id="Layer_1">
	<rect x="148.259" y="85.62" style="fill:#B4A168;" width="6.205" height="25.128"/>
	<polygon style="fill:#B4A168;" points="128.75,55.374 128.75,75.642 106.449,89.432 106.449,110.438 112.653,110.438 
		112.653,92.889 134.953,79.1 134.953,55.374 	"/>
	<polygon style="fill:#B4A168;" points="149.646,59.298 173.29,74.815 173.29,93.223 179.496,93.223 179.496,71.464 155.851,55.949 
		155.843,33.194 149.637,33.194 	"/>
	<path style="fill:#B4A168;" d="M113.358,117.242c0,2.167-1.755,3.925-3.924,3.925c-2.167,0-3.922-1.758-3.922-3.925
		c0-2.167,1.755-3.924,3.922-3.924C111.603,113.318,113.358,115.075,113.358,117.242 M98.386,117.242
		c0,6.102,4.946,11.049,11.048,11.049c6.104,0,11.05-4.947,11.05-11.049c0-6.102-4.946-11.048-11.05-11.048
		C103.332,106.194,98.386,111.14,98.386,117.242"/>
	<path style="fill:#B4A168;" d="M113.358,69.345c0,2.166-1.755,3.923-3.924,3.923c-2.167,0-3.922-1.757-3.922-3.923
		c0-2.168,1.755-3.925,3.922-3.925C111.603,65.42,113.358,67.177,113.358,69.345 M98.386,69.345c0,6.102,4.946,11.048,11.048,11.048
		c6.104,0,11.05-4.946,11.05-11.048c0-6.103-4.946-11.049-11.05-11.049C103.332,58.296,98.386,63.243,98.386,69.345"/>
	<path style="fill:#B4A168;" d="M135.1,99.503c0,2.167-1.756,3.924-3.925,3.924c-2.166,0-3.922-1.758-3.922-3.924
		s1.756-3.924,3.922-3.924C133.344,95.58,135.1,97.337,135.1,99.503 M120.127,99.503c0,6.102,4.946,11.048,11.048,11.048
		c6.104,0,11.051-4.946,11.051-11.048s-4.947-11.05-11.051-11.05C125.074,88.453,120.127,93.401,120.127,99.503"/>
	<path style="fill:#B4A168;" d="M155.314,117.322c0,2.167-1.756,3.924-3.922,3.924c-2.169,0-3.925-1.757-3.925-3.924
		s1.756-3.924,3.925-3.924C153.559,113.398,155.314,115.155,155.314,117.322 M140.342,117.322c0,6.102,4.947,11.049,11.051,11.049
		c6.102,0,11.048-4.947,11.048-11.049c0-6.103-4.946-11.048-11.048-11.048C145.289,106.273,140.342,111.219,140.342,117.322"/>
	<path style="fill:#B4A168;" d="M155.314,78.695c0,2.168-1.756,3.925-3.922,3.925c-2.169,0-3.925-1.757-3.925-3.925
		c0-2.167,1.756-3.923,3.925-3.923C153.559,74.772,155.314,76.529,155.314,78.695 M140.342,78.695
		c0,6.103,4.947,11.049,11.051,11.049c6.102,0,11.048-4.947,11.048-11.049c0-6.102-4.946-11.048-11.048-11.048
		C145.289,67.647,140.342,72.593,140.342,78.695"/>
	<path style="fill:#B4A168;" d="M156.804,26.42c0,2.168-1.756,3.925-3.925,3.925c-2.167,0-3.922-1.757-3.922-3.925
		c0-2.167,1.755-3.923,3.922-3.923C155.048,22.497,156.804,24.254,156.804,26.42 M141.831,26.42c0,6.102,4.946,11.05,11.051,11.05
		c6.101,0,11.047-4.948,11.047-11.05s-4.946-11.048-11.047-11.048C146.777,15.373,141.831,20.318,141.831,26.42"/>
	<path style="fill:#B4A168;" d="M180.837,99.503c0,2.167-1.757,3.924-3.923,3.924c-2.169,0-3.925-1.758-3.925-3.924
		s1.756-3.924,3.925-3.924C179.08,95.58,180.837,97.337,180.837,99.503 M165.863,99.503c0,6.102,4.946,11.048,11.051,11.048
		c6.101,0,11.049-4.946,11.049-11.048s-4.948-11.05-11.049-11.05C170.81,88.453,165.863,93.401,165.863,99.503"/>
	<path style="fill:#B4A168;" d="M180.837,49.207c0,2.167-1.757,3.924-3.923,3.924c-2.169,0-3.925-1.758-3.925-3.924
		s1.756-3.924,3.925-3.924C179.08,45.283,180.837,47.04,180.837,49.207 M165.863,49.207c0,6.102,4.946,11.049,11.051,11.049
		c6.101,0,11.049-4.947,11.049-11.049s-4.948-11.049-11.049-11.049C170.81,38.157,165.863,43.104,165.863,49.207"/>
	<path style="fill:#B4A168;" d="M135.1,48.669c0,2.166-1.756,3.924-3.925,3.924c-2.166,0-3.922-1.758-3.922-3.924
		c0-2.167,1.756-3.925,3.922-3.925C133.344,44.745,135.1,46.502,135.1,48.669 M120.127,48.669c0,6.102,4.946,11.048,11.048,11.048
		c6.104,0,11.051-4.946,11.051-11.048c0-6.103-4.947-11.049-11.051-11.049C125.074,37.621,120.127,42.566,120.127,48.669"/>
</g>
<g id="Layer_2" style="display:none;">
	<text transform="matrix(1 0 0 1 95.7886 165.6582)" style="display:inline;"><tspan x="0" y="0" style="fill:#1A2A4F; font-family:'FSMatthew-Bold'; font-size:40.1583;">F</tspan><tspan x="20.641" y="0" style="fill:#1A2A4F; font-family:'FSMatthew-Bold'; font-size:40.1583;">I</tspan><tspan x="31.765" y="0" style="fill:#1A2A4F; font-family:'FSMatthew-Bold'; font-size:40.1583;">R</tspan><tspan x="55.057" y="0" style="fill:#1A2A4F; font-family:'FSMatthew-Bold'; font-size:40.1583; letter-spacing:-1;">S</tspan><tspan x="74.894" y="0" style="fill:#1A2A4F; font-family:'FSMatthew-Bold'; font-size:40.1583;">T</tspan></text>
	<text transform="matrix(1 0 0 1 95.5786 197.7861)" style="display:inline;"><tspan x="0" y="0" style="fill:#B4A168; font-family:'FSMatthew-Bold'; font-size:41.497; letter-spacing:-1;">D</tspan><tspan x="25.562" y="0" style="fill:#B4A168; font-family:'FSMatthew-Bold'; font-size:41.497; letter-spacing:-3;">A</tspan><tspan x="49.007" y="0" style="fill:#B4A168; font-family:'FSMatthew-Bold'; font-size:41.497; letter-spacing:-3;">T</tspan><tspan x="68.095" y="0" style="fill:#B4A168; font-family:'FSMatthew-Bold'; font-size:41.497;">A</tspan></text>
	<text transform="matrix(1 0 0 1 81.9839 226.6992)" style="display:inline;"><tspan x="0" y="0" style="fill:#B4A168; font-family:'FSMatthew-Bold'; font-size:33.4654;">S</tspan><tspan x="17.435" y="0" style="fill:#B4A168; font-family:'FSMatthew-Bold'; font-size:33.4654;">CI</tspan><tspan x="45.479" y="0" style="fill:#B4A168; font-family:'FSMatthew-Bold'; font-size:33.4654;">ENC</tspan><tspan x="104.344" y="0" style="fill:#B4A168; font-family:'FSMatthew-Bold'; font-size:33.4654;">E</tspan></text>
	
		<text transform="matrix(1 0 0 1 204.3662 226.6992)" style="display:inline;fill:#FFFFFF; font-family:'FSMatthew-Bold'; font-size:33.4654;"> </text>
	<text transform="matrix(1 0 0 1 81.5288 250.5566)" style="display:inline;"><tspan x="0" y="0" style="fill:#B4A168; font-family:'FSMatthew-Bold'; font-size:28.3304; letter-spacing:-1;">A</tspan><tspan x="17.366" y="0" style="fill:#B4A168; font-family:'FSMatthew-Bold'; font-size:28.3304;">C</tspan><tspan x="33.911" y="0" style="fill:#B4A168; font-family:'FSMatthew-Bold'; font-size:28.3304;">ADE</tspan><tspan x="84.961" y="0" style="fill:#B4A168; font-family:'FSMatthew-Bold'; font-size:28.3304; letter-spacing:-1;">M</tspan><tspan x="107.257" y="0" style="fill:#B4A168; font-family:'FSMatthew-Bold'; font-size:28.3304;">Y</tspan></text>
	<text transform="matrix(1 0 0 1 91.0483 269.8174)" style="display:inline;"><tspan x="0" y="0" style="fill:#1A2A4F; font-family:'FSMatthew-Bold'; font-size:17.402;">I</tspan><tspan x="4.82" y="0" style="fill:#1A2A4F; font-family:'FSMatthew-Bold'; font-size:17.402;">N NO</tspan><tspan x="42.877" y="0" style="fill:#1A2A4F; font-family:'FSMatthew-Bold'; font-size:17.402;">R</tspan><tspan x="52.605" y="0" style="fill:#1A2A4F; font-family:'FSMatthew-Bold'; font-size:17.402;">T</tspan><tspan x="61.776" y="0" style="fill:#1A2A4F; font-family:'FSMatthew-Bold'; font-size:17.402;">H</tspan><tspan x="73.122" y="0" style="fill:#1A2A4F; font-family:'FSMatthew-Bold'; font-size:17.402;">E</tspan><tspan x="82.223" y="0" style="fill:#1A2A4F; font-family:'FSMatthew-Bold'; font-size:17.402;">R</tspan><tspan x="92.316" y="0" style="fill:#1A2A4F; font-family:'FSMatthew-Bold'; font-size:17.402;">N</tspan></text>
	<text transform="matrix(1 0 0 1 109.4429 284.542)" style="display:inline;"><tspan x="0" y="0" style="fill:#1A2A4F; font-family:'FSMatthew-Bold'; font-size:17.402;">IRE</tspan><tspan x="23.997" y="0" style="fill:#1A2A4F; font-family:'FSMatthew-Bold'; font-size:17.402;">L</tspan><tspan x="33.22" y="0" style="fill:#1A2A4F; font-family:'FSMatthew-Bold'; font-size:17.402;">AN</tspan><tspan x="56.016" y="0" style="fill:#1A2A4F; font-family:'FSMatthew-Bold'; font-size:17.402;">D</tspan></text>
</g>
<g id="Layer_3">
	<g>
		<path style="fill:#1A2A4F;" d="M115.227,143.409h-10.683v5.863h8.996c0.16,0.442,0.281,1.245,0.281,2.369
			c0,0.884-0.08,1.606-0.281,2.45h-8.996v11.566c-0.763,0.12-1.647,0.201-2.852,0.201c-1.084,0-2.129-0.081-2.892-0.201v-27.149
			h16.426c0.161,0.442,0.281,1.285,0.281,2.41C115.508,141.803,115.427,142.565,115.227,143.409z"/>
		<path style="fill:#1A2A4F;" d="M125.265,165.658c-0.763,0.12-1.687,0.201-2.892,0.201c-1.084,0-2.088-0.081-2.852-0.201v-27.149
			c0.763-0.121,1.888-0.201,2.892-0.201c1.125,0,2.128,0.08,2.852,0.201V165.658z"/>
		<path style="fill:#1A2A4F;" d="M150.565,165.618c-1.044,0.16-2.128,0.241-3.374,0.241c-1.125,0-2.249-0.041-3.012-0.201
			l-5.502-9.759h-2.369v9.759c-1.004,0.16-1.848,0.201-2.932,0.201c-0.964,0-1.807-0.041-2.811-0.201v-27.149
			c1.847-0.121,5.703-0.201,8.032-0.201c6.827,0,10.241,2.41,10.241,8.675c0,3.333-2.008,6.667-4.819,7.871L150.565,165.618z
			 M138.959,143.007c-0.884,0-1.968,0.04-2.65,0.081v8.032h2.008c3.293,0,4.739-1.205,4.739-4.177
			C143.056,143.971,141.609,143.007,138.959,143.007z"/>
		<path style="fill:#1A2A4F;" d="M161.247,166.06c-2.932,0-6.145-0.562-8.434-1.606c-0.121-0.562-0.201-1.285-0.201-1.928
			c0-0.964,0.12-1.888,0.401-2.972c2.37,0.964,5.502,1.566,7.952,1.566c2.852,0,4.378-1.325,4.378-3.133
			c0-2.008-1.285-2.852-5.182-4.056c-4.337-1.326-7.51-3.414-7.51-8.073c0-4.98,4.297-7.751,9.96-7.751
			c2.61,0,4.94,0.402,6.506,0.924c0.121,0.442,0.201,1.165,0.201,2.209c0,0.763-0.08,1.928-0.241,2.57
			c-2.008-0.522-4.297-0.803-6.145-0.803c-3.012,0-4.658,1.004-4.658,2.61c0,1.888,1.485,2.651,5.1,3.775
			c4.338,1.365,7.551,3.414,7.551,8.233C170.926,162.887,166.789,166.06,161.247,166.06z"/>
		<path style="fill:#1A2A4F;" d="M191.727,143.409h-7.188v22.249c-0.763,0.12-1.848,0.201-2.852,0.201s-2.088-0.081-2.892-0.201
			v-22.249h-7.188c-0.161-0.522-0.281-1.768-0.281-2.45s0.161-1.928,0.321-2.45h20.08c0.161,0.522,0.281,1.767,0.281,2.45
			S191.888,142.887,191.727,143.409z"/>
	</g>
	<g>
		<path style="fill:#B4A168;" d="M116.746,195.296c-2.573,1.992-5.894,2.698-10.459,2.698c-2.324,0-6.267-0.084-7.595-0.208v-28.057
			c2.034-0.124,6.267-0.208,8.633-0.208c9.131,0,13.821,3.86,13.821,13.904C121.145,188.613,119.775,192.93,116.746,195.296z
			 M107.449,174.42c-1.121,0-2.366,0.041-2.822,0.082v18.47c0.54,0.042,1.785,0.083,3.071,0.083c5.229,0,7.305-3.32,7.305-9.712
			C115.002,176.328,112.844,174.42,107.449,174.42z"/>
		<path style="fill:#B4A168;" d="M147.786,197.786c-0.54,0.124-1.826,0.208-3.196,0.208c-1.079,0-2.324-0.125-2.864-0.208
			l-2.075-5.687h-9.961l-1.951,5.687c-0.913,0.124-1.992,0.208-3.071,0.208s-2.324-0.084-2.947-0.208l9.795-28.057
			c0.581-0.124,1.951-0.208,2.864-0.208c1.121,0,2.449,0.084,2.905,0.208L147.786,197.786z M137.866,187.161l-2.449-7.927
			c-0.291-0.914-0.581-2.076-0.83-3.362h-0.083c-0.208,1.286-0.54,2.448-0.83,3.362l-2.324,7.927H137.866z"/>
		<path style="fill:#B4A168;" d="M166.334,174.793h-7.43v22.993c-0.788,0.124-1.908,0.208-2.946,0.208s-2.158-0.084-2.988-0.208
			v-22.993h-7.429c-0.166-0.539-0.291-1.826-0.291-2.531c0-0.706,0.166-1.992,0.332-2.532h20.752
			c0.166,0.54,0.291,1.826,0.291,2.532C166.625,172.967,166.5,174.254,166.334,174.793z"/>
		<path style="fill:#B4A168;" d="M190.319,197.786c-0.54,0.124-1.826,0.208-3.196,0.208c-1.078,0-2.324-0.125-2.863-0.208
			l-2.075-5.687h-9.961l-1.95,5.687c-0.914,0.124-1.992,0.208-3.072,0.208c-1.078,0-2.324-0.084-2.946-0.208l9.795-28.057
			c0.581-0.124,1.95-0.208,2.864-0.208c1.12,0,2.448,0.084,2.904,0.208L190.319,197.786z M180.4,187.161l-2.449-7.927
			c-0.291-0.914-0.581-2.076-0.83-3.362h-0.083c-0.208,1.286-0.54,2.448-0.83,3.362l-2.324,7.927H180.4z"/>
	</g>
	<g>
		<path style="fill:#B4A168;" d="M90.651,227.034c-2.443,0-5.12-0.469-7.027-1.339c-0.101-0.469-0.167-1.07-0.167-1.606
			c0-0.803,0.101-1.572,0.335-2.476c1.974,0.803,4.584,1.305,6.625,1.305c2.376,0,3.647-1.104,3.647-2.61
			c0-1.673-1.071-2.376-4.317-3.38c-3.614-1.104-6.257-2.844-6.257-6.726c0-4.149,3.581-6.458,8.299-6.458
			c2.175,0,4.116,0.334,5.421,0.77c0.1,0.368,0.167,0.971,0.167,1.84c0,0.637-0.067,1.606-0.201,2.143
			c-1.673-0.436-3.581-0.67-5.12-0.67c-2.51,0-3.882,0.837-3.882,2.175c0,1.573,1.238,2.209,4.25,3.146
			c3.614,1.138,6.291,2.845,6.291,6.86C98.715,224.391,95.269,227.034,90.651,227.034z"/>
		<path style="fill:#B4A168;" d="M117.355,208.797c-1.606-0.502-3.614-0.87-5.22-0.87c-3.815,0-6.291,2.71-6.291,7.562
			c0,4.45,1.941,7.361,6.257,7.361c1.606,0,3.414-0.334,5.02-0.836c0.234,0.603,0.401,1.539,0.401,2.242
			c0,0.568-0.033,1.271-0.1,1.572c-1.673,0.77-3.815,1.205-5.789,1.205c-7.194,0-10.742-4.351-10.742-11.444
			c0-6.894,3.815-11.846,10.942-11.846c1.74,0,4.016,0.435,5.622,1.138c0.101,0.334,0.134,1.07,0.134,1.506
			C117.589,207.425,117.455,208.396,117.355,208.797z"/>
		<path style="fill:#B4A168;" d="M125.555,226.699c-0.636,0.101-1.405,0.167-2.409,0.167c-0.904,0-1.74-0.066-2.376-0.167v-22.621
			c0.636-0.1,1.573-0.167,2.409-0.167c0.937,0,1.773,0.067,2.376,0.167V226.699z"/>
		<path style="fill:#B4A168;" d="M144.127,226.699h-14.155v-22.621h13.854c0.134,0.368,0.234,1.071,0.234,2.008
			c0,0.736-0.067,1.372-0.234,2.075h-9.068v4.886h7.663c0.134,0.368,0.234,1.037,0.234,1.974c0,0.736-0.067,1.339-0.234,2.042
			h-7.663v5.555h9.37c0.134,0.368,0.234,1.07,0.234,2.008C144.361,225.36,144.294,225.996,144.127,226.699z"/>
		<path style="fill:#B4A168;" d="M165.645,226.699c-0.334,0.067-1.138,0.134-1.706,0.134c-0.569,0-1.138-0.033-1.673-0.134
			l-10.407-14.489v14.489c-0.268,0.067-1.271,0.167-2.208,0.167c-0.77,0-1.673-0.1-2.142-0.167v-22.621
			c0.535-0.1,1.171-0.134,1.773-0.134c0.636,0,1.305,0.067,1.807,0.134l10.206,14.222v-14.222c0.669-0.1,1.539-0.167,2.175-0.167
			s1.573,0.067,2.175,0.167V226.699z"/>
		<path style="fill:#B4A168;" d="M185.456,208.797c-1.605-0.502-3.613-0.87-5.22-0.87c-3.814,0-6.291,2.71-6.291,7.562
			c0,4.45,1.94,7.361,6.258,7.361c1.605,0,3.413-0.334,5.02-0.836c0.233,0.603,0.401,1.539,0.401,2.242
			c0,0.568-0.034,1.271-0.101,1.572c-1.673,0.77-3.814,1.205-5.789,1.205c-7.194,0-10.741-4.351-10.741-11.444
			c0-6.894,3.814-11.846,10.942-11.846c1.739,0,4.015,0.435,5.621,1.138c0.101,0.334,0.134,1.07,0.134,1.506
			C185.69,207.425,185.557,208.396,185.456,208.797z"/>
		<path style="fill:#B4A168;" d="M202.992,226.699h-14.154v-22.621h13.854c0.134,0.368,0.234,1.071,0.234,2.008
			c0,0.736-0.067,1.372-0.234,2.075h-9.068v4.886h7.663c0.134,0.368,0.234,1.037,0.234,1.974c0,0.736-0.067,1.339-0.234,2.042
			h-7.663v5.555h9.369c0.134,0.368,0.234,1.07,0.234,2.008C203.227,225.36,203.16,225.996,202.992,226.699z"/>
	</g>
	<g>
		<path style="fill:#B4A168;" d="M99.72,250.557c-0.368,0.085-1.247,0.142-2.182,0.142c-0.737,0-1.587-0.085-1.956-0.142
			l-1.417-3.882h-6.801l-1.332,3.882c-0.624,0.085-1.36,0.142-2.097,0.142c-0.737,0-1.587-0.057-2.012-0.142l6.688-19.155
			c0.396-0.085,1.332-0.142,1.955-0.142c0.765,0,1.672,0.057,1.983,0.142L99.72,250.557z M92.948,243.303l-1.672-5.412
			c-0.198-0.623-0.397-1.417-0.567-2.295h-0.057c-0.142,0.878-0.368,1.672-0.567,2.295l-1.586,5.412H92.948z"/>
		<path style="fill:#B4A168;" d="M114.083,235.397c-1.36-0.426-3.061-0.737-4.42-0.737c-3.23,0-5.327,2.295-5.327,6.404
			c0,3.769,1.644,6.233,5.299,6.233c1.36,0,2.89-0.283,4.25-0.708c0.198,0.51,0.34,1.304,0.34,1.898
			c0,0.481-0.028,1.076-0.085,1.332c-1.417,0.651-3.23,1.02-4.902,1.02c-6.092,0-9.096-3.684-9.096-9.69
			c0-5.837,3.23-10.031,9.266-10.031c1.473,0,3.4,0.368,4.76,0.964c0.085,0.283,0.113,0.906,0.113,1.275
			C114.281,234.235,114.168,235.057,114.083,235.397z"/>
		<path style="fill:#B4A168;" d="M133.631,250.557c-0.368,0.085-1.247,0.142-2.182,0.142c-0.737,0-1.587-0.085-1.956-0.142
			l-1.417-3.882h-6.801l-1.332,3.882c-0.624,0.085-1.36,0.142-2.097,0.142c-0.737,0-1.587-0.057-2.012-0.142l6.688-19.155
			c0.396-0.085,1.332-0.142,1.955-0.142c0.765,0,1.672,0.057,1.983,0.142L133.631,250.557z M126.859,243.303l-1.672-5.412
			c-0.198-0.623-0.397-1.417-0.567-2.295h-0.057c-0.142,0.878-0.368,1.672-0.567,2.295l-1.586,5.412H126.859z"/>
		<path style="fill:#B4A168;" d="M147.937,248.856c-1.757,1.36-4.024,1.842-7.141,1.842c-1.587,0-4.279-0.057-5.186-0.142v-19.155
			c1.389-0.085,4.279-0.142,5.894-0.142c6.234,0,9.436,2.636,9.436,9.493C150.94,244.295,150.005,247.241,147.937,248.856z
			 M141.59,234.604c-0.765,0-1.615,0.028-1.927,0.057v12.609c0.368,0.028,1.218,0.057,2.097,0.057c3.57,0,4.987-2.267,4.987-6.63
			C146.747,235.907,145.273,234.604,141.59,234.604z"/>
		<path style="fill:#B4A168;" d="M165.757,250.557h-11.986v-19.155h11.731c0.113,0.312,0.198,0.907,0.198,1.7
			c0,0.624-0.057,1.162-0.198,1.757h-7.68v4.138h6.489c0.113,0.312,0.198,0.878,0.198,1.672c0,0.623-0.057,1.133-0.198,1.729h-6.489
			v4.703h7.935c0.113,0.312,0.198,0.907,0.198,1.7C165.955,249.423,165.898,249.962,165.757,250.557z"/>
		<path style="fill:#B4A168;" d="M187.997,250.557c-0.34,0.085-1.105,0.142-1.898,0.142c-0.851,0-1.644-0.085-1.983-0.142
			l-0.34-11.504l-4.194,9.69c-0.312,0.113-0.991,0.17-1.417,0.17c-0.51,0-1.133-0.057-1.444-0.142l-4.194-9.719l-0.368,11.504
			c-0.368,0.085-1.247,0.142-2.012,0.142c-0.453,0-1.219-0.057-1.729-0.142l0.822-19.155c0.538-0.057,1.076-0.142,1.643-0.142
			c0.681,0,1.332,0.057,1.672,0.142l5.61,13.007l5.64-13.007c0.566-0.085,1.133-0.142,1.643-0.142c0.652,0,1.247,0.057,1.672,0.142
			L187.997,250.557z"/>
		<path style="fill:#B4A168;" d="M203.181,235.794l-4.335,8.358v6.404c-0.539,0.085-1.162,0.142-2.013,0.142
			c-0.765,0-1.501-0.057-2.04-0.142v-6.461l-4.137-8.075c-0.906-1.757-1.389-3.202-1.389-4.647c0.454-0.057,1.275-0.113,1.983-0.113
			c0.681,0,1.445,0.028,1.983,0.113c0,1.19,0.171,1.984,0.822,3.344l1.898,3.91c0.425,0.851,0.793,1.87,0.906,2.466h0.028
			c0.143-0.596,0.596-1.644,0.936-2.381l1.955-4.108c0.425-0.878,0.68-1.898,0.68-3.202c0.539-0.085,1.389-0.142,2.069-0.142
			c0.793,0,1.388,0.057,1.842,0.142C204.371,232.847,203.804,234.575,203.181,235.794z"/>
	</g>
	<g>
		<path style="fill:#1A2A4F;" d="M94.875,269.817c-0.33,0.052-0.73,0.087-1.252,0.087c-0.47,0-0.905-0.035-1.235-0.087v-11.759
			c0.331-0.053,0.817-0.087,1.252-0.087c0.487,0,0.922,0.034,1.235,0.087V269.817z"/>
		<path style="fill:#1A2A4F;" d="M106.602,269.817c-0.174,0.035-0.592,0.069-0.887,0.069c-0.296,0-0.591-0.018-0.87-0.069
			l-5.41-7.532v7.532c-0.139,0.035-0.661,0.087-1.148,0.087c-0.4,0-0.87-0.052-1.113-0.087v-11.759
			c0.278-0.053,0.609-0.07,0.922-0.07c0.331,0,0.678,0.035,0.939,0.07l5.305,7.393v-7.393c0.348-0.053,0.8-0.087,1.131-0.087
			s0.817,0.034,1.131,0.087V269.817z"/>
		<path style="fill:#1A2A4F;" d="M121.897,269.817c-0.174,0.035-0.592,0.069-0.887,0.069c-0.296,0-0.591-0.018-0.87-0.069
			l-5.41-7.532v7.532c-0.139,0.035-0.661,0.087-1.148,0.087c-0.4,0-0.87-0.052-1.113-0.087v-11.759
			c0.278-0.053,0.609-0.07,0.922-0.07c0.331,0,0.678,0.035,0.939,0.07l5.305,7.393v-7.393c0.348-0.053,0.8-0.087,1.131-0.087
			s0.817,0.034,1.131,0.087V269.817z"/>
		<path style="fill:#1A2A4F;" d="M128.564,269.991c-3.218,0-4.922-2.227-4.922-6.054c0-3.826,1.705-6.053,4.922-6.053
			c3.218,0,4.923,2.227,4.923,6.053C133.487,267.765,131.782,269.991,128.564,269.991z M128.564,260.024
			c-1.496,0-2.348,1.147-2.348,3.913c0,2.767,0.853,3.914,2.348,3.914c1.496,0,2.349-1.147,2.349-3.914
			C130.913,261.172,130.06,260.024,128.564,260.024z"/>
		<path style="fill:#1A2A4F;" d="M143.893,269.8c-0.452,0.069-0.922,0.104-1.461,0.104c-0.487,0-0.974-0.018-1.305-0.087
			l-2.383-4.227h-1.026v4.227c-0.435,0.069-0.8,0.087-1.27,0.087c-0.417,0-0.783-0.018-1.218-0.087v-11.759
			c0.8-0.053,2.47-0.087,3.479-0.087c2.957,0,4.436,1.043,4.436,3.757c0,1.444-0.87,2.888-2.087,3.409L143.893,269.8z
			 M138.866,260.007c-0.383,0-0.853,0.018-1.148,0.034v3.479h0.87c1.426,0,2.052-0.522,2.052-1.81S140.014,260.007,138.866,260.007z
			"/>
		<path style="fill:#1A2A4F;" d="M152.769,260.181h-3.113v9.637c-0.331,0.052-0.8,0.087-1.235,0.087
			c-0.435,0-0.904-0.035-1.252-0.087v-9.637h-3.114c-0.069-0.227-0.122-0.766-0.122-1.062c0-0.295,0.07-0.835,0.139-1.061h8.697
			c0.069,0.226,0.122,0.766,0.122,1.061C152.891,259.415,152.838,259.954,152.769,260.181z"/>
		<path style="fill:#1A2A4F;" d="M163.191,269.817c-0.312,0.052-0.748,0.087-1.234,0.087c-0.487,0-0.922-0.035-1.253-0.087v-4.87
			h-4.088v4.87c-0.33,0.052-0.713,0.087-1.235,0.087c-0.469,0-0.922-0.035-1.252-0.087v-11.759c0.33-0.053,0.817-0.087,1.252-0.087
			c0.487,0,0.922,0.034,1.235,0.087v4.766h4.088v-4.766c0.383-0.053,0.817-0.087,1.253-0.087c0.417,0,0.938,0.034,1.234,0.087
			V269.817z"/>
		<path style="fill:#1A2A4F;" d="M172.833,269.817h-7.358v-11.759h7.201c0.07,0.191,0.122,0.557,0.122,1.043
			c0,0.383-0.035,0.714-0.122,1.079h-4.714v2.54h3.983c0.069,0.19,0.122,0.539,0.122,1.025c0,0.383-0.035,0.696-0.122,1.062h-3.983
			v2.888h4.871c0.069,0.191,0.121,0.557,0.121,1.044C172.954,269.121,172.92,269.452,172.833,269.817z"/>
		<path style="fill:#1A2A4F;" d="M183.239,269.8c-0.453,0.069-0.923,0.104-1.462,0.104c-0.486,0-0.974-0.018-1.305-0.087
			l-2.383-4.227h-1.026v4.227c-0.435,0.069-0.8,0.087-1.27,0.087c-0.418,0-0.783-0.018-1.218-0.087v-11.759
			c0.8-0.053,2.47-0.087,3.479-0.087c2.958,0,4.437,1.043,4.437,3.757c0,1.444-0.87,2.888-2.088,3.409L183.239,269.8z
			 M178.212,260.007c-0.383,0-0.853,0.018-1.148,0.034v3.479h0.87c1.426,0,2.053-0.522,2.053-1.81S179.359,260.007,178.212,260.007z
			"/>
		<path style="fill:#1A2A4F;" d="M194.097,269.817c-0.174,0.035-0.591,0.069-0.887,0.069s-0.592-0.018-0.87-0.069l-5.409-7.532
			v7.532c-0.14,0.035-0.661,0.087-1.148,0.087c-0.4,0-0.87-0.052-1.113-0.087v-11.759c0.278-0.053,0.608-0.07,0.922-0.07
			c0.33,0,0.679,0.035,0.939,0.07l5.306,7.393v-7.393c0.348-0.053,0.8-0.087,1.131-0.087c0.33,0,0.817,0.034,1.13,0.087V269.817z"/>
	</g>
	<g>
		<path style="fill:#1A2A4F;" d="M113.27,284.542c-0.33,0.052-0.73,0.087-1.252,0.087c-0.47,0-0.905-0.035-1.235-0.087v-11.759
			c0.331-0.053,0.817-0.087,1.252-0.087c0.487,0,0.922,0.034,1.235,0.087V284.542z"/>
		<path style="fill:#1A2A4F;" d="M124.23,284.524c-0.452,0.069-0.922,0.104-1.461,0.104c-0.487,0-0.974-0.018-1.305-0.087
			l-2.383-4.227h-1.026v4.227c-0.435,0.069-0.8,0.087-1.27,0.087c-0.417,0-0.783-0.018-1.218-0.087v-11.759
			c0.8-0.053,2.47-0.087,3.479-0.087c2.957,0,4.436,1.043,4.436,3.757c0,1.444-0.87,2.888-2.087,3.409L124.23,284.524z
			 M119.203,274.731c-0.382,0-0.852,0.018-1.148,0.034v3.479h0.87c1.427,0,2.053-0.522,2.053-1.81S120.352,274.731,119.203,274.731z
			"/>
		<path style="fill:#1A2A4F;" d="M133.001,284.542h-7.358v-11.759h7.202c0.069,0.191,0.122,0.557,0.122,1.043
			c0,0.383-0.035,0.714-0.122,1.079h-4.714v2.54h3.983c0.07,0.19,0.122,0.539,0.122,1.025c0,0.383-0.035,0.696-0.122,1.062h-3.983
			v2.888h4.871c0.07,0.191,0.122,0.557,0.122,1.044C133.124,283.846,133.088,284.177,133.001,284.542z"/>
		<path style="fill:#1A2A4F;" d="M141.946,284.542h-7.202v-11.759c0.331-0.053,0.783-0.087,1.218-0.087
			c0.487,0,0.957,0.034,1.27,0.087v9.637h4.714c0.069,0.191,0.122,0.557,0.122,1.044
			C142.068,283.846,142.033,284.177,141.946,284.542z"/>
		<path style="fill:#1A2A4F;" d="M153.831,284.542c-0.227,0.052-0.766,0.087-1.34,0.087c-0.452,0-0.974-0.052-1.2-0.087l-0.87-2.383
			h-4.175l-0.818,2.383c-0.382,0.052-0.835,0.087-1.287,0.087s-0.974-0.035-1.235-0.087l4.105-11.759
			c0.244-0.053,0.818-0.087,1.2-0.087c0.47,0,1.026,0.034,1.218,0.087L153.831,284.542z M149.673,280.089l-1.026-3.322
			c-0.122-0.383-0.244-0.87-0.348-1.409h-0.035c-0.087,0.539-0.226,1.026-0.348,1.409l-0.974,3.322H149.673z"/>
		<path style="fill:#1A2A4F;" d="M164.48,284.542c-0.174,0.035-0.591,0.069-0.887,0.069s-0.592-0.018-0.87-0.069l-5.409-7.532v7.532
			c-0.14,0.035-0.661,0.087-1.148,0.087c-0.4,0-0.87-0.052-1.113-0.087v-11.759c0.278-0.053,0.608-0.07,0.922-0.07
			c0.33,0,0.679,0.035,0.939,0.07l5.306,7.393v-7.393c0.348-0.053,0.8-0.087,1.13-0.087c0.331,0,0.818,0.034,1.131,0.087V284.542z"
			/>
		<path style="fill:#1A2A4F;" d="M174.33,283.498c-1.078,0.835-2.47,1.131-4.383,1.131c-0.975,0-2.627-0.035-3.184-0.087v-11.759
			c0.853-0.053,2.627-0.087,3.618-0.087c3.827,0,5.792,1.617,5.792,5.827C176.174,280.697,175.601,282.507,174.33,283.498z
			 M170.434,274.749c-0.47,0-0.991,0.017-1.183,0.034v7.741c0.227,0.018,0.748,0.034,1.287,0.034c2.192,0,3.062-1.392,3.062-4.07
			C173.6,275.549,172.695,274.749,170.434,274.749z"/>
	</g>
</g>
</svg>
