<?xml version="1.0" encoding="utf-8"?>
<!-- Generator: Adobe Illustrator 16.0.0, SVG Export Plug-In . SVG Version: 6.00 Build 0)  -->
<!DOCTYPE svg PUBLIC "-//W3C//DTD SVG 1.0//EN" "http://www.w3.org/TR/2001/REC-SVG-20010904/DTD/svg10.dtd">
<svg version="1.0" xmlns="http://www.w3.org/2000/svg" xmlns:xlink="http://www.w3.org/1999/xlink" x="0px" y="0px" width="300px"
	 height="300px" viewBox="0 0 300 300" style="enable-background:new 0 0 300 300;" xml:space="preserve">
<g id="Test_Tubes">
	<path style="fill:#80BDBA;" d="M101.347,149.618H70.925c-1.159,0-2.097-0.939-2.097-2.097c0-1.159,0.938-2.098,2.097-2.098h30.421
		c1.158,0,2.097,0.938,2.097,2.098C103.443,148.679,102.504,149.618,101.347,149.618"/>
	<path style="fill:#80BDBA;" d="M64.156,118.471L64.156,118.471l-30.953-0.006c-1.158-0.002-2.099-0.942-2.095-2.1
		c0-1.159,0.938-2.097,2.097-2.097l30.951,0.007c1.158,0,2.096,0.939,2.096,2.097C66.252,117.53,65.313,118.471,64.156,118.471"/>
	<path style="fill:#80BDBA;" d="M50.028,143.81H39.316c-1.123,0-2.035-0.911-2.035-2.036c0-1.124,0.912-2.035,2.035-2.035h10.711
		c1.123,0,2.034,0.911,2.034,2.035C52.062,142.898,51.15,143.81,50.028,143.81"/>
	<path style="fill:#80BDBA;" d="M42.82,179.811c-0.225,0-0.454-0.036-0.679-0.116c-4.676-1.649-5.038-8.454-5.064-9.224
		c0-0.024,0-0.045,0-0.068v-44.899c0-1.123,0.912-2.034,2.036-2.034c1.123,0,2.034,0.912,2.034,2.034v44.859
		c0.064,1.562,0.72,4.918,2.349,5.492c1.06,0.375,1.616,1.54,1.241,2.598C44.443,179.288,43.657,179.811,42.82,179.811"/>
	<path style="fill:#80BDBA;" d="M75.361,138.659c-1.126,0-2.037-0.911-2.037-2.034v-21.419c0-1.126,0.911-2.036,2.037-2.036
		c1.123,0,2.035,0.91,2.035,2.036v21.419C77.396,137.748,76.484,138.659,75.361,138.659"/>
	<path style="fill:#80BDBA;" d="M97.192,138.659c-1.124,0-2.036-0.911-2.036-2.034v-21.419c0-0.5,0.184-0.983,0.517-1.356
		l3.775-4.23H67.74c-1.125,0-2.036-0.911-2.036-2.036c0-1.124,0.911-2.034,2.036-2.034h36.249c0.801,0,1.53,0.471,1.859,1.204
		c0.325,0.733,0.195,1.589-0.34,2.188l-6.282,7.04v20.645C99.226,137.748,98.315,138.659,97.192,138.659"/>
	<rect x="56.023" y="123.467" style="fill:#80BDBA;" width="4.072" height="33.483"/>
	<path style="fill:#80BDBA;" d="M58.734,126.155c-0.416,0-0.833-0.121-1.2-0.377c-0.95-0.665-1.182-1.972-0.521-2.921l5.42-7.768
		c0.663-0.949,1.973-1.181,2.922-0.52c0.95,0.664,1.182,1.97,0.521,2.923l-5.42,7.765C60.047,125.843,59.395,126.155,58.734,126.155
		"/>
	<path style="fill:#80BDBA;" d="M122.111,210.96h-0.007c-4.826-0.004-9.651-0.008-14.476-0.008l-52.202,0.004
		c-1.702,0.005-4.033,0.017-5.513-0.118c-4.954-0.447-7.426-2.146-9.446-6.497c-1.986-4.281-1.382-9.031,1.794-14.124
		c4.314-6.904,8.421-14.149,12.392-21.156c1.994-3.515,4.053-7.151,6.116-10.699c2.083-3.584,4.227-7.195,6.305-10.684
		c2.066-3.479,4.206-7.073,6.274-10.634c0.565-0.973,1.812-1.304,2.782-0.736c0.973,0.562,1.301,1.809,0.737,2.781
		c-2.077,3.579-4.223,7.183-6.296,10.669c-2.07,3.482-4.211,7.082-6.282,10.648c-2.052,3.53-4.104,7.154-6.092,10.66
		c-3.994,7.044-8.121,14.326-12.481,21.309c-2.436,3.902-2.945,7.257-1.555,10.251c1.419,3.06,2.564,3.836,6.117,4.157
		c1.291,0.117,3.511,0.107,5.134,0.103l0.938-0.002h51.278c4.827,0,9.651,0.002,14.479,0.005h0.004c2.488,0,4.64-1.194,5.91-3.274
		c1.587-2.608,1.521-6.127-0.178-9.41c-0.574-1.108-1.209-2.093-1.883-3.138c-0.484-0.75-0.987-1.527-1.493-2.393
		c-0.736-1.259-1.471-2.51-2.206-3.762c-0.744-1.262-1.485-2.523-2.227-3.795c-3.838-6.565-7.676-13.113-11.518-19.665
		c-2.941-5.021-5.885-10.037-8.829-15.068c-1.227-2.101-2.492-4.262-3.763-6.352h-5.766c-1.126,0-2.036-0.911-2.036-2.034
		c0-1.124,0.91-2.036,2.036-2.036h6.906c0.706,0,1.364,0.367,1.732,0.969c1.495,2.425,2.974,4.952,4.404,7.397
		c2.943,5.028,5.885,10.049,8.828,15.066c3.84,6.552,7.68,13.101,11.52,19.669c0.74,1.268,1.479,2.525,2.22,3.786
		c0.738,1.253,1.477,2.509,2.213,3.771c0.461,0.787,0.937,1.524,1.397,2.24c0.696,1.078,1.415,2.192,2.078,3.471
		c2.359,4.559,2.374,9.567,0.04,13.399C129.472,209.054,126.053,210.96,122.111,210.96"/>
	<path style="fill:#80BDBA;" d="M73.192,96.878h4.07v4.07h-4.07V96.878z M80.592,96.878h4.07v4.07h-4.07V96.878z M87.993,96.878
		h4.07v4.07h-4.07V96.878z M95.394,96.878h4.07v4.07h-4.07V96.878z"/>
	<path style="fill:#80BDBA;" d="M80.811,88.394h4.072v4.072h-4.072V88.394z M88.152,88.394h4.07v4.072h-4.07V88.394z"/>
	<rect x="79.723" y="159.583" style="fill:#80BDBA;" width="13.112" height="35.402"/>
	<rect x="68.58" y="170.729" style="fill:#80BDBA;" width="35.401" height="13.111"/>
	<line style="fill:none;stroke:#6C8F9A;stroke-width:1.3;" x1="246.389" y1="221.159" x2="284.322" y2="221.159"/>
	<line style="fill:none;stroke:#6C8F9A;stroke-width:1.3;" x1="16.964" y1="221.181" x2="165.808" y2="221.159"/>
	<line style="fill:none;stroke:#6C8F9A;stroke-width:1.3;" x1="18.126" y1="221.159" x2="18.126" y2="76.85"/>
	<line style="fill:none;stroke:#6C8F9A;stroke-width:1.3;" x1="283.151" y1="221.159" x2="283.151" y2="76.85"/>
	<line style="fill:none;stroke:#6C8F9A;stroke-width:1.3;" x1="16.936" y1="78.041" x2="284.322" y2="78.041"/>
</g>
<g id="Text" style="display:none;">
	<text transform="matrix(1 0 0 1 140.6904 182.5215)" style="display:inline;"><tspan x="0" y="0" style="fill:#80BDBA; font-family:'FSMatthew-Bold'; font-size:38.0826;">H</tspan><tspan x="24.829" y="0" style="fill:#80BDBA; font-family:'FSMatthew-Bold'; font-size:38.0826;">E</tspan><tspan x="45.356" y="0" style="fill:#80BDBA; font-family:'FSMatthew-Bold'; font-size:38.0826;">A</tspan><tspan x="69.614" y="0" style="fill:#80BDBA; font-family:'FSMatthew-Bold'; font-size:38.0826; letter-spacing:-4;">L</tspan><tspan x="85.304" y="0" style="fill:#80BDBA; font-family:'FSMatthew-Bold'; font-size:38.0826;">T</tspan><tspan x="105.373" y="0" style="fill:#80BDBA; font-family:'FSMatthew-Bold'; font-size:38.0826;">H </tspan></text>
	<text transform="matrix(1 0 0 1 141.0234 210.2197)" style="display:inline;"><tspan x="0" y="0" style="fill:#80BDBA; font-family:'FSMatthew-Bold'; font-size:31.1586;">S</tspan><tspan x="16.233" y="0" style="fill:#80BDBA; font-family:'FSMatthew-Bold'; font-size:31.1586;">C</tspan><tspan x="33.713" y="0" style="fill:#80BDBA; font-family:'FSMatthew-Bold'; font-size:31.1586;">IEN</tspan><tspan x="79.672" y="0" style="fill:#80BDBA; font-family:'FSMatthew-Bold'; font-size:31.1586;">CE</tspan><tspan x="113.447" y="0" style="fill:#80BDBA; font-family:'FSMatthew-Bold'; font-size:31.1586;">S </tspan></text>
	<text transform="matrix(1 0 0 1 169.8701 227.165)" style="display:inline;"><tspan x="0" y="0" style="fill:#80BDBA; font-family:'FSMatthew'; font-size:17.842;">I</tspan><tspan x="4.282" y="0" style="fill:#80BDBA; font-family:'FSMatthew'; font-size:17.842;">N</tspan><tspan x="15.915" y="0" style="fill:#80BDBA; font-family:'FSMatthew'; font-size:17.842; letter-spacing:-1;"> </tspan><tspan x="18.787" y="0" style="fill:#80BDBA; font-family:'FSMatthew'; font-size:17.842;">T</tspan><tspan x="27.851" y="0" style="fill:#80BDBA; font-family:'FSMatthew'; font-size:17.842;">HE </tspan><tspan x="51.455" y="0" style="fill:#80BDBA; font-family:'FSMatthew'; font-size:17.842;">U</tspan><tspan x="62.32" y="0" style="fill:#80BDBA; font-family:'FSMatthew'; font-size:17.842;">K</tspan></text>
	<text transform="matrix(1 0 0 1 142.9268 110.2793)" style="display:inline;"><tspan x="0" y="0" style="fill:#80BDBA; font-family:'FSMatthew-Bold'; font-size:32.1156; letter-spacing:-1;">L</tspan><tspan x="15.769" y="0" style="fill:#80BDBA; font-family:'FSMatthew-Bold'; font-size:32.1156;">ONGE</tspan><tspan x="94.676" y="0" style="fill:#80BDBA; font-family:'FSMatthew-Bold'; font-size:32.1156; letter-spacing:-1;">S</tspan><tspan x="110.54" y="0" style="fill:#80BDBA; font-family:'FSMatthew-Bold'; font-size:32.1156; letter-spacing:-1;">T</tspan><tspan x="126.502" y="0" style="fill:#80BDBA; font-family:'FSMatthew-Bold'; font-size:32.1156;"> </tspan></text>
	<text transform="matrix(1 0 0 1 143.8262 129.3096)" style="display:inline;"><tspan x="0" y="0" style="fill:#B4A168; font-family:'FSMatthew-Bold'; font-size:21.4104;">E</tspan><tspan x="11.219" y="0" style="fill:#B4A168; font-family:'FSMatthew-Bold'; font-size:21.4104;">S</tspan><tspan x="21.796" y="0" style="fill:#B4A168; font-family:'FSMatthew-Bold'; font-size:21.4104; letter-spacing:-1;">T</tspan><tspan x="31.645" y="0" style="fill:#B4A168; font-family:'FSMatthew-Bold'; font-size:21.4104;">ABL</tspan><tspan x="68.319" y="0" style="fill:#B4A168; font-family:'FSMatthew-Bold'; font-size:21.4104;">IS</tspan><tspan x="85.384" y="0" style="fill:#B4A168; font-family:'FSMatthew-Bold'; font-size:21.4104;">H</tspan><tspan x="99.343" y="0" style="fill:#B4A168; font-family:'FSMatthew-Bold'; font-size:21.4104;">E</tspan><tspan x="110.54" y="0" style="fill:#B4A168; font-family:'FSMatthew-Bold'; font-size:21.4104;">D</tspan></text>
	<text transform="matrix(1 0 0 1 142.9277 150.7217)" style="display:inline;"><tspan x="0" y="0" style="fill:#80BDBA; font-family:'FSMatthew-Bold'; font-size:26.1682;">S</tspan><tspan x="13.607" y="0" style="fill:#80BDBA; font-family:'FSMatthew-Bold'; font-size:26.1682;">CHOO</tspan><tspan x="78.608" y="0" style="fill:#80BDBA; font-family:'FSMatthew-Bold'; font-size:26.1682; letter-spacing:-1;">L</tspan><tspan x="90.566" y="0" style="fill:#80BDBA; font-family:'FSMatthew-Bold'; font-size:26.1682;"> O</tspan><tspan x="112.574" y="0" style="fill:#80BDBA; font-family:'FSMatthew-Bold'; font-size:26.1682;">F </tspan></text>
</g>
<g id="Text_Flat">
	<g>
		<path style="fill:#80BDBA;" d="M163.39,182.521c-0.686,0.114-1.638,0.19-2.704,0.19s-2.019-0.076-2.742-0.19v-10.664h-8.95v10.664
			c-0.724,0.114-1.562,0.19-2.704,0.19c-1.028,0-2.019-0.076-2.742-0.19v-25.746c0.724-0.114,1.79-0.19,2.742-0.19
			c1.066,0,2.019,0.076,2.704,0.19v10.436h8.95v-10.436c0.838-0.114,1.79-0.19,2.742-0.19c0.914,0,2.057,0.076,2.704,0.19V182.521z"
			/>
		<path style="fill:#80BDBA;" d="M184.486,182.521h-16.11v-25.746h15.768c0.152,0.419,0.267,1.219,0.267,2.285
			c0,0.838-0.076,1.562-0.267,2.361h-10.321v5.561h8.722c0.152,0.419,0.267,1.181,0.267,2.247c0,0.838-0.076,1.523-0.267,2.323
			h-8.722v6.322h10.664c0.152,0.419,0.267,1.219,0.267,2.285C184.753,180.998,184.677,181.722,184.486,182.521z"/>
		<path style="fill:#80BDBA;" d="M210.498,182.521c-0.495,0.114-1.676,0.19-2.933,0.19c-0.99,0-2.133-0.114-2.628-0.19l-1.904-5.218
			h-9.141l-1.79,5.218c-0.838,0.114-1.828,0.19-2.818,0.19s-2.133-0.076-2.704-0.19l8.988-25.746c0.533-0.114,1.79-0.19,2.628-0.19
			c1.028,0,2.247,0.076,2.666,0.19L210.498,182.521z M201.396,172.771l-2.247-7.274c-0.267-0.838-0.533-1.904-0.762-3.085h-0.076
			c-0.19,1.181-0.495,2.247-0.762,3.085l-2.133,7.274H201.396z"/>
		<path style="fill:#80BDBA;" d="M228.929,182.521h-15.768v-25.746c0.724-0.114,1.714-0.19,2.666-0.19
			c1.066,0,2.095,0.076,2.78,0.19v21.1h10.321c0.152,0.419,0.267,1.219,0.267,2.285
			C229.195,180.998,229.119,181.722,228.929,182.521z"/>
		<path style="fill:#80BDBA;" d="M245.951,161.422h-6.817v21.1c-0.724,0.114-1.752,0.19-2.704,0.19s-1.98-0.076-2.742-0.19v-21.1
			h-6.817c-0.152-0.495-0.267-1.676-0.267-2.323s0.152-1.828,0.305-2.323h19.043c0.152,0.495,0.267,1.676,0.267,2.323
			S246.104,160.927,245.951,161.422z"/>
		<path style="fill:#80BDBA;" d="M268.763,182.521c-0.686,0.114-1.638,0.19-2.704,0.19s-2.019-0.076-2.742-0.19v-10.664h-8.95
			v10.664c-0.724,0.114-1.562,0.19-2.704,0.19c-1.028,0-2.019-0.076-2.742-0.19v-25.746c0.724-0.114,1.79-0.19,2.742-0.19
			c1.066,0,2.019,0.076,2.704,0.19v10.436h8.95v-10.436c0.838-0.114,1.79-0.19,2.742-0.19c0.914,0,2.057,0.076,2.704,0.19V182.521z"
			/>
	</g>
	<g>
		<path style="fill:#80BDBA;" d="M149.093,210.531c-2.274,0-4.767-0.437-6.543-1.246c-0.094-0.437-0.156-0.997-0.156-1.496
			c0-0.747,0.093-1.464,0.312-2.306c1.838,0.748,4.269,1.216,6.169,1.216c2.212,0,3.396-1.028,3.396-2.431
			c0-1.558-0.997-2.212-4.02-3.147c-3.365-1.028-5.826-2.648-5.826-6.263c0-3.863,3.334-6.014,7.727-6.014
			c2.025,0,3.833,0.312,5.047,0.717c0.094,0.343,0.156,0.903,0.156,1.714c0,0.592-0.062,1.496-0.188,1.994
			c-1.558-0.405-3.334-0.623-4.767-0.623c-2.337,0-3.615,0.779-3.615,2.025c0,1.464,1.153,2.057,3.958,2.929
			c3.365,1.06,5.857,2.648,5.857,6.388C156.603,208.069,153.394,210.531,149.093,210.531z"/>
		<path style="fill:#80BDBA;" d="M173.958,193.55c-1.496-0.467-3.365-0.81-4.861-0.81c-3.552,0-5.857,2.523-5.857,7.041
			c0,4.145,1.808,6.855,5.826,6.855c1.496,0,3.179-0.312,4.674-0.779c0.219,0.561,0.374,1.434,0.374,2.088
			c0,0.529-0.031,1.184-0.093,1.464c-1.559,0.717-3.553,1.122-5.391,1.122c-6.699,0-10.002-4.051-10.002-10.656
			c0-6.419,3.552-11.03,10.188-11.03c1.62,0,3.739,0.405,5.234,1.06c0.094,0.312,0.125,0.997,0.125,1.402
			C174.176,192.272,174.051,193.176,173.958,193.55z"/>
		<path style="fill:#80BDBA;" d="M181.591,210.22c-0.592,0.094-1.309,0.156-2.243,0.156c-0.841,0-1.62-0.062-2.212-0.156v-21.063
			c0.592-0.093,1.464-0.155,2.243-0.155c0.872,0,1.651,0.062,2.212,0.155V210.22z"/>
		<path style="fill:#80BDBA;" d="M198.915,210.22h-13.18v-21.063h12.899c0.125,0.343,0.219,0.997,0.219,1.87
			c0,0.686-0.062,1.277-0.219,1.932h-8.443v4.549h7.135c0.125,0.343,0.218,0.966,0.218,1.839c0,0.686-0.062,1.246-0.218,1.9h-7.135
			v5.172h8.724c0.125,0.343,0.219,0.997,0.219,1.87C199.134,208.974,199.071,209.565,198.915,210.22z"/>
		<path style="fill:#80BDBA;" d="M218.95,210.22c-0.312,0.062-1.06,0.125-1.589,0.125s-1.06-0.031-1.558-0.125l-9.69-13.491v13.491
			c-0.249,0.062-1.185,0.156-2.057,0.156c-0.717,0-1.558-0.094-1.994-0.156v-21.063c0.498-0.093,1.091-0.124,1.651-0.124
			c0.592,0,1.215,0.062,1.683,0.124l9.503,13.243v-13.243c0.623-0.093,1.434-0.155,2.025-0.155s1.465,0.062,2.025,0.155V210.22z"/>
		<path style="fill:#80BDBA;" d="M237.396,193.55c-1.496-0.467-3.365-0.81-4.861-0.81c-3.552,0-5.857,2.523-5.857,7.041
			c0,4.145,1.808,6.855,5.826,6.855c1.496,0,3.179-0.312,4.674-0.779c0.219,0.561,0.374,1.434,0.374,2.088
			c0,0.529-0.031,1.184-0.093,1.464c-1.559,0.717-3.553,1.122-5.391,1.122c-6.699,0-10.002-4.051-10.002-10.656
			c0-6.419,3.552-11.03,10.188-11.03c1.62,0,3.739,0.405,5.234,1.06c0.094,0.312,0.125,0.997,0.125,1.402
			C237.614,192.272,237.489,193.176,237.396,193.55z"/>
		<path style="fill:#80BDBA;" d="M253.691,210.22h-13.18v-21.063h12.899c0.125,0.343,0.218,0.997,0.218,1.87
			c0,0.686-0.062,1.277-0.218,1.932h-8.443v4.549h7.135c0.125,0.343,0.218,0.966,0.218,1.839c0,0.686-0.062,1.246-0.218,1.9h-7.135
			v5.172h8.724c0.125,0.343,0.219,0.997,0.219,1.87C253.91,208.974,253.848,209.565,253.691,210.22z"/>
		<path style="fill:#80BDBA;" d="M262.541,210.531c-2.274,0-4.768-0.437-6.544-1.246c-0.093-0.437-0.155-0.997-0.155-1.496
			c0-0.747,0.094-1.464,0.312-2.306c1.838,0.748,4.269,1.216,6.169,1.216c2.213,0,3.396-1.028,3.396-2.431
			c0-1.558-0.997-2.212-4.02-3.147c-3.365-1.028-5.826-2.648-5.826-6.263c0-3.863,3.334-6.014,7.728-6.014
			c2.024,0,3.832,0.312,5.047,0.717c0.094,0.343,0.156,0.903,0.156,1.714c0,0.592-0.062,1.496-0.188,1.994
			c-1.558-0.405-3.334-0.623-4.767-0.623c-2.337,0-3.614,0.779-3.614,2.025c0,1.464,1.152,2.057,3.957,2.929
			c3.365,1.06,5.857,2.648,5.857,6.388C270.05,208.069,266.841,210.531,262.541,210.531z"/>
	</g>
	<g>
		<path style="fill:#80BDBA;" d="M173.081,227.165c-0.285,0.036-0.571,0.089-0.856,0.089c-0.321,0-0.606-0.035-0.928-0.089v-12.059
			c0.304-0.053,0.589-0.089,0.91-0.089c0.303,0,0.589,0.036,0.874,0.089V227.165z"/>
		<path style="fill:#80BDBA;" d="M184.783,227.165c-0.143,0.054-0.445,0.071-0.678,0.071c-0.214,0-0.428-0.018-0.624-0.071
			l-6.351-9.008v9.008c-0.16,0.054-0.588,0.089-0.855,0.089c-0.215,0-0.554-0.018-0.785-0.089v-12.059
			c0.143-0.035,0.518-0.071,0.695-0.071c0.232,0,0.535,0.019,0.714,0.071l6.243,8.865v-8.865c0.196-0.053,0.535-0.089,0.767-0.089
			c0.214,0,0.696,0.036,0.874,0.089V227.165z"/>
		<path style="fill:#80BDBA;" d="M197.772,216.569h-3.604v10.596c-0.303,0.054-0.589,0.089-0.909,0.089
			c-0.304,0-0.589-0.035-0.874-0.089v-10.596h-3.425c-0.072-0.231-0.09-0.499-0.09-0.731c0-0.214,0.018-0.517,0.09-0.731h8.812
			c0.071,0.215,0.089,0.518,0.089,0.731C197.861,216.07,197.844,216.338,197.772,216.569z"/>
		<path style="fill:#80BDBA;" d="M207.959,227.165c-0.285,0.036-0.553,0.089-0.838,0.089c-0.321,0-0.624-0.035-0.945-0.089v-5.352
			h-5.334v5.352c-0.303,0.054-0.624,0.089-0.945,0.089c-0.303,0-0.553-0.035-0.838-0.089v-12.059
			c0.214-0.035,0.535-0.089,0.82-0.089c0.321,0,0.643,0.036,0.963,0.089v5.245h5.334v-5.245c0.303-0.053,0.606-0.089,0.928-0.089
			c0.303,0,0.57,0.036,0.855,0.089V227.165z"/>
		<path style="fill:#80BDBA;" d="M217.327,227.165h-7.028v-12.059h6.761c0.071,0.215,0.089,0.518,0.089,0.731
			c0,0.232-0.018,0.5-0.089,0.731h-4.978v3.639h4.299c0.072,0.215,0.09,0.518,0.09,0.731c0,0.232-0.018,0.5-0.09,0.731h-4.299v4.031
			h5.245c0.071,0.214,0.089,0.518,0.089,0.731C217.416,226.666,217.398,226.934,217.327,227.165z"/>
		<path style="fill:#80BDBA;" d="M231.261,222.652c0,3.104-1.07,4.691-4.353,4.691c-3.425,0-4.299-1.517-4.299-4.691v-7.546
			c0.285-0.035,0.571-0.089,0.856-0.089c0.321,0,0.606,0.036,0.928,0.089v7.849c0,1.73,0.374,3.015,2.497,3.015
			c2.122,0,2.64-1.284,2.64-3.015v-7.849c0.285-0.035,0.535-0.089,0.82-0.089c0.321,0,0.589,0.036,0.91,0.089V222.652z"/>
		<path style="fill:#80BDBA;" d="M239.771,218.104l-2.266,2.391l4.549,6.671c-0.375,0.071-0.643,0.089-1.017,0.089
			c-0.339,0-0.696-0.035-1.035-0.089l-3.71-5.423l-0.981,1.053v4.37c-0.249,0.054-0.606,0.089-0.909,0.089
			c-0.268,0-0.606-0.035-0.874-0.089v-12.059c0.268-0.053,0.606-0.089,0.874-0.089c0.303,0,0.66,0.036,0.909,0.089v5.513l3.14-3.354
			c0.678-0.731,1.231-1.553,1.32-2.159c0.268-0.053,0.589-0.089,0.856-0.089c0.303,0,0.678,0.036,0.927,0.089
			C241.306,216.195,240.717,217.104,239.771,218.104z"/>
	</g>
	<g>
		<path style="fill:#80BDBA;" d="M158.634,110.279h-13.298V88.566c0.61-0.096,1.445-0.161,2.248-0.161
			c0.899,0,1.767,0.064,2.345,0.161v17.794h8.705c0.128,0.353,0.225,1.028,0.225,1.927
			C158.858,108.995,158.794,109.605,158.634,110.279z"/>
		<path style="fill:#80BDBA;" d="M169.198,110.601c-5.942,0-9.09-4.111-9.09-11.178s3.147-11.178,9.09-11.178
			s9.09,4.111,9.09,11.178S175.141,110.601,169.198,110.601z M169.198,92.196c-2.762,0-4.336,2.12-4.336,7.227
			s1.574,7.227,4.336,7.227c2.763,0,4.336-2.12,4.336-7.227S171.961,92.196,169.198,92.196z"/>
		<path style="fill:#80BDBA;" d="M198.906,110.279c-0.321,0.064-1.093,0.128-1.639,0.128s-1.092-0.032-1.605-0.128l-9.989-13.908
			v13.908c-0.258,0.064-1.221,0.161-2.12,0.161c-0.739,0-1.606-0.096-2.056-0.161V88.566c0.514-0.096,1.124-0.128,1.702-0.128
			c0.61,0,1.253,0.064,1.734,0.128l9.797,13.651V88.566c0.643-0.096,1.478-0.161,2.088-0.161s1.509,0.064,2.088,0.161V110.279z"/>
		<path style="fill:#80BDBA;" d="M219.459,109.444c-1.67,0.739-4.4,1.156-6.938,1.156c-7.228,0-10.407-4.625-10.407-10.953
			c0-6.617,3.919-11.402,10.889-11.402c1.991,0,4.272,0.417,5.621,0.996c0.097,0.514,0.16,1.285,0.16,1.638
			c0,0.707-0.128,1.478-0.257,1.959c-1.381-0.45-3.372-0.739-5.203-0.739c-4.625,0-6.456,3.373-6.456,7.484
			c0,4.368,1.927,7.163,5.813,7.163c0.867,0,1.702-0.064,2.185-0.193v-6.938c0.61-0.097,1.445-0.161,2.248-0.161
			c0.899,0,1.767,0.064,2.345,0.161V109.444z"/>
		<path style="fill:#80BDBA;" d="M236.77,110.279h-13.587V88.566h13.298c0.128,0.353,0.225,1.028,0.225,1.927
			c0,0.707-0.064,1.317-0.225,1.991h-8.705v4.689h7.355c0.129,0.354,0.225,0.996,0.225,1.895c0,0.707-0.063,1.285-0.225,1.959
			h-7.355v5.332h8.994c0.128,0.353,0.225,1.028,0.225,1.927C236.994,108.995,236.93,109.605,236.77,110.279z"/>
		<path style="fill:#80BDBA;" d="M245.922,110.601c-2.345,0-4.915-0.45-6.745-1.285c-0.097-0.45-0.161-1.028-0.161-1.542
			c0-0.771,0.097-1.51,0.321-2.377c1.896,0.771,4.4,1.253,6.359,1.253c2.281,0,3.502-1.06,3.502-2.505
			c0-1.606-1.028-2.281-4.144-3.244c-3.47-1.06-6.007-2.73-6.007-6.456c0-3.983,3.437-6.199,7.966-6.199
			c2.088,0,3.951,0.321,5.203,0.739c0.097,0.354,0.161,0.932,0.161,1.767c0,0.61-0.064,1.542-0.193,2.056
			c-1.605-0.417-3.437-0.643-4.914-0.643c-2.409,0-3.726,0.803-3.726,2.088c0,1.51,1.188,2.12,4.079,3.02
			c3.469,1.092,6.038,2.73,6.038,6.584C253.662,108.063,250.354,110.601,245.922,110.601z"/>
		<path style="fill:#80BDBA;" d="M270.298,92.485h-5.75v17.794c-0.61,0.096-1.478,0.161-2.28,0.161s-1.67-0.064-2.312-0.161V92.485
			h-5.75c-0.128-0.417-0.225-1.413-0.225-1.959c0-0.546,0.129-1.542,0.257-1.959h16.061c0.128,0.417,0.225,1.413,0.225,1.959
			C270.522,91.072,270.426,92.067,270.298,92.485z"/>
	</g>
	<g>
		<path style="fill:#B4A168;" d="M154.487,129.31h-9.056v-14.472h8.863c0.085,0.235,0.149,0.685,0.149,1.284
			c0,0.471-0.043,0.878-0.149,1.328h-5.802v3.125h4.902c0.086,0.235,0.15,0.664,0.15,1.263c0,0.471-0.043,0.856-0.15,1.306h-4.902
			v3.554h5.994c0.086,0.235,0.15,0.685,0.15,1.285C154.638,128.453,154.595,128.86,154.487,129.31z"/>
		<path style="fill:#B4A168;" d="M160.59,129.523c-1.563,0-3.275-0.299-4.496-0.856c-0.064-0.3-0.106-0.685-0.106-1.028
			c0-0.514,0.063-1.006,0.214-1.584c1.263,0.514,2.933,0.835,4.238,0.835c1.521,0,2.334-0.707,2.334-1.67
			c0-1.07-0.686-1.52-2.762-2.162c-2.312-0.707-4.004-1.82-4.004-4.303c0-2.655,2.291-4.132,5.31-4.132
			c1.392,0,2.634,0.214,3.468,0.493c0.064,0.235,0.107,0.621,0.107,1.177c0,0.407-0.043,1.028-0.128,1.37
			c-1.071-0.278-2.291-0.428-3.276-0.428c-1.605,0-2.482,0.535-2.482,1.392c0,1.006,0.792,1.413,2.719,2.012
			c2.312,0.728,4.024,1.82,4.024,4.389C165.749,127.833,163.544,129.523,160.59,129.523z"/>
		<path style="fill:#B4A168;" d="M176.84,117.45h-3.832v11.86c-0.406,0.064-0.984,0.107-1.52,0.107s-1.113-0.042-1.542-0.107v-11.86
			h-3.832c-0.085-0.278-0.149-0.942-0.149-1.306s0.085-1.027,0.171-1.306h10.704c0.086,0.278,0.15,0.942,0.15,1.306
			S176.926,117.171,176.84,117.45z"/>
		<path style="fill:#B4A168;" d="M189.215,129.31c-0.278,0.064-0.942,0.107-1.648,0.107c-0.557,0-1.199-0.064-1.478-0.107
			l-1.07-2.933h-5.138l-1.006,2.933c-0.472,0.064-1.028,0.107-1.585,0.107s-1.198-0.042-1.52-0.107l5.052-14.472
			c0.3-0.064,1.007-0.107,1.478-0.107c0.578,0,1.263,0.043,1.499,0.107L189.215,129.31z M184.099,123.829l-1.264-4.089
			c-0.149-0.471-0.3-1.07-0.428-1.734h-0.043c-0.107,0.664-0.278,1.263-0.429,1.734l-1.198,4.089H184.099z"/>
		<path style="fill:#B4A168;" d="M195.231,129.417c-1.521,0-2.997-0.042-4.518-0.128v-14.429c1.242-0.085,2.891-0.128,4.004-0.128
			c3.296,0,5.309,1.006,5.309,3.725c0,1.37-0.578,2.398-1.927,2.997c1.799,0.428,2.954,1.734,2.954,3.49
			C201.054,128.282,198.635,129.417,195.231,129.417z M194.932,117.257c-0.386,0-0.813,0.021-1.156,0.043v3.254h1.199
			c1.392,0,2.055-0.45,2.055-1.755C197.029,117.45,195.98,117.257,194.932,117.257z M195.273,122.951h-1.498v3.896
			c0.406,0.021,1.006,0.043,1.413,0.043c1.905,0,2.825-0.535,2.825-1.97C198.014,123.444,197.222,122.951,195.273,122.951z"/>
		<path style="fill:#B4A168;" d="M211.76,129.31h-8.863v-14.472c0.407-0.064,0.964-0.107,1.499-0.107
			c0.599,0,1.177,0.043,1.562,0.107v11.86h5.802c0.085,0.235,0.149,0.685,0.149,1.285C211.909,128.453,211.866,128.86,211.76,129.31
			z"/>
		<path style="fill:#B4A168;" d="M216.855,129.31c-0.407,0.064-0.899,0.107-1.542,0.107c-0.577,0-1.112-0.042-1.52-0.107v-14.472
			c0.407-0.064,1.006-0.107,1.541-0.107c0.6,0,1.135,0.043,1.521,0.107V129.31z"/>
		<path style="fill:#B4A168;" d="M223.621,129.523c-1.563,0-3.275-0.299-4.496-0.856c-0.064-0.3-0.106-0.685-0.106-1.028
			c0-0.514,0.063-1.006,0.214-1.584c1.263,0.514,2.933,0.835,4.238,0.835c1.521,0,2.334-0.707,2.334-1.67
			c0-1.07-0.686-1.52-2.762-2.162c-2.312-0.707-4.004-1.82-4.004-4.303c0-2.655,2.291-4.132,5.31-4.132
			c1.392,0,2.634,0.214,3.468,0.493c0.064,0.235,0.107,0.621,0.107,1.177c0,0.407-0.043,1.028-0.128,1.37
			c-1.071-0.278-2.291-0.428-3.276-0.428c-1.605,0-2.482,0.535-2.482,1.392c0,1.006,0.792,1.413,2.719,2.012
			c2.312,0.728,4.024,1.82,4.024,4.389C228.78,127.833,226.575,129.523,223.621,129.523z"/>
		<path style="fill:#B4A168;" d="M241.969,129.31c-0.385,0.064-0.92,0.107-1.52,0.107s-1.135-0.042-1.541-0.107v-5.994h-5.031v5.994
			c-0.407,0.064-0.878,0.107-1.52,0.107c-0.578,0-1.135-0.042-1.542-0.107v-14.472c0.407-0.064,1.006-0.107,1.542-0.107
			c0.599,0,1.134,0.043,1.52,0.107v5.866h5.031v-5.866c0.471-0.064,1.006-0.107,1.541-0.107c0.514,0,1.156,0.043,1.52,0.107V129.31z
			"/>
		<path style="fill:#B4A168;" d="M253.83,129.31h-9.056v-14.472h8.863c0.085,0.235,0.149,0.685,0.149,1.284
			c0,0.471-0.043,0.878-0.149,1.328h-5.802v3.125h4.902c0.086,0.235,0.15,0.664,0.15,1.263c0,0.471-0.043,0.856-0.15,1.306h-4.902
			v3.554h5.994c0.086,0.235,0.15,0.685,0.15,1.285C253.98,128.453,253.938,128.86,253.83,129.31z"/>
		<path style="fill:#B4A168;" d="M265.284,128.025c-1.327,1.028-3.04,1.392-5.395,1.392c-1.199,0-3.232-0.042-3.918-0.107v-14.472
			c1.049-0.064,3.232-0.107,4.453-0.107c4.71,0,7.129,1.991,7.129,7.172C267.554,124.579,266.847,126.805,265.284,128.025z
			 M260.489,117.257c-0.578,0-1.221,0.021-1.456,0.043v9.526c0.278,0.021,0.921,0.043,1.584,0.043c2.697,0,3.768-1.713,3.768-5.01
			C264.385,118.242,263.271,117.257,260.489,117.257z"/>
	</g>
	<g>
		<path style="fill:#80BDBA;" d="M149.706,150.983c-1.911,0-4.004-0.366-5.496-1.047c-0.079-0.366-0.131-0.837-0.131-1.256
			c0-0.628,0.079-1.23,0.262-1.937c1.544,0.628,3.585,1.021,5.182,1.021c1.857,0,2.853-0.863,2.853-2.041
			c0-1.309-0.838-1.858-3.376-2.644c-2.826-0.863-4.894-2.224-4.894-5.26c0-3.245,2.8-5.05,6.49-5.05
			c1.701,0,3.219,0.262,4.24,0.602c0.078,0.288,0.131,0.759,0.131,1.439c0,0.498-0.053,1.257-0.157,1.676
			c-1.309-0.341-2.8-0.523-4.004-0.523c-1.963,0-3.036,0.653-3.036,1.7c0,1.23,0.968,1.728,3.324,2.46
			c2.826,0.89,4.919,2.225,4.919,5.365C156.012,148.916,153.316,150.983,149.706,150.983z"/>
		<path style="fill:#80BDBA;" d="M170.562,136.722c-1.256-0.393-2.826-0.681-4.082-0.681c-2.983,0-4.92,2.119-4.92,5.914
			c0,3.48,1.518,5.757,4.894,5.757c1.256,0,2.669-0.262,3.926-0.654c0.183,0.472,0.313,1.204,0.313,1.754
			c0,0.444-0.026,0.994-0.078,1.229c-1.309,0.603-2.983,0.942-4.527,0.942c-5.626,0-8.4-3.402-8.4-8.95
			c0-5.391,2.983-9.263,8.558-9.263c1.36,0,3.14,0.34,4.396,0.89c0.078,0.262,0.104,0.837,0.104,1.177
			C170.745,135.648,170.641,136.407,170.562,136.722z"/>
		<path style="fill:#80BDBA;" d="M186.838,150.722c-0.471,0.078-1.125,0.131-1.858,0.131c-0.732,0-1.387-0.053-1.884-0.131v-7.327
			h-6.149v7.327c-0.497,0.078-1.073,0.131-1.858,0.131c-0.706,0-1.387-0.053-1.884-0.131v-17.69
			c0.497-0.079,1.229-0.131,1.884-0.131c0.732,0,1.387,0.052,1.858,0.131v7.17h6.149v-7.17c0.576-0.079,1.229-0.131,1.884-0.131
			c0.628,0,1.413,0.052,1.858,0.131V150.722z"/>
		<path style="fill:#80BDBA;" d="M196.86,150.983c-4.842,0-7.406-3.35-7.406-9.106c0-5.758,2.564-9.107,7.406-9.107
			c4.841,0,7.405,3.349,7.405,9.107C204.266,147.634,201.701,150.983,196.86,150.983z M196.86,135.988
			c-2.251,0-3.533,1.728-3.533,5.889c0,4.16,1.282,5.888,3.533,5.888c2.25,0,3.532-1.728,3.532-5.888
			C200.393,137.716,199.11,135.988,196.86,135.988z"/>
		<path style="fill:#80BDBA;" d="M213.477,150.983c-4.842,0-7.406-3.35-7.406-9.106c0-5.758,2.564-9.107,7.406-9.107
			c4.841,0,7.405,3.349,7.405,9.107C220.882,147.634,218.317,150.983,213.477,150.983z M213.477,135.988
			c-2.251,0-3.533,1.728-3.533,5.889c0,4.16,1.282,5.888,3.533,5.888c2.25,0,3.532-1.728,3.532-5.888
			C217.009,137.716,215.727,135.988,213.477,135.988z"/>
		<path style="fill:#80BDBA;" d="M234.333,150.722h-10.834v-17.69c0.497-0.079,1.178-0.131,1.832-0.131
			c0.732,0,1.438,0.052,1.91,0.131v14.498h7.092c0.104,0.288,0.183,0.837,0.183,1.57
			C234.516,149.675,234.464,150.172,234.333,150.722z"/>
		<path style="fill:#80BDBA;" d="M247.442,150.983c-4.842,0-7.406-3.35-7.406-9.106c0-5.758,2.564-9.107,7.406-9.107
			c4.841,0,7.405,3.349,7.405,9.107C254.848,147.634,252.283,150.983,247.442,150.983z M247.442,135.988
			c-2.251,0-3.533,1.728-3.533,5.889c0,4.16,1.282,5.888,3.533,5.888c2.25,0,3.532-1.728,3.532-5.888
			C250.975,137.716,249.692,135.988,247.442,135.988z"/>
		<path style="fill:#80BDBA;" d="M268.168,136.225h-6.961v3.82h5.861c0.104,0.288,0.184,0.812,0.184,1.544
			c0,0.575-0.053,1.047-0.184,1.597h-5.861v7.536c-0.497,0.078-1.073,0.131-1.858,0.131c-0.706,0-1.387-0.053-1.884-0.131v-17.69
			h10.703c0.104,0.288,0.183,0.837,0.183,1.57C268.351,135.178,268.299,135.675,268.168,136.225z"/>
	</g>
</g>
</svg>
