<?xml version="1.0" encoding="utf-8"?>
<!-- Generator: Adobe Illustrator 16.0.0, SVG Export Plug-In . SVG Version: 6.00 Build 0)  -->
<!DOCTYPE svg PUBLIC "-//W3C//DTD SVG 1.0//EN" "http://www.w3.org/TR/2001/REC-SVG-20010904/DTD/svg10.dtd">
<svg version="1.0" xmlns="http://www.w3.org/2000/svg" xmlns:xlink="http://www.w3.org/1999/xlink" x="0px" y="0px" width="300px"
	 height="300px" viewBox="0 0 300 300" style="enable-background:new 0 0 300 300;" xml:space="preserve">
<g id="Icon">
	<path style="fill:#BAA875;" d="M117.972,153.649l-9.071,54.504c10.218-9.565,15.977-16.299,21.964-30.213
		c-0.756,13.528,1.988,22.096,10.991,35.697l7.012-42.138l-0.344-1.19c-3.067-0.492-5.638-2.7-6.536-5.756l-0.007-0.024
		c-1.625-5.514-5.865-9.869-11.333-11.647C126.432,151.511,121.914,151.83,117.972,153.649"/>
	<path style="fill:#BAA875;" d="M156.3,167.193l9.762,33.726c5.806-7.835,7.393-15.759,9.135-28.516
		c7.468,9.586,12.261,14.592,22.956,19.23l-9.99-34.523c-1.12-0.26-2.197-0.732-3.147-1.465l-0.003-0.004
		c-4.555-3.5-10.546-4.537-16.014-2.76c-5.468,1.771-9.709,6.13-11.331,11.641l-0.01,0.031
		C157.368,165.535,156.893,166.416,156.3,167.193"/>
	<path style="fill:#515558;" d="M148.812,169.135"/>
	<path style="fill:#E44398;" d="M201.616,89.863c0,28.603-23.188,51.79-51.792,51.79c-28.603,0-51.79-23.187-51.79-51.79
		c0-28.603,23.187-51.79,51.79-51.79C178.428,38.073,201.616,61.26,201.616,89.863 M220.122,67.01
		c-1.08-3.328-4.224-5.546-7.718-5.452h-0.038c-5.55,0.158-10.813-2.441-14.074-6.929c-3.262-4.493-4.097-10.304-2.236-15.534h0.002
		c1.175-3.298,0.038-6.974-2.794-9.03c-2.829-2.057-6.677-2.003-9.45,0.132h-0.003c-4.398,3.385-10.185,4.387-15.466,2.669
		c-5.28-1.714-9.376-5.923-10.945-11.248c-0.99-3.362-4.074-5.668-7.577-5.668c-3.503,0-6.588,2.309-7.577,5.668
		c-1.571,5.325-5.663,9.534-10.946,11.248c-5.279,1.714-11.064,0.715-15.461-2.669c-2.775-2.138-6.622-2.192-9.452-0.135
		c-2.832,2.055-3.969,5.735-2.793,9.029c1.858,5.23,1.023,11.042-2.241,15.538c-3.263,4.488-8.53,7.086-14.08,6.929h-0.028
		c-3.496-0.094-6.638,2.124-7.718,5.452c-1.082,3.325,0.158,6.967,3.042,8.944l0.004,0.004c4.583,3.14,7.321,8.337,7.321,13.892
		c0,5.554-2.738,10.753-7.321,13.891c-2.888,1.981-4.127,5.622-3.044,8.947c1.078,3.33,4.222,5.548,7.72,5.453l0.021-0.004
		c5.551-0.154,10.817,2.439,14.08,6.934c3.266,4.496,4.103,10.305,2.243,15.536l-0.002,0.003c-1.174,3.296-0.037,6.97,2.793,9.028
		c2.832,2.055,6.681,2.003,9.452-0.128c4.399-3.389,10.187-4.39,15.465-2.675c5.283,1.718,9.378,5.925,10.947,11.253l0.008,0.022
		c0.987,3.359,4.069,5.663,7.568,5.663s6.579-2.304,7.568-5.663l0.009-0.029c1.569-5.325,5.663-9.536,10.945-11.247
		c5.281-1.715,11.067-0.713,15.466,2.667l0.003,0.004c2.773,2.135,6.621,2.187,9.453,0.132c2.829-2.058,3.966-5.735,2.791-9.031
		l-0.002-0.003c-1.86-5.23-1.024-11.04,2.236-15.532c3.264-4.495,8.53-7.087,14.08-6.934l0.032,0.004
		c3.494,0.095,6.638-2.124,7.718-5.453c1.08-3.326-0.158-6.966-3.042-8.944h-0.004c-4.584-3.141-7.321-8.34-7.321-13.894
		c0-5.555,2.74-10.756,7.325-13.896C219.964,73.977,221.202,70.335,220.122,67.01"/>
	<path style="fill:none;stroke:#B4A168;stroke-width:1.026;" d="M149.824,137.583c26.356,0,47.725-21.368,47.725-47.72
		c0-26.36-21.368-47.728-47.725-47.728c-26.358,0-47.724,21.367-47.724,47.728C102.101,116.215,123.466,137.583,149.824,137.583z"/>
	<path style="fill:#B4A168;" d="M164.043,89.647c0.939-2.936,3.894-7.173,5.251-9.027c0.344-0.469,1.047-0.469,1.392,0
		c1.357,1.854,4.311,6.091,5.248,9.027H164.043z M160.588,91.113c0,5.192,4.209,9.402,9.402,9.402c5.191,0,9.401-4.21,9.401-9.402
		c0-4.116-5.903-12.605-8.355-15.955c-0.518-0.708-1.577-0.708-2.095,0C166.492,78.508,160.588,86.997,160.588,91.113
		 M120.868,95.803c0.938-2.936,3.891-7.17,5.25-9.027c0.343-0.469,1.046-0.469,1.39,0c1.357,1.857,4.313,6.091,5.25,9.027H120.868z
		 M125.766,81.314c-2.452,3.352-8.355,11.843-8.355,15.957c0,5.193,4.21,9.402,9.401,9.402c5.194,0,9.402-4.209,9.402-9.402
		c0-4.114-5.904-12.605-8.352-15.957C127.342,80.605,126.285,80.605,125.766,81.314 M151.676,73.509c0,1.807-1.47,3.274-3.276,3.274
		c-1.805,0-3.273-1.467-3.273-3.274c0-1.805,1.469-3.275,3.273-3.275C150.206,70.233,151.676,71.704,151.676,73.509 M178.76,69.305
		c-0.158-1.304-1.341-2.232-2.646-2.074l-21.999,2.669c-1.197-1.892-3.31-3.149-5.715-3.149c-2.984,0-5.518,1.936-6.412,4.622
		l-21.872,2.653c-1.304,0.158-2.231,1.341-2.074,2.645c0.158,1.3,1.341,2.229,2.645,2.071l21.484-2.607
		c0.616,1.459,1.729,2.656,3.127,3.381v32.01c-8.139,0.614-9.749,3.596-9.749,7.184h25.667c0-3.587-1.575-6.569-9.714-7.184v-32.01
		c1.873-0.97,3.233-2.79,3.572-4.947l21.612-2.621C177.99,71.79,178.917,70.606,178.76,69.305"/>
</g>
<g id="Text" style="display:none;">
	<text transform="matrix(1 0 0 1 118.1367 229.2373)" style="display:inline;"><tspan x="0" y="0" style="fill:#1A2A4F; font-family:'FSMatthew-Medium'; font-size:14.4652;">N</tspan><tspan x="9.243" y="0" style="fill:#1A2A4F; font-family:'FSMatthew-Medium'; font-size:14.4652; letter-spacing:-1;">A</tspan><tspan x="16.678" y="0" style="fill:#1A2A4F; font-family:'FSMatthew-Medium'; font-size:14.4652;">T</tspan><tspan x="23.578" y="0" style="fill:#1A2A4F; font-family:'FSMatthew-Medium'; font-size:14.4652;">I</tspan><tspan x="26.76" y="0" style="fill:#1A2A4F; font-family:'FSMatthew-Medium'; font-size:14.4652;">O</tspan><tspan x="36.438" y="0" style="fill:#1A2A4F; font-family:'FSMatthew-Medium'; font-size:14.4652;">N</tspan><tspan x="45.681" y="0" style="fill:#1A2A4F; font-family:'FSMatthew-Medium'; font-size:14.4652;">A</tspan><tspan x="54.244" y="0" style="fill:#1A2A4F; font-family:'FSMatthew-Medium'; font-size:14.4652;">L</tspan></text>
	<text transform="matrix(1 0 0 1 95.9268 242.9785)" style="display:inline;"><tspan x="0" y="0" style="fill:#1A2A4F; font-family:'FSMatthew-Medium'; font-size:14.4652; letter-spacing:-1;">A</tspan><tspan x="7.565" y="0" style="fill:#1A2A4F; font-family:'FSMatthew-Medium'; font-size:14.4652; letter-spacing:-1;">W</tspan><tspan x="18.747" y="0" style="fill:#1A2A4F; font-family:'FSMatthew-Medium'; font-size:14.4652;">A</tspan><tspan x="27.325" y="0" style="fill:#1A2A4F; font-family:'FSMatthew-Medium'; font-size:14.4652;">R</tspan><tspan x="34.817" y="0" style="fill:#1A2A4F; font-family:'FSMatthew-Medium'; font-size:14.4652;">D</tspan><tspan x="44.451" y="0" style="fill:#1A2A4F; font-family:'FSMatthew-Medium'; font-size:14.4652;">-</tspan><tspan x="48.472" y="0" style="fill:#1A2A4F; font-family:'FSMatthew-Medium'; font-size:14.4652;">WINNIN</tspan><tspan x="94.529" y="0" style="fill:#1A2A4F; font-family:'FSMatthew-Medium'; font-size:14.4652;">G </tspan></text>
	<text transform="matrix(1 0 0 1 88.5127 256.7207)" style="display:inline;"><tspan x="0" y="0" style="fill:#1A2A4F; font-family:'FSMatthew-Medium'; font-size:14.4652;">U</tspan><tspan x="9.084" y="0" style="fill:#1A2A4F; font-family:'FSMatthew-Medium'; font-size:14.4652;">L</tspan><tspan x="15.622" y="0" style="fill:#1A2A4F; font-family:'FSMatthew-Medium'; font-size:14.4652;">S</tspan><tspan x="21.958" y="0" style="fill:#1A2A4F; font-family:'FSMatthew-Medium'; font-size:14.4652;">T</tspan><tspan x="28.857" y="0" style="fill:#1A2A4F; font-family:'FSMatthew-Medium'; font-size:14.4652;">E</tspan><tspan x="35.699" y="0" style="fill:#1A2A4F; font-family:'FSMatthew-Medium'; font-size:14.4652;">R</tspan><tspan x="43.192" y="0" style="fill:#1A2A4F; font-family:'FSMatthew-Medium'; font-size:14.4652;"> UNIV</tspan><tspan x="75.29" y="0" style="fill:#1A2A4F; font-family:'FSMatthew-Medium'; font-size:14.4652;">E</tspan><tspan x="82.117" y="0" style="fill:#1A2A4F; font-family:'FSMatthew-Medium'; font-size:14.4652;">R</tspan><tspan x="89.422" y="0" style="fill:#1A2A4F; font-family:'FSMatthew-Medium'; font-size:14.4652;">SI</tspan><tspan x="99.461" y="0" style="fill:#1A2A4F; font-family:'FSMatthew-Medium'; font-size:14.4652;">T</tspan><tspan x="106.636" y="0" style="fill:#1A2A4F; font-family:'FSMatthew-Medium'; font-size:14.4652;">Y</tspan></text>
	<text transform="matrix(1 0 0 1 84.0137 278.8447)" style="display:inline;"><tspan x="0" y="0" style="fill:#B4A168; font-family:'FSMatthew-Bold'; font-size:26.0372;">L</tspan><tspan x="13.799" y="0" style="fill:#B4A168; font-family:'FSMatthew-Bold'; font-size:26.0372; letter-spacing:-2;">A</tspan><tspan x="28.875" y="0" style="fill:#B4A168; font-family:'FSMatthew-Bold'; font-size:26.0372;">W CLIN</tspan><tspan x="109.458" y="0" style="fill:#B4A168; font-family:'FSMatthew-Bold'; font-size:26.0372;">I</tspan><tspan x="116.67" y="0" style="fill:#B4A168; font-family:'FSMatthew-Bold'; font-size:26.0372;">C</tspan></text>
</g>
<g id="Text_Flat">
	<g>
		<path style="fill:#1A2A4F;" d="M119.236,229.237v-9.75h1.374l3.125,4.933c0.723,1.144,1.288,2.17,1.75,3.168l0.029-0.014
			c-0.116-1.303-0.145-2.488-0.145-4.008v-4.079h1.187v9.75h-1.273l-3.096-4.947c-0.68-1.085-1.331-2.198-1.823-3.255l-0.043,0.015
			c0.073,1.229,0.102,2.401,0.102,4.021v4.166H119.236z"/>
		<path style="fill:#1A2A4F;" d="M130.056,226.171l-1.013,3.066h-1.302l3.312-9.75h1.519l3.327,9.75h-1.345l-1.042-3.066H130.056z
			 M133.253,225.188l-0.955-2.807c-0.217-0.637-0.361-1.215-0.506-1.779h-0.029c-0.145,0.578-0.304,1.172-0.492,1.765l-0.955,2.821
			H133.253z"/>
		<path style="fill:#1A2A4F;" d="M137.766,220.559H134.8v-1.071h7.218v1.071h-2.979v8.679h-1.273V220.559z"/>
		<path style="fill:#1A2A4F;" d="M144.073,219.487v9.75h-1.258v-9.75H144.073z"/>
		<path style="fill:#1A2A4F;" d="M154.328,224.262c0,3.355-2.039,5.135-4.527,5.135c-2.575,0-4.383-1.996-4.383-4.947
			c0-3.096,1.924-5.121,4.527-5.121C152.607,219.328,154.328,221.368,154.328,224.262z M146.763,224.42
			c0,2.083,1.128,3.949,3.11,3.949c1.996,0,3.125-1.837,3.125-4.05c0-1.938-1.013-3.964-3.11-3.964
			C147.805,220.355,146.763,222.279,146.763,224.42z"/>
		<path style="fill:#1A2A4F;" d="M155.674,229.237v-9.75h1.374l3.124,4.933c0.724,1.144,1.288,2.17,1.751,3.168l0.028-0.014
			c-0.115-1.303-0.145-2.488-0.145-4.008v-4.079h1.187v9.75h-1.273l-3.095-4.947c-0.681-1.085-1.331-2.198-1.823-3.255l-0.043,0.015
			c0.072,1.229,0.101,2.401,0.101,4.021v4.166H155.674z"/>
		<path style="fill:#1A2A4F;" d="M166.493,226.171l-1.013,3.066h-1.302l3.312-9.75h1.52l3.327,9.75h-1.346l-1.041-3.066H166.493z
			 M169.69,225.188l-0.955-2.807c-0.217-0.637-0.361-1.215-0.506-1.779H168.2c-0.145,0.578-0.304,1.172-0.491,1.765l-0.955,2.821
			H169.69z"/>
		<path style="fill:#1A2A4F;" d="M173.48,219.487h1.258v8.694h4.166v1.056h-5.424V219.487z"/>
	</g>
	<g>
		<path style="fill:#1A2A4F;" d="M98.603,239.912l-1.013,3.066h-1.302l3.312-9.75h1.519l3.327,9.75h-1.345l-1.042-3.066H98.603z
			 M101.8,238.928l-0.955-2.806c-0.217-0.637-0.361-1.215-0.506-1.779h-0.029c-0.145,0.578-0.304,1.172-0.492,1.765l-0.955,2.82
			H101.8z"/>
		<path style="fill:#1A2A4F;" d="M106.183,242.979l-2.474-9.75h1.331l1.157,4.933c0.289,1.216,0.55,2.431,0.723,3.371h0.029
			c0.159-0.97,0.463-2.127,0.796-3.385l1.302-4.919h1.316l1.186,4.947c0.275,1.157,0.535,2.314,0.68,3.342h0.029
			c0.203-1.07,0.477-2.155,0.781-3.37l1.288-4.919h1.288l-2.763,9.75h-1.316l-1.23-5.077c-0.304-1.244-0.506-2.199-0.636-3.183
			h-0.029c-0.174,0.969-0.391,1.924-0.752,3.183l-1.389,5.077H106.183z"/>
		<path style="fill:#1A2A4F;" d="M117.35,239.912l-1.013,3.066h-1.302l3.312-9.75h1.519l3.327,9.75h-1.345l-1.042-3.066H117.35z
			 M120.546,238.928l-0.955-2.806c-0.217-0.637-0.362-1.215-0.506-1.779h-0.029c-0.145,0.578-0.304,1.172-0.492,1.765l-0.955,2.82
			H120.546z"/>
		<path style="fill:#1A2A4F;" d="M124.351,233.359c0.637-0.131,1.548-0.203,2.416-0.203c1.345,0,2.213,0.246,2.821,0.796
			c0.492,0.434,0.767,1.1,0.767,1.852c0,1.287-0.81,2.141-1.837,2.488v0.043c0.752,0.261,1.201,0.955,1.432,1.968
			c0.318,1.359,0.55,2.3,0.752,2.676h-1.302c-0.159-0.274-0.376-1.114-0.651-2.329c-0.289-1.345-0.81-1.852-1.953-1.895h-1.186
			v4.224h-1.259V233.359z M125.609,237.8h1.287c1.346,0,2.199-0.737,2.199-1.852c0-1.259-0.912-1.808-2.242-1.822
			c-0.608,0-1.042,0.058-1.244,0.115V237.8z"/>
		<path style="fill:#1A2A4F;" d="M131.844,233.359c0.767-0.116,1.678-0.203,2.676-0.203c1.808,0,3.096,0.42,3.949,1.216
			c0.868,0.795,1.374,1.924,1.374,3.5c0,1.592-0.492,2.894-1.403,3.79c-0.911,0.911-2.416,1.403-4.311,1.403
			c-0.896,0-1.649-0.044-2.285-0.116V233.359z M133.102,241.98c0.318,0.058,0.781,0.072,1.273,0.072c2.69,0,4.151-1.504,4.151-4.137
			c0.015-2.301-1.287-3.762-3.949-3.762c-0.651,0-1.143,0.059-1.476,0.131V241.98z"/>
		<path style="fill:#1A2A4F;" d="M144.385,238.596v0.94h-3.573v-0.94H144.385z"/>
		<path style="fill:#1A2A4F;" d="M147.089,242.979l-2.474-9.75h1.331l1.157,4.933c0.289,1.216,0.55,2.431,0.723,3.371h0.029
			c0.159-0.97,0.463-2.127,0.796-3.385l1.302-4.919h1.316l1.187,4.947c0.274,1.157,0.535,2.314,0.68,3.342h0.029
			c0.202-1.07,0.478-2.155,0.781-3.37l1.287-4.919h1.287l-2.763,9.75h-1.316l-1.229-5.077c-0.304-1.244-0.506-2.199-0.637-3.183
			h-0.028c-0.174,0.969-0.391,1.924-0.752,3.183l-1.389,5.077H147.089z"/>
		<path style="fill:#1A2A4F;" d="M158.719,233.229v9.75h-1.258v-9.75H158.719z"/>
		<path style="fill:#1A2A4F;" d="M160.644,242.979v-9.75h1.374l3.124,4.933c0.724,1.144,1.288,2.17,1.751,3.168l0.028-0.014
			c-0.115-1.303-0.145-2.488-0.145-4.007v-4.08h1.187v9.75h-1.273l-3.096-4.947c-0.68-1.085-1.33-2.198-1.822-3.255l-0.043,0.015
			c0.072,1.229,0.101,2.401,0.101,4.021v4.166H160.644z"/>
		<path style="fill:#1A2A4F;" d="M169.887,242.979v-9.75h1.374l3.124,4.933c0.724,1.144,1.288,2.17,1.751,3.168l0.028-0.014
			c-0.115-1.303-0.145-2.488-0.145-4.007v-4.08h1.187v9.75h-1.273l-3.095-4.947c-0.681-1.085-1.331-2.198-1.823-3.255l-0.043,0.015
			c0.072,1.229,0.101,2.401,0.101,4.021v4.166H169.887z"/>
		<path style="fill:#1A2A4F;" d="M180.388,233.229v9.75h-1.258v-9.75H180.388z"/>
		<path style="fill:#1A2A4F;" d="M182.312,242.979v-9.75h1.374l3.124,4.933c0.724,1.144,1.288,2.17,1.751,3.168l0.028-0.014
			c-0.115-1.303-0.145-2.488-0.145-4.007v-4.08h1.187v9.75h-1.273l-3.095-4.947c-0.681-1.085-1.331-2.198-1.823-3.255l-0.043,0.015
			c0.072,1.229,0.101,2.401,0.101,4.021v4.166H182.312z"/>
		<path style="fill:#1A2A4F;" d="M198.977,242.545c-0.564,0.202-1.679,0.535-2.995,0.535c-1.476,0-2.69-0.376-3.645-1.288
			c-0.839-0.81-1.36-2.111-1.36-3.631c0.015-2.907,2.011-5.033,5.28-5.033c1.128,0,2.011,0.245,2.43,0.448l-0.304,1.027
			c-0.521-0.231-1.172-0.42-2.155-0.42c-2.372,0-3.92,1.476-3.92,3.92c0,2.474,1.49,3.935,3.761,3.935
			c0.825,0,1.389-0.115,1.678-0.26v-2.908h-1.981v-1.013h3.212V242.545z"/>
	</g>
	<g>
		<path style="fill:#1A2A4F;" d="M90.871,246.971v5.772c0,2.184,0.969,3.109,2.271,3.109c1.446,0,2.372-0.954,2.372-3.109v-5.772
			h1.273v5.686c0,2.994-1.577,4.224-3.689,4.224c-1.996,0-3.5-1.143-3.5-4.166v-5.743H90.871z"/>
		<path style="fill:#1A2A4F;" d="M98.696,246.971h1.258v8.694h4.166v1.056h-5.424V246.971z"/>
		<path style="fill:#1A2A4F;" d="M105.061,255.188c0.564,0.347,1.389,0.637,2.257,0.637c1.287,0,2.04-0.681,2.04-1.664
			c0-0.911-0.521-1.432-1.837-1.938c-1.591-0.563-2.575-1.389-2.575-2.763c0-1.519,1.258-2.647,3.153-2.647
			c0.998,0,1.722,0.231,2.155,0.478l-0.347,1.027c-0.318-0.174-0.969-0.463-1.852-0.463c-1.331,0-1.837,0.796-1.837,1.461
			c0,0.911,0.593,1.359,1.938,1.881c1.649,0.636,2.488,1.432,2.488,2.863c0,1.505-1.114,2.807-3.414,2.807
			c-0.94,0-1.967-0.274-2.488-0.622L105.061,255.188z"/>
		<path style="fill:#1A2A4F;" d="M113.421,248.041h-2.965v-1.07h7.218v1.07h-2.979v8.68h-1.273V248.041z"/>
		<path style="fill:#1A2A4F;" d="M123.518,252.149h-3.79v3.516h4.224v1.056h-5.482v-9.75h5.265v1.057h-4.007v3.081h3.79V252.149z"/>
		<path style="fill:#1A2A4F;" d="M125.312,247.102c0.636-0.131,1.547-0.203,2.416-0.203c1.345,0,2.213,0.246,2.821,0.796
			c0.492,0.434,0.767,1.1,0.767,1.852c0,1.287-0.81,2.141-1.837,2.488v0.043c0.752,0.261,1.2,0.955,1.432,1.968
			c0.318,1.359,0.55,2.3,0.752,2.676h-1.302c-0.159-0.274-0.376-1.114-0.651-2.329c-0.29-1.345-0.811-1.852-1.953-1.895h-1.186
			v4.224h-1.258V247.102z M126.57,251.542h1.288c1.345,0,2.198-0.737,2.198-1.852c0-1.259-0.911-1.808-2.242-1.822
			c-0.608,0-1.042,0.058-1.244,0.115V251.542z"/>
		<path style="fill:#1A2A4F;" d="M136.854,246.971v5.772c0,2.184,0.969,3.109,2.271,3.109c1.447,0,2.373-0.954,2.373-3.109v-5.772
			h1.272v5.686c0,2.994-1.577,4.224-3.688,4.224c-1.996,0-3.5-1.143-3.5-4.166v-5.743H136.854z"/>
		<path style="fill:#1A2A4F;" d="M144.68,256.721v-9.75h1.375l3.125,4.933c0.723,1.144,1.287,2.17,1.75,3.168l0.029-0.014
			c-0.116-1.303-0.145-2.488-0.145-4.007v-4.08h1.186v9.75h-1.272l-3.096-4.947c-0.68-1.085-1.331-2.198-1.823-3.255l-0.043,0.015
			c0.072,1.229,0.102,2.401,0.102,4.021v4.166H144.68z"/>
		<path style="fill:#1A2A4F;" d="M155.181,246.971v9.75h-1.258v-9.75H155.181z"/>
		<path style="fill:#1A2A4F;" d="M159.246,256.721l-3.183-9.75h1.36l1.519,4.803c0.419,1.316,0.781,2.503,1.041,3.646h0.029
			c0.274-1.128,0.68-2.358,1.114-3.631l1.648-4.817h1.346l-3.486,9.75H159.246z"/>
		<path style="fill:#1A2A4F;" d="M169.95,252.149h-3.79v3.516h4.225v1.056h-5.482v-9.75h5.266v1.057h-4.008v3.081h3.79V252.149z"/>
		<path style="fill:#1A2A4F;" d="M171.729,247.102c0.636-0.131,1.548-0.203,2.415-0.203c1.346,0,2.214,0.246,2.821,0.796
			c0.491,0.434,0.767,1.1,0.767,1.852c0,1.287-0.811,2.141-1.837,2.488v0.043c0.752,0.261,1.2,0.955,1.432,1.968
			c0.318,1.359,0.55,2.3,0.752,2.676h-1.302c-0.159-0.274-0.376-1.114-0.65-2.329c-0.289-1.345-0.811-1.852-1.953-1.895h-1.187
			v4.224h-1.258V247.102z M172.987,251.542h1.288c1.345,0,2.198-0.737,2.198-1.852c0-1.259-0.911-1.808-2.242-1.822
			c-0.607,0-1.041,0.058-1.244,0.115V251.542z"/>
		<path style="fill:#1A2A4F;" d="M178.86,255.188c0.564,0.347,1.389,0.637,2.257,0.637c1.287,0,2.039-0.681,2.039-1.664
			c0-0.911-0.521-1.432-1.837-1.938c-1.591-0.563-2.575-1.389-2.575-2.763c0-1.519,1.259-2.647,3.154-2.647
			c0.998,0,1.721,0.231,2.155,0.478l-0.348,1.027c-0.318-0.174-0.969-0.463-1.852-0.463c-1.331,0-1.837,0.796-1.837,1.461
			c0,0.911,0.593,1.359,1.938,1.881c1.649,0.636,2.488,1.432,2.488,2.863c0,1.505-1.114,2.807-3.414,2.807
			c-0.94,0-1.968-0.274-2.488-0.622L178.86,255.188z"/>
		<path style="fill:#1A2A4F;" d="M187.148,246.971v9.75h-1.258v-9.75H187.148z"/>
		<path style="fill:#1A2A4F;" d="M190.925,248.041h-2.966v-1.07h7.219v1.07h-2.98v8.68h-1.272V248.041z"/>
		<path style="fill:#1A2A4F;" d="M198.418,256.721v-4.137l-3.081-5.613h1.432l1.374,2.691c0.376,0.737,0.666,1.33,0.97,2.01h0.028
			c0.275-0.636,0.607-1.272,0.984-2.01l1.402-2.691h1.433l-3.27,5.599v4.151H198.418z"/>
	</g>
	<g>
		<path style="fill:#B4A168;" d="M96.743,278.845H85.966v-17.598c0.495-0.078,1.172-0.13,1.822-0.13c0.729,0,1.432,0.052,1.9,0.13
			v14.422h7.055c0.104,0.286,0.182,0.833,0.182,1.562C96.925,277.804,96.873,278.298,96.743,278.845z"/>
		<path style="fill:#B4A168;" d="M114.525,278.845c-0.338,0.078-1.146,0.13-2.004,0.13c-0.677,0-1.458-0.078-1.796-0.13
			l-1.302-3.566h-6.248l-1.223,3.566c-0.573,0.078-1.25,0.13-1.926,0.13c-0.677,0-1.458-0.052-1.849-0.13l6.144-17.598
			c0.365-0.078,1.224-0.13,1.796-0.13c0.703,0,1.536,0.052,1.822,0.13L114.525,278.845z M108.304,272.181l-1.536-4.972
			c-0.182-0.573-0.364-1.302-0.521-2.109h-0.052c-0.13,0.808-0.338,1.536-0.521,2.109l-1.458,4.972H108.304z"/>
		<path style="fill:#B4A168;" d="M130.59,278.845c-0.339,0.052-1.016,0.13-1.744,0.13c-0.703,0-1.406-0.078-1.875-0.13l-2.135-8.694
			c-0.234-0.911-0.364-1.9-0.468-2.76h-0.026c-0.078,0.859-0.286,1.875-0.494,2.76l-2.109,8.694c-0.468,0.052-1.197,0.13-1.874,0.13
			c-0.651,0-1.432-0.078-1.796-0.13l-3.931-12.886c-0.417-1.354-0.677-2.968-0.677-4.712c0.546-0.104,1.224-0.13,1.796-0.13
			c0.963,0,1.432,0.052,1.849,0.13c0,1.692,0.234,3.098,0.546,4.296l1.588,6.013c0.234,0.938,0.469,2.161,0.599,3.332h0.052
			c0.13-1.171,0.338-2.395,0.573-3.357l2.447-10.283c0.469-0.078,0.911-0.13,1.38-0.13c0.495,0,0.937,0.052,1.432,0.13l2.499,10.309
			c0.234,0.938,0.495,2.161,0.625,3.332h0.052c0.13-1.171,0.365-2.395,0.625-3.357l1.666-5.987c0.338-1.198,0.599-2.604,0.599-4.296
			c0.417-0.078,1.171-0.13,1.952-0.13c0.521,0,1.224,0.052,1.718,0.13c0,1.927-0.287,3.385-0.703,4.712L130.59,278.845z"/>
		<path style="fill:#B4A168;" d="M154.83,264.918c-1.249-0.391-2.812-0.677-4.061-0.677c-2.968,0-4.894,2.108-4.894,5.883
			c0,3.462,1.51,5.728,4.868,5.728c1.25,0,2.655-0.261,3.905-0.651c0.182,0.469,0.312,1.197,0.312,1.744
			c0,0.442-0.026,0.989-0.078,1.224c-1.302,0.599-2.968,0.938-4.504,0.938c-5.597,0-8.356-3.385-8.356-8.903
			c0-5.362,2.967-9.215,8.512-9.215c1.354,0,3.124,0.338,4.373,0.885c0.078,0.261,0.104,0.833,0.104,1.172
			C155.013,263.851,154.908,264.605,154.83,264.918z"/>
		<path style="fill:#B4A168;" d="M168.24,278.845h-10.777v-17.598c0.495-0.078,1.172-0.13,1.822-0.13c0.729,0,1.432,0.052,1.9,0.13
			v14.422h7.055c0.104,0.286,0.182,0.833,0.182,1.562C168.422,277.804,168.37,278.298,168.24,278.845z"/>
		<path style="fill:#B4A168;" d="M174.438,278.845c-0.494,0.078-1.093,0.13-1.874,0.13c-0.703,0-1.354-0.052-1.848-0.13v-17.598
			c0.494-0.078,1.223-0.13,1.874-0.13c0.729,0,1.38,0.052,1.848,0.13V278.845z"/>
		<path style="fill:#B4A168;" d="M192.011,278.845c-0.261,0.052-0.885,0.104-1.328,0.104c-0.442,0-0.885-0.026-1.301-0.104
			l-8.096-11.271v11.271c-0.209,0.052-0.989,0.13-1.719,0.13c-0.599,0-1.302-0.078-1.666-0.13v-17.598
			c0.417-0.078,0.911-0.104,1.38-0.104c0.494,0,1.016,0.052,1.405,0.104l7.94,11.063v-11.063c0.521-0.078,1.197-0.13,1.691-0.13
			c0.495,0,1.224,0.052,1.692,0.13V278.845z"/>
		<path style="fill:#B4A168;" d="M199.198,278.845c-0.494,0.078-1.093,0.13-1.874,0.13c-0.703,0-1.354-0.052-1.848-0.13v-17.598
			c0.494-0.078,1.223-0.13,1.874-0.13c0.729,0,1.38,0.052,1.848,0.13V278.845z"/>
		<path style="fill:#B4A168;" d="M214.637,264.918c-1.25-0.391-2.812-0.677-4.062-0.677c-2.967,0-4.894,2.108-4.894,5.883
			c0,3.462,1.51,5.728,4.868,5.728c1.249,0,2.655-0.261,3.904-0.651c0.183,0.469,0.312,1.197,0.312,1.744
			c0,0.442-0.026,0.989-0.078,1.224c-1.302,0.599-2.968,0.938-4.503,0.938c-5.598,0-8.356-3.385-8.356-8.903
			c0-5.362,2.968-9.215,8.512-9.215c1.354,0,3.124,0.338,4.374,0.885c0.078,0.261,0.104,0.833,0.104,1.172
			C214.818,263.851,214.715,264.605,214.637,264.918z"/>
	</g>
</g>
</svg>
