<?xml version="1.0" encoding="utf-8"?>
<!-- Generator: Adobe Illustrator 16.0.0, SVG Export Plug-In . SVG Version: 6.00 Build 0)  -->
<!DOCTYPE svg PUBLIC "-//W3C//DTD SVG 1.0//EN" "http://www.w3.org/TR/2001/REC-SVG-20010904/DTD/svg10.dtd">
<svg version="1.0" xmlns="http://www.w3.org/2000/svg" xmlns:xlink="http://www.w3.org/1999/xlink" x="0px" y="0px" width="300px"
	 height="300px" viewBox="0 0 300 300" style="enable-background:new 0 0 300 300;" xml:space="preserve">
<g id="Medal">
	<path style="fill:#B4A168;" d="M170.07,63.154v8.818c-13.146-4.903-27.938-4.89-41.076,0.032v-8.85H170.07z"/>
	<path style="fill:#B4A168;" d="M149.575,71.466c-30.642,0-55.481,24.839-55.481,55.48c0,30.641,24.839,55.48,55.481,55.48
		c30.639,0,55.481-24.839,55.481-55.48C205.056,96.305,180.214,71.466,149.575,71.466"/>
	<path style="fill:#1A2A4F;" d="M180.128,12.192v43.712l11.621-8.244c0.218-0.153,0.402-0.289,0.402-0.485V12.192H180.128z
		 M125.274,12.192l-0.025,47.889h48.535V12.192H125.274z M107.163,12.192V47.18c0,0.193,0.178,0.332,0.399,0.481l11.484,7.825
		V12.192H107.163z"/>
	<path style="fill:#D6CAAA;" d="M149.575,77.649c0.914,0,1.655-0.743,1.655-1.655c0-0.916-0.741-1.656-1.655-1.656
		c-0.914,0-1.655,0.741-1.655,1.656C147.92,76.907,148.661,77.649,149.575,77.649"/>
	<path style="fill:#D6CAAA;" d="M149.575,179.555c0.914,0,1.655-0.742,1.655-1.655c0-0.915-0.741-1.656-1.655-1.656
		c-0.914,0-1.655,0.741-1.655,1.656C147.92,178.812,148.661,179.555,149.575,179.555"/>
	<path style="fill:#D6CAAA;" d="M136.816,79.33c0.883-0.236,1.407-1.146,1.17-2.026c-0.236-0.884-1.145-1.409-2.027-1.172
		c-0.883,0.237-1.407,1.144-1.171,2.029C135.025,79.042,135.933,79.566,136.816,79.33"/>
	<path style="fill:#D6CAAA;" d="M163.191,177.762c0.882-0.237,1.406-1.146,1.17-2.025c-0.236-0.886-1.144-1.41-2.026-1.174
		c-0.883,0.238-1.407,1.145-1.171,2.028C161.399,177.472,162.309,177.998,163.191,177.762"/>
	<path style="fill:#D6CAAA;" d="M124.927,84.254c0.791-0.458,1.062-1.469,0.605-2.26c-0.458-0.793-1.47-1.066-2.261-0.608
		c-0.792,0.458-1.063,1.469-0.605,2.264C123.122,84.44,124.135,84.712,124.927,84.254"/>
	<path style="fill:#D6CAAA;" d="M175.879,172.507c0.791-0.457,1.062-1.47,0.606-2.261c-0.459-0.793-1.471-1.065-2.263-0.607
		c-0.792,0.457-1.062,1.468-0.604,2.264C174.074,172.692,175.089,172.966,175.879,172.507"/>
	<path style="fill:#D6CAAA;" d="M114.716,92.088c0.648-0.648,0.647-1.695,0-2.34c-0.648-0.648-1.693-0.648-2.34,0
		c-0.646,0.646-0.648,1.692,0,2.34C113.021,92.734,114.07,92.734,114.716,92.088"/>
	<path style="fill:#D6CAAA;" d="M186.773,164.146c0.648-0.648,0.648-1.695,0-2.341c-0.647-0.647-1.693-0.647-2.339,0
		c-0.647,0.646-0.648,1.692,0,2.341C185.079,164.791,186.126,164.791,186.773,164.146"/>
	<path style="fill:#D6CAAA;" d="M106.884,102.298c0.458-0.792,0.184-1.805-0.606-2.261c-0.794-0.458-1.804-0.187-2.262,0.605
		c-0.458,0.791-0.188,1.803,0.605,2.261C105.414,103.36,106.426,103.09,106.884,102.298"/>
	<path style="fill:#D6CAAA;" d="M195.137,153.25c0.459-0.792,0.185-1.804-0.606-2.26c-0.794-0.458-1.804-0.187-2.262,0.606
		c-0.457,0.791-0.188,1.804,0.606,2.261C193.667,154.312,194.679,154.042,195.137,153.25"/>
	<path style="fill:#D6CAAA;" d="M101.958,114.188c0.237-0.883-0.289-1.791-1.17-2.028c-0.885-0.235-1.792,0.288-2.03,1.171
		c-0.236,0.884,0.29,1.792,1.173,2.027C100.812,115.595,101.721,115.071,101.958,114.188"/>
	<path style="fill:#D6CAAA;" d="M200.391,140.562c0.236-0.883-0.289-1.791-1.171-2.027c-0.885-0.237-1.792,0.287-2.028,1.17
		c-0.237,0.884,0.289,1.791,1.172,2.027C199.243,141.97,200.153,141.446,200.391,140.562"/>
	<path style="fill:#D6CAAA;" d="M100.278,126.946c0-0.914-0.743-1.655-1.655-1.655c-0.916,0-1.656,0.741-1.656,1.655
		s0.741,1.655,1.656,1.655C99.535,128.601,100.278,127.86,100.278,126.946"/>
	<path style="fill:#D6CAAA;" d="M202.183,126.946c0-0.914-0.742-1.655-1.654-1.655c-0.916,0-1.656,0.741-1.656,1.655
		s0.74,1.655,1.656,1.655C201.44,128.601,202.183,127.86,202.183,126.946"/>
	<path style="fill:#D6CAAA;" d="M101.958,139.705c-0.237-0.882-1.146-1.407-2.026-1.17c-0.884,0.236-1.409,1.145-1.173,2.028
		c0.238,0.882,1.145,1.406,2.03,1.17C101.67,141.497,102.195,140.588,101.958,139.705"/>
	<path style="fill:#D6CAAA;" d="M200.391,113.331c-0.237-0.883-1.147-1.408-2.027-1.171c-0.883,0.237-1.409,1.145-1.172,2.028
		c0.236,0.882,1.144,1.406,2.028,1.17C200.102,115.122,200.627,114.213,200.391,113.331"/>
	<path style="fill:#D6CAAA;" d="M106.883,151.595c-0.458-0.791-1.469-1.062-2.26-0.605c-0.794,0.457-1.066,1.469-0.608,2.261
		s1.469,1.064,2.264,0.605C107.068,153.399,107.34,152.387,106.883,151.595"/>
	<path style="fill:#D6CAAA;" d="M195.136,100.642c-0.457-0.791-1.469-1.062-2.261-0.605c-0.794,0.458-1.067,1.469-0.608,2.26
		c0.46,0.794,1.47,1.064,2.265,0.606C195.321,102.447,195.592,101.434,195.136,100.642"/>
	<path style="fill:#D6CAAA;" d="M114.716,161.805c-0.648-0.648-1.695-0.646-2.34,0c-0.648,0.648-0.648,1.693,0,2.341
		c0.646,0.646,1.692,0.647,2.34,0C115.363,163.5,115.363,162.45,114.716,161.805"/>
	<path style="fill:#D6CAAA;" d="M186.773,89.747c-0.647-0.648-1.694-0.646-2.339,0c-0.648,0.648-0.648,1.693,0,2.34
		c0.645,0.646,1.691,0.648,2.339,0C187.422,91.442,187.422,90.394,186.773,89.747"/>
	<path style="fill:#D6CAAA;" d="M124.927,169.637c-0.792-0.459-1.805-0.184-2.261,0.606c-0.458,0.794-0.187,1.805,0.605,2.263
		c0.791,0.457,1.803,0.187,2.261-0.606C125.989,171.106,125.718,170.096,124.927,169.637"/>
	<path style="fill:#D6CAAA;" d="M175.879,81.385c-0.79-0.458-1.805-0.185-2.26,0.606c-0.459,0.794-0.188,1.804,0.604,2.262
		s1.804,0.187,2.263-0.606C176.941,82.855,176.67,81.843,175.879,81.385"/>
	<path style="fill:#D6CAAA;" d="M136.816,174.562c-0.883-0.236-1.791,0.288-2.028,1.171c-0.236,0.884,0.288,1.791,1.171,2.028
		c0.884,0.236,1.791-0.29,2.027-1.172C138.223,175.71,137.698,174.8,136.816,174.562"/>
	<path style="fill:#D6CAAA;" d="M163.191,76.131c-0.883-0.236-1.792,0.289-2.028,1.17c-0.237,0.884,0.287,1.791,1.17,2.029
		c0.885,0.236,1.792-0.289,2.026-1.173C164.597,77.277,164.073,76.368,163.191,76.131"/>
	<path style="fill:#B4A168;" d="M149.575,79.511c-26.198,0-47.437,21.237-47.437,47.435c0,26.199,21.239,47.437,47.437,47.437
		s47.436-21.237,47.436-47.437C197.011,100.749,175.772,79.511,149.575,79.511"/>
	<circle style="fill:none;stroke:#C1B081;stroke-width:0.6;stroke-miterlimit:10;" cx="149.575" cy="126.947" r="47.436"/>
	<rect x="96.941" y="261.319" style="fill:#B4A168;" width="105.265" height="2.806"/>
</g>
<g id="Text" style="display:none;">
	<text transform="matrix(1 0 0 1 104.8369 204.6172)" style="display:inline;"><tspan x="0" y="0" style="fill:#1A2A4F; font-family:'FSMatthew-Bold'; font-size:25.252; letter-spacing:-2;">A</tspan><tspan x="14.267" y="0" style="fill:#1A2A4F; font-family:'FSMatthew-Bold'; font-size:25.252;">T</tspan><tspan x="27.575" y="0" style="fill:#1A2A4F; font-family:'FSMatthew-Bold'; font-size:25.252;">H</tspan><tspan x="44.039" y="0" style="fill:#1A2A4F; font-family:'FSMatthew-Bold'; font-size:25.252;">E</tspan><tspan x="57.246" y="0" style="fill:#1A2A4F; font-family:'FSMatthew-Bold'; font-size:25.252;">N</tspan><tspan x="74.24" y="0" style="fill:#1A2A4F; font-family:'FSMatthew-Bold'; font-size:25.252;">A</tspan></text>
	<text transform="matrix(1 0 0 1 104.9336 231.3545)" style="display:inline;"><tspan x="0" y="0" style="fill:#1A2A4F; font-family:'FSMatthew-Bold'; font-size:34.1644; letter-spacing:-1;">S</tspan><tspan x="17.185" y="0" style="fill:#1A2A4F; font-family:'FSMatthew-Bold'; font-size:34.1644; letter-spacing:-2;">W</tspan><tspan x="45.233" y="0" style="fill:#1A2A4F; font-family:'FSMatthew-Bold'; font-size:34.1644;">A</tspan><tspan x="66.995" y="0" style="fill:#1A2A4F; font-family:'FSMatthew-Bold'; font-size:34.1644;">N</tspan></text>
	<text transform="matrix(1 0 0 1 101.583 255.1201)" style="display:inline;"><tspan x="0" y="0" style="fill:#1A2A4F; font-family:'FSMatthew-Bold'; font-size:29.7082; letter-spacing:-2;">A</tspan><tspan x="17.201" y="0" style="fill:#1A2A4F; font-family:'FSMatthew-Bold'; font-size:29.7082; letter-spacing:-1;">W</tspan><tspan x="41.591" y="0" style="fill:#1A2A4F; font-family:'FSMatthew-Bold'; font-size:29.7082;">AR</tspan><tspan x="77.745" y="0" style="fill:#1A2A4F; font-family:'FSMatthew-Bold'; font-size:29.7082;">D</tspan></text>
	<text transform="matrix(1 0 0 1 104.6953 137.6582)" style="display:inline;"><tspan x="0" y="0" style="fill:#1A2A4F; font-family:'FSMatthew-Bold'; font-size:27.2326; letter-spacing:-1;">B</tspan><tspan x="14.243" y="0" style="fill:#1A2A4F; font-family:'FSMatthew-Bold'; font-size:27.2326; letter-spacing:-2;">R</tspan><tspan x="28.485" y="0" style="fill:#1A2A4F; font-family:'FSMatthew-Bold'; font-size:27.2326; letter-spacing:-1;">ONZ</tspan><tspan x="75.079" y="0" style="fill:#1A2A4F; font-family:'FSMatthew-Bold'; font-size:27.2326;">E</tspan></text>
	<text transform="matrix(1 0 0 1 101.6953 283.7363)" style="display:inline;"><tspan x="0" y="0" style="fill:#1A2A4F; font-family:'FSMatthew'; font-size:12.7188;">*no</tspan><tspan x="18.569" y="0" style="fill:#1A2A4F; font-family:'FSMatthew'; font-size:12.7188;">t </tspan><tspan x="26.594" y="0" style="fill:#1A2A4F; font-family:'FSMatthew'; font-size:12.7188;">F</tspan><tspan x="32.305" y="0" style="fill:#1A2A4F; font-family:'FSMatthew'; font-size:12.7188;">ac</tspan><tspan x="44.795" y="0" style="fill:#1A2A4F; font-family:'FSMatthew'; font-size:12.7188;">u</tspan><tspan x="51.765" y="0" style="fill:#1A2A4F; font-family:'FSMatthew'; font-size:12.7188;">l</tspan><tspan x="54.817" y="0" style="fill:#1A2A4F; font-family:'FSMatthew'; font-size:12.7188;">t</tspan><tspan x="59.777" y="0" style="fill:#1A2A4F; font-family:'FSMatthew'; font-size:12.7188;">y</tspan><tspan x="66.798" y="0" style="fill:#1A2A4F; font-family:'FSMatthew'; font-size:12.7188;"> wi</tspan><tspan x="82.289" y="0" style="fill:#1A2A4F; font-family:'FSMatthew'; font-size:12.7188;">d</tspan><tspan x="89.271" y="0" style="fill:#1A2A4F; font-family:'FSMatthew'; font-size:12.7188;">e</tspan></text>
</g>
<g id="Text_Flat">
	<g>
		<path style="fill:#1A2A4F;" d="M121.049,204.617c-0.328,0.076-1.111,0.126-1.944,0.126c-0.657,0-1.414-0.075-1.743-0.126
			l-1.262-3.46h-6.061l-1.187,3.46c-0.556,0.076-1.212,0.126-1.869,0.126s-1.414-0.05-1.793-0.126l5.96-17.071
			c0.354-0.076,1.187-0.126,1.742-0.126c0.682,0,1.49,0.05,1.768,0.126L121.049,204.617z M115.014,198.152l-1.49-4.823
			c-0.177-0.556-0.354-1.263-0.505-2.046h-0.051c-0.126,0.783-0.328,1.49-0.505,2.046l-1.414,4.823H115.014z"/>
		<path style="fill:#1A2A4F;" d="M132.337,190.627h-4.521v13.99c-0.48,0.076-1.162,0.126-1.793,0.126s-1.313-0.05-1.818-0.126
			v-13.99h-4.52c-0.101-0.328-0.177-1.111-0.177-1.541c0-0.429,0.101-1.212,0.202-1.54h12.627c0.101,0.328,0.177,1.111,0.177,1.54
			C132.514,189.516,132.438,190.299,132.337,190.627z"/>
		<path style="fill:#1A2A4F;" d="M147.462,204.617c-0.455,0.076-1.086,0.126-1.793,0.126s-1.338-0.05-1.818-0.126v-7.071h-5.935
			v7.071c-0.48,0.076-1.036,0.126-1.793,0.126c-0.682,0-1.338-0.05-1.818-0.126v-17.071c0.48-0.076,1.187-0.126,1.818-0.126
			c0.707,0,1.338,0.05,1.793,0.126v6.92h5.935v-6.92c0.555-0.076,1.187-0.126,1.818-0.126c0.606,0,1.364,0.05,1.793,0.126V204.617z"
			/>
		<path style="fill:#1A2A4F;" d="M161.452,204.617H150.77v-17.071h10.455c0.102,0.278,0.177,0.809,0.177,1.516
			c0,0.556-0.05,1.035-0.177,1.565h-6.844v3.687h5.783c0.102,0.278,0.177,0.783,0.177,1.49c0,0.556-0.051,1.01-0.177,1.54h-5.783
			v4.192h7.071c0.101,0.278,0.177,0.809,0.177,1.516C161.629,203.607,161.578,204.087,161.452,204.617z"/>
		<path style="fill:#1A2A4F;" d="M177.664,204.617c-0.252,0.051-0.858,0.101-1.288,0.101c-0.429,0-0.858-0.024-1.263-0.101
			l-7.854-10.935v10.935c-0.202,0.051-0.959,0.126-1.667,0.126c-0.58,0-1.263-0.075-1.616-0.126v-17.071
			c0.404-0.076,0.885-0.101,1.339-0.101c0.479,0,0.985,0.05,1.363,0.101l7.703,10.732v-10.732c0.505-0.076,1.161-0.126,1.641-0.126
			c0.48,0,1.188,0.05,1.642,0.126V204.617z"/>
		<path style="fill:#1A2A4F;" d="M195.29,204.617c-0.328,0.076-1.111,0.126-1.944,0.126c-0.657,0-1.415-0.075-1.743-0.126
			l-1.263-3.46h-6.061l-1.187,3.46c-0.556,0.076-1.213,0.126-1.869,0.126s-1.414-0.05-1.793-0.126l5.96-17.071
			c0.354-0.076,1.187-0.126,1.742-0.126c0.682,0,1.49,0.05,1.768,0.126L195.29,204.617z M189.254,198.152l-1.489-4.823
			c-0.177-0.556-0.354-1.263-0.506-2.046h-0.05c-0.127,0.783-0.328,1.49-0.505,2.046l-1.415,4.823H189.254z"/>
	</g>
	<g>
		<path style="fill:#1A2A4F;" d="M113.782,231.696c-2.494,0-5.227-0.479-7.175-1.367c-0.102-0.478-0.17-1.093-0.17-1.64
			c0-0.819,0.103-1.605,0.341-2.528c2.016,0.82,4.681,1.333,6.765,1.333c2.426,0,3.724-1.128,3.724-2.665
			c0-1.708-1.093-2.426-4.407-3.45c-3.69-1.128-6.389-2.904-6.389-6.867c0-4.236,3.655-6.594,8.473-6.594
			c2.221,0,4.202,0.342,5.535,0.785c0.103,0.376,0.171,0.991,0.171,1.879c0,0.649-0.068,1.641-0.205,2.188
			c-1.708-0.444-3.656-0.684-5.227-0.684c-2.562,0-3.963,0.854-3.963,2.221c0,1.605,1.264,2.255,4.339,3.211
			c3.69,1.162,6.423,2.904,6.423,7.004C122.016,228.997,118.497,231.696,113.782,231.696z"/>
		<path style="fill:#1A2A4F;" d="M145.35,231.354c-0.444,0.068-1.333,0.171-2.289,0.171c-0.922,0-1.845-0.103-2.46-0.171
			l-2.801-11.411c-0.308-1.195-0.479-2.494-0.615-3.621h-0.034c-0.103,1.127-0.375,2.46-0.649,3.621l-2.768,11.411
			c-0.615,0.068-1.571,0.171-2.459,0.171c-0.854,0-1.879-0.103-2.357-0.171l-5.159-16.911c-0.546-1.776-0.888-3.895-0.888-6.184
			c0.718-0.137,1.606-0.171,2.357-0.171c1.264,0,1.879,0.068,2.426,0.171c0,2.221,0.308,4.065,0.717,5.637l2.084,7.892
			c0.308,1.23,0.615,2.836,0.786,4.373h0.068c0.17-1.537,0.444-3.143,0.751-4.407l3.211-13.494c0.615-0.103,1.196-0.171,1.811-0.171
			c0.649,0,1.23,0.068,1.879,0.171l3.28,13.528c0.307,1.23,0.649,2.836,0.82,4.373h0.068c0.171-1.537,0.478-3.143,0.82-4.407
			l2.187-7.857c0.444-1.571,0.786-3.416,0.786-5.637c0.547-0.103,1.538-0.171,2.562-0.171c0.683,0,1.606,0.068,2.255,0.171
			c0,2.527-0.376,4.441-0.923,6.184L145.35,231.354z"/>
		<path style="fill:#1A2A4F;" d="M172.1,231.354c-0.443,0.103-1.503,0.171-2.63,0.171c-0.889,0-1.913-0.103-2.357-0.171
			l-1.708-4.681h-8.2l-1.605,4.681c-0.752,0.103-1.64,0.171-2.528,0.171c-0.888,0-1.913-0.068-2.425-0.171l8.063-23.095
			c0.478-0.103,1.605-0.171,2.357-0.171c0.922,0,2.016,0.068,2.391,0.171L172.1,231.354z M163.935,222.608l-2.016-6.525
			c-0.239-0.752-0.479-1.708-0.684-2.768h-0.068c-0.17,1.06-0.443,2.016-0.683,2.768l-1.913,6.525H163.935z"/>
		<path style="fill:#1A2A4F;" d="M193.008,231.354c-0.341,0.068-1.161,0.137-1.742,0.137s-1.161-0.034-1.708-0.137l-10.625-14.793
			v14.793c-0.273,0.068-1.299,0.171-2.255,0.171c-0.786,0-1.708-0.103-2.187-0.171V208.26c0.547-0.103,1.195-0.137,1.811-0.137
			c0.649,0,1.332,0.068,1.845,0.137l10.42,14.52v-14.52c0.684-0.103,1.572-0.171,2.221-0.171c0.649,0,1.606,0.068,2.221,0.171
			V231.354z"/>
	</g>
	<g>
		<path style="fill:#1A2A4F;" d="M120.656,255.12c-0.386,0.089-1.307,0.148-2.288,0.148c-0.772,0-1.664-0.089-2.05-0.148
			l-1.485-4.07h-7.13l-1.396,4.07c-0.653,0.089-1.426,0.148-2.198,0.148s-1.664-0.06-2.109-0.148l7.011-20.083
			c0.416-0.089,1.396-0.148,2.05-0.148c0.802,0,1.753,0.06,2.08,0.148L120.656,255.12z M113.556,247.515l-1.753-5.675
			c-0.208-0.653-0.416-1.485-0.594-2.406h-0.059c-0.149,0.921-0.386,1.753-0.594,2.406l-1.664,5.675H113.556z"/>
		<path style="fill:#1A2A4F;" d="M138.986,255.12c-0.386,0.06-1.159,0.148-1.991,0.148c-0.802,0-1.604-0.089-2.139-0.148
			l-2.436-9.923c-0.267-1.04-0.416-2.169-0.535-3.149h-0.03c-0.089,0.98-0.327,2.14-0.564,3.149l-2.406,9.923
			c-0.535,0.06-1.367,0.148-2.139,0.148c-0.743,0-1.634-0.089-2.05-0.148l-4.486-14.706c-0.476-1.545-0.772-3.387-0.772-5.377
			c0.624-0.119,1.396-0.148,2.05-0.148c1.099,0,1.634,0.06,2.109,0.148c0,1.931,0.267,3.535,0.624,4.901l1.812,6.863
			c0.267,1.069,0.535,2.466,0.683,3.803h0.06c0.148-1.337,0.386-2.733,0.654-3.833l2.792-11.734c0.535-0.089,1.04-0.148,1.575-0.148
			c0.564,0,1.069,0.06,1.634,0.148l2.852,11.765c0.268,1.069,0.564,2.466,0.713,3.803h0.06c0.148-1.337,0.416-2.733,0.713-3.833
			l1.901-6.833c0.386-1.366,0.684-2.971,0.684-4.901c0.475-0.089,1.337-0.148,2.228-0.148c0.594,0,1.396,0.06,1.961,0.148
			c0,2.198-0.327,3.862-0.802,5.377L138.986,255.12z"/>
		<path style="fill:#1A2A4F;" d="M162.247,255.12c-0.387,0.089-1.308,0.148-2.288,0.148c-0.772,0-1.663-0.089-2.05-0.148
			l-1.485-4.07h-7.13l-1.396,4.07c-0.653,0.089-1.426,0.148-2.198,0.148s-1.664-0.06-2.109-0.148l7.011-20.083
			c0.417-0.089,1.397-0.148,2.05-0.148c0.802,0,1.752,0.06,2.079,0.148L162.247,255.12z M155.146,247.515l-1.753-5.675
			c-0.208-0.653-0.416-1.485-0.594-2.406h-0.06c-0.148,0.921-0.387,1.753-0.595,2.406l-1.663,5.675H155.146z"/>
		<path style="fill:#1A2A4F;" d="M179.121,255.091c-0.772,0.118-1.575,0.178-2.496,0.178c-0.832,0-1.663-0.029-2.228-0.148
			l-4.07-7.22h-1.753v7.22c-0.743,0.119-1.366,0.148-2.169,0.148c-0.713,0-1.337-0.029-2.079-0.148v-20.083
			c1.366-0.089,4.219-0.148,5.941-0.148c5.051,0,7.576,1.782,7.576,6.417c0,2.466-1.486,4.932-3.565,5.823L179.121,255.091z
			 M170.535,238.364c-0.653,0-1.456,0.029-1.961,0.06v5.941h1.485c2.437,0,3.506-0.891,3.506-3.09
			C173.565,239.077,172.496,238.364,170.535,238.364z"/>
		<path style="fill:#1A2A4F;" d="M194.479,253.338c-1.842,1.426-4.219,1.931-7.486,1.931c-1.664,0-4.486-0.06-5.437-0.148v-20.083
			c1.455-0.089,4.485-0.148,6.179-0.148c6.536,0,9.894,2.763,9.894,9.952C197.629,248.555,196.648,251.645,194.479,253.338z
			 M187.825,238.394c-0.803,0-1.693,0.03-2.021,0.06v13.221c0.386,0.029,1.277,0.06,2.198,0.06c3.743,0,5.229-2.377,5.229-6.952
			C193.231,239.761,191.688,238.394,187.825,238.394z"/>
	</g>
	<g>
		<path style="fill:#1A2A4F;" d="M112.485,137.794c-1.934,0-3.813-0.055-5.747-0.164v-18.357c1.58-0.109,3.677-0.164,5.093-0.164
			c4.194,0,6.754,1.28,6.754,4.739c0,1.743-0.735,3.05-2.451,3.813c2.288,0.545,3.759,2.207,3.759,4.44
			C119.894,136.351,116.816,137.794,112.485,137.794z M112.104,122.324c-0.49,0-1.035,0.027-1.471,0.055v4.14h1.525
			c1.771,0,2.615-0.572,2.615-2.233C114.773,122.569,113.438,122.324,112.104,122.324z M112.54,129.569h-1.907v4.957
			c0.518,0.027,1.28,0.055,1.798,0.055c2.424,0,3.595-0.681,3.595-2.506C116.026,130.195,115.018,129.569,112.54,129.569z"/>
		<path style="fill:#1A2A4F;" d="M134.545,137.631c-0.708,0.109-1.444,0.164-2.288,0.164c-0.763,0-1.525-0.027-2.043-0.136
			l-3.731-6.619h-1.607v6.619c-0.681,0.109-1.253,0.136-1.988,0.136c-0.653,0-1.226-0.027-1.906-0.136v-18.412
			c1.253-0.082,3.868-0.136,5.447-0.136c4.63,0,6.945,1.634,6.945,5.883c0,2.261-1.362,4.521-3.269,5.338L134.545,137.631z
			 M126.673,122.296c-0.599,0-1.334,0.027-1.798,0.055v5.447h1.362c2.233,0,3.214-0.817,3.214-2.833
			S128.471,122.296,126.673,122.296z"/>
		<path style="fill:#1A2A4F;" d="M142.087,137.931c-5.039,0-7.708-3.486-7.708-9.479s2.669-9.479,7.708-9.479
			c5.039,0,7.708,3.486,7.708,9.479S147.126,137.931,142.087,137.931z M142.087,122.324c-2.342,0-3.677,1.798-3.677,6.128
			s1.334,6.128,3.677,6.128c2.343,0,3.677-1.798,3.677-6.128S144.43,122.324,142.087,122.324z"/>
		<path style="fill:#1A2A4F;" d="M166.053,137.658c-0.272,0.055-0.926,0.109-1.389,0.109c-0.464,0-0.927-0.027-1.362-0.109
			l-8.471-11.793v11.793c-0.218,0.055-1.035,0.136-1.798,0.136c-0.626,0-1.361-0.082-1.742-0.136v-18.412
			c0.436-0.082,0.952-0.109,1.443-0.109c0.517,0,1.062,0.054,1.471,0.109l8.307,11.576v-11.576c0.545-0.082,1.253-0.136,1.771-0.136
			s1.28,0.055,1.771,0.136V137.658z"/>
		<path style="fill:#1A2A4F;" d="M180.267,137.658h-12.938c-0.108-0.463-0.163-0.98-0.163-1.634c0-0.272,0.027-0.735,0.136-1.226
			l8.553-12.311h-7.953c-0.137-0.518-0.19-1.226-0.19-1.689c0-0.626,0.054-1.171,0.218-1.552h12.42
			c0.163,0.409,0.245,1.089,0.245,1.716c0,0.354-0.055,0.899-0.137,1.171l-8.498,12.284h8.28c0.164,0.381,0.218,0.926,0.218,1.553
			C180.457,136.433,180.376,137.141,180.267,137.658z"/>
		<path style="fill:#1A2A4F;" d="M193.339,137.658h-11.521v-18.412h11.276c0.108,0.299,0.19,0.872,0.19,1.634
			c0,0.599-0.055,1.117-0.19,1.688h-7.382v3.977h6.237c0.109,0.3,0.19,0.844,0.19,1.607c0,0.6-0.054,1.09-0.19,1.662h-6.237v4.521
			h7.627c0.108,0.299,0.19,0.872,0.19,1.634C193.529,136.569,193.475,137.086,193.339,137.658z"/>
	</g>
	<g>
		<path style="fill:#1A2A4F;" d="M103.057,278.875c-0.293-0.152-0.611-0.395-0.802-0.598l1.107-1.069l-1.425-0.369
			c0.038-0.306,0.204-0.7,0.369-0.941l1.26,0.687l-0.204-1.45c0.153-0.038,0.356-0.063,0.535-0.063s0.382,0.025,0.534,0.063
			l-0.204,1.45l1.26-0.687c0.165,0.241,0.331,0.636,0.369,0.941l-1.425,0.344l1.057,1.171c-0.191,0.203-0.497,0.42-0.802,0.56
			l-0.776-1.336L103.057,278.875z"/>
		<path style="fill:#1A2A4F;" d="M112.51,283.736c-0.191,0.051-0.382,0.063-0.573,0.063c-0.216,0-0.433-0.025-0.636-0.063v-4.085
			c0-1.057-0.254-1.692-1.272-1.692c-0.713,0-1.375,0.293-1.807,0.61v5.167c-0.216,0.038-0.433,0.063-0.649,0.063
			c-0.191,0-0.369-0.025-0.56-0.063v-6.63c0.153-0.038,0.318-0.063,0.483-0.063c0.153,0,0.331,0.025,0.484,0.063l0.089,0.623h0.013
			c0.662-0.509,1.451-0.751,2.189-0.751c0.624,0,1.285,0.204,1.705,0.675c0.446,0.521,0.535,1.234,0.535,1.896V283.736z"/>
		<path style="fill:#1A2A4F;" d="M116.769,283.863c-1.794,0-2.953-1.184-2.953-3.423c0-2.24,1.158-3.462,2.953-3.462
			c1.794,0,2.952,1.209,2.952,3.449C119.721,282.667,118.563,283.863,116.769,283.863z M116.769,277.883
			c-1.12,0-1.706,0.776-1.706,2.545s0.585,2.532,1.706,2.532c1.12,0,1.705-0.764,1.705-2.532S117.889,277.883,116.769,277.883z"/>
		<path style="fill:#1A2A4F;" d="M124.922,283.559c-0.547,0.216-1.031,0.305-1.616,0.305c-1.336,0-1.769-0.814-1.769-2.023v-3.868
			h-1.12c-0.038-0.127-0.064-0.242-0.064-0.382c0-0.127,0.026-0.28,0.064-0.407l1.12-0.063v-1.718
			c0.191-0.052,0.395-0.052,0.598-0.052s0.407,0.013,0.611,0.052v1.705h1.935c0.038,0.127,0.051,0.292,0.051,0.42
			c0,0.14-0.013,0.306-0.051,0.445h-1.935v3.589c0,0.712,0.115,1.374,0.993,1.374c0.433,0,0.764-0.063,1.184-0.178
			c0.038,0.127,0.063,0.279,0.063,0.407C124.986,283.291,124.96,283.431,124.922,283.559z"/>
		<path style="fill:#1A2A4F;" d="M134.067,276.177h-3.55v2.597h2.939c0.051,0.152,0.064,0.369,0.064,0.521
			c0,0.166-0.013,0.356-0.064,0.521h-2.939v3.92c-0.216,0.038-0.407,0.063-0.636,0.063c-0.216,0-0.433-0.025-0.636-0.063v-8.603
			h4.823c0.051,0.152,0.064,0.369,0.064,0.521C134.131,275.821,134.118,276.012,134.067,276.177z"/>
		<path style="fill:#1A2A4F;" d="M139.256,283.8c-0.153,0-0.382-0.025-0.535-0.063l-0.076-0.662h-0.013
			c-0.42,0.535-1.146,0.789-1.96,0.789c-1.26,0-2.214-0.725-2.214-1.998c0-1.921,1.616-2.379,3.182-2.379
			c0.166,0,0.687,0.025,0.865,0.051v-0.153c0-1.068-0.458-1.488-1.54-1.488c-0.56,0-1.4,0.114-1.807,0.203
			c-0.039-0.127-0.064-0.267-0.064-0.407c0-0.127,0.025-0.28,0.064-0.407c0.573-0.178,1.387-0.306,2.049-0.306
			c1.578,0,2.507,0.7,2.507,2.304v2.736c0,0.521,0,1.209,0.013,1.718C139.574,283.774,139.409,283.8,139.256,283.8z
			 M138.505,280.453c-0.191-0.025-0.521-0.051-0.84-0.051c-1.234,0-1.96,0.471-1.96,1.349c0,0.751,0.522,1.158,1.273,1.158
			c0.56,0,1.26-0.331,1.527-0.713V280.453z"/>
		<path style="fill:#1A2A4F;" d="M145.934,278.238c-0.369-0.178-0.98-0.33-1.387-0.33c-1.425,0-2.24,0.751-2.24,2.57
			c0,1.387,0.611,2.456,2.125,2.456c0.433,0,1.043-0.114,1.451-0.242c0.051,0.141,0.063,0.28,0.063,0.42
			c0,0.141-0.013,0.255-0.051,0.382c-0.445,0.204-1.196,0.369-1.68,0.369c-2.1,0-3.156-1.323-3.156-3.347
			c0-1.973,1.107-3.538,3.207-3.538c0.509,0,1.222,0.153,1.667,0.395c0.051,0.153,0.063,0.28,0.063,0.445
			C145.997,277.959,145.972,278.099,145.934,278.238z"/>
		<path style="fill:#1A2A4F;" d="M152.573,281.356c0,1.82-0.878,2.507-2.672,2.507c-1.782,0-2.647-0.687-2.647-2.443v-4.313
			c0.191-0.063,0.407-0.063,0.598-0.063s0.42,0.013,0.611,0.063v4.326c0,1.069,0.471,1.502,1.451,1.502
			c1.005,0,1.451-0.445,1.451-1.502v-4.326c0.191-0.051,0.42-0.063,0.611-0.063c0.19,0,0.406,0,0.598,0.063V281.356z"/>
		<path style="fill:#1A2A4F;" d="M155.471,283.736c-0.217,0.038-0.42,0.063-0.637,0.063c-0.19,0-0.382-0.025-0.572-0.063v-9.29
			c0.19-0.038,0.407-0.051,0.61-0.051c0.204,0,0.395,0.013,0.599,0.051V283.736z"/>
		<path style="fill:#1A2A4F;" d="M161.17,283.559c-0.547,0.216-1.03,0.305-1.616,0.305c-1.336,0-1.769-0.814-1.769-2.023v-3.868
			h-1.12c-0.038-0.127-0.063-0.242-0.063-0.382c0-0.127,0.025-0.28,0.063-0.407l1.12-0.063v-1.718
			c0.191-0.052,0.395-0.052,0.599-0.052c0.203,0,0.407,0.013,0.61,0.052v1.705h1.935c0.038,0.127,0.051,0.292,0.051,0.42
			c0,0.14-0.013,0.306-0.051,0.445h-1.935v3.589c0,0.712,0.114,1.374,0.993,1.374c0.433,0,0.763-0.063,1.183-0.178
			c0.039,0.127,0.064,0.279,0.064,0.407C161.234,283.291,161.209,283.431,161.17,283.559z"/>
		<path style="fill:#1A2A4F;" d="M167.581,282.604c0,0.916-0.013,2.074-0.509,2.876c-0.573,0.942-1.77,1.388-2.838,1.388
			c-0.573,0-1.095-0.063-1.642-0.242c-0.051-0.14-0.051-0.28-0.051-0.42s0.013-0.28,0.051-0.407
			c0.458,0.127,1.043,0.204,1.501,0.204c1.591,0,2.278-0.955,2.278-2.559v-0.216c-0.598,0.433-1.222,0.636-1.96,0.636
			c-0.636,0-1.234-0.19-1.642-0.661c-0.445-0.522-0.496-1.234-0.496-1.896v-4.199c0.19-0.051,0.382-0.063,0.572-0.063
			c0.217,0,0.433,0.025,0.637,0.063v3.957c0,0.535,0.038,0.942,0.19,1.234c0.191,0.356,0.548,0.535,1.107,0.535
			c0.573,0,1.158-0.28,1.591-0.624v-5.103c0.217-0.038,0.433-0.063,0.649-0.063c0.19,0,0.369,0.025,0.56,0.063V282.604z"/>
		<path style="fill:#1A2A4F;" d="M180.199,278.748l-1.591,4.988c-0.191,0.051-0.458,0.063-0.649,0.063
			c-0.216,0-0.471-0.013-0.675-0.063l-1.234-4.925h-0.013l-1.349,4.925c-0.203,0.051-0.458,0.063-0.662,0.063
			c-0.19,0-0.445-0.025-0.636-0.063l-1.515-5.205c-0.127-0.445-0.229-1.005-0.216-1.425c0.165-0.038,0.42-0.063,0.61-0.063
			c0.204,0,0.382,0.025,0.586,0.063c-0.013,0.433,0.076,0.916,0.203,1.399l1.019,3.996h0.013l1.387-5.396
			c0.165-0.038,0.395-0.063,0.56-0.063c0.166,0,0.395,0.025,0.561,0.063l1.361,5.421h0.013l1.12-3.996
			c0.14-0.496,0.203-0.967,0.203-1.425c0.166-0.038,0.407-0.063,0.599-0.063c0.178,0,0.42,0.025,0.572,0.063
			C180.466,277.564,180.39,278.175,180.199,278.748z"/>
		<path style="fill:#1A2A4F;" d="M182.332,276.024c-0.395,0-0.726-0.331-0.726-0.726s0.331-0.725,0.726-0.725
			s0.725,0.33,0.725,0.725S182.727,276.024,182.332,276.024z M182.942,283.736c-0.203,0.038-0.42,0.063-0.623,0.063
			c-0.191,0-0.395-0.025-0.586-0.063v-6.63c0.191-0.038,0.395-0.063,0.586-0.063c0.203,0,0.42,0.025,0.623,0.063V283.736z"/>
		<path style="fill:#1A2A4F;" d="M189.521,283.8c-0.191,0-0.28-0.025-0.459-0.063l-0.063-0.624h-0.013
			c-0.471,0.472-1.247,0.751-1.921,0.751c-1.82,0-2.647-1.514-2.647-3.207c0-0.75,0.114-1.387,0.306-1.883
			c0.509-1.298,1.604-1.795,2.494-1.795c0.547,0,1.146,0.141,1.629,0.42v-2.952c0.19-0.038,0.395-0.051,0.598-0.051
			c0.204,0,0.42,0.013,0.611,0.051v9.29C189.851,283.774,189.736,283.8,189.521,283.8z M188.846,278.366
			c-0.395-0.242-0.967-0.382-1.374-0.382c-0.484,0-0.892,0.165-1.146,0.42c-0.51,0.496-0.675,1.361-0.675,2.112
			c0,0.764,0.152,1.374,0.445,1.781c0.28,0.382,0.7,0.599,1.209,0.599s1.184-0.293,1.54-0.649V278.366z"/>
		<path style="fill:#1A2A4F;" d="M194.594,283.863c-0.941,0-1.781-0.317-2.291-0.84c-0.61-0.623-0.903-1.54-0.903-2.57
			c0-1.794,0.979-3.475,2.978-3.475c1.82,0,2.533,1.451,2.533,3.08c0,0.242-0.013,0.483-0.025,0.726h-4.226
			c0.025,0.534,0.229,1.222,0.662,1.642c0.382,0.369,0.967,0.547,1.515,0.547c0.572,0,1.17-0.063,1.667-0.19
			c0.038,0.127,0.051,0.254,0.051,0.382c0,0.14-0.013,0.279-0.051,0.42C195.866,283.812,195.256,283.863,194.594,283.863z
			 M195.688,279.867c0-0.941-0.141-1.972-1.35-1.972c-1.094,0-1.616,0.979-1.68,1.972H195.688z"/>
	</g>
</g>
</svg>
