<?xml version="1.0" encoding="utf-8"?>
<!-- Generator: Adobe Illustrator 16.0.0, SVG Export Plug-In . SVG Version: 6.00 Build 0)  -->
<!DOCTYPE svg PUBLIC "-//W3C//DTD SVG 1.0//EN" "http://www.w3.org/TR/2001/REC-SVG-20010904/DTD/svg10.dtd">
<svg version="1.0" xmlns="http://www.w3.org/2000/svg" xmlns:xlink="http://www.w3.org/1999/xlink" x="0px" y="0px" width="300px"
	 height="300px" viewBox="0 0 300 300" style="enable-background:new 0 0 300 300;" xml:space="preserve">
<g id="Icons">
	
		<line style="fill:none;stroke:#7D8E9D;stroke-width:0.907;stroke-dasharray:2.74,1.833;" x1="80.135" y1="250.904" x2="80.135" y2="273.577"/>
	
		<line style="fill:none;stroke:#7D8E9D;stroke-width:0.907;stroke-dasharray:2.772,1.865;" x1="85.893" y1="277.624" x2="215.636" y2="277.624"/>
	
		<line style="fill:none;stroke:#7D8E9D;stroke-width:0.907;stroke-dasharray:2.74,1.833;" x1="219.741" y1="271.951" x2="219.741" y2="249.281"/>
	
		<line style="fill:none;stroke:#7D8E9D;stroke-width:0.907;stroke-dasharray:2.772,1.865;" x1="213.984" y1="245.235" x2="84.241" y2="245.235"/>
	<path style="fill:none;stroke:#7D8E9D;stroke-width:0.907;" d="M82.589,245.235h-2.454v2.425 M219.74,247.66v-2.425h-2.455
		 M217.285,277.624h2.455v-2.425 M80.135,275.199v2.425h2.454"/>
	<text transform="matrix(1 0 0 1 175.4326 256.8496)" style="fill:#FFFFFF; font-family:'FSMatthew'; font-size:10.7107;"> </text>
	<path style="fill:#5DC2AA;" d="M75.67,70.312c0-4.829,3.126-7.821,7.267-7.821c4.004,0,6.442,3.358,8.649,5.567
		c2.115,2.116,13.247,12.926,14.169,14.307c1.378-0.92,12.557-12.421,14.766-14.629c1.01-1.01,2.62-2.944,3.772-3.542
		c2.85-1.378,16.743-1.793,20.057-1.793c0,5.012,4.619,34.29,5.543,44.776H125.35V83.929c-1.38,0.965-11.271,11.222-13.524,13.384
		c-6.486,6.304-11.179,0.691-15.18-3.312L81.741,79.097C79.718,77.074,75.67,73.992,75.67,70.312"/>
	<path style="fill:#5DC2AA;" d="M225.091,70.312c0-4.829-3.127-7.821-7.268-7.821c-4.002,0-6.44,3.358-8.646,5.567
		c-2.118,2.116-13.249,12.926-14.17,14.307c-1.38-0.92-12.558-12.421-14.766-14.629c-1.013-1.01-2.622-2.944-3.773-3.542
		c-2.851-1.378-16.742-1.793-20.055-1.793c0,5.012-4.622,34.29-5.544,44.776h24.541V83.929c1.38,0.965,11.271,11.222,13.524,13.384
		c6.486,6.304,11.18,0.691,15.18-3.312l14.904-14.905C221.044,77.074,225.091,73.992,225.091,70.312"/>
	<path style="fill:#5DC2AA;" d="M107.402,110.368v0.666c0.104,2.143,1.04,3.905,2.91,5.238c1.457,1.095,5.616,2.617,9.254,2.617
		h61.558c3.222,0,7.488-1.378,9.045-2.428c1.978-1.333,2.913-3.092,3.119-5.093c0-0.333,0.106-0.667,0.106-0.999H107.402z"/>
	<path style="fill:#5DC2AA;" d="M184.8,35.11c-0.202,0.202-0.289,0.421-0.303,0.636c-0.016,0.218,0.044,0.431,0.128,0.621
		c0.087,0.194,0.198,0.361,0.294,0.488c0.097,0.126,0.175,0.208,0.188,0.221l26.942,27.932c0.596,0.619,1.118,1.015,1.569,1.259
		c0.453,0.249,0.832,0.34,1.136,0.353c0.306,0.01,0.533-0.059,0.688-0.137c0.157-0.078,0.24-0.161,0.257-0.176l0.879-0.877
		c0.304-0.306,0.382-0.683,0.322-1.077c-0.059-0.396-0.251-0.804-0.482-1.178c-0.232-0.37-0.501-0.706-0.719-0.955
		c-0.223-0.248-0.39-0.41-0.419-0.439l-27.937-26.943c-0.291-0.284-0.558-0.444-0.794-0.531c-0.236-0.083-0.438-0.088-0.609-0.059
		c-0.17,0.029-0.305,0.095-0.4,0.155c-0.097,0.059-0.149,0.114-0.16,0.125L184.8,35.11z"/>
	<path style="fill:#5DC2AA;" d="M148.684,19.144c8.417-0.737,15.687,3.777,16.937,18.069c1.25,14.294-5.124,20-13.541,20.736
		c-8.418,0.737-15.688-3.775-16.938-18.069C133.89,25.586,140.266,19.88,148.684,19.144"/>
</g>
<g id="Text" style="display:none;">
	<text transform="matrix(1 0 0 1 120.2334 183.7656)" style="display:inline;"><tspan x="0" y="0" style="fill:#1A2A4F; font-family:'FSMatthew-Bold'; font-size:35.2296; letter-spacing:-1;">F</tspan><tspan x="16.839" y="0" style="fill:#1A2A4F; font-family:'FSMatthew-Bold'; font-size:35.2296;">O</tspan><tspan x="39.21" y="0" style="fill:#1A2A4F; font-family:'FSMatthew-Bold'; font-size:35.2296;">R</tspan></text>
	<text transform="matrix(1 0 0 1 100.8213 211.9492)" style="display:inline;"><tspan x="0" y="0" style="fill:#1A2A4F; font-family:'FSMatthew-Bold'; font-size:35.2296; letter-spacing:-1;">M</tspan><tspan x="28.078" y="0" style="fill:#1A2A4F; font-family:'FSMatthew-Bold'; font-size:35.2296;">U</tspan><tspan x="50.554" y="0" style="fill:#1A2A4F; font-family:'FSMatthew-Bold'; font-size:35.2296;">S</tspan><tspan x="68.873" y="0" style="fill:#1A2A4F; font-family:'FSMatthew-Bold'; font-size:35.2296;">I</tspan><tspan x="78.667" y="0" style="fill:#1A2A4F; font-family:'FSMatthew-Bold'; font-size:35.2296;">C</tspan></text>
	<text transform="matrix(1 0 0 1 112.958 240.1318)" style="display:inline;"><tspan x="0" y="0" style="fill:#1A2A4F; font-family:'FSMatthew-Bold'; font-size:35.2296;">IN N</tspan><tspan x="64.469" y="0" style="fill:#1A2A4F; font-family:'FSMatthew-Bold'; font-size:35.2296;">I </tspan></text>
	<text transform="matrix(1 0 0 1 125.2734 256.8496)" style="display:inline;"><tspan x="0" y="0" style="fill:#1A2A4F; font-family:'FSMatthew'; font-size:10.7107;">(</tspan><tspan x="2.956" y="0" style="fill:#1A2A4F; font-family:'FSMatthew'; font-size:10.7107;">G</tspan><tspan x="9.329" y="0" style="fill:#1A2A4F; font-family:'FSMatthew'; font-size:10.7107;">U</tspan><tspan x="15.659" y="0" style="fill:#1A2A4F; font-family:'FSMatthew'; font-size:10.7107;">A</tspan><tspan x="21.882" y="0" style="fill:#1A2A4F; font-family:'FSMatthew'; font-size:10.7107;">R</tspan><tspan x="27.623" y="0" style="fill:#1A2A4F; font-family:'FSMatthew'; font-size:10.7107;">DIA</tspan><tspan x="43.003" y="0" style="fill:#1A2A4F; font-family:'FSMatthew'; font-size:10.7107;">N</tspan></text>
	<text transform="matrix(1 0 0 1 116.8398 269.7021)" style="display:inline;"><tspan x="0" y="0" style="fill:#1A2A4F; font-family:'FSMatthew'; font-size:10.7107;">L</tspan><tspan x="5.205" y="0" style="fill:#1A2A4F; font-family:'FSMatthew'; font-size:10.7107;">E</tspan><tspan x="10.561" y="0" style="fill:#1A2A4F; font-family:'FSMatthew'; font-size:10.7107;">A</tspan><tspan x="16.569" y="0" style="fill:#1A2A4F; font-family:'FSMatthew'; font-size:10.7107;">G</tspan><tspan x="22.942" y="0" style="fill:#1A2A4F; font-family:'FSMatthew'; font-size:10.7107;">U</tspan><tspan x="29.465" y="0" style="fill:#1A2A4F; font-family:'FSMatthew'; font-size:10.7107;">E</tspan><tspan x="34.734" y="0" style="fill:#1A2A4F; font-family:'FSMatthew'; font-size:10.7107;"> </tspan><tspan x="36.459" y="0" style="fill:#1A2A4F; font-family:'FSMatthew'; font-size:10.7107;">T</tspan><tspan x="41.129" y="0" style="fill:#1A2A4F; font-family:'FSMatthew'; font-size:10.7107;">AB</tspan><tspan x="53.178" y="0" style="fill:#1A2A4F; font-family:'FSMatthew'; font-size:10.7107;">LE</tspan><tspan x="63.652" y="0" style="fill:#1A2A4F; font-family:'FSMatthew'; font-size:10.7107;">)</tspan></text>
	<text transform="matrix(1 0 0 1 117.0078 153.3154)" style="display:inline;"><tspan x="0" y="0" style="fill:#BAA875; font-family:'FSMatthew-Bold'; font-size:38.7524; letter-spacing:-1;">T</tspan><tspan x="19.918" y="0" style="fill:#BAA875; font-family:'FSMatthew-Bold'; font-size:38.7524;">O</tspan><tspan x="44.526" y="0" style="fill:#BAA875; font-family:'FSMatthew-Bold'; font-size:38.7524;">P</tspan></text>
</g>
<g id="Text_Flat">
	<g>
		<path style="fill:#1A2A4F;" d="M137.286,164.247h-9.372v5.144h7.892c0.141,0.388,0.247,1.093,0.247,2.079
			c0,0.774-0.07,1.409-0.247,2.149h-7.892v10.146c-0.669,0.105-1.444,0.176-2.501,0.176c-0.951,0-1.867-0.07-2.537-0.176v-23.817
			h14.41c0.141,0.388,0.247,1.128,0.247,2.114C137.533,162.838,137.462,163.507,137.286,164.247z"/>
		<path style="fill:#1A2A4F;" d="M148.594,184.118c-6.518,0-9.971-4.51-9.971-12.261c0-7.752,3.453-12.262,9.971-12.262
			c6.518,0,9.971,4.51,9.971,12.262C158.564,179.608,155.111,184.118,148.594,184.118z M148.594,163.93
			c-3.03,0-4.756,2.325-4.756,7.928c0,5.602,1.727,7.927,4.756,7.927c3.03,0,4.757-2.325,4.757-7.927
			C153.351,166.255,151.624,163.93,148.594,163.93z"/>
		<path style="fill:#1A2A4F;" d="M179.632,183.73c-0.916,0.141-1.867,0.211-2.96,0.211c-0.986,0-1.973-0.035-2.643-0.176
			l-4.826-8.562h-2.079v8.562c-0.881,0.141-1.621,0.176-2.572,0.176c-0.846,0-1.585-0.035-2.466-0.176v-23.817
			c1.62-0.105,5.003-0.176,7.046-0.176c5.99,0,8.984,2.113,8.984,7.61c0,2.924-1.761,5.849-4.228,6.905L179.632,183.73z
			 M169.449,163.895c-0.775,0-1.727,0.035-2.325,0.07v7.047h1.762c2.889,0,4.157-1.058,4.157-3.664
			C173.043,164.74,171.774,163.895,169.449,163.895z"/>
	</g>
	<g>
		<path style="fill:#1A2A4F;" d="M127.563,211.949c-0.423,0.105-1.375,0.176-2.361,0.176c-1.057,0-2.043-0.105-2.466-0.176
			l-0.423-14.305l-5.214,12.05c-0.388,0.141-1.233,0.211-1.762,0.211c-0.634,0-1.409-0.07-1.797-0.176l-5.214-12.085l-0.458,14.305
			c-0.458,0.105-1.55,0.176-2.501,0.176c-0.563,0-1.515-0.07-2.149-0.176l1.021-23.817c0.669-0.07,1.339-0.176,2.043-0.176
			c0.846,0,1.656,0.07,2.079,0.176l6.976,16.172l7.011-16.172c0.705-0.105,1.41-0.176,2.044-0.176c0.81,0,1.55,0.07,2.079,0.176
			L127.563,211.949z"/>
		<path style="fill:#1A2A4F;" d="M149.51,202.895c0,6.06-2.325,9.407-9.09,9.407c-6.835,0-8.984-3.348-8.984-9.407v-14.763
			c0.705-0.105,1.621-0.176,2.466-0.176c0.987,0,1.867,0.07,2.572,0.176v15.115c0,3.241,0.916,5.073,3.981,5.073
			c3.065,0,4.123-1.832,4.123-5.073v-15.115c0.634-0.105,1.691-0.176,2.501-0.176c0.775,0,1.832,0.07,2.431,0.176V202.895z"/>
		<path style="fill:#1A2A4F;" d="M160.501,212.302c-2.572,0-5.391-0.493-7.399-1.409c-0.105-0.493-0.176-1.128-0.176-1.691
			c0-0.846,0.105-1.656,0.353-2.607c2.078,0.846,4.826,1.374,6.976,1.374c2.502,0,3.841-1.162,3.841-2.748
			c0-1.762-1.128-2.501-4.545-3.559c-3.806-1.162-6.589-2.994-6.589-7.082c0-4.368,3.77-6.8,8.737-6.8
			c2.29,0,4.334,0.353,5.708,0.811c0.105,0.388,0.176,1.021,0.176,1.938c0,0.67-0.07,1.691-0.211,2.256
			c-1.762-0.459-3.77-0.705-5.391-0.705c-2.643,0-4.087,0.881-4.087,2.29c0,1.656,1.304,2.325,4.475,3.312
			c3.805,1.198,6.624,2.995,6.624,7.223C168.992,209.519,165.363,212.302,160.501,212.302z"/>
		<path style="fill:#1A2A4F;" d="M177.445,211.949c-0.669,0.105-1.479,0.176-2.536,0.176c-0.952,0-1.833-0.07-2.502-0.176v-23.817
			c0.669-0.105,1.656-0.176,2.537-0.176c0.986,0,1.867,0.07,2.501,0.176V211.949z"/>
		<path style="fill:#1A2A4F;" d="M198.373,193.1c-1.691-0.528-3.806-0.916-5.496-0.916c-4.017,0-6.624,2.854-6.624,7.963
			c0,4.686,2.044,7.751,6.589,7.751c1.69,0,3.594-0.353,5.284-0.881c0.247,0.634,0.423,1.621,0.423,2.36
			c0,0.6-0.035,1.339-0.105,1.656c-1.762,0.811-4.017,1.269-6.095,1.269c-7.575,0-11.311-4.58-11.311-12.05
			c0-7.258,4.017-12.473,11.521-12.473c1.832,0,4.228,0.458,5.919,1.198c0.105,0.353,0.141,1.128,0.141,1.586
			C198.619,191.655,198.479,192.677,198.373,193.1z"/>
	</g>
	<g>
		<path style="fill:#1A2A4F;" d="M120.709,240.132c-0.669,0.105-1.479,0.176-2.537,0.176c-0.951,0-1.832-0.07-2.501-0.176v-23.817
			c0.669-0.105,1.656-0.176,2.537-0.176c0.987,0,1.868,0.07,2.501,0.176V240.132z"/>
		<path style="fill:#1A2A4F;" d="M144.49,240.132c-0.352,0.07-1.198,0.141-1.797,0.141c-0.599,0-1.198-0.035-1.761-0.141
			l-10.958-15.256v15.256c-0.282,0.07-1.339,0.176-2.325,0.176c-0.811,0-1.762-0.105-2.255-0.176v-23.817
			c0.563-0.105,1.233-0.141,1.867-0.141c0.669,0,1.374,0.07,1.902,0.141l10.746,14.974v-14.974c0.705-0.105,1.621-0.176,2.29-0.176
			s1.656,0.07,2.29,0.176V240.132z"/>
		<path style="fill:#1A2A4F;" d="M175.456,240.132c-0.353,0.07-1.197,0.141-1.797,0.141c-0.599,0-1.197-0.035-1.762-0.141
			l-10.957-15.256v15.256c-0.282,0.07-1.339,0.176-2.325,0.176c-0.811,0-1.762-0.105-2.255-0.176v-23.817
			c0.563-0.105,1.233-0.141,1.867-0.141c0.669,0,1.374,0.07,1.902,0.141l10.746,14.974v-14.974c0.705-0.105,1.621-0.176,2.29-0.176
			c0.67,0,1.656,0.07,2.29,0.176V240.132z"/>
		<path style="fill:#1A2A4F;" d="M185.178,240.132c-0.669,0.105-1.479,0.176-2.536,0.176c-0.952,0-1.833-0.07-2.502-0.176v-23.817
			c0.669-0.105,1.656-0.176,2.537-0.176c0.986,0,1.867,0.07,2.501,0.176V240.132z"/>
	</g>
	<g>
		<path style="fill:#1A2A4F;" d="M127.608,258.049c-1.242-1.156-1.906-2.784-1.906-4.424c0-1.639,0.664-3.213,1.906-4.37
			c0.247,0.032,0.407,0.15,0.546,0.343c-1.05,1.243-1.446,2.646-1.446,4.06c0,1.436,0.396,2.807,1.446,4.05
			C128.016,257.899,127.855,258.018,127.608,258.049z"/>
		<path style="fill:#1A2A4F;" d="M134.174,256.464c-0.578,0.278-1.35,0.493-2.164,0.493c-2.26,0-3.31-1.489-3.31-3.653
			c0-1.264,0.439-2.356,1.243-3.042c0.568-0.481,1.35-0.761,2.25-0.761c0.664,0,1.328,0.14,1.735,0.321
			c0.042,0.14,0.053,0.269,0.053,0.418c0,0.15-0.011,0.278-0.053,0.418c-0.471-0.14-1.146-0.246-1.65-0.246
			c-0.707,0-1.264,0.225-1.649,0.589c-0.557,0.525-0.803,1.36-0.803,2.281c0,1.768,0.771,2.753,2.292,2.753
			c0.386,0,0.761-0.074,0.986-0.171v-2.356c0.171-0.021,0.332-0.054,0.503-0.054c0.193,0,0.375,0.021,0.567,0.054V256.464z"/>
		<path style="fill:#1A2A4F;" d="M140.569,254.14c0,1.863-0.643,2.817-2.614,2.817c-2.057,0-2.581-0.911-2.581-2.817v-4.531
			c0.171-0.021,0.343-0.054,0.514-0.054c0.193,0,0.364,0.021,0.557,0.054v4.713c0,1.039,0.225,1.811,1.5,1.811
			c1.275,0,1.585-0.771,1.585-1.811v-4.713c0.171-0.021,0.321-0.054,0.493-0.054c0.193,0,0.354,0.021,0.546,0.054V254.14z"/>
		<path style="fill:#1A2A4F;" d="M145.57,255.136h-2.828l-0.557,1.714c-0.14,0.021-0.364,0.054-0.579,0.054
			c-0.15,0-0.364-0.021-0.503-0.054l2.496-7.241c0.129-0.032,0.396-0.054,0.536-0.054c0.15,0,0.396,0.032,0.493,0.054l2.678,7.241
			c-0.097,0.021-0.354,0.054-0.557,0.054c-0.161,0-0.417-0.011-0.579-0.054L145.57,255.136z M143.021,254.258h2.239l-0.857-2.464
			c-0.139-0.407-0.225-0.739-0.279-1.028h-0.011c-0.053,0.289-0.161,0.632-0.289,1.039L143.021,254.258z"/>
		<path style="fill:#1A2A4F;" d="M152.779,256.85c-0.215,0.032-0.429,0.054-0.644,0.054c-0.203,0-0.374-0.011-0.578-0.054
			l-1.585-2.785h-0.943v2.785c-0.182,0.032-0.364,0.054-0.546,0.054c-0.171,0-0.354-0.021-0.525-0.054v-7.241
			c0.525-0.032,1.157-0.054,1.768-0.054c1.51,0,2.721,0.461,2.721,2.196c0,0.953-0.525,1.789-1.404,2.11L152.779,256.85z
			 M149.844,250.391c-0.246,0-0.632,0-0.814,0.011v2.817h0.729c1.007,0,1.607-0.45,1.607-1.468
			C151.365,250.766,150.797,250.391,149.844,250.391z"/>
		<path style="fill:#1A2A4F;" d="M158.113,256.218c-0.621,0.492-1.479,0.686-2.678,0.686c-0.493,0-1.414-0.021-1.735-0.054v-7.241
			c0.492-0.032,1.156-0.054,1.906-0.054c2.485,0,3.621,1.028,3.621,3.632C159.228,254.59,158.842,255.629,158.113,256.218z
			 M155.596,250.391c-0.214,0-0.6,0.011-0.824,0.021v5.612c0.192,0.021,0.546,0.032,0.921,0.032c0.813,0,1.35-0.225,1.725-0.621
			c0.503-0.524,0.686-1.371,0.686-2.271C158.103,251.333,157.577,250.391,155.596,250.391z"/>
		<path style="fill:#1A2A4F;" d="M161.411,256.85c-0.171,0.021-0.343,0.054-0.514,0.054c-0.193,0-0.364-0.021-0.558-0.054v-7.241
			c0.183-0.032,0.354-0.054,0.547-0.054c0.182,0,0.354,0.021,0.524,0.054V256.85z"/>
		<path style="fill:#1A2A4F;" d="M166.691,255.136h-2.827l-0.558,1.714c-0.139,0.021-0.364,0.054-0.578,0.054
			c-0.15,0-0.364-0.021-0.504-0.054l2.496-7.241c0.129-0.032,0.396-0.054,0.536-0.054c0.149,0,0.396,0.032,0.492,0.054l2.678,7.241
			c-0.096,0.021-0.354,0.054-0.557,0.054c-0.161,0-0.418-0.011-0.578-0.054L166.691,255.136z M164.143,254.258h2.238l-0.856-2.464
			c-0.14-0.407-0.225-0.739-0.278-1.028h-0.011c-0.054,0.289-0.161,0.632-0.289,1.039L164.143,254.258z"/>
		<path style="fill:#1A2A4F;" d="M174.66,256.85c-0.085,0.032-0.268,0.043-0.406,0.043c-0.129,0-0.258-0.011-0.375-0.043
			l-3.813-5.409v5.409c-0.097,0.032-0.354,0.054-0.515,0.054c-0.128,0-0.332-0.011-0.471-0.054v-7.241
			c0.085-0.021,0.311-0.043,0.417-0.043c0.14,0,0.321,0.011,0.429,0.043l3.749,5.324v-5.324c0.118-0.032,0.321-0.054,0.461-0.054
			c0.129,0,0.418,0.021,0.524,0.054V256.85z"/>
	</g>
	<g>
		<path style="fill:#1A2A4F;" d="M121.96,268.824c0.043,0.128,0.054,0.311,0.054,0.438c0,0.14-0.011,0.3-0.054,0.439h-4.317v-7.241
			c0.182-0.032,0.375-0.054,0.568-0.054c0.182,0,0.332,0.021,0.503,0.054v6.363H121.96z"/>
		<path style="fill:#1A2A4F;" d="M127.069,269.702h-4.221v-7.241h4.06c0.042,0.129,0.053,0.311,0.053,0.439
			c0,0.139-0.011,0.3-0.053,0.439h-2.989v2.185h2.582c0.043,0.129,0.054,0.311,0.054,0.439c0,0.14-0.011,0.3-0.054,0.439h-2.582
			v2.421h3.149c0.042,0.128,0.053,0.311,0.053,0.438C127.122,269.402,127.111,269.562,127.069,269.702z"/>
		<path style="fill:#1A2A4F;" d="M132.039,267.988h-2.828l-0.557,1.714c-0.139,0.021-0.364,0.054-0.579,0.054
			c-0.15,0-0.364-0.021-0.503-0.054l2.496-7.241c0.129-0.032,0.396-0.054,0.536-0.054c0.15,0,0.396,0.032,0.493,0.054l2.678,7.241
			c-0.097,0.021-0.354,0.054-0.557,0.054c-0.161,0-0.418-0.011-0.579-0.054L132.039,267.988z M129.489,267.11h2.239l-0.857-2.464
			c-0.139-0.407-0.225-0.739-0.279-1.028h-0.011c-0.053,0.289-0.161,0.632-0.289,1.039L129.489,267.11z"/>
		<path style="fill:#1A2A4F;" d="M139.354,269.316c-0.578,0.278-1.35,0.493-2.164,0.493c-2.26,0-3.31-1.489-3.31-3.653
			c0-1.264,0.439-2.356,1.243-3.042c0.568-0.481,1.35-0.761,2.25-0.761c0.664,0,1.328,0.14,1.735,0.322
			c0.042,0.139,0.053,0.268,0.053,0.417c0,0.15-0.011,0.278-0.053,0.418c-0.471-0.14-1.146-0.246-1.65-0.246
			c-0.707,0-1.264,0.225-1.649,0.589c-0.557,0.525-0.803,1.36-0.803,2.281c0,1.768,0.771,2.753,2.292,2.753
			c0.386,0,0.761-0.074,0.986-0.171v-2.356c0.171-0.021,0.332-0.054,0.503-0.054c0.193,0,0.375,0.021,0.567,0.054V269.316z"/>
		<path style="fill:#1A2A4F;" d="M145.748,266.992c0,1.863-0.643,2.817-2.614,2.817c-2.057,0-2.582-0.911-2.582-2.817v-4.531
			c0.172-0.021,0.343-0.054,0.515-0.054c0.192,0,0.364,0.021,0.557,0.054v4.713c0,1.039,0.225,1.811,1.5,1.811
			c1.274,0,1.585-0.771,1.585-1.811v-4.713c0.171-0.021,0.321-0.054,0.493-0.054c0.193,0,0.354,0.021,0.546,0.054V266.992z"/>
		<path style="fill:#1A2A4F;" d="M151.328,269.702h-4.22v-7.241h4.06c0.043,0.129,0.053,0.311,0.053,0.439
			c0,0.139-0.01,0.3-0.053,0.439h-2.989v2.185h2.582c0.043,0.129,0.054,0.311,0.054,0.439c0,0.14-0.011,0.3-0.054,0.439h-2.582
			v2.421h3.149c0.043,0.128,0.054,0.311,0.054,0.438C151.382,269.402,151.371,269.562,151.328,269.702z"/>
		<path style="fill:#1A2A4F;" d="M158.772,263.34h-2.164v6.362c-0.182,0.032-0.354,0.054-0.546,0.054
			c-0.183,0-0.354-0.021-0.525-0.054v-6.362h-2.057c-0.042-0.14-0.053-0.301-0.053-0.439c0-0.129,0.011-0.311,0.053-0.439h5.292
			c0.043,0.129,0.054,0.311,0.054,0.439C158.826,263.039,158.815,263.2,158.772,263.34z"/>
		<path style="fill:#1A2A4F;" d="M162.606,267.988h-2.827l-0.558,1.714c-0.139,0.021-0.364,0.054-0.578,0.054
			c-0.15,0-0.364-0.021-0.503-0.054l2.495-7.241c0.129-0.032,0.396-0.054,0.536-0.054c0.149,0,0.396,0.032,0.492,0.054l2.678,7.241
			c-0.096,0.021-0.354,0.054-0.557,0.054c-0.16,0-0.418-0.011-0.578-0.054L162.606,267.988z M160.058,267.11h2.238l-0.856-2.464
			c-0.14-0.407-0.225-0.739-0.278-1.028h-0.011c-0.054,0.289-0.161,0.632-0.289,1.039L160.058,267.11z"/>
		<path style="fill:#1A2A4F;" d="M169.012,269.327c-0.472,0.3-1.125,0.429-2.121,0.429c-0.589,0-1.156-0.011-1.896-0.054v-7.241
			c0.449-0.032,1.028-0.054,1.639-0.054c1.296,0,2.656,0.215,2.656,1.8c0,0.782-0.321,1.307-1.071,1.574v0.011
			c1.05,0.107,1.607,0.814,1.607,1.789C169.826,268.449,169.515,269.006,169.012,269.327z M167.833,263.468
			c-0.268-0.171-0.749-0.225-1.05-0.225c-0.257,0-0.503,0.011-0.717,0.021v2.206h0.664c0.878,0,1.521-0.203,1.521-1.188
			C168.251,263.875,168.091,263.629,167.833,263.468z M166.88,266.328h-0.813v2.56c0.214,0.021,0.567,0.032,0.813,0.032
			c1.114,0,1.886-0.257,1.886-1.339C168.766,266.585,168.187,266.328,166.88,266.328z"/>
		<path style="fill:#1A2A4F;" d="M175.138,268.824c0.043,0.128,0.054,0.311,0.054,0.438c0,0.14-0.011,0.3-0.054,0.439h-4.316v-7.241
			c0.182-0.032,0.375-0.054,0.567-0.054c0.182,0,0.332,0.021,0.504,0.054v6.363H175.138z"/>
		<path style="fill:#1A2A4F;" d="M180.246,269.702h-4.22v-7.241h4.06c0.043,0.129,0.054,0.311,0.054,0.439
			c0,0.139-0.011,0.3-0.054,0.439h-2.988v2.185h2.581c0.043,0.129,0.054,0.311,0.054,0.439c0,0.14-0.011,0.3-0.054,0.439h-2.581
			v2.421h3.148c0.043,0.128,0.054,0.311,0.054,0.438C180.3,269.402,180.289,269.562,180.246,269.702z"/>
		<path style="fill:#1A2A4F;" d="M181.617,270.902c-0.247-0.032-0.407-0.15-0.547-0.344c1.05-1.242,1.446-2.646,1.446-4.06
			c0-1.435-0.396-2.806-1.446-4.049c0.14-0.192,0.321-0.311,0.568-0.343c1.242,1.157,1.885,2.785,1.885,4.424
			S182.859,269.745,181.617,270.902z"/>
	</g>
	<g>
		<path style="fill:#BAA875;" d="M137.316,131.844h-6.938v21.472c-0.736,0.116-1.783,0.193-2.751,0.193
			c-0.969,0-2.016-0.077-2.791-0.193v-21.472h-6.938c-0.155-0.504-0.271-1.705-0.271-2.364c0-0.659,0.155-1.86,0.31-2.364h19.378
			c0.155,0.504,0.271,1.706,0.271,2.364C137.588,130.139,137.472,131.34,137.316,131.844z"/>
		<path style="fill:#BAA875;" d="M149.6,153.703c-7.17,0-10.968-4.961-10.968-13.488c0-8.526,3.798-13.487,10.968-13.487
			c7.169,0,10.968,4.961,10.968,13.487C160.568,148.742,156.77,153.703,149.6,153.703z M149.6,131.495
			c-3.333,0-5.232,2.558-5.232,8.72c0,6.163,1.899,8.721,5.232,8.721c3.333,0,5.232-2.558,5.232-8.721
			C154.832,134.053,152.933,131.495,149.6,131.495z"/>
		<path style="fill:#BAA875;" d="M172.696,143.936h-2.713v9.379c-0.736,0.116-1.628,0.193-2.791,0.193
			c-1.046,0-2.015-0.077-2.751-0.193v-26.161c2.247-0.116,5.658-0.232,7.867-0.232c5.93,0,10.232,2.054,10.232,8.216
			C182.541,141.146,178.781,143.936,172.696,143.936z M172.541,131.495c-0.775,0-1.782,0.039-2.558,0.078v7.712h2.403
			c2.983,0,4.573-0.775,4.573-3.953C176.96,132.619,175.604,131.495,172.541,131.495z"/>
	</g>
</g>
</svg>
