<?xml version="1.0" encoding="utf-8"?>
<!-- Generator: Adobe Illustrator 16.0.0, SVG Export Plug-In . SVG Version: 6.00 Build 0)  -->
<!DOCTYPE svg PUBLIC "-//W3C//DTD SVG 1.0//EN" "http://www.w3.org/TR/2001/REC-SVG-20010904/DTD/svg10.dtd">
<svg version="1.0" xmlns="http://www.w3.org/2000/svg" xmlns:xlink="http://www.w3.org/1999/xlink" x="0px" y="0px" width="300px"
	 height="300px" viewBox="0 0 300 300" style="enable-background:new 0 0 300 300;" xml:space="preserve">
<g id="Icon">
	<polygon style="fill:#BAB461;" points="223.246,141.424 236.557,136.692 249.866,141.424 249.479,127.305 258.091,116.11 
		244.541,112.115 236.557,100.464 228.571,112.115 215.022,116.11 223.636,127.305 	"/>
	<path style="fill:#BAB461;" d="M236.557,175.955c-7.601,0-14.819-1.646-21.341-4.58c-1.283-0.578-2.546-1.2-3.773-1.877v49.437
		l25.114-16.815l25.113,16.815v-49.437c-1.227,0.677-2.488,1.295-3.773,1.876C251.377,174.309,244.158,175.955,236.557,175.955"/>
	<path style="fill:#BA5D90;" d="M236.555,93.874c16.486,0,29.896,13.41,29.896,29.894c0,16.482-13.41,29.895-29.896,29.895
		c-16.482,0-29.892-13.413-29.892-29.895C206.663,107.284,220.072,93.874,236.555,93.874 M283.708,123.615
		c-0.085-25.974-21.159-47.002-47.152-47.002h-0.001c-0.101,0-0.201,0.007-0.301,0.007c-25.852,0.163-46.766,21.124-46.849,46.995
		c0,0.05-0.002,0.101-0.002,0.152c0,0.957,0.036,1.904,0.092,2.847c0.017,0.266,0.04,0.532,0.061,0.8
		c0.055,0.704,0.122,1.405,0.209,2.102c0.03,0.255,0.062,0.511,0.095,0.767c0.118,0.849,0.254,1.692,0.419,2.525
		c0.012,0.063,0.021,0.127,0.033,0.19c0.385,1.944,0.898,3.842,1.516,5.693c0.018,0.052,0.034,0.105,0.054,0.156
		c3.494,10.355,10.48,19.096,19.562,24.824c1.222,0.771,2.481,1.484,3.776,2.142c3.941,2.006,8.197,3.472,12.683,4.305
		c0.165,0.029,0.333,0.059,0.499,0.087c0.68,0.118,1.364,0.224,2.055,0.312c0.237,0.031,0.477,0.064,0.718,0.093
		c0.651,0.073,1.307,0.132,1.968,0.178c0.245,0.018,0.487,0.043,0.732,0.056c0.887,0.05,1.777,0.079,2.676,0.08h0.006h0.001
		c0.902,0,1.796-0.029,2.686-0.08c0.241-0.013,0.477-0.035,0.718-0.056c0.667-0.046,1.33-0.104,1.989-0.18
		c0.232-0.026,0.463-0.058,0.697-0.088c0.699-0.09,1.391-0.196,2.081-0.316c0.156-0.027,0.317-0.056,0.476-0.084
		c4.486-0.833,8.751-2.299,12.694-4.306c1.295-0.657,2.555-1.37,3.775-2.142c9.083-5.729,16.069-14.469,19.562-24.824
		c0.019-0.051,0.036-0.104,0.055-0.156c0.618-1.851,1.129-3.749,1.516-5.693c0.012-0.063,0.022-0.127,0.034-0.19
		c0.162-0.833,0.297-1.677,0.416-2.525c0.033-0.256,0.066-0.511,0.096-0.767c0.087-0.697,0.154-1.398,0.207-2.102
		c0.021-0.268,0.047-0.534,0.061-0.8c0.057-0.943,0.095-1.89,0.095-2.847C283.712,123.716,283.708,123.665,283.708,123.615"/>
</g>
<g id="Text" style="display:none;">
	<path style="display:inline;fill:#647B8C;" d="M171.977,88.682c0,2.856-1.521,4.016-4.984,4.016h-2.113v-7.722
		c0.719-0.039,1.859-0.078,2.788-0.078C170.456,84.897,171.977,85.826,171.977,88.682 M172.99,96.287
		c2.957-1.158,5.07-4.364,5.07-7.567c0-6.023-3.593-8.339-10.772-8.339c-2.451,0-6.506,0.078-8.45,0.193v26.098
		c1.057,0.154,1.944,0.195,2.958,0.195c1.142,0,2.027-0.041,3.083-0.195v-9.379h2.493l5.788,9.379
		c0.803,0.154,1.984,0.195,3.168,0.195c1.31,0,2.45-0.078,3.549-0.234L172.99,96.287z M154.065,104.277
		c0-1.081-0.127-1.893-0.296-2.315H141.94v-6.41h9.674c0.211-0.809,0.296-1.503,0.296-2.354c0-1.082-0.125-1.853-0.296-2.278h-9.674
		v-5.636h11.448c0.211-0.81,0.297-1.545,0.297-2.393c0-1.082-0.127-1.894-0.297-2.318H135.9v26.098h17.869
		C153.98,105.861,154.065,105.126,154.065,104.277 M125.466,98.758c0,2.585-1.816,3.55-5.577,3.55c-0.802,0-1.985-0.037-2.789-0.076
		v-7.028h2.958C123.903,95.205,125.466,96.095,125.466,98.758 M123.522,87.716c0,2.354-1.311,3.166-4.056,3.166h-2.366v-5.868
		c0.677-0.038,1.521-0.077,2.282-0.077C121.451,84.937,123.522,85.285,123.522,87.716 M131.463,98.795c0-3.165-2.28-5.52-5.83-6.291
		c2.662-1.082,3.804-2.934,3.804-5.406c0-4.903-3.972-6.718-10.478-6.718c-2.197,0-5.45,0.078-7.9,0.231v26.02
		c2.999,0.156,5.916,0.234,8.914,0.234C126.69,106.866,131.463,104.82,131.463,98.795 M103.71,80.574
		c-0.634-0.115-1.52-0.193-2.492-0.193c-0.761,0-1.606,0.078-2.45,0.193l-8.407,17.721l-8.365-17.721
		c-0.507-0.115-1.479-0.193-2.492-0.193c-0.844,0-1.648,0.116-2.45,0.193l-1.226,26.098c0.761,0.117,1.901,0.195,2.577,0.195
		c1.141,0,2.45-0.078,3-0.195l0.549-15.673l6.252,13.242c0.465,0.115,1.394,0.193,2.155,0.193c0.634,0,1.646-0.078,2.112-0.231
		l6.251-13.203l0.506,15.673c0.509,0.078,1.691,0.195,2.959,0.195c1.181,0,2.323-0.078,2.83-0.195L103.71,80.574z M70.337,80.574
		c-0.719-0.115-1.986-0.193-2.915-0.193c-0.973,0-2.24,0.078-3,0.193v16.562c0,3.551-1.267,5.559-4.942,5.559
		c-3.676,0-4.773-2.007-4.773-5.559V80.574c-0.845-0.115-1.902-0.193-3.084-0.193c-1.015,0-2.114,0.078-2.958,0.193v16.175
		c0,6.641,2.577,10.31,10.773,10.31c8.111,0,10.899-3.669,10.899-10.31V80.574z M42.457,80.574
		c-0.761-0.115-1.944-0.193-2.747-0.193c-0.803,0-1.9,0.078-2.746,0.193v16.409L24.08,80.574c-0.634-0.077-1.478-0.154-2.282-0.154
		c-0.761,0-1.562,0.039-2.239,0.154v26.098c0.592,0.078,1.733,0.195,2.704,0.195c1.183,0,2.45-0.117,2.789-0.195V89.957
		l13.137,16.715c0.676,0.117,1.394,0.154,2.112,0.154c0.72,0,1.732-0.076,2.155-0.154V80.574z"/>
	<path style="display:inline;fill:#B4A168;" d="M179.108,165.672c0-2.3-0.27-4.024-0.63-4.929h-25.172v-13.64h20.587
		c0.45-1.725,0.629-3.203,0.629-5.013c0-2.3-0.269-3.942-0.629-4.847h-20.587v-11.995h24.364c0.448-1.725,0.629-3.285,0.629-5.094
		c0-2.301-0.269-4.026-0.629-4.931h-37.222v55.543h38.029C178.929,169.041,179.108,167.479,179.108,165.672 M126.965,115.225
		c-1.617-0.247-4.135-0.411-5.843-0.411s-4.047,0.164-5.845,0.411v34.92l-27.42-34.92c-1.348-0.165-3.147-0.327-4.855-0.327
		c-1.619,0-3.328,0.081-4.766,0.327v55.543c1.26,0.164,3.687,0.409,5.755,0.409c2.518,0,5.213-0.245,5.933-0.409v-35.577
		l27.96,35.577c1.438,0.246,2.966,0.326,4.496,0.326c1.527,0,3.686-0.162,4.584-0.326V115.225z M54.233,142.995
		c0,13.064-4.405,18.486-12.137,18.486s-12.136-5.422-12.136-18.486c0-13.062,4.404-18.485,12.136-18.485
		S54.233,129.933,54.233,142.995 M67.539,142.995c0-18.075-8.811-28.59-25.443-28.59c-16.632,0-25.443,10.515-25.443,28.59
		c0,18.077,8.811,28.593,25.443,28.593C58.729,171.588,67.539,161.072,67.539,142.995"/>
	<text transform="matrix(1 0 0 1 24.6094 187.2822)" style="display:inline;"><tspan x="0" y="0" style="fill:#1A2A4F; font-family:'FSMatthew-Bold'; font-size:14.0816;">U</tspan><tspan x="9.801" y="0" style="fill:#1A2A4F; font-family:'FSMatthew-Bold'; font-size:14.0816;">N</tspan><tspan x="20.108" y="0" style="fill:#1A2A4F; font-family:'FSMatthew-Bold'; font-size:14.0816;">I</tspan><tspan x="24.896" y="0" style="fill:#1A2A4F; font-family:'FSMatthew-Bold'; font-size:14.0816;">V</tspan><tspan x="33.992" y="0" style="fill:#1A2A4F; font-family:'FSMatthew-Bold'; font-size:14.0816;">E</tspan><tspan x="42.188" y="0" style="fill:#1A2A4F; font-family:'FSMatthew-Bold'; font-size:14.0816;">R</tspan><tspan x="51.186" y="0" style="fill:#1A2A4F; font-family:'FSMatthew-Bold'; font-size:14.0816;">SI</tspan><tspan x="64.07" y="0" style="fill:#1A2A4F; font-family:'FSMatthew-Bold'; font-size:14.0816; letter-spacing:1;">T</tspan><tspan x="72.773" y="0" style="fill:#1A2A4F; font-family:'FSMatthew-Bold'; font-size:14.0816;">Y </tspan><tspan x="85.08" y="0" style="fill:#1A2A4F; font-family:'FSMatthew-Bold'; font-size:14.0816;">I</tspan><tspan x="89.811" y="0" style="fill:#1A2A4F; font-family:'FSMatthew-Bold'; font-size:14.0816;">N</tspan><tspan x="100.119" y="0" style="fill:#1A2A4F; font-family:'FSMatthew-Bold'; font-size:14.0816;"> </tspan><tspan x="103.16" y="0" style="fill:#1A2A4F; font-family:'FSMatthew-Bold'; font-size:14.0816;">TH</tspan><tspan x="121.438" y="0" style="fill:#1A2A4F; font-family:'FSMatthew-Bold'; font-size:14.0816;">E</tspan><tspan x="129.633" y="0" style="fill:#1A2A4F; font-family:'FSMatthew-Bold'; font-size:14.0816;"> </tspan><tspan x="133.364" y="0" style="fill:#1A2A4F; font-family:'FSMatthew-Bold'; font-size:14.0816;">U</tspan><tspan x="143.165" y="0" style="fill:#1A2A4F; font-family:'FSMatthew-Bold'; font-size:14.0816;">K </tspan></text>
	<text transform="matrix(1 0 0 1 19.5967 203.5303)" style="display:inline;"><tspan x="0" y="0" style="fill:#1A2A4F; font-family:'FSMatthew-Bold'; font-size:14.0816;">F</tspan><tspan x="6.731" y="0" style="fill:#1A2A4F; font-family:'FSMatthew-Bold'; font-size:14.0816;">OR </tspan><tspan x="26.74" y="0" style="fill:#1A2A4F; font-family:'FSMatthew-Bold'; font-size:14.0816;">S</tspan><tspan x="33.711" y="0" style="fill:#1A2A4F; font-family:'FSMatthew-Bold'; font-size:14.0816;">TU</tspan><tspan x="50.13" y="0" style="fill:#1A2A4F; font-family:'FSMatthew-Bold'; font-size:14.0816;">D</tspan><tspan x="58.987" y="0" style="fill:#1A2A4F; font-family:'FSMatthew-Bold'; font-size:14.0816;">YING PHARM</tspan><tspan x="137.336" y="0" style="fill:#1A2A4F; font-family:'FSMatthew-Bold'; font-size:14.0816;">A</tspan><tspan x="145.968" y="0" style="fill:#1A2A4F; font-family:'FSMatthew-Bold'; font-size:14.0816;">C</tspan><tspan x="154.19" y="0" style="fill:#1A2A4F; font-family:'FSMatthew-Bold'; font-size:14.0816;">Y</tspan></text>
	
		<text transform="matrix(1 0 0 1 53.5625 217.4434)" style="display:inline;fill:#1A2A4F; font-family:'FSMatthew-Bold'; font-size:12.453;">2015, 2016, 2017 </text>
</g>
<g id="Text_Flat">
	<path style="fill:#647B8C;" d="M171.977,88.682c0,2.856-1.521,4.016-4.984,4.016h-2.113v-7.722
		c0.719-0.039,1.859-0.078,2.788-0.078C170.456,84.897,171.977,85.826,171.977,88.682 M172.99,96.287
		c2.957-1.158,5.07-4.364,5.07-7.567c0-6.023-3.593-8.339-10.772-8.339c-2.451,0-6.506,0.078-8.45,0.193v26.098
		c1.057,0.154,1.944,0.195,2.958,0.195c1.142,0,2.027-0.041,3.083-0.195v-9.379h2.493l5.788,9.379
		c0.803,0.154,1.984,0.195,3.168,0.195c1.31,0,2.45-0.078,3.549-0.234L172.99,96.287z M154.065,104.277
		c0-1.081-0.127-1.893-0.296-2.315H141.94v-6.41h9.674c0.211-0.809,0.296-1.503,0.296-2.354c0-1.082-0.125-1.853-0.296-2.278h-9.674
		v-5.636h11.448c0.211-0.81,0.297-1.545,0.297-2.393c0-1.082-0.127-1.894-0.297-2.318H135.9v26.098h17.869
		C153.98,105.861,154.065,105.126,154.065,104.277 M125.466,98.758c0,2.585-1.816,3.55-5.577,3.55c-0.802,0-1.985-0.037-2.789-0.076
		v-7.028h2.958C123.903,95.205,125.466,96.095,125.466,98.758 M123.522,87.716c0,2.354-1.311,3.166-4.056,3.166h-2.366v-5.868
		c0.677-0.038,1.521-0.077,2.282-0.077C121.451,84.937,123.522,85.285,123.522,87.716 M131.463,98.795c0-3.165-2.28-5.52-5.83-6.291
		c2.662-1.082,3.804-2.934,3.804-5.406c0-4.903-3.972-6.718-10.478-6.718c-2.197,0-5.45,0.078-7.9,0.231v26.02
		c2.999,0.156,5.916,0.234,8.914,0.234C126.69,106.866,131.463,104.82,131.463,98.795 M103.71,80.574
		c-0.634-0.115-1.52-0.193-2.492-0.193c-0.761,0-1.606,0.078-2.45,0.193l-8.407,17.721l-8.365-17.721
		c-0.507-0.115-1.479-0.193-2.492-0.193c-0.844,0-1.648,0.116-2.45,0.193l-1.226,26.098c0.761,0.117,1.901,0.195,2.577,0.195
		c1.141,0,2.45-0.078,3-0.195l0.549-15.673l6.252,13.242c0.465,0.115,1.394,0.193,2.155,0.193c0.634,0,1.646-0.078,2.112-0.231
		l6.251-13.203l0.506,15.673c0.509,0.078,1.691,0.195,2.959,0.195c1.181,0,2.323-0.078,2.83-0.195L103.71,80.574z M70.337,80.574
		c-0.719-0.115-1.986-0.193-2.915-0.193c-0.973,0-2.24,0.078-3,0.193v16.562c0,3.551-1.267,5.559-4.942,5.559
		c-3.676,0-4.773-2.007-4.773-5.559V80.574c-0.845-0.115-1.902-0.193-3.084-0.193c-1.015,0-2.114,0.078-2.958,0.193v16.175
		c0,6.641,2.577,10.31,10.773,10.31c8.111,0,10.899-3.669,10.899-10.31V80.574z M42.457,80.574
		c-0.761-0.115-1.944-0.193-2.747-0.193c-0.803,0-1.9,0.078-2.746,0.193v16.409L24.08,80.574c-0.634-0.077-1.478-0.154-2.282-0.154
		c-0.761,0-1.562,0.039-2.239,0.154v26.098c0.592,0.078,1.733,0.195,2.704,0.195c1.183,0,2.45-0.117,2.789-0.195V89.957
		l13.137,16.715c0.676,0.117,1.394,0.154,2.112,0.154c0.72,0,1.732-0.076,2.155-0.154V80.574z"/>
	<path style="fill:#B4A168;" d="M179.108,165.672c0-2.3-0.27-4.024-0.63-4.929h-25.172v-13.64h20.587
		c0.45-1.725,0.629-3.203,0.629-5.013c0-2.3-0.269-3.942-0.629-4.847h-20.587v-11.995h24.364c0.448-1.725,0.629-3.285,0.629-5.094
		c0-2.301-0.269-4.026-0.629-4.931h-37.222v55.543h38.029C178.929,169.041,179.108,167.479,179.108,165.672 M126.965,115.225
		c-1.617-0.247-4.135-0.411-5.843-0.411s-4.047,0.164-5.845,0.411v34.92l-27.42-34.92c-1.348-0.165-3.147-0.327-4.855-0.327
		c-1.619,0-3.328,0.081-4.766,0.327v55.543c1.26,0.164,3.687,0.409,5.755,0.409c2.518,0,5.213-0.245,5.933-0.409v-35.577
		l27.96,35.577c1.438,0.246,2.966,0.326,4.496,0.326c1.527,0,3.686-0.162,4.584-0.326V115.225z M54.233,142.995
		c0,13.064-4.405,18.486-12.137,18.486s-12.136-5.422-12.136-18.486c0-13.062,4.404-18.485,12.136-18.485
		S54.233,129.933,54.233,142.995 M67.539,142.995c0-18.075-8.811-28.59-25.443-28.59c-16.632,0-25.443,10.515-25.443,28.59
		c0,18.077,8.811,28.593,25.443,28.593C58.729,171.588,67.539,161.072,67.539,142.995"/>
	<g>
		<path style="fill:#1A2A4F;" d="M32.849,183.663c0,2.422-0.93,3.76-3.634,3.76c-2.732,0-3.591-1.338-3.591-3.76v-5.901
			c0.282-0.042,0.648-0.07,0.986-0.07c0.394,0,0.747,0.028,1.028,0.07v6.042c0,1.296,0.366,2.028,1.592,2.028
			c1.225,0,1.647-0.732,1.647-2.028v-6.042c0.254-0.042,0.676-0.07,1-0.07c0.31,0,0.732,0.028,0.972,0.07V183.663z"/>
		<path style="fill:#1A2A4F;" d="M43.1,187.282c-0.141,0.028-0.479,0.057-0.718,0.057c-0.24,0-0.479-0.015-0.705-0.057l-4.38-6.099
			v6.099c-0.113,0.028-0.535,0.07-0.93,0.07c-0.324,0-0.704-0.042-0.901-0.07v-9.521c0.226-0.042,0.493-0.057,0.747-0.057
			c0.268,0,0.549,0.028,0.761,0.057l4.295,5.985v-5.985c0.282-0.042,0.648-0.07,0.916-0.07s0.662,0.028,0.916,0.07V187.282z"/>
		<path style="fill:#1A2A4F;" d="M47.816,187.282c-0.268,0.042-0.592,0.07-1.014,0.07c-0.38,0-0.732-0.028-1-0.07v-9.521
			c0.268-0.042,0.662-0.07,1.014-0.07c0.394,0,0.746,0.028,1,0.07V187.282z"/>
		<path style="fill:#1A2A4F;" d="M53.266,183.113c0.211,0.592,0.423,1.254,0.521,1.817h0.028c0.099-0.563,0.296-1.226,0.507-1.817
			l1.042-3.014c0.268-0.774,0.422-1.521,0.437-2.338c0.282-0.042,0.676-0.07,1-0.07c0.296,0,0.718,0.028,0.972,0.07
			c0,0.943-0.169,1.845-0.549,2.845l-2.549,6.676c-0.169,0.042-0.563,0.07-0.901,0.07c-0.38,0-0.69-0.028-0.944-0.07l-2.507-6.647
			c-0.38-1-0.549-1.93-0.549-2.873c0.253-0.042,0.591-0.07,1.014-0.07c0.324,0,0.732,0.028,0.986,0.07
			c0,0.873,0.155,1.563,0.422,2.338L53.266,183.113z"/>
		<path style="fill:#1A2A4F;" d="M65.615,187.282h-5.958v-9.521h5.831c0.056,0.154,0.098,0.45,0.098,0.845
			c0,0.31-0.028,0.577-0.098,0.873h-3.817v2.057h3.225c0.057,0.155,0.099,0.437,0.099,0.831c0,0.31-0.028,0.563-0.099,0.859h-3.225
			v2.338h3.943c0.057,0.154,0.099,0.45,0.099,0.845C65.714,186.719,65.686,186.986,65.615,187.282z"/>
		<path style="fill:#1A2A4F;" d="M74.867,187.269c-0.366,0.056-0.746,0.084-1.183,0.084c-0.395,0-0.789-0.014-1.057-0.07
			l-1.929-3.423h-0.831v3.423c-0.352,0.057-0.648,0.07-1.028,0.07c-0.338,0-0.634-0.014-0.986-0.07v-9.521
			c0.648-0.042,2-0.07,2.817-0.07c2.394,0,3.591,0.845,3.591,3.042c0,1.169-0.704,2.338-1.69,2.761L74.867,187.269z M70.797,179.339
			c-0.31,0-0.69,0.014-0.93,0.028v2.816h0.704c1.155,0,1.662-0.422,1.662-1.465C72.234,179.677,71.727,179.339,70.797,179.339z"/>
		<path style="fill:#1A2A4F;" d="M79.443,187.423c-1.028,0-2.155-0.197-2.958-0.563c-0.042-0.197-0.07-0.45-0.07-0.676
			c0-0.338,0.042-0.662,0.141-1.042c0.831,0.338,1.929,0.549,2.789,0.549c1,0,1.535-0.465,1.535-1.099c0-0.704-0.451-1-1.817-1.422
			c-1.521-0.465-2.634-1.197-2.634-2.831c0-1.746,1.507-2.718,3.493-2.718c0.916,0,1.732,0.141,2.282,0.323
			c0.042,0.155,0.07,0.409,0.07,0.774c0,0.269-0.028,0.677-0.084,0.902c-0.704-0.184-1.507-0.282-2.155-0.282
			c-1.056,0-1.634,0.353-1.634,0.915c0,0.662,0.521,0.93,1.789,1.324c1.521,0.479,2.648,1.197,2.648,2.888
			C82.837,186.311,81.387,187.423,79.443,187.423z"/>
		<path style="fill:#1A2A4F;" d="M87.047,187.282c-0.268,0.042-0.592,0.07-1.014,0.07c-0.38,0-0.732-0.028-1-0.07v-9.521
			c0.268-0.042,0.662-0.07,1.014-0.07c0.394,0,0.746,0.028,1,0.07V187.282z"/>
		<path style="fill:#1A2A4F;" d="M96.06,179.479h-2.521v7.803c-0.268,0.042-0.648,0.07-1,0.07s-0.732-0.028-1.014-0.07v-7.803
			h-2.521c-0.056-0.183-0.098-0.619-0.098-0.858c0-0.24,0.056-0.677,0.112-0.859h7.042c0.057,0.183,0.099,0.619,0.099,0.859
			C96.158,178.86,96.116,179.297,96.06,179.479z"/>
		<path style="fill:#1A2A4F;" d="M104.537,179.944l-2.155,4.155v3.183c-0.268,0.042-0.578,0.07-1,0.07
			c-0.38,0-0.747-0.028-1.014-0.07v-3.211l-2.056-4.014c-0.451-0.874-0.69-1.592-0.69-2.311c0.226-0.027,0.634-0.056,0.986-0.056
			c0.338,0,0.718,0.014,0.986,0.056c0,0.592,0.085,0.986,0.409,1.662l0.943,1.943c0.211,0.423,0.395,0.93,0.451,1.226h0.014
			c0.071-0.296,0.296-0.816,0.465-1.183l0.972-2.043c0.211-0.437,0.338-0.943,0.338-1.591c0.268-0.042,0.69-0.07,1.028-0.07
			c0.395,0,0.69,0.028,0.916,0.07C105.128,178.479,104.847,179.339,104.537,179.944z"/>
		<path style="fill:#1A2A4F;" d="M112.788,187.282c-0.268,0.042-0.592,0.07-1.014,0.07c-0.38,0-0.732-0.028-1-0.07v-9.521
			c0.268-0.042,0.662-0.07,1.014-0.07c0.394,0,0.746,0.028,1,0.07V187.282z"/>
		<path style="fill:#1A2A4F;" d="M123.11,187.282c-0.141,0.028-0.479,0.057-0.718,0.057c-0.24,0-0.479-0.015-0.705-0.057
			l-4.38-6.099v6.099c-0.113,0.028-0.535,0.07-0.93,0.07c-0.324,0-0.704-0.042-0.901-0.07v-9.521
			c0.226-0.042,0.493-0.057,0.747-0.057c0.268,0,0.549,0.028,0.761,0.057l4.295,5.985v-5.985c0.282-0.042,0.648-0.07,0.916-0.07
			s0.662,0.028,0.916,0.07V187.282z"/>
		<path style="fill:#1A2A4F;" d="M135.149,179.479h-2.521v7.803c-0.268,0.042-0.648,0.07-1,0.07s-0.732-0.028-1.014-0.07v-7.803
			h-2.521c-0.056-0.183-0.098-0.619-0.098-0.858c0-0.24,0.056-0.677,0.112-0.859h7.042c0.057,0.183,0.099,0.619,0.099,0.859
			C135.248,178.86,135.206,179.297,135.149,179.479z"/>
		<path style="fill:#1A2A4F;" d="M144.429,187.282c-0.253,0.042-0.605,0.07-1,0.07s-0.747-0.028-1.014-0.07v-3.943h-3.31v3.943
			c-0.268,0.042-0.578,0.07-1,0.07c-0.38,0-0.747-0.028-1.014-0.07v-9.521c0.268-0.042,0.662-0.07,1.014-0.07
			c0.395,0,0.747,0.028,1,0.07v3.858h3.31v-3.858c0.31-0.042,0.662-0.07,1.014-0.07c0.338,0,0.761,0.028,1,0.07V187.282z"/>
		<path style="fill:#1A2A4F;" d="M153.061,187.282h-5.958v-9.521h5.831c0.057,0.154,0.099,0.45,0.099,0.845
			c0,0.31-0.028,0.577-0.099,0.873h-3.816v2.057h3.226c0.056,0.155,0.099,0.437,0.099,0.831c0,0.31-0.028,0.563-0.099,0.859h-3.226
			v2.338h3.943c0.057,0.154,0.099,0.45,0.099,0.845C153.159,186.719,153.131,186.986,153.061,187.282z"/>
		<path style="fill:#1A2A4F;" d="M166.213,183.663c0,2.422-0.93,3.76-3.634,3.76c-2.732,0-3.592-1.338-3.592-3.76v-5.901
			c0.282-0.042,0.648-0.07,0.986-0.07c0.395,0,0.746,0.028,1.028,0.07v6.042c0,1.296,0.366,2.028,1.591,2.028
			c1.226,0,1.648-0.732,1.648-2.028v-6.042c0.253-0.042,0.676-0.07,1-0.07c0.31,0,0.732,0.028,0.972,0.07V183.663z"/>
		<path style="fill:#1A2A4F;" d="M176.31,187.282c-0.254,0.042-0.704,0.07-1.197,0.07c-0.353,0-0.859-0.028-1.155-0.07l-2.465-3.816
			l-0.647,0.774v3.042c-0.268,0.042-0.592,0.07-1.014,0.07c-0.381,0-0.732-0.028-1-0.07v-9.521c0.268-0.042,0.661-0.07,1.014-0.07
			c0.395,0,0.746,0.028,1,0.07v4.099l1.634-1.916c0.718-0.845,1.112-1.45,1.268-2.183c0.281-0.042,0.676-0.07,0.985-0.07
			c0.254,0,0.69,0.028,0.986,0.07c-0.211,1.112-0.803,2.084-1.647,3.056l-1.127,1.296L176.31,187.282z"/>
	</g>
	<g>
		<path style="fill:#1A2A4F;" d="M26.413,195.728h-3.746v2.057h3.155c0.056,0.155,0.099,0.437,0.099,0.831
			c0,0.31-0.028,0.563-0.099,0.859h-3.155v4.056c-0.268,0.042-0.578,0.07-1,0.07c-0.38,0-0.747-0.028-1.014-0.07v-9.521h5.76
			c0.057,0.154,0.099,0.45,0.099,0.845C26.512,195.164,26.484,195.432,26.413,195.728z"/>
		<path style="fill:#1A2A4F;" d="M30.933,203.671c-2.605,0-3.986-1.803-3.986-4.901c0-3.098,1.38-4.9,3.986-4.9
			s3.986,1.803,3.986,4.9C34.919,201.868,33.539,203.671,30.933,203.671z M30.933,195.601c-1.211,0-1.901,0.93-1.901,3.169
			s0.69,3.169,1.901,3.169c1.211,0,1.901-0.93,1.901-3.169S32.144,195.601,30.933,195.601z"/>
		<path style="fill:#1A2A4F;" d="M43.339,203.517c-0.366,0.056-0.746,0.084-1.183,0.084c-0.395,0-0.789-0.014-1.057-0.07
			l-1.929-3.423h-0.831v3.423c-0.352,0.057-0.648,0.07-1.028,0.07c-0.338,0-0.634-0.014-0.986-0.07v-9.521
			c0.648-0.042,2-0.07,2.817-0.07c2.394,0,3.591,0.845,3.591,3.042c0,1.169-0.704,2.338-1.69,2.761L43.339,203.517z M39.269,195.587
			c-0.31,0-0.69,0.014-0.93,0.028v2.816h0.704c1.155,0,1.662-0.422,1.662-1.465C40.706,195.925,40.198,195.587,39.269,195.587z"/>
		<path style="fill:#1A2A4F;" d="M49.985,203.671c-1.028,0-2.155-0.197-2.958-0.563c-0.042-0.197-0.07-0.45-0.07-0.676
			c0-0.338,0.042-0.662,0.141-1.042c0.831,0.338,1.929,0.549,2.789,0.549c1,0,1.535-0.465,1.535-1.099c0-0.704-0.451-1-1.817-1.422
			c-1.521-0.465-2.634-1.197-2.634-2.831c0-1.746,1.507-2.718,3.493-2.718c0.916,0,1.732,0.141,2.282,0.323
			c0.042,0.155,0.07,0.409,0.07,0.774c0,0.269-0.028,0.677-0.084,0.902c-0.704-0.184-1.507-0.282-2.155-0.282
			c-1.056,0-1.634,0.353-1.634,0.915c0,0.662,0.521,0.93,1.789,1.324c1.521,0.479,2.648,1.197,2.648,2.888
			C53.379,202.559,51.928,203.671,49.985,203.671z"/>
		<path style="fill:#1A2A4F;" d="M60.688,195.728h-2.521v7.803c-0.268,0.042-0.648,0.07-1,0.07s-0.732-0.028-1.014-0.07v-7.803
			h-2.521c-0.056-0.183-0.098-0.619-0.098-0.858c0-0.24,0.056-0.677,0.112-0.859h7.042c0.057,0.183,0.099,0.619,0.099,0.859
			C60.786,195.108,60.744,195.545,60.688,195.728z"/>
		<path style="fill:#1A2A4F;" d="M68.981,199.911c0,2.422-0.93,3.76-3.634,3.76c-2.732,0-3.591-1.338-3.591-3.76v-5.901
			c0.282-0.042,0.648-0.07,0.986-0.07c0.394,0,0.747,0.028,1.028,0.07v6.042c0,1.296,0.366,2.028,1.592,2.028
			c1.225,0,1.647-0.732,1.647-2.028v-6.042c0.254-0.042,0.676-0.07,1-0.07c0.31,0,0.732,0.028,0.972,0.07V199.911z"/>
		<path style="fill:#1A2A4F;" d="M76.909,202.686c-0.873,0.676-2,0.915-3.549,0.915c-0.789,0-2.127-0.028-2.578-0.07v-9.521
			c0.69-0.042,2.127-0.07,2.93-0.07c3.098,0,4.69,1.31,4.69,4.718C78.402,200.418,77.938,201.883,76.909,202.686z M73.754,195.601
			c-0.38,0-0.803,0.015-0.958,0.028v6.268c0.183,0.014,0.605,0.028,1.042,0.028c1.775,0,2.479-1.127,2.479-3.296
			C76.318,196.249,75.585,195.601,73.754,195.601z"/>
		<path style="fill:#1A2A4F;" d="M85.738,196.192l-2.155,4.155v3.183c-0.268,0.042-0.578,0.07-1,0.07
			c-0.38,0-0.747-0.028-1.014-0.07v-3.211l-2.056-4.014c-0.451-0.874-0.69-1.592-0.69-2.311c0.226-0.027,0.634-0.056,0.986-0.056
			c0.338,0,0.718,0.014,0.986,0.056c0,0.592,0.085,0.986,0.409,1.662l0.943,1.943c0.211,0.423,0.395,0.93,0.451,1.226h0.014
			c0.071-0.296,0.296-0.816,0.465-1.183l0.972-2.043c0.211-0.437,0.338-0.943,0.338-1.591c0.268-0.042,0.69-0.07,1.028-0.07
			c0.395,0,0.69,0.028,0.916,0.07C86.33,194.728,86.048,195.587,85.738,196.192z"/>
		<path style="fill:#1A2A4F;" d="M89.427,203.53c-0.268,0.042-0.592,0.07-1.014,0.07c-0.38,0-0.732-0.028-1-0.07v-9.521
			c0.268-0.042,0.662-0.07,1.014-0.07c0.394,0,0.746,0.028,1,0.07V203.53z"/>
		<path style="fill:#1A2A4F;" d="M98.933,203.53c-0.141,0.028-0.479,0.057-0.718,0.057c-0.24,0-0.479-0.015-0.705-0.057l-4.38-6.099
			v6.099c-0.113,0.028-0.535,0.07-0.93,0.07c-0.324,0-0.704-0.042-0.901-0.07v-9.521c0.226-0.042,0.493-0.057,0.747-0.057
			c0.268,0,0.549,0.028,0.761,0.057l4.295,5.985v-5.985c0.282-0.042,0.648-0.07,0.916-0.07s0.662,0.028,0.916,0.07V203.53z"/>
		<path style="fill:#1A2A4F;" d="M107.944,203.164c-0.732,0.324-1.93,0.507-3.042,0.507c-3.169,0-4.563-2.028-4.563-4.803
			c0-2.901,1.718-4.999,4.774-4.999c0.873,0,1.873,0.183,2.465,0.437c0.042,0.225,0.07,0.563,0.07,0.718
			c0,0.31-0.056,0.648-0.113,0.859c-0.605-0.197-1.479-0.324-2.281-0.324c-2.028,0-2.831,1.479-2.831,3.282
			c0,1.915,0.845,3.141,2.549,3.141c0.38,0,0.746-0.028,0.958-0.085v-3.042c0.268-0.042,0.634-0.07,0.986-0.07
			c0.395,0,0.775,0.028,1.028,0.07V203.164z"/>
		<path style="fill:#1A2A4F;" d="M115.477,200.122h-0.986v3.408c-0.268,0.042-0.592,0.07-1.014,0.07c-0.38,0-0.732-0.028-1-0.07
			v-9.507c0.817-0.042,2.056-0.084,2.859-0.084c2.155,0,3.718,0.746,3.718,2.985C119.054,199.108,117.688,200.122,115.477,200.122z
			 M115.421,195.601c-0.282,0-0.648,0.015-0.93,0.028v2.803h0.873c1.084,0,1.662-0.281,1.662-1.437
			C117.026,196.01,116.533,195.601,115.421,195.601z"/>
		<path style="fill:#1A2A4F;" d="M127.63,203.53c-0.253,0.042-0.605,0.07-1,0.07s-0.747-0.028-1.014-0.07v-3.943h-3.31v3.943
			c-0.268,0.042-0.578,0.07-1,0.07c-0.38,0-0.747-0.028-1.014-0.07v-9.521c0.268-0.042,0.662-0.07,1.014-0.07
			c0.395,0,0.747,0.028,1,0.07v3.858h3.31v-3.858c0.31-0.042,0.662-0.07,1.014-0.07c0.338,0,0.761,0.028,1,0.07V203.53z"/>
		<path style="fill:#1A2A4F;" d="M137.459,203.53c-0.183,0.042-0.62,0.07-1.084,0.07c-0.366,0-0.789-0.042-0.972-0.07l-0.704-1.93
			h-3.38l-0.662,1.93c-0.31,0.042-0.676,0.07-1.042,0.07s-0.789-0.028-1-0.07l3.324-9.521c0.197-0.042,0.662-0.07,0.972-0.07
			c0.38,0,0.831,0.028,0.986,0.07L137.459,203.53z M134.093,199.925l-0.831-2.69c-0.099-0.31-0.197-0.704-0.282-1.141h-0.028
			c-0.071,0.437-0.183,0.831-0.282,1.141l-0.789,2.69H134.093z"/>
		<path style="fill:#1A2A4F;" d="M145.457,203.517c-0.366,0.056-0.746,0.084-1.183,0.084c-0.395,0-0.789-0.014-1.057-0.07
			l-1.929-3.423h-0.831v3.423c-0.352,0.057-0.648,0.07-1.028,0.07c-0.338,0-0.634-0.014-0.986-0.07v-9.521
			c0.648-0.042,2-0.07,2.817-0.07c2.394,0,3.591,0.845,3.591,3.042c0,1.169-0.704,2.338-1.69,2.761L145.457,203.517z
			 M141.387,195.587c-0.31,0-0.69,0.014-0.93,0.028v2.816h0.704c1.155,0,1.662-0.422,1.662-1.465
			C142.824,195.925,142.316,195.587,141.387,195.587z"/>
		<path style="fill:#1A2A4F;" d="M156.244,203.53c-0.169,0.042-0.55,0.07-0.944,0.07c-0.422,0-0.816-0.042-0.985-0.07l-0.169-5.718
			l-2.085,4.816c-0.154,0.057-0.492,0.085-0.704,0.085c-0.253,0-0.563-0.028-0.718-0.071l-2.084-4.83l-0.183,5.718
			c-0.183,0.042-0.62,0.07-1,0.07c-0.226,0-0.605-0.028-0.859-0.07l0.409-9.521c0.268-0.028,0.535-0.07,0.817-0.07
			c0.338,0,0.662,0.028,0.831,0.07l2.788,6.464l2.803-6.464c0.282-0.042,0.563-0.07,0.817-0.07c0.323,0,0.619,0.028,0.831,0.07
			L156.244,203.53z"/>
		<path style="fill:#1A2A4F;" d="M165.975,203.53c-0.184,0.042-0.62,0.07-1.085,0.07c-0.366,0-0.788-0.042-0.972-0.07l-0.704-1.93
			h-3.38l-0.662,1.93c-0.31,0.042-0.676,0.07-1.042,0.07s-0.789-0.028-1-0.07l3.323-9.521c0.197-0.042,0.662-0.07,0.973-0.07
			c0.38,0,0.83,0.028,0.985,0.07L165.975,203.53z M162.608,199.925l-0.831-2.69c-0.099-0.31-0.197-0.704-0.281-1.141h-0.028
			c-0.07,0.437-0.184,0.831-0.282,1.141l-0.788,2.69H162.608z"/>
		<path style="fill:#1A2A4F;" d="M173.113,195.995c-0.676-0.211-1.521-0.366-2.197-0.366c-1.605,0-2.647,1.141-2.647,3.184
			c0,1.873,0.816,3.098,2.634,3.098c0.676,0,1.437-0.141,2.112-0.352c0.099,0.254,0.169,0.647,0.169,0.943
			c0,0.239-0.014,0.535-0.042,0.662c-0.704,0.324-1.605,0.507-2.437,0.507c-3.028,0-4.521-1.831-4.521-4.816
			c0-2.901,1.605-4.985,4.605-4.985c0.731,0,1.689,0.183,2.365,0.479c0.043,0.141,0.057,0.45,0.057,0.634
			C173.212,195.418,173.155,195.826,173.113,195.995z"/>
		<path style="fill:#1A2A4F;" d="M180.941,196.192l-2.154,4.155v3.183c-0.268,0.042-0.578,0.07-1,0.07
			c-0.381,0-0.747-0.028-1.015-0.07v-3.211l-2.056-4.014c-0.451-0.874-0.69-1.592-0.69-2.311c0.226-0.027,0.634-0.056,0.986-0.056
			c0.338,0,0.718,0.014,0.985,0.056c0,0.592,0.085,0.986,0.408,1.662l0.944,1.943c0.211,0.423,0.395,0.93,0.45,1.226h0.015
			c0.07-0.296,0.296-0.816,0.465-1.183l0.972-2.043c0.211-0.437,0.338-0.943,0.338-1.591c0.268-0.042,0.689-0.07,1.028-0.07
			c0.394,0,0.689,0.028,0.915,0.07C181.533,194.728,181.252,195.587,180.941,196.192z"/>
	</g>
	<g>
		<path style="fill:#1A2A4F;" d="M59.576,217.443H54.26c-0.112-0.262-0.149-0.585-0.149-0.871c0-0.15,0.013-0.337,0.037-0.461
			c0.872-0.885,1.806-1.881,2.627-2.802c0.61-0.685,1.096-1.319,1.096-2.017c0-0.61-0.423-0.959-1.17-0.959
			c-0.548,0-1.419,0.187-2.229,0.572c-0.05-0.211-0.1-0.585-0.1-0.884c0-0.149,0.024-0.448,0.074-0.647
			c0.61-0.262,1.594-0.498,2.553-0.498c1.419,0,2.665,0.66,2.665,2.191c0,1.345-0.722,2.254-2.266,3.872
			c-0.299,0.324-0.623,0.636-0.946,0.972h3.15c0.037,0.162,0.062,0.473,0.062,0.771C59.664,216.933,59.626,217.27,59.576,217.443z"
			/>
		<path style="fill:#1A2A4F;" d="M63.786,217.568c-1.992,0-2.964-1.47-2.964-4.334c0-2.889,1.009-4.332,3.001-4.332
			c1.979,0,2.951,1.443,2.951,4.332C66.774,216.099,65.766,217.568,63.786,217.568z M63.798,210.358
			c-0.797,0-1.146,0.735-1.146,2.876c0,2.104,0.349,2.877,1.146,2.877s1.146-0.772,1.146-2.877
			C64.944,211.094,64.595,210.358,63.798,210.358z"/>
		<path style="fill:#1A2A4F;" d="M72.204,217.443c-0.187,0.037-0.523,0.062-0.884,0.062c-0.349,0-0.66-0.025-0.884-0.062v-6.438
			l-1.768,1.171c-0.424-0.386-0.723-0.909-0.834-1.357l2.926-1.793c0.174-0.037,0.535-0.062,0.722-0.062
			c0.212,0,0.598,0.038,0.723,0.062V217.443z"/>
		<path style="fill:#1A2A4F;" d="M77.085,217.568c-0.672,0-1.668-0.138-2.353-0.374c-0.025-0.087-0.062-0.312-0.062-0.561
			c0-0.273,0.037-0.56,0.112-0.797c0.573,0.175,1.457,0.286,2.154,0.286c0.884,0,1.457-0.473,1.457-1.319
			c0-0.361-0.1-0.685-0.312-0.896c-0.273-0.274-0.734-0.386-1.407-0.386h-1.631v-4.495h4.707c0.037,0.199,0.062,0.511,0.062,0.734
			c0,0.237-0.038,0.647-0.062,0.797h-3.113v1.544h0.548c0.972,0,1.743,0.175,2.291,0.647c0.486,0.424,0.76,1.071,0.76,1.968
			C80.235,216.621,78.778,217.568,77.085,217.568z"/>
		<path style="fill:#1A2A4F;" d="M81.494,219.697c-0.199-0.137-0.461-0.398-0.536-0.686c0.523-0.373,0.909-0.821,1.083-1.282
			c-0.237-0.212-0.424-0.511-0.424-0.921c0-0.486,0.424-0.885,0.922-0.885c0.56,0,0.934,0.411,0.934,1.021
			C83.474,217.916,82.564,219.074,81.494,219.697z"/>
		<path style="fill:#1A2A4F;" d="M92.938,217.443h-5.317c-0.112-0.262-0.149-0.585-0.149-0.871c0-0.15,0.012-0.337,0.038-0.461
			c0.871-0.885,1.805-1.881,2.627-2.802c0.61-0.685,1.096-1.319,1.096-2.017c0-0.61-0.423-0.959-1.17-0.959
			c-0.548,0-1.419,0.187-2.229,0.572c-0.05-0.211-0.1-0.585-0.1-0.884c0-0.149,0.025-0.448,0.075-0.647
			c0.61-0.262,1.594-0.498,2.552-0.498c1.419,0,2.665,0.66,2.665,2.191c0,1.345-0.722,2.254-2.266,3.872
			c-0.299,0.324-0.623,0.636-0.946,0.972h3.15c0.038,0.162,0.062,0.473,0.062,0.771C93.024,216.933,92.987,217.27,92.938,217.443z"
			/>
		<path style="fill:#1A2A4F;" d="M97.146,217.568c-1.992,0-2.963-1.47-2.963-4.334c0-2.889,1.008-4.332,3-4.332
			c1.98,0,2.951,1.443,2.951,4.332C100.135,216.099,99.126,217.568,97.146,217.568z M97.159,210.358
			c-0.797,0-1.146,0.735-1.146,2.876c0,2.104,0.349,2.877,1.146,2.877s1.146-0.772,1.146-2.877
			C98.305,211.094,97.956,210.358,97.159,210.358z"/>
		<path style="fill:#1A2A4F;" d="M105.564,217.443c-0.187,0.037-0.522,0.062-0.884,0.062c-0.349,0-0.66-0.025-0.884-0.062v-6.438
			l-1.769,1.171c-0.423-0.386-0.722-0.909-0.834-1.357l2.926-1.793c0.175-0.037,0.536-0.062,0.723-0.062
			c0.211,0,0.598,0.038,0.722,0.062V217.443z"/>
		<path style="fill:#1A2A4F;" d="M110.944,217.568c-2.267,0-3.138-1.594-3.138-3.947c0-2.652,0.983-4.719,3.735-4.719
			c0.473,0,1.133,0.074,1.407,0.174c0.05,0.174,0.062,0.461,0.062,0.598c0,0.236-0.024,0.561-0.087,0.734
			c-0.324-0.05-0.797-0.087-1.158-0.087c-1.208,0-1.93,0.734-2.066,2.092c0.386-0.249,1.046-0.461,1.656-0.461
			c1.494,0,2.44,1.121,2.44,2.628C113.795,216.261,112.688,217.568,110.944,217.568z M110.957,213.334
			c-0.536,0-1.071,0.225-1.333,0.474c-0.012,0.124-0.012,0.286-0.012,0.474c0,0.771,0.274,1.867,1.283,1.867
			c0.697,0,1.058-0.66,1.058-1.481C111.953,213.857,111.629,213.334,110.957,213.334z"/>
		<path style="fill:#1A2A4F;" d="M114.854,219.697c-0.199-0.137-0.46-0.398-0.535-0.686c0.523-0.373,0.909-0.821,1.083-1.282
			c-0.236-0.212-0.423-0.511-0.423-0.921c0-0.486,0.423-0.885,0.921-0.885c0.561,0,0.934,0.411,0.934,1.021
			C116.834,217.916,115.926,219.074,114.854,219.697z"/>
		<path style="fill:#1A2A4F;" d="M126.298,217.443h-5.316c-0.112-0.262-0.149-0.585-0.149-0.871c0-0.15,0.013-0.337,0.037-0.461
			c0.872-0.885,1.806-1.881,2.627-2.802c0.61-0.685,1.096-1.319,1.096-2.017c0-0.61-0.423-0.959-1.17-0.959
			c-0.548,0-1.419,0.187-2.229,0.572c-0.05-0.211-0.1-0.585-0.1-0.884c0-0.149,0.024-0.448,0.074-0.647
			c0.61-0.262,1.594-0.498,2.553-0.498c1.419,0,2.665,0.66,2.665,2.191c0,1.345-0.722,2.254-2.266,3.872
			c-0.299,0.324-0.623,0.636-0.946,0.972h3.15c0.037,0.162,0.062,0.473,0.062,0.771C126.385,216.933,126.348,217.27,126.298,217.443
			z"/>
		<path style="fill:#1A2A4F;" d="M130.508,217.568c-1.992,0-2.964-1.47-2.964-4.334c0-2.889,1.009-4.332,3.001-4.332
			c1.979,0,2.951,1.443,2.951,4.332C133.496,216.099,132.487,217.568,130.508,217.568z M130.52,210.358
			c-0.797,0-1.146,0.735-1.146,2.876c0,2.104,0.349,2.877,1.146,2.877s1.146-0.772,1.146-2.877
			C131.666,211.094,131.317,210.358,130.52,210.358z"/>
		<path style="fill:#1A2A4F;" d="M138.926,217.443c-0.187,0.037-0.523,0.062-0.884,0.062c-0.349,0-0.66-0.025-0.884-0.062v-6.438
			l-1.768,1.171c-0.424-0.386-0.723-0.909-0.834-1.357l2.926-1.793c0.174-0.037,0.535-0.062,0.722-0.062
			c0.212,0,0.598,0.038,0.723,0.062V217.443z"/>
		<path style="fill:#1A2A4F;" d="M146.97,210.434l-3.312,7.01c-0.236,0.037-0.598,0.062-0.909,0.062s-0.785-0.025-0.996-0.062
			l3.375-6.886h-3.761c-0.024-0.174-0.062-0.485-0.062-0.771c0-0.262,0.025-0.573,0.075-0.76h5.653
			c0.038,0.162,0.075,0.423,0.075,0.685C147.106,209.96,147.057,210.246,146.97,210.434z"/>
	</g>
</g>
</svg>
