<svg id="Layer_1" data-name="Layer 1" xmlns="http://www.w3.org/2000/svg" viewBox="0 0 300 300"><defs><style>.cls-1{fill:#130f3d;}.cls-2{fill:#1d1737;}.cls-3,.cls-4{fill:none;stroke-linecap:round;stroke-linejoin:round;stroke-width:5px;}.cls-3{stroke:#00b3e1;}.cls-4{stroke:#130f3d;}.cls-5{fill:#00b3e1;}</style></defs><title>update_web_</title><path class="cls-1" d="M32,245.71a4.19,4.19,0,0,0-2.88-1.23,2.15,2.15,0,0,0-1.67.59,1.52,1.52,0,0,0-.44,1.08,1.19,1.19,0,0,0,.39.95,6.8,6.8,0,0,0,2.16,1l1.29.49a6.94,6.94,0,0,1,2.34,1.31,4.31,4.31,0,0,1,1.26,3.2A6.14,6.14,0,0,1,33,257.32a6.63,6.63,0,0,1-4.86,1.75,7.28,7.28,0,0,1-3.4-.72,10.36,10.36,0,0,1-2.52-1.88l2-2.83a11.18,11.18,0,0,0,1.6,1.32,4,4,0,0,0,2.16.61,2.75,2.75,0,0,0,1.81-.59,1.79,1.79,0,0,0,.61-1.39,1.49,1.49,0,0,0-.59-1.23,8.2,8.2,0,0,0-2-1l-1.41-.49a5.76,5.76,0,0,1-2.4-1.36,4.22,4.22,0,0,1-1-3,5.28,5.28,0,0,1,1.5-3.86,5.54,5.54,0,0,1,4.24-1.57,8.32,8.32,0,0,1,5.1,1.7Z"/><path class="cls-1" d="M43.37,244.86v13.83h-4V244.86H35.68v-3.34H47.11v3.34Z"/><path class="cls-1" d="M63.62,251.69a7.29,7.29,0,0,1-1.91,5.43,6.85,6.85,0,0,1-5.35,1.95A6.85,6.85,0,0,1,51,257.12a7.28,7.28,0,0,1-1.9-5.43V241.52h4v10.06a4.06,4.06,0,0,0,.9,2.89,3.64,3.64,0,0,0,4.79,0,4.06,4.06,0,0,0,.9-2.89V241.52h4Z"/><path class="cls-1" d="M72.85,241.52a9.05,9.05,0,0,1,6.78,2.37,9,9,0,0,1,.12,12.22A9.24,9.24,0,0,1,73,258.69H67.42V241.52Zm-1.46,13.82h1a6.22,6.22,0,0,0,3.92-1.16A5.38,5.38,0,0,0,78,250a5.08,5.08,0,0,0-1.42-3.71,5.65,5.65,0,0,0-4.17-1.47h-1Z"/><path class="cls-1" d="M94.74,244.86H89v3.32h5.45v3.35H89v3.81h5.74v3.35H85V241.52h9.71Z"/><path class="cls-1" d="M98.21,258.69V241.52h3.45L111,252.59V241.52h4v17.17h-3.45l-9.32-11.12v11.12Z"/><path class="cls-1" d="M124.66,244.86v13.83h-4V244.86H117v-3.34h11.43v3.34Z"/><path class="cls-1" d="M146.18,244.86h-5.74v3.32h5.46v3.35h-5.46v3.81h5.74v3.35h-9.7V241.52h9.7Z"/><path class="cls-1" d="M154.24,249.58l-5.33-8.06h4.76l2.83,4.89,2.83-4.89h4.77l-5.33,8.06,6.31,9.11h-4.77l-3.81-5.95-3.81,5.95h-4.76Z"/><path class="cls-1" d="M173.16,241.52a6.43,6.43,0,0,1,4.5,1.41,5.28,5.28,0,0,1,1.67,4.17,5.55,5.55,0,0,1-1.46,4.05,5.86,5.86,0,0,1-4.38,1.51h-2.42v6h-4V241.52Zm-2.09,7.9h1.42a3,3,0,0,0,2.13-.64,2.41,2.41,0,0,0,.65-1.7,2.25,2.25,0,0,0-.65-1.67,3.07,3.07,0,0,0-2.21-.65h-1.34Z"/><path class="cls-1" d="M191.37,244.86h-5.74v3.32h5.46v3.35h-5.46v3.81h5.74v3.35h-9.7V241.52h9.7Z"/><path class="cls-1" d="M200.87,241.52a6.14,6.14,0,0,1,4.37,1.49,5.19,5.19,0,0,1,1.49,3.84,4.71,4.71,0,0,1-1.33,3.5,5.53,5.53,0,0,1-2.4,1.31l5.28,7h-4.84l-4.63-6.77v6.77h-4V241.52Zm-2.06,7.8h.9a3.27,3.27,0,0,0,2.37-.75,2.31,2.31,0,0,0,.64-1.67,2.07,2.07,0,0,0-.8-1.75,3.86,3.86,0,0,0-2.19-.54h-.92Z"/><path class="cls-1" d="M214.34,241.52v17.17h-4V241.52Z"/><path class="cls-1" d="M227.89,244.86h-5.74v3.32h5.46v3.35h-5.46v3.81h5.74v3.35h-9.7V241.52h9.7Z"/><path class="cls-1" d="M231.36,258.69V241.52h3.45l9.32,11.07V241.52h4v17.17h-3.45l-9.31-11.12v11.12Z"/><path class="cls-1" d="M264.25,258.15a8,8,0,0,1-3.78.92,9.22,9.22,0,0,1-6.75-2.49,9.2,9.2,0,0,1,0-13,9.14,9.14,0,0,1,6.41-2.47,10.23,10.23,0,0,1,4.12,1v4.59a5.45,5.45,0,0,0-4-1.83,4.8,4.8,0,0,0-3.5,1.34,5.48,5.48,0,0,0-1.62,4,5,5,0,0,0,5.2,5.23,5.44,5.44,0,0,0,3.94-1.78Z"/><path class="cls-1" d="M277.38,244.86h-5.75v3.32h5.46v3.35h-5.46v3.81h5.75v3.35h-9.71V241.52h9.71Z"/><path class="cls-2" d="M33.52,287.63A17.51,17.51,0,0,1,32.3,284a19.33,19.33,0,0,1-.47-4.6,20.27,20.27,0,0,1,.5-4.77,15.53,15.53,0,0,1,1.19-3.52l1.63.63A18.35,18.35,0,0,0,34.06,275a21.82,21.82,0,0,0-.43,4.4,19.37,19.37,0,0,0,.42,4.25,20.86,20.86,0,0,0,1.1,3.36Z"/><path class="cls-2" d="M41.36,274.15v10.29H39.53V274.15H36.77v-1.73h7.35v1.73Z"/><path class="cls-2" d="M46.66,272.58a1.14,1.14,0,1,1-1.13,1.13A1.11,1.11,0,0,1,46.66,272.58Zm.88,4.27v7.59H45.78v-7.59Z"/><path class="cls-2" d="M50.14,276.85h1.77v.7a2.32,2.32,0,0,1,1.87-.9,2.25,2.25,0,0,1,2,1.12A2.68,2.68,0,0,1,58,276.65a2.42,2.42,0,0,1,2.16,1.19,3.76,3.76,0,0,1,.4,1.91v4.69H58.79v-4.18a3.67,3.67,0,0,0-.16-1.36,1,1,0,0,0-1-.66,1.31,1.31,0,0,0-1,.56,3.13,3.13,0,0,0-.34,1.73v3.91H54.47v-4.18a3.36,3.36,0,0,0-.17-1.36,1,1,0,0,0-1-.66,1.28,1.28,0,0,0-1,.56,3,3,0,0,0-.34,1.73v3.91H50.14Z"/><path class="cls-2" d="M70,282.71a3.88,3.88,0,0,1-1.28,1.38,4.12,4.12,0,0,1-2.23.58,3.36,3.36,0,0,1-2.56-1,4.08,4.08,0,0,1-1.12-2.9A4.42,4.42,0,0,1,64,277.68a3.46,3.46,0,0,1,2.54-1,3.27,3.27,0,0,1,2.43,1A4.58,4.58,0,0,1,70,280.85v.22H64.56a2.52,2.52,0,0,0,.65,1.53,1.81,1.81,0,0,0,1.35.48,1.86,1.86,0,0,0,1.21-.37,2.7,2.7,0,0,0,.7-.83Zm-1.75-3.08a1.81,1.81,0,0,0-.54-1,1.66,1.66,0,0,0-1.19-.43,1.71,1.71,0,0,0-1.24.48,2,2,0,0,0-.54,1Z"/><path class="cls-2" d="M75.52,278.85a1.26,1.26,0,0,0-1.08-.65.73.73,0,0,0-.54.2.56.56,0,0,0-.16.4.5.5,0,0,0,.25.43c.11.07.21.11.59.31l.9.45a3.42,3.42,0,0,1,1.07.7,1.87,1.87,0,0,1,.55,1.4,2.52,2.52,0,0,1-.66,1.73,2.73,2.73,0,0,1-2.13.85,2.59,2.59,0,0,1-1.64-.49,2.93,2.93,0,0,1-1-1.38l1.44-.69a2,2,0,0,0,.41.72,1.1,1.1,0,0,0,.78.29,1.07,1.07,0,0,0,.72-.25.93.93,0,0,0,.25-.6.82.82,0,0,0-.23-.57,2.37,2.37,0,0,0-.76-.47l-.65-.31a3.69,3.69,0,0,1-1-.65,1.63,1.63,0,0,1-.54-1.28,2.36,2.36,0,0,1,.63-1.62,2.44,2.44,0,0,1,1.85-.72,2.37,2.37,0,0,1,1.41.4,2.58,2.58,0,0,1,.86.94Z"/><path class="cls-2" d="M85.77,277.17h5.16v-4.75h1.84v12H90.93V278.9H85.77v5.54H83.94v-12h1.83Z"/><path class="cls-2" d="M96.57,272.58a1.14,1.14,0,1,1-1.13,1.13A1.11,1.11,0,0,1,96.57,272.58Zm.88,4.27v7.59H95.69v-7.59Z"/><path class="cls-2" d="M105.6,276.85h1.77v7c0,1.79-.2,3.07-1.25,3.95a3.82,3.82,0,0,1-2.52.81,3.33,3.33,0,0,1-2.49-.94,4.18,4.18,0,0,1-1.11-2.36h1.71a2.48,2.48,0,0,0,.56,1.19,1.75,1.75,0,0,0,1.36.53,1.87,1.87,0,0,0,1.39-.51,2.49,2.49,0,0,0,.58-1.91v-1a2.74,2.74,0,0,1-2.31,1.08,3.2,3.2,0,0,1-2.5-1,4.25,4.25,0,0,1-1.14-3,4,4,0,0,1,1.12-2.93,3.45,3.45,0,0,1,2.58-1.05,2.85,2.85,0,0,1,2.25,1Zm-3.37,1.89a2.66,2.66,0,0,0-.78,1.93,2.59,2.59,0,0,0,.76,1.91,2.06,2.06,0,0,0,1.35.5,1.92,1.92,0,0,0,1.48-.61,2.8,2.8,0,0,0-.05-3.69,1.9,1.9,0,0,0-1.43-.54A1.82,1.82,0,0,0,102.23,278.74Z"/><path class="cls-2" d="M110,271.3h1.77v6.2a2.71,2.71,0,0,1,2-.85,2.59,2.59,0,0,1,2.24,1,3.73,3.73,0,0,1,.49,2.11v4.65h-1.77V280a1.85,1.85,0,0,0-.34-1.32,1.35,1.35,0,0,0-1-.39,1.56,1.56,0,0,0-1.3.63,3.42,3.42,0,0,0-.36,1.91v3.66H110Z"/><path class="cls-2" d="M125.88,282.71a4.07,4.07,0,0,1-1.28,1.38,4.18,4.18,0,0,1-2.24.58,3.36,3.36,0,0,1-2.56-1,4.07,4.07,0,0,1-1.11-2.9,4.46,4.46,0,0,1,1.2-3.12,3.46,3.46,0,0,1,2.54-1,3.27,3.27,0,0,1,2.44,1,4.58,4.58,0,0,1,1.06,3.21v.22h-5.44a2.47,2.47,0,0,0,.65,1.53,1.81,1.81,0,0,0,1.35.48,1.86,1.86,0,0,0,1.21-.37,2.84,2.84,0,0,0,.7-.83Zm-1.75-3.08a1.81,1.81,0,0,0-.54-1,1.68,1.68,0,0,0-1.19-.43,1.71,1.71,0,0,0-1.24.48,2,2,0,0,0-.54,1Z"/><path class="cls-2" d="M128.13,276.85h1.77v.68a3,3,0,0,1,.74-.63,2.1,2.1,0,0,1,1.08-.25,2.57,2.57,0,0,1,1.38.36l-.72,1.61a1.52,1.52,0,0,0-.9-.27,1.38,1.38,0,0,0-1.1.41,2.46,2.46,0,0,0-.48,1.75v3.93h-1.77Z"/><path class="cls-2" d="M146,274.15H141.2v3h4.65v1.73H141.2v3.79H146v1.73h-6.63v-12H146Z"/><path class="cls-2" d="M154,271.3h1.76v13.14H154v-.8a2.93,2.93,0,0,1-2.27,1,3.76,3.76,0,0,1-3.68-4,3.71,3.71,0,0,1,3.69-4,2.8,2.8,0,0,1,2.26,1.08Zm-4.15,9.37a2.21,2.21,0,0,0,2.11,2.41,2.44,2.44,0,0,0,0-4.84A2.21,2.21,0,0,0,149.81,280.67Z"/><path class="cls-2" d="M160.09,276.85v4.34a2.15,2.15,0,0,0,.32,1.37,1.42,1.42,0,0,0,1.15.52,1.44,1.44,0,0,0,1.16-.52,2.21,2.21,0,0,0,.32-1.37v-4.34h1.77v4.4a3.17,3.17,0,0,1-.81,2.48,3.46,3.46,0,0,1-2.47.94,3.31,3.31,0,0,1-2.4-.94,3.17,3.17,0,0,1-.81-2.48v-4.4Z"/><path class="cls-2" d="M173.28,279.17a3,3,0,0,0-2.15-.93,2.26,2.26,0,0,0-1.67.66,2.43,2.43,0,0,0-.65,1.75,2.51,2.51,0,0,0,.68,1.82,2.31,2.31,0,0,0,1.61.61,2.93,2.93,0,0,0,2.18-1v2a4.17,4.17,0,0,1-2.31.59,3.68,3.68,0,0,1-2.88-1.12,3.92,3.92,0,0,1-1.08-2.84,4,4,0,0,1,1.15-2.94,4.52,4.52,0,0,1,5.12-.58Z"/><path class="cls-2" d="M180.88,276.85h1.77v7.59h-1.77v-.8a2.92,2.92,0,0,1-2.27,1,3.75,3.75,0,0,1-3.67-4,3.71,3.71,0,0,1,3.69-4,2.78,2.78,0,0,1,2.25,1.08Zm-4.14,3.82a2.21,2.21,0,0,0,2.11,2.41,2.44,2.44,0,0,0,0-4.84A2.21,2.21,0,0,0,176.74,280.67Z"/><path class="cls-2" d="M187.07,278.47v6H185.3v-6h-.74v-1.62h.74v-2.78h1.77v2.78h1.35v1.62Z"/><path class="cls-2" d="M190.85,272.58a1.14,1.14,0,1,1-1.13,1.13A1.11,1.11,0,0,1,190.85,272.58Zm.89,4.27v7.59H190v-7.59Z"/><path class="cls-2" d="M202,280.65a4.06,4.06,0,1,1-4-4A3.94,3.94,0,0,1,202,280.65Zm-1.8,0a2.26,2.26,0,1,0-2.25,2.41A2.19,2.19,0,0,0,200.24,280.67Z"/><path class="cls-2" d="M204.23,276.85H206v.7a2.64,2.64,0,0,1,2.06-.9,2.51,2.51,0,0,1,2.23,1,3.38,3.38,0,0,1,.47,2.11v4.65H209v-4.22c0-1.93-.72-2-1.38-2s-1.61.11-1.61,2.56v3.64h-1.76Z"/><path class="cls-2" d="M214,282.18l1.58.62-2.23,4.45-1.19-.49Z"/><path class="cls-2" d="M230.07,284.44H222l4.16-5.05c.41-.5,1-1.3,1.44-1.87a3,3,0,0,0,.63-1.73,1.88,1.88,0,0,0-2-2A2.14,2.14,0,0,0,224.1,276h-1.76a4.29,4.29,0,0,1,1-2.63,3.9,3.9,0,0,1,6.68,2.45,4.39,4.39,0,0,1-.86,2.52,24.28,24.28,0,0,1-1.71,2.17l-1.88,2.21h4.49Z"/><path class="cls-2" d="M234.38,283.34a8.64,8.64,0,0,1,0-9.82,3.5,3.5,0,0,1,5.44,0,8.64,8.64,0,0,1,0,9.82,3.51,3.51,0,0,1-5.44,0Zm1.1-8.51a8.2,8.2,0,0,0,0,7.19,1.82,1.82,0,0,0,3.24,0,8.2,8.2,0,0,0,0-7.19,1.82,1.82,0,0,0-3.24,0Z"/><path class="cls-2" d="M247.08,274.11H245l1-1.69h2.92v12h-1.84Z"/><path class="cls-2" d="M260.78,273l-2.86,3.63a3.3,3.3,0,0,1,.75-.08,3.76,3.76,0,0,1,2.78,1.12,4.13,4.13,0,0,1,1.06,2.81,4.29,4.29,0,0,1-1.19,3,4.33,4.33,0,0,1-3.1,1.13,4.06,4.06,0,0,1-3.1-1.17,3.8,3.8,0,0,1-1-2.72,4.7,4.7,0,0,1,.58-2.3,11.24,11.24,0,0,1,1.46-2.15l3.33-4.29Zm-4.2,5.79a2.53,2.53,0,0,0-.7,1.78,2.62,2.62,0,0,0,.7,1.79,2.76,2.76,0,0,0,1.73.66,2.5,2.5,0,0,0,1.7-.66,2.63,2.63,0,0,0,0-3.57,2.48,2.48,0,0,0-1.7-.67A2.62,2.62,0,0,0,256.58,278.78Z"/><path class="cls-2" d="M264.86,287a23,23,0,0,0,1.1-3.36,20.18,20.18,0,0,0,.41-4.25,21.12,21.12,0,0,0-.43-4.4,18.28,18.28,0,0,0-1.08-3.26l1.62-.63a15.53,15.53,0,0,1,1.19,3.52,20.27,20.27,0,0,1,.5,4.77,19.33,19.33,0,0,1-.47,4.6,16.94,16.94,0,0,1-1.22,3.64Z"/><polyline class="cls-3" points="174.71 115.43 174.71 152.12 153.1 132.47 131.46 152.12 131.46 109.95"/><path class="cls-4" d="M204.47,63.44c0,4.36-5.36,8-6.43,12s1.71,9.93-.4,13.57-8.57,4.14-11.56,7.14-3.45,9.42-7.14,11.56-9.41-.71-13.57.4-7.61,6.43-12,6.43-8-5.36-12-6.43-9.94,1.7-13.57-.4-4.15-8.57-7.14-11.56S111.3,92.67,109.16,89s.71-9.42-.4-13.57-6.43-7.61-6.43-12,5.36-8,6.43-12c1.11-4.16-1.69-9.94.41-13.59s8.56-4.13,11.56-7.12,3.45-9.43,7.14-11.57,9.42.7,13.57-.4,7.61-6.43,12-6.43,7.95,5.35,12,6.43,9.93-1.7,13.57.4,4.14,8.56,7.14,11.57,9.42,3.43,11.56,7.12-.71,9.43.4,13.59C199.11,55.48,204.47,59.09,204.47,63.44Z"/><path class="cls-3" d="M182,63.44A28.58,28.58,0,1,1,153.4,34.85,28.58,28.58,0,0,1,182,63.44Z"/><path class="cls-5" d="M130.58,170.43l.08,24h-8.47l.47-7.1a47.46,47.46,0,0,1,.82-6.67l-.32-.07-.18.69a31.55,31.55,0,0,1-2,5.87L118,194.47h-5.48l-.94-7.6c-.07-.44-.1-1.05-.17-1.81s-.11-1.62-.11-2.16v-.47a17.19,17.19,0,0,1,.07-1.8h-.29l-.07.54a50.39,50.39,0,0,1-1,5.7l-1.77,7.6H99.37l7-24h9.22l.94,7.5a20.75,20.75,0,0,1,.18,2.67,12.8,12.8,0,0,1-.22,2.63h.36a33.74,33.74,0,0,1,2.13-6.85l2.41-5.95Z"/><path class="cls-5" d="M160.72,182.25c0,7.28-5.66,12.83-13.15,12.83s-13.45-5.33-13.45-12.29a13,13,0,0,1,13.27-12.93,14.5,14.5,0,0,1,9.33,3.31A11.29,11.29,0,0,1,160.72,182.25Zm-8.79.15a4.37,4.37,0,0,0-4.26-4.58,4.91,4.91,0,0,0-4.75,5.05,4.34,4.34,0,0,0,4.25,4.65A4.82,4.82,0,0,0,151.93,182.4Z"/><path class="cls-5" d="M182.35,172.34l-3.21,6.38a7.92,7.92,0,0,0-5.26-2.16c-.94,0-1.66.54-1.66,1.26s.44,1,2.63,1.55a12.39,12.39,0,0,1,3.9,1.59,6.48,6.48,0,0,1,2.63,5.37c0,4.83-4.69,8.75-10.49,8.75a18.2,18.2,0,0,1-7.28-1.73c-.5-.25-1.26-.61-2.23-1.15l3.24-6.49a7.93,7.93,0,0,0,6,2.85c1.22,0,2-.54,2-1.4s-.69-1.34-2.27-1.7a11.16,11.16,0,0,1-3.43-1.08,6.12,6.12,0,0,1-3.46-5.91c0-4.79,4.4-8.61,9.88-8.61a17.94,17.94,0,0,1,7.46,1.69C181.2,171.73,181.7,172,182.35,172.34Z"/><path class="cls-5" d="M201.28,170.43l-.94,7.57-4.14-.25-2.06,16.72h-8.83l2.06-16.72-4.15.25.9-7.57Z"/><path class="cls-5" d="M66.06,203.91l-3,24H54.28l2.95-24Z"/><path class="cls-5" d="M97.46,203.91l.07,24H89.06l.47-7.11a46.08,46.08,0,0,1,.83-6.66l-.33-.07-.18.68a32.35,32.35,0,0,1-1.94,5.88L84.84,228H79.36l-.93-7.61c-.08-.43-.11-1-.18-1.8s-.11-1.62-.11-2.16v-.47a17,17,0,0,1,.07-1.8h-.29l-.07.54a50.63,50.63,0,0,1-1,5.69L75.08,228H66.25l7-24h9.22l.94,7.49a20.87,20.87,0,0,1,.18,2.67,12.74,12.74,0,0,1-.22,2.63h.36a34.12,34.12,0,0,1,2.13-6.85l2.42-5.94Z"/><path class="cls-5" d="M110.29,220.63l-.9,7.32h-8.72l3-24h10c3.27,0,5.26.54,6.92,1.83a8.11,8.11,0,0,1,3,6.38,8.82,8.82,0,0,1-2.52,6.13c-1.77,1.69-3.89,2.38-7.46,2.38Zm1.26-10.45-.54,4.47h.8c2.2,0,3.31-.87,3.31-2.56,0-1.41-.68-1.91-2.66-1.91Z"/><path class="cls-5" d="M140.82,218.54l5.23,9.41h-9.44l-2.16-5.81a24.18,24.18,0,0,1-.94-3.21l-.25,0c0,.79,0,1.12,0,1.77a28,28,0,0,1-.18,3.17l-.47,4h-8.72l3-24h9.55c3.93,0,5.76.5,7.57,1.94a7.91,7.91,0,0,1,2.81,6,6.81,6.81,0,0,1-2.42,5.3A5.93,5.93,0,0,1,140.82,218.54Zm-6-8.18-.55,4.32H135c2,0,3.28-.93,3.28-2.38s-.87-1.94-2.78-1.94Z"/><path class="cls-5" d="M175.39,215.73c0,7.28-5.66,12.83-13.15,12.83s-13.45-5.34-13.45-12.29a13,13,0,0,1,13.27-12.94,14.56,14.56,0,0,1,9.33,3.31A11.31,11.31,0,0,1,175.39,215.73Zm-8.79.14a4.37,4.37,0,0,0-4.25-4.58,4.91,4.91,0,0,0-4.76,5.05,4.34,4.34,0,0,0,4.25,4.65A4.82,4.82,0,0,0,166.6,215.87Z"/><path class="cls-5" d="M202.43,203.91l-12,24h-7.57l-5.4-24h9.12l.93,7.56a26.94,26.94,0,0,1,.22,3.57c0,1.05,0,1.8-.15,3.21l.37,0a27.54,27.54,0,0,1,1.87-7.61l2.77-6.77Z"/><path class="cls-5" d="M219.91,203.91l-.75,6.27h-7.1l-.33,2.63h6.49l-.72,5.94H211l-.32,2.74H218l-.79,6.46H201.17l3-24Z"/><path class="cls-5" d="M223.2,203.91h8.14c8.47,0,13.52,4.36,13.52,11.64a11.93,11.93,0,0,1-4.4,9.48c-2.67,2.12-5.55,2.92-10.6,2.92h-9.62ZM231,211l-1.19,9.84h1.22a5.3,5.3,0,0,0,5.19-5.48A4.13,4.13,0,0,0,232.1,211Z"/></svg>