<?xml version="1.0" encoding="utf-8"?>
<!-- Generator: Adobe Illustrator 16.0.0, SVG Export Plug-In . SVG Version: 6.00 Build 0)  -->
<!DOCTYPE svg PUBLIC "-//W3C//DTD SVG 1.0//EN" "http://www.w3.org/TR/2001/REC-SVG-20010904/DTD/svg10.dtd">
<svg version="1.0" xmlns="http://www.w3.org/2000/svg" xmlns:xlink="http://www.w3.org/1999/xlink" x="0px" y="0px" width="300px"
	 height="300px" viewBox="0 0 300 300" style="enable-background:new 0 0 300 300;" xml:space="preserve">
<g id="Wreath_and_Border">
	<path style="fill:#1A2A4F;" d="M235.816,119.5c0,0,8.759,1.034,15.267-5.663c6.5-6.721,4.463-16.102,4.463-16.102
		s-8.346,0-15.009,6.889C233.873,111.513,235.816,119.5,235.816,119.5"/>
	<path style="fill:#1A2A4F;" d="M212.05,104.491c1.39,9.249,9.114,13.487,9.114,13.487s6.21-5.366,4.817-14.845
		c-1.423-9.471-8.21-14.355-8.21-14.355S210.659,95.244,212.05,104.491"/>
	<path style="fill:#1A2A4F;" d="M202.09,126.611c0.157,9.347,7.303,14.587,7.303,14.587s6.861-4.528,6.696-14.099
		c-0.164-9.603-6.24-15.297-6.24-15.297S201.957,117.265,202.09,126.611"/>
	<path style="fill:#1A2A4F;" d="M185.949,139.353c-0.714,9.314,5.885,15.198,5.885,15.198s7.275-3.849,8.022-13.417
		c0.744-9.538-4.784-15.812-4.784-15.812S186.692,130.041,185.949,139.353"/>
	<path style="fill:#1A2A4F;" d="M168.587,149.8c-3.369,8.735,1.259,16.234,1.259,16.234s8.054-1.556,11.516-10.513
		c3.461-8.926-0.034-16.523-0.034-16.523S171.948,141.098,168.587,149.8"/>
	<path style="fill:#1A2A4F;" d="M242.217,85.865c1.679-9.214-5.206-15.878-5.206-15.878s-6.956,4.628-8.668,14.065
		c-1.714,9.414,4.338,14.975,4.338,14.975S240.538,95.055,242.217,85.865"/>
	<path style="fill:#1A2A4F;" d="M236.62,124.74c-8.401,4.62-8.927,12.799-8.927,12.799s8.09,3.594,16.269-0.901
		c8.179-4.496,9.026-14.065,9.026-14.065S244.998,120.112,236.62,124.74"/>
	<path style="fill:#1A2A4F;" d="M225.014,142.912c-9.213,2.616-11.514,10.507-11.514,10.507s7.085,5.306,16.075,2.722
		c8.958-2.557,11.896-11.713,11.896-11.713S234.263,140.263,225.014,142.912"/>
	<path style="fill:#1A2A4F;" d="M211.817,158.178c-9.57-0.3-14.163,6.532-14.163,6.532s5.149,7.179,14.485,7.434
		c9.348,0.289,14.911-7.533,14.911-7.533S221.43,158.434,211.817,158.178"/>
	<path style="fill:#1A2A4F;" d="M190.898,169.295c-9.471-1.424-14.876,4.786-14.876,4.786s4.238,7.766,13.483,9.154
		c9.25,1.393,15.713-5.72,15.713-5.72S200.377,170.719,190.898,169.295"/>
	<path style="fill:#1A2A4F;" d="M234.103,103.556l-4.562,0.157c0.067,1.88,0.581,46.566-70.689,67.496l1.293,4.362
		C235.006,153.617,234.103,104.044,234.103,103.556"/>
	<path style="fill:#1A2A4F;" d="M65.396,119.5c0,0-8.76,1.034-15.266-5.663c-6.498-6.721-4.462-16.102-4.462-16.102
		s8.344,0,15.009,6.889C67.34,111.513,65.396,119.5,65.396,119.5"/>
	<path style="fill:#1A2A4F;" d="M89.163,104.491c-1.391,9.249-9.114,13.487-9.114,13.487s-6.208-5.366-4.817-14.845
		c1.424-9.471,8.211-14.355,8.211-14.355S90.555,95.244,89.163,104.491"/>
	<path style="fill:#1A2A4F;" d="M99.123,126.611c-0.158,9.347-7.301,14.587-7.301,14.587s-6.863-4.528-6.698-14.099
		c0.166-9.603,6.242-15.297,6.242-15.297S99.256,117.265,99.123,126.611"/>
	<path style="fill:#1A2A4F;" d="M115.266,139.353c0.711,9.314-5.887,15.198-5.887,15.198s-7.275-3.849-8.022-13.417
		c-0.744-9.538,4.785-15.812,4.785-15.812S114.521,130.041,115.266,139.353"/>
	<path style="fill:#1A2A4F;" d="M132.626,149.8c3.37,8.735-1.259,16.234-1.259,16.234s-8.054-1.556-11.514-10.513
		c-3.461-8.926,0.032-16.523,0.032-16.523S129.264,141.098,132.626,149.8"/>
	<path style="fill:#1A2A4F;" d="M58.996,85.865c-1.68-9.214,5.208-15.878,5.208-15.878s6.954,4.628,8.667,14.065
		c1.714,9.414-4.338,14.975-4.338,14.975S60.677,95.055,58.996,85.865"/>
	<path style="fill:#1A2A4F;" d="M64.593,124.74c8.402,4.62,8.925,12.799,8.925,12.799s-8.089,3.594-16.269-0.901
		c-8.178-4.496-9.023-14.065-9.023-14.065S56.215,120.112,64.593,124.74"/>
	<path style="fill:#1A2A4F;" d="M76.2,142.912c9.213,2.616,11.514,10.507,11.514,10.507s-7.086,5.306-16.076,2.722
		c-8.957-2.557-11.896-11.713-11.896-11.713S66.952,140.263,76.2,142.912"/>
	<path style="fill:#1A2A4F;" d="M89.395,158.178c9.57-0.3,14.165,6.532,14.165,6.532s-5.149,7.179-14.488,7.434
		c-9.347,0.289-14.91-7.533-14.91-7.533S79.784,158.434,89.395,158.178"/>
	<path style="fill:#1A2A4F;" d="M110.315,169.295c9.472-1.424,14.876,4.786,14.876,4.786s-4.239,7.766-13.484,9.154
		c-9.249,1.393-15.713-5.72-15.713-5.72S100.837,170.719,110.315,169.295"/>
	<path style="fill:#1A2A4F;" d="M67.109,103.556l4.562,0.157c-0.066,1.88-0.58,46.566,70.69,67.496l-1.292,4.362
		C66.207,153.617,67.109,104.044,67.109,103.556"/>
	<rect x="47.178" y="191.891" style="fill:#1A2A4F;" width="206.857" height="4.774"/>
	<path style="fill:none;stroke:#1A2A4F;stroke-width:2.548;stroke-dasharray:7.525,4.978;" d="M165.498,285.114
		c64.543-7.035,115.505-59.276,120.56-124.394"/>
	<path style="fill:none;stroke:#1A2A4F;stroke-width:2.548;stroke-dasharray:7.525,4.978;" d="M285.664,135.167
		c-7.037-64.542-59.277-115.504-124.396-120.559"/>
	<path style="fill:none;stroke:#1A2A4F;stroke-width:2.548;stroke-dasharray:7.525,4.978;" d="M135.715,15.002
		C71.172,22.039,20.21,74.279,15.156,139.398"/>
	<path style="fill:none;stroke:#1A2A4F;stroke-width:2.548;stroke-dasharray:7.525,4.978;" d="M15.549,164.95
		c7.038,64.542,59.278,115.505,124.396,120.56"/>
	<path style="fill:none;stroke:#1A2A4F;stroke-width:2.548;stroke-dasharray:7.525,4.978;" d="M144.185,285.773
		c2.129,0.098,4.27,0.148,6.423,0.148c2.151,0,4.292-0.051,6.419-0.148 M14.892,143.638c-0.1,2.128-0.149,4.27-0.149,6.421
		s0.05,4.295,0.149,6.42 M157.027,14.344c-2.127-0.099-4.269-0.149-6.419-0.149c-2.153,0-4.294,0.05-6.423,0.149 M286.321,156.479
		c0.101-2.125,0.149-4.269,0.149-6.42s-0.049-4.293-0.149-6.421"/>
</g>
<g id="Text" style="display:none;">
	<text transform="matrix(1 0 0 1 57.2725 215.2285)" style="display:inline;"><tspan x="0" y="0" style="fill:#1A2A4F; font-family:'FSMatthew-Bold'; font-size:16.6021;">N</tspan><tspan x="12.152" y="0" style="fill:#1A2A4F; font-family:'FSMatthew-Bold'; font-size:16.6021;">U</tspan><tspan x="23.542" y="0" style="fill:#1A2A4F; font-family:'FSMatthew-Bold'; font-size:16.6021;">M</tspan><tspan x="37.936" y="0" style="fill:#1A2A4F; font-family:'FSMatthew-Bold'; font-size:16.6021;">BE</tspan><tspan x="58.007" y="0" style="fill:#1A2A4F; font-family:'FSMatthew-Bold'; font-size:16.6021;">R ONE IN</tspan><tspan x="128.516" y="0" style="fill:#1A2A4F; font-family:'FSMatthew-Bold'; font-size:16.6021;"> </tspan><tspan x="132.102" y="0" style="fill:#1A2A4F; font-family:'FSMatthew-Bold'; font-size:16.6021;">THE U</tspan><tspan x="179.301" y="0" style="fill:#1A2A4F; font-family:'FSMatthew-Bold'; font-size:16.6021;">K </tspan></text>
	<text transform="matrix(1 0 0 1 55.3711 232.2559)" style="display:inline;"><tspan x="0" y="0" style="fill:#1A2A4F; font-family:'FSMatthew-Bold'; font-size:16.6021;">F</tspan><tspan x="7.936" y="0" style="fill:#1A2A4F; font-family:'FSMatthew-Bold'; font-size:16.6021;">OR OU</tspan><tspan x="52.661" y="0" style="fill:#1A2A4F; font-family:'FSMatthew-Bold'; font-size:16.6021;">T</tspan><tspan x="61.211" y="0" style="fill:#1A2A4F; font-family:'FSMatthew-Bold'; font-size:16.6021;">S</tspan><tspan x="69.413" y="0" style="fill:#1A2A4F; font-family:'FSMatthew-Bold'; font-size:16.6021; letter-spacing:-1;">T</tspan><tspan x="77.033" y="0" style="fill:#1A2A4F; font-family:'FSMatthew-Bold'; font-size:16.6021;">ANDIN</tspan><tspan x="125.212" y="0" style="fill:#1A2A4F; font-family:'FSMatthew-Bold'; font-size:16.6021;">G</tspan><tspan x="135.571" y="0" style="fill:#1A2A4F; font-family:'FSMatthew-Bold'; font-size:16.6021;"> </tspan><tspan x="138.991" y="0" style="fill:#1A2A4F; font-family:'FSMatthew-Bold'; font-size:16.6021;">I</tspan><tspan x="143.59" y="0" style="fill:#1A2A4F; font-family:'FSMatthew-Bold'; font-size:16.6021;">M</tspan><tspan x="157.004" y="0" style="fill:#1A2A4F; font-family:'FSMatthew-Bold'; font-size:16.6021; letter-spacing:-1;">P</tspan><tspan x="165.371" y="0" style="fill:#1A2A4F; font-family:'FSMatthew-Bold'; font-size:16.6021;">A</tspan><tspan x="175.549" y="0" style="fill:#1A2A4F; font-family:'FSMatthew-Bold'; font-size:16.6021;">C</tspan><tspan x="185.311" y="0" style="fill:#1A2A4F; font-family:'FSMatthew-Bold'; font-size:16.6021;">T</tspan><tspan x="193.562" y="0" style="fill:#1A2A4F; font-family:'FSMatthew-Bold'; font-size:16.6021;"> </tspan></text>
	<text transform="matrix(1 0 0 1 86.2021 249.2832)" style="display:inline;"><tspan x="0" y="0" style="fill:#1A2A4F; font-family:'FSMatthew-Bold'; font-size:16.6021;">IN </tspan><tspan x="19.208" y="0" style="fill:#1A2A4F; font-family:'FSMatthew-Bold'; font-size:16.6021;">L</tspan><tspan x="28.007" y="0" style="fill:#1A2A4F; font-family:'FSMatthew-Bold'; font-size:16.6021; letter-spacing:-1;">A</tspan><tspan x="37.62" y="0" style="fill:#1A2A4F; font-family:'FSMatthew-Bold'; font-size:16.6021;">W R</tspan><tspan x="65.096" y="0" style="fill:#1A2A4F; font-family:'FSMatthew-Bold'; font-size:16.6021;">E</tspan><tspan x="73.778" y="0" style="fill:#1A2A4F; font-family:'FSMatthew-Bold'; font-size:16.6021;">S</tspan><tspan x="82.428" y="0" style="fill:#1A2A4F; font-family:'FSMatthew-Bold'; font-size:16.6021;">E</tspan><tspan x="91.377" y="0" style="fill:#1A2A4F; font-family:'FSMatthew-Bold'; font-size:16.6021;">A</tspan><tspan x="101.952" y="0" style="fill:#1A2A4F; font-family:'FSMatthew-Bold'; font-size:16.6021;">R</tspan><tspan x="111.382" y="0" style="fill:#1A2A4F; font-family:'FSMatthew-Bold'; font-size:16.6021;">C</tspan><tspan x="120.695" y="0" style="fill:#1A2A4F; font-family:'FSMatthew-Bold'; font-size:16.6021;">H</tspan></text>
	<path style="display:inline;fill:#B4A168;" d="M167.23,125.933V52.751h-17.236c-0.133,3.012-0.845,5.563-2.17,7.6
		c-1.291,2.069-2.946,3.717-4.983,4.95c-2.037,1.225-4.297,2.102-6.854,2.65c-2.516,0.521-5.108,0.744-7.758,0.677v15.134h17.137
		v42.17H167.23z"/>
</g>
<g id="Text_Flat">
	<g>
		<path style="fill:#1A2A4F;" d="M67.516,215.229c-0.166,0.033-0.564,0.066-0.847,0.066s-0.564-0.017-0.83-0.066l-5.163-7.188v7.188
			c-0.133,0.033-0.631,0.083-1.096,0.083c-0.382,0-0.83-0.05-1.062-0.083v-11.223c0.266-0.05,0.581-0.066,0.88-0.066
			c0.315,0,0.647,0.033,0.896,0.066l5.063,7.056v-7.056c0.332-0.05,0.764-0.083,1.079-0.083s0.78,0.033,1.079,0.083V215.229z"/>
		<path style="fill:#1A2A4F;" d="M79.137,210.962c0,2.855-1.096,4.433-4.283,4.433c-3.221,0-4.233-1.577-4.233-4.433v-6.956
			c0.332-0.05,0.764-0.083,1.162-0.083c0.465,0,0.88,0.033,1.212,0.083v7.122c0,1.527,0.432,2.391,1.876,2.391
			s1.942-0.863,1.942-2.391v-7.122c0.299-0.05,0.797-0.083,1.179-0.083c0.365,0,0.863,0.033,1.146,0.083V210.962z"/>
		<path style="fill:#1A2A4F;" d="M93.415,215.229c-0.199,0.05-0.647,0.083-1.112,0.083c-0.498,0-0.963-0.05-1.162-0.083l-0.199-6.74
			l-2.457,5.678c-0.183,0.066-0.581,0.1-0.83,0.1c-0.299,0-0.664-0.033-0.847-0.083l-2.457-5.694l-0.216,6.74
			c-0.216,0.05-0.73,0.083-1.179,0.083c-0.266,0-0.714-0.033-1.013-0.083l0.481-11.223c0.315-0.033,0.631-0.083,0.963-0.083
			c0.398,0,0.78,0.033,0.979,0.083l3.287,7.62l3.304-7.62c0.332-0.05,0.664-0.083,0.963-0.083c0.382,0,0.73,0.033,0.979,0.083
			L93.415,215.229z"/>
		<path style="fill:#1A2A4F;" d="M99.956,215.312c-1.179,0-2.324-0.033-3.503-0.1v-11.189c0.963-0.066,2.241-0.1,3.104-0.1
			c2.557,0,4.117,0.78,4.117,2.889c0,1.062-0.448,1.859-1.494,2.324c1.395,0.332,2.291,1.345,2.291,2.706
			C104.472,214.432,102.596,215.312,99.956,215.312z M99.724,205.882c-0.299,0-0.631,0.017-0.896,0.033v2.523h0.93
			c1.079,0,1.594-0.349,1.594-1.361C101.351,206.031,100.537,205.882,99.724,205.882z M99.989,210.298h-1.162v3.021
			c0.315,0.017,0.78,0.033,1.096,0.033c1.478,0,2.191-0.415,2.191-1.527C102.114,210.68,101.5,210.298,99.989,210.298z"/>
		<path style="fill:#1A2A4F;" d="M113.885,215.229h-7.022v-11.223h6.873c0.066,0.183,0.116,0.531,0.116,0.996
			c0,0.365-0.033,0.681-0.116,1.029h-4.499v2.424h3.802c0.066,0.183,0.116,0.515,0.116,0.979c0,0.365-0.033,0.664-0.116,1.013
			h-3.802v2.756h4.648c0.066,0.183,0.116,0.531,0.116,0.996C114.001,214.564,113.968,214.88,113.885,215.229z"/>
		<path style="fill:#1A2A4F;" d="M124.792,215.212c-0.432,0.066-0.88,0.1-1.395,0.1c-0.465,0-0.93-0.017-1.245-0.083l-2.274-4.034
			h-0.979v4.034c-0.415,0.066-0.764,0.083-1.212,0.083c-0.398,0-0.747-0.017-1.162-0.083v-11.223c0.764-0.05,2.357-0.083,3.32-0.083
			c2.822,0,4.233,0.996,4.233,3.586c0,1.378-0.83,2.756-1.992,3.254L124.792,215.212z M119.995,205.865
			c-0.365,0-0.813,0.017-1.096,0.033v3.32h0.83c1.361,0,1.959-0.498,1.959-1.727S121.09,205.865,119.995,205.865z"/>
		<path style="fill:#1A2A4F;" d="M135.717,215.395c-3.071,0-4.698-2.125-4.698-5.777s1.627-5.777,4.698-5.777
			s4.698,2.125,4.698,5.777S138.788,215.395,135.717,215.395z M135.717,205.882c-1.428,0-2.241,1.096-2.241,3.735
			s0.813,3.735,2.241,3.735s2.241-1.096,2.241-3.735S137.145,205.882,135.717,205.882z"/>
		<path style="fill:#1A2A4F;" d="M152.053,215.229c-0.166,0.033-0.564,0.066-0.847,0.066s-0.564-0.017-0.83-0.066l-5.163-7.188
			v7.188c-0.133,0.033-0.631,0.083-1.096,0.083c-0.382,0-0.83-0.05-1.062-0.083v-11.223c0.266-0.05,0.581-0.066,0.88-0.066
			c0.315,0,0.647,0.033,0.896,0.066l5.063,7.056v-7.056c0.332-0.05,0.764-0.083,1.079-0.083s0.78,0.033,1.079,0.083V215.229z"/>
		<path style="fill:#1A2A4F;" d="M162.229,215.229h-7.022v-11.223h6.873c0.066,0.183,0.116,0.531,0.116,0.996
			c0,0.365-0.033,0.681-0.116,1.029h-4.499v2.424h3.802c0.066,0.183,0.116,0.515,0.116,0.979c0,0.365-0.033,0.664-0.116,1.013
			h-3.802v2.756h4.648c0.066,0.183,0.116,0.531,0.116,0.996C162.346,214.564,162.312,214.88,162.229,215.229z"/>
		<path style="fill:#1A2A4F;" d="M171.693,215.229c-0.315,0.05-0.697,0.083-1.195,0.083c-0.448,0-0.863-0.033-1.179-0.083v-11.223
			c0.315-0.05,0.78-0.083,1.195-0.083c0.465,0,0.88,0.033,1.179,0.083V215.229z"/>
		<path style="fill:#1A2A4F;" d="M183.879,215.229c-0.166,0.033-0.564,0.066-0.847,0.066s-0.564-0.017-0.83-0.066l-5.163-7.188
			v7.188c-0.133,0.033-0.631,0.083-1.096,0.083c-0.382,0-0.83-0.05-1.062-0.083v-11.223c0.266-0.05,0.581-0.066,0.88-0.066
			c0.315,0,0.647,0.033,0.896,0.066l5.063,7.056v-7.056c0.332-0.05,0.764-0.083,1.079-0.083s0.78,0.033,1.079,0.083V215.229z"/>
		<path style="fill:#1A2A4F;" d="M198.073,206.031h-2.972v9.197c-0.315,0.05-0.764,0.083-1.179,0.083s-0.863-0.033-1.195-0.083
			v-9.197h-2.972c-0.066-0.216-0.116-0.73-0.116-1.013s0.066-0.797,0.133-1.013h8.301c0.066,0.216,0.116,0.73,0.116,1.013
			S198.14,205.815,198.073,206.031z"/>
		<path style="fill:#1A2A4F;" d="M209.014,215.229c-0.299,0.05-0.714,0.083-1.179,0.083s-0.88-0.033-1.195-0.083v-4.648h-3.901
			v4.648c-0.315,0.05-0.681,0.083-1.179,0.083c-0.448,0-0.88-0.033-1.195-0.083v-11.223c0.315-0.05,0.78-0.083,1.195-0.083
			c0.465,0,0.88,0.033,1.179,0.083v4.549h3.901v-4.549c0.365-0.05,0.78-0.083,1.195-0.083c0.398,0,0.896,0.033,1.179,0.083V215.229z
			"/>
		<path style="fill:#1A2A4F;" d="M219.19,215.229h-7.022v-11.223h6.873c0.066,0.183,0.116,0.531,0.116,0.996
			c0,0.365-0.033,0.681-0.116,1.029h-4.499v2.424h3.802c0.066,0.183,0.116,0.515,0.116,0.979c0,0.365-0.033,0.664-0.116,1.013
			h-3.802v2.756h4.648c0.066,0.183,0.116,0.531,0.116,0.996C219.307,214.564,219.273,214.88,219.19,215.229z"/>
		<path style="fill:#1A2A4F;" d="M234.714,210.962c0,2.855-1.096,4.433-4.283,4.433c-3.221,0-4.233-1.577-4.233-4.433v-6.956
			c0.332-0.05,0.764-0.083,1.162-0.083c0.465,0,0.88,0.033,1.212,0.083v7.122c0,1.527,0.432,2.391,1.876,2.391
			s1.942-0.863,1.942-2.391v-7.122c0.299-0.05,0.797-0.083,1.179-0.083c0.365,0,0.863,0.033,1.146,0.083V210.962z"/>
		<path style="fill:#1A2A4F;" d="M246.634,215.229c-0.299,0.05-0.83,0.083-1.411,0.083c-0.415,0-1.013-0.033-1.361-0.083
			l-2.905-4.499l-0.764,0.913v3.586c-0.315,0.05-0.697,0.083-1.195,0.083c-0.448,0-0.863-0.033-1.179-0.083v-11.223
			c0.315-0.05,0.78-0.083,1.195-0.083c0.465,0,0.88,0.033,1.179,0.083v4.831l1.926-2.258c0.847-0.996,1.312-1.71,1.494-2.573
			c0.332-0.05,0.797-0.083,1.162-0.083c0.299,0,0.813,0.033,1.162,0.083c-0.249,1.312-0.946,2.457-1.942,3.603l-1.328,1.527
			L246.634,215.229z"/>
	</g>
	<g>
		<path style="fill:#1A2A4F;" d="M63.406,223.059H58.99v2.424h3.719c0.066,0.183,0.116,0.515,0.116,0.979
			c0,0.365-0.033,0.664-0.116,1.013H58.99v4.781c-0.315,0.05-0.681,0.083-1.179,0.083c-0.448,0-0.88-0.033-1.195-0.083v-11.223h6.79
			c0.066,0.183,0.116,0.531,0.116,0.996C63.522,222.395,63.489,222.71,63.406,223.059z"/>
		<path style="fill:#1A2A4F;" d="M68.735,232.422c-3.071,0-4.698-2.125-4.698-5.777s1.627-5.777,4.698-5.777
			s4.698,2.125,4.698,5.777S71.807,232.422,68.735,232.422z M68.735,222.909c-1.428,0-2.241,1.096-2.241,3.735
			s0.813,3.735,2.241,3.735s2.241-1.096,2.241-3.735S70.163,222.909,68.735,222.909z"/>
		<path style="fill:#1A2A4F;" d="M83.362,232.239c-0.432,0.066-0.88,0.1-1.395,0.1c-0.465,0-0.93-0.017-1.245-0.083l-2.274-4.034
			h-0.979v4.034c-0.415,0.066-0.764,0.083-1.212,0.083c-0.398,0-0.747-0.017-1.162-0.083v-11.223c0.764-0.05,2.357-0.083,3.32-0.083
			c2.822,0,4.233,0.996,4.233,3.586c0,1.378-0.83,2.756-1.992,3.254L83.362,232.239z M78.564,222.893
			c-0.365,0-0.813,0.017-1.096,0.033v3.32h0.83c1.361,0,1.959-0.498,1.959-1.727S79.66,222.893,78.564,222.893z"/>
		<path style="fill:#1A2A4F;" d="M92.327,232.422c-3.071,0-4.698-2.125-4.698-5.777s1.627-5.777,4.698-5.777
			s4.698,2.125,4.698,5.777S95.398,232.422,92.327,232.422z M92.327,222.909c-1.428,0-2.241,1.096-2.241,3.735
			s0.813,3.735,2.241,3.735s2.241-1.096,2.241-3.735S93.754,222.909,92.327,222.909z"/>
		<path style="fill:#1A2A4F;" d="M107.152,227.989c0,2.855-1.096,4.433-4.283,4.433c-3.221,0-4.233-1.577-4.233-4.433v-6.956
			c0.332-0.05,0.764-0.083,1.162-0.083c0.465,0,0.88,0.033,1.212,0.083v7.122c0,1.527,0.432,2.391,1.876,2.391
			s1.942-0.863,1.942-2.391v-7.122c0.299-0.05,0.797-0.083,1.179-0.083c0.365,0,0.863,0.033,1.146,0.083V227.989z"/>
		<path style="fill:#1A2A4F;" d="M116.731,223.059h-2.972v9.197c-0.315,0.05-0.764,0.083-1.179,0.083s-0.863-0.033-1.195-0.083
			v-9.197h-2.972c-0.066-0.216-0.116-0.73-0.116-1.013s0.066-0.797,0.133-1.013h8.301c0.066,0.216,0.116,0.73,0.116,1.013
			S116.798,222.843,116.731,223.059z"/>
		<path style="fill:#1A2A4F;" d="M120.882,232.422c-1.212,0-2.54-0.232-3.486-0.664c-0.05-0.232-0.083-0.531-0.083-0.797
			c0-0.398,0.05-0.78,0.166-1.229c0.979,0.398,2.274,0.647,3.287,0.647c1.179,0,1.81-0.548,1.81-1.295
			c0-0.83-0.531-1.179-2.142-1.677c-1.793-0.548-3.104-1.411-3.104-3.337c0-2.059,1.776-3.204,4.117-3.204
			c1.079,0,2.042,0.166,2.689,0.382c0.05,0.183,0.083,0.481,0.083,0.913c0,0.315-0.033,0.797-0.1,1.062
			c-0.83-0.216-1.776-0.332-2.54-0.332c-1.245,0-1.926,0.415-1.926,1.079c0,0.78,0.614,1.096,2.108,1.561
			c1.793,0.564,3.121,1.411,3.121,3.403C124.883,231.11,123.173,232.422,120.882,232.422z"/>
		<path style="fill:#1A2A4F;" d="M133.483,223.059h-2.972v9.197c-0.315,0.05-0.764,0.083-1.179,0.083s-0.863-0.033-1.195-0.083
			v-9.197h-2.972c-0.066-0.216-0.116-0.73-0.116-1.013s0.066-0.797,0.133-1.013h8.301c0.066,0.216,0.116,0.73,0.116,1.013
			S133.549,222.843,133.483,223.059z"/>
		<path style="fill:#1A2A4F;" d="M143.062,232.256c-0.216,0.05-0.73,0.083-1.278,0.083c-0.432,0-0.93-0.05-1.146-0.083l-0.83-2.274
			h-3.984l-0.78,2.274c-0.365,0.05-0.797,0.083-1.229,0.083s-0.93-0.033-1.179-0.083l3.918-11.223
			c0.232-0.05,0.78-0.083,1.146-0.083c0.448,0,0.979,0.033,1.162,0.083L143.062,232.256z M139.095,228.006l-0.979-3.171
			c-0.116-0.365-0.232-0.83-0.332-1.345h-0.033c-0.083,0.515-0.216,0.979-0.332,1.345l-0.93,3.171H139.095z"/>
		<path style="fill:#1A2A4F;" d="M153.223,232.256c-0.166,0.033-0.564,0.066-0.847,0.066s-0.564-0.017-0.83-0.066l-5.163-7.188
			v7.188c-0.133,0.033-0.631,0.083-1.096,0.083c-0.382,0-0.83-0.05-1.062-0.083v-11.223c0.266-0.05,0.581-0.066,0.88-0.066
			c0.315,0,0.647,0.033,0.896,0.066l5.063,7.056v-7.056c0.332-0.05,0.764-0.083,1.079-0.083s0.78,0.033,1.079,0.083V232.256z"/>
		<path style="fill:#1A2A4F;" d="M162.619,231.26c-1.029,0.797-2.357,1.079-4.184,1.079c-0.93,0-2.507-0.033-3.038-0.083v-11.223
			c0.813-0.05,2.507-0.083,3.453-0.083c3.652,0,5.528,1.544,5.528,5.562C164.379,228.587,163.831,230.313,162.619,231.26z
			 M158.9,222.909c-0.448,0-0.946,0.017-1.129,0.033v7.388c0.216,0.017,0.714,0.033,1.229,0.033c2.092,0,2.922-1.328,2.922-3.885
			C161.922,223.673,161.059,222.909,158.9,222.909z"/>
		<path style="fill:#1A2A4F;" d="M168.446,232.256c-0.315,0.05-0.697,0.083-1.195,0.083c-0.448,0-0.863-0.033-1.179-0.083v-11.223
			c0.315-0.05,0.78-0.083,1.195-0.083c0.465,0,0.88,0.033,1.179,0.083V232.256z"/>
		<path style="fill:#1A2A4F;" d="M179.652,232.256c-0.166,0.033-0.564,0.066-0.847,0.066s-0.564-0.017-0.83-0.066l-5.163-7.188
			v7.188c-0.133,0.033-0.631,0.083-1.096,0.083c-0.382,0-0.83-0.05-1.062-0.083v-11.223c0.266-0.05,0.581-0.066,0.88-0.066
			c0.315,0,0.647,0.033,0.896,0.066l5.063,7.056v-7.056c0.332-0.05,0.764-0.083,1.079-0.083s0.78,0.033,1.079,0.083V232.256z"/>
		<path style="fill:#1A2A4F;" d="M190.278,231.824c-0.863,0.382-2.274,0.598-3.586,0.598c-3.735,0-5.379-2.391-5.379-5.661
			c0-3.42,2.025-5.894,5.628-5.894c1.029,0,2.208,0.216,2.905,0.515c0.05,0.266,0.083,0.664,0.083,0.847
			c0,0.365-0.066,0.764-0.133,1.013c-0.714-0.232-1.743-0.382-2.689-0.382c-2.391,0-3.337,1.743-3.337,3.868
			c0,2.258,0.996,3.702,3.005,3.702c0.448,0,0.88-0.033,1.129-0.1v-3.586c0.315-0.05,0.747-0.083,1.162-0.083
			c0.465,0,0.913,0.033,1.212,0.083V231.824z"/>
		<path style="fill:#1A2A4F;" d="M198.015,232.256c-0.315,0.05-0.697,0.083-1.195,0.083c-0.448,0-0.863-0.033-1.179-0.083v-11.223
			c0.315-0.05,0.78-0.083,1.195-0.083c0.465,0,0.88,0.033,1.179,0.083V232.256z"/>
		<path style="fill:#1A2A4F;" d="M211.562,232.256c-0.199,0.05-0.647,0.083-1.112,0.083c-0.498,0-0.963-0.05-1.162-0.083
			l-0.199-6.74l-2.457,5.678c-0.183,0.066-0.581,0.1-0.83,0.1c-0.299,0-0.664-0.033-0.847-0.083l-2.457-5.694l-0.216,6.74
			c-0.216,0.05-0.73,0.083-1.179,0.083c-0.266,0-0.714-0.033-1.013-0.083l0.481-11.223c0.315-0.033,0.631-0.083,0.963-0.083
			c0.398,0,0.78,0.033,0.979,0.083l3.287,7.62l3.304-7.62c0.332-0.05,0.664-0.083,0.963-0.083c0.382,0,0.73,0.033,0.979,0.083
			L211.562,232.256z"/>
		<path style="fill:#1A2A4F;" d="M217.156,228.238h-1.162v4.018c-0.315,0.05-0.697,0.083-1.195,0.083
			c-0.448,0-0.863-0.033-1.179-0.083V221.05c0.963-0.05,2.424-0.1,3.37-0.1c2.54,0,4.383,0.88,4.383,3.52
			C221.373,227.043,219.763,228.238,217.156,228.238z M217.09,222.909c-0.332,0-0.764,0.017-1.096,0.033v3.304h1.029
			c1.278,0,1.959-0.332,1.959-1.693C218.982,223.391,218.401,222.909,217.09,222.909z"/>
		<path style="fill:#1A2A4F;" d="M231.4,232.256c-0.216,0.05-0.73,0.083-1.278,0.083c-0.432,0-0.93-0.05-1.146-0.083l-0.83-2.274
			h-3.984l-0.78,2.274c-0.365,0.05-0.797,0.083-1.229,0.083s-0.93-0.033-1.179-0.083l3.918-11.223
			c0.232-0.05,0.78-0.083,1.146-0.083c0.448,0,0.979,0.033,1.162,0.083L231.4,232.256z M227.433,228.006l-0.979-3.171
			c-0.116-0.365-0.232-0.83-0.332-1.345h-0.033c-0.083,0.515-0.216,0.979-0.332,1.345l-0.93,3.171H227.433z"/>
		<path style="fill:#1A2A4F;" d="M239.818,223.374c-0.797-0.249-1.793-0.432-2.59-0.432c-1.893,0-3.121,1.345-3.121,3.752
			c0,2.208,0.963,3.652,3.104,3.652c0.797,0,1.693-0.166,2.49-0.415c0.116,0.299,0.199,0.764,0.199,1.112
			c0,0.282-0.017,0.631-0.05,0.78c-0.83,0.382-1.893,0.598-2.872,0.598c-3.569,0-5.329-2.158-5.329-5.678
			c0-3.42,1.893-5.877,5.429-5.877c0.863,0,1.992,0.216,2.789,0.564c0.05,0.166,0.066,0.531,0.066,0.747
			C239.935,222.693,239.868,223.175,239.818,223.374z"/>
		<path style="fill:#1A2A4F;" d="M249.381,223.059h-2.972v9.197c-0.315,0.05-0.764,0.083-1.179,0.083s-0.863-0.033-1.195-0.083
			v-9.197h-2.972c-0.066-0.216-0.116-0.73-0.116-1.013s0.066-0.797,0.133-1.013h8.301c0.066,0.216,0.116,0.73,0.116,1.013
			S249.447,222.843,249.381,223.059z"/>
	</g>
	<g>
		<path style="fill:#1A2A4F;" d="M89.854,249.283c-0.315,0.05-0.697,0.083-1.195,0.083c-0.448,0-0.863-0.033-1.179-0.083v-11.223
			c0.315-0.05,0.78-0.083,1.195-0.083c0.465,0,0.88,0.033,1.179,0.083V249.283z"/>
		<path style="fill:#1A2A4F;" d="M101.061,249.283c-0.166,0.033-0.564,0.066-0.847,0.066s-0.564-0.017-0.83-0.066l-5.163-7.188
			v7.188c-0.133,0.033-0.631,0.083-1.096,0.083c-0.382,0-0.83-0.05-1.062-0.083v-11.223c0.266-0.05,0.581-0.066,0.88-0.066
			c0.315,0,0.647,0.033,0.896,0.066l5.063,7.056v-7.056c0.332-0.05,0.764-0.083,1.079-0.083s0.78,0.033,1.079,0.083V249.283z"/>
		<path style="fill:#1A2A4F;" d="M113.528,249.283h-6.873v-11.223c0.315-0.05,0.747-0.083,1.162-0.083
			c0.465,0,0.913,0.033,1.212,0.083v9.197h4.499c0.066,0.183,0.116,0.531,0.116,0.996
			C113.645,248.619,113.611,248.935,113.528,249.283z"/>
		<path style="fill:#1A2A4F;" d="M124.867,249.283c-0.216,0.05-0.73,0.083-1.278,0.083c-0.432,0-0.93-0.05-1.146-0.083l-0.83-2.274
			h-3.984l-0.78,2.274c-0.365,0.05-0.797,0.083-1.229,0.083s-0.93-0.033-1.179-0.083l3.918-11.223
			c0.232-0.05,0.78-0.083,1.146-0.083c0.448,0,0.979,0.033,1.162,0.083L124.867,249.283z M120.899,245.033l-0.979-3.171
			c-0.116-0.365-0.232-0.83-0.332-1.345h-0.033c-0.083,0.515-0.216,0.979-0.332,1.345l-0.93,3.171H120.899z"/>
		<path style="fill:#1A2A4F;" d="M135.111,249.283c-0.216,0.033-0.647,0.083-1.112,0.083c-0.448,0-0.896-0.05-1.195-0.083
			l-1.361-5.545c-0.149-0.581-0.232-1.212-0.299-1.76h-0.017c-0.05,0.548-0.183,1.195-0.315,1.76l-1.345,5.545
			c-0.299,0.033-0.764,0.083-1.195,0.083c-0.415,0-0.913-0.05-1.146-0.083l-2.507-8.218c-0.266-0.863-0.432-1.893-0.432-3.005
			c0.349-0.066,0.78-0.083,1.146-0.083c0.614,0,0.913,0.033,1.179,0.083c0,1.079,0.149,1.976,0.349,2.739l1.013,3.835
			c0.149,0.598,0.299,1.378,0.382,2.125h0.033c0.083-0.747,0.216-1.527,0.365-2.142l1.561-6.558c0.299-0.05,0.581-0.083,0.88-0.083
			c0.315,0,0.598,0.033,0.913,0.083l1.594,6.574c0.149,0.598,0.315,1.378,0.398,2.125h0.033c0.083-0.747,0.232-1.527,0.398-2.142
			l1.062-3.818c0.216-0.764,0.382-1.66,0.382-2.739c0.266-0.05,0.747-0.083,1.245-0.083c0.332,0,0.78,0.033,1.096,0.083
			c0,1.229-0.183,2.158-0.448,3.005L135.111,249.283z"/>
		<path style="fill:#1A2A4F;" d="M151.182,249.267c-0.432,0.066-0.88,0.1-1.395,0.1c-0.465,0-0.93-0.017-1.245-0.083l-2.274-4.034
			h-0.979v4.034c-0.415,0.066-0.764,0.083-1.212,0.083c-0.398,0-0.747-0.017-1.162-0.083v-11.223c0.764-0.05,2.357-0.083,3.32-0.083
			c2.822,0,4.233,0.996,4.233,3.586c0,1.378-0.83,2.756-1.992,3.254L151.182,249.267z M146.383,239.92
			c-0.365,0-0.813,0.017-1.096,0.033v3.32h0.83c1.361,0,1.959-0.498,1.959-1.727S147.479,239.92,146.383,239.92z"/>
		<path style="fill:#1A2A4F;" d="M159.565,249.283h-7.022v-11.223h6.873c0.066,0.183,0.116,0.531,0.116,0.996
			c0,0.365-0.033,0.681-0.116,1.029h-4.499v2.424h3.802c0.066,0.183,0.116,0.515,0.116,0.979c0,0.365-0.033,0.664-0.116,1.013
			h-3.802v2.756h4.648c0.066,0.183,0.116,0.531,0.116,0.996C159.682,248.619,159.648,248.935,159.565,249.283z"/>
		<path style="fill:#1A2A4F;" d="M164.28,249.449c-1.212,0-2.54-0.232-3.486-0.664c-0.05-0.232-0.083-0.531-0.083-0.797
			c0-0.398,0.05-0.78,0.166-1.229c0.979,0.398,2.274,0.647,3.287,0.647c1.179,0,1.81-0.548,1.81-1.295
			c0-0.83-0.531-1.179-2.142-1.677c-1.793-0.548-3.104-1.411-3.104-3.337c0-2.059,1.776-3.204,4.117-3.204
			c1.079,0,2.042,0.166,2.689,0.382c0.05,0.183,0.083,0.481,0.083,0.913c0,0.315-0.033,0.797-0.1,1.062
			c-0.83-0.216-1.776-0.332-2.54-0.332c-1.245,0-1.926,0.415-1.926,1.079c0,0.78,0.614,1.096,2.108,1.561
			c1.793,0.564,3.121,1.411,3.121,3.403C168.281,248.138,166.571,249.449,164.28,249.449z"/>
		<path style="fill:#1A2A4F;" d="M176.897,249.283h-7.022v-11.223h6.873c0.066,0.183,0.116,0.531,0.116,0.996
			c0,0.365-0.033,0.681-0.116,1.029h-4.499v2.424h3.802c0.066,0.183,0.116,0.515,0.116,0.979c0,0.365-0.033,0.664-0.116,1.013
			h-3.802v2.756h4.648c0.066,0.183,0.116,0.531,0.116,0.996C177.014,248.619,176.98,248.935,176.897,249.283z"/>
		<path style="fill:#1A2A4F;" d="M188.237,249.283c-0.216,0.05-0.73,0.083-1.278,0.083c-0.432,0-0.93-0.05-1.146-0.083l-0.83-2.274
			h-3.984l-0.78,2.274c-0.365,0.05-0.797,0.083-1.229,0.083s-0.93-0.033-1.179-0.083l3.918-11.223
			c0.232-0.05,0.78-0.083,1.146-0.083c0.448,0,0.979,0.033,1.162,0.083L188.237,249.283z M184.27,245.033l-0.979-3.171
			c-0.116-0.365-0.232-0.83-0.332-1.345h-0.033c-0.083,0.515-0.216,0.979-0.332,1.345l-0.93,3.171H184.27z"/>
		<path style="fill:#1A2A4F;" d="M197.667,249.267c-0.432,0.066-0.88,0.1-1.395,0.1c-0.465,0-0.93-0.017-1.245-0.083l-2.274-4.034
			h-0.979v4.034c-0.415,0.066-0.764,0.083-1.212,0.083c-0.398,0-0.747-0.017-1.162-0.083v-11.223c0.764-0.05,2.357-0.083,3.32-0.083
			c2.822,0,4.233,0.996,4.233,3.586c0,1.378-0.83,2.756-1.992,3.254L197.667,249.267z M192.869,239.92
			c-0.365,0-0.813,0.017-1.096,0.033v3.32h0.83c1.361,0,1.959-0.498,1.959-1.727S193.965,239.92,192.869,239.92z"/>
		<path style="fill:#1A2A4F;" d="M206.482,240.401c-0.797-0.249-1.793-0.432-2.59-0.432c-1.893,0-3.121,1.345-3.121,3.752
			c0,2.208,0.963,3.652,3.104,3.652c0.797,0,1.693-0.166,2.49-0.415c0.116,0.299,0.199,0.764,0.199,1.112
			c0,0.282-0.017,0.631-0.05,0.78c-0.83,0.382-1.893,0.598-2.872,0.598c-3.569,0-5.329-2.158-5.329-5.678
			c0-3.42,1.893-5.877,5.429-5.877c0.863,0,1.992,0.216,2.789,0.564c0.05,0.166,0.066,0.531,0.066,0.747
			C206.599,239.721,206.532,240.202,206.482,240.401z"/>
		<path style="fill:#1A2A4F;" d="M216.792,249.283c-0.299,0.05-0.714,0.083-1.179,0.083s-0.88-0.033-1.195-0.083v-4.648h-3.901
			v4.648c-0.315,0.05-0.681,0.083-1.179,0.083c-0.448,0-0.88-0.033-1.195-0.083v-11.223c0.315-0.05,0.78-0.083,1.195-0.083
			c0.465,0,0.88,0.033,1.179,0.083v4.549h3.901v-4.549c0.365-0.05,0.78-0.083,1.195-0.083c0.398,0,0.896,0.033,1.179,0.083V249.283z
			"/>
	</g>
	<path style="fill:#B4A168;" d="M167.23,125.933V52.751h-17.236c-0.133,3.012-0.845,5.563-2.17,7.6
		c-1.291,2.069-2.946,3.717-4.983,4.95c-2.037,1.225-4.297,2.102-6.854,2.65c-2.516,0.521-5.108,0.744-7.758,0.677v15.134h17.137
		v42.17H167.23z"/>
</g>
</svg>
