<?xml version="1.0" encoding="utf-8"?>
<!-- Generator: Adobe Illustrator 16.0.0, SVG Export Plug-In . SVG Version: 6.00 Build 0)  -->
<!DOCTYPE svg PUBLIC "-//W3C//DTD SVG 1.0//EN" "http://www.w3.org/TR/2001/REC-SVG-20010904/DTD/svg10.dtd">
<svg version="1.0" xmlns="http://www.w3.org/2000/svg" xmlns:xlink="http://www.w3.org/1999/xlink" x="0px" y="0px" width="300px"
	 height="300px" viewBox="0 0 300 300" style="enable-background:new 0 0 300 300;" xml:space="preserve">
<g id="Icons">
	<path style="fill:none;stroke:#333333;stroke-width:3;stroke-miterlimit:10;" d="M81.235,74.49h72.671
		c6.021,0,10.904,4.881,10.904,10.899v61.775c0,6.019-4.883,10.899-10.904,10.899h-44.703l-18.077,18.891
		c-2.262,2.367-6.257,0.769-6.257-2.511v-16.38h-3.634c-6.019,0-10.899-4.881-10.899-10.899V85.39
		C70.336,79.371,75.216,74.49,81.235,74.49z"/>
	<path style="fill:none;stroke:#333333;stroke-width:3;stroke-miterlimit:10;" d="M106.671,81.759v39.97
		c0,6.019,4.88,10.899,10.901,10.899h39.97"/>
	<path style="fill:none;stroke:#333333;stroke-width:3;stroke-miterlimit:10;" d="M219.314,99.925v-39.97
		c0-6.019-4.883-10.899-10.899-10.899h-90.843c-6.021,0-10.901,4.88-10.901,10.899v14.538"/>
	<path style="fill:none;stroke:#333333;stroke-width:3;stroke-miterlimit:10;" d="M164.809,132.629h10.752l19.388,19.277
		c2.294,2.277,6.197,0.654,6.197-2.578v-16.7h7.264c6.025,0,10.905-4.88,10.905-10.899v-14.536"/>
	<path style="fill:none;stroke:#B4A168;stroke-width:3;stroke-miterlimit:10;" d="M128.473,154.395v18.203
		c0,6.021,4.88,10.902,10.899,10.902h41.071l25.69,20.677c2.377,1.913,5.914,0.222,5.914-2.832V183.5h14.533
		c6.019,0,10.899-4.882,10.899-10.902v-61.771c0-6.019-4.881-10.899-10.899-10.899h-61.771"/>
	
		<line style="fill:none;stroke:#B4A168;stroke-width:3;stroke-miterlimit:10;" x1="128.473" y1="122.775" x2="128.473" y2="150.795"/>
	<path style="fill:none;stroke:#B4A168;stroke-width:3;stroke-miterlimit:10;" d="M157.542,99.925h-18.168
		c-6.021,0-10.9,4.881-10.9,10.899v14.536"/>
	
		<line style="fill:none;stroke:#CFC19B;stroke-width:1.254;stroke-linejoin:round;stroke-dasharray:3.713,2.459;" x1="41.636" y1="39.609" x2="41.636" y2="262.17"/>
	
		<line style="fill:none;stroke:#CFC19B;stroke-width:1.254;stroke-linejoin:round;stroke-dasharray:3.685,2.431;" x1="66.731" y1="284.166" x2="239.327" y2="284.166"/>
	
		<line style="fill:none;stroke:#CFC19B;stroke-width:1.254;stroke-linejoin:round;stroke-dasharray:3.687,2.433;" x1="261.249" y1="259.062" x2="261.249" y2="22.397"/>
	
		<line style="fill:none;stroke:#CFC19B;stroke-width:1.254;stroke-linejoin:round;stroke-dasharray:3.655,2.401;" x1="250.202" y1="14.401" x2="63.478" y2="14.401"/>
	<path style="fill:none;stroke:#CFC19B;stroke-width:1.254;stroke-linejoin:round;" d="M60.34,14.404h-4.774c0,0-2.964,0-6.16,1.365
		 M261.249,19.219v-4.814h-4.775 M260.083,276.425c0.723-1.674,1.166-3.712,1.166-6.19v-4.816 M242.507,284.166h4.812
		c0,0,2.964,0,6.156-1.367 M49.375,283c1.675,0.725,3.713,1.166,6.192,1.166h4.813 M41.636,265.385v4.85c0,0,0,2.966,1.366,6.16
		 M42.802,22.142c-0.724,1.674-1.166,3.713-1.166,6.19v4.851"/>
</g>
<g id="Text" style="display:none;">
	<text transform="matrix(1 0 0 1 99.6387 238.4023)" style="display:inline;"><tspan x="0" y="0" style="fill:#B4A168; font-family:'FSMatthew-Bold'; font-size:29.4865;">4</tspan><tspan x="15.893" y="0" style="fill:#B4A168; font-family:'FSMatthew-Bold'; font-size:29.4865;">T</tspan><tspan x="31.727" y="0" style="fill:#B4A168; font-family:'FSMatthew-Bold'; font-size:29.4865;">H</tspan></text>
	<text transform="matrix(1 0 0 1 150.8262 238.4023)" style="display:inline;"><tspan x="0" y="0" style="fill:#333333; font-family:'FSMatthew-Bold'; font-size:29.4865;"> </tspan><tspan x="6.369" y="0" style="fill:#333333; font-family:'FSMatthew-Bold'; font-size:29.4865; letter-spacing:-1;">F</tspan><tspan x="20.758" y="0" style="fill:#333333; font-family:'FSMatthew-Bold'; font-size:29.4865;">O</tspan><tspan x="39.776" y="0" style="fill:#333333; font-family:'FSMatthew-Bold'; font-size:29.4865;">R </tspan></text>
	<text transform="matrix(1 0 0 1 75.0176 267.8877)" style="display:inline;"><tspan x="0" y="0" style="fill:#333333; font-family:'FSMatthew-Bold'; font-size:29.4865;">M</tspan><tspan x="24.09" y="0" style="fill:#333333; font-family:'FSMatthew-Bold'; font-size:29.4865;">A</tspan><tspan x="43.168" y="0" style="fill:#333333; font-family:'FSMatthew-Bold'; font-size:29.4865;">RK</tspan><tspan x="78.346" y="0" style="fill:#333333; font-family:'FSMatthew-Bold'; font-size:29.4865;">E</tspan><tspan x="94.386" y="0" style="fill:#333333; font-family:'FSMatthew-Bold'; font-size:29.4865;">T</tspan><tspan x="110.22" y="0" style="fill:#333333; font-family:'FSMatthew-Bold'; font-size:29.4865;">IN</tspan><tspan x="138.851" y="0" style="fill:#333333; font-family:'FSMatthew-Bold'; font-size:29.4865;">G</tspan></text>
</g>
<g id="Text_Flat">
	<g>
		<path style="fill:#B4A168;" d="M115.558,234.099h-2.594v4.304c-0.354,0.059-1.18,0.147-2.093,0.147
			c-0.855,0-1.533-0.059-2.005-0.147v-4.304h-8.608c-0.118-0.384-0.207-1.062-0.207-1.593c0-0.618,0.088-1.179,0.207-1.592
			l6.043-12.44c0.531-0.088,1.415-0.147,2.063-0.147c0.914,0,1.887,0.089,2.329,0.147l-6.043,12.146h4.215v-4.067
			c0.531-0.089,1.356-0.147,2.034-0.147c0.708,0,1.562,0.059,2.064,0.147v4.067h2.594c0.147,0.473,0.207,1.121,0.207,1.74
			S115.676,233.774,115.558,234.099z"/>
		<path style="fill:#B4A168;" d="M130.979,222.07h-5.277v16.332c-0.56,0.089-1.356,0.147-2.093,0.147
			c-0.737,0-1.533-0.059-2.123-0.147V222.07h-5.277c-0.118-0.383-0.207-1.297-0.207-1.798s0.118-1.415,0.236-1.799h14.74
			c0.118,0.384,0.206,1.298,0.206,1.799S131.097,221.688,130.979,222.07z"/>
		<path style="fill:#B4A168;" d="M148.936,238.402c-0.53,0.089-1.268,0.147-2.093,0.147c-0.826,0-1.562-0.059-2.123-0.147v-8.254
			h-6.928v8.254c-0.56,0.089-1.209,0.147-2.093,0.147c-0.796,0-1.562-0.059-2.123-0.147v-19.929c0.56-0.088,1.386-0.147,2.123-0.147
			c0.826,0,1.562,0.06,2.093,0.147v8.078h6.928v-8.078c0.648-0.088,1.385-0.147,2.123-0.147c0.708,0,1.592,0.06,2.093,0.147V238.402
			z"/>
	</g>
	<g>
		<path style="fill:#333333;" d="M171.464,222.07h-7.842v4.305h6.604c0.118,0.324,0.206,0.913,0.206,1.739
			c0,0.648-0.059,1.179-0.206,1.798h-6.604v8.49c-0.561,0.089-1.209,0.147-2.093,0.147c-0.797,0-1.562-0.059-2.123-0.147v-19.929
			h12.058c0.118,0.324,0.206,0.943,0.206,1.769C171.67,220.892,171.611,221.451,171.464,222.07z"/>
		<path style="fill:#333333;" d="M181.224,238.697c-5.453,0-8.343-3.773-8.343-10.259c0-6.486,2.89-10.26,8.343-10.26
			c5.454,0,8.343,3.773,8.343,10.26C189.566,234.924,186.678,238.697,181.224,238.697z M181.224,221.805
			c-2.535,0-3.979,1.946-3.979,6.634c0,4.687,1.444,6.633,3.979,6.633s3.98-1.946,3.98-6.633
			C185.204,223.751,183.759,221.805,181.224,221.805z"/>
		<path style="fill:#333333;" d="M207.494,238.373c-0.766,0.118-1.562,0.177-2.476,0.177c-0.826,0-1.651-0.029-2.211-0.147
			l-4.039-7.164h-1.739v7.164c-0.737,0.118-1.356,0.147-2.152,0.147c-0.707,0-1.326-0.029-2.063-0.147v-19.929
			c1.356-0.088,4.187-0.147,5.896-0.147c5.011,0,7.517,1.77,7.517,6.368c0,2.446-1.474,4.894-3.537,5.778L207.494,238.373z
			 M198.975,221.775c-0.648,0-1.444,0.029-1.945,0.06v5.896h1.474c2.418,0,3.479-0.885,3.479-3.065
			C201.981,222.483,200.921,221.775,198.975,221.775z"/>
	</g>
	<g>
		<path style="fill:#333333;" d="M97.393,267.888c-0.354,0.089-1.15,0.147-1.975,0.147c-0.885,0-1.71-0.089-2.064-0.147L93,255.919
			l-4.363,10.082c-0.324,0.118-1.032,0.177-1.474,0.177c-0.53,0-1.179-0.059-1.503-0.147l-4.363-10.111l-0.383,11.969
			c-0.383,0.089-1.297,0.147-2.093,0.147c-0.472,0-1.268-0.059-1.798-0.147l0.854-19.929c0.561-0.059,1.121-0.147,1.71-0.147
			c0.708,0,1.386,0.06,1.739,0.147l5.837,13.531l5.867-13.531c0.59-0.088,1.179-0.147,1.71-0.147c0.678,0,1.297,0.06,1.739,0.147
			L97.393,267.888z"/>
		<path style="fill:#333333;" d="M118.034,267.888c-0.383,0.089-1.297,0.147-2.27,0.147c-0.767,0-1.651-0.089-2.034-0.147
			l-1.474-4.039h-7.075l-1.385,4.039c-0.649,0.089-1.415,0.147-2.182,0.147s-1.651-0.059-2.093-0.147l6.958-19.929
			c0.413-0.088,1.385-0.147,2.034-0.147c0.796,0,1.739,0.06,2.063,0.147L118.034,267.888z M110.988,260.341l-1.739-5.631
			c-0.207-0.648-0.413-1.474-0.59-2.388h-0.059c-0.147,0.914-0.383,1.739-0.59,2.388l-1.651,5.631H110.988z"/>
		<path style="fill:#333333;" d="M135.078,267.858c-0.767,0.118-1.562,0.177-2.477,0.177c-0.825,0-1.651-0.029-2.211-0.147
			l-4.039-7.164h-1.739v7.164c-0.737,0.118-1.356,0.147-2.152,0.147c-0.708,0-1.326-0.029-2.063-0.147v-19.929
			c1.356-0.088,4.186-0.147,5.896-0.147c5.012,0,7.518,1.77,7.518,6.368c0,2.446-1.474,4.894-3.538,5.778L135.078,267.858z
			 M126.558,251.261c-0.648,0-1.444,0.029-1.945,0.06v5.896h1.474c2.417,0,3.479-0.884,3.479-3.065S128.503,251.261,126.558,251.261
			z"/>
		<path style="fill:#333333;" d="M153.418,267.888c-0.531,0.089-1.475,0.147-2.506,0.147c-0.737,0-1.798-0.059-2.417-0.147
			l-5.159-7.989l-1.356,1.621v6.368c-0.56,0.089-1.238,0.147-2.123,0.147c-0.796,0-1.533-0.059-2.093-0.147v-19.929
			c0.56-0.088,1.386-0.147,2.123-0.147c0.826,0,1.562,0.06,2.093,0.147v8.579l3.419-4.01c1.503-1.769,2.329-3.036,2.653-4.569
			c0.589-0.088,1.415-0.147,2.063-0.147c0.531,0,1.445,0.06,2.064,0.147c-0.442,2.329-1.681,4.363-3.449,6.397l-2.358,2.712
			L153.418,267.888z"/>
		<path style="fill:#333333;" d="M168.044,267.888h-12.47v-19.929h12.204c0.118,0.324,0.206,0.943,0.206,1.77
			c0,0.648-0.059,1.208-0.206,1.827h-7.989v4.304h6.751c0.118,0.325,0.207,0.914,0.207,1.74c0,0.648-0.06,1.179-0.207,1.798h-6.751
			v4.894h8.255c0.118,0.324,0.206,0.943,0.206,1.769C168.25,266.709,168.191,267.269,168.044,267.888z"/>
		<path style="fill:#333333;" d="M184.851,251.556h-5.276v16.332c-0.561,0.089-1.356,0.147-2.094,0.147
			c-0.736,0-1.532-0.059-2.122-0.147v-16.332h-5.277c-0.117-0.383-0.206-1.297-0.206-1.798c0-0.502,0.118-1.415,0.236-1.799h14.739
			c0.118,0.384,0.207,1.297,0.207,1.799C185.058,250.259,184.969,251.173,184.851,251.556z"/>
		<path style="fill:#333333;" d="M191.723,267.888c-0.56,0.089-1.238,0.147-2.122,0.147c-0.796,0-1.533-0.059-2.094-0.147v-19.929
			c0.561-0.088,1.386-0.147,2.123-0.147c0.825,0,1.562,0.06,2.093,0.147V267.888z"/>
		<path style="fill:#333333;" d="M211.919,267.888c-0.295,0.059-1.003,0.118-1.504,0.118s-1.002-0.029-1.474-0.118l-9.169-12.765
			v12.765c-0.235,0.059-1.12,0.147-1.945,0.147c-0.678,0-1.474-0.089-1.887-0.147v-19.929c0.472-0.088,1.032-0.117,1.562-0.117
			c0.561,0,1.149,0.059,1.592,0.117l8.991,12.529v-12.529c0.59-0.088,1.356-0.147,1.916-0.147c0.561,0,1.386,0.06,1.917,0.147
			V267.888z"/>
		<path style="fill:#333333;" d="M231.084,267.121c-1.532,0.678-4.038,1.062-6.367,1.062c-6.633,0-9.552-4.245-9.552-10.053
			c0-6.073,3.597-10.466,9.994-10.466c1.827,0,3.921,0.384,5.159,0.914c0.088,0.472,0.147,1.18,0.147,1.504
			c0,0.648-0.118,1.355-0.236,1.798c-1.268-0.412-3.096-0.678-4.775-0.678c-4.245,0-5.926,3.096-5.926,6.869
			c0,4.009,1.769,6.573,5.336,6.573c0.796,0,1.562-0.059,2.005-0.177v-6.367c0.56-0.089,1.326-0.147,2.063-0.147
			c0.825,0,1.621,0.059,2.151,0.147V267.121z"/>
	</g>
</g>
</svg>
