<?xml version="1.0" encoding="utf-8"?>
<!-- Generator: Adobe Illustrator 16.0.0, SVG Export Plug-In . SVG Version: 6.00 Build 0)  -->
<!DOCTYPE svg PUBLIC "-//W3C//DTD SVG 1.0//EN" "http://www.w3.org/TR/2001/REC-SVG-20010904/DTD/svg10.dtd">
<svg version="1.0" xmlns="http://www.w3.org/2000/svg" xmlns:xlink="http://www.w3.org/1999/xlink" x="0px" y="0px" width="300px"
	 height="300px" viewBox="0 0 300 300" style="enable-background:new 0 0 300 300;" xml:space="preserve">
<g id="Icons">
	<path style="fill:none;stroke:#B4A168;stroke-width:2.069;stroke-linecap:round;stroke-linejoin:round;stroke-miterlimit:10;" d="
		M69.062,163.827c17.735,0,32.111-14.376,32.111-32.111c0-17.734-14.376-32.11-32.111-32.11s-32.111,14.376-32.111,32.11"/>
	<path style="fill:#1A2A4F;" d="M30.309,174.133h-4.563v-3.554h4.563V174.133z M32.527,175.06v-5.409
		c0-0.792-0.643-1.436-1.435-1.436h-6.131c-0.793,0-1.436,0.644-1.436,1.436v5.409c0,0.794,0.643,1.435,1.436,1.435h6.131
		C31.885,176.494,32.527,175.854,32.527,175.06"/>
	<path style="fill:#1A2A4F;" d="M41.489,174.133h-4.565v-3.554h4.565V174.133z M43.708,175.06v-5.409
		c0-0.792-0.643-1.436-1.436-1.436h-6.131c-0.793,0-1.436,0.644-1.436,1.436v5.409c0,0.794,0.643,1.435,1.436,1.435h6.131
		C43.065,176.494,43.708,175.854,43.708,175.06"/>
	<path style="fill:#1A2A4F;" d="M52.667,174.133h-4.564v-3.554h4.564V174.133z M54.887,175.06v-5.409
		c0-0.792-0.643-1.436-1.436-1.436H47.32c-0.793,0-1.436,0.644-1.436,1.436v5.409c0,0.794,0.643,1.435,1.436,1.435h6.131
		C54.244,176.494,54.887,175.854,54.887,175.06"/>
	<path style="fill:#1A2A4F;" d="M30.309,188.739h-4.563v-3.556h4.563V188.739z M32.527,189.666v-5.409
		c0-0.793-0.643-1.436-1.435-1.436h-6.131c-0.793,0-1.436,0.643-1.436,1.436v5.409c0,0.792,0.643,1.435,1.436,1.435h6.131
		C31.885,191.101,32.527,190.458,32.527,189.666"/>
	<path style="fill:#1A2A4F;" d="M41.489,188.739h-4.565v-3.556h4.565V188.739z M43.708,189.666v-5.409
		c0-0.793-0.643-1.436-1.436-1.436h-6.131c-0.793,0-1.436,0.643-1.436,1.436v5.409c0,0.792,0.643,1.435,1.436,1.435h6.131
		C43.065,191.101,43.708,190.458,43.708,189.666"/>
	<path style="fill:#1A2A4F;" d="M52.667,188.739h-4.564v-3.556h4.564V188.739z M54.887,189.666v-5.409
		c0-0.793-0.643-1.436-1.436-1.436H47.32c-0.793,0-1.436,0.643-1.436,1.436v5.409c0,0.792,0.643,1.435,1.436,1.435h6.131
		C54.244,191.101,54.887,190.458,54.887,189.666"/>
	<path style="fill:#1A2A4F;" d="M59.347,194.185c0,2.713-2.713,2.713-2.713,2.713H21.778c-2.713,0-2.713-2.713-2.713-2.713v-46.111
		c0-2.714,2.713-2.714,2.713-2.714h34.855c2.713,0,2.713,2.714,2.713,2.714V194.185z M62.039,195.436v-48.577
		c0-2.488-2.024-4.512-4.512-4.512h-36.64c-2.488,0-4.512,2.023-4.512,4.512v48.577c0,2.469,2.024,4.478,4.512,4.478h36.64
		C60.014,199.913,62.039,197.904,62.039,195.436"/>
	<path style="fill:#1A2A4F;" d="M52.769,159.691H25.644v-8.138h27.125V159.691z M55.059,160.31v-9.375
		c0-0.887-0.72-1.607-1.607-1.607h-28.49c-0.887,0-1.607,0.72-1.607,1.607v9.375c0,0.889,0.72,1.609,1.607,1.609h28.49
		C54.338,161.919,55.059,161.198,55.059,160.31"/>
	<path style="fill:#B4A168;" d="M56.378,110.591c-3.135,0-5.685,2.552-5.685,5.684c0,3.134,2.55,5.685,5.685,5.685
		c3.134,0,5.683-2.551,5.683-5.685C62.061,113.143,59.512,110.591,56.378,110.591 M56.378,123.005c-3.71,0-6.729-3.021-6.729-6.73
		c0-3.71,3.019-6.729,6.729-6.729c3.711,0,6.729,3.019,6.729,6.729C63.107,119.985,60.089,123.005,56.378,123.005"/>
	<path style="fill:#B4A168;" d="M45.983,138.253h20.79v-8.97c0-2.369-1.927-4.295-4.295-4.295h-12.2
		c-2.368,0-4.295,1.926-4.295,4.295V138.253z M67.296,139.298H45.461c-0.29,0-0.524-0.233-0.524-0.522v-9.493
		c0-2.944,2.396-5.341,5.342-5.341h12.2c2.944,0,5.34,2.397,5.34,5.341v9.493C67.818,139.065,67.586,139.298,67.296,139.298"/>
	<path style="fill:#B4A168;" d="M62.766,139.298c-0.288,0-0.522-0.233-0.522-0.522v-7.134c0-0.288,0.234-0.522,0.522-0.522
		c0.29,0,0.522,0.235,0.522,0.522v7.134C63.289,139.065,63.056,139.298,62.766,139.298"/>
	<path style="fill:#B4A168;" d="M49.991,139.298c-0.29,0-0.522-0.233-0.522-0.522v-7.134c0-0.288,0.232-0.522,0.522-0.522
		c0.288,0,0.521,0.235,0.521,0.522v7.134C50.512,139.065,50.278,139.298,49.991,139.298"/>
	<path style="fill:#B4A168;" d="M86.5,122.34c0,4.232-3.429,7.66-7.66,7.66c-4.228,0-7.658-3.428-7.658-7.66
		c0-4.23,3.43-7.66,7.658-7.66C83.072,114.681,86.5,118.11,86.5,122.34"/>
	<path style="fill:#B4A168;" d="M92.314,148.1H78.842H65.37v-9.708c0-3.285,2.661-5.946,5.944-5.946h15.055
		c3.283,0,5.945,2.661,5.945,5.946V148.1z"/>
	<path style="fill:none;" d="M65.893,147.578h25.9v-9.185c0-2.989-2.433-5.422-5.424-5.422H71.315c-2.99,0-5.423,2.433-5.423,5.422
		V147.578z M92.315,148.623H65.37c-0.289,0-0.523-0.234-0.523-0.522v-9.708c0-3.567,2.9-6.468,6.468-6.468h15.054
		c3.567,0,6.469,2.901,6.469,6.468v9.708C92.838,148.389,92.604,148.623,92.315,148.623"/>
	<path style="fill:#FFFFFF;" d="M86.725,148.623c-0.29,0-0.523-0.234-0.523-0.522v-6.798c0-0.287,0.233-0.522,0.523-0.522
		c0.29,0,0.522,0.235,0.522,0.522v6.798C87.247,148.389,87.014,148.623,86.725,148.623"/>
	<path style="fill:#FFFFFF;" d="M70.96,148.623c-0.29,0-0.522-0.234-0.522-0.522v-6.798c0-0.287,0.232-0.522,0.522-0.522
		c0.29,0,0.522,0.235,0.522,0.522v6.798C71.482,148.389,71.25,148.623,70.96,148.623"/>
</g>
<g id="Text" style="display:none;">
	<text transform="matrix(1 0 0 1 109.752 162.1055)" style="display:inline;"><tspan x="0" y="0" style="fill:#B4A168; font-family:'FSMatthew-Bold'; font-size:17.8616;">5T</tspan><tspan x="19.237" y="0" style="fill:#B4A168; font-family:'FSMatthew-Bold'; font-size:17.8616;">H</tspan></text>
	<text transform="matrix(1 0 0 1 140.7598 162.1055)" style="display:inline;"><tspan x="0" y="0" style="fill:#1A2A4F; font-family:'FSMatthew-Bold'; font-size:17.8616;"> </tspan><tspan x="3.858" y="0" style="fill:#1A2A4F; font-family:'FSMatthew-Bold'; font-size:17.8616;">F</tspan><tspan x="12.574" y="0" style="fill:#1A2A4F; font-family:'FSMatthew-Bold'; font-size:17.8616;">O</tspan><tspan x="24.095" y="0" style="fill:#1A2A4F; font-family:'FSMatthew-Bold'; font-size:17.8616;">R</tspan><tspan x="34.615" y="0" style="fill:#1A2A4F; font-family:'FSMatthew-Bold'; font-size:17.8616;"> </tspan><tspan x="38.474" y="0" style="fill:#1A2A4F; font-family:'FSMatthew-Bold'; font-size:17.8616;">A</tspan><tspan x="49.601" y="0" style="fill:#1A2A4F; font-family:'FSMatthew-Bold'; font-size:17.8616;">CC</tspan><tspan x="69.498" y="0" style="fill:#1A2A4F; font-family:'FSMatthew-Bold'; font-size:17.8616;">OUN</tspan><tspan x="104.793" y="0" style="fill:#1A2A4F; font-family:'FSMatthew-Bold'; font-size:17.8616;">T</tspan><tspan x="114.384" y="0" style="fill:#1A2A4F; font-family:'FSMatthew-Bold'; font-size:17.8616;">IN</tspan><tspan x="131.728" y="0" style="fill:#1A2A4F; font-family:'FSMatthew-Bold'; font-size:17.8616;">G </tspan></text>
	<text transform="matrix(1 0 0 1 109.752 179.9678)" style="display:inline;"><tspan x="0" y="0" style="fill:#1A2A4F; font-family:'FSMatthew-Bold'; font-size:17.8616;">/ H</tspan><tspan x="22.97" y="0" style="fill:#1A2A4F; font-family:'FSMatthew-Bold'; font-size:17.8616;">U</tspan><tspan x="34.347" y="0" style="fill:#1A2A4F; font-family:'FSMatthew-Bold'; font-size:17.8616;">MAN R</tspan><tspan x="87.11" y="0" style="fill:#1A2A4F; font-family:'FSMatthew-Bold'; font-size:17.8616;">E</tspan><tspan x="96.63" y="0" style="fill:#1A2A4F; font-family:'FSMatthew-Bold'; font-size:17.8616;">SO</tspan><tspan x="117.635" y="0" style="fill:#1A2A4F; font-family:'FSMatthew-Bold'; font-size:17.8616;">U</tspan><tspan x="129.191" y="0" style="fill:#1A2A4F; font-family:'FSMatthew-Bold'; font-size:17.8616;">R</tspan><tspan x="139.516" y="0" style="fill:#1A2A4F; font-family:'FSMatthew-Bold'; font-size:17.8616;">C</tspan><tspan x="149.715" y="0" style="fill:#1A2A4F; font-family:'FSMatthew-Bold'; font-size:17.8616;">E </tspan></text>
	<text transform="matrix(1 0 0 1 109.752 197.8291)" style="display:inline;"><tspan x="0" y="0" style="fill:#1A2A4F; font-family:'FSMatthew-Bold'; font-size:17.8616;">MAN</tspan><tspan x="38.366" y="0" style="fill:#1A2A4F; font-family:'FSMatthew-Bold'; font-size:17.8616;">A</tspan><tspan x="49.494" y="0" style="fill:#1A2A4F; font-family:'FSMatthew-Bold'; font-size:17.8616;">GEMEN</tspan><tspan x="106.722" y="0" style="fill:#1A2A4F; font-family:'FSMatthew-Bold'; font-size:17.8616;">T</tspan></text>
</g>
<g id="Text_Flat">
	<g>
		<path style="fill:#B4A168;" d="M114.129,162.284c-0.965,0-2.394-0.196-3.377-0.536c-0.036-0.125-0.089-0.446-0.089-0.804
			c0-0.394,0.054-0.805,0.161-1.144c0.822,0.25,2.09,0.411,3.091,0.411c1.269,0,2.091-0.68,2.091-1.895
			c0-0.519-0.143-0.982-0.447-1.286c-0.393-0.394-1.054-0.555-2.019-0.555h-2.341v-6.45h6.754c0.053,0.286,0.089,0.732,0.089,1.054
			c0,0.339-0.054,0.929-0.089,1.144h-4.467v2.216h0.786c1.394,0,2.501,0.25,3.288,0.929c0.697,0.607,1.09,1.537,1.09,2.823
			C118.65,160.926,116.56,162.284,114.129,162.284z"/>
		<path style="fill:#B4A168;" d="M128.742,152.207h-3.198v9.898c-0.339,0.054-0.822,0.089-1.269,0.089s-0.929-0.035-1.287-0.089
			v-9.898h-3.198c-0.072-0.232-0.125-0.787-0.125-1.091c0-0.303,0.072-0.857,0.143-1.089h8.934c0.071,0.232,0.125,0.786,0.125,1.089
			C128.867,151.42,128.813,151.975,128.742,152.207z"/>
		<path style="fill:#B4A168;" d="M139.638,162.105c-0.322,0.054-0.769,0.089-1.269,0.089c-0.5,0-0.947-0.035-1.287-0.089v-5.003
			h-4.199v5.003c-0.339,0.054-0.732,0.089-1.269,0.089c-0.482,0-0.947-0.035-1.286-0.089v-12.079
			c0.339-0.054,0.839-0.089,1.286-0.089c0.5,0,0.947,0.036,1.269,0.089v4.896h4.199v-4.896c0.393-0.054,0.84-0.089,1.287-0.089
			c0.429,0,0.965,0.036,1.269,0.089V162.105z"/>
	</g>
	<g>
		<path style="fill:#1A2A4F;" d="M153.266,152.207h-4.753v2.608h4.003c0.071,0.196,0.125,0.554,0.125,1.054
			c0,0.394-0.036,0.715-0.125,1.09h-4.003v5.146c-0.339,0.054-0.732,0.089-1.269,0.089c-0.482,0-0.947-0.035-1.286-0.089v-12.079
			h7.308c0.071,0.196,0.125,0.572,0.125,1.072C153.391,151.492,153.355,151.831,153.266,152.207z"/>
		<path style="fill:#1A2A4F;" d="M159.177,162.284c-3.306,0-5.057-2.287-5.057-6.218c0-3.932,1.751-6.218,5.057-6.218
			s5.057,2.287,5.057,6.218C164.233,159.997,162.482,162.284,159.177,162.284z M159.177,152.046c-1.536,0-2.412,1.179-2.412,4.021
			c0,2.841,0.876,4.02,2.412,4.02c1.537,0,2.412-1.179,2.412-4.02C161.589,153.225,160.714,152.046,159.177,152.046z"/>
		<path style="fill:#1A2A4F;" d="M175.093,162.088c-0.465,0.071-0.947,0.106-1.501,0.106c-0.5,0-1-0.018-1.34-0.089l-2.448-4.342
			h-1.054v4.342c-0.447,0.071-0.822,0.089-1.305,0.089c-0.429,0-0.804-0.018-1.251-0.089v-12.079
			c0.822-0.054,2.537-0.089,3.574-0.089c3.037,0,4.556,1.072,4.556,3.859c0,1.483-0.893,2.966-2.144,3.502L175.093,162.088z
			 M169.929,152.028c-0.393,0-0.875,0.018-1.179,0.035v3.574h0.894c1.465,0,2.108-0.536,2.108-1.858
			S171.108,152.028,169.929,152.028z"/>
		<path style="fill:#1A2A4F;" d="M190.705,162.105c-0.232,0.054-0.786,0.089-1.376,0.089c-0.465,0-1.001-0.053-1.233-0.089
			l-0.894-2.448h-4.288l-0.84,2.448c-0.393,0.054-0.857,0.089-1.322,0.089c-0.464,0-1-0.035-1.269-0.089l4.217-12.079
			c0.25-0.054,0.84-0.089,1.233-0.089c0.482,0,1.054,0.036,1.25,0.089L190.705,162.105z M186.435,157.531l-1.055-3.413
			c-0.125-0.393-0.25-0.894-0.357-1.447h-0.035c-0.09,0.554-0.232,1.055-0.357,1.447l-1.001,3.413H186.435z"/>
		<path style="fill:#1A2A4F;" d="M199.938,152.546c-0.857-0.268-1.93-0.465-2.787-0.465c-2.037,0-3.359,1.448-3.359,4.039
			c0,2.376,1.036,3.931,3.342,3.931c0.857,0,1.822-0.179,2.68-0.447c0.125,0.322,0.215,0.822,0.215,1.197
			c0,0.304-0.019,0.68-0.054,0.84c-0.894,0.411-2.037,0.644-3.092,0.644c-3.841,0-5.735-2.323-5.735-6.111
			c0-3.681,2.037-6.325,5.843-6.325c0.93,0,2.145,0.232,3.002,0.607c0.054,0.179,0.071,0.572,0.071,0.804
			C200.062,151.813,199.991,152.332,199.938,152.546z"/>
		<path style="fill:#1A2A4F;" d="M209.887,152.546c-0.857-0.268-1.93-0.465-2.787-0.465c-2.037,0-3.359,1.448-3.359,4.039
			c0,2.376,1.036,3.931,3.342,3.931c0.857,0,1.822-0.179,2.68-0.447c0.125,0.322,0.215,0.822,0.215,1.197
			c0,0.304-0.019,0.68-0.054,0.84c-0.894,0.411-2.037,0.644-3.092,0.644c-3.841,0-5.735-2.323-5.735-6.111
			c0-3.681,2.037-6.325,5.843-6.325c0.93,0,2.145,0.232,3.002,0.607c0.054,0.179,0.071,0.572,0.071,0.804
			C210.012,151.813,209.94,152.332,209.887,152.546z"/>
		<path style="fill:#1A2A4F;" d="M216.101,162.284c-3.306,0-5.057-2.287-5.057-6.218c0-3.932,1.751-6.218,5.057-6.218
			s5.057,2.287,5.057,6.218C221.157,159.997,219.406,162.284,216.101,162.284z M216.101,152.046c-1.536,0-2.412,1.179-2.412,4.021
			c0,2.841,0.876,4.02,2.412,4.02c1.537,0,2.412-1.179,2.412-4.02C218.513,153.225,217.638,152.046,216.101,152.046z"/>
		<path style="fill:#1A2A4F;" d="M232.232,157.514c0,3.073-1.18,4.771-4.61,4.771c-3.467,0-4.557-1.697-4.557-4.771v-7.487
			c0.357-0.054,0.822-0.089,1.251-0.089c0.5,0,0.947,0.036,1.305,0.089v7.666c0,1.644,0.465,2.572,2.019,2.572
			c1.555,0,2.091-0.929,2.091-2.572v-7.666c0.321-0.054,0.857-0.089,1.269-0.089c0.394,0,0.93,0.036,1.233,0.089V157.514z"/>
		<path style="fill:#1A2A4F;" d="M244.378,162.105c-0.179,0.036-0.607,0.071-0.911,0.071s-0.607-0.018-0.894-0.071l-5.557-7.737
			v7.737c-0.144,0.036-0.679,0.089-1.18,0.089c-0.411,0-0.894-0.053-1.144-0.089v-12.079c0.286-0.054,0.626-0.072,0.947-0.072
			c0.34,0,0.697,0.036,0.965,0.072l5.45,7.593v-7.593c0.357-0.054,0.821-0.089,1.161-0.089s0.84,0.036,1.161,0.089V162.105z"/>
		<path style="fill:#1A2A4F;" d="M254.916,152.207h-3.199v9.898c-0.339,0.054-0.821,0.089-1.269,0.089
			c-0.446,0-0.929-0.035-1.286-0.089v-9.898h-3.198c-0.071-0.232-0.125-0.787-0.125-1.091c0-0.303,0.071-0.857,0.143-1.089h8.935
			c0.071,0.232,0.125,0.786,0.125,1.089C255.041,151.42,254.987,151.975,254.916,152.207z"/>
		<path style="fill:#1A2A4F;" d="M259.074,162.105c-0.339,0.054-0.75,0.089-1.286,0.089c-0.482,0-0.929-0.035-1.269-0.089v-12.079
			c0.34-0.054,0.84-0.089,1.286-0.089c0.501,0,0.947,0.036,1.269,0.089V162.105z"/>
		<path style="fill:#1A2A4F;" d="M271.312,162.105c-0.179,0.036-0.607,0.071-0.911,0.071s-0.607-0.018-0.894-0.071l-5.557-7.737
			v7.737c-0.144,0.036-0.679,0.089-1.18,0.089c-0.411,0-0.894-0.053-1.144-0.089v-12.079c0.286-0.054,0.626-0.072,0.947-0.072
			c0.34,0,0.697,0.036,0.965,0.072l5.45,7.593v-7.593c0.357-0.054,0.821-0.089,1.161-0.089s0.84,0.036,1.161,0.089V162.105z"/>
		<path style="fill:#1A2A4F;" d="M282.922,161.641c-0.929,0.411-2.447,0.644-3.859,0.644c-4.021,0-5.789-2.573-5.789-6.093
			c0-3.681,2.18-6.343,6.058-6.343c1.107,0,2.376,0.232,3.127,0.554c0.054,0.286,0.089,0.714,0.089,0.912
			c0,0.393-0.071,0.821-0.143,1.09c-0.769-0.25-1.876-0.411-2.895-0.411c-2.573,0-3.592,1.876-3.592,4.163
			c0,2.431,1.072,3.984,3.234,3.984c0.482,0,0.946-0.035,1.215-0.106v-3.86c0.34-0.053,0.804-0.089,1.251-0.089
			c0.5,0,0.982,0.036,1.304,0.089V161.641z"/>
	</g>
	<g>
		<path style="fill:#1A2A4F;" d="M112.79,180.146c-0.197,0.036-0.786,0.089-1.162,0.089c-0.357,0-1.072-0.035-1.304-0.089
			l3.842-12.437c0.268-0.054,0.75-0.089,1.197-0.089c0.465,0,0.983,0.035,1.269,0.089L112.79,180.146z"/>
		<path style="fill:#1A2A4F;" d="M131.547,179.968c-0.322,0.054-0.769,0.089-1.269,0.089c-0.5,0-0.947-0.035-1.287-0.089v-5.003
			h-4.199v5.003c-0.339,0.054-0.732,0.089-1.269,0.089c-0.482,0-0.947-0.035-1.286-0.089v-12.079
			c0.339-0.054,0.839-0.089,1.286-0.089c0.5,0,0.947,0.035,1.269,0.089v4.896h4.199v-4.896c0.393-0.054,0.84-0.089,1.287-0.089
			c0.429,0,0.965,0.035,1.269,0.089V179.968z"/>
		<path style="fill:#1A2A4F;" d="M143.174,175.376c0,3.073-1.179,4.771-4.61,4.771c-3.466,0-4.556-1.697-4.556-4.771v-7.487
			c0.357-0.054,0.822-0.089,1.25-0.089c0.5,0,0.947,0.035,1.305,0.089v7.666c0,1.644,0.464,2.572,2.019,2.572
			c1.554,0,2.09-0.929,2.09-2.572v-7.666c0.322-0.054,0.858-0.089,1.269-0.089c0.393,0,0.929,0.035,1.233,0.089V175.376z"/>
		<path style="fill:#1A2A4F;" d="M157.661,179.968c-0.215,0.054-0.697,0.089-1.197,0.089c-0.536,0-1.036-0.053-1.251-0.089
			l-0.214-7.255l-2.646,6.111c-0.195,0.071-0.625,0.107-0.893,0.107c-0.322,0-0.715-0.036-0.912-0.09l-2.645-6.129l-0.232,7.255
			c-0.232,0.054-0.786,0.089-1.269,0.089c-0.286,0-0.769-0.035-1.09-0.089l0.519-12.079c0.339-0.035,0.679-0.089,1.036-0.089
			c0.429,0,0.84,0.035,1.054,0.089l3.538,8.202l3.556-8.202c0.357-0.054,0.715-0.089,1.036-0.089c0.411,0,0.786,0.035,1.055,0.089
			L157.661,179.968z"/>
		<path style="fill:#1A2A4F;" d="M170.182,179.968c-0.232,0.054-0.786,0.089-1.376,0.089c-0.465,0-1.001-0.053-1.233-0.089
			l-0.894-2.448h-4.288l-0.84,2.448c-0.393,0.054-0.857,0.089-1.322,0.089c-0.464,0-1-0.035-1.269-0.089l4.217-12.079
			c0.25-0.054,0.84-0.089,1.233-0.089c0.482,0,1.054,0.035,1.25,0.089L170.182,179.968z M165.911,175.394l-1.055-3.413
			c-0.125-0.393-0.25-0.894-0.357-1.447h-0.035c-0.09,0.554-0.232,1.055-0.357,1.447l-1.001,3.413H165.911z"/>
		<path style="fill:#1A2A4F;" d="M181.291,179.968c-0.179,0.036-0.607,0.071-0.911,0.071s-0.607-0.018-0.894-0.071l-5.557-7.737
			v7.737c-0.144,0.036-0.679,0.089-1.18,0.089c-0.411,0-0.894-0.053-1.144-0.089v-12.079c0.286-0.054,0.626-0.071,0.947-0.071
			c0.34,0,0.697,0.036,0.965,0.071l5.45,7.594v-7.594c0.357-0.054,0.821-0.089,1.161-0.089s0.84,0.035,1.161,0.089V179.968z"/>
		<path style="fill:#1A2A4F;" d="M196.562,179.95c-0.465,0.071-0.947,0.106-1.501,0.106c-0.5,0-1-0.018-1.34-0.089l-2.448-4.342
			h-1.054v4.342c-0.447,0.071-0.822,0.089-1.305,0.089c-0.429,0-0.804-0.018-1.251-0.089v-12.079
			c0.822-0.054,2.537-0.089,3.574-0.089c3.037,0,4.556,1.072,4.556,3.859c0,1.483-0.893,2.966-2.144,3.502L196.562,179.95z
			 M191.397,169.891c-0.393,0-0.875,0.018-1.179,0.035v3.574h0.894c1.465,0,2.108-0.536,2.108-1.858
			S192.577,169.891,191.397,169.891z"/>
		<path style="fill:#1A2A4F;" d="M205.761,179.968h-7.559v-12.079h7.397c0.071,0.197,0.125,0.572,0.125,1.072
			c0,0.394-0.035,0.732-0.125,1.108h-4.842v2.608h4.092c0.071,0.196,0.125,0.554,0.125,1.054c0,0.394-0.036,0.715-0.125,1.091
			h-4.092v2.966h5.003c0.071,0.196,0.125,0.571,0.125,1.072C205.886,179.253,205.85,179.593,205.761,179.968z"/>
		<path style="fill:#1A2A4F;" d="M211.01,180.146c-1.305,0-2.734-0.25-3.752-0.715c-0.054-0.25-0.09-0.571-0.09-0.857
			c0-0.429,0.054-0.84,0.179-1.322c1.055,0.429,2.448,0.696,3.538,0.696c1.269,0,1.947-0.589,1.947-1.394
			c0-0.894-0.571-1.269-2.305-1.805c-1.93-0.589-3.342-1.519-3.342-3.591c0-2.216,1.912-3.449,4.432-3.449
			c1.161,0,2.197,0.179,2.895,0.411c0.054,0.196,0.09,0.519,0.09,0.982c0,0.34-0.036,0.858-0.107,1.145
			c-0.894-0.232-1.912-0.357-2.734-0.357c-1.34,0-2.072,0.446-2.072,1.161c0,0.84,0.661,1.179,2.27,1.68
			c1.93,0.607,3.358,1.519,3.358,3.663C215.315,178.735,213.476,180.146,211.01,180.146z"/>
		<path style="fill:#1A2A4F;" d="M221.709,180.146c-3.306,0-5.057-2.287-5.057-6.218c0-3.932,1.751-6.219,5.057-6.219
			s5.057,2.287,5.057,6.219C226.766,177.859,225.015,180.146,221.709,180.146z M221.709,169.908c-1.536,0-2.412,1.179-2.412,4.021
			c0,2.841,0.876,4.02,2.412,4.02c1.537,0,2.412-1.179,2.412-4.02C224.121,171.087,223.246,169.908,221.709,169.908z"/>
		<path style="fill:#1A2A4F;" d="M237.84,175.376c0,3.073-1.18,4.771-4.61,4.771c-3.467,0-4.557-1.697-4.557-4.771v-7.487
			c0.357-0.054,0.822-0.089,1.251-0.089c0.5,0,0.947,0.035,1.305,0.089v7.666c0,1.644,0.465,2.572,2.019,2.572
			c1.555,0,2.091-0.929,2.091-2.572v-7.666c0.321-0.054,0.857-0.089,1.269-0.089c0.394,0,0.93,0.035,1.233,0.089V175.376z"/>
		<path style="fill:#1A2A4F;" d="M249.182,179.95c-0.465,0.071-0.947,0.106-1.501,0.106c-0.5,0-1-0.018-1.34-0.089l-2.448-4.342
			h-1.054v4.342c-0.447,0.071-0.822,0.089-1.305,0.089c-0.429,0-0.804-0.018-1.251-0.089v-12.079
			c0.822-0.054,2.537-0.089,3.574-0.089c3.037,0,4.556,1.072,4.556,3.859c0,1.483-0.894,2.966-2.144,3.502L249.182,179.95z
			 M244.018,169.891c-0.393,0-0.875,0.018-1.179,0.035v3.574h0.894c1.465,0,2.108-0.536,2.108-1.858
			S245.197,169.891,244.018,169.891z"/>
		<path style="fill:#1A2A4F;" d="M258.845,170.408c-0.857-0.268-1.93-0.465-2.787-0.465c-2.037,0-3.359,1.447-3.359,4.039
			c0,2.376,1.036,3.931,3.342,3.931c0.857,0,1.822-0.179,2.68-0.447c0.125,0.322,0.215,0.822,0.215,1.197
			c0,0.304-0.019,0.68-0.054,0.84c-0.894,0.411-2.037,0.644-3.092,0.644c-3.841,0-5.735-2.323-5.735-6.111
			c0-3.681,2.037-6.325,5.843-6.325c0.93,0,2.145,0.232,3.002,0.607c0.054,0.179,0.071,0.572,0.071,0.805
			C258.97,169.676,258.898,170.194,258.845,170.408z"/>
		<path style="fill:#1A2A4F;" d="M268.365,179.968h-7.559v-12.079h7.397c0.071,0.197,0.125,0.572,0.125,1.072
			c0,0.394-0.035,0.732-0.125,1.108h-4.842v2.608h4.092c0.071,0.196,0.125,0.554,0.125,1.054c0,0.394-0.036,0.715-0.125,1.091
			h-4.092v2.966h5.003c0.071,0.196,0.125,0.571,0.125,1.072C268.49,179.253,268.454,179.593,268.365,179.968z"/>
	</g>
	<g>
		<path style="fill:#1A2A4F;" d="M123.314,197.829c-0.214,0.054-0.697,0.089-1.197,0.089c-0.536,0-1.037-0.053-1.251-0.089
			l-0.214-7.255l-2.645,6.111c-0.196,0.071-0.625,0.107-0.893,0.107c-0.322,0-0.715-0.036-0.912-0.09l-2.645-6.129l-0.232,7.255
			c-0.232,0.054-0.786,0.089-1.269,0.089c-0.286,0-0.769-0.035-1.09-0.089l0.519-12.079c0.339-0.035,0.679-0.089,1.036-0.089
			c0.429,0,0.84,0.035,1.054,0.089l3.538,8.202l3.556-8.202c0.357-0.054,0.715-0.089,1.036-0.089c0.411,0,0.786,0.035,1.054,0.089
			L123.314,197.829z"/>
		<path style="fill:#1A2A4F;" d="M135.834,197.829c-0.232,0.054-0.786,0.089-1.376,0.089c-0.464,0-1-0.053-1.232-0.089l-0.894-2.448
			h-4.289l-0.84,2.448c-0.393,0.054-0.857,0.089-1.322,0.089c-0.464,0-1-0.035-1.269-0.089l4.217-12.079
			c0.25-0.054,0.84-0.089,1.233-0.089c0.482,0,1.054,0.035,1.251,0.089L135.834,197.829z M131.563,193.255l-1.054-3.413
			c-0.125-0.393-0.25-0.894-0.357-1.447h-0.036c-0.089,0.554-0.232,1.055-0.357,1.447l-1,3.413H131.563z"/>
		<path style="fill:#1A2A4F;" d="M146.943,197.829c-0.179,0.036-0.607,0.071-0.911,0.071s-0.607-0.018-0.894-0.071l-5.557-7.737
			v7.737c-0.143,0.036-0.679,0.089-1.179,0.089c-0.411,0-0.894-0.053-1.144-0.089V185.75c0.286-0.054,0.625-0.071,0.947-0.071
			c0.339,0,0.697,0.036,0.965,0.071l5.45,7.594v-7.594c0.357-0.054,0.822-0.089,1.162-0.089c0.339,0,0.84,0.035,1.161,0.089V197.829
			z"/>
		<path style="fill:#1A2A4F;" d="M159.59,197.829c-0.232,0.054-0.786,0.089-1.376,0.089c-0.465,0-1.001-0.053-1.233-0.089
			l-0.894-2.448h-4.288l-0.84,2.448c-0.393,0.054-0.857,0.089-1.322,0.089c-0.464,0-1-0.035-1.269-0.089l4.217-12.079
			c0.251-0.054,0.84-0.089,1.233-0.089c0.482,0,1.054,0.035,1.25,0.089L159.59,197.829z M155.319,193.255l-1.055-3.413
			c-0.125-0.393-0.25-0.894-0.357-1.447h-0.035c-0.09,0.554-0.232,1.055-0.357,1.447l-1.001,3.413H155.319z"/>
		<path style="fill:#1A2A4F;" d="M169.681,197.364c-0.929,0.411-2.447,0.644-3.859,0.644c-4.021,0-5.789-2.573-5.789-6.093
			c0-3.681,2.18-6.344,6.058-6.344c1.107,0,2.376,0.232,3.127,0.555c0.054,0.285,0.089,0.714,0.089,0.911
			c0,0.393-0.071,0.821-0.143,1.09c-0.769-0.25-1.876-0.411-2.895-0.411c-2.573,0-3.592,1.876-3.592,4.163
			c0,2.431,1.072,3.984,3.234,3.984c0.482,0,0.946-0.035,1.215-0.106v-3.86c0.34-0.053,0.804-0.089,1.251-0.089
			c0.5,0,0.982,0.036,1.304,0.089V197.364z"/>
		<path style="fill:#1A2A4F;" d="M179.486,197.829h-7.559V185.75h7.397c0.071,0.197,0.125,0.572,0.125,1.072
			c0,0.394-0.035,0.732-0.125,1.108h-4.842v2.608h4.092c0.071,0.196,0.125,0.554,0.125,1.054c0,0.394-0.036,0.715-0.125,1.091
			h-4.092v2.966h5.003c0.071,0.196,0.125,0.571,0.125,1.072C179.611,197.114,179.575,197.454,179.486,197.829z"/>
		<path style="fill:#1A2A4F;" d="M193.688,197.829c-0.214,0.054-0.696,0.089-1.197,0.089c-0.535,0-1.036-0.053-1.25-0.089
			l-0.215-7.255l-2.645,6.111c-0.196,0.071-0.625,0.107-0.894,0.107c-0.321,0-0.715-0.036-0.911-0.09l-2.645-6.129l-0.232,7.255
			c-0.231,0.054-0.786,0.089-1.269,0.089c-0.285,0-0.768-0.035-1.09-0.089l0.519-12.079c0.339-0.035,0.679-0.089,1.036-0.089
			c0.429,0,0.84,0.035,1.055,0.089l3.537,8.202l3.556-8.202c0.357-0.054,0.715-0.089,1.037-0.089c0.41,0,0.786,0.035,1.054,0.089
			L193.688,197.829z"/>
		<path style="fill:#1A2A4F;" d="M203.635,197.829h-7.559V185.75h7.397c0.071,0.197,0.125,0.572,0.125,1.072
			c0,0.394-0.035,0.732-0.125,1.108h-4.842v2.608h4.092c0.071,0.196,0.125,0.554,0.125,1.054c0,0.394-0.036,0.715-0.125,1.091
			h-4.092v2.966h5.003c0.071,0.196,0.125,0.571,0.125,1.072C203.76,197.114,203.724,197.454,203.635,197.829z"/>
		<path style="fill:#1A2A4F;" d="M215.299,197.829c-0.179,0.036-0.607,0.071-0.911,0.071s-0.607-0.018-0.894-0.071l-5.557-7.737
			v7.737c-0.144,0.036-0.679,0.089-1.18,0.089c-0.411,0-0.894-0.053-1.144-0.089V185.75c0.286-0.054,0.626-0.071,0.947-0.071
			c0.34,0,0.697,0.036,0.965,0.071l5.45,7.594v-7.594c0.357-0.054,0.821-0.089,1.161-0.089s0.84,0.035,1.161,0.089V197.829z"/>
		<path style="fill:#1A2A4F;" d="M225.837,187.931h-3.199v9.898c-0.339,0.054-0.821,0.089-1.269,0.089
			c-0.446,0-0.929-0.035-1.286-0.089v-9.898h-3.198c-0.071-0.232-0.125-0.787-0.125-1.091s0.071-0.857,0.143-1.09h8.935
			c0.071,0.232,0.125,0.786,0.125,1.09S225.908,187.698,225.837,187.931z"/>
	</g>
</g>
</svg>
