<?xml version="1.0" encoding="utf-8"?>
<!-- Generator: Adobe Illustrator 16.0.0, SVG Export Plug-In . SVG Version: 6.00 Build 0)  -->
<!DOCTYPE svg PUBLIC "-//W3C//DTD SVG 1.0//EN" "http://www.w3.org/TR/2001/REC-SVG-20010904/DTD/svg10.dtd">
<svg version="1.0" xmlns="http://www.w3.org/2000/svg" xmlns:xlink="http://www.w3.org/1999/xlink" x="0px" y="0px" width="300px"
	 height="300px" viewBox="0 0 300 300" style="enable-background:new 0 0 300 300;" xml:space="preserve">
<g id="Icon">
	<path style="fill:#B4A168;" d="M143.876,150.056c-10.099,0-19.89-2.67-28.471-7.657c7.574-2.147,13.558-6.025,17.899-9.716
		l0.281,0.509c0.905,1.633,2.612,2.612,4.425,2.612c0.351,0,0.707-0.04,1.06-0.114l2.122-0.454c2.365-0.506,4.042-2.621,3.998-5.043
		l-0.131-7.205c2.203-1.452,5.735-3.855,9.998-7.056l7.212,15.949c0.834,2.243,2.901,4.695,6.233,4.695
		c1.055,0,2.651-0.278,4.267-1.602c1.741-1.427,4.979-4.086,4.301-9.199c-0.07-0.503-0.301-2.542-0.614-5.343l1.357-1.224
		c2.834-2.562,3.059-6.954,0.497-9.786c-0.22-0.242-0.454-0.467-0.701-0.67c0.852-1.109,1.347-2.445,1.419-3.872
		c0.095-1.847-0.534-3.619-1.774-4.99c-0.54-0.6-1.18-1.092-1.878-1.465c4.887-4.898,9.138-9.802,12.667-14.628
		c2.293-3.021,3.204-7.949-0.187-11.702c-1.651-1.835-3.924-2.843-6.383-2.843c-2.562,0-4.576,1.068-5.232,1.463
		c-5.163,3.026-10.479,6.753-15.844,11.124c-0.292-0.721-0.715-1.405-1.269-2.017c-1.31-1.449-3.182-2.278-5.144-2.278
		c-1.293,0-2.547,0.356-3.635,1.024c-0.178-0.264-0.378-0.52-0.597-0.765c-1.31-1.449-3.186-2.278-5.143-2.278
		c-1.717,0-3.366,0.632-4.643,1.783l-1.357,1.225c-3.741-0.81-4.939-1.08-5.251-1.155c-0.765-0.178-1.525-0.272-2.256-0.272
		c-3.688,0-5.969,2.264-7.332,3.618c-1.633,1.625-2.345,3.75-1.953,5.836c0.54,2.884,2.843,4.361,3.947,4.915l15.151,8.804
		c-3.616,3.914-6.367,7.185-8.033,9.232l-7.154-0.865c-0.206-0.022-0.411-0.039-0.611-0.039c-2.17,0-4.128,1.396-4.81,3.504
		l-0.667,2.061c-0.375,1.168-0.309,2.39,0.131,3.469c-2.047,0.309-4.094,0.468-6.105,0.468c-12.814,0-26.508-6.506-26.508-24.773
		c0-31.275,25.442-56.721,56.721-56.721c31.273,0,56.719,25.446,56.719,56.721C200.596,124.608,175.149,150.056,143.876,150.056
		 M143.876,31.554c-34.121,0-61.779,27.663-61.779,61.781c0,20.289,14.872,29.833,31.566,29.833c5.604,0,11.407-1.074,16.928-3.179
		l-6.139-4.259l0.667-2.061l9.963,1.202c0,0,5.347-7.021,13.917-15.744l-20.87-12.127c0,0-2.433-1.058-0.795-2.685
		c1.332-1.321,2.331-2.15,3.766-2.15c0.336,0,0.693,0.044,1.085,0.139c0.648,0.153,3.824,0.845,7.891,1.719l3.279-2.96
		c0.356-0.319,0.807-0.483,1.252-0.483c0.511,0,1.023,0.208,1.39,0.614c0.69,0.765,0.626,1.956-0.133,2.643l-1.288,1.16
		c1.604,0.348,3.257,0.704,4.873,1.049l3.285-2.965c0.355-0.32,0.801-0.481,1.248-0.481c0.513,0,1.024,0.208,1.392,0.614
		c0.689,0.765,0.626,1.95-0.134,2.642l-1.288,1.158c2.651,0.566,4.951,1.062,6.476,1.39c5.588-4.795,11.822-9.493,18.4-13.34
		c0,0,1.213-0.754,2.643-0.754c0.87,0,1.821,0.281,2.628,1.174c2.139,2.368-0.111,5.291-0.111,5.291
		c-4.497,6.155-9.805,11.875-15.143,16.951c0.173,1.549,0.429,3.889,0.726,6.581l1.286-1.16c0.355-0.32,0.804-0.481,1.251-0.481
		c0.512,0,1.021,0.208,1.386,0.612c0.689,0.768,0.634,1.956-0.131,2.646l-3.285,2.965c0.181,1.641,0.369,3.318,0.548,4.951
		l1.288-1.157c0.356-0.323,0.804-0.481,1.251-0.481c0.513,0,1.019,0.206,1.389,0.614c0.689,0.762,0.629,1.95-0.136,2.64l-3.28,2.966
		c0.459,4.133,0.829,7.362,0.912,8.024c0.284,2.111-0.706,3.151-2.492,4.62c-0.4,0.325-0.75,0.453-1.057,0.453
		c-1.051,0-1.535-1.519-1.535-1.519l-9.941-21.991c-9.552,7.639-17.079,12.25-17.079,12.25l0.184,10.03l-2.12,0.456l-3.477-6.289
		c-5.927,6.573-16.537,14.57-31.359,14.57c-0.298,0-0.59-0.003-0.893-0.009c10.979,10,25.574,16.094,41.595,16.094
		c34.117,0,61.776-27.66,61.776-61.775C205.652,59.217,177.993,31.554,143.876,31.554"/>
</g>
<g id="Text" style="display:none;">
	<text transform="matrix(1 0 0 1 18.2007 197.0088)" style="display:inline;"><tspan x="0" y="0" style="fill:#B4A168; font-family:'FSMatthew-Bold'; font-size:31.63;">7T</tspan><tspan x="34.065" y="0" style="fill:#B4A168; font-family:'FSMatthew-Bold'; font-size:31.63;">H</tspan></text>
	<text transform="matrix(1 0 0 1 73.1079 197.0088)" style="display:inline;"><tspan x="0" y="0" style="fill:#1A2A4F; font-family:'FSMatthew-Bold'; font-size:31.63;"> </tspan><tspan x="6.832" y="0" style="fill:#1A2A4F; font-family:'FSMatthew-Bold'; font-size:31.63; letter-spacing:-1;">F</tspan><tspan x="22.267" y="0" style="fill:#1A2A4F; font-family:'FSMatthew-Bold'; font-size:31.63;">OR</tspan><tspan x="61.33" y="0" style="fill:#1A2A4F; font-family:'FSMatthew-Bold'; font-size:31.63; letter-spacing:-1;"> </tspan><tspan x="66.58" y="0" style="fill:#1A2A4F; font-family:'FSMatthew-Bold'; font-size:31.63;">T</tspan><tspan x="83.123" y="0" style="fill:#1A2A4F; font-family:'FSMatthew-Bold'; font-size:31.63;">O</tspan><tspan x="103.523" y="0" style="fill:#1A2A4F; font-family:'FSMatthew-Bold'; font-size:31.63;">U</tspan><tspan x="123.988" y="0" style="fill:#1A2A4F; font-family:'FSMatthew-Bold'; font-size:31.63;">R</tspan><tspan x="142.65" y="0" style="fill:#1A2A4F; font-family:'FSMatthew-Bold'; font-size:31.63;">IS</tspan><tspan x="168.492" y="0" style="fill:#1A2A4F; font-family:'FSMatthew-Bold'; font-size:31.63;">M</tspan><tspan x="194.175" y="0" style="fill:#1A2A4F; font-family:'FSMatthew-Bold'; font-size:31.63;">, </tspan></text>
	<text transform="matrix(1 0 0 1 63.2876 226.7012)" style="display:inline;"><tspan x="0" y="0" style="fill:#1A2A4F; font-family:'FSMatthew-Bold'; font-size:31.63;">T</tspan><tspan x="17.017" y="0" style="fill:#1A2A4F; font-family:'FSMatthew-Bold'; font-size:31.63;">R</tspan><tspan x="36.248" y="0" style="fill:#1A2A4F; font-family:'FSMatthew-Bold'; font-size:31.63;">AN</tspan><tspan x="78.315" y="0" style="fill:#1A2A4F; font-family:'FSMatthew-Bold'; font-size:31.63;">S</tspan><tspan x="95.08" y="0" style="fill:#1A2A4F; font-family:'FSMatthew-Bold'; font-size:31.63;">PO</tspan><tspan x="133.351" y="0" style="fill:#1A2A4F; font-family:'FSMatthew-Bold'; font-size:31.63;">R</tspan><tspan x="151.347" y="0" style="fill:#1A2A4F; font-family:'FSMatthew-Bold'; font-size:31.63;">T</tspan></text>
	<text transform="matrix(1 0 0 1 60.062 256.3975)" style="display:inline;"><tspan x="0" y="0" style="fill:#1A2A4F; font-family:'FSMatthew-Bold'; font-size:31.63;">AND</tspan><tspan x="62.658" y="0" style="fill:#1A2A4F; font-family:'FSMatthew-Bold'; font-size:31.63; letter-spacing:-1;"> </tspan><tspan x="67.908" y="0" style="fill:#1A2A4F; font-family:'FSMatthew-Bold'; font-size:31.63;">T</tspan><tspan x="84.925" y="0" style="fill:#1A2A4F; font-family:'FSMatthew-Bold'; font-size:31.63;">R</tspan><tspan x="104.157" y="0" style="fill:#1A2A4F; font-family:'FSMatthew-Bold'; font-size:31.63; letter-spacing:-2;">A</tspan><tspan x="122.786" y="0" style="fill:#1A2A4F; font-family:'FSMatthew-Bold'; font-size:31.63;">V</tspan><tspan x="141.668" y="0" style="fill:#1A2A4F; font-family:'FSMatthew-Bold'; font-size:31.63;">E</tspan><tspan x="158.528" y="0" style="fill:#1A2A4F; font-family:'FSMatthew-Bold'; font-size:31.63;">L</tspan></text>
</g>
<g id="Text_Flat">
	<g>
		<path style="fill:#B4A168;" d="M33.985,179.2l-8.414,17.809c-0.601,0.095-1.518,0.158-2.309,0.158s-1.993-0.063-2.531-0.158
			l8.572-17.492H19.75c-0.063-0.442-0.158-1.233-0.158-1.961c0-0.664,0.063-1.455,0.19-1.93h14.361
			c0.095,0.411,0.189,1.075,0.189,1.739C34.333,177.998,34.206,178.726,33.985,179.2z"/>
		<path style="fill:#B4A168;" d="M51.824,179.485h-5.662v17.523c-0.601,0.095-1.455,0.158-2.246,0.158
			c-0.791,0-1.645-0.063-2.277-0.158v-17.523h-5.662c-0.126-0.411-0.221-1.393-0.221-1.93c0-0.538,0.126-1.519,0.253-1.93h15.815
			c0.127,0.411,0.222,1.392,0.222,1.93C52.045,178.093,51.951,179.074,51.824,179.485z"/>
		<path style="fill:#B4A168;" d="M71.118,197.009c-0.569,0.095-1.36,0.158-2.246,0.158s-1.676-0.063-2.277-0.158v-8.856h-7.434
			v8.856c-0.601,0.095-1.297,0.158-2.246,0.158c-0.854,0-1.677-0.063-2.277-0.158v-21.383c0.601-0.095,1.486-0.158,2.277-0.158
			c0.886,0,1.676,0.063,2.246,0.158v8.667h7.434v-8.667c0.696-0.095,1.487-0.158,2.277-0.158c0.759,0,1.708,0.063,2.246,0.158
			V197.009z"/>
	</g>
	<g>
		<path style="fill:#1A2A4F;" d="M95.249,179.485h-8.414v4.618h7.085c0.126,0.348,0.222,0.98,0.222,1.866
			c0,0.695-0.063,1.265-0.222,1.929h-7.085v9.11c-0.601,0.095-1.297,0.158-2.246,0.158c-0.854,0-1.677-0.063-2.277-0.158v-21.383
			h12.937c0.126,0.348,0.222,1.012,0.222,1.897C95.471,178.22,95.407,178.82,95.249,179.485z"/>
		<path style="fill:#1A2A4F;" d="M105.718,197.325c-5.852,0-8.952-4.049-8.952-11.008s3.1-11.008,8.952-11.008
			c5.852,0,8.952,4.049,8.952,11.008S111.57,197.325,105.718,197.325z M105.718,179.2c-2.72,0-4.27,2.088-4.27,7.117
			s1.55,7.117,4.27,7.117c2.721,0,4.271-2.088,4.271-7.117S108.439,179.2,105.718,179.2z"/>
		<path style="fill:#1A2A4F;" d="M133.901,196.978c-0.823,0.126-1.677,0.189-2.657,0.189c-0.886,0-1.771-0.031-2.373-0.158
			l-4.333-7.687h-1.866v7.687c-0.791,0.127-1.455,0.158-2.309,0.158c-0.759,0-1.423-0.031-2.214-0.158v-21.383
			c1.455-0.095,4.492-0.158,6.326-0.158c5.377,0,8.066,1.897,8.066,6.832c0,2.626-1.582,5.251-3.796,6.2L133.901,196.978z
			 M124.759,179.169c-0.696,0-1.55,0.031-2.088,0.062v6.327h1.582c2.594,0,3.733-0.949,3.733-3.29S126.847,179.169,124.759,179.169z
			"/>
		<path style="fill:#1A2A4F;" d="M156.264,179.485h-5.663v17.523c-0.601,0.095-1.455,0.158-2.246,0.158
			c-0.791,0-1.645-0.063-2.277-0.158v-17.523h-5.662c-0.126-0.411-0.222-1.393-0.222-1.93c0-0.538,0.127-1.519,0.253-1.93h15.816
			c0.125,0.411,0.221,1.392,0.221,1.93C156.484,178.093,156.389,179.074,156.264,179.485z"/>
		<path style="fill:#1A2A4F;" d="M166.574,197.325c-5.854,0-8.953-4.049-8.953-11.008s3.1-11.008,8.953-11.008
			c5.852,0,8.951,4.049,8.951,11.008S172.426,197.325,166.574,197.325z M166.574,179.2c-2.721,0-4.271,2.088-4.271,7.117
			s1.551,7.117,4.271,7.117c2.719,0,4.27-2.088,4.27-7.117S169.293,179.2,166.574,179.2z"/>
		<path style="fill:#1A2A4F;" d="M195.137,188.88c0,5.44-2.088,8.445-8.162,8.445c-6.137,0-8.066-3.005-8.066-8.445v-13.254
			c0.633-0.095,1.455-0.158,2.215-0.158c0.885,0,1.676,0.063,2.309,0.158v13.57c0,2.909,0.822,4.555,3.574,4.555
			s3.701-1.646,3.701-4.555v-13.57c0.57-0.095,1.52-0.158,2.246-0.158c0.695,0,1.645,0.063,2.184,0.158V188.88z"/>
		<path style="fill:#1A2A4F;" d="M215.221,196.978c-0.822,0.126-1.676,0.189-2.656,0.189c-0.887,0-1.771-0.031-2.373-0.158
			l-4.334-7.687h-1.865v7.687c-0.791,0.127-1.455,0.158-2.309,0.158c-0.76,0-1.424-0.031-2.215-0.158v-21.383
			c1.455-0.095,4.492-0.158,6.326-0.158c5.377,0,8.066,1.897,8.066,6.832c0,2.626-1.582,5.251-3.797,6.2L215.221,196.978z
			 M206.08,179.169c-0.697,0-1.551,0.031-2.088,0.062v6.327h1.582c2.594,0,3.732-0.949,3.732-3.29S208.168,179.169,206.08,179.169z"
			/>
		<path style="fill:#1A2A4F;" d="M222.717,197.009c-0.602,0.095-1.328,0.158-2.277,0.158c-0.855,0-1.645-0.063-2.246-0.158v-21.383
			c0.602-0.095,1.486-0.158,2.277-0.158c0.885,0,1.676,0.063,2.246,0.158V197.009z"/>
		<path style="fill:#1A2A4F;" d="M233.027,197.325c-2.309,0-4.84-0.443-6.643-1.266c-0.094-0.442-0.158-1.012-0.158-1.518
			c0-0.76,0.096-1.487,0.316-2.341c1.867,0.759,4.334,1.233,6.264,1.233c2.246,0,3.447-1.044,3.447-2.468
			c0-1.581-1.012-2.245-4.08-3.194c-3.416-1.044-5.914-2.688-5.914-6.358c0-3.922,3.383-6.104,7.844-6.104
			c2.057,0,3.891,0.316,5.125,0.728c0.094,0.348,0.158,0.917,0.158,1.74c0,0.601-0.064,1.518-0.191,2.023
			c-1.58-0.411-3.383-0.632-4.838-0.632c-2.373,0-3.67,0.79-3.67,2.056c0,1.486,1.17,2.088,4.018,2.974
			c3.416,1.075,5.945,2.688,5.945,6.484C240.65,194.826,237.393,197.325,233.027,197.325z"/>
		<path style="fill:#1A2A4F;" d="M265.607,197.009c-0.379,0.095-1.234,0.158-2.119,0.158c-0.949,0-1.834-0.095-2.215-0.158
			l-0.379-12.843l-4.682,10.818c-0.348,0.127-1.107,0.189-1.582,0.189c-0.568,0-1.266-0.062-1.613-0.158l-4.682-10.85l-0.41,12.843
			c-0.412,0.095-1.393,0.158-2.246,0.158c-0.506,0-1.359-0.063-1.93-0.158l0.918-21.383c0.6-0.063,1.201-0.158,1.834-0.158
			c0.76,0,1.486,0.063,1.867,0.158l6.262,14.519l6.295-14.519c0.633-0.095,1.266-0.158,1.834-0.158c0.729,0,1.393,0.063,1.867,0.158
			L265.607,197.009z"/>
		<path style="fill:#1A2A4F;" d="M268.896,202.734c-0.506-0.349-1.172-1.013-1.361-1.74c1.33-0.949,2.311-2.088,2.752-3.258
			c-0.6-0.538-1.074-1.297-1.074-2.341c0-1.233,1.074-2.246,2.34-2.246c1.424,0,2.373,1.044,2.373,2.594
			C273.926,198.211,271.617,201.152,268.896,202.734z"/>
	</g>
	<g>
		<path style="fill:#1A2A4F;" d="M79.862,209.178h-5.662v17.523c-0.601,0.095-1.455,0.158-2.246,0.158
			c-0.791,0-1.645-0.063-2.277-0.158v-17.523h-5.662c-0.126-0.411-0.222-1.393-0.222-1.93c0-0.538,0.127-1.519,0.253-1.93h15.815
			c0.126,0.411,0.222,1.392,0.222,1.93C80.084,207.785,79.989,208.767,79.862,209.178z"/>
		<path style="fill:#1A2A4F;" d="M98.43,226.67c-0.823,0.126-1.677,0.189-2.657,0.189c-0.886,0-1.771-0.031-2.373-0.158
			l-4.333-7.687H87.2v7.687c-0.791,0.127-1.455,0.158-2.309,0.158c-0.759,0-1.423-0.031-2.214-0.158v-21.383
			c1.455-0.095,4.492-0.158,6.326-0.158c5.377,0,8.066,1.897,8.066,6.832c0,2.626-1.582,5.251-3.796,6.2L98.43,226.67z
			 M89.288,208.861c-0.696,0-1.55,0.031-2.088,0.062v6.327h1.582c2.594,0,3.733-0.949,3.733-3.29S91.375,208.861,89.288,208.861z"/>
		<path style="fill:#1A2A4F;" d="M119.843,226.701c-0.412,0.095-1.392,0.158-2.436,0.158c-0.822,0-1.771-0.095-2.182-0.158
			l-1.582-4.334h-7.591l-1.487,4.334c-0.696,0.095-1.518,0.158-2.341,0.158c-0.822,0-1.771-0.063-2.246-0.158l7.465-21.383
			c0.443-0.095,1.487-0.158,2.183-0.158c0.854,0,1.866,0.063,2.214,0.158L119.843,226.701z M112.283,218.604l-1.866-6.042
			c-0.222-0.695-0.443-1.581-0.633-2.562h-0.063c-0.158,0.98-0.412,1.866-0.633,2.562l-1.771,6.042H112.283z"/>
		<path style="fill:#1A2A4F;" d="M139.517,226.701c-0.316,0.063-1.076,0.127-1.613,0.127s-1.075-0.032-1.582-0.127l-9.837-13.696
			v13.696c-0.253,0.063-1.202,0.158-2.087,0.158c-0.728,0-1.582-0.095-2.024-0.158v-21.383c0.506-0.095,1.107-0.127,1.676-0.127
			c0.601,0,1.233,0.063,1.708,0.127l9.647,13.443v-13.443c0.633-0.095,1.455-0.158,2.056-0.158s1.487,0.063,2.056,0.158V226.701z"/>
		<path style="fill:#1A2A4F;" d="M149.795,227.018c-2.309,0-4.839-0.443-6.643-1.266c-0.095-0.442-0.158-1.012-0.158-1.518
			c0-0.76,0.095-1.487,0.316-2.341c1.866,0.759,4.333,1.233,6.263,1.233c2.247,0,3.448-1.044,3.448-2.468
			c0-1.581-1.012-2.245-4.081-3.194c-3.416-1.044-5.915-2.688-5.915-6.358c0-3.922,3.385-6.104,7.845-6.104
			c2.055,0,3.891,0.316,5.124,0.728c0.096,0.348,0.158,0.917,0.158,1.739c0,0.602-0.062,1.519-0.189,2.025
			c-1.582-0.412-3.385-0.633-4.84-0.633c-2.372,0-3.668,0.79-3.668,2.056c0,1.486,1.17,2.088,4.016,2.974
			c3.418,1.075,5.947,2.688,5.947,6.484C157.418,224.519,154.16,227.018,149.795,227.018z"/>
		<path style="fill:#1A2A4F;" d="M167.477,219.046h-2.215v7.655c-0.6,0.095-1.328,0.158-2.277,0.158
			c-0.854,0-1.645-0.063-2.246-0.158V205.35c1.836-0.095,4.619-0.189,6.422-0.189c4.84,0,8.352,1.677,8.352,6.706
			C175.512,216.769,172.443,219.046,167.477,219.046z M167.35,208.893c-0.633,0-1.455,0.031-2.088,0.063v6.295h1.961
			c2.436,0,3.732-0.633,3.732-3.227C170.955,209.81,169.85,208.893,167.35,208.893z"/>
		<path style="fill:#1A2A4F;" d="M186.58,227.018c-5.852,0-8.951-4.049-8.951-11.008s3.1-11.008,8.951-11.008
			s8.951,4.049,8.951,11.008S192.432,227.018,186.58,227.018z M186.58,208.893c-2.721,0-4.27,2.088-4.27,7.117
			s1.549,7.117,4.27,7.117s4.27-2.088,4.27-7.117S189.301,208.893,186.58,208.893z"/>
		<path style="fill:#1A2A4F;" d="M214.764,226.67c-0.822,0.126-1.678,0.189-2.658,0.189c-0.885,0-1.771-0.031-2.371-0.158
			l-4.334-7.687h-1.867v7.687c-0.791,0.127-1.455,0.158-2.309,0.158c-0.76,0-1.424-0.031-2.215-0.158v-21.383
			c1.455-0.095,4.492-0.158,6.326-0.158c5.379,0,8.066,1.897,8.066,6.832c0,2.626-1.58,5.251-3.795,6.2L214.764,226.67z
			 M205.621,208.861c-0.695,0-1.549,0.031-2.088,0.062v6.327h1.582c2.594,0,3.732-0.949,3.732-3.29S207.709,208.861,205.621,208.861
			z"/>
		<path style="fill:#1A2A4F;" d="M231.211,209.178h-5.662v17.523c-0.602,0.095-1.455,0.158-2.246,0.158s-1.645-0.063-2.277-0.158
			v-17.523h-5.662c-0.127-0.411-0.223-1.393-0.223-1.93c0-0.538,0.127-1.519,0.254-1.93h15.816c0.125,0.411,0.221,1.392,0.221,1.93
			C231.432,207.785,231.336,208.767,231.211,209.178z"/>
	</g>
	<g>
		<path style="fill:#1A2A4F;" d="M80.37,256.397c-0.412,0.095-1.392,0.158-2.436,0.158c-0.822,0-1.771-0.095-2.182-0.158
			l-1.582-4.334h-7.591l-1.487,4.334c-0.696,0.095-1.518,0.158-2.341,0.158c-0.822,0-1.771-0.063-2.246-0.158l7.465-21.383
			c0.443-0.095,1.487-0.158,2.183-0.158c0.854,0,1.866,0.063,2.214,0.158L80.37,256.397z M72.81,248.3l-1.866-6.042
			c-0.222-0.695-0.443-1.581-0.633-2.562h-0.063c-0.158,0.98-0.412,1.866-0.633,2.562l-1.771,6.042H72.81z"/>
		<path style="fill:#1A2A4F;" d="M100.043,256.397c-0.316,0.063-1.076,0.127-1.613,0.127s-1.075-0.032-1.582-0.127l-9.837-13.696
			v13.696c-0.253,0.063-1.202,0.158-2.087,0.158c-0.728,0-1.582-0.095-2.024-0.158v-21.383c0.506-0.095,1.107-0.127,1.676-0.127
			c0.601,0,1.233,0.063,1.708,0.127l9.647,13.443v-13.443c0.633-0.095,1.455-0.158,2.056-0.158s1.487,0.063,2.056,0.158V256.397z"/>
		<path style="fill:#1A2A4F;" d="M118.261,254.5c-1.961,1.518-4.491,2.056-7.971,2.056c-1.771,0-4.776-0.063-5.789-0.158v-21.383
			c1.55-0.095,4.776-0.158,6.579-0.158c6.959,0,10.533,2.941,10.533,10.597C121.614,249.407,120.57,252.696,118.261,254.5z
			 M111.176,238.589c-0.854,0-1.803,0.031-2.151,0.063v14.076c0.411,0.031,1.36,0.062,2.341,0.062c3.986,0,5.567-2.53,5.567-7.401
			C116.933,240.044,115.288,238.589,111.176,238.589z"/>
		<path style="fill:#1A2A4F;" d="M144.545,238.874h-5.662v17.523c-0.601,0.095-1.455,0.158-2.246,0.158
			c-0.791,0-1.645-0.063-2.277-0.158v-17.523h-5.662c-0.126-0.411-0.222-1.393-0.222-1.93c0-0.538,0.127-1.519,0.253-1.93h15.815
			c0.126,0.411,0.222,1.392,0.222,1.93C144.767,237.481,144.671,238.463,144.545,238.874z"/>
		<path style="fill:#1A2A4F;" d="M163.111,256.366c-0.822,0.126-1.676,0.189-2.656,0.189c-0.885,0-1.771-0.031-2.373-0.158
			l-4.332-7.687h-1.867v7.687c-0.791,0.127-1.455,0.158-2.309,0.158c-0.759,0-1.423-0.031-2.214-0.158v-21.383
			c1.455-0.095,4.492-0.158,6.326-0.158c5.377,0,8.066,1.897,8.066,6.832c0,2.626-1.582,5.251-3.795,6.2L163.111,256.366z
			 M153.971,238.558c-0.695,0-1.551,0.031-2.088,0.062v6.327h1.582c2.594,0,3.732-0.949,3.732-3.29S156.059,238.558,153.971,238.558
			z"/>
		<path style="fill:#1A2A4F;" d="M184.525,256.397c-0.41,0.095-1.391,0.158-2.436,0.158c-0.822,0-1.771-0.095-2.182-0.158
			l-1.582-4.334h-7.592l-1.486,4.334c-0.695,0.095-1.52,0.158-2.342,0.158s-1.771-0.063-2.246-0.158l7.467-21.383
			c0.441-0.095,1.486-0.158,2.182-0.158c0.854,0,1.867,0.063,2.215,0.158L184.525,256.397z M176.965,248.3l-1.865-6.042
			c-0.221-0.695-0.443-1.581-0.633-2.562h-0.062c-0.158,0.98-0.412,1.866-0.633,2.562L172,248.3H176.965z"/>
		<path style="fill:#1A2A4F;" d="M191.293,247.034c0.475,1.329,0.949,2.815,1.172,4.081h0.062c0.221-1.266,0.664-2.752,1.139-4.081
			l2.342-6.769c0.6-1.74,0.947-3.416,0.98-5.251c0.631-0.095,1.518-0.158,2.244-0.158c0.666,0,1.613,0.063,2.184,0.158
			c0,2.119-0.379,4.144-1.234,6.39l-5.725,14.993c-0.379,0.095-1.266,0.158-2.025,0.158c-0.854,0-1.549-0.063-2.119-0.158
			l-5.629-14.93c-0.855-2.246-1.234-4.334-1.234-6.453c0.568-0.095,1.328-0.158,2.277-0.158c0.729,0,1.645,0.063,2.215,0.158
			c0,1.961,0.348,3.511,0.949,5.251L191.293,247.034z"/>
		<path style="fill:#1A2A4F;" d="M217.484,256.397h-13.381v-21.383h13.096c0.127,0.348,0.221,1.012,0.221,1.897
			c0,0.696-0.062,1.297-0.221,1.962h-8.572v4.618h7.244c0.125,0.348,0.221,0.98,0.221,1.866c0,0.695-0.062,1.265-0.221,1.929h-7.244
			v5.251h8.857c0.125,0.349,0.221,1.013,0.221,1.898C217.705,255.132,217.641,255.733,217.484,256.397z"/>
		<path style="fill:#1A2A4F;" d="M234.057,256.397h-13.096v-21.383c0.602-0.095,1.424-0.158,2.215-0.158
			c0.887,0,1.74,0.063,2.309,0.158v17.523h8.572c0.127,0.349,0.223,1.013,0.223,1.898
			C234.279,255.132,234.215,255.733,234.057,256.397z"/>
	</g>
</g>
</svg>
