<?xml version="1.0" encoding="utf-8"?>
<!-- Generator: Adobe Illustrator 16.0.0, SVG Export Plug-In . SVG Version: 6.00 Build 0)  -->
<!DOCTYPE svg PUBLIC "-//W3C//DTD SVG 1.0//EN" "http://www.w3.org/TR/2001/REC-SVG-20010904/DTD/svg10.dtd">
<svg version="1.0" xmlns="http://www.w3.org/2000/svg" xmlns:xlink="http://www.w3.org/1999/xlink" x="0px" y="0px" width="300px"
	 height="300px" viewBox="0 0 300 300" style="enable-background:new 0 0 300 300;" xml:space="preserve">
<g id="Icons">
	<path style="fill:#B4A168;" d="M167.483,62.521v7.747c-11.546-4.306-24.541-4.297-36.079,0.027v-7.773H167.483z"/>
	<path style="fill:#B4A168;" d="M149.481,69.823c-26.916,0-48.733,21.818-48.733,48.732s21.818,48.73,48.733,48.73
		c26.913,0,48.733-21.816,48.733-48.73S176.394,69.823,149.481,69.823"/>
	<path style="fill:#E44398;" d="M177.412,17.76v38.393l10.208-7.238c0.191-0.138,0.354-0.255,0.354-0.427V17.76H177.412z
		 M129.232,17.76l-0.024,42.061h42.632V17.76H129.232z M113.323,17.76v30.73c0,0.17,0.156,0.292,0.35,0.425l10.088,6.873V17.76
		H113.323z"/>
	<path style="fill:#D6CAAA;" d="M149.481,75.254c0.803,0,1.454-0.65,1.454-1.454c0-0.803-0.651-1.454-1.454-1.454
		c-0.804,0-1.454,0.651-1.454,1.454C148.027,74.604,148.677,75.254,149.481,75.254"/>
	<path style="fill:#D6CAAA;" d="M149.481,164.764c0.803,0,1.454-0.65,1.454-1.454c0-0.803-0.651-1.454-1.454-1.454
		c-0.804,0-1.454,0.651-1.454,1.454C148.027,164.113,148.677,164.764,149.481,164.764"/>
	<path style="fill:#D6CAAA;" d="M138.273,76.73c0.776-0.208,1.237-1.004,1.029-1.781c-0.208-0.775-1.006-1.235-1.782-1.027
		c-0.776,0.208-1.236,1.005-1.028,1.78C136.7,76.478,137.498,76.938,138.273,76.73"/>
	<path style="fill:#D6CAAA;" d="M161.439,163.189c0.775-0.209,1.237-1.005,1.029-1.781c-0.209-0.775-1.007-1.235-1.782-1.027
		c-0.776,0.208-1.236,1.004-1.028,1.779C159.868,162.938,160.664,163.397,161.439,163.189"/>
	<path style="fill:#D6CAAA;" d="M127.831,81.054c0.695-0.401,0.934-1.29,0.533-1.986c-0.402-0.695-1.292-0.933-1.987-0.532
		s-0.934,1.291-0.533,1.986C126.246,81.219,127.135,81.455,127.831,81.054"/>
	<path style="fill:#D6CAAA;" d="M172.585,158.572c0.696-0.401,0.935-1.289,0.533-1.986c-0.401-0.695-1.291-0.934-1.986-0.532
		s-0.934,1.291-0.533,1.986C171,158.736,171.891,158.974,172.585,158.572"/>
	<path style="fill:#D6CAAA;" d="M118.862,87.936c0.567-0.567,0.569-1.488,0-2.057c-0.566-0.567-1.49-0.567-2.057,0
		c-0.569,0.568-0.567,1.49,0,2.057C117.374,88.505,118.294,88.505,118.862,87.936"/>
	<path style="fill:#D6CAAA;" d="M182.157,151.23c0.567-0.567,0.568-1.489,0-2.057c-0.567-0.567-1.491-0.567-2.059,0
		c-0.568,0.568-0.565,1.49,0,2.057C180.669,151.799,181.589,151.799,182.157,151.23"/>
	<path style="fill:#D6CAAA;" d="M111.98,96.904c0.401-0.695,0.163-1.585-0.532-1.987c-0.695-0.401-1.585-0.163-1.986,0.533
		c-0.401,0.695-0.163,1.585,0.533,1.986C110.691,97.839,111.58,97.6,111.98,96.904"/>
	<path style="fill:#D6CAAA;" d="M189.499,141.659c0.4-0.695,0.164-1.585-0.533-1.986c-0.694-0.401-1.585-0.163-1.986,0.532
		c-0.402,0.696-0.162,1.585,0.533,1.987C188.21,142.593,189.098,142.354,189.499,141.659"/>
	<path style="fill:#D6CAAA;" d="M107.655,107.347c0.208-0.775-0.25-1.571-1.027-1.78c-0.775-0.209-1.573,0.252-1.781,1.029
		c-0.208,0.775,0.253,1.571,1.028,1.78C106.652,108.585,107.447,108.122,107.655,107.347"/>
	<path style="fill:#D6CAAA;" d="M194.114,130.513c0.207-0.775-0.25-1.571-1.027-1.78c-0.775-0.208-1.575,0.252-1.781,1.029
		c-0.209,0.775,0.254,1.571,1.028,1.779C193.111,131.751,193.906,131.291,194.114,130.513"/>
	<path style="fill:#D6CAAA;" d="M106.18,118.555c0-0.804-0.65-1.454-1.454-1.454c-0.803,0-1.454,0.65-1.454,1.454
		c0,0.803,0.651,1.453,1.454,1.453C105.53,120.007,106.18,119.357,106.18,118.555"/>
	<path style="fill:#D6CAAA;" d="M195.689,118.555c0-0.804-0.649-1.454-1.453-1.454c-0.803,0-1.454,0.65-1.454,1.454
		c0,0.803,0.651,1.453,1.454,1.453C195.04,120.007,195.689,119.357,195.689,118.555"/>
	<path style="fill:#D6CAAA;" d="M107.656,129.761c-0.208-0.775-1.004-1.237-1.781-1.028c-0.775,0.209-1.235,1.006-1.027,1.781
		c0.207,0.777,1.004,1.237,1.78,1.029C107.405,131.334,107.865,130.538,107.656,129.761"/>
	<path style="fill:#D6CAAA;" d="M194.114,106.594c-0.208-0.775-1.005-1.236-1.781-1.028c-0.776,0.21-1.236,1.006-1.027,1.781
		c0.206,0.777,1.005,1.237,1.779,1.029C193.861,108.167,194.321,107.372,194.114,106.594"/>
	<path style="fill:#D6CAAA;" d="M111.98,140.205c-0.401-0.695-1.29-0.935-1.986-0.532c-0.695,0.401-0.934,1.291-0.533,1.986
		c0.401,0.695,1.291,0.934,1.986,0.533C112.144,141.79,112.382,140.901,111.98,140.205"/>
	<path style="fill:#D6CAAA;" d="M189.499,95.45c-0.401-0.695-1.289-0.934-1.986-0.533c-0.695,0.402-0.936,1.292-0.533,1.987
		c0.401,0.695,1.292,0.934,1.986,0.532C189.663,97.035,189.899,96.146,189.499,95.45"/>
	<path style="fill:#D6CAAA;" d="M118.862,149.173c-0.566-0.567-1.488-0.569-2.057,0c-0.567,0.567-0.567,1.49,0,2.057
		c0.568,0.568,1.49,0.567,2.057,0C119.432,150.662,119.432,149.742,118.862,149.173"/>
	<path style="fill:#D6CAAA;" d="M182.157,85.879c-0.567-0.567-1.488-0.569-2.059,0c-0.565,0.566-0.565,1.49,0,2.057
		c0.57,0.569,1.491,0.567,2.059,0C182.726,87.368,182.726,86.448,182.157,85.879"/>
	<path style="fill:#D6CAAA;" d="M127.831,156.056c-0.695-0.402-1.585-0.165-1.987,0.532c-0.401,0.695-0.163,1.585,0.533,1.986
		c0.695,0.4,1.585,0.162,1.987-0.533C128.764,157.345,128.526,156.456,127.831,156.056"/>
	<path style="fill:#D6CAAA;" d="M172.585,78.536c-0.694-0.401-1.585-0.163-1.986,0.532c-0.4,0.695-0.162,1.585,0.533,1.986
		s1.585,0.163,1.986-0.532C173.52,79.825,173.281,78.937,172.585,78.536"/>
	<path style="fill:#D6CAAA;" d="M138.273,160.379c-0.775-0.208-1.571,0.251-1.781,1.027c-0.208,0.775,0.252,1.573,1.028,1.781
		c0.775,0.208,1.573-0.253,1.782-1.028C139.51,161.382,139.049,160.587,138.273,160.379"/>
	<path style="fill:#D6CAAA;" d="M161.441,73.92c-0.777-0.208-1.573,0.25-1.781,1.027c-0.21,0.775,0.252,1.573,1.028,1.781
		c0.775,0.208,1.571-0.253,1.78-1.028C162.678,74.924,162.217,74.129,161.441,73.92"/>
	<path style="fill:#B4A168;" d="M149.481,76.889c-23.013,0-41.666,18.653-41.666,41.666c0,23.011,18.653,41.664,41.666,41.664
		c23.009,0,41.667-18.653,41.667-41.664C191.147,95.542,172.49,76.889,149.481,76.889"/>
	<circle style="fill:none;stroke:#C1B081;stroke-width:0.511;stroke-miterlimit:10;" cx="149.481" cy="118.554" r="41.665"/>
	<rect x="87.84" y="280.322" style="fill:#4A4E65;" width="123.282" height="2.466"/>
</g>
<g id="Text" style="display:none;">
	<g style="display:inline;">
		<defs>
			<path id="SVGID_1_" d="M107.813,118.555c0,23.011,18.655,41.664,41.668,41.664c23.009,0,41.665-18.653,41.665-41.664
				S172.49,76.89,149.481,76.89C126.468,76.89,107.813,95.544,107.813,118.555"/>
		</defs>
		<clipPath id="SVGID_2_">
			<use xlink:href="#SVGID_1_"  style="overflow:visible;"/>
		</clipPath>
		<path style="clip-path:url(#SVGID_2_);fill:#C1B081;" d="M161.943,82.682c-1.062-0.211-4.353-0.531-6.156-0.531
			c-1.593,0-4.671,0.213-6.157,0.531l-24.94,15.283c0.956,3.822,3.502,8.278,7.109,11.568l15.072-9.976v54.871
			c1.911,0.318,4.564,0.529,7.537,0.529c3.077,0,5.942-0.211,7.535-0.529V82.682z"/>
	</g>
	<text transform="matrix(1 0 0 1 94.3682 185.5459)" style="display:inline;"><tspan x="0" y="0" style="fill:#1A2A4F; font-family:'FSMatthew-Medium'; font-size:10.8727;">WINN</tspan><tspan x="25.279" y="0" style="fill:#1A2A4F; font-family:'FSMatthew-Medium'; font-size:10.8727;">E</tspan><tspan x="30.411" y="0" style="fill:#1A2A4F; font-family:'FSMatthew-Medium'; font-size:10.8727;">R</tspan><tspan x="35.89" y="0" style="fill:#1A2A4F; font-family:'FSMatthew-Medium'; font-size:10.8727;">S O</tspan><tspan x="50.427" y="0" style="fill:#1A2A4F; font-family:'FSMatthew-Medium'; font-size:10.8727;">F</tspan><tspan x="55.504" y="0" style="fill:#1A2A4F; font-family:'FSMatthew-Medium'; font-size:10.8727;"> </tspan><tspan x="57.06" y="0" style="fill:#1A2A4F; font-family:'FSMatthew-Medium'; font-size:10.8727;">T</tspan><tspan x="62.245" y="0" style="fill:#1A2A4F; font-family:'FSMatthew-Medium'; font-size:10.8727;">HE </tspan><tspan x="76.369" y="0" style="fill:#1A2A4F; font-family:'FSMatthew-Medium'; font-size:10.8727;">R</tspan><tspan x="81.815" y="0" style="fill:#1A2A4F; font-family:'FSMatthew-Medium'; font-size:10.8727;">O</tspan><tspan x="88.894" y="0" style="fill:#1A2A4F; font-family:'FSMatthew-Medium'; font-size:10.8727;">Y</tspan><tspan x="93.896" y="0" style="fill:#1A2A4F; font-family:'FSMatthew-Medium'; font-size:10.8727;">A</tspan><tspan x="100.332" y="0" style="fill:#1A2A4F; font-family:'FSMatthew-Medium'; font-size:10.8727;">L</tspan><tspan x="104.931" y="0" style="fill:#1A2A4F; font-family:'FSMatthew-Medium'; font-size:10.8727;"> </tspan></text>
	<text transform="matrix(1 0 0 1 104.1035 195.877)" style="display:inline;"><tspan x="0" y="0" style="fill:#1A2A4F; font-family:'FSMatthew-Medium'; font-size:10.8727;">S</tspan><tspan x="5.154" y="0" style="fill:#1A2A4F; font-family:'FSMatthew-Medium'; font-size:10.8727;">O</tspan><tspan x="12.427" y="0" style="fill:#1A2A4F; font-family:'FSMatthew-Medium'; font-size:10.8727;">CIE</tspan><tspan x="26.062" y="0" style="fill:#1A2A4F; font-family:'FSMatthew-Medium'; font-size:10.8727;">T</tspan><tspan x="31.443" y="0" style="fill:#1A2A4F; font-family:'FSMatthew-Medium'; font-size:10.8727;">Y OF </tspan><tspan x="53.688" y="0" style="fill:#1A2A4F; font-family:'FSMatthew-Medium'; font-size:10.8727;">U</tspan><tspan x="60.506" y="0" style="fill:#1A2A4F; font-family:'FSMatthew-Medium'; font-size:10.8727;">L</tspan><tspan x="65.431" y="0" style="fill:#1A2A4F; font-family:'FSMatthew-Medium'; font-size:10.8727;">S</tspan><tspan x="70.182" y="0" style="fill:#1A2A4F; font-family:'FSMatthew-Medium'; font-size:10.8727;">TE</tspan><tspan x="80.521" y="0" style="fill:#1A2A4F; font-family:'FSMatthew-Medium'; font-size:10.8727;">R </tspan></text>
	<text transform="matrix(1 0 0 1 99.3818 273.1045)" style="display:inline;"><tspan x="0" y="0" style="fill:#1A2A4F; font-family:'FSMatthew'; font-size:9.3407;">(</tspan><tspan x="2.849" y="0" style="fill:#1A2A4F; font-family:'FSMatthew'; font-size:9.3407;">B</tspan><tspan x="7.865" y="0" style="fill:#1A2A4F; font-family:'FSMatthew'; font-size:9.3407;">A</tspan><tspan x="13.292" y="0" style="fill:#1A2A4F; font-family:'FSMatthew'; font-size:9.3407;"> H</tspan><tspan x="21.053" y="0" style="fill:#1A2A4F; font-family:'FSMatthew'; font-size:9.3407;">ON</tspan><tspan x="32.776" y="0" style="fill:#1A2A4F; font-family:'FSMatthew'; font-size:9.3407;">S</tspan><tspan x="37.409" y="0" style="fill:#1A2A4F; font-family:'FSMatthew'; font-size:9.3407;"> </tspan><tspan x="39.277" y="0" style="fill:#1A2A4F; font-family:'FSMatthew'; font-size:9.3407;">A</tspan><tspan x="44.713" y="0" style="fill:#1A2A4F; font-family:'FSMatthew'; font-size:9.3407;">R</tspan><tspan x="49.523" y="0" style="fill:#1A2A4F; font-family:'FSMatthew'; font-size:9.3407;">C</tspan><tspan x="54.642" y="0" style="fill:#1A2A4F; font-family:'FSMatthew'; font-size:9.3407;">H</tspan><tspan x="60.526" y="0" style="fill:#1A2A4F; font-family:'FSMatthew'; font-size:9.3407;">IT</tspan><tspan x="67.513" y="0" style="fill:#1A2A4F; font-family:'FSMatthew'; font-size:9.3407;">E</tspan><tspan x="71.996" y="0" style="fill:#1A2A4F; font-family:'FSMatthew'; font-size:9.3407;">C</tspan><tspan x="77.228" y="0" style="fill:#1A2A4F; font-family:'FSMatthew'; font-size:9.3407;">T</tspan><tspan x="81.981" y="0" style="fill:#1A2A4F; font-family:'FSMatthew'; font-size:9.3407;">U</tspan><tspan x="87.67" y="0" style="fill:#1A2A4F; font-family:'FSMatthew'; font-size:9.3407;">R</tspan><tspan x="92.677" y="0" style="fill:#1A2A4F; font-family:'FSMatthew'; font-size:9.3407;">E</tspan><tspan x="97.263" y="0" style="fill:#1A2A4F; font-family:'FSMatthew'; font-size:9.3407;">)</tspan></text>
	<text transform="matrix(1 0 0 1 98.1416 214.292)" style="display:inline;"><tspan x="0" y="0" style="fill:#1A2A4F; font-family:'FSMatthew-Bold'; font-size:18.4836;">A</tspan><tspan x="11.774" y="0" style="fill:#1A2A4F; font-family:'FSMatthew-Bold'; font-size:18.4836;">R</tspan><tspan x="22.272" y="0" style="fill:#1A2A4F; font-family:'FSMatthew-Bold'; font-size:18.4836;">CHI</tspan><tspan x="49.85" y="0" style="fill:#1A2A4F; font-family:'FSMatthew-Bold'; font-size:18.4836;">T</tspan><tspan x="59.591" y="0" style="fill:#1A2A4F; font-family:'FSMatthew-Bold'; font-size:18.4836;">E</tspan><tspan x="69.035" y="0" style="fill:#1A2A4F; font-family:'FSMatthew-Bold'; font-size:18.4836;">C</tspan><tspan x="79.922" y="0" style="fill:#1A2A4F; font-family:'FSMatthew-Bold'; font-size:18.4836;">T</tspan><tspan x="89.441" y="0" style="fill:#1A2A4F; font-family:'FSMatthew-Bold'; font-size:18.4836;">S</tspan><tspan x="98.683" y="0" style="fill:#1A2A4F; font-family:'FSMatthew-Bold'; font-size:18.4836;">’ </tspan></text>
	<text transform="matrix(1 0 0 1 100.1006 231.2812)" style="display:inline;"><tspan x="0" y="0" style="fill:#1A2A4F; font-family:'FSMatthew-Bold'; font-size:18.4836;">P</tspan><tspan x="10.258" y="0" style="fill:#1A2A4F; font-family:'FSMatthew-Bold'; font-size:18.4836;">RESI</tspan><tspan x="45.358" y="0" style="fill:#1A2A4F; font-family:'FSMatthew-Bold'; font-size:18.4836;">D</tspan><tspan x="57.206" y="0" style="fill:#1A2A4F; font-family:'FSMatthew-Bold'; font-size:18.4836;">E</tspan><tspan x="66.873" y="0" style="fill:#1A2A4F; font-family:'FSMatthew-Bold'; font-size:18.4836;">N</tspan><tspan x="79.312" y="0" style="fill:#1A2A4F; font-family:'FSMatthew-Bold'; font-size:18.4836;">T</tspan><tspan x="88.85" y="0" style="fill:#1A2A4F; font-family:'FSMatthew-Bold'; font-size:18.4836;">S</tspan></text>
	<text transform="matrix(1 0 0 1 120.7676 248.2695)" style="display:inline;"><tspan x="0" y="0" style="fill:#1A2A4F; font-family:'FSMatthew-Bold'; font-size:18.4836;">ME</tspan><tspan x="24.583" y="0" style="fill:#1A2A4F; font-family:'FSMatthew-Bold'; font-size:18.4836;">D</tspan><tspan x="35.969" y="0" style="fill:#1A2A4F; font-family:'FSMatthew-Bold'; font-size:18.4836;">A</tspan><tspan x="47.742" y="0" style="fill:#1A2A4F; font-family:'FSMatthew-Bold'; font-size:18.4836;">L</tspan></text>
	<text transform="matrix(1 0 0 1 92.543 261.8594)" style="display:inline;"><tspan x="0" y="0" style="fill:#B4A168; font-family:'FSMatthew-Medium'; font-size:15.2218;">7 Y</tspan><tspan x="18.402" y="0" style="fill:#B4A168; font-family:'FSMatthew-Medium'; font-size:15.2218;">E</tspan><tspan x="25.815" y="0" style="fill:#B4A168; font-family:'FSMatthew-Medium'; font-size:15.2218;">A</tspan><tspan x="34.827" y="0" style="fill:#B4A168; font-family:'FSMatthew-Medium'; font-size:15.2218;">R</tspan><tspan x="42.514" y="0" style="fill:#B4A168; font-family:'FSMatthew-Medium'; font-size:15.2218;">S </tspan><tspan x="52.667" y="0" style="fill:#B4A168; font-family:'FSMatthew-Medium'; font-size:15.2218;">OU</tspan><tspan x="72.394" y="0" style="fill:#B4A168; font-family:'FSMatthew-Medium'; font-size:15.2218; letter-spacing:-1;">T</tspan><tspan x="78.894" y="0" style="fill:#B4A168; font-family:'FSMatthew-Medium'; font-size:15.2218;"> </tspan><tspan x="81.831" y="0" style="fill:#B4A168; font-family:'FSMatthew-Medium'; font-size:15.2218;">O</tspan><tspan x="92.014" y="0" style="fill:#B4A168; font-family:'FSMatthew-Medium'; font-size:15.2218;">F </tspan><tspan x="102.075" y="0" style="fill:#B4A168; font-family:'FSMatthew-Medium'; font-size:15.2218;">8</tspan></text>
	<text transform="matrix(1 0 0 1 112.666 128.2656)" style="display:inline;"><tspan x="0" y="0" style="fill:#1A1A1A; font-family:'FSMatthew-Bold'; font-size:21.7454; letter-spacing:-1;">W</tspan><tspan x="17.918" y="0" style="fill:#1A1A1A; font-family:'FSMatthew-Bold'; font-size:21.7454; letter-spacing:-1;">I</tspan><tspan x="22.963" y="0" style="fill:#1A1A1A; font-family:'FSMatthew-Bold'; font-size:21.7454; letter-spacing:-1;">NNE</tspan><tspan x="60.69" y="0" style="fill:#1A1A1A; font-family:'FSMatthew-Bold'; font-size:21.7454;">R</tspan></text>
</g>
<g id="Text_Flat">
	<g>
		<defs>
			<path id="SVGID_3_" d="M107.813,118.555c0,23.011,18.655,41.664,41.668,41.664c23.009,0,41.665-18.653,41.665-41.664
				S172.49,76.89,149.481,76.89C126.468,76.89,107.813,95.544,107.813,118.555"/>
		</defs>
		<clipPath id="SVGID_4_">
			<use xlink:href="#SVGID_3_"  style="overflow:visible;"/>
		</clipPath>
		<path style="clip-path:url(#SVGID_4_);fill:#C1B081;" d="M161.943,82.682c-1.062-0.211-4.353-0.531-6.156-0.531
			c-1.593,0-4.671,0.213-6.157,0.531l-24.94,15.283c0.956,3.822,3.502,8.278,7.109,11.568l15.072-9.976v54.871
			c1.911,0.318,4.564,0.529,7.537,0.529c3.077,0,5.942-0.211,7.535-0.529V82.682z"/>
	</g>
	<g>
		<path style="fill:#1A2A4F;" d="M96.392,185.546l-1.86-7.333h1.001l0.871,3.71c0.217,0.914,0.413,1.828,0.544,2.535h0.021
			c0.12-0.729,0.348-1.6,0.599-2.546l0.979-3.699h0.99l0.892,3.721c0.207,0.871,0.402,1.741,0.511,2.514h0.021
			c0.152-0.806,0.359-1.621,0.588-2.535l0.968-3.699h0.968l-2.078,7.333h-0.99l-0.925-3.818c-0.228-0.936-0.38-1.654-0.479-2.394
			h-0.021c-0.131,0.729-0.294,1.446-0.566,2.394l-1.044,3.818H96.392z"/>
		<path style="fill:#1A2A4F;" d="M105.133,178.213v7.333h-0.947v-7.333H105.133z"/>
		<path style="fill:#1A2A4F;" d="M106.579,185.546v-7.333h1.034l2.35,3.71c0.544,0.859,0.968,1.632,1.316,2.383l0.021-0.011
			c-0.087-0.979-0.108-1.871-0.108-3.014v-3.068h0.892v7.333h-0.958l-2.328-3.721c-0.511-0.816-1.001-1.653-1.371-2.448
			l-0.033,0.011c0.055,0.925,0.076,1.807,0.076,3.024v3.134H106.579z"/>
		<path style="fill:#1A2A4F;" d="M113.526,185.546v-7.333h1.034l2.35,3.71c0.544,0.859,0.968,1.632,1.316,2.383l0.021-0.011
			c-0.087-0.979-0.108-1.871-0.108-3.014v-3.068h0.892v7.333h-0.958l-2.328-3.721c-0.511-0.816-1.001-1.653-1.371-2.448
			l-0.033,0.011c0.055,0.925,0.076,1.807,0.076,3.024v3.134H113.526z"/>
		<path style="fill:#1A2A4F;" d="M124.271,182.108h-2.851v2.644h3.177v0.794h-4.124v-7.333h3.96v0.794h-3.014v2.317h2.851V182.108z"
			/>
		<path style="fill:#1A2A4F;" d="M125.605,178.311c0.479-0.098,1.164-0.151,1.817-0.151c1.012,0,1.665,0.185,2.122,0.598
			c0.37,0.326,0.577,0.827,0.577,1.393c0,0.969-0.609,1.61-1.382,1.871v0.033c0.566,0.195,0.903,0.718,1.077,1.479
			c0.239,1.022,0.414,1.729,0.566,2.013h-0.979c-0.12-0.207-0.283-0.838-0.49-1.752c-0.218-1.012-0.609-1.393-1.469-1.425h-0.892
			v3.177h-0.947V178.311z M126.552,181.651h0.968c1.012,0,1.654-0.556,1.654-1.393c0-0.947-0.686-1.36-1.687-1.371
			c-0.457,0-0.783,0.044-0.936,0.087V181.651z"/>
		<path style="fill:#1A2A4F;" d="M130.955,184.393c0.424,0.261,1.044,0.479,1.697,0.479c0.968,0,1.534-0.511,1.534-1.251
			c0-0.686-0.392-1.077-1.382-1.458c-1.197-0.424-1.937-1.044-1.937-2.078c0-1.142,0.946-1.99,2.372-1.99
			c0.75,0,1.295,0.174,1.621,0.358l-0.261,0.772c-0.239-0.13-0.729-0.348-1.393-0.348c-1.001,0-1.381,0.599-1.381,1.099
			c0,0.686,0.446,1.022,1.458,1.414c1.24,0.479,1.872,1.077,1.872,2.154c0,1.132-0.838,2.11-2.568,2.11
			c-0.707,0-1.479-0.206-1.871-0.468L130.955,184.393z"/>
		<path style="fill:#1A2A4F;" d="M144.604,181.804c0,2.523-1.534,3.862-3.405,3.862c-1.937,0-3.296-1.502-3.296-3.722
			c0-2.328,1.447-3.851,3.405-3.851C143.309,178.094,144.604,179.627,144.604,181.804z M138.914,181.923
			c0,1.566,0.849,2.971,2.339,2.971c1.501,0,2.35-1.382,2.35-3.047c0-1.458-0.761-2.98-2.339-2.98
			C139.697,178.866,138.914,180.312,138.914,181.923z"/>
		<path style="fill:#1A2A4F;" d="M145.622,178.213h3.949v0.794h-3.002v2.438h2.774v0.783h-2.774v3.318h-0.947V178.213z"/>
		<path style="fill:#1A2A4F;" d="M153.647,179.019h-2.23v-0.806h5.429v0.806h-2.241v6.527h-0.957V179.019z"/>
		<path style="fill:#1A2A4F;" d="M158.387,178.213v3.068h3.547v-3.068h0.957v7.333h-0.957v-3.438h-3.547v3.438h-0.946v-7.333
			H158.387z"/>
		<path style="fill:#1A2A4F;" d="M168.12,182.108h-2.851v2.644h3.177v0.794h-4.123v-7.333h3.96v0.794h-3.014v2.317h2.851V182.108z"
			/>
		<path style="fill:#1A2A4F;" d="M171.564,178.311c0.479-0.098,1.164-0.151,1.816-0.151c1.012,0,1.665,0.185,2.122,0.598
			c0.369,0.326,0.576,0.827,0.576,1.393c0,0.969-0.609,1.61-1.382,1.871v0.033c0.566,0.195,0.903,0.718,1.077,1.479
			c0.239,1.022,0.413,1.729,0.565,2.013h-0.979c-0.12-0.207-0.283-0.838-0.49-1.752c-0.217-1.012-0.608-1.393-1.469-1.425h-0.892
			v3.177h-0.946V178.311z M172.511,181.651h0.968c1.013,0,1.654-0.556,1.654-1.393c0-0.947-0.686-1.36-1.687-1.371
			c-0.457,0-0.783,0.044-0.936,0.087V181.651z"/>
		<path style="fill:#1A2A4F;" d="M183.277,181.804c0,2.523-1.534,3.862-3.405,3.862c-1.937,0-3.297-1.502-3.297-3.722
			c0-2.328,1.447-3.851,3.405-3.851C181.982,178.094,183.277,179.627,183.277,181.804z M177.587,181.923
			c0,1.566,0.849,2.971,2.339,2.971c1.502,0,2.351-1.382,2.351-3.047c0-1.458-0.762-2.98-2.339-2.98
			C178.37,178.866,177.587,180.312,177.587,181.923z"/>
		<path style="fill:#1A2A4F;" d="M185.721,185.546v-3.111l-2.317-4.222h1.077l1.033,2.023c0.283,0.556,0.501,1.001,0.729,1.513
			h0.021c0.206-0.479,0.457-0.957,0.739-1.513l1.056-2.023h1.077l-2.459,4.211v3.122H185.721z"/>
		<path style="fill:#1A2A4F;" d="M190.276,183.239l-0.762,2.307h-0.979l2.491-7.333h1.142l2.503,7.333h-1.012l-0.783-2.307H190.276z
			 M192.681,182.5l-0.718-2.111c-0.163-0.479-0.272-0.913-0.381-1.338h-0.021c-0.109,0.436-0.229,0.881-0.37,1.327l-0.718,2.122
			H192.681z"/>
		<path style="fill:#1A2A4F;" d="M195.527,178.213h0.946v6.539h3.133v0.794h-4.079V178.213z"/>
	</g>
	<g>
		<path style="fill:#1A2A4F;" d="M104.8,194.724c0.424,0.261,1.044,0.479,1.697,0.479c0.968,0,1.534-0.511,1.534-1.251
			c0-0.686-0.392-1.077-1.382-1.458c-1.197-0.424-1.937-1.044-1.937-2.078c0-1.142,0.946-1.99,2.372-1.99
			c0.75,0,1.295,0.174,1.621,0.358l-0.261,0.772c-0.239-0.13-0.729-0.348-1.393-0.348c-1.001,0-1.382,0.599-1.382,1.099
			c0,0.686,0.446,1.022,1.458,1.414c1.24,0.479,1.872,1.077,1.872,2.154c0,1.132-0.838,2.11-2.568,2.11
			c-0.707,0-1.479-0.206-1.871-0.468L104.8,194.724z"/>
		<path style="fill:#1A2A4F;" d="M116.351,192.135c0,2.523-1.534,3.862-3.405,3.862c-1.937,0-3.296-1.502-3.296-3.722
			c0-2.328,1.447-3.851,3.405-3.851C115.056,188.425,116.351,189.959,116.351,192.135z M110.661,192.254
			c0,1.566,0.849,2.971,2.339,2.971c1.501,0,2.35-1.382,2.35-3.047c0-1.458-0.761-2.98-2.339-2.98
			C111.444,189.197,110.661,190.644,110.661,192.254z"/>
		<path style="fill:#1A2A4F;" d="M122.482,195.638c-0.348,0.174-1.044,0.348-1.937,0.348c-2.067,0-3.623-1.305-3.623-3.71
			c0-2.295,1.556-3.851,3.83-3.851c0.914,0,1.491,0.195,1.741,0.326l-0.229,0.772c-0.359-0.174-0.87-0.305-1.479-0.305
			c-1.719,0-2.861,1.099-2.861,3.024c0,1.795,1.034,2.948,2.818,2.948c0.577,0,1.164-0.119,1.545-0.305L122.482,195.638z"/>
		<path style="fill:#1A2A4F;" d="M124.404,188.544v7.333h-0.947v-7.333H124.404z"/>
		<path style="fill:#1A2A4F;" d="M129.646,192.439h-2.851v2.644h3.177v0.794h-4.124v-7.333h3.96v0.794h-3.014v2.317h2.851V192.439z"
			/>
		<path style="fill:#1A2A4F;" d="M132.384,189.35h-2.23v-0.806h5.429v0.806h-2.241v6.527h-0.958V189.35z"/>
		<path style="fill:#1A2A4F;" d="M138.006,195.877v-3.111l-2.317-4.222h1.077l1.033,2.023c0.283,0.556,0.5,1.001,0.729,1.513h0.022
			c0.207-0.479,0.457-0.957,0.74-1.513l1.055-2.023h1.077l-2.459,4.211v3.122H138.006z"/>
		<path style="fill:#1A2A4F;" d="M150.414,192.135c0,2.523-1.534,3.862-3.405,3.862c-1.937,0-3.296-1.502-3.296-3.722
			c0-2.328,1.447-3.851,3.405-3.851C149.12,188.425,150.414,189.959,150.414,192.135z M144.724,192.254
			c0,1.566,0.849,2.971,2.339,2.971c1.501,0,2.35-1.382,2.35-3.047c0-1.458-0.761-2.98-2.339-2.98
			C145.508,189.197,144.724,190.644,144.724,192.254z"/>
		<path style="fill:#1A2A4F;" d="M151.433,188.544h3.949v0.794h-3.003v2.438h2.774v0.783h-2.774v3.318h-0.946V188.544z"/>
		<path style="fill:#1A2A4F;" d="M159.565,188.544v4.341c0,1.644,0.729,2.34,1.708,2.34c1.088,0,1.784-0.719,1.784-2.34v-4.341
			h0.957v4.275c0,2.253-1.186,3.178-2.773,3.178c-1.502,0-2.633-0.86-2.633-3.134v-4.319H159.565z"/>
		<path style="fill:#1A2A4F;" d="M165.437,188.544h0.946v6.539h3.133v0.794h-4.079V188.544z"/>
		<path style="fill:#1A2A4F;" d="M170.23,194.724c0.424,0.261,1.045,0.479,1.697,0.479c0.968,0,1.534-0.511,1.534-1.251
			c0-0.686-0.392-1.077-1.382-1.458c-1.197-0.424-1.937-1.044-1.937-2.078c0-1.142,0.946-1.99,2.372-1.99
			c0.75,0,1.294,0.174,1.62,0.358l-0.261,0.772c-0.239-0.13-0.729-0.348-1.393-0.348c-1.001,0-1.382,0.599-1.382,1.099
			c0,0.686,0.446,1.022,1.458,1.414c1.24,0.479,1.871,1.077,1.871,2.154c0,1.132-0.838,2.11-2.567,2.11
			c-0.707,0-1.479-0.206-1.871-0.468L170.23,194.724z"/>
		<path style="fill:#1A2A4F;" d="M176.505,189.35h-2.23v-0.806h5.429v0.806h-2.241v6.527h-0.957V189.35z"/>
		<path style="fill:#1A2A4F;" d="M184.106,192.439h-2.851v2.644h3.177v0.794h-4.123v-7.333h3.96v0.794h-3.014v2.317h2.851V192.439z"
			/>
		<path style="fill:#1A2A4F;" d="M185.452,188.642c0.479-0.098,1.164-0.151,1.816-0.151c1.012,0,1.665,0.185,2.122,0.598
			c0.369,0.326,0.576,0.827,0.576,1.393c0,0.969-0.609,1.61-1.382,1.871v0.033c0.565,0.195,0.903,0.718,1.077,1.479
			c0.239,1.022,0.413,1.729,0.565,2.013h-0.979c-0.12-0.207-0.283-0.838-0.49-1.752c-0.217-1.012-0.608-1.393-1.469-1.425h-0.892
			v3.177h-0.946V188.642z M186.398,191.982h0.968c1.013,0,1.654-0.556,1.654-1.393c0-0.947-0.686-1.36-1.687-1.371
			c-0.457,0-0.783,0.043-0.936,0.087V191.982z"/>
	</g>
	<g>
		<path style="fill:#1A2A4F;" d="M101.417,274.15c-1.083-1.009-1.662-2.428-1.662-3.856s0.579-2.802,1.662-3.811
			c0.215,0.028,0.355,0.131,0.477,0.299c-0.916,1.083-1.261,2.307-1.261,3.539c0,1.252,0.345,2.447,1.261,3.53
			C101.772,274.02,101.632,274.122,101.417,274.15z"/>
		<path style="fill:#1A2A4F;" d="M106.433,272.777c-0.411,0.262-0.98,0.374-1.849,0.374c-0.514,0-1.009-0.01-1.653-0.047v-6.312
			c0.393-0.028,0.896-0.047,1.429-0.047c1.13,0,2.316,0.187,2.316,1.568c0,0.683-0.28,1.14-0.934,1.373v0.01
			c0.915,0.093,1.401,0.709,1.401,1.56C107.143,272.012,106.872,272.497,106.433,272.777z M105.405,267.67
			c-0.233-0.149-0.653-0.196-0.915-0.196c-0.224,0-0.439,0.009-0.625,0.019v1.924h0.579c0.766,0,1.326-0.178,1.326-1.037
			C105.77,268.024,105.63,267.81,105.405,267.67z M104.574,270.163h-0.709v2.231c0.187,0.019,0.495,0.028,0.709,0.028
			c0.971,0,1.644-0.225,1.644-1.167C106.218,270.387,105.714,270.163,104.574,270.163z"/>
		<path style="fill:#1A2A4F;" d="M111.29,271.61h-2.465l-0.485,1.494c-0.122,0.019-0.318,0.047-0.504,0.047
			c-0.131,0-0.317-0.019-0.439-0.047l2.176-6.312c0.112-0.028,0.346-0.047,0.467-0.047c0.131,0,0.346,0.028,0.43,0.047l2.334,6.312
			c-0.084,0.019-0.308,0.047-0.485,0.047c-0.14,0-0.364-0.01-0.504-0.047L111.29,271.61z M109.067,270.845h1.952l-0.747-2.147
			c-0.122-0.355-0.196-0.645-0.243-0.896h-0.009c-0.046,0.252-0.14,0.551-0.252,0.905L109.067,270.845z"/>
		<path style="fill:#1A2A4F;" d="M119.911,273.104c-0.149,0.019-0.29,0.047-0.439,0.047c-0.168,0-0.327-0.019-0.495-0.047v-2.802
			h-2.792v2.802c-0.159,0.028-0.327,0.047-0.495,0.047c-0.159,0-0.29-0.019-0.439-0.047v-6.312c0.112-0.019,0.28-0.047,0.43-0.047
			c0.168,0,0.336,0.019,0.504,0.047v2.745h2.792v-2.745c0.159-0.028,0.318-0.047,0.486-0.047c0.159,0,0.299,0.019,0.448,0.047
			V273.104z"/>
		<path style="fill:#1A2A4F;" d="M123.349,273.198c-1.531,0-2.503-1-2.503-3.241c0-2.185,0.99-3.259,2.521-3.259
			c1.532,0,2.484,1.074,2.484,3.259C125.852,272.198,124.88,273.198,123.349,273.198z M123.358,267.474
			c-0.953,0-1.531,0.645-1.531,2.465c0,1.793,0.569,2.484,1.522,2.484s1.522-0.691,1.522-2.484
			C124.871,268.118,124.311,267.474,123.358,267.474z"/>
		<path style="fill:#1A2A4F;" d="M131.643,273.104c-0.074,0.028-0.233,0.037-0.354,0.037c-0.112,0-0.224-0.009-0.327-0.037
			l-3.324-4.716v4.716c-0.084,0.028-0.308,0.047-0.448,0.047c-0.112,0-0.29-0.01-0.411-0.047v-6.312
			c0.075-0.019,0.271-0.038,0.364-0.038c0.122,0,0.28,0.01,0.374,0.038l3.269,4.641v-4.641c0.103-0.028,0.28-0.047,0.401-0.047
			c0.112,0,0.364,0.019,0.458,0.047V273.104z"/>
		<path style="fill:#1A2A4F;" d="M134.446,273.198c-0.514,0-1.335-0.112-1.793-0.355c-0.028-0.131-0.047-0.252-0.047-0.383
			c0-0.14,0.009-0.28,0.047-0.411c0.439,0.206,1.214,0.383,1.746,0.383c0.775,0,1.298-0.299,1.298-0.942
			c0-0.589-0.271-0.878-1.027-1.158l-0.477-0.178c-0.943-0.354-1.522-0.868-1.522-1.736c0-1.168,0.99-1.719,2.12-1.719
			c0.495,0,0.971,0.056,1.41,0.168c0.028,0.112,0.047,0.233,0.047,0.355c0,0.13-0.019,0.261-0.047,0.392
			c-0.458-0.093-0.887-0.149-1.354-0.149c-0.635,0-1.233,0.252-1.233,0.925c0,0.477,0.262,0.766,1,1.046l0.439,0.168
			c0.962,0.354,1.541,0.803,1.541,1.793C136.593,272.609,135.641,273.198,134.446,273.198z"/>
		<path style="fill:#1A2A4F;" d="M142.702,271.61h-2.465l-0.485,1.494c-0.122,0.019-0.318,0.047-0.504,0.047
			c-0.131,0-0.317-0.019-0.439-0.047l2.176-6.312c0.112-0.028,0.346-0.047,0.467-0.047c0.131,0,0.346,0.028,0.43,0.047l2.334,6.312
			c-0.084,0.019-0.308,0.047-0.485,0.047c-0.14,0-0.364-0.01-0.504-0.047L142.702,271.61z M140.479,270.845h1.952l-0.747-2.147
			c-0.122-0.355-0.196-0.645-0.243-0.896h-0.009c-0.046,0.252-0.14,0.551-0.252,0.905L140.479,270.845z"/>
		<path style="fill:#1A2A4F;" d="M148.998,273.104c-0.187,0.028-0.374,0.047-0.561,0.047c-0.177,0-0.327-0.01-0.504-0.047
			l-1.382-2.428h-0.822v2.428c-0.159,0.028-0.317,0.047-0.476,0.047c-0.149,0-0.309-0.019-0.458-0.047v-6.312
			c0.458-0.028,1.009-0.047,1.541-0.047c1.317,0,2.372,0.401,2.372,1.914c0,0.831-0.458,1.56-1.224,1.84L148.998,273.104z
			 M146.438,267.474c-0.215,0-0.551,0-0.709,0.009v2.456h0.635c0.878,0,1.401-0.392,1.401-1.279
			C147.765,267.801,147.27,267.474,146.438,267.474z"/>
		<path style="fill:#1A2A4F;" d="M153.696,267.716c-0.384-0.121-0.943-0.224-1.401-0.224c-1.419,0-1.998,1.064-1.998,2.484
			c0,0.69,0.159,1.335,0.504,1.773c0.346,0.439,0.841,0.645,1.531,0.645c0.495,0,0.962-0.103,1.317-0.205
			c0.037,0.103,0.065,0.242,0.065,0.346c0,0.131-0.01,0.242-0.038,0.364c-0.485,0.187-1.064,0.299-1.54,0.299
			c-1.98,0-2.82-1.364-2.82-3.194c0-1.008,0.299-1.914,0.868-2.512c0.486-0.504,1.195-0.794,2.026-0.794
			c0.561,0,1.13,0.141,1.485,0.299c0.037,0.121,0.046,0.196,0.046,0.327S153.733,267.595,153.696,267.716z"/>
		<path style="fill:#1A2A4F;" d="M159.384,273.104c-0.149,0.019-0.29,0.047-0.439,0.047c-0.168,0-0.326-0.019-0.494-0.047v-2.802
			h-2.793v2.802c-0.158,0.028-0.326,0.047-0.494,0.047c-0.159,0-0.29-0.019-0.439-0.047v-6.312c0.112-0.019,0.28-0.047,0.43-0.047
			c0.168,0,0.336,0.019,0.504,0.047v2.745h2.793v-2.745c0.158-0.028,0.317-0.047,0.485-0.047c0.158,0,0.299,0.019,0.448,0.047
			V273.104z"/>
		<path style="fill:#1A2A4F;" d="M161.589,273.104c-0.149,0.019-0.299,0.047-0.448,0.047c-0.168,0-0.317-0.019-0.485-0.047v-6.312
			c0.159-0.028,0.309-0.047,0.477-0.047c0.158,0,0.308,0.019,0.457,0.047V273.104z"/>
		<path style="fill:#1A2A4F;" d="M166.922,267.558h-1.886v5.547c-0.159,0.028-0.309,0.047-0.477,0.047
			c-0.158,0-0.308-0.019-0.457-0.047v-5.547h-1.793c-0.038-0.121-0.047-0.262-0.047-0.383c0-0.112,0.009-0.271,0.047-0.383h4.612
			c0.038,0.112,0.047,0.271,0.047,0.383C166.969,267.296,166.96,267.437,166.922,267.558z"/>
		<path style="fill:#1A2A4F;" d="M171.274,273.104h-3.68v-6.312h3.539c0.038,0.112,0.047,0.271,0.047,0.383
			c0,0.121-0.009,0.262-0.047,0.383h-2.605v1.905h2.251c0.037,0.111,0.047,0.271,0.047,0.383c0,0.121-0.01,0.261-0.047,0.383h-2.251
			v2.11h2.746c0.037,0.112,0.047,0.271,0.047,0.383C171.321,272.843,171.312,272.983,171.274,273.104z"/>
		<path style="fill:#1A2A4F;" d="M176.169,267.716c-0.384-0.121-0.943-0.224-1.401-0.224c-1.419,0-1.998,1.064-1.998,2.484
			c0,0.69,0.158,1.335,0.504,1.773c0.346,0.439,0.841,0.645,1.531,0.645c0.495,0,0.962-0.103,1.317-0.205
			c0.037,0.103,0.065,0.242,0.065,0.346c0,0.131-0.01,0.242-0.038,0.364c-0.485,0.187-1.064,0.299-1.54,0.299
			c-1.98,0-2.82-1.364-2.82-3.194c0-1.008,0.299-1.914,0.868-2.512c0.485-0.504,1.195-0.794,2.026-0.794
			c0.561,0,1.13,0.141,1.485,0.299c0.037,0.121,0.046,0.196,0.046,0.327S176.206,267.595,176.169,267.716z"/>
		<path style="fill:#1A2A4F;" d="M181.381,267.558h-1.886v5.547c-0.159,0.028-0.309,0.047-0.477,0.047
			c-0.158,0-0.308-0.019-0.457-0.047v-5.547h-1.793c-0.038-0.121-0.047-0.262-0.047-0.383c0-0.112,0.009-0.271,0.047-0.383h4.612
			c0.038,0.112,0.047,0.271,0.047,0.383C181.428,267.296,181.419,267.437,181.381,267.558z"/>
		<path style="fill:#1A2A4F;" d="M186.564,270.742c0,1.625-0.56,2.456-2.278,2.456c-1.793,0-2.251-0.794-2.251-2.456v-3.95
			c0.15-0.019,0.299-0.047,0.449-0.047c0.168,0,0.317,0.019,0.485,0.047v4.108c0,0.906,0.196,1.578,1.308,1.578
			c1.11,0,1.382-0.672,1.382-1.578v-4.108c0.149-0.019,0.28-0.047,0.43-0.047c0.168,0,0.308,0.019,0.476,0.047V270.742z"/>
		<path style="fill:#1A2A4F;" d="M191.954,273.104c-0.187,0.028-0.373,0.047-0.56,0.047c-0.178,0-0.327-0.01-0.505-0.047
			l-1.382-2.428h-0.822v2.428c-0.158,0.028-0.317,0.047-0.476,0.047c-0.149,0-0.309-0.019-0.458-0.047v-6.312
			c0.458-0.028,1.009-0.047,1.541-0.047c1.316,0,2.372,0.401,2.372,1.914c0,0.831-0.458,1.56-1.224,1.84L191.954,273.104z
			 M189.396,267.474c-0.215,0-0.551,0-0.71,0.009v2.456h0.636c0.878,0,1.4-0.392,1.4-1.279
			C190.722,267.801,190.227,267.474,189.396,267.474z"/>
		<path style="fill:#1A2A4F;" d="M196.438,273.104h-3.68v-6.312h3.539c0.038,0.112,0.047,0.271,0.047,0.383
			c0,0.121-0.009,0.262-0.047,0.383h-2.605v1.905h2.251c0.037,0.111,0.047,0.271,0.047,0.383c0,0.121-0.01,0.261-0.047,0.383h-2.251
			v2.11h2.746c0.037,0.112,0.047,0.271,0.047,0.383C196.485,272.843,196.476,272.983,196.438,273.104z"/>
		<path style="fill:#1A2A4F;" d="M197.625,274.15c-0.215-0.028-0.354-0.131-0.477-0.299c0.916-1.083,1.261-2.307,1.261-3.539
			c0-1.252-0.345-2.447-1.261-3.53c0.122-0.168,0.28-0.271,0.495-0.299c1.083,1.009,1.644,2.428,1.644,3.856
			C199.287,271.77,198.708,273.142,197.625,274.15z"/>
	</g>
	<g>
		<path style="fill:#1A2A4F;" d="M110.005,214.292c-0.24,0.056-0.813,0.093-1.423,0.093c-0.48,0-1.035-0.056-1.275-0.093
			l-0.924-2.531h-4.435l-0.869,2.531c-0.406,0.056-0.887,0.093-1.367,0.093s-1.035-0.037-1.312-0.093l4.361-12.491
			c0.259-0.056,0.869-0.093,1.275-0.093c0.499,0,1.09,0.037,1.293,0.093L110.005,214.292z M105.588,209.562l-1.09-3.529
			c-0.129-0.406-0.259-0.924-0.37-1.497h-0.037c-0.093,0.573-0.24,1.091-0.37,1.497l-1.035,3.529H105.588z"/>
		<path style="fill:#1A2A4F;" d="M120.503,214.273c-0.48,0.074-0.979,0.111-1.552,0.111c-0.518,0-1.035-0.019-1.386-0.093
			l-2.531-4.49h-1.09v4.49c-0.462,0.074-0.85,0.093-1.349,0.093c-0.443,0-0.832-0.019-1.293-0.093v-12.491
			c0.85-0.056,2.624-0.093,3.696-0.093c3.141,0,4.712,1.109,4.712,3.991c0,1.534-0.924,3.067-2.217,3.622L120.503,214.273z
			 M115.164,203.87c-0.407,0-0.906,0.019-1.22,0.037v3.695h0.924c1.515,0,2.181-0.554,2.181-1.922
			C117.048,204.313,116.383,203.87,115.164,203.87z"/>
		<path style="fill:#1A2A4F;" d="M130.318,204.406c-0.887-0.277-1.996-0.48-2.882-0.48c-2.107,0-3.474,1.496-3.474,4.176
			c0,2.458,1.072,4.065,3.456,4.065c0.887,0,1.885-0.185,2.771-0.462c0.129,0.333,0.222,0.85,0.222,1.238
			c0,0.313-0.018,0.702-0.055,0.868c-0.924,0.425-2.106,0.665-3.197,0.665c-3.973,0-5.932-2.402-5.932-6.319
			c0-3.807,2.106-6.541,6.042-6.541c0.961,0,2.217,0.24,3.104,0.628c0.055,0.185,0.074,0.591,0.074,0.831
			C130.448,203.648,130.374,204.185,130.318,204.406z"/>
		<path style="fill:#1A2A4F;" d="M141.815,214.292c-0.333,0.056-0.794,0.093-1.312,0.093s-0.979-0.037-1.331-0.093v-5.174h-4.342
			v5.174c-0.351,0.056-0.758,0.093-1.312,0.093c-0.499,0-0.979-0.037-1.331-0.093v-12.491c0.351-0.056,0.869-0.093,1.331-0.093
			c0.518,0,0.979,0.037,1.312,0.093v5.062h4.342v-5.062c0.407-0.056,0.869-0.093,1.331-0.093c0.443,0,0.998,0.037,1.312,0.093
			V214.292z"/>
		<path style="fill:#1A2A4F;" d="M146.918,214.292c-0.351,0.056-0.776,0.093-1.331,0.093c-0.499,0-0.961-0.037-1.312-0.093v-12.491
			c0.351-0.056,0.869-0.093,1.331-0.093c0.517,0,0.979,0.037,1.312,0.093V214.292z"/>
		<path style="fill:#1A2A4F;" d="M157.674,204.055h-3.308v10.237c-0.351,0.056-0.85,0.093-1.312,0.093s-0.961-0.037-1.331-0.093
			v-10.237h-3.308c-0.074-0.24-0.129-0.812-0.129-1.127s0.074-0.887,0.147-1.127h9.239c0.074,0.24,0.13,0.812,0.13,1.127
			S157.748,203.814,157.674,204.055z"/>
		<path style="fill:#1A2A4F;" d="M166.935,214.292h-7.816v-12.491h7.65c0.073,0.203,0.129,0.591,0.129,1.108
			c0,0.406-0.037,0.758-0.129,1.146h-5.008v2.698h4.231c0.074,0.203,0.13,0.572,0.13,1.09c0,0.407-0.037,0.739-0.13,1.128h-4.231
			v3.067h5.174c0.074,0.203,0.13,0.591,0.13,1.108C167.064,213.553,167.027,213.904,166.935,214.292z"/>
		<path style="fill:#1A2A4F;" d="M177.081,204.406c-0.887-0.277-1.995-0.48-2.883-0.48c-2.106,0-3.474,1.496-3.474,4.176
			c0,2.458,1.071,4.065,3.455,4.065c0.888,0,1.885-0.185,2.772-0.462c0.129,0.333,0.222,0.85,0.222,1.238
			c0,0.313-0.019,0.702-0.056,0.868c-0.924,0.425-2.106,0.665-3.197,0.665c-3.973,0-5.931-2.402-5.931-6.319
			c0-3.807,2.106-6.541,6.042-6.541c0.961,0,2.218,0.24,3.104,0.628c0.056,0.185,0.074,0.591,0.074,0.831
			C177.211,203.648,177.137,204.185,177.081,204.406z"/>
		<path style="fill:#1A2A4F;" d="M187.746,204.055h-3.308v10.237c-0.351,0.056-0.85,0.093-1.312,0.093s-0.961-0.037-1.331-0.093
			v-10.237h-3.308c-0.073-0.24-0.129-0.812-0.129-1.127s0.073-0.887,0.147-1.127h9.239c0.074,0.24,0.13,0.812,0.13,1.127
			S187.82,203.814,187.746,204.055z"/>
		<path style="fill:#1A2A4F;" d="M192.369,214.477c-1.35,0-2.827-0.259-3.881-0.739c-0.056-0.259-0.092-0.591-0.092-0.887
			c0-0.443,0.055-0.868,0.185-1.367c1.09,0.443,2.531,0.721,3.658,0.721c1.312,0,2.015-0.61,2.015-1.441
			c0-0.924-0.592-1.312-2.384-1.866c-1.996-0.61-3.456-1.571-3.456-3.714c0-2.292,1.978-3.566,4.583-3.566
			c1.201,0,2.272,0.185,2.993,0.425c0.056,0.203,0.093,0.536,0.093,1.016c0,0.352-0.037,0.888-0.11,1.184
			c-0.925-0.24-1.978-0.37-2.828-0.37c-1.386,0-2.143,0.462-2.143,1.201c0,0.868,0.684,1.22,2.347,1.737
			c1.995,0.628,3.474,1.57,3.474,3.788C196.822,213.017,194.919,214.477,192.369,214.477z"/>
		<path style="fill:#1A2A4F;" d="M198.524,203.39c-0.573-0.203-1.017-0.721-1.017-1.386c0-0.776,0.48-1.33,1.275-1.33
			c0.961,0,1.533,0.775,1.533,1.829c0,1.367-0.794,2.975-1.94,3.991c-0.406-0.166-0.738-0.443-0.96-0.813
			C197.97,205.053,198.432,204.129,198.524,203.39z"/>
	</g>
	<g>
		<path style="fill:#1A2A4F;" d="M105.422,226.81h-1.293v4.472c-0.351,0.056-0.776,0.093-1.331,0.093
			c-0.499,0-0.961-0.037-1.312-0.093v-12.473c1.072-0.056,2.698-0.111,3.751-0.111c2.827,0,4.878,0.979,4.878,3.918
			C110.116,225.479,108.323,226.81,105.422,226.81z M105.349,220.878c-0.37,0-0.85,0.019-1.22,0.037v3.677h1.146
			c1.423,0,2.181-0.369,2.181-1.885C107.455,221.414,106.808,220.878,105.349,220.878z"/>
		<path style="fill:#1A2A4F;" d="M120.947,231.263c-0.48,0.074-0.979,0.111-1.552,0.111c-0.518,0-1.035-0.019-1.386-0.093
			l-2.531-4.49h-1.09v4.49c-0.462,0.074-0.85,0.093-1.349,0.093c-0.443,0-0.832-0.019-1.293-0.093V218.79
			c0.85-0.056,2.624-0.093,3.696-0.093c3.141,0,4.712,1.109,4.712,3.991c0,1.534-0.924,3.067-2.217,3.622L120.947,231.263z
			 M115.607,220.859c-0.407,0-0.906,0.019-1.22,0.037v3.695h0.924c1.515,0,2.181-0.554,2.181-1.922
			C117.492,221.303,116.826,220.859,115.607,220.859z"/>
		<path style="fill:#1A2A4F;" d="M130.263,231.281h-7.816V218.79h7.65c0.074,0.203,0.129,0.591,0.129,1.108
			c0,0.406-0.037,0.758-0.129,1.146h-5.008v2.698h4.231c0.074,0.203,0.129,0.572,0.129,1.09c0,0.407-0.037,0.739-0.129,1.127h-4.231
			v3.068h5.174c0.074,0.203,0.129,0.591,0.129,1.108C130.392,230.542,130.355,230.894,130.263,231.281z"/>
		<path style="fill:#1A2A4F;" d="M135.514,231.466c-1.349,0-2.828-0.259-3.881-0.739c-0.055-0.259-0.092-0.591-0.092-0.887
			c0-0.443,0.056-0.868,0.185-1.367c1.09,0.443,2.531,0.721,3.659,0.721c1.312,0,2.014-0.61,2.014-1.441
			c0-0.924-0.591-1.312-2.384-1.866c-1.996-0.61-3.456-1.571-3.456-3.714c0-2.292,1.977-3.566,4.583-3.566
			c1.201,0,2.273,0.185,2.994,0.425c0.055,0.203,0.092,0.536,0.092,1.017c0,0.351-0.037,0.887-0.111,1.182
			c-0.924-0.239-1.977-0.369-2.827-0.369c-1.386,0-2.144,0.462-2.144,1.201c0,0.868,0.684,1.22,2.347,1.737
			c1.996,0.628,3.474,1.57,3.474,3.788C139.967,230.006,138.063,231.466,135.514,231.466z"/>
		<path style="fill:#1A2A4F;" d="M144.404,231.281c-0.351,0.056-0.776,0.093-1.331,0.093c-0.499,0-0.961-0.037-1.312-0.093V218.79
			c0.351-0.056,0.869-0.093,1.331-0.093c0.517,0,0.979,0.037,1.312,0.093V231.281z"/>
		<path style="fill:#1A2A4F;" d="M154.883,230.173c-1.146,0.887-2.624,1.201-4.656,1.201c-1.035,0-2.791-0.037-3.382-0.093V218.79
			c0.906-0.056,2.791-0.093,3.844-0.093c4.065,0,6.153,1.719,6.153,6.19C156.842,227.197,156.231,229.119,154.883,230.173z
			 M150.744,220.878c-0.499,0-1.053,0.019-1.256,0.037v8.223c0.24,0.019,0.794,0.037,1.367,0.037c2.328,0,3.252-1.479,3.252-4.324
			C154.106,221.728,153.146,220.878,150.744,220.878z"/>
		<path style="fill:#1A2A4F;" d="M166.509,231.281h-7.816V218.79h7.65c0.073,0.203,0.129,0.591,0.129,1.108
			c0,0.406-0.037,0.758-0.129,1.146h-5.008v2.698h4.231c0.074,0.203,0.13,0.572,0.13,1.09c0,0.407-0.037,0.739-0.13,1.127h-4.231
			v3.068h5.174c0.074,0.203,0.13,0.591,0.13,1.108C166.639,230.542,166.602,230.894,166.509,231.281z"/>
		<path style="fill:#1A2A4F;" d="M178.375,231.281c-0.185,0.037-0.629,0.074-0.942,0.074c-0.314,0-0.629-0.019-0.924-0.074
			l-5.747-8.001v8.001c-0.147,0.037-0.702,0.093-1.22,0.093c-0.425,0-0.924-0.056-1.183-0.093V218.79
			c0.296-0.056,0.646-0.074,0.979-0.074c0.352,0,0.721,0.037,0.998,0.074l5.636,7.854v-7.854c0.369-0.056,0.85-0.093,1.201-0.093
			c0.351,0,0.868,0.037,1.201,0.093V231.281z"/>
		<path style="fill:#1A2A4F;" d="M189.096,221.044h-3.308v10.237c-0.351,0.056-0.85,0.093-1.312,0.093s-0.961-0.037-1.331-0.093
			v-10.237h-3.308c-0.073-0.24-0.129-0.812-0.129-1.127s0.073-0.887,0.147-1.127h9.239c0.074,0.24,0.13,0.812,0.13,1.127
			S189.17,220.804,189.096,221.044z"/>
		<path style="fill:#1A2A4F;" d="M193.736,231.466c-1.35,0-2.827-0.259-3.881-0.739c-0.056-0.259-0.092-0.591-0.092-0.887
			c0-0.443,0.055-0.868,0.185-1.367c1.09,0.443,2.531,0.721,3.658,0.721c1.312,0,2.015-0.61,2.015-1.441
			c0-0.924-0.592-1.312-2.384-1.866c-1.996-0.61-3.456-1.571-3.456-3.714c0-2.292,1.978-3.566,4.583-3.566
			c1.201,0,2.272,0.185,2.993,0.425c0.056,0.203,0.093,0.536,0.093,1.017c0,0.351-0.037,0.887-0.11,1.182
			c-0.925-0.239-1.978-0.369-2.828-0.369c-1.386,0-2.143,0.462-2.143,1.201c0,0.868,0.684,1.22,2.347,1.737
			c1.995,0.628,3.474,1.57,3.474,3.788C198.189,230.006,196.286,231.466,193.736,231.466z"/>
	</g>
	<g>
		<path style="fill:#1A2A4F;" d="M134.792,248.27c-0.222,0.056-0.72,0.093-1.238,0.093c-0.554,0-1.072-0.056-1.293-0.093
			l-0.222-7.502l-2.735,6.319c-0.203,0.074-0.647,0.111-0.924,0.111c-0.333,0-0.739-0.037-0.942-0.093l-2.735-6.338l-0.24,7.502
			c-0.24,0.056-0.813,0.093-1.312,0.093c-0.296,0-0.794-0.037-1.127-0.093l0.536-12.491c0.351-0.037,0.702-0.093,1.072-0.093
			c0.443,0,0.868,0.037,1.09,0.093l3.659,8.481l3.677-8.481c0.369-0.056,0.739-0.093,1.071-0.093c0.425,0,0.813,0.037,1.09,0.093
			L134.792,248.27z"/>
		<path style="fill:#1A2A4F;" d="M144.886,248.27h-7.816v-12.491h7.65c0.074,0.203,0.129,0.591,0.129,1.108
			c0,0.406-0.037,0.758-0.129,1.146h-5.008v2.698h4.231c0.074,0.203,0.129,0.572,0.129,1.09c0,0.407-0.037,0.739-0.129,1.127h-4.231
			v3.068h5.174c0.074,0.203,0.129,0.591,0.129,1.108C145.015,247.53,144.978,247.882,144.886,248.27z"/>
		<path style="fill:#1A2A4F;" d="M154.774,247.161c-1.146,0.887-2.624,1.201-4.656,1.201c-1.035,0-2.791-0.037-3.382-0.093v-12.491
			c0.906-0.056,2.791-0.093,3.844-0.093c4.065,0,6.153,1.719,6.153,6.19C156.733,244.186,156.123,246.107,154.774,247.161z
			 M150.635,237.866c-0.499,0-1.053,0.019-1.256,0.037v8.223c0.24,0.019,0.794,0.037,1.367,0.037c2.328,0,3.252-1.479,3.252-4.324
			C153.998,238.716,153.037,237.866,150.635,237.866z"/>
		<path style="fill:#1A2A4F;" d="M168.6,248.27c-0.24,0.056-0.813,0.093-1.423,0.093c-0.48,0-1.035-0.056-1.275-0.093l-0.924-2.531
			h-4.435l-0.868,2.531c-0.407,0.056-0.888,0.093-1.368,0.093s-1.034-0.037-1.312-0.093l4.36-12.491
			c0.259-0.056,0.869-0.093,1.275-0.093c0.499,0,1.09,0.037,1.294,0.093L168.6,248.27z M164.184,243.539l-1.091-3.529
			c-0.129-0.406-0.259-0.924-0.369-1.497h-0.037c-0.093,0.573-0.24,1.091-0.37,1.497l-1.034,3.529H164.184z"/>
		<path style="fill:#1A2A4F;" d="M177.546,248.27h-7.65v-12.491c0.352-0.056,0.832-0.093,1.294-0.093
			c0.517,0,1.016,0.037,1.349,0.093v10.237h5.008c0.073,0.203,0.129,0.591,0.129,1.108
			C177.675,247.53,177.638,247.882,177.546,248.27z"/>
	</g>
	<g>
		<path style="fill:#B4A168;" d="M99.655,251.961v0.883l-4.31,9.016h-1.386l4.294-8.756v-0.031h-4.842v-1.111H99.655z"/>
		<path style="fill:#B4A168;" d="M106.441,261.859v-4.355l-3.244-5.908h1.508l1.447,2.832c0.396,0.777,0.7,1.401,1.02,2.117h0.031
			c0.289-0.67,0.64-1.34,1.035-2.117l1.478-2.832h1.507l-3.441,5.894v4.37H106.441z"/>
		<path style="fill:#B4A168;" d="M117.417,257.047h-3.99v3.701h4.446v1.111h-5.771v-10.264h5.543v1.111h-4.218v3.244h3.99V257.047z"
			/>
		<path style="fill:#B4A168;" d="M121.176,258.631l-1.066,3.229h-1.371l3.487-10.264h1.599l3.502,10.264h-1.416l-1.096-3.229
			H121.176z M124.541,257.596l-1.005-2.954c-0.229-0.671-0.381-1.279-0.533-1.873h-0.03c-0.152,0.608-0.32,1.233-0.518,1.857
			l-1.005,2.97H124.541z"/>
		<path style="fill:#B4A168;" d="M128.527,251.732c0.67-0.137,1.629-0.213,2.543-0.213c1.416,0,2.33,0.259,2.969,0.838
			c0.518,0.456,0.807,1.157,0.807,1.949c0,1.354-0.853,2.253-1.934,2.619v0.045c0.792,0.274,1.264,1.006,1.508,2.071
			c0.335,1.432,0.579,2.422,0.792,2.817h-1.371c-0.167-0.289-0.396-1.173-0.686-2.452c-0.305-1.416-0.853-1.949-2.056-1.994h-1.249
			v4.446h-1.325V251.732z M129.852,256.407h1.355c1.417,0,2.315-0.776,2.315-1.949c0-1.324-0.959-1.903-2.36-1.918
			c-0.64,0-1.097,0.061-1.31,0.121V256.407z"/>
		<path style="fill:#B4A168;" d="M136.031,260.245c0.594,0.365,1.462,0.67,2.375,0.67c1.355,0,2.147-0.716,2.147-1.751
			c0-0.959-0.548-1.508-1.934-2.041c-1.675-0.594-2.711-1.462-2.711-2.908c0-1.599,1.325-2.787,3.32-2.787
			c1.051,0,1.812,0.244,2.269,0.503l-0.365,1.081c-0.335-0.183-1.021-0.487-1.949-0.487c-1.401,0-1.934,0.838-1.934,1.538
			c0,0.959,0.625,1.432,2.041,1.979c1.736,0.67,2.619,1.508,2.619,3.016c0,1.583-1.172,2.954-3.594,2.954
			c-0.99,0-2.071-0.289-2.619-0.655L136.031,260.245z"/>
		<path style="fill:#B4A168;" d="M155.139,256.621c0,3.533-2.147,5.406-4.767,5.406c-2.711,0-4.614-2.102-4.614-5.209
			c0-3.259,2.025-5.391,4.766-5.391C153.326,251.428,155.139,253.575,155.139,256.621z M147.174,256.788
			c0,2.193,1.188,4.157,3.274,4.157c2.102,0,3.289-1.934,3.289-4.264c0-2.04-1.066-4.173-3.274-4.173
			C148.271,252.509,147.174,254.534,147.174,256.788z"/>
		<path style="fill:#B4A168;" d="M157.875,251.596v6.076c0,2.299,1.021,3.273,2.391,3.273c1.522,0,2.497-1.005,2.497-3.273v-6.076
			h1.341v5.984c0,3.152-1.66,4.447-3.884,4.447c-2.102,0-3.685-1.203-3.685-4.386v-6.046H157.875z"/>
		<path style="fill:#B4A168;" d="M168.043,252.723h-3.122v-1.127h7.6v1.127h-3.138v9.137h-1.34V252.723z"/>
		<path style="fill:#B4A168;" d="M184.303,256.621c0,3.533-2.147,5.406-4.767,5.406c-2.71,0-4.614-2.102-4.614-5.209
			c0-3.259,2.025-5.391,4.767-5.391C182.49,251.428,184.303,253.575,184.303,256.621z M176.339,256.788
			c0,2.193,1.188,4.157,3.273,4.157c2.102,0,3.29-1.934,3.29-4.264c0-2.04-1.066-4.173-3.274-4.173
			C177.435,252.509,176.339,254.534,176.339,256.788z"/>
		<path style="fill:#B4A168;" d="M185.714,251.596h5.528v1.111h-4.203v3.411h3.883v1.097h-3.883v4.645h-1.325V251.596z"/>
		<path style="fill:#B4A168;" d="M195.182,259.347c0-1.249,0.746-2.132,1.965-2.649l-0.016-0.046
			c-1.097-0.518-1.568-1.37-1.568-2.224c0-1.568,1.324-2.634,3.061-2.634c1.919,0,2.878,1.202,2.878,2.437
			c0,0.837-0.411,1.735-1.629,2.314v0.046c1.233,0.487,1.995,1.354,1.995,2.558c0,1.721-1.478,2.879-3.366,2.879
			C196.431,262.027,195.182,260.793,195.182,259.347z M200.512,259.286c0-1.203-0.838-1.782-2.178-2.163
			c-1.157,0.335-1.782,1.097-1.782,2.041c-0.045,1.005,0.716,1.889,1.98,1.889C199.734,261.053,200.512,260.306,200.512,259.286z
			 M196.826,254.337c0,0.989,0.746,1.522,1.889,1.827c0.853-0.289,1.508-0.898,1.508-1.797c0-0.792-0.473-1.614-1.676-1.614
			C197.436,252.753,196.826,253.483,196.826,254.337z"/>
	</g>
	<g>
		<path style="fill:#1A1A1A;" d="M127.452,128.266c-0.283,0.043-0.848,0.109-1.457,0.109c-0.587,0-1.174-0.065-1.566-0.109
			l-1.783-7.262c-0.196-0.761-0.305-1.587-0.392-2.305h-0.021c-0.065,0.718-0.239,1.565-0.413,2.305l-1.761,7.262
			c-0.392,0.043-1,0.109-1.566,0.109c-0.543,0-1.196-0.065-1.5-0.109l-3.283-10.763c-0.348-1.131-0.565-2.479-0.565-3.936
			c0.457-0.087,1.022-0.109,1.5-0.109c0.805,0,1.196,0.043,1.544,0.109c0,1.413,0.196,2.587,0.457,3.588l1.327,5.022
			c0.195,0.783,0.391,1.805,0.5,2.783h0.043c0.109-0.979,0.283-2,0.479-2.805l2.044-8.589c0.391-0.065,0.761-0.109,1.152-0.109
			c0.413,0,0.783,0.043,1.196,0.109l2.087,8.61c0.196,0.783,0.413,1.805,0.522,2.783h0.043c0.108-0.979,0.304-2,0.521-2.805
			l1.392-5.001c0.283-1,0.5-2.175,0.5-3.588c0.348-0.065,0.979-0.109,1.631-0.109c0.435,0,1.021,0.043,1.435,0.109
			c0,1.609-0.239,2.827-0.587,3.936L127.452,128.266z"/>
		<path style="fill:#1A1A1A;" d="M135.368,128.266c-0.413,0.065-0.913,0.109-1.565,0.109c-0.587,0-1.131-0.043-1.544-0.109v-14.699
			c0.413-0.065,1.022-0.109,1.565-0.109c0.609,0,1.152,0.043,1.544,0.109V128.266z"/>
		<path style="fill:#1A1A1A;" d="M149.045,128.266c-0.218,0.043-0.739,0.087-1.109,0.087s-0.739-0.021-1.087-0.087l-6.762-9.415
			v9.415c-0.174,0.043-0.826,0.109-1.435,0.109c-0.5,0-1.087-0.065-1.392-0.109v-14.699c0.348-0.065,0.761-0.087,1.152-0.087
			c0.413,0,0.848,0.043,1.174,0.087l6.632,9.241v-9.241c0.435-0.065,1-0.109,1.413-0.109s1.022,0.043,1.414,0.109V128.266z"/>
		<path style="fill:#1A1A1A;" d="M162.7,128.266c-0.217,0.043-0.739,0.087-1.108,0.087c-0.37,0-0.739-0.021-1.087-0.087
			l-6.763-9.415v9.415c-0.174,0.043-0.826,0.109-1.436,0.109c-0.5,0-1.087-0.065-1.391-0.109v-14.699
			c0.348-0.065,0.761-0.087,1.153-0.087c0.413,0,0.848,0.043,1.174,0.087l6.632,9.241v-9.241c0.435-0.065,1-0.109,1.413-0.109
			s1.022,0.043,1.413,0.109V128.266z"/>
		<path style="fill:#1A1A1A;" d="M173.769,128.266h-9.197v-14.699h9.002c0.087,0.239,0.152,0.696,0.152,1.305
			c0,0.478-0.044,0.892-0.152,1.348h-5.893v3.174h4.979c0.087,0.239,0.152,0.674,0.152,1.283c0,0.478-0.044,0.87-0.152,1.326h-4.979
			v3.609h6.088c0.087,0.239,0.152,0.696,0.152,1.305C173.921,127.396,173.878,127.809,173.769,128.266z"/>
		<path style="fill:#1A1A1A;" d="M185.815,128.244c-0.565,0.087-1.152,0.131-1.826,0.131c-0.609,0-1.218-0.022-1.631-0.109
			l-2.979-5.284h-1.283v5.284c-0.544,0.087-1,0.109-1.587,0.109c-0.522,0-0.979-0.022-1.522-0.109v-14.699
			c1-0.065,3.088-0.109,4.349-0.109c3.696,0,5.545,1.305,5.545,4.697c0,1.805-1.088,3.609-2.609,4.262L185.815,128.244z
			 M179.531,116.002c-0.478,0-1.065,0.022-1.435,0.043v4.349h1.087c1.783,0,2.566-0.652,2.566-2.262
			C181.75,116.524,180.967,116.002,179.531,116.002z"/>
	</g>
</g>
</svg>
