<?xml version="1.0" encoding="utf-8"?>
<!-- Generator: Adobe Illustrator 16.0.0, SVG Export Plug-In . SVG Version: 6.00 Build 0)  -->
<!DOCTYPE svg PUBLIC "-//W3C//DTD SVG 1.0//EN" "http://www.w3.org/TR/2001/REC-SVG-20010904/DTD/svg10.dtd">
<svg version="1.0" xmlns="http://www.w3.org/2000/svg" xmlns:xlink="http://www.w3.org/1999/xlink" x="0px" y="0px" width="300px"
	 height="300px" viewBox="0 0 300 300" style="enable-background:new 0 0 300 300;" xml:space="preserve">
<g id="Icon">
	<path style="fill:#1A2A4F;" d="M152.305,48.966l15.347,7.902l14.616-9.348l-0.747-17.249l-15.346-7.907l-14.616,9.351
		L152.305,48.966z M167.755,60.996c-0.299,0-0.599-0.07-0.876-0.213l-17.317-8.918c-0.613-0.318-1.007-0.935-1.038-1.622
		l-0.842-19.465c-0.031-0.683,0.306-1.329,0.881-1.696l16.475-10.542c0.576-0.367,1.305-0.401,1.912-0.089l17.316,8.923
		c0.612,0.315,1.009,0.934,1.04,1.621l0.843,19.463c0.028,0.683-0.308,1.327-0.885,1.696l-16.475,10.54
		C168.477,60.895,168.114,60.996,167.755,60.996"/>
	<path style="fill:#1A2A4F;" d="M169.733,77.068l15.229,8.13l14.753-9.135l-0.493-17.259l-15.228-8.13l-14.755,9.135L169.733,77.068
		z M185.034,89.326c-0.312,0-0.62-0.076-0.904-0.228l-17.183-9.174c-0.607-0.325-0.992-0.95-1.015-1.637l-0.557-19.473
		c-0.016-0.682,0.327-1.323,0.91-1.683l16.628-10.297c0.583-0.362,1.31-0.383,1.913-0.062l17.182,9.176
		c0.607,0.325,0.995,0.948,1.015,1.636l0.556,19.473c0.02,0.683-0.327,1.324-0.906,1.683l-16.629,10.296
		C185.733,89.23,185.386,89.326,185.034,89.326"/>
	<path style="fill:#1A2A4F;" d="M153.129,106.986l15.122,8.326l14.867-8.943l-0.271-17.261l-15.12-8.328l-14.87,8.945
		L153.129,106.986z M168.294,119.442c-0.319,0-0.637-0.08-0.926-0.237l-17.065-9.396c-0.603-0.333-0.982-0.96-0.992-1.65
		l-0.302-19.477c-0.012-0.683,0.341-1.322,0.928-1.673l16.76-10.081c0.587-0.354,1.313-0.369,1.912-0.038l17.062,9.398
		c0.604,0.332,0.983,0.96,0.992,1.649l0.307,19.479c0.009,0.683-0.343,1.319-0.931,1.671l-16.76,10.083
		C168.977,119.35,168.634,119.442,168.294,119.442"/>
	<path style="fill:#1A2A4F;" d="M118.119,108.184l15.615,8.663l15.409-9.2l-0.224-17.858l-15.614-8.663l-15.409,9.202
		L118.119,108.184z M133.769,120.975c-0.319,0-0.64-0.08-0.93-0.241l-17.552-9.737c-0.602-0.334-0.979-0.962-0.988-1.651
		l-0.25-20.073c-0.008-0.683,0.349-1.319,0.934-1.671l17.304-10.332c0.587-0.349,1.317-0.361,1.914-0.03l17.552,9.737
		c0.602,0.336,0.977,0.964,0.985,1.651l0.253,20.073c0.009,0.685-0.347,1.321-0.936,1.671l-17.303,10.332
		C134.449,120.885,134.11,120.975,133.769,120.975"/>
	<path style="fill:#1A2A4F;" d="M101.875,138.186l15.131,8.312l14.86-8.956l-0.285-17.263l-15.13-8.313l-14.86,8.957
		L101.875,138.186z M117.048,150.628c-0.317,0-0.636-0.078-0.924-0.237l-17.072-9.382c-0.603-0.332-0.981-0.96-0.993-1.649
		l-0.32-19.477c-0.012-0.685,0.342-1.321,0.927-1.675l16.752-10.095c0.585-0.354,1.315-0.367,1.914-0.038l17.07,9.381
		c0.603,0.332,0.981,0.962,0.994,1.649l0.32,19.477c0.012,0.683-0.341,1.321-0.926,1.675l-16.753,10.094
		C117.733,150.537,117.392,150.628,117.048,150.628"/>
	
		<rect x="77.725" y="111.513" transform="matrix(0.8177 0.5756 -0.5756 0.8177 81.6532 -30.9733)" style="fill:#1A2A4F;" width="24.007" height="3.833"/>
	
		<rect x="86.974" y="133.235" transform="matrix(0.4746 0.8802 -0.8802 0.4746 174.3877 -2.0256)" style="fill:#1A2A4F;" width="3.833" height="23.661"/>
	
		<rect x="156.023" y="125.586" transform="matrix(0.0055 1 -1 0.0055 294.5098 -41.1289)" style="fill:#1A2A4F;" width="23.819" height="3.832"/>
	
		<rect x="199.449" y="80.716" transform="matrix(0.8905 0.4551 -0.4551 0.8905 60.811 -87.3501)" style="fill:#1A2A4F;" width="24.776" height="3.833"/>
	
		<rect x="207.918" y="41.757" transform="matrix(0.4631 0.8863 -0.8863 0.4631 159.8846 -157.3627)" style="fill:#1A2A4F;" width="3.833" height="23.072"/>
	<polygon style="fill:#BBA461;" points="159.849,35.587 157.822,32.333 166.845,26.716 175.593,31.431 173.771,34.805 
		166.984,31.146 	"/>
	<polygon style="fill:#BBA461;" points="177.756,64.859 175.729,61.603 184.75,55.988 193.498,60.701 191.679,64.074 
		184.889,60.417 	"/>
	<polygon style="fill:#BBA461;" points="160.881,94.129 158.856,90.875 167.879,85.258 176.624,89.97 174.806,93.346 
		168.017,89.688 	"/>
	<polygon style="fill:#BBA461;" points="126.79,95.163 124.764,91.907 133.784,86.29 142.534,91.005 140.714,94.378 133.924,90.719 
			"/>
	<polygon style="fill:#BBA461;" points="109.228,125.81 107.201,122.554 116.224,116.939 124.972,121.652 123.152,125.025 
		116.364,121.369 	"/>
</g>
<g id="Text" style="display:none;">
	<text transform="matrix(1 0 0 1 75.7529 174.6797)" style="display:inline;"><tspan x="0" y="0" style="fill:#B4A168; font-family:'FSMatthew-Bold'; font-size:22.0208;">R</tspan><tspan x="13.19" y="0" style="fill:#B4A168; font-family:'FSMatthew-Bold'; font-size:22.0208;">ANK</tspan><tspan x="55.139" y="0" style="fill:#B4A168; font-family:'FSMatthew-Bold'; font-size:22.0208;">E</tspan><tspan x="66.656" y="0" style="fill:#B4A168; font-family:'FSMatthew-Bold'; font-size:22.0208;">D </tspan><tspan x="85.308" y="0" style="fill:#B4A168; font-family:'FSMatthew-Bold'; font-size:22.0208;">I</tspan><tspan x="91.407" y="0" style="fill:#B4A168; font-family:'FSMatthew-Bold'; font-size:22.0208;">N</tspan><tspan x="106.227" y="0" style="fill:#B4A168; font-family:'FSMatthew-Bold'; font-size:22.0208; letter-spacing:-1;"> </tspan><tspan x="109.661" y="0" style="fill:#B4A168; font-family:'FSMatthew-Bold'; font-size:22.0208;">TH</tspan><tspan x="135.646" y="0" style="fill:#B4A168; font-family:'FSMatthew-Bold'; font-size:22.0208;">E</tspan></text>
	<text transform="matrix(1 0 0 1 76.8281 207.7129)" style="display:inline;"><tspan x="0" y="0" style="fill:#1A2A4F; font-family:'FSMatthew-Bold'; font-size:40.3715; letter-spacing:-1;">T</tspan><tspan x="20.751" y="0" style="fill:#1A2A4F; font-family:'FSMatthew-Bold'; font-size:40.3715;">OP</tspan><tspan x="68.792" y="0" style="fill:#1A2A4F; font-family:'FSMatthew-Bold'; font-size:40.3715; letter-spacing:-2;"> </tspan><tspan x="75.09" y="0" style="fill:#1A2A4F; font-family:'FSMatthew-Bold'; font-size:40.3715;">T</tspan><tspan x="96.406" y="0" style="fill:#1A2A4F; font-family:'FSMatthew-Bold'; font-size:40.3715;">E</tspan><tspan x="117.521" y="0" style="fill:#1A2A4F; font-family:'FSMatthew-Bold'; font-size:40.3715;">N</tspan></text>
	<text transform="matrix(1 0 0 1 133.7656 227.3809)" style="display:inline;"><tspan x="0" y="0" style="fill:#B4A168; font-family:'FSMatthew-Bold'; font-size:18.3507; letter-spacing:-1;">F</tspan><tspan x="8.771" y="0" style="fill:#B4A168; font-family:'FSMatthew-Bold'; font-size:18.3507;">O</tspan><tspan x="20.424" y="0" style="fill:#B4A168; font-family:'FSMatthew-Bold'; font-size:18.3507;">R</tspan></text>
	<text transform="matrix(1 0 0 1 76.8018 250.626)" style="display:inline;"><tspan x="0" y="0" style="fill:#1A2A4F; font-family:'FSMatthew-Bold'; font-size:25.691;">B</tspan><tspan x="14.618" y="0" style="fill:#1A2A4F; font-family:'FSMatthew-Bold'; font-size:25.691;">I</tspan><tspan x="21.734" y="0" style="fill:#1A2A4F; font-family:'FSMatthew-Bold'; font-size:25.691;">O</tspan><tspan x="38.048" y="0" style="fill:#1A2A4F; font-family:'FSMatthew-Bold'; font-size:25.691;">S</tspan><tspan x="51.407" y="0" style="fill:#1A2A4F; font-family:'FSMatthew-Bold'; font-size:25.691;">C</tspan><tspan x="65.845" y="0" style="fill:#1A2A4F; font-family:'FSMatthew-Bold'; font-size:25.691;">I</tspan><tspan x="72.962" y="0" style="fill:#1A2A4F; font-family:'FSMatthew-Bold'; font-size:25.691;">ENCE</tspan><tspan x="131.614" y="0" style="fill:#1A2A4F; font-family:'FSMatthew-Bold'; font-size:25.691;">S </tspan></text>
	<line style="display:inline;fill:none;stroke:#FFFFFF;stroke-width:1.197;" x1="169.915" y1="220.414" x2="223.32" y2="220.414"/>
	<line style="display:inline;fill:none;stroke:#FFFFFF;stroke-width:1.197;" x1="75.589" y1="220.414" x2="128.995" y2="220.414"/>
	<text transform="matrix(1 0 0 1 89.9697 266.6006)" style="display:inline;"><tspan x="0" y="0" style="fill:#1A2A4F; font-family:'FSMatthew'; font-size:12.2338;">(</tspan><tspan x="3.376" y="0" style="fill:#1A2A4F; font-family:'FSMatthew'; font-size:12.2338;">G</tspan><tspan x="10.656" y="0" style="fill:#1A2A4F; font-family:'FSMatthew'; font-size:12.2338;">U</tspan><tspan x="17.898" y="0" style="fill:#1A2A4F; font-family:'FSMatthew'; font-size:12.2338;">ARD</tspan><tspan x="39.075" y="0" style="fill:#1A2A4F; font-family:'FSMatthew'; font-size:12.2338;">IAN UNIVE</tspan><tspan x="90.713" y="0" style="fill:#1A2A4F; font-family:'FSMatthew'; font-size:12.2338;">R</tspan><tspan x="97.259" y="0" style="fill:#1A2A4F; font-family:'FSMatthew'; font-size:12.2338;">S</tspan><tspan x="103.327" y="0" style="fill:#1A2A4F; font-family:'FSMatthew'; font-size:12.2338;">I</tspan><tspan x="106.263" y="0" style="fill:#1A2A4F; font-family:'FSMatthew'; font-size:12.2338;">T</tspan><tspan x="112.783" y="0" style="fill:#1A2A4F; font-family:'FSMatthew'; font-size:12.2338;">Y </tspan></text>
	<text transform="matrix(1 0 0 1 116.7373 280.0547)" style="display:inline;"><tspan x="0" y="0" style="fill:#1A2A4F; font-family:'FSMatthew'; font-size:12.2338;">G</tspan><tspan x="7.279" y="0" style="fill:#1A2A4F; font-family:'FSMatthew'; font-size:12.2338;">U</tspan><tspan x="14.742" y="0" style="fill:#1A2A4F; font-family:'FSMatthew'; font-size:12.2338;">I</tspan><tspan x="17.678" y="0" style="fill:#1A2A4F; font-family:'FSMatthew'; font-size:12.2338;">D</tspan><tspan x="25.214" y="0" style="fill:#1A2A4F; font-family:'FSMatthew'; font-size:12.2338;">E</tspan><tspan x="31.49" y="0" style="fill:#1A2A4F; font-family:'FSMatthew'; font-size:12.2338;">, </tspan><tspan x="36.199" y="0" style="fill:#1A2A4F; font-family:'FSMatthew'; font-size:12.2338;">2017</tspan><tspan x="61.549" y="0" style="fill:#1A2A4F; font-family:'FSMatthew'; font-size:12.2338;">)</tspan></text>
</g>
<g id="Text_Flat">
	<g>
		<path style="fill:#B4A168;" d="M88.37,174.657c-0.573,0.089-1.167,0.133-1.85,0.133c-0.617,0-1.233-0.022-1.651-0.11l-3.017-5.351
			h-1.3v5.351c-0.55,0.088-1.013,0.11-1.606,0.11c-0.529,0-0.991-0.022-1.542-0.11v-14.885c1.013-0.065,3.127-0.109,4.404-0.109
			c3.743,0,5.614,1.32,5.614,4.756c0,1.827-1.101,3.654-2.643,4.315L88.37,174.657z M82.007,162.262
			c-0.484,0-1.079,0.021-1.454,0.044v4.403h1.102c1.806,0,2.598-0.66,2.598-2.29C84.252,162.79,83.46,162.262,82.007,162.262z"/>
		<path style="fill:#B4A168;" d="M103.079,174.68c-0.286,0.066-0.969,0.11-1.695,0.11c-0.572,0-1.232-0.066-1.52-0.11l-1.101-3.017
			h-5.284l-1.035,3.017c-0.484,0.066-1.057,0.11-1.629,0.11s-1.233-0.044-1.563-0.11l5.196-14.885
			c0.309-0.065,1.035-0.109,1.52-0.109c0.594,0,1.299,0.044,1.541,0.109L103.079,174.68z M97.817,169.043l-1.3-4.205
			c-0.153-0.484-0.308-1.102-0.44-1.784h-0.044c-0.109,0.683-0.286,1.3-0.44,1.784l-1.232,4.205H97.817z"/>
		<path style="fill:#B4A168;" d="M116.556,174.68c-0.22,0.044-0.748,0.088-1.123,0.088c-0.374,0-0.748-0.021-1.101-0.088
			l-6.848-9.534v9.534c-0.177,0.044-0.837,0.11-1.453,0.11c-0.507,0-1.102-0.066-1.409-0.11v-14.885
			c0.353-0.065,0.771-0.088,1.167-0.088c0.418,0,0.858,0.044,1.188,0.088l6.716,9.358v-9.358c0.44-0.065,1.013-0.109,1.432-0.109
			c0.418,0,1.034,0.044,1.431,0.109V174.68z"/>
		<path style="fill:#B4A168;" d="M131.134,174.68c-0.396,0.066-1.102,0.11-1.872,0.11c-0.551,0-1.343-0.044-1.806-0.11l-3.853-5.967
			l-1.014,1.211v4.756c-0.418,0.066-0.925,0.11-1.585,0.11c-0.595,0-1.145-0.044-1.563-0.11v-14.885
			c0.419-0.065,1.035-0.109,1.586-0.109c0.616,0,1.167,0.044,1.562,0.109v6.407l2.555-2.994c1.123-1.321,1.739-2.268,1.981-3.413
			c0.44-0.065,1.057-0.109,1.541-0.109c0.396,0,1.079,0.044,1.542,0.109c-0.331,1.74-1.255,3.259-2.576,4.778l-1.762,2.025
			L131.134,174.68z"/>
		<path style="fill:#B4A168;" d="M141.858,174.68h-9.314v-14.885h9.116c0.088,0.242,0.153,0.705,0.153,1.321
			c0,0.484-0.044,0.903-0.153,1.365h-5.968v3.215h5.043c0.088,0.242,0.154,0.683,0.154,1.299c0,0.484-0.045,0.881-0.154,1.343
			h-5.043v3.655h6.166c0.088,0.242,0.153,0.705,0.153,1.321C142.012,173.799,141.968,174.218,141.858,174.68z"/>
		<path style="fill:#B4A168;" d="M153.639,173.358c-1.365,1.057-3.127,1.432-5.549,1.432c-1.232,0-3.324-0.044-4.029-0.11v-14.885
			c1.079-0.065,3.325-0.109,4.58-0.109c4.844,0,7.332,2.047,7.332,7.376C155.973,169.813,155.246,172.104,153.639,173.358z
			 M148.707,162.283c-0.595,0-1.256,0.022-1.498,0.044v9.799c0.287,0.021,0.947,0.044,1.63,0.044c2.774,0,3.875-1.762,3.875-5.152
			C152.714,163.296,151.569,162.283,148.707,162.283z"/>
		<path style="fill:#B4A168;" d="M165.904,174.68c-0.418,0.066-0.925,0.11-1.585,0.11c-0.595,0-1.146-0.044-1.563-0.11v-14.885
			c0.418-0.065,1.035-0.109,1.585-0.109c0.617,0,1.167,0.044,1.563,0.109V174.68z"/>
		<path style="fill:#B4A168;" d="M180.745,174.68c-0.22,0.044-0.748,0.088-1.122,0.088c-0.375,0-0.749-0.021-1.102-0.088
			l-6.848-9.534v9.534c-0.176,0.044-0.837,0.11-1.453,0.11c-0.507,0-1.101-0.066-1.409-0.11v-14.885
			c0.353-0.065,0.771-0.088,1.167-0.088c0.418,0,0.858,0.044,1.189,0.088l6.715,9.358v-9.358c0.44-0.065,1.013-0.109,1.432-0.109
			c0.418,0,1.035,0.044,1.431,0.109V174.68z"/>
		<path style="fill:#B4A168;" d="M196.953,162.481h-3.941v12.198c-0.419,0.066-1.013,0.11-1.563,0.11s-1.146-0.044-1.586-0.11
			v-12.198h-3.94c-0.089-0.286-0.154-0.969-0.154-1.343c0-0.375,0.088-1.058,0.176-1.344h11.01c0.088,0.286,0.153,0.969,0.153,1.344
			C197.106,161.513,197.041,162.195,196.953,162.481z"/>
		<path style="fill:#B4A168;" d="M210.165,174.68c-0.396,0.066-0.947,0.11-1.563,0.11s-1.167-0.044-1.585-0.11v-6.165h-5.175v6.165
			c-0.418,0.066-0.902,0.11-1.563,0.11c-0.594,0-1.167-0.044-1.585-0.11v-14.885c0.418-0.065,1.035-0.109,1.585-0.109
			c0.617,0,1.167,0.044,1.563,0.109v6.033h5.175v-6.033c0.484-0.065,1.034-0.109,1.585-0.109c0.528,0,1.189,0.044,1.563,0.109
			V174.68z"/>
		<path style="fill:#B4A168;" d="M222.364,174.68h-9.313v-14.885h9.115c0.089,0.242,0.154,0.705,0.154,1.321
			c0,0.484-0.044,0.903-0.154,1.365h-5.967v3.215h5.042c0.089,0.242,0.154,0.683,0.154,1.299c0,0.484-0.044,0.881-0.154,1.343
			h-5.042v3.655h6.165c0.089,0.242,0.154,0.705,0.154,1.321C222.519,173.799,222.475,174.218,222.364,174.68z"/>
	</g>
	<g>
		<path style="fill:#1A2A4F;" d="M97.984,185.346h-7.227v22.367c-0.768,0.121-1.857,0.202-2.867,0.202
			c-1.009,0-2.099-0.081-2.906-0.202v-22.367h-7.228c-0.161-0.525-0.282-1.777-0.282-2.463c0-0.687,0.161-1.938,0.322-2.463h20.188
			c0.162,0.524,0.283,1.776,0.283,2.463C98.268,183.568,98.146,184.82,97.984,185.346z"/>
		<path style="fill:#1A2A4F;" d="M110.782,208.116c-7.47,0-11.427-5.168-11.427-14.05c0-8.883,3.957-14.051,11.427-14.051
			c7.469,0,11.426,5.168,11.426,14.051C122.208,202.948,118.251,208.116,110.782,208.116z M110.782,184.981
			c-3.473,0-5.451,2.665-5.451,9.085c0,6.419,1.979,9.084,5.451,9.084c3.472,0,5.45-2.665,5.45-9.084
			C116.232,187.646,114.254,184.981,110.782,184.981z"/>
		<path style="fill:#1A2A4F;" d="M134.843,197.942h-2.826v9.771c-0.768,0.121-1.696,0.202-2.907,0.202
			c-1.09,0-2.1-0.081-2.866-0.202V180.46c2.341-0.121,5.895-0.242,8.195-0.242c6.178,0,10.659,2.14,10.659,8.56
			C145.098,195.035,141.182,197.942,134.843,197.942z M134.681,184.981c-0.808,0-1.856,0.041-2.664,0.081v8.035h2.503
			c3.108,0,4.765-0.808,4.765-4.119C139.284,186.152,137.871,184.981,134.681,184.981z"/>
		<path style="fill:#1A2A4F;" d="M173.074,185.346h-7.227v22.367c-0.768,0.121-1.857,0.202-2.867,0.202
			c-1.009,0-2.1-0.081-2.907-0.202v-22.367h-7.227c-0.161-0.525-0.282-1.777-0.282-2.463c0-0.687,0.161-1.938,0.322-2.463h20.188
			c0.162,0.524,0.283,1.776,0.283,2.463C173.357,183.568,173.236,184.82,173.074,185.346z"/>
		<path style="fill:#1A2A4F;" d="M193.341,207.713h-17.078V180.42h16.715c0.161,0.443,0.282,1.292,0.282,2.422
			c0,0.889-0.08,1.655-0.282,2.504h-10.941v5.895h9.246c0.161,0.444,0.282,1.251,0.282,2.382c0,0.889-0.081,1.615-0.282,2.463
			h-9.246v6.702h11.305c0.162,0.444,0.283,1.292,0.283,2.423C193.624,206.098,193.543,206.865,193.341,207.713z"/>
		<path style="fill:#1A2A4F;" d="M219.26,207.713c-0.403,0.081-1.373,0.161-2.059,0.161c-0.687,0-1.373-0.04-2.02-0.161
			l-12.557-17.482v17.482c-0.322,0.081-1.534,0.202-2.664,0.202c-0.929,0-2.019-0.121-2.584-0.202V180.42
			c0.646-0.121,1.413-0.162,2.14-0.162c0.768,0,1.574,0.081,2.181,0.162l12.313,17.159V180.42c0.808-0.121,1.857-0.202,2.625-0.202
			c0.767,0,1.897,0.081,2.624,0.202V207.713z"/>
	</g>
	<g>
		<path style="fill:#B4A168;" d="M142.65,217.212h-4.883v2.68h4.111c0.074,0.202,0.129,0.569,0.129,1.083
			c0,0.403-0.037,0.734-0.129,1.119h-4.111v5.287c-0.349,0.055-0.753,0.092-1.304,0.092c-0.495,0-0.973-0.037-1.321-0.092v-12.409
			h7.508c0.073,0.202,0.129,0.588,0.129,1.102C142.779,216.478,142.742,216.826,142.65,217.212z"/>
		<path style="fill:#B4A168;" d="M148.54,227.564c-3.396,0-5.195-2.35-5.195-6.388c0-4.039,1.799-6.389,5.195-6.389
			c3.396,0,5.194,2.35,5.194,6.389C153.734,225.215,151.936,227.564,148.54,227.564z M148.54,217.046
			c-1.579,0-2.479,1.212-2.479,4.131c0,2.918,0.899,4.13,2.479,4.13c1.578,0,2.478-1.212,2.478-4.13
			C151.018,218.258,150.118,217.046,148.54,217.046z"/>
		<path style="fill:#B4A168;" d="M164.708,227.362c-0.478,0.073-0.974,0.11-1.542,0.11c-0.515,0-1.028-0.019-1.377-0.092
			l-2.515-4.461h-1.083v4.461c-0.459,0.073-0.845,0.092-1.34,0.092c-0.441,0-0.826-0.019-1.285-0.092v-12.409
			c0.844-0.055,2.606-0.092,3.671-0.092c3.121,0,4.681,1.102,4.681,3.965c0,1.524-0.918,3.048-2.202,3.599L164.708,227.362z
			 M159.402,217.028c-0.403,0-0.899,0.018-1.211,0.036v3.672h0.918c1.505,0,2.166-0.551,2.166-1.909
			S160.614,217.028,159.402,217.028z"/>
	</g>
	<g>
		<path style="fill:#1A2A4F;" d="M84.151,250.755c-1.825,0-3.598-0.052-5.422-0.154v-17.319c1.49-0.103,3.469-0.154,4.805-0.154
			c3.957,0,6.373,1.208,6.373,4.472c0,1.645-0.694,2.878-2.313,3.597c2.159,0.515,3.547,2.082,3.547,4.188
			C91.141,249.393,88.236,250.755,84.151,250.755z M83.791,236.159c-0.462,0-0.977,0.025-1.388,0.052v3.905h1.439
			c1.67,0,2.467-0.539,2.467-2.106C86.31,236.391,85.051,236.159,83.791,236.159z M84.202,242.994h-1.799v4.677
			c0.488,0.025,1.208,0.052,1.696,0.052c2.287,0,3.392-0.643,3.392-2.364C87.491,243.585,86.541,242.994,84.202,242.994z"/>
		<path style="fill:#1A2A4F;" d="M97.073,250.626c-0.488,0.077-1.079,0.129-1.851,0.129c-0.693,0-1.336-0.052-1.824-0.129v-17.37
			c0.488-0.077,1.208-0.129,1.851-0.129c0.72,0,1.361,0.052,1.824,0.129V250.626z"/>
		<path style="fill:#1A2A4F;" d="M106.938,250.883c-4.753,0-7.271-3.289-7.271-8.942c0-5.652,2.519-8.941,7.271-8.941
			c4.754,0,7.272,3.289,7.272,8.941C114.211,247.594,111.692,250.883,106.938,250.883z M106.938,236.159
			c-2.209,0-3.469,1.696-3.469,5.781c0,4.086,1.26,5.782,3.469,5.782c2.21,0,3.47-1.696,3.47-5.782
			C110.408,237.855,109.148,236.159,106.938,236.159z"/>
		<path style="fill:#1A2A4F;" d="M121.505,250.883c-1.876,0-3.932-0.359-5.396-1.027c-0.077-0.36-0.129-0.822-0.129-1.233
			c0-0.617,0.077-1.208,0.257-1.901c1.517,0.616,3.521,1.002,5.088,1.002c1.824,0,2.801-0.849,2.801-2.005
			c0-1.284-0.822-1.824-3.314-2.595c-2.775-0.849-4.806-2.185-4.806-5.165c0-3.187,2.75-4.959,6.373-4.959
			c1.67,0,3.16,0.257,4.162,0.591c0.077,0.282,0.129,0.745,0.129,1.413c0,0.488-0.052,1.233-0.154,1.645
			c-1.285-0.334-2.749-0.514-3.932-0.514c-1.927,0-2.98,0.643-2.98,1.67c0,1.208,0.951,1.696,3.264,2.415
			c2.774,0.874,4.83,2.185,4.83,5.268C127.697,248.853,125.051,250.883,121.505,250.883z"/>
		<path style="fill:#1A2A4F;" d="M141.982,236.879c-1.233-0.386-2.775-0.668-4.009-0.668c-2.93,0-4.831,2.081-4.831,5.807
			c0,3.418,1.49,5.653,4.806,5.653c1.233,0,2.621-0.257,3.854-0.643c0.18,0.463,0.308,1.183,0.308,1.722
			c0,0.438-0.025,0.977-0.077,1.208c-1.284,0.591-2.929,0.925-4.445,0.925c-5.524,0-8.248-3.34-8.248-8.788
			c0-5.293,2.93-9.096,8.402-9.096c1.336,0,3.084,0.334,4.317,0.873c0.077,0.257,0.103,0.822,0.103,1.156
			C142.162,235.825,142.06,236.57,141.982,236.879z"/>
		<path style="fill:#1A2A4F;" d="M148.3,250.626c-0.487,0.077-1.079,0.129-1.85,0.129c-0.693,0-1.336-0.052-1.824-0.129v-17.37
			c0.488-0.077,1.207-0.129,1.85-0.129c0.72,0,1.362,0.052,1.824,0.129V250.626z"/>
		<path style="fill:#1A2A4F;" d="M162.56,250.626H151.69v-17.37h10.638c0.104,0.282,0.18,0.822,0.18,1.541
			c0,0.565-0.051,1.054-0.18,1.594h-6.963v3.752h5.884c0.103,0.282,0.18,0.796,0.18,1.516c0,0.565-0.051,1.027-0.18,1.567h-5.884
			v4.266h7.194c0.103,0.282,0.18,0.822,0.18,1.542C162.739,249.598,162.688,250.086,162.56,250.626z"/>
		<path style="fill:#1A2A4F;" d="M179.08,250.626c-0.257,0.052-0.874,0.103-1.311,0.103s-0.874-0.025-1.285-0.103l-7.991-11.126
			v11.126c-0.205,0.052-0.977,0.129-1.696,0.129c-0.591,0-1.284-0.077-1.645-0.129v-17.37c0.411-0.077,0.899-0.104,1.362-0.104
			c0.488,0,1.002,0.052,1.388,0.104l7.837,10.921v-10.921c0.514-0.077,1.183-0.129,1.671-0.129c0.487,0,1.207,0.052,1.67,0.129
			V250.626z"/>
		<path style="fill:#1A2A4F;" d="M194.287,236.879c-1.232-0.386-2.774-0.668-4.008-0.668c-2.93,0-4.831,2.081-4.831,5.807
			c0,3.418,1.49,5.653,4.805,5.653c1.233,0,2.621-0.257,3.854-0.643c0.18,0.463,0.309,1.183,0.309,1.722
			c0,0.438-0.025,0.977-0.077,1.208c-1.284,0.591-2.929,0.925-4.445,0.925c-5.524,0-8.248-3.34-8.248-8.788
			c0-5.293,2.929-9.096,8.402-9.096c1.336,0,3.083,0.334,4.316,0.873c0.077,0.257,0.104,0.822,0.104,1.156
			C194.468,235.825,194.364,236.57,194.287,236.879z"/>
		<path style="fill:#1A2A4F;" d="M207.75,250.626h-10.87v-17.37h10.639c0.103,0.282,0.18,0.822,0.18,1.541
			c0,0.565-0.052,1.054-0.18,1.594h-6.964v3.752h5.885c0.103,0.282,0.18,0.796,0.18,1.516c0,0.565-0.052,1.027-0.18,1.567h-5.885
			v4.266h7.195c0.103,0.282,0.18,0.822,0.18,1.542C207.93,249.598,207.878,250.086,207.75,250.626z"/>
		<path style="fill:#1A2A4F;" d="M215.07,250.883c-1.876,0-3.932-0.359-5.396-1.027c-0.077-0.36-0.128-0.822-0.128-1.233
			c0-0.617,0.077-1.208,0.257-1.901c1.516,0.616,3.521,1.002,5.088,1.002c1.824,0,2.801-0.849,2.801-2.005
			c0-1.284-0.822-1.824-3.314-2.595c-2.775-0.849-4.806-2.185-4.806-5.165c0-3.187,2.749-4.959,6.373-4.959
			c1.67,0,3.16,0.257,4.162,0.591c0.077,0.282,0.129,0.745,0.129,1.413c0,0.488-0.052,1.233-0.154,1.645
			c-1.285-0.334-2.75-0.514-3.932-0.514c-1.927,0-2.98,0.643-2.98,1.67c0,1.208,0.95,1.696,3.263,2.415
			c2.775,0.874,4.831,2.185,4.831,5.268C221.263,248.853,218.616,250.883,215.07,250.883z"/>
	</g>
	<line style="fill:none;stroke:#FFFFFF;stroke-width:1.197;" x1="169.915" y1="220.414" x2="223.32" y2="220.414"/>
	<line style="fill:none;stroke:#FFFFFF;stroke-width:1.197;" x1="75.589" y1="220.414" x2="128.995" y2="220.414"/>
	<g>
		<path style="fill:#1A2A4F;" d="M92.638,267.971c-1.42-1.321-2.179-3.182-2.179-5.054s0.759-3.671,2.179-4.993
			c0.281,0.037,0.465,0.172,0.624,0.392c-1.199,1.42-1.652,3.023-1.652,4.639c0,1.64,0.453,3.206,1.652,4.626
			C93.103,267.8,92.919,267.935,92.638,267.971z"/>
		<path style="fill:#1A2A4F;" d="M100.139,266.16c-0.661,0.318-1.542,0.562-2.473,0.562c-2.582,0-3.781-1.701-3.781-4.173
			c0-1.444,0.502-2.692,1.42-3.476c0.648-0.551,1.542-0.868,2.569-0.868c0.759,0,1.518,0.158,1.982,0.366
			c0.049,0.159,0.062,0.307,0.062,0.478c0,0.172-0.013,0.318-0.062,0.478c-0.538-0.159-1.309-0.281-1.884-0.281
			c-0.809,0-1.444,0.257-1.885,0.673c-0.637,0.6-0.918,1.554-0.918,2.606c0,2.02,0.881,3.146,2.619,3.146
			c0.44,0,0.868-0.086,1.125-0.196v-2.692c0.196-0.024,0.38-0.061,0.575-0.061c0.221,0,0.429,0.024,0.649,0.061V266.16z"/>
		<path style="fill:#1A2A4F;" d="M107.441,263.505c0,2.129-0.734,3.218-2.985,3.218c-2.35,0-2.95-1.04-2.95-3.218v-5.177
			c0.196-0.024,0.392-0.062,0.588-0.062c0.221,0,0.416,0.024,0.637,0.062v5.385c0,1.187,0.257,2.067,1.713,2.067
			s1.812-0.881,1.812-2.067v-5.385c0.195-0.024,0.367-0.062,0.562-0.062c0.221,0,0.404,0.024,0.624,0.062V263.505z"/>
		<path style="fill:#1A2A4F;" d="M113.167,264.643h-3.23l-0.637,1.958c-0.159,0.024-0.416,0.062-0.661,0.062
			c-0.171,0-0.416-0.024-0.575-0.062l2.852-8.272c0.146-0.037,0.453-0.062,0.612-0.062c0.171,0,0.452,0.037,0.562,0.062l3.06,8.272
			c-0.11,0.024-0.404,0.062-0.637,0.062c-0.184,0-0.478-0.013-0.66-0.062L113.167,264.643z M110.254,263.639h2.558l-0.979-2.814
			c-0.159-0.465-0.257-0.844-0.318-1.175h-0.012c-0.062,0.331-0.184,0.723-0.331,1.188L110.254,263.639z"/>
		<path style="fill:#1A2A4F;" d="M121.4,266.601c-0.244,0.037-0.489,0.062-0.734,0.062c-0.232,0-0.428-0.013-0.66-0.062
			l-1.812-3.182h-1.077v3.182c-0.208,0.037-0.416,0.062-0.624,0.062c-0.195,0-0.403-0.024-0.6-0.062v-8.272
			c0.6-0.037,1.321-0.062,2.02-0.062c1.726,0,3.108,0.526,3.108,2.509c0,1.089-0.6,2.044-1.604,2.411L121.4,266.601z
			 M118.048,259.222c-0.282,0-0.723,0-0.931,0.012v3.219h0.832c1.15,0,1.836-0.514,1.836-1.677
			C119.785,259.649,119.137,259.222,118.048,259.222z"/>
		<path style="fill:#1A2A4F;" d="M127.48,265.879c-0.71,0.562-1.688,0.783-3.06,0.783c-0.562,0-1.615-0.024-1.982-0.062v-8.272
			c0.563-0.037,1.321-0.062,2.179-0.062c2.839,0,4.136,1.175,4.136,4.148C128.753,264.019,128.312,265.205,127.48,265.879z
			 M124.604,259.222c-0.245,0-0.686,0.012-0.942,0.024v6.412c0.221,0.024,0.624,0.037,1.053,0.037c0.93,0,1.542-0.257,1.97-0.71
			c0.575-0.6,0.783-1.566,0.783-2.595C127.468,260.298,126.868,259.222,124.604,259.222z"/>
		<path style="fill:#1A2A4F;" d="M131.247,266.601c-0.196,0.024-0.392,0.062-0.588,0.062c-0.22,0-0.416-0.024-0.636-0.062v-8.272
			c0.208-0.037,0.403-0.062,0.624-0.062c0.208,0,0.403,0.024,0.6,0.062V266.601z"/>
		<path style="fill:#1A2A4F;" d="M137.291,264.643h-3.23l-0.637,1.958c-0.159,0.024-0.416,0.062-0.66,0.062
			c-0.172,0-0.416-0.024-0.575-0.062l2.852-8.272c0.146-0.037,0.452-0.062,0.611-0.062c0.172,0,0.453,0.037,0.563,0.062l3.059,8.272
			c-0.109,0.024-0.403,0.062-0.636,0.062c-0.184,0-0.478-0.013-0.661-0.062L137.291,264.643z M134.379,263.639h2.558l-0.979-2.814
			c-0.159-0.465-0.257-0.844-0.317-1.175h-0.013c-0.062,0.331-0.184,0.723-0.33,1.188L134.379,263.639z"/>
		<path style="fill:#1A2A4F;" d="M146.406,266.601c-0.098,0.037-0.306,0.049-0.465,0.049c-0.147,0-0.294-0.012-0.429-0.049
			l-4.356-6.18v6.18c-0.11,0.037-0.404,0.062-0.588,0.062c-0.146,0-0.379-0.013-0.538-0.062v-8.272
			c0.098-0.024,0.354-0.049,0.478-0.049c0.159,0,0.367,0.012,0.489,0.049l4.283,6.082v-6.082c0.135-0.037,0.367-0.062,0.526-0.062
			c0.146,0,0.478,0.024,0.6,0.062V266.601z"/>
		<path style="fill:#1A2A4F;" d="M156.363,263.505c0,2.129-0.733,3.218-2.985,3.218c-2.35,0-2.949-1.04-2.949-3.218v-5.177
			c0.195-0.024,0.392-0.062,0.587-0.062c0.221,0,0.417,0.024,0.637,0.062v5.385c0,1.187,0.257,2.067,1.713,2.067
			s1.812-0.881,1.812-2.067v-5.385c0.195-0.024,0.367-0.062,0.562-0.062c0.221,0,0.404,0.024,0.624,0.062V263.505z"/>
		<path style="fill:#1A2A4F;" d="M164.304,266.601c-0.099,0.037-0.307,0.049-0.466,0.049c-0.146,0-0.293-0.012-0.428-0.049
			l-4.356-6.18v6.18c-0.11,0.037-0.404,0.062-0.588,0.062c-0.146,0-0.379-0.013-0.538-0.062v-8.272
			c0.098-0.024,0.354-0.049,0.478-0.049c0.158,0,0.366,0.012,0.489,0.049l4.283,6.082v-6.082c0.135-0.037,0.367-0.062,0.526-0.062
			c0.146,0,0.477,0.024,0.6,0.062V266.601z"/>
		<path style="fill:#1A2A4F;" d="M167.189,266.601c-0.196,0.024-0.392,0.062-0.588,0.062c-0.22,0-0.416-0.024-0.637-0.062v-8.272
			c0.209-0.037,0.404-0.062,0.625-0.062c0.208,0,0.403,0.024,0.6,0.062V266.601z"/>
		<path style="fill:#1A2A4F;" d="M174.298,260.506l-2.227,6.095c-0.123,0.037-0.404,0.062-0.612,0.062
			c-0.257,0-0.526-0.024-0.648-0.062l-2.276-6.082c-0.27-0.734-0.403-1.664-0.403-2.19c0.183-0.037,0.379-0.062,0.587-0.062
			c0.232,0,0.44,0.024,0.612,0.062c0.012,0.538,0.134,1.31,0.379,1.982l1.358,3.671c0.159,0.416,0.294,0.894,0.354,1.188h0.024
			c0.062-0.331,0.196-0.747,0.355-1.175l1.346-3.684c0.245-0.661,0.38-1.407,0.38-1.982c0.122-0.024,0.33-0.062,0.6-0.062
			c0.208,0,0.416,0.024,0.575,0.062C174.702,258.854,174.579,259.748,174.298,260.506z"/>
		<path style="fill:#1A2A4F;" d="M180.402,266.601h-4.821v-8.272h4.638c0.049,0.146,0.062,0.354,0.062,0.502
			c0,0.159-0.013,0.343-0.062,0.501h-3.414v2.497h2.949c0.049,0.146,0.062,0.354,0.062,0.502c0,0.158-0.013,0.342-0.062,0.501
			h-2.949v2.766h3.598c0.049,0.147,0.062,0.355,0.062,0.502C180.464,266.258,180.451,266.441,180.402,266.601z"/>
		<path style="fill:#1A2A4F;" d="M187.106,266.601c-0.245,0.037-0.489,0.062-0.734,0.062c-0.232,0-0.429-0.013-0.661-0.062
			l-1.811-3.182h-1.077v3.182c-0.208,0.037-0.416,0.062-0.624,0.062c-0.196,0-0.404-0.024-0.6-0.062v-8.272
			c0.6-0.037,1.321-0.062,2.02-0.062c1.725,0,3.107,0.526,3.107,2.509c0,1.089-0.6,2.044-1.603,2.411L187.106,266.601z
			 M183.753,259.222c-0.281,0-0.722,0-0.93,0.012v3.219h0.832c1.15,0,1.836-0.514,1.836-1.677
			C185.491,259.649,184.843,259.222,183.753,259.222z"/>
		<path style="fill:#1A2A4F;" d="M190.225,266.723c-0.673,0-1.75-0.146-2.35-0.465c-0.036-0.171-0.061-0.33-0.061-0.502
			c0-0.184,0.012-0.367,0.061-0.538c0.575,0.27,1.591,0.502,2.289,0.502c1.016,0,1.7-0.392,1.7-1.236
			c0-0.771-0.354-1.15-1.346-1.518l-0.624-0.232c-1.236-0.465-1.995-1.138-1.995-2.276c0-1.529,1.298-2.251,2.778-2.251
			c0.648,0,1.272,0.073,1.848,0.22c0.037,0.146,0.062,0.306,0.062,0.465c0,0.172-0.024,0.343-0.062,0.515
			c-0.6-0.123-1.162-0.196-1.774-0.196c-0.832,0-1.615,0.33-1.615,1.212c0,0.624,0.343,1.003,1.31,1.37l0.575,0.221
			c1.26,0.465,2.019,1.052,2.019,2.35C193.039,265.952,191.791,266.723,190.225,266.723z"/>
		<path style="fill:#1A2A4F;" d="M195.498,266.601c-0.196,0.024-0.392,0.062-0.588,0.062c-0.22,0-0.416-0.024-0.637-0.062v-8.272
			c0.209-0.037,0.404-0.062,0.625-0.062c0.208,0,0.403,0.024,0.6,0.062V266.601z"/>
		<path style="fill:#1A2A4F;" d="M202.483,259.331h-2.472v7.27c-0.208,0.037-0.403,0.062-0.624,0.062
			c-0.208,0-0.403-0.024-0.6-0.062v-7.27h-2.35c-0.049-0.158-0.062-0.342-0.062-0.501c0-0.147,0.013-0.355,0.062-0.502h6.045
			c0.05,0.146,0.062,0.354,0.062,0.502C202.545,258.989,202.533,259.173,202.483,259.331z"/>
		<path style="fill:#1A2A4F;" d="M205.309,263.7l-1.823-3.622c-0.306-0.612-0.489-1.248-0.489-1.763
			c0.171-0.036,0.317-0.049,0.6-0.049c0.22,0,0.428,0.013,0.6,0.049c0,0.416,0.049,0.808,0.306,1.347l1.42,2.925h0.024l1.419-2.852
			c0.257-0.514,0.307-1.016,0.307-1.407c0.171-0.049,0.293-0.062,0.562-0.062c0.208,0,0.429,0.024,0.612,0.062
			c0,0.465-0.123,1.102-0.453,1.75l-1.86,3.646v2.876c-0.171,0.037-0.416,0.062-0.611,0.062c-0.221,0-0.416-0.024-0.612-0.062V263.7
			z"/>
	</g>
	<g>
		<path style="fill:#1A2A4F;" d="M123.529,279.614c-0.661,0.318-1.542,0.562-2.472,0.562c-2.582,0-3.781-1.701-3.781-4.173
			c0-1.444,0.501-2.692,1.419-3.476c0.648-0.551,1.542-0.868,2.57-0.868c0.759,0,1.518,0.158,1.982,0.367
			c0.049,0.158,0.062,0.306,0.062,0.477c0,0.172-0.013,0.318-0.062,0.478c-0.539-0.159-1.31-0.281-1.885-0.281
			c-0.808,0-1.444,0.257-1.885,0.673c-0.636,0.6-0.918,1.554-0.918,2.606c0,2.02,0.882,3.146,2.619,3.146
			c0.44,0,0.869-0.086,1.126-0.196v-2.692c0.195-0.024,0.379-0.061,0.575-0.061c0.22,0,0.429,0.024,0.648,0.061V279.614z"/>
		<path style="fill:#1A2A4F;" d="M130.833,276.959c0,2.129-0.734,3.218-2.986,3.218c-2.35,0-2.949-1.04-2.949-3.218v-5.177
			c0.195-0.024,0.392-0.062,0.587-0.062c0.221,0,0.417,0.024,0.637,0.062v5.385c0,1.187,0.257,2.067,1.713,2.067
			c1.457,0,1.812-0.881,1.812-2.067v-5.385c0.196-0.024,0.367-0.062,0.563-0.062c0.22,0,0.403,0.024,0.624,0.062V276.959z"/>
		<path style="fill:#1A2A4F;" d="M133.682,280.055c-0.195,0.024-0.392,0.062-0.587,0.062c-0.221,0-0.416-0.024-0.637-0.062v-8.272
			c0.208-0.037,0.404-0.062,0.624-0.062c0.208,0,0.404,0.024,0.6,0.062V280.055z"/>
		<path style="fill:#1A2A4F;" d="M140.375,279.333c-0.71,0.562-1.688,0.783-3.06,0.783c-0.562,0-1.615-0.024-1.982-0.062v-8.272
			c0.563-0.037,1.321-0.062,2.179-0.062c2.839,0,4.136,1.175,4.136,4.148C141.647,277.473,141.207,278.659,140.375,279.333z
			 M137.499,272.676c-0.245,0-0.686,0.012-0.942,0.024v6.412c0.221,0.024,0.624,0.037,1.053,0.037c0.93,0,1.542-0.257,1.97-0.71
			c0.575-0.6,0.783-1.566,0.783-2.595C140.362,273.752,139.763,272.676,137.499,272.676z"/>
		<path style="fill:#1A2A4F;" d="M147.69,280.055h-4.821v-8.272h4.638c0.049,0.146,0.062,0.354,0.062,0.502
			c0,0.159-0.013,0.343-0.062,0.501h-3.414v2.497h2.949c0.049,0.146,0.061,0.354,0.061,0.502c0,0.159-0.012,0.342-0.061,0.501
			h-2.949v2.766h3.598c0.049,0.147,0.062,0.355,0.062,0.502C147.752,279.712,147.739,279.896,147.69,280.055z"/>
		<path style="fill:#1A2A4F;" d="M148.851,279.59c0-0.404,0.331-0.734,0.734-0.734c0.465,0,0.771,0.379,0.771,0.894
			c0,0.967-0.942,2.007-1.763,2.533c-0.171-0.123-0.294-0.282-0.367-0.49c0.526-0.366,0.918-0.844,1.114-1.321
			C149.047,280.263,148.851,279.981,148.851,279.59z"/>
		<path style="fill:#1A2A4F;" d="M156.497,277.521c-0.44,0.489-0.918,1.004-1.432,1.518h3.463c0.037,0.135,0.062,0.392,0.062,0.538
			c0,0.135-0.013,0.343-0.062,0.478h-4.797c-0.085-0.232-0.146-0.453-0.146-0.697c0-0.099,0.012-0.208,0.024-0.307
			c0.648-0.648,1.383-1.419,2.007-2.116c1.15-1.285,1.762-2.032,1.762-3.011c0-0.881-0.587-1.322-1.37-1.322
			c-0.686,0-1.432,0.209-1.995,0.502c-0.036-0.171-0.061-0.343-0.061-0.514c0-0.122,0.024-0.306,0.061-0.416
			c0.563-0.306,1.347-0.514,2.179-0.514c1.37,0,2.447,0.819,2.447,2.166C158.639,275.074,157.893,275.968,156.497,277.521z"/>
		<path style="fill:#1A2A4F;" d="M162.565,280.177c-1.799,0-2.741-1.395-2.741-4.259c0-2.826,0.942-4.258,2.741-4.258
			s2.741,1.395,2.741,4.258C165.307,278.782,164.364,280.177,162.565,280.177z M162.565,272.614c-1.175,0-1.456,1.37-1.456,3.292
			c0,1.934,0.293,3.316,1.456,3.316c1.199,0,1.456-1.383,1.456-3.316S163.74,272.614,162.565,272.614z"/>
		<path style="fill:#1A2A4F;" d="M170.383,280.055c-0.195,0.037-0.403,0.062-0.611,0.062s-0.416-0.024-0.612-0.062v-6.951
			l-2.068,1.334c-0.232-0.22-0.44-0.575-0.514-0.881l2.852-1.774c0.135-0.037,0.294-0.062,0.452-0.062
			c0.172,0,0.343,0.024,0.502,0.062V280.055z"/>
		<path style="fill:#1A2A4F;" d="M177.883,272.7l-3.391,7.354c-0.195,0.037-0.428,0.062-0.648,0.062
			c-0.184,0-0.428-0.024-0.624-0.062l3.451-7.27h-3.989c-0.037-0.158-0.062-0.354-0.062-0.538c0-0.195,0.024-0.318,0.062-0.465
			h5.213c0.037,0.146,0.049,0.257,0.049,0.465C177.943,272.406,177.907,272.651,177.883,272.7z"/>
		<path style="fill:#1A2A4F;" d="M179.569,281.426c-0.281-0.037-0.465-0.172-0.624-0.393c1.199-1.419,1.651-3.022,1.651-4.638
			c0-1.64-0.452-3.206-1.651-4.626c0.159-0.22,0.367-0.354,0.648-0.392c1.419,1.322,2.153,3.182,2.153,5.055
			C181.747,278.305,180.988,280.104,179.569,281.426z"/>
	</g>
</g>
</svg>
