<?xml version="1.0" encoding="utf-8"?>
<!-- Generator: Adobe Illustrator 16.0.0, SVG Export Plug-In . SVG Version: 6.00 Build 0)  -->
<!DOCTYPE svg PUBLIC "-//W3C//DTD SVG 1.0//EN" "http://www.w3.org/TR/2001/REC-SVG-20010904/DTD/svg10.dtd">
<svg version="1.0" xmlns="http://www.w3.org/2000/svg" xmlns:xlink="http://www.w3.org/1999/xlink" x="0px" y="0px" width="300px"
	 height="300px" viewBox="0 0 300 300" style="enable-background:new 0 0 300 300;" xml:space="preserve">
<g id="Icon">
	<g>
		<defs>
			<rect id="SVGID_1_" x="-733.721" y="-444.604" width="1200" height="1246"/>
		</defs>
		<clipPath id="SVGID_2_">
			<use xlink:href="#SVGID_1_"  style="overflow:visible;"/>
		</clipPath>
		<path style="clip-path:url(#SVGID_2_);fill:#B4A168;" d="M221.907,169.339c-2.224,1.416-3.309,4.002-2.937,6.489
			c0.058-0.028,0.115-0.056,0.175-0.078l10.211-6.102C227.234,168.042,224.246,167.848,221.907,169.339 M225.998,180.071
			c1.892,0.1,3.639-0.945,4.45-2.657c0.563-1.193,0.588-2.529,0.12-3.706l-7.892,4.717
			C223.49,179.393,224.681,180.003,225.998,180.071 M234.159,179.17c-1.459,3.085-4.529,5.015-7.913,5.015
			c-0.152,0-0.305-0.003-0.458-0.011c-2.712-0.14-5.137-1.503-6.662-3.628l-2.717,1.625c-0.332,0.196-0.694,0.29-1.053,0.29
			c-0.697,0-1.38-0.357-1.766-1c-0.58-0.976-0.264-2.235,0.712-2.817l0.981-0.586c-0.607-1.899-0.667-3.936-0.157-5.896
			c0.676-2.608,2.302-4.84,4.572-6.287s4.981-1.977,7.632-1.49c2.647,0.485,4.992,1.943,6.599,4.102c0.002,0,0.002,0,0.002,0l0,0
			h0.002c0,0.002,0,0.002,0.002,0.004c0.413,0.558,0.57,1.273,0.433,1.968c-0.066,0.324-0.192,0.627-0.364,0.895
			C235.266,173.753,235.359,176.637,234.159,179.17"/>
		<path style="clip-path:url(#SVGID_2_);fill:#B4A168;" d="M219.486,221.979L219.486,221.979c0.069-0.031,0.101-0.091,0.113-0.121
			c0.024-0.066,0.007-0.103,0.001-0.114l-3.795-8.106c-0.039-0.084-0.147-0.122-0.233-0.081l-0.548,0.265
			c-0.135,0.241-0.286,0.476-0.455,0.702c-0.001,0-0.001,0-0.001,0c-1.546,2.075-1.806,4.811-0.677,7.138
			c0.048,0.094,0.081,0.188,0.111,0.282l0.155,0.297c0.027,0.048,0.056,0.097,0.08,0.146c0.274,0.566,0.629,1.084,1.039,1.552
			L219.486,221.979z M204.022,201.985c-0.024,0-0.051,0-0.075,0.002c-2.3,0.028-4.42,1.392-5.397,3.473l-18.769,40.06h49.638
			l-6.864-13.759c-0.034-0.073-0.077-0.104-0.09-0.11l-5.513-1.825c-0.095-0.033-0.185-0.071-0.271-0.114
			c-1.021-0.372-1.979-0.896-2.842-1.546c-0.171-0.099-0.329-0.223-0.468-0.37c-1.128-0.95-2.069-2.123-2.743-3.45
			c-0.022-0.035-0.041-0.068-0.06-0.104l-0.379-0.724c-0.078-0.146-0.132-0.297-0.171-0.448c-1.593-3.629-1.127-7.805,1.257-11.002
			c0.542-0.726,0.621-1.691,0.206-2.522l-2.134-4.196c0-0.002-0.001-0.005-0.001-0.007c-0.002-0.002-0.004-0.003-0.006-0.008
			C208.31,203.264,206.275,201.985,204.022,201.985 M252.864,187.684l-1.069,0.064l0.858,1.18L252.864,187.684z M226.383,215.768
			c0.227,0.303,0.557,0.498,0.931,0.553c0.771,0.111,1.49-0.427,1.6-1.196c0.002-0.011,0.004-0.021,0.005-0.03l0.563-3.92
			c0.002-0.194,0.028-0.384,0.082-0.566l1.799-12.555c0,0,0,0,0-0.001l0,0c0.171-1.158,1.063-2.133,2.23-2.43
			c1.156-0.292,2.364,0.131,3.073,1.081v0.001l8.452,11.351c0.388,0.522,0.507,1.196,0.318,1.819l-3.967,13.145h-0.002
			c-0.056,0.183-0.082,0.326-0.082,0.423l-0.138,20.13c0,1.075,0.896,1.948,1.997,1.948c1.104,0,1.966-0.84,1.966-1.913
			c0-0.003,0-0.005,0-0.007c0-0.003,0-0.005,0-0.007l0.138-20.906c0.007-0.982,0.356-1.941,0.981-2.701
			c0.002-0.001,0.004-0.003,0.005-0.007l12.108-14.695h0.001c0.312-0.378,0.336-0.934,0.058-1.32c-0.002,0-0.002,0-0.002-0.002
			l-6.147-8.46c-0.116-0.123-0.214-0.26-0.296-0.408l-4.83-6.646c0,0,0-0.002-0.002-0.002l0,0l-0.002-0.001c0-0.001,0-0.001,0-0.003
			c-0.623-0.859-0.716-2.008-0.242-3c0.464-0.979,1.367-1.6,2.421-1.666c0.007,0,0.013-0.001,0.02-0.003l4.694-0.274
			c0.001,0,0.003,0,0.005,0s0.004-0.002,0.006-0.002c0.884-0.045,1.764,0.32,2.352,0.981c0.578,0.648,0.832,1.576,0.678,2.479
			c0,0.001,0,0.003,0,0.006l-1.128,6.609l2.318,3.189l1.936-11.25c0.22-1.273-0.152-2.598-0.991-3.538
			c-0.84-0.946-2.066-1.448-3.36-1.378c-0.002,0-0.002,0-0.004,0l-11.97,0.62c-0.499,0.026-0.982,0.205-1.361,0.499l-12.488,9.762
			c-0.029,0.024-0.063,0.047-0.094,0.068c-0.012,0.008-0.02,0.017-0.029,0.023c-0.369,0.244-0.634,0.653-0.695,1.067l-3.168,22.047
			c-0.002,0.011-0.002,0.025-0.003,0.037C226.062,215.092,226.155,215.465,226.383,215.768 M238.285,205.76l-3.252-4.367
			l-0.904,6.308L238.285,205.76z M266.647,244.138c0,0,0,0,0,0.002h0.002c0.317,1.032,1.423,1.613,2.463,1.292
			c0.503-0.153,0.915-0.497,1.162-0.964c0.245-0.465,0.298-0.998,0.143-1.498c-0.047-0.15-0.072-0.303-0.086-0.452l-10.086-32.96
			l-3.116,3.781L266.647,244.138z M175.272,245.461L175.272,245.461l19.561-41.743c1.639-3.499,5.198-5.791,9.063-5.839
			c3.862-0.048,7.354,2.1,9.112,5.603c0.002,0.002,0.002,0.003,0.004,0.005l2.139,4.209c0.002,0.002,0.002,0.005,0.003,0.007
			c0,0.002,0.002,0.003,0.004,0.007c0.277,0.556,0.472,1.137,0.583,1.726c1.576,0.035,3.072,0.94,3.785,2.457
			c0,0.002,0.001,0.002,0.001,0.004l1.018,2.176l1.623-0.759l3.055-21.263v-0.001c0,0,0.002,0,0.002-0.002
			c0.223-1.539,1.089-2.926,2.381-3.828l12.462-9.739l0.002-0.002c1.05-0.82,2.319-1.292,3.672-1.363h0.001l11.973-0.62
			c0.002,0,0.003,0,0.005,0c2.547-0.136,4.964,0.867,6.639,2.75c1.661,1.865,2.398,4.469,1.971,6.962l0,0l-2.614,15.192l0.113,0.156
			l0.002,0.002c0.002,0.001,0.002,0.003,0.004,0.003c0.437,0.608,0.727,1.29,0.867,1.992l11.665,38.112
			c0.053,0.17,0.078,0.342,0.086,0.511c0.333,1.425,0.146,2.908-0.55,4.216c-0.758,1.434-2.029,2.487-3.581,2.967
			c-0.596,0.183-1.197,0.271-1.791,0.271c-2.596,0-5.003-1.676-5.807-4.277v-0.002l-8.722-28.213l-4.496,5.457
			c-0.001,0.001-0.003,0.001-0.003,0.003c-0.002,0-0.004,0.002-0.004,0.004c-0.025,0.033-0.042,0.076-0.043,0.116l-0.14,20.904
			c0,0.003,0,0.007,0,0.008c-0.011,3.31-2.729,5.999-6.071,5.999c-3.366,0-6.107-2.718-6.107-6.056c0-0.002,0.002-0.005,0.002-0.007
			c0-0.003-0.002-0.004-0.002-0.006l0.139-20.147v-0.002c0.005-0.503,0.087-1.003,0.259-1.577c0-0.001,0-0.001,0.002-0.001
			l3.667-12.152l-0.414-0.555l-7.359,3.436l-0.449,3.153c-0.004,0.025-0.009,0.048-0.015,0.073
			c-0.431,2.707-2.774,4.656-5.449,4.656c-0.261,0-0.527-0.019-0.795-0.057c-1.458-0.212-2.747-0.979-3.63-2.161
			c-0.149-0.197-0.282-0.406-0.402-0.622l-0.403,0.19l1.033,2.208v0.002c0.487,1.039,0.531,2.211,0.123,3.297
			c-0.401,1.065-1.188,1.917-2.217,2.4c0,0,0,0-0.002,0c0,0.001,0,0.001,0,0.001l-1.523,0.708l4.061,1.345c0.002,0,0.002,0,0.002,0
			c0.001,0,0.001,0,0.001,0c1.055,0.352,1.95,1.142,2.465,2.171l0,0c0,0,0,0.001,0.002,0.001l7.382,14.8c0,0,0,0.001,0.002,0.003
			c0.528,1.059,0.483,2.322-0.12,3.296c-0.61,0.988-1.72,1.603-2.891,1.603h-52.646c-0.996,0-1.914-0.508-2.459-1.361
			C174.944,247.391,174.859,246.342,175.272,245.461"/>
	</g>
	<rect x="20.536" y="246.449" style="fill:#B4A168;" width="258.34" height="3.179"/>
</g>
<g id="Text" style="display:none;">
	<text transform="matrix(1 0 0 1 24.2837 119.022)" style="display:inline;"><tspan x="0" y="0" style="fill:#B4A168; font-family:'FSMatthew-Bold'; font-size:101.8732; letter-spacing:-11;">1</tspan><tspan x="44.721" y="0" style="fill:#B4A168; font-family:'FSMatthew-Bold'; font-size:101.8732; letter-spacing:-1;">0</tspan><tspan x="98.611" y="0" style="fill:#B4A168; font-family:'FSMatthew-Bold'; font-size:101.8732; letter-spacing:-3;">0</tspan><tspan x="150.463" y="0" style="fill:#B4A168; font-family:'FSMatthew-Bold'; font-size:101.8732;">%</tspan></text>
	<text transform="matrix(1 0 0 1 28.1597 165.4385)" style="display:inline;"><tspan x="0" y="0" style="fill:#B4A168; font-family:'FSMatthew-Bold'; font-size:24.7223; letter-spacing:-1;">F</tspan><tspan x="11.817" y="0" style="fill:#B4A168; font-family:'FSMatthew-Bold'; font-size:24.7223;">O</tspan><tspan x="27.516" y="0" style="fill:#B4A168; font-family:'FSMatthew-Bold'; font-size:24.7223;">R</tspan><tspan x="41.83" y="0" style="fill:#B4A168; font-family:'FSMatthew-Bold'; font-size:24.7223;"> B</tspan><tspan x="60.989" y="0" style="fill:#B4A168; font-family:'FSMatthew-Bold'; font-size:24.7223;">U</tspan><tspan x="76.737" y="0" style="fill:#B4A168; font-family:'FSMatthew-Bold'; font-size:24.7223;">I</tspan><tspan x="83.61" y="0" style="fill:#B4A168; font-family:'FSMatthew-Bold'; font-size:24.7223; letter-spacing:-2;">L</tspan><tspan x="93.795" y="0" style="fill:#B4A168; font-family:'FSMatthew-Bold'; font-size:24.7223; letter-spacing:-1;">T</tspan><tspan x="106.107" y="0" style="fill:#B4A168; font-family:'FSMatthew-Bold'; font-size:24.7223;"> </tspan></text>
	<text transform="matrix(1 0 0 1 28.1597 186.3564)" style="display:inline;"><tspan x="0" y="0" style="fill:#B4A168; font-family:'FSMatthew-Bold'; font-size:24.7223;">EN</tspan><tspan x="29.592" y="0" style="fill:#B4A168; font-family:'FSMatthew-Bold'; font-size:24.7223;">V</tspan><tspan x="44.203" y="0" style="fill:#B4A168; font-family:'FSMatthew-Bold'; font-size:24.7223;">I</tspan><tspan x="51.076" y="0" style="fill:#B4A168; font-family:'FSMatthew-Bold'; font-size:24.7223;">R</tspan><tspan x="65.093" y="0" style="fill:#B4A168; font-family:'FSMatthew-Bold'; font-size:24.7223;">ON</tspan><tspan x="97.429" y="0" style="fill:#B4A168; font-family:'FSMatthew-Bold'; font-size:24.7223;">M</tspan><tspan x="117.38" y="0" style="fill:#B4A168; font-family:'FSMatthew-Bold'; font-size:24.7223;">EN</tspan><tspan x="146.972" y="0" style="fill:#B4A168; font-family:'FSMatthew-Bold'; font-size:24.7223; letter-spacing:-1;">T</tspan><tspan x="159.284" y="0" style="fill:#B4A168; font-family:'FSMatthew-Bold'; font-size:24.7223;"> </tspan></text>
	<text transform="matrix(1 0 0 1 29.2808 143.1191)" style="display:inline;"><tspan x="0" y="0" style="fill:#1A2A4F; font-family:'FSMatthew-Bold'; font-size:17.3594;">OF IM</tspan><tspan x="42.374" y="0" style="fill:#1A2A4F; font-family:'FSMatthew-Bold'; font-size:17.3594; letter-spacing:-1;">P</tspan><tspan x="51.123" y="0" style="fill:#1A2A4F; font-family:'FSMatthew-Bold'; font-size:17.3594;">A</tspan><tspan x="61.764" y="0" style="fill:#1A2A4F; font-family:'FSMatthew-Bold'; font-size:17.3594;">C</tspan><tspan x="71.971" y="0" style="fill:#1A2A4F; font-family:'FSMatthew-Bold'; font-size:17.3594; letter-spacing:-1;">T</tspan><tspan x="80.251" y="0" style="fill:#1A2A4F; font-family:'FSMatthew-Bold'; font-size:17.3594;"> AND </tspan><tspan x="121.271" y="0" style="fill:#1A2A4F; font-family:'FSMatthew-Bold'; font-size:17.3594;">R</tspan><tspan x="131.322" y="0" style="fill:#1A2A4F; font-family:'FSMatthew-Bold'; font-size:17.3594;">E</tspan><tspan x="140.417" y="0" style="fill:#1A2A4F; font-family:'FSMatthew-Bold'; font-size:17.3594;">S</tspan><tspan x="149.445" y="0" style="fill:#1A2A4F; font-family:'FSMatthew-Bold'; font-size:17.3594;">E</tspan><tspan x="158.801" y="0" style="fill:#1A2A4F; font-family:'FSMatthew-Bold'; font-size:17.3594;">A</tspan><tspan x="169.859" y="0" style="fill:#1A2A4F; font-family:'FSMatthew-Bold'; font-size:17.3594;">R</tspan><tspan x="179.702" y="0" style="fill:#1A2A4F; font-family:'FSMatthew-Bold'; font-size:17.3594;">C</tspan><tspan x="189.458" y="0" style="fill:#1A2A4F; font-family:'FSMatthew-Bold'; font-size:17.3594;">H </tspan></text>
	<text transform="matrix(1 0 0 1 29.2808 203.0205)" style="display:inline;"><tspan x="0" y="0" style="fill:#1A2A4F; font-family:'FSMatthew-Bold'; font-size:14.237;">R</tspan><tspan x="8.528" y="0" style="fill:#1A2A4F; font-family:'FSMatthew-Bold'; font-size:14.237;">ANKED </tspan><tspan x="55.167" y="0" style="fill:#1A2A4F; font-family:'FSMatthew-Bold'; font-size:14.237;">W</tspan><tspan x="67.44" y="0" style="fill:#1A2A4F; font-family:'FSMatthew-Bold'; font-size:14.237;">ORLD L</tspan><tspan x="111.232" y="0" style="fill:#1A2A4F; font-family:'FSMatthew-Bold'; font-size:14.237;">E</tspan><tspan x="118.906" y="0" style="fill:#1A2A4F; font-family:'FSMatthew-Bold'; font-size:14.237;">ADIN</tspan><tspan x="150.639" y="0" style="fill:#1A2A4F; font-family:'FSMatthew-Bold'; font-size:14.237;">G </tspan></text>
	<text transform="matrix(1 0 0 1 29.2808 215.6748)" style="display:inline;"><tspan x="0" y="0" style="fill:#1A2A4F; font-family:'FSMatthew-Bold'; font-size:14.237;">AND </tspan><tspan x="30.708" y="0" style="fill:#1A2A4F; font-family:'FSMatthew-Bold'; font-size:14.237;">I</tspan><tspan x="34.652" y="0" style="fill:#1A2A4F; font-family:'FSMatthew-Bold'; font-size:14.237;">NT</tspan><tspan x="51.75" y="0" style="fill:#1A2A4F; font-family:'FSMatthew-Bold'; font-size:14.237;">E</tspan><tspan x="59.196" y="0" style="fill:#1A2A4F; font-family:'FSMatthew-Bold'; font-size:14.237;">RN</tspan><tspan x="77.035" y="0" style="fill:#1A2A4F; font-family:'FSMatthew-Bold'; font-size:14.237; letter-spacing:-1;">A</tspan><tspan x="85.079" y="0" style="fill:#1A2A4F; font-family:'FSMatthew-Bold'; font-size:14.237;">T</tspan><tspan x="92.582" y="0" style="fill:#1A2A4F; font-family:'FSMatthew-Bold'; font-size:14.237;">IONAL</tspan><tspan x="131.448" y="0" style="fill:#1A2A4F; font-family:'FSMatthew-Bold'; font-size:14.237; letter-spacing:-1;">L</tspan><tspan x="137.342" y="0" style="fill:#1A2A4F; font-family:'FSMatthew-Bold'; font-size:14.237;">Y </tspan></text>
	<text transform="matrix(1 0 0 1 29.2808 228.3301)" style="display:inline;"><tspan x="0" y="0" style="fill:#1A2A4F; font-family:'FSMatthew-Bold'; font-size:14.237;">E</tspan><tspan x="7.716" y="0" style="fill:#1A2A4F; font-family:'FSMatthew-Bold'; font-size:14.237;">X</tspan><tspan x="15.575" y="0" style="fill:#1A2A4F; font-family:'FSMatthew-Bold'; font-size:14.237;">C</tspan><tspan x="23.562" y="0" style="fill:#1A2A4F; font-family:'FSMatthew-Bold'; font-size:14.237;">ELLEN</tspan><tspan x="62.5" y="0" style="fill:#1A2A4F; font-family:'FSMatthew-Bold'; font-size:14.237;">T</tspan></text>
	<text transform="matrix(1 0 0 1 29.2808 242.3369)" style="display:inline;"><tspan x="0" y="0" style="fill:#1A2A4F; font-family:'FSMatthew'; font-size:10.9514;">(</tspan><tspan x="3.724" y="0" style="fill:#1A2A4F; font-family:'FSMatthew'; font-size:10.9514;">R</tspan><tspan x="9.955" y="0" style="fill:#1A2A4F; font-family:'FSMatthew'; font-size:10.9514;">E</tspan><tspan x="15.715" y="0" style="fill:#1A2A4F; font-family:'FSMatthew'; font-size:10.9514;">F</tspan><tspan x="21.224" y="0" style="fill:#1A2A4F; font-family:'FSMatthew'; font-size:10.9514;"> 2</tspan><tspan x="29.853" y="0" style="fill:#1A2A4F; font-family:'FSMatthew'; font-size:10.9514;">0</tspan><tspan x="35.898" y="0" style="fill:#1A2A4F; font-family:'FSMatthew'; font-size:10.9514;">1</tspan><tspan x="41.954" y="0" style="fill:#1A2A4F; font-family:'FSMatthew'; font-size:10.9514;">4</tspan><tspan x="48" y="0" style="fill:#1A2A4F; font-family:'FSMatthew'; font-size:10.9514;">)</tspan></text>
</g>
<g id="Text_Flat">
	<g>
		<path style="fill:#B4A168;" d="M65.133,119.022c-1.528,0.306-4.279,0.509-7.233,0.509c-2.852,0-5.399-0.204-7.232-0.509V66.356
			l-14.465,9.576c-3.463-3.158-5.908-7.437-6.825-11.104l23.939-14.669c1.426-0.305,4.38-0.509,5.908-0.509
			c1.732,0,4.89,0.306,5.909,0.509V119.022z"/>
		<path style="fill:#B4A168;" d="M96.815,120.041c-16.299,0-24.245-12.02-24.245-35.45c0-23.633,8.251-35.45,24.55-35.45
			c16.197,0,24.143,11.817,24.143,35.45C121.263,108.021,113.012,120.041,96.815,120.041z M96.917,61.059
			c-6.52,0-9.372,6.01-9.372,23.532c0,17.215,2.852,23.531,9.372,23.531s9.372-6.316,9.372-23.531
			C106.289,67.069,103.436,61.059,96.917,61.059z"/>
		<path style="fill:#B4A168;" d="M150.705,120.041c-16.299,0-24.245-12.02-24.245-35.45c0-23.633,8.251-35.45,24.55-35.45
			c16.197,0,24.143,11.817,24.143,35.45C175.152,108.021,166.901,120.041,150.705,120.041z M150.806,61.059
			c-6.52,0-9.372,6.01-9.372,23.532c0,17.215,2.852,23.531,9.372,23.531c6.52,0,9.372-6.316,9.372-23.531
			C160.178,67.069,157.326,61.059,150.806,61.059z"/>
		<path style="fill:#B4A168;" d="M179.841,64.93c0-8.761,3.973-16.299,15.28-16.299c11.408,0,15.279,7.538,15.279,16.299
			c0,8.557-3.871,16.502-15.279,16.502C183.813,81.433,179.841,73.487,179.841,64.93z M201.538,120.143
			c-4.38-1.223-8.862-4.177-11.104-7.334L232.2,47.307c4.177,1.121,8.659,3.667,11.206,6.825L201.538,120.143z M198.584,65.134
			c0-4.38-0.917-7.13-3.463-7.13c-2.547,0-3.464,2.75-3.464,7.13c0,4.38,1.019,6.927,3.464,6.927
			C197.565,72.061,198.584,69.514,198.584,65.134z M222.218,104.047c0-8.761,3.973-16.299,15.28-16.299
			c11.408,0,15.279,7.538,15.279,16.299c0,8.557-3.871,16.502-15.279,16.502C226.19,120.55,222.218,112.604,222.218,104.047z
			 M240.961,104.251c0-4.38-0.917-7.13-3.463-7.13c-2.547,0-3.464,2.75-3.464,7.13c0,4.38,1.019,6.927,3.464,6.927
			C239.942,111.178,240.961,108.631,240.961,104.251z"/>
	</g>
	<g>
		<path style="fill:#B4A168;" d="M40.124,151.744h-6.576v3.609h5.537c0.099,0.271,0.173,0.766,0.173,1.458
			c0,0.544-0.05,0.989-0.173,1.508h-5.537v7.119c-0.47,0.074-1.013,0.124-1.755,0.124c-0.667,0-1.31-0.05-1.78-0.124v-16.71h10.11
			c0.099,0.271,0.173,0.791,0.173,1.483C40.297,150.755,40.248,151.225,40.124,151.744z"/>
		<path style="fill:#B4A168;" d="M48.06,165.686c-4.573,0-6.995-3.164-6.995-8.602c0-5.439,2.422-8.603,6.995-8.603
			c4.573,0,6.996,3.164,6.996,8.603C55.055,162.521,52.633,165.686,48.06,165.686z M48.06,151.521c-2.125,0-3.337,1.631-3.337,5.562
			c0,3.93,1.211,5.562,3.337,5.562c2.126,0,3.337-1.632,3.337-5.562C51.397,153.152,50.186,151.521,48.06,151.521z"/>
		<path style="fill:#B4A168;" d="M69.839,165.414c-0.643,0.099-1.31,0.148-2.076,0.148c-0.692,0-1.384-0.025-1.854-0.124
			l-3.387-6.007h-1.458v6.007c-0.618,0.099-1.137,0.124-1.804,0.124c-0.593,0-1.112-0.025-1.73-0.124v-16.71
			c1.137-0.074,3.51-0.124,4.944-0.124c4.202,0,6.303,1.483,6.303,5.339c0,2.053-1.236,4.104-2.966,4.846L69.839,165.414z
			 M62.695,151.497c-0.543,0-1.211,0.024-1.631,0.05v4.943H62.3c2.027,0,2.917-0.742,2.917-2.57
			C65.217,152.09,64.327,151.497,62.695,151.497z"/>
		<path style="fill:#B4A168;" d="M82.152,165.562c-1.755,0-3.461-0.05-5.216-0.148v-16.661c1.434-0.099,3.337-0.148,4.623-0.148
			c3.807,0,6.13,1.162,6.13,4.302c0,1.582-0.667,2.768-2.225,3.461c2.077,0.494,3.412,2.002,3.412,4.028
			C88.875,164.252,86.082,165.562,82.152,165.562z M81.806,151.521c-0.445,0-0.939,0.025-1.335,0.049v3.758h1.384
			c1.607,0,2.373-0.52,2.373-2.027C84.228,151.744,83.017,151.521,81.806,151.521z M82.201,158.097h-1.73v4.499
			c0.47,0.024,1.162,0.05,1.632,0.05c2.2,0,3.263-0.618,3.263-2.274C85.365,158.665,84.451,158.097,82.201,158.097z"/>
		<path style="fill:#B4A168;" d="M103.61,159.086c0,4.251-1.632,6.6-6.378,6.6c-4.795,0-6.303-2.349-6.303-6.6v-10.357
			c0.494-0.074,1.137-0.124,1.73-0.124c0.692,0,1.31,0.05,1.804,0.124v10.604c0,2.274,0.643,3.56,2.793,3.56s2.892-1.285,2.892-3.56
			v-10.604c0.445-0.074,1.187-0.124,1.755-0.124c0.543,0,1.285,0.05,1.706,0.124V159.086z"/>
		<path style="fill:#B4A168;" d="M110.335,165.438c-0.469,0.074-1.038,0.124-1.779,0.124c-0.667,0-1.286-0.05-1.755-0.124v-16.71
			c0.47-0.074,1.162-0.124,1.78-0.124c0.692,0,1.31,0.05,1.755,0.124V165.438z"/>
		<path style="fill:#B4A168;" d="M123.857,165.438h-10.234v-16.71c0.47-0.074,1.112-0.124,1.73-0.124
			c0.692,0,1.359,0.05,1.804,0.124v13.694h6.699c0.099,0.271,0.173,0.791,0.173,1.483
			C124.03,164.449,123.981,164.919,123.857,165.438z"/>
		<path style="fill:#B4A168;" d="M134.908,151.744h-4.425v13.694c-0.47,0.074-1.137,0.124-1.755,0.124
			c-0.618,0-1.285-0.05-1.78-0.124v-13.694h-4.425c-0.099-0.321-0.173-1.088-0.173-1.508c0-0.42,0.099-1.187,0.198-1.508h12.36
			c0.099,0.321,0.173,1.087,0.173,1.508C135.081,150.656,135.007,151.423,134.908,151.744z"/>
	</g>
	<g>
		<path style="fill:#B4A168;" d="M40.47,186.356H30.014v-16.71h10.234c0.099,0.271,0.173,0.791,0.173,1.482
			c0,0.544-0.049,1.014-0.173,1.533h-6.699v3.609h5.661c0.099,0.271,0.173,0.766,0.173,1.458c0,0.544-0.049,0.988-0.173,1.508
			h-5.661v4.104h6.921c0.099,0.271,0.173,0.791,0.173,1.483C40.643,185.367,40.593,185.837,40.47,186.356z"/>
		<path style="fill:#B4A168;" d="M56.366,186.356c-0.248,0.05-0.841,0.099-1.261,0.099c-0.42,0-0.841-0.024-1.236-0.099
			l-7.688-10.703v10.703c-0.198,0.05-0.939,0.124-1.631,0.124c-0.569,0-1.236-0.074-1.582-0.124v-16.71
			c0.396-0.074,0.865-0.1,1.31-0.1c0.47,0,0.964,0.05,1.335,0.1l7.539,10.506v-10.506c0.495-0.074,1.137-0.124,1.607-0.124
			s1.162,0.05,1.607,0.124V186.356z"/>
		<path style="fill:#B4A168;" d="M64.352,179.039c0.371,1.039,0.742,2.2,0.915,3.189h0.049c0.173-0.989,0.519-2.15,0.89-3.189
			l1.829-5.289c0.47-1.36,0.742-2.67,0.766-4.104c0.495-0.074,1.187-0.124,1.755-0.124c0.519,0,1.261,0.05,1.706,0.124
			c0,1.656-0.297,3.238-0.964,4.993l-4.474,11.717c-0.296,0.074-0.989,0.124-1.582,0.124c-0.667,0-1.211-0.05-1.656-0.124
			l-4.4-11.667c-0.667-1.756-0.964-3.387-0.964-5.043c0.445-0.074,1.038-0.124,1.78-0.124c0.568,0,1.285,0.05,1.73,0.124
			c0,1.532,0.272,2.743,0.741,4.104L64.352,179.039z"/>
		<path style="fill:#B4A168;" d="M77.801,186.356c-0.47,0.074-1.039,0.124-1.78,0.124c-0.667,0-1.285-0.05-1.755-0.124v-16.71
			c0.47-0.074,1.162-0.124,1.78-0.124c0.692,0,1.31,0.05,1.755,0.124V186.356z"/>
		<path style="fill:#B4A168;" d="M93.399,186.332c-0.643,0.099-1.31,0.148-2.076,0.148c-0.692,0-1.384-0.025-1.854-0.124
			l-3.387-6.007h-1.458v6.007c-0.618,0.099-1.137,0.124-1.804,0.124c-0.593,0-1.113-0.025-1.73-0.124v-16.71
			c1.137-0.074,3.51-0.124,4.944-0.124c4.202,0,6.303,1.483,6.303,5.34c0,2.052-1.236,4.104-2.966,4.845L93.399,186.332z
			 M86.256,172.415c-0.544,0-1.211,0.024-1.632,0.049v4.944h1.236c2.027,0,2.917-0.742,2.917-2.571S87.887,172.415,86.256,172.415z"
			/>
		<path style="fill:#B4A168;" d="M101.336,186.604c-4.573,0-6.995-3.164-6.995-8.603c0-5.438,2.422-8.602,6.995-8.602
			c4.573,0,6.996,3.164,6.996,8.602C108.332,183.439,105.909,186.604,101.336,186.604z M101.336,172.439
			c-2.125,0-3.337,1.632-3.337,5.562c0,3.931,1.211,5.562,3.337,5.562c2.126,0,3.337-1.632,3.337-5.562
			C104.673,174.071,103.462,172.439,101.336,172.439z"/>
		<path style="fill:#B4A168;" d="M124.203,186.356c-0.248,0.05-0.841,0.099-1.261,0.099c-0.42,0-0.841-0.024-1.236-0.099
			l-7.688-10.703v10.703c-0.198,0.05-0.939,0.124-1.631,0.124c-0.569,0-1.236-0.074-1.582-0.124v-16.71
			c0.396-0.074,0.865-0.1,1.31-0.1c0.47,0,0.964,0.05,1.335,0.1l7.539,10.506v-10.506c0.495-0.074,1.137-0.124,1.607-0.124
			s1.162,0.05,1.607,0.124V186.356z"/>
		<path style="fill:#B4A168;" d="M144.351,186.356c-0.296,0.074-0.964,0.124-1.656,0.124c-0.741,0-1.434-0.074-1.73-0.124
			l-0.297-10.036l-3.658,8.454c-0.272,0.099-0.865,0.148-1.236,0.148c-0.445,0-0.989-0.05-1.261-0.124l-3.659-8.479l-0.321,10.036
			c-0.321,0.074-1.087,0.124-1.755,0.124c-0.396,0-1.063-0.05-1.508-0.124l0.717-16.71c0.469-0.05,0.939-0.124,1.434-0.124
			c0.593,0,1.162,0.05,1.458,0.124l4.895,11.346l4.919-11.346c0.494-0.074,0.989-0.124,1.434-0.124c0.568,0,1.088,0.05,1.458,0.124
			L144.351,186.356z"/>
		<path style="fill:#B4A168;" d="M157.851,186.356h-10.457v-16.71h10.234c0.099,0.271,0.173,0.791,0.173,1.482
			c0,0.544-0.05,1.014-0.173,1.533h-6.699v3.609h5.661c0.099,0.271,0.173,0.766,0.173,1.458c0,0.544-0.05,0.988-0.173,1.508h-5.661
			v4.104h6.922c0.099,0.271,0.173,0.791,0.173,1.483C158.023,185.367,157.974,185.837,157.851,186.356z"/>
		<path style="fill:#B4A168;" d="M173.746,186.356c-0.247,0.05-0.841,0.099-1.261,0.099s-0.841-0.024-1.236-0.099l-7.688-10.703
			v10.703c-0.197,0.05-0.939,0.124-1.632,0.124c-0.568,0-1.235-0.074-1.582-0.124v-16.71c0.396-0.074,0.865-0.1,1.311-0.1
			c0.47,0,0.964,0.05,1.335,0.1l7.539,10.506v-10.506c0.494-0.074,1.138-0.124,1.606-0.124c0.47,0,1.162,0.05,1.607,0.124V186.356z"
			/>
		<path style="fill:#B4A168;" d="M188.085,172.662h-4.425v13.694c-0.47,0.074-1.138,0.124-1.755,0.124
			c-0.618,0-1.286-0.05-1.78-0.124v-13.694H175.7c-0.099-0.321-0.173-1.088-0.173-1.508s0.099-1.187,0.197-1.508h12.36
			c0.099,0.321,0.173,1.088,0.173,1.508S188.184,172.341,188.085,172.662z"/>
	</g>
	<g>
		<path style="fill:#1A2A4F;" d="M34.959,143.293c-3.212,0-4.914-2.223-4.914-6.043s1.702-6.043,4.914-6.043
			s4.914,2.223,4.914,6.043S38.171,143.293,34.959,143.293z M34.959,133.343c-1.493,0-2.344,1.146-2.344,3.907
			c0,2.761,0.851,3.907,2.344,3.907s2.344-1.146,2.344-3.907C37.303,134.489,36.452,133.343,34.959,133.343z"/>
		<path style="fill:#1A2A4F;" d="M48.708,133.499h-4.619v2.535h3.89c0.069,0.191,0.122,0.539,0.122,1.025
			c0,0.382-0.035,0.694-0.122,1.059h-3.89v5.001c-0.33,0.052-0.712,0.087-1.233,0.087c-0.469,0-0.92-0.035-1.25-0.087v-11.738h7.102
			c0.069,0.191,0.122,0.556,0.122,1.042C48.83,132.805,48.795,133.135,48.708,133.499z"/>
		<path style="fill:#1A2A4F;" d="M56.623,143.119c-0.33,0.052-0.729,0.087-1.25,0.087c-0.469,0-0.903-0.035-1.233-0.087v-11.738
			c0.33-0.052,0.816-0.087,1.25-0.087c0.486,0,0.92,0.035,1.233,0.087V143.119z"/>
		<path style="fill:#1A2A4F;" d="M70.808,143.119c-0.208,0.052-0.677,0.087-1.164,0.087c-0.521,0-1.007-0.052-1.215-0.087
			l-0.208-7.05l-2.57,5.938c-0.191,0.069-0.608,0.104-0.868,0.104c-0.312,0-0.695-0.035-0.886-0.086l-2.57-5.956l-0.226,7.05
			c-0.226,0.052-0.764,0.087-1.232,0.087c-0.278,0-0.747-0.035-1.06-0.087l0.504-11.738c0.33-0.035,0.66-0.087,1.007-0.087
			c0.417,0,0.816,0.035,1.024,0.087l3.438,7.97l3.456-7.97c0.347-0.052,0.694-0.087,1.007-0.087c0.399,0,0.764,0.035,1.025,0.087
			L70.808,143.119z"/>
		<path style="fill:#1A2A4F;" d="M76.655,138.917H75.44v4.202c-0.33,0.052-0.729,0.087-1.25,0.087c-0.469,0-0.903-0.035-1.233-0.087
			v-11.721c1.007-0.052,2.535-0.104,3.525-0.104c2.657,0,4.584,0.92,4.584,3.681C81.066,137.667,79.381,138.917,76.655,138.917z
			 M76.586,133.343c-0.348,0-0.799,0.018-1.146,0.035v3.456h1.077c1.337,0,2.049-0.347,2.049-1.771
			C78.565,133.847,77.958,133.343,76.586,133.343z"/>
		<path style="fill:#1A2A4F;" d="M91.551,143.119c-0.226,0.052-0.764,0.087-1.337,0.087c-0.452,0-0.973-0.052-1.198-0.087
			l-0.868-2.379H83.98l-0.816,2.379c-0.382,0.052-0.833,0.087-1.285,0.087c-0.452,0-0.973-0.035-1.233-0.087l4.098-11.738
			c0.243-0.052,0.816-0.087,1.198-0.087c0.469,0,1.025,0.035,1.216,0.087L91.551,143.119z M87.401,138.674l-1.024-3.316
			c-0.122-0.382-0.243-0.869-0.348-1.407h-0.035c-0.087,0.538-0.226,1.024-0.347,1.407l-0.973,3.316H87.401z"/>
		<path style="fill:#1A2A4F;" d="M100.352,133.829c-0.833-0.26-1.875-0.452-2.708-0.452c-1.979,0-3.265,1.407-3.265,3.925
			c0,2.309,1.007,3.82,3.247,3.82c0.833,0,1.771-0.173,2.605-0.434c0.121,0.312,0.208,0.799,0.208,1.164
			c0,0.295-0.017,0.66-0.052,0.816c-0.868,0.399-1.979,0.625-3.004,0.625c-3.733,0-5.574-2.258-5.574-5.939
			c0-3.577,1.979-6.147,5.678-6.147c0.903,0,2.083,0.226,2.917,0.59c0.052,0.174,0.069,0.556,0.069,0.782
			C100.473,133.117,100.404,133.621,100.352,133.829z"/>
		<path style="fill:#1A2A4F;" d="M110.351,133.499h-3.108v9.62c-0.33,0.052-0.799,0.087-1.233,0.087s-0.903-0.035-1.25-0.087v-9.62
			h-3.108c-0.069-0.226-0.122-0.764-0.122-1.059s0.069-0.833,0.139-1.059h8.683c0.069,0.226,0.122,0.764,0.122,1.059
			S110.42,133.273,110.351,133.499z"/>
		<path style="fill:#1A2A4F;" d="M124.256,143.119c-0.226,0.052-0.764,0.087-1.337,0.087c-0.452,0-0.973-0.052-1.198-0.087
			l-0.868-2.379h-4.167l-0.816,2.379c-0.382,0.052-0.833,0.087-1.285,0.087c-0.452,0-0.973-0.035-1.233-0.087l4.098-11.738
			c0.243-0.052,0.816-0.087,1.198-0.087c0.469,0,1.025,0.035,1.216,0.087L124.256,143.119z M120.106,138.674l-1.025-3.316
			c-0.121-0.382-0.243-0.869-0.347-1.407h-0.035c-0.087,0.538-0.226,1.024-0.347,1.407l-0.973,3.316H120.106z"/>
		<path style="fill:#1A2A4F;" d="M134.879,143.119c-0.174,0.035-0.59,0.069-0.886,0.069c-0.295,0-0.59-0.017-0.868-0.069l-5.4-7.519
			v7.519c-0.139,0.035-0.66,0.087-1.146,0.087c-0.399,0-0.868-0.052-1.111-0.087v-11.738c0.278-0.052,0.608-0.069,0.92-0.069
			c0.33,0,0.677,0.035,0.938,0.069l5.296,7.38v-7.38c0.347-0.052,0.799-0.087,1.129-0.087c0.33,0,0.816,0.035,1.128,0.087V143.119z"
			/>
		<path style="fill:#1A2A4F;" d="M144.704,142.077c-1.077,0.833-2.466,1.129-4.376,1.129c-0.972,0-2.622-0.035-3.178-0.087v-11.738
			c0.851-0.052,2.622-0.087,3.612-0.087c3.82,0,5.783,1.615,5.783,5.817C146.545,139.282,145.972,141.087,144.704,142.077z
			 M140.814,133.343c-0.469,0-0.99,0.018-1.181,0.035v7.728c0.226,0.017,0.747,0.035,1.285,0.035c2.188,0,3.056-1.389,3.056-4.063
			C143.975,134.142,143.072,133.343,140.814,133.343z"/>
		<path style="fill:#1A2A4F;" d="M160.501,143.102c-0.451,0.07-0.92,0.104-1.458,0.104c-0.486,0-0.973-0.018-1.303-0.087
			l-2.379-4.22h-1.024v4.22c-0.435,0.069-0.799,0.087-1.268,0.087c-0.417,0-0.781-0.018-1.216-0.087v-11.738
			c0.799-0.052,2.466-0.087,3.473-0.087c2.952,0,4.429,1.042,4.429,3.75c0,1.441-0.868,2.883-2.084,3.404L160.501,143.102z
			 M155.482,133.326c-0.382,0-0.851,0.017-1.146,0.035v3.473h0.868c1.424,0,2.049-0.521,2.049-1.806
			S156.629,133.326,155.482,133.326z"/>
		<path style="fill:#1A2A4F;" d="M169.25,143.119h-7.345v-11.738h7.188c0.069,0.191,0.121,0.556,0.121,1.042
			c0,0.382-0.034,0.712-0.121,1.076h-4.706v2.535h3.977c0.069,0.191,0.122,0.539,0.122,1.025c0,0.382-0.035,0.694-0.122,1.059
			h-3.977V141h4.862c0.069,0.191,0.122,0.556,0.122,1.042C169.372,142.425,169.337,142.754,169.25,143.119z"/>
		<path style="fill:#1A2A4F;" d="M174.195,143.293c-1.268,0-2.656-0.243-3.646-0.695c-0.052-0.243-0.087-0.556-0.087-0.833
			c0-0.417,0.053-0.816,0.174-1.285c1.024,0.417,2.379,0.677,3.438,0.677c1.232,0,1.893-0.573,1.893-1.354
			c0-0.869-0.556-1.233-2.24-1.754c-1.875-0.573-3.247-1.476-3.247-3.49c0-2.153,1.858-3.352,4.307-3.352
			c1.129,0,2.136,0.174,2.812,0.399c0.053,0.191,0.087,0.503,0.087,0.955c0,0.33-0.034,0.833-0.104,1.111
			c-0.868-0.226-1.858-0.347-2.657-0.347c-1.302,0-2.014,0.434-2.014,1.128c0,0.816,0.642,1.146,2.205,1.632
			c1.875,0.59,3.265,1.476,3.265,3.56C178.381,141.921,176.592,143.293,174.195,143.293z"/>
		<path style="fill:#1A2A4F;" d="M187.373,143.119h-7.345v-11.738h7.188c0.069,0.191,0.121,0.556,0.121,1.042
			c0,0.382-0.034,0.712-0.121,1.076h-4.706v2.535h3.977c0.069,0.191,0.122,0.539,0.122,1.025c0,0.382-0.035,0.694-0.122,1.059
			h-3.977V141h4.862c0.069,0.191,0.122,0.556,0.122,1.042C187.495,142.425,187.46,142.754,187.373,143.119z"/>
		<path style="fill:#1A2A4F;" d="M199.23,143.119c-0.227,0.052-0.765,0.087-1.338,0.087c-0.451,0-0.972-0.052-1.197-0.087
			l-0.869-2.379h-4.167l-0.816,2.379c-0.382,0.052-0.833,0.087-1.285,0.087c-0.451,0-0.972-0.035-1.232-0.087l4.098-11.738
			c0.243-0.052,0.816-0.087,1.198-0.087c0.469,0,1.024,0.035,1.216,0.087L199.23,143.119z M195.08,138.674l-1.024-3.316
			c-0.122-0.382-0.243-0.869-0.348-1.407h-0.034c-0.087,0.538-0.227,1.024-0.348,1.407l-0.973,3.316H195.08z"/>
		<path style="fill:#1A2A4F;" d="M209.09,143.102c-0.452,0.07-0.921,0.104-1.459,0.104c-0.486,0-0.973-0.018-1.303-0.087
			l-2.379-4.22h-1.024v4.22c-0.434,0.069-0.799,0.087-1.268,0.087c-0.416,0-0.781-0.018-1.215-0.087v-11.738
			c0.799-0.052,2.466-0.087,3.473-0.087c2.952,0,4.428,1.042,4.428,3.75c0,1.441-0.868,2.883-2.084,3.404L209.09,143.102z
			 M204.071,133.326c-0.382,0-0.851,0.017-1.146,0.035v3.473h0.868c1.424,0,2.05-0.521,2.05-1.806S205.217,133.326,204.071,133.326z
			"/>
		<path style="fill:#1A2A4F;" d="M218.29,133.829c-0.834-0.26-1.876-0.452-2.709-0.452c-1.979,0-3.265,1.407-3.265,3.925
			c0,2.309,1.007,3.82,3.247,3.82c0.834,0,1.771-0.173,2.604-0.434c0.122,0.312,0.209,0.799,0.209,1.164
			c0,0.295-0.018,0.66-0.053,0.816c-0.868,0.399-1.979,0.625-3.004,0.625c-3.733,0-5.574-2.258-5.574-5.939
			c0-3.577,1.979-6.147,5.679-6.147c0.902,0,2.084,0.226,2.917,0.59c0.052,0.174,0.069,0.556,0.069,0.782
			C218.411,133.117,218.342,133.621,218.29,133.829z"/>
		<path style="fill:#1A2A4F;" d="M229.088,143.119c-0.312,0.052-0.747,0.087-1.233,0.087s-0.92-0.035-1.25-0.087v-4.862h-4.081
			v4.862c-0.33,0.052-0.712,0.087-1.232,0.087c-0.469,0-0.921-0.035-1.25-0.087v-11.738c0.329-0.052,0.815-0.087,1.25-0.087
			c0.486,0,0.92,0.035,1.232,0.087v4.758h4.081v-4.758c0.382-0.052,0.816-0.087,1.25-0.087c0.417,0,0.938,0.035,1.233,0.087V143.119
			z"/>
	</g>
	<g>
		<path style="fill:#1A2A4F;" d="M37.438,203.006c-0.371,0.058-0.755,0.086-1.196,0.086c-0.398,0-0.797-0.015-1.067-0.071
			l-1.951-3.459h-0.84v3.459c-0.356,0.057-0.655,0.071-1.039,0.071c-0.342,0-0.641-0.015-0.997-0.071v-9.624
			c0.655-0.043,2.021-0.071,2.847-0.071c2.42,0,3.63,0.854,3.63,3.075c0,1.182-0.712,2.363-1.708,2.79L37.438,203.006z
			 M33.324,194.991c-0.313,0-0.697,0.015-0.939,0.028v2.848h0.712c1.167,0,1.68-0.428,1.68-1.48
			C34.776,195.333,34.264,194.991,33.324,194.991z"/>
		<path style="fill:#1A2A4F;" d="M46.948,203.021c-0.185,0.043-0.626,0.071-1.096,0.071c-0.37,0-0.797-0.043-0.982-0.071
			l-0.712-1.95h-3.417l-0.669,1.95c-0.313,0.043-0.684,0.071-1.054,0.071s-0.797-0.028-1.011-0.071l3.36-9.624
			c0.199-0.043,0.669-0.071,0.982-0.071c0.384,0,0.84,0.028,0.997,0.071L46.948,203.021z M43.546,199.376l-0.84-2.719
			c-0.1-0.313-0.199-0.712-0.285-1.153h-0.029c-0.071,0.441-0.185,0.84-0.285,1.153l-0.797,2.719H43.546z"/>
		<path style="fill:#1A2A4F;" d="M55.661,203.021c-0.142,0.028-0.484,0.057-0.726,0.057c-0.242,0-0.484-0.014-0.711-0.057
			l-4.428-6.164v6.164c-0.114,0.028-0.541,0.071-0.939,0.071c-0.328,0-0.712-0.043-0.911-0.071v-9.624
			c0.228-0.043,0.498-0.057,0.754-0.057c0.271,0,0.555,0.028,0.769,0.057l4.342,6.051v-6.051c0.285-0.043,0.655-0.071,0.925-0.071
			s0.669,0.028,0.925,0.071V203.021z"/>
		<path style="fill:#1A2A4F;" d="M65.086,203.021c-0.256,0.043-0.712,0.071-1.21,0.071c-0.355,0-0.868-0.028-1.167-0.071
			l-2.492-3.858l-0.655,0.783v3.075c-0.271,0.043-0.598,0.071-1.025,0.071c-0.384,0-0.74-0.028-1.011-0.071v-9.624
			c0.271-0.043,0.669-0.071,1.025-0.071c0.398,0,0.754,0.028,1.011,0.071v4.143l1.651-1.936c0.726-0.854,1.125-1.467,1.281-2.207
			c0.285-0.043,0.684-0.071,0.997-0.071c0.256,0,0.698,0.028,0.997,0.071c-0.213,1.125-0.812,2.107-1.666,3.09l-1.139,1.31
			L65.086,203.021z"/>
		<path style="fill:#1A2A4F;" d="M72.02,203.021h-6.022v-9.624h5.894c0.057,0.157,0.1,0.456,0.1,0.854
			c0,0.313-0.029,0.584-0.1,0.883h-3.858v2.078h3.26c0.057,0.156,0.1,0.441,0.1,0.84c0,0.313-0.028,0.569-0.1,0.868h-3.26v2.363
			h3.986c0.057,0.157,0.1,0.456,0.1,0.854C72.119,202.451,72.091,202.722,72.02,203.021z"/>
		<path style="fill:#1A2A4F;" d="M79.651,202.166c-0.883,0.684-2.022,0.926-3.588,0.926c-0.797,0-2.149-0.028-2.605-0.071v-9.624
			c0.697-0.043,2.149-0.071,2.961-0.071c3.132,0,4.741,1.324,4.741,4.77C81.16,199.874,80.69,201.354,79.651,202.166z
			 M76.462,195.006c-0.385,0-0.812,0.014-0.968,0.028v6.335c0.185,0.015,0.612,0.028,1.054,0.028c1.793,0,2.505-1.139,2.505-3.331
			C79.053,195.66,78.312,195.006,76.462,195.006z"/>
		<path style="fill:#1A2A4F;" d="M94.129,203.021c-0.185,0.028-0.555,0.071-0.954,0.071c-0.384,0-0.769-0.043-1.025-0.071
			l-1.167-4.755c-0.128-0.498-0.199-1.039-0.256-1.509h-0.014c-0.043,0.47-0.157,1.024-0.271,1.509l-1.153,4.755
			c-0.256,0.028-0.655,0.071-1.025,0.071c-0.356,0-0.783-0.043-0.982-0.071l-2.149-7.047c-0.228-0.74-0.371-1.623-0.371-2.577
			c0.299-0.057,0.669-0.071,0.982-0.071c0.527,0,0.783,0.028,1.011,0.071c0,0.926,0.128,1.694,0.299,2.35l0.868,3.288
			c0.128,0.513,0.256,1.182,0.328,1.822h0.028c0.071-0.641,0.185-1.31,0.313-1.836l1.338-5.624c0.256-0.043,0.499-0.071,0.754-0.071
			c0.271,0,0.513,0.028,0.783,0.071l1.367,5.638c0.128,0.513,0.271,1.182,0.342,1.822h0.028c0.071-0.641,0.199-1.31,0.342-1.836
			l0.911-3.274c0.185-0.655,0.327-1.424,0.327-2.35c0.228-0.043,0.641-0.071,1.068-0.071c0.285,0,0.669,0.028,0.939,0.071
			c0,1.054-0.156,1.851-0.384,2.577L94.129,203.021z"/>
		<path style="fill:#1A2A4F;" d="M101.376,203.163c-2.634,0-4.029-1.822-4.029-4.954c0-3.133,1.395-4.955,4.029-4.955
			s4.029,1.822,4.029,4.955C105.405,201.341,104.01,203.163,101.376,203.163z M101.376,195.006c-1.224,0-1.922,0.939-1.922,3.203
			s0.698,3.203,1.922,3.203c1.225,0,1.922-0.939,1.922-3.203S102.601,195.006,101.376,195.006z"/>
		<path style="fill:#1A2A4F;" d="M113.918,203.006c-0.371,0.058-0.755,0.086-1.196,0.086c-0.398,0-0.797-0.015-1.067-0.071
			l-1.951-3.459h-0.84v3.459c-0.356,0.057-0.655,0.071-1.039,0.071c-0.342,0-0.641-0.015-0.997-0.071v-9.624
			c0.655-0.043,2.021-0.071,2.847-0.071c2.42,0,3.63,0.854,3.63,3.075c0,1.182-0.712,2.363-1.708,2.79L113.918,203.006z
			 M109.804,194.991c-0.313,0-0.697,0.015-0.939,0.028v2.848h0.712c1.167,0,1.68-0.428,1.68-1.48
			C111.256,195.333,110.744,194.991,109.804,194.991z"/>
		<path style="fill:#1A2A4F;" d="M120.98,203.021h-5.894v-9.624c0.271-0.043,0.641-0.071,0.997-0.071
			c0.398,0,0.783,0.028,1.039,0.071v7.887h3.858c0.057,0.157,0.1,0.456,0.1,0.854C121.08,202.451,121.051,202.722,120.98,203.021z"
			/>
		<path style="fill:#1A2A4F;" d="M128.497,202.166c-0.883,0.684-2.021,0.926-3.588,0.926c-0.797,0-2.149-0.028-2.605-0.071v-9.624
			c0.697-0.043,2.149-0.071,2.961-0.071c3.132,0,4.741,1.324,4.741,4.77C130.006,199.874,129.536,201.354,128.497,202.166z
			 M125.308,195.006c-0.385,0-0.812,0.014-0.968,0.028v6.335c0.185,0.015,0.612,0.028,1.054,0.028c1.793,0,2.505-1.139,2.505-3.331
			C127.899,195.66,127.159,195.006,125.308,195.006z"/>
		<path style="fill:#1A2A4F;" d="M140.256,203.021h-5.894v-9.624c0.271-0.043,0.641-0.071,0.997-0.071
			c0.398,0,0.783,0.028,1.039,0.071v7.887h3.858c0.057,0.157,0.1,0.456,0.1,0.854C140.356,202.451,140.328,202.722,140.256,203.021z
			"/>
		<path style="fill:#1A2A4F;" d="M147.603,203.021h-6.022v-9.624h5.894c0.057,0.157,0.1,0.456,0.1,0.854
			c0,0.313-0.029,0.584-0.1,0.883h-3.858v2.078h3.26c0.057,0.156,0.1,0.441,0.1,0.84c0,0.313-0.028,0.569-0.1,0.868h-3.26v2.363
			h3.986c0.057,0.157,0.1,0.456,0.1,0.854C147.702,202.451,147.674,202.722,147.603,203.021z"/>
		<path style="fill:#1A2A4F;" d="M157.326,203.021c-0.185,0.043-0.626,0.071-1.096,0.071c-0.37,0-0.798-0.043-0.982-0.071
			l-0.712-1.95h-3.417l-0.669,1.95c-0.313,0.043-0.684,0.071-1.054,0.071s-0.797-0.028-1.011-0.071l3.36-9.624
			c0.199-0.043,0.669-0.071,0.981-0.071c0.385,0,0.841,0.028,0.997,0.071L157.326,203.021z M153.924,199.376l-0.84-2.719
			c-0.1-0.313-0.199-0.712-0.285-1.153h-0.028c-0.071,0.441-0.185,0.84-0.284,1.153l-0.798,2.719H153.924z"/>
		<path style="fill:#1A2A4F;" d="M164.516,202.166c-0.883,0.684-2.021,0.926-3.588,0.926c-0.797,0-2.149-0.028-2.605-0.071v-9.624
			c0.698-0.043,2.15-0.071,2.962-0.071c3.132,0,4.74,1.324,4.74,4.77C166.024,199.874,165.555,201.354,164.516,202.166z
			 M161.326,195.006c-0.384,0-0.812,0.014-0.968,0.028v6.335c0.186,0.015,0.612,0.028,1.054,0.028c1.794,0,2.506-1.139,2.506-3.331
			C163.918,195.66,163.178,195.006,161.326,195.006z"/>
		<path style="fill:#1A2A4F;" d="M169.513,203.021c-0.271,0.043-0.598,0.071-1.024,0.071c-0.385,0-0.74-0.028-1.011-0.071v-9.624
			c0.271-0.043,0.669-0.071,1.024-0.071c0.398,0,0.755,0.028,1.011,0.071V203.021z"/>
		<path style="fill:#1A2A4F;" d="M179.123,203.021c-0.143,0.028-0.484,0.057-0.727,0.057s-0.483-0.014-0.712-0.057l-4.427-6.164
			v6.164c-0.114,0.028-0.541,0.071-0.94,0.071c-0.327,0-0.712-0.043-0.911-0.071v-9.624c0.229-0.043,0.499-0.057,0.755-0.057
			c0.271,0,0.556,0.028,0.769,0.057l4.343,6.051v-6.051c0.284-0.043,0.654-0.071,0.925-0.071s0.669,0.028,0.926,0.071V203.021z"/>
		<path style="fill:#1A2A4F;" d="M188.234,202.65c-0.74,0.327-1.951,0.513-3.075,0.513c-3.203,0-4.613-2.05-4.613-4.854
			c0-2.933,1.737-5.055,4.826-5.055c0.883,0,1.894,0.186,2.492,0.441c0.042,0.229,0.07,0.569,0.07,0.727
			c0,0.313-0.057,0.654-0.113,0.868c-0.612-0.199-1.495-0.327-2.307-0.327c-2.05,0-2.861,1.494-2.861,3.316
			c0,1.937,0.854,3.175,2.577,3.175c0.384,0,0.754-0.028,0.968-0.085v-3.075c0.271-0.043,0.641-0.071,0.996-0.071
			c0.399,0,0.783,0.028,1.04,0.071V202.65z"/>
	</g>
	<g>
		<path style="fill:#1A2A4F;" d="M38.42,215.675c-0.185,0.043-0.626,0.071-1.096,0.071c-0.37,0-0.797-0.043-0.982-0.071l-0.711-1.95
			h-3.417l-0.669,1.95c-0.313,0.043-0.684,0.071-1.054,0.071s-0.797-0.028-1.011-0.071l3.36-9.624
			c0.199-0.043,0.669-0.071,0.982-0.071c0.384,0,0.84,0.028,0.997,0.071L38.42,215.675z M35.018,212.03l-0.84-2.719
			c-0.1-0.313-0.199-0.712-0.285-1.153h-0.029c-0.071,0.441-0.185,0.84-0.285,1.153l-0.797,2.719H35.018z"/>
		<path style="fill:#1A2A4F;" d="M47.133,215.675c-0.142,0.028-0.484,0.057-0.726,0.057c-0.242,0-0.484-0.014-0.711-0.057
			l-4.428-6.164v6.164c-0.114,0.028-0.541,0.071-0.939,0.071c-0.328,0-0.712-0.043-0.911-0.071v-9.624
			c0.228-0.043,0.498-0.057,0.754-0.057c0.271,0,0.555,0.028,0.769,0.057l4.342,6.051v-6.051c0.285-0.043,0.655-0.071,0.925-0.071
			s0.669,0.028,0.925,0.071V215.675z"/>
		<path style="fill:#1A2A4F;" d="M55.191,214.82c-0.883,0.684-2.021,0.926-3.588,0.926c-0.797,0-2.149-0.028-2.605-0.071v-9.624
			c0.697-0.043,2.149-0.071,2.961-0.071c3.132,0,4.741,1.324,4.741,4.77C56.7,212.528,56.23,214.009,55.191,214.82z M52.002,207.66
			c-0.385,0-0.812,0.014-0.968,0.028v6.335c0.185,0.015,0.612,0.028,1.054,0.028c1.793,0,2.505-1.139,2.505-3.331
			C54.593,208.314,53.853,207.66,52.002,207.66z"/>
		<path style="fill:#1A2A4F;" d="M63.121,215.675c-0.271,0.043-0.598,0.071-1.025,0.071c-0.384,0-0.74-0.028-1.011-0.071v-9.624
			c0.271-0.043,0.669-0.071,1.025-0.071c0.399,0,0.755,0.028,1.011,0.071V215.675z"/>
		<path style="fill:#1A2A4F;" d="M72.717,215.675c-0.142,0.028-0.484,0.057-0.726,0.057c-0.242,0-0.484-0.014-0.711-0.057
			l-4.428-6.164v6.164c-0.114,0.028-0.541,0.071-0.939,0.071c-0.328,0-0.712-0.043-0.911-0.071v-9.624
			c0.228-0.043,0.498-0.057,0.754-0.057c0.271,0,0.555,0.028,0.769,0.057l4.342,6.051v-6.051c0.285-0.043,0.655-0.071,0.925-0.071
			s0.669,0.028,0.925,0.071V215.675z"/>
		<path style="fill:#1A2A4F;" d="M80.974,207.788h-2.548v7.887c-0.271,0.043-0.655,0.071-1.011,0.071s-0.74-0.028-1.025-0.071
			v-7.887h-2.548c-0.057-0.186-0.1-0.627-0.1-0.869c0-0.241,0.057-0.683,0.114-0.868h7.118c0.057,0.186,0.1,0.627,0.1,0.868
			C81.074,207.161,81.031,207.603,80.974,207.788z"/>
		<path style="fill:#1A2A4F;" d="M88.121,215.675h-6.022v-9.624h5.894c0.057,0.157,0.1,0.456,0.1,0.854
			c0,0.313-0.029,0.584-0.1,0.883h-3.858v2.078h3.26c0.057,0.156,0.1,0.441,0.1,0.84c0,0.313-0.028,0.569-0.1,0.868h-3.26v2.363
			h3.986c0.057,0.157,0.1,0.456,0.1,0.854C88.221,215.105,88.192,215.376,88.121,215.675z"/>
		<path style="fill:#1A2A4F;" d="M96.635,215.66c-0.371,0.058-0.755,0.086-1.196,0.086c-0.398,0-0.797-0.015-1.067-0.071
			l-1.951-3.459h-0.84v3.459c-0.356,0.057-0.655,0.071-1.039,0.071c-0.342,0-0.641-0.015-0.997-0.071v-9.624
			c0.655-0.043,2.021-0.071,2.847-0.071c2.42,0,3.63,0.854,3.63,3.075c0,1.182-0.712,2.363-1.708,2.79L96.635,215.66z
			 M92.52,207.646c-0.313,0-0.697,0.015-0.939,0.028v2.848h0.712c1.167,0,1.68-0.428,1.68-1.48
			C93.972,207.987,93.46,207.646,92.52,207.646z"/>
		<path style="fill:#1A2A4F;" d="M105.519,215.675c-0.142,0.028-0.484,0.057-0.726,0.057c-0.242,0-0.484-0.014-0.711-0.057
			l-4.428-6.164v6.164c-0.114,0.028-0.541,0.071-0.939,0.071c-0.328,0-0.712-0.043-0.911-0.071v-9.624
			c0.228-0.043,0.498-0.057,0.754-0.057c0.271,0,0.555,0.028,0.769,0.057l4.342,6.051v-6.051c0.285-0.043,0.655-0.071,0.925-0.071
			s0.669,0.028,0.925,0.071V215.675z"/>
		<path style="fill:#1A2A4F;" d="M115.456,215.675c-0.185,0.043-0.626,0.071-1.096,0.071c-0.37,0-0.797-0.043-0.982-0.071
			l-0.711-1.95h-3.417l-0.669,1.95c-0.313,0.043-0.684,0.071-1.054,0.071s-0.797-0.028-1.011-0.071l3.36-9.624
			c0.199-0.043,0.669-0.071,0.982-0.071c0.384,0,0.84,0.028,0.997,0.071L115.456,215.675z M112.053,212.03l-0.84-2.719
			c-0.1-0.313-0.199-0.712-0.285-1.153H110.9c-0.071,0.441-0.185,0.84-0.285,1.153l-0.797,2.719H112.053z"/>
		<path style="fill:#1A2A4F;" d="M121.82,207.788h-2.548v7.887c-0.271,0.043-0.655,0.071-1.011,0.071s-0.74-0.028-1.025-0.071
			v-7.887h-2.548c-0.057-0.186-0.1-0.627-0.1-0.869c0-0.241,0.057-0.683,0.114-0.868h7.118c0.057,0.186,0.1,0.627,0.1,0.868
			C121.919,207.161,121.877,207.603,121.82,207.788z"/>
		<path style="fill:#1A2A4F;" d="M124.995,215.675c-0.271,0.043-0.598,0.071-1.025,0.071c-0.384,0-0.74-0.028-1.011-0.071v-9.624
			c0.271-0.043,0.669-0.071,1.025-0.071c0.399,0,0.755,0.028,1.011,0.071V215.675z"/>
		<path style="fill:#1A2A4F;" d="M130.476,215.817c-2.634,0-4.029-1.822-4.029-4.954c0-3.133,1.395-4.955,4.029-4.955
			s4.029,1.822,4.029,4.955C134.504,213.995,133.109,215.817,130.476,215.817z M130.476,207.66c-1.224,0-1.922,0.939-1.922,3.203
			s0.698,3.203,1.922,3.203c1.225,0,1.922-0.939,1.922-3.203S131.7,207.66,130.476,207.66z"/>
		<path style="fill:#1A2A4F;" d="M143.645,215.675c-0.142,0.028-0.484,0.057-0.726,0.057c-0.242,0-0.484-0.014-0.711-0.057
			l-4.428-6.164v6.164c-0.114,0.028-0.541,0.071-0.939,0.071c-0.328,0-0.712-0.043-0.911-0.071v-9.624
			c0.228-0.043,0.498-0.057,0.754-0.057c0.271,0,0.555,0.028,0.769,0.057l4.342,6.051v-6.051c0.285-0.043,0.655-0.071,0.925-0.071
			s0.669,0.028,0.925,0.071V215.675z"/>
		<path style="fill:#1A2A4F;" d="M153.582,215.675c-0.185,0.043-0.626,0.071-1.096,0.071c-0.37,0-0.798-0.043-0.982-0.071
			l-0.712-1.95h-3.417l-0.669,1.95c-0.313,0.043-0.684,0.071-1.054,0.071s-0.797-0.028-1.011-0.071l3.36-9.624
			c0.199-0.043,0.669-0.071,0.982-0.071c0.384,0,0.84,0.028,0.997,0.071L153.582,215.675z M150.18,212.03l-0.84-2.719
			c-0.1-0.313-0.199-0.712-0.285-1.153h-0.029c-0.071,0.441-0.185,0.84-0.285,1.153l-0.797,2.719H150.18z"/>
		<path style="fill:#1A2A4F;" d="M160.473,215.675h-5.895v-9.624c0.271-0.043,0.641-0.071,0.997-0.071
			c0.398,0,0.783,0.028,1.039,0.071v7.887h3.858c0.057,0.157,0.1,0.456,0.1,0.854C160.572,215.105,160.544,215.376,160.473,215.675z
			"/>
		<path style="fill:#1A2A4F;" d="M167.69,215.675h-5.895v-9.624c0.271-0.043,0.641-0.071,0.997-0.071
			c0.398,0,0.783,0.028,1.039,0.071v7.887h3.858c0.057,0.157,0.1,0.456,0.1,0.854C167.79,215.105,167.762,215.376,167.69,215.675z"
			/>
		<path style="fill:#1A2A4F;" d="M173.855,208.258l-2.179,4.199v3.218c-0.271,0.043-0.583,0.071-1.011,0.071
			c-0.384,0-0.754-0.028-1.024-0.071v-3.246l-2.079-4.058c-0.455-0.882-0.697-1.608-0.697-2.334
			c0.228-0.029,0.641-0.058,0.996-0.058c0.342,0,0.727,0.015,0.997,0.058c0,0.598,0.085,0.996,0.413,1.68l0.953,1.965
			c0.214,0.427,0.398,0.939,0.456,1.238h0.014c0.071-0.299,0.299-0.826,0.47-1.196l0.982-2.063c0.214-0.441,0.342-0.954,0.342-1.609
			c0.271-0.043,0.698-0.071,1.039-0.071c0.399,0,0.698,0.028,0.926,0.071C174.453,206.777,174.168,207.646,173.855,208.258z"/>
	</g>
	<g>
		<path style="fill:#1A2A4F;" d="M36.371,228.33h-6.022v-9.624h5.894c0.057,0.157,0.1,0.456,0.1,0.854
			c0,0.313-0.028,0.584-0.1,0.883h-3.858v2.078h3.26c0.057,0.156,0.1,0.441,0.1,0.84c0,0.313-0.028,0.569-0.1,0.869h-3.26v2.362
			h3.986c0.057,0.157,0.1,0.456,0.1,0.854C36.47,227.761,36.442,228.031,36.371,228.33z"/>
		<path style="fill:#1A2A4F;" d="M38.207,225.725l1.822-2.477l-1.666-2.321c-0.541-0.74-0.883-1.423-0.997-2.221
			c0.228-0.043,0.698-0.071,0.997-0.071c0.356,0,0.769,0.028,1.011,0.071c0.071,0.627,0.427,1.139,0.797,1.68l0.997,1.452
			l1.025-1.438c0.342-0.484,0.669-1.097,0.726-1.694c0.242-0.028,0.669-0.071,1.011-0.071c0.313,0,0.74,0.028,0.968,0.071
			c-0.114,0.911-0.484,1.609-1.068,2.42l-1.509,2.079l1.822,2.562c0.641,0.883,0.94,1.751,0.997,2.562
			c-0.242,0.043-0.655,0.071-1.011,0.071c-0.313,0-0.726-0.028-0.997-0.071c-0.042-0.626-0.256-1.225-0.612-1.766l-1.353-2.035
			l-1.324,1.993c-0.341,0.526-0.541,1.182-0.541,1.808c-0.228,0.043-0.711,0.071-1.025,0.071c-0.342,0-0.754-0.043-0.997-0.071
			C37.31,227.462,37.467,226.735,38.207,225.725z"/>
		<path style="fill:#1A2A4F;" d="M52.487,220.714c-0.684-0.214-1.538-0.37-2.221-0.37c-1.623,0-2.676,1.152-2.676,3.217
			c0,1.894,0.826,3.133,2.662,3.133c0.684,0,1.452-0.143,2.136-0.356c0.1,0.256,0.171,0.655,0.171,0.954
			c0,0.242-0.015,0.541-0.043,0.669c-0.712,0.327-1.623,0.513-2.463,0.513c-3.061,0-4.57-1.851-4.57-4.869
			c0-2.933,1.623-5.04,4.655-5.04c0.74,0,1.708,0.186,2.392,0.484c0.043,0.143,0.057,0.456,0.057,0.641
			C52.586,220.13,52.529,220.543,52.487,220.714z"/>
		<path style="fill:#1A2A4F;" d="M59.933,228.33h-6.022v-9.624h5.894c0.057,0.157,0.1,0.456,0.1,0.854
			c0,0.313-0.029,0.584-0.1,0.883h-3.858v2.078h3.26c0.057,0.156,0.1,0.441,0.1,0.84c0,0.313-0.028,0.569-0.1,0.869h-3.26v2.362
			h3.986c0.057,0.157,0.1,0.456,0.1,0.854C60.032,227.761,60.004,228.031,59.933,228.33z"/>
		<path style="fill:#1A2A4F;" d="M67.265,228.33h-5.894v-9.624c0.271-0.043,0.641-0.071,0.997-0.071
			c0.398,0,0.783,0.028,1.039,0.071v7.887h3.858c0.057,0.157,0.1,0.456,0.1,0.854C67.364,227.761,67.336,228.031,67.265,228.33z"/>
		<path style="fill:#1A2A4F;" d="M74.482,228.33h-5.894v-9.624c0.271-0.043,0.641-0.071,0.997-0.071
			c0.398,0,0.783,0.028,1.039,0.071v7.887h3.858c0.057,0.157,0.1,0.456,0.1,0.854C74.582,227.761,74.554,228.031,74.482,228.33z"/>
		<path style="fill:#1A2A4F;" d="M81.829,228.33h-6.022v-9.624H81.7c0.057,0.157,0.1,0.456,0.1,0.854c0,0.313-0.028,0.584-0.1,0.883
			h-3.858v2.078h3.26c0.057,0.156,0.1,0.441,0.1,0.84c0,0.313-0.028,0.569-0.1,0.869h-3.26v2.362h3.986
			c0.057,0.157,0.1,0.456,0.1,0.854C81.928,227.761,81.9,228.031,81.829,228.33z"/>
		<path style="fill:#1A2A4F;" d="M90.983,228.33c-0.142,0.028-0.484,0.057-0.726,0.057c-0.242,0-0.484-0.014-0.711-0.057
			l-4.428-6.164v6.164c-0.114,0.028-0.541,0.071-0.939,0.071c-0.328,0-0.712-0.043-0.911-0.071v-9.624
			c0.228-0.043,0.498-0.057,0.754-0.057c0.271,0,0.555,0.028,0.769,0.057l4.342,6.051v-6.051c0.285-0.043,0.655-0.071,0.925-0.071
			s0.669,0.028,0.925,0.071V228.33z"/>
		<path style="fill:#1A2A4F;" d="M99.24,220.443h-2.548v7.887c-0.271,0.043-0.655,0.071-1.011,0.071s-0.74-0.028-1.025-0.071v-7.887
			h-2.548c-0.057-0.186-0.1-0.627-0.1-0.869c0-0.241,0.057-0.683,0.114-0.868h7.118c0.057,0.186,0.1,0.627,0.1,0.868
			C99.34,219.816,99.297,220.258,99.24,220.443z"/>
	</g>
	<g>
		<path style="fill:#1A2A4F;" d="M31.669,243.564c-1.271-1.184-1.95-2.849-1.95-4.525c0-1.676,0.68-3.286,1.95-4.47
			c0.252,0.033,0.417,0.153,0.559,0.351c-1.074,1.271-1.479,2.706-1.479,4.152c0,1.468,0.405,2.87,1.479,4.141
			C32.085,243.41,31.921,243.531,31.669,243.564z"/>
		<path style="fill:#1A2A4F;" d="M38.756,242.337c-0.219,0.033-0.438,0.055-0.658,0.055c-0.208,0-0.383-0.011-0.591-0.055
			l-1.622-2.849h-0.964v2.849c-0.187,0.033-0.373,0.055-0.559,0.055c-0.175,0-0.361-0.021-0.537-0.055v-7.406
			c0.537-0.033,1.183-0.055,1.808-0.055c1.545,0,2.783,0.471,2.783,2.246c0,0.975-0.537,1.829-1.435,2.158L38.756,242.337z
			 M35.754,235.73c-0.252,0-0.646,0-0.833,0.011v2.882h0.745c1.03,0,1.644-0.46,1.644-1.501
			C37.31,236.114,36.729,235.73,35.754,235.73z"/>
		<path style="fill:#1A2A4F;" d="M44.374,242.337h-4.316v-7.406h4.152c0.043,0.132,0.055,0.317,0.055,0.449
			c0,0.143-0.011,0.307-0.055,0.449h-3.057v2.235h2.64c0.044,0.131,0.055,0.317,0.055,0.449c0,0.143-0.011,0.307-0.055,0.449h-2.64
			v2.476h3.221c0.044,0.132,0.055,0.317,0.055,0.449C44.428,242.03,44.417,242.194,44.374,242.337z"/>
		<path style="fill:#1A2A4F;" d="M49.97,235.829h-3.057v2.235h2.531c0.043,0.131,0.055,0.317,0.055,0.449
			c0,0.143-0.011,0.307-0.055,0.449h-2.531v3.374c-0.187,0.033-0.351,0.055-0.548,0.055c-0.187,0-0.373-0.021-0.548-0.055v-7.406
			h4.152c0.043,0.132,0.055,0.317,0.055,0.449C50.024,235.522,50.013,235.687,49.97,235.829z"/>
		<path style="fill:#1A2A4F;" d="M56.266,240.069c-0.394,0.438-0.821,0.898-1.282,1.358h3.101c0.033,0.12,0.055,0.351,0.055,0.481
			c0,0.121-0.011,0.308-0.055,0.428H53.79c-0.077-0.208-0.131-0.405-0.131-0.624c0-0.088,0.011-0.187,0.022-0.274
			c0.581-0.581,1.238-1.271,1.797-1.896c1.03-1.15,1.578-1.818,1.578-2.695c0-0.788-0.526-1.183-1.227-1.183
			c-0.614,0-1.282,0.187-1.786,0.449c-0.033-0.153-0.055-0.307-0.055-0.46c0-0.11,0.022-0.274,0.055-0.373
			c0.504-0.273,1.205-0.46,1.95-0.46c1.227,0,2.191,0.734,2.191,1.939C58.183,237.878,57.515,238.678,56.266,240.069z"/>
		<path style="fill:#1A2A4F;" d="M62.081,242.446c-1.611,0-2.454-1.249-2.454-3.812c0-2.53,0.843-3.812,2.454-3.812
			c1.61,0,2.454,1.249,2.454,3.812S63.691,242.446,62.081,242.446z M62.081,235.676c-1.052,0-1.304,1.227-1.304,2.947
			c0,1.73,0.263,2.969,1.304,2.969c1.074,0,1.304-1.238,1.304-2.969C63.385,236.892,63.133,235.676,62.081,235.676z"/>
		<path style="fill:#1A2A4F;" d="M69.452,242.337c-0.175,0.033-0.362,0.055-0.548,0.055c-0.187,0-0.373-0.021-0.548-0.055v-6.223
			l-1.852,1.194c-0.208-0.197-0.395-0.516-0.46-0.789l2.552-1.589c0.121-0.033,0.263-0.055,0.406-0.055
			c0.153,0,0.307,0.021,0.449,0.055V242.337z"/>
		<path style="fill:#1A2A4F;" d="M76.921,240.617H75.88v1.709c-0.164,0.032-0.329,0.055-0.504,0.055
			c-0.186,0-0.383-0.011-0.569-0.055v-1.709h-3.155c-0.033-0.143-0.055-0.285-0.055-0.428c0-0.12,0.011-0.229,0.055-0.405
			l2.366-4.854c0.153-0.033,0.383-0.055,0.537-0.055c0.197,0,0.416,0.021,0.624,0.055l-2.377,4.776h2.005v-1.654
			c0.186-0.032,0.372-0.055,0.559-0.055c0.175,0,0.34,0.022,0.515,0.055v1.654h1.041c0.044,0.154,0.055,0.318,0.055,0.472
			C76.976,240.321,76.965,240.485,76.921,240.617z"/>
		<path style="fill:#1A2A4F;" d="M78.431,243.564c-0.252-0.033-0.417-0.154-0.559-0.352c1.073-1.271,1.479-2.706,1.479-4.151
			c0-1.469-0.406-2.871-1.479-4.142c0.142-0.197,0.329-0.317,0.581-0.351c1.271,1.184,1.928,2.849,1.928,4.524
			C80.381,240.771,79.702,242.381,78.431,243.564z"/>
	</g>
</g>
</svg>
