<?xml version="1.0" encoding="utf-8"?>
<!-- Generator: Adobe Illustrator 16.0.0, SVG Export Plug-In . SVG Version: 6.00 Build 0)  -->
<!DOCTYPE svg PUBLIC "-//W3C//DTD SVG 1.0//EN" "http://www.w3.org/TR/2001/REC-SVG-20010904/DTD/svg10.dtd">
<svg version="1.0" xmlns="http://www.w3.org/2000/svg" xmlns:xlink="http://www.w3.org/1999/xlink" x="0px" y="0px" width="300px"
	 height="300px" viewBox="0 0 300 300" style="enable-background:new 0 0 300 300;" xml:space="preserve">
<g id="Icons">
	<rect x="63.667" y="274.949" style="fill:#B4A168;" width="170.054" height="3.4"/>
	<path style="fill:#B4A168;" d="M122.854,61.336l-8.974-4.54l-1.369-4.472l2.33,2.315c0.507,0.628,1.25,0.958,2.003,0.958
		c0.535,0,1.074-0.169,1.535-0.513l8.773-6.581L122.854,61.336z M150.812,91.794L132.744,45.4c1.6-0.686,2.727-2.257,2.769-4.103
		h1.518v-1.223h-3.443v-1.408h0.898c1.364,0,2.53-0.837,3.022-2.026h1.829v-2.491h-1.829c-0.492-1.187-1.659-2.024-3.022-2.024
		h-7.07c-1.364,0-2.53,0.838-3.02,2.024h-1.831v2.491h1.831c0.49,1.188,1.656,2.026,3.02,2.026h0.9v1.408h-3.443v1.223h1.518
		c0.016,0.624,0.155,1.218,0.392,1.757c-0.549-0.008-1.105,0.146-1.579,0.502l-7.915,5.936l-6.162-7.673
		c-0.229-0.285-0.504-0.504-0.806-0.664c-0.239-0.331-0.509-0.64-0.804-0.928c1.14,0.082,2.526,0.123,4.218,0.094
		c-0.072-0.01-0.145-0.016-0.214-0.022c1.945-0.585,3.615-1.922,4.583-3.8c0.653-1.267,0.933-2.635,0.853-3.971l-0.147-0.013
		l-0.677-0.055l-13.458-1.058l-0.817-0.065l-0.053-0.003c-0.197,0.844-0.249,1.723-0.125,2.597c0.236,1.683,1.031,3.208,2.164,4.378
		c-3.216-0.623-6.526,1.015-7.845,4.104l-6.042,14.15c-0.94,2.199-0.648,4.616,0.562,6.512l-2.04,12.593L79.452,87.239
		c-1.369,1.437-1.312,3.709,0.121,5.076c0.696,0.664,1.587,0.991,2.477,0.991c0.948,0,1.894-0.372,2.6-1.112l11.792-12.375
		c0.5-0.522,0.828-1.188,0.944-1.902l1.583-9.766l7.484,7.39l-4.647,13.438c-0.647,1.876,0.346,3.918,2.219,4.567
		c0.39,0.134,0.785,0.197,1.172,0.197c1.489,0,2.878-0.932,3.394-2.417l5.385-15.575c0.452-1.306,0.114-2.757-0.87-3.727
		l-8.713-8.603c0.27-0.386,0.502-0.804,0.692-1.251l2.715-6.352l1.141,3.722c0.219,0.72,0.723,1.318,1.396,1.658l10.742,5.435
		l-8.282,24.715c-0.271,0.808,0.165,1.681,0.968,1.949c0.808,0.269,1.679-0.165,1.948-0.97l8.503-25.373
		c0.508-0.258,0.94-0.671,1.216-1.218c0.407-0.802,0.381-1.707,0.015-2.457l5.069-15.125l17.431,44.754
		c0.236,0.608,0.819,0.982,1.434,0.982c0.186,0,0.375-0.037,0.558-0.105C150.729,93.477,151.121,92.585,150.812,91.794"/>
	<path style="fill:#B4A168;" d="M111.013,22.344c-3.8,1.513-5.272,7.329-5.272,7.329l-1.512-0.193
		C106.479,22.344,111.013,22.344,111.013,22.344 M103.852,30.731l0.04,0.002l0.677,0.056l0.142,0.012l12.833,1.007l0.703,0.055
		l0.678,0.055l0.219,0.016c0.028,0.002,0.054-0.002,0.079-0.002c0.588,0.004,1.091-0.454,1.135-1.062
		c0.049-0.639-0.41-1.192-1.033-1.243l0.07,0.006c-0.316-1.509-1.029-5.985-5.007-7.447l-0.009,0.049
		c-0.323-0.163-0.659-0.305-1.006-0.417c-0.221-0.653-0.722-1.133-1.35-1.18c-0.6-0.048-1.149,0.318-1.474,0.891
		c-0.5,0.053-0.986,0.159-1.448,0.312c-2.112,0.533-3.804,1.99-4.553,3.45c-0.535,1.184-1.025,2.901-1.25,5.391
		c0.008,0.002,0.445,0.043,0.452,0.043L103.852,30.731z"/>
</g>
<g id="Text" style="display:none;">
	<text transform="matrix(1 0 0 1 108.9092 203.6436)" style="display:inline;"><tspan x="0" y="0" style="fill:#B4A168; font-family:'FSMatthew-Bold'; font-size:22.4967;">OF </tspan><tspan x="30.482" y="0" style="fill:#B4A168; font-family:'FSMatthew-Bold'; font-size:22.4967;">C</tspan><tspan x="43.104" y="0" style="fill:#B4A168; font-family:'FSMatthew-Bold'; font-size:22.4967;">IV</tspan><tspan x="62.742" y="0" style="fill:#B4A168; font-family:'FSMatthew-Bold'; font-size:22.4967;">I</tspan><tspan x="68.974" y="0" style="fill:#B4A168; font-family:'FSMatthew-Bold'; font-size:22.4967; letter-spacing:-1;">L</tspan><tspan x="79.704" y="0" style="fill:#B4A168; font-family:'FSMatthew-Bold'; font-size:22.4967;"> </tspan></text>
	<text transform="matrix(1 0 0 1 81.4966 222.3906)" style="display:inline;"><tspan x="0" y="0" style="fill:#B4A168; font-family:'FSMatthew-Bold'; font-size:22.4967;">E</tspan><tspan x="11.766" y="0" style="fill:#B4A168; font-family:'FSMatthew-Bold'; font-size:22.4967;">N</tspan><tspan x="26.906" y="0" style="fill:#B4A168; font-family:'FSMatthew-Bold'; font-size:22.4967;">GI</tspan><tspan x="47.175" y="0" style="fill:#B4A168; font-family:'FSMatthew-Bold'; font-size:22.4967;">N</tspan><tspan x="62.315" y="0" style="fill:#B4A168; font-family:'FSMatthew-Bold'; font-size:22.4967;">E</tspan><tspan x="73.811" y="0" style="fill:#B4A168; font-family:'FSMatthew-Bold'; font-size:22.4967;">E</tspan><tspan x="85.577" y="0" style="fill:#B4A168; font-family:'FSMatthew-Bold'; font-size:22.4967;">R</tspan><tspan x="98.625" y="0" style="fill:#B4A168; font-family:'FSMatthew-Bold'; font-size:22.4967;">I</tspan><tspan x="104.856" y="0" style="fill:#B4A168; font-family:'FSMatthew-Bold'; font-size:22.4967;">N</tspan><tspan x="119.997" y="0" style="fill:#B4A168; font-family:'FSMatthew-Bold'; font-size:22.4967;">G </tspan></text>
	<text transform="matrix(1 0 0 1 89.4834 241.1387)" style="display:inline;"><tspan x="0" y="0" style="fill:#B4A168; font-family:'FSMatthew-Bold'; font-size:22.4967;">G</tspan><tspan x="14.061" y="0" style="fill:#B4A168; font-family:'FSMatthew-Bold'; font-size:22.4967;">R</tspan><tspan x="27.536" y="0" style="fill:#B4A168; font-family:'FSMatthew-Bold'; font-size:22.4967;">AD</tspan><tspan x="56.286" y="0" style="fill:#B4A168; font-family:'FSMatthew-Bold'; font-size:22.4967; letter-spacing:-1;">U</tspan><tspan x="70.031" y="0" style="fill:#B4A168; font-family:'FSMatthew-Bold'; font-size:22.4967; letter-spacing:-2;">A</tspan><tspan x="82.742" y="0" style="fill:#B4A168; font-family:'FSMatthew-Bold'; font-size:22.4967;">T</tspan><tspan x="94.598" y="0" style="fill:#B4A168; font-family:'FSMatthew-Bold'; font-size:22.4967;">E</tspan><tspan x="106.386" y="0" style="fill:#B4A168; font-family:'FSMatthew-Bold'; font-size:22.4967;">S </tspan></text>
	<text transform="matrix(1 0 0 1 83.0942 255.3867)" style="display:inline;"><tspan x="0" y="0" style="fill:#1A2A4F; font-family:'FSMatthew-Medium'; font-size:14.9978;">E</tspan><tspan x="7.004" y="0" style="fill:#1A2A4F; font-family:'FSMatthew-Medium'; font-size:14.9978;">MP</tspan><tspan x="26.471" y="0" style="fill:#1A2A4F; font-family:'FSMatthew-Medium'; font-size:14.9978;">L</tspan><tspan x="32.604" y="0" style="fill:#1A2A4F; font-family:'FSMatthew-Medium'; font-size:14.9978;">O</tspan><tspan x="42.383" y="0" style="fill:#1A2A4F; font-family:'FSMatthew-Medium'; font-size:14.9978;">YED WITHIN </tspan><tspan x="118.045" y="0" style="fill:#1A2A4F; font-family:'FSMatthew-Medium'; font-size:14.9978;">6 </tspan></text>
	<text transform="matrix(1 0 0 1 66.5894 269.6338)" style="display:inline;"><tspan x="0" y="0" style="fill:#1A2A4F; font-family:'FSMatthew-Medium'; font-size:14.9978;">MONTHS </tspan><tspan x="58.071" y="0" style="fill:#1A2A4F; font-family:'FSMatthew-Medium'; font-size:14.9978;">O</tspan><tspan x="68.104" y="0" style="fill:#1A2A4F; font-family:'FSMatthew-Medium'; font-size:14.9978;">F G</tspan><tspan x="87.421" y="0" style="fill:#1A2A4F; font-family:'FSMatthew-Medium'; font-size:14.9978;">R</tspan><tspan x="95.265" y="0" style="fill:#1A2A4F; font-family:'FSMatthew-Medium'; font-size:14.9978;">A</tspan><tspan x="104.143" y="0" style="fill:#1A2A4F; font-family:'FSMatthew-Medium'; font-size:14.9978;">D</tspan><tspan x="113.847" y="0" style="fill:#1A2A4F; font-family:'FSMatthew-Medium'; font-size:14.9978;">U</tspan><tspan x="122.996" y="0" style="fill:#1A2A4F; font-family:'FSMatthew-Medium'; font-size:14.9978; letter-spacing:-1;">A</tspan><tspan x="130.719" y="0" style="fill:#1A2A4F; font-family:'FSMatthew-Medium'; font-size:14.9978;">TIN</tspan><tspan x="150.771" y="0" style="fill:#1A2A4F; font-family:'FSMatthew-Medium'; font-size:14.9978;">G</tspan></text>
	<text transform="matrix(1 0 0 1 71.4453 162.1113)" style="display:inline;"><tspan x="0" y="0" style="fill:#1A2A4F; font-family:'FSMatthew-Bold'; font-size:84.3333; letter-spacing:-3;">95</tspan><tspan x="85.85" y="0" style="fill:#1A2A4F; font-family:'FSMatthew-Bold'; font-size:84.3333;">%</tspan></text>
</g>
<g id="Text_Flat">
	<g>
		<path style="fill:#B4A168;" d="M116.264,203.868c-4.161,0-6.365-2.879-6.365-7.827c0-4.947,2.204-7.826,6.365-7.826
			c4.161,0,6.365,2.879,6.365,7.826C122.629,200.989,120.425,203.868,116.264,203.868z M116.264,190.98
			c-1.934,0-3.036,1.484-3.036,5.061s1.102,5.061,3.036,5.061c1.935,0,3.037-1.484,3.037-5.061S118.198,190.98,116.264,190.98z"/>
		<path style="fill:#B4A168;" d="M134.08,191.184h-5.982v3.283h5.038c0.09,0.248,0.157,0.697,0.157,1.327
			c0,0.495-0.045,0.899-0.157,1.372h-5.038v6.478c-0.428,0.067-0.922,0.112-1.597,0.112c-0.607,0-1.192-0.045-1.619-0.112v-15.204
			h9.199c0.09,0.247,0.158,0.72,0.158,1.35C134.238,190.283,134.193,190.711,134.08,191.184z"/>
		<path style="fill:#B4A168;" d="M151.447,191.61c-1.08-0.337-2.429-0.585-3.509-0.585c-2.564,0-4.229,1.822-4.229,5.084
			c0,2.991,1.305,4.947,4.206,4.947c1.08,0,2.294-0.225,3.374-0.562c0.157,0.404,0.27,1.034,0.27,1.507
			c0,0.382-0.022,0.854-0.067,1.057c-1.125,0.518-2.564,0.81-3.891,0.81c-4.836,0-7.22-2.924-7.22-7.691
			c0-4.634,2.564-7.962,7.354-7.962c1.169,0,2.699,0.292,3.779,0.765c0.067,0.225,0.09,0.72,0.09,1.012
			C151.604,190.688,151.515,191.341,151.447,191.61z"/>
		<path style="fill:#B4A168;" d="M156.96,203.644c-0.427,0.067-0.944,0.112-1.619,0.112c-0.606,0-1.169-0.045-1.597-0.112v-15.204
			c0.428-0.067,1.058-0.112,1.619-0.112c0.63,0,1.192,0.045,1.597,0.112V203.644z"/>
		<path style="fill:#B4A168;" d="M164.361,196.986c0.338,0.944,0.675,2.002,0.832,2.901h0.046c0.157-0.899,0.472-1.957,0.81-2.901
			l1.664-4.813c0.428-1.237,0.675-2.429,0.697-3.733c0.45-0.067,1.079-0.112,1.597-0.112c0.473,0,1.147,0.045,1.552,0.112
			c0,1.507-0.27,2.946-0.877,4.543l-4.071,10.661c-0.27,0.067-0.899,0.112-1.439,0.112c-0.606,0-1.102-0.045-1.507-0.112
			l-4.003-10.616c-0.607-1.597-0.877-3.081-0.877-4.588c0.404-0.067,0.944-0.112,1.619-0.112c0.518,0,1.169,0.045,1.574,0.112
			c0,1.395,0.247,2.496,0.675,3.733L164.361,196.986z"/>
		<path style="fill:#B4A168;" d="M176.6,203.644c-0.428,0.067-0.944,0.112-1.619,0.112c-0.607,0-1.17-0.045-1.598-0.112v-15.204
			c0.428-0.067,1.058-0.112,1.62-0.112c0.63,0,1.191,0.045,1.597,0.112V203.644z"/>
		<path style="fill:#B4A168;" d="M188.881,203.644h-9.312v-15.204c0.428-0.067,1.013-0.112,1.575-0.112
			c0.629,0,1.236,0.045,1.642,0.112v12.46h6.095c0.09,0.248,0.158,0.72,0.158,1.35C189.039,202.744,188.993,203.171,188.881,203.644
			z"/>
	</g>
	<g>
		<path style="fill:#B4A168;" d="M92.697,222.391h-9.514v-15.204h9.312c0.09,0.247,0.157,0.72,0.157,1.35
			c0,0.494-0.045,0.922-0.157,1.395H86.4v3.283h5.15c0.09,0.248,0.157,0.697,0.157,1.327c0,0.495-0.045,0.899-0.157,1.372H86.4
			v3.733h6.297c0.09,0.248,0.158,0.72,0.158,1.35C92.855,221.491,92.81,221.918,92.697,222.391z"/>
		<path style="fill:#B4A168;" d="M107.14,222.391c-0.225,0.045-0.765,0.09-1.147,0.09s-0.765-0.022-1.125-0.09l-6.995-9.739v9.739
			c-0.18,0.045-0.855,0.112-1.484,0.112c-0.518,0-1.125-0.067-1.439-0.112v-15.204c0.36-0.067,0.787-0.09,1.192-0.09
			c0.427,0,0.877,0.045,1.214,0.09l6.86,9.559v-9.559c0.45-0.067,1.035-0.112,1.462-0.112c0.427,0,1.057,0.045,1.462,0.112V222.391z
			"/>
		<path style="fill:#B4A168;" d="M121.537,221.806c-1.169,0.518-3.081,0.81-4.858,0.81c-5.061,0-7.287-3.238-7.287-7.669
			c0-4.634,2.744-7.984,7.625-7.984c1.395,0,2.991,0.292,3.936,0.697c0.067,0.359,0.112,0.899,0.112,1.146
			c0,0.495-0.09,1.035-0.18,1.372c-0.967-0.314-2.362-0.518-3.644-0.518c-3.239,0-4.521,2.362-4.521,5.241
			c0,3.059,1.35,5.016,4.071,5.016c0.607,0,1.192-0.046,1.53-0.136v-4.857c0.427-0.067,1.012-0.113,1.574-0.113
			c0.63,0,1.237,0.046,1.642,0.113V221.806z"/>
		<path style="fill:#B4A168;" d="M127.389,222.391c-0.427,0.067-0.945,0.112-1.62,0.112c-0.607,0-1.169-0.045-1.597-0.112v-15.204
			c0.427-0.067,1.057-0.112,1.619-0.112c0.63,0,1.192,0.045,1.597,0.112V222.391z"/>
		<path style="fill:#B4A168;" d="M142.549,222.391c-0.225,0.045-0.765,0.09-1.147,0.09s-0.765-0.022-1.125-0.09l-6.995-9.739v9.739
			c-0.18,0.045-0.855,0.112-1.484,0.112c-0.518,0-1.125-0.067-1.439-0.112v-15.204c0.36-0.067,0.787-0.09,1.192-0.09
			c0.427,0,0.877,0.045,1.214,0.09l6.86,9.559v-9.559c0.45-0.067,1.035-0.112,1.462-0.112c0.428,0,1.057,0.045,1.462,0.112V222.391z
			"/>
		<path style="fill:#B4A168;" d="M155.013,222.391h-9.514v-15.204h9.312c0.09,0.247,0.157,0.72,0.157,1.35
			c0,0.494-0.045,0.922-0.157,1.395h-6.096v3.283h5.15c0.09,0.248,0.157,0.697,0.157,1.327c0,0.495-0.045,0.899-0.157,1.372h-5.15
			v3.733h6.298c0.09,0.248,0.157,0.72,0.157,1.35C155.17,221.491,155.125,221.918,155.013,222.391z"/>
		<path style="fill:#B4A168;" d="M166.509,222.391h-9.515v-15.204h9.312c0.09,0.247,0.157,0.72,0.157,1.35
			c0,0.494-0.045,0.922-0.157,1.395h-6.095v3.283h5.15c0.09,0.248,0.157,0.697,0.157,1.327c0,0.495-0.045,0.899-0.157,1.372h-5.15
			v3.733h6.298c0.09,0.248,0.157,0.72,0.157,1.35C166.666,221.491,166.621,221.918,166.509,222.391z"/>
		<path style="fill:#B4A168;" d="M179.961,222.368c-0.585,0.09-1.192,0.135-1.89,0.135c-0.63,0-1.259-0.022-1.687-0.112
			l-3.081-5.466h-1.327v5.466c-0.562,0.09-1.035,0.112-1.642,0.112c-0.54,0-1.013-0.022-1.575-0.112v-15.204
			c1.035-0.067,3.194-0.112,4.499-0.112c3.823,0,5.735,1.35,5.735,4.857c0,1.867-1.125,3.734-2.699,4.409L179.961,222.368z
			 M173.461,209.705c-0.495,0-1.103,0.022-1.484,0.045v4.499h1.124c1.845,0,2.654-0.675,2.654-2.34
			C175.755,210.245,174.945,209.705,173.461,209.705z"/>
		<path style="fill:#B4A168;" d="M185.069,222.391c-0.428,0.067-0.944,0.112-1.619,0.112c-0.607,0-1.17-0.045-1.598-0.112v-15.204
			c0.428-0.067,1.058-0.112,1.62-0.112c0.63,0,1.191,0.045,1.597,0.112V222.391z"/>
		<path style="fill:#B4A168;" d="M200.229,222.391c-0.225,0.045-0.765,0.09-1.146,0.09c-0.383,0-0.765-0.022-1.125-0.09
			l-6.995-9.739v9.739c-0.18,0.045-0.854,0.112-1.484,0.112c-0.517,0-1.124-0.067-1.439-0.112v-15.204
			c0.36-0.067,0.787-0.09,1.192-0.09c0.428,0,0.877,0.045,1.215,0.09l6.859,9.559v-9.559c0.45-0.067,1.035-0.112,1.462-0.112
			c0.428,0,1.058,0.045,1.462,0.112V222.391z"/>
		<path style="fill:#B4A168;" d="M214.628,221.806c-1.169,0.518-3.081,0.81-4.858,0.81c-5.061,0-7.287-3.238-7.287-7.669
			c0-4.634,2.744-7.984,7.625-7.984c1.395,0,2.991,0.292,3.936,0.697c0.068,0.359,0.113,0.899,0.113,1.146
			c0,0.495-0.091,1.035-0.181,1.372c-0.967-0.314-2.361-0.518-3.644-0.518c-3.238,0-4.521,2.362-4.521,5.241
			c0,3.059,1.35,5.016,4.071,5.016c0.607,0,1.191-0.046,1.529-0.136v-4.857c0.427-0.067,1.012-0.113,1.574-0.113
			c0.63,0,1.237,0.046,1.642,0.113V221.806z"/>
	</g>
	<g>
		<path style="fill:#B4A168;" d="M102.618,240.554c-1.169,0.518-3.081,0.81-4.858,0.81c-5.061,0-7.287-3.238-7.287-7.669
			c0-4.634,2.744-7.984,7.625-7.984c1.395,0,2.991,0.292,3.936,0.697c0.067,0.359,0.112,0.899,0.112,1.146
			c0,0.495-0.09,1.035-0.18,1.372c-0.967-0.314-2.362-0.518-3.644-0.518c-3.239,0-4.521,2.362-4.521,5.241
			c0,3.059,1.35,5.016,4.071,5.016c0.607,0,1.192-0.046,1.53-0.136v-4.857c0.427-0.067,1.012-0.113,1.574-0.113
			c0.63,0,1.237,0.046,1.642,0.113V240.554z"/>
		<path style="fill:#B4A168;" d="M116.432,241.116c-0.585,0.09-1.192,0.135-1.889,0.135c-0.63,0-1.26-0.022-1.687-0.112
			l-3.082-5.466h-1.327v5.466c-0.562,0.09-1.035,0.112-1.642,0.112c-0.54,0-1.012-0.022-1.574-0.112v-15.204
			c1.035-0.067,3.194-0.112,4.498-0.112c3.824,0,5.735,1.35,5.735,4.857c0,1.867-1.125,3.734-2.699,4.409L116.432,241.116z
			 M109.932,228.453c-0.495,0-1.102,0.022-1.484,0.045v4.499h1.125c1.844,0,2.654-0.675,2.654-2.34
			C112.226,228.993,111.416,228.453,109.932,228.453z"/>
		<path style="fill:#B4A168;" d="M131.459,241.139c-0.292,0.067-0.99,0.112-1.732,0.112c-0.584,0-1.259-0.067-1.552-0.112
			l-1.125-3.081h-5.398l-1.057,3.081c-0.495,0.067-1.08,0.112-1.665,0.112c-0.584,0-1.259-0.045-1.597-0.112l5.308-15.204
			c0.314-0.067,1.057-0.112,1.552-0.112c0.607,0,1.327,0.045,1.574,0.112L131.459,241.139z M126.083,235.381l-1.327-4.296
			c-0.158-0.495-0.315-1.125-0.45-1.821h-0.045c-0.112,0.696-0.292,1.326-0.45,1.821l-1.26,4.296H126.083z"/>
		<path style="fill:#B4A168;" d="M142.82,239.789c-1.395,1.08-3.194,1.462-5.668,1.462c-1.259,0-3.396-0.045-4.116-0.112v-15.204
			c1.102-0.067,3.396-0.112,4.678-0.112c4.948,0,7.489,2.092,7.489,7.534C145.204,236.168,144.462,238.507,142.82,239.789z
			 M137.782,228.476c-0.607,0-1.282,0.022-1.529,0.045v10.009c0.292,0.022,0.967,0.045,1.664,0.045c2.834,0,3.958-1.799,3.958-5.263
			C141.875,229.511,140.706,228.476,137.782,228.476z"/>
		<path style="fill:#B4A168;" d="M158.927,235.358c0,3.868-1.484,6.005-5.803,6.005c-4.363,0-5.735-2.137-5.735-6.005v-9.424
			c0.45-0.067,1.035-0.112,1.575-0.112c0.63,0,1.192,0.045,1.642,0.112v9.648c0,2.069,0.585,3.239,2.542,3.239
			c1.957,0,2.632-1.17,2.632-3.239v-9.648c0.404-0.067,1.079-0.112,1.597-0.112c0.495,0,1.17,0.045,1.552,0.112V235.358z"/>
		<path style="fill:#B4A168;" d="M173.954,241.139c-0.292,0.067-0.989,0.112-1.731,0.112c-0.585,0-1.26-0.067-1.553-0.112
			l-1.124-3.081h-5.398l-1.057,3.081c-0.495,0.067-1.08,0.112-1.664,0.112c-0.585,0-1.26-0.045-1.598-0.112l5.309-15.204
			c0.314-0.067,1.057-0.112,1.552-0.112c0.607,0,1.327,0.045,1.574,0.112L173.954,241.139z M168.579,235.381l-1.327-4.296
			c-0.157-0.495-0.315-1.125-0.45-1.821h-0.045c-0.112,0.696-0.292,1.326-0.45,1.821l-1.259,4.296H168.579z"/>
		<path style="fill:#B4A168;" d="M184.011,228.679h-4.025v12.46c-0.428,0.067-1.035,0.112-1.597,0.112
			c-0.562,0-1.17-0.045-1.62-0.112v-12.46h-4.025c-0.09-0.293-0.157-0.99-0.157-1.372c0-0.383,0.09-1.08,0.18-1.372h11.245
			c0.091,0.292,0.158,0.989,0.158,1.372C184.169,227.688,184.102,228.386,184.011,228.679z"/>
		<path style="fill:#B4A168;" d="M195.282,241.139h-9.515v-15.204h9.312c0.09,0.247,0.157,0.72,0.157,1.35
			c0,0.494-0.045,0.922-0.157,1.395h-6.095v3.283h5.15c0.09,0.248,0.157,0.697,0.157,1.327c0,0.495-0.045,0.899-0.157,1.372h-5.15
			v3.733h6.298c0.09,0.248,0.157,0.72,0.157,1.35C195.439,240.239,195.395,240.666,195.282,241.139z"/>
		<path style="fill:#B4A168;" d="M201.694,241.363c-1.642,0-3.441-0.314-4.723-0.899c-0.068-0.314-0.113-0.72-0.113-1.079
			c0-0.54,0.067-1.058,0.226-1.665c1.327,0.54,3.081,0.877,4.453,0.877c1.597,0,2.451-0.742,2.451-1.754
			c0-1.125-0.72-1.597-2.901-2.271c-2.429-0.742-4.206-1.912-4.206-4.521c0-2.789,2.407-4.341,5.578-4.341
			c1.462,0,2.767,0.225,3.644,0.517c0.067,0.248,0.112,0.652,0.112,1.237c0,0.428-0.045,1.079-0.135,1.439
			c-1.124-0.292-2.406-0.45-3.441-0.45c-1.687,0-2.608,0.562-2.608,1.462c0,1.058,0.832,1.484,2.856,2.114
			c2.429,0.765,4.229,1.912,4.229,4.611C207.115,239.587,204.798,241.363,201.694,241.363z"/>
	</g>
	<g>
		<path style="fill:#1A2A4F;" d="M89.469,250.646h-3.93v3.646h4.38v1.095h-5.685v-10.109h5.459v1.095h-4.155v3.195h3.93V250.646z"/>
		<path style="fill:#1A2A4F;" d="M99.758,250.947c-0.075-1.41-0.165-3.105-0.15-4.365h-0.045c-0.345,1.185-0.765,2.445-1.275,3.84
			l-1.785,4.905h-0.99l-1.635-4.815c-0.48-1.425-0.885-2.729-1.17-3.93h-0.03c-0.03,1.26-0.105,2.955-0.195,4.47l-0.27,4.335h-1.245
			l0.705-10.109h1.665l1.725,4.89c0.42,1.245,0.765,2.354,1.02,3.405h0.045c0.255-1.021,0.615-2.131,1.065-3.405l1.8-4.89h1.665
			l0.63,10.109h-1.275L99.758,250.947z"/>
		<path style="fill:#1A2A4F;" d="M103.011,245.397c0.63-0.105,1.455-0.195,2.505-0.195c1.29,0,2.235,0.3,2.834,0.84
			c0.555,0.48,0.885,1.215,0.885,2.115c0,0.915-0.27,1.635-0.78,2.16c-0.69,0.734-1.815,1.109-3.09,1.109
			c-0.39,0-0.75-0.015-1.05-0.09v4.05h-1.305V245.397z M104.316,250.271c0.285,0.075,0.645,0.105,1.08,0.105
			c1.575,0,2.535-0.765,2.535-2.16c0-1.335-0.945-1.979-2.385-1.979c-0.57,0-1.005,0.045-1.23,0.104V250.271z"/>
		<path style="fill:#1A2A4F;" d="M110.705,245.277h1.305v9.015h4.32v1.095h-5.625V245.277z"/>
		<path style="fill:#1A2A4F;" d="M125.479,250.227c0,3.48-2.115,5.325-4.695,5.325c-2.67,0-4.545-2.07-4.545-5.13
			c0-3.21,1.995-5.31,4.695-5.31C123.693,245.112,125.479,247.227,125.479,250.227z M117.634,250.392c0,2.16,1.17,4.095,3.225,4.095
			c2.07,0,3.24-1.904,3.24-4.199c0-2.01-1.05-4.11-3.225-4.11C118.713,246.177,117.634,248.172,117.634,250.392z"/>
		<path style="fill:#1A2A4F;" d="M128.867,255.387v-4.29l-3.195-5.819h1.485l1.425,2.79c0.39,0.765,0.69,1.38,1.005,2.085h0.03
			c0.285-0.66,0.63-1.32,1.02-2.085l1.455-2.79h1.485l-3.39,5.805v4.305H128.867z"/>
		<path style="fill:#1A2A4F;" d="M139.681,250.646h-3.93v3.646h4.38v1.095h-5.685v-10.109h5.459v1.095h-4.155v3.195h3.93V250.646z"
			/>
		<path style="fill:#1A2A4F;" d="M141.54,245.412c0.795-0.12,1.74-0.21,2.775-0.21c1.875,0,3.209,0.435,4.095,1.26
			c0.9,0.825,1.425,1.995,1.425,3.63c0,1.65-0.51,3-1.455,3.93c-0.945,0.945-2.505,1.455-4.47,1.455c-0.93,0-1.71-0.045-2.37-0.12
			V245.412z M142.845,254.352c0.33,0.061,0.81,0.075,1.32,0.075c2.79,0,4.305-1.56,4.305-4.29c0.015-2.385-1.335-3.899-4.095-3.899
			c-0.675,0-1.185,0.06-1.53,0.135V254.352z"/>
		<path style="fill:#1A2A4F;" d="M155.788,255.387l-2.565-10.109h1.38l1.2,5.114c0.3,1.261,0.569,2.521,0.75,3.495h0.029
			c0.165-1.005,0.48-2.205,0.825-3.51l1.351-5.1h1.364l1.23,5.13c0.284,1.199,0.555,2.399,0.705,3.465h0.029
			c0.21-1.11,0.495-2.235,0.811-3.495l1.335-5.1h1.335l-2.865,10.109h-1.365l-1.274-5.265c-0.315-1.29-0.525-2.28-0.66-3.3h-0.03
			c-0.18,1.005-0.404,1.995-0.779,3.3l-1.44,5.265H155.788z"/>
		<path style="fill:#1A2A4F;" d="M167.846,245.277v10.109h-1.306v-10.109H167.846z"/>
		<path style="fill:#1A2A4F;" d="M171.76,246.387h-3.074v-1.109h7.484v1.109h-3.09v9h-1.32V246.387z"/>
		<path style="fill:#1A2A4F;" d="M178.314,245.277v4.229h4.89v-4.229h1.319v10.109h-1.319v-4.74h-4.89v4.74h-1.306v-10.109H178.314z
			"/>
		<path style="fill:#1A2A4F;" d="M187.808,245.277v10.109h-1.306v-10.109H187.808z"/>
		<path style="fill:#1A2A4F;" d="M189.802,255.387v-10.109h1.425l3.24,5.114c0.75,1.186,1.335,2.25,1.815,3.285l0.029-0.015
			c-0.12-1.351-0.149-2.58-0.149-4.155v-4.229h1.229v10.109h-1.319l-3.21-5.13c-0.705-1.125-1.38-2.28-1.891-3.375l-0.045,0.016
			c0.075,1.274,0.105,2.489,0.105,4.169v4.32H189.802z"/>
		<path style="fill:#1A2A4F;" d="M207.379,246.567c-0.27-0.016-0.614,0-0.989,0.06c-2.07,0.345-3.165,1.86-3.39,3.465h0.045
			c0.465-0.615,1.274-1.125,2.354-1.125c1.725,0,2.94,1.245,2.94,3.15c0,1.784-1.216,3.435-3.24,3.435
			c-2.085,0-3.45-1.62-3.45-4.155c0-1.92,0.69-3.435,1.65-4.395c0.81-0.795,1.89-1.29,3.12-1.439c0.39-0.061,0.72-0.075,0.959-0.075
			V246.567z M207.005,252.191c0-1.395-0.796-2.234-2.011-2.234c-0.795,0-1.529,0.495-1.89,1.2c-0.09,0.149-0.15,0.345-0.15,0.585
			c0.03,1.604,0.766,2.79,2.146,2.79C206.239,254.532,207.005,253.587,207.005,252.191z"/>
	</g>
	<g>
		<path style="fill:#1A2A4F;" d="M76.249,265.194c-0.075-1.41-0.165-3.105-0.15-4.365h-0.045c-0.345,1.185-0.765,2.445-1.275,3.84
			l-1.785,4.905h-0.99l-1.635-4.815c-0.48-1.425-0.885-2.729-1.17-3.93h-0.03c-0.03,1.26-0.105,2.955-0.195,4.47l-0.27,4.335h-1.245
			l0.705-10.109h1.665l1.725,4.89c0.42,1.245,0.765,2.354,1.02,3.405h0.045c0.255-1.021,0.615-2.131,1.065-3.405l1.8-4.89h1.665
			l0.63,10.109h-1.275L76.249,265.194z"/>
		<path style="fill:#1A2A4F;" d="M88.142,264.474c0,3.48-2.115,5.325-4.695,5.325c-2.67,0-4.545-2.07-4.545-5.13
			c0-3.21,1.995-5.31,4.695-5.31C86.357,259.359,88.142,261.475,88.142,264.474z M80.297,264.639c0,2.16,1.17,4.095,3.225,4.095
			c2.07,0,3.24-1.904,3.24-4.199c0-2.01-1.05-4.11-3.225-4.11C81.377,260.424,80.297,262.419,80.297,264.639z"/>
		<path style="fill:#1A2A4F;" d="M89.551,269.634v-10.109h1.425l3.24,5.114c0.75,1.186,1.335,2.25,1.815,3.285l0.03-0.015
			c-0.12-1.351-0.15-2.58-0.15-4.155v-4.229h1.23v10.109h-1.32l-3.21-5.13c-0.705-1.125-1.38-2.28-1.89-3.375l-0.045,0.016
			c0.075,1.274,0.105,2.489,0.105,4.17v4.319H89.551z"/>
		<path style="fill:#1A2A4F;" d="M101.054,260.634h-3.075v-1.109h7.485v1.109h-3.09v9h-1.32V260.634z"/>
		<path style="fill:#1A2A4F;" d="M107.608,259.524v4.229h4.89v-4.229h1.32v10.109h-1.32v-4.74h-4.89v4.74h-1.305v-10.109H107.608z"
			/>
		<path style="fill:#1A2A4F;" d="M115.617,268.044c0.585,0.36,1.44,0.66,2.34,0.66c1.335,0,2.115-0.705,2.115-1.726
			c0-0.944-0.54-1.484-1.905-2.01c-1.65-0.585-2.67-1.439-2.67-2.864c0-1.575,1.305-2.745,3.27-2.745
			c1.035,0,1.785,0.24,2.235,0.495l-0.36,1.064c-0.33-0.18-1.005-0.479-1.92-0.479c-1.38,0-1.905,0.824-1.905,1.515
			c0,0.945,0.615,1.41,2.01,1.95c1.71,0.66,2.58,1.484,2.58,2.97c0,1.56-1.155,2.91-3.54,2.91c-0.975,0-2.04-0.285-2.58-0.646
			L115.617,268.044z"/>
		<path style="fill:#1A2A4F;" d="M134.44,264.474c0,3.48-2.115,5.325-4.695,5.325c-2.67,0-4.545-2.07-4.545-5.13
			c0-3.21,1.995-5.31,4.695-5.31C132.655,259.359,134.44,261.475,134.44,264.474z M126.595,264.639c0,2.16,1.17,4.095,3.225,4.095
			c2.07,0,3.24-1.904,3.24-4.199c0-2.01-1.05-4.11-3.225-4.11C127.675,260.424,126.595,262.419,126.595,264.639z"/>
		<path style="fill:#1A2A4F;" d="M135.833,259.524h5.445v1.095h-4.14v3.36h3.825v1.079h-3.825v4.575h-1.305V259.524z"/>
		<path style="fill:#1A2A4F;" d="M153.441,269.184c-0.585,0.21-1.739,0.556-3.104,0.556c-1.53,0-2.79-0.391-3.78-1.335
			c-0.87-0.841-1.41-2.19-1.41-3.766c0.015-3.015,2.085-5.22,5.475-5.22c1.17,0,2.085,0.255,2.52,0.465l-0.314,1.065
			c-0.54-0.24-1.215-0.436-2.235-0.436c-2.46,0-4.065,1.53-4.065,4.065c0,2.564,1.545,4.08,3.9,4.08c0.855,0,1.44-0.12,1.74-0.271
			v-3.015h-2.055v-1.05h3.33V269.184z"/>
		<path style="fill:#1A2A4F;" d="M155.15,259.659c0.66-0.135,1.604-0.21,2.505-0.21c1.395,0,2.295,0.255,2.925,0.825
			c0.51,0.45,0.795,1.14,0.795,1.92c0,1.335-0.84,2.22-1.905,2.58v0.045c0.78,0.27,1.245,0.989,1.485,2.04
			c0.33,1.409,0.57,2.385,0.78,2.774h-1.351c-0.165-0.285-0.39-1.155-0.675-2.415c-0.3-1.395-0.84-1.92-2.024-1.965h-1.23v4.38
			h-1.305V259.659z M156.455,264.264h1.335c1.395,0,2.28-0.765,2.28-1.92c0-1.305-0.945-1.875-2.325-1.89
			c-0.63,0-1.08,0.06-1.29,0.12V264.264z"/>
		<path style="fill:#1A2A4F;" d="M164.629,266.454l-1.05,3.18h-1.35l3.435-10.109h1.575l3.45,10.109h-1.396l-1.08-3.18H164.629z
			 M167.944,265.434l-0.99-2.909c-0.225-0.66-0.375-1.261-0.524-1.846h-0.03c-0.15,0.601-0.315,1.216-0.51,1.83l-0.99,2.925H167.944
			z"/>
		<path style="fill:#1A2A4F;" d="M171.872,259.659c0.795-0.12,1.74-0.21,2.775-0.21c1.875,0,3.21,0.435,4.095,1.26
			c0.899,0.825,1.425,1.995,1.425,3.63c0,1.65-0.51,3-1.455,3.93c-0.944,0.945-2.505,1.455-4.47,1.455c-0.93,0-1.71-0.045-2.37-0.12
			V259.659z M173.178,268.599c0.329,0.061,0.81,0.075,1.319,0.075c2.79,0,4.305-1.56,4.305-4.29
			c0.016-2.385-1.335-3.899-4.095-3.899c-0.675,0-1.185,0.06-1.529,0.135V268.599z"/>
		<path style="fill:#1A2A4F;" d="M182.882,259.524v5.984c0,2.265,1.005,3.225,2.354,3.225c1.5,0,2.46-0.989,2.46-3.225v-5.984h1.32
			v5.895c0,3.104-1.636,4.38-3.825,4.38c-2.07,0-3.63-1.185-3.63-4.32v-5.954H182.882z"/>
		<path style="fill:#1A2A4F;" d="M192.359,266.454l-1.05,3.18h-1.35l3.435-10.109h1.575l3.45,10.109h-1.396l-1.08-3.18H192.359z
			 M195.675,265.434l-0.99-2.909c-0.225-0.66-0.375-1.261-0.524-1.846h-0.03c-0.15,0.601-0.315,1.216-0.51,1.83l-0.99,2.925H195.675
			z"/>
		<path style="fill:#1A2A4F;" d="M200.368,260.634h-3.074v-1.109h7.484v1.109h-3.09v9h-1.32V260.634z"/>
		<path style="fill:#1A2A4F;" d="M206.923,259.524v10.109h-1.306v-10.109H206.923z"/>
		<path style="fill:#1A2A4F;" d="M208.917,269.634v-10.109h1.425l3.24,5.114c0.75,1.186,1.335,2.25,1.815,3.285l0.029-0.015
			c-0.12-1.351-0.149-2.58-0.149-4.155v-4.229h1.229v10.109h-1.319l-3.21-5.13c-0.705-1.125-1.38-2.28-1.891-3.375l-0.045,0.016
			c0.075,1.274,0.105,2.489,0.105,4.17v4.319H208.917z"/>
		<path style="fill:#1A2A4F;" d="M226.195,269.184c-0.585,0.21-1.74,0.556-3.105,0.556c-1.529,0-2.79-0.391-3.779-1.335
			c-0.87-0.841-1.41-2.19-1.41-3.766c0.015-3.015,2.085-5.22,5.475-5.22c1.17,0,2.085,0.255,2.52,0.465l-0.314,1.065
			c-0.54-0.24-1.215-0.436-2.235-0.436c-2.46,0-4.064,1.53-4.064,4.065c0,2.564,1.545,4.08,3.899,4.08c0.855,0,1.44-0.12,1.74-0.271
			v-3.015h-2.055v-1.05h3.33V269.184z"/>
	</g>
	<g>
		<path style="fill:#1A2A4F;" d="M89.324,162.955c-3.373,0-7.084-0.507-9.108-1.181c-0.337-1.181-0.422-3.289-0.422-4.217
			c0-1.603,0.253-3.796,0.59-5.061c2.361,0.591,5.06,1.012,8.349,1.012c6.663,0,11.807-5.65,12.313-13.831
			c-2.446,1.602-5.819,2.614-9.867,2.614c-10.963,0-16.698-7.59-16.698-17.963c0-10.963,7.421-20.072,19.312-20.072
			c16.277,0,20.325,12.819,20.325,25.385C114.119,145.834,107.794,162.955,89.324,162.955z M94.047,113.872
			c-4.386,0-7.422,3.458-7.422,9.952c0,5.988,2.362,9.277,7.337,9.277c2.699,0,6.241-1.434,7.759-3.036
			c0-0.422,0.084-1.603,0.084-2.193C101.806,121.799,101.3,113.872,94.047,113.872z"/>
		<path style="fill:#1A2A4F;" d="M135.032,162.955c-4.554,0-11.301-0.928-15.939-2.53c-0.168-0.591-0.421-2.108-0.421-3.795
			c0-1.855,0.253-3.796,0.759-5.397c3.879,1.181,9.867,1.939,14.59,1.939c5.988,0,9.868-3.205,9.868-8.939
			c0-2.446-0.675-4.639-2.108-6.072c-1.855-1.855-4.976-2.614-9.53-2.614h-11.048v-30.445h31.879
			c0.253,1.35,0.422,3.458,0.422,4.976c0,1.602-0.253,4.385-0.422,5.397h-21.084v10.458h3.711c6.578,0,11.807,1.181,15.518,4.385
			c3.289,2.867,5.145,7.253,5.145,13.325C156.369,156.545,146.502,162.955,135.032,162.955z"/>
		<path style="fill:#1A2A4F;" d="M161.512,117.329c0-7.252,3.289-13.494,12.65-13.494c9.445,0,12.65,6.241,12.65,13.494
			c0,7.084-3.205,13.663-12.65,13.663C164.801,130.992,161.512,124.414,161.512,117.329z M179.476,163.039
			c-3.627-1.012-7.338-3.458-9.193-6.072l34.578-54.228c3.457,0.928,7.168,3.036,9.276,5.65L179.476,163.039z M177.029,117.498
			c0-3.626-0.759-5.904-2.867-5.904s-2.867,2.277-2.867,5.904s0.843,5.735,2.867,5.735
			C176.186,123.233,177.029,121.125,177.029,117.498z M196.595,149.714c0-7.252,3.289-13.494,12.65-13.494
			c9.446,0,12.65,6.241,12.65,13.494c0,7.084-3.204,13.662-12.65,13.662C199.884,163.376,196.595,156.798,196.595,149.714z
			 M212.113,149.883c0-3.626-0.76-5.904-2.868-5.904s-2.867,2.277-2.867,5.904c0,3.626,0.844,5.734,2.867,5.734
			C211.27,155.617,212.113,153.509,212.113,149.883z"/>
	</g>
</g>
</svg>
