<?xml version="1.0" encoding="utf-8"?>
<!-- Generator: Adobe Illustrator 16.0.0, SVG Export Plug-In . SVG Version: 6.00 Build 0)  -->
<!DOCTYPE svg PUBLIC "-//W3C//DTD SVG 1.0//EN" "http://www.w3.org/TR/2001/REC-SVG-20010904/DTD/svg10.dtd">
<svg version="1.0" xmlns="http://www.w3.org/2000/svg" xmlns:xlink="http://www.w3.org/1999/xlink" x="0px" y="0px" width="300px"
	 height="300px" viewBox="0 0 300 300" style="enable-background:new 0 0 300 300;" xml:space="preserve">
<g id="Icons">
	<path style="fill:#E44398;" d="M169.125,113.672h84.615v51.212h-84.615V113.672z M167.533,169.648h87.798
		c1.991,0,3.606-1.616,3.606-3.607v-53.527c0-1.993-1.615-3.609-3.606-3.609h-87.798c-1.993,0-3.607,1.616-3.607,3.609v53.527
		C163.926,168.032,165.54,169.648,167.533,169.648"/>
	<path style="fill:#E44398;" d="M149.276,185.777c0.526,2.682,2.89,4.704,5.725,4.704h112.862c2.835,0,5.195-2.022,5.724-4.704
		H149.276z"/>
	<path style="fill:#E44398;" d="M200.489,183.113l2.518-2.788h16.942l2.424,2.788H200.489z M259.285,171.383h-95.15l-14.142,12.531
		h122.908L259.285,171.383z"/>
	<path style="fill:#B4A168;" d="M219.923,135.073L219.923,135.073c-0.156-0.561-0.674-0.933-1.25-0.91
		c-0.58,0.025-1.061,0.44-1.171,1.008l-1.746,9.063c-0.001,0.008-0.002,0.015-0.005,0.022l-0.582,3.339l-2.408-25.741
		c-0.059-0.613-0.563-1.096-1.18-1.127c-0.615-0.029-1.166,0.405-1.282,1.01l-4.507,23.495l-2.247-7.375
		c-0.16-0.528-0.639-0.882-1.19-0.882h-0.015c-0.549,0.007-1.036,0.382-1.185,0.912l-1.49,5.34h-10.618v2.488h11.561
		c0.557,0,1.051-0.375,1.199-0.91l0.599-2.143l2.469,8.106c0.167,0.549,0.683,0.912,1.257,0.881
		c0.572-0.029,1.049-0.443,1.156-1.007l3.809-19.852l2.46,26.294c0.057,0.618,0.57,1.104,1.187,1.128
		c0.018,0.001,0.035,0.001,0.054,0.001c0.605,0,1.121-0.433,1.226-1.029l2.181-12.488l0.744-3.865l1.196,4.287
		c0.151,0.537,0.645,0.909,1.206,0.909l12.467-0.026v-2.489l-11.529,0.021L219.923,135.073z"/>
	
		<line style="fill:none;stroke:#E870AB;stroke-width:0.907;stroke-dasharray:2.746,1.839;" x1="17.1" y1="104.141" x2="17.1" y2="196.926"/>
	
		<line style="fill:none;stroke:#E870AB;stroke-width:0.907;stroke-dasharray:2.714,1.806;" x1="22.103" y1="200.55" x2="277.962" y2="200.55"/>
	
		<line style="fill:none;stroke:#E870AB;stroke-width:0.907;stroke-dasharray:2.746,1.839;" x1="281.535" y1="195.471" x2="281.535" y2="102.688"/>
	
		<line style="fill:none;stroke:#E870AB;stroke-width:0.907;stroke-dasharray:2.714,1.806;" x1="276.533" y1="99.062" x2="20.675" y2="99.062"/>
	<path style="fill:none;stroke:#E870AB;stroke-width:0.907;" d="M19.246,99.062H17.1v2.171 M281.535,101.233v-2.171h-2.145
		 M279.391,200.55h2.145v-2.171 M17.1,198.379v2.171h2.146"/>
</g>
<g id="Text" style="display:none;">
	<text transform="matrix(1 0 0 1 26.5811 132.1353)" style="display:inline;"><tspan x="0" y="0" style="fill:#E44398; font-family:'FSMatthew-Bold'; font-size:28.69;">90</tspan><tspan x="30.354" y="0" style="fill:#E44398; font-family:'FSMatthew-Bold'; font-size:28.69;">%</tspan></text>
	
		<text transform="matrix(1 0 0 1 79.7139 132.1353)" style="display:inline;fill:#BA5D90; font-family:'FSMatthew-Bold'; font-size:12.1521;"> </text>
	<text transform="matrix(1 0 0 1 82.2051 132.1353)" style="display:inline;"><tspan x="0" y="0" style="fill:#B4A168; font-family:'FSMatthew-Bold'; font-size:10.9978;">OF RE</tspan><tspan x="27.043" y="0" style="fill:#B4A168; font-family:'FSMatthew-Bold'; font-size:10.9978;">S</tspan><tspan x="32.762" y="0" style="fill:#B4A168; font-family:'FSMatthew-Bold'; font-size:10.9978;">E</tspan><tspan x="38.701" y="0" style="fill:#B4A168; font-family:'FSMatthew-Bold'; font-size:10.9978;">A</tspan><tspan x="45.707" y="0" style="fill:#B4A168; font-family:'FSMatthew-Bold'; font-size:10.9978;">R</tspan><tspan x="51.942" y="0" style="fill:#B4A168; font-family:'FSMatthew-Bold'; font-size:10.9978;">C</tspan><tspan x="58.123" y="0" style="fill:#B4A168; font-family:'FSMatthew-Bold'; font-size:10.9978;">H </tspan></text>
	<text transform="matrix(1 0 0 1 26.5811 143.1343)" style="display:inline;"><tspan x="0" y="0" style="fill:#B4A168; font-family:'FSMatthew-Bold'; font-size:10.9978; letter-spacing:-1;">A</tspan><tspan x="6.214" y="0" style="fill:#B4A168; font-family:'FSMatthew-Bold'; font-size:10.9978;">T</tspan><tspan x="11.459" y="0" style="fill:#B4A168; font-family:'FSMatthew-Bold'; font-size:10.9978;"> </tspan><tspan x="13.725" y="0" style="fill:#B4A168; font-family:'FSMatthew-Bold'; font-size:10.9978;">C</tspan><tspan x="19.752" y="0" style="fill:#B4A168; font-family:'FSMatthew-Bold'; font-size:10.9978;">OMP</tspan><tspan x="41.725" y="0" style="fill:#B4A168; font-family:'FSMatthew-Bold'; font-size:10.9978;">U</tspan><tspan x="48.73" y="0" style="fill:#B4A168; font-family:'FSMatthew-Bold'; font-size:10.9978;">TE</tspan><tspan x="60.3" y="0" style="fill:#B4A168; font-family:'FSMatthew-Bold'; font-size:10.9978;">R</tspan><tspan x="66.668" y="0" style="fill:#B4A168; font-family:'FSMatthew-Bold'; font-size:10.9978;"> SCIENC</tspan><tspan x="103.246" y="0" style="fill:#B4A168; font-family:'FSMatthew-Bold'; font-size:10.9978;">E </tspan></text>
	<text transform="matrix(1 0 0 1 26.5811 154.1318)" style="display:inline;"><tspan x="0" y="0" style="fill:#B4A168; font-family:'FSMatthew-Bold'; font-size:10.9978;">RE</tspan><tspan x="12.142" y="0" style="fill:#B4A168; font-family:'FSMatthew-Bold'; font-size:10.9978;">S</tspan><tspan x="17.86" y="0" style="fill:#B4A168; font-family:'FSMatthew-Bold'; font-size:10.9978;">E</tspan><tspan x="23.799" y="0" style="fill:#B4A168; font-family:'FSMatthew-Bold'; font-size:10.9978;">A</tspan><tspan x="30.805" y="0" style="fill:#B4A168; font-family:'FSMatthew-Bold'; font-size:10.9978;">R</tspan><tspan x="37.041" y="0" style="fill:#B4A168; font-family:'FSMatthew-Bold'; font-size:10.9978;">CH IN</tspan><tspan x="63.116" y="0" style="fill:#B4A168; font-family:'FSMatthew-Bold'; font-size:10.9978;">S</tspan><tspan x="68.548" y="0" style="fill:#B4A168; font-family:'FSMatthew-Bold'; font-size:10.9978;">TITU</tspan><tspan x="90.236" y="0" style="fill:#B4A168; font-family:'FSMatthew-Bold'; font-size:10.9978;">T</tspan><tspan x="96.032" y="0" style="fill:#B4A168; font-family:'FSMatthew-Bold'; font-size:10.9978;">E </tspan><tspan x="104.06" y="0" style="fill:#B4A168; font-family:'FSMatthew-Bold'; font-size:10.9978;">(</tspan><tspan x="107.909" y="0" style="fill:#B4A168; font-family:'FSMatthew-Bold'; font-size:10.9978;">C</tspan><tspan x="114.156" y="0" style="fill:#B4A168; font-family:'FSMatthew-Bold'; font-size:10.9978;">S</tspan><tspan x="119.875" y="0" style="fill:#B4A168; font-family:'FSMatthew-Bold'; font-size:10.9978;">RI</tspan><tspan x="129.311" y="0" style="fill:#B4A168; font-family:'FSMatthew-Bold'; font-size:10.9978;">) </tspan></text>
	<text transform="matrix(1 0 0 1 26.5811 165.1289)" style="display:inline;"><tspan x="0" y="0" style="fill:#B4A168; font-family:'FSMatthew-Bold'; font-size:10.9978;">R</tspan><tspan x="6.588" y="0" style="fill:#B4A168; font-family:'FSMatthew-Bold'; font-size:10.9978; letter-spacing:-1;">A</tspan><tspan x="12.801" y="0" style="fill:#B4A168; font-family:'FSMatthew-Bold'; font-size:10.9978;">T</tspan><tspan x="18.597" y="0" style="fill:#B4A168; font-family:'FSMatthew-Bold'; font-size:10.9978;">ED </tspan><tspan x="33.675" y="0" style="fill:#B4A168; font-family:'FSMatthew-Bold'; font-size:10.9978;">W</tspan><tspan x="43.166" y="0" style="fill:#B4A168; font-family:'FSMatthew-Bold'; font-size:10.9978;">ORL</tspan><tspan x="62.104" y="0" style="fill:#B4A168; font-family:'FSMatthew-Bold'; font-size:10.9978;">D</tspan><tspan x="69.472" y="0" style="fill:#B4A168; font-family:'FSMatthew-Bold'; font-size:10.9978;">-L</tspan><tspan x="77.929" y="0" style="fill:#B4A168; font-family:'FSMatthew-Bold'; font-size:10.9978;">E</tspan><tspan x="83.857" y="0" style="fill:#B4A168; font-family:'FSMatthew-Bold'; font-size:10.9978;">ADIN</tspan><tspan x="108.371" y="0" style="fill:#B4A168; font-family:'FSMatthew-Bold'; font-size:10.9978;">G </tspan></text>
	<text transform="matrix(1 0 0 1 26.5811 176.126)" style="display:inline;"><tspan x="0" y="0" style="fill:#B4A168; font-family:'FSMatthew-Bold'; font-size:10.9978;">OR INTERN</tspan><tspan x="51.436" y="0" style="fill:#B4A168; font-family:'FSMatthew-Bold'; font-size:10.9978; letter-spacing:-1;">A</tspan><tspan x="57.65" y="0" style="fill:#B4A168; font-family:'FSMatthew-Bold'; font-size:10.9978;">TIONAL</tspan><tspan x="93.48" y="0" style="fill:#B4A168; font-family:'FSMatthew-Bold'; font-size:10.9978; letter-spacing:-1;">L</tspan><tspan x="98.033" y="0" style="fill:#B4A168; font-family:'FSMatthew-Bold'; font-size:10.9978;">Y </tspan></text>
	<text transform="matrix(1 0 0 1 26.5811 187.126)" style="display:inline;"><tspan x="0" y="0" style="fill:#B4A168; font-family:'FSMatthew-Bold'; font-size:10.9978;">E</tspan><tspan x="5.95" y="0" style="fill:#B4A168; font-family:'FSMatthew-Bold'; font-size:10.9978;">X</tspan><tspan x="12.032" y="0" style="fill:#B4A168; font-family:'FSMatthew-Bold'; font-size:10.9978;">C</tspan><tspan x="18.212" y="0" style="fill:#B4A168; font-family:'FSMatthew-Bold'; font-size:10.9978;">E</tspan><tspan x="23.964" y="0" style="fill:#B4A168; font-family:'FSMatthew-Bold'; font-size:10.9978;">LLEN</tspan><tspan x="48.28" y="0" style="fill:#B4A168; font-family:'FSMatthew-Bold'; font-size:10.9978;">T</tspan><tspan x="53.537" y="0" style="fill:#B4A168; font-family:'FSMatthew-Bold'; font-size:10.9978;"> </tspan></text>
	<text transform="matrix(1 0 0 1 82.2959 187.126)" style="display:inline;"><tspan x="0" y="0" style="fill:#FFFFFF; font-family:'FSMatthew'; font-size:9.5633;">(R</tspan><tspan x="8.033" y="0" style="fill:#FFFFFF; font-family:'FSMatthew'; font-size:9.5633;">EF </tspan><tspan x="19.155" y="0" style="fill:#FFFFFF; font-family:'FSMatthew'; font-size:9.5633;">2</tspan><tspan x="24.109" y="0" style="fill:#FFFFFF; font-family:'FSMatthew'; font-size:9.5633;">0</tspan><tspan x="29.072" y="0" style="fill:#FFFFFF; font-family:'FSMatthew'; font-size:9.5633;">14</tspan><tspan x="38.979" y="0" style="fill:#FFFFFF; font-family:'FSMatthew'; font-size:9.5633;">)</tspan></text>
</g>
<g id="Text_Flat">
	<g>
		<path style="fill:#E44398;" d="M32.663,132.422c-1.147,0-2.41-0.172-3.098-0.401c-0.115-0.401-0.144-1.119-0.144-1.435
			c0-0.545,0.086-1.291,0.201-1.721c0.803,0.201,1.721,0.344,2.84,0.344c2.266,0,4.016-1.922,4.188-4.704
			c-0.832,0.545-1.979,0.889-3.356,0.889c-3.729,0-5.68-2.582-5.68-6.11c0-3.729,2.524-6.828,6.569-6.828
			c5.537,0,6.914,4.36,6.914,8.635C41.097,126.599,38.945,132.422,32.663,132.422z M34.269,115.727
			c-1.492,0-2.524,1.176-2.524,3.385c0,2.037,0.803,3.156,2.496,3.156c0.918,0,2.123-0.488,2.639-1.033
			c0-0.144,0.029-0.545,0.029-0.746C36.908,118.423,36.736,115.727,34.269,115.727z"/>
		<path style="fill:#E44398;" d="M49.589,132.422c-4.59,0-6.828-3.385-6.828-9.982c0-6.655,2.324-9.983,6.914-9.983
			c4.561,0,6.799,3.328,6.799,9.983C56.474,129.037,54.15,132.422,49.589,132.422z M49.618,115.812c-1.836,0-2.64,1.692-2.64,6.627
			c0,4.848,0.804,6.626,2.64,6.626s2.639-1.779,2.639-6.626C52.257,117.505,51.454,115.812,49.618,115.812z"/>
		<path style="fill:#E44398;" d="M58.369,116.903c0-2.467,1.119-4.59,4.303-4.59c3.213,0,4.303,2.123,4.303,4.59
			c0,2.41-1.09,4.647-4.303,4.647C59.488,121.55,58.369,119.312,58.369,116.903z M64.479,132.451
			c-1.233-0.344-2.496-1.176-3.126-2.065l11.761-18.445c1.176,0.315,2.438,1.033,3.156,1.922L64.479,132.451z M63.647,116.96
			c0-1.233-0.258-2.008-0.976-2.008s-0.976,0.774-0.976,2.008s0.287,1.951,0.976,1.951S63.647,118.193,63.647,116.96z
			 M70.303,127.918c0-2.467,1.119-4.59,4.303-4.59c3.213,0,4.303,2.123,4.303,4.59c0,2.41-1.09,4.647-4.303,4.647
			C71.421,132.565,70.303,130.328,70.303,127.918z M75.581,127.976c0-1.233-0.258-2.008-0.976-2.008s-0.976,0.774-0.976,2.008
			s0.287,1.951,0.976,1.951S75.581,129.209,75.581,127.976z"/>
	</g>
	<g>
		<path style="fill:#B4A168;" d="M85.803,132.245c-2.036,0-3.114-1.408-3.114-3.829c0-2.42,1.078-3.828,3.114-3.828
			c2.035,0,3.113,1.408,3.113,3.828C88.916,130.837,87.838,132.245,85.803,132.245z M85.803,125.941
			c-0.946,0-1.485,0.726-1.485,2.475c0,1.75,0.539,2.476,1.485,2.476c0.946,0,1.485-0.726,1.485-2.476
			C87.288,126.667,86.749,125.941,85.803,125.941z"/>
		<path style="fill:#B4A168;" d="M94.513,126.041h-2.926v1.606h2.464c0.044,0.121,0.077,0.341,0.077,0.649
			c0,0.242-0.022,0.44-0.077,0.671h-2.464v3.168c-0.209,0.033-0.451,0.055-0.781,0.055c-0.297,0-0.583-0.022-0.792-0.055v-7.437h4.5
			c0.044,0.121,0.077,0.352,0.077,0.66C94.59,125.6,94.568,125.81,94.513,126.041z"/>
		<path style="fill:#B4A168;" d="M103.411,132.124c-0.286,0.044-0.583,0.066-0.924,0.066c-0.308,0-0.616-0.011-0.825-0.055
			l-1.507-2.673h-0.649v2.673c-0.275,0.044-0.506,0.055-0.803,0.055c-0.264,0-0.495-0.011-0.77-0.055v-7.437
			c0.506-0.033,1.562-0.055,2.2-0.055c1.87,0,2.806,0.66,2.806,2.376c0,0.913-0.55,1.826-1.32,2.156L103.411,132.124z
			 M100.231,125.93c-0.242,0-0.539,0.011-0.726,0.022v2.201h0.55c0.902,0,1.298-0.33,1.298-1.145
			C101.354,126.194,100.958,125.93,100.231,125.93z"/>
		<path style="fill:#B4A168;" d="M108.964,132.135h-4.654v-7.437h4.555c0.044,0.121,0.077,0.352,0.077,0.66
			c0,0.242-0.022,0.451-0.077,0.682h-2.981v1.606h2.519c0.044,0.121,0.077,0.341,0.077,0.649c0,0.242-0.022,0.44-0.077,0.671h-2.519
			v1.826h3.081c0.044,0.121,0.077,0.352,0.077,0.66C109.041,131.695,109.019,131.904,108.964,132.135z"/>
		<path style="fill:#B4A168;" d="M112.098,132.245c-0.803,0-1.684-0.154-2.311-0.44c-0.033-0.154-0.055-0.352-0.055-0.528
			c0-0.264,0.033-0.517,0.11-0.814c0.649,0.264,1.507,0.429,2.178,0.429c0.781,0,1.199-0.363,1.199-0.858
			c0-0.55-0.352-0.781-1.419-1.111c-1.188-0.363-2.057-0.935-2.057-2.211c0-1.364,1.177-2.123,2.729-2.123
			c0.715,0,1.353,0.11,1.782,0.253c0.033,0.121,0.055,0.319,0.055,0.605c0,0.209-0.022,0.528-0.066,0.704
			c-0.55-0.143-1.177-0.22-1.683-0.22c-0.825,0-1.276,0.275-1.276,0.715c0,0.517,0.407,0.726,1.397,1.034
			c1.188,0.374,2.068,0.935,2.068,2.255C114.75,131.376,113.616,132.245,112.098,132.245z"/>
		<path style="fill:#B4A168;" d="M120.446,132.135h-4.654v-7.437h4.555c0.044,0.121,0.077,0.352,0.077,0.66
			c0,0.242-0.022,0.451-0.077,0.682h-2.981v1.606h2.519c0.044,0.121,0.077,0.341,0.077,0.649c0,0.242-0.022,0.44-0.077,0.671h-2.519
			v1.826h3.081c0.044,0.121,0.077,0.352,0.077,0.66C120.523,131.695,120.501,131.904,120.446,132.135z"/>
		<path style="fill:#B4A168;" d="M127.969,132.135c-0.143,0.033-0.484,0.055-0.847,0.055c-0.286,0-0.616-0.033-0.759-0.055
			l-0.55-1.507h-2.641l-0.517,1.507c-0.242,0.033-0.528,0.055-0.814,0.055s-0.616-0.022-0.781-0.055l2.597-7.437
			c0.154-0.033,0.517-0.055,0.759-0.055c0.297,0,0.649,0.022,0.771,0.055L127.969,132.135z M125.339,129.319l-0.649-2.101
			c-0.077-0.242-0.154-0.55-0.22-0.892h-0.022c-0.055,0.341-0.143,0.649-0.22,0.892l-0.616,2.101H125.339z"/>
		<path style="fill:#B4A168;" d="M134.215,132.124c-0.286,0.044-0.583,0.066-0.924,0.066c-0.308,0-0.616-0.011-0.825-0.055
			l-1.507-2.673h-0.649v2.673c-0.275,0.044-0.506,0.055-0.803,0.055c-0.264,0-0.495-0.011-0.77-0.055v-7.437
			c0.506-0.033,1.562-0.055,2.2-0.055c1.87,0,2.806,0.66,2.806,2.376c0,0.913-0.55,1.826-1.32,2.156L134.215,132.124z
			 M131.036,125.93c-0.242,0-0.539,0.011-0.726,0.022v2.201h0.55c0.902,0,1.298-0.33,1.298-1.145
			C132.158,126.194,131.762,125.93,131.036,125.93z"/>
		<path style="fill:#B4A168;" d="M140.044,126.25c-0.528-0.165-1.188-0.286-1.716-0.286c-1.254,0-2.068,0.891-2.068,2.486
			c0,1.463,0.638,2.42,2.057,2.42c0.528,0,1.123-0.11,1.65-0.275c0.077,0.198,0.132,0.506,0.132,0.737
			c0,0.187-0.011,0.418-0.033,0.517c-0.55,0.253-1.254,0.396-1.903,0.396c-2.365,0-3.532-1.43-3.532-3.762
			c0-2.267,1.254-3.895,3.598-3.895c0.572,0,1.32,0.143,1.848,0.374c0.033,0.11,0.044,0.352,0.044,0.495
			C140.121,125.798,140.077,126.117,140.044,126.25z"/>
		<path style="fill:#B4A168;" d="M146.885,132.135c-0.198,0.033-0.473,0.055-0.781,0.055s-0.583-0.022-0.792-0.055v-3.081h-2.585
			v3.081c-0.209,0.033-0.451,0.055-0.781,0.055c-0.297,0-0.583-0.022-0.792-0.055v-7.437c0.209-0.033,0.517-0.055,0.792-0.055
			c0.308,0,0.583,0.022,0.781,0.055v3.014h2.585v-3.014c0.242-0.033,0.517-0.055,0.792-0.055c0.264,0,0.594,0.022,0.781,0.055
			V132.135z"/>
	</g>
	<g>
		<path style="fill:#B4A168;" d="M33.644,143.134c-0.143,0.033-0.484,0.055-0.847,0.055c-0.286,0-0.616-0.033-0.759-0.055
			l-0.55-1.507h-2.641l-0.517,1.507c-0.242,0.033-0.528,0.055-0.814,0.055s-0.616-0.022-0.781-0.055l2.597-7.437
			c0.154-0.033,0.517-0.055,0.759-0.055c0.297,0,0.649,0.022,0.771,0.055L33.644,143.134z M31.015,140.318l-0.649-2.101
			c-0.077-0.242-0.154-0.55-0.22-0.892h-0.022c-0.055,0.341-0.143,0.649-0.22,0.892l-0.616,2.101H31.015z"/>
		<path style="fill:#B4A168;" d="M38.56,137.04H36.59v6.095c-0.209,0.033-0.506,0.055-0.781,0.055c-0.275,0-0.572-0.022-0.792-0.055
			v-6.095h-1.969c-0.044-0.143-0.077-0.484-0.077-0.671s0.044-0.528,0.088-0.671h5.5c0.044,0.143,0.077,0.484,0.077,0.671
			S38.604,136.896,38.56,137.04z"/>
		<path style="fill:#B4A168;" d="M46.203,137.249c-0.528-0.165-1.188-0.286-1.716-0.286c-1.254,0-2.068,0.891-2.068,2.486
			c0,1.463,0.638,2.42,2.057,2.42c0.528,0,1.123-0.11,1.65-0.275c0.077,0.198,0.132,0.506,0.132,0.737
			c0,0.187-0.011,0.418-0.033,0.517c-0.55,0.253-1.254,0.396-1.903,0.396c-2.365,0-3.532-1.43-3.532-3.762
			c0-2.267,1.254-3.895,3.598-3.895c0.572,0,1.32,0.143,1.848,0.374c0.033,0.11,0.044,0.352,0.044,0.495
			C46.28,136.797,46.236,137.116,46.203,137.249z"/>
		<path style="fill:#B4A168;" d="M49.931,143.244c-2.036,0-3.114-1.408-3.114-3.829c0-2.42,1.078-3.828,3.114-3.828
			c2.035,0,3.113,1.408,3.113,3.828C53.044,141.836,51.966,143.244,49.931,143.244z M49.931,136.94
			c-0.946,0-1.485,0.726-1.485,2.475c0,1.75,0.539,2.476,1.485,2.476c0.946,0,1.485-0.726,1.485-2.476
			C51.416,137.667,50.876,136.94,49.931,136.94z"/>
		<path style="fill:#B4A168;" d="M61.667,143.134c-0.132,0.033-0.429,0.055-0.737,0.055c-0.33,0-0.638-0.033-0.771-0.055
			l-0.132-4.467l-1.628,3.763c-0.121,0.044-0.385,0.066-0.55,0.066c-0.198,0-0.44-0.022-0.561-0.055l-1.628-3.774l-0.143,4.467
			c-0.143,0.033-0.484,0.055-0.781,0.055c-0.176,0-0.473-0.022-0.671-0.055l0.319-7.437c0.209-0.022,0.418-0.055,0.638-0.055
			c0.264,0,0.517,0.022,0.649,0.055l2.178,5.05l2.189-5.05c0.22-0.033,0.44-0.055,0.638-0.055c0.253,0,0.484,0.022,0.649,0.055
			L61.667,143.134z"/>
		<path style="fill:#B4A168;" d="M65.371,140.472h-0.77v2.663c-0.209,0.033-0.462,0.055-0.792,0.055
			c-0.297,0-0.572-0.022-0.781-0.055v-7.426c0.638-0.033,1.606-0.066,2.233-0.066c1.683,0,2.904,0.583,2.904,2.333
			C68.166,139.68,67.098,140.472,65.371,140.472z M65.327,136.94c-0.22,0-0.506,0.011-0.726,0.022v2.189h0.682
			c0.847,0,1.298-0.22,1.298-1.123C66.581,137.259,66.196,136.94,65.327,136.94z"/>
		<path style="fill:#B4A168;" d="M74.742,140.307c0,1.893-0.726,2.938-2.838,2.938c-2.134,0-2.806-1.045-2.806-2.938v-4.609
			c0.22-0.033,0.506-0.055,0.77-0.055c0.308,0,0.583,0.022,0.803,0.055v4.72c0,1.012,0.286,1.584,1.243,1.584
			s1.287-0.572,1.287-1.584v-4.72c0.198-0.033,0.528-0.055,0.781-0.055c0.242,0,0.572,0.022,0.759,0.055V140.307z"/>
		<path style="fill:#B4A168;" d="M81.076,137.04h-1.969v6.095c-0.209,0.033-0.506,0.055-0.781,0.055
			c-0.275,0-0.572-0.022-0.792-0.055v-6.095h-1.969c-0.044-0.143-0.077-0.484-0.077-0.671s0.044-0.528,0.088-0.671h5.5
			c0.044,0.143,0.077,0.484,0.077,0.671S81.12,136.896,81.076,137.04z"/>
		<path style="fill:#B4A168;" d="M86.598,143.134h-4.654v-7.437h4.555c0.044,0.121,0.077,0.352,0.077,0.66
			c0,0.242-0.022,0.451-0.077,0.682h-2.981v1.606h2.519c0.044,0.121,0.077,0.341,0.077,0.649c0,0.242-0.022,0.44-0.077,0.671h-2.519
			v1.826h3.081c0.044,0.121,0.077,0.352,0.077,0.66C86.674,142.694,86.652,142.903,86.598,143.134z"/>
		<path style="fill:#B4A168;" d="M93.185,143.123c-0.286,0.044-0.583,0.066-0.924,0.066c-0.308,0-0.616-0.011-0.825-0.055
			l-1.507-2.673H89.28v2.673c-0.275,0.044-0.506,0.055-0.803,0.055c-0.264,0-0.495-0.011-0.77-0.055v-7.437
			c0.506-0.033,1.562-0.055,2.2-0.055c1.87,0,2.806,0.66,2.806,2.376c0,0.913-0.55,1.826-1.32,2.156L93.185,143.123z
			 M90.006,136.929c-0.242,0-0.539,0.011-0.726,0.022v2.201h0.55c0.902,0,1.298-0.33,1.298-1.145
			C91.128,137.193,90.732,136.929,90.006,136.929z"/>
		<path style="fill:#B4A168;" d="M98.364,143.244c-0.803,0-1.684-0.154-2.311-0.44c-0.033-0.154-0.055-0.352-0.055-0.528
			c0-0.264,0.033-0.517,0.11-0.814c0.649,0.264,1.507,0.429,2.178,0.429c0.781,0,1.199-0.363,1.199-0.858
			c0-0.55-0.352-0.781-1.419-1.111c-1.188-0.363-2.057-0.935-2.057-2.211c0-1.364,1.177-2.123,2.729-2.123
			c0.715,0,1.353,0.11,1.782,0.253c0.033,0.121,0.055,0.319,0.055,0.605c0,0.209-0.022,0.528-0.066,0.704
			c-0.55-0.143-1.177-0.22-1.683-0.22c-0.825,0-1.276,0.275-1.276,0.715c0,0.517,0.407,0.726,1.397,1.034
			c1.188,0.374,2.068,0.935,2.068,2.255C101.016,142.375,99.882,143.244,98.364,143.244z"/>
		<path style="fill:#B4A168;" d="M107.141,137.249c-0.528-0.165-1.188-0.286-1.716-0.286c-1.254,0-2.068,0.891-2.068,2.486
			c0,1.463,0.638,2.42,2.057,2.42c0.528,0,1.123-0.11,1.65-0.275c0.077,0.198,0.132,0.506,0.132,0.737
			c0,0.187-0.011,0.418-0.033,0.517c-0.55,0.253-1.254,0.396-1.903,0.396c-2.365,0-3.532-1.43-3.532-3.762
			c0-2.267,1.254-3.895,3.598-3.895c0.572,0,1.32,0.143,1.848,0.374c0.033,0.11,0.044,0.352,0.044,0.495
			C107.218,136.797,107.174,137.116,107.141,137.249z"/>
		<path style="fill:#B4A168;" d="M109.845,143.134c-0.209,0.033-0.462,0.055-0.792,0.055c-0.297,0-0.572-0.022-0.781-0.055v-7.437
			c0.209-0.033,0.517-0.055,0.792-0.055c0.308,0,0.583,0.022,0.781,0.055V143.134z"/>
		<path style="fill:#B4A168;" d="M115.961,143.134h-4.654v-7.437h4.555c0.044,0.121,0.077,0.352,0.077,0.66
			c0,0.242-0.022,0.451-0.077,0.682h-2.981v1.606h2.519c0.044,0.121,0.077,0.341,0.077,0.649c0,0.242-0.022,0.44-0.077,0.671h-2.519
			v1.826h3.081c0.044,0.121,0.077,0.352,0.077,0.66C116.038,142.694,116.016,142.903,115.961,143.134z"/>
		<path style="fill:#B4A168;" d="M123.033,143.134c-0.11,0.022-0.374,0.044-0.561,0.044s-0.374-0.011-0.55-0.044l-3.421-4.764v4.764
			c-0.088,0.022-0.418,0.055-0.726,0.055c-0.253,0-0.55-0.033-0.704-0.055v-7.437c0.176-0.033,0.385-0.044,0.583-0.044
			c0.209,0,0.429,0.022,0.594,0.044l3.355,4.676v-4.676c0.22-0.033,0.506-0.055,0.715-0.055s0.517,0.022,0.715,0.055V143.134z"/>
		<path style="fill:#B4A168;" d="M129.543,137.249c-0.528-0.165-1.188-0.286-1.716-0.286c-1.254,0-2.068,0.891-2.068,2.486
			c0,1.463,0.638,2.42,2.057,2.42c0.528,0,1.123-0.11,1.65-0.275c0.077,0.198,0.132,0.506,0.132,0.737
			c0,0.187-0.011,0.418-0.033,0.517c-0.55,0.253-1.254,0.396-1.903,0.396c-2.365,0-3.532-1.43-3.532-3.762
			c0-2.267,1.254-3.895,3.598-3.895c0.572,0,1.32,0.143,1.848,0.374c0.033,0.11,0.044,0.352,0.044,0.495
			C129.62,136.797,129.576,137.116,129.543,137.249z"/>
		<path style="fill:#B4A168;" d="M135.306,143.134h-4.654v-7.437h4.555c0.044,0.121,0.077,0.352,0.077,0.66
			c0,0.242-0.022,0.451-0.077,0.682h-2.981v1.606h2.519c0.044,0.121,0.077,0.341,0.077,0.649c0,0.242-0.022,0.44-0.077,0.671h-2.519
			v1.826h3.081c0.044,0.121,0.077,0.352,0.077,0.66C135.383,142.694,135.361,142.903,135.306,143.134z"/>
	</g>
	<g>
		<path style="fill:#B4A168;" d="M32.885,154.121c-0.286,0.044-0.583,0.065-0.924,0.065c-0.308,0-0.616-0.011-0.825-0.055
			l-1.507-2.673h-0.649v2.673c-0.275,0.044-0.506,0.055-0.803,0.055c-0.264,0-0.495-0.011-0.77-0.055v-7.437
			c0.506-0.033,1.562-0.055,2.2-0.055c1.87,0,2.806,0.66,2.806,2.376c0,0.913-0.55,1.826-1.32,2.157L32.885,154.121z
			 M29.706,147.927c-0.242,0-0.539,0.011-0.726,0.022v2.201h0.55c0.902,0,1.298-0.33,1.298-1.145
			C30.828,148.191,30.432,147.927,29.706,147.927z"/>
		<path style="fill:#B4A168;" d="M38.439,154.132h-4.654v-7.437h4.555c0.044,0.121,0.077,0.352,0.077,0.66
			c0,0.242-0.022,0.451-0.077,0.682h-2.981v1.606h2.519c0.044,0.121,0.077,0.341,0.077,0.649c0,0.242-0.022,0.44-0.077,0.671h-2.519
			v1.827h3.081c0.044,0.121,0.077,0.352,0.077,0.66C38.516,153.691,38.494,153.9,38.439,154.132z"/>
		<path style="fill:#B4A168;" d="M41.572,154.242c-0.803,0-1.684-0.154-2.311-0.44c-0.033-0.154-0.055-0.352-0.055-0.528
			c0-0.264,0.033-0.517,0.11-0.813c0.649,0.264,1.507,0.429,2.178,0.429c0.781,0,1.199-0.363,1.199-0.858
			c0-0.55-0.352-0.78-1.419-1.111c-1.188-0.363-2.057-0.935-2.057-2.211c0-1.364,1.177-2.123,2.729-2.123
			c0.715,0,1.353,0.11,1.782,0.253c0.033,0.121,0.055,0.319,0.055,0.605c0,0.209-0.022,0.528-0.066,0.704
			c-0.55-0.143-1.177-0.22-1.683-0.22c-0.825,0-1.276,0.275-1.276,0.715c0,0.517,0.407,0.726,1.397,1.034
			c1.188,0.374,2.068,0.935,2.068,2.255C44.224,153.373,43.09,154.242,41.572,154.242z"/>
		<path style="fill:#B4A168;" d="M49.92,154.132h-4.654v-7.437h4.555c0.044,0.121,0.077,0.352,0.077,0.66
			c0,0.242-0.022,0.451-0.077,0.682H46.84v1.606h2.519c0.044,0.121,0.077,0.341,0.077,0.649c0,0.242-0.022,0.44-0.077,0.671H46.84
			v1.827h3.081c0.044,0.121,0.077,0.352,0.077,0.66C49.997,153.691,49.975,153.9,49.92,154.132z"/>
		<path style="fill:#B4A168;" d="M57.443,154.132c-0.143,0.033-0.484,0.055-0.847,0.055c-0.286,0-0.616-0.032-0.759-0.055
			l-0.55-1.507h-2.641l-0.517,1.507c-0.242,0.033-0.528,0.055-0.814,0.055s-0.616-0.021-0.781-0.055l2.597-7.437
			c0.154-0.033,0.517-0.055,0.759-0.055c0.297,0,0.649,0.022,0.771,0.055L57.443,154.132z M54.814,151.315l-0.649-2.101
			c-0.077-0.242-0.154-0.55-0.22-0.891h-0.022c-0.055,0.341-0.143,0.649-0.22,0.891l-0.616,2.101H54.814z"/>
		<path style="fill:#B4A168;" d="M63.689,154.121c-0.286,0.044-0.583,0.065-0.924,0.065c-0.308,0-0.616-0.011-0.825-0.055
			l-1.507-2.673h-0.649v2.673c-0.275,0.044-0.506,0.055-0.803,0.055c-0.264,0-0.495-0.011-0.77-0.055v-7.437
			c0.506-0.033,1.562-0.055,2.2-0.055c1.87,0,2.806,0.66,2.806,2.376c0,0.913-0.55,1.826-1.32,2.157L63.689,154.121z M60.51,147.927
			c-0.242,0-0.539,0.011-0.726,0.022v2.201h0.55c0.902,0,1.298-0.33,1.298-1.145C61.632,148.191,61.236,147.927,60.51,147.927z"/>
		<path style="fill:#B4A168;" d="M69.519,148.246c-0.528-0.165-1.188-0.286-1.716-0.286c-1.254,0-2.068,0.891-2.068,2.486
			c0,1.464,0.638,2.42,2.057,2.42c0.528,0,1.123-0.109,1.65-0.274c0.077,0.198,0.132,0.506,0.132,0.737
			c0,0.187-0.011,0.418-0.033,0.517c-0.55,0.253-1.254,0.396-1.903,0.396c-2.365,0-3.532-1.431-3.532-3.763
			c0-2.267,1.254-3.895,3.598-3.895c0.572,0,1.32,0.143,1.848,0.374c0.033,0.11,0.044,0.352,0.044,0.495
			C69.595,147.795,69.551,148.114,69.519,148.246z"/>
		<path style="fill:#B4A168;" d="M76.359,154.132c-0.198,0.033-0.473,0.055-0.781,0.055s-0.583-0.021-0.792-0.055v-3.08h-2.585v3.08
			c-0.209,0.033-0.451,0.055-0.781,0.055c-0.297,0-0.583-0.021-0.792-0.055v-7.437c0.209-0.033,0.517-0.055,0.792-0.055
			c0.308,0,0.583,0.022,0.781,0.055v3.014h2.585v-3.014c0.242-0.033,0.517-0.055,0.792-0.055c0.264,0,0.594,0.022,0.781,0.055
			V154.132z"/>
		<path style="fill:#B4A168;" d="M81.659,154.132c-0.209,0.033-0.462,0.055-0.792,0.055c-0.297,0-0.572-0.021-0.781-0.055v-7.437
			c0.209-0.033,0.517-0.055,0.792-0.055c0.308,0,0.583,0.022,0.781,0.055V154.132z"/>
		<path style="fill:#B4A168;" d="M89.083,154.132c-0.11,0.022-0.374,0.044-0.561,0.044s-0.374-0.011-0.55-0.044l-3.421-4.764v4.764
			c-0.088,0.022-0.418,0.055-0.726,0.055c-0.253,0-0.55-0.032-0.704-0.055v-7.437c0.176-0.033,0.385-0.044,0.583-0.044
			c0.209,0,0.429,0.022,0.594,0.044l3.355,4.676v-4.676c0.22-0.033,0.506-0.055,0.715-0.055s0.517,0.022,0.715,0.055V154.132z"/>
		<path style="fill:#B4A168;" d="M92.546,154.242c-0.803,0-1.684-0.154-2.311-0.44c-0.033-0.154-0.055-0.352-0.055-0.528
			c0-0.264,0.033-0.517,0.11-0.813c0.649,0.264,1.507,0.429,2.178,0.429c0.781,0,1.199-0.363,1.199-0.858
			c0-0.55-0.352-0.78-1.419-1.111c-1.188-0.363-2.057-0.935-2.057-2.211c0-1.364,1.177-2.123,2.729-2.123
			c0.715,0,1.353,0.11,1.782,0.253c0.033,0.121,0.055,0.319,0.055,0.605c0,0.209-0.022,0.528-0.066,0.704
			c-0.55-0.143-1.177-0.22-1.683-0.22c-0.825,0-1.276,0.275-1.276,0.715c0,0.517,0.407,0.726,1.397,1.034
			c1.188,0.374,2.068,0.935,2.068,2.255C95.198,153.373,94.064,154.242,92.546,154.242z"/>
		<path style="fill:#B4A168;" d="M100.894,148.037h-1.969v6.095c-0.209,0.033-0.506,0.055-0.781,0.055
			c-0.275,0-0.572-0.021-0.792-0.055v-6.095h-1.969c-0.044-0.143-0.077-0.484-0.077-0.671s0.044-0.528,0.088-0.671h5.5
			c0.044,0.143,0.077,0.484,0.077,0.671S100.938,147.894,100.894,148.037z"/>
		<path style="fill:#B4A168;" d="M103.357,154.132c-0.209,0.033-0.462,0.055-0.792,0.055c-0.297,0-0.572-0.021-0.781-0.055v-7.437
			c0.209-0.033,0.517-0.055,0.792-0.055c0.308,0,0.583,0.022,0.781,0.055V154.132z"/>
		<path style="fill:#B4A168;" d="M109.758,148.037h-1.969v6.095c-0.209,0.033-0.506,0.055-0.781,0.055
			c-0.275,0-0.572-0.021-0.792-0.055v-6.095h-1.969c-0.044-0.143-0.077-0.484-0.077-0.671s0.044-0.528,0.088-0.671h5.5
			c0.044,0.143,0.077,0.484,0.077,0.671S109.803,147.894,109.758,148.037z"/>
		<path style="fill:#B4A168;" d="M116.237,151.305c0,1.892-0.726,2.938-2.838,2.938c-2.134,0-2.806-1.046-2.806-2.938v-4.61
			c0.22-0.033,0.506-0.055,0.77-0.055c0.308,0,0.583,0.022,0.803,0.055v4.72c0,1.012,0.286,1.584,1.243,1.584
			s1.287-0.572,1.287-1.584v-4.72c0.198-0.033,0.528-0.055,0.781-0.055c0.242,0,0.572,0.022,0.759,0.055V151.305z"/>
		<path style="fill:#B4A168;" d="M122.582,148.037h-1.969v6.095c-0.209,0.033-0.506,0.055-0.781,0.055
			c-0.275,0-0.572-0.021-0.792-0.055v-6.095h-1.969c-0.044-0.143-0.077-0.484-0.077-0.671s0.044-0.528,0.088-0.671h5.5
			c0.044,0.143,0.077,0.484,0.077,0.671S122.626,147.894,122.582,148.037z"/>
		<path style="fill:#B4A168;" d="M128.092,154.132h-4.654v-7.437h4.555c0.044,0.121,0.077,0.352,0.077,0.66
			c0,0.242-0.022,0.451-0.077,0.682h-2.981v1.606h2.519c0.044,0.121,0.077,0.341,0.077,0.649c0,0.242-0.022,0.44-0.077,0.671h-2.519
			v1.827h3.081c0.044,0.121,0.077,0.352,0.077,0.66C128.168,153.691,128.146,153.9,128.092,154.132z"/>
		<path style="fill:#B4A168;" d="M133.501,155.65c-1.408-1.299-2.266-2.883-2.266-4.775c0-1.925,0.891-3.554,2.266-4.775
			c0.33,0.066,0.715,0.374,0.869,0.594c-1.078,1.144-1.65,2.64-1.65,4.181s0.616,2.993,1.65,4.18
			C134.217,155.276,133.832,155.584,133.501,155.65z"/>
		<path style="fill:#B4A168;" d="M140.387,148.246c-0.528-0.165-1.188-0.286-1.716-0.286c-1.254,0-2.068,0.891-2.068,2.486
			c0,1.464,0.638,2.42,2.057,2.42c0.528,0,1.123-0.109,1.65-0.274c0.077,0.198,0.132,0.506,0.132,0.737
			c0,0.187-0.011,0.418-0.033,0.517c-0.55,0.253-1.254,0.396-1.903,0.396c-2.365,0-3.532-1.431-3.532-3.763
			c0-2.267,1.254-3.895,3.598-3.895c0.572,0,1.32,0.143,1.848,0.374c0.033,0.11,0.044,0.352,0.044,0.495
			C140.464,147.795,140.42,148.114,140.387,148.246z"/>
		<path style="fill:#B4A168;" d="M143.587,154.242c-0.803,0-1.684-0.154-2.311-0.44c-0.033-0.154-0.055-0.352-0.055-0.528
			c0-0.264,0.033-0.517,0.11-0.813c0.649,0.264,1.507,0.429,2.178,0.429c0.781,0,1.199-0.363,1.199-0.858
			c0-0.55-0.352-0.78-1.419-1.111c-1.188-0.363-2.057-0.935-2.057-2.211c0-1.364,1.177-2.123,2.729-2.123
			c0.715,0,1.353,0.11,1.782,0.253c0.033,0.121,0.055,0.319,0.055,0.605c0,0.209-0.022,0.528-0.066,0.704
			c-0.55-0.143-1.177-0.22-1.683-0.22c-0.825,0-1.276,0.275-1.276,0.715c0,0.517,0.407,0.726,1.397,1.034
			c1.188,0.374,2.068,0.935,2.068,2.255C146.238,153.373,145.105,154.242,143.587,154.242z"/>
		<path style="fill:#B4A168;" d="M152.76,154.121c-0.286,0.044-0.583,0.065-0.924,0.065c-0.309,0-0.616-0.011-0.825-0.055
			l-1.507-2.673h-0.649v2.673c-0.275,0.044-0.506,0.055-0.803,0.055c-0.265,0-0.496-0.011-0.771-0.055v-7.437
			c0.506-0.033,1.562-0.055,2.2-0.055c1.87,0,2.806,0.66,2.806,2.376c0,0.913-0.551,1.826-1.32,2.157L152.76,154.121z
			 M149.58,147.927c-0.241,0-0.539,0.011-0.726,0.022v2.201h0.55c0.902,0,1.299-0.33,1.299-1.145
			C150.703,148.191,150.307,147.927,149.58,147.927z"/>
		<path style="fill:#B4A168;" d="M155.255,154.132c-0.209,0.033-0.462,0.055-0.792,0.055c-0.297,0-0.572-0.021-0.781-0.055v-7.437
			c0.209-0.033,0.518-0.055,0.793-0.055c0.308,0,0.583,0.022,0.78,0.055V154.132z"/>
		<path style="fill:#B4A168;" d="M158.092,150.875c0-1.541-0.572-3.037-1.65-4.181c0.154-0.22,0.539-0.528,0.869-0.594
			c1.375,1.221,2.267,2.85,2.267,4.775c0,1.892-0.858,3.476-2.267,4.775c-0.33-0.066-0.715-0.374-0.869-0.595
			C157.476,153.868,158.092,152.416,158.092,150.875z"/>
	</g>
	<g>
		<path style="fill:#B4A168;" d="M32.885,165.118c-0.286,0.044-0.583,0.065-0.924,0.065c-0.308,0-0.616-0.011-0.825-0.055
			l-1.507-2.674h-0.649v2.674c-0.275,0.044-0.506,0.055-0.803,0.055c-0.264,0-0.495-0.011-0.77-0.055v-7.438
			c0.506-0.032,1.562-0.055,2.2-0.055c1.87,0,2.806,0.66,2.806,2.376c0,0.914-0.55,1.827-1.32,2.157L32.885,165.118z
			 M29.706,158.924c-0.242,0-0.539,0.011-0.726,0.022v2.2h0.55c0.902,0,1.298-0.33,1.298-1.145
			C30.828,159.188,30.432,158.924,29.706,158.924z"/>
		<path style="fill:#B4A168;" d="M40.232,165.129c-0.143,0.033-0.484,0.055-0.847,0.055c-0.286,0-0.616-0.032-0.759-0.055
			l-0.55-1.507h-2.641l-0.517,1.507c-0.242,0.033-0.528,0.055-0.814,0.055s-0.616-0.021-0.781-0.055l2.597-7.438
			c0.154-0.032,0.517-0.055,0.759-0.055c0.297,0,0.649,0.022,0.771,0.055L40.232,165.129z M37.603,162.312l-0.649-2.102
			c-0.077-0.242-0.154-0.55-0.22-0.891h-0.022c-0.055,0.341-0.143,0.648-0.22,0.891l-0.616,2.102H37.603z"/>
		<path style="fill:#B4A168;" d="M45.147,159.034h-1.969v6.095c-0.209,0.033-0.506,0.055-0.781,0.055
			c-0.275,0-0.572-0.021-0.792-0.055v-6.095h-1.969c-0.044-0.144-0.077-0.484-0.077-0.671c0-0.188,0.044-0.528,0.088-0.672h5.5
			c0.044,0.144,0.077,0.484,0.077,0.672C45.224,158.55,45.191,158.891,45.147,159.034z"/>
		<path style="fill:#B4A168;" d="M50.657,165.129h-4.654v-7.438h4.555c0.044,0.121,0.077,0.353,0.077,0.66
			c0,0.242-0.022,0.451-0.077,0.683h-2.981v1.606h2.519c0.044,0.121,0.077,0.341,0.077,0.648c0,0.242-0.022,0.44-0.077,0.672h-2.519
			v1.826h3.081c0.044,0.121,0.077,0.352,0.077,0.66C50.734,164.688,50.712,164.897,50.657,165.129z"/>
		<path style="fill:#B4A168;" d="M56.552,164.469c-0.682,0.528-1.562,0.715-2.772,0.715c-0.616,0-1.661-0.021-2.013-0.055v-7.438
			c0.539-0.032,1.661-0.055,2.288-0.055c2.42,0,3.664,1.023,3.664,3.686C57.718,162.697,57.355,163.842,56.552,164.469z
			 M54.087,158.935c-0.297,0-0.627,0.012-0.748,0.022v4.896c0.143,0.011,0.473,0.022,0.814,0.022c1.386,0,1.937-0.881,1.937-2.574
			C56.09,159.441,55.518,158.935,54.087,158.935z"/>
		<path style="fill:#B4A168;" d="M67.737,165.129c-0.143,0.022-0.429,0.055-0.737,0.055c-0.297,0-0.594-0.032-0.792-0.055
			l-0.902-3.675c-0.099-0.385-0.154-0.803-0.198-1.166h-0.011c-0.033,0.363-0.121,0.792-0.209,1.166l-0.891,3.675
			c-0.198,0.022-0.506,0.055-0.792,0.055c-0.275,0-0.605-0.032-0.759-0.055l-1.661-5.445c-0.176-0.572-0.286-1.255-0.286-1.992
			c0.231-0.044,0.517-0.055,0.759-0.055c0.407,0,0.605,0.022,0.781,0.055c0,0.716,0.099,1.31,0.231,1.815l0.671,2.542
			c0.099,0.396,0.198,0.913,0.253,1.408h0.022c0.055-0.495,0.143-1.013,0.242-1.42l1.034-4.346c0.198-0.032,0.385-0.055,0.583-0.055
			c0.209,0,0.396,0.022,0.605,0.055l1.056,4.357c0.099,0.396,0.209,0.913,0.264,1.408h0.022c0.055-0.495,0.154-1.013,0.264-1.42
			l0.704-2.53c0.143-0.506,0.253-1.1,0.253-1.815c0.176-0.032,0.495-0.055,0.825-0.055c0.22,0,0.517,0.022,0.726,0.055
			c0,0.814-0.121,1.431-0.297,1.992L67.737,165.129z"/>
		<path style="fill:#B4A168;" d="M73.345,165.239c-2.036,0-3.114-1.408-3.114-3.829c0-2.42,1.078-3.828,3.114-3.828
			c2.035,0,3.113,1.408,3.113,3.828C76.458,163.831,75.38,165.239,73.345,165.239z M73.345,158.935
			c-0.946,0-1.485,0.727-1.485,2.476s0.539,2.476,1.485,2.476c0.946,0,1.485-0.727,1.485-2.476S74.291,158.935,73.345,158.935z"/>
		<path style="fill:#B4A168;" d="M83.034,165.118c-0.286,0.044-0.583,0.065-0.924,0.065c-0.308,0-0.616-0.011-0.825-0.055
			l-1.507-2.674h-0.649v2.674c-0.275,0.044-0.506,0.055-0.803,0.055c-0.264,0-0.495-0.011-0.77-0.055v-7.438
			c0.506-0.032,1.562-0.055,2.2-0.055c1.87,0,2.806,0.66,2.806,2.376c0,0.914-0.55,1.827-1.32,2.157L83.034,165.118z
			 M79.855,158.924c-0.242,0-0.539,0.011-0.726,0.022v2.2h0.55c0.902,0,1.298-0.33,1.298-1.145
			C80.977,159.188,80.581,158.924,79.855,158.924z"/>
		<path style="fill:#B4A168;" d="M88.489,165.129h-4.555v-7.438c0.209-0.032,0.495-0.055,0.77-0.055
			c0.308,0,0.605,0.022,0.803,0.055v6.096h2.981c0.044,0.121,0.077,0.352,0.077,0.66C88.566,164.688,88.544,164.897,88.489,165.129z
			"/>
		<path style="fill:#B4A168;" d="M94.296,164.469c-0.682,0.528-1.562,0.715-2.772,0.715c-0.616,0-1.661-0.021-2.013-0.055v-7.438
			c0.539-0.032,1.661-0.055,2.288-0.055c2.42,0,3.664,1.023,3.664,3.686C95.462,162.697,95.099,163.842,94.296,164.469z
			 M91.832,158.935c-0.297,0-0.627,0.012-0.748,0.022v4.896c0.143,0.011,0.473,0.022,0.814,0.022c1.386,0,1.937-0.881,1.937-2.574
			C93.834,159.441,93.262,158.935,91.832,158.935z"/>
		<path style="fill:#B4A168;" d="M98.848,162.852h-2.486c-0.033-0.154-0.077-0.429-0.077-0.583c0-0.188,0.022-0.462,0.066-0.594
			h2.498c0.044,0.132,0.066,0.406,0.066,0.594C98.914,162.423,98.881,162.697,98.848,162.852z"/>
		<path style="fill:#B4A168;" d="M104.314,165.129H99.76v-7.438c0.209-0.032,0.495-0.055,0.77-0.055
			c0.308,0,0.605,0.022,0.803,0.055v6.096h2.981c0.044,0.121,0.077,0.352,0.077,0.66
			C104.392,164.688,104.369,164.897,104.314,165.129z"/>
		<path style="fill:#B4A168;" d="M109.989,165.129h-4.654v-7.438h4.555c0.044,0.121,0.077,0.353,0.077,0.66
			c0,0.242-0.022,0.451-0.077,0.683h-2.981v1.606h2.519c0.044,0.121,0.077,0.341,0.077,0.648c0,0.242-0.022,0.44-0.077,0.672h-2.519
			v1.826h3.081c0.044,0.121,0.077,0.352,0.077,0.66C110.066,164.688,110.044,164.897,109.989,165.129z"/>
		<path style="fill:#B4A168;" d="M117.501,165.129c-0.143,0.033-0.484,0.055-0.847,0.055c-0.286,0-0.616-0.032-0.759-0.055
			l-0.55-1.507h-2.641l-0.517,1.507c-0.242,0.033-0.528,0.055-0.814,0.055s-0.616-0.021-0.781-0.055l2.597-7.438
			c0.154-0.032,0.517-0.055,0.759-0.055c0.297,0,0.649,0.022,0.771,0.055L117.501,165.129z M114.872,162.312l-0.649-2.102
			c-0.077-0.242-0.154-0.55-0.22-0.891h-0.022c-0.055,0.341-0.143,0.648-0.22,0.891l-0.616,2.102H114.872z"/>
		<path style="fill:#B4A168;" d="M123.055,164.469c-0.682,0.528-1.562,0.715-2.772,0.715c-0.616,0-1.661-0.021-2.013-0.055v-7.438
			c0.539-0.032,1.661-0.055,2.288-0.055c2.42,0,3.664,1.023,3.664,3.686C124.221,162.697,123.858,163.842,123.055,164.469z
			 M120.59,158.935c-0.297,0-0.627,0.012-0.748,0.022v4.896c0.143,0.011,0.473,0.022,0.814,0.022c1.386,0,1.937-0.881,1.937-2.574
			C122.593,159.441,122.021,158.935,120.59,158.935z"/>
		<path style="fill:#B4A168;" d="M126.914,165.129c-0.209,0.033-0.462,0.055-0.792,0.055c-0.297,0-0.572-0.021-0.781-0.055v-7.438
			c0.209-0.032,0.517-0.055,0.792-0.055c0.308,0,0.583,0.022,0.781,0.055V165.129z"/>
		<path style="fill:#B4A168;" d="M134.338,165.129c-0.11,0.022-0.374,0.044-0.561,0.044s-0.374-0.011-0.55-0.044l-3.421-4.764v4.764
			c-0.088,0.022-0.418,0.055-0.726,0.055c-0.253,0-0.55-0.032-0.704-0.055v-7.438c0.176-0.032,0.385-0.044,0.583-0.044
			c0.209,0,0.429,0.022,0.594,0.044l3.355,4.676v-4.676c0.22-0.032,0.506-0.055,0.715-0.055s0.517,0.022,0.715,0.055V165.129z"/>
		<path style="fill:#B4A168;" d="M141.376,164.843c-0.572,0.253-1.507,0.396-2.376,0.396c-2.475,0-3.564-1.585-3.564-3.752
			c0-2.267,1.342-3.905,3.729-3.905c0.682,0,1.463,0.143,1.925,0.341c0.033,0.176,0.055,0.44,0.055,0.562
			c0,0.241-0.044,0.506-0.088,0.671c-0.473-0.154-1.155-0.253-1.782-0.253c-1.584,0-2.211,1.155-2.211,2.563
			c0,1.496,0.66,2.453,1.991,2.453c0.297,0,0.583-0.022,0.748-0.066v-2.376c0.209-0.033,0.495-0.056,0.77-0.056
			c0.308,0,0.605,0.022,0.803,0.056V164.843z"/>
	</g>
	<g>
		<path style="fill:#B4A168;" d="M30.179,176.236c-2.036,0-3.114-1.408-3.114-3.829c0-2.42,1.078-3.828,3.114-3.828
			c2.035,0,3.113,1.408,3.113,3.828C33.292,174.828,32.214,176.236,30.179,176.236z M30.179,169.932
			c-0.946,0-1.485,0.727-1.485,2.476s0.539,2.476,1.485,2.476c0.946,0,1.485-0.727,1.485-2.476S31.125,169.932,30.179,169.932z"/>
		<path style="fill:#B4A168;" d="M39.868,176.115c-0.286,0.044-0.583,0.065-0.924,0.065c-0.308,0-0.616-0.011-0.825-0.055
			l-1.507-2.674h-0.649v2.674c-0.275,0.044-0.506,0.055-0.803,0.055c-0.264,0-0.495-0.011-0.77-0.055v-7.438
			c0.506-0.032,1.562-0.055,2.2-0.055c1.87,0,2.806,0.66,2.806,2.376c0,0.914-0.55,1.827-1.32,2.157L39.868,176.115z
			 M36.689,169.921c-0.242,0-0.539,0.011-0.726,0.022v2.2h0.55c0.902,0,1.298-0.33,1.298-1.145
			C37.811,170.186,37.415,169.921,36.689,169.921z"/>
		<path style="fill:#B4A168;" d="M44.629,176.126c-0.209,0.033-0.462,0.055-0.792,0.055c-0.297,0-0.572-0.021-0.781-0.055v-7.438
			c0.209-0.032,0.517-0.055,0.792-0.055c0.308,0,0.583,0.022,0.781,0.055V176.126z"/>
		<path style="fill:#B4A168;" d="M52.054,176.126c-0.11,0.022-0.374,0.044-0.561,0.044s-0.374-0.011-0.55-0.044l-3.421-4.764v4.764
			c-0.088,0.022-0.418,0.055-0.726,0.055c-0.253,0-0.55-0.032-0.704-0.055v-7.438c0.176-0.032,0.385-0.044,0.583-0.044
			c0.209,0,0.429,0.022,0.594,0.044l3.355,4.676v-4.676c0.22-0.032,0.506-0.055,0.715-0.055s0.517,0.022,0.715,0.055V176.126z"/>
		<path style="fill:#B4A168;" d="M58.432,170.031h-1.969v6.095c-0.209,0.033-0.506,0.055-0.781,0.055
			c-0.275,0-0.572-0.021-0.792-0.055v-6.095H52.92c-0.044-0.144-0.077-0.484-0.077-0.671c0-0.188,0.044-0.528,0.088-0.672h5.5
			c0.044,0.144,0.077,0.484,0.077,0.672C58.509,169.547,58.477,169.888,58.432,170.031z"/>
		<path style="fill:#B4A168;" d="M63.953,176.126h-4.654v-7.438h4.555c0.044,0.121,0.077,0.353,0.077,0.66
			c0,0.242-0.022,0.451-0.077,0.683h-2.981v1.606h2.519c0.044,0.121,0.077,0.341,0.077,0.648c0,0.242-0.022,0.44-0.077,0.671h-2.519
			v1.827h3.081c0.044,0.121,0.077,0.352,0.077,0.66C64.03,175.686,64.008,175.895,63.953,176.126z"/>
		<path style="fill:#B4A168;" d="M70.541,176.115c-0.286,0.044-0.583,0.065-0.924,0.065c-0.308,0-0.616-0.011-0.825-0.055
			l-1.507-2.674h-0.649v2.674c-0.275,0.044-0.506,0.055-0.803,0.055c-0.264,0-0.495-0.011-0.77-0.055v-7.438
			c0.506-0.032,1.562-0.055,2.2-0.055c1.87,0,2.806,0.66,2.806,2.376c0,0.914-0.55,1.827-1.32,2.157L70.541,176.115z
			 M67.362,169.921c-0.242,0-0.539,0.011-0.726,0.022v2.2h0.55c0.902,0,1.298-0.33,1.298-1.145
			C68.484,170.186,68.088,169.921,67.362,169.921z"/>
		<path style="fill:#B4A168;" d="M77.404,176.126c-0.11,0.022-0.374,0.044-0.561,0.044s-0.374-0.011-0.55-0.044l-3.421-4.764v4.764
			c-0.088,0.022-0.418,0.055-0.726,0.055c-0.253,0-0.55-0.032-0.704-0.055v-7.438c0.176-0.032,0.385-0.044,0.583-0.044
			c0.209,0,0.429,0.022,0.594,0.044l3.355,4.676v-4.676c0.22-0.032,0.506-0.055,0.715-0.055s0.517,0.022,0.715,0.055V176.126z"/>
		<path style="fill:#B4A168;" d="M85.08,176.126c-0.143,0.033-0.484,0.055-0.847,0.055c-0.286,0-0.616-0.032-0.759-0.055
			l-0.55-1.507h-2.641l-0.517,1.507c-0.242,0.033-0.528,0.055-0.814,0.055s-0.616-0.021-0.781-0.055l2.597-7.438
			c0.154-0.032,0.517-0.055,0.759-0.055c0.297,0,0.649,0.022,0.771,0.055L85.08,176.126z M82.451,173.31l-0.649-2.102
			c-0.077-0.242-0.154-0.55-0.22-0.891H81.56c-0.055,0.341-0.143,0.648-0.22,0.891l-0.616,2.102H82.451z"/>
		<path style="fill:#B4A168;" d="M89.996,170.031h-1.969v6.095c-0.209,0.033-0.506,0.055-0.781,0.055
			c-0.275,0-0.572-0.021-0.792-0.055v-6.095h-1.969c-0.044-0.144-0.077-0.484-0.077-0.671c0-0.188,0.044-0.528,0.088-0.672h5.5
			c0.044,0.144,0.077,0.484,0.077,0.672C90.073,169.547,90.04,169.888,89.996,170.031z"/>
		<path style="fill:#B4A168;" d="M92.458,176.126c-0.209,0.033-0.462,0.055-0.792,0.055c-0.297,0-0.572-0.021-0.781-0.055v-7.438
			c0.209-0.032,0.517-0.055,0.792-0.055c0.308,0,0.583,0.022,0.781,0.055V176.126z"/>
		<path style="fill:#B4A168;" d="M96.693,176.236c-2.036,0-3.114-1.408-3.114-3.829c0-2.42,1.078-3.828,3.114-3.828
			c2.035,0,3.113,1.408,3.113,3.828C99.806,174.828,98.728,176.236,96.693,176.236z M96.693,169.932
			c-0.946,0-1.485,0.727-1.485,2.476s0.539,2.476,1.485,2.476c0.946,0,1.485-0.727,1.485-2.476S97.639,169.932,96.693,169.932z"/>
		<path style="fill:#B4A168;" d="M106.867,176.126c-0.11,0.022-0.374,0.044-0.561,0.044s-0.374-0.011-0.55-0.044l-3.421-4.764v4.764
			c-0.088,0.022-0.418,0.055-0.726,0.055c-0.253,0-0.55-0.032-0.704-0.055v-7.438c0.176-0.032,0.385-0.044,0.583-0.044
			c0.209,0,0.429,0.022,0.594,0.044l3.355,4.676v-4.676c0.22-0.032,0.506-0.055,0.715-0.055s0.517,0.022,0.715,0.055V176.126z"/>
		<path style="fill:#B4A168;" d="M114.543,176.126c-0.143,0.033-0.484,0.055-0.847,0.055c-0.286,0-0.616-0.032-0.759-0.055
			l-0.55-1.507h-2.641l-0.517,1.507c-0.242,0.033-0.528,0.055-0.814,0.055s-0.616-0.021-0.781-0.055l2.597-7.438
			c0.154-0.032,0.517-0.055,0.759-0.055c0.297,0,0.649,0.022,0.771,0.055L114.543,176.126z M111.914,173.31l-0.649-2.102
			c-0.077-0.242-0.154-0.55-0.22-0.891h-0.022c-0.055,0.341-0.143,0.648-0.22,0.891l-0.616,2.102H111.914z"/>
		<path style="fill:#B4A168;" d="M119.865,176.126h-4.555v-7.438c0.209-0.032,0.495-0.055,0.77-0.055
			c0.308,0,0.605,0.022,0.803,0.055v6.096h2.981c0.044,0.121,0.077,0.352,0.077,0.66
			C119.942,175.686,119.92,175.895,119.865,176.126z"/>
		<path style="fill:#B4A168;" d="M125.441,176.126h-4.555v-7.438c0.209-0.032,0.495-0.055,0.77-0.055
			c0.308,0,0.605,0.022,0.803,0.055v6.096h2.981c0.044,0.121,0.077,0.352,0.077,0.66
			C125.518,175.686,125.496,175.895,125.441,176.126z"/>
		<path style="fill:#B4A168;" d="M130.203,170.395l-1.683,3.245v2.486c-0.209,0.033-0.451,0.055-0.781,0.055
			c-0.297,0-0.583-0.021-0.792-0.055v-2.509l-1.606-3.135c-0.352-0.683-0.539-1.243-0.539-1.805c0.176-0.021,0.495-0.044,0.77-0.044
			c0.264,0,0.561,0.011,0.77,0.044c0,0.462,0.066,0.771,0.319,1.299l0.737,1.518c0.165,0.33,0.308,0.727,0.352,0.957h0.011
			c0.055-0.23,0.231-0.638,0.363-0.924l0.759-1.596c0.165-0.341,0.264-0.736,0.264-1.243c0.209-0.032,0.539-0.055,0.803-0.055
			c0.308,0,0.539,0.022,0.715,0.055C130.665,169.25,130.445,169.921,130.203,170.395z"/>
	</g>
	<g>
		<path style="fill:#B4A168;" d="M32.06,187.126h-4.654v-7.438h4.555c0.044,0.121,0.077,0.353,0.077,0.66
			c0,0.242-0.022,0.451-0.077,0.683h-2.981v1.606h2.519c0.044,0.121,0.077,0.341,0.077,0.648c0,0.242-0.022,0.44-0.077,0.671h-2.519
			v1.827h3.081c0.044,0.121,0.077,0.352,0.077,0.66C32.137,186.686,32.115,186.895,32.06,187.126z"/>
		<path style="fill:#B4A168;" d="M33.466,185.112l1.408-1.914l-1.287-1.793c-0.418-0.572-0.682-1.101-0.77-1.717
			c0.176-0.032,0.539-0.055,0.77-0.055c0.275,0,0.594,0.022,0.781,0.055c0.055,0.484,0.33,0.881,0.616,1.299l0.771,1.122
			l0.792-1.111c0.264-0.374,0.517-0.847,0.561-1.31c0.187-0.021,0.517-0.055,0.781-0.055c0.242,0,0.572,0.022,0.748,0.055
			c-0.088,0.704-0.374,1.243-0.825,1.871l-1.166,1.605l1.408,1.98c0.495,0.683,0.726,1.354,0.77,1.98
			c-0.187,0.033-0.506,0.055-0.781,0.055c-0.242,0-0.561-0.021-0.77-0.055c-0.033-0.484-0.198-0.946-0.473-1.364l-1.045-1.573
			l-1.023,1.54c-0.264,0.407-0.418,0.913-0.418,1.397c-0.176,0.033-0.55,0.055-0.792,0.055c-0.264,0-0.583-0.032-0.77-0.055
			C32.773,186.455,32.894,185.894,33.466,185.112z"/>
		<path style="fill:#B4A168;" d="M44.51,181.24c-0.528-0.165-1.188-0.286-1.716-0.286c-1.254,0-2.068,0.892-2.068,2.486
			c0,1.463,0.638,2.42,2.057,2.42c0.528,0,1.123-0.109,1.65-0.274c0.077,0.198,0.132,0.506,0.132,0.737
			c0,0.187-0.011,0.418-0.033,0.517c-0.55,0.253-1.254,0.396-1.903,0.396c-2.365,0-3.532-1.431-3.532-3.763
			c0-2.267,1.254-3.895,3.598-3.895c0.572,0,1.32,0.143,1.848,0.374c0.033,0.109,0.044,0.352,0.044,0.495
			C44.586,180.789,44.542,181.108,44.51,181.24z"/>
		<path style="fill:#B4A168;" d="M50.272,187.126h-4.654v-7.438h4.555c0.044,0.121,0.077,0.353,0.077,0.66
			c0,0.242-0.022,0.451-0.077,0.683h-2.981v1.606h2.519c0.044,0.121,0.077,0.341,0.077,0.648c0,0.242-0.022,0.44-0.077,0.671h-2.519
			v1.827h3.081c0.044,0.121,0.077,0.352,0.077,0.66C50.349,186.686,50.327,186.895,50.272,187.126z"/>
		<path style="fill:#B4A168;" d="M55.925,187.126H51.37v-7.438c0.209-0.032,0.495-0.055,0.77-0.055c0.308,0,0.605,0.022,0.803,0.055
			v6.096h2.981c0.044,0.121,0.077,0.352,0.077,0.66C56.002,186.686,55.979,186.895,55.925,187.126z"/>
		<path style="fill:#B4A168;" d="M61.501,187.126h-4.555v-7.438c0.209-0.032,0.495-0.055,0.77-0.055
			c0.308,0,0.605,0.022,0.803,0.055v6.096h2.981c0.044,0.121,0.077,0.352,0.077,0.66C61.578,186.686,61.556,186.895,61.501,187.126z
			"/>
		<path style="fill:#B4A168;" d="M67.176,187.126h-4.654v-7.438h4.555c0.044,0.121,0.077,0.353,0.077,0.66
			c0,0.242-0.022,0.451-0.077,0.683h-2.981v1.606h2.519c0.044,0.121,0.077,0.341,0.077,0.648c0,0.242-0.022,0.44-0.077,0.671h-2.519
			v1.827h3.081c0.044,0.121,0.077,0.352,0.077,0.66C67.252,186.686,67.23,186.895,67.176,187.126z"/>
		<path style="fill:#B4A168;" d="M74.248,187.126c-0.11,0.022-0.374,0.044-0.561,0.044s-0.374-0.011-0.55-0.044l-3.421-4.764v4.764
			c-0.088,0.022-0.418,0.055-0.726,0.055c-0.253,0-0.55-0.032-0.704-0.055v-7.438c0.176-0.032,0.385-0.044,0.583-0.044
			c0.209,0,0.429,0.022,0.594,0.044l3.355,4.676v-4.676c0.22-0.032,0.506-0.055,0.715-0.055s0.517,0.022,0.715,0.055V187.126z"/>
		<path style="fill:#B4A168;" d="M80.625,181.031h-1.969v6.095c-0.209,0.033-0.506,0.055-0.781,0.055
			c-0.275,0-0.572-0.021-0.792-0.055v-6.095h-1.969c-0.044-0.144-0.077-0.484-0.077-0.671c0-0.188,0.044-0.528,0.088-0.672h5.5
			c0.044,0.144,0.077,0.484,0.077,0.672C80.703,180.547,80.67,180.888,80.625,181.031z"/>
	</g>
	<g>
		<path style="fill:#FFFFFF;" d="M84.381,188.197c-1.109-1.033-1.703-2.487-1.703-3.951s0.593-2.87,1.703-3.903
			c0.22,0.028,0.364,0.134,0.488,0.307c-0.938,1.109-1.292,2.362-1.292,3.626c0,1.281,0.354,2.506,1.292,3.616
			C84.745,188.063,84.602,188.169,84.381,188.197z"/>
		<path style="fill:#FFFFFF;" d="M90.236,187.126c-0.191,0.028-0.383,0.048-0.574,0.048c-0.182,0-0.335-0.01-0.517-0.048
			l-1.416-2.487h-0.842v2.487c-0.163,0.028-0.325,0.048-0.488,0.048c-0.153,0-0.316-0.02-0.469-0.048v-6.468
			c0.469-0.028,1.033-0.048,1.578-0.048c1.349,0,2.43,0.412,2.43,1.962c0,0.852-0.469,1.598-1.253,1.885L90.236,187.126z
			 M87.614,181.356c-0.22,0-0.564,0-0.727,0.01v2.517h0.65c0.899,0,1.435-0.402,1.435-1.311
			C88.973,181.691,88.466,181.356,87.614,181.356z"/>
		<path style="fill:#FFFFFF;" d="M94.816,187.126h-3.769v-6.468h3.626c0.038,0.115,0.048,0.277,0.048,0.393
			c0,0.124-0.01,0.268-0.048,0.393h-2.669v1.951h2.306c0.038,0.115,0.048,0.277,0.048,0.393c0,0.124-0.01,0.268-0.048,0.393h-2.306
			v2.162h2.812c0.039,0.114,0.048,0.277,0.048,0.392C94.864,186.858,94.854,187.002,94.816,187.126z"/>
		<path style="fill:#FFFFFF;" d="M99.378,181.443h-2.669v1.951h2.21c0.038,0.115,0.048,0.277,0.048,0.393
			c0,0.124-0.01,0.268-0.048,0.393h-2.21v2.946c-0.163,0.028-0.306,0.048-0.479,0.048c-0.163,0-0.325-0.02-0.478-0.048v-6.468h3.626
			c0.038,0.115,0.048,0.277,0.048,0.393C99.426,181.175,99.416,181.318,99.378,181.443z"/>
		<path style="fill:#FFFFFF;" d="M104.235,185.146c-0.345,0.383-0.718,0.784-1.12,1.187h2.708c0.029,0.105,0.048,0.306,0.048,0.421
			c0,0.105-0.009,0.268-0.048,0.373h-3.75c-0.067-0.182-0.115-0.354-0.115-0.545c0-0.077,0.01-0.163,0.02-0.239
			c0.507-0.508,1.081-1.11,1.569-1.655c0.899-1.005,1.378-1.588,1.378-2.354c0-0.689-0.459-1.033-1.072-1.033
			c-0.536,0-1.119,0.162-1.56,0.392c-0.029-0.134-0.048-0.268-0.048-0.401c0-0.096,0.019-0.239,0.048-0.325
			c0.44-0.239,1.053-0.402,1.703-0.402c1.071,0,1.914,0.642,1.914,1.693C105.909,183.232,105.325,183.931,104.235,185.146z"/>
		<path style="fill:#FFFFFF;" d="M108.979,187.222c-1.407,0-2.143-1.091-2.143-3.329c0-2.21,0.736-3.33,2.143-3.33
			c1.406,0,2.143,1.091,2.143,3.33C111.122,186.131,110.385,187.222,108.979,187.222z M108.979,181.309
			c-0.918,0-1.139,1.072-1.139,2.574c0,1.512,0.229,2.593,1.139,2.593c0.938,0,1.138-1.081,1.138-2.593
			S109.897,181.309,108.979,181.309z"/>
		<path style="fill:#FFFFFF;" d="M115.099,187.126c-0.153,0.028-0.316,0.048-0.479,0.048s-0.325-0.02-0.479-0.048v-5.435
			l-1.617,1.043c-0.182-0.172-0.345-0.449-0.402-0.688l2.229-1.388c0.105-0.028,0.229-0.048,0.354-0.048
			c0.134,0,0.268,0.02,0.393,0.048V187.126z"/>
		<path style="fill:#FFFFFF;" d="M121.287,185.624h-0.909v1.492c-0.144,0.029-0.287,0.048-0.44,0.048
			c-0.163,0-0.334-0.01-0.497-0.048v-1.492h-2.755c-0.029-0.124-0.048-0.249-0.048-0.373c0-0.105,0.009-0.201,0.048-0.354
			l2.066-4.238c0.134-0.028,0.335-0.048,0.469-0.048c0.172,0,0.363,0.02,0.545,0.048l-2.076,4.172h1.751v-1.445
			c0.163-0.028,0.325-0.048,0.488-0.048c0.153,0,0.296,0.02,0.45,0.048v1.445h0.909c0.039,0.134,0.048,0.277,0.048,0.411
			C121.335,185.365,121.326,185.509,121.287,185.624z"/>
		<path style="fill:#FFFFFF;" d="M122.28,188.197c-0.22-0.028-0.363-0.134-0.488-0.306c0.938-1.11,1.292-2.363,1.292-3.626
			c0-1.282-0.354-2.507-1.292-3.616c0.125-0.173,0.287-0.278,0.507-0.307c1.109,1.033,1.684,2.487,1.684,3.951
			S123.39,187.164,122.28,188.197z"/>
	</g>
</g>
</svg>
