<?xml version="1.0" encoding="utf-8"?>
<!-- Generator: Adobe Illustrator 16.0.0, SVG Export Plug-In . SVG Version: 6.00 Build 0)  -->
<!DOCTYPE svg PUBLIC "-//W3C//DTD SVG 1.1//EN" "http://www.w3.org/Graphics/SVG/1.1/DTD/svg11.dtd">
<svg version="1.1" id="Layer_1" xmlns="http://www.w3.org/2000/svg" xmlns:xlink="http://www.w3.org/1999/xlink" x="0px" y="0px"
	 width="300px" height="300px" viewBox="0 0 300 300" enable-background="new 0 0 300 300" xml:space="preserve">
<g>
	<path fill="#333333" d="M24.702,25.657c-4.099,0-6.246-3.074-6.246-8.491s2.147-8.491,6.246-8.491s6.246,3.075,6.246,8.491
		S28.801,25.657,24.702,25.657z M24.702,9.92c-2.952,0-4.489,2.367-4.489,7.247c0,4.879,1.537,7.246,4.489,7.246
		s4.489-2.367,4.489-7.246C29.191,12.287,27.654,9.92,24.702,9.92z"/>
	<path fill="#333333" d="M43.364,20.582c0,3.708-1.537,5.075-4.758,5.075c-3.294,0-4.685-1.367-4.685-4.953v-8.003
		c0.22-0.073,0.512-0.122,0.781-0.122c0.342,0,0.61,0.073,0.805,0.122v7.808c0,2.367,0.366,3.928,3.123,3.928
		c2.586,0,3.147-1.513,3.147-3.977v-7.759c0.195-0.073,0.537-0.122,0.805-0.122s0.561,0.049,0.781,0.122V20.582z"/>
	<path fill="#333333" d="M52.292,13.873c-1.416,0.195-2.953,0.708-4.099,1.586v9.955c-0.244,0.073-0.537,0.122-0.805,0.122
		s-0.537-0.049-0.781-0.122V12.701c0.146-0.049,0.366-0.098,0.61-0.098c0.195,0,0.463,0.049,0.659,0.098l0.122,1.562h0.024
		c1.049-0.903,2.879-1.659,4.27-1.805c0.049,0.146,0.097,0.415,0.097,0.634C52.389,13.335,52.34,13.653,52.292,13.873z"/>
	<path fill="#333333" d="M68.88,25.535c-0.22,0-0.488-0.073-0.635-0.122l-0.146-1.464h-0.024c-1.049,1.098-2.293,1.708-3.685,1.708
		c-3.367,0-4.977-2.806-4.977-6.222c0-3.392,1.439-6.978,5.319-6.978c1.22,0,2.342,0.415,3.245,1.049V7.602
		c0.22-0.073,0.512-0.122,0.781-0.122c0.292,0,0.585,0.073,0.805,0.122v17.811C69.392,25.486,69.148,25.535,68.88,25.535z
		 M67.977,14.849c-0.878-0.732-2.001-1.098-3.147-1.098c-2.831,0-3.782,2.781-3.782,5.612c0,2.171,0.683,5.001,3.416,5.001
		c1.318,0,2.66-0.659,3.514-1.683V14.849z"/>
	<path fill="#333333" d="M74.488,10.212c-0.562,0-1.025-0.488-1.025-1.073s0.463-1.049,1.025-1.049c0.561,0,1.049,0.464,1.049,1.049
		S75.049,10.212,74.488,10.212z M75.293,25.413c-0.22,0.073-0.537,0.122-0.805,0.122c-0.269,0-0.562-0.049-0.781-0.122V12.701
		c0.195-0.049,0.512-0.122,0.756-0.122c0.268,0,0.634,0.049,0.83,0.122V25.413z"/>
	<path fill="#333333" d="M87.907,23.291c0,1.83-0.098,4.026-0.976,5.539c-1.049,1.805-2.928,2.586-4.807,2.586
		c-1.073,0-2-0.122-2.781-0.39c-0.073-0.146-0.098-0.391-0.098-0.585c0-0.146,0.049-0.439,0.098-0.586
		c0.756,0.195,1.635,0.342,2.513,0.342c3.074,0,4.465-1.903,4.465-5.246v-1.025c-0.952,1-2.293,1.488-3.392,1.488
		c-3.245,0-4.928-2.513-4.928-6.051c0-4.343,2.562-6.905,6.344-6.905c1,0,2.513,0.292,3.562,0.708V23.291z M86.321,13.946
		c-0.878-0.244-1.513-0.317-2.123-0.317c-3.099,0-4.562,2.611-4.562,5.661c0,2.708,1.024,4.831,3.416,4.831
		c1.22,0,2.464-0.61,3.27-1.464V13.946z"/>
	<path fill="#333333" d="M92.101,10.212c-0.562,0-1.025-0.488-1.025-1.073s0.463-1.049,1.025-1.049c0.561,0,1.049,0.464,1.049,1.049
		S92.662,10.212,92.101,10.212z M92.906,25.413c-0.22,0.073-0.537,0.122-0.805,0.122c-0.269,0-0.562-0.049-0.781-0.122V12.701
		c0.195-0.049,0.512-0.122,0.756-0.122c0.268,0,0.634,0.049,0.83,0.122V25.413z"/>
	<path fill="#333333" d="M103.079,25.291c-0.634,0.22-1.586,0.366-2.293,0.366c-2.416,0-3.562-1.147-3.562-3.855v-7.856h-2.196
		c-0.049-0.122-0.073-0.415-0.073-0.562c0-0.122,0.024-0.415,0.073-0.537l2.196-0.146V9.383c0.195-0.073,0.512-0.122,0.781-0.122
		c0.268,0,0.61,0.049,0.805,0.122v3.318h3.586c0.049,0.122,0.098,0.488,0.098,0.61c0,0.17-0.049,0.463-0.098,0.634h-3.586v7.71
		c0,1.927,0.561,2.732,2.074,2.732c0.83,0,1.635-0.122,2.196-0.292c0.049,0.122,0.098,0.415,0.098,0.585
		C103.176,24.901,103.152,25.071,103.079,25.291z"/>
	<path fill="#333333" d="M113.886,22.29c0,0.878,0,1.976,0.049,3.123c-0.171,0.073-0.439,0.122-0.659,0.122
		c-0.195,0-0.464-0.049-0.659-0.122c-0.073-0.391-0.122-0.903-0.146-1.366h-0.024c-0.83,1.024-2.293,1.61-3.733,1.61
		c-2.269,0-4.172-1.269-4.172-3.879c0-1.488,0.61-2.586,1.562-3.27c1.073-0.756,2.489-1,4.001-1c0.854,0,1.562,0.049,2.196,0.146
		v-0.708c0-2.44-1-3.245-3.05-3.245c-1.147,0-2.562,0.244-3.44,0.463c-0.049-0.122-0.098-0.39-0.098-0.634
		c0-0.171,0.049-0.415,0.122-0.561c1.049-0.317,2.44-0.512,3.611-0.512c2.904,0,4.441,1.317,4.441,4.294V22.29z M112.3,18.85
		c-0.708-0.097-1.439-0.146-2.074-0.146c-1.195,0-2.269,0.219-3.001,0.781c-0.659,0.488-1.024,1.269-1.024,2.269
		c0,1.781,1.146,2.635,2.732,2.635c1.317,0,2.708-0.634,3.367-1.635V18.85z"/>
	<path fill="#333333" d="M118.885,25.413c-0.269,0.073-0.537,0.122-0.83,0.122c-0.244,0-0.537-0.049-0.756-0.122V7.602
		c0.22-0.049,0.488-0.122,0.805-0.122c0.268,0,0.561,0.049,0.781,0.122V25.413z"/>
	<path fill="#333333" d="M136.303,22.29c0,0.878,0,1.976,0.049,3.123c-0.171,0.073-0.439,0.122-0.659,0.122
		c-0.195,0-0.464-0.049-0.659-0.122c-0.073-0.391-0.122-0.903-0.146-1.366h-0.024c-0.83,1.024-2.293,1.61-3.733,1.61
		c-2.269,0-4.172-1.269-4.172-3.879c0-1.488,0.61-2.586,1.562-3.27c1.073-0.756,2.489-1,4.001-1c0.854,0,1.562,0.049,2.196,0.146
		v-0.708c0-2.44-1-3.245-3.05-3.245c-1.147,0-2.562,0.244-3.44,0.463c-0.049-0.122-0.098-0.39-0.098-0.634
		c0-0.171,0.049-0.415,0.122-0.561c1.049-0.317,2.44-0.512,3.611-0.512c2.904,0,4.441,1.317,4.441,4.294V22.29z M134.717,18.85
		c-0.708-0.097-1.439-0.146-2.074-0.146c-1.195,0-2.269,0.219-3.001,0.781c-0.659,0.488-1.024,1.269-1.024,2.269
		c0,1.781,1.146,2.635,2.732,2.635c1.317,0,2.708-0.634,3.367-1.635V18.85z"/>
	<path fill="#333333" d="M149.426,25.438c-0.195,0.049-0.488,0.098-0.781,0.098c-0.244,0-0.561-0.049-0.805-0.122v-7.734
		c0-1.171-0.146-2.074-0.488-2.708c-0.415-0.781-1.195-1.171-2.464-1.171c-1.22,0-2.684,0.683-3.635,1.415v10.199
		c-0.269,0.073-0.537,0.122-0.83,0.122c-0.244,0-0.537-0.049-0.756-0.122V12.701c0.171-0.073,0.463-0.098,0.634-0.098
		c0.244,0,0.537,0.024,0.683,0.098l0.122,1.269h0.024c1.342-1.098,2.879-1.513,4.124-1.513c1.244,0,2.537,0.415,3.245,1.269
		c0.781,0.927,0.927,2.269,0.927,3.586V25.438z"/>
	<path fill="#333333" d="M153.547,10.212c-0.561,0-1.024-0.488-1.024-1.073s0.464-1.049,1.024-1.049c0.562,0,1.05,0.464,1.05,1.049
		S154.108,10.212,153.547,10.212z M154.353,25.413c-0.22,0.073-0.537,0.122-0.806,0.122c-0.268,0-0.561-0.049-0.78-0.122V12.701
		c0.195-0.049,0.513-0.122,0.756-0.122c0.269,0,0.635,0.049,0.83,0.122V25.413z"/>
	<path fill="#333333" d="M175.432,25.438c-0.244,0.049-0.488,0.098-0.732,0.098c-0.293,0-0.562-0.073-0.854-0.122v-7.71
		c0-2.684-0.684-3.904-2.952-3.904c-1.172,0-2.733,0.61-3.709,1.317c0.195,0.683,0.244,1.439,0.244,2.196v8.101
		c-0.244,0.073-0.488,0.122-0.732,0.122c-0.317,0-0.609-0.049-0.854-0.122v-7.71c0-2.684-0.61-3.904-2.879-3.904
		c-1.221,0-2.66,0.683-3.611,1.415v10.199c-0.269,0.073-0.586,0.122-0.879,0.122c-0.243,0-0.512-0.049-0.707-0.122V12.701
		c0.122-0.049,0.391-0.098,0.659-0.098c0.219,0,0.487,0.049,0.658,0.098l0.122,1.269h0.024c1.342-1.098,2.879-1.513,4.123-1.513
		c1.245,0,2.44,0.415,3.147,1.269c0.098,0.098,0.171,0.22,0.244,0.342c1.293-1.049,2.952-1.61,4.538-1.61
		c1.244,0,2.514,0.415,3.221,1.269c0.781,0.927,0.928,2.269,0.928,3.586V25.438z"/>
	<path fill="#333333" d="M187.357,22.29c0,0.878,0,1.976,0.049,3.123c-0.171,0.073-0.438,0.122-0.658,0.122
		c-0.195,0-0.464-0.049-0.659-0.122c-0.073-0.391-0.122-0.903-0.146-1.366h-0.024c-0.829,1.024-2.293,1.61-3.732,1.61
		c-2.27,0-4.173-1.269-4.173-3.879c0-1.488,0.61-2.586,1.562-3.27c1.074-0.756,2.489-1,4.002-1c0.854,0,1.562,0.049,2.195,0.146
		v-0.708c0-2.44-1-3.245-3.05-3.245c-1.146,0-2.562,0.244-3.439,0.463c-0.049-0.122-0.098-0.39-0.098-0.634
		c0-0.171,0.049-0.415,0.122-0.561c1.049-0.317,2.439-0.512,3.61-0.512c2.903,0,4.44,1.317,4.44,4.294V22.29z M185.771,18.85
		c-0.707-0.097-1.439-0.146-2.073-0.146c-1.196,0-2.27,0.219-3.001,0.781c-0.659,0.488-1.025,1.269-1.025,2.269
		c0,1.781,1.147,2.635,2.733,2.635c1.317,0,2.708-0.634,3.366-1.635V18.85z"/>
	<path fill="#333333" d="M197.481,25.291c-0.635,0.22-1.586,0.366-2.294,0.366c-2.415,0-3.562-1.147-3.562-3.855v-7.856h-2.195
		c-0.049-0.122-0.073-0.415-0.073-0.562c0-0.122,0.024-0.415,0.073-0.537l2.195-0.146V9.383c0.195-0.073,0.513-0.122,0.781-0.122
		s0.609,0.049,0.805,0.122v3.318h3.587c0.049,0.122,0.098,0.488,0.098,0.61c0,0.17-0.049,0.463-0.098,0.634h-3.587v7.71
		c0,1.927,0.562,2.732,2.074,2.732c0.829,0,1.635-0.122,2.196-0.292c0.049,0.122,0.098,0.415,0.098,0.585
		C197.579,24.901,197.555,25.071,197.481,25.291z"/>
	<path fill="#333333" d="M200.724,10.212c-0.561,0-1.024-0.488-1.024-1.073s0.464-1.049,1.024-1.049c0.562,0,1.05,0.464,1.05,1.049
		S201.285,10.212,200.724,10.212z M201.529,25.413c-0.22,0.073-0.537,0.122-0.806,0.122c-0.268,0-0.561-0.049-0.78-0.122V12.701
		c0.195-0.049,0.513-0.122,0.756-0.122c0.269,0,0.635,0.049,0.83,0.122V25.413z"/>
	<path fill="#333333" d="M209.482,25.657c-3.196,0-5.246-2.196-5.246-6.588s2.074-6.612,5.271-6.612s5.222,2.171,5.222,6.563
		C214.729,23.413,212.679,25.657,209.482,25.657z M209.507,13.653c-2.342,0-3.611,1.806-3.611,5.392
		c0,3.587,1.245,5.417,3.587,5.417c2.343,0,3.587-1.83,3.587-5.417C213.069,15.458,211.85,13.653,209.507,13.653z"/>
	<path fill="#333333" d="M227.096,25.438c-0.195,0.049-0.488,0.098-0.781,0.098c-0.244,0-0.561-0.049-0.805-0.122v-7.734
		c0-1.171-0.146-2.074-0.488-2.708c-0.415-0.781-1.195-1.171-2.464-1.171c-1.221,0-2.685,0.683-3.636,1.415v10.199
		c-0.269,0.073-0.537,0.122-0.83,0.122c-0.243,0-0.536-0.049-0.756-0.122V12.701c0.171-0.073,0.464-0.098,0.635-0.098
		c0.243,0,0.536,0.024,0.683,0.098l0.122,1.269h0.024c1.342-1.098,2.879-1.513,4.123-1.513c1.245,0,2.538,0.415,3.245,1.269
		c0.781,0.927,0.928,2.269,0.928,3.586V25.438z"/>
</g>
<g>
	<path fill="#333333" d="M26.728,40.855c-0.781-0.317-1.806-0.512-2.708-0.512c-3.172,0-4.343,2.464-4.343,5.441
		c0,2.928,1.122,5.197,4.318,5.197c0.854,0,1.879-0.146,2.635-0.366c0.049,0.146,0.098,0.317,0.098,0.512
		c0,0.293-0.049,0.512-0.122,0.683c-0.708,0.293-1.854,0.464-2.757,0.464c-3.977,0-5.831-2.611-5.831-6.441
		c0-3.977,2.025-6.758,5.904-6.758c0.927,0,2.025,0.219,2.782,0.561c0.073,0.195,0.098,0.39,0.098,0.61
		C26.801,40.49,26.776,40.685,26.728,40.855z"/>
	<path fill="#333333" d="M33.874,52.274c-3.196,0-5.246-2.196-5.246-6.588s2.074-6.612,5.27-6.612s5.221,2.171,5.221,6.563
		C39.12,50.03,37.07,52.274,33.874,52.274z M33.898,40.27c-2.342,0-3.611,1.806-3.611,5.392c0,3.587,1.244,5.417,3.586,5.417
		s3.586-1.83,3.586-5.417C37.46,42.076,36.241,40.27,33.898,40.27z"/>
	<path fill="#333333" d="M51.097,47.199c0,3.708-1.537,5.075-4.758,5.075c-3.294,0-4.685-1.367-4.685-4.953v-8.003
		c0.22-0.073,0.512-0.122,0.781-0.122c0.342,0,0.61,0.073,0.805,0.122v7.808c0,2.367,0.366,3.928,3.123,3.928
		c2.586,0,3.147-1.513,3.147-3.977v-7.759c0.195-0.073,0.537-0.122,0.805-0.122s0.561,0.049,0.781,0.122V47.199z"/>
	<path fill="#333333" d="M60.024,40.49c-1.416,0.195-2.953,0.708-4.099,1.586v9.955c-0.244,0.073-0.537,0.122-0.805,0.122
		s-0.537-0.049-0.781-0.122V39.318c0.146-0.049,0.366-0.098,0.61-0.098c0.195,0,0.464,0.049,0.659,0.098l0.122,1.562h0.024
		c1.049-0.903,2.879-1.659,4.27-1.805c0.049,0.146,0.097,0.415,0.097,0.634C60.122,39.953,60.073,40.27,60.024,40.49z"/>
	<path fill="#333333" d="M65.317,52.274c-1.22,0-2.489-0.22-3.367-0.562c-0.073-0.17-0.122-0.463-0.122-0.683
		c0-0.146,0.049-0.512,0.098-0.659c0.902,0.366,2.196,0.659,3.269,0.659c1.854,0,3.001-0.781,3.001-2.318
		c0-1.391-0.708-1.878-2.635-2.586c-2.684-0.976-3.562-2.099-3.562-3.758c0-2.245,1.854-3.293,4.245-3.293
		c0.805,0,1.854,0.146,2.464,0.341c0.073,0.22,0.098,0.439,0.098,0.585c0,0.195-0.049,0.537-0.098,0.708
		c-0.805-0.244-1.659-0.39-2.489-0.39c-1.732,0-2.781,0.659-2.781,2c0,1.171,0.659,1.732,2.659,2.489
		c1.83,0.683,3.514,1.367,3.514,3.831C69.611,51.127,67.732,52.274,65.317,52.274z"/>
	<path fill="#333333" d="M81.272,46.102h-8.173c0.098,2.806,1.415,4.928,4.465,4.928c1.098,0,2.123-0.146,3.025-0.366
		c0.049,0.122,0.098,0.366,0.098,0.512c0,0.244-0.049,0.463-0.122,0.634c-0.952,0.293-2.147,0.464-3.147,0.464
		c-1.927,0-3.391-0.61-4.294-1.586c-1.074-1.171-1.635-2.928-1.635-4.953c0-3.538,1.781-6.661,5.343-6.661
		c3.196,0,4.465,2.635,4.465,5.855C81.296,45.296,81.296,45.735,81.272,46.102z M79.71,44.93c0-2.245-0.244-4.66-2.952-4.66
		c-2.367,0-3.513,2.171-3.66,4.66H79.71z"/>
	<path fill="#333333" d="M90.198,36.83c-0.562,0-1.025-0.488-1.025-1.073s0.463-1.049,1.025-1.049c0.561,0,1.049,0.464,1.049,1.049
		S90.759,36.83,90.198,36.83z M91.003,52.03c-0.22,0.073-0.537,0.122-0.805,0.122c-0.269,0-0.562-0.049-0.781-0.122V39.318
		c0.195-0.049,0.512-0.122,0.756-0.122c0.268,0,0.634,0.049,0.83,0.122V52.03z"/>
	<path fill="#333333" d="M97.248,52.274c-1.22,0-2.489-0.22-3.367-0.562c-0.073-0.17-0.122-0.463-0.122-0.683
		c0-0.146,0.049-0.512,0.098-0.659c0.902,0.366,2.196,0.659,3.269,0.659c1.854,0,3.001-0.781,3.001-2.318
		c0-1.391-0.708-1.878-2.635-2.586c-2.684-0.976-3.562-2.099-3.562-3.758c0-2.245,1.854-3.293,4.246-3.293
		c0.805,0,1.854,0.146,2.464,0.341c0.073,0.22,0.098,0.439,0.098,0.585c0,0.195-0.049,0.537-0.098,0.708
		c-0.805-0.244-1.659-0.39-2.489-0.39c-1.732,0-2.781,0.659-2.781,2c0,1.171,0.659,1.732,2.659,2.489
		c1.83,0.683,3.514,1.367,3.514,3.831C101.542,51.127,99.664,52.274,97.248,52.274z"/>
	<path fill="#333333" d="M116.251,51.908c-0.634,0.22-1.586,0.366-2.293,0.366c-2.416,0-3.562-1.147-3.562-3.855v-7.856H108.2
		c-0.049-0.122-0.073-0.415-0.073-0.562c0-0.122,0.024-0.415,0.073-0.537l2.196-0.146V36c0.195-0.073,0.512-0.122,0.781-0.122
		c0.268,0,0.61,0.049,0.805,0.122v3.318h3.586c0.049,0.122,0.098,0.488,0.098,0.61c0,0.17-0.049,0.463-0.098,0.634h-3.586v7.71
		c0,1.927,0.561,2.732,2.074,2.732c0.83,0,1.635-0.122,2.196-0.292c0.049,0.122,0.098,0.415,0.098,0.585
		C116.349,51.518,116.324,51.688,116.251,51.908z"/>
	<path fill="#333333" d="M128.375,52.03c-0.219,0.073-0.488,0.122-0.732,0.122c-0.292,0-0.61-0.049-0.854-0.122v-7.71
		c0-2.684-0.683-3.904-2.952-3.904c-1.22,0-2.684,0.683-3.635,1.415V52.03c-0.269,0.073-0.561,0.122-0.83,0.122
		c-0.244,0-0.537-0.049-0.756-0.122V34.219c0.22-0.073,0.561-0.122,0.781-0.122s0.585,0.049,0.805,0.122v6.271
		c1.293-1,2.83-1.415,4.026-1.415c1.244,0,2.513,0.415,3.221,1.269c0.781,0.927,0.927,2.269,0.927,3.586V52.03z"/>
	<path fill="#333333" d="M140.694,46.102h-8.173c0.098,2.806,1.415,4.928,4.465,4.928c1.098,0,2.123-0.146,3.025-0.366
		c0.049,0.122,0.098,0.366,0.098,0.512c0,0.244-0.049,0.463-0.122,0.634c-0.952,0.293-2.147,0.464-3.147,0.464
		c-1.927,0-3.391-0.61-4.294-1.586c-1.074-1.171-1.635-2.928-1.635-4.953c0-3.538,1.781-6.661,5.343-6.661
		c3.196,0,4.465,2.635,4.465,5.855C140.718,45.296,140.718,45.735,140.694,46.102z M139.132,44.93c0-2.245-0.244-4.66-2.952-4.66
		c-2.367,0-3.513,2.171-3.66,4.66H139.132z"/>
</g>
<g>
	<path fill="#66A71E" d="M121.867,238.829c0,35.224-13.516,54.679-52.835,54.679c-39.729,0-52.221-19.455-52.221-54.679v-85.806
		c4.096-0.614,9.42-1.024,14.335-1.024c5.734,0,10.854,0.41,14.949,1.024v87.854c0,18.841,5.325,29.49,23.141,29.49
		c17.817,0,23.96-10.649,23.96-29.49v-87.854c3.686-0.614,9.83-1.024,14.54-1.024c4.505,0,10.649,0.41,14.13,1.024V238.829z"/>
	<path fill="#66A71E" d="M252.519,291.46c-3.687,0.614-10.239,1.024-17.407,1.024c-5.119,0-12.492-0.41-16.792-1.024l-35.838-55.498
		l-9.421,11.264v44.234c-3.891,0.614-8.601,1.024-14.744,1.024c-5.529,0-10.649-0.41-14.541-1.024V153.023
		c3.891-0.614,9.625-1.024,14.745-1.024c5.734,0,10.854,0.41,14.54,1.024v59.593l23.756-27.851
		c10.444-12.288,16.178-21.094,18.431-31.742c4.096-0.614,9.83-1.024,14.335-1.024c3.687,0,10.035,0.41,14.336,1.024
		c-3.072,16.178-11.674,30.309-23.961,44.438l-16.383,18.841L252.519,291.46z"/>
</g>
<g>
	<path fill="#66A71E" d="M37.532,70.228H24.556v7.122h10.927c0.195,0.537,0.341,1.512,0.341,2.878c0,1.073-0.098,1.951-0.341,2.976
		H24.556v14.049c-0.927,0.146-2,0.244-3.464,0.244c-1.317,0-2.585-0.098-3.512-0.244V64.276h19.952
		c0.195,0.537,0.341,1.561,0.341,2.927C37.873,68.276,37.775,69.203,37.532,70.228z"/>
	<path fill="#66A71E" d="M48.266,97.253c-0.927,0.146-2.049,0.244-3.512,0.244c-1.317,0-2.537-0.098-3.463-0.244V64.276
		c0.927-0.146,2.292-0.244,3.512-0.244c1.366,0,2.585,0.098,3.463,0.244V97.253z"/>
	<path fill="#66A71E" d="M77.536,97.204c-1.268,0.195-2.585,0.293-4.098,0.293c-1.366,0-2.732-0.049-3.659-0.244l-6.683-11.854
		h-2.878v11.854c-1.22,0.195-2.244,0.244-3.562,0.244c-1.17,0-2.195-0.049-3.415-0.244V64.276c2.244-0.146,6.927-0.244,9.756-0.244
		c8.293,0,12.439,2.927,12.439,10.537c0,4.049-2.439,8.098-5.854,9.561L77.536,97.204z M63.438,69.74
		c-1.073,0-2.39,0.049-3.219,0.098v9.756h2.439c4,0,5.756-1.463,5.756-5.073S66.658,69.74,63.438,69.74z"/>
	<path fill="#66A71E" d="M89.052,97.741c-3.561,0-7.464-0.683-10.245-1.951c-0.146-0.683-0.244-1.561-0.244-2.342
		c0-1.17,0.146-2.292,0.488-3.61c2.878,1.171,6.683,1.903,9.659,1.903c3.464,0,5.317-1.61,5.317-3.805
		c0-2.439-1.561-3.463-6.293-4.927c-5.269-1.61-9.122-4.146-9.122-9.805c0-6.049,5.22-9.415,12.098-9.415
		c3.17,0,6,0.488,7.902,1.122c0.146,0.537,0.244,1.415,0.244,2.683c0,0.927-0.098,2.341-0.293,3.122
		c-2.439-0.634-5.22-0.976-7.463-0.976c-3.659,0-5.659,1.22-5.659,3.171c0,2.292,1.805,3.22,6.195,4.585
		c5.269,1.659,9.171,4.146,9.171,10C100.809,93.887,95.784,97.741,89.052,97.741z"/>
	<path fill="#66A71E" d="M124.617,70.228h-8.732v27.025c-0.927,0.146-2.244,0.244-3.464,0.244c-1.219,0-2.537-0.098-3.512-0.244
		V70.228h-8.732c-0.195-0.634-0.342-2.146-0.342-2.976c0-0.83,0.195-2.342,0.391-2.976h24.391c0.195,0.634,0.341,2.146,0.341,2.976
		C124.958,68.081,124.812,69.593,124.617,70.228z"/>
	<path fill="#66A71E" d="M145.4,97.741c-9.024,0-13.805-6.244-13.805-16.976c0-10.732,4.781-16.977,13.805-16.977
		c9.025,0,13.806,6.244,13.806,16.977C159.206,91.497,154.426,97.741,145.4,97.741z M145.4,69.789c-4.195,0-6.585,3.22-6.585,10.976
		s2.39,10.976,6.585,10.976s6.586-3.22,6.586-10.976S149.596,69.789,145.4,69.789z"/>
	<path fill="#66A71E" d="M182.575,70.228H169.6v7.122h10.927c0.195,0.537,0.342,1.512,0.342,2.878c0,1.073-0.098,1.951-0.342,2.976
		H169.6v14.049c-0.927,0.146-2,0.244-3.464,0.244c-1.317,0-2.585-0.098-3.513-0.244V64.276h19.952
		c0.195,0.537,0.342,1.561,0.342,2.927C182.917,68.276,182.819,69.203,182.575,70.228z"/>
	<path fill="#66A71E" d="M201.896,97.253c-0.927,0.146-2.049,0.244-3.513,0.244c-1.317,0-2.536-0.098-3.464-0.244V64.276
		c0.928-0.146,2.293-0.244,3.513-0.244c1.366,0,2.586,0.098,3.464,0.244V97.253z"/>
	<path fill="#66A71E" d="M228.824,70.228h-8.731v27.025c-0.927,0.146-2.244,0.244-3.464,0.244s-2.536-0.098-3.512-0.244V70.228
		h-8.732c-0.195-0.634-0.342-2.146-0.342-2.976c0-0.83,0.195-2.342,0.391-2.976h24.391c0.195,0.634,0.342,2.146,0.342,2.976
		C229.166,68.081,229.02,69.593,228.824,70.228z"/>
	<path fill="#66A71E" d="M239.56,97.741c-3.562,0-7.464-0.683-10.244-1.951c-0.146-0.683-0.244-1.561-0.244-2.342
		c0-1.17,0.146-2.292,0.487-3.61c2.879,1.171,6.684,1.903,9.659,1.903c3.464,0,5.317-1.61,5.317-3.805
		c0-2.439-1.561-3.463-6.293-4.927c-5.269-1.61-9.122-4.146-9.122-9.805c0-6.049,5.22-9.415,12.098-9.415
		c3.171,0,6.001,0.488,7.903,1.122c0.146,0.537,0.243,1.415,0.243,2.683c0,0.927-0.097,2.341-0.292,3.122
		c-2.439-0.634-5.22-0.976-7.464-0.976c-3.659,0-5.659,1.22-5.659,3.171c0,2.292,1.806,3.22,6.195,4.585
		c5.269,1.659,9.172,4.146,9.172,10C251.316,93.887,246.291,97.741,239.56,97.741z"/>
</g>
<g>
	<path fill="#66A71E" d="M43.483,141.601c-0.878,0.146-2.439,0.244-4.146,0.244c-1.219,0-2.976-0.098-4-0.244l-8.537-13.22
		l-2.244,2.683v10.537c-0.927,0.146-2.049,0.244-3.513,0.244c-1.317,0-2.537-0.098-3.463-0.244v-32.977
		c0.927-0.146,2.293-0.244,3.512-0.244c1.366,0,2.585,0.098,3.464,0.244v14.196l5.659-6.634c2.488-2.927,3.854-5.025,4.39-7.562
		c0.976-0.146,2.342-0.244,3.415-0.244c0.878,0,2.39,0.098,3.415,0.244c-0.731,3.854-2.781,7.22-5.708,10.586l-3.902,4.488
		L43.483,141.601z"/>
	<path fill="#66A71E" d="M50.706,141.601c-0.927,0.146-2.049,0.244-3.512,0.244c-1.317,0-2.537-0.098-3.463-0.244v-32.977
		c0.927-0.146,2.292-0.244,3.512-0.244c1.366,0,2.585,0.098,3.463,0.244V141.601z"/>
	<path fill="#66A71E" d="M80.708,141.601c-0.488,0.098-1.659,0.195-2.488,0.195s-1.659-0.049-2.439-0.195l-15.171-21.123v21.123
		c-0.39,0.098-1.854,0.244-3.22,0.244c-1.122,0-2.439-0.146-3.122-0.244v-32.977c0.78-0.146,1.708-0.195,2.585-0.195
		c0.927,0,1.902,0.098,2.634,0.195l14.878,20.733v-20.733c0.976-0.146,2.244-0.244,3.171-0.244s2.293,0.098,3.171,0.244V141.601z"/>
	<path fill="#66A71E" d="M105.394,138.674c-3.024,2.341-6.927,3.171-12.293,3.171c-2.732,0-7.366-0.098-8.927-0.244v-32.977
		c2.39-0.146,7.366-0.244,10.146-0.244c10.732,0,16.245,4.537,16.245,16.342C110.565,130.82,108.955,135.893,105.394,138.674z
		 M94.467,114.136c-1.317,0-2.78,0.049-3.317,0.098v21.708c0.634,0.049,2.098,0.098,3.61,0.098c6.146,0,8.585-3.903,8.585-11.415
		C103.345,116.38,100.809,114.136,94.467,114.136z"/>
	<path fill="#66A71E" d="M126.715,141.601c-0.927,0.146-2.049,0.244-3.512,0.244c-1.317,0-2.537-0.098-3.463-0.244v-32.977
		c0.927-0.146,2.292-0.244,3.512-0.244c1.366,0,2.585,0.098,3.463,0.244V141.601z"/>
	<path fill="#66A71E" d="M156.718,141.601c-0.488,0.098-1.659,0.195-2.488,0.195s-1.658-0.049-2.439-0.195l-15.171-21.123v21.123
		c-0.39,0.098-1.854,0.244-3.22,0.244c-1.122,0-2.439-0.146-3.122-0.244v-32.977c0.78-0.146,1.708-0.195,2.585-0.195
		c0.927,0,1.902,0.098,2.634,0.195l14.878,20.733v-20.733c0.976-0.146,2.245-0.244,3.171-0.244s2.292,0.098,3.171,0.244V141.601z"/>
	<path fill="#66A71E" d="M186.77,114.575h-8.731v27.025c-0.927,0.146-2.244,0.244-3.464,0.244s-2.536-0.098-3.512-0.244v-27.025
		h-8.732c-0.195-0.634-0.342-2.146-0.342-2.976c0-0.83,0.195-2.342,0.391-2.976h24.391c0.195,0.634,0.342,2.146,0.342,2.976
		C187.111,112.429,186.965,113.941,186.77,114.575z"/>
	<path fill="#66A71E" d="M213.065,141.601c-0.878,0.146-2.098,0.244-3.464,0.244c-1.365,0-2.585-0.098-3.512-0.244v-13.659h-11.464
		v13.659c-0.927,0.146-2,0.244-3.464,0.244c-1.317,0-2.585-0.098-3.513-0.244v-32.977c0.928-0.146,2.293-0.244,3.513-0.244
		c1.366,0,2.586,0.098,3.464,0.244v13.367h11.464v-13.367c1.073-0.146,2.293-0.244,3.512-0.244c1.171,0,2.635,0.098,3.464,0.244
		V141.601z"/>
	<path fill="#66A71E" d="M237.167,141.601h-20.636v-32.977h20.196c0.195,0.537,0.342,1.561,0.342,2.927c0,1.073-0.098,2-0.342,3.024
		h-13.22v7.122h11.171c0.195,0.537,0.342,1.512,0.342,2.878c0,1.073-0.098,1.951-0.342,2.976h-11.171v8.098h13.659
		c0.194,0.537,0.341,1.561,0.341,2.927C237.508,139.649,237.41,140.576,237.167,141.601z"/>
</g>
</svg>
