<?xml version="1.0" encoding="utf-8"?>
<!-- Generator: Adobe Illustrator 16.0.0, SVG Export Plug-In . SVG Version: 6.00 Build 0)  -->
<!DOCTYPE svg PUBLIC "-//W3C//DTD SVG 1.1//EN" "http://www.w3.org/Graphics/SVG/1.1/DTD/svg11.dtd">
<svg version="1.1" id="Layer_1" xmlns="http://www.w3.org/2000/svg" xmlns:xlink="http://www.w3.org/1999/xlink" x="0px" y="0px"
	 width="300px" height="300px" viewBox="0 0 300 300" enable-background="new 0 0 300 300" xml:space="preserve">
<g>
	<path fill="#333333" d="M15.184,107.174c-3.983,0-6.07-2.988-6.07-8.252s2.087-8.252,6.07-8.252c3.984,0,6.07,2.988,6.07,8.252
		S19.168,107.174,15.184,107.174z M15.184,91.88c-2.869,0-4.363,2.3-4.363,7.042c0,4.742,1.494,7.042,4.363,7.042
		s4.363-2.3,4.363-7.042C19.547,94.18,18.053,91.88,15.184,91.88z"/>
	<path fill="#333333" d="M33.418,106.961c-0.189,0.047-0.474,0.095-0.759,0.095c-0.237,0-0.545-0.047-0.782-0.119V99.42
		c0-1.138-0.143-2.016-0.475-2.632C31,96.029,30.241,95.65,29.008,95.65c-1.186,0-2.608,0.664-3.533,1.375v9.912
		c-0.261,0.071-0.522,0.119-0.806,0.119c-0.237,0-0.522-0.047-0.735-0.119V94.583c0.166-0.071,0.451-0.095,0.617-0.095
		c0.237,0,0.521,0.023,0.664,0.095l0.118,1.233h0.024c1.304-1.067,2.798-1.47,4.007-1.47s2.466,0.403,3.154,1.233
		c0.759,0.901,0.901,2.205,0.901,3.485V106.961z"/>
	<path fill="#333333" d="M45.108,101.175h-7.943c0.095,2.727,1.375,4.79,4.339,4.79c1.067,0,2.063-0.142,2.94-0.355
		c0.047,0.118,0.095,0.355,0.095,0.498c0,0.237-0.047,0.451-0.119,0.617c-0.925,0.285-2.086,0.451-3.059,0.451
		c-1.874,0-3.296-0.593-4.173-1.542c-1.043-1.138-1.589-2.845-1.589-4.813c0-3.438,1.731-6.474,5.193-6.474
		c3.106,0,4.339,2.561,4.339,5.691C45.132,100.393,45.132,100.819,45.108,101.175z M43.591,100.037c0-2.181-0.237-4.529-2.869-4.529
		c-2.3,0-3.415,2.11-3.557,4.529H43.591z"/>
	<path fill="#333333" d="M56.774,107.174c-3.106,0-5.098-2.134-5.098-6.402s2.016-6.426,5.122-6.426c3.106,0,5.075,2.11,5.075,6.379
		C61.873,104.993,59.881,107.174,56.774,107.174z M56.798,95.508c-2.276,0-3.509,1.755-3.509,5.24c0,3.486,1.209,5.264,3.486,5.264
		s3.486-1.778,3.486-5.264C60.26,97.263,59.074,95.508,56.798,95.508z"/>
	<path fill="#333333" d="M71.097,90.647c-0.355-0.095-0.996-0.19-1.494-0.19c-0.901,0-1.565,0.237-2.016,0.735
		c-0.688,0.735-0.806,1.731-0.806,2.987v0.403h3.343c0.047,0.119,0.095,0.403,0.095,0.569c0,0.19-0.047,0.475-0.095,0.641h-3.343
		v11.145c-0.213,0.071-0.451,0.119-0.759,0.119c-0.309,0-0.569-0.047-0.783-0.119V95.792h-2.134
		c-0.047-0.119-0.071-0.427-0.071-0.569c0-0.119,0.024-0.379,0.071-0.498l2.134-0.142V94.18c0-1.684,0.285-2.845,1.257-3.817
		c0.688-0.688,1.708-1.02,2.869-1.02c0.617,0,1.304,0.142,1.731,0.308c0.047,0.119,0.071,0.285,0.071,0.451
		C71.168,90.244,71.144,90.528,71.097,90.647z"/>
	<path fill="#333333" d="M86.367,101.175h-7.944c0.095,2.727,1.375,4.79,4.339,4.79c1.067,0,2.063-0.142,2.94-0.355
		c0.047,0.118,0.095,0.355,0.095,0.498c0,0.237-0.047,0.451-0.119,0.617c-0.925,0.285-2.086,0.451-3.059,0.451
		c-1.874,0-3.296-0.593-4.173-1.542c-1.043-1.138-1.589-2.845-1.589-4.813c0-3.438,1.731-6.474,5.193-6.474
		c3.106,0,4.339,2.561,4.339,5.691C86.391,100.393,86.391,100.819,86.367,101.175z M84.85,100.037c0-2.181-0.237-4.529-2.87-4.529
		c-2.3,0-3.415,2.11-3.557,4.529H84.85z"/>
	<path fill="#333333" d="M89.544,92.165c-0.545,0-0.996-0.475-0.996-1.043c0-0.569,0.451-1.02,0.996-1.02
		c0.545,0,1.02,0.45,1.02,1.02C90.564,91.69,90.089,92.165,89.544,92.165z M90.327,106.937c-0.213,0.071-0.521,0.119-0.783,0.119
		c-0.261,0-0.545-0.047-0.759-0.119V94.583c0.19-0.047,0.498-0.119,0.735-0.119c0.261,0,0.617,0.047,0.806,0.119V106.937z"/>
	<path fill="#333333" d="M102.277,104.874c0,1.778-0.095,3.913-0.948,5.383c-1.02,1.754-2.846,2.513-4.671,2.513
		c-1.043,0-1.944-0.118-2.703-0.379c-0.071-0.142-0.095-0.379-0.095-0.569c0-0.142,0.047-0.427,0.095-0.569
		c0.735,0.19,1.589,0.332,2.442,0.332c2.988,0,4.339-1.85,4.339-5.098v-0.996c-0.925,0.972-2.229,1.446-3.296,1.446
		c-3.154,0-4.79-2.442-4.79-5.88c0-4.221,2.49-6.711,6.165-6.711c0.972,0,2.442,0.285,3.462,0.688V104.874z M100.736,95.792
		c-0.854-0.237-1.47-0.309-2.063-0.309c-3.012,0-4.434,2.538-4.434,5.501c0,2.632,0.996,4.695,3.319,4.695
		c1.186,0,2.395-0.593,3.178-1.423V95.792z"/>
	<path fill="#333333" d="M114.703,106.937c-0.213,0.071-0.474,0.119-0.711,0.119c-0.284,0-0.593-0.047-0.83-0.119v-7.493
		c0-2.608-0.664-3.794-2.869-3.794c-1.186,0-2.608,0.664-3.533,1.375v9.912c-0.261,0.071-0.545,0.119-0.806,0.119
		c-0.237,0-0.522-0.047-0.735-0.119v-17.31c0.213-0.071,0.545-0.118,0.759-0.118s0.569,0.047,0.783,0.118v6.094
		c1.257-0.972,2.75-1.375,3.913-1.375c1.209,0,2.442,0.403,3.13,1.233c0.759,0.901,0.901,2.205,0.901,3.485V106.937z"/>
	<path fill="#333333" d="M124.14,106.818c-0.617,0.213-1.541,0.356-2.229,0.356c-2.347,0-3.462-1.115-3.462-3.747v-7.635h-2.134
		c-0.047-0.119-0.071-0.403-0.071-0.545c0-0.119,0.023-0.403,0.071-0.522l2.134-0.142v-3.225c0.19-0.071,0.498-0.118,0.759-0.118
		s0.593,0.047,0.783,0.118v3.225h3.485c0.047,0.119,0.095,0.474,0.095,0.593c0,0.166-0.048,0.451-0.095,0.617h-3.485v7.493
		c0,1.874,0.545,2.656,2.015,2.656c0.807,0,1.589-0.118,2.134-0.284c0.047,0.118,0.095,0.403,0.095,0.569
		C124.234,106.439,124.211,106.605,124.14,106.818z"/>
	<path fill="#333333" d="M133.008,101.459c0,1.565,0.261,2.75,0.948,3.509c0.593,0.641,1.494,1.02,2.846,1.02
		s2.276-0.379,2.869-1.02c0.688-0.759,0.948-1.944,0.948-3.509V90.908c0.213-0.071,0.593-0.119,0.807-0.119
		c0.237,0,0.593,0.047,0.806,0.119v10.314c0,2.111-0.403,3.581-1.399,4.577c-0.877,0.877-2.205,1.375-4.031,1.375
		c-1.826,0-3.13-0.498-4.007-1.375c-0.996-0.996-1.399-2.466-1.399-4.577V90.908c0.189-0.071,0.521-0.119,0.806-0.119
		c0.284,0,0.569,0.047,0.806,0.119V101.459z"/>
	<path fill="#333333" d="M156.364,106.937c-0.19,0.071-0.569,0.119-0.854,0.119c-0.285,0-0.617-0.024-1.021-0.119l-5.287-7.873
		l-1.708,1.921v5.952c-0.189,0.071-0.569,0.119-0.83,0.119c-0.261,0-0.593-0.047-0.782-0.119V90.908
		c0.189-0.071,0.521-0.119,0.782-0.119c0.261,0,0.641,0.047,0.83,0.119v8.038l5.05-5.786c0.712-0.806,1.091-1.589,1.21-2.252
		c0.213-0.024,0.521-0.071,0.759-0.071s0.616,0.047,0.782,0.071c-0.047,0.759-0.521,1.778-1.494,2.893l-3.557,4.103L156.364,106.937
		z"/>
	<path fill="#333333" d="M172.014,102.242c0,3.604-1.494,4.932-4.624,4.932c-3.201,0-4.553-1.328-4.553-4.814v-7.777
		c0.214-0.071,0.498-0.119,0.759-0.119c0.332,0,0.593,0.071,0.783,0.119v7.588c0,2.3,0.355,3.817,3.035,3.817
		c2.513,0,3.059-1.47,3.059-3.865v-7.541c0.189-0.071,0.521-0.119,0.782-0.119s0.546,0.047,0.759,0.119V102.242z"/>
	<path fill="#333333" d="M184.344,106.961c-0.19,0.047-0.475,0.095-0.759,0.095c-0.237,0-0.546-0.047-0.783-0.119V99.42
		c0-1.138-0.142-2.016-0.474-2.632c-0.403-0.759-1.162-1.138-2.396-1.138c-1.186,0-2.608,0.664-3.533,1.375v9.912
		c-0.261,0.071-0.521,0.119-0.806,0.119c-0.237,0-0.521-0.047-0.735-0.119V94.583c0.166-0.071,0.45-0.095,0.616-0.095
		c0.237,0,0.522,0.023,0.664,0.095l0.119,1.233h0.023c1.304-1.067,2.798-1.47,4.008-1.47c1.209,0,2.466,0.403,3.153,1.233
		c0.759,0.901,0.901,2.205,0.901,3.485V106.961z"/>
	<path fill="#333333" d="M188.066,92.165c-0.545,0-0.996-0.475-0.996-1.043c0-0.569,0.451-1.02,0.996-1.02
		c0.546,0,1.02,0.45,1.02,1.02C189.086,91.69,188.612,92.165,188.066,92.165z M188.85,106.937c-0.214,0.071-0.522,0.119-0.783,0.119
		s-0.545-0.047-0.759-0.119V94.583c0.19-0.047,0.498-0.119,0.735-0.119c0.261,0,0.616,0.047,0.807,0.119V106.937z"/>
	<path fill="#333333" d="M200.254,97.594l-3.723,9.343c-0.213,0.071-0.45,0.119-0.64,0.119c-0.261,0-0.475-0.047-0.664-0.119
		l-3.842-9.343c-0.427-1.067-0.616-2.134-0.616-3.011c0.189-0.047,0.521-0.119,0.735-0.119c0.284,0,0.568,0.047,0.806,0.119
		c0.023,0.806,0.119,1.731,0.475,2.584l3.082,7.825h0.048l2.987-7.825c0.332-0.83,0.498-1.754,0.498-2.584
		c0.166-0.071,0.521-0.119,0.83-0.119c0.166,0,0.475,0.024,0.688,0.095C200.895,95.413,200.729,96.433,200.254,97.594z"/>
	<path fill="#333333" d="M211.446,101.175h-7.943c0.095,2.727,1.375,4.79,4.339,4.79c1.067,0,2.062-0.142,2.94-0.355
		c0.047,0.118,0.095,0.355,0.095,0.498c0,0.237-0.048,0.451-0.118,0.617c-0.925,0.285-2.087,0.451-3.06,0.451
		c-1.873,0-3.296-0.593-4.173-1.542c-1.044-1.138-1.589-2.845-1.589-4.813c0-3.438,1.73-6.474,5.193-6.474
		c3.105,0,4.339,2.561,4.339,5.691C211.47,100.393,211.47,100.819,211.446,101.175z M209.929,100.037
		c0-2.181-0.237-4.529-2.869-4.529c-2.301,0-3.415,2.11-3.557,4.529H209.929z"/>
	<path fill="#333333" d="M219.295,95.721c-1.376,0.189-2.869,0.688-3.984,1.542v9.674c-0.236,0.071-0.521,0.119-0.782,0.119
		s-0.521-0.047-0.759-0.119V94.583c0.143-0.047,0.355-0.095,0.593-0.095c0.189,0,0.45,0.047,0.641,0.095l0.118,1.518h0.023
		c1.021-0.877,2.799-1.612,4.15-1.755c0.047,0.143,0.095,0.403,0.095,0.617C219.39,95.2,219.342,95.508,219.295,95.721z"/>
	<path fill="#333333" d="M224.156,107.174c-1.186,0-2.419-0.213-3.272-0.545c-0.071-0.166-0.118-0.451-0.118-0.664
		c0-0.142,0.047-0.498,0.095-0.64c0.877,0.355,2.134,0.64,3.177,0.64c1.803,0,2.917-0.759,2.917-2.253
		c0-1.352-0.688-1.826-2.561-2.513c-2.608-0.949-3.462-2.04-3.462-3.652c0-2.182,1.802-3.201,4.125-3.201
		c0.783,0,1.803,0.143,2.396,0.332c0.071,0.213,0.095,0.427,0.095,0.569c0,0.189-0.048,0.521-0.095,0.688
		c-0.782-0.237-1.612-0.379-2.419-0.379c-1.684,0-2.703,0.64-2.703,1.944c0,1.138,0.641,1.684,2.585,2.418
		c1.778,0.664,3.414,1.328,3.414,3.723C228.329,106.06,226.504,107.174,224.156,107.174z"/>
	<path fill="#333333" d="M231.412,92.165c-0.545,0-0.996-0.475-0.996-1.043c0-0.569,0.451-1.02,0.996-1.02
		c0.546,0,1.02,0.45,1.02,1.02C232.432,91.69,231.958,92.165,231.412,92.165z M232.195,106.937
		c-0.214,0.071-0.522,0.119-0.783,0.119s-0.545-0.047-0.759-0.119V94.583c0.19-0.047,0.498-0.119,0.735-0.119
		c0.261,0,0.616,0.047,0.807,0.119V106.937z"/>
	<path fill="#333333" d="M241.774,106.818c-0.616,0.213-1.541,0.356-2.229,0.356c-2.348,0-3.462-1.115-3.462-3.747v-7.635h-2.135
		c-0.047-0.119-0.071-0.403-0.071-0.545c0-0.119,0.024-0.403,0.071-0.522l2.135-0.142v-3.225c0.189-0.071,0.497-0.118,0.759-0.118
		c0.261,0,0.593,0.047,0.782,0.118v3.225h3.485c0.048,0.119,0.095,0.474,0.095,0.593c0,0.166-0.047,0.451-0.095,0.617h-3.485v7.493
		c0,1.874,0.545,2.656,2.016,2.656c0.806,0,1.589-0.118,2.134-0.284c0.048,0.118,0.095,0.403,0.095,0.569
		C241.869,106.439,241.846,106.605,241.774,106.818z"/>
	<path fill="#333333" d="M244.643,92.165c-0.545,0-0.996-0.475-0.996-1.043c0-0.569,0.451-1.02,0.996-1.02
		c0.546,0,1.02,0.45,1.02,1.02C245.662,91.69,245.188,92.165,244.643,92.165z M245.426,106.937
		c-0.214,0.071-0.522,0.119-0.783,0.119s-0.545-0.047-0.759-0.119V94.583c0.19-0.047,0.498-0.119,0.735-0.119
		c0.261,0,0.616,0.047,0.807,0.119V106.937z"/>
	<path fill="#333333" d="M257.282,101.175h-7.943c0.095,2.727,1.375,4.79,4.339,4.79c1.067,0,2.062-0.142,2.94-0.355
		c0.047,0.118,0.095,0.355,0.095,0.498c0,0.237-0.048,0.451-0.118,0.617c-0.925,0.285-2.087,0.451-3.06,0.451
		c-1.873,0-3.296-0.593-4.173-1.542c-1.044-1.138-1.589-2.845-1.589-4.813c0-3.438,1.73-6.474,5.193-6.474
		c3.105,0,4.339,2.561,4.339,5.691C257.306,100.393,257.306,100.819,257.282,101.175z M255.765,100.037
		c0-2.181-0.237-4.529-2.869-4.529c-2.301,0-3.415,2.11-3.557,4.529H255.765z"/>
	<path fill="#333333" d="M262.333,107.174c-1.186,0-2.419-0.213-3.272-0.545c-0.071-0.166-0.118-0.451-0.118-0.664
		c0-0.142,0.047-0.498,0.095-0.64c0.877,0.355,2.134,0.64,3.177,0.64c1.803,0,2.917-0.759,2.917-2.253
		c0-1.352-0.688-1.826-2.561-2.513c-2.608-0.949-3.463-2.04-3.463-3.652c0-2.182,1.803-3.201,4.126-3.201
		c0.783,0,1.803,0.143,2.396,0.332c0.071,0.213,0.095,0.427,0.095,0.569c0,0.189-0.048,0.521-0.095,0.688
		c-0.782-0.237-1.612-0.379-2.419-0.379c-1.684,0-2.703,0.64-2.703,1.944c0,1.138,0.641,1.684,2.585,2.418
		c1.778,0.664,3.414,1.328,3.414,3.723C266.506,106.06,264.681,107.174,262.333,107.174z"/>
</g>
<g>
	<path fill="#333333" d="M16.37,126.785c-0.355-0.095-0.996-0.19-1.494-0.19c-0.901,0-1.565,0.237-2.016,0.735
		c-0.688,0.735-0.806,1.731-0.806,2.987v0.403h3.343c0.047,0.119,0.095,0.403,0.095,0.569c0,0.19-0.047,0.475-0.095,0.641h-3.343
		v11.145c-0.213,0.071-0.451,0.119-0.759,0.119s-0.569-0.047-0.783-0.119V131.93H8.379c-0.048-0.119-0.071-0.427-0.071-0.569
		c0-0.119,0.023-0.379,0.071-0.498l2.134-0.142v-0.403c0-1.684,0.285-2.845,1.257-3.817c0.688-0.688,1.708-1.02,2.869-1.02
		c0.617,0,1.304,0.142,1.731,0.308c0.047,0.119,0.071,0.285,0.071,0.451C16.441,126.381,16.417,126.666,16.37,126.785z"/>
	<path fill="#333333" d="M21.16,143.312c-3.106,0-5.098-2.134-5.098-6.402s2.016-6.426,5.122-6.426c3.106,0,5.075,2.11,5.075,6.379
		C26.258,141.13,24.266,143.312,21.16,143.312z M21.183,131.646c-2.276,0-3.509,1.755-3.509,5.24c0,3.486,1.209,5.264,3.486,5.264
		s3.486-1.778,3.486-5.264C24.646,133.4,23.459,131.646,21.183,131.646z"/>
	<path fill="#333333" d="M34.035,131.859c-1.375,0.189-2.869,0.688-3.983,1.542v9.674c-0.237,0.071-0.522,0.119-0.783,0.119
		s-0.521-0.047-0.759-0.119v-12.354c0.143-0.047,0.356-0.095,0.593-0.095c0.19,0,0.451,0.047,0.64,0.095l0.119,1.518h0.024
		c1.02-0.877,2.798-1.612,4.149-1.755c0.047,0.143,0.095,0.403,0.095,0.617C34.13,131.337,34.083,131.646,34.035,131.859z"/>
	<path fill="#333333" d="M53.313,143.099c-0.237,0.047-0.475,0.095-0.711,0.095c-0.285,0-0.545-0.071-0.83-0.119v-7.493
		c0-2.608-0.664-3.794-2.869-3.794c-1.138,0-2.656,0.593-3.604,1.281c0.19,0.664,0.237,1.399,0.237,2.134v7.873
		c-0.237,0.071-0.474,0.119-0.711,0.119c-0.308,0-0.593-0.047-0.83-0.119v-7.493c0-2.608-0.593-3.794-2.798-3.794
		c-1.186,0-2.584,0.664-3.509,1.375v9.912c-0.261,0.071-0.569,0.119-0.854,0.119c-0.237,0-0.498-0.047-0.688-0.119v-12.354
		c0.119-0.047,0.379-0.095,0.64-0.095c0.213,0,0.475,0.047,0.641,0.095l0.118,1.233h0.024c1.304-1.067,2.798-1.47,4.007-1.47
		s2.371,0.403,3.059,1.233c0.095,0.095,0.166,0.213,0.237,0.332c1.257-1.02,2.869-1.565,4.411-1.565c1.209,0,2.442,0.403,3.13,1.233
		c0.759,0.901,0.901,2.205,0.901,3.485V143.099z"/>
	<path fill="#333333" d="M57.013,128.302c-0.545,0-0.996-0.475-0.996-1.043c0-0.569,0.451-1.02,0.996-1.02
		c0.545,0,1.02,0.45,1.02,1.02C58.032,127.828,57.558,128.302,57.013,128.302z M57.795,143.075
		c-0.213,0.071-0.521,0.119-0.782,0.119c-0.261,0-0.545-0.047-0.759-0.119v-12.354c0.189-0.047,0.498-0.119,0.735-0.119
		c0.261,0,0.617,0.047,0.806,0.119V143.075z"/>
	<path fill="#333333" d="M70.314,143.099c-0.189,0.047-0.474,0.095-0.759,0.095c-0.237,0-0.545-0.047-0.782-0.119v-7.517
		c0-1.138-0.143-2.016-0.475-2.632c-0.403-0.759-1.162-1.138-2.395-1.138c-1.186,0-2.608,0.664-3.533,1.375v9.912
		c-0.261,0.071-0.522,0.119-0.806,0.119c-0.237,0-0.522-0.047-0.735-0.119v-12.354c0.166-0.071,0.451-0.095,0.617-0.095
		c0.237,0,0.521,0.023,0.664,0.095l0.118,1.233h0.024c1.304-1.067,2.798-1.47,4.007-1.47s2.466,0.403,3.154,1.233
		c0.759,0.901,0.901,2.205,0.901,3.485V143.099z"/>
	<path fill="#333333" d="M82.123,141.012c0,1.778-0.095,3.913-0.948,5.383c-1.02,1.754-2.846,2.513-4.671,2.513
		c-1.043,0-1.944-0.118-2.703-0.379c-0.071-0.142-0.095-0.379-0.095-0.569c0-0.142,0.047-0.427,0.095-0.569
		c0.735,0.19,1.589,0.332,2.442,0.332c2.988,0,4.339-1.85,4.339-5.098v-0.996c-0.925,0.972-2.229,1.446-3.296,1.446
		c-3.154,0-4.79-2.442-4.79-5.88c0-4.221,2.49-6.711,6.165-6.711c0.972,0,2.442,0.285,3.462,0.688V141.012z M80.582,131.93
		c-0.854-0.237-1.47-0.309-2.063-0.309c-3.012,0-4.434,2.538-4.434,5.501c0,2.632,0.996,4.695,3.319,4.695
		c1.186,0,2.395-0.593,3.178-1.423V131.93z"/>
	<path fill="#333333" d="M98.437,140.04c0,0.854,0,1.921,0.048,3.035c-0.166,0.071-0.427,0.119-0.641,0.119
		c-0.189,0-0.45-0.047-0.64-0.119c-0.071-0.379-0.119-0.877-0.142-1.328h-0.024c-0.806,0.996-2.229,1.565-3.628,1.565
		c-2.205,0-4.055-1.233-4.055-3.771c0-1.446,0.593-2.513,1.518-3.177c1.043-0.735,2.418-0.972,3.889-0.972
		c0.83,0,1.518,0.047,2.134,0.142v-0.688c0-2.371-0.972-3.154-2.964-3.154c-1.115,0-2.49,0.237-3.344,0.451
		c-0.047-0.119-0.095-0.379-0.095-0.617c0-0.166,0.047-0.403,0.119-0.545c1.02-0.308,2.371-0.498,3.509-0.498
		c2.822,0,4.315,1.281,4.315,4.173V140.04z M96.896,136.696c-0.688-0.095-1.399-0.143-2.016-0.143c-1.162,0-2.205,0.213-2.917,0.759
		c-0.64,0.475-0.996,1.233-0.996,2.206c0,1.731,1.115,2.561,2.656,2.561c1.281,0,2.632-0.616,3.272-1.588V136.696z"/>
</g>
<g>
	<path fill="#64AD94" d="M134.097,143.071c-0.56,0.14-1.75,0.175-2.31,0.175c-0.595,0-1.96-0.07-2.521-0.175V132.08
		c0-1.33-0.035-2.31-0.525-2.905c-0.455-0.56-1.155-0.77-2.03-0.77c-1.19,0-2.87,0.525-3.956,1.19c0.035,0.595,0.07,1.19,0.07,1.89
		v11.586c-0.56,0.14-1.75,0.175-2.311,0.175c-0.595,0-1.96-0.07-2.52-0.175V132.08c0-1.33-0.035-2.31-0.525-2.905
		c-0.455-0.56-1.155-0.77-2.03-0.77c-1.225,0-2.8,0.49-3.886,1.155v13.511c-0.805,0.14-1.925,0.175-2.555,0.175
		c-0.56,0-1.575-0.035-2.275-0.175v-18.237c0.455-0.105,1.575-0.175,2.1-0.175c0.49,0,1.505,0.07,2.03,0.175l0.21,1.645
		c1.54-1.155,3.745-1.995,5.706-1.995c2.03,0,3.815,0.7,5.181,2.205c1.89-1.295,4.165-2.205,6.476-2.205
		c1.715,0,3.465,0.7,4.34,1.75c1.085,1.295,1.33,2.976,1.33,5.531V143.071z"/>
	<path fill="#64AD94" d="M151.533,137.995c0,1.505,0.035,3.221,0.035,5.076c-0.56,0.14-1.505,0.175-2.1,0.175
		c-0.665,0-1.54-0.07-2.1-0.175c-0.07-0.42-0.14-1.155-0.175-1.61h-0.07c-1.19,1.225-3.22,1.96-5.075,1.96
		c-3.5,0-6.021-2.17-6.021-5.776c0-5.601,4.971-6.545,9.136-6.545c0.28,0,0.945,0.035,1.505,0.07c0-0.21-0.035-0.665-0.07-0.84
		c-0.245-1.435-1.19-2.03-3.22-2.03c-1.575,0-3.78,0.315-5.461,0.735c-0.175-0.49-0.28-1.33-0.28-1.96c0-0.525,0.07-1.33,0.21-1.68
		c1.96-0.595,4.375-0.91,6.371-0.91c4.375,0,7.315,2.03,7.315,6.581V137.995z M146.703,134.53c-0.42-0.035-0.98-0.07-1.47-0.07
		c-3.15,0-4.375,1.26-4.375,2.835c0,1.365,0.91,2.31,2.485,2.31c1.155,0,2.45-0.56,3.36-1.365V134.53z"/>
	<path fill="#64AD94" d="M159.973,143.176c0,4.55-1.681,8.471-7.071,8.471c-0.945,0-2.205-0.14-2.975-0.314
		c-0.105-0.456-0.175-1.19-0.175-1.75c0-0.63,0.14-1.365,0.245-1.785c0.63,0.14,1.505,0.245,2.24,0.245
		c2.065,0,2.905-1.575,2.905-4.551v-18.657c0.771-0.105,1.716-0.175,2.346-0.175c0.84,0,1.715,0.07,2.485,0.175V143.176z
		 M157.557,122.839c-1.47,0-2.66-1.19-2.66-2.661s1.19-2.66,2.66-2.66c1.471,0,2.661,1.19,2.661,2.66
		S159.027,122.839,157.557,122.839z"/>
	<path fill="#64AD94" d="M170.789,143.421c-5.285,0-8.646-3.396-8.646-9.416c0-5.986,3.325-9.521,8.646-9.521
		c5.321,0,8.646,3.5,8.646,9.486C179.436,139.956,176.11,143.421,170.789,143.421z M170.789,128.264
		c-2.274,0-3.675,1.54-3.675,5.706s1.4,5.671,3.675,5.671c2.275,0,3.676-1.505,3.676-5.671
		C174.465,129.77,173.064,128.264,170.789,128.264z"/>
	<path fill="#64AD94" d="M191.725,128.544c-1.82,0.28-3.78,0.91-5.53,1.82v12.707c-0.49,0.105-1.54,0.175-2.381,0.175
		c-0.84,0-2.064-0.07-2.45-0.175v-18.237c0.525-0.07,1.4-0.175,2.101-0.175c0.595,0,1.54,0.07,2.03,0.175l0.28,2.24
		c1.295-1.155,3.64-2.416,5.915-2.59c0.07,0.28,0.141,1.295,0.141,2.03C191.83,127.214,191.795,128.054,191.725,128.544z"/>
	<path fill="#64AD94" d="M215.739,143.071c-0.56,0.105-1.505,0.175-2.24,0.175c-0.665,0-1.435-0.07-1.925-0.175l-0.141-1.61
		c-1.26,1.225-2.87,1.96-4.76,1.96c-5.216,0-7.456-4.166-7.456-9.171c0-5.391,2.415-9.766,7.98-9.766c1.365,0,2.94,0.42,3.711,0.91
		v-7.841c0.63-0.105,1.68-0.175,2.45-0.175c0.945,0,1.68,0.105,2.38,0.175V143.071z M210.909,129
		c-0.84-0.385-1.926-0.595-2.836-0.595c-2.835,0-3.885,2.52-3.885,5.565c0,2.555,0.63,5.461,3.465,5.461
		c1.365,0,2.416-0.561,3.256-1.26V129z"/>
	<path fill="#64AD94" d="M233.139,137.995c0,1.505,0.035,3.221,0.035,5.076c-0.56,0.14-1.505,0.175-2.1,0.175
		c-0.665,0-1.54-0.07-2.101-0.175c-0.07-0.42-0.14-1.155-0.175-1.61h-0.07c-1.19,1.225-3.22,1.96-5.075,1.96
		c-3.501,0-6.021-2.17-6.021-5.776c0-5.601,4.971-6.545,9.136-6.545c0.28,0,0.945,0.035,1.505,0.07c0-0.21-0.035-0.665-0.07-0.84
		c-0.244-1.435-1.189-2.03-3.22-2.03c-1.575,0-3.78,0.315-5.461,0.735c-0.175-0.49-0.28-1.33-0.28-1.96
		c0-0.525,0.07-1.33,0.211-1.68c1.96-0.595,4.375-0.91,6.37-0.91c4.376,0,7.315,2.03,7.315,6.581V137.995z M228.309,134.53
		c-0.42-0.035-0.98-0.07-1.47-0.07c-3.15,0-4.376,1.26-4.376,2.835c0,1.365,0.91,2.31,2.485,2.31c1.155,0,2.45-0.56,3.36-1.365
		V134.53z"/>
	<path fill="#64AD94" d="M247.493,142.721c-1.051,0.42-2.311,0.7-4.341,0.7c-3.955,0-5.915-1.925-5.915-5.776v-9.206h-3.011
		c-0.14-0.525-0.245-1.4-0.245-1.855c0-0.42,0.105-1.19,0.21-1.54l3.046-0.21v-4.69c0.385-0.07,1.609-0.14,2.415-0.14
		c0.875,0,1.96,0.07,2.415,0.14v4.69h5.04c0.141,0.49,0.211,1.19,0.211,1.575c0,0.42-0.035,1.54-0.176,2.03h-5.075v8.506
		c0,1.75,0.7,2.52,2.415,2.52c0.945,0,2.101-0.14,2.905-0.42c0.141,0.455,0.315,1.33,0.315,2.135
		C247.703,141.601,247.633,142.336,247.493,142.721z"/>
	<path fill="#64AD94" d="M263.876,137.995c0,1.505,0.035,3.221,0.035,5.076c-0.56,0.14-1.505,0.175-2.1,0.175
		c-0.665,0-1.54-0.07-2.101-0.175c-0.07-0.42-0.14-1.155-0.175-1.61h-0.07c-1.19,1.225-3.22,1.96-5.075,1.96
		c-3.501,0-6.021-2.17-6.021-5.776c0-5.601,4.97-6.545,9.136-6.545c0.28,0,0.945,0.035,1.505,0.07c0-0.21-0.035-0.665-0.069-0.84
		c-0.245-1.435-1.19-2.03-3.221-2.03c-1.575,0-3.78,0.315-5.461,0.735c-0.175-0.49-0.279-1.33-0.279-1.96
		c0-0.525,0.069-1.33,0.21-1.68c1.96-0.595,4.375-0.91,6.37-0.91c4.376,0,7.315,2.03,7.315,6.581V137.995z M259.046,134.53
		c-0.42-0.035-0.98-0.07-1.47-0.07c-3.15,0-4.376,1.26-4.376,2.835c0,1.365,0.91,2.31,2.485,2.31c1.155,0,2.45-0.56,3.36-1.365
		V134.53z"/>
</g>
<g>
	<path fill="#64AD94" d="M15.314,179.551c-2.065,0-4.235-0.314-5.916-0.875c-0.105-0.524-0.14-1.189-0.14-1.89
		c0-0.561,0.14-1.365,0.28-1.855c1.61,0.561,3.92,0.945,5.286,0.945c1.89,0,2.975-0.63,2.975-1.926c0-1.12-0.875-1.645-3.185-2.38
		c-3.675-1.155-5.391-2.87-5.391-5.53c0-3.956,3.64-5.426,7.105-5.426c1.61,0,3.396,0.28,4.621,0.665
		c0.14,0.525,0.21,1.26,0.21,1.68c0,0.455-0.14,1.4-0.315,1.996c-1.19-0.351-2.835-0.631-4.2-0.631c-1.68,0-2.835,0.421-2.835,1.471
		c0,1.12,1.295,1.575,3.325,2.24c3.536,1.155,5.216,2.625,5.216,5.391C22.351,177.696,18.92,179.551,15.314,179.551z"/>
	<path fill="#64AD94" d="M37.299,162.925c0,0.77-0.105,1.609-0.35,2.345c-1.155-0.455-2.66-0.735-4.095-0.735
		c-2.73,0-4.585,1.751-4.585,5.671c0,3.431,1.575,5.426,4.62,5.426c1.575,0,3.081-0.28,4.201-0.665
		c0.21,0.77,0.315,1.715,0.315,2.45c0,0.49,0,0.84-0.035,1.155c-1.4,0.63-3.255,0.979-5.005,0.979c-6.056,0-9.066-3.535-9.066-9.275
		c0-5.951,3.15-9.661,9.276-9.661c1.715,0,3.396,0.35,4.585,0.91C37.264,161.909,37.299,162.399,37.299,162.925z"/>
	<path fill="#64AD94" d="M42.271,158.969c-1.47,0-2.66-1.189-2.66-2.66c0-1.47,1.19-2.66,2.66-2.66s2.66,1.19,2.66,2.66
		C44.932,157.779,43.742,158.969,42.271,158.969z M44.687,179.201c-0.63,0.14-1.925,0.175-2.485,0.175
		c-0.84,0-1.75-0.069-2.345-0.175v-18.237c0.771-0.104,1.715-0.175,2.345-0.175c0.84,0,1.715,0.07,2.485,0.175V179.201z"/>
	<path fill="#64AD94" d="M63.03,171.78H51.968c0.07,2.275,1.646,3.955,4.691,3.955c1.645,0,3.325-0.21,4.76-0.595
		c0.21,0.945,0.35,1.995,0.35,2.94c0,0.14,0,0.315-0.035,0.7c-1.785,0.525-3.64,0.77-5.46,0.77c-6.651,0-9.416-3.815-9.416-9.381
		c0-4.865,2.73-9.556,8.646-9.556c5.601,0,7.631,4.131,7.631,8.681C63.135,169.925,63.135,170.87,63.03,171.78z M58.304,168.315
		c0-2.206-0.595-4.061-2.871-4.061c-2.17,0-3.325,1.715-3.465,4.061H58.304z"/>
	<path fill="#64AD94" d="M81.094,179.201c-0.56,0.14-1.75,0.175-2.31,0.175c-0.595,0-1.96-0.069-2.52-0.175v-11.972
		c0-1.89-0.98-2.695-2.556-2.695c-1.26,0-2.695,0.455-3.815,1.155v13.512c-0.805,0.14-1.925,0.175-2.555,0.175
		c-0.56,0-1.575-0.035-2.275-0.175v-18.237c0.455-0.104,1.575-0.175,2.1-0.175c0.49,0,1.505,0.07,2.03,0.175l0.245,1.61
		c1.575-1.155,3.85-1.96,5.88-1.96c3.851,0,5.775,2.38,5.775,6.371V179.201z"/>
	<path fill="#64AD94" d="M96.953,162.925c0,0.77-0.105,1.609-0.35,2.345c-1.155-0.455-2.66-0.735-4.095-0.735
		c-2.73,0-4.585,1.751-4.585,5.671c0,3.431,1.575,5.426,4.62,5.426c1.575,0,3.081-0.28,4.201-0.665
		c0.21,0.77,0.315,1.715,0.315,2.45c0,0.49,0,0.84-0.035,1.155c-1.4,0.63-3.255,0.979-5.005,0.979c-6.056,0-9.066-3.535-9.066-9.275
		c0-5.951,3.15-9.661,9.276-9.661c1.715,0,3.396,0.35,4.585,0.91C96.918,161.909,96.953,162.399,96.953,162.925z"/>
	<path fill="#64AD94" d="M113.687,171.78h-11.062c0.07,2.275,1.646,3.955,4.691,3.955c1.645,0,3.325-0.21,4.76-0.595
		c0.21,0.945,0.35,1.995,0.35,2.94c0,0.14,0,0.315-0.035,0.7c-1.785,0.525-3.64,0.77-5.46,0.77c-6.651,0-9.416-3.815-9.416-9.381
		c0-4.865,2.73-9.556,8.646-9.556c5.601,0,7.631,4.131,7.631,8.681C113.792,169.925,113.792,170.87,113.687,171.78z
		 M108.961,168.315c0-2.206-0.595-4.061-2.871-4.061c-2.17,0-3.325,1.715-3.465,4.061H108.961z"/>
	<path fill="#64AD94" d="M130.492,179.201c-1.085,0-2.555-0.175-3.43-0.42v8.646c-0.63,0.105-1.681,0.175-2.451,0.175
		c-0.945,0-1.68-0.104-2.38-0.175v-26.428c0.56-0.104,1.505-0.175,2.24-0.175c0.665,0,1.4,0.07,1.89,0.175l0.175,1.506
		c1.12-1.051,3.15-1.891,5.041-1.891c5.005,0,7.246,4.096,7.246,8.786C138.822,174.826,136.022,179.201,130.492,179.201z
		 M130.562,164.534c-1.295,0-2.66,0.525-3.5,1.296v9.275c0.665,0.21,1.96,0.351,2.87,0.351c2.59,0,3.92-2.136,3.92-5.671
		C133.852,166.32,132.592,164.534,130.562,164.534z"/>
	<path fill="#64AD94" d="M155.242,174.126c0,1.505,0.035,3.22,0.035,5.075c-0.561,0.14-1.505,0.175-2.101,0.175
		c-0.665,0-1.54-0.069-2.1-0.175c-0.07-0.42-0.141-1.155-0.175-1.61h-0.07c-1.19,1.226-3.22,1.96-5.075,1.96
		c-3.5,0-6.021-2.17-6.021-5.775c0-5.601,4.971-6.546,9.136-6.546c0.28,0,0.945,0.035,1.505,0.07c0-0.21-0.035-0.665-0.07-0.84
		c-0.245-1.436-1.19-2.03-3.22-2.03c-1.575,0-3.781,0.315-5.46,0.735c-0.175-0.49-0.28-1.33-0.28-1.961c0-0.524,0.07-1.33,0.21-1.68
		c1.96-0.595,4.375-0.91,6.371-0.91c4.375,0,7.316,2.03,7.316,6.581V174.126z M150.412,170.66c-0.42-0.035-0.98-0.07-1.47-0.07
		c-3.15,0-4.375,1.261-4.375,2.836c0,1.365,0.91,2.31,2.485,2.31c1.155,0,2.45-0.56,3.36-1.364V170.66z"/>
	<path fill="#64AD94" d="M168.511,164.675c-1.82,0.28-3.78,0.91-5.53,1.82v12.706c-0.49,0.105-1.54,0.175-2.381,0.175
		c-0.84,0-2.064-0.069-2.45-0.175v-18.237c0.525-0.069,1.4-0.175,2.101-0.175c0.595,0,1.54,0.07,2.03,0.175l0.28,2.24
		c1.295-1.154,3.64-2.415,5.915-2.59c0.07,0.28,0.141,1.295,0.141,2.03C168.616,163.345,168.581,164.185,168.511,164.675z"/>
	<path fill="#64AD94" d="M182.689,178.852c-1.051,0.42-2.311,0.699-4.341,0.699c-3.955,0-5.915-1.925-5.915-5.775v-9.206h-3.011
		c-0.14-0.524-0.245-1.399-0.245-1.854c0-0.421,0.105-1.19,0.21-1.541l3.046-0.21v-4.69c0.385-0.069,1.609-0.14,2.415-0.14
		c0.875,0,1.96,0.07,2.415,0.14v4.69h5.04c0.141,0.49,0.211,1.19,0.211,1.575c0,0.42-0.035,1.541-0.176,2.03h-5.075v8.506
		c0,1.751,0.7,2.521,2.415,2.521c0.945,0,2.101-0.14,2.905-0.42c0.141,0.455,0.315,1.33,0.315,2.135
		C182.899,177.731,182.829,178.466,182.689,178.852z"/>
	<path fill="#64AD94" d="M200.753,179.201c-0.561,0.14-1.75,0.175-2.311,0.175c-0.595,0-1.96-0.069-2.521-0.175v-11.972
		c0-1.89-0.979-2.695-2.555-2.695c-1.261,0-2.695,0.455-3.815,1.155v13.512c-0.806,0.14-1.926,0.175-2.556,0.175
		c-0.56,0-1.575-0.035-2.275-0.175v-18.237c0.455-0.104,1.575-0.175,2.101-0.175c0.49,0,1.505,0.07,2.03,0.175l0.245,1.61
		c1.575-1.155,3.851-1.96,5.881-1.96c3.85,0,5.775,2.38,5.775,6.371V179.201z"/>
	<path fill="#64AD94" d="M218.782,171.78h-11.062c0.07,2.275,1.646,3.955,4.69,3.955c1.646,0,3.325-0.21,4.761-0.595
		c0.21,0.945,0.35,1.995,0.35,2.94c0,0.14,0,0.315-0.034,0.7c-1.785,0.525-3.641,0.77-5.461,0.77c-6.65,0-9.416-3.815-9.416-9.381
		c0-4.865,2.73-9.556,8.646-9.556c5.601,0,7.631,4.131,7.631,8.681C218.887,169.925,218.887,170.87,218.782,171.78z
		 M214.057,168.315c0-2.206-0.595-4.061-2.87-4.061c-2.171,0-3.325,1.715-3.466,4.061H214.057z"/>
	<path fill="#64AD94" d="M231.176,164.675c-1.82,0.28-3.78,0.91-5.53,1.82v12.706c-0.49,0.105-1.54,0.175-2.381,0.175
		c-0.84,0-2.064-0.069-2.45-0.175v-18.237c0.525-0.069,1.4-0.175,2.101-0.175c0.595,0,1.54,0.07,2.03,0.175l0.28,2.24
		c1.295-1.154,3.64-2.415,5.915-2.59c0.07,0.28,0.141,1.295,0.141,2.03C231.281,163.345,231.246,164.185,231.176,164.675z"/>
	<path fill="#64AD94" d="M237.898,179.551c-2.065,0-4.235-0.314-5.915-0.875c-0.105-0.524-0.141-1.189-0.141-1.89
		c0-0.561,0.141-1.365,0.28-1.855c1.61,0.561,3.921,0.945,5.285,0.945c1.891,0,2.976-0.63,2.976-1.926
		c0-1.12-0.875-1.645-3.186-2.38c-3.675-1.155-5.391-2.87-5.391-5.53c0-3.956,3.641-5.426,7.106-5.426c1.61,0,3.396,0.28,4.62,0.665
		c0.14,0.525,0.21,1.26,0.21,1.68c0,0.455-0.14,1.4-0.314,1.996c-1.19-0.351-2.836-0.631-4.201-0.631
		c-1.68,0-2.835,0.421-2.835,1.471c0,1.12,1.295,1.575,3.325,2.24c3.535,1.155,5.216,2.625,5.216,5.391
		C244.935,177.696,241.504,179.551,237.898,179.551z"/>
	<path fill="#64AD94" d="M263.067,166.985v12.216c-0.56,0.14-1.75,0.175-2.31,0.175c-0.596,0-1.961-0.069-2.521-0.175v-11.937
		c0-1.89-0.98-2.73-2.556-2.73c-1.26,0-2.8,0.455-3.92,1.155v13.512c-0.806,0.14-1.926,0.175-2.556,0.175
		c-0.56,0-1.575-0.035-2.275-0.175v-25.518c0.455-0.105,1.471-0.175,2.346-0.175s1.96,0.069,2.485,0.175v8.576
		c1.54-0.98,3.675-1.646,5.53-1.646C261.143,160.614,263.067,162.994,263.067,166.985z"/>
	<path fill="#64AD94" d="M268.601,158.969c-1.47,0-2.66-1.189-2.66-2.66c0-1.47,1.19-2.66,2.66-2.66c1.471,0,2.661,1.19,2.661,2.66
		C271.262,157.779,270.071,158.969,268.601,158.969z M271.017,179.201c-0.631,0.14-1.926,0.175-2.485,0.175
		c-0.84,0-1.75-0.069-2.346-0.175v-18.237c0.771-0.104,1.716-0.175,2.346-0.175c0.84,0,1.715,0.07,2.485,0.175V179.201z"/>
	<path fill="#64AD94" d="M282.498,179.201c-1.085,0-2.555-0.175-3.43-0.42v8.646c-0.63,0.105-1.681,0.175-2.45,0.175
		c-0.945,0-1.681-0.104-2.381-0.175v-26.428c0.561-0.104,1.506-0.175,2.24-0.175c0.665,0,1.4,0.07,1.891,0.175l0.175,1.506
		c1.12-1.051,3.15-1.891,5.041-1.891c5.005,0,7.245,4.096,7.245,8.786C290.829,174.826,288.029,179.201,282.498,179.201z
		 M282.568,164.534c-1.295,0-2.66,0.525-3.5,1.296v9.275c0.665,0.21,1.96,0.351,2.87,0.351c2.59,0,3.92-2.136,3.92-5.671
		C285.858,166.32,284.599,164.534,282.568,164.534z"/>
</g>
<g>
	<path fill="#64AD94" d="M28.441,215.332c-0.42,0.105-1.68,0.175-2.38,0.175c-0.735,0-1.82-0.069-2.206-0.175l-2.8-11.656h-0.07
		l-2.835,11.656c-0.35,0.07-1.68,0.175-2.31,0.175c-0.805,0-2.135-0.104-2.416-0.175l-3.85-12.881
		c-0.49-1.646-0.805-3.676-0.84-5.356c0.56-0.104,1.33-0.175,2.17-0.175c0.77,0,1.82,0.105,2.275,0.175
		c0,1.365,0.245,3.081,0.63,4.69l2.065,8.227h0.07l3.396-12.917c0.385-0.069,0.91-0.14,1.785-0.14c0.735,0,1.295,0.07,1.75,0.14
		l3.186,12.917h0.07l2.45-8.227c0.42-1.574,0.7-3.325,0.7-4.69c0.455-0.069,1.505-0.175,2.275-0.175c0.84,0,1.54,0.07,2.1,0.175
		c-0.035,1.82-0.28,3.186-0.805,4.796L28.441,215.332z"/>
	<path fill="#64AD94" d="M38.106,195.1c-1.47,0-2.66-1.189-2.66-2.66c0-1.47,1.19-2.66,2.66-2.66s2.66,1.19,2.66,2.66
		C40.766,193.91,39.576,195.1,38.106,195.1z M40.521,215.332c-0.63,0.14-1.925,0.175-2.485,0.175c-0.84,0-1.75-0.069-2.346-0.175
		v-18.237c0.771-0.104,1.715-0.175,2.346-0.175c0.84,0,1.715,0.07,2.485,0.175V215.332z"/>
	<path fill="#64AD94" d="M55.294,214.982c-1.05,0.42-2.311,0.699-4.341,0.699c-3.955,0-5.916-1.925-5.916-5.775V200.7h-3.01
		c-0.14-0.524-0.245-1.399-0.245-1.854c0-0.421,0.105-1.19,0.21-1.541l3.045-0.21v-4.69c0.385-0.069,1.61-0.14,2.416-0.14
		c0.875,0,1.96,0.07,2.415,0.14v4.69h5.041c0.14,0.49,0.21,1.19,0.21,1.575c0,0.42-0.035,1.541-0.175,2.03h-5.076v8.506
		c0,1.751,0.7,2.521,2.415,2.521c0.945,0,2.101-0.14,2.905-0.42c0.14,0.455,0.315,1.33,0.315,2.135
		C55.504,213.862,55.434,214.597,55.294,214.982z"/>
	<path fill="#64AD94" d="M73.462,203.116v12.216c-0.56,0.14-1.75,0.175-2.311,0.175c-0.595,0-1.96-0.069-2.52-0.175v-11.937
		c0-1.89-0.98-2.73-2.556-2.73c-1.26,0-2.8,0.455-3.92,1.155v13.512c-0.805,0.14-1.925,0.175-2.556,0.175
		c-0.56,0-1.575-0.035-2.275-0.175v-25.518c0.455-0.105,1.47-0.175,2.345-0.175s1.96,0.069,2.485,0.175v8.576
		c1.54-0.98,3.675-1.646,5.53-1.646C71.537,196.745,73.462,199.125,73.462,203.116z"/>
	<path fill="#64AD94" d="M90.723,215.507c-2.485,0-4.901-0.069-7.386-0.21v-23.593c2.03-0.14,4.725-0.21,6.545-0.21
		c5.391,0,8.681,1.646,8.681,6.091c0,2.24-0.945,3.921-3.15,4.9c2.94,0.7,4.831,2.836,4.831,5.706
		C100.244,213.652,96.288,215.507,90.723,215.507z M90.232,195.625c-0.63,0-1.33,0.035-1.89,0.07v5.32h1.96
		c2.275,0,3.36-0.735,3.36-2.87C93.663,195.94,91.948,195.625,90.232,195.625z M90.792,204.936h-2.45v6.371
		c0.665,0.035,1.645,0.07,2.31,0.07c3.115,0,4.621-0.875,4.621-3.221C95.273,205.741,93.978,204.936,90.792,204.936z"/>
	<path fill="#64AD94" d="M109.908,215.507c-2.485,0-4.901-0.069-7.386-0.21v-23.593c2.03-0.14,4.725-0.21,6.545-0.21
		c5.391,0,8.681,1.646,8.681,6.091c0,2.24-0.945,3.921-3.15,4.9c2.94,0.7,4.831,2.836,4.831,5.706
		C119.429,213.652,115.473,215.507,109.908,215.507z M109.417,195.625c-0.63,0-1.33,0.035-1.89,0.07v5.32h1.96
		c2.275,0,3.36-0.735,3.36-2.87C112.848,195.94,111.133,195.625,109.417,195.625z M109.978,204.936h-2.45v6.371
		c0.665,0.035,1.645,0.07,2.31,0.07c3.115,0,4.621-0.875,4.621-3.221C114.458,205.741,113.163,204.936,109.978,204.936z"/>
	<path fill="#64AD94" d="M137.844,196.605c-1.681-0.525-3.781-0.91-5.461-0.91c-3.99,0-6.581,2.835-6.581,7.91
		c0,4.656,2.03,7.701,6.546,7.701c1.68,0,3.57-0.35,5.25-0.875c0.245,0.63,0.42,1.61,0.42,2.345c0,0.596-0.035,1.33-0.105,1.646
		c-1.75,0.805-3.991,1.26-6.056,1.26c-7.526,0-11.236-4.55-11.236-11.971c0-7.211,3.991-12.392,11.446-12.392
		c1.82,0,4.201,0.455,5.881,1.19c0.105,0.35,0.14,1.12,0.14,1.575C138.088,195.17,137.949,196.185,137.844,196.605z"/>
</g>
</svg>
