<?xml version="1.0" encoding="utf-8"?>
<!-- Generator: Adobe Illustrator 16.0.0, SVG Export Plug-In . SVG Version: 6.00 Build 0)  -->
<!DOCTYPE svg PUBLIC "-//W3C//DTD SVG 1.1//EN" "http://www.w3.org/Graphics/SVG/1.1/DTD/svg11.dtd">
<svg version="1.1" id="Layer_1" xmlns="http://www.w3.org/2000/svg" xmlns:xlink="http://www.w3.org/1999/xlink" x="0px" y="0px"
	 width="300px" height="300px" viewBox="0 0 300 300" enable-background="new 0 0 300 300" xml:space="preserve">
<g>
	<path fill="#333333" d="M12.905,54.668H9.598v10.474c-0.134,0.05-0.386,0.084-0.571,0.084s-0.437-0.034-0.57-0.084V54.668H5.15
		c-0.051-0.101-0.084-0.285-0.084-0.437c0-0.134,0.033-0.319,0.084-0.437h7.754c0.05,0.118,0.084,0.302,0.084,0.437
		C12.989,54.383,12.955,54.567,12.905,54.668z"/>
	<path fill="#333333" d="M21.278,65.142c-0.151,0.05-0.336,0.084-0.504,0.084c-0.201,0-0.419-0.034-0.587-0.084v-5.304
		c0-1.847-0.47-2.686-2.031-2.686c-0.839,0-1.847,0.47-2.501,0.973v7.016c-0.185,0.05-0.386,0.084-0.571,0.084
		c-0.168,0-0.369-0.034-0.52-0.084V52.889c0.151-0.05,0.386-0.084,0.537-0.084c0.151,0,0.402,0.034,0.554,0.084v4.314
		c0.89-0.688,1.947-0.974,2.77-0.974c0.856,0,1.729,0.285,2.215,0.873c0.537,0.638,0.638,1.561,0.638,2.468V65.142z"/>
	<path fill="#333333" d="M29.752,61.063h-5.623c0.067,1.93,0.974,3.391,3.072,3.391c0.755,0,1.46-0.101,2.082-0.252
		c0.033,0.084,0.067,0.252,0.067,0.353c0,0.168-0.034,0.319-0.084,0.437c-0.655,0.201-1.477,0.319-2.165,0.319
		c-1.326,0-2.333-0.42-2.954-1.091c-0.739-0.806-1.125-2.014-1.125-3.407c0-2.434,1.225-4.582,3.676-4.582
		c2.199,0,3.071,1.812,3.071,4.028C29.769,60.509,29.769,60.811,29.752,61.063z M28.678,60.257c0-1.544-0.168-3.206-2.031-3.206
		c-1.628,0-2.417,1.494-2.518,3.206H28.678z"/>
	<path fill="#333333" d="M41.867,65.142c-0.151,0.05-0.37,0.084-0.554,0.084s-0.386-0.034-0.537-0.084v-7.889h-3.592v7.889
		c-0.151,0.05-0.319,0.084-0.537,0.084s-0.403-0.034-0.554-0.084v-7.889h-1.51c-0.034-0.084-0.05-0.302-0.05-0.403
		c0-0.084,0.017-0.269,0.05-0.353l1.51-0.101v-0.286c0-1.191,0.202-2.014,0.89-2.702c0.487-0.487,1.208-0.722,2.031-0.722
		c0.437,0,0.923,0.101,1.225,0.218c0.034,0.083,0.05,0.201,0.05,0.319c0,0.101-0.017,0.302-0.05,0.386
		c-0.251-0.067-0.705-0.134-1.057-0.134c-0.638,0-1.108,0.168-1.427,0.521c-0.487,0.521-0.571,1.225-0.571,2.115v0.286h4.683V65.142
		z"/>
	<path fill="#333333" d="M48.125,57.203c-0.974,0.134-2.031,0.487-2.82,1.091v6.848c-0.168,0.05-0.369,0.084-0.554,0.084
		c-0.185,0-0.37-0.034-0.537-0.084v-8.745c0.101-0.034,0.251-0.067,0.419-0.067c0.134,0,0.319,0.034,0.453,0.067l0.084,1.074h0.017
		c0.722-0.621,1.981-1.142,2.938-1.242c0.034,0.101,0.067,0.285,0.067,0.437C48.192,56.833,48.159,57.051,48.125,57.203z"/>
	<path fill="#333333" d="M51.767,65.31c-0.839,0-1.712-0.151-2.316-0.386c-0.05-0.118-0.084-0.319-0.084-0.47
		c0-0.101,0.034-0.353,0.067-0.454c0.621,0.252,1.511,0.454,2.249,0.454c1.276,0,2.064-0.537,2.064-1.595
		c0-0.957-0.487-1.292-1.812-1.779c-1.847-0.671-2.451-1.443-2.451-2.584c0-1.544,1.276-2.266,2.92-2.266
		c0.554,0,1.276,0.101,1.695,0.235c0.05,0.151,0.067,0.302,0.067,0.403c0,0.134-0.034,0.369-0.067,0.487
		c-0.554-0.168-1.141-0.269-1.712-0.269c-1.192,0-1.914,0.453-1.914,1.376c0,0.806,0.453,1.191,1.83,1.712
		c1.259,0.47,2.417,0.94,2.417,2.635C54.721,64.521,53.428,65.31,51.767,65.31z"/>
	<path fill="#333333" d="M61.013,65.058c-0.436,0.151-1.091,0.252-1.578,0.252c-1.662,0-2.451-0.789-2.451-2.652v-5.404h-1.51
		c-0.034-0.084-0.051-0.286-0.051-0.386c0-0.084,0.017-0.285,0.051-0.369l1.51-0.101v-2.283c0.134-0.051,0.353-0.084,0.537-0.084
		c0.185,0,0.42,0.033,0.554,0.084v2.283h2.467c0.034,0.083,0.067,0.335,0.067,0.419c0,0.118-0.033,0.319-0.067,0.437h-2.467v5.304
		c0,1.326,0.386,1.88,1.427,1.88c0.57,0,1.125-0.084,1.51-0.201c0.034,0.084,0.067,0.285,0.067,0.403
		C61.081,64.789,61.063,64.907,61.013,65.058z"/>
	<path fill="#333333" d="M72.776,61.818c0,2.551-1.057,3.491-3.273,3.491c-2.266,0-3.223-0.94-3.223-3.407v-5.505
		c0.151-0.05,0.353-0.084,0.537-0.084c0.235,0,0.42,0.05,0.554,0.084v5.371c0,1.628,0.251,2.702,2.148,2.702
		c1.779,0,2.165-1.041,2.165-2.736v-5.337c0.134-0.05,0.369-0.084,0.554-0.084c0.185,0,0.386,0.034,0.537,0.084V61.818z"/>
	<path fill="#333333" d="M81.721,65.158c-0.135,0.034-0.336,0.067-0.537,0.067c-0.168,0-0.386-0.034-0.554-0.084v-5.321
		c0-0.806-0.101-1.427-0.335-1.863c-0.286-0.537-0.823-0.806-1.695-0.806c-0.839,0-1.847,0.47-2.501,0.973v7.016
		c-0.185,0.05-0.369,0.084-0.571,0.084c-0.168,0-0.369-0.034-0.52-0.084v-8.745c0.117-0.05,0.319-0.067,0.436-0.067
		c0.168,0,0.37,0.017,0.47,0.067l0.084,0.873h0.017c0.923-0.755,1.98-1.041,2.836-1.041s1.746,0.285,2.232,0.873
		c0.537,0.638,0.638,1.561,0.638,2.468V65.158z"/>
	<path fill="#333333" d="M84.555,54.685c-0.386,0-0.705-0.335-0.705-0.738s0.319-0.722,0.705-0.722s0.722,0.319,0.722,0.722
		S84.941,54.685,84.555,54.685z M85.108,65.142c-0.151,0.05-0.369,0.084-0.554,0.084s-0.386-0.034-0.537-0.084v-8.745
		c0.134-0.034,0.353-0.084,0.521-0.084c0.185,0,0.436,0.034,0.57,0.084V65.142z"/>
	<path fill="#333333" d="M93.383,58.528l-2.635,6.613c-0.151,0.05-0.319,0.084-0.453,0.084c-0.185,0-0.336-0.034-0.47-0.084
		l-2.719-6.613c-0.302-0.755-0.437-1.511-0.437-2.131c0.134-0.034,0.369-0.084,0.521-0.084c0.201,0,0.402,0.034,0.57,0.084
		c0.017,0.57,0.084,1.225,0.336,1.83l2.182,5.539h0.034l2.115-5.539c0.235-0.588,0.353-1.242,0.353-1.83
		c0.118-0.05,0.37-0.084,0.588-0.084c0.117,0,0.335,0.017,0.486,0.067C93.836,56.984,93.718,57.706,93.383,58.528z"/>
	<path fill="#333333" d="M101.504,61.063h-5.623c0.067,1.93,0.974,3.391,3.072,3.391c0.755,0,1.46-0.101,2.081-0.252
		c0.034,0.084,0.067,0.252,0.067,0.353c0,0.168-0.034,0.319-0.084,0.437c-0.654,0.201-1.477,0.319-2.165,0.319
		c-1.326,0-2.333-0.42-2.954-1.091c-0.739-0.806-1.125-2.014-1.125-3.407c0-2.434,1.225-4.582,3.676-4.582
		c2.199,0,3.071,1.812,3.071,4.028C101.521,60.509,101.521,60.811,101.504,61.063z M100.43,60.257c0-1.544-0.168-3.206-2.031-3.206
		c-1.628,0-2.417,1.494-2.518,3.206H100.43z"/>
	<path fill="#333333" d="M107.259,57.203c-0.974,0.134-2.031,0.487-2.82,1.091v6.848c-0.168,0.05-0.369,0.084-0.554,0.084
		c-0.185,0-0.37-0.034-0.537-0.084v-8.745c0.101-0.034,0.251-0.067,0.419-0.067c0.134,0,0.319,0.034,0.453,0.067l0.084,1.074h0.017
		c0.722-0.621,1.981-1.142,2.938-1.242c0.034,0.101,0.067,0.285,0.067,0.437C107.326,56.833,107.293,57.051,107.259,57.203z"/>
	<path fill="#333333" d="M110.9,65.31c-0.839,0-1.712-0.151-2.316-0.386c-0.05-0.118-0.084-0.319-0.084-0.47
		c0-0.101,0.034-0.353,0.067-0.454c0.621,0.252,1.511,0.454,2.249,0.454c1.276,0,2.064-0.537,2.064-1.595
		c0-0.957-0.487-1.292-1.812-1.779c-1.847-0.671-2.451-1.443-2.451-2.584c0-1.544,1.276-2.266,2.92-2.266
		c0.554,0,1.276,0.101,1.695,0.235c0.05,0.151,0.067,0.302,0.067,0.403c0,0.134-0.034,0.369-0.067,0.487
		c-0.554-0.168-1.141-0.269-1.712-0.269c-1.192,0-1.914,0.453-1.914,1.376c0,0.806,0.453,1.191,1.83,1.712
		c1.259,0.47,2.417,0.94,2.417,2.635C113.854,64.521,112.562,65.31,110.9,65.31z"/>
	<path fill="#333333" d="M116.236,54.685c-0.386,0-0.705-0.335-0.705-0.738s0.319-0.722,0.705-0.722s0.722,0.319,0.722,0.722
		S116.623,54.685,116.236,54.685z M116.79,65.142c-0.151,0.05-0.369,0.084-0.554,0.084s-0.386-0.034-0.537-0.084v-8.745
		c0.134-0.034,0.353-0.084,0.521-0.084c0.185,0,0.436,0.034,0.57,0.084V65.142z"/>
	<path fill="#333333" d="M123.788,65.058c-0.436,0.151-1.091,0.252-1.578,0.252c-1.662,0-2.451-0.789-2.451-2.652v-5.404h-1.51
		c-0.034-0.084-0.05-0.286-0.05-0.386c0-0.084,0.017-0.285,0.05-0.369l1.51-0.101v-2.283c0.134-0.051,0.353-0.084,0.537-0.084
		s0.42,0.033,0.554,0.084v2.283h2.467c0.034,0.083,0.067,0.335,0.067,0.419c0,0.118-0.033,0.319-0.067,0.437h-2.467v5.304
		c0,1.326,0.386,1.88,1.427,1.88c0.57,0,1.125-0.084,1.51-0.201c0.034,0.084,0.067,0.285,0.067,0.403
		C123.855,64.789,123.839,64.907,123.788,65.058z"/>
	<path fill="#333333" d="M131.608,63.681c0,1.628-0.067,2.787-0.655,3.827c-0.671,1.192-1.997,1.762-3.189,1.762
		c-0.873,0-1.477-0.084-2.014-0.269c-0.05-0.101-0.067-0.269-0.067-0.403c0-0.101,0.033-0.319,0.067-0.419
		c0.503,0.151,1.108,0.269,1.914,0.269c1.846,0,2.854-1.326,2.854-3.625v-0.587c-0.856,0.755-1.813,1.074-2.686,1.074
		c-0.94,0-1.679-0.235-2.148-0.806c-0.521-0.621-0.588-1.527-0.588-2.434v-5.673c0.135-0.034,0.353-0.084,0.521-0.084
		c0.202,0,0.42,0.05,0.571,0.084v5.488c0,0.806,0.067,1.477,0.369,1.93c0.269,0.386,0.705,0.588,1.36,0.588
		c1.041,0,2.031-0.554,2.602-1.108v-6.898c0.151-0.034,0.369-0.084,0.57-0.084c0.168,0,0.386,0.05,0.521,0.084V63.681z"/>
	<path fill="#333333" d="M138.185,54.685c-0.386,0-0.705-0.335-0.705-0.738s0.319-0.722,0.705-0.722s0.722,0.319,0.722,0.722
		S138.571,54.685,138.185,54.685z M138.738,65.142c-0.151,0.05-0.369,0.084-0.554,0.084s-0.386-0.034-0.537-0.084v-8.745
		c0.134-0.034,0.353-0.084,0.521-0.084c0.185,0,0.436,0.034,0.57,0.084V65.142z"/>
	<path fill="#333333" d="M147.801,65.158c-0.134,0.034-0.335,0.067-0.537,0.067c-0.167,0-0.386-0.034-0.554-0.084v-5.321
		c0-0.806-0.101-1.427-0.335-1.863c-0.286-0.537-0.823-0.806-1.695-0.806c-0.839,0-1.846,0.47-2.501,0.973v7.016
		c-0.185,0.05-0.369,0.084-0.571,0.084c-0.168,0-0.369-0.034-0.521-0.084v-8.745c0.118-0.05,0.319-0.067,0.437-0.067
		c0.168,0,0.369,0.017,0.47,0.067l0.084,0.873h0.017c0.923-0.755,1.98-1.041,2.836-1.041c0.856,0,1.746,0.285,2.232,0.873
		c0.537,0.638,0.638,1.561,0.638,2.468V65.158z"/>
	<path fill="#333333" d="M158.372,65.058c-0.437,0.151-1.091,0.252-1.577,0.252c-1.662,0-2.451-0.789-2.451-2.652v-5.404h-1.511
		c-0.033-0.084-0.05-0.286-0.05-0.386c0-0.084,0.017-0.285,0.05-0.369l1.511-0.101v-2.283c0.135-0.051,0.353-0.084,0.537-0.084
		s0.42,0.033,0.554,0.084v2.283h2.468c0.033,0.083,0.067,0.335,0.067,0.419c0,0.118-0.034,0.319-0.067,0.437h-2.468v5.304
		c0,1.326,0.387,1.88,1.427,1.88c0.571,0,1.125-0.084,1.511-0.201c0.034,0.084,0.067,0.285,0.067,0.403
		C158.439,64.789,158.423,64.907,158.372,65.058z"/>
	<path fill="#333333" d="M166.713,65.142c-0.151,0.05-0.336,0.084-0.504,0.084c-0.201,0-0.42-0.034-0.587-0.084v-5.304
		c0-1.847-0.471-2.686-2.031-2.686c-0.839,0-1.847,0.47-2.501,0.973v7.016c-0.185,0.05-0.386,0.084-0.57,0.084
		c-0.168,0-0.37-0.034-0.521-0.084V52.889c0.15-0.05,0.386-0.084,0.537-0.084c0.15,0,0.402,0.034,0.554,0.084v4.314
		c0.89-0.688,1.947-0.974,2.77-0.974c0.855,0,1.729,0.285,2.216,0.873c0.537,0.638,0.638,1.561,0.638,2.468V65.142z"/>
	<path fill="#333333" d="M175.186,61.063h-5.622c0.066,1.93,0.974,3.391,3.071,3.391c0.755,0,1.46-0.101,2.081-0.252
		c0.034,0.084,0.067,0.252,0.067,0.353c0,0.168-0.033,0.319-0.084,0.437c-0.654,0.201-1.477,0.319-2.165,0.319
		c-1.326,0-2.333-0.42-2.954-1.091c-0.738-0.806-1.125-2.014-1.125-3.407c0-2.434,1.226-4.582,3.676-4.582
		c2.199,0,3.072,1.812,3.072,4.028C175.203,60.509,175.203,60.811,175.186,61.063z M174.111,60.257c0-1.544-0.167-3.206-2.03-3.206
		c-1.628,0-2.417,1.494-2.518,3.206H174.111z"/>
	<path fill="#333333" d="M182.082,61.264c0,1.108,0.185,1.947,0.671,2.484c0.42,0.453,1.058,0.722,2.015,0.722
		s1.611-0.269,2.031-0.722c0.486-0.537,0.671-1.376,0.671-2.484v-7.469c0.151-0.05,0.42-0.083,0.571-0.083
		c0.167,0,0.419,0.033,0.57,0.083v7.302c0,1.494-0.285,2.534-0.99,3.239c-0.621,0.621-1.562,0.974-2.854,0.974
		c-1.293,0-2.216-0.353-2.837-0.974c-0.705-0.705-0.99-1.746-0.99-3.239v-7.302c0.135-0.05,0.369-0.083,0.571-0.083
		c0.201,0,0.402,0.033,0.57,0.083V61.264z"/>
	<path fill="#333333" d="M198.813,65.142c-0.135,0.05-0.403,0.084-0.604,0.084s-0.437-0.017-0.722-0.084l-3.743-5.572l-1.208,1.359
		v4.213c-0.135,0.05-0.403,0.084-0.588,0.084s-0.42-0.034-0.554-0.084V53.795c0.134-0.05,0.369-0.083,0.554-0.083
		s0.453,0.033,0.588,0.083v5.69l3.575-4.096c0.503-0.571,0.771-1.125,0.855-1.595c0.151-0.017,0.369-0.05,0.537-0.05
		s0.437,0.034,0.554,0.05c-0.033,0.537-0.369,1.259-1.057,2.048l-2.519,2.904L198.813,65.142z"/>
	<path fill="#333333" d="M209.82,62.993c0,0.604,0,1.359,0.034,2.148c-0.117,0.05-0.302,0.084-0.453,0.084
		c-0.135,0-0.319-0.034-0.453-0.084c-0.051-0.269-0.084-0.621-0.101-0.94h-0.018c-0.57,0.705-1.577,1.108-2.567,1.108
		c-1.562,0-2.87-0.873-2.87-2.669c0-1.024,0.419-1.779,1.074-2.249c0.738-0.521,1.712-0.688,2.752-0.688
		c0.588,0,1.074,0.034,1.511,0.101v-0.487c0-1.679-0.688-2.232-2.098-2.232c-0.789,0-1.763,0.168-2.367,0.319
		c-0.033-0.084-0.066-0.269-0.066-0.437c0-0.117,0.033-0.285,0.084-0.386c0.722-0.218,1.678-0.353,2.483-0.353
		c1.998,0,3.055,0.906,3.055,2.954V62.993z M208.729,60.626c-0.486-0.067-0.99-0.101-1.427-0.101c-0.822,0-1.561,0.151-2.064,0.537
		c-0.453,0.335-0.705,0.873-0.705,1.561c0,1.225,0.789,1.812,1.88,1.812c0.907,0,1.863-0.437,2.316-1.125V60.626z"/>
	<path fill="#333333" d="M218.849,65.158c-0.135,0.034-0.336,0.067-0.537,0.067c-0.168,0-0.387-0.034-0.554-0.084v-5.321
		c0-0.806-0.102-1.427-0.336-1.863c-0.285-0.537-0.822-0.806-1.695-0.806c-0.84,0-1.847,0.47-2.501,0.973v7.016
		c-0.185,0.05-0.369,0.084-0.57,0.084c-0.168,0-0.37-0.034-0.521-0.084v-8.745c0.117-0.05,0.318-0.067,0.437-0.067
		c0.167,0,0.369,0.017,0.47,0.067l0.084,0.873h0.017c0.923-0.755,1.98-1.041,2.837-1.041c0.855,0,1.745,0.285,2.232,0.873
		c0.537,0.638,0.638,1.561,0.638,2.468V65.158z"/>
	<path fill="#333333" d="M227.104,65.226c-0.151,0-0.336-0.05-0.437-0.084l-0.101-1.007h-0.017
		c-0.722,0.755-1.578,1.175-2.534,1.175c-2.316,0-3.425-1.93-3.425-4.28c0-2.333,0.99-4.8,3.659-4.8c0.84,0,1.611,0.285,2.232,0.722
		v-4.062c0.151-0.05,0.353-0.084,0.537-0.084c0.201,0,0.403,0.051,0.554,0.084v12.253C227.456,65.192,227.288,65.226,227.104,65.226
		z M226.482,57.874c-0.604-0.504-1.376-0.755-2.165-0.755c-1.947,0-2.602,1.914-2.602,3.86c0,1.494,0.47,3.441,2.35,3.441
		c0.906,0,1.83-0.453,2.417-1.158V57.874z"/>
	<path fill="#333333" d="M235.006,65.142c-0.134,0.05-0.386,0.084-0.57,0.084s-0.437-0.034-0.571-0.084V53.795
		c0.135-0.05,0.387-0.083,0.571-0.083s0.437,0.033,0.57,0.083V65.142z"/>
	<path fill="#333333" d="M241.517,57.203c-0.973,0.134-2.03,0.487-2.819,1.091v6.848c-0.168,0.05-0.369,0.084-0.554,0.084
		s-0.369-0.034-0.537-0.084v-8.745c0.101-0.034,0.252-0.067,0.419-0.067c0.135,0,0.319,0.034,0.453,0.067l0.084,1.074h0.018
		c0.722-0.621,1.98-1.142,2.937-1.242c0.034,0.101,0.067,0.285,0.067,0.437C241.584,56.833,241.551,57.051,241.517,57.203z"/>
	<path fill="#333333" d="M249.02,61.063h-5.623c0.066,1.93,0.974,3.391,3.071,3.391c0.755,0,1.46-0.101,2.081-0.252
		c0.034,0.084,0.067,0.252,0.067,0.353c0,0.168-0.033,0.319-0.084,0.437c-0.654,0.201-1.477,0.319-2.165,0.319
		c-1.326,0-2.333-0.42-2.954-1.091c-0.738-0.806-1.125-2.014-1.125-3.407c0-2.434,1.226-4.582,3.676-4.582
		c2.199,0,3.072,1.812,3.072,4.028C249.036,60.509,249.036,60.811,249.02,61.063z M247.945,60.257c0-1.544-0.168-3.206-2.031-3.206
		c-1.628,0-2.417,1.494-2.518,3.206H247.945z"/>
	<path fill="#333333" d="M251.987,65.142c-0.185,0.05-0.369,0.084-0.57,0.084c-0.168,0-0.369-0.034-0.521-0.084V52.889
		c0.151-0.033,0.336-0.084,0.554-0.084c0.185,0,0.387,0.034,0.537,0.084V65.142z"/>
	<path fill="#333333" d="M260.279,62.993c0,0.604,0,1.359,0.033,2.148c-0.117,0.05-0.303,0.084-0.453,0.084
		c-0.135,0-0.319-0.034-0.453-0.084c-0.051-0.269-0.084-0.621-0.101-0.94h-0.018c-0.57,0.705-1.577,1.108-2.567,1.108
		c-1.562,0-2.87-0.873-2.87-2.669c0-1.024,0.419-1.779,1.074-2.249c0.738-0.521,1.712-0.688,2.752-0.688
		c0.588,0,1.074,0.034,1.511,0.101v-0.487c0-1.679-0.688-2.232-2.098-2.232c-0.789,0-1.763,0.168-2.367,0.319
		c-0.033-0.084-0.066-0.269-0.066-0.437c0-0.117,0.033-0.285,0.084-0.386c0.722-0.218,1.678-0.353,2.483-0.353
		c1.998,0,3.056,0.906,3.056,2.954V62.993z M259.188,60.626c-0.486-0.067-0.99-0.101-1.427-0.101c-0.822,0-1.561,0.151-2.064,0.537
		c-0.453,0.335-0.705,0.873-0.705,1.561c0,1.225,0.789,1.812,1.88,1.812c0.907,0,1.863-0.437,2.316-1.125V60.626z"/>
	<path fill="#333333" d="M269.307,65.158c-0.135,0.034-0.336,0.067-0.537,0.067c-0.168,0-0.387-0.034-0.554-0.084v-5.321
		c0-0.806-0.102-1.427-0.336-1.863c-0.285-0.537-0.822-0.806-1.695-0.806c-0.839,0-1.847,0.47-2.501,0.973v7.016
		c-0.185,0.05-0.369,0.084-0.57,0.084c-0.168,0-0.37-0.034-0.521-0.084v-8.745c0.117-0.05,0.318-0.067,0.437-0.067
		c0.168,0,0.369,0.017,0.47,0.067l0.084,0.873h0.017c0.923-0.755,1.98-1.041,2.837-1.041c0.855,0,1.745,0.285,2.232,0.873
		c0.537,0.638,0.638,1.561,0.638,2.468V65.158z"/>
	<path fill="#333333" d="M277.562,65.226c-0.151,0-0.336-0.05-0.437-0.084l-0.101-1.007h-0.017
		c-0.722,0.755-1.578,1.175-2.534,1.175c-2.316,0-3.425-1.93-3.425-4.28c0-2.333,0.99-4.8,3.659-4.8c0.84,0,1.611,0.285,2.232,0.722
		v-4.062c0.151-0.05,0.353-0.084,0.537-0.084c0.201,0,0.403,0.051,0.554,0.084v12.253C277.914,65.192,277.746,65.226,277.562,65.226
		z M276.94,57.874c-0.604-0.504-1.376-0.755-2.165-0.755c-1.947,0-2.602,1.914-2.602,3.86c0,1.494,0.47,3.441,2.35,3.441
		c0.906,0,1.83-0.453,2.417-1.158V57.874z"/>
</g>
<path fill="#333333" d="M10.421,85.565c-0.437,0.151-1.092,0.251-1.579,0.251c-1.662,0-2.45-0.788-2.45-2.652v-5.405H4.881
	c-0.034-0.083-0.05-0.285-0.05-0.386c0-0.083,0.016-0.285,0.05-0.368l1.511-0.102v-2.282c0.135-0.051,0.353-0.084,0.537-0.084
	c0.186,0,0.421,0.033,0.554,0.084v2.282H9.95c0.035,0.084,0.067,0.337,0.067,0.42c0,0.117-0.033,0.318-0.067,0.436H7.482v5.305
	c0,1.326,0.386,1.88,1.428,1.88c0.57,0,1.125-0.085,1.511-0.203c0.033,0.085,0.067,0.286,0.067,0.404
	C10.488,85.296,10.471,85.414,10.421,85.565z M14.75,85.816c-2.2,0-3.609-1.51-3.609-4.532c0-3.02,1.428-4.548,3.626-4.548
	s3.592,1.493,3.592,4.515C18.358,84.271,16.949,85.816,14.75,85.816z M14.767,77.559c-1.612,0-2.485,1.242-2.485,3.709
	c0,2.467,0.855,3.726,2.468,3.726c1.611,0,2.467-1.259,2.467-3.726C17.217,78.801,16.377,77.559,14.767,77.559z M26.965,85.816
	c-2.198,0-3.609-1.51-3.609-4.532c0-3.02,1.428-4.548,3.626-4.548c2.199,0,3.592,1.493,3.592,4.515
	C30.574,84.271,29.165,85.816,26.965,85.816z M26.982,77.559c-1.611,0-2.484,1.242-2.484,3.709c0,2.467,0.856,3.726,2.467,3.726
	c1.612,0,2.468-1.259,2.468-3.726C29.433,78.801,28.593,77.559,26.982,77.559z M38.143,76.903v-0.284
	c0-1.192,0.201-2.015,0.889-2.703c0.487-0.487,1.209-0.722,2.032-0.722c0.435,0,0.923,0.102,1.226,0.219
	c0.032,0.083,0.049,0.2,0.049,0.318c0,0.101-0.017,0.303-0.049,0.386c-0.254-0.067-0.707-0.134-1.059-0.134
	c-0.639,0-1.109,0.168-1.428,0.521c-0.486,0.52-0.569,1.224-0.569,2.115v0.284h2.367c0.033,0.084,0.066,0.286,0.066,0.403
	c0,0.134-0.033,0.335-0.066,0.453h-2.367v7.89c-0.151,0.05-0.319,0.083-0.537,0.083c-0.219,0-0.405-0.033-0.554-0.083v-7.89h-3.878
	v7.89c-0.151,0.05-0.319,0.083-0.537,0.083c-0.219,0-0.403-0.033-0.554-0.083v-7.89h-1.511c-0.033-0.083-0.051-0.302-0.051-0.402
	c0-0.084,0.019-0.269,0.051-0.352l1.511-0.102v-0.284c0-1.192,0.201-2.015,0.889-2.703c0.488-0.487,1.208-0.722,2.032-0.722
	c0.436,0,0.923,0.102,1.226,0.219c0.032,0.083,0.049,0.2,0.049,0.318c0,0.101-0.017,0.303-0.049,0.386
	c-0.251-0.067-0.705-0.134-1.058-0.134c-0.638,0-1.108,0.168-1.429,0.521c-0.485,0.52-0.569,1.224-0.569,2.115v0.284H38.143z
	 M49.018,81.57h-5.625c0.068,1.93,0.974,3.39,3.072,3.39c0.755,0,1.46-0.101,2.081-0.25c0.035,0.083,0.068,0.25,0.068,0.353
	c0,0.166-0.033,0.318-0.084,0.436c-0.653,0.2-1.477,0.318-2.165,0.318c-1.326,0-2.332-0.42-2.955-1.091
	c-0.737-0.806-1.123-2.014-1.123-3.408c0-2.433,1.225-4.582,3.676-4.582c2.197,0,3.071,1.812,3.071,4.028
	C49.033,81.015,49.033,81.317,49.018,81.57z M47.943,80.764c0-1.545-0.169-3.206-2.032-3.206c-1.627,0-2.416,1.493-2.519,3.206
	H47.943z M54.771,77.709c-0.972,0.134-2.03,0.487-2.82,1.092v6.848c-0.168,0.05-0.367,0.083-0.553,0.083
	c-0.184,0-0.37-0.033-0.537-0.083v-8.746c0.103-0.033,0.25-0.067,0.42-0.067c0.134,0,0.319,0.034,0.454,0.067l0.084,1.074h0.015
	c0.722-0.621,1.981-1.141,2.937-1.241c0.035,0.1,0.067,0.284,0.067,0.436C54.838,77.339,54.805,77.559,54.771,77.709z M66.132,83.5
	c0,0.604,0,1.359,0.033,2.148c-0.117,0.05-0.303,0.083-0.454,0.083c-0.133,0-0.318-0.033-0.454-0.083
	c-0.048-0.268-0.083-0.621-0.1-0.939h-0.017c-0.572,0.705-1.578,1.106-2.569,1.106c-1.56,0-2.869-0.872-2.869-2.667
	c0-1.024,0.418-1.781,1.074-2.25c0.739-0.52,1.711-0.688,2.753-0.688c0.588,0,1.074,0.033,1.511,0.101v-0.486
	c0-1.68-0.688-2.233-2.099-2.233c-0.789,0-1.762,0.167-2.368,0.319c-0.033-0.084-0.065-0.27-0.065-0.437
	c0-0.118,0.032-0.286,0.083-0.386c0.721-0.218,1.677-0.352,2.483-0.352c1.997,0,3.055,0.905,3.055,2.954V83.5z M65.042,81.133
	c-0.488-0.066-0.991-0.1-1.428-0.1c-0.823,0-1.561,0.151-2.065,0.538c-0.453,0.334-0.704,0.872-0.704,1.56
	c0,1.226,0.789,1.814,1.878,1.814c0.907,0,1.865-0.438,2.318-1.126V81.133z M75.16,85.665c-0.135,0.034-0.334,0.067-0.537,0.067
	c-0.168,0-0.386-0.033-0.554-0.083v-5.321c0-0.806-0.101-1.427-0.335-1.863c-0.285-0.537-0.823-0.806-1.696-0.806
	c-0.84,0-1.846,0.47-2.5,0.974v7.016c-0.186,0.05-0.37,0.083-0.572,0.083c-0.167,0-0.368-0.033-0.519-0.083v-8.746
	c0.116-0.049,0.319-0.067,0.435-0.067c0.167,0,0.37,0.018,0.47,0.067l0.085,0.874h0.017c0.923-0.756,1.981-1.041,2.837-1.041
	c0.855,0,1.745,0.284,2.232,0.872c0.538,0.639,0.638,1.562,0.638,2.468V85.665z M87.527,82.325c0,2.551-1.056,3.491-3.272,3.491
	c-2.267,0-3.223-0.94-3.223-3.406v-5.507c0.151-0.049,0.352-0.084,0.538-0.084c0.234,0,0.418,0.051,0.553,0.084v5.372
	c0,1.627,0.251,2.702,2.148,2.702c1.78,0,2.165-1.042,2.165-2.736v-5.338c0.136-0.049,0.37-0.084,0.554-0.084
	c0.186,0,0.386,0.035,0.537,0.084V82.325z M96.471,85.665c-0.132,0.034-0.335,0.067-0.535,0.067c-0.169,0-0.386-0.033-0.555-0.083
	v-5.321c0-0.806-0.101-1.427-0.335-1.863c-0.286-0.537-0.824-0.806-1.696-0.806c-0.839,0-1.847,0.47-2.502,0.974v7.016
	c-0.183,0.05-0.369,0.083-0.57,0.083c-0.168,0-0.37-0.033-0.521-0.083v-8.746c0.119-0.049,0.319-0.067,0.437-0.067
	c0.167,0,0.369,0.018,0.47,0.067l0.083,0.874h0.016c0.922-0.756,1.98-1.041,2.837-1.041c0.856,0,1.746,0.284,2.231,0.872
	c0.538,0.639,0.638,1.562,0.638,2.468V85.665z M104.729,85.731c-0.151,0-0.337-0.049-0.437-0.083l-0.101-1.007h-0.018
	c-0.722,0.754-1.578,1.174-2.535,1.174c-2.316,0-3.424-1.93-3.424-4.28c0-2.333,0.991-4.8,3.661-4.8
	c0.837,0,1.609,0.284,2.232,0.721v-4.061c0.151-0.051,0.351-0.085,0.537-0.085c0.2,0,0.402,0.052,0.553,0.085v12.253
	C105.08,85.698,104.913,85.731,104.729,85.731z M104.108,78.381c-0.605-0.505-1.376-0.756-2.167-0.756c-1.947,0-2.6,1.914-2.6,3.861
	c0,1.493,0.47,3.44,2.348,3.44c0.907,0,1.831-0.453,2.419-1.158V78.381z M113.721,81.57h-5.623c0.067,1.93,0.974,3.39,3.072,3.39
	c0.755,0,1.46-0.101,2.081-0.25c0.036,0.083,0.068,0.25,0.068,0.353c0,0.166-0.032,0.318-0.083,0.436
	c-0.654,0.2-1.477,0.318-2.166,0.318c-1.325,0-2.334-0.42-2.955-1.091c-0.737-0.806-1.124-2.014-1.124-3.408
	c0-2.433,1.226-4.582,3.676-4.582c2.199,0,3.073,1.812,3.073,4.028C113.74,81.015,113.74,81.317,113.721,81.57z M112.647,80.764
	c0-1.545-0.168-3.206-2.03-3.206c-1.629,0-2.417,1.493-2.519,3.206H112.647z M119.477,77.709c-0.973,0.134-2.029,0.487-2.82,1.092
	v6.848c-0.167,0.05-0.368,0.083-0.554,0.083c-0.184,0-0.37-0.033-0.537-0.083v-8.746c0.1-0.033,0.25-0.067,0.42-0.067
	c0.134,0,0.319,0.034,0.452,0.067l0.085,1.074h0.018c0.72-0.621,1.98-1.141,2.936-1.241c0.035,0.1,0.067,0.284,0.067,0.436
	C119.544,77.339,119.512,77.559,119.477,77.709z M127.062,84.188c0,1.259-0.068,2.769-0.672,3.81
	c-0.721,1.242-2.014,1.78-3.307,1.78c-0.737,0-1.376-0.085-1.914-0.269c-0.048-0.102-0.067-0.269-0.067-0.403
	c0-0.1,0.034-0.303,0.067-0.402c0.521,0.133,1.125,0.235,1.729,0.235c2.115,0,3.073-1.31,3.073-3.609v-0.706
	c-0.657,0.688-1.58,1.024-2.335,1.024c-2.232,0-3.39-1.729-3.39-4.162c0-2.988,1.763-4.75,4.364-4.75
	c0.689,0,1.73,0.201,2.451,0.486V84.188z M125.973,77.759c-0.605-0.167-1.043-0.218-1.461-0.218c-2.133,0-3.14,1.796-3.14,3.894
	c0,1.864,0.705,3.324,2.351,3.324c0.839,0,1.695-0.42,2.25-1.006V77.759z M133.255,77.709c-0.974,0.134-2.032,0.487-2.821,1.092
	v6.848c-0.169,0.05-0.369,0.083-0.555,0.083c-0.184,0-0.368-0.033-0.535-0.083v-8.746c0.1-0.033,0.251-0.067,0.418-0.067
	c0.135,0,0.318,0.034,0.454,0.067l0.083,1.074h0.016c0.723-0.621,1.981-1.141,2.939-1.241c0.033,0.1,0.065,0.284,0.065,0.436
	C133.32,77.339,133.288,77.559,133.255,77.709z M140.387,83.5c0,0.604,0,1.359,0.034,2.148c-0.12,0.05-0.303,0.083-0.455,0.083
	c-0.133,0-0.318-0.033-0.453-0.083c-0.049-0.268-0.084-0.621-0.101-0.939h-0.016c-0.572,0.705-1.579,1.106-2.57,1.106
	c-1.56,0-2.869-0.872-2.869-2.667c0-1.024,0.418-1.781,1.074-2.25c0.74-0.52,1.712-0.688,2.753-0.688
	c0.586,0,1.075,0.033,1.509,0.101v-0.486c0-1.68-0.688-2.233-2.097-2.233c-0.789,0-1.763,0.167-2.367,0.319
	c-0.034-0.084-0.067-0.27-0.067-0.437c0-0.118,0.034-0.286,0.083-0.386c0.723-0.218,1.679-0.352,2.485-0.352
	c1.997,0,3.055,0.905,3.055,2.954V83.5z M139.294,81.133c-0.486-0.066-0.989-0.1-1.425-0.1c-0.823,0-1.562,0.151-2.065,0.538
	c-0.454,0.334-0.705,0.872-0.705,1.56c0,1.226,0.788,1.814,1.879,1.814c0.906,0,1.862-0.438,2.315-1.126V81.133z M148.727,85.731
	c-0.151,0-0.336-0.049-0.437-0.083l-0.1-1.007h-0.018c-0.723,0.754-1.579,1.174-2.534,1.174c-2.318,0-3.425-1.93-3.425-4.28
	c0-2.333,0.991-4.8,3.66-4.8c0.839,0,1.612,0.284,2.232,0.721v-4.061c0.151-0.051,0.354-0.085,0.537-0.085
	c0.202,0,0.403,0.052,0.554,0.085v12.253C149.08,85.698,148.91,85.731,148.727,85.731z M148.105,78.381
	c-0.604-0.505-1.376-0.756-2.165-0.756c-1.948,0-2.602,1.914-2.602,3.861c0,1.493,0.47,3.44,2.348,3.44
	c0.907,0,1.831-0.453,2.418-1.158V78.381z M157.921,82.325c0,2.551-1.057,3.491-3.271,3.491c-2.267,0-3.224-0.94-3.224-3.406v-5.507
	c0.152-0.049,0.352-0.084,0.539-0.084c0.233,0,0.418,0.051,0.553,0.084v5.372c0,1.627,0.25,2.702,2.148,2.702
	c1.778,0,2.165-1.042,2.165-2.736v-5.338c0.135-0.049,0.369-0.084,0.553-0.084c0.186,0,0.386,0.035,0.537,0.084V82.325z
	 M166.128,83.5c0,0.604,0,1.359,0.032,2.148c-0.117,0.05-0.301,0.083-0.453,0.083c-0.133,0-0.317-0.033-0.453-0.083
	c-0.051-0.268-0.083-0.621-0.101-0.939h-0.017c-0.57,0.705-1.578,1.106-2.567,1.106c-1.562,0-2.871-0.872-2.871-2.667
	c0-1.024,0.421-1.781,1.074-2.25c0.738-0.52,1.712-0.688,2.754-0.688c0.589,0,1.074,0.033,1.512,0.101v-0.486
	c0-1.68-0.688-2.233-2.099-2.233c-0.789,0-1.765,0.167-2.369,0.319c-0.032-0.084-0.064-0.27-0.064-0.437
	c0-0.118,0.032-0.286,0.083-0.386c0.72-0.218,1.679-0.352,2.482-0.352c1.999,0,3.057,0.905,3.057,2.954V83.5z M165.038,81.133
	c-0.49-0.066-0.992-0.1-1.427-0.1c-0.823,0-1.562,0.151-2.065,0.538c-0.454,0.334-0.706,0.872-0.706,1.56
	c0,1.226,0.789,1.814,1.879,1.814c0.906,0,1.865-0.438,2.319-1.126V81.133z M173.091,85.565c-0.436,0.151-1.091,0.251-1.576,0.251
	c-1.663,0-2.45-0.788-2.45-2.652v-5.405h-1.514c-0.032-0.083-0.049-0.285-0.049-0.386c0-0.083,0.017-0.285,0.049-0.368l1.514-0.102
	v-2.282c0.133-0.051,0.35-0.084,0.536-0.084c0.182,0,0.419,0.033,0.552,0.084v2.282h2.469c0.034,0.084,0.066,0.337,0.066,0.42
	c0,0.117-0.032,0.318-0.066,0.436h-2.469v5.305c0,1.326,0.387,1.88,1.429,1.88c0.57,0,1.125-0.085,1.51-0.203
	c0.034,0.085,0.068,0.286,0.068,0.404C173.159,85.296,173.141,85.414,173.091,85.565z M180.542,81.57h-5.622
	c0.066,1.93,0.973,3.39,3.069,3.39c0.756,0,1.46-0.101,2.081-0.25c0.037,0.083,0.067,0.25,0.067,0.353
	c0,0.166-0.03,0.318-0.083,0.436c-0.653,0.2-1.478,0.318-2.165,0.318c-1.325,0-2.335-0.42-2.954-1.091
	c-0.738-0.806-1.123-2.014-1.123-3.408c0-2.433,1.225-4.582,3.675-4.582c2.199,0,3.073,1.812,3.073,4.028
	C180.561,81.015,180.561,81.317,180.542,81.57z M179.466,80.764c0-1.545-0.166-3.206-2.029-3.206c-1.627,0-2.416,1.493-2.517,3.206
	H179.466z M192.104,85.731c-0.152,0-0.336-0.049-0.438-0.083l-0.099-1.007h-0.017c-0.722,0.754-1.58,1.174-2.535,1.174
	c-2.316,0-3.426-1.93-3.426-4.28c0-2.333,0.992-4.8,3.66-4.8c0.84,0,1.613,0.284,2.232,0.721v-4.061
	c0.151-0.051,0.354-0.085,0.538-0.085c0.202,0,0.402,0.052,0.555,0.085v12.253C192.457,85.698,192.289,85.731,192.104,85.731z
	 M191.482,78.381c-0.604-0.505-1.376-0.756-2.165-0.756c-1.948,0-2.601,1.914-2.601,3.861c0,1.493,0.47,3.44,2.35,3.44
	c0.904,0,1.829-0.453,2.416-1.158V78.381z M201.099,81.57h-5.622c0.066,1.93,0.971,3.39,3.071,3.39c0.754,0,1.458-0.101,2.082-0.25
	c0.032,0.083,0.066,0.25,0.066,0.353c0,0.166-0.034,0.318-0.085,0.436c-0.653,0.2-1.478,0.318-2.167,0.318
	c-1.325,0-2.331-0.42-2.952-1.091c-0.738-0.806-1.125-2.014-1.125-3.408c0-2.433,1.225-4.582,3.677-4.582
	c2.197,0,3.071,1.812,3.071,4.028C201.115,81.015,201.115,81.317,201.099,81.57z M200.024,80.764c0-1.545-0.168-3.206-2.033-3.206
	c-1.627,0-2.416,1.493-2.515,3.206H200.024z M209.271,84.188c0,1.259-0.066,2.769-0.673,3.81c-0.721,1.242-2.014,1.78-3.307,1.78
	c-0.736,0-1.376-0.085-1.914-0.269c-0.049-0.102-0.064-0.269-0.064-0.403c0-0.1,0.034-0.303,0.064-0.402
	c0.522,0.133,1.125,0.235,1.732,0.235c2.114,0,3.071-1.31,3.071-3.609v-0.706c-0.658,0.688-1.58,1.024-2.333,1.024
	c-2.233,0-3.394-1.729-3.394-4.162c0-2.988,1.763-4.75,4.366-4.75c0.688,0,1.729,0.201,2.45,0.486V84.188z M208.181,77.759
	c-0.605-0.167-1.042-0.218-1.461-0.218c-2.133,0-3.139,1.796-3.139,3.894c0,1.864,0.704,3.324,2.35,3.324
	c0.84,0,1.695-0.42,2.25-1.006V77.759z M215.46,77.709c-0.971,0.134-2.029,0.487-2.818,1.092v6.848
	c-0.168,0.05-0.37,0.083-0.552,0.083c-0.187,0-0.371-0.033-0.541-0.083v-8.746c0.104-0.033,0.253-0.067,0.421-0.067
	c0.136,0,0.32,0.034,0.453,0.067l0.085,1.074h0.017c0.723-0.621,1.98-1.141,2.936-1.241c0.034,0.1,0.069,0.284,0.069,0.436
	C215.529,77.339,215.494,77.559,215.46,77.709z M222.963,81.57h-5.623c0.066,1.93,0.974,3.39,3.071,3.39
	c0.757,0,1.461-0.101,2.082-0.25c0.034,0.083,0.066,0.25,0.066,0.353c0,0.166-0.032,0.318-0.083,0.436
	c-0.653,0.2-1.477,0.318-2.164,0.318c-1.328,0-2.335-0.42-2.956-1.091c-0.737-0.806-1.123-2.014-1.123-3.408
	c0-2.433,1.224-4.582,3.676-4.582c2.197,0,3.071,1.812,3.071,4.028C222.98,81.015,222.98,81.317,222.963,81.57z M221.889,80.764
	c0-1.545-0.168-3.206-2.03-3.206c-1.628,0-2.417,1.493-2.519,3.206H221.889z M231.05,81.57h-5.621c0.065,1.93,0.974,3.39,3.071,3.39
	c0.755,0,1.461-0.101,2.08-0.25c0.037,0.083,0.067,0.25,0.067,0.353c0,0.166-0.03,0.318-0.083,0.436
	c-0.654,0.2-1.478,0.318-2.165,0.318c-1.325,0-2.335-0.42-2.954-1.091c-0.738-0.806-1.123-2.014-1.123-3.408
	c0-2.433,1.224-4.582,3.674-4.582c2.197,0,3.074,1.812,3.074,4.028C231.07,81.015,231.07,81.317,231.05,81.57z M229.976,80.764
	c0-1.545-0.166-3.206-2.029-3.206c-1.629,0-2.416,1.493-2.518,3.206H229.976z M242.093,77.961c-0.538-0.218-1.242-0.354-1.863-0.354
	c-2.182,0-2.988,1.697-2.988,3.744c0,2.014,0.772,3.575,2.97,3.575c0.589,0,1.295-0.1,1.815-0.251
	c0.034,0.1,0.066,0.218,0.066,0.353c0,0.2-0.032,0.353-0.085,0.47c-0.485,0.2-1.272,0.318-1.894,0.318
	c-2.737,0-4.015-1.795-4.015-4.431c0-2.735,1.393-4.649,4.063-4.649c0.637,0,1.392,0.151,1.911,0.386
	c0.053,0.133,0.069,0.269,0.069,0.419C242.144,77.709,242.127,77.843,242.093,77.961z M247.008,85.816
	c-2.197,0-3.608-1.51-3.608-4.532c0-3.02,1.427-4.548,3.628-4.548c2.197,0,3.59,1.493,3.59,4.515
	C250.617,84.271,249.207,85.816,247.008,85.816z M247.027,77.559c-1.614,0-2.486,1.242-2.486,3.709c0,2.467,0.855,3.726,2.467,3.726
	c1.612,0,2.47-1.259,2.47-3.726C249.478,78.801,248.634,77.559,247.027,77.559z M258.855,82.325c0,2.551-1.058,3.491-3.271,3.491
	c-2.268,0-3.223-0.94-3.223-3.406v-5.507c0.151-0.049,0.352-0.084,0.538-0.084c0.234,0,0.417,0.051,0.552,0.084v5.372
	c0,1.627,0.251,2.702,2.149,2.702c1.78,0,2.167-1.042,2.167-2.736v-5.338c0.133-0.049,0.368-0.084,0.55-0.084
	c0.187,0,0.389,0.035,0.538,0.084V82.325z M264.999,77.709c-0.976,0.134-2.032,0.487-2.821,1.092v6.848
	c-0.168,0.05-0.37,0.083-0.554,0.083c-0.185,0-0.368-0.033-0.536-0.083v-8.746c0.099-0.033,0.251-0.067,0.419-0.067
	c0.133,0,0.319,0.034,0.453,0.067l0.083,1.074h0.02c0.719-0.621,1.977-1.141,2.937-1.241c0.03,0.1,0.066,0.284,0.066,0.436
	C265.065,77.339,265.029,77.559,264.999,77.709z M268.637,85.816c-0.838,0-1.712-0.151-2.314-0.386
	c-0.049-0.118-0.085-0.319-0.085-0.47c0-0.101,0.036-0.352,0.068-0.453c0.619,0.252,1.512,0.453,2.248,0.453
	c1.276,0,2.065-0.537,2.065-1.595c0-0.956-0.487-1.292-1.812-1.778c-1.846-0.671-2.452-1.445-2.452-2.585
	c0-1.545,1.276-2.266,2.921-2.266c0.555,0,1.277,0.1,1.696,0.235c0.05,0.151,0.068,0.302,0.068,0.402
	c0,0.135-0.036,0.371-0.068,0.488c-0.553-0.168-1.142-0.269-1.714-0.269c-1.189,0-1.91,0.453-1.91,1.377
	c0,0.805,0.451,1.191,1.827,1.711c1.261,0.471,2.418,0.94,2.418,2.635C271.593,85.028,270.3,85.816,268.637,85.816z M279.613,81.57
	h-5.623c0.068,1.93,0.975,3.39,3.071,3.39c0.757,0,1.461-0.101,2.084-0.25c0.032,0.083,0.066,0.25,0.066,0.353
	c0,0.166-0.034,0.318-0.085,0.436c-0.655,0.2-1.477,0.318-2.165,0.318c-1.327,0-2.332-0.42-2.956-1.091
	c-0.736-0.806-1.122-2.014-1.122-3.408c0-2.433,1.226-4.582,3.676-4.582c2.199,0,3.073,1.812,3.073,4.028
	C279.633,81.015,279.633,81.317,279.613,81.57z M278.538,80.764c0-1.545-0.165-3.206-2.029-3.206c-1.629,0-2.42,1.493-2.519,3.206
	H278.538z M285.756,75.19c-0.387,0-0.706-0.334-0.706-0.738c0-0.403,0.319-0.722,0.706-0.722c0.384,0,0.72,0.319,0.72,0.722
	C286.476,74.856,286.14,75.19,285.756,75.19z M286.308,85.648c-0.149,0.05-0.368,0.083-0.552,0.083
	c-0.187,0-0.387-0.033-0.541-0.083v-8.746c0.136-0.033,0.354-0.084,0.522-0.084c0.187,0,0.438,0.035,0.57,0.084V85.648z
	 M295.37,85.665c-0.132,0.034-0.336,0.067-0.536,0.067c-0.168,0-0.387-0.033-0.555-0.083v-5.321c0-0.806-0.099-1.427-0.333-1.863
	c-0.288-0.537-0.824-0.806-1.696-0.806c-0.839,0-1.847,0.47-2.503,0.974v7.016c-0.184,0.05-0.368,0.083-0.57,0.083
	c-0.168,0-0.368-0.033-0.52-0.083v-8.746c0.117-0.049,0.319-0.067,0.435-0.067c0.17,0,0.372,0.018,0.472,0.067l0.085,0.874h0.017
	c0.922-0.756,1.98-1.041,2.836-1.041c0.856,0,1.746,0.284,2.231,0.872c0.539,0.639,0.638,1.562,0.638,2.468V85.665z"/>
<g>
	<path fill="#66A71E" d="M17.474,142.182c-3.508,0-7.195-0.535-10.049-1.487c-0.179-0.892-0.238-2.021-0.238-3.211
		c0-0.951,0.238-2.319,0.476-3.151c2.735,0.951,6.66,1.605,8.979,1.605c3.211,0,5.054-1.07,5.054-3.271
		c0-1.903-1.486-2.795-5.411-4.043c-6.244-1.962-9.157-4.876-9.157-9.396c0-6.719,6.184-9.217,12.071-9.217
		c2.735,0,5.768,0.476,7.85,1.13c0.238,0.892,0.356,2.141,0.356,2.854c0,0.773-0.238,2.378-0.535,3.389
		c-2.021-0.595-4.816-1.07-7.136-1.07c-2.854,0-4.816,0.713-4.816,2.498c0,1.903,2.2,2.676,5.649,3.806
		c6.006,1.962,8.86,4.459,8.86,9.157C29.426,139.03,23.599,142.182,17.474,142.182z"/>
	<path fill="#66A71E" d="M52.674,140.992c-1.784,0.714-3.924,1.189-7.374,1.189c-6.719,0-10.049-3.271-10.049-9.812v-15.639h-5.114
		c-0.238-0.892-0.416-2.378-0.416-3.151c0-0.713,0.178-2.022,0.356-2.616l5.173-0.357v-7.968c0.654-0.119,2.735-0.238,4.103-0.238
		c1.487,0,3.33,0.119,4.103,0.238v7.968h8.563c0.238,0.833,0.356,2.022,0.356,2.676c0,0.714-0.059,2.616-0.297,3.449h-8.622v14.45
		c0,2.973,1.189,4.282,4.103,4.282c1.605,0,3.568-0.238,4.936-0.714c0.238,0.773,0.535,2.26,0.535,3.627
		C53.031,139.089,52.912,140.338,52.674,140.992z"/>
	<path fill="#66A71E" d="M74.911,116.91c-3.092,0.476-6.422,1.546-9.396,3.092v21.585c-0.833,0.178-2.616,0.297-4.043,0.297
		s-3.508-0.119-4.163-0.297v-30.98c0.892-0.119,2.379-0.297,3.568-0.297c1.011,0,2.617,0.119,3.449,0.297l0.476,3.806
		c2.2-1.962,6.184-4.103,10.049-4.4c0.119,0.476,0.238,2.2,0.238,3.449C75.089,114.65,75.03,116.077,74.911,116.91z"/>
	<path fill="#66A71E" d="M102.44,132.965c0,2.557,0.059,5.471,0.059,8.622c-0.951,0.238-2.557,0.297-3.567,0.297
		c-1.13,0-2.617-0.119-3.568-0.297c-0.119-0.713-0.238-1.962-0.297-2.735h-0.119c-2.021,2.081-5.471,3.33-8.622,3.33
		c-5.946,0-10.228-3.687-10.228-9.812c0-9.514,8.444-11.12,15.52-11.12c0.476,0,1.606,0.06,2.557,0.119
		c0-0.356-0.06-1.129-0.119-1.427c-0.416-2.438-2.021-3.449-5.47-3.449c-2.676,0-6.422,0.535-9.276,1.249
		c-0.297-0.833-0.476-2.26-0.476-3.33c0-0.892,0.119-2.26,0.357-2.854c3.33-1.011,7.433-1.546,10.822-1.546
		c7.433,0,12.428,3.449,12.428,11.179V132.965z M94.234,127.078c-0.714-0.059-1.665-0.119-2.498-0.119
		c-5.352,0-7.433,2.141-7.433,4.816c0,2.319,1.546,3.925,4.222,3.925c1.962,0,4.163-0.952,5.708-2.319V127.078z"/>
	<path fill="#66A71E" d="M128.066,140.992c-1.784,0.714-3.924,1.189-7.374,1.189c-6.719,0-10.049-3.271-10.049-9.812v-15.639h-5.114
		c-0.238-0.892-0.416-2.378-0.416-3.151c0-0.713,0.178-2.022,0.356-2.616l5.173-0.357v-7.968c0.654-0.119,2.735-0.238,4.103-0.238
		c1.487,0,3.33,0.119,4.103,0.238v7.968h8.563c0.238,0.833,0.356,2.022,0.356,2.676c0,0.714-0.059,2.616-0.297,3.449h-8.622v14.45
		c0,2.973,1.189,4.282,4.103,4.282c1.605,0,3.568-0.238,4.936-0.714c0.238,0.773,0.535,2.26,0.535,3.627
		C128.423,139.089,128.304,140.338,128.066,140.992z"/>
	<path fill="#66A71E" d="M137.221,107.217c-2.498,0-4.52-2.021-4.52-4.519s2.022-4.519,4.52-4.519s4.519,2.021,4.519,4.519
		S139.719,107.217,137.221,107.217z M141.324,141.587c-1.07,0.238-3.271,0.297-4.222,0.297c-1.427,0-2.973-0.119-3.984-0.297v-30.98
		c1.308-0.178,2.914-0.297,3.984-0.297c1.427,0,2.914,0.119,4.222,0.297V141.587z"/>
	<path fill="#66A71E" d="M177.833,141.587c-1.07,0.238-3.271,0.297-4.222,0.297c-1.428,0-2.974-0.119-3.984-0.297v-24.856h-10.466
		v24.856c-0.832,0.178-2.795,0.297-4.043,0.297c-1.012,0-3.331-0.119-4.163-0.297v-24.856h-5.054
		c-0.297-0.773-0.416-2.141-0.416-2.854c0-1.011,0.178-2.26,0.476-2.914l4.995-0.357v-0.773c0-8.503,5.293-12.369,13.617-12.369
		c2.379,0,5.53,0.535,7.611,1.309c0.238,0.654,0.357,1.665,0.357,2.557c0,1.07-0.238,2.26-0.595,3.092
		c-1.665-0.476-4.223-0.892-5.946-0.892c-4.876,0-6.839,2.141-6.839,6.363v0.713h18.672V141.587z"/>
	<path fill="#66A71E" d="M210.178,128.98h-18.79c0.118,3.865,2.794,6.72,7.968,6.72c2.795,0,5.648-0.357,8.087-1.011
		c0.356,1.605,0.595,3.39,0.595,4.995c0,0.238,0,0.535-0.06,1.189c-3.032,0.892-6.185,1.308-9.276,1.308
		c-11.298,0-15.996-6.481-15.996-15.937c0-8.265,4.639-16.233,14.688-16.233c9.515,0,12.964,7.017,12.964,14.747
		C210.356,125.829,210.356,127.435,210.178,128.98z M202.15,123.094c0-3.746-1.011-6.898-4.876-6.898
		c-3.688,0-5.649,2.914-5.887,6.898H202.15z"/>
	<path fill="#66A71E" d="M241.097,141.587c-0.951,0.178-2.557,0.297-3.806,0.297c-1.13,0-2.438-0.119-3.271-0.297l-0.238-2.735
		c-2.141,2.081-4.876,3.33-8.087,3.33c-8.859,0-12.666-7.076-12.666-15.58c0-9.157,4.104-16.59,13.559-16.59
		c2.318,0,4.994,0.714,6.303,1.546v-13.32c1.07-0.178,2.854-0.297,4.162-0.297c1.605,0,2.854,0.178,4.044,0.297V141.587z
		 M232.891,117.683c-1.427-0.654-3.271-1.011-4.816-1.011c-4.816,0-6.601,4.281-6.601,9.455c0,4.341,1.07,9.276,5.887,9.276
		c2.319,0,4.104-0.952,5.53-2.141V117.683z"/>
</g>
<g>
	<path fill="#66A71E" d="M54.817,190.044c-0.951,0.238-2.973,0.297-3.924,0.297c-1.011,0-3.33-0.118-4.281-0.297v-18.672
		c0-2.259-0.06-3.924-0.892-4.936c-0.773-0.951-1.962-1.308-3.449-1.308c-2.022,0-4.876,0.892-6.72,2.021
		c0.06,1.011,0.119,2.021,0.119,3.211v19.683c-0.952,0.238-2.973,0.297-3.925,0.297c-1.011,0-3.33-0.118-4.281-0.297v-18.672
		c0-2.259-0.06-3.924-0.892-4.936c-0.773-0.951-1.962-1.308-3.449-1.308c-2.081,0-4.757,0.832-6.601,1.962v22.953
		c-1.368,0.238-3.271,0.297-4.341,0.297c-0.951,0-2.676-0.059-3.865-0.297v-30.98c0.773-0.179,2.676-0.297,3.568-0.297
		c0.833,0,2.557,0.118,3.449,0.297l0.356,2.795c2.617-1.963,6.363-3.39,9.693-3.39c3.449,0,6.481,1.189,8.8,3.746
		c3.211-2.2,7.076-3.746,11.001-3.746c2.914,0,5.887,1.189,7.374,2.974c1.843,2.2,2.259,5.054,2.259,9.395V190.044z"/>
	<path fill="#66A71E" d="M86.626,177.438H67.835c0.119,3.865,2.795,6.72,7.968,6.72c2.794,0,5.649-0.357,8.087-1.011
		c0.357,1.605,0.595,3.389,0.595,4.994c0,0.238,0,0.536-0.06,1.189c-3.033,0.893-6.184,1.309-9.276,1.309
		c-11.298,0-15.996-6.481-15.996-15.937c0-8.266,4.638-16.233,14.688-16.233c9.514,0,12.963,7.017,12.963,14.747
		C86.804,174.286,86.804,175.892,86.626,177.438z M78.598,171.551c0-3.746-1.011-6.897-4.876-6.897
		c-3.687,0-5.649,2.913-5.887,6.897H78.598z"/>
	<path fill="#66A71E" d="M117.544,190.044c-0.952,0.179-2.557,0.297-3.806,0.297c-1.13,0-2.438-0.118-3.271-0.297l-0.238-2.735
		c-2.141,2.081-4.876,3.33-8.087,3.33c-8.86,0-12.666-7.076-12.666-15.579c0-9.158,4.103-16.591,13.558-16.591
		c2.319,0,4.995,0.714,6.303,1.546v-13.32c1.07-0.178,2.854-0.297,4.163-0.297c1.605,0,2.854,0.178,4.043,0.297V190.044z
		 M109.338,166.14c-1.427-0.654-3.271-1.011-4.816-1.011c-4.817,0-6.601,4.281-6.601,9.454c0,4.341,1.07,9.276,5.887,9.276
		c2.319,0,4.103-0.951,5.53-2.141V166.14z"/>
	<path fill="#66A71E" d="M128.186,155.674c-2.498,0-4.52-2.021-4.52-4.519c0-2.498,2.022-4.52,4.52-4.52s4.519,2.021,4.519,4.52
		C132.705,153.652,130.683,155.674,128.186,155.674z M132.289,190.044c-1.07,0.238-3.271,0.297-4.222,0.297
		c-1.427,0-2.973-0.118-3.984-0.297v-30.98c1.308-0.179,2.914-0.297,3.984-0.297c1.427,0,2.914,0.118,4.222,0.297V190.044z"/>
	<path fill="#66A71E" d="M160.948,162.394c0,1.308-0.179,2.735-0.595,3.984c-1.963-0.773-4.52-1.249-6.957-1.249
		c-4.639,0-7.79,2.973-7.79,9.633c0,5.827,2.676,9.217,7.85,9.217c2.676,0,5.232-0.476,7.135-1.13
		c0.357,1.309,0.535,2.914,0.535,4.163c0,0.832,0,1.427-0.059,1.962c-2.379,1.07-5.53,1.665-8.504,1.665
		c-10.287,0-15.401-6.006-15.401-15.758c0-10.109,5.352-16.412,15.757-16.412c2.914,0,5.769,0.595,7.79,1.546
		C160.889,160.669,160.948,161.502,160.948,162.394z"/>
	<path fill="#66A71E" d="M170.578,155.674c-2.498,0-4.52-2.021-4.52-4.519c0-2.498,2.021-4.52,4.52-4.52
		c2.497,0,4.52,2.021,4.52,4.52C175.098,153.652,173.075,155.674,170.578,155.674z M174.681,190.044
		c-1.07,0.238-3.271,0.297-4.222,0.297c-1.427,0-2.973-0.118-3.984-0.297v-30.98c1.309-0.179,2.914-0.297,3.984-0.297
		c1.428,0,2.914,0.118,4.222,0.297V190.044z"/>
	<path fill="#66A71E" d="M208.573,190.044c-0.951,0.238-2.973,0.297-3.925,0.297c-1.011,0-3.33-0.118-4.281-0.297v-20.337
		c0-3.211-1.665-4.578-4.341-4.578c-2.141,0-4.578,0.772-6.481,1.962v22.953c-1.367,0.238-3.271,0.297-4.341,0.297
		c-0.951,0-2.676-0.059-3.865-0.297v-30.98c0.773-0.179,2.676-0.297,3.568-0.297c0.832,0,2.557,0.118,3.448,0.297l0.417,2.735
		c2.676-1.962,6.541-3.33,9.989-3.33c6.541,0,9.812,4.044,9.812,10.822V190.044z"/>
	<path fill="#66A71E" d="M240.384,177.438h-18.79c0.118,3.865,2.794,6.72,7.968,6.72c2.795,0,5.648-0.357,8.087-1.011
		c0.356,1.605,0.595,3.389,0.595,4.994c0,0.238,0,0.536-0.06,1.189c-3.032,0.893-6.185,1.309-9.276,1.309
		c-11.298,0-15.995-6.481-15.995-15.937c0-8.266,4.638-16.233,14.687-16.233c9.515,0,12.964,7.017,12.964,14.747
		C240.562,174.286,240.562,175.892,240.384,177.438z M232.356,171.551c0-3.746-1.011-6.897-4.876-6.897
		c-3.688,0-5.649,2.913-5.887,6.897H232.356z"/>
</g>
<g>
	<path fill="#66A71E" d="M15.206,212.952c0,0.953,0.022,2.04,0.022,3.215c-0.354,0.089-0.953,0.111-1.33,0.111
		c-0.421,0-0.976-0.045-1.331-0.111c-0.044-0.266-0.088-0.731-0.111-1.02h-0.044c-0.754,0.775-2.04,1.241-3.215,1.241
		c-2.217,0-3.813-1.375-3.813-3.658c0-3.547,3.148-4.146,5.787-4.146c0.177,0,0.599,0.021,0.953,0.044
		c0-0.133-0.022-0.421-0.044-0.532c-0.155-0.909-0.753-1.286-2.04-1.286c-0.998,0-2.395,0.2-3.458,0.466
		c-0.111-0.311-0.178-0.843-0.178-1.241c0-0.333,0.044-0.843,0.133-1.064c1.242-0.377,2.771-0.576,4.035-0.576
		c2.771,0,4.634,1.285,4.634,4.168V212.952z M12.146,210.757c-0.266-0.021-0.621-0.044-0.931-0.044
		c-1.996,0-2.771,0.798-2.771,1.796c0,0.864,0.576,1.463,1.574,1.463c0.731,0,1.552-0.354,2.128-0.864V210.757z"/>
	<path fill="#66A71E" d="M27.664,216.167c-0.354,0.089-1.108,0.111-1.463,0.111c-0.376,0-1.241-0.045-1.596-0.111v-7.582
		c0-1.197-0.621-1.708-1.618-1.708c-0.798,0-1.708,0.289-2.417,0.732v8.558c-0.51,0.089-1.219,0.111-1.618,0.111
		c-0.355,0-0.998-0.022-1.441-0.111v-11.551c0.288-0.066,0.998-0.111,1.331-0.111c0.31,0,0.953,0.045,1.286,0.111l0.155,1.02
		c0.998-0.731,2.439-1.241,3.725-1.241c2.439,0,3.658,1.507,3.658,4.035V216.167z"/>
	<path fill="#66A71E" d="M39.746,216.167c-0.355,0.066-0.954,0.111-1.419,0.111c-0.421,0-0.909-0.045-1.22-0.111l-0.088-1.02
		c-0.798,0.775-1.818,1.241-3.015,1.241c-3.304,0-4.723-2.639-4.723-5.809c0-3.414,1.53-6.186,5.055-6.186
		c0.864,0,1.862,0.266,2.35,0.576v-4.967c0.399-0.066,1.064-0.11,1.552-0.11c0.599,0,1.064,0.066,1.508,0.11V216.167z
		 M36.687,207.254c-0.532-0.243-1.22-0.377-1.796-0.377c-1.796,0-2.461,1.597-2.461,3.525c0,1.619,0.399,3.459,2.195,3.459
		c0.865,0,1.53-0.354,2.062-0.798V207.254z"/>
	<path fill="#66A71E" d="M55.796,212.952c0,0.953,0.022,2.04,0.022,3.215c-0.354,0.089-0.953,0.111-1.33,0.111
		c-0.421,0-0.976-0.045-1.331-0.111c-0.044-0.266-0.088-0.731-0.111-1.02h-0.044c-0.754,0.775-2.04,1.241-3.215,1.241
		c-2.217,0-3.813-1.375-3.813-3.658c0-3.547,3.148-4.146,5.787-4.146c0.177,0,0.599,0.021,0.953,0.044
		c0-0.133-0.022-0.421-0.044-0.532c-0.155-0.909-0.753-1.286-2.04-1.286c-0.998,0-2.395,0.2-3.458,0.466
		c-0.111-0.311-0.178-0.843-0.178-1.241c0-0.333,0.044-0.843,0.133-1.064c1.242-0.377,2.771-0.576,4.035-0.576
		c2.771,0,4.634,1.285,4.634,4.168V212.952z M52.737,210.757c-0.266-0.021-0.621-0.044-0.931-0.044
		c-1.996,0-2.771,0.798-2.771,1.796c0,0.864,0.576,1.463,1.574,1.463c0.731,0,1.552-0.354,2.128-0.864V210.757z"/>
	<path fill="#66A71E" d="M67.9,216.167c-0.688,0-1.619-0.111-2.173-0.266v5.476c-0.399,0.066-1.064,0.111-1.552,0.111
		c-0.599,0-1.064-0.066-1.508-0.111v-16.739c0.355-0.066,0.954-0.11,1.419-0.11c0.421,0,0.887,0.044,1.197,0.11l0.111,0.954
		c0.709-0.665,1.996-1.197,3.193-1.197c3.17,0,4.589,2.594,4.589,5.564C73.177,213.396,71.403,216.167,67.9,216.167z
		 M67.944,206.877c-0.82,0-1.685,0.333-2.217,0.82v5.876c0.421,0.133,1.242,0.222,1.818,0.222c1.641,0,2.483-1.353,2.483-3.592
		C70.028,208.008,69.23,206.877,67.944,206.877z"/>
	<path fill="#66A71E" d="M79.627,216.389c-3.348,0-5.476-2.15-5.476-5.964c0-3.791,2.106-6.03,5.476-6.03
		c3.37,0,5.477,2.217,5.477,6.008S82.997,216.389,79.627,216.389z M79.627,206.789c-1.441,0-2.328,0.976-2.328,3.613
		c0,2.639,0.887,3.592,2.328,3.592c1.441,0,2.328-0.953,2.328-3.592C81.955,207.742,81.068,206.789,79.627,206.789z"/>
	<path fill="#66A71E" d="M90.179,216.389c-1.308,0-2.683-0.199-3.747-0.555c-0.066-0.332-0.089-0.753-0.089-1.197
		c0-0.354,0.089-0.864,0.178-1.175c1.02,0.354,2.483,0.599,3.348,0.599c1.197,0,1.885-0.398,1.885-1.219
		c0-0.71-0.555-1.043-2.018-1.508c-2.328-0.731-3.415-1.818-3.415-3.503c0-2.506,2.306-3.437,4.501-3.437
		c1.02,0,2.15,0.177,2.926,0.421c0.089,0.333,0.133,0.798,0.133,1.064c0,0.288-0.089,0.887-0.2,1.264
		c-0.754-0.222-1.796-0.399-2.661-0.399c-1.064,0-1.796,0.267-1.796,0.932c0,0.709,0.82,0.997,2.106,1.419
		c2.239,0.731,3.303,1.662,3.303,3.414C94.635,215.214,92.463,216.389,90.179,216.389z"/>
	<path fill="#66A71E" d="M103.303,215.945c-0.665,0.266-1.463,0.443-2.749,0.443c-2.505,0-3.747-1.22-3.747-3.658v-5.831H94.9
		c-0.088-0.332-0.155-0.887-0.155-1.175c0-0.267,0.067-0.754,0.133-0.976l1.929-0.133v-2.972c0.244-0.044,1.02-0.088,1.53-0.088
		c0.554,0,1.242,0.044,1.53,0.088v2.972h3.193c0.088,0.311,0.133,0.754,0.133,0.997c0,0.267-0.022,0.976-0.111,1.286h-3.215v5.388
		c0,1.108,0.443,1.597,1.53,1.597c0.599,0,1.331-0.089,1.84-0.267c0.089,0.288,0.2,0.843,0.2,1.353
		C103.437,215.235,103.392,215.701,103.303,215.945z"/>
	<path fill="#66A71E" d="M114.743,214.127c0,1.485-0.089,3.614-0.954,5.077c-1.042,1.752-2.638,2.417-4.767,2.417
		c-1.219,0-2.395-0.155-3.415-0.466c-0.066-0.222-0.088-0.51-0.088-0.798c0-0.488,0.066-0.998,0.177-1.441
		c0.953,0.244,2.084,0.399,2.971,0.399c1.264,0,2.128-0.488,2.616-1.375c0.444-0.798,0.51-1.529,0.51-2.416
		c-0.554,0.421-1.574,0.754-2.616,0.754c-3.237,0-4.9-2.395-4.9-5.565c0-4.124,2.15-6.318,6.208-6.318
		c1.042,0,2.926,0.199,4.257,0.754V214.127z M111.683,206.943c-0.333-0.066-1.02-0.11-1.308-0.11c-2.04,0-2.949,1.308-2.949,3.725
		c0,1.929,0.709,3.259,2.239,3.259c0.865,0,1.574-0.243,2.018-0.62V206.943z"/>
	<path fill="#66A71E" d="M123.565,206.966c-1.153,0.178-2.394,0.576-3.503,1.153v8.048c-0.31,0.066-0.976,0.111-1.507,0.111
		c-0.532,0-1.308-0.045-1.552-0.111v-11.551c0.333-0.045,0.887-0.111,1.331-0.111c0.376,0,0.975,0.045,1.286,0.111l0.177,1.419
		c0.82-0.732,2.306-1.53,3.747-1.641c0.044,0.177,0.089,0.82,0.089,1.285C123.632,206.123,123.61,206.655,123.565,206.966z"/>
	<path fill="#66A71E" d="M133.83,212.952c0,0.953,0.022,2.04,0.022,3.215c-0.354,0.089-0.953,0.111-1.33,0.111
		c-0.421,0-0.976-0.045-1.331-0.111c-0.044-0.266-0.088-0.731-0.111-1.02h-0.044c-0.754,0.775-2.04,1.241-3.215,1.241
		c-2.217,0-3.813-1.375-3.813-3.658c0-3.547,3.148-4.146,5.787-4.146c0.177,0,0.599,0.021,0.953,0.044
		c0-0.133-0.022-0.421-0.044-0.532c-0.155-0.909-0.753-1.286-2.04-1.286c-0.998,0-2.395,0.2-3.458,0.466
		c-0.111-0.311-0.178-0.843-0.178-1.241c0-0.333,0.044-0.843,0.133-1.064c1.242-0.377,2.771-0.576,4.035-0.576
		c2.771,0,4.634,1.285,4.634,4.168V212.952z M130.77,210.757c-0.266-0.021-0.621-0.044-0.931-0.044
		c-1.996,0-2.771,0.798-2.771,1.796c0,0.864,0.576,1.463,1.574,1.463c0.731,0,1.552-0.354,2.128-0.864V210.757z"/>
	<path fill="#66A71E" d="M145.934,216.167c-0.355,0.066-0.954,0.111-1.419,0.111c-0.421,0-0.909-0.045-1.22-0.111l-0.088-1.02
		c-0.798,0.775-1.818,1.241-3.015,1.241c-3.304,0-4.723-2.639-4.723-5.809c0-3.414,1.53-6.186,5.055-6.186
		c0.864,0,1.862,0.266,2.35,0.576v-4.967c0.399-0.066,1.064-0.11,1.552-0.11c0.599,0,1.064,0.066,1.508,0.11V216.167z
		 M142.875,207.254c-0.532-0.243-1.22-0.377-1.796-0.377c-1.796,0-2.461,1.597-2.461,3.525c0,1.619,0.399,3.459,2.195,3.459
		c0.865,0,1.53-0.354,2.062-0.798V207.254z"/>
	<path fill="#66A71E" d="M158.104,211.711c0,3.303-1.552,4.678-5.011,4.678c-3.37,0-4.922-1.375-4.922-4.678v-7.095
		c0.311-0.045,0.909-0.111,1.508-0.111c0.532,0,1.197,0.045,1.552,0.111v7.072c0,1.729,0.51,2.351,1.906,2.351
		c1.42,0,1.907-0.621,1.907-2.351v-7.072c0.311-0.066,0.998-0.111,1.552-0.111c0.555,0,1.286,0.066,1.508,0.111V211.711z"/>
	<path fill="#66A71E" d="M169.565,212.952c0,0.953,0.022,2.04,0.022,3.215c-0.354,0.089-0.953,0.111-1.33,0.111
		c-0.421,0-0.976-0.045-1.33-0.111c-0.045-0.266-0.089-0.731-0.111-1.02h-0.044c-0.754,0.775-2.04,1.241-3.215,1.241
		c-2.217,0-3.813-1.375-3.813-3.658c0-3.547,3.148-4.146,5.786-4.146c0.178,0,0.599,0.021,0.954,0.044
		c0-0.133-0.022-0.421-0.045-0.532c-0.155-0.909-0.754-1.286-2.039-1.286c-0.998,0-2.395,0.2-3.459,0.466
		c-0.111-0.311-0.178-0.843-0.178-1.241c0-0.333,0.045-0.843,0.133-1.064c1.242-0.377,2.771-0.576,4.035-0.576
		c2.771,0,4.634,1.285,4.634,4.168V212.952z M166.506,210.757c-0.266-0.021-0.62-0.044-0.931-0.044
		c-1.995,0-2.771,0.798-2.771,1.796c0,0.864,0.576,1.463,1.574,1.463c0.731,0,1.552-0.354,2.128-0.864V210.757z"/>
	<path fill="#66A71E" d="M179.121,215.945c-0.665,0.266-1.464,0.443-2.75,0.443c-2.505,0-3.746-1.22-3.746-3.658v-5.831h-1.907
		c-0.089-0.332-0.155-0.887-0.155-1.175c0-0.267,0.066-0.754,0.133-0.976l1.93-0.133v-2.972c0.243-0.044,1.02-0.088,1.529-0.088
		c0.555,0,1.242,0.044,1.53,0.088v2.972h3.192c0.089,0.311,0.133,0.754,0.133,0.997c0,0.267-0.022,0.976-0.11,1.286h-3.215v5.388
		c0,1.108,0.443,1.597,1.529,1.597c0.599,0,1.33-0.089,1.841-0.267c0.088,0.288,0.199,0.843,0.199,1.353
		C179.254,215.235,179.209,215.701,179.121,215.945z"/>
	<path fill="#66A71E" d="M190.204,211.467h-7.006c0.045,1.441,1.042,2.505,2.971,2.505c1.042,0,2.106-0.133,3.016-0.377
		c0.133,0.599,0.222,1.265,0.222,1.862c0,0.089,0,0.2-0.022,0.444c-1.131,0.332-2.306,0.487-3.458,0.487
		c-4.213,0-5.965-2.417-5.965-5.941c0-3.082,1.729-6.053,5.477-6.053c3.548,0,4.833,2.616,4.833,5.498
		C190.271,210.292,190.271,210.891,190.204,211.467z M187.211,209.271c0-1.396-0.377-2.571-1.817-2.571
		c-1.375,0-2.106,1.086-2.195,2.571H187.211z"/>
	<path fill="#66A71E" d="M206.299,216.167c-0.354,0.066-0.953,0.111-1.419,0.111c-0.421,0-0.908-0.045-1.219-0.111l-0.089-1.02
		c-0.798,0.775-1.818,1.241-3.016,1.241c-3.303,0-4.723-2.639-4.723-5.809c0-3.414,1.53-6.186,5.056-6.186
		c0.864,0,1.862,0.266,2.35,0.576v-4.967c0.399-0.066,1.064-0.11,1.553-0.11c0.599,0,1.063,0.066,1.507,0.11V216.167z
		 M203.239,207.254c-0.532-0.243-1.219-0.377-1.796-0.377c-1.796,0-2.461,1.597-2.461,3.525c0,1.619,0.399,3.459,2.195,3.459
		c0.864,0,1.529-0.354,2.062-0.798V207.254z"/>
	<path fill="#66A71E" d="M218.159,211.467h-7.006c0.045,1.441,1.042,2.505,2.971,2.505c1.042,0,2.106-0.133,3.016-0.377
		c0.133,0.599,0.222,1.265,0.222,1.862c0,0.089,0,0.2-0.022,0.444c-1.131,0.332-2.306,0.487-3.458,0.487
		c-4.213,0-5.965-2.417-5.965-5.941c0-3.082,1.729-6.053,5.477-6.053c3.548,0,4.833,2.616,4.833,5.498
		C218.226,210.292,218.226,210.891,218.159,211.467z M215.166,209.271c0-1.396-0.377-2.571-1.817-2.571
		c-1.375,0-2.106,1.086-2.195,2.571H215.166z"/>
	<path fill="#66A71E" d="M229.687,214.127c0,1.485-0.088,3.614-0.953,5.077c-1.042,1.752-2.639,2.417-4.767,2.417
		c-1.22,0-2.395-0.155-3.414-0.466c-0.066-0.222-0.089-0.51-0.089-0.798c0-0.488,0.066-0.998,0.177-1.441
		c0.954,0.244,2.085,0.399,2.972,0.399c1.264,0,2.128-0.488,2.616-1.375c0.443-0.798,0.51-1.529,0.51-2.416
		c-0.555,0.421-1.574,0.754-2.616,0.754c-3.237,0-4.899-2.395-4.899-5.565c0-4.124,2.15-6.318,6.207-6.318
		c1.042,0,2.927,0.199,4.257,0.754V214.127z M226.627,206.943c-0.332-0.066-1.02-0.11-1.308-0.11c-2.04,0-2.949,1.308-2.949,3.725
		c0,1.929,0.71,3.259,2.239,3.259c0.865,0,1.574-0.243,2.018-0.62V206.943z"/>
	<path fill="#66A71E" d="M238.532,206.966c-1.153,0.178-2.395,0.576-3.503,1.153v8.048c-0.311,0.066-0.976,0.111-1.508,0.111
		s-1.309-0.045-1.552-0.111v-11.551c0.332-0.045,0.887-0.111,1.33-0.111c0.377,0,0.976,0.045,1.286,0.111l0.177,1.419
		c0.82-0.732,2.306-1.53,3.747-1.641c0.044,0.177,0.089,0.82,0.089,1.285C238.599,206.123,238.576,206.655,238.532,206.966z"/>
	<path fill="#66A71E" d="M249.351,211.467h-7.006c0.045,1.441,1.042,2.505,2.971,2.505c1.042,0,2.106-0.133,3.016-0.377
		c0.133,0.599,0.222,1.265,0.222,1.862c0,0.089,0,0.2-0.022,0.444c-1.131,0.332-2.306,0.487-3.458,0.487
		c-4.213,0-5.965-2.417-5.965-5.941c0-3.082,1.729-6.053,5.477-6.053c3.548,0,4.833,2.616,4.833,5.498
		C249.417,210.292,249.417,210.891,249.351,211.467z M246.357,209.271c0-1.396-0.377-2.571-1.817-2.571
		c-1.375,0-2.106,1.086-2.195,2.571H246.357z"/>
	<path fill="#66A71E" d="M260.656,211.467h-7.006c0.045,1.441,1.042,2.505,2.971,2.505c1.042,0,2.106-0.133,3.016-0.377
		c0.133,0.599,0.222,1.265,0.222,1.862c0,0.089,0,0.2-0.022,0.444c-1.131,0.332-2.306,0.487-3.458,0.487
		c-4.213,0-5.964-2.417-5.964-5.941c0-3.082,1.729-6.053,5.476-6.053c3.548,0,4.833,2.616,4.833,5.498
		C260.723,210.292,260.723,210.891,260.656,211.467z M257.663,209.271c0-1.396-0.377-2.571-1.817-2.571
		c-1.375,0-2.106,1.086-2.195,2.571H257.663z"/>
</g>
<g>
	<path fill="#66A71E" d="M7.689,229.447c-0.931,0-1.685-0.754-1.685-1.686c0-0.931,0.754-1.685,1.685-1.685s1.685,0.754,1.685,1.685
		C9.375,228.693,8.621,229.447,7.689,229.447z M9.219,242.262c-0.399,0.089-1.219,0.111-1.574,0.111
		c-0.532,0-1.108-0.045-1.485-0.111v-11.551c0.488-0.066,1.086-0.111,1.485-0.111c0.532,0,1.086,0.045,1.574,0.111V242.262z"/>
	<path fill="#66A71E" d="M21.856,242.262c-0.354,0.089-1.108,0.111-1.463,0.111c-0.376,0-1.241-0.045-1.596-0.111v-7.582
		c0-1.197-0.621-1.708-1.618-1.708c-0.798,0-1.708,0.289-2.417,0.732v8.558c-0.51,0.089-1.219,0.111-1.618,0.111
		c-0.355,0-0.998-0.022-1.441-0.111v-11.551c0.288-0.066,0.998-0.111,1.331-0.111c0.31,0,0.953,0.045,1.286,0.111l0.155,1.02
		c0.998-0.731,2.439-1.241,3.725-1.241c2.439,0,3.658,1.507,3.658,4.035V242.262z"/>
	<path fill="#66A71E" d="M38.925,234.524v7.737c-0.354,0.089-1.108,0.111-1.463,0.111c-0.377,0-1.242-0.045-1.597-0.111v-7.561
		c0-1.197-0.621-1.729-1.618-1.729c-0.798,0-1.774,0.289-2.483,0.732v8.558c-0.51,0.089-1.219,0.111-1.618,0.111
		c-0.355,0-0.998-0.022-1.441-0.111v-16.163c0.288-0.066,0.931-0.11,1.485-0.11c0.555,0,1.242,0.044,1.574,0.11v5.433
		c0.976-0.621,2.328-1.042,3.503-1.042C37.706,230.489,38.925,231.996,38.925,234.524z"/>
	<path fill="#66A71E" d="M50.786,237.562H43.78c0.044,1.441,1.042,2.505,2.971,2.505c1.042,0,2.106-0.133,3.015-0.377
		c0.133,0.599,0.222,1.265,0.222,1.863c0,0.088,0,0.199-0.022,0.443c-1.131,0.332-2.306,0.487-3.459,0.487
		c-4.212,0-5.964-2.417-5.964-5.941c0-3.082,1.729-6.053,5.476-6.053c3.547,0,4.833,2.616,4.833,5.498
		C50.853,236.387,50.853,236.985,50.786,237.562z M47.793,235.366c0-1.396-0.377-2.571-1.818-2.571
		c-1.375,0-2.106,1.086-2.195,2.571H47.793z"/>
	<path fill="#66A71E" d="M61.715,239.047c0,0.953,0.022,2.04,0.022,3.215c-0.354,0.089-0.953,0.111-1.33,0.111
		c-0.421,0-0.976-0.045-1.331-0.111c-0.044-0.266-0.088-0.731-0.111-1.02h-0.044c-0.754,0.775-2.04,1.241-3.215,1.241
		c-2.217,0-3.813-1.375-3.813-3.658c0-3.547,3.148-4.146,5.787-4.146c0.177,0,0.599,0.021,0.953,0.044
		c0-0.133-0.022-0.421-0.044-0.532c-0.155-0.909-0.754-1.286-2.04-1.286c-0.998,0-2.395,0.2-3.458,0.466
		c-0.111-0.311-0.177-0.843-0.177-1.241c0-0.333,0.044-0.843,0.133-1.064c1.242-0.377,2.771-0.576,4.035-0.576
		c2.771,0,4.634,1.285,4.634,4.168V239.047z M58.655,236.852c-0.266-0.021-0.621-0.044-0.931-0.044
		c-1.996,0-2.771,0.798-2.771,1.796c0,0.864,0.576,1.463,1.574,1.463c0.731,0,1.552-0.354,2.128-0.864V236.852z"/>
	<path fill="#66A71E" d="M67.124,242.262c-0.399,0.089-1.219,0.111-1.574,0.111c-0.532,0-1.108-0.045-1.485-0.111v-16.163
		c0.488-0.066,1.086-0.11,1.485-0.11c0.532,0,1.153,0.044,1.574,0.11V242.262z"/>
	<path fill="#66A71E" d="M76.812,242.04c-0.665,0.266-1.463,0.443-2.749,0.443c-2.505,0-3.747-1.22-3.747-3.658v-5.831h-1.907
		c-0.088-0.332-0.155-0.887-0.155-1.175c0-0.267,0.067-0.754,0.133-0.976l1.929-0.133v-2.972c0.244-0.044,1.02-0.088,1.53-0.088
		c0.554,0,1.242,0.044,1.53,0.088v2.972h3.193c0.088,0.311,0.133,0.754,0.133,0.997c0,0.267-0.022,0.976-0.111,1.286h-3.215v5.388
		c0,1.108,0.443,1.597,1.53,1.597c0.599,0,1.331-0.089,1.84-0.267c0.089,0.288,0.2,0.843,0.2,1.353
		C76.945,241.33,76.9,241.796,76.812,242.04z"/>
	<path fill="#66A71E" d="M88.76,234.524v7.737c-0.354,0.089-1.108,0.111-1.463,0.111c-0.377,0-1.242-0.045-1.597-0.111v-7.561
		c0-1.197-0.621-1.729-1.618-1.729c-0.798,0-1.774,0.289-2.483,0.732v8.558c-0.51,0.089-1.219,0.111-1.618,0.111
		c-0.355,0-0.998-0.022-1.441-0.111v-16.163c0.288-0.066,0.931-0.11,1.485-0.11c0.555,0,1.242,0.044,1.574,0.11v5.433
		c0.976-0.621,2.328-1.042,3.503-1.042C87.541,230.489,88.76,231.996,88.76,234.524z"/>
	<path fill="#66A71E" d="M100.842,242.262c-0.688,0-1.619-0.111-2.173-0.266v5.476c-0.399,0.066-1.064,0.111-1.552,0.111
		c-0.599,0-1.064-0.066-1.508-0.111v-16.739c0.355-0.066,0.954-0.11,1.419-0.11c0.421,0,0.887,0.044,1.197,0.11l0.111,0.954
		c0.709-0.665,1.996-1.197,3.193-1.197c3.17,0,4.589,2.594,4.589,5.564C106.119,239.49,104.345,242.262,100.842,242.262z
		 M100.886,232.972c-0.82,0-1.685,0.333-2.217,0.82v5.876c0.421,0.133,1.242,0.222,1.818,0.222c1.641,0,2.483-1.353,2.483-3.592
		C102.97,234.103,102.172,232.972,100.886,232.972z"/>
	<path fill="#66A71E" d="M111.194,242.483c-1.308,0-2.683-0.199-3.747-0.555c-0.066-0.332-0.089-0.753-0.089-1.197
		c0-0.354,0.089-0.864,0.178-1.175c1.02,0.354,2.483,0.599,3.348,0.599c1.197,0,1.885-0.398,1.885-1.219
		c0-0.71-0.555-1.043-2.018-1.508c-2.328-0.731-3.415-1.818-3.415-3.503c0-2.506,2.306-3.437,4.501-3.437
		c1.02,0,2.15,0.177,2.926,0.421c0.089,0.333,0.133,0.798,0.133,1.064c0,0.288-0.089,0.887-0.2,1.264
		c-0.754-0.222-1.796-0.399-2.661-0.399c-1.064,0-1.796,0.267-1.796,0.932c0,0.709,0.82,0.997,2.106,1.419
		c2.239,0.731,3.303,1.662,3.303,3.414C115.65,241.309,113.478,242.483,111.194,242.483z"/>
	<path fill="#66A71E" d="M127.179,240.222c0,1.686-0.088,3.548-0.953,5.011c-1.042,1.752-2.794,2.483-4.767,2.483
		c-1.108,0-2.372-0.155-3.392-0.466c-0.066-0.199-0.111-0.731-0.111-1.064c0-0.266,0.089-0.908,0.155-1.175
		c0.887,0.244,2.084,0.399,2.904,0.399c1.331,0,2.128-0.466,2.616-1.353c0.443-0.798,0.51-1.685,0.51-2.55
		c-0.776,0.599-1.796,0.976-2.75,0.976c-2.904,0-4.08-1.508-4.08-4.367v-7.405c0.355-0.089,1.109-0.111,1.463-0.111
		c0.377,0,1.242,0.045,1.596,0.111v7.228c0,1.419,0.51,2.04,1.774,2.04c0.798,0,1.508-0.333,1.973-0.776v-8.491
		c0.51-0.089,1.219-0.111,1.619-0.111c0.354,0,0.998,0.022,1.441,0.111V240.222z"/>
	<path fill="#66A71E" d="M137.708,231.952c0,0.488-0.066,1.02-0.222,1.485c-0.731-0.288-1.685-0.466-2.594-0.466
		c-1.729,0-2.904,1.109-2.904,3.592c0,2.173,0.998,3.437,2.926,3.437c0.998,0,1.951-0.177,2.661-0.421
		c0.133,0.487,0.2,1.086,0.2,1.552c0,0.311,0,0.532-0.022,0.731c-0.887,0.399-2.062,0.621-3.17,0.621
		c-3.835,0-5.742-2.239-5.742-5.875c0-3.77,1.996-6.119,5.875-6.119c1.086,0,2.15,0.222,2.904,0.576
		C137.686,231.31,137.708,231.619,137.708,231.952z"/>
	<path fill="#66A71E" d="M149.834,234.524v7.737c-0.354,0.089-1.108,0.111-1.463,0.111c-0.377,0-1.242-0.045-1.597-0.111v-7.561
		c0-1.197-0.621-1.729-1.618-1.729c-0.798,0-1.774,0.289-2.483,0.732v8.558c-0.51,0.089-1.219,0.111-1.618,0.111
		c-0.355,0-0.998-0.022-1.441-0.111v-16.163c0.288-0.066,0.931-0.11,1.485-0.11c0.555,0,1.242,0.044,1.574,0.11v5.433
		c0.976-0.621,2.328-1.042,3.503-1.042C148.615,230.489,149.834,231.996,149.834,234.524z"/>
	<path fill="#66A71E" d="M156.929,242.483c-3.349,0-5.477-2.15-5.477-5.964c0-3.791,2.106-6.03,5.477-6.03s5.476,2.217,5.476,6.008
		S160.299,242.483,156.929,242.483z M156.929,232.884c-1.441,0-2.328,0.976-2.328,3.613c0,2.639,0.887,3.592,2.328,3.592
		c1.44,0,2.327-0.953,2.327-3.592C159.256,233.837,158.369,232.884,156.929,232.884z"/>
	<path fill="#66A71E" d="M167.17,242.262c-0.399,0.089-1.22,0.111-1.574,0.111c-0.532,0-1.108-0.045-1.485-0.111v-16.163
		c0.487-0.066,1.086-0.11,1.485-0.11c0.532,0,1.153,0.044,1.574,0.11V242.262z"/>
	<path fill="#66A71E" d="M174.353,242.483c-3.348,0-5.476-2.15-5.476-5.964c0-3.791,2.105-6.03,5.476-6.03s5.477,2.217,5.477,6.008
		S177.723,242.483,174.353,242.483z M174.353,232.884c-1.441,0-2.328,0.976-2.328,3.613c0,2.639,0.887,3.592,2.328,3.592
		s2.328-0.953,2.328-3.592C176.681,233.837,175.794,232.884,174.353,232.884z"/>
	<path fill="#66A71E" d="M191.29,240.222c0,1.485-0.088,3.614-0.953,5.077c-1.042,1.752-2.639,2.417-4.767,2.417
		c-1.22,0-2.395-0.155-3.414-0.466c-0.066-0.222-0.089-0.51-0.089-0.798c0-0.488,0.066-0.998,0.177-1.441
		c0.954,0.244,2.085,0.399,2.972,0.399c1.264,0,2.128-0.488,2.616-1.375c0.443-0.798,0.51-1.529,0.51-2.416
		c-0.555,0.421-1.574,0.754-2.616,0.754c-3.237,0-4.899-2.395-4.899-5.565c0-4.124,2.15-6.318,6.207-6.318
		c1.042,0,2.927,0.199,4.257,0.754V240.222z M188.23,233.039c-0.332-0.067-1.02-0.111-1.308-0.111c-2.04,0-2.949,1.308-2.949,3.725
		c0,1.929,0.71,3.259,2.239,3.259c0.865,0,1.574-0.243,2.018-0.62V233.039z"/>
	<path fill="#66A71E" d="M203.372,240.222c0,1.686-0.089,3.548-0.953,5.011c-1.042,1.752-2.794,2.483-4.767,2.483
		c-1.108,0-2.373-0.155-3.393-0.466c-0.066-0.199-0.11-0.731-0.11-1.064c0-0.266,0.088-0.908,0.155-1.175
		c0.887,0.244,2.084,0.399,2.904,0.399c1.33,0,2.128-0.466,2.616-1.353c0.443-0.798,0.51-1.685,0.51-2.55
		c-0.776,0.599-1.796,0.976-2.749,0.976c-2.905,0-4.08-1.508-4.08-4.367v-7.405c0.354-0.089,1.108-0.111,1.464-0.111
		c0.377,0,1.241,0.045,1.596,0.111v7.228c0,1.419,0.51,2.04,1.773,2.04c0.799,0,1.508-0.333,1.974-0.776v-8.491
		c0.51-0.089,1.22-0.111,1.618-0.111c0.355,0,0.998,0.022,1.441,0.111V240.222z"/>
</g>
<g>
	<path fill="#66A71E" d="M10.395,271.413c-2.838-2.616-4.567-5.809-4.567-9.622c0-3.88,1.796-7.161,4.567-9.622
		c0.665,0.133,1.441,0.754,1.751,1.197c-2.173,2.306-3.326,5.32-3.326,8.425c0,3.104,1.242,6.03,3.326,8.425
		C11.835,270.659,11.06,271.28,10.395,271.413z"/>
	<path fill="#66A71E" d="M23.43,268.354c-0.355,0.066-0.954,0.111-1.419,0.111c-0.421,0-0.909-0.045-1.22-0.111l-0.088-1.02
		c-0.798,0.775-1.818,1.241-3.015,1.241c-3.304,0-4.723-2.639-4.723-5.809c0-3.414,1.53-6.186,5.055-6.186
		c0.864,0,1.862,0.266,2.35,0.576v-4.967c0.399-0.066,1.064-0.11,1.552-0.11c0.599,0,1.064,0.066,1.508,0.11V268.354z
		 M20.371,259.44c-0.532-0.243-1.22-0.377-1.796-0.377c-1.796,0-2.461,1.597-2.461,3.525c0,1.619,0.399,3.459,2.195,3.459
		c0.865,0,1.53-0.354,2.062-0.798V259.44z"/>
	<path fill="#66A71E" d="M27.397,255.539c-0.931,0-1.685-0.754-1.685-1.686c0-0.931,0.754-1.685,1.685-1.685
		s1.685,0.754,1.685,1.685C29.083,254.785,28.329,255.539,27.397,255.539z M28.927,268.354c-0.399,0.089-1.219,0.111-1.574,0.111
		c-0.532,0-1.108-0.045-1.485-0.111v-11.551c0.488-0.066,1.086-0.111,1.485-0.111c0.532,0,1.086,0.045,1.574,0.111V268.354z"/>
	<path fill="#66A71E" d="M34.824,268.575c-1.308,0-2.683-0.199-3.747-0.555c-0.066-0.332-0.089-0.753-0.089-1.197
		c0-0.354,0.089-0.864,0.178-1.175c1.02,0.354,2.483,0.599,3.348,0.599c1.197,0,1.885-0.398,1.885-1.219
		c0-0.71-0.555-1.043-2.018-1.508c-2.328-0.731-3.415-1.818-3.415-3.503c0-2.506,2.306-3.437,4.501-3.437
		c1.02,0,2.15,0.177,2.926,0.421c0.089,0.333,0.133,0.798,0.133,1.064c0,0.288-0.089,0.887-0.2,1.264
		c-0.754-0.222-1.796-0.399-2.661-0.399c-1.064,0-1.796,0.267-1.796,0.932c0,0.709,0.82,0.997,2.106,1.419
		c2.239,0.731,3.303,1.662,3.303,3.414C39.28,267.4,37.108,268.575,34.824,268.575z"/>
	<path fill="#66A71E" d="M47.948,268.132c-0.665,0.266-1.463,0.443-2.749,0.443c-2.505,0-3.747-1.22-3.747-3.658v-5.831h-1.907
		c-0.088-0.332-0.155-0.887-0.155-1.175c0-0.267,0.067-0.754,0.133-0.976l1.929-0.133v-2.972c0.244-0.044,1.02-0.088,1.53-0.088
		c0.554,0,1.242,0.044,1.53,0.088v2.972h3.193c0.088,0.311,0.133,0.754,0.133,0.997c0,0.267-0.022,0.976-0.111,1.286h-3.215v5.388
		c0,1.108,0.443,1.597,1.53,1.597c0.599,0,1.331-0.089,1.84-0.267c0.089,0.288,0.2,0.843,0.2,1.353
		C48.081,267.422,48.037,267.888,47.948,268.132z"/>
	<path fill="#66A71E" d="M58.767,265.139c0,0.953,0.022,2.04,0.022,3.215c-0.354,0.089-0.953,0.111-1.33,0.111
		c-0.421,0-0.976-0.045-1.331-0.111c-0.044-0.266-0.088-0.731-0.111-1.02h-0.044c-0.754,0.775-2.04,1.241-3.215,1.241
		c-2.217,0-3.813-1.375-3.813-3.658c0-3.547,3.148-4.146,5.787-4.146c0.177,0,0.599,0.021,0.953,0.044
		c0-0.133-0.022-0.421-0.044-0.532c-0.155-0.909-0.754-1.286-2.04-1.286c-0.998,0-2.395,0.2-3.458,0.466
		c-0.111-0.311-0.177-0.843-0.177-1.241c0-0.333,0.044-0.843,0.133-1.064c1.242-0.377,2.771-0.576,4.035-0.576
		c2.771,0,4.634,1.285,4.634,4.168V265.139z M55.707,262.943c-0.266-0.021-0.621-0.044-0.931-0.044
		c-1.996,0-2.771,0.798-2.771,1.796c0,0.864,0.576,1.463,1.574,1.463c0.731,0,1.552-0.354,2.128-0.864V262.943z"/>
	<path fill="#66A71E" d="M71.225,268.354c-0.354,0.089-1.108,0.111-1.463,0.111c-0.376,0-1.241-0.045-1.596-0.111v-7.582
		c0-1.197-0.621-1.708-1.618-1.708c-0.798,0-1.708,0.289-2.417,0.732v8.558c-0.51,0.089-1.219,0.111-1.618,0.111
		c-0.355,0-0.998-0.022-1.441-0.111v-11.551c0.288-0.066,0.998-0.111,1.331-0.111c0.31,0,0.953,0.045,1.286,0.111l0.155,1.02
		c0.998-0.731,2.439-1.241,3.725-1.241c2.439,0,3.658,1.507,3.658,4.035V268.354z"/>
	<path fill="#66A71E" d="M81.711,258.044c0,0.488-0.067,1.02-0.222,1.485c-0.731-0.288-1.685-0.466-2.594-0.466
		c-1.729,0-2.904,1.109-2.904,3.592c0,2.173,0.998,3.437,2.926,3.437c0.998,0,1.951-0.177,2.661-0.421
		c0.133,0.487,0.2,1.086,0.2,1.552c0,0.311,0,0.532-0.022,0.731c-0.887,0.399-2.062,0.621-3.17,0.621
		c-3.835,0-5.742-2.239-5.742-5.875c0-3.77,1.996-6.119,5.875-6.119c1.086,0,2.15,0.222,2.904,0.576
		C81.688,257.401,81.711,257.711,81.711,258.044z"/>
	<path fill="#66A71E" d="M92.751,263.653h-7.006c0.044,1.441,1.042,2.505,2.971,2.505c1.042,0,2.106-0.133,3.015-0.377
		c0.133,0.599,0.222,1.265,0.222,1.863c0,0.088,0,0.199-0.022,0.443c-1.131,0.332-2.306,0.487-3.459,0.487
		c-4.212,0-5.964-2.417-5.964-5.941c0-3.082,1.729-6.053,5.476-6.053c3.547,0,4.833,2.616,4.833,5.498
		C92.817,262.479,92.817,263.077,92.751,263.653z M89.758,261.458c0-1.396-0.377-2.571-1.818-2.571
		c-1.375,0-2.106,1.086-2.195,2.571H89.758z"/>
	<path fill="#66A71E" d="M102.149,268.354c-0.399,0.089-1.219,0.111-1.574,0.111c-0.532,0-1.108-0.045-1.485-0.111V252.19
		c0.488-0.066,1.086-0.11,1.485-0.11c0.532,0,1.153,0.044,1.574,0.11V268.354z"/>
	<path fill="#66A71E" d="M114.099,263.653h-7.006c0.044,1.441,1.042,2.505,2.971,2.505c1.042,0,2.106-0.133,3.015-0.377
		c0.133,0.599,0.222,1.265,0.222,1.863c0,0.088,0,0.199-0.022,0.443c-1.131,0.332-2.306,0.487-3.459,0.487
		c-4.212,0-5.964-2.417-5.964-5.941c0-3.082,1.729-6.053,5.476-6.053c3.547,0,4.833,2.616,4.833,5.498
		C114.166,262.479,114.166,263.077,114.099,263.653z M111.106,261.458c0-1.396-0.377-2.571-1.818-2.571
		c-1.375,0-2.106,1.086-2.195,2.571H111.106z"/>
	<path fill="#66A71E" d="M125.028,265.139c0,0.953,0.022,2.04,0.022,3.215c-0.354,0.089-0.953,0.111-1.33,0.111
		c-0.421,0-0.976-0.045-1.331-0.111c-0.044-0.266-0.088-0.731-0.111-1.02h-0.044c-0.754,0.775-2.04,1.241-3.215,1.241
		c-2.217,0-3.813-1.375-3.813-3.658c0-3.547,3.148-4.146,5.787-4.146c0.177,0,0.599,0.021,0.953,0.044
		c0-0.133-0.022-0.421-0.044-0.532c-0.155-0.909-0.754-1.286-2.04-1.286c-0.998,0-2.395,0.2-3.458,0.466
		c-0.111-0.311-0.177-0.843-0.177-1.241c0-0.333,0.044-0.843,0.133-1.064c1.242-0.377,2.771-0.576,4.035-0.576
		c2.771,0,4.634,1.285,4.634,4.168V265.139z M121.969,262.943c-0.266-0.021-0.621-0.044-0.931-0.044
		c-1.996,0-2.771,0.798-2.771,1.796c0,0.864,0.576,1.463,1.574,1.463c0.731,0,1.552-0.354,2.128-0.864V262.943z"/>
	<path fill="#66A71E" d="M133.895,259.152c-1.153,0.178-2.394,0.576-3.503,1.153v8.048c-0.31,0.066-0.976,0.111-1.507,0.111
		c-0.532,0-1.308-0.045-1.552-0.111v-11.551c0.333-0.045,0.887-0.111,1.331-0.111c0.376,0,0.975,0.045,1.286,0.111l0.177,1.419
		c0.82-0.732,2.306-1.53,3.747-1.641c0.044,0.177,0.089,0.82,0.089,1.285C133.962,258.31,133.939,258.842,133.895,259.152z"/>
	<path fill="#66A71E" d="M145.778,268.354c-0.354,0.089-1.108,0.111-1.463,0.111c-0.376,0-1.241-0.045-1.596-0.111v-7.582
		c0-1.197-0.621-1.708-1.618-1.708c-0.798,0-1.708,0.289-2.417,0.732v8.558c-0.51,0.089-1.219,0.111-1.618,0.111
		c-0.355,0-0.998-0.022-1.441-0.111v-11.551c0.288-0.066,0.998-0.111,1.331-0.111c0.31,0,0.953,0.045,1.286,0.111l0.155,1.02
		c0.998-0.731,2.439-1.241,3.725-1.241c2.439,0,3.658,1.507,3.658,4.035V268.354z"/>
	<path fill="#66A71E" d="M149.745,255.539c-0.931,0-1.685-0.754-1.685-1.686c0-0.931,0.754-1.685,1.685-1.685
		s1.685,0.754,1.685,1.685C151.43,254.785,150.676,255.539,149.745,255.539z M151.274,268.354c-0.398,0.089-1.219,0.111-1.574,0.111
		c-0.532,0-1.108-0.045-1.485-0.111v-11.551c0.488-0.066,1.086-0.111,1.485-0.111c0.532,0,1.086,0.045,1.574,0.111V268.354z"/>
	<path fill="#66A71E" d="M163.912,268.354c-0.355,0.089-1.109,0.111-1.464,0.111c-0.377,0-1.241-0.045-1.596-0.111v-7.582
		c0-1.197-0.621-1.708-1.619-1.708c-0.798,0-1.707,0.289-2.416,0.732v8.558c-0.511,0.089-1.22,0.111-1.619,0.111
		c-0.354,0-0.997-0.022-1.44-0.111v-11.551c0.288-0.066,0.997-0.111,1.33-0.111c0.311,0,0.953,0.045,1.286,0.111l0.154,1.02
		c0.998-0.731,2.439-1.241,3.726-1.241c2.438,0,3.658,1.507,3.658,4.035V268.354z"/>
	<path fill="#66A71E" d="M175.993,266.313c0,1.485-0.088,3.614-0.953,5.077c-1.042,1.752-2.639,2.417-4.767,2.417
		c-1.22,0-2.395-0.155-3.414-0.466c-0.066-0.222-0.089-0.51-0.089-0.798c0-0.488,0.066-0.998,0.177-1.441
		c0.954,0.244,2.085,0.399,2.972,0.399c1.264,0,2.128-0.488,2.616-1.375c0.443-0.798,0.51-1.529,0.51-2.416
		c-0.555,0.421-1.574,0.754-2.616,0.754c-3.237,0-4.899-2.395-4.899-5.565c0-4.124,2.15-6.318,6.207-6.318
		c1.042,0,2.927,0.199,4.257,0.754V266.313z M172.934,259.131c-0.332-0.067-1.02-0.111-1.308-0.111c-2.04,0-2.949,1.308-2.949,3.725
		c0,1.929,0.71,3.259,2.239,3.259c0.865,0,1.574-0.243,2.018-0.62V259.131z"/>
	<path fill="#66A71E" d="M181.313,261.791c0-3.104-1.153-6.119-3.326-8.425c0.311-0.443,1.087-1.064,1.752-1.197
		c2.771,2.461,4.567,5.742,4.567,9.622c0,3.813-1.729,7.006-4.567,9.622c-0.665-0.133-1.441-0.754-1.752-1.197
		C180.071,267.821,181.313,264.895,181.313,261.791z"/>
</g>
</svg>
