<?xml version="1.0" encoding="utf-8"?>
<!-- Generator: Adobe Illustrator 16.0.0, SVG Export Plug-In . SVG Version: 6.00 Build 0)  -->
<!DOCTYPE svg PUBLIC "-//W3C//DTD SVG 1.0//EN" "http://www.w3.org/TR/2001/REC-SVG-20010904/DTD/svg10.dtd">
<svg version="1.0" xmlns="http://www.w3.org/2000/svg" xmlns:xlink="http://www.w3.org/1999/xlink" x="0px" y="0px" width="300px"
	 height="300px" viewBox="0 0 300 300" style="enable-background:new 0 0 300 300;" xml:space="preserve">
<g id="Icon">
	
		<line style="fill:none;stroke:#3F6F7B;stroke-width:1.026;stroke-dasharray:3.062,2.036;" x1="17.093" y1="77.097" x2="17.093" y2="225.082"/>
	
		<line style="fill:none;stroke:#3F6F7B;stroke-width:1.026;stroke-dasharray:3.117,2.091;" x1="24.25" y1="230.082" x2="277.566" y2="230.082"/>
	
		<line style="fill:none;stroke:#3F6F7B;stroke-width:1.026;stroke-dasharray:3.062,2.036;" x1="282.675" y1="223.086" x2="282.675" y2="75.101"/>
	
		<line style="fill:none;stroke:#3F6F7B;stroke-width:1.026;stroke-dasharray:3.117,2.091;" x1="275.517" y1="70.102" x2="22.201" y2="70.102"/>
	<path style="fill:none;stroke:#3F6F7B;stroke-width:1.026;" d="M20.15,70.102h-3.057v3.003 M282.675,73.105v-3.003h-3.057
		 M279.618,230.082h3.057v-3.003 M17.093,227.079v3.003h3.057"/>
	<g>
		<defs>
			<rect id="SVGID_1_" x="19.52" y="73.381" width="125.229" height="154.505"/>
		</defs>
		<clipPath id="SVGID_2_">
			<use xlink:href="#SVGID_1_"  style="overflow:visible;"/>
		</clipPath>
		<path style="clip-path:url(#SVGID_2_);fill:#61B1AD;" d="M99.985,168.549c0,0-14.498,4.803-17.292,21.678
			c-0.005,0.043-0.034,0.043-0.042,0c-2.792-16.875-17.291-21.678-17.291-21.678l9.5-9.438
			c-13.395-6.009-16.956-26.437-16.956-26.437c-0.756-2.954-0.849-4.975-0.849-4.975c6.708-0.458,30.113-2.471,31.713-10.06
			c2.208,4.076,13.887,14.32,18.613,15.096c0,0-4.588,20.203-17.117,26.36L99.985,168.549z M129.36,172.727
			c-1.13-2.699-3.846-4.429-6.434-5.491l-8.641-3.978c-0.008-6.34-0.069-37.919-0.033-41.241c0.05-5.168-0.567-9.783-1.921-13.776
			l10.751-3.884l0.027,9.935h-0.729c-0.51-0.045-0.958,0.32-1.018,0.828l-0.946,8.206c-0.03,0.249,0.044,0.5,0.203,0.695
			c0.159,0.196,0.389,0.322,0.64,0.343l7.512-0.001c0.253-0.029,0.482-0.149,0.64-0.345c0.159-0.197,0.232-0.45,0.203-0.701
			c-0.19-1.612-0.377-3.22-0.567-4.832l-0.389-3.372c-0.061-0.504-0.513-0.87-1.021-0.823h-0.73l0.016-11.323l0.383-0.138
			l1.272-0.46c1.079-0.389,1.796-1.411,1.796-2.555c0-1.145-0.718-2.168-1.796-2.559L83.598,80.999c-0.6-0.217-1.251-0.217-1.849,0
			L36.767,97.255c-1.077,0.388-1.795,1.412-1.795,2.557c0,1.146,0.718,2.167,1.795,2.557l16.313,5.895
			c-1.427,4.095-2.073,8.83-2.021,14.121v40.874l-8.639,3.978c-2.589,1.062-5.139,2.678-6.434,5.491c0,0-19.046,48.646-8.716,48.646
			h110.802C148.404,221.373,129.36,172.727,129.36,172.727"/>
	</g>
</g>
<g id="Text" style="display:none;">
	
		<text transform="matrix(1 0 0 1 244.1797 105.5645)" style="display:inline;fill:#B4A168; font-family:'FSMatthew-Bold'; font-size:37.2674;">%</text>
	<text transform="matrix(1 0 0 1 140.7129 120.8926)" style="display:inline;"><tspan x="0" y="0" style="fill:#B4A168; font-family:'FSMatthew-Bold'; font-size:59.3482; letter-spacing:-3;">9</tspan><tspan x="29.021" y="0" style="fill:#B4A168; font-family:'FSMatthew-Bold'; font-size:59.3482; letter-spacing:-4;">3</tspan><tspan x="57.447" y="0" style="fill:#B4A168; font-family:'FSMatthew-Bold'; font-size:59.3482; letter-spacing:-3;">.</tspan><tspan x="68.783" y="0" style="fill:#B4A168; font-family:'FSMatthew-Bold'; font-size:59.3482;">7</tspan></text>
	<text transform="matrix(1 0 0 1 146.8174 186.2168)" style="display:inline;"><tspan x="0" y="0" style="fill:#ADD1CF; font-family:'FSMatthew-Bold'; font-size:26.8325;">6 </tspan><tspan x="19.453" y="0" style="fill:#ADD1CF; font-family:'FSMatthew-Bold'; font-size:26.8325;">M</tspan><tspan x="40.973" y="0" style="fill:#ADD1CF; font-family:'FSMatthew-Bold'; font-size:26.8325;">ONTH</tspan><tspan x="107.194" y="0" style="fill:#ADD1CF; font-family:'FSMatthew-Bold'; font-size:26.8325;">S</tspan></text>
	<text transform="matrix(1 0 0 1 145.7139 137.7402)" style="display:inline;"><tspan x="0" y="0" style="fill:#1A2A4F; font-family:'FSMatthew'; font-size:12.0746;">O</tspan><tspan x="7.232" y="0" style="fill:#1A2A4F; font-family:'FSMatthew'; font-size:12.0746;">F </tspan><tspan x="15.214" y="0" style="fill:#1A2A4F; font-family:'FSMatthew'; font-size:12.0746;">OU</tspan><tspan x="29.739" y="0" style="fill:#1A2A4F; font-family:'FSMatthew'; font-size:12.0746;">R </tspan><tspan x="38.518" y="0" style="fill:#1A2A4F; font-family:'FSMatthew'; font-size:12.0746;">G</tspan><tspan x="45.689" y="0" style="fill:#1A2A4F; font-family:'FSMatthew'; font-size:12.0746;">R</tspan><tspan x="52.246" y="0" style="fill:#1A2A4F; font-family:'FSMatthew'; font-size:12.0746;">AD</tspan><tspan x="66.566" y="0" style="fill:#1A2A4F; font-family:'FSMatthew'; font-size:12.0746;">U</tspan><tspan x="73.654" y="0" style="fill:#1A2A4F; font-family:'FSMatthew'; font-size:12.0746; letter-spacing:-1;">A</tspan><tspan x="79.68" y="0" style="fill:#1A2A4F; font-family:'FSMatthew'; font-size:12.0746;">T</tspan><tspan x="85.753" y="0" style="fill:#1A2A4F; font-family:'FSMatthew'; font-size:12.0746;">ES </tspan><tspan x="99.929" y="0" style="fill:#1A2A4F; font-family:'FSMatthew'; font-size:12.0746;">FI</tspan><tspan x="108.368" y="0" style="fill:#1A2A4F; font-family:'FSMatthew'; font-size:12.0746;">N</tspan><tspan x="116.181" y="0" style="fill:#1A2A4F; font-family:'FSMatthew'; font-size:12.0746;">D </tspan></text>
	<text transform="matrix(1 0 0 1 144.6562 149.8135)" style="display:inline;"><tspan x="0" y="0" style="fill:#1A2A4F; font-family:'FSMatthew'; font-size:12.0746;">EMP</tspan><tspan x="21.432" y="0" style="fill:#1A2A4F; font-family:'FSMatthew'; font-size:12.0746;">L</tspan><tspan x="26.745" y="0" style="fill:#1A2A4F; font-family:'FSMatthew'; font-size:12.0746;">O</tspan><tspan x="33.833" y="0" style="fill:#1A2A4F; font-family:'FSMatthew'; font-size:12.0746;">Y</tspan><tspan x="39.701" y="0" style="fill:#1A2A4F; font-family:'FSMatthew'; font-size:12.0746;">MEN</tspan><tspan x="62.51" y="0" style="fill:#1A2A4F; font-family:'FSMatthew'; font-size:12.0746;">T</tspan><tspan x="68.1" y="0" style="fill:#1A2A4F; font-family:'FSMatthew'; font-size:12.0746;"> </tspan><tspan x="70.466" y="0" style="fill:#1A2A4F; font-family:'FSMatthew'; font-size:12.0746;">O</tspan><tspan x="77.699" y="0" style="fill:#1A2A4F; font-family:'FSMatthew'; font-size:12.0746;">R P</tspan><tspan x="92.912" y="0" style="fill:#1A2A4F; font-family:'FSMatthew'; font-size:12.0746;">U</tspan><tspan x="100.206" y="0" style="fill:#1A2A4F; font-family:'FSMatthew'; font-size:12.0746;">R</tspan><tspan x="106.617" y="0" style="fill:#1A2A4F; font-family:'FSMatthew'; font-size:12.0746;">S</tspan><tspan x="112.534" y="0" style="fill:#1A2A4F; font-family:'FSMatthew'; font-size:12.0746;">U</tspan><tspan x="119.839" y="0" style="fill:#1A2A4F; font-family:'FSMatthew'; font-size:12.0746;">E </tspan></text>
	<text transform="matrix(1 0 0 1 146.7334 161.8887)" style="display:inline;"><tspan x="0" y="0" style="fill:#1A2A4F; font-family:'FSMatthew'; font-size:12.0746;">F</tspan><tspan x="5.603" y="0" style="fill:#1A2A4F; font-family:'FSMatthew'; font-size:12.0746;">U</tspan><tspan x="12.908" y="0" style="fill:#1A2A4F; font-family:'FSMatthew'; font-size:12.0746;">R</tspan><tspan x="19.018" y="0" style="fill:#1A2A4F; font-family:'FSMatthew'; font-size:12.0746;">T</tspan><tspan x="25.091" y="0" style="fill:#1A2A4F; font-family:'FSMatthew'; font-size:12.0746;">HE</tspan><tspan x="38.518" y="0" style="fill:#1A2A4F; font-family:'FSMatthew'; font-size:12.0746;">R</tspan><tspan x="44.917" y="0" style="fill:#1A2A4F; font-family:'FSMatthew'; font-size:12.0746;"> </tspan><tspan x="47.283" y="0" style="fill:#1A2A4F; font-family:'FSMatthew'; font-size:12.0746;">S</tspan><tspan x="52.923" y="0" style="fill:#1A2A4F; font-family:'FSMatthew'; font-size:12.0746;">TU</tspan><tspan x="66.289" y="0" style="fill:#1A2A4F; font-family:'FSMatthew'; font-size:12.0746;">D</tspan><tspan x="73.51" y="0" style="fill:#1A2A4F; font-family:'FSMatthew'; font-size:12.0746;">Y</tspan><tspan x="79.475" y="0" style="fill:#1A2A4F; font-family:'FSMatthew'; font-size:12.0746;"> </tspan><tspan x="81.829" y="0" style="fill:#1A2A4F; font-family:'FSMatthew'; font-size:12.0746;"> WI</tspan><tspan x="97.248" y="0" style="fill:#1A2A4F; font-family:'FSMatthew'; font-size:12.0746;">T</tspan><tspan x="103.321" y="0" style="fill:#1A2A4F; font-family:'FSMatthew'; font-size:12.0746;">HI</tspan><tspan x="113.717" y="0" style="fill:#1A2A4F; font-family:'FSMatthew'; font-size:12.0746;">N</tspan></text>
	<text transform="matrix(1 0 0 1 147.3564 202.5898)" style="display:inline;"><tspan x="0" y="0" style="fill:#ADD1CF; font-family:'FSMatthew'; font-size:17.8884;">O</tspan><tspan x="10.822" y="0" style="fill:#ADD1CF; font-family:'FSMatthew'; font-size:17.8884;">F</tspan><tspan x="19.212" y="0" style="fill:#ADD1CF; font-family:'FSMatthew'; font-size:17.8884;"> G</tspan><tspan x="33.54" y="0" style="fill:#ADD1CF; font-family:'FSMatthew'; font-size:17.8884;">R</tspan><tspan x="43.325" y="0" style="fill:#ADD1CF; font-family:'FSMatthew'; font-size:17.8884;">A</tspan><tspan x="53.718" y="0" style="fill:#ADD1CF; font-family:'FSMatthew'; font-size:17.8884;">D</tspan><tspan x="64.737" y="0" style="fill:#ADD1CF; font-family:'FSMatthew'; font-size:17.8884;">U</tspan><tspan x="75.327" y="0" style="fill:#ADD1CF; font-family:'FSMatthew'; font-size:17.8884; letter-spacing:-1;">A</tspan><tspan x="84.343" y="0" style="fill:#ADD1CF; font-family:'FSMatthew'; font-size:17.8884;">TIO</tspan><tspan x="108.581" y="0" style="fill:#ADD1CF; font-family:'FSMatthew'; font-size:17.8884;">N </tspan></text>
	<text transform="matrix(1 0 0 1 164.8906 217.3809)" style="display:inline;"><tspan x="0" y="0" style="fill:#1A2A4F; font-family:'FSMatthew'; font-size:13.4163;">(</tspan><tspan x="4.092" y="0" style="fill:#1A2A4F; font-family:'FSMatthew'; font-size:13.4163;">DLH</tspan><tspan x="27.328" y="0" style="fill:#1A2A4F; font-family:'FSMatthew'; font-size:13.4163;">E</tspan><tspan x="34.211" y="0" style="fill:#1A2A4F; font-family:'FSMatthew'; font-size:13.4163;">, </tspan><tspan x="39.376" y="0" style="fill:#1A2A4F; font-family:'FSMatthew'; font-size:13.4163;">20</tspan><tspan x="53.274" y="0" style="fill:#1A2A4F; font-family:'FSMatthew'; font-size:13.4163;">1</tspan><tspan x="60.238" y="0" style="fill:#1A2A4F; font-family:'FSMatthew'; font-size:13.4163;">4</tspan><tspan x="67.188" y="0" style="fill:#1A2A4F; font-family:'FSMatthew'; font-size:13.4163;">/</tspan><tspan x="71.319" y="0" style="fill:#1A2A4F; font-family:'FSMatthew'; font-size:13.4163;">15</tspan><tspan x="85.219" y="0" style="fill:#1A2A4F; font-family:'FSMatthew'; font-size:13.4163;">)</tspan></text>
</g>
<g id="Text_Flat">
	<g>
		<path style="fill:#B4A168;" d="M246.043,85.778c0-3.205,1.453-5.962,5.589-5.962c4.174,0,5.59,2.757,5.59,5.962
			c0,3.13-1.416,6.036-5.59,6.036C247.496,91.814,246.043,88.908,246.043,85.778z M253.979,105.974
			c-1.603-0.446-3.241-1.527-4.062-2.683l15.277-23.959c1.528,0.409,3.167,1.341,4.099,2.496L253.979,105.974z M252.899,85.853
			c0-1.603-0.336-2.608-1.268-2.608s-1.267,1.006-1.267,2.608s0.373,2.534,1.267,2.534
			C252.526,88.387,252.899,87.455,252.899,85.853z M261.544,100.087c0-3.205,1.453-5.962,5.589-5.962c4.174,0,5.59,2.757,5.59,5.962
			c0,3.13-1.416,6.036-5.59,6.036C262.997,106.123,261.544,103.217,261.544,100.087z M268.4,100.161
			c0-1.603-0.336-2.608-1.268-2.608s-1.267,1.006-1.267,2.608s0.372,2.534,1.267,2.534S268.4,101.764,268.4,100.161z"/>
	</g>
	<g>
		<path style="fill:#B4A168;" d="M153.293,121.485c-2.374,0-4.984-0.355-6.409-0.83c-0.237-0.831-0.296-2.314-0.296-2.968
			c0-1.127,0.178-2.67,0.415-3.561c1.662,0.416,3.561,0.713,5.875,0.713c4.688,0,8.308-3.977,8.664-9.732
			c-1.721,1.128-4.095,1.84-6.943,1.84c-7.714,0-11.75-5.341-11.75-12.64c0-7.715,5.222-14.123,13.589-14.123
			c11.453,0,14.301,9.02,14.301,17.861C170.739,109.439,166.289,121.485,153.293,121.485z M156.616,86.949
			c-3.086,0-5.222,2.433-5.222,7.002c0,4.214,1.661,6.527,5.162,6.527c1.899,0,4.392-1.009,5.46-2.136
			c0-0.297,0.06-1.128,0.06-1.543C162.076,92.527,161.72,86.949,156.616,86.949z"/>
		<path style="fill:#B4A168;" d="M183.856,121.485c-3.857,0-8.485-0.533-11.334-1.958c-0.178-0.594-0.297-1.898-0.297-2.67
			c0-1.246,0.178-2.789,0.475-4.035c3.205,1.246,6.943,1.898,9.91,1.898c4.866,0,7.596-2.255,7.596-5.993
			c0-4.035-2.433-5.638-6.942-5.638h-3.265c-0.178-0.652-0.355-1.958-0.355-3.383c0-1.187,0.237-2.61,0.415-3.145h3.086
			c4.095,0,5.993-2.195,5.993-5.281c0-2.908-2.136-4.332-5.519-4.332c-3.026,0-6.587,0.771-9.554,2.018
			c-0.297-1.009-0.534-2.671-0.534-3.976c0-0.891,0.119-2.256,0.297-2.789c2.552-1.128,7.239-2.018,11.216-2.018
			c6.942,0,12.758,3.441,12.758,10.503c0,3.917-1.78,7.181-5.162,8.724v0.118c3.916,1.483,6.29,5.044,6.29,9.139
			C198.93,117.154,192.046,121.485,183.856,121.485z"/>
		<path style="fill:#B4A168;" d="M205.578,121.842c-2.374,0-4.332-1.958-4.332-4.332s1.958-4.332,4.332-4.332
			c2.373,0,4.332,1.958,4.332,4.332S207.951,121.842,205.578,121.842z"/>
		<path style="fill:#B4A168;" d="M239.107,87.483l-15.785,33.409c-1.127,0.178-2.848,0.297-4.332,0.297
			c-1.483,0-3.738-0.119-4.747-0.297l16.082-32.816h-17.921c-0.119-0.83-0.297-2.314-0.297-3.679c0-1.246,0.118-2.729,0.355-3.62
			h26.941c0.178,0.771,0.355,2.018,0.355,3.264C239.76,85.229,239.522,86.593,239.107,87.483z"/>
	</g>
	<g>
		<path style="fill:#ADD1CF;" d="M154.463,186.485c-4.882,0-6.76-3.434-6.76-8.504c0-5.714,2.119-10.167,8.047-10.167
			c1.02,0,2.441,0.161,3.031,0.376c0.107,0.376,0.134,0.992,0.134,1.288c0,0.509-0.054,1.207-0.188,1.582
			c-0.697-0.107-1.717-0.188-2.494-0.188c-2.603,0-4.158,1.583-4.453,4.507c0.831-0.537,2.253-0.993,3.567-0.993
			c3.219,0,5.258,2.414,5.258,5.66C160.605,183.668,158.218,186.485,154.463,186.485z M154.489,177.364
			c-1.153,0-2.307,0.483-2.87,1.02c-0.027,0.269-0.027,0.617-0.027,1.02c0,1.663,0.591,4.023,2.764,4.023
			c1.502,0,2.28-1.422,2.28-3.192C156.636,178.491,155.938,177.364,154.489,177.364z"/>
		<path style="fill:#ADD1CF;" d="M186.631,186.217c-0.322,0.08-1.047,0.134-1.798,0.134c-0.805,0-1.556-0.08-1.877-0.134
			l-0.322-10.891l-3.97,9.174c-0.296,0.107-0.939,0.161-1.342,0.161c-0.482,0-1.073-0.054-1.368-0.135l-3.97-9.2l-0.349,10.891
			c-0.349,0.08-1.181,0.134-1.905,0.134c-0.429,0-1.153-0.054-1.636-0.134l0.777-18.134c0.51-0.054,1.02-0.134,1.557-0.134
			c0.644,0,1.261,0.054,1.582,0.134l5.312,12.312l5.338-12.312c0.537-0.08,1.073-0.134,1.557-0.134c0.616,0,1.18,0.054,1.582,0.134
			L186.631,186.217z"/>
		<path style="fill:#ADD1CF;" d="M196.562,186.485c-4.962,0-7.591-3.434-7.591-9.335c0-5.902,2.629-9.336,7.591-9.336
			c4.963,0,7.592,3.434,7.592,9.336C204.153,183.052,201.524,186.485,196.562,186.485z M196.562,171.114
			c-2.307,0-3.621,1.771-3.621,6.036c0,4.265,1.314,6.035,3.621,6.035c2.308,0,3.622-1.771,3.622-6.035
			C200.184,172.885,198.869,171.114,196.562,171.114z"/>
		<path style="fill:#ADD1CF;" d="M221.245,186.217c-0.268,0.054-0.912,0.107-1.368,0.107s-0.912-0.027-1.341-0.107l-8.343-11.615
			v11.615c-0.215,0.054-1.02,0.134-1.771,0.134c-0.617,0-1.341-0.08-1.717-0.134v-18.134c0.43-0.08,0.939-0.107,1.422-0.107
			c0.51,0,1.046,0.054,1.448,0.107l8.182,11.4v-11.4c0.537-0.08,1.234-0.134,1.744-0.134s1.261,0.054,1.743,0.134V186.217z"/>
		<path style="fill:#ADD1CF;" d="M236.675,171.355h-4.802v14.861c-0.51,0.08-1.234,0.134-1.905,0.134
			c-0.67,0-1.395-0.054-1.931-0.134v-14.861h-4.802c-0.107-0.349-0.188-1.18-0.188-1.636s0.107-1.288,0.215-1.637h13.413
			c0.106,0.349,0.188,1.181,0.188,1.637S236.781,171.007,236.675,171.355z"/>
		<path style="fill:#ADD1CF;" d="M252.639,186.217c-0.482,0.08-1.153,0.134-1.904,0.134s-1.422-0.054-1.932-0.134v-7.511h-6.304
			v7.511c-0.51,0.08-1.1,0.134-1.904,0.134c-0.725,0-1.422-0.054-1.932-0.134v-18.134c0.51-0.08,1.261-0.134,1.932-0.134
			c0.751,0,1.422,0.054,1.904,0.134v7.351h6.304v-7.351c0.591-0.08,1.261-0.134,1.932-0.134c0.644,0,1.448,0.054,1.904,0.134
			V186.217z"/>
		<path style="fill:#ADD1CF;" d="M260.959,186.485c-1.958,0-4.104-0.376-5.633-1.073c-0.08-0.376-0.134-0.858-0.134-1.288
			c0-0.644,0.08-1.261,0.268-1.984c1.583,0.644,3.676,1.046,5.312,1.046c1.904,0,2.924-0.885,2.924-2.093
			c0-1.341-0.858-1.904-3.46-2.709c-2.897-0.885-5.017-2.28-5.017-5.392c0-3.326,2.87-5.178,6.652-5.178
			c1.744,0,3.3,0.269,4.346,0.617c0.081,0.295,0.135,0.778,0.135,1.476c0,0.51-0.054,1.288-0.161,1.717
			c-1.342-0.349-2.87-0.536-4.104-0.536c-2.012,0-3.111,0.67-3.111,1.743c0,1.261,0.992,1.771,3.406,2.521
			c2.897,0.912,5.043,2.28,5.043,5.499C267.424,184.366,264.661,186.485,260.959,186.485z"/>
	</g>
	<g>
		<path style="fill:#1A2A4F;" d="M149.479,137.86c-1.979,0-3.234-1.291-3.234-4.188c0-2.824,1.279-4.213,3.259-4.213
			s3.21,1.389,3.21,4.213C152.714,136.569,151.459,137.86,149.479,137.86z M149.492,130.462c-1.231,0-1.979,0.833-1.979,3.187
			c0,2.317,0.736,3.211,1.967,3.211c1.231,0,1.968-0.894,1.968-3.211C151.447,131.295,150.723,130.462,149.492,130.462z"/>
		<path style="fill:#1A2A4F;" d="M158.426,130.57h-3.367v2.463h2.788c0.048,0.145,0.061,0.35,0.061,0.494
			c0,0.157-0.013,0.338-0.061,0.495h-2.788v3.718c-0.205,0.036-0.387,0.061-0.604,0.061c-0.205,0-0.41-0.024-0.604-0.061v-8.159
			h4.574c0.049,0.145,0.061,0.35,0.061,0.495C158.486,130.232,158.475,130.414,158.426,130.57z"/>
		<path style="fill:#1A2A4F;" d="M164.693,137.86c-1.979,0-3.234-1.291-3.234-4.188c0-2.824,1.279-4.213,3.259-4.213
			s3.21,1.389,3.21,4.213C167.928,136.569,166.673,137.86,164.693,137.86z M164.705,130.462c-1.23,0-1.979,0.833-1.979,3.187
			c0,2.317,0.735,3.211,1.967,3.211s1.968-0.894,1.968-3.211C166.661,131.295,165.937,130.462,164.705,130.462z"/>
		<path style="fill:#1A2A4F;" d="M174.883,134.687c0,2.1-0.724,3.174-2.945,3.174c-2.317,0-2.908-1.025-2.908-3.174v-5.105
			c0.193-0.024,0.386-0.061,0.579-0.061c0.218,0,0.41,0.024,0.628,0.061v5.311c0,1.171,0.253,2.04,1.689,2.04
			s1.786-0.869,1.786-2.04v-5.311c0.193-0.024,0.362-0.061,0.556-0.061c0.217,0,0.398,0.024,0.615,0.061V134.687z"/>
		<path style="fill:#1A2A4F;" d="M181.79,137.74c-0.242,0.036-0.483,0.061-0.725,0.061c-0.229,0-0.422-0.013-0.651-0.061
			l-1.786-3.139h-1.062v3.139c-0.205,0.036-0.41,0.061-0.615,0.061c-0.193,0-0.398-0.024-0.592-0.061v-8.159
			c0.592-0.036,1.304-0.061,1.991-0.061c1.702,0,3.066,0.519,3.066,2.475c0,1.074-0.592,2.016-1.582,2.377L181.79,137.74z
			 M178.482,130.462c-0.277,0-0.712,0-0.917,0.012v3.175h0.82c1.135,0,1.811-0.507,1.811-1.653
			C180.196,130.885,179.557,130.462,178.482,130.462z"/>
		<path style="fill:#1A2A4F;" d="M190.93,137.306c-0.651,0.313-1.521,0.555-2.438,0.555c-2.547,0-3.729-1.678-3.729-4.115
			c0-1.425,0.495-2.655,1.399-3.428c0.641-0.543,1.521-0.857,2.535-0.857c0.748,0,1.497,0.157,1.955,0.362
			c0.049,0.157,0.061,0.302,0.061,0.471s-0.012,0.313-0.061,0.471c-0.531-0.157-1.291-0.277-1.858-0.277
			c-0.797,0-1.425,0.253-1.858,0.664c-0.628,0.591-0.905,1.532-0.905,2.57c0,1.991,0.868,3.102,2.582,3.102
			c0.435,0,0.857-0.084,1.111-0.192v-2.655c0.192-0.024,0.374-0.061,0.566-0.061c0.218,0,0.423,0.024,0.64,0.061V137.306z"/>
		<path style="fill:#1A2A4F;" d="M197.74,137.74c-0.242,0.036-0.483,0.061-0.725,0.061c-0.229,0-0.422-0.013-0.651-0.061
			l-1.786-3.139h-1.062v3.139c-0.205,0.036-0.41,0.061-0.615,0.061c-0.193,0-0.398-0.024-0.592-0.061v-8.159
			c0.592-0.036,1.304-0.061,1.991-0.061c1.702,0,3.066,0.519,3.066,2.475c0,1.074-0.592,2.016-1.582,2.377L197.74,137.74z
			 M194.433,130.462c-0.277,0-0.712,0-0.917,0.012v3.175h0.82c1.135,0,1.811-0.507,1.811-1.653
			C196.146,130.885,195.507,130.462,194.433,130.462z"/>
		<path style="fill:#1A2A4F;" d="M203.187,135.809H200l-0.628,1.932c-0.157,0.023-0.41,0.061-0.651,0.061
			c-0.169,0-0.411-0.024-0.567-0.061l2.812-8.159c0.146-0.036,0.447-0.061,0.604-0.061c0.169,0,0.447,0.036,0.556,0.061l3.018,8.159
			c-0.108,0.023-0.398,0.061-0.628,0.061c-0.181,0-0.471-0.013-0.651-0.061L203.187,135.809z M200.313,134.819h2.522l-0.966-2.776
			c-0.156-0.459-0.253-0.833-0.313-1.158h-0.012c-0.061,0.325-0.182,0.712-0.326,1.17L200.313,134.819z"/>
		<path style="fill:#1A2A4F;" d="M210.793,137.028c-0.7,0.555-1.666,0.772-3.018,0.772c-0.555,0-1.593-0.024-1.955-0.061v-8.159
			c0.555-0.036,1.304-0.061,2.148-0.061c2.8,0,4.079,1.159,4.079,4.092C212.048,135.193,211.613,136.364,210.793,137.028z
			 M207.957,130.462c-0.242,0-0.677,0.012-0.93,0.024v6.324c0.217,0.024,0.615,0.036,1.038,0.036c0.917,0,1.521-0.253,1.943-0.7
			c0.567-0.591,0.772-1.545,0.772-2.559C210.781,131.524,210.189,130.462,207.957,130.462z"/>
		<path style="fill:#1A2A4F;" d="M219.003,134.687c0,2.1-0.724,3.174-2.945,3.174c-2.317,0-2.908-1.025-2.908-3.174v-5.105
			c0.193-0.024,0.386-0.061,0.579-0.061c0.218,0,0.41,0.024,0.628,0.061v5.311c0,1.171,0.253,2.04,1.689,2.04
			s1.786-0.869,1.786-2.04v-5.311c0.193-0.024,0.362-0.061,0.556-0.061c0.217,0,0.398,0.024,0.615,0.061V134.687z"/>
		<path style="fill:#1A2A4F;" d="M224.595,135.809h-3.187l-0.628,1.932c-0.157,0.023-0.41,0.061-0.651,0.061
			c-0.169,0-0.411-0.024-0.567-0.061l2.812-8.159c0.146-0.036,0.447-0.061,0.604-0.061c0.169,0,0.447,0.036,0.556,0.061l3.018,8.159
			c-0.108,0.023-0.398,0.061-0.628,0.061c-0.181,0-0.471-0.013-0.651-0.061L224.595,135.809z M221.722,134.819h2.522l-0.966-2.776
			c-0.156-0.459-0.253-0.833-0.313-1.158h-0.012c-0.061,0.325-0.182,0.712-0.326,1.17L221.722,134.819z"/>
		<path style="fill:#1A2A4F;" d="M231.562,130.57h-2.438v7.17c-0.205,0.036-0.398,0.061-0.615,0.061
			c-0.205,0-0.398-0.024-0.592-0.061v-7.17h-2.317c-0.048-0.156-0.061-0.338-0.061-0.494c0-0.146,0.013-0.351,0.061-0.495h5.963
			c0.048,0.145,0.06,0.35,0.06,0.495C231.621,130.232,231.609,130.414,231.562,130.57z"/>
		<path style="fill:#1A2A4F;" d="M237.128,137.74h-4.756v-8.159h4.574c0.049,0.145,0.061,0.35,0.061,0.495
			c0,0.156-0.012,0.338-0.061,0.494h-3.367v2.463h2.909c0.048,0.145,0.06,0.35,0.06,0.494c0,0.157-0.012,0.338-0.06,0.495h-2.909
			v2.728h3.549c0.048,0.146,0.06,0.351,0.06,0.495C237.188,137.402,237.176,137.583,237.128,137.74z"/>
		<path style="fill:#1A2A4F;" d="M240.304,137.86c-0.664,0-1.726-0.145-2.317-0.458c-0.036-0.169-0.061-0.326-0.061-0.495
			c0-0.181,0.013-0.362,0.061-0.531c0.567,0.266,1.569,0.495,2.257,0.495c1.002,0,1.678-0.387,1.678-1.219
			c0-0.761-0.35-1.135-1.327-1.497l-0.616-0.229c-1.219-0.458-1.967-1.122-1.967-2.245c0-1.509,1.279-2.221,2.739-2.221
			c0.64,0,1.256,0.072,1.823,0.218c0.036,0.145,0.06,0.302,0.06,0.458c0,0.169-0.023,0.338-0.06,0.507
			c-0.592-0.12-1.147-0.192-1.751-0.192c-0.82,0-1.593,0.325-1.593,1.194c0,0.616,0.338,0.99,1.292,1.353l0.566,0.217
			c1.243,0.459,1.992,1.038,1.992,2.317C243.08,137.101,241.849,137.86,240.304,137.86z"/>
		<path style="fill:#1A2A4F;" d="M251.122,130.57h-3.367v2.463h2.788c0.048,0.145,0.061,0.35,0.061,0.494
			c0,0.157-0.013,0.338-0.061,0.495h-2.788v3.718c-0.205,0.036-0.387,0.061-0.604,0.061c-0.205,0-0.41-0.024-0.604-0.061v-8.159
			h4.574c0.049,0.145,0.061,0.35,0.061,0.495C251.183,130.232,251.171,130.414,251.122,130.57z"/>
		<path style="fill:#1A2A4F;" d="M253.418,137.74c-0.193,0.023-0.387,0.061-0.58,0.061c-0.217,0-0.41-0.024-0.627-0.061v-8.159
			c0.205-0.036,0.398-0.061,0.615-0.061c0.205,0,0.398,0.024,0.592,0.061V137.74z"/>
		<path style="fill:#1A2A4F;" d="M261.275,137.74c-0.097,0.036-0.302,0.048-0.458,0.048c-0.146,0-0.29-0.012-0.423-0.048
			l-4.297-6.096v6.096c-0.108,0.036-0.398,0.061-0.579,0.061c-0.146,0-0.374-0.013-0.531-0.061v-8.159
			c0.097-0.024,0.35-0.049,0.471-0.049c0.157,0,0.362,0.013,0.482,0.049l4.225,5.998v-5.998c0.133-0.036,0.362-0.061,0.52-0.061
			c0.145,0,0.471,0.024,0.591,0.061V137.74z"/>
		<path style="fill:#1A2A4F;" d="M267.772,137.028c-0.7,0.555-1.666,0.772-3.018,0.772c-0.555,0-1.593-0.024-1.955-0.061v-8.159
			c0.555-0.036,1.304-0.061,2.148-0.061c2.8,0,4.079,1.159,4.079,4.092C269.027,135.193,268.593,136.364,267.772,137.028z
			 M264.937,130.462c-0.242,0-0.677,0.012-0.93,0.024v6.324c0.217,0.024,0.615,0.036,1.038,0.036c0.917,0,1.521-0.253,1.943-0.7
			c0.567-0.591,0.772-1.545,0.772-2.559C267.761,131.524,267.169,130.462,264.937,130.462z"/>
	</g>
	<g>
		<path style="fill:#1A2A4F;" d="M150.317,149.813h-4.755v-8.159h4.574c0.048,0.145,0.061,0.35,0.061,0.495
			c0,0.156-0.012,0.338-0.061,0.494h-3.367v2.463h2.909c0.048,0.145,0.061,0.35,0.061,0.494c0,0.157-0.012,0.338-0.061,0.495h-2.909
			v2.728h3.548c0.048,0.146,0.061,0.351,0.061,0.495C150.377,149.476,150.365,149.656,150.317,149.813z"/>
		<path style="fill:#1A2A4F;" d="M159.118,149.813c-0.145,0.036-0.362,0.061-0.531,0.061c-0.156,0-0.519-0.024-0.664-0.061
			l-0.145-5.842l-2.136,5.081c-0.061,0.024-0.314,0.049-0.423,0.049s-0.326-0.024-0.398-0.049l-2.173-5.081l-0.145,5.842
			c-0.133,0.023-0.446,0.061-0.615,0.061c-0.121,0-0.41-0.037-0.531-0.061l0.29-8.159c0.181-0.036,0.374-0.061,0.494-0.061
			c0.169,0,0.435,0.036,0.543,0.061l2.547,5.865l2.463-5.865c0.156-0.024,0.458-0.061,0.627-0.061s0.435,0.036,0.531,0.061
			L159.118,149.813z"/>
		<path style="fill:#1A2A4F;" d="M164.674,146.35c-0.459,0.277-1.195,0.386-1.727,0.386h-1.183v3.078
			c-0.205,0.036-0.398,0.061-0.615,0.061c-0.206,0-0.398-0.024-0.592-0.061v-8.159c0.423-0.024,1.533-0.061,2.281-0.061
			c1.75,0,2.969,0.519,2.969,2.486C165.808,145.01,165.422,145.891,164.674,146.35z M162.863,142.535
			c-0.29,0-0.918,0.012-1.099,0.024v3.223h1.062c0.965,0,1.762-0.314,1.762-1.678C164.589,142.897,163.9,142.535,162.863,142.535z"
			/>
		<path style="fill:#1A2A4F;" d="M171.857,148.823c0.048,0.146,0.061,0.351,0.061,0.495c0,0.157-0.013,0.338-0.061,0.495h-4.864
			v-8.159c0.205-0.036,0.423-0.061,0.64-0.061c0.205,0,0.374,0.024,0.567,0.061v7.169H171.857z"/>
		<path style="fill:#1A2A4F;" d="M175.167,149.934c-1.979,0-3.234-1.291-3.234-4.188c0-2.824,1.279-4.213,3.259-4.213
			s3.21,1.389,3.21,4.213C178.401,148.643,177.146,149.934,175.167,149.934z M175.179,142.535c-1.23,0-1.979,0.833-1.979,3.187
			c0,2.317,0.735,3.211,1.967,3.211s1.968-0.894,1.968-3.211C177.135,143.368,176.41,142.535,175.179,142.535z"/>
		<path style="fill:#1A2A4F;" d="M181.012,146.953l-1.798-3.573c-0.302-0.604-0.483-1.23-0.483-1.738
			c0.169-0.036,0.314-0.048,0.592-0.048c0.217,0,0.422,0.012,0.591,0.048c0,0.411,0.049,0.797,0.302,1.328l1.4,2.885h0.024
			l1.399-2.812c0.254-0.507,0.302-1.002,0.302-1.388c0.169-0.049,0.29-0.061,0.556-0.061c0.205,0,0.423,0.024,0.604,0.061
			c0,0.458-0.121,1.086-0.446,1.726l-1.835,3.597v2.837c-0.169,0.036-0.41,0.061-0.604,0.061c-0.217,0-0.41-0.024-0.604-0.061
			V146.953z"/>
		<path style="fill:#1A2A4F;" d="M192.939,149.813c-0.146,0.036-0.362,0.061-0.531,0.061c-0.157,0-0.52-0.024-0.664-0.061
			l-0.145-5.842l-2.137,5.081c-0.061,0.024-0.313,0.049-0.423,0.049c-0.108,0-0.325-0.024-0.397-0.049l-2.173-5.081l-0.145,5.842
			c-0.133,0.023-0.447,0.061-0.616,0.061c-0.12,0-0.41-0.037-0.531-0.061l0.29-8.159c0.181-0.036,0.374-0.061,0.495-0.061
			c0.169,0,0.435,0.036,0.543,0.061l2.547,5.865l2.462-5.865c0.157-0.024,0.459-0.061,0.628-0.061s0.435,0.036,0.531,0.061
			L192.939,149.813z"/>
		<path style="fill:#1A2A4F;" d="M199.135,149.813h-4.756v-8.159h4.574c0.049,0.145,0.061,0.35,0.061,0.495
			c0,0.156-0.012,0.338-0.061,0.494h-3.367v2.463h2.908c0.049,0.145,0.061,0.35,0.061,0.494c0,0.157-0.012,0.338-0.061,0.495h-2.908
			v2.728h3.549c0.048,0.146,0.06,0.351,0.06,0.495C199.194,149.476,199.183,149.656,199.135,149.813z"/>
		<path style="fill:#1A2A4F;" d="M206.547,149.813c-0.097,0.036-0.302,0.048-0.458,0.048c-0.146,0-0.29-0.012-0.423-0.048
			l-4.297-6.096v6.096c-0.108,0.036-0.398,0.061-0.579,0.061c-0.146,0-0.374-0.013-0.531-0.061v-8.159
			c0.097-0.024,0.35-0.049,0.471-0.049c0.157,0,0.362,0.013,0.482,0.049l4.225,5.998v-5.998c0.133-0.036,0.362-0.061,0.52-0.061
			c0.145,0,0.471,0.024,0.591,0.061V149.813z"/>
		<path style="fill:#1A2A4F;" d="M213.334,142.644h-2.438v7.17c-0.205,0.036-0.398,0.061-0.615,0.061
			c-0.205,0-0.398-0.024-0.592-0.061v-7.17h-2.317c-0.048-0.156-0.061-0.338-0.061-0.494c0-0.146,0.013-0.351,0.061-0.495h5.963
			c0.048,0.145,0.06,0.35,0.06,0.495C213.394,142.306,213.382,142.487,213.334,142.644z"/>
		<path style="fill:#1A2A4F;" d="M218.888,149.934c-1.979,0-3.234-1.291-3.234-4.188c0-2.824,1.279-4.213,3.259-4.213
			s3.21,1.389,3.21,4.213C222.122,148.643,220.867,149.934,218.888,149.934z M218.899,142.535c-1.23,0-1.979,0.833-1.979,3.187
			c0,2.317,0.735,3.211,1.967,3.211s1.968-0.894,1.968-3.211C220.855,143.368,220.131,142.535,218.899,142.535z"/>
		<path style="fill:#1A2A4F;" d="M228.692,149.813c-0.242,0.036-0.483,0.061-0.725,0.061c-0.229,0-0.422-0.013-0.651-0.061
			l-1.786-3.139h-1.062v3.139c-0.205,0.036-0.41,0.061-0.615,0.061c-0.193,0-0.398-0.024-0.592-0.061v-8.159
			c0.592-0.036,1.304-0.061,1.991-0.061c1.702,0,3.066,0.519,3.066,2.475c0,1.074-0.592,2.016-1.582,2.377L228.692,149.813z
			 M225.385,142.535c-0.277,0-0.712,0-0.917,0.012v3.175h0.82c1.135,0,1.811-0.507,1.811-1.653
			C227.099,142.958,226.459,142.535,225.385,142.535z"/>
		<path style="fill:#1A2A4F;" d="M236.154,146.35c-0.459,0.277-1.195,0.386-1.727,0.386h-1.183v3.078
			c-0.205,0.036-0.398,0.061-0.615,0.061c-0.206,0-0.398-0.024-0.592-0.061v-8.159c0.423-0.024,1.533-0.061,2.281-0.061
			c1.75,0,2.969,0.519,2.969,2.486C237.288,145.01,236.902,145.891,236.154,146.35z M234.344,142.535
			c-0.29,0-0.918,0.012-1.099,0.024v3.223h1.062c0.965,0,1.762-0.314,1.762-1.678C236.069,142.897,235.381,142.535,234.344,142.535z
			"/>
		<path style="fill:#1A2A4F;" d="M244.291,146.76c0,2.1-0.724,3.174-2.945,3.174c-2.317,0-2.908-1.025-2.908-3.174v-5.105
			c0.193-0.024,0.386-0.061,0.579-0.061c0.218,0,0.41,0.024,0.628,0.061v5.311c0,1.171,0.253,2.04,1.689,2.04
			s1.786-0.869,1.786-2.04v-5.311c0.193-0.024,0.362-0.061,0.556-0.061c0.217,0,0.398,0.024,0.615,0.061V146.76z"/>
		<path style="fill:#1A2A4F;" d="M251.199,149.813c-0.242,0.036-0.483,0.061-0.725,0.061c-0.229,0-0.422-0.013-0.651-0.061
			l-1.786-3.139h-1.062v3.139c-0.205,0.036-0.41,0.061-0.615,0.061c-0.193,0-0.398-0.024-0.592-0.061v-8.159
			c0.592-0.036,1.304-0.061,1.991-0.061c1.702,0,3.066,0.519,3.066,2.475c0,1.074-0.592,2.016-1.582,2.377L251.199,149.813z
			 M247.892,142.535c-0.277,0-0.712,0-0.917,0.012v3.175h0.82c1.135,0,1.811-0.507,1.811-1.653
			C249.605,142.958,248.966,142.535,247.892,142.535z"/>
		<path style="fill:#1A2A4F;" d="M254.23,149.934c-0.664,0-1.726-0.145-2.317-0.458c-0.036-0.169-0.061-0.326-0.061-0.495
			c0-0.181,0.013-0.362,0.061-0.531c0.567,0.266,1.569,0.495,2.257,0.495c1.002,0,1.678-0.387,1.678-1.219
			c0-0.761-0.35-1.135-1.327-1.497l-0.616-0.229c-1.219-0.458-1.967-1.122-1.967-2.245c0-1.509,1.279-2.221,2.739-2.221
			c0.64,0,1.256,0.072,1.823,0.218c0.036,0.145,0.06,0.302,0.06,0.458c0,0.169-0.023,0.338-0.06,0.507
			c-0.592-0.12-1.147-0.192-1.75-0.192c-0.821,0-1.594,0.325-1.594,1.194c0,0.616,0.338,0.99,1.292,1.353l0.566,0.217
			c1.243,0.459,1.992,1.038,1.992,2.317C257.007,149.174,255.775,149.934,254.23,149.934z"/>
		<path style="fill:#1A2A4F;" d="M263.913,146.76c0,2.1-0.724,3.174-2.945,3.174c-2.317,0-2.908-1.025-2.908-3.174v-5.105
			c0.193-0.024,0.386-0.061,0.579-0.061c0.218,0,0.41,0.024,0.628,0.061v5.311c0,1.171,0.253,2.04,1.689,2.04
			s1.786-0.869,1.786-2.04v-5.311c0.193-0.024,0.362-0.061,0.556-0.061c0.217,0,0.398,0.024,0.615,0.061V146.76z"/>
		<path style="fill:#1A2A4F;" d="M270.156,149.813H265.4v-8.159h4.574c0.049,0.145,0.061,0.35,0.061,0.495
			c0,0.156-0.012,0.338-0.061,0.494h-3.367v2.463h2.908c0.049,0.145,0.061,0.35,0.061,0.494c0,0.157-0.012,0.338-0.061,0.495h-2.908
			v2.728h3.549c0.048,0.146,0.06,0.351,0.06,0.495C270.216,149.476,270.204,149.656,270.156,149.813z"/>
	</g>
	<g>
		<path style="fill:#1A2A4F;" d="M152.213,154.72h-3.367v2.462h2.788c0.048,0.145,0.061,0.35,0.061,0.495
			c0,0.156-0.013,0.338-0.061,0.494h-2.788v3.718c-0.205,0.036-0.386,0.061-0.604,0.061c-0.205,0-0.411-0.024-0.604-0.061v-8.159
			h4.574c0.049,0.145,0.061,0.35,0.061,0.495C152.273,154.381,152.262,154.562,152.213,154.72z"/>
		<path style="fill:#1A2A4F;" d="M159.059,158.835c0,2.101-0.724,3.175-2.945,3.175c-2.317,0-2.908-1.026-2.908-3.175v-5.105
			c0.193-0.024,0.386-0.061,0.579-0.061c0.218,0,0.41,0.024,0.628,0.061v5.311c0,1.171,0.253,2.04,1.689,2.04
			s1.786-0.869,1.786-2.04v-5.311c0.193-0.024,0.362-0.061,0.556-0.061c0.217,0,0.398,0.024,0.615,0.061V158.835z"/>
		<path style="fill:#1A2A4F;" d="M165.979,161.889c-0.242,0.036-0.483,0.061-0.725,0.061c-0.229,0-0.422-0.013-0.651-0.061
			l-1.786-3.138h-1.062v3.138c-0.205,0.036-0.41,0.061-0.615,0.061c-0.193,0-0.398-0.024-0.592-0.061v-8.159
			c0.592-0.036,1.304-0.061,1.991-0.061c1.702,0,3.066,0.52,3.066,2.475c0,1.074-0.592,2.016-1.582,2.378L165.979,161.889z
			 M162.671,154.61c-0.277,0-0.712,0-0.917,0.013v3.174h0.82c1.135,0,1.811-0.507,1.811-1.653
			C164.385,155.033,163.745,154.61,162.671,154.61z"/>
		<path style="fill:#1A2A4F;" d="M171.919,154.72h-2.438v7.169c-0.205,0.036-0.398,0.061-0.615,0.061
			c-0.205,0-0.398-0.024-0.592-0.061v-7.169h-2.317c-0.048-0.157-0.061-0.339-0.061-0.495c0-0.146,0.013-0.351,0.061-0.495h5.963
			c0.048,0.145,0.06,0.35,0.06,0.495C171.979,154.381,171.967,154.562,171.919,154.72z"/>
		<path style="fill:#1A2A4F;" d="M178.752,161.889c-0.192,0.024-0.374,0.061-0.567,0.061c-0.217,0-0.422-0.024-0.64-0.061v-3.621
			h-3.608v3.621c-0.205,0.036-0.423,0.061-0.64,0.061c-0.205,0-0.374-0.024-0.567-0.061v-8.159c0.145-0.024,0.362-0.061,0.555-0.061
			c0.218,0,0.435,0.024,0.652,0.061v3.549h3.608v-3.549c0.205-0.036,0.411-0.061,0.628-0.061c0.205,0,0.387,0.024,0.579,0.061
			V161.889z"/>
		<path style="fill:#1A2A4F;" d="M185.032,161.889h-4.756v-8.159h4.574c0.049,0.145,0.061,0.35,0.061,0.495
			c0,0.156-0.012,0.338-0.061,0.495h-3.367v2.462h2.909c0.048,0.145,0.06,0.35,0.06,0.495c0,0.156-0.012,0.338-0.06,0.494h-2.909
			v2.729h3.549c0.048,0.145,0.06,0.35,0.06,0.494C185.092,161.551,185.08,161.731,185.032,161.889z"/>
		<path style="fill:#1A2A4F;" d="M191.588,161.889c-0.242,0.036-0.483,0.061-0.725,0.061c-0.229,0-0.422-0.013-0.651-0.061
			l-1.786-3.138h-1.062v3.138c-0.205,0.036-0.41,0.061-0.615,0.061c-0.193,0-0.398-0.024-0.592-0.061v-8.159
			c0.592-0.036,1.304-0.061,1.991-0.061c1.702,0,3.066,0.52,3.066,2.475c0,1.074-0.592,2.016-1.582,2.378L191.588,161.889z
			 M188.28,154.61c-0.277,0-0.712,0-0.917,0.013v3.174h0.82c1.135,0,1.811-0.507,1.811-1.653
			C189.994,155.033,189.354,154.61,188.28,154.61z"/>
		<path style="fill:#1A2A4F;" d="M196.974,162.01c-0.664,0-1.726-0.146-2.317-0.459c-0.036-0.169-0.061-0.326-0.061-0.495
			c0-0.181,0.013-0.362,0.061-0.531c0.567,0.266,1.569,0.495,2.257,0.495c1.002,0,1.678-0.386,1.678-1.219
			c0-0.761-0.35-1.135-1.327-1.497l-0.616-0.229c-1.219-0.458-1.967-1.122-1.967-2.244c0-1.509,1.279-2.222,2.739-2.222
			c0.64,0,1.256,0.073,1.823,0.218c0.036,0.145,0.06,0.302,0.06,0.459c0,0.169-0.023,0.338-0.06,0.507
			c-0.592-0.121-1.147-0.193-1.751-0.193c-0.82,0-1.593,0.326-1.593,1.195c0,0.615,0.338,0.989,1.292,1.352l0.566,0.217
			c1.243,0.459,1.992,1.038,1.992,2.317C199.75,161.249,198.519,162.01,196.974,162.01z"/>
		<path style="fill:#1A2A4F;" d="M205.824,154.72h-2.438v7.169c-0.205,0.036-0.398,0.061-0.615,0.061
			c-0.205,0-0.398-0.024-0.592-0.061v-7.169h-2.317c-0.048-0.157-0.061-0.339-0.061-0.495c0-0.146,0.013-0.351,0.061-0.495h5.963
			c0.048,0.145,0.06,0.35,0.06,0.495C205.884,154.381,205.872,154.562,205.824,154.72z"/>
		<path style="fill:#1A2A4F;" d="M212.452,158.835c0,2.101-0.724,3.175-2.945,3.175c-2.317,0-2.908-1.026-2.908-3.175v-5.105
			c0.193-0.024,0.386-0.061,0.579-0.061c0.218,0,0.41,0.024,0.628,0.061v5.311c0,1.171,0.253,2.04,1.689,2.04
			s1.786-0.869,1.786-2.04v-5.311c0.193-0.024,0.362-0.061,0.556-0.061c0.217,0,0.398,0.024,0.615,0.061V158.835z"/>
		<path style="fill:#1A2A4F;" d="M218.9,161.177c-0.7,0.555-1.666,0.772-3.018,0.772c-0.555,0-1.593-0.024-1.955-0.061v-8.159
			c0.555-0.036,1.304-0.061,2.148-0.061c2.8,0,4.079,1.159,4.079,4.092C220.155,159.342,219.721,160.513,218.9,161.177z
			 M216.064,154.61c-0.242,0-0.677,0.013-0.93,0.024v6.324c0.217,0.024,0.615,0.036,1.038,0.036c0.917,0,1.521-0.253,1.943-0.699
			c0.567-0.592,0.772-1.545,0.772-2.56C218.889,155.673,218.297,154.61,216.064,154.61z"/>
		<path style="fill:#1A2A4F;" d="M222.766,159.028l-1.798-3.573c-0.302-0.604-0.483-1.23-0.483-1.737
			c0.169-0.036,0.314-0.049,0.592-0.049c0.217,0,0.422,0.013,0.591,0.049c0,0.41,0.049,0.796,0.302,1.327l1.4,2.885h0.024
			l1.399-2.812c0.254-0.507,0.302-1.001,0.302-1.388c0.169-0.048,0.29-0.061,0.556-0.061c0.205,0,0.423,0.024,0.604,0.061
			c0,0.459-0.121,1.086-0.446,1.726l-1.835,3.598v2.836c-0.169,0.036-0.41,0.061-0.604,0.061c-0.217,0-0.41-0.024-0.604-0.061
			V159.028z"/>
		<path style="fill:#1A2A4F;" d="M234.694,161.889c-0.253,0.036-0.482,0.061-0.736,0.061c-0.217,0-0.495-0.024-0.712-0.061
			l-1.714-6.119c-0.205-0.712-0.29-1.364-0.29-2.04c0.182-0.048,0.338-0.061,0.592-0.061c0.217,0,0.362,0,0.592,0.061
			c0,0.64,0.048,1.146,0.253,1.919l1.014,3.862c0.133,0.52,0.229,0.894,0.266,1.195h0.013c0.036-0.302,0.133-0.749,0.241-1.183
			l1.388-5.794c0.193-0.036,0.387-0.061,0.579-0.061c0.193,0,0.374,0.024,0.567,0.061l1.376,5.794
			c0.097,0.397,0.193,0.82,0.229,1.183h0.012c0.049-0.362,0.157-0.809,0.266-1.195l1.051-3.862c0.181-0.64,0.265-1.279,0.265-1.919
			c0.157-0.036,0.326-0.061,0.567-0.061c0.193,0,0.411,0.013,0.592,0.061c0,0.676-0.085,1.315-0.29,2.04l-1.726,6.119
			c-0.205,0.036-0.471,0.061-0.688,0.061c-0.253,0-0.482-0.024-0.735-0.061l-1.231-5.058c-0.097-0.386-0.169-0.845-0.254-1.339
			h-0.012c-0.085,0.494-0.157,0.953-0.254,1.352L234.694,161.889z"/>
		<path style="fill:#1A2A4F;" d="M243.305,161.889c-0.193,0.024-0.387,0.061-0.58,0.061c-0.217,0-0.41-0.024-0.627-0.061v-8.159
			c0.205-0.036,0.398-0.061,0.615-0.061c0.205,0,0.398,0.024,0.592,0.061V161.889z"/>
		<path style="fill:#1A2A4F;" d="M250.149,154.72h-2.438v7.169c-0.205,0.036-0.398,0.061-0.615,0.061
			c-0.205,0-0.398-0.024-0.592-0.061v-7.169h-2.317c-0.048-0.157-0.061-0.339-0.061-0.495c0-0.146,0.013-0.351,0.061-0.495h5.963
			c0.048,0.145,0.06,0.35,0.06,0.495C250.209,154.381,250.197,154.562,250.149,154.72z"/>
		<path style="fill:#1A2A4F;" d="M256.982,161.889c-0.192,0.024-0.374,0.061-0.567,0.061c-0.217,0-0.422-0.024-0.64-0.061v-3.621
			h-3.608v3.621c-0.205,0.036-0.423,0.061-0.64,0.061c-0.205,0-0.374-0.024-0.567-0.061v-8.159c0.145-0.024,0.362-0.061,0.555-0.061
			c0.218,0,0.435,0.024,0.652,0.061v3.549h3.608v-3.549c0.205-0.036,0.411-0.061,0.628-0.061c0.205,0,0.387,0.024,0.579,0.061
			V161.889z"/>
		<path style="fill:#1A2A4F;" d="M259.773,161.889c-0.193,0.024-0.387,0.061-0.58,0.061c-0.217,0-0.41-0.024-0.627-0.061v-8.159
			c0.205-0.036,0.398-0.061,0.615-0.061c0.205,0,0.398,0.024,0.592,0.061V161.889z"/>
		<path style="fill:#1A2A4F;" d="M267.644,161.889c-0.097,0.036-0.302,0.048-0.458,0.048c-0.146,0-0.29-0.012-0.423-0.048
			l-4.297-6.095v6.095c-0.108,0.036-0.398,0.061-0.579,0.061c-0.146,0-0.374-0.013-0.531-0.061v-8.159
			c0.097-0.024,0.35-0.048,0.471-0.048c0.157,0,0.362,0.012,0.482,0.048l4.225,5.999v-5.999c0.133-0.036,0.362-0.061,0.52-0.061
			c0.145,0,0.471,0.024,0.591,0.061V161.889z"/>
	</g>
	<g>
		<path style="fill:#ADD1CF;" d="M152.936,202.769c-2.933,0-4.792-1.913-4.792-6.205c0-4.185,1.896-6.241,4.828-6.241
			s4.757,2.057,4.757,6.241C157.729,200.855,155.869,202.769,152.936,202.769z M152.954,191.807c-1.824,0-2.933,1.233-2.933,4.721
			c0,3.434,1.091,4.757,2.915,4.757c1.824,0,2.915-1.323,2.915-4.757C155.851,193.04,154.778,191.807,152.954,191.807z"/>
		<path style="fill:#ADD1CF;" d="M166.298,191.967h-4.989v3.648h4.131c0.071,0.215,0.089,0.519,0.089,0.733
			c0,0.232-0.018,0.501-0.089,0.733h-4.131v5.508c-0.305,0.054-0.572,0.09-0.895,0.09c-0.304,0-0.608-0.036-0.895-0.09v-12.089
			h6.778c0.071,0.214,0.089,0.519,0.089,0.733C166.387,191.467,166.369,191.734,166.298,191.967z"/>
		<path style="fill:#ADD1CF;" d="M180.089,201.946c-0.965,0.465-2.253,0.822-3.612,0.822c-3.773,0-5.525-2.485-5.525-6.098
			c0-2.11,0.733-3.935,2.074-5.079c0.948-0.805,2.253-1.27,3.756-1.27c1.108,0,2.217,0.232,2.896,0.536
			c0.072,0.232,0.09,0.447,0.09,0.697c0,0.251-0.018,0.465-0.09,0.697c-0.787-0.232-1.913-0.411-2.754-0.411
			c-1.18,0-2.11,0.376-2.754,0.983c-0.93,0.877-1.341,2.271-1.341,3.81c0,2.951,1.287,4.596,3.826,4.596
			c0.645,0,1.271-0.125,1.646-0.286v-3.935c0.286-0.035,0.555-0.089,0.841-0.089c0.321,0,0.626,0.036,0.947,0.089V201.946z"/>
		<path style="fill:#ADD1CF;" d="M190.285,202.59c-0.357,0.054-0.715,0.09-1.073,0.09c-0.34,0-0.626-0.019-0.966-0.09l-2.646-4.649
			h-1.573v4.649c-0.305,0.054-0.608,0.09-0.912,0.09c-0.286,0-0.591-0.036-0.877-0.09v-12.089c0.877-0.054,1.932-0.09,2.951-0.09
			c2.521,0,4.542,0.77,4.542,3.666c0,1.592-0.876,2.986-2.343,3.523L190.285,202.59z M185.385,191.807c-0.411,0-1.055,0-1.358,0.018
			v4.703h1.216c1.681,0,2.683-0.751,2.683-2.45C187.925,192.432,186.977,191.807,185.385,191.807z"/>
		<path style="fill:#ADD1CF;" d="M198.425,199.729h-4.721l-0.93,2.861c-0.233,0.036-0.608,0.09-0.966,0.09
			c-0.251,0-0.608-0.036-0.841-0.09l4.167-12.089c0.215-0.054,0.661-0.09,0.894-0.09c0.251,0,0.662,0.054,0.823,0.09l4.471,12.089
			c-0.161,0.036-0.59,0.09-0.93,0.09c-0.269,0-0.697-0.019-0.966-0.09L198.425,199.729z M194.169,198.262h3.737l-1.431-4.113
			c-0.232-0.679-0.375-1.233-0.465-1.717h-0.018c-0.09,0.483-0.269,1.056-0.483,1.735L194.169,198.262z"/>
		<path style="fill:#ADD1CF;" d="M209.783,201.535c-1.037,0.822-2.468,1.145-4.471,1.145c-0.822,0-2.36-0.036-2.897-0.09v-12.089
			c0.823-0.054,1.932-0.09,3.184-0.09c4.149,0,6.045,1.717,6.045,6.062C211.644,198.816,210.999,200.551,209.783,201.535z
			 M205.581,191.807c-0.358,0-1.002,0.018-1.377,0.035v9.371c0.321,0.036,0.912,0.054,1.538,0.054c1.358,0,2.253-0.376,2.879-1.037
			c0.841-0.877,1.145-2.289,1.145-3.792C209.766,193.38,208.89,191.807,205.581,191.807z"/>
		<path style="fill:#ADD1CF;" d="M222.055,198.065c0,3.111-1.073,4.703-4.363,4.703c-3.434,0-4.311-1.52-4.311-4.703v-7.564
			c0.287-0.036,0.572-0.09,0.859-0.09c0.321,0,0.607,0.036,0.93,0.09v7.868c0,1.735,0.375,3.022,2.504,3.022
			c2.128,0,2.646-1.287,2.646-3.022v-7.868c0.286-0.036,0.536-0.09,0.822-0.09c0.322,0,0.59,0.036,0.912,0.09V198.065z"/>
		<path style="fill:#ADD1CF;" d="M230.427,199.729h-4.721l-0.93,2.861c-0.233,0.036-0.608,0.09-0.966,0.09
			c-0.251,0-0.608-0.036-0.841-0.09l4.167-12.089c0.215-0.054,0.661-0.09,0.894-0.09c0.251,0,0.662,0.054,0.823,0.09l4.471,12.089
			c-0.161,0.036-0.59,0.09-0.93,0.09c-0.269,0-0.697-0.019-0.966-0.09L230.427,199.729z M226.171,198.262h3.737l-1.431-4.113
			c-0.232-0.679-0.375-1.233-0.465-1.717h-0.018c-0.09,0.483-0.269,1.056-0.483,1.735L226.171,198.262z"/>
		<path style="fill:#ADD1CF;" d="M240.838,191.967h-3.612v10.623c-0.305,0.054-0.591,0.09-0.912,0.09
			c-0.305,0-0.591-0.036-0.877-0.09v-10.623h-3.434c-0.071-0.232-0.089-0.5-0.089-0.732c0-0.215,0.018-0.52,0.089-0.733h8.835
			c0.071,0.214,0.089,0.519,0.089,0.733C240.927,191.467,240.909,191.734,240.838,191.967z"/>
		<path style="fill:#ADD1CF;" d="M244.023,202.59c-0.286,0.036-0.572,0.09-0.858,0.09c-0.321,0-0.607-0.036-0.93-0.09v-12.089
			c0.304-0.054,0.59-0.09,0.912-0.09c0.304,0,0.59,0.036,0.876,0.09V202.59z"/>
		<path style="fill:#ADD1CF;" d="M250.695,202.769c-2.934,0-4.793-1.913-4.793-6.205c0-4.185,1.896-6.241,4.828-6.241
			s4.757,2.057,4.757,6.241C255.487,200.855,253.628,202.769,250.695,202.769z M250.713,191.807c-1.824,0-2.933,1.233-2.933,4.721
			c0,3.434,1.091,4.757,2.915,4.757c1.823,0,2.914-1.323,2.914-4.757C253.609,193.04,252.537,191.807,250.713,191.807z"/>
		<path style="fill:#ADD1CF;" d="M266.596,202.59c-0.143,0.054-0.447,0.071-0.68,0.071c-0.214,0-0.429-0.018-0.626-0.071
			l-6.366-9.031v9.031c-0.161,0.054-0.59,0.09-0.858,0.09c-0.215,0-0.554-0.019-0.787-0.09v-12.089
			c0.144-0.036,0.519-0.071,0.698-0.071c0.232,0,0.536,0.018,0.715,0.071l6.26,8.888v-8.888c0.196-0.054,0.536-0.09,0.769-0.09
			c0.215,0,0.697,0.036,0.876,0.09V202.59z"/>
	</g>
	<g>
		<path style="fill:#1A2A4F;" d="M167.814,218.883c-1.556-1.448-2.388-3.487-2.388-5.539s0.832-4.023,2.388-5.473
			c0.309,0.041,0.51,0.188,0.685,0.43c-1.314,1.556-1.812,3.312-1.812,5.083c0,1.798,0.497,3.515,1.812,5.07
			C168.324,218.695,168.123,218.843,167.814,218.883z"/>
		<path style="fill:#1A2A4F;" d="M175.515,216.59c-0.778,0.616-1.852,0.858-3.354,0.858c-0.617,0-1.771-0.027-2.173-0.067v-9.066
			c0.617-0.041,1.448-0.067,2.388-0.067c3.111,0,4.533,1.287,4.533,4.547C176.909,214.551,176.427,215.852,175.515,216.59z
			 M172.362,209.293c-0.269,0-0.751,0.014-1.032,0.027v7.027c0.241,0.027,0.684,0.041,1.153,0.041c1.019,0,1.689-0.282,2.159-0.778
			c0.63-0.657,0.858-1.717,0.858-2.844C175.501,210.474,174.844,209.293,172.362,209.293z"/>
		<path style="fill:#1A2A4F;" d="M183.658,216.281c0.054,0.161,0.067,0.389,0.067,0.55c0,0.174-0.014,0.375-0.067,0.55h-5.405
			v-9.066c0.229-0.041,0.47-0.067,0.711-0.067c0.228,0,0.416,0.026,0.631,0.067v7.967H183.658z"/>
		<path style="fill:#1A2A4F;" d="M191.466,217.381c-0.215,0.026-0.416,0.067-0.631,0.067c-0.241,0-0.47-0.027-0.711-0.067v-4.023
			h-4.01v4.023c-0.229,0.04-0.47,0.067-0.711,0.067c-0.229,0-0.416-0.027-0.631-0.067v-9.066c0.161-0.027,0.402-0.067,0.617-0.067
			c0.241,0,0.482,0.026,0.725,0.067v3.942h4.01v-3.942c0.229-0.041,0.456-0.067,0.697-0.067c0.229,0,0.43,0.026,0.645,0.067V217.381
			z"/>
		<path style="fill:#1A2A4F;" d="M198.509,217.381h-5.284v-9.066h5.083c0.054,0.16,0.067,0.389,0.067,0.55
			c0,0.174-0.014,0.375-0.067,0.55h-3.741v2.736h3.232c0.053,0.16,0.066,0.389,0.066,0.55c0,0.174-0.014,0.375-0.066,0.55h-3.232
			v3.031h3.942c0.054,0.161,0.067,0.389,0.067,0.55C198.576,217.005,198.562,217.206,198.509,217.381z"/>
		<path style="fill:#1A2A4F;" d="M199.785,216.871c0-0.442,0.362-0.805,0.806-0.805c0.509,0,0.845,0.416,0.845,0.979
			c0,1.06-1.033,2.199-1.932,2.776c-0.188-0.135-0.322-0.309-0.402-0.537c0.577-0.402,1.006-0.925,1.221-1.448
			C200,217.608,199.785,217.301,199.785,216.871z"/>
		<path style="fill:#1A2A4F;" d="M208.17,214.604c-0.483,0.536-1.006,1.1-1.569,1.663h3.796c0.04,0.147,0.066,0.43,0.066,0.59
			c0,0.147-0.013,0.376-0.066,0.523h-5.258c-0.094-0.255-0.161-0.496-0.161-0.765c0-0.107,0.014-0.228,0.026-0.335
			c0.711-0.711,1.516-1.556,2.2-2.32c1.261-1.408,1.932-2.227,1.932-3.3c0-0.966-0.645-1.448-1.503-1.448
			c-0.751,0-1.569,0.228-2.186,0.55c-0.041-0.188-0.067-0.376-0.067-0.563c0-0.134,0.026-0.335,0.067-0.456
			c0.616-0.335,1.475-0.563,2.387-0.563c1.503,0,2.683,0.898,2.683,2.374C210.517,211.922,209.698,212.901,208.17,214.604z"/>
		<path style="fill:#1A2A4F;" d="M214.824,217.515c-1.972,0-3.005-1.528-3.005-4.667c0-3.099,1.033-4.668,3.005-4.668
			c1.971,0,3.004,1.529,3.004,4.668S216.795,217.515,214.824,217.515z M214.824,209.227c-1.288,0-1.597,1.502-1.597,3.607
			c0,2.119,0.322,3.635,1.597,3.635c1.314,0,1.596-1.516,1.596-3.635S216.111,209.227,214.824,209.227z"/>
		<path style="fill:#1A2A4F;" d="M223.396,217.381c-0.214,0.04-0.442,0.067-0.67,0.067c-0.229,0-0.456-0.027-0.671-0.067v-7.618
			l-2.267,1.462c-0.255-0.241-0.483-0.631-0.563-0.966l3.125-1.944c0.147-0.041,0.322-0.067,0.496-0.067
			c0.188,0,0.376,0.026,0.55,0.067V217.381z"/>
		<path style="fill:#1A2A4F;" d="M232.09,215.275h-1.274v2.092c-0.201,0.04-0.402,0.067-0.616,0.067
			c-0.229,0-0.47-0.014-0.698-0.067v-2.092h-3.862c-0.04-0.175-0.067-0.349-0.067-0.523c0-0.147,0.014-0.281,0.067-0.496
			l2.897-5.941c0.188-0.041,0.469-0.067,0.657-0.067c0.241,0,0.509,0.026,0.764,0.067l-2.91,5.848h2.454v-2.025
			c0.229-0.04,0.456-0.067,0.685-0.067c0.215,0,0.416,0.027,0.63,0.067v2.025h1.274c0.054,0.188,0.067,0.389,0.067,0.576
			C232.157,214.913,232.144,215.114,232.09,215.275z"/>
		<path style="fill:#1A2A4F;" d="M233.58,217.515c-0.174,0.041-0.402,0.067-0.604,0.067c-0.215,0-0.482-0.026-0.671-0.067
			l2.804-9.335c0.201-0.04,0.416-0.066,0.63-0.066c0.215,0,0.43,0.026,0.631,0.066L233.58,217.515z"/>
		<path style="fill:#1A2A4F;" d="M241.44,217.381c-0.214,0.04-0.442,0.067-0.67,0.067c-0.229,0-0.456-0.027-0.671-0.067v-7.618
			l-2.267,1.462c-0.255-0.241-0.483-0.631-0.563-0.966l3.125-1.944c0.147-0.041,0.322-0.067,0.496-0.067
			c0.188,0,0.376,0.026,0.55,0.067V217.381z"/>
		<path style="fill:#1A2A4F;" d="M246.245,217.515c-0.657,0-1.462-0.134-2.039-0.361c-0.04-0.148-0.066-0.336-0.066-0.483
			c0-0.121,0.04-0.375,0.094-0.496c0.63,0.201,1.274,0.322,1.972,0.322c1.287,0,1.984-0.698,1.984-1.838
			c0-1.529-0.925-1.864-2.199-1.864h-1.502v-4.479h4.641c0.054,0.147,0.066,0.349,0.066,0.496c0,0.188-0.013,0.402-0.066,0.59
			h-3.394v2.374h0.657c0.938,0,1.649,0.161,2.213,0.577c0.617,0.456,0.992,1.207,0.992,2.253
			C249.598,216.482,248.123,217.515,246.245,217.515z"/>
		<path style="fill:#1A2A4F;" d="M251.518,218.883c-0.309-0.04-0.51-0.188-0.684-0.429c1.314-1.556,1.811-3.313,1.811-5.084
			c0-1.797-0.496-3.514-1.811-5.069c0.174-0.241,0.402-0.389,0.711-0.43c1.556,1.449,2.36,3.487,2.36,5.54
			C253.905,215.463,253.073,217.435,251.518,218.883z"/>
	</g>
</g>
</svg>
