<?xml version="1.0" encoding="utf-8"?>
<!-- Generator: Adobe Illustrator 16.0.0, SVG Export Plug-In . SVG Version: 6.00 Build 0)  -->
<!DOCTYPE svg PUBLIC "-//W3C//DTD SVG 1.0//EN" "http://www.w3.org/TR/2001/REC-SVG-20010904/DTD/svg10.dtd">
<svg version="1.0" xmlns="http://www.w3.org/2000/svg" xmlns:xlink="http://www.w3.org/1999/xlink" x="0px" y="0px" width="300px"
	 height="300px" viewBox="0 0 300 300" style="enable-background:new 0 0 300 300;" xml:space="preserve">
<g id="Icons">
	<path style="fill:none;stroke:#1A2A4F;stroke-width:4;stroke-linecap:round;stroke-linejoin:round;stroke-miterlimit:10;" d="
		M63.923,166.378h20.741V102.51H63.923 M210.52,158.393l-0.031-0.072c-2.002-4.124-6.184-6.748-10.771-6.748h-26.825
		 M218.985,173.198l-0.034-0.069c-1.998-4.129-6.18-6.751-10.771-6.751h-37.288 M93.715,156.183h1.437
		c3.646,0,7.066,1.781,9.152,4.779l22.935,32.895c3.211,4.607,8.471,7.354,14.09,7.354h81.458c5.186,0,9.39-4.203,9.39-9.387v-0.191
		c0-5.208-4.244-9.42-9.448-9.386l-57.993,0.228c-3.01,0.017-5.85-1.396-7.65-3.804l-2.336-3.119 M93.715,110.839h32.537
		c7.556,0,12.44,4.438,16.958,10.499l20.044,26.871c2.715,3.642,2.737,8.632,0.052,12.299l-0.123,0.165
		c-3.878,5.293-11.64,5.683-16.03,0.809l-17.119-19.01"/>
	
		<circle style="fill:none;stroke:#B4A168;stroke-width:1.612;stroke-linecap:round;stroke-linejoin:round;stroke-miterlimit:10;" cx="189.74" cy="103.085" r="27.519"/>
	<path style="fill:none;stroke:#B4A168;stroke-width:1.612;stroke-linecap:round;stroke-linejoin:round;stroke-miterlimit:10;" d="
		M146.58,91.327c-13.426,0-24.312-10.882-24.312-24.312c0-13.43,10.885-24.315,24.312-24.315s24.31,10.885,24.31,24.315"/>
	<path style="fill:none;stroke:#B4A168;stroke-width:1.612;stroke-linecap:round;stroke-linejoin:round;stroke-miterlimit:10;" d="
		M224.212,73.224c10.63,0,19.252-8.619,19.252-19.254c0-10.629-8.622-19.249-19.252-19.249c-10.632,0-19.251,8.619-19.251,19.249"/>
	<path style="fill:none;stroke:#B4A168;stroke-width:1.612;stroke-linecap:round;stroke-linejoin:round;stroke-miterlimit:10;" d="
		M229.048,18.194v3.142 M143.97,21.164v4.597 M212.473,16.796v8.736 M165.307,16.796v17.925 M189.741,21.336v4.196 M189.741,40.201
		v19.562"/>
	<path style="fill:#B4A168;" d="M200.126,116.895c0-0.892-0.098-2.18-0.298-2.872h-13.854v-0.05
		c2.177-1.435,3.017-3.461,3.017-5.789v-3.564h7.326c0.197-0.839,0.298-2.127,0.298-2.769c0-0.893-0.101-1.93-0.298-2.77h-7.326
		v-2.475c0-3.564,1.388-5.25,4.799-5.25c2.08,0,4.555,0.448,6.09,1.04c0.199-0.99,0.348-2.374,0.348-3.264
		c0-0.545-0.101-1.782-0.248-2.279c-1.585-0.643-4.356-1.188-6.979-1.188c-7.174,0-11.083,4.21-11.083,10.888v2.528h-3.664
		c-0.198,0.84-0.298,1.876-0.298,2.77c0,0.642,0.147,1.879,0.298,2.769h3.664v3.812c0,3.267-1.09,4.997-3.914,6.036
		c-0.095,0.696-0.195,1.682-0.195,2.377c0,0.94,0.247,2.228,0.495,2.772h21.576C200.028,118.825,200.126,117.685,200.126,116.895"/>
	<path style="fill:#B4A168;" d="M222.667,49.671c0-0.809,0.646-1.429,1.807-1.587v3.554
		C223.206,51.125,222.667,50.614,222.667,49.671 M227.437,57.996c0,0.943-0.622,1.78-1.807,1.993v-4.095
		C226.948,56.433,227.437,57,227.437,57.996 M231.18,57.754c0-3.045-1.913-4.474-4.582-5.388v-4.391
		c1.079,0.053,2.347,0.242,3.425,0.512c0.106-0.434,0.162-1.212,0.162-1.727c0-0.701-0.056-1.185-0.133-1.482
		c-0.862-0.267-2.105-0.508-3.454-0.592v-2.452c-0.133-0.052-0.536-0.133-1.051-0.133c-0.536,0-0.835,0.056-1.073,0.133v2.48
		c-3.236,0.323-5.577,2.102-5.577,5.144c0,2.964,1.913,4.396,4.604,5.311v4.905c-1.428-0.108-3.098-0.484-4.365-1.026
		c-0.187,0.729-0.267,1.346-0.267,1.997c0,0.428,0.053,0.912,0.133,1.293c1.163,0.536,2.885,0.915,4.499,1.021v2.293
		c0.217,0.053,0.539,0.134,1.079,0.134c0.512,0,0.891-0.056,1.051-0.134v-2.293C228.861,63.037,231.18,60.987,231.18,57.754"/>
	<path style="fill:#B4A168;" d="M153.521,57.534c0-0.412-0.033-1.109-0.128-1.426c-1.361-0.665-3.357-1.076-5.228-1.076
		c-5.387,0-8.587,3.042-9.476,7.604h-2.347c-0.125,0.445-0.19,1.015-0.19,1.459c0,0.412,0.065,0.981,0.19,1.457h2.031
		c-0.035,0.253-0.035,0.539-0.035,0.698c0,0.253,0,0.667,0.035,0.854h-2.031c-0.093,0.414-0.19,0.889-0.19,1.457
		c0,0.414,0.098,1.047,0.19,1.459h2.409c0.856,4.407,4.182,7.068,9.128,7.068c2.121,0,4.181-0.411,5.48-1.048
		c0.064-0.284,0.098-0.884,0.098-1.426c0-0.759-0.16-1.644-0.352-2.216c-1.203,0.442-2.947,0.729-4.595,0.729
		c-2.692,0-4.467-1.173-4.942-3.106h7.226c0.126-0.508,0.191-1.045,0.191-1.459c0-0.506-0.065-0.949-0.191-1.457h-7.732
		c-0.032-0.187-0.062-0.57-0.062-0.854c0-0.128,0-0.445,0.03-0.698h7.764c0.126-0.476,0.191-1.045,0.191-1.457
		c0-0.476-0.065-1.015-0.191-1.459h-7.417c0.539-2.439,2.03-3.643,5.2-3.643c1.423,0,3.325,0.314,4.72,0.823
		C153.394,59.436,153.521,58.518,153.521,57.534"/>
	<text transform="matrix(1 0 0 1 198.1836 238.1299)"><tspan x="0" y="0" style="fill:#FFFFFF; font-family:'FSMatthew-Bold'; font-size:32.1325; letter-spacing:-1;">F</tspan><tspan x="15.681" y="0" style="fill:#FFFFFF; font-family:'FSMatthew-Bold'; font-size:32.1325;">O</tspan><tspan x="36.405" y="0" style="fill:#FFFFFF; font-family:'FSMatthew-Bold'; font-size:32.1325;">R </tspan></text>
</g>
<g id="Text" style="display:none;">
	<text transform="matrix(1 0 0 1 53.042 238.1299)" style="display:inline;"><tspan x="0" y="0" style="fill:#1A2A4F; font-family:'FSMatthew-Bold'; font-size:32.1325;">JOIN</tspan><tspan x="66.674" y="0" style="fill:#1A2A4F; font-family:'FSMatthew-Bold'; font-size:32.1325; letter-spacing:-1;">T</tspan><tspan x="82.322" y="0" style="fill:#1A2A4F; font-family:'FSMatthew-Bold'; font-size:32.1325;"> </tspan></text>
	<text transform="matrix(1 0 0 1 142.1445 238.1299)" style="display:inline;"><tspan x="0" y="0" style="fill:#B4A168; font-family:'FSMatthew-Bold'; font-size:32.1325;">1</tspan><tspan x="17.319" y="0" style="fill:#B4A168; font-family:'FSMatthew-Bold'; font-size:32.1325; letter-spacing:-1;">S</tspan><tspan x="33.546" y="0" style="fill:#B4A168; font-family:'FSMatthew-Bold'; font-size:32.1325; letter-spacing:-1;">T</tspan><tspan x="49.194" y="0" style="fill:#B4A168; font-family:'FSMatthew-Bold'; font-size:32.1325;"> </tspan></text>
	<text transform="matrix(1 0 0 1 68.7559 270.2568)" style="display:inline;"><tspan x="0" y="0" style="fill:#1A2A4F; font-family:'FSMatthew-Bold'; font-size:32.1325;">E</tspan><tspan x="16.773" y="0" style="fill:#1A2A4F; font-family:'FSMatthew-Bold'; font-size:32.1325;">C</tspan><tspan x="34.671" y="0" style="fill:#1A2A4F; font-family:'FSMatthew-Bold'; font-size:32.1325;">ONO</tspan><tspan x="98.067" y="0" style="fill:#1A2A4F; font-family:'FSMatthew-Bold'; font-size:32.1325;">MI</tspan><tspan x="133.542" y="0" style="fill:#1A2A4F; font-family:'FSMatthew-Bold'; font-size:32.1325;">C</tspan><tspan x="152.114" y="0" style="fill:#1A2A4F; font-family:'FSMatthew-Bold'; font-size:32.1325;">S</tspan></text>
</g>
<g id="Text_Flat">
	<g>
		<path style="fill:#1A2A4F;" d="M65.768,230.643c0,2.024-0.418,4.241-1.863,5.752c-1.382,1.479-3.535,2.057-5.624,2.057
			c-1.543,0-3.277-0.257-4.435-0.675c-0.097-0.418-0.161-1.125-0.161-1.671c0-0.739,0.064-1.35,0.29-1.96
			c1.092,0.289,2.538,0.481,3.534,0.481c2.41,0,3.664-1.285,3.664-4.241v-13.979c0.61-0.096,1.478-0.16,2.281-0.16
			c0.899,0,1.735,0.064,2.313,0.16V230.643z"/>
		<path style="fill:#1A2A4F;" d="M78.299,238.451c-5.945,0-9.094-4.113-9.094-11.183c0-7.07,3.148-11.184,9.094-11.184
			s9.095,4.113,9.095,11.184C87.394,234.338,84.244,238.451,78.299,238.451z M78.299,220.038c-2.764,0-4.338,2.121-4.338,7.23
			s1.574,7.23,4.338,7.23s4.338-2.121,4.338-7.23S81.062,220.038,78.299,220.038z"/>
		<path style="fill:#1A2A4F;" d="M95.586,238.13c-0.611,0.097-1.35,0.161-2.314,0.161c-0.867,0-1.671-0.064-2.281-0.161v-21.724
			c0.61-0.096,1.511-0.16,2.313-0.16c0.9,0,1.703,0.064,2.282,0.16V238.13z"/>
		<path style="fill:#1A2A4F;" d="M117.597,238.13c-0.321,0.064-1.092,0.129-1.639,0.129c-0.546,0-1.093-0.032-1.606-0.129
			l-9.994-13.914v13.914c-0.257,0.064-1.221,0.161-2.121,0.161c-0.739,0-1.606-0.097-2.057-0.161v-21.724
			c0.515-0.096,1.125-0.128,1.703-0.128c0.61,0,1.254,0.064,1.735,0.128l9.802,13.658v-13.658c0.643-0.096,1.478-0.16,2.089-0.16
			c0.61,0,1.51,0.064,2.088,0.16V238.13z"/>
		<path style="fill:#1A2A4F;" d="M136.555,220.327h-5.752v17.803c-0.61,0.097-1.479,0.161-2.281,0.161
			c-0.804,0-1.672-0.064-2.314-0.161v-17.803h-5.752c-0.129-0.418-0.225-1.414-0.225-1.96c0-0.547,0.128-1.543,0.257-1.961h16.067
			c0.129,0.418,0.225,1.414,0.225,1.961C136.779,218.913,136.684,219.909,136.555,220.327z"/>
	</g>
	<g>
		<path style="fill:#B4A168;" d="M155.031,238.13c-0.482,0.097-1.35,0.161-2.282,0.161c-0.899,0-1.703-0.064-2.281-0.161v-16.614
			l-4.563,3.021c-1.093-0.996-1.863-2.346-2.152-3.503l7.552-4.628c0.449-0.096,1.382-0.16,1.863-0.16
			c0.547,0,1.543,0.097,1.864,0.16V238.13z"/>
		<path style="fill:#B4A168;" d="M167.787,238.451c-2.346,0-4.917-0.45-6.749-1.285c-0.097-0.45-0.16-1.028-0.16-1.543
			c0-0.771,0.096-1.51,0.321-2.378c1.896,0.771,4.402,1.254,6.362,1.254c2.282,0,3.503-1.061,3.503-2.507
			c0-1.606-1.028-2.281-4.146-3.246c-3.471-1.061-6.009-2.731-6.009-6.459c0-3.984,3.438-6.202,7.97-6.202
			c2.088,0,3.952,0.321,5.205,0.739c0.097,0.354,0.161,0.932,0.161,1.768c0,0.61-0.064,1.543-0.193,2.057
			c-1.606-0.418-3.438-0.643-4.916-0.643c-2.41,0-3.728,0.804-3.728,2.089c0,1.51,1.188,2.121,4.081,3.021
			c3.471,1.093,6.041,2.731,6.041,6.588C175.531,235.912,172.222,238.451,167.787,238.451z"/>
		<path style="fill:#B4A168;" d="M192.529,220.327h-5.752v17.803c-0.611,0.097-1.479,0.161-2.282,0.161
			c-0.803,0-1.671-0.064-2.313-0.161v-17.803h-5.752c-0.129-0.418-0.225-1.414-0.225-1.96c0-0.547,0.128-1.543,0.257-1.961h16.067
			c0.129,0.418,0.225,1.414,0.225,1.961C192.754,218.913,192.658,219.909,192.529,220.327z"/>
	</g>
	<g>
		<path style="fill:#1A2A4F;" d="M84.76,270.257H71.166v-21.724H84.47c0.129,0.354,0.226,1.028,0.226,1.929
			c0,0.707-0.064,1.317-0.226,1.992h-8.708v4.691h7.358c0.129,0.354,0.226,0.996,0.226,1.896c0,0.707-0.064,1.285-0.226,1.96h-7.358
			v5.334h8.998c0.128,0.354,0.225,1.028,0.225,1.929C84.984,268.972,84.92,269.582,84.76,270.257z"/>
		<path style="fill:#1A2A4F;" d="M102.754,253.064c-1.543-0.481-3.471-0.835-5.014-0.835c-3.663,0-6.041,2.603-6.041,7.262
			c0,4.274,1.863,7.07,6.009,7.07c1.543,0,3.278-0.321,4.82-0.804c0.226,0.578,0.386,1.479,0.386,2.153
			c0,0.546-0.032,1.221-0.097,1.51c-1.606,0.739-3.663,1.157-5.559,1.157c-6.909,0-10.315-4.178-10.315-10.99
			c0-6.62,3.663-11.376,10.508-11.376c1.671,0,3.856,0.418,5.398,1.093c0.097,0.321,0.129,1.028,0.129,1.446
			C102.979,251.747,102.85,252.679,102.754,253.064z"/>
		<path style="fill:#1A2A4F;" d="M113.936,270.578c-5.945,0-9.095-4.113-9.095-11.183c0-7.07,3.149-11.184,9.095-11.184
			c5.944,0,9.094,4.113,9.094,11.184C123.029,266.465,119.88,270.578,113.936,270.578z M113.936,252.165
			c-2.764,0-4.339,2.121-4.339,7.23s1.575,7.23,4.339,7.23s4.338-2.121,4.338-7.23S116.699,252.165,113.936,252.165z"/>
		<path style="fill:#1A2A4F;" d="M143.979,270.257c-0.321,0.064-1.093,0.129-1.639,0.129c-0.547,0-1.093-0.032-1.607-0.129
			l-9.993-13.914v13.914c-0.258,0.064-1.222,0.161-2.121,0.161c-0.739,0-1.607-0.097-2.057-0.161v-21.724
			c0.514-0.096,1.124-0.128,1.703-0.128c0.61,0,1.253,0.064,1.735,0.128l9.801,13.658v-13.658c0.643-0.096,1.479-0.16,2.089-0.16
			s1.511,0.064,2.089,0.16V270.257z"/>
		<path style="fill:#1A2A4F;" d="M156.606,270.578c-5.945,0-9.095-4.113-9.095-11.183c0-7.07,3.149-11.184,9.095-11.184
			c5.944,0,9.094,4.113,9.094,11.184C165.7,266.465,162.551,270.578,156.606,270.578z M156.606,252.165
			c-2.764,0-4.339,2.121-4.339,7.23s1.575,7.23,4.339,7.23s4.338-2.121,4.338-7.23S159.37,252.165,156.606,252.165z"/>
		<path style="fill:#1A2A4F;" d="M191.214,270.257c-0.386,0.097-1.253,0.161-2.153,0.161c-0.964,0-1.863-0.097-2.249-0.161
			l-0.386-13.047l-4.756,10.99c-0.354,0.129-1.125,0.192-1.607,0.192c-0.578,0-1.285-0.063-1.639-0.16l-4.756-11.022l-0.418,13.047
			c-0.418,0.097-1.414,0.161-2.281,0.161c-0.515,0-1.382-0.064-1.96-0.161l0.932-21.724c0.61-0.063,1.221-0.16,1.863-0.16
			c0.771,0,1.511,0.064,1.896,0.16l6.362,14.75l6.396-14.75c0.643-0.096,1.285-0.16,1.863-0.16c0.739,0,1.414,0.064,1.896,0.16
			L191.214,270.257z"/>
		<path style="fill:#1A2A4F;" d="M200.145,270.257c-0.61,0.097-1.35,0.161-2.313,0.161c-0.867,0-1.671-0.064-2.281-0.161v-21.724
			c0.61-0.096,1.51-0.16,2.313-0.16c0.899,0,1.703,0.064,2.281,0.16V270.257z"/>
		<path style="fill:#1A2A4F;" d="M219.522,253.064c-1.543-0.481-3.471-0.835-5.014-0.835c-3.663,0-6.041,2.603-6.041,7.262
			c0,4.274,1.864,7.07,6.009,7.07c1.543,0,3.278-0.321,4.82-0.804c0.226,0.578,0.386,1.479,0.386,2.153
			c0,0.546-0.032,1.221-0.096,1.51c-1.607,0.739-3.664,1.157-5.56,1.157c-6.909,0-10.315-4.178-10.315-10.99
			c0-6.62,3.663-11.376,10.508-11.376c1.671,0,3.856,0.418,5.398,1.093c0.097,0.321,0.129,1.028,0.129,1.446
			C219.747,251.747,219.618,252.679,219.522,253.064z"/>
		<path style="fill:#1A2A4F;" d="M229.193,270.578c-2.346,0-4.917-0.45-6.749-1.285c-0.096-0.45-0.16-1.028-0.16-1.543
			c0-0.771,0.097-1.51,0.321-2.378c1.896,0.771,4.402,1.254,6.362,1.254c2.282,0,3.503-1.061,3.503-2.507
			c0-1.606-1.028-2.281-4.146-3.246c-3.471-1.061-6.009-2.731-6.009-6.459c0-3.984,3.438-6.202,7.97-6.202
			c2.088,0,3.952,0.321,5.205,0.739c0.097,0.354,0.161,0.932,0.161,1.768c0,0.61-0.064,1.543-0.193,2.057
			c-1.606-0.418-3.438-0.643-4.916-0.643c-2.41,0-3.728,0.804-3.728,2.089c0,1.51,1.188,2.121,4.081,3.021
			c3.471,1.093,6.041,2.731,6.041,6.588C236.938,268.039,233.628,270.578,229.193,270.578z"/>
	</g>
</g>
</svg>
