<?xml version="1.0" encoding="utf-8"?>
<!-- Generator: Adobe Illustrator 16.0.0, SVG Export Plug-In . SVG Version: 6.00 Build 0)  -->
<!DOCTYPE svg PUBLIC "-//W3C//DTD SVG 1.0//EN" "http://www.w3.org/TR/2001/REC-SVG-20010904/DTD/svg10.dtd">
<svg version="1.0" xmlns="http://www.w3.org/2000/svg" xmlns:xlink="http://www.w3.org/1999/xlink" x="0px" y="0px" width="300px"
	 height="300px" viewBox="0 0 300 300" style="enable-background:new 0 0 300 300;" xml:space="preserve">
<g id="Graphics">
	<rect x="79.444" y="279.698" style="fill:#B4A168;" width="142.244" height="5.721"/>
	<path style="fill:#DD8F98;" d="M191.948,93.913l0.079-0.006V40.674V19.436v-6.636l-73.77,6.453v24.777v3.099v4.442v48.613
		c-2.335-0.626-4.846-0.864-7.464-0.636c-12.369,1.082-22.396,12.062-22.396,24.523c0,12.464,10.026,21.69,22.396,20.607
		c12.367-1.082,22.393-12.062,22.393-24.526c0-1.003-0.071-1.982-0.198-2.94l0.079-0.006V45.833l44.149-3.862v34.914
		c-2.336-0.626-4.848-0.863-7.465-0.634c-12.368,1.082-22.394,12.06-22.394,24.523c0,12.462,10.025,21.688,22.394,20.606
		c12.368-1.082,22.396-12.062,22.396-24.524C192.147,95.852,192.073,94.872,191.948,93.913"/>
	<path style="fill:#1A2A4F;" d="M111.495,88.517l0.025-0.002V70.642V63.51v-2.228l-24.768,2.167v8.319v1.04v1.491V90.62
		c-0.784-0.21-1.626-0.289-2.506-0.213c-4.152,0.364-7.518,4.051-7.518,8.235c0,4.186,3.366,7.28,7.518,6.917
		s7.519-4.049,7.519-8.233c0-0.338-0.023-0.667-0.065-0.987l0.025-0.003V72.373l14.824-1.297V82.8
		c-0.784-0.211-1.628-0.292-2.506-0.215c-4.153,0.363-7.52,4.051-7.52,8.235c0,4.185,3.367,7.283,7.52,6.92
		c4.15-0.364,7.517-4.051,7.517-8.235C111.56,89.167,111.537,88.838,111.495,88.517"/>
	<path style="fill:#1A2A4F;" d="M223.605,114.568l0.027-0.002V95.295v-7.689v-2.403l-26.703,2.337v8.969v1.122v1.609v17.597
		c-0.846-0.227-1.756-0.313-2.7-0.229c-4.48,0.392-8.11,4.368-8.11,8.878c0,4.512,3.63,7.853,8.11,7.46
		c4.476-0.392,8.105-4.367,8.105-8.879c0-0.362-0.026-0.718-0.073-1.063l0.027-0.003V97.163l15.984-1.399v12.641
		c-0.846-0.229-1.753-0.313-2.7-0.23c-4.48,0.392-8.11,4.365-8.11,8.878c0,4.511,3.63,7.852,8.11,7.459
		c4.476-0.392,8.105-4.367,8.105-8.877C223.679,115.27,223.652,114.914,223.605,114.568"/>
	<path style="fill:#FFFFFF;" d="M161.085,66.945l0.012,0v-7.72v-3.081V55.18l-11.131,0.974v3.594v0.451v0.643v7.05
		c-0.354-0.09-0.732-0.123-1.127-0.088c-1.866,0.164-3.378,1.762-3.378,3.57c0,1.807,1.512,3.139,3.378,2.976
		c1.865-0.164,3.378-1.76,3.378-3.568c0-0.147-0.01-0.288-0.028-0.428l0.012-0.001v-10.35l6.663-0.583v5.064
		c-0.353-0.09-0.732-0.123-1.127-0.089c-1.866,0.164-3.38,1.762-3.38,3.567c0,1.808,1.514,3.142,3.38,2.979
		c1.866-0.163,3.38-1.762,3.38-3.57C161.116,67.227,161.104,67.085,161.085,66.945"/>
</g>
<g id="Text" style="display:none;">
	<text transform="matrix(1 0 0 1 90.8496 172.5215)" style="display:inline;"><tspan x="0" y="0" style="fill:#B4A168; font-family:'FSMatthew-Bold'; font-size:29.2176;">JOIN</tspan><tspan x="59.457" y="0" style="fill:#B4A168; font-family:'FSMatthew-Bold'; font-size:29.2176; letter-spacing:-2;">T</tspan><tspan x="73.423" y="0" style="fill:#B4A168; font-family:'FSMatthew-Bold'; font-size:29.2176;"> </tspan><tspan x="79.441" y="0" style="fill:#B4A168; font-family:'FSMatthew-Bold'; font-size:29.2176;">2</tspan></text>
	<text transform="matrix(1 0 0 1 185.543 172.5215)" style="display:inline;"><tspan x="0" y="0" style="fill:#B4A168; font-family:'FSMatthew-Bold'; font-size:29.2176;">n</tspan><tspan x="16.391" y="0" style="fill:#B4A168; font-family:'FSMatthew-Bold'; font-size:29.2176;">d</tspan></text>
	<text transform="matrix(1 0 0 1 90.8496 196.4258)" style="display:inline;"><tspan x="0" y="0" style="fill:#B4A168; font-family:'FSMatthew-Bold'; font-size:29.2176;">IN </tspan><tspan x="33.804" y="0" style="fill:#B4A168; font-family:'FSMatthew-Bold'; font-size:29.2176;">U</tspan><tspan x="52.416" y="0" style="fill:#B4A168; font-family:'FSMatthew-Bold'; font-size:29.2176;">K</tspan></text>
	<text transform="matrix(1 0 0 1 90.8496 216.8682)" style="display:inline;"><tspan x="0" y="0" style="fill:#1A2A4F; font-family:'FSMatthew-Bold'; font-size:14;">F</tspan><tspan x="6.692" y="0" style="fill:#1A2A4F; font-family:'FSMatthew-Bold'; font-size:14;">O</tspan><tspan x="15.582" y="0" style="fill:#1A2A4F; font-family:'FSMatthew-Bold'; font-size:14;">R</tspan><tspan x="23.688" y="0" style="fill:#1A2A4F; font-family:'FSMatthew-Bold'; font-size:14;"> </tspan></text>
	<text transform="matrix(1 0 0 1 117.3799 216.8682)" style="display:inline;"><tspan x="0" y="0" style="fill:#1A2A4F; font-family:'FSMatthew-Bold'; font-size:19.9211;">IM</tspan><tspan x="21.634" y="0" style="fill:#1A2A4F; font-family:'FSMatthew-Bold'; font-size:19.9211; letter-spacing:-1;">P</tspan><tspan x="31.674" y="0" style="fill:#1A2A4F; font-family:'FSMatthew-Bold'; font-size:19.9211;">A</tspan><tspan x="43.886" y="0" style="fill:#1A2A4F; font-family:'FSMatthew-Bold'; font-size:19.9211;">C</tspan><tspan x="55.6" y="0" style="fill:#1A2A4F; font-family:'FSMatthew-Bold'; font-size:19.9211; letter-spacing:-1;">T</tspan><tspan x="65.121" y="0" style="fill:#1A2A4F; font-family:'FSMatthew-Bold'; font-size:19.9211;"> O</tspan><tspan x="81.875" y="0" style="fill:#1A2A4F; font-family:'FSMatthew-Bold'; font-size:19.9211;">F </tspan></text>
	<text transform="matrix(1 0 0 1 90.8496 232.8047)" style="display:inline;"><tspan x="0" y="0" style="fill:#1A2A4F; font-family:'FSMatthew-Bold'; font-size:19.9211;">RE</tspan><tspan x="21.993" y="0" style="fill:#1A2A4F; font-family:'FSMatthew-Bold'; font-size:19.9211;">S</tspan><tspan x="32.352" y="0" style="fill:#1A2A4F; font-family:'FSMatthew-Bold'; font-size:19.9211;">E</tspan><tspan x="43.109" y="0" style="fill:#1A2A4F; font-family:'FSMatthew-Bold'; font-size:19.9211;">A</tspan><tspan x="55.799" y="0" style="fill:#1A2A4F; font-family:'FSMatthew-Bold'; font-size:19.9211;">R</tspan><tspan x="67.094" y="0" style="fill:#1A2A4F; font-family:'FSMatthew-Bold'; font-size:19.9211;">CH I</tspan><tspan x="100.92" y="0" style="fill:#1A2A4F; font-family:'FSMatthew-Bold'; font-size:19.9211;">N </tspan></text>
	<text transform="matrix(1 0 0 1 90.8496 248.7422)" style="display:inline;"><tspan x="0" y="0" style="fill:#1A2A4F; font-family:'FSMatthew-Bold'; font-size:19.9211;">M</tspan><tspan x="15.877" y="0" style="fill:#1A2A4F; font-family:'FSMatthew-Bold'; font-size:19.9211;">USI</tspan><tspan x="44.503" y="0" style="fill:#1A2A4F; font-family:'FSMatthew-Bold'; font-size:19.9211;">C</tspan></text>
	<text transform="matrix(1 0 0 1 90.8496 266.0752)" style="display:inline;"><tspan x="0" y="0" style="fill:#1A2A4F; font-family:'FSMatthew'; font-size:13.4148;">(</tspan><tspan x="4.105" y="0" style="fill:#1A2A4F; font-family:'FSMatthew'; font-size:13.4148;">R</tspan><tspan x="11.282" y="0" style="fill:#1A2A4F; font-family:'FSMatthew'; font-size:13.4148;">EF 2</tspan><tspan x="33.845" y="0" style="fill:#1A2A4F; font-family:'FSMatthew'; font-size:13.4148;">014</tspan><tspan x="54.691" y="0" style="fill:#1A2A4F; font-family:'FSMatthew'; font-size:13.4148;">)</tspan></text>
</g>
<g id="Text_Flat">
	<g>
		<path style="fill:#B4A168;" d="M102.421,165.713c0,1.841-0.38,3.857-1.695,5.23c-1.256,1.345-3.214,1.87-5.113,1.87
			c-1.403,0-2.981-0.233-4.033-0.613c-0.087-0.38-0.146-1.022-0.146-1.52c0-0.672,0.059-1.228,0.263-1.782
			c0.994,0.263,2.309,0.438,3.214,0.438c2.192,0,3.331-1.169,3.331-3.857v-12.711c0.556-0.088,1.344-0.146,2.075-0.146
			c0.818,0,1.578,0.059,2.104,0.146V165.713z"/>
		<path style="fill:#B4A168;" d="M113.523,172.813c-5.406,0-8.27-3.74-8.27-10.169c0-6.428,2.864-10.168,8.27-10.168
			s8.27,3.74,8.27,10.168C121.792,169.073,118.929,172.813,113.523,172.813z M113.523,156.07c-2.513,0-3.945,1.929-3.945,6.574
			c0,4.646,1.432,6.575,3.945,6.575c2.513,0,3.945-1.929,3.945-6.575C117.468,157.999,116.036,156.07,113.523,156.07z"/>
		<path style="fill:#B4A168;" d="M128.95,172.521c-0.555,0.088-1.228,0.146-2.104,0.146c-0.789,0-1.52-0.059-2.075-0.146v-19.753
			c0.555-0.088,1.374-0.146,2.104-0.146c0.818,0,1.548,0.059,2.075,0.146V172.521z"/>
		<path style="fill:#B4A168;" d="M148.672,172.521c-0.292,0.059-0.994,0.117-1.49,0.117c-0.497,0-0.994-0.029-1.461-0.117
			l-9.087-12.652v12.652c-0.234,0.059-1.11,0.146-1.929,0.146c-0.672,0-1.461-0.088-1.87-0.146v-19.753
			c0.468-0.088,1.023-0.117,1.549-0.117c0.555,0,1.14,0.059,1.578,0.117l8.912,12.419v-12.419c0.584-0.088,1.344-0.146,1.899-0.146
			s1.373,0.059,1.899,0.146V172.521z"/>
		<path style="fill:#B4A168;" d="M165.618,156.333h-5.23v16.188c-0.556,0.088-1.345,0.146-2.075,0.146s-1.52-0.059-2.104-0.146
			v-16.188h-5.231c-0.117-0.38-0.205-1.285-0.205-1.782s0.117-1.402,0.234-1.782h14.61c0.116,0.38,0.204,1.285,0.204,1.782
			S165.734,155.953,165.618,156.333z"/>
		<path style="fill:#B4A168;" d="M184.404,172.521h-12.477c-0.264-0.613-0.351-1.373-0.351-2.046c0-0.351,0.028-0.788,0.087-1.081
			c2.046-2.074,4.237-4.412,6.166-6.574c1.432-1.607,2.571-3.098,2.571-4.733c0-1.433-0.993-2.25-2.747-2.25
			c-1.285,0-3.331,0.438-5.23,1.344c-0.116-0.497-0.233-1.373-0.233-2.074c0-0.351,0.059-1.053,0.175-1.52
			c1.433-0.614,3.74-1.169,5.99-1.169c3.332,0,6.254,1.549,6.254,5.143c0,3.156-1.695,5.289-5.318,9.088
			c-0.701,0.76-1.461,1.49-2.221,2.279h7.393c0.088,0.38,0.146,1.11,0.146,1.812C184.609,171.323,184.521,172.112,184.404,172.521z"
			/>
	</g>
	<g>
		<path style="fill:#B4A168;" d="M200.737,172.521c-0.467,0.117-1.461,0.146-1.928,0.146c-0.497,0-1.637-0.059-2.104-0.146v-9.993
			c0-1.578-0.818-2.25-2.133-2.25c-1.052,0-2.25,0.38-3.186,0.964v11.279c-0.672,0.117-1.606,0.146-2.133,0.146
			c-0.468,0-1.314-0.029-1.899-0.146v-15.224c0.38-0.088,1.315-0.146,1.753-0.146c0.409,0,1.257,0.059,1.695,0.146l0.204,1.344
			c1.315-0.964,3.215-1.637,4.909-1.637c3.215,0,4.821,1.987,4.821,5.318V172.521z"/>
		<path style="fill:#B4A168;" d="M216.661,172.521c-0.468,0.088-1.257,0.146-1.87,0.146c-0.556,0-1.198-0.059-1.607-0.146
			l-0.117-1.344c-1.052,1.022-2.396,1.636-3.974,1.636c-4.354,0-6.224-3.477-6.224-7.655c0-4.5,2.016-8.153,6.662-8.153
			c1.14,0,2.454,0.352,3.097,0.76v-6.545c0.526-0.088,1.403-0.146,2.046-0.146c0.789,0,1.402,0.088,1.987,0.146V172.521z
			 M212.628,160.774c-0.701-0.321-1.606-0.496-2.366-0.496c-2.367,0-3.244,2.104-3.244,4.646c0,2.134,0.526,4.559,2.894,4.559
			c1.14,0,2.016-0.468,2.717-1.052V160.774z"/>
	</g>
	<g>
		<path style="fill:#B4A168;" d="M97.278,196.426c-0.555,0.088-1.228,0.146-2.104,0.146c-0.789,0-1.52-0.059-2.075-0.146v-19.753
			c0.555-0.088,1.374-0.146,2.104-0.146c0.818,0,1.548,0.059,2.075,0.146V196.426z"/>
		<path style="fill:#B4A168;" d="M117.001,196.426c-0.292,0.059-0.994,0.117-1.49,0.117c-0.497,0-0.994-0.029-1.461-0.117
			l-9.087-12.652v12.652c-0.234,0.059-1.11,0.146-1.929,0.146c-0.672,0-1.461-0.088-1.87-0.146v-19.753
			c0.468-0.088,1.023-0.117,1.549-0.117c0.555,0,1.14,0.059,1.578,0.117l8.912,12.419v-12.419c0.584-0.088,1.344-0.146,1.899-0.146
			s1.373,0.059,1.899,0.146V196.426z"/>
		<path style="fill:#B4A168;" d="M141.748,188.916c0,5.026-1.929,7.802-7.539,7.802c-5.669,0-7.451-2.775-7.451-7.802v-12.243
			c0.584-0.088,1.344-0.146,2.045-0.146c0.818,0,1.549,0.059,2.133,0.146v12.535c0,2.688,0.76,4.208,3.302,4.208
			c2.542,0,3.418-1.52,3.418-4.208v-12.535c0.526-0.088,1.403-0.146,2.075-0.146c0.643,0,1.52,0.059,2.017,0.146V188.916z"/>
		<path style="fill:#B4A168;" d="M160.973,196.426c-0.525,0.088-1.461,0.146-2.483,0.146c-0.73,0-1.782-0.059-2.396-0.146
			l-5.113-7.919l-1.344,1.607v6.312c-0.555,0.088-1.227,0.146-2.104,0.146c-0.789,0-1.52-0.059-2.075-0.146v-19.753
			c0.555-0.088,1.374-0.146,2.104-0.146c0.818,0,1.549,0.059,2.075,0.146v8.503l3.39-3.974c1.489-1.754,2.308-3.01,2.629-4.529
			c0.585-0.088,1.403-0.146,2.046-0.146c0.526,0,1.432,0.059,2.045,0.146c-0.438,2.309-1.665,4.324-3.418,6.341l-2.338,2.688
			L160.973,196.426z"/>
	</g>
	<g>
		<path style="fill:#1A2A4F;" d="M97.629,209.108h-3.726v2.045h3.138c0.056,0.154,0.098,0.434,0.098,0.826
			c0,0.309-0.028,0.561-0.098,0.854h-3.138v4.034c-0.266,0.042-0.574,0.07-0.995,0.07c-0.378,0-0.742-0.028-1.008-0.07v-9.469h5.729
			c0.056,0.153,0.098,0.448,0.098,0.84C97.728,208.548,97.699,208.813,97.629,209.108z"/>
		<path style="fill:#1A2A4F;" d="M102.122,217.008c-2.591,0-3.964-1.793-3.964-4.874c0-3.082,1.373-4.875,3.964-4.875
			s3.964,1.793,3.964,4.875C106.086,215.215,104.713,217.008,102.122,217.008z M102.122,208.981c-1.205,0-1.891,0.925-1.891,3.152
			c0,2.227,0.687,3.151,1.891,3.151s1.891-0.925,1.891-3.151C104.013,209.906,103.327,208.981,102.122,208.981z"/>
		<path style="fill:#1A2A4F;" d="M114.458,216.854c-0.364,0.056-0.743,0.084-1.177,0.084c-0.392,0-0.784-0.015-1.05-0.07
			l-1.919-3.404h-0.826v3.404c-0.35,0.056-0.645,0.07-1.022,0.07c-0.336,0-0.63-0.015-0.98-0.07v-9.469
			c0.644-0.042,1.989-0.07,2.801-0.07c2.381,0,3.572,0.841,3.572,3.025c0,1.163-0.7,2.325-1.681,2.746L114.458,216.854z
			 M110.409,208.968c-0.308,0-0.686,0.014-0.924,0.028v2.802h0.7c1.149,0,1.653-0.421,1.653-1.457
			C111.838,209.304,111.334,208.968,110.409,208.968z"/>
	</g>
	<g>
		<path style="fill:#1A2A4F;" d="M121.764,216.868c-0.379,0.06-0.837,0.1-1.435,0.1c-0.538,0-1.036-0.04-1.415-0.1v-13.472
			c0.378-0.06,0.937-0.1,1.435-0.1c0.558,0,1.056,0.04,1.415,0.1V216.868z"/>
		<path style="fill:#1A2A4F;" d="M138.043,216.868c-0.239,0.06-0.777,0.1-1.335,0.1c-0.598,0-1.156-0.06-1.395-0.1l-0.239-8.091
			l-2.95,6.815c-0.219,0.08-0.697,0.119-0.996,0.119c-0.359,0-0.797-0.039-1.017-0.1l-2.949-6.835l-0.259,8.091
			c-0.259,0.06-0.876,0.1-1.415,0.1c-0.319,0-0.857-0.04-1.216-0.1l0.578-13.472c0.378-0.039,0.757-0.1,1.156-0.1
			c0.478,0,0.937,0.04,1.176,0.1l3.946,9.147l3.965-9.147c0.399-0.06,0.797-0.1,1.156-0.1c0.458,0,0.876,0.04,1.176,0.1
			L138.043,216.868z"/>
		<path style="fill:#1A2A4F;" d="M144.753,212.046h-1.395v4.822c-0.378,0.06-0.837,0.1-1.435,0.1c-0.538,0-1.037-0.04-1.415-0.1
			v-13.451c1.156-0.06,2.91-0.12,4.045-0.12c3.049,0,5.261,1.057,5.261,4.225C149.815,210.61,147.882,212.046,144.753,212.046z
			 M144.674,205.648c-0.398,0-0.917,0.021-1.315,0.04v3.966h1.235c1.535,0,2.352-0.398,2.352-2.033
			C146.945,206.227,146.248,205.648,144.674,205.648z"/>
		<path style="fill:#1A2A4F;" d="M161.848,216.868c-0.259,0.06-0.877,0.1-1.534,0.1c-0.519,0-1.116-0.06-1.375-0.1l-0.996-2.73
			h-4.783l-0.937,2.73c-0.438,0.06-0.957,0.1-1.475,0.1c-0.518,0-1.116-0.04-1.415-0.1l4.703-13.472c0.279-0.06,0.937-0.1,1.375-0.1
			c0.538,0,1.176,0.04,1.396,0.1L161.848,216.868z M157.085,211.767l-1.176-3.807c-0.14-0.438-0.278-0.996-0.398-1.614h-0.04
			c-0.1,0.618-0.259,1.176-0.398,1.614l-1.115,3.807H157.085z"/>
		<path style="fill:#1A2A4F;" d="M171.947,206.207c-0.957-0.299-2.152-0.519-3.109-0.519c-2.271,0-3.746,1.614-3.746,4.504
			c0,2.65,1.156,4.384,3.727,4.384c0.956,0,2.032-0.199,2.989-0.498c0.14,0.358,0.239,0.917,0.239,1.335
			c0,0.339-0.021,0.758-0.06,0.937c-0.997,0.459-2.272,0.718-3.448,0.718c-4.284,0-6.396-2.591-6.396-6.815
			c0-4.105,2.271-7.055,6.517-7.055c1.036,0,2.391,0.26,3.348,0.678c0.06,0.199,0.08,0.638,0.08,0.896
			C172.087,205.39,172.007,205.968,171.947,206.207z"/>
		<path style="fill:#1A2A4F;" d="M183.422,205.828h-3.567v11.04c-0.379,0.06-0.917,0.1-1.415,0.1s-1.036-0.04-1.435-0.1v-11.04
			h-3.567c-0.079-0.259-0.139-0.877-0.139-1.216s0.079-0.956,0.159-1.216h9.964c0.08,0.26,0.14,0.877,0.14,1.216
			S183.502,205.569,183.422,205.828z"/>
		<path style="fill:#1A2A4F;" d="M193.121,217.067c-3.687,0-5.64-2.551-5.64-6.935c0-4.385,1.953-6.936,5.64-6.936
			s5.64,2.551,5.64,6.936C198.761,214.517,196.808,217.067,193.121,217.067z M193.121,205.648c-1.714,0-2.69,1.315-2.69,4.484
			c0,3.168,0.977,4.483,2.69,4.483s2.69-1.315,2.69-4.483C195.812,206.964,194.835,205.648,193.121,205.648z"/>
		<path style="fill:#1A2A4F;" d="M208.9,205.828H203.6v2.909h4.464c0.079,0.22,0.139,0.618,0.139,1.176
			c0,0.438-0.039,0.797-0.139,1.216H203.6v5.739c-0.379,0.06-0.817,0.1-1.415,0.1c-0.538,0-1.057-0.04-1.436-0.1v-13.472h8.151
			c0.079,0.22,0.139,0.638,0.139,1.196C209.039,205.031,209,205.409,208.9,205.828z"/>
	</g>
	<g>
		<path style="fill:#1A2A4F;" d="M102.269,232.785c-0.519,0.079-1.057,0.119-1.674,0.119c-0.558,0-1.116-0.02-1.495-0.1l-2.73-4.843
			h-1.176v4.843c-0.498,0.08-0.917,0.1-1.455,0.1c-0.479,0-0.897-0.02-1.395-0.1v-13.472c0.917-0.06,2.83-0.1,3.985-0.1
			c3.388,0,5.082,1.196,5.082,4.305c0,1.654-0.997,3.309-2.392,3.906L102.269,232.785z M96.509,221.565
			c-0.438,0-0.977,0.02-1.315,0.04v3.985h0.997c1.634,0,2.352-0.598,2.352-2.072S97.824,221.565,96.509,221.565z"/>
		<path style="fill:#1A2A4F;" d="M112.328,232.805h-8.43v-13.472h8.25c0.08,0.22,0.14,0.638,0.14,1.196
			c0,0.438-0.04,0.816-0.14,1.235h-5.4v2.909h4.563c0.08,0.22,0.14,0.618,0.14,1.176c0,0.438-0.04,0.797-0.14,1.216h-4.563v3.308
			h5.58c0.08,0.22,0.139,0.638,0.139,1.196C112.467,232.008,112.428,232.386,112.328,232.805z"/>
		<path style="fill:#1A2A4F;" d="M118.003,233.004c-1.455,0-3.049-0.279-4.185-0.797c-0.06-0.279-0.1-0.638-0.1-0.957
			c0-0.478,0.06-0.937,0.199-1.475c1.176,0.479,2.73,0.777,3.946,0.777c1.415,0,2.172-0.657,2.172-1.555
			c0-0.996-0.638-1.414-2.57-2.013c-2.152-0.657-3.727-1.693-3.727-4.005c0-2.472,2.132-3.847,4.942-3.847
			c1.295,0,2.451,0.199,3.229,0.459c0.06,0.219,0.1,0.577,0.1,1.096c0,0.379-0.04,0.956-0.12,1.275
			c-0.997-0.259-2.132-0.398-3.049-0.398c-1.495,0-2.312,0.498-2.312,1.295c0,0.937,0.737,1.315,2.531,1.873
			c2.152,0.678,3.747,1.694,3.747,4.086C122.806,231.43,120.754,233.004,118.003,233.004z"/>
		<path style="fill:#1A2A4F;" d="M133.125,232.805h-8.43v-13.472h8.25c0.08,0.22,0.14,0.638,0.14,1.196
			c0,0.438-0.04,0.816-0.14,1.235h-5.4v2.909h4.563c0.08,0.22,0.14,0.618,0.14,1.176c0,0.438-0.04,0.797-0.14,1.216h-4.563v3.308
			h5.58c0.08,0.22,0.139,0.638,0.139,1.196C133.265,232.008,133.225,232.386,133.125,232.805z"/>
		<path style="fill:#1A2A4F;" d="M146.753,232.805c-0.259,0.06-0.877,0.1-1.535,0.1c-0.518,0-1.116-0.06-1.375-0.1l-0.997-2.73
			h-4.783l-0.937,2.73c-0.438,0.06-0.957,0.1-1.475,0.1s-1.116-0.04-1.415-0.1l4.703-13.472c0.279-0.06,0.937-0.1,1.375-0.1
			c0.538,0,1.176,0.04,1.395,0.1L146.753,232.805z M141.99,227.703l-1.175-3.807c-0.14-0.438-0.279-0.996-0.399-1.613h-0.04
			c-0.1,0.617-0.259,1.175-0.399,1.613l-1.116,3.807H141.99z"/>
		<path style="fill:#1A2A4F;" d="M158.067,232.785c-0.519,0.079-1.057,0.119-1.674,0.119c-0.559,0-1.116-0.02-1.495-0.1l-2.73-4.843
			h-1.175v4.843c-0.498,0.08-0.917,0.1-1.455,0.1c-0.479,0-0.897-0.02-1.395-0.1v-13.472c0.917-0.06,2.83-0.1,3.986-0.1
			c3.388,0,5.081,1.196,5.081,4.305c0,1.654-0.996,3.309-2.391,3.906L158.067,232.785z M152.309,221.565
			c-0.439,0-0.977,0.02-1.316,0.04v3.985h0.997c1.634,0,2.352-0.598,2.352-2.072S153.623,221.565,152.309,221.565z"/>
		<path style="fill:#1A2A4F;" d="M168.625,222.144c-0.957-0.299-2.152-0.519-3.109-0.519c-2.271,0-3.746,1.614-3.746,4.504
			c0,2.65,1.156,4.384,3.727,4.384c0.956,0,2.032-0.199,2.989-0.498c0.14,0.358,0.239,0.917,0.239,1.335
			c0,0.339-0.021,0.758-0.06,0.937c-0.997,0.459-2.272,0.718-3.448,0.718c-4.284,0-6.396-2.591-6.396-6.815
			c0-4.105,2.271-7.055,6.517-7.055c1.036,0,2.391,0.26,3.348,0.678c0.06,0.199,0.08,0.638,0.08,0.896
			C168.765,221.326,168.685,221.904,168.625,222.144z"/>
		<path style="fill:#1A2A4F;" d="M181.016,232.805c-0.358,0.06-0.856,0.1-1.415,0.1c-0.558,0-1.056-0.04-1.435-0.1v-5.58h-4.683
			v5.58c-0.379,0.06-0.817,0.1-1.415,0.1c-0.538,0-1.057-0.04-1.436-0.1v-13.472c0.379-0.06,0.938-0.1,1.436-0.1
			c0.558,0,1.056,0.04,1.415,0.1v5.461h4.683v-5.461c0.438-0.06,0.937-0.1,1.435-0.1c0.479,0,1.076,0.04,1.415,0.1V232.805z"/>
		<path style="fill:#1A2A4F;" d="M190.615,232.805c-0.378,0.06-0.837,0.1-1.435,0.1c-0.538,0-1.036-0.04-1.415-0.1v-13.472
			c0.379-0.06,0.937-0.1,1.436-0.1c0.558,0,1.056,0.04,1.414,0.1V232.805z"/>
		<path style="fill:#1A2A4F;" d="M204.065,232.805c-0.199,0.04-0.678,0.08-1.017,0.08s-0.678-0.021-0.996-0.08l-6.198-8.629v8.629
			c-0.159,0.04-0.757,0.1-1.315,0.1c-0.458,0-0.996-0.06-1.275-0.1v-13.472c0.319-0.06,0.698-0.079,1.057-0.079
			c0.379,0,0.777,0.04,1.076,0.079l6.078,8.47v-8.47c0.398-0.06,0.917-0.1,1.295-0.1c0.379,0,0.937,0.04,1.296,0.1V232.805z"/>
	</g>
	<g>
		<path style="fill:#1A2A4F;" d="M105.975,248.742c-0.239,0.06-0.777,0.1-1.335,0.1c-0.598,0-1.156-0.06-1.395-0.1l-0.239-8.091
			l-2.95,6.815c-0.219,0.08-0.697,0.119-0.996,0.119c-0.359,0-0.797-0.039-1.017-0.1l-2.949-6.835l-0.259,8.091
			c-0.259,0.06-0.876,0.1-1.415,0.1c-0.319,0-0.857-0.04-1.216-0.1l0.578-13.472c0.378-0.039,0.757-0.1,1.156-0.1
			c0.478,0,0.937,0.04,1.176,0.1l3.946,9.147l3.965-9.147c0.399-0.06,0.797-0.1,1.156-0.1c0.458,0,0.876,0.04,1.176,0.1
			L105.975,248.742z"/>
		<path style="fill:#1A2A4F;" d="M118.384,243.621c0,3.427-1.315,5.32-5.141,5.32c-3.866,0-5.082-1.894-5.082-5.32v-8.351
			c0.399-0.06,0.917-0.1,1.395-0.1c0.558,0,1.056,0.04,1.455,0.1v8.55c0,1.833,0.518,2.869,2.251,2.869
			c1.734,0,2.332-1.036,2.332-2.869v-8.55c0.358-0.06,0.957-0.1,1.415-0.1c0.438,0,1.037,0.04,1.375,0.1V243.621z"/>
		<path style="fill:#1A2A4F;" d="M124.598,248.941c-1.455,0-3.049-0.279-4.185-0.797c-0.06-0.279-0.1-0.638-0.1-0.957
			c0-0.478,0.06-0.937,0.199-1.475c1.176,0.479,2.73,0.777,3.946,0.777c1.415,0,2.172-0.657,2.172-1.555
			c0-0.996-0.638-1.414-2.571-2.013c-2.152-0.657-3.726-1.693-3.726-4.005c0-2.472,2.132-3.847,4.942-3.847
			c1.295,0,2.451,0.199,3.229,0.459c0.06,0.219,0.1,0.577,0.1,1.096c0,0.379-0.04,0.956-0.12,1.275
			c-0.997-0.259-2.132-0.398-3.049-0.398c-1.495,0-2.312,0.498-2.312,1.295c0,0.937,0.737,1.315,2.531,1.873
			c2.152,0.678,3.746,1.694,3.746,4.086C129.4,247.367,127.348,248.941,124.598,248.941z"/>
		<path style="fill:#1A2A4F;" d="M134.199,248.742c-0.379,0.06-0.837,0.1-1.435,0.1c-0.538,0-1.036-0.04-1.415-0.1v-13.472
			c0.378-0.06,0.937-0.1,1.435-0.1c0.558,0,1.056,0.04,1.415,0.1V248.742z"/>
		<path style="fill:#1A2A4F;" d="M146.034,238.081c-0.956-0.299-2.152-0.519-3.108-0.519c-2.272,0-3.747,1.614-3.747,4.504
			c0,2.65,1.156,4.384,3.727,4.384c0.957,0,2.033-0.199,2.989-0.498c0.139,0.358,0.239,0.917,0.239,1.335
			c0,0.339-0.02,0.758-0.06,0.937c-0.996,0.459-2.271,0.718-3.447,0.718c-4.285,0-6.397-2.591-6.397-6.815
			c0-4.105,2.271-7.055,6.516-7.055c1.037,0,2.392,0.26,3.348,0.678c0.06,0.199,0.08,0.638,0.08,0.896
			C146.174,237.264,146.094,237.842,146.034,238.081z"/>
	</g>
	<g>
		<path style="fill:#1A2A4F;" d="M93.773,267.577c-1.556-1.448-2.387-3.487-2.387-5.539s0.832-4.023,2.387-5.473
			c0.309,0.041,0.51,0.188,0.684,0.43c-1.314,1.556-1.811,3.312-1.811,5.083c0,1.798,0.496,3.515,1.811,5.07
			C94.283,267.39,94.082,267.537,93.773,267.577z"/>
		<path style="fill:#1A2A4F;" d="M101.996,266.075c-0.268,0.04-0.537,0.067-0.805,0.067c-0.255,0-0.469-0.014-0.724-0.067
			l-1.985-3.487h-1.18v3.487c-0.228,0.04-0.456,0.067-0.684,0.067c-0.214,0-0.442-0.027-0.657-0.067v-9.066
			c0.657-0.041,1.449-0.067,2.213-0.067c1.891,0,3.407,0.576,3.407,2.749c0,1.194-0.657,2.24-1.757,2.643L101.996,266.075z
			 M98.321,257.987c-0.309,0-0.792,0-1.02,0.014v3.527h0.912c1.261,0,2.012-0.563,2.012-1.838
			C100.226,258.457,99.515,257.987,98.321,257.987z"/>
		<path style="fill:#1A2A4F;" d="M108.422,266.075h-5.285v-9.066h5.083c0.054,0.16,0.067,0.389,0.067,0.55
			c0,0.174-0.013,0.375-0.067,0.55h-3.742v2.736h3.232c0.054,0.16,0.067,0.389,0.067,0.55c0,0.174-0.013,0.375-0.067,0.55h-3.232
			v3.031h3.943c0.054,0.161,0.067,0.389,0.067,0.55C108.489,265.699,108.476,265.9,108.422,266.075z"/>
		<path style="fill:#1A2A4F;" d="M114.821,258.108h-3.742v2.736h3.098c0.054,0.16,0.067,0.389,0.067,0.55
			c0,0.174-0.014,0.375-0.067,0.55h-3.098v4.131c-0.228,0.04-0.429,0.067-0.67,0.067c-0.228,0-0.456-0.027-0.671-0.067v-9.066h5.083
			c0.054,0.16,0.067,0.389,0.067,0.55C114.888,257.732,114.875,257.934,114.821,258.108z"/>
		<path style="fill:#1A2A4F;" d="M121.635,263.299c-0.482,0.536-1.006,1.1-1.569,1.663h3.795c0.041,0.147,0.067,0.43,0.067,0.59
			c0,0.147-0.014,0.376-0.067,0.523h-5.258c-0.094-0.255-0.161-0.496-0.161-0.765c0-0.107,0.013-0.228,0.027-0.335
			c0.711-0.711,1.516-1.556,2.2-2.32c1.261-1.408,1.931-2.227,1.931-3.3c0-0.966-0.644-1.448-1.502-1.448
			c-0.751,0-1.569,0.228-2.187,0.55c-0.04-0.188-0.067-0.376-0.067-0.563c0-0.134,0.027-0.335,0.067-0.456
			c0.617-0.335,1.476-0.563,2.388-0.563c1.502,0,2.682,0.898,2.682,2.374C123.982,260.616,123.165,261.596,121.635,263.299z"/>
		<path style="fill:#1A2A4F;" d="M128.303,266.209c-1.972,0-3.004-1.528-3.004-4.667c0-3.099,1.033-4.668,3.004-4.668
			s3.004,1.529,3.004,4.668S130.274,266.209,128.303,266.209z M128.303,257.92c-1.288,0-1.596,1.503-1.596,3.608
			c0,2.119,0.322,3.635,1.596,3.635c1.314,0,1.596-1.516,1.596-3.635S129.59,257.92,128.303,257.92z"/>
		<path style="fill:#1A2A4F;" d="M136.875,266.075c-0.215,0.04-0.443,0.067-0.671,0.067s-0.456-0.027-0.67-0.067v-7.618
			l-2.267,1.462c-0.255-0.241-0.483-0.631-0.563-0.966l3.125-1.944c0.147-0.041,0.322-0.067,0.497-0.067
			c0.188,0,0.375,0.026,0.55,0.067V266.075z"/>
		<path style="fill:#1A2A4F;" d="M145.553,263.97h-1.274v2.092c-0.201,0.04-0.402,0.067-0.617,0.067
			c-0.228,0-0.469-0.014-0.697-0.067v-2.092h-3.863c-0.041-0.175-0.067-0.349-0.067-0.523c0-0.147,0.014-0.281,0.067-0.496
			l2.897-5.941c0.188-0.041,0.469-0.067,0.657-0.067c0.241,0,0.51,0.026,0.765,0.067l-2.911,5.848h2.455v-2.025
			c0.228-0.04,0.456-0.067,0.684-0.067c0.214,0,0.416,0.027,0.63,0.067v2.025h1.274c0.054,0.188,0.067,0.389,0.067,0.576
			C145.621,263.607,145.607,263.809,145.553,263.97z"/>
		<path style="fill:#1A2A4F;" d="M146.949,267.577c-0.309-0.04-0.51-0.188-0.684-0.429c1.314-1.556,1.811-3.313,1.811-5.084
			c0-1.797-0.497-3.514-1.811-5.069c0.174-0.241,0.402-0.389,0.711-0.43c1.556,1.449,2.361,3.487,2.361,5.54
			C149.337,264.157,148.505,266.129,146.949,267.577z"/>
	</g>
</g>
</svg>
