<?xml version="1.0" encoding="utf-8"?>
<!-- Generator: Adobe Illustrator 16.0.0, SVG Export Plug-In . SVG Version: 6.00 Build 0)  -->
<!DOCTYPE svg PUBLIC "-//W3C//DTD SVG 1.0//EN" "http://www.w3.org/TR/2001/REC-SVG-20010904/DTD/svg10.dtd">
<svg version="1.0" xmlns="http://www.w3.org/2000/svg" xmlns:xlink="http://www.w3.org/1999/xlink" x="0px" y="0px" width="300px"
	 height="300px" viewBox="0 0 300 300" style="enable-background:new 0 0 300 300;" xml:space="preserve">
<g id="Icons">
	<rect x="14.93" y="101.486" style="fill:#5DC2AA;" width="39.785" height="2.717"/>
	<rect x="83.28" y="101.486" style="fill:#5DC2AA;" width="198.929" height="2.717"/>
	<text transform="matrix(1 0 0 1 234.8701 193.6582)" style="fill:#FFFFFF; font-family:'FSMatthew'; font-size:10.6109;"> </text>
	<path style="fill:#E44398;" d="M83.025,97.576h-5.406v5.226h-4.494v-5.226h-5.407v-4.338h5.407v-5.224h4.494v5.224h5.406V97.576z
		 M110.262,145.546c0-13.071-3.188-23.279-7.953-30.849c1.577-0.54,2.905-1.785,3.423-3.557c1.245-4.554,2.491-9.108,3.737-13.662
		c0.489-1.775-0.19-3.76-1.904-5.115c-17.384-14.4-47.005-14.4-64.387,0c-1.712,1.355-2.395,3.339-1.904,5.115
		c1.246,4.554,2.492,9.107,3.737,13.662c0.518,1.771,1.846,3.015,3.423,3.557c-4.765,7.568-7.952,17.778-7.952,30.849
		c0,9.37,12.164,14.825,26.337,16.372c-6.661-3.39-10.417-10.471-12.265-19.422c-2.623-12.577,5.609-24.854,20.817-24.86
		c15.209,0.009,23.44,12.283,20.818,24.86c-1.848,8.951-5.604,16.03-12.264,19.422C98.097,160.371,110.262,154.914,110.262,145.546
		 M127.827,215.123c-0.002-1.572-0.005-3.57-0.009-4.046c-0.29-31.749-6.927-36.645-29.736-47.504
		c0.465,0.438,0.922,0.893,1.364,1.383c3.221,3.581,5.812,8.534,7.412,13.746c3.555-0.536,7.021,1.669,7.969,5.22
		c1.021,3.814-1.245,7.73-5.057,8.751c-3.812,1.02-7.729-1.243-8.75-5.058c-0.936-3.498,0.894-7.086,4.15-8.438
		c-1.117-3.613-2.735-7.102-4.686-10.011c-1.5-2.242-3.197-4.129-4.985-5.482c0.293,12.251-12.403,19.161-12.403,19.161
		l-5.314-8.432c-1.604,0.221-3.216,0.221-4.82,0l-5.313,8.432c0,0-12.782-6.952-12.403-19.279c0-0.05,0.017-0.092,0.022-0.139
		c-2.634,2.624-4.826,6.625-5.948,11.358c0.618,0.864,0.813,2.456,0.634,3.782c2.705,1.524,4.775,4.635,5.94,9.02l-0.737,0.194
		c1.088,4.093,1.251,8.942,0.285,13.052c-1.165,5.311-3.718,6.796-6.672,6.917c-0.777,0.928-2.742,1.217-4.111,0.896
		c-1.665-0.366-1.34-1.336-1.039-2.74c0.333-1.395,0.459-2.411,2.121-2.02c1.13,0.248,2.449,1.044,3.048,1.976
		c2.51-0.139,3.958-1.523,4.819-5.447c0.89-3.78,0.73-8.352-0.274-12.148l-0.713,0.189c-1.109-4.175-3.159-6.888-5.665-7.457
		c-0.016-0.002-0.032-0.006-0.046-0.011c-2.488-0.602-5.521,0.966-8.342,4.272l-0.561-0.479c-2.548,2.993-4.667,7.047-5.502,10.852
		c-0.919,3.914-0.176,5.784,1.995,6.979c0.941-0.579,2.476-0.726,3.602-0.462c1.666,0.367,1.341,1.339,1.037,2.737
		c-0.332,1.396-0.458,2.412-2.119,2.022c-1.374-0.302-3.021-1.413-3.319-2.586c-2.544-1.358-4.279-3.794-3.03-9.107
		c0.907-4.134,3.15-8.438,5.901-11.658l-0.58-0.495c2.952-3.46,6.169-5.369,9.258-5.569c0.417-1.29,1.299-2.656,2.244-3.151
		c1.013-4.267,2.867-7.98,5.166-10.765c-22.633,10.775-29.342,15.679-29.725,46.786c-0.006,0.652-0.012,2.994-0.015,4.76H127.827z"
		/>
	<rect x="14.93" y="212.39" style="fill:#5DC2AA;" width="267.279" height="5.452"/>
</g>
<g id="Text" style="display:none;">
	<text transform="matrix(1 0 0 1 150.7422 119.1489)" style="display:inline;"><tspan x="0" y="0" style="fill:#1A2A4F; font-family:'FSMatthew-Medium'; font-size:14.7542;">IN</tspan><tspan x="13.234" y="0" style="fill:#1A2A4F; font-family:'FSMatthew-Medium'; font-size:14.7542;"> </tspan><tspan x="15.639" y="0" style="fill:#1A2A4F; font-family:'FSMatthew-Medium'; font-size:14.7542;">THE </tspan><tspan x="42.979" y="0" style="fill:#1A2A4F; font-family:'FSMatthew-Medium'; font-size:14.7542;">W</tspan><tspan x="55.327" y="0" style="fill:#1A2A4F; font-family:'FSMatthew-Medium'; font-size:14.7542;">ORLD’S</tspan></text>
	<text transform="matrix(1 0 0 1 149.2686 148.8794)" style="display:inline;"><tspan x="0" y="0" style="fill:#C4B487; font-family:'FSMatthew-Bold'; font-size:36.3802; letter-spacing:-1;">T</tspan><tspan x="18.699" y="0" style="fill:#C4B487; font-family:'FSMatthew-Bold'; font-size:36.3802;">OP 5</tspan><tspan x="88.729" y="0" style="fill:#C4B487; font-family:'FSMatthew-Bold'; font-size:36.3802;">0</tspan></text>
	<text transform="matrix(1 0 0 1 150.9697 166.5645)" style="display:inline;"><tspan x="0" y="0" style="fill:#B4A168; font-family:'FSMatthew-Bold'; font-size:17.6848;">UN</tspan><tspan x="23.185" y="0" style="fill:#B4A168; font-family:'FSMatthew-Bold'; font-size:17.6848;">I</tspan><tspan x="28.154" y="0" style="fill:#B4A168; font-family:'FSMatthew-Bold'; font-size:17.6848;">VE</tspan><tspan x="47.802" y="0" style="fill:#B4A168; font-family:'FSMatthew-Bold'; font-size:17.6848;">R</tspan><tspan x="58.041" y="0" style="fill:#B4A168; font-family:'FSMatthew-Bold'; font-size:17.6848;">SITI</tspan><tspan x="86.425" y="0" style="fill:#B4A168; font-family:'FSMatthew-Bold'; font-size:17.6848;">E</tspan><tspan x="95.674" y="0" style="fill:#B4A168; font-family:'FSMatthew-Bold'; font-size:17.6848;">S</tspan></text>
	<text transform="matrix(1 0 0 1 151.377 182.7344)" style="display:inline;"><tspan x="0" y="0" style="fill:#B4A168; font-family:'FSMatthew-Bold'; font-size:17.6848;">F</tspan><tspan x="8.453" y="0" style="fill:#B4A168; font-family:'FSMatthew-Bold'; font-size:17.6848;">OR NURS</tspan><tspan x="76.238" y="0" style="fill:#B4A168; font-family:'FSMatthew-Bold'; font-size:17.6848;">I</tspan><tspan x="81.137" y="0" style="fill:#B4A168; font-family:'FSMatthew-Bold'; font-size:17.6848;">N</tspan><tspan x="93.038" y="0" style="fill:#B4A168; font-family:'FSMatthew-Bold'; font-size:17.6848;">G</tspan></text>
	<text transform="matrix(1 0 0 1 172.1504 193.6582)" style="display:inline;"><tspan x="0" y="0" style="fill:#1A2A4F; font-family:'FSMatthew'; font-size:10.6109;">(</tspan><tspan x="2.929" y="0" style="fill:#1A2A4F; font-family:'FSMatthew'; font-size:10.6109;">QS</tspan><tspan x="14.59" y="0" style="fill:#1A2A4F; font-family:'FSMatthew'; font-size:10.6109;"> </tspan><tspan x="16.723" y="0" style="fill:#1A2A4F; font-family:'FSMatthew'; font-size:10.6109;">R</tspan><tspan x="22.537" y="0" style="fill:#1A2A4F; font-family:'FSMatthew'; font-size:10.6109;">A</tspan><tspan x="28.702" y="0" style="fill:#1A2A4F; font-family:'FSMatthew'; font-size:10.6109;">NK</tspan><tspan x="41.499" y="0" style="fill:#1A2A4F; font-family:'FSMatthew'; font-size:10.6109;">I</tspan><tspan x="44.045" y="0" style="fill:#1A2A4F; font-family:'FSMatthew'; font-size:10.6109;">NG</tspan><tspan x="57.33" y="0" style="fill:#1A2A4F; font-family:'FSMatthew'; font-size:10.6109;">S</tspan></text>
	<text transform="matrix(1 0 0 1 174.3369 206.3887)" style="display:inline;"><tspan x="0" y="0" style="fill:#1A2A4F; font-family:'FSMatthew'; font-size:10.6109;">2</tspan><tspan x="5.507" y="0" style="fill:#1A2A4F; font-family:'FSMatthew'; font-size:10.6109;">01</tspan><tspan x="16.5" y="0" style="fill:#1A2A4F; font-family:'FSMatthew'; font-size:10.6109;">6 &amp; </tspan><tspan x="32.988" y="0" style="fill:#1A2A4F; font-family:'FSMatthew'; font-size:10.6109;">2</tspan><tspan x="38.485" y="0" style="fill:#1A2A4F; font-family:'FSMatthew'; font-size:10.6109;">0</tspan><tspan x="43.992" y="0" style="fill:#1A2A4F; font-family:'FSMatthew'; font-size:10.6109;">17</tspan><tspan x="54.984" y="0" style="fill:#1A2A4F; font-family:'FSMatthew'; font-size:10.6109;">)</tspan></text>
</g>
<g id="Text_Flat">
	<g>
		<path style="fill:#1A2A4F;" d="M153.147,109.204v9.945h-1.284v-9.945H153.147z"/>
		<path style="fill:#1A2A4F;" d="M155.39,119.149v-9.945h1.402l3.187,5.031c0.738,1.166,1.313,2.213,1.786,3.231l0.029-0.015
			c-0.118-1.328-0.147-2.538-0.147-4.087v-4.161h1.21v9.945h-1.299l-3.157-5.046c-0.694-1.106-1.357-2.243-1.859-3.32l-0.044,0.015
			c0.073,1.254,0.103,2.45,0.103,4.102v4.25H155.39z"/>
		<path style="fill:#1A2A4F;" d="M169.391,110.296h-3.024v-1.092h7.362v1.092h-3.039v8.853h-1.299V110.296z"/>
		<path style="fill:#1A2A4F;" d="M176.119,109.204v4.161h4.81v-4.161h1.299v9.945h-1.299v-4.663h-4.81v4.663h-1.284v-9.945H176.119z
			"/>
		<path style="fill:#1A2A4F;" d="M189.604,114.486h-3.865v3.585h4.309v1.077h-5.593v-9.945h5.371v1.077h-4.087v3.143h3.865V114.486z
			"/>
		<path style="fill:#1A2A4F;" d="M196.465,119.149l-2.522-9.945h1.357l1.18,5.031c0.296,1.24,0.562,2.479,0.738,3.438h0.029
			c0.162-0.989,0.473-2.169,0.812-3.453l1.328-5.017h1.343l1.21,5.046c0.28,1.181,0.546,2.361,0.693,3.409h0.029
			c0.207-1.092,0.487-2.199,0.797-3.438l1.313-5.017h1.313l-2.818,9.945h-1.343l-1.254-5.179c-0.311-1.269-0.517-2.243-0.649-3.246
			h-0.03c-0.177,0.989-0.397,1.962-0.767,3.246l-1.417,5.179H196.465z"/>
		<path style="fill:#1A2A4F;" d="M215.689,114.073c0,3.423-2.08,5.238-4.618,5.238c-2.626,0-4.471-2.036-4.471-5.046
			c0-3.158,1.962-5.224,4.618-5.224C213.934,109.042,215.689,111.122,215.689,114.073z M207.973,114.235
			c0,2.125,1.151,4.028,3.173,4.028c2.036,0,3.187-1.874,3.187-4.131c0-1.978-1.032-4.043-3.172-4.043
			C209.035,110.089,207.973,112.052,207.973,114.235z"/>
		<path style="fill:#1A2A4F;" d="M217.356,109.337c0.649-0.133,1.579-0.207,2.465-0.207c1.372,0,2.257,0.251,2.877,0.812
			c0.502,0.443,0.782,1.122,0.782,1.889c0,1.313-0.826,2.184-1.874,2.538v0.044c0.767,0.266,1.225,0.974,1.461,2.007
			c0.324,1.387,0.561,2.346,0.767,2.729h-1.328c-0.162-0.28-0.383-1.136-0.663-2.375c-0.296-1.373-0.827-1.889-1.992-1.933h-1.21
			v4.309h-1.284V109.337z M218.641,113.867h1.313c1.372,0,2.242-0.752,2.242-1.889c0-1.284-0.93-1.845-2.287-1.859
			c-0.619,0-1.062,0.059-1.269,0.118V113.867z"/>
		<path style="fill:#1A2A4F;" d="M225.294,109.204h1.284v8.868h4.249v1.077h-5.533V109.204z"/>
		<path style="fill:#1A2A4F;" d="M232.258,109.337c0.782-0.118,1.712-0.207,2.73-0.207c1.844,0,3.157,0.428,4.027,1.24
			c0.886,0.812,1.402,1.962,1.402,3.571c0,1.623-0.502,2.951-1.432,3.866c-0.93,0.93-2.464,1.431-4.396,1.431
			c-0.915,0-1.683-0.044-2.332-0.118V109.337z M233.542,118.131c0.324,0.059,0.797,0.074,1.298,0.074
			c2.745,0,4.235-1.535,4.235-4.22c0.015-2.346-1.313-3.836-4.028-3.836c-0.664,0-1.166,0.059-1.505,0.133V118.131z"/>
		<path style="fill:#1A2A4F;" d="M243.678,109.042c-0.339,1.24-0.974,2.818-1.387,3.497l-0.826,0.104
			c0.324-0.871,0.708-2.405,0.87-3.468L243.678,109.042z"/>
		<path style="fill:#1A2A4F;" d="M244.961,117.585c0.575,0.354,1.416,0.649,2.302,0.649c1.313,0,2.08-0.693,2.08-1.697
			c0-0.93-0.53-1.46-1.873-1.977c-1.623-0.576-2.627-1.417-2.627-2.818c0-1.549,1.284-2.7,3.217-2.7
			c1.019,0,1.756,0.236,2.198,0.487l-0.354,1.048c-0.325-0.177-0.989-0.472-1.889-0.472c-1.357,0-1.874,0.812-1.874,1.49
			c0,0.93,0.604,1.387,1.977,1.918c1.683,0.649,2.538,1.461,2.538,2.922c0,1.535-1.136,2.862-3.482,2.862
			c-0.959,0-2.006-0.28-2.537-0.634L244.961,117.585z"/>
	</g>
	<g>
		<path style="fill:#C4B487;" d="M168.33,128.727h-6.512v20.153c-0.691,0.109-1.673,0.182-2.582,0.182
			c-0.91,0-1.893-0.073-2.619-0.182v-20.153h-6.512c-0.146-0.473-0.255-1.601-0.255-2.219c0-0.619,0.146-1.746,0.291-2.219h18.188
			c0.146,0.473,0.255,1.601,0.255,2.219C168.585,127.126,168.476,128.254,168.33,128.727z"/>
		<path style="fill:#C4B487;" d="M179.863,149.243c-6.73,0-10.295-4.656-10.295-12.659s3.564-12.659,10.295-12.659
			c6.729,0,10.295,4.656,10.295,12.659S186.593,149.243,179.863,149.243z M179.863,128.399c-3.129,0-4.911,2.4-4.911,8.185
			s1.782,8.185,4.911,8.185c3.128,0,4.91-2.4,4.91-8.185S182.991,128.399,179.863,128.399z"/>
		<path style="fill:#C4B487;" d="M201.546,140.076H199v8.803c-0.691,0.109-1.528,0.182-2.619,0.182
			c-0.982,0-1.893-0.073-2.583-0.182v-24.554c2.109-0.109,5.311-0.219,7.384-0.219c5.566,0,9.604,1.928,9.604,7.712
			C210.785,137.457,207.257,140.076,201.546,140.076z M201.4,128.399c-0.728,0-1.674,0.036-2.4,0.072v7.239h2.255
			c2.801,0,4.292-0.728,4.292-3.71C205.547,129.454,204.274,128.399,201.4,128.399z"/>
		<path style="fill:#C4B487;" d="M227.666,149.243c-1.964,0-4.874-0.4-6.875-1.091c-0.072-0.254-0.182-0.91-0.182-1.637
			c0-0.8,0.109-1.637,0.327-2.328c1.673,0.51,4.256,0.837,6.293,0.837c2.583,0,4.257-1.382,4.257-3.856c0-1.055-0.291-2-0.91-2.619
			c-0.8-0.8-2.146-1.127-4.11-1.127H221.7v-13.132h13.751c0.109,0.582,0.182,1.492,0.182,2.146c0,0.691-0.109,1.892-0.182,2.328
			h-9.095v4.511h1.601c2.838,0,5.093,0.51,6.693,1.892c1.419,1.237,2.219,3.129,2.219,5.748
			C236.869,146.479,232.613,149.243,227.666,149.243z"/>
		<path style="fill:#C4B487;" d="M247.929,149.243c-5.82,0-8.657-4.292-8.657-12.659c0-8.439,2.946-12.659,8.767-12.659
			c5.784,0,8.621,4.22,8.621,12.659C256.659,144.951,253.713,149.243,247.929,149.243z M247.965,128.181
			c-2.328,0-3.346,2.146-3.346,8.403c0,6.147,1.018,8.403,3.346,8.403s3.348-2.256,3.348-8.403
			C251.312,130.327,250.293,128.181,247.965,128.181z"/>
	</g>
	<g>
		<path style="fill:#B4A168;" d="M161.315,162.02c0,3.042-1.167,4.722-4.562,4.722c-3.431,0-4.51-1.68-4.51-4.722v-7.41
			c0.354-0.053,0.813-0.088,1.238-0.088c0.495,0,0.937,0.035,1.291,0.088v7.587c0,1.627,0.459,2.547,1.998,2.547
			c1.538,0,2.069-0.92,2.069-2.547v-7.587c0.318-0.053,0.849-0.088,1.255-0.088c0.39,0,0.92,0.035,1.221,0.088V162.02z"/>
		<path style="fill:#B4A168;" d="M173.164,166.564c-0.177,0.035-0.601,0.07-0.901,0.07s-0.602-0.018-0.885-0.07l-5.5-7.657v7.657
			c-0.141,0.035-0.672,0.089-1.167,0.089c-0.406,0-0.884-0.054-1.132-0.089v-11.955c0.283-0.053,0.619-0.07,0.938-0.07
			c0.336,0,0.689,0.035,0.955,0.07l5.394,7.517v-7.517c0.354-0.053,0.813-0.088,1.149-0.088s0.832,0.035,1.149,0.088V166.564z"/>
		<path style="fill:#B4A168;" d="M178.045,166.564c-0.336,0.053-0.743,0.089-1.273,0.089c-0.478,0-0.92-0.036-1.256-0.089v-11.955
			c0.336-0.053,0.832-0.088,1.273-0.088c0.495,0,0.938,0.035,1.256,0.088V166.564z"/>
		<path style="fill:#B4A168;" d="M183.846,161.33c0.266,0.742,0.53,1.573,0.654,2.281h0.035c0.124-0.708,0.372-1.539,0.637-2.281
			l1.309-3.785c0.337-0.973,0.531-1.91,0.549-2.936c0.354-0.053,0.849-0.088,1.256-0.088c0.371,0,0.901,0.035,1.22,0.088
			c0,1.185-0.212,2.316-0.689,3.572l-3.201,8.383c-0.212,0.053-0.707,0.089-1.132,0.089c-0.478,0-0.866-0.036-1.185-0.089
			l-3.148-8.348c-0.478-1.255-0.689-2.423-0.689-3.607c0.318-0.053,0.743-0.088,1.273-0.088c0.406,0,0.92,0.035,1.238,0.088
			c0,1.097,0.194,1.963,0.53,2.936L183.846,161.33z"/>
		<path style="fill:#B4A168;" d="M198.311,166.564h-7.48v-11.955h7.321c0.071,0.194,0.124,0.566,0.124,1.062
			c0,0.389-0.035,0.725-0.124,1.096h-4.792v2.582h4.05c0.07,0.195,0.124,0.549,0.124,1.044c0,0.389-0.036,0.707-0.124,1.078h-4.05
			v2.937h4.951c0.071,0.194,0.124,0.565,0.124,1.061C198.435,165.857,198.399,166.193,198.311,166.564z"/>
		<path style="fill:#B4A168;" d="M208.905,166.547c-0.46,0.07-0.938,0.106-1.486,0.106c-0.495,0-0.99-0.019-1.326-0.089
			l-2.423-4.298h-1.043v4.298c-0.442,0.07-0.813,0.089-1.291,0.089c-0.425,0-0.796-0.019-1.238-0.089v-11.955
			c0.813-0.053,2.512-0.088,3.537-0.088c3.007,0,4.51,1.061,4.51,3.819c0,1.468-0.885,2.936-2.122,3.467L208.905,166.547z
			 M203.794,156.59c-0.389,0-0.866,0.018-1.167,0.036v3.536h0.884c1.45,0,2.087-0.53,2.087-1.839S204.961,156.59,203.794,156.59z"/>
		<path style="fill:#B4A168;" d="M213.591,166.741c-1.291,0-2.705-0.247-3.714-0.707c-0.053-0.248-0.088-0.566-0.088-0.85
			c0-0.424,0.053-0.831,0.177-1.309c1.043,0.425,2.423,0.69,3.502,0.69c1.255,0,1.927-0.584,1.927-1.38
			c0-0.884-0.565-1.256-2.281-1.786c-1.909-0.584-3.307-1.503-3.307-3.555c0-2.192,1.893-3.413,4.386-3.413
			c1.149,0,2.175,0.177,2.865,0.406c0.053,0.195,0.088,0.514,0.088,0.974c0,0.336-0.035,0.849-0.105,1.131
			c-0.885-0.229-1.893-0.354-2.706-0.354c-1.326,0-2.052,0.442-2.052,1.149c0,0.832,0.654,1.168,2.246,1.663
			c1.91,0.601,3.325,1.503,3.325,3.625C217.854,165.344,216.031,166.741,213.591,166.741z"/>
		<path style="fill:#B4A168;" d="M222.115,166.564c-0.336,0.053-0.743,0.089-1.273,0.089c-0.478,0-0.92-0.036-1.256-0.089v-11.955
			c0.336-0.053,0.832-0.088,1.273-0.088c0.495,0,0.938,0.035,1.256,0.088V166.564z"/>
		<path style="fill:#B4A168;" d="M232.407,156.767h-3.165v9.798c-0.336,0.053-0.813,0.089-1.256,0.089s-0.92-0.036-1.273-0.089
			v-9.798h-3.165c-0.071-0.229-0.124-0.777-0.124-1.078s0.07-0.85,0.142-1.079h8.842c0.071,0.229,0.124,0.778,0.124,1.079
			S232.479,156.537,232.407,156.767z"/>
		<path style="fill:#B4A168;" d="M236.369,166.564c-0.336,0.053-0.743,0.089-1.273,0.089c-0.478,0-0.92-0.036-1.256-0.089v-11.955
			c0.336-0.053,0.832-0.088,1.273-0.088c0.495,0,0.938,0.035,1.256,0.088V166.564z"/>
		<path style="fill:#B4A168;" d="M246.201,166.564h-7.48v-11.955h7.321c0.071,0.194,0.124,0.566,0.124,1.062
			c0,0.389-0.035,0.725-0.124,1.096h-4.792v2.582h4.05c0.07,0.195,0.124,0.549,0.124,1.044c0,0.389-0.036,0.707-0.124,1.078h-4.05
			v2.937h4.951c0.071,0.194,0.124,0.565,0.124,1.061C246.325,165.857,246.29,166.193,246.201,166.564z"/>
		<path style="fill:#B4A168;" d="M251.224,166.741c-1.291,0-2.705-0.247-3.714-0.707c-0.053-0.248-0.088-0.566-0.088-0.85
			c0-0.424,0.053-0.831,0.177-1.309c1.043,0.425,2.423,0.69,3.502,0.69c1.255,0,1.927-0.584,1.927-1.38
			c0-0.884-0.565-1.256-2.281-1.786c-1.909-0.584-3.307-1.503-3.307-3.555c0-2.192,1.893-3.413,4.386-3.413
			c1.149,0,2.175,0.177,2.865,0.406c0.053,0.195,0.088,0.514,0.088,0.974c0,0.336-0.035,0.849-0.105,1.131
			c-0.885-0.229-1.893-0.354-2.706-0.354c-1.326,0-2.052,0.442-2.052,1.149c0,0.832,0.654,1.168,2.246,1.663
			c1.91,0.601,3.325,1.503,3.325,3.625C255.486,165.344,253.664,166.741,251.224,166.741z"/>
	</g>
	<g>
		<path style="fill:#B4A168;" d="M159.937,172.937h-4.704v2.582h3.961c0.071,0.195,0.124,0.549,0.124,1.044
			c0,0.389-0.035,0.707-0.124,1.078h-3.961v5.094c-0.336,0.053-0.726,0.089-1.256,0.089c-0.478,0-0.938-0.036-1.273-0.089v-11.955
			h7.233c0.07,0.194,0.124,0.566,0.124,1.062C160.061,172.229,160.024,172.565,159.937,172.937z"/>
		<path style="fill:#B4A168;" d="M165.613,182.911c-3.271,0-5.005-2.264-5.005-6.154s1.733-6.154,5.005-6.154
			s5.005,2.264,5.005,6.154S168.885,182.911,165.613,182.911z M165.613,172.777c-1.521,0-2.388,1.168-2.388,3.979
			s0.866,3.979,2.388,3.979c1.521,0,2.388-1.168,2.388-3.979S167.134,172.777,165.613,172.777z"/>
		<path style="fill:#B4A168;" d="M181.193,182.717c-0.46,0.07-0.938,0.106-1.486,0.106c-0.495,0-0.99-0.019-1.326-0.089
			l-2.423-4.298h-1.043v4.298c-0.442,0.07-0.813,0.089-1.291,0.089c-0.425,0-0.796-0.019-1.238-0.089v-11.955
			c0.813-0.053,2.512-0.088,3.537-0.088c3.007,0,4.51,1.061,4.51,3.819c0,1.468-0.884,2.936-2.122,3.467L181.193,182.717z
			 M176.082,172.76c-0.389,0-0.866,0.018-1.167,0.036v3.536h0.884c1.45,0,2.087-0.53,2.087-1.839S177.249,172.76,176.082,172.76z"/>
		<path style="fill:#B4A168;" d="M195.871,182.734c-0.177,0.035-0.601,0.07-0.901,0.07s-0.602-0.018-0.885-0.07l-5.5-7.657v7.657
			c-0.141,0.035-0.672,0.089-1.167,0.089c-0.406,0-0.884-0.054-1.132-0.089v-11.955c0.283-0.053,0.619-0.07,0.938-0.07
			c0.336,0,0.689,0.035,0.955,0.07l5.394,7.517v-7.517c0.354-0.053,0.813-0.088,1.149-0.088s0.832,0.035,1.149,0.088V182.734z"/>
		<path style="fill:#B4A168;" d="M207.207,178.189c0,3.042-1.167,4.722-4.562,4.722c-3.431,0-4.51-1.68-4.51-4.722v-7.41
			c0.354-0.053,0.813-0.088,1.238-0.088c0.495,0,0.937,0.035,1.291,0.088v7.587c0,1.627,0.459,2.547,1.998,2.547
			c1.538,0,2.069-0.92,2.069-2.547v-7.587c0.318-0.053,0.849-0.088,1.255-0.088c0.39,0,0.92,0.035,1.221,0.088V178.189z"/>
		<path style="fill:#B4A168;" d="M218.278,182.717c-0.46,0.07-0.938,0.106-1.486,0.106c-0.495,0-0.99-0.019-1.326-0.089
			l-2.423-4.298H212v4.298c-0.442,0.07-0.813,0.089-1.291,0.089c-0.425,0-0.796-0.019-1.238-0.089v-11.955
			c0.813-0.053,2.512-0.088,3.537-0.088c3.007,0,4.51,1.061,4.51,3.819c0,1.468-0.885,2.936-2.122,3.467L218.278,182.717z
			 M213.167,172.76c-0.389,0-0.866,0.018-1.167,0.036v3.536h0.884c1.45,0,2.087-0.53,2.087-1.839S214.334,172.76,213.167,172.76z"/>
		<path style="fill:#B4A168;" d="M222.981,182.911c-1.291,0-2.705-0.247-3.714-0.707c-0.053-0.248-0.088-0.566-0.088-0.85
			c0-0.424,0.053-0.831,0.177-1.309c1.043,0.425,2.423,0.69,3.502,0.69c1.255,0,1.927-0.584,1.927-1.38
			c0-0.884-0.565-1.256-2.281-1.786c-1.909-0.584-3.307-1.503-3.307-3.555c0-2.192,1.893-3.413,4.386-3.413
			c1.149,0,2.175,0.177,2.865,0.406c0.053,0.195,0.088,0.514,0.088,0.974c0,0.336-0.035,0.849-0.105,1.131
			c-0.885-0.229-1.893-0.354-2.706-0.354c-1.326,0-2.052,0.442-2.052,1.149c0,0.832,0.654,1.168,2.246,1.663
			c1.91,0.601,3.325,1.503,3.325,3.625C227.244,181.514,225.422,182.911,222.981,182.911z"/>
		<path style="fill:#B4A168;" d="M231.506,182.734c-0.336,0.053-0.743,0.089-1.273,0.089c-0.478,0-0.92-0.036-1.256-0.089v-11.955
			c0.336-0.053,0.832-0.088,1.273-0.088c0.495,0,0.938,0.035,1.256,0.088V182.734z"/>
		<path style="fill:#B4A168;" d="M243.425,182.734c-0.177,0.035-0.601,0.07-0.901,0.07s-0.602-0.018-0.885-0.07l-5.5-7.657v7.657
			c-0.141,0.035-0.672,0.089-1.167,0.089c-0.406,0-0.884-0.054-1.132-0.089v-11.955c0.283-0.053,0.619-0.07,0.938-0.07
			c0.336,0,0.689,0.035,0.955,0.07l5.394,7.517v-7.517c0.354-0.053,0.813-0.088,1.149-0.088s0.832,0.035,1.149,0.088V182.734z"/>
		<path style="fill:#B4A168;" d="M254.743,182.274c-0.92,0.407-2.423,0.637-3.82,0.637c-3.979,0-5.729-2.547-5.729-6.03
			c0-3.644,2.157-6.278,5.995-6.278c1.097,0,2.352,0.229,3.095,0.548c0.053,0.283,0.089,0.708,0.089,0.902
			c0,0.389-0.071,0.813-0.142,1.079c-0.761-0.248-1.857-0.407-2.865-0.407c-2.547,0-3.555,1.857-3.555,4.121
			c0,2.404,1.062,3.943,3.201,3.943c0.478,0,0.938-0.035,1.202-0.106v-3.819c0.336-0.054,0.796-0.089,1.238-0.089
			c0.495,0,0.973,0.035,1.291,0.089V182.274z"/>
	</g>
	<g>
		<path style="fill:#1A2A4F;" d="M174.462,194.846c-1.229-1.146-1.888-2.757-1.888-4.38c0-1.622,0.658-3.181,1.888-4.326
			c0.244,0.031,0.403,0.148,0.541,0.339c-1.039,1.23-1.432,2.619-1.432,4.02c0,1.421,0.393,2.778,1.432,4.009
			C174.865,194.697,174.706,194.814,174.462,194.846z"/>
		<path style="fill:#1A2A4F;" d="M181.294,194.136c-0.074,0.286-0.308,0.583-0.51,0.764l-1.813-1.188
			c-0.18,0.032-0.382,0.054-0.583,0.054c-1.739,0-2.842-1.135-2.842-3.681c0-2.481,1.124-3.701,2.863-3.701s2.82,1.22,2.82,3.701
			c0,1.623-0.456,2.684-1.24,3.225L181.294,194.136z M178.398,187.264c-1.082,0-1.739,0.731-1.739,2.8
			c0,2.036,0.646,2.82,1.729,2.82s1.729-0.784,1.729-2.82C180.116,187.995,179.48,187.264,178.398,187.264z"/>
		<path style="fill:#1A2A4F;" d="M184.087,193.765c-0.584,0-1.517-0.128-2.036-0.403c-0.032-0.148-0.054-0.286-0.054-0.435
			c0-0.159,0.011-0.318,0.054-0.467c0.498,0.233,1.378,0.435,1.982,0.435c0.881,0,1.475-0.339,1.475-1.071
			c0-0.668-0.308-0.996-1.167-1.314l-0.541-0.202c-1.07-0.402-1.729-0.985-1.729-1.972c0-1.326,1.124-1.952,2.407-1.952
			c0.562,0,1.104,0.064,1.602,0.191c0.032,0.127,0.053,0.265,0.053,0.403c0,0.148-0.021,0.297-0.053,0.445
			c-0.52-0.106-1.008-0.17-1.537-0.17c-0.722,0-1.4,0.286-1.4,1.05c0,0.541,0.297,0.869,1.135,1.188l0.498,0.191
			c1.093,0.402,1.75,0.912,1.75,2.036C186.525,193.096,185.444,193.765,184.087,193.765z"/>
		<path style="fill:#1A2A4F;" d="M194.44,193.658c-0.212,0.032-0.424,0.053-0.636,0.053c-0.202,0-0.371-0.011-0.573-0.053
			l-1.569-2.757h-0.934v2.757c-0.18,0.032-0.36,0.053-0.54,0.053c-0.17,0-0.351-0.021-0.521-0.053v-7.169
			c0.521-0.032,1.146-0.053,1.75-0.053c1.495,0,2.694,0.456,2.694,2.174c0,0.943-0.521,1.771-1.39,2.089L194.44,193.658z
			 M191.535,187.264c-0.244,0-0.626,0-0.807,0.011v2.789h0.722c0.997,0,1.591-0.445,1.591-1.453
			C193.041,187.635,192.479,187.264,191.535,187.264z"/>
		<path style="fill:#1A2A4F;" d="M199.279,191.961h-2.8l-0.551,1.697c-0.139,0.021-0.361,0.053-0.573,0.053
			c-0.148,0-0.36-0.021-0.498-0.053l2.471-7.169c0.127-0.032,0.393-0.053,0.53-0.053c0.148,0,0.393,0.031,0.487,0.053l2.651,7.169
			c-0.095,0.021-0.35,0.053-0.551,0.053c-0.159,0-0.414-0.011-0.573-0.053L199.279,191.961z M196.756,191.092h2.216l-0.849-2.439
			c-0.138-0.402-0.223-0.731-0.275-1.018h-0.011c-0.053,0.286-0.159,0.626-0.286,1.028L196.756,191.092z"/>
		<path style="fill:#1A2A4F;" d="M207.173,193.658c-0.085,0.032-0.265,0.042-0.402,0.042c-0.128,0-0.255-0.01-0.372-0.042
			l-3.774-5.355v5.355c-0.096,0.032-0.351,0.053-0.51,0.053c-0.127,0-0.328-0.011-0.467-0.053v-7.169
			c0.085-0.021,0.308-0.042,0.414-0.042c0.138,0,0.318,0.01,0.424,0.042l3.712,5.271v-5.271c0.117-0.032,0.318-0.053,0.456-0.053
			c0.127,0,0.414,0.021,0.52,0.053V193.658z"/>
		<path style="fill:#1A2A4F;" d="M212.277,188.271l-1.347,1.422l2.704,3.966c-0.223,0.042-0.382,0.053-0.604,0.053
			c-0.201,0-0.413-0.021-0.615-0.053l-2.205-3.224l-0.584,0.625v2.599c-0.148,0.032-0.36,0.053-0.54,0.053
			c-0.159,0-0.361-0.021-0.521-0.053v-7.169c0.159-0.032,0.361-0.053,0.521-0.053c0.18,0,0.392,0.021,0.54,0.053v3.277l1.867-1.994
			c0.402-0.435,0.731-0.923,0.784-1.283c0.159-0.032,0.351-0.053,0.509-0.053c0.181,0,0.403,0.021,0.552,0.053
			C213.189,187.136,212.84,187.677,212.277,188.271z"/>
		<path style="fill:#1A2A4F;" d="M215.559,193.658c-0.17,0.021-0.34,0.053-0.51,0.053c-0.19,0-0.36-0.021-0.551-0.053v-7.169
			c0.18-0.032,0.35-0.053,0.541-0.053c0.18,0,0.35,0.021,0.52,0.053V193.658z"/>
		<path style="fill:#1A2A4F;" d="M222.516,193.658c-0.085,0.032-0.265,0.042-0.402,0.042c-0.128,0-0.255-0.01-0.372-0.042
			l-3.774-5.355v5.355c-0.096,0.032-0.351,0.053-0.51,0.053c-0.127,0-0.328-0.011-0.467-0.053v-7.169
			c0.085-0.021,0.308-0.042,0.414-0.042c0.138,0,0.318,0.01,0.424,0.042l3.712,5.271v-5.271c0.117-0.032,0.318-0.053,0.456-0.053
			c0.127,0,0.414,0.021,0.52,0.053V193.658z"/>
		<path style="fill:#1A2A4F;" d="M228.999,193.276c-0.572,0.275-1.336,0.488-2.143,0.488c-2.237,0-3.276-1.475-3.276-3.616
			c0-1.252,0.435-2.334,1.23-3.013c0.562-0.477,1.336-0.753,2.227-0.753c0.657,0,1.315,0.139,1.718,0.318
			c0.043,0.138,0.053,0.266,0.053,0.414s-0.01,0.275-0.053,0.413c-0.467-0.138-1.135-0.243-1.633-0.243
			c-0.7,0-1.252,0.223-1.634,0.583c-0.551,0.52-0.795,1.347-0.795,2.259c0,1.75,0.764,2.726,2.27,2.726
			c0.382,0,0.753-0.074,0.976-0.17v-2.333c0.17-0.021,0.329-0.053,0.498-0.053c0.191,0,0.371,0.021,0.562,0.053V193.276z"/>
		<path style="fill:#1A2A4F;" d="M232.079,193.765c-0.584,0-1.517-0.128-2.036-0.403c-0.032-0.148-0.054-0.286-0.054-0.435
			c0-0.159,0.011-0.318,0.054-0.467c0.498,0.233,1.378,0.435,1.982,0.435c0.881,0,1.475-0.339,1.475-1.071
			c0-0.668-0.308-0.996-1.167-1.314l-0.541-0.202c-1.07-0.402-1.729-0.985-1.729-1.972c0-1.326,1.124-1.952,2.407-1.952
			c0.562,0,1.104,0.064,1.602,0.191c0.032,0.127,0.053,0.265,0.053,0.403c0,0.148-0.021,0.297-0.053,0.445
			c-0.52-0.106-1.008-0.17-1.537-0.17c-0.722,0-1.4,0.286-1.4,1.05c0,0.541,0.297,0.869,1.135,1.188l0.498,0.191
			c1.093,0.402,1.75,0.912,1.75,2.036C234.518,193.096,233.437,193.765,232.079,193.765z"/>
	</g>
	<g>
		<path style="fill:#1A2A4F;" d="M177.423,204.193c-0.382,0.424-0.795,0.87-1.24,1.315h3.001c0.031,0.116,0.053,0.339,0.053,0.466
			c0,0.117-0.011,0.298-0.053,0.414h-4.157c-0.074-0.201-0.127-0.393-0.127-0.604c0-0.085,0.01-0.181,0.021-0.265
			c0.562-0.562,1.198-1.23,1.739-1.835c0.997-1.113,1.527-1.761,1.527-2.609c0-0.763-0.509-1.145-1.188-1.145
			c-0.594,0-1.241,0.18-1.729,0.435c-0.032-0.148-0.054-0.297-0.054-0.445c0-0.106,0.021-0.266,0.054-0.36
			c0.487-0.266,1.166-0.446,1.888-0.446c1.188,0,2.12,0.711,2.12,1.878C179.278,202.072,178.632,202.847,177.423,204.193z"/>
		<path style="fill:#1A2A4F;" d="M182.696,206.495c-1.559,0-2.375-1.209-2.375-3.69c0-2.45,0.816-3.691,2.375-3.691
			c1.56,0,2.376,1.209,2.376,3.691C185.072,205.286,184.256,206.495,182.696,206.495z M182.696,199.941
			c-1.018,0-1.262,1.188-1.262,2.853c0,1.675,0.255,2.874,1.262,2.874c1.039,0,1.262-1.199,1.262-2.874
			C183.958,201.118,183.715,199.941,182.696,199.941z"/>
		<path style="fill:#1A2A4F;" d="M189.476,206.389c-0.17,0.032-0.35,0.053-0.53,0.053c-0.18,0-0.36-0.021-0.53-0.053v-6.023
			l-1.792,1.156c-0.201-0.191-0.382-0.499-0.445-0.764l2.471-1.538c0.117-0.032,0.255-0.053,0.393-0.053
			c0.148,0,0.297,0.021,0.435,0.053V206.389z"/>
		<path style="fill:#1A2A4F;" d="M193.807,206.495c-1.909,0-2.397-1.527-2.397-3.192c0-2.015,0.785-4.189,3.161-4.189
			c0.265,0,0.625,0.054,0.784,0.106c0.032,0.085,0.053,0.255,0.053,0.34c0,0.116-0.021,0.307-0.053,0.424
			c-0.201-0.053-0.487-0.085-0.742-0.085c-1.315,0-1.898,1.028-2.047,2.534c0.393-0.36,0.934-0.54,1.484-0.54
			c1.326,0,1.994,0.88,1.994,2.142C196.044,205.445,195.248,206.495,193.807,206.495z M193.881,202.677
			c-0.52,0-1.029,0.255-1.357,0.615c0,0.085-0.011,0.201-0.011,0.286c0.011,1.039,0.201,2.132,1.304,2.132
			c0.87,0,1.125-0.838,1.125-1.591C194.941,203.377,194.719,202.677,193.881,202.677z"/>
		<path style="fill:#1A2A4F;" d="M203.334,205.636c-0.615,0.541-1.315,0.859-2.217,0.859c-1.209,0-2.27-0.584-2.27-1.92
			c0-0.986,0.572-1.612,1.379-2.1c-0.478-0.467-0.785-1.019-0.785-1.676c0-1.071,0.816-1.687,1.813-1.687
			c0.923,0,1.729,0.521,1.729,1.464c0,0.954-0.816,1.549-1.517,1.973l1.888,1.93c0.414-0.572,0.594-1.262,0.615-2.025
			c0.117-0.031,0.255-0.053,0.393-0.053c0.127,0,0.275,0.021,0.393,0.063c-0.011,0.859-0.266,1.846-0.849,2.577
			c0.467,0.467,0.943,0.742,1.325,0.774c0.043,0.116,0.064,0.254,0.064,0.371c0,0.105-0.021,0.243-0.064,0.36
			C204.521,206.516,203.917,206.208,203.334,205.636z M202.793,205.084l-2.058-2.089c-0.583,0.35-0.912,0.795-0.912,1.421
			c0,0.88,0.647,1.294,1.421,1.294C201.849,205.71,202.358,205.455,202.793,205.084z M201.255,199.813
			c-0.572,0-0.912,0.371-0.912,0.944c0,0.424,0.181,0.869,0.615,1.283c0.626-0.382,1.135-0.817,1.135-1.422
			C202.093,200.143,201.785,199.813,201.255,199.813z"/>
		<path style="fill:#1A2A4F;" d="M210.411,204.193c-0.382,0.424-0.795,0.87-1.24,1.315h3.001c0.031,0.116,0.053,0.339,0.053,0.466
			c0,0.117-0.011,0.298-0.053,0.414h-4.157c-0.074-0.201-0.127-0.393-0.127-0.604c0-0.085,0.01-0.181,0.021-0.265
			c0.562-0.562,1.198-1.23,1.739-1.835c0.997-1.113,1.527-1.761,1.527-2.609c0-0.763-0.509-1.145-1.188-1.145
			c-0.594,0-1.241,0.18-1.729,0.435c-0.032-0.148-0.054-0.297-0.054-0.445c0-0.106,0.021-0.266,0.054-0.36
			c0.487-0.266,1.166-0.446,1.888-0.446c1.188,0,2.12,0.711,2.12,1.878C212.267,202.072,211.62,202.847,210.411,204.193z"/>
		<path style="fill:#1A2A4F;" d="M215.675,206.495c-1.559,0-2.375-1.209-2.375-3.69c0-2.45,0.816-3.691,2.375-3.691
			c1.56,0,2.376,1.209,2.376,3.691C218.051,205.286,217.234,206.495,215.675,206.495z M215.675,199.941
			c-1.018,0-1.262,1.188-1.262,2.853c0,1.675,0.255,2.874,1.262,2.874c1.039,0,1.262-1.199,1.262-2.874
			C216.937,201.118,216.693,199.941,215.675,199.941z"/>
		<path style="fill:#1A2A4F;" d="M222.465,206.389c-0.17,0.032-0.35,0.053-0.53,0.053c-0.18,0-0.36-0.021-0.53-0.053v-6.023
			l-1.792,1.156c-0.201-0.191-0.382-0.499-0.445-0.764l2.471-1.538c0.117-0.032,0.255-0.053,0.393-0.053
			c0.148,0,0.297,0.021,0.435,0.053V206.389z"/>
		<path style="fill:#1A2A4F;" d="M228.969,200.016l-2.938,6.373c-0.17,0.032-0.371,0.053-0.562,0.053
			c-0.159,0-0.371-0.021-0.541-0.053l2.991-6.299h-3.457c-0.032-0.139-0.054-0.308-0.054-0.467c0-0.17,0.021-0.276,0.054-0.403
			h4.518c0.031,0.127,0.042,0.223,0.042,0.403C229.021,199.761,228.99,199.973,228.969,200.016z"/>
		<path style="fill:#1A2A4F;" d="M230.435,207.576c-0.244-0.031-0.402-0.148-0.541-0.339c1.04-1.23,1.432-2.62,1.432-4.02
			c0-1.421-0.392-2.778-1.432-4.009c0.139-0.19,0.318-0.308,0.562-0.339c1.23,1.146,1.866,2.757,1.866,4.38
			C232.322,204.872,231.665,206.431,230.435,207.576z"/>
	</g>
</g>
</svg>
