<?xml version="1.0" encoding="utf-8"?>
<!-- Generator: Adobe Illustrator 16.0.0, SVG Export Plug-In . SVG Version: 6.00 Build 0)  -->
<!DOCTYPE svg PUBLIC "-//W3C//DTD SVG 1.0//EN" "http://www.w3.org/TR/2001/REC-SVG-20010904/DTD/svg10.dtd">
<svg version="1.0" xmlns="http://www.w3.org/2000/svg" xmlns:xlink="http://www.w3.org/1999/xlink" x="0px" y="0px" width="300px"
	 height="300px" viewBox="0 0 300 300" style="enable-background:new 0 0 300 300;" xml:space="preserve">
<g id="Layer_1">
	<g>
		<defs>
			<rect id="SVGID_1_" x="-450" y="-473" width="1200" height="1246"/>
		</defs>
		<clipPath id="SVGID_2_">
			<use xlink:href="#SVGID_1_"  style="overflow:visible;"/>
		</clipPath>
		
			<line style="clip-path:url(#SVGID_2_);fill:none;stroke:#84719A;stroke-width:1.65;stroke-dasharray:4.975,3.325;" x1="557.562" y1="-430.362" x2="557.562" y2="-349.023"/>
		
			<line style="clip-path:url(#SVGID_2_);fill:none;stroke:#84719A;stroke-width:1.65;stroke-dasharray:4.854,3.203;" x1="566.2" y1="-341.865" x2="701.57" y2="-341.865"/>
		
			<line style="clip-path:url(#SVGID_2_);fill:none;stroke:#84719A;stroke-width:1.65;stroke-dasharray:4.839,3.188;" x1="708.606" y1="-350.481" x2="708.606" y2="-429.153"/>
		
			<line style="clip-path:url(#SVGID_2_);fill:none;stroke:#84719A;stroke-width:1.65;stroke-dasharray:4.937,3.287;" x1="699.843" y1="-436.175" x2="561.674" y2="-436.175"/>
		<path style="clip-path:url(#SVGID_2_);fill:none;stroke:#84719A;stroke-width:1.65;" d="M560.03-436.174h-2.469v2.487
			 M708.606-430.747v-2.419c0,0,0-3.008-3.008-3.008h-2.469 M703.172-341.865h2.427c0,0,3.008,0,3.008-3.008v-2.42 M557.562-347.361
			v2.488c0,0,0,3.008,3.008,3.008h2.427"/>
		
			<line style="clip-path:url(#SVGID_2_);fill:none;stroke:#84719A;stroke-width:1.65;stroke-dasharray:5.112,3.462;" x1="694.643" y1="-430.157" x2="694.643" y2="-346.152"/>
		
			<line style="clip-path:url(#SVGID_2_);fill:none;stroke:#84719A;stroke-width:1.65;stroke-dasharray:4.839,3.188;" x1="708.606" y1="-350.481" x2="708.606" y2="-429.153"/>
		<path style="clip-path:url(#SVGID_2_);fill:none;stroke:#84719A;stroke-width:1.65;" d="M697.793-436.174h-3.15v2.556
			 M708.606-430.747v-2.419c0,0,0-3.008-3.008-3.008h-3.152 M702.446-341.865h3.152c0,0,3.008,0,3.008-3.008v-2.419
			 M694.643-344.421v2.556h3.15"/>
	</g>
	<text transform="matrix(1 0 0 1 556.9873 -331.2051)"><tspan x="0" y="0" style="fill:#FFFFFF; font-family:'FSMatthew-Bold'; font-size:8.2352;">WI</tspan><tspan x="9.61" y="0" style="fill:#FFFFFF; font-family:'FSMatthew-Bold'; font-size:8.2352;">T</tspan><tspan x="14.032" y="0" style="fill:#FFFFFF; font-family:'FSMatthew-Bold'; font-size:8.2352;">H 100% OF R</tspan><tspan x="59.268" y="0" style="fill:#FFFFFF; font-family:'FSMatthew-Bold'; font-size:8.2352;">E</tspan><tspan x="63.657" y="0" style="fill:#FFFFFF; font-family:'FSMatthew-Bold'; font-size:8.2352;">S</tspan><tspan x="68.03" y="0" style="fill:#FFFFFF; font-family:'FSMatthew-Bold'; font-size:8.2352;">E</tspan><tspan x="72.551" y="0" style="fill:#FFFFFF; font-family:'FSMatthew-Bold'; font-size:8.2352;">A</tspan><tspan x="77.879" y="0" style="fill:#FFFFFF; font-family:'FSMatthew-Bold'; font-size:8.2352;">R</tspan><tspan x="82.639" y="0" style="fill:#FFFFFF; font-family:'FSMatthew-Bold'; font-size:8.2352;">C</tspan><tspan x="87.341" y="0" style="fill:#FFFFFF; font-family:'FSMatthew-Bold'; font-size:8.2352;">H I</tspan><tspan x="96.943" y="0" style="fill:#FFFFFF; font-family:'FSMatthew-Bold'; font-size:8.2352;">M</tspan><tspan x="103.671" y="0" style="fill:#FFFFFF; font-family:'FSMatthew-Bold'; font-size:8.2352;">P</tspan><tspan x="107.904" y="0" style="fill:#FFFFFF; font-family:'FSMatthew-Bold'; font-size:8.2352;">A</tspan><tspan x="113.034" y="0" style="fill:#FFFFFF; font-family:'FSMatthew-Bold'; font-size:8.2352;">C</tspan><tspan x="117.959" y="0" style="fill:#FFFFFF; font-family:'FSMatthew-Bold'; font-size:8.2352;">T</tspan><tspan x="121.978" y="0" style="fill:#FFFFFF; font-family:'FSMatthew-Bold'; font-size:8.2352;"> </tspan><tspan x="123.757" y="0" style="fill:#FFFFFF; font-family:'FSMatthew-Bold'; font-size:8.2352;">R</tspan><tspan x="128.771" y="0" style="fill:#FFFFFF; font-family:'FSMatthew-Bold'; font-size:8.2352;">A</tspan><tspan x="134.1" y="0" style="fill:#FFFFFF; font-family:'FSMatthew-Bold'; font-size:8.2352;">NK</tspan><tspan x="144.69" y="0" style="fill:#FFFFFF; font-family:'FSMatthew-Bold'; font-size:8.2352;">E</tspan><tspan x="149.088" y="0" style="fill:#FFFFFF; font-family:'FSMatthew-Bold'; font-size:8.2352;">D </tspan></text>
	<text transform="matrix(1 0 0 1 562.9131 -323.6558)"><tspan x="0" y="0" style="fill:#FFFFFF; font-family:'FSMatthew-Bold'; font-size:8.2352;">W</tspan><tspan x="7.189" y="0" style="fill:#FFFFFF; font-family:'FSMatthew-Bold'; font-size:8.2352;">OR</tspan><tspan x="17.359" y="0" style="fill:#FFFFFF; font-family:'FSMatthew-Bold'; font-size:8.2352;">L</tspan><tspan x="21.608" y="0" style="fill:#FFFFFF; font-family:'FSMatthew-Bold'; font-size:8.2352;">D O</tspan><tspan x="34.061" y="0" style="fill:#FFFFFF; font-family:'FSMatthew-Bold'; font-size:8.2352;">R</tspan><tspan x="38.911" y="0" style="fill:#FFFFFF; font-family:'FSMatthew-Bold'; font-size:8.2352;"> </tspan><tspan x="40.689" y="0" style="fill:#FFFFFF; font-family:'FSMatthew-Bold'; font-size:8.2352;">I</tspan><tspan x="43.053" y="0" style="fill:#FFFFFF; font-family:'FSMatthew-Bold'; font-size:8.2352;">NT</tspan><tspan x="53.108" y="0" style="fill:#FFFFFF; font-family:'FSMatthew-Bold'; font-size:8.2352;">E</tspan><tspan x="57.497" y="0" style="fill:#FFFFFF; font-family:'FSMatthew-Bold'; font-size:8.2352;">RN</tspan><tspan x="67.98" y="0" style="fill:#FFFFFF; font-family:'FSMatthew-Bold'; font-size:8.2352;">A</tspan><tspan x="72.716" y="0" style="fill:#FFFFFF; font-family:'FSMatthew-Bold'; font-size:8.2352;">T</tspan><tspan x="77.146" y="0" style="fill:#FFFFFF; font-family:'FSMatthew-Bold'; font-size:8.2352;">I</tspan><tspan x="79.51" y="0" style="fill:#FFFFFF; font-family:'FSMatthew-Bold'; font-size:8.2352;">ONAL</tspan><tspan x="100.031" y="0" style="fill:#FFFFFF; font-family:'FSMatthew-Bold'; font-size:8.2352;">L</tspan><tspan x="103.522" y="0" style="fill:#FFFFFF; font-family:'FSMatthew-Bold'; font-size:8.2352;">Y L</tspan><tspan x="114.171" y="0" style="fill:#FFFFFF; font-family:'FSMatthew-Bold'; font-size:8.2352;">E</tspan><tspan x="118.691" y="0" style="fill:#FFFFFF; font-family:'FSMatthew-Bold'; font-size:8.2352;">ADIN</tspan><tspan x="137.377" y="0" style="fill:#FFFFFF; font-family:'FSMatthew-Bold'; font-size:8.2352;">G </tspan></text>
	<text transform="matrix(-6.123234e-17 -1 1 -6.123234e-17 704.7324 -370.8516)"><tspan x="0" y="0" style="fill:#B4A168; font-family:'FSMatthew'; font-size:7.715;">(</tspan><tspan x="2.615" y="0" style="fill:#B4A168; font-family:'FSMatthew'; font-size:7.715;">R</tspan><tspan x="7.013" y="0" style="fill:#B4A168; font-family:'FSMatthew'; font-size:7.715;">EF</tspan><tspan x="14.943" y="0" style="fill:#B4A168; font-family:'FSMatthew'; font-size:7.715;"> </tspan><tspan x="16.757" y="0" style="fill:#B4A168; font-family:'FSMatthew'; font-size:7.715;">2014</tspan><tspan x="33.791" y="0" style="fill:#B4A168; font-family:'FSMatthew'; font-size:7.715;">)</tspan></text>
	<text transform="matrix(1.2526 0 0 1 633.3867 -368.251)"><tspan x="0" y="0" style="fill:#B4A168; font-family:'FSMatthew-Bold'; font-size:38.1015; letter-spacing:-0.798;">2</tspan><tspan x="19.394" y="0" style="fill:#B4A168; font-family:'FSMatthew-Bold'; font-size:38.1015;">0</tspan></text>
	<text transform="matrix(1.2526 0 0 1 632.6592 -396.4575)"><tspan x="0" y="0" style="fill:#FFFFFF; font-family:'FSMatthew-Bold'; font-size:24.6261; letter-spacing:-0.798;">T</tspan><tspan x="12.141" y="0" style="fill:#FFFFFF; font-family:'FSMatthew-Bold'; font-size:24.6261; letter-spacing:-0.798;">O</tspan><tspan x="27.286" y="0" style="fill:#FFFFFF; font-family:'FSMatthew-Bold'; font-size:24.6261;">P</tspan></text>
	<text transform="matrix(1 0 0 1 631.7529 -416.0615)"><tspan x="0" y="0" style="fill:#FFFFFF; font-family:'FSMatthew-Bold'; font-size:8.9835;">E</tspan><tspan x="4.698" y="0" style="fill:#FFFFFF; font-family:'FSMatthew-Bold'; font-size:8.9835;">N</tspan><tspan x="10.744" y="0" style="fill:#FFFFFF; font-family:'FSMatthew-Bold'; font-size:8.9835;">GI</tspan><tspan x="18.838" y="0" style="fill:#FFFFFF; font-family:'FSMatthew-Bold'; font-size:8.9835;">N</tspan><tspan x="24.884" y="0" style="fill:#FFFFFF; font-family:'FSMatthew-Bold'; font-size:8.9835;">E</tspan><tspan x="29.475" y="0" style="fill:#FFFFFF; font-family:'FSMatthew-Bold'; font-size:8.9835;">E</tspan><tspan x="34.182" y="0" style="fill:#FFFFFF; font-family:'FSMatthew-Bold'; font-size:8.9835;">RI</tspan><tspan x="41.872" y="0" style="fill:#FFFFFF; font-family:'FSMatthew-Bold'; font-size:8.9835;">N</tspan><tspan x="47.917" y="0" style="fill:#FFFFFF; font-family:'FSMatthew-Bold'; font-size:8.9835;">G</tspan></text>
	<text transform="matrix(1 0 0 1 633.4951 -357.0068)"><tspan x="0" y="0" style="fill:#FFFFFF; font-family:'FSMatthew-Bold'; font-size:11.7773;">IN</tspan><tspan x="11.2" y="0" style="fill:#FFFFFF; font-family:'FSMatthew-Bold'; font-size:11.7773;"> </tspan><tspan x="13.037" y="0" style="fill:#FFFFFF; font-family:'FSMatthew-Bold'; font-size:11.7773;">T</tspan><tspan x="19.244" y="0" style="fill:#FFFFFF; font-family:'FSMatthew-Bold'; font-size:11.7773;">HE </tspan><tspan x="35.52" y="0" style="fill:#FFFFFF; font-family:'FSMatthew-Bold'; font-size:11.7773;">U</tspan><tspan x="43.021" y="0" style="fill:#FFFFFF; font-family:'FSMatthew-Bold'; font-size:11.7773;">K</tspan></text>
	<g>
		<defs>
			<rect id="SVGID_3_" x="-450" y="-473" width="1200" height="1246"/>
		</defs>
		<clipPath id="SVGID_4_">
			<use xlink:href="#SVGID_3_"  style="overflow:visible;"/>
		</clipPath>
		<path style="clip-path:url(#SVGID_4_);fill:#B4A168;" d="M622.311-413.484c-1.336-2.205-1.899-2.872-4.278-4.184
			c1.442-0.155,2.665,0.17,3.452,1.126C622.5-415.308,622.311-413.484,622.311-413.484 M625.161-420.583
			c-3.826-3.836-15.589,7.107-31.533,23.05c-15.944,15.944-26.172,31.567-24.628,33.111c1.286,1.286,17.167-8.684,33.111-24.628
			C618.054-404.994,629.406-416.328,625.161-420.583"/>
		<path style="clip-path:url(#SVGID_4_);fill:#B4A168;" d="M574.261-365.908l6.304,7.45c1.391-1.39,1.652-3.549,0.636-5.232
			l-2.875-4.752C575.849-366.838,574.261-365.908,574.261-365.908"/>
		<path style="clip-path:url(#SVGID_4_);fill:#B4A168;" d="M570.416-369.929l-7.516-6.194c1.39-1.39,3.549-1.652,5.232-0.634
			l4.751,2.874C571.28-371.406,570.416-369.929,570.416-369.929"/>
		<path style="clip-path:url(#SVGID_4_);fill:#B4A168;" d="M562.967-376.125l7.438,6.129c0.156-0.264,0.999-1.681,2.417-3.872
			l-4.713-2.851c-0.66-0.399-1.416-0.61-2.186-0.61C564.809-377.329,563.761-376.902,562.967-376.125 M570.429-369.861l-0.041-0.033
			l-7.553-6.225l0.034-0.034c0.815-0.816,1.899-1.265,3.054-1.265c0.786,0,1.558,0.216,2.232,0.624l4.79,2.897l-0.024,0.039
			c-1.584,2.447-2.457,3.937-2.466,3.952L570.429-369.861z"/>
		<path style="clip-path:url(#SVGID_4_);fill:#B4A168;" d="M602.004-407.81l-34.348-6.386c-1.711-0.319-3.469,0.226-4.699,1.456
			l-1.727,1.727c-0.629,0.628-0.468,1.686,0.318,2.101l24.854,13.09l0.952,2.661L602.004-407.81z"/>
		<path style="clip-path:url(#SVGID_4_);fill:#B4A168;" d="M572.645-413.789c1.421-1.478,2.805-2.188,3.664-1.714
			c0.632,0.349,0.872,1.279,0.759,2.538L572.645-413.789z"/>
		<path style="clip-path:url(#SVGID_4_);fill:#B4A168;" d="M571.699-402.852c-1.478,1.594-2.936,2.379-3.826,1.886
			c-0.879-0.485-1.001-2.094-0.467-4.147L571.699-402.852z"/>
		<path style="clip-path:url(#SVGID_4_);fill:#B4A168;" d="M584.355-411.603c2.106-2.509,4.271-3.819,5.546-3.115
			c0.98,0.541,1.232,2.165,0.84,4.307L584.355-411.603z"/>
		<path style="clip-path:url(#SVGID_4_);fill:#B4A168;" d="M582.636-397.164c-1.312,1.01-2.511,1.397-3.335,0.942
			c-0.806-0.445-1.12-1.623-0.988-3.219L582.636-397.164z"/>
		<path style="clip-path:url(#SVGID_4_);fill:#B4A168;" d="M612.732-397.626l6.421,34.127c0.319,1.71-0.226,3.468-1.456,4.699
			l-1.727,1.726c-0.629,0.629-1.687,0.469-2.101-0.318l-13.09-24.853l-2.697-0.732L612.732-397.626z"/>
		<path style="clip-path:url(#SVGID_4_);fill:#B4A168;" d="M618.746-368.488c1.479-1.42,2.188-2.805,1.714-3.664
			c-0.349-0.631-1.278-0.872-2.538-0.759L618.746-368.488z"/>
		<path style="clip-path:url(#SVGID_4_);fill:#B4A168;" d="M607.809-367.542c-1.594,1.477-2.379,2.935-1.886,3.827
			c0.485,0.878,2.094,1,4.147,0.466L607.809-367.542z"/>
		<path style="clip-path:url(#SVGID_4_);fill:#B4A168;" d="M616.561-380.198c2.509-2.106,3.819-4.272,3.115-5.546
			c-0.541-0.981-2.165-1.233-4.308-0.84L616.561-380.198z"/>
		<path style="clip-path:url(#SVGID_4_);fill:#B4A168;" d="M602.121-378.479c-1.01,1.313-1.396,2.511-0.941,3.335
			c0.445,0.806,1.623,1.12,3.219,0.988L602.121-378.479z"/>
	</g>
	
		<line style="fill:none;stroke:#1A2A4F;stroke-width:1.65;stroke-dasharray:4.975,3.325;" x1="13.959" y1="58.658" x2="13.959" y2="205.049"/>
	
		<line style="fill:none;stroke:#1A2A4F;stroke-width:1.65;stroke-dasharray:4.854,3.203;" x1="29.507" y1="217.931" x2="273.139" y2="217.931"/>
	
		<line style="fill:none;stroke:#1A2A4F;stroke-width:1.65;stroke-dasharray:4.839,3.188;" x1="285.802" y1="202.426" x2="285.802" y2="60.834"/>
	
		<line style="fill:none;stroke:#1A2A4F;stroke-width:1.65;stroke-dasharray:4.937,3.287;" x1="270.029" y1="48.197" x2="21.36" y2="48.197"/>
	<path style="fill:none;stroke:#1A2A4F;stroke-width:1.65;" d="M18.402,48.199h-4.443v4.476 M285.802,57.966v-4.354
		c0,0,0-5.414-5.413-5.414h-4.443 M276.021,217.931h4.367c0,0,5.413,0,5.413-5.412v-4.356 M13.959,208.04v4.479
		c0,0,0,5.412,5.413,5.412h4.368"/>
	
		<line style="fill:none;stroke:#1A2A4F;stroke-width:1.65;stroke-dasharray:5.112,3.462;" x1="260.67" y1="59.027" x2="260.67" y2="210.215"/>
	
		<line style="fill:none;stroke:#1A2A4F;stroke-width:1.65;stroke-dasharray:4.839,3.188;" x1="285.802" y1="202.426" x2="285.802" y2="60.834"/>
	<path style="fill:none;stroke:#1A2A4F;stroke-width:1.65;" d="M266.341,48.199h-5.671v4.6 M285.802,57.966v-4.354
		c0,0,0-5.413-5.413-5.413h-5.674 M274.715,217.931h5.674c0,0,5.413,0,5.413-5.412v-4.356 M260.67,213.329v4.602h5.671"/>
</g>
<g id="Plane">
	<path style="fill:#B4A168;" d="M130.492,89.036c-2.405-3.969-3.419-5.169-7.701-7.531c2.596-0.279,4.797,0.306,6.213,2.026
		C130.833,85.752,130.492,89.036,130.492,89.036 M135.622,76.258c-6.886-6.903-28.056,12.792-56.752,41.484
		c-28.695,28.696-47.103,56.813-44.324,59.592c2.315,2.314,30.896-15.629,59.592-44.324
		C122.83,104.314,143.262,83.917,135.622,76.258"/>
	<path style="fill:#B4A168;" d="M44.014,174.66l11.345,13.41c2.503-2.503,2.974-6.39,1.145-9.417l-5.174-8.553
		C46.871,172.986,44.014,174.66,44.014,174.66"/>
	<path style="fill:#B4A168;" d="M37.094,167.424l-13.526-11.148c2.501-2.501,6.388-2.972,9.417-1.139l8.551,5.171
		C38.65,164.765,37.094,167.424,37.094,167.424"/>
	<path style="fill:#B4A168;" d="M23.688,156.272l13.385,11.03c0.281-0.475,1.798-3.026,4.35-6.969l-8.481-5.131
		c-1.188-0.719-2.549-1.099-3.934-1.099C27.002,154.104,25.117,154.873,23.688,156.272 M37.117,167.545l-0.074-0.06L23.45,156.282
		l0.062-0.062c1.468-1.468,3.418-2.275,5.496-2.275c1.414,0,2.803,0.389,4.018,1.121l8.621,5.215l-0.044,0.07
		c-2.85,4.404-4.422,7.085-4.438,7.113L37.117,167.545z"/>
	<path style="fill:#B4A168;" d="M93.944,99.247L32.127,87.753c-3.08-0.574-6.243,0.407-8.458,2.62l-3.107,3.108
		c-1.132,1.13-0.842,3.035,0.573,3.781l44.73,23.559l1.714,4.789L93.944,99.247z"/>
	<path style="fill:#B4A168;" d="M41.105,88.486c2.557-2.66,5.048-3.938,6.594-3.085c1.138,0.629,1.569,2.303,1.366,4.568
		L41.105,88.486z"/>
	<path style="fill:#B4A168;" d="M39.403,108.171c-2.659,2.869-5.283,4.282-6.886,3.395c-1.582-0.873-1.802-3.769-0.84-7.463
		L39.403,108.171z"/>
	<path style="fill:#B4A168;" d="M62.182,92.42c3.791-4.515,7.688-6.873,9.981-5.606c1.765,0.974,2.218,3.897,1.512,7.751
		L62.182,92.42z"/>
	<path style="fill:#B4A168;" d="M59.086,118.407c-2.362,1.819-4.519,2.515-6.002,1.696c-1.449-0.802-2.015-2.921-1.778-5.794
		L59.086,118.407z"/>
	<path style="fill:#B4A168;" d="M113.253,117.575l11.556,61.419c0.575,3.079-0.406,6.242-2.62,8.457l-3.107,3.108
		c-1.132,1.131-3.036,0.843-3.781-0.573l-23.558-44.729l-4.854-1.318L113.253,117.575z"/>
	<path style="fill:#B4A168;" d="M124.076,170.017c2.661-2.556,3.938-5.048,3.084-6.595c-0.627-1.136-2.301-1.568-4.568-1.365
		L124.076,170.017z"/>
	<path style="fill:#B4A168;" d="M104.391,171.719c-2.868,2.658-4.281,5.282-3.394,6.889c0.874,1.58,3.768,1.8,7.464,0.838
		L104.391,171.719z"/>
	<path style="fill:#B4A168;" d="M120.143,148.941c4.515-3.791,6.874-7.689,5.607-9.981c-0.974-1.766-3.896-2.22-7.753-1.513
		L120.143,148.941z"/>
	<path style="fill:#B4A168;" d="M94.155,152.034c-1.817,2.364-2.514,4.52-1.694,6.002c0.801,1.452,2.921,2.017,5.793,1.779
		L94.155,152.034z"/>
</g>
<g id="Text" style="display:none;">
	<text transform="matrix(1 0 0 1 12.9248 237.1152)" style="display:inline;"><tspan x="0" y="0" style="fill:#1A2A4F; font-family:'FSMatthew-Bold'; font-size:14.8213;">WI</tspan><tspan x="17.296" y="0" style="fill:#1A2A4F; font-family:'FSMatthew-Bold'; font-size:14.8213;">T</tspan><tspan x="25.255" y="0" style="fill:#1A2A4F; font-family:'FSMatthew-Bold'; font-size:14.8213;">H 100% OF R</tspan><tspan x="106.667" y="0" style="fill:#1A2A4F; font-family:'FSMatthew-Bold'; font-size:14.8213;">E</tspan><tspan x="114.567" y="0" style="fill:#1A2A4F; font-family:'FSMatthew-Bold'; font-size:14.8213;">S</tspan><tspan x="122.437" y="0" style="fill:#1A2A4F; font-family:'FSMatthew-Bold'; font-size:14.8213;">E</tspan><tspan x="130.574" y="0" style="fill:#1A2A4F; font-family:'FSMatthew-Bold'; font-size:14.8213;">A</tspan><tspan x="140.163" y="0" style="fill:#1A2A4F; font-family:'FSMatthew-Bold'; font-size:14.8213;">R</tspan><tspan x="148.729" y="0" style="fill:#1A2A4F; font-family:'FSMatthew-Bold'; font-size:14.8213;">C</tspan><tspan x="157.192" y="0" style="fill:#1A2A4F; font-family:'FSMatthew-Bold'; font-size:14.8213;">H I</tspan><tspan x="174.474" y="0" style="fill:#1A2A4F; font-family:'FSMatthew-Bold'; font-size:14.8213;">M</tspan><tspan x="186.582" y="0" style="fill:#1A2A4F; font-family:'FSMatthew-Bold'; font-size:14.8213;">P</tspan><tspan x="194.2" y="0" style="fill:#1A2A4F; font-family:'FSMatthew-Bold'; font-size:14.8213;">A</tspan><tspan x="203.434" y="0" style="fill:#1A2A4F; font-family:'FSMatthew-Bold'; font-size:14.8213;">C</tspan><tspan x="212.297" y="0" style="fill:#1A2A4F; font-family:'FSMatthew-Bold'; font-size:14.8213;">T</tspan><tspan x="219.529" y="0" style="fill:#1A2A4F; font-family:'FSMatthew-Bold'; font-size:14.8213;"> </tspan><tspan x="222.731" y="0" style="fill:#1A2A4F; font-family:'FSMatthew-Bold'; font-size:14.8213;">R</tspan><tspan x="231.757" y="0" style="fill:#1A2A4F; font-family:'FSMatthew-Bold'; font-size:14.8213;">A</tspan><tspan x="241.347" y="0" style="fill:#1A2A4F; font-family:'FSMatthew-Bold'; font-size:14.8213;">NK</tspan><tspan x="260.406" y="0" style="fill:#1A2A4F; font-family:'FSMatthew-Bold'; font-size:14.8213;">E</tspan><tspan x="268.321" y="0" style="fill:#1A2A4F; font-family:'FSMatthew-Bold'; font-size:14.8213;">D </tspan></text>
	<text transform="matrix(1 0 0 1 23.5898 250.7031)" style="display:inline;"><tspan x="0" y="0" style="fill:#1A2A4F; font-family:'FSMatthew-Bold'; font-size:14.8213;">W</tspan><tspan x="12.939" y="0" style="fill:#1A2A4F; font-family:'FSMatthew-Bold'; font-size:14.8213;">OR</tspan><tspan x="31.243" y="0" style="fill:#1A2A4F; font-family:'FSMatthew-Bold'; font-size:14.8213;">L</tspan><tspan x="38.891" y="0" style="fill:#1A2A4F; font-family:'FSMatthew-Bold'; font-size:14.8213;">D O</tspan><tspan x="61.3" y="0" style="fill:#1A2A4F; font-family:'FSMatthew-Bold'; font-size:14.8213;">R</tspan><tspan x="70.029" y="0" style="fill:#1A2A4F; font-family:'FSMatthew-Bold'; font-size:14.8213;"> </tspan><tspan x="73.231" y="0" style="fill:#1A2A4F; font-family:'FSMatthew-Bold'; font-size:14.8213;">I</tspan><tspan x="77.484" y="0" style="fill:#1A2A4F; font-family:'FSMatthew-Bold'; font-size:14.8213;">NT</tspan><tspan x="95.581" y="0" style="fill:#1A2A4F; font-family:'FSMatthew-Bold'; font-size:14.8213;">E</tspan><tspan x="103.48" y="0" style="fill:#1A2A4F; font-family:'FSMatthew-Bold'; font-size:14.8213;">RN</tspan><tspan x="122.348" y="0" style="fill:#1A2A4F; font-family:'FSMatthew-Bold'; font-size:14.8213; letter-spacing:-1;">A</tspan><tspan x="130.87" y="0" style="fill:#1A2A4F; font-family:'FSMatthew-Bold'; font-size:14.8213;">T</tspan><tspan x="138.844" y="0" style="fill:#1A2A4F; font-family:'FSMatthew-Bold'; font-size:14.8213;">I</tspan><tspan x="143.098" y="0" style="fill:#1A2A4F; font-family:'FSMatthew-Bold'; font-size:14.8213;">ONAL</tspan><tspan x="180.031" y="0" style="fill:#1A2A4F; font-family:'FSMatthew-Bold'; font-size:14.8213; letter-spacing:-1;">L</tspan><tspan x="186.315" y="0" style="fill:#1A2A4F; font-family:'FSMatthew-Bold'; font-size:14.8213;">Y L</tspan><tspan x="205.479" y="0" style="fill:#1A2A4F; font-family:'FSMatthew-Bold'; font-size:14.8213;">E</tspan><tspan x="213.615" y="0" style="fill:#1A2A4F; font-family:'FSMatthew-Bold'; font-size:14.8213;">ADIN</tspan><tspan x="247.244" y="0" style="fill:#1A2A4F; font-family:'FSMatthew-Bold'; font-size:14.8213;">G </tspan></text>
	<text transform="matrix(-6.123234e-17 -1 1 -6.123234e-17 278.8281 165.7617)" style="display:inline;"><tspan x="0" y="0" style="fill:#B4A168; font-family:'FSMatthew'; font-size:13.8851;">(</tspan><tspan x="4.707" y="0" style="fill:#B4A168; font-family:'FSMatthew'; font-size:13.8851;">R</tspan><tspan x="12.621" y="0" style="fill:#B4A168; font-family:'FSMatthew'; font-size:13.8851;">EF</tspan><tspan x="26.895" y="0" style="fill:#B4A168; font-family:'FSMatthew'; font-size:13.8851;"> </tspan><tspan x="30.158" y="0" style="fill:#B4A168; font-family:'FSMatthew'; font-size:13.8851;">2014</tspan><tspan x="60.815" y="0" style="fill:#B4A168; font-family:'FSMatthew'; font-size:13.8851;">)</tspan></text>
	<text transform="matrix(1.2526 0 0 1 150.4238 170.4424)" style="display:inline;"><tspan x="0" y="0" style="fill:#B4A168; font-family:'FSMatthew-Bold'; font-size:68.5731; letter-spacing:-2.395;">2</tspan><tspan x="34.903" y="0" style="fill:#B4A168; font-family:'FSMatthew-Bold'; font-size:68.5731;">0</tspan></text>
	<text transform="matrix(1.2526 0 0 1 149.1152 119.6777)" style="display:inline;"><tspan x="0" y="0" style="fill:#1A2A4F; font-family:'FSMatthew-Bold'; font-size:44.3208; letter-spacing:-1.597;">T</tspan><tspan x="21.85" y="0" style="fill:#1A2A4F; font-family:'FSMatthew-Bold'; font-size:44.3208; letter-spacing:-1.597;">O</tspan><tspan x="49.107" y="0" style="fill:#1A2A4F; font-family:'FSMatthew-Bold'; font-size:44.3208;">P</tspan></text>
	<text transform="matrix(1 0 0 1 147.4834 84.3955)" style="display:inline;"><tspan x="0" y="0" style="fill:#1A2A4F; font-family:'FSMatthew-Bold'; font-size:16.168;">E</tspan><tspan x="8.456" y="0" style="fill:#1A2A4F; font-family:'FSMatthew-Bold'; font-size:16.168;">N</tspan><tspan x="19.337" y="0" style="fill:#1A2A4F; font-family:'FSMatthew-Bold'; font-size:16.168;">GI</tspan><tspan x="33.904" y="0" style="fill:#1A2A4F; font-family:'FSMatthew-Bold'; font-size:16.168;">N</tspan><tspan x="44.785" y="0" style="fill:#1A2A4F; font-family:'FSMatthew-Bold'; font-size:16.168;">E</tspan><tspan x="53.047" y="0" style="fill:#1A2A4F; font-family:'FSMatthew-Bold'; font-size:16.168;">E</tspan><tspan x="61.519" y="0" style="fill:#1A2A4F; font-family:'FSMatthew-Bold'; font-size:16.168;">RI</tspan><tspan x="75.358" y="0" style="fill:#1A2A4F; font-family:'FSMatthew-Bold'; font-size:16.168;">N</tspan><tspan x="86.239" y="0" style="fill:#1A2A4F; font-family:'FSMatthew-Bold'; font-size:16.168;">G</tspan></text>
	<text transform="matrix(1 0 0 1 150.6191 190.6797)" style="display:inline;"><tspan x="0" y="0" style="fill:#1A2A4F; font-family:'FSMatthew-Bold'; font-size:21.1962;">IN</tspan><tspan x="20.157" y="0" style="fill:#1A2A4F; font-family:'FSMatthew-Bold'; font-size:21.1962; letter-spacing:-1;"> </tspan><tspan x="23.464" y="0" style="fill:#1A2A4F; font-family:'FSMatthew-Bold'; font-size:21.1962;">T</tspan><tspan x="34.634" y="0" style="fill:#1A2A4F; font-family:'FSMatthew-Bold'; font-size:21.1962;">HE </tspan><tspan x="63.927" y="0" style="fill:#1A2A4F; font-family:'FSMatthew-Bold'; font-size:21.1962;">U</tspan><tspan x="77.429" y="0" style="fill:#1A2A4F; font-family:'FSMatthew-Bold'; font-size:21.1962;">K</tspan></text>
</g>
<g id="Text_Flat">
	<g>
		<path style="fill:#1A2A4F;" d="M23.009,237.116c-0.191,0.031-0.578,0.074-0.993,0.074c-0.401,0-0.8-0.043-1.067-0.074
			l-1.216-4.952c-0.133-0.521-0.208-1.083-0.267-1.571h-0.014c-0.046,0.488-0.164,1.066-0.283,1.571l-1.201,4.952
			c-0.267,0.031-0.682,0.074-1.068,0.074c-0.371,0-0.815-0.043-1.022-0.074l-2.239-7.339c-0.237-0.774-0.385-1.69-0.385-2.687
			c0.312-0.059,0.696-0.073,1.023-0.073c0.548,0,0.816,0.03,1.053,0.073c0,0.964,0.134,1.765,0.312,2.447l0.905,3.427
			c0.133,0.533,0.268,1.23,0.341,1.898h0.03c0.074-0.668,0.192-1.365,0.325-1.914l1.394-5.858c0.268-0.043,0.521-0.073,0.788-0.073
			c0.281,0,0.533,0.03,0.815,0.073l1.424,5.874c0.133,0.533,0.281,1.23,0.355,1.898h0.029c0.074-0.668,0.208-1.365,0.357-1.914
			l0.949-3.411c0.192-0.683,0.341-1.483,0.341-2.447c0.237-0.043,0.667-0.073,1.111-0.073c0.297,0,0.698,0.03,0.979,0.073
			c0,1.098-0.161,1.929-0.4,2.687L23.009,237.116z"/>
		<path style="fill:#1A2A4F;" d="M29.215,237.116c-0.281,0.046-0.623,0.074-1.066,0.074c-0.401,0-0.771-0.028-1.053-0.074v-10.025
			c0.282-0.043,0.696-0.073,1.067-0.073c0.415,0,0.785,0.03,1.052,0.073V237.116z"/>
		<path style="fill:#1A2A4F;" d="M37.992,228.902h-2.654v8.214c-0.281,0.046-0.682,0.074-1.053,0.074
			c-0.371,0-0.771-0.028-1.069-0.074v-8.214h-2.654c-0.06-0.193-0.104-0.654-0.104-0.905c0-0.252,0.06-0.713,0.118-0.906h7.415
			c0.06,0.193,0.104,0.654,0.104,0.906C38.096,228.248,38.052,228.709,37.992,228.902z"/>
		<path style="fill:#1A2A4F;" d="M47.019,237.116c-0.267,0.046-0.638,0.074-1.053,0.074c-0.417,0-0.788-0.028-1.069-0.074v-4.151
			h-3.485v4.151c-0.281,0.046-0.608,0.074-1.053,0.074c-0.4,0-0.786-0.028-1.067-0.074v-10.025c0.281-0.043,0.696-0.073,1.067-0.073
			c0.417,0,0.788,0.03,1.053,0.073v4.064h3.485v-4.064c0.328-0.043,0.698-0.073,1.069-0.073c0.355,0,0.8,0.03,1.053,0.073V237.116z"
			/>
		<path style="fill:#1A2A4F;" d="M57.14,237.116c-0.222,0.046-0.623,0.074-1.053,0.074c-0.415,0-0.786-0.028-1.053-0.074v-7.666
			l-2.106,1.394c-0.504-0.459-0.859-1.083-0.993-1.617l3.485-2.136c0.208-0.043,0.638-0.073,0.859-0.073
			c0.253,0,0.712,0.045,0.86,0.073V237.116z"/>
		<path style="fill:#1A2A4F;" d="M63.229,237.264c-2.373,0-3.529-1.748-3.529-5.16c0-3.441,1.202-5.16,3.575-5.16
			c2.357,0,3.513,1.719,3.513,5.16C66.788,235.516,65.588,237.264,63.229,237.264z M63.245,228.679
			c-0.949,0-1.364,0.876-1.364,3.425c0,2.507,0.415,3.426,1.364,3.426s1.364-0.919,1.364-3.426
			C64.609,229.555,64.194,228.679,63.245,228.679z"/>
		<path style="fill:#1A2A4F;" d="M71.219,237.264c-2.373,0-3.529-1.748-3.529-5.16c0-3.441,1.202-5.16,3.575-5.16
			c2.357,0,3.513,1.719,3.513,5.16C74.778,235.516,73.578,237.264,71.219,237.264z M71.235,228.679
			c-0.949,0-1.364,0.876-1.364,3.425c0,2.507,0.415,3.426,1.364,3.426c0.949,0,1.364-0.919,1.364-3.426
			C72.599,229.555,72.184,228.679,71.235,228.679z"/>
		<path style="fill:#1A2A4F;" d="M75.901,229.243c0-1.276,0.578-2.373,2.225-2.373c1.659,0,2.223,1.097,2.223,2.373
			c0,1.244-0.564,2.4-2.223,2.4C76.479,231.644,75.901,230.487,75.901,229.243z M79.06,237.28c-0.638-0.178-1.29-0.608-1.617-1.067
			l6.081-9.536c0.608,0.163,1.261,0.535,1.631,0.995L79.06,237.28z M78.629,229.271c0-0.638-0.133-1.037-0.502-1.037
			c-0.371,0-0.504,0.399-0.504,1.037c0,0.64,0.147,1.009,0.504,1.009C78.481,230.28,78.629,229.911,78.629,229.271z M82.07,234.938
			c0-1.276,0.578-2.372,2.225-2.372c1.659,0,2.224,1.096,2.224,2.372c0,1.244-0.565,2.4-2.224,2.4
			C82.648,237.338,82.07,236.182,82.07,234.938z M84.798,234.966c0-0.637-0.134-1.037-0.503-1.037c-0.37,0-0.504,0.4-0.504,1.037
			c0,0.64,0.148,1.009,0.504,1.009C84.65,235.975,84.798,235.605,84.798,234.966z"/>
		<path style="fill:#1A2A4F;" d="M95.169,237.264c-2.743,0-4.197-1.898-4.197-5.16s1.454-5.16,4.197-5.16
			c2.744,0,4.197,1.898,4.197,5.16S97.913,237.264,95.169,237.264z M95.169,228.769c-1.276,0-2.002,0.977-2.002,3.335
			c0,2.359,0.726,3.336,2.002,3.336s2.002-0.977,2.002-3.336C97.171,229.745,96.445,228.769,95.169,228.769z"/>
		<path style="fill:#1A2A4F;" d="M107.059,228.902h-3.946v2.164h3.322c0.06,0.162,0.104,0.459,0.104,0.876
			c0,0.325-0.028,0.592-0.104,0.903h-3.322v4.271c-0.281,0.046-0.608,0.074-1.053,0.074c-0.4,0-0.786-0.028-1.066-0.074v-10.025
			h6.065c0.06,0.164,0.104,0.476,0.104,0.89C107.163,228.308,107.133,228.589,107.059,228.902z"/>
		<path style="fill:#1A2A4F;" d="M119.347,237.103c-0.387,0.06-0.786,0.088-1.247,0.088c-0.415,0-0.831-0.014-1.112-0.074
			l-2.032-3.603h-0.875v3.603c-0.371,0.061-0.682,0.074-1.083,0.074c-0.355,0-0.667-0.014-1.038-0.074v-10.025
			c0.683-0.043,2.106-0.073,2.965-0.073c2.522,0,3.782,0.89,3.782,3.202c0,1.232-0.742,2.462-1.78,2.907L119.347,237.103z
			 M115.06,228.752c-0.326,0-0.726,0.017-0.979,0.031v2.966h0.741c1.216,0,1.751-0.446,1.751-1.544
			C116.573,229.109,116.039,228.752,115.06,228.752z"/>
		<path style="fill:#1A2A4F;" d="M126.978,237.116h-6.273v-10.025h6.14c0.06,0.164,0.103,0.476,0.103,0.89
			c0,0.327-0.03,0.608-0.103,0.922h-4.02v2.164h3.397c0.058,0.162,0.104,0.459,0.104,0.876c0,0.325-0.03,0.592-0.104,0.903h-3.397
			v2.461h4.153c0.06,0.165,0.104,0.475,0.104,0.891C127.082,236.522,127.051,236.805,126.978,237.116z"/>
		<path style="fill:#1A2A4F;" d="M131.333,237.264c-1.083,0-2.269-0.206-3.115-0.592c-0.043-0.208-0.074-0.475-0.074-0.712
			c0-0.354,0.046-0.695,0.149-1.097c0.874,0.354,2.032,0.576,2.935,0.576c1.053,0,1.618-0.488,1.618-1.155
			c0-0.742-0.475-1.052-1.912-1.499c-1.604-0.488-2.774-1.26-2.774-2.979c0-1.839,1.585-2.862,3.677-2.862
			c0.965,0,1.824,0.147,2.402,0.341c0.044,0.164,0.074,0.43,0.074,0.815c0,0.282-0.03,0.713-0.087,0.95
			c-0.742-0.194-1.587-0.298-2.27-0.298c-1.112,0-1.721,0.372-1.721,0.965c0,0.696,0.549,0.977,1.882,1.395
			c1.603,0.504,2.79,1.26,2.79,3.038C134.908,236.094,133.38,237.264,131.333,237.264z"/>
		<path style="fill:#1A2A4F;" d="M142.748,237.116h-6.272v-10.025h6.14c0.06,0.164,0.104,0.476,0.104,0.89
			c0,0.327-0.03,0.608-0.104,0.922h-4.02v2.164h3.397c0.059,0.162,0.104,0.459,0.104,0.876c0,0.325-0.03,0.592-0.104,0.903h-3.397
			v2.461h4.152c0.061,0.165,0.104,0.475,0.104,0.891C142.852,236.522,142.823,236.805,142.748,237.116z"/>
		<path style="fill:#1A2A4F;" d="M153.02,237.116c-0.193,0.046-0.651,0.074-1.143,0.074c-0.385,0-0.829-0.043-1.022-0.074
			l-0.742-2.031h-3.559l-0.696,2.031c-0.327,0.046-0.712,0.074-1.098,0.074c-0.385,0-0.83-0.028-1.053-0.074l3.5-10.025
			c0.207-0.043,0.697-0.073,1.024-0.073c0.399,0,0.874,0.03,1.038,0.073L153.02,237.116z M149.475,233.32l-0.874-2.833
			c-0.105-0.325-0.209-0.742-0.297-1.201h-0.03c-0.074,0.459-0.194,0.876-0.297,1.201l-0.83,2.833H149.475z"/>
		<path style="fill:#1A2A4F;" d="M161.586,237.103c-0.387,0.06-0.787,0.088-1.246,0.088c-0.414,0-0.831-0.014-1.112-0.074
			l-2.032-3.603h-0.875v3.603c-0.371,0.061-0.682,0.074-1.083,0.074c-0.354,0-0.665-0.014-1.036-0.074v-10.025
			c0.682-0.043,2.105-0.073,2.965-0.073c2.521,0,3.782,0.89,3.782,3.202c0,1.232-0.742,2.462-1.78,2.907L161.586,237.103z
			 M157.299,228.752c-0.324,0-0.725,0.017-0.979,0.031v2.966h0.742c1.216,0,1.75-0.446,1.75-1.544
			C158.812,229.109,158.278,228.752,157.299,228.752z"/>
		<path style="fill:#1A2A4F;" d="M169.604,229.183c-0.714-0.222-1.604-0.386-2.315-0.386c-1.69,0-2.787,1.201-2.787,3.353
			c0,1.973,0.859,3.263,2.773,3.263c0.712,0,1.512-0.147,2.224-0.371c0.105,0.266,0.179,0.682,0.179,0.992
			c0,0.254-0.016,0.562-0.046,0.697c-0.741,0.341-1.69,0.533-2.563,0.533c-3.188,0-4.762-1.927-4.762-5.07
			c0-3.056,1.69-5.25,4.85-5.25c0.771,0,1.78,0.193,2.492,0.505c0.043,0.147,0.06,0.475,0.06,0.666
			C169.708,228.575,169.648,229.003,169.604,229.183z"/>
		<path style="fill:#1A2A4F;" d="M178.956,237.116c-0.267,0.046-0.638,0.074-1.053,0.074c-0.416,0-0.787-0.028-1.068-0.074v-4.151
			h-3.485v4.151c-0.281,0.046-0.608,0.074-1.053,0.074c-0.401,0-0.786-0.028-1.067-0.074v-10.025
			c0.281-0.043,0.696-0.073,1.067-0.073c0.417,0,0.787,0.03,1.053,0.073v4.064h3.485v-4.064c0.326-0.043,0.697-0.073,1.068-0.073
			c0.355,0,0.8,0.03,1.053,0.073V237.116z"/>
		<path style="fill:#1A2A4F;" d="M186.393,237.116c-0.281,0.046-0.623,0.074-1.066,0.074c-0.401,0-0.771-0.028-1.053-0.074v-10.025
			c0.281-0.043,0.695-0.073,1.065-0.073c0.416,0,0.786,0.03,1.054,0.073V237.116z"/>
		<path style="fill:#1A2A4F;" d="M198.654,237.116c-0.177,0.046-0.577,0.074-0.993,0.074c-0.444,0-0.861-0.043-1.038-0.074
			l-0.178-6.021l-2.194,5.073c-0.164,0.059-0.52,0.087-0.742,0.087c-0.268,0-0.592-0.028-0.756-0.073l-2.195-5.087l-0.192,6.021
			c-0.192,0.046-0.652,0.074-1.054,0.074c-0.237,0-0.636-0.028-0.903-0.074l0.429-10.025c0.283-0.028,0.564-0.073,0.861-0.073
			c0.355,0,0.696,0.03,0.875,0.073l2.936,6.808l2.95-6.808c0.298-0.043,0.595-0.073,0.861-0.073c0.341,0,0.652,0.03,0.876,0.073
			L198.654,237.116z"/>
		<path style="fill:#1A2A4F;" d="M203.779,233.527h-1.04v3.589c-0.28,0.046-0.621,0.074-1.066,0.074
			c-0.401,0-0.771-0.028-1.054-0.074v-10.011c0.86-0.043,2.166-0.088,3.011-0.088c2.271,0,3.915,0.786,3.915,3.145
			C207.545,232.459,206.106,233.527,203.779,233.527z M203.719,228.769c-0.296,0-0.682,0.015-0.979,0.028v2.952h0.919
			c1.144,0,1.751-0.297,1.751-1.513C205.409,229.197,204.892,228.769,203.719,228.769z"/>
		<path style="fill:#1A2A4F;" d="M216.647,237.116c-0.194,0.046-0.652,0.074-1.143,0.074c-0.386,0-0.829-0.043-1.022-0.074
			l-0.742-2.031h-3.56l-0.695,2.031c-0.327,0.046-0.712,0.074-1.099,0.074c-0.385,0-0.829-0.028-1.053-0.074l3.499-10.025
			c0.208-0.043,0.697-0.073,1.024-0.073c0.399,0,0.874,0.03,1.037,0.073L216.647,237.116z M213.102,233.32l-0.872-2.833
			c-0.106-0.325-0.209-0.742-0.298-1.201h-0.029c-0.074,0.459-0.193,0.876-0.298,1.201l-0.829,2.833H213.102z"/>
		<path style="fill:#1A2A4F;" d="M224.307,229.183c-0.71-0.222-1.602-0.386-2.312-0.386c-1.691,0-2.787,1.201-2.787,3.353
			c0,1.973,0.858,3.263,2.773,3.263c0.711,0,1.511-0.147,2.222-0.371c0.104,0.266,0.18,0.682,0.18,0.992
			c0,0.254-0.016,0.562-0.045,0.697c-0.74,0.341-1.689,0.533-2.564,0.533c-3.188,0-4.762-1.927-4.762-5.07
			c0-3.056,1.69-5.25,4.849-5.25c0.771,0,1.78,0.193,2.493,0.505c0.044,0.147,0.059,0.475,0.059,0.666
			C224.411,228.575,224.353,229.003,224.307,229.183z"/>
		<path style="fill:#1A2A4F;" d="M232.992,228.902h-2.654v8.214c-0.28,0.046-0.682,0.074-1.052,0.074
			c-0.371,0-0.772-0.028-1.069-0.074v-8.214h-2.653c-0.06-0.193-0.104-0.654-0.104-0.905c0-0.252,0.059-0.713,0.119-0.906h7.413
			c0.061,0.193,0.104,0.654,0.104,0.906C233.096,228.248,233.053,228.709,232.992,228.902z"/>
		<path style="fill:#1A2A4F;" d="M244.154,237.103c-0.386,0.06-0.785,0.088-1.245,0.088c-0.416,0-0.832-0.014-1.113-0.074
			l-2.031-3.603h-0.875v3.603c-0.372,0.061-0.682,0.074-1.083,0.074c-0.355,0-0.667-0.014-1.037-0.074v-10.025
			c0.682-0.043,2.105-0.073,2.965-0.073c2.522,0,3.782,0.89,3.782,3.202c0,1.232-0.741,2.462-1.78,2.907L244.154,237.103z
			 M239.868,228.752c-0.325,0-0.727,0.017-0.979,0.031v2.966h0.742c1.215,0,1.749-0.446,1.749-1.544
			C241.381,229.109,240.847,228.752,239.868,228.752z"/>
		<path style="fill:#1A2A4F;" d="M254.203,237.116c-0.193,0.046-0.652,0.074-1.143,0.074c-0.386,0-0.83-0.043-1.023-0.074
			l-0.741-2.031h-3.559l-0.696,2.031c-0.327,0.046-0.712,0.074-1.099,0.074c-0.385,0-0.829-0.028-1.054-0.074l3.501-10.025
			c0.207-0.043,0.697-0.073,1.023-0.073c0.398,0,0.874,0.03,1.037,0.073L254.203,237.116z M250.658,233.32l-0.874-2.833
			c-0.105-0.325-0.209-0.742-0.297-1.201h-0.03c-0.073,0.459-0.192,0.876-0.296,1.201l-0.831,2.833H250.658z"/>
		<path style="fill:#1A2A4F;" d="M263.421,237.116c-0.147,0.031-0.504,0.061-0.755,0.061c-0.254,0-0.505-0.015-0.742-0.061
			l-4.611-6.423v6.423c-0.121,0.031-0.564,0.074-0.979,0.074c-0.341,0-0.742-0.043-0.949-0.074v-10.025
			c0.238-0.043,0.519-0.059,0.785-0.059c0.282,0,0.579,0.03,0.803,0.059l4.521,6.304v-6.304c0.298-0.043,0.682-0.073,0.964-0.073
			s0.697,0.03,0.964,0.073V237.116z"/>
		<path style="fill:#1A2A4F;" d="M273.365,237.116c-0.267,0.046-0.742,0.074-1.26,0.074c-0.37,0-0.904-0.028-1.216-0.074
			l-2.595-4.018l-0.683,0.816v3.201c-0.282,0.046-0.623,0.074-1.068,0.074c-0.4,0-0.771-0.028-1.052-0.074v-10.025
			c0.28-0.043,0.696-0.073,1.066-0.073c0.416,0,0.787,0.03,1.054,0.073v4.317l1.72-2.018c0.756-0.89,1.173-1.528,1.336-2.3
			c0.296-0.043,0.71-0.073,1.036-0.073c0.269,0,0.729,0.03,1.04,0.073c-0.224,1.173-0.847,2.195-1.735,3.219l-1.186,1.366
			L273.365,237.116z"/>
		<path style="fill:#1A2A4F;" d="M280.717,237.116h-6.272v-10.025h6.14c0.061,0.164,0.104,0.476,0.104,0.89
			c0,0.327-0.029,0.608-0.104,0.922h-4.02v2.164h3.397c0.058,0.162,0.104,0.459,0.104,0.876c0,0.325-0.031,0.592-0.104,0.903h-3.397
			v2.461h4.152c0.061,0.165,0.104,0.475,0.104,0.891C280.821,236.522,280.792,236.805,280.717,237.116z"/>
		<path style="fill:#1A2A4F;" d="M288.81,236.227c-0.919,0.713-2.105,0.964-3.737,0.964c-0.83,0-2.239-0.028-2.713-0.074v-10.025
			c0.725-0.043,2.238-0.073,3.085-0.073c3.262,0,4.937,1.38,4.937,4.967C290.381,233.841,289.892,235.382,288.81,236.227z
			 M285.487,228.769c-0.4,0-0.846,0.015-1.009,0.028v6.6c0.194,0.016,0.639,0.029,1.099,0.029c1.869,0,2.609-1.187,2.609-3.47
			C288.187,229.45,287.415,228.769,285.487,228.769z"/>
	</g>
	<g>
		<path style="fill:#1A2A4F;" d="M33.674,250.702c-0.192,0.032-0.578,0.074-0.993,0.074c-0.401,0-0.8-0.042-1.067-0.074
			l-1.216-4.952c-0.133-0.52-0.208-1.083-0.268-1.571h-0.014c-0.045,0.488-0.163,1.068-0.282,1.571l-1.201,4.952
			c-0.267,0.032-0.682,0.074-1.069,0.074c-0.371,0-0.816-0.042-1.022-0.074l-2.239-7.339c-0.237-0.771-0.385-1.69-0.385-2.684
			c0.312-0.061,0.696-0.076,1.023-0.076c0.548,0,0.815,0.032,1.053,0.076c0,0.962,0.134,1.765,0.312,2.446l0.905,3.425
			c0.133,0.534,0.267,1.23,0.341,1.898h0.03c0.074-0.668,0.191-1.364,0.325-1.912l1.394-5.857c0.267-0.044,0.521-0.076,0.788-0.076
			c0.281,0,0.533,0.032,0.815,0.076l1.424,5.871c0.133,0.534,0.281,1.23,0.355,1.898h0.029c0.074-0.668,0.208-1.364,0.357-1.912
			l0.949-3.411c0.191-0.682,0.341-1.484,0.341-2.446c0.237-0.044,0.667-0.076,1.111-0.076c0.297,0,0.698,0.032,0.979,0.076
			c0,1.096-0.162,1.928-0.4,2.684L33.674,250.702z"/>
		<path style="fill:#1A2A4F;" d="M41.379,250.853c-2.744,0-4.198-1.898-4.198-5.163c0-3.262,1.454-5.16,4.198-5.16
			c2.743,0,4.197,1.898,4.197,5.16C45.576,248.954,44.123,250.853,41.379,250.853z M41.379,242.354
			c-1.276,0-2.002,0.978-2.002,3.335c0,2.359,0.727,3.338,2.002,3.338s2.002-0.979,2.002-3.338
			C43.381,243.332,42.655,242.354,41.379,242.354z"/>
		<path style="fill:#1A2A4F;" d="M54.587,250.688c-0.386,0.06-0.786,0.088-1.246,0.088c-0.415,0-0.832-0.014-1.113-0.074
			l-2.032-3.603h-0.875v3.603c-0.371,0.061-0.683,0.074-1.083,0.074c-0.355,0-0.666-0.014-1.037-0.074V240.68
			c0.682-0.044,2.106-0.076,2.965-0.076c2.522,0,3.782,0.891,3.782,3.204c0,1.232-0.742,2.463-1.78,2.907L54.587,250.688z
			 M50.3,242.341c-0.325,0-0.726,0.014-0.979,0.028v2.966h0.742c1.216,0,1.75-0.445,1.75-1.544
			C51.814,242.695,51.28,242.341,50.3,242.341z"/>
		<path style="fill:#1A2A4F;" d="M62.085,250.702h-6.14V240.68c0.282-0.044,0.668-0.076,1.037-0.076
			c0.417,0,0.816,0.032,1.083,0.076v8.214h4.02c0.06,0.164,0.104,0.475,0.104,0.893C62.188,250.11,62.159,250.394,62.085,250.702z"
			/>
		<path style="fill:#1A2A4F;" d="M70.043,249.812c-0.919,0.713-2.106,0.964-3.737,0.964c-0.831,0-2.239-0.028-2.714-0.074V240.68
			c0.726-0.044,2.239-0.076,3.085-0.076c3.262,0,4.938,1.379,4.938,4.968C71.616,247.426,71.126,248.97,70.043,249.812z
			 M66.721,242.354c-0.4,0-0.845,0.015-1.009,0.029v6.6c0.194,0.015,0.638,0.028,1.099,0.028c1.868,0,2.61-1.185,2.61-3.47
			C69.421,243.036,68.649,242.354,66.721,242.354z"/>
		<path style="fill:#1A2A4F;" d="M80.181,250.853c-2.744,0-4.197-1.898-4.197-5.163c0-3.262,1.454-5.16,4.197-5.16
			c2.743,0,4.197,1.898,4.197,5.16C84.378,248.954,82.924,250.853,80.181,250.853z M80.181,242.354
			c-1.276,0-2.002,0.978-2.002,3.335c0,2.359,0.726,3.338,2.002,3.338c1.276,0,2.002-0.979,2.002-3.338
			C82.183,243.332,81.457,242.354,80.181,242.354z"/>
		<path style="fill:#1A2A4F;" d="M93.389,250.688c-0.386,0.06-0.787,0.088-1.246,0.088c-0.415,0-0.832-0.014-1.113-0.074
			l-2.031-3.603h-0.875v3.603c-0.371,0.061-0.682,0.074-1.083,0.074c-0.355,0-0.666-0.014-1.037-0.074V240.68
			c0.682-0.044,2.106-0.076,2.965-0.076c2.522,0,3.782,0.891,3.782,3.204c0,1.232-0.741,2.463-1.78,2.907L93.389,250.688z
			 M89.102,242.341c-0.325,0-0.726,0.014-0.979,0.028v2.966h0.741c1.216,0,1.751-0.445,1.751-1.544
			C90.616,242.695,90.081,242.341,89.102,242.341z"/>
		<path style="fill:#1A2A4F;" d="M100.083,250.702c-0.281,0.046-0.622,0.074-1.067,0.074c-0.4,0-0.771-0.028-1.053-0.074V240.68
			c0.281-0.044,0.696-0.076,1.067-0.076c0.415,0,0.786,0.032,1.053,0.076V250.702z"/>
		<path style="fill:#1A2A4F;" d="M110.225,250.702c-0.148,0.032-0.504,0.061-0.756,0.061c-0.252,0-0.504-0.015-0.742-0.061
			l-4.612-6.42v6.42c-0.119,0.032-0.564,0.074-0.979,0.074c-0.341,0-0.742-0.042-0.949-0.074V240.68
			c0.237-0.044,0.519-0.061,0.786-0.061c0.281,0,0.578,0.031,0.801,0.061l4.522,6.301v-6.301c0.297-0.044,0.682-0.076,0.963-0.076
			c0.283,0,0.698,0.032,0.965,0.076V250.702z"/>
		<path style="fill:#1A2A4F;" d="M118.969,242.488h-2.654v8.214c-0.281,0.046-0.682,0.074-1.053,0.074s-0.771-0.028-1.069-0.074
			v-8.214h-2.654c-0.06-0.194-0.104-0.652-0.104-0.904s0.06-0.714,0.12-0.904h7.414c0.06,0.19,0.104,0.652,0.104,0.904
			S119.028,242.294,118.969,242.488z"/>
		<path style="fill:#1A2A4F;" d="M126.558,250.702h-6.273V240.68h6.14c0.06,0.162,0.104,0.474,0.104,0.89
			c0,0.324-0.03,0.607-0.104,0.919h-4.02v2.164h3.397c0.059,0.164,0.104,0.462,0.104,0.876c0,0.326-0.03,0.595-0.104,0.903h-3.397
			v2.462h4.153c0.06,0.164,0.103,0.475,0.103,0.893C126.661,250.11,126.632,250.394,126.558,250.702z"/>
		<path style="fill:#1A2A4F;" d="M135.569,250.688c-0.387,0.06-0.786,0.088-1.247,0.088c-0.415,0-0.831-0.014-1.112-0.074
			l-2.031-3.603h-0.875v3.603c-0.371,0.061-0.682,0.074-1.083,0.074c-0.355,0-0.667-0.014-1.037-0.074V240.68
			c0.682-0.044,2.105-0.076,2.964-0.076c2.522,0,3.782,0.891,3.782,3.204c0,1.232-0.742,2.463-1.78,2.907L135.569,250.688z
			 M131.282,242.341c-0.325,0-0.726,0.014-0.979,0.028v2.966h0.741c1.216,0,1.751-0.445,1.751-1.544
			C132.795,242.695,132.261,242.341,131.282,242.341z"/>
		<path style="fill:#1A2A4F;" d="M144.966,250.702c-0.147,0.032-0.504,0.061-0.755,0.061c-0.253,0-0.504-0.015-0.742-0.061
			l-4.612-6.42v6.42c-0.119,0.032-0.564,0.074-0.979,0.074c-0.341,0-0.742-0.042-0.949-0.074V240.68
			c0.237-0.044,0.518-0.061,0.786-0.061c0.28,0,0.578,0.031,0.801,0.061l4.522,6.301v-6.301c0.297-0.044,0.682-0.076,0.965-0.076
			c0.28,0,0.696,0.032,0.962,0.076V250.702z"/>
		<path style="fill:#1A2A4F;" d="M155.459,250.702c-0.193,0.046-0.652,0.074-1.143,0.074c-0.385,0-0.829-0.042-1.022-0.074
			l-0.741-2.031h-3.56l-0.696,2.031c-0.327,0.046-0.712,0.074-1.099,0.074c-0.385,0-0.83-0.028-1.053-0.074l3.499-10.022
			c0.208-0.044,0.698-0.076,1.025-0.076c0.399,0,0.873,0.032,1.037,0.076L155.459,250.702z M151.914,246.906l-0.873-2.832
			c-0.106-0.325-0.21-0.742-0.297-1.199h-0.03c-0.074,0.457-0.193,0.874-0.297,1.199l-0.829,2.832H151.914z"/>
		<path style="fill:#1A2A4F;" d="M162.231,242.488h-2.654v8.214c-0.281,0.046-0.682,0.074-1.053,0.074s-0.771-0.028-1.068-0.074
			v-8.214h-2.654c-0.06-0.194-0.104-0.652-0.104-0.904s0.06-0.714,0.118-0.904h7.415c0.06,0.19,0.104,0.652,0.104,0.904
			S162.291,242.294,162.231,242.488z"/>
		<path style="fill:#1A2A4F;" d="M165.697,250.702c-0.281,0.046-0.623,0.074-1.066,0.074c-0.401,0-0.771-0.028-1.054-0.074V240.68
			c0.282-0.044,0.696-0.076,1.066-0.076c0.416,0,0.786,0.032,1.054,0.076V250.702z"/>
		<path style="fill:#1A2A4F;" d="M171.537,250.853c-2.743,0-4.196-1.898-4.196-5.163c0-3.262,1.453-5.16,4.196-5.16
			c2.744,0,4.197,1.898,4.197,5.16C175.734,248.954,174.281,250.853,171.537,250.853z M171.537,242.354
			c-1.275,0-2.002,0.978-2.002,3.335c0,2.359,0.727,3.338,2.002,3.338c1.276,0,2.002-0.979,2.002-3.338
			C173.539,243.332,172.813,242.354,171.537,242.354z"/>
		<path style="fill:#1A2A4F;" d="M185.397,250.702c-0.147,0.032-0.504,0.061-0.755,0.061c-0.254,0-0.505-0.015-0.742-0.061
			l-4.612-6.42v6.42c-0.119,0.032-0.564,0.074-0.979,0.074c-0.341,0-0.742-0.042-0.949-0.074V240.68
			c0.237-0.044,0.519-0.061,0.785-0.061c0.281,0,0.578,0.031,0.802,0.061l4.522,6.301v-6.301c0.297-0.044,0.682-0.076,0.965-0.076
			c0.281,0,0.696,0.032,0.963,0.076V250.702z"/>
		<path style="fill:#1A2A4F;" d="M195.891,250.702c-0.194,0.046-0.653,0.074-1.143,0.074c-0.386,0-0.83-0.042-1.023-0.074
			l-0.741-2.031h-3.56l-0.695,2.031c-0.327,0.046-0.713,0.074-1.099,0.074s-0.829-0.028-1.053-0.074l3.499-10.022
			c0.207-0.044,0.698-0.076,1.025-0.076c0.398,0,0.873,0.032,1.036,0.076L195.891,250.702z M192.345,246.906l-0.873-2.832
			c-0.105-0.325-0.209-0.742-0.297-1.199h-0.03c-0.073,0.457-0.192,0.874-0.297,1.199l-0.829,2.832H192.345z"/>
		<path style="fill:#1A2A4F;" d="M203.211,250.702h-6.139V240.68c0.28-0.044,0.667-0.076,1.036-0.076
			c0.417,0,0.815,0.032,1.082,0.076v8.214h4.021c0.06,0.164,0.103,0.475,0.103,0.893
			C203.313,250.11,203.284,250.394,203.211,250.702z"/>
		<path style="fill:#1A2A4F;" d="M210.873,250.702h-6.14V240.68c0.282-0.044,0.669-0.076,1.038-0.076
			c0.417,0,0.815,0.032,1.082,0.076v8.214h4.02c0.061,0.164,0.104,0.475,0.104,0.893
			C210.977,250.11,210.947,250.394,210.873,250.702z"/>
		<path style="fill:#1A2A4F;" d="M217.438,242.977l-2.269,4.377v3.349c-0.281,0.046-0.608,0.074-1.054,0.074
			c-0.399,0-0.785-0.028-1.065-0.074v-3.38l-2.165-4.227c-0.476-0.919-0.729-1.677-0.729-2.433c0.237-0.027,0.668-0.06,1.038-0.06
			c0.358,0,0.757,0.016,1.04,0.06c0,0.623,0.087,1.039,0.428,1.75l0.996,2.046c0.221,0.447,0.414,0.979,0.475,1.291h0.014
			c0.073-0.312,0.311-0.86,0.489-1.245l1.023-2.15c0.222-0.461,0.354-0.993,0.354-1.675c0.283-0.044,0.729-0.076,1.083-0.076
			c0.415,0,0.729,0.032,0.966,0.076C218.062,241.435,217.765,242.341,217.438,242.977z"/>
		<path style="fill:#1A2A4F;" d="M228.659,250.702h-6.14V240.68c0.281-0.044,0.665-0.076,1.037-0.076
			c0.416,0,0.816,0.032,1.082,0.076v8.214h4.021c0.059,0.164,0.103,0.475,0.103,0.893
			C228.762,250.11,228.732,250.394,228.659,250.702z"/>
		<path style="fill:#1A2A4F;" d="M236.455,250.702h-6.273V240.68h6.14c0.06,0.162,0.104,0.474,0.104,0.89
			c0,0.324-0.029,0.607-0.104,0.919h-4.02v2.164h3.397c0.058,0.164,0.104,0.462,0.104,0.876c0,0.326-0.029,0.595-0.104,0.903h-3.397
			v2.462h4.153c0.06,0.164,0.104,0.475,0.104,0.893C236.56,250.11,236.528,250.394,236.455,250.702z"/>
		<path style="fill:#1A2A4F;" d="M246.726,250.702c-0.192,0.046-0.651,0.074-1.142,0.074c-0.385,0-0.83-0.042-1.023-0.074
			l-0.742-2.031h-3.559l-0.696,2.031c-0.327,0.046-0.711,0.074-1.099,0.074c-0.384,0-0.829-0.028-1.052-0.074l3.499-10.022
			c0.207-0.044,0.698-0.076,1.025-0.076c0.398,0,0.873,0.032,1.037,0.076L246.726,250.702z M243.182,246.906l-0.874-2.832
			c-0.105-0.325-0.209-0.742-0.297-1.199h-0.03c-0.074,0.457-0.193,0.874-0.297,1.199l-0.829,2.832H243.182z"/>
		<path style="fill:#1A2A4F;" d="M254.358,249.812c-0.921,0.713-2.106,0.964-3.737,0.964c-0.831,0-2.239-0.028-2.714-0.074V240.68
			c0.726-0.044,2.239-0.076,3.085-0.076c3.262,0,4.938,1.379,4.938,4.968C255.93,247.426,255.439,248.97,254.358,249.812z
			 M251.036,242.354c-0.401,0-0.846,0.015-1.009,0.029v6.6c0.193,0.015,0.639,0.028,1.099,0.028c1.867,0,2.609-1.185,2.609-3.47
			C253.735,243.036,252.964,242.354,251.036,242.354z"/>
		<path style="fill:#1A2A4F;" d="M259.705,250.702c-0.28,0.046-0.621,0.074-1.066,0.074c-0.401,0-0.771-0.028-1.052-0.074V240.68
			c0.28-0.044,0.695-0.076,1.066-0.076c0.415,0,0.785,0.032,1.052,0.076V250.702z"/>
		<path style="fill:#1A2A4F;" d="M269.862,250.702c-0.147,0.032-0.503,0.061-0.756,0.061s-0.504-0.015-0.741-0.061l-4.611-6.42v6.42
			c-0.12,0.032-0.565,0.074-0.979,0.074c-0.341,0-0.741-0.042-0.949-0.074V240.68c0.237-0.044,0.519-0.061,0.786-0.061
			c0.281,0,0.577,0.031,0.802,0.061l4.521,6.301v-6.301c0.298-0.044,0.683-0.076,0.966-0.076c0.28,0,0.695,0.032,0.962,0.076
			V250.702z"/>
		<path style="fill:#1A2A4F;" d="M279.494,250.317c-0.77,0.341-2.03,0.535-3.202,0.535c-3.335,0-4.806-2.136-4.806-5.057
			c0-3.056,1.812-5.267,5.028-5.267c0.92,0,1.973,0.193,2.596,0.462c0.043,0.236,0.072,0.593,0.072,0.755
			c0,0.326-0.058,0.682-0.117,0.904c-0.639-0.206-1.558-0.341-2.402-0.341c-2.135,0-2.981,1.558-2.981,3.456
			c0,2.016,0.89,3.307,2.685,3.307c0.4,0,0.785-0.028,1.009-0.089v-3.204c0.28-0.044,0.667-0.073,1.039-0.073
			c0.414,0,0.815,0.029,1.08,0.073V250.317z"/>
	</g>
	<g>
		<path style="fill:#B4A168;" d="M280.387,162.733c-1.501,1.612-3.613,2.474-5.739,2.474c-2.127,0-4.17-0.861-5.671-2.474
			c0.043-0.318,0.195-0.527,0.446-0.709c1.61,1.362,3.432,1.877,5.267,1.877c1.862,0,3.642-0.515,5.251-1.877
			C280.191,162.206,280.346,162.415,280.387,162.733z"/>
		<path style="fill:#B4A168;" d="M278.829,153.761c0.042,0.277,0.07,0.555,0.07,0.834c0,0.265-0.014,0.485-0.07,0.751l-3.613,2.057
			v1.221h3.613c0.042,0.238,0.07,0.474,0.07,0.71c0,0.222-0.028,0.459-0.07,0.681h-9.392c-0.043-0.681-0.071-1.5-0.071-2.293
			c0-1.959,0.599-3.529,2.849-3.529c1.236,0,2.32,0.682,2.737,1.82L278.829,153.761z M270.449,157.569c0,0.317,0,0.819,0.015,1.054
			h3.655v-0.943c0-1.306-0.583-2.084-1.904-2.084C270.937,155.596,270.449,156.332,270.449,157.569z"/>
		<path style="fill:#B4A168;" d="M278.829,146.625v5.475h-9.392v-5.266c0.165-0.057,0.4-0.071,0.57-0.071
			c0.178,0,0.388,0.014,0.568,0.071v3.876h2.833v-3.349c0.169-0.057,0.405-0.071,0.57-0.071c0.182,0,0.39,0.014,0.57,0.071v3.349
			h3.142v-4.085c0.165-0.057,0.402-0.071,0.568-0.071C278.439,146.554,278.648,146.568,278.829,146.625z"/>
		<path style="fill:#B4A168;" d="M270.576,139.543v3.875h2.833v-3.209c0.169-0.056,0.405-0.069,0.57-0.069
			c0.182,0,0.39,0.013,0.57,0.069v3.209h4.279c0.042,0.237,0.07,0.444,0.07,0.696c0,0.236-0.028,0.473-0.07,0.695h-9.392v-5.266
			c0.165-0.056,0.4-0.07,0.57-0.07C270.186,139.473,270.396,139.487,270.576,139.543z"/>
		<path style="fill:#B4A168;" d="M275.954,131.561c0.556,0.501,1.14,1.042,1.723,1.626v-3.932c0.152-0.042,0.445-0.07,0.611-0.07
			c0.151,0,0.389,0.014,0.541,0.07v5.446c-0.263,0.097-0.513,0.167-0.791,0.167c-0.111,0-0.236-0.014-0.347-0.028
			c-0.738-0.736-1.614-1.569-2.404-2.278c-1.459-1.308-2.307-2.002-3.419-2.002c-0.999,0-1.501,0.668-1.501,1.558
			c0,0.777,0.237,1.625,0.569,2.264c-0.194,0.042-0.389,0.07-0.583,0.07c-0.14,0-0.346-0.028-0.473-0.07
			c-0.349-0.639-0.584-1.527-0.584-2.473c0-1.557,0.931-2.779,2.46-2.779C273.175,129.13,274.189,129.977,275.954,131.561z"/>
		<path style="fill:#B4A168;" d="M278.969,124.202c0,2.042-1.584,3.113-4.836,3.113c-3.209,0-4.836-1.07-4.836-3.113
			c0-2.042,1.586-3.112,4.836-3.112C277.385,121.089,278.969,122.16,278.969,124.202z M270.382,124.202
			c0,1.334,1.555,1.654,3.737,1.654c2.195,0,3.766-0.334,3.766-1.654c0-1.362-1.57-1.654-3.766-1.654
			C271.922,122.548,270.382,122.868,270.382,124.202z"/>
		<path style="fill:#B4A168;" d="M278.829,114.858c0.042,0.222,0.07,0.457,0.07,0.695c0,0.235-0.028,0.472-0.07,0.694h-7.893
			l1.515,2.348c-0.251,0.265-0.652,0.501-0.999,0.583l-2.015-3.237c-0.043-0.153-0.071-0.333-0.071-0.513
			c0-0.196,0.028-0.391,0.071-0.57H278.829z"/>
		<path style="fill:#B4A168;" d="M276.646,105.401v1.32h2.17c0.041,0.208,0.069,0.417,0.069,0.639c0,0.237-0.015,0.486-0.069,0.724
			h-2.17v4.001c-0.178,0.04-0.36,0.068-0.541,0.068c-0.151,0-0.292-0.014-0.513-0.068l-6.155-3.002
			c-0.043-0.195-0.071-0.487-0.071-0.682c0-0.25,0.028-0.527,0.071-0.791l6.057,3.014v-2.541h-2.1
			c-0.039-0.238-0.067-0.473-0.067-0.711c0-0.221,0.028-0.43,0.067-0.652h2.1v-1.32c0.195-0.056,0.404-0.07,0.598-0.07
			C276.272,105.331,276.481,105.345,276.646,105.401z"/>
		<path style="fill:#B4A168;" d="M280.387,103.488c-0.041,0.321-0.195,0.528-0.446,0.709c-1.609-1.362-3.431-1.875-5.265-1.875
			c-1.864,0-3.643,0.513-5.253,1.875c-0.251-0.181-0.403-0.417-0.446-0.736c1.501-1.612,3.613-2.445,5.741-2.445
			C276.844,101.016,278.886,101.877,280.387,103.488z"/>
	</g>
	<g>
		<path style="fill:#B4A168;" d="M191.916,170.443h-36.681c-0.772-1.439-1.03-3.222-1.03-4.8c0-0.822,0.085-1.853,0.258-2.538
			c6.013-4.868,12.455-10.354,18.126-15.428c4.209-3.772,7.559-7.27,7.559-11.109c0-3.361-2.921-5.281-8.075-5.281
			c-3.779,0-9.792,1.029-15.375,3.155c-0.345-1.167-0.688-3.224-0.688-4.869c0-0.823,0.173-2.469,0.516-3.566
			c4.209-1.44,10.995-2.743,17.61-2.743c9.791,0,18.383,3.635,18.383,12.069c0,7.405-4.982,12.413-15.634,21.326
			c-2.063,1.784-4.295,3.496-6.529,5.349h21.732c0.258,0.893,0.431,2.604,0.431,4.252
			C192.518,167.633,192.259,169.483,191.916,170.443z"/>
		<path style="fill:#B4A168;" d="M217.598,171.129c-13.744,0-20.443-8.09-20.443-23.864c0-15.908,6.958-23.862,20.703-23.862
			c13.657,0,20.356,7.954,20.356,23.862C238.214,163.039,231.256,171.129,217.598,171.129z M217.684,131.425
			c-5.497,0-7.904,4.046-7.904,15.84c0,11.59,2.407,15.84,7.904,15.84c5.499,0,7.903-4.25,7.903-15.84
			C225.587,135.471,223.183,131.425,217.684,131.425z"/>
	</g>
	<g>
		<path style="fill:#1A2A4F;" d="M178.213,95.124h-9.939v24.555c-1.055,0.133-2.554,0.221-3.942,0.221
			c-1.388,0-2.888-0.088-3.998-0.221V95.124h-9.939c-0.224-0.577-0.39-1.951-0.39-2.704c0-0.754,0.223-2.127,0.445-2.705h27.764
			c0.222,0.577,0.388,1.95,0.388,2.705C178.601,93.173,178.435,94.547,178.213,95.124z"/>
		<path style="fill:#1A2A4F;" d="M194.645,120.122c-10.273,0-15.715-5.673-15.715-15.424s5.441-15.425,15.715-15.425
			c10.272,0,15.715,5.674,15.715,15.425S204.917,120.122,194.645,120.122z M194.645,94.724c-4.775,0-7.496,2.926-7.496,9.973
			c0,7.048,2.721,9.973,7.496,9.973s7.495-2.925,7.495-9.973C202.14,97.65,199.42,94.724,194.645,94.724z"/>
		<path style="fill:#1A2A4F;" d="M226.621,108.952h-3.888v10.727c-1.055,0.133-2.332,0.221-3.996,0.221
			c-1.499,0-2.888-0.088-3.942-0.221V89.76c3.22-0.133,8.105-0.266,11.271-0.266c8.496,0,14.659,2.349,14.659,9.396
			C240.726,105.762,235.339,108.952,226.621,108.952z M226.399,94.724c-1.11,0-2.555,0.044-3.666,0.089v8.82h3.443
			c4.276,0,6.552-0.887,6.552-4.521C232.729,96.009,230.786,94.724,226.399,94.724z"/>
	</g>
	<g>
		<path style="fill:#1A2A4F;" d="M155.54,84.396h-6.842V73.462h6.696c0.065,0.178,0.115,0.517,0.115,0.971
			c0,0.356-0.034,0.663-0.115,1.003h-4.383v2.361h3.705c0.064,0.179,0.112,0.502,0.112,0.954c0,0.356-0.031,0.647-0.112,0.987
			h-3.705v2.685h4.529c0.064,0.178,0.114,0.517,0.114,0.971C155.654,83.75,155.621,84.056,155.54,84.396z"/>
		<path style="fill:#1A2A4F;" d="M165.921,84.396c-0.162,0.032-0.551,0.065-0.825,0.065c-0.273,0-0.55-0.017-0.808-0.065
			l-5.031-7.004v7.004c-0.129,0.032-0.614,0.081-1.068,0.081c-0.371,0-0.809-0.048-1.035-0.081V73.462
			c0.259-0.049,0.566-0.064,0.858-0.064c0.307,0,0.631,0.032,0.873,0.064l4.934,6.874v-6.874c0.323-0.049,0.743-0.082,1.051-0.082
			s0.761,0.033,1.052,0.082V84.396z"/>
		<path style="fill:#1A2A4F;" d="M176.269,83.976c-0.842,0.372-2.216,0.583-3.493,0.583c-3.641,0-5.242-2.329-5.242-5.515
			c0-3.333,1.974-5.743,5.484-5.743c1.001,0,2.151,0.211,2.83,0.501c0.049,0.258,0.08,0.647,0.08,0.826
			c0,0.355-0.063,0.743-0.128,0.986c-0.696-0.227-1.699-0.373-2.62-0.373c-2.329,0-3.252,1.699-3.252,3.77
			c0,2.199,0.97,3.606,2.928,3.606c0.436,0,0.857-0.033,1.101-0.097v-3.494c0.306-0.049,0.728-0.082,1.132-0.082
			c0.451,0,0.89,0.033,1.181,0.082V83.976z"/>
		<path style="fill:#1A2A4F;" d="M180.47,84.396c-0.308,0.048-0.681,0.081-1.166,0.081c-0.436,0-0.841-0.032-1.146-0.081V73.462
			c0.306-0.049,0.758-0.082,1.163-0.082c0.453,0,0.857,0.033,1.149,0.082V84.396z"/>
		<path style="fill:#1A2A4F;" d="M191.368,84.396c-0.162,0.032-0.55,0.065-0.824,0.065s-0.55-0.017-0.809-0.065l-5.03-7.004v7.004
			c-0.13,0.032-0.615,0.081-1.068,0.081c-0.371,0-0.809-0.048-1.035-0.081V73.462c0.259-0.049,0.566-0.064,0.857-0.064
			c0.308,0,0.631,0.032,0.874,0.064l4.933,6.874v-6.874c0.324-0.049,0.744-0.082,1.052-0.082c0.307,0,0.761,0.033,1.051,0.082
			V84.396z"/>
		<path style="fill:#1A2A4F;" d="M200.325,84.396h-6.843V73.462h6.696c0.065,0.178,0.114,0.517,0.114,0.971
			c0,0.356-0.033,0.663-0.114,1.003h-4.384v2.361h3.706c0.063,0.179,0.112,0.502,0.112,0.954c0,0.356-0.032,0.647-0.112,0.987
			h-3.706v2.685h4.53c0.065,0.178,0.113,0.517,0.113,0.971C200.438,83.75,200.405,84.056,200.325,84.396z"/>
		<path style="fill:#1A2A4F;" d="M208.587,84.396h-6.842V73.462h6.696c0.064,0.178,0.114,0.517,0.114,0.971
			c0,0.356-0.033,0.663-0.114,1.003h-4.383v2.361h3.704c0.065,0.179,0.112,0.502,0.112,0.954c0,0.356-0.032,0.647-0.112,0.987
			h-3.704v2.685h4.528c0.065,0.178,0.113,0.517,0.113,0.971C208.7,83.75,208.667,84.056,208.587,84.396z"/>
		<path style="fill:#1A2A4F;" d="M218.271,84.38c-0.42,0.064-0.855,0.097-1.358,0.097c-0.451,0-0.904-0.016-1.212-0.081
			l-2.217-3.931h-0.954v3.931c-0.404,0.065-0.744,0.081-1.181,0.081c-0.387,0-0.729-0.016-1.132-0.081V73.462
			c0.745-0.049,2.297-0.082,3.235-0.082c2.749,0,4.125,0.972,4.125,3.495c0,1.343-0.811,2.685-1.942,3.17L218.271,84.38z
			 M213.598,75.273c-0.356,0-0.793,0.016-1.068,0.033v3.235h0.809c1.326,0,1.908-0.485,1.908-1.682S214.664,75.273,213.598,75.273z"
			/>
		<path style="fill:#1A2A4F;" d="M221.924,84.396c-0.308,0.048-0.681,0.081-1.165,0.081c-0.438,0-0.842-0.032-1.148-0.081V73.462
			c0.307-0.049,0.76-0.082,1.164-0.082c0.453,0,0.857,0.033,1.149,0.082V84.396z"/>
		<path style="fill:#1A2A4F;" d="M232.824,84.396c-0.162,0.032-0.551,0.065-0.825,0.065s-0.55-0.017-0.808-0.065l-5.03-7.004v7.004
			c-0.131,0.032-0.615,0.081-1.069,0.081c-0.37,0-0.809-0.048-1.034-0.081V73.462c0.258-0.049,0.565-0.064,0.857-0.064
			c0.308,0,0.631,0.032,0.873,0.064l4.934,6.874v-6.874c0.324-0.049,0.744-0.082,1.051-0.082c0.308,0,0.761,0.033,1.052,0.082
			V84.396z"/>
		<path style="fill:#1A2A4F;" d="M243.17,83.976c-0.842,0.372-2.216,0.583-3.493,0.583c-3.641,0-5.241-2.329-5.241-5.515
			c0-3.333,1.974-5.743,5.483-5.743c1.002,0,2.151,0.211,2.83,0.501c0.05,0.258,0.08,0.647,0.08,0.826
			c0,0.355-0.062,0.743-0.128,0.986c-0.696-0.227-1.699-0.373-2.62-0.373c-2.328,0-3.251,1.699-3.251,3.77
			c0,2.199,0.97,3.606,2.927,3.606c0.437,0,0.857-0.033,1.102-0.097v-3.494c0.305-0.049,0.727-0.082,1.132-0.082
			c0.451,0,0.889,0.033,1.18,0.082V83.976z"/>
	</g>
	<g>
		<path style="fill:#1A2A4F;" d="M155.285,190.68c-0.402,0.064-0.891,0.107-1.527,0.107c-0.571,0-1.103-0.043-1.505-0.107v-14.331
			c0.402-0.064,0.997-0.107,1.526-0.107c0.594,0,1.124,0.043,1.506,0.107V190.68z"/>
		<path style="fill:#1A2A4F;" d="M169.595,190.68c-0.212,0.042-0.722,0.085-1.082,0.085s-0.721-0.021-1.06-0.085l-6.593-9.18v9.18
			c-0.17,0.042-0.807,0.107-1.398,0.107c-0.489,0-1.061-0.065-1.357-0.107v-14.331c0.339-0.064,0.742-0.086,1.123-0.086
			c0.402,0,0.826,0.042,1.144,0.086l6.467,9.011v-9.011c0.425-0.064,0.975-0.107,1.378-0.107c0.404,0,0.996,0.043,1.379,0.107
			V190.68z"/>
		<path style="fill:#1A2A4F;" d="M185.193,178.935h-3.794v11.745c-0.404,0.064-0.976,0.107-1.507,0.107
			c-0.528,0-1.102-0.043-1.525-0.107v-11.745h-3.796c-0.085-0.274-0.148-0.932-0.148-1.294c0-0.358,0.085-1.016,0.17-1.292h10.601
			c0.084,0.276,0.147,0.934,0.147,1.292C185.341,178.003,185.277,178.66,185.193,178.935z"/>
		<path style="fill:#1A2A4F;" d="M197.891,190.68c-0.382,0.064-0.911,0.107-1.505,0.107c-0.595,0-1.125-0.043-1.527-0.107v-5.936
			h-4.98v5.936c-0.404,0.064-0.87,0.107-1.507,0.107c-0.573,0-1.123-0.043-1.525-0.107v-14.331c0.402-0.064,0.997-0.107,1.525-0.107
			c0.594,0,1.125,0.043,1.507,0.107v5.809h4.98v-5.809c0.468-0.064,0.997-0.107,1.527-0.107c0.508,0,1.145,0.043,1.505,0.107V190.68
			z"/>
		<path style="fill:#1A2A4F;" d="M209.633,190.68h-8.967v-14.331h8.776c0.085,0.233,0.147,0.679,0.147,1.271
			c0,0.468-0.042,0.87-0.147,1.315h-5.745v3.097h4.854c0.085,0.231,0.147,0.657,0.147,1.249c0,0.466-0.042,0.849-0.147,1.293h-4.854
			v3.521h5.936c0.084,0.231,0.149,0.678,0.149,1.271C209.782,189.831,209.738,190.234,209.633,190.68z"/>
		<path style="fill:#1A2A4F;" d="M226.95,185.231c0,3.647-1.4,5.661-5.472,5.661c-4.112,0-5.404-2.014-5.404-5.661v-8.883
			c0.424-0.064,0.974-0.107,1.482-0.107c0.595,0,1.124,0.043,1.548,0.107v9.096c0,1.95,0.552,3.052,2.397,3.052
			c1.843,0,2.48-1.102,2.48-3.052v-9.096c0.38-0.064,1.016-0.107,1.503-0.107c0.468,0,1.103,0.043,1.465,0.107V185.231z"/>
		<path style="fill:#1A2A4F;" d="M240.896,190.68c-0.382,0.064-1.06,0.107-1.802,0.107c-0.531,0-1.294-0.043-1.739-0.107
			l-3.709-5.746l-0.976,1.168v4.578c-0.404,0.064-0.891,0.107-1.526,0.107c-0.573,0-1.103-0.043-1.505-0.107v-14.331
			c0.402-0.064,0.996-0.107,1.525-0.107c0.593,0,1.125,0.043,1.506,0.107v6.169l2.459-2.884c1.081-1.272,1.676-2.183,1.909-3.285
			c0.423-0.064,1.015-0.107,1.482-0.107c0.382,0,1.039,0.043,1.484,0.107c-0.319,1.675-1.207,3.138-2.48,4.6l-1.696,1.951
			L240.896,190.68z"/>
	</g>
</g>
</svg>
