<?xml version="1.0" encoding="utf-8"?>
<!-- Generator: Adobe Illustrator 16.0.0, SVG Export Plug-In . SVG Version: 6.00 Build 0)  -->
<!DOCTYPE svg PUBLIC "-//W3C//DTD SVG 1.0//EN" "http://www.w3.org/TR/2001/REC-SVG-20010904/DTD/svg10.dtd">
<svg version="1.0" xmlns="http://www.w3.org/2000/svg" xmlns:xlink="http://www.w3.org/1999/xlink" x="0px" y="0px" width="300px"
	 height="300px" viewBox="0 0 300 300" style="enable-background:new 0 0 300 300;" xml:space="preserve">
<g id="Icons">
	<circle style="fill:none;stroke:#8C7B94;stroke-width:2;" cx="150.566" cy="149.722" r="134.033"/>
	<path style="fill:none;stroke:#8C7B94;stroke-width:2;" d="M210.928,231.355c22.564-16.696,38.138-42.622,40.776-72.785
		c4.89-55.859-36.432-105.102-92.291-109.987c-55.857-4.889-105.099,36.431-109.987,92.291
		c-3.093,35.341,12.314,68.035,38.198,88.52"/>
	<path style="fill:#B4A168;" d="M121.462,167.751c0,2.186-1.776,3.964-3.964,3.964c-2.188,0-3.965-1.776-3.965-3.969
		c0-2.188,1.776-3.964,3.965-3.964C119.686,163.782,121.462,165.559,121.462,167.751 M130.789,174.361
		c-1.501-0.854-3.944-0.407-4.432-1.619c-0.162-0.453-0.317-0.911-0.475-1.372c-2.139-6.337-3.777-13.054-4.836-20.06
		c-1.648-10.927-1.748-21.612-0.494-31.667c0.066-0.56,0.143-1.114,0.217-1.67c-1.078,0.449-2.447,0.979-4.168,1.469
		c-5.405,1.545-21.198,3.46-26.603,1.841c-1.122,10.737,0.236,22.461,3.277,33.952c2.561,9.68,5.333,16.125,7.832,23.522
		c7.991-2.912,15.952-3.041,21.804-2.028c2.783,0.477,3.853,0.391,5.058,0.183C130.206,176.525,132.775,175.494,130.789,174.361"/>
	<path style="fill:#B4A168;" d="M199.734,135.77c0,3.355-2.1,6.277-5.21,7.833c-0.401,0.345-0.762,0.63-1.002,0.854
		c1.993,1.601,3.245,3.895,3.245,6.449c0,4.128-3.269,7.586-7.67,8.518c0.925,1.242,1.452,2.699,1.452,4.259
		c0,4.545-2.326,8.224-7.87,8.222l-3.507,0.585c-3.832,0.574-5.417,0.39-9.612,0.135c-3.886-0.236-8.096-0.857-11.297-1.774
		c-2.225-0.636-6.675-1.815-12.83-1.815c-4.404,0-8.017,0.965-10.51,1.349c-0.556,0.083-1.776,0.312-3.365,0.615
		c-2.325-6.007-4.157-12.391-5.419-19.074c-1.971-10.418-2.382-20.662-1.427-30.346l2.356-0.229c0,0,7.259-0.058,9.939-3.888
		c2.681-3.831,4.797-8.151,6.652-10.141c5.954-6.383,15.751-11.81,18.244-20.235c2.486-8.424-0.578-6.699,1.146-9.959
		c1.725-3.25,5.173-3.394,6.127-3.444c3.256-0.173,5.277,0.573,7.767,3.256c2.491,2.681,3.019,5.53,3.68,9.192
		c0.275,1.517,0.069,4.591-0.71,7.656s-1.737,5.366-3.65,8.621c-1.915,3.256-3.256,4.616-4.609,6.508
		c-1.559,2.184-4.27,3.493,1.929,2.681c6.502-0.851,9.233-0.664,10.376-0.574l4.101-0.081c5.704,0,10.332,4.041,10.332,9.025
		c0,3.028-1.709,5.706-4.332,7.341c0.072,0.052,0.421,0.306,0.891,0.854C197.827,129.763,199.734,132.568,199.734,135.77"/>
</g>
<g id="Text_Flat">
	<path style="fill:#1A2A4F;" d="M243.625,221.554c1.667,0,3.017-1.353,3.017-3.019c0-1.667-1.35-3.021-3.017-3.021
		s-3.019,1.354-3.019,3.021C240.606,220.201,241.958,221.554,243.625,221.554"/>
	<path style="fill:#1A2A4F;" d="M57.508,221.554c1.668,0,3.016-1.353,3.016-3.019c0-1.667-1.348-3.021-3.016-3.021
		s-3.019,1.354-3.019,3.021C54.489,220.201,55.84,221.554,57.508,221.554"/>
	<path style="fill:#1A2A4F;" d="M241.311,232.161c0.82,0.765,1.146,1.741,0.496,2.439c-0.94,1.012-2.292,0.265-3.064-0.455
		c-0.188-0.173-0.351-0.326-0.462-0.452c-0.007-0.495,0.268-1.24,0.769-1.776C239.677,231.243,240.501,231.408,241.311,232.161
		 M242.938,230.236c-1.509-1.403-3.509-1.498-4.901-0.004c-0.569,0.61-0.972,1.469-1.083,2.086c-1.23-1.401-1.292-2.808-0.169-4.02
		c0.339-0.361,0.814-0.8,1.166-1.076c-0.115-0.226-0.416-0.55-0.651-0.77c-0.138-0.13-0.436-0.383-0.656-0.495
		c-0.354,0.183-1.045,0.772-1.483,1.244c-2.562,2.755-1.413,5.665,1.239,8.136c2.356,2.191,4.763,2.802,6.874,0.533
		C244.895,234.129,244.621,231.806,242.938,230.236 M229.657,233.128c-0.149,0.088-0.578,0.4-0.793,0.593
		c-0.192,0.168-0.539,0.522-0.684,0.719l-1.363,4.487c0.521,0.355,1.299,0.62,2.084,0.631l0.747-2.804l5.838,6.583
		c0.264-0.163,0.604-0.421,0.961-0.738c0.367-0.325,0.69-0.655,0.846-0.862L229.657,233.128z M225.864,244.006
		c1.75,2.285,2.015,3.411,1.149,4.075s-1.885,0.115-3.639-2.167c-1.78-2.327-2.013-3.414-1.146-4.075
		C223.091,241.175,224.081,241.682,225.864,244.006 M227.849,242.483c-2.405-3.134-4.659-3.893-6.805-2.245
		c-2.16,1.655-2.055,4.062,0.349,7.195c2.383,3.108,4.657,3.895,6.817,2.236C230.357,248.023,230.23,245.592,227.849,242.483
		 M222.592,252.396c-0.226-0.344-0.488-0.678-0.65-0.839l-3.597,2.369c0.118-0.627,0.251-1.227,0.352-1.82
		c0.543-3.009,0.685-4.591-0.326-6.124c-1.152-1.749-3.067-1.566-4.688-0.499c-1.094,0.719-2.04,1.727-2.542,2.485
		c0.095,0.265,0.29,0.622,0.402,0.794c0.225,0.34,0.562,0.73,0.777,0.934c0.637-1.048,1.489-1.917,2.116-2.329
		c0.851-0.562,1.599-0.481,2.057,0.216c0.525,0.797,0.445,1.888,0.266,3.129c-0.245,1.668-0.562,3.509-0.896,5.174
		c0.067,0.161,0.192,0.383,0.304,0.553c0.215,0.326,0.502,0.666,0.828,0.885l6.066-3.997
		C222.986,253.089,222.776,252.675,222.592,252.396 M211.614,259.666c-0.39-0.736-1.104-0.996-1.778-0.638
		c-0.604,0.316-0.86,1.068-0.551,1.655c0.261,0.498,0.678,0.738,1.101,0.843c0.083,0.669-0.099,1.458-0.492,2.241
		c0.27,0.299,0.754,0.446,1.085,0.488C211.872,262.819,212.231,260.839,211.614,259.666 M206.671,259.28
		c-0.865-1.85-2.465-2.062-4.373-1.809c-1.594,0.215-2.302,0.189-2.639-0.534c-0.29-0.618,0.165-1.3,1.319-1.839
		c0.711-0.331,1.641-0.634,2.506-0.793c-0.054-0.275-0.231-0.736-0.368-1.03c-0.188-0.398-0.35-0.664-0.475-0.812
		c-0.693,0.079-1.66,0.346-2.662,0.812c-2.176,1.017-3.328,2.848-2.436,4.763c0.836,1.788,2.427,2.021,4.33,1.756
		c1.714-0.237,2.359-0.146,2.721,0.626c0.323,0.694-0.026,1.479-1.12,1.989c-0.943,0.44-2.253,0.771-3.335,0.821
		c0.088,0.47,0.206,0.844,0.379,1.217c0.116,0.246,0.273,0.509,0.421,0.704c1.066-0.01,2.398-0.37,3.527-0.896
		C206.595,263.261,207.615,261.303,206.671,259.28 M194.42,262.023c0.871,2.472,0.521,4.041-1.504,4.753
		c-0.497,0.176-0.985,0.331-1.202,0.387l-2.515-7.147c0.171-0.078,0.647-0.264,1.08-0.415
		C192.368,258.863,193.463,259.311,194.42,262.023 M196.805,261.219c-1.37-3.886-3.706-4.739-7.24-3.492
		c-0.916,0.321-2.542,0.93-3.31,1.254l3.821,10.852c0.529-0.131,2.067-0.636,2.965-0.953c1.767-0.624,2.956-1.348,3.68-2.467
		C197.569,265.084,197.512,263.227,196.805,261.219 M182.732,263.758c0.33,1.215-0.13,1.869-1.476,2.232l-0.823,0.224l-0.891-3.286
		c0.277-0.092,0.715-0.229,1.077-0.326C181.705,262.308,182.403,262.541,182.732,263.758 M184.002,266.888
		c1.019-0.806,1.469-2.39,1.099-3.754c-0.693-2.562-2.352-3.169-5.148-2.413c-0.953,0.26-2.519,0.718-3.264,0.973l3.007,11.104
		c0.428-0.044,0.775-0.122,1.173-0.229c0.441-0.118,0.782-0.228,1.175-0.404l-1.082-3.994l0.971-0.261l3.333,3.381
		c0.329-0.017,0.794-0.125,1.254-0.25c0.509-0.138,0.943-0.289,1.354-0.472L184.002,266.888z M169.787,270.248l0.407-3.364
		c0.058-0.39,0.113-0.88,0.113-1.416l0.032-0.005c0.187,0.502,0.384,0.956,0.56,1.303l1.524,3.044L169.787,270.248z M171.02,262.796
		c-0.191-0.021-0.737,0.034-1.188,0.111c-0.37,0.061-0.921,0.186-1.147,0.275l-2.082,12.009c0.262,0.007,0.771-0.044,1.205-0.116
		c0.439-0.071,0.87-0.178,1.23-0.291l0.409-2.43l4.029-0.668l1.222,2.161c0.222-0.003,0.733-0.035,1.173-0.107
		c0.553-0.092,1.068-0.213,1.279-0.298L171.02,262.796z M164.725,267.026c0.214-0.884,0.342-1.848,0.263-3.105
		c-0.328-0.03-0.786-0.036-1.129-0.016c-0.509,0.036-0.999,0.101-1.268,0.168c0.069,1.103-0.041,2.032-0.212,2.828l-0.84,3.977
		c-0.132,0.638-0.233,1.447-0.269,2.215l-0.034,0.003c-0.135-0.759-0.354-1.545-0.546-2.146l-2.059-6.624
		c-0.324-0.032-0.615-0.046-0.938-0.028c-0.307,0.021-0.594,0.074-0.895,0.144l-1.173,6.812c-0.113,0.637-0.199,1.443-0.236,2.214
		l-0.034,0.002c-0.132-0.761-0.335-1.549-0.527-2.151l-1.284-3.856c-0.254-0.768-0.465-1.675-0.536-2.779
		c-0.275-0.034-0.583-0.048-1.21-0.008c-0.375,0.021-0.813,0.068-1.167,0.159c0.071,1.138,0.307,2.181,0.638,3.047l3.097,8.244
		c0.238,0.019,0.755,0.037,1.178,0.01c0.439-0.028,0.913-0.108,1.217-0.159l1.015-5.763c0.103-0.587,0.195-1.258,0.211-1.82
		l0.019-0.002c0.102,0.555,0.227,1.195,0.419,1.781l1.753,5.582c0.308,0.017,0.77,0.04,1.229,0.01
		c0.474-0.03,0.916-0.11,1.133-0.156L164.725,267.026z M144.025,271.592l1.076-3.212c0.134-0.37,0.289-0.842,0.393-1.364
		l0.035,0.001c0.081,0.53,0.183,1.011,0.287,1.391l0.881,3.286L144.025,271.592z M146.732,264.539
		c-0.188-0.058-0.731-0.11-1.191-0.131c-0.373-0.015-0.935,0-1.175,0.042l-4.45,11.345c0.252,0.061,0.761,0.112,1.205,0.129
		c0.439,0.017,0.885,0,1.26-0.034l0.888-2.302l4.082,0.155l0.763,2.363c0.218,0.042,0.727,0.111,1.168,0.128
		c0.562,0.021,1.092,0.006,1.314-0.032L146.732,264.539z M135.974,263.768c-0.294-0.102-0.758-0.213-1.078-0.267
		c-0.322-0.051-0.76-0.092-1.105-0.098l-1.18,7.139l-3.945-7.984c-0.246-0.075-0.574-0.166-0.893-0.22
		c-0.303-0.048-0.625-0.084-0.902-0.078l-1.88,11.352c0.231,0.07,0.675,0.196,1.062,0.259c0.469,0.079,0.981,0.111,1.119,0.1
		l1.207-7.271l4.018,8.139c0.262,0.095,0.544,0.159,0.831,0.205c0.285,0.049,0.692,0.081,0.866,0.074L135.974,263.768z
		 M121.248,266.786c-0.708,2.615-1.806,3.482-3.22,3.099c-1.413-0.382-1.926-1.684-1.219-4.299c0.71-2.611,1.809-3.479,3.222-3.097
		C121.442,262.873,121.958,264.175,121.248,266.786 M123.678,267.444c0.979-3.617-0.062-6.151-3.101-6.975
		c-3.04-0.824-5.218,0.844-6.196,4.461c-0.979,3.612,0.06,6.15,3.101,6.975C120.521,272.728,122.7,271.062,123.678,267.444
		 M114.427,258.822c-0.273-0.15-0.659-0.323-1.11-0.481c-0.4-0.143-0.863-0.268-1.182-0.326l-3.824,10.853
		c0.287,0.153,0.678,0.329,1.11,0.479c0.481,0.17,0.861,0.268,1.185,0.328L114.427,258.822z M110.886,258.76
		c0.113-0.268,0.263-0.774,0.282-1.003l-7.875-3.221c-0.146,0.179-0.41,0.641-0.519,0.909c-0.108,0.267-0.263,0.775-0.282,1.007
		l2.821,1.149l-3.566,8.73c0.293,0.179,0.708,0.383,1.101,0.542c0.393,0.162,0.831,0.303,1.149,0.379l3.567-8.729l2.819,1.15
		C110.532,259.497,110.777,259.028,110.886,258.76 M95.051,258.429l2.301-2.485c0.273-0.285,0.606-0.65,0.917-1.085l0.032,0.016
		c-0.144,0.517-0.25,0.997-0.308,1.387l-0.548,3.357L95.051,258.429z M100.413,253.109c-0.143-0.13-0.618-0.403-1.029-0.606
		c-0.335-0.168-0.853-0.387-1.089-0.448l-8.718,8.517c0.208,0.159,0.648,0.418,1.046,0.614c0.396,0.197,0.807,0.361,1.166,0.484
		l1.755-1.732l3.657,1.817l-0.275,2.466c0.182,0.132,0.618,0.405,1.013,0.602c0.504,0.249,0.99,0.454,1.215,0.506L100.413,253.109z
		 M93.243,250.765c0.116-0.188,0.3-0.514,0.347-0.685c-0.504-0.735-1.37-1.536-2.119-2.006c-3.079-1.92-6.056-0.809-7.913,2.165
		c-1.911,3.062-1.552,5.891,1.552,7.829c0.851,0.529,1.892,0.92,2.822,1.041c0.111-0.111,0.314-0.405,0.464-0.651
		c0.19-0.304,0.371-0.753,0.433-1.077c-0.831-0.214-1.698-0.554-2.392-0.989c-1.862-1.164-1.917-2.941-0.717-4.865
		c1.309-2.093,3.106-2.595,4.753-1.567c0.694,0.431,1.459,1.132,2.017,1.782C92.643,251.594,92.963,251.213,93.243,250.765
		 M85.251,244.412c-0.197-0.214-0.583-0.554-0.879-0.78c-0.31-0.239-0.738-0.521-1.008-0.67l-4.445,5.797
		c-0.954,1.243-1.897,1.632-3.074,0.733c-1.175-0.902-0.987-1.873-0.035-3.116l4.443-5.796c-0.239-0.247-0.558-0.532-0.932-0.82
		c-0.327-0.25-0.699-0.491-0.999-0.66l-4.339,5.659c-1.781,2.325-1.941,4.238,0.68,6.248c2.595,1.989,4.469,1.39,6.25-0.934
		L85.251,244.412z M71.318,240.532c-1.786,1.92-3.335,2.336-4.906,0.873c-0.386-0.357-0.749-0.719-0.899-0.883l5.163-5.547
		c0.148,0.116,0.534,0.454,0.872,0.767C73.166,237.25,73.279,238.427,71.318,240.532 M73.141,242.273
		c2.806-3.016,2.477-5.482-0.266-8.034c-0.709-0.663-2.002-1.822-2.648-2.352l-7.839,8.422c0.366,0.407,1.522,1.533,2.223,2.184
		c1.369,1.277,2.562,1.991,3.893,2.116C70.072,244.744,71.688,243.831,73.141,242.273 M61.562,238.052
		c0.347-0.323,0.574-0.604,0.664-0.781l-3.248-3.488l2.07-1.926l2.656,2.852c0.319-0.181,0.566-0.363,0.842-0.62
		c0.347-0.323,0.564-0.593,0.652-0.771l-2.655-2.854l1.82-1.693l3.144,3.374c0.319-0.177,0.58-0.375,0.851-0.628
		c0.349-0.324,0.575-0.606,0.666-0.785l-4.797-5.156l-8.423,7.839l4.906,5.271C61.028,238.503,61.287,238.309,61.562,238.052"/>
	<path style="fill:#1A2A4F;" d="M200.312,242.174c0.588,1.118,0.285,1.853-0.952,2.505l-0.752,0.397l-1.587-3.011
		c0.245-0.151,0.646-0.382,0.979-0.553C198.995,240.984,199.726,241.062,200.312,242.174 M202.239,244.95
		c0.814-1.007,0.907-2.651,0.248-3.902c-1.237-2.349-2.993-2.575-5.554-1.224c-0.872,0.459-2.304,1.251-2.97,1.661l5.368,10.175
		c0.407-0.138,0.733-0.288,1.094-0.478c0.405-0.217,0.713-0.397,1.058-0.657l-1.932-3.656l0.891-0.47l3.994,2.569
		c0.317-0.092,0.745-0.298,1.169-0.52c0.465-0.247,0.855-0.49,1.217-0.759L202.239,244.95z M196.212,251.916
		c-0.178-0.44-0.36-0.751-0.494-0.899l-4.411,1.801l-1.071-2.615l3.608-1.474c-0.056-0.363-0.139-0.661-0.28-1.005
		c-0.18-0.443-0.356-0.738-0.49-0.885l-3.607,1.476l-0.942-2.306l4.271-1.742c-0.056-0.363-0.148-0.675-0.287-1.021
		c-0.18-0.439-0.363-0.752-0.497-0.9l-6.521,2.665l4.351,10.651l6.661-2.726C196.445,252.574,196.355,252.264,196.212,251.916
		 M183.13,245.844c-0.291,0.033-0.789,0.147-1.182,0.263c-0.407,0.12-0.805,0.274-1.149,0.432l1.33,4.472l-3.835,1.137l-1.332-4.469
		c-0.308,0.04-0.725,0.127-1.183,0.265c-0.406,0.12-0.851,0.29-1.146,0.43l3.279,11.029c0.324-0.047,0.759-0.138,1.198-0.269
		c0.487-0.146,0.84-0.287,1.133-0.426l-1.359-4.568l3.837-1.143l1.357,4.568c0.327-0.042,0.743-0.132,1.2-0.266
		c0.456-0.138,0.852-0.29,1.132-0.428L183.13,245.844z M173.189,254.696c-0.311,0-0.771,0.044-1.237,0.12
		c-0.421,0.069-0.852,0.175-1.161,0.278l0.602,3.628c-0.244,0.109-0.674,0.215-1.127,0.292c-2.033,0.335-3.284-0.96-3.664-3.243
		c-0.354-2.15,0.312-4.073,2.729-4.473c0.96-0.16,2.024-0.181,2.782-0.065c0.025-0.264,0.025-0.678-0.032-1.045
		c-0.029-0.186-0.132-0.581-0.227-0.843c-0.754-0.185-1.982-0.205-3.023-0.031c-3.646,0.604-5.277,3.444-4.706,6.903
		c0.548,3.309,2.611,5.449,6.39,4.825c1.328-0.222,2.719-0.676,3.525-1.207L173.189,254.696z M161.35,250.562
		c-0.311-0.023-0.735-0.02-1.21,0.021c-0.423,0.037-0.896,0.114-1.212,0.195l1.018,11.458c0.326,0.023,0.754,0.018,1.21-0.023
		c0.506-0.044,0.895-0.113,1.214-0.191L161.35,250.562z M156.589,251.047c-0.288-0.047-0.8-0.077-1.207-0.07
		c-0.428,0.007-0.851,0.044-1.226,0.102l0.06,4.664l-4.003,0.048l-0.058-4.662c-0.305-0.047-0.733-0.077-1.21-0.07
		c-0.423,0.006-0.9,0.047-1.221,0.101l0.146,11.504c0.324,0.046,0.765,0.076,1.226,0.071c0.509-0.007,0.884-0.046,1.205-0.102
		l-0.06-4.767l4.001-0.05l0.062,4.766c0.322,0.049,0.748,0.076,1.224,0.069c0.477-0.005,0.899-0.046,1.208-0.1L156.589,251.047z
		 M141.704,258.924c0.233-2.028-1.021-3.046-2.783-3.829c-1.468-0.647-2.058-1.041-1.965-1.836c0.076-0.677,0.819-1.021,2.088-0.876
		c0.777,0.091,1.728,0.316,2.547,0.634c0.099-0.261,0.19-0.746,0.227-1.07c0.051-0.438,0.051-0.747,0.023-0.937
		c-0.636-0.296-1.599-0.579-2.697-0.704c-2.384-0.272-4.328,0.688-4.565,2.783c-0.224,1.963,1.008,2.994,2.771,3.763
		c1.584,0.694,2.086,1.111,1.989,1.957c-0.088,0.763-0.793,1.247-1.996,1.108c-1.034-0.116-2.322-0.521-3.271-1.041
		c-0.171,0.441-0.268,0.826-0.312,1.23c-0.032,0.272-0.032,0.58-0.01,0.82c0.915,0.551,2.237,0.942,3.475,1.083
		C139.557,262.276,141.451,261.142,141.704,258.924 M131.344,260.02c0.099-0.466,0.125-0.825,0.099-1.021l-4.656-1.013l0.602-2.765
		l3.809,0.831c0.158-0.33,0.257-0.623,0.336-0.99c0.102-0.465,0.122-0.807,0.097-1.004l-3.807-0.83l0.527-2.431l4.51,0.982
		c0.158-0.333,0.259-0.641,0.338-1.008c0.102-0.463,0.127-0.823,0.102-1.021l-6.886-1.498l-2.447,11.243l7.036,1.527
		C131.161,260.693,131.263,260.386,131.344,260.02 M123.343,247.657c-0.224-0.132-0.548-0.281-0.918-0.411
		c-0.289-0.102-0.62-0.183-0.959-0.25l-5.792,6.242l-0.585-8.487c-0.173-0.116-0.532-0.275-0.918-0.411
		c-0.319-0.114-0.64-0.172-0.957-0.249l-4.289,10.688c0.273,0.15,0.694,0.333,0.953,0.424c0.433,0.152,0.939,0.296,1.168,0.323
		l2.503-6.446l0.437,6.345c0.16,0.111,0.5,0.267,0.791,0.368c0.241,0.085,0.638,0.188,0.837,0.188l4.309-4.654l-2.102,6.586
		c0.181,0.102,0.613,0.307,1.094,0.476c0.451,0.157,0.893,0.277,1.104,0.298L123.343,247.657z M110.738,242.995
		c-0.259-0.169-0.637-0.37-1.071-0.562c-0.393-0.171-0.842-0.327-1.156-0.411l-4.612,10.539c0.276,0.176,0.652,0.378,1.073,0.561
		c0.467,0.205,0.837,0.333,1.156,0.414L110.738,242.995z M106.788,242.459c0.136-0.255,0.337-0.745,0.379-0.974l-7.527-3.97
		c-0.164,0.165-0.469,0.597-0.604,0.854c-0.136,0.255-0.337,0.744-0.379,0.974l2.694,1.421l-4.399,8.342
		c0.275,0.203,0.666,0.446,1.041,0.646c0.377,0.198,0.8,0.384,1.108,0.488l4.401-8.339l2.695,1.421
		C106.361,243.157,106.653,242.716,106.788,242.459"/>
	<path style="fill:#1A2A4F;" d="M244.665,205.854c0.701,0.372,1.269,0.573,1.597,0.62l3.712-7.032l4.171,2.202l-3.035,5.75
		c0.461,0.402,0.886,0.691,1.438,0.982c0.701,0.373,1.243,0.56,1.573,0.606l3.033-5.75l3.67,1.934l-3.592,6.805
		c0.462,0.405,0.91,0.705,1.463,0.997c0.701,0.372,1.269,0.573,1.597,0.619l5.486-10.394l-16.973-8.953l-5.604,10.618
		C243.662,205.262,244.112,205.562,244.665,205.854 M265.866,198.337c0.347,0.122,0.943,0.303,1.24,0.316
		c1.018-1.089,2.005-2.786,2.495-4.18c2.008-5.703-0.877-10.148-6.395-12.091c-5.682-2.002-10.157-0.389-12.186,5.367
		c-0.555,1.58-0.812,3.417-0.668,4.971c0.222,0.142,0.774,0.366,1.23,0.523c0.562,0.198,1.357,0.33,1.903,0.312
		c0.054-1.427,0.294-2.968,0.748-4.251c1.216-3.457,4.093-4.188,7.654-2.933c3.886,1.366,5.358,4.114,4.281,7.165
		c-0.453,1.284-1.312,2.79-2.167,3.933C264.299,197.664,265.036,198.043,265.866,198.337 M273.736,180.959
		c0.179-0.485,0.385-1.255,0.486-1.782c0.103-0.53,0.184-1.266,0.208-1.839l-11.851-2.269l13.479-6.238
		c0.138-0.407,0.299-0.955,0.4-1.483c0.098-0.502,0.172-1.036,0.173-1.498l-18.847-3.61c-0.132,0.379-0.358,1.117-0.481,1.755
		c-0.149,0.782-0.224,1.633-0.213,1.866l12.071,2.312l-13.733,6.365c-0.169,0.428-0.287,0.896-0.378,1.371
		c-0.093,0.475-0.164,1.149-0.159,1.441L273.736,180.959z M259.635,160.488c0.793,0.03,1.393-0.035,1.708-0.137l0.302-7.942
		l4.714,0.178l-0.249,6.497c0.59,0.164,1.099,0.243,1.723,0.267c0.794,0.027,1.362-0.035,1.682-0.135l0.245-6.499l4.146,0.157
		l-0.292,7.688c0.59,0.166,1.126,0.242,1.751,0.266c0.793,0.03,1.39-0.03,1.706-0.132l0.447-11.743l-19.175-0.731l-0.457,12
		C258.475,160.384,259.011,160.463,259.635,160.488 M277.295,144.108c0.055-0.516,0.067-1.228,0.017-2.02
		c-0.044-0.708-0.154-1.497-0.271-2.028l-19.151,1.211c-0.051,0.543-0.062,1.256-0.014,2.019c0.054,0.849,0.149,1.497,0.268,2.031
		L277.295,144.108z M270.219,132.333c-2.071,0.345-3.078-0.525-3.459-2.824l-0.235-1.402l5.604-0.927
		c0.105,0.472,0.261,1.224,0.362,1.842C272.799,130.868,272.291,131.99,270.219,132.333 M264.812,133.919
		c1.166,1.82,3.724,2.833,6.046,2.449c4.372-0.724,5.655-3.382,4.867-8.144c-0.271-1.626-0.771-4.302-1.069-5.576l-18.931,3.136
		c0.001,0.717,0.074,1.312,0.184,1.982c0.124,0.756,0.248,1.339,0.48,2.019l6.806-1.127l0.271,1.654l-6.169,4.966
		c-0.023,0.55,0.079,1.339,0.208,2.124c0.145,0.865,0.324,1.614,0.557,2.322L264.812,133.919z M257.087,123.447
		c0.754-0.243,1.295-0.509,1.557-0.713l-2.454-7.563l4.484-1.456l2.008,6.183c0.61-0.046,1.115-0.15,1.706-0.342
		c0.755-0.248,1.271-0.502,1.529-0.706l-2.005-6.187l3.946-1.279l2.375,7.316c0.61-0.046,1.14-0.162,1.732-0.354
		c0.756-0.245,1.298-0.509,1.559-0.715l-3.631-11.176l-18.25,5.925l3.708,11.421C255.961,123.752,256.491,123.641,257.087,123.447
		 M261.421,101.52c-2.112,0.986-3.12,0.171-4.044-1.811l-0.746-1.598l5.123-2.389c0.267,0.502,0.604,1.159,0.847,1.675
		C263.548,99.432,263.222,100.678,261.421,101.52 M263.278,105.163c4.089-1.911,4.119-5.4,2.282-9.337
		c-0.688-1.469-1.82-3.694-2.595-5.149l-17.358,8.107c0.148,0.525,0.397,1.191,0.722,1.885c0.357,0.771,0.687,1.339,0.991,1.793
		l6.228-2.91l0.84,1.802C256.274,105.394,259.288,107.025,263.278,105.163 M236.497,84.473c0.217,0.435,0.598,1.171,0.976,1.739
		c0.344,0.521,0.92,1.295,1.242,1.629c1.043-0.688,2.35-1.071,3.604-1.083l4.773,0.023l-1.909,4.484
		c-0.512,1.187-1.273,2.195-2.271,2.954c0.225,0.5,0.633,1.217,0.974,1.739c0.392,0.595,0.891,1.249,1.227,1.605
		c1.291-0.982,2.41-2.435,3.178-4.469l2.271-5.847l5.116,0.239c1.992,0.083,3.557-0.067,5.2-0.877
		c-0.179-0.425-0.6-1.168-0.942-1.688c-0.375-0.572-0.915-1.235-1.228-1.605c-1.059,0.558-2.438,0.683-3.617,0.646l-3.519-0.13
		l1.325-3.252c0.495-1.21,0.958-2.366,1.925-3.171c-0.195-0.45-0.6-1.168-0.99-1.762c-0.328-0.498-0.891-1.25-1.212-1.582
		c-1.202,1.066-1.967,2.382-2.607,4.093l-2.036,5.32l-6.126-0.319C239.355,83.035,237.975,83.569,236.497,84.473 M237.352,82.697
		c0.596-0.527,0.983-0.985,1.142-1.279l-5.277-5.944l3.528-3.132l4.316,4.865c0.538-0.29,0.959-0.586,1.427-1.002
		c0.592-0.525,0.963-0.964,1.116-1.258l-4.315-4.865l3.107-2.752l5.106,5.754c0.539-0.289,0.98-0.604,1.445-1.018
		c0.594-0.527,0.982-0.985,1.143-1.277l-7.799-8.789l-14.357,12.735l7.971,8.981C236.445,83.428,236.886,83.111,237.352,82.697
		 M233.802,55.897c0.294-0.384,0.764-1.133,0.896-1.494l-11.262-8.636c-0.314,0.222-0.941,0.853-1.234,1.235
		c-0.294,0.381-0.759,1.131-0.896,1.494l4.034,3.092l-9.571,12.483c0.4,0.412,0.974,0.923,1.536,1.353
		c0.562,0.435,1.204,0.854,1.686,1.113l9.569-12.48l4.031,3.09C232.906,56.924,233.511,56.279,233.802,55.897 M220.077,43.256
		c-0.404-0.326-1.071-0.76-1.54-1.024c-0.472-0.261-1.142-0.573-1.681-0.777l-5.888,10.53l-1.675-14.758
		c-0.342-0.254-0.81-0.581-1.281-0.844c-0.444-0.25-0.928-0.488-1.365-0.636l-9.364,16.75c0.318,0.245,0.945,0.691,1.515,1.011
		c0.694,0.386,1.479,0.728,1.702,0.789l6-10.728l1.712,15.039c0.354,0.296,0.761,0.558,1.184,0.791
		c0.421,0.236,1.041,0.519,1.316,0.606L220.077,43.256z M196.289,50.036c0.279-0.742,0.413-1.33,0.418-1.663l-7.432-2.823
		l1.677-4.409l6.076,2.311c0.345-0.507,0.578-0.962,0.801-1.548c0.282-0.742,0.404-1.302,0.409-1.635l-6.076-2.309l1.473-3.878
		l7.194,2.734c0.342-0.507,0.59-0.99,0.809-1.575c0.283-0.74,0.414-1.328,0.419-1.658l-10.983-4.178l-6.819,17.937l11.223,4.268
		C195.821,51.102,196.064,50.619,196.289,50.036 M180.438,35.929c-0.931,4.277-2.802,6.192-6.299,5.431
		c-0.862-0.188-1.688-0.396-2.04-0.502l2.688-12.349c0.309,0.039,1.149,0.192,1.898,0.355
		C180.295,29.652,181.458,31.241,180.438,35.929 M184.527,36.88c1.462-6.714-1.108-9.973-7.215-11.306
		c-1.581-0.342-4.42-0.902-5.795-1.114l-4.083,18.75c0.867,0.275,3.49,0.905,5.042,1.244c3.053,0.662,5.378,0.678,7.386-0.28
		C182.23,43.035,183.773,40.347,184.527,36.88 M165.903,23.606c-0.477-0.115-1.323-0.226-1.945-0.263
		c-0.649-0.044-1.503-0.042-2.017,0.014l-0.771,12.155c-0.167,2.608-1.11,4.026-3.576,3.869c-2.465-0.155-3.11-1.677-2.943-4.282
		l0.77-12.157c-0.562-0.12-1.265-0.224-2.058-0.273c-0.681-0.041-1.421-0.032-1.99,0.017l-0.753,11.872
		c-0.31,4.874,1.249,7.672,6.745,8.021c5.439,0.342,7.478-2.228,7.788-7.098L165.903,23.606z M147.502,24.395
		c-0.042-0.479-0.207-1.346-0.35-1.704l-14.139,1.256c-0.079,0.377-0.116,1.262-0.072,1.744c0.042,0.479,0.204,1.347,0.35,1.705
		l5.062-0.451l1.392,15.67c0.571,0.032,1.339,0.021,2.047-0.039c0.706-0.063,1.462-0.188,1.994-0.321l-1.393-15.666l5.063-0.451
		C147.539,25.759,147.546,24.876,147.502,24.395 M133.804,37.377c-0.724-3.33-3.247-4.262-6.451-4.554
		c-2.667-0.231-3.807-0.537-4.091-1.841c-0.243-1.11,0.743-2.051,2.827-2.502c1.276-0.28,2.9-0.43,4.362-0.37
		c0.017-0.47-0.102-1.284-0.219-1.812c-0.155-0.721-0.32-1.205-0.467-1.494c-1.162-0.125-2.829-0.053-4.633,0.34
		c-3.913,0.854-6.464,3.412-5.715,6.849c0.701,3.22,3.203,4.187,6.4,4.453c2.875,0.245,3.89,0.633,4.191,2.021
		c0.273,1.249-0.583,2.394-2.554,2.824c-1.695,0.366-3.948,0.423-5.727,0.113c-0.032,0.791,0.023,1.446,0.168,2.111
		c0.098,0.444,0.261,0.93,0.428,1.3c1.737,0.376,4.038,0.282,6.066-0.16C132.218,43.821,134.596,41.011,133.804,37.377
		 M106.68,40.618c1.751,4.006,1.363,6.659-1.917,8.093c-0.807,0.352-1.601,0.668-1.948,0.791l-5.067-11.579
		c0.275-0.152,1.045-0.521,1.748-0.828C102.878,35.615,104.757,36.221,106.68,40.618 M110.55,38.987
		c-2.755-6.293-6.749-7.427-12.476-4.924c-1.48,0.649-4.11,1.861-5.35,2.498l7.69,17.581c0.867-0.287,3.358-1.314,4.815-1.952
		c2.863-1.254,4.751-2.604,5.819-4.557C112.298,45.322,111.97,42.239,110.55,38.987 M97.933,53.596
		c-0.42-0.673-0.809-1.133-1.07-1.337l-6.742,4.208l-2.5-3.999l5.519-3.444c-0.194-0.58-0.418-1.043-0.75-1.573
		c-0.418-0.673-0.792-1.11-1.054-1.314l-5.517,3.444l-2.194-3.521l6.524-4.073c-0.194-0.583-0.43-1.069-0.763-1.601
		c-0.419-0.67-0.807-1.131-1.066-1.336l-9.969,6.222l10.158,16.28l10.188-6.358C98.5,54.614,98.261,54.125,97.933,53.596
		 M69.454,58.381c-1.417-0.847-2.553-1.705-3.691-3.049c-0.444,0.264-1.11,0.754-1.607,1.175c-0.652,0.548-1.136,1.031-1.471,1.427
		c1.229,1.453,2.697,2.662,4.584,3.708l12.511,6.966c0.446-0.264,0.96-0.625,1.545-1.119c0.521-0.438,1.092-0.997,1.295-1.282
		l-4.762-13.593c-0.717-2.034-1.631-3.641-2.856-5.094c-0.446,0.266-1.133,0.773-1.592,1.159c-0.494,0.421-1.065,0.976-1.445,1.409
		c1.043,1.274,1.773,2.625,2.37,4.166l2.318,5.998c0.443,1.184,1.003,2.46,1.581,3.455l-0.041,0.035
		c-0.884-0.738-2.07-1.483-3.167-2.117L69.454,58.381z M65.164,69.333c3.377,2.995,3.855,5.28,2.234,7.107
		c-1.622,1.828-3.948,1.624-7.328-1.372c-3.377-2.997-3.855-5.285-2.232-7.11C59.46,66.13,61.787,66.333,65.164,69.333
		 M67.948,66.192c-4.672-4.147-9.233-4.479-12.721-0.551c-3.486,3.93-2.614,8.421,2.058,12.568
		c4.674,4.147,9.236,4.476,12.721,0.546C73.493,74.826,72.623,70.339,67.948,66.192 M50.189,82.235
		c1.781,1.109,1.964,2.428,0.731,4.405l-0.754,1.203l-4.817-3.004c0.231-0.425,0.615-1.092,0.945-1.622
		C47.289,81.626,48.406,81.12,50.189,82.235 M55.294,84.617c0.328-2.135-0.918-4.586-2.919-5.833
		c-3.753-2.346-6.473-1.203-9.029,2.894c-0.875,1.397-2.267,3.738-2.887,4.889l16.278,10.161c0.472-0.539,0.812-1.03,1.171-1.608
		c0.407-0.65,0.698-1.17,0.976-1.832l-5.852-3.652l0.888-1.425l7.913,0.354c0.381-0.395,0.828-1.057,1.249-1.73
		c0.465-0.745,0.821-1.425,1.117-2.112L55.294,84.617z M42.18,96.23c2.109,0.986,2.133,2.285,1.208,4.267l-0.745,1.594l-5.123-2.389
		c0.215-0.529,0.501-1.212,0.74-1.726C39.21,95.94,40.378,95.391,42.18,96.23 M43.778,92.469c-4.089-1.908-6.784,0.308-8.623,4.244
		c-0.685,1.469-1.663,3.765-2.283,5.294l17.363,8.106c0.305-0.451,0.654-1.07,0.981-1.765c0.358-0.772,0.585-1.387,0.735-1.911
		l-6.226-2.909l0.84-1.799C48.455,97.689,47.768,94.331,43.778,92.469 M30.333,108.385c-0.194,0.386-0.405,0.946-0.576,1.577
		c-0.131,0.493-0.224,1.055-0.292,1.626l11.103,8.858l-14.049,2.023c-0.168,0.306-0.396,0.923-0.571,1.578
		c-0.151,0.55-0.208,1.091-0.294,1.628l18.309,5.805c0.215-0.472,0.47-1.196,0.588-1.633c0.201-0.738,0.377-1.603,0.391-1.982
		l-11.03-3.365l10.498-1.513c0.162-0.28,0.379-0.87,0.516-1.363c0.111-0.411,0.233-1.084,0.206-1.417l-8.273-6.592l11.213,2.684
		c0.144-0.315,0.433-1.06,0.655-1.881c0.208-0.768,0.354-1.522,0.361-1.871L30.333,108.385z M24.916,132.078
		c-0.141,0.497-0.28,1.196-0.37,1.985c-0.079,0.705-0.113,1.5-0.087,2.044l19.065,2.181c0.144-0.527,0.28-1.226,0.368-1.987
		c0.097-0.844,0.116-1.499,0.09-2.042L24.916,132.078z M25.226,145.837c-0.48,0.019-1.355,0.137-1.721,0.266l0.539,14.181
		c0.373,0.1,1.256,0.179,1.739,0.162c0.481-0.019,1.358-0.137,1.719-0.266l-0.192-5.077l15.719-0.597
		c0.062-0.571,0.093-1.339,0.064-2.047c-0.027-0.71-0.113-1.473-0.219-2.007l-15.717,0.596l-0.194-5.079
		C26.59,145.871,25.709,145.819,25.226,145.837 M37.422,160.183c-3.36,0.558-4.42,3.032-4.874,6.215
		c-0.366,2.653-0.726,3.779-2.042,3.997c-1.122,0.188-2.012-0.847-2.359-2.949c-0.213-1.288-0.283-2.919-0.15-4.376
		c-0.465-0.04-1.289,0.039-1.818,0.127c-0.731,0.121-1.222,0.261-1.517,0.396c-0.183,1.152-0.192,2.821,0.108,4.643
		c0.652,3.952,3.081,6.626,6.552,6.05c3.252-0.536,4.342-2.99,4.765-6.168c0.391-2.856,0.83-3.852,2.231-4.085
		c1.261-0.208,2.362,0.705,2.69,2.695c0.285,1.709,0.226,3.962-0.171,5.724c0.787,0.069,1.446,0.046,2.116-0.064
		c0.447-0.074,0.942-0.213,1.318-0.363c0.465-1.714,0.486-4.018,0.148-6.064C43.778,162.094,41.091,159.574,37.422,160.183
		 M37.203,179.896c4.325-1.286,6.52-0.487,7.216,1.855c0.696,2.341-0.703,4.209-5.03,5.497c-4.331,1.289-6.523,0.488-7.219-1.854
		C31.474,183.053,32.873,181.185,37.203,179.896 M36.004,175.871c-5.988,1.781-8.675,5.482-7.179,10.518
		c1.5,5.035,5.771,6.666,11.759,4.882c5.99-1.781,8.676-5.479,7.18-10.514C46.265,175.722,41.993,174.091,36.004,175.871
		 M33.691,200.044c0.123,0.419,0.352,0.969,0.657,1.548c0.236,0.453,0.55,0.925,0.893,1.387l14.16-1.08l-8.9,11.054
		c0.085,0.342,0.337,0.945,0.657,1.548c0.264,0.502,0.592,0.937,0.893,1.388l17.358-8.226c-0.164-0.492-0.472-1.197-0.685-1.601
		c-0.356-0.677-0.816-1.427-1.063-1.713L47.294,209.4l6.649-8.263c-0.069-0.314-0.312-0.896-0.548-1.346
		c-0.199-0.377-0.569-0.953-0.817-1.176l-10.544,0.812l10.031-5.678c-0.106-0.329-0.402-1.071-0.799-1.825
		c-0.371-0.701-0.778-1.354-1.011-1.612L33.691,200.044z"/>
	<path style="fill:#BBA461;" d="M206.135,214.685c0-0.777-0.499-1.107-2.015-1.575c-1.686-0.518-2.921-1.327-2.917-3.14
		c0-1.938,1.666-3.013,3.87-3.013c1.015,0,1.919,0.158,2.528,0.358c0.048,0.171,0.078,0.451,0.078,0.855
		c0,0.297-0.03,0.752-0.092,1.002c-0.782-0.203-1.671-0.314-2.39-0.314c-1.173,0-1.812,0.391-1.812,1.018
		c0,0.733,0.576,1.028,1.984,1.469c1.687,0.529,2.934,1.325,2.934,3.202c0,2.043-1.607,3.276-3.764,3.276
		c-1.141,0-2.39-0.22-3.277-0.624c-0.046-0.218-0.079-0.499-0.079-0.75c0-0.372,0.049-0.73,0.158-1.154
		c0.92,0.375,2.137,0.61,3.09,0.608C205.54,215.905,206.135,215.39,206.135,214.685"/>
	<path style="fill:#BBA461;" d="M192.988,207.112h7.806c0.061,0.203,0.108,0.688,0.108,0.953c0,0.267-0.048,0.749-0.108,0.952
		h-2.796v8.647c-0.297,0.05-0.717,0.08-1.108,0.08c-0.391,0.001-0.812-0.03-1.121-0.08v-8.647h-2.797
		c-0.062-0.203-0.11-0.686-0.11-0.952C192.861,207.8,192.926,207.315,192.988,207.112"/>
	<path style="fill:#BBA461;" d="M183.447,207.112c0.247-0.047,0.543-0.063,0.825-0.063c0.296,0.003,0.608,0.033,0.845,0.063
		l4.762,6.639v-6.639c0.312-0.047,0.718-0.077,1.014-0.077c0.299,0,0.735,0.03,1.018,0.077v10.553
		c-0.157,0.033-0.532,0.063-0.798,0.063c-0.265,0-0.529-0.014-0.78-0.063l-4.858-6.758v6.758c-0.125,0.033-0.593,0.08-1.027,0.08
		c-0.361,0-0.782-0.047-0.999-0.08V207.112z"/>
	<path style="fill:#BBA461;" d="M187.937,196.773c0,2.486-0.766,3.516-2.109,3.516c-1.346,0-2.109-1.029-2.109-3.516
		c0-2.484,0.764-3.514,2.106-3.514C187.171,193.26,187.937,194.289,187.937,196.773 M190.244,196.773
		c0-3.436-1.53-5.434-4.417-5.434c-2.89,0-4.42,1.998-4.42,5.434c0,3.437,1.53,5.436,4.42,5.436
		C188.714,202.209,190.244,200.21,190.244,196.773"/>
	<path style="fill:#BBA461;" d="M175.436,207.112h6.462c0.062,0.173,0.108,0.499,0.108,0.937c0,0.342-0.03,0.641-0.108,0.969h-4.232
		v2.281h3.577c0.062,0.168,0.109,0.483,0.109,0.92c0,0.343-0.03,0.623-0.109,0.95h-3.577v2.596h4.373
		c0.063,0.171,0.109,0.5,0.109,0.936c0,0.344-0.03,0.641-0.109,0.965h-6.603V207.112z"/>
	<path style="fill:#BBA461;" d="M174.802,198.521v3.53c-0.297,0.046-0.641,0.078-1.108,0.078c-0.423,0-0.828-0.032-1.124-0.078
		v-3.561l-2.28-4.449c-0.497-0.97-0.766-1.766-0.766-2.561c0.252-0.03,0.703-0.062,1.094-0.062c0.375,0,0.796,0.014,1.092,0.062
		c0,0.657,0.095,1.094,0.455,1.843l1.044,2.154c0.235,0.467,0.439,1.031,0.502,1.357h0.017c0.078-0.326,0.325-0.904,0.513-1.31
		l1.078-2.264c0.233-0.486,0.374-1.049,0.374-1.765c0.297-0.047,0.764-0.079,1.139-0.079c0.438,0,0.766,0.032,1.017,0.079
		c0,0.795-0.313,1.748-0.656,2.419L174.802,198.521z"/>
	<path style="fill:#BBA461;" d="M171.734,212.235c0,2.403-0.781,3.654-2.75,3.654c-0.485,0-0.953-0.016-1.156-0.03v-6.952
		c0.171-0.016,0.643-0.029,1.062-0.029C170.923,208.878,171.734,209.594,171.734,212.235 M174.043,212.266
		c0-3.779-1.761-5.231-5.198-5.231c-0.89,0-2.483,0.034-3.247,0.078v10.556c0.5,0.048,1.982,0.077,2.857,0.078
		c1.716-0.001,2.967-0.268,3.934-1.015C173.529,215.844,174.043,214.217,174.043,212.266"/>
	<path style="fill:#BBA461;" d="M167.261,198.851c0,1.048-0.673,1.438-2.062,1.438c-0.299,0-0.733-0.017-1.031-0.03v-2.845h1.094
		C166.681,197.414,167.261,197.772,167.261,198.851 M166.542,194.384c0,0.956-0.483,1.281-1.499,1.283l-0.876-0.002v-2.375
		c0.249-0.014,0.562-0.03,0.844-0.03C165.776,193.263,166.542,193.4,166.542,194.384 M167.323,196.322
		c0.983-0.437,1.404-1.187,1.404-2.186c0-1.984-1.469-2.718-3.872-2.718c-0.812,0-2.017,0.03-2.921,0.093v10.525
		c1.108,0.061,2.186,0.093,3.294,0.093c2.485,0,4.246-0.828,4.246-3.261C169.475,197.585,168.633,196.635,167.323,196.322"/>
	<path style="fill:#BBA461;" d="M155.759,207.112c0.312-0.047,0.717-0.077,1.092-0.077c0.439,0,0.828,0.03,1.141,0.077v6.697
		c0,1.439,0.404,2.251,1.765,2.251c1.359,0,1.827-0.812,1.827-2.251v-6.697c0.282-0.047,0.749-0.077,1.107-0.077
		c0.346,0,0.814,0.03,1.075,0.077v6.543c0,2.686-1.026,4.168-4.023,4.168c-3.03,0-3.983-1.482-3.983-4.168V207.112z"/>
	<path style="fill:#BBA461;" d="M154.861,194.775c0,1.154-0.562,1.623-1.844,1.623h-0.781v-3.122
		c0.266-0.017,0.688-0.032,1.029-0.032C154.3,193.244,154.861,193.618,154.861,194.775 M157.109,194.789
		c0-2.434-1.327-3.37-3.982-3.37c-0.906,0-2.403,0.032-3.123,0.076v10.557c0.388,0.062,0.72,0.078,1.092,0.078
		c0.423,0,0.749-0.016,1.14-0.078v-3.793h0.92l2.142,3.793c0.297,0.062,0.734,0.078,1.171,0.078c0.483,0,0.905-0.029,1.312-0.093
		l-2.544-4.187C156.328,197.382,157.109,196.086,157.109,194.789"/>
	<path style="fill:#BBA461;" d="M149.715,209.016h-2.794c-0.064-0.204-0.108-0.687-0.108-0.95c0-0.266,0.06-0.75,0.122-0.953
		l7.806,0.003c0.064,0.2,0.108,0.685,0.108,0.95c0,0.264-0.044,0.746-0.108,0.95h-2.794v8.652c-0.296,0.044-0.717,0.078-1.108,0.078
		c-0.388,0-0.812-0.034-1.124-0.078V209.016z"/>
	<path style="fill:#BBA461;" d="M144.641,214.685c0-0.778-0.5-1.107-2.015-1.575c-1.688-0.518-2.919-1.329-2.919-3.14
		c0-1.938,1.668-3.013,3.869-3.013c1.016,0,1.922,0.155,2.531,0.358c0.046,0.171,0.079,0.451,0.079,0.855
		c0,0.301-0.033,0.752-0.093,1.002c-0.782-0.203-1.672-0.314-2.392-0.314c-1.172,0-1.811,0.391-1.811,1.018
		c0,0.733,0.578,1.028,1.984,1.469c1.687,0.529,2.936,1.328,2.936,3.202c0,2.043-1.607,3.276-3.763,3.276
		c-1.141,0-2.389-0.217-3.277-0.624c-0.049-0.218-0.079-0.498-0.079-0.75c0-0.372,0.047-0.73,0.155-1.154
		c0.921,0.375,2.138,0.61,3.093,0.61C144.046,215.905,144.641,215.39,144.641,214.685"/>
	<path style="fill:#BBA461;" d="M146.304,196.773c0,2.486-0.763,3.516-2.107,3.516c-1.346,0-2.111-1.029-2.111-3.516
		c0-2.484,0.765-3.514,2.109-3.514C145.541,193.26,146.304,194.289,146.304,196.773 M148.614,196.773
		c0-3.436-1.531-5.434-4.418-5.434c-2.889,0-4.42,1.998-4.42,5.434c0,3.437,1.529,5.436,4.418,5.436S148.614,200.21,148.614,196.773
		"/>
	<path style="fill:#BBA461;" d="M138.699,197.555h-3.5v4.497c-0.296,0.049-0.641,0.078-1.107,0.078
		c-0.421,0-0.829-0.029-1.125-0.078v-10.554h6.386c0.062,0.17,0.109,0.499,0.109,0.937c0,0.342-0.03,0.638-0.109,0.964h-4.154v2.283
		h3.5c0.06,0.171,0.106,0.483,0.106,0.921C138.805,196.944,138.775,197.227,138.699,197.555"/>
	<path style="fill:#BBA461;" d="M133.585,212.391c0,2.642-0.437,3.608-1.436,3.608c-1.002,0.001-1.439-0.967-1.439-3.608
		c0-2.686,0.437-3.609,1.439-3.609C133.148,208.781,133.585,209.703,133.585,212.391 M135.879,212.391
		c0-3.624-1.219-5.434-3.701-5.434c-2.498,0-3.763,1.81-3.763,5.434c0,3.592,1.217,5.433,3.717,5.433
		C134.614,217.823,135.879,215.982,135.879,212.391"/>
	<path style="fill:#BBA461;" d="M125.494,212.391c0.002,2.642-0.435,3.608-1.434,3.608c-1.002,0-1.438-0.967-1.438-3.608
		c0-2.686,0.437-3.61,1.438-3.609C125.06,208.781,125.494,209.705,125.494,212.391 M127.791,212.391
		c0-3.624-1.219-5.434-3.701-5.434c-2.499,0-3.763,1.81-3.763,5.434c0,3.592,1.216,5.433,3.717,5.433
		C126.526,217.823,127.791,215.982,127.791,212.391"/>
	<path style="fill:#BBA461;" d="M126.223,196.618c0,2.405-0.782,3.654-2.75,3.654c-0.483,0-0.953-0.016-1.156-0.03v-6.952
		c0.173-0.017,0.641-0.03,1.063-0.03C125.409,193.26,126.223,193.977,126.223,196.618 M128.531,196.65
		c0-3.781-1.763-5.231-5.2-5.229c-0.89,0-2.481,0.03-3.247,0.074v10.557c0.5,0.049,1.985,0.078,2.856,0.078
		c1.721,0,2.967-0.266,3.937-1.013C128.018,200.227,128.531,198.601,128.531,196.65"/>
	<path style="fill:#BBA461;" d="M117.406,212.391c0,2.642-0.435,3.609-1.436,3.608c-1.002,0-1.437-0.967-1.437-3.608
		c0-2.686,0.435-3.609,1.437-3.609C116.971,208.781,117.408,209.705,117.406,212.391 M119.701,212.391
		c0-3.624-1.217-5.434-3.699-5.434c-2.5,0-3.763,1.81-3.763,5.434c0,3.592,1.217,5.433,3.714,5.433
		C118.435,217.823,119.701,215.982,119.701,212.391"/>
	<path style="fill:#BBA461;" d="M114.307,197.555v2.593h4.372c0.062,0.174,0.108,0.5,0.108,0.936c0,0.344-0.029,0.643-0.108,0.969
		h-6.604v-10.554l6.462-0.003c0.062,0.173,0.109,0.5,0.109,0.939c0,0.342-0.03,0.638-0.109,0.964h-4.23v2.285h3.576
		c0.06,0.169,0.108,0.481,0.108,0.919c0,0.342-0.03,0.624-0.108,0.952H114.307z"/>
	<path style="fill:#BBA461;" d="M108.505,219.634c0.657-0.467,1.138-1.028,1.358-1.607c-0.296-0.265-0.532-0.638-0.529-1.156
		c-0.003-0.607,0.529-1.107,1.154-1.107c0.703,0,1.17,0.516,1.17,1.281c0,1.218-1.14,2.669-2.479,3.451
		C108.926,220.321,108.601,219.993,108.505,219.634"/>
	<path style="fill:#BBA461;" d="M108.214,193.4v8.651c-0.295,0.049-0.717,0.078-1.107,0.078c-0.389,0-0.81-0.029-1.122-0.078V193.4
		h-2.794c-0.064-0.203-0.111-0.687-0.111-0.952c0-0.267,0.062-0.75,0.125-0.95h7.806c0.062,0.2,0.108,0.684,0.108,0.95
		c0,0.266-0.046,0.749-0.108,0.952H108.214z"/>
	<path style="fill:#BBA461;" d="M105.758,214.358c0-0.452-0.125-0.86-0.391-1.126c-0.345-0.343-0.92-0.485-1.768-0.485h-2.044
		v-5.635h5.903c0.048,0.25,0.078,0.641,0.078,0.923c0,0.297-0.048,0.81-0.078,0.997h-3.904v1.938h0.689
		c1.219,0,2.186,0.22,2.873,0.812c0.608,0.53,0.951,1.342,0.951,2.468c0,2.387-1.825,3.573-3.951,3.573
		c-0.841,0-2.09-0.172-2.951-0.468c-0.03-0.111-0.074-0.391-0.074-0.702c0-0.343,0.044-0.701,0.139-0.997
		c0.717,0.218,1.828,0.357,2.699,0.357C105.039,216.014,105.758,215.42,105.758,214.358"/>
	<path style="fill:#BBA461;" d="M92.983,209.36l3.668-2.248c0.219-0.047,0.67-0.077,0.904-0.077c0.266,0,0.752,0.044,0.907,0.077
		v10.553c-0.236,0.05-0.655,0.08-1.105,0.08c-0.439,0-0.829-0.03-1.11-0.08v-8.068l-2.216,1.469
		C93.499,210.58,93.125,209.924,92.983,209.36"/>
	<path style="fill:#BBA461;" d="M100.519,196.773c0,2.486-0.765,3.516-2.109,3.516c-1.344,0-2.11-1.029-2.11-3.516
		c0-2.484,0.766-3.514,2.11-3.514C99.754,193.26,100.519,194.289,100.519,196.773 M102.828,196.773c0-3.436-1.527-5.434-4.418-5.434
		c-2.889,0-4.42,1.998-4.42,5.434c0,3.437,1.532,5.436,4.42,5.436C101.299,202.209,102.828,200.21,102.828,196.773"/>
	<path style="fill:#BBA461;" d="M84.856,191.498c0.28-0.047,0.655-0.079,1.124-0.079c0.358,0,0.81,0.032,1.092,0.079
		c0,0.967,0.173,1.732,0.47,2.59l1.187,3.342c0.233,0.657,0.469,1.391,0.578,2.016h0.03c0.108-0.627,0.328-1.358,0.562-2.016
		l1.154-3.342c0.301-0.857,0.47-1.687,0.485-2.59c0.315-0.047,0.75-0.079,1.11-0.079c0.327,0,0.795,0.032,1.078,0.079
		c0,1.045-0.187,2.044-0.611,3.154l-2.827,7.399c-0.187,0.046-0.624,0.078-0.999,0.078c-0.423,0-0.765-0.032-1.045-0.078
		l-2.78-7.372C85.043,193.572,84.856,192.543,84.856,191.498"/>
	<path style="fill:#BBA461;" d="M199.381,191.498c0,1.045-0.188,2.044-0.608,3.154l-2.829,7.399
		c-0.185,0.046-0.622,0.076-0.999,0.076c-0.42,0-0.764-0.03-1.043-0.076l-2.782-7.369c-0.421-1.108-0.608-2.14-0.608-3.185
		c0.279-0.049,0.657-0.079,1.127-0.079c0.355,0,0.809,0.03,1.091,0.079c0,0.967,0.172,1.732,0.468,2.59l1.188,3.342
		c0.234,0.657,0.467,1.391,0.576,2.013h0.032c0.109-0.622,0.328-1.355,0.562-2.013l1.154-3.342c0.298-0.857,0.469-1.687,0.485-2.59
		c0.312-0.049,0.75-0.079,1.107-0.079C198.632,191.419,199.099,191.449,199.381,191.498"/>
	<path style="fill:#BBA461;" d="M207.095,201.085c0,0.342-0.03,0.638-0.109,0.969l-6.604-0.002v-10.554h6.464
		c0.062,0.17,0.108,0.499,0.108,0.934c0,0.345-0.03,0.641-0.111,0.969h-4.23v2.281h3.577c0.061,0.174,0.11,0.483,0.11,0.921
		c0,0.345-0.036,0.624-0.11,0.952h-3.577v2.593h4.373C207.046,200.319,207.095,200.647,207.095,201.085"/>
	<path style="fill:#BBA461;" d="M213.247,194.775c0,1.154-0.56,1.623-1.841,1.623h-0.782v-3.122
		c0.267-0.017,0.688-0.032,1.029-0.032C212.688,193.244,213.247,193.621,213.247,194.775 M215.495,194.789
		c0-2.434-1.325-3.37-3.98-3.37c-0.907,0-2.406,0.032-3.122,0.079v10.554c0.391,0.062,0.716,0.078,1.092,0.078
		c0.42,0,0.749-0.016,1.14-0.078v-3.793h0.921l2.143,3.793c0.294,0.062,0.732,0.078,1.17,0.078c0.482,0,0.903-0.029,1.311-0.095
		l-2.547-4.185C214.716,197.382,215.495,196.086,215.495,194.789"/>
</g>
</svg>
