<?xml version="1.0" encoding="utf-8"?>
<!-- Generator: Adobe Illustrator 16.0.0, SVG Export Plug-In . SVG Version: 6.00 Build 0)  -->
<!DOCTYPE svg PUBLIC "-//W3C//DTD SVG 1.0//EN" "http://www.w3.org/TR/2001/REC-SVG-20010904/DTD/svg10.dtd">
<svg version="1.0" xmlns="http://www.w3.org/2000/svg" xmlns:xlink="http://www.w3.org/1999/xlink" x="0px" y="0px" width="300px"
	 height="300px" viewBox="0 0 300 300" style="enable-background:new 0 0 300 300;" xml:space="preserve">
<g id="Layer_1">
	<rect x="84.769" y="205.98" style="fill:#B4A168;" width="128.959" height="64.481"/>
	<rect x="84.769" y="69.911" style="fill:#B4A168;" width="128.959" height="31.61"/>
	<g>
		<defs>
			<rect id="SVGID_1_" x="-510.465" y="-367.419" width="1199.999" height="1246"/>
		</defs>
		<clipPath id="SVGID_2_">
			<use xlink:href="#SVGID_1_"  style="overflow:visible;"/>
		</clipPath>
		<path style="clip-path:url(#SVGID_2_);fill:#B4A168;" d="M129.653,46.632l-6.804-3.443l-1.038-3.39l1.768,1.752
			c0.384,0.478,0.947,0.727,1.519,0.727c0.405,0,0.815-0.127,1.164-0.389l6.653-4.988L129.653,46.632z M150.855,69.73
			l-13.702-35.183c1.212-0.521,2.066-1.714,2.098-3.111h1.153v-0.93h-2.613v-1.067h0.681c1.037,0,1.922-0.633,2.292-1.534h1.389
			v-1.889h-1.389c-0.37-0.9-1.256-1.534-2.292-1.534h-5.361c-1.032,0-1.916,0.634-2.29,1.534h-1.388v1.889h1.388
			c0.374,0.901,1.258,1.534,2.29,1.534h0.685v1.067h-2.612v0.93h1.152c0.009,0.473,0.116,0.923,0.298,1.333
			c-0.418-0.008-0.84,0.111-1.201,0.38l-6,4.502l-4.673-5.82c-0.174-0.215-0.383-0.382-0.613-0.503
			c-0.182-0.249-0.384-0.485-0.607-0.704c0.863,0.064,1.915,0.094,3.197,0.071c-0.052-0.005-0.108-0.009-0.162-0.014
			c1.475-0.445,2.742-1.459,3.477-2.881c0.495-0.962,0.705-1.999,0.646-3.014l-0.113-0.007l-0.513-0.042l-10.208-0.8l-0.617-0.05
			l-0.042-0.003c-0.149,0.64-0.188,1.306-0.094,1.97c0.177,1.277,0.781,2.433,1.641,3.321c-2.438-0.473-4.949,0.769-5.95,3.112
			l-4.583,10.73c-0.712,1.669-0.49,3.502,0.426,4.939l-1.545,9.551l-8.362,8.773c-1.036,1.089-0.994,2.811,0.093,3.848
			c0.528,0.503,1.204,0.751,1.878,0.751c0.72,0,1.435-0.282,1.971-0.844l8.943-9.384c0.378-0.396,0.628-0.9,0.716-1.441l1.198-7.407
			l5.677,5.606l-3.524,10.19c-0.491,1.421,0.262,2.972,1.684,3.462c0.294,0.103,0.593,0.152,0.889,0.152
			c1.129,0,2.183-0.708,2.572-1.833l4.084-11.813c0.343-0.99,0.086-2.09-0.66-2.827l-6.606-6.524
			c0.204-0.291,0.378-0.608,0.524-0.947l2.057-4.819l0.865,2.823c0.168,0.547,0.55,1,1.059,1.258l8.148,4.121l-6.281,18.745
			c-0.206,0.611,0.124,1.272,0.735,1.478c0.611,0.203,1.272-0.125,1.476-0.736l6.448-19.242c0.386-0.194,0.714-0.51,0.923-0.923
			c0.306-0.609,0.289-1.296,0.011-1.865l3.842-11.468l13.221,33.94c0.18,0.461,0.619,0.743,1.087,0.743
			c0.141,0,0.283-0.026,0.42-0.08C150.793,71.007,151.088,70.33,150.855,69.73"/>
		<path style="clip-path:url(#SVGID_2_);fill:#B4A168;" d="M120.675,17.063c-2.881,1.146-4,5.558-4,5.558l-1.146-0.148
			C117.234,17.063,120.675,17.063,120.675,17.063 M115.243,23.423l0.028,0.002l0.515,0.041l0.105,0.008l9.734,0.765l0.532,0.042
			l0.516,0.041l0.167,0.012c0.02,0.002,0.039-0.002,0.06-0.002c0.444,0.004,0.826-0.345,0.86-0.807
			c0.038-0.482-0.312-0.902-0.784-0.941l0.053,0.005c-0.24-1.144-0.78-4.539-3.796-5.647l-0.007,0.037
			c-0.245-0.124-0.499-0.232-0.765-0.316c-0.167-0.496-0.546-0.859-1.022-0.896c-0.456-0.036-0.872,0.244-1.12,0.677
			c-0.379,0.039-0.746,0.121-1.097,0.235c-1.603,0.406-2.884,1.512-3.455,2.618c-0.405,0.897-0.776,2.199-0.947,4.087
			c0.008,0.002,0.337,0.033,0.344,0.033L115.243,23.423z"/>
	</g>
</g>
<g id="Layer_2" style="display:none;">
	<text transform="matrix(1 0 0 1 92.0537 246.6953)" style="display:inline;"><tspan x="0" y="0" style="fill:#462B56; font-family:'FSMatthew-Bold'; font-size:51.1812;">C</tspan><tspan x="28.764" y="0" style="fill:#462B56; font-family:'FSMatthew-Bold'; font-size:51.1812;">I</tspan><tspan x="43.146" y="0" style="fill:#462B56; font-family:'FSMatthew-Bold'; font-size:51.1812;">V</tspan><tspan x="73.393" y="0" style="fill:#462B56; font-family:'FSMatthew-Bold'; font-size:51.1812; letter-spacing:-1;">I</tspan><tspan x="87.569" y="0" style="fill:#462B56; font-family:'FSMatthew-Bold'; font-size:51.1812;">L</tspan></text>
	<text transform="matrix(1 0 0 1 93.1914 264.4443)" style="display:inline;"><tspan x="0" y="0" style="fill:#462B56; font-family:'FSMatthew-Bold'; font-size:18.7665;">E</tspan><tspan x="9.815" y="0" style="fill:#462B56; font-family:'FSMatthew-Bold'; font-size:18.7665;">NG</tspan><tspan x="34.173" y="0" style="fill:#462B56; font-family:'FSMatthew-Bold'; font-size:18.7665;">I</tspan><tspan x="39.372" y="0" style="fill:#462B56; font-family:'FSMatthew-Bold'; font-size:18.7665;">N</tspan><tspan x="52.001" y="0" style="fill:#462B56; font-family:'FSMatthew-Bold'; font-size:18.7665;">E</tspan><tspan x="61.591" y="0" style="fill:#462B56; font-family:'FSMatthew-Bold'; font-size:18.7665;">E</tspan><tspan x="71.425" y="0" style="fill:#462B56; font-family:'FSMatthew-Bold'; font-size:18.7665;">R</tspan><tspan x="82.29" y="0" style="fill:#462B56; font-family:'FSMatthew-Bold'; font-size:18.7665;">IN</tspan><tspan x="100.137" y="0" style="fill:#462B56; font-family:'FSMatthew-Bold'; font-size:18.7665;">G</tspan></text>
	<text transform="matrix(1 0 0 1 94.2529 96.0557)" style="display:inline;"><tspan x="0" y="0" style="fill:#462B56; font-family:'FSMatthew-Bold'; font-size:29.8557;">R</tspan><tspan x="17.884" y="0" style="fill:#462B56; font-family:'FSMatthew-Bold'; font-size:29.8557;">ANK</tspan><tspan x="74.758" y="0" style="fill:#462B56; font-family:'FSMatthew-Bold'; font-size:29.8557;">E</tspan><tspan x="90.372" y="0" style="fill:#462B56; font-family:'FSMatthew-Bold'; font-size:29.8557;">D</tspan></text>
	<text transform="matrix(1 0 0 1 95.4941 151.7461)" style="display:inline;"><tspan x="0" y="0" style="fill:#462B56; font-family:'FSMatthew-Bold'; font-size:63.9543; letter-spacing:-3;">T</tspan><tspan x="31.529" y="0" style="fill:#462B56; font-family:'FSMatthew-Bold'; font-size:63.9543; letter-spacing:-2;">O</tspan><tspan x="70.86" y="0" style="fill:#462B56; font-family:'FSMatthew-Bold'; font-size:63.9543;">P</tspan></text>
	<text transform="matrix(1 0 0 1 94.8213 200.0752)" style="display:inline;"><tspan x="0" y="0" style="fill:#462B56; font-family:'FSMatthew-Bold'; font-size:63.9543; letter-spacing:-2;">TE</tspan><tspan x="64.594" y="0" style="fill:#462B56; font-family:'FSMatthew-Bold'; font-size:63.9543;">N</tspan></text>
	<text transform="matrix(1 0 0 1 85.6055 283.5537)" style="display:inline;"><tspan x="0" y="0" style="fill:#462B56; font-family:'FSMatthew'; font-size:10.9097;">(</tspan><tspan x="3.545" y="0" style="fill:#462B56; font-family:'FSMatthew'; font-size:10.9097;">THE </tspan><tspan x="23.532" y="0" style="fill:#462B56; font-family:'FSMatthew'; font-size:10.9097;">G</tspan><tspan x="30.022" y="0" style="fill:#462B56; font-family:'FSMatthew'; font-size:10.9097;">U</tspan><tspan x="36.47" y="0" style="fill:#462B56; font-family:'FSMatthew'; font-size:10.9097;">ARDIAN, </tspan><tspan x="75.679" y="0" style="fill:#462B56; font-family:'FSMatthew'; font-size:10.9097;">2</tspan><tspan x="81.33" y="0" style="fill:#462B56; font-family:'FSMatthew'; font-size:10.9097;">016/2</tspan><tspan x="107.338" y="0" style="fill:#462B56; font-family:'FSMatthew'; font-size:10.9097;">0</tspan><tspan x="112.989" y="0" style="fill:#462B56; font-family:'FSMatthew'; font-size:10.9097;">17</tspan><tspan x="124.313" y="0" style="fill:#462B56; font-family:'FSMatthew'; font-size:10.9097;">)</tspan></text>
</g>
<g id="Layer_3">
	<g>
		<path style="fill:#462B56;" d="M119.485,219.315c-2.457-0.768-5.527-1.331-7.984-1.331c-5.834,0-9.622,4.146-9.622,11.566
			c0,6.807,2.968,11.259,9.57,11.259c2.457,0,5.22-0.512,7.677-1.279c0.358,0.921,0.614,2.354,0.614,3.429
			c0,0.87-0.051,1.945-0.154,2.405c-2.559,1.178-5.834,1.843-8.854,1.843c-11.003,0-16.428-6.653-16.428-17.503
			c0-10.543,5.834-18.117,16.735-18.117c2.662,0,6.142,0.666,8.598,1.74c0.153,0.512,0.205,1.638,0.205,2.303
			C119.843,217.217,119.639,218.701,119.485,219.315z"/>
		<path style="fill:#462B56;" d="M132.077,246.695c-0.973,0.153-2.149,0.256-3.685,0.256c-1.382,0-2.661-0.103-3.633-0.256v-34.597
			c0.972-0.153,2.405-0.256,3.685-0.256c1.433,0,2.712,0.103,3.634,0.256V246.695z"/>
		<path style="fill:#462B56;" d="M148.863,231.547c0.769,2.149,1.536,4.555,1.894,6.602h0.103c0.358-2.047,1.075-4.452,1.843-6.602
			l3.787-10.952c0.973-2.815,1.535-5.527,1.587-8.496c1.023-0.153,2.456-0.256,3.633-0.256c1.075,0,2.61,0.103,3.531,0.256
			c0,3.43-0.613,6.705-1.995,10.338l-9.264,24.259c-0.614,0.153-2.047,0.256-3.275,0.256c-1.382,0-2.508-0.103-3.429-0.256
			l-9.11-24.156c-1.382-3.634-1.996-7.011-1.996-10.44c0.921-0.153,2.15-0.256,3.685-0.256c1.177,0,2.661,0.103,3.582,0.256
			c0,3.174,0.563,5.681,1.536,8.496L148.863,231.547z"/>
		<path style="fill:#462B56;" d="M176.705,246.695c-0.972,0.153-2.149,0.256-3.685,0.256c-1.382,0-2.661-0.103-3.634-0.256v-34.597
			c0.973-0.153,2.405-0.256,3.686-0.256c1.433,0,2.712,0.103,3.633,0.256V246.695z"/>
		<path style="fill:#462B56;" d="M204.649,246.695h-21.188v-34.597c0.973-0.153,2.304-0.256,3.583-0.256
			c1.433,0,2.814,0.103,3.736,0.256v28.353h13.869c0.204,0.563,0.357,1.638,0.357,3.071
			C205.007,244.648,204.905,245.62,204.649,246.695z"/>
	</g>
	<g>
		<path style="fill:#462B56;" d="M102.538,264.444h-7.939v-12.688h7.77c0.075,0.207,0.131,0.601,0.131,1.126
			c0,0.413-0.038,0.77-0.131,1.164h-5.086v2.74h4.298c0.075,0.206,0.131,0.582,0.131,1.107c0,0.412-0.038,0.75-0.131,1.145h-4.298
			v3.115h5.255c0.075,0.207,0.131,0.601,0.131,1.126C102.669,263.693,102.632,264.05,102.538,264.444z"/>
		<path style="fill:#462B56;" d="M114.586,264.444c-0.188,0.037-0.638,0.075-0.957,0.075c-0.319,0-0.638-0.019-0.938-0.075
			l-5.837-8.127v8.127c-0.15,0.037-0.713,0.094-1.239,0.094c-0.432,0-0.938-0.057-1.201-0.094v-12.688
			c0.3-0.057,0.657-0.075,0.995-0.075c0.356,0,0.732,0.038,1.014,0.075l5.724,7.977v-7.977c0.375-0.057,0.863-0.094,1.22-0.094
			c0.357,0,0.882,0.037,1.22,0.094V264.444z"/>
		<path style="fill:#462B56;" d="M126.597,263.956c-0.976,0.432-2.571,0.676-4.054,0.676c-4.223,0-6.081-2.702-6.081-6.399
			c0-3.866,2.29-6.663,6.363-6.663c1.164,0,2.496,0.244,3.284,0.582c0.056,0.3,0.094,0.75,0.094,0.957
			c0,0.413-0.075,0.863-0.15,1.145c-0.807-0.263-1.971-0.432-3.041-0.432c-2.703,0-3.772,1.971-3.772,4.373
			c0,2.553,1.126,4.186,3.397,4.186c0.507,0,0.995-0.038,1.276-0.112v-4.055c0.356-0.056,0.845-0.094,1.314-0.094
			c0.525,0,1.032,0.038,1.37,0.094V263.956z"/>
		<path style="fill:#462B56;" d="M131.494,264.444c-0.356,0.057-0.788,0.094-1.351,0.094c-0.507,0-0.976-0.037-1.333-0.094v-12.688
			c0.356-0.057,0.882-0.094,1.351-0.094c0.525,0,0.995,0.037,1.333,0.094V264.444z"/>
		<path style="fill:#462B56;" d="M144.143,264.444c-0.188,0.037-0.638,0.075-0.957,0.075c-0.318,0-0.638-0.019-0.938-0.075
			l-5.836-8.127v8.127c-0.15,0.037-0.713,0.094-1.239,0.094c-0.432,0-0.938-0.057-1.201-0.094v-12.688
			c0.3-0.057,0.657-0.075,0.995-0.075c0.356,0,0.732,0.038,1.014,0.075l5.724,7.977v-7.977c0.375-0.057,0.863-0.094,1.22-0.094
			s0.883,0.037,1.22,0.094V264.444z"/>
		<path style="fill:#462B56;" d="M154.539,264.444H146.6v-12.688h7.771c0.075,0.207,0.131,0.601,0.131,1.126
			c0,0.413-0.037,0.77-0.131,1.164h-5.086v2.74h4.298c0.075,0.206,0.131,0.582,0.131,1.107c0,0.412-0.037,0.75-0.131,1.145h-4.298
			v3.115h5.255c0.075,0.207,0.131,0.601,0.131,1.126C154.67,263.693,154.633,264.05,154.539,264.444z"/>
		<path style="fill:#462B56;" d="M164.129,264.444h-7.939v-12.688h7.771c0.075,0.207,0.131,0.601,0.131,1.126
			c0,0.413-0.037,0.77-0.131,1.164h-5.086v2.74h4.298c0.075,0.206,0.131,0.582,0.131,1.107c0,0.412-0.037,0.75-0.131,1.145h-4.298
			v3.115h5.255c0.075,0.207,0.131,0.601,0.131,1.126C164.26,263.693,164.223,264.05,164.129,264.444z"/>
		<path style="fill:#462B56;" d="M175.37,264.426c-0.487,0.075-0.994,0.112-1.576,0.112c-0.525,0-1.051-0.019-1.407-0.094
			l-2.571-4.561h-1.107v4.561c-0.47,0.075-0.863,0.094-1.37,0.094c-0.451,0-0.845-0.019-1.314-0.094v-12.688
			c0.863-0.057,2.665-0.094,3.754-0.094c3.19,0,4.786,1.126,4.786,4.054c0,1.558-0.938,3.116-2.252,3.679L175.37,264.426z
			 M169.946,253.859c-0.413,0-0.92,0.019-1.238,0.037v3.754h0.938c1.539,0,2.214-0.563,2.214-1.952S171.186,253.859,169.946,253.859
			z"/>
		<path style="fill:#462B56;" d="M179.61,264.444c-0.356,0.057-0.788,0.094-1.352,0.094c-0.507,0-0.976-0.037-1.332-0.094v-12.688
			c0.356-0.057,0.882-0.094,1.352-0.094c0.525,0,0.994,0.037,1.332,0.094V264.444z"/>
		<path style="fill:#462B56;" d="M192.278,264.444c-0.188,0.037-0.638,0.075-0.957,0.075s-0.639-0.019-0.938-0.075l-5.837-8.127
			v8.127c-0.15,0.037-0.713,0.094-1.239,0.094c-0.432,0-0.938-0.057-1.201-0.094v-12.688c0.301-0.057,0.657-0.075,0.995-0.075
			c0.356,0,0.732,0.038,1.014,0.075l5.725,7.977v-7.977c0.375-0.057,0.863-0.094,1.22-0.094s0.882,0.037,1.22,0.094V264.444z"/>
		<path style="fill:#462B56;" d="M204.289,263.956c-0.977,0.432-2.571,0.676-4.054,0.676c-4.224,0-6.081-2.702-6.081-6.399
			c0-3.866,2.289-6.663,6.362-6.663c1.163,0,2.496,0.244,3.284,0.582c0.057,0.3,0.094,0.75,0.094,0.957
			c0,0.413-0.075,0.863-0.15,1.145c-0.807-0.263-1.971-0.432-3.04-0.432c-2.703,0-3.772,1.971-3.772,4.373
			c0,2.553,1.126,4.186,3.397,4.186c0.506,0,0.994-0.038,1.275-0.112v-4.055c0.357-0.056,0.845-0.094,1.314-0.094
			c0.525,0,1.032,0.038,1.37,0.094V263.956z"/>
	</g>
	<g>
		<path style="fill:#462B56;" d="M111.364,96.026c-0.777,0.119-1.583,0.179-2.509,0.179c-0.836,0-1.672-0.03-2.239-0.149
			l-4.091-7.256h-1.762v7.256c-0.747,0.12-1.374,0.149-2.18,0.149c-0.717,0-1.344-0.03-2.09-0.149V75.869
			c1.374-0.089,4.24-0.149,5.972-0.149c5.077,0,7.615,1.792,7.615,6.45c0,2.479-1.493,4.957-3.583,5.853L111.364,96.026z
			 M102.733,79.214c-0.657,0-1.463,0.03-1.971,0.06v5.972h1.493c2.449,0,3.523-0.896,3.523-3.105
			C105.779,79.931,104.705,79.214,102.733,79.214z"/>
		<path style="fill:#462B56;" d="M131.308,96.056c-0.388,0.089-1.314,0.149-2.299,0.149c-0.776,0-1.672-0.09-2.06-0.149
			l-1.493-4.091h-7.167l-1.403,4.091c-0.657,0.089-1.434,0.149-2.21,0.149s-1.672-0.06-2.12-0.149l7.047-20.187
			c0.418-0.089,1.403-0.149,2.061-0.149c0.806,0,1.762,0.06,2.09,0.149L131.308,96.056z M124.171,88.411l-1.762-5.704
			c-0.209-0.657-0.418-1.493-0.597-2.418h-0.06c-0.149,0.925-0.388,1.762-0.597,2.418l-1.672,5.704H124.171z"/>
		<path style="fill:#462B56;" d="M149.579,96.056c-0.299,0.06-1.016,0.12-1.523,0.12s-1.015-0.03-1.493-0.12l-9.287-12.93v12.93
			c-0.239,0.06-1.135,0.149-1.971,0.149c-0.687,0-1.493-0.09-1.911-0.149V75.869c0.478-0.089,1.045-0.119,1.583-0.119
			c0.567,0,1.165,0.06,1.612,0.119l9.108,12.691V75.869c0.597-0.089,1.373-0.149,1.94-0.149s1.403,0.06,1.941,0.149V96.056z"/>
		<path style="fill:#462B56;" d="M169.343,96.056c-0.537,0.089-1.493,0.149-2.538,0.149c-0.746,0-1.821-0.06-2.448-0.149
			l-5.226-8.092l-1.374,1.642v6.45c-0.567,0.089-1.254,0.149-2.15,0.149c-0.806,0-1.553-0.06-2.12-0.149V75.869
			c0.567-0.089,1.404-0.149,2.15-0.149c0.836,0,1.583,0.06,2.12,0.149v8.69l3.464-4.061c1.523-1.792,2.359-3.076,2.688-4.629
			c0.598-0.089,1.434-0.149,2.091-0.149c0.537,0,1.463,0.06,2.09,0.149c-0.448,2.359-1.702,4.42-3.494,6.48l-2.389,2.748
			L169.343,96.056z"/>
		<path style="fill:#462B56;" d="M183.882,96.056H171.25V75.869h12.363c0.119,0.329,0.209,0.956,0.209,1.792
			c0,0.657-0.06,1.224-0.209,1.851h-8.093v4.36h6.838c0.12,0.329,0.209,0.926,0.209,1.762c0,0.657-0.06,1.195-0.209,1.822h-6.838
			v4.957h8.361c0.119,0.329,0.209,0.956,0.209,1.792C184.091,94.861,184.031,95.429,183.882,96.056z"/>
		<path style="fill:#462B56;" d="M199.854,94.264c-1.852,1.433-4.24,1.941-7.525,1.941c-1.672,0-4.509-0.06-5.465-0.149V75.869
			c1.464-0.089,4.51-0.149,6.212-0.149c6.569,0,9.943,2.777,9.943,10.003C203.02,89.456,202.034,92.562,199.854,94.264z
			 M193.165,79.244c-0.806,0-1.702,0.03-2.03,0.06v13.289c0.389,0.03,1.284,0.06,2.21,0.06c3.763,0,5.256-2.389,5.256-6.987
			C198.601,80.617,197.048,79.244,193.165,79.244z"/>
	</g>
	<g>
		<path style="fill:#462B56;" d="M129.004,116.318h-11.447v35.428c-1.215,0.191-2.941,0.319-4.541,0.319
			c-1.599,0-3.325-0.128-4.604-0.319v-35.428H96.965c-0.256-0.831-0.447-2.813-0.447-3.901c0-1.087,0.255-3.069,0.511-3.901h31.975
			c0.256,0.832,0.447,2.814,0.447,3.901C129.451,113.504,129.26,115.487,129.004,116.318z"/>
		<path style="fill:#462B56;" d="M147.935,152.386c-11.83,0-18.097-8.186-18.097-22.254c0-14.069,6.267-22.255,18.097-22.255
			c11.831,0,18.098,8.186,18.098,22.255C166.032,144.2,159.766,152.386,147.935,152.386z M147.935,115.743
			c-5.499,0-8.633,4.221-8.633,14.389s3.134,14.389,8.633,14.389c5.5,0,8.634-4.221,8.634-14.389S153.435,115.743,147.935,115.743z"
			/>
		<path style="fill:#462B56;" d="M184.772,136.271h-4.477v15.476c-1.216,0.191-2.687,0.319-4.604,0.319
			c-1.727,0-3.325-0.128-4.541-0.319V108.58c3.709-0.192,9.337-0.384,12.982-0.384c9.784,0,16.883,3.39,16.883,13.558
			C201.016,131.666,194.812,136.271,184.772,136.271z M184.517,115.743c-1.279,0-2.942,0.064-4.221,0.128v12.726h3.965
			c4.924,0,7.546-1.279,7.546-6.523C191.807,117.597,189.568,115.743,184.517,115.743z"/>
	</g>
	<g>
		<path style="fill:#462B56;" d="M128.331,164.647h-11.447v35.428c-1.215,0.191-2.941,0.319-4.541,0.319
			c-1.599,0-3.325-0.128-4.604-0.319v-35.428H96.292c-0.256-0.832-0.447-2.814-0.447-3.901s0.255-3.069,0.511-3.9h31.975
			c0.256,0.831,0.447,2.813,0.447,3.9S128.587,163.815,128.331,164.647z"/>
		<path style="fill:#462B56;" d="M159.093,200.075h-27.05v-43.229h26.475c0.256,0.703,0.447,2.046,0.447,3.837
			c0,1.406-0.128,2.621-0.447,3.965h-17.33v9.336h14.645c0.255,0.704,0.447,1.982,0.447,3.773c0,1.407-0.128,2.558-0.447,3.901
			h-14.645v10.615h17.905c0.256,0.703,0.448,2.046,0.448,3.837C159.541,197.518,159.413,198.732,159.093,200.075z"/>
		<path style="fill:#462B56;" d="M198.872,200.075c-0.64,0.128-2.175,0.256-3.262,0.256s-2.174-0.064-3.197-0.256l-19.889-27.69
			v27.69c-0.512,0.128-2.43,0.319-4.221,0.319c-1.471,0-3.197-0.191-4.093-0.319v-43.229c1.023-0.192,2.238-0.256,3.39-0.256
			c1.215,0,2.494,0.128,3.453,0.256l19.505,27.178v-27.178c1.279-0.192,2.941-0.32,4.156-0.32c1.216,0,3.006,0.128,4.157,0.32
			V200.075z"/>
	</g>
	<g>
		<path style="fill:#462B56;" d="M87.984,284.775c-1.266-1.178-1.942-2.836-1.942-4.506c0-1.669,0.676-3.272,1.942-4.451
			c0.251,0.033,0.415,0.153,0.556,0.35c-1.069,1.266-1.473,2.694-1.473,4.135c0,1.462,0.404,2.858,1.473,4.124
			C88.398,284.623,88.235,284.743,87.984,284.775z"/>
		<path style="fill:#462B56;" d="M94.726,277.073h-2.204v6.48c-0.186,0.033-0.36,0.055-0.556,0.055c-0.186,0-0.36-0.021-0.535-0.055
			v-6.48h-2.095c-0.044-0.142-0.055-0.306-0.055-0.447c0-0.131,0.011-0.316,0.055-0.447h5.39c0.043,0.131,0.054,0.316,0.054,0.447
			C94.78,276.768,94.77,276.932,94.726,277.073z"/>
		<path style="fill:#462B56;" d="M100.966,283.554c-0.174,0.021-0.338,0.055-0.513,0.055c-0.196,0-0.382-0.021-0.578-0.055v-3.273
			h-3.262v3.273c-0.186,0.033-0.382,0.055-0.578,0.055c-0.186,0-0.338-0.021-0.513-0.055v-7.375
			c0.131-0.022,0.327-0.055,0.502-0.055c0.196,0,0.393,0.021,0.589,0.055v3.207h3.262v-3.207c0.186-0.033,0.371-0.055,0.567-0.055
			c0.186,0,0.349,0.021,0.523,0.055V283.554z"/>
		<path style="fill:#462B56;" d="M106.694,283.554h-4.298v-7.375h4.135c0.043,0.131,0.055,0.316,0.055,0.447
			c0,0.142-0.011,0.306-0.055,0.447h-3.044v2.226h2.629c0.043,0.131,0.055,0.316,0.055,0.447c0,0.142-0.011,0.306-0.055,0.447
			h-2.629v2.466h3.208c0.044,0.131,0.055,0.316,0.055,0.447C106.749,283.248,106.738,283.412,106.694,283.554z"/>
		<path style="fill:#462B56;" d="M115.192,283.161c-0.589,0.283-1.375,0.502-2.204,0.502c-2.302,0-3.371-1.517-3.371-3.721
			c0-1.287,0.447-2.4,1.266-3.099c0.578-0.49,1.375-0.774,2.291-0.774c0.677,0,1.353,0.142,1.768,0.327
			c0.043,0.142,0.055,0.273,0.055,0.426s-0.011,0.283-0.055,0.426c-0.48-0.143-1.167-0.251-1.68-0.251c-0.72,0-1.288,0.229-1.68,0.6
			c-0.567,0.535-0.818,1.386-0.818,2.324c0,1.8,0.786,2.804,2.335,2.804c0.393,0,0.774-0.076,1.003-0.175v-2.4
			c0.175-0.021,0.338-0.054,0.513-0.054c0.196,0,0.382,0.021,0.578,0.054V283.161z"/>
		<path style="fill:#462B56;" d="M121.705,280.794c0,1.897-0.654,2.869-2.662,2.869c-2.095,0-2.629-0.928-2.629-2.869v-4.615
			c0.174-0.022,0.349-0.055,0.523-0.055c0.196,0,0.371,0.021,0.567,0.055v4.8c0,1.059,0.229,1.844,1.527,1.844
			s1.615-0.785,1.615-1.844v-4.8c0.175-0.022,0.327-0.055,0.502-0.055c0.196,0,0.36,0.021,0.556,0.055V280.794z"/>
		<path style="fill:#462B56;" d="M126.8,281.809h-2.88l-0.567,1.745c-0.142,0.021-0.371,0.055-0.589,0.055
			c-0.153,0-0.371-0.021-0.513-0.055l2.542-7.375c0.131-0.033,0.403-0.055,0.545-0.055c0.153,0,0.403,0.032,0.502,0.055l2.728,7.375
			c-0.099,0.021-0.36,0.055-0.567,0.055c-0.164,0-0.426-0.011-0.589-0.055L126.8,281.809z M124.203,280.913h2.28l-0.873-2.509
			c-0.142-0.415-0.229-0.753-0.284-1.048h-0.011c-0.055,0.295-0.164,0.645-0.294,1.059L124.203,280.913z"/>
		<path style="fill:#462B56;" d="M134.153,283.554c-0.218,0.033-0.436,0.055-0.654,0.055c-0.208,0-0.382-0.011-0.589-0.055
			l-1.615-2.837h-0.96v2.837c-0.186,0.033-0.371,0.055-0.556,0.055c-0.175,0-0.36-0.021-0.535-0.055v-7.375
			c0.535-0.033,1.178-0.055,1.8-0.055c1.538,0,2.771,0.469,2.771,2.236c0,0.971-0.535,1.822-1.429,2.149L134.153,283.554z
			 M131.164,276.975c-0.251,0-0.644,0-0.829,0.012v2.869h0.742c1.025,0,1.636-0.458,1.636-1.495
			C132.713,277.356,132.135,276.975,131.164,276.975z"/>
		<path style="fill:#462B56;" d="M139.585,282.91c-0.633,0.502-1.505,0.698-2.728,0.698c-0.501,0-1.44-0.021-1.767-0.055v-7.375
			c0.502-0.033,1.178-0.055,1.942-0.055c2.531,0,3.688,1.047,3.688,3.698C140.721,281.252,140.328,282.31,139.585,282.91z
			 M137.022,276.975c-0.218,0-0.611,0.012-0.84,0.022v5.717c0.196,0.021,0.557,0.032,0.938,0.032c0.829,0,1.375-0.229,1.756-0.633
			c0.513-0.534,0.698-1.396,0.698-2.312C139.575,277.935,139.04,276.975,137.022,276.975z"/>
		<path style="fill:#462B56;" d="M142.957,283.554c-0.175,0.021-0.35,0.055-0.523,0.055c-0.196,0-0.371-0.021-0.567-0.055v-7.375
			c0.186-0.033,0.359-0.055,0.557-0.055c0.185,0,0.359,0.021,0.534,0.055V283.554z"/>
		<path style="fill:#462B56;" d="M148.346,281.809h-2.88l-0.567,1.745c-0.142,0.021-0.371,0.055-0.589,0.055
			c-0.153,0-0.371-0.021-0.513-0.055l2.542-7.375c0.131-0.033,0.403-0.055,0.545-0.055c0.153,0,0.404,0.032,0.502,0.055l2.728,7.375
			c-0.098,0.021-0.359,0.055-0.567,0.055c-0.163,0-0.425-0.011-0.589-0.055L148.346,281.809z M145.75,280.913h2.279l-0.872-2.509
			c-0.143-0.415-0.229-0.753-0.284-1.048h-0.011c-0.055,0.295-0.164,0.645-0.295,1.059L145.75,280.913z"/>
		<path style="fill:#462B56;" d="M156.474,283.554c-0.087,0.033-0.272,0.044-0.414,0.044c-0.131,0-0.262-0.011-0.382-0.044
			l-3.884-5.51v5.51c-0.099,0.033-0.36,0.055-0.524,0.055c-0.131,0-0.338-0.011-0.479-0.055v-7.375
			c0.087-0.022,0.316-0.044,0.426-0.044c0.142,0,0.327,0.011,0.436,0.044l3.819,5.422v-5.422c0.12-0.033,0.327-0.055,0.469-0.055
			c0.131,0,0.426,0.021,0.534,0.055V283.554z"/>
		<path style="fill:#462B56;" d="M157.641,283.139c0-0.359,0.294-0.654,0.654-0.654c0.415,0,0.688,0.338,0.688,0.797
			c0,0.861-0.84,1.789-1.571,2.258c-0.152-0.108-0.262-0.251-0.327-0.437c0.469-0.327,0.818-0.752,0.993-1.178
			C157.815,283.739,157.641,283.488,157.641,283.139z"/>
		<path style="fill:#462B56;" d="M164.459,281.295c-0.393,0.437-0.818,0.896-1.276,1.354h3.088c0.032,0.12,0.054,0.349,0.054,0.479
			c0,0.12-0.011,0.306-0.054,0.426h-4.277c-0.076-0.207-0.131-0.403-0.131-0.622c0-0.087,0.011-0.186,0.021-0.272
			c0.579-0.578,1.233-1.266,1.79-1.888c1.025-1.146,1.57-1.811,1.57-2.684c0-0.785-0.523-1.179-1.222-1.179
			c-0.61,0-1.276,0.186-1.778,0.447c-0.032-0.152-0.055-0.305-0.055-0.458c0-0.109,0.022-0.272,0.055-0.371
			c0.502-0.272,1.2-0.458,1.942-0.458c1.222,0,2.182,0.731,2.182,1.932C166.368,279.113,165.703,279.91,164.459,281.295z"/>
		<path style="fill:#462B56;" d="M169.87,283.663c-1.604,0-2.443-1.244-2.443-3.797c0-2.521,0.84-3.797,2.443-3.797
			s2.444,1.244,2.444,3.797S171.474,283.663,169.87,283.663z M169.87,276.92c-1.047,0-1.298,1.223-1.298,2.936
			c0,1.724,0.262,2.956,1.298,2.956c1.069,0,1.299-1.232,1.299-2.956S170.918,276.92,169.87,276.92z"/>
		<path style="fill:#462B56;" d="M176.853,283.554c-0.175,0.033-0.36,0.055-0.546,0.055c-0.185,0-0.37-0.021-0.545-0.055v-6.197
			l-1.844,1.189c-0.207-0.196-0.393-0.513-0.458-0.785l2.542-1.582c0.12-0.033,0.262-0.055,0.403-0.055
			c0.152,0,0.306,0.021,0.447,0.055V283.554z"/>
		<path style="fill:#462B56;" d="M181.314,283.663c-1.964,0-2.466-1.571-2.466-3.284c0-2.073,0.808-4.31,3.252-4.31
			c0.272,0,0.644,0.055,0.807,0.109c0.033,0.087,0.055,0.262,0.055,0.349c0,0.12-0.021,0.316-0.055,0.437
			c-0.207-0.055-0.502-0.087-0.764-0.087c-1.353,0-1.953,1.058-2.105,2.607c0.403-0.371,0.96-0.557,1.527-0.557
			c1.364,0,2.051,0.905,2.051,2.204C183.616,282.583,182.798,283.663,181.314,283.663z M181.391,279.735
			c-0.534,0-1.058,0.262-1.396,0.633c0,0.087-0.011,0.207-0.011,0.294c0.011,1.069,0.207,2.193,1.342,2.193
			c0.895,0,1.157-0.862,1.157-1.637C182.482,280.455,182.253,279.735,181.391,279.735z"/>
		<path style="fill:#462B56;" d="M185.144,283.663c-0.142,0.032-0.327,0.055-0.49,0.055c-0.175,0-0.394-0.022-0.546-0.055
			l2.28-7.594c0.163-0.032,0.338-0.055,0.513-0.055s0.349,0.022,0.513,0.055L185.144,283.663z"/>
		<path style="fill:#462B56;" d="M190.456,281.295c-0.393,0.437-0.818,0.896-1.276,1.354h3.088c0.032,0.12,0.054,0.349,0.054,0.479
			c0,0.12-0.011,0.306-0.054,0.426h-4.277c-0.076-0.207-0.131-0.403-0.131-0.622c0-0.087,0.011-0.186,0.021-0.272
			c0.579-0.578,1.233-1.266,1.79-1.888c1.025-1.146,1.57-1.811,1.57-2.684c0-0.785-0.523-1.179-1.222-1.179
			c-0.61,0-1.276,0.186-1.778,0.447c-0.032-0.152-0.055-0.305-0.055-0.458c0-0.109,0.022-0.272,0.055-0.371
			c0.502-0.272,1.2-0.458,1.942-0.458c1.222,0,2.182,0.731,2.182,1.932C192.365,279.113,191.7,279.91,190.456,281.295z"/>
		<path style="fill:#462B56;" d="M195.878,283.663c-1.604,0-2.443-1.244-2.443-3.797c0-2.521,0.84-3.797,2.443-3.797
			s2.444,1.244,2.444,3.797S197.481,283.663,195.878,283.663z M195.878,276.92c-1.047,0-1.298,1.223-1.298,2.936
			c0,1.724,0.262,2.956,1.298,2.956c1.069,0,1.299-1.232,1.299-2.956S196.926,276.92,195.878,276.92z"/>
		<path style="fill:#462B56;" d="M202.85,283.554c-0.175,0.033-0.36,0.055-0.546,0.055c-0.185,0-0.37-0.021-0.545-0.055v-6.197
			l-1.844,1.189c-0.207-0.196-0.393-0.513-0.458-0.785l2.542-1.582c0.12-0.033,0.262-0.055,0.403-0.055
			c0.152,0,0.306,0.021,0.447,0.055V283.554z"/>
		<path style="fill:#462B56;" d="M209.548,276.997l-3.021,6.557c-0.175,0.033-0.382,0.055-0.578,0.055
			c-0.164,0-0.382-0.021-0.557-0.055l3.076-6.48h-3.557c-0.032-0.142-0.055-0.316-0.055-0.48c0-0.174,0.022-0.283,0.055-0.414h4.648
			c0.032,0.131,0.043,0.229,0.043,0.414C209.603,276.735,209.57,276.953,209.548,276.997z"/>
		<path style="fill:#462B56;" d="M211.064,284.775c-0.251-0.032-0.414-0.152-0.557-0.349c1.069-1.266,1.473-2.695,1.473-4.135
			c0-1.462-0.403-2.858-1.473-4.124c0.143-0.196,0.327-0.316,0.578-0.35c1.266,1.179,1.921,2.837,1.921,4.506
			S212.33,283.598,211.064,284.775z"/>
	</g>
</g>
</svg>
