<?xml version="1.0" encoding="utf-8"?>
<!-- Generator: Adobe Illustrator 16.0.0, SVG Export Plug-In . SVG Version: 6.00 Build 0)  -->
<!DOCTYPE svg PUBLIC "-//W3C//DTD SVG 1.0//EN" "http://www.w3.org/TR/2001/REC-SVG-20010904/DTD/svg10.dtd">
<svg version="1.0" xmlns="http://www.w3.org/2000/svg" xmlns:xlink="http://www.w3.org/1999/xlink" x="0px" y="0px" width="300px"
	 height="300px" viewBox="0 0 300 300" style="enable-background:new 0 0 300 300;" xml:space="preserve">
<g id="Layer_1">
	<rect x="77.944" y="279.391" style="fill:#B4A168;" width="143.562" height="5.773"/>
</g>
<g id="Text" style="display:none;">
	<text transform="matrix(1 0 0 1 92.7588 180.8008)" style="display:inline;"><tspan x="0" y="0" style="fill:#1A2A4F; font-family:'FSMatthew-Bold'; font-size:20.3086; letter-spacing:-1;">F</tspan><tspan x="9.708" y="0" style="fill:#1A2A4F; font-family:'FSMatthew-Bold'; font-size:20.3086;">OR IR</tspan><tspan x="55.99" y="0" style="fill:#1A2A4F; font-family:'FSMatthew-Bold'; font-size:20.3086;">I</tspan><tspan x="61.615" y="0" style="fill:#1A2A4F; font-family:'FSMatthew-Bold'; font-size:20.3086;">S</tspan><tspan x="72.196" y="0" style="fill:#1A2A4F; font-family:'FSMatthew-Bold'; font-size:20.3086;">H </tspan></text>
	<text transform="matrix(1 0 0 1 92.7588 197.9277)" style="display:inline;"><tspan x="0" y="0" style="fill:#1A2A4F; font-family:'FSMatthew-Bold'; font-size:20.3086;">AN</tspan><tspan x="26.604" y="0" style="fill:#1A2A4F; font-family:'FSMatthew-Bold'; font-size:20.3086;">D</tspan></text>
	<text transform="matrix(1 0 0 1 92.7588 215.0547)" style="display:inline;"><tspan x="0" y="0" style="fill:#1A2A4F; font-family:'FSMatthew-Bold'; font-size:20.3086;">C</tspan><tspan x="11.413" y="0" style="fill:#1A2A4F; font-family:'FSMatthew-Bold'; font-size:20.3086;">E</tspan><tspan x="22.035" y="0" style="fill:#1A2A4F; font-family:'FSMatthew-Bold'; font-size:20.3086; letter-spacing:-2;">L</tspan><tspan x="30.401" y="0" style="fill:#1A2A4F; font-family:'FSMatthew-Bold'; font-size:20.3086;">T</tspan><tspan x="41.104" y="0" style="fill:#1A2A4F; font-family:'FSMatthew-Bold'; font-size:20.3086;">I</tspan><tspan x="46.75" y="0" style="fill:#1A2A4F; font-family:'FSMatthew-Bold'; font-size:20.3086;">C </tspan></text>
	<text transform="matrix(1 0 0 1 92.7588 232.1807)" style="display:inline;"><tspan x="0" y="0" style="fill:#1A2A4F; font-family:'FSMatthew-Bold'; font-size:20.3086;">S</tspan><tspan x="10.053" y="0" style="fill:#1A2A4F; font-family:'FSMatthew-Bold'; font-size:20.3086;">T</tspan><tspan x="20.775" y="0" style="fill:#1A2A4F; font-family:'FSMatthew-Bold'; font-size:20.3086;">U</tspan><tspan x="33.712" y="0" style="fill:#1A2A4F; font-family:'FSMatthew-Bold'; font-size:20.3086;">DI</tspan><tspan x="52.375" y="0" style="fill:#1A2A4F; font-family:'FSMatthew-Bold'; font-size:20.3086;">E</tspan><tspan x="62.997" y="0" style="fill:#1A2A4F; font-family:'FSMatthew-Bold'; font-size:20.3086;">S </tspan></text>
	<text transform="matrix(1 0 0 1 92.7588 249.3096)" style="display:inline;"><tspan x="0" y="0" style="fill:#1A2A4F; font-family:'FSMatthew-Bold'; font-size:20.3086;">R</tspan><tspan x="11.759" y="0" style="fill:#1A2A4F; font-family:'FSMatthew-Bold'; font-size:20.3086;">ES</tspan><tspan x="32.981" y="0" style="fill:#1A2A4F; font-family:'FSMatthew-Bold'; font-size:20.3086;">E</tspan><tspan x="43.927" y="0" style="fill:#1A2A4F; font-family:'FSMatthew-Bold'; font-size:20.3086;">A</tspan><tspan x="56.864" y="0" style="fill:#1A2A4F; font-family:'FSMatthew-Bold'; font-size:20.3086;">R</tspan><tspan x="68.398" y="0" style="fill:#1A2A4F; font-family:'FSMatthew-Bold'; font-size:20.3086;">C</tspan><tspan x="79.792" y="0" style="fill:#1A2A4F; font-family:'FSMatthew-Bold'; font-size:20.3086;">H</tspan></text>
	
		<text transform="matrix(1 0 0 1 186.0957 249.3096)" style="display:inline;fill:#1A2A4F; font-family:'FSMatthew-Medium'; font-size:14.2724;"> </text>
	<text transform="matrix(1 0 0 1 92.7588 266.4365)" style="display:inline;"><tspan x="0" y="0" style="fill:#1A2A4F; font-family:'FSMatthew'; font-size:13.539;">(REF </tspan><tspan x="27.145" y="0" style="fill:#1A2A4F; font-family:'FSMatthew'; font-size:13.539;">2</tspan><tspan x="34.158" y="0" style="fill:#1A2A4F; font-family:'FSMatthew'; font-size:13.539;">0</tspan><tspan x="41.185" y="0" style="fill:#1A2A4F; font-family:'FSMatthew'; font-size:13.539;">1</tspan><tspan x="48.198" y="0" style="fill:#1A2A4F; font-family:'FSMatthew'; font-size:13.539;">4</tspan><tspan x="55.225" y="0" style="fill:#1A2A4F; font-family:'FSMatthew'; font-size:13.539;">)</tspan></text>
	<text transform="matrix(1 0 0 1 90.1045 114.876)" style="display:inline;"><tspan x="0" y="0" style="fill:#E2A3A9; font-family:'FSMatthew-Bold'; font-size:54.5759; letter-spacing:-1;">T</tspan><tspan x="27.997" y="0" style="fill:#E2A3A9; font-family:'FSMatthew-Bold'; font-size:54.5759; letter-spacing:-1;">OP </tspan><tspan x="104.184" y="0" style="fill:#E2A3A9; font-family:'FSMatthew-Bold'; font-size:54.5759;">3</tspan></text>
	<text transform="matrix(1 0 0 1 90.1045 156.3887)" style="display:inline;"><tspan x="0" y="0" style="fill:#E2A3A9; font-family:'FSMatthew-Bold'; font-size:52.5812; letter-spacing:-1;">I</tspan><tspan x="14.565" y="0" style="fill:#E2A3A9; font-family:'FSMatthew-Bold'; font-size:52.5812;">N </tspan><tspan x="60.782" y="0" style="fill:#E2A3A9; font-family:'FSMatthew-Bold'; font-size:52.5812; letter-spacing:-1;">U</tspan><tspan x="94.276" y="0" style="fill:#E2A3A9; font-family:'FSMatthew-Bold'; font-size:52.5812;">K</tspan></text>
</g>
<g id="Text_Flat">
	<g>
		<path style="fill:#1A2A4F;" d="M102.588,169.55h-5.402v2.965h4.549c0.082,0.224,0.143,0.63,0.143,1.198
			c0,0.446-0.041,0.812-0.143,1.238h-4.549v5.85c-0.386,0.061-0.833,0.102-1.442,0.102c-0.548,0-1.076-0.041-1.462-0.102v-13.729
			h8.306c0.082,0.224,0.143,0.65,0.143,1.219C102.731,168.737,102.69,169.123,102.588,169.55z"/>
		<path style="fill:#1A2A4F;" d="M109.107,181.004c-3.757,0-5.748-2.6-5.748-7.067c0-4.469,1.99-7.068,5.748-7.068
			s5.748,2.6,5.748,7.068C114.855,178.404,112.865,181.004,109.107,181.004z M109.107,169.366c-1.747,0-2.742,1.341-2.742,4.57
			c0,3.229,0.995,4.569,2.742,4.569s2.742-1.341,2.742-4.569C111.849,170.707,110.854,169.366,109.107,169.366z"/>
		<path style="fill:#1A2A4F;" d="M126.999,180.78c-0.528,0.081-1.076,0.122-1.706,0.122c-0.568,0-1.137-0.021-1.523-0.102
			l-2.783-4.936h-1.198v4.936c-0.507,0.081-0.934,0.102-1.482,0.102c-0.487,0-0.914-0.021-1.421-0.102v-13.729
			c0.934-0.061,2.884-0.102,4.062-0.102c3.453,0,5.179,1.219,5.179,4.387c0,1.687-1.016,3.372-2.438,3.981L126.999,180.78z
			 M121.13,169.347c-0.447,0-0.995,0.02-1.341,0.04v4.062h1.016c1.666,0,2.396-0.609,2.396-2.112S122.47,169.347,121.13,169.347z"/>
		<path style="fill:#1A2A4F;" d="M135.792,180.801c-0.386,0.061-0.853,0.102-1.462,0.102c-0.548,0-1.056-0.041-1.442-0.102v-13.729
			c0.386-0.061,0.955-0.102,1.462-0.102c0.569,0,1.077,0.041,1.442,0.102V180.801z"/>
		<path style="fill:#1A2A4F;" d="M148.607,180.78c-0.528,0.081-1.076,0.122-1.706,0.122c-0.568,0-1.137-0.021-1.523-0.102
			l-2.783-4.936h-1.198v4.936c-0.507,0.081-0.934,0.102-1.482,0.102c-0.487,0-0.914-0.021-1.421-0.102v-13.729
			c0.934-0.061,2.884-0.102,4.062-0.102c3.453,0,5.179,1.219,5.179,4.387c0,1.687-1.016,3.372-2.438,3.981L148.607,180.78z
			 M142.738,169.347c-0.447,0-0.995,0.02-1.341,0.04v4.062h1.016c1.666,0,2.396-0.609,2.396-2.112S144.078,169.347,142.738,169.347z
			"/>
		<path style="fill:#1A2A4F;" d="M153.217,180.801c-0.386,0.061-0.853,0.102-1.462,0.102c-0.548,0-1.056-0.041-1.442-0.102v-13.729
			c0.386-0.061,0.955-0.102,1.462-0.102c0.568,0,1.076,0.041,1.441,0.102V180.801z"/>
		<path style="fill:#1A2A4F;" d="M159.634,181.004c-1.482,0-3.106-0.284-4.265-0.812c-0.061-0.284-0.102-0.649-0.102-0.975
			c0-0.487,0.061-0.955,0.203-1.503c1.198,0.487,2.782,0.792,4.021,0.792c1.441,0,2.214-0.67,2.214-1.584
			c0-1.016-0.65-1.442-2.62-2.052c-2.193-0.67-3.798-1.726-3.798-4.082c0-2.519,2.173-3.92,5.036-3.92
			c1.32,0,2.499,0.203,3.291,0.468c0.061,0.223,0.102,0.589,0.102,1.117c0,0.386-0.041,0.975-0.122,1.299
			c-1.016-0.264-2.173-0.405-3.107-0.405c-1.523,0-2.356,0.507-2.356,1.319c0,0.955,0.752,1.341,2.58,1.909
			c2.193,0.69,3.817,1.727,3.817,4.164C164.528,179.399,162.437,181.004,159.634,181.004z"/>
		<path style="fill:#1A2A4F;" d="M177.06,180.801c-0.365,0.061-0.873,0.102-1.442,0.102c-0.568,0-1.076-0.041-1.462-0.102v-5.687
			h-4.772v5.687c-0.386,0.061-0.833,0.102-1.442,0.102c-0.548,0-1.076-0.041-1.462-0.102v-13.729
			c0.386-0.061,0.954-0.102,1.462-0.102c0.568,0,1.076,0.041,1.442,0.102v5.565h4.772v-5.565c0.447-0.061,0.954-0.102,1.462-0.102
			c0.487,0,1.097,0.041,1.442,0.102V180.801z"/>
	</g>
	<g>
		<path style="fill:#1A2A4F;" d="M105.797,197.928c-0.264,0.061-0.894,0.102-1.564,0.102c-0.528,0-1.137-0.061-1.401-0.102
			l-1.015-2.782h-4.875l-0.955,2.782c-0.447,0.061-0.975,0.102-1.503,0.102c-0.528,0-1.137-0.041-1.442-0.102l4.793-13.729
			c0.285-0.061,0.955-0.102,1.401-0.102c0.548,0,1.198,0.041,1.422,0.102L105.797,197.928z M100.943,192.729l-1.198-3.879
			c-0.142-0.447-0.284-1.016-0.406-1.646h-0.041c-0.102,0.63-0.264,1.198-0.406,1.646l-1.137,3.879H100.943z"/>
		<path style="fill:#1A2A4F;" d="M118.226,197.928c-0.203,0.041-0.69,0.081-1.036,0.081s-0.69-0.021-1.016-0.081l-6.316-8.794v8.794
			c-0.163,0.041-0.772,0.102-1.34,0.102c-0.467,0-1.016-0.061-1.3-0.102v-13.729c0.325-0.061,0.71-0.081,1.076-0.081
			c0.386,0,0.792,0.041,1.097,0.081l6.194,8.632v-8.632c0.406-0.061,0.934-0.102,1.32-0.102c0.386,0,0.955,0.041,1.32,0.102V197.928
			z"/>
		<path style="fill:#1A2A4F;" d="M129.721,196.709c-1.259,0.975-2.884,1.32-5.118,1.32c-1.137,0-3.066-0.041-3.716-0.102v-13.729
			c0.995-0.061,3.066-0.102,4.224-0.102c4.468,0,6.763,1.889,6.763,6.804C131.874,193.439,131.203,195.552,129.721,196.709z
			 M125.171,186.493c-0.548,0-1.158,0.021-1.381,0.041v9.038c0.264,0.02,0.874,0.04,1.503,0.04c2.559,0,3.575-1.625,3.575-4.752
			C128.868,187.428,127.812,186.493,125.171,186.493z"/>
	</g>
	<g>
		<path style="fill:#1A2A4F;" d="M103.645,204.189c-0.975-0.305-2.193-0.528-3.168-0.528c-2.315,0-3.818,1.646-3.818,4.59
			c0,2.701,1.178,4.468,3.798,4.468c0.975,0,2.072-0.203,3.046-0.508c0.142,0.366,0.244,0.935,0.244,1.361
			c0,0.345-0.02,0.771-0.061,0.954c-1.015,0.468-2.315,0.731-3.513,0.731c-4.367,0-6.52-2.641-6.52-6.946
			c0-4.184,2.315-7.189,6.641-7.189c1.056,0,2.438,0.265,3.412,0.69c0.061,0.203,0.081,0.65,0.081,0.914
			C103.787,203.356,103.706,203.945,103.645,204.189z"/>
		<path style="fill:#1A2A4F;" d="M114.286,215.055h-8.591v-13.729h8.408c0.082,0.224,0.142,0.65,0.142,1.219
			c0,0.447-0.041,0.833-0.142,1.26h-5.504v2.965h4.651c0.082,0.224,0.143,0.63,0.143,1.198c0,0.446-0.041,0.812-0.143,1.238h-4.651
			v3.372h5.687c0.081,0.224,0.142,0.649,0.142,1.219C114.428,214.242,114.388,214.628,114.286,215.055z"/>
		<path style="fill:#1A2A4F;" d="M124.725,215.055h-8.408v-13.729c0.386-0.061,0.914-0.102,1.421-0.102
			c0.569,0,1.117,0.041,1.482,0.102v11.252h5.504c0.082,0.224,0.143,0.649,0.143,1.219
			C124.867,214.242,124.826,214.628,124.725,215.055z"/>
		<path style="fill:#1A2A4F;" d="M133.802,203.804h-3.635v11.251c-0.386,0.061-0.934,0.102-1.442,0.102s-1.056-0.041-1.462-0.102
			v-11.251h-3.635c-0.082-0.265-0.142-0.895-0.142-1.239c0-0.346,0.081-0.975,0.162-1.239h10.155
			c0.082,0.265,0.142,0.894,0.142,1.239C133.944,202.909,133.884,203.539,133.802,203.804z"/>
		<path style="fill:#1A2A4F;" d="M138.331,215.055c-0.386,0.061-0.853,0.102-1.462,0.102c-0.548,0-1.056-0.041-1.442-0.102v-13.729
			c0.386-0.061,0.955-0.102,1.462-0.102c0.569,0,1.077,0.041,1.442,0.102V215.055z"/>
		<path style="fill:#1A2A4F;" d="M150.395,204.189c-0.975-0.305-2.193-0.528-3.168-0.528c-2.315,0-3.818,1.646-3.818,4.59
			c0,2.701,1.178,4.468,3.798,4.468c0.975,0,2.072-0.203,3.046-0.508c0.142,0.366,0.244,0.935,0.244,1.361
			c0,0.345-0.02,0.771-0.061,0.954c-1.015,0.468-2.315,0.731-3.513,0.731c-4.367,0-6.52-2.641-6.52-6.946
			c0-4.184,2.315-7.189,6.641-7.189c1.056,0,2.438,0.265,3.412,0.69c0.061,0.203,0.081,0.65,0.081,0.914
			C150.537,203.356,150.456,203.945,150.395,204.189z"/>
	</g>
	<g>
		<path style="fill:#1A2A4F;" d="M98.019,232.384c-1.483,0-3.107-0.284-4.265-0.812c-0.061-0.284-0.102-0.649-0.102-0.975
			c0-0.487,0.061-0.955,0.203-1.503c1.198,0.487,2.782,0.792,4.021,0.792c1.442,0,2.213-0.67,2.213-1.584
			c0-1.016-0.65-1.442-2.62-2.052c-2.193-0.67-3.798-1.726-3.798-4.082c0-2.519,2.173-3.92,5.037-3.92
			c1.32,0,2.498,0.203,3.29,0.468c0.061,0.223,0.102,0.589,0.102,1.116c0,0.387-0.041,0.976-0.122,1.301
			c-1.016-0.265-2.173-0.406-3.107-0.406c-1.523,0-2.356,0.507-2.356,1.319c0,0.955,0.751,1.341,2.579,1.909
			c2.193,0.69,3.818,1.727,3.818,4.164C102.914,230.779,100.822,232.384,98.019,232.384z"/>
		<path style="fill:#1A2A4F;" d="M113.454,220.93h-3.635v11.251c-0.386,0.061-0.934,0.102-1.442,0.102s-1.056-0.041-1.462-0.102
			V220.93h-3.635c-0.082-0.265-0.142-0.895-0.142-1.239c0-0.346,0.081-0.975,0.162-1.239h10.155
			c0.082,0.265,0.142,0.894,0.142,1.239C113.596,220.035,113.535,220.665,113.454,220.93z"/>
		<path style="fill:#1A2A4F;" d="M125.415,226.961c0,3.493-1.34,5.423-5.24,5.423c-3.94,0-5.179-1.93-5.179-5.423v-8.51
			c0.406-0.061,0.934-0.102,1.421-0.102c0.569,0,1.077,0.041,1.483,0.102v8.713c0,1.868,0.528,2.925,2.295,2.925
			c1.767,0,2.376-1.057,2.376-2.925v-8.713c0.366-0.061,0.975-0.102,1.442-0.102c0.447,0,1.056,0.041,1.401,0.102V226.961z"/>
		<path style="fill:#1A2A4F;" d="M136.829,230.962c-1.259,0.975-2.884,1.32-5.118,1.32c-1.137,0-3.066-0.041-3.716-0.102v-13.729
			c0.995-0.061,3.066-0.102,4.224-0.102c4.468,0,6.763,1.889,6.763,6.804C138.981,227.692,138.311,229.805,136.829,230.962z
			 M132.279,220.746c-0.548,0-1.158,0.021-1.381,0.041v9.038c0.264,0.02,0.874,0.04,1.503,0.04c2.559,0,3.575-1.625,3.575-4.752
			C135.976,221.681,134.919,220.746,132.279,220.746z"/>
		<path style="fill:#1A2A4F;" d="M143.957,232.181c-0.386,0.061-0.853,0.102-1.462,0.102c-0.548,0-1.056-0.041-1.442-0.102v-13.729
			c0.386-0.061,0.955-0.102,1.462-0.102c0.569,0,1.077,0.041,1.442,0.102V232.181z"/>
		<path style="fill:#1A2A4F;" d="M155.248,232.181h-8.591v-13.729h8.407c0.082,0.224,0.143,0.65,0.143,1.219
			c0,0.447-0.041,0.833-0.143,1.26h-5.503v2.965h4.651c0.081,0.224,0.143,0.63,0.143,1.198c0,0.446-0.041,0.812-0.143,1.239h-4.651
			v3.371h5.687c0.081,0.224,0.143,0.649,0.143,1.219C155.391,231.368,155.35,231.754,155.248,232.181z"/>
		<path style="fill:#1A2A4F;" d="M161.016,232.384c-1.482,0-3.107-0.284-4.266-0.812c-0.061-0.284-0.102-0.649-0.102-0.975
			c0-0.487,0.062-0.955,0.203-1.503c1.199,0.487,2.783,0.792,4.021,0.792c1.442,0,2.214-0.67,2.214-1.584
			c0-1.016-0.649-1.442-2.62-2.052c-2.193-0.67-3.797-1.726-3.797-4.082c0-2.519,2.172-3.92,5.036-3.92
			c1.32,0,2.498,0.203,3.29,0.468c0.061,0.223,0.102,0.589,0.102,1.116c0,0.387-0.041,0.976-0.122,1.301
			c-1.016-0.265-2.173-0.406-3.107-0.406c-1.522,0-2.355,0.507-2.355,1.319c0,0.955,0.751,1.341,2.579,1.909
			c2.193,0.69,3.818,1.727,3.818,4.164C165.91,230.779,163.818,232.384,161.016,232.384z"/>
	</g>
	<g>
		<path style="fill:#1A2A4F;" d="M104.396,249.289c-0.528,0.081-1.076,0.122-1.706,0.122c-0.568,0-1.137-0.021-1.523-0.102
			l-2.783-4.936h-1.198v4.936c-0.507,0.081-0.934,0.102-1.482,0.102c-0.487,0-0.914-0.021-1.421-0.102V235.58
			c0.934-0.061,2.884-0.102,4.062-0.102c3.453,0,5.179,1.219,5.179,4.387c0,1.687-1.016,3.372-2.438,3.981L104.396,249.289z
			 M98.527,237.855c-0.447,0-0.995,0.02-1.341,0.04v4.062h1.016c1.666,0,2.396-0.609,2.396-2.112S99.867,237.855,98.527,237.855z"/>
		<path style="fill:#1A2A4F;" d="M114.632,249.31h-8.591V235.58h8.408c0.082,0.224,0.142,0.65,0.142,1.219
			c0,0.447-0.041,0.833-0.142,1.26h-5.504v2.965h4.651c0.082,0.224,0.143,0.63,0.143,1.198c0,0.446-0.041,0.812-0.143,1.239h-4.651
			v3.371h5.687c0.081,0.224,0.142,0.649,0.142,1.219C114.774,248.497,114.733,248.883,114.632,249.31z"/>
		<path style="fill:#1A2A4F;" d="M120.419,249.513c-1.483,0-3.107-0.284-4.265-0.812c-0.061-0.284-0.102-0.649-0.102-0.975
			c0-0.487,0.061-0.955,0.203-1.503c1.198,0.487,2.782,0.792,4.021,0.792c1.442,0,2.213-0.67,2.213-1.584
			c0-1.016-0.65-1.442-2.62-2.052c-2.193-0.67-3.798-1.726-3.798-4.082c0-2.519,2.173-3.92,5.037-3.92
			c1.32,0,2.498,0.203,3.29,0.468c0.061,0.223,0.102,0.589,0.102,1.116c0,0.387-0.041,0.976-0.122,1.301
			c-1.016-0.265-2.173-0.406-3.107-0.406c-1.523,0-2.356,0.507-2.356,1.319c0,0.955,0.751,1.341,2.579,1.909
			c2.193,0.69,3.818,1.727,3.818,4.164C125.314,247.908,123.222,249.513,120.419,249.513z"/>
		<path style="fill:#1A2A4F;" d="M135.854,249.31h-8.591V235.58h8.408c0.082,0.224,0.143,0.65,0.143,1.219
			c0,0.447-0.041,0.833-0.143,1.26h-5.504v2.965h4.651c0.082,0.224,0.143,0.63,0.143,1.198c0,0.446-0.041,0.812-0.143,1.239h-4.651
			v3.371h5.687c0.081,0.224,0.142,0.649,0.142,1.219C135.996,248.497,135.956,248.883,135.854,249.31z"/>
		<path style="fill:#1A2A4F;" d="M149.725,249.31c-0.264,0.061-0.894,0.102-1.564,0.102c-0.528,0-1.137-0.061-1.401-0.102
			l-1.016-2.782h-4.875l-0.955,2.782c-0.447,0.061-0.975,0.102-1.503,0.102c-0.528,0-1.137-0.041-1.442-0.102l4.793-13.729
			c0.285-0.061,0.955-0.102,1.401-0.102c0.548,0,1.198,0.041,1.422,0.102L149.725,249.31z M144.871,244.11l-1.198-3.879
			c-0.142-0.447-0.284-1.016-0.406-1.646h-0.041c-0.102,0.63-0.264,1.198-0.406,1.646l-1.137,3.879H144.871z"/>
		<path style="fill:#1A2A4F;" d="M161.26,249.289c-0.528,0.081-1.076,0.122-1.706,0.122c-0.568,0-1.138-0.021-1.522-0.102
			l-2.783-4.936h-1.198v4.936c-0.507,0.081-0.935,0.102-1.482,0.102c-0.487,0-0.914-0.021-1.421-0.102V235.58
			c0.934-0.061,2.883-0.102,4.061-0.102c3.453,0,5.18,1.219,5.18,4.387c0,1.687-1.016,3.372-2.438,3.981L161.26,249.289z
			 M155.391,237.855c-0.447,0-0.995,0.02-1.341,0.04v4.062h1.016c1.665,0,2.396-0.609,2.396-2.112S156.73,237.855,155.391,237.855z"
			/>
		<path style="fill:#1A2A4F;" d="M172.043,238.444c-0.975-0.305-2.193-0.528-3.168-0.528c-2.315,0-3.818,1.645-3.818,4.59
			c0,2.701,1.178,4.468,3.798,4.468c0.975,0,2.071-0.203,3.047-0.508c0.142,0.366,0.243,0.935,0.243,1.361
			c0,0.345-0.021,0.771-0.061,0.954c-1.016,0.468-2.315,0.731-3.514,0.731c-4.366,0-6.52-2.641-6.52-6.946
			c0-4.184,2.315-7.189,6.642-7.189c1.056,0,2.437,0.265,3.412,0.69c0.061,0.203,0.081,0.65,0.081,0.914
			C172.186,237.611,172.104,238.2,172.043,238.444z"/>
		<path style="fill:#1A2A4F;" d="M184.655,249.31c-0.365,0.061-0.873,0.102-1.442,0.102c-0.568,0-1.076-0.041-1.462-0.102v-5.687
			h-4.772v5.687c-0.386,0.061-0.833,0.102-1.442,0.102c-0.548,0-1.076-0.041-1.462-0.102V235.58
			c0.386-0.061,0.954-0.102,1.462-0.102c0.568,0,1.076,0.041,1.442,0.102v5.565h4.772v-5.565c0.447-0.061,0.954-0.102,1.462-0.102
			c0.487,0,1.097,0.041,1.442,0.102V249.31z"/>
	</g>
	<g>
		<path style="fill:#1A2A4F;" d="M95.709,267.952c-1.57-1.462-2.409-3.519-2.409-5.59c0-2.07,0.839-4.06,2.409-5.521
			c0.311,0.04,0.514,0.189,0.69,0.433c-1.326,1.57-1.827,3.343-1.827,5.13c0,1.813,0.501,3.546,1.827,5.116
			C96.224,267.763,96.021,267.912,95.709,267.952z"/>
		<path style="fill:#1A2A4F;" d="M104.007,266.437c-0.271,0.041-0.541,0.067-0.812,0.067c-0.257,0-0.474-0.014-0.731-0.067
			l-2.003-3.519h-1.191v3.519c-0.23,0.041-0.46,0.067-0.69,0.067c-0.216,0-0.447-0.026-0.663-0.067v-9.149
			c0.663-0.041,1.462-0.067,2.233-0.067c1.908,0,3.438,0.582,3.438,2.774c0,1.204-0.663,2.26-1.773,2.666L104.007,266.437z
			 M100.299,258.275c-0.311,0-0.798,0-1.028,0.014v3.56h0.92c1.272,0,2.03-0.568,2.03-1.854
			C102.221,258.749,101.503,258.275,100.299,258.275z"/>
		<path style="fill:#1A2A4F;" d="M110.506,266.437h-5.333v-9.149h5.129c0.054,0.162,0.068,0.393,0.068,0.555
			c0,0.176-0.014,0.379-0.068,0.556h-3.776v2.761h3.262c0.054,0.162,0.068,0.393,0.068,0.555c0,0.176-0.014,0.379-0.068,0.555
			h-3.262v3.06h3.979c0.054,0.162,0.068,0.392,0.068,0.555C110.574,266.058,110.561,266.261,110.506,266.437z"/>
		<path style="fill:#1A2A4F;" d="M116.964,258.397h-3.776v2.761h3.126c0.054,0.162,0.067,0.393,0.067,0.555
			c0,0.176-0.013,0.379-0.067,0.555h-3.126v4.169c-0.23,0.041-0.433,0.067-0.677,0.067c-0.23,0-0.46-0.026-0.677-0.067v-9.149h5.129
			c0.054,0.162,0.068,0.393,0.068,0.555C117.032,258.018,117.018,258.221,116.964,258.397z"/>
		<path style="fill:#1A2A4F;" d="M123.842,263.635c-0.487,0.541-1.015,1.11-1.583,1.679h3.83c0.041,0.148,0.068,0.433,0.068,0.595
			c0,0.149-0.014,0.38-0.068,0.528h-5.305c-0.095-0.257-0.163-0.501-0.163-0.771c0-0.108,0.014-0.23,0.027-0.338
			c0.717-0.718,1.529-1.57,2.219-2.342c1.272-1.421,1.949-2.247,1.949-3.33c0-0.974-0.65-1.461-1.516-1.461
			c-0.758,0-1.583,0.229-2.206,0.555c-0.041-0.189-0.067-0.379-0.067-0.568c0-0.136,0.027-0.339,0.067-0.46
			c0.623-0.339,1.489-0.569,2.409-0.569c1.516,0,2.707,0.907,2.707,2.396C126.211,260.928,125.385,261.916,123.842,263.635z"/>
		<path style="fill:#1A2A4F;" d="M130.558,266.572c-1.989,0-3.032-1.543-3.032-4.71c0-3.127,1.042-4.711,3.032-4.711
			c1.99,0,3.032,1.543,3.032,4.711C133.589,265.029,132.547,266.572,130.558,266.572z M130.558,258.207
			c-1.299,0-1.61,1.517-1.61,3.642c0,2.138,0.325,3.668,1.61,3.668c1.327,0,1.611-1.53,1.611-3.668
			C132.168,259.71,131.857,258.207,130.558,258.207z"/>
		<path style="fill:#1A2A4F;" d="M139.222,266.437c-0.216,0.041-0.446,0.067-0.677,0.067c-0.23,0-0.46-0.026-0.677-0.067v-7.688
			l-2.287,1.476c-0.257-0.244-0.487-0.637-0.568-0.975l3.153-1.963c0.149-0.041,0.325-0.067,0.501-0.067
			c0.189,0,0.379,0.026,0.555,0.067V266.437z"/>
		<path style="fill:#1A2A4F;" d="M147.981,264.312h-1.286v2.111c-0.203,0.041-0.406,0.067-0.623,0.067
			c-0.23,0-0.474-0.013-0.704-0.067v-2.111h-3.898c-0.041-0.176-0.067-0.352-0.067-0.527c0-0.149,0.013-0.284,0.067-0.501
			l2.924-5.996c0.189-0.041,0.474-0.067,0.663-0.067c0.244,0,0.514,0.026,0.771,0.067l-2.937,5.901h2.477v-2.044
			c0.23-0.041,0.46-0.067,0.69-0.067c0.216,0,0.419,0.026,0.636,0.067v2.044h1.286c0.054,0.189,0.068,0.393,0.068,0.582
			C148.049,263.946,148.036,264.149,147.981,264.312z"/>
		<path style="fill:#1A2A4F;" d="M149.404,267.952c-0.311-0.04-0.514-0.189-0.69-0.433c1.326-1.57,1.827-3.344,1.827-5.13
			c0-1.813-0.501-3.546-1.827-5.116c0.176-0.243,0.406-0.393,0.717-0.433c1.57,1.462,2.382,3.519,2.382,5.59
			C151.813,264.501,150.975,266.49,149.404,267.952z"/>
	</g>
	<g>
		<path style="fill:#E2A3A9;" d="M118.705,84.638h-9.77v30.238c-1.037,0.164-2.511,0.273-3.875,0.273
			c-1.364,0-2.838-0.109-3.93-0.273V84.638h-9.77c-0.218-0.709-0.382-2.401-0.382-3.329c0-0.928,0.219-2.62,0.437-3.33h27.29
			c0.218,0.709,0.382,2.401,0.382,3.33C119.087,82.237,118.923,83.929,118.705,84.638z"/>
		<path style="fill:#E2A3A9;" d="M135.949,115.422c-10.097,0-15.446-6.986-15.446-18.994s5.349-18.994,15.446-18.994
			c10.098,0,15.447,6.986,15.447,18.994S146.047,115.422,135.949,115.422z M135.949,84.147c-4.694,0-7.368,3.603-7.368,12.281
			s2.674,12.281,7.368,12.281c4.694,0,7.369-3.603,7.369-12.281S140.644,84.147,135.949,84.147z"/>
		<path style="fill:#E2A3A9;" d="M168.476,101.667h-3.82v13.208c-1.037,0.164-2.292,0.273-3.93,0.273
			c-1.474,0-2.839-0.109-3.875-0.273V78.034c3.165-0.164,7.969-0.328,11.08-0.328c8.351,0,14.409,2.893,14.409,11.571
			C182.34,97.738,177.045,101.667,168.476,101.667z M168.258,84.147c-1.092,0-2.511,0.055-3.603,0.109v10.861h3.384
			c4.203,0,6.44-1.091,6.44-5.567C174.479,85.73,172.569,84.147,168.258,84.147z"/>
		<path style="fill:#E2A3A9;" d="M207.278,115.422c-3.548,0-7.805-0.491-10.425-1.801c-0.164-0.546-0.273-1.747-0.273-2.456
			c0-1.146,0.164-2.565,0.438-3.711c2.947,1.146,6.386,1.747,9.114,1.747c4.476,0,6.986-2.074,6.986-5.513
			c0-3.711-2.237-5.185-6.386-5.185h-3.002c-0.164-0.601-0.327-1.801-0.327-3.111c0-1.092,0.218-2.401,0.382-2.893h2.838
			c3.767,0,5.513-2.02,5.513-4.858c0-2.674-1.965-3.984-5.076-3.984c-2.783,0-6.058,0.709-8.787,1.856
			c-0.272-0.928-0.491-2.456-0.491-3.657c0-0.818,0.109-2.074,0.272-2.565c2.348-1.037,6.659-1.856,10.316-1.856
			c6.386,0,11.734,3.166,11.734,9.661c0,3.603-1.637,6.604-4.748,8.023v0.109c3.603,1.364,5.785,4.639,5.785,8.405
			C221.142,111.438,214.811,115.422,207.278,115.422z"/>
	</g>
	<g>
		<path style="fill:#E2A3A9;" d="M101.672,156.389c-0.999,0.158-2.208,0.263-3.786,0.263c-1.42,0-2.734-0.104-3.733-0.263v-35.545
			c0.999-0.158,2.471-0.263,3.786-0.263c1.473,0,2.787,0.105,3.733,0.263V156.389z"/>
		<path style="fill:#E2A3A9;" d="M137.112,156.389c-0.526,0.105-1.788,0.21-2.682,0.21s-1.788-0.052-2.629-0.21l-16.353-22.768
			v22.768c-0.421,0.105-1.998,0.263-3.47,0.263c-1.209,0-2.629-0.157-3.365-0.263v-35.545c0.841-0.158,1.84-0.21,2.787-0.21
			c0.999,0,2.051,0.105,2.839,0.21l16.038,22.347v-22.347c1.052-0.158,2.418-0.263,3.417-0.263c1,0,2.472,0.105,3.418,0.263V156.389
			z"/>
		<path style="fill:#E2A3A9;" d="M181.647,142.875c0,9.044-3.471,14.039-13.566,14.039c-10.201,0-13.408-4.995-13.408-14.039
			v-22.032c1.052-0.158,2.419-0.263,3.681-0.263c1.472,0,2.787,0.105,3.838,0.263v22.558c0,4.837,1.367,7.572,5.942,7.572
			c4.574,0,6.151-2.734,6.151-7.572v-22.558c0.947-0.158,2.524-0.263,3.733-0.263c1.157,0,2.734,0.105,3.629,0.263V142.875z"/>
		<path style="fill:#E2A3A9;" d="M216.245,156.389c-0.946,0.158-2.629,0.263-4.469,0.263c-1.314,0-3.208-0.104-4.312-0.263
			l-9.201-14.25l-2.419,2.892v11.357c-0.999,0.158-2.208,0.263-3.786,0.263c-1.42,0-2.734-0.104-3.733-0.263v-35.545
			c0.999-0.158,2.472-0.263,3.786-0.263c1.473,0,2.787,0.105,3.733,0.263v15.301l6.1-7.151c2.682-3.155,4.153-5.416,4.732-8.15
			c1.052-0.158,2.523-0.263,3.681-0.263c0.946,0,2.576,0.105,3.681,0.263c-0.789,4.154-2.997,7.782-6.152,11.41l-4.206,4.838
			L216.245,156.389z"/>
	</g>
</g>
<g id="Shamrocks">
	<path style="fill:#B4A168;" d="M205.435,30.361c-5.886-1.447-14.48,3.754-18.945,8.333c3.825-5.126,7.621-14.43,5.267-20.018
		c-2.862-6.808-11.843-6.773-14.927-0.494c-6.348-2.94-13.35,2.686-11.29,9.78c1.698,5.848,10.573,10.707,16.775,12.262
		c-6.349-0.774-16.384,0.581-20.066,5.435c-4.465,5.886,0.058,13.646,7.034,13.177c0.63,6.967,9,10.219,14.118,4.887
		c3.222-3.36,3.846-10.069,3.176-15.791c1.227,3.466,2.321,6.725,2.944,9.571c0.837,3.818,0.518,6.209-0.462,8.272
		c-0.893,1.885-3.484,3.128-5.208,3.739l0.837,2.367c2.935-1.039,4.732-3.005,5.778-5.21c1.108-2.333,1.203-5.333,0.303-9.44
		c-0.69-3.15-1.927-6.749-3.289-10.57c3.057,5.118,8.019,10.437,12.885,11.052c7.329,0.923,11.788-6.873,7.895-12.684
		C213.976,41,212.608,32.125,205.435,30.361"/>
	<path style="fill:#B4A168;" d="M120.371,26.477c4.616-1.482,11.765,2.188,15.583,5.594c-3.337-3.878-6.885-11.09-5.321-15.682
		c1.906-5.594,9.073-6.065,11.886-1.227c4.902-2.699,10.803,1.397,9.556,7.173c-1.027,4.763-7.839,9.135-12.704,10.724
		c5.022-0.972,13.107-0.451,16.32,3.216c3.889,4.449,0.715,10.893-4.882,10.908c-0.113,5.597-6.611,8.659-10.99,4.69
		c-2.763-2.503-3.634-7.823-3.419-12.426c-0.787,2.835-1.476,5.496-1.817,7.803c-0.454,3.091-0.066,4.983,0.831,6.575
		c0.819,1.453,2.956,2.3,4.368,2.693l-0.538,1.936c-2.399-0.666-3.945-2.134-4.902-3.835c-1.013-1.8-1.257-4.19-0.766-7.516
		c0.375-2.553,1.16-5.495,2.034-8.62c-2.153,4.258-5.816,8.776-9.667,9.539c-5.798,1.146-9.792-4.826-7.006-9.681
		C114.147,35.445,114.743,28.286,120.371,26.477"/>
	<path style="fill:#B4A168;" d="M113.029,47.119c-3.45-0.536-8.12,2.881-10.453,5.731c1.937-3.133,3.648-8.661,2.018-11.75
		c-1.986-3.764-7.137-3.293-8.591,0.466c-3.791-1.369-7.525,2.21-5.986,6.177c1.268,3.271,6.604,5.614,10.24,6.194
		c-3.681-0.125-9.37,1.157-11.241,4.126c-2.267,3.602,0.718,7.827,4.699,7.207c0.712,3.967,5.677,5.413,8.344,2.097
		c1.682-2.09,1.704-5.971,1.031-9.22c0.879,1.927,1.67,3.742,2.172,5.344c0.671,2.147,0.608,3.536,0.148,4.769
		c-0.417,1.127-1.84,1.969-2.802,2.407l0.601,1.316c1.632-0.742,2.564-1.961,3.054-3.28c0.52-1.394,0.422-3.119-0.299-5.43
		c-0.557-1.773-1.446-3.777-2.419-5.901c2.01,2.783,5.126,5.585,7.951,5.695c4.252,0.162,6.417-4.536,3.89-7.673
		C118.465,52.794,117.234,47.772,113.029,47.119"/>
</g>
</svg>
