<?xml version="1.0" encoding="utf-8"?>
<!-- Generator: Adobe Illustrator 16.0.0, SVG Export Plug-In . SVG Version: 6.00 Build 0)  -->
<!DOCTYPE svg PUBLIC "-//W3C//DTD SVG 1.0//EN" "http://www.w3.org/TR/2001/REC-SVG-20010904/DTD/svg10.dtd">
<svg version="1.0" xmlns="http://www.w3.org/2000/svg" xmlns:xlink="http://www.w3.org/1999/xlink" x="0px" y="0px" width="300px"
	 height="300px" viewBox="0 0 300 300" style="enable-background:new 0 0 300 300;" xml:space="preserve">
<g id="Graphics">
	
		<line style="fill:none;stroke:#1A2A4F;stroke-width:0.923;stroke-dasharray:2.753,1.829;" x1="143.394" y1="196.239" x2="279.999" y2="196.239"/>
	
		<line style="fill:none;stroke:#1A2A4F;stroke-width:0.923;stroke-dasharray:2.795,1.871;" x1="283.446" y1="191.319" x2="283.446" y2="101.388"/>
	
		<line style="fill:none;stroke:#1A2A4F;stroke-width:0.923;stroke-dasharray:2.742,1.818;" x1="278.644" y1="97.875" x2="80.882" y2="97.875"/>
	<path style="fill:none;stroke:#1A2A4F;stroke-width:0.923;" d="M79.513,97.875h-2.064 M283.446,99.979v-2.104h-2.064
		 M281.375,196.239h2.071v-2.103 M138.567,196.239h2.072"/>
	<path style="fill:#1A2A4F;" d="M47.37,122.619l-0.018-3.73H35.838c-0.536,0-0.975,0.394-0.975,0.877v1.976
		c0,0.482,0.438,0.878,0.975,0.878H47.37z M50.409,118.888l0.018,3.73h11.83c0.536,0,0.975-0.396,0.975-0.878v-1.976
		c0-0.483-0.438-0.877-0.975-0.877H50.409z M57.67,138.207c-0.165,17.185-0.02,34.428-0.02,51.621c0,6.445-17.325,6.445-17.325,0
		c0-17.195,0.032-34.45,0.004-51.609h2.841v50.826c0,1.079,2.377,1.079,2.377,0v-50.826h1.898l-0.069-14.277h-9.583v66.728
		c0,8.442,22.695,8.442,22.695,0v-66.728H50.432l0.069,14.277L57.67,138.207z M36.183,117.563h11.163l-0.031-6.37
		c-3.359,1.129-15.901,3.722-21.204-4.486c-6.091-9.424-8.801-14.989-10.296-14.695c-1.497,0.292,12.424-3.941,21.487,0.844
		c5.727,3.023,8.676,9.209,9.988,13.477l-0.084-17.401c-2.919-0.446-7.333-1.881-8.116-5.923c-1.171-6.044-1.394-9.457-2.246-9.565
		c-0.852-0.11,7.408,0.111,11.15,4.231c2.62,2.881,2.602,7.209,2.262,9.616l0.055,11.35c0.84-3.067,3.271-8.877,8.404-11.372
		c7.002-3.401,17.41,0.141,16.288-0.116c-1.123-0.26-3.341,3.888-8.23,10.873c-4.43,6.328-14.44,3.621-16.452,2.774l0.082,16.764
		h11.51c1.822,0,3.307,0.989,3.307,2.202v1.976c0,1.085-1.188,1.991-2.743,2.171v66.758c0,10.197-26.669,10.197-26.669,0v-66.742
		c-1.645-0.125-2.93-1.059-2.93-2.187v-1.976C32.875,118.552,34.36,117.563,36.183,117.563"/>
	<path style="fill:#1A2A4F;" d="M122.262,171.237l-29.188,29.189h-0.011l-25.457-0.004c-2.409,0-4.371-1.961-4.371-4.37
		c0-1.962,1.312-3.649,3.193-4.179h8.51c1.004,0,1.819-0.812,1.819-1.817c0-1.003-0.815-1.817-1.819-1.817H56.807
		c-1.167,0-2.264-0.453-3.089-1.279c-0.824-0.827-1.28-1.92-1.28-3.088v-0.003c0-1.968,1.318-3.661,3.205-4.185l11.326,0.002
		c1.004,0,1.817-0.813,1.817-1.819c0-1.004-0.813-1.817-1.817-1.817h-13.4c-0.006,0-0.011,0.003-0.017,0.003h-7.679
		c-1.167,0-2.263-0.454-3.089-1.279c-0.825-0.823-1.28-1.924-1.28-3.091c0-1.259,0.574-2.435,1.519-3.262l15.544-0.459
		c0.986-0.029,1.765-0.838,1.765-1.816c0-0.019-0.001-0.036-0.001-0.054c-0.029-1.003-0.868-1.794-1.87-1.764l-16.16,0.477h-6.428
		c-2.407,0-4.365-1.963-4.368-4.371c0-1.167,0.453-2.264,1.278-3.088c0.826-0.827,1.924-1.279,3.092-1.279h35.35
		c0.481,0,0.943-0.19,1.284-0.532c0.342-0.342,0.534-0.803,0.534-1.285v-5.579c0-1.005-0.815-1.82-1.818-1.82h-8.849v-7.176
		l29.09-0.161L122.262,171.237z"/>
	<path style="fill:#B4A168;" d="M140.8,182.048l-37.625,37.623l-12.103-12.103l37.624-37.621L140.8,182.048z M122.261,171.237
		l-29.188,29.189h-0.01l-25.459-0.004c-2.407,0-4.367-1.961-4.369-4.37c0-1.962,1.313-3.649,3.194-4.179h8.51
		c1.004,0,1.817-0.812,1.817-1.817c0-1.003-0.813-1.817-1.817-1.817H56.806c-1.167,0-2.265-0.451-3.089-1.279
		c-0.825-0.827-1.278-1.92-1.278-3.088v-0.003c0-1.968,1.315-3.661,3.203-4.185l11.327,0.002c1.002,0,1.817-0.813,1.817-1.819
		c0-1.004-0.815-1.817-1.817-1.817H53.568c-0.006,0-0.01,0.003-0.016,0.003h-7.681c-1.167,0-2.263-0.454-3.088-1.279
		c-0.823-0.823-1.279-1.924-1.28-3.091c0-1.259,0.575-2.435,1.52-3.262l15.543-0.457c0.987-0.031,1.765-0.84,1.765-1.818
		c0-0.019,0-0.036,0-0.054c-0.03-1.003-0.867-1.794-1.872-1.764l-16.158,0.475h-6.43c-2.405,0-4.365-1.961-4.368-4.367
		c0-1.169,0.454-2.266,1.279-3.09c0.826-0.827,1.922-1.279,3.09-1.279h35.35c0.481,0,0.943-0.19,1.285-0.532
		c0.341-0.342,0.533-0.803,0.533-1.285v-5.579c0-1.005-0.814-1.82-1.818-1.82h-8.848v-7.176l29.09-0.161L122.261,171.237z
		 M145.188,182.048c0-0.482-0.191-0.943-0.533-1.284l-14.675-14.675c-0.709-0.709-1.861-0.709-2.57,0l-2.578,2.579l-31.299-32.243
		c-0.345-0.356-0.819-0.556-1.314-0.553l-31.347,0.183v14.434h8.532v1.944h-33.53c-2.139-0.003-4.151,0.833-5.663,2.344
		c-1.512,1.512-2.342,3.521-2.342,5.66c0.004,4.412,3.593,8.003,8.002,8.003h2.687c-0.449,1.012-0.689,2.111-0.689,3.244
		c0,2.142,0.832,4.148,2.343,5.66c1.513,1.513,3.523,2.348,5.661,2.344h4.106c-0.751,1.227-1.176,2.662-1.176,4.183v0.006
		c0,2.136,0.833,4.143,2.345,5.656c1.511,1.511,3.521,2.343,5.659,2.343h3.995c-0.755,1.229-1.202,2.656-1.203,4.179
		c0.002,4.415,3.594,8.006,8.005,8.006l21.836,0.003l-2.223,2.223c-0.342,0.341-0.533,0.804-0.533,1.284
		c0,0.485,0.191,0.945,0.533,1.286l14.675,14.675c0.709,0.71,1.86,0.71,2.57,0l40.193-40.194
		C144.998,182.996,145.188,182.531,145.188,182.048"/>
	<text transform="matrix(1 0 0 1 274.4805 176.0283)" style="fill:#FFFFFF; font-family:'FSMatthew-Medium'; font-size:9.7711;"> </text>
	<text transform="matrix(1 0 0 1 146.0117 186.2246)"><tspan x="0" y="0" style="fill:#FFFFFF; font-family:'FSMatthew-Medium'; font-size:9.7711;">     </tspan><tspan x="9.428" y="0" style="fill:#FFFFFF; font-family:'FSMatthew-Medium'; font-size:9.7711;"> </tspan></text>
	
		<line style="fill:none;stroke:#1A2A4F;stroke-width:0.923;stroke-dasharray:2.728,1.804;" x1="118.962" y1="152.258" x2="273.188" y2="152.258"/>
	<rect x="60.474" y="134.481" style="fill:#61B1AD;" width="1.997" height="17.052"/>
</g>
<g id="Text" style="display:none;">
	<text transform="matrix(1 0 0 1 146.0117 165.832)" style="display:inline;"><tspan x="0" y="0" style="fill:#1A2A4F; font-family:'FSMatthew-Bold'; font-size:11.123;">F</tspan><tspan x="5.317" y="0" style="fill:#1A2A4F; font-family:'FSMatthew-Bold'; font-size:11.123;">O</tspan><tspan x="12.38" y="0" style="fill:#1A2A4F; font-family:'FSMatthew-Bold'; font-size:11.123;">R</tspan><tspan x="18.82" y="0" style="fill:#1A2A4F; font-family:'FSMatthew-Bold'; font-size:11.123;"> BIO</tspan><tspan x="37.597" y="0" style="fill:#1A2A4F; font-family:'FSMatthew-Bold'; font-size:11.123;">M</tspan><tspan x="46.572" y="0" style="fill:#1A2A4F; font-family:'FSMatthew-Bold'; font-size:11.123;">EDI</tspan><tspan x="62.623" y="0" style="fill:#1A2A4F; font-family:'FSMatthew-Bold'; font-size:11.123;">C</tspan><tspan x="69.129" y="0" style="fill:#1A2A4F; font-family:'FSMatthew-Bold'; font-size:11.123;">A</tspan><tspan x="76.215" y="0" style="fill:#1A2A4F; font-family:'FSMatthew-Bold'; font-size:11.123;">L</tspan><tspan x="81.298" y="0" style="fill:#1A2A4F; font-family:'FSMatthew-Bold'; font-size:11.123;"> </tspan><tspan x="83.589" y="0" style="fill:#1A2A4F; font-family:'FSMatthew-Bold'; font-size:11.123;">S</tspan><tspan x="89.373" y="0" style="fill:#1A2A4F; font-family:'FSMatthew-Bold'; font-size:11.123;">C</tspan><tspan x="95.623" y="0" style="fill:#1A2A4F; font-family:'FSMatthew-Bold'; font-size:11.123;">I</tspan><tspan x="98.704" y="0" style="fill:#1A2A4F; font-family:'FSMatthew-Bold'; font-size:11.123;">ENC</tspan><tspan x="118.27" y="0" style="fill:#1A2A4F; font-family:'FSMatthew-Bold'; font-size:11.123;">E</tspan><tspan x="124.31" y="0" style="fill:#1A2A4F; font-family:'FSMatthew-Bold'; font-size:11.123;"> </tspan><tspan x="126.379" y="0" style="fill:#1A2A4F; font-family:'FSMatthew-Bold'; font-size:11.123;"> </tspan></text>
	<text transform="matrix(1 0 0 1 146.0117 176.0283)" style="display:inline;"><tspan x="0" y="0" style="fill:#1A2A4F; font-family:'FSMatthew-Bold'; font-size:11.123;">   AND NUR</tspan><tspan x="51.9" y="0" style="fill:#1A2A4F; font-family:'FSMatthew-Bold'; font-size:11.123;">S</tspan><tspan x="57.684" y="0" style="fill:#1A2A4F; font-family:'FSMatthew-Bold'; font-size:11.123;">ING R</tspan><tspan x="83.957" y="0" style="fill:#1A2A4F; font-family:'FSMatthew-Bold'; font-size:11.123;">E</tspan><tspan x="89.774" y="0" style="fill:#1A2A4F; font-family:'FSMatthew-Bold'; font-size:11.123;">S</tspan><tspan x="95.569" y="0" style="fill:#1A2A4F; font-family:'FSMatthew-Bold'; font-size:11.123;">E</tspan><tspan x="101.576" y="0" style="fill:#1A2A4F; font-family:'FSMatthew-Bold'; font-size:11.123;">A</tspan><tspan x="108.661" y="0" style="fill:#1A2A4F; font-family:'FSMatthew-Bold'; font-size:11.123;">R</tspan><tspan x="114.979" y="0" style="fill:#1A2A4F; font-family:'FSMatthew-Bold'; font-size:11.123;">C</tspan><tspan x="121.23" y="0" style="fill:#1A2A4F; font-family:'FSMatthew-Bold'; font-size:11.123;">H</tspan></text>
	<text transform="matrix(1 0 0 1 158.0303 186.2246)" style="display:inline;"><tspan x="0" y="0" style="fill:#1A2A4F; font-family:'FSMatthew'; font-size:9.2691;"> (RE</tspan><tspan x="14.229" y="0" style="fill:#1A2A4F; font-family:'FSMatthew'; font-size:9.2691;">F</tspan><tspan x="18.575" y="0" style="fill:#1A2A4F; font-family:'FSMatthew'; font-size:9.2691;"> 2</tspan><tspan x="25.248" y="0" style="fill:#1A2A4F; font-family:'FSMatthew'; font-size:9.2691;">0</tspan><tspan x="30.049" y="0" style="fill:#1A2A4F; font-family:'FSMatthew'; font-size:9.2691;">1</tspan><tspan x="34.859" y="0" style="fill:#1A2A4F; font-family:'FSMatthew'; font-size:9.2691;">4</tspan><tspan x="39.66" y="0" style="fill:#1A2A4F; font-family:'FSMatthew'; font-size:9.2691;">)</tspan></text>
	<text transform="matrix(1 0 0 1 109.2085 129.3042)" style="display:inline;"><tspan x="0" y="0" style="fill:#1A2A4F; font-family:'FSMatthew-Bold'; font-size:30.5882; letter-spacing:-1;">T</tspan><tspan x="15.722" y="0" style="fill:#1A2A4F; font-family:'FSMatthew-Bold'; font-size:30.5882;">OP F</tspan><tspan x="74.144" y="0" style="fill:#1A2A4F; font-family:'FSMatthew-Bold'; font-size:30.5882;">I</tspan><tspan x="82.74" y="0" style="fill:#1A2A4F; font-family:'FSMatthew-Bold'; font-size:30.5882;">V</tspan><tspan x="100.695" y="0" style="fill:#1A2A4F; font-family:'FSMatthew-Bold'; font-size:30.5882;">E</tspan></text>
	<text transform="matrix(1 0 0 1 109.2085 145.9897)" style="display:inline;"><tspan x="0" y="0" style="fill:#B4A168; font-family:'FSMatthew-Bold'; font-size:20.3921;">   U</tspan><tspan x="25.611" y="0" style="fill:#B4A168; font-family:'FSMatthew-Bold'; font-size:20.3921;">K</tspan><tspan x="37.724" y="0" style="fill:#B4A168; font-family:'FSMatthew-Bold'; font-size:20.3921;"> </tspan><tspan x="41.925" y="0" style="fill:#B4A168; font-family:'FSMatthew-Bold'; font-size:20.3921;">U</tspan><tspan x="54.915" y="0" style="fill:#B4A168; font-family:'FSMatthew-Bold'; font-size:20.3921;">N</tspan><tspan x="68.638" y="0" style="fill:#B4A168; font-family:'FSMatthew-Bold'; font-size:20.3921;">I</tspan><tspan x="74.369" y="0" style="fill:#B4A168; font-family:'FSMatthew-Bold'; font-size:20.3921;">V</tspan><tspan x="86.338" y="0" style="fill:#B4A168; font-family:'FSMatthew-Bold'; font-size:20.3921;">ER</tspan><tspan x="108.811" y="0" style="fill:#B4A168; font-family:'FSMatthew-Bold'; font-size:20.3921;">SI</tspan><tspan x="125.105" y="0" style="fill:#B4A168; font-family:'FSMatthew-Bold'; font-size:20.3921;">T</tspan><tspan x="135.851" y="0" style="fill:#B4A168; font-family:'FSMatthew-Bold'; font-size:20.3921;">IE</tspan><tspan x="152.207" y="0" style="fill:#B4A168; font-family:'FSMatthew-Bold'; font-size:20.3921;">S</tspan></text>
</g>
<g id="Text_Flat">
	<g>
		<path style="fill:#1A2A4F;" d="M151.396,159.67h-2.959v1.624h2.492c0.044,0.122,0.078,0.345,0.078,0.656
			c0,0.244-0.022,0.444-0.078,0.679h-2.492v3.203c-0.211,0.033-0.456,0.056-0.79,0.056c-0.3,0-0.59-0.022-0.801-0.056v-7.52h4.549
			c0.045,0.122,0.078,0.355,0.078,0.667C151.474,159.225,151.451,159.436,151.396,159.67z"/>
		<path style="fill:#1A2A4F;" d="M154.966,165.943c-2.059,0-3.148-1.424-3.148-3.871s1.09-3.871,3.148-3.871
			c2.058,0,3.147,1.424,3.147,3.871S157.023,165.943,154.966,165.943z M154.966,159.569c-0.957,0-1.502,0.734-1.502,2.503
			s0.545,2.503,1.502,2.503c0.956,0,1.501-0.734,1.501-2.503S155.922,159.569,154.966,159.569z"/>
		<path style="fill:#1A2A4F;" d="M164.766,165.821c-0.289,0.044-0.59,0.066-0.935,0.066c-0.312,0-0.623-0.011-0.834-0.056
			l-1.524-2.703h-0.656v2.703c-0.278,0.045-0.512,0.056-0.812,0.056c-0.268,0-0.501-0.011-0.779-0.056v-7.52
			c0.512-0.033,1.58-0.056,2.225-0.056c1.892,0,2.837,0.667,2.837,2.402c0,0.924-0.557,1.847-1.335,2.181L164.766,165.821z
			 M161.551,159.559c-0.245,0-0.545,0.011-0.734,0.021v2.226h0.557c0.912,0,1.312-0.334,1.312-1.157
			S162.285,159.559,161.551,159.559z"/>
		<path style="fill:#1A2A4F;" d="M170.305,165.888c-0.79,0-1.558-0.022-2.348-0.066v-7.498c0.646-0.044,1.502-0.066,2.08-0.066
			c1.713,0,2.759,0.522,2.759,1.936c0,0.712-0.3,1.246-1.001,1.558c0.935,0.222,1.535,0.9,1.535,1.812
			C173.33,165.298,172.073,165.888,170.305,165.888z M170.148,159.569c-0.2,0-0.423,0.011-0.601,0.022v1.69h0.623
			c0.723,0,1.068-0.233,1.068-0.912C171.239,159.67,170.693,159.569,170.148,159.569z M170.326,162.528h-0.778v2.024
			c0.212,0.011,0.523,0.022,0.734,0.022c0.99,0,1.468-0.278,1.468-1.023C171.75,162.784,171.339,162.528,170.326,162.528z"/>
		<path style="fill:#1A2A4F;" d="M175.899,165.832c-0.211,0.033-0.467,0.056-0.801,0.056c-0.301,0-0.579-0.022-0.79-0.056v-7.52
			c0.211-0.033,0.522-0.056,0.801-0.056c0.312,0,0.59,0.022,0.79,0.056V165.832z"/>
		<path style="fill:#1A2A4F;" d="M180.182,165.943c-2.059,0-3.148-1.424-3.148-3.871s1.09-3.871,3.148-3.871
			c2.058,0,3.147,1.424,3.147,3.871S182.239,165.943,180.182,165.943z M180.182,159.569c-0.957,0-1.502,0.734-1.502,2.503
			s0.545,2.503,1.502,2.503c0.956,0,1.501-0.734,1.501-2.503S181.138,159.569,180.182,159.569z"/>
		<path style="fill:#1A2A4F;" d="M192.049,165.832c-0.133,0.033-0.434,0.056-0.745,0.056c-0.333,0-0.645-0.033-0.778-0.056
			l-0.134-4.517l-1.646,3.805c-0.122,0.045-0.389,0.066-0.556,0.066c-0.2,0-0.445-0.021-0.567-0.056l-1.646-3.815l-0.145,4.517
			c-0.145,0.033-0.489,0.056-0.79,0.056c-0.178,0-0.478-0.022-0.678-0.056l0.322-7.52c0.211-0.022,0.423-0.056,0.646-0.056
			c0.267,0,0.522,0.022,0.656,0.056l2.202,5.105l2.214-5.105c0.222-0.033,0.444-0.056,0.645-0.056c0.256,0,0.49,0.022,0.656,0.056
			L192.049,165.832z"/>
		<path style="fill:#1A2A4F;" d="M198.123,165.832h-4.706v-7.52h4.605c0.045,0.122,0.078,0.355,0.078,0.667
			c0,0.245-0.022,0.456-0.078,0.69h-3.015v1.624h2.548c0.044,0.122,0.077,0.345,0.077,0.656c0,0.244-0.021,0.444-0.077,0.679h-2.548
			v1.846h3.115c0.044,0.123,0.077,0.356,0.077,0.668C198.2,165.387,198.178,165.599,198.123,165.832z"/>
		<path style="fill:#1A2A4F;" d="M204.084,165.165c-0.689,0.533-1.579,0.723-2.803,0.723c-0.623,0-1.68-0.022-2.036-0.056v-7.52
			c0.545-0.033,1.68-0.056,2.314-0.056c2.446,0,3.704,1.034,3.704,3.727C205.264,163.374,204.896,164.53,204.084,165.165z
			 M201.593,159.569c-0.301,0-0.635,0.011-0.757,0.022v4.95c0.145,0.011,0.479,0.021,0.823,0.021c1.401,0,1.958-0.89,1.958-2.603
			C203.617,160.081,203.039,159.569,201.593,159.569z"/>
		<path style="fill:#1A2A4F;" d="M207.988,165.832c-0.211,0.033-0.467,0.056-0.801,0.056c-0.301,0-0.578-0.022-0.79-0.056v-7.52
			c0.212-0.033,0.522-0.056,0.801-0.056c0.312,0,0.59,0.022,0.79,0.056V165.832z"/>
		<path style="fill:#1A2A4F;" d="M214.595,159.881c-0.533-0.167-1.201-0.289-1.735-0.289c-1.268,0-2.091,0.9-2.091,2.514
			c0,1.479,0.646,2.447,2.08,2.447c0.534,0,1.135-0.111,1.669-0.278c0.077,0.2,0.133,0.512,0.133,0.745
			c0,0.189-0.011,0.423-0.033,0.523c-0.556,0.256-1.268,0.4-1.924,0.4c-2.392,0-3.571-1.446-3.571-3.805
			c0-2.291,1.269-3.938,3.638-3.938c0.578,0,1.335,0.145,1.869,0.378c0.033,0.111,0.044,0.356,0.044,0.501
			C214.673,159.425,214.629,159.747,214.595,159.881z"/>
		<path style="fill:#1A2A4F;" d="M222.282,165.832c-0.145,0.033-0.489,0.056-0.856,0.056c-0.289,0-0.623-0.033-0.768-0.056
			l-0.557-1.524h-2.67l-0.522,1.524c-0.244,0.033-0.534,0.056-0.823,0.056s-0.623-0.022-0.79-0.056l2.626-7.52
			c0.155-0.033,0.522-0.056,0.768-0.056c0.3,0,0.656,0.022,0.778,0.056L222.282,165.832z M219.623,162.984l-0.656-2.125
			c-0.077-0.244-0.155-0.556-0.222-0.9h-0.022c-0.056,0.345-0.145,0.656-0.223,0.9l-0.623,2.125H219.623z"/>
		<path style="fill:#1A2A4F;" d="M227.665,165.832h-4.605v-7.52c0.212-0.033,0.501-0.056,0.779-0.056
			c0.312,0,0.611,0.022,0.812,0.056v6.162h3.015c0.045,0.123,0.078,0.356,0.078,0.668
			C227.743,165.387,227.721,165.599,227.665,165.832z"/>
		<path style="fill:#1A2A4F;" d="M232.48,165.943c-0.812,0-1.702-0.156-2.336-0.445c-0.033-0.155-0.056-0.355-0.056-0.533
			c0-0.268,0.033-0.523,0.111-0.823c0.656,0.267,1.524,0.434,2.202,0.434c0.79,0,1.213-0.367,1.213-0.868
			c0-0.556-0.355-0.789-1.435-1.123c-1.202-0.367-2.08-0.945-2.08-2.236c0-1.379,1.189-2.146,2.758-2.146
			c0.724,0,1.368,0.111,1.803,0.256c0.033,0.122,0.056,0.322,0.056,0.611c0,0.212-0.022,0.534-0.067,0.713
			c-0.556-0.146-1.189-0.223-1.701-0.223c-0.835,0-1.291,0.277-1.291,0.723c0,0.522,0.412,0.734,1.413,1.046
			c1.201,0.378,2.091,0.945,2.091,2.28C235.161,165.064,234.016,165.943,232.48,165.943z"/>
		<path style="fill:#1A2A4F;" d="M241.346,159.881c-0.533-0.167-1.201-0.289-1.735-0.289c-1.268,0-2.091,0.9-2.091,2.514
			c0,1.479,0.646,2.447,2.08,2.447c0.534,0,1.135-0.111,1.669-0.278c0.077,0.2,0.133,0.512,0.133,0.745
			c0,0.189-0.011,0.423-0.033,0.523c-0.556,0.256-1.268,0.4-1.924,0.4c-2.392,0-3.571-1.446-3.571-3.805
			c0-2.291,1.269-3.938,3.638-3.938c0.578,0,1.335,0.145,1.869,0.378c0.033,0.111,0.044,0.356,0.044,0.501
			C241.424,159.425,241.38,159.747,241.346,159.881z"/>
		<path style="fill:#1A2A4F;" d="M244.082,165.832c-0.211,0.033-0.467,0.056-0.801,0.056c-0.301,0-0.578-0.022-0.79-0.056v-7.52
			c0.212-0.033,0.522-0.056,0.801-0.056c0.312,0,0.59,0.022,0.79,0.056V165.832z"/>
		<path style="fill:#1A2A4F;" d="M250.256,165.832h-4.706v-7.52h4.605c0.045,0.122,0.078,0.355,0.078,0.667
			c0,0.245-0.022,0.456-0.078,0.69h-3.015v1.624h2.548c0.044,0.122,0.077,0.345,0.077,0.656c0,0.244-0.021,0.444-0.077,0.679h-2.548
			v1.846h3.115c0.044,0.123,0.077,0.356,0.077,0.668C250.333,165.387,250.311,165.599,250.256,165.832z"/>
		<path style="fill:#1A2A4F;" d="M257.407,165.832c-0.111,0.022-0.378,0.045-0.567,0.045s-0.378-0.012-0.556-0.045l-3.46-4.816
			v4.816c-0.089,0.022-0.423,0.056-0.734,0.056c-0.256,0-0.556-0.033-0.712-0.056v-7.52c0.179-0.033,0.39-0.045,0.59-0.045
			c0.211,0,0.434,0.022,0.601,0.045l3.393,4.728v-4.728c0.223-0.033,0.512-0.056,0.724-0.056c0.211,0,0.522,0.022,0.723,0.056
			V165.832z"/>
		<path style="fill:#1A2A4F;" d="M263.991,159.881c-0.533-0.167-1.201-0.289-1.735-0.289c-1.268,0-2.091,0.9-2.091,2.514
			c0,1.479,0.646,2.447,2.08,2.447c0.534,0,1.135-0.111,1.669-0.278c0.077,0.2,0.133,0.512,0.133,0.745
			c0,0.189-0.011,0.423-0.033,0.523c-0.556,0.256-1.268,0.4-1.924,0.4c-2.392,0-3.571-1.446-3.571-3.805
			c0-2.291,1.269-3.938,3.638-3.938c0.578,0,1.335,0.145,1.869,0.378c0.033,0.111,0.044,0.356,0.044,0.501
			C264.069,159.425,264.025,159.747,263.991,159.881z"/>
		<path style="fill:#1A2A4F;" d="M269.82,165.832h-4.706v-7.52h4.605c0.045,0.122,0.078,0.355,0.078,0.667
			c0,0.245-0.022,0.456-0.078,0.69h-3.015v1.624h2.548c0.044,0.122,0.077,0.345,0.077,0.656c0,0.244-0.021,0.444-0.077,0.679h-2.548
			v1.846h3.115c0.044,0.123,0.077,0.356,0.077,0.668C269.897,165.387,269.875,165.599,269.82,165.832z"/>
	</g>
	<g>
		<path style="fill:#1A2A4F;" d="M160.027,176.028c-0.145,0.033-0.489,0.056-0.856,0.056c-0.289,0-0.623-0.033-0.768-0.056
			l-0.557-1.524h-2.67l-0.522,1.524c-0.244,0.033-0.534,0.056-0.823,0.056s-0.623-0.022-0.79-0.056l2.626-7.52
			c0.155-0.033,0.522-0.056,0.768-0.056c0.3,0,0.656,0.022,0.778,0.056L160.027,176.028z M157.368,173.181l-0.656-2.125
			c-0.077-0.244-0.155-0.556-0.222-0.9h-0.022c-0.056,0.345-0.145,0.656-0.223,0.9l-0.623,2.125H157.368z"/>
		<path style="fill:#1A2A4F;" d="M166.834,176.028c-0.111,0.022-0.378,0.045-0.567,0.045s-0.378-0.012-0.556-0.045l-3.46-4.816
			v4.816c-0.089,0.022-0.423,0.056-0.734,0.056c-0.256,0-0.556-0.033-0.712-0.056v-7.52c0.179-0.033,0.39-0.045,0.59-0.045
			c0.211,0,0.434,0.022,0.601,0.045l3.393,4.728v-4.728c0.223-0.033,0.512-0.056,0.724-0.056c0.211,0,0.522,0.022,0.723,0.056
			V176.028z"/>
		<path style="fill:#1A2A4F;" d="M173.129,175.361c-0.689,0.533-1.579,0.723-2.803,0.723c-0.623,0-1.68-0.022-2.036-0.056v-7.52
			c0.545-0.033,1.68-0.056,2.314-0.056c2.446,0,3.704,1.034,3.704,3.727C174.309,173.57,173.941,174.727,173.129,175.361z
			 M170.638,169.766c-0.301,0-0.635,0.011-0.757,0.022v4.95c0.145,0.011,0.479,0.021,0.823,0.021c1.401,0,1.958-0.89,1.958-2.603
			C172.662,170.277,172.084,169.766,170.638,169.766z"/>
		<path style="fill:#1A2A4F;" d="M183.74,176.028c-0.111,0.022-0.378,0.045-0.567,0.045s-0.378-0.012-0.556-0.045l-3.46-4.816v4.816
			c-0.089,0.022-0.423,0.056-0.734,0.056c-0.256,0-0.556-0.033-0.712-0.056v-7.52c0.179-0.033,0.39-0.045,0.59-0.045
			c0.211,0,0.434,0.022,0.601,0.045l3.393,4.728v-4.728c0.223-0.033,0.512-0.056,0.724-0.056c0.211,0,0.522,0.022,0.723,0.056
			V176.028z"/>
		<path style="fill:#1A2A4F;" d="M190.87,173.17c0,1.913-0.734,2.97-2.87,2.97c-2.158,0-2.837-1.057-2.837-2.97v-4.661
			c0.223-0.033,0.512-0.056,0.778-0.056c0.312,0,0.59,0.022,0.812,0.056v4.772c0,1.022,0.289,1.602,1.257,1.602
			s1.302-0.579,1.302-1.602v-4.772c0.2-0.033,0.534-0.056,0.79-0.056c0.244,0,0.578,0.022,0.768,0.056V173.17z"/>
		<path style="fill:#1A2A4F;" d="M197.833,176.018c-0.289,0.044-0.59,0.066-0.935,0.066c-0.312,0-0.623-0.011-0.834-0.056
			l-1.524-2.703h-0.656v2.703c-0.278,0.045-0.512,0.056-0.812,0.056c-0.268,0-0.501-0.011-0.779-0.056v-7.52
			c0.512-0.033,1.58-0.056,2.225-0.056c1.892,0,2.837,0.667,2.837,2.402c0,0.924-0.556,1.847-1.335,2.181L197.833,176.018z
			 M194.618,169.755c-0.245,0-0.545,0.011-0.734,0.021v2.226h0.557c0.912,0,1.312-0.334,1.312-1.157
			S195.353,169.755,194.618,169.755z"/>
		<path style="fill:#1A2A4F;" d="M200.791,176.14c-0.812,0-1.702-0.156-2.336-0.445c-0.033-0.155-0.056-0.355-0.056-0.533
			c0-0.268,0.033-0.523,0.111-0.823c0.656,0.267,1.524,0.434,2.202,0.434c0.79,0,1.213-0.367,1.213-0.868
			c0-0.556-0.355-0.789-1.435-1.123c-1.202-0.367-2.08-0.945-2.08-2.236c0-1.379,1.189-2.146,2.758-2.146
			c0.724,0,1.368,0.111,1.803,0.256c0.033,0.122,0.056,0.322,0.056,0.612c0,0.211-0.022,0.533-0.067,0.711
			c-0.556-0.145-1.189-0.222-1.701-0.222c-0.835,0-1.291,0.277-1.291,0.723c0,0.522,0.412,0.734,1.413,1.046
			c1.201,0.378,2.091,0.945,2.091,2.28C203.472,175.261,202.326,176.14,200.791,176.14z"/>
		<path style="fill:#1A2A4F;" d="M206.142,176.028c-0.211,0.033-0.467,0.056-0.801,0.056c-0.301,0-0.579-0.022-0.79-0.056v-7.52
			c0.211-0.033,0.522-0.056,0.801-0.056c0.312,0,0.59,0.022,0.79,0.056V176.028z"/>
		<path style="fill:#1A2A4F;" d="M213.649,176.028c-0.111,0.022-0.378,0.045-0.567,0.045s-0.378-0.012-0.556-0.045l-3.46-4.816
			v4.816c-0.089,0.022-0.423,0.056-0.734,0.056c-0.256,0-0.556-0.033-0.712-0.056v-7.52c0.179-0.033,0.39-0.045,0.59-0.045
			c0.211,0,0.434,0.022,0.601,0.045l3.393,4.728v-4.728c0.223-0.033,0.512-0.056,0.724-0.056c0.211,0,0.522,0.022,0.723,0.056
			V176.028z"/>
		<path style="fill:#1A2A4F;" d="M220.769,175.739c-0.578,0.256-1.523,0.4-2.402,0.4c-2.503,0-3.604-1.602-3.604-3.793
			c0-2.292,1.357-3.949,3.771-3.949c0.689,0,1.479,0.145,1.946,0.345c0.033,0.178,0.056,0.445,0.056,0.567
			c0,0.245-0.045,0.512-0.089,0.679c-0.479-0.156-1.168-0.256-1.802-0.256c-1.603,0-2.236,1.168-2.236,2.592
			c0,1.513,0.667,2.48,2.014,2.48c0.3,0,0.589-0.022,0.756-0.066v-2.403c0.212-0.033,0.501-0.056,0.779-0.056
			c0.312,0,0.611,0.022,0.812,0.056V175.739z"/>
		<path style="fill:#1A2A4F;" d="M229.889,176.018c-0.289,0.044-0.59,0.066-0.935,0.066c-0.312,0-0.623-0.011-0.834-0.056
			l-1.524-2.703h-0.656v2.703c-0.278,0.045-0.512,0.056-0.812,0.056c-0.268,0-0.501-0.011-0.779-0.056v-7.52
			c0.512-0.033,1.58-0.056,2.225-0.056c1.892,0,2.837,0.667,2.837,2.402c0,0.924-0.557,1.847-1.335,2.181L229.889,176.018z
			 M226.674,169.755c-0.245,0-0.545,0.011-0.734,0.021v2.226h0.557c0.912,0,1.312-0.334,1.312-1.157
			S227.408,169.755,226.674,169.755z"/>
		<path style="fill:#1A2A4F;" d="M235.507,176.028h-4.706v-7.52h4.605c0.045,0.122,0.078,0.355,0.078,0.667
			c0,0.245-0.022,0.456-0.078,0.69h-3.015v1.624h2.548c0.044,0.122,0.077,0.345,0.077,0.656c0,0.244-0.021,0.444-0.077,0.678h-2.548
			v1.847h3.115c0.044,0.123,0.077,0.356,0.077,0.668C235.584,175.583,235.562,175.795,235.507,176.028z"/>
		<path style="fill:#1A2A4F;" d="M238.664,176.14c-0.812,0-1.702-0.156-2.336-0.445c-0.033-0.155-0.056-0.355-0.056-0.533
			c0-0.268,0.033-0.523,0.111-0.823c0.656,0.267,1.524,0.434,2.202,0.434c0.79,0,1.213-0.367,1.213-0.868
			c0-0.556-0.355-0.789-1.435-1.123c-1.202-0.367-2.08-0.945-2.08-2.236c0-1.379,1.189-2.146,2.758-2.146
			c0.724,0,1.368,0.111,1.803,0.256c0.033,0.122,0.056,0.322,0.056,0.612c0,0.211-0.022,0.533-0.067,0.711
			c-0.556-0.145-1.189-0.222-1.701-0.222c-0.835,0-1.291,0.277-1.291,0.723c0,0.522,0.412,0.734,1.413,1.046
			c1.201,0.378,2.091,0.945,2.091,2.28C241.345,175.261,240.199,176.14,238.664,176.14z"/>
		<path style="fill:#1A2A4F;" d="M247.119,176.028h-4.706v-7.52h4.605c0.045,0.122,0.078,0.355,0.078,0.667
			c0,0.245-0.022,0.456-0.078,0.69h-3.015v1.624h2.548c0.044,0.122,0.077,0.345,0.077,0.656c0,0.244-0.021,0.444-0.077,0.678h-2.548
			v1.847h3.115c0.044,0.123,0.077,0.356,0.077,0.668C247.196,175.583,247.174,175.795,247.119,176.028z"/>
		<path style="fill:#1A2A4F;" d="M254.727,176.028c-0.145,0.033-0.489,0.056-0.856,0.056c-0.289,0-0.623-0.033-0.768-0.056
			l-0.557-1.524h-2.67l-0.522,1.524c-0.244,0.033-0.534,0.056-0.823,0.056s-0.623-0.022-0.79-0.056l2.626-7.52
			c0.155-0.033,0.522-0.056,0.768-0.056c0.3,0,0.656,0.022,0.778,0.056L254.727,176.028z M252.067,173.181l-0.656-2.125
			c-0.077-0.244-0.155-0.556-0.222-0.9h-0.022c-0.056,0.345-0.145,0.656-0.223,0.9l-0.623,2.125H252.067z"/>
		<path style="fill:#1A2A4F;" d="M261.044,176.018c-0.289,0.044-0.59,0.066-0.935,0.066c-0.312,0-0.623-0.011-0.834-0.056
			l-1.524-2.703h-0.656v2.703c-0.278,0.045-0.512,0.056-0.812,0.056c-0.268,0-0.501-0.011-0.779-0.056v-7.52
			c0.512-0.033,1.58-0.056,2.225-0.056c1.892,0,2.837,0.667,2.837,2.402c0,0.924-0.556,1.847-1.335,2.181L261.044,176.018z
			 M257.829,169.755c-0.245,0-0.545,0.011-0.734,0.021v2.226h0.557c0.912,0,1.312-0.334,1.312-1.157
			S258.563,169.755,257.829,169.755z"/>
		<path style="fill:#1A2A4F;" d="M266.95,170.077c-0.533-0.167-1.201-0.289-1.735-0.289c-1.268,0-2.091,0.901-2.091,2.514
			c0,1.479,0.646,2.447,2.08,2.447c0.534,0,1.135-0.111,1.669-0.278c0.077,0.2,0.133,0.512,0.133,0.745
			c0,0.189-0.011,0.423-0.033,0.523c-0.556,0.256-1.268,0.4-1.924,0.4c-2.392,0-3.571-1.446-3.571-3.805
			c0-2.291,1.269-3.938,3.638-3.938c0.578,0,1.335,0.145,1.869,0.378c0.033,0.111,0.044,0.356,0.044,0.501
			C267.028,169.621,266.984,169.943,266.95,170.077z"/>
		<path style="fill:#1A2A4F;" d="M273.869,176.028c-0.2,0.033-0.479,0.056-0.79,0.056s-0.59-0.022-0.801-0.056v-3.114h-2.614v3.114
			c-0.211,0.033-0.456,0.056-0.79,0.056c-0.3,0-0.589-0.022-0.801-0.056v-7.52c0.212-0.033,0.523-0.056,0.801-0.056
			c0.312,0,0.59,0.022,0.79,0.056v3.048h2.614v-3.048c0.245-0.033,0.522-0.056,0.801-0.056c0.267,0,0.601,0.022,0.79,0.056V176.028z
			"/>
	</g>
	<g>
		<path style="fill:#1A2A4F;" d="M161.913,187.262c-1.075-1-1.649-2.408-1.649-3.825s0.574-2.778,1.649-3.778
			c0.213,0.027,0.352,0.129,0.472,0.296c-0.907,1.074-1.25,2.288-1.25,3.511c0,1.241,0.343,2.427,1.25,3.501
			C162.265,187.132,162.126,187.234,161.913,187.262z"/>
		<path style="fill:#1A2A4F;" d="M167.592,186.225c-0.185,0.027-0.37,0.046-0.556,0.046c-0.176,0-0.324-0.009-0.5-0.046
			l-1.371-2.408h-0.814v2.408c-0.157,0.027-0.315,0.046-0.473,0.046c-0.148,0-0.306-0.019-0.454-0.046v-6.261
			c0.454-0.028,1.001-0.047,1.528-0.047c1.307,0,2.353,0.398,2.353,1.898c0,0.825-0.453,1.547-1.213,1.825L167.592,186.225z
			 M165.055,180.64c-0.214,0-0.547,0-0.704,0.009v2.437h0.63c0.87,0,1.389-0.39,1.389-1.27
			C166.369,180.964,165.879,180.64,165.055,180.64z"/>
		<path style="fill:#1A2A4F;" d="M172.041,186.225h-3.649v-6.261h3.511c0.037,0.11,0.046,0.269,0.046,0.379
			c0,0.121-0.009,0.26-0.046,0.38h-2.584v1.89h2.232c0.036,0.111,0.046,0.269,0.046,0.38c0,0.12-0.01,0.26-0.046,0.38h-2.232v2.093
			h2.723c0.037,0.111,0.047,0.269,0.047,0.38C172.088,185.965,172.078,186.104,172.041,186.225z"/>
		<path style="fill:#1A2A4F;" d="M176.463,180.723h-2.584v1.89h2.14c0.037,0.111,0.046,0.269,0.046,0.38
			c0,0.12-0.009,0.26-0.046,0.38h-2.14v2.853c-0.157,0.027-0.297,0.046-0.463,0.046c-0.158,0-0.315-0.019-0.464-0.046v-6.261h3.511
			c0.037,0.11,0.046,0.269,0.046,0.379C176.509,180.464,176.5,180.603,176.463,180.723z"/>
		<path style="fill:#1A2A4F;" d="M181.163,184.308c-0.333,0.37-0.694,0.759-1.084,1.148h2.621c0.028,0.102,0.047,0.296,0.047,0.407
			c0,0.102-0.01,0.26-0.047,0.361h-3.631c-0.064-0.176-0.11-0.343-0.11-0.528c0-0.073,0.009-0.157,0.019-0.231
			c0.49-0.49,1.046-1.074,1.519-1.603c0.871-0.972,1.334-1.537,1.334-2.278c0-0.667-0.444-1-1.037-1c-0.52,0-1.084,0.157-1.51,0.38
			c-0.028-0.13-0.047-0.26-0.047-0.389c0-0.093,0.019-0.232,0.047-0.315c0.426-0.231,1.019-0.389,1.648-0.389
			c1.037,0,1.853,0.62,1.853,1.639C182.784,182.455,182.219,183.131,181.163,184.308z"/>
		<path style="fill:#1A2A4F;" d="M185.771,186.317c-1.361,0-2.074-1.056-2.074-3.224c0-2.14,0.713-3.223,2.074-3.223
			c1.362,0,2.075,1.056,2.075,3.223C187.846,185.262,187.133,186.317,185.771,186.317z M185.771,180.594
			c-0.889,0-1.102,1.037-1.102,2.491c0,1.463,0.222,2.51,1.102,2.51c0.908,0,1.103-1.047,1.103-2.51
			C186.873,181.621,186.66,180.594,185.771,180.594z"/>
		<path style="fill:#1A2A4F;" d="M191.692,186.225c-0.148,0.027-0.306,0.046-0.463,0.046c-0.158,0-0.315-0.019-0.464-0.046v-5.261
			l-1.564,1.01c-0.177-0.167-0.334-0.436-0.39-0.667l2.158-1.343c0.102-0.028,0.223-0.047,0.343-0.047c0.13,0,0.26,0.019,0.38,0.047
			V186.225z"/>
		<path style="fill:#1A2A4F;" d="M197.697,184.771h-0.88v1.445c-0.139,0.027-0.277,0.046-0.426,0.046
			c-0.157,0-0.324-0.01-0.481-0.046v-1.445h-2.668c-0.027-0.12-0.046-0.241-0.046-0.361c0-0.102,0.009-0.194,0.046-0.343
			l2.001-4.103c0.13-0.028,0.324-0.047,0.454-0.047c0.166,0,0.352,0.019,0.527,0.047l-2.01,4.038h1.695v-1.398
			c0.157-0.028,0.314-0.047,0.473-0.047c0.147,0,0.287,0.019,0.435,0.047v1.398h0.88c0.037,0.13,0.047,0.269,0.047,0.398
			C197.744,184.521,197.734,184.659,197.697,184.771z"/>
		<path style="fill:#1A2A4F;" d="M198.665,187.262c-0.213-0.027-0.353-0.13-0.473-0.296c0.908-1.074,1.251-2.288,1.251-3.511
			c0-1.241-0.343-2.427-1.251-3.501c0.12-0.167,0.278-0.269,0.491-0.296c1.074,1,1.63,2.408,1.63,3.825
			S199.739,186.262,198.665,187.262z"/>
	</g>
	<g>
		<path style="fill:#1A2A4F;" d="M125.24,112.355h-5.477v16.949c-0.581,0.092-1.407,0.153-2.172,0.153
			c-0.765,0-1.591-0.061-2.203-0.153v-16.949h-5.477c-0.123-0.397-0.214-1.346-0.214-1.866c0-0.52,0.122-1.468,0.245-1.866h15.297
			c0.123,0.398,0.214,1.346,0.214,1.866C125.454,111.009,125.362,111.958,125.24,112.355z"/>
		<path style="fill:#1A2A4F;" d="M134.935,129.61c-5.66,0-8.658-3.916-8.658-10.647c0-6.73,2.998-10.646,8.658-10.646
			c5.66,0,8.658,3.916,8.658,10.646C143.593,125.694,140.595,129.61,134.935,129.61z M134.935,112.08
			c-2.631,0-4.13,2.019-4.13,6.883c0,4.865,1.499,6.884,4.13,6.884c2.631,0,4.13-2.019,4.13-6.884
			C139.065,114.099,137.566,112.08,134.935,112.08z"/>
		<path style="fill:#1A2A4F;" d="M153.165,121.9h-2.142v7.404c-0.581,0.092-1.285,0.153-2.203,0.153
			c-0.826,0-1.591-0.061-2.172-0.153v-20.651c1.774-0.092,4.467-0.184,6.211-0.184c4.681,0,8.076,1.622,8.076,6.486
			C160.936,119.698,157.969,121.9,153.165,121.9z M153.043,112.08c-0.612,0-1.407,0.03-2.02,0.061v6.088h1.896
			c2.356,0,3.61-0.612,3.61-3.121C156.53,112.967,155.46,112.08,153.043,112.08z"/>
		<path style="fill:#1A2A4F;" d="M182.438,112.355h-8.138v4.467h6.853c0.122,0.336,0.214,0.949,0.214,1.805
			c0,0.673-0.061,1.224-0.214,1.866h-6.853v8.811c-0.582,0.092-1.255,0.153-2.173,0.153c-0.826,0-1.621-0.061-2.202-0.153v-20.682
			h12.513c0.122,0.337,0.214,0.979,0.214,1.836C182.652,111.131,182.591,111.713,182.438,112.355z"/>
		<path style="fill:#1A2A4F;" d="M190.083,129.304c-0.581,0.092-1.285,0.153-2.202,0.153c-0.826,0-1.592-0.061-2.173-0.153v-20.682
			c0.581-0.092,1.438-0.153,2.203-0.153c0.856,0,1.621,0.061,2.172,0.153V129.304z"/>
		<path style="fill:#1A2A4F;" d="M200.117,120.249c0.459,1.285,0.917,2.723,1.132,3.946h0.061c0.215-1.224,0.643-2.662,1.102-3.946
			l2.265-6.547c0.581-1.683,0.917-3.304,0.948-5.079c0.611-0.092,1.468-0.153,2.172-0.153c0.643,0,1.561,0.061,2.111,0.153
			c0,2.05-0.367,4.008-1.193,6.18l-5.538,14.501c-0.367,0.092-1.224,0.153-1.958,0.153c-0.825,0-1.499-0.061-2.05-0.153
			l-5.445-14.44c-0.826-2.172-1.193-4.191-1.193-6.241c0.551-0.092,1.285-0.153,2.203-0.153c0.703,0,1.591,0.061,2.142,0.153
			c0,1.897,0.336,3.396,0.918,5.079L200.117,120.249z"/>
		<path style="fill:#1A2A4F;" d="M225.139,129.304h-12.94v-20.682h12.665c0.123,0.337,0.215,0.979,0.215,1.836
			c0,0.673-0.062,1.254-0.215,1.896h-8.29v4.467h7.006c0.122,0.336,0.214,0.949,0.214,1.805c0,0.673-0.062,1.224-0.214,1.866h-7.006
			v5.079h8.565c0.123,0.336,0.215,0.979,0.215,1.835C225.354,128.081,225.292,128.662,225.139,129.304z"/>
	</g>
	<g>
		<path style="fill:#B4A168;" d="M133.736,140.75c0,3.506-1.346,5.443-5.26,5.443c-3.955,0-5.198-1.937-5.198-5.443v-8.542
			c0.408-0.061,0.938-0.102,1.427-0.102c0.57,0,1.08,0.041,1.488,0.102v8.746c0,1.875,0.53,2.936,2.304,2.936
			s2.385-1.06,2.385-2.936v-8.746c0.367-0.061,0.979-0.102,1.447-0.102c0.448,0,1.06,0.041,1.407,0.102V140.75z"/>
		<path style="fill:#B4A168;" d="M147.174,145.99c-0.367,0.061-1.019,0.102-1.732,0.102c-0.51,0-1.244-0.041-1.672-0.102
			l-3.567-5.524l-0.938,1.121v4.403c-0.388,0.061-0.856,0.102-1.468,0.102c-0.551,0-1.061-0.041-1.448-0.102v-13.781
			c0.387-0.061,0.958-0.102,1.468-0.102c0.571,0,1.081,0.041,1.448,0.102v5.932l2.364-2.772c1.04-1.223,1.611-2.1,1.835-3.16
			c0.408-0.061,0.979-0.102,1.427-0.102c0.367,0,0.999,0.041,1.427,0.102c-0.306,1.61-1.162,3.017-2.385,4.424l-1.631,1.875
			L147.174,145.99z"/>
		<path style="fill:#B4A168;" d="M163.06,140.75c0,3.506-1.346,5.443-5.26,5.443c-3.955,0-5.198-1.937-5.198-5.443v-8.542
			c0.408-0.061,0.938-0.102,1.427-0.102c0.571,0,1.081,0.041,1.488,0.102v8.746c0,1.875,0.53,2.936,2.304,2.936
			s2.385-1.06,2.385-2.936v-8.746c0.367-0.061,0.979-0.102,1.447-0.102c0.449,0,1.061,0.041,1.407,0.102V140.75z"/>
		<path style="fill:#B4A168;" d="M176.701,145.99c-0.204,0.041-0.693,0.082-1.04,0.082s-0.692-0.021-1.019-0.082l-6.341-8.827v8.827
			c-0.163,0.041-0.774,0.102-1.345,0.102c-0.469,0-1.02-0.062-1.305-0.102v-13.781c0.326-0.061,0.713-0.082,1.08-0.082
			c0.388,0,0.795,0.041,1.101,0.082l6.218,8.664v-8.664c0.408-0.061,0.938-0.102,1.325-0.102s0.958,0.041,1.325,0.102V145.99z"/>
		<path style="fill:#B4A168;" d="M182.332,145.99c-0.388,0.061-0.856,0.102-1.469,0.102c-0.55,0-1.06-0.041-1.447-0.102v-13.781
			c0.388-0.061,0.959-0.102,1.468-0.102c0.571,0,1.081,0.041,1.448,0.102V145.99z"/>
		<path style="fill:#B4A168;" d="M189.021,139.956c0.306,0.856,0.611,1.814,0.754,2.63h0.041c0.143-0.815,0.428-1.774,0.733-2.63
			l1.509-4.363c0.388-1.121,0.611-2.201,0.632-3.384c0.408-0.061,0.979-0.102,1.447-0.102c0.429,0,1.04,0.041,1.407,0.102
			c0,1.366-0.245,2.67-0.796,4.118l-3.689,9.663c-0.244,0.061-0.815,0.102-1.305,0.102c-0.551,0-0.999-0.041-1.365-0.102
			l-3.629-9.622c-0.551-1.447-0.795-2.793-0.795-4.159c0.366-0.061,0.855-0.102,1.468-0.102c0.469,0,1.06,0.041,1.427,0.102
			c0,1.264,0.225,2.263,0.611,3.384L189.021,139.956z"/>
		<path style="fill:#B4A168;" d="M205.699,145.99h-8.623v-13.781h8.439c0.081,0.224,0.143,0.652,0.143,1.223
			c0,0.449-0.041,0.836-0.143,1.264h-5.524v2.976h4.668c0.082,0.224,0.143,0.632,0.143,1.203c0,0.449-0.04,0.815-0.143,1.244h-4.668
			v3.384h5.708c0.081,0.224,0.143,0.652,0.143,1.223C205.842,145.174,205.801,145.562,205.699,145.99z"/>
		<path style="fill:#B4A168;" d="M217.893,145.969c-0.529,0.082-1.08,0.123-1.712,0.123c-0.571,0-1.142-0.021-1.529-0.102
			l-2.793-4.954h-1.202v4.954c-0.51,0.082-0.938,0.102-1.488,0.102c-0.489,0-0.918-0.021-1.427-0.102v-13.781
			c0.938-0.061,2.895-0.102,4.077-0.102c3.465,0,5.198,1.223,5.198,4.403c0,1.692-1.02,3.384-2.446,3.996L217.893,145.969z
			 M212.002,134.492c-0.449,0-0.999,0.021-1.346,0.041v4.077h1.02c1.671,0,2.405-0.612,2.405-2.12
			C214.081,134.981,213.347,134.492,212.002,134.492z"/>
		<path style="fill:#B4A168;" d="M223.3,146.193c-1.488,0-3.119-0.285-4.281-0.815c-0.062-0.285-0.103-0.652-0.103-0.979
			c0-0.489,0.062-0.958,0.204-1.508c1.203,0.489,2.793,0.795,4.036,0.795c1.448,0,2.223-0.672,2.223-1.59
			c0-1.02-0.652-1.448-2.63-2.059c-2.202-0.673-3.812-1.733-3.812-4.098c0-2.528,2.182-3.935,5.056-3.935
			c1.325,0,2.508,0.204,3.303,0.469c0.062,0.224,0.102,0.591,0.102,1.121c0,0.387-0.04,0.979-0.122,1.305
			c-1.019-0.265-2.181-0.408-3.119-0.408c-1.528,0-2.364,0.51-2.364,1.325c0,0.958,0.754,1.345,2.589,1.916
			c2.202,0.693,3.833,1.733,3.833,4.179C228.213,144.583,226.112,146.193,223.3,146.193z"/>
		<path style="fill:#B4A168;" d="M233.129,145.99c-0.388,0.061-0.856,0.102-1.469,0.102c-0.55,0-1.06-0.041-1.447-0.102v-13.781
			c0.388-0.061,0.959-0.102,1.468-0.102c0.571,0,1.081,0.041,1.448,0.102V145.99z"/>
		<path style="fill:#B4A168;" d="M244.994,134.696h-3.648v11.293c-0.388,0.061-0.938,0.102-1.447,0.102s-1.061-0.041-1.468-0.102
			v-11.293h-3.649c-0.081-0.265-0.143-0.897-0.143-1.244c0-0.347,0.082-0.979,0.163-1.244h10.192
			c0.082,0.265,0.144,0.897,0.144,1.244C245.138,133.799,245.076,134.431,244.994,134.696z"/>
		<path style="fill:#B4A168;" d="M249.543,145.99c-0.387,0.061-0.855,0.102-1.467,0.102c-0.551,0-1.061-0.041-1.448-0.102v-13.781
			c0.388-0.061,0.958-0.102,1.468-0.102c0.571,0,1.081,0.041,1.447,0.102V145.99z"/>
		<path style="fill:#B4A168;" d="M260.88,145.99h-8.623v-13.781h8.439c0.081,0.224,0.143,0.652,0.143,1.223
			c0,0.449-0.041,0.836-0.143,1.264h-5.524v2.976h4.668c0.082,0.224,0.143,0.632,0.143,1.203c0,0.449-0.041,0.815-0.143,1.244
			h-4.668v3.384h5.708c0.081,0.224,0.143,0.652,0.143,1.223C261.022,145.174,260.981,145.562,260.88,145.99z"/>
		<path style="fill:#B4A168;" d="M266.693,146.193c-1.488,0-3.119-0.285-4.281-0.815c-0.062-0.285-0.102-0.652-0.102-0.979
			c0-0.489,0.061-0.958,0.203-1.508c1.203,0.489,2.793,0.795,4.037,0.795c1.447,0,2.222-0.672,2.222-1.59
			c0-1.02-0.652-1.448-2.63-2.059c-2.201-0.673-3.812-1.733-3.812-4.098c0-2.528,2.182-3.935,5.056-3.935
			c1.325,0,2.508,0.204,3.303,0.469c0.062,0.224,0.103,0.591,0.103,1.121c0,0.387-0.041,0.979-0.123,1.305
			c-1.02-0.265-2.181-0.408-3.119-0.408c-1.528,0-2.364,0.51-2.364,1.325c0,0.958,0.754,1.345,2.589,1.916
			c2.201,0.693,3.832,1.733,3.832,4.179C271.605,144.583,269.506,146.193,266.693,146.193z"/>
	</g>
</g>
</svg>
