<?xml version="1.0" encoding="utf-8"?>
<!-- Generator: Adobe Illustrator 16.0.0, SVG Export Plug-In . SVG Version: 6.00 Build 0)  -->
<!DOCTYPE svg PUBLIC "-//W3C//DTD SVG 1.0//EN" "http://www.w3.org/TR/2001/REC-SVG-20010904/DTD/svg10.dtd">
<svg version="1.0" xmlns="http://www.w3.org/2000/svg" xmlns:xlink="http://www.w3.org/1999/xlink" x="0px" y="0px" width="300px"
	 height="300px" viewBox="0 0 300 300" style="enable-background:new 0 0 300 300;" xml:space="preserve">
<g id="Text" style="display:none;">
	<text transform="matrix(1 0 0 1 27.1865 185.7764)" style="display:inline;"><tspan x="0" y="0" style="fill:#C0588E; font-family:'FSMatthew-Bold'; font-size:33.879;">M</tspan><tspan x="27.679" y="0" style="fill:#C0588E; font-family:'FSMatthew-Bold'; font-size:33.879;">O</tspan><tspan x="49.531" y="0" style="fill:#C0588E; font-family:'FSMatthew-Bold'; font-size:33.879; letter-spacing:-1;">S</tspan><tspan x="66.605" y="0" style="fill:#C0588E; font-family:'FSMatthew-Bold'; font-size:33.879; letter-spacing:-1;">T</tspan><tspan x="83.138" y="0" style="fill:#C0588E; font-family:'FSMatthew-Bold'; font-size:33.879;"> </tspan><tspan x="90.456" y="0" style="fill:#C0588E; font-family:'FSMatthew-Bold'; font-size:33.879;">IM</tspan><tspan x="127.858" y="0" style="fill:#C0588E; font-family:'FSMatthew-Bold'; font-size:33.879;">P</tspan><tspan x="146.999" y="0" style="fill:#C0588E; font-family:'FSMatthew-Bold'; font-size:33.879;">R</tspan><tspan x="166.547" y="0" style="fill:#C0588E; font-family:'FSMatthew-Bold'; font-size:33.879;">O</tspan><tspan x="187.856" y="0" style="fill:#C0588E; font-family:'FSMatthew-Bold'; font-size:33.879;">VE</tspan><tspan x="226.174" y="0" style="fill:#C0588E; font-family:'FSMatthew-Bold'; font-size:33.879;">D </tspan></text>
	<text transform="matrix(1 0 0 1 82.7139 214.5752)" style="display:inline;"><tspan x="0" y="0" style="fill:#1A2A4F; font-family:'FSMatthew-Bold'; font-size:33.879; letter-spacing:-1;">S</tspan><tspan x="17.075" y="0" style="fill:#1A2A4F; font-family:'FSMatthew-Bold'; font-size:33.879;">T</tspan><tspan x="35.302" y="0" style="fill:#1A2A4F; font-family:'FSMatthew-Bold'; font-size:33.879;">U</tspan><tspan x="57.221" y="0" style="fill:#1A2A4F; font-family:'FSMatthew-Bold'; font-size:33.879;">DEN</tspan><tspan x="120.506" y="0" style="fill:#1A2A4F; font-family:'FSMatthew-Bold'; font-size:33.879; letter-spacing:-1;">T</tspan><tspan x="137.344" y="0" style="fill:#1A2A4F; font-family:'FSMatthew-Bold'; font-size:33.879;"> </tspan></text>
	<text transform="matrix(1 0 0 1 59.2695 243.3711)" style="display:inline;"><tspan x="0" y="0" style="fill:#1A2A4F; font-family:'FSMatthew-Bold'; font-size:33.879;">E</tspan><tspan x="18.667" y="0" style="fill:#1A2A4F; font-family:'FSMatthew-Bold'; font-size:33.879;">XPE</tspan><tspan x="75.651" y="0" style="fill:#1A2A4F; font-family:'FSMatthew-Bold'; font-size:33.879;">RI</tspan><tspan x="105.329" y="0" style="fill:#1A2A4F; font-family:'FSMatthew-Bold'; font-size:33.879;">ENC</tspan><tspan x="165.938" y="0" style="fill:#1A2A4F; font-family:'FSMatthew-Bold'; font-size:33.879;">E</tspan></text>
	<text transform="matrix(1 0 0 1 74.3838 261.4863)" style="display:inline;"><tspan x="0" y="0" style="fill:#BBA461; font-family:'FSMatthew-Bold'; font-size:14.3986;">Times Higher Edu</tspan><tspan x="112.998" y="0" style="fill:#BBA461; font-family:'FSMatthew-Bold'; font-size:14.3986;">c</tspan><tspan x="119.707" y="0" style="fill:#BBA461; font-family:'FSMatthew-Bold'; font-size:14.3986;">a</tspan><tspan x="127.41" y="0" style="fill:#BBA461; font-family:'FSMatthew-Bold'; font-size:14.3986;">tion</tspan></text>
	<text transform="matrix(1 0 0 1 110.1631 278.7783)" style="display:inline;"><tspan x="0" y="0" style="fill:#BBA461; font-family:'FSMatthew-Bold'; font-size:14.3986;">A</tspan><tspan x="9.085" y="0" style="fill:#BBA461; font-family:'FSMatthew-Bold'; font-size:14.3986;">w</tspan><tspan x="19.87" y="0" style="fill:#BBA461; font-family:'FSMatthew-Bold'; font-size:14.3986;">a</tspan><tspan x="27.616" y="0" style="fill:#BBA461; font-family:'FSMatthew-Bold'; font-size:14.3986;">r</tspan><tspan x="32.972" y="0" style="fill:#BBA461; font-family:'FSMatthew-Bold'; font-size:14.3986;">ds 2016</tspan></text>
</g>
<g id="Text_flat">
	<g>
		<path style="fill:#C0588E;" d="M52.897,185.776c-0.407,0.102-1.321,0.169-2.27,0.169c-1.017,0-1.965-0.102-2.372-0.169
			l-0.406-13.753l-5.014,11.585c-0.373,0.136-1.186,0.203-1.694,0.203c-0.609,0-1.354-0.067-1.728-0.169l-5.013-11.619l-0.44,13.753
			c-0.44,0.102-1.491,0.169-2.405,0.169c-0.542,0-1.457-0.067-2.066-0.169l0.982-22.899c0.644-0.067,1.288-0.169,1.965-0.169
			c0.813,0,1.592,0.067,1.999,0.169l6.707,15.549l6.741-15.549c0.678-0.102,1.355-0.169,1.965-0.169c0.779,0,1.49,0.067,1.999,0.169
			L52.897,185.776z"/>
		<path style="fill:#C0588E;" d="M65.943,186.115c-6.267,0-9.586-4.336-9.586-11.788c0-7.453,3.319-11.789,9.586-11.789
			c6.267,0,9.586,4.336,9.586,11.789C75.529,181.779,72.209,186.115,65.943,186.115z M65.943,166.705
			c-2.914,0-4.573,2.235-4.573,7.622c0,5.386,1.66,7.621,4.573,7.621c2.913,0,4.573-2.235,4.573-7.621
			C70.516,168.94,68.856,166.705,65.943,166.705z"/>
		<path style="fill:#C0588E;" d="M85.491,186.115c-2.473,0-5.183-0.475-7.114-1.355c-0.102-0.474-0.169-1.084-0.169-1.626
			c0-0.812,0.102-1.592,0.338-2.507c1.999,0.813,4.641,1.321,6.708,1.321c2.405,0,3.692-1.117,3.692-2.642
			c0-1.694-1.084-2.405-4.37-3.422c-3.658-1.117-6.334-2.879-6.334-6.809c0-4.2,3.625-6.538,8.401-6.538
			c2.202,0,4.167,0.339,5.488,0.779c0.102,0.373,0.169,0.982,0.169,1.863c0,0.644-0.068,1.626-0.204,2.168
			c-1.694-0.44-3.625-0.678-5.183-0.678c-2.541,0-3.93,0.847-3.93,2.202c0,1.592,1.253,2.235,4.302,3.185
			c3.658,1.151,6.368,2.879,6.368,6.944C93.654,183.439,90.166,186.115,85.491,186.115z"/>
		<path style="fill:#C0588E;" d="M111.542,167.01h-6.063v18.767c-0.644,0.102-1.558,0.169-2.405,0.169
			c-0.847,0-1.762-0.067-2.439-0.169V167.01h-6.063c-0.136-0.44-0.237-1.49-0.237-2.066s0.136-1.626,0.271-2.066h16.937
			c0.136,0.44,0.237,1.49,0.237,2.066S111.678,166.569,111.542,167.01z"/>
		<path style="fill:#C0588E;" d="M125.095,185.776c-0.644,0.102-1.423,0.169-2.439,0.169c-0.915,0-1.761-0.067-2.405-0.169v-22.899
			c0.644-0.102,1.592-0.169,2.439-0.169c0.948,0,1.795,0.067,2.405,0.169V185.776z"/>
		<path style="fill:#C0588E;" d="M153.076,185.776c-0.406,0.102-1.321,0.169-2.27,0.169c-1.017,0-1.965-0.102-2.372-0.169
			l-0.406-13.753l-5.014,11.585c-0.373,0.136-1.186,0.203-1.694,0.203c-0.609,0-1.354-0.067-1.728-0.169l-5.013-11.619l-0.44,13.753
			c-0.44,0.102-1.491,0.169-2.405,0.169c-0.542,0-1.457-0.067-2.066-0.169l0.982-22.899c0.644-0.067,1.288-0.169,1.965-0.169
			c0.813,0,1.592,0.067,1.999,0.169l6.707,15.549l6.741-15.549c0.678-0.102,1.355-0.169,1.965-0.169c0.779,0,1.49,0.067,1.998,0.169
			L153.076,185.776z"/>
		<path style="fill:#C0588E;" d="M164.801,177.579h-2.371v8.197c-0.645,0.102-1.424,0.169-2.439,0.169
			c-0.914,0-1.762-0.067-2.405-0.169v-22.865c1.965-0.102,4.946-0.203,6.877-0.203c5.183,0,8.942,1.795,8.942,7.182
			C173.404,175.14,170.118,177.579,164.801,177.579z M164.665,166.705c-0.678,0-1.559,0.034-2.235,0.067v6.741h2.1
			c2.608,0,3.997-0.678,3.997-3.455C168.526,167.688,167.341,166.705,164.665,166.705z"/>
		<path style="fill:#C0588E;" d="M193.596,185.742c-0.881,0.136-1.795,0.203-2.846,0.203c-0.948,0-1.896-0.033-2.54-0.169
			l-4.642-8.231h-1.998v8.231c-0.847,0.136-1.559,0.169-2.473,0.169c-0.813,0-1.524-0.033-2.371-0.169v-22.899
			c1.558-0.102,4.81-0.169,6.774-0.169c5.759,0,8.638,2.032,8.638,7.316c0,2.812-1.693,5.623-4.064,6.64L193.596,185.742z
			 M183.806,166.671c-0.745,0-1.659,0.034-2.235,0.068v6.774h1.693c2.778,0,3.997-1.016,3.997-3.522
			S186.042,166.671,183.806,166.671z"/>
		<path style="fill:#C0588E;" d="M204.811,186.115c-6.267,0-9.587-4.336-9.587-11.788c0-7.453,3.32-11.789,9.587-11.789
			s9.586,4.336,9.586,11.789C214.396,181.779,211.077,186.115,204.811,186.115z M204.811,166.705c-2.913,0-4.573,2.235-4.573,7.622
			c0,5.386,1.66,7.621,4.573,7.621s4.573-2.235,4.573-7.621C209.384,168.94,207.724,166.705,204.811,166.705z"/>
		<path style="fill:#C0588E;" d="M224.088,175.75c0.508,1.422,1.016,3.015,1.253,4.369h0.067c0.237-1.354,0.712-2.947,1.22-4.369
			l2.507-7.25c0.644-1.862,1.017-3.658,1.05-5.623c0.678-0.102,1.626-0.169,2.405-0.169c0.712,0,1.728,0.067,2.338,0.169
			c0,2.27-0.407,4.438-1.321,6.843l-6.132,16.057c-0.406,0.102-1.354,0.169-2.168,0.169c-0.914,0-1.659-0.067-2.27-0.169
			l-6.029-15.989c-0.915-2.404-1.321-4.641-1.321-6.91c0.609-0.102,1.423-0.169,2.439-0.169c0.778,0,1.761,0.067,2.371,0.169
			c0,2.101,0.372,3.761,1.016,5.623L224.088,175.75z"/>
		<path style="fill:#C0588E;" d="M252.138,185.776H237.81v-22.899h14.023c0.136,0.373,0.237,1.084,0.237,2.033
			c0,0.745-0.067,1.389-0.237,2.1h-9.18v4.945h7.757c0.136,0.373,0.237,1.051,0.237,1.999c0,0.745-0.067,1.355-0.237,2.066h-7.757
			v5.623h9.484c0.136,0.373,0.237,1.084,0.237,2.032C252.375,184.422,252.308,185.065,252.138,185.776z"/>
		<path style="fill:#C0588E;" d="M270.637,183.744c-2.101,1.626-4.811,2.201-8.537,2.201c-1.896,0-5.114-0.067-6.198-0.169v-22.899
			c1.659-0.102,5.114-0.169,7.046-0.169c7.452,0,11.279,3.15,11.279,11.348C274.227,178.29,273.109,181.813,270.637,183.744z
			 M263.049,166.705c-0.915,0-1.932,0.034-2.304,0.067v15.074c0.44,0.034,1.456,0.068,2.507,0.068c4.268,0,5.962-2.71,5.962-7.927
			C269.214,168.264,267.452,166.705,263.049,166.705z"/>
	</g>
	<g>
		<path style="fill:#1A2A4F;" d="M91.487,214.914c-2.473,0-5.183-0.475-7.114-1.355c-0.102-0.474-0.169-1.084-0.169-1.626
			c0-0.812,0.102-1.592,0.339-2.507c1.999,0.813,4.641,1.321,6.707,1.321c2.405,0,3.692-1.117,3.692-2.642
			c0-1.694-1.084-2.405-4.37-3.422c-3.659-1.117-6.334-2.879-6.334-6.809c0-4.2,3.625-6.538,8.401-6.538
			c2.202,0,4.167,0.339,5.488,0.779c0.102,0.373,0.169,0.982,0.169,1.863c0,0.644-0.067,1.626-0.203,2.168
			c-1.693-0.44-3.625-0.678-5.183-0.678c-2.541,0-3.93,0.847-3.93,2.202c0,1.592,1.253,2.235,4.302,3.185
			c3.659,1.151,6.369,2.879,6.369,6.944C99.651,212.238,96.162,214.914,91.487,214.914z"/>
		<path style="fill:#1A2A4F;" d="M117.539,195.809h-6.064v18.767c-0.644,0.102-1.558,0.169-2.405,0.169
			c-0.847,0-1.762-0.067-2.439-0.169v-18.767h-6.063c-0.136-0.44-0.237-1.49-0.237-2.066s0.135-1.626,0.271-2.066h16.938
			c0.135,0.44,0.237,1.49,0.237,2.066S117.674,195.368,117.539,195.809z"/>
		<path style="fill:#1A2A4F;" d="M137.832,205.869c0,5.827-2.235,9.045-8.739,9.045c-6.572,0-8.638-3.218-8.638-9.045v-14.193
			c0.677-0.102,1.558-0.169,2.371-0.169c0.949,0,1.795,0.067,2.473,0.169v14.532c0,3.116,0.88,4.878,3.828,4.878
			s3.963-1.762,3.963-4.878v-14.532c0.61-0.102,1.626-0.169,2.405-0.169c0.745,0,1.761,0.067,2.337,0.169V205.869z"/>
		<path style="fill:#1A2A4F;" d="M157.211,212.543c-2.1,1.626-4.811,2.201-8.536,2.201c-1.897,0-5.115-0.067-6.199-0.169v-22.899
			c1.66-0.102,5.115-0.169,7.046-0.169c7.453,0,11.28,3.15,11.28,11.348C160.802,207.089,159.684,210.612,157.211,212.543z
			 M149.623,195.504c-0.915,0-1.931,0.034-2.303,0.067v15.074c0.44,0.034,1.457,0.068,2.506,0.068c4.269,0,5.962-2.71,5.962-7.927
			C155.788,197.062,154.027,195.504,149.623,195.504z"/>
		<path style="fill:#1A2A4F;" d="M178.859,214.575H164.53v-22.899h14.024c0.135,0.373,0.236,1.084,0.236,2.033
			c0,0.745-0.067,1.389-0.236,2.1h-9.181v4.945h7.758c0.136,0.373,0.237,1.051,0.237,1.999c0,0.745-0.068,1.355-0.237,2.066h-7.758
			v5.623h9.485c0.136,0.373,0.237,1.084,0.237,2.032C179.097,213.221,179.028,213.864,178.859,214.575z"/>
		<path style="fill:#1A2A4F;" d="M200.981,214.575c-0.339,0.067-1.151,0.136-1.728,0.136s-1.151-0.034-1.693-0.136l-10.535-14.668
			v14.668c-0.271,0.067-1.287,0.169-2.235,0.169c-0.779,0-1.694-0.102-2.168-0.169v-22.899c0.542-0.102,1.186-0.135,1.795-0.135
			c0.644,0,1.321,0.067,1.829,0.135l10.332,14.396v-14.396c0.678-0.102,1.558-0.169,2.201-0.169c0.645,0,1.593,0.067,2.202,0.169
			V214.575z"/>
		<path style="fill:#1A2A4F;" d="M220.97,195.809h-6.063v18.767c-0.644,0.102-1.558,0.169-2.405,0.169
			c-0.847,0-1.761-0.067-2.438-0.169v-18.767h-6.063c-0.136-0.44-0.237-1.49-0.237-2.066s0.136-1.626,0.271-2.066h16.937
			c0.136,0.44,0.237,1.49,0.237,2.066S221.105,195.368,220.97,195.809z"/>
	</g>
	<g>
		<path style="fill:#1A2A4F;" d="M76.139,243.371H61.81v-22.899h14.024c0.136,0.373,0.237,1.084,0.237,2.032
			c0,0.746-0.068,1.39-0.237,2.101h-9.18v4.946h7.757c0.135,0.372,0.237,1.05,0.237,1.998c0,0.745-0.067,1.355-0.237,2.066h-7.757
			v5.623h9.485c0.135,0.373,0.237,1.084,0.237,2.032C76.376,242.016,76.309,242.66,76.139,243.371z"/>
		<path style="fill:#1A2A4F;" d="M80.816,237.172l4.336-5.894l-3.963-5.522c-1.287-1.761-2.1-3.387-2.371-5.284
			c0.542-0.102,1.66-0.169,2.371-0.169c0.847,0,1.829,0.067,2.405,0.169c0.169,1.491,1.016,2.71,1.897,3.997l2.371,3.455
			l2.439-3.421c0.813-1.151,1.592-2.608,1.728-4.031c0.576-0.067,1.592-0.169,2.405-0.169c0.745,0,1.761,0.067,2.303,0.169
			c-0.271,2.168-1.152,3.828-2.541,5.759l-3.591,4.945l4.336,6.098c1.524,2.101,2.236,4.167,2.372,6.098
			c-0.576,0.102-1.559,0.169-2.405,0.169c-0.745,0-1.728-0.067-2.371-0.169c-0.102-1.49-0.61-2.913-1.457-4.2l-3.218-4.845
			l-3.15,4.743c-0.813,1.253-1.287,2.812-1.287,4.302c-0.542,0.102-1.694,0.169-2.439,0.169c-0.813,0-1.795-0.102-2.372-0.169
			C78.682,241.305,79.055,239.577,80.816,237.172z"/>
		<path style="fill:#1A2A4F;" d="M107.444,235.174h-2.371v8.197c-0.644,0.102-1.423,0.169-2.439,0.169
			c-0.915,0-1.762-0.067-2.405-0.169v-22.865c1.965-0.102,4.946-0.203,6.876-0.203c5.183,0,8.943,1.795,8.943,7.182
			C116.048,232.734,112.762,235.174,107.444,235.174z M107.309,224.3c-0.678,0-1.559,0.034-2.236,0.067v6.741h2.1
			c2.608,0,3.997-0.678,3.997-3.455C111.17,225.282,109.984,224.3,107.309,224.3z"/>
		<path style="fill:#1A2A4F;" d="M133.699,243.371H119.37v-22.899h14.024c0.136,0.373,0.237,1.084,0.237,2.032
			c0,0.746-0.068,1.39-0.237,2.101h-9.18v4.946h7.757c0.135,0.372,0.237,1.05,0.237,1.998c0,0.745-0.067,1.355-0.237,2.066h-7.757
			v5.623h9.485c0.135,0.373,0.237,1.084,0.237,2.032C133.936,242.016,133.868,242.66,133.699,243.371z"/>
		<path style="fill:#1A2A4F;" d="M154.331,243.337c-0.881,0.136-1.796,0.203-2.846,0.203c-0.948,0-1.897-0.033-2.541-0.169
			l-4.641-8.231h-1.999v8.231c-0.847,0.136-1.559,0.169-2.473,0.169c-0.813,0-1.524-0.033-2.371-0.169v-22.899
			c1.558-0.102,4.81-0.169,6.775-0.169c5.759,0,8.639,2.032,8.639,7.316c0,2.812-1.694,5.623-4.065,6.64L154.331,243.337z
			 M144.541,224.266c-0.745,0-1.66,0.034-2.235,0.068v6.774h1.693c2.778,0,3.998-1.017,3.998-3.522
			C147.997,225.079,146.777,224.266,144.541,224.266z"/>
		<path style="fill:#1A2A4F;" d="M162.328,243.371c-0.645,0.102-1.423,0.169-2.439,0.169c-0.914,0-1.762-0.067-2.404-0.169v-22.899
			c0.643-0.102,1.592-0.169,2.438-0.169c0.948,0,1.796,0.067,2.405,0.169V243.371z"/>
		<path style="fill:#1A2A4F;" d="M181.468,243.371H167.14v-22.899h14.023c0.136,0.373,0.237,1.084,0.237,2.032
			c0,0.746-0.067,1.39-0.237,2.101h-9.18v4.946h7.757c0.136,0.372,0.237,1.05,0.237,1.998c0,0.745-0.067,1.355-0.237,2.066h-7.757
			v5.623h9.484c0.136,0.373,0.237,1.084,0.237,2.032C181.705,242.016,181.638,242.66,181.468,243.371z"/>
		<path style="fill:#1A2A4F;" d="M203.59,243.371c-0.339,0.067-1.151,0.136-1.728,0.136s-1.151-0.034-1.693-0.136l-10.535-14.668
			v14.668c-0.271,0.067-1.287,0.169-2.235,0.169c-0.779,0-1.694-0.102-2.168-0.169v-22.899c0.542-0.102,1.186-0.136,1.795-0.136
			c0.644,0,1.321,0.068,1.829,0.136l10.332,14.396v-14.396c0.678-0.102,1.558-0.169,2.202-0.169c0.644,0,1.592,0.067,2.201,0.169
			V243.371z"/>
		<path style="fill:#1A2A4F;" d="M223.986,225.248c-1.627-0.508-3.659-0.881-5.285-0.881c-3.861,0-6.368,2.744-6.368,7.656
			c0,4.505,1.965,7.452,6.335,7.452c1.626,0,3.455-0.339,5.081-0.847c0.237,0.609,0.406,1.558,0.406,2.27
			c0,0.576-0.034,1.287-0.102,1.592c-1.694,0.779-3.862,1.22-5.86,1.22c-7.283,0-10.874-4.403-10.874-11.585
			c0-6.979,3.862-11.992,11.077-11.992c1.762,0,4.065,0.44,5.691,1.152c0.102,0.339,0.135,1.084,0.135,1.524
			C224.223,223.859,224.088,224.842,223.986,225.248z"/>
		<path style="fill:#1A2A4F;" d="M242.076,243.371h-14.328v-22.899h14.023c0.136,0.373,0.237,1.084,0.237,2.032
			c0,0.746-0.067,1.39-0.237,2.101h-9.18v4.946h7.757c0.136,0.372,0.237,1.05,0.237,1.998c0,0.745-0.067,1.355-0.237,2.066h-7.757
			v5.623h9.484c0.136,0.373,0.237,1.084,0.237,2.032C242.313,242.016,242.246,242.66,242.076,243.371z"/>
	</g>
	<g>
		<path style="fill:#BBA461;" d="M81.932,253.506h-2.578v7.98c-0.274,0.043-0.663,0.072-1.023,0.072s-0.749-0.029-1.037-0.072v-7.98
			h-2.579c-0.058-0.187-0.101-0.633-0.101-0.878s0.058-0.691,0.115-0.879h7.202c0.058,0.188,0.101,0.634,0.101,0.879
			S81.989,253.319,81.932,253.506z"/>
		<path style="fill:#BBA461;" d="M84.248,253.16c-0.605,0-1.095-0.489-1.095-1.094c0-0.605,0.49-1.096,1.095-1.096
			s1.095,0.49,1.095,1.096C85.342,252.671,84.853,253.16,84.248,253.16z M85.241,261.486c-0.259,0.058-0.792,0.072-1.022,0.072
			c-0.346,0-0.72-0.029-0.965-0.072v-7.505c0.316-0.043,0.706-0.071,0.965-0.071c0.346,0,0.706,0.028,1.022,0.071V261.486z"/>
		<path style="fill:#BBA461;" d="M98.391,261.486c-0.23,0.058-0.72,0.072-0.951,0.072c-0.245,0-0.807-0.029-1.037-0.072v-4.523
			c0-0.547-0.014-0.95-0.216-1.195c-0.187-0.23-0.475-0.316-0.835-0.316c-0.49,0-1.182,0.216-1.628,0.489
			c0.015,0.245,0.029,0.49,0.029,0.778v4.768c-0.23,0.058-0.72,0.072-0.951,0.072c-0.245,0-0.807-0.029-1.037-0.072v-4.523
			c0-0.547-0.015-0.95-0.216-1.195c-0.188-0.23-0.476-0.316-0.836-0.316c-0.504,0-1.152,0.201-1.599,0.475v5.561
			c-0.331,0.058-0.792,0.072-1.052,0.072c-0.23,0-0.648-0.015-0.936-0.072v-7.505c0.187-0.043,0.648-0.071,0.864-0.071
			c0.202,0,0.62,0.028,0.835,0.071l0.086,0.677c0.634-0.475,1.542-0.82,2.348-0.82c0.835,0,1.57,0.288,2.132,0.907
			c0.777-0.533,1.714-0.907,2.665-0.907c0.706,0,1.426,0.288,1.786,0.72c0.447,0.533,0.547,1.225,0.547,2.276V261.486z"/>
		<path style="fill:#BBA461;" d="M106.365,258.433h-4.552c0.029,0.937,0.677,1.628,1.93,1.628c0.677,0,1.369-0.087,1.959-0.245
			c0.086,0.389,0.144,0.821,0.144,1.21c0,0.058,0,0.13-0.015,0.288c-0.734,0.216-1.498,0.317-2.247,0.317
			c-2.736,0-3.875-1.57-3.875-3.861c0-2.002,1.124-3.932,3.558-3.932c2.305,0,3.14,1.699,3.14,3.572
			C106.408,257.669,106.408,258.059,106.365,258.433z M104.421,257.007c0-0.907-0.245-1.671-1.182-1.671
			c-0.893,0-1.368,0.705-1.426,1.671H104.421z"/>
		<path style="fill:#BBA461;" d="M109.978,261.631c-0.85,0-1.743-0.13-2.435-0.36c-0.043-0.216-0.058-0.49-0.058-0.778
			c0-0.23,0.058-0.562,0.115-0.764c0.663,0.23,1.613,0.39,2.175,0.39c0.778,0,1.224-0.26,1.224-0.792c0-0.461-0.36-0.678-1.311-0.98
			c-1.513-0.475-2.218-1.181-2.218-2.275c0-1.628,1.498-2.232,2.924-2.232c0.662,0,1.397,0.115,1.901,0.273
			c0.058,0.216,0.086,0.519,0.086,0.691c0,0.188-0.058,0.576-0.129,0.821c-0.49-0.145-1.167-0.26-1.729-0.26
			c-0.691,0-1.167,0.173-1.167,0.605c0,0.461,0.533,0.647,1.368,0.922c1.455,0.476,2.146,1.08,2.146,2.218
			C112.873,260.867,111.461,261.631,109.978,261.631z"/>
		<path style="fill:#BBA461;" d="M125.185,261.486c-0.259,0.043-0.619,0.072-1.022,0.072s-0.764-0.029-1.037-0.072v-4.033h-3.385
			v4.033c-0.274,0.043-0.59,0.072-1.023,0.072c-0.389,0-0.763-0.029-1.037-0.072v-9.737c0.274-0.043,0.677-0.072,1.037-0.072
			c0.403,0,0.764,0.029,1.023,0.072v3.946h3.385v-3.946c0.316-0.043,0.677-0.072,1.037-0.072c0.346,0,0.777,0.029,1.022,0.072
			V261.486z"/>
		<path style="fill:#BBA461;" d="M128.249,253.16c-0.605,0-1.095-0.489-1.095-1.094c0-0.605,0.49-1.096,1.095-1.096
			s1.095,0.49,1.095,1.096C129.343,252.671,128.854,253.16,128.249,253.16z M129.242,261.486c-0.259,0.058-0.792,0.072-1.022,0.072
			c-0.346,0-0.72-0.029-0.965-0.072v-7.505c0.316-0.043,0.706-0.071,0.965-0.071c0.346,0,0.706,0.028,1.022,0.071V261.486z"/>
		<path style="fill:#BBA461;" d="M137.494,260.161c0,0.965-0.058,2.348-0.619,3.299c-0.677,1.138-1.714,1.569-3.097,1.569
			c-0.792,0-1.556-0.101-2.218-0.302c-0.043-0.145-0.058-0.331-0.058-0.519c0-0.317,0.043-0.648,0.115-0.937
			c0.619,0.158,1.354,0.259,1.93,0.259c0.821,0,1.383-0.316,1.7-0.893c0.288-0.519,0.331-0.994,0.331-1.57
			c-0.36,0.273-1.022,0.49-1.699,0.49c-2.104,0-3.184-1.556-3.184-3.615c0-2.68,1.397-4.105,4.033-4.105
			c0.677,0,1.901,0.129,2.766,0.489V260.161z M135.506,255.494c-0.216-0.043-0.663-0.072-0.85-0.072c-1.325,0-1.916,0.85-1.916,2.42
			c0,1.254,0.461,2.117,1.455,2.117c0.562,0,1.023-0.158,1.311-0.402V255.494z"/>
		<path style="fill:#BBA461;" d="M145.889,256.459v5.027c-0.23,0.058-0.72,0.072-0.95,0.072c-0.245,0-0.807-0.029-1.037-0.072
			v-4.912c0-0.777-0.403-1.123-1.052-1.123c-0.519,0-1.152,0.188-1.613,0.475v5.561c-0.331,0.058-0.792,0.072-1.052,0.072
			c-0.23,0-0.648-0.015-0.936-0.072v-10.501c0.187-0.043,0.605-0.071,0.965-0.071c0.36,0,0.807,0.028,1.022,0.071v3.529
			c0.634-0.403,1.513-0.677,2.276-0.677C145.097,253.838,145.889,254.817,145.889,256.459z"/>
		<path style="fill:#BBA461;" d="M153.865,258.433h-4.552c0.029,0.937,0.677,1.628,1.931,1.628c0.677,0,1.368-0.087,1.959-0.245
			c0.086,0.389,0.144,0.821,0.144,1.21c0,0.058,0,0.13-0.015,0.288c-0.734,0.216-1.498,0.317-2.247,0.317
			c-2.736,0-3.875-1.57-3.875-3.861c0-2.002,1.124-3.932,3.558-3.932c2.305,0,3.14,1.699,3.14,3.572
			C153.908,257.669,153.908,258.059,153.865,258.433z M151.921,257.007c0-0.907-0.245-1.671-1.182-1.671
			c-0.893,0-1.368,0.705-1.426,1.671H151.921z"/>
		<path style="fill:#BBA461;" d="M159.523,255.509c-0.75,0.115-1.557,0.374-2.276,0.749v5.229c-0.202,0.043-0.634,0.072-0.979,0.072
			s-0.85-0.029-1.008-0.072v-7.505c0.216-0.028,0.576-0.071,0.863-0.071c0.245,0,0.635,0.028,0.836,0.071l0.115,0.922
			c0.533-0.476,1.498-0.993,2.435-1.065c0.028,0.115,0.058,0.533,0.058,0.835C159.566,254.961,159.552,255.307,159.523,255.509z"/>
		<path style="fill:#BBA461;" d="M170.438,261.486h-6.093v-9.737h5.964c0.058,0.158,0.101,0.461,0.101,0.864
			c0,0.316-0.028,0.591-0.101,0.893h-3.904v2.104h3.299c0.058,0.158,0.102,0.446,0.102,0.85c0,0.317-0.029,0.576-0.102,0.879h-3.299
			v2.391h4.033c0.059,0.159,0.102,0.461,0.102,0.865C170.539,260.91,170.51,261.184,170.438,261.486z"/>
		<path style="fill:#BBA461;" d="M178.343,261.486c-0.23,0.043-0.619,0.072-0.922,0.072c-0.273,0-0.591-0.029-0.792-0.072
			l-0.058-0.662c-0.519,0.504-1.182,0.807-1.959,0.807c-2.146,0-3.068-1.715-3.068-3.774c0-2.218,0.994-4.019,3.284-4.019
			c0.562,0,1.21,0.173,1.527,0.374v-3.227c0.259-0.043,0.691-0.071,1.008-0.071c0.389,0,0.691,0.043,0.979,0.071V261.486z
			 M176.355,255.695c-0.346-0.158-0.793-0.244-1.167-0.244c-1.167,0-1.599,1.037-1.599,2.29c0,1.052,0.259,2.247,1.426,2.247
			c0.562,0,0.994-0.23,1.34-0.519V255.695z"/>
		<path style="fill:#BBA461;" d="M186.521,258.591c0,2.146-1.009,3.04-3.255,3.04c-2.189,0-3.198-0.894-3.198-3.04v-4.609
			c0.202-0.028,0.591-0.071,0.979-0.071c0.346,0,0.777,0.028,1.008,0.071v4.595c0,1.124,0.332,1.527,1.239,1.527
			c0.922,0,1.239-0.403,1.239-1.527v-4.595c0.201-0.043,0.647-0.071,1.008-0.071s0.836,0.043,0.979,0.071V258.591z"/>
		<path style="fill:#BBA461;" d="M193.604,254.788c0,0.317-0.043,0.663-0.144,0.966c-0.476-0.188-1.096-0.303-1.686-0.303
			c-1.124,0-1.887,0.72-1.887,2.333c0,1.412,0.647,2.233,1.9,2.233c0.648,0,1.268-0.115,1.729-0.274
			c0.087,0.317,0.13,0.706,0.13,1.009c0,0.201,0,0.346-0.015,0.475c-0.576,0.26-1.339,0.404-2.06,0.404
			c-2.491,0-3.73-1.455-3.73-3.817c0-2.449,1.296-3.976,3.817-3.976c0.705,0,1.396,0.144,1.887,0.374
			C193.59,254.371,193.604,254.572,193.604,254.788z"/>
		<path style="fill:#BBA461;" d="M200.962,259.397c0,0.62,0.015,1.325,0.015,2.089c-0.23,0.058-0.62,0.072-0.865,0.072
			c-0.273,0-0.633-0.029-0.863-0.072c-0.029-0.173-0.059-0.476-0.072-0.662h-0.029c-0.489,0.504-1.325,0.807-2.088,0.807
			c-1.441,0-2.479-0.894-2.479-2.377c0-2.305,2.046-2.693,3.76-2.693c0.115,0,0.389,0.014,0.619,0.028
			c0-0.087-0.014-0.273-0.028-0.346c-0.101-0.591-0.489-0.835-1.325-0.835c-0.648,0-1.556,0.129-2.247,0.302
			c-0.072-0.201-0.115-0.547-0.115-0.807c0-0.216,0.028-0.547,0.087-0.691c0.807-0.245,1.8-0.374,2.621-0.374
			c1.801,0,3.011,0.835,3.011,2.708V259.397z M198.974,257.972c-0.173-0.015-0.403-0.028-0.604-0.028
			c-1.297,0-1.801,0.518-1.801,1.166c0,0.562,0.375,0.951,1.022,0.951c0.476,0,1.009-0.23,1.383-0.562V257.972z"/>
		<path style="fill:#BBA461;" d="M207.44,261.342c-0.433,0.174-0.95,0.289-1.786,0.289c-1.628,0-2.435-0.793-2.435-2.377v-3.789
			h-1.238c-0.058-0.216-0.101-0.576-0.101-0.763c0-0.173,0.043-0.49,0.086-0.634l1.253-0.087v-1.93
			c0.159-0.029,0.663-0.058,0.994-0.058c0.36,0,0.807,0.028,0.994,0.058v1.93h2.074c0.058,0.202,0.086,0.49,0.086,0.648
			c0,0.173-0.015,0.634-0.071,0.835h-2.089v3.501c0,0.72,0.288,1.037,0.993,1.037c0.39,0,0.865-0.058,1.196-0.173
			c0.058,0.188,0.13,0.547,0.13,0.879C207.527,260.881,207.498,261.184,207.44,261.342z"/>
		<path style="fill:#BBA461;" d="M209.93,253.16c-0.604,0-1.094-0.489-1.094-1.094c0-0.605,0.489-1.096,1.094-1.096
			c0.605,0,1.096,0.49,1.096,1.096C211.025,252.671,210.535,253.16,209.93,253.16z M210.924,261.486
			c-0.259,0.058-0.792,0.072-1.022,0.072c-0.346,0-0.72-0.029-0.965-0.072v-7.505c0.316-0.043,0.706-0.071,0.965-0.071
			c0.346,0,0.706,0.028,1.022,0.071V261.486z"/>
		<path style="fill:#BBA461;" d="M215.935,261.631c-2.175,0-3.558-1.397-3.558-3.875c0-2.463,1.368-3.918,3.558-3.918
			s3.558,1.44,3.558,3.903S218.124,261.631,215.935,261.631z M215.935,255.394c-0.937,0-1.513,0.634-1.513,2.348
			s0.576,2.333,1.513,2.333s1.513-0.619,1.513-2.333C217.447,256.013,216.871,255.394,215.935,255.394z"/>
		<path style="fill:#BBA461;" d="M227.44,261.486c-0.23,0.058-0.72,0.072-0.95,0.072c-0.245,0-0.807-0.029-1.037-0.072v-4.926
			c0-0.778-0.404-1.109-1.052-1.109c-0.519,0-1.109,0.188-1.57,0.475v5.561c-0.331,0.058-0.792,0.072-1.052,0.072
			c-0.23,0-0.648-0.015-0.936-0.072v-7.505c0.187-0.043,0.647-0.071,0.863-0.071c0.202,0,0.62,0.028,0.836,0.071l0.101,0.663
			c0.648-0.476,1.585-0.807,2.42-0.807c1.585,0,2.377,0.979,2.377,2.621V261.486z"/>
	</g>
	<g>
		<path style="fill:#BBA461;" d="M119.411,278.778c-0.187,0.043-0.634,0.072-1.109,0.072c-0.375,0-0.807-0.044-0.994-0.072
			l-0.72-1.974h-3.457l-0.677,1.974c-0.316,0.043-0.691,0.072-1.065,0.072c-0.375,0-0.807-0.029-1.023-0.072l3.399-9.737
			c0.202-0.043,0.677-0.072,0.994-0.072c0.389,0,0.85,0.029,1.009,0.072L119.411,278.778z M115.968,275.091l-0.85-2.751
			c-0.101-0.317-0.202-0.721-0.288-1.167h-0.029c-0.072,0.446-0.187,0.85-0.288,1.167l-0.807,2.751H115.968z"/>
		<path style="fill:#BBA461;" d="M127.762,278.778c-0.173,0.043-0.691,0.072-0.979,0.072c-0.303,0-0.749-0.029-0.908-0.072
			l-1.152-4.797h-0.029l-1.167,4.797c-0.144,0.028-0.691,0.072-0.95,0.072c-0.332,0-0.879-0.044-0.994-0.072l-1.584-5.301
			c-0.202-0.677-0.332-1.513-0.346-2.204c0.23-0.043,0.547-0.072,0.893-0.072c0.317,0,0.749,0.044,0.937,0.072
			c0,0.562,0.101,1.268,0.259,1.931l0.85,3.385h0.029l1.397-5.315c0.158-0.028,0.374-0.058,0.734-0.058
			c0.303,0,0.533,0.029,0.72,0.058l1.311,5.315h0.028l1.009-3.385c0.173-0.648,0.288-1.368,0.288-1.931
			c0.187-0.028,0.619-0.072,0.936-0.072c0.346,0,0.634,0.029,0.864,0.072c-0.014,0.749-0.115,1.311-0.332,1.974L127.762,278.778z"/>
		<path style="fill:#BBA461;" d="M136.903,276.689c0,0.619,0.015,1.325,0.015,2.089c-0.23,0.058-0.619,0.072-0.864,0.072
			c-0.273,0-0.634-0.029-0.864-0.072c-0.029-0.173-0.058-0.476-0.072-0.663h-0.028c-0.49,0.505-1.325,0.807-2.089,0.807
			c-1.44,0-2.478-0.893-2.478-2.376c0-2.305,2.045-2.694,3.76-2.694c0.115,0,0.389,0.015,0.619,0.029
			c0-0.086-0.015-0.273-0.029-0.346c-0.101-0.591-0.49-0.836-1.325-0.836c-0.648,0-1.556,0.13-2.247,0.303
			c-0.072-0.201-0.115-0.547-0.115-0.807c0-0.216,0.029-0.547,0.086-0.691c0.807-0.244,1.801-0.374,2.622-0.374
			c1.8,0,3.01,0.835,3.01,2.708V276.689z M134.916,275.264c-0.173-0.015-0.403-0.029-0.605-0.029c-1.296,0-1.8,0.52-1.8,1.167
			c0,0.562,0.375,0.951,1.023,0.951c0.475,0,1.008-0.23,1.383-0.562V275.264z"/>
		<path style="fill:#BBA461;" d="M142.936,272.801c-0.749,0.115-1.556,0.374-2.276,0.749v5.229
			c-0.202,0.043-0.634,0.072-0.979,0.072s-0.85-0.029-1.008-0.072v-7.505c0.216-0.028,0.576-0.072,0.864-0.072
			c0.245,0,0.634,0.029,0.835,0.072l0.115,0.922c0.533-0.475,1.498-0.994,2.435-1.065c0.028,0.115,0.058,0.532,0.058,0.835
			C142.979,272.253,142.965,272.599,142.936,272.801z"/>
		<path style="fill:#BBA461;" d="M150.395,278.778c-0.23,0.043-0.62,0.072-0.922,0.072c-0.274,0-0.59-0.029-0.792-0.072
			l-0.058-0.663c-0.519,0.505-1.181,0.807-1.959,0.807c-2.146,0-3.068-1.714-3.068-3.773c0-2.219,0.994-4.019,3.284-4.019
			c0.562,0,1.21,0.173,1.527,0.374v-3.227c0.259-0.043,0.691-0.072,1.008-0.072c0.389,0,0.691,0.044,0.979,0.072V278.778z
			 M148.407,272.988c-0.346-0.159-0.792-0.245-1.167-0.245c-1.167,0-1.599,1.037-1.599,2.29c0,1.052,0.259,2.247,1.426,2.247
			c0.562,0,0.994-0.23,1.34-0.519V272.988z"/>
		<path style="fill:#BBA461;" d="M154.367,278.922c-0.85,0-1.743-0.129-2.435-0.359c-0.043-0.217-0.058-0.49-0.058-0.778
			c0-0.23,0.058-0.562,0.115-0.763c0.663,0.23,1.613,0.389,2.176,0.389c0.777,0,1.224-0.26,1.224-0.793
			c0-0.461-0.36-0.677-1.311-0.979c-1.513-0.476-2.218-1.182-2.218-2.276c0-1.628,1.498-2.232,2.924-2.232
			c0.662,0,1.396,0.115,1.901,0.273c0.058,0.216,0.086,0.519,0.086,0.691c0,0.188-0.058,0.576-0.13,0.821
			c-0.489-0.145-1.166-0.26-1.729-0.26c-0.691,0-1.166,0.173-1.166,0.605c0,0.461,0.533,0.648,1.368,0.922
			c1.455,0.475,2.146,1.08,2.146,2.218C157.263,278.159,155.851,278.922,154.367,278.922z"/>
		<path style="fill:#BBA461;" d="M167.946,278.778h-6.15c-0.13-0.303-0.173-0.677-0.173-1.009c0-0.172,0.015-0.389,0.043-0.532
			c1.009-1.022,2.089-2.175,3.039-3.241c0.706-0.792,1.268-1.527,1.268-2.334c0-0.705-0.489-1.108-1.354-1.108
			c-0.634,0-1.643,0.216-2.578,0.662c-0.058-0.245-0.115-0.677-0.115-1.022c0-0.173,0.028-0.519,0.086-0.749
			c0.706-0.303,1.844-0.576,2.953-0.576c1.643,0,3.082,0.764,3.082,2.535c0,1.556-0.835,2.607-2.621,4.479
			c-0.346,0.375-0.721,0.734-1.095,1.124h3.645c0.043,0.187,0.071,0.547,0.071,0.893
			C168.047,278.188,168.004,278.576,167.946,278.778z"/>
		<path style="fill:#BBA461;" d="M172.812,278.922c-2.305,0-3.429-1.699-3.429-5.012c0-3.342,1.167-5.014,3.472-5.014
			c2.29,0,3.414,1.672,3.414,5.014C176.269,277.223,175.102,278.922,172.812,278.922z M172.826,270.582
			c-0.922,0-1.326,0.85-1.326,3.328c0,2.434,0.404,3.327,1.326,3.327s1.324-0.894,1.324-3.327
			C174.15,271.432,173.748,270.582,172.826,270.582z"/>
		<path style="fill:#BBA461;" d="M182.546,278.778c-0.216,0.043-0.605,0.072-1.022,0.072c-0.404,0-0.764-0.029-1.023-0.072v-7.447
			l-2.045,1.354c-0.49-0.447-0.836-1.052-0.965-1.57l3.385-2.074c0.201-0.043,0.619-0.072,0.835-0.072
			c0.245,0,0.691,0.043,0.836,0.072V278.778z"/>
		<path style="fill:#BBA461;" d="M188.766,278.922c-2.622,0-3.63-1.844-3.63-4.565c0-3.068,1.138-5.46,4.321-5.46
			c0.547,0,1.311,0.087,1.627,0.202c0.059,0.202,0.072,0.533,0.072,0.691c0,0.273-0.028,0.648-0.101,0.85
			c-0.374-0.058-0.922-0.101-1.34-0.101c-1.397,0-2.232,0.85-2.391,2.42c0.446-0.288,1.21-0.533,1.915-0.533
			c1.729,0,2.824,1.297,2.824,3.039C192.064,277.41,190.782,278.922,188.766,278.922z M188.779,274.025
			c-0.619,0-1.238,0.259-1.541,0.547c-0.014,0.145-0.014,0.331-0.014,0.547c0,0.894,0.316,2.161,1.483,2.161
			c0.807,0,1.224-0.764,1.224-1.714C189.932,274.63,189.558,274.025,188.779,274.025z"/>
	</g>
</g>
<g id="Thumbs_up">
	<path style="fill:#BBA461;" d="M221.233,92.314c0-4.062-2.421-7.626-6.073-9.661c-0.596-0.695-1.036-1.017-1.129-1.082
		c3.329-2.076,5.499-5.476,5.499-9.323c0-6.324-5.876-11.453-13.118-11.453l-5.205,0.103c-1.453-0.114-4.917-0.353-13.17,0.728
		c-7.868,1.029-4.431-0.633-2.445-3.402c1.714-2.399,3.416-4.133,5.85-8.265c2.428-4.132,3.642-7.05,4.632-10.939
		c0.987-3.891,1.251-7.795,0.899-9.722c-0.839-4.648-1.509-8.264-4.668-11.669c-3.163-3.404-5.728-4.352-9.859-4.132
		c-1.215,0.065-5.592,0.243-7.778,4.376c-2.19,4.134,1.701,1.945-1.457,12.64c-3.161,10.696-15.6,17.583-23.158,25.689
		c-2.356,2.524-5.04,8.01-8.445,12.872c-3.403,4.863-12.619,4.933-12.619,4.933l-2.991,0.292
		c-1.21,12.294-0.687,25.299,1.813,38.523c1.602,8.485,3.931,16.587,6.881,24.213c2.017-0.386,3.565-0.673,4.272-0.779
		c3.161-0.488,7.749-1.712,13.341-1.712c7.811,0,13.459,1.498,16.285,2.307c4.065,1.161,9.409,1.951,14.339,2.25
		c5.326,0.323,7.338,0.556,12.201-0.17l4.454-0.74c7.04,0,9.99-4.673,9.99-10.441c0-1.975-0.671-3.828-1.841-5.404
		c5.587-1.184,9.733-5.575,9.733-10.812c0-3.241-1.586-6.157-4.117-8.188c0.305-0.285,0.765-0.645,1.271-1.082
		C218.571,100.284,221.233,96.572,221.233,92.314"/>
	<path style="fill:#BBA461;" d="M116.841,137.943c-2.778,0-5.033-2.255-5.033-5.036c0-2.778,2.254-5.032,5.033-5.032
		c2.779,0,5.034,2.254,5.034,5.032C121.875,135.688,119.62,137.943,116.841,137.943 M133.711,141.305
		c-1.906-1.085-5.008-0.517-5.628-2.057c-0.202-0.577-0.401-1.156-0.6-1.738c-2.714-8.048-4.796-16.574-6.139-25.469
		c-2.092-13.869-2.217-27.436-0.63-40.198c0.087-0.708,0.181-1.417,0.278-2.121c-1.368,0.569-3.105,1.243-5.29,1.867
		c-6.862,1.957-26.912,4.391-33.773,2.334c-1.426,13.631,0.299,28.516,4.159,43.1c3.252,12.289,6.772,20.471,9.942,29.862
		c10.146-3.699,20.251-3.859,27.681-2.577c3.533,0.607,4.892,0.5,6.422,0.233C132.971,144.052,136.235,142.744,133.711,141.305"/>
</g>
</svg>
