<svg id="Layer_1" data-name="Layer 1" xmlns="http://www.w3.org/2000/svg" viewBox="0 0 300 300"><defs><style>.cls-1{fill:#130f3d;}.cls-2{fill:#00b3e1;}.cls-3,.cls-4{fill:none;stroke-linejoin:bevel;stroke-width:5px;}.cls-3{stroke:#130f3d;}.cls-4{stroke:#00b3e1;}</style></defs><title>update_web_</title><path class="cls-1" d="M65.65,159.84a9.15,9.15,0,0,1,0,12.92A9.16,9.16,0,0,1,59,175.28a9.44,9.44,0,0,1-6.69-2.52,8.75,8.75,0,0,1-2.68-6.38,9.6,9.6,0,0,1,2.66-6.52A9.21,9.21,0,0,1,59,157.34,9.21,9.21,0,0,1,65.65,159.84Zm-10.43,2.62a5.26,5.26,0,0,0-1.52,3.89,5.14,5.14,0,0,0,1.57,3.86A5,5,0,0,0,59,171.63a5.21,5.21,0,0,0,3.81-1.47,5.12,5.12,0,0,0,1.5-3.83,5.41,5.41,0,0,0-1.5-3.87A5.51,5.51,0,0,0,59,161,5.31,5.31,0,0,0,55.22,162.46Z"/><path class="cls-1" d="M79.77,161.07H74.21v3.32h5.15v3.35H74.21v7.16h-4V157.73h9.53Z"/><path class="cls-1" d="M94.88,165.53h8.52v.18a11.13,11.13,0,0,1-2.65,7.23,7.87,7.87,0,0,1-6.12,2.34,8.09,8.09,0,0,1-6.29-2.39,9.78,9.78,0,0,1,0-13,8.83,8.83,0,0,1,6.75-2.5,8.63,8.63,0,0,1,4.81,1.29,9.48,9.48,0,0,1,2.78,3.06l-3.58,1.93a5.14,5.14,0,0,0-1.52-1.85,4.25,4.25,0,0,0-2.62-.82,4.62,4.62,0,0,0-3.55,1.39,5.83,5.83,0,0,0-1.47,4.06,5.4,5.4,0,0,0,1.44,3.94,4.51,4.51,0,0,0,3.48,1.34,4.35,4.35,0,0,0,3-.93,4,4,0,0,0,1.24-2H94.88Z"/><path class="cls-1" d="M111.24,157.73a6.14,6.14,0,0,1,4.37,1.49,5.19,5.19,0,0,1,1.49,3.84,4.71,4.71,0,0,1-1.33,3.5,5.53,5.53,0,0,1-2.4,1.31l5.28,7h-4.84l-4.63-6.77v6.77h-4V157.73Zm-2.06,7.8h.9a3.27,3.27,0,0,0,2.37-.75,2.31,2.31,0,0,0,.64-1.67,2.07,2.07,0,0,0-.8-1.75,3.86,3.86,0,0,0-2.19-.54h-.92Z"/><path class="cls-1" d="M130.7,171.65h-6.49l-1.31,3.25h-4.12l6.93-17.17h3.63l6.77,17.17H132Zm-1.08-3-2.11-5.77-2.14,5.77Z"/><path class="cls-1" d="M142.44,157.73a9,9,0,0,1,6.77,2.37,9,9,0,0,1,.13,12.22,9.24,9.24,0,0,1-6.77,2.58H137V157.73ZM141,171.55H142a6.21,6.21,0,0,0,3.91-1.16,5.34,5.34,0,0,0,1.67-4.14,5.08,5.08,0,0,0-1.41-3.71,5.66,5.66,0,0,0-4.17-1.47H141Z"/><path class="cls-1" d="M168,167.9a7.28,7.28,0,0,1-1.9,5.43,8.33,8.33,0,0,1-10.71,0,7.28,7.28,0,0,1-1.9-5.43V157.73h4v10.06a4.06,4.06,0,0,0,.9,2.89,3.64,3.64,0,0,0,4.79,0,4.06,4.06,0,0,0,.9-2.89V157.73h4Z"/><path class="cls-1" d="M180,171.65h-6.49l-1.31,3.25h-4.12l6.93-17.17h3.63l6.77,17.17h-4.12Zm-1.08-3-2.11-5.77-2.14,5.77Z"/><path class="cls-1" d="M191.3,161.07V174.9h-4V161.07H183.6v-3.34H195v3.34Z"/><path class="cls-1" d="M205.7,161.07H200v3.32h5.46v3.35H200v3.81h5.74v3.35H196V157.73h9.71Z"/><path class="cls-1" d="M216.72,161.92a4.19,4.19,0,0,0-2.88-1.23,2.15,2.15,0,0,0-1.67.59,1.52,1.52,0,0,0-.44,1.08,1.19,1.19,0,0,0,.39.95,6.8,6.8,0,0,0,2.16,1l1.28.49a6.89,6.89,0,0,1,2.35,1.31,4.31,4.31,0,0,1,1.26,3.2,6.14,6.14,0,0,1-1.52,4.24,6.64,6.64,0,0,1-4.87,1.75,7.26,7.26,0,0,1-3.39-.72,10.61,10.61,0,0,1-2.53-1.88l2.06-2.83a11.18,11.18,0,0,0,1.6,1.32,4,4,0,0,0,2.16.61,2.71,2.71,0,0,0,1.8-.59,1.76,1.76,0,0,0,.62-1.39,1.49,1.49,0,0,0-.59-1.23,8.38,8.38,0,0,0-2-1l-1.42-.49a5.78,5.78,0,0,1-2.39-1.36,4.22,4.22,0,0,1-1-3,5.32,5.32,0,0,1,1.49-3.86,5.56,5.56,0,0,1,4.25-1.57,8.32,8.32,0,0,1,5.1,1.7Z"/><path class="cls-1" d="M230,157.73V174.9h-4V157.73Z"/><path class="cls-1" d="M232.83,174.9V157.73h3.45l9.32,11.07V157.73h4V174.9h-3.45l-9.32-11.12V174.9Z"/><path class="cls-1" d="M45.22,186.05l3.65,11.38,3.66-11.38h2.72l3.66,11.38,3.66-11.38h4.11l-5.84,17.17H57.49l-3.6-10.43-3.6,10.43H46.94L41.1,186.05Z"/><path class="cls-1" d="M82.2,188.16a9.15,9.15,0,0,1,0,12.92,9.17,9.17,0,0,1-6.65,2.53,9.44,9.44,0,0,1-6.69-2.53,8.75,8.75,0,0,1-2.68-6.38,9.55,9.55,0,0,1,2.66-6.51,10.16,10.16,0,0,1,13.36,0Zm-10.43,2.63a5.24,5.24,0,0,0-1.52,3.88,5.15,5.15,0,0,0,1.57,3.87A5.08,5.08,0,0,0,75.5,200a5.09,5.09,0,0,0,5.31-5.3,5.41,5.41,0,0,0-1.5-3.86,5.47,5.47,0,0,0-3.78-1.47A5.27,5.27,0,0,0,71.77,190.79Z"/><path class="cls-1" d="M92.82,186.05a6.14,6.14,0,0,1,4.37,1.49,5.19,5.19,0,0,1,1.5,3.84,4.72,4.72,0,0,1-1.34,3.5,5.37,5.37,0,0,1-2.4,1.31l5.28,7H95.39l-4.63-6.77v6.77h-4V186.05Zm-2.06,7.8h.9A3.27,3.27,0,0,0,94,193.1a2.31,2.31,0,0,0,.64-1.67,2.07,2.07,0,0,0-.8-1.75,3.86,3.86,0,0,0-2.19-.54h-.92Z"/><path class="cls-1" d="M105.22,193.21l5.87-7.16h4.84l-7,8.14,7.49,9h-5.1l-6.15-7.62v7.62h-4V186.05h4Z"/><path class="cls-1" d="M137.66,188.16a9.13,9.13,0,0,1,0,12.92,9.16,9.16,0,0,1-6.64,2.53,9.45,9.45,0,0,1-6.7-2.53,8.78,8.78,0,0,1-2.67-6.38,9.55,9.55,0,0,1,2.65-6.51,10.16,10.16,0,0,1,13.36,0Zm-10.43,2.63a5.27,5.27,0,0,0-1.52,3.88,5.12,5.12,0,0,0,1.58,3.87A5.05,5.05,0,0,0,131,200a5.19,5.19,0,0,0,3.81-1.47,5.12,5.12,0,0,0,1.49-3.83,5.41,5.41,0,0,0-1.49-3.86,5.5,5.5,0,0,0-3.79-1.47A5.27,5.27,0,0,0,127.23,190.79Z"/><path class="cls-1" d="M148.28,186.05a6.17,6.17,0,0,1,4.38,1.49,5.19,5.19,0,0,1,1.49,3.84,4.68,4.68,0,0,1-1.34,3.5,5.33,5.33,0,0,1-2.39,1.31l5.27,7h-4.84l-4.63-6.77v6.77h-4V186.05Zm-2.06,7.8h.9a3.27,3.27,0,0,0,2.37-.75,2.31,2.31,0,0,0,.64-1.67,2.07,2.07,0,0,0-.8-1.75,3.84,3.84,0,0,0-2.18-.54h-.93Z"/><path class="cls-1" d="M171.35,189.4h-5.56v3.32h5.15v3.34h-5.15v7.16h-4V186.05h9.52Z"/><path class="cls-1" d="M187.62,196.22a7.27,7.27,0,0,1-1.9,5.43,8.3,8.3,0,0,1-10.71,0,7.27,7.27,0,0,1-1.9-5.43V186.05h4v10.07A4.05,4.05,0,0,0,178,199a3.64,3.64,0,0,0,4.79,0,4.05,4.05,0,0,0,.9-2.88V186.05h4Z"/><path class="cls-1" d="M196.42,186.05a6.15,6.15,0,0,1,4.38,1.49,5.19,5.19,0,0,1,1.49,3.84,4.71,4.71,0,0,1-1.33,3.5,5.43,5.43,0,0,1-2.4,1.31l5.28,7H199l-4.63-6.77v6.77h-4V186.05Zm-2,7.8h.9a3.24,3.24,0,0,0,2.36-.75,2.27,2.27,0,0,0,.65-1.67,2.1,2.1,0,0,0-.8-1.75,3.86,3.86,0,0,0-2.19-.54h-.92Z"/><path class="cls-1" d="M210.82,189.4v13.82h-4V189.4h-3.74v-3.35h11.43v3.35Z"/><path class="cls-1" d="M219.48,192.59h6.85v-6.54h4v17.17h-4v-7.28h-6.85v7.28h-4V186.05h4Z"/><path class="cls-1" d="M242.82,189.4h-5.74v3.32h5.46v3.34h-5.46v3.81h5.74v3.35h-9.71V186.05h9.71Z"/><path class="cls-1" d="M251.28,186.05a6.17,6.17,0,0,1,4.38,1.49,5.19,5.19,0,0,1,1.49,3.84,4.68,4.68,0,0,1-1.34,3.5,5.33,5.33,0,0,1-2.39,1.31l5.28,7h-4.84l-4.64-6.77v6.77h-4V186.05Zm-2.06,7.8h.9a3.27,3.27,0,0,0,2.37-.75,2.27,2.27,0,0,0,.65-1.67,2.1,2.1,0,0,0-.8-1.75,3.87,3.87,0,0,0-2.19-.54h-.93Z"/><path class="cls-1" d="M26,218.57a4.17,4.17,0,0,0-2.89-1.23,2.12,2.12,0,0,0-1.67.59A1.51,1.51,0,0,0,21,219a1.19,1.19,0,0,0,.39,1,6.8,6.8,0,0,0,2.16,1l1.29.49a6.94,6.94,0,0,1,2.34,1.31,4.29,4.29,0,0,1,1.26,3.19,6.16,6.16,0,0,1-1.52,4.25A6.63,6.63,0,0,1,22,231.93a7.28,7.28,0,0,1-3.4-.72,10.9,10.9,0,0,1-2.52-1.88l2.06-2.83a9.94,9.94,0,0,0,1.59,1.31,4,4,0,0,0,2.16.62,2.75,2.75,0,0,0,1.81-.59,1.8,1.8,0,0,0,.61-1.39,1.52,1.52,0,0,0-.59-1.24,8.54,8.54,0,0,0-2-1l-1.41-.49A5.66,5.66,0,0,1,18,222.41a4.21,4.21,0,0,1-1-3,5.28,5.28,0,0,1,1.49-3.86A5.51,5.51,0,0,1,22.66,214a8.3,8.3,0,0,1,5.09,1.7Z"/><path class="cls-1" d="M36.3,217.72v13.82h-4V217.72H28.6v-3.34H40v3.34Z"/><path class="cls-1" d="M55.51,224.54A7.28,7.28,0,0,1,53.6,230a6.84,6.84,0,0,1-5.35,2,6.84,6.84,0,0,1-5.35-2A7.28,7.28,0,0,1,41,224.54V214.38h4v10.06a4,4,0,0,0,.9,2.88,3.62,3.62,0,0,0,4.78,0,4,4,0,0,0,.9-2.88V214.38h4Z"/><path class="cls-1" d="M63.72,214.38a9.06,9.06,0,0,1,6.77,2.36A9,9,0,0,1,70.62,229a9.27,9.27,0,0,1-6.77,2.57H58.29V214.38ZM62.25,228.2h1A6.22,6.22,0,0,0,67.22,227a5.38,5.38,0,0,0,1.67-4.14,5.12,5.12,0,0,0-1.41-3.71,5.68,5.68,0,0,0-4.18-1.47h-1Z"/><path class="cls-1" d="M77.8,223.54l-6.15-9.16h4.68l3.45,5.32,3.45-5.32h4.69l-6.15,9.16v8h-4Z"/><path class="cls-1" d="M103.52,214.43,99,220.06a5.23,5.23,0,0,1,1.8-.28,5.7,5.7,0,0,1,4.25,1.65,5.49,5.49,0,0,1,1.49,4,6.15,6.15,0,0,1-6.89,6.54,7.08,7.08,0,0,1-5.56-2,5.78,5.78,0,0,1-1.5-4.17c0-2.73,1.29-4.66,2.76-6.59L99.27,214Zm-2,13.49a3,3,0,0,0,.9-2.27,2.75,2.75,0,0,0-.9-2.11,3,3,0,0,0-2.06-.72,2.85,2.85,0,0,0-2.09.75,2.89,2.89,0,0,0-.87,2.18,2.77,2.77,0,0,0,.87,2.14,3,3,0,0,0,2.09.8A3,3,0,0,0,101.57,227.92Z"/><path class="cls-1" d="M112.33,231.54l2.76-17.16h3.29l4.27,10.27,4.28-10.27h3.29L133,231.54h-4l-1.36-10.24-4.3,10.24H122l-4.3-10.24-1.37,10.24Z"/><path class="cls-1" d="M149.78,216.49a9.13,9.13,0,0,1,0,12.92,9.19,9.19,0,0,1-6.64,2.52,9.45,9.45,0,0,1-6.69-2.52,8.77,8.77,0,0,1-2.68-6.39,9.61,9.61,0,0,1,2.65-6.51,10.14,10.14,0,0,1,13.36,0Zm-10.42,2.62a5.24,5.24,0,0,0-1.52,3.89,5.1,5.1,0,0,0,1.57,3.86,5,5,0,0,0,3.68,1.42,5.23,5.23,0,0,0,3.81-1.47,5.13,5.13,0,0,0,1.49-3.84,5.42,5.42,0,0,0-1.49-3.86,5.54,5.54,0,0,0-3.79-1.47A5.23,5.23,0,0,0,139.36,219.11Z"/><path class="cls-1" d="M154.38,231.54V214.38h3.45l9.32,11.06V214.38h4v17.16h-3.45l-9.32-11.12v11.12Z"/><path class="cls-1" d="M179.8,217.72v13.82h-4V217.72H172.1v-3.34h11.43v3.34Z"/><path class="cls-1" d="M188.45,220.91h6.85v-6.53h4v17.16h-4v-7.28h-6.85v7.28h-4V214.38h4Z"/><path class="cls-1" d="M210.76,218.57a4.16,4.16,0,0,0-2.88-1.23,2.15,2.15,0,0,0-1.68.59,1.54,1.54,0,0,0-.43,1.08,1.22,1.22,0,0,0,.38,1,6.88,6.88,0,0,0,2.17,1l1.28.49a6.76,6.76,0,0,1,2.34,1.31,4.27,4.27,0,0,1,1.27,3.19,6.16,6.16,0,0,1-1.52,4.25,6.64,6.64,0,0,1-4.87,1.75,7.33,7.33,0,0,1-3.4-.72,11.12,11.12,0,0,1-2.52-1.88L203,226.5a10,10,0,0,0,1.6,1.31,4,4,0,0,0,2.16.62,2.73,2.73,0,0,0,1.8-.59,1.78,1.78,0,0,0,.62-1.39,1.52,1.52,0,0,0-.59-1.24,8.73,8.73,0,0,0-2-1l-1.42-.49a5.78,5.78,0,0,1-2.39-1.36,4.25,4.25,0,0,1-1-3,5.28,5.28,0,0,1,1.49-3.86,5.51,5.51,0,0,1,4.25-1.57,8.34,8.34,0,0,1,5.1,1.7Z"/><path class="cls-1" d="M230.1,228.3h-6.49l-1.31,3.24h-4.12l6.92-17.16h3.63l6.77,17.16h-4.12Zm-1.08-3-2.11-5.76-2.14,5.76Z"/><path class="cls-1" d="M245.93,217.72h-5.56V221h5.14v3.35h-5.14v7.15h-4V214.38h9.53Z"/><path class="cls-1" d="M254.17,217.72v13.82h-4V217.72h-3.74v-3.34H257.9v3.34Z"/><path class="cls-1" d="M268.57,217.72h-5.74V221h5.46v3.35h-5.46v3.81h5.74v3.34h-9.71V214.38h9.71Z"/><path class="cls-1" d="M277,214.38a6.17,6.17,0,0,1,4.38,1.49,5.16,5.16,0,0,1,1.49,3.83,4.71,4.71,0,0,1-1.34,3.51,5.43,5.43,0,0,1-2.39,1.31l5.28,7h-4.84L275,224.77v6.77h-4V214.38ZM275,222.17h.9a3.26,3.26,0,0,0,2.37-.74,2.29,2.29,0,0,0,.65-1.68,2.11,2.11,0,0,0-.8-1.75,4,4,0,0,0-2.19-.54H275Z"/><path class="cls-1" d="M36.86,242.7v13.82h5.33v3.35h-9.3V242.7Z"/><path class="cls-1" d="M52.93,246.05H47.19v3.32h5.45v3.34H47.19v3.81h5.74v3.35H43.22V242.7h9.71Z"/><path class="cls-1" d="M65.47,256.63H59l-1.31,3.24H53.55l6.92-17.17H64.1l6.77,17.17H66.75Zm-1.09-3-2.11-5.77-2.13,5.77Z"/><path class="cls-1" d="M72.78,242.7l4.35,11,4.35-11h4.28l-7.29,17.17H75.79L68.51,242.7Z"/><path class="cls-1" d="M90.68,242.7v17.17h-4V242.7Z"/><path class="cls-1" d="M93.5,259.87V242.7H97l9.32,11.07V242.7h4v17.17h-3.45l-9.32-11.12v11.12Z"/><path class="cls-1" d="M121.27,250.5h8.52v.18a11.18,11.18,0,0,1-2.65,7.23,7.91,7.91,0,0,1-6.13,2.34,8.07,8.07,0,0,1-6.28-2.39,9.78,9.78,0,0,1,0-13.05,8.83,8.83,0,0,1,6.74-2.5,8.64,8.64,0,0,1,4.82,1.29,9.48,9.48,0,0,1,2.78,3.06l-3.58,1.93a5.24,5.24,0,0,0-1.52-1.85,4.28,4.28,0,0,0-2.63-.82,4.63,4.63,0,0,0-3.55,1.39,5.87,5.87,0,0,0-1.46,4.06,5.4,5.4,0,0,0,1.44,3.94,4.5,4.5,0,0,0,3.47,1.34,4.39,4.39,0,0,0,3-.93,4,4,0,0,0,1.23-2h-4.14Z"/><path class="cls-1" d="M151.21,252.87a7.28,7.28,0,0,1-1.9,5.43,8.33,8.33,0,0,1-10.71,0,7.29,7.29,0,0,1-1.91-5.43V242.7h4v10.06a4.06,4.06,0,0,0,.9,2.89,3.64,3.64,0,0,0,4.79,0,4.06,4.06,0,0,0,.9-2.89V242.7h4Z"/><path class="cls-1" d="M154,259.87V242.7h3.45l9.32,11.07V242.7h4v17.17h-3.45L158,248.75v11.12Z"/><path class="cls-1" d="M177.56,242.7v17.17h-4V242.7Z"/><path class="cls-1" d="M182.75,242.7l4.36,11,4.35-11h4.27l-7.29,17.17h-2.67l-7.29-17.17Z"/><path class="cls-1" d="M206.36,246.05h-5.74v3.32h5.45v3.34h-5.45v3.81h5.74v3.35h-9.71V242.7h9.71Z"/><path class="cls-1" d="M214.82,242.7a6.17,6.17,0,0,1,4.38,1.49,5.19,5.19,0,0,1,1.49,3.84,4.68,4.68,0,0,1-1.34,3.5,5.43,5.43,0,0,1-2.39,1.31l5.28,7H217.4l-4.64-6.77v6.77h-4V242.7Zm-2.06,7.8h.9a3.27,3.27,0,0,0,2.37-.75,2.31,2.31,0,0,0,.64-1.67,2.09,2.09,0,0,0-.79-1.75,3.89,3.89,0,0,0-2.19-.54h-.93Z"/><path class="cls-1" d="M231.94,246.9a4.17,4.17,0,0,0-2.88-1.24,2.15,2.15,0,0,0-1.67.59,1.54,1.54,0,0,0-.44,1.08,1.21,1.21,0,0,0,.39,1,6.84,6.84,0,0,0,2.16,1l1.29.49a7,7,0,0,1,2.34,1.32,4.28,4.28,0,0,1,1.26,3.19,6.14,6.14,0,0,1-1.52,4.24,6.63,6.63,0,0,1-4.86,1.75,7.15,7.15,0,0,1-3.4-.72,10.85,10.85,0,0,1-2.53-1.87l2.06-2.84a11.18,11.18,0,0,0,1.6,1.32,4,4,0,0,0,2.16.61,2.75,2.75,0,0,0,1.81-.59,1.77,1.77,0,0,0,.61-1.39,1.51,1.51,0,0,0-.59-1.23,8.2,8.2,0,0,0-2-1l-1.41-.49a5.76,5.76,0,0,1-2.4-1.36,4.21,4.21,0,0,1-1-3,5.31,5.31,0,0,1,1.5-3.87,5.54,5.54,0,0,1,4.24-1.57,8.32,8.32,0,0,1,5.1,1.7Z"/><path class="cls-1" d="M240.27,242.7v17.17h-4V242.7Z"/><path class="cls-1" d="M248.94,246.05v13.82h-4V246.05h-3.74V242.7h11.43v3.35Z"/><path class="cls-1" d="M258.87,251.86l-6.16-9.16h4.69l3.45,5.33,3.45-5.33H269l-6.15,9.16v8h-4Z"/><path class="cls-1" d="M64.73,288.81a17,17,0,0,1-1.23-3.64,22.65,22.65,0,0,1,0-9.37,15.53,15.53,0,0,1,1.19-3.52l1.62.63a18.37,18.37,0,0,0-1.08,3.27,21,21,0,0,0-.43,4.39,19.7,19.7,0,0,0,.41,4.26,23.34,23.34,0,0,0,1.1,3.35Z"/><path class="cls-1" d="M71.4,273.6a7,7,0,0,1,4.47,1.17,6,6,0,0,1,2.3,4.85,5.72,5.72,0,0,1-2.41,4.84,6.86,6.86,0,0,1-4.4,1.16H68.87v-12Zm-.69,10.29h.79a5.2,5.2,0,0,0,3.2-.85,4.45,4.45,0,0,0,0-6.88,5.35,5.35,0,0,0-3.21-.83h-.79Z"/><path class="cls-1" d="M82.32,273.6v10.29h3.53v1.73H80.48v-12Z"/><path class="cls-1" d="M89.42,278.36h5.16V273.6h1.83v12H94.58v-5.53H89.42v5.53H87.58v-12h1.84Z"/><path class="cls-1" d="M105.93,275.33h-4.79v3h4.65v1.73h-4.65v3.79h4.79v1.73H99.3v-12h6.63Z"/><path class="cls-1" d="M117.7,276.27a1.85,1.85,0,0,0-1.84-1.19c-1.12,0-1.69.66-1.69,1.44,0,.36.12,1,1.3,1.46l1.2.48c2.22.91,2.83,2.17,2.83,3.54a3.7,3.7,0,0,1-3.87,3.85,3.52,3.52,0,0,1-2.83-1.2,3.91,3.91,0,0,1-1-2.35l1.82-.39a2.66,2.66,0,0,0,.5,1.53,2,2,0,0,0,3.55-1.3c0-1.22-.93-1.73-1.73-2.05l-1.15-.49a3.39,3.39,0,0,1-2.45-3.05,3.24,3.24,0,0,1,3.51-3.17,3.58,3.58,0,0,1,2.42.81,4.23,4.23,0,0,1,.92,1.21Z"/><path class="cls-1" d="M123.25,278v4.34a2.14,2.14,0,0,0,.33,1.37,1.51,1.51,0,0,0,2.3,0,2.14,2.14,0,0,0,.33-1.37V278H128v4.4a3.17,3.17,0,0,1-.81,2.49,3.46,3.46,0,0,1-2.47.93,3.32,3.32,0,0,1-2.39-.93,3.17,3.17,0,0,1-.81-2.49V278Z"/><path class="cls-1" d="M130.21,278H132v.69a2.72,2.72,0,0,1,.73-.63,2.07,2.07,0,0,1,1.09-.26,2.66,2.66,0,0,1,1.38.36l-.72,1.61a1.52,1.52,0,0,0-.9-.27,1.37,1.37,0,0,0-1.1.41,2.48,2.48,0,0,0-.48,1.75v3.93h-1.77Z"/><path class="cls-1" d="M137.55,278l1.94,4.33,1.95-4.33h2l-3.93,8.13L135.56,278Z"/><path class="cls-1" d="M151.22,283.89a4.08,4.08,0,0,1-1.27,1.39,4.27,4.27,0,0,1-2.24.57,3.36,3.36,0,0,1-2.56-1A4.08,4.08,0,0,1,144,282a4.47,4.47,0,0,1,1.21-3.12,3.46,3.46,0,0,1,2.54-1,3.33,3.33,0,0,1,2.44,1,4.58,4.58,0,0,1,1.06,3.21v.22h-5.44a2.47,2.47,0,0,0,.65,1.53,1.81,1.81,0,0,0,1.35.49,1.85,1.85,0,0,0,1.2-.38,2.89,2.89,0,0,0,.71-.83Zm-1.74-3.08a1.87,1.87,0,0,0-.54-1,1.7,1.7,0,0,0-1.19-.43,1.73,1.73,0,0,0-1.25.48,2,2,0,0,0-.54,1Z"/><path class="cls-1" d="M155.35,284.43l-3.24-6.4h2.13l2.16,4.43,2.2-4.43h2l-6,11.72h-2Z"/><path class="cls-1" d="M173.57,285.62H165.5l4.16-5.05c.42-.5,1.05-1.3,1.44-1.87a3,3,0,0,0,.64-1.73,1.88,1.88,0,0,0-2-2,2.13,2.13,0,0,0-2.13,2.18h-1.77a4.35,4.35,0,0,1,1-2.63,3.91,3.91,0,0,1,6.69,2.45,4.4,4.4,0,0,1-.87,2.52,24.28,24.28,0,0,1-1.71,2.17l-1.87,2.21h4.48Z"/><path class="cls-1" d="M177.52,284.52a7.3,7.3,0,0,1-1.53-4.9,7.38,7.38,0,0,1,1.53-4.92,3.5,3.5,0,0,1,5.44,0,7.34,7.34,0,0,1,1.54,4.92,7.26,7.26,0,0,1-1.54,4.9,3.5,3.5,0,0,1-5.44,0Zm1.1-8.51a8.2,8.2,0,0,0,0,7.19,1.82,1.82,0,0,0,3.24,0,8.2,8.2,0,0,0,0-7.19,1.82,1.82,0,0,0-3.24,0Z"/><path class="cls-1" d="M188.3,275.29h-2.09l1-1.69h2.92v12H188.3Z"/><path class="cls-1" d="M199.62,274.17l-2.87,3.63a3.36,3.36,0,0,1,.76-.07,3.72,3.72,0,0,1,2.77,1.11,4.14,4.14,0,0,1,1.07,2.81,4.29,4.29,0,0,1-1.19,3,4.36,4.36,0,0,1-3.1,1.14,4.08,4.08,0,0,1-3.1-1.17,3.83,3.83,0,0,1-1.05-2.73,4.73,4.73,0,0,1,.58-2.3,12.45,12.45,0,0,1,1.46-2.15l3.33-4.29Zm-4.2,5.79a2.48,2.48,0,0,0-.7,1.78,2.56,2.56,0,0,0,.7,1.79,2.76,2.76,0,0,0,1.73.66,2.47,2.47,0,0,0,1.69-.66,2.63,2.63,0,0,0,0-3.57,2.46,2.46,0,0,0-1.69-.67A2.6,2.6,0,0,0,195.42,280Z"/><path class="cls-1" d="M211.73,271.83l1.44.65-9.48,17-1.44-.65Z"/><path class="cls-1" d="M219.08,275.29H217l1-1.69h2.92v12h-1.84Z"/><path class="cls-1" d="M229.21,275.29H223.3V273.6h8.94L224.67,286l-1.44-.9Z"/><path class="cls-1" d="M233.65,288.18a23.34,23.34,0,0,0,1.1-3.35,19.7,19.7,0,0,0,.41-4.26,21,21,0,0,0-.43-4.39,18.37,18.37,0,0,0-1.08-3.27l1.62-.63a15.53,15.53,0,0,1,1.19,3.52,23.11,23.11,0,0,1,0,9.37,17,17,0,0,1-1.23,3.64Z"/><path class="cls-2" d="M132.51,90.71l9.27-7.48A29.84,29.84,0,0,1,148.39,79l-.31-.68a10.73,10.73,0,0,1-3.09.43c-7,0-12.36-5.69-12.36-13.16,0-9.89,8.47-17.06,20.09-17.06,10.88,0,18.79,7,18.79,16.87a19.34,19.34,0,0,1-3.9,11.43A40.3,40.3,0,0,1,163,81.56l-10.2,9.15Zm24.66-25.77a4.55,4.55,0,0,0-4.7-4.7,5.34,5.34,0,0,0-5.31,5.44,4.69,4.69,0,0,0,4.69,5A5.65,5.65,0,0,0,157.17,64.94Z"/><path class="cls-2" d="M208.83,71.61l-1.42,11.25h-5.69l-.92,7.85H187l1-7.85H167.49l1.36-11.25,19.28-22.12h17.73l-2.72,22.12Zm-19.1,0,.44-3.46A24.47,24.47,0,0,1,192.64,60l-.62-.06a32.68,32.68,0,0,1-3.52,5.38L185.66,69a28.48,28.48,0,0,1-3.84,3.53l.25.43a8.08,8.08,0,0,1,5.13-1.3Z"/><path class="cls-2" d="M238.74,59.25c0,7-5.87,12.3-13.47,12.3s-13-4.64-13-11.37,5.38-11.68,13-11.68S238.74,52.82,238.74,59.25ZM226,56.9a3,3,0,0,0-2.72,3.16,2.37,2.37,0,0,0,2.16,2.53,3,3,0,0,0,2.72-3.21A2.31,2.31,0,0,0,226,56.9Zm34.79-7.41L231.69,90.71h-7.47l29.1-41.22Zm11.74,30c0,7-6,12.3-13.53,12.3s-13-4.7-13-11.37c0-6.86,5.38-11.74,13-11.74S272.48,73,272.48,79.46Zm-12.85-2.35a3,3,0,0,0-2.72,3.15,2.35,2.35,0,0,0,2.16,2.47,2.89,2.89,0,0,0,2.72-3.15A2.24,2.24,0,0,0,259.63,77.11Z"/><path class="cls-3" d="M136.65,122a35.52,35.52,0,0,0-1.88-5.24c-2.58-6-4.73-12.1-10.11-16.2-4.18-3.2-9.53-5.05-14.48-6.7l-1.3-.45c-1-.33-6.16,15.19-24.12,23.62-18-8.43-23.14-24-24.11-23.62l-1.31.45c-5,1.65-10.3,3.5-14.48,6.7-5.37,4.1-7.52,10.22-10.1,16.2A34.8,34.8,0,0,0,32.88,122a5.7,5.7,0,0,0-.2,1.46v.33c.09,13.35,38.95,15,46.75,15.21,1.69.09,3.49.13,5.27.13h.13c1.78,0,3.58,0,5.27-.13,7.79-.19,46.66-1.86,46.74-15.21v-.33A5.63,5.63,0,0,0,136.65,122Z"/><path class="cls-3" d="M123.67,101.26s-9.12,6.17-11.15,35"/><line class="cls-3" x1="76.49" y1="110.96" x2="81.23" y2="93.8"/><line class="cls-3" x1="92.83" y1="110.96" x2="88.09" y2="93.8"/><circle class="cls-4" cx="75.42" cy="65.16" r="5.91"/><circle class="cls-4" cx="94.1" cy="65.16" r="5.91"/><line class="cls-3" x1="60.8" y1="93.36" x2="68.79" y2="84.62"/><line class="cls-3" x1="108.78" y1="93.36" x2="100.56" y2="84.35"/><line class="cls-4" x1="81.33" y1="65.16" x2="89.08" y2="65.16"/><line class="cls-4" x1="60.66" y1="54.74" x2="70.42" y2="62.3"/><line class="cls-4" x1="108.5" y1="54.74" x2="98.74" y2="62.3"/><path class="cls-3" d="M62.68,44.91A29.13,29.13,0,0,0,60.3,56.22a5.93,5.93,0,0,0-1.09,1.45c-1.92,3.49-1.05,9.39.85,12.86a7.66,7.66,0,0,0,4.59,4c3,7.23,9.65,19.14,20.09,19.19s17.07-11.94,20.12-19.17c4.49-1.2,6.53-7.42,6.54-12,0-3-.89-5.1-2.18-6.36a29,29,0,0,0-2.29-11.09"/><path class="cls-3" d="M60.83,27.62V41.18c0,4.34,10.71,7.85,23.93,7.85s23.94-3.51,23.94-7.85V27.62"/><polygon class="cls-3" points="85.92 31.91 49.43 23.66 85.92 15.42 122.41 23.66 85.92 31.91"/></svg>