<?xml version="1.0" encoding="utf-8"?>
<!-- Generator: Adobe Illustrator 16.0.0, SVG Export Plug-In . SVG Version: 6.00 Build 0)  -->
<!DOCTYPE svg PUBLIC "-//W3C//DTD SVG 1.0//EN" "http://www.w3.org/TR/2001/REC-SVG-20010904/DTD/svg10.dtd">
<svg version="1.0" xmlns="http://www.w3.org/2000/svg" xmlns:xlink="http://www.w3.org/1999/xlink" x="0px" y="0px" width="300px"
	 height="300px" viewBox="0 0 300 300" style="enable-background:new 0 0 300 300;" xml:space="preserve">
<g id="Text">
	<text transform="matrix(1 0 0 1 100.6309 142.7251)"><tspan x="0" y="0" style="fill:#7AC6BA; font-family:'FSMatthew-Bold'; font-size:49.3708;">BEL</tspan><tspan x="80.474" y="0" style="fill:#7AC6BA; font-family:'FSMatthew-Bold'; font-size:49.3708; letter-spacing:-2;">F</tspan><tspan x="104.072" y="0" style="fill:#7AC6BA; font-family:'FSMatthew-Bold'; font-size:49.3708;">A</tspan><tspan x="136.015" y="0" style="fill:#7AC6BA; font-family:'FSMatthew-Bold'; font-size:49.3708; letter-spacing:-1;">S</tspan><tspan x="160.946" y="0" style="fill:#7AC6BA; font-family:'FSMatthew-Bold'; font-size:49.3708;">T</tspan></text>
	<text transform="matrix(1 0 0 1 104.2803 163.7656)"><tspan x="0" y="0" style="fill:#1A2A4F; font-family:'FSMatthew-Bold'; font-size:16.0817;">is one </tspan><tspan x="45.735" y="0" style="fill:#1A2A4F; font-family:'FSMatthew-Bold'; font-size:16.0817;">o</tspan><tspan x="54.597" y="0" style="fill:#1A2A4F; font-family:'FSMatthew-Bold'; font-size:16.0817;">f the </tspan><tspan x="93.256" y="0" style="fill:#1A2A4F; font-family:'FSMatthew-Bold'; font-size:16.0817;">t</tspan><tspan x="100.074" y="0" style="fill:#1A2A4F; font-family:'FSMatthew-Bold'; font-size:16.0817;">op 5 mo</tspan><tspan x="157.742" y="0" style="fill:#1A2A4F; font-family:'FSMatthew-Bold'; font-size:16.0817;">s</tspan><tspan x="164.754" y="0" style="fill:#1A2A4F; font-family:'FSMatthew-Bold'; font-size:16.0817;">t </tspan></text>
	<path style="fill:#1A2A4F;" d="M111.957,179.993c0,0.69,0.017,1.479,0.017,2.332c-0.258,0.063-0.692,0.079-0.966,0.079
		c-0.306,0-0.708-0.031-0.965-0.079c-0.032-0.193-0.064-0.53-0.081-0.741h-0.032c-0.547,0.563-1.48,0.901-2.333,0.901
		c-1.609,0-2.768-0.998-2.768-2.653c0-2.574,2.285-3.01,4.2-3.01c0.129,0,0.434,0.016,0.692,0.031c0-0.097-0.016-0.304-0.032-0.383
		c-0.113-0.66-0.547-0.936-1.48-0.936c-0.725,0-1.738,0.146-2.51,0.339c-0.081-0.227-0.129-0.613-0.129-0.902
		c0-0.241,0.032-0.611,0.096-0.771c0.901-0.275,2.012-0.418,2.929-0.418c2.012,0,3.363,0.933,3.363,3.022V179.993z M109.736,178.398
		c-0.193-0.014-0.451-0.031-0.676-0.031c-1.448,0-2.012,0.578-2.012,1.303c0,0.627,0.419,1.062,1.143,1.062
		c0.531,0,1.126-0.258,1.544-0.627V178.398z M116.892,175.6v6.726c-0.226,0.048-0.756,0.079-1.094,0.079
		c-0.273,0-0.901-0.031-1.126-0.079V175.6h-1.368c-0.063-0.194-0.113-0.579-0.113-0.772c0-0.275,0.049-0.611,0.129-0.79l1.352-0.097
		v-0.337c0-2.123,1.207-3.217,3.041-3.217c0.531,0,1.19,0.11,1.673,0.289c0.064,0.193,0.081,0.481,0.081,0.708
		c0,0.242-0.064,0.563-0.161,0.82c-0.354-0.112-0.773-0.178-1.19-0.178c-0.805,0-1.223,0.499-1.223,1.531v0.383h2.944v-0.24
		c0-2.156,1.11-3.313,3.218-3.313c0.499,0,1.207,0.11,1.689,0.289c0.065,0.193,0.081,0.481,0.081,0.708
		c0,0.242-0.064,0.563-0.161,0.82c-0.354-0.112-0.772-0.178-1.19-0.178c-0.933,0-1.416,0.499-1.416,1.577v0.337h2.06
		c0.08,0.275,0.096,0.645,0.096,0.82c0,0.196-0.033,0.548-0.08,0.839h-2.076v6.726c-0.225,0.048-0.756,0.079-1.094,0.079
		c-0.273,0-0.901-0.031-1.126-0.079V175.6H116.892z M128.712,182.485c-2.43,0-3.974-1.56-3.974-4.327
		c0-2.753,1.528-4.376,3.974-4.376s3.975,1.606,3.975,4.358S131.158,182.485,128.712,182.485z M128.712,175.518
		c-1.046,0-1.689,0.709-1.689,2.623s0.643,2.607,1.689,2.607c1.045,0,1.689-0.693,1.689-2.607
		C130.401,176.211,129.757,175.518,128.712,175.518z M138.957,175.647c-0.836,0.13-1.738,0.418-2.542,0.836v5.842
		c-0.225,0.048-0.707,0.079-1.094,0.079s-0.95-0.031-1.126-0.079v-8.385c0.241-0.031,0.644-0.079,0.966-0.079
		c0.273,0,0.708,0.031,0.933,0.079l0.129,1.031c0.595-0.53,1.674-1.11,2.72-1.189c0.032,0.127,0.063,0.596,0.063,0.933
		C139.004,175.036,138.989,175.421,138.957,175.647z M147.272,182.325c-0.258,0.048-0.691,0.079-1.03,0.079
		c-0.305,0-0.66-0.031-0.885-0.079l-0.064-0.741c-0.579,0.563-1.319,0.901-2.188,0.901c-2.397,0-3.427-1.914-3.427-4.215
		c0-2.478,1.11-4.488,3.668-4.488c0.627,0,1.352,0.191,1.706,0.418v-3.606c0.29-0.048,0.772-0.079,1.126-0.079
		c0.434,0,0.772,0.047,1.094,0.079V182.325z M145.052,175.856c-0.387-0.176-0.885-0.272-1.304-0.272
		c-1.303,0-1.786,1.157-1.786,2.557c0,1.177,0.29,2.512,1.592,2.512c0.628,0,1.111-0.259,1.498-0.58V175.856z M155.907,179.993
		c0,0.69,0.017,1.479,0.017,2.332c-0.257,0.063-0.691,0.079-0.966,0.079c-0.306,0-0.707-0.031-0.966-0.079
		c-0.031-0.193-0.063-0.53-0.08-0.741h-0.032c-0.547,0.563-1.48,0.901-2.333,0.901c-1.608,0-2.767-0.998-2.767-2.653
		c0-2.574,2.284-3.01,4.2-3.01c0.127,0,0.434,0.016,0.69,0.031c0-0.097-0.017-0.304-0.032-0.383
		c-0.111-0.66-0.546-0.936-1.479-0.936c-0.725,0-1.738,0.146-2.511,0.339c-0.08-0.227-0.128-0.613-0.128-0.902
		c0-0.241,0.031-0.611,0.096-0.771c0.901-0.275,2.011-0.418,2.929-0.418c2.012,0,3.362,0.933,3.362,3.022V179.993z M153.688,178.398
		c-0.193-0.014-0.451-0.031-0.677-0.031c-1.447,0-2.011,0.578-2.011,1.303c0,0.627,0.418,1.062,1.143,1.062
		c0.531,0,1.126-0.258,1.545-0.627V178.398z M161.021,182.485c-0.772,0-2.093-0.097-3.138-0.497v-11.395
		c0.242-0.048,0.69-0.079,1.078-0.079c0.481,0,0.965,0.047,1.142,0.079v3.719c0.499-0.275,1.256-0.53,1.963-0.53
		c2.511,0,3.411,2.011,3.411,4.021C165.477,180.571,164.029,182.485,161.021,182.485z M161.631,175.584
		c-0.53,0-1.11,0.176-1.528,0.449v4.604c0.241,0.062,0.676,0.11,1.111,0.11c1.415,0,1.978-0.997,1.978-2.814
		C163.191,176.676,162.822,175.584,161.631,175.584z M169.237,182.325c-0.29,0.063-0.885,0.079-1.144,0.079
		c-0.385,0-0.805-0.031-1.077-0.079v-11.731c0.353-0.048,0.788-0.079,1.077-0.079c0.387,0,0.838,0.031,1.144,0.079V182.325z
		 M178.213,178.915h-5.084c0.032,1.045,0.757,1.817,2.156,1.817c0.756,0,1.527-0.095,2.188-0.273c0.097,0.434,0.16,0.918,0.16,1.352
		c0,0.063,0,0.145-0.016,0.321c-0.819,0.241-1.673,0.354-2.51,0.354c-3.057,0-4.328-1.753-4.328-4.312
		c0-2.238,1.256-4.392,3.975-4.392c2.575,0,3.509,1.898,3.509,3.988C178.263,178.062,178.263,178.497,178.213,178.915z
		 M176.041,177.32c0-1.013-0.273-1.866-1.319-1.866c-0.998,0-1.528,0.79-1.593,1.866H176.041z M189.342,174.843
		c0,0.355-0.048,0.741-0.16,1.076c-0.531-0.205-1.225-0.335-1.884-0.335c-1.256,0-2.107,0.803-2.107,2.604
		c0,1.578,0.724,2.495,2.123,2.495c0.725,0,1.416-0.128,1.931-0.306c0.098,0.354,0.146,0.79,0.146,1.127
		c0,0.224,0,0.387-0.017,0.532c-0.645,0.288-1.497,0.448-2.301,0.448c-2.783,0-4.167-1.625-4.167-4.264
		c0-2.734,1.448-4.439,4.263-4.439c0.788,0,1.561,0.158,2.108,0.418C189.325,174.378,189.342,174.601,189.342,174.843z
		 M192.25,173.025c-0.676,0-1.224-0.548-1.224-1.224c0-0.678,0.548-1.224,1.224-1.224c0.675,0,1.223,0.546,1.223,1.224
		C193.473,172.478,192.925,173.025,192.25,173.025z M193.359,182.325c-0.289,0.063-0.885,0.079-1.142,0.079
		c-0.387,0-0.804-0.031-1.078-0.079v-8.385c0.354-0.048,0.788-0.079,1.078-0.079c0.386,0,0.788,0.031,1.142,0.079V182.325z
		 M200.775,182.162c-0.482,0.196-1.062,0.323-1.994,0.323c-1.819,0-2.721-0.884-2.721-2.653V175.6h-1.383
		c-0.065-0.242-0.113-0.643-0.113-0.854c0-0.194,0.048-0.546,0.097-0.709l1.399-0.097v-2.156c0.176-0.03,0.74-0.062,1.11-0.062
		c0.403,0,0.9,0.031,1.109,0.062v2.156h2.318c0.063,0.227,0.097,0.55,0.097,0.724c0,0.194-0.017,0.709-0.082,0.936h-2.333v3.909
		c0,0.806,0.321,1.159,1.111,1.159c0.435,0,0.965-0.063,1.335-0.193c0.064,0.209,0.146,0.611,0.146,0.981
		C200.872,181.649,200.84,181.988,200.775,182.162z M203.555,173.025c-0.677,0-1.224-0.548-1.224-1.224
		c0-0.678,0.547-1.224,1.224-1.224c0.676,0,1.224,0.546,1.224,1.224C204.778,172.478,204.23,173.025,203.555,173.025z
		 M204.667,182.325c-0.292,0.063-0.887,0.079-1.145,0.079c-0.386,0-0.804-0.031-1.078-0.079v-8.385
		c0.354-0.048,0.789-0.079,1.078-0.079c0.388,0,0.788,0.031,1.145,0.079V182.325z M213.722,178.915h-5.083
		c0.03,1.045,0.756,1.817,2.155,1.817c0.757,0,1.527-0.095,2.188-0.273c0.097,0.434,0.161,0.918,0.161,1.352
		c0,0.063,0,0.145-0.017,0.321c-0.821,0.241-1.673,0.354-2.51,0.354c-3.057,0-4.329-1.753-4.329-4.312
		c0-2.238,1.257-4.392,3.976-4.392c2.575,0,3.508,1.898,3.508,3.988C213.771,178.062,213.771,178.497,213.722,178.915z
		 M211.551,177.32c0-1.013-0.274-1.866-1.32-1.866c-0.998,0-1.528,0.79-1.592,1.866H211.551z M217.758,182.485
		c-0.952,0-1.948-0.145-2.721-0.402c-0.049-0.24-0.064-0.548-0.064-0.869c0-0.257,0.064-0.627,0.128-0.852
		c0.74,0.258,1.802,0.434,2.431,0.434c0.87,0,1.367-0.288,1.367-0.885c0-0.517-0.401-0.757-1.465-1.093
		c-1.689-0.53-2.476-1.32-2.476-2.544c0-1.817,1.671-2.492,3.265-2.492c0.74,0,1.562,0.127,2.123,0.306
		c0.066,0.239,0.097,0.576,0.097,0.771c0,0.211-0.063,0.645-0.144,0.919c-0.547-0.163-1.304-0.29-1.931-0.29
		c-0.772,0-1.303,0.193-1.303,0.675c0,0.514,0.594,0.725,1.528,1.032c1.625,0.53,2.396,1.204,2.396,2.476
		C220.989,181.632,219.413,182.485,217.758,182.485z M231.46,182.162c-0.483,0.196-1.062,0.323-1.996,0.323
		c-1.817,0-2.72-0.884-2.72-2.653V175.6h-1.383c-0.065-0.242-0.113-0.643-0.113-0.854c0-0.194,0.048-0.546,0.098-0.709l1.398-0.097
		v-2.156c0.179-0.03,0.741-0.062,1.11-0.062c0.403,0,0.901,0.031,1.111,0.062v2.156h2.316c0.064,0.227,0.097,0.55,0.097,0.724
		c0,0.194-0.017,0.709-0.081,0.936h-2.332v3.909c0,0.806,0.32,1.159,1.109,1.159c0.435,0,0.966-0.063,1.335-0.193
		c0.065,0.209,0.146,0.611,0.146,0.981C231.557,181.649,231.523,181.988,231.46,182.162z M236.442,182.485
		c-2.428,0-3.974-1.56-3.974-4.327c0-2.753,1.529-4.376,3.974-4.376c2.447,0,3.976,1.606,3.976,4.358
		S238.89,182.485,236.442,182.485z M236.442,175.518c-1.044,0-1.688,0.709-1.688,2.623s0.644,2.607,1.688,2.607
		c1.048,0,1.691-0.693,1.691-2.607C238.134,176.211,237.49,175.518,236.442,175.518z"/>
	<text transform="matrix(1 0 0 1 104.2803 200.8818)"><tspan x="0" y="0" style="fill:#1A2A4F; font-family:'FSMatthew-Bold'; font-size:16.0817;">s</tspan><tspan x="7.011" y="0" style="fill:#1A2A4F; font-family:'FSMatthew-Bold'; font-size:16.0817;">t</tspan><tspan x="13.701" y="0" style="fill:#1A2A4F; font-family:'FSMatthew-Bold'; font-size:16.0817;">udy in the UK</tspan></text>
	<text transform="matrix(1 0 0 1 104.0708 223.5938)"><tspan x="0" y="0" style="fill:#C2AD70; font-family:'FSMatthew-Bold'; font-size:10.0373;">(</tspan><tspan x="3.854" y="0" style="fill:#C2AD70; font-family:'FSMatthew-Bold'; font-size:10.0373;">Sou</tspan><tspan x="20.576" y="0" style="fill:#C2AD70; font-family:'FSMatthew-Bold'; font-size:10.0373;">r</tspan><tspan x="24.31" y="0" style="fill:#C2AD70; font-family:'FSMatthew-Bold'; font-size:10.0373;">c</tspan><tspan x="28.887" y="0" style="fill:#C2AD70; font-family:'FSMatthew-Bold'; font-size:10.0373;">e: independent</tspan><tspan x="96.436" y="0" style="fill:#C2AD70; font-family:'FSMatthew-Bold'; font-size:10.0373;">.</tspan><tspan x="98.725" y="0" style="fill:#C2AD70; font-family:'FSMatthew-Bold'; font-size:10.0373;">c</tspan><tspan x="103.301" y="0" style="fill:#C2AD70; font-family:'FSMatthew-Bold'; font-size:10.0373;">o</tspan><tspan x="108.782" y="0" style="fill:#C2AD70; font-family:'FSMatthew-Bold'; font-size:10.0373;">.</tspan><tspan x="111.071" y="0" style="fill:#C2AD70; font-family:'FSMatthew-Bold'; font-size:10.0373;">uk)</tspan></text>
</g>
<g id="Text_Flat">
	<g>
		<path style="fill:#7AC6BA;" d="M114.753,142.972c-3.506,0-6.913-0.099-10.419-0.296v-33.28c2.864-0.198,6.666-0.296,9.234-0.296
			c7.604,0,12.246,2.321,12.246,8.592c0,3.16-1.333,5.53-4.444,6.913c4.148,0.988,6.814,4,6.814,8.049
			C128.184,140.355,122.604,142.972,114.753,142.972z M114.062,114.926c-0.889,0-1.876,0.049-2.667,0.099v7.505h2.765
			c3.209,0,4.74-1.037,4.74-4.049C118.9,115.37,116.481,114.926,114.062,114.926z M114.852,128.06h-3.457v8.987
			c0.938,0.049,2.321,0.099,3.259,0.099c4.395,0,6.518-1.234,6.518-4.543C121.172,129.196,119.345,128.06,114.852,128.06z"/>
		<path style="fill:#7AC6BA;" d="M153.807,142.725h-20.887v-33.379h20.443c0.197,0.543,0.345,1.58,0.345,2.963
			c0,1.086-0.099,2.024-0.345,3.062H139.98v7.209h11.308c0.197,0.543,0.346,1.531,0.346,2.913c0,1.086-0.099,1.975-0.346,3.012
			H139.98v8.197h13.826c0.197,0.543,0.346,1.58,0.346,2.962C154.152,140.75,154.053,141.688,153.807,142.725z"/>
		<path style="fill:#7AC6BA;" d="M179.726,142.725h-20.442v-33.379c0.938-0.148,2.223-0.247,3.457-0.247
			c1.382,0,2.715,0.099,3.604,0.247v27.355h13.381c0.197,0.543,0.346,1.58,0.346,2.962
			C180.071,140.75,179.973,141.688,179.726,142.725z"/>
		<path style="fill:#7AC6BA;" d="M205.003,115.37h-13.134v7.209h11.061c0.197,0.543,0.346,1.531,0.346,2.913
			c0,1.086-0.1,1.975-0.346,3.012h-11.061v14.221c-0.938,0.148-2.024,0.247-3.506,0.247c-1.334,0-2.617-0.099-3.556-0.247v-33.379
			h20.195c0.198,0.543,0.346,1.58,0.346,2.963C205.349,113.395,205.25,114.333,205.003,115.37z"/>
		<path style="fill:#7AC6BA;" d="M236.403,142.725c-0.642,0.148-2.173,0.247-3.802,0.247c-1.284,0-2.766-0.148-3.407-0.247
			l-2.469-6.765h-11.851l-2.321,6.765c-1.086,0.148-2.37,0.247-3.653,0.247c-1.284,0-2.766-0.099-3.506-0.247l11.653-33.379
			c0.69-0.148,2.32-0.247,3.406-0.247c1.334,0,2.914,0.099,3.457,0.247L236.403,142.725z M224.603,130.084l-2.913-9.431
			c-0.346-1.086-0.691-2.469-0.988-4h-0.099c-0.247,1.531-0.642,2.913-0.987,4l-2.766,9.431H224.603z"/>
		<path style="fill:#7AC6BA;" d="M249.435,143.219c-3.604,0-7.555-0.691-10.369-1.975c-0.148-0.691-0.247-1.58-0.247-2.37
			c0-1.185,0.147-2.321,0.493-3.654c2.914,1.185,6.765,1.926,9.777,1.926c3.506,0,5.382-1.629,5.382-3.852
			c0-2.469-1.58-3.506-6.369-4.987c-5.333-1.629-9.234-4.197-9.234-9.925c0-6.123,5.283-9.53,12.246-9.53
			c3.209,0,6.073,0.494,7.999,1.136c0.148,0.543,0.247,1.432,0.247,2.716c0,0.938-0.099,2.37-0.297,3.16
			c-2.469-0.642-5.283-0.988-7.555-0.988c-3.703,0-5.728,1.235-5.728,3.21c0,2.32,1.827,3.259,6.271,4.641
			c5.333,1.679,9.283,4.197,9.283,10.123C261.334,139.318,256.248,143.219,249.435,143.219z"/>
		<path style="fill:#7AC6BA;" d="M287.451,115.37h-8.839v27.355c-0.938,0.148-2.271,0.247-3.506,0.247s-2.567-0.099-3.555-0.247
			V115.37h-8.839c-0.197-0.642-0.346-2.173-0.346-3.012s0.197-2.37,0.395-3.012h24.689c0.197,0.642,0.346,2.173,0.346,3.012
			S287.648,114.728,287.451,115.37z"/>
	</g>
	<g>
		<path style="fill:#1A2A4F;" d="M106.5,154.47c-0.675,0-1.222-0.547-1.222-1.223c0-0.675,0.547-1.222,1.222-1.222
			c0.676,0,1.223,0.547,1.223,1.222C107.722,153.923,107.175,154.47,106.5,154.47z M107.609,163.766
			c-0.29,0.064-0.885,0.08-1.142,0.08c-0.386,0-0.804-0.032-1.078-0.08v-8.379c0.354-0.049,0.788-0.081,1.078-0.081
			c0.386,0,0.788,0.032,1.142,0.081V163.766z"/>
		<path style="fill:#1A2A4F;" d="M112.192,163.927c-0.949,0-1.946-0.146-2.718-0.402c-0.048-0.241-0.064-0.547-0.064-0.868
			c0-0.258,0.064-0.628,0.129-0.853c0.74,0.257,1.801,0.434,2.428,0.434c0.869,0,1.367-0.289,1.367-0.884
			c0-0.515-0.402-0.756-1.463-1.094c-1.689-0.531-2.477-1.319-2.477-2.541c0-1.817,1.673-2.493,3.265-2.493
			c0.74,0,1.56,0.129,2.123,0.306c0.064,0.241,0.097,0.579,0.097,0.771c0,0.21-0.064,0.644-0.145,0.917
			c-0.547-0.16-1.303-0.289-1.93-0.289c-0.772,0-1.303,0.192-1.303,0.675c0,0.515,0.595,0.725,1.528,1.029
			c1.625,0.531,2.396,1.207,2.396,2.478C115.425,163.074,113.849,163.927,112.192,163.927z"/>
		<path style="fill:#1A2A4F;" d="M124.077,163.927c-2.429,0-3.973-1.561-3.973-4.326c0-2.751,1.528-4.375,3.973-4.375
			c2.444,0,3.972,1.608,3.972,4.358S126.521,163.927,124.077,163.927z M124.077,156.963c-1.045,0-1.689,0.707-1.689,2.621
			s0.644,2.605,1.689,2.605s1.688-0.691,1.688-2.605C125.765,157.654,125.122,156.963,124.077,156.963z"/>
		<path style="fill:#1A2A4F;" d="M136.926,163.766c-0.257,0.064-0.804,0.08-1.061,0.08c-0.273,0-0.901-0.032-1.158-0.08v-5.5
			c0-0.869-0.45-1.238-1.174-1.238c-0.579,0-1.239,0.209-1.753,0.53v6.208c-0.37,0.064-0.884,0.08-1.174,0.08
			c-0.257,0-0.724-0.016-1.045-0.08v-8.379c0.209-0.049,0.724-0.081,0.965-0.081c0.225,0,0.692,0.032,0.933,0.081l0.112,0.739
			c0.724-0.53,1.769-0.9,2.702-0.9c1.769,0,2.653,1.094,2.653,2.927V163.766z"/>
		<path style="fill:#1A2A4F;" d="M145.835,160.356h-5.082c0.032,1.045,0.756,1.817,2.155,1.817c0.756,0,1.528-0.097,2.187-0.273
			c0.097,0.434,0.161,0.916,0.161,1.351c0,0.064,0,0.145-0.016,0.321c-0.82,0.241-1.672,0.354-2.509,0.354
			c-3.056,0-4.326-1.753-4.326-4.311c0-2.235,1.254-4.391,3.973-4.391c2.573,0,3.506,1.897,3.506,3.988
			C145.883,159.504,145.883,159.938,145.835,160.356z M143.664,158.764c0-1.013-0.273-1.865-1.319-1.865
			c-0.997,0-1.528,0.788-1.592,1.865H143.664z"/>
		<path style="fill:#1A2A4F;" d="M154.503,163.927c-2.429,0-3.973-1.561-3.973-4.326c0-2.751,1.528-4.375,3.973-4.375
			s3.973,1.608,3.973,4.358S156.947,163.927,154.503,163.927z M154.503,156.963c-1.046,0-1.688,0.707-1.688,2.621
			s0.643,2.605,1.688,2.605c1.045,0,1.688-0.691,1.688-2.605C156.191,157.654,155.548,156.963,154.503,156.963z"/>
		<path style="fill:#1A2A4F;" d="M165.503,153.649c-0.354-0.112-0.771-0.177-1.19-0.177c-0.933,0-1.415,0.499-1.415,1.576v0.338
			h2.059c0.081,0.273,0.097,0.644,0.097,0.82c0,0.192-0.032,0.547-0.08,0.836h-2.075v6.723c-0.225,0.048-0.756,0.08-1.094,0.08
			c-0.273,0-0.9-0.032-1.126-0.08v-6.723h-1.366c-0.064-0.193-0.113-0.579-0.113-0.771c0-0.273,0.049-0.611,0.129-0.788l1.351-0.097
			v-0.241c0-2.155,1.11-3.313,3.217-3.313c0.499,0,1.206,0.112,1.688,0.29c0.064,0.192,0.081,0.482,0.081,0.707
			C165.664,153.07,165.6,153.393,165.503,153.649z"/>
		<path style="fill:#1A2A4F;" d="M175.474,163.604c-0.482,0.193-1.062,0.322-1.994,0.322c-1.817,0-2.719-0.885-2.719-2.654v-4.229
			h-1.383c-0.064-0.241-0.112-0.644-0.112-0.853c0-0.192,0.048-0.547,0.097-0.707l1.398-0.097v-2.155
			c0.178-0.032,0.74-0.064,1.11-0.064c0.401,0,0.9,0.032,1.109,0.064v2.155h2.316c0.063,0.225,0.096,0.547,0.096,0.724
			c0,0.192-0.016,0.708-0.08,0.933h-2.332v3.908c0,0.804,0.321,1.158,1.109,1.158c0.435,0,0.966-0.064,1.335-0.193
			c0.064,0.209,0.146,0.611,0.146,0.981C175.57,163.09,175.538,163.428,175.474,163.604z"/>
		<path style="fill:#1A2A4F;" d="M184.446,158.152v5.613c-0.257,0.064-0.804,0.08-1.062,0.08c-0.273,0-0.9-0.032-1.158-0.08v-5.484
			c0-0.868-0.45-1.254-1.174-1.254c-0.579,0-1.286,0.209-1.801,0.53v6.208c-0.37,0.064-0.885,0.08-1.174,0.08
			c-0.258,0-0.725-0.016-1.046-0.08v-11.725c0.209-0.048,0.676-0.08,1.077-0.08c0.402,0,0.901,0.032,1.143,0.08v3.94
			c0.707-0.45,1.688-0.756,2.541-0.756C183.562,155.226,184.446,156.319,184.446,158.152z"/>
		<path style="fill:#1A2A4F;" d="M193.356,160.356h-5.083c0.032,1.045,0.756,1.817,2.155,1.817c0.756,0,1.528-0.097,2.188-0.273
			c0.097,0.434,0.161,0.916,0.161,1.351c0,0.064,0,0.145-0.017,0.321c-0.82,0.241-1.673,0.354-2.509,0.354
			c-3.056,0-4.326-1.753-4.326-4.311c0-2.235,1.255-4.391,3.973-4.391c2.573,0,3.506,1.897,3.506,3.988
			C193.404,159.504,193.404,159.938,193.356,160.356z M191.185,158.764c0-1.013-0.273-1.865-1.318-1.865
			c-0.997,0-1.528,0.788-1.593,1.865H191.185z"/>
		<path style="fill:#1A2A4F;" d="M203.841,163.604c-0.482,0.193-1.062,0.322-1.994,0.322c-1.817,0-2.719-0.885-2.719-2.654v-4.229
			h-1.383c-0.064-0.241-0.112-0.644-0.112-0.853c0-0.192,0.048-0.547,0.097-0.707l1.398-0.097v-2.155
			c0.178-0.032,0.74-0.064,1.11-0.064c0.401,0,0.9,0.032,1.109,0.064v2.155h2.316c0.063,0.225,0.096,0.547,0.096,0.724
			c0,0.192-0.016,0.708-0.08,0.933h-2.332v3.908c0,0.804,0.321,1.158,1.109,1.158c0.435,0,0.966-0.064,1.335-0.193
			c0.064,0.209,0.146,0.611,0.146,0.981C203.938,163.09,203.905,163.428,203.841,163.604z"/>
		<path style="fill:#1A2A4F;" d="M208.842,163.927c-2.429,0-3.973-1.561-3.973-4.326c0-2.751,1.528-4.375,3.973-4.375
			s3.973,1.608,3.973,4.358S211.286,163.927,208.842,163.927z M208.842,156.963c-1.046,0-1.688,0.707-1.688,2.621
			s0.643,2.605,1.688,2.605c1.045,0,1.688-0.691,1.688-2.605C210.53,157.654,209.887,156.963,208.842,156.963z"/>
		<path style="fill:#1A2A4F;" d="M218.121,163.766c-0.499,0-1.175-0.08-1.576-0.193v3.973c-0.29,0.049-0.772,0.08-1.126,0.08
			c-0.435,0-0.772-0.048-1.094-0.08v-12.143c0.258-0.048,0.691-0.08,1.029-0.08c0.306,0,0.644,0.032,0.868,0.08l0.081,0.691
			c0.515-0.482,1.447-0.868,2.315-0.868c2.3,0,3.329,1.882,3.329,4.037C221.948,161.755,220.662,163.766,218.121,163.766z
			 M218.153,157.027c-0.596,0-1.223,0.241-1.608,0.595v4.262c0.306,0.097,0.9,0.161,1.318,0.161c1.19,0,1.802-0.981,1.802-2.605
			C219.665,157.848,219.086,157.027,218.153,157.027z"/>
		<path style="fill:#1A2A4F;" d="M230.021,163.927c-0.868,0-2.155-0.177-3.04-0.482c-0.032-0.113-0.08-0.402-0.08-0.724
			c0-0.354,0.048-0.725,0.145-1.029c0.74,0.225,1.882,0.369,2.782,0.369c1.142,0,1.882-0.611,1.882-1.704
			c0-0.467-0.129-0.885-0.402-1.158c-0.354-0.354-0.948-0.499-1.817-0.499h-2.106v-5.806h6.079c0.049,0.258,0.081,0.659,0.081,0.949
			c0,0.306-0.049,0.836-0.081,1.029h-4.021v1.994h0.708c1.254,0,2.251,0.225,2.959,0.836c0.627,0.547,0.98,1.384,0.98,2.541
			C234.089,162.704,232.208,163.927,230.021,163.927z"/>
		<path style="fill:#1A2A4F;" d="M252.086,163.766c-0.258,0.064-0.805,0.08-1.062,0.08c-0.273,0-0.901-0.032-1.158-0.08v-5.05
			c0-0.611-0.017-1.062-0.241-1.335c-0.209-0.258-0.531-0.354-0.933-0.354c-0.547,0-1.319,0.241-1.817,0.547
			c0.016,0.273,0.032,0.546,0.032,0.868v5.323c-0.258,0.064-0.805,0.08-1.062,0.08c-0.273,0-0.9-0.032-1.158-0.08v-5.05
			c0-0.611-0.016-1.062-0.241-1.335c-0.209-0.258-0.53-0.354-0.933-0.354c-0.563,0-1.287,0.225-1.785,0.53v6.208
			c-0.37,0.064-0.885,0.08-1.174,0.08c-0.258,0-0.725-0.016-1.046-0.08v-8.379c0.209-0.049,0.724-0.081,0.965-0.081
			c0.226,0,0.691,0.032,0.933,0.081l0.097,0.756c0.708-0.531,1.721-0.917,2.622-0.917c0.933,0,1.753,0.321,2.38,1.014
			c0.868-0.596,1.914-1.014,2.976-1.014c0.788,0,1.592,0.321,1.994,0.805c0.498,0.595,0.611,1.366,0.611,2.541V163.766z"/>
		<path style="fill:#1A2A4F;" d="M257.536,163.927c-2.429,0-3.973-1.561-3.973-4.326c0-2.751,1.528-4.375,3.973-4.375
			s3.973,1.608,3.973,4.358S259.98,163.927,257.536,163.927z M257.536,156.963c-1.046,0-1.688,0.707-1.688,2.621
			s0.643,2.605,1.688,2.605c1.045,0,1.688-0.691,1.688-2.605C259.225,157.654,258.581,156.963,257.536,156.963z"/>
		<path style="fill:#1A2A4F;" d="M265.496,163.927c-0.948,0-1.945-0.146-2.718-0.402c-0.048-0.241-0.064-0.547-0.064-0.868
			c0-0.258,0.064-0.628,0.129-0.853c0.739,0.257,1.801,0.434,2.429,0.434c0.868,0,1.367-0.289,1.367-0.884
			c0-0.515-0.402-0.756-1.464-1.094c-1.688-0.531-2.477-1.319-2.477-2.541c0-1.817,1.672-2.493,3.265-2.493
			c0.739,0,1.56,0.129,2.123,0.306c0.064,0.241,0.097,0.579,0.097,0.771c0,0.21-0.064,0.644-0.146,0.917
			c-0.547-0.16-1.303-0.289-1.93-0.289c-0.771,0-1.303,0.192-1.303,0.675c0,0.515,0.595,0.725,1.528,1.029
			c1.624,0.531,2.396,1.207,2.396,2.478C268.729,163.074,267.153,163.927,265.496,163.927z"/>
		<path style="fill:#1A2A4F;" d="M275.339,163.604c-0.482,0.193-1.062,0.322-1.994,0.322c-1.817,0-2.719-0.885-2.719-2.654v-4.229
			h-1.383c-0.064-0.241-0.112-0.644-0.112-0.853c0-0.192,0.048-0.547,0.097-0.707l1.398-0.097v-2.155
			c0.178-0.032,0.74-0.064,1.11-0.064c0.401,0,0.9,0.032,1.109,0.064v2.155h2.316c0.063,0.225,0.096,0.547,0.096,0.724
			c0,0.192-0.016,0.708-0.08,0.933h-2.332v3.908c0,0.804,0.321,1.158,1.109,1.158c0.435,0,0.966-0.064,1.335-0.193
			c0.064,0.209,0.146,0.611,0.146,0.981C275.436,163.09,275.403,163.428,275.339,163.604z"/>
	</g>
	<path style="fill:#1A2A4F;" d="M111.957,179.993c0,0.69,0.017,1.479,0.017,2.332c-0.258,0.063-0.692,0.079-0.966,0.079
		c-0.306,0-0.708-0.031-0.965-0.079c-0.032-0.193-0.064-0.53-0.081-0.741h-0.032c-0.547,0.563-1.48,0.901-2.333,0.901
		c-1.609,0-2.768-0.998-2.768-2.653c0-2.574,2.285-3.01,4.2-3.01c0.129,0,0.434,0.016,0.692,0.031c0-0.097-0.016-0.304-0.032-0.383
		c-0.113-0.66-0.547-0.936-1.48-0.936c-0.725,0-1.738,0.146-2.51,0.339c-0.081-0.227-0.129-0.613-0.129-0.902
		c0-0.241,0.032-0.611,0.096-0.771c0.901-0.275,2.012-0.418,2.929-0.418c2.012,0,3.363,0.933,3.363,3.022V179.993z M109.736,178.398
		c-0.193-0.014-0.451-0.031-0.676-0.031c-1.448,0-2.012,0.578-2.012,1.303c0,0.627,0.419,1.062,1.143,1.062
		c0.531,0,1.126-0.258,1.544-0.627V178.398z M116.892,175.6v6.726c-0.226,0.048-0.756,0.079-1.094,0.079
		c-0.273,0-0.901-0.031-1.126-0.079V175.6h-1.368c-0.063-0.194-0.113-0.579-0.113-0.772c0-0.275,0.049-0.611,0.129-0.79l1.352-0.097
		v-0.337c0-2.123,1.207-3.217,3.041-3.217c0.531,0,1.19,0.11,1.673,0.289c0.064,0.193,0.081,0.481,0.081,0.708
		c0,0.242-0.064,0.563-0.161,0.82c-0.354-0.112-0.773-0.178-1.19-0.178c-0.805,0-1.223,0.499-1.223,1.531v0.383h2.944v-0.24
		c0-2.156,1.11-3.313,3.218-3.313c0.499,0,1.207,0.11,1.689,0.289c0.065,0.193,0.081,0.481,0.081,0.708
		c0,0.242-0.064,0.563-0.161,0.82c-0.354-0.112-0.772-0.178-1.19-0.178c-0.933,0-1.416,0.499-1.416,1.577v0.337h2.06
		c0.08,0.275,0.096,0.645,0.096,0.82c0,0.196-0.033,0.548-0.08,0.839h-2.076v6.726c-0.225,0.048-0.756,0.079-1.094,0.079
		c-0.273,0-0.901-0.031-1.126-0.079V175.6H116.892z M128.712,182.485c-2.43,0-3.974-1.56-3.974-4.327
		c0-2.753,1.528-4.376,3.974-4.376s3.975,1.606,3.975,4.358S131.158,182.485,128.712,182.485z M128.712,175.518
		c-1.046,0-1.689,0.709-1.689,2.623s0.643,2.607,1.689,2.607c1.045,0,1.689-0.693,1.689-2.607
		C130.401,176.211,129.757,175.518,128.712,175.518z M138.957,175.647c-0.836,0.13-1.738,0.418-2.542,0.836v5.842
		c-0.225,0.048-0.707,0.079-1.094,0.079s-0.95-0.031-1.126-0.079v-8.385c0.241-0.031,0.644-0.079,0.966-0.079
		c0.273,0,0.708,0.031,0.933,0.079l0.129,1.031c0.595-0.53,1.674-1.11,2.72-1.189c0.032,0.127,0.063,0.596,0.063,0.933
		C139.004,175.036,138.989,175.421,138.957,175.647z M147.272,182.325c-0.258,0.048-0.691,0.079-1.03,0.079
		c-0.305,0-0.66-0.031-0.885-0.079l-0.064-0.741c-0.579,0.563-1.319,0.901-2.188,0.901c-2.397,0-3.427-1.914-3.427-4.215
		c0-2.478,1.11-4.488,3.668-4.488c0.627,0,1.352,0.191,1.706,0.418v-3.606c0.29-0.048,0.772-0.079,1.126-0.079
		c0.434,0,0.772,0.047,1.094,0.079V182.325z M145.052,175.856c-0.387-0.176-0.885-0.272-1.304-0.272
		c-1.303,0-1.786,1.157-1.786,2.557c0,1.177,0.29,2.512,1.592,2.512c0.628,0,1.111-0.259,1.498-0.58V175.856z M155.907,179.993
		c0,0.69,0.017,1.479,0.017,2.332c-0.257,0.063-0.691,0.079-0.966,0.079c-0.306,0-0.707-0.031-0.966-0.079
		c-0.031-0.193-0.063-0.53-0.08-0.741h-0.032c-0.547,0.563-1.48,0.901-2.333,0.901c-1.608,0-2.767-0.998-2.767-2.653
		c0-2.574,2.284-3.01,4.2-3.01c0.127,0,0.434,0.016,0.69,0.031c0-0.097-0.017-0.304-0.032-0.383
		c-0.111-0.66-0.546-0.936-1.479-0.936c-0.725,0-1.738,0.146-2.511,0.339c-0.08-0.227-0.128-0.613-0.128-0.902
		c0-0.241,0.031-0.611,0.096-0.771c0.901-0.275,2.011-0.418,2.929-0.418c2.012,0,3.362,0.933,3.362,3.022V179.993z M153.688,178.398
		c-0.193-0.014-0.451-0.031-0.677-0.031c-1.447,0-2.011,0.578-2.011,1.303c0,0.627,0.418,1.062,1.143,1.062
		c0.531,0,1.126-0.258,1.545-0.627V178.398z M161.021,182.485c-0.772,0-2.093-0.097-3.138-0.497v-11.395
		c0.242-0.048,0.69-0.079,1.078-0.079c0.481,0,0.965,0.047,1.142,0.079v3.719c0.499-0.275,1.256-0.53,1.963-0.53
		c2.511,0,3.411,2.011,3.411,4.021C165.477,180.571,164.029,182.485,161.021,182.485z M161.631,175.584
		c-0.53,0-1.11,0.176-1.528,0.449v4.604c0.241,0.062,0.676,0.11,1.111,0.11c1.415,0,1.978-0.997,1.978-2.814
		C163.191,176.676,162.822,175.584,161.631,175.584z M169.237,182.325c-0.29,0.063-0.885,0.079-1.144,0.079
		c-0.385,0-0.805-0.031-1.077-0.079v-11.731c0.353-0.048,0.788-0.079,1.077-0.079c0.387,0,0.838,0.031,1.144,0.079V182.325z
		 M178.213,178.915h-5.084c0.032,1.045,0.757,1.817,2.156,1.817c0.756,0,1.527-0.095,2.188-0.273c0.097,0.434,0.16,0.918,0.16,1.352
		c0,0.063,0,0.145-0.016,0.321c-0.819,0.241-1.673,0.354-2.51,0.354c-3.057,0-4.328-1.753-4.328-4.312
		c0-2.238,1.256-4.392,3.975-4.392c2.575,0,3.509,1.898,3.509,3.988C178.263,178.062,178.263,178.497,178.213,178.915z
		 M176.041,177.32c0-1.013-0.273-1.866-1.319-1.866c-0.998,0-1.528,0.79-1.593,1.866H176.041z M189.342,174.843
		c0,0.355-0.048,0.741-0.16,1.076c-0.531-0.205-1.225-0.335-1.884-0.335c-1.256,0-2.107,0.803-2.107,2.604
		c0,1.578,0.724,2.495,2.123,2.495c0.725,0,1.416-0.128,1.931-0.306c0.098,0.354,0.146,0.79,0.146,1.127
		c0,0.224,0,0.387-0.017,0.532c-0.645,0.288-1.497,0.448-2.301,0.448c-2.783,0-4.167-1.625-4.167-4.264
		c0-2.734,1.448-4.439,4.263-4.439c0.788,0,1.561,0.158,2.108,0.418C189.325,174.378,189.342,174.601,189.342,174.843z
		 M192.25,173.025c-0.676,0-1.224-0.548-1.224-1.224c0-0.678,0.548-1.224,1.224-1.224c0.675,0,1.223,0.546,1.223,1.224
		C193.473,172.478,192.925,173.025,192.25,173.025z M193.359,182.325c-0.289,0.063-0.885,0.079-1.142,0.079
		c-0.387,0-0.804-0.031-1.078-0.079v-8.385c0.354-0.048,0.788-0.079,1.078-0.079c0.386,0,0.788,0.031,1.142,0.079V182.325z
		 M200.775,182.162c-0.482,0.196-1.062,0.323-1.994,0.323c-1.819,0-2.721-0.884-2.721-2.653V175.6h-1.383
		c-0.065-0.242-0.113-0.643-0.113-0.854c0-0.194,0.048-0.546,0.097-0.709l1.399-0.097v-2.156c0.176-0.03,0.74-0.062,1.11-0.062
		c0.403,0,0.9,0.031,1.109,0.062v2.156h2.318c0.063,0.227,0.097,0.55,0.097,0.724c0,0.194-0.017,0.709-0.082,0.936h-2.333v3.909
		c0,0.806,0.321,1.159,1.111,1.159c0.435,0,0.965-0.063,1.335-0.193c0.064,0.209,0.146,0.611,0.146,0.981
		C200.872,181.649,200.84,181.988,200.775,182.162z M203.555,173.025c-0.677,0-1.224-0.548-1.224-1.224
		c0-0.678,0.547-1.224,1.224-1.224c0.676,0,1.224,0.546,1.224,1.224C204.778,172.478,204.23,173.025,203.555,173.025z
		 M204.667,182.325c-0.292,0.063-0.887,0.079-1.145,0.079c-0.386,0-0.804-0.031-1.078-0.079v-8.385
		c0.354-0.048,0.789-0.079,1.078-0.079c0.388,0,0.788,0.031,1.145,0.079V182.325z M213.722,178.915h-5.083
		c0.03,1.045,0.756,1.817,2.155,1.817c0.757,0,1.527-0.095,2.188-0.273c0.097,0.434,0.161,0.918,0.161,1.352
		c0,0.063,0,0.145-0.017,0.321c-0.821,0.241-1.673,0.354-2.51,0.354c-3.057,0-4.329-1.753-4.329-4.312
		c0-2.238,1.257-4.392,3.976-4.392c2.575,0,3.508,1.898,3.508,3.988C213.771,178.062,213.771,178.497,213.722,178.915z
		 M211.551,177.32c0-1.013-0.274-1.866-1.32-1.866c-0.998,0-1.528,0.79-1.592,1.866H211.551z M217.758,182.485
		c-0.952,0-1.948-0.145-2.721-0.402c-0.049-0.24-0.064-0.548-0.064-0.869c0-0.257,0.064-0.627,0.128-0.852
		c0.74,0.258,1.802,0.434,2.431,0.434c0.87,0,1.367-0.288,1.367-0.885c0-0.517-0.401-0.757-1.465-1.093
		c-1.689-0.53-2.476-1.32-2.476-2.544c0-1.817,1.671-2.492,3.265-2.492c0.74,0,1.562,0.127,2.123,0.306
		c0.066,0.239,0.097,0.576,0.097,0.771c0,0.211-0.063,0.645-0.144,0.919c-0.547-0.163-1.304-0.29-1.931-0.29
		c-0.772,0-1.303,0.193-1.303,0.675c0,0.514,0.594,0.725,1.528,1.032c1.625,0.53,2.396,1.204,2.396,2.476
		C220.989,181.632,219.413,182.485,217.758,182.485z M231.46,182.162c-0.483,0.196-1.062,0.323-1.996,0.323
		c-1.817,0-2.72-0.884-2.72-2.653V175.6h-1.383c-0.065-0.242-0.113-0.643-0.113-0.854c0-0.194,0.048-0.546,0.098-0.709l1.398-0.097
		v-2.156c0.179-0.03,0.741-0.062,1.11-0.062c0.403,0,0.901,0.031,1.111,0.062v2.156h2.316c0.064,0.227,0.097,0.55,0.097,0.724
		c0,0.194-0.017,0.709-0.081,0.936h-2.332v3.909c0,0.806,0.32,1.159,1.109,1.159c0.435,0,0.966-0.063,1.335-0.193
		c0.065,0.209,0.146,0.611,0.146,0.981C231.557,181.649,231.523,181.988,231.46,182.162z M236.442,182.485
		c-2.428,0-3.974-1.56-3.974-4.327c0-2.753,1.529-4.376,3.974-4.376c2.447,0,3.976,1.606,3.976,4.358
		S238.89,182.485,236.442,182.485z M236.442,175.518c-1.044,0-1.688,0.709-1.688,2.623s0.644,2.607,1.688,2.607
		c1.048,0,1.691-0.693,1.691-2.607C238.134,176.211,237.49,175.518,236.442,175.518z"/>
	<g>
		<path style="fill:#1A2A4F;" d="M107.754,201.043c-0.949,0-1.946-0.146-2.718-0.402c-0.048-0.241-0.064-0.547-0.064-0.868
			c0-0.258,0.064-0.628,0.129-0.853c0.74,0.257,1.801,0.434,2.428,0.434c0.869,0,1.367-0.289,1.367-0.884
			c0-0.515-0.402-0.756-1.463-1.094c-1.689-0.531-2.477-1.319-2.477-2.541c0-1.817,1.673-2.493,3.265-2.493
			c0.74,0,1.56,0.129,2.123,0.306c0.064,0.241,0.097,0.579,0.097,0.772c0,0.209-0.064,0.643-0.145,0.916
			c-0.547-0.16-1.303-0.289-1.93-0.289c-0.772,0-1.303,0.192-1.303,0.675c0,0.515,0.595,0.725,1.528,1.029
			c1.625,0.531,2.396,1.207,2.396,2.478C110.987,200.19,109.411,201.043,107.754,201.043z"/>
		<path style="fill:#1A2A4F;" d="M117.596,200.721c-0.482,0.193-1.061,0.322-1.994,0.322c-1.817,0-2.718-0.885-2.718-2.654v-4.229
			H111.5c-0.064-0.241-0.112-0.644-0.112-0.853c0-0.192,0.048-0.547,0.096-0.707l1.399-0.097v-2.155
			c0.177-0.032,0.74-0.064,1.109-0.064c0.402,0,0.901,0.032,1.11,0.064v2.155h2.316c0.064,0.225,0.097,0.547,0.097,0.724
			c0,0.193-0.016,0.707-0.081,0.933h-2.332v3.908c0,0.804,0.322,1.158,1.11,1.158c0.434,0,0.965-0.064,1.335-0.193
			c0.064,0.209,0.145,0.611,0.145,0.981C117.692,200.206,117.66,200.544,117.596,200.721z"/>
		<path style="fill:#1A2A4F;" d="M126.151,197.649c0,2.396-1.125,3.394-3.635,3.394c-2.444,0-3.57-0.997-3.57-3.394v-5.146
			c0.225-0.032,0.66-0.081,1.094-0.081c0.386,0,0.869,0.032,1.126,0.081v5.13c0,1.255,0.37,1.705,1.383,1.705
			c1.029,0,1.383-0.45,1.383-1.705v-5.13c0.225-0.049,0.724-0.081,1.125-0.081c0.402,0,0.933,0.049,1.094,0.081V197.649z"/>
		<path style="fill:#1A2A4F;" d="M135.222,200.882c-0.258,0.048-0.692,0.08-1.029,0.08c-0.306,0-0.66-0.032-0.885-0.08l-0.064-0.74
			c-0.579,0.563-1.319,0.901-2.187,0.901c-2.396,0-3.426-1.914-3.426-4.214c0-2.477,1.11-4.487,3.667-4.487
			c0.627,0,1.351,0.193,1.705,0.418v-3.603c0.29-0.048,0.772-0.08,1.126-0.08c0.434,0,0.772,0.048,1.094,0.08V200.882z
			 M133.002,194.417c-0.386-0.178-0.884-0.273-1.303-0.273c-1.303,0-1.785,1.157-1.785,2.557c0,1.174,0.29,2.509,1.592,2.509
			c0.627,0,1.11-0.257,1.496-0.579V194.417z"/>
		<path style="fill:#1A2A4F;" d="M144.307,199.402c0,1.223-0.064,2.573-0.691,3.635c-0.756,1.271-2.026,1.801-3.458,1.801
			c-0.804,0-1.721-0.112-2.461-0.338c-0.048-0.145-0.081-0.53-0.081-0.771c0-0.193,0.064-0.659,0.113-0.853
			c0.644,0.177,1.512,0.29,2.107,0.29c0.965,0,1.544-0.338,1.897-0.981c0.322-0.579,0.37-1.223,0.37-1.85
			c-0.563,0.435-1.303,0.708-1.994,0.708c-2.107,0-2.959-1.094-2.959-3.169v-5.371c0.257-0.064,0.804-0.081,1.062-0.081
			c0.273,0,0.901,0.032,1.158,0.081v5.243c0,1.029,0.37,1.479,1.287,1.479c0.579,0,1.093-0.241,1.431-0.563v-6.159
			c0.37-0.064,0.885-0.081,1.174-0.081c0.258,0,0.724,0.017,1.045,0.081V199.402z"/>
		<path style="fill:#1A2A4F;" d="M151.142,191.586c-0.676,0-1.223-0.547-1.223-1.223c0-0.675,0.547-1.222,1.223-1.222
			c0.675,0,1.222,0.547,1.222,1.222C152.363,191.039,151.816,191.586,151.142,191.586z M152.251,200.882
			c-0.289,0.064-0.885,0.08-1.142,0.08c-0.386,0-0.804-0.032-1.078-0.08v-8.379c0.354-0.049,0.788-0.081,1.078-0.081
			c0.386,0,0.788,0.032,1.142,0.081V200.882z"/>
		<path style="fill:#1A2A4F;" d="M161.724,200.882c-0.258,0.064-0.805,0.08-1.062,0.08c-0.273,0-0.9-0.032-1.158-0.08v-5.5
			c0-0.869-0.45-1.238-1.174-1.238c-0.579,0-1.238,0.209-1.753,0.53v6.208c-0.37,0.064-0.885,0.08-1.174,0.08
			c-0.258,0-0.725-0.016-1.046-0.08v-8.379c0.209-0.049,0.724-0.081,0.965-0.081c0.226,0,0.691,0.032,0.933,0.081l0.113,0.739
			c0.724-0.53,1.769-0.9,2.701-0.9c1.77,0,2.654,1.094,2.654,2.927V200.882z"/>
		<path style="fill:#1A2A4F;" d="M172.61,200.721c-0.482,0.193-1.062,0.322-1.994,0.322c-1.817,0-2.719-0.885-2.719-2.654v-4.229
			h-1.383c-0.064-0.241-0.112-0.644-0.112-0.853c0-0.192,0.048-0.547,0.097-0.707l1.398-0.097v-2.155
			c0.178-0.032,0.74-0.064,1.11-0.064c0.401,0,0.9,0.032,1.109,0.064v2.155h2.316c0.063,0.225,0.096,0.547,0.096,0.724
			c0,0.193-0.016,0.707-0.08,0.933h-2.332v3.908c0,0.804,0.321,1.158,1.109,1.158c0.435,0,0.966-0.064,1.335-0.193
			c0.064,0.209,0.146,0.611,0.146,0.981C172.707,200.206,172.675,200.544,172.61,200.721z"/>
		<path style="fill:#1A2A4F;" d="M181.584,195.269v5.613c-0.257,0.064-0.804,0.08-1.062,0.08c-0.273,0-0.9-0.032-1.158-0.08v-5.484
			c0-0.868-0.45-1.254-1.174-1.254c-0.579,0-1.286,0.209-1.801,0.53v6.208c-0.37,0.064-0.885,0.08-1.174,0.08
			c-0.258,0-0.725-0.016-1.046-0.08v-11.725c0.209-0.048,0.676-0.08,1.077-0.08c0.402,0,0.901,0.032,1.143,0.08v3.94
			c0.707-0.45,1.688-0.756,2.541-0.756C180.699,192.342,181.584,193.436,181.584,195.269z"/>
		<path style="fill:#1A2A4F;" d="M190.493,197.473h-5.083c0.032,1.045,0.756,1.817,2.155,1.817c0.756,0,1.528-0.097,2.188-0.273
			c0.097,0.434,0.161,0.916,0.161,1.351c0,0.064,0,0.145-0.017,0.321c-0.82,0.241-1.673,0.354-2.509,0.354
			c-3.056,0-4.326-1.753-4.326-4.311c0-2.235,1.255-4.391,3.973-4.391c2.573,0,3.506,1.897,3.506,3.988
			C190.541,196.62,190.541,197.054,190.493,197.473z M188.321,195.88c0-1.013-0.273-1.865-1.318-1.865
			c-0.997,0-1.528,0.788-1.593,1.865H188.321z"/>
		<path style="fill:#1A2A4F;" d="M204.081,196.749c0,2.766-1.062,4.294-4.149,4.294c-3.12,0-4.101-1.528-4.101-4.294v-6.739
			c0.321-0.048,0.739-0.08,1.126-0.08c0.45,0,0.852,0.032,1.174,0.08v6.899c0,1.479,0.418,2.316,1.817,2.316
			s1.882-0.837,1.882-2.316v-6.899c0.289-0.048,0.771-0.08,1.142-0.08c0.354,0,0.836,0.032,1.109,0.08V196.749z"/>
		<path style="fill:#1A2A4F;" d="M214.985,200.882c-0.289,0.048-0.804,0.08-1.367,0.08c-0.401,0-0.98-0.032-1.318-0.08l-2.814-4.358
			l-0.74,0.885v3.474c-0.306,0.048-0.675,0.08-1.158,0.08c-0.434,0-0.836-0.032-1.142-0.08V190.01
			c0.306-0.048,0.756-0.08,1.158-0.08c0.45,0,0.853,0.032,1.142,0.08v4.681l1.866-2.188c0.819-0.965,1.271-1.657,1.447-2.493
			c0.321-0.048,0.771-0.08,1.126-0.08c0.289,0,0.788,0.032,1.125,0.08c-0.241,1.271-0.916,2.381-1.881,3.49l-1.287,1.479
			L214.985,200.882z"/>
	</g>
	<g>
		<path style="fill:#C2AD70;" d="M106.681,224.979c-1.285-1.185-2.068-2.631-2.068-4.357c0-1.757,0.813-3.243,2.068-4.357
			c0.301,0.06,0.653,0.341,0.793,0.542c-0.984,1.044-1.506,2.409-1.506,3.815c0,1.405,0.562,2.73,1.506,3.815
			C107.334,224.638,106.982,224.919,106.681,224.979z"/>
		<path style="fill:#C2AD70;" d="M110.525,223.694c-0.733,0-1.536-0.141-2.108-0.401c-0.03-0.141-0.05-0.321-0.05-0.482
			c0-0.241,0.03-0.472,0.1-0.743c0.593,0.241,1.375,0.392,1.988,0.392c0.713,0,1.094-0.331,1.094-0.783
			c0-0.502-0.321-0.713-1.295-1.014c-1.084-0.331-1.877-0.854-1.877-2.019c0-1.245,1.075-1.938,2.49-1.938
			c0.652,0,1.235,0.101,1.626,0.231c0.03,0.11,0.05,0.291,0.05,0.552c0,0.19-0.02,0.481-0.061,0.643
			c-0.502-0.131-1.074-0.201-1.536-0.201c-0.753,0-1.165,0.251-1.165,0.653c0,0.472,0.372,0.662,1.275,0.943
			c1.084,0.342,1.887,0.854,1.887,2.059C112.945,222.901,111.911,223.694,110.525,223.694z"/>
		<path style="fill:#C2AD70;" d="M116.146,223.694c-1.516,0-2.48-0.974-2.48-2.701c0-1.717,0.954-2.73,2.48-2.73
			c1.526,0,2.48,1.004,2.48,2.721S117.672,223.694,116.146,223.694z M116.146,219.347c-0.653,0-1.054,0.441-1.054,1.637
			c0,1.194,0.401,1.626,1.054,1.626c0.652,0,1.054-0.432,1.054-1.626C117.201,219.778,116.799,219.347,116.146,219.347z"/>
		<path style="fill:#C2AD70;" d="M124.046,221.575c0,1.496-0.703,2.119-2.269,2.119c-1.526,0-2.229-0.623-2.229-2.119v-3.213
			c0.141-0.02,0.412-0.05,0.683-0.05c0.241,0,0.542,0.021,0.703,0.05v3.203c0,0.783,0.231,1.064,0.864,1.064
			c0.643,0,0.863-0.281,0.863-1.064v-3.203c0.141-0.029,0.452-0.05,0.703-0.05c0.251,0,0.583,0.03,0.683,0.05V221.575z"/>
		<path style="fill:#C2AD70;" d="M128.241,219.427c-0.522,0.081-1.084,0.262-1.586,0.522v3.645c-0.141,0.03-0.442,0.05-0.683,0.05
			c-0.241,0-0.592-0.02-0.703-0.05v-5.231c0.15-0.02,0.401-0.05,0.603-0.05c0.17,0,0.441,0.021,0.582,0.05l0.081,0.643
			c0.372-0.331,1.044-0.692,1.697-0.742c0.02,0.08,0.04,0.371,0.04,0.582C128.271,219.046,128.262,219.286,128.241,219.427z"/>
		<path style="fill:#C2AD70;" d="M132.718,218.925c0,0.221-0.03,0.462-0.101,0.673c-0.331-0.131-0.763-0.211-1.174-0.211
			c-0.783,0-1.315,0.502-1.315,1.627c0,0.983,0.452,1.556,1.325,1.556c0.452,0,0.884-0.08,1.205-0.19
			c0.06,0.221,0.09,0.492,0.09,0.703c0,0.141,0,0.24-0.01,0.331c-0.401,0.181-0.934,0.281-1.436,0.281
			c-1.737,0-2.601-1.015-2.601-2.661c0-1.707,0.904-2.771,2.661-2.771c0.492,0,0.974,0.1,1.315,0.261
			C132.708,218.634,132.718,218.774,132.718,218.925z"/>
		<path style="fill:#C2AD70;" d="M137.917,221.465h-3.173c0.02,0.653,0.472,1.135,1.345,1.135c0.472,0,0.954-0.061,1.366-0.171
			c0.06,0.271,0.101,0.572,0.101,0.844c0,0.04,0,0.091-0.01,0.201c-0.512,0.15-1.044,0.221-1.566,0.221
			c-1.908,0-2.701-1.095-2.701-2.691c0-1.396,0.783-2.74,2.48-2.74c1.606,0,2.189,1.185,2.189,2.489
			C137.948,220.933,137.948,221.204,137.917,221.465z M136.562,220.472c0-0.633-0.171-1.165-0.823-1.165
			c-0.623,0-0.954,0.492-0.994,1.165H136.562z"/>
		<path style="fill:#C2AD70;" d="M139.522,219.748c-0.401,0-0.733-0.331-0.733-0.732c0-0.402,0.332-0.733,0.733-0.733
			c0.402,0,0.733,0.331,0.733,0.733C140.255,219.417,139.924,219.748,139.522,219.748z M139.522,223.754
			c-0.401,0-0.733-0.331-0.733-0.732s0.332-0.733,0.733-0.733c0.402,0,0.733,0.332,0.733,0.733S139.924,223.754,139.522,223.754z"/>
		<path style="fill:#C2AD70;" d="M144.42,217.79c-0.422,0-0.763-0.341-0.763-0.763s0.341-0.763,0.763-0.763
			c0.421,0,0.763,0.341,0.763,0.763S144.842,217.79,144.42,217.79z M145.113,223.594c-0.181,0.04-0.552,0.05-0.712,0.05
			c-0.241,0-0.502-0.02-0.673-0.05v-5.231c0.221-0.029,0.492-0.05,0.673-0.05c0.241,0,0.492,0.021,0.712,0.05V223.594z"/>
		<path style="fill:#C2AD70;" d="M151.025,223.594c-0.16,0.04-0.502,0.05-0.663,0.05c-0.17,0-0.562-0.02-0.723-0.05v-3.434
			c0-0.542-0.281-0.773-0.733-0.773c-0.361,0-0.773,0.131-1.095,0.331v3.876c-0.23,0.04-0.552,0.05-0.733,0.05
			c-0.161,0-0.452-0.01-0.652-0.05v-5.231c0.13-0.029,0.452-0.05,0.603-0.05c0.14,0,0.432,0.021,0.582,0.05l0.07,0.462
			c0.452-0.331,1.104-0.562,1.687-0.562c1.104,0,1.656,0.683,1.656,1.827V223.594z"/>
		<path style="fill:#C2AD70;" d="M156.687,223.594c-0.161,0.03-0.432,0.05-0.643,0.05c-0.191,0-0.412-0.02-0.553-0.05l-0.04-0.462
			c-0.361,0.352-0.823,0.562-1.365,0.562c-1.496,0-2.139-1.195-2.139-2.631c0-1.546,0.692-2.801,2.289-2.801
			c0.392,0,0.844,0.12,1.064,0.261v-2.249c0.181-0.03,0.481-0.05,0.703-0.05c0.271,0,0.481,0.029,0.683,0.05V223.594z
			 M155.301,219.558c-0.241-0.11-0.553-0.171-0.813-0.171c-0.813,0-1.114,0.723-1.114,1.597c0,0.732,0.181,1.566,0.994,1.566
			c0.392,0,0.692-0.161,0.934-0.361V219.558z"/>
		<path style="fill:#C2AD70;" d="M162.247,221.465h-3.173c0.021,0.653,0.472,1.135,1.346,1.135c0.472,0,0.953-0.061,1.365-0.171
			c0.061,0.271,0.101,0.572,0.101,0.844c0,0.04,0,0.091-0.01,0.201c-0.513,0.15-1.045,0.221-1.566,0.221
			c-1.908,0-2.701-1.095-2.701-2.691c0-1.396,0.783-2.74,2.479-2.74c1.606,0,2.189,1.185,2.189,2.489
			C162.277,220.933,162.277,221.204,162.247,221.465z M160.892,220.472c0-0.633-0.171-1.165-0.823-1.165
			c-0.623,0-0.954,0.492-0.994,1.165H160.892z"/>
		<path style="fill:#C2AD70;" d="M165.589,223.594c-0.312,0-0.733-0.05-0.984-0.12v2.479c-0.181,0.03-0.481,0.051-0.702,0.051
			c-0.271,0-0.482-0.03-0.684-0.051v-7.58c0.161-0.03,0.433-0.051,0.643-0.051c0.191,0,0.402,0.021,0.543,0.051l0.05,0.432
			c0.321-0.302,0.903-0.542,1.446-0.542c1.436,0,2.078,1.175,2.078,2.52C167.979,222.339,167.175,223.594,165.589,223.594z
			 M165.608,219.387c-0.371,0-0.763,0.15-1.004,0.372v2.66c0.191,0.061,0.562,0.101,0.823,0.101c0.743,0,1.125-0.612,1.125-1.627
			C166.553,219.898,166.191,219.387,165.608,219.387z"/>
		<path style="fill:#C2AD70;" d="M173.258,221.465h-3.173c0.021,0.653,0.472,1.135,1.346,1.135c0.472,0,0.953-0.061,1.365-0.171
			c0.061,0.271,0.101,0.572,0.101,0.844c0,0.04,0,0.091-0.01,0.201c-0.513,0.15-1.045,0.221-1.566,0.221
			c-1.908,0-2.701-1.095-2.701-2.691c0-1.396,0.783-2.74,2.479-2.74c1.606,0,2.189,1.185,2.189,2.489
			C173.288,220.933,173.288,221.204,173.258,221.465z M171.902,220.472c0-0.633-0.171-1.165-0.823-1.165
			c-0.623,0-0.954,0.492-0.994,1.165H171.902z"/>
		<path style="fill:#C2AD70;" d="M178.828,223.594c-0.16,0.04-0.502,0.05-0.662,0.05c-0.171,0-0.562-0.02-0.724-0.05v-3.434
			c0-0.542-0.28-0.773-0.732-0.773c-0.361,0-0.773,0.131-1.095,0.331v3.876c-0.23,0.04-0.552,0.05-0.732,0.05
			c-0.161,0-0.452-0.01-0.653-0.05v-5.231c0.131-0.029,0.452-0.05,0.603-0.05c0.141,0,0.432,0.021,0.583,0.05l0.07,0.462
			c0.451-0.331,1.104-0.562,1.687-0.562c1.104,0,1.656,0.683,1.656,1.827V223.594z"/>
		<path style="fill:#C2AD70;" d="M184.489,223.594c-0.161,0.03-0.432,0.05-0.643,0.05c-0.191,0-0.412-0.02-0.553-0.05l-0.04-0.462
			c-0.361,0.352-0.823,0.562-1.365,0.562c-1.496,0-2.139-1.195-2.139-2.631c0-1.546,0.692-2.801,2.289-2.801
			c0.392,0,0.844,0.12,1.064,0.261v-2.249c0.181-0.03,0.481-0.05,0.703-0.05c0.271,0,0.481,0.029,0.683,0.05V223.594z
			 M183.104,219.558c-0.241-0.11-0.553-0.171-0.813-0.171c-0.813,0-1.114,0.723-1.114,1.597c0,0.732,0.181,1.566,0.994,1.566
			c0.392,0,0.692-0.161,0.934-0.361V219.558z"/>
		<path style="fill:#C2AD70;" d="M190.05,221.465h-3.173c0.021,0.653,0.472,1.135,1.346,1.135c0.472,0,0.953-0.061,1.365-0.171
			c0.061,0.271,0.101,0.572,0.101,0.844c0,0.04,0,0.091-0.01,0.201c-0.513,0.15-1.045,0.221-1.566,0.221
			c-1.908,0-2.701-1.095-2.701-2.691c0-1.396,0.783-2.74,2.479-2.74c1.606,0,2.189,1.185,2.189,2.489
			C190.08,220.933,190.08,221.204,190.05,221.465z M188.694,220.472c0-0.633-0.171-1.165-0.823-1.165
			c-0.623,0-0.954,0.492-0.994,1.165H188.694z"/>
		<path style="fill:#C2AD70;" d="M195.62,223.594c-0.16,0.04-0.502,0.05-0.662,0.05c-0.171,0-0.562-0.02-0.724-0.05v-3.434
			c0-0.542-0.28-0.773-0.732-0.773c-0.361,0-0.773,0.131-1.095,0.331v3.876c-0.23,0.04-0.552,0.05-0.732,0.05
			c-0.161,0-0.452-0.01-0.653-0.05v-5.231c0.131-0.029,0.452-0.05,0.603-0.05c0.141,0,0.432,0.021,0.583,0.05l0.07,0.462
			c0.451-0.331,1.104-0.562,1.687-0.562c1.104,0,1.656,0.683,1.656,1.827V223.594z"/>
		<path style="fill:#C2AD70;" d="M200.156,223.493c-0.301,0.121-0.662,0.201-1.245,0.201c-1.134,0-1.696-0.553-1.696-1.657v-2.641
			h-0.863c-0.04-0.15-0.07-0.401-0.07-0.531c0-0.121,0.03-0.342,0.06-0.442l0.874-0.061v-1.345c0.11-0.021,0.462-0.04,0.692-0.04
			c0.251,0,0.562,0.02,0.693,0.04v1.345h1.445c0.04,0.141,0.061,0.342,0.061,0.452c0,0.121-0.01,0.441-0.051,0.582h-1.455v2.44
			c0,0.502,0.2,0.723,0.692,0.723c0.271,0,0.603-0.04,0.833-0.12c0.041,0.13,0.091,0.381,0.091,0.612
			C200.217,223.172,200.196,223.383,200.156,223.493z"/>
		<path style="fill:#C2AD70;" d="M201.762,223.754c-0.401,0-0.732-0.331-0.732-0.732s0.331-0.733,0.732-0.733
			s0.733,0.332,0.733,0.733S202.163,223.754,201.762,223.754z"/>
		<path style="fill:#C2AD70;" d="M207.133,218.925c0,0.221-0.029,0.462-0.1,0.673c-0.332-0.131-0.764-0.211-1.175-0.211
			c-0.783,0-1.315,0.502-1.315,1.627c0,0.983,0.452,1.556,1.325,1.556c0.452,0,0.884-0.08,1.205-0.19
			c0.06,0.221,0.09,0.492,0.09,0.703c0,0.141,0,0.24-0.01,0.331c-0.401,0.181-0.934,0.281-1.436,0.281
			c-1.737,0-2.601-1.015-2.601-2.661c0-1.707,0.903-2.771,2.661-2.771c0.491,0,0.974,0.1,1.314,0.261
			C207.123,218.634,207.133,218.774,207.133,218.925z"/>
		<path style="fill:#C2AD70;" d="M210.173,223.694c-1.516,0-2.479-0.974-2.479-2.701c0-1.717,0.954-2.73,2.479-2.73
			c1.526,0,2.48,1.004,2.48,2.721S211.699,223.694,210.173,223.694z M210.173,219.347c-0.652,0-1.054,0.441-1.054,1.637
			c0,1.194,0.401,1.626,1.054,1.626c0.653,0,1.055-0.432,1.055-1.626C211.228,219.778,210.826,219.347,210.173,219.347z"/>
		<path style="fill:#C2AD70;" d="M214.107,223.754c-0.401,0-0.732-0.331-0.732-0.732s0.331-0.733,0.732-0.733
			s0.733,0.332,0.733,0.733S214.509,223.754,214.107,223.754z"/>
		<path style="fill:#C2AD70;" d="M220.242,221.575c0,1.496-0.703,2.119-2.27,2.119c-1.525,0-2.229-0.623-2.229-2.119v-3.213
			c0.141-0.02,0.411-0.05,0.683-0.05c0.241,0,0.542,0.021,0.703,0.05v3.203c0,0.783,0.23,1.064,0.863,1.064
			c0.643,0,0.863-0.281,0.863-1.064v-3.203c0.141-0.029,0.452-0.05,0.703-0.05s0.582,0.03,0.683,0.05V221.575z"/>
		<path style="fill:#C2AD70;" d="M226.133,223.594c-0.171,0.03-0.521,0.05-0.753,0.05c-0.2,0-0.612-0.02-0.763-0.05l-1.336-2.249
			l-0.432,0.412v1.837c-0.181,0.04-0.552,0.05-0.713,0.05c-0.24,0-0.502-0.02-0.673-0.05v-7.319c0.222-0.03,0.492-0.05,0.673-0.05
			c0.241,0,0.492,0.02,0.713,0.05v4.016l1.074-1.044c0.291-0.291,0.492-0.622,0.532-0.884c0.171-0.029,0.492-0.05,0.673-0.05
			c0.211,0,0.502,0.021,0.643,0.05c-0.04,0.522-0.301,0.994-0.873,1.566l-0.684,0.663L226.133,223.594z"/>
		<path style="fill:#C2AD70;" d="M228.22,220.622c0-1.406-0.521-2.771-1.506-3.815c0.141-0.201,0.492-0.482,0.793-0.542
			c1.255,1.114,2.068,2.601,2.068,4.357c0,1.727-0.783,3.173-2.068,4.357c-0.301-0.061-0.652-0.342-0.793-0.542
			C227.658,223.353,228.22,222.027,228.22,220.622z"/>
	</g>
</g>
<g id="Money">
	<path style="fill:#BBA461;" d="M36.505,114.364c2.292,0,4.507-0.15,6.603-0.43V90.613c-2.096-0.279-4.31-0.429-6.603-0.429
		c-13.081,0-23.687,4.884-23.687,10.906v2.366C12.819,109.481,23.424,114.364,36.505,114.364"/>
	<path style="fill:#BBA461;" d="M36.505,126.542c2.292,0,4.507-0.15,6.603-0.43v-6.836c-2.096,0.28-4.31,0.432-6.603,0.432
		c-11.418,0-20.951-3.721-23.188-8.672c-0.326,0.719-0.498,1.469-0.498,2.232v2.366C12.819,121.659,23.424,126.542,36.505,126.542"
		/>
	<path style="fill:#BBA461;" d="M43.107,131.986v-0.533c-2.096,0.28-4.31,0.432-6.602,0.432c-11.419,0-20.95-3.721-23.188-8.673
		c-0.326,0.722-0.498,1.469-0.498,2.234v2.365c0,6.025,10.605,10.909,23.687,10.909c2.617,0,5.134-0.197,7.486-0.557
		c-0.583-1.212-0.884-2.488-0.884-3.812V131.986z"/>
	<path style="fill:#BBA461;" d="M70.661,71.71c-13.083,0-23.688,4.883-23.688,10.907v2.366c0,6.024,10.605,10.906,23.688,10.906
		c13.081,0,23.687-4.882,23.687-10.906v-2.366C94.347,76.593,83.742,71.71,70.661,71.71"/>
	<path style="fill:#BBA461;" d="M70.661,101.235c-11.419,0-20.951-3.721-23.19-8.674c-0.325,0.721-0.498,1.468-0.498,2.233v2.366
		c0,6.024,10.605,10.907,23.688,10.907c13.081,0,23.687-4.882,23.687-10.907v-2.366c0-0.765-0.172-1.513-0.499-2.233
		C91.61,97.514,82.08,101.235,70.661,101.235"/>
	<path style="fill:#BBA461;" d="M70.661,113.411c-11.419,0-20.951-3.72-23.19-8.673c-0.325,0.722-0.498,1.47-0.498,2.235v2.365
		c0,6.024,10.605,10.908,23.688,10.908c13.081,0,23.687-4.883,23.687-10.908v-2.365c0-0.765-0.172-1.513-0.499-2.235
		C91.61,109.691,82.08,113.411,70.661,113.411"/>
	<path style="fill:#BBA461;" d="M70.661,126.248c-11.419,0-20.951-3.723-23.19-8.674c-0.325,0.72-0.498,1.469-0.498,2.233v2.366
		c0,6.025,10.605,10.908,23.688,10.908c13.081,0,23.687-4.882,23.687-10.908v-2.366c0-0.765-0.172-1.513-0.499-2.233
		C91.61,122.525,82.08,126.248,70.661,126.248"/>
	<path style="fill:#BBA461;" d="M70.661,138.425c-11.419,0-20.951-3.721-23.19-8.673c-0.325,0.721-0.498,1.468-0.498,2.234v2.365
		c0,6.025,10.605,10.908,23.688,10.908c13.081,0,23.687-4.883,23.687-10.908v-2.365c0-0.766-0.172-1.514-0.499-2.234
		C91.61,134.704,82.08,138.425,70.661,138.425"/>
</g>
</svg>
