<svg id="Layer_1" data-name="Layer 1" xmlns="http://www.w3.org/2000/svg" viewBox="0 0 300 300"><defs><style>.cls-1{fill:#130f3d;}.cls-2,.cls-3{fill:none;stroke-linejoin:bevel;stroke-width:5px;}.cls-2{stroke:#130f3d;}.cls-3{stroke:#00b3e1;}</style></defs><title>update_web_</title><path class="cls-1" d="M12.1,222.67,15.76,234l3.65-11.37h2.73L25.8,234l3.65-11.37h4.12l-5.84,17.17H24.38l-3.6-10.43-3.61,10.43H13.83L8,222.67Z"/><path class="cls-1" d="M45.27,226H39.53v3.32H45v3.35H39.53v3.81h5.74v3.35h-9.7V222.67h9.7Z"/><path class="cls-1" d="M52.71,222.67v13.82H58v3.35h-9.3V222.67Z"/><path class="cls-1" d="M72.25,239.3a8,8,0,0,1-3.79.92,9.22,9.22,0,0,1-6.74-2.49,9.2,9.2,0,0,1,0-13,9.14,9.14,0,0,1,6.41-2.47,10.26,10.26,0,0,1,4.12.95v4.59a5.45,5.45,0,0,0-4-1.83,4.8,4.8,0,0,0-3.5,1.34,5.48,5.48,0,0,0-1.62,4,5,5,0,0,0,5.2,5.23,5.44,5.44,0,0,0,3.94-1.78Z"/><path class="cls-1" d="M90.39,224.78a9.13,9.13,0,0,1,0,12.92,9.15,9.15,0,0,1-6.64,2.52,9.45,9.45,0,0,1-6.7-2.52,8.78,8.78,0,0,1-2.67-6.38A9.59,9.59,0,0,1,77,224.8a10.14,10.14,0,0,1,13.36,0ZM80,227.4a5.3,5.3,0,0,0-1.52,3.89A5.11,5.11,0,0,0,80,235.15a5,5,0,0,0,3.68,1.42,5.23,5.23,0,0,0,3.81-1.47A5.17,5.17,0,0,0,89,231.26a5.44,5.44,0,0,0-1.49-3.86,5.54,5.54,0,0,0-3.79-1.46A5.31,5.31,0,0,0,80,227.4Z"/><path class="cls-1" d="M94.89,239.84l2.75-17.17h3.3l4.27,10.27,4.27-10.27h3.3l2.75,17.17h-4l-1.36-10.25-4.3,10.25h-1.39l-4.3-10.25-1.37,10.25Z"/><path class="cls-1" d="M122.47,222.67v17.17h-4V222.67Z"/><path class="cls-1" d="M126.33,239.84V222.67h3.44l9.32,11.07V222.67h4v17.17h-3.45l-9.32-11.12v11.12Z"/><path class="cls-1" d="M155.12,230.47h8.52v.18a11.18,11.18,0,0,1-2.65,7.23,7.89,7.89,0,0,1-6.13,2.34,8.07,8.07,0,0,1-6.28-2.39,9.78,9.78,0,0,1-.05-13.05,8.83,8.83,0,0,1,6.74-2.5,8.64,8.64,0,0,1,4.82,1.29,9.48,9.48,0,0,1,2.78,3.06l-3.58,1.93a5.14,5.14,0,0,0-1.52-1.85,4.28,4.28,0,0,0-2.62-.83,4.66,4.66,0,0,0-3.56,1.4,5.87,5.87,0,0,0-1.46,4.06,5.4,5.4,0,0,0,1.44,3.94,4.5,4.5,0,0,0,3.47,1.34,4.39,4.39,0,0,0,3-.93,4,4,0,0,0,1.23-2h-4.14Z"/><path class="cls-1" d="M181.46,226.86a4.21,4.21,0,0,0-2.88-1.23,2.19,2.19,0,0,0-1.68.59,1.56,1.56,0,0,0-.43,1.08,1.19,1.19,0,0,0,.38.95,6.91,6.91,0,0,0,2.16,1l1.29.49a6.85,6.85,0,0,1,2.34,1.31,4.29,4.29,0,0,1,1.27,3.2,6.14,6.14,0,0,1-1.52,4.24,6.65,6.65,0,0,1-4.87,1.75,7.33,7.33,0,0,1-3.4-.72,10.83,10.83,0,0,1-2.52-1.88l2.06-2.83a10,10,0,0,0,1.6,1.31,3.91,3.91,0,0,0,2.16.62,2.74,2.74,0,0,0,1.8-.59,1.79,1.79,0,0,0,.62-1.39,1.52,1.52,0,0,0-.59-1.24,8.73,8.73,0,0,0-2-.95l-1.42-.49a5.72,5.72,0,0,1-2.39-1.36,4.22,4.22,0,0,1-1-3,5.28,5.28,0,0,1,1.49-3.86,5.55,5.55,0,0,1,4.25-1.57,8.34,8.34,0,0,1,5.1,1.7Z"/><path class="cls-1" d="M192.81,226v13.83h-4V226h-3.74v-3.34h11.43V226Z"/><path class="cls-1" d="M213.05,232.83a7.29,7.29,0,0,1-1.9,5.44,8.33,8.33,0,0,1-10.71,0,7.3,7.3,0,0,1-1.91-5.44V222.67h4v10.06a4.06,4.06,0,0,0,.9,2.89,3.64,3.64,0,0,0,4.79,0,4.06,4.06,0,0,0,.9-2.89V222.67h4Z"/><path class="cls-1" d="M222.29,222.67a9,9,0,0,1,6.77,2.37,9,9,0,0,1,.13,12.22,9.24,9.24,0,0,1-6.77,2.58h-5.56V222.67Zm-1.47,13.82h1.06a6.21,6.21,0,0,0,3.91-1.16,5.34,5.34,0,0,0,1.67-4.14,5.08,5.08,0,0,0-1.41-3.71,5.66,5.66,0,0,0-4.17-1.47h-1.06Z"/><path class="cls-1" d="M244.17,226h-5.74v3.32h5.46v3.35h-5.46v3.81h5.74v3.35h-9.7V222.67h9.7Z"/><path class="cls-1" d="M247.64,239.84V222.67h3.45l9.32,11.07V222.67h4v17.17h-3.45l-9.32-11.12v11.12Z"/><path class="cls-1" d="M274.09,226v13.83h-4V226H266.4v-3.34h11.42V226Z"/><path class="cls-1" d="M288.7,226.86a4.22,4.22,0,0,0-2.89-1.23,2.15,2.15,0,0,0-1.67.59,1.52,1.52,0,0,0-.44,1.08,1.19,1.19,0,0,0,.39.95,6.8,6.8,0,0,0,2.16,1l1.29.49a6.94,6.94,0,0,1,2.34,1.31,4.31,4.31,0,0,1,1.26,3.2,6.14,6.14,0,0,1-1.52,4.24,6.63,6.63,0,0,1-4.86,1.75,7.28,7.28,0,0,1-3.4-.72,10.62,10.62,0,0,1-2.52-1.88l2.06-2.83a9.94,9.94,0,0,0,1.59,1.31,3.94,3.94,0,0,0,2.16.62,2.75,2.75,0,0,0,1.81-.59,1.79,1.79,0,0,0,.61-1.39,1.52,1.52,0,0,0-.59-1.24,8.54,8.54,0,0,0-2-.95l-1.41-.49a5.66,5.66,0,0,1-2.39-1.36,4.19,4.19,0,0,1-1-3,5.28,5.28,0,0,1,1.5-3.86,5.55,5.55,0,0,1,4.25-1.57,8.32,8.32,0,0,1,5.09,1.7Z"/><path class="cls-1" d="M22.13,254.34H16.57v3.32h5.15V261H16.57v7.16h-4V251h9.53Z"/><path class="cls-1" d="M31,251a6.14,6.14,0,0,1,4.37,1.49,5.21,5.21,0,0,1,1.49,3.84,4.71,4.71,0,0,1-1.33,3.5,5.43,5.43,0,0,1-2.4,1.31l5.28,7H33.57l-4.63-6.77v6.77H25V251Zm-2.06,7.8h.9a3.27,3.27,0,0,0,2.37-.75,2.31,2.31,0,0,0,.64-1.67,2.07,2.07,0,0,0-.8-1.75,3.86,3.86,0,0,0-2.19-.54h-.92Z"/><path class="cls-1" d="M55.21,253.1a9.13,9.13,0,0,1,0,12.92,9.12,9.12,0,0,1-6.64,2.53A9.44,9.44,0,0,1,41.88,266a8.75,8.75,0,0,1-2.68-6.38,9.59,9.59,0,0,1,2.65-6.51,9.22,9.22,0,0,1,6.72-2.52A9.17,9.17,0,0,1,55.21,253.1Zm-10.42,2.63a5.24,5.24,0,0,0-1.52,3.89,5.14,5.14,0,0,0,1.57,3.86,5.07,5.07,0,0,0,3.68,1.41,5.07,5.07,0,0,0,5.3-5.3,5.41,5.41,0,0,0-1.49-3.86,5.47,5.47,0,0,0-3.78-1.47A5.26,5.26,0,0,0,44.79,255.73Z"/><path class="cls-1" d="M59.71,268.16,62.47,251h3.29L70,261.26,74.31,251H77.6l2.76,17.17h-4L75,257.92l-4.3,10.24H69.34L65,257.92l-1.36,10.24Z"/><path class="cls-1" d="M93.39,254.34H91V251h6.41v17.17h-4Z"/><path class="cls-1" d="M113.67,266.77a6.35,6.35,0,0,1-4.6,1.78,6.27,6.27,0,0,1-4.56-1.78c-1.67-1.65-2.47-4.25-2.47-7.18s.8-5.59,2.47-7.21a6.81,6.81,0,0,1,9.16,0c1.68,1.62,2.48,4.25,2.48,7.21S115.35,265.12,113.67,266.77Zm-6.17-12.12c-1.26,1.23-1.44,3.7-1.44,4.91s.23,3.76,1.44,4.95a2.14,2.14,0,0,0,1.59.64,2.16,2.16,0,0,0,1.6-.64c1.21-1.19,1.44-3.61,1.44-4.95s-.18-3.68-1.44-4.91a2.13,2.13,0,0,0-1.6-.65A2.11,2.11,0,0,0,107.5,254.65Z"/><path class="cls-1" d="M129.69,266.77a6.35,6.35,0,0,1-4.6,1.78,6.27,6.27,0,0,1-4.56-1.78c-1.67-1.65-2.47-4.25-2.47-7.18s.8-5.59,2.47-7.21a6.81,6.81,0,0,1,9.16,0c1.68,1.62,2.47,4.25,2.47,7.21S131.37,265.12,129.69,266.77Zm-6.17-12.12c-1.27,1.23-1.45,3.7-1.45,4.91s.24,3.76,1.45,4.95a2.14,2.14,0,0,0,1.59.64,2.18,2.18,0,0,0,1.6-.64c1.21-1.19,1.44-3.61,1.44-4.95s-.18-3.68-1.44-4.91a2.15,2.15,0,0,0-1.6-.65A2.11,2.11,0,0,0,123.52,254.65Z"/><path class="cls-1" d="M134.29,257.92h4v-4h3.24v4h4v3h-4v4h-3.24v-4h-4Z"/><path class="cls-1" d="M166.59,267.62a8,8,0,0,1-3.78.93,9.16,9.16,0,0,1-6.74-2.5,9.19,9.19,0,0,1,0-13,9.1,9.1,0,0,1,6.41-2.47,10.19,10.19,0,0,1,4.11.95v4.58a5.4,5.4,0,0,0-4-1.83,4.84,4.84,0,0,0-3.5,1.34,5.52,5.52,0,0,0-1.62,4,5,5,0,0,0,5.2,5.22,5.37,5.37,0,0,0,3.93-1.78Z"/><path class="cls-1" d="M184.74,253.1a9.15,9.15,0,0,1,0,12.92,9.16,9.16,0,0,1-6.64,2.53,9.45,9.45,0,0,1-6.7-2.53,8.74,8.74,0,0,1-2.67-6.38,9.55,9.55,0,0,1,2.65-6.51,10.16,10.16,0,0,1,13.36,0Zm-10.43,2.63a5.28,5.28,0,0,0-1.52,3.89,5.14,5.14,0,0,0,1.57,3.86,5.08,5.08,0,0,0,3.68,1.41,5.09,5.09,0,0,0,5.31-5.3,5.37,5.37,0,0,0-1.5-3.86,5.47,5.47,0,0,0-3.78-1.47A5.27,5.27,0,0,0,174.31,255.73Z"/><path class="cls-1" d="M204.77,261.16a7.27,7.27,0,0,1-1.9,5.43,8.3,8.3,0,0,1-10.71,0,7.28,7.28,0,0,1-1.91-5.43V251h4v10.07a4.05,4.05,0,0,0,.9,2.88,3.64,3.64,0,0,0,4.79,0,4.05,4.05,0,0,0,.9-2.88V251h4Z"/><path class="cls-1" d="M208.58,268.16V251H212l9.32,11.07V251h4v17.17h-3.45L212.54,257v11.12Z"/><path class="cls-1" d="M235,254.34v13.82h-4V254.34h-3.73V251h11.43v3.35Z"/><path class="cls-1" d="M246.77,251a6.15,6.15,0,0,1,4.38,1.49,5.21,5.21,0,0,1,1.49,3.84,4.68,4.68,0,0,1-1.34,3.5,5.33,5.33,0,0,1-2.39,1.31l5.28,7h-4.84l-4.64-6.77v6.77h-4V251Zm-2.06,7.8h.9A3.27,3.27,0,0,0,248,258a2.27,2.27,0,0,0,.65-1.67,2.1,2.1,0,0,0-.8-1.75,3.87,3.87,0,0,0-2.19-.54h-.93Z"/><path class="cls-1" d="M260.24,251v17.17h-4V251Z"/><path class="cls-1" d="M273.8,254.34h-5.74v3.32h5.46V261h-5.46v3.81h5.74v3.35h-9.71V251h9.71Z"/><path class="cls-1" d="M285.85,255.19A4.18,4.18,0,0,0,283,254a2.19,2.19,0,0,0-1.68.59,1.59,1.59,0,0,0-.43,1.09,1.22,1.22,0,0,0,.38.95,7.25,7.25,0,0,0,2.17,1l1.28.48a6.92,6.92,0,0,1,2.35,1.32,4.29,4.29,0,0,1,1.26,3.19,6.16,6.16,0,0,1-1.52,4.25,6.68,6.68,0,0,1-4.87,1.75,7.33,7.33,0,0,1-3.4-.72A11.34,11.34,0,0,1,276,266l2.06-2.83a10.57,10.57,0,0,0,1.6,1.31,4,4,0,0,0,2.16.62,2.72,2.72,0,0,0,1.8-.6,1.75,1.75,0,0,0,.62-1.39,1.51,1.51,0,0,0-.59-1.23,8.34,8.34,0,0,0-2-.95l-1.42-.49a5.92,5.92,0,0,1-2.39-1.37,4.21,4.21,0,0,1-1-3,5.26,5.26,0,0,1,1.49-3.86,5.51,5.51,0,0,1,4.25-1.57,8.32,8.32,0,0,1,5.1,1.69Z"/><path class="cls-2" d="M165.57,173.26c3.38,1.57,7.18,3.16,8.4,6.42a45.93,45.93,0,0,1,2.17,8.52,1.19,1.19,0,0,1,.05.32.15.15,0,0,1,0,.07.2.2,0,0,1,0,.07c0,3-9.5,5.32-21.66,5.54q-1.26,0-2.61,0h1.27c-.9,0-1.77,0-2.61-.08-12.15-.4-21.59-2.92-21.57-5.88,0,0,0,0,0-.07s0,0,0-.06a1.2,1.2,0,0,1,.06-.33,45.77,45.77,0,0,1,2.31-8.49c1.24-3.16,4.91-4.68,8.25-6.16"/><path class="cls-2" d="M164.51,154.27a12,12,0,0,0-11.9-11.91h0a12,12,0,0,0-11.9,11.9,3,3,0,0,0-.53.68c-.94,1.62-.51,4.35.42,6a3.67,3.67,0,0,0,2.23,1.87c1.48,3.35,4.7,8.87,9.78,8.9s8.31-5.54,9.8-8.9c2.18-.55,3.18-3.44,3.18-5.55A3.9,3.9,0,0,0,164.51,154.27Z"/><path class="cls-2" d="M122.44,192.24a71.25,71.25,0,0,1-15.09,1.67c-.85,0-1.71,0-2.61,0H106c-.9,0-1.77,0-2.61-.08C91.25,193.47,81.81,191,81.83,188c0,0,0-.05,0-.07s0-.05,0-.07a1,1,0,0,1,.06-.33,45.45,45.45,0,0,1,2.31-8.48c1.24-3.17,4.91-4.69,8.25-6.17"/><path class="cls-2" d="M118.39,173a31,31,0,0,1,5.78,3.11"/><path class="cls-2" d="M117.33,154a12,12,0,0,0-11.9-11.92h0A12,12,0,0,0,93.51,154a3,3,0,0,0-.53.67c-.94,1.62-.51,4.36.42,6a3.64,3.64,0,0,0,2.23,1.87c1.48,3.35,4.7,8.88,9.78,8.9s8.31-5.54,9.8-8.89c2.18-.56,3.18-3.44,3.18-5.55A3.87,3.87,0,0,0,117.33,154Z"/><path class="cls-2" d="M182.71,192.24a71.25,71.25,0,0,0,15.09,1.67c.84,0,1.71,0,2.61,0h-1.27c.9,0,1.77,0,2.61-.08,12.15-.41,21.59-2.92,21.57-5.88,0,0,0-.05,0-.07s0-.05,0-.07a1.28,1.28,0,0,0-.06-.33,45.45,45.45,0,0,0-2.31-8.48c-1.24-3.17-4.91-4.69-8.25-6.17"/><path class="cls-2" d="M186.76,173a31,31,0,0,0-5.78,3.11"/><path class="cls-2" d="M187.82,154a12,12,0,0,1,11.9-11.92h0A12,12,0,0,1,211.64,154a3,3,0,0,1,.53.67c.94,1.62.51,4.36-.42,6a3.64,3.64,0,0,1-2.23,1.87c-1.48,3.35-4.7,8.88-9.78,8.9s-8.31-5.54-9.8-8.89c-2.18-.56-3.18-3.44-3.18-5.55A3.87,3.87,0,0,1,187.82,154Z"/><polyline class="cls-2" points="121.06 120.55 105.7 120.55 105.7 135.17"/><polyline class="cls-2" points="184.14 120.55 199.51 120.55 199.51 135.17"/><line class="cls-2" x1="152.54" y1="126.1" x2="152.54" y2="135.17"/><path class="cls-2" d="M197.76,73.68a44.87,44.87,0,1,1-44.87-44.86A44.86,44.86,0,0,1,197.76,73.68Z"/><path class="cls-3" d="M137.58,87.17l-.8,1c-4.43,6.69,4.85,12,4.79,18.69a15.86,15.86,0,0,1-.28,2.85"/><path class="cls-3" d="M162.29,89.6c-9.26-.84-12-5.2-16.67-4.84"/><path class="cls-3" d="M152.41,111.83c2.35-1.92,22.5-11.78,9.88-15.77"/><path class="cls-3" d="M114.91,68.91C118.2,74.72,123.43,79.36,129,83c2.6,1.69,5.16,3.36,8.28,3.92,1.78-.09,4.07-4.66-.59-8"/><path class="cls-3" d="M131.31,73.68c-11.51-4.62,6.86-3.84,8.53-4.24-.29-4.23-2-9.79,4.51-8.12.24-6.52,9.7-3.74,9.56-9.88,0-.48-5.24-6.87-5.76-7.14-3.62-1.86-7.76,0-11.7.91a8.34,8.34,0,0,0-1.16-5"/><path class="cls-3" d="M152.69,35.33c1.27,2,2.34,4.35,3.87,7.37,1.31,2.57,2.35,4.88,4.93,6.2.53-2.93-.36-7.28,1.22-9.84a5.81,5.81,0,0,1,1.93-1.85"/><path class="cls-3" d="M181.39,47.63c-1.84,4.78.85,13.3,4.93,12.7-7.68,1.12-20.63,1-16.15,13.89,2.09,6,9.14,6.83,11.86,12.09,1.1,2.12.52,7,.26,11.4"/></svg>