<?xml version="1.0" encoding="utf-8"?>
<!-- Generator: Adobe Illustrator 23.0.1, SVG Export Plug-In . SVG Version: 6.00 Build 0)  -->
<svg version="1.1" id="Layer_1" xmlns="http://www.w3.org/2000/svg" xmlns:xlink="http://www.w3.org/1999/xlink" x="0px" y="0px"
	 width="117.4px" height="117.3px" viewBox="0 0 117.4 117.3" style="enable-background:new 0 0 117.4 117.3;" xml:space="preserve"
	>
<style type="text/css">
	.st0{fill:#FFFFFF;}
	.st1{fill:none;stroke:#FFFFFF;stroke-width:2;stroke-linejoin:bevel;stroke-miterlimit:10;}
	.st2{fill:none;stroke:#00B3E1;stroke-width:2;stroke-linejoin:bevel;stroke-miterlimit:10;}
	.st3{fill:none;stroke:#130F3D;stroke-width:2;stroke-linejoin:bevel;stroke-miterlimit:10;}
	.st4{fill:#130F3D;}
	.st5{fill:#00B3E1;}
	.st6{fill:none;stroke:#130F3D;stroke-width:2;stroke-linecap:round;stroke-linejoin:round;stroke-miterlimit:10;}
	.st7{fill:none;stroke:#00B3E1;stroke-width:2;stroke-linecap:round;stroke-linejoin:round;stroke-miterlimit:10;}
	.st8{fill:none;stroke:#FFFFFF;stroke-width:2;stroke-linecap:round;stroke-linejoin:round;stroke-miterlimit:10;}
	.st9{fill:none;stroke:#130F3D;stroke-width:2;stroke-linejoin:round;stroke-miterlimit:10;}
	.st10{fill:none;stroke:#00B3E1;stroke-width:2;stroke-linejoin:round;stroke-miterlimit:10;}
	.st11{fill:none;stroke:#FFFFFF;stroke-width:2;stroke-linejoin:round;stroke-miterlimit:10;}
	.st12{fill:none;stroke:#130F3D;stroke-width:2;stroke-miterlimit:10;}
	.st13{fill:none;stroke:#00B3E1;stroke-miterlimit:10;}
	.st14{fill:none;stroke:#130F3D;stroke-miterlimit:10;}
	.st15{fill:none;stroke:#FFFFFF;stroke-width:2;stroke-miterlimit:10;}
	.st16{fill:none;stroke:#FFFFFF;stroke-miterlimit:10;}
</style>
<path class="st3" d="M58.7,5.2c-2.9,0-5.5-0.4-7.4-1.1c0.3,7.9,6.3,9.1,7.4,9.2v0c0,0,0,0,0.1,0c0,0,0.1,0,0.1,0v0
	c1-0.1,7.1-1.3,7.4-9.2C64.2,4.8,61.6,5.2,58.7,5.2z"/>
<path class="st3" d="M52.8,14.1c-10,4.8-10,21.3-14.5,30.7c0.7,0.6,1.4,1.1,2.2,1.6c5,2.9,11.6,2.9,18.3,2.1
	c6.7,0.8,13.3,0.8,18.3-2.1c0.8-0.4,1.5-1,2.2-1.6c-4.5-9.3-4.5-25.7-14.4-30.6"/>
<path class="st3" d="M54.6,48.8c9.3,0,11.8-7,18.1-8.9"/>
<path class="st3" d="M55.7,5.1c2.4,0.5,2.2,2.4,4.1,3.7"/>
<path class="st3" d="M40.8,39.3c0,0,4,4.1,15.3,3.6"/>
<ellipse transform="matrix(0.987 -0.1607 0.1607 0.987 -3.7265 9.7966)" class="st2" cx="58.7" cy="27.9" rx="8.7" ry="8.7"/>
<line class="st2" x1="54.3" y1="32" x2="61.7" y2="32"/>
<path class="st2" d="M56.3,32.4c0,0,0.4-6.6,0.5-7.5c0.1-0.8,0.5-1.7,2.1-1.6C60.6,23.4,61,25,61,25"/>
<line class="st2" x1="55.2" y1="27.8" x2="60.4" y2="27.8"/>
<g>
	<g>
		<path class="st4" d="M8.6,86.6h2.7v-2.5h1.5v6.7h-1.5v-2.8H8.6v2.8H7v-6.7h1.5V86.6z"/>
		<path class="st4" d="M18.3,89.5h-2.5l-0.5,1.3h-1.6l2.7-6.7h1.4l2.6,6.7h-1.6L18.3,89.5z M17.9,88.3L17,86.1l-0.8,2.2H17.9z"/>
		<path class="st4" d="M24.8,85.7c-0.5-0.4-0.9-0.5-1.1-0.5c-0.2,0-0.5,0-0.6,0.2c-0.1,0.1-0.2,0.3-0.2,0.4c0,0.2,0,0.3,0.1,0.4
			c0.2,0.1,0.4,0.2,0.8,0.4l0.5,0.2c0.3,0.1,0.6,0.3,0.9,0.5c0.4,0.4,0.5,0.8,0.5,1.2c0,0.7-0.2,1.3-0.6,1.6
			c-0.6,0.6-1.4,0.7-1.9,0.7c-0.5,0-0.9-0.1-1.3-0.3c-0.3-0.2-0.7-0.5-1-0.7l0.8-1.1c0.2,0.2,0.4,0.4,0.6,0.5
			c0.3,0.2,0.5,0.2,0.8,0.2c0.2,0,0.5,0,0.7-0.2c0.1-0.1,0.2-0.3,0.2-0.5c0-0.2-0.1-0.4-0.2-0.5c-0.2-0.1-0.6-0.3-0.8-0.4l-0.5-0.2
			c-0.3-0.1-0.7-0.2-0.9-0.5c-0.3-0.4-0.4-0.8-0.4-1.2c0-0.6,0.2-1.1,0.6-1.5c0.5-0.5,1-0.6,1.6-0.6c0.5,0,1.2,0.1,2,0.7L24.8,85.7z
			"/>
		<path class="st4" d="M30.7,84.1v5.4h2.1v1.3h-3.6v-6.7H30.7z"/>
		<path class="st4" d="M39.5,84.9c0.6,0.6,1,1.5,1,2.5c0,0.9-0.3,1.8-1,2.5c-0.6,0.6-1.5,1-2.6,1c-1.2,0-2.1-0.5-2.6-1
			c-0.6-0.6-1-1.5-1-2.5c0-1,0.4-1.9,1-2.5c0.4-0.4,1.3-1,2.6-1C37.9,83.9,38.8,84.2,39.5,84.9z M35.4,85.9
			c-0.3,0.3-0.6,0.8-0.6,1.5c0,0.6,0.2,1.1,0.6,1.5c0.4,0.4,0.9,0.5,1.4,0.5c0.7,0,1.2-0.2,1.5-0.6c0.3-0.3,0.6-0.7,0.6-1.5
			c0-0.7-0.3-1.2-0.6-1.5c-0.3-0.3-0.9-0.6-1.5-0.6C36.3,85.3,35.8,85.5,35.4,85.9z"/>
		<path class="st4" d="M42.5,84.1l1.4,4.4l1.4-4.4h1.1l1.4,4.4l1.4-4.4h1.6l-2.3,6.7h-1.3l-1.4-4l-1.4,4h-1.3l-2.3-6.7H42.5z"/>
		<path class="st4" d="M55.5,85.4h-2.2v1.3h2.1V88h-2.1v1.5h2.2v1.3h-3.8v-6.7h3.8V85.4z"/>
		<path class="st4" d="M60.3,85.7c-0.5-0.4-0.9-0.5-1.1-0.5c-0.2,0-0.5,0-0.6,0.2c-0.1,0.1-0.2,0.3-0.2,0.4c0,0.2,0,0.3,0.1,0.4
			c0.2,0.1,0.4,0.2,0.8,0.4l0.5,0.2c0.3,0.1,0.6,0.3,0.9,0.5c0.4,0.4,0.5,0.8,0.5,1.2c0,0.7-0.2,1.3-0.6,1.6
			c-0.6,0.6-1.4,0.7-1.9,0.7c-0.5,0-0.9-0.1-1.3-0.3c-0.3-0.2-0.7-0.5-1-0.7l0.8-1.1c0.2,0.2,0.4,0.4,0.6,0.5
			c0.3,0.2,0.5,0.2,0.8,0.2c0.2,0,0.5,0,0.7-0.2c0.1-0.1,0.2-0.3,0.2-0.5c0-0.2-0.1-0.4-0.2-0.5c-0.2-0.1-0.6-0.3-0.8-0.4l-0.5-0.2
			c-0.3-0.1-0.7-0.2-0.9-0.5c-0.3-0.4-0.4-0.8-0.4-1.2c0-0.6,0.2-1.1,0.6-1.5c0.5-0.5,1-0.6,1.6-0.6c0.5,0,1.2,0.1,2,0.7L60.3,85.7z
			"/>
		<path class="st4" d="M64.8,85.4v5.4h-1.5v-5.4h-1.4v-1.3h4.4v1.3H64.8z"/>
		<path class="st4" d="M72.8,85.7c-0.5-0.4-0.9-0.5-1.1-0.5c-0.2,0-0.5,0-0.6,0.2c-0.1,0.1-0.2,0.3-0.2,0.4c0,0.2,0,0.3,0.1,0.4
			c0.2,0.1,0.4,0.2,0.8,0.4l0.5,0.2c0.3,0.1,0.6,0.3,0.9,0.5c0.4,0.4,0.5,0.8,0.5,1.2c0,0.7-0.2,1.3-0.6,1.6
			c-0.6,0.6-1.4,0.7-1.9,0.7c-0.5,0-0.9-0.1-1.3-0.3c-0.3-0.2-0.7-0.5-1-0.7l0.8-1.1c0.2,0.2,0.4,0.4,0.6,0.5
			c0.3,0.2,0.5,0.2,0.8,0.2c0.2,0,0.5,0,0.7-0.2c0.1-0.1,0.2-0.3,0.2-0.5c0-0.2-0.1-0.4-0.2-0.5c-0.2-0.1-0.6-0.3-0.8-0.4l-0.5-0.2
			c-0.3-0.1-0.7-0.2-0.9-0.5c-0.3-0.4-0.4-0.8-0.4-1.2c0-0.6,0.2-1.1,0.6-1.5c0.5-0.5,1-0.6,1.6-0.6c0.5,0,1.2,0.1,2,0.7L72.8,85.7z
			"/>
		<path class="st4" d="M77.4,85.4v5.4h-1.5v-5.4h-1.4v-1.3h4.4v1.3H77.4z"/>
		<path class="st4" d="M85.3,88c0,0.6-0.1,1.4-0.7,2.1c-0.6,0.7-1.4,0.8-2.1,0.8c-0.7,0-1.4-0.1-2.1-0.8c-0.7-0.7-0.7-1.5-0.7-2.1
			v-3.9h1.5V88c0,0.3,0,0.8,0.4,1.1c0.3,0.3,0.6,0.4,0.9,0.4c0.3,0,0.7-0.1,0.9-0.4c0.3-0.3,0.3-0.8,0.3-1.1v-3.9h1.5V88z"/>
		<path class="st4" d="M89,84.1c0.9,0,1.8,0.1,2.6,0.9c0.6,0.6,1,1.3,1,2.4c0,1-0.4,1.8-0.9,2.4c-0.9,0.9-2.1,1-2.6,1h-2.2v-6.7H89z
			 M88.5,89.4h0.4c0.3,0,1,0,1.5-0.4c0.4-0.3,0.6-0.9,0.6-1.6c0-0.7-0.3-1.2-0.5-1.4c-0.5-0.5-1.1-0.6-1.6-0.6h-0.4V89.4z"/>
		<path class="st4" d="M97.7,85.4h-2.2v1.3h2.1V88h-2.1v1.5h2.2v1.3h-3.8v-6.7h3.8V85.4z"/>
		<path class="st4" d="M99.1,90.7v-6.7h1.3l3.6,4.3v-4.3h1.5v6.7h-1.3l-3.6-4.3v4.3H99.1z"/>
		<path class="st4" d="M109.5,85.4v5.4H108v-5.4h-1.4v-1.3h4.4v1.3H109.5z"/>
		<path class="st4" d="M11.6,101.5c-0.6,0.3-1.1,0.4-1.5,0.4c-1.2,0-2.1-0.4-2.6-1c-0.6-0.6-1-1.5-1-2.5c0-1,0.4-1.9,1-2.5
			c0.6-0.6,1.4-1,2.5-1c0.4,0,0.9,0.1,1.6,0.4v1.8c-0.3-0.4-0.8-0.7-1.6-0.7c-0.6,0-1,0.2-1.4,0.5C8.3,97.2,8,97.8,8,98.4
			c0,0.7,0.3,1.2,0.6,1.5c0.1,0.1,0.6,0.6,1.4,0.6c0.4,0,0.9-0.1,1.5-0.7V101.5z"/>
		<path class="st4" d="M18.7,95.9c0.6,0.6,1,1.5,1,2.5c0,0.9-0.3,1.8-1,2.5c-0.6,0.6-1.5,1-2.6,1c-1.2,0-2.1-0.5-2.6-1
			c-0.6-0.6-1-1.5-1-2.5c0-1,0.4-1.9,1-2.5c0.4-0.4,1.3-1,2.6-1C17.2,94.9,18.1,95.2,18.7,95.9z M14.7,96.9
			c-0.3,0.3-0.6,0.8-0.6,1.5c0,0.6,0.2,1.1,0.6,1.5c0.4,0.4,0.9,0.5,1.4,0.5c0.7,0,1.2-0.2,1.5-0.6c0.3-0.3,0.6-0.7,0.6-1.5
			c0-0.7-0.3-1.2-0.6-1.5c-0.3-0.3-0.9-0.6-1.5-0.6C15.6,96.3,15.1,96.5,14.7,96.9z"/>
		<path class="st4" d="M24.3,96.7c-0.5-0.4-0.9-0.5-1.1-0.5c-0.2,0-0.5,0-0.6,0.2c-0.1,0.1-0.2,0.3-0.2,0.4c0,0.2,0,0.3,0.1,0.4
			c0.2,0.1,0.4,0.2,0.8,0.4l0.5,0.2c0.3,0.1,0.6,0.3,0.9,0.5c0.4,0.4,0.5,0.8,0.5,1.2c0,0.7-0.2,1.3-0.6,1.6
			c-0.6,0.6-1.4,0.7-1.9,0.7c-0.5,0-0.9-0.1-1.3-0.3c-0.3-0.2-0.7-0.5-1-0.7l0.8-1.1c0.2,0.2,0.4,0.4,0.6,0.5
			c0.3,0.2,0.5,0.2,0.8,0.2c0.2,0,0.5,0,0.7-0.2c0.1-0.1,0.2-0.3,0.2-0.5c0-0.2-0.1-0.4-0.2-0.5c-0.2-0.1-0.6-0.3-0.8-0.4l-0.5-0.2
			c-0.3-0.1-0.7-0.2-0.9-0.5c-0.3-0.4-0.4-0.8-0.4-1.2c0-0.6,0.2-1.1,0.6-1.5c0.5-0.5,1-0.6,1.6-0.6c0.5,0,1.2,0.1,2,0.7L24.3,96.7z
			"/>
		<path class="st4" d="M28.9,96.4v5.4h-1.5v-5.4h-1.4v-1.3h4.4v1.3H28.9z"/>
		<path class="st4" d="M39.4,95.9c0.6,0.6,1,1.5,1,2.5c0,0.9-0.3,1.8-1,2.5c-0.6,0.6-1.5,1-2.6,1c-1.2,0-2.1-0.5-2.6-1
			c-0.6-0.6-1-1.5-1-2.5c0-1,0.4-1.9,1-2.5c0.4-0.4,1.3-1,2.6-1C37.8,94.9,38.7,95.2,39.4,95.9z M35.3,96.9
			c-0.3,0.3-0.6,0.8-0.6,1.5c0,0.6,0.2,1.1,0.6,1.5c0.4,0.4,0.9,0.5,1.4,0.5c0.7,0,1.2-0.2,1.5-0.6c0.3-0.3,0.6-0.7,0.6-1.5
			c0-0.7-0.3-1.2-0.6-1.5c-0.3-0.3-0.9-0.6-1.5-0.6C36.2,96.3,35.7,96.5,35.3,96.9z"/>
		<path class="st4" d="M45.4,96.4h-2.2v1.3h2V99h-2v2.8h-1.5v-6.7h3.7V96.4z"/>
		<path class="st4" d="M50.4,95.1v5.4h2.1v1.3h-3.6v-6.7H50.4z"/>
		<path class="st4" d="M54.9,95.1v6.7h-1.5v-6.7H54.9z"/>
		<path class="st4" d="M57.5,95.1l1.7,4.3l1.7-4.3h1.7l-2.8,6.7h-1l-2.8-6.7H57.5z"/>
		<path class="st4" d="M65,95.1v6.7h-1.5v-6.7H65z"/>
		<path class="st4" d="M66.6,101.7v-6.7h1.3l3.6,4.3v-4.3h1.5v6.7h-1.3l-3.6-4.3v4.3H66.6z"/>
		<path class="st4" d="M77.9,98.1h3.3v0.1c0,0.8-0.3,2-1,2.8c-0.7,0.8-1.6,0.9-2.4,0.9c-0.8,0-1.7-0.1-2.4-0.9c-0.4-0.4-1-1.2-1-2.5
			c0-1.1,0.4-2,1-2.5c0.8-0.8,1.8-1,2.6-1c0.5,0,1.2,0.1,1.9,0.5c0.4,0.3,0.8,0.8,1.1,1.2l-1.4,0.7c-0.1-0.3-0.3-0.5-0.6-0.7
			c-0.3-0.2-0.6-0.3-1-0.3c-0.6,0-1.1,0.2-1.4,0.5c-0.4,0.4-0.6,1-0.6,1.6c0,0.8,0.3,1.2,0.6,1.5c0.4,0.4,0.8,0.5,1.3,0.5
			c0.7,0,1-0.2,1.2-0.4c0,0,0.3-0.3,0.5-0.8h-1.6V98.1z"/>
		<path class="st4" d="M86.2,95.1v6.7h-1.5v-6.7H86.2z"/>
		<path class="st4" d="M87.8,101.7v-6.7h1.3l3.6,4.3v-4.3h1.5v6.7H93l-3.6-4.3v4.3H87.8z"/>
		<path class="st4" d="M103.8,99c0,0.6-0.1,1.4-0.7,2.1c-0.6,0.7-1.4,0.8-2.1,0.8c-0.7,0-1.4-0.1-2.1-0.8c-0.7-0.7-0.7-1.5-0.7-2.1
			v-3.9h1.5V99c0,0.3,0,0.8,0.4,1.1c0.3,0.3,0.6,0.4,0.9,0.4c0.3,0,0.7-0.1,0.9-0.4c0.3-0.3,0.3-0.8,0.3-1.1v-3.9h1.5V99z"/>
		<path class="st4" d="M106.9,97.8l2.3-2.8h1.9l-2.7,3.2l2.9,3.5h-2l-2.4-3v3h-1.5v-6.7h1.5V97.8z"/>
		<path class="st4" d="M24.7,113c-0.2-0.5-0.4-0.9-0.5-1.4c-0.1-0.7-0.2-1.2-0.2-1.8c0-0.7,0-1.2,0.2-1.9c0.1-0.5,0.2-0.9,0.5-1.4
			l0.6,0.2c-0.2,0.4-0.3,0.9-0.4,1.3c-0.1,0.5-0.2,1.1-0.2,1.7c0,0.8,0.1,1.3,0.2,1.7c0.1,0.4,0.3,0.9,0.4,1.3L24.7,113z"/>
		<path class="st4" d="M26.5,107.1l1.2,3.1l1.3-3.3l1.2,3.3l1.3-3.1h0.8l-2.1,5l-1.2-3.3l-1.2,3.3l-2-5H26.5z"/>
		<path class="st4" d="M32.5,106.6h0.7v2.4c0.3-0.3,0.6-0.3,0.8-0.3c0.5,0,0.8,0.3,0.9,0.4c0.2,0.3,0.2,0.6,0.2,0.8v1.8h-0.7V110
			c0-0.2,0-0.4-0.1-0.5c-0.1-0.1-0.2-0.2-0.4-0.2c-0.2,0-0.4,0.1-0.5,0.2c-0.1,0.1-0.1,0.4-0.1,0.7v1.4h-0.7V106.6z"/>
		<path class="st4" d="M36.3,107.1c0.3,0,0.4,0.2,0.4,0.4c0,0.3-0.2,0.4-0.4,0.4c-0.3,0-0.4-0.2-0.4-0.4
			C35.8,107.3,36,107.1,36.3,107.1z M36.6,108.8v2.9h-0.7v-2.9H36.6z"/>
		<path class="st4" d="M39.8,109.7c-0.3-0.3-0.6-0.4-0.8-0.4c-0.3,0-0.5,0.1-0.7,0.3c-0.1,0.1-0.3,0.4-0.3,0.7
			c0,0.3,0.1,0.6,0.3,0.7c0.2,0.1,0.4,0.2,0.6,0.2c0.3,0,0.6-0.1,0.8-0.4v0.8c-0.2,0.1-0.4,0.2-0.9,0.2c-0.5,0-0.8-0.1-1.1-0.4
			c-0.2-0.2-0.4-0.6-0.4-1.1c0-0.6,0.2-0.9,0.4-1.1c0.2-0.2,0.6-0.4,1.2-0.4c0.2,0,0.5,0,0.8,0.2V109.7z"/>
		<path class="st4" d="M40.4,106.6h0.7v2.4c0.3-0.3,0.6-0.3,0.8-0.3c0.5,0,0.8,0.3,0.9,0.4c0.2,0.3,0.2,0.6,0.2,0.8v1.8h-0.7V110
			c0-0.2,0-0.4-0.1-0.5c-0.1-0.1-0.2-0.2-0.4-0.2c-0.2,0-0.4,0.1-0.5,0.2c-0.1,0.1-0.1,0.4-0.1,0.7v1.4h-0.7V106.6z"/>
		<path class="st4" d="M43.8,108.3c0-0.2,0-0.2,0-0.2c0-0.4,0.2-0.7,0.3-0.8c0.2-0.1,0.4-0.3,0.8-0.3c0.4,0,0.7,0.2,0.8,0.3
			c0.2,0.2,0.3,0.4,0.3,0.8c0,0.4-0.1,0.7-0.4,0.9c-0.1,0.1-0.2,0.1-0.5,0.2l-0.2,0.1c-0.1,0-0.2,0.1-0.3,0.2
			c-0.1,0.1-0.1,0.2-0.1,0.3c0,0.1,0,0.2,0.1,0.3c0,0,0.1,0.1,0.2,0.1s0.2,0,0.3-0.1c0.1-0.1,0.1-0.2,0.1-0.4H46
			c0,0.3-0.1,0.6-0.3,0.8c-0.2,0.2-0.4,0.3-0.8,0.3c-0.3,0-0.6-0.1-0.7-0.3c-0.1-0.1-0.3-0.4-0.3-0.7c0-0.3,0.1-0.5,0.2-0.6
			c0.2-0.2,0.4-0.3,0.6-0.4c0.2-0.1,0.4-0.1,0.5-0.2c0.1-0.1,0.2-0.2,0.2-0.4c0-0.1,0-0.2-0.1-0.3c-0.1-0.1-0.2-0.1-0.3-0.1
			c-0.1,0-0.3,0-0.3,0.1c-0.1,0.1-0.1,0.2-0.1,0.4c0,0.1,0,0.2,0,0.2H43.8z M44.9,111c0.2,0,0.4,0.2,0.4,0.4c0,0.2-0.2,0.4-0.4,0.4
			s-0.4-0.2-0.4-0.4C44.5,111.2,44.7,111,44.9,111z"/>
		<path class="st4" d="M49.4,107.1v2.8c0,0.3,0,0.6,0.1,0.8c0.1,0.2,0.5,0.5,0.9,0.5c0.4,0,0.7-0.2,0.9-0.5c0.1-0.2,0.1-0.6,0.1-0.8
			v-2.8h0.7v3c0,0.4-0.1,0.8-0.4,1.2c-0.2,0.3-0.7,0.5-1.3,0.5c-0.6,0-1.1-0.3-1.3-0.5c-0.4-0.4-0.4-0.8-0.4-1.2v-3H49.4z"/>
		<path class="st4" d="M53.1,108.8h0.7v0.3c0.3-0.3,0.6-0.4,0.8-0.4c0.5,0,0.8,0.3,0.9,0.4c0.1,0.2,0.2,0.4,0.2,0.8v1.8h-0.7v-1.6
			c0-0.7-0.3-0.8-0.5-0.8c-0.3,0-0.6,0-0.6,1v1.4h-0.7V108.8z"/>
		<path class="st4" d="M56.8,107.1c0.3,0,0.4,0.2,0.4,0.4c0,0.3-0.2,0.4-0.4,0.4c-0.3,0-0.4-0.2-0.4-0.4
			C56.4,107.3,56.6,107.1,56.8,107.1z M57.2,108.8v2.9h-0.7v-2.9H57.2z"/>
		<path class="st4" d="M58.4,108.8l0.8,1.7l0.8-1.7h0.8l-1.5,3.2l-1.5-3.2H58.4z"/>
		<path class="st4" d="M63.7,111.1c-0.1,0.2-0.3,0.4-0.5,0.5c-0.2,0.2-0.6,0.2-0.9,0.2c-0.4,0-0.7-0.1-1-0.4s-0.4-0.7-0.4-1.1
			c0-0.5,0.2-0.9,0.5-1.2c0.2-0.2,0.6-0.4,1-0.4c0.5,0,0.8,0.2,0.9,0.4c0.4,0.4,0.4,0.9,0.4,1.2v0.1h-2.1c0,0.2,0.1,0.4,0.3,0.6
			c0.2,0.2,0.4,0.2,0.5,0.2c0.2,0,0.3,0,0.5-0.1c0.1-0.1,0.2-0.2,0.3-0.3L63.7,111.1z M63,109.9c0-0.2-0.1-0.3-0.2-0.4
			c-0.1-0.1-0.2-0.2-0.5-0.2c-0.2,0-0.4,0.1-0.5,0.2c-0.1,0.1-0.2,0.2-0.2,0.4H63z"/>
		<path class="st4" d="M64.5,108.8h0.7v0.3c0.1-0.1,0.2-0.2,0.3-0.2c0.1-0.1,0.3-0.1,0.4-0.1c0.2,0,0.4,0,0.5,0.1l-0.3,0.6
			c-0.2-0.1-0.3-0.1-0.4-0.1c-0.1,0-0.3,0-0.4,0.2c-0.2,0.2-0.2,0.5-0.2,0.7v1.5h-0.7V108.8z"/>
		<path class="st4" d="M67.9,109.6c-0.1-0.1-0.2-0.3-0.4-0.3c-0.1,0-0.2,0-0.2,0.1c0,0-0.1,0.1-0.1,0.2c0,0.1,0,0.1,0.1,0.2
			c0,0,0.1,0,0.2,0.1l0.4,0.2c0.2,0.1,0.3,0.2,0.4,0.3c0.2,0.2,0.2,0.3,0.2,0.5c0,0.3-0.1,0.5-0.3,0.7c-0.2,0.3-0.5,0.3-0.8,0.3
			c-0.2,0-0.4,0-0.6-0.2c-0.2-0.1-0.3-0.3-0.4-0.5l0.6-0.3c0,0.1,0.1,0.2,0.2,0.3c0,0,0.1,0.1,0.3,0.1c0.1,0,0.2,0,0.3-0.1
			c0.1-0.1,0.1-0.1,0.1-0.2s0-0.2-0.1-0.2c-0.1-0.1-0.2-0.1-0.3-0.2l-0.3-0.1c-0.1-0.1-0.3-0.1-0.4-0.3c-0.2-0.1-0.2-0.3-0.2-0.5
			c0-0.2,0.1-0.5,0.2-0.6c0.1-0.1,0.4-0.3,0.7-0.3c0.2,0,0.4,0,0.5,0.2c0.1,0.1,0.2,0.2,0.3,0.4L67.9,109.6z"/>
		<path class="st4" d="M69.5,107.1c0.3,0,0.4,0.2,0.4,0.4c0,0.3-0.2,0.4-0.4,0.4c-0.3,0-0.4-0.2-0.4-0.4
			C69.1,107.3,69.3,107.1,69.5,107.1z M69.9,108.8v2.9h-0.7v-2.9H69.9z"/>
		<path class="st4" d="M71.4,109.4v2.3h-0.7v-2.3h-0.3v-0.6h0.3v-1.1h0.7v1.1H72v0.6H71.4z"/>
		<path class="st4" d="M73.4,111.3l-1.3-2.5H73l0.8,1.7l0.9-1.7h0.8l-2.3,4.6h-0.8L73.4,111.3z"/>
		<path class="st4" d="M80.5,111.7h-3.1l1.6-2c0.2-0.2,0.4-0.5,0.6-0.7c0.1-0.2,0.2-0.4,0.2-0.7c0-0.4-0.3-0.8-0.8-0.8
			c-0.5,0-0.8,0.4-0.8,0.8h-0.7c0-0.5,0.2-0.8,0.4-1c0.2-0.2,0.5-0.5,1.1-0.5c1,0,1.5,0.7,1.5,1.4c0,0.4-0.1,0.7-0.3,1
			c-0.2,0.3-0.4,0.5-0.7,0.8l-0.7,0.9h1.7V111.7z"/>
		<path class="st4" d="M82,111.3c-0.5-0.6-0.6-1.3-0.6-1.9c0-0.6,0.1-1.4,0.6-1.9c0.3-0.3,0.6-0.5,1.1-0.5c0.4,0,0.8,0.2,1.1,0.5
			c0.5,0.6,0.6,1.3,0.6,1.9c0,0.6-0.1,1.3-0.6,1.9c-0.3,0.3-0.6,0.5-1.1,0.5C82.7,111.8,82.3,111.6,82,111.3z M82.5,108
			c-0.3,0.4-0.3,1-0.3,1.4c0,0.4,0.1,1,0.3,1.4c0.2,0.3,0.4,0.4,0.6,0.4s0.4-0.1,0.6-0.4c0.3-0.4,0.3-1,0.3-1.4c0-0.4-0.1-1-0.3-1.4
			c-0.2-0.3-0.4-0.4-0.6-0.4S82.7,107.7,82.5,108z"/>
		<path class="st4" d="M86.2,107.7h-0.8l0.4-0.7h1.1v4.7h-0.7V107.7z"/>
		<path class="st4" d="M90.9,109.7c0.2,0.2,0.2,0.5,0.2,0.7c0,0.5-0.2,0.8-0.4,1c-0.2,0.2-0.6,0.4-1.1,0.4c-0.5,0-0.9-0.2-1.1-0.4
			c-0.2-0.2-0.4-0.5-0.4-1c0-0.2,0-0.5,0.2-0.7c0.1-0.1,0.3-0.3,0.5-0.4c-0.2-0.1-0.3-0.2-0.4-0.4c-0.1-0.2-0.2-0.4-0.2-0.6
			c0-0.4,0.1-0.7,0.4-1c0.1-0.1,0.4-0.4,1-0.4s0.8,0.2,1,0.4c0.3,0.3,0.4,0.6,0.4,1c0,0.2,0,0.4-0.2,0.6c-0.1,0.1-0.2,0.3-0.4,0.4
			C90.6,109.4,90.8,109.5,90.9,109.7z M89.1,109.8c-0.1,0.1-0.2,0.4-0.2,0.6c0,0.2,0.1,0.4,0.2,0.5c0.1,0.1,0.3,0.2,0.6,0.2
			s0.5-0.1,0.6-0.2c0.1-0.2,0.2-0.4,0.2-0.5c0-0.2-0.1-0.4-0.2-0.6c-0.1-0.1-0.4-0.2-0.6-0.2S89.2,109.7,89.1,109.8z M89.1,107.8
			c-0.1,0.1-0.2,0.3-0.2,0.5c0,0.2,0.1,0.4,0.2,0.5c0.1,0.1,0.3,0.2,0.5,0.2s0.4-0.1,0.5-0.2c0.1-0.1,0.2-0.3,0.2-0.5
			c0-0.2-0.1-0.4-0.2-0.5c-0.1-0.1-0.3-0.2-0.5-0.2C89.4,107.6,89.3,107.7,89.1,107.8z"/>
		<path class="st4" d="M92.1,112.7c0.2-0.4,0.3-0.9,0.4-1.3c0.1-0.4,0.2-0.9,0.2-1.7c0-0.6-0.1-1.2-0.2-1.7
			c-0.1-0.4-0.2-0.9-0.4-1.3l0.6-0.2c0.2,0.5,0.4,0.9,0.5,1.4c0.2,0.7,0.2,1.2,0.2,1.9c0,0.6,0,1.1-0.2,1.8
			c-0.1,0.5-0.3,0.9-0.5,1.4L92.1,112.7z"/>
	</g>
</g>
<g>
	<g>
		<path class="st5" d="M31.1,56.2L30,65.6h-3.3l-1.6-3.2c-0.3-0.7-0.5-1.2-0.7-1.9l-0.1-0.2h-0.1c0,0.4,0.1,0.7,0.1,1.1
			c0,0.4,0,0.7,0,0.9l-0.3,3.2h-3.4l1.1-9.3h3.4l1.7,3.5c0.2,0.4,0.4,0.9,0.6,1.7l0.1,0.3l0.1,0l0-0.3c0-0.5-0.1-0.9-0.1-1.3
			c0-0.4,0-0.7,0.1-1.1l0.2-2.8H31.1z"/>
		<path class="st5" d="M42.1,60.8c0,2.8-2.2,5-5.1,5c-3,0-5.2-2.1-5.2-4.8c0-2.8,2.3-5,5.2-5c1.3,0,2.6,0.5,3.6,1.3
			C41.5,58.1,42.1,59.3,42.1,60.8z M38.6,60.9c0-1-0.7-1.8-1.7-1.8c-1,0-1.8,0.9-1.8,2c0,1,0.7,1.8,1.7,1.8
			C37.9,62.9,38.6,62,38.6,60.9z"/>
		<path class="st5" d="M49.2,61.9l2,3.7h-3.7l-0.8-2.3c-0.1-0.4-0.3-0.9-0.4-1.2l-0.1,0c0,0.3,0,0.4,0,0.7c0,0.4,0,0.9-0.1,1.2
			L46,65.6h-3.4l1.1-9.3h3.7c1.5,0,2.2,0.2,2.9,0.8c0.7,0.6,1.1,1.4,1.1,2.3c0,0.8-0.4,1.6-0.9,2.1C50.2,61.7,49.9,61.8,49.2,61.9z
			 M46.9,58.7l-0.2,1.7h0.3c0.8,0,1.3-0.4,1.3-0.9c0-0.5-0.3-0.8-1.1-0.8H46.9z"/>
		<path class="st5" d="M59.1,56.2l-0.4,2.9l-1.6-0.1l-0.8,6.5h-3.4l0.8-6.5l-1.6,0.1l0.4-2.9H59.1z"/>
		<path class="st5" d="M68.6,56.2l-1.1,9.3h-3.4l0.4-3.4h-2l-0.4,3.4h-3.4l1.1-9.3h3.4l-0.4,3.2h2l0.4-3.2H68.6z"/>
		<path class="st5" d="M76.4,56.2l-0.3,2.4h-2.8l-0.1,1h2.5L75.4,62h-2.5l-0.1,1.1h2.9l-0.3,2.5h-6.2l1.1-9.3H76.4z"/>
		<path class="st5" d="M83.1,61.9l2,3.7h-3.7l-0.8-2.3c-0.1-0.4-0.3-0.9-0.4-1.2l-0.1,0c0,0.3,0,0.4,0,0.7c0,0.4,0,0.9-0.1,1.2
			l-0.2,1.6h-3.4l1.1-9.3h3.7c1.5,0,2.2,0.2,2.9,0.8c0.7,0.6,1.1,1.4,1.1,2.3c0,0.8-0.4,1.6-0.9,2.1C84,61.7,83.8,61.8,83.1,61.9z
			 M80.7,58.7l-0.2,1.7h0.3c0.8,0,1.3-0.4,1.3-0.9c0-0.5-0.3-0.8-1.1-0.8H80.7z"/>
		<path class="st5" d="M96.7,56.2l-1.1,9.3h-3.3l-1.6-3.2c-0.3-0.7-0.5-1.2-0.7-1.9l-0.1-0.2h-0.1c0,0.4,0.1,0.7,0.1,1.1
			c0,0.4,0,0.7,0,0.9l-0.3,3.2H86l1.1-9.3h3.4l1.7,3.5c0.2,0.4,0.4,0.9,0.6,1.7l0.1,0.3l0.1,0l0-0.3c0-0.5-0.1-0.9-0.1-1.3
			c0-0.4,0-0.7,0.1-1.1l0.2-2.8H96.7z"/>
		<path class="st5" d="M33.2,69.2l-1.1,9.3h-3.4l1.1-9.3H33.2z"/>
		<path class="st5" d="M40.2,74.9l2,3.7h-3.7l-0.8-2.3c-0.1-0.4-0.3-0.9-0.4-1.2l-0.1,0c0,0.3,0,0.4,0,0.7c0,0.4,0,0.9-0.1,1.2
			l-0.2,1.6h-3.4l1.1-9.3h3.7c1.5,0,2.2,0.2,2.9,0.8c0.7,0.6,1.1,1.4,1.1,2.3c0,0.8-0.4,1.6-0.9,2.1C41.2,74.7,40.9,74.8,40.2,74.9z
			 M37.9,71.7l-0.2,1.7H38c0.8,0,1.3-0.4,1.3-0.9c0-0.5-0.3-0.8-1.1-0.8H37.9z"/>
		<path class="st5" d="M50.5,69.2l-0.3,2.4h-2.8l-0.1,1h2.5L49.6,75H47l-0.1,1.1h2.9l-0.3,2.5h-6.2l1.1-9.3H50.5z"/>
		<path class="st5" d="M55.2,69.2l-0.8,6.5l2.9-0.1l-0.4,2.9h-6.3l1.1-9.3H55.2z"/>
		<path class="st5" d="M61.3,77.3l-0.4,1.2h-3.6l4.3-9.3h3.9l1.7,9.3h-3.5l-0.1-1.2H61.3z M62,75.2h1.3l-0.1-1.7c0-0.2,0-0.4,0-0.7
			c0-0.3,0-0.4,0-0.7h-0.1c-0.1,0.5-0.2,0.9-0.4,1.4L62,75.2z"/>
		<path class="st5" d="M78.4,69.2l-1.1,9.3H74l-1.6-3.2c-0.3-0.7-0.5-1.2-0.7-1.9l-0.1-0.2h-0.1c0,0.4,0.1,0.7,0.1,1.1
			c0,0.4,0,0.7,0,0.9l-0.3,3.2h-3.4l1.1-9.3h3.4l1.7,3.5c0.2,0.4,0.4,0.9,0.6,1.7l0.1,0.3l0.1,0l0-0.3c0-0.5-0.1-0.9-0.1-1.3
			c0-0.4,0-0.7,0.1-1.1l0.2-2.8H78.4z"/>
		<path class="st5" d="M80,69.2h3.2c3.3,0,5.3,1.7,5.3,4.5c0,1.5-0.6,2.8-1.7,3.7c-1,0.8-2.2,1.1-4.1,1.1h-3.7L80,69.2z M83,72
			l-0.5,3.8H83c1.1,0,2-0.9,2-2.1c0-1-0.7-1.7-1.6-1.7H83z"/>
	</g>
</g>
</svg>
