<?xml version="1.0" encoding="utf-8"?>
<!-- Generator: Adobe Illustrator 16.0.0, SVG Export Plug-In . SVG Version: 6.00 Build 0)  -->
<!DOCTYPE svg PUBLIC "-//W3C//DTD SVG 1.0//EN" "http://www.w3.org/TR/2001/REC-SVG-20010904/DTD/svg10.dtd">
<svg version="1.0" xmlns="http://www.w3.org/2000/svg" xmlns:xlink="http://www.w3.org/1999/xlink" x="0px" y="0px" width="300px"
	 height="300px" viewBox="0 0 300 300" style="enable-background:new 0 0 300 300;" xml:space="preserve">
<g id="Layer_1">
	<path style="fill:#B4A168;" d="M64.082,73.985c3.059,0,6.013-0.2,8.811-0.573V42.292c-2.798-0.374-5.752-0.574-8.811-0.574
		c-17.456,0-31.609,6.517-31.609,14.554v3.158C32.473,67.469,46.626,73.985,64.082,73.985"/>
	<path style="fill:#B4A168;" d="M64.082,90.235c3.059,0,6.013-0.2,8.811-0.572v-9.123c-2.798,0.372-5.752,0.576-8.811,0.576
		c-15.238,0-27.958-4.964-30.944-11.574c-0.435,0.961-0.666,1.96-0.666,2.98v3.158C32.473,83.72,46.626,90.235,64.082,90.235"/>
	<path style="fill:#B4A168;" d="M72.893,97.502v-0.711c-2.798,0.373-5.752,0.577-8.811,0.577c-15.238,0-27.956-4.966-30.944-11.576
		c-0.436,0.964-0.666,1.96-0.666,2.982v3.156c0,8.04,14.153,14.556,31.609,14.556c3.492,0,6.85-0.263,9.991-0.743
		c-0.78-1.616-1.18-3.319-1.18-5.086V97.502z"/>
	<path style="fill:#B4A168;" d="M109.661,17.064c-17.458,0-31.611,6.516-31.611,14.557v3.157c0,8.038,14.153,14.554,31.611,14.554
		c17.457,0,31.609-6.516,31.609-14.554v-3.157C141.271,23.581,127.118,17.064,109.661,17.064"/>
	<path style="fill:#B4A168;" d="M109.661,56.465c-15.238,0-27.958-4.966-30.946-11.574c-0.436,0.96-0.666,1.958-0.666,2.979v3.158
		c0,8.041,14.153,14.556,31.611,14.556c17.457,0,31.609-6.516,31.609-14.556V47.87c0-1.02-0.23-2.019-0.665-2.979
		C137.618,51.499,124.899,56.465,109.661,56.465"/>
	<path style="fill:#B4A168;" d="M109.661,72.715c-15.238,0-27.958-4.965-30.946-11.574c-0.436,0.962-0.666,1.959-0.666,2.981v3.156
		c0,8.041,14.153,14.558,31.611,14.558c17.457,0,31.609-6.517,31.609-14.558v-3.156c0-1.022-0.23-2.02-0.665-2.981
		C137.618,67.75,124.899,72.715,109.661,72.715"/>
	<path style="fill:#B4A168;" d="M109.661,89.843c-15.238,0-27.958-4.966-30.946-11.576c-0.436,0.963-0.666,1.96-0.666,2.982v3.158
		c0,8.039,14.153,14.555,31.611,14.555c17.457,0,31.609-6.516,31.609-14.555V81.25c0-1.022-0.23-2.02-0.665-2.982
		C137.618,84.877,124.899,89.843,109.661,89.843"/>
	<path style="fill:#B4A168;" d="M109.661,106.094c-15.238,0-27.958-4.964-30.946-11.574c-0.436,0.964-0.666,1.96-0.666,2.982v3.156
		c0,8.04,14.153,14.555,31.611,14.555c17.457,0,31.609-6.516,31.609-14.555v-3.156c0-1.022-0.23-2.021-0.665-2.982
		C137.618,101.129,124.899,106.094,109.661,106.094"/>
</g>
<g id="Layer_2" style="display:none;">
	<text transform="matrix(1 0 0 1 27.8564 168.9453)" style="display:inline;"><tspan x="0" y="0" style="fill:#1A2A4F; font-family:'FSMatthew-Bold'; font-size:65.8839;">BEL</tspan><tspan x="107.39" y="0" style="fill:#1A2A4F; font-family:'FSMatthew-Bold'; font-size:65.8839; letter-spacing:-3;">F</tspan><tspan x="138.881" y="0" style="fill:#1A2A4F; font-family:'FSMatthew-Bold'; font-size:65.8839;">A</tspan><tspan x="181.508" y="0" style="fill:#1A2A4F; font-family:'FSMatthew-Bold'; font-size:65.8839; letter-spacing:-2;">S</tspan><tspan x="214.778" y="0" style="fill:#1A2A4F; font-family:'FSMatthew-Bold'; font-size:65.8839;">T</tspan></text>
	<text transform="matrix(1 0 0 1 32.7266 197.0225)" style="display:inline;"><tspan x="0" y="0" style="fill:#1A2A4F; font-family:'FSMatthew-Bold'; font-size:21.4605;">is one </tspan><tspan x="61.032" y="0" style="fill:#1A2A4F; font-family:'FSMatthew-Bold'; font-size:21.4605;">o</tspan><tspan x="72.857" y="0" style="fill:#1A2A4F; font-family:'FSMatthew-Bold'; font-size:21.4605;">f the </tspan><tspan x="124.447" y="0" style="fill:#1A2A4F; font-family:'FSMatthew-Bold'; font-size:21.4605;">t</tspan><tspan x="133.546" y="0" style="fill:#1A2A4F; font-family:'FSMatthew-Bold'; font-size:21.4605;">op 5 mo</tspan><tspan x="210.502" y="0" style="fill:#1A2A4F; font-family:'FSMatthew-Bold'; font-size:21.4605;">s</tspan><tspan x="219.859" y="0" style="fill:#1A2A4F; font-family:'FSMatthew-Bold'; font-size:21.4605;">t </tspan></text>
	<path style="display:inline;fill:#1A2A4F;" d="M42.967,218.67c0,0.925,0.022,1.976,0.022,3.113
		c-0.345,0.087-0.924,0.108-1.289,0.108c-0.409,0-0.944-0.043-1.289-0.108c-0.042-0.257-0.085-0.708-0.106-0.987h-0.043
		c-0.73,0.752-1.975,1.203-3.114,1.203c-2.146,0-3.692-1.332-3.692-3.542c0-3.437,3.048-4.018,5.604-4.018
		c0.172,0,0.581,0.021,0.924,0.044c0-0.129-0.022-0.408-0.043-0.516c-0.15-0.881-0.729-1.245-1.976-1.245
		c-0.966,0-2.318,0.194-3.349,0.451c-0.108-0.301-0.172-0.816-0.172-1.202c0-0.323,0.043-0.816,0.129-1.03
		c1.202-0.365,2.684-0.56,3.908-0.56c2.684,0,4.487,1.245,4.487,4.036V218.67z M40.004,216.545
		c-0.258-0.021-0.602-0.042-0.902-0.042c-1.933,0-2.684,0.771-2.684,1.739c0,0.836,0.557,1.416,1.524,1.416
		c0.709,0,1.503-0.344,2.062-0.837V216.545z M49.553,212.809v8.975c-0.301,0.065-1.009,0.108-1.46,0.108
		c-0.365,0-1.202-0.043-1.503-0.108v-8.975h-1.825c-0.086-0.258-0.15-0.771-0.15-1.031c0-0.364,0.063-0.814,0.171-1.052l1.804-0.128
		v-0.451c0-2.835,1.61-4.295,4.058-4.295c0.708,0,1.589,0.151,2.233,0.387c0.085,0.258,0.107,0.645,0.107,0.944
		c0,0.321-0.086,0.752-0.214,1.096c-0.473-0.15-1.031-0.236-1.589-0.236c-1.074,0-1.632,0.666-1.632,2.04v0.516h3.929v-0.323
		c0-2.876,1.482-4.423,4.295-4.423c0.666,0,1.61,0.151,2.254,0.387c0.086,0.258,0.107,0.645,0.107,0.944
		c0,0.321-0.086,0.752-0.215,1.096c-0.472-0.15-1.031-0.236-1.589-0.236c-1.245,0-1.89,0.666-1.89,2.104v0.451h2.749
		c0.107,0.365,0.128,0.858,0.128,1.094c0,0.259-0.042,0.73-0.107,1.117h-2.77v8.975c-0.301,0.065-1.009,0.108-1.46,0.108
		c-0.365,0-1.202-0.043-1.503-0.108v-8.975H49.553z M65.327,221.999c-3.242,0-5.304-2.083-5.304-5.777c0-3.671,2.04-5.84,5.304-5.84
		c3.264,0,5.303,2.147,5.303,5.818C70.63,219.873,68.59,221.999,65.327,221.999z M65.327,212.701c-1.396,0-2.255,0.945-2.255,3.499
		c0,2.557,0.859,3.479,2.255,3.479c1.396,0,2.254-0.923,2.254-3.479C67.581,213.625,66.722,212.701,65.327,212.701z M78.998,212.873
		c-1.116,0.171-2.319,0.559-3.392,1.116v7.794c-0.301,0.065-0.945,0.108-1.461,0.108c-0.514,0-1.266-0.043-1.502-0.108v-11.186
		c0.322-0.043,0.859-0.107,1.289-0.107c0.365,0,0.944,0.043,1.246,0.107l0.171,1.374c0.794-0.71,2.233-1.481,3.629-1.59
		c0.042,0.173,0.086,0.795,0.086,1.245C79.062,212.057,79.041,212.572,78.998,212.873z M90.095,221.783
		c-0.343,0.065-0.923,0.108-1.374,0.108c-0.408,0-0.88-0.043-1.182-0.108l-0.085-0.987c-0.773,0.752-1.761,1.203-2.921,1.203
		c-3.2,0-4.574-2.556-4.574-5.626c0-3.308,1.482-5.991,4.896-5.991c0.837,0,1.804,0.258,2.276,0.56v-4.812
		c0.386-0.062,1.031-0.105,1.502-0.105c0.58,0,1.031,0.064,1.46,0.105V221.783z M87.132,213.152
		c-0.516-0.235-1.181-0.365-1.739-0.365c-1.74,0-2.383,1.547-2.383,3.413c0,1.568,0.386,3.351,2.126,3.351
		c0.837,0,1.481-0.343,1.997-0.772V213.152z M101.619,218.67c0,0.925,0.022,1.976,0.022,3.113c-0.345,0.087-0.924,0.108-1.289,0.108
		c-0.409,0-0.944-0.043-1.289-0.108c-0.042-0.257-0.085-0.708-0.107-0.987h-0.043c-0.73,0.752-1.975,1.203-3.114,1.203
		c-2.146,0-3.692-1.332-3.692-3.542c0-3.437,3.048-4.018,5.604-4.018c0.172,0,0.58,0.021,0.923,0.044
		c0-0.129-0.021-0.408-0.043-0.516c-0.15-0.881-0.729-1.245-1.975-1.245c-0.966,0-2.319,0.194-3.35,0.451
		c-0.107-0.301-0.172-0.816-0.172-1.202c0-0.323,0.043-0.816,0.129-1.03c1.202-0.365,2.684-0.56,3.908-0.56
		c2.684,0,4.487,1.245,4.487,4.036V218.67z M98.656,216.545c-0.258-0.021-0.602-0.042-0.902-0.042c-1.933,0-2.684,0.771-2.684,1.739
		c0,0.836,0.557,1.416,1.524,1.416c0.709,0,1.503-0.344,2.062-0.837V216.545z M108.44,221.999c-1.03,0-2.792-0.129-4.188-0.667
		V206.13c0.323-0.062,0.924-0.105,1.439-0.105c0.644,0,1.288,0.064,1.524,0.105v4.962c0.666-0.366,1.675-0.71,2.62-0.71
		c3.349,0,4.552,2.684,4.552,5.367C114.389,219.443,112.456,221.999,108.44,221.999z M109.256,212.787
		c-0.708,0-1.481,0.235-2.04,0.603v6.14c0.322,0.087,0.902,0.15,1.482,0.15c1.89,0,2.64-1.331,2.64-3.758
		C111.339,214.248,110.845,212.787,109.256,212.787z M119.406,221.783c-0.386,0.087-1.18,0.108-1.524,0.108
		c-0.516,0-1.074-0.043-1.439-0.108V206.13c0.472-0.062,1.052-0.105,1.439-0.105c0.515,0,1.116,0.043,1.524,0.105V221.783z
		 M131.385,217.231H124.6c0.043,1.396,1.009,2.427,2.877,2.427c1.01,0,2.04-0.129,2.92-0.365c0.129,0.58,0.215,1.225,0.215,1.804
		c0,0.087,0,0.192-0.021,0.43c-1.096,0.322-2.234,0.473-3.351,0.473c-4.08,0-5.775-2.341-5.775-5.756
		c0-2.983,1.674-5.861,5.303-5.861c3.436,0,4.681,2.535,4.681,5.326C131.449,216.095,131.449,216.673,131.385,217.231z
		 M128.486,215.105c0-1.353-0.366-2.49-1.761-2.49c-1.332,0-2.041,1.053-2.125,2.49H128.486z M146.234,211.8
		c0,0.473-0.064,0.987-0.215,1.438c-0.708-0.278-1.632-0.451-2.512-0.451c-1.674,0-2.812,1.074-2.812,3.479
		c0,2.104,0.966,3.329,2.834,3.329c0.967,0,1.891-0.173,2.577-0.408c0.128,0.472,0.193,1.053,0.193,1.504c0,0.3,0,0.515-0.022,0.707
		c-0.857,0.386-1.996,0.602-3.07,0.602c-3.714,0-5.562-2.168-5.562-5.69c0-3.651,1.932-5.927,5.69-5.927
		c1.051,0,2.083,0.216,2.812,0.56C146.213,211.177,146.234,211.478,146.234,211.8z M150.115,209.373c-0.9,0-1.631-0.73-1.631-1.632
		c0-0.902,0.73-1.633,1.631-1.633c0.902,0,1.633,0.73,1.633,1.633C151.748,208.643,151.018,209.373,150.115,209.373z
		 M151.598,221.783c-0.387,0.087-1.181,0.108-1.525,0.108c-0.514,0-1.072-0.043-1.438-0.108v-11.186
		c0.473-0.064,1.052-0.107,1.438-0.107c0.516,0,1.053,0.043,1.525,0.107V221.783z M161.492,221.57
		c-0.644,0.257-1.416,0.429-2.662,0.429c-2.426,0-3.629-1.182-3.629-3.542v-5.648h-1.846c-0.086-0.321-0.15-0.858-0.15-1.139
		c0-0.257,0.064-0.729,0.129-0.944l1.867-0.128v-2.878c0.236-0.043,0.988-0.086,1.482-0.086c0.536,0,1.201,0.043,1.481,0.086v2.878
		h3.092c0.085,0.3,0.129,0.729,0.129,0.967c0,0.257-0.021,0.944-0.107,1.244h-3.113v5.217c0,1.074,0.429,1.546,1.481,1.546
		c0.58,0,1.289-0.085,1.782-0.257c0.085,0.28,0.193,0.816,0.193,1.311C161.622,220.882,161.579,221.332,161.492,221.57z
		 M165.203,209.373c-0.902,0-1.632-0.73-1.632-1.632c0-0.902,0.729-1.633,1.632-1.633c0.901,0,1.632,0.73,1.632,1.633
		C166.835,208.643,166.104,209.373,165.203,209.373z M166.685,221.783c-0.387,0.087-1.182,0.108-1.524,0.108
		c-0.516,0-1.074-0.043-1.439-0.108v-11.186c0.473-0.064,1.053-0.107,1.439-0.107c0.516,0,1.052,0.043,1.524,0.107V221.783z
		 M178.77,217.231h-6.785c0.044,1.396,1.01,2.427,2.876,2.427c1.011,0,2.041-0.129,2.922-0.365c0.129,0.58,0.215,1.225,0.215,1.804
		c0,0.087,0,0.192-0.021,0.43c-1.096,0.322-2.232,0.473-3.35,0.473c-4.08,0-5.776-2.341-5.776-5.756
		c0-2.983,1.675-5.861,5.303-5.861c3.438,0,4.683,2.535,4.683,5.326C178.835,216.095,178.835,216.673,178.77,217.231z
		 M175.871,215.105c0-1.353-0.364-2.49-1.761-2.49c-1.332,0-2.039,1.053-2.126,2.49H175.871z M184.152,221.999
		c-1.266,0-2.597-0.194-3.629-0.537c-0.063-0.321-0.086-0.729-0.086-1.16c0-0.344,0.086-0.837,0.173-1.137
		c0.987,0.343,2.405,0.579,3.242,0.579c1.158,0,1.825-0.386,1.825-1.182c0-0.686-0.537-1.01-1.952-1.46
		c-2.257-0.708-3.31-1.761-3.31-3.392c0-2.428,2.235-3.329,4.36-3.329c0.987,0,2.082,0.173,2.834,0.408
		c0.086,0.323,0.128,0.774,0.128,1.031c0,0.278-0.084,0.857-0.192,1.223c-0.73-0.214-1.739-0.387-2.577-0.387
		c-1.03,0-1.739,0.26-1.739,0.902c0,0.688,0.796,0.967,2.04,1.375c2.17,0.709,3.2,1.61,3.2,3.308
		C188.47,220.86,186.365,221.999,184.152,221.999z M202.44,221.57c-0.645,0.257-1.419,0.429-2.662,0.429
		c-2.428,0-3.628-1.182-3.628-3.542v-5.648h-1.848c-0.086-0.321-0.15-0.858-0.15-1.139c0-0.257,0.064-0.729,0.129-0.944l1.869-0.128
		v-2.878c0.235-0.043,0.986-0.086,1.479-0.086c0.538,0,1.204,0.043,1.482,0.086v2.878h3.092c0.086,0.3,0.129,0.729,0.129,0.967
		c0,0.257-0.021,0.944-0.107,1.244h-3.113v5.217c0,1.074,0.43,1.546,1.482,1.546c0.578,0,1.287-0.085,1.782-0.257
		c0.085,0.28,0.193,0.816,0.193,1.311C202.57,220.882,202.526,221.332,202.44,221.57z M209.092,221.999
		c-3.242,0-5.303-2.083-5.303-5.777c0-3.671,2.039-5.84,5.303-5.84s5.303,2.147,5.303,5.818
		C214.395,219.873,212.355,221.999,209.092,221.999z M209.092,212.701c-1.396,0-2.254,0.945-2.254,3.499
		c0,2.557,0.857,3.479,2.254,3.479c1.396,0,2.255-0.923,2.255-3.479C211.347,213.625,210.487,212.701,209.092,212.701z"/>
	<text transform="matrix(1 0 0 1 32.7266 246.5479)" style="display:inline;"><tspan x="0" y="0" style="fill:#1A2A4F; font-family:'FSMatthew-Bold'; font-size:21.4605;">s</tspan><tspan x="9.356" y="0" style="fill:#1A2A4F; font-family:'FSMatthew-Bold'; font-size:21.4605;">t</tspan><tspan x="18.284" y="0" style="fill:#1A2A4F; font-family:'FSMatthew-Bold'; font-size:21.4605;">udy in the UK</tspan></text>
	<text transform="matrix(1 0 0 1 32.4473 276.8604)" style="display:inline;"><tspan x="0" y="0" style="fill:#1A2A4F; font-family:'FSMatthew-Bold'; font-size:13.3944;">(</tspan><tspan x="5.144" y="0" style="fill:#1A2A4F; font-family:'FSMatthew-Bold'; font-size:13.3944;">Sou</tspan><tspan x="27.458" y="0" style="fill:#1A2A4F; font-family:'FSMatthew-Bold'; font-size:13.3944;">r</tspan><tspan x="32.441" y="0" style="fill:#1A2A4F; font-family:'FSMatthew-Bold'; font-size:13.3944;">c</tspan><tspan x="38.548" y="0" style="fill:#1A2A4F; font-family:'FSMatthew-Bold'; font-size:13.3944;">e: independent</tspan><tspan x="128.691" y="0" style="fill:#1A2A4F; font-family:'FSMatthew-Bold'; font-size:13.3944;">.</tspan><tspan x="131.745" y="0" style="fill:#1A2A4F; font-family:'FSMatthew-Bold'; font-size:13.3944;">c</tspan><tspan x="137.853" y="0" style="fill:#1A2A4F; font-family:'FSMatthew-Bold'; font-size:13.3944;">o</tspan><tspan x="145.152" y="0" style="fill:#1A2A4F; font-family:'FSMatthew-Bold'; font-size:13.3944;">.</tspan><tspan x="148.22" y="0" style="fill:#1A2A4F; font-family:'FSMatthew-Bold'; font-size:13.3944;">uk)</tspan></text>
</g>
<g id="Layer_3">
	<g>
		<path style="fill:#1A2A4F;" d="M46.7,169.274c-4.678,0-9.224-0.132-13.902-0.395v-44.409c3.822-0.264,8.895-0.395,12.321-0.395
			c10.146,0,16.34,3.097,16.34,11.464c0,4.217-1.779,7.379-5.93,9.224c5.534,1.318,9.092,5.337,9.092,10.739
			C64.622,165.783,57.176,169.274,46.7,169.274z M45.778,131.851c-1.186,0-2.504,0.066-3.558,0.132v10.015h3.69
			c4.283,0,6.325-1.384,6.325-5.403C52.235,132.444,49.006,131.851,45.778,131.851z M46.832,149.377H42.22v11.991
			c1.252,0.066,3.097,0.132,4.349,0.132c5.864,0,8.697-1.647,8.697-6.062C55.266,150.892,52.828,149.377,46.832,149.377z"/>
		<path style="fill:#1A2A4F;" d="M98.815,168.945H70.944v-44.54h27.277c0.264,0.725,0.461,2.108,0.461,3.953
			c0,1.45-0.132,2.702-0.461,4.085H80.366v9.62h15.088c0.264,0.725,0.461,2.042,0.461,3.887c0,1.449-0.132,2.635-0.461,4.019H80.366
			v10.938h18.449c0.264,0.725,0.461,2.108,0.461,3.953C99.276,166.31,99.145,167.562,98.815,168.945z"/>
		<path style="fill:#1A2A4F;" d="M133.404,168.945h-27.277v-44.54c1.252-0.198,2.965-0.329,4.612-0.329
			c1.845,0,3.624,0.131,4.81,0.329v36.502h17.855c0.264,0.725,0.461,2.108,0.461,3.953
			C133.865,166.31,133.733,167.562,133.404,168.945z"/>
		<path style="fill:#1A2A4F;" d="M167.136,132.444h-17.526v9.62h14.759c0.264,0.725,0.461,2.042,0.461,3.887
			c0,1.449-0.131,2.635-0.461,4.019h-14.759v18.976c-1.251,0.197-2.701,0.329-4.678,0.329c-1.779,0-3.492-0.132-4.744-0.329v-44.54
			h26.948c0.264,0.725,0.461,2.108,0.461,3.953C167.597,129.808,167.465,131.06,167.136,132.444z"/>
		<path style="fill:#1A2A4F;" d="M209.037,168.945c-0.856,0.197-2.899,0.329-5.073,0.329c-1.713,0-3.689-0.197-4.546-0.329
			l-3.295-9.026h-15.812l-3.097,9.026c-1.45,0.197-3.163,0.329-4.876,0.329s-3.689-0.132-4.678-0.329l15.549-44.54
			c0.923-0.198,3.097-0.329,4.547-0.329c1.778,0,3.887,0.131,4.611,0.329L209.037,168.945z M193.29,152.078l-3.888-12.584
			c-0.461-1.45-0.922-3.294-1.317-5.337h-0.132c-0.329,2.042-0.856,3.887-1.317,5.337l-3.69,12.584H193.29z"/>
		<path style="fill:#1A2A4F;" d="M226.429,169.604c-4.81,0-10.08-0.923-13.836-2.636c-0.197-0.923-0.329-2.108-0.329-3.163
			c0-1.581,0.197-3.097,0.658-4.875c3.888,1.581,9.027,2.569,13.046,2.569c4.678,0,7.182-2.174,7.182-5.14
			c0-3.294-2.108-4.678-8.499-6.654c-7.116-2.174-12.321-5.6-12.321-13.243c0-8.17,7.05-12.716,16.34-12.716
			c4.283,0,8.104,0.659,10.674,1.515c0.198,0.725,0.33,1.911,0.33,3.624c0,1.252-0.132,3.163-0.396,4.217
			c-3.295-0.856-7.05-1.318-10.081-1.318c-4.941,0-7.643,1.647-7.643,4.283c0,3.097,2.438,4.349,8.367,6.193
			c7.116,2.24,12.387,5.601,12.387,13.507C242.308,164.399,235.521,169.604,226.429,169.604z"/>
		<path style="fill:#1A2A4F;" d="M277.16,132.444h-11.794v36.501c-1.252,0.197-3.031,0.329-4.679,0.329
			c-1.646,0-3.426-0.132-4.743-0.329v-36.501H244.15c-0.264-0.857-0.461-2.899-0.461-4.02c0-1.12,0.263-3.163,0.526-4.019h32.944
			c0.264,0.856,0.461,2.899,0.461,4.019C277.621,129.544,277.424,131.587,277.16,132.444z"/>
	</g>
	<g>
		<path style="fill:#1A2A4F;" d="M35.687,184.622c-0.901,0-1.63-0.729-1.63-1.631c0-0.9,0.729-1.63,1.63-1.63
			c0.901,0,1.631,0.729,1.631,1.63C37.318,183.893,36.588,184.622,35.687,184.622z M37.167,197.022
			c-0.386,0.086-1.18,0.107-1.523,0.107c-0.515,0-1.073-0.043-1.438-0.107v-11.178c0.472-0.064,1.051-0.107,1.438-0.107
			c0.515,0,1.051,0.043,1.523,0.107V197.022z"/>
		<path style="fill:#1A2A4F;" d="M43.283,197.237c-1.266,0-2.596-0.193-3.625-0.537c-0.064-0.321-0.086-0.729-0.086-1.158
			c0-0.343,0.086-0.837,0.172-1.137c0.987,0.343,2.403,0.579,3.239,0.579c1.159,0,1.824-0.386,1.824-1.18
			c0-0.687-0.536-1.009-1.952-1.459c-2.253-0.708-3.304-1.76-3.304-3.39c0-2.425,2.231-3.325,4.355-3.325
			c0.987,0,2.081,0.171,2.832,0.407c0.086,0.322,0.129,0.772,0.129,1.03c0,0.278-0.086,0.857-0.193,1.223
			c-0.729-0.215-1.738-0.387-2.575-0.387c-1.03,0-1.738,0.258-1.738,0.901c0,0.687,0.794,0.966,2.038,1.373
			c2.167,0.708,3.197,1.609,3.197,3.304C47.596,196.1,45.493,197.237,43.283,197.237z"/>
		<path style="fill:#1A2A4F;" d="M59.142,197.237c-3.24,0-5.299-2.081-5.299-5.771c0-3.669,2.038-5.835,5.299-5.835
			c3.261,0,5.299,2.145,5.299,5.813S62.403,197.237,59.142,197.237z M59.142,187.947c-1.395,0-2.253,0.944-2.253,3.497
			s0.858,3.476,2.253,3.476c1.394,0,2.252-0.923,2.252-3.476C61.395,188.87,60.536,187.947,59.142,187.947z"/>
		<path style="fill:#1A2A4F;" d="M76.287,197.022c-0.343,0.086-1.072,0.107-1.416,0.107c-0.365,0-1.202-0.043-1.545-0.107v-7.337
			c0-1.159-0.601-1.652-1.566-1.652c-0.772,0-1.652,0.279-2.339,0.708v8.281c-0.493,0.086-1.18,0.107-1.566,0.107
			c-0.343,0-0.965-0.021-1.395-0.107v-11.178c0.279-0.064,0.965-0.107,1.287-0.107c0.3,0,0.923,0.043,1.245,0.107l0.15,0.987
			c0.965-0.708,2.36-1.201,3.604-1.201c2.36,0,3.54,1.458,3.54,3.904V197.022z"/>
		<path style="fill:#1A2A4F;" d="M88.176,192.475h-6.779c0.043,1.395,1.008,2.424,2.875,2.424c1.009,0,2.039-0.129,2.918-0.364
			c0.129,0.579,0.214,1.223,0.214,1.802c0,0.086,0,0.193-0.021,0.429c-1.094,0.322-2.231,0.473-3.347,0.473
			c-4.076,0-5.771-2.339-5.771-5.75c0-2.982,1.673-5.856,5.299-5.856c3.433,0,4.677,2.531,4.677,5.32
			C88.241,191.337,88.241,191.916,88.176,192.475z M85.28,190.351c0-1.352-0.365-2.489-1.759-2.489c-1.33,0-2.038,1.052-2.124,2.489
			H85.28z"/>
		<path style="fill:#1A2A4F;" d="M99.745,197.237c-3.24,0-5.299-2.081-5.299-5.771c0-3.669,2.038-5.835,5.299-5.835
			c3.261,0,5.299,2.145,5.299,5.813S103.005,197.237,99.745,197.237z M99.745,187.947c-1.395,0-2.253,0.944-2.253,3.497
			s0.858,3.476,2.253,3.476c1.394,0,2.252-0.923,2.252-3.476C101.997,188.87,101.139,187.947,99.745,187.947z"/>
		<path style="fill:#1A2A4F;" d="M114.422,183.528c-0.472-0.15-1.03-0.236-1.587-0.236c-1.244,0-1.888,0.665-1.888,2.103v0.45h2.746
			c0.107,0.365,0.129,0.858,0.129,1.095c0,0.257-0.043,0.729-0.107,1.115h-2.768v8.968c-0.3,0.064-1.008,0.107-1.458,0.107
			c-0.365,0-1.202-0.043-1.502-0.107v-8.968h-1.824c-0.085-0.258-0.15-0.772-0.15-1.029c0-0.365,0.064-0.815,0.171-1.052
			l1.802-0.129v-0.321c0-2.875,1.48-4.42,4.291-4.42c0.665,0,1.609,0.15,2.252,0.387c0.086,0.257,0.107,0.644,0.107,0.943
			C114.637,182.756,114.551,183.185,114.422,183.528z"/>
		<path style="fill:#1A2A4F;" d="M127.728,196.808c-0.644,0.258-1.416,0.43-2.66,0.43c-2.424,0-3.625-1.181-3.625-3.54v-5.643
			h-1.845c-0.086-0.321-0.15-0.858-0.15-1.137c0-0.258,0.064-0.729,0.128-0.944l1.867-0.129v-2.875
			c0.236-0.042,0.987-0.085,1.48-0.085c0.537,0,1.202,0.043,1.48,0.085v2.875h3.089c0.086,0.301,0.129,0.729,0.129,0.966
			c0,0.258-0.021,0.943-0.107,1.244h-3.111v5.213c0,1.073,0.429,1.545,1.48,1.545c0.579,0,1.287-0.086,1.781-0.257
			c0.085,0.278,0.193,0.814,0.193,1.309C127.856,196.121,127.813,196.572,127.728,196.808z"/>
		<path style="fill:#1A2A4F;" d="M139.702,189.535v7.487c-0.343,0.086-1.073,0.107-1.416,0.107c-0.365,0-1.201-0.043-1.544-0.107
			v-7.315c0-1.159-0.601-1.674-1.566-1.674c-0.772,0-1.716,0.279-2.402,0.708v8.281c-0.494,0.086-1.18,0.107-1.566,0.107
			c-0.343,0-0.965-0.021-1.395-0.107v-15.64c0.279-0.064,0.901-0.107,1.438-0.107s1.201,0.043,1.523,0.107v5.256
			c0.944-0.601,2.252-1.008,3.39-1.008C138.522,185.631,139.702,187.089,139.702,189.535z"/>
		<path style="fill:#1A2A4F;" d="M151.591,192.475h-6.779c0.043,1.395,1.008,2.424,2.875,2.424c1.008,0,2.038-0.129,2.917-0.364
			c0.129,0.579,0.214,1.223,0.214,1.802c0,0.086,0,0.193-0.021,0.429c-1.094,0.322-2.231,0.473-3.347,0.473
			c-4.076,0-5.771-2.339-5.771-5.75c0-2.982,1.673-5.856,5.299-5.856c3.433,0,4.677,2.531,4.677,5.32
			C151.655,191.337,151.655,191.916,151.591,192.475z M148.695,190.351c0-1.352-0.365-2.489-1.759-2.489
			c-1.33,0-2.038,1.052-2.124,2.489H148.695z"/>
		<path style="fill:#1A2A4F;" d="M165.583,196.808c-0.644,0.258-1.416,0.43-2.66,0.43c-2.425,0-3.626-1.181-3.626-3.54v-5.643
			h-1.845c-0.086-0.321-0.149-0.858-0.149-1.137c0-0.258,0.063-0.729,0.128-0.944l1.866-0.129v-2.875
			c0.236-0.042,0.987-0.085,1.48-0.085c0.537,0,1.201,0.043,1.48,0.085v2.875h3.09c0.085,0.301,0.128,0.729,0.128,0.966
			c0,0.258-0.021,0.943-0.106,1.244h-3.111v5.213c0,1.073,0.43,1.545,1.48,1.545c0.579,0,1.287-0.086,1.78-0.257
			c0.086,0.278,0.193,0.814,0.193,1.309C165.712,196.121,165.669,196.572,165.583,196.808z"/>
		<path style="fill:#1A2A4F;" d="M172.258,197.237c-3.239,0-5.299-2.081-5.299-5.771c0-3.669,2.038-5.835,5.299-5.835
			c3.262,0,5.3,2.145,5.3,5.813S175.52,197.237,172.258,197.237z M172.258,187.947c-1.395,0-2.252,0.944-2.252,3.497
			s0.857,3.476,2.252,3.476s2.253-0.923,2.253-3.476C174.511,188.87,173.652,187.947,172.258,187.947z"/>
		<path style="fill:#1A2A4F;" d="M184.641,197.022c-0.665,0-1.566-0.107-2.103-0.258v5.3c-0.387,0.064-1.03,0.107-1.502,0.107
			c-0.579,0-1.03-0.064-1.459-0.107v-16.198c0.344-0.064,0.923-0.107,1.373-0.107c0.407,0,0.858,0.043,1.158,0.107l0.107,0.923
			c0.687-0.644,1.931-1.158,3.09-1.158c3.067,0,4.44,2.51,4.44,5.385C189.746,194.341,188.03,197.022,184.641,197.022z
			 M184.684,188.033c-0.794,0-1.631,0.322-2.146,0.794v5.686c0.407,0.128,1.201,0.214,1.759,0.214c1.588,0,2.403-1.309,2.403-3.476
			C186.7,189.127,185.928,188.033,184.684,188.033z"/>
		<path style="fill:#1A2A4F;" d="M200.521,197.237c-1.158,0-2.874-0.236-4.055-0.644c-0.043-0.15-0.107-0.537-0.107-0.966
			c0-0.472,0.064-0.966,0.193-1.373c0.987,0.301,2.51,0.493,3.712,0.493c1.522,0,2.51-0.814,2.51-2.273
			c0-0.622-0.172-1.181-0.536-1.545c-0.472-0.472-1.266-0.665-2.425-0.665h-2.811v-7.745h8.11c0.064,0.344,0.107,0.88,0.107,1.266
			c0,0.408-0.064,1.116-0.107,1.373h-5.364v2.66h0.944c1.674,0,3.004,0.301,3.947,1.116c0.837,0.729,1.309,1.845,1.309,3.39
			C205.949,195.606,203.439,197.237,200.521,197.237z"/>
		<path style="fill:#1A2A4F;" d="M229.961,197.022c-0.344,0.086-1.073,0.107-1.416,0.107c-0.365,0-1.202-0.043-1.545-0.107v-6.736
			c0-0.815-0.021-1.416-0.322-1.781c-0.278-0.343-0.708-0.472-1.244-0.472c-0.729,0-1.759,0.322-2.424,0.729
			c0.021,0.364,0.043,0.729,0.043,1.158v7.102c-0.344,0.086-1.073,0.107-1.416,0.107c-0.365,0-1.201-0.043-1.545-0.107v-6.736
			c0-0.815-0.021-1.416-0.322-1.781c-0.278-0.343-0.707-0.472-1.244-0.472c-0.751,0-1.716,0.301-2.381,0.708v8.281
			c-0.494,0.086-1.181,0.107-1.566,0.107c-0.343,0-0.966-0.021-1.395-0.107v-11.178c0.279-0.064,0.966-0.107,1.287-0.107
			c0.301,0,0.923,0.043,1.244,0.107l0.129,1.009c0.944-0.708,2.296-1.223,3.497-1.223c1.244,0,2.339,0.429,3.175,1.352
			c1.159-0.794,2.554-1.352,3.97-1.352c1.051,0,2.124,0.429,2.66,1.072c0.665,0.794,0.815,1.823,0.815,3.39V197.022z"/>
		<path style="fill:#1A2A4F;" d="M237.239,197.237c-3.239,0-5.299-2.081-5.299-5.771c0-3.669,2.038-5.835,5.299-5.835
			c3.262,0,5.3,2.145,5.3,5.813S240.501,197.237,237.239,197.237z M237.239,187.947c-1.395,0-2.252,0.944-2.252,3.497
			s0.857,3.476,2.252,3.476s2.253-0.923,2.253-3.476C239.492,188.87,238.634,187.947,237.239,187.947z"/>
		<path style="fill:#1A2A4F;" d="M247.862,197.237c-1.266,0-2.596-0.193-3.625-0.537c-0.064-0.321-0.086-0.729-0.086-1.158
			c0-0.343,0.086-0.837,0.171-1.137c0.987,0.343,2.403,0.579,3.24,0.579c1.158,0,1.823-0.386,1.823-1.18
			c0-0.687-0.536-1.009-1.952-1.459c-2.253-0.708-3.304-1.76-3.304-3.39c0-2.425,2.23-3.325,4.354-3.325
			c0.987,0,2.081,0.171,2.832,0.407c0.086,0.322,0.129,0.772,0.129,1.03c0,0.278-0.086,0.857-0.193,1.223
			c-0.729-0.215-1.737-0.387-2.574-0.387c-1.029,0-1.737,0.258-1.737,0.901c0,0.687,0.793,0.966,2.038,1.373
			c2.166,0.708,3.196,1.609,3.196,3.304C252.175,196.1,250.072,197.237,247.862,197.237z"/>
		<path style="fill:#1A2A4F;" d="M260.996,196.808c-0.644,0.258-1.416,0.43-2.66,0.43c-2.425,0-3.626-1.181-3.626-3.54v-5.643
			h-1.845c-0.086-0.321-0.15-0.858-0.15-1.137c0-0.258,0.064-0.729,0.129-0.944l1.866-0.129v-2.875
			c0.236-0.042,0.986-0.085,1.48-0.085c0.536,0,1.201,0.043,1.48,0.085v2.875h3.089c0.086,0.301,0.129,0.729,0.129,0.966
			c0,0.258-0.021,0.943-0.107,1.244h-3.11v5.213c0,1.073,0.429,1.545,1.479,1.545c0.58,0,1.288-0.086,1.781-0.257
			c0.086,0.278,0.193,0.814,0.193,1.309C261.125,196.121,261.082,196.572,260.996,196.808z"/>
	</g>
	<path style="fill:#1A2A4F;" d="M42.967,218.67c0,0.925,0.022,1.976,0.022,3.113c-0.345,0.087-0.924,0.108-1.289,0.108
		c-0.409,0-0.944-0.043-1.289-0.108c-0.042-0.257-0.085-0.708-0.106-0.987h-0.043c-0.73,0.752-1.975,1.203-3.114,1.203
		c-2.146,0-3.692-1.332-3.692-3.542c0-3.437,3.048-4.018,5.604-4.018c0.172,0,0.581,0.021,0.924,0.044
		c0-0.129-0.022-0.408-0.043-0.516c-0.15-0.881-0.729-1.245-1.976-1.245c-0.966,0-2.318,0.194-3.349,0.451
		c-0.108-0.301-0.172-0.816-0.172-1.202c0-0.323,0.043-0.816,0.129-1.03c1.202-0.365,2.684-0.56,3.908-0.56
		c2.684,0,4.487,1.245,4.487,4.036V218.67z M40.004,216.545c-0.258-0.021-0.602-0.042-0.902-0.042c-1.933,0-2.684,0.771-2.684,1.739
		c0,0.836,0.557,1.416,1.524,1.416c0.709,0,1.503-0.344,2.062-0.837V216.545z M49.553,212.809v8.975
		c-0.301,0.065-1.009,0.108-1.46,0.108c-0.365,0-1.202-0.043-1.503-0.108v-8.975h-1.825c-0.086-0.258-0.15-0.771-0.15-1.031
		c0-0.364,0.063-0.814,0.171-1.052l1.804-0.128v-0.451c0-2.835,1.61-4.295,4.058-4.295c0.708,0,1.589,0.151,2.233,0.387
		c0.085,0.258,0.107,0.645,0.107,0.944c0,0.321-0.086,0.752-0.214,1.096c-0.473-0.15-1.031-0.236-1.589-0.236
		c-1.074,0-1.632,0.666-1.632,2.04v0.516h3.929v-0.323c0-2.876,1.482-4.423,4.295-4.423c0.666,0,1.61,0.151,2.254,0.387
		c0.086,0.258,0.107,0.645,0.107,0.944c0,0.321-0.086,0.752-0.215,1.096c-0.472-0.15-1.031-0.236-1.589-0.236
		c-1.245,0-1.89,0.666-1.89,2.104v0.451h2.749c0.107,0.365,0.128,0.858,0.128,1.094c0,0.259-0.042,0.73-0.107,1.117h-2.77v8.975
		c-0.301,0.065-1.009,0.108-1.46,0.108c-0.365,0-1.202-0.043-1.503-0.108v-8.975H49.553z M65.327,221.999
		c-3.242,0-5.304-2.083-5.304-5.777c0-3.671,2.04-5.84,5.304-5.84c3.264,0,5.303,2.147,5.303,5.818
		C70.63,219.873,68.59,221.999,65.327,221.999z M65.327,212.701c-1.396,0-2.255,0.945-2.255,3.499c0,2.557,0.859,3.479,2.255,3.479
		c1.396,0,2.254-0.923,2.254-3.479C67.581,213.625,66.722,212.701,65.327,212.701z M78.998,212.873
		c-1.116,0.171-2.319,0.559-3.392,1.116v7.794c-0.301,0.065-0.945,0.108-1.461,0.108c-0.514,0-1.266-0.043-1.502-0.108v-11.186
		c0.322-0.043,0.859-0.107,1.289-0.107c0.365,0,0.944,0.043,1.246,0.107l0.171,1.374c0.794-0.71,2.233-1.481,3.629-1.59
		c0.042,0.173,0.086,0.795,0.086,1.245C79.062,212.057,79.041,212.572,78.998,212.873z M90.095,221.783
		c-0.343,0.065-0.923,0.108-1.374,0.108c-0.408,0-0.88-0.043-1.182-0.108l-0.085-0.987c-0.773,0.752-1.761,1.203-2.921,1.203
		c-3.2,0-4.574-2.556-4.574-5.626c0-3.308,1.482-5.991,4.896-5.991c0.837,0,1.804,0.258,2.276,0.56v-4.812
		c0.386-0.062,1.031-0.105,1.502-0.105c0.58,0,1.031,0.064,1.46,0.105V221.783z M87.132,213.152
		c-0.516-0.235-1.181-0.365-1.739-0.365c-1.74,0-2.383,1.547-2.383,3.413c0,1.568,0.386,3.351,2.126,3.351
		c0.837,0,1.481-0.343,1.997-0.772V213.152z M101.619,218.67c0,0.925,0.022,1.976,0.022,3.113c-0.345,0.087-0.924,0.108-1.289,0.108
		c-0.409,0-0.944-0.043-1.289-0.108c-0.042-0.257-0.085-0.708-0.107-0.987h-0.043c-0.73,0.752-1.975,1.203-3.114,1.203
		c-2.146,0-3.692-1.332-3.692-3.542c0-3.437,3.048-4.018,5.604-4.018c0.172,0,0.58,0.021,0.923,0.044
		c0-0.129-0.021-0.408-0.043-0.516c-0.15-0.881-0.729-1.245-1.975-1.245c-0.966,0-2.319,0.194-3.35,0.451
		c-0.107-0.301-0.172-0.816-0.172-1.202c0-0.323,0.043-0.816,0.129-1.03c1.202-0.365,2.684-0.56,3.908-0.56
		c2.684,0,4.487,1.245,4.487,4.036V218.67z M98.656,216.545c-0.258-0.021-0.602-0.042-0.902-0.042c-1.933,0-2.684,0.771-2.684,1.739
		c0,0.836,0.557,1.416,1.524,1.416c0.709,0,1.503-0.344,2.062-0.837V216.545z M108.44,221.999c-1.03,0-2.792-0.129-4.188-0.667
		V206.13c0.323-0.062,0.924-0.105,1.439-0.105c0.644,0,1.288,0.064,1.524,0.105v4.962c0.666-0.366,1.675-0.71,2.62-0.71
		c3.349,0,4.552,2.684,4.552,5.367C114.389,219.443,112.456,221.999,108.44,221.999z M109.256,212.787
		c-0.708,0-1.481,0.235-2.04,0.603v6.14c0.322,0.087,0.902,0.15,1.482,0.15c1.89,0,2.64-1.331,2.64-3.758
		C111.339,214.248,110.845,212.787,109.256,212.787z M119.406,221.783c-0.386,0.087-1.18,0.108-1.524,0.108
		c-0.516,0-1.074-0.043-1.439-0.108V206.13c0.472-0.062,1.052-0.105,1.439-0.105c0.515,0,1.116,0.043,1.524,0.105V221.783z
		 M131.385,217.231H124.6c0.043,1.396,1.009,2.427,2.877,2.427c1.01,0,2.04-0.129,2.92-0.365c0.129,0.58,0.215,1.225,0.215,1.804
		c0,0.087,0,0.192-0.021,0.43c-1.096,0.322-2.234,0.473-3.351,0.473c-4.08,0-5.775-2.341-5.775-5.756
		c0-2.983,1.674-5.861,5.303-5.861c3.436,0,4.681,2.535,4.681,5.326C131.449,216.095,131.449,216.673,131.385,217.231z
		 M128.486,215.105c0-1.353-0.366-2.49-1.761-2.49c-1.332,0-2.041,1.053-2.125,2.49H128.486z M146.234,211.8
		c0,0.473-0.064,0.987-0.215,1.438c-0.708-0.278-1.632-0.451-2.512-0.451c-1.674,0-2.812,1.074-2.812,3.479
		c0,2.104,0.966,3.329,2.834,3.329c0.967,0,1.891-0.173,2.577-0.408c0.128,0.472,0.193,1.053,0.193,1.504c0,0.3,0,0.515-0.022,0.707
		c-0.857,0.386-1.996,0.602-3.07,0.602c-3.714,0-5.562-2.168-5.562-5.69c0-3.651,1.932-5.927,5.69-5.927
		c1.051,0,2.083,0.216,2.812,0.56C146.213,211.177,146.234,211.478,146.234,211.8z M150.115,209.373c-0.9,0-1.631-0.73-1.631-1.632
		c0-0.902,0.73-1.633,1.631-1.633c0.902,0,1.633,0.73,1.633,1.633C151.748,208.643,151.018,209.373,150.115,209.373z
		 M151.598,221.783c-0.387,0.087-1.181,0.108-1.525,0.108c-0.514,0-1.072-0.043-1.438-0.108v-11.186
		c0.473-0.064,1.052-0.107,1.438-0.107c0.516,0,1.053,0.043,1.525,0.107V221.783z M161.492,221.57
		c-0.644,0.257-1.416,0.429-2.662,0.429c-2.426,0-3.629-1.182-3.629-3.542v-5.648h-1.846c-0.086-0.321-0.15-0.858-0.15-1.139
		c0-0.257,0.064-0.729,0.129-0.944l1.867-0.128v-2.878c0.236-0.043,0.988-0.086,1.482-0.086c0.536,0,1.201,0.043,1.481,0.086v2.878
		h3.092c0.085,0.3,0.129,0.729,0.129,0.967c0,0.257-0.021,0.944-0.107,1.244h-3.113v5.217c0,1.074,0.429,1.546,1.481,1.546
		c0.58,0,1.289-0.085,1.782-0.257c0.085,0.28,0.193,0.816,0.193,1.311C161.622,220.882,161.579,221.332,161.492,221.57z
		 M165.203,209.373c-0.902,0-1.632-0.73-1.632-1.632c0-0.902,0.729-1.633,1.632-1.633c0.901,0,1.632,0.73,1.632,1.633
		C166.835,208.643,166.104,209.373,165.203,209.373z M166.685,221.783c-0.387,0.087-1.182,0.108-1.524,0.108
		c-0.516,0-1.074-0.043-1.439-0.108v-11.186c0.473-0.064,1.053-0.107,1.439-0.107c0.516,0,1.052,0.043,1.524,0.107V221.783z
		 M178.77,217.231h-6.785c0.044,1.396,1.01,2.427,2.876,2.427c1.011,0,2.041-0.129,2.922-0.365c0.129,0.58,0.215,1.225,0.215,1.804
		c0,0.087,0,0.192-0.021,0.43c-1.096,0.322-2.232,0.473-3.35,0.473c-4.08,0-5.776-2.341-5.776-5.756
		c0-2.983,1.675-5.861,5.303-5.861c3.438,0,4.683,2.535,4.683,5.326C178.835,216.095,178.835,216.673,178.77,217.231z
		 M175.871,215.105c0-1.353-0.364-2.49-1.761-2.49c-1.332,0-2.039,1.053-2.126,2.49H175.871z M184.152,221.999
		c-1.266,0-2.597-0.194-3.629-0.537c-0.063-0.321-0.086-0.729-0.086-1.16c0-0.344,0.086-0.837,0.173-1.137
		c0.987,0.343,2.405,0.579,3.242,0.579c1.158,0,1.825-0.386,1.825-1.182c0-0.686-0.537-1.01-1.952-1.46
		c-2.257-0.708-3.31-1.761-3.31-3.392c0-2.428,2.235-3.329,4.36-3.329c0.987,0,2.082,0.173,2.834,0.408
		c0.086,0.323,0.128,0.774,0.128,1.031c0,0.278-0.084,0.857-0.192,1.223c-0.73-0.214-1.739-0.387-2.577-0.387
		c-1.03,0-1.739,0.26-1.739,0.902c0,0.688,0.796,0.967,2.04,1.375c2.17,0.709,3.2,1.61,3.2,3.308
		C188.47,220.86,186.365,221.999,184.152,221.999z M202.44,221.57c-0.645,0.257-1.419,0.429-2.662,0.429
		c-2.428,0-3.628-1.182-3.628-3.542v-5.648h-1.848c-0.086-0.321-0.15-0.858-0.15-1.139c0-0.257,0.064-0.729,0.129-0.944l1.869-0.128
		v-2.878c0.235-0.043,0.986-0.086,1.479-0.086c0.538,0,1.204,0.043,1.482,0.086v2.878h3.092c0.086,0.3,0.129,0.729,0.129,0.967
		c0,0.257-0.021,0.944-0.107,1.244h-3.113v5.217c0,1.074,0.43,1.546,1.482,1.546c0.578,0,1.287-0.085,1.782-0.257
		c0.085,0.28,0.193,0.816,0.193,1.311C202.57,220.882,202.526,221.332,202.44,221.57z M209.092,221.999
		c-3.242,0-5.303-2.083-5.303-5.777c0-3.671,2.039-5.84,5.303-5.84s5.303,2.147,5.303,5.818
		C214.395,219.873,212.355,221.999,209.092,221.999z M209.092,212.701c-1.396,0-2.254,0.945-2.254,3.499
		c0,2.557,0.857,3.479,2.254,3.479c1.396,0,2.255-0.923,2.255-3.479C211.347,213.625,210.487,212.701,209.092,212.701z"/>
	<g>
		<path style="fill:#1A2A4F;" d="M37.36,246.763c-1.266,0-2.596-0.193-3.625-0.537c-0.064-0.321-0.086-0.729-0.086-1.158
			c0-0.343,0.086-0.837,0.172-1.137c0.987,0.343,2.403,0.579,3.239,0.579c1.159,0,1.824-0.386,1.824-1.18
			c0-0.687-0.536-1.009-1.952-1.459c-2.253-0.708-3.304-1.76-3.304-3.39c0-2.425,2.231-3.325,4.355-3.325
			c0.987,0,2.081,0.171,2.832,0.407c0.086,0.322,0.129,0.772,0.129,1.03c0,0.278-0.086,0.857-0.193,1.223
			c-0.729-0.215-1.738-0.387-2.575-0.387c-1.03,0-1.738,0.258-1.738,0.901c0,0.687,0.794,0.966,2.038,1.373
			c2.167,0.708,3.197,1.609,3.197,3.304C41.673,245.625,39.57,246.763,37.36,246.763z"/>
		<path style="fill:#1A2A4F;" d="M50.493,246.333c-0.644,0.258-1.416,0.43-2.661,0.43c-2.424,0-3.625-1.181-3.625-3.54v-5.643
			h-1.845c-0.086-0.321-0.15-0.858-0.15-1.137c0-0.258,0.064-0.729,0.128-0.944l1.867-0.129v-2.875
			c0.236-0.042,0.987-0.085,1.48-0.085c0.536,0,1.201,0.043,1.48,0.085v2.875h3.089c0.086,0.301,0.129,0.729,0.129,0.966
			c0,0.258-0.021,0.943-0.107,1.244h-3.111v5.213c0,1.073,0.429,1.545,1.48,1.545c0.579,0,1.287-0.086,1.781-0.257
			c0.085,0.278,0.193,0.814,0.193,1.309C50.622,245.646,50.579,246.098,50.493,246.333z"/>
		<path style="fill:#1A2A4F;" d="M61.909,242.235c0,3.197-1.501,4.527-4.849,4.527c-3.261,0-4.763-1.33-4.763-4.527v-6.865
			c0.3-0.043,0.88-0.107,1.459-0.107c0.515,0,1.159,0.043,1.502,0.107v6.844c0,1.674,0.493,2.274,1.845,2.274
			c1.373,0,1.845-0.601,1.845-2.274v-6.844c0.3-0.064,0.965-0.107,1.502-0.107c0.536,0,1.244,0.064,1.458,0.107V242.235z"/>
		<path style="fill:#1A2A4F;" d="M74.013,246.548c-0.344,0.064-0.923,0.107-1.373,0.107c-0.408,0-0.88-0.043-1.18-0.107
			l-0.086-0.987c-0.772,0.751-1.759,1.202-2.917,1.202c-3.197,0-4.57-2.554-4.57-5.621c0-3.304,1.48-5.985,4.892-5.985
			c0.836,0,1.802,0.257,2.274,0.558v-4.806c0.386-0.064,1.03-0.107,1.502-0.107c0.579,0,1.03,0.064,1.459,0.107V246.548z
			 M71.052,237.924c-0.515-0.236-1.18-0.365-1.738-0.365c-1.738,0-2.381,1.545-2.381,3.411c0,1.566,0.386,3.347,2.124,3.347
			c0.837,0,1.48-0.343,1.995-0.772V237.924z"/>
		<path style="fill:#1A2A4F;" d="M86.138,244.574c0,1.631-0.085,3.433-0.922,4.849c-1.008,1.694-2.703,2.402-4.612,2.402
			c-1.073,0-2.296-0.149-3.283-0.45c-0.064-0.193-0.107-0.708-0.107-1.03c0-0.257,0.086-0.879,0.15-1.137
			c0.858,0.236,2.017,0.387,2.811,0.387c1.287,0,2.06-0.451,2.531-1.31c0.429-0.771,0.494-1.63,0.494-2.467
			c-0.751,0.579-1.738,0.944-2.66,0.944c-2.811,0-3.948-1.459-3.948-4.227v-7.166c0.343-0.086,1.073-0.107,1.416-0.107
			c0.365,0,1.202,0.043,1.545,0.107v6.994c0,1.373,0.493,1.974,1.716,1.974c0.772,0,1.458-0.321,1.909-0.751v-8.217
			c0.494-0.086,1.18-0.107,1.566-0.107c0.344,0,0.966,0.021,1.395,0.107V244.574z"/>
		<path style="fill:#1A2A4F;" d="M95.26,234.147c-0.901,0-1.63-0.729-1.63-1.631c0-0.9,0.729-1.63,1.63-1.63
			c0.901,0,1.631,0.729,1.631,1.63C96.891,233.418,96.162,234.147,95.26,234.147z M96.741,246.548
			c-0.386,0.086-1.18,0.107-1.523,0.107c-0.515,0-1.073-0.043-1.438-0.107V235.37c0.472-0.064,1.051-0.107,1.438-0.107
			c0.515,0,1.051,0.043,1.523,0.107V246.548z"/>
		<path style="fill:#1A2A4F;" d="M109.379,246.548c-0.344,0.086-1.073,0.107-1.416,0.107c-0.365,0-1.202-0.043-1.545-0.107v-7.337
			c0-1.159-0.601-1.652-1.566-1.652c-0.772,0-1.652,0.279-2.338,0.708v8.281c-0.494,0.086-1.18,0.107-1.566,0.107
			c-0.343,0-0.965-0.021-1.395-0.107V235.37c0.279-0.064,0.965-0.107,1.287-0.107c0.301,0,0.923,0.043,1.245,0.107l0.15,0.987
			c0.966-0.708,2.36-1.201,3.604-1.201c2.36,0,3.54,1.458,3.54,3.904V246.548z"/>
		<path style="fill:#1A2A4F;" d="M123.907,246.333c-0.644,0.258-1.416,0.43-2.66,0.43c-2.424,0-3.625-1.181-3.625-3.54v-5.643
			h-1.845c-0.086-0.321-0.15-0.858-0.15-1.137c0-0.258,0.064-0.729,0.128-0.944l1.867-0.129v-2.875
			c0.236-0.042,0.987-0.085,1.48-0.085c0.537,0,1.202,0.043,1.48,0.085v2.875h3.089c0.086,0.301,0.129,0.729,0.129,0.966
			c0,0.258-0.021,0.943-0.107,1.244h-3.111v5.213c0,1.073,0.429,1.545,1.48,1.545c0.579,0,1.287-0.086,1.781-0.257
			c0.085,0.278,0.193,0.814,0.193,1.309C124.036,245.646,123.993,246.098,123.907,246.333z"/>
		<path style="fill:#1A2A4F;" d="M135.881,239.061v7.487c-0.343,0.086-1.073,0.107-1.416,0.107c-0.365,0-1.201-0.043-1.544-0.107
			v-7.315c0-1.159-0.601-1.674-1.566-1.674c-0.772,0-1.716,0.279-2.402,0.708v8.281c-0.494,0.086-1.18,0.107-1.566,0.107
			c-0.343,0-0.965-0.021-1.395-0.107v-15.64c0.279-0.064,0.901-0.107,1.438-0.107s1.201,0.043,1.523,0.107v5.256
			c0.944-0.601,2.252-1.008,3.39-1.008C134.702,235.156,135.881,236.614,135.881,239.061z"/>
		<path style="fill:#1A2A4F;" d="M147.771,242h-6.779c0.043,1.395,1.008,2.424,2.875,2.424c1.008,0,2.038-0.129,2.917-0.364
			c0.129,0.579,0.214,1.223,0.214,1.802c0,0.086,0,0.193-0.021,0.429c-1.094,0.322-2.231,0.473-3.347,0.473
			c-4.076,0-5.771-2.339-5.771-5.75c0-2.982,1.673-5.856,5.299-5.856c3.433,0,4.677,2.531,4.677,5.32
			C147.835,240.862,147.835,241.441,147.771,242z M144.875,239.876c0-1.352-0.365-2.489-1.759-2.489
			c-1.33,0-2.038,1.052-2.124,2.489H144.875z"/>
		<path style="fill:#1A2A4F;" d="M165.904,241.034c0,3.69-1.416,5.729-5.535,5.729c-4.162,0-5.471-2.038-5.471-5.729v-8.989
			c0.429-0.064,0.986-0.107,1.502-0.107c0.6,0,1.137,0.043,1.566,0.107v9.204c0,1.974,0.557,3.089,2.424,3.089
			c1.866,0,2.51-1.115,2.51-3.089v-9.204c0.387-0.064,1.029-0.107,1.523-0.107c0.472,0,1.115,0.043,1.48,0.107V241.034z"/>
		<path style="fill:#1A2A4F;" d="M180.454,246.548c-0.386,0.064-1.072,0.107-1.823,0.107c-0.537,0-1.309-0.043-1.76-0.107
			l-3.754-5.814l-0.987,1.181v4.634c-0.407,0.064-0.901,0.107-1.545,0.107c-0.579,0-1.115-0.043-1.522-0.107v-14.503
			c0.407-0.064,1.008-0.107,1.544-0.107c0.602,0,1.138,0.043,1.523,0.107v6.243l2.489-2.918c1.094-1.287,1.694-2.21,1.931-3.325
			c0.429-0.064,1.029-0.107,1.502-0.107c0.386,0,1.051,0.043,1.501,0.107c-0.321,1.695-1.223,3.176-2.51,4.655l-1.716,1.974
			L180.454,246.548z"/>
	</g>
	<g>
		<path style="fill:#1A2A4F;" d="M35.931,278.709c-1.715-1.581-2.76-3.51-2.76-5.814c0-2.345,1.085-4.327,2.76-5.814
			c0.402,0.081,0.871,0.456,1.058,0.724c-1.313,1.394-2.009,3.216-2.009,5.091c0,1.876,0.75,3.645,2.009,5.091
			C36.801,278.254,36.333,278.629,35.931,278.709z"/>
		<path style="fill:#1A2A4F;" d="M41.061,276.994c-0.978,0-2.05-0.188-2.813-0.536c-0.04-0.188-0.067-0.429-0.067-0.643
			c0-0.321,0.041-0.63,0.134-0.991c0.79,0.321,1.835,0.522,2.652,0.522c0.951,0,1.46-0.442,1.46-1.045
			c0-0.67-0.429-0.951-1.728-1.354c-1.447-0.442-2.505-1.139-2.505-2.692c0-1.661,1.433-2.586,3.322-2.586
			c0.871,0,1.648,0.134,2.17,0.308c0.04,0.147,0.067,0.389,0.067,0.737c0,0.255-0.027,0.643-0.08,0.857
			c-0.67-0.174-1.434-0.268-2.05-0.268c-1.005,0-1.554,0.335-1.554,0.87c0,0.63,0.496,0.885,1.701,1.26
			c1.447,0.455,2.519,1.139,2.519,2.746C44.29,275.936,42.91,276.994,41.061,276.994z"/>
		<path style="fill:#1A2A4F;" d="M48.562,276.994c-2.023,0-3.309-1.3-3.309-3.604c0-2.291,1.273-3.645,3.309-3.645
			c2.037,0,3.309,1.34,3.309,3.631S50.598,276.994,48.562,276.994z M48.562,271.193c-0.871,0-1.407,0.59-1.407,2.184
			c0,1.595,0.536,2.171,1.407,2.171c0.871,0,1.407-0.576,1.407-2.171C49.968,271.77,49.433,271.193,48.562,271.193z"/>
		<path style="fill:#1A2A4F;" d="M59.103,274.168c0,1.996-0.938,2.826-3.028,2.826c-2.036,0-2.974-0.83-2.974-2.826v-4.287
			c0.188-0.027,0.549-0.067,0.911-0.067c0.322,0,0.724,0.026,0.938,0.067v4.273c0,1.045,0.308,1.42,1.152,1.42
			c0.857,0,1.152-0.375,1.152-1.42v-4.273c0.188-0.041,0.603-0.067,0.938-0.067c0.334,0,0.777,0.04,0.911,0.067V274.168z"/>
		<path style="fill:#1A2A4F;" d="M64.702,271.301c-0.697,0.106-1.447,0.348-2.117,0.696v4.863c-0.188,0.04-0.59,0.067-0.911,0.067
			c-0.322,0-0.791-0.027-0.938-0.067v-6.979c0.201-0.027,0.536-0.067,0.804-0.067c0.228,0,0.59,0.026,0.777,0.067l0.107,0.857
			c0.496-0.442,1.394-0.925,2.264-0.992c0.027,0.107,0.054,0.496,0.054,0.777C64.742,270.791,64.729,271.113,64.702,271.301z"/>
		<path style="fill:#1A2A4F;" d="M70.676,270.631c0,0.295-0.04,0.616-0.134,0.897c-0.442-0.174-1.019-0.281-1.568-0.281
			c-1.045,0-1.755,0.67-1.755,2.17c0,1.313,0.603,2.077,1.769,2.077c0.603,0,1.179-0.107,1.607-0.255
			c0.081,0.295,0.121,0.656,0.121,0.938c0,0.188,0,0.322-0.013,0.442c-0.536,0.241-1.246,0.375-1.916,0.375
			c-2.317,0-3.47-1.353-3.47-3.55c0-2.277,1.206-3.698,3.55-3.698c0.656,0,1.299,0.135,1.755,0.349
			C70.663,270.242,70.676,270.43,70.676,270.631z"/>
		<path style="fill:#1A2A4F;" d="M77.614,274.021H73.38c0.027,0.87,0.629,1.514,1.795,1.514c0.629,0,1.272-0.08,1.822-0.228
			c0.081,0.361,0.134,0.764,0.134,1.125c0,0.054,0,0.12-0.013,0.268c-0.683,0.201-1.394,0.295-2.09,0.295
			c-2.545,0-3.604-1.46-3.604-3.59c0-1.862,1.045-3.658,3.309-3.658c2.144,0,2.92,1.581,2.92,3.323
			C77.654,273.311,77.654,273.672,77.614,274.021z M75.805,272.693c0-0.844-0.228-1.554-1.099-1.554
			c-0.831,0-1.272,0.656-1.326,1.554H75.805z"/>
		<path style="fill:#1A2A4F;" d="M79.756,271.729c-0.536,0-0.978-0.442-0.978-0.979s0.442-0.978,0.978-0.978
			c0.536,0,0.978,0.441,0.978,0.978S80.292,271.729,79.756,271.729z M79.756,277.074c-0.536,0-0.978-0.441-0.978-0.978
			s0.442-0.978,0.978-0.978c0.536,0,0.978,0.441,0.978,0.978S80.292,277.074,79.756,277.074z"/>
		<path style="fill:#1A2A4F;" d="M86.292,269.117c-0.562,0-1.018-0.456-1.018-1.019s0.456-1.019,1.018-1.019
			c0.563,0,1.019,0.456,1.019,1.019S86.855,269.117,86.292,269.117z M87.217,276.86c-0.241,0.054-0.737,0.067-0.951,0.067
			c-0.322,0-0.67-0.027-0.898-0.067v-6.979c0.295-0.041,0.657-0.067,0.898-0.067c0.321,0,0.656,0.026,0.951,0.067V276.86z"/>
		<path style="fill:#1A2A4F;" d="M95.106,276.86c-0.214,0.054-0.669,0.067-0.884,0.067c-0.228,0-0.75-0.027-0.965-0.067v-4.582
			c0-0.724-0.375-1.031-0.978-1.031c-0.482,0-1.032,0.174-1.46,0.442v5.171c-0.308,0.054-0.737,0.067-0.978,0.067
			c-0.214,0-0.603-0.014-0.871-0.067v-6.979c0.174-0.041,0.603-0.067,0.804-0.067c0.188,0,0.576,0.026,0.777,0.067l0.094,0.616
			c0.603-0.442,1.474-0.751,2.25-0.751c1.474,0,2.21,0.911,2.21,2.438V276.86z"/>
		<path style="fill:#1A2A4F;" d="M102.661,276.86c-0.215,0.04-0.576,0.067-0.857,0.067c-0.255,0-0.549-0.027-0.737-0.067
			l-0.053-0.616c-0.482,0.469-1.099,0.75-1.822,0.75c-1.996,0-2.854-1.594-2.854-3.51c0-2.063,0.924-3.738,3.055-3.738
			c0.522,0,1.125,0.161,1.42,0.349v-3.001c0.241-0.04,0.643-0.067,0.938-0.067c0.362,0,0.643,0.041,0.911,0.067V276.86z
			 M100.812,271.475c-0.321-0.147-0.737-0.228-1.085-0.228c-1.085,0-1.487,0.965-1.487,2.13c0,0.979,0.241,2.09,1.326,2.09
			c0.523,0,0.925-0.214,1.246-0.482V271.475z"/>
		<path style="fill:#1A2A4F;" d="M110.082,274.021h-4.233c0.027,0.87,0.629,1.514,1.795,1.514c0.629,0,1.272-0.08,1.822-0.228
			c0.081,0.361,0.134,0.764,0.134,1.125c0,0.054,0,0.12-0.013,0.268c-0.683,0.201-1.394,0.295-2.09,0.295
			c-2.545,0-3.604-1.46-3.604-3.59c0-1.862,1.045-3.658,3.309-3.658c2.144,0,2.92,1.581,2.92,3.323
			C110.122,273.311,110.122,273.672,110.082,274.021z M108.273,272.693c0-0.844-0.228-1.554-1.099-1.554
			c-0.831,0-1.272,0.656-1.326,1.554H108.273z"/>
		<path style="fill:#1A2A4F;" d="M114.541,276.86c-0.415,0-0.978-0.067-1.312-0.161v3.31c-0.241,0.04-0.644,0.067-0.938,0.067
			c-0.362,0-0.643-0.041-0.911-0.067v-10.115c0.214-0.04,0.576-0.066,0.857-0.066c0.254,0,0.536,0.026,0.724,0.066l0.067,0.576
			c0.429-0.401,1.206-0.724,1.929-0.724c1.916,0,2.773,1.567,2.773,3.363C117.729,275.186,116.658,276.86,114.541,276.86z
			 M114.568,271.247c-0.496,0-1.018,0.201-1.339,0.495v3.551c0.254,0.08,0.75,0.134,1.098,0.134c0.992,0,1.5-0.817,1.5-2.17
			C115.827,271.93,115.345,271.247,114.568,271.247z"/>
		<path style="fill:#1A2A4F;" d="M124.775,274.021h-4.233c0.027,0.87,0.629,1.514,1.795,1.514c0.629,0,1.272-0.08,1.822-0.228
			c0.081,0.361,0.134,0.764,0.134,1.125c0,0.054,0,0.12-0.013,0.268c-0.683,0.201-1.394,0.295-2.09,0.295
			c-2.545,0-3.604-1.46-3.604-3.59c0-1.862,1.045-3.658,3.309-3.658c2.144,0,2.92,1.581,2.92,3.323
			C124.815,273.311,124.815,273.672,124.775,274.021z M122.966,272.693c0-0.844-0.228-1.554-1.099-1.554
			c-0.831,0-1.272,0.656-1.326,1.554H122.966z"/>
		<path style="fill:#1A2A4F;" d="M132.209,276.86c-0.215,0.054-0.67,0.067-0.884,0.067c-0.228,0-0.75-0.027-0.965-0.067v-4.582
			c0-0.724-0.375-1.031-0.978-1.031c-0.482,0-1.031,0.174-1.46,0.442v5.171c-0.309,0.054-0.737,0.067-0.978,0.067
			c-0.214,0-0.603-0.014-0.871-0.067v-6.979c0.174-0.041,0.603-0.067,0.804-0.067c0.188,0,0.576,0.026,0.777,0.067l0.094,0.616
			c0.603-0.442,1.474-0.751,2.25-0.751c1.474,0,2.211,0.911,2.211,2.438V276.86z"/>
		<path style="fill:#1A2A4F;" d="M139.763,276.86c-0.214,0.04-0.576,0.067-0.857,0.067c-0.254,0-0.549-0.027-0.737-0.067
			l-0.053-0.616c-0.482,0.469-1.099,0.75-1.822,0.75c-1.996,0-2.854-1.594-2.854-3.51c0-2.063,0.924-3.738,3.055-3.738
			c0.522,0,1.125,0.161,1.42,0.349v-3.001c0.241-0.04,0.643-0.067,0.938-0.067c0.362,0,0.643,0.041,0.911,0.067V276.86z
			 M137.914,271.475c-0.321-0.147-0.737-0.228-1.085-0.228c-1.085,0-1.487,0.965-1.487,2.13c0,0.979,0.241,2.09,1.326,2.09
			c0.522,0,0.925-0.214,1.246-0.482V271.475z"/>
		<path style="fill:#1A2A4F;" d="M147.183,274.021h-4.233c0.027,0.87,0.629,1.514,1.795,1.514c0.629,0,1.272-0.08,1.822-0.228
			c0.081,0.361,0.134,0.764,0.134,1.125c0,0.054,0,0.12-0.013,0.268c-0.683,0.201-1.394,0.295-2.09,0.295
			c-2.545,0-3.604-1.46-3.604-3.59c0-1.862,1.045-3.658,3.309-3.658c2.144,0,2.92,1.581,2.92,3.323
			C147.223,273.311,147.223,273.672,147.183,274.021z M145.375,272.693c0-0.844-0.228-1.554-1.099-1.554
			c-0.831,0-1.272,0.656-1.326,1.554H145.375z"/>
		<path style="fill:#1A2A4F;" d="M154.617,276.86c-0.214,0.054-0.67,0.067-0.884,0.067c-0.228,0-0.751-0.027-0.965-0.067v-4.582
			c0-0.724-0.375-1.031-0.978-1.031c-0.482,0-1.032,0.174-1.461,0.442v5.171c-0.308,0.054-0.737,0.067-0.978,0.067
			c-0.214,0-0.603-0.014-0.871-0.067v-6.979c0.174-0.041,0.603-0.067,0.804-0.067c0.188,0,0.576,0.026,0.777,0.067l0.094,0.616
			c0.603-0.442,1.474-0.751,2.25-0.751c1.475,0,2.211,0.911,2.211,2.438V276.86z"/>
		<path style="fill:#1A2A4F;" d="M160.671,276.727c-0.401,0.16-0.884,0.268-1.661,0.268c-1.514,0-2.264-0.736-2.264-2.21v-3.523
			h-1.152c-0.054-0.201-0.094-0.536-0.094-0.711c0-0.16,0.04-0.455,0.08-0.589l1.166-0.08v-1.796
			c0.146-0.026,0.615-0.054,0.924-0.054c0.335,0,0.75,0.027,0.925,0.054v1.796h1.929c0.054,0.188,0.08,0.455,0.08,0.603
			c0,0.161-0.013,0.589-0.066,0.777h-1.942v3.255c0,0.67,0.268,0.965,0.925,0.965c0.361,0,0.803-0.054,1.111-0.161
			c0.054,0.175,0.121,0.51,0.121,0.817C160.752,276.298,160.725,276.579,160.671,276.727z"/>
		<path style="fill:#1A2A4F;" d="M162.813,277.074c-0.536,0-0.978-0.441-0.978-0.978s0.441-0.978,0.978-0.978
			s0.978,0.441,0.978,0.978S163.35,277.074,162.813,277.074z"/>
		<path style="fill:#1A2A4F;" d="M169.98,270.631c0,0.295-0.041,0.616-0.135,0.897c-0.441-0.174-1.018-0.281-1.567-0.281
			c-1.045,0-1.755,0.67-1.755,2.17c0,1.313,0.603,2.077,1.769,2.077c0.603,0,1.179-0.107,1.607-0.255
			c0.081,0.295,0.121,0.656,0.121,0.938c0,0.188,0,0.322-0.014,0.442c-0.536,0.241-1.246,0.375-1.916,0.375
			c-2.317,0-3.47-1.353-3.47-3.55c0-2.277,1.206-3.698,3.55-3.698c0.657,0,1.3,0.135,1.756,0.349
			C169.967,270.242,169.98,270.43,169.98,270.631z"/>
		<path style="fill:#1A2A4F;" d="M174.038,276.994c-2.023,0-3.31-1.3-3.31-3.604c0-2.291,1.272-3.645,3.31-3.645
			c2.036,0,3.309,1.34,3.309,3.631S176.074,276.994,174.038,276.994z M174.038,271.193c-0.871,0-1.407,0.59-1.407,2.184
			c0,1.595,0.536,2.171,1.407,2.171c0.87,0,1.406-0.576,1.406-2.171C175.444,271.77,174.908,271.193,174.038,271.193z"/>
		<path style="fill:#1A2A4F;" d="M179.274,277.074c-0.536,0-0.979-0.441-0.979-0.978s0.442-0.978,0.979-0.978
			s0.978,0.441,0.978,0.978S179.811,277.074,179.274,277.074z"/>
		<path style="fill:#1A2A4F;" d="M187.473,274.168c0,1.996-0.938,2.826-3.027,2.826c-2.037,0-2.975-0.83-2.975-2.826v-4.287
			c0.188-0.027,0.55-0.067,0.911-0.067c0.321,0,0.724,0.026,0.938,0.067v4.273c0,1.045,0.309,1.42,1.152,1.42
			c0.857,0,1.152-0.375,1.152-1.42v-4.273c0.188-0.041,0.603-0.067,0.938-0.067s0.777,0.04,0.911,0.067V274.168z"/>
		<path style="fill:#1A2A4F;" d="M195.336,276.86c-0.228,0.04-0.697,0.067-1.005,0.067c-0.269,0-0.817-0.027-1.019-0.067
			l-1.781-3.001l-0.576,0.549v2.452c-0.241,0.054-0.737,0.067-0.951,0.067c-0.322,0-0.67-0.027-0.897-0.067v-9.767
			c0.294-0.04,0.656-0.067,0.897-0.067c0.321,0,0.656,0.027,0.951,0.067v5.359l1.434-1.394c0.389-0.389,0.656-0.831,0.71-1.179
			c0.228-0.041,0.656-0.067,0.897-0.067c0.281,0,0.67,0.026,0.857,0.067c-0.054,0.696-0.402,1.326-1.166,2.09l-0.91,0.884
			L195.336,276.86z"/>
		<path style="fill:#1A2A4F;" d="M198.121,272.895c0-1.875-0.697-3.697-2.01-5.091c0.188-0.268,0.656-0.643,1.059-0.724
			c1.675,1.487,2.76,3.47,2.76,5.814c0,2.305-1.045,4.233-2.76,5.814c-0.402-0.08-0.871-0.455-1.059-0.724
			C197.371,276.539,198.121,274.771,198.121,272.895z"/>
	</g>
</g>
</svg>
