<?xml version="1.0" encoding="utf-8"?>
<!-- Generator: Adobe Illustrator 16.0.0, SVG Export Plug-In . SVG Version: 6.00 Build 0)  -->
<!DOCTYPE svg PUBLIC "-//W3C//DTD SVG 1.0//EN" "http://www.w3.org/TR/2001/REC-SVG-20010904/DTD/svg10.dtd">
<svg version="1.0" xmlns="http://www.w3.org/2000/svg" xmlns:xlink="http://www.w3.org/1999/xlink" x="0px" y="0px" width="300px"
	 height="300px" viewBox="0 0 300 300" style="enable-background:new 0 0 300 300;" xml:space="preserve">
<g id="Icons">
	<path style="fill:#BBA461;" d="M122.13,94.604c0,0-9.373,0-9.373,9.372v92.384c0,0,0,9.376,9.373,9.376h158.438
		c0,0,9.375,0,9.375-9.376v-92.384c0,0,0-9.372-9.375-9.372H122.13z"/>
	<path style="fill:#BBA461;" d="M78.076,218.843c37.926,0,68.67-30.748,68.67-68.671c0-37.928-30.745-68.674-68.67-68.674
		c-37.926,0-68.671,30.746-68.671,68.674C9.405,188.095,40.149,218.843,78.076,218.843"/>
	<path style="fill:#FFFFFF;" d="M78.076,205.108c30.343,0,54.936-24.595,54.936-54.937c0-30.342-24.593-54.938-54.936-54.938
		c-30.342,0-54.936,24.595-54.936,54.938C23.14,180.514,47.734,205.108,78.076,205.108"/>
	<path style="fill:#BBA461;" d="M118.516,154.78c0-2.347-1.403-4.413-3.515-5.588c-0.349-0.405-0.599-0.588-0.655-0.626
		c1.925-1.202,3.182-3.168,3.182-5.393c0-3.658-3.398-6.624-7.59-6.624l-3.009,0.058c-0.841-0.065-2.846-0.205-7.62,0.422
		c-4.552,0.595-2.564-0.368-1.417-1.972c0.994-1.386,1.978-2.391,3.384-4.779c1.407-2.391,2.108-4.08,2.684-6.331
		c0.568-2.25,0.721-4.506,0.522-5.624c-0.489-2.687-0.878-4.78-2.703-6.748c-1.829-1.972-3.314-2.52-5.706-2.395
		c-0.701,0.039-3.232,0.143-4.498,2.534c-1.267,2.391,0.984,1.127-0.842,7.313c-1.832,6.186-9.027,10.169-13.399,14.86
		c-1.363,1.461-2.916,4.635-4.884,7.446c-1.971,2.813-7.301,2.854-7.301,2.854l-1.729,0.17c-0.702,7.111-0.399,14.63,1.047,22.284
		c0.928,4.908,2.274,9.597,3.983,14.012c1.164-0.227,2.059-0.393,2.467-0.456c1.832-0.279,4.485-0.987,7.717-0.987
		c4.522,0,7.791,0.865,9.423,1.33c2.351,0.679,5.443,1.13,8.295,1.304c3.083,0.186,4.246,0.322,7.059-0.097l2.577-0.429
		c4.073,0,5.782-2.703,5.782-6.038c0-1.144-0.389-2.218-1.064-3.132c3.229-0.686,5.629-3.226,5.629-6.251
		c0-1.879-0.918-3.564-2.384-4.738c0.179-0.169,0.445-0.376,0.738-0.628C116.973,159.389,118.516,157.247,118.516,154.78"/>
	<path style="fill:#BBA461;" d="M58.123,181.18c-1.612,0-2.915-1.311-2.915-2.916c0-1.606,1.303-2.909,2.915-2.909
		c1.606,0,2.91,1.303,2.91,2.909C61.033,179.869,59.729,181.18,58.123,181.18 M67.882,183.121c-1.104-0.625-2.899-0.3-3.255-1.188
		c-0.117-0.335-0.233-0.668-0.35-1.007c-1.569-4.658-2.773-9.589-3.551-14.735c-1.209-8.02-1.284-15.87-0.362-23.254
		c0.046-0.409,0.102-0.82,0.16-1.225c-0.792,0.325-1.799,0.717-3.062,1.079c-3.97,1.133-15.57,2.54-19.537,1.352
		c-0.824,7.885,0.172,16.496,2.403,24.935c1.885,7.108,3.92,11.843,5.752,17.272c5.871-2.138,11.717-2.231,16.015-1.493
		c2.042,0.355,2.83,0.293,3.714,0.14C67.453,184.71,69.342,183.952,67.882,183.121"/>
</g>
<g id="Text" style="display:none;">
	<text transform="matrix(1 0 0 1 171.166 193.4111)" style="display:inline;"><tspan x="0" y="0" style="fill:#FFFFFF; font-family:'FSMatthew'; font-size:15.3208;">(UNI</tspan><tspan x="29.799" y="0" style="fill:#FFFFFF; font-family:'FSMatthew'; font-size:15.3208;">S</tspan><tspan x="37.551" y="0" style="fill:#FFFFFF; font-family:'FSMatthew'; font-size:15.3208;">T</tspan><tspan x="44.767" y="0" style="fill:#FFFFFF; font-family:'FSMatthew'; font-size:15.3208;">A</tspan><tspan x="53.04" y="0" style="fill:#FFFFFF; font-family:'FSMatthew'; font-size:15.3208;">T</tspan><tspan x="61.037" y="0" style="fill:#FFFFFF; font-family:'FSMatthew'; font-size:15.3208;">S</tspan><tspan x="68.698" y="0" style="fill:#FFFFFF; font-family:'FSMatthew'; font-size:15.3208;">)</tspan></text>
	<text transform="matrix(1 0 0 1 157.1445 136.002)" style="display:inline;"><tspan x="0" y="0" style="fill:#FFFFFF; font-family:'FSMatthew-Bold'; font-size:35.9718;">  90</tspan><tspan x="54.315" y="0" style="fill:#FFFFFF; font-family:'FSMatthew-Bold'; font-size:35.9718;">%</tspan></text>
	<text transform="matrix(1 0 0 1 166.3398 154.5029)" style="display:inline;"><tspan x="0" y="0" style="fill:#FFFFFF; font-family:'FSMatthew-Bold'; font-size:20.5554;">S</tspan><tspan x="10.38" y="0" style="fill:#FFFFFF; font-family:'FSMatthew-Bold'; font-size:20.5554;">T</tspan><tspan x="21.439" y="0" style="fill:#FFFFFF; font-family:'FSMatthew-Bold'; font-size:20.5554;">U</tspan><tspan x="34.738" y="0" style="fill:#FFFFFF; font-family:'FSMatthew-Bold'; font-size:20.5554;">DEN</tspan><tspan x="73.135" y="0" style="fill:#FFFFFF; font-family:'FSMatthew-Bold'; font-size:20.5554; letter-spacing:-1;">T</tspan><tspan x="83.352" y="0" style="fill:#FFFFFF; font-family:'FSMatthew-Bold'; font-size:20.5554;"> </tspan></text>
	<text transform="matrix(1 0 0 1 143.2173 173.0039)" style="display:inline;"><tspan x="0" y="0" style="fill:#FFFFFF; font-family:'FSMatthew-Bold'; font-size:20.5554;">S</tspan><tspan x="10.565" y="0" style="fill:#FFFFFF; font-family:'FSMatthew-Bold'; font-size:20.5554; letter-spacing:-1;">A</tspan><tspan x="22.384" y="0" style="fill:#FFFFFF; font-family:'FSMatthew-Bold'; font-size:20.5554;">TI</tspan><tspan x="39.363" y="0" style="fill:#FFFFFF; font-family:'FSMatthew-Bold'; font-size:20.5554;">S</tspan><tspan x="50.257" y="0" style="fill:#FFFFFF; font-family:'FSMatthew-Bold'; font-size:20.5554; letter-spacing:-1;">F</tspan><tspan x="60.083" y="0" style="fill:#FFFFFF; font-family:'FSMatthew-Bold'; font-size:20.5554;">A</tspan><tspan x="72.888" y="0" style="fill:#FFFFFF; font-family:'FSMatthew-Bold'; font-size:20.5554;">C</tspan><tspan x="85.18" y="0" style="fill:#FFFFFF; font-family:'FSMatthew-Bold'; font-size:20.5554;">TIO</tspan><tspan x="115.417" y="0" style="fill:#FFFFFF; font-family:'FSMatthew-Bold'; font-size:20.5554;">N</tspan></text>
</g>
<g id="Text_Flat">
	<g>
		<path style="fill:#FFFFFF;" d="M174.506,195.127c-1.777-1.654-2.727-3.983-2.727-6.327s0.949-4.596,2.727-6.25
			c0.353,0.046,0.582,0.214,0.781,0.49c-1.501,1.776-2.068,3.783-2.068,5.806c0,2.053,0.567,4.014,2.068,5.791
			C175.088,194.912,174.858,195.081,174.506,195.127z"/>
		<path style="fill:#FFFFFF;" d="M184.908,189.535c0,2.666-0.919,4.029-3.738,4.029c-2.941,0-3.691-1.303-3.691-4.029v-6.48
			c0.244-0.03,0.49-0.076,0.734-0.076c0.276,0,0.521,0.03,0.797,0.076v6.741c0,1.485,0.322,2.589,2.145,2.589
			c1.823,0,2.268-1.104,2.268-2.589v-6.741c0.245-0.03,0.46-0.076,0.705-0.076c0.275,0,0.506,0.03,0.781,0.076V189.535z"/>
		<path style="fill:#FFFFFF;" d="M195.372,193.411c-0.123,0.046-0.383,0.062-0.582,0.062c-0.185,0-0.368-0.016-0.536-0.062
			l-5.454-7.736v7.736c-0.138,0.046-0.506,0.076-0.735,0.076c-0.184,0-0.475-0.015-0.674-0.076v-10.356
			c0.122-0.03,0.443-0.061,0.597-0.061c0.199,0,0.46,0.015,0.613,0.061l5.362,7.614v-7.614c0.168-0.046,0.459-0.076,0.658-0.076
			c0.184,0,0.598,0.03,0.751,0.076V193.411z"/>
		<path style="fill:#FFFFFF;" d="M199.51,193.411c-0.245,0.03-0.49,0.076-0.735,0.076c-0.276,0-0.521-0.03-0.797-0.076v-10.356
			c0.261-0.046,0.506-0.076,0.781-0.076c0.261,0,0.506,0.03,0.751,0.076V193.411z"/>
		<path style="fill:#FFFFFF;" d="M204.718,193.564c-0.842,0-2.19-0.184-2.941-0.582c-0.046-0.215-0.076-0.414-0.076-0.628
			c0-0.23,0.016-0.46,0.076-0.675c0.721,0.337,1.992,0.629,2.865,0.629c1.271,0,2.13-0.49,2.13-1.548
			c0-0.965-0.444-1.44-1.686-1.899l-0.781-0.291c-1.548-0.582-2.497-1.425-2.497-2.85c0-1.915,1.624-2.819,3.478-2.819
			c0.812,0,1.593,0.093,2.313,0.276c0.046,0.184,0.076,0.383,0.076,0.582c0,0.215-0.03,0.429-0.076,0.644
			c-0.751-0.153-1.456-0.245-2.222-0.245c-1.042,0-2.022,0.413-2.022,1.517c0,0.781,0.429,1.256,1.64,1.716l0.72,0.275
			c1.578,0.582,2.528,1.317,2.528,2.941C208.242,192.6,206.679,193.564,204.718,193.564z"/>
		<path style="fill:#FFFFFF;" d="M216.545,184.312h-3.095v9.1c-0.26,0.046-0.505,0.076-0.781,0.076c-0.26,0-0.505-0.03-0.75-0.076
			v-9.1h-2.941c-0.062-0.199-0.077-0.43-0.077-0.629c0-0.184,0.016-0.444,0.077-0.628h7.567c0.062,0.184,0.077,0.444,0.077,0.628
			C216.622,183.882,216.606,184.112,216.545,184.312z"/>
		<path style="fill:#FFFFFF;" d="M222.566,190.96h-4.045l-0.797,2.451c-0.199,0.03-0.521,0.076-0.827,0.076
			c-0.214,0-0.521-0.03-0.72-0.076l3.569-10.356c0.184-0.046,0.567-0.076,0.767-0.076c0.214,0,0.566,0.046,0.704,0.076l3.83,10.356
			c-0.138,0.03-0.506,0.076-0.797,0.076c-0.229,0-0.597-0.015-0.827-0.076L222.566,190.96z M218.92,189.704h3.202l-1.226-3.524
			c-0.199-0.582-0.322-1.057-0.398-1.471h-0.016c-0.076,0.414-0.229,0.904-0.413,1.486L218.92,189.704z"/>
		<path style="fill:#FFFFFF;" d="M232.034,184.312h-3.095v9.1c-0.26,0.046-0.505,0.076-0.781,0.076c-0.26,0-0.505-0.03-0.75-0.076
			v-9.1h-2.941c-0.062-0.199-0.077-0.43-0.077-0.629c0-0.184,0.016-0.444,0.077-0.628h7.567c0.062,0.184,0.077,0.444,0.077,0.628
			C232.111,183.882,232.096,184.112,232.034,184.312z"/>
		<path style="fill:#FFFFFF;" d="M235.956,193.564c-0.842,0-2.19-0.184-2.941-0.582c-0.046-0.215-0.076-0.414-0.076-0.628
			c0-0.23,0.016-0.46,0.076-0.675c0.721,0.337,1.992,0.629,2.865,0.629c1.271,0,2.13-0.49,2.13-1.548
			c0-0.965-0.444-1.44-1.686-1.899l-0.781-0.291c-1.548-0.582-2.497-1.425-2.497-2.85c0-1.915,1.624-2.819,3.478-2.819
			c0.812,0,1.593,0.093,2.313,0.276c0.046,0.184,0.076,0.383,0.076,0.582c0,0.215-0.03,0.429-0.076,0.644
			c-0.751-0.153-1.456-0.245-2.222-0.245c-1.042,0-2.022,0.413-2.022,1.517c0,0.781,0.429,1.256,1.64,1.716l0.72,0.275
			c1.578,0.582,2.528,1.317,2.528,2.941C239.48,192.6,237.917,193.564,235.956,193.564z"/>
		<path style="fill:#FFFFFF;" d="M241.473,195.127c-0.353-0.046-0.582-0.215-0.781-0.49c1.502-1.777,2.068-3.784,2.068-5.807
			c0-2.053-0.566-4.014-2.068-5.79c0.199-0.276,0.46-0.444,0.812-0.49c1.776,1.654,2.696,3.982,2.696,6.327
			C244.2,191.221,243.25,193.473,241.473,195.127z"/>
	</g>
	<g>
		<path style="fill:#FFFFFF;" d="M180.308,136.362c-1.438,0-3.021-0.216-3.884-0.504c-0.145-0.503-0.18-1.402-0.18-1.798
			c0-0.684,0.107-1.619,0.252-2.158c1.006,0.252,2.157,0.432,3.561,0.432c2.84,0,5.034-2.41,5.25-5.898
			c-1.043,0.684-2.481,1.115-4.207,1.115c-4.676,0-7.121-3.237-7.121-7.661c0-4.675,3.164-8.56,8.235-8.56
			c6.941,0,8.668,5.467,8.668,10.825C190.882,129.061,188.184,136.362,180.308,136.362z M182.322,115.43
			c-1.871,0-3.166,1.475-3.166,4.244c0,2.554,1.008,3.956,3.129,3.956c1.151,0,2.662-0.611,3.31-1.294
			c0-0.18,0.036-0.684,0.036-0.935C185.631,118.811,185.415,115.43,182.322,115.43z"/>
		<path style="fill:#FFFFFF;" d="M201.89,136.362c-5.754,0-8.56-4.244-8.56-12.516c0-8.344,2.913-12.516,8.668-12.516
			c5.718,0,8.523,4.172,8.523,12.516C210.521,132.118,207.608,136.362,201.89,136.362z M201.926,115.538
			c-2.302,0-3.309,2.122-3.309,8.308c0,6.078,1.007,8.308,3.309,8.308s3.309-2.23,3.309-8.308
			C205.234,117.66,204.228,115.538,201.926,115.538z"/>
		<path style="fill:#FFFFFF;" d="M213.258,116.905c0-3.093,1.403-5.754,5.396-5.754c4.027,0,5.395,2.661,5.395,5.754
			c0,3.021-1.367,5.826-5.395,5.826C214.661,122.731,213.258,119.926,213.258,116.905z M220.919,136.397
			c-1.547-0.432-3.129-1.475-3.92-2.589l14.745-23.125c1.475,0.396,3.057,1.295,3.956,2.41L220.919,136.397z M219.876,116.977
			c0-1.546-0.324-2.518-1.223-2.518c-0.899,0-1.224,0.971-1.224,2.518s0.36,2.445,1.224,2.445
			C219.516,119.422,219.876,118.523,219.876,116.977z M228.22,130.715c0-3.093,1.402-5.754,5.395-5.754
			c4.028,0,5.395,2.661,5.395,5.754c0,3.021-1.366,5.826-5.395,5.826C229.622,136.542,228.22,133.736,228.22,130.715z
			 M234.837,130.787c0-1.546-0.323-2.518-1.223-2.518s-1.223,0.971-1.223,2.518s0.359,2.445,1.223,2.445
			S234.837,132.333,234.837,130.787z"/>
	</g>
	<g>
		<path style="fill:#FFFFFF;" d="M171.663,154.708c-1.5,0-3.145-0.287-4.316-0.821c-0.062-0.288-0.103-0.658-0.103-0.987
			c0-0.493,0.062-0.966,0.206-1.521c1.212,0.493,2.815,0.802,4.069,0.802c1.459,0,2.24-0.679,2.24-1.604
			c0-1.028-0.658-1.459-2.651-2.076c-2.22-0.678-3.844-1.747-3.844-4.131c0-2.549,2.199-3.967,5.098-3.967
			c1.336,0,2.528,0.206,3.329,0.473c0.062,0.226,0.104,0.596,0.104,1.13c0,0.391-0.042,0.987-0.124,1.315
			c-1.027-0.267-2.199-0.411-3.145-0.411c-1.541,0-2.384,0.514-2.384,1.336c0,0.966,0.76,1.356,2.61,1.932
			c2.22,0.699,3.863,1.747,3.863,4.213C176.616,153.085,174.5,154.708,171.663,154.708z"/>
		<path style="fill:#FFFFFF;" d="M187.49,143.116h-3.68v11.387c-0.391,0.062-0.945,0.103-1.459,0.103s-1.069-0.041-1.48-0.103
			v-11.387h-3.679c-0.082-0.267-0.144-0.904-0.144-1.254c0-0.349,0.082-0.986,0.164-1.253h10.277
			c0.082,0.267,0.144,0.904,0.144,1.253C187.634,142.212,187.572,142.849,187.49,143.116z"/>
		<path style="fill:#FFFFFF;" d="M199.803,149.221c0,3.535-1.356,5.487-5.303,5.487c-3.987,0-5.241-1.952-5.241-5.487v-8.612
			c0.411-0.062,0.946-0.103,1.439-0.103c0.575,0,1.089,0.041,1.5,0.103v8.817c0,1.891,0.534,2.959,2.322,2.959
			s2.405-1.068,2.405-2.959v-8.817c0.37-0.062,0.986-0.103,1.459-0.103c0.452,0,1.069,0.041,1.418,0.103V149.221z"/>
		<path style="fill:#FFFFFF;" d="M211.561,153.27c-1.274,0.986-2.919,1.336-5.18,1.336c-1.151,0-3.104-0.041-3.761-0.103v-13.894
			c1.007-0.062,3.104-0.103,4.274-0.103c4.522,0,6.845,1.912,6.845,6.886C213.739,149.96,213.061,152.099,211.561,153.27z
			 M206.956,142.931c-0.555,0-1.171,0.021-1.397,0.041v9.147c0.268,0.021,0.884,0.041,1.521,0.041c2.59,0,3.617-1.645,3.617-4.81
			C210.697,143.877,209.629,142.931,206.956,142.931z"/>
		<path style="fill:#FFFFFF;" d="M224.695,154.503h-8.693v-13.894h8.509c0.082,0.226,0.144,0.658,0.144,1.233
			c0,0.452-0.041,0.843-0.144,1.274h-5.57v3.001h4.707c0.082,0.226,0.144,0.637,0.144,1.212c0,0.452-0.041,0.822-0.144,1.254h-4.707
			v3.412h5.755c0.083,0.227,0.145,0.658,0.145,1.233C224.84,153.681,224.799,154.071,224.695,154.503z"/>
		<path style="fill:#FFFFFF;" d="M238.118,154.503c-0.206,0.041-0.699,0.082-1.048,0.082c-0.35,0-0.699-0.021-1.028-0.082
			l-6.392-8.9v8.9c-0.165,0.041-0.781,0.103-1.356,0.103c-0.474,0-1.028-0.062-1.315-0.103v-13.894
			c0.328-0.062,0.719-0.083,1.089-0.083c0.391,0,0.802,0.041,1.11,0.083l6.269,8.735v-8.735c0.411-0.062,0.945-0.103,1.336-0.103
			s0.966,0.041,1.336,0.103V154.503z"/>
		<path style="fill:#FFFFFF;" d="M250.245,143.116h-3.68v11.387c-0.391,0.062-0.945,0.103-1.459,0.103s-1.069-0.041-1.48-0.103
			v-11.387h-3.679c-0.082-0.267-0.144-0.904-0.144-1.254c0-0.349,0.082-0.986,0.164-1.253h10.277
			c0.082,0.267,0.144,0.904,0.144,1.253C250.389,142.212,250.327,142.849,250.245,143.116z"/>
	</g>
	<g>
		<path style="fill:#FFFFFF;" d="M148.541,173.209c-1.5,0-3.145-0.287-4.316-0.821c-0.062-0.288-0.103-0.658-0.103-0.987
			c0-0.493,0.062-0.966,0.206-1.521c1.213,0.493,2.816,0.802,4.07,0.802c1.459,0,2.24-0.679,2.24-1.604
			c0-1.027-0.658-1.459-2.651-2.076c-2.22-0.678-3.844-1.747-3.844-4.131c0-2.549,2.199-3.967,5.097-3.967
			c1.336,0,2.528,0.205,3.33,0.473c0.062,0.226,0.103,0.596,0.103,1.131c0,0.39-0.041,0.986-0.123,1.314
			c-1.028-0.267-2.199-0.41-3.145-0.41c-1.542,0-2.384,0.514-2.384,1.336c0,0.966,0.761,1.356,2.61,1.932
			c2.22,0.699,3.864,1.747,3.864,4.214C153.494,171.586,151.377,173.209,148.541,173.209z"/>
		<path style="fill:#FFFFFF;" d="M166.978,173.004c-0.268,0.062-0.904,0.103-1.583,0.103c-0.534,0-1.15-0.062-1.418-0.103
			l-1.027-2.815h-4.933l-0.967,2.815c-0.452,0.062-0.986,0.103-1.521,0.103s-1.151-0.041-1.459-0.103l4.851-13.895
			c0.287-0.062,0.966-0.103,1.418-0.103c0.555,0,1.213,0.041,1.438,0.103L166.978,173.004z M162.065,167.742l-1.213-3.926
			c-0.144-0.452-0.288-1.027-0.411-1.665H160.4c-0.103,0.638-0.268,1.213-0.411,1.665l-1.15,3.926H162.065z"/>
		<path style="fill:#FFFFFF;" d="M176.372,161.617h-3.68v11.387c-0.391,0.062-0.945,0.103-1.459,0.103s-1.069-0.041-1.48-0.103
			v-11.387h-3.679c-0.082-0.268-0.144-0.904-0.144-1.254s0.082-0.986,0.164-1.254h10.277c0.082,0.268,0.144,0.904,0.144,1.254
			S176.454,161.35,176.372,161.617z"/>
		<path style="fill:#FFFFFF;" d="M181.182,173.004c-0.391,0.062-0.863,0.103-1.479,0.103c-0.555,0-1.069-0.041-1.459-0.103v-13.895
			c0.39-0.062,0.966-0.103,1.479-0.103c0.575,0,1.089,0.041,1.459,0.103V173.004z"/>
		<path style="fill:#FFFFFF;" d="M187.903,173.209c-1.5,0-3.145-0.287-4.316-0.821c-0.062-0.288-0.103-0.658-0.103-0.987
			c0-0.493,0.062-0.966,0.206-1.521c1.212,0.493,2.815,0.802,4.069,0.802c1.459,0,2.24-0.679,2.24-1.604
			c0-1.027-0.658-1.459-2.651-2.076c-2.22-0.678-3.844-1.747-3.844-4.131c0-2.549,2.199-3.967,5.098-3.967
			c1.336,0,2.528,0.205,3.329,0.473c0.062,0.226,0.104,0.596,0.104,1.131c0,0.39-0.042,0.986-0.124,1.314
			c-1.027-0.267-2.199-0.41-3.145-0.41c-1.541,0-2.384,0.514-2.384,1.336c0,0.966,0.76,1.356,2.61,1.932
			c2.22,0.699,3.863,1.747,3.863,4.214C192.856,171.586,190.74,173.209,187.903,173.209z"/>
		<path style="fill:#FFFFFF;" d="M203.423,161.617h-5.468v3.001h4.604c0.082,0.226,0.144,0.637,0.144,1.213
			c0,0.452-0.041,0.822-0.144,1.253h-4.604v5.92c-0.391,0.062-0.843,0.103-1.459,0.103c-0.555,0-1.09-0.041-1.479-0.103v-13.895
			h8.406c0.082,0.227,0.144,0.658,0.144,1.233C203.566,160.795,203.525,161.186,203.423,161.617z"/>
		<path style="fill:#FFFFFF;" d="M216.495,173.004c-0.268,0.062-0.904,0.103-1.583,0.103c-0.534,0-1.15-0.062-1.418-0.103
			l-1.027-2.815h-4.933l-0.967,2.815c-0.452,0.062-0.986,0.103-1.521,0.103s-1.151-0.041-1.459-0.103l4.851-13.895
			c0.287-0.062,0.966-0.103,1.418-0.103c0.555,0,1.213,0.041,1.438,0.103L216.495,173.004z M211.583,167.742l-1.213-3.926
			c-0.144-0.452-0.288-1.027-0.411-1.665h-0.041c-0.103,0.638-0.268,1.213-0.411,1.665l-1.15,3.926H211.583z"/>
		<path style="fill:#FFFFFF;" d="M227.122,162.008c-0.986-0.309-2.22-0.534-3.206-0.534c-2.344,0-3.864,1.665-3.864,4.645
			c0,2.734,1.192,4.522,3.844,4.522c0.986,0,2.097-0.206,3.083-0.515c0.144,0.37,0.246,0.946,0.246,1.378
			c0,0.349-0.021,0.78-0.062,0.966c-1.027,0.473-2.343,0.739-3.556,0.739c-4.419,0-6.598-2.672-6.598-7.029
			c0-4.233,2.343-7.275,6.721-7.275c1.069,0,2.467,0.267,3.453,0.698c0.062,0.206,0.082,0.658,0.082,0.926
			C227.266,161.165,227.184,161.761,227.122,162.008z"/>
		<path style="fill:#FFFFFF;" d="M239.168,161.617h-3.68v11.387c-0.391,0.062-0.945,0.103-1.459,0.103s-1.069-0.041-1.48-0.103
			v-11.387h-3.679c-0.082-0.268-0.144-0.904-0.144-1.254s0.082-0.986,0.164-1.254h10.277c0.082,0.268,0.144,0.904,0.144,1.254
			S239.25,161.35,239.168,161.617z"/>
		<path style="fill:#FFFFFF;" d="M243.978,173.004c-0.391,0.062-0.863,0.103-1.479,0.103c-0.555,0-1.068-0.041-1.459-0.103v-13.895
			c0.391-0.062,0.966-0.103,1.479-0.103c0.575,0,1.089,0.041,1.459,0.103V173.004z"/>
		<path style="fill:#FFFFFF;" d="M252.097,173.209c-3.802,0-5.816-2.631-5.816-7.152s2.015-7.152,5.816-7.152
			c3.803,0,5.817,2.631,5.817,7.152S255.899,173.209,252.097,173.209z M252.097,161.433c-1.768,0-2.774,1.356-2.774,4.624
			c0,3.269,1.007,4.625,2.774,4.625s2.775-1.356,2.775-4.625C254.872,162.789,253.864,161.433,252.097,161.433z"/>
		<path style="fill:#FFFFFF;" d="M271.316,173.004c-0.206,0.041-0.699,0.082-1.048,0.082c-0.35,0-0.699-0.021-1.028-0.082
			l-6.392-8.899v8.899c-0.165,0.041-0.781,0.103-1.356,0.103c-0.474,0-1.028-0.062-1.315-0.103v-13.895
			c0.328-0.062,0.719-0.082,1.089-0.082c0.391,0,0.802,0.041,1.11,0.082l6.269,8.735v-8.735c0.411-0.062,0.945-0.103,1.336-0.103
			s0.966,0.041,1.336,0.103V173.004z"/>
	</g>
</g>
</svg>
