<?xml version="1.0" encoding="utf-8"?>
<!-- Generator: Adobe Illustrator 16.0.0, SVG Export Plug-In . SVG Version: 6.00 Build 0)  -->
<!DOCTYPE svg PUBLIC "-//W3C//DTD SVG 1.0//EN" "http://www.w3.org/TR/2001/REC-SVG-20010904/DTD/svg10.dtd">
<svg version="1.0" xmlns="http://www.w3.org/2000/svg" xmlns:xlink="http://www.w3.org/1999/xlink" x="0px" y="0px" width="300px"
	 height="300px" viewBox="0 0 300 300" style="enable-background:new 0 0 300 300;" xml:space="preserve">
<g id="Text" style="display:none;">
	<text transform="matrix(1 0 0 1 155.8018 123.9209)" style="display:inline;"><tspan x="0" y="0" style="fill:#BBA461; font-family:'FSMatthew-Bold'; font-size:63.0416; letter-spacing:-1;">9</tspan><tspan x="32.718" y="0" style="fill:#BBA461; font-family:'FSMatthew-Bold'; font-size:63.0416;">2</tspan><tspan x="66.696" y="0" style="fill:#BBA461; font-family:'FSMatthew-Bold'; font-size:63.0416;">%</tspan></text>
	<text transform="matrix(1 0 0 1 142.708 205.209)" style="display:inline;"><tspan x="0" y="0" style="fill:#1A2A4F; font-family:'FSMatthew-Bold'; font-size:28.5024;">6 </tspan><tspan x="20.664" y="0" style="fill:#1A2A4F; font-family:'FSMatthew-Bold'; font-size:28.5024;">M</tspan><tspan x="43.522" y="0" style="fill:#1A2A4F; font-family:'FSMatthew-Bold'; font-size:28.5024;">ON</tspan><tspan x="80.518" y="0" style="fill:#1A2A4F; font-family:'FSMatthew-Bold'; font-size:28.5024;">T</tspan><tspan x="95.396" y="0" style="fill:#1A2A4F; font-family:'FSMatthew-Bold'; font-size:28.5024;">H</tspan><tspan x="113.837" y="0" style="fill:#1A2A4F; font-family:'FSMatthew-Bold'; font-size:28.5024;">S</tspan></text>
	<text transform="matrix(1 0 0 1 156.4033 146.4287)" style="display:inline;"><tspan x="0" y="0" style="fill:#1A2A4F; font-family:'FSMatthew'; font-size:14.2512;">OF</tspan><tspan x="15.148" y="0" style="fill:#1A2A4F; font-family:'FSMatthew'; font-size:14.2512;"> </tspan><tspan x="17.942" y="0" style="fill:#1A2A4F; font-family:'FSMatthew'; font-size:14.2512;">OUR</tspan><tspan x="42.639" y="0" style="fill:#1A2A4F; font-family:'FSMatthew'; font-size:14.2512;"> G</tspan><tspan x="53.911" y="0" style="fill:#1A2A4F; font-family:'FSMatthew'; font-size:14.2512;">R</tspan><tspan x="61.636" y="0" style="fill:#1A2A4F; font-family:'FSMatthew'; font-size:14.2512;">A</tspan><tspan x="69.844" y="0" style="fill:#1A2A4F; font-family:'FSMatthew'; font-size:14.2512;">D</tspan><tspan x="78.552" y="0" style="fill:#1A2A4F; font-family:'FSMatthew'; font-size:14.2512;">U</tspan><tspan x="86.902" y="0" style="fill:#1A2A4F; font-family:'FSMatthew'; font-size:14.2512; letter-spacing:-1;">A</tspan><tspan x="94.014" y="0" style="fill:#1A2A4F; font-family:'FSMatthew'; font-size:14.2512;">TE</tspan><tspan x="108.137" y="0" style="fill:#1A2A4F; font-family:'FSMatthew'; font-size:14.2512;">S </tspan></text>
	<text transform="matrix(1 0 0 1 175.9551 160.6807)" style="display:inline;"><tspan x="0" y="0" style="fill:#1A2A4F; font-family:'FSMatthew'; font-size:14.2512;">AR</tspan><tspan x="15.762" y="0" style="fill:#1A2A4F; font-family:'FSMatthew'; font-size:14.2512;">E IN </tspan><tspan x="40.871" y="0" style="fill:#1A2A4F; font-family:'FSMatthew'; font-size:14.2512;">W</tspan><tspan x="52.8" y="0" style="fill:#1A2A4F; font-family:'FSMatthew'; font-size:14.2512;">ORK</tspan><tspan x="76.698" y="0" style="fill:#1A2A4F; font-family:'FSMatthew'; font-size:14.2512;"> </tspan><tspan x="79.491" y="0" style="fill:#1A2A4F; font-family:'FSMatthew'; font-size:14.2512;">O</tspan><tspan x="88.028" y="0" style="fill:#1A2A4F; font-family:'FSMatthew'; font-size:14.2512;">R </tspan></text>
	<text transform="matrix(1 0 0 1 177.7227 174.9316)" style="display:inline;"><tspan x="0" y="0" style="fill:#1A2A4F; font-family:'FSMatthew'; font-size:14.2512;">FU</tspan><tspan x="15.22" y="0" style="fill:#1A2A4F; font-family:'FSMatthew'; font-size:14.2512;">R</tspan><tspan x="22.432" y="0" style="fill:#1A2A4F; font-family:'FSMatthew'; font-size:14.2512;">THE</tspan><tspan x="45.461" y="0" style="fill:#1A2A4F; font-family:'FSMatthew'; font-size:14.2512;">R</tspan><tspan x="53.014" y="0" style="fill:#1A2A4F; font-family:'FSMatthew'; font-size:14.2512;"> </tspan><tspan x="55.807" y="0" style="fill:#1A2A4F; font-family:'FSMatthew'; font-size:14.2512;">S</tspan><tspan x="62.462" y="0" style="fill:#1A2A4F; font-family:'FSMatthew'; font-size:14.2512;">T</tspan><tspan x="69.645" y="0" style="fill:#1A2A4F; font-family:'FSMatthew'; font-size:14.2512;">U</tspan><tspan x="78.252" y="0" style="fill:#1A2A4F; font-family:'FSMatthew'; font-size:14.2512;">D</tspan><tspan x="86.789" y="0" style="fill:#1A2A4F; font-family:'FSMatthew'; font-size:14.2512;">Y</tspan></text>
	<text transform="matrix(1 0 0 1 141.5742 219.2051)" style="display:inline;"><tspan x="0" y="0" style="fill:#1A2A4F; font-family:'FSMatthew'; font-size:11.401;">A</tspan><tspan x="6.635" y="0" style="fill:#1A2A4F; font-family:'FSMatthew'; font-size:11.401;">F</tspan><tspan x="12.312" y="0" style="fill:#1A2A4F; font-family:'FSMatthew'; font-size:11.401;">TER L</tspan><tspan x="37.668" y="0" style="fill:#1A2A4F; font-family:'FSMatthew'; font-size:11.401;">E</tspan><tspan x="43.368" y="0" style="fill:#1A2A4F; font-family:'FSMatthew'; font-size:11.401;">A</tspan><tspan x="49.343" y="0" style="fill:#1A2A4F; font-family:'FSMatthew'; font-size:11.401;">VING UN</tspan><tspan x="89.313" y="0" style="fill:#1A2A4F; font-family:'FSMatthew'; font-size:11.401;">I</tspan><tspan x="92.05" y="0" style="fill:#1A2A4F; font-family:'FSMatthew'; font-size:11.401;">VER</tspan><tspan x="110.04" y="0" style="fill:#1A2A4F; font-family:'FSMatthew'; font-size:11.401;">S</tspan><tspan x="115.684" y="0" style="fill:#1A2A4F; font-family:'FSMatthew'; font-size:11.401;">I</tspan><tspan x="118.431" y="0" style="fill:#1A2A4F; font-family:'FSMatthew'; font-size:11.401;">T</tspan><tspan x="124.508" y="0" style="fill:#1A2A4F; font-family:'FSMatthew'; font-size:11.401;">Y</tspan></text>
</g>
<g id="Text_Flat">
	<g>
		<path style="fill:#BBA461;" d="M169.167,124.551c-2.522,0-5.296-0.378-6.809-0.882c-0.252-0.882-0.315-2.459-0.315-3.152
			c0-1.199,0.188-2.836,0.44-3.783c1.767,0.441,3.783,0.757,6.242,0.757c4.979,0,8.825-4.224,9.203-10.339
			c-1.827,1.199-4.349,1.954-7.376,1.954c-8.194,0-12.481-5.673-12.481-13.427c0-8.196,5.548-15.004,14.437-15.004
			c12.166,0,15.193,9.582,15.193,18.976C187.701,111.754,182.973,124.551,169.167,124.551z M172.698,87.861
			c-3.279,0-5.549,2.584-5.549,7.439c0,4.476,1.766,6.935,5.484,6.935c2.018,0,4.665-1.072,5.801-2.27
			c0-0.315,0.062-1.197,0.062-1.64C178.497,93.787,178.118,87.861,172.698,87.861z"/>
		<path style="fill:#BBA461;" d="M218.968,123.921h-26.917c-0.567-1.324-0.757-2.963-0.757-4.413c0-0.756,0.062-1.702,0.189-2.333
			c4.413-4.476,9.14-9.52,13.302-14.185c3.088-3.467,5.547-6.681,5.547-10.212c0-3.089-2.143-4.854-5.926-4.854
			c-2.773,0-7.187,0.946-11.284,2.9c-0.254-1.072-0.505-2.963-0.505-4.476c0-0.757,0.127-2.27,0.378-3.278
			c3.091-1.325,8.07-2.521,12.924-2.521c7.188,0,13.49,3.34,13.49,11.095c0,6.809-3.655,11.411-11.473,19.605
			c-1.514,1.639-3.151,3.214-4.791,4.917h15.949c0.189,0.82,0.314,2.397,0.314,3.91
			C219.409,121.336,219.221,123.039,218.968,123.921z"/>
		<path style="fill:#BBA461;" d="M225.651,90.446c0-5.421,2.457-10.085,9.455-10.085c7.062,0,9.456,4.665,9.456,10.085
			c0,5.295-2.395,10.212-9.456,10.212C228.108,100.658,225.651,95.741,225.651,90.446z M239.078,124.614
			c-2.711-0.756-5.485-2.584-6.87-4.539l25.845-40.536c2.586,0.693,5.36,2.27,6.935,4.224L239.078,124.614z M237.25,90.573
			c0-2.711-0.566-4.414-2.144-4.414c-1.575,0-2.144,1.702-2.144,4.414c0,2.71,0.63,4.286,2.144,4.286
			C236.619,94.859,237.25,93.283,237.25,90.573z M251.875,114.653c0-5.421,2.459-10.085,9.457-10.085
			c7.061,0,9.455,4.665,9.455,10.085c0,5.295-2.395,10.213-9.455,10.213C254.334,124.866,251.875,119.949,251.875,114.653z
			 M263.476,114.78c0-2.711-0.568-4.414-2.144-4.414c-1.577,0-2.144,1.702-2.144,4.414c0,2.711,0.63,4.286,2.144,4.286
			C262.845,119.066,263.476,117.491,263.476,114.78z"/>
	</g>
	<g>
		<path style="fill:#1A2A4F;" d="M150.834,205.494c-5.189,0-7.184-3.648-7.184-9.038c0-6.072,2.251-10.806,8.552-10.806
			c1.084,0,2.594,0.174,3.222,0.401c0.114,0.398,0.142,1.053,0.142,1.367c0,0.543-0.057,1.283-0.199,1.681
			c-0.741-0.114-1.824-0.198-2.65-0.198c-2.766,0-4.419,1.683-4.732,4.788c0.884-0.567,2.394-1.055,3.791-1.055
			c3.421,0,5.588,2.566,5.588,6.018C157.362,202.499,154.825,205.494,150.834,205.494z M150.863,195.799
			c-1.227,0-2.453,0.516-3.051,1.087c-0.029,0.284-0.029,0.653-0.029,1.082c0,1.768,0.627,4.275,2.936,4.275
			c1.597,0,2.424-1.511,2.424-3.393C153.143,197,152.402,195.799,150.863,195.799z"/>
		<path style="fill:#1A2A4F;" d="M185.012,205.208c-0.342,0.086-1.112,0.142-1.911,0.142c-0.854,0-1.653-0.083-1.996-0.142
			l-0.342-11.573l-4.219,9.749c-0.314,0.114-0.998,0.17-1.425,0.17c-0.514,0-1.142-0.056-1.454-0.142l-4.22-9.777l-0.37,11.573
			c-0.37,0.086-1.254,0.142-2.025,0.142c-0.455,0-1.225-0.056-1.738-0.142l0.826-19.27c0.542-0.059,1.083-0.146,1.654-0.146
			c0.685,0,1.34,0.059,1.682,0.146l5.646,13.084l5.673-13.084c0.57-0.087,1.14-0.146,1.653-0.146c0.655,0,1.254,0.059,1.683,0.146
			L185.012,205.208z"/>
		<path style="fill:#1A2A4F;" d="M195.552,205.494c-5.272,0-8.067-3.648-8.067-9.923c0-6.271,2.795-9.921,8.067-9.921
			c5.275,0,8.068,3.65,8.068,9.921C203.62,201.846,200.827,205.494,195.552,205.494z M195.552,189.159
			c-2.45,0-3.848,1.881-3.848,6.412c0,4.534,1.397,6.416,3.848,6.416c2.453,0,3.851-1.882,3.851-6.416
			C199.402,191.04,198.005,189.159,195.552,189.159z"/>
		<path style="fill:#1A2A4F;" d="M221.777,205.208c-0.284,0.059-0.97,0.114-1.454,0.114s-0.969-0.028-1.425-0.114l-8.866-12.345
			v12.345c-0.229,0.059-1.083,0.142-1.882,0.142c-0.656,0-1.425-0.083-1.825-0.142v-19.27c0.457-0.087,0.998-0.114,1.512-0.114
			c0.541,0,1.112,0.056,1.539,0.114l8.696,12.112v-12.112c0.569-0.087,1.311-0.146,1.852-0.146c0.543,0,1.341,0.059,1.854,0.146
			V205.208z"/>
		<path style="fill:#1A2A4F;" d="M238.165,189.415h-5.104v15.793c-0.541,0.086-1.311,0.142-2.022,0.142
			c-0.713,0-1.483-0.056-2.054-0.142v-15.793h-5.104c-0.114-0.371-0.199-1.256-0.199-1.74s0.114-1.367,0.229-1.736h14.254
			c0.114,0.369,0.199,1.252,0.199,1.736S238.279,189.044,238.165,189.415z"/>
		<path style="fill:#1A2A4F;" d="M255.098,205.208c-0.515,0.086-1.227,0.142-2.025,0.142c-0.798,0-1.51-0.056-2.053-0.142v-7.982
			h-6.699v7.982c-0.543,0.086-1.169,0.142-2.024,0.142c-0.769,0-1.51-0.056-2.053-0.142v-19.27c0.543-0.087,1.341-0.146,2.053-0.146
			c0.799,0,1.512,0.059,2.024,0.146v7.811h6.699v-7.811c0.628-0.087,1.34-0.146,2.053-0.146c0.684,0,1.539,0.059,2.025,0.146
			V205.208z"/>
		<path style="fill:#1A2A4F;" d="M263.93,205.494c-2.081,0-4.362-0.4-5.987-1.141c-0.086-0.398-0.143-0.913-0.143-1.369
			c0-0.684,0.086-1.339,0.286-2.11c1.682,0.684,3.905,1.113,5.645,1.113c2.022,0,3.106-0.941,3.106-2.224
			c0-1.425-0.913-2.024-3.678-2.878c-3.079-0.941-5.331-2.425-5.331-5.732c0-3.534,3.052-5.503,7.071-5.503
			c1.852,0,3.507,0.288,4.617,0.657c0.087,0.312,0.144,0.827,0.144,1.567c0,0.543-0.057,1.37-0.171,1.826
			c-1.426-0.373-3.051-0.57-4.362-0.57c-2.139,0-3.307,0.712-3.307,1.851c0,1.341,1.055,1.882,3.62,2.68
			c3.079,0.969,5.359,2.426,5.359,5.847C270.8,203.242,267.863,205.494,263.93,205.494z"/>
	</g>
	<g>
		<path style="fill:#1A2A4F;" d="M160.847,146.571c-2.335,0-3.817-1.524-3.817-4.942c0-3.333,1.511-4.971,3.847-4.971
			s3.788,1.638,3.788,4.971C164.664,145.047,163.184,146.571,160.847,146.571z M160.861,137.841c-1.453,0-2.335,0.982-2.335,3.761
			c0,2.734,0.868,3.788,2.32,3.788c1.453,0,2.322-1.053,2.322-3.788C163.169,138.823,162.313,137.841,160.861,137.841z"/>
		<path style="fill:#1A2A4F;" d="M171.406,137.969h-3.974v2.906h3.29c0.057,0.17,0.071,0.412,0.071,0.583
			c0,0.185-0.015,0.399-0.071,0.584h-3.29v4.387c-0.242,0.043-0.455,0.071-0.712,0.071c-0.243,0-0.484-0.028-0.712-0.071v-9.628
			h5.397c0.057,0.169,0.072,0.412,0.072,0.583C171.479,137.569,171.463,137.784,171.406,137.969z"/>
		<path style="fill:#1A2A4F;" d="M178.789,146.571c-2.336,0-3.817-1.524-3.817-4.942c0-3.333,1.51-4.971,3.848-4.971
			c2.334,0,3.787,1.638,3.787,4.971C182.606,145.047,181.125,146.571,178.789,146.571z M178.803,137.841
			c-1.453,0-2.335,0.982-2.335,3.761c0,2.734,0.868,3.788,2.321,3.788s2.321-1.053,2.321-3.788
			C181.11,138.823,180.257,137.841,178.803,137.841z"/>
		<path style="fill:#1A2A4F;" d="M190.816,142.826c0,2.478-0.855,3.746-3.477,3.746c-2.734,0-3.433-1.211-3.433-3.746v-6.024
			c0.229-0.029,0.455-0.072,0.685-0.072c0.256,0,0.483,0.029,0.739,0.072v6.267c0,1.38,0.299,2.406,1.995,2.406
			c1.694,0,2.107-1.025,2.107-2.406v-6.267c0.229-0.029,0.429-0.072,0.656-0.072c0.256,0,0.469,0.029,0.727,0.072V142.826z"/>
		<path style="fill:#1A2A4F;" d="M198.968,146.429c-0.286,0.043-0.569,0.071-0.854,0.071c-0.27,0-0.499-0.014-0.77-0.071
			l-2.107-3.704h-1.253v3.704c-0.243,0.043-0.485,0.071-0.728,0.071c-0.228,0-0.47-0.028-0.696-0.071v-9.628
			c0.696-0.043,1.537-0.072,2.348-0.072c2.009,0,3.619,0.612,3.619,2.919c0,1.268-0.698,2.38-1.866,2.808L198.968,146.429z
			 M195.064,137.841c-0.328,0-0.84,0-1.081,0.014v3.747h0.967c1.339,0,2.137-0.599,2.137-1.953
			C197.087,138.339,196.334,137.841,195.064,137.841z"/>
		<path style="fill:#1A2A4F;" d="M209.741,145.917c-0.77,0.37-1.795,0.654-2.878,0.654c-3.005,0-4.401-1.979-4.401-4.857
			c0-1.68,0.584-3.132,1.652-4.044c0.756-0.642,1.796-1.011,2.992-1.011c0.882,0,1.766,0.185,2.307,0.427
			c0.059,0.186,0.071,0.356,0.071,0.555c0,0.201-0.013,0.371-0.071,0.557c-0.627-0.186-1.523-0.328-2.192-0.328
			c-0.941,0-1.682,0.299-2.193,0.783c-0.742,0.698-1.069,1.809-1.069,3.034c0,2.35,1.026,3.66,3.048,3.66
			c0.514,0,1.012-0.099,1.312-0.228v-3.133c0.228-0.029,0.441-0.071,0.669-0.071c0.256,0,0.498,0.028,0.755,0.071V145.917z"/>
		<path style="fill:#1A2A4F;" d="M217.792,146.429c-0.285,0.043-0.569,0.071-0.854,0.071c-0.27,0-0.499-0.014-0.77-0.071
			l-2.106-3.704h-1.254v3.704c-0.243,0.043-0.485,0.071-0.728,0.071c-0.228,0-0.47-0.028-0.696-0.071v-9.628
			c0.696-0.043,1.538-0.072,2.349-0.072c2.009,0,3.618,0.612,3.618,2.919c0,1.268-0.699,2.38-1.865,2.808L217.792,146.429z
			 M213.889,137.841c-0.327,0-0.839,0-1.081,0.014v3.747h0.968c1.339,0,2.137-0.599,2.137-1.953
			C215.912,138.339,215.157,137.841,213.889,137.841z"/>
		<path style="fill:#1A2A4F;" d="M224.205,144.149h-3.759l-0.742,2.28c-0.186,0.028-0.484,0.071-0.768,0.071
			c-0.2,0-0.484-0.028-0.671-0.071l3.319-9.628c0.171-0.043,0.526-0.072,0.712-0.072c0.199,0,0.527,0.043,0.655,0.072l3.561,9.628
			c-0.128,0.028-0.47,0.071-0.741,0.071c-0.213,0-0.555-0.014-0.768-0.071L224.205,144.149z M220.815,142.981h2.978l-1.14-3.276
			c-0.185-0.542-0.299-0.982-0.37-1.367h-0.014c-0.073,0.384-0.215,0.841-0.386,1.382L220.815,142.981z"/>
		<path style="fill:#1A2A4F;" d="M233.184,145.589c-0.826,0.655-1.966,0.911-3.561,0.911c-0.656,0-1.881-0.028-2.308-0.071v-9.628
			c0.653-0.043,1.538-0.072,2.534-0.072c3.306,0,4.815,1.368,4.815,4.829C234.665,143.424,234.151,144.805,233.184,145.589z
			 M229.836,137.841c-0.285,0-0.798,0.014-1.097,0.028v7.463c0.256,0.028,0.727,0.043,1.225,0.043c1.083,0,1.796-0.299,2.294-0.827
			c0.669-0.697,0.912-1.823,0.912-3.02C233.17,139.093,232.471,137.841,229.836,137.841z"/>
		<path style="fill:#1A2A4F;" d="M242.889,142.826c0,2.478-0.855,3.746-3.477,3.746c-2.734,0-3.433-1.211-3.433-3.746v-6.024
			c0.229-0.029,0.456-0.072,0.685-0.072c0.256,0,0.483,0.029,0.74,0.072v6.267c0,1.38,0.299,2.406,1.994,2.406
			c1.694,0,2.108-1.025,2.108-2.406v-6.267c0.229-0.029,0.427-0.072,0.655-0.072c0.257,0,0.47,0.029,0.727,0.072V142.826z"/>
		<path style="fill:#1A2A4F;" d="M249.474,144.149h-3.76l-0.742,2.28c-0.185,0.028-0.483,0.071-0.768,0.071
			c-0.201,0-0.484-0.028-0.67-0.071l3.318-9.628c0.171-0.043,0.527-0.072,0.712-0.072c0.199,0,0.528,0.043,0.656,0.072l3.56,9.628
			c-0.128,0.028-0.469,0.071-0.74,0.071c-0.213,0-0.556-0.014-0.769-0.071L249.474,144.149z M246.084,142.981h2.977l-1.14-3.276
			c-0.186-0.542-0.299-0.982-0.37-1.367h-0.014c-0.072,0.384-0.214,0.841-0.385,1.382L246.084,142.981z"/>
		<path style="fill:#1A2A4F;" d="M257.696,137.969h-2.879v8.46c-0.242,0.043-0.469,0.071-0.727,0.071
			c-0.242,0-0.47-0.028-0.697-0.071v-8.46h-2.734c-0.058-0.185-0.071-0.399-0.071-0.584c0-0.171,0.014-0.414,0.071-0.583h7.037
			c0.057,0.169,0.07,0.412,0.07,0.583C257.767,137.569,257.753,137.784,257.696,137.969z"/>
		<path style="fill:#1A2A4F;" d="M264.279,146.429h-5.611v-9.628h5.397c0.057,0.169,0.072,0.412,0.072,0.583
			c0,0.185-0.016,0.4-0.072,0.584h-3.974v2.906h3.432c0.058,0.17,0.073,0.412,0.073,0.583c0,0.185-0.016,0.399-0.073,0.584h-3.432
			v3.219h4.188c0.057,0.172,0.071,0.414,0.071,0.583C264.351,146.03,264.336,146.244,264.279,146.429z"/>
		<path style="fill:#1A2A4F;" d="M268.029,146.571c-0.783,0-2.037-0.17-2.735-0.542c-0.041-0.199-0.071-0.384-0.071-0.583
			c0-0.214,0.014-0.427,0.071-0.626c0.67,0.313,1.853,0.583,2.664,0.583c1.184,0,1.98-0.455,1.98-1.439
			c0-0.896-0.413-1.339-1.567-1.766l-0.727-0.27c-1.439-0.542-2.32-1.325-2.32-2.649c0-1.78,1.51-2.621,3.232-2.621
			c0.756,0,1.48,0.086,2.15,0.256c0.043,0.171,0.072,0.356,0.072,0.542c0,0.2-0.029,0.399-0.072,0.598
			c-0.698-0.142-1.353-0.229-2.064-0.229c-0.969,0-1.88,0.386-1.88,1.412c0,0.727,0.397,1.168,1.523,1.595l0.669,0.256
			c1.468,0.541,2.35,1.224,2.35,2.734C271.305,145.675,269.852,146.571,268.029,146.571z"/>
	</g>
	<g>
		<path style="fill:#1A2A4F;" d="M182.122,158.401h-3.759l-0.742,2.28c-0.185,0.027-0.484,0.068-0.768,0.068
			c-0.2,0-0.484-0.027-0.67-0.068l3.318-9.628c0.171-0.045,0.526-0.073,0.713-0.073c0.198,0,0.526,0.042,0.654,0.073l3.561,9.628
			c-0.128,0.027-0.469,0.068-0.74,0.068c-0.213,0-0.556-0.014-0.769-0.068L182.122,158.401z M178.734,157.232h2.977l-1.141-3.276
			c-0.185-0.54-0.299-0.982-0.369-1.366h-0.015c-0.073,0.384-0.215,0.84-0.386,1.383L178.734,157.232z"/>
		<path style="fill:#1A2A4F;" d="M191.642,160.682c-0.285,0.041-0.569,0.068-0.855,0.068c-0.27,0-0.497-0.014-0.769-0.068
			l-2.107-3.706h-1.254v3.706c-0.242,0.041-0.484,0.068-0.726,0.068c-0.229,0-0.472-0.027-0.698-0.068v-9.628
			c0.698-0.045,1.538-0.073,2.35-0.073c2.008,0,3.618,0.612,3.618,2.92c0,1.267-0.698,2.38-1.866,2.806L191.642,160.682z
			 M187.739,152.092c-0.328,0-0.841,0-1.083,0.014v3.746h0.969c1.339,0,2.137-0.598,2.137-1.951
			C189.762,152.59,189.007,152.092,187.739,152.092z"/>
		<path style="fill:#1A2A4F;" d="M198.397,160.682h-5.611v-9.628h5.396c0.058,0.169,0.072,0.411,0.072,0.581
			c0,0.187-0.015,0.4-0.072,0.585h-3.973v2.905h3.433c0.056,0.17,0.07,0.412,0.07,0.585c0,0.184-0.015,0.397-0.07,0.585h-3.433
			v3.217h4.188c0.057,0.173,0.07,0.415,0.07,0.585C198.468,160.28,198.454,160.494,198.397,160.682z"/>
		<path style="fill:#1A2A4F;" d="M204.014,160.682c-0.228,0.027-0.454,0.068-0.683,0.068c-0.257,0-0.485-0.027-0.741-0.068v-9.628
			c0.242-0.045,0.469-0.073,0.728-0.073c0.242,0,0.469,0.028,0.696,0.073V160.682z"/>
		<path style="fill:#1A2A4F;" d="M213.304,160.682c-0.113,0.041-0.356,0.055-0.542,0.055c-0.171,0-0.342-0.014-0.497-0.055
			l-5.071-7.193v7.193c-0.129,0.041-0.472,0.068-0.685,0.068c-0.171,0-0.44-0.014-0.626-0.068v-9.628
			c0.113-0.031,0.412-0.06,0.555-0.06c0.186,0,0.429,0.015,0.57,0.06l4.985,7.078v-7.078c0.157-0.045,0.427-0.073,0.612-0.073
			c0.171,0,0.555,0.028,0.698,0.073V160.682z"/>
		<path style="fill:#1A2A4F;" d="M221.271,160.682c-0.3,0.041-0.569,0.068-0.869,0.068c-0.256,0-0.583-0.027-0.841-0.068
			l-2.021-7.224c-0.241-0.841-0.343-1.608-0.343-2.404c0.215-0.06,0.4-0.073,0.699-0.073c0.256,0,0.427,0,0.697,0.073
			c0,0.754,0.058,1.353,0.299,2.263l1.197,4.559c0.156,0.612,0.27,1.052,0.312,1.409h0.015c0.043-0.357,0.157-0.883,0.285-1.396
			l1.639-6.835c0.227-0.045,0.455-0.073,0.683-0.073s0.44,0.028,0.67,0.073l1.624,6.835c0.113,0.471,0.227,0.97,0.27,1.396h0.014
			c0.058-0.426,0.186-0.955,0.314-1.409l1.238-4.559c0.213-0.755,0.313-1.509,0.313-2.263c0.186-0.045,0.385-0.073,0.67-0.073
			c0.228,0,0.483,0.014,0.699,0.073c0,0.796-0.101,1.55-0.344,2.404l-2.036,7.224c-0.243,0.041-0.557,0.068-0.812,0.068
			c-0.299,0-0.568-0.027-0.868-0.068l-1.453-5.969c-0.114-0.456-0.199-0.999-0.299-1.58h-0.014
			c-0.101,0.581-0.186,1.124-0.299,1.595L221.271,160.682z"/>
		<path style="fill:#1A2A4F;" d="M233.198,160.823c-2.335,0-3.817-1.525-3.817-4.943c0-3.332,1.51-4.971,3.847-4.971
			c2.336,0,3.789,1.639,3.789,4.971C237.017,159.298,235.535,160.823,233.198,160.823z M233.213,152.092
			c-1.453,0-2.336,0.981-2.336,3.76c0,2.736,0.869,3.789,2.321,3.789c1.453,0,2.321-1.053,2.321-3.789
			C235.52,153.073,234.665,152.092,233.213,152.092z"/>
		<path style="fill:#1A2A4F;" d="M244.769,160.682c-0.285,0.041-0.568,0.068-0.854,0.068c-0.271,0-0.499-0.014-0.771-0.068
			l-2.106-3.706h-1.254v3.706c-0.243,0.041-0.484,0.068-0.727,0.068c-0.229,0-0.47-0.027-0.697-0.068v-9.628
			c0.697-0.045,1.538-0.073,2.349-0.073c2.009,0,3.619,0.612,3.619,2.92c0,1.267-0.699,2.38-1.866,2.806L244.769,160.682z
			 M240.866,152.092c-0.328,0-0.84,0-1.082,0.014v3.746h0.968c1.339,0,2.137-0.598,2.137-1.951
			C242.889,152.59,242.134,152.092,240.866,152.092z"/>
		<path style="fill:#1A2A4F;" d="M250.898,153.444l-1.81,1.909l3.632,5.328c-0.299,0.055-0.513,0.068-0.812,0.068
			c-0.271,0-0.555-0.027-0.825-0.068l-2.962-4.332l-0.784,0.841v3.491c-0.199,0.041-0.484,0.068-0.728,0.068
			c-0.212,0-0.483-0.027-0.696-0.068v-9.628c0.213-0.045,0.484-0.073,0.696-0.073c0.243,0,0.528,0.028,0.728,0.073v4.399
			l2.507-2.677c0.541-0.585,0.982-1.239,1.055-1.723c0.213-0.045,0.469-0.073,0.683-0.073c0.243,0,0.542,0.028,0.741,0.073
			C252.123,151.922,251.652,152.648,250.898,153.444z"/>
		<path style="fill:#1A2A4F;" d="M259.892,160.823c-2.335,0-3.817-1.525-3.817-4.943c0-3.332,1.51-4.971,3.847-4.971
			c2.335,0,3.788,1.639,3.788,4.971C263.709,159.298,262.229,160.823,259.892,160.823z M259.906,152.092
			c-1.454,0-2.336,0.981-2.336,3.76c0,2.736,0.867,3.789,2.321,3.789c1.453,0,2.321-1.053,2.321-3.789
			C262.213,153.073,261.358,152.092,259.906,152.092z"/>
		<path style="fill:#1A2A4F;" d="M271.461,160.682c-0.285,0.041-0.569,0.068-0.854,0.068c-0.271,0-0.499-0.014-0.77-0.068
			l-2.107-3.706h-1.254v3.706c-0.242,0.041-0.484,0.068-0.726,0.068c-0.229,0-0.472-0.027-0.698-0.068v-9.628
			c0.698-0.045,1.538-0.073,2.35-0.073c2.008,0,3.618,0.612,3.618,2.92c0,1.267-0.699,2.38-1.866,2.806L271.461,160.682z
			 M267.559,152.092c-0.328,0-0.841,0-1.083,0.014v3.746h0.969c1.339,0,2.137-0.598,2.137-1.951
			C269.581,152.59,268.826,152.092,267.559,152.092z"/>
	</g>
	<g>
		<path style="fill:#1A2A4F;" d="M184.189,166.471h-3.974v2.906h3.289c0.058,0.169,0.071,0.412,0.071,0.584
			c0,0.184-0.014,0.397-0.071,0.585h-3.289v4.387c-0.242,0.042-0.455,0.069-0.713,0.069c-0.242,0-0.484-0.027-0.711-0.069v-9.628
			h5.397c0.057,0.17,0.072,0.412,0.072,0.582C184.262,166.072,184.246,166.286,184.189,166.471z"/>
		<path style="fill:#1A2A4F;" d="M192.27,171.328c0,2.477-0.856,3.746-3.477,3.746c-2.734,0-3.433-1.211-3.433-3.746v-6.023
			c0.229-0.031,0.456-0.073,0.684-0.073c0.256,0,0.484,0.028,0.74,0.073v6.265c0,1.381,0.3,2.408,1.995,2.408
			c1.694,0,2.108-1.027,2.108-2.408v-6.265c0.229-0.031,0.427-0.073,0.655-0.073c0.256,0,0.469,0.028,0.727,0.073V171.328z"/>
		<path style="fill:#1A2A4F;" d="M200.421,174.933c-0.286,0.042-0.57,0.069-0.854,0.069c-0.271,0-0.498-0.014-0.771-0.069
			l-2.106-3.705h-1.254v3.705c-0.242,0.042-0.485,0.069-0.727,0.069c-0.229,0-0.47-0.027-0.697-0.069v-9.628
			c0.697-0.045,1.538-0.073,2.349-0.073c2.009,0,3.618,0.613,3.618,2.921c0,1.266-0.697,2.38-1.865,2.806L200.421,174.933z
			 M196.519,166.343c-0.329,0-0.841,0-1.083,0.014v3.746h0.969c1.339,0,2.136-0.598,2.136-1.95
			C198.54,166.84,197.786,166.343,196.519,166.343z"/>
		<path style="fill:#1A2A4F;" d="M207.434,166.471h-2.879v8.462c-0.242,0.042-0.469,0.069-0.726,0.069
			c-0.242,0-0.469-0.027-0.698-0.069v-8.462h-2.734c-0.057-0.185-0.071-0.398-0.071-0.584c0-0.17,0.015-0.412,0.071-0.582h7.037
			c0.057,0.17,0.071,0.412,0.071,0.582C207.505,166.072,207.49,166.286,207.434,166.471z"/>
		<path style="fill:#1A2A4F;" d="M215.514,174.933c-0.229,0.027-0.442,0.069-0.67,0.069c-0.257,0-0.499-0.027-0.755-0.069v-4.272
			h-4.259v4.272c-0.242,0.042-0.498,0.069-0.754,0.069c-0.242,0-0.443-0.027-0.67-0.069v-9.628c0.17-0.031,0.428-0.073,0.654-0.073
			c0.258,0,0.514,0.028,0.77,0.073v4.187h4.259v-4.187c0.242-0.045,0.484-0.073,0.74-0.073c0.242,0,0.456,0.028,0.685,0.073V174.933
			z"/>
		<path style="fill:#1A2A4F;" d="M222.924,174.933h-5.611v-9.628h5.396c0.058,0.17,0.072,0.412,0.072,0.582
			c0,0.186-0.015,0.399-0.072,0.584h-3.973v2.906h3.431c0.058,0.169,0.072,0.412,0.072,0.584c0,0.184-0.015,0.397-0.072,0.585
			h-3.431v3.218h4.188c0.057,0.172,0.07,0.414,0.07,0.584C222.994,174.531,222.98,174.746,222.924,174.933z"/>
		<path style="fill:#1A2A4F;" d="M230.661,174.933c-0.285,0.042-0.569,0.069-0.854,0.069c-0.27,0-0.499-0.014-0.77-0.069
			l-2.106-3.705h-1.254v3.705c-0.243,0.042-0.485,0.069-0.728,0.069c-0.228,0-0.47-0.027-0.696-0.069v-9.628
			c0.696-0.045,1.538-0.073,2.349-0.073c2.009,0,3.618,0.613,3.618,2.921c0,1.266-0.698,2.38-1.865,2.806L230.661,174.933z
			 M226.758,166.343c-0.327,0-0.839,0-1.081,0.014v3.746h0.968c1.339,0,2.137-0.598,2.137-1.95
			C228.781,166.84,228.026,166.343,226.758,166.343z"/>
		<path style="fill:#1A2A4F;" d="M237.019,175.074c-0.781,0-2.035-0.17-2.734-0.543c-0.042-0.198-0.071-0.384-0.071-0.582
			c0-0.214,0.014-0.428,0.071-0.626c0.669,0.312,1.852,0.582,2.663,0.582c1.184,0,1.981-0.454,1.981-1.438
			c0-0.897-0.414-1.339-1.568-1.765l-0.726-0.271c-1.438-0.542-2.322-1.324-2.322-2.649c0-1.781,1.51-2.622,3.234-2.622
			c0.755,0,1.48,0.086,2.149,0.256c0.043,0.174,0.072,0.357,0.072,0.544c0,0.199-0.029,0.397-0.072,0.598
			c-0.697-0.143-1.353-0.229-2.063-0.229c-0.969,0-1.881,0.384-1.881,1.411c0,0.727,0.397,1.167,1.523,1.596l0.67,0.256
			c1.467,0.54,2.35,1.225,2.35,2.733C240.295,174.178,238.841,175.074,237.019,175.074z"/>
		<path style="fill:#1A2A4F;" d="M247.464,166.471h-2.879v8.462c-0.242,0.042-0.469,0.069-0.726,0.069
			c-0.242,0-0.469-0.027-0.698-0.069v-8.462h-2.734c-0.058-0.185-0.071-0.398-0.071-0.584c0-0.17,0.014-0.412,0.071-0.582h7.037
			c0.057,0.17,0.07,0.412,0.07,0.582C247.534,166.072,247.521,166.286,247.464,166.471z"/>
		<path style="fill:#1A2A4F;" d="M255.302,171.328c0,2.477-0.855,3.746-3.477,3.746c-2.734,0-3.433-1.211-3.433-3.746v-6.023
			c0.229-0.031,0.455-0.073,0.685-0.073c0.256,0,0.483,0.028,0.739,0.073v6.265c0,1.381,0.299,2.408,1.995,2.408
			c1.694,0,2.107-1.027,2.107-2.408v-6.265c0.229-0.031,0.428-0.073,0.656-0.073c0.256,0,0.469,0.028,0.727,0.073V171.328z"/>
		<path style="fill:#1A2A4F;" d="M262.911,174.091c-0.825,0.655-1.964,0.911-3.56,0.911c-0.655,0-1.88-0.027-2.307-0.069v-9.628
			c0.653-0.045,1.537-0.073,2.533-0.073c3.306,0,4.815,1.367,4.815,4.829C264.394,171.927,263.881,173.307,262.911,174.091z
			 M259.563,166.343c-0.284,0-0.796,0.014-1.096,0.027v7.465c0.257,0.028,0.727,0.042,1.226,0.042c1.081,0,1.794-0.298,2.292-0.827
			c0.67-0.695,0.912-1.822,0.912-3.02C262.897,167.595,262.198,166.343,259.563,166.343z"/>
		<path style="fill:#1A2A4F;" d="M267.488,171.556l-2.121-4.217c-0.357-0.713-0.57-1.452-0.57-2.052
			c0.199-0.042,0.371-0.056,0.698-0.056c0.256,0,0.497,0.014,0.697,0.056c0,0.485,0.058,0.941,0.357,1.567l1.651,3.404h0.028
			l1.651-3.317c0.299-0.599,0.356-1.183,0.356-1.637c0.201-0.06,0.343-0.073,0.655-0.073c0.242,0,0.498,0.028,0.714,0.073
			c0,0.54-0.145,1.279-0.528,2.034l-2.166,4.245v3.349c-0.199,0.042-0.483,0.069-0.711,0.069c-0.257,0-0.483-0.027-0.713-0.069
			V171.556z"/>
	</g>
	<g>
		<path style="fill:#1A2A4F;" d="M146.508,217.383h-3.007l-0.593,1.822c-0.149,0.022-0.387,0.057-0.615,0.057
			c-0.161,0-0.389-0.022-0.536-0.057l2.655-7.704c0.137-0.033,0.422-0.056,0.569-0.056c0.16,0,0.422,0.033,0.525,0.056l2.849,7.704
			c-0.104,0.022-0.377,0.057-0.593,0.057c-0.171,0-0.444-0.012-0.615-0.057L146.508,217.383z M143.797,216.447h2.381l-0.912-2.619
			c-0.149-0.434-0.239-0.787-0.296-1.095h-0.011c-0.058,0.308-0.171,0.671-0.308,1.105L143.797,216.447z"/>
		<path style="fill:#1A2A4F;" d="M153.383,212.436h-3.178v2.324h2.631c0.046,0.138,0.058,0.332,0.058,0.469
			c0,0.146-0.012,0.32-0.058,0.468h-2.631v3.509c-0.193,0.034-0.365,0.057-0.571,0.057c-0.194,0-0.387-0.022-0.569-0.057v-7.704
			h4.318c0.046,0.14,0.058,0.331,0.058,0.467C153.44,212.116,153.429,212.288,153.383,212.436z"/>
		<path style="fill:#1A2A4F;" d="M159.71,212.436h-2.302v6.77c-0.193,0.034-0.376,0.057-0.582,0.057
			c-0.193,0-0.375-0.022-0.558-0.057v-6.77h-2.188c-0.046-0.147-0.057-0.319-0.057-0.468c0-0.136,0.011-0.327,0.057-0.467h5.63
			c0.046,0.14,0.057,0.331,0.057,0.467C159.767,212.116,159.756,212.288,159.71,212.436z"/>
		<path style="fill:#1A2A4F;" d="M165.035,219.205h-4.49v-7.704h4.318c0.046,0.14,0.057,0.331,0.057,0.467
			c0,0.148-0.011,0.32-0.057,0.468h-3.179v2.324h2.746c0.046,0.138,0.057,0.332,0.057,0.469c0,0.146-0.011,0.32-0.057,0.468h-2.746
			v2.574h3.351c0.046,0.136,0.057,0.331,0.057,0.468C165.092,218.886,165.081,219.058,165.035,219.205z"/>
		<path style="fill:#1A2A4F;" d="M171.281,219.205c-0.228,0.034-0.456,0.057-0.684,0.057c-0.216,0-0.398-0.012-0.615-0.057
			l-1.687-2.964h-1.002v2.964c-0.194,0.034-0.389,0.057-0.582,0.057c-0.183,0-0.376-0.022-0.558-0.057v-7.704
			c0.558-0.033,1.229-0.056,1.88-0.056c1.605,0,2.895,0.49,2.895,2.335c0,1.014-0.56,1.904-1.493,2.246L171.281,219.205z
			 M168.159,212.333c-0.262,0-0.672,0-0.865,0.011v2.999h0.774c1.07,0,1.709-0.479,1.709-1.562
			C169.777,212.733,169.174,212.333,168.159,212.333z"/>
		<path style="fill:#1A2A4F;" d="M179.149,218.271c0.045,0.136,0.057,0.331,0.057,0.468c0,0.147-0.012,0.319-0.057,0.467h-4.593
			v-7.704c0.193-0.033,0.399-0.056,0.604-0.056c0.193,0,0.354,0.022,0.536,0.056v6.77H179.149z"/>
		<path style="fill:#1A2A4F;" d="M184.587,219.205h-4.489v-7.704h4.318c0.045,0.14,0.057,0.331,0.057,0.467
			c0,0.148-0.012,0.32-0.057,0.468h-3.179v2.324h2.746c0.045,0.138,0.057,0.332,0.057,0.469c0,0.146-0.012,0.32-0.057,0.468h-2.746
			v2.574h3.35c0.047,0.136,0.057,0.331,0.057,0.468C184.644,218.886,184.634,219.058,184.587,219.205z"/>
		<path style="fill:#1A2A4F;" d="M189.877,217.383h-3.008l-0.592,1.822c-0.149,0.022-0.388,0.057-0.615,0.057
			c-0.161,0-0.389-0.022-0.536-0.057l2.655-7.704c0.136-0.033,0.422-0.056,0.568-0.056c0.161,0,0.423,0.033,0.524,0.056l2.85,7.704
			c-0.104,0.022-0.378,0.057-0.593,0.057c-0.171,0-0.444-0.012-0.615-0.057L189.877,217.383z M187.166,216.447h2.381l-0.911-2.619
			c-0.148-0.434-0.239-0.787-0.297-1.095h-0.011c-0.058,0.308-0.172,0.671-0.308,1.105L187.166,216.447z"/>
		<path style="fill:#1A2A4F;" d="M196.841,213.53l-2.074,5.675c-0.113,0.034-0.375,0.057-0.568,0.057
			c-0.239,0-0.49-0.022-0.604-0.057l-2.119-5.664c-0.252-0.682-0.377-1.551-0.377-2.04c0.172-0.033,0.354-0.056,0.548-0.056
			c0.216,0,0.41,0.022,0.568,0.056c0.013,0.503,0.126,1.219,0.354,1.848l1.266,3.419c0.146,0.386,0.273,0.831,0.329,1.104h0.024
			c0.057-0.309,0.182-0.695,0.329-1.094l1.254-3.43c0.229-0.615,0.354-1.311,0.354-1.848c0.114-0.022,0.308-0.056,0.559-0.056
			c0.193,0,0.386,0.022,0.535,0.056C197.218,211.99,197.104,212.823,196.841,213.53z"/>
		<path style="fill:#1A2A4F;" d="M199.239,219.205c-0.183,0.022-0.365,0.057-0.547,0.057c-0.206,0-0.389-0.022-0.593-0.057v-7.704
			c0.192-0.033,0.375-0.056,0.581-0.056c0.193,0,0.376,0.022,0.559,0.056V219.205z"/>
		<path style="fill:#1A2A4F;" d="M206.727,219.205c-0.092,0.034-0.285,0.045-0.433,0.045c-0.139,0-0.274-0.011-0.4-0.045
			l-4.056-5.756v5.756c-0.103,0.034-0.376,0.057-0.548,0.057c-0.137,0-0.352-0.012-0.5-0.057v-7.704
			c0.092-0.022,0.329-0.045,0.442-0.045c0.149,0,0.344,0.012,0.458,0.045l3.988,5.664v-5.664c0.125-0.033,0.341-0.056,0.489-0.056
			c0.137,0,0.444,0.022,0.559,0.056V219.205z"/>
		<path style="fill:#1A2A4F;" d="M213.691,218.794c-0.614,0.298-1.436,0.525-2.302,0.525c-2.403,0-3.521-1.583-3.521-3.885
			c0-1.345,0.467-2.509,1.322-3.237c0.604-0.513,1.437-0.811,2.393-0.811c0.707,0,1.413,0.15,1.847,0.343
			c0.044,0.146,0.058,0.286,0.058,0.444c0,0.159-0.014,0.296-0.058,0.445c-0.501-0.149-1.22-0.264-1.755-0.264
			c-0.754,0-1.345,0.239-1.755,0.629c-0.594,0.557-0.855,1.445-0.855,2.427c0,1.88,0.82,2.929,2.439,2.929
			c0.41,0,0.809-0.081,1.048-0.184v-2.506c0.182-0.024,0.353-0.058,0.535-0.058c0.206,0,0.4,0.022,0.604,0.058V218.794z"/>
		<path style="fill:#1A2A4F;" d="M222.847,216.322c0,1.981-0.683,2.997-2.779,2.997c-2.188,0-2.746-0.969-2.746-2.997v-4.821
			c0.182-0.022,0.364-0.056,0.546-0.056c0.206,0,0.389,0.022,0.593,0.056v5.016c0,1.104,0.24,1.924,1.595,1.924
			c1.357,0,1.687-0.819,1.687-1.924v-5.016c0.183-0.022,0.343-0.056,0.525-0.056c0.204,0,0.375,0.022,0.58,0.056V216.322z"/>
		<path style="fill:#1A2A4F;" d="M230.247,219.205c-0.093,0.034-0.285,0.045-0.434,0.045c-0.138,0-0.274-0.011-0.399-0.045
			l-4.057-5.756v5.756c-0.102,0.034-0.375,0.057-0.548,0.057c-0.136,0-0.351-0.012-0.5-0.057v-7.704
			c0.092-0.022,0.329-0.045,0.443-0.045c0.149,0,0.343,0.012,0.457,0.045l3.988,5.664v-5.664c0.126-0.033,0.341-0.056,0.49-0.056
			c0.136,0,0.444,0.022,0.559,0.056V219.205z"/>
		<path style="fill:#1A2A4F;" d="M232.939,219.205c-0.183,0.022-0.364,0.057-0.547,0.057c-0.206,0-0.389-0.022-0.593-0.057v-7.704
			c0.194-0.033,0.375-0.056,0.581-0.056c0.194,0,0.376,0.022,0.559,0.056V219.205z"/>
		<path style="fill:#1A2A4F;" d="M239.551,213.53l-2.075,5.675c-0.113,0.034-0.377,0.057-0.57,0.057
			c-0.239,0-0.489-0.022-0.604-0.057l-2.119-5.664c-0.251-0.682-0.376-1.551-0.376-2.04c0.171-0.033,0.353-0.056,0.547-0.056
			c0.217,0,0.411,0.022,0.569,0.056c0.013,0.503,0.125,1.219,0.354,1.848l1.266,3.419c0.147,0.386,0.271,0.831,0.329,1.104h0.024
			c0.057-0.309,0.181-0.695,0.329-1.094l1.254-3.43c0.228-0.615,0.354-1.311,0.354-1.848c0.114-0.022,0.308-0.056,0.559-0.056
			c0.192,0,0.387,0.022,0.536,0.056C239.927,211.99,239.812,212.823,239.551,213.53z"/>
		<path style="fill:#1A2A4F;" d="M245.239,219.205h-4.489v-7.704h4.318c0.046,0.14,0.058,0.331,0.058,0.467
			c0,0.148-0.012,0.32-0.058,0.468h-3.179v2.324h2.746c0.046,0.138,0.058,0.332,0.058,0.469c0,0.146-0.012,0.32-0.058,0.468h-2.746
			v2.574h3.35c0.046,0.136,0.058,0.331,0.058,0.468C245.297,218.886,245.285,219.058,245.239,219.205z"/>
		<path style="fill:#1A2A4F;" d="M251.485,219.205c-0.227,0.034-0.455,0.057-0.684,0.057c-0.215,0-0.397-0.012-0.615-0.057
			l-1.687-2.964h-1.002v2.964c-0.193,0.034-0.388,0.057-0.581,0.057c-0.183,0-0.376-0.022-0.559-0.057v-7.704
			c0.559-0.033,1.23-0.056,1.88-0.056c1.606,0,2.896,0.49,2.896,2.335c0,1.014-0.56,1.904-1.494,2.246L251.485,219.205z
			 M248.364,212.333c-0.262,0-0.673,0-0.866,0.011v2.999h0.775c1.07,0,1.708-0.479,1.708-1.562
			C249.981,212.733,249.378,212.333,248.364,212.333z"/>
		<path style="fill:#1A2A4F;" d="M254.406,219.319c-0.626,0-1.629-0.136-2.188-0.434c-0.035-0.158-0.058-0.306-0.058-0.468
			c0-0.17,0.012-0.342,0.058-0.501c0.536,0.251,1.48,0.467,2.131,0.467c0.946,0,1.584-0.363,1.584-1.148
			c0-0.719-0.33-1.071-1.254-1.415l-0.58-0.216c-1.151-0.432-1.859-1.061-1.859-2.119c0-1.425,1.209-2.099,2.589-2.099
			c0.604,0,1.184,0.069,1.72,0.206c0.035,0.137,0.058,0.283,0.058,0.435c0,0.158-0.022,0.316-0.058,0.479
			c-0.559-0.114-1.083-0.184-1.652-0.184c-0.775,0-1.504,0.309-1.504,1.127c0,0.582,0.319,0.935,1.219,1.278l0.536,0.206
			c1.173,0.431,1.88,0.979,1.88,2.188C257.027,218.602,255.865,219.319,254.406,219.319z"/>
		<path style="fill:#1A2A4F;" d="M259.31,219.205c-0.182,0.022-0.364,0.057-0.547,0.057c-0.206,0-0.389-0.022-0.592-0.057v-7.704
			c0.192-0.033,0.375-0.056,0.581-0.056c0.193,0,0.376,0.022,0.558,0.056V219.205z"/>
		<path style="fill:#1A2A4F;" d="M265.829,212.436h-2.303v6.77c-0.192,0.034-0.375,0.057-0.581,0.057
			c-0.194,0-0.376-0.022-0.559-0.057v-6.77h-2.188c-0.046-0.147-0.058-0.319-0.058-0.468c0-0.136,0.012-0.327,0.058-0.467h5.63
			c0.045,0.14,0.057,0.331,0.057,0.467C265.886,212.116,265.874,212.288,265.829,212.436z"/>
		<path style="fill:#1A2A4F;" d="M268.463,216.506l-1.698-3.373c-0.283-0.571-0.454-1.165-0.454-1.643
			c0.158-0.034,0.296-0.045,0.558-0.045c0.205,0,0.399,0.011,0.559,0.045c0,0.386,0.046,0.751,0.285,1.255l1.321,2.722h0.023
			l1.321-2.655c0.239-0.479,0.283-0.945,0.283-1.311c0.161-0.045,0.275-0.056,0.525-0.056c0.194,0,0.399,0.022,0.569,0.056
			c0,0.435-0.112,1.026-0.422,1.632l-1.73,3.395v2.678c-0.161,0.034-0.388,0.057-0.57,0.057c-0.206,0-0.388-0.022-0.57-0.057
			V216.506z"/>
	</g>
</g>
<g id="Layer_2">
	
		<line style="fill:none;stroke:#C0588E;stroke-width:1.5;stroke-dasharray:4.476,2.976;" x1="13.422" y1="73.379" x2="13.422" y2="230.576"/>
	
		<line style="fill:none;stroke:#C0588E;stroke-width:1.5;stroke-dasharray:4.45,2.95;" x1="20.797" y1="235.884" x2="282.327" y2="235.884"/>
	
		<line style="fill:none;stroke:#C0588E;stroke-width:1.5;stroke-dasharray:4.476,2.976;" x1="287.601" y1="228.455" x2="287.601" y2="71.258"/>
	
		<line style="fill:none;stroke:#C0588E;stroke-width:1.5;stroke-dasharray:4.45,2.95;" x1="280.227" y1="65.949" x2="18.695" y2="65.949"/>
	<path style="fill:none;stroke:#C0588E;stroke-width:1.5;" d="M16.593,65.949h-3.17v3.19 M287.601,69.139v-3.19h-3.171
		 M284.43,235.884h3.171v-3.189 M13.422,232.694v3.189h3.17"/>
	<g>
		<defs>
			<rect id="SVGID_1_" x="20.36" y="81.565" width="115.171" height="142.096"/>
		</defs>
		<clipPath id="SVGID_2_">
			<use xlink:href="#SVGID_1_"  style="overflow:visible;"/>
		</clipPath>
		<path style="clip-path:url(#SVGID_2_);fill:#C0588E;" d="M94.362,169.09c0,0-13.331,4.42-15.9,19.938
			c-0.005,0.039-0.032,0.039-0.039,0c-2.569-15.518-15.901-19.938-15.901-19.938l8.739-8.679
			c-12.32-5.525-15.596-24.315-15.596-24.315c-0.696-2.714-0.78-4.575-0.78-4.575c6.167-0.419,27.694-2.273,29.165-9.25
			c2.031,3.748,12.772,13.168,17.118,13.882c0,0-4.218,18.58-15.742,24.244L94.362,169.09z M121.379,172.934
			c-1.04-2.483-3.537-4.075-5.919-5.053l-7.944-3.656c-0.008-5.829-0.064-34.874-0.03-37.93c0.045-4.752-0.521-8.996-1.768-12.668
			l9.89-3.573l0.022,9.138h-0.67c-0.468-0.043-0.881,0.294-0.934,0.761l-0.871,7.548c-0.028,0.23,0.043,0.458,0.188,0.638
			c0.147,0.179,0.357,0.294,0.589,0.315l6.907-0.001c0.233-0.027,0.445-0.139,0.588-0.319c0.148-0.181,0.213-0.413,0.187-0.643
			c-0.174-1.482-0.348-2.961-0.52-4.444l-0.36-3.104c-0.056-0.462-0.469-0.799-0.937-0.756h-0.672l0.016-10.413l0.351-0.127
			l1.169-0.423c0.992-0.358,1.651-1.298,1.651-2.349c0-1.053-0.659-1.996-1.651-2.354l-41.368-14.95
			c-0.551-0.199-1.151-0.199-1.699,0l-41.37,14.951c-0.991,0.356-1.65,1.299-1.65,2.352c0,1.052,0.659,1.991,1.65,2.351
			l15.002,5.421c-1.31,3.766-1.905,8.122-1.858,12.986l0.001,37.591l-7.944,3.656c-2.384,0.978-4.729,2.464-5.92,5.053
			c0,0-17.517,44.738-8.015,44.738h101.903C138.894,217.672,121.379,172.934,121.379,172.934"/>
	</g>
</g>
</svg>
