<?xml version="1.0" encoding="utf-8"?>
<!-- Generator: Adobe Illustrator 16.0.0, SVG Export Plug-In . SVG Version: 6.00 Build 0)  -->
<!DOCTYPE svg PUBLIC "-//W3C//DTD SVG 1.1//EN" "http://www.w3.org/Graphics/SVG/1.1/DTD/svg11.dtd">
<svg version="1.1" xmlns="http://www.w3.org/2000/svg" xmlns:xlink="http://www.w3.org/1999/xlink" x="0px" y="0px" width="300px"
	 height="300px" viewBox="0 0 300 300" style="enable-background:new 0 0 300 300;" xml:space="preserve">
<g id="Wreath">
	<path style="fill:#7AC6BA;" d="M262.447,110.903c0,0,11.539,1.364,20.112-7.46c8.562-8.857,5.879-21.215,5.879-21.215
		s-10.995,0-19.774,9.074C259.885,100.378,262.447,110.903,262.447,110.903"/>
	<path style="fill:#7AC6BA;" d="M231.131,91.128c1.833,12.184,12.011,17.769,12.011,17.769s8.18-7.067,6.349-19.556
		c-1.877-12.479-10.821-18.915-10.821-18.915S229.3,78.945,231.131,91.128"/>
	<path style="fill:#7AC6BA;" d="M218.011,120.273c0.207,12.313,9.62,19.217,9.62,19.217s9.043-5.965,8.823-18.575
		c-0.219-12.652-8.223-20.156-8.223-20.156S217.837,107.958,218.011,120.273"/>
	<path style="fill:#7AC6BA;" d="M196.741,137.06c-0.939,12.271,7.756,20.026,7.756,20.026s9.587-5.073,10.568-17.682
		c0.981-12.565-6.305-20.832-6.305-20.832S197.723,124.789,196.741,137.06"/>
	<path style="fill:#7AC6BA;" d="M173.867,150.825c-4.438,11.505,1.659,21.388,1.659,21.388s10.613-2.049,15.171-13.853
		c4.561-11.756-0.042-21.771-0.042-21.771S178.297,139.36,173.867,150.825"/>
	<path style="fill:#7AC6BA;" d="M270.878,66.587c2.215-12.14-6.861-20.92-6.861-20.92s-9.161,6.098-11.421,18.532
		c-2.256,12.4,5.717,19.73,5.717,19.73S268.663,78.694,270.878,66.587"/>
	<path style="fill:#7AC6BA;" d="M263.504,117.808c-11.071,6.086-11.758,16.863-11.758,16.863s10.656,4.733,21.433-1.188
		c10.775-5.924,11.892-18.533,11.892-18.533S274.543,111.71,263.504,117.808"/>
	<path style="fill:#7AC6BA;" d="M248.213,141.75c-12.141,3.446-15.173,13.841-15.173,13.841s9.336,6.993,21.183,3.59
		c11.802-3.371,15.674-15.435,15.674-15.435S260.396,138.258,248.213,141.75"/>
	<path style="fill:#7AC6BA;" d="M230.827,161.862c-12.61-0.392-18.663,8.606-18.663,8.606s6.784,9.457,19.088,9.795
		c12.314,0.382,19.643-9.926,19.643-9.926S243.488,162.2,230.827,161.862"/>
	<path style="fill:#7AC6BA;" d="M203.264,176.51c-12.478-1.874-19.601,6.308-19.601,6.308s5.585,10.229,17.768,12.062
		c12.185,1.831,20.703-7.54,20.703-7.54S215.752,178.388,203.264,176.51"/>
	<path style="fill:#7AC6BA;" d="M260.188,89.896l-6.01,0.208c0.087,2.475,0.763,61.353-93.137,88.927l1.701,5.748
		C261.378,155.854,260.188,90.54,260.188,89.896"/>
	<path style="fill:#7AC6BA;" d="M37.909,110.903c0,0-11.541,1.364-20.113-7.46c-8.562-8.857-5.878-21.215-5.878-21.215
		s10.994,0,19.774,9.074C40.471,100.378,37.909,110.903,37.909,110.903"/>
	<path style="fill:#7AC6BA;" d="M69.223,91.128c-1.832,12.184-12.009,17.769-12.009,17.769s-8.18-7.067-6.348-19.556
		c1.876-12.479,10.821-18.915,10.821-18.915S71.054,78.945,69.223,91.128"/>
	<path style="fill:#7AC6BA;" d="M82.345,120.273c-0.208,12.313-9.621,19.217-9.621,19.217s-9.042-5.965-8.825-18.575
		c0.221-12.652,8.226-20.156,8.226-20.156S82.52,107.958,82.345,120.273"/>
	<path style="fill:#7AC6BA;" d="M103.613,137.06c0.939,12.271-7.754,20.026-7.754,20.026s-9.587-5.073-10.569-17.682
		c-0.982-12.565,6.305-20.832,6.305-20.832S102.632,124.789,103.613,137.06"/>
	<path style="fill:#7AC6BA;" d="M126.486,150.825c4.44,11.505-1.657,21.388-1.657,21.388s-10.613-2.049-15.172-13.853
		c-4.559-11.756,0.043-21.771,0.043-21.771S122.059,139.36,126.486,150.825"/>
	<path style="fill:#7AC6BA;" d="M29.477,66.587c-2.215-12.14,6.861-20.92,6.861-20.92s9.162,6.098,11.42,18.532
		c2.257,12.4-5.715,19.73-5.715,19.73S31.692,78.694,29.477,66.587"/>
	<path style="fill:#7AC6BA;" d="M36.852,117.808c11.07,6.086,11.756,16.863,11.756,16.863s-10.656,4.733-21.431-1.188
		c-10.777-5.924-11.89-18.533-11.89-18.533S25.811,111.71,36.852,117.808"/>
	<path style="fill:#7AC6BA;" d="M52.143,141.75c12.139,3.446,15.171,13.841,15.171,13.841s-9.336,6.993-21.182,3.59
		c-11.801-3.371-15.673-15.435-15.673-15.435S39.959,138.258,52.143,141.75"/>
	<path style="fill:#7AC6BA;" d="M69.529,161.862c12.608-0.392,18.663,8.606,18.663,8.606s-6.786,9.457-19.088,9.795
		c-12.313,0.382-19.645-9.926-19.645-9.926S56.867,162.2,69.529,161.862"/>
	<path style="fill:#7AC6BA;" d="M97.091,176.51c12.479-1.874,19.601,6.308,19.601,6.308s-5.583,10.229-17.769,12.062
		c-12.184,1.831-20.703-7.54-20.703-7.54S84.604,178.388,97.091,176.51"/>
	<path style="fill:#7AC6BA;" d="M40.167,89.896l6.01,0.208c-0.089,2.475-0.764,61.353,93.137,88.927l-1.702,5.748
		C38.978,155.854,40.167,90.54,40.167,89.896"/>
</g>
<g id="Main_text" style="display:none;">
	<text transform="matrix(1 0 0 1 27.207 224.9189)" style="display:inline;"><tspan x="0" y="0" style="fill:#1A2A4F; font-family:'FSMatthew-Bold'; font-size:21.874;">N</tspan><tspan x="16.011" y="0" style="fill:#1A2A4F; font-family:'FSMatthew-Bold'; font-size:21.874;">U</tspan><tspan x="31.017" y="0" style="fill:#1A2A4F; font-family:'FSMatthew-Bold'; font-size:21.874;">MBER</tspan><tspan x="90.361" y="0" style="fill:#1A2A4F; font-family:'FSMatthew-Bold'; font-size:21.874;"> ON</tspan><tspan x="127.35" y="0" style="fill:#1A2A4F; font-family:'FSMatthew-Bold'; font-size:21.874;">E</tspan><tspan x="140.08" y="0" style="fill:#1A2A4F; font-family:'FSMatthew-Bold'; font-size:21.874;"> IN</tspan><tspan x="169.26" y="0" style="fill:#1A2A4F; font-family:'FSMatthew-Bold'; font-size:21.874;"> </tspan><tspan x="173.983" y="0" style="fill:#1A2A4F; font-family:'FSMatthew-Bold'; font-size:21.874;">THE </tspan><tspan x="220.925" y="0" style="fill:#1A2A4F; font-family:'FSMatthew-Bold'; font-size:21.874;">U</tspan><tspan x="236.149" y="0" style="fill:#1A2A4F; font-family:'FSMatthew-Bold'; font-size:21.874;">K </tspan></text>
	<text transform="matrix(1 0 0 1 24.6904 250.1611)" style="display:inline;"><tspan x="0" y="0" style="fill:#1A2A4F; font-family:'FSMatthew-Bold'; font-size:21.874; letter-spacing:-1;">F</tspan><tspan x="10.456" y="0" style="fill:#1A2A4F; font-family:'FSMatthew-Bold'; font-size:21.874;">O</tspan><tspan x="24.345" y="0" style="fill:#1A2A4F; font-family:'FSMatthew-Bold'; font-size:21.874;">R</tspan><tspan x="37.01" y="0" style="fill:#1A2A4F; font-family:'FSMatthew-Bold'; font-size:21.874;"> OU</tspan><tspan x="69.362" y="0" style="fill:#1A2A4F; font-family:'FSMatthew-Bold'; font-size:21.874;">T</tspan><tspan x="80.626" y="0" style="fill:#1A2A4F; font-family:'FSMatthew-Bold'; font-size:21.874;">S</tspan><tspan x="91.454" y="0" style="fill:#1A2A4F; font-family:'FSMatthew-Bold'; font-size:21.874; letter-spacing:-1;">T</tspan><tspan x="101.494" y="0" style="fill:#1A2A4F; font-family:'FSMatthew-Bold'; font-size:21.874;">AND</tspan><tspan x="144.17" y="0" style="fill:#1A2A4F; font-family:'FSMatthew-Bold'; font-size:21.874;">I</tspan><tspan x="150.229" y="0" style="fill:#1A2A4F; font-family:'FSMatthew-Bold'; font-size:21.874;">NG IM</tspan><tspan x="206.882" y="0" style="fill:#1A2A4F; font-family:'FSMatthew-Bold'; font-size:21.874; letter-spacing:-1;">P</tspan><tspan x="217.906" y="0" style="fill:#1A2A4F; font-family:'FSMatthew-Bold'; font-size:21.874;">A</tspan><tspan x="231.314" y="0" style="fill:#1A2A4F; font-family:'FSMatthew-Bold'; font-size:21.874;">C</tspan><tspan x="244.198" y="0" style="fill:#1A2A4F; font-family:'FSMatthew-Bold'; font-size:21.874; letter-spacing:-1;">T</tspan><tspan x="255.092" y="0" style="fill:#1A2A4F; font-family:'FSMatthew-Bold'; font-size:21.874;"> </tspan></text>
	<text transform="matrix(1 0 0 1 65.3115 275.4043)" style="display:inline;"><tspan x="0" y="0" style="fill:#1A2A4F; font-family:'FSMatthew-Bold'; font-size:21.874;">IN </tspan><tspan x="25.308" y="0" style="fill:#1A2A4F; font-family:'FSMatthew-Bold'; font-size:21.874;">L</tspan><tspan x="36.9" y="0" style="fill:#1A2A4F; font-family:'FSMatthew-Bold'; font-size:21.874; letter-spacing:-1;">A</tspan><tspan x="49.565" y="0" style="fill:#1A2A4F; font-family:'FSMatthew-Bold'; font-size:21.874;">W RES</tspan><tspan x="108.625" y="0" style="fill:#1A2A4F; font-family:'FSMatthew-Bold'; font-size:21.874;">E</tspan><tspan x="120.415" y="0" style="fill:#1A2A4F; font-family:'FSMatthew-Bold'; font-size:21.874;">A</tspan><tspan x="134.349" y="0" style="fill:#1A2A4F; font-family:'FSMatthew-Bold'; font-size:21.874;">R</tspan><tspan x="146.772" y="0" style="fill:#1A2A4F; font-family:'FSMatthew-Bold'; font-size:21.874;">C</tspan><tspan x="159.044" y="0" style="fill:#1A2A4F; font-family:'FSMatthew-Bold'; font-size:21.874;">H</tspan></text>
</g>
<g id="Main_Text_Path">
	<g>
		<path style="fill:#1A2A4F;" d="M40.708,224.919c-0.219,0.044-0.744,0.088-1.116,0.088s-0.744-0.022-1.094-0.088l-6.805-9.475
			v9.475c-0.175,0.044-0.832,0.109-1.444,0.109c-0.503,0-1.094-0.065-1.4-0.109v-14.792c0.35-0.065,0.766-0.087,1.16-0.087
			c0.416,0,0.854,0.044,1.182,0.087l6.674,9.3v-9.3c0.438-0.065,1.006-0.109,1.422-0.109c0.416,0,1.029,0.044,1.422,0.109V224.919z"
			/>
		<path style="fill:#1A2A4F;" d="M56.019,219.296c0,3.763-1.444,5.842-5.645,5.842c-4.245,0-5.58-2.079-5.58-5.842v-9.169
			c0.438-0.065,1.006-0.109,1.531-0.109c0.613,0,1.16,0.044,1.598,0.109v9.388c0,2.013,0.569,3.15,2.473,3.15
			c1.903,0,2.56-1.138,2.56-3.15v-9.388c0.394-0.065,1.05-0.109,1.553-0.109c0.481,0,1.138,0.044,1.51,0.109V219.296z"/>
		<path style="fill:#1A2A4F;" d="M74.832,224.919c-0.263,0.065-0.854,0.109-1.466,0.109c-0.656,0-1.269-0.065-1.532-0.109
			l-0.262-8.884l-3.239,7.483c-0.241,0.088-0.766,0.131-1.094,0.131c-0.394,0-0.875-0.043-1.116-0.109l-3.238-7.505l-0.284,8.884
			c-0.285,0.065-0.963,0.109-1.554,0.109c-0.35,0-0.941-0.044-1.335-0.109l0.635-14.792c0.416-0.043,0.832-0.109,1.269-0.109
			c0.525,0,1.028,0.044,1.291,0.109l4.333,10.044l4.354-10.044c0.438-0.065,0.875-0.109,1.27-0.109c0.503,0,0.962,0.044,1.291,0.109
			L74.832,224.919z"/>
		<path style="fill:#1A2A4F;" d="M83.425,225.028c-1.553,0-3.063-0.044-4.617-0.131v-14.748c1.269-0.088,2.954-0.132,4.092-0.132
			c3.37,0,5.426,1.028,5.426,3.808c0,1.4-0.591,2.451-1.969,3.063c1.838,0.438,3.02,1.772,3.02,3.566
			C89.376,223.869,86.904,225.028,83.425,225.028z M83.119,212.6c-0.394,0-0.832,0.022-1.182,0.044v3.326h1.226
			c1.422,0,2.101-0.46,2.101-1.794C85.263,212.797,84.191,212.6,83.119,212.6z M83.469,218.42h-1.532v3.982
			c0.416,0.022,1.028,0.044,1.444,0.044c1.947,0,2.888-0.547,2.888-2.013C86.27,218.924,85.46,218.42,83.469,218.42z"/>
		<path style="fill:#1A2A4F;" d="M101.779,224.919h-9.256v-14.792h9.059c0.088,0.241,0.153,0.7,0.153,1.313
			c0,0.481-0.044,0.896-0.153,1.356h-5.93v3.194h5.011c0.087,0.241,0.153,0.679,0.153,1.291c0,0.481-0.044,0.875-0.153,1.335h-5.011
			v3.632h6.127c0.087,0.241,0.153,0.7,0.153,1.313C101.932,224.044,101.888,224.459,101.779,224.919z"/>
		<path style="fill:#1A2A4F;" d="M116.15,224.897c-0.569,0.087-1.16,0.131-1.838,0.131c-0.612,0-1.225-0.021-1.641-0.109
			l-2.998-5.317h-1.291v5.317c-0.547,0.088-1.006,0.109-1.597,0.109c-0.525,0-0.985-0.021-1.532-0.109v-14.792
			c1.006-0.065,3.107-0.109,4.376-0.109c3.72,0,5.58,1.313,5.58,4.727c0,1.816-1.094,3.633-2.626,4.289L116.15,224.897z
			 M109.827,212.578c-0.481,0-1.072,0.021-1.444,0.044v4.376h1.094c1.794,0,2.582-0.656,2.582-2.275
			S111.271,212.578,109.827,212.578z"/>
		<path style="fill:#1A2A4F;" d="M130.52,225.138c-4.048,0-6.192-2.801-6.192-7.614c0-4.814,2.144-7.615,6.192-7.615
			c4.048,0,6.192,2.801,6.192,7.615C136.712,222.337,134.567,225.138,130.52,225.138z M130.52,212.6
			c-1.882,0-2.954,1.444-2.954,4.924c0,3.479,1.072,4.923,2.954,4.923s2.954-1.444,2.954-4.923
			C133.473,214.044,132.401,212.6,130.52,212.6z"/>
		<path style="fill:#1A2A4F;" d="M152.046,224.919c-0.219,0.044-0.744,0.088-1.116,0.088s-0.744-0.022-1.094-0.088l-6.805-9.475
			v9.475c-0.175,0.044-0.832,0.109-1.444,0.109c-0.503,0-1.094-0.065-1.4-0.109v-14.792c0.35-0.065,0.766-0.087,1.16-0.087
			c0.416,0,0.854,0.044,1.182,0.087l6.674,9.3v-9.3c0.438-0.065,1.006-0.109,1.422-0.109c0.416,0,1.028,0.044,1.423,0.109V224.919z"
			/>
		<path style="fill:#1A2A4F;" d="M165.453,224.919h-9.256v-14.792h9.06c0.087,0.241,0.153,0.7,0.153,1.313
			c0,0.481-0.044,0.896-0.153,1.356h-5.93v3.194h5.011c0.087,0.241,0.152,0.679,0.152,1.291c0,0.481-0.043,0.875-0.152,1.335h-5.011
			v3.632h6.126c0.088,0.241,0.153,0.7,0.153,1.313C165.606,224.044,165.562,224.459,165.453,224.919z"/>
		<path style="fill:#1A2A4F;" d="M177.896,224.919c-0.415,0.065-0.919,0.109-1.575,0.109c-0.591,0-1.138-0.044-1.554-0.109v-14.792
			c0.416-0.065,1.028-0.109,1.576-0.109c0.612,0,1.159,0.044,1.553,0.109V224.919z"/>
		<path style="fill:#1A2A4F;" d="M193.956,224.919c-0.219,0.044-0.744,0.088-1.116,0.088s-0.744-0.022-1.094-0.088l-6.806-9.475
			v9.475c-0.175,0.044-0.831,0.109-1.444,0.109c-0.503,0-1.094-0.065-1.4-0.109v-14.792c0.351-0.065,0.767-0.087,1.16-0.087
			c0.416,0,0.854,0.044,1.182,0.087l6.674,9.3v-9.3c0.438-0.065,1.007-0.109,1.422-0.109c0.416,0,1.028,0.044,1.423,0.109V224.919z"
			/>
		<path style="fill:#1A2A4F;" d="M212.656,212.797h-3.917v12.122c-0.416,0.065-1.007,0.109-1.554,0.109s-1.138-0.044-1.575-0.109
			v-12.122h-3.917c-0.087-0.284-0.152-0.963-0.152-1.335s0.087-1.05,0.175-1.335h10.94c0.088,0.285,0.153,0.963,0.153,1.335
			S212.744,212.513,212.656,212.797z"/>
		<path style="fill:#1A2A4F;" d="M227.072,224.919c-0.394,0.065-0.94,0.109-1.554,0.109c-0.612,0-1.159-0.044-1.575-0.109v-6.127
			h-5.142v6.127c-0.416,0.065-0.897,0.109-1.554,0.109c-0.591,0-1.16-0.044-1.576-0.109v-14.792
			c0.416-0.065,1.029-0.109,1.576-0.109c0.612,0,1.159,0.044,1.554,0.109v5.996h5.142v-5.996c0.481-0.065,1.028-0.109,1.575-0.109
			c0.525,0,1.182,0.044,1.554,0.109V224.919z"/>
		<path style="fill:#1A2A4F;" d="M240.479,224.919h-9.256v-14.792h9.06c0.087,0.241,0.152,0.7,0.152,1.313
			c0,0.481-0.043,0.896-0.152,1.356h-5.93v3.194h5.011c0.087,0.241,0.152,0.679,0.152,1.291c0,0.481-0.043,0.875-0.152,1.335h-5.011
			v3.632h6.126c0.088,0.241,0.153,0.7,0.153,1.313C240.633,224.044,240.589,224.459,240.479,224.919z"/>
		<path style="fill:#1A2A4F;" d="M260.933,219.296c0,3.763-1.444,5.842-5.646,5.842c-4.245,0-5.58-2.079-5.58-5.842v-9.169
			c0.438-0.065,1.007-0.109,1.532-0.109c0.612,0,1.159,0.044,1.597,0.109v9.388c0,2.013,0.569,3.15,2.473,3.15
			c1.904,0,2.561-1.138,2.561-3.15v-9.388c0.394-0.065,1.05-0.109,1.554-0.109c0.481,0,1.138,0.044,1.51,0.109V219.296z"/>
		<path style="fill:#1A2A4F;" d="M276.616,224.919c-0.394,0.065-1.094,0.109-1.859,0.109c-0.548,0-1.335-0.044-1.795-0.109
			l-3.829-5.93l-1.006,1.203v4.727c-0.416,0.065-0.92,0.109-1.576,0.109c-0.591,0-1.138-0.044-1.554-0.109v-14.792
			c0.416-0.065,1.029-0.109,1.576-0.109c0.612,0,1.159,0.044,1.554,0.109v6.368l2.538-2.977c1.115-1.312,1.729-2.253,1.969-3.392
			c0.438-0.065,1.051-0.109,1.532-0.109c0.394,0,1.072,0.044,1.531,0.109c-0.328,1.729-1.247,3.238-2.56,4.749l-1.751,2.013
			L276.616,224.919z"/>
	</g>
	<g>
		<path style="fill:#1A2A4F;" d="M35.281,238.039h-5.82v3.194h4.901c0.087,0.241,0.153,0.679,0.153,1.291
			c0,0.481-0.044,0.875-0.153,1.335H29.46v6.302c-0.416,0.065-0.897,0.109-1.554,0.109c-0.59,0-1.16-0.044-1.575-0.109v-14.792
			h8.949c0.087,0.241,0.153,0.7,0.153,1.313C35.434,237.164,35.39,237.579,35.281,238.039z"/>
		<path style="fill:#1A2A4F;" d="M42.301,250.38c-4.048,0-6.192-2.801-6.192-7.614c0-4.814,2.144-7.615,6.192-7.615
			c4.048,0,6.192,2.801,6.192,7.615C48.494,247.579,46.349,250.38,42.301,250.38z M42.301,237.842c-1.882,0-2.954,1.444-2.954,4.924
			c0,3.479,1.072,4.923,2.954,4.923s2.954-1.444,2.954-4.923C45.255,239.286,44.183,237.842,42.301,237.842z"/>
		<path style="fill:#1A2A4F;" d="M61.574,250.14c-0.569,0.087-1.16,0.131-1.838,0.131c-0.612,0-1.225-0.021-1.641-0.109
			l-2.998-5.317h-1.291v5.317c-0.547,0.088-1.006,0.109-1.597,0.109c-0.525,0-0.985-0.021-1.532-0.109v-14.792
			c1.006-0.065,3.107-0.109,4.376-0.109c3.72,0,5.58,1.313,5.58,4.727c0,1.816-1.094,3.633-2.626,4.289L61.574,250.14z
			 M55.25,237.82c-0.481,0-1.072,0.021-1.444,0.044v4.376H54.9c1.794,0,2.582-0.656,2.582-2.275S56.694,237.82,55.25,237.82z"/>
		<path style="fill:#1A2A4F;" d="M73.362,250.38c-4.048,0-6.192-2.801-6.192-7.614c0-4.814,2.144-7.615,6.192-7.615
			c4.048,0,6.192,2.801,6.192,7.615C79.554,247.579,77.41,250.38,73.362,250.38z M73.362,237.842c-1.882,0-2.954,1.444-2.954,4.924
			c0,3.479,1.072,4.923,2.954,4.923s2.954-1.444,2.954-4.923C76.315,239.286,75.244,237.842,73.362,237.842z"/>
		<path style="fill:#1A2A4F;" d="M92.897,244.538c0,3.763-1.444,5.842-5.645,5.842c-4.245,0-5.58-2.079-5.58-5.842v-9.169
			c0.438-0.065,1.007-0.109,1.532-0.109c0.613,0,1.16,0.044,1.598,0.109v9.388c0,2.013,0.569,3.15,2.472,3.15
			c1.904,0,2.561-1.138,2.561-3.15v-9.388c0.394-0.065,1.05-0.109,1.553-0.109c0.481,0,1.138,0.044,1.51,0.109V244.538z"/>
		<path style="fill:#1A2A4F;" d="M105.518,238.039h-3.917v12.122c-0.416,0.065-1.006,0.109-1.553,0.109
			c-0.547,0-1.138-0.044-1.576-0.109v-12.122h-3.917c-0.088-0.284-0.153-0.963-0.153-1.335s0.087-1.05,0.175-1.335h10.941
			c0.087,0.285,0.153,0.963,0.153,1.335S105.605,237.755,105.518,238.039z"/>
		<path style="fill:#1A2A4F;" d="M110.984,250.38c-1.597,0-3.348-0.307-4.595-0.875c-0.066-0.307-0.109-0.7-0.109-1.051
			c0-0.524,0.065-1.028,0.219-1.619c1.291,0.525,2.998,0.854,4.333,0.854c1.553,0,2.385-0.722,2.385-1.707
			c0-1.094-0.7-1.553-2.822-2.21c-2.363-0.722-4.092-1.859-4.092-4.397c0-2.714,2.341-4.224,5.426-4.224
			c1.422,0,2.691,0.219,3.545,0.504c0.065,0.24,0.109,0.634,0.109,1.203c0,0.416-0.044,1.051-0.131,1.4
			c-1.094-0.284-2.341-0.438-3.348-0.438c-1.641,0-2.539,0.547-2.539,1.422c0,1.028,0.81,1.444,2.779,2.057
			c2.363,0.744,4.114,1.86,4.114,4.486C116.257,248.651,114.004,250.38,110.984,250.38z"/>
		<path style="fill:#1A2A4F;" d="M127.61,238.039h-3.917v12.122c-0.416,0.065-1.006,0.109-1.553,0.109
			c-0.547,0-1.138-0.044-1.576-0.109v-12.122h-3.917c-0.088-0.284-0.153-0.963-0.153-1.335s0.087-1.05,0.175-1.335h10.94
			c0.087,0.285,0.153,0.963,0.153,1.335S127.698,237.755,127.61,238.039z"/>
		<path style="fill:#1A2A4F;" d="M140.232,250.161c-0.285,0.065-0.963,0.109-1.685,0.109c-0.569,0-1.225-0.065-1.51-0.109
			l-1.094-2.998h-5.251l-1.028,2.998c-0.481,0.065-1.05,0.109-1.619,0.109s-1.225-0.044-1.554-0.109l5.164-14.792
			c0.306-0.065,1.028-0.109,1.51-0.109c0.591,0,1.291,0.044,1.532,0.109L140.232,250.161z M135.002,244.56l-1.291-4.18
			c-0.153-0.481-0.307-1.094-0.438-1.772h-0.043c-0.109,0.679-0.285,1.291-0.438,1.772l-1.225,4.18H135.002z"/>
		<path style="fill:#1A2A4F;" d="M153.619,250.161c-0.219,0.044-0.744,0.088-1.116,0.088s-0.744-0.022-1.094-0.088l-6.805-9.475
			v9.475c-0.175,0.044-0.832,0.109-1.444,0.109c-0.503,0-1.094-0.065-1.4-0.109v-14.792c0.35-0.065,0.766-0.087,1.16-0.087
			c0.416,0,0.854,0.044,1.182,0.087l6.674,9.3v-9.3c0.438-0.065,1.007-0.109,1.422-0.109c0.416,0,1.028,0.044,1.423,0.109V250.161z"
			/>
		<path style="fill:#1A2A4F;" d="M165.998,248.849c-1.356,1.05-3.107,1.422-5.514,1.422c-1.226,0-3.305-0.044-4.005-0.109v-14.792
			c1.072-0.065,3.305-0.109,4.552-0.109c4.813,0,7.286,2.035,7.286,7.33C168.317,245.325,167.596,247.601,165.998,248.849z
			 M161.097,237.842c-0.591,0-1.247,0.022-1.487,0.044v9.737c0.284,0.021,0.94,0.044,1.619,0.044c2.757,0,3.851-1.751,3.851-5.12
			C165.079,238.849,163.941,237.842,161.097,237.842z"/>
		<path style="fill:#1A2A4F;" d="M173.674,250.161c-0.415,0.065-0.919,0.109-1.575,0.109c-0.591,0-1.138-0.044-1.554-0.109v-14.792
			c0.416-0.065,1.028-0.109,1.576-0.109c0.612,0,1.159,0.044,1.553,0.109V250.161z"/>
		<path style="fill:#1A2A4F;" d="M188.42,250.161c-0.219,0.044-0.744,0.088-1.116,0.088s-0.744-0.022-1.094-0.088l-6.806-9.475
			v9.475c-0.175,0.044-0.831,0.109-1.444,0.109c-0.503,0-1.094-0.065-1.4-0.109v-14.792c0.351-0.065,0.767-0.087,1.16-0.087
			c0.416,0,0.854,0.044,1.182,0.087l6.674,9.3v-9.3c0.438-0.065,1.007-0.109,1.422-0.109c0.416,0,1.028,0.044,1.423,0.109V250.161z"
			/>
		<path style="fill:#1A2A4F;" d="M202.418,249.592c-1.138,0.504-2.997,0.788-4.727,0.788c-4.923,0-7.089-3.15-7.089-7.461
			c0-4.508,2.669-7.769,7.418-7.769c1.356,0,2.91,0.285,3.829,0.679c0.065,0.35,0.109,0.875,0.109,1.116
			c0,0.481-0.088,1.006-0.176,1.334c-0.94-0.306-2.297-0.503-3.544-0.503c-3.151,0-4.398,2.298-4.398,5.099
			c0,2.976,1.312,4.879,3.961,4.879c0.591,0,1.159-0.043,1.487-0.131v-4.727c0.416-0.065,0.984-0.109,1.532-0.109
			c0.612,0,1.203,0.044,1.597,0.109V249.592z"/>
		<path style="fill:#1A2A4F;" d="M212.631,250.161c-0.415,0.065-0.919,0.109-1.575,0.109c-0.591,0-1.138-0.044-1.554-0.109v-14.792
			c0.416-0.065,1.028-0.109,1.576-0.109c0.612,0,1.159,0.044,1.553,0.109V250.161z"/>
		<path style="fill:#1A2A4F;" d="M230.506,250.161c-0.263,0.065-0.854,0.109-1.466,0.109c-0.656,0-1.269-0.065-1.531-0.109
			l-0.263-8.884l-3.238,7.483c-0.241,0.088-0.767,0.131-1.095,0.131c-0.394,0-0.875-0.043-1.115-0.109l-3.238-7.505l-0.285,8.884
			c-0.284,0.065-0.963,0.109-1.554,0.109c-0.35,0-0.94-0.044-1.334-0.109l0.634-14.792c0.416-0.043,0.832-0.109,1.27-0.109
			c0.525,0,1.028,0.044,1.291,0.109l4.332,10.044l4.354-10.044c0.438-0.065,0.875-0.109,1.27-0.109c0.503,0,0.963,0.044,1.291,0.109
			L230.506,250.161z"/>
		<path style="fill:#1A2A4F;" d="M237.874,244.866h-1.531v5.295c-0.416,0.065-0.919,0.109-1.576,0.109
			c-0.591,0-1.138-0.044-1.554-0.109v-14.77c1.27-0.065,3.195-0.132,4.442-0.132c3.348,0,5.776,1.16,5.776,4.639
			C243.432,243.29,241.31,244.866,237.874,244.866z M237.786,237.842c-0.438,0-1.006,0.022-1.443,0.044v4.354h1.356
			c1.685,0,2.582-0.438,2.582-2.232C240.281,238.477,239.515,237.842,237.786,237.842z"/>
		<path style="fill:#1A2A4F;" d="M256.645,250.161c-0.284,0.065-0.963,0.109-1.685,0.109c-0.569,0-1.226-0.065-1.511-0.109
			l-1.094-2.998h-5.251l-1.028,2.998c-0.481,0.065-1.051,0.109-1.619,0.109c-0.569,0-1.226-0.044-1.554-0.109l5.164-14.792
			c0.306-0.065,1.028-0.109,1.51-0.109c0.591,0,1.291,0.044,1.531,0.109L256.645,250.161z M251.415,244.56l-1.291-4.18
			c-0.153-0.481-0.307-1.094-0.438-1.772h-0.044c-0.109,0.679-0.284,1.291-0.438,1.772l-1.226,4.18H251.415z"/>
		<path style="fill:#1A2A4F;" d="M267.733,238.455c-1.051-0.328-2.363-0.569-3.414-0.569c-2.494,0-4.113,1.772-4.113,4.945
			c0,2.91,1.27,4.813,4.092,4.813c1.05,0,2.231-0.219,3.282-0.547c0.153,0.394,0.263,1.007,0.263,1.466
			c0,0.372-0.022,0.832-0.065,1.028c-1.095,0.504-2.495,0.788-3.786,0.788c-4.704,0-7.023-2.845-7.023-7.483
			c0-4.508,2.494-7.746,7.155-7.746c1.138,0,2.625,0.285,3.676,0.744c0.065,0.219,0.088,0.7,0.088,0.984
			C267.887,237.558,267.799,238.192,267.733,238.455z"/>
		<path style="fill:#1A2A4F;" d="M280.354,238.039h-3.917v12.122c-0.416,0.065-1.007,0.109-1.554,0.109s-1.138-0.044-1.575-0.109
			v-12.122h-3.917c-0.087-0.284-0.153-0.963-0.153-1.335s0.088-1.05,0.176-1.335h10.94c0.087,0.285,0.153,0.963,0.153,1.335
			S280.441,237.755,280.354,238.039z"/>
	</g>
	<g>
		<path style="fill:#1A2A4F;" d="M70.125,275.404c-0.416,0.065-0.919,0.109-1.576,0.109c-0.591,0-1.138-0.044-1.553-0.109v-14.792
			c0.416-0.065,1.028-0.109,1.575-0.109c0.613,0,1.16,0.044,1.554,0.109V275.404z"/>
		<path style="fill:#1A2A4F;" d="M84.893,275.404c-0.219,0.044-0.744,0.088-1.116,0.088s-0.744-0.022-1.094-0.088l-6.805-9.475
			v9.475c-0.175,0.044-0.832,0.109-1.444,0.109c-0.503,0-1.094-0.065-1.4-0.109v-14.792c0.35-0.065,0.766-0.087,1.16-0.087
			c0.416,0,0.854,0.044,1.182,0.087l6.674,9.3v-9.3c0.438-0.065,1.006-0.109,1.422-0.109c0.416,0,1.029,0.044,1.422,0.109V275.404z"
			/>
		<path style="fill:#1A2A4F;" d="M101.319,275.404H92.26v-14.792c0.416-0.065,0.985-0.109,1.532-0.109
			c0.613,0,1.203,0.044,1.597,0.109v12.122h5.93c0.088,0.241,0.153,0.7,0.153,1.313
			C101.472,274.529,101.428,274.944,101.319,275.404z"/>
		<path style="fill:#1A2A4F;" d="M116.26,275.404c-0.285,0.065-0.963,0.109-1.685,0.109c-0.569,0-1.225-0.065-1.51-0.109
			l-1.094-2.998h-5.251l-1.028,2.998c-0.481,0.065-1.05,0.109-1.619,0.109s-1.225-0.044-1.554-0.109l5.164-14.792
			c0.306-0.065,1.028-0.109,1.51-0.109c0.591,0,1.291,0.044,1.532,0.109L116.26,275.404z M111.03,269.803l-1.291-4.18
			c-0.153-0.481-0.307-1.094-0.438-1.771h-0.043c-0.109,0.678-0.285,1.29-0.438,1.771l-1.225,4.18H111.03z"/>
		<path style="fill:#1A2A4F;" d="M129.756,275.404c-0.284,0.044-0.853,0.109-1.466,0.109c-0.591,0-1.182-0.065-1.575-0.109
			l-1.794-7.309c-0.197-0.766-0.306-1.597-0.394-2.319h-0.021c-0.066,0.723-0.241,1.575-0.416,2.319l-1.772,7.309
			c-0.394,0.044-1.006,0.109-1.575,0.109c-0.547,0-1.204-0.065-1.51-0.109l-3.304-10.831c-0.35-1.138-0.569-2.494-0.569-3.961
			c0.459-0.087,1.028-0.109,1.51-0.109c0.81,0,1.204,0.044,1.554,0.109c0,1.423,0.197,2.604,0.459,3.61l1.334,5.055
			c0.197,0.788,0.394,1.816,0.503,2.801h0.044c0.109-0.984,0.284-2.013,0.481-2.822l2.057-8.644c0.394-0.065,0.766-0.109,1.16-0.109
			c0.416,0,0.788,0.044,1.204,0.109l2.101,8.665c0.197,0.788,0.416,1.816,0.525,2.801h0.044c0.109-0.984,0.306-2.013,0.525-2.822
			l1.4-5.033c0.285-1.006,0.503-2.188,0.503-3.61c0.35-0.065,0.984-0.109,1.641-0.109c0.438,0,1.028,0.044,1.444,0.109
			c0,1.619-0.24,2.845-0.591,3.961L129.756,275.404z"/>
		<path style="fill:#1A2A4F;" d="M150.929,275.383c-0.569,0.087-1.16,0.131-1.838,0.131c-0.612,0-1.225-0.021-1.641-0.109
			l-2.998-5.317h-1.291v5.317c-0.547,0.088-1.006,0.109-1.597,0.109c-0.525,0-0.985-0.021-1.532-0.109v-14.792
			c1.006-0.065,3.107-0.109,4.376-0.109c3.72,0,5.58,1.313,5.58,4.727c0,1.816-1.094,3.633-2.626,4.289L150.929,275.383z
			 M144.605,263.063c-0.481,0-1.072,0.021-1.444,0.044v4.376h1.094c1.794,0,2.582-0.656,2.582-2.275
			S146.049,263.063,144.605,263.063z"/>
		<path style="fill:#1A2A4F;" d="M161.975,275.404h-9.256v-14.792h9.06c0.087,0.241,0.153,0.7,0.153,1.313
			c0,0.481-0.044,0.896-0.153,1.356h-5.93v3.194h5.011c0.087,0.241,0.152,0.679,0.152,1.291c0,0.481-0.043,0.875-0.152,1.335h-5.011
			v3.632h6.126c0.088,0.241,0.153,0.7,0.153,1.313C162.128,274.529,162.084,274.944,161.975,275.404z"/>
		<path style="fill:#1A2A4F;" d="M168.207,275.623c-1.597,0-3.348-0.307-4.595-0.875c-0.065-0.307-0.109-0.7-0.109-1.051
			c0-0.524,0.065-1.028,0.219-1.619c1.291,0.525,2.998,0.854,4.332,0.854c1.554,0,2.386-0.722,2.386-1.707
			c0-1.094-0.7-1.553-2.823-2.21c-2.363-0.722-4.092-1.859-4.092-4.397c0-2.714,2.342-4.224,5.427-4.224
			c1.422,0,2.691,0.219,3.545,0.504c0.065,0.24,0.109,0.634,0.109,1.203c0,0.416-0.044,1.05-0.132,1.4
			c-1.094-0.284-2.341-0.438-3.348-0.438c-1.641,0-2.538,0.547-2.538,1.422c0,1.028,0.81,1.444,2.779,2.057
			c2.363,0.744,4.113,1.86,4.113,4.486C173.48,273.895,171.227,275.623,168.207,275.623z"/>
		<path style="fill:#1A2A4F;" d="M184.833,275.404h-9.256v-14.792h9.06c0.087,0.241,0.152,0.7,0.152,1.313
			c0,0.481-0.043,0.896-0.152,1.356h-5.93v3.194h5.011c0.087,0.241,0.152,0.679,0.152,1.291c0,0.481-0.043,0.875-0.152,1.335h-5.011
			v3.632h6.126c0.088,0.241,0.153,0.7,0.153,1.313C184.986,274.529,184.942,274.944,184.833,275.404z"/>
		<path style="fill:#1A2A4F;" d="M199.774,275.404c-0.284,0.065-0.963,0.109-1.685,0.109c-0.569,0-1.226-0.065-1.51-0.109
			l-1.095-2.998h-5.251l-1.028,2.998c-0.481,0.065-1.051,0.109-1.619,0.109c-0.569,0-1.226-0.044-1.554-0.109l5.164-14.792
			c0.306-0.065,1.028-0.109,1.51-0.109c0.591,0,1.291,0.044,1.531,0.109L199.774,275.404z M194.545,269.803l-1.291-4.18
			c-0.153-0.481-0.307-1.094-0.438-1.771h-0.044c-0.109,0.678-0.284,1.29-0.438,1.771l-1.226,4.18H194.545z"/>
		<path style="fill:#1A2A4F;" d="M212.198,275.383c-0.569,0.087-1.16,0.131-1.838,0.131c-0.613,0-1.226-0.021-1.642-0.109
			l-2.997-5.317h-1.291v5.317c-0.548,0.088-1.007,0.109-1.598,0.109c-0.525,0-0.984-0.021-1.532-0.109v-14.792
			c1.007-0.065,3.107-0.109,4.377-0.109c3.72,0,5.579,1.313,5.579,4.727c0,1.816-1.094,3.633-2.625,4.289L212.198,275.383z
			 M205.874,263.063c-0.481,0-1.072,0.021-1.443,0.044v4.376h1.094c1.794,0,2.582-0.656,2.582-2.275
			S207.318,263.063,205.874,263.063z"/>
		<path style="fill:#1A2A4F;" d="M223.812,263.698c-1.051-0.328-2.363-0.569-3.414-0.569c-2.494,0-4.113,1.772-4.113,4.945
			c0,2.91,1.27,4.813,4.092,4.813c1.05,0,2.231-0.219,3.282-0.547c0.153,0.394,0.263,1.007,0.263,1.466
			c0,0.372-0.022,0.832-0.065,1.028c-1.095,0.504-2.495,0.788-3.786,0.788c-4.704,0-7.023-2.845-7.023-7.483
			c0-4.508,2.494-7.746,7.155-7.746c1.138,0,2.625,0.285,3.676,0.744c0.065,0.219,0.088,0.7,0.088,0.984
			C223.966,262.801,223.878,263.436,223.812,263.698z"/>
		<path style="fill:#1A2A4F;" d="M237.396,275.404c-0.394,0.065-0.94,0.109-1.554,0.109c-0.612,0-1.159-0.044-1.575-0.109v-6.127
			h-5.142v6.127c-0.416,0.065-0.897,0.109-1.554,0.109c-0.591,0-1.16-0.044-1.576-0.109v-14.792
			c0.416-0.065,1.029-0.109,1.576-0.109c0.612,0,1.159,0.044,1.554,0.109v5.996h5.142v-5.996c0.481-0.065,1.028-0.109,1.575-0.109
			c0.525,0,1.182,0.044,1.554,0.109V275.404z"/>
	</g>
</g>
<g id="Number_text">
	<path style="fill:#BBA461;" d="M172.079,119.379V22.958h-22.708c-0.174,3.97-1.113,7.329-2.859,10.014
		c-1.702,2.726-3.882,4.895-6.565,6.521c-2.683,1.614-5.661,2.771-9.03,3.492c-3.316,0.687-6.732,0.98-10.221,0.894v19.938h22.578
		v55.562H172.079z"/>
</g>
</svg>
