<?xml version="1.0" encoding="utf-8"?>
<!-- Generator: Adobe Illustrator 16.0.4, SVG Export Plug-In . SVG Version: 6.00 Build 0)  -->
<!DOCTYPE svg PUBLIC "-//W3C//DTD SVG 1.1//EN" "http://www.w3.org/Graphics/SVG/1.1/DTD/svg11.dtd">
<svg version="1.1" id="Layer_1" xmlns="http://www.w3.org/2000/svg" xmlns:xlink="http://www.w3.org/1999/xlink" x="0px" y="0px"
	 width="300px" height="300px" viewBox="0 0 300 300" enable-background="new 0 0 300 300" xml:space="preserve">
<g id="Layer_1_1_" display="none">
	<g id="Text" display="inline">
		<text transform="matrix(1 0 0 1 155.8018 123.9209)" fill="#BBA461" font-family="'FSMatthew-Bold'" font-size="63.0416">9</text>
		<text transform="matrix(1 0 0 1 188.5195 123.9209)" fill="#BBA461" font-family="'FSMatthew-Bold'" font-size="63.0416">2</text>
		<text transform="matrix(1 0 0 1 222.498 123.9209)" fill="#BBA461" font-family="'FSMatthew-Bold'" font-size="63.0416">%</text>
		<text transform="matrix(1 0 0 1 142.708 205.209)" fill="#1A2A4F" font-family="'FSMatthew-Bold'" font-size="28.5024">6 </text>
		<text transform="matrix(1 0 0 1 163.3721 205.209)" fill="#1A2A4F" font-family="'FSMatthew-Bold'" font-size="28.5024">M</text>
		<text transform="matrix(1 0 0 1 186.2305 205.209)" fill="#1A2A4F" font-family="'FSMatthew-Bold'" font-size="28.5024">ON</text>
		<text transform="matrix(1 0 0 1 223.2266 205.209)" fill="#1A2A4F" font-family="'FSMatthew-Bold'" font-size="28.5024">T</text>
		<text transform="matrix(1 0 0 1 238.1035 205.209)" fill="#1A2A4F" font-family="'FSMatthew-Bold'" font-size="28.5024">H</text>
		<text transform="matrix(1 0 0 1 256.5449 205.209)" fill="#1A2A4F" font-family="'FSMatthew-Bold'" font-size="28.5024">S</text>
		<text transform="matrix(1 0 0 1 156.4033 146.4287)" fill="#1A2A4F" font-family="'FSMatthew'" font-size="14.2512">OF</text>
		<text transform="matrix(1 0 0 1 171.5508 146.4287)" fill="#1A2A4F" font-family="'FSMatthew'" font-size="14.2512"> </text>
		<text transform="matrix(1 0 0 1 174.3457 146.4287)" fill="#1A2A4F" font-family="'FSMatthew'" font-size="14.2512">OUR</text>
		<text transform="matrix(1 0 0 1 199.043 146.4287)" fill="#1A2A4F" font-family="'FSMatthew'" font-size="14.2512"> G</text>
		<text transform="matrix(1 0 0 1 210.3145 146.4287)" fill="#1A2A4F" font-family="'FSMatthew'" font-size="14.2512">R</text>
		<text transform="matrix(1 0 0 1 218.0391 146.4287)" fill="#1A2A4F" font-family="'FSMatthew'" font-size="14.2512">A</text>
		<text transform="matrix(1 0 0 1 226.2471 146.4287)" fill="#1A2A4F" font-family="'FSMatthew'" font-size="14.2512">D</text>
		<text transform="matrix(1 0 0 1 234.9551 146.4287)" fill="#1A2A4F" font-family="'FSMatthew'" font-size="14.2512">U</text>
		<text transform="matrix(1 0 0 1 243.3047 146.4287)" fill="#1A2A4F" font-family="'FSMatthew'" font-size="14.2512">A</text>
		<text transform="matrix(1 0 0 1 250.418 146.4287)" fill="#1A2A4F" font-family="'FSMatthew'" font-size="14.2512">TE</text>
		<text transform="matrix(1 0 0 1 264.541 146.4287)" fill="#1A2A4F" font-family="'FSMatthew'" font-size="14.2512">S </text>
		<text transform="matrix(1 0 0 1 175.9551 160.6807)" fill="#1A2A4F" font-family="'FSMatthew'" font-size="14.2512">AR</text>
		<text transform="matrix(1 0 0 1 191.7168 160.6807)" fill="#1A2A4F" font-family="'FSMatthew'" font-size="14.2512">E IN </text>
		<text transform="matrix(1 0 0 1 216.8262 160.6807)" fill="#1A2A4F" font-family="'FSMatthew'" font-size="14.2512">W</text>
		<text transform="matrix(1 0 0 1 228.7549 160.6807)" fill="#1A2A4F" font-family="'FSMatthew'" font-size="14.2512">ORK</text>
		<text transform="matrix(1 0 0 1 252.6533 160.6807)" fill="#1A2A4F" font-family="'FSMatthew'" font-size="14.2512"> </text>
		<text transform="matrix(1 0 0 1 255.4463 160.6807)" fill="#1A2A4F" font-family="'FSMatthew'" font-size="14.2512">O</text>
		<text transform="matrix(1 0 0 1 263.9824 160.6807)" fill="#1A2A4F" font-family="'FSMatthew'" font-size="14.2512">R </text>
		<text transform="matrix(1 0 0 1 177.7227 174.9316)" fill="#1A2A4F" font-family="'FSMatthew'" font-size="14.2512">FU</text>
		<text transform="matrix(1 0 0 1 192.9434 174.9316)" fill="#1A2A4F" font-family="'FSMatthew'" font-size="14.2512">R</text>
		<text transform="matrix(1 0 0 1 200.1543 174.9316)" fill="#1A2A4F" font-family="'FSMatthew'" font-size="14.2512">THE</text>
		<text transform="matrix(1 0 0 1 223.1836 174.9316)" fill="#1A2A4F" font-family="'FSMatthew'" font-size="14.2512">R</text>
		<text transform="matrix(1 0 0 1 230.7363 174.9316)" fill="#1A2A4F" font-family="'FSMatthew'" font-size="14.2512"> </text>
		<text transform="matrix(1 0 0 1 233.5293 174.9316)" fill="#1A2A4F" font-family="'FSMatthew'" font-size="14.2512">S</text>
		<text transform="matrix(1 0 0 1 240.1846 174.9316)" fill="#1A2A4F" font-family="'FSMatthew'" font-size="14.2512">T</text>
		<text transform="matrix(1 0 0 1 247.3672 174.9316)" fill="#1A2A4F" font-family="'FSMatthew'" font-size="14.2512">U</text>
		<text transform="matrix(1 0 0 1 255.9746 174.9316)" fill="#1A2A4F" font-family="'FSMatthew'" font-size="14.2512">D</text>
		<text transform="matrix(1 0 0 1 264.5117 174.9316)" fill="#1A2A4F" font-family="'FSMatthew'" font-size="14.2512">Y</text>
		<text transform="matrix(1 0 0 1 141.5742 219.2051)" fill="#1A2A4F" font-family="'FSMatthew'" font-size="11.401">A</text>
		<text transform="matrix(1 0 0 1 148.209 219.2051)" fill="#1A2A4F" font-family="'FSMatthew'" font-size="11.401">F</text>
		<text transform="matrix(1 0 0 1 153.8867 219.2051)" fill="#1A2A4F" font-family="'FSMatthew'" font-size="11.401">TER L</text>
		<text transform="matrix(1 0 0 1 179.2422 219.2051)" fill="#1A2A4F" font-family="'FSMatthew'" font-size="11.401">E</text>
		<text transform="matrix(1 0 0 1 184.9424 219.2051)" fill="#1A2A4F" font-family="'FSMatthew'" font-size="11.401">A</text>
		<text transform="matrix(1 0 0 1 190.917 219.2051)" fill="#1A2A4F" font-family="'FSMatthew'" font-size="11.401">VING UN</text>
		<text transform="matrix(1 0 0 1 230.8867 219.2051)" fill="#1A2A4F" font-family="'FSMatthew'" font-size="11.401">I</text>
		<text transform="matrix(1 0 0 1 233.624 219.2051)" fill="#1A2A4F" font-family="'FSMatthew'" font-size="11.401">VER</text>
		<text transform="matrix(1 0 0 1 251.6143 219.2051)" fill="#1A2A4F" font-family="'FSMatthew'" font-size="11.401">S</text>
		<text transform="matrix(1 0 0 1 257.2578 219.2051)" fill="#1A2A4F" font-family="'FSMatthew'" font-size="11.401">I</text>
		<text transform="matrix(1 0 0 1 260.0059 219.2051)" fill="#1A2A4F" font-family="'FSMatthew'" font-size="11.401">T</text>
		<text transform="matrix(1 0 0 1 266.082 219.2051)" fill="#1A2A4F" font-family="'FSMatthew'" font-size="11.401">Y</text>
	</g>
	<g id="Text_Flat" display="inline">
		<g>
			<path fill="#BBA461" d="M169.167,124.551c-2.522,0-5.296-0.378-6.81-0.882c-0.252-0.882-0.314-2.459-0.314-3.152
				c0-1.199,0.188-2.836,0.439-3.783c1.768,0.441,3.783,0.757,6.242,0.757c4.979,0,8.824-4.224,9.203-10.339
				c-1.826,1.199-4.35,1.954-7.377,1.954c-8.193,0-12.48-5.673-12.48-13.427c0-8.196,5.549-15.004,14.438-15.004
				c12.166,0,15.193,9.582,15.193,18.976C187.701,111.754,182.973,124.551,169.167,124.551z M172.698,87.861
				c-3.279,0-5.55,2.584-5.55,7.439c0,4.476,1.767,6.935,5.483,6.935c2.019,0,4.665-1.072,5.802-2.27
				c0-0.315,0.062-1.197,0.062-1.64C178.497,93.787,178.118,87.861,172.698,87.861z"/>
			<path fill="#BBA461" d="M218.968,123.921h-26.917c-0.566-1.324-0.757-2.963-0.757-4.413c0-0.756,0.062-1.702,0.188-2.333
				c4.414-4.476,9.141-9.52,13.303-14.185c3.088-3.467,5.547-6.681,5.547-10.212c0-3.089-2.143-4.854-5.926-4.854
				c-2.773,0-7.188,0.946-11.284,2.9c-0.254-1.072-0.505-2.963-0.505-4.476c0-0.757,0.127-2.27,0.378-3.278
				c3.091-1.325,8.069-2.521,12.924-2.521c7.188,0,13.49,3.34,13.49,11.095c0,6.809-3.655,11.411-11.474,19.605
				c-1.515,1.639-3.15,3.214-4.791,4.917h15.948c0.189,0.82,0.314,2.397,0.314,3.91
				C219.409,121.336,219.221,123.039,218.968,123.921z"/>
			<path fill="#BBA461" d="M225.65,90.446c0-5.421,2.457-10.085,9.455-10.085c7.062,0,9.457,4.665,9.457,10.085
				c0,5.295-2.396,10.212-9.457,10.212C228.107,100.658,225.65,95.741,225.65,90.446z M239.078,124.614
				c-2.711-0.756-5.485-2.584-6.87-4.539l25.845-40.536c2.586,0.693,5.36,2.27,6.937,4.224L239.078,124.614z M237.25,90.573
				c0-2.711-0.566-4.414-2.145-4.414c-1.574,0-2.145,1.702-2.145,4.414c0,2.71,0.63,4.286,2.145,4.286
				C236.619,94.859,237.25,93.283,237.25,90.573z M251.875,114.653c0-5.421,2.459-10.085,9.457-10.085
				c7.061,0,9.455,4.665,9.455,10.085c0,5.295-2.395,10.213-9.455,10.213C254.334,124.866,251.875,119.949,251.875,114.653z
				 M263.477,114.78c0-2.711-0.567-4.414-2.145-4.414s-2.145,1.702-2.145,4.414c0,2.711,0.631,4.286,2.145,4.286
				S263.477,117.491,263.477,114.78z"/>
		</g>
		<g>
			<path fill="#1A2A4F" d="M150.834,205.494c-5.189,0-7.184-3.648-7.184-9.038c0-6.072,2.251-10.806,8.552-10.806
				c1.084,0,2.594,0.174,3.222,0.399c0.114,0.398,0.143,1.054,0.143,1.367c0,0.543-0.058,1.283-0.198,1.683
				c-0.741-0.115-1.824-0.199-2.65-0.199c-2.766,0-4.419,1.684-4.732,4.789c0.884-0.567,2.394-1.057,3.792-1.057
				c3.422,0,5.588,2.566,5.588,6.02C157.361,202.499,154.825,205.494,150.834,205.494z M150.863,195.799
				c-1.227,0-2.453,0.516-3.051,1.087c-0.029,0.284-0.029,0.653-0.029,1.082c0,1.769,0.627,4.275,2.936,4.275
				c1.598,0,2.424-1.511,2.424-3.394C153.143,197,152.402,195.799,150.863,195.799z"/>
			<path fill="#1A2A4F" d="M185.012,205.208c-0.342,0.086-1.111,0.142-1.91,0.142c-0.854,0-1.652-0.082-1.996-0.142l-0.342-11.573
				l-4.22,9.749c-0.313,0.114-0.998,0.171-1.425,0.171c-0.514,0-1.143-0.057-1.454-0.143l-4.22-9.777l-0.37,11.573
				c-0.37,0.086-1.255,0.142-2.025,0.142c-0.454,0-1.225-0.056-1.737-0.142l0.826-19.271c0.541-0.06,1.082-0.146,1.653-0.146
				c0.685,0,1.34,0.061,1.683,0.146l5.646,13.084l5.673-13.084c0.57-0.086,1.142-0.146,1.651-0.146c0.656,0,1.256,0.061,1.685,0.146
				L185.012,205.208z"/>
			<path fill="#1A2A4F" d="M195.552,205.494c-5.272,0-8.067-3.648-8.067-9.924c0-6.271,2.795-9.92,8.067-9.92
				c5.275,0,8.068,3.648,8.068,9.92C203.62,201.846,200.827,205.494,195.552,205.494z M195.552,189.159
				c-2.45,0-3.848,1.881-3.848,6.411c0,4.535,1.397,6.416,3.848,6.416c2.453,0,3.851-1.881,3.851-6.416
				C199.402,191.04,198.005,189.159,195.552,189.159z"/>
			<path fill="#1A2A4F" d="M221.777,205.208c-0.284,0.06-0.971,0.114-1.454,0.114c-0.484,0-0.97-0.028-1.425-0.114l-8.866-12.345
				v12.345c-0.229,0.06-1.083,0.142-1.882,0.142c-0.656,0-1.426-0.082-1.825-0.142v-19.271c0.457-0.086,0.998-0.113,1.512-0.113
				c0.541,0,1.112,0.056,1.539,0.113l8.696,12.111v-12.111c0.568-0.086,1.311-0.146,1.852-0.146c0.543,0,1.342,0.061,1.854,0.146
				V205.208L221.777,205.208z"/>
			<path fill="#1A2A4F" d="M238.165,189.415h-5.104v15.793c-0.541,0.086-1.311,0.142-2.021,0.142c-0.713,0-1.481-0.056-2.056-0.142
				v-15.793h-5.104c-0.113-0.371-0.199-1.256-0.199-1.74c0-0.483,0.114-1.366,0.229-1.735h14.254
				c0.114,0.369,0.198,1.252,0.198,1.735C238.363,188.159,238.279,189.044,238.165,189.415z"/>
			<path fill="#1A2A4F" d="M255.098,205.208c-0.515,0.086-1.227,0.142-2.023,0.142s-1.512-0.056-2.055-0.142v-7.981h-6.699v7.981
				c-0.543,0.086-1.168,0.142-2.022,0.142c-0.771,0-1.51-0.056-2.053-0.142v-19.271c0.543-0.086,1.341-0.146,2.053-0.146
				c0.8,0,1.513,0.061,2.022,0.146v7.812h6.699v-7.812c0.629-0.086,1.34-0.146,2.055-0.146c0.684,0,1.537,0.061,2.023,0.146V205.208
				z"/>
			<path fill="#1A2A4F" d="M263.93,205.494c-2.08,0-4.361-0.4-5.986-1.141c-0.086-0.398-0.144-0.914-0.144-1.369
				c0-0.686,0.086-1.34,0.286-2.11c1.682,0.685,3.905,1.112,5.645,1.112c2.022,0,3.106-0.94,3.106-2.223
				c0-1.427-0.913-2.025-3.678-2.88c-3.079-0.94-5.331-2.425-5.331-5.731c0-3.533,3.052-5.502,7.07-5.502
				c1.853,0,3.508,0.287,4.617,0.656c0.088,0.312,0.145,0.826,0.145,1.566c0,0.543-0.057,1.37-0.172,1.826
				c-1.426-0.373-3.051-0.57-4.361-0.57c-2.139,0-3.307,0.712-3.307,1.852c0,1.342,1.055,1.883,3.619,2.681
				c3.08,0.969,5.358,2.426,5.358,5.847C270.8,203.242,267.863,205.494,263.93,205.494z"/>
		</g>
		<g>
			<path fill="#1A2A4F" d="M160.848,146.571c-2.336,0-3.818-1.524-3.818-4.942c0-3.333,1.513-4.971,3.849-4.971
				s3.788,1.638,3.788,4.971C164.664,145.047,163.184,146.571,160.848,146.571z M160.861,137.841c-1.453,0-2.336,0.982-2.336,3.761
				c0,2.734,0.869,3.788,2.32,3.788c1.452,0,2.321-1.053,2.321-3.788C163.169,138.823,162.312,137.841,160.861,137.841z"/>
			<path fill="#1A2A4F" d="M171.406,137.969h-3.975v2.906h3.291c0.057,0.17,0.069,0.412,0.069,0.583
				c0,0.185-0.017,0.399-0.069,0.584h-3.291v4.387c-0.242,0.043-0.455,0.071-0.711,0.071c-0.244,0-0.484-0.028-0.714-0.071v-9.628
				h5.396c0.059,0.169,0.072,0.412,0.072,0.583C171.479,137.569,171.463,137.784,171.406,137.969z"/>
			<path fill="#1A2A4F" d="M178.789,146.571c-2.336,0-3.816-1.524-3.816-4.942c0-3.333,1.51-4.971,3.848-4.971
				c2.334,0,3.787,1.638,3.787,4.971C182.605,145.047,181.125,146.571,178.789,146.571z M178.803,137.841
				c-1.453,0-2.335,0.982-2.335,3.761c0,2.734,0.868,3.788,2.321,3.788s2.32-1.053,2.32-3.788
				C181.109,138.823,180.257,137.841,178.803,137.841z"/>
			<path fill="#1A2A4F" d="M190.816,142.826c0,2.478-0.855,3.746-3.479,3.746c-2.732,0-3.434-1.211-3.434-3.746v-6.024
				c0.229-0.029,0.455-0.072,0.686-0.072c0.258,0,0.483,0.029,0.739,0.072v6.267c0,1.38,0.299,2.406,1.995,2.406
				c1.693,0,2.105-1.025,2.105-2.406v-6.267c0.229-0.029,0.43-0.072,0.656-0.072c0.256,0,0.469,0.029,0.727,0.072v6.024H190.816z"/>
			<path fill="#1A2A4F" d="M198.968,146.429c-0.286,0.043-0.569,0.071-0.854,0.071c-0.27,0-0.497-0.014-0.77-0.071l-2.107-3.704
				h-1.252v3.704c-0.242,0.043-0.484,0.071-0.729,0.071c-0.229,0-0.47-0.028-0.695-0.071v-9.628
				c0.695-0.043,1.537-0.072,2.349-0.072c2.009,0,3.618,0.612,3.618,2.919c0,1.268-0.697,2.38-1.865,2.808L198.968,146.429z
				 M195.064,137.841c-0.328,0-0.84,0-1.082,0.014v3.747h0.968c1.339,0,2.137-0.599,2.137-1.953
				C197.087,138.339,196.334,137.841,195.064,137.841z"/>
			<path fill="#1A2A4F" d="M209.741,145.917c-0.771,0.37-1.796,0.654-2.878,0.654c-3.006,0-4.401-1.979-4.401-4.857
				c0-1.68,0.584-3.132,1.651-4.044c0.757-0.642,1.797-1.011,2.992-1.011c0.883,0,1.767,0.185,2.308,0.427
				c0.06,0.186,0.071,0.356,0.071,0.555c0,0.201-0.014,0.371-0.071,0.557c-0.627-0.186-1.522-0.328-2.192-0.328
				c-0.941,0-1.682,0.299-2.193,0.783c-0.74,0.698-1.067,1.809-1.067,3.034c0,2.35,1.024,3.66,3.048,3.66
				c0.516,0,1.014-0.099,1.312-0.228v-3.133c0.229-0.029,0.441-0.071,0.67-0.071c0.256,0,0.498,0.028,0.755,0.071v3.931H209.741
				L209.741,145.917z"/>
			<path fill="#1A2A4F" d="M217.792,146.429c-0.285,0.043-0.569,0.071-0.854,0.071c-0.27,0-0.498-0.014-0.77-0.071l-2.105-3.704
				h-1.254v3.704c-0.244,0.043-0.484,0.071-0.729,0.071c-0.229,0-0.471-0.028-0.696-0.071v-9.628
				c0.696-0.043,1.538-0.072,2.349-0.072c2.011,0,3.619,0.612,3.619,2.919c0,1.268-0.699,2.38-1.865,2.808L217.792,146.429z
				 M213.889,137.841c-0.326,0-0.839,0-1.08,0.014v3.747h0.967c1.341,0,2.139-0.599,2.139-1.953
				C215.912,138.339,215.157,137.841,213.889,137.841z"/>
			<path fill="#1A2A4F" d="M224.205,144.149h-3.76l-0.741,2.28c-0.187,0.028-0.483,0.071-0.769,0.071
				c-0.199,0-0.483-0.028-0.67-0.071l3.317-9.628c0.171-0.043,0.524-0.072,0.712-0.072c0.199,0,0.525,0.043,0.655,0.072l3.562,9.628
				c-0.129,0.028-0.471,0.071-0.74,0.071c-0.213,0-0.557-0.014-0.77-0.071L224.205,144.149z M220.814,142.981h2.979l-1.141-3.276
				c-0.186-0.542-0.299-0.982-0.369-1.367h-0.014c-0.074,0.384-0.215,0.841-0.388,1.382L220.814,142.981z"/>
			<path fill="#1A2A4F" d="M233.184,145.589c-0.826,0.655-1.966,0.911-3.561,0.911c-0.656,0-1.881-0.028-2.309-0.071v-9.628
				c0.652-0.043,1.539-0.072,2.535-0.072c3.305,0,4.813,1.368,4.813,4.829C234.665,143.424,234.15,144.805,233.184,145.589z
				 M229.836,137.841c-0.285,0-0.798,0.014-1.098,0.028v7.463c0.257,0.028,0.728,0.043,1.226,0.043c1.083,0,1.796-0.299,2.294-0.827
				c0.67-0.697,0.912-1.823,0.912-3.02C233.17,139.093,232.471,137.841,229.836,137.841z"/>
			<path fill="#1A2A4F" d="M242.889,142.826c0,2.478-0.854,3.746-3.477,3.746c-2.734,0-3.434-1.211-3.434-3.746v-6.024
				c0.229-0.029,0.457-0.072,0.686-0.072c0.256,0,0.482,0.029,0.74,0.072v6.267c0,1.38,0.299,2.406,1.994,2.406
				c1.692,0,2.106-1.025,2.106-2.406v-6.267c0.229-0.029,0.429-0.072,0.655-0.072c0.257,0,0.47,0.029,0.729,0.072V142.826
				L242.889,142.826z"/>
			<path fill="#1A2A4F" d="M249.475,144.149h-3.761l-0.741,2.28c-0.186,0.028-0.483,0.071-0.769,0.071
				c-0.201,0-0.483-0.028-0.67-0.071l3.317-9.628c0.172-0.043,0.526-0.072,0.713-0.072c0.199,0,0.526,0.043,0.656,0.072l3.559,9.628
				c-0.127,0.028-0.469,0.071-0.739,0.071c-0.213,0-0.556-0.014-0.769-0.071L249.475,144.149z M246.084,142.981h2.977l-1.14-3.276
				c-0.187-0.542-0.299-0.982-0.37-1.367h-0.014c-0.072,0.384-0.214,0.841-0.385,1.382L246.084,142.981z"/>
			<path fill="#1A2A4F" d="M257.695,137.969h-2.879v8.46c-0.241,0.043-0.469,0.071-0.728,0.071c-0.241,0-0.47-0.028-0.696-0.071
				v-8.46h-2.733c-0.058-0.185-0.071-0.399-0.071-0.584c0-0.171,0.014-0.414,0.071-0.583h7.036c0.058,0.169,0.07,0.412,0.07,0.583
				C257.768,137.569,257.753,137.784,257.695,137.969z"/>
			<path fill="#1A2A4F" d="M264.279,146.429h-5.611v-9.628h5.396c0.058,0.169,0.071,0.412,0.071,0.583
				c0,0.185-0.016,0.4-0.071,0.584h-3.975v2.906h3.434c0.058,0.17,0.072,0.412,0.072,0.583c0,0.185-0.017,0.399-0.072,0.584h-3.434
				v3.219h4.188c0.058,0.172,0.07,0.414,0.07,0.583C264.352,146.03,264.336,146.244,264.279,146.429z"/>
			<path fill="#1A2A4F" d="M268.029,146.571c-0.783,0-2.037-0.17-2.735-0.542c-0.041-0.199-0.071-0.384-0.071-0.583
				c0-0.214,0.014-0.427,0.071-0.626c0.67,0.313,1.853,0.583,2.664,0.583c1.185,0,1.979-0.455,1.979-1.439
				c0-0.896-0.412-1.339-1.566-1.766l-0.727-0.271c-1.439-0.542-2.32-1.325-2.32-2.649c0-1.78,1.51-2.621,3.232-2.621
				c0.756,0,1.479,0.086,2.148,0.256c0.043,0.171,0.07,0.356,0.07,0.542c0,0.2-0.027,0.399-0.07,0.598
				c-0.698-0.142-1.354-0.229-2.062-0.229c-0.971,0-1.882,0.386-1.882,1.412c0,0.727,0.397,1.168,1.523,1.595l0.669,0.256
				c1.468,0.541,2.352,1.224,2.352,2.734C271.305,145.675,269.852,146.571,268.029,146.571z"/>
		</g>
		<g>
			<path fill="#1A2A4F" d="M182.122,158.4h-3.759l-0.742,2.281c-0.186,0.025-0.484,0.066-0.768,0.066
				c-0.201,0-0.484-0.025-0.67-0.066l3.316-9.63c0.171-0.045,0.525-0.071,0.713-0.071c0.198,0,0.525,0.041,0.654,0.071l3.562,9.63
				c-0.13,0.025-0.471,0.066-0.74,0.066c-0.213,0-0.558-0.016-0.771-0.066L182.122,158.4z M178.734,157.232h2.977l-1.141-3.276
				c-0.187-0.54-0.299-0.981-0.369-1.366h-0.016c-0.072,0.385-0.215,0.84-0.387,1.383L178.734,157.232z"/>
			<path fill="#1A2A4F" d="M191.643,160.682c-0.285,0.041-0.568,0.068-0.854,0.068c-0.271,0-0.497-0.014-0.771-0.068l-2.105-3.705
				h-1.254v3.705c-0.242,0.041-0.484,0.068-0.727,0.068c-0.229,0-0.473-0.027-0.699-0.068v-9.627
				c0.699-0.046,1.539-0.074,2.352-0.074c2.008,0,3.618,0.612,3.618,2.92c0,1.269-0.698,2.382-1.866,2.808L191.643,160.682z
				 M187.738,152.092c-0.327,0-0.84,0-1.082,0.014v3.746h0.969c1.339,0,2.137-0.598,2.137-1.951
				C189.762,152.59,189.007,152.092,187.738,152.092z"/>
			<path fill="#1A2A4F" d="M198.396,160.682h-5.61v-9.627h5.396c0.06,0.168,0.072,0.41,0.072,0.58c0,0.188-0.016,0.4-0.072,0.586
				h-3.973v2.904h3.434c0.057,0.17,0.069,0.412,0.069,0.585c0,0.185-0.015,0.397-0.069,0.585h-3.434v3.217h4.188
				c0.059,0.174,0.07,0.415,0.07,0.586C198.468,160.279,198.454,160.494,198.396,160.682z"/>
			<path fill="#1A2A4F" d="M204.014,160.682c-0.228,0.027-0.453,0.068-0.683,0.068c-0.257,0-0.485-0.027-0.741-0.068v-9.627
				c0.242-0.046,0.469-0.074,0.729-0.074c0.242,0,0.47,0.028,0.695,0.074V160.682L204.014,160.682z"/>
			<path fill="#1A2A4F" d="M213.305,160.682c-0.113,0.041-0.355,0.055-0.543,0.055c-0.171,0-0.342-0.014-0.496-0.055l-5.072-7.191
				v7.191c-0.129,0.041-0.471,0.068-0.685,0.068c-0.171,0-0.44-0.014-0.626-0.068v-9.627c0.113-0.031,0.412-0.061,0.555-0.061
				c0.188,0,0.431,0.015,0.57,0.061l4.985,7.077v-7.077c0.157-0.046,0.427-0.074,0.612-0.074c0.17,0,0.555,0.028,0.696,0.074v9.627
				H213.305z"/>
			<path fill="#1A2A4F" d="M221.271,160.682c-0.301,0.041-0.569,0.068-0.869,0.068c-0.256,0-0.584-0.027-0.842-0.068l-2.021-7.224
				c-0.241-0.841-0.344-1.608-0.344-2.403c0.216-0.061,0.4-0.074,0.699-0.074c0.256,0,0.428,0,0.696,0.074
				c0,0.754,0.058,1.354,0.3,2.262l1.196,4.561c0.156,0.612,0.271,1.053,0.312,1.409h0.017c0.043-0.356,0.157-0.884,0.285-1.396
				l1.639-6.834c0.228-0.047,0.455-0.074,0.685-0.074c0.228,0,0.438,0.027,0.67,0.074l1.623,6.834
				c0.113,0.471,0.228,0.971,0.271,1.396h0.015c0.059-0.427,0.187-0.955,0.313-1.409l1.237-4.561
				c0.214-0.754,0.312-1.508,0.312-2.262c0.188-0.046,0.387-0.074,0.672-0.074c0.228,0,0.481,0.016,0.697,0.074
				c0,0.795-0.102,1.549-0.344,2.403l-2.036,7.224c-0.243,0.041-0.558,0.068-0.812,0.068c-0.299,0-0.567-0.027-0.867-0.068
				l-1.453-5.969c-0.114-0.456-0.199-0.999-0.299-1.58h-0.016c-0.101,0.581-0.186,1.124-0.299,1.596L221.271,160.682z"/>
			<path fill="#1A2A4F" d="M233.198,160.823c-2.335,0-3.817-1.525-3.817-4.943c0-3.332,1.51-4.971,3.848-4.971
				c2.336,0,3.789,1.639,3.789,4.971C237.018,159.298,235.535,160.823,233.198,160.823z M233.213,152.092
				c-1.453,0-2.336,0.981-2.336,3.76c0,2.736,0.869,3.789,2.321,3.789s2.321-1.053,2.321-3.789
				C235.52,153.073,234.665,152.092,233.213,152.092z"/>
			<path fill="#1A2A4F" d="M244.77,160.682c-0.285,0.041-0.567,0.068-0.854,0.068c-0.271,0-0.499-0.014-0.771-0.068l-2.105-3.705
				h-1.254v3.705c-0.243,0.041-0.484,0.068-0.729,0.068c-0.229,0-0.47-0.027-0.697-0.068v-9.627
				c0.697-0.046,1.539-0.074,2.351-0.074c2.009,0,3.619,0.612,3.619,2.92c0,1.269-0.699,2.382-1.866,2.808L244.77,160.682z
				 M240.866,152.092c-0.328,0-0.841,0-1.082,0.014v3.746h0.968c1.339,0,2.137-0.598,2.137-1.951
				C242.889,152.59,242.134,152.092,240.866,152.092z"/>
			<path fill="#1A2A4F" d="M250.898,153.443l-1.812,1.91l3.634,5.328c-0.301,0.055-0.515,0.066-0.812,0.066
				c-0.271,0-0.555-0.025-0.825-0.066l-2.962-4.332l-0.784,0.84v3.492c-0.198,0.041-0.483,0.066-0.728,0.066
				c-0.213,0-0.483-0.025-0.696-0.066v-9.63c0.213-0.045,0.483-0.071,0.696-0.071c0.242,0,0.526,0.026,0.728,0.071v4.399
				l2.507-2.678c0.541-0.586,0.982-1.238,1.055-1.724c0.213-0.045,0.471-0.073,0.685-0.073c0.243,0,0.542,0.028,0.741,0.073
				C252.123,151.922,251.652,152.648,250.898,153.443z"/>
			<path fill="#1A2A4F" d="M259.893,160.823c-2.336,0-3.816-1.525-3.816-4.943c0-3.332,1.51-4.971,3.847-4.971
				c2.335,0,3.788,1.639,3.788,4.971C263.709,159.298,262.229,160.823,259.893,160.823z M259.906,152.092
				c-1.454,0-2.336,0.981-2.336,3.76c0,2.736,0.867,3.789,2.32,3.789c1.452,0,2.32-1.053,2.32-3.789
				C262.213,153.073,261.357,152.092,259.906,152.092z"/>
			<path fill="#1A2A4F" d="M271.461,160.682c-0.285,0.041-0.568,0.068-0.854,0.068c-0.271,0-0.5-0.014-0.771-0.068l-2.105-3.705
				h-1.254v3.705c-0.242,0.041-0.484,0.068-0.728,0.068c-0.229,0-0.474-0.027-0.698-0.068v-9.627
				c0.698-0.046,1.538-0.074,2.352-0.074c2.008,0,3.617,0.612,3.617,2.92c0,1.269-0.699,2.382-1.865,2.808L271.461,160.682z
				 M267.559,152.092c-0.328,0-0.841,0-1.082,0.014v3.746h0.969c1.34,0,2.138-0.598,2.138-1.951
				C269.581,152.59,268.826,152.092,267.559,152.092z"/>
		</g>
		<g>
			<path fill="#1A2A4F" d="M184.189,166.471h-3.976v2.906h3.289c0.06,0.169,0.071,0.412,0.071,0.584
				c0,0.184-0.016,0.396-0.071,0.585h-3.289v4.388c-0.241,0.041-0.455,0.068-0.713,0.068c-0.242,0-0.483-0.027-0.711-0.068v-9.629
				h5.396c0.059,0.17,0.072,0.412,0.072,0.582C184.262,166.072,184.246,166.286,184.189,166.471z"/>
			<path fill="#1A2A4F" d="M192.27,171.328c0,2.477-0.854,3.746-3.477,3.746c-2.734,0-3.434-1.211-3.434-3.746v-6.023
				c0.229-0.031,0.457-0.072,0.685-0.072c0.256,0,0.483,0.027,0.74,0.072v6.266c0,1.382,0.3,2.408,1.995,2.408
				c1.693,0,2.106-1.026,2.106-2.408v-6.266c0.229-0.031,0.429-0.072,0.655-0.072c0.256,0,0.47,0.027,0.729,0.072V171.328
				L192.27,171.328z"/>
			<path fill="#1A2A4F" d="M200.421,174.934c-0.286,0.041-0.569,0.068-0.854,0.068c-0.271,0-0.498-0.014-0.771-0.068l-2.106-3.705
				h-1.254v3.705c-0.242,0.041-0.483,0.068-0.727,0.068c-0.229,0-0.471-0.027-0.697-0.068v-9.629
				c0.697-0.045,1.538-0.072,2.35-0.072c2.01,0,3.617,0.613,3.617,2.92c0,1.268-0.695,2.382-1.865,2.808L200.421,174.934z
				 M196.52,166.343c-0.33,0-0.842,0-1.084,0.015v3.746h0.969c1.341,0,2.138-0.599,2.138-1.951
				C198.54,166.84,197.786,166.343,196.52,166.343z"/>
			<path fill="#1A2A4F" d="M207.434,166.471h-2.879v8.463c-0.242,0.041-0.469,0.068-0.726,0.068c-0.242,0-0.47-0.027-0.698-0.068
				v-8.463h-2.734c-0.057-0.185-0.069-0.396-0.069-0.584c0-0.17,0.015-0.412,0.069-0.582h7.037c0.059,0.17,0.071,0.412,0.071,0.582
				C207.505,166.072,207.49,166.286,207.434,166.471z"/>
			<path fill="#1A2A4F" d="M215.514,174.934c-0.229,0.026-0.44,0.068-0.67,0.068c-0.257,0-0.498-0.027-0.755-0.068v-4.271h-4.259
				v4.271c-0.242,0.041-0.498,0.068-0.754,0.068c-0.242,0-0.443-0.027-0.67-0.068v-9.629c0.17-0.031,0.428-0.072,0.654-0.072
				c0.258,0,0.514,0.027,0.77,0.072v4.188h4.259v-4.188c0.242-0.045,0.484-0.072,0.74-0.072c0.241,0,0.456,0.027,0.685,0.072
				V174.934L215.514,174.934z"/>
			<path fill="#1A2A4F" d="M222.924,174.934h-5.611v-9.629h5.396c0.059,0.17,0.072,0.412,0.072,0.582
				c0,0.188-0.016,0.399-0.072,0.584h-3.973v2.906h3.431c0.058,0.169,0.071,0.412,0.071,0.584c0,0.184-0.014,0.396-0.071,0.585
				h-3.431v3.218h4.188c0.057,0.172,0.07,0.414,0.07,0.584C222.994,174.531,222.98,174.746,222.924,174.934z"/>
			<path fill="#1A2A4F" d="M230.661,174.934c-0.285,0.041-0.569,0.068-0.854,0.068c-0.27,0-0.498-0.014-0.77-0.068l-2.105-3.705
				h-1.255v3.705c-0.243,0.041-0.485,0.068-0.728,0.068c-0.229,0-0.471-0.027-0.696-0.068v-9.629
				c0.696-0.045,1.538-0.072,2.349-0.072c2.01,0,3.619,0.613,3.619,2.92c0,1.268-0.699,2.382-1.865,2.808L230.661,174.934z
				 M226.758,166.343c-0.326,0-0.839,0-1.081,0.015v3.746h0.968c1.34,0,2.139-0.599,2.139-1.951
				C228.781,166.84,228.025,166.343,226.758,166.343z"/>
			<path fill="#1A2A4F" d="M237.02,175.074c-0.781,0-2.035-0.17-2.733-0.543c-0.042-0.198-0.071-0.385-0.071-0.582
				c0-0.215,0.016-0.428,0.071-0.626c0.669,0.312,1.853,0.581,2.663,0.581c1.184,0,1.98-0.453,1.98-1.438
				c0-0.896-0.414-1.339-1.568-1.765l-0.727-0.271c-1.438-0.543-2.322-1.324-2.322-2.648c0-1.781,1.512-2.622,3.234-2.622
				c0.755,0,1.48,0.086,2.148,0.256c0.043,0.174,0.072,0.356,0.072,0.544c0,0.199-0.029,0.396-0.072,0.6
				c-0.696-0.145-1.354-0.229-2.062-0.229c-0.969,0-1.881,0.384-1.881,1.411c0,0.727,0.396,1.167,1.523,1.596l0.67,0.256
				c1.467,0.54,2.35,1.225,2.35,2.733C240.295,174.178,238.841,175.074,237.02,175.074z"/>
			<path fill="#1A2A4F" d="M247.464,166.471h-2.879v8.463c-0.242,0.041-0.469,0.068-0.726,0.068c-0.242,0-0.469-0.027-0.698-0.068
				v-8.463h-2.733c-0.059-0.185-0.072-0.396-0.072-0.584c0-0.17,0.016-0.412,0.072-0.582h7.036c0.058,0.17,0.07,0.412,0.07,0.582
				C247.534,166.072,247.521,166.286,247.464,166.471z"/>
			<path fill="#1A2A4F" d="M255.302,171.328c0,2.477-0.854,3.746-3.477,3.746c-2.734,0-3.433-1.211-3.433-3.746v-6.023
				c0.229-0.031,0.455-0.072,0.685-0.072c0.256,0,0.483,0.027,0.739,0.072v6.266c0,1.382,0.299,2.408,1.994,2.408
				c1.693,0,2.106-1.026,2.106-2.408v-6.266c0.229-0.031,0.429-0.072,0.656-0.072c0.256,0,0.469,0.027,0.727,0.072L255.302,171.328
				L255.302,171.328z"/>
			<path fill="#1A2A4F" d="M262.911,174.091c-0.825,0.655-1.964,0.911-3.56,0.911c-0.656,0-1.881-0.027-2.309-0.068v-9.629
				c0.652-0.045,1.537-0.072,2.533-0.072c3.306,0,4.814,1.367,4.814,4.828C264.395,171.927,263.881,173.307,262.911,174.091z
				 M259.562,166.343c-0.283,0-0.795,0.015-1.097,0.027v7.465c0.259,0.028,0.728,0.042,1.228,0.042c1.08,0,1.793-0.298,2.291-0.827
				c0.67-0.694,0.912-1.821,0.912-3.021C262.896,167.596,262.198,166.343,259.562,166.343z"/>
			<path fill="#1A2A4F" d="M267.488,171.557l-2.121-4.218c-0.357-0.713-0.57-1.452-0.57-2.052c0.199-0.042,0.371-0.057,0.698-0.057
				c0.256,0,0.497,0.015,0.696,0.057c0,0.484,0.059,0.941,0.356,1.566l1.651,3.403h0.027l1.65-3.315
				c0.299-0.601,0.355-1.185,0.355-1.637c0.201-0.062,0.344-0.074,0.656-0.074c0.24,0,0.498,0.027,0.713,0.074
				c0,0.538-0.146,1.277-0.527,2.032l-2.166,4.245v3.35c-0.199,0.043-0.483,0.068-0.711,0.068c-0.258,0-0.483-0.025-0.713-0.068
				v-3.375H267.488L267.488,171.557z"/>
		</g>
		<g>
			<path fill="#1A2A4F" d="M146.508,217.383h-3.007l-0.593,1.822c-0.149,0.021-0.387,0.057-0.615,0.057
				c-0.161,0-0.389-0.021-0.536-0.057l2.655-7.704c0.137-0.033,0.422-0.056,0.569-0.056c0.16,0,0.422,0.033,0.525,0.056l2.849,7.704
				c-0.104,0.021-0.377,0.057-0.593,0.057c-0.171,0-0.444-0.012-0.615-0.057L146.508,217.383z M143.797,216.447h2.381l-0.912-2.619
				c-0.149-0.434-0.239-0.787-0.296-1.096h-0.011c-0.058,0.309-0.171,0.672-0.308,1.104L143.797,216.447z"/>
			<path fill="#1A2A4F" d="M153.383,212.436h-3.178v2.324h2.631c0.046,0.139,0.059,0.332,0.059,0.469c0,0.146-0.013,0.32-0.059,0.47
				h-2.631v3.509c-0.193,0.034-0.365,0.059-0.571,0.059c-0.194,0-0.387-0.022-0.569-0.059v-7.704h4.318
				c0.047,0.142,0.059,0.331,0.059,0.468C153.439,212.116,153.43,212.288,153.383,212.436z"/>
			<path fill="#1A2A4F" d="M159.71,212.436h-2.302v6.771c-0.193,0.034-0.376,0.059-0.582,0.059c-0.193,0-0.375-0.022-0.559-0.059
				v-6.771h-2.188c-0.046-0.146-0.058-0.317-0.058-0.468c0-0.136,0.012-0.327,0.058-0.467h5.63c0.046,0.14,0.059,0.331,0.059,0.467
				C159.768,212.116,159.756,212.288,159.71,212.436z"/>
			<path fill="#1A2A4F" d="M165.035,219.205h-4.49v-7.704h4.318c0.046,0.14,0.057,0.331,0.057,0.467c0,0.148-0.011,0.32-0.057,0.468
				h-3.18v2.324h2.746c0.047,0.139,0.057,0.332,0.057,0.469c0,0.146-0.01,0.32-0.057,0.47h-2.746v2.573h3.352
				c0.046,0.137,0.057,0.33,0.057,0.469C165.092,218.886,165.081,219.059,165.035,219.205z"/>
			<path fill="#1A2A4F" d="M171.281,219.205c-0.229,0.034-0.456,0.057-0.684,0.057c-0.218,0-0.398-0.012-0.615-0.057l-1.688-2.964
				h-1.002v2.964c-0.192,0.034-0.39,0.057-0.582,0.057c-0.185,0-0.376-0.021-0.56-0.057v-7.704c0.56-0.033,1.229-0.056,1.882-0.056
				c1.604,0,2.895,0.49,2.895,2.335c0,1.014-0.56,1.903-1.491,2.245L171.281,219.205z M168.159,212.333
				c-0.263,0-0.673,0-0.865,0.011v2.999h0.774c1.07,0,1.709-0.479,1.709-1.562C169.777,212.732,169.174,212.333,168.159,212.333z"/>
			<path fill="#1A2A4F" d="M179.148,218.271c0.045,0.136,0.058,0.33,0.058,0.468c0,0.146-0.013,0.319-0.058,0.467h-4.592v-7.704
				c0.191-0.033,0.397-0.057,0.604-0.057c0.193,0,0.354,0.021,0.535,0.057v6.77H179.148L179.148,218.271z"/>
			<path fill="#1A2A4F" d="M184.587,219.205h-4.489v-7.704h4.318c0.045,0.14,0.057,0.331,0.057,0.467
				c0,0.148-0.012,0.32-0.057,0.468h-3.18v2.324h2.746c0.045,0.139,0.058,0.332,0.058,0.469c0,0.146-0.013,0.32-0.058,0.47h-2.746
				v2.573h3.351c0.047,0.137,0.058,0.33,0.058,0.469C184.645,218.886,184.634,219.059,184.587,219.205z"/>
			<path fill="#1A2A4F" d="M189.877,217.383h-3.008l-0.592,1.822c-0.149,0.021-0.389,0.057-0.615,0.057
				c-0.161,0-0.389-0.021-0.536-0.057l2.655-7.704c0.136-0.033,0.422-0.056,0.568-0.056c0.159,0,0.422,0.033,0.522,0.056
				l2.851,7.704c-0.104,0.021-0.377,0.057-0.594,0.057c-0.171,0-0.443-0.012-0.613-0.057L189.877,217.383z M187.166,216.447h2.381
				l-0.91-2.619c-0.148-0.434-0.24-0.787-0.298-1.096h-0.011c-0.059,0.309-0.172,0.672-0.309,1.104L187.166,216.447z"/>
			<path fill="#1A2A4F" d="M196.841,213.529l-2.073,5.676c-0.113,0.034-0.375,0.057-0.567,0.057c-0.239,0-0.49-0.021-0.604-0.057
				l-2.119-5.664c-0.252-0.682-0.377-1.551-0.377-2.04c0.172-0.033,0.354-0.056,0.547-0.056c0.217,0,0.41,0.021,0.568,0.056
				c0.014,0.503,0.126,1.22,0.354,1.849l1.268,3.418c0.146,0.387,0.271,0.832,0.329,1.104h0.022c0.059-0.31,0.184-0.695,0.33-1.095
				l1.254-3.43c0.229-0.615,0.354-1.312,0.354-1.849c0.112-0.021,0.31-0.058,0.56-0.058c0.192,0,0.387,0.022,0.535,0.058
				C197.218,211.99,197.104,212.823,196.841,213.529z"/>
			<path fill="#1A2A4F" d="M199.238,219.205c-0.182,0.021-0.364,0.057-0.547,0.057c-0.205,0-0.39-0.021-0.592-0.057v-7.704
				c0.19-0.033,0.375-0.056,0.58-0.056c0.192,0,0.377,0.021,0.559,0.056V219.205L199.238,219.205z"/>
			<path fill="#1A2A4F" d="M206.727,219.205c-0.092,0.034-0.285,0.045-0.433,0.045c-0.14,0-0.274-0.011-0.399-0.045l-4.057-5.756
				v5.756c-0.104,0.034-0.376,0.057-0.548,0.057c-0.138,0-0.353-0.012-0.5-0.057v-7.704c0.092-0.022,0.329-0.045,0.442-0.045
				c0.147,0,0.344,0.012,0.457,0.045l3.987,5.664v-5.664c0.125-0.033,0.343-0.056,0.489-0.056c0.139,0,0.443,0.021,0.561,0.056
				V219.205L206.727,219.205z"/>
			<path fill="#1A2A4F" d="M213.691,218.794c-0.614,0.298-1.438,0.524-2.303,0.524c-2.402,0-3.521-1.582-3.521-3.885
				c0-1.346,0.467-2.51,1.32-3.236c0.604-0.514,1.438-0.812,2.395-0.812c0.707,0,1.413,0.15,1.848,0.344
				c0.045,0.146,0.059,0.287,0.059,0.443c0,0.159-0.014,0.296-0.059,0.445c-0.5-0.149-1.221-0.266-1.756-0.266
				c-0.754,0-1.345,0.239-1.755,0.629c-0.594,0.559-0.854,1.445-0.854,2.429c0,1.88,0.819,2.929,2.438,2.929
				c0.41,0,0.81-0.081,1.048-0.186v-2.506c0.184-0.022,0.354-0.058,0.535-0.058c0.206,0,0.398,0.022,0.604,0.058v3.147H213.691z"/>
			<path fill="#1A2A4F" d="M222.848,216.322c0,1.979-0.684,2.996-2.779,2.996c-2.188,0-2.745-0.969-2.745-2.996v-4.821
				c0.182-0.022,0.362-0.056,0.546-0.056c0.206,0,0.389,0.021,0.593,0.056v5.017c0,1.104,0.24,1.924,1.597,1.924
				c1.355,0,1.687-0.818,1.687-1.924v-5.017c0.183-0.022,0.343-0.056,0.524-0.056c0.205,0,0.375,0.021,0.58,0.056v4.821H222.848z"/>
			<path fill="#1A2A4F" d="M230.247,219.205c-0.093,0.034-0.285,0.045-0.435,0.045c-0.139,0-0.273-0.011-0.398-0.045l-4.057-5.756
				v5.756c-0.104,0.034-0.375,0.057-0.549,0.057c-0.137,0-0.352-0.012-0.5-0.057v-7.704c0.092-0.022,0.33-0.045,0.442-0.045
				c0.147,0,0.343,0.012,0.457,0.045l3.987,5.664v-5.664c0.125-0.033,0.342-0.056,0.49-0.056c0.135,0,0.443,0.021,0.56,0.056
				L230.247,219.205L230.247,219.205z"/>
			<path fill="#1A2A4F" d="M232.939,219.205c-0.185,0.021-0.364,0.057-0.547,0.057c-0.207,0-0.391-0.021-0.595-0.057v-7.704
				c0.194-0.033,0.375-0.056,0.581-0.056c0.194,0,0.376,0.021,0.561,0.056V219.205z"/>
			<path fill="#1A2A4F" d="M239.551,213.529l-2.074,5.676c-0.113,0.034-0.377,0.057-0.569,0.057c-0.239,0-0.489-0.021-0.604-0.057
				l-2.117-5.664c-0.252-0.682-0.377-1.551-0.377-2.04c0.172-0.033,0.354-0.056,0.547-0.056c0.217,0,0.412,0.021,0.568,0.056
				c0.014,0.503,0.125,1.22,0.354,1.849l1.267,3.418c0.146,0.387,0.271,0.832,0.329,1.104h0.023c0.058-0.31,0.182-0.695,0.328-1.095
				l1.254-3.43c0.229-0.615,0.354-1.312,0.354-1.849c0.114-0.021,0.308-0.058,0.56-0.058c0.191,0,0.387,0.022,0.535,0.058
				C239.927,211.99,239.812,212.823,239.551,213.529z"/>
			<path fill="#1A2A4F" d="M245.238,219.205h-4.488v-7.704h4.318c0.045,0.14,0.058,0.331,0.058,0.467
				c0,0.148-0.013,0.32-0.058,0.468h-3.18v2.324h2.745c0.048,0.139,0.06,0.332,0.06,0.469c0,0.146-0.012,0.32-0.06,0.47h-2.745
				v2.573h3.35c0.047,0.137,0.059,0.33,0.059,0.469C245.297,218.886,245.285,219.059,245.238,219.205z"/>
			<path fill="#1A2A4F" d="M251.484,219.205c-0.228,0.034-0.455,0.057-0.685,0.057c-0.215,0-0.396-0.012-0.614-0.057l-1.688-2.964
				h-1.002v2.964c-0.191,0.034-0.389,0.057-0.581,0.057c-0.185,0-0.376-0.021-0.56-0.057v-7.704c0.56-0.033,1.229-0.056,1.879-0.056
				c1.606,0,2.896,0.49,2.896,2.335c0,1.014-0.561,1.903-1.494,2.245L251.484,219.205z M248.363,212.333
				c-0.262,0-0.672,0-0.865,0.011v2.999h0.775c1.068,0,1.707-0.479,1.707-1.562C249.98,212.732,249.378,212.333,248.363,212.333z"/>
			<path fill="#1A2A4F" d="M254.406,219.318c-0.627,0-1.629-0.135-2.188-0.435c-0.034-0.157-0.058-0.306-0.058-0.468
				c0-0.17,0.012-0.342,0.058-0.501c0.536,0.251,1.48,0.467,2.132,0.467c0.945,0,1.584-0.362,1.584-1.147
				c0-0.719-0.33-1.07-1.254-1.414l-0.58-0.217c-1.15-0.433-1.858-1.062-1.858-2.119c0-1.424,1.209-2.1,2.589-2.1
				c0.604,0,1.186,0.069,1.72,0.206c0.035,0.138,0.06,0.283,0.06,0.437c0,0.158-0.022,0.314-0.06,0.479
				c-0.559-0.113-1.083-0.184-1.651-0.184c-0.774,0-1.504,0.309-1.504,1.127c0,0.582,0.318,0.935,1.219,1.277l0.537,0.207
				c1.172,0.43,1.879,0.979,1.879,2.188C257.027,218.602,255.865,219.318,254.406,219.318z"/>
			<path fill="#1A2A4F" d="M259.311,219.205c-0.183,0.021-0.365,0.057-0.547,0.057c-0.207,0-0.39-0.021-0.593-0.057v-7.704
				c0.192-0.033,0.375-0.056,0.581-0.056c0.193,0,0.376,0.021,0.559,0.056V219.205z"/>
			<path fill="#1A2A4F" d="M265.829,212.436h-2.304v6.771c-0.191,0.034-0.375,0.059-0.58,0.059c-0.194,0-0.377-0.022-0.559-0.059
				v-6.771h-2.188c-0.046-0.146-0.058-0.317-0.058-0.468c0-0.136,0.012-0.327,0.058-0.467h5.63c0.045,0.14,0.057,0.331,0.057,0.467
				C265.886,212.116,265.874,212.288,265.829,212.436z"/>
			<path fill="#1A2A4F" d="M268.463,216.506l-1.697-3.373c-0.283-0.57-0.455-1.165-0.455-1.643c0.158-0.034,0.297-0.045,0.56-0.045
				c0.205,0,0.397,0.011,0.56,0.045c0,0.386,0.047,0.751,0.284,1.255l1.321,2.722h0.021l1.321-2.654
				c0.239-0.479,0.283-0.944,0.283-1.312c0.161-0.045,0.274-0.056,0.524-0.056c0.193,0,0.398,0.021,0.568,0.056
				c0,0.435-0.111,1.026-0.422,1.632l-1.729,3.395v2.68c-0.162,0.034-0.39,0.059-0.57,0.059c-0.206,0-0.389-0.022-0.57-0.059
				V216.506z"/>
		</g>
	</g>
	<g id="Layer_2" display="inline">
		
			<line fill="none" stroke="#C0588E" stroke-width="1.5" stroke-dasharray="4.476,2.976" x1="13.422" y1="73.379" x2="13.422" y2="230.576"/>
		
			<line fill="none" stroke="#C0588E" stroke-width="1.5" stroke-dasharray="4.45,2.95" x1="20.797" y1="235.884" x2="282.327" y2="235.884"/>
		
			<line fill="none" stroke="#C0588E" stroke-width="1.5" stroke-dasharray="4.476,2.976" x1="287.602" y1="228.455" x2="287.602" y2="71.258"/>
		
			<line fill="none" stroke="#C0588E" stroke-width="1.5" stroke-dasharray="4.45,2.95" x1="280.227" y1="65.949" x2="18.695" y2="65.949"/>
		<path fill="none" stroke="#C0588E" stroke-width="1.5" d="M16.593,65.949h-3.17v3.19 M287.602,69.139v-3.19h-3.172
			 M284.43,235.884h3.172v-3.188 M13.422,232.693v3.188h3.17"/>
		<g>
			<g>
				<g>
					<defs>
						<rect id="SVGID_1_" x="20.36" y="81.565" width="115.171" height="142.096"/>
					</defs>
					<clipPath id="SVGID_2_">
						<use xlink:href="#SVGID_1_"  overflow="visible"/>
					</clipPath>
					<path clip-path="url(#SVGID_2_)" fill="#C0588E" d="M94.362,169.09c0,0-13.331,4.42-15.9,19.938
						c-0.005,0.039-0.032,0.039-0.039,0c-2.569-15.518-15.901-19.938-15.901-19.938l8.739-8.679
						c-12.32-5.525-15.596-24.315-15.596-24.315c-0.696-2.714-0.78-4.575-0.78-4.575c6.167-0.419,27.694-2.273,29.165-9.25
						c2.031,3.748,12.772,13.168,17.118,13.882c0,0-4.218,18.58-15.742,24.244L94.362,169.09z M121.379,172.934
						c-1.04-2.481-3.537-4.074-5.919-5.053l-7.944-3.656c-0.008-5.828-0.064-34.874-0.03-37.93
						c0.045-4.752-0.521-8.996-1.768-12.668l9.89-3.573l0.022,9.138h-0.67c-0.468-0.043-0.881,0.294-0.934,0.761l-0.871,7.548
						c-0.028,0.23,0.043,0.458,0.188,0.638c0.147,0.179,0.357,0.294,0.589,0.315l6.907-0.001c0.233-0.027,0.445-0.139,0.588-0.319
						c0.148-0.181,0.213-0.413,0.187-0.643c-0.174-1.482-0.348-2.961-0.52-4.444l-0.36-3.104c-0.056-0.462-0.469-0.799-0.937-0.756
						h-0.672l0.016-10.413l0.351-0.127l1.169-0.423c0.992-0.358,1.651-1.298,1.651-2.349c0-1.053-0.659-1.996-1.651-2.354
						l-41.368-14.95c-0.551-0.199-1.151-0.199-1.699,0l-41.37,14.951c-0.991,0.356-1.65,1.299-1.65,2.352
						c0,1.052,0.659,1.991,1.65,2.351l15.002,5.421c-1.31,3.766-1.905,8.122-1.858,12.986l0.001,37.591l-7.944,3.656
						c-2.384,0.979-4.729,2.464-5.92,5.053c0,0-17.517,44.738-8.015,44.738h101.903
						C138.894,217.672,121.379,172.934,121.379,172.934"/>
				</g>
			</g>
		</g>
	</g>
</g>
<g id="Layer_2_1_">
	
		<line fill="none" stroke="#7D7D98" stroke-width="1.701" stroke-dasharray="4.991,3.29" x1="13.76" y1="57.78" x2="13.76" y2="222.438"/>
	
		<line fill="none" stroke="#7D7D98" stroke-width="1.701" stroke-dasharray="5.047,3.346" x1="21.145" y1="227.648" x2="53.5" y2="227.648"/>
	
		<line fill="none" stroke="#7D7D98" stroke-width="1.701" stroke-dasharray="4.991,3.29" x1="288.338" y1="220.368" x2="288.338" y2="55.709"/>
	
		<line fill="none" stroke="#7D7D98" stroke-width="1.701" stroke-dasharray="5.047,3.346" x1="280.953" y1="50.5" x2="19.04" y2="50.5"/>
	<path fill="none" stroke="#7D7D98" stroke-width="1.701" d="M16.935,50.5H13.76v3.141 M288.338,53.641V50.5h-3.175
		 M285.163,227.648h3.175v-3.141 M13.76,224.509v3.14h3.175"/>
	<g>
		<path fill="#1A2A4F" d="M173.936,111.141c-2.525,0-5.305-0.379-6.819-0.884c-0.253-0.884-0.315-2.462-0.315-3.157
			c0-1.2,0.189-2.841,0.442-3.789c1.769,0.442,3.788,0.758,6.251,0.758c4.986,0,8.839-4.23,9.218-10.355
			c-1.831,1.2-4.356,1.958-7.387,1.958c-8.209,0-12.502-5.683-12.502-13.449c0-8.208,5.556-15.027,14.459-15.027
			c12.187,0,15.217,9.597,15.217,19.005C192.498,98.324,187.764,111.141,173.936,111.141z M177.471,74.393
			c-3.283,0-5.557,2.589-5.557,7.451c0,4.483,1.768,6.945,5.493,6.945c2.021,0,4.673-1.073,5.81-2.273
			c0-0.315,0.062-1.2,0.062-1.642C183.279,80.329,182.9,74.393,177.471,74.393z"/>
		<path fill="#1A2A4F" d="M227.41,101.291h-5.557v9.219c-0.758,0.126-2.525,0.316-4.482,0.316c-1.831,0-3.283-0.126-4.294-0.316
			v-9.219h-18.437c-0.254-0.821-0.442-2.273-0.442-3.409c0-1.326,0.188-2.526,0.442-3.41l12.942-26.646
			c1.138-0.189,3.03-0.316,4.42-0.316c1.958,0,4.041,0.189,4.988,0.316L204.048,93.84h9.028v-8.714
			c1.137-0.189,2.904-0.315,4.357-0.315c1.515,0,3.346,0.126,4.42,0.315v8.714h5.556c0.315,1.01,0.442,2.399,0.442,3.725
			C227.854,98.892,227.663,100.597,227.41,101.291z"/>
		<path fill="#1A2A4F" d="M230.5,76.982c0-5.43,2.462-10.103,9.471-10.103c7.072,0,9.473,4.672,9.473,10.103
			c0,5.304-2.399,10.229-9.473,10.229C232.962,87.211,230.5,82.286,230.5,76.982z M243.949,111.204
			c-2.717-0.757-5.494-2.588-6.883-4.546l25.888-40.6c2.589,0.694,5.366,2.273,6.944,4.23L243.949,111.204z M242.118,77.108
			c0-2.715-0.568-4.42-2.147-4.42c-1.578,0-2.146,1.705-2.146,4.42c0,2.715,0.631,4.293,2.146,4.293
			C241.486,81.401,242.118,79.823,242.118,77.108z M256.768,101.228c0-5.43,2.461-10.103,9.471-10.103
			c7.072,0,9.472,4.672,9.472,10.103c0,5.304-2.399,10.229-9.472,10.229C259.229,111.457,256.768,106.532,256.768,101.228z
			 M268.385,101.354c0-2.715-0.568-4.42-2.146-4.42s-2.146,1.705-2.146,4.42s0.633,4.293,2.146,4.293
			C267.753,105.648,268.385,104.069,268.385,101.354z"/>
	</g>
	<g>
		<path fill="#9493AB" d="M155.572,193.727c-5.196,0-7.195-3.654-7.195-9.051c0-6.08,2.255-10.82,8.564-10.82
			c1.086,0,2.599,0.172,3.228,0.4c0.113,0.398,0.144,1.057,0.144,1.37c0,0.542-0.059,1.284-0.201,1.685
			c-0.741-0.113-1.826-0.199-2.654-0.199c-2.77,0-4.425,1.685-4.739,4.796c0.886-0.57,2.398-1.056,3.798-1.056
			c3.426,0,5.596,2.568,5.596,6.022C162.109,190.729,159.568,193.727,155.572,193.727z M155.602,184.02
			c-1.229,0-2.455,0.515-3.056,1.086c-0.028,0.285-0.028,0.656-0.028,1.084c0,1.771,0.629,4.283,2.94,4.283
			c1.599,0,2.427-1.515,2.427-3.397C157.885,185.219,157.143,184.02,155.602,184.02z"/>
		<path fill="#9493AB" d="M189.798,193.439c-0.343,0.086-1.112,0.144-1.913,0.144c-0.855,0-1.654-0.086-1.998-0.144l-0.343-11.59
			l-4.226,9.764c-0.313,0.113-1,0.171-1.428,0.171c-0.515,0-1.143-0.058-1.455-0.144l-4.227-9.791l-0.371,11.59
			c-0.371,0.086-1.256,0.144-2.027,0.144c-0.457,0-1.228-0.058-1.74-0.144l0.828-19.299c0.541-0.058,1.084-0.144,1.654-0.144
			c0.687,0,1.342,0.058,1.686,0.144l5.652,13.104l5.682-13.104c0.57-0.086,1.143-0.144,1.656-0.144c0.655,0,1.256,0.058,1.685,0.144
			L189.798,193.439z"/>
		<path fill="#9493AB" d="M200.357,193.727c-5.282,0-8.08-3.654-8.08-9.936s2.798-9.936,8.08-9.936c5.281,0,8.078,3.653,8.078,9.936
			C208.438,190.07,205.639,193.727,200.357,193.727z M200.357,177.367c-2.457,0-3.854,1.885-3.854,6.424s1.397,6.424,3.854,6.424
			c2.455,0,3.854-1.885,3.854-6.424S202.812,177.367,200.357,177.367z"/>
		<path fill="#9493AB" d="M226.619,193.439c-0.286,0.058-0.971,0.115-1.456,0.115s-0.972-0.029-1.429-0.115l-8.879-12.36v12.36
			c-0.229,0.058-1.084,0.144-1.883,0.144c-0.658,0-1.429-0.086-1.828-0.144v-19.299c0.457-0.086,1-0.113,1.514-0.113
			c0.542,0,1.113,0.057,1.542,0.113l8.707,12.133v-12.133c0.571-0.086,1.313-0.144,1.854-0.144c0.543,0,1.342,0.058,1.856,0.144
			L226.619,193.439L226.619,193.439z"/>
		<path fill="#9493AB" d="M243.031,177.624h-5.11v15.815c-0.543,0.086-1.313,0.144-2.026,0.144c-0.715,0-1.484-0.058-2.057-0.144
			v-15.815h-5.109c-0.114-0.371-0.199-1.256-0.199-1.741c0-0.484,0.113-1.369,0.229-1.74h14.274c0.114,0.371,0.198,1.256,0.198,1.74
			C243.23,176.368,243.146,177.253,243.031,177.624z"/>
		<path fill="#9493AB" d="M259.986,193.439c-0.516,0.086-1.229,0.144-2.027,0.144s-1.514-0.058-2.057-0.144v-7.994h-6.709v7.994
			c-0.541,0.086-1.17,0.144-2.026,0.144c-0.771,0-1.513-0.058-2.056-0.144v-19.299c0.543-0.086,1.343-0.144,2.056-0.144
			c0.8,0,1.515,0.058,2.026,0.144v7.822h6.709v-7.822c0.629-0.086,1.343-0.144,2.057-0.144c0.686,0,1.542,0.058,2.027,0.144V193.439
			z"/>
		<path fill="#9493AB" d="M268.833,193.727c-2.084,0-4.368-0.399-5.996-1.143c-0.085-0.398-0.144-0.914-0.144-1.37
			c0-0.687,0.086-1.342,0.287-2.112c1.684,0.686,3.91,1.113,5.651,1.113c2.027,0,3.112-0.941,3.112-2.229
			c0-1.426-0.914-2.025-3.684-2.883c-3.084-0.941-5.338-2.427-5.338-5.738c0-3.54,3.055-5.51,7.079-5.51
			c1.855,0,3.511,0.285,4.625,0.656c0.085,0.313,0.144,0.827,0.144,1.569c0,0.543-0.059,1.371-0.172,1.828
			c-1.428-0.372-3.056-0.571-4.367-0.571c-2.143,0-3.312,0.714-3.312,1.855c0,1.342,1.057,1.885,3.627,2.684
			c3.082,0.971,5.366,2.428,5.366,5.854C275.713,191.471,272.771,193.727,268.833,193.727z"/>
	</g>
	<g>
		<path fill="#1A2A4F" d="M165.602,135.568c-2.34,0-3.822-1.526-3.822-4.951c0-3.338,1.512-4.979,3.852-4.979
			s3.795,1.641,3.795,4.979C169.425,134.042,167.941,135.568,165.602,135.568z M165.616,126.823c-1.455,0-2.341,0.984-2.341,3.767
			c0,2.739,0.871,3.795,2.326,3.795s2.324-1.056,2.324-3.795C167.927,127.807,167.07,126.823,165.616,126.823z"/>
		<path fill="#1A2A4F" d="M176.177,126.951h-3.979v2.911h3.295c0.058,0.171,0.07,0.414,0.07,0.585c0,0.185-0.014,0.399-0.07,0.585
			h-3.295v4.394c-0.243,0.043-0.457,0.071-0.715,0.071c-0.241,0-0.484-0.028-0.713-0.071v-9.645h5.407
			c0.058,0.171,0.071,0.414,0.071,0.585C176.248,126.552,176.232,126.766,176.177,126.951z"/>
		<path fill="#1A2A4F" d="M183.568,135.568c-2.34,0-3.822-1.526-3.822-4.951c0-3.338,1.512-4.979,3.852-4.979
			s3.795,1.641,3.795,4.979C187.393,134.042,185.909,135.568,183.568,135.568z M183.584,126.823c-1.455,0-2.34,0.984-2.34,3.767
			c0,2.739,0.869,3.795,2.324,3.795s2.326-1.056,2.326-3.795C185.895,127.807,185.039,126.823,183.584,126.823z"/>
		<path fill="#1A2A4F" d="M195.613,131.816c0,2.482-0.855,3.752-3.48,3.752c-2.738,0-3.438-1.212-3.438-3.752v-6.035
			c0.229-0.028,0.455-0.071,0.685-0.071c0.257,0,0.485,0.028,0.742,0.071v6.277c0,1.384,0.3,2.411,1.997,2.411
			s2.111-1.027,2.111-2.411v-6.277c0.229-0.028,0.429-0.071,0.656-0.071c0.256,0,0.471,0.028,0.728,0.071L195.613,131.816
			L195.613,131.816z"/>
		<path fill="#1A2A4F" d="M203.777,135.426c-0.285,0.043-0.57,0.071-0.856,0.071c-0.271,0-0.499-0.014-0.771-0.071l-2.111-3.709
			h-1.255v3.709c-0.243,0.043-0.485,0.071-0.728,0.071c-0.229,0-0.473-0.028-0.699-0.071v-9.645
			c0.699-0.043,1.541-0.071,2.354-0.071c2.012,0,3.624,0.613,3.624,2.925c0,1.27-0.699,2.382-1.869,2.811L203.777,135.426z
			 M199.868,126.823c-0.328,0-0.843,0-1.084,0.014v3.752h0.97c1.342,0,2.141-0.599,2.141-1.955
			C201.895,127.322,201.139,126.823,199.868,126.823z"/>
		<path fill="#1A2A4F" d="M214.566,134.912c-0.771,0.371-1.799,0.656-2.883,0.656c-3.01,0-4.408-1.983-4.408-4.865
			c0-1.684,0.586-3.139,1.656-4.052c0.756-0.642,1.797-1.013,2.994-1.013c0.885,0,1.77,0.186,2.312,0.428
			c0.058,0.186,0.07,0.357,0.07,0.557s-0.014,0.371-0.07,0.557c-0.629-0.186-1.526-0.328-2.197-0.328
			c-0.941,0-1.684,0.299-2.197,0.785c-0.74,0.699-1.068,1.812-1.068,3.039c0,2.354,1.026,3.667,3.053,3.667
			c0.514,0,1.013-0.1,1.312-0.228v-3.139c0.229-0.029,0.441-0.071,0.67-0.071c0.258,0,0.5,0.028,0.756,0.071V134.912
			L214.566,134.912z"/>
		<path fill="#1A2A4F" d="M222.631,135.426c-0.285,0.043-0.57,0.071-0.855,0.071c-0.271,0-0.5-0.014-0.771-0.071l-2.111-3.709
			h-1.254v3.709c-0.244,0.043-0.486,0.071-0.729,0.071c-0.229,0-0.473-0.028-0.699-0.071v-9.645
			c0.699-0.043,1.541-0.071,2.354-0.071c2.013,0,3.625,0.613,3.625,2.925c0,1.27-0.699,2.382-1.869,2.811L222.631,135.426z
			 M218.723,126.823c-0.328,0-0.843,0-1.084,0.014v3.752h0.969c1.342,0,2.141-0.599,2.141-1.955
			C220.747,127.322,219.991,126.823,218.723,126.823z"/>
		<path fill="#1A2A4F" d="M229.055,133.143h-3.768l-0.742,2.283c-0.186,0.028-0.484,0.071-0.771,0.071
			c-0.198,0-0.483-0.028-0.67-0.071l3.324-9.645c0.172-0.043,0.527-0.071,0.713-0.071c0.2,0,0.528,0.043,0.656,0.071l3.567,9.645
			c-0.13,0.028-0.472,0.071-0.742,0.071c-0.214,0-0.558-0.014-0.771-0.071L229.055,133.143z M225.658,131.973h2.98l-1.142-3.281
			c-0.185-0.542-0.299-0.984-0.37-1.37h-0.016c-0.07,0.385-0.213,0.842-0.385,1.384L225.658,131.973z"/>
		<path fill="#1A2A4F" d="M238.059,134.584c-0.828,0.656-1.969,0.913-3.566,0.913c-0.656,0-1.883-0.028-2.311-0.071v-9.645
			c0.655-0.043,1.541-0.071,2.539-0.071c3.311,0,4.821,1.37,4.821,4.836C239.542,132.416,239.027,133.799,238.059,134.584z
			 M234.706,126.823c-0.286,0-0.8,0.014-1.099,0.029v7.476c0.256,0.029,0.728,0.043,1.227,0.043c1.084,0,1.798-0.3,2.297-0.828
			c0.671-0.699,0.913-1.826,0.913-3.024C238.044,128.078,237.346,126.823,234.706,126.823z"/>
		<path fill="#1A2A4F" d="M247.764,131.816c0,2.482-0.855,3.752-3.48,3.752c-2.739,0-3.438-1.212-3.438-3.752v-6.035
			c0.229-0.028,0.455-0.071,0.684-0.071c0.258,0,0.486,0.028,0.742,0.071v6.277c0,1.384,0.301,2.411,1.998,2.411
			s2.11-1.027,2.11-2.411v-6.277c0.229-0.028,0.429-0.071,0.656-0.071c0.257,0,0.471,0.028,0.728,0.071V131.816L247.764,131.816z"/>
		<path fill="#1A2A4F" d="M254.372,133.143h-3.767l-0.742,2.283c-0.187,0.028-0.484,0.071-0.771,0.071
			c-0.199,0-0.484-0.028-0.67-0.071l3.324-9.645c0.171-0.043,0.527-0.071,0.713-0.071c0.2,0,0.527,0.043,0.656,0.071l3.566,9.645
			c-0.129,0.028-0.472,0.071-0.742,0.071c-0.213,0-0.557-0.014-0.771-0.071L254.372,133.143z M250.977,131.973h2.981l-1.142-3.281
			c-0.186-0.542-0.299-0.984-0.371-1.37h-0.014c-0.072,0.385-0.215,0.842-0.386,1.384L250.977,131.973z"/>
		<path fill="#1A2A4F" d="M262.605,126.951h-2.883v8.475c-0.242,0.043-0.471,0.071-0.728,0.071c-0.242,0-0.472-0.028-0.699-0.071
			v-8.475h-2.739c-0.057-0.186-0.07-0.399-0.07-0.585c0-0.171,0.015-0.414,0.07-0.585h7.049c0.058,0.171,0.07,0.414,0.07,0.585
			C262.677,126.552,262.663,126.766,262.605,126.951z"/>
		<path fill="#1A2A4F" d="M269.186,135.426h-5.621v-9.645h5.408c0.057,0.171,0.07,0.414,0.07,0.585c0,0.186-0.016,0.399-0.07,0.585
			h-3.98v2.911h3.438c0.057,0.171,0.071,0.414,0.071,0.585c0,0.185-0.015,0.399-0.071,0.585h-3.438v3.224h4.193
			c0.058,0.171,0.071,0.414,0.071,0.585C269.257,135.026,269.242,135.24,269.186,135.426z"/>
		<path fill="#1A2A4F" d="M272.939,135.568c-0.785,0-2.041-0.171-2.739-0.542c-0.043-0.2-0.071-0.385-0.071-0.585
			c0-0.214,0.016-0.428,0.071-0.628c0.671,0.314,1.854,0.585,2.668,0.585c1.185,0,1.983-0.457,1.983-1.441
			c0-0.899-0.414-1.341-1.569-1.769l-0.728-0.271c-1.441-0.542-2.326-1.327-2.326-2.654c0-1.783,1.513-2.625,3.238-2.625
			c0.756,0,1.483,0.085,2.154,0.257c0.043,0.171,0.07,0.356,0.07,0.542c0,0.2-0.027,0.399-0.07,0.599
			c-0.699-0.143-1.355-0.228-2.069-0.228c-0.97,0-1.883,0.385-1.883,1.413c0,0.728,0.399,1.169,1.526,1.598l0.671,0.257
			c1.47,0.542,2.354,1.227,2.354,2.739C276.221,134.669,274.766,135.568,272.939,135.568z"/>
	</g>
	<g>
		<path fill="#1A2A4F" d="M186.909,147.416h-3.767l-0.742,2.283c-0.187,0.028-0.484,0.071-0.771,0.071
			c-0.199,0-0.484-0.028-0.67-0.071l3.324-9.645c0.171-0.043,0.527-0.071,0.713-0.071c0.199,0,0.527,0.043,0.656,0.071l3.566,9.645
			c-0.129,0.028-0.472,0.071-0.742,0.071c-0.213,0-0.557-0.014-0.771-0.071L186.909,147.416z M183.514,146.246h2.981l-1.142-3.281
			c-0.186-0.542-0.299-0.984-0.371-1.37h-0.015c-0.071,0.385-0.214,0.842-0.385,1.384L183.514,146.246z"/>
		<path fill="#1A2A4F" d="M196.441,149.698c-0.284,0.043-0.569,0.071-0.855,0.071c-0.271,0-0.499-0.014-0.771-0.071l-2.11-3.709
			h-1.255v3.709c-0.243,0.043-0.485,0.071-0.729,0.071c-0.229,0-0.472-0.028-0.699-0.071v-9.646
			c0.699-0.043,1.541-0.071,2.354-0.071c2.013,0,3.624,0.613,3.624,2.925c0,1.27-0.699,2.382-1.869,2.811L196.441,149.698z
			 M192.533,141.095c-0.328,0-0.842,0-1.084,0.014v3.752h0.97c1.341,0,2.14-0.599,2.14-1.955
			C194.559,141.595,193.803,141.095,192.533,141.095z"/>
		<path fill="#1A2A4F" d="M203.207,149.698h-5.621v-9.646h5.407c0.057,0.171,0.071,0.414,0.071,0.585
			c0,0.186-0.016,0.399-0.071,0.585h-3.979v2.911h3.438c0.057,0.171,0.07,0.414,0.07,0.585c0,0.185-0.015,0.399-0.07,0.585h-3.438
			v3.224h4.193c0.057,0.171,0.07,0.414,0.07,0.585C203.277,149.299,203.264,149.513,203.207,149.698z"/>
		<path fill="#1A2A4F" d="M208.832,149.698c-0.229,0.028-0.457,0.071-0.686,0.071c-0.258,0-0.484-0.028-0.742-0.071v-9.646
			c0.242-0.043,0.472-0.071,0.729-0.071c0.242,0,0.471,0.028,0.699,0.071V149.698z"/>
		<path fill="#1A2A4F" d="M218.12,149.698c-0.114,0.043-0.356,0.057-0.542,0.057c-0.171,0-0.344-0.014-0.499-0.057L212,142.494
			v7.205c-0.129,0.043-0.471,0.071-0.686,0.071c-0.172,0-0.441-0.014-0.627-0.071v-9.645c0.113-0.028,0.412-0.057,0.556-0.057
			c0.187,0,0.429,0.014,0.571,0.057l4.992,7.091v-7.091c0.157-0.043,0.428-0.071,0.613-0.071c0.172,0,0.557,0.028,0.699,0.071
			L218.12,149.698L218.12,149.698z"/>
		<path fill="#1A2A4F" d="M226.1,149.698c-0.3,0.043-0.57,0.071-0.869,0.071c-0.258,0-0.586-0.028-0.842-0.071l-2.027-7.233
			c-0.241-0.842-0.342-1.612-0.342-2.411c0.215-0.057,0.399-0.071,0.699-0.071c0.258,0,0.428,0,0.699,0.071
			c0,0.756,0.057,1.355,0.299,2.269l1.199,4.565c0.156,0.613,0.271,1.056,0.312,1.413h0.016c0.042-0.357,0.156-0.885,0.285-1.398
			l1.641-6.848c0.229-0.043,0.456-0.071,0.686-0.071c0.229,0,0.441,0.028,0.67,0.071l1.627,6.848
			c0.113,0.471,0.229,0.97,0.271,1.398h0.015c0.058-0.428,0.186-0.956,0.313-1.413l1.241-4.565c0.214-0.756,0.312-1.512,0.312-2.269
			c0.187-0.043,0.387-0.071,0.672-0.071c0.229,0,0.484,0.014,0.699,0.071c0,0.799-0.102,1.555-0.344,2.411l-2.04,7.233
			c-0.241,0.043-0.558,0.071-0.813,0.071c-0.299,0-0.569-0.028-0.869-0.071l-1.455-5.978c-0.114-0.457-0.2-0.999-0.301-1.583h-0.015
			c-0.1,0.585-0.185,1.127-0.299,1.598L226.1,149.698z"/>
		<path fill="#1A2A4F" d="M238.045,149.841c-2.34,0-3.822-1.526-3.822-4.951c0-3.338,1.512-4.979,3.852-4.979
			s3.795,1.641,3.795,4.979C241.868,148.314,240.385,149.841,238.045,149.841z M238.061,141.095c-1.455,0-2.34,0.984-2.34,3.767
			c0,2.739,0.869,3.795,2.324,3.795s2.325-1.056,2.325-3.795C240.37,142.08,239.516,141.095,238.061,141.095z"/>
		<path fill="#1A2A4F" d="M249.646,149.698c-0.285,0.043-0.569,0.071-0.855,0.071c-0.271,0-0.499-0.014-0.771-0.071l-2.11-3.709
			h-1.255v3.709c-0.243,0.043-0.485,0.071-0.729,0.071c-0.229,0-0.472-0.028-0.699-0.071v-9.646
			c0.699-0.043,1.541-0.071,2.354-0.071c2.012,0,3.624,0.613,3.624,2.925c0,1.27-0.699,2.382-1.869,2.811L249.646,149.698z
			 M245.738,141.095c-0.328,0-0.842,0-1.084,0.014v3.752h0.97c1.341,0,2.14-0.599,2.14-1.955
			C247.764,141.595,247.008,141.095,245.738,141.095z"/>
		<path fill="#1A2A4F" d="M255.784,142.451l-1.812,1.912l3.637,5.336c-0.299,0.057-0.514,0.071-0.812,0.071
			c-0.271,0-0.557-0.028-0.826-0.071l-2.969-4.337l-0.784,0.841v3.496c-0.2,0.043-0.485,0.071-0.728,0.071
			c-0.215,0-0.485-0.028-0.699-0.071v-9.645c0.214-0.043,0.484-0.071,0.699-0.071c0.242,0,0.527,0.028,0.728,0.071v4.409
			l2.511-2.682c0.543-0.585,0.984-1.241,1.057-1.727c0.214-0.043,0.471-0.071,0.686-0.071c0.242,0,0.541,0.028,0.741,0.071
			C257.011,140.924,256.54,141.652,255.784,142.451z"/>
		<path fill="#1A2A4F" d="M264.79,149.841c-2.34,0-3.823-1.526-3.823-4.951c0-3.338,1.512-4.979,3.852-4.979
			c2.341,0,3.796,1.641,3.796,4.979C268.613,148.314,267.13,149.841,264.79,149.841z M264.805,141.095
			c-1.455,0-2.34,0.984-2.34,3.767c0,2.739,0.87,3.795,2.325,3.795s2.325-1.056,2.325-3.795
			C267.115,142.08,266.26,141.095,264.805,141.095z"/>
		<path fill="#1A2A4F" d="M276.393,149.698c-0.285,0.043-0.569,0.071-0.855,0.071c-0.271,0-0.499-0.014-0.771-0.071l-2.11-3.709
			H271.4v3.709c-0.243,0.043-0.485,0.071-0.729,0.071c-0.229,0-0.472-0.028-0.699-0.071v-9.646c0.699-0.043,1.541-0.071,2.354-0.071
			c2.012,0,3.624,0.613,3.624,2.925c0,1.27-0.699,2.382-1.869,2.811L276.393,149.698z M272.482,141.095
			c-0.328,0-0.842,0-1.084,0.014v3.752h0.971c1.341,0,2.14-0.599,2.14-1.955C274.509,141.595,273.753,141.095,272.482,141.095z"/>
	</g>
	<g>
		<path fill="#1A2A4F" d="M188.979,155.495h-3.979v2.909h3.295c0.058,0.173,0.071,0.414,0.071,0.586
			c0,0.186-0.014,0.398-0.071,0.585h-3.295v4.396c-0.243,0.043-0.457,0.07-0.714,0.07c-0.242,0-0.485-0.027-0.713-0.07v-9.646h5.406
			c0.058,0.171,0.071,0.414,0.071,0.585C189.05,155.096,189.035,155.311,188.979,155.495z"/>
		<path fill="#1A2A4F" d="M197.068,160.359c0,2.482-0.854,3.752-3.479,3.752c-2.739,0-3.438-1.213-3.438-3.752v-6.034
			c0.229-0.028,0.457-0.071,0.686-0.071c0.257,0,0.484,0.028,0.742,0.071v6.276c0,1.385,0.3,2.412,1.997,2.412
			c1.698,0,2.11-1.027,2.11-2.412v-6.276c0.229-0.028,0.43-0.071,0.656-0.071c0.258,0,0.471,0.028,0.729,0.071v6.034H197.068z"/>
		<path fill="#1A2A4F" d="M205.232,163.971c-0.284,0.043-0.569,0.07-0.855,0.07c-0.271,0-0.499-0.016-0.771-0.07l-2.11-3.71h-1.255
			v3.71c-0.243,0.043-0.485,0.07-0.729,0.07c-0.229,0-0.472-0.027-0.699-0.07v-9.646c0.699-0.043,1.541-0.071,2.354-0.071
			c2.013,0,3.624,0.613,3.624,2.926c0,1.27-0.699,2.383-1.869,2.811L205.232,163.971z M201.324,155.367
			c-0.328,0-0.842,0-1.084,0.014v3.752h0.97c1.341,0,2.14-0.599,2.14-1.953C203.35,155.866,202.594,155.367,201.324,155.367z"/>
		<path fill="#1A2A4F" d="M212.27,155.495h-2.881v8.476c-0.242,0.043-0.472,0.07-0.729,0.07c-0.242,0-0.471-0.027-0.699-0.07v-8.476
			h-2.738c-0.058-0.187-0.072-0.399-0.072-0.585c0-0.172,0.016-0.414,0.072-0.585h7.047c0.059,0.171,0.071,0.413,0.071,0.585
			C212.341,155.096,212.327,155.311,212.27,155.495z"/>
		<path fill="#1A2A4F" d="M220.348,163.971c-0.229,0.027-0.441,0.07-0.671,0.07c-0.257,0-0.499-0.027-0.756-0.07v-4.281h-4.267
			v4.281c-0.242,0.043-0.5,0.07-0.756,0.07c-0.242,0-0.442-0.027-0.67-0.07v-9.646c0.17-0.028,0.428-0.071,0.655-0.071
			c0.257,0,0.515,0.028,0.771,0.071v4.194h4.267v-4.194c0.242-0.043,0.485-0.071,0.742-0.071c0.241,0,0.456,0.028,0.685,0.071
			V163.971z"/>
		<path fill="#1A2A4F" d="M227.77,163.971h-5.621v-9.646h5.408c0.057,0.171,0.07,0.414,0.07,0.585c0,0.186-0.016,0.398-0.07,0.585
			h-3.98v2.91h3.438c0.057,0.172,0.071,0.413,0.071,0.585c0,0.186-0.015,0.398-0.071,0.585h-3.438v3.225h4.193
			c0.058,0.171,0.071,0.414,0.071,0.585C227.841,163.57,227.826,163.784,227.77,163.971z"/>
		<path fill="#1A2A4F" d="M235.52,163.971c-0.285,0.043-0.57,0.07-0.856,0.07c-0.271,0-0.499-0.016-0.771-0.07l-2.111-3.71h-1.256
			v3.71c-0.242,0.043-0.484,0.07-0.728,0.07c-0.229,0-0.472-0.027-0.698-0.07v-9.646c0.698-0.043,1.541-0.071,2.354-0.071
			c2.012,0,3.624,0.613,3.624,2.926c0,1.27-0.699,2.383-1.869,2.811L235.52,163.971z M231.609,155.367c-0.328,0-0.842,0-1.084,0.014
			v3.752h0.97c1.341,0,2.14-0.599,2.14-1.953C233.635,155.866,232.879,155.367,231.609,155.367z"/>
		<path fill="#1A2A4F" d="M241.885,164.111c-0.783,0-2.039-0.17-2.738-0.541c-0.043-0.2-0.071-0.387-0.071-0.586
			c0-0.213,0.015-0.428,0.071-0.627c0.67,0.313,1.854,0.584,2.668,0.584c1.185,0,1.982-0.455,1.982-1.439
			c0-0.898-0.414-1.342-1.568-1.77l-0.729-0.271c-1.441-0.542-2.325-1.326-2.325-2.652c0-1.783,1.513-2.625,3.238-2.625
			c0.756,0,1.483,0.086,2.153,0.256c0.043,0.172,0.072,0.356,0.072,0.543c0,0.199-0.029,0.398-0.072,0.6
			c-0.698-0.143-1.354-0.229-2.068-0.229c-0.971,0-1.883,0.385-1.883,1.412c0,0.728,0.398,1.17,1.525,1.599l0.672,0.256
			c1.47,0.543,2.354,1.228,2.354,2.739C245.166,163.214,243.711,164.111,241.885,164.111z"/>
		<path fill="#1A2A4F" d="M252.344,155.495h-2.882v8.476c-0.241,0.043-0.471,0.07-0.728,0.07c-0.242,0-0.471-0.027-0.699-0.07
			v-8.476h-2.739c-0.058-0.187-0.071-0.399-0.071-0.585c0-0.172,0.016-0.414,0.071-0.585h7.048c0.059,0.171,0.071,0.413,0.071,0.585
			C252.415,155.096,252.4,155.311,252.344,155.495z"/>
		<path fill="#1A2A4F" d="M260.18,160.359c0,2.482-0.854,3.752-3.479,3.752c-2.739,0-3.438-1.213-3.438-3.752v-6.034
			c0.229-0.028,0.456-0.071,0.686-0.071c0.257,0,0.484,0.028,0.742,0.071v6.276c0,1.385,0.299,2.412,1.996,2.412
			c1.698,0,2.111-1.027,2.111-2.412v-6.276c0.229-0.028,0.43-0.071,0.656-0.071c0.257,0,0.471,0.028,0.729,0.071v6.034H260.18z"/>
		<path fill="#1A2A4F" d="M267.802,163.128c-0.827,0.656-1.969,0.913-3.567,0.913c-0.655,0-1.883-0.027-2.311-0.07v-9.646
			c0.656-0.043,1.541-0.071,2.539-0.071c3.311,0,4.822,1.37,4.822,4.837C269.285,160.959,268.771,162.344,267.802,163.128z
			 M264.449,155.367c-0.286,0-0.801,0.014-1.1,0.027v7.477c0.258,0.027,0.729,0.043,1.228,0.043c1.084,0,1.798-0.3,2.297-0.827
			c0.671-0.698,0.913-1.826,0.913-3.024C267.787,156.622,267.088,155.367,264.449,155.367z"/>
		<path fill="#1A2A4F" d="M272.369,160.589l-2.125-4.224c-0.357-0.713-0.571-1.455-0.571-2.055c0.2-0.043,0.371-0.058,0.699-0.058
			c0.257,0,0.499,0.015,0.698,0.058c0,0.484,0.058,0.941,0.356,1.568l1.655,3.41h0.027l1.656-3.324
			c0.299-0.599,0.355-1.184,0.355-1.641c0.199-0.057,0.343-0.071,0.656-0.071c0.242,0,0.498,0.028,0.713,0.071
			c0,0.542-0.143,1.283-0.527,2.04l-2.169,4.252v3.353c-0.199,0.043-0.483,0.071-0.713,0.071c-0.257,0-0.485-0.028-0.714-0.071
			v-3.38H272.369z"/>
	</g>
	<g>
		<path fill="#9493AB" d="M151.242,206.712h-3.014l-0.593,1.826c-0.148,0.022-0.388,0.058-0.616,0.058
			c-0.16,0-0.388-0.022-0.537-0.058l2.659-7.716c0.137-0.034,0.422-0.057,0.571-0.057c0.16,0,0.422,0.033,0.525,0.057l2.854,7.716
			c-0.103,0.022-0.377,0.058-0.594,0.058c-0.171,0-0.444-0.012-0.616-0.058L151.242,206.712z M148.525,205.775h2.386l-0.913-2.625
			c-0.148-0.435-0.24-0.787-0.297-1.096h-0.012c-0.057,0.309-0.171,0.674-0.308,1.106L148.525,205.775z"/>
		<path fill="#9493AB" d="M158.126,201.759h-3.185v2.328h2.637c0.046,0.138,0.059,0.331,0.059,0.468
			c0,0.148-0.013,0.319-0.059,0.469h-2.637v3.516c-0.193,0.034-0.365,0.057-0.57,0.057c-0.194,0-0.389-0.021-0.57-0.057v-7.716
			h4.325c0.046,0.137,0.058,0.331,0.058,0.468C158.184,201.438,158.172,201.609,158.126,201.759z"/>
		<path fill="#9493AB" d="M164.463,201.759h-2.306v6.779c-0.193,0.034-0.376,0.058-0.582,0.058c-0.193,0-0.376-0.022-0.56-0.058
			v-6.779h-2.19c-0.046-0.147-0.058-0.319-0.058-0.469c0-0.138,0.012-0.331,0.058-0.468h5.638c0.046,0.137,0.059,0.33,0.059,0.468
			C164.521,201.438,164.509,201.609,164.463,201.759z"/>
		<path fill="#9493AB" d="M169.795,208.538h-4.496v-7.716h4.325c0.046,0.137,0.058,0.33,0.058,0.468
			c0,0.147-0.012,0.319-0.058,0.469h-3.185v2.328h2.75c0.047,0.138,0.058,0.331,0.058,0.468c0,0.148-0.011,0.319-0.058,0.469h-2.75
			v2.58h3.354c0.046,0.137,0.058,0.33,0.058,0.467C169.854,208.219,169.841,208.391,169.795,208.538z"/>
		<path fill="#9493AB" d="M176.052,208.538c-0.229,0.034-0.456,0.058-0.685,0.058c-0.217,0-0.399-0.012-0.616-0.058l-1.688-2.968
			h-1.006v2.968c-0.192,0.034-0.388,0.058-0.582,0.058c-0.183,0-0.375-0.022-0.559-0.058v-7.716
			c0.559-0.034,1.232-0.057,1.883-0.057c1.609,0,2.899,0.489,2.899,2.34c0,1.016-0.56,1.905-1.495,2.248L176.052,208.538z
			 M172.925,201.654c-0.263,0-0.674,0-0.868,0.013v3.002h0.776c1.073,0,1.712-0.479,1.712-1.563
			C174.545,202.055,173.939,201.654,172.925,201.654z"/>
		<path fill="#9493AB" d="M183.93,207.604c0.045,0.137,0.057,0.33,0.057,0.467c0,0.148-0.012,0.32-0.057,0.469h-4.6v-7.716
			c0.193-0.034,0.398-0.058,0.604-0.058c0.194,0,0.354,0.022,0.537,0.058v6.78H183.93z"/>
		<path fill="#9493AB" d="M189.375,208.538h-4.496v-7.716h4.325c0.046,0.137,0.058,0.33,0.058,0.468
			c0,0.147-0.012,0.319-0.058,0.469h-3.185v2.328h2.75c0.047,0.138,0.058,0.331,0.058,0.468c0,0.148-0.011,0.319-0.058,0.469h-2.75
			v2.58h3.354c0.046,0.137,0.058,0.33,0.058,0.467C189.434,208.219,189.421,208.391,189.375,208.538z"/>
		<path fill="#9493AB" d="M194.674,206.712h-3.014l-0.594,1.826c-0.148,0.022-0.389,0.058-0.616,0.058
			c-0.159,0-0.388-0.022-0.536-0.058l2.659-7.716c0.137-0.034,0.423-0.057,0.571-0.057c0.158,0,0.422,0.033,0.523,0.057l2.854,7.716
			c-0.103,0.022-0.377,0.058-0.594,0.058c-0.171,0-0.443-0.012-0.615-0.058L194.674,206.712z M191.957,205.775h2.386l-0.913-2.625
			c-0.147-0.435-0.24-0.787-0.297-1.096h-0.012c-0.057,0.309-0.171,0.674-0.309,1.106L191.957,205.775z"/>
		<path fill="#9493AB" d="M201.648,202.854l-2.078,5.685c-0.113,0.034-0.375,0.058-0.569,0.058c-0.239,0-0.491-0.022-0.604-0.058
			l-2.123-5.673c-0.25-0.686-0.377-1.553-0.377-2.043c0.172-0.034,0.354-0.057,0.549-0.057c0.217,0,0.41,0.021,0.57,0.057
			c0.012,0.502,0.125,1.222,0.354,1.85l1.268,3.424c0.147,0.389,0.273,0.834,0.33,1.107h0.021c0.059-0.309,0.184-0.696,0.332-1.096
			l1.256-3.437c0.229-0.616,0.354-1.312,0.354-1.851c0.114-0.021,0.309-0.057,0.561-0.057c0.193,0,0.388,0.022,0.535,0.057
			C202.025,201.312,201.911,202.146,201.648,202.854z"/>
		<path fill="#9493AB" d="M204.049,208.538c-0.183,0.022-0.365,0.058-0.548,0.058c-0.206,0-0.39-0.022-0.594-0.058v-7.716
			c0.194-0.034,0.377-0.057,0.581-0.057c0.195,0,0.378,0.021,0.561,0.057V208.538z"/>
		<path fill="#9493AB" d="M211.537,208.538c-0.092,0.034-0.285,0.046-0.434,0.046c-0.139,0-0.274-0.012-0.399-0.046l-4.063-5.765
			v5.765c-0.103,0.034-0.377,0.058-0.548,0.058c-0.137,0-0.354-0.012-0.502-0.058v-7.716c0.091-0.022,0.331-0.045,0.444-0.045
			c0.148,0,0.343,0.011,0.457,0.045l3.994,5.673v-5.673c0.125-0.034,0.343-0.057,0.49-0.057c0.137,0,0.445,0.021,0.561,0.057
			V208.538L211.537,208.538z"/>
		<path fill="#9493AB" d="M218.514,208.127c-0.617,0.297-1.438,0.525-2.307,0.525c-2.408,0-3.527-1.588-3.527-3.894
			c0-1.347,0.469-2.511,1.324-3.241c0.604-0.514,1.438-0.811,2.396-0.811c0.707,0,1.416,0.148,1.85,0.343
			c0.045,0.148,0.057,0.285,0.057,0.445c0,0.159-0.012,0.297-0.057,0.444c-0.502-0.147-1.223-0.263-1.758-0.263
			c-0.754,0-1.348,0.239-1.758,0.628c-0.594,0.56-0.856,1.449-0.856,2.432c0,1.884,0.822,2.934,2.442,2.934
			c0.41,0,0.811-0.08,1.051-0.184v-2.512c0.184-0.021,0.354-0.057,0.536-0.057c0.206,0,0.399,0.021,0.604,0.057v3.152H218.514z"/>
		<path fill="#9493AB" d="M227.682,205.65c0,1.985-0.686,3.002-2.785,3.002c-2.191,0-2.752-0.971-2.752-3.002v-4.828
			c0.185-0.022,0.365-0.057,0.549-0.057c0.205,0,0.389,0.021,0.594,0.057v5.021c0,1.106,0.24,1.93,1.599,1.93
			c1.357,0,1.688-0.822,1.688-1.93v-5.021c0.183-0.022,0.343-0.057,0.525-0.057c0.205,0,0.377,0.021,0.582,0.057V205.65
			L227.682,205.65z"/>
		<path fill="#9493AB" d="M235.079,208.538c-0.093,0.034-0.285,0.046-0.435,0.046c-0.138,0-0.273-0.012-0.398-0.046l-4.062-5.765
			v5.765c-0.104,0.034-0.377,0.058-0.549,0.058c-0.137,0-0.354-0.012-0.502-0.058v-7.716c0.092-0.022,0.33-0.045,0.444-0.045
			c0.147,0,0.343,0.011,0.457,0.045l3.995,5.673v-5.673c0.125-0.034,0.342-0.057,0.49-0.057c0.137,0,0.444,0.021,0.56,0.057V208.538
			L235.079,208.538z"/>
		<path fill="#9493AB" d="M237.775,208.538c-0.184,0.022-0.365,0.058-0.549,0.058c-0.205,0-0.389-0.022-0.594-0.058v-7.716
			c0.194-0.034,0.377-0.057,0.582-0.057c0.194,0,0.377,0.021,0.561,0.057V208.538z"/>
		<path fill="#9493AB" d="M244.408,202.854l-2.078,5.685c-0.113,0.034-0.376,0.058-0.57,0.058c-0.238,0-0.49-0.022-0.604-0.058
			l-2.123-5.673c-0.251-0.686-0.377-1.553-0.377-2.043c0.171-0.034,0.354-0.057,0.548-0.057c0.217,0,0.411,0.021,0.569,0.057
			c0.013,0.502,0.127,1.222,0.354,1.85l1.267,3.424c0.148,0.389,0.273,0.834,0.332,1.107h0.021c0.059-0.309,0.184-0.696,0.331-1.096
			l1.256-3.437c0.229-0.616,0.354-1.312,0.354-1.851c0.113-0.021,0.309-0.057,0.56-0.057c0.194,0,0.388,0.022,0.536,0.057
			C244.784,201.312,244.67,202.146,244.408,202.854z"/>
		<path fill="#9493AB" d="M250.104,208.538h-4.496v-7.716h4.326c0.045,0.137,0.058,0.33,0.058,0.468
			c0,0.147-0.013,0.319-0.058,0.469h-3.186v2.328h2.751c0.046,0.138,0.058,0.331,0.058,0.468c0,0.148-0.012,0.319-0.058,0.469
			h-2.751v2.58h3.355c0.045,0.137,0.058,0.33,0.058,0.467C250.162,208.219,250.15,208.391,250.104,208.538z"/>
		<path fill="#9493AB" d="M256.361,208.538c-0.229,0.034-0.457,0.058-0.686,0.058c-0.217,0-0.398-0.012-0.615-0.058l-1.689-2.968
			h-1.005v2.968c-0.193,0.034-0.388,0.058-0.582,0.058c-0.183,0-0.376-0.022-0.56-0.058v-7.716c0.56-0.034,1.232-0.057,1.883-0.057
			c1.609,0,2.899,0.489,2.899,2.34c0,1.016-0.56,1.905-1.495,2.248L256.361,208.538z M253.234,201.654c-0.264,0-0.674,0-0.868,0.013
			v3.002h0.776c1.072,0,1.711-0.479,1.711-1.563C254.854,202.055,254.25,201.654,253.234,201.654z"/>
		<path fill="#9493AB" d="M259.285,208.652c-0.627,0-1.633-0.137-2.191-0.435c-0.033-0.159-0.057-0.309-0.057-0.468
			c0-0.172,0.012-0.343,0.057-0.503c0.537,0.251,1.484,0.469,2.135,0.469c0.947,0,1.588-0.364,1.588-1.153
			c0-0.719-0.332-1.072-1.256-1.414l-0.582-0.217c-1.153-0.435-1.86-1.062-1.86-2.123c0-1.428,1.21-2.102,2.591-2.102
			c0.604,0,1.188,0.068,1.725,0.206c0.033,0.137,0.057,0.285,0.057,0.435c0,0.159-0.022,0.318-0.057,0.479
			c-0.561-0.114-1.086-0.184-1.656-0.184c-0.775,0-1.506,0.309-1.506,1.131c0,0.582,0.319,0.936,1.222,1.277l0.536,0.205
			c1.176,0.434,1.884,0.98,1.884,2.191C261.911,207.934,260.746,208.652,259.285,208.652z"/>
		<path fill="#9493AB" d="M264.195,208.538c-0.184,0.022-0.365,0.058-0.549,0.058c-0.205,0-0.389-0.022-0.594-0.058v-7.716
			c0.194-0.034,0.377-0.057,0.582-0.057c0.194,0,0.377,0.021,0.561,0.057V208.538z"/>
		<path fill="#9493AB" d="M270.725,201.759h-2.307v6.779c-0.193,0.034-0.376,0.058-0.582,0.058c-0.193,0-0.376-0.022-0.559-0.058
			v-6.779h-2.191c-0.046-0.147-0.059-0.319-0.059-0.469c0-0.138,0.013-0.331,0.059-0.468h5.639c0.045,0.137,0.058,0.33,0.058,0.468
			C270.781,201.438,270.77,201.609,270.725,201.759z"/>
		<path fill="#9493AB" d="M273.375,205.833l-1.701-3.378c-0.285-0.571-0.456-1.165-0.456-1.645c0.159-0.033,0.298-0.045,0.56-0.045
			c0.205,0,0.398,0.012,0.56,0.045c0,0.389,0.046,0.754,0.285,1.256l1.323,2.729h0.022l1.324-2.66
			c0.24-0.479,0.285-0.947,0.285-1.312c0.159-0.046,0.274-0.058,0.524-0.058c0.194,0,0.399,0.022,0.57,0.058
			c0,0.434-0.113,1.026-0.422,1.633l-1.734,3.399v2.684c-0.16,0.034-0.389,0.057-0.57,0.057c-0.205,0-0.389-0.021-0.57-0.057
			V205.833L273.375,205.833z"/>
	</g>
	<g>
		<g>
			<defs>
				<rect id="SVGID_3_" x="18.243" y="61.856" width="123.069" height="157.974"/>
			</defs>
			<clipPath id="SVGID_4_">
				<use xlink:href="#SVGID_3_"  overflow="visible"/>
			</clipPath>
			<path clip-path="url(#SVGID_4_)" fill="#BBA461" d="M97.32,154.898c0,0-14.246,4.721-16.991,21.303
				c-0.008,0.042-0.034,0.042-0.043,0c-2.745-16.582-16.99-21.303-16.99-21.303l9.337-9.274
				c-13.166-5.905-16.666-25.981-16.666-25.981c-0.744-2.902-0.834-4.889-0.834-4.889c6.592-0.449,29.595-2.429,31.165-9.886
				c2.17,4.006,13.649,14.073,18.293,14.836c0,0-4.509,19.854-16.822,25.906L97.32,154.898z M126.19,159.005
				c-1.112-2.651-3.779-4.353-6.325-5.397l-8.491-3.907c-0.008-6.23-0.067-37.265-0.031-40.53c0.049-5.078-0.556-9.612-1.889-13.537
				l10.568-3.818l0.023,9.765h-0.717c-0.5-0.045-0.941,0.313-0.999,0.812l-0.93,8.065c-0.028,0.246,0.044,0.491,0.201,0.684
				c0.155,0.193,0.382,0.316,0.628,0.335l7.381-0.001c0.248-0.029,0.475-0.147,0.628-0.339c0.158-0.192,0.228-0.44,0.201-0.688
				c-0.187-1.583-0.372-3.165-0.556-4.748l-0.385-3.314c-0.059-0.496-0.502-0.854-1-0.809h-0.718l0.017-11.126l0.374-0.136
				l1.249-0.453c1.061-0.381,1.766-1.387,1.766-2.511c0-1.125-0.705-2.131-1.766-2.514L81.217,68.861
				c-0.589-0.213-1.231-0.213-1.817,0L35.196,84.836c-1.06,0.381-1.765,1.388-1.765,2.513s0.706,2.129,1.765,2.512l16.029,5.793
				c-1.399,4.024-2.036,8.678-1.984,13.876l0.001,40.169l-8.489,3.906c-2.548,1.047-5.053,2.635-6.326,5.398
				c0,0-18.717,47.807-8.565,47.807h108.891C144.906,206.811,126.19,159.005,126.19,159.005"/>
		</g>
	</g>
	<g>
		<path fill="#1A2A4F" d="M59.567,226.555c-1.372-1.277-2.105-3.074-2.105-4.885s0.733-3.548,2.105-4.824
			c0.272,0.035,0.449,0.165,0.603,0.379c-1.159,1.371-1.597,2.92-1.597,4.48c0,1.585,0.438,3.1,1.597,4.471
			C60.017,226.389,59.839,226.52,59.567,226.555z"/>
		<path fill="#1A2A4F" d="M66.591,224.532c-0.686,0.544-1.632,0.757-2.957,0.757c-0.544,0-1.561-0.023-1.916-0.061v-7.994
			c0.544-0.034,1.277-0.059,2.105-0.059c2.744,0,3.997,1.135,3.997,4.01C67.82,222.734,67.395,223.882,66.591,224.532z
			 M63.812,218.1c-0.236,0-0.662,0.012-0.911,0.022v6.196c0.213,0.023,0.603,0.035,1.017,0.035c0.899,0,1.49-0.248,1.904-0.686
			c0.556-0.58,0.757-1.514,0.757-2.508C66.579,219.141,66,218.1,63.812,218.1z"/>
		<path fill="#1A2A4F" d="M73.885,225.229h-4.66v-7.994h4.482c0.047,0.143,0.059,0.344,0.059,0.486c0,0.152-0.012,0.33-0.059,0.483
			h-3.299v2.412h2.85c0.047,0.143,0.059,0.344,0.059,0.485c0,0.152-0.012,0.33-0.059,0.483h-2.85v2.673h3.477
			c0.047,0.143,0.059,0.344,0.059,0.485C73.944,224.898,73.932,225.076,73.885,225.229z"/>
		<path fill="#1A2A4F" d="M77.277,225.348c-0.65,0-1.691-0.142-2.271-0.449c-0.036-0.166-0.06-0.318-0.06-0.484
			c0-0.178,0.012-0.354,0.06-0.52c0.556,0.26,1.537,0.483,2.211,0.483c0.982,0,1.644-0.378,1.644-1.194
			c0-0.744-0.343-1.11-1.301-1.466l-0.603-0.226c-1.194-0.449-1.928-1.1-1.928-2.199c0-1.479,1.253-2.176,2.685-2.176
			c0.626,0,1.229,0.07,1.786,0.213c0.035,0.143,0.059,0.296,0.059,0.449c0,0.166-0.024,0.33-0.059,0.496
			c-0.58-0.117-1.124-0.188-1.715-0.188c-0.804,0-1.561,0.319-1.561,1.171c0,0.604,0.331,0.971,1.266,1.324l0.556,0.213
			c1.218,0.449,1.951,1.018,1.951,2.271C79.997,224.604,78.791,225.348,77.277,225.348z"/>
		<path fill="#1A2A4F" d="M86.24,218.205h-2.389v7.023c-0.201,0.035-0.391,0.061-0.604,0.061c-0.201,0-0.39-0.023-0.579-0.061
			v-7.023h-2.271c-0.047-0.153-0.059-0.331-0.059-0.484c0-0.143,0.012-0.344,0.059-0.484h5.842c0.047,0.142,0.059,0.343,0.059,0.484
			C86.299,217.874,86.287,218.052,86.24,218.205z"/>
		<path fill="#1A2A4F" d="M88.567,225.229c-0.189,0.023-0.378,0.061-0.567,0.061c-0.213,0-0.402-0.023-0.615-0.061v-7.994
			c0.201-0.034,0.391-0.059,0.604-0.059c0.201,0,0.39,0.023,0.579,0.059L88.567,225.229L88.567,225.229z"/>
		<path fill="#1A2A4F" d="M96.561,225.229c-0.094,0.035-0.295,0.047-0.449,0.047c-0.142,0-0.284-0.012-0.414-0.047l-4.209-5.972
			v5.972c-0.106,0.035-0.391,0.061-0.568,0.061c-0.142,0-0.367-0.014-0.521-0.061v-7.994c0.095-0.022,0.343-0.047,0.461-0.047
			c0.154,0,0.354,0.013,0.473,0.047l4.139,5.877v-5.877c0.13-0.034,0.355-0.059,0.509-0.059c0.142,0,0.461,0.023,0.579,0.059
			V225.229z"/>
		<path fill="#1A2A4F" d="M102.566,223.338h-3.122l-0.615,1.893c-0.154,0.022-0.402,0.06-0.639,0.06
			c-0.166,0-0.402-0.024-0.556-0.06l2.755-7.994c0.142-0.035,0.438-0.06,0.591-0.06c0.166,0,0.438,0.035,0.544,0.06l2.957,7.994
			c-0.106,0.022-0.39,0.06-0.615,0.06c-0.178,0-0.461-0.013-0.639-0.06L102.566,223.338z M99.752,222.368h2.471l-0.946-2.722
			c-0.154-0.448-0.249-0.814-0.308-1.135h-0.012c-0.059,0.319-0.177,0.697-0.319,1.146L99.752,222.368z"/>
		<path fill="#1A2A4F" d="M109.696,218.205h-2.389v7.023c-0.201,0.035-0.391,0.061-0.604,0.061c-0.201,0-0.39-0.023-0.579-0.061
			v-7.023h-2.271c-0.047-0.153-0.059-0.331-0.059-0.484c0-0.143,0.012-0.344,0.059-0.484h5.842c0.047,0.142,0.059,0.343,0.059,0.484
			C109.755,217.874,109.743,218.052,109.696,218.205z"/>
		<path fill="#1A2A4F" d="M112.023,225.229c-0.189,0.023-0.378,0.061-0.567,0.061c-0.213,0-0.402-0.023-0.615-0.061v-7.994
			c0.201-0.034,0.391-0.059,0.604-0.059c0.201,0,0.39,0.023,0.579,0.059L112.023,225.229L112.023,225.229z"/>
		<path fill="#1A2A4F" d="M116.658,225.348c-1.939,0-3.169-1.266-3.169-4.104c0-2.768,1.253-4.127,3.193-4.127
			s3.146,1.359,3.146,4.127C119.828,224.082,118.598,225.348,116.658,225.348z M116.67,218.1c-1.206,0-1.939,0.815-1.939,3.121
			c0,2.271,0.721,3.146,1.927,3.146c1.207,0,1.928-0.875,1.928-3.146C118.586,218.915,117.876,218.1,116.67,218.1z"/>
		<path fill="#1A2A4F" d="M127.394,225.229c-0.094,0.035-0.295,0.047-0.449,0.047c-0.142,0-0.284-0.012-0.414-0.047l-4.209-5.972
			v5.972c-0.106,0.035-0.391,0.061-0.568,0.061c-0.142,0-0.367-0.014-0.521-0.061v-7.994c0.095-0.022,0.343-0.047,0.461-0.047
			c0.154,0,0.354,0.013,0.473,0.047l4.139,5.877v-5.877c0.13-0.034,0.355-0.059,0.509-0.059c0.142,0,0.461,0.023,0.579,0.059
			V225.229z"/>
		<path fill="#1A2A4F" d="M134.569,225.348c-1.939,0-3.169-1.266-3.169-4.104c0-2.768,1.253-4.127,3.193-4.127
			c1.94,0,3.146,1.359,3.146,4.127C137.739,224.082,136.509,225.348,134.569,225.348z M134.581,218.1
			c-1.206,0-1.939,0.815-1.939,3.121c0,2.271,0.721,3.146,1.927,3.146c1.207,0,1.928-0.875,1.928-3.146
			C136.497,218.915,135.788,218.1,134.581,218.1z"/>
		<path fill="#1A2A4F" d="M143.626,218.205h-3.299v2.412h2.732c0.047,0.143,0.059,0.344,0.059,0.484
			c0,0.153-0.012,0.332-0.059,0.484h-2.732v3.643c-0.201,0.035-0.378,0.061-0.591,0.061c-0.201,0-0.402-0.023-0.591-0.061v-7.994
			h4.482c0.047,0.143,0.059,0.344,0.059,0.486C143.685,217.874,143.673,218.052,143.626,218.205z"/>
		<path fill="#1A2A4F" d="M152.292,224.26c0.047,0.143,0.06,0.344,0.06,0.485c0,0.153-0.013,0.331-0.06,0.483h-4.766v-7.994
			c0.201-0.034,0.414-0.059,0.627-0.059c0.201,0,0.367,0.023,0.556,0.059v7.024L152.292,224.26L152.292,224.26z"/>
		<path fill="#1A2A4F" d="M158.154,225.229h-4.658v-7.994h4.482c0.047,0.143,0.059,0.344,0.059,0.486
			c0,0.152-0.012,0.33-0.059,0.483h-3.301v2.412h2.852c0.047,0.143,0.059,0.344,0.059,0.485c0,0.152-0.012,0.33-0.059,0.483h-2.852
			v2.673h3.477c0.049,0.143,0.061,0.344,0.061,0.485C158.215,224.898,158.203,225.076,158.154,225.229z"/>
		<path fill="#1A2A4F" d="M163.865,223.338h-3.122l-0.614,1.893c-0.154,0.022-0.402,0.06-0.639,0.06
			c-0.166,0-0.402-0.024-0.557-0.06l2.756-7.994c0.143-0.035,0.438-0.06,0.592-0.06c0.164,0,0.438,0.035,0.544,0.06l2.956,7.994
			c-0.106,0.022-0.391,0.06-0.615,0.06c-0.178,0-0.461-0.013-0.639-0.06L163.865,223.338z M161.051,222.368h2.473l-0.946-2.722
			c-0.153-0.448-0.248-0.814-0.308-1.135h-0.013c-0.06,0.319-0.177,0.697-0.317,1.146L161.051,222.368z"/>
		<path fill="#1A2A4F" d="M171.314,219.341l-2.152,5.89c-0.118,0.035-0.391,0.06-0.592,0.06c-0.248,0-0.508-0.024-0.627-0.06
			l-2.199-5.877c-0.26-0.711-0.391-1.608-0.391-2.117c0.178-0.035,0.367-0.06,0.567-0.06c0.226,0,0.427,0.023,0.591,0.06
			c0.014,0.521,0.131,1.266,0.367,1.916l1.312,3.548c0.152,0.401,0.283,0.862,0.343,1.146h0.022
			c0.061-0.318,0.189-0.721,0.344-1.135l1.302-3.561c0.235-0.639,0.366-1.359,0.366-1.916c0.117-0.022,0.318-0.059,0.578-0.059
			c0.201,0,0.402,0.023,0.557,0.059C171.704,217.744,171.586,218.607,171.314,219.341z"/>
		<path fill="#1A2A4F" d="M177.438,225.229h-4.658v-7.994h4.482c0.047,0.143,0.059,0.344,0.059,0.486
			c0,0.152-0.012,0.33-0.059,0.483h-3.301v2.412h2.85c0.049,0.143,0.061,0.344,0.061,0.485c0,0.152-0.012,0.33-0.061,0.483h-2.85
			v2.673h3.477c0.049,0.143,0.061,0.344,0.061,0.485C177.497,224.898,177.484,225.076,177.438,225.229z"/>
		<path fill="#1A2A4F" d="M184.143,225.229c-0.236,0.035-0.474,0.061-0.709,0.061c-0.226,0-0.414-0.014-0.64-0.061l-1.75-3.074
			h-1.041v3.074c-0.201,0.035-0.401,0.061-0.603,0.061c-0.189,0-0.392-0.023-0.58-0.061v-7.994c0.58-0.034,1.277-0.059,1.951-0.059
			c1.668,0,3.004,0.508,3.004,2.424c0,1.053-0.58,1.976-1.549,2.33L184.143,225.229z M180.9,218.1c-0.271,0-0.696,0-0.897,0.012
			v3.109h0.806c1.11,0,1.772-0.496,1.772-1.619C182.581,218.514,181.954,218.1,180.9,218.1z"/>
		<path fill="#1A2A4F" d="M187.393,225.348c-0.65,0-1.691-0.142-2.271-0.449c-0.036-0.166-0.061-0.318-0.061-0.484
			c0-0.178,0.013-0.354,0.061-0.52c0.556,0.26,1.537,0.483,2.211,0.483c0.98,0,1.645-0.378,1.645-1.194
			c0-0.744-0.344-1.11-1.302-1.466l-0.603-0.226c-1.194-0.449-1.928-1.1-1.928-2.199c0-1.479,1.254-2.176,2.685-2.176
			c0.627,0,1.229,0.07,1.785,0.213c0.036,0.143,0.06,0.296,0.06,0.449c0,0.166-0.023,0.33-0.06,0.496
			c-0.579-0.117-1.123-0.188-1.714-0.188c-0.805,0-1.562,0.319-1.562,1.171c0,0.604,0.331,0.971,1.266,1.324l0.557,0.213
			c1.218,0.449,1.951,1.018,1.951,2.271C190.111,224.604,188.904,225.348,187.393,225.348z"/>
		<path fill="#1A2A4F" d="M195.312,225.229c-0.189,0.023-0.379,0.061-0.568,0.061c-0.213,0-0.401-0.023-0.614-0.061v-7.994
			c0.201-0.034,0.39-0.059,0.603-0.059c0.201,0,0.392,0.023,0.58,0.059V225.229L195.312,225.229z"/>
		<path fill="#1A2A4F" d="M203.307,225.229c-0.096,0.035-0.297,0.047-0.449,0.047c-0.143,0-0.284-0.012-0.414-0.047l-4.211-5.972
			v5.972c-0.105,0.035-0.39,0.061-0.566,0.061c-0.143,0-0.366-0.014-0.521-0.061v-7.994c0.096-0.022,0.344-0.047,0.461-0.047
			c0.154,0,0.355,0.013,0.475,0.047l4.139,5.877v-5.877c0.131-0.034,0.354-0.059,0.51-0.059c0.142,0,0.461,0.023,0.578,0.059
			V225.229L203.307,225.229z"/>
		<path fill="#1A2A4F" d="M213.58,225.229c-0.189,0.023-0.367,0.061-0.557,0.061c-0.213,0-0.414-0.023-0.627-0.061v-3.547h-3.535
			v3.547c-0.201,0.035-0.414,0.061-0.627,0.061c-0.201,0-0.366-0.023-0.557-0.061v-7.994c0.143-0.022,0.354-0.059,0.545-0.059
			c0.213,0,0.426,0.023,0.639,0.059v3.478h3.535v-3.478c0.201-0.034,0.402-0.059,0.615-0.059c0.2,0,0.379,0.023,0.567,0.059
			L213.58,225.229L213.58,225.229z"/>
		<path fill="#1A2A4F" d="M216.593,225.229c-0.188,0.023-0.379,0.061-0.567,0.061c-0.213,0-0.401-0.023-0.614-0.061v-7.994
			c0.2-0.034,0.39-0.059,0.603-0.059c0.201,0,0.391,0.023,0.58,0.059L216.593,225.229L216.593,225.229z"/>
		<path fill="#1A2A4F" d="M224.102,224.805c-0.639,0.307-1.49,0.543-2.389,0.543c-2.495,0-3.654-1.644-3.654-4.031
			c0-1.396,0.484-2.603,1.371-3.358c0.627-0.532,1.49-0.84,2.483-0.84c0.733,0,1.467,0.153,1.916,0.354
			c0.048,0.153,0.06,0.295,0.06,0.461s-0.012,0.308-0.06,0.461c-0.521-0.153-1.267-0.271-1.821-0.271
			c-0.779,0-1.396,0.249-1.82,0.65c-0.614,0.58-0.888,1.502-0.888,2.52c0,1.951,0.853,3.039,2.531,3.039
			c0.426,0,0.839-0.083,1.088-0.189v-2.602c0.188-0.023,0.366-0.061,0.556-0.061c0.213,0,0.414,0.024,0.627,0.061V224.805z"/>
		<path fill="#1A2A4F" d="M231.645,225.229c-0.188,0.023-0.367,0.061-0.556,0.061c-0.213,0-0.414-0.023-0.627-0.061v-3.547h-3.536
			v3.547c-0.201,0.035-0.414,0.061-0.627,0.061c-0.201,0-0.365-0.023-0.556-0.061v-7.994c0.144-0.022,0.354-0.059,0.544-0.059
			c0.213,0,0.426,0.023,0.639,0.059v3.478h3.536v-3.478c0.201-0.034,0.402-0.059,0.615-0.059c0.2,0,0.378,0.023,0.567,0.059V225.229
			L231.645,225.229z"/>
		<path fill="#1A2A4F" d="M238.075,225.229h-4.659v-7.994h4.482c0.047,0.143,0.059,0.344,0.059,0.486
			c0,0.152-0.012,0.33-0.059,0.483h-3.301v2.412h2.852c0.047,0.143,0.059,0.344,0.059,0.485c0,0.152-0.012,0.33-0.059,0.483h-2.852
			v2.673h3.478c0.048,0.143,0.06,0.344,0.06,0.485C238.135,224.898,238.123,225.076,238.075,225.229z"/>
		<path fill="#1A2A4F" d="M244.777,225.229c-0.235,0.035-0.473,0.061-0.709,0.061c-0.225,0-0.414-0.014-0.639-0.061l-1.75-3.074
			h-1.041v3.074c-0.201,0.035-0.402,0.061-0.603,0.061c-0.188,0-0.392-0.023-0.58-0.061v-7.994c0.58-0.034,1.276-0.059,1.951-0.059
			c1.668,0,3.004,0.508,3.004,2.424c0,1.053-0.579,1.976-1.55,2.33L244.777,225.229z M241.538,218.1c-0.271,0-0.697,0-0.897,0.012
			v3.109h0.805c1.111,0,1.772-0.496,1.772-1.619C243.218,218.514,242.591,218.1,241.538,218.1z"/>
	</g>
	
		<line fill="none" stroke="#7D7D98" stroke-width="1.701" stroke-dasharray="5.047,3.346" x1="251.145" y1="227.648" x2="283.5" y2="227.648"/>
	<g>
		<path fill="#1A2A4F" d="M102.4,237.449h-4.697v-8.058h4.519c0.047,0.143,0.059,0.345,0.059,0.488c0,0.154-0.012,0.334-0.059,0.488
			h-3.326v2.433h2.873c0.047,0.142,0.06,0.346,0.06,0.488c0,0.155-0.012,0.333-0.06,0.489h-2.873v2.693h3.505
			c0.047,0.144,0.059,0.346,0.059,0.489C102.459,237.115,102.447,237.295,102.4,237.449z"/>
		<path fill="#1A2A4F" d="M108.708,236.746c-0.691,0.549-1.645,0.763-2.98,0.763c-0.548,0-1.574-0.023-1.932-0.06v-8.058
			c0.549-0.036,1.288-0.061,2.123-0.061c2.766,0,4.029,1.145,4.029,4.042C109.948,234.934,109.519,236.091,108.708,236.746z
			 M105.906,230.262c-0.238,0-0.667,0.011-0.917,0.023v6.247c0.214,0.023,0.608,0.034,1.025,0.034c0.906,0,1.501-0.249,1.919-0.69
			c0.56-0.585,0.763-1.525,0.763-2.526C108.696,231.31,108.112,230.262,105.906,230.262z"/>
		<path fill="#1A2A4F" d="M117.115,234.434c0,2.074-0.716,3.136-2.909,3.136c-2.289,0-2.873-1.014-2.873-3.136v-5.042
			c0.19-0.024,0.381-0.061,0.572-0.061c0.214,0,0.405,0.024,0.62,0.061v5.244c0,1.157,0.25,2.015,1.668,2.015
			s1.765-0.857,1.765-2.015v-5.244c0.19-0.024,0.357-0.061,0.548-0.061c0.215,0,0.394,0.024,0.608,0.061V234.434z"/>
		<path fill="#1A2A4F" d="M124.092,230.57c-0.489-0.154-1.205-0.285-1.789-0.285c-1.812,0-2.551,1.358-2.551,3.171
			c0,0.882,0.203,1.704,0.644,2.265c0.442,0.561,1.074,0.822,1.956,0.822c0.632,0,1.228-0.131,1.68-0.262
			c0.047,0.131,0.083,0.31,0.083,0.441c0,0.167-0.011,0.31-0.047,0.465c-0.621,0.238-1.359,0.382-1.967,0.382
			c-2.527,0-3.6-1.742-3.6-4.078c0-1.286,0.381-2.443,1.109-3.206c0.62-0.644,1.526-1.014,2.587-1.014
			c0.715,0,1.442,0.18,1.895,0.382c0.048,0.154,0.06,0.25,0.06,0.417S124.14,230.416,124.092,230.57z"/>
		<path fill="#1A2A4F" d="M130.007,235.542h-3.147l-0.621,1.907c-0.154,0.023-0.405,0.06-0.643,0.06c-0.167,0-0.405-0.023-0.56-0.06
			l2.776-8.058c0.145-0.036,0.442-0.061,0.596-0.061c0.167,0,0.442,0.036,0.548,0.061l2.98,8.058c-0.107,0.023-0.394,0.06-0.62,0.06
			c-0.178,0-0.465-0.012-0.643-0.06L130.007,235.542z M127.169,234.564h2.492l-0.954-2.741c-0.154-0.454-0.25-0.822-0.31-1.145
			h-0.012c-0.06,0.322-0.179,0.703-0.323,1.156L127.169,234.564z"/>
		<path fill="#1A2A4F" d="M137.198,230.368h-2.409v7.081c-0.203,0.036-0.394,0.06-0.608,0.06c-0.202,0-0.394-0.023-0.583-0.06
			v-7.081h-2.289c-0.047-0.154-0.06-0.334-0.06-0.488c0-0.144,0.013-0.346,0.06-0.488h5.889c0.047,0.143,0.059,0.345,0.059,0.488
			C137.257,230.034,137.246,230.214,137.198,230.368z"/>
		<path fill="#1A2A4F" d="M139.548,237.449c-0.191,0.023-0.381,0.06-0.572,0.06c-0.214,0-0.405-0.023-0.62-0.06v-8.058
			c0.203-0.036,0.393-0.061,0.607-0.061c0.203,0,0.394,0.024,0.584,0.061V237.449z"/>
		<path fill="#1A2A4F" d="M144.223,237.569c-1.956,0-3.195-1.276-3.195-4.138c0-2.789,1.263-4.16,3.218-4.16
			c1.956,0,3.171,1.371,3.171,4.16C147.417,236.293,146.177,237.569,144.223,237.569z M144.234,230.262
			c-1.217,0-1.955,0.822-1.955,3.146c0,2.288,0.727,3.171,1.943,3.171c1.215,0,1.942-0.883,1.942-3.171
			C146.165,231.084,145.45,230.262,144.234,230.262z"/>
		<path fill="#1A2A4F" d="M155.049,237.449c-0.096,0.036-0.299,0.048-0.452,0.048c-0.145,0-0.287-0.012-0.418-0.048l-4.243-6.02
			v6.02c-0.108,0.036-0.394,0.06-0.573,0.06c-0.143,0-0.369-0.012-0.524-0.06v-8.058c0.095-0.024,0.346-0.049,0.465-0.049
			c0.154,0,0.356,0.013,0.476,0.049l4.172,5.924v-5.924c0.131-0.036,0.357-0.061,0.513-0.061c0.143,0,0.465,0.024,0.584,0.061
			V237.449z"/>
		<path fill="#1A2A4F" d="M162.038,234.982c-0.429,0.477-0.894,0.978-1.395,1.478h3.374c0.036,0.131,0.059,0.381,0.059,0.524
			c0,0.131-0.011,0.334-0.059,0.465h-4.675c-0.083-0.227-0.142-0.441-0.142-0.68c0-0.096,0.011-0.203,0.024-0.298
			c0.632-0.632,1.346-1.382,1.955-2.062c1.119-1.253,1.715-1.979,1.715-2.934c0-0.857-0.57-1.287-1.334-1.287
			c-0.668,0-1.395,0.203-1.943,0.489c-0.036-0.167-0.061-0.334-0.061-0.501c0-0.119,0.024-0.298,0.061-0.405
			c0.549-0.298,1.312-0.501,2.122-0.501c1.334,0,2.384,0.799,2.384,2.11C164.124,232.598,163.396,233.468,162.038,234.982z"/>
		<path fill="#1A2A4F" d="M168.191,237.569c-1.752,0-2.671-1.36-2.671-4.149c0-2.754,0.919-4.148,2.671-4.148
			c1.751,0,2.67,1.358,2.67,4.148C170.861,236.209,169.942,237.569,168.191,237.569z M168.191,230.201
			c-1.145,0-1.418,1.336-1.418,3.207c0,1.883,0.285,3.23,1.418,3.23c1.169,0,1.42-1.348,1.42-3.23
			C169.611,231.524,169.336,230.201,168.191,230.201z"/>
		<path fill="#1A2A4F" d="M176.051,237.449c-0.191,0.036-0.395,0.06-0.596,0.06c-0.203,0-0.406-0.023-0.596-0.06v-6.771
			l-2.016,1.299c-0.227-0.214-0.43-0.561-0.502-0.858l2.779-1.728c0.131-0.036,0.284-0.061,0.439-0.061
			c0.168,0,0.335,0.024,0.49,0.061V237.449z"/>
		<path fill="#1A2A4F" d="M181.154,237.569c-2.146,0-2.695-1.717-2.695-3.589c0-2.266,0.883-4.709,3.553-4.709
			c0.299,0,0.705,0.06,0.883,0.12c0.036,0.095,0.059,0.285,0.059,0.381c0,0.131-0.022,0.346-0.059,0.477
			c-0.226-0.06-0.549-0.095-0.835-0.095c-1.479,0-2.133,1.155-2.3,2.849c0.439-0.405,1.049-0.608,1.668-0.608
			c1.492,0,2.241,0.989,2.241,2.408C183.669,236.389,182.775,237.569,181.154,237.569z M181.238,233.277
			c-0.585,0-1.156,0.286-1.526,0.691c0,0.095-0.011,0.226-0.011,0.321c0.011,1.169,0.226,2.396,1.465,2.396
			c0.977,0,1.264-0.941,1.264-1.788C182.43,234.063,182.179,233.277,181.238,233.277z"/>
		<path fill="#1A2A4F" d="M185.567,237.569c-0.153,0.034-0.356,0.059-0.535,0.059c-0.191,0-0.431-0.024-0.596-0.059l2.489-8.298
			c0.181-0.036,0.37-0.06,0.562-0.06c0.189,0,0.381,0.023,0.56,0.06L185.567,237.569z"/>
		<path fill="#1A2A4F" d="M192.781,237.449c-0.191,0.036-0.393,0.06-0.596,0.06s-0.406-0.023-0.596-0.06v-6.771l-2.016,1.299
			c-0.227-0.214-0.43-0.561-0.502-0.858l2.779-1.728c0.131-0.036,0.286-0.061,0.439-0.061c0.167,0,0.334,0.024,0.49,0.061V237.449z"
			/>
		<path fill="#1A2A4F" d="M200.329,230.285l-3.302,7.164c-0.189,0.036-0.418,0.06-0.633,0.06c-0.178,0-0.417-0.023-0.606-0.06
			l3.36-7.081h-3.885c-0.035-0.154-0.061-0.345-0.061-0.524c0-0.19,0.025-0.31,0.061-0.452h5.077c0.036,0.143,0.05,0.25,0.05,0.452
			C200.391,229.998,200.354,230.237,200.329,230.285z"/>
		<path fill="#1A2A4F" d="M202.214,238.784c-0.272-0.036-0.451-0.167-0.607-0.381c1.167-1.383,1.609-2.944,1.609-4.519
			c0-1.598-0.442-3.123-1.609-4.506c0.156-0.215,0.357-0.346,0.633-0.382c1.381,1.288,2.097,3.1,2.097,4.923
			C204.336,235.745,203.598,237.497,202.214,238.784z"/>
	</g>
</g>
</svg>
