<?xml version="1.0" encoding="utf-8"?>
<!-- Generator: Adobe Illustrator 16.0.0, SVG Export Plug-In . SVG Version: 6.00 Build 0)  -->
<!DOCTYPE svg PUBLIC "-//W3C//DTD SVG 1.0//EN" "http://www.w3.org/TR/2001/REC-SVG-20010904/DTD/svg10.dtd">
<svg version="1.0" xmlns="http://www.w3.org/2000/svg" xmlns:xlink="http://www.w3.org/1999/xlink" x="0px" y="0px" width="300px"
	 height="300px" viewBox="0 0 300 300" style="enable-background:new 0 0 300 300;" xml:space="preserve">
<g id="Globe">
	<text transform="matrix(1 0 0 1 216.5303 175.6328)" style="fill:#FFFFFF; font-family:'FSMatthew-Bold'; font-size:25.4934;"> </text>
	<text transform="matrix(1 0 0 1 170.3955 199.5322)" style="fill:#7AC6BA; font-family:'FSMatthew-Bold'; font-size:33.4602;"> </text>
	<text transform="matrix(1 0 0 1 281.5303 199.5322)" style="fill:#7AC6BA; font-family:'FSMatthew-Bold'; font-size:19.1201;"> </text>
	<text transform="matrix(1 0 0 1 233.2021 225.0254)" style="fill:#FFFFFF; font-family:'FSMatthew-Bold'; font-size:26.2901;"> </text>
	<text transform="matrix(1 0 0 1 282.5977 225.0254)" style="fill:#FFFFFF; font-family:'FSMatthew-Light'; font-size:26.2901;"> </text>
	<line style="fill:none;stroke:#BBA461;stroke-width:4.747;" x1="15.977" y1="167.637" x2="74.24" y2="167.637"/>
	<line style="fill:none;stroke:#BBA461;stroke-width:4.747;" x1="223.286" y1="167.637" x2="281.549" y2="167.637"/>
	<path style="fill:#BBA461;" d="M172.941,122.161c-3.219,7.589-7.715,14.338-13.431,20.33c9.813-2.295,18.076-7.112,24.902-14.429
		C180.76,125.721,176.98,123.744,172.941,122.161 M112.401,128.056c3.332,3.617,7.082,6.652,11.324,9.108
		c4.042,2.338,11.694,5.312,13.596,5.282c-5.761-5.966-10.248-12.718-13.458-20.287C119.817,123.75,116.047,125.72,112.401,128.056
		 M137.881,50.83c-10.061,2.198-18.521,7.062-25.491,14.536c3.739,2.383,7.564,4.39,11.66,5.968
		c1.677-3.833,3.632-7.453,5.968-10.872C132.355,57.041,134.966,53.836,137.881,50.83 M158.914,50.819
		c5.879,6.02,10.507,12.824,13.815,20.461c1.847-0.366,10.528-4.83,11.628-5.98C177.427,57.886,168.975,53.023,158.914,50.819
		 M167.851,73.055c-3.876-8.734-9.418-16.152-16.802-22.388v25.217C156.778,75.664,162.328,74.711,167.851,73.055 M145.769,50.669
		c-3.735,3.105-6.932,6.527-9.755,10.286c-2.816,3.75-5.152,7.766-7.025,12.042c2.694,1.262,14.715,3.254,16.78,2.791V50.669z
		 M151.051,117.544v25.728c7.522-6.367,13.139-13.939,16.991-22.841C162.463,118.736,156.845,117.766,151.051,117.544
		 M145.76,143.275v-25.732c-5.81,0.228-11.438,1.19-16.997,2.893C132.63,129.351,138.241,136.917,145.76,143.275 M145.765,80.973
		c-6.382-0.24-12.568-1.286-18.642-3.159c-1.802,5.334-2.818,10.749-3.095,16.329c0.218,0.014,0.358,0.031,0.498,0.031
		c6.916,0.001,13.83-0.002,20.745,0.01c0.433,0.001,0.537-0.135,0.535-0.537c-0.013-4.049-0.008-8.099-0.009-12.149
		C145.797,81.345,145.779,81.192,145.765,80.973 M151.008,81.133v0.454c0,3.997,0.01,7.995-0.01,11.993
		c-0.003,0.486,0.144,0.607,0.627,0.605c6.846-0.015,13.688-0.01,20.532-0.01h0.625c-0.292-5.634-1.295-11.054-3.055-16.217
		c-3.119,0.693-6.146,1.495-9.224,2.018C157.406,80.5,154.257,80.749,151.008,81.133 M151.041,112.455
		c6.42,0.237,12.658,1.302,18.797,3.205c1.76-5.362,2.732-10.787,2.963-16.376c-0.221-0.013-0.376-0.029-0.532-0.029
		c-6.9-0.001-13.801,0.003-20.699-0.011c-0.446,0-0.572,0.125-0.57,0.557c0.016,4.035,0.009,8.069,0.011,12.102
		C151.01,112.071,151.029,112.242,151.041,112.455 M126.969,115.662c6.141-1.912,12.382-2.966,18.829-3.211v-0.606
		c0-4-0.009-7.999,0.012-11.998c0.003-0.49-0.15-0.604-0.632-0.604c-6.864,0.014-13.729,0.01-20.594,0.011
		c-0.173,0-0.347,0.013-0.581,0.024C124.237,104.876,125.208,110.301,126.969,115.662 M178.014,99.283
		c-0.229,6.185-1.321,12.211-3.268,18.1c4.581,1.827,8.87,4.024,12.935,6.693c5.394-7.465,8.36-15.69,8.913-24.793H178.014z
		 M100.209,99.286c0.56,9.118,3.528,17.352,8.917,24.793c4.099-2.704,8.401-4.884,12.935-6.701
		c-1.962-5.914-3.037-11.93-3.271-18.092H100.209z M174.639,76.186c0.003,0.015,0.003,0.069,0.019,0.117
		c1.903,5.659,3.022,11.46,3.3,17.412c0.019,0.416,0.205,0.467,0.565,0.467c5.847-0.008,11.693-0.006,17.54-0.007
		c0.154,0,0.31-0.018,0.534-0.033c-0.562-9.121-3.529-17.354-8.857-24.708c-2.192,1.237-4.266,2.493-6.421,3.603
		C179.149,74.153,176.904,75.125,174.639,76.186 M109.123,69.347c-5.396,7.479-8.363,15.701-8.914,24.829h0.678
		c5.757,0,11.514-0.009,17.272,0.014c0.549,0.001,0.677-0.162,0.703-0.667c0.223-4.542,0.918-9.017,2.141-13.409
		c0.372-1.334,0.773-2.66,1.17-4.023C117.604,74.277,113.257,72.068,109.123,69.347 M201.886,96.713
		c-0.055,28.728-23.758,52.082-53.377,52.146c-29.511,0.063-53.399-23.109-53.588-51.938c-0.188-28.668,23.75-52.267,53.215-52.364
		C177.902,44.459,201.82,67.823,201.886,96.713"/>
</g>
<g id="Text" style="display:none;">
	<text transform="matrix(1 0 0 1 80.2725 175.6328)" style="display:inline;"><tspan x="0" y="0" style="fill:#1A2A4F; font-family:'FSMatthew-Bold'; font-size:28.6801;">W</tspan><tspan x="25.267" y="0" style="fill:#1A2A4F; font-family:'FSMatthew-Bold'; font-size:28.6801;">e </tspan><tspan x="47.464" y="0" style="fill:#1A2A4F; font-family:'FSMatthew-Bold'; font-size:28.6801;">r</tspan><tspan x="58.42" y="0" style="fill:#1A2A4F; font-family:'FSMatthew-Bold'; font-size:28.6801;">ec</tspan><tspan x="87.788" y="0" style="fill:#1A2A4F; font-family:'FSMatthew-Bold'; font-size:28.6801;">r</tspan><tspan x="99.288" y="0" style="fill:#1A2A4F; font-family:'FSMatthew-Bold'; font-size:28.6801;">u</tspan><tspan x="115.837" y="0" style="fill:#1A2A4F; font-family:'FSMatthew-Bold'; font-size:28.6801;">i</tspan><tspan x="124.039" y="0" style="fill:#1A2A4F; font-family:'FSMatthew-Bold'; font-size:28.6801;">t</tspan></text>
	<text transform="matrix(1 0 0 1 15.2852 199.5195)" style="display:inline;"><tspan x="0" y="0" style="fill:#7AC6BA; font-family:'FSMatthew-Bold'; font-size:25.4934;">in</tspan><tspan x="22.332" y="0" style="fill:#7AC6BA; font-family:'FSMatthew-Bold'; font-size:25.4934;">t</tspan><tspan x="33.217" y="0" style="fill:#7AC6BA; font-family:'FSMatthew-Bold'; font-size:25.4934;">ern</tspan><tspan x="72.272" y="0" style="fill:#7AC6BA; font-family:'FSMatthew-Bold'; font-size:25.4934;">a</tspan><tspan x="86.166" y="0" style="fill:#7AC6BA; font-family:'FSMatthew-Bold'; font-size:25.4934;">tion</tspan><tspan x="134.118" y="0" style="fill:#7AC6BA; font-family:'FSMatthew-Bold'; font-size:25.4934;">a</tspan><tspan x="148.062" y="0" style="fill:#7AC6BA; font-family:'FSMatthew-Bold'; font-size:25.4934;">l</tspan></text>
	<text transform="matrix(1 0 0 1 178.2598 199.5322)" style="display:inline;"><tspan x="0" y="0" style="fill:#7AC6BA; font-family:'FSMatthew-Bold'; font-size:25.4934;">s</tspan><tspan x="11.37" y="0" style="fill:#7AC6BA; font-family:'FSMatthew-Bold'; font-size:25.4934;">t</tspan><tspan x="22.229" y="0" style="fill:#7AC6BA; font-family:'FSMatthew-Bold'; font-size:25.4934;">u</tspan><tspan x="36.965" y="0" style="fill:#7AC6BA; font-family:'FSMatthew-Bold'; font-size:25.4934;">d</tspan><tspan x="51.572" y="0" style="fill:#7AC6BA; font-family:'FSMatthew-Bold'; font-size:25.4934;">en</tspan><tspan x="80.354" y="0" style="fill:#7AC6BA; font-family:'FSMatthew-Bold'; font-size:25.4934;">t</tspan><tspan x="91.8" y="0" style="fill:#7AC6BA; font-family:'FSMatthew-Bold'; font-size:25.4934;">s</tspan></text>
	<text transform="matrix(1 0 0 1 14.2051 225.0254)" style="display:inline;"><tspan x="0" y="0" style="fill:#1A2A4F; font-family:'FSMatthew-Bold'; font-size:26.2901;">F</tspan><tspan x="14.275" y="0" style="fill:#1A2A4F; font-family:'FSMatthew-Bold'; font-size:26.2901;">R</tspan><tspan x="29.997" y="0" style="fill:#1A2A4F; font-family:'FSMatthew-Bold'; font-size:26.2901;">O</tspan><tspan x="47.453" y="0" style="fill:#1A2A4F; font-family:'FSMatthew-Bold'; font-size:26.2901;">M</tspan><tspan x="69.432" y="0" style="fill:#1A2A4F; font-family:'FSMatthew-Bold'; font-size:26.2901;"> MOR</tspan><tspan x="131.081" y="0" style="fill:#1A2A4F; font-family:'FSMatthew-Bold'; font-size:26.2901;">E</tspan><tspan x="145.593" y="0" style="fill:#1A2A4F; font-family:'FSMatthew-Bold'; font-size:26.2901; letter-spacing:-1;"> </tspan><tspan x="150.482" y="0" style="fill:#1A2A4F; font-family:'FSMatthew-Bold'; font-size:26.2901;">THA</tspan><tspan x="200.539" y="0" style="fill:#1A2A4F; font-family:'FSMatthew-Bold'; font-size:26.2901;">N</tspan></text>
	
		<text transform="matrix(1 0 0 1 239.3799 225.0254)" style="display:inline;fill:#C2AD70; font-family:'FSMatthew-Bold'; font-size:26.2901;">100</text>
	<text transform="matrix(1 0 0 1 16.0146 247.9258)" style="display:inline;"><tspan x="0" y="0" style="fill:#1A2A4F; font-family:'FSMatthew-Bold'; font-size:25.4934;">DI</tspan><tspan x="24.907" y="0" style="fill:#1A2A4F; font-family:'FSMatthew-Bold'; font-size:25.4934;">F</tspan><tspan x="38.469" y="0" style="fill:#1A2A4F; font-family:'FSMatthew-Bold'; font-size:25.4934;">F</tspan><tspan x="52.312" y="0" style="fill:#1A2A4F; font-family:'FSMatthew-Bold'; font-size:25.4934;">ER</tspan><tspan x="81.884" y="0" style="fill:#1A2A4F; font-family:'FSMatthew-Bold'; font-size:25.4934;">EN</tspan><tspan x="113.878" y="0" style="fill:#1A2A4F; font-family:'FSMatthew-Bold'; font-size:25.4934; letter-spacing:-1;">T</tspan><tspan x="126.803" y="0" style="fill:#1A2A4F; font-family:'FSMatthew-Bold'; font-size:25.4934;"> </tspan><tspan x="132.793" y="0" style="fill:#1A2A4F; font-family:'FSMatthew-Bold'; font-size:25.4934;">C</tspan><tspan x="147.528" y="0" style="fill:#1A2A4F; font-family:'FSMatthew-Bold'; font-size:25.4934;">O</tspan><tspan x="164.456" y="0" style="fill:#1A2A4F; font-family:'FSMatthew-Bold'; font-size:25.4934;">U</tspan><tspan x="181.435" y="0" style="fill:#1A2A4F; font-family:'FSMatthew-Bold'; font-size:25.4934;">NT</tspan><tspan x="213.53" y="0" style="fill:#1A2A4F; font-family:'FSMatthew-Bold'; font-size:25.4934;">R</tspan><tspan x="229.03" y="0" style="fill:#1A2A4F; font-family:'FSMatthew-Bold'; font-size:25.4934;">IE</tspan><tspan x="250.955" y="0" style="fill:#1A2A4F; font-family:'FSMatthew-Bold'; font-size:25.4934;">S</tspan></text>
</g>
<g id="Text_Flat">
	<g>
		<path style="fill:#1A2A4F;" d="M99.779,175.633c-0.373,0.058-1.119,0.144-1.922,0.144c-0.774,0-1.549-0.086-2.065-0.144
			l-2.353-9.581c-0.258-1.004-0.401-2.095-0.516-3.041h-0.029c-0.086,0.946-0.315,2.065-0.545,3.041l-2.324,9.581
			c-0.516,0.058-1.32,0.144-2.065,0.144c-0.717,0-1.578-0.086-1.979-0.144l-4.332-14.2c-0.459-1.491-0.746-3.27-0.746-5.192
			c0.603-0.114,1.349-0.143,1.979-0.143c1.062,0,1.578,0.057,2.037,0.143c0,1.865,0.258,3.414,0.602,4.733l1.75,6.627
			c0.258,1.032,0.516,2.381,0.66,3.672h0.058c0.144-1.291,0.373-2.64,0.631-3.7l2.697-11.332c0.516-0.086,1.004-0.143,1.52-0.143
			c0.545,0,1.033,0.057,1.578,0.143l2.754,11.36c0.258,1.032,0.545,2.381,0.688,3.672h0.057c0.144-1.291,0.402-2.64,0.688-3.7
			l1.836-6.599c0.373-1.319,0.66-2.868,0.66-4.733c0.459-0.086,1.291-0.143,2.152-0.143c0.574,0,1.348,0.057,1.893,0.143
			c0,2.123-0.315,3.729-0.774,5.192L99.779,175.633z"/>
		<path style="fill:#1A2A4F;" d="M119.71,169.551h-9.064c0.057,1.865,1.348,3.242,3.844,3.242c1.348,0,2.725-0.172,3.901-0.488
			c0.172,0.775,0.287,1.636,0.287,2.41c0,0.115,0,0.258-0.029,0.574c-1.463,0.43-2.983,0.631-4.475,0.631
			c-5.451,0-7.717-3.127-7.717-7.688c0-3.987,2.237-7.831,7.085-7.831c4.59,0,6.254,3.385,6.254,7.114
			C119.796,168.031,119.796,168.806,119.71,169.551z M115.837,166.711c0-1.807-0.488-3.327-2.352-3.327
			c-1.779,0-2.726,1.405-2.84,3.327H115.837z"/>
		<path style="fill:#1A2A4F;" d="M138.007,163.728c-1.492,0.229-3.099,0.746-4.533,1.492v10.413
			c-0.402,0.086-1.262,0.144-1.951,0.144s-1.692-0.058-2.008-0.144v-14.945c0.43-0.058,1.147-0.144,1.721-0.144
			c0.488,0,1.263,0.058,1.664,0.144l0.229,1.836c1.062-0.947,2.983-1.979,4.848-2.123c0.057,0.229,0.115,1.062,0.115,1.664
			C138.093,162.638,138.064,163.326,138.007,163.728z"/>
		<path style="fill:#1A2A4F;" d="M152.863,169.551h-9.064c0.057,1.865,1.348,3.242,3.844,3.242c1.348,0,2.725-0.172,3.901-0.488
			c0.172,0.775,0.287,1.636,0.287,2.41c0,0.115,0,0.258-0.028,0.574c-1.464,0.43-2.984,0.631-4.476,0.631
			c-5.451,0-7.717-3.127-7.717-7.688c0-3.987,2.237-7.831,7.085-7.831c4.589,0,6.253,3.385,6.253,7.114
			C152.949,168.031,152.949,168.806,152.863,169.551z M148.991,166.711c0-1.807-0.488-3.327-2.352-3.327
			c-1.779,0-2.726,1.405-2.84,3.327H148.991z"/>
		<path style="fill:#1A2A4F;" d="M166.543,162.294c0,0.631-0.086,1.319-0.287,1.922c-0.946-0.373-2.18-0.603-3.356-0.603
			c-2.237,0-3.758,1.435-3.758,4.647c0,2.811,1.291,4.446,3.787,4.446c1.291,0,2.524-0.229,3.442-0.545
			c0.172,0.631,0.258,1.405,0.258,2.008c0,0.401,0,0.688-0.028,0.946c-1.147,0.517-2.668,0.804-4.103,0.804
			c-4.963,0-7.43-2.897-7.43-7.603c0-4.876,2.582-7.917,7.602-7.917c1.406,0,2.783,0.287,3.758,0.746
			C166.515,161.462,166.543,161.863,166.543,162.294z"/>
		<path style="fill:#1A2A4F;" d="M178.33,163.728c-1.491,0.229-3.098,0.746-4.532,1.492v10.413c-0.401,0.086-1.263,0.144-1.95,0.144
			c-0.689,0-1.693-0.058-2.009-0.144v-14.945c0.431-0.058,1.147-0.144,1.722-0.144c0.487,0,1.262,0.058,1.664,0.144l0.229,1.836
			c1.062-0.947,2.984-1.979,4.849-2.123c0.058,0.229,0.114,1.062,0.114,1.664C178.416,162.638,178.388,163.326,178.33,163.728z"/>
		<path style="fill:#1A2A4F;" d="M194.133,169.867c0,4.273-2.008,6.053-6.482,6.053c-4.36,0-6.369-1.779-6.369-6.053v-9.18
			c0.402-0.058,1.177-0.144,1.951-0.144c0.688,0,1.549,0.058,2.008,0.144v9.15c0,2.238,0.66,3.041,2.467,3.041
			c1.836,0,2.468-0.803,2.468-3.041v-9.15c0.401-0.086,1.291-0.144,2.008-0.144s1.664,0.086,1.95,0.144V169.867z"/>
		<path style="fill:#1A2A4F;" d="M200.068,159.052c-1.205,0-2.181-0.976-2.181-2.18c0-1.205,0.976-2.181,2.181-2.181
			s2.18,0.976,2.18,2.181C202.248,158.076,201.273,159.052,200.068,159.052z M202.048,175.633c-0.517,0.115-1.578,0.144-2.037,0.144
			c-0.688,0-1.435-0.058-1.922-0.144v-14.945c0.631-0.086,1.405-0.144,1.922-0.144c0.688,0,1.405,0.058,2.037,0.144V175.633z"/>
		<path style="fill:#1A2A4F;" d="M215.557,175.346c-0.86,0.345-1.894,0.574-3.557,0.574c-3.242,0-4.849-1.578-4.849-4.733v-7.545
			h-2.467c-0.115-0.43-0.201-1.147-0.201-1.521c0-0.344,0.086-0.975,0.173-1.262l2.495-0.172v-3.845
			c0.315-0.057,1.319-0.114,1.979-0.114c0.717,0,1.606,0.058,1.979,0.114v3.845h4.131c0.114,0.401,0.172,0.975,0.172,1.291
			c0,0.344-0.028,1.262-0.144,1.663h-4.159v6.971c0,1.435,0.573,2.065,1.979,2.065c0.774,0,1.721-0.114,2.381-0.344
			c0.114,0.373,0.258,1.09,0.258,1.75C215.729,174.428,215.672,175.03,215.557,175.346z"/>
	</g>
	<g>
		<path style="fill:#7AC6BA;" d="M18.804,184.782c-1.071,0-1.938-0.867-1.938-1.938c0-1.07,0.867-1.938,1.938-1.938
			s1.938,0.867,1.938,1.938C20.742,183.915,19.875,184.782,18.804,184.782z M20.563,199.52c-0.459,0.102-1.402,0.128-1.81,0.128
			c-0.612,0-1.275-0.052-1.708-0.128v-13.284c0.561-0.076,1.25-0.128,1.708-0.128c0.612,0,1.249,0.052,1.81,0.128V199.52z"/>
		<path style="fill:#7AC6BA;" d="M35.834,199.52c-0.408,0.102-1.275,0.128-1.683,0.128c-0.433,0-1.428-0.052-1.835-0.128v-8.72
			c0-1.377-0.714-1.964-1.861-1.964c-0.918,0-1.963,0.332-2.779,0.842v9.842c-0.586,0.102-1.402,0.128-1.861,0.128
			c-0.408,0-1.147-0.026-1.657-0.128v-13.284c0.331-0.076,1.147-0.128,1.53-0.128c0.357,0,1.096,0.052,1.479,0.128l0.179,1.173
			c1.147-0.842,2.805-1.428,4.284-1.428c2.805,0,4.207,1.733,4.207,4.641V199.52z"/>
		<path style="fill:#7AC6BA;" d="M47.612,199.265c-0.765,0.306-1.683,0.51-3.162,0.51c-2.881,0-4.309-1.402-4.309-4.207v-6.706
			h-2.193c-0.102-0.382-0.179-1.02-0.179-1.352c0-0.306,0.077-0.866,0.153-1.121l2.218-0.153v-3.417
			c0.28-0.051,1.173-0.102,1.759-0.102c0.637,0,1.428,0.051,1.759,0.102v3.417h3.671c0.102,0.357,0.153,0.867,0.153,1.147
			c0,0.306-0.026,1.122-0.127,1.479H43.66v6.196c0,1.274,0.51,1.836,1.759,1.836c0.688,0,1.53-0.103,2.116-0.307
			c0.102,0.332,0.229,0.97,0.229,1.556C47.765,198.448,47.714,198.984,47.612,199.265z"/>
		<path style="fill:#7AC6BA;" d="M61.098,194.114h-8.057c0.051,1.657,1.198,2.881,3.417,2.881c1.199,0,2.422-0.152,3.468-0.434
			c0.153,0.688,0.255,1.454,0.255,2.142c0,0.103,0,0.229-0.025,0.511c-1.3,0.382-2.652,0.561-3.978,0.561
			c-4.845,0-6.859-2.779-6.859-6.833c0-3.544,1.989-6.961,6.298-6.961c4.08,0,5.559,3.009,5.559,6.323
			C61.174,192.763,61.174,193.451,61.098,194.114z M57.656,191.59c0-1.606-0.434-2.958-2.091-2.958c-1.581,0-2.422,1.25-2.524,2.958
			H57.656z"/>
		<path style="fill:#7AC6BA;" d="M71.371,188.938c-1.326,0.203-2.753,0.662-4.028,1.325v9.256c-0.357,0.076-1.122,0.128-1.734,0.128
			s-1.504-0.052-1.785-0.128v-13.284c0.382-0.051,1.02-0.128,1.53-0.128c0.433,0,1.122,0.052,1.479,0.128l0.204,1.632
			c0.943-0.842,2.652-1.76,4.309-1.887c0.051,0.204,0.102,0.943,0.102,1.479C71.447,187.969,71.422,188.581,71.371,188.938z"/>
		<path style="fill:#7AC6BA;" d="M85.775,199.52c-0.408,0.102-1.275,0.128-1.683,0.128c-0.433,0-1.428-0.052-1.835-0.128v-8.72
			c0-1.377-0.714-1.964-1.861-1.964c-0.918,0-1.963,0.332-2.779,0.842v9.842c-0.586,0.102-1.402,0.128-1.861,0.128
			c-0.408,0-1.147-0.026-1.657-0.128v-13.284c0.331-0.076,1.147-0.128,1.53-0.128c0.357,0,1.096,0.052,1.479,0.128l0.179,1.173
			c1.147-0.842,2.805-1.428,4.284-1.428c2.805,0,4.207,1.733,4.207,4.641V199.52z"/>
		<path style="fill:#7AC6BA;" d="M99.719,195.822c0,1.097,0.026,2.346,0.026,3.697c-0.408,0.102-1.097,0.128-1.53,0.128
			c-0.484,0-1.122-0.052-1.53-0.128c-0.051-0.306-0.102-0.842-0.127-1.173h-0.051c-0.867,0.893-2.346,1.428-3.697,1.428
			c-2.55,0-4.386-1.581-4.386-4.207c0-4.079,3.621-4.768,6.655-4.768c0.204,0,0.688,0.025,1.096,0.051
			c0-0.153-0.025-0.484-0.051-0.612c-0.178-1.045-0.867-1.479-2.346-1.479c-1.147,0-2.753,0.229-3.978,0.535
			c-0.127-0.356-0.204-0.969-0.204-1.428c0-0.383,0.051-0.969,0.153-1.224c1.428-0.434,3.187-0.663,4.641-0.663
			c3.187,0,5.329,1.479,5.329,4.793V195.822z M96.201,193.298c-0.306-0.025-0.714-0.051-1.071-0.051
			c-2.295,0-3.187,0.918-3.187,2.065c0,0.994,0.663,1.683,1.81,1.683c0.841,0,1.785-0.408,2.448-0.994V193.298z"/>
		<path style="fill:#7AC6BA;" d="M111.446,199.265c-0.765,0.306-1.683,0.51-3.162,0.51c-2.881,0-4.309-1.402-4.309-4.207v-6.706
			h-2.193c-0.102-0.382-0.179-1.02-0.179-1.352c0-0.306,0.077-0.866,0.153-1.121l2.218-0.153v-3.417
			c0.28-0.051,1.173-0.102,1.759-0.102c0.637,0,1.428,0.051,1.759,0.102v3.417h3.671c0.102,0.357,0.153,0.867,0.153,1.147
			c0,0.306-0.026,1.122-0.127,1.479h-3.697v6.196c0,1.274,0.51,1.836,1.759,1.836c0.688,0,1.53-0.103,2.116-0.307
			c0.102,0.332,0.229,0.97,0.229,1.556C111.599,198.448,111.548,198.984,111.446,199.265z"/>
		<path style="fill:#7AC6BA;" d="M116.11,184.782c-1.071,0-1.938-0.867-1.938-1.938c0-1.07,0.867-1.938,1.938-1.938
			s1.938,0.867,1.938,1.938C118.048,183.915,117.181,184.782,116.11,184.782z M117.869,199.52c-0.459,0.102-1.402,0.128-1.81,0.128
			c-0.612,0-1.275-0.052-1.708-0.128v-13.284c0.561-0.076,1.25-0.128,1.708-0.128c0.612,0,1.249,0.052,1.81,0.128V199.52z"/>
		<path style="fill:#7AC6BA;" d="M126.996,199.774c-3.85,0-6.298-2.474-6.298-6.858c0-4.36,2.422-6.936,6.298-6.936
			s6.298,2.55,6.298,6.91C133.293,197.25,130.871,199.774,126.996,199.774z M126.996,188.734c-1.657,0-2.677,1.122-2.677,4.156
			s1.02,4.13,2.677,4.13s2.677-1.096,2.677-4.13C129.673,189.83,128.653,188.734,126.996,188.734z"/>
		<path style="fill:#7AC6BA;" d="M147.621,199.52c-0.408,0.102-1.275,0.128-1.683,0.128c-0.433,0-1.428-0.052-1.835-0.128v-8.72
			c0-1.377-0.714-1.964-1.861-1.964c-0.918,0-1.963,0.332-2.779,0.842v9.842c-0.586,0.102-1.402,0.128-1.861,0.128
			c-0.408,0-1.147-0.026-1.657-0.128v-13.284c0.331-0.076,1.147-0.128,1.53-0.128c0.357,0,1.096,0.052,1.479,0.128l0.179,1.173
			c1.147-0.842,2.805-1.428,4.284-1.428c2.805,0,4.207,1.733,4.207,4.641V199.52z"/>
		<path style="fill:#7AC6BA;" d="M161.565,195.822c0,1.097,0.025,2.346,0.025,3.697c-0.408,0.102-1.097,0.128-1.53,0.128
			c-0.484,0-1.122-0.052-1.529-0.128c-0.052-0.306-0.103-0.842-0.128-1.173h-0.051c-0.867,0.893-2.346,1.428-3.697,1.428
			c-2.55,0-4.386-1.581-4.386-4.207c0-4.079,3.621-4.768,6.655-4.768c0.204,0,0.688,0.025,1.096,0.051
			c0-0.153-0.025-0.484-0.051-0.612c-0.179-1.045-0.866-1.479-2.346-1.479c-1.147,0-2.753,0.229-3.978,0.535
			c-0.127-0.356-0.204-0.969-0.204-1.428c0-0.383,0.052-0.969,0.153-1.224c1.428-0.434,3.188-0.663,4.641-0.663
			c3.187,0,5.329,1.479,5.329,4.793V195.822z M158.047,193.298c-0.307-0.025-0.714-0.051-1.071-0.051
			c-2.295,0-3.187,0.918-3.187,2.065c0,0.994,0.662,1.683,1.81,1.683c0.842,0,1.785-0.408,2.448-0.994V193.298z"/>
		<path style="fill:#7AC6BA;" d="M168.498,199.52c-0.459,0.102-1.402,0.128-1.811,0.128c-0.611,0-1.274-0.052-1.708-0.128v-18.588
			c0.561-0.076,1.249-0.127,1.708-0.127c0.612,0,1.326,0.051,1.811,0.127V199.52z"/>
	</g>
	<g>
		<path style="fill:#7AC6BA;" d="M183.768,199.787c-1.505,0-3.086-0.229-4.31-0.638c-0.076-0.382-0.102-0.866-0.102-1.377
			c0-0.407,0.102-0.994,0.204-1.351c1.173,0.407,2.855,0.688,3.85,0.688c1.377,0,2.167-0.459,2.167-1.402
			c0-0.816-0.637-1.199-2.32-1.734c-2.677-0.841-3.926-2.091-3.926-4.028c0-2.881,2.651-3.952,5.176-3.952
			c1.173,0,2.473,0.204,3.365,0.484c0.103,0.383,0.153,0.918,0.153,1.224c0,0.332-0.103,1.021-0.229,1.453
			c-0.867-0.255-2.065-0.458-3.06-0.458c-1.224,0-2.065,0.306-2.065,1.07c0,0.816,0.943,1.147,2.422,1.632
			c2.575,0.842,3.8,1.912,3.8,3.927C188.893,198.436,186.394,199.787,183.768,199.787z"/>
		<path style="fill:#7AC6BA;" d="M199.625,199.277c-0.765,0.306-1.683,0.51-3.162,0.51c-2.881,0-4.309-1.402-4.309-4.207v-6.706
			h-2.193c-0.102-0.382-0.178-1.02-0.178-1.352c0-0.306,0.076-0.866,0.152-1.121l2.219-0.153v-3.417
			c0.28-0.051,1.173-0.102,1.759-0.102c0.638,0,1.429,0.051,1.76,0.102v3.417h3.672c0.102,0.357,0.152,0.867,0.152,1.147
			c0,0.306-0.025,1.122-0.127,1.479h-3.697v6.196c0,1.274,0.51,1.836,1.759,1.836c0.688,0,1.53-0.103,2.117-0.307
			c0.102,0.332,0.229,0.97,0.229,1.556C199.778,198.461,199.727,198.997,199.625,199.277z"/>
		<path style="fill:#7AC6BA;" d="M213.442,194.407c0,3.799-1.785,5.38-5.763,5.38c-3.876,0-5.66-1.581-5.66-5.38v-8.159
			c0.356-0.051,1.045-0.128,1.733-0.128c0.612,0,1.377,0.052,1.785,0.128v8.134c0,1.988,0.586,2.702,2.192,2.702
			c1.632,0,2.192-0.714,2.192-2.702v-8.134c0.357-0.076,1.147-0.128,1.785-0.128s1.479,0.077,1.734,0.128V194.407z"/>
		<path style="fill:#7AC6BA;" d="M228.075,199.532c-0.408,0.076-1.097,0.128-1.632,0.128c-0.484,0-1.045-0.052-1.402-0.128
			l-0.102-1.173c-0.918,0.893-2.091,1.428-3.468,1.428c-3.8,0-5.431-3.034-5.431-6.681c0-3.926,1.759-7.113,5.812-7.113
			c0.995,0,2.143,0.306,2.703,0.663v-5.712c0.459-0.076,1.224-0.127,1.785-0.127c0.688,0,1.224,0.076,1.733,0.127V199.532z
			 M224.557,189.282c-0.612-0.28-1.402-0.434-2.065-0.434c-2.065,0-2.83,1.836-2.83,4.055c0,1.861,0.459,3.978,2.524,3.978
			c0.994,0,1.759-0.408,2.371-0.918V189.282z"/>
		<path style="fill:#7AC6BA;" d="M242.428,194.127h-8.058c0.052,1.657,1.199,2.881,3.417,2.881c1.198,0,2.423-0.152,3.468-0.434
			c0.153,0.688,0.255,1.454,0.255,2.143c0,0.102,0,0.229-0.025,0.51c-1.301,0.382-2.651,0.561-3.978,0.561
			c-4.845,0-6.858-2.779-6.858-6.833c0-3.544,1.988-6.961,6.298-6.961c4.079,0,5.558,3.009,5.558,6.323
			C242.504,192.775,242.504,193.464,242.428,194.127z M238.985,191.603c0-1.606-0.434-2.958-2.091-2.958
			c-1.58,0-2.422,1.25-2.524,2.958H238.985z"/>
		<path style="fill:#7AC6BA;" d="M256.832,199.532c-0.408,0.102-1.275,0.128-1.683,0.128c-0.434,0-1.428-0.052-1.836-0.128v-8.72
			c0-1.377-0.714-1.964-1.861-1.964c-0.918,0-1.964,0.332-2.779,0.842v9.842c-0.587,0.102-1.402,0.128-1.861,0.128
			c-0.408,0-1.147-0.026-1.657-0.128v-13.284c0.331-0.076,1.147-0.128,1.529-0.128c0.357,0,1.097,0.052,1.479,0.128l0.178,1.173
			c1.147-0.842,2.805-1.428,4.284-1.428c2.805,0,4.207,1.733,4.207,4.641V199.532z"/>
		<path style="fill:#7AC6BA;" d="M268.608,199.277c-0.765,0.306-1.683,0.51-3.162,0.51c-2.881,0-4.309-1.402-4.309-4.207v-6.706
			h-2.193c-0.102-0.382-0.178-1.02-0.178-1.352c0-0.306,0.076-0.866,0.152-1.121l2.219-0.153v-3.417
			c0.28-0.051,1.173-0.102,1.759-0.102c0.638,0,1.428,0.051,1.76,0.102v3.417h3.672c0.102,0.357,0.152,0.867,0.152,1.147
			c0,0.306-0.025,1.122-0.127,1.479h-3.697v6.196c0,1.274,0.51,1.836,1.759,1.836c0.688,0,1.53-0.103,2.117-0.307
			c0.102,0.332,0.229,0.97,0.229,1.556C268.762,198.461,268.71,198.997,268.608,199.277z"/>
		<path style="fill:#7AC6BA;" d="M275.567,199.787c-1.505,0-3.086-0.229-4.31-0.638c-0.076-0.382-0.102-0.866-0.102-1.377
			c0-0.407,0.102-0.994,0.204-1.351c1.173,0.407,2.855,0.688,3.85,0.688c1.377,0,2.167-0.459,2.167-1.402
			c0-0.816-0.637-1.199-2.32-1.734c-2.677-0.841-3.926-2.091-3.926-4.028c0-2.881,2.651-3.952,5.176-3.952
			c1.173,0,2.473,0.204,3.365,0.484c0.103,0.383,0.153,0.918,0.153,1.224c0,0.332-0.103,1.021-0.229,1.453
			c-0.867-0.255-2.065-0.458-3.06-0.458c-1.224,0-2.065,0.306-2.065,1.07c0,0.816,0.943,1.147,2.422,1.632
			c2.575,0.842,3.8,1.912,3.8,3.927C280.692,198.436,278.193,199.787,275.567,199.787z"/>
	</g>
	<g>
		<path style="fill:#1A2A4F;" d="M26.93,210.46h-6.993v3.839h5.889c0.105,0.289,0.184,0.814,0.184,1.551
			c0,0.579-0.053,1.052-0.184,1.604h-5.889v7.572c-0.5,0.079-1.078,0.132-1.867,0.132c-0.71,0-1.394-0.053-1.893-0.132v-17.772
			H26.93c0.105,0.289,0.184,0.841,0.184,1.577C27.114,209.408,27.062,209.908,26.93,210.46z"/>
		<path style="fill:#1A2A4F;" d="M43.545,224.999c-0.683,0.105-1.393,0.158-2.208,0.158c-0.736,0-1.473-0.026-1.972-0.132
			l-3.602-6.389h-1.551v6.389c-0.657,0.105-1.209,0.132-1.919,0.132c-0.631,0-1.183-0.026-1.84-0.132v-17.772
			c1.209-0.079,3.733-0.132,5.258-0.132c4.469,0,6.704,1.578,6.704,5.679c0,2.183-1.314,4.364-3.155,5.153L43.545,224.999z
			 M35.947,210.197c-0.579,0-1.289,0.026-1.735,0.053v5.258h1.314c2.156,0,3.103-0.788,3.103-2.734
			C38.629,210.828,37.682,210.197,35.947,210.197z"/>
		<path style="fill:#1A2A4F;" d="M52.799,225.288c-4.864,0-7.44-3.365-7.44-9.149c0-5.783,2.577-9.148,7.44-9.148
			s7.44,3.365,7.44,9.148C60.239,221.923,57.663,225.288,52.799,225.288z M52.799,210.224c-2.261,0-3.549,1.735-3.549,5.915
			c0,4.181,1.288,5.916,3.549,5.916c2.261,0,3.549-1.735,3.549-5.916C56.348,211.959,55.06,210.224,52.799,210.224z"/>
		<path style="fill:#1A2A4F;" d="M81.613,225.025c-0.315,0.079-1.025,0.132-1.761,0.132c-0.789,0-1.525-0.079-1.84-0.132
			l-0.315-10.674l-3.891,8.991c-0.289,0.105-0.92,0.158-1.314,0.158c-0.474,0-1.052-0.053-1.341-0.132l-3.891-9.018l-0.342,10.674
			c-0.342,0.079-1.157,0.132-1.867,0.132c-0.421,0-1.13-0.053-1.604-0.132l0.763-17.772c0.5-0.053,0.999-0.132,1.525-0.132
			c0.631,0,1.235,0.053,1.551,0.132l5.206,12.067l5.232-12.067c0.525-0.079,1.051-0.132,1.524-0.132
			c0.605,0,1.157,0.053,1.551,0.132L81.613,225.025z"/>
		<path style="fill:#1A2A4F;" d="M109.769,225.025c-0.315,0.079-1.025,0.132-1.761,0.132c-0.789,0-1.525-0.079-1.84-0.132
			l-0.315-10.674l-3.891,8.991c-0.289,0.105-0.92,0.158-1.314,0.158c-0.474,0-1.052-0.053-1.341-0.132l-3.891-9.018l-0.342,10.674
			c-0.342,0.079-1.157,0.132-1.867,0.132c-0.421,0-1.13-0.053-1.604-0.132l0.763-17.772c0.5-0.053,0.999-0.132,1.525-0.132
			c0.631,0,1.235,0.053,1.551,0.132l5.206,12.067l5.232-12.067c0.525-0.079,1.051-0.132,1.524-0.132
			c0.605,0,1.157,0.053,1.551,0.132L109.769,225.025z"/>
		<path style="fill:#1A2A4F;" d="M120.417,225.288c-4.864,0-7.44-3.365-7.44-9.149c0-5.783,2.577-9.148,7.44-9.148
			s7.44,3.365,7.44,9.148C127.857,221.923,125.28,225.288,120.417,225.288z M120.417,210.224c-2.261,0-3.549,1.735-3.549,5.915
			c0,4.181,1.288,5.916,3.549,5.916c2.261,0,3.549-1.735,3.549-5.916C123.966,211.959,122.677,210.224,120.417,210.224z"/>
		<path style="fill:#1A2A4F;" d="M144.34,224.999c-0.683,0.105-1.393,0.158-2.208,0.158c-0.736,0-1.473-0.026-1.972-0.132
			l-3.602-6.389h-1.551v6.389c-0.657,0.105-1.209,0.132-1.919,0.132c-0.631,0-1.183-0.026-1.84-0.132v-17.772
			c1.209-0.079,3.733-0.132,5.258-0.132c4.469,0,6.704,1.578,6.704,5.679c0,2.183-1.314,4.364-3.155,5.153L144.34,224.999z
			 M136.742,210.197c-0.579,0-1.289,0.026-1.735,0.053v5.258h1.314c2.156,0,3.103-0.788,3.103-2.734
			C139.424,210.828,138.477,210.197,136.742,210.197z"/>
		<path style="fill:#1A2A4F;" d="M158.379,225.025h-11.121v-17.772h10.885c0.104,0.289,0.184,0.841,0.184,1.577
			c0,0.578-0.053,1.078-0.184,1.63h-7.125v3.839h6.021c0.105,0.289,0.185,0.814,0.185,1.551c0,0.579-0.053,1.052-0.185,1.604h-6.021
			v4.365h7.361c0.105,0.289,0.185,0.841,0.185,1.577C158.563,223.974,158.511,224.474,158.379,225.025z"/>
		<path style="fill:#1A2A4F;" d="M178.464,210.46h-4.706v14.565c-0.499,0.079-1.209,0.132-1.866,0.132s-1.367-0.053-1.894-0.132
			V210.46h-4.706c-0.104-0.342-0.184-1.156-0.184-1.604s0.104-1.262,0.21-1.604h13.146c0.105,0.342,0.185,1.156,0.185,1.604
			S178.569,210.118,178.464,210.46z"/>
		<path style="fill:#1A2A4F;" d="M195,225.025c-0.473,0.079-1.13,0.132-1.866,0.132s-1.394-0.053-1.893-0.132v-7.361h-6.179v7.361
			c-0.5,0.079-1.078,0.132-1.866,0.132c-0.71,0-1.394-0.053-1.894-0.132v-17.772c0.5-0.079,1.235-0.132,1.894-0.132
			c0.735,0,1.393,0.053,1.866,0.132v7.203h6.179v-7.203c0.578-0.079,1.235-0.132,1.893-0.132c0.631,0,1.42,0.053,1.866,0.132
			V225.025z"/>
		<path style="fill:#1A2A4F;" d="M214.113,225.025c-0.342,0.079-1.157,0.132-2.024,0.132c-0.684,0-1.473-0.079-1.814-0.132
			l-1.314-3.602h-6.31l-1.235,3.602c-0.579,0.079-1.263,0.132-1.946,0.132s-1.472-0.053-1.866-0.132l6.204-17.772
			c0.368-0.079,1.236-0.132,1.814-0.132c0.71,0,1.551,0.053,1.841,0.132L214.113,225.025z M207.83,218.295l-1.552-5.021
			c-0.184-0.578-0.368-1.314-0.525-2.13H205.7c-0.132,0.815-0.342,1.552-0.526,2.13l-1.472,5.021H207.83z"/>
		<path style="fill:#1A2A4F;" d="M230.966,225.025c-0.263,0.053-0.895,0.105-1.341,0.105c-0.447,0-0.895-0.026-1.314-0.105
			l-8.177-11.384v11.384c-0.21,0.053-0.999,0.132-1.735,0.132c-0.604,0-1.314-0.079-1.683-0.132v-17.772
			c0.421-0.079,0.92-0.105,1.394-0.105c0.5,0,1.025,0.053,1.42,0.105l8.019,11.174v-11.174c0.525-0.079,1.209-0.132,1.709-0.132
			c0.499,0,1.235,0.053,1.709,0.132V225.025z"/>
	</g>
	<g>
		<path style="fill:#C2AD70;" d="M249.923,225.025c-0.395,0.079-1.104,0.132-1.867,0.132c-0.736,0-1.394-0.053-1.866-0.132v-13.593
			l-3.733,2.472c-0.894-0.815-1.525-1.919-1.762-2.865l6.179-3.786c0.368-0.079,1.13-0.132,1.524-0.132
			c0.447,0,1.262,0.079,1.525,0.132V225.025z"/>
		<path style="fill:#C2AD70;" d="M260.964,225.288c-4.207,0-6.258-3.103-6.258-9.149c0-6.099,2.13-9.148,6.336-9.148
			c4.181,0,6.231,3.05,6.231,9.148C267.273,222.186,265.144,225.288,260.964,225.288z M260.99,210.065
			c-1.683,0-2.419,1.552-2.419,6.073c0,4.443,0.736,6.073,2.419,6.073s2.418-1.63,2.418-6.073
			C263.408,211.617,262.673,210.065,260.99,210.065z"/>
		<path style="fill:#C2AD70;" d="M275.371,225.288c-4.207,0-6.258-3.103-6.258-9.149c0-6.099,2.13-9.148,6.336-9.148
			c4.181,0,6.231,3.05,6.231,9.148C281.681,222.186,279.551,225.288,275.371,225.288z M275.397,210.065
			c-1.683,0-2.419,1.552-2.419,6.073c0,4.443,0.736,6.073,2.419,6.073s2.418-1.63,2.418-6.073
			C277.815,211.617,277.08,210.065,275.397,210.065z"/>
	</g>
	<g>
		<path style="fill:#1A2A4F;" d="M29.019,246.396c-1.581,1.225-3.621,1.658-6.426,1.658c-1.428,0-3.85-0.052-4.666-0.128v-17.236
			c1.25-0.076,3.85-0.127,5.304-0.127c5.609,0,8.491,2.371,8.491,8.541C31.721,242.291,30.88,244.942,29.019,246.396z
			 M23.307,233.57c-0.688,0-1.454,0.026-1.734,0.052v11.346c0.332,0.025,1.096,0.052,1.887,0.052c3.212,0,4.487-2.04,4.487-5.967
			C27.947,234.743,26.622,233.57,23.307,233.57z"/>
		<path style="fill:#1A2A4F;" d="M38.704,247.926c-0.484,0.076-1.071,0.128-1.836,0.128c-0.688,0-1.326-0.052-1.81-0.128v-17.236
			c0.484-0.076,1.198-0.127,1.836-0.127c0.714,0,1.351,0.051,1.81,0.127V247.926z"/>
		<path style="fill:#1A2A4F;" d="M53.262,233.8H46.48v3.723h5.711c0.102,0.281,0.178,0.791,0.178,1.505
			c0,0.561-0.051,1.02-0.178,1.555H46.48v7.344c-0.484,0.076-1.045,0.128-1.811,0.128c-0.688,0-1.351-0.052-1.836-0.128v-17.236
			h10.429c0.102,0.28,0.178,0.816,0.178,1.53C53.44,232.78,53.39,233.265,53.262,233.8z"/>
		<path style="fill:#1A2A4F;" d="M66.824,233.8h-6.782v3.723h5.711c0.102,0.281,0.178,0.791,0.178,1.505
			c0,0.561-0.051,1.02-0.178,1.555h-5.711v7.344c-0.484,0.076-1.045,0.128-1.811,0.128c-0.688,0-1.351-0.052-1.836-0.128v-17.236
			h10.429c0.102,0.28,0.178,0.816,0.178,1.53C67.002,232.78,66.952,233.265,66.824,233.8z"/>
		<path style="fill:#1A2A4F;" d="M81.024,247.926H70.238v-17.236h10.556c0.102,0.28,0.178,0.816,0.178,1.53
			c0,0.561-0.051,1.045-0.178,1.58h-6.91v3.723h5.839c0.102,0.281,0.178,0.791,0.178,1.505c0,0.561-0.051,1.02-0.178,1.555h-5.839
			v4.233h7.139c0.102,0.28,0.178,0.815,0.178,1.529C81.202,246.906,81.151,247.391,81.024,247.926z"/>
		<path style="fill:#1A2A4F;" d="M97.008,247.9c-0.663,0.102-1.351,0.153-2.142,0.153c-0.714,0-1.428-0.026-1.912-0.128
			l-3.493-6.196h-1.504v6.196c-0.638,0.102-1.173,0.128-1.861,0.128c-0.612,0-1.147-0.026-1.785-0.128v-17.236
			c1.173-0.076,3.621-0.127,5.1-0.127c4.334,0,6.502,1.529,6.502,5.507c0,2.116-1.275,4.232-3.06,4.998L97.008,247.9z
			 M89.64,233.545c-0.561,0-1.25,0.025-1.683,0.052v5.099h1.275c2.091,0,3.008-0.765,3.008-2.651S91.323,233.545,89.64,233.545z"/>
		<path style="fill:#1A2A4F;" d="M110.596,247.926H99.811v-17.236h10.556c0.102,0.28,0.178,0.816,0.178,1.53
			c0,0.561-0.051,1.045-0.178,1.58h-6.91v3.723h5.839c0.102,0.281,0.178,0.791,0.178,1.505c0,0.561-0.051,1.02-0.178,1.555h-5.839
			v4.233h7.139c0.102,0.28,0.178,0.815,0.178,1.529C110.774,246.906,110.724,247.391,110.596,247.926z"/>
		<path style="fill:#1A2A4F;" d="M127.729,247.926c-0.255,0.051-0.867,0.102-1.3,0.102s-0.867-0.025-1.275-0.102l-7.93-11.04v11.04
			c-0.204,0.051-0.969,0.128-1.683,0.128c-0.586,0-1.275-0.077-1.632-0.128v-17.236c0.408-0.076,0.893-0.102,1.352-0.102
			c0.484,0,0.995,0.051,1.377,0.102l7.777,10.837v-10.837c0.51-0.076,1.173-0.127,1.657-0.127s1.198,0.051,1.657,0.127V247.926z"/>
		<path style="fill:#1A2A4F;" d="M143.253,233.8h-4.564v14.126c-0.484,0.076-1.173,0.128-1.81,0.128
			c-0.638,0-1.326-0.052-1.836-0.128V233.8h-4.564c-0.102-0.331-0.178-1.121-0.178-1.555s0.102-1.225,0.204-1.556h12.749
			c0.102,0.331,0.178,1.122,0.178,1.556S143.355,233.469,143.253,233.8z"/>
		<path style="fill:#1A2A4F;" d="M162.475,234.284c-1.224-0.382-2.754-0.662-3.978-0.662c-2.906,0-4.794,2.065-4.794,5.762
			c0,3.392,1.479,5.609,4.769,5.609c1.224,0,2.601-0.255,3.824-0.637c0.179,0.459,0.307,1.173,0.307,1.708
			c0,0.434-0.025,0.969-0.077,1.198c-1.274,0.587-2.906,0.918-4.411,0.918c-5.481,0-8.184-3.314-8.184-8.72
			c0-5.253,2.907-9.026,8.337-9.026c1.326,0,3.06,0.331,4.283,0.867c0.077,0.255,0.103,0.815,0.103,1.147
			C162.653,233.239,162.551,233.979,162.475,234.284z"/>
		<path style="fill:#1A2A4F;" d="M171.881,248.181c-4.717,0-7.216-3.264-7.216-8.873s2.499-8.873,7.216-8.873
			s7.216,3.264,7.216,8.873S176.598,248.181,171.881,248.181z M171.881,233.57c-2.193,0-3.442,1.684-3.442,5.737
			s1.249,5.737,3.442,5.737c2.192,0,3.442-1.684,3.442-5.737S174.073,233.57,171.881,233.57z"/>
		<path style="fill:#1A2A4F;" d="M195.387,241.373c0,4.386-1.683,6.808-6.578,6.808c-4.946,0-6.502-2.422-6.502-6.808v-10.684
			c0.51-0.076,1.173-0.127,1.785-0.127c0.714,0,1.351,0.051,1.861,0.127v10.938c0,2.346,0.662,3.672,2.881,3.672
			c2.218,0,2.983-1.326,2.983-3.672v-10.938c0.459-0.076,1.224-0.127,1.81-0.127c0.562,0,1.326,0.051,1.76,0.127V241.373z"/>
		<path style="fill:#1A2A4F;" d="M213.181,247.926c-0.255,0.051-0.866,0.102-1.3,0.102s-0.867-0.025-1.275-0.102l-7.93-11.04v11.04
			c-0.203,0.051-0.969,0.128-1.683,0.128c-0.586,0-1.274-0.077-1.632-0.128v-17.236c0.408-0.076,0.893-0.102,1.352-0.102
			c0.484,0,0.994,0.051,1.377,0.102l7.776,10.837v-10.837c0.51-0.076,1.173-0.127,1.657-0.127s1.199,0.051,1.657,0.127V247.926z"/>
		<path style="fill:#1A2A4F;" d="M228.706,233.8h-4.563v14.126c-0.484,0.076-1.173,0.128-1.811,0.128s-1.326-0.052-1.836-0.128
			V233.8h-4.563c-0.103-0.331-0.179-1.121-0.179-1.555s0.102-1.225,0.204-1.556h12.748c0.103,0.331,0.179,1.122,0.179,1.556
			S228.809,233.469,228.706,233.8z"/>
		<path style="fill:#1A2A4F;" d="M244.155,247.9c-0.663,0.102-1.352,0.153-2.143,0.153c-0.714,0-1.428-0.026-1.912-0.128
			l-3.493-6.196h-1.504v6.196c-0.638,0.102-1.173,0.128-1.861,0.128c-0.612,0-1.147-0.026-1.785-0.128v-17.236
			c1.173-0.076,3.621-0.127,5.1-0.127c4.335,0,6.502,1.529,6.502,5.507c0,2.116-1.275,4.232-3.06,4.998L244.155,247.9z
			 M236.786,233.545c-0.561,0-1.249,0.025-1.683,0.052v5.099h1.274c2.091,0,3.009-0.765,3.009-2.651
			S238.469,233.545,236.786,233.545z"/>
		<path style="fill:#1A2A4F;" d="M250.654,247.926c-0.484,0.076-1.071,0.128-1.836,0.128c-0.688,0-1.326-0.052-1.811-0.128v-17.236
			c0.484-0.076,1.199-0.127,1.836-0.127c0.714,0,1.352,0.051,1.811,0.127V247.926z"/>
		<path style="fill:#1A2A4F;" d="M265.568,247.926h-10.785v-17.236h10.556c0.103,0.28,0.179,0.816,0.179,1.53
			c0,0.561-0.051,1.045-0.179,1.58h-6.909v3.723h5.839c0.102,0.281,0.179,0.791,0.179,1.505c0,0.561-0.052,1.02-0.179,1.555h-5.839
			v4.233h7.139c0.103,0.28,0.179,0.815,0.179,1.529C265.747,246.906,265.696,247.391,265.568,247.926z"/>
		<path style="fill:#1A2A4F;" d="M273.573,248.181c-1.861,0-3.9-0.356-5.354-1.02c-0.076-0.357-0.127-0.816-0.127-1.225
			c0-0.611,0.076-1.198,0.255-1.887c1.504,0.612,3.493,0.995,5.049,0.995c1.81,0,2.778-0.842,2.778-1.989
			c0-1.274-0.815-1.811-3.289-2.575c-2.753-0.842-4.768-2.167-4.768-5.125c0-3.161,2.729-4.921,6.323-4.921
			c1.657,0,3.136,0.255,4.131,0.586c0.076,0.281,0.127,0.74,0.127,1.403c0,0.484-0.051,1.224-0.152,1.631
			c-1.275-0.331-2.729-0.51-3.901-0.51c-1.912,0-2.958,0.638-2.958,1.657c0,1.199,0.943,1.684,3.238,2.397
			c2.754,0.866,4.794,2.167,4.794,5.227C279.719,246.166,277.092,248.181,273.573,248.181z"/>
	</g>
</g>
</svg>
