<?xml version="1.0" encoding="utf-8"?>
<!-- Generator: Adobe Illustrator 16.0.4, SVG Export Plug-In . SVG Version: 6.00 Build 0)  -->
<!DOCTYPE svg PUBLIC "-//W3C//DTD SVG 1.1//EN" "http://www.w3.org/Graphics/SVG/1.1/DTD/svg11.dtd">
<svg version="1.1" xmlns="http://www.w3.org/2000/svg" xmlns:xlink="http://www.w3.org/1999/xlink" x="0px" y="0px" width="300px"
	 height="300px" viewBox="0 0 300 300" enable-background="new 0 0 300 300" xml:space="preserve">
<g id="Layer_1" display="none">
	<g id="Text">
		
			<text transform="matrix(1 0 0 1 155.8018 123.9209)" display="inline" fill="#BBA461" font-family="'FSMatthew-Bold'" font-size="63.0416">9</text>
		
			<text transform="matrix(1 0 0 1 188.5195 123.9209)" display="inline" fill="#BBA461" font-family="'FSMatthew-Bold'" font-size="63.0416">2</text>
		
			<text transform="matrix(1 0 0 1 222.498 123.9209)" display="inline" fill="#BBA461" font-family="'FSMatthew-Bold'" font-size="63.0416">%</text>
		
			<text transform="matrix(1 0 0 1 142.708 205.209)" display="inline" fill="#1A2A4F" font-family="'FSMatthew-Bold'" font-size="28.5024">6 </text>
		
			<text transform="matrix(1 0 0 1 163.3721 205.209)" display="inline" fill="#1A2A4F" font-family="'FSMatthew-Bold'" font-size="28.5024">M</text>
		
			<text transform="matrix(1 0 0 1 186.2305 205.209)" display="inline" fill="#1A2A4F" font-family="'FSMatthew-Bold'" font-size="28.5024">ON</text>
		
			<text transform="matrix(1 0 0 1 223.2266 205.209)" display="inline" fill="#1A2A4F" font-family="'FSMatthew-Bold'" font-size="28.5024">T</text>
		
			<text transform="matrix(1 0 0 1 238.1035 205.209)" display="inline" fill="#1A2A4F" font-family="'FSMatthew-Bold'" font-size="28.5024">H</text>
		
			<text transform="matrix(1 0 0 1 256.5449 205.209)" display="inline" fill="#1A2A4F" font-family="'FSMatthew-Bold'" font-size="28.5024">S</text>
		
			<text transform="matrix(1 0 0 1 156.4033 146.4287)" display="inline" fill="#1A2A4F" font-family="'FSMatthew'" font-size="14.2512">OF</text>
		
			<text transform="matrix(1 0 0 1 171.5508 146.4287)" display="inline" fill="#1A2A4F" font-family="'FSMatthew'" font-size="14.2512"> </text>
		
			<text transform="matrix(1 0 0 1 174.3457 146.4287)" display="inline" fill="#1A2A4F" font-family="'FSMatthew'" font-size="14.2512">OUR</text>
		
			<text transform="matrix(1 0 0 1 199.043 146.4287)" display="inline" fill="#1A2A4F" font-family="'FSMatthew'" font-size="14.2512"> G</text>
		
			<text transform="matrix(1 0 0 1 210.3145 146.4287)" display="inline" fill="#1A2A4F" font-family="'FSMatthew'" font-size="14.2512">R</text>
		
			<text transform="matrix(1 0 0 1 218.0391 146.4287)" display="inline" fill="#1A2A4F" font-family="'FSMatthew'" font-size="14.2512">A</text>
		
			<text transform="matrix(1 0 0 1 226.2471 146.4287)" display="inline" fill="#1A2A4F" font-family="'FSMatthew'" font-size="14.2512">D</text>
		
			<text transform="matrix(1 0 0 1 234.9551 146.4287)" display="inline" fill="#1A2A4F" font-family="'FSMatthew'" font-size="14.2512">U</text>
		
			<text transform="matrix(1 0 0 1 243.3047 146.4287)" display="inline" fill="#1A2A4F" font-family="'FSMatthew'" font-size="14.2512">A</text>
		
			<text transform="matrix(1 0 0 1 250.418 146.4287)" display="inline" fill="#1A2A4F" font-family="'FSMatthew'" font-size="14.2512">TE</text>
		
			<text transform="matrix(1 0 0 1 264.541 146.4287)" display="inline" fill="#1A2A4F" font-family="'FSMatthew'" font-size="14.2512">S </text>
		
			<text transform="matrix(1 0 0 1 175.9551 160.6807)" display="inline" fill="#1A2A4F" font-family="'FSMatthew'" font-size="14.2512">AR</text>
		
			<text transform="matrix(1 0 0 1 191.7168 160.6807)" display="inline" fill="#1A2A4F" font-family="'FSMatthew'" font-size="14.2512">E IN </text>
		
			<text transform="matrix(1 0 0 1 216.8262 160.6807)" display="inline" fill="#1A2A4F" font-family="'FSMatthew'" font-size="14.2512">W</text>
		
			<text transform="matrix(1 0 0 1 228.7549 160.6807)" display="inline" fill="#1A2A4F" font-family="'FSMatthew'" font-size="14.2512">ORK</text>
		
			<text transform="matrix(1 0 0 1 252.6533 160.6807)" display="inline" fill="#1A2A4F" font-family="'FSMatthew'" font-size="14.2512"> </text>
		
			<text transform="matrix(1 0 0 1 255.4463 160.6807)" display="inline" fill="#1A2A4F" font-family="'FSMatthew'" font-size="14.2512">O</text>
		
			<text transform="matrix(1 0 0 1 263.9824 160.6807)" display="inline" fill="#1A2A4F" font-family="'FSMatthew'" font-size="14.2512">R </text>
		
			<text transform="matrix(1 0 0 1 177.7227 174.9316)" display="inline" fill="#1A2A4F" font-family="'FSMatthew'" font-size="14.2512">FU</text>
		
			<text transform="matrix(1 0 0 1 192.9434 174.9316)" display="inline" fill="#1A2A4F" font-family="'FSMatthew'" font-size="14.2512">R</text>
		
			<text transform="matrix(1 0 0 1 200.1543 174.9316)" display="inline" fill="#1A2A4F" font-family="'FSMatthew'" font-size="14.2512">THE</text>
		
			<text transform="matrix(1 0 0 1 223.1836 174.9316)" display="inline" fill="#1A2A4F" font-family="'FSMatthew'" font-size="14.2512">R</text>
		
			<text transform="matrix(1 0 0 1 230.7363 174.9316)" display="inline" fill="#1A2A4F" font-family="'FSMatthew'" font-size="14.2512"> </text>
		
			<text transform="matrix(1 0 0 1 233.5293 174.9316)" display="inline" fill="#1A2A4F" font-family="'FSMatthew'" font-size="14.2512">S</text>
		
			<text transform="matrix(1 0 0 1 240.1846 174.9316)" display="inline" fill="#1A2A4F" font-family="'FSMatthew'" font-size="14.2512">T</text>
		
			<text transform="matrix(1 0 0 1 247.3672 174.9316)" display="inline" fill="#1A2A4F" font-family="'FSMatthew'" font-size="14.2512">U</text>
		
			<text transform="matrix(1 0 0 1 255.9746 174.9316)" display="inline" fill="#1A2A4F" font-family="'FSMatthew'" font-size="14.2512">D</text>
		
			<text transform="matrix(1 0 0 1 264.5117 174.9316)" display="inline" fill="#1A2A4F" font-family="'FSMatthew'" font-size="14.2512">Y</text>
		
			<text transform="matrix(1 0 0 1 141.5742 219.2051)" display="inline" fill="#1A2A4F" font-family="'FSMatthew'" font-size="11.401">A</text>
		
			<text transform="matrix(1 0 0 1 148.209 219.2051)" display="inline" fill="#1A2A4F" font-family="'FSMatthew'" font-size="11.401">F</text>
		
			<text transform="matrix(1 0 0 1 153.8867 219.2051)" display="inline" fill="#1A2A4F" font-family="'FSMatthew'" font-size="11.401">TER L</text>
		
			<text transform="matrix(1 0 0 1 179.2422 219.2051)" display="inline" fill="#1A2A4F" font-family="'FSMatthew'" font-size="11.401">E</text>
		
			<text transform="matrix(1 0 0 1 184.9424 219.2051)" display="inline" fill="#1A2A4F" font-family="'FSMatthew'" font-size="11.401">A</text>
		
			<text transform="matrix(1 0 0 1 190.917 219.2051)" display="inline" fill="#1A2A4F" font-family="'FSMatthew'" font-size="11.401">VING UN</text>
		
			<text transform="matrix(1 0 0 1 230.8867 219.2051)" display="inline" fill="#1A2A4F" font-family="'FSMatthew'" font-size="11.401">I</text>
		
			<text transform="matrix(1 0 0 1 233.624 219.2051)" display="inline" fill="#1A2A4F" font-family="'FSMatthew'" font-size="11.401">VER</text>
		
			<text transform="matrix(1 0 0 1 251.6143 219.2051)" display="inline" fill="#1A2A4F" font-family="'FSMatthew'" font-size="11.401">S</text>
		
			<text transform="matrix(1 0 0 1 257.2578 219.2051)" display="inline" fill="#1A2A4F" font-family="'FSMatthew'" font-size="11.401">I</text>
		
			<text transform="matrix(1 0 0 1 260.0059 219.2051)" display="inline" fill="#1A2A4F" font-family="'FSMatthew'" font-size="11.401">T</text>
		
			<text transform="matrix(1 0 0 1 266.082 219.2051)" display="inline" fill="#1A2A4F" font-family="'FSMatthew'" font-size="11.401">Y</text>
	</g>
	<g id="Text_Flat" display="inline">
		<g>
			<path fill="#BBA461" d="M169.167,124.551c-2.522,0-5.296-0.378-6.81-0.882c-0.252-0.882-0.314-2.459-0.314-3.152
				c0-1.199,0.188-2.836,0.439-3.783c1.768,0.441,3.783,0.757,6.242,0.757c4.979,0,8.825-4.224,9.203-10.339
				c-1.826,1.199-4.349,1.954-7.376,1.954c-8.194,0-12.481-5.673-12.481-13.427c0-8.196,5.549-15.004,14.438-15.004
				c12.166,0,15.193,9.582,15.193,18.976C187.701,111.754,182.973,124.551,169.167,124.551z M172.698,87.861
				c-3.279,0-5.55,2.584-5.55,7.439c0,4.476,1.767,6.935,5.484,6.935c2.018,0,4.665-1.072,5.801-2.27
				c0-0.315,0.062-1.197,0.062-1.64C178.497,93.787,178.118,87.861,172.698,87.861z"/>
			<path fill="#BBA461" d="M218.968,123.921h-26.917c-0.566-1.324-0.757-2.963-0.757-4.413c0-0.756,0.062-1.702,0.188-2.333
				c4.414-4.476,9.141-9.52,13.303-14.185c3.088-3.467,5.547-6.681,5.547-10.212c0-3.089-2.143-4.854-5.926-4.854
				c-2.773,0-7.188,0.946-11.284,2.9c-0.254-1.072-0.505-2.963-0.505-4.476c0-0.757,0.127-2.27,0.378-3.278
				c3.091-1.325,8.069-2.521,12.924-2.521c7.188,0,13.49,3.34,13.49,11.095c0,6.809-3.655,11.411-11.474,19.605
				c-1.514,1.639-3.15,3.214-4.791,4.917h15.949c0.189,0.82,0.314,2.397,0.314,3.91
				C219.409,121.336,219.221,123.039,218.968,123.921z"/>
			<path fill="#BBA461" d="M225.65,90.446c0-5.421,2.457-10.085,9.455-10.085c7.062,0,9.457,4.665,9.457,10.085
				c0,5.295-2.396,10.212-9.457,10.212C228.107,100.658,225.65,95.741,225.65,90.446z M239.078,124.614
				c-2.711-0.756-5.485-2.584-6.87-4.539l25.845-40.536c2.586,0.693,5.36,2.27,6.936,4.224L239.078,124.614z M237.25,90.573
				c0-2.711-0.566-4.414-2.145-4.414c-1.574,0-2.144,1.702-2.144,4.414c0,2.71,0.63,4.286,2.144,4.286S237.25,93.283,237.25,90.573z
				 M251.875,114.653c0-5.421,2.459-10.085,9.457-10.085c7.061,0,9.455,4.665,9.455,10.085c0,5.295-2.395,10.213-9.455,10.213
				C254.334,124.866,251.875,119.949,251.875,114.653z M263.477,114.78c0-2.711-0.568-4.414-2.145-4.414
				c-1.577,0-2.145,1.702-2.145,4.414c0,2.711,0.631,4.286,2.145,4.286S263.477,117.491,263.477,114.78z"/>
		</g>
		<g>
			<path fill="#1A2A4F" d="M150.834,205.494c-5.189,0-7.184-3.648-7.184-9.038c0-6.072,2.251-10.806,8.552-10.806
				c1.084,0,2.594,0.174,3.222,0.4c0.114,0.398,0.143,1.053,0.143,1.367c0,0.543-0.058,1.283-0.199,1.682
				c-0.741-0.115-1.824-0.199-2.65-0.199c-2.766,0-4.419,1.684-4.732,4.789c0.884-0.567,2.394-1.056,3.791-1.056
				c3.422,0,5.588,2.566,5.588,6.019C157.361,202.499,154.825,205.494,150.834,205.494z M150.863,195.799
				c-1.227,0-2.453,0.516-3.051,1.087c-0.029,0.284-0.029,0.653-0.029,1.082c0,1.769,0.627,4.275,2.936,4.275
				c1.598,0,2.424-1.511,2.424-3.394C153.143,197,152.402,195.799,150.863,195.799z"/>
			<path fill="#1A2A4F" d="M185.012,205.208c-0.342,0.086-1.111,0.142-1.91,0.142c-0.854,0-1.653-0.082-1.996-0.142l-0.342-11.573
				l-4.22,9.749c-0.313,0.114-0.998,0.171-1.425,0.171c-0.514,0-1.143-0.057-1.454-0.143l-4.22-9.777l-0.37,11.573
				c-0.37,0.086-1.255,0.142-2.025,0.142c-0.454,0-1.225-0.056-1.737-0.142l0.826-19.271c0.541-0.059,1.082-0.146,1.653-0.146
				c0.685,0,1.34,0.06,1.683,0.146l5.646,13.084l5.673-13.084c0.57-0.086,1.141-0.146,1.652-0.146c0.656,0,1.255,0.06,1.684,0.146
				L185.012,205.208z"/>
			<path fill="#1A2A4F" d="M195.552,205.494c-5.272,0-8.067-3.648-8.067-9.924c0-6.271,2.795-9.92,8.067-9.92
				c5.275,0,8.068,3.649,8.068,9.92C203.62,201.846,200.827,205.494,195.552,205.494z M195.552,189.159
				c-2.45,0-3.848,1.881-3.848,6.411c0,4.535,1.397,6.416,3.848,6.416c2.453,0,3.851-1.881,3.851-6.416
				C199.402,191.04,198.005,189.159,195.552,189.159z"/>
			<path fill="#1A2A4F" d="M221.777,205.208c-0.284,0.06-0.971,0.114-1.454,0.114c-0.484,0-0.97-0.028-1.425-0.114l-8.866-12.345
				v12.345c-0.229,0.06-1.083,0.142-1.882,0.142c-0.656,0-1.426-0.082-1.825-0.142v-19.271c0.457-0.086,0.998-0.113,1.512-0.113
				c0.541,0,1.112,0.056,1.539,0.113l8.696,12.112v-12.112c0.568-0.086,1.311-0.146,1.852-0.146c0.543,0,1.342,0.06,1.854,0.146
				V205.208L221.777,205.208z"/>
			<path fill="#1A2A4F" d="M238.165,189.415h-5.104v15.793c-0.541,0.086-1.311,0.142-2.021,0.142c-0.713,0-1.482-0.056-2.055-0.142
				v-15.793h-5.104c-0.113-0.371-0.199-1.256-0.199-1.74c0-0.483,0.114-1.366,0.229-1.735h14.254
				c0.114,0.369,0.198,1.252,0.198,1.735C238.363,188.159,238.279,189.044,238.165,189.415z"/>
			<path fill="#1A2A4F" d="M255.098,205.208c-0.515,0.086-1.227,0.142-2.024,0.142s-1.511-0.056-2.054-0.142v-7.981h-6.699v7.981
				c-0.543,0.086-1.168,0.142-2.023,0.142c-0.77,0-1.51-0.056-2.053-0.142v-19.271c0.543-0.086,1.341-0.146,2.053-0.146
				c0.799,0,1.512,0.06,2.023,0.146v7.812h6.699v-7.812c0.629-0.086,1.34-0.146,2.054-0.146c0.684,0,1.538,0.06,2.024,0.146V205.208
				z"/>
			<path fill="#1A2A4F" d="M263.93,205.494c-2.08,0-4.361-0.4-5.986-1.141c-0.086-0.398-0.144-0.914-0.144-1.369
				c0-0.685,0.086-1.34,0.286-2.11c1.682,0.685,3.905,1.112,5.645,1.112c2.022,0,3.106-0.94,3.106-2.223
				c0-1.426-0.913-2.024-3.678-2.879c-3.079-0.941-5.331-2.425-5.331-5.732c0-3.533,3.052-5.502,7.07-5.502
				c1.853,0,3.508,0.287,4.617,0.656c0.088,0.312,0.145,0.827,0.145,1.567c0,0.543-0.057,1.37-0.171,1.826
				c-1.427-0.373-3.052-0.57-4.362-0.57c-2.139,0-3.307,0.712-3.307,1.851c0,1.342,1.055,1.883,3.619,2.681
				c3.08,0.969,5.359,2.426,5.359,5.847C270.8,203.242,267.863,205.494,263.93,205.494z"/>
		</g>
		<g>
			<path fill="#1A2A4F" d="M160.848,146.571c-2.336,0-3.818-1.524-3.818-4.942c0-3.333,1.512-4.971,3.848-4.971
				s3.788,1.638,3.788,4.971C164.664,145.047,163.184,146.571,160.848,146.571z M160.861,137.841c-1.453,0-2.336,0.982-2.336,3.761
				c0,2.734,0.869,3.788,2.32,3.788c1.453,0,2.322-1.053,2.322-3.788C163.169,138.823,162.312,137.841,160.861,137.841z"/>
			<path fill="#1A2A4F" d="M171.406,137.969h-3.975v2.906h3.291c0.057,0.17,0.07,0.412,0.07,0.583c0,0.185-0.016,0.399-0.07,0.584
				h-3.291v4.387c-0.242,0.043-0.455,0.071-0.711,0.071c-0.244,0-0.484-0.028-0.713-0.071v-9.628h5.396
				c0.058,0.169,0.072,0.412,0.072,0.583C171.479,137.569,171.463,137.784,171.406,137.969z"/>
			<path fill="#1A2A4F" d="M178.789,146.571c-2.336,0-3.816-1.524-3.816-4.942c0-3.333,1.51-4.971,3.848-4.971
				c2.334,0,3.787,1.638,3.787,4.971C182.605,145.047,181.125,146.571,178.789,146.571z M178.803,137.841
				c-1.453,0-2.335,0.982-2.335,3.761c0,2.734,0.868,3.788,2.321,3.788s2.32-1.053,2.32-3.788
				C181.109,138.823,180.257,137.841,178.803,137.841z"/>
			<path fill="#1A2A4F" d="M190.816,142.826c0,2.478-0.855,3.746-3.478,3.746c-2.733,0-3.433-1.211-3.433-3.746v-6.024
				c0.229-0.029,0.455-0.072,0.685-0.072c0.257,0,0.483,0.029,0.739,0.072v6.267c0,1.38,0.299,2.406,1.995,2.406
				c1.694,0,2.106-1.025,2.106-2.406v-6.267c0.229-0.029,0.43-0.072,0.656-0.072c0.256,0,0.469,0.029,0.727,0.072v6.024H190.816z"/>
			<path fill="#1A2A4F" d="M198.968,146.429c-0.286,0.043-0.569,0.071-0.854,0.071c-0.27,0-0.498-0.014-0.77-0.071l-2.107-3.704
				h-1.252v3.704c-0.243,0.043-0.485,0.071-0.729,0.071c-0.229,0-0.47-0.028-0.695-0.071v-9.628
				c0.695-0.043,1.537-0.072,2.348-0.072c2.009,0,3.619,0.612,3.619,2.919c0,1.268-0.698,2.38-1.866,2.808L198.968,146.429z
				 M195.064,137.841c-0.328,0-0.84,0-1.082,0.014v3.747h0.968c1.339,0,2.137-0.599,2.137-1.953
				C197.087,138.339,196.334,137.841,195.064,137.841z"/>
			<path fill="#1A2A4F" d="M209.741,145.917c-0.771,0.37-1.796,0.654-2.878,0.654c-3.006,0-4.401-1.979-4.401-4.857
				c0-1.68,0.584-3.132,1.651-4.044c0.757-0.642,1.797-1.011,2.992-1.011c0.883,0,1.767,0.185,2.308,0.427
				c0.06,0.186,0.071,0.356,0.071,0.555c0,0.201-0.014,0.371-0.071,0.557c-0.627-0.186-1.522-0.328-2.192-0.328
				c-0.941,0-1.682,0.299-2.193,0.783c-0.741,0.698-1.068,1.809-1.068,3.034c0,2.35,1.025,3.66,3.048,3.66
				c0.515,0,1.013-0.099,1.312-0.228v-3.133c0.229-0.029,0.441-0.071,0.67-0.071c0.256,0,0.498,0.028,0.755,0.071v3.931H209.741z"/>
			<path fill="#1A2A4F" d="M217.792,146.429c-0.285,0.043-0.569,0.071-0.854,0.071c-0.27,0-0.498-0.014-0.77-0.071l-2.105-3.704
				h-1.254v3.704c-0.244,0.043-0.485,0.071-0.729,0.071c-0.229,0-0.471-0.028-0.696-0.071v-9.628
				c0.696-0.043,1.538-0.072,2.349-0.072c2.01,0,3.619,0.612,3.619,2.919c0,1.268-0.699,2.38-1.865,2.808L217.792,146.429z
				 M213.889,137.841c-0.326,0-0.839,0-1.08,0.014v3.747h0.967c1.34,0,2.138-0.599,2.138-1.953
				C215.912,138.339,215.157,137.841,213.889,137.841z"/>
			<path fill="#1A2A4F" d="M224.205,144.149h-3.76l-0.741,2.28c-0.187,0.028-0.483,0.071-0.769,0.071
				c-0.199,0-0.483-0.028-0.67-0.071l3.318-9.628c0.171-0.043,0.525-0.072,0.712-0.072c0.199,0,0.526,0.043,0.655,0.072l3.561,9.628
				c-0.128,0.028-0.47,0.071-0.74,0.071c-0.213,0-0.556-0.014-0.769-0.071L224.205,144.149z M220.814,142.981h2.979l-1.141-3.276
				c-0.185-0.542-0.299-0.982-0.369-1.367h-0.014c-0.074,0.384-0.215,0.841-0.387,1.382L220.814,142.981z"/>
			<path fill="#1A2A4F" d="M233.184,145.589c-0.826,0.655-1.966,0.911-3.561,0.911c-0.656,0-1.881-0.028-2.309-0.071v-9.628
				c0.653-0.043,1.539-0.072,2.535-0.072c3.305,0,4.814,1.368,4.814,4.829C234.665,143.424,234.15,144.805,233.184,145.589z
				 M229.836,137.841c-0.285,0-0.798,0.014-1.098,0.028v7.463c0.257,0.028,0.728,0.043,1.226,0.043c1.083,0,1.796-0.299,2.294-0.827
				c0.67-0.697,0.912-1.823,0.912-3.02C233.17,139.093,232.471,137.841,229.836,137.841z"/>
			<path fill="#1A2A4F" d="M242.889,142.826c0,2.478-0.854,3.746-3.477,3.746c-2.734,0-3.434-1.211-3.434-3.746v-6.024
				c0.229-0.029,0.457-0.072,0.686-0.072c0.256,0,0.482,0.029,0.74,0.072v6.267c0,1.38,0.299,2.406,1.994,2.406
				c1.693,0,2.107-1.025,2.107-2.406v-6.267c0.229-0.029,0.428-0.072,0.655-0.072c0.257,0,0.47,0.029,0.728,0.072V142.826
				L242.889,142.826z"/>
			<path fill="#1A2A4F" d="M249.475,144.149h-3.761l-0.741,2.28c-0.186,0.028-0.484,0.071-0.769,0.071
				c-0.201,0-0.483-0.028-0.67-0.071l3.317-9.628c0.172-0.043,0.527-0.072,0.713-0.072c0.199,0,0.527,0.043,0.656,0.072l3.559,9.628
				c-0.127,0.028-0.469,0.071-0.739,0.071c-0.213,0-0.556-0.014-0.769-0.071L249.475,144.149z M246.084,142.981h2.977l-1.14-3.276
				c-0.187-0.542-0.299-0.982-0.37-1.367h-0.014c-0.072,0.384-0.214,0.841-0.385,1.382L246.084,142.981z"/>
			<path fill="#1A2A4F" d="M257.695,137.969h-2.879v8.46c-0.241,0.043-0.469,0.071-0.727,0.071c-0.242,0-0.47-0.028-0.697-0.071
				v-8.46h-2.733c-0.058-0.185-0.071-0.399-0.071-0.584c0-0.171,0.014-0.414,0.071-0.583h7.036c0.058,0.169,0.07,0.412,0.07,0.583
				C257.768,137.569,257.753,137.784,257.695,137.969z"/>
			<path fill="#1A2A4F" d="M264.279,146.429h-5.611v-9.628h5.396c0.058,0.169,0.072,0.412,0.072,0.583
				c0,0.185-0.016,0.4-0.072,0.584h-3.974v2.906h3.433c0.058,0.17,0.072,0.412,0.072,0.583c0,0.185-0.016,0.399-0.072,0.584h-3.433
				v3.219h4.188c0.057,0.172,0.07,0.414,0.07,0.583C264.352,146.03,264.336,146.244,264.279,146.429z"/>
			<path fill="#1A2A4F" d="M268.029,146.571c-0.783,0-2.037-0.17-2.735-0.542c-0.041-0.199-0.071-0.384-0.071-0.583
				c0-0.214,0.014-0.427,0.071-0.626c0.67,0.313,1.853,0.583,2.664,0.583c1.185,0,1.979-0.455,1.979-1.439
				c0-0.896-0.412-1.339-1.566-1.766l-0.727-0.271c-1.439-0.542-2.32-1.325-2.32-2.649c0-1.78,1.51-2.621,3.232-2.621
				c0.756,0,1.479,0.086,2.149,0.256c0.043,0.171,0.071,0.356,0.071,0.542c0,0.2-0.028,0.399-0.071,0.598
				c-0.698-0.142-1.353-0.229-2.063-0.229c-0.97,0-1.881,0.386-1.881,1.412c0,0.727,0.397,1.168,1.523,1.595l0.669,0.256
				c1.468,0.541,2.351,1.224,2.351,2.734C271.305,145.675,269.852,146.571,268.029,146.571z"/>
		</g>
		<g>
			<path fill="#1A2A4F" d="M182.122,158.4h-3.759l-0.742,2.281c-0.186,0.026-0.484,0.067-0.768,0.067
				c-0.201,0-0.484-0.026-0.67-0.067l3.317-9.629c0.171-0.045,0.526-0.072,0.713-0.072c0.198,0,0.526,0.041,0.654,0.072l3.562,9.629
				c-0.129,0.026-0.47,0.067-0.74,0.067c-0.213,0-0.557-0.015-0.77-0.067L182.122,158.4z M178.734,157.232h2.977l-1.141-3.276
				c-0.186-0.54-0.299-0.981-0.369-1.366h-0.016c-0.072,0.385-0.215,0.84-0.386,1.383L178.734,157.232z"/>
			<path fill="#1A2A4F" d="M191.643,160.682c-0.285,0.041-0.569,0.068-0.855,0.068c-0.27,0-0.497-0.014-0.77-0.068l-2.106-3.705
				h-1.254v3.705c-0.242,0.041-0.484,0.068-0.726,0.068c-0.229,0-0.473-0.027-0.699-0.068v-9.627
				c0.699-0.046,1.539-0.074,2.351-0.074c2.008,0,3.618,0.612,3.618,2.92c0,1.268-0.698,2.381-1.866,2.807L191.643,160.682z
				 M187.738,152.092c-0.327,0-0.84,0-1.082,0.014v3.746h0.969c1.339,0,2.137-0.598,2.137-1.951
				C189.762,152.59,189.007,152.092,187.738,152.092z"/>
			<path fill="#1A2A4F" d="M198.396,160.682h-5.61v-9.627h5.396c0.059,0.168,0.072,0.41,0.072,0.58c0,0.188-0.015,0.4-0.072,0.586
				h-3.973v2.904h3.434c0.056,0.17,0.069,0.412,0.069,0.585c0,0.185-0.015,0.397-0.069,0.585h-3.434v3.217h4.188
				c0.058,0.174,0.07,0.415,0.07,0.586C198.468,160.279,198.454,160.494,198.396,160.682z"/>
			<path fill="#1A2A4F" d="M204.014,160.682c-0.228,0.027-0.453,0.068-0.683,0.068c-0.257,0-0.485-0.027-0.741-0.068v-9.627
				c0.242-0.046,0.469-0.074,0.729-0.074c0.242,0,0.469,0.028,0.695,0.074V160.682z"/>
			<path fill="#1A2A4F" d="M213.305,160.682c-0.113,0.041-0.356,0.055-0.543,0.055c-0.171,0-0.342-0.014-0.496-0.055l-5.072-7.192
				v7.192c-0.129,0.041-0.471,0.068-0.685,0.068c-0.171,0-0.44-0.014-0.626-0.068v-9.627c0.113-0.031,0.412-0.061,0.555-0.061
				c0.187,0,0.43,0.015,0.57,0.061l4.985,7.077v-7.077c0.157-0.046,0.427-0.074,0.612-0.074c0.17,0,0.555,0.028,0.697,0.074v9.627
				H213.305z"/>
			<path fill="#1A2A4F" d="M221.271,160.682c-0.301,0.041-0.569,0.068-0.869,0.068c-0.256,0-0.584-0.027-0.842-0.068l-2.021-7.224
				c-0.241-0.841-0.343-1.608-0.343-2.403c0.215-0.061,0.4-0.074,0.699-0.074c0.256,0,0.427,0,0.696,0.074
				c0,0.754,0.058,1.353,0.3,2.262l1.196,4.56c0.156,0.612,0.271,1.052,0.312,1.409h0.016c0.043-0.357,0.157-0.883,0.285-1.396
				l1.639-6.834c0.227-0.046,0.455-0.074,0.684-0.074c0.228,0,0.439,0.028,0.67,0.074l1.623,6.834
				c0.113,0.471,0.228,0.971,0.271,1.396h0.015c0.058-0.426,0.186-0.955,0.313-1.409l1.237-4.56
				c0.214-0.754,0.313-1.508,0.313-2.262c0.187-0.046,0.386-0.074,0.671-0.074c0.228,0,0.482,0.015,0.698,0.074
				c0,0.795-0.101,1.549-0.344,2.403l-2.036,7.224c-0.243,0.041-0.557,0.068-0.812,0.068c-0.299,0-0.567-0.027-0.867-0.068
				l-1.453-5.969c-0.114-0.456-0.199-0.999-0.299-1.58h-0.015c-0.101,0.581-0.186,1.124-0.299,1.596L221.271,160.682z"/>
			<path fill="#1A2A4F" d="M233.198,160.823c-2.335,0-3.817-1.525-3.817-4.943c0-3.332,1.51-4.971,3.848-4.971
				c2.336,0,3.789,1.639,3.789,4.971C237.018,159.298,235.535,160.823,233.198,160.823z M233.213,152.092
				c-1.453,0-2.336,0.981-2.336,3.76c0,2.736,0.869,3.789,2.321,3.789s2.321-1.053,2.321-3.789
				C235.52,153.073,234.665,152.092,233.213,152.092z"/>
			<path fill="#1A2A4F" d="M244.77,160.682c-0.285,0.041-0.568,0.068-0.854,0.068c-0.271,0-0.499-0.014-0.771-0.068l-2.106-3.705
				h-1.254v3.705c-0.243,0.041-0.484,0.068-0.728,0.068c-0.229,0-0.47-0.027-0.697-0.068v-9.627c0.697-0.046,1.539-0.074,2.35-0.074
				c2.009,0,3.619,0.612,3.619,2.92c0,1.268-0.699,2.381-1.866,2.807L244.77,160.682z M240.866,152.092
				c-0.328,0-0.841,0-1.082,0.014v3.746h0.968c1.339,0,2.137-0.598,2.137-1.951C242.889,152.59,242.134,152.092,240.866,152.092z"/>
			<path fill="#1A2A4F" d="M250.898,153.443l-1.811,1.91l3.633,5.328c-0.3,0.055-0.514,0.067-0.812,0.067
				c-0.271,0-0.555-0.026-0.825-0.067l-2.962-4.332l-0.784,0.84v3.492c-0.198,0.041-0.483,0.067-0.728,0.067
				c-0.213,0-0.483-0.026-0.696-0.067v-9.629c0.213-0.045,0.483-0.072,0.696-0.072c0.242,0,0.527,0.027,0.728,0.072v4.399
				l2.507-2.677c0.541-0.586,0.982-1.239,1.055-1.724c0.213-0.045,0.47-0.073,0.684-0.073c0.243,0,0.542,0.028,0.741,0.073
				C252.123,151.922,251.652,152.648,250.898,153.443z"/>
			<path fill="#1A2A4F" d="M259.893,160.823c-2.336,0-3.817-1.525-3.817-4.943c0-3.332,1.51-4.971,3.847-4.971
				c2.335,0,3.788,1.639,3.788,4.971C263.709,159.298,262.229,160.823,259.893,160.823z M259.906,152.092
				c-1.454,0-2.336,0.981-2.336,3.76c0,2.736,0.867,3.789,2.32,3.789s2.321-1.053,2.321-3.789
				C262.213,153.073,261.357,152.092,259.906,152.092z"/>
			<path fill="#1A2A4F" d="M271.461,160.682c-0.285,0.041-0.568,0.068-0.854,0.068c-0.271,0-0.5-0.014-0.771-0.068l-2.106-3.705
				h-1.254v3.705c-0.242,0.041-0.484,0.068-0.727,0.068c-0.229,0-0.473-0.027-0.698-0.068v-9.627
				c0.698-0.046,1.538-0.074,2.351-0.074c2.008,0,3.617,0.612,3.617,2.92c0,1.268-0.699,2.381-1.865,2.807L271.461,160.682z
				 M267.559,152.092c-0.328,0-0.841,0-1.082,0.014v3.746h0.969c1.339,0,2.137-0.598,2.137-1.951
				C269.581,152.59,268.826,152.092,267.559,152.092z"/>
		</g>
		<g>
			<path fill="#1A2A4F" d="M184.189,166.471h-3.975v2.906h3.289c0.059,0.169,0.071,0.412,0.071,0.584
				c0,0.184-0.015,0.396-0.071,0.585h-3.289v4.388c-0.242,0.041-0.455,0.068-0.713,0.068c-0.242,0-0.484-0.027-0.711-0.068v-9.629
				h5.396c0.058,0.17,0.072,0.412,0.072,0.582C184.262,166.072,184.246,166.286,184.189,166.471z"/>
			<path fill="#1A2A4F" d="M192.27,171.328c0,2.477-0.855,3.746-3.477,3.746c-2.734,0-3.434-1.211-3.434-3.746v-6.023
				c0.229-0.031,0.457-0.072,0.685-0.072c0.256,0,0.483,0.027,0.74,0.072v6.266c0,1.381,0.3,2.408,1.995,2.408
				c1.693,0,2.107-1.027,2.107-2.408v-6.266c0.229-0.031,0.428-0.072,0.655-0.072c0.256,0,0.47,0.027,0.728,0.072V171.328
				L192.27,171.328z"/>
			<path fill="#1A2A4F" d="M200.421,174.934c-0.286,0.041-0.569,0.068-0.854,0.068c-0.271,0-0.498-0.014-0.771-0.068l-2.106-3.705
				h-1.254v3.705c-0.242,0.041-0.484,0.068-0.727,0.068c-0.229,0-0.471-0.027-0.697-0.068v-9.629
				c0.697-0.045,1.538-0.072,2.35-0.072c2.009,0,3.617,0.613,3.617,2.92c0,1.267-0.696,2.381-1.865,2.807L200.421,174.934z
				 M196.52,166.343c-0.33,0-0.842,0-1.084,0.015v3.746h0.969c1.34,0,2.137-0.599,2.137-1.951
				C198.54,166.84,197.786,166.343,196.52,166.343z"/>
			<path fill="#1A2A4F" d="M207.434,166.471h-2.879v8.463c-0.242,0.041-0.469,0.068-0.726,0.068c-0.242,0-0.47-0.027-0.698-0.068
				v-8.463h-2.734c-0.057-0.185-0.07-0.397-0.07-0.584c0-0.17,0.015-0.412,0.07-0.582h7.037c0.058,0.17,0.071,0.412,0.071,0.582
				C207.505,166.072,207.49,166.286,207.434,166.471z"/>
			<path fill="#1A2A4F" d="M215.514,174.934c-0.229,0.026-0.441,0.068-0.67,0.068c-0.257,0-0.498-0.027-0.755-0.068v-4.272h-4.259
				v4.272c-0.242,0.041-0.498,0.068-0.754,0.068c-0.242,0-0.443-0.027-0.67-0.068v-9.629c0.17-0.031,0.428-0.072,0.654-0.072
				c0.258,0,0.514,0.027,0.77,0.072v4.188h4.259v-4.188c0.242-0.045,0.484-0.072,0.74-0.072c0.241,0,0.456,0.027,0.685,0.072
				V174.934L215.514,174.934z"/>
			<path fill="#1A2A4F" d="M222.924,174.934h-5.611v-9.629h5.396c0.059,0.17,0.072,0.412,0.072,0.582
				c0,0.187-0.016,0.399-0.072,0.584h-3.973v2.906h3.431c0.058,0.169,0.071,0.412,0.071,0.584c0,0.184-0.014,0.396-0.071,0.585
				h-3.431v3.218h4.188c0.057,0.172,0.07,0.414,0.07,0.584C222.994,174.531,222.98,174.746,222.924,174.934z"/>
			<path fill="#1A2A4F" d="M230.661,174.934c-0.285,0.041-0.569,0.068-0.854,0.068c-0.27,0-0.498-0.014-0.77-0.068l-2.105-3.705
				h-1.255v3.705c-0.243,0.041-0.485,0.068-0.728,0.068c-0.229,0-0.471-0.027-0.696-0.068v-9.629
				c0.696-0.045,1.538-0.072,2.349-0.072c2.01,0,3.619,0.613,3.619,2.92c0,1.267-0.699,2.381-1.865,2.807L230.661,174.934z
				 M226.758,166.343c-0.326,0-0.839,0-1.081,0.015v3.746h0.968c1.34,0,2.138-0.599,2.138-1.951
				C228.781,166.84,228.025,166.343,226.758,166.343z"/>
			<path fill="#1A2A4F" d="M237.02,175.074c-0.781,0-2.035-0.17-2.734-0.543c-0.042-0.198-0.071-0.385-0.071-0.582
				c0-0.215,0.015-0.428,0.071-0.626c0.669,0.312,1.852,0.581,2.663,0.581c1.184,0,1.981-0.453,1.981-1.438
				c0-0.896-0.414-1.339-1.568-1.765l-0.727-0.271c-1.438-0.543-2.322-1.324-2.322-2.649c0-1.781,1.511-2.622,3.234-2.622
				c0.755,0,1.48,0.086,2.148,0.256c0.043,0.174,0.072,0.357,0.072,0.544c0,0.199-0.029,0.397-0.072,0.599
				c-0.696-0.144-1.353-0.229-2.062-0.229c-0.969,0-1.881,0.384-1.881,1.411c0,0.727,0.396,1.167,1.523,1.596l0.67,0.256
				c1.467,0.54,2.35,1.225,2.35,2.733C240.295,174.178,238.841,175.074,237.02,175.074z"/>
			<path fill="#1A2A4F" d="M247.464,166.471h-2.879v8.463c-0.242,0.041-0.469,0.068-0.726,0.068c-0.242,0-0.469-0.027-0.698-0.068
				v-8.463h-2.733c-0.059-0.185-0.072-0.397-0.072-0.584c0-0.17,0.015-0.412,0.072-0.582h7.036c0.058,0.17,0.07,0.412,0.07,0.582
				C247.534,166.072,247.521,166.286,247.464,166.471z"/>
			<path fill="#1A2A4F" d="M255.302,171.328c0,2.477-0.854,3.746-3.477,3.746c-2.734,0-3.433-1.211-3.433-3.746v-6.023
				c0.229-0.031,0.455-0.072,0.685-0.072c0.256,0,0.483,0.027,0.739,0.072v6.266c0,1.381,0.299,2.408,1.994,2.408
				c1.694,0,2.107-1.027,2.107-2.408v-6.266c0.229-0.031,0.428-0.072,0.656-0.072c0.256,0,0.469,0.027,0.727,0.072L255.302,171.328
				L255.302,171.328z"/>
			<path fill="#1A2A4F" d="M262.911,174.091c-0.825,0.655-1.964,0.911-3.56,0.911c-0.656,0-1.881-0.027-2.308-0.068v-9.629
				c0.653-0.045,1.537-0.072,2.533-0.072c3.306,0,4.815,1.367,4.815,4.828C264.395,171.927,263.881,173.307,262.911,174.091z
				 M259.562,166.343c-0.283,0-0.795,0.015-1.096,0.027v7.465c0.258,0.028,0.727,0.042,1.227,0.042c1.08,0,1.793-0.298,2.291-0.827
				c0.67-0.694,0.912-1.821,0.912-3.021C262.896,167.596,262.198,166.343,259.562,166.343z"/>
			<path fill="#1A2A4F" d="M267.488,171.557l-2.121-4.218c-0.357-0.713-0.57-1.452-0.57-2.052c0.199-0.042,0.371-0.057,0.698-0.057
				c0.256,0,0.497,0.015,0.696,0.057c0,0.484,0.059,0.941,0.357,1.566l1.651,3.404h0.028l1.65-3.316
				c0.299-0.6,0.355-1.184,0.355-1.637c0.201-0.061,0.344-0.074,0.656-0.074c0.241,0,0.498,0.028,0.713,0.074
				c0,0.539-0.145,1.278-0.527,2.033l-2.166,4.245v3.349c-0.199,0.043-0.483,0.069-0.711,0.069c-0.258,0-0.483-0.026-0.713-0.069
				v-3.375H267.488z"/>
		</g>
		<g>
			<path fill="#1A2A4F" d="M146.508,217.383h-3.007l-0.593,1.822c-0.149,0.021-0.387,0.057-0.615,0.057
				c-0.161,0-0.389-0.021-0.536-0.057l2.655-7.704c0.137-0.033,0.422-0.056,0.569-0.056c0.16,0,0.422,0.033,0.525,0.056l2.849,7.704
				c-0.104,0.021-0.377,0.057-0.593,0.057c-0.171,0-0.444-0.012-0.615-0.057L146.508,217.383z M143.797,216.447h2.381l-0.912-2.619
				c-0.149-0.434-0.239-0.787-0.296-1.096h-0.011c-0.058,0.309-0.171,0.672-0.308,1.105L143.797,216.447z"/>
			<path fill="#1A2A4F" d="M153.383,212.436h-3.178v2.324h2.631c0.046,0.139,0.059,0.332,0.059,0.469
				c0,0.146-0.013,0.32-0.059,0.469h-2.631v3.509c-0.193,0.034-0.365,0.058-0.571,0.058c-0.194,0-0.387-0.022-0.569-0.058v-7.704
				h4.318c0.047,0.141,0.059,0.331,0.059,0.467C153.439,212.116,153.43,212.288,153.383,212.436z"/>
			<path fill="#1A2A4F" d="M159.71,212.436h-2.302v6.771c-0.193,0.034-0.376,0.058-0.582,0.058c-0.193,0-0.375-0.022-0.559-0.058
				v-6.771h-2.188c-0.046-0.146-0.057-0.318-0.057-0.468c0-0.136,0.011-0.327,0.057-0.467h5.63c0.046,0.14,0.058,0.331,0.058,0.467
				C159.768,212.116,159.756,212.288,159.71,212.436z"/>
			<path fill="#1A2A4F" d="M165.035,219.205h-4.49v-7.704h4.318c0.046,0.14,0.057,0.331,0.057,0.467c0,0.148-0.011,0.32-0.057,0.468
				h-3.18v2.324h2.746c0.047,0.139,0.057,0.332,0.057,0.469c0,0.146-0.01,0.32-0.057,0.469h-2.746v2.574h3.352
				c0.046,0.136,0.057,0.33,0.057,0.468C165.092,218.886,165.081,219.059,165.035,219.205z"/>
			<path fill="#1A2A4F" d="M171.281,219.205c-0.229,0.034-0.456,0.057-0.684,0.057c-0.217,0-0.398-0.012-0.615-0.057l-1.688-2.964
				h-1.002v2.964c-0.193,0.034-0.389,0.057-0.582,0.057c-0.184,0-0.376-0.021-0.559-0.057v-7.704
				c0.559-0.033,1.229-0.056,1.881-0.056c1.605,0,2.895,0.49,2.895,2.335c0,1.014-0.56,1.903-1.492,2.245L171.281,219.205z
				 M168.159,212.333c-0.263,0-0.673,0-0.865,0.011v2.999h0.774c1.07,0,1.709-0.479,1.709-1.562
				C169.777,212.732,169.174,212.333,168.159,212.333z"/>
			<path fill="#1A2A4F" d="M179.148,218.271c0.045,0.136,0.058,0.33,0.058,0.468c0,0.146-0.013,0.319-0.058,0.467h-4.592v-7.704
				c0.192-0.033,0.398-0.057,0.604-0.057c0.193,0,0.354,0.022,0.535,0.057v6.77H179.148L179.148,218.271z"/>
			<path fill="#1A2A4F" d="M184.587,219.205h-4.489v-7.704h4.318c0.045,0.14,0.057,0.331,0.057,0.467
				c0,0.148-0.012,0.32-0.057,0.468h-3.18v2.324h2.746c0.045,0.139,0.058,0.332,0.058,0.469c0,0.146-0.013,0.32-0.058,0.469h-2.746
				v2.574h3.351c0.047,0.136,0.058,0.33,0.058,0.468C184.645,218.886,184.634,219.059,184.587,219.205z"/>
			<path fill="#1A2A4F" d="M189.877,217.383h-3.008l-0.592,1.822c-0.149,0.021-0.389,0.057-0.615,0.057
				c-0.161,0-0.389-0.021-0.536-0.057l2.655-7.704c0.136-0.033,0.422-0.056,0.568-0.056c0.16,0,0.422,0.033,0.523,0.056l2.85,7.704
				c-0.104,0.021-0.377,0.057-0.593,0.057c-0.171,0-0.444-0.012-0.614-0.057L189.877,217.383z M187.166,216.447h2.381l-0.91-2.619
				c-0.148-0.434-0.24-0.787-0.298-1.096h-0.011c-0.059,0.309-0.172,0.672-0.309,1.105L187.166,216.447z"/>
			<path fill="#1A2A4F" d="M196.841,213.529l-2.073,5.676c-0.113,0.034-0.375,0.057-0.568,0.057c-0.239,0-0.49-0.021-0.604-0.057
				l-2.119-5.664c-0.252-0.682-0.377-1.551-0.377-2.04c0.172-0.033,0.354-0.056,0.547-0.056c0.217,0,0.41,0.021,0.568,0.056
				c0.014,0.503,0.126,1.22,0.354,1.849l1.267,3.418c0.146,0.387,0.272,0.832,0.329,1.104h0.023c0.058-0.31,0.183-0.695,0.33-1.095
				l1.254-3.43c0.229-0.615,0.354-1.311,0.354-1.848c0.113-0.021,0.309-0.057,0.559-0.057c0.193,0,0.387,0.022,0.535,0.057
				C197.218,211.99,197.104,212.823,196.841,213.529z"/>
			<path fill="#1A2A4F" d="M199.238,219.205c-0.182,0.021-0.364,0.057-0.547,0.057c-0.205,0-0.389-0.021-0.592-0.057v-7.704
				c0.191-0.033,0.375-0.056,0.58-0.056c0.193,0,0.377,0.021,0.559,0.056V219.205z"/>
			<path fill="#1A2A4F" d="M206.727,219.205c-0.092,0.034-0.285,0.045-0.433,0.045c-0.14,0-0.274-0.011-0.399-0.045l-4.057-5.756
				v5.756c-0.104,0.034-0.376,0.057-0.548,0.057c-0.138,0-0.353-0.012-0.5-0.057v-7.704c0.092-0.022,0.329-0.045,0.442-0.045
				c0.148,0,0.344,0.012,0.457,0.045l3.988,5.664v-5.664c0.125-0.033,0.342-0.056,0.489-0.056c0.138,0,0.444,0.021,0.56,0.056
				V219.205L206.727,219.205z"/>
			<path fill="#1A2A4F" d="M213.691,218.794c-0.614,0.298-1.437,0.524-2.303,0.524c-2.402,0-3.521-1.582-3.521-3.885
				c0-1.345,0.467-2.509,1.321-3.236c0.604-0.514,1.438-0.812,2.394-0.812c0.707,0,1.413,0.15,1.847,0.343
				c0.045,0.146,0.059,0.287,0.059,0.444c0,0.159-0.014,0.296-0.059,0.445c-0.5-0.149-1.22-0.265-1.755-0.265
				c-0.754,0-1.345,0.239-1.755,0.629c-0.594,0.558-0.855,1.445-0.855,2.428c0,1.88,0.82,2.929,2.439,2.929
				c0.41,0,0.809-0.081,1.048-0.185v-2.506c0.183-0.023,0.353-0.058,0.535-0.058c0.206,0,0.399,0.022,0.604,0.058V218.794
				L213.691,218.794z"/>
			<path fill="#1A2A4F" d="M222.848,216.322c0,1.98-0.684,2.996-2.779,2.996c-2.188,0-2.746-0.969-2.746-2.996v-4.821
				c0.182-0.022,0.363-0.056,0.546-0.056c0.206,0,0.389,0.021,0.593,0.056v5.017c0,1.104,0.24,1.924,1.596,1.924
				c1.356,0,1.687-0.819,1.687-1.924v-5.017c0.183-0.022,0.343-0.056,0.524-0.056c0.205,0,0.375,0.021,0.58,0.056V216.322
				L222.848,216.322z"/>
			<path fill="#1A2A4F" d="M230.247,219.205c-0.093,0.034-0.285,0.045-0.435,0.045c-0.138,0-0.273-0.011-0.398-0.045l-4.057-5.756
				v5.756c-0.103,0.034-0.375,0.057-0.549,0.057c-0.136,0-0.351-0.012-0.5-0.057v-7.704c0.092-0.022,0.33-0.045,0.443-0.045
				c0.148,0,0.343,0.012,0.457,0.045l3.988,5.664v-5.664c0.125-0.033,0.341-0.056,0.49-0.056c0.135,0,0.443,0.021,0.559,0.056
				L230.247,219.205L230.247,219.205z"/>
			<path fill="#1A2A4F" d="M232.939,219.205c-0.184,0.021-0.364,0.057-0.547,0.057c-0.207,0-0.39-0.021-0.594-0.057v-7.704
				c0.194-0.033,0.375-0.056,0.581-0.056c0.194,0,0.376,0.021,0.56,0.056V219.205z"/>
			<path fill="#1A2A4F" d="M239.551,213.529l-2.074,5.676c-0.113,0.034-0.377,0.057-0.57,0.057c-0.239,0-0.489-0.021-0.604-0.057
				l-2.118-5.664c-0.252-0.682-0.377-1.551-0.377-2.04c0.172-0.033,0.354-0.056,0.547-0.056c0.217,0,0.412,0.021,0.569,0.056
				c0.013,0.503,0.125,1.22,0.354,1.849l1.266,3.418c0.146,0.387,0.271,0.832,0.329,1.104h0.024c0.057-0.31,0.181-0.695,0.328-1.095
				l1.254-3.43c0.229-0.615,0.354-1.311,0.354-1.848c0.114-0.021,0.308-0.057,0.56-0.057c0.191,0,0.387,0.022,0.535,0.057
				C239.927,211.99,239.812,212.823,239.551,213.529z"/>
			<path fill="#1A2A4F" d="M245.238,219.205h-4.488v-7.704h4.318c0.045,0.14,0.058,0.331,0.058,0.467
				c0,0.148-0.013,0.32-0.058,0.468h-3.18v2.324h2.746c0.047,0.139,0.059,0.332,0.059,0.469c0,0.146-0.012,0.32-0.059,0.469h-2.746
				v2.574h3.35c0.047,0.136,0.059,0.33,0.059,0.468C245.297,218.886,245.285,219.059,245.238,219.205z"/>
			<path fill="#1A2A4F" d="M251.484,219.205c-0.227,0.034-0.455,0.057-0.684,0.057c-0.215,0-0.396-0.012-0.615-0.057l-1.687-2.964
				h-1.002v2.964c-0.192,0.034-0.388,0.057-0.581,0.057c-0.184,0-0.376-0.021-0.559-0.057v-7.704
				c0.559-0.033,1.229-0.056,1.879-0.056c1.606,0,2.896,0.49,2.896,2.335c0,1.014-0.56,1.903-1.494,2.245L251.484,219.205z
				 M248.363,212.333c-0.262,0-0.672,0-0.865,0.011v2.999h0.775c1.069,0,1.707-0.479,1.707-1.562
				C249.98,212.732,249.378,212.333,248.363,212.333z"/>
			<path fill="#1A2A4F" d="M254.406,219.318c-0.627,0-1.629-0.135-2.188-0.434c-0.034-0.158-0.058-0.306-0.058-0.468
				c0-0.17,0.012-0.342,0.058-0.501c0.536,0.251,1.48,0.467,2.132,0.467c0.945,0,1.584-0.363,1.584-1.148
				c0-0.719-0.33-1.07-1.254-1.414l-0.58-0.217c-1.151-0.432-1.859-1.061-1.859-2.119c0-1.424,1.209-2.099,2.589-2.099
				c0.604,0,1.185,0.069,1.72,0.206c0.035,0.137,0.059,0.283,0.059,0.436c0,0.158-0.022,0.315-0.059,0.479
				c-0.559-0.113-1.083-0.184-1.652-0.184c-0.774,0-1.504,0.309-1.504,1.127c0,0.582,0.319,0.935,1.219,1.277l0.537,0.207
				c1.172,0.43,1.879,0.979,1.879,2.188C257.027,218.602,255.865,219.318,254.406,219.318z"/>
			<path fill="#1A2A4F" d="M259.311,219.205c-0.183,0.021-0.365,0.057-0.547,0.057c-0.207,0-0.39-0.021-0.593-0.057v-7.704
				c0.192-0.033,0.375-0.056,0.581-0.056c0.193,0,0.376,0.021,0.559,0.056V219.205z"/>
			<path fill="#1A2A4F" d="M265.829,212.436h-2.304v6.771c-0.191,0.034-0.375,0.058-0.58,0.058c-0.194,0-0.377-0.022-0.559-0.058
				v-6.771h-2.188c-0.046-0.146-0.058-0.318-0.058-0.468c0-0.136,0.012-0.327,0.058-0.467h5.63c0.045,0.14,0.057,0.331,0.057,0.467
				C265.886,212.116,265.874,212.288,265.829,212.436z"/>
			<path fill="#1A2A4F" d="M268.463,216.506l-1.697-3.373c-0.283-0.57-0.455-1.165-0.455-1.643c0.158-0.034,0.297-0.045,0.559-0.045
				c0.205,0,0.398,0.011,0.559,0.045c0,0.386,0.047,0.751,0.285,1.255l1.321,2.722h0.022l1.321-2.654
				c0.239-0.479,0.283-0.945,0.283-1.312c0.161-0.045,0.274-0.056,0.524-0.056c0.194,0,0.399,0.021,0.569,0.056
				c0,0.435-0.112,1.026-0.422,1.632l-1.729,3.395v2.679c-0.162,0.034-0.389,0.058-0.57,0.058c-0.206,0-0.389-0.022-0.57-0.058
				V216.506z"/>
		</g>
	</g>
	<g id="Layer_2" display="inline">
		
			<line fill="none" stroke="#C0588E" stroke-width="1.5" stroke-dasharray="4.476,2.976" x1="13.422" y1="73.379" x2="13.422" y2="230.576"/>
		
			<line fill="none" stroke="#C0588E" stroke-width="1.5" stroke-dasharray="4.45,2.95" x1="20.797" y1="235.884" x2="282.327" y2="235.884"/>
		
			<line fill="none" stroke="#C0588E" stroke-width="1.5" stroke-dasharray="4.476,2.976" x1="287.602" y1="228.455" x2="287.602" y2="71.258"/>
		
			<line fill="none" stroke="#C0588E" stroke-width="1.5" stroke-dasharray="4.45,2.95" x1="280.227" y1="65.949" x2="18.695" y2="65.949"/>
		<path fill="none" stroke="#C0588E" stroke-width="1.5" d="M16.593,65.949h-3.17v3.19 M287.602,69.139v-3.19h-3.172
			 M284.43,235.884h3.172v-3.188 M13.422,232.693v3.189h3.17"/>
		<g>
			<g>
				<defs>
					<rect id="SVGID_1_" x="20.36" y="81.565" width="115.171" height="142.096"/>
				</defs>
				<clipPath id="SVGID_2_">
					<use xlink:href="#SVGID_1_"  overflow="visible"/>
				</clipPath>
				<path clip-path="url(#SVGID_2_)" fill="#C0588E" d="M94.362,169.09c0,0-13.331,4.42-15.9,19.938
					c-0.005,0.039-0.032,0.039-0.039,0c-2.569-15.518-15.901-19.938-15.901-19.938l8.739-8.679
					c-12.32-5.525-15.596-24.315-15.596-24.315c-0.696-2.714-0.78-4.575-0.78-4.575c6.167-0.419,27.694-2.273,29.165-9.25
					c2.031,3.748,12.772,13.168,17.118,13.882c0,0-4.218,18.58-15.742,24.244L94.362,169.09z M121.379,172.934
					c-1.04-2.482-3.537-4.074-5.919-5.053l-7.944-3.656c-0.008-5.828-0.064-34.874-0.03-37.93c0.045-4.752-0.521-8.996-1.768-12.668
					l9.89-3.573l0.022,9.138h-0.67c-0.468-0.043-0.881,0.294-0.934,0.761l-0.871,7.548c-0.028,0.23,0.043,0.458,0.188,0.638
					c0.147,0.179,0.357,0.294,0.589,0.315l6.907-0.001c0.233-0.027,0.445-0.139,0.588-0.319c0.148-0.181,0.213-0.413,0.187-0.643
					c-0.174-1.482-0.348-2.961-0.52-4.444l-0.36-3.104c-0.056-0.462-0.469-0.799-0.937-0.756h-0.672l0.016-10.413l0.351-0.127
					l1.169-0.423c0.992-0.358,1.651-1.298,1.651-2.349c0-1.053-0.659-1.996-1.651-2.354l-41.368-14.95
					c-0.551-0.199-1.151-0.199-1.699,0l-41.37,14.951c-0.991,0.356-1.65,1.299-1.65,2.352c0,1.052,0.659,1.991,1.65,2.351
					l15.002,5.421c-1.31,3.766-1.905,8.122-1.858,12.986l0.001,37.591l-7.944,3.656c-2.384,0.979-4.729,2.464-5.92,5.053
					c0,0-17.517,44.738-8.015,44.738h101.903C138.894,217.672,121.379,172.934,121.379,172.934"/>
			</g>
		</g>
	</g>
</g>
<g id="Layer_2_1_">
	
		<line fill="none" stroke="#7D7D98" stroke-width="1.701" stroke-dasharray="4.991,3.29" x1="13.76" y1="57.78" x2="13.76" y2="222.438"/>
	
		<line fill="none" stroke="#7D7D98" stroke-width="1.701" stroke-dasharray="5.047,3.346" x1="21.145" y1="227.648" x2="53.5" y2="227.648"/>
	
		<line fill="none" stroke="#7D7D98" stroke-width="1.701" stroke-dasharray="4.991,3.29" x1="288.338" y1="220.368" x2="288.338" y2="55.709"/>
	
		<line fill="none" stroke="#7D7D98" stroke-width="1.701" stroke-dasharray="5.047,3.346" x1="280.953" y1="50.5" x2="19.04" y2="50.5"/>
	<path fill="none" stroke="#7D7D98" stroke-width="1.701" d="M16.935,50.5H13.76v3.141 M288.338,53.641V50.5h-3.175
		 M285.163,227.648h3.175v-3.14 M13.76,224.509v3.14h3.175"/>
	<g>
		<path fill="#1A2A4F" d="M173.935,111.141c-2.525,0-5.304-0.379-6.819-0.884c-0.252-0.884-0.315-2.462-0.315-3.157
			c0-1.2,0.189-2.841,0.442-3.789c1.768,0.442,3.788,0.758,6.251,0.758c4.987,0,8.839-4.23,9.218-10.355
			c-1.831,1.2-4.356,1.958-7.387,1.958c-8.209,0-12.502-5.683-12.502-13.449c0-8.208,5.556-15.027,14.459-15.027
			c12.187,0,15.217,9.597,15.217,19.005C192.498,98.324,187.763,111.141,173.935,111.141z M177.471,74.393
			c-3.283,0-5.557,2.589-5.557,7.451c0,4.483,1.768,6.945,5.493,6.945c2.021,0,4.673-1.073,5.81-2.273
			c0-0.315,0.062-1.2,0.062-1.642C183.279,80.329,182.9,74.393,177.471,74.393z"/>
		<path fill="#1A2A4F" d="M227.41,101.291h-5.556v9.219c-0.758,0.126-2.526,0.316-4.483,0.316c-1.831,0-3.283-0.126-4.294-0.316
			v-9.219h-18.437c-0.253-0.821-0.442-2.273-0.442-3.409c0-1.326,0.189-2.526,0.442-3.41l12.943-26.646
			c1.137-0.189,3.031-0.316,4.42-0.316c1.958,0,4.041,0.189,4.988,0.316l-12.943,26.014h9.028v-8.714
			c1.137-0.189,2.905-0.315,4.357-0.315c1.515,0,3.346,0.126,4.42,0.315v8.714h5.556c0.316,1.01,0.442,2.399,0.442,3.725
			C227.853,98.892,227.663,100.597,227.41,101.291z"/>
		<path fill="#1A2A4F" d="M230.5,76.982c0-5.43,2.462-10.103,9.471-10.103c7.072,0,9.472,4.672,9.472,10.103
			c0,5.304-2.399,10.229-9.472,10.229C232.962,87.211,230.5,82.286,230.5,76.982z M243.949,111.204
			c-2.716-0.757-5.494-2.588-6.883-4.546l25.888-40.6c2.589,0.694,5.367,2.273,6.945,4.23L243.949,111.204z M242.118,77.108
			c0-2.715-0.568-4.42-2.147-4.42c-1.578,0-2.146,1.705-2.146,4.42c0,2.715,0.631,4.293,2.146,4.293S242.118,79.823,242.118,77.108z
			 M256.767,101.228c0-5.43,2.462-10.103,9.471-10.103c7.072,0,9.472,4.672,9.472,10.103c0,5.304-2.399,10.229-9.472,10.229
			C259.229,111.457,256.767,106.532,256.767,101.228z M268.385,101.354c0-2.715-0.568-4.42-2.147-4.42
			c-1.578,0-2.146,1.705-2.146,4.42c0,2.715,0.632,4.293,2.146,4.293C267.753,105.648,268.385,104.069,268.385,101.354z"/>
	</g>
	<g>
		<path fill="#9493AB" d="M155.572,193.726c-5.196,0-7.195-3.654-7.195-9.05c0-6.081,2.255-10.82,8.565-10.82
			c1.085,0,2.598,0.172,3.227,0.4c0.113,0.399,0.143,1.056,0.143,1.37c0,0.542-0.058,1.284-0.2,1.685
			c-0.742-0.114-1.827-0.2-2.655-0.2c-2.769,0-4.425,1.685-4.739,4.796c0.886-0.57,2.398-1.056,3.798-1.056
			c3.426,0,5.595,2.569,5.595,6.023C162.109,190.729,159.569,193.726,155.572,193.726z M155.601,184.02
			c-1.228,0-2.455,0.514-3.055,1.085c-0.028,0.285-0.028,0.656-0.028,1.084c0,1.771,0.628,4.283,2.94,4.283
			c1.599,0,2.427-1.514,2.427-3.397C157.885,185.219,157.143,184.02,155.601,184.02z"/>
		<path fill="#9493AB" d="M189.798,193.44c-0.343,0.086-1.113,0.143-1.913,0.143c-0.856,0-1.655-0.086-1.998-0.143l-0.343-11.591
			l-4.226,9.764c-0.313,0.114-0.999,0.171-1.427,0.171c-0.515,0-1.143-0.057-1.456-0.143l-4.226-9.792l-0.371,11.591
			c-0.371,0.086-1.256,0.143-2.027,0.143c-0.457,0-1.228-0.057-1.741-0.143l0.828-19.299c0.542-0.058,1.085-0.144,1.655-0.144
			c0.686,0,1.342,0.058,1.685,0.144l5.653,13.104l5.681-13.104c0.571-0.086,1.143-0.144,1.656-0.144
			c0.656,0,1.256,0.058,1.685,0.144L189.798,193.44z"/>
		<path fill="#9493AB" d="M200.357,193.726c-5.282,0-8.08-3.654-8.08-9.935c0-6.281,2.798-9.936,8.08-9.936
			c5.281,0,8.079,3.654,8.079,9.936C208.437,190.071,205.639,193.726,200.357,193.726z M200.357,177.367
			c-2.456,0-3.854,1.885-3.854,6.424s1.398,6.424,3.854,6.424c2.455,0,3.854-1.885,3.854-6.424S202.812,177.367,200.357,177.367z"/>
		<path fill="#9493AB" d="M226.619,193.44c-0.286,0.057-0.971,0.114-1.456,0.114s-0.971-0.028-1.428-0.114l-8.879-12.361v12.361
			c-0.229,0.057-1.085,0.143-1.884,0.143c-0.657,0-1.428-0.086-1.827-0.143v-19.299c0.456-0.086,0.999-0.114,1.513-0.114
			c0.542,0,1.113,0.057,1.542,0.114l8.707,12.133v-12.133c0.571-0.086,1.313-0.144,1.855-0.144c0.543,0,1.342,0.058,1.856,0.144
			V193.44z"/>
		<path fill="#9493AB" d="M243.031,177.624h-5.11v15.816c-0.543,0.086-1.313,0.143-2.027,0.143s-1.484-0.057-2.056-0.143v-15.816
			h-5.11c-0.114-0.371-0.199-1.256-0.199-1.741s0.114-1.37,0.229-1.741h14.274c0.114,0.371,0.199,1.256,0.199,1.741
			S243.146,177.253,243.031,177.624z"/>
		<path fill="#9493AB" d="M259.986,193.44c-0.515,0.086-1.228,0.143-2.027,0.143s-1.513-0.057-2.056-0.143v-7.994h-6.709v7.994
			c-0.542,0.086-1.171,0.143-2.027,0.143c-0.771,0-1.513-0.057-2.055-0.143v-19.299c0.542-0.086,1.342-0.144,2.055-0.144
			c0.8,0,1.514,0.058,2.027,0.144v7.822h6.709v-7.822c0.628-0.086,1.342-0.144,2.056-0.144c0.686,0,1.542,0.058,2.027,0.144V193.44z
			"/>
		<path fill="#9493AB" d="M268.833,193.726c-2.084,0-4.368-0.399-5.996-1.142c-0.085-0.399-0.143-0.914-0.143-1.37
			c0-0.686,0.086-1.342,0.286-2.113c1.684,0.686,3.911,1.114,5.652,1.114c2.027,0,3.112-0.942,3.112-2.228
			c0-1.427-0.914-2.026-3.684-2.883c-3.083-0.942-5.338-2.427-5.338-5.739c0-3.54,3.055-5.51,7.08-5.51
			c1.855,0,3.511,0.286,4.625,0.657c0.085,0.313,0.143,0.827,0.143,1.569c0,0.543-0.058,1.371-0.172,1.828
			c-1.427-0.372-3.055-0.571-4.367-0.571c-2.142,0-3.312,0.714-3.312,1.855c0,1.342,1.057,1.885,3.626,2.684
			c3.083,0.971,5.367,2.427,5.367,5.853C275.713,191.471,272.772,193.726,268.833,193.726z"/>
	</g>
	<g>
		<path fill="#1A2A4F" d="M165.602,135.568c-2.34,0-3.823-1.526-3.823-4.951c0-3.338,1.512-4.979,3.852-4.979
			s3.795,1.641,3.795,4.979C169.425,134.042,167.941,135.568,165.602,135.568z M165.616,126.823c-1.455,0-2.34,0.984-2.34,3.767
			c0,2.739,0.87,3.795,2.325,3.795s2.325-1.056,2.325-3.795C167.927,127.807,167.071,126.823,165.616,126.823z"/>
		<path fill="#1A2A4F" d="M176.177,126.951h-3.98v2.911h3.295c0.058,0.171,0.071,0.414,0.071,0.585c0,0.185-0.014,0.399-0.071,0.585
			h-3.295v4.394c-0.243,0.043-0.457,0.071-0.714,0.071c-0.242,0-0.485-0.028-0.713-0.071v-9.645h5.407
			c0.057,0.171,0.071,0.414,0.071,0.585C176.248,126.552,176.233,126.766,176.177,126.951z"/>
		<path fill="#1A2A4F" d="M183.569,135.568c-2.34,0-3.823-1.526-3.823-4.951c0-3.338,1.512-4.979,3.852-4.979
			s3.795,1.641,3.795,4.979C187.393,134.042,185.909,135.568,183.569,135.568z M183.584,126.823c-1.455,0-2.34,0.984-2.34,3.767
			c0,2.739,0.87,3.795,2.325,3.795s2.325-1.056,2.325-3.795C185.895,127.807,185.039,126.823,183.584,126.823z"/>
		<path fill="#1A2A4F" d="M195.613,131.816c0,2.482-0.855,3.752-3.48,3.752c-2.739,0-3.438-1.212-3.438-3.752v-6.035
			c0.229-0.028,0.456-0.071,0.685-0.071c0.257,0,0.485,0.028,0.742,0.071v6.277c0,1.384,0.3,2.411,1.997,2.411
			c1.698,0,2.111-1.027,2.111-2.411v-6.277c0.229-0.028,0.429-0.071,0.656-0.071c0.257,0,0.471,0.028,0.728,0.071V131.816z"/>
		<path fill="#1A2A4F" d="M203.777,135.426c-0.285,0.043-0.57,0.071-0.856,0.071c-0.271,0-0.499-0.014-0.771-0.071l-2.111-3.709
			h-1.255v3.709c-0.243,0.043-0.485,0.071-0.728,0.071c-0.229,0-0.472-0.028-0.699-0.071v-9.645
			c0.699-0.043,1.541-0.071,2.354-0.071c2.012,0,3.624,0.613,3.624,2.925c0,1.27-0.699,2.382-1.869,2.811L203.777,135.426z
			 M199.868,126.823c-0.328,0-0.842,0-1.084,0.014v3.752h0.97c1.341,0,2.14-0.599,2.14-1.955
			C201.894,127.322,201.138,126.823,199.868,126.823z"/>
		<path fill="#1A2A4F" d="M214.566,134.912c-0.771,0.371-1.798,0.656-2.882,0.656c-3.01,0-4.408-1.983-4.408-4.865
			c0-1.684,0.585-3.139,1.655-4.052c0.756-0.642,1.797-1.013,2.995-1.013c0.885,0,1.77,0.186,2.312,0.428
			c0.058,0.186,0.071,0.357,0.071,0.557s-0.014,0.371-0.071,0.557c-0.628-0.186-1.526-0.328-2.197-0.328
			c-0.941,0-1.684,0.299-2.197,0.785c-0.741,0.699-1.069,1.812-1.069,3.039c0,2.354,1.027,3.667,3.053,3.667
			c0.514,0,1.013-0.1,1.312-0.228v-3.139c0.229-0.029,0.442-0.071,0.671-0.071c0.257,0,0.499,0.028,0.756,0.071V134.912z"/>
		<path fill="#1A2A4F" d="M222.631,135.426c-0.285,0.043-0.57,0.071-0.856,0.071c-0.271,0-0.499-0.014-0.771-0.071l-2.111-3.709
			h-1.255v3.709c-0.243,0.043-0.485,0.071-0.728,0.071c-0.229,0-0.472-0.028-0.699-0.071v-9.645
			c0.699-0.043,1.541-0.071,2.354-0.071c2.012,0,3.624,0.613,3.624,2.925c0,1.27-0.699,2.382-1.869,2.811L222.631,135.426z
			 M218.722,126.823c-0.328,0-0.842,0-1.084,0.014v3.752h0.97c1.341,0,2.14-0.599,2.14-1.955
			C220.747,127.322,219.991,126.823,218.722,126.823z"/>
		<path fill="#1A2A4F" d="M229.054,133.143h-3.767l-0.742,2.283c-0.186,0.028-0.484,0.071-0.771,0.071
			c-0.199,0-0.484-0.028-0.67-0.071l3.324-9.645c0.171-0.043,0.527-0.071,0.713-0.071c0.2,0,0.528,0.043,0.656,0.071l3.567,9.645
			c-0.129,0.028-0.472,0.071-0.742,0.071c-0.214,0-0.557-0.014-0.771-0.071L229.054,133.143z M225.658,131.973h2.981l-1.142-3.281
			c-0.185-0.542-0.299-0.984-0.37-1.37h-0.015c-0.071,0.385-0.214,0.842-0.385,1.384L225.658,131.973z"/>
		<path fill="#1A2A4F" d="M238.059,134.584c-0.828,0.656-1.969,0.913-3.567,0.913c-0.656,0-1.883-0.028-2.311-0.071v-9.645
			c0.656-0.043,1.541-0.071,2.539-0.071c3.311,0,4.822,1.37,4.822,4.836C239.542,132.416,239.028,133.799,238.059,134.584z
			 M234.706,126.823c-0.286,0-0.8,0.014-1.099,0.029v7.476c0.257,0.029,0.728,0.043,1.227,0.043c1.084,0,1.798-0.3,2.297-0.828
			c0.671-0.699,0.913-1.826,0.913-3.024C238.044,128.078,237.345,126.823,234.706,126.823z"/>
		<path fill="#1A2A4F" d="M247.763,131.816c0,2.482-0.855,3.752-3.48,3.752c-2.739,0-3.438-1.212-3.438-3.752v-6.035
			c0.229-0.028,0.456-0.071,0.685-0.071c0.257,0,0.485,0.028,0.742,0.071v6.277c0,1.384,0.3,2.411,1.997,2.411
			c1.698,0,2.111-1.027,2.111-2.411v-6.277c0.229-0.028,0.429-0.071,0.656-0.071c0.257,0,0.471,0.028,0.728,0.071V131.816z"/>
		<path fill="#1A2A4F" d="M254.372,133.143h-3.767l-0.742,2.283c-0.186,0.028-0.484,0.071-0.771,0.071
			c-0.199,0-0.484-0.028-0.67-0.071l3.324-9.645c0.171-0.043,0.527-0.071,0.713-0.071c0.2,0,0.528,0.043,0.656,0.071l3.567,9.645
			c-0.129,0.028-0.472,0.071-0.742,0.071c-0.214,0-0.557-0.014-0.771-0.071L254.372,133.143z M250.977,131.973h2.981l-1.142-3.281
			c-0.185-0.542-0.299-0.984-0.37-1.37h-0.015c-0.071,0.385-0.214,0.842-0.385,1.384L250.977,131.973z"/>
		<path fill="#1A2A4F" d="M262.605,126.951h-2.882v8.475c-0.242,0.043-0.471,0.071-0.728,0.071c-0.242,0-0.471-0.028-0.699-0.071
			v-8.475h-2.739c-0.057-0.186-0.071-0.399-0.071-0.585c0-0.171,0.015-0.414,0.071-0.585h7.048c0.058,0.171,0.071,0.414,0.071,0.585
			C262.677,126.552,262.663,126.766,262.605,126.951z"/>
		<path fill="#1A2A4F" d="M269.186,135.426h-5.621v-9.645h5.407c0.057,0.171,0.071,0.414,0.071,0.585
			c0,0.186-0.015,0.399-0.071,0.585h-3.98v2.911h3.438c0.057,0.171,0.071,0.414,0.071,0.585c0,0.185-0.015,0.399-0.071,0.585h-3.438
			v3.224h4.194c0.057,0.171,0.071,0.414,0.071,0.585C269.257,135.026,269.242,135.24,269.186,135.426z"/>
		<path fill="#1A2A4F" d="M272.939,135.568c-0.784,0-2.04-0.171-2.739-0.542c-0.043-0.2-0.071-0.385-0.071-0.585
			c0-0.214,0.015-0.428,0.071-0.628c0.671,0.314,1.855,0.585,2.668,0.585c1.185,0,1.983-0.457,1.983-1.441
			c0-0.899-0.414-1.341-1.569-1.769l-0.728-0.271c-1.441-0.542-2.325-1.327-2.325-2.654c0-1.783,1.512-2.625,3.238-2.625
			c0.756,0,1.483,0.085,2.154,0.257c0.043,0.171,0.071,0.356,0.071,0.542c0,0.2-0.028,0.399-0.071,0.599
			c-0.699-0.143-1.355-0.228-2.069-0.228c-0.97,0-1.883,0.385-1.883,1.413c0,0.728,0.399,1.169,1.526,1.598l0.671,0.257
			c1.47,0.542,2.354,1.227,2.354,2.739C276.221,134.669,274.766,135.568,272.939,135.568z"/>
	</g>
	<g>
		<path fill="#1A2A4F" d="M186.909,147.416h-3.767l-0.742,2.283c-0.186,0.028-0.484,0.071-0.771,0.071
			c-0.199,0-0.484-0.028-0.67-0.071l3.324-9.645c0.171-0.043,0.527-0.071,0.713-0.071c0.2,0,0.528,0.043,0.656,0.071l3.567,9.645
			c-0.129,0.028-0.472,0.071-0.742,0.071c-0.214,0-0.557-0.014-0.771-0.071L186.909,147.416z M183.514,146.246h2.981l-1.142-3.281
			c-0.185-0.542-0.299-0.984-0.37-1.37h-0.015c-0.071,0.385-0.214,0.842-0.385,1.384L183.514,146.246z"/>
		<path fill="#1A2A4F" d="M196.442,149.698c-0.285,0.043-0.57,0.071-0.856,0.071c-0.271,0-0.499-0.014-0.771-0.071l-2.111-3.709
			h-1.255v3.709c-0.243,0.043-0.485,0.071-0.728,0.071c-0.229,0-0.472-0.028-0.699-0.071v-9.645
			c0.699-0.043,1.541-0.071,2.354-0.071c2.012,0,3.624,0.613,3.624,2.925c0,1.27-0.699,2.382-1.869,2.811L196.442,149.698z
			 M192.533,141.095c-0.328,0-0.842,0-1.084,0.014v3.752h0.97c1.341,0,2.14-0.599,2.14-1.955
			C194.559,141.595,193.803,141.095,192.533,141.095z"/>
		<path fill="#1A2A4F" d="M203.207,149.698h-5.621v-9.645h5.407c0.057,0.171,0.071,0.414,0.071,0.585
			c0,0.186-0.015,0.399-0.071,0.585h-3.98v2.911h3.438c0.057,0.171,0.071,0.414,0.071,0.585c0,0.185-0.015,0.399-0.071,0.585h-3.438
			v3.224h4.194c0.057,0.171,0.071,0.414,0.071,0.585C203.278,149.299,203.264,149.513,203.207,149.698z"/>
		<path fill="#1A2A4F" d="M208.832,149.698c-0.229,0.028-0.457,0.071-0.686,0.071c-0.257,0-0.484-0.028-0.741-0.071v-9.645
			c0.242-0.043,0.471-0.071,0.728-0.071c0.242,0,0.471,0.028,0.699,0.071V149.698z"/>
		<path fill="#1A2A4F" d="M218.12,149.698c-0.114,0.043-0.356,0.057-0.542,0.057c-0.171,0-0.343-0.014-0.499-0.057L212,142.494
			v7.205c-0.129,0.043-0.471,0.071-0.685,0.071c-0.172,0-0.442-0.014-0.628-0.071v-9.645c0.114-0.028,0.413-0.057,0.556-0.057
			c0.186,0,0.429,0.014,0.571,0.057l4.993,7.091v-7.091c0.157-0.043,0.428-0.071,0.613-0.071c0.172,0,0.557,0.028,0.699,0.071
			V149.698z"/>
		<path fill="#1A2A4F" d="M226.1,149.698c-0.3,0.043-0.57,0.071-0.87,0.071c-0.257,0-0.585-0.028-0.842-0.071l-2.026-7.233
			c-0.242-0.842-0.342-1.612-0.342-2.411c0.214-0.057,0.399-0.071,0.699-0.071c0.257,0,0.428,0,0.699,0.071
			c0,0.756,0.057,1.355,0.299,2.269l1.199,4.565c0.156,0.613,0.271,1.056,0.313,1.413h0.015c0.042-0.357,0.156-0.885,0.285-1.398
			l1.641-6.848c0.229-0.043,0.456-0.071,0.685-0.071s0.442,0.028,0.671,0.071l1.626,6.848c0.114,0.471,0.229,0.97,0.271,1.398h0.014
			c0.058-0.428,0.186-0.956,0.314-1.413l1.241-4.565c0.214-0.756,0.313-1.512,0.313-2.269c0.186-0.043,0.386-0.071,0.671-0.071
			c0.229,0,0.485,0.014,0.699,0.071c0,0.799-0.101,1.555-0.343,2.411l-2.04,7.233c-0.242,0.043-0.557,0.071-0.813,0.071
			c-0.3,0-0.57-0.028-0.87-0.071l-1.455-5.978c-0.114-0.457-0.2-0.999-0.3-1.583h-0.015c-0.1,0.585-0.185,1.127-0.299,1.598
			L226.1,149.698z"/>
		<path fill="#1A2A4F" d="M238.045,149.841c-2.34,0-3.823-1.526-3.823-4.951c0-3.338,1.512-4.979,3.852-4.979
			s3.795,1.641,3.795,4.979C241.868,148.314,240.385,149.841,238.045,149.841z M238.06,141.095c-1.455,0-2.34,0.984-2.34,3.767
			c0,2.739,0.87,3.795,2.325,3.795s2.325-1.056,2.325-3.795C240.37,142.08,239.515,141.095,238.06,141.095z"/>
		<path fill="#1A2A4F" d="M249.647,149.698c-0.285,0.043-0.57,0.071-0.856,0.071c-0.271,0-0.499-0.014-0.771-0.071l-2.111-3.709
			h-1.255v3.709c-0.243,0.043-0.485,0.071-0.728,0.071c-0.229,0-0.472-0.028-0.699-0.071v-9.645
			c0.699-0.043,1.541-0.071,2.354-0.071c2.012,0,3.624,0.613,3.624,2.925c0,1.27-0.699,2.382-1.869,2.811L249.647,149.698z
			 M245.738,141.095c-0.328,0-0.842,0-1.084,0.014v3.752h0.97c1.341,0,2.14-0.599,2.14-1.955
			C247.764,141.595,247.008,141.095,245.738,141.095z"/>
		<path fill="#1A2A4F" d="M255.784,142.451l-1.812,1.912l3.638,5.336c-0.3,0.057-0.514,0.071-0.813,0.071
			c-0.271,0-0.557-0.028-0.827-0.071l-2.968-4.337l-0.784,0.841v3.496c-0.2,0.043-0.485,0.071-0.728,0.071
			c-0.215,0-0.485-0.028-0.699-0.071v-9.645c0.214-0.043,0.484-0.071,0.699-0.071c0.242,0,0.527,0.028,0.728,0.071v4.409
			l2.511-2.682c0.542-0.585,0.984-1.241,1.056-1.727c0.214-0.043,0.471-0.071,0.685-0.071c0.243,0,0.542,0.028,0.742,0.071
			C257.011,140.924,256.54,141.652,255.784,142.451z"/>
		<path fill="#1A2A4F" d="M264.79,149.841c-2.34,0-3.823-1.526-3.823-4.951c0-3.338,1.512-4.979,3.852-4.979
			s3.795,1.641,3.795,4.979C268.613,148.314,267.13,149.841,264.79,149.841z M264.805,141.095c-1.455,0-2.34,0.984-2.34,3.767
			c0,2.739,0.87,3.795,2.325,3.795s2.325-1.056,2.325-3.795C267.115,142.08,266.26,141.095,264.805,141.095z"/>
		<path fill="#1A2A4F" d="M276.393,149.698c-0.285,0.043-0.57,0.071-0.856,0.071c-0.271,0-0.499-0.014-0.771-0.071l-2.111-3.709
			h-1.255v3.709c-0.243,0.043-0.485,0.071-0.728,0.071c-0.229,0-0.472-0.028-0.699-0.071v-9.645
			c0.699-0.043,1.541-0.071,2.354-0.071c2.012,0,3.624,0.613,3.624,2.925c0,1.27-0.699,2.382-1.869,2.811L276.393,149.698z
			 M272.483,141.095c-0.328,0-0.842,0-1.084,0.014v3.752h0.97c1.341,0,2.14-0.599,2.14-1.955
			C274.509,141.595,273.753,141.095,272.483,141.095z"/>
	</g>
	<g>
		<path fill="#1A2A4F" d="M188.979,155.495h-3.98v2.91h3.295c0.058,0.172,0.071,0.414,0.071,0.585c0,0.186-0.014,0.399-0.071,0.585
			h-3.295v4.395c-0.243,0.043-0.457,0.071-0.714,0.071c-0.242,0-0.485-0.028-0.713-0.071v-9.645h5.407
			c0.057,0.171,0.071,0.414,0.071,0.585C189.05,155.096,189.035,155.31,188.979,155.495z"/>
		<path fill="#1A2A4F" d="M197.069,160.36c0,2.482-0.855,3.752-3.48,3.752c-2.739,0-3.438-1.213-3.438-3.752v-6.035
			c0.229-0.028,0.456-0.071,0.685-0.071c0.257,0,0.485,0.028,0.742,0.071v6.277c0,1.384,0.3,2.411,1.997,2.411
			c1.698,0,2.111-1.027,2.111-2.411v-6.277c0.229-0.028,0.429-0.071,0.656-0.071c0.257,0,0.471,0.028,0.728,0.071V160.36z"/>
		<path fill="#1A2A4F" d="M205.233,163.97c-0.285,0.043-0.57,0.071-0.856,0.071c-0.271,0-0.499-0.015-0.771-0.071l-2.111-3.709
			h-1.255v3.709c-0.243,0.043-0.485,0.071-0.728,0.071c-0.229,0-0.472-0.028-0.699-0.071v-9.645
			c0.699-0.043,1.541-0.071,2.354-0.071c2.012,0,3.624,0.613,3.624,2.925c0,1.27-0.699,2.383-1.869,2.811L205.233,163.97z
			 M201.324,155.367c-0.328,0-0.842,0-1.084,0.014v3.752h0.97c1.341,0,2.14-0.599,2.14-1.954
			C203.35,155.866,202.594,155.367,201.324,155.367z"/>
		<path fill="#1A2A4F" d="M212.27,155.495h-2.882v8.475c-0.242,0.043-0.471,0.071-0.728,0.071c-0.242,0-0.471-0.028-0.699-0.071
			v-8.475h-2.739c-0.057-0.186-0.071-0.399-0.071-0.585c0-0.171,0.015-0.414,0.071-0.585h7.048c0.058,0.171,0.071,0.414,0.071,0.585
			C212.341,155.096,212.327,155.31,212.27,155.495z"/>
		<path fill="#1A2A4F" d="M220.348,163.97c-0.229,0.028-0.442,0.071-0.671,0.071c-0.257,0-0.499-0.028-0.756-0.071v-4.28h-4.266
			v4.28c-0.243,0.043-0.5,0.071-0.757,0.071c-0.242,0-0.442-0.028-0.67-0.071v-9.645c0.171-0.028,0.428-0.071,0.656-0.071
			c0.257,0,0.514,0.028,0.771,0.071v4.194h4.266v-4.194c0.242-0.043,0.485-0.071,0.742-0.071c0.242,0,0.456,0.028,0.685,0.071
			V163.97z"/>
		<path fill="#1A2A4F" d="M227.77,163.97h-5.621v-9.645h5.407c0.057,0.171,0.071,0.414,0.071,0.585c0,0.186-0.015,0.399-0.071,0.585
			h-3.98v2.91h3.438c0.057,0.172,0.071,0.414,0.071,0.585c0,0.186-0.015,0.399-0.071,0.585h-3.438v3.225h4.194
			c0.057,0.171,0.071,0.414,0.071,0.585C227.841,163.57,227.826,163.784,227.77,163.97z"/>
		<path fill="#1A2A4F" d="M235.519,163.97c-0.285,0.043-0.57,0.071-0.856,0.071c-0.271,0-0.499-0.015-0.771-0.071l-2.111-3.709
			h-1.255v3.709c-0.243,0.043-0.485,0.071-0.728,0.071c-0.229,0-0.472-0.028-0.699-0.071v-9.645
			c0.699-0.043,1.541-0.071,2.354-0.071c2.012,0,3.624,0.613,3.624,2.925c0,1.27-0.699,2.383-1.869,2.811L235.519,163.97z
			 M231.609,155.367c-0.328,0-0.842,0-1.084,0.014v3.752h0.97c1.341,0,2.14-0.599,2.14-1.954
			C233.635,155.866,232.879,155.367,231.609,155.367z"/>
		<path fill="#1A2A4F" d="M241.885,164.112c-0.784,0-2.04-0.171-2.739-0.542c-0.043-0.2-0.071-0.386-0.071-0.585
			c0-0.214,0.015-0.428,0.071-0.628c0.671,0.314,1.855,0.585,2.668,0.585c1.185,0,1.983-0.456,1.983-1.44
			c0-0.899-0.414-1.342-1.569-1.77l-0.728-0.271c-1.441-0.542-2.325-1.326-2.325-2.653c0-1.783,1.512-2.625,3.238-2.625
			c0.756,0,1.483,0.086,2.154,0.257c0.043,0.171,0.071,0.356,0.071,0.542c0,0.2-0.028,0.399-0.071,0.6
			c-0.699-0.143-1.355-0.229-2.069-0.229c-0.97,0-1.883,0.385-1.883,1.412c0,0.728,0.399,1.17,1.526,1.599l0.671,0.256
			c1.47,0.543,2.354,1.228,2.354,2.739C245.166,163.214,243.711,164.112,241.885,164.112z"/>
		<path fill="#1A2A4F" d="M252.344,155.495h-2.882v8.475c-0.242,0.043-0.471,0.071-0.728,0.071c-0.242,0-0.471-0.028-0.699-0.071
			v-8.475h-2.739c-0.057-0.186-0.071-0.399-0.071-0.585c0-0.171,0.015-0.414,0.071-0.585h7.048c0.058,0.171,0.071,0.414,0.071,0.585
			C252.415,155.096,252.401,155.31,252.344,155.495z"/>
		<path fill="#1A2A4F" d="M260.18,160.36c0,2.482-0.855,3.752-3.48,3.752c-2.739,0-3.438-1.213-3.438-3.752v-6.035
			c0.229-0.028,0.456-0.071,0.685-0.071c0.257,0,0.485,0.028,0.742,0.071v6.277c0,1.384,0.3,2.411,1.997,2.411
			c1.698,0,2.111-1.027,2.111-2.411v-6.277c0.229-0.028,0.429-0.071,0.656-0.071c0.257,0,0.471,0.028,0.728,0.071V160.36z"/>
		<path fill="#1A2A4F" d="M267.802,163.128c-0.828,0.656-1.969,0.913-3.567,0.913c-0.656,0-1.883-0.028-2.311-0.071v-9.645
			c0.656-0.043,1.541-0.071,2.539-0.071c3.311,0,4.822,1.37,4.822,4.837C269.285,160.959,268.771,162.344,267.802,163.128z
			 M264.449,155.367c-0.286,0-0.8,0.014-1.099,0.028v7.476c0.257,0.028,0.728,0.043,1.227,0.043c1.084,0,1.798-0.3,2.297-0.827
			c0.671-0.699,0.913-1.826,0.913-3.025C267.787,156.622,267.088,155.367,264.449,155.367z"/>
		<path fill="#1A2A4F" d="M272.369,160.589l-2.125-4.224c-0.357-0.713-0.571-1.455-0.571-2.055c0.2-0.042,0.371-0.057,0.699-0.057
			c0.257,0,0.499,0.015,0.699,0.057c0,0.485,0.057,0.942,0.356,1.569l1.655,3.41h0.028l1.655-3.324
			c0.3-0.599,0.356-1.184,0.356-1.641c0.199-0.057,0.343-0.071,0.656-0.071c0.242,0,0.499,0.028,0.713,0.071
			c0,0.542-0.143,1.284-0.527,2.04l-2.169,4.252v3.353c-0.199,0.043-0.484,0.071-0.713,0.071c-0.257,0-0.485-0.028-0.714-0.071
			V160.589z"/>
	</g>
	<g>
		<path fill="#9493AB" d="M151.242,206.712h-3.014l-0.593,1.826c-0.148,0.022-0.388,0.057-0.616,0.057
			c-0.16,0-0.388-0.022-0.537-0.057l2.659-7.716c0.137-0.034,0.422-0.057,0.571-0.057c0.16,0,0.422,0.034,0.525,0.057l2.854,7.716
			c-0.103,0.022-0.377,0.057-0.594,0.057c-0.171,0-0.444-0.011-0.616-0.057L151.242,206.712z M148.525,205.776h2.386l-0.913-2.626
			c-0.148-0.434-0.24-0.787-0.297-1.096h-0.012c-0.057,0.309-0.171,0.674-0.308,1.107L148.525,205.776z"/>
		<path fill="#9493AB" d="M158.126,201.759h-3.185v2.328h2.637c0.046,0.137,0.058,0.331,0.058,0.468
			c0,0.148-0.012,0.319-0.058,0.468h-2.637v3.516c-0.193,0.034-0.365,0.057-0.57,0.057c-0.194,0-0.388-0.022-0.57-0.057v-7.716
			h4.325c0.046,0.137,0.058,0.331,0.058,0.468C158.184,201.438,158.172,201.61,158.126,201.759z"/>
		<path fill="#9493AB" d="M164.463,201.759h-2.306v6.779c-0.193,0.034-0.376,0.057-0.582,0.057c-0.193,0-0.376-0.022-0.559-0.057
			v-6.779h-2.191c-0.046-0.148-0.058-0.32-0.058-0.469c0-0.137,0.012-0.331,0.058-0.468h5.638c0.046,0.137,0.058,0.331,0.058,0.468
			C164.521,201.438,164.509,201.61,164.463,201.759z"/>
		<path fill="#9493AB" d="M169.795,208.538h-4.496v-7.716h4.325c0.046,0.137,0.058,0.331,0.058,0.468
			c0,0.148-0.012,0.32-0.058,0.469h-3.185v2.328h2.751c0.046,0.137,0.057,0.331,0.057,0.468c0,0.148-0.011,0.319-0.057,0.468h-2.751
			v2.58h3.355c0.046,0.137,0.058,0.331,0.058,0.468C169.853,208.219,169.841,208.39,169.795,208.538z"/>
		<path fill="#9493AB" d="M176.052,208.538c-0.229,0.034-0.457,0.057-0.685,0.057c-0.217,0-0.399-0.011-0.616-0.057l-1.689-2.968
			h-1.005v2.968c-0.193,0.034-0.388,0.057-0.582,0.057c-0.183,0-0.376-0.022-0.559-0.057v-7.716
			c0.559-0.034,1.232-0.057,1.883-0.057c1.609,0,2.899,0.49,2.899,2.34c0,1.016-0.56,1.906-1.495,2.248L176.052,208.538z
			 M172.925,201.655c-0.263,0-0.674,0-0.868,0.012v3.002h0.776c1.073,0,1.712-0.479,1.712-1.563
			C174.545,202.055,173.94,201.655,172.925,201.655z"/>
		<path fill="#9493AB" d="M183.93,207.603c0.045,0.137,0.057,0.331,0.057,0.468c0,0.148-0.012,0.319-0.057,0.468h-4.6v-7.716
			c0.193-0.034,0.399-0.057,0.604-0.057c0.194,0,0.354,0.022,0.536,0.057v6.78H183.93z"/>
		<path fill="#9493AB" d="M189.375,208.538h-4.496v-7.716h4.325c0.046,0.137,0.058,0.331,0.058,0.468
			c0,0.148-0.012,0.32-0.058,0.469h-3.185v2.328h2.751c0.046,0.137,0.057,0.331,0.057,0.468c0,0.148-0.011,0.319-0.057,0.468h-2.751
			v2.58h3.355c0.046,0.137,0.058,0.331,0.058,0.468C189.433,208.219,189.421,208.39,189.375,208.538z"/>
		<path fill="#9493AB" d="M194.674,206.712h-3.014l-0.594,1.826c-0.148,0.022-0.388,0.057-0.616,0.057
			c-0.159,0-0.388-0.022-0.536-0.057l2.659-7.716c0.137-0.034,0.423-0.057,0.571-0.057c0.159,0,0.422,0.034,0.524,0.057l2.854,7.716
			c-0.103,0.022-0.377,0.057-0.594,0.057c-0.171,0-0.444-0.011-0.616-0.057L194.674,206.712z M191.957,205.776h2.386l-0.913-2.626
			c-0.148-0.434-0.24-0.787-0.297-1.096h-0.012c-0.057,0.309-0.171,0.674-0.308,1.107L191.957,205.776z"/>
		<path fill="#9493AB" d="M201.648,202.854l-2.077,5.684c-0.114,0.034-0.376,0.057-0.57,0.057c-0.239,0-0.491-0.022-0.604-0.057
			l-2.123-5.673c-0.251-0.685-0.377-1.552-0.377-2.043c0.171-0.034,0.354-0.057,0.548-0.057c0.217,0,0.411,0.022,0.57,0.057
			c0.012,0.502,0.126,1.222,0.354,1.85l1.267,3.424c0.148,0.388,0.274,0.833,0.331,1.107h0.022c0.058-0.309,0.183-0.696,0.331-1.096
			l1.256-3.436c0.229-0.617,0.354-1.312,0.354-1.85c0.114-0.022,0.309-0.057,0.56-0.057c0.194,0,0.388,0.022,0.536,0.057
			C202.025,201.313,201.911,202.146,201.648,202.854z"/>
		<path fill="#9493AB" d="M204.049,208.538c-0.183,0.022-0.365,0.057-0.548,0.057c-0.206,0-0.389-0.022-0.594-0.057v-7.716
			c0.194-0.034,0.377-0.057,0.582-0.057c0.194,0,0.377,0.022,0.56,0.057V208.538z"/>
		<path fill="#9493AB" d="M211.537,208.538c-0.092,0.034-0.285,0.046-0.434,0.046c-0.138,0-0.274-0.012-0.399-0.046l-4.063-5.764
			v5.764c-0.103,0.034-0.377,0.057-0.548,0.057c-0.137,0-0.354-0.011-0.502-0.057v-7.716c0.091-0.022,0.331-0.045,0.444-0.045
			c0.148,0,0.343,0.011,0.457,0.045l3.994,5.673v-5.673c0.126-0.034,0.343-0.057,0.491-0.057c0.137,0,0.445,0.022,0.56,0.057
			V208.538z"/>
		<path fill="#9493AB" d="M218.513,208.127c-0.617,0.297-1.438,0.525-2.306,0.525c-2.408,0-3.527-1.587-3.527-3.893
			c0-1.347,0.468-2.511,1.324-3.241c0.604-0.514,1.438-0.811,2.396-0.811c0.708,0,1.416,0.148,1.85,0.343
			c0.045,0.148,0.057,0.285,0.057,0.445c0,0.159-0.012,0.297-0.057,0.445c-0.502-0.148-1.222-0.263-1.758-0.263
			c-0.754,0-1.347,0.239-1.758,0.628c-0.594,0.559-0.856,1.449-0.856,2.431c0,1.884,0.822,2.934,2.443,2.934
			c0.41,0,0.81-0.08,1.05-0.183v-2.512c0.183-0.022,0.354-0.057,0.536-0.057c0.206,0,0.399,0.022,0.605,0.057V208.127z"/>
		<path fill="#9493AB" d="M227.681,205.65c0,1.986-0.685,3.002-2.785,3.002c-2.191,0-2.751-0.971-2.751-3.002v-4.828
			c0.184-0.022,0.365-0.057,0.549-0.057c0.205,0,0.388,0.022,0.593,0.057v5.022c0,1.106,0.24,1.929,1.599,1.929
			c1.357,0,1.688-0.822,1.688-1.929v-5.022c0.183-0.022,0.343-0.057,0.525-0.057c0.205,0,0.377,0.022,0.582,0.057V205.65z"/>
		<path fill="#9493AB" d="M235.079,208.538c-0.092,0.034-0.285,0.046-0.434,0.046c-0.138,0-0.274-0.012-0.399-0.046l-4.063-5.764
			v5.764c-0.103,0.034-0.377,0.057-0.548,0.057c-0.137,0-0.354-0.011-0.502-0.057v-7.716c0.091-0.022,0.33-0.045,0.444-0.045
			c0.148,0,0.343,0.011,0.457,0.045l3.995,5.673v-5.673c0.125-0.034,0.342-0.057,0.49-0.057c0.137,0,0.445,0.022,0.56,0.057V208.538
			z"/>
		<path fill="#9493AB" d="M237.775,208.538c-0.183,0.022-0.365,0.057-0.548,0.057c-0.206,0-0.389-0.022-0.594-0.057v-7.716
			c0.194-0.034,0.377-0.057,0.582-0.057c0.194,0,0.377,0.022,0.56,0.057V208.538z"/>
		<path fill="#9493AB" d="M244.408,202.854l-2.078,5.684c-0.113,0.034-0.376,0.057-0.57,0.057c-0.239,0-0.491-0.022-0.604-0.057
			l-2.123-5.673c-0.251-0.685-0.377-1.552-0.377-2.043c0.171-0.034,0.354-0.057,0.548-0.057c0.217,0,0.411,0.022,0.57,0.057
			c0.012,0.502,0.126,1.222,0.354,1.85l1.267,3.424c0.148,0.388,0.273,0.833,0.331,1.107h0.022c0.058-0.309,0.183-0.696,0.331-1.096
			l1.256-3.436c0.229-0.617,0.354-1.312,0.354-1.85c0.114-0.022,0.309-0.057,0.56-0.057c0.194,0,0.388,0.022,0.536,0.057
			C244.784,201.313,244.67,202.146,244.408,202.854z"/>
		<path fill="#9493AB" d="M250.104,208.538h-4.496v-7.716h4.325c0.046,0.137,0.058,0.331,0.058,0.468
			c0,0.148-0.012,0.32-0.058,0.469h-3.185v2.328h2.751c0.046,0.137,0.057,0.331,0.057,0.468c0,0.148-0.011,0.319-0.057,0.468h-2.751
			v2.58h3.355c0.046,0.137,0.058,0.331,0.058,0.468C250.162,208.219,250.15,208.39,250.104,208.538z"/>
		<path fill="#9493AB" d="M256.361,208.538c-0.229,0.034-0.457,0.057-0.685,0.057c-0.217,0-0.399-0.011-0.616-0.057l-1.689-2.968
			h-1.005v2.968c-0.193,0.034-0.388,0.057-0.582,0.057c-0.183,0-0.376-0.022-0.559-0.057v-7.716
			c0.559-0.034,1.232-0.057,1.883-0.057c1.609,0,2.899,0.49,2.899,2.34c0,1.016-0.56,1.906-1.495,2.248L256.361,208.538z
			 M253.234,201.655c-0.263,0-0.674,0-0.868,0.012v3.002h0.776c1.073,0,1.712-0.479,1.712-1.563
			C254.854,202.055,254.25,201.655,253.234,201.655z"/>
		<path fill="#9493AB" d="M259.285,208.652c-0.627,0-1.632-0.137-2.191-0.434c-0.034-0.16-0.057-0.309-0.057-0.468
			c0-0.172,0.012-0.343,0.057-0.503c0.537,0.251,1.484,0.469,2.135,0.469c0.947,0,1.587-0.365,1.587-1.153
			c0-0.719-0.331-1.073-1.256-1.415l-0.582-0.217c-1.153-0.434-1.86-1.062-1.86-2.123c0-1.427,1.21-2.101,2.591-2.101
			c0.604,0,1.187,0.069,1.724,0.206c0.034,0.137,0.057,0.285,0.057,0.434c0,0.16-0.022,0.319-0.057,0.479
			c-0.56-0.114-1.085-0.183-1.655-0.183c-0.776,0-1.507,0.308-1.507,1.13c0,0.582,0.32,0.936,1.222,1.278l0.536,0.205
			c1.176,0.434,1.884,0.981,1.884,2.191C261.911,207.934,260.746,208.652,259.285,208.652z"/>
		<path fill="#9493AB" d="M264.195,208.538c-0.183,0.022-0.365,0.057-0.548,0.057c-0.206,0-0.389-0.022-0.594-0.057v-7.716
			c0.194-0.034,0.377-0.057,0.582-0.057c0.194,0,0.377,0.022,0.56,0.057V208.538z"/>
		<path fill="#9493AB" d="M270.724,201.759h-2.306v6.779c-0.193,0.034-0.376,0.057-0.582,0.057c-0.193,0-0.376-0.022-0.559-0.057
			v-6.779h-2.191c-0.046-0.148-0.058-0.32-0.058-0.469c0-0.137,0.012-0.331,0.058-0.468h5.638c0.046,0.137,0.058,0.331,0.058,0.468
			C270.781,201.438,270.77,201.61,270.724,201.759z"/>
		<path fill="#9493AB" d="M273.375,205.833l-1.701-3.378c-0.285-0.571-0.456-1.165-0.456-1.644c0.159-0.034,0.297-0.046,0.559-0.046
			c0.206,0,0.399,0.012,0.56,0.046c0,0.388,0.046,0.753,0.285,1.255l1.324,2.729h0.022l1.324-2.66
			c0.24-0.479,0.285-0.947,0.285-1.312c0.16-0.045,0.274-0.057,0.525-0.057c0.194,0,0.399,0.022,0.57,0.057
			c0,0.434-0.114,1.027-0.422,1.633l-1.735,3.4v2.683c-0.159,0.034-0.388,0.057-0.57,0.057c-0.205,0-0.388-0.022-0.57-0.057V205.833
			z"/>
	</g>
	<g>
		<defs>
			<rect id="SVGID_3_" x="18.243" y="61.856" width="123.069" height="157.974"/>
		</defs>
		<clipPath id="SVGID_4_">
			<use xlink:href="#SVGID_3_"  overflow="visible"/>
		</clipPath>
		<path clip-path="url(#SVGID_4_)" fill="#BBA461" d="M97.32,154.898c0,0-14.246,4.721-16.991,21.303
			c-0.008,0.042-0.034,0.042-0.043,0c-2.745-16.582-16.99-21.303-16.99-21.303l9.337-9.274
			c-13.166-5.905-16.666-25.981-16.666-25.981c-0.744-2.902-0.834-4.889-0.834-4.889c6.592-0.449,29.595-2.429,31.165-9.886
			c2.17,4.006,13.649,14.073,18.293,14.836c0,0-4.509,19.854-16.822,25.906L97.32,154.898z M126.19,159.005
			c-1.112-2.652-3.779-4.353-6.325-5.398l-8.491-3.907c-0.008-6.23-0.067-37.265-0.031-40.53c0.049-5.078-0.556-9.612-1.889-13.537
			l10.568-3.818l0.023,9.765h-0.717c-0.5-0.045-0.941,0.313-0.999,0.812l-0.93,8.065c-0.028,0.246,0.044,0.491,0.201,0.684
			c0.155,0.193,0.382,0.316,0.628,0.335l7.381-0.001c0.248-0.029,0.475-0.147,0.628-0.339c0.158-0.192,0.228-0.44,0.201-0.688
			c-0.187-1.583-0.372-3.165-0.556-4.748l-0.385-3.314c-0.059-0.496-0.502-0.854-1-0.809h-0.718l0.017-11.126l0.374-0.136
			l1.249-0.453c1.061-0.381,1.766-1.387,1.766-2.511c0-1.125-0.705-2.131-1.766-2.514L81.217,68.861
			c-0.589-0.213-1.231-0.213-1.817,0L35.196,84.836c-1.06,0.381-1.765,1.388-1.765,2.513s0.706,2.129,1.765,2.512l16.029,5.793
			c-1.399,4.024-2.036,8.678-1.984,13.876l0.001,40.169l-8.489,3.907c-2.548,1.046-5.053,2.634-6.326,5.398
			c0,0-18.717,47.806-8.565,47.806h108.891C144.906,206.811,126.19,159.005,126.19,159.005"/>
	</g>
	<g>
		<path fill="#1A2A4F" d="M59.567,226.554c-1.372-1.277-2.105-3.074-2.105-4.884s0.733-3.548,2.105-4.825
			c0.272,0.036,0.449,0.166,0.603,0.379c-1.159,1.372-1.597,2.921-1.597,4.481c0,1.585,0.438,3.099,1.597,4.471
			C60.017,226.389,59.839,226.519,59.567,226.554z"/>
		<path fill="#1A2A4F" d="M66.591,224.532c-0.686,0.544-1.632,0.757-2.957,0.757c-0.544,0-1.561-0.024-1.916-0.06v-7.994
			c0.544-0.035,1.277-0.059,2.105-0.059c2.744,0,3.997,1.135,3.997,4.009C67.82,222.734,67.395,223.882,66.591,224.532z
			 M63.812,218.099c-0.236,0-0.662,0.012-0.911,0.023v6.197c0.213,0.023,0.603,0.035,1.017,0.035c0.899,0,1.49-0.248,1.904-0.686
			c0.556-0.58,0.757-1.514,0.757-2.508C66.579,219.14,66,218.099,63.812,218.099z"/>
		<path fill="#1A2A4F" d="M73.885,225.229h-4.66v-7.994h4.482c0.047,0.142,0.059,0.343,0.059,0.485c0,0.153-0.012,0.331-0.059,0.484
			h-3.299v2.412h2.85c0.047,0.143,0.059,0.344,0.059,0.485c0,0.153-0.012,0.331-0.059,0.484h-2.85v2.673h3.477
			c0.047,0.142,0.059,0.343,0.059,0.485C73.944,224.898,73.932,225.076,73.885,225.229z"/>
		<path fill="#1A2A4F" d="M77.277,225.348c-0.65,0-1.691-0.142-2.271-0.449c-0.036-0.166-0.06-0.319-0.06-0.485
			c0-0.177,0.012-0.354,0.06-0.52c0.556,0.26,1.537,0.484,2.211,0.484c0.982,0,1.644-0.378,1.644-1.194
			c0-0.745-0.343-1.111-1.301-1.466l-0.603-0.226c-1.194-0.449-1.928-1.1-1.928-2.199c0-1.479,1.253-2.176,2.685-2.176
			c0.626,0,1.229,0.071,1.786,0.213c0.035,0.142,0.059,0.296,0.059,0.449c0,0.166-0.024,0.331-0.059,0.497
			c-0.58-0.118-1.124-0.189-1.715-0.189c-0.804,0-1.561,0.319-1.561,1.171c0,0.603,0.331,0.97,1.266,1.324l0.556,0.213
			c1.218,0.449,1.951,1.017,1.951,2.271C79.997,224.603,78.791,225.348,77.277,225.348z"/>
		<path fill="#1A2A4F" d="M86.24,218.205h-2.389v7.024c-0.201,0.035-0.391,0.06-0.604,0.06c-0.201,0-0.39-0.024-0.579-0.06v-7.024
			h-2.271c-0.047-0.153-0.059-0.331-0.059-0.484c0-0.143,0.012-0.344,0.059-0.485h5.842c0.047,0.142,0.059,0.343,0.059,0.485
			C86.299,217.874,86.287,218.052,86.24,218.205z"/>
		<path fill="#1A2A4F" d="M88.567,225.229c-0.189,0.023-0.378,0.06-0.567,0.06c-0.213,0-0.402-0.024-0.615-0.06v-7.994
			c0.201-0.035,0.391-0.059,0.604-0.059c0.201,0,0.39,0.023,0.579,0.059V225.229z"/>
		<path fill="#1A2A4F" d="M96.561,225.229c-0.094,0.035-0.295,0.047-0.449,0.047c-0.142,0-0.284-0.012-0.414-0.047l-4.209-5.972
			v5.972c-0.106,0.035-0.391,0.06-0.568,0.06c-0.142,0-0.367-0.013-0.521-0.06v-7.994c0.095-0.023,0.343-0.047,0.461-0.047
			c0.154,0,0.354,0.012,0.473,0.047l4.139,5.877v-5.877c0.13-0.035,0.355-0.059,0.509-0.059c0.142,0,0.461,0.023,0.579,0.059
			V225.229z"/>
		<path fill="#1A2A4F" d="M102.566,223.338h-3.122l-0.615,1.892c-0.154,0.023-0.402,0.06-0.639,0.06
			c-0.166,0-0.402-0.024-0.556-0.06l2.755-7.994c0.142-0.035,0.438-0.059,0.591-0.059c0.166,0,0.438,0.035,0.544,0.059l2.957,7.994
			c-0.106,0.023-0.39,0.06-0.615,0.06c-0.178,0-0.461-0.013-0.639-0.06L102.566,223.338z M99.752,222.368h2.471l-0.946-2.721
			c-0.154-0.449-0.249-0.815-0.308-1.135h-0.012c-0.059,0.319-0.177,0.697-0.319,1.146L99.752,222.368z"/>
		<path fill="#1A2A4F" d="M109.696,218.205h-2.389v7.024c-0.201,0.035-0.391,0.06-0.604,0.06c-0.201,0-0.39-0.024-0.579-0.06v-7.024
			h-2.271c-0.047-0.153-0.059-0.331-0.059-0.484c0-0.143,0.012-0.344,0.059-0.485h5.842c0.047,0.142,0.059,0.343,0.059,0.485
			C109.755,217.874,109.743,218.052,109.696,218.205z"/>
		<path fill="#1A2A4F" d="M112.023,225.229c-0.189,0.023-0.378,0.06-0.567,0.06c-0.213,0-0.402-0.024-0.615-0.06v-7.994
			c0.201-0.035,0.391-0.059,0.604-0.059c0.201,0,0.39,0.023,0.579,0.059V225.229z"/>
		<path fill="#1A2A4F" d="M116.658,225.348c-1.939,0-3.169-1.266-3.169-4.104c0-2.767,1.253-4.127,3.193-4.127
			s3.146,1.36,3.146,4.127C119.828,224.082,118.598,225.348,116.658,225.348z M116.67,218.099c-1.206,0-1.939,0.816-1.939,3.122
			c0,2.271,0.721,3.146,1.927,3.146c1.207,0,1.928-0.875,1.928-3.146C118.586,218.915,117.876,218.099,116.67,218.099z"/>
		<path fill="#1A2A4F" d="M127.394,225.229c-0.094,0.035-0.295,0.047-0.449,0.047c-0.142,0-0.284-0.012-0.414-0.047l-4.209-5.972
			v5.972c-0.106,0.035-0.391,0.06-0.568,0.06c-0.142,0-0.367-0.013-0.521-0.06v-7.994c0.095-0.023,0.343-0.047,0.461-0.047
			c0.154,0,0.354,0.012,0.473,0.047l4.139,5.877v-5.877c0.13-0.035,0.355-0.059,0.509-0.059c0.142,0,0.461,0.023,0.579,0.059
			V225.229z"/>
		<path fill="#1A2A4F" d="M134.569,225.348c-1.939,0-3.169-1.266-3.169-4.104c0-2.767,1.253-4.127,3.193-4.127
			s3.146,1.36,3.146,4.127C137.739,224.082,136.509,225.348,134.569,225.348z M134.581,218.099c-1.206,0-1.939,0.816-1.939,3.122
			c0,2.271,0.721,3.146,1.927,3.146c1.207,0,1.928-0.875,1.928-3.146C136.497,218.915,135.788,218.099,134.581,218.099z"/>
		<path fill="#1A2A4F" d="M143.626,218.205h-3.299v2.412h2.732c0.047,0.143,0.059,0.344,0.059,0.485
			c0,0.153-0.012,0.331-0.059,0.484h-2.732v3.643c-0.201,0.035-0.378,0.06-0.591,0.06c-0.201,0-0.402-0.024-0.591-0.06v-7.994h4.482
			c0.047,0.142,0.059,0.343,0.059,0.485C143.685,217.874,143.673,218.052,143.626,218.205z"/>
		<path fill="#1A2A4F" d="M152.292,224.26c0.047,0.142,0.059,0.343,0.059,0.485c0,0.153-0.012,0.331-0.059,0.484h-4.766v-7.994
			c0.201-0.035,0.414-0.059,0.627-0.059c0.201,0,0.367,0.023,0.556,0.059v7.024H152.292z"/>
		<path fill="#1A2A4F" d="M158.155,225.229h-4.659v-7.994h4.482c0.047,0.142,0.059,0.343,0.059,0.485
			c0,0.153-0.012,0.331-0.059,0.484h-3.3v2.412h2.851c0.047,0.143,0.059,0.344,0.059,0.485c0,0.153-0.012,0.331-0.059,0.484h-2.851
			v2.673h3.477c0.048,0.142,0.06,0.343,0.06,0.485C158.215,224.898,158.203,225.076,158.155,225.229z"/>
		<path fill="#1A2A4F" d="M163.865,223.338h-3.122l-0.614,1.892c-0.154,0.023-0.402,0.06-0.639,0.06
			c-0.166,0-0.402-0.024-0.556-0.06l2.755-7.994c0.143-0.035,0.438-0.059,0.592-0.059c0.165,0,0.438,0.035,0.544,0.059l2.956,7.994
			c-0.106,0.023-0.391,0.06-0.615,0.06c-0.177,0-0.461-0.013-0.639-0.06L163.865,223.338z M161.051,222.368h2.472l-0.946-2.721
			c-0.153-0.449-0.248-0.815-0.307-1.135h-0.013c-0.059,0.319-0.177,0.697-0.318,1.146L161.051,222.368z"/>
		<path fill="#1A2A4F" d="M171.314,219.341l-2.152,5.889c-0.118,0.035-0.391,0.06-0.592,0.06c-0.248,0-0.508-0.024-0.626-0.06
			l-2.2-5.877c-0.26-0.71-0.39-1.608-0.39-2.117c0.177-0.035,0.366-0.059,0.567-0.059c0.225,0,0.426,0.023,0.591,0.059
			c0.013,0.521,0.131,1.266,0.367,1.916l1.312,3.548c0.153,0.401,0.284,0.863,0.343,1.146h0.023c0.06-0.319,0.189-0.721,0.344-1.135
			l1.301-3.56c0.236-0.639,0.366-1.36,0.366-1.916c0.118-0.023,0.319-0.059,0.579-0.059c0.201,0,0.402,0.023,0.556,0.059
			C171.704,217.744,171.586,218.607,171.314,219.341z"/>
		<path fill="#1A2A4F" d="M177.438,225.229h-4.659v-7.994h4.482c0.047,0.142,0.059,0.343,0.059,0.485
			c0,0.153-0.012,0.331-0.059,0.484h-3.3v2.412h2.85c0.048,0.143,0.06,0.344,0.06,0.485c0,0.153-0.012,0.331-0.06,0.484h-2.85v2.673
			h3.477c0.048,0.142,0.06,0.343,0.06,0.485C177.497,224.898,177.485,225.076,177.438,225.229z"/>
		<path fill="#1A2A4F" d="M184.142,225.229c-0.236,0.035-0.473,0.06-0.709,0.06c-0.225,0-0.414-0.013-0.639-0.06l-1.75-3.074h-1.041
			v3.074c-0.201,0.035-0.402,0.06-0.603,0.06c-0.189,0-0.391-0.024-0.58-0.06v-7.994c0.58-0.035,1.277-0.059,1.951-0.059
			c1.668,0,3.004,0.508,3.004,2.424c0,1.053-0.579,1.975-1.549,2.329L184.142,225.229z M180.901,218.099
			c-0.271,0-0.697,0-0.898,0.012v3.11h0.805c1.111,0,1.773-0.497,1.773-1.62C182.581,218.513,181.954,218.099,180.901,218.099z"/>
		<path fill="#1A2A4F" d="M187.392,225.348c-0.65,0-1.691-0.142-2.271-0.449c-0.036-0.166-0.06-0.319-0.06-0.485
			c0-0.177,0.012-0.354,0.06-0.52c0.556,0.26,1.537,0.484,2.211,0.484c0.981,0,1.644-0.378,1.644-1.194
			c0-0.745-0.343-1.111-1.301-1.466l-0.603-0.226c-1.194-0.449-1.928-1.1-1.928-2.199c0-1.479,1.254-2.176,2.685-2.176
			c0.627,0,1.229,0.071,1.785,0.213c0.036,0.142,0.06,0.296,0.06,0.449c0,0.166-0.023,0.331-0.06,0.497
			c-0.579-0.118-1.123-0.189-1.714-0.189c-0.805,0-1.562,0.319-1.562,1.171c0,0.603,0.331,0.97,1.266,1.324l0.556,0.213
			c1.218,0.449,1.951,1.017,1.951,2.271C190.111,224.603,188.905,225.348,187.392,225.348z"/>
		<path fill="#1A2A4F" d="M195.312,225.229c-0.189,0.023-0.379,0.06-0.568,0.06c-0.213,0-0.401-0.024-0.614-0.06v-7.994
			c0.201-0.035,0.39-0.059,0.603-0.059c0.201,0,0.391,0.023,0.58,0.059V225.229z"/>
		<path fill="#1A2A4F" d="M203.306,225.229c-0.095,0.035-0.296,0.047-0.449,0.047c-0.142,0-0.284-0.012-0.414-0.047l-4.21-5.972
			v5.972c-0.106,0.035-0.39,0.06-0.567,0.06c-0.142,0-0.366-0.013-0.521-0.06v-7.994c0.095-0.023,0.343-0.047,0.461-0.047
			c0.154,0,0.355,0.012,0.474,0.047l4.139,5.877v-5.877c0.13-0.035,0.354-0.059,0.509-0.059c0.142,0,0.461,0.023,0.579,0.059
			V225.229z"/>
		<path fill="#1A2A4F" d="M213.58,225.229c-0.189,0.023-0.367,0.06-0.556,0.06c-0.213,0-0.414-0.024-0.627-0.06v-3.548h-3.536v3.548
			c-0.201,0.035-0.414,0.06-0.627,0.06c-0.201,0-0.366-0.024-0.556-0.06v-7.994c0.143-0.023,0.354-0.059,0.544-0.059
			c0.213,0,0.426,0.023,0.639,0.059v3.477h3.536v-3.477c0.201-0.035,0.402-0.059,0.615-0.059c0.2,0,0.378,0.023,0.567,0.059V225.229
			z"/>
		<path fill="#1A2A4F" d="M216.593,225.229c-0.189,0.023-0.379,0.06-0.568,0.06c-0.213,0-0.401-0.024-0.614-0.06v-7.994
			c0.201-0.035,0.39-0.059,0.603-0.059c0.201,0,0.391,0.023,0.58,0.059V225.229z"/>
		<path fill="#1A2A4F" d="M224.102,224.804c-0.639,0.308-1.49,0.544-2.389,0.544c-2.495,0-3.654-1.644-3.654-4.032
			c0-1.396,0.484-2.602,1.371-3.358c0.627-0.532,1.49-0.84,2.483-0.84c0.733,0,1.467,0.153,1.916,0.354
			c0.048,0.154,0.06,0.296,0.06,0.462c0,0.165-0.012,0.307-0.06,0.461c-0.521-0.154-1.266-0.272-1.821-0.272
			c-0.78,0-1.396,0.249-1.82,0.65c-0.615,0.58-0.888,1.502-0.888,2.52c0,1.951,0.852,3.039,2.531,3.039
			c0.426,0,0.839-0.083,1.088-0.189v-2.602c0.189-0.023,0.366-0.06,0.556-0.06c0.213,0,0.414,0.024,0.627,0.06V224.804z"/>
		<path fill="#1A2A4F" d="M231.645,225.229c-0.189,0.023-0.367,0.06-0.556,0.06c-0.213,0-0.414-0.024-0.627-0.06v-3.548h-3.536
			v3.548c-0.201,0.035-0.414,0.06-0.627,0.06c-0.201,0-0.366-0.024-0.556-0.06v-7.994c0.143-0.023,0.354-0.059,0.544-0.059
			c0.213,0,0.426,0.023,0.639,0.059v3.477h3.536v-3.477c0.201-0.035,0.402-0.059,0.615-0.059c0.2,0,0.378,0.023,0.567,0.059V225.229
			z"/>
		<path fill="#1A2A4F" d="M238.075,225.229h-4.659v-7.994h4.482c0.047,0.142,0.059,0.343,0.059,0.485
			c0,0.153-0.012,0.331-0.059,0.484h-3.3v2.412h2.851c0.047,0.143,0.059,0.344,0.059,0.485c0,0.153-0.012,0.331-0.059,0.484h-2.851
			v2.673h3.477c0.048,0.142,0.06,0.343,0.06,0.485C238.135,224.898,238.123,225.076,238.075,225.229z"/>
		<path fill="#1A2A4F" d="M244.778,225.229c-0.236,0.035-0.473,0.06-0.709,0.06c-0.225,0-0.414-0.013-0.639-0.06l-1.75-3.074h-1.041
			v3.074c-0.201,0.035-0.402,0.06-0.603,0.06c-0.189,0-0.391-0.024-0.58-0.06v-7.994c0.58-0.035,1.277-0.059,1.951-0.059
			c1.668,0,3.004,0.508,3.004,2.424c0,1.053-0.579,1.975-1.549,2.329L244.778,225.229z M241.538,218.099
			c-0.271,0-0.697,0-0.898,0.012v3.11h0.805c1.111,0,1.773-0.497,1.773-1.62C243.218,218.513,242.591,218.099,241.538,218.099z"/>
	</g>
	<g>
		<path fill="#1A2A4F" d="M103.064,236.141h-4.66v-7.994h4.482c0.047,0.142,0.059,0.343,0.059,0.485
			c0,0.153-0.012,0.331-0.059,0.484h-3.299v2.412h2.85c0.047,0.143,0.059,0.344,0.059,0.485c0,0.153-0.012,0.331-0.059,0.484h-2.85
			v2.673h3.477c0.047,0.142,0.059,0.343,0.059,0.485C103.123,235.81,103.111,235.987,103.064,236.141z"/>
		<path fill="#1A2A4F" d="M109.318,235.443c-0.686,0.544-1.632,0.757-2.957,0.757c-0.544,0-1.561-0.024-1.916-0.06v-7.994
			c0.544-0.035,1.277-0.059,2.105-0.059c2.744,0,3.997,1.135,3.997,4.009C110.547,233.646,110.122,234.793,109.318,235.443z
			 M106.539,229.01c-0.236,0-0.662,0.012-0.911,0.023v6.197c0.213,0.023,0.603,0.035,1.017,0.035c0.899,0,1.49-0.248,1.904-0.686
			c0.556-0.58,0.757-1.514,0.757-2.508C109.306,230.051,108.727,229.01,106.539,229.01z"/>
		<path fill="#1A2A4F" d="M117.653,233.148c0,2.058-0.709,3.11-2.886,3.11c-2.271,0-2.85-1.005-2.85-3.11v-5.002
			c0.189-0.023,0.378-0.059,0.567-0.059c0.213,0,0.402,0.023,0.615,0.059v5.203c0,1.147,0.248,1.999,1.655,1.999
			s1.75-0.852,1.75-1.999v-5.203c0.189-0.023,0.354-0.059,0.544-0.059c0.213,0,0.39,0.023,0.603,0.059V233.148z"/>
		<path fill="#1A2A4F" d="M124.569,229.317c-0.485-0.154-1.194-0.284-1.774-0.284c-1.797,0-2.53,1.349-2.53,3.146
			c0,0.875,0.201,1.691,0.638,2.247c0.438,0.556,1.064,0.816,1.939,0.816c0.627,0,1.218-0.131,1.667-0.261
			c0.047,0.13,0.083,0.308,0.083,0.438c0,0.166-0.012,0.308-0.047,0.462c-0.615,0.236-1.348,0.378-1.951,0.378
			c-2.507,0-3.571-1.727-3.571-4.044c0-1.277,0.378-2.425,1.1-3.182c0.615-0.639,1.514-1.005,2.566-1.005
			c0.71,0,1.431,0.178,1.88,0.378c0.047,0.154,0.059,0.249,0.059,0.414C124.628,228.986,124.616,229.163,124.569,229.317z"/>
		<path fill="#1A2A4F" d="M130.433,234.248h-3.122l-0.615,1.893c-0.154,0.023-0.402,0.06-0.639,0.06
			c-0.166,0-0.402-0.024-0.556-0.06l2.755-7.994c0.142-0.035,0.438-0.059,0.591-0.059c0.166,0,0.438,0.035,0.544,0.059l2.957,7.994
			c-0.106,0.023-0.39,0.06-0.615,0.06c-0.177,0-0.461-0.013-0.639-0.06L130.433,234.248z M127.619,233.279h2.471l-0.946-2.721
			c-0.154-0.449-0.249-0.815-0.308-1.135h-0.012c-0.059,0.319-0.177,0.697-0.319,1.146L127.619,233.279z"/>
		<path fill="#1A2A4F" d="M137.562,229.116h-2.389v7.024c-0.201,0.035-0.391,0.06-0.604,0.06c-0.201,0-0.39-0.024-0.579-0.06v-7.024
			h-2.271c-0.047-0.153-0.059-0.331-0.059-0.484c0-0.143,0.012-0.344,0.059-0.485h5.842c0.047,0.142,0.059,0.343,0.059,0.485
			C137.621,228.785,137.609,228.963,137.562,229.116z"/>
		<path fill="#1A2A4F" d="M139.89,236.141c-0.189,0.023-0.378,0.06-0.567,0.06c-0.213,0-0.402-0.024-0.615-0.06v-7.994
			c0.201-0.035,0.39-0.059,0.603-0.059c0.201,0,0.39,0.023,0.579,0.059V236.141z"/>
		<path fill="#1A2A4F" d="M144.525,236.259c-1.939,0-3.169-1.266-3.169-4.104c0-2.767,1.253-4.127,3.193-4.127
			s3.146,1.36,3.146,4.127C147.694,234.993,146.464,236.259,144.525,236.259z M144.537,229.01c-1.206,0-1.939,0.816-1.939,3.122
			c0,2.271,0.721,3.146,1.927,3.146c1.207,0,1.928-0.875,1.928-3.146C146.453,229.826,145.743,229.01,144.537,229.01z"/>
		<path fill="#1A2A4F" d="M155.261,236.141c-0.095,0.035-0.296,0.047-0.449,0.047c-0.143,0-0.284-0.012-0.414-0.047l-4.21-5.972
			v5.972c-0.106,0.035-0.391,0.06-0.568,0.06c-0.142,0-0.367-0.013-0.521-0.06v-7.994c0.095-0.023,0.343-0.047,0.461-0.047
			c0.154,0,0.354,0.012,0.473,0.047l4.139,5.877v-5.877c0.13-0.035,0.354-0.059,0.508-0.059c0.143,0,0.462,0.023,0.58,0.059V236.141
			z"/>
		<path fill="#1A2A4F" d="M162.188,233.692c-0.426,0.474-0.887,0.97-1.384,1.467h3.347c0.035,0.13,0.06,0.378,0.06,0.521
			c0,0.13-0.013,0.331-0.06,0.461h-4.636c-0.083-0.225-0.142-0.438-0.142-0.674c0-0.095,0.012-0.201,0.023-0.296
			c0.627-0.627,1.336-1.372,1.939-2.046c1.111-1.241,1.703-1.963,1.703-2.909c0-0.852-0.568-1.277-1.325-1.277
			c-0.662,0-1.383,0.201-1.927,0.485c-0.036-0.166-0.06-0.331-0.06-0.497c0-0.118,0.023-0.295,0.06-0.401
			c0.544-0.296,1.301-0.497,2.104-0.497c1.324,0,2.365,0.792,2.365,2.093C164.257,231.327,163.535,232.19,162.188,233.692z"/>
		<path fill="#1A2A4F" d="M168.287,236.259c-1.738,0-2.648-1.348-2.648-4.115c0-2.731,0.91-4.115,2.648-4.115
			s2.649,1.348,2.649,4.115S170.025,236.259,168.287,236.259z M168.287,228.951c-1.135,0-1.407,1.324-1.407,3.181
			c0,1.868,0.284,3.205,1.407,3.205c1.159,0,1.407-1.337,1.407-3.205S169.423,228.951,168.287,228.951z"/>
		<path fill="#1A2A4F" d="M176.08,236.141c-0.189,0.035-0.391,0.06-0.592,0.06s-0.402-0.024-0.591-0.06v-6.717l-1.999,1.289
			c-0.225-0.213-0.426-0.556-0.496-0.852l2.755-1.715c0.13-0.035,0.284-0.059,0.438-0.059c0.166,0,0.331,0.023,0.485,0.059V236.141z
			"/>
		<path fill="#1A2A4F" d="M180.548,236.259c-0.579,0-1.289-0.118-1.797-0.319c-0.036-0.13-0.06-0.296-0.06-0.426
			c0-0.106,0.035-0.331,0.083-0.438c0.556,0.178,1.123,0.284,1.738,0.284c1.135,0,1.75-0.615,1.75-1.62
			c0-1.349-0.816-1.644-1.939-1.644h-1.324v-3.95h4.092c0.047,0.13,0.059,0.308,0.059,0.438c0,0.166-0.012,0.354-0.059,0.521h-2.992
			v2.093h0.579c0.828,0,1.455,0.143,1.951,0.509c0.544,0.402,0.875,1.064,0.875,1.986
			C183.504,235.349,182.203,236.259,180.548,236.259z"/>
		<path fill="#1A2A4F" d="M185.513,236.259c-0.153,0.035-0.354,0.06-0.532,0.06c-0.188,0-0.426-0.024-0.591-0.06l2.472-8.23
			c0.177-0.035,0.366-0.06,0.556-0.06s0.378,0.024,0.556,0.06L185.513,236.259z"/>
		<path fill="#1A2A4F" d="M192.667,236.141c-0.189,0.035-0.391,0.06-0.592,0.06s-0.402-0.024-0.591-0.06v-6.717l-1.999,1.289
			c-0.225-0.213-0.426-0.556-0.496-0.852l2.755-1.715c0.13-0.035,0.284-0.059,0.438-0.059c0.166,0,0.331,0.023,0.485,0.059V236.141z
			"/>
		<path fill="#1A2A4F" d="M197.727,236.259c-2.129,0-2.673-1.703-2.673-3.56c0-2.247,0.875-4.671,3.524-4.671
			c0.295,0,0.697,0.06,0.875,0.118c0.035,0.095,0.059,0.284,0.059,0.379c0,0.13-0.023,0.343-0.059,0.473
			c-0.225-0.06-0.544-0.095-0.828-0.095c-1.467,0-2.117,1.147-2.282,2.826c0.438-0.402,1.04-0.603,1.655-0.603
			c1.479,0,2.224,0.981,2.224,2.389C200.222,235.088,199.334,236.259,197.727,236.259z M197.809,232.002
			c-0.579,0-1.146,0.283-1.514,0.686c0,0.095-0.012,0.225-0.012,0.319c0.012,1.159,0.225,2.377,1.455,2.377
			c0.97,0,1.253-0.935,1.253-1.773C198.991,232.782,198.743,232.002,197.809,232.002z"/>
		<path fill="#1A2A4F" d="M202.017,237.465c-0.271-0.035-0.449-0.165-0.603-0.378c1.159-1.372,1.597-2.921,1.597-4.482
			c0-1.584-0.438-3.098-1.597-4.47c0.153-0.213,0.354-0.343,0.627-0.379c1.371,1.277,2.081,3.075,2.081,4.885
			C204.122,234.449,203.389,236.188,202.017,237.465z"/>
	</g>
	
		<line fill="none" stroke="#7D7D98" stroke-width="1.701" stroke-dasharray="5.047,3.346" x1="251.145" y1="227.648" x2="283.5" y2="227.648"/>
</g>
</svg>
