<?xml version="1.0" encoding="utf-8"?>
<!-- Generator: Adobe Illustrator 16.0.0, SVG Export Plug-In . SVG Version: 6.00 Build 0)  -->
<!DOCTYPE svg PUBLIC "-//W3C//DTD SVG 1.0//EN" "http://www.w3.org/TR/2001/REC-SVG-20010904/DTD/svg10.dtd">
<svg version="1.0" xmlns="http://www.w3.org/2000/svg" xmlns:xlink="http://www.w3.org/1999/xlink" x="0px" y="0px" width="300px"
	 height="300px" viewBox="0 0 300 300" style="enable-background:new 0 0 300 300;" xml:space="preserve">
<g id="Icons">
	<path style="fill:#BBA461;" d="M121.852,94.398c0,0-9.388,0-9.388,9.388v92.537c0,0,0,9.392,9.388,9.392h158.701
		c0,0,9.391,0,9.391-9.392v-92.537c0,0,0-9.388-9.391-9.388H121.852z"/>
	<path style="fill:#BBA461;" d="M77.724,218.843c37.989,0,68.785-30.799,68.785-68.785c0-37.991-30.796-68.788-68.785-68.788
		c-37.989,0-68.785,30.797-68.785,68.788C8.939,188.044,39.735,218.843,77.724,218.843"/>
	<path style="fill:#FFFFFF;" d="M77.724,205.086c30.393,0,55.027-24.636,55.027-55.028c0-30.393-24.635-55.029-55.027-55.029
		s-55.027,24.636-55.027,55.029C22.697,180.45,47.332,205.086,77.724,205.086"/>
	<g>
		<defs>
			<path id="SVGID_1_" d="M22.693,150.06c0,30.391,24.642,55.029,55.031,55.029c30.393,0,55.03-24.639,55.03-55.029
				c0-30.393-24.638-55.033-55.03-55.033C47.335,95.027,22.693,119.667,22.693,150.06"/>
		</defs>
		<clipPath id="SVGID_2_">
			<use xlink:href="#SVGID_1_"  style="overflow:visible;"/>
		</clipPath>
		<path style="clip-path:url(#SVGID_2_);fill:#BBA461;" d="M89.167,161.801c0,0-9.584,3.177-11.43,14.327
			c-0.003,0.033-0.02,0.033-0.026,0c-1.845-11.15-11.426-14.327-11.426-14.327l6.281-6.234c-8.859-3.972-11.21-17.473-11.21-17.473
			c-0.503-1.95-0.56-3.287-0.56-3.287c4.433-0.303,19.902-1.633,20.958-6.651c1.458,2.695,9.179,9.465,12.302,9.979
			c0,0-3.03,13.351-11.313,17.424L89.167,161.801z M108.58,164.564c-0.746-1.785-2.541-2.924-4.252-3.63l-5.712-2.627
			c-0.003-4.187-0.043-25.063-0.02-27.256c0.033-3.417-0.373-6.465-1.269-9.104l7.107-2.568l0.013,6.568h-0.479
			c-0.34-0.03-0.636,0.208-0.672,0.546l-0.623,5.421c-0.023,0.168,0.03,0.332,0.133,0.461c0.103,0.13,0.253,0.211,0.423,0.225h4.962
			c0.17-0.02,0.32-0.098,0.423-0.228c0.106-0.13,0.157-0.296,0.133-0.465c-0.124-1.063-0.247-2.128-0.37-3.191l-0.26-2.23
			c-0.04-0.332-0.336-0.573-0.676-0.543h-0.479l0.01-7.481l0.253-0.092l0.839-0.305c0.713-0.258,1.186-0.935,1.186-1.688
			c0-0.757-0.473-1.437-1.186-1.692l-29.729-10.742c-0.394-0.143-0.823-0.143-1.219,0l-29.727,10.742
			c-0.712,0.255-1.188,0.935-1.188,1.692c0,0.753,0.476,1.429,1.188,1.688l10.777,3.894c-0.939,2.708-1.369,5.838-1.332,9.334
			v27.014l-5.709,2.627c-1.715,0.706-3.4,1.771-4.256,3.63c0,0-12.588,32.151-5.761,32.151c0,0,11.503,15.159,34.423,14.298
			c22.916-0.864,38.811-14.298,38.811-14.298C121.168,196.716,108.58,164.564,108.58,164.564"/>
	</g>
</g>
<g id="Text" style="display:none;">
	<text transform="matrix(1 0 0 1 130.1133 117.3887)" style="display:inline;"><tspan x="0" y="0" style="fill:#FFFFFF; font-family:'FSMatthew-Bold'; font-size:18.5501;">95</tspan><tspan x="19.997" y="0" style="fill:#FFFFFF; font-family:'FSMatthew-Bold'; font-size:18.5501;">%</tspan></text>
	<text transform="matrix(1 0 0 1 165.0264 117.3887)" style="display:inline;"><tspan x="0" y="0" style="fill:#FFFFFF; font-family:'FSMatthew-Medium'; font-size:18.5501;"> </tspan><tspan x="4.86" y="0" style="fill:#FFFFFF; font-family:'FSMatthew-Medium'; font-size:18.5501;">O</tspan><tspan x="17.455" y="0" style="fill:#FFFFFF; font-family:'FSMatthew-Medium'; font-size:18.5501;">F</tspan><tspan x="26.322" y="0" style="fill:#FFFFFF; font-family:'FSMatthew-Medium'; font-size:18.5501;"> </tspan><tspan x="31.183" y="0" style="fill:#FFFFFF; font-family:'FSMatthew-Medium'; font-size:18.5501;">S</tspan><tspan x="39.493" y="0" style="fill:#FFFFFF; font-family:'FSMatthew-Medium'; font-size:18.5501;">TUD</tspan><tspan x="72.567" y="0" style="fill:#FFFFFF; font-family:'FSMatthew-Medium'; font-size:18.5501;">E</tspan><tspan x="81.508" y="0" style="fill:#FFFFFF; font-family:'FSMatthew-Medium'; font-size:18.5501;">N</tspan><tspan x="93.547" y="0" style="fill:#FFFFFF; font-family:'FSMatthew-Medium'; font-size:18.5501;">T</tspan><tspan x="102.024" y="0" style="fill:#FFFFFF; font-family:'FSMatthew-Medium'; font-size:18.5501;">S</tspan></text>
	<text transform="matrix(1 0 0 1 155.2109 132.7285)" style="display:inline;"><tspan x="0" y="0" style="fill:#FFFFFF; font-family:'FSMatthew-Medium'; font-size:18.5501;">IN</tspan><tspan x="16.306" y="0" style="fill:#FFFFFF; font-family:'FSMatthew-Medium'; font-size:18.5501;"> </tspan><tspan x="21.146" y="0" style="fill:#FFFFFF; font-family:'FSMatthew-Medium'; font-size:18.5501;">W</tspan><tspan x="36.469" y="0" style="fill:#FFFFFF; font-family:'FSMatthew-Medium'; font-size:18.5501;">O</tspan><tspan x="49.064" y="0" style="fill:#FFFFFF; font-family:'FSMatthew-Medium'; font-size:18.5501;">RK</tspan><tspan x="68.765" y="0" style="fill:#FFFFFF; font-family:'FSMatthew-Medium'; font-size:18.5501;"> </tspan><tspan x="73.605" y="0" style="fill:#FFFFFF; font-family:'FSMatthew-Medium'; font-size:18.5501;">O</tspan><tspan x="86.22" y="0" style="fill:#FFFFFF; font-family:'FSMatthew-Medium'; font-size:18.5501;">R</tspan></text>
	<text transform="matrix(1 0 0 1 139.6279 148.0713)" style="display:inline;"><tspan x="0" y="0" style="fill:#FFFFFF; font-family:'FSMatthew-Medium'; font-size:18.5501;">F</tspan><tspan x="8.922" y="0" style="fill:#FFFFFF; font-family:'FSMatthew-Medium'; font-size:18.5501;">U</tspan><tspan x="20.758" y="0" style="fill:#FFFFFF; font-family:'FSMatthew-Medium'; font-size:18.5501;">R</tspan><tspan x="30.032" y="0" style="fill:#FFFFFF; font-family:'FSMatthew-Medium'; font-size:18.5501;">THER</tspan><tspan x="69.785" y="0" style="fill:#FFFFFF; font-family:'FSMatthew-Medium'; font-size:18.5501;"> </tspan><tspan x="74.645" y="0" style="fill:#FFFFFF; font-family:'FSMatthew-Medium'; font-size:18.5501;">S</tspan><tspan x="82.955" y="0" style="fill:#FFFFFF; font-family:'FSMatthew-Medium'; font-size:18.5501;">T</tspan><tspan x="91.989" y="0" style="fill:#FFFFFF; font-family:'FSMatthew-Medium'; font-size:18.5501;">U</tspan><tspan x="103.823" y="0" style="fill:#FFFFFF; font-family:'FSMatthew-Medium'; font-size:18.5501;">D</tspan><tspan x="115.732" y="0" style="fill:#FFFFFF; font-family:'FSMatthew-Medium'; font-size:18.5501;">Y</tspan></text>
	<text transform="matrix(1 0 0 1 142.5107 166.1641)" style="display:inline;"><tspan x="0" y="0" style="fill:#FFFFFF; font-family:'FSMatthew'; font-size:16.0327;">WI</tspan><tspan x="17.812" y="0" style="fill:#FFFFFF; font-family:'FSMatthew'; font-size:16.0327;">T</tspan><tspan x="26.117" y="0" style="fill:#FFFFFF; font-family:'FSMatthew'; font-size:16.0327;">HIN 6 </tspan><tspan x="66.262" y="0" style="fill:#FFFFFF; font-family:'FSMatthew'; font-size:16.0327;">M</tspan><tspan x="78.526" y="0" style="fill:#FFFFFF; font-family:'FSMatthew'; font-size:16.0327;">ONTH</tspan><tspan x="117.582" y="0" style="fill:#FFFFFF; font-family:'FSMatthew'; font-size:16.0327;">S</tspan></text>
	<text transform="matrix(1 0 0 1 150.4297 179.8105)" style="display:inline;"><tspan x="0" y="0" style="fill:#FFFFFF; font-family:'FSMatthew'; font-size:16.0327;">O</tspan><tspan x="9.844" y="0" style="fill:#FFFFFF; font-family:'FSMatthew'; font-size:16.0327;">F G</tspan><tspan x="30.702" y="0" style="fill:#FFFFFF; font-family:'FSMatthew'; font-size:16.0327;">R</tspan><tspan x="39.616" y="0" style="fill:#FFFFFF; font-family:'FSMatthew'; font-size:16.0327;">A</tspan><tspan x="49.092" y="0" style="fill:#FFFFFF; font-family:'FSMatthew'; font-size:16.0327;">D</tspan><tspan x="59.128" y="0" style="fill:#FFFFFF; font-family:'FSMatthew'; font-size:16.0327;">U</tspan><tspan x="68.764" y="0" style="fill:#FFFFFF; font-family:'FSMatthew'; font-size:16.0327; letter-spacing:-1;">A</tspan><tspan x="77.021" y="0" style="fill:#FFFFFF; font-family:'FSMatthew'; font-size:16.0327;">T</tspan><tspan x="85.341" y="0" style="fill:#FFFFFF; font-family:'FSMatthew'; font-size:16.0327;">I</tspan><tspan x="89.35" y="0" style="fill:#FFFFFF; font-family:'FSMatthew'; font-size:16.0327;">N</tspan><tspan x="99.963" y="0" style="fill:#FFFFFF; font-family:'FSMatthew'; font-size:16.0327;">G</tspan></text>
	<text transform="matrix(1 0 0 1 168.4717 198.2051)" style="display:inline;"><tspan x="0" y="0" style="fill:#FFFFFF; font-family:'FSMatthew'; font-size:15.3462;">(UNI</tspan><tspan x="29.848" y="0" style="fill:#FFFFFF; font-family:'FSMatthew'; font-size:15.3462;">S</tspan><tspan x="37.613" y="0" style="fill:#FFFFFF; font-family:'FSMatthew'; font-size:15.3462;">T</tspan><tspan x="44.841" y="0" style="fill:#FFFFFF; font-family:'FSMatthew'; font-size:15.3462;">A</tspan><tspan x="53.128" y="0" style="fill:#FFFFFF; font-family:'FSMatthew'; font-size:15.3462;">T</tspan><tspan x="61.139" y="0" style="fill:#FFFFFF; font-family:'FSMatthew'; font-size:15.3462;">S</tspan><tspan x="68.812" y="0" style="fill:#FFFFFF; font-family:'FSMatthew'; font-size:15.3462;">)</tspan></text>
</g>
<g id="Text_Flat">
	<g>
		<path style="fill:#FFFFFF;" d="M134.047,117.574c-0.742,0-1.559-0.111-2.004-0.26c-0.074-0.26-0.093-0.724-0.093-0.928
			c0-0.353,0.056-0.835,0.13-1.113c0.52,0.13,1.113,0.223,1.837,0.223c1.466,0,2.598-1.243,2.709-3.043
			c-0.538,0.353-1.28,0.575-2.171,0.575c-2.412,0-3.674-1.67-3.674-3.952c0-2.412,1.633-4.416,4.249-4.416
			c3.581,0,4.472,2.82,4.472,5.585C139.502,113.808,138.11,117.574,134.047,117.574z M135.086,106.775
			c-0.965,0-1.633,0.761-1.633,2.189c0,1.317,0.52,2.041,1.614,2.041c0.594,0,1.373-0.315,1.707-0.668
			c0-0.093,0.019-0.353,0.019-0.482C136.793,108.52,136.682,106.775,135.086,106.775z"/>
		<path style="fill:#FFFFFF;" d="M144.658,117.574c-1.002,0-2.486-0.204-3.507-0.557c-0.037-0.13-0.093-0.464-0.093-0.835
			c0-0.408,0.056-0.835,0.167-1.188c0.854,0.26,2.171,0.427,3.21,0.427c1.317,0,2.171-0.705,2.171-1.967
			c0-0.538-0.148-1.021-0.464-1.336c-0.408-0.408-1.095-0.575-2.097-0.575h-2.431v-6.698h7.014c0.056,0.297,0.093,0.761,0.093,1.095
			c0,0.353-0.056,0.965-0.093,1.188h-4.639v2.301h0.816c1.447,0,2.598,0.26,3.414,0.965c0.724,0.631,1.132,1.596,1.132,2.932
			C149.352,116.164,147.181,117.574,144.658,117.574z"/>
		<path style="fill:#FFFFFF;" d="M151.037,107.536c0-1.596,0.725-2.969,2.783-2.969c2.078,0,2.783,1.373,2.783,2.969
			c0,1.559-0.705,3.006-2.783,3.006C151.762,110.542,151.037,109.095,151.037,107.536z M154.99,117.593
			c-0.799-0.223-1.615-0.761-2.023-1.336l7.607-11.931c0.762,0.204,1.578,0.668,2.041,1.243L154.99,117.593z M154.451,107.573
			c0-0.798-0.166-1.299-0.631-1.299c-0.463,0-0.631,0.501-0.631,1.299s0.186,1.262,0.631,1.262S154.451,108.371,154.451,107.573z
			 M158.756,114.661c0-1.596,0.725-2.969,2.783-2.969c2.078,0,2.783,1.373,2.783,2.969c0,1.559-0.705,3.006-2.783,3.006
			C159.48,117.667,158.756,116.22,158.756,114.661z M162.17,114.698c0-0.798-0.166-1.299-0.631-1.299
			c-0.463,0-0.631,0.501-0.631,1.299s0.186,1.262,0.631,1.262S162.17,115.496,162.17,114.698z"/>
	</g>
	<g>
		<path style="fill:#FFFFFF;" d="M181.984,111.006c0,4.305-2.616,6.587-5.808,6.587c-3.303,0-5.622-2.561-5.622-6.346
			c0-3.971,2.468-6.568,5.808-6.568C179.776,104.679,181.984,107.295,181.984,111.006z M172.28,111.21
			c0,2.672,1.447,5.065,3.989,5.065c2.561,0,4.008-2.356,4.008-5.195c0-2.486-1.299-5.084-3.989-5.084
			C173.616,105.996,172.28,108.464,172.28,111.21z"/>
		<path style="fill:#FFFFFF;" d="M183.892,104.883h6.735v1.354h-5.121v4.156h4.731v1.336h-4.731v5.659h-1.614V104.883z"/>
		<path style="fill:#FFFFFF;" d="M197.396,115.422c0.724,0.445,1.781,0.816,2.895,0.816c1.651,0,2.616-0.872,2.616-2.134
			c0-1.169-0.668-1.837-2.356-2.486c-2.041-0.724-3.303-1.781-3.303-3.544c0-1.948,1.614-3.396,4.045-3.396
			c1.28,0,2.208,0.297,2.765,0.612l-0.445,1.317c-0.408-0.223-1.243-0.594-2.375-0.594c-1.707,0-2.356,1.021-2.356,1.874
			c0,1.169,0.761,1.744,2.486,2.412c2.115,0.816,3.191,1.837,3.191,3.674c0,1.93-1.429,3.6-4.379,3.6
			c-1.206,0-2.523-0.353-3.191-0.798L197.396,115.422z"/>
		<path style="fill:#FFFFFF;" d="M208.305,106.256h-3.804v-1.373h9.259v1.373h-3.822v11.133h-1.633V106.256z"/>
		<path style="fill:#FFFFFF;" d="M216.596,104.883v7.403c0,2.802,1.243,3.989,2.913,3.989c1.855,0,3.043-1.225,3.043-3.989v-7.403
			h1.633v7.292c0,3.841-2.022,5.418-4.731,5.418c-2.561,0-4.49-1.466-4.49-5.344v-7.366H216.596z"/>
		<path style="fill:#FFFFFF;" d="M226.816,105.05c0.983-0.148,2.152-0.26,3.433-0.26c2.319,0,3.971,0.538,5.065,1.559
			c1.113,1.021,1.763,2.468,1.763,4.49c0,2.041-0.631,3.711-1.8,4.861c-1.169,1.169-3.099,1.8-5.529,1.8
			c-1.15,0-2.115-0.056-2.932-0.148V105.05z M228.431,116.108c0.408,0.074,1.002,0.093,1.633,0.093c3.451,0,5.325-1.93,5.325-5.307
			c0.019-2.95-1.651-4.824-5.065-4.824c-0.835,0-1.466,0.074-1.893,0.167V116.108z"/>
		<path style="fill:#FFFFFF;" d="M245.479,111.525h-4.861v4.509h5.418v1.354h-7.032v-12.506h6.754v1.354h-5.14v3.952h4.861V111.525z
			"/>
		<path style="fill:#FFFFFF;" d="M247.944,117.389v-12.506h1.763l4.008,6.327c0.928,1.466,1.651,2.783,2.245,4.063l0.037-0.019
			c-0.148-1.67-0.186-3.191-0.186-5.14v-5.232h1.521v12.506H255.7l-3.971-6.346c-0.872-1.392-1.707-2.82-2.338-4.175l-0.056,0.019
			c0.093,1.577,0.13,3.08,0.13,5.158v5.344H247.944z"/>
		<path style="fill:#FFFFFF;" d="M262.358,106.256h-3.804v-1.373h9.259v1.373h-3.822v11.133h-1.633V106.256z"/>
		<path style="fill:#FFFFFF;" d="M268.238,115.422c0.724,0.445,1.781,0.816,2.895,0.816c1.651,0,2.616-0.872,2.616-2.134
			c0-1.169-0.668-1.837-2.356-2.486c-2.041-0.724-3.303-1.781-3.303-3.544c0-1.948,1.614-3.396,4.045-3.396
			c1.28,0,2.208,0.297,2.765,0.612l-0.445,1.317c-0.408-0.223-1.243-0.594-2.375-0.594c-1.707,0-2.356,1.021-2.356,1.874
			c0,1.169,0.761,1.744,2.486,2.412c2.115,0.816,3.191,1.837,3.191,3.674c0,1.93-1.429,3.6-4.379,3.6
			c-1.206,0-2.523-0.353-3.191-0.798L268.238,115.422z"/>
	</g>
	<g>
		<path style="fill:#FFFFFF;" d="M158.235,120.223v12.506h-1.614v-12.506H158.235z"/>
		<path style="fill:#FFFFFF;" d="M160.888,132.729v-12.506h1.763l4.008,6.327c0.928,1.466,1.651,2.783,2.245,4.063l0.037-0.019
			c-0.148-1.67-0.186-3.191-0.186-5.14v-5.232h1.521v12.506h-1.633l-3.971-6.346c-0.872-1.392-1.707-2.82-2.338-4.175l-0.056,0.019
			c0.093,1.577,0.13,3.08,0.13,5.158v5.344H160.888z"/>
		<path style="fill:#FFFFFF;" d="M179.809,132.729l-3.173-12.506h1.707l1.484,6.327c0.371,1.559,0.705,3.117,0.928,4.323h0.037
			c0.204-1.243,0.594-2.728,1.021-4.342l1.67-6.309h1.688l1.521,6.346c0.353,1.484,0.687,2.969,0.872,4.286h0.037
			c0.26-1.373,0.612-2.765,1.002-4.323l1.651-6.309h1.651l-3.544,12.506h-1.688l-1.577-6.513c-0.39-1.596-0.649-2.82-0.816-4.082
			h-0.037c-0.223,1.243-0.501,2.468-0.965,4.082l-1.781,6.513H179.809z"/>
		<path style="fill:#FFFFFF;" d="M203.777,126.346c0,4.305-2.616,6.587-5.808,6.587c-3.303,0-5.622-2.561-5.622-6.346
			c0-3.971,2.468-6.568,5.808-6.568C201.569,120.019,203.777,122.635,203.777,126.346z M194.073,126.55
			c0,2.672,1.447,5.065,3.989,5.065c2.561,0,4.008-2.356,4.008-5.195c0-2.486-1.299-5.084-3.989-5.084
			C195.409,121.336,194.073,123.804,194.073,126.55z"/>
		<path style="fill:#FFFFFF;" d="M205.686,120.39c0.816-0.167,1.985-0.26,3.099-0.26c1.726,0,2.839,0.315,3.618,1.021
			c0.631,0.557,0.983,1.41,0.983,2.375c0,1.651-1.039,2.746-2.356,3.191v0.056c0.965,0.334,1.54,1.225,1.837,2.523
			c0.408,1.744,0.705,2.95,0.965,3.433h-1.67c-0.204-0.353-0.482-1.429-0.835-2.987c-0.371-1.726-1.039-2.375-2.505-2.431H207.3
			v5.418h-1.614V120.39z M207.3,126.086h1.651c1.726,0,2.82-0.946,2.82-2.375c0-1.614-1.169-2.319-2.876-2.338
			c-0.779,0-1.336,0.074-1.596,0.148V126.086z"/>
		<path style="fill:#FFFFFF;" d="M215.498,120.223h1.614v6.03h0.056c0.334-0.482,0.668-0.928,0.983-1.336l3.822-4.694h2.004
			l-4.527,5.307l4.88,7.199h-1.911l-4.119-6.142l-1.188,1.373v4.769h-1.614V120.223z"/>
		<path style="fill:#FFFFFF;" d="M240.914,126.346c0,4.305-2.616,6.587-5.808,6.587c-3.303,0-5.622-2.561-5.622-6.346
			c0-3.971,2.468-6.568,5.808-6.568C238.706,120.019,240.914,122.635,240.914,126.346z M231.21,126.55
			c0,2.672,1.447,5.065,3.989,5.065c2.561,0,4.008-2.356,4.008-5.195c0-2.486-1.299-5.084-3.989-5.084
			C232.546,121.336,231.21,123.804,231.21,126.55z"/>
		<path style="fill:#FFFFFF;" d="M242.841,120.39c0.816-0.167,1.985-0.26,3.099-0.26c1.726,0,2.839,0.315,3.618,1.021
			c0.631,0.557,0.983,1.41,0.983,2.375c0,1.651-1.039,2.746-2.356,3.191v0.056c0.965,0.334,1.54,1.225,1.837,2.523
			c0.408,1.744,0.705,2.95,0.965,3.433h-1.67c-0.204-0.353-0.482-1.429-0.835-2.987c-0.371-1.726-1.039-2.375-2.505-2.431h-1.521
			v5.418h-1.614V120.39z M244.455,126.086h1.651c1.726,0,2.82-0.946,2.82-2.375c0-1.614-1.169-2.319-2.876-2.338
			c-0.779,0-1.336,0.074-1.596,0.148V126.086z"/>
	</g>
	<g>
		<path style="fill:#FFFFFF;" d="M141.038,135.565h6.735v1.354h-5.121v4.156h4.731v1.336h-4.731v5.659h-1.614V135.565z"/>
		<path style="fill:#FFFFFF;" d="M151.574,135.565v7.403c0,2.802,1.244,3.989,2.914,3.989c1.855,0,3.043-1.225,3.043-3.989v-7.403
			h1.633v7.292c0,3.841-2.023,5.418-4.732,5.418c-2.561,0-4.49-1.466-4.49-5.344v-7.366H151.574z"/>
		<path style="fill:#FFFFFF;" d="M161.796,135.732c0.816-0.167,1.985-0.26,3.099-0.26c1.726,0,2.839,0.315,3.618,1.021
			c0.631,0.557,0.983,1.41,0.983,2.375c0,1.651-1.039,2.746-2.356,3.191v0.056c0.965,0.334,1.54,1.225,1.837,2.523
			c0.408,1.744,0.705,2.95,0.965,3.433h-1.67c-0.204-0.353-0.482-1.429-0.835-2.987c-0.371-1.726-1.039-2.375-2.505-2.431h-1.521
			v5.418h-1.614V135.732z M163.41,141.429h1.651c1.726,0,2.82-0.946,2.82-2.375c0-1.614-1.169-2.319-2.876-2.338
			c-0.779,0-1.336,0.074-1.596,0.148V141.429z"/>
		<path style="fill:#FFFFFF;" d="M173.445,136.938h-3.804v-1.373h9.259v1.373h-3.822v11.133h-1.633V136.938z"/>
		<path style="fill:#FFFFFF;" d="M181.737,135.565v5.232h6.049v-5.232h1.633v12.506h-1.633v-5.863h-6.049v5.863h-1.614v-12.506
			H181.737z"/>
		<path style="fill:#FFFFFF;" d="M198.526,142.208h-4.861v4.509h5.418v1.354h-7.032v-12.506h6.754v1.354h-5.14v3.952h4.861V142.208z
			"/>
		<path style="fill:#FFFFFF;" d="M201.01,135.732c0.816-0.167,1.985-0.26,3.099-0.26c1.726,0,2.839,0.315,3.618,1.021
			c0.631,0.557,0.983,1.41,0.983,2.375c0,1.651-1.039,2.746-2.356,3.191v0.056c0.965,0.334,1.54,1.225,1.837,2.523
			c0.408,1.744,0.705,2.95,0.965,3.433h-1.67c-0.204-0.353-0.482-1.429-0.835-2.987c-0.371-1.726-1.039-2.375-2.505-2.431h-1.521
			v5.418h-1.614V135.732z M202.624,141.429h1.651c1.726,0,2.82-0.946,2.82-2.375c0-1.614-1.169-2.319-2.876-2.338
			c-0.779,0-1.336,0.074-1.596,0.148V141.429z"/>
		<path style="fill:#FFFFFF;" d="M215.46,146.104c0.724,0.445,1.781,0.816,2.895,0.816c1.651,0,2.616-0.872,2.616-2.134
			c0-1.169-0.668-1.837-2.356-2.486c-2.041-0.724-3.303-1.781-3.303-3.544c0-1.948,1.614-3.396,4.045-3.396
			c1.28,0,2.208,0.297,2.765,0.612l-0.445,1.317c-0.408-0.223-1.243-0.594-2.375-0.594c-1.707,0-2.356,1.021-2.356,1.874
			c0,1.169,0.761,1.744,2.486,2.412c2.115,0.816,3.191,1.837,3.191,3.674c0,1.93-1.429,3.6-4.379,3.6
			c-1.206,0-2.523-0.353-3.191-0.798L215.46,146.104z"/>
		<path style="fill:#FFFFFF;" d="M226.368,136.938h-3.804v-1.373h9.259v1.373h-3.822v11.133h-1.633V136.938z"/>
		<path style="fill:#FFFFFF;" d="M234.642,135.565v7.403c0,2.802,1.243,3.989,2.913,3.989c1.855,0,3.043-1.225,3.043-3.989v-7.403
			h1.633v7.292c0,3.841-2.022,5.418-4.731,5.418c-2.561,0-4.49-1.466-4.49-5.344v-7.366H234.642z"/>
		<path style="fill:#FFFFFF;" d="M244.861,135.732c0.983-0.148,2.152-0.26,3.433-0.26c2.319,0,3.971,0.538,5.065,1.559
			c1.113,1.021,1.763,2.468,1.763,4.49c0,2.041-0.631,3.711-1.8,4.861c-1.169,1.169-3.099,1.8-5.529,1.8
			c-1.15,0-2.115-0.056-2.932-0.148V135.732z M246.476,146.791c0.408,0.074,1.002,0.093,1.633,0.093c3.451,0,5.325-1.93,5.325-5.307
			c0.019-2.95-1.651-4.824-5.065-4.824c-0.835,0-1.466,0.074-1.893,0.167V146.791z"/>
		<path style="fill:#FFFFFF;" d="M259.554,148.071v-5.307l-3.952-7.199h1.837l1.763,3.451c0.482,0.946,0.854,1.707,1.243,2.579
			h0.037c0.353-0.816,0.779-1.633,1.262-2.579l1.8-3.451h1.837l-4.193,7.181v5.325H259.554z"/>
	</g>
	<g>
		<path style="fill:#FFFFFF;" d="M147.514,166.164c-0.336,0.047-0.641,0.08-0.978,0.08c-0.289,0-0.658-0.033-0.946-0.08
			l-2.277-8.131c-0.272-0.947-0.385-1.812-0.385-2.711c0.241-0.064,0.449-0.08,0.786-0.08c0.289,0,0.481,0,0.786,0.08
			c0,0.85,0.064,1.523,0.336,2.551l1.347,5.131c0.176,0.689,0.305,1.188,0.353,1.588h0.016c0.048-0.4,0.176-0.994,0.321-1.572
			l1.844-7.697c0.256-0.047,0.513-0.08,0.77-0.08c0.257,0,0.497,0.033,0.754,0.08l1.828,7.697c0.129,0.529,0.257,1.092,0.305,1.572
			h0.017c0.064-0.48,0.208-1.074,0.353-1.588l1.396-5.131c0.24-0.85,0.353-1.701,0.353-2.551c0.209-0.047,0.434-0.08,0.754-0.08
			c0.257,0,0.545,0.016,0.786,0.08c0,0.898-0.112,1.748-0.385,2.711l-2.294,8.131c-0.272,0.047-0.625,0.08-0.914,0.08
			c-0.337,0-0.642-0.033-0.979-0.08l-1.635-6.721c-0.128-0.512-0.225-1.121-0.337-1.779h-0.016
			c-0.112,0.658-0.208,1.268-0.337,1.797L147.514,166.164z"/>
		<path style="fill:#FFFFFF;" d="M159.186,166.164c-0.257,0.031-0.514,0.08-0.77,0.08c-0.289,0-0.546-0.033-0.834-0.08v-10.842
			c0.272-0.047,0.529-0.08,0.817-0.08c0.272,0,0.529,0.033,0.786,0.08V166.164z"/>
		<path style="fill:#FFFFFF;" d="M168.519,156.637h-3.24v9.527c-0.272,0.047-0.529,0.08-0.817,0.08c-0.272,0-0.529-0.033-0.786-0.08
			v-9.527h-3.079c-0.064-0.207-0.08-0.447-0.08-0.656c0-0.193,0.016-0.465,0.08-0.658h7.923c0.063,0.193,0.08,0.465,0.08,0.658
			C168.599,156.189,168.582,156.43,168.519,156.637z"/>
		<path style="fill:#FFFFFF;" d="M177.833,166.164c-0.257,0.031-0.497,0.08-0.754,0.08c-0.288,0-0.561-0.033-0.85-0.08v-4.812
			h-4.795v4.812c-0.272,0.047-0.562,0.08-0.851,0.08c-0.272,0-0.497-0.033-0.753-0.08v-10.842c0.192-0.031,0.48-0.08,0.737-0.08
			c0.289,0,0.577,0.033,0.866,0.08v4.715h4.795v-4.715c0.272-0.047,0.545-0.08,0.834-0.08c0.272,0,0.513,0.033,0.77,0.08V166.164z"
			/>
		<path style="fill:#FFFFFF;" d="M181.775,166.164c-0.257,0.031-0.514,0.08-0.77,0.08c-0.289,0-0.546-0.033-0.834-0.08v-10.842
			c0.272-0.047,0.529-0.08,0.817-0.08c0.272,0,0.529,0.033,0.786,0.08V166.164z"/>
		<path style="fill:#FFFFFF;" d="M192.47,166.164c-0.128,0.047-0.4,0.064-0.609,0.064c-0.192,0-0.385-0.018-0.561-0.064l-5.71-8.1
			v8.1c-0.144,0.047-0.528,0.08-0.77,0.08c-0.192,0-0.497-0.016-0.705-0.08v-10.842c0.128-0.031,0.465-0.064,0.625-0.064
			c0.209,0,0.481,0.018,0.642,0.064l5.613,7.971v-7.971c0.176-0.047,0.48-0.08,0.689-0.08c0.192,0,0.625,0.033,0.785,0.08V166.164z"
			/>
		<path style="fill:#FFFFFF;" d="M201.398,166.324c-2.887,0-3.624-2.311-3.624-4.828c0-3.047,1.187-6.334,4.778-6.334
			c0.401,0,0.946,0.08,1.188,0.16c0.048,0.129,0.08,0.385,0.08,0.514c0,0.176-0.032,0.465-0.08,0.641
			c-0.305-0.08-0.738-0.127-1.123-0.127c-1.988,0-2.87,1.555-3.095,3.832c0.593-0.545,1.411-0.818,2.245-0.818
			c2.005,0,3.015,1.332,3.015,3.24C204.782,164.736,203.58,166.324,201.398,166.324z M201.511,160.551
			c-0.786,0-1.556,0.385-2.053,0.93c0,0.129-0.016,0.305-0.016,0.434c0.016,1.572,0.305,3.223,1.973,3.223
			c1.314,0,1.699-1.266,1.699-2.404C203.114,161.609,202.777,160.551,201.511,160.551z"/>
		<path style="fill:#FFFFFF;" d="M220.175,166.164c-0.192,0.047-0.481,0.08-0.706,0.08c-0.208,0-0.689-0.033-0.882-0.08
			l-0.192-7.762l-2.839,6.75c-0.08,0.033-0.417,0.064-0.561,0.064c-0.145,0-0.434-0.031-0.529-0.064l-2.887-6.75l-0.192,7.762
			c-0.177,0.031-0.594,0.08-0.818,0.08c-0.16,0-0.545-0.049-0.705-0.08l0.385-10.842c0.24-0.047,0.497-0.08,0.657-0.08
			c0.225,0,0.577,0.049,0.722,0.08l3.384,7.795l3.271-7.795c0.209-0.031,0.609-0.08,0.834-0.08s0.577,0.049,0.706,0.08
			L220.175,166.164z"/>
		<path style="fill:#FFFFFF;" d="M226.041,166.324c-2.631,0-4.298-1.717-4.298-5.564c0-3.754,1.699-5.598,4.329-5.598
			c2.631,0,4.267,1.844,4.267,5.598C230.339,164.607,228.671,166.324,226.041,166.324z M226.057,156.494
			c-1.636,0-2.63,1.105-2.63,4.232c0,3.08,0.979,4.266,2.614,4.266s2.613-1.186,2.613-4.266
			C228.654,157.6,227.692,156.494,226.057,156.494z"/>
		<path style="fill:#FFFFFF;" d="M240.455,166.164c-0.128,0.047-0.4,0.064-0.609,0.064c-0.192,0-0.385-0.018-0.561-0.064l-5.71-8.1
			v8.1c-0.144,0.047-0.528,0.08-0.77,0.08c-0.192,0-0.497-0.016-0.705-0.08v-10.842c0.128-0.031,0.465-0.064,0.625-0.064
			c0.209,0,0.481,0.018,0.642,0.064l5.613,7.971v-7.971c0.176-0.047,0.48-0.08,0.689-0.08c0.192,0,0.625,0.033,0.785,0.08V166.164z"
			/>
		<path style="fill:#FFFFFF;" d="M249.706,156.637h-3.24v9.527c-0.272,0.047-0.529,0.08-0.817,0.08c-0.272,0-0.529-0.033-0.786-0.08
			v-9.527h-3.079c-0.064-0.207-0.08-0.447-0.08-0.656c0-0.193,0.016-0.465,0.08-0.658h7.923c0.063,0.193,0.08,0.465,0.08,0.658
			C249.786,156.189,249.77,156.43,249.706,156.637z"/>
		<path style="fill:#FFFFFF;" d="M259.037,166.164c-0.257,0.031-0.497,0.08-0.754,0.08c-0.288,0-0.561-0.033-0.85-0.08v-4.812
			h-4.795v4.812c-0.272,0.047-0.562,0.08-0.851,0.08c-0.272,0-0.497-0.033-0.753-0.08v-10.842c0.192-0.031,0.48-0.08,0.737-0.08
			c0.289,0,0.577,0.033,0.866,0.08v4.715h4.795v-4.715c0.272-0.047,0.545-0.08,0.834-0.08c0.272,0,0.513,0.033,0.77,0.08V166.164z"
			/>
		<path style="fill:#FFFFFF;" d="M264.021,166.324c-0.882,0-2.293-0.193-3.079-0.609c-0.048-0.225-0.08-0.434-0.08-0.658
			c0-0.24,0.017-0.48,0.08-0.705c0.754,0.354,2.085,0.658,2.999,0.658c1.331,0,2.229-0.514,2.229-1.621
			c0-1.01-0.465-1.508-1.765-1.988l-0.817-0.305c-1.62-0.609-2.614-1.492-2.614-2.982c0-2.006,1.7-2.951,3.641-2.951
			c0.85,0,1.668,0.096,2.422,0.289c0.048,0.191,0.08,0.4,0.08,0.609c0,0.225-0.032,0.449-0.08,0.674
			c-0.786-0.16-1.523-0.258-2.326-0.258c-1.09,0-2.116,0.434-2.116,1.588c0,0.818,0.449,1.316,1.716,1.797l0.754,0.289
			c1.651,0.609,2.646,1.379,2.646,3.078C267.71,165.314,266.074,166.324,264.021,166.324z"/>
	</g>
	<g>
		<path style="fill:#FFFFFF;" d="M155.434,179.971c-2.631,0-4.298-1.717-4.298-5.564c0-3.754,1.699-5.598,4.329-5.598
			c2.631,0,4.267,1.844,4.267,5.598C159.731,178.254,158.063,179.971,155.434,179.971z M155.449,170.141
			c-1.636,0-2.63,1.105-2.63,4.232c0,3.08,0.979,4.266,2.614,4.266s2.613-1.186,2.613-4.266
			C158.047,171.246,157.085,170.141,155.449,170.141z"/>
		<path style="fill:#FFFFFF;" d="M167.555,170.283h-4.475v3.271h3.704c0.064,0.193,0.08,0.467,0.08,0.658
			c0,0.209-0.016,0.449-0.08,0.658h-3.704v4.939c-0.272,0.047-0.514,0.08-0.802,0.08c-0.272,0-0.546-0.033-0.802-0.08v-10.842h6.078
			c0.063,0.193,0.08,0.465,0.08,0.658C167.635,169.836,167.618,170.076,167.555,170.283z"/>
		<path style="fill:#FFFFFF;" d="M180.252,179.232c-0.866,0.418-2.021,0.738-3.239,0.738c-3.384,0-4.955-2.229-4.955-5.469
			c0-1.893,0.657-3.527,1.86-4.555c0.85-0.721,2.021-1.139,3.367-1.139c0.994,0,1.988,0.209,2.598,0.48
			c0.064,0.209,0.081,0.402,0.081,0.627s-0.017,0.416-0.081,0.625c-0.705-0.209-1.716-0.369-2.47-0.369
			c-1.058,0-1.892,0.336-2.47,0.883c-0.833,0.785-1.202,2.035-1.202,3.416c0,2.645,1.154,4.121,3.432,4.121
			c0.577,0,1.139-0.113,1.476-0.258v-3.527c0.257-0.031,0.497-0.08,0.754-0.08c0.288,0,0.562,0.031,0.85,0.08V179.232z"/>
		<path style="fill:#FFFFFF;" d="M189.551,179.811c-0.32,0.047-0.641,0.08-0.962,0.08c-0.305,0-0.562-0.016-0.866-0.08l-2.373-4.17
			h-1.411v4.17c-0.272,0.047-0.546,0.08-0.818,0.08c-0.256,0-0.529-0.033-0.785-0.08v-10.842c0.785-0.047,1.731-0.08,2.646-0.08
			c2.262,0,4.073,0.689,4.073,3.287c0,1.428-0.785,2.68-2.101,3.16L189.551,179.811z M185.157,170.141c-0.369,0-0.946,0-1.219,0.016
			v4.217h1.091c1.507,0,2.405-0.674,2.405-2.197C187.435,170.701,186.584,170.141,185.157,170.141z"/>
		<path style="fill:#FFFFFF;" d="M196.99,177.244h-4.234l-0.834,2.566c-0.208,0.031-0.545,0.08-0.865,0.08
			c-0.225,0-0.546-0.033-0.754-0.08l3.736-10.842c0.192-0.047,0.594-0.08,0.802-0.08c0.225,0,0.594,0.049,0.738,0.08l4.009,10.842
			c-0.145,0.031-0.529,0.08-0.834,0.08c-0.24,0-0.625-0.016-0.866-0.08L196.99,177.244z M193.173,175.93h3.352l-1.282-3.689
			c-0.209-0.609-0.337-1.105-0.417-1.539h-0.017c-0.08,0.434-0.24,0.945-0.433,1.555L193.173,175.93z"/>
		<path style="fill:#FFFFFF;" d="M207.331,178.863c-0.93,0.738-2.213,1.027-4.009,1.027c-0.737,0-2.117-0.033-2.598-0.08v-10.842
			c0.737-0.047,1.731-0.08,2.854-0.08c3.721,0,5.42,1.539,5.42,5.438C208.999,176.426,208.422,177.982,207.331,178.863z
			 M203.562,170.141c-0.32,0-0.897,0.016-1.234,0.031v8.404c0.288,0.031,0.817,0.047,1.379,0.047c1.219,0,2.021-0.336,2.582-0.93
			c0.754-0.785,1.026-2.053,1.026-3.4C207.315,171.551,206.529,170.141,203.562,170.141z"/>
		<path style="fill:#FFFFFF;" d="M218.49,175.752c0,2.791-0.962,4.219-3.913,4.219c-3.079,0-3.865-1.363-3.865-4.219v-6.783
			c0.257-0.031,0.514-0.08,0.771-0.08c0.288,0,0.545,0.033,0.834,0.08v7.057c0,1.555,0.336,2.711,2.245,2.711
			c1.908,0,2.373-1.156,2.373-2.711v-7.057c0.257-0.031,0.481-0.08,0.737-0.08c0.289,0,0.529,0.033,0.818,0.08V175.752z"/>
		<path style="fill:#FFFFFF;" d="M226.138,177.244h-4.234l-0.834,2.566c-0.208,0.031-0.545,0.08-0.865,0.08
			c-0.225,0-0.546-0.033-0.754-0.08l3.736-10.842c0.192-0.047,0.594-0.08,0.802-0.08c0.225,0,0.594,0.049,0.738,0.08l4.009,10.842
			c-0.145,0.031-0.529,0.08-0.834,0.08c-0.24,0-0.625-0.016-0.866-0.08L226.138,177.244z M222.32,175.93h3.352l-1.282-3.689
			c-0.209-0.609-0.337-1.105-0.417-1.539h-0.017c-0.08,0.434-0.24,0.945-0.433,1.555L222.32,175.93z"/>
		<path style="fill:#FFFFFF;" d="M235.646,170.283h-3.24v9.527c-0.272,0.047-0.529,0.08-0.817,0.08c-0.272,0-0.529-0.033-0.786-0.08
			v-9.527h-3.079c-0.064-0.207-0.08-0.447-0.08-0.656c0-0.193,0.016-0.465,0.08-0.658h7.923c0.063,0.193,0.08,0.465,0.08,0.658
			C235.726,169.836,235.709,170.076,235.646,170.283z"/>
		<path style="fill:#FFFFFF;" d="M238.657,179.811c-0.257,0.031-0.514,0.08-0.77,0.08c-0.289,0-0.546-0.033-0.834-0.08v-10.842
			c0.272-0.047,0.529-0.08,0.817-0.08c0.272,0,0.529,0.033,0.786,0.08V179.811z"/>
		<path style="fill:#FFFFFF;" d="M249.337,179.811c-0.128,0.047-0.4,0.064-0.609,0.064c-0.192,0-0.385-0.018-0.561-0.064l-5.71-8.1
			v8.1c-0.144,0.047-0.528,0.08-0.77,0.08c-0.192,0-0.497-0.016-0.705-0.08v-10.842c0.128-0.031,0.465-0.064,0.625-0.064
			c0.209,0,0.481,0.018,0.642,0.064l5.613,7.971v-7.971c0.176-0.047,0.48-0.08,0.689-0.08c0.192,0,0.625,0.033,0.785,0.08V179.811z"
			/>
		<path style="fill:#FFFFFF;" d="M259.293,179.232c-0.866,0.418-2.021,0.738-3.239,0.738c-3.384,0-4.955-2.229-4.955-5.469
			c0-1.893,0.657-3.527,1.86-4.555c0.85-0.721,2.021-1.139,3.367-1.139c0.994,0,1.988,0.209,2.598,0.48
			c0.064,0.209,0.081,0.402,0.081,0.627s-0.017,0.416-0.081,0.625c-0.705-0.209-1.716-0.369-2.47-0.369
			c-1.058,0-1.892,0.336-2.47,0.883c-0.833,0.785-1.202,2.035-1.202,3.416c0,2.645,1.154,4.121,3.432,4.121
			c0.577,0,1.139-0.113,1.476-0.258v-3.527c0.257-0.031,0.497-0.08,0.754-0.08c0.288,0,0.562,0.031,0.85,0.08V179.232z"/>
	</g>
	<g>
		<path style="fill:#FFFFFF;" d="M171.818,199.924c-1.781-1.658-2.732-3.99-2.732-6.34c0-2.348,0.951-4.605,2.732-6.264
			c0.353,0.047,0.583,0.215,0.782,0.492c-1.504,1.781-2.072,3.791-2.072,5.818c0,2.057,0.568,4.021,2.072,5.803
			C172.401,199.709,172.171,199.877,171.818,199.924z"/>
		<path style="fill:#FFFFFF;" d="M182.239,194.32c0,2.672-0.921,4.037-3.745,4.037c-2.947,0-3.699-1.305-3.699-4.037v-6.492
			c0.245-0.031,0.491-0.076,0.736-0.076c0.276,0,0.522,0.029,0.799,0.076v6.754c0,1.488,0.322,2.594,2.148,2.594
			c1.827,0,2.272-1.105,2.272-2.594v-6.754c0.245-0.031,0.46-0.076,0.706-0.076c0.276,0,0.506,0.029,0.782,0.076V194.32z"/>
		<path style="fill:#FFFFFF;" d="M192.721,198.205c-0.122,0.045-0.384,0.061-0.583,0.061c-0.185,0-0.368-0.016-0.537-0.061
			l-5.465-7.752v7.752c-0.138,0.045-0.507,0.076-0.736,0.076c-0.185,0-0.477-0.016-0.676-0.076v-10.377
			c0.123-0.031,0.445-0.062,0.599-0.062c0.199,0,0.461,0.016,0.614,0.062l5.372,7.629v-7.629c0.169-0.047,0.461-0.076,0.66-0.076
			c0.185,0,0.599,0.029,0.752,0.076V198.205z"/>
		<path style="fill:#FFFFFF;" d="M196.862,198.205c-0.245,0.029-0.491,0.076-0.736,0.076c-0.276,0-0.522-0.031-0.798-0.076v-10.377
			c0.261-0.047,0.506-0.076,0.782-0.076c0.261,0,0.507,0.029,0.752,0.076V198.205z"/>
		<path style="fill:#FFFFFF;" d="M202.08,198.357c-0.844,0-2.195-0.184-2.947-0.582c-0.046-0.215-0.076-0.416-0.076-0.631
			c0-0.229,0.015-0.459,0.076-0.674c0.722,0.338,1.996,0.629,2.871,0.629c1.273,0,2.133-0.492,2.133-1.551
			c0-0.967-0.444-1.443-1.688-1.902l-0.782-0.293c-1.551-0.582-2.502-1.428-2.502-2.855c0-1.918,1.627-2.824,3.484-2.824
			c0.813,0,1.596,0.092,2.317,0.277c0.046,0.184,0.077,0.383,0.077,0.582c0,0.215-0.031,0.43-0.077,0.645
			c-0.752-0.152-1.458-0.244-2.226-0.244c-1.044,0-2.026,0.414-2.026,1.52c0,0.783,0.43,1.258,1.643,1.719l0.722,0.275
			c1.581,0.584,2.532,1.32,2.532,2.947C205.61,197.391,204.045,198.357,202.08,198.357z"/>
		<path style="fill:#FFFFFF;" d="M213.929,189.086h-3.101v9.119c-0.261,0.045-0.507,0.076-0.783,0.076
			c-0.261,0-0.506-0.031-0.752-0.076v-9.119h-2.947c-0.062-0.199-0.076-0.43-0.076-0.629c0-0.184,0.015-0.445,0.076-0.629h7.583
			c0.062,0.184,0.077,0.445,0.077,0.629C214.006,188.656,213.99,188.887,213.929,189.086z"/>
		<path style="fill:#FFFFFF;" d="M219.959,195.748h-4.053l-0.798,2.457c-0.199,0.029-0.521,0.076-0.829,0.076
			c-0.215,0-0.521-0.031-0.721-0.076l3.576-10.377c0.185-0.047,0.568-0.076,0.768-0.076c0.215,0,0.568,0.045,0.706,0.076
			l3.838,10.377c-0.139,0.029-0.507,0.076-0.799,0.076c-0.229,0-0.599-0.016-0.829-0.076L219.959,195.748z M216.306,194.49h3.208
			l-1.228-3.531c-0.199-0.584-0.322-1.059-0.399-1.473h-0.016c-0.076,0.414-0.229,0.904-0.414,1.488L216.306,194.49z"/>
		<path style="fill:#FFFFFF;" d="M229.443,189.086h-3.101v9.119c-0.261,0.045-0.507,0.076-0.783,0.076
			c-0.261,0-0.506-0.031-0.752-0.076v-9.119h-2.947c-0.062-0.199-0.076-0.43-0.076-0.629c0-0.184,0.015-0.445,0.076-0.629h7.583
			c0.062,0.184,0.077,0.445,0.077,0.629C229.521,188.656,229.505,188.887,229.443,189.086z"/>
		<path style="fill:#FFFFFF;" d="M233.371,198.357c-0.844,0-2.195-0.184-2.947-0.582c-0.046-0.215-0.076-0.416-0.076-0.631
			c0-0.229,0.015-0.459,0.076-0.674c0.722,0.338,1.996,0.629,2.871,0.629c1.273,0,2.133-0.492,2.133-1.551
			c0-0.967-0.444-1.443-1.688-1.902l-0.782-0.293c-1.551-0.582-2.502-1.428-2.502-2.855c0-1.918,1.627-2.824,3.484-2.824
			c0.813,0,1.596,0.092,2.317,0.277c0.046,0.184,0.077,0.383,0.077,0.582c0,0.215-0.031,0.43-0.077,0.645
			c-0.752-0.152-1.458-0.244-2.226-0.244c-1.044,0-2.026,0.414-2.026,1.52c0,0.783,0.43,1.258,1.643,1.719l0.722,0.275
			c1.581,0.584,2.532,1.32,2.532,2.947C236.901,197.391,235.336,198.357,233.371,198.357z"/>
		<path style="fill:#FFFFFF;" d="M238.895,199.924c-0.353-0.047-0.583-0.215-0.782-0.49c1.504-1.781,2.072-3.793,2.072-5.818
			c0-2.057-0.568-4.021-2.072-5.803c0.199-0.277,0.46-0.445,0.813-0.492c1.78,1.658,2.701,3.992,2.701,6.34
			C241.627,196.01,240.676,198.266,238.895,199.924z"/>
	</g>
</g>
</svg>
