<?xml version="1.0" encoding="utf-8"?>
<!-- Generator: Adobe Illustrator 16.0.0, SVG Export Plug-In . SVG Version: 6.00 Build 0)  -->
<!DOCTYPE svg PUBLIC "-//W3C//DTD SVG 1.0//EN" "http://www.w3.org/TR/2001/REC-SVG-20010904/DTD/svg10.dtd">
<svg version="1.0" xmlns="http://www.w3.org/2000/svg" xmlns:xlink="http://www.w3.org/1999/xlink" x="0px" y="0px" width="300px"
	 height="300px" viewBox="0 0 300 300" style="enable-background:new 0 0 300 300;" xml:space="preserve">
<g id="Text">
	<text transform="matrix(1 0 0 1 86.3281 74.8555)"><tspan x="0" y="0" style="fill:#1A2A4F; font-family:'FSMatthew-Bold'; font-size:31.5898;">T</tspan><tspan x="16.553" y="0" style="fill:#1A2A4F; font-family:'FSMatthew-Bold'; font-size:31.5898;">O</tspan><tspan x="36.928" y="0" style="fill:#1A2A4F; font-family:'FSMatthew-Bold'; font-size:31.5898;">P</tspan></text>
	<text transform="matrix(1 0 0 1 80.2637 124.9727)"><tspan x="0" y="0" style="fill:#1A2A4F; font-family:'FSMatthew-Bold'; font-size:63.0527;">15</tspan><tspan x="67.969" y="0" style="fill:#1A2A4F; font-family:'FSMatthew-Bold'; font-size:63.0527;">0</tspan></text>
	<text transform="matrix(1 0 0 1 78.3447 175.2461)"><tspan x="0" y="0" style="fill:#1A2A4F; font-family:'FSMatthew-Bold'; font-size:23.7463;">W</tspan><tspan x="20.683" y="0" style="fill:#1A2A4F; font-family:'FSMatthew-Bold'; font-size:23.7463;">e a</tspan><tspan x="51.362" y="0" style="fill:#1A2A4F; font-family:'FSMatthew-Bold'; font-size:23.7463;">r</tspan><tspan x="60.196" y="0" style="fill:#1A2A4F; font-family:'FSMatthew-Bold'; font-size:23.7463;">e in the </tspan></text>
	<text transform="matrix(1 0 0 1 89.6006 198.9941)"><tspan x="0" y="0" style="fill:#1A2A4F; font-family:'FSMatthew-Bold'; font-size:23.7463;">w</tspan><tspan x="17.976" y="0" style="fill:#1A2A4F; font-family:'FSMatthew-Bold'; font-size:23.7463;">orld</tspan><tspan x="60.267" y="0" style="fill:#1A2A4F; font-family:'FSMatthew-Bold'; font-size:23.7463;">’</tspan><tspan x="64.589" y="0" style="fill:#1A2A4F; font-family:'FSMatthew-Bold'; font-size:23.7463;">s</tspan><tspan x="75.298" y="0" style="fill:#1A2A4F; font-family:'FSMatthew-Bold'; font-size:23.7463; letter-spacing:-1;"> </tspan><tspan x="79.478" y="0" style="fill:#1A2A4F; font-family:'FSMatthew-Bold'; font-size:23.7463; letter-spacing:-1;">T</tspan><tspan x="91.042" y="0" style="fill:#1A2A4F; font-family:'FSMatthew-Bold'; font-size:23.7463;">op</tspan></text>
	<text transform="matrix(1 0 0 1 63.835 228.3438)"><tspan x="0" y="0" style="fill:#1A2A4F; font-family:'FSMatthew-Bold'; font-size:23.7463;">150 uni</tspan><tspan x="78.194" y="0" style="fill:#1A2A4F; font-family:'FSMatthew-Bold'; font-size:23.7463;">v</tspan><tspan x="90.638" y="0" style="fill:#1A2A4F; font-family:'FSMatthew-Bold'; font-size:23.7463;">e</tspan><tspan x="103.199" y="0" style="fill:#1A2A4F; font-family:'FSMatthew-Bold'; font-size:23.7463;">r</tspan><tspan x="112.08" y="0" style="fill:#1A2A4F; font-family:'FSMatthew-Bold'; font-size:23.7463;">sities </tspan></text>
	<text transform="matrix(1 0 0 1 50.4893 252.0889)"><tspan x="0" y="0" style="fill:#1A2A4F; font-family:'FSMatthew-Bold'; font-size:23.7463;">under 50 yea</tspan><tspan x="138.058" y="0" style="fill:#1A2A4F; font-family:'FSMatthew-Bold'; font-size:23.7463;">r</tspan><tspan x="146.938" y="0" style="fill:#1A2A4F; font-family:'FSMatthew-Bold'; font-size:23.7463;">s old</tspan></text>
	<text transform="matrix(1 0 0 1 70.4961 276.4502)"><tspan x="0" y="0" style="fill:#C2AD70; font-family:'FSMatthew-Bold'; font-size:10.4625;">(</tspan><tspan x="4.018" y="0" style="fill:#C2AD70; font-family:'FSMatthew-Bold'; font-size:10.4625;">Sou</tspan><tspan x="21.448" y="0" style="fill:#C2AD70; font-family:'FSMatthew-Bold'; font-size:10.4625;">r</tspan><tspan x="25.34" y="0" style="fill:#C2AD70; font-family:'FSMatthew-Bold'; font-size:10.4625;">c</tspan><tspan x="30.111" y="0" style="fill:#C2AD70; font-family:'FSMatthew-Bold'; font-size:10.4625;">e:</tspan><tspan x="38.261" y="0" style="fill:#C2AD70; font-family:'FSMatthew-Bold'; font-size:10.4625;"> </tspan><tspan x="40.102" y="0" style="fill:#C2AD70; font-family:'FSMatthew-Bold'; font-size:10.4625;">Times Higher Edu</tspan><tspan x="122.211" y="0" style="fill:#C2AD70; font-family:'FSMatthew-Bold'; font-size:10.4625;">c</tspan><tspan x="127.075" y="0" style="fill:#C2AD70; font-family:'FSMatthew-Bold'; font-size:10.4625;">a</tspan><tspan x="132.673" y="0" style="fill:#C2AD70; font-family:'FSMatthew-Bold'; font-size:10.4625;">tion)</tspan></text>
</g>
<g id="Text_Flat">
	<g>
		<path style="fill:#1A2A4F;" d="M102.882,57.354h-5.655v17.502c-0.6,0.095-1.453,0.157-2.243,0.157
			c-0.79,0-1.643-0.062-2.274-0.157V57.354h-5.655c-0.126-0.41-0.222-1.39-0.222-1.927c0-0.537,0.128-1.515,0.254-1.927h15.795
			c0.126,0.412,0.221,1.39,0.221,1.927C103.103,55.965,103.008,56.944,102.882,57.354z"/>
		<path style="fill:#1A2A4F;" d="M113.212,75.172c-5.844,0-8.941-4.044-8.941-10.994c0-6.95,3.097-10.994,8.941-10.994
			s8.941,4.044,8.941,10.994C122.153,71.128,119.056,75.172,113.212,75.172z M113.212,57.071c-2.716,0-4.265,2.084-4.265,7.108
			c0,5.023,1.548,7.107,4.265,7.107s4.265-2.084,4.265-7.107C117.477,59.155,115.928,57.071,113.212,57.071z"/>
		<path style="fill:#1A2A4F;" d="M132.354,67.211h-2.211v7.646c-0.6,0.095-1.327,0.157-2.274,0.157
			c-0.853,0-1.643-0.062-2.243-0.157V53.532c1.832-0.095,4.613-0.189,6.413-0.189c4.833,0,8.34,1.674,8.34,6.698
			C140.378,64.937,137.314,67.211,132.354,67.211z M132.228,57.071c-0.632,0-1.454,0.031-2.085,0.062v6.287h1.959
			c2.432,0,3.727-0.631,3.727-3.223C135.829,57.986,134.724,57.071,132.228,57.071z"/>
	</g>
	<g>
		<path style="fill:#1A2A4F;" d="M105.549,124.973c-0.946,0.188-2.648,0.315-4.477,0.315c-1.766,0-3.341-0.127-4.478-0.315V92.375
			l-8.953,5.926c-2.143-1.954-3.657-4.603-4.224-6.872l14.816-9.079c0.882-0.19,2.711-0.316,3.656-0.316
			c1.072,0,3.026,0.19,3.658,0.316V124.973z"/>
		<path style="fill:#1A2A4F;" d="M129.698,125.604c-3.404,0-8.449-0.694-11.917-1.893c-0.126-0.441-0.315-1.576-0.315-2.836
			c0-1.387,0.188-2.838,0.567-4.036c2.9,0.883,7.377,1.45,10.908,1.45c4.477,0,7.377-2.396,7.377-6.684
			c0-1.829-0.504-3.468-1.577-4.54c-1.387-1.387-3.719-1.955-7.125-1.955h-8.259v-22.76h23.833c0.189,1.008,0.315,2.584,0.315,3.719
			c0,1.199-0.188,3.279-0.315,4.035h-15.762v7.819h2.774c4.917,0,8.827,0.882,11.601,3.278c2.459,2.145,3.847,5.422,3.847,9.962
			C145.65,120.812,138.273,125.604,129.698,125.604z"/>
		<path style="fill:#1A2A4F;" d="M165.448,125.604c-10.09,0-15.007-7.441-15.007-21.942c0-14.627,5.107-21.942,15.195-21.942
			c10.024,0,14.942,7.314,14.942,21.942C180.579,118.163,175.473,125.604,165.448,125.604z M165.511,89.097
			c-4.035,0-5.802,3.721-5.802,14.565c0,10.655,1.767,14.565,5.802,14.565c4.034,0,5.8-3.911,5.8-14.565
			C171.311,92.817,169.545,89.097,165.511,89.097z"/>
	</g>
	<g>
		<path style="fill:#1A2A4F;" d="M94.489,175.247c-0.309,0.049-0.925,0.117-1.59,0.117c-0.642,0-1.283-0.068-1.709-0.117
			l-1.947-7.929c-0.214-0.831-0.332-1.732-0.427-2.517h-0.023c-0.071,0.784-0.261,1.71-0.451,2.517l-1.924,7.929
			c-0.428,0.049-1.091,0.117-1.709,0.117c-0.594,0-1.306-0.068-1.639-0.117l-3.584-11.751c-0.38-1.235-0.617-2.707-0.617-4.299
			c0.498-0.094,1.116-0.117,1.637-0.117c0.879,0,1.306,0.048,1.686,0.117c0,1.544,0.214,2.825,0.499,3.919l1.448,5.483
			c0.214,0.854,0.428,1.97,0.546,3.039h0.048c0.118-1.069,0.308-2.186,0.522-3.062l2.232-9.379c0.426-0.069,0.83-0.117,1.258-0.117
			c0.451,0,0.854,0.048,1.306,0.117l2.279,9.402c0.214,0.854,0.451,1.97,0.57,3.039h0.046c0.119-1.069,0.333-2.186,0.57-3.062
			l1.52-5.46c0.309-1.094,0.547-2.375,0.547-3.919c0.379-0.069,1.067-0.117,1.78-0.117c0.475,0,1.115,0.048,1.566,0.117
			c0,1.758-0.261,3.088-0.641,4.299L94.489,175.247z"/>
		<path style="fill:#1A2A4F;" d="M110.756,170.214h-7.503c0.048,1.543,1.117,2.683,3.182,2.683c1.116,0,2.255-0.143,3.229-0.404
			c0.143,0.643,0.237,1.354,0.237,1.996c0,0.093,0,0.214-0.023,0.473c-1.21,0.356-2.469,0.524-3.703,0.524
			c-4.512,0-6.387-2.589-6.387-6.363c0-3.302,1.853-6.481,5.863-6.481c3.799,0,5.176,2.8,5.176,5.887
			C110.827,168.955,110.827,169.598,110.756,170.214z M107.55,167.864c0-1.495-0.403-2.755-1.946-2.755
			c-1.473,0-2.255,1.164-2.352,2.755H107.55z"/>
		<path style="fill:#1A2A4F;" d="M128.257,171.805c0,1.021,0.023,2.184,0.023,3.442c-0.38,0.095-1.021,0.117-1.423,0.117
			c-0.453,0-1.046-0.047-1.426-0.117c-0.047-0.286-0.094-0.783-0.118-1.092h-0.048c-0.807,0.83-2.184,1.33-3.442,1.33
			c-2.373,0-4.082-1.474-4.082-3.918c0-3.799,3.37-4.438,6.195-4.438c0.189,0,0.642,0.021,1.021,0.045
			c0-0.142-0.024-0.448-0.048-0.569c-0.166-0.974-0.808-1.375-2.184-1.375c-1.069,0-2.564,0.211-3.704,0.498
			c-0.119-0.332-0.189-0.902-0.189-1.33c0-0.355,0.048-0.901,0.142-1.14c1.329-0.403,2.968-0.617,4.321-0.617
			c2.967,0,4.962,1.378,4.962,4.464V171.805z M124.979,169.453c-0.285-0.024-0.665-0.046-0.997-0.046
			c-2.137,0-2.967,0.854-2.967,1.922c0,0.928,0.617,1.567,1.685,1.567c0.784,0,1.663-0.381,2.279-0.926V169.453z"/>
		<path style="fill:#1A2A4F;" d="M138.206,165.396c-1.233,0.19-2.562,0.615-3.75,1.233v8.618c-0.332,0.07-1.044,0.117-1.614,0.117
			s-1.4-0.047-1.663-0.117v-12.369c0.357-0.048,0.95-0.118,1.425-0.118c0.403,0,1.044,0.046,1.377,0.118l0.189,1.52
			c0.879-0.783,2.469-1.638,4.013-1.757c0.047,0.189,0.095,0.88,0.095,1.378C138.278,164.492,138.254,165.062,138.206,165.396z"/>
		<path style="fill:#1A2A4F;" d="M150.27,170.214h-7.503c0.048,1.543,1.117,2.683,3.182,2.683c1.115,0,2.255-0.143,3.229-0.404
			c0.143,0.643,0.236,1.354,0.236,1.996c0,0.093,0,0.214-0.022,0.473c-1.21,0.356-2.469,0.524-3.704,0.524
			c-4.51,0-6.386-2.589-6.386-6.363c0-3.302,1.853-6.481,5.864-6.481c3.798,0,5.176,2.8,5.176,5.887
			C150.341,168.955,150.341,169.598,150.27,170.214z M147.063,167.864c0-1.495-0.402-2.755-1.945-2.755
			c-1.473,0-2.256,1.164-2.352,2.755H147.063z"/>
		<path style="fill:#1A2A4F;" d="M159.723,161.524c-0.998,0-1.806-0.808-1.806-1.803c0-0.997,0.808-1.806,1.806-1.806
			c0.996,0,1.803,0.809,1.803,1.806C161.525,160.717,160.719,161.524,159.723,161.524z M161.359,175.247
			c-0.427,0.095-1.306,0.117-1.686,0.117c-0.569,0-1.188-0.047-1.59-0.117v-12.369c0.521-0.072,1.162-0.118,1.59-0.118
			c0.57,0,1.164,0.046,1.686,0.118V175.247z"/>
		<path style="fill:#1A2A4F;" d="M175.344,175.247c-0.379,0.095-1.188,0.117-1.567,0.117c-0.402,0-1.329-0.047-1.709-0.117v-8.118
			c0-1.284-0.663-1.83-1.732-1.83c-0.854,0-1.828,0.311-2.588,0.784v9.164c-0.545,0.095-1.306,0.117-1.733,0.117
			c-0.379,0-1.067-0.022-1.543-0.117v-12.369c0.309-0.072,1.068-0.118,1.425-0.118c0.332,0,1.021,0.046,1.377,0.118l0.165,1.092
			c1.069-0.784,2.613-1.329,3.988-1.329c2.613,0,3.918,1.615,3.918,4.319V175.247z"/>
		<path style="fill:#1A2A4F;" d="M191.421,175.009c-0.712,0.287-1.568,0.477-2.944,0.477c-2.684,0-4.013-1.308-4.013-3.918v-6.244
			h-2.041c-0.095-0.356-0.167-0.95-0.167-1.257c0-0.286,0.072-0.809,0.143-1.047l2.065-0.142v-3.181
			c0.261-0.048,1.093-0.096,1.639-0.096c0.594,0,1.328,0.048,1.638,0.096v3.181h3.419c0.095,0.332,0.142,0.808,0.142,1.067
			c0,0.287-0.022,1.046-0.118,1.378h-3.442v5.77c0,1.186,0.476,1.709,1.639,1.709c0.641,0,1.423-0.095,1.971-0.286
			c0.094,0.311,0.212,0.902,0.212,1.45C191.562,174.25,191.515,174.747,191.421,175.009z"/>
		<path style="fill:#1A2A4F;" d="M204.669,166.96v8.287c-0.38,0.095-1.187,0.117-1.566,0.117c-0.403,0-1.329-0.047-1.709-0.117
			v-8.098c0-1.281-0.665-1.851-1.734-1.851c-0.854,0-1.898,0.311-2.657,0.784v9.164c-0.547,0.095-1.307,0.117-1.734,0.117
			c-0.38,0-1.068-0.022-1.542-0.117V157.94c0.308-0.072,0.997-0.118,1.59-0.118s1.33,0.046,1.687,0.118v5.815
			c1.044-0.663,2.492-1.115,3.751-1.115C203.363,162.641,204.669,164.256,204.669,166.96z"/>
		<path style="fill:#1A2A4F;" d="M217.824,170.214h-7.501c0.047,1.543,1.116,2.683,3.181,2.683c1.115,0,2.255-0.143,3.229-0.404
			c0.142,0.643,0.238,1.354,0.238,1.996c0,0.093,0,0.214-0.024,0.473c-1.212,0.356-2.469,0.524-3.704,0.524
			c-4.511,0-6.386-2.589-6.386-6.363c0-3.302,1.852-6.481,5.864-6.481c3.798,0,5.175,2.8,5.175,5.887
			C217.896,168.955,217.896,169.598,217.824,170.214z M214.619,167.864c0-1.495-0.403-2.755-1.946-2.755
			c-1.472,0-2.256,1.164-2.35,2.755H214.619z"/>
	</g>
	<g>
		<path style="fill:#1A2A4F;" d="M103.631,198.992c-0.285,0.072-1.14,0.12-1.614,0.12c-0.498,0-1.235-0.048-1.496-0.12l-1.899-7.904
			h-0.048l-1.922,7.904c-0.238,0.048-1.14,0.12-1.567,0.12c-0.546,0-1.448-0.072-1.638-0.12l-2.611-8.736
			c-0.332-1.115-0.545-2.493-0.57-3.633c0.38-0.069,0.902-0.117,1.471-0.117c0.523,0,1.236,0.071,1.544,0.117
			c0,0.928,0.166,2.09,0.428,3.184l1.4,5.577h0.047l2.303-8.761c0.262-0.046,0.617-0.093,1.211-0.093
			c0.498,0,0.877,0.047,1.186,0.093l2.161,8.761h0.048l1.661-5.577c0.285-1.069,0.475-2.256,0.475-3.184
			c0.309-0.046,1.021-0.117,1.543-0.117c0.57,0,1.045,0.048,1.424,0.117c-0.024,1.236-0.189,2.161-0.545,3.253L103.631,198.992z"/>
		<path style="fill:#1A2A4F;" d="M114.2,199.23c-3.584,0-5.863-2.303-5.863-6.386c0-4.061,2.255-6.457,5.863-6.457
			c3.609,0,5.865,2.372,5.865,6.433C120.065,196.879,117.809,199.23,114.2,199.23z M114.2,188.951c-1.542,0-2.492,1.045-2.492,3.869
			c0,2.826,0.95,3.848,2.492,3.848c1.543,0,2.493-1.021,2.493-3.848C116.693,189.972,115.743,188.951,114.2,188.951z"/>
		<path style="fill:#1A2A4F;" d="M129.328,189.141c-1.235,0.189-2.565,0.617-3.752,1.235v8.616c-0.333,0.072-1.044,0.12-1.614,0.12
			s-1.4-0.048-1.662-0.12v-12.369c0.356-0.046,0.95-0.117,1.423-0.117c0.404,0,1.046,0.048,1.378,0.117l0.189,1.52
			c0.879-0.781,2.469-1.637,4.013-1.755c0.046,0.189,0.095,0.877,0.095,1.375C129.398,188.239,129.375,188.809,129.328,189.141z"/>
		<path style="fill:#1A2A4F;" d="M134.956,198.992c-0.428,0.097-1.307,0.12-1.687,0.12c-0.57,0-1.187-0.048-1.59-0.12v-17.308
			c0.521-0.068,1.163-0.117,1.59-0.117c0.57,0,1.234,0.049,1.687,0.117V198.992z"/>
		<path style="fill:#1A2A4F;" d="M148.441,198.992c-0.38,0.072-1.021,0.12-1.52,0.12c-0.451,0-0.974-0.048-1.306-0.12l-0.095-1.092
			c-0.854,0.833-1.948,1.33-3.229,1.33c-3.537,0-5.056-2.825-5.056-6.22c0-3.656,1.638-6.623,5.413-6.623
			c0.925,0,1.994,0.284,2.517,0.615v-5.318c0.428-0.068,1.141-0.117,1.662-0.117c0.641,0,1.139,0.072,1.614,0.117V198.992z
			 M145.165,189.451c-0.569-0.263-1.307-0.405-1.922-0.405c-1.924,0-2.636,1.71-2.636,3.774c0,1.733,0.427,3.702,2.351,3.702
			c0.926,0,1.638-0.379,2.207-0.853V189.451z"/>
		<path style="fill:#1A2A4F;" d="M152.054,184.986c-0.736-0.262-1.307-0.926-1.307-1.781c0-0.996,0.617-1.71,1.638-1.71
			c1.236,0,1.972,0.998,1.972,2.352c0,1.758-1.021,3.823-2.493,5.128c-0.521-0.215-0.949-0.57-1.234-1.044
			C151.342,187.123,151.935,185.936,152.054,184.986z"/>
		<path style="fill:#1A2A4F;" d="M159.318,199.23c-1.4,0-2.873-0.214-4.013-0.594c-0.07-0.355-0.095-0.808-0.095-1.281
			c0-0.381,0.095-0.926,0.19-1.257c1.092,0.379,2.658,0.638,3.585,0.638c1.281,0,2.018-0.428,2.018-1.305
			c0-0.76-0.594-1.116-2.16-1.612c-2.493-0.784-3.655-1.947-3.655-3.753c0-2.683,2.469-3.679,4.818-3.679
			c1.092,0,2.302,0.189,3.134,0.449c0.095,0.356,0.143,0.855,0.143,1.14c0,0.311-0.096,0.95-0.214,1.354
			c-0.808-0.237-1.923-0.428-2.85-0.428c-1.139,0-1.922,0.286-1.922,0.997c0,0.761,0.879,1.071,2.255,1.521
			c2.398,0.783,3.538,1.781,3.538,3.656C164.091,197.973,161.763,199.23,159.318,199.23z"/>
		<path style="fill:#1A2A4F;" d="M181.519,185.842h-4.249v13.15c-0.452,0.072-1.093,0.12-1.686,0.12s-1.235-0.048-1.709-0.12v-13.15
			h-4.25c-0.096-0.31-0.166-1.046-0.166-1.449c0-0.404,0.095-1.14,0.19-1.447h11.869c0.096,0.308,0.166,1.043,0.166,1.447
			C181.685,184.796,181.614,185.532,181.519,185.842z"/>
		<path style="fill:#1A2A4F;" d="M187.266,199.23c-3.584,0-5.863-2.303-5.863-6.386c0-4.061,2.255-6.457,5.863-6.457
			s5.864,2.372,5.864,6.433C193.13,196.879,190.874,199.23,187.266,199.23z M187.266,188.951c-1.544,0-2.492,1.045-2.492,3.869
			c0,2.826,0.948,3.848,2.492,3.848c1.543,0,2.493-1.021,2.493-3.848C189.759,189.972,188.809,188.951,187.266,188.951z"/>
		<path style="fill:#1A2A4F;" d="M200.969,198.992c-0.736,0-1.732-0.117-2.327-0.283v5.863c-0.428,0.072-1.139,0.118-1.661,0.118
			c-0.642,0-1.14-0.07-1.615-0.118v-17.925c0.379-0.07,1.022-0.117,1.519-0.117c0.452,0,0.95,0.047,1.284,0.117l0.118,1.022
			c0.76-0.712,2.136-1.282,3.419-1.282c3.394,0,4.913,2.777,4.913,5.957C206.618,196.026,204.72,198.992,200.969,198.992z
			 M201.017,189.046c-0.879,0-1.805,0.356-2.375,0.878v6.292c0.451,0.142,1.329,0.238,1.948,0.238c1.756,0,2.658-1.45,2.658-3.848
			C203.248,190.256,202.392,189.046,201.017,189.046z"/>
	</g>
	<g>
		<path style="fill:#1A2A4F;" d="M73.356,228.343c-0.355,0.07-0.998,0.119-1.685,0.119c-0.667,0-1.259-0.049-1.687-0.119v-12.274
			l-3.371,2.233c-0.808-0.735-1.378-1.733-1.59-2.59l5.579-3.418c0.332-0.07,1.021-0.118,1.376-0.118
			c0.404,0,1.139,0.072,1.377,0.118V228.343z"/>
		<path style="fill:#1A2A4F;" d="M82.666,228.581c-1.283,0-3.181-0.261-4.487-0.713c-0.048-0.167-0.119-0.595-0.119-1.068
			c0-0.521,0.071-1.067,0.214-1.52c1.093,0.333,2.778,0.547,4.107,0.547c1.686,0,2.777-0.902,2.777-2.518
			c0-0.688-0.189-1.306-0.592-1.709c-0.523-0.522-1.4-0.736-2.683-0.736h-3.109v-8.57h8.973c0.071,0.38,0.119,0.975,0.119,1.402
			c0,0.451-0.071,1.232-0.119,1.519h-5.935v2.942h1.044c1.851,0,3.324,0.335,4.369,1.236c0.925,0.808,1.448,2.041,1.448,3.75
			C88.672,226.776,85.895,228.581,82.666,228.581z"/>
		<path style="fill:#1A2A4F;" d="M96.343,228.581c-3.799,0-5.651-2.803-5.651-8.262c0-5.508,1.923-8.261,5.722-8.261
			c3.774,0,5.626,2.753,5.626,8.261C102.04,225.778,100.117,228.581,96.343,228.581z M96.365,214.836c-1.52,0-2.183,1.4-2.183,5.483
			c0,4.013,0.664,5.483,2.183,5.483s2.186-1.471,2.186-5.483C98.551,216.236,97.885,214.836,96.365,214.836z"/>
		<path style="fill:#1A2A4F;" d="M120.276,223.571c0,3.537-1.661,5.01-5.365,5.01c-3.609,0-5.27-1.473-5.27-5.01v-7.597
			c0.332-0.049,0.974-0.117,1.614-0.117c0.57,0,1.283,0.046,1.663,0.117v7.573c0,1.852,0.546,2.517,2.041,2.517
			c1.52,0,2.041-0.665,2.041-2.517v-7.573c0.333-0.071,1.068-0.117,1.663-0.117c0.594,0,1.376,0.068,1.614,0.117V223.571z"/>
		<path style="fill:#1A2A4F;" d="M134.049,228.343c-0.38,0.095-1.188,0.119-1.567,0.119c-0.403,0-1.33-0.049-1.709-0.119v-8.118
			c0-1.283-0.664-1.829-1.732-1.829c-0.854,0-1.829,0.311-2.588,0.784v9.163c-0.545,0.095-1.305,0.119-1.733,0.119
			c-0.38,0-1.067-0.024-1.543-0.119v-12.368c0.309-0.071,1.068-0.117,1.425-0.117c0.332,0,1.021,0.046,1.376,0.117l0.167,1.091
			c1.068-0.783,2.612-1.329,3.988-1.329c2.612,0,3.917,1.616,3.917,4.32V228.343z"/>
		<path style="fill:#1A2A4F;" d="M138.754,214.621c-0.998,0-1.805-0.808-1.805-1.803c0-0.998,0.808-1.806,1.805-1.806
			c0.997,0,1.803,0.808,1.803,1.806C140.557,213.813,139.751,214.621,138.754,214.621z M140.392,228.343
			c-0.428,0.095-1.306,0.119-1.686,0.119c-0.57,0-1.187-0.049-1.59-0.119v-12.368c0.521-0.071,1.162-0.117,1.59-0.117
			c0.57,0,1.165,0.046,1.686,0.117V228.343z"/>
		<path style="fill:#1A2A4F;" d="M153.331,219.607l-3.562,8.735c-0.236,0.049-0.853,0.119-1.471,0.119
			c-0.641,0-1.329-0.07-1.614-0.119l-3.419-8.784c-0.45-1.188-0.664-2.351-0.664-3.584c0.428-0.071,1.021-0.117,1.52-0.117
			c0.688,0,1.163,0.046,1.543,0.117c0,0.877,0.117,1.852,0.428,2.777l2.184,6.267h0.048l2.255-6.267
			c0.309-0.926,0.428-1.733,0.428-2.777c0.332-0.049,1.043-0.117,1.566-0.117s1.068,0.046,1.448,0.117
			C154.02,217.304,153.782,218.516,153.331,219.607z"/>
		<path style="fill:#1A2A4F;" d="M166.201,223.31h-7.503c0.048,1.543,1.117,2.683,3.182,2.683c1.115,0,2.255-0.142,3.229-0.403
			c0.144,0.642,0.237,1.354,0.237,1.995c0,0.094,0,0.214-0.022,0.474c-1.211,0.355-2.47,0.523-3.704,0.523
			c-4.512,0-6.386-2.589-6.386-6.363c0-3.301,1.852-6.481,5.862-6.481c3.799,0,5.176,2.802,5.176,5.888
			C166.271,222.053,166.271,222.694,166.201,223.31z M162.995,220.961c0-1.495-0.402-2.756-1.945-2.756
			c-1.473,0-2.256,1.164-2.352,2.756H162.995z"/>
		<path style="fill:#1A2A4F;" d="M175.534,218.492c-1.236,0.189-2.565,0.615-3.752,1.232v8.618c-0.333,0.07-1.044,0.119-1.614,0.119
			c-0.569,0-1.4-0.049-1.661-0.119v-12.368c0.355-0.049,0.949-0.117,1.423-0.117c0.404,0,1.047,0.046,1.378,0.117l0.189,1.519
			c0.879-0.783,2.47-1.636,4.013-1.757c0.047,0.189,0.096,0.881,0.096,1.378C175.605,217.588,175.581,218.157,175.534,218.492z"/>
		<path style="fill:#1A2A4F;" d="M181.044,228.581c-1.4,0-2.873-0.214-4.013-0.594c-0.07-0.355-0.095-0.807-0.095-1.283
			c0-0.381,0.095-0.926,0.19-1.257c1.092,0.38,2.658,0.642,3.586,0.642c1.281,0,2.017-0.428,2.017-1.306
			c0-0.76-0.595-1.117-2.161-1.615c-2.492-0.784-3.654-1.947-3.654-3.75c0-2.684,2.469-3.682,4.818-3.682
			c1.092,0,2.303,0.189,3.134,0.452c0.096,0.356,0.142,0.854,0.142,1.14c0,0.308-0.094,0.949-0.214,1.354
			c-0.806-0.238-1.922-0.428-2.849-0.428c-1.14,0-1.922,0.284-1.922,0.998c0,0.759,0.879,1.067,2.256,1.52
			c2.397,0.783,3.537,1.778,3.537,3.653C185.816,227.322,183.489,228.581,181.044,228.581z"/>
		<path style="fill:#1A2A4F;" d="M189.9,214.621c-0.996,0-1.803-0.808-1.803-1.803c0-0.998,0.807-1.806,1.803-1.806
			c0.998,0,1.806,0.808,1.806,1.806C191.706,213.813,190.898,214.621,189.9,214.621z M191.539,228.343
			c-0.427,0.095-1.306,0.119-1.685,0.119c-0.57,0-1.188-0.049-1.591-0.119v-12.368c0.522-0.071,1.164-0.117,1.591-0.117
			c0.569,0,1.162,0.046,1.685,0.117V228.343z"/>
		<path style="fill:#1A2A4F;" d="M202.485,228.106c-0.713,0.285-1.566,0.475-2.944,0.475c-2.683,0-4.013-1.308-4.013-3.918v-6.244
			h-2.041c-0.095-0.355-0.166-0.948-0.166-1.257c0-0.286,0.071-0.808,0.142-1.045l2.065-0.143v-3.181
			c0.263-0.048,1.093-0.096,1.639-0.096c0.594,0,1.33,0.048,1.638,0.096v3.181h3.419c0.096,0.332,0.142,0.809,0.142,1.067
			c0,0.286-0.023,1.046-0.117,1.377h-3.443v5.771c0,1.186,0.476,1.71,1.638,1.71c0.642,0,1.426-0.097,1.972-0.286
			c0.095,0.309,0.214,0.901,0.214,1.448C202.628,227.346,202.579,227.844,202.485,228.106z"/>
		<path style="fill:#1A2A4F;" d="M206.594,214.621c-0.997,0-1.804-0.808-1.804-1.803c0-0.998,0.807-1.806,1.804-1.806
			s1.804,0.808,1.804,1.806C208.397,213.813,207.591,214.621,206.594,214.621z M208.231,228.343
			c-0.427,0.095-1.305,0.119-1.685,0.119c-0.57,0-1.188-0.049-1.591-0.119v-12.368c0.521-0.071,1.162-0.117,1.591-0.117
			c0.569,0,1.163,0.046,1.685,0.117V228.343z"/>
		<path style="fill:#1A2A4F;" d="M221.599,223.31h-7.501c0.047,1.543,1.116,2.683,3.181,2.683c1.115,0,2.255-0.142,3.229-0.403
			c0.142,0.642,0.238,1.354,0.238,1.995c0,0.094,0,0.214-0.024,0.474c-1.212,0.355-2.469,0.523-3.704,0.523
			c-4.51,0-6.386-2.589-6.386-6.363c0-3.301,1.852-6.481,5.864-6.481c3.798,0,5.175,2.802,5.175,5.888
			C221.67,222.053,221.67,222.694,221.599,223.31z M218.394,220.961c0-1.495-0.403-2.756-1.946-2.756
			c-1.472,0-2.256,1.164-2.35,2.756H218.394z"/>
		<path style="fill:#1A2A4F;" d="M227.561,228.581c-1.4,0-2.873-0.214-4.013-0.594c-0.071-0.355-0.095-0.807-0.095-1.283
			c0-0.381,0.095-0.926,0.19-1.257c1.092,0.38,2.658,0.642,3.586,0.642c1.281,0,2.016-0.428,2.016-1.306
			c0-0.76-0.594-1.117-2.16-1.615c-2.493-0.784-3.654-1.947-3.654-3.75c0-2.684,2.469-3.682,4.818-3.682
			c1.092,0,2.303,0.189,3.134,0.452c0.095,0.356,0.142,0.854,0.142,1.14c0,0.308-0.094,0.949-0.214,1.354
			c-0.806-0.238-1.922-0.428-2.849-0.428c-1.14,0-1.922,0.284-1.922,0.998c0,0.759,0.879,1.067,2.256,1.52
			c2.397,0.783,3.537,1.778,3.537,3.653C232.333,227.322,230.006,228.581,227.561,228.581z"/>
	</g>
	<g>
		<path style="fill:#1A2A4F;" d="M62.551,247.316c0,3.539-1.663,5.011-5.365,5.011c-3.608,0-5.271-1.472-5.271-5.011v-7.597
			c0.333-0.046,0.974-0.118,1.615-0.118c0.57,0,1.281,0.049,1.661,0.118v7.576c0,1.85,0.547,2.514,2.042,2.514
			c1.52,0,2.042-0.664,2.042-2.514v-7.576c0.332-0.069,1.067-0.118,1.661-0.118s1.378,0.072,1.614,0.118V247.316z"/>
		<path style="fill:#1A2A4F;" d="M76.324,252.089c-0.38,0.096-1.187,0.12-1.566,0.12c-0.404,0-1.33-0.049-1.71-0.12v-8.119
			c0-1.281-0.666-1.826-1.733-1.826c-0.854,0-1.829,0.307-2.588,0.783v9.162c-0.545,0.096-1.305,0.12-1.733,0.12
			c-0.38,0-1.069-0.024-1.542-0.12V239.72c0.308-0.069,1.067-0.118,1.423-0.118c0.333,0,1.022,0.049,1.377,0.118l0.166,1.094
			c1.068-0.784,2.612-1.329,3.988-1.329c2.612,0,3.917,1.612,3.917,4.319V252.089z"/>
		<path style="fill:#1A2A4F;" d="M89.716,252.089c-0.38,0.071-1.021,0.12-1.52,0.12c-0.451,0-0.974-0.049-1.305-0.12l-0.095-1.092
			c-0.855,0.832-1.947,1.33-3.229,1.33c-3.538,0-5.057-2.826-5.057-6.22c0-3.657,1.638-6.623,5.413-6.623
			c0.926,0,1.994,0.283,2.516,0.615v-5.317c0.428-0.07,1.139-0.119,1.663-0.119c0.641,0,1.139,0.073,1.614,0.119V252.089z
			 M86.439,242.547c-0.57-0.262-1.306-0.403-1.922-0.403c-1.923,0-2.636,1.709-2.636,3.774c0,1.732,0.428,3.702,2.351,3.702
			c0.925,0,1.637-0.38,2.207-0.854V242.547z"/>
		<path style="fill:#1A2A4F;" d="M102.871,247.058h-7.5c0.047,1.543,1.116,2.682,3.181,2.682c1.115,0,2.254-0.144,3.229-0.403
			c0.142,0.64,0.238,1.354,0.238,1.993c0,0.097,0,0.214-0.024,0.476c-1.211,0.355-2.469,0.522-3.704,0.522
			c-4.511,0-6.386-2.588-6.386-6.361c0-3.302,1.851-6.481,5.864-6.481c3.798,0,5.176,2.801,5.176,5.887
			C102.943,245.797,102.943,246.438,102.871,247.058z M99.666,244.706c0-1.495-0.404-2.753-1.946-2.753
			c-1.472,0-2.256,1.163-2.35,2.753H99.666z"/>
		<path style="fill:#1A2A4F;" d="M112.203,242.236c-1.233,0.19-2.562,0.619-3.75,1.236v8.616c-0.332,0.071-1.045,0.12-1.614,0.12
			c-0.57,0-1.401-0.049-1.662-0.12V239.72c0.356-0.046,0.949-0.118,1.425-0.118c0.402,0,1.043,0.049,1.376,0.118l0.19,1.52
			c0.878-0.782,2.469-1.638,4.012-1.755c0.047,0.189,0.096,0.878,0.096,1.374C112.276,241.335,112.251,241.905,112.203,242.236z"/>
		<path style="fill:#1A2A4F;" d="M124.197,252.327c-1.283,0-3.182-0.263-4.487-0.712c-0.046-0.166-0.119-0.594-0.119-1.069
			c0-0.522,0.073-1.067,0.214-1.52c1.091,0.334,2.778,0.548,4.107,0.548c1.686,0,2.778-0.904,2.778-2.517
			c0-0.69-0.19-1.307-0.594-1.71c-0.522-0.521-1.401-0.735-2.683-0.735h-3.109v-8.571h8.973c0.072,0.381,0.119,0.975,0.119,1.399
			c0,0.452-0.071,1.235-0.119,1.52h-5.935v2.945h1.045c1.851,0,3.324,0.331,4.368,1.232c0.926,0.808,1.447,2.044,1.447,3.753
			C130.203,250.523,127.426,252.327,124.197,252.327z"/>
		<path style="fill:#1A2A4F;" d="M137.875,252.327c-3.799,0-5.651-2.802-5.651-8.261c0-5.508,1.923-8.264,5.722-8.264
			c3.774,0,5.626,2.756,5.626,8.264C143.571,249.525,141.648,252.327,137.875,252.327z M137.898,238.58
			c-1.519,0-2.185,1.401-2.185,5.486c0,4.01,0.666,5.483,2.185,5.483s2.183-1.474,2.183-5.483
			C140.081,239.981,139.417,238.58,137.898,238.58z"/>
		<path style="fill:#1A2A4F;" d="M161.736,249.906c0,1.802-0.095,3.799-1.021,5.366c-1.115,1.874-2.99,2.657-5.104,2.657
			c-1.187,0-2.54-0.167-3.632-0.499c-0.072-0.214-0.119-0.784-0.119-1.14c0-0.284,0.096-0.974,0.166-1.257
			c0.95,0.259,2.231,0.428,3.109,0.428c1.425,0,2.279-0.5,2.803-1.45c0.475-0.854,0.546-1.803,0.546-2.728
			c-0.831,0.638-1.924,1.043-2.944,1.043c-3.109,0-4.367-1.613-4.367-4.677v-7.931c0.379-0.094,1.186-0.118,1.566-0.118
			c0.402,0,1.328,0.049,1.709,0.118v7.741c0,1.52,0.547,2.183,1.898,2.183c0.856,0,1.615-0.356,2.113-0.829v-9.095
			c0.546-0.094,1.306-0.118,1.733-0.118c0.38,0,1.069,0.024,1.543,0.118V249.906z"/>
		<path style="fill:#1A2A4F;" d="M174.94,247.058h-7.504c0.049,1.543,1.117,2.682,3.183,2.682c1.115,0,2.255-0.144,3.228-0.403
			c0.144,0.64,0.237,1.354,0.237,1.993c0,0.097,0,0.214-0.023,0.476c-1.21,0.355-2.468,0.522-3.703,0.522
			c-4.511,0-6.386-2.588-6.386-6.361c0-3.302,1.853-6.481,5.864-6.481c3.797,0,5.175,2.801,5.175,5.887
			C175.011,245.797,175.011,246.438,174.94,247.058z M171.734,244.706c0-1.495-0.402-2.753-1.946-2.753
			c-1.473,0-2.255,1.163-2.352,2.753H171.734z"/>
		<path style="fill:#1A2A4F;" d="M187.098,248.646c0,1.022,0.024,2.187,0.024,3.443c-0.38,0.096-1.022,0.12-1.427,0.12
			c-0.45,0-1.043-0.049-1.422-0.12c-0.049-0.284-0.097-0.784-0.12-1.092h-0.048c-0.807,0.832-2.185,1.33-3.441,1.33
			c-2.375,0-4.085-1.472-4.085-3.917c0-3.798,3.372-4.44,6.196-4.44c0.191,0,0.641,0.024,1.021,0.048
			c0-0.142-0.022-0.451-0.047-0.569c-0.166-0.974-0.807-1.377-2.185-1.377c-1.068,0-2.564,0.214-3.703,0.497
			c-0.119-0.332-0.19-0.901-0.19-1.329c0-0.356,0.047-0.901,0.144-1.14c1.329-0.401,2.966-0.615,4.319-0.615
			c2.969,0,4.963,1.374,4.963,4.461V248.646z M183.821,246.297c-0.285-0.023-0.665-0.048-0.997-0.048
			c-2.137,0-2.968,0.855-2.968,1.923c0,0.926,0.618,1.567,1.686,1.567c0.783,0,1.661-0.379,2.279-0.925V246.297z"/>
		<path style="fill:#1A2A4F;" d="M197.048,242.236c-1.235,0.19-2.564,0.619-3.752,1.236v8.616c-0.332,0.071-1.044,0.12-1.614,0.12
			c-0.569,0-1.399-0.049-1.661-0.12V239.72c0.355-0.046,0.95-0.118,1.423-0.118c0.405,0,1.047,0.049,1.378,0.118l0.189,1.52
			c0.879-0.782,2.47-1.638,4.013-1.755c0.047,0.189,0.096,0.878,0.096,1.374C197.119,241.335,197.095,241.905,197.048,242.236z"/>
		<path style="fill:#1A2A4F;" d="M202.559,252.327c-1.4,0-2.873-0.214-4.013-0.595c-0.071-0.355-0.096-0.808-0.096-1.281
			c0-0.38,0.096-0.926,0.19-1.257c1.093,0.38,2.658,0.64,3.586,0.64c1.281,0,2.017-0.428,2.017-1.306
			c0-0.76-0.594-1.115-2.159-1.613c-2.494-0.783-3.656-1.947-3.656-3.753c0-2.683,2.469-3.678,4.818-3.678
			c1.093,0,2.303,0.189,3.134,0.449c0.096,0.355,0.143,0.856,0.143,1.139c0,0.311-0.095,0.95-0.214,1.354
			c-0.807-0.238-1.923-0.429-2.85-0.429c-1.139,0-1.922,0.287-1.922,0.999c0,0.759,0.879,1.069,2.256,1.519
			c2.397,0.783,3.537,1.781,3.537,3.656C207.33,251.07,205.004,252.327,202.559,252.327z"/>
		<path style="fill:#1A2A4F;" d="M220.105,252.327c-3.584,0-5.863-2.304-5.863-6.386c0-4.061,2.255-6.457,5.863-6.457
			s5.863,2.373,5.863,6.434C225.969,249.976,223.714,252.327,220.105,252.327z M220.105,242.047c-1.543,0-2.493,1.045-2.493,3.871
			c0,2.824,0.95,3.846,2.493,3.846c1.544,0,2.492-1.021,2.492-3.846C222.598,243.069,221.649,242.047,220.105,242.047z"/>
		<path style="fill:#1A2A4F;" d="M231.526,252.089c-0.426,0.096-1.305,0.12-1.685,0.12c-0.569,0-1.187-0.049-1.59-0.12v-17.307
			c0.522-0.07,1.163-0.119,1.59-0.119c0.569,0,1.234,0.049,1.685,0.119V252.089z"/>
		<path style="fill:#1A2A4F;" d="M245.014,252.089c-0.381,0.071-1.021,0.12-1.521,0.12c-0.451,0-0.974-0.049-1.306-0.12
			l-0.094-1.092c-0.854,0.832-1.947,1.33-3.229,1.33c-3.538,0-5.057-2.826-5.057-6.22c0-3.657,1.639-6.623,5.413-6.623
			c0.926,0,1.994,0.283,2.517,0.615v-5.317c0.427-0.07,1.14-0.119,1.661-0.119c0.641,0,1.14,0.073,1.615,0.119V252.089z
			 M241.737,242.547c-0.569-0.262-1.307-0.403-1.923-0.403c-1.924,0-2.636,1.709-2.636,3.774c0,1.732,0.427,3.702,2.35,3.702
			c0.926,0,1.64-0.38,2.209-0.854V242.547z"/>
	</g>
	<g>
		<path style="fill:#C2AD70;" d="M73.218,277.894c-1.339-1.232-2.155-2.74-2.155-4.539c0-1.831,0.848-3.379,2.155-4.541
			c0.313,0.062,0.68,0.356,0.826,0.565c-1.025,1.089-1.568,2.51-1.568,3.976c0,1.465,0.585,2.845,1.568,3.975
			C73.898,277.538,73.531,277.831,73.218,277.894z"/>
		<path style="fill:#C2AD70;" d="M77.224,276.555c-0.764,0-1.6-0.146-2.197-0.418c-0.031-0.147-0.052-0.335-0.052-0.503
			c0-0.25,0.031-0.49,0.105-0.774c0.616,0.253,1.433,0.409,2.071,0.409c0.743,0,1.141-0.347,1.141-0.814
			c0-0.524-0.335-0.743-1.35-1.058c-1.13-0.347-1.956-0.89-1.956-2.104c0-1.296,1.119-2.018,2.594-2.018
			c0.68,0,1.286,0.104,1.695,0.24c0.031,0.115,0.051,0.303,0.051,0.575c0,0.199-0.02,0.502-0.062,0.671
			c-0.522-0.138-1.119-0.212-1.6-0.212c-0.785,0-1.214,0.263-1.214,0.681c0,0.492,0.387,0.691,1.328,0.982
			c1.13,0.356,1.968,0.89,1.968,2.145C79.746,275.729,78.667,276.555,77.224,276.555z"/>
		<path style="fill:#C2AD70;" d="M83.083,276.555c-1.58,0-2.584-1.014-2.584-2.812c0-1.788,0.994-2.847,2.584-2.847
			c1.591,0,2.584,1.046,2.584,2.834C85.667,275.519,84.673,276.555,83.083,276.555z M83.083,272.025
			c-0.68,0-1.099,0.462-1.099,1.704c0,1.245,0.418,1.695,1.099,1.695c0.681,0,1.099-0.45,1.099-1.695
			C84.182,272.475,83.763,272.025,83.083,272.025z"/>
		<path style="fill:#C2AD70;" d="M91.316,274.349c0,1.558-0.731,2.206-2.364,2.206c-1.59,0-2.322-0.648-2.322-2.206v-3.347
			c0.146-0.022,0.429-0.054,0.711-0.054c0.252,0,0.565,0.021,0.732,0.054v3.337c0,0.814,0.241,1.107,0.9,1.107
			c0.669,0,0.899-0.293,0.899-1.107v-3.337c0.147-0.032,0.471-0.054,0.732-0.054c0.262,0,0.607,0.031,0.711,0.054V274.349z"/>
		<path style="fill:#C2AD70;" d="M95.691,272.109c-0.544,0.085-1.13,0.272-1.653,0.543v3.799c-0.146,0.032-0.46,0.053-0.711,0.053
			s-0.618-0.021-0.732-0.053v-5.449c0.157-0.022,0.418-0.054,0.627-0.054c0.178,0,0.461,0.021,0.607,0.054l0.083,0.668
			c0.387-0.347,1.088-0.722,1.769-0.774c0.02,0.084,0.042,0.387,0.042,0.606C95.722,271.711,95.711,271.963,95.691,272.109z"/>
		<path style="fill:#C2AD70;" d="M100.357,271.586c0,0.23-0.031,0.481-0.105,0.701c-0.345-0.137-0.796-0.22-1.225-0.22
			c-0.815,0-1.371,0.522-1.371,1.694c0,1.026,0.472,1.622,1.381,1.622c0.471,0,0.921-0.084,1.256-0.199
			c0.062,0.231,0.094,0.512,0.094,0.733c0,0.146,0,0.25-0.011,0.344c-0.418,0.189-0.972,0.293-1.495,0.293
			c-1.81,0-2.709-1.056-2.709-2.772c0-1.777,0.941-2.887,2.771-2.887c0.512,0,1.015,0.106,1.37,0.272
			C100.346,271.282,100.357,271.43,100.357,271.586z"/>
		<path style="fill:#C2AD70;" d="M105.776,274.232h-3.305c0.021,0.681,0.491,1.184,1.401,1.184c0.492,0,0.995-0.062,1.423-0.179
			c0.062,0.281,0.105,0.597,0.105,0.881c0,0.04,0,0.093-0.011,0.208c-0.534,0.157-1.087,0.229-1.631,0.229
			c-1.988,0-2.815-1.139-2.815-2.803c0-1.455,0.817-2.856,2.584-2.856c1.674,0,2.28,1.236,2.28,2.594
			C105.807,273.68,105.807,273.961,105.776,274.232z M104.364,273.196c0-0.659-0.178-1.212-0.857-1.212
			c-0.648,0-0.994,0.513-1.036,1.212H104.364z"/>
		<path style="fill:#C2AD70;" d="M107.451,272.444c-0.418,0-0.764-0.345-0.764-0.765c0-0.419,0.345-0.763,0.764-0.763
			s0.763,0.344,0.763,0.763C108.214,272.1,107.869,272.444,107.451,272.444z M107.451,276.617c-0.418,0-0.764-0.344-0.764-0.762
			c0-0.419,0.345-0.765,0.764-0.765s0.763,0.346,0.763,0.765C108.214,276.273,107.869,276.617,107.451,276.617z"/>
		<path style="fill:#C2AD70;" d="M116.081,270.655h-1.872v5.796c-0.2,0.032-0.482,0.053-0.743,0.053
			c-0.262,0-0.544-0.021-0.753-0.053v-5.796h-1.873c-0.042-0.137-0.073-0.46-0.073-0.638s0.042-0.502,0.084-0.639h5.23
			c0.042,0.137,0.073,0.461,0.073,0.639S116.123,270.519,116.081,270.655z"/>
		<path style="fill:#C2AD70;" d="M117.766,270.405c-0.439,0-0.794-0.355-0.794-0.796c0-0.439,0.355-0.796,0.794-0.796
			c0.44,0,0.795,0.356,0.795,0.796C118.561,270.05,118.206,270.405,117.766,270.405z M118.489,276.451
			c-0.189,0.041-0.576,0.053-0.743,0.053c-0.251,0-0.524-0.021-0.701-0.053v-5.449c0.23-0.032,0.512-0.054,0.701-0.054
			c0.251,0,0.512,0.021,0.743,0.054V276.451z"/>
		<path style="fill:#C2AD70;" d="M128.039,276.451c-0.167,0.041-0.523,0.053-0.69,0.053c-0.178,0-0.585-0.021-0.754-0.053v-3.286
			c0-0.396-0.01-0.69-0.156-0.868c-0.136-0.165-0.345-0.229-0.607-0.229c-0.355,0-0.858,0.157-1.182,0.354
			c0.009,0.178,0.021,0.355,0.021,0.565v3.464c-0.167,0.041-0.523,0.053-0.69,0.053c-0.178,0-0.586-0.021-0.754-0.053v-3.286
			c0-0.396-0.011-0.69-0.157-0.868c-0.136-0.165-0.345-0.229-0.606-0.229c-0.366,0-0.837,0.146-1.161,0.345v4.039
			c-0.241,0.041-0.576,0.053-0.765,0.053c-0.167,0-0.47-0.012-0.679-0.053v-5.449c0.135-0.032,0.47-0.054,0.627-0.054
			c0.146,0,0.45,0.021,0.607,0.054l0.062,0.49c0.46-0.345,1.119-0.597,1.704-0.597c0.607,0,1.141,0.209,1.548,0.659
			c0.565-0.387,1.246-0.659,1.937-0.659c0.512,0,1.035,0.209,1.297,0.524c0.324,0.387,0.396,0.89,0.396,1.651V276.451z"/>
		<path style="fill:#C2AD70;" d="M133.835,274.232h-3.306c0.022,0.681,0.492,1.184,1.402,1.184c0.492,0,0.994-0.062,1.423-0.179
			c0.062,0.281,0.104,0.597,0.104,0.881c0,0.04,0,0.093-0.011,0.208c-0.534,0.157-1.088,0.229-1.631,0.229
			c-1.988,0-2.814-1.139-2.814-2.803c0-1.455,0.815-2.856,2.583-2.856c1.674,0,2.28,1.236,2.28,2.594
			C133.866,273.68,133.866,273.961,133.835,274.232z M132.423,273.196c0-0.659-0.178-1.212-0.857-1.212
			c-0.649,0-0.994,0.513-1.037,1.212H132.423z"/>
		<path style="fill:#C2AD70;" d="M136.462,276.555c-0.617,0-1.265-0.094-1.768-0.262c-0.031-0.156-0.042-0.354-0.042-0.564
			c0-0.167,0.042-0.407,0.084-0.554c0.481,0.166,1.172,0.281,1.58,0.281c0.564,0,0.889-0.188,0.889-0.574
			c0-0.335-0.262-0.493-0.952-0.712c-1.098-0.344-1.61-0.858-1.61-1.651c0-1.184,1.088-1.623,2.123-1.623
			c0.482,0,1.014,0.084,1.381,0.199c0.042,0.157,0.062,0.376,0.062,0.503c0,0.135-0.042,0.419-0.094,0.597
			c-0.356-0.106-0.848-0.189-1.255-0.189c-0.502,0-0.848,0.127-0.848,0.439c0,0.333,0.387,0.471,0.993,0.67
			c1.057,0.345,1.559,0.784,1.559,1.611C138.565,276.002,137.54,276.555,136.462,276.555z"/>
		<path style="fill:#C2AD70;" d="M147.511,276.451c-0.189,0.032-0.449,0.053-0.742,0.053c-0.294,0-0.555-0.021-0.753-0.053v-2.93
			h-2.46v2.93c-0.197,0.032-0.429,0.053-0.742,0.053c-0.283,0-0.555-0.021-0.753-0.053v-7.072c0.198-0.031,0.492-0.053,0.753-0.053
			c0.293,0,0.555,0.021,0.742,0.053v2.866h2.46v-2.866c0.229-0.031,0.491-0.053,0.753-0.053c0.25,0,0.564,0.021,0.742,0.053V276.451
			z"/>
		<path style="fill:#C2AD70;" d="M149.739,270.405c-0.438,0-0.795-0.355-0.795-0.796c0-0.439,0.356-0.796,0.795-0.796
			c0.439,0,0.795,0.356,0.795,0.796C150.534,270.05,150.179,270.405,149.739,270.405z M150.462,276.451
			c-0.188,0.041-0.576,0.053-0.743,0.053c-0.251,0-0.524-0.021-0.7-0.053v-5.449c0.229-0.032,0.512-0.054,0.7-0.054
			c0.25,0,0.513,0.021,0.743,0.054V276.451z"/>
		<path style="fill:#C2AD70;" d="M156.455,275.487c0,0.702-0.041,1.708-0.449,2.396c-0.492,0.827-1.245,1.14-2.249,1.14
			c-0.576,0-1.131-0.071-1.611-0.218c-0.031-0.106-0.041-0.24-0.041-0.378c0-0.231,0.031-0.472,0.084-0.68
			c0.449,0.115,0.982,0.189,1.401,0.189c0.597,0,1.003-0.231,1.233-0.649c0.21-0.377,0.241-0.722,0.241-1.14
			c-0.263,0.197-0.743,0.355-1.234,0.355c-1.528,0-2.313-1.13-2.313-2.627c0-1.945,1.016-2.981,2.93-2.981
			c0.492,0,1.381,0.095,2.009,0.356V275.487z M155.011,272.1c-0.156-0.032-0.48-0.053-0.615-0.053c-0.964,0-1.393,0.616-1.393,1.758
			c0,0.909,0.335,1.536,1.057,1.536c0.408,0,0.742-0.112,0.951-0.29V272.1z"/>
		<path style="fill:#C2AD70;" d="M162.556,272.8v3.651c-0.168,0.041-0.523,0.053-0.691,0.053c-0.178,0-0.585-0.021-0.752-0.053
			v-3.567c0-0.564-0.294-0.816-0.765-0.816c-0.376,0-0.837,0.137-1.171,0.345v4.039c-0.242,0.041-0.576,0.053-0.765,0.053
			c-0.167,0-0.47-0.012-0.679-0.053v-7.628c0.135-0.03,0.438-0.051,0.7-0.051c0.261,0,0.586,0.021,0.743,0.051v2.565
			c0.46-0.294,1.098-0.493,1.653-0.493C161.979,270.896,162.556,271.607,162.556,272.8z"/>
		<path style="fill:#C2AD70;" d="M168.351,274.232h-3.306c0.021,0.681,0.492,1.184,1.401,1.184c0.492,0,0.995-0.062,1.424-0.179
			c0.062,0.281,0.104,0.597,0.104,0.881c0,0.04,0,0.093-0.011,0.208c-0.533,0.157-1.087,0.229-1.631,0.229
			c-1.988,0-2.813-1.139-2.813-2.803c0-1.455,0.814-2.856,2.583-2.856c1.674,0,2.28,1.236,2.28,2.594
			C168.382,273.68,168.382,273.961,168.351,274.232z M166.938,273.196c0-0.659-0.179-1.212-0.857-1.212
			c-0.648,0-0.994,0.513-1.036,1.212H166.938z"/>
		<path style="fill:#C2AD70;" d="M172.464,272.109c-0.544,0.085-1.13,0.272-1.653,0.543v3.799c-0.146,0.032-0.46,0.053-0.711,0.053
			s-0.618-0.021-0.732-0.053v-5.449c0.157-0.022,0.419-0.054,0.627-0.054c0.178,0,0.461,0.021,0.608,0.054l0.082,0.668
			c0.387-0.347,1.088-0.722,1.769-0.774c0.021,0.084,0.042,0.387,0.042,0.606C172.495,271.711,172.484,271.963,172.464,272.109z"/>
		<path style="fill:#C2AD70;" d="M180.394,276.451h-4.424v-7.072h4.33c0.042,0.116,0.073,0.334,0.073,0.627
			c0,0.231-0.021,0.431-0.073,0.649h-2.835v1.527h2.396c0.042,0.114,0.073,0.324,0.073,0.617c0,0.23-0.021,0.418-0.073,0.64h-2.396
			v1.735h2.929c0.042,0.116,0.073,0.334,0.073,0.627C180.467,276.033,180.447,276.23,180.394,276.451z"/>
		<path style="fill:#C2AD70;" d="M186.137,276.451c-0.167,0.032-0.448,0.053-0.669,0.053c-0.198,0-0.428-0.021-0.575-0.053
			l-0.041-0.48c-0.377,0.365-0.859,0.584-1.424,0.584c-1.56,0-2.228-1.245-2.228-2.74c0-1.61,0.721-2.919,2.385-2.919
			c0.407,0,0.879,0.125,1.108,0.272v-2.345c0.188-0.03,0.502-0.051,0.733-0.051c0.282,0,0.502,0.032,0.71,0.051V276.451z
			 M184.693,272.245c-0.251-0.113-0.575-0.178-0.847-0.178c-0.849,0-1.162,0.754-1.162,1.662c0,0.765,0.188,1.633,1.037,1.633
			c0.406,0,0.721-0.166,0.972-0.374V272.245z"/>
		<path style="fill:#C2AD70;" d="M192.08,274.349c0,1.558-0.732,2.206-2.364,2.206c-1.591,0-2.323-0.648-2.323-2.206v-3.347
			c0.147-0.022,0.43-0.054,0.712-0.054c0.251,0,0.565,0.021,0.732,0.054v3.337c0,0.814,0.24,1.107,0.899,1.107
			c0.671,0,0.899-0.293,0.899-1.107v-3.337c0.147-0.032,0.472-0.054,0.732-0.054c0.262,0,0.607,0.031,0.712,0.054V274.349z"/>
		<path style="fill:#C2AD70;" d="M197.229,271.586c0,0.23-0.031,0.481-0.105,0.701c-0.344-0.137-0.795-0.22-1.224-0.22
			c-0.815,0-1.371,0.522-1.371,1.694c0,1.026,0.472,1.622,1.382,1.622c0.471,0,0.92-0.084,1.256-0.199
			c0.062,0.231,0.094,0.512,0.094,0.733c0,0.146,0,0.25-0.012,0.344c-0.418,0.189-0.972,0.293-1.495,0.293
			c-1.81,0-2.71-1.056-2.71-2.772c0-1.777,0.942-2.887,2.772-2.887c0.513,0,1.015,0.106,1.37,0.272
			C197.218,271.282,197.229,271.43,197.229,271.586z"/>
		<path style="fill:#C2AD70;" d="M202.562,274.935c0,0.449,0.012,0.962,0.012,1.517c-0.167,0.041-0.45,0.053-0.628,0.053
			c-0.198,0-0.461-0.021-0.627-0.053c-0.022-0.125-0.043-0.346-0.053-0.48h-0.021c-0.355,0.365-0.963,0.584-1.517,0.584
			c-1.046,0-1.799-0.648-1.799-1.726c0-1.674,1.485-1.955,2.729-1.955c0.084,0,0.282,0.01,0.45,0.019
			c0-0.062-0.011-0.196-0.021-0.249c-0.073-0.431-0.355-0.608-0.961-0.608c-0.472,0-1.13,0.097-1.633,0.222
			c-0.054-0.147-0.084-0.399-0.084-0.587c0-0.157,0.021-0.397,0.062-0.502c0.587-0.178,1.308-0.272,1.904-0.272
			c1.308,0,2.186,0.606,2.186,1.967V274.935z M201.119,273.898c-0.125-0.01-0.292-0.021-0.438-0.021
			c-0.941,0-1.308,0.377-1.308,0.849c0,0.406,0.271,0.69,0.742,0.69c0.345,0,0.732-0.169,1.004-0.409V273.898z"/>
		<path style="fill:#C2AD70;" d="M207.273,276.346c-0.315,0.125-0.692,0.209-1.299,0.209c-1.182,0-1.768-0.574-1.768-1.726v-2.75
			h-0.9c-0.042-0.157-0.073-0.419-0.073-0.556c0-0.126,0.031-0.355,0.062-0.459l0.911-0.062v-1.404c0.114-0.02,0.48-0.04,0.722-0.04
			c0.263,0,0.586,0.021,0.722,0.04v1.404h1.507c0.042,0.146,0.062,0.355,0.062,0.469c0,0.127-0.012,0.461-0.052,0.608h-1.518v2.54
			c0,0.524,0.21,0.755,0.722,0.755c0.282,0,0.628-0.043,0.869-0.127c0.041,0.137,0.094,0.399,0.094,0.64
			C207.335,276.012,207.313,276.23,207.273,276.346z"/>
		<path style="fill:#C2AD70;" d="M209.082,270.405c-0.439,0-0.795-0.355-0.795-0.796c0-0.439,0.355-0.796,0.795-0.796
			s0.794,0.356,0.794,0.796C209.876,270.05,209.521,270.405,209.082,270.405z M209.804,276.451
			c-0.188,0.041-0.576,0.053-0.743,0.053c-0.251,0-0.523-0.021-0.7-0.053v-5.449c0.23-0.032,0.512-0.054,0.7-0.054
			c0.251,0,0.513,0.021,0.743,0.054V276.451z"/>
		<path style="fill:#C2AD70;" d="M213.444,276.555c-1.58,0-2.584-1.014-2.584-2.812c0-1.788,0.993-2.847,2.584-2.847
			c1.59,0,2.584,1.046,2.584,2.834C216.028,275.519,215.034,276.555,213.444,276.555z M213.444,272.025
			c-0.682,0-1.1,0.462-1.1,1.704c0,1.245,0.418,1.695,1.1,1.695c0.68,0,1.098-0.45,1.098-1.695
			C214.542,272.475,214.124,272.025,213.444,272.025z"/>
		<path style="fill:#C2AD70;" d="M221.804,276.451c-0.168,0.041-0.524,0.053-0.691,0.053c-0.178,0-0.585-0.021-0.752-0.053v-3.577
			c0-0.564-0.293-0.807-0.765-0.807c-0.376,0-0.805,0.137-1.14,0.345v4.039c-0.241,0.041-0.576,0.053-0.765,0.053
			c-0.167,0-0.47-0.012-0.679-0.053v-5.449c0.136-0.032,0.471-0.054,0.627-0.054c0.147,0,0.45,0.021,0.606,0.054l0.073,0.48
			c0.472-0.347,1.151-0.587,1.758-0.587c1.15,0,1.727,0.712,1.727,1.904V276.451z"/>
		<path style="fill:#C2AD70;" d="M224.524,273.354c0-1.466-0.544-2.887-1.57-3.976c0.147-0.209,0.514-0.503,0.827-0.565
			c1.308,1.162,2.155,2.71,2.155,4.541c0,1.799-0.815,3.307-2.155,4.539c-0.313-0.062-0.68-0.355-0.827-0.564
			C223.938,276.199,224.524,274.819,224.524,273.354z"/>
	</g>
</g>
<g id="Folder">
	<path style="fill:#7AC6BA;" d="M218.449,44.025v90.678c0,0.348-0.52,0.859-0.951,0.859H79.458c-0.611,0-0.862-0.251-0.862-0.859
		v-91.54h139.854V44.025z M78.596,24.479c0-0.611,0.251-0.861,0.862-0.861h53.393c0.342,0,0.941,0.509,0.941,0.861v9.21H78.596
		V24.479z M218.449,33.863V33.69h-75.185v-9.21c0-2.846-1.049-5.241-3.102-7.321c-2.001-2.044-4.478-3.104-7.312-3.104H79.458
		c-2.933,0-5.409,1.059-7.412,3.104c-1.954,2-3.013,4.476-3.013,7.321v110.224c0,2.842,1.013,5.363,3.013,7.407
		c1.957,2.001,4.479,3.016,7.412,3.016h138.041c2.935,0,5.446-1.015,7.411-3.016c2-2.043,3.016-4.565,3.016-7.407v-91.54
		C227.925,38.24,223.526,34.202,218.449,33.863"/>
</g>
</svg>
