<?xml version="1.0" encoding="utf-8"?>
<!-- Generator: Adobe Illustrator 16.0.4, SVG Export Plug-In . SVG Version: 6.00 Build 0)  -->
<!DOCTYPE svg PUBLIC "-//W3C//DTD SVG 1.1//EN" "http://www.w3.org/Graphics/SVG/1.1/DTD/svg11.dtd">
<svg version="1.1" xmlns="http://www.w3.org/2000/svg" xmlns:xlink="http://www.w3.org/1999/xlink" x="0px" y="0px" width="300px"
	 height="300px" viewBox="0 0 300 300" enable-background="new 0 0 300 300" xml:space="preserve">
<g id="Layer_1" display="none">
	<g id="Globe" display="inline">
		<text transform="matrix(1 0 0 1 216.5303 175.6328)" fill="#FFFFFF" font-family="'FSMatthew-Bold'" font-size="25.4934"> </text>
		<text transform="matrix(1 0 0 1 170.3955 199.5322)" fill="#7AC6BA" font-family="'FSMatthew-Bold'" font-size="33.4602"> </text>
		<text transform="matrix(1 0 0 1 281.5303 199.5322)" fill="#7AC6BA" font-family="'FSMatthew-Bold'" font-size="19.1201"> </text>
		<text transform="matrix(1 0 0 1 233.2021 225.0254)" fill="#FFFFFF" font-family="'FSMatthew-Bold'" font-size="26.2901"> </text>
		<text transform="matrix(1 0 0 1 282.5977 225.0254)" fill="#FFFFFF" font-family="'FSMatthew-Light'" font-size="26.2901"> </text>
		<line fill="none" stroke="#BBA461" stroke-width="4.747" x1="15.977" y1="167.637" x2="74.24" y2="167.637"/>
		<line fill="none" stroke="#BBA461" stroke-width="4.747" x1="223.286" y1="167.637" x2="281.549" y2="167.637"/>
		<path fill="#BBA461" d="M172.941,122.161c-3.219,7.589-7.715,14.338-13.432,20.33c9.813-2.295,18.076-7.112,24.902-14.429
			C180.76,125.721,176.98,123.744,172.941,122.161 M112.401,128.056c3.332,3.617,7.082,6.652,11.324,9.108
			c4.042,2.338,11.694,5.312,13.596,5.282c-5.761-5.966-10.248-12.718-13.458-20.287C119.817,123.75,116.047,125.72,112.401,128.056
			 M137.881,50.83c-10.061,2.198-18.521,7.062-25.491,14.536c3.739,2.383,7.564,4.39,11.66,5.968
			c1.677-3.833,3.632-7.453,5.968-10.872C132.355,57.041,134.966,53.836,137.881,50.83 M158.914,50.819
			c5.879,6.02,10.507,12.824,13.814,20.461c1.848-0.366,10.528-4.83,11.629-5.98C177.427,57.886,168.975,53.023,158.914,50.819
			 M167.852,73.055c-3.877-8.734-9.418-16.152-16.803-22.388v25.217C156.777,75.664,162.328,74.711,167.852,73.055 M145.769,50.669
			c-3.735,3.105-6.932,6.527-9.755,10.286c-2.816,3.75-5.152,7.766-7.025,12.042c2.694,1.262,14.715,3.254,16.78,2.791V50.669z
			 M151.051,117.544v25.728c7.522-6.367,13.139-13.939,16.991-22.841C162.463,118.736,156.846,117.766,151.051,117.544
			 M145.76,143.275v-25.732c-5.81,0.228-11.438,1.19-16.997,2.893C132.63,129.351,138.241,136.917,145.76,143.275 M145.765,80.973
			c-6.382-0.24-12.568-1.286-18.642-3.159c-1.802,5.334-2.818,10.749-3.095,16.329c0.218,0.014,0.358,0.031,0.498,0.031
			c6.916,0.001,13.83-0.002,20.745,0.01c0.433,0.001,0.537-0.135,0.535-0.537c-0.013-4.049-0.008-8.099-0.009-12.149
			C145.797,81.345,145.779,81.192,145.765,80.973 M151.008,81.133v0.454c0,3.997,0.01,7.995-0.01,11.993
			c-0.003,0.486,0.145,0.607,0.627,0.605c6.846-0.015,13.688-0.01,20.532-0.01h0.625c-0.292-5.634-1.296-11.054-3.056-16.217
			c-3.119,0.693-6.146,1.495-9.224,2.018C157.406,80.5,154.257,80.749,151.008,81.133 M151.041,112.455
			c6.42,0.237,12.658,1.302,18.797,3.205c1.76-5.362,2.732-10.787,2.963-16.376c-0.221-0.013-0.376-0.029-0.531-0.029
			c-6.9-0.001-13.802,0.003-20.699-0.011c-0.446,0-0.572,0.125-0.57,0.557c0.016,4.035,0.009,8.069,0.011,12.102
			C151.01,112.071,151.029,112.242,151.041,112.455 M126.969,115.662c6.141-1.912,12.382-2.966,18.829-3.211v-0.606
			c0-4-0.009-7.999,0.012-11.998c0.003-0.49-0.15-0.604-0.632-0.604c-6.864,0.014-13.729,0.01-20.594,0.011
			c-0.173,0-0.347,0.013-0.581,0.024C124.237,104.876,125.208,110.301,126.969,115.662 M178.014,99.283
			c-0.229,6.185-1.32,12.211-3.268,18.1c4.581,1.827,8.87,4.024,12.936,6.693c5.394-7.465,8.359-15.69,8.912-24.793H178.014z
			 M100.209,99.286c0.56,9.118,3.528,17.352,8.917,24.793c4.099-2.704,8.401-4.884,12.935-6.701
			c-1.962-5.914-3.037-11.93-3.271-18.092H100.209z M174.639,76.186c0.004,0.015,0.004,0.069,0.02,0.117
			c1.902,5.659,3.021,11.46,3.3,17.412c0.019,0.416,0.205,0.467,0.565,0.467c5.847-0.008,11.692-0.006,17.539-0.007
			c0.154,0,0.311-0.018,0.535-0.033c-0.562-9.121-3.529-17.354-8.857-24.708c-2.192,1.237-4.266,2.493-6.422,3.603
			C179.148,74.153,176.904,75.125,174.639,76.186 M109.123,69.347c-5.396,7.479-8.363,15.701-8.914,24.829h0.678
			c5.757,0,11.514-0.009,17.272,0.014c0.549,0.001,0.677-0.162,0.703-0.667c0.223-4.542,0.918-9.017,2.141-13.409
			c0.372-1.334,0.773-2.66,1.17-4.023C117.604,74.277,113.257,72.068,109.123,69.347 M201.887,96.713
			c-0.056,28.728-23.759,52.082-53.378,52.146c-29.511,0.063-53.399-23.109-53.588-51.938c-0.188-28.668,23.75-52.267,53.215-52.364
			C177.902,44.459,201.82,67.823,201.887,96.713"/>
	</g>
	<g id="Text">
		
			<text transform="matrix(1 0 0 1 80.2725 175.6328)" display="inline" fill="#1A2A4F" font-family="'FSMatthew-Bold'" font-size="28.6801">W</text>
		
			<text transform="matrix(1 0 0 1 105.5396 175.6328)" display="inline" fill="#1A2A4F" font-family="'FSMatthew-Bold'" font-size="28.6801">e </text>
		
			<text transform="matrix(1 0 0 1 127.7363 175.6328)" display="inline" fill="#1A2A4F" font-family="'FSMatthew-Bold'" font-size="28.6801">r</text>
		
			<text transform="matrix(1 0 0 1 138.6924 175.6328)" display="inline" fill="#1A2A4F" font-family="'FSMatthew-Bold'" font-size="28.6801">ec</text>
		
			<text transform="matrix(1 0 0 1 168.0605 175.6328)" display="inline" fill="#1A2A4F" font-family="'FSMatthew-Bold'" font-size="28.6801">r</text>
		
			<text transform="matrix(1 0 0 1 179.5605 175.6328)" display="inline" fill="#1A2A4F" font-family="'FSMatthew-Bold'" font-size="28.6801">u</text>
		
			<text transform="matrix(1 0 0 1 196.1094 175.6328)" display="inline" fill="#1A2A4F" font-family="'FSMatthew-Bold'" font-size="28.6801">i</text>
		
			<text transform="matrix(1 0 0 1 204.3115 175.6328)" display="inline" fill="#1A2A4F" font-family="'FSMatthew-Bold'" font-size="28.6801">t</text>
		
			<text transform="matrix(1 0 0 1 15.2852 199.5195)" display="inline" fill="#7AC6BA" font-family="'FSMatthew-Bold'" font-size="25.4934">in</text>
		
			<text transform="matrix(1 0 0 1 37.6172 199.5195)" display="inline" fill="#7AC6BA" font-family="'FSMatthew-Bold'" font-size="25.4934">t</text>
		
			<text transform="matrix(1 0 0 1 48.502 199.5195)" display="inline" fill="#7AC6BA" font-family="'FSMatthew-Bold'" font-size="25.4934">ern</text>
		
			<text transform="matrix(1 0 0 1 87.5571 199.5195)" display="inline" fill="#7AC6BA" font-family="'FSMatthew-Bold'" font-size="25.4934">a</text>
		
			<text transform="matrix(1 0 0 1 101.4512 199.5195)" display="inline" fill="#7AC6BA" font-family="'FSMatthew-Bold'" font-size="25.4934">tion</text>
		
			<text transform="matrix(1 0 0 1 149.4033 199.5195)" display="inline" fill="#7AC6BA" font-family="'FSMatthew-Bold'" font-size="25.4934">a</text>
		
			<text transform="matrix(1 0 0 1 163.3477 199.5195)" display="inline" fill="#7AC6BA" font-family="'FSMatthew-Bold'" font-size="25.4934">l</text>
		
			<text transform="matrix(1 0 0 1 178.2598 199.5322)" display="inline" fill="#7AC6BA" font-family="'FSMatthew-Bold'" font-size="25.4934">s</text>
		
			<text transform="matrix(1 0 0 1 189.6299 199.5322)" display="inline" fill="#7AC6BA" font-family="'FSMatthew-Bold'" font-size="25.4934">t</text>
		
			<text transform="matrix(1 0 0 1 200.4883 199.5322)" display="inline" fill="#7AC6BA" font-family="'FSMatthew-Bold'" font-size="25.4934">u</text>
		
			<text transform="matrix(1 0 0 1 215.2246 199.5322)" display="inline" fill="#7AC6BA" font-family="'FSMatthew-Bold'" font-size="25.4934">d</text>
		
			<text transform="matrix(1 0 0 1 229.832 199.5322)" display="inline" fill="#7AC6BA" font-family="'FSMatthew-Bold'" font-size="25.4934">en</text>
		
			<text transform="matrix(1 0 0 1 258.6133 199.5322)" display="inline" fill="#7AC6BA" font-family="'FSMatthew-Bold'" font-size="25.4934">t</text>
		
			<text transform="matrix(1 0 0 1 270.0596 199.5322)" display="inline" fill="#7AC6BA" font-family="'FSMatthew-Bold'" font-size="25.4934">s</text>
		
			<text transform="matrix(1 0 0 1 14.2051 225.0254)" display="inline" fill="#1A2A4F" font-family="'FSMatthew-Bold'" font-size="26.2901">F</text>
		
			<text transform="matrix(1 0 0 1 28.48 225.0254)" display="inline" fill="#1A2A4F" font-family="'FSMatthew-Bold'" font-size="26.2901">R</text>
		
			<text transform="matrix(1 0 0 1 44.2021 225.0254)" display="inline" fill="#1A2A4F" font-family="'FSMatthew-Bold'" font-size="26.2901">O</text>
		
			<text transform="matrix(1 0 0 1 61.6582 225.0254)" display="inline" fill="#1A2A4F" font-family="'FSMatthew-Bold'" font-size="26.2901">M</text>
		
			<text transform="matrix(1 0 0 1 83.6372 225.0254)" display="inline" fill="#1A2A4F" font-family="'FSMatthew-Bold'" font-size="26.2901"> MOR</text>
		
			<text transform="matrix(1 0 0 1 145.2861 225.0254)" display="inline" fill="#1A2A4F" font-family="'FSMatthew-Bold'" font-size="26.2901">E</text>
		
			<text transform="matrix(1 0 0 1 159.7979 225.0254)" display="inline" fill="#1A2A4F" font-family="'FSMatthew-Bold'" font-size="26.2901"> </text>
		
			<text transform="matrix(1 0 0 1 164.6875 225.0254)" display="inline" fill="#1A2A4F" font-family="'FSMatthew-Bold'" font-size="26.2901">THA</text>
		
			<text transform="matrix(1 0 0 1 214.7441 225.0254)" display="inline" fill="#1A2A4F" font-family="'FSMatthew-Bold'" font-size="26.2901">N</text>
		
			<text transform="matrix(1 0 0 1 239.3799 225.0254)" display="inline" fill="#C2AD70" font-family="'FSMatthew-Bold'" font-size="26.2901">100</text>
		
			<text transform="matrix(1 0 0 1 16.0146 247.9258)" display="inline" fill="#1A2A4F" font-family="'FSMatthew-Bold'" font-size="25.4934">DI</text>
		
			<text transform="matrix(1 0 0 1 40.9214 247.9258)" display="inline" fill="#1A2A4F" font-family="'FSMatthew-Bold'" font-size="25.4934">F</text>
		
			<text transform="matrix(1 0 0 1 54.4834 247.9258)" display="inline" fill="#1A2A4F" font-family="'FSMatthew-Bold'" font-size="25.4934">F</text>
		
			<text transform="matrix(1 0 0 1 68.3267 247.9258)" display="inline" fill="#1A2A4F" font-family="'FSMatthew-Bold'" font-size="25.4934">ER</text>
		
			<text transform="matrix(1 0 0 1 97.8984 247.9258)" display="inline" fill="#1A2A4F" font-family="'FSMatthew-Bold'" font-size="25.4934">EN</text>
		
			<text transform="matrix(1 0 0 1 129.8926 247.9258)" display="inline" fill="#1A2A4F" font-family="'FSMatthew-Bold'" font-size="25.4934">T</text>
		
			<text transform="matrix(1 0 0 1 142.8174 247.9258)" display="inline" fill="#1A2A4F" font-family="'FSMatthew-Bold'" font-size="25.4934"> </text>
		
			<text transform="matrix(1 0 0 1 148.8076 247.9258)" display="inline" fill="#1A2A4F" font-family="'FSMatthew-Bold'" font-size="25.4934">C</text>
		
			<text transform="matrix(1 0 0 1 163.543 247.9258)" display="inline" fill="#1A2A4F" font-family="'FSMatthew-Bold'" font-size="25.4934">O</text>
		
			<text transform="matrix(1 0 0 1 180.4707 247.9258)" display="inline" fill="#1A2A4F" font-family="'FSMatthew-Bold'" font-size="25.4934">U</text>
		
			<text transform="matrix(1 0 0 1 197.4492 247.9258)" display="inline" fill="#1A2A4F" font-family="'FSMatthew-Bold'" font-size="25.4934">NT</text>
		
			<text transform="matrix(1 0 0 1 229.5449 247.9258)" display="inline" fill="#1A2A4F" font-family="'FSMatthew-Bold'" font-size="25.4934">R</text>
		
			<text transform="matrix(1 0 0 1 245.0449 247.9258)" display="inline" fill="#1A2A4F" font-family="'FSMatthew-Bold'" font-size="25.4934">IE</text>
		
			<text transform="matrix(1 0 0 1 266.9697 247.9258)" display="inline" fill="#1A2A4F" font-family="'FSMatthew-Bold'" font-size="25.4934">S</text>
	</g>
	<g id="Text_Flat" display="inline">
		<g>
			<path fill="#1A2A4F" d="M99.779,175.633c-0.373,0.059-1.119,0.145-1.922,0.145c-0.774,0-1.549-0.086-2.065-0.145l-2.353-9.581
				c-0.258-1.004-0.401-2.095-0.516-3.041h-0.029c-0.086,0.946-0.315,2.065-0.545,3.041l-2.324,9.581
				c-0.516,0.059-1.32,0.145-2.065,0.145c-0.717,0-1.578-0.086-1.979-0.145l-4.332-14.199c-0.459-1.492-0.746-3.271-0.746-5.192
				c0.603-0.114,1.349-0.144,1.979-0.144c1.062,0,1.578,0.057,2.037,0.144c0,1.864,0.258,3.413,0.602,4.733l1.75,6.627
				c0.258,1.031,0.516,2.381,0.66,3.672h0.058c0.144-1.291,0.373-2.641,0.631-3.7l2.697-11.332c0.516-0.087,1.004-0.144,1.52-0.144
				c0.545,0,1.033,0.057,1.578,0.144l2.754,11.36c0.258,1.031,0.545,2.381,0.688,3.672h0.057c0.144-1.291,0.402-2.641,0.688-3.7
				l1.836-6.599c0.373-1.32,0.66-2.869,0.66-4.733c0.459-0.087,1.291-0.144,2.152-0.144c0.574,0,1.348,0.057,1.893,0.144
				c0,2.123-0.315,3.729-0.774,5.192L99.779,175.633z"/>
			<path fill="#1A2A4F" d="M119.71,169.551h-9.064c0.057,1.865,1.348,3.242,3.844,3.242c1.348,0,2.725-0.172,3.901-0.488
				c0.172,0.775,0.287,1.637,0.287,2.41c0,0.115,0,0.258-0.029,0.574c-1.463,0.43-2.983,0.631-4.475,0.631
				c-5.451,0-7.717-3.127-7.717-7.688c0-3.987,2.237-7.832,7.085-7.832c4.59,0,6.254,3.386,6.254,7.115
				C119.796,168.031,119.796,168.807,119.71,169.551z M115.837,166.711c0-1.807-0.488-3.327-2.352-3.327
				c-1.779,0-2.726,1.405-2.84,3.327H115.837z"/>
			<path fill="#1A2A4F" d="M138.007,163.729c-1.492,0.229-3.099,0.746-4.533,1.492v10.412c-0.402,0.086-1.262,0.145-1.951,0.145
				s-1.692-0.059-2.008-0.145v-14.945c0.43-0.058,1.147-0.144,1.721-0.144c0.488,0,1.263,0.058,1.664,0.144l0.229,1.836
				c1.062-0.946,2.983-1.979,4.848-2.123c0.057,0.229,0.115,1.062,0.115,1.664C138.093,162.639,138.064,163.326,138.007,163.729z"/>
			<path fill="#1A2A4F" d="M152.863,169.551h-9.064c0.057,1.865,1.348,3.242,3.844,3.242c1.348,0,2.725-0.172,3.901-0.488
				c0.172,0.775,0.287,1.637,0.287,2.41c0,0.115,0,0.258-0.028,0.574c-1.464,0.43-2.984,0.631-4.476,0.631
				c-5.451,0-7.717-3.127-7.717-7.688c0-3.987,2.237-7.832,7.085-7.832c4.589,0,6.253,3.386,6.253,7.115
				C152.949,168.031,152.949,168.807,152.863,169.551z M148.991,166.711c0-1.807-0.488-3.327-2.352-3.327
				c-1.779,0-2.726,1.405-2.84,3.327H148.991z"/>
			<path fill="#1A2A4F" d="M166.543,162.294c0,0.631-0.086,1.319-0.287,1.922c-0.945-0.373-2.18-0.603-3.355-0.603
				c-2.237,0-3.758,1.435-3.758,4.646c0,2.811,1.291,4.446,3.787,4.446c1.291,0,2.523-0.229,3.441-0.545
				c0.172,0.631,0.258,1.405,0.258,2.008c0,0.401,0,0.688-0.027,0.946c-1.147,0.517-2.668,0.804-4.104,0.804
				c-4.963,0-7.43-2.897-7.43-7.603c0-4.877,2.582-7.918,7.602-7.918c1.406,0,2.783,0.287,3.758,0.746
				C166.516,161.462,166.543,161.863,166.543,162.294z"/>
			<path fill="#1A2A4F" d="M178.33,163.729c-1.491,0.229-3.098,0.746-4.532,1.492v10.412c-0.401,0.086-1.263,0.145-1.95,0.145
				c-0.688,0-1.693-0.059-2.009-0.145v-14.945c0.431-0.058,1.147-0.144,1.722-0.144c0.487,0,1.263,0.058,1.664,0.144l0.229,1.836
				c1.062-0.946,2.983-1.979,4.849-2.123c0.059,0.229,0.114,1.062,0.114,1.664C178.416,162.639,178.389,163.326,178.33,163.729z"/>
			<path fill="#1A2A4F" d="M194.133,169.867c0,4.273-2.008,6.053-6.482,6.053c-4.359,0-6.368-1.779-6.368-6.053v-9.18
				c0.401-0.059,1.177-0.145,1.95-0.145c0.688,0,1.55,0.059,2.009,0.145v9.149c0,2.238,0.659,3.041,2.467,3.041
				c1.836,0,2.468-0.803,2.468-3.041v-9.149c0.401-0.086,1.291-0.145,2.008-0.145s1.664,0.086,1.95,0.145L194.133,169.867
				L194.133,169.867z"/>
			<path fill="#1A2A4F" d="M200.068,159.052c-1.205,0-2.182-0.976-2.182-2.18c0-1.205,0.977-2.181,2.182-2.181
				s2.18,0.976,2.18,2.181C202.248,158.076,201.273,159.052,200.068,159.052z M202.048,175.633
				c-0.517,0.115-1.577,0.145-2.036,0.145c-0.688,0-1.436-0.059-1.923-0.145v-14.945c0.632-0.086,1.405-0.144,1.923-0.144
				c0.688,0,1.404,0.058,2.036,0.144V175.633z"/>
			<path fill="#1A2A4F" d="M215.557,175.346c-0.859,0.346-1.894,0.574-3.557,0.574c-3.242,0-4.85-1.578-4.85-4.732v-7.545h-2.467
				c-0.115-0.431-0.201-1.147-0.201-1.521c0-0.344,0.086-0.975,0.174-1.262l2.494-0.172v-3.846c0.315-0.057,1.32-0.113,1.979-0.113
				c0.718,0,1.606,0.058,1.979,0.113v3.846h4.131c0.113,0.4,0.172,0.975,0.172,1.291c0,0.344-0.028,1.262-0.145,1.662h-4.158v6.971
				c0,1.436,0.572,2.065,1.979,2.065c0.773,0,1.721-0.114,2.381-0.344c0.114,0.373,0.258,1.09,0.258,1.75
				C215.729,174.428,215.672,175.029,215.557,175.346z"/>
		</g>
		<g>
			<path fill="#7AC6BA" d="M18.804,184.782c-1.071,0-1.938-0.867-1.938-1.938c0-1.07,0.867-1.938,1.938-1.938
				c1.071,0,1.938,0.867,1.938,1.938C20.742,183.915,19.875,184.782,18.804,184.782z M20.563,199.52
				c-0.459,0.103-1.402,0.129-1.81,0.129c-0.612,0-1.275-0.053-1.708-0.129v-13.283c0.561-0.076,1.25-0.129,1.708-0.129
				c0.612,0,1.249,0.053,1.81,0.129V199.52z"/>
			<path fill="#7AC6BA" d="M35.834,199.52c-0.408,0.103-1.275,0.129-1.683,0.129c-0.433,0-1.428-0.053-1.835-0.129v-8.72
				c0-1.377-0.714-1.964-1.861-1.964c-0.918,0-1.963,0.332-2.779,0.842v9.842c-0.586,0.103-1.402,0.129-1.861,0.129
				c-0.408,0-1.147-0.026-1.657-0.129v-13.283c0.331-0.076,1.147-0.129,1.53-0.129c0.357,0,1.096,0.053,1.479,0.129l0.179,1.173
				c1.147-0.843,2.805-1.429,4.284-1.429c2.805,0,4.207,1.733,4.207,4.642v8.897H35.834z"/>
			<path fill="#7AC6BA" d="M47.612,199.266c-0.765,0.305-1.683,0.51-3.162,0.51c-2.881,0-4.309-1.402-4.309-4.207v-6.707h-2.193
				c-0.102-0.381-0.179-1.02-0.179-1.352c0-0.306,0.077-0.865,0.153-1.121l2.218-0.152v-3.418c0.28-0.051,1.173-0.102,1.759-0.102
				c0.637,0,1.428,0.051,1.759,0.102v3.418h3.671c0.102,0.356,0.153,0.867,0.153,1.146c0,0.307-0.026,1.122-0.127,1.479H43.66v6.197
				c0,1.273,0.51,1.836,1.759,1.836c0.688,0,1.53-0.104,2.116-0.308c0.102,0.332,0.229,0.97,0.229,1.556
				C47.765,198.448,47.714,198.984,47.612,199.266z"/>
			<path fill="#7AC6BA" d="M61.098,194.114h-8.057c0.051,1.657,1.198,2.881,3.417,2.881c1.199,0,2.422-0.152,3.468-0.435
				c0.153,0.688,0.255,1.455,0.255,2.143c0,0.104,0,0.229-0.025,0.511c-1.3,0.382-2.652,0.562-3.978,0.562
				c-4.845,0-6.859-2.779-6.859-6.834c0-3.543,1.989-6.961,6.298-6.961c4.08,0,5.559,3.01,5.559,6.324
				C61.174,192.764,61.174,193.451,61.098,194.114z M57.656,191.59c0-1.605-0.434-2.958-2.091-2.958
				c-1.581,0-2.422,1.25-2.524,2.958H57.656z"/>
			<path fill="#7AC6BA" d="M71.371,188.938c-1.326,0.203-2.753,0.662-4.028,1.326v9.256c-0.357,0.076-1.122,0.127-1.734,0.127
				c-0.612,0-1.504-0.051-1.785-0.127v-13.285c0.382-0.051,1.02-0.127,1.53-0.127c0.433,0,1.122,0.052,1.479,0.127l0.204,1.633
				c0.943-0.842,2.652-1.76,4.309-1.887c0.051,0.203,0.102,0.942,0.102,1.479C71.447,187.969,71.422,188.581,71.371,188.938z"/>
			<path fill="#7AC6BA" d="M85.775,199.52c-0.408,0.103-1.275,0.129-1.683,0.129c-0.433,0-1.428-0.053-1.835-0.129v-8.72
				c0-1.377-0.714-1.964-1.861-1.964c-0.918,0-1.963,0.332-2.779,0.842v9.842c-0.586,0.103-1.402,0.129-1.861,0.129
				c-0.408,0-1.147-0.026-1.657-0.129v-13.283c0.331-0.076,1.147-0.129,1.53-0.129c0.357,0,1.096,0.053,1.479,0.129l0.179,1.173
				c1.147-0.843,2.805-1.429,4.284-1.429c2.805,0,4.207,1.733,4.207,4.642v8.897H85.775z"/>
			<path fill="#7AC6BA" d="M99.719,195.822c0,1.097,0.026,2.346,0.026,3.697c-0.408,0.102-1.097,0.127-1.53,0.127
				c-0.484,0-1.122-0.051-1.53-0.127c-0.051-0.307-0.102-0.843-0.127-1.174h-0.051c-0.867,0.894-2.346,1.428-3.697,1.428
				c-2.55,0-4.386-1.58-4.386-4.207c0-4.078,3.621-4.768,6.655-4.768c0.204,0,0.688,0.025,1.096,0.051
				c0-0.152-0.025-0.483-0.051-0.611c-0.178-1.045-0.867-1.479-2.346-1.479c-1.147,0-2.753,0.229-3.978,0.535
				c-0.127-0.356-0.204-0.969-0.204-1.428c0-0.384,0.051-0.97,0.153-1.224c1.428-0.435,3.187-0.664,4.641-0.664
				c3.187,0,5.329,1.479,5.329,4.793V195.822z M96.201,193.298c-0.306-0.024-0.714-0.051-1.071-0.051
				c-2.295,0-3.187,0.918-3.187,2.065c0,0.994,0.663,1.683,1.81,1.683c0.841,0,1.785-0.408,2.448-0.994V193.298z"/>
			<path fill="#7AC6BA" d="M111.446,199.266c-0.765,0.305-1.683,0.51-3.162,0.51c-2.881,0-4.309-1.402-4.309-4.207v-6.707h-2.193
				c-0.102-0.381-0.179-1.02-0.179-1.352c0-0.306,0.077-0.865,0.153-1.121l2.218-0.152v-3.418c0.28-0.051,1.173-0.102,1.759-0.102
				c0.637,0,1.428,0.051,1.759,0.102v3.418h3.671c0.102,0.356,0.153,0.867,0.153,1.146c0,0.307-0.026,1.122-0.127,1.479h-3.697
				v6.197c0,1.273,0.51,1.836,1.759,1.836c0.688,0,1.53-0.104,2.116-0.308c0.102,0.332,0.229,0.97,0.229,1.556
				C111.599,198.448,111.548,198.984,111.446,199.266z"/>
			<path fill="#7AC6BA" d="M116.11,184.782c-1.071,0-1.938-0.867-1.938-1.938c0-1.07,0.867-1.938,1.938-1.938
				c1.071,0,1.938,0.867,1.938,1.938C118.048,183.915,117.181,184.782,116.11,184.782z M117.869,199.52
				c-0.459,0.103-1.402,0.129-1.81,0.129c-0.612,0-1.275-0.053-1.708-0.129v-13.283c0.561-0.076,1.25-0.129,1.708-0.129
				c0.612,0,1.249,0.053,1.81,0.129V199.52z"/>
			<path fill="#7AC6BA" d="M126.996,199.773c-3.85,0-6.298-2.474-6.298-6.857c0-4.359,2.422-6.936,6.298-6.936
				s6.298,2.549,6.298,6.91C133.293,197.25,130.871,199.773,126.996,199.773z M126.996,188.734c-1.657,0-2.677,1.121-2.677,4.156
				c0,3.033,1.02,4.129,2.677,4.129c1.657,0,2.677-1.096,2.677-4.129C129.673,189.83,128.653,188.734,126.996,188.734z"/>
			<path fill="#7AC6BA" d="M147.621,199.52c-0.408,0.103-1.275,0.129-1.683,0.129c-0.433,0-1.428-0.053-1.835-0.129v-8.72
				c0-1.377-0.714-1.964-1.861-1.964c-0.918,0-1.963,0.332-2.779,0.842v9.842c-0.586,0.103-1.402,0.129-1.861,0.129
				c-0.408,0-1.147-0.026-1.657-0.129v-13.283c0.331-0.076,1.147-0.129,1.53-0.129c0.357,0,1.096,0.053,1.479,0.129l0.179,1.173
				c1.147-0.843,2.805-1.429,4.284-1.429c2.805,0,4.207,1.733,4.207,4.642v8.897H147.621z"/>
			<path fill="#7AC6BA" d="M161.564,195.822c0,1.097,0.025,2.346,0.025,3.697c-0.408,0.102-1.097,0.127-1.529,0.127
				c-0.484,0-1.123-0.051-1.529-0.127c-0.053-0.307-0.104-0.843-0.129-1.174h-0.051c-0.867,0.894-2.346,1.428-3.697,1.428
				c-2.549,0-4.385-1.58-4.385-4.207c0-4.078,3.622-4.768,6.655-4.768c0.204,0,0.688,0.025,1.096,0.051
				c0-0.152-0.024-0.483-0.051-0.611c-0.179-1.045-0.865-1.479-2.346-1.479c-1.146,0-2.753,0.229-3.979,0.535
				c-0.127-0.356-0.203-0.969-0.203-1.428c0-0.384,0.052-0.97,0.152-1.224c1.428-0.435,3.188-0.664,4.641-0.664
				c3.188,0,5.33,1.479,5.33,4.793V195.822L161.564,195.822z M158.047,193.298c-0.307-0.024-0.714-0.051-1.07-0.051
				c-2.295,0-3.188,0.918-3.188,2.065c0,0.994,0.662,1.683,1.811,1.683c0.842,0,1.784-0.408,2.447-0.994V193.298z"/>
			<path fill="#7AC6BA" d="M168.498,199.52c-0.459,0.103-1.402,0.129-1.811,0.129c-0.611,0-1.274-0.053-1.709-0.129v-18.588
				c0.562-0.076,1.25-0.127,1.709-0.127c0.611,0,1.326,0.051,1.811,0.127V199.52z"/>
		</g>
		<g>
			<path fill="#7AC6BA" d="M183.768,199.787c-1.504,0-3.086-0.229-4.31-0.639c-0.076-0.381-0.103-0.865-0.103-1.377
				c0-0.406,0.103-0.994,0.205-1.351c1.172,0.407,2.854,0.688,3.85,0.688c1.377,0,2.167-0.459,2.167-1.402
				c0-0.816-0.638-1.199-2.32-1.734c-2.677-0.841-3.926-2.091-3.926-4.027c0-2.881,2.651-3.952,5.176-3.952
				c1.173,0,2.474,0.204,3.365,0.483c0.103,0.383,0.153,0.918,0.153,1.225c0,0.332-0.104,1.021-0.229,1.453
				c-0.866-0.256-2.065-0.458-3.06-0.458c-1.225,0-2.065,0.306-2.065,1.069c0,0.816,0.942,1.147,2.422,1.633
				c2.575,0.842,3.8,1.912,3.8,3.927C188.893,198.436,186.395,199.787,183.768,199.787z"/>
			<path fill="#7AC6BA" d="M199.625,199.277c-0.766,0.306-1.684,0.51-3.162,0.51c-2.881,0-4.309-1.402-4.309-4.207v-6.706h-2.193
				c-0.102-0.382-0.178-1.021-0.178-1.353c0-0.306,0.076-0.865,0.152-1.121l2.219-0.152v-3.417c0.279-0.052,1.173-0.103,1.759-0.103
				c0.638,0,1.429,0.051,1.76,0.103v3.417h3.673c0.102,0.357,0.151,0.867,0.151,1.146c0,0.307-0.024,1.123-0.127,1.479h-3.697v6.196
				c0,1.273,0.511,1.836,1.759,1.836c0.688,0,1.53-0.104,2.117-0.307c0.102,0.332,0.229,0.969,0.229,1.555
				C199.777,198.461,199.727,198.997,199.625,199.277z"/>
			<path fill="#7AC6BA" d="M213.441,194.407c0,3.799-1.784,5.38-5.762,5.38c-3.877,0-5.66-1.581-5.66-5.38v-8.159
				c0.355-0.051,1.045-0.128,1.732-0.128c0.611,0,1.377,0.052,1.785,0.128v8.134c0,1.988,0.586,2.702,2.191,2.702
				c1.633,0,2.192-0.714,2.192-2.702v-8.134c0.356-0.076,1.147-0.128,1.785-0.128s1.479,0.077,1.733,0.128v8.159H213.441z"/>
			<path fill="#7AC6BA" d="M228.075,199.532c-0.408,0.075-1.097,0.128-1.632,0.128c-0.484,0-1.045-0.053-1.402-0.128l-0.102-1.173
				c-0.918,0.893-2.092,1.428-3.469,1.428c-3.8,0-5.431-3.034-5.431-6.682c0-3.926,1.759-7.112,5.812-7.112
				c0.996,0,2.144,0.306,2.703,0.663v-5.713c0.459-0.075,1.225-0.127,1.785-0.127c0.688,0,1.225,0.076,1.733,0.127v18.589H228.075z
				 M224.557,189.282c-0.611-0.28-1.402-0.435-2.064-0.435c-2.065,0-2.83,1.836-2.83,4.055c0,1.861,0.459,3.979,2.523,3.979
				c0.994,0,1.76-0.408,2.371-0.918V189.282z"/>
			<path fill="#7AC6BA" d="M242.428,194.127h-8.058c0.052,1.657,1.198,2.881,3.417,2.881c1.197,0,2.423-0.152,3.468-0.434
				c0.153,0.688,0.255,1.453,0.255,2.143c0,0.102,0,0.229-0.025,0.51c-1.301,0.383-2.65,0.562-3.978,0.562
				c-4.845,0-6.858-2.779-6.858-6.833c0-3.544,1.988-6.961,6.299-6.961c4.078,0,5.558,3.009,5.558,6.322
				C242.504,192.775,242.504,193.464,242.428,194.127z M238.984,191.604c0-1.606-0.434-2.959-2.09-2.959
				c-1.58,0-2.422,1.25-2.524,2.959H238.984z"/>
			<path fill="#7AC6BA" d="M256.832,199.532c-0.408,0.102-1.275,0.128-1.684,0.128c-0.434,0-1.428-0.053-1.836-0.128v-8.72
				c0-1.377-0.713-1.965-1.86-1.965c-0.918,0-1.964,0.332-2.779,0.842v9.843c-0.587,0.102-1.401,0.128-1.86,0.128
				c-0.408,0-1.147-0.026-1.658-0.128v-13.284c0.332-0.076,1.148-0.128,1.529-0.128c0.357,0,1.098,0.052,1.479,0.128l0.178,1.173
				c1.147-0.842,2.806-1.428,4.284-1.428c2.805,0,4.207,1.733,4.207,4.641V199.532z"/>
			<path fill="#7AC6BA" d="M268.607,199.277c-0.765,0.306-1.683,0.51-3.162,0.51c-2.881,0-4.309-1.402-4.309-4.207v-6.706h-2.193
				c-0.102-0.382-0.178-1.021-0.178-1.353c0-0.306,0.076-0.865,0.152-1.121l2.219-0.152v-3.417c0.28-0.052,1.174-0.103,1.76-0.103
				c0.638,0,1.428,0.051,1.76,0.103v3.417h3.672c0.102,0.357,0.152,0.867,0.152,1.146c0,0.307-0.025,1.123-0.127,1.479h-3.697v6.196
				c0,1.273,0.51,1.836,1.759,1.836c0.688,0,1.53-0.104,2.117-0.307c0.102,0.332,0.229,0.969,0.229,1.555
				C268.762,198.461,268.71,198.997,268.607,199.277z"/>
			<path fill="#7AC6BA" d="M275.566,199.787c-1.504,0-3.086-0.229-4.31-0.639c-0.075-0.381-0.103-0.865-0.103-1.377
				c0-0.406,0.103-0.994,0.205-1.351c1.173,0.407,2.854,0.688,3.85,0.688c1.377,0,2.167-0.459,2.167-1.402
				c0-0.816-0.637-1.199-2.319-1.734c-2.678-0.841-3.927-2.091-3.927-4.027c0-2.881,2.651-3.952,5.177-3.952
				c1.172,0,2.473,0.204,3.364,0.483c0.103,0.383,0.153,0.918,0.153,1.225c0,0.332-0.104,1.021-0.229,1.453
				c-0.867-0.256-2.066-0.458-3.061-0.458c-1.225,0-2.064,0.306-2.064,1.069c0,0.816,0.942,1.147,2.422,1.633
				c2.574,0.842,3.799,1.912,3.799,3.927C280.691,198.436,278.193,199.787,275.566,199.787z"/>
		</g>
		<g>
			<path fill="#1A2A4F" d="M26.93,210.46h-6.993v3.839h5.889c0.105,0.289,0.184,0.814,0.184,1.551c0,0.58-0.053,1.053-0.184,1.604
				h-5.889v7.571c-0.5,0.08-1.078,0.133-1.867,0.133c-0.71,0-1.394-0.053-1.893-0.133v-17.771H26.93
				c0.105,0.289,0.184,0.842,0.184,1.577C27.114,209.408,27.062,209.908,26.93,210.46z"/>
			<path fill="#1A2A4F" d="M43.545,224.999c-0.683,0.104-1.393,0.158-2.208,0.158c-0.736,0-1.473-0.026-1.972-0.132l-3.602-6.39
				h-1.551v6.39c-0.657,0.104-1.209,0.132-1.919,0.132c-0.631,0-1.183-0.026-1.84-0.132v-17.772
				c1.209-0.079,3.733-0.132,5.258-0.132c4.469,0,6.704,1.578,6.704,5.679c0,2.183-1.314,4.364-3.155,5.153L43.545,224.999z
				 M35.947,210.197c-0.579,0-1.289,0.025-1.735,0.053v5.258h1.314c2.156,0,3.103-0.787,3.103-2.734
				C38.629,210.828,37.682,210.197,35.947,210.197z"/>
			<path fill="#1A2A4F" d="M52.799,225.288c-4.864,0-7.44-3.365-7.44-9.149c0-5.783,2.577-9.147,7.44-9.147
				c4.863,0,7.44,3.364,7.44,9.147C60.239,221.923,57.663,225.288,52.799,225.288z M52.799,210.225
				c-2.261,0-3.549,1.734-3.549,5.914c0,4.182,1.288,5.916,3.549,5.916c2.261,0,3.549-1.734,3.549-5.916
				C56.348,211.959,55.06,210.225,52.799,210.225z"/>
			<path fill="#1A2A4F" d="M81.613,225.025c-0.315,0.078-1.025,0.132-1.761,0.132c-0.789,0-1.525-0.079-1.84-0.132l-0.315-10.674
				l-3.891,8.99c-0.289,0.105-0.92,0.158-1.314,0.158c-0.474,0-1.052-0.053-1.341-0.132l-3.891-9.019l-0.342,10.674
				c-0.342,0.08-1.157,0.133-1.867,0.133c-0.421,0-1.13-0.053-1.604-0.133l0.763-17.771c0.5-0.053,0.999-0.132,1.525-0.132
				c0.631,0,1.235,0.053,1.551,0.132l5.206,12.066l5.232-12.066c0.525-0.079,1.051-0.132,1.524-0.132
				c0.605,0,1.157,0.053,1.551,0.132L81.613,225.025z"/>
			<path fill="#1A2A4F" d="M109.769,225.025c-0.315,0.078-1.025,0.132-1.761,0.132c-0.789,0-1.525-0.079-1.84-0.132l-0.315-10.674
				l-3.891,8.99c-0.289,0.105-0.92,0.158-1.314,0.158c-0.474,0-1.052-0.053-1.341-0.132l-3.891-9.019l-0.342,10.674
				c-0.342,0.08-1.157,0.133-1.867,0.133c-0.421,0-1.13-0.053-1.604-0.133l0.763-17.771c0.5-0.053,0.999-0.132,1.525-0.132
				c0.631,0,1.235,0.053,1.551,0.132l5.206,12.066l5.232-12.066c0.525-0.079,1.051-0.132,1.524-0.132
				c0.605,0,1.157,0.053,1.551,0.132L109.769,225.025z"/>
			<path fill="#1A2A4F" d="M120.417,225.288c-4.864,0-7.44-3.365-7.44-9.149c0-5.783,2.577-9.147,7.44-9.147s7.44,3.364,7.44,9.147
				C127.857,221.923,125.28,225.288,120.417,225.288z M120.417,210.225c-2.261,0-3.549,1.734-3.549,5.914
				c0,4.182,1.288,5.916,3.549,5.916s3.549-1.734,3.549-5.916C123.966,211.959,122.677,210.225,120.417,210.225z"/>
			<path fill="#1A2A4F" d="M144.34,224.999c-0.683,0.104-1.393,0.158-2.208,0.158c-0.736,0-1.473-0.026-1.972-0.132l-3.602-6.39
				h-1.551v6.39c-0.657,0.104-1.209,0.132-1.919,0.132c-0.631,0-1.183-0.026-1.84-0.132v-17.772
				c1.209-0.079,3.733-0.132,5.258-0.132c4.469,0,6.704,1.578,6.704,5.679c0,2.183-1.314,4.364-3.155,5.153L144.34,224.999z
				 M136.742,210.197c-0.579,0-1.289,0.025-1.735,0.053v5.258h1.314c2.156,0,3.103-0.787,3.103-2.734
				C139.424,210.828,138.477,210.197,136.742,210.197z"/>
			<path fill="#1A2A4F" d="M158.379,225.025h-11.121v-17.772h10.885c0.104,0.289,0.185,0.841,0.185,1.577
				c0,0.578-0.054,1.078-0.185,1.63h-7.125v3.839h6.021c0.105,0.289,0.186,0.814,0.186,1.551c0,0.58-0.054,1.053-0.186,1.604h-6.021
				v4.364h7.361c0.105,0.289,0.186,0.842,0.186,1.578C158.562,223.975,158.512,224.475,158.379,225.025z"/>
			<path fill="#1A2A4F" d="M178.464,210.46h-4.706v14.565c-0.499,0.078-1.209,0.132-1.865,0.132c-0.658,0-1.367-0.054-1.895-0.132
				V210.46h-4.706c-0.104-0.342-0.185-1.155-0.185-1.604c0-0.447,0.104-1.262,0.211-1.604h13.146
				c0.104,0.342,0.185,1.156,0.185,1.604C178.648,209.305,178.568,210.118,178.464,210.46z"/>
			<path fill="#1A2A4F" d="M195,225.025c-0.473,0.078-1.13,0.132-1.866,0.132c-0.735,0-1.394-0.054-1.893-0.132v-7.361h-6.179v7.361
				c-0.5,0.078-1.078,0.132-1.867,0.132c-0.709,0-1.394-0.054-1.894-0.132v-17.772c0.5-0.079,1.235-0.132,1.894-0.132
				c0.736,0,1.394,0.053,1.867,0.132v7.203h6.179v-7.203c0.577-0.079,1.235-0.132,1.893-0.132c0.632,0,1.421,0.053,1.866,0.132
				V225.025z"/>
			<path fill="#1A2A4F" d="M214.113,225.025c-0.342,0.078-1.157,0.132-2.024,0.132c-0.685,0-1.473-0.079-1.813-0.132l-1.314-3.603
				h-6.311l-1.234,3.603c-0.579,0.078-1.264,0.132-1.945,0.132c-0.684,0-1.473-0.054-1.867-0.132l6.205-17.772
				c0.367-0.079,1.235-0.132,1.813-0.132c0.71,0,1.551,0.053,1.841,0.132L214.113,225.025z M207.83,218.295l-1.553-5.021
				c-0.184-0.578-0.367-1.313-0.524-2.129H205.7c-0.132,0.814-0.343,1.551-0.526,2.129l-1.472,5.021H207.83z"/>
			<path fill="#1A2A4F" d="M230.966,225.025c-0.263,0.053-0.896,0.104-1.341,0.104c-0.447,0-0.895-0.026-1.314-0.104l-8.177-11.385
				v11.385c-0.21,0.053-0.999,0.132-1.735,0.132c-0.604,0-1.313-0.079-1.683-0.132v-17.772c0.421-0.079,0.921-0.104,1.394-0.104
				c0.5,0,1.025,0.053,1.42,0.104l8.02,11.174v-11.174c0.525-0.079,1.209-0.132,1.709-0.132c0.499,0,1.235,0.053,1.709,0.132
				L230.966,225.025L230.966,225.025z"/>
		</g>
		<g>
			<path fill="#C2AD70" d="M249.923,225.025c-0.396,0.078-1.104,0.132-1.866,0.132c-0.736,0-1.395-0.054-1.867-0.132v-13.594
				l-3.732,2.473c-0.895-0.815-1.525-1.92-1.762-2.865l6.179-3.786c0.368-0.079,1.13-0.132,1.524-0.132
				c0.447,0,1.262,0.079,1.524,0.132V225.025z"/>
			<path fill="#C2AD70" d="M260.964,225.288c-4.207,0-6.258-3.103-6.258-9.149c0-6.099,2.13-9.147,6.336-9.147
				c4.181,0,6.231,3.05,6.231,9.147C267.273,222.186,265.145,225.288,260.964,225.288z M260.99,210.064
				c-1.684,0-2.42,1.553-2.42,6.074c0,4.442,0.736,6.072,2.42,6.072c1.683,0,2.418-1.63,2.418-6.072
				C263.408,211.617,262.673,210.064,260.99,210.064z"/>
			<path fill="#C2AD70" d="M275.371,225.288c-4.207,0-6.258-3.103-6.258-9.149c0-6.099,2.13-9.147,6.336-9.147
				c4.181,0,6.23,3.05,6.23,9.147C281.682,222.186,279.551,225.288,275.371,225.288z M275.396,210.064
				c-1.683,0-2.418,1.553-2.418,6.074c0,4.442,0.735,6.072,2.418,6.072c1.684,0,2.418-1.63,2.418-6.072
				C277.814,211.617,277.08,210.064,275.396,210.064z"/>
		</g>
		<g>
			<path fill="#1A2A4F" d="M29.019,246.396c-1.581,1.225-3.621,1.658-6.426,1.658c-1.428,0-3.85-0.053-4.666-0.129v-17.236
				c1.25-0.075,3.85-0.127,5.304-0.127c5.609,0,8.491,2.371,8.491,8.541C31.721,242.291,30.88,244.941,29.019,246.396z
				 M23.307,233.57c-0.688,0-1.454,0.025-1.734,0.052v11.346c0.332,0.025,1.096,0.052,1.887,0.052c3.212,0,4.487-2.039,4.487-5.967
				C27.947,234.743,26.622,233.57,23.307,233.57z"/>
			<path fill="#1A2A4F" d="M38.704,247.926c-0.484,0.076-1.071,0.129-1.836,0.129c-0.688,0-1.326-0.053-1.81-0.129v-17.236
				c0.484-0.075,1.198-0.127,1.836-0.127c0.714,0,1.351,0.052,1.81,0.127V247.926z"/>
			<path fill="#1A2A4F" d="M53.262,233.8H46.48v3.724h5.711c0.102,0.281,0.178,0.791,0.178,1.504c0,0.562-0.051,1.021-0.178,1.556
				H46.48v7.344c-0.484,0.076-1.045,0.128-1.811,0.128c-0.688,0-1.351-0.052-1.836-0.128v-17.235h10.429
				c0.102,0.279,0.178,0.815,0.178,1.529C53.44,232.779,53.39,233.266,53.262,233.8z"/>
			<path fill="#1A2A4F" d="M66.824,233.8h-6.782v3.724h5.711c0.102,0.281,0.178,0.791,0.178,1.504c0,0.562-0.051,1.021-0.178,1.556
				h-5.711v7.344c-0.484,0.076-1.045,0.128-1.811,0.128c-0.688,0-1.351-0.052-1.836-0.128v-17.235h10.429
				c0.102,0.279,0.178,0.815,0.178,1.529C67.002,232.779,66.952,233.266,66.824,233.8z"/>
			<path fill="#1A2A4F" d="M81.024,247.926H70.238v-17.236h10.556c0.102,0.281,0.178,0.816,0.178,1.531
				c0,0.561-0.051,1.045-0.178,1.579h-6.91v3.724h5.839c0.102,0.281,0.178,0.791,0.178,1.504c0,0.562-0.051,1.021-0.178,1.556
				h-5.839v4.233h7.139c0.102,0.279,0.178,0.814,0.178,1.529C81.202,246.906,81.151,247.391,81.024,247.926z"/>
			<path fill="#1A2A4F" d="M97.008,247.9c-0.663,0.102-1.351,0.152-2.142,0.152c-0.714,0-1.428-0.025-1.912-0.128l-3.493-6.196
				h-1.504v6.196c-0.638,0.103-1.173,0.128-1.861,0.128c-0.612,0-1.147-0.025-1.785-0.128v-17.235
				c1.173-0.076,3.621-0.127,5.1-0.127c4.334,0,6.502,1.528,6.502,5.506c0,2.117-1.275,4.232-3.06,4.998L97.008,247.9z
				 M89.64,233.545c-0.561,0-1.25,0.025-1.683,0.053v5.098h1.275c2.091,0,3.008-0.764,3.008-2.65
				C92.24,234.159,91.323,233.545,89.64,233.545z"/>
			<path fill="#1A2A4F" d="M110.596,247.926H99.811v-17.236h10.556c0.102,0.281,0.178,0.816,0.178,1.531
				c0,0.561-0.051,1.045-0.178,1.579h-6.91v3.724h5.839c0.102,0.281,0.178,0.791,0.178,1.504c0,0.562-0.051,1.021-0.178,1.556
				h-5.839v4.233h7.139c0.102,0.279,0.178,0.814,0.178,1.529C110.774,246.906,110.724,247.391,110.596,247.926z"/>
			<path fill="#1A2A4F" d="M127.729,247.926c-0.255,0.051-0.867,0.102-1.3,0.102c-0.433,0-0.867-0.024-1.275-0.102l-7.93-11.04
				v11.04c-0.204,0.051-0.969,0.129-1.683,0.129c-0.586,0-1.275-0.078-1.632-0.129v-17.236c0.408-0.075,0.893-0.102,1.352-0.102
				c0.484,0,0.995,0.051,1.377,0.102l7.777,10.838v-10.838c0.51-0.075,1.173-0.127,1.657-0.127c0.484,0,1.198,0.052,1.657,0.127
				V247.926z"/>
			<path fill="#1A2A4F" d="M143.253,233.8h-4.564v14.126c-0.484,0.076-1.173,0.129-1.81,0.129c-0.638,0-1.326-0.053-1.836-0.129
				V233.8h-4.564c-0.102-0.331-0.178-1.12-0.178-1.555s0.102-1.226,0.204-1.556h12.749c0.102,0.33,0.178,1.121,0.178,1.556
				S143.355,233.469,143.253,233.8z"/>
			<path fill="#1A2A4F" d="M162.475,234.284c-1.224-0.382-2.754-0.662-3.978-0.662c-2.906,0-4.794,2.065-4.794,5.762
				c0,3.392,1.479,5.609,4.77,5.609c1.223,0,2.601-0.255,3.823-0.638c0.179,0.459,0.308,1.174,0.308,1.709
				c0,0.434-0.025,0.969-0.078,1.197c-1.273,0.588-2.905,0.918-4.41,0.918c-5.481,0-8.184-3.313-8.184-8.72
				c0-5.253,2.907-9.026,8.336-9.026c1.326,0,3.061,0.332,4.283,0.867c0.077,0.256,0.104,0.815,0.104,1.147
				C162.652,233.239,162.551,233.979,162.475,234.284z"/>
			<path fill="#1A2A4F" d="M171.881,248.182c-4.717,0-7.216-3.265-7.216-8.873c0-5.609,2.499-8.873,7.216-8.873
				s7.217,3.264,7.217,8.873C179.098,244.917,176.598,248.182,171.881,248.182z M171.881,233.57c-2.193,0-3.441,1.684-3.441,5.736
				s1.248,5.737,3.441,5.737c2.192,0,3.442-1.685,3.442-5.737S174.073,233.57,171.881,233.57z"/>
			<path fill="#1A2A4F" d="M195.387,241.373c0,4.386-1.683,6.809-6.578,6.809c-4.945,0-6.502-2.423-6.502-6.809v-10.684
				c0.51-0.076,1.174-0.127,1.785-0.127c0.715,0,1.352,0.051,1.861,0.127v10.938c0,2.346,0.662,3.672,2.881,3.672
				c2.218,0,2.982-1.326,2.982-3.672v-10.938c0.459-0.076,1.225-0.127,1.811-0.127c0.562,0,1.326,0.051,1.76,0.127V241.373
				L195.387,241.373z"/>
			<path fill="#1A2A4F" d="M213.182,247.926c-0.256,0.051-0.867,0.102-1.301,0.102s-0.867-0.024-1.275-0.102l-7.93-11.04v11.04
				c-0.203,0.051-0.969,0.129-1.683,0.129c-0.586,0-1.274-0.078-1.632-0.129v-17.236c0.408-0.075,0.893-0.102,1.352-0.102
				c0.484,0,0.994,0.051,1.377,0.102l7.776,10.838v-10.838c0.51-0.075,1.173-0.127,1.657-0.127c0.483,0,1.199,0.052,1.656,0.127
				v17.236H213.182z"/>
			<path fill="#1A2A4F" d="M228.706,233.8h-4.563v14.126c-0.483,0.076-1.172,0.129-1.811,0.129s-1.326-0.053-1.836-0.129V233.8
				h-4.562c-0.104-0.331-0.18-1.12-0.18-1.555s0.102-1.226,0.204-1.556h12.748c0.103,0.33,0.179,1.121,0.179,1.556
				S228.809,233.469,228.706,233.8z"/>
			<path fill="#1A2A4F" d="M244.154,247.9c-0.662,0.102-1.352,0.152-2.143,0.152c-0.714,0-1.428-0.025-1.912-0.128l-3.492-6.196
				h-1.504v6.196c-0.639,0.103-1.174,0.128-1.861,0.128c-0.612,0-1.146-0.025-1.785-0.128v-17.235
				c1.173-0.076,3.621-0.127,5.1-0.127c4.336,0,6.502,1.528,6.502,5.506c0,2.117-1.274,4.232-3.06,4.998L244.154,247.9z
				 M236.786,233.545c-0.562,0-1.249,0.025-1.683,0.053v5.098h1.273c2.091,0,3.01-0.764,3.01-2.65
				C239.387,234.159,238.469,233.545,236.786,233.545z"/>
			<path fill="#1A2A4F" d="M250.654,247.926c-0.484,0.076-1.071,0.129-1.836,0.129c-0.688,0-1.326-0.053-1.812-0.129v-17.236
				c0.484-0.075,1.199-0.127,1.836-0.127c0.714,0,1.353,0.052,1.812,0.127V247.926z"/>
			<path fill="#1A2A4F" d="M265.568,247.926h-10.785v-17.236h10.556c0.103,0.281,0.179,0.816,0.179,1.531
				c0,0.561-0.051,1.045-0.179,1.579h-6.909v3.724h5.84c0.102,0.281,0.178,0.791,0.178,1.504c0,0.562-0.051,1.021-0.178,1.556h-5.84
				v4.233h7.139c0.104,0.279,0.18,0.814,0.18,1.529C265.747,246.906,265.695,247.391,265.568,247.926z"/>
			<path fill="#1A2A4F" d="M273.573,248.182c-1.861,0-3.9-0.356-5.354-1.021c-0.076-0.356-0.127-0.815-0.127-1.226
				c0-0.61,0.076-1.197,0.256-1.887c1.504,0.612,3.492,0.995,5.049,0.995c1.81,0,2.777-0.842,2.777-1.989
				c0-1.273-0.814-1.811-3.289-2.574c-2.753-0.842-4.768-2.168-4.768-5.125c0-3.162,2.729-4.922,6.322-4.922
				c1.658,0,3.137,0.256,4.131,0.586c0.076,0.281,0.128,0.74,0.128,1.403c0,0.484-0.052,1.224-0.152,1.632
				c-1.274-0.332-2.729-0.511-3.901-0.511c-1.912,0-2.957,0.638-2.957,1.657c0,1.199,0.942,1.684,3.237,2.396
				c2.755,0.866,4.794,2.168,4.794,5.228C279.719,246.166,277.092,248.182,273.573,248.182z"/>
		</g>
	</g>
</g>
<g id="Layer_2">
	<g>
		<path fill="#1A2A4F" d="M87.224,199.735c-0.366,0.057-1.099,0.141-1.888,0.141c-0.76,0-1.521-0.084-2.028-0.141l-2.31-9.408
			c-0.254-0.985-0.395-2.056-0.507-2.985h-0.028c-0.084,0.93-0.31,2.027-0.535,2.985l-2.281,9.408
			c-0.507,0.057-1.296,0.141-2.028,0.141c-0.704,0-1.549-0.084-1.943-0.141l-4.253-13.943c-0.451-1.465-0.732-3.211-0.732-5.098
			c0.592-0.113,1.324-0.142,1.944-0.142c1.042,0,1.549,0.057,2,0.142c0,1.83,0.254,3.352,0.592,4.647l1.718,6.507
			c0.253,1.014,0.507,2.338,0.648,3.605h0.056c0.141-1.268,0.366-2.592,0.62-3.634l2.648-11.126
			c0.507-0.085,0.986-0.142,1.493-0.142c0.535,0,1.014,0.057,1.549,0.142l2.704,11.154c0.253,1.014,0.535,2.338,0.676,3.605h0.057
			c0.141-1.268,0.394-2.592,0.676-3.634l1.803-6.479c0.366-1.296,0.648-2.817,0.648-4.647c0.451-0.085,1.268-0.142,2.113-0.142
			c0.563,0,1.324,0.057,1.859,0.142c0,2.084-0.31,3.661-0.76,5.098L87.224,199.735z"/>
		<path fill="#1A2A4F" d="M106.798,193.764h-8.901c0.057,1.831,1.324,3.183,3.775,3.183c1.324,0,2.676-0.169,3.831-0.479
			c0.169,0.761,0.282,1.605,0.282,2.366c0,0.112,0,0.254-0.028,0.563c-1.437,0.423-2.929,0.619-4.394,0.619
			c-5.352,0-7.577-3.07-7.577-7.549c0-3.915,2.197-7.689,6.958-7.689c4.507,0,6.141,3.324,6.141,6.985
			C106.883,192.271,106.883,193.031,106.798,193.764z M102.996,190.976c0-1.775-0.479-3.268-2.31-3.268
			c-1.746,0-2.676,1.38-2.789,3.268H102.996z"/>
		<path fill="#1A2A4F" d="M131.331,199.735c-0.338,0.085-1.352,0.141-1.915,0.141c-0.592,0-1.465-0.056-1.775-0.141l-2.253-9.38
			h-0.056l-2.282,9.38c-0.282,0.057-1.352,0.141-1.859,0.141c-0.648,0-1.718-0.084-1.944-0.141l-3.098-10.366
			c-0.395-1.323-0.648-2.957-0.676-4.31c0.451-0.084,1.07-0.141,1.747-0.141c0.62,0,1.465,0.085,1.831,0.141
			c0,1.099,0.197,2.479,0.507,3.774l1.662,6.62h0.056l2.732-10.395c0.31-0.056,0.732-0.112,1.437-0.112
			c0.591,0,1.042,0.057,1.408,0.112l2.563,10.395h0.056l1.972-6.62c0.338-1.268,0.563-2.676,0.563-3.774
			c0.366-0.056,1.211-0.141,1.831-0.141c0.676,0,1.239,0.057,1.69,0.141c-0.028,1.465-0.226,2.563-0.648,3.859L131.331,199.735z"/>
		<path fill="#1A2A4F" d="M150.202,193.764h-8.901c0.057,1.831,1.324,3.183,3.774,3.183c1.324,0,2.676-0.169,3.831-0.479
			c0.169,0.761,0.281,1.605,0.281,2.366c0,0.112,0,0.254-0.027,0.563c-1.437,0.423-2.93,0.619-4.395,0.619
			c-5.352,0-7.577-3.07-7.577-7.549c0-3.915,2.197-7.689,6.957-7.689c4.507,0,6.141,3.324,6.141,6.985
			C150.286,192.271,150.286,193.031,150.202,193.764z M146.399,190.976c0-1.775-0.479-3.268-2.31-3.268
			c-1.747,0-2.676,1.38-2.789,3.268H146.399z"/>
		<path fill="#1A2A4F" d="M157.158,199.735c-0.507,0.112-1.549,0.141-1.999,0.141c-0.677,0-1.409-0.056-1.888-0.141v-20.534
			c0.62-0.085,1.38-0.141,1.888-0.141c0.676,0,1.464,0.056,1.999,0.141V199.735z"/>
		<path fill="#1A2A4F" d="M171.41,186.638c0,0.619-0.084,1.295-0.281,1.887c-0.93-0.366-2.141-0.592-3.296-0.592
			c-2.196,0-3.689,1.409-3.689,4.563c0,2.761,1.268,4.366,3.718,4.366c1.268,0,2.479-0.226,3.38-0.535
			c0.169,0.619,0.254,1.38,0.254,1.972c0,0.395,0,0.676-0.028,0.93c-1.127,0.507-2.619,0.788-4.027,0.788
			c-4.873,0-7.296-2.845-7.296-7.464c0-4.789,2.535-7.774,7.465-7.774c1.38,0,2.731,0.281,3.689,0.732
			C171.383,185.82,171.41,186.215,171.41,186.638z"/>
		<path fill="#1A2A4F" d="M180.226,200.017c-4.253,0-6.957-2.731-6.957-7.577c0-4.816,2.676-7.661,6.957-7.661
			c4.282,0,6.958,2.816,6.958,7.634C187.184,197.229,184.508,200.017,180.226,200.017z M180.226,187.82
			c-1.83,0-2.957,1.239-2.957,4.592c0,3.352,1.127,4.562,2.957,4.562c1.831,0,2.958-1.211,2.958-4.562
			C183.184,189.031,182.057,187.82,180.226,187.82z"/>
		<path fill="#1A2A4F" d="M212.111,199.735c-0.45,0.112-1.408,0.141-1.859,0.141c-0.479,0-1.577-0.056-2.027-0.141v-8.845
			c0-1.07-0.028-1.859-0.423-2.338c-0.366-0.45-0.93-0.62-1.634-0.62c-0.958,0-2.31,0.423-3.183,0.958
			c0.028,0.479,0.056,0.958,0.056,1.521v9.323c-0.45,0.112-1.408,0.141-1.858,0.141c-0.479,0-1.577-0.056-2.028-0.141v-8.845
			c0-1.07-0.028-1.859-0.423-2.338c-0.366-0.45-0.929-0.62-1.634-0.62c-0.985,0-2.253,0.395-3.126,0.93v10.873
			c-0.648,0.112-1.55,0.141-2.057,0.141c-0.45,0-1.268-0.028-1.831-0.141V185.06c0.366-0.084,1.268-0.141,1.69-0.141
			c0.395,0,1.211,0.057,1.634,0.141l0.169,1.324c1.239-0.93,3.014-1.605,4.591-1.605c1.634,0,3.07,0.563,4.169,1.774
			c1.521-1.042,3.353-1.774,5.211-1.774c1.381,0,2.789,0.563,3.493,1.408c0.873,1.042,1.07,2.395,1.07,4.45V199.735z"/>
		<path fill="#1A2A4F" d="M227.996,193.764h-8.901c0.057,1.831,1.324,3.183,3.774,3.183c1.324,0,2.676-0.169,3.831-0.479
			c0.169,0.761,0.281,1.605,0.281,2.366c0,0.112,0,0.254-0.027,0.563c-1.437,0.423-2.93,0.619-4.395,0.619
			c-5.352,0-7.577-3.07-7.577-7.549c0-3.915,2.197-7.689,6.957-7.689c4.507,0,6.141,3.324,6.141,6.985
			C228.08,192.271,228.08,193.031,227.996,193.764z M224.193,190.976c0-1.775-0.479-3.268-2.31-3.268
			c-1.747,0-2.676,1.38-2.789,3.268H224.193z"/>
	</g>
	<g>
		<path fill="#BBA461" d="M21.195,208.72c-1.052,0-1.903-0.852-1.903-1.903s0.852-1.903,1.903-1.903s1.903,0.852,1.903,1.903
			S22.247,208.72,21.195,208.72z M22.922,223.192c-0.451,0.101-1.377,0.125-1.778,0.125c-0.601,0-1.252-0.05-1.678-0.125v-13.046
			c0.551-0.075,1.227-0.125,1.678-0.125c0.601,0,1.227,0.05,1.778,0.125V223.192z"/>
		<path fill="#BBA461" d="M37.92,223.192c-0.4,0.101-1.252,0.125-1.652,0.125c-0.426,0-1.402-0.05-1.803-0.125v-8.563
			c0-1.353-0.701-1.928-1.828-1.928c-0.901,0-1.928,0.325-2.729,0.826v9.665c-0.576,0.101-1.377,0.125-1.828,0.125
			c-0.401,0-1.127-0.024-1.628-0.125v-13.046c0.326-0.075,1.127-0.125,1.502-0.125c0.351,0,1.077,0.05,1.453,0.125l0.175,1.152
			c1.126-0.826,2.754-1.402,4.207-1.402c2.754,0,4.131,1.702,4.131,4.557V223.192z"/>
		<path fill="#BBA461" d="M49.486,222.942c-0.751,0.3-1.652,0.5-3.105,0.5c-2.829,0-4.231-1.377-4.231-4.131v-6.586h-2.153
			c-0.1-0.375-0.175-1.001-0.175-1.327c0-0.3,0.075-0.852,0.15-1.102l2.179-0.15v-3.355c0.275-0.05,1.152-0.1,1.728-0.1
			c0.626,0,1.402,0.05,1.728,0.1v3.355h3.605c0.1,0.351,0.15,0.852,0.15,1.127c0,0.301-0.025,1.102-0.125,1.452h-3.63v6.085
			c0,1.252,0.5,1.803,1.728,1.803c0.676,0,1.502-0.101,2.078-0.301c0.101,0.326,0.226,0.952,0.226,1.527
			C49.637,222.141,49.586,222.667,49.486,222.942z"/>
		<path fill="#BBA461" d="M62.731,217.884h-7.913c0.05,1.628,1.177,2.83,3.355,2.83c1.177,0,2.378-0.15,3.405-0.426
			c0.15,0.676,0.25,1.427,0.25,2.103c0,0.101,0,0.226-0.025,0.501c-1.277,0.376-2.604,0.551-3.906,0.551
			c-4.758,0-6.736-2.729-6.736-6.71c0-3.48,1.953-6.836,6.185-6.836c4.006,0,5.459,2.954,5.459,6.21
			C62.806,216.557,62.806,217.233,62.731,217.884z M59.351,215.405c0-1.578-0.426-2.905-2.053-2.905
			c-1.553,0-2.379,1.228-2.479,2.905H59.351z"/>
		<path fill="#BBA461" d="M72.82,212.801c-1.302,0.2-2.705,0.651-3.957,1.302v9.09c-0.351,0.075-1.102,0.125-1.703,0.125
			s-1.477-0.05-1.753-0.125v-13.046c0.376-0.05,1.002-0.125,1.502-0.125c0.426,0,1.102,0.05,1.453,0.125l0.2,1.603
			c0.926-0.826,2.604-1.728,4.231-1.853c0.05,0.2,0.101,0.927,0.101,1.452C72.896,211.85,72.87,212.45,72.82,212.801z"/>
		<path fill="#BBA461" d="M86.966,223.192c-0.4,0.101-1.252,0.125-1.652,0.125c-0.426,0-1.402-0.05-1.803-0.125v-8.563
			c0-1.353-0.701-1.928-1.828-1.928c-0.901,0-1.928,0.325-2.729,0.826v9.665c-0.576,0.101-1.377,0.125-1.828,0.125
			c-0.401,0-1.127-0.024-1.628-0.125v-13.046c0.326-0.075,1.127-0.125,1.502-0.125c0.351,0,1.077,0.05,1.453,0.125l0.175,1.152
			c1.126-0.826,2.754-1.402,4.207-1.402c2.754,0,4.131,1.702,4.131,4.557V223.192z"/>
		<path fill="#BBA461" d="M100.661,219.562c0,1.077,0.025,2.304,0.025,3.631c-0.4,0.101-1.077,0.125-1.502,0.125
			c-0.476,0-1.102-0.05-1.502-0.125c-0.05-0.301-0.1-0.826-0.125-1.151h-0.05c-0.852,0.876-2.304,1.401-3.631,1.401
			c-2.504,0-4.307-1.552-4.307-4.131c0-4.007,3.556-4.683,6.535-4.683c0.2,0,0.676,0.025,1.077,0.05c0-0.15-0.025-0.476-0.05-0.601
			c-0.175-1.026-0.851-1.452-2.303-1.452c-1.127,0-2.705,0.225-3.906,0.525c-0.125-0.351-0.201-0.951-0.201-1.402
			c0-0.375,0.05-0.951,0.15-1.202c1.402-0.425,3.13-0.65,4.557-0.65c3.13,0,5.233,1.452,5.233,4.707V219.562z M97.205,217.083
			c-0.3-0.025-0.701-0.051-1.051-0.051c-2.254,0-3.13,0.901-3.13,2.028c0,0.977,0.651,1.653,1.778,1.653
			c0.827,0,1.753-0.401,2.404-0.977V217.083z"/>
		<path fill="#BBA461" d="M112.152,222.942c-0.751,0.3-1.652,0.5-3.105,0.5c-2.829,0-4.231-1.377-4.231-4.131v-6.586h-2.153
			c-0.1-0.375-0.175-1.001-0.175-1.327c0-0.3,0.075-0.852,0.15-1.102l2.179-0.15v-3.355c0.275-0.05,1.152-0.1,1.728-0.1
			c0.626,0,1.402,0.05,1.728,0.1v3.355h3.605c0.1,0.351,0.15,0.852,0.15,1.127c0,0.301-0.025,1.102-0.125,1.452h-3.63v6.085
			c0,1.252,0.5,1.803,1.728,1.803c0.676,0,1.502-0.101,2.078-0.301c0.101,0.326,0.226,0.952,0.226,1.527
			C112.302,222.141,112.252,222.667,112.152,222.942z"/>
		<path fill="#BBA461" d="M116.733,208.72c-1.052,0-1.903-0.852-1.903-1.903s0.852-1.903,1.903-1.903s1.903,0.852,1.903,1.903
			S117.785,208.72,116.733,208.72z M118.46,223.192c-0.451,0.101-1.377,0.125-1.778,0.125c-0.601,0-1.252-0.05-1.678-0.125v-13.046
			c0.551-0.075,1.227-0.125,1.678-0.125c0.601,0,1.227,0.05,1.778,0.125V223.192z"/>
		<path fill="#BBA461" d="M127.423,223.442c-3.781,0-6.185-2.429-6.185-6.735c0-4.281,2.379-6.811,6.185-6.811
			c3.806,0,6.185,2.504,6.185,6.785C133.608,220.964,131.229,223.442,127.423,223.442z M127.423,212.601
			c-1.627,0-2.629,1.102-2.629,4.081c0,2.98,1.001,4.057,2.629,4.057c1.628,0,2.629-1.076,2.629-4.057
			C130.053,213.678,129.051,212.601,127.423,212.601z"/>
		<path fill="#BBA461" d="M147.654,223.192c-0.401,0.101-1.252,0.125-1.653,0.125c-0.426,0-1.402-0.05-1.803-0.125v-8.563
			c0-1.353-0.701-1.928-1.828-1.928c-0.901,0-1.928,0.325-2.729,0.826v9.665c-0.576,0.101-1.378,0.125-1.828,0.125
			c-0.401,0-1.127-0.024-1.628-0.125v-13.046c0.326-0.075,1.127-0.125,1.503-0.125c0.351,0,1.076,0.05,1.452,0.125l0.175,1.152
			c1.127-0.826,2.755-1.402,4.207-1.402c2.754,0,4.132,1.702,4.132,4.557V223.192z"/>
		<path fill="#BBA461" d="M161.349,219.562c0,1.077,0.024,2.304,0.024,3.631c-0.4,0.101-1.076,0.125-1.502,0.125
			c-0.476,0-1.102-0.05-1.503-0.125c-0.05-0.301-0.1-0.826-0.125-1.151h-0.05c-0.852,0.876-2.304,1.401-3.631,1.401
			c-2.504,0-4.307-1.552-4.307-4.131c0-4.007,3.556-4.683,6.535-4.683c0.2,0,0.676,0.025,1.077,0.05c0-0.15-0.025-0.476-0.051-0.601
			c-0.175-1.026-0.852-1.452-2.304-1.452c-1.127,0-2.704,0.225-3.906,0.525c-0.125-0.351-0.2-0.951-0.2-1.402
			c0-0.375,0.051-0.951,0.15-1.202c1.402-0.425,3.13-0.65,4.558-0.65c3.13,0,5.233,1.452,5.233,4.707V219.562z M157.893,217.083
			c-0.301-0.025-0.701-0.051-1.052-0.051c-2.253,0-3.13,0.901-3.13,2.028c0,0.977,0.651,1.653,1.778,1.653
			c0.826,0,1.753-0.401,2.403-0.977V217.083z"/>
		<path fill="#BBA461" d="M168.183,223.192c-0.45,0.101-1.377,0.125-1.777,0.125c-0.601,0-1.252-0.05-1.678-0.125v-18.254
			c0.551-0.075,1.227-0.125,1.678-0.125c0.601,0,1.302,0.05,1.777,0.125V223.192z"/>
	</g>
	<g>
		<path fill="#BBA461" d="M183.229,223.456c-1.477,0-3.029-0.225-4.231-0.626c-0.075-0.375-0.1-0.851-0.1-1.352
			c0-0.4,0.1-0.977,0.2-1.327c1.151,0.4,2.804,0.676,3.78,0.676c1.353,0,2.129-0.45,2.129-1.377c0-0.802-0.626-1.177-2.278-1.703
			c-2.63-0.826-3.856-2.053-3.856-3.956c0-2.829,2.604-3.881,5.083-3.881c1.151,0,2.429,0.2,3.306,0.476
			c0.1,0.376,0.149,0.901,0.149,1.202c0,0.325-0.1,1.001-0.225,1.427c-0.852-0.25-2.028-0.45-3.005-0.45
			c-1.202,0-2.028,0.3-2.028,1.052c0,0.801,0.927,1.126,2.379,1.603c2.528,0.826,3.73,1.878,3.73,3.855
			C188.262,222.129,185.808,223.456,183.229,223.456z"/>
		<path fill="#BBA461" d="M198.802,222.956c-0.751,0.3-1.652,0.5-3.104,0.5c-2.83,0-4.232-1.377-4.232-4.131v-6.586h-2.153
			c-0.1-0.375-0.175-1.001-0.175-1.327c0-0.3,0.075-0.852,0.15-1.102l2.178-0.15v-3.355c0.275-0.05,1.152-0.1,1.729-0.1
			c0.626,0,1.402,0.05,1.728,0.1v3.355h3.605c0.101,0.351,0.15,0.852,0.15,1.127c0,0.301-0.025,1.102-0.125,1.452h-3.631v6.085
			c0,1.252,0.501,1.803,1.728,1.803c0.676,0,1.502-0.101,2.078-0.301c0.101,0.326,0.226,0.952,0.226,1.527
			C198.952,222.154,198.902,222.681,198.802,222.956z"/>
		<path fill="#BBA461" d="M212.371,218.173c0,3.731-1.752,5.283-5.658,5.283c-3.807,0-5.56-1.552-5.56-5.283v-8.013
			c0.351-0.05,1.027-0.125,1.703-0.125c0.601,0,1.353,0.05,1.753,0.125v7.988c0,1.953,0.576,2.654,2.153,2.654
			c1.603,0,2.153-0.701,2.153-2.654v-7.988c0.351-0.075,1.127-0.125,1.753-0.125s1.452,0.075,1.702,0.125V218.173z"/>
		<path fill="#BBA461" d="M226.743,223.206c-0.4,0.075-1.077,0.125-1.603,0.125c-0.476,0-1.026-0.05-1.377-0.125l-0.101-1.151
			c-0.901,0.876-2.053,1.401-3.405,1.401c-3.73,0-5.334-2.979-5.334-6.56c0-3.856,1.729-6.986,5.71-6.986
			c0.977,0,2.103,0.301,2.653,0.65v-5.608c0.451-0.075,1.202-0.125,1.753-0.125c0.677,0,1.202,0.075,1.703,0.125V223.206z
			 M223.287,213.14c-0.601-0.275-1.377-0.425-2.027-0.425c-2.028,0-2.78,1.803-2.78,3.98c0,1.828,0.451,3.906,2.479,3.906
			c0.977,0,1.728-0.4,2.328-0.901V213.14z"/>
		<path fill="#BBA461" d="M240.838,217.897h-7.912c0.05,1.628,1.177,2.83,3.355,2.83c1.177,0,2.379-0.15,3.405-0.426
			c0.15,0.676,0.25,1.427,0.25,2.103c0,0.101,0,0.226-0.024,0.501c-1.277,0.376-2.604,0.551-3.906,0.551
			c-4.758,0-6.736-2.729-6.736-6.71c0-3.48,1.953-6.836,6.186-6.836c4.006,0,5.458,2.954,5.458,6.21
			C240.913,216.57,240.913,217.247,240.838,217.897z M237.458,215.419c0-1.578-0.426-2.905-2.054-2.905
			c-1.552,0-2.378,1.228-2.479,2.905H237.458z"/>
		<path fill="#BBA461" d="M254.984,223.206c-0.4,0.101-1.252,0.125-1.652,0.125c-0.426,0-1.402-0.05-1.803-0.125v-8.563
			c0-1.353-0.701-1.928-1.828-1.928c-0.901,0-1.928,0.325-2.729,0.826v9.665c-0.576,0.101-1.377,0.125-1.828,0.125
			c-0.4,0-1.126-0.024-1.627-0.125V210.16c0.325-0.075,1.127-0.125,1.502-0.125c0.351,0,1.077,0.05,1.452,0.125l0.176,1.152
			c1.127-0.826,2.754-1.402,4.206-1.402c2.755,0,4.132,1.702,4.132,4.557V223.206z"/>
		<path fill="#BBA461" d="M266.551,222.956c-0.751,0.3-1.652,0.5-3.104,0.5c-2.83,0-4.232-1.377-4.232-4.131v-6.586h-2.153
			c-0.1-0.375-0.175-1.001-0.175-1.327c0-0.3,0.075-0.852,0.15-1.102l2.178-0.15v-3.355c0.275-0.05,1.152-0.1,1.729-0.1
			c0.626,0,1.401,0.05,1.728,0.1v3.355h3.605c0.101,0.351,0.15,0.852,0.15,1.127c0,0.301-0.025,1.102-0.125,1.452h-3.631v6.085
			c0,1.252,0.501,1.803,1.728,1.803c0.676,0,1.502-0.101,2.078-0.301c0.101,0.326,0.226,0.952,0.226,1.527
			C266.701,222.154,266.651,222.681,266.551,222.956z"/>
		<path fill="#BBA461" d="M273.384,223.456c-1.477,0-3.029-0.225-4.231-0.626c-0.075-0.375-0.1-0.851-0.1-1.352
			c0-0.4,0.1-0.977,0.2-1.327c1.151,0.4,2.804,0.676,3.78,0.676c1.353,0,2.129-0.45,2.129-1.377c0-0.802-0.626-1.177-2.278-1.703
			c-2.63-0.826-3.856-2.053-3.856-3.956c0-2.829,2.604-3.881,5.083-3.881c1.151,0,2.429,0.2,3.306,0.476
			c0.1,0.376,0.149,0.901,0.149,1.202c0,0.325-0.1,1.001-0.225,1.427c-0.852-0.25-2.028-0.45-3.005-0.45
			c-1.202,0-2.028,0.3-2.028,1.052c0,0.801,0.927,1.126,2.379,1.603c2.528,0.826,3.73,1.878,3.73,3.855
			C278.417,222.129,275.963,223.456,273.384,223.456z"/>
	</g>
	<g>
		<path fill="#1A2A4F" d="M29.766,233.771h-6.949v3.813h5.852c0.104,0.287,0.183,0.81,0.183,1.541c0,0.575-0.053,1.045-0.183,1.594
			h-5.852v7.523c-0.497,0.078-1.071,0.131-1.855,0.131c-0.705,0-1.384-0.053-1.881-0.131v-17.659h10.685
			c0.104,0.287,0.183,0.836,0.183,1.567C29.948,232.727,29.896,233.223,29.766,233.771z"/>
		<path fill="#1A2A4F" d="M46.013,248.217c-0.679,0.104-1.384,0.157-2.194,0.157c-0.731,0-1.463-0.026-1.959-0.131l-3.579-6.348
			h-1.541v6.348c-0.653,0.104-1.202,0.131-1.907,0.131c-0.627,0-1.175-0.026-1.828-0.131v-17.659
			c1.201-0.078,3.709-0.131,5.225-0.131c4.44,0,6.661,1.567,6.661,5.643c0,2.168-1.306,4.337-3.135,5.12L46.013,248.217z
			 M38.463,233.51c-0.575,0-1.28,0.026-1.724,0.053v5.225h1.306c2.142,0,3.083-0.784,3.083-2.717
			C41.128,234.137,40.188,233.51,38.463,233.51z"/>
		<path fill="#1A2A4F" d="M54.92,248.504c-4.833,0-7.393-3.344-7.393-9.09c0-5.748,2.56-9.092,7.393-9.092
			c4.833,0,7.393,3.344,7.393,9.092C62.312,245.16,59.752,248.504,54.92,248.504z M54.92,233.536c-2.247,0-3.527,1.724-3.527,5.878
			c0,4.153,1.28,5.877,3.527,5.877c2.246,0,3.526-1.724,3.526-5.877C58.446,235.26,57.166,233.536,54.92,233.536z"/>
		<path fill="#1A2A4F" d="M83.288,248.243c-0.313,0.078-1.019,0.131-1.75,0.131c-0.784,0-1.515-0.079-1.829-0.131l-0.313-10.606
			l-3.866,8.935c-0.287,0.104-0.914,0.157-1.306,0.157c-0.47,0-1.045-0.053-1.333-0.131l-3.866-8.961l-0.339,10.606
			c-0.339,0.078-1.149,0.131-1.855,0.131c-0.418,0-1.123-0.053-1.593-0.131l0.757-17.659c0.497-0.053,0.993-0.131,1.516-0.131
			c0.627,0,1.228,0.053,1.541,0.131l5.172,11.99l5.199-11.99c0.522-0.078,1.045-0.131,1.515-0.131c0.601,0,1.149,0.053,1.542,0.131
			L83.288,248.243z"/>
		<path fill="#1A2A4F" d="M110.767,248.243c-0.313,0.078-1.019,0.131-1.75,0.131c-0.784,0-1.515-0.079-1.829-0.131l-0.313-10.606
			l-3.866,8.935c-0.288,0.104-0.915,0.157-1.306,0.157c-0.47,0-1.045-0.053-1.332-0.131l-3.866-8.961l-0.34,10.606
			c-0.34,0.078-1.149,0.131-1.854,0.131c-0.418,0-1.124-0.053-1.594-0.131l0.758-17.659c0.496-0.053,0.992-0.131,1.515-0.131
			c0.627,0,1.228,0.053,1.542,0.131l5.172,11.99l5.198-11.99c0.522-0.078,1.045-0.131,1.516-0.131c0.601,0,1.149,0.053,1.541,0.131
			L110.767,248.243z"/>
		<path fill="#1A2A4F" d="M121.084,248.504c-4.833,0-7.393-3.344-7.393-9.09c0-5.748,2.56-9.092,7.393-9.092
			c4.833,0,7.393,3.344,7.393,9.092C128.477,245.16,125.917,248.504,121.084,248.504z M121.084,233.536
			c-2.246,0-3.526,1.724-3.526,5.878c0,4.153,1.28,5.877,3.526,5.877c2.247,0,3.527-1.724,3.527-5.877
			C124.611,235.26,123.331,233.536,121.084,233.536z"/>
		<path fill="#1A2A4F" d="M144.594,248.217c-0.68,0.104-1.385,0.157-2.194,0.157c-0.731,0-1.463-0.026-1.96-0.131l-3.578-6.348
			h-1.542v6.348c-0.653,0.104-1.202,0.131-1.907,0.131c-0.627,0-1.176-0.026-1.829-0.131v-17.659
			c1.202-0.078,3.71-0.131,5.225-0.131c4.441,0,6.662,1.567,6.662,5.643c0,2.168-1.307,4.337-3.135,5.12L144.594,248.217z
			 M137.044,233.51c-0.575,0-1.28,0.026-1.724,0.053v5.225h1.306c2.142,0,3.083-0.784,3.083-2.717
			C139.709,234.137,138.768,233.51,137.044,233.51z"/>
		<path fill="#1A2A4F" d="M158.281,248.243H147.23v-17.659h10.815c0.104,0.287,0.183,0.836,0.183,1.567
			c0,0.575-0.053,1.071-0.183,1.62h-7.079v3.813h5.981c0.104,0.287,0.183,0.81,0.183,1.541c0,0.575-0.052,1.045-0.183,1.594h-5.981
			v4.337h7.314c0.104,0.287,0.183,0.836,0.183,1.566C158.464,247.198,158.411,247.694,158.281,248.243z"/>
		<path fill="#1A2A4F" d="M177.74,233.771h-4.676v14.472c-0.496,0.078-1.202,0.131-1.855,0.131c-0.652,0-1.357-0.053-1.881-0.131
			v-14.472h-4.676c-0.104-0.34-0.183-1.15-0.183-1.594c0-0.444,0.104-1.254,0.209-1.594h13.062c0.104,0.34,0.183,1.149,0.183,1.594
			C177.923,232.621,177.845,233.432,177.74,233.771z"/>
		<path fill="#1A2A4F" d="M193.91,248.243c-0.471,0.078-1.123,0.131-1.854,0.131s-1.385-0.053-1.881-0.131v-7.314h-6.14v7.314
			c-0.496,0.078-1.07,0.131-1.854,0.131c-0.705,0-1.384-0.053-1.881-0.131v-17.659c0.497-0.078,1.228-0.131,1.881-0.131
			c0.731,0,1.385,0.053,1.854,0.131v7.158h6.14v-7.158c0.574-0.078,1.228-0.131,1.881-0.131c0.627,0,1.41,0.053,1.854,0.131V248.243
			z"/>
		<path fill="#1A2A4F" d="M212.639,248.243c-0.34,0.078-1.15,0.131-2.012,0.131c-0.68,0-1.463-0.079-1.803-0.131l-1.307-3.579h-6.27
			l-1.228,3.579c-0.574,0.078-1.254,0.131-1.933,0.131c-0.68,0-1.463-0.053-1.855-0.131l6.166-17.659
			c0.365-0.078,1.228-0.131,1.802-0.131c0.706,0,1.542,0.053,1.829,0.131L212.639,248.243z M206.395,241.556l-1.541-4.989
			c-0.183-0.575-0.365-1.307-0.522-2.116h-0.052c-0.131,0.81-0.34,1.541-0.523,2.116l-1.463,4.989H206.395z"/>
		<path fill="#1A2A4F" d="M229.121,248.243c-0.262,0.052-0.889,0.104-1.332,0.104c-0.444,0-0.889-0.026-1.307-0.104l-8.124-11.312
			v11.312c-0.209,0.052-0.993,0.131-1.725,0.131c-0.601,0-1.306-0.079-1.672-0.131v-17.659c0.418-0.078,0.915-0.104,1.385-0.104
			c0.496,0,1.019,0.052,1.411,0.104l7.967,11.103v-11.103c0.522-0.078,1.202-0.131,1.698-0.131s1.228,0.053,1.698,0.131V248.243z"/>
	</g>
	<g>
		<path fill="#C2AD70" d="M247.409,248.243c-0.392,0.078-1.098,0.131-1.854,0.131c-0.732,0-1.385-0.053-1.855-0.131v-13.506
			l-3.709,2.456c-0.889-0.811-1.516-1.907-1.75-2.848l6.139-3.762c0.365-0.078,1.123-0.131,1.515-0.131
			c0.444,0,1.254,0.078,1.516,0.131V248.243z"/>
		<path fill="#C2AD70" d="M258.38,248.504c-4.18,0-6.218-3.082-6.218-9.09c0-6.061,2.116-9.092,6.296-9.092
			c4.153,0,6.191,3.031,6.191,9.092C264.649,245.422,262.533,248.504,258.38,248.504z M258.406,233.379
			c-1.672,0-2.404,1.541-2.404,6.035c0,4.414,0.732,6.034,2.404,6.034s2.402-1.62,2.402-6.034
			C260.809,234.92,260.078,233.379,258.406,233.379z"/>
		<path fill="#C2AD70" d="M272.693,248.504c-4.18,0-6.218-3.082-6.218-9.09c0-6.061,2.116-9.092,6.296-9.092
			c4.153,0,6.191,3.031,6.191,9.092C278.963,245.422,276.847,248.504,272.693,248.504z M272.719,233.379
			c-1.672,0-2.402,1.541-2.402,6.035c0,4.414,0.73,6.034,2.402,6.034s2.404-1.62,2.404-6.034
			C275.123,234.92,274.391,233.379,272.719,233.379z"/>
	</g>
	<g>
		<path fill="#1A2A4F" d="M30.126,270.213c-1.552,1.201-3.555,1.627-6.31,1.627c-1.402,0-3.781-0.05-4.583-0.125v-16.927
			c1.227-0.075,3.781-0.125,5.208-0.125c5.508,0,8.338,2.328,8.338,8.388C32.781,266.181,31.955,268.785,30.126,270.213z
			 M24.518,257.617c-0.676,0-1.427,0.025-1.703,0.051v11.143c0.326,0.024,1.077,0.05,1.853,0.05c3.155,0,4.407-2.003,4.407-5.859
			C29.075,258.77,27.773,257.617,24.518,257.617z"/>
		<path fill="#1A2A4F" d="M39.765,271.715c-0.476,0.075-1.052,0.125-1.803,0.125c-0.676,0-1.302-0.05-1.778-0.125v-16.927
			c0.476-0.075,1.177-0.125,1.803-0.125c0.701,0,1.327,0.05,1.778,0.125V271.715z"/>
		<path fill="#1A2A4F" d="M54.187,257.843h-6.661v3.656h5.609c0.1,0.275,0.175,0.775,0.175,1.477c0,0.552-0.05,1.002-0.175,1.528
			h-5.609v7.211c-0.476,0.075-1.026,0.125-1.778,0.125c-0.676,0-1.327-0.05-1.803-0.125v-16.927h10.241
			c0.1,0.275,0.175,0.801,0.175,1.502C54.362,256.841,54.312,257.317,54.187,257.843z"/>
		<path fill="#1A2A4F" d="M67.606,257.843h-6.661v3.656h5.609c0.1,0.275,0.175,0.775,0.175,1.477c0,0.552-0.05,1.002-0.175,1.528
			h-5.609v7.211c-0.476,0.075-1.026,0.125-1.778,0.125c-0.676,0-1.327-0.05-1.803-0.125v-16.927h10.241
			c0.1,0.275,0.175,0.801,0.175,1.502C67.781,256.841,67.731,257.317,67.606,257.843z"/>
		<path fill="#1A2A4F" d="M81.677,271.715H71.085v-16.927h10.367c0.1,0.275,0.175,0.801,0.175,1.502c0,0.551-0.05,1.027-0.175,1.553
			h-6.786v3.656H80.4c0.1,0.275,0.175,0.775,0.175,1.477c0,0.552-0.05,1.002-0.175,1.528h-5.734v4.156h7.011
			c0.1,0.275,0.175,0.801,0.175,1.502C81.852,270.713,81.802,271.189,81.677,271.715z"/>
		<path fill="#1A2A4F" d="M97.5,271.689c-0.651,0.101-1.327,0.15-2.103,0.15c-0.701,0-1.402-0.024-1.878-0.125l-3.43-6.085h-1.478
			v6.085c-0.626,0.101-1.152,0.125-1.828,0.125c-0.601,0-1.127-0.024-1.753-0.125v-16.927c1.152-0.075,3.556-0.125,5.008-0.125
			c4.257,0,6.385,1.502,6.385,5.408c0,2.078-1.252,4.156-3.005,4.908L97.5,271.689z M90.264,257.593
			c-0.551,0-1.227,0.024-1.653,0.05v5.008h1.252c2.053,0,2.955-0.751,2.955-2.604C92.818,258.193,91.916,257.593,90.264,257.593z"/>
		<path fill="#1A2A4F" d="M110.995,271.715h-10.592v-16.927h10.367c0.1,0.275,0.175,0.801,0.175,1.502
			c0,0.551-0.05,1.027-0.175,1.553h-6.786v3.656h5.734c0.1,0.275,0.175,0.775,0.175,1.477c0,0.552-0.05,1.002-0.175,1.528h-5.734
			v4.156h7.011c0.1,0.275,0.175,0.801,0.175,1.502C111.17,270.713,111.12,271.189,110.995,271.715z"/>
		<path fill="#1A2A4F" d="M127.945,271.715c-0.25,0.05-0.852,0.101-1.277,0.101s-0.851-0.025-1.252-0.101l-7.787-10.842v10.842
			c-0.201,0.05-0.952,0.125-1.653,0.125c-0.576,0-1.252-0.075-1.603-0.125v-16.927c0.401-0.075,0.876-0.101,1.327-0.101
			c0.476,0,0.977,0.051,1.352,0.101l7.637,10.642v-10.642c0.501-0.075,1.152-0.125,1.627-0.125c0.476,0,1.177,0.05,1.628,0.125
			V271.715z"/>
		<path fill="#1A2A4F" d="M143.317,257.843h-4.482v13.872c-0.476,0.075-1.151,0.125-1.778,0.125c-0.626,0-1.302-0.05-1.803-0.125
			v-13.872h-4.482c-0.1-0.325-0.175-1.102-0.175-1.527s0.101-1.202,0.201-1.527h12.52c0.1,0.325,0.175,1.102,0.175,1.527
			S143.417,257.518,143.317,257.843z"/>
		<path fill="#1A2A4F" d="M162.444,258.318c-1.201-0.375-2.704-0.65-3.906-0.65c-2.854,0-4.707,2.027-4.707,5.658
			c0,3.331,1.452,5.509,4.683,5.509c1.202,0,2.554-0.25,3.756-0.626c0.175,0.451,0.301,1.152,0.301,1.678
			c0,0.426-0.025,0.952-0.075,1.177c-1.252,0.576-2.854,0.901-4.332,0.901c-5.384,0-8.038-3.255-8.038-8.563
			c0-5.158,2.854-8.863,8.188-8.863c1.302,0,3.005,0.325,4.206,0.851c0.075,0.251,0.101,0.802,0.101,1.127
			C162.62,257.292,162.52,258.019,162.444,258.318z"/>
		<path fill="#1A2A4F" d="M171.782,271.965c-4.632,0-7.086-3.205-7.086-8.714c0-5.508,2.454-8.713,7.086-8.713
			c4.633,0,7.087,3.205,7.087,8.713C178.869,268.76,176.415,271.965,171.782,271.965z M171.782,257.617
			c-2.153,0-3.38,1.653-3.38,5.634c0,3.981,1.227,5.635,3.38,5.635c2.154,0,3.381-1.653,3.381-5.635
			C175.163,259.271,173.937,257.617,171.782,257.617z"/>
		<path fill="#1A2A4F" d="M194.992,265.279c0,4.308-1.653,6.686-6.461,6.686c-4.857,0-6.385-2.378-6.385-6.686v-10.491
			c0.501-0.075,1.152-0.125,1.753-0.125c0.701,0,1.327,0.05,1.828,0.125v10.742c0,2.304,0.65,3.605,2.829,3.605
			s2.93-1.302,2.93-3.605v-10.742c0.451-0.075,1.202-0.125,1.778-0.125c0.551,0,1.302,0.05,1.728,0.125V265.279z"/>
		<path fill="#1A2A4F" d="M212.618,271.715c-0.25,0.05-0.852,0.101-1.276,0.101c-0.426,0-0.852-0.025-1.252-0.101l-7.788-10.842
			v10.842c-0.2,0.05-0.951,0.125-1.652,0.125c-0.576,0-1.252-0.075-1.603-0.125v-16.927c0.4-0.075,0.876-0.101,1.327-0.101
			c0.476,0,0.977,0.051,1.353,0.101l7.637,10.642v-10.642c0.501-0.075,1.151-0.125,1.628-0.125c0.476,0,1.177,0.05,1.627,0.125
			V271.715z"/>
		<path fill="#1A2A4F" d="M227.99,257.843h-4.482v13.872c-0.476,0.075-1.151,0.125-1.777,0.125s-1.303-0.05-1.804-0.125v-13.872
			h-4.481c-0.101-0.325-0.176-1.102-0.176-1.527s0.101-1.202,0.2-1.527h12.521c0.1,0.325,0.175,1.102,0.175,1.527
			S228.09,257.518,227.99,257.843z"/>
		<path fill="#1A2A4F" d="M243.288,271.689c-0.651,0.101-1.327,0.15-2.104,0.15c-0.701,0-1.402-0.024-1.878-0.125l-3.431-6.085
			h-1.477v6.085c-0.626,0.101-1.152,0.125-1.828,0.125c-0.601,0-1.127-0.024-1.753-0.125v-16.927
			c1.152-0.075,3.556-0.125,5.008-0.125c4.257,0,6.386,1.502,6.386,5.408c0,2.078-1.253,4.156-3.005,4.908L243.288,271.689z
			 M236.052,257.593c-0.551,0-1.227,0.024-1.652,0.05v5.008h1.252c2.053,0,2.954-0.751,2.954-2.604
			C238.605,258.193,237.704,257.593,236.052,257.593z"/>
		<path fill="#1A2A4F" d="M249.796,271.715c-0.476,0.075-1.052,0.125-1.803,0.125c-0.676,0-1.302-0.05-1.778-0.125v-16.927
			c0.477-0.075,1.177-0.125,1.803-0.125c0.701,0,1.327,0.05,1.778,0.125V271.715z"/>
		<path fill="#1A2A4F" d="M264.568,271.715h-10.592v-16.927h10.366c0.101,0.275,0.176,0.801,0.176,1.502
			c0,0.551-0.051,1.027-0.176,1.553h-6.785v3.656h5.733c0.101,0.275,0.176,0.775,0.176,1.477c0,0.552-0.05,1.002-0.176,1.528h-5.733
			v4.156h7.011c0.101,0.275,0.176,0.801,0.176,1.502C264.744,270.713,264.693,271.189,264.568,271.715z"/>
		<path fill="#1A2A4F" d="M272.555,271.965c-1.828,0-3.831-0.351-5.259-1.001c-0.075-0.351-0.125-0.802-0.125-1.202
			c0-0.601,0.075-1.177,0.251-1.853c1.477,0.601,3.43,0.977,4.957,0.977c1.778,0,2.729-0.827,2.729-1.953
			c0-1.252-0.801-1.778-3.229-2.529c-2.705-0.826-4.683-2.129-4.683-5.033c0-3.104,2.679-4.832,6.21-4.832
			c1.627,0,3.08,0.25,4.056,0.575c0.075,0.275,0.126,0.727,0.126,1.377c0,0.477-0.051,1.202-0.15,1.604
			c-1.252-0.326-2.68-0.501-3.831-0.501c-1.878,0-2.904,0.626-2.904,1.627c0,1.177,0.926,1.653,3.18,2.354
			c2.704,0.851,4.707,2.128,4.707,5.133C278.589,269.987,276.01,271.965,272.555,271.965z"/>
	</g>
	<line fill="none" stroke="#BBA461" stroke-width="3.834" x1="18.443" y1="191.863" x2="61.78" y2="191.863"/>
	<line fill="none" stroke="#BBA461" stroke-width="3.834" x1="235.924" y1="191.863" x2="279.259" y2="191.863"/>
	<g>
		<path fill="#BBA461" d="M182.269,131.246c-4.43,10.444-10.614,19.731-18.483,27.979c13.505-3.157,24.878-9.787,34.273-19.857
			C193.029,136.146,187.83,133.425,182.269,131.246 M98.951,139.359c4.586,4.977,9.747,9.155,15.584,12.534
			c5.564,3.22,16.093,7.313,18.711,7.271c-7.927-8.211-14.102-17.503-18.521-27.921C109.156,133.433,103.967,136.145,98.951,139.359
			 M134.019,33.072c-13.85,3.029-25.491,9.723-35.083,20.01c5.146,3.278,10.41,6.04,16.044,8.211c2.311-5.275,5-10.255,8.216-14.962
			C126.412,41.625,130.005,37.213,134.019,33.072 M162.966,33.06c8.088,8.286,14.458,17.651,19.014,28.16
			c2.541-0.504,14.487-6.647,16-8.231C188.442,42.786,176.811,36.093,162.966,33.06 M175.264,63.663
			c-5.336-12.021-12.964-22.23-23.124-30.812v34.705C160.025,67.252,167.661,65.944,175.264,63.663 M144.872,32.854
			c-5.142,4.274-9.54,8.984-13.425,14.154c-3.877,5.161-7.09,10.691-9.668,16.574c3.708,1.738,20.253,4.48,23.094,3.842V32.854z
			 M152.144,124.891V160.3c10.35-8.763,18.083-19.185,23.384-31.436C167.849,126.533,160.117,125.196,152.144,124.891
			 M144.86,160.302v-35.413c-7.997,0.314-15.743,1.641-23.394,3.981C126.791,141.14,134.512,151.555,144.86,160.302 M144.867,74.56
			c-8.781-0.329-17.297-1.769-25.656-4.346c-2.482,7.34-3.878,14.791-4.26,22.471c0.3,0.021,0.493,0.042,0.685,0.042
			c9.518,0.004,19.034-0.003,28.552,0.016c0.597,0.001,0.74-0.186,0.736-0.738c-0.019-5.574-0.01-11.148-0.014-16.721
			C144.91,75.071,144.886,74.86,144.867,74.56 M152.085,74.781v0.624c0,5.501,0.011,11.004-0.017,16.505
			c-0.003,0.671,0.197,0.835,0.867,0.834c9.417-0.02,18.835-0.013,28.254-0.013h0.862c-0.403-7.755-1.783-15.214-4.205-22.321
			c-4.292,0.956-8.459,2.059-12.695,2.777C160.888,73.91,156.555,74.252,152.085,74.781 M152.129,117.887
			c8.836,0.327,17.423,1.792,25.869,4.41c2.424-7.378,3.761-14.845,4.078-22.537c-0.302-0.017-0.518-0.04-0.733-0.04
			c-9.496-0.001-18.991,0.004-28.489-0.013c-0.611-0.001-0.784,0.172-0.782,0.766c0.021,5.552,0.014,11.104,0.015,16.655
			C152.086,117.361,152.109,117.595,152.129,117.887 M118.998,122.302c8.452-2.631,17.041-4.083,25.916-4.421v-0.833
			c0-5.503-0.013-11.008,0.015-16.512c0.006-0.676-0.205-0.833-0.869-0.831c-9.447,0.019-18.895,0.013-28.341,0.014
			c-0.24,0-0.479,0.02-0.801,0.034C115.239,107.456,116.575,114.924,118.998,122.302 M189.25,99.759
			c-0.315,8.513-1.817,16.806-4.497,24.909c6.305,2.516,12.21,5.538,17.804,9.215c7.422-10.275,11.503-21.596,12.266-34.124H189.25z
			 M82.171,99.764c0.77,12.55,4.857,23.881,12.271,34.123c5.643-3.723,11.564-6.723,17.802-9.225
			c-2.701-8.138-4.178-16.417-4.503-24.898H82.171z M184.605,67.972c0.003,0.021,0.004,0.094,0.025,0.159
			c2.618,7.79,4.16,15.774,4.541,23.965c0.027,0.571,0.282,0.644,0.778,0.642c8.048-0.011,16.093-0.006,24.14-0.01
			c0.214,0,0.429-0.024,0.734-0.045c-0.773-12.551-4.856-23.883-12.188-34.004c-3.016,1.703-5.874,3.432-8.839,4.958
			C190.815,65.174,187.724,66.512,184.605,67.972 M94.438,58.56c-7.426,10.293-11.509,21.608-12.267,34.172h0.932
			c7.925,0,15.848-0.014,23.772,0.018c0.757,0.003,0.932-0.22,0.966-0.917c0.308-6.253,1.265-12.411,2.949-18.455
			c0.51-1.836,1.064-3.662,1.609-5.537C106.11,65.344,100.127,62.305,94.438,58.56 M222.103,96.222
			c-0.075,39.537-32.695,71.68-73.459,71.767c-40.616,0.086-73.493-31.805-73.752-71.48c-0.26-39.455,32.686-71.933,73.238-72.067
			C189.096,24.308,222.015,56.463,222.103,96.222"/>
	</g>
</g>
</svg>
