<?xml version="1.0" encoding="utf-8"?>
<!-- Generator: Adobe Illustrator 16.0.0, SVG Export Plug-In . SVG Version: 6.00 Build 0)  -->
<!DOCTYPE svg PUBLIC "-//W3C//DTD SVG 1.0//EN" "http://www.w3.org/TR/2001/REC-SVG-20010904/DTD/svg10.dtd">
<svg version="1.0" xmlns="http://www.w3.org/2000/svg" xmlns:xlink="http://www.w3.org/1999/xlink" x="0px" y="0px" width="300px"
	 height="300px" viewBox="0 0 300 300" style="enable-background:new 0 0 300 300;" xml:space="preserve">
<g id="People">
	<path style="fill:#1A2A4F;" d="M81.81,152.34v4.766H45.983V59.149h206.705v98.068c-0.676,0-1.256,0-1.833,0
		c-36.367,0-72.732,0-109.097,0.003c-1.669,0-3.339,0.07-5.005,0.013c-1.111-0.038-7.143-0.013-8.078-0.011
		c-10.354,0.033-20.71,0.006-31.066-0.005c-0.533,0-1.065,0-1.817,0c0-1.471-0.037-2.838,0.035-4.197
		c0.012-0.231,0.457-0.564,0.752-0.634c0.466-0.107,0.974-0.034,1.466-0.034c49.226,0,98.451,0,147.678,0h2.144V63.854H50.723
		v88.486H81.81z"/>
	<path style="fill:#1A2A4F;" d="M90.919,147.547c0.91,2.138,0.291,3.208-2.044,3.211c-2.438,0.001-4.925,0.082-7.302-0.362
		c-4.302-0.799-5.465-4.462-2.612-7.803c1.857-2.174,4.092-3.549,7.15-3.381c5.062,0.277,10.138,0.191,14.819-2.086
		c2.13-1.037,4.099-2.445,6.034-3.833c1.179-0.846,2.03-1.065,2.838-0.199c0.965,1.031,0.594,1.951-0.274,2.826
		c-3.412,3.435-7.719,5.099-12.28,6.238c-2.375,0.593-2.383,0.559-2.383,2.947c0,10.841,0.002,21.683-0.002,32.525
		c-0.003,2.123-0.725,3.159-2.295,3.369c-1.866,0.252-3.168-0.867-3.22-2.907c-0.063-2.462-0.02-4.927-0.02-7.391
		c-0.001-3.794,0.014-7.588-0.024-11.384c-0.004-0.391-0.327-0.779-0.501-1.167c-0.157,0.401-0.449,0.803-0.452,1.204
		c-0.03,6.11-0.018,12.221-0.023,18.33c-0.001,2.207-0.98,3.372-2.796,3.348c-1.729-0.019-2.771-1.217-2.773-3.281
		c-0.012-8.476-0.007-16.953,0-25.429c0-0.381,0.059-0.762,0.084-1.074h5.019c0.069,0.359,0.047,0.799,0.184,0.855
		c0.47,0.198,0.995,0.262,1.499,0.375c-0.181-1.346,1.204-1.429,1.742-2.193c0.716-1.011,0.772-1.987-0.261-2.851
		c-1.755-1.362-1.777-1.629-0.455-3.516c0.695-0.992,0.576-1.995-0.29-2.79c-0.861-0.793-1.867-0.813-2.799-0.062
		c-0.876,0.708-1.115,2.129-0.289,2.884c0.916,0.837,0.933,1.717,0.693,2.993c-1.699-0.094-3.404-0.186-5.08-0.278
		c-0.05-1.022-0.084-1.721-0.12-2.419c-0.104-0.026-0.208-0.05-0.312-0.074c-0.469,0.65-0.938,1.299-1.511,2.098
		c0.664,0.262,1.14,0.586,1.636,0.62c2.093,0.146,4.193,0.185,6.289,0.311C89.5,147.244,90.208,147.428,90.919,147.547"/>
	<path style="fill:#1A2A4F;" d="M287.021,232.927h-40.312c0.809-2.463,2.081-4.568,3.739-6.422c2.438-2.727,5.387-4.231,9.179-4.115
		c4.851,0.151,9.713,0.151,14.562,0c3.845-0.119,6.918,1.309,9.274,4.191c1.495,1.826,2.646,3.941,3.949,5.926
		C287.282,232.646,287.151,232.787,287.021,232.927"/>
	<path style="fill:#1A2A4F;" d="M145.784,232.944h-40.398c0.721-5.146,6.827-10.515,11.93-10.518
		c5.253-0.006,10.505,0.069,15.755-0.029c3.029-0.059,5.556,0.967,7.758,2.948C143.098,227.389,144.599,229.941,145.784,232.944"/>
	<path style="fill:#1A2A4F;" d="M241.045,232.958h-40.646c1.626-6.002,7.167-10.78,12.022-10.578c4.992,0.205,10.007,0.202,14.998,0
		c4.71-0.19,8.094,1.89,10.691,5.545C239.172,229.419,239.976,231.103,241.045,232.958"/>
	<path style="fill:#1A2A4F;" d="M98.204,232.927H57.996c1.256-3.486,3.078-6.393,6.186-8.508c2-1.359,4.023-2.048,6.419-2.016
		c4.903,0.071,9.81,0.14,14.708-0.016c3.895-0.125,7.019,1.303,9.402,4.232c1.488,1.83,2.62,3.949,3.91,5.939
		C98.481,232.684,98.344,232.805,98.204,232.927"/>
	<path style="fill:#1A2A4F;" d="M52.235,232.892H11.601c0.967-5.492,6.833-10.465,12.37-10.468c4.955,0,9.914,0.127,14.862-0.036
		c3.962-0.136,7.113,1.338,9.5,4.339C49.797,228.561,50.874,230.704,52.235,232.892"/>
	<path style="fill:#1A2A4F;" d="M152.721,232.892c0.92-1.649,1.574-3.204,2.564-4.502c1.534-2.017,3.178-4.042,5.596-5.039
		c1.118-0.462,2.418-0.518,3.645-0.676c1.056-0.142,2.129-0.232,3.195-0.24c4.215-0.026,8.436,0.114,12.646-0.042
		c4.207-0.156,7.413,1.58,9.861,4.816c1.281,1.691,2.274,3.606,3.561,5.683H152.721z"/>
	<path style="fill:#1A2A4F;" d="M33.239,221.523c-2.158,0-4.319-0.049-6.476,0.026c-0.962,0.035-1.522-0.343-2.056-1.084
		c-2.574-3.577-2.74-8.357-0.368-12.081c2.35-3.692,6.828-5.667,10.903-4.804c4.725,0.998,7.858,4.26,8.652,8.873
		c0.516,2.999-0.205,5.673-1.969,8.051c-0.391,0.525-1.251,0.94-1.919,0.974C37.757,221.601,35.496,221.523,33.239,221.523"/>
	<path style="fill:#1A2A4F;" d="M265.318,221.526c-2.257-0.003-4.517,0.063-6.767-0.044c-0.621-0.029-1.412-0.434-1.791-0.925
		c-2.66-3.447-2.852-8.362-0.57-12.051c2.294-3.712,6.804-5.78,10.839-4.971c4.659,0.935,8.115,4.283,8.805,8.766
		c0.466,3.024-0.107,5.904-2.062,8.343c-0.362,0.455-1.103,0.818-1.686,0.842C269.833,221.585,267.575,221.526,265.318,221.526"/>
	<path style="fill:#1A2A4F;" d="M218.731,221.523c-2.256,0-4.514,0.048-6.768-0.039c-0.533-0.018-1.22-0.369-1.552-0.792
		c-2.986-3.798-3.004-9.201-0.11-13.018c2.939-3.875,8.002-5.292,12.507-3.495c4.458,1.776,7.14,6.214,6.618,11.042
		c-0.099,0.915-0.298,1.844-0.611,2.712c-1.152,3.199-1.753,3.596-5.08,3.593C222.068,221.526,220.4,221.526,218.731,221.523"/>
	<path style="fill:#1A2A4F;" d="M127.151,221.523c-2.257-0.002-4.516,0.054-6.77-0.039c-0.587-0.023-1.338-0.361-1.706-0.811
		c-2.634-3.207-2.931-8.228-0.801-11.92c2.131-3.694,6.399-5.835,10.564-5.297c4.329,0.56,8.05,3.826,9.044,7.989
		c0.772,3.239,0.225,6.232-1.672,8.99c-0.519,0.755-1.075,1.141-2.036,1.108C131.568,221.477,129.359,221.523,127.151,221.523"/>
	<path style="fill:#1A2A4F;" d="M79.78,221.526c-2.256,0.003-4.514,0.059-6.767-0.04c-0.578-0.023-1.32-0.393-1.673-0.847
		c-2.7-3.466-2.938-8.304-0.685-12.044c2.186-3.632,6.646-5.796,10.498-5.102c4.781,0.862,8.298,4.004,9.121,8.42
		c0.58,3.106,0.098,6.104-1.929,8.649c-0.391,0.487-1.178,0.89-1.8,0.921C84.294,221.593,82.035,221.526,79.78,221.526"/>
	<path style="fill:#1A2A4F;" d="M174.376,221.376c-3.223,0-6.445,0.032-9.666-0.034c-0.501-0.011-1.136-0.356-1.468-0.753
		c-3.291-3.939-3.187-9.557,0.196-13.49c3.366-3.91,9.473-5.08,13.566-2.113c5.264,3.809,7.155,9.652,3.08,15.512
		c-0.366,0.528-1.223,0.899-1.896,0.985c-1.253,0.155-2.541,0.044-3.813,0.044C174.376,221.477,174.376,221.426,174.376,221.376"/>
	<path style="fill:#1A2A4F;" d="M252.084,205.584c-0.019,5.67-4.422,10.011-10.124,9.985c-5.617-0.023-9.971-4.492-9.938-10.199
		c0.029-5.495,4.559-9.969,10.081-9.953C247.708,195.433,252.103,199.91,252.084,205.584"/>
	<path style="fill:#1A2A4F;" d="M159.342,205.568c-0.025,5.688-4.419,10.038-10.103,10.001c-5.623-0.037-10.017-4.519-9.977-10.178
		c0.037-5.556,4.613-10.014,10.228-9.973C155.001,195.462,159.368,199.96,159.342,205.568"/>
	<path style="fill:#1A2A4F;" d="M102.922,215.569c-5.652-0.014-10.038-4.464-9.986-10.136c0.051-5.65,4.5-10.043,10.147-10.017
		c5.448,0.027,9.958,4.605,9.958,10.112C113.042,211.13,108.555,215.583,102.922,215.569"/>
	<path style="fill:#1A2A4F;" d="M66.597,205.5c0.019,5.635-4.3,10.035-9.882,10.069c-5.667,0.035-10.166-4.358-10.203-9.961
		c-0.037-5.582,4.48-10.172,10.022-10.189C62.161,195.401,66.577,199.824,66.597,205.5"/>
	<path style="fill:#1A2A4F;" d="M195.596,215.569c-5.642-0.031-10.114-4.545-9.899-10.229c0.213-5.613,4.288-9.818,9.201-9.823
		c6.635-0.008,10.651,3.648,10.856,10.045C205.937,211.158,201.233,215.604,195.596,215.569"/>
	<path style="fill:#1A2A4F;" d="M176.814,201.949c-4.863-0.039-8.708-3.972-8.688-8.884c0.021-4.833,4.017-8.802,8.838-8.776
		c4.803,0.028,8.798,4.054,8.784,8.855C185.733,198.07,181.757,201.986,176.814,201.949"/>
	<path style="fill:#1A2A4F;" d="M122.689,201.949c-4.849-0.018-8.759-3.964-8.755-8.836c0.004-4.812,4.013-8.826,8.809-8.821
		c4.873,0.003,8.891,4.078,8.83,8.95C131.513,198.115,127.583,201.965,122.689,201.949"/>
	<path style="fill:#1A2A4F;" d="M41.481,201.947c-4.855-0.002-8.803-3.93-8.821-8.779c-0.02-4.849,4.101-8.95,8.917-8.876
		c4.851,0.076,8.682,4.041,8.753,8.884C50.393,197.314,46.087,202.336,41.481,201.947"/>
	<path style="fill:#1A2A4F;" d="M265.927,193.203c-0.021,4.914-3.912,8.62-8.826,8.787c-4.499,0.151-8.889-4.654-8.761-8.93
		c0.149-4.883,4.082-8.843,8.887-8.771C262.126,184.366,265.946,188.28,265.927,193.203"/>
	<path style="fill:#1A2A4F;" d="M68.458,201.949c-0.975,0.226-1.623-0.256-2.145-1.391c-1.059-2.31-2.846-4.022-5.179-5.004
		c-1.063-0.446-1.345-1.101-1.374-2.117c-0.146-4.934,3.843-9.093,8.8-9.143c4.711-0.051,8.757,3.903,8.845,8.642
		C77.499,197.878,73.573,201.929,68.458,201.949"/>
	<path style="fill:#1A2A4F;" d="M222.298,193.036c0.037-4.785,3.901-8.665,8.708-8.744c4.761-0.079,8.842,3.919,8.92,8.731
		c0.017,1.05-0.188,1.766-1.42,2.15c-2.949,0.917-5.072,2.928-6.351,5.744c-0.368,0.808-0.784,1.061-1.64,1.035
		C226.027,201.815,222.26,197.758,222.298,193.036"/>
	<path style="fill:#1A2A4F;" d="M205.994,201.623c-1.163-2.667-2.949-4.833-5.669-6.035c-1.061-0.466-2.22-0.736-3.354-1.005
		c-1.357-0.319-1.977-1.006-1.729-2.352c0.682-3.69,2.489-6.604,6.309-7.515c5.254-1.251,9.534,1.147,10.965,6.351
		C213.838,195.866,210.658,200.794,205.994,201.623"/>
	<path style="fill:#1A2A4F;" d="M104.264,194.527c-5.348-0.264-9.174,2.038-11.478,6.789c-3.474-0.689-6.899-5.393-5.666-10.314
		c1.146-4.58,5.792-7.5,10.519-6.493C102.017,185.442,105.156,190.069,104.264,194.527"/>
	<path style="fill:#1A2A4F;" d="M157.214,197.697c-6.011-4.128-9.622-4.273-15.013-0.594c-2.275-3.048-1.027-8.052,1.684-10.481
		c3.39-3.036,8.421-3.094,11.784-0.084C158.963,189.486,159.639,194.374,157.214,197.697"/>
	<path style="fill:#1A2A4F;" d="M88.904,127.953c2.821,0.013,5.009,2.237,4.99,5.073c-0.019,2.775-2.32,5.033-5.101,5.007
		c-2.843-0.026-4.934-2.197-4.927-5.112C83.875,130.039,86.004,127.939,88.904,127.953"/>
	<text transform="matrix(1 0 0 1 236.8867 113.4473)" style="fill:#1A2A4F; font-family:'FSMatthew-Bold'; font-size:13.3544;"> </text>
</g>
<g id="Text" style="display:none;">
	<text transform="matrix(1 0 0 1 62.126 113.4473)" style="display:inline;"><tspan x="0" y="0" style="fill:#7AC6BA; font-family:'FSMatthew-Bold'; font-size:59.6057;">26</tspan><tspan x="64.253" y="0" style="fill:#7AC6BA; font-family:'FSMatthew-Bold'; font-size:59.6057; letter-spacing:-1;">,</tspan><tspan x="78.142" y="0" style="fill:#7AC6BA; font-family:'FSMatthew-Bold'; font-size:59.6057;">00</tspan><tspan x="142.395" y="0" style="fill:#7AC6BA; font-family:'FSMatthew-Bold'; font-size:59.6057;">0</tspan></text>
	<text transform="matrix(1 0 0 1 135.0049 140.3369)" style="display:inline;"><tspan x="0" y="0" style="fill:#1A2A4F; font-family:'FSMatthew-Bold'; font-size:24.4953;">s</tspan><tspan x="10.68" y="0" style="fill:#1A2A4F; font-family:'FSMatthew-Bold'; font-size:24.4953;">t</tspan><tspan x="20.869" y="0" style="fill:#1A2A4F; font-family:'FSMatthew-Bold'; font-size:24.4953;">uden</tspan><tspan x="75.763" y="0" style="fill:#1A2A4F; font-family:'FSMatthew-Bold'; font-size:24.4953;">t</tspan><tspan x="86.491" y="0" style="fill:#1A2A4F; font-family:'FSMatthew-Bold'; font-size:24.4953;">s </tspan></text>
</g>
<g id="Text_Flat">
	<g>
		<path style="fill:#7AC6BA;" d="M90.913,113.447H65.464c-0.537-1.251-0.715-2.801-0.715-4.172c0-0.715,0.06-1.609,0.179-2.206
			c4.172-4.231,8.642-9,12.576-13.41c2.92-3.278,5.245-6.317,5.245-9.655c0-2.92-2.026-4.589-5.603-4.589
			c-2.623,0-6.794,0.894-10.668,2.742C66.238,81.144,66,79.355,66,77.925c0-0.715,0.119-2.146,0.357-3.099
			c2.921-1.252,7.629-2.384,12.218-2.384c6.794,0,12.755,3.159,12.755,10.49c0,6.437-3.457,10.788-10.848,18.536
			c-1.43,1.55-2.98,3.04-4.53,4.649h15.079c0.179,0.775,0.298,2.265,0.298,3.695C91.331,111.003,91.151,112.613,90.913,113.447z"/>
		<path style="fill:#7AC6BA;" d="M111.239,114.043c-10.848,0-15.02-7.629-15.02-18.894c0-12.695,4.708-22.589,17.88-22.589
			c2.265,0,5.423,0.358,6.735,0.834c0.238,0.834,0.298,2.205,0.298,2.861c0,1.132-0.119,2.682-0.417,3.517
			c-1.55-0.239-3.814-0.417-5.543-0.417c-5.781,0-9.238,3.517-9.894,10.013c1.848-1.192,5.006-2.206,7.927-2.206
			c7.152,0,11.682,5.364,11.682,12.576C124.888,107.785,119.583,114.043,111.239,114.043z M111.299,93.779
			c-2.563,0-5.126,1.073-6.377,2.265c-0.06,0.596-0.06,1.371-0.06,2.265c0,3.695,1.311,8.94,6.139,8.94
			c3.337,0,5.066-3.159,5.066-7.093C116.067,96.282,114.517,93.779,111.299,93.779z"/>
		<path style="fill:#7AC6BA;" d="M129.419,124.235c-0.954-0.655-2.205-1.907-2.562-3.278c2.503-1.788,4.351-3.934,5.185-6.139
			c-1.132-1.013-2.026-2.443-2.026-4.41c0-2.325,2.026-4.232,4.41-4.232c2.682,0,4.47,1.967,4.47,4.888
			C138.896,115.712,134.545,121.255,129.419,124.235z"/>
		<path style="fill:#7AC6BA;" d="M156.539,114.043c-9.537,0-14.186-7.033-14.186-20.741c0-13.828,4.828-20.741,14.364-20.741
			c9.477,0,14.125,6.914,14.125,20.741C170.843,107.01,166.016,114.043,156.539,114.043z M156.599,79.534
			c-3.814,0-5.483,3.517-5.483,13.768c0,10.072,1.669,13.768,5.483,13.768s5.482-3.695,5.482-13.768
			C162.081,83.051,160.413,79.534,156.599,79.534z"/>
		<path style="fill:#7AC6BA;" d="M188.666,114.043c-9.536,0-14.186-7.033-14.186-20.741c0-13.828,4.828-20.741,14.364-20.741
			c9.477,0,14.125,6.914,14.125,20.741C202.97,107.01,198.143,114.043,188.666,114.043z M188.726,79.534
			c-3.814,0-5.483,3.517-5.483,13.768c0,10.072,1.669,13.768,5.483,13.768s5.482-3.695,5.482-13.768
			C194.208,83.051,192.54,79.534,188.726,79.534z"/>
		<path style="fill:#7AC6BA;" d="M220.792,114.043c-9.536,0-14.186-7.033-14.186-20.741c0-13.828,4.828-20.741,14.364-20.741
			c9.477,0,14.125,6.914,14.125,20.741C235.096,107.01,230.268,114.043,220.792,114.043z M220.852,79.534
			c-3.814,0-5.483,3.517-5.483,13.768c0,10.072,1.669,13.768,5.483,13.768s5.482-3.695,5.482-13.768
			C226.334,83.051,224.666,79.534,220.852,79.534z"/>
	</g>
	<g>
		<path style="fill:#1A2A4F;" d="M140.295,140.582c-1.445,0-2.963-0.221-4.139-0.612c-0.073-0.368-0.098-0.833-0.098-1.323
			c0-0.392,0.098-0.955,0.196-1.298c1.126,0.392,2.743,0.661,3.698,0.661c1.322,0,2.082-0.441,2.082-1.347
			c0-0.784-0.612-1.151-2.229-1.666c-2.572-0.808-3.771-2.008-3.771-3.87c0-2.767,2.547-3.796,4.971-3.796
			c1.126,0,2.375,0.196,3.233,0.465c0.098,0.367,0.147,0.882,0.147,1.176c0,0.318-0.098,0.979-0.221,1.396
			c-0.833-0.245-1.983-0.44-2.938-0.44c-1.176,0-1.984,0.293-1.984,1.028c0,0.784,0.906,1.102,2.327,1.567
			c2.474,0.808,3.649,1.837,3.649,3.771C145.217,139.284,142.817,140.582,140.295,140.582z"/>
		<path style="fill:#1A2A4F;" d="M155.285,140.092c-0.735,0.294-1.617,0.49-3.037,0.49c-2.768,0-4.139-1.347-4.139-4.041V130.1
			h-2.106c-0.098-0.368-0.171-0.98-0.171-1.298c0-0.293,0.073-0.833,0.147-1.077l2.13-0.147v-3.282
			c0.27-0.049,1.127-0.098,1.69-0.098c0.612,0,1.371,0.049,1.69,0.098v3.282h3.526c0.098,0.343,0.146,0.833,0.146,1.102
			c0,0.294-0.024,1.077-0.122,1.42h-3.551v5.951c0,1.224,0.489,1.763,1.689,1.763c0.661,0,1.47-0.098,2.032-0.294
			c0.099,0.318,0.221,0.931,0.221,1.494C155.432,139.308,155.383,139.823,155.285,140.092z"/>
		<path style="fill:#1A2A4F;" d="M168.315,135.415c0,3.649-1.715,5.167-5.535,5.167c-3.723,0-5.437-1.519-5.437-5.167v-7.837
			c0.343-0.049,1.004-0.123,1.665-0.123c0.588,0,1.322,0.049,1.714,0.123v7.812c0,1.911,0.563,2.596,2.106,2.596
			c1.567,0,2.106-0.686,2.106-2.596v-7.812c0.343-0.074,1.102-0.123,1.714-0.123s1.421,0.073,1.666,0.123V135.415z"/>
		<path style="fill:#1A2A4F;" d="M182.13,140.337c-0.392,0.073-1.053,0.123-1.567,0.123c-0.465,0-1.004-0.049-1.347-0.123
			l-0.098-1.126c-0.882,0.857-2.009,1.372-3.331,1.372c-3.648,0-5.217-2.915-5.217-6.417c0-3.771,1.69-6.833,5.584-6.833
			c0.955,0,2.058,0.294,2.597,0.637v-5.486c0.44-0.073,1.175-0.123,1.714-0.123c0.661,0,1.176,0.074,1.665,0.123V140.337z
			 M178.751,130.492c-0.588-0.27-1.348-0.416-1.984-0.416c-1.983,0-2.718,1.763-2.718,3.894c0,1.788,0.44,3.821,2.424,3.821
			c0.955,0,1.69-0.392,2.278-0.882V130.492z"/>
		<path style="fill:#1A2A4F;" d="M195.701,135.145h-7.739c0.049,1.592,1.151,2.768,3.281,2.768c1.151,0,2.327-0.147,3.331-0.417
			c0.146,0.661,0.245,1.396,0.245,2.057c0,0.098,0,0.22-0.024,0.49c-1.249,0.367-2.547,0.539-3.82,0.539
			c-4.653,0-6.588-2.669-6.588-6.563c0-3.404,1.91-6.686,6.049-6.686c3.918,0,5.339,2.89,5.339,6.074
			C195.774,133.847,195.774,134.508,195.701,135.145z M192.395,132.72c0-1.542-0.416-2.841-2.008-2.841
			c-1.519,0-2.327,1.2-2.425,2.841H192.395z"/>
		<path style="fill:#1A2A4F;" d="M209.296,140.337c-0.393,0.098-1.225,0.123-1.617,0.123c-0.416,0-1.371-0.049-1.763-0.123v-8.375
			c0-1.323-0.686-1.886-1.788-1.886c-0.882,0-1.886,0.318-2.669,0.808v9.453c-0.563,0.098-1.348,0.123-1.788,0.123
			c-0.392,0-1.103-0.024-1.592-0.123v-12.759c0.318-0.074,1.102-0.123,1.47-0.123c0.343,0,1.053,0.049,1.42,0.123l0.172,1.126
			c1.102-0.808,2.693-1.372,4.114-1.372c2.693,0,4.041,1.666,4.041,4.457V140.337z"/>
		<path style="fill:#1A2A4F;" d="M220.368,140.092c-0.735,0.294-1.617,0.49-3.037,0.49c-2.768,0-4.139-1.347-4.139-4.041V130.1
			h-2.106c-0.098-0.368-0.172-0.98-0.172-1.298c0-0.293,0.074-0.833,0.147-1.077l2.131-0.147v-3.282
			c0.27-0.049,1.126-0.098,1.689-0.098c0.612,0,1.372,0.049,1.69,0.098v3.282h3.526c0.098,0.343,0.146,0.833,0.146,1.102
			c0,0.294-0.024,1.077-0.122,1.42h-3.551v5.951c0,1.224,0.489,1.763,1.689,1.763c0.661,0,1.47-0.098,2.032-0.294
			c0.099,0.318,0.221,0.931,0.221,1.494C220.515,139.308,220.466,139.823,220.368,140.092z"/>
		<path style="fill:#1A2A4F;" d="M226.786,140.582c-1.445,0-2.964-0.221-4.139-0.612c-0.074-0.368-0.099-0.833-0.099-1.323
			c0-0.392,0.099-0.955,0.196-1.298c1.127,0.392,2.743,0.661,3.698,0.661c1.322,0,2.081-0.441,2.081-1.347
			c0-0.784-0.612-1.151-2.229-1.666c-2.571-0.808-3.771-2.008-3.771-3.87c0-2.767,2.547-3.796,4.972-3.796
			c1.127,0,2.376,0.196,3.232,0.465c0.099,0.367,0.147,0.882,0.147,1.176c0,0.318-0.098,0.979-0.221,1.396
			c-0.832-0.245-1.983-0.44-2.938-0.44c-1.176,0-1.983,0.293-1.983,1.028c0,0.784,0.905,1.102,2.326,1.567
			c2.474,0.808,3.649,1.837,3.649,3.771C231.709,139.284,229.309,140.582,226.786,140.582z"/>
	</g>
</g>
</svg>
