<svg id="Layer_1" data-name="Layer 1" xmlns="http://www.w3.org/2000/svg" viewBox="0 0 300 300"><defs><style>.cls-1,.cls-2{fill:none;stroke-linejoin:bevel;stroke-width:5px;}.cls-1{stroke:#130f3d;}.cls-2{stroke:#00b3e1;}.cls-3{fill:#130f3d;}.cls-4{fill:#00b3e1;}</style></defs><title>update_web_</title><path class="cls-1" d="M150.08,12.78A60.11,60.11,0,0,1,131,10c.68,20.41,16.34,23.42,18.94,23.76v0l.18,0,.19,0v0c2.6-.34,18.26-3.35,18.95-23.76A60.19,60.19,0,0,1,150.08,12.78Z"/><path class="cls-1" d="M134.73,35.69C109.1,48,109,90.65,97.42,114.61a36.78,36.78,0,0,0,5.62,4c12.81,7.44,29.77,7.47,47.05,5.48,17.27,2,34.22,2,47-5.48a37.28,37.28,0,0,0,5.62-4c-11.53-23.85-11.68-66.26-37-78.75"/><path class="cls-1" d="M139.41,125c23.84.11,30.4-18.05,46.5-22.85"/><path class="cls-1" d="M142.35,12.37c6.26,1.33,5.78,6.15,10.66,9.49"/><path class="cls-1" d="M104,100.37s10.25,10.5,39.36,9.24"/><circle class="cls-2" cx="150.08" cy="71.24" r="22.33" transform="translate(-9.5 25.04) rotate(-9.24)"/><line class="cls-2" x1="138.69" y1="81.66" x2="157.85" y2="81.66"/><path class="cls-2" d="M143.89,82.67s1.12-17.07,1.35-19.2,1.41-4.38,5.28-4.16A6,6,0,0,1,156,63.58"/><line class="cls-2" x1="140.93" y1="70.88" x2="154.43" y2="70.88"/><path class="cls-3" d="M23.06,222.28H29.9v-6.54h4v17.17h-4v-7.28H23.06v7.28h-4V215.74h4Z"/><path class="cls-3" d="M47.72,229.67H41.23l-1.31,3.24H35.8l6.92-17.17h3.63l6.77,17.17H49Zm-1.08-3-2.11-5.76-2.14,5.76Z"/><path class="cls-3" d="M64.06,219.94a4.17,4.17,0,0,0-2.88-1.24,2.13,2.13,0,0,0-1.67.6,1.51,1.51,0,0,0-.44,1.08,1.19,1.19,0,0,0,.39,1,6.8,6.8,0,0,0,2.16,1l1.29.49a6.94,6.94,0,0,1,2.34,1.31,4.29,4.29,0,0,1,1.26,3.19A6.16,6.16,0,0,1,65,231.55a6.67,6.67,0,0,1-4.86,1.75,7.28,7.28,0,0,1-3.4-.72,10.9,10.9,0,0,1-2.52-1.88l2-2.83a10.46,10.46,0,0,0,1.6,1.31,4,4,0,0,0,2.16.62,2.75,2.75,0,0,0,1.81-.59,1.8,1.8,0,0,0,.61-1.39,1.52,1.52,0,0,0-.59-1.24,8.16,8.16,0,0,0-2-1l-1.41-.49a5.67,5.67,0,0,1-2.4-1.37,4.21,4.21,0,0,1-1-3,5.27,5.27,0,0,1,1.5-3.86,5.5,5.5,0,0,1,4.24-1.57,8.26,8.26,0,0,1,5.1,1.7Z"/><path class="cls-3" d="M79.33,215.74v13.83h5.33v3.34H75.37V215.74Z"/><path class="cls-3" d="M101.68,217.85a9.14,9.14,0,0,1,0,12.93A9.19,9.19,0,0,1,95,233.3a9.49,9.49,0,0,1-6.7-2.52,8.8,8.8,0,0,1-2.67-6.39,9.55,9.55,0,0,1,2.65-6.51,10.16,10.16,0,0,1,13.36,0Zm-10.43,2.63a5.28,5.28,0,0,0-1.52,3.89,5.14,5.14,0,0,0,1.57,3.86A5.09,5.09,0,0,0,95,229.64a5.07,5.07,0,0,0,5.3-5.3,5.39,5.39,0,0,0-1.5-3.86A5.5,5.5,0,0,0,95,219,5.27,5.27,0,0,0,91.25,220.48Z"/><path class="cls-3" d="M109,215.74l3.65,11.38,3.66-11.38H119l3.65,11.38,3.66-11.38h4.12l-5.85,17.17h-3.35l-3.6-10.42-3.6,10.42H110.7l-5.84-17.17Z"/><path class="cls-3" d="M142.15,219.09h-5.74v3.32h5.45v3.35h-5.45v3.81h5.74v3.34h-9.71V215.74h9.71Z"/><path class="cls-3" d="M154.2,219.94a4.18,4.18,0,0,0-2.88-1.24,2.16,2.16,0,0,0-1.68.6,1.54,1.54,0,0,0-.43,1.08,1.22,1.22,0,0,0,.38,1,6.88,6.88,0,0,0,2.17,1l1.28.49a6.76,6.76,0,0,1,2.34,1.31,4.27,4.27,0,0,1,1.27,3.19,6.16,6.16,0,0,1-1.52,4.25,6.68,6.68,0,0,1-4.87,1.75,7.33,7.33,0,0,1-3.4-.72,11.34,11.34,0,0,1-2.52-1.88l2.06-2.83a10,10,0,0,0,1.6,1.31,4,4,0,0,0,2.16.62,2.73,2.73,0,0,0,1.8-.59,1.78,1.78,0,0,0,.62-1.39,1.52,1.52,0,0,0-.59-1.24,8.34,8.34,0,0,0-2-1l-1.42-.49a5.7,5.7,0,0,1-2.39-1.37,4.21,4.21,0,0,1-1-3,5.26,5.26,0,0,1,1.49-3.86,5.51,5.51,0,0,1,4.25-1.57,8.27,8.27,0,0,1,5.1,1.7Z"/><path class="cls-3" d="M165.55,219.09v13.82h-4V219.09h-3.73v-3.35h11.42v3.35Z"/><path class="cls-3" d="M186.23,219.94a4.2,4.2,0,0,0-2.89-1.24,2.13,2.13,0,0,0-1.67.6,1.51,1.51,0,0,0-.44,1.08,1.19,1.19,0,0,0,.39,1,6.8,6.8,0,0,0,2.16,1l1.29.49a6.85,6.85,0,0,1,2.34,1.31,4.25,4.25,0,0,1,1.26,3.19,6.16,6.16,0,0,1-1.52,4.25,6.66,6.66,0,0,1-4.86,1.75,7.28,7.28,0,0,1-3.4-.72,11.12,11.12,0,0,1-2.52-1.88l2.06-2.83a10.4,10.4,0,0,0,1.59,1.31,4,4,0,0,0,2.17.62,2.74,2.74,0,0,0,1.8-.59,1.81,1.81,0,0,0,.62-1.39,1.53,1.53,0,0,0-.6-1.24,8.1,8.1,0,0,0-2-1l-1.42-.49a5.64,5.64,0,0,1-2.39-1.37,4.17,4.17,0,0,1-1-3,5.26,5.26,0,0,1,1.49-3.86,5.51,5.51,0,0,1,4.25-1.57,8.23,8.23,0,0,1,5.09,1.7Z"/><path class="cls-3" d="M197.58,219.09v13.82h-4V219.09h-3.73v-3.35h11.43v3.35Z"/><path class="cls-3" d="M217.82,225.91a7.31,7.31,0,0,1-1.9,5.43,8.3,8.3,0,0,1-10.71,0,7.28,7.28,0,0,1-1.91-5.43V215.74h4v10.07a4,4,0,0,0,.9,2.88,3.13,3.13,0,0,0,2.39.9,3.17,3.17,0,0,0,2.4-.9,4.09,4.09,0,0,0,.9-2.88V215.74h4Z"/><path class="cls-3" d="M227.06,215.74a9.07,9.07,0,0,1,6.77,2.37,9,9,0,0,1,.13,12.23,9.27,9.27,0,0,1-6.77,2.57h-5.56V215.74Zm-1.47,13.83h1.06a6.21,6.21,0,0,0,3.91-1.16,5.35,5.35,0,0,0,1.67-4.15,5.07,5.07,0,0,0-1.41-3.7,5.66,5.66,0,0,0-4.17-1.47h-1.06Z"/><path class="cls-3" d="M248.94,219.09H243.2v3.32h5.46v3.35H243.2v3.81h5.74v3.34h-9.7V215.74h9.7Z"/><path class="cls-3" d="M252.41,232.91V215.74h3.45l9.32,11.07V215.74h4v17.17h-3.45l-9.31-11.12v11.12Z"/><path class="cls-3" d="M278.86,219.09v13.82h-4V219.09h-3.73v-3.35h11.43v3.35Z"/><path class="cls-3" d="M30.44,260.7a8,8,0,0,1-3.78.92,9.2,9.2,0,0,1-6.74-2.49,9.2,9.2,0,0,1,0-13,9.14,9.14,0,0,1,6.41-2.47,10.19,10.19,0,0,1,4.11.95v4.59a5.4,5.4,0,0,0-4-1.83,4.8,4.8,0,0,0-3.5,1.34,5.48,5.48,0,0,0-1.62,4,5,5,0,0,0,5.2,5.23,5.4,5.4,0,0,0,3.93-1.78Z"/><path class="cls-3" d="M48.59,246.18a9.15,9.15,0,0,1,0,12.92A9.15,9.15,0,0,1,42,261.62a9.45,9.45,0,0,1-6.7-2.52,8.74,8.74,0,0,1-2.67-6.38,9.59,9.59,0,0,1,2.65-6.52A9.22,9.22,0,0,1,42,243.68,9.16,9.16,0,0,1,48.59,246.18ZM38.16,248.8a5.3,5.3,0,0,0-1.52,3.89,5.14,5.14,0,0,0,1.57,3.86A5,5,0,0,0,41.89,258a5.21,5.21,0,0,0,3.81-1.47,5.12,5.12,0,0,0,1.5-3.83,5.41,5.41,0,0,0-1.5-3.87,5.51,5.51,0,0,0-3.78-1.46A5.31,5.31,0,0,0,38.16,248.8Z"/><path class="cls-3" d="M62.68,248.26A4.22,4.22,0,0,0,59.79,247a2.15,2.15,0,0,0-1.67.59,1.52,1.52,0,0,0-.44,1.08,1.19,1.19,0,0,0,.39,1,6.8,6.8,0,0,0,2.16,1l1.29.49a6.94,6.94,0,0,1,2.34,1.31,4.31,4.31,0,0,1,1.26,3.2,6.14,6.14,0,0,1-1.52,4.24,6.63,6.63,0,0,1-4.86,1.75,7.28,7.28,0,0,1-3.4-.72A10.62,10.62,0,0,1,52.82,259l2.06-2.83a9.94,9.94,0,0,0,1.59,1.31,3.94,3.94,0,0,0,2.16.62,2.75,2.75,0,0,0,1.81-.59,1.79,1.79,0,0,0,.61-1.39,1.49,1.49,0,0,0-.59-1.23,8.2,8.2,0,0,0-2-1L57,253.46a5.76,5.76,0,0,1-2.4-1.36,4.22,4.22,0,0,1-1-3,5.28,5.28,0,0,1,1.5-3.86,5.55,5.55,0,0,1,4.25-1.57,8.32,8.32,0,0,1,5.09,1.7Z"/><path class="cls-3" d="M74,247.41v13.83h-4V247.41H66.33v-3.34H77.76v3.34Z"/><path class="cls-3" d="M101.06,246.18a9.13,9.13,0,0,1,0,12.92,9.15,9.15,0,0,1-6.64,2.52,9.45,9.45,0,0,1-6.7-2.52,8.78,8.78,0,0,1-2.67-6.38,9.64,9.64,0,0,1,2.65-6.52,10.14,10.14,0,0,1,13.36,0ZM90.63,248.8a5.3,5.3,0,0,0-1.51,3.89,5.1,5.1,0,0,0,1.57,3.86A5,5,0,0,0,94.37,258a5.23,5.23,0,0,0,3.81-1.47,5.12,5.12,0,0,0,1.49-3.83,5.45,5.45,0,0,0-1.49-3.87,5.54,5.54,0,0,0-3.79-1.46A5.31,5.31,0,0,0,90.63,248.8Z"/><path class="cls-3" d="M116.21,247.41h-5.56v3.32h5.15v3.35h-5.15v7.16h-4V244.07h9.52Z"/><path class="cls-3" d="M129.09,244.07v13.82h5.33v3.35h-9.3V244.07Z"/><path class="cls-3" d="M140.48,244.07v17.17h-4V244.07Z"/><path class="cls-3" d="M146.71,244.07l4.35,11,4.35-11h4.27l-7.28,17.17h-2.68l-7.29-17.17Z"/><path class="cls-3" d="M165.64,244.07v17.17h-4V244.07Z"/><path class="cls-3" d="M169.49,261.24V244.07h3.45l9.31,11.07V244.07h4v17.17h-3.45l-9.32-11.12v11.12Z"/><path class="cls-3" d="M198.28,251.87h8.52v.18a11.13,11.13,0,0,1-2.65,7.23,7.87,7.87,0,0,1-6.12,2.34,8.09,8.09,0,0,1-6.29-2.39,9.78,9.78,0,0,1-.05-13.05,8.83,8.83,0,0,1,6.75-2.5,8.61,8.61,0,0,1,4.81,1.29A9.48,9.48,0,0,1,206,248L202.45,250a5.14,5.14,0,0,0-1.52-1.85,4.25,4.25,0,0,0-2.62-.82,4.62,4.62,0,0,0-3.55,1.39,5.83,5.83,0,0,0-1.47,4.06,5.4,5.4,0,0,0,1.44,3.94,4.51,4.51,0,0,0,3.48,1.34,4.35,4.35,0,0,0,3-.93,4,4,0,0,0,1.24-2h-4.15Z"/><path class="cls-3" d="M219.81,244.07v17.17h-4V244.07Z"/><path class="cls-3" d="M223.66,261.24V244.07h3.45l9.32,11.07V244.07h4v17.17h-3.45l-9.32-11.12v11.12Z"/><path class="cls-3" d="M264.67,254.24a7.28,7.28,0,0,1-1.9,5.43,8.33,8.33,0,0,1-10.71,0,7.29,7.29,0,0,1-1.91-5.43V244.07h4v10.06A4.06,4.06,0,0,0,255,257a3.64,3.64,0,0,0,4.79,0,4.06,4.06,0,0,0,.9-2.89V244.07h4Z"/><path class="cls-3" d="M272.44,251.22l5.87-7.15h4.84l-6.95,8.13,7.49,9H278.6l-6.16-7.62v7.62h-4V244.07h4Z"/><path class="cls-3" d="M62.46,290.18a17.51,17.51,0,0,1-1.22-3.64,19.33,19.33,0,0,1-.47-4.6,20.27,20.27,0,0,1,.5-4.77,16,16,0,0,1,1.19-3.52l1.63.63A18.35,18.35,0,0,0,63,277.54a21.82,21.82,0,0,0-.43,4.4,19.37,19.37,0,0,0,.42,4.25,20.45,20.45,0,0,0,1.1,3.35Z"/><path class="cls-3" d="M67.22,275l3.17,8,3.25-8.61L76.77,283l3.28-8h2l-5.37,12.79-3.14-8.52-3.17,8.52L65.24,275Z"/><path class="cls-3" d="M82.69,273.85h1.76v6.2a2.72,2.72,0,0,1,2-.85,2.55,2.55,0,0,1,2.23,1,3.73,3.73,0,0,1,.49,2.11V287H87.44V282.5a1.85,1.85,0,0,0-.34-1.32,1.35,1.35,0,0,0-1-.39,1.59,1.59,0,0,0-1.3.63,3.42,3.42,0,0,0-.36,1.91V287H82.69Z"/><path class="cls-3" d="M92.33,275.13a1.14,1.14,0,1,1-1.14,1.13A1.1,1.1,0,0,1,92.33,275.13Zm.88,4.27V287H91.45V279.4Z"/><path class="cls-3" d="M101.32,281.72a3,3,0,0,0-2.14-.93,2.31,2.31,0,0,0-1.68.66,2.47,2.47,0,0,0-.65,1.75,2.52,2.52,0,0,0,.69,1.82,2.26,2.26,0,0,0,1.6.61,2.93,2.93,0,0,0,2.18-1v2a4.13,4.13,0,0,1-2.3.59,3.69,3.69,0,0,1-2.89-1.12,3.94,3.94,0,0,1-1.08-2.84,4.21,4.21,0,0,1,6.27-3.52Z"/><path class="cls-3" d="M103,273.85h1.76v6.2a2.72,2.72,0,0,1,2-.85,2.55,2.55,0,0,1,2.23,1,3.73,3.73,0,0,1,.49,2.11V287h-1.76V282.5a1.81,1.81,0,0,0-.35-1.32,1.35,1.35,0,0,0-1-.39,1.59,1.59,0,0,0-1.3.63,3.42,3.42,0,0,0-.36,1.91V287H103Z"/><path class="cls-3" d="M111.67,278.25c0-.42,0-.56,0-.62a2.88,2.88,0,0,1,.81-2.12,3,3,0,0,1,2.11-.76,3.06,3.06,0,0,1,2.18.79,2.67,2.67,0,0,1,.78,2,2.57,2.57,0,0,1-1.07,2.22,5.88,5.88,0,0,1-1.26.63l-.54.22a2,2,0,0,0-.72.39.94.94,0,0,0-.27.65.91.91,0,0,0,.31.7.8.8,0,0,0,.54.18.86.86,0,0,0,.68-.27,1.37,1.37,0,0,0,.29-.95h1.77a3,3,0,0,1-.8,2.09,2.87,2.87,0,0,1-3.85,0,2.63,2.63,0,0,1-.74-1.91,2.18,2.18,0,0,1,.58-1.55,4.24,4.24,0,0,1,1.56-.92,4.37,4.37,0,0,0,1.32-.63,1.13,1.13,0,0,0,.4-.9,1.16,1.16,0,0,0-.31-.85,1.21,1.21,0,0,0-.83-.31,1.16,1.16,0,0,0-.83.33,1.39,1.39,0,0,0-.3.95,2.9,2.9,0,0,0,.07.6Zm2.92,6.81a1.08,1.08,0,1,1-1.08,1.08A1.08,1.08,0,0,1,114.59,285.06Z"/><path class="cls-3" d="M126,275v7.24a4.19,4.19,0,0,0,.38,2.07,2.62,2.62,0,0,0,4.47,0,4.19,4.19,0,0,0,.38-2.07V275H133v7.73a4.46,4.46,0,0,1-1.12,3.12,4.67,4.67,0,0,1-6.67,0,4.46,4.46,0,0,1-1.12-3.12V275Z"/><path class="cls-3" d="M135.57,279.4h1.76v.7a2.65,2.65,0,0,1,2.06-.9,2.51,2.51,0,0,1,2.23,1,3.38,3.38,0,0,1,.47,2.11V287h-1.76v-4.22c0-1.93-.72-2-1.39-2s-1.61.11-1.61,2.56V287h-1.76Z"/><path class="cls-3" d="M145.21,275.13a1.14,1.14,0,1,1-1.13,1.13A1.11,1.11,0,0,1,145.21,275.13Zm.88,4.27V287h-1.76V279.4Z"/><path class="cls-3" d="M149.3,279.4l1.95,4.32,1.94-4.32h2l-3.93,8.13-3.93-8.13Z"/><path class="cls-3" d="M163,285.26a3.88,3.88,0,0,1-1.28,1.38,4.12,4.12,0,0,1-2.23.58,3.36,3.36,0,0,1-2.56-1,4.08,4.08,0,0,1-1.12-2.9,4.45,4.45,0,0,1,1.21-3.12,3.46,3.46,0,0,1,2.54-1,3.25,3.25,0,0,1,2.43,1A4.54,4.54,0,0,1,163,283.4v.22h-5.45a2.52,2.52,0,0,0,.65,1.53,1.82,1.82,0,0,0,1.35.48,1.86,1.86,0,0,0,1.21-.37,2.7,2.7,0,0,0,.7-.83Zm-1.75-3.09a1.81,1.81,0,0,0-.54-1,1.67,1.67,0,0,0-1.19-.44,1.73,1.73,0,0,0-1.24.49,2.06,2.06,0,0,0-.54,1Z"/><path class="cls-3" d="M164.88,279.4h1.76v.68a3.39,3.39,0,0,1,.74-.63,2.12,2.12,0,0,1,1.08-.25,2.62,2.62,0,0,1,1.39.36l-.72,1.61a1.54,1.54,0,0,0-.9-.27,1.37,1.37,0,0,0-1.1.41,2.43,2.43,0,0,0-.49,1.75V287h-1.76Z"/><path class="cls-3" d="M173.81,281.4a1.26,1.26,0,0,0-1.08-.65.75.75,0,0,0-.54.2.56.56,0,0,0-.16.4.5.5,0,0,0,.25.43c.11.07.22.11.6.3l.9.46a3.38,3.38,0,0,1,1.06.7,1.84,1.84,0,0,1,.56,1.4,2.49,2.49,0,0,1-.67,1.73,2.69,2.69,0,0,1-2.12.85,2.58,2.58,0,0,1-1.64-.49,2.94,2.94,0,0,1-1-1.38l1.45-.69a2,2,0,0,0,.41.72,1.18,1.18,0,0,0,1.5,0,.93.93,0,0,0,.25-.6.79.79,0,0,0-.24-.57,2.22,2.22,0,0,0-.75-.47l-.65-.31a3.74,3.74,0,0,1-1.05-.65,1.66,1.66,0,0,1-.54-1.28,2.41,2.41,0,0,1,.63-1.62,2.46,2.46,0,0,1,1.86-.72,2.4,2.4,0,0,1,1.41.4,2.58,2.58,0,0,1,.86.94Z"/><path class="cls-3" d="M177.87,275.13a1.14,1.14,0,1,1-1.13,1.13A1.11,1.11,0,0,1,177.87,275.13Zm.88,4.27V287H177V279.4Z"/><path class="cls-3" d="M182.81,281v6H181v-6h-.74V279.4H181v-2.78h1.77v2.78h1.35V281Z"/><path class="cls-3" d="M187.94,285.8l-3.24-6.4h2.13l2.16,4.43,2.2-4.43h2l-6,11.71h-2Z"/><path class="cls-3" d="M206.17,287h-8.08l4.16-5.05c.42-.5,1.05-1.3,1.45-1.87a3,3,0,0,0,.63-1.73,1.88,1.88,0,0,0-2-1.95,2.13,2.13,0,0,0-2.13,2.18h-1.77a4.41,4.41,0,0,1,1-2.63,3.91,3.91,0,0,1,6.69,2.45,4.4,4.4,0,0,1-.87,2.52,24.28,24.28,0,0,1-1.71,2.17l-1.87,2.21h4.49Z"/><path class="cls-3" d="M210.11,285.89a8.64,8.64,0,0,1,0-9.82,3.51,3.51,0,0,1,5.45,0,8.64,8.64,0,0,1,0,9.82,3.52,3.52,0,0,1-5.45,0Zm1.1-8.51a8.2,8.2,0,0,0,0,7.19,1.83,1.83,0,0,0,3.25,0,8.2,8.2,0,0,0,0-7.19,1.83,1.83,0,0,0-3.25,0Z"/><path class="cls-3" d="M220.89,276.66H218.8l1-1.69h2.92v12h-1.84Z"/><path class="cls-3" d="M233,281.71a2.89,2.89,0,0,1,.54,1.8,3.59,3.59,0,0,1-1,2.56,4.16,4.16,0,0,1-5.66,0,3.63,3.63,0,0,1-.95-2.56,2.89,2.89,0,0,1,.54-1.8,3,3,0,0,1,1.26-1,2.35,2.35,0,0,1-1.06-.9,3.11,3.11,0,0,1-.44-1.64,3.56,3.56,0,0,1,5.95-2.5,3.44,3.44,0,0,1,1,2.5,3.19,3.19,0,0,1-.43,1.64,2.4,2.4,0,0,1-1.06.9A3,3,0,0,1,233,281.71Zm-4.67.37a2.15,2.15,0,0,0,0,2.87,2,2,0,0,0,2.88,0,2.13,2.13,0,0,0,0-2.87,2.12,2.12,0,0,0-2.85,0Zm.11-5.2a1.87,1.87,0,0,0-.51,1.33,1.76,1.76,0,0,0,.49,1.26,1.92,1.92,0,0,0,1.33.54,2,2,0,0,0,1.34-.54,1.76,1.76,0,0,0,.48-1.26,1.7,1.7,0,0,0-1.82-1.82A1.86,1.86,0,0,0,228.41,276.88Z"/><path class="cls-3" d="M235.92,289.54a21.45,21.45,0,0,0,1.1-3.35,19.37,19.37,0,0,0,.42-4.25,21.1,21.1,0,0,0-.44-4.4,17.51,17.51,0,0,0-1.08-3.26l1.62-.63a15.05,15.05,0,0,1,1.19,3.52,19.77,19.77,0,0,1,.51,4.77,19.33,19.33,0,0,1-.47,4.6,17,17,0,0,1-1.23,3.64Z"/><path class="cls-4" d="M79.07,144.08l-2.95,24H67.68l-4.18-8.29A29.35,29.35,0,0,1,61.59,155l-.14-.43h-.29a26,26,0,0,1,.14,2.88,23.31,23.31,0,0,1-.1,2.42l-.76,8.29H51.68l3-24h8.75l4.26,9a25.41,25.41,0,0,1,1.51,4.26l.22.79.36,0-.07-.79c-.11-1.33-.18-2.31-.18-3.31a24.29,24.29,0,0,1,.14-2.85l.61-7.1Z"/><path class="cls-4" d="M107.15,155.9c0,7.28-5.65,12.83-13.15,12.83s-13.44-5.33-13.44-12.29A13,13,0,0,1,93.82,143.5a14.51,14.51,0,0,1,9.33,3.32A11.26,11.26,0,0,1,107.15,155.9Zm-8.79.14a4.36,4.36,0,0,0-4.25-4.57,4.91,4.91,0,0,0-4.76,5,4.34,4.34,0,0,0,4.25,4.65A4.82,4.82,0,0,0,98.36,156Z"/><path class="cls-4" d="M125.54,158.71l5.23,9.41h-9.45l-2.16-5.81a25.66,25.66,0,0,1-.94-3.2l-.25,0c0,.8,0,1.12,0,1.77a28,28,0,0,1-.18,3.17l-.47,4h-8.72l3-24h9.55c3.93,0,5.77.5,7.57,1.94a7.89,7.89,0,0,1,2.81,6,6.82,6.82,0,0,1-2.41,5.29A6,6,0,0,1,125.54,158.71Zm-6-8.18-.54,4.32h.72c2,0,3.28-.93,3.28-2.37s-.86-1.95-2.77-1.95Z"/><path class="cls-4" d="M151.1,144.08l-.94,7.57-4.14-.26L144,168.12h-8.83l2.06-16.73-4.15.26.9-7.57Z"/><path class="cls-4" d="M175.61,144.08l-3,24h-8.73l1.08-8.76h-5.15l-1,8.76h-8.73l3-24h8.72l-1,8.21h5.12l1-8.21Z"/><path class="cls-4" d="M195.51,144.08l-.76,6.27h-7.1l-.32,2.63h6.49l-.72,6h-6.49l-.33,2.74h7.36l-.8,6.45H176.77l2.95-24Z"/><path class="cls-4" d="M212.74,158.71l5.23,9.41h-9.45l-2.16-5.81a25.66,25.66,0,0,1-.94-3.2l-.25,0c0,.8,0,1.12,0,1.77a28,28,0,0,1-.18,3.17l-.47,4h-8.72l2.95-24h9.55c3.93,0,5.77.5,7.57,1.94a7.89,7.89,0,0,1,2.81,6,6.82,6.82,0,0,1-2.41,5.29A6,6,0,0,1,212.74,158.71Zm-6-8.18-.54,4.32h.72c2,0,3.28-.93,3.28-2.37s-.86-1.95-2.77-1.95Z"/><path class="cls-4" d="M247.78,144.08l-3,24h-8.43l-4.18-8.29A27.7,27.7,0,0,1,230.3,155l-.15-.43h-.28a28.73,28.73,0,0,1,.14,2.88,23,23,0,0,1-.11,2.42l-.76,8.29h-8.75l3-24h8.76l4.25,9a25.28,25.28,0,0,1,1.52,4.26l.21.79.36,0-.07-.79c-.11-1.33-.18-2.31-.18-3.31a26.67,26.67,0,0,1,.14-2.85l.62-7.1Z"/><path class="cls-4" d="M84.45,177.55l-3,24H72.66l3-24Z"/><path class="cls-4" d="M102.51,192.18l5.22,9.41H98.29l-2.16-5.8a26.29,26.29,0,0,1-.94-3.21l-.25,0c0,.79,0,1.11,0,1.76a28,28,0,0,1-.18,3.17l-.46,4H85.6l3-24h9.55c3.93,0,5.77.51,7.57,1.95a7.91,7.91,0,0,1,2.81,6,6.83,6.83,0,0,1-2.42,5.3A6,6,0,0,1,102.51,192.18Zm-6-8.18L96,188.33h.72c2,0,3.28-.94,3.28-2.38S99.08,184,97.17,184Z"/><path class="cls-4" d="M128.89,177.55l-.75,6.27H121l-.33,2.63h6.49l-.72,6H120l-.32,2.74H127l-.79,6.45H110.15l3-24Z"/><path class="cls-4" d="M141,177.55,139,194.35l7.39-.22-.9,7.46H129.22l3-24Z"/><path class="cls-4" d="M156.62,198.38l-1.16,3.21h-9.37l11.1-24h9.95l4.47,24h-8.9l-.18-3.21Zm2-5.47H162l-.36-4.37c0-.39-.07-1-.07-1.69a14.55,14.55,0,0,1,.11-1.91h-.29a23.12,23.12,0,0,1-1.08,3.6Z"/><path class="cls-4" d="M200.7,177.55l-2.95,24h-8.44l-4.18-8.29a28.09,28.09,0,0,1-1.91-4.86l-.14-.44h-.29a26.22,26.22,0,0,1,.14,2.89,20.35,20.35,0,0,1-.11,2.41l-.75,8.29h-8.76l2.95-24H185l4.26,9a25.25,25.25,0,0,1,1.51,4.25l.21.79.37,0-.08-.8c-.1-1.33-.18-2.3-.18-3.31a24.39,24.39,0,0,1,.15-2.85l.61-7.1Z"/><path class="cls-4" d="M204.81,177.55H213c8.47,0,13.51,4.36,13.51,11.64a11.91,11.91,0,0,1-4.39,9.48c-2.67,2.13-5.55,2.92-10.6,2.92h-9.62Zm7.82,7.07-1.18,9.84h1.22a5.31,5.31,0,0,0,5.19-5.48,4.13,4.13,0,0,0-4.14-4.36Z"/></svg>