<?xml version="1.0" encoding="utf-8"?>
<!-- Generator: Adobe Illustrator 16.0.0, SVG Export Plug-In . SVG Version: 6.00 Build 0)  -->
<!DOCTYPE svg PUBLIC "-//W3C//DTD SVG 1.0//EN" "http://www.w3.org/TR/2001/REC-SVG-20010904/DTD/svg10.dtd">
<svg version="1.0" xmlns="http://www.w3.org/2000/svg" xmlns:xlink="http://www.w3.org/1999/xlink" x="0px" y="0px" width="300px"
	 height="300px" viewBox="0 0 300 300" style="enable-background:new 0 0 300 300;" xml:space="preserve">
<g id="Icon">
	<path style="fill:#6EC8BA;" d="M224.585,45.533v94.174c0,0.362-0.538,0.895-0.987,0.895H80.233c-0.634,0-0.895-0.263-0.895-0.895
		V44.639h145.247V45.533z M79.338,25.233c0-0.634,0.26-0.893,0.895-0.893h55.452c0.356,0,0.979,0.527,0.979,0.893V34.8H79.338
		V25.233z M224.585,34.978V34.8h-78.083v-9.567c0-2.955-1.089-5.443-3.222-7.604c-2.076-2.122-4.651-3.222-7.594-3.222H80.233
		c-3.045,0-5.617,1.1-7.697,3.222c-2.029,2.078-3.129,4.648-3.129,7.604v114.475c0,2.952,1.052,5.572,3.129,7.694
		c2.031,2.078,4.651,3.131,7.697,3.131h143.365c3.047,0,5.656-1.054,7.696-3.131c2.077-2.122,3.132-4.742,3.132-7.694V44.639
		C234.426,39.524,229.857,35.332,224.585,34.978"/>
</g>
<g id="Text" style="display:none;">
	<text transform="matrix(1 0 0 1 87.3701 77.5547)" style="display:inline;"><tspan x="0" y="0" style="fill:#1A2A4F; font-family:'FSMatthew-Bold'; font-size:32.8081;">T</tspan><tspan x="17.191" y="0" style="fill:#1A2A4F; font-family:'FSMatthew-Bold'; font-size:32.8081;">O</tspan><tspan x="38.352" y="0" style="fill:#1A2A4F; font-family:'FSMatthew-Bold'; font-size:32.8081;">P</tspan></text>
	<text transform="matrix(1 0 0 1 81.0732 129.6045)" style="display:inline;"><tspan x="0" y="0" style="fill:#1A2A4F; font-family:'FSMatthew-Bold'; font-size:65.4843;">15</tspan><tspan x="70.591" y="0" style="fill:#1A2A4F; font-family:'FSMatthew-Bold'; font-size:65.4843;">0</tspan></text>
	<text transform="matrix(1 0 0 1 79.0811 181.8164)" style="display:inline;"><tspan x="0" y="0" style="fill:#1A2A4F; font-family:'FSMatthew-Bold'; font-size:24.662;">W</tspan><tspan x="21.48" y="0" style="fill:#1A2A4F; font-family:'FSMatthew-Bold'; font-size:24.662;">e a</tspan><tspan x="53.343" y="0" style="fill:#1A2A4F; font-family:'FSMatthew-Bold'; font-size:24.662;">r</tspan><tspan x="62.517" y="0" style="fill:#1A2A4F; font-family:'FSMatthew-Bold'; font-size:24.662;">e in the </tspan></text>
	<text transform="matrix(1 0 0 1 90.7803 206.4785)" style="display:inline;"><tspan x="0" y="0" style="fill:#1A2A4F; font-family:'FSMatthew-Bold'; font-size:24.662;">w</tspan><tspan x="18.668" y="0" style="fill:#1A2A4F; font-family:'FSMatthew-Bold'; font-size:24.662;">orld</tspan><tspan x="62.591" y="0" style="fill:#1A2A4F; font-family:'FSMatthew-Bold'; font-size:24.662;">’</tspan><tspan x="67.079" y="0" style="fill:#1A2A4F; font-family:'FSMatthew-Bold'; font-size:24.662;">s</tspan><tspan x="78.201" y="0" style="fill:#1A2A4F; font-family:'FSMatthew-Bold'; font-size:24.662; letter-spacing:-1;"> </tspan><tspan x="82.542" y="0" style="fill:#1A2A4F; font-family:'FSMatthew-Bold'; font-size:24.662; letter-spacing:-1;">T</tspan><tspan x="94.577" y="0" style="fill:#1A2A4F; font-family:'FSMatthew-Bold'; font-size:24.662;">op</tspan></text>
	<text transform="matrix(1 0 0 1 64.0244 236.9668)" style="display:inline;"><tspan x="0" y="0" style="fill:#1A2A4F; font-family:'FSMatthew-Bold'; font-size:24.662;">150 uni</tspan><tspan x="81.21" y="0" style="fill:#1A2A4F; font-family:'FSMatthew-Bold'; font-size:24.662;">v</tspan><tspan x="94.134" y="0" style="fill:#1A2A4F; font-family:'FSMatthew-Bold'; font-size:24.662;">e</tspan><tspan x="107.18" y="0" style="fill:#1A2A4F; font-family:'FSMatthew-Bold'; font-size:24.662;">r</tspan><tspan x="116.403" y="0" style="fill:#1A2A4F; font-family:'FSMatthew-Bold'; font-size:24.662;">sities </tspan></text>
	<text transform="matrix(1 0 0 1 50.1768 261.6289)" style="display:inline;"><tspan x="0" y="0" style="fill:#1A2A4F; font-family:'FSMatthew-Bold'; font-size:24.662;">under 50 yea</tspan><tspan x="143.382" y="0" style="fill:#1A2A4F; font-family:'FSMatthew-Bold'; font-size:24.662;">r</tspan><tspan x="152.605" y="0" style="fill:#1A2A4F; font-family:'FSMatthew-Bold'; font-size:24.662;">s old</tspan></text>
	<text transform="matrix(1 0 0 1 56.6377 282.7949)" style="display:inline;"><tspan x="0" y="0" style="fill:#BAA875; font-family:'FSMatthew-Bold'; font-size:12.7835;">(</tspan><tspan x="4.909" y="0" style="fill:#BAA875; font-family:'FSMatthew-Bold'; font-size:12.7835;">Sou</tspan><tspan x="26.206" y="0" style="fill:#BAA875; font-family:'FSMatthew-Bold'; font-size:12.7835;">r</tspan><tspan x="30.961" y="0" style="fill:#BAA875; font-family:'FSMatthew-Bold'; font-size:12.7835;">c</tspan><tspan x="36.791" y="0" style="fill:#BAA875; font-family:'FSMatthew-Bold'; font-size:12.7835;">e:</tspan><tspan x="46.749" y="0" style="fill:#BAA875; font-family:'FSMatthew-Bold'; font-size:12.7835;"> </tspan><tspan x="48.998" y="0" style="fill:#BAA875; font-family:'FSMatthew-Bold'; font-size:12.7835;">Times Higher Edu</tspan><tspan x="149.321" y="0" style="fill:#BAA875; font-family:'FSMatthew-Bold'; font-size:12.7835;">c</tspan><tspan x="155.266" y="0" style="fill:#BAA875; font-family:'FSMatthew-Bold'; font-size:12.7835;">a</tspan><tspan x="162.104" y="0" style="fill:#BAA875; font-family:'FSMatthew-Bold'; font-size:12.7835;">tion)</tspan></text>
</g>
<g id="Text_Flat">
	<g>
		<path style="fill:#1A2A4F;" d="M104.561,59.38h-5.872v18.175c-0.624,0.099-1.509,0.164-2.33,0.164
			c-0.82,0-1.706-0.065-2.362-0.164V59.38h-5.873c-0.131-0.426-0.229-1.443-0.229-2.001s0.131-1.575,0.262-2.001h16.403
			c0.131,0.427,0.23,1.444,0.23,2.001S104.692,58.954,104.561,59.38z"/>
		<path style="fill:#1A2A4F;" d="M115.289,77.883c-6.069,0-9.284-4.199-9.284-11.417c0-7.218,3.215-11.417,9.284-11.417
			c6.069,0,9.284,4.199,9.284,11.417C124.573,73.684,121.358,77.883,115.289,77.883z M115.289,59.084
			c-2.821,0-4.429,2.166-4.429,7.382c0,5.216,1.607,7.381,4.429,7.381s4.429-2.166,4.429-7.381
			C119.718,61.25,118.11,59.084,115.289,59.084z"/>
		<path style="fill:#1A2A4F;" d="M135.17,69.616h-2.296v7.939c-0.624,0.099-1.378,0.164-2.362,0.164
			c-0.886,0-1.706-0.065-2.329-0.164V55.41c1.903-0.098,4.79-0.197,6.66-0.197c5.02,0,8.661,1.739,8.661,6.955
			C143.503,67.253,140.321,69.616,135.17,69.616z M135.039,59.084c-0.656,0-1.509,0.033-2.165,0.066v6.528h2.034
			c2.526,0,3.871-0.656,3.871-3.346C138.779,60.036,137.631,59.084,135.039,59.084z"/>
	</g>
	<g>
		<path style="fill:#1A2A4F;" d="M107.335,129.604c-0.982,0.196-2.75,0.328-4.65,0.328c-1.833,0-3.471-0.131-4.65-0.328V95.746
			l-9.299,6.156c-2.227-2.03-3.799-4.781-4.388-7.138l15.391-9.431c0.917-0.197,2.816-0.328,3.798-0.328
			c1.113,0,3.144,0.196,3.798,0.328V129.604z"/>
		<path style="fill:#1A2A4F;" d="M132.414,130.259c-3.537,0-8.776-0.72-12.378-1.964c-0.131-0.458-0.328-1.638-0.328-2.947
			c0-1.441,0.197-2.947,0.589-4.191c3.013,0.917,7.663,1.506,11.33,1.506c4.65,0,7.663-2.489,7.663-6.942
			c0-1.899-0.524-3.602-1.637-4.716c-1.441-1.44-3.864-2.03-7.4-2.03h-8.58V85.333h24.755c0.197,1.048,0.328,2.685,0.328,3.864
			c0,1.244-0.196,3.405-0.328,4.191h-16.373v8.121h2.882c5.108,0,9.168,0.917,12.05,3.406c2.554,2.227,3.995,5.632,3.995,10.348
			C148.983,125.282,141.321,130.259,132.414,130.259z"/>
		<path style="fill:#1A2A4F;" d="M169.543,130.259c-10.479,0-15.587-7.728-15.587-22.791c0-15.194,5.305-22.791,15.783-22.791
			c10.413,0,15.521,7.597,15.521,22.791C185.261,122.531,179.956,130.259,169.543,130.259z M169.608,92.34
			c-4.191,0-6.025,3.864-6.025,15.128c0,11.068,1.834,15.128,6.025,15.128s6.025-4.061,6.025-15.128
			C175.634,96.204,173.8,92.34,169.608,92.34z"/>
	</g>
	<g>
		<path style="fill:#1A2A4F;" d="M95.849,181.816c-0.32,0.049-0.962,0.123-1.652,0.123c-0.666,0-1.331-0.074-1.775-0.123
			l-2.021-8.236c-0.222-0.862-0.346-1.8-0.444-2.613h-0.024c-0.074,0.813-0.271,1.775-0.469,2.613l-1.997,8.236
			c-0.444,0.049-1.134,0.123-1.775,0.123c-0.616,0-1.356-0.074-1.701-0.123l-3.724-12.206c-0.395-1.282-0.641-2.811-0.641-4.463
			c0.518-0.099,1.159-0.123,1.702-0.123c0.912,0,1.356,0.049,1.75,0.123c0,1.603,0.222,2.935,0.518,4.068l1.504,5.696
			c0.222,0.888,0.444,2.047,0.567,3.156h0.049c0.124-1.109,0.321-2.269,0.543-3.181l2.317-9.74c0.444-0.074,0.863-0.123,1.307-0.123
			c0.468,0,0.888,0.049,1.356,0.123l2.367,9.765c0.222,0.888,0.469,2.047,0.592,3.156h0.05c0.123-1.109,0.345-2.269,0.592-3.181
			l1.578-5.672c0.32-1.134,0.567-2.466,0.567-4.068c0.395-0.074,1.11-0.123,1.849-0.123c0.493,0,1.159,0.049,1.628,0.123
			c0,1.825-0.271,3.206-0.666,4.463L95.849,181.816z"/>
		<path style="fill:#1A2A4F;" d="M112.742,176.589h-7.792c0.049,1.603,1.159,2.786,3.304,2.786c1.159,0,2.342-0.147,3.354-0.419
			c0.148,0.666,0.247,1.405,0.247,2.071c0,0.099,0,0.222-0.024,0.493c-1.258,0.37-2.564,0.542-3.847,0.542
			c-4.686,0-6.633-2.688-6.633-6.607c0-3.428,1.923-6.732,6.09-6.732c3.945,0,5.376,2.91,5.376,6.115
			C112.816,175.282,112.816,175.947,112.742,176.589z M109.413,174.147c0-1.554-0.419-2.86-2.021-2.86
			c-1.529,0-2.343,1.209-2.441,2.86H109.413z"/>
		<path style="fill:#1A2A4F;" d="M130.918,178.241c0,1.06,0.024,2.269,0.024,3.575c-0.395,0.099-1.061,0.123-1.479,0.123
			c-0.469,0-1.085-0.049-1.479-0.123c-0.049-0.296-0.099-0.813-0.123-1.135h-0.05c-0.838,0.863-2.269,1.381-3.575,1.381
			c-2.466,0-4.241-1.528-4.241-4.068c0-3.945,3.501-4.611,6.436-4.611c0.197,0,0.666,0.025,1.061,0.05
			c0-0.147-0.024-0.469-0.049-0.592c-0.172-1.011-0.838-1.431-2.269-1.431c-1.11,0-2.663,0.223-3.847,0.519
			c-0.124-0.346-0.197-0.938-0.197-1.381c0-0.37,0.049-0.938,0.148-1.184c1.381-0.419,3.082-0.642,4.488-0.642
			c3.083,0,5.154,1.431,5.154,4.636V178.241z M127.515,175.8c-0.296-0.024-0.69-0.05-1.035-0.05c-2.22,0-3.083,0.889-3.083,1.998
			c0,0.961,0.641,1.627,1.75,1.627c0.814,0,1.727-0.395,2.367-0.961V175.8z"/>
		<path style="fill:#1A2A4F;" d="M141.251,171.583c-1.282,0.197-2.663,0.642-3.896,1.282v8.951
			c-0.345,0.074-1.085,0.123-1.677,0.123s-1.455-0.049-1.726-0.123V168.97c0.37-0.05,0.986-0.124,1.479-0.124
			c0.419,0,1.085,0.05,1.43,0.124l0.197,1.578c0.912-0.813,2.564-1.702,4.167-1.825c0.05,0.197,0.099,0.912,0.099,1.431
			C141.325,170.646,141.301,171.238,141.251,171.583z"/>
		<path style="fill:#1A2A4F;" d="M153.779,176.589h-7.792c0.049,1.603,1.159,2.786,3.304,2.786c1.159,0,2.342-0.147,3.353-0.419
			c0.148,0.666,0.247,1.405,0.247,2.071c0,0.099,0,0.222-0.024,0.493c-1.258,0.37-2.564,0.542-3.847,0.542
			c-4.686,0-6.633-2.688-6.633-6.607c0-3.428,1.923-6.732,6.09-6.732c3.945,0,5.376,2.91,5.376,6.115
			C153.854,175.282,153.854,175.947,153.779,176.589z M150.45,174.147c0-1.554-0.419-2.86-2.021-2.86
			c-1.529,0-2.343,1.209-2.441,2.86H150.45z"/>
		<path style="fill:#1A2A4F;" d="M163.596,167.564c-1.036,0-1.875-0.839-1.875-1.875c0-1.035,0.839-1.873,1.875-1.873
			c1.035,0,1.873,0.838,1.873,1.873C165.469,166.726,164.631,167.564,163.596,167.564z M165.297,181.816
			c-0.444,0.099-1.356,0.123-1.751,0.123c-0.592,0-1.233-0.049-1.652-0.123V168.97c0.543-0.074,1.208-0.124,1.652-0.124
			c0.592,0,1.208,0.05,1.751,0.124V181.816z"/>
		<path style="fill:#1A2A4F;" d="M179.821,181.816c-0.395,0.099-1.233,0.123-1.628,0.123c-0.419,0-1.381-0.049-1.775-0.123v-8.434
			c0-1.331-0.689-1.898-1.8-1.898c-0.888,0-1.898,0.32-2.688,0.814v9.518c-0.567,0.099-1.356,0.123-1.8,0.123
			c-0.395,0-1.109-0.024-1.604-0.123V168.97c0.321-0.074,1.11-0.124,1.48-0.124c0.345,0,1.06,0.05,1.43,0.124l0.173,1.134
			c1.109-0.813,2.712-1.381,4.143-1.381c2.712,0,4.068,1.677,4.068,4.488V181.816z"/>
		<path style="fill:#1A2A4F;" d="M196.518,181.57c-0.74,0.295-1.627,0.492-3.058,0.492c-2.786,0-4.167-1.355-4.167-4.068v-6.484
			h-2.121c-0.099-0.37-0.172-0.986-0.172-1.308c0-0.296,0.073-0.838,0.147-1.085l2.146-0.147v-3.305
			c0.271-0.049,1.134-0.099,1.701-0.099c0.616,0,1.381,0.05,1.701,0.099v3.305h3.551c0.099,0.345,0.148,0.838,0.148,1.109
			c0,0.296-0.025,1.085-0.123,1.431h-3.576v5.991c0,1.233,0.493,1.775,1.701,1.775c0.666,0,1.48-0.099,2.047-0.296
			c0.099,0.32,0.223,0.938,0.223,1.504C196.666,180.781,196.616,181.299,196.518,181.57z"/>
		<path style="fill:#1A2A4F;" d="M210.278,173.211v8.605c-0.395,0.099-1.233,0.123-1.628,0.123c-0.419,0-1.381-0.049-1.775-0.123
			v-8.408c0-1.332-0.69-1.924-1.8-1.924c-0.888,0-1.973,0.32-2.762,0.814v9.518c-0.567,0.099-1.356,0.123-1.8,0.123
			c-0.395,0-1.109-0.024-1.604-0.123v-17.976c0.321-0.074,1.036-0.124,1.652-0.124c0.617,0,1.381,0.05,1.751,0.124v6.041
			c1.085-0.69,2.589-1.159,3.896-1.159C208.922,168.723,210.278,170.399,210.278,173.211z"/>
		<path style="fill:#1A2A4F;" d="M223.941,176.589h-7.793c0.05,1.603,1.159,2.786,3.305,2.786c1.159,0,2.343-0.147,3.354-0.419
			c0.148,0.666,0.246,1.405,0.246,2.071c0,0.099,0,0.222-0.024,0.493c-1.257,0.37-2.564,0.542-3.847,0.542
			c-4.685,0-6.633-2.688-6.633-6.607c0-3.428,1.924-6.732,6.091-6.732c3.945,0,5.375,2.91,5.375,6.115
			C224.015,175.282,224.015,175.947,223.941,176.589z M220.612,174.147c0-1.554-0.419-2.86-2.022-2.86
			c-1.528,0-2.342,1.209-2.441,2.86H220.612z"/>
	</g>
	<g>
		<path style="fill:#1A2A4F;" d="M105.354,206.479c-0.296,0.074-1.184,0.123-1.677,0.123c-0.518,0-1.282-0.049-1.554-0.123
			l-1.973-8.211h-0.049l-1.998,8.211c-0.246,0.049-1.184,0.123-1.627,0.123c-0.567,0-1.504-0.074-1.702-0.123l-2.712-9.074
			c-0.345-1.159-0.567-2.589-0.592-3.772c0.395-0.074,0.937-0.124,1.529-0.124c0.542,0,1.282,0.074,1.603,0.124
			c0,0.962,0.172,2.17,0.443,3.304l1.455,5.795h0.049l2.392-9.099c0.271-0.05,0.641-0.099,1.257-0.099
			c0.518,0,0.913,0.049,1.233,0.099l2.244,9.099h0.049l1.727-5.795c0.296-1.109,0.493-2.342,0.493-3.304
			c0.32-0.05,1.06-0.124,1.603-0.124c0.592,0,1.085,0.05,1.479,0.124c-0.024,1.282-0.197,2.243-0.567,3.378L105.354,206.479z"/>
		<path style="fill:#1A2A4F;" d="M116.329,206.725c-3.724,0-6.091-2.392-6.091-6.633c0-4.217,2.343-6.707,6.091-6.707
			s6.09,2.466,6.09,6.683S120.077,206.725,116.329,206.725z M116.329,196.048c-1.603,0-2.589,1.085-2.589,4.02
			s0.986,3.995,2.589,3.995c1.603,0,2.589-1.061,2.589-3.995C118.918,197.108,117.932,196.048,116.329,196.048z"/>
		<path style="fill:#1A2A4F;" d="M132.038,196.245c-1.282,0.197-2.663,0.642-3.896,1.282v8.951
			c-0.345,0.074-1.085,0.123-1.677,0.123s-1.455-0.049-1.726-0.123v-12.847c0.37-0.05,0.986-0.124,1.479-0.124
			c0.419,0,1.085,0.05,1.43,0.124l0.197,1.578c0.913-0.813,2.564-1.702,4.167-1.825c0.049,0.197,0.099,0.912,0.099,1.431
			C132.112,195.309,132.087,195.9,132.038,196.245z"/>
		<path style="fill:#1A2A4F;" d="M137.883,206.479c-0.444,0.099-1.356,0.123-1.75,0.123c-0.592,0-1.233-0.049-1.652-0.123v-17.976
			c0.542-0.074,1.208-0.124,1.652-0.124c0.592,0,1.282,0.05,1.75,0.124V206.479z"/>
		<path style="fill:#1A2A4F;" d="M151.891,206.479c-0.395,0.074-1.061,0.123-1.579,0.123c-0.468,0-1.011-0.049-1.356-0.123
			l-0.099-1.135c-0.888,0.863-2.022,1.381-3.354,1.381c-3.674,0-5.252-2.934-5.252-6.46c0-3.798,1.702-6.88,5.622-6.88
			c0.961,0,2.071,0.296,2.614,0.642v-5.523c0.444-0.074,1.184-0.124,1.726-0.124c0.666,0,1.183,0.074,1.677,0.124V206.479z
			 M148.487,196.566c-0.592-0.271-1.356-0.42-1.997-0.42c-1.998,0-2.737,1.775-2.737,3.921c0,1.8,0.444,3.847,2.441,3.847
			c0.961,0,1.701-0.395,2.293-0.888V196.566z"/>
		<path style="fill:#1A2A4F;" d="M155.641,191.93c-0.765-0.271-1.356-0.961-1.356-1.849c0-1.036,0.641-1.775,1.701-1.775
			c1.282,0,2.047,1.035,2.047,2.44c0,1.825-1.061,3.971-2.589,5.326c-0.543-0.222-0.986-0.592-1.283-1.084
			C154.9,194.149,155.517,192.916,155.641,191.93z"/>
		<path style="fill:#1A2A4F;" d="M163.186,206.725c-1.455,0-2.983-0.222-4.167-0.616c-0.074-0.37-0.099-0.838-0.099-1.331
			c0-0.395,0.099-0.962,0.197-1.307c1.134,0.395,2.762,0.665,3.723,0.665c1.332,0,2.097-0.443,2.097-1.356
			c0-0.789-0.616-1.158-2.244-1.676c-2.589-0.814-3.798-2.022-3.798-3.896c0-2.786,2.564-3.822,5.006-3.822
			c1.135,0,2.393,0.197,3.255,0.469c0.099,0.37,0.148,0.888,0.148,1.184c0,0.32-0.099,0.986-0.222,1.405
			c-0.839-0.246-1.998-0.443-2.959-0.443c-1.184,0-1.998,0.296-1.998,1.035c0,0.789,0.912,1.11,2.343,1.578
			c2.49,0.813,3.674,1.85,3.674,3.798C168.142,205.418,165.726,206.725,163.186,206.725z"/>
		<path style="fill:#1A2A4F;" d="M186.243,192.818h-4.414v13.66c-0.468,0.074-1.134,0.123-1.751,0.123
			c-0.616,0-1.281-0.049-1.775-0.123v-13.66h-4.413c-0.099-0.321-0.173-1.086-0.173-1.505s0.099-1.184,0.197-1.504h12.329
			c0.099,0.32,0.173,1.085,0.173,1.504S186.342,192.497,186.243,192.818z"/>
		<path style="fill:#1A2A4F;" d="M192.237,206.725c-3.724,0-6.091-2.392-6.091-6.633c0-4.217,2.343-6.707,6.091-6.707
			s6.091,2.466,6.091,6.683S195.985,206.725,192.237,206.725z M192.237,196.048c-1.603,0-2.589,1.085-2.589,4.02
			s0.986,3.995,2.589,3.995s2.589-1.061,2.589-3.995C194.826,197.108,193.84,196.048,192.237,196.048z"/>
		<path style="fill:#1A2A4F;" d="M206.467,206.479c-0.765,0-1.801-0.123-2.417-0.296v6.091c-0.444,0.074-1.184,0.123-1.726,0.123
			c-0.666,0-1.184-0.074-1.678-0.123v-18.617c0.395-0.074,1.061-0.123,1.578-0.123c0.469,0,0.986,0.049,1.332,0.123l0.123,1.061
			c0.789-0.74,2.22-1.332,3.551-1.332c3.526,0,5.104,2.885,5.104,6.189C212.335,203.396,210.362,206.479,206.467,206.479z
			 M206.516,196.146c-0.912,0-1.874,0.37-2.466,0.912v6.535c0.469,0.147,1.381,0.246,2.022,0.246c1.824,0,2.762-1.504,2.762-3.994
			C208.834,197.404,207.945,196.146,206.516,196.146z"/>
	</g>
	<g>
		<path style="fill:#1A2A4F;" d="M73.912,236.967c-0.37,0.074-1.035,0.123-1.75,0.123c-0.69,0-1.307-0.049-1.75-0.123v-12.748
			l-3.502,2.317c-0.838-0.765-1.43-1.8-1.652-2.688l5.794-3.551c0.346-0.074,1.061-0.123,1.431-0.123
			c0.419,0,1.184,0.073,1.43,0.123V236.967z"/>
		<path style="fill:#1A2A4F;" d="M83.58,237.213c-1.331,0-3.304-0.271-4.66-0.739c-0.049-0.173-0.123-0.616-0.123-1.109
			c0-0.543,0.074-1.11,0.222-1.578c1.134,0.345,2.885,0.567,4.266,0.567c1.751,0,2.885-0.938,2.885-2.614
			c0-0.715-0.197-1.356-0.617-1.775c-0.542-0.542-1.455-0.765-2.786-0.765h-3.23v-8.901h9.321c0.074,0.395,0.123,1.011,0.123,1.455
			c0,0.468-0.074,1.282-0.123,1.578h-6.165v3.058h1.085c1.924,0,3.452,0.345,4.537,1.282c0.962,0.838,1.504,2.12,1.504,3.896
			C89.819,235.34,86.934,237.213,83.58,237.213z"/>
		<path style="fill:#1A2A4F;" d="M97.785,237.213c-3.945,0-5.869-2.909-5.869-8.58c0-5.721,1.998-8.582,5.943-8.582
			c3.92,0,5.844,2.861,5.844,8.582C103.703,234.304,101.706,237.213,97.785,237.213z M97.81,222.937
			c-1.578,0-2.269,1.454-2.269,5.696c0,4.167,0.69,5.695,2.269,5.695s2.269-1.528,2.269-5.695
			C100.078,224.391,99.388,222.937,97.81,222.937z"/>
		<path style="fill:#1A2A4F;" d="M122.643,232.011c0,3.674-1.726,5.202-5.573,5.202c-3.748,0-5.474-1.528-5.474-5.202v-7.891
			c0.345-0.05,1.011-0.124,1.677-0.124c0.592,0,1.332,0.05,1.726,0.124v7.866c0,1.923,0.567,2.613,2.121,2.613
			c1.578,0,2.121-0.69,2.121-2.613v-7.866c0.345-0.074,1.109-0.124,1.726-0.124s1.43,0.074,1.677,0.124V232.011z"/>
		<path style="fill:#1A2A4F;" d="M136.947,236.967c-0.395,0.099-1.233,0.123-1.627,0.123c-0.419,0-1.381-0.049-1.775-0.123v-8.434
			c0-1.331-0.69-1.898-1.8-1.898c-0.888,0-1.899,0.32-2.688,0.814v9.518c-0.567,0.099-1.356,0.123-1.8,0.123
			c-0.395,0-1.109-0.024-1.603-0.123V224.12c0.32-0.074,1.109-0.124,1.479-0.124c0.345,0,1.061,0.05,1.43,0.124l0.172,1.134
			c1.11-0.813,2.713-1.381,4.143-1.381c2.713,0,4.069,1.677,4.069,4.488V236.967z"/>
		<path style="fill:#1A2A4F;" d="M141.831,222.715c-1.036,0-1.874-0.839-1.874-1.875c0-1.035,0.838-1.873,1.874-1.873
			s1.874,0.838,1.874,1.873C143.705,221.876,142.867,222.715,141.831,222.715z M143.532,236.967
			c-0.443,0.099-1.356,0.123-1.75,0.123c-0.592,0-1.233-0.049-1.652-0.123V224.12c0.542-0.074,1.208-0.124,1.652-0.124
			c0.592,0,1.208,0.05,1.75,0.124V236.967z"/>
		<path style="fill:#1A2A4F;" d="M156.972,227.893l-3.698,9.074c-0.247,0.049-0.889,0.123-1.529,0.123
			c-0.666,0-1.381-0.074-1.677-0.123l-3.551-9.123c-0.469-1.233-0.69-2.441-0.69-3.724c0.444-0.074,1.061-0.124,1.578-0.124
			c0.715,0,1.208,0.05,1.603,0.124c0,0.912,0.124,1.923,0.444,2.885l2.269,6.51h0.049l2.343-6.51c0.32-0.962,0.443-1.8,0.443-2.885
			c0.346-0.05,1.086-0.124,1.628-0.124s1.109,0.05,1.504,0.124C157.687,225.501,157.44,226.758,156.972,227.893z"/>
		<path style="fill:#1A2A4F;" d="M170.338,231.739h-7.791c0.049,1.603,1.158,2.786,3.304,2.786c1.159,0,2.343-0.147,3.354-0.419
			c0.147,0.666,0.247,1.405,0.247,2.071c0,0.099,0,0.222-0.025,0.493c-1.258,0.37-2.564,0.542-3.847,0.542
			c-4.685,0-6.633-2.688-6.633-6.607c0-3.428,1.923-6.732,6.091-6.732c3.945,0,5.375,2.91,5.375,6.115
			C170.412,230.433,170.412,231.098,170.338,231.739z M167.01,229.298c0-1.554-0.42-2.86-2.022-2.86c-1.528,0-2.343,1.209-2.44,2.86
			H167.01z"/>
		<path style="fill:#1A2A4F;" d="M180.031,226.733c-1.283,0.197-2.664,0.642-3.896,1.282v8.951
			c-0.346,0.074-1.085,0.123-1.677,0.123s-1.455-0.049-1.726-0.123V224.12c0.369-0.05,0.986-0.124,1.479-0.124
			c0.42,0,1.086,0.05,1.431,0.124l0.197,1.578c0.912-0.813,2.564-1.702,4.167-1.825c0.05,0.197,0.099,0.912,0.099,1.431
			C180.104,225.797,180.08,226.389,180.031,226.733z"/>
		<path style="fill:#1A2A4F;" d="M185.753,237.213c-1.455,0-2.983-0.222-4.167-0.616c-0.074-0.37-0.099-0.838-0.099-1.331
			c0-0.395,0.099-0.962,0.197-1.307c1.134,0.395,2.762,0.665,3.724,0.665c1.331,0,2.096-0.443,2.096-1.356
			c0-0.789-0.617-1.158-2.244-1.676c-2.589-0.814-3.797-2.022-3.797-3.896c0-2.786,2.564-3.822,5.005-3.822
			c1.135,0,2.392,0.197,3.255,0.469c0.099,0.37,0.148,0.888,0.148,1.184c0,0.32-0.099,0.986-0.223,1.405
			c-0.838-0.246-1.997-0.443-2.959-0.443c-1.184,0-1.997,0.296-1.997,1.035c0,0.789,0.913,1.11,2.343,1.578
			c2.49,0.813,3.674,1.85,3.674,3.798C190.709,235.906,188.293,237.213,185.753,237.213z"/>
		<path style="fill:#1A2A4F;" d="M194.951,222.715c-1.035,0-1.873-0.839-1.873-1.875c0-1.035,0.838-1.873,1.873-1.873
			c1.036,0,1.875,0.838,1.875,1.873C196.826,221.876,195.987,222.715,194.951,222.715z M196.653,236.967
			c-0.444,0.099-1.356,0.123-1.751,0.123c-0.592,0-1.232-0.049-1.652-0.123V224.12c0.543-0.074,1.209-0.124,1.652-0.124
			c0.592,0,1.208,0.05,1.751,0.124V236.967z"/>
		<path style="fill:#1A2A4F;" d="M208.021,236.721c-0.739,0.295-1.628,0.492-3.058,0.492c-2.786,0-4.167-1.355-4.167-4.068v-6.484
			h-2.121c-0.099-0.37-0.173-0.986-0.173-1.308c0-0.296,0.074-0.838,0.148-1.085l2.146-0.147v-3.305
			c0.271-0.049,1.134-0.099,1.701-0.099c0.616,0,1.381,0.05,1.701,0.099v3.305h3.551c0.099,0.345,0.148,0.838,0.148,1.109
			c0,0.296-0.024,1.085-0.124,1.431h-3.575v5.991c0,1.233,0.493,1.775,1.702,1.775c0.665,0,1.479-0.099,2.046-0.296
			c0.099,0.32,0.222,0.938,0.222,1.504C208.168,235.932,208.119,236.449,208.021,236.721z"/>
		<path style="fill:#1A2A4F;" d="M212.287,222.715c-1.035,0-1.873-0.839-1.873-1.875c0-1.035,0.838-1.873,1.873-1.873
			c1.036,0,1.875,0.838,1.875,1.873C214.162,221.876,213.323,222.715,212.287,222.715z M213.989,236.967
			c-0.444,0.099-1.356,0.123-1.751,0.123c-0.592,0-1.232-0.049-1.652-0.123V224.12c0.543-0.074,1.209-0.124,1.652-0.124
			c0.592,0,1.208,0.05,1.751,0.124V236.967z"/>
		<path style="fill:#1A2A4F;" d="M227.873,231.739h-7.793c0.05,1.603,1.159,2.786,3.305,2.786c1.159,0,2.343-0.147,3.354-0.419
			c0.148,0.666,0.246,1.405,0.246,2.071c0,0.099,0,0.222-0.024,0.493c-1.257,0.37-2.564,0.542-3.847,0.542
			c-4.685,0-6.633-2.688-6.633-6.607c0-3.428,1.924-6.732,6.091-6.732c3.945,0,5.375,2.91,5.375,6.115
			C227.946,230.433,227.946,231.098,227.873,231.739z M224.544,229.298c0-1.554-0.419-2.86-2.022-2.86
			c-1.528,0-2.342,1.209-2.441,2.86H224.544z"/>
		<path style="fill:#1A2A4F;" d="M234.063,237.213c-1.455,0-2.983-0.222-4.167-0.616c-0.074-0.37-0.099-0.838-0.099-1.331
			c0-0.395,0.099-0.962,0.197-1.307c1.134,0.395,2.762,0.665,3.724,0.665c1.331,0,2.096-0.443,2.096-1.356
			c0-0.789-0.617-1.158-2.244-1.676c-2.589-0.814-3.797-2.022-3.797-3.896c0-2.786,2.564-3.822,5.005-3.822
			c1.135,0,2.392,0.197,3.255,0.469c0.099,0.37,0.148,0.888,0.148,1.184c0,0.32-0.099,0.986-0.223,1.405
			c-0.838-0.246-1.997-0.443-2.959-0.443c-1.184,0-1.997,0.296-1.997,1.035c0,0.789,0.913,1.11,2.343,1.578
			c2.49,0.813,3.674,1.85,3.674,3.798C239.02,235.906,236.604,237.213,234.063,237.213z"/>
	</g>
	<g>
		<path style="fill:#1A2A4F;" d="M62.703,256.673c0,3.674-1.726,5.202-5.573,5.202c-3.748,0-5.474-1.528-5.474-5.202v-7.891
			c0.345-0.05,1.011-0.124,1.677-0.124c0.592,0,1.332,0.05,1.726,0.124v7.866c0,1.923,0.567,2.613,2.121,2.613
			c1.578,0,2.121-0.69,2.121-2.613v-7.866c0.345-0.074,1.11-0.124,1.726-0.124s1.43,0.074,1.677,0.124V256.673z"/>
		<path style="fill:#1A2A4F;" d="M77.007,261.629c-0.395,0.099-1.233,0.123-1.627,0.123c-0.419,0-1.381-0.049-1.775-0.123v-8.434
			c0-1.331-0.69-1.898-1.8-1.898c-0.888,0-1.898,0.32-2.688,0.814v9.518c-0.567,0.099-1.356,0.123-1.8,0.123
			c-0.395,0-1.11-0.024-1.603-0.123v-12.847c0.321-0.074,1.11-0.124,1.479-0.124c0.345,0,1.06,0.05,1.43,0.124l0.173,1.134
			c1.109-0.813,2.712-1.381,4.143-1.381c2.712,0,4.068,1.677,4.068,4.488V261.629z"/>
		<path style="fill:#1A2A4F;" d="M90.916,261.629c-0.395,0.074-1.061,0.123-1.578,0.123c-0.469,0-1.011-0.049-1.356-0.123
			l-0.099-1.135c-0.888,0.863-2.021,1.381-3.354,1.381c-3.674,0-5.252-2.934-5.252-6.46c0-3.798,1.701-6.88,5.622-6.88
			c0.962,0,2.071,0.296,2.614,0.642v-5.523c0.444-0.074,1.184-0.124,1.726-0.124c0.666,0,1.184,0.074,1.677,0.124V261.629z
			 M87.513,251.717c-0.592-0.271-1.356-0.42-1.998-0.42c-1.997,0-2.737,1.775-2.737,3.921c0,1.8,0.444,3.847,2.441,3.847
			c0.962,0,1.702-0.395,2.293-0.888V251.717z"/>
		<path style="fill:#1A2A4F;" d="M104.579,256.401h-7.792c0.049,1.603,1.159,2.786,3.304,2.786c1.159,0,2.343-0.147,3.354-0.419
			c0.148,0.666,0.247,1.405,0.247,2.071c0,0.099,0,0.222-0.025,0.493c-1.257,0.37-2.564,0.542-3.847,0.542
			c-4.685,0-6.633-2.688-6.633-6.607c0-3.428,1.923-6.732,6.091-6.732c3.945,0,5.375,2.91,5.375,6.115
			C104.652,255.095,104.652,255.76,104.579,256.401z M101.25,253.96c0-1.554-0.419-2.86-2.022-2.86c-1.528,0-2.342,1.209-2.441,2.86
			H101.25z"/>
		<path style="fill:#1A2A4F;" d="M114.271,251.396c-1.282,0.197-2.663,0.642-3.896,1.282v8.951
			c-0.345,0.074-1.085,0.123-1.677,0.123s-1.455-0.049-1.726-0.123v-12.847c0.37-0.05,0.986-0.124,1.479-0.124
			c0.419,0,1.085,0.05,1.43,0.124l0.197,1.578c0.912-0.813,2.564-1.702,4.167-1.825c0.05,0.197,0.099,0.912,0.099,1.431
			C114.345,250.459,114.32,251.051,114.271,251.396z"/>
		<path style="fill:#1A2A4F;" d="M126.726,261.875c-1.332,0-3.305-0.271-4.661-0.739c-0.049-0.173-0.124-0.616-0.124-1.109
			c0-0.543,0.074-1.11,0.222-1.578c1.134,0.345,2.885,0.567,4.266,0.567c1.75,0,2.885-0.938,2.885-2.614
			c0-0.715-0.197-1.356-0.616-1.775c-0.543-0.542-1.455-0.765-2.787-0.765h-3.23v-8.901h9.32c0.074,0.395,0.124,1.011,0.124,1.455
			c0,0.468-0.074,1.282-0.124,1.578h-6.164v3.058h1.085c1.923,0,3.452,0.345,4.537,1.282c0.961,0.838,1.504,2.12,1.504,3.896
			C132.964,260.002,130.079,261.875,126.726,261.875z"/>
		<path style="fill:#1A2A4F;" d="M140.93,261.875c-3.945,0-5.868-2.909-5.868-8.58c0-5.721,1.997-8.582,5.942-8.582
			c3.921,0,5.844,2.861,5.844,8.582C146.848,258.966,144.851,261.875,140.93,261.875z M140.955,247.599
			c-1.578,0-2.269,1.454-2.269,5.696c0,4.167,0.69,5.695,2.269,5.695s2.269-1.528,2.269-5.695
			C143.223,249.053,142.533,247.599,140.955,247.599z"/>
		<path style="fill:#1A2A4F;" d="M165.714,259.36c0,1.874-0.099,3.945-1.06,5.573c-1.159,1.947-3.107,2.762-5.302,2.762
			c-1.233,0-2.639-0.173-3.772-0.519c-0.074-0.222-0.124-0.813-0.124-1.184c0-0.296,0.099-1.011,0.173-1.307
			c0.986,0.271,2.318,0.444,3.23,0.444c1.479,0,2.367-0.519,2.909-1.505c0.493-0.888,0.567-1.874,0.567-2.835
			c-0.863,0.665-1.997,1.084-3.058,1.084c-3.23,0-4.537-1.676-4.537-4.857v-8.235c0.395-0.099,1.233-0.124,1.628-0.124
			c0.419,0,1.381,0.05,1.775,0.124v8.038c0,1.578,0.566,2.269,1.973,2.269c0.887,0,1.676-0.37,2.194-0.862v-9.444
			c0.567-0.099,1.356-0.124,1.8-0.124c0.395,0,1.109,0.025,1.603,0.124V259.36z"/>
		<path style="fill:#1A2A4F;" d="M179.426,256.401h-7.791c0.049,1.603,1.158,2.786,3.304,2.786c1.159,0,2.343-0.147,3.354-0.419
			c0.147,0.666,0.247,1.405,0.247,2.071c0,0.099,0,0.222-0.025,0.493c-1.258,0.37-2.564,0.542-3.847,0.542
			c-4.685,0-6.633-2.688-6.633-6.607c0-3.428,1.923-6.732,6.091-6.732c3.945,0,5.375,2.91,5.375,6.115
			C179.5,255.095,179.5,255.76,179.426,256.401z M176.098,253.96c0-1.554-0.42-2.86-2.022-2.86c-1.528,0-2.343,1.209-2.44,2.86
			H176.098z"/>
		<path style="fill:#1A2A4F;" d="M192.053,258.054c0,1.06,0.025,2.269,0.025,3.575c-0.395,0.099-1.061,0.123-1.48,0.123
			c-0.468,0-1.084-0.049-1.479-0.123c-0.05-0.296-0.1-0.813-0.124-1.135h-0.049c-0.839,0.863-2.269,1.381-3.575,1.381
			c-2.467,0-4.242-1.528-4.242-4.068c0-3.945,3.502-4.611,6.437-4.611c0.197,0,0.665,0.025,1.06,0.05
			c0-0.147-0.024-0.469-0.049-0.592c-0.173-1.011-0.838-1.431-2.269-1.431c-1.109,0-2.663,0.223-3.847,0.519
			c-0.123-0.346-0.197-0.938-0.197-1.381c0-0.37,0.049-0.938,0.148-1.184c1.381-0.419,3.082-0.642,4.487-0.642
			c3.082,0,5.153,1.431,5.153,4.636V258.054z M188.65,255.612c-0.296-0.024-0.69-0.05-1.036-0.05c-2.219,0-3.082,0.889-3.082,1.998
			c0,0.961,0.642,1.627,1.751,1.627c0.813,0,1.726-0.395,2.367-0.961V255.612z"/>
		<path style="fill:#1A2A4F;" d="M202.387,251.396c-1.283,0.197-2.664,0.642-3.896,1.282v8.951
			c-0.346,0.074-1.085,0.123-1.677,0.123s-1.455-0.049-1.726-0.123v-12.847c0.369-0.05,0.986-0.124,1.479-0.124
			c0.42,0,1.086,0.05,1.431,0.124l0.197,1.578c0.912-0.813,2.564-1.702,4.167-1.825c0.05,0.197,0.099,0.912,0.099,1.431
			C202.46,250.459,202.436,251.051,202.387,251.396z"/>
		<path style="fill:#1A2A4F;" d="M208.108,261.875c-1.455,0-2.983-0.222-4.167-0.616c-0.074-0.37-0.099-0.838-0.099-1.331
			c0-0.395,0.099-0.962,0.197-1.307c1.134,0.395,2.762,0.665,3.724,0.665c1.331,0,2.096-0.443,2.096-1.356
			c0-0.789-0.617-1.158-2.244-1.676c-2.589-0.814-3.797-2.022-3.797-3.896c0-2.786,2.564-3.822,5.005-3.822
			c1.135,0,2.392,0.197,3.255,0.469c0.099,0.37,0.148,0.888,0.148,1.184c0,0.32-0.099,0.986-0.223,1.405
			c-0.838-0.246-1.997-0.443-2.959-0.443c-1.184,0-1.997,0.296-1.997,1.035c0,0.789,0.913,1.11,2.343,1.578
			c2.49,0.813,3.674,1.85,3.674,3.798C213.064,260.568,210.648,261.875,208.108,261.875z"/>
		<path style="fill:#1A2A4F;" d="M226.333,261.875c-3.724,0-6.091-2.392-6.091-6.633c0-4.217,2.343-6.707,6.091-6.707
			s6.091,2.466,6.091,6.683S230.081,261.875,226.333,261.875z M226.333,251.198c-1.603,0-2.589,1.085-2.589,4.02
			s0.986,3.995,2.589,3.995s2.589-1.061,2.589-3.995C228.922,252.259,227.936,251.198,226.333,251.198z"/>
		<path style="fill:#1A2A4F;" d="M238.195,261.629c-0.444,0.099-1.356,0.123-1.751,0.123c-0.592,0-1.233-0.049-1.652-0.123v-17.976
			c0.542-0.074,1.208-0.124,1.652-0.124c0.592,0,1.282,0.05,1.751,0.124V261.629z"/>
		<path style="fill:#1A2A4F;" d="M252.202,261.629c-0.395,0.074-1.061,0.123-1.578,0.123c-0.469,0-1.011-0.049-1.356-0.123
			l-0.099-1.135c-0.888,0.863-2.021,1.381-3.354,1.381c-3.674,0-5.252-2.934-5.252-6.46c0-3.798,1.701-6.88,5.622-6.88
			c0.962,0,2.071,0.296,2.613,0.642v-5.523c0.444-0.074,1.184-0.124,1.727-0.124c0.666,0,1.184,0.074,1.677,0.124V261.629z
			 M248.799,251.717c-0.592-0.271-1.355-0.42-1.997-0.42c-1.997,0-2.737,1.775-2.737,3.921c0,1.8,0.444,3.847,2.441,3.847
			c0.962,0,1.701-0.395,2.293-0.888V251.717z"/>
	</g>
	<g>
		<path style="fill:#BAA875;" d="M59.962,284.56c-1.637-1.509-2.634-3.351-2.634-5.55c0-2.237,1.036-4.13,2.634-5.549
			c0.383,0.076,0.831,0.435,1.01,0.69c-1.253,1.329-1.918,3.068-1.918,4.858s0.716,3.479,1.918,4.859
			C60.793,284.125,60.346,284.482,59.962,284.56z"/>
		<path style="fill:#BAA875;" d="M64.858,282.923c-0.934,0-1.957-0.179-2.686-0.512c-0.038-0.179-0.064-0.409-0.064-0.613
			c0-0.308,0.039-0.602,0.128-0.946c0.754,0.307,1.752,0.498,2.532,0.498c0.908,0,1.394-0.422,1.394-0.997
			c0-0.64-0.409-0.908-1.65-1.291c-1.381-0.422-2.391-1.087-2.391-2.57c0-1.586,1.369-2.468,3.171-2.468
			c0.831,0,1.573,0.128,2.071,0.294c0.039,0.141,0.064,0.371,0.064,0.703c0,0.243-0.025,0.614-0.077,0.818
			c-0.639-0.166-1.368-0.256-1.957-0.256c-0.959,0-1.483,0.319-1.483,0.831c0,0.602,0.473,0.844,1.624,1.202
			c1.381,0.435,2.404,1.087,2.404,2.621C67.94,281.913,66.623,282.923,64.858,282.923z"/>
		<path style="fill:#BAA875;" d="M72.017,282.923c-1.931,0-3.158-1.24-3.158-3.439c0-2.187,1.215-3.479,3.158-3.479
			c1.944,0,3.159,1.279,3.159,3.466S73.961,282.923,72.017,282.923z M72.017,277.386c-0.831,0-1.342,0.562-1.342,2.085
			c0,1.521,0.511,2.071,1.342,2.071c0.832,0,1.343-0.55,1.343-2.071C73.36,277.936,72.849,277.386,72.017,277.386z"/>
		<path style="fill:#BAA875;" d="M82.078,280.225c0,1.905-0.895,2.698-2.89,2.698c-1.944,0-2.839-0.793-2.839-2.698v-4.092
			c0.179-0.025,0.524-0.063,0.87-0.063c0.307,0,0.69,0.025,0.895,0.063v4.079c0,0.997,0.294,1.355,1.1,1.355
			c0.818,0,1.1-0.358,1.1-1.355v-4.079c0.179-0.038,0.576-0.063,0.896-0.063c0.319,0,0.741,0.038,0.869,0.063V280.225z"/>
		<path style="fill:#BAA875;" d="M87.421,277.488c-0.665,0.103-1.381,0.333-2.02,0.665v4.642c-0.179,0.038-0.563,0.063-0.87,0.063
			c-0.307,0-0.754-0.025-0.895-0.063v-6.662c0.191-0.025,0.511-0.063,0.767-0.063c0.217,0,0.562,0.025,0.742,0.063l0.102,0.818
			c0.473-0.422,1.33-0.882,2.161-0.946c0.025,0.103,0.051,0.474,0.051,0.742C87.46,277.003,87.447,277.31,87.421,277.488z"/>
		<path style="fill:#BAA875;" d="M93.123,276.849c0,0.281-0.039,0.589-0.128,0.857c-0.422-0.167-0.972-0.269-1.496-0.269
			c-0.997,0-1.675,0.639-1.675,2.071c0,1.253,0.575,1.981,1.688,1.981c0.576,0,1.125-0.102,1.535-0.242
			c0.077,0.281,0.115,0.626,0.115,0.895c0,0.18,0,0.307-0.013,0.422c-0.511,0.23-1.189,0.358-1.828,0.358
			c-2.212,0-3.312-1.292-3.312-3.389c0-2.174,1.151-3.529,3.389-3.529c0.626,0,1.24,0.128,1.675,0.333
			C93.11,276.479,93.123,276.657,93.123,276.849z"/>
		<path style="fill:#BAA875;" d="M99.745,280.084h-4.041c0.026,0.831,0.601,1.445,1.714,1.445c0.601,0,1.214-0.077,1.739-0.218
			c0.077,0.346,0.128,0.729,0.128,1.074c0,0.051,0,0.115-0.013,0.256c-0.652,0.191-1.33,0.281-1.995,0.281
			c-2.429,0-3.439-1.394-3.439-3.427c0-1.777,0.998-3.491,3.158-3.491c2.046,0,2.788,1.509,2.788,3.171
			C99.783,279.406,99.783,279.752,99.745,280.084z M98.019,278.818c0-0.806-0.217-1.483-1.048-1.483
			c-0.793,0-1.215,0.627-1.266,1.483H98.019z"/>
		<path style="fill:#BAA875;" d="M101.789,277.897c-0.511,0-0.933-0.422-0.933-0.934c0-0.511,0.422-0.934,0.933-0.934
			c0.512,0,0.934,0.423,0.934,0.934C102.722,277.476,102.3,277.897,101.789,277.897z M101.789,283c-0.511,0-0.933-0.423-0.933-0.934
			c0-0.512,0.422-0.934,0.933-0.934c0.512,0,0.934,0.422,0.934,0.934C102.722,282.577,102.3,283,101.789,283z"/>
		<path style="fill:#BAA875;" d="M112.336,275.711h-2.289v7.084c-0.243,0.038-0.588,0.063-0.908,0.063
			c-0.319,0-0.665-0.025-0.92-0.063v-7.084h-2.289c-0.051-0.166-0.089-0.562-0.089-0.78c0-0.217,0.051-0.613,0.103-0.779h6.393
			c0.051,0.166,0.09,0.562,0.09,0.779C112.426,275.148,112.388,275.545,112.336,275.711z"/>
		<path style="fill:#BAA875;" d="M114.394,275.404c-0.537,0-0.972-0.435-0.972-0.972s0.435-0.972,0.972-0.972
			s0.972,0.435,0.972,0.972S114.931,275.404,114.394,275.404z M115.276,282.795c-0.23,0.051-0.704,0.063-0.908,0.063
			c-0.307,0-0.64-0.025-0.857-0.063v-6.662c0.281-0.038,0.626-0.063,0.857-0.063c0.307,0,0.626,0.025,0.908,0.063V282.795z"/>
		<path style="fill:#BAA875;" d="M126.949,282.795c-0.205,0.051-0.639,0.063-0.844,0.063c-0.217,0-0.716-0.025-0.921-0.063v-4.015
			c0-0.486-0.013-0.845-0.191-1.062c-0.167-0.205-0.422-0.281-0.742-0.281c-0.435,0-1.049,0.191-1.445,0.435
			c0.013,0.218,0.026,0.435,0.026,0.69v4.232c-0.205,0.051-0.639,0.063-0.844,0.063c-0.217,0-0.716-0.025-0.92-0.063v-4.015
			c0-0.486-0.013-0.845-0.192-1.062c-0.166-0.205-0.422-0.281-0.742-0.281c-0.447,0-1.023,0.179-1.419,0.422v4.936
			c-0.294,0.051-0.703,0.063-0.933,0.063c-0.205,0-0.576-0.013-0.831-0.063v-6.662c0.166-0.038,0.575-0.063,0.767-0.063
			c0.179,0,0.55,0.025,0.742,0.063l0.077,0.602c0.562-0.423,1.368-0.729,2.084-0.729c0.742,0,1.394,0.256,1.893,0.806
			c0.69-0.473,1.521-0.806,2.366-0.806c0.626,0,1.266,0.256,1.585,0.64c0.396,0.473,0.486,1.087,0.486,2.021V282.795z"/>
		<path style="fill:#BAA875;" d="M134.03,280.084h-4.041c0.026,0.831,0.601,1.445,1.713,1.445c0.601,0,1.215-0.077,1.739-0.218
			c0.077,0.346,0.128,0.729,0.128,1.074c0,0.051,0,0.115-0.013,0.256c-0.652,0.191-1.33,0.281-1.995,0.281
			c-2.429,0-3.439-1.394-3.439-3.427c0-1.777,0.998-3.491,3.158-3.491c2.046,0,2.788,1.509,2.788,3.171
			C134.068,279.406,134.068,279.752,134.03,280.084z M132.303,278.818c0-0.806-0.217-1.483-1.048-1.483
			c-0.793,0-1.215,0.627-1.266,1.483H132.303z"/>
		<path style="fill:#BAA875;" d="M137.237,282.923c-0.755,0-1.547-0.115-2.161-0.319c-0.039-0.192-0.051-0.436-0.051-0.69
			c0-0.205,0.051-0.499,0.103-0.678c0.588,0.204,1.432,0.345,1.931,0.345c0.69,0,1.087-0.23,1.087-0.703
			c0-0.409-0.32-0.601-1.164-0.869c-1.343-0.423-1.969-1.049-1.969-2.021c0-1.445,1.33-1.982,2.596-1.982
			c0.588,0,1.24,0.103,1.688,0.243c0.051,0.191,0.077,0.46,0.077,0.613c0,0.167-0.051,0.512-0.115,0.729
			c-0.435-0.128-1.036-0.23-1.534-0.23c-0.614,0-1.036,0.153-1.036,0.537c0,0.409,0.473,0.575,1.215,0.818
			c1.292,0.422,1.905,0.959,1.905,1.97C139.807,282.245,138.554,282.923,137.237,282.923z"/>
		<path style="fill:#BAA875;" d="M150.738,282.795c-0.23,0.038-0.55,0.063-0.908,0.063c-0.358,0-0.677-0.025-0.92-0.063v-3.58
			h-3.005v3.58c-0.243,0.038-0.524,0.063-0.908,0.063c-0.345,0-0.678-0.025-0.921-0.063v-8.644c0.243-0.039,0.601-0.064,0.921-0.064
			c0.358,0,0.677,0.025,0.908,0.064v3.503h3.005v-3.503c0.281-0.039,0.601-0.064,0.92-0.064c0.307,0,0.691,0.025,0.908,0.064
			V282.795z"/>
		<path style="fill:#BAA875;" d="M153.459,275.404c-0.537,0-0.972-0.435-0.972-0.972s0.435-0.972,0.972-0.972
			s0.972,0.435,0.972,0.972S153.996,275.404,153.459,275.404z M154.342,282.795c-0.23,0.051-0.704,0.063-0.908,0.063
			c-0.307,0-0.64-0.025-0.857-0.063v-6.662c0.281-0.038,0.627-0.063,0.857-0.063c0.307,0,0.627,0.025,0.908,0.063V282.795z"/>
		<path style="fill:#BAA875;" d="M161.667,281.618c0,0.857-0.052,2.085-0.55,2.929c-0.602,1.01-1.521,1.394-2.749,1.394
			c-0.704,0-1.382-0.09-1.97-0.269c-0.038-0.128-0.051-0.294-0.051-0.46c0-0.281,0.038-0.575,0.102-0.831
			c0.551,0.141,1.202,0.229,1.714,0.229c0.729,0,1.228-0.281,1.509-0.792c0.256-0.461,0.294-0.883,0.294-1.395
			c-0.319,0.243-0.907,0.435-1.509,0.435c-1.866,0-2.826-1.381-2.826-3.209c0-2.378,1.241-3.645,3.581-3.645
			c0.601,0,1.688,0.115,2.455,0.435V281.618z M159.902,277.476c-0.192-0.038-0.588-0.063-0.755-0.063c-1.176,0-1.7,0.754-1.7,2.147
			c0,1.112,0.409,1.88,1.291,1.88c0.499,0,0.908-0.141,1.164-0.358V277.476z"/>
		<path style="fill:#BAA875;" d="M169.12,278.332v4.463c-0.204,0.051-0.64,0.063-0.844,0.063c-0.218,0-0.716-0.025-0.921-0.063
			v-4.36c0-0.69-0.358-0.997-0.934-0.997c-0.46,0-1.022,0.166-1.432,0.422v4.936c-0.294,0.051-0.703,0.063-0.934,0.063
			c-0.205,0-0.575-0.013-0.831-0.063v-9.321c0.166-0.039,0.537-0.064,0.856-0.064s0.716,0.025,0.908,0.064v3.133
			c0.562-0.358,1.343-0.602,2.021-0.602C168.417,276.005,169.12,276.875,169.12,278.332z"/>
		<path style="fill:#BAA875;" d="M176.201,280.084h-4.04c0.025,0.831,0.601,1.445,1.713,1.445c0.602,0,1.215-0.077,1.739-0.218
			c0.077,0.346,0.128,0.729,0.128,1.074c0,0.051,0,0.115-0.013,0.256c-0.652,0.191-1.33,0.281-1.995,0.281
			c-2.43,0-3.439-1.394-3.439-3.427c0-1.777,0.997-3.491,3.158-3.491c2.046,0,2.788,1.509,2.788,3.171
			C176.24,279.406,176.24,279.752,176.201,280.084z M174.476,278.818c0-0.806-0.218-1.483-1.049-1.483
			c-0.793,0-1.215,0.627-1.266,1.483H174.476z"/>
		<path style="fill:#BAA875;" d="M181.226,277.488c-0.665,0.103-1.382,0.333-2.021,0.665v4.642c-0.18,0.038-0.562,0.063-0.87,0.063
			c-0.307,0-0.754-0.025-0.895-0.063v-6.662c0.191-0.025,0.512-0.063,0.767-0.063c0.218,0,0.563,0.025,0.742,0.063l0.103,0.818
			c0.473-0.422,1.329-0.882,2.16-0.946c0.026,0.103,0.052,0.474,0.052,0.742C181.264,277.003,181.251,277.31,181.226,277.488z"/>
		<path style="fill:#BAA875;" d="M190.915,282.795h-5.409v-8.644h5.294c0.051,0.141,0.089,0.409,0.089,0.767
			c0,0.281-0.025,0.524-0.089,0.793h-3.466v1.867h2.929c0.051,0.141,0.09,0.396,0.09,0.754c0,0.281-0.026,0.512-0.09,0.78h-2.929
			v2.123h3.581c0.051,0.141,0.089,0.409,0.089,0.767C191.004,282.283,190.979,282.526,190.915,282.795z"/>
		<path style="fill:#BAA875;" d="M197.933,282.795c-0.204,0.038-0.55,0.063-0.818,0.063c-0.243,0-0.524-0.025-0.703-0.063
			l-0.051-0.588c-0.461,0.447-1.049,0.716-1.739,0.716c-1.905,0-2.724-1.521-2.724-3.351c0-1.969,0.882-3.567,2.915-3.567
			c0.499,0,1.074,0.153,1.355,0.333v-2.864c0.23-0.039,0.614-0.064,0.896-0.064c0.345,0,0.613,0.038,0.869,0.064V282.795z
			 M196.168,277.654c-0.307-0.141-0.703-0.217-1.035-0.217c-1.036,0-1.42,0.92-1.42,2.033c0,0.933,0.23,1.994,1.267,1.994
			c0.498,0,0.882-0.204,1.188-0.46V277.654z"/>
		<path style="fill:#BAA875;" d="M205.194,280.225c0,1.905-0.896,2.698-2.891,2.698c-1.943,0-2.838-0.793-2.838-2.698v-4.092
			c0.179-0.025,0.523-0.063,0.869-0.063c0.307,0,0.69,0.025,0.896,0.063v4.079c0,0.997,0.294,1.355,1.1,1.355
			c0.818,0,1.1-0.358,1.1-1.355v-4.079c0.179-0.038,0.575-0.063,0.895-0.063c0.32,0,0.742,0.038,0.87,0.063V280.225z"/>
		<path style="fill:#BAA875;" d="M211.482,276.849c0,0.281-0.038,0.589-0.127,0.857c-0.423-0.167-0.973-0.269-1.496-0.269
			c-0.998,0-1.676,0.639-1.676,2.071c0,1.253,0.576,1.981,1.688,1.981c0.575,0,1.125-0.102,1.534-0.242
			c0.076,0.281,0.115,0.626,0.115,0.895c0,0.18,0,0.307-0.013,0.422c-0.512,0.23-1.189,0.358-1.829,0.358
			c-2.212,0-3.312-1.292-3.312-3.389c0-2.174,1.15-3.529,3.389-3.529c0.626,0,1.24,0.128,1.675,0.333
			C211.47,276.479,211.482,276.657,211.482,276.849z"/>
		<path style="fill:#BAA875;" d="M218.003,280.94c0,0.55,0.013,1.177,0.013,1.854c-0.205,0.051-0.55,0.063-0.768,0.063
			c-0.243,0-0.562-0.025-0.767-0.063c-0.026-0.153-0.052-0.422-0.064-0.588h-0.025c-0.435,0.447-1.177,0.716-1.854,0.716
			c-1.278,0-2.199-0.793-2.199-2.11c0-2.046,1.816-2.391,3.338-2.391c0.102,0,0.345,0.013,0.55,0.025
			c0-0.076-0.013-0.243-0.026-0.307c-0.089-0.524-0.435-0.742-1.176-0.742c-0.575,0-1.381,0.115-1.995,0.269
			c-0.063-0.179-0.103-0.485-0.103-0.716c0-0.191,0.026-0.485,0.077-0.613c0.716-0.218,1.599-0.333,2.327-0.333
			c1.599,0,2.673,0.742,2.673,2.404V280.94z M216.238,279.675c-0.153-0.013-0.358-0.025-0.537-0.025
			c-1.151,0-1.599,0.46-1.599,1.036c0,0.498,0.333,0.844,0.908,0.844c0.422,0,0.895-0.205,1.228-0.499V279.675z"/>
		<path style="fill:#BAA875;" d="M223.756,282.667c-0.384,0.153-0.844,0.256-1.586,0.256c-1.444,0-2.161-0.703-2.161-2.11v-3.362
			h-1.1c-0.051-0.192-0.089-0.512-0.089-0.678c0-0.153,0.038-0.435,0.076-0.562l1.112-0.077v-1.713
			c0.141-0.026,0.589-0.052,0.883-0.052c0.319,0,0.716,0.025,0.882,0.052v1.713h1.842c0.051,0.179,0.076,0.435,0.076,0.575
			c0,0.153-0.013,0.563-0.063,0.742h-1.854v3.107c0,0.639,0.256,0.92,0.883,0.92c0.345,0,0.767-0.051,1.061-0.153
			c0.052,0.166,0.115,0.486,0.115,0.78C223.832,282.258,223.807,282.526,223.756,282.667z"/>
		<path style="fill:#BAA875;" d="M225.966,275.404c-0.537,0-0.972-0.435-0.972-0.972s0.435-0.972,0.972-0.972
			s0.972,0.435,0.972,0.972S226.503,275.404,225.966,275.404z M226.848,282.795c-0.229,0.051-0.703,0.063-0.907,0.063
			c-0.308,0-0.64-0.025-0.857-0.063v-6.662c0.282-0.038,0.627-0.063,0.857-0.063c0.307,0,0.626,0.025,0.907,0.063V282.795z"/>
		<path style="fill:#BAA875;" d="M231.297,282.923c-1.931,0-3.158-1.24-3.158-3.439c0-2.187,1.215-3.479,3.158-3.479
			s3.158,1.279,3.158,3.466S233.24,282.923,231.297,282.923z M231.297,277.386c-0.831,0-1.343,0.562-1.343,2.085
			c0,1.521,0.512,2.071,1.343,2.071s1.343-0.55,1.343-2.071C232.64,277.936,232.128,277.386,231.297,277.386z"/>
		<path style="fill:#BAA875;" d="M241.512,282.795c-0.205,0.051-0.64,0.063-0.844,0.063c-0.218,0-0.717-0.025-0.921-0.063v-4.373
			c0-0.69-0.358-0.984-0.934-0.984c-0.46,0-0.984,0.166-1.394,0.422v4.936c-0.294,0.051-0.703,0.063-0.934,0.063
			c-0.205,0-0.575-0.013-0.831-0.063v-6.662c0.166-0.038,0.575-0.063,0.767-0.063c0.18,0,0.55,0.025,0.742,0.063l0.09,0.588
			c0.575-0.422,1.406-0.716,2.147-0.716c1.407,0,2.11,0.87,2.11,2.327V282.795z"/>
		<path style="fill:#BAA875;" d="M244.834,279.01c0-1.79-0.665-3.529-1.918-4.858c0.179-0.256,0.626-0.614,1.01-0.69
			c1.599,1.419,2.634,3.312,2.634,5.549c0,2.199-0.997,4.041-2.634,5.55c-0.384-0.077-0.831-0.435-1.01-0.69
			C244.117,282.488,244.834,280.8,244.834,279.01z"/>
	</g>
</g>
</svg>
