<?xml version="1.0" encoding="utf-8"?>
<!-- Generator: Adobe Illustrator 16.0.0, SVG Export Plug-In . SVG Version: 6.00 Build 0)  -->
<!DOCTYPE svg PUBLIC "-//W3C//DTD SVG 1.0//EN" "http://www.w3.org/TR/2001/REC-SVG-20010904/DTD/svg10.dtd">
<svg version="1.0" xmlns="http://www.w3.org/2000/svg" xmlns:xlink="http://www.w3.org/1999/xlink" x="0px" y="0px" width="300px"
	 height="300px" viewBox="0 0 300 300" style="enable-background:new 0 0 300 300;" xml:space="preserve">
<g id="Medal">
	<polygon style="fill:#BBA461;" points="224.434,141.454 237.987,136.635 251.541,141.454 251.145,127.076 259.914,115.675 
		246.118,111.608 237.987,99.743 229.855,111.608 216.059,115.675 224.83,127.076 	"/>
	<path style="fill:#BBA461;" d="M237.986,176.619c-7.738,0-15.092-1.678-21.73-4.666c-1.309-0.589-2.594-1.221-3.844-1.911v50.347
		l25.575-17.125l25.576,17.125v-50.347c-1.252,0.689-2.536,1.322-3.844,1.911C253.079,174.941,245.728,176.619,237.986,176.619"/>
	<path style="fill:#7AC6BA;" d="M237.985,93.032c16.786,0,30.444,13.656,30.444,30.442c0,16.785-13.658,30.442-30.444,30.442
		c-16.787,0-30.441-13.657-30.441-30.442C207.544,106.688,221.198,93.032,237.985,93.032 M286.002,123.318
		c-0.084-26.448-21.546-47.863-48.016-47.863h-0.001c-0.104,0-0.204,0.007-0.308,0.007c-26.326,0.167-47.625,21.512-47.707,47.856
		c0,0.052-0.004,0.103-0.004,0.156c0,0.973,0.038,1.938,0.096,2.897c0.016,0.273,0.04,0.544,0.061,0.816
		c0.056,0.717,0.125,1.431,0.212,2.141c0.03,0.26,0.063,0.52,0.099,0.78c0.121,0.865,0.258,1.722,0.424,2.572
		c0.014,0.064,0.023,0.129,0.034,0.192c0.394,1.98,0.915,3.914,1.545,5.797c0.018,0.054,0.035,0.107,0.055,0.16
		c3.559,10.545,10.672,19.446,19.922,25.281c1.241,0.783,2.526,1.51,3.843,2.182c4.015,2.039,8.35,3.533,12.915,4.381
		c0.17,0.031,0.341,0.06,0.511,0.092c0.691,0.121,1.388,0.225,2.089,0.315c0.244,0.032,0.488,0.065,0.733,0.093
		c0.664,0.076,1.332,0.135,2.004,0.181c0.248,0.019,0.496,0.044,0.746,0.058c0.903,0.053,1.81,0.082,2.725,0.082h0.007h0.001
		c0.918,0,1.827-0.029,2.734-0.082c0.245-0.014,0.486-0.037,0.73-0.055c0.679-0.048,1.354-0.107,2.025-0.184
		c0.237-0.027,0.473-0.061,0.71-0.09c0.71-0.094,1.416-0.201,2.119-0.32c0.162-0.03,0.321-0.059,0.483-0.088
		c4.569-0.847,8.911-2.341,12.928-4.383c1.32-0.672,2.601-1.398,3.847-2.182c9.25-5.835,16.363-14.737,19.922-25.281
		c0.016-0.053,0.034-0.106,0.052-0.16c0.63-1.883,1.152-3.817,1.545-5.797c0.013-0.063,0.021-0.128,0.035-0.192
		c0.163-0.85,0.303-1.708,0.422-2.572c0.037-0.26,0.068-0.52,0.1-0.78c0.088-0.709,0.156-1.424,0.211-2.141
		c0.021-0.272,0.047-0.543,0.062-0.816c0.057-0.959,0.096-1.925,0.096-2.897C286.008,123.42,286.002,123.37,286.002,123.318"/>
</g>
<g id="Text" style="display:none;">
	<path style="display:inline;fill:#7AC6BA;" d="M172.222,87.744c0,2.909-1.548,4.089-5.077,4.089h-2.15v-7.864
		c0.731-0.039,1.894-0.079,2.84-0.079C170.674,83.891,172.222,84.835,172.222,87.744 M173.254,95.489
		c3.011-1.179,5.163-4.443,5.163-7.707c0-6.131-3.656-8.491-10.971-8.491c-2.496,0-6.624,0.079-8.604,0.196v26.576
		c1.075,0.158,1.979,0.197,3.012,0.197c1.162,0,2.064-0.039,3.14-0.197V96.51h2.538l5.895,9.554
		c0.816,0.158,2.021,0.197,3.226,0.197c1.333,0,2.494-0.079,3.615-0.236L173.254,95.489z M153.981,103.626
		c0-1.1-0.129-1.926-0.302-2.358h-12.044v-6.526h9.85c0.217-0.827,0.302-1.533,0.302-2.398c0-1.101-0.129-1.887-0.302-2.319h-9.85
		v-5.74h11.656c0.217-0.825,0.303-1.573,0.303-2.437c0-1.101-0.13-1.927-0.303-2.359h-17.809v26.576h18.197
		C153.896,105.239,153.981,104.492,153.981,103.626 M124.856,98.004c0,2.634-1.848,3.617-5.678,3.617
		c-0.817,0-2.022-0.039-2.839-0.078v-7.155h3.012C123.266,94.389,124.856,95.292,124.856,98.004 M122.879,86.761
		c0,2.398-1.334,3.225-4.132,3.225h-2.408v-5.977c0.687-0.04,1.548-0.078,2.322-0.078C120.771,83.931,122.879,84.284,122.879,86.761
		 M130.966,98.044c0-3.225-2.324-5.623-5.937-6.408c2.71-1.101,3.872-2.988,3.872-5.504c0-4.993-4.044-6.84-10.668-6.84
		c-2.237,0-5.549,0.079-8.044,0.235v26.498c3.054,0.157,6.022,0.236,9.077,0.236C126.105,106.261,130.966,104.178,130.966,98.044
		 M102.702,79.488c-0.645-0.118-1.549-0.196-2.538-0.196c-0.774,0-1.635,0.079-2.495,0.196l-8.561,18.045L80.59,79.488
		c-0.516-0.118-1.506-0.196-2.539-0.196c-0.86,0-1.678,0.118-2.494,0.196l-1.249,26.576c0.774,0.118,1.936,0.197,2.624,0.197
		c1.162,0,2.496-0.079,3.056-0.197l0.558-15.961l6.367,13.484c0.474,0.12,1.421,0.198,2.195,0.198c0.645,0,1.677-0.078,2.15-0.237
		l6.366-13.445l0.517,15.961c0.516,0.079,1.721,0.197,3.011,0.197c1.205,0,2.366-0.079,2.882-0.197L102.702,79.488z M68.717,79.488
		c-0.732-0.118-2.022-0.196-2.967-0.196c-0.99,0-2.281,0.079-3.055,0.196v16.866c0,3.617-1.291,5.661-5.033,5.661
		c-3.744,0-4.862-2.044-4.862-5.661V79.488c-0.859-0.118-1.935-0.196-3.14-0.196c-1.032,0-2.152,0.079-3.012,0.196V95.96
		c0,6.763,2.625,10.497,10.97,10.497c8.261,0,11.099-3.733,11.099-10.497V79.488z M40.325,79.488
		c-0.775-0.118-1.979-0.196-2.797-0.196c-0.817,0-1.936,0.079-2.795,0.196v16.708L21.611,79.488
		c-0.645-0.079-1.505-0.158-2.323-0.158c-0.774,0-1.592,0.04-2.279,0.158v26.576c0.601,0.079,1.763,0.197,2.753,0.197
		c1.204,0,2.495-0.118,2.839-0.197V89.042l13.378,17.022c0.688,0.118,1.419,0.158,2.151,0.158c0.73,0,1.763-0.079,2.194-0.158
		V79.488z"/>
	<path style="display:inline;fill:#BBA461;" d="M179.485,166.146c0-2.342-0.276-4.099-0.641-5.019h-25.636v-13.889h20.966
		c0.458-1.757,0.642-3.264,0.642-5.104c0-2.342-0.275-4.016-0.642-4.936h-20.966v-12.215h24.811
		c0.459-1.758,0.642-3.346,0.642-5.188c0-2.342-0.276-4.1-0.642-5.02h-37.904v56.561h38.729
		C179.302,169.578,179.485,167.988,179.485,166.146 M126.385,114.774c-1.648-0.251-4.212-0.418-5.952-0.418
		c-1.739,0-4.12,0.167-5.951,0.418v35.56l-27.924-35.56c-1.373-0.167-3.206-0.333-4.944-0.333c-1.648,0-3.387,0.083-4.852,0.333
		v56.561c1.282,0.166,3.753,0.418,5.858,0.418c2.564,0,5.311-0.252,6.042-0.418v-36.229l28.474,36.229
		c1.464,0.252,3.021,0.334,4.578,0.334c1.556,0,3.754-0.168,4.67-0.334V114.774z M52.318,143.055
		c0,13.303-4.487,18.826-12.36,18.826c-7.874,0-12.36-5.523-12.36-18.826s4.486-18.825,12.36-18.825
		C47.832,124.23,52.318,129.752,52.318,143.055 M65.868,143.055c0-18.407-8.973-29.116-25.91-29.116
		c-16.938,0-25.909,10.709-25.909,29.116c0,18.406,8.972,29.115,25.909,29.115C56.895,172.17,65.868,161.461,65.868,143.055"/>
	<text transform="matrix(1 0 0 1 22.1514 188.1533)" style="display:inline;"><tspan x="0" y="0" style="fill:#1A2A4F; font-family:'FSMatthew-Bold'; font-size:14.3398;">U</tspan><tspan x="9.98" y="0" style="fill:#1A2A4F; font-family:'FSMatthew-Bold'; font-size:14.3398;">N</tspan><tspan x="20.477" y="0" style="fill:#1A2A4F; font-family:'FSMatthew-Bold'; font-size:14.3398;">I</tspan><tspan x="25.367" y="0" style="fill:#1A2A4F; font-family:'FSMatthew-Bold'; font-size:14.3398;">VE</tspan><tspan x="42.99" y="0" style="fill:#1A2A4F; font-family:'FSMatthew-Bold'; font-size:14.3398;">RS</tspan><tspan x="60.442" y="0" style="fill:#1A2A4F; font-family:'FSMatthew-Bold'; font-size:14.3398;">I</tspan><tspan x="65.274" y="0" style="fill:#1A2A4F; font-family:'FSMatthew-Bold'; font-size:14.3398; letter-spacing:1;">T</tspan><tspan x="74.136" y="0" style="fill:#1A2A4F; font-family:'FSMatthew-Bold'; font-size:14.3398;">Y </tspan><tspan x="86.669" y="0" style="fill:#1A2A4F; font-family:'FSMatthew-Bold'; font-size:14.3398;">I</tspan><tspan x="91.487" y="0" style="fill:#1A2A4F; font-family:'FSMatthew-Bold'; font-size:14.3398;">N</tspan><tspan x="101.983" y="0" style="fill:#1A2A4F; font-family:'FSMatthew-Bold'; font-size:14.3398;"> </tspan><tspan x="105.081" y="0" style="fill:#1A2A4F; font-family:'FSMatthew-Bold'; font-size:14.3398;">T</tspan><tspan x="113.484" y="0" style="fill:#1A2A4F; font-family:'FSMatthew-Bold'; font-size:14.3398;">H</tspan><tspan x="123.679" y="0" style="fill:#1A2A4F; font-family:'FSMatthew-Bold'; font-size:14.3398;">E</tspan><tspan x="132.025" y="0" style="fill:#1A2A4F; font-family:'FSMatthew-Bold'; font-size:14.3398;"> </tspan><tspan x="135.825" y="0" style="fill:#1A2A4F; font-family:'FSMatthew-Bold'; font-size:14.3398;">U</tspan><tspan x="145.806" y="0" style="fill:#1A2A4F; font-family:'FSMatthew-Bold'; font-size:14.3398;">K </tspan></text>
	<text transform="matrix(1 0 0 1 17.0459 204.7012)" style="display:inline;"><tspan x="0" y="0" style="fill:#1A2A4F; font-family:'FSMatthew-Bold'; font-size:14.3398;">F</tspan><tspan x="6.854" y="0" style="fill:#1A2A4F; font-family:'FSMatthew-Bold'; font-size:14.3398;">OR </tspan><tspan x="27.231" y="0" style="fill:#1A2A4F; font-family:'FSMatthew-Bold'; font-size:14.3398;">S</tspan><tspan x="34.314" y="0" style="fill:#1A2A4F; font-family:'FSMatthew-Bold'; font-size:14.3398;">TU</tspan><tspan x="51.035" y="0" style="fill:#1A2A4F; font-family:'FSMatthew-Bold'; font-size:14.3398;">D</tspan><tspan x="60.054" y="0" style="fill:#1A2A4F; font-family:'FSMatthew-Bold'; font-size:14.3398;">YING PHA</tspan><tspan x="119.936" y="0" style="fill:#1A2A4F; font-family:'FSMatthew-Bold'; font-size:14.3398;">RM</tspan><tspan x="139.812" y="0" style="fill:#1A2A4F; font-family:'FSMatthew-Bold'; font-size:14.3398;">A</tspan><tspan x="148.602" y="0" style="fill:#1A2A4F; font-family:'FSMatthew-Bold'; font-size:14.3398;">C</tspan><tspan x="156.976" y="0" style="fill:#1A2A4F; font-family:'FSMatthew-Bold'; font-size:14.3398;">Y</tspan></text>
	
		<text transform="matrix(1 0 0 1 51.6357 218.8672)" style="display:inline;fill:#1A2A4F; font-family:'FSMatthew-Bold'; font-size:12.6815;">2015, 2016, 2017 </text>
</g>
<g id="Text_Flat">
	<path style="fill:#7AC6BA;" d="M172.222,87.744c0,2.909-1.548,4.089-5.077,4.089h-2.15v-7.864c0.731-0.039,1.894-0.079,2.84-0.079
		C170.674,83.891,172.222,84.835,172.222,87.744 M173.254,95.489c3.011-1.179,5.163-4.443,5.163-7.707
		c0-6.131-3.656-8.491-10.971-8.491c-2.496,0-6.624,0.079-8.604,0.196v26.576c1.075,0.158,1.979,0.197,3.012,0.197
		c1.162,0,2.064-0.039,3.14-0.197V96.51h2.538l5.895,9.554c0.816,0.158,2.021,0.197,3.226,0.197c1.333,0,2.494-0.079,3.615-0.236
		L173.254,95.489z M153.981,103.626c0-1.1-0.129-1.926-0.302-2.358h-12.044v-6.526h9.85c0.217-0.827,0.302-1.533,0.302-2.398
		c0-1.101-0.129-1.887-0.302-2.319h-9.85v-5.74h11.656c0.217-0.825,0.303-1.573,0.303-2.437c0-1.101-0.13-1.927-0.303-2.359h-17.809
		v26.576h18.197C153.896,105.239,153.981,104.492,153.981,103.626 M124.856,98.004c0,2.634-1.848,3.617-5.678,3.617
		c-0.817,0-2.022-0.039-2.839-0.078v-7.155h3.012C123.266,94.389,124.856,95.292,124.856,98.004 M122.879,86.761
		c0,2.398-1.334,3.225-4.132,3.225h-2.408v-5.977c0.687-0.04,1.548-0.078,2.322-0.078C120.771,83.931,122.879,84.284,122.879,86.761
		 M130.966,98.044c0-3.225-2.324-5.623-5.937-6.408c2.71-1.101,3.872-2.988,3.872-5.504c0-4.993-4.044-6.84-10.668-6.84
		c-2.237,0-5.549,0.079-8.044,0.235v26.498c3.054,0.157,6.022,0.236,9.077,0.236C126.105,106.261,130.966,104.178,130.966,98.044
		 M102.702,79.488c-0.645-0.118-1.549-0.196-2.538-0.196c-0.774,0-1.635,0.079-2.495,0.196l-8.561,18.045L80.59,79.488
		c-0.516-0.118-1.506-0.196-2.539-0.196c-0.86,0-1.678,0.118-2.494,0.196l-1.249,26.576c0.774,0.118,1.936,0.197,2.624,0.197
		c1.162,0,2.496-0.079,3.056-0.197l0.558-15.961l6.367,13.484c0.474,0.12,1.421,0.198,2.195,0.198c0.645,0,1.677-0.078,2.15-0.237
		l6.366-13.445l0.517,15.961c0.516,0.079,1.721,0.197,3.011,0.197c1.205,0,2.366-0.079,2.882-0.197L102.702,79.488z M68.717,79.488
		c-0.732-0.118-2.022-0.196-2.967-0.196c-0.99,0-2.281,0.079-3.055,0.196v16.866c0,3.617-1.291,5.661-5.033,5.661
		c-3.744,0-4.862-2.044-4.862-5.661V79.488c-0.859-0.118-1.935-0.196-3.14-0.196c-1.032,0-2.152,0.079-3.012,0.196V95.96
		c0,6.763,2.625,10.497,10.97,10.497c8.261,0,11.099-3.733,11.099-10.497V79.488z M40.325,79.488
		c-0.775-0.118-1.979-0.196-2.797-0.196c-0.817,0-1.936,0.079-2.795,0.196v16.708L21.611,79.488
		c-0.645-0.079-1.505-0.158-2.323-0.158c-0.774,0-1.592,0.04-2.279,0.158v26.576c0.601,0.079,1.763,0.197,2.753,0.197
		c1.204,0,2.495-0.118,2.839-0.197V89.042l13.378,17.022c0.688,0.118,1.419,0.158,2.151,0.158c0.73,0,1.763-0.079,2.194-0.158
		V79.488z"/>
	<path style="fill:#BBA461;" d="M179.485,166.146c0-2.342-0.276-4.099-0.641-5.019h-25.636v-13.889h20.966
		c0.458-1.757,0.642-3.264,0.642-5.104c0-2.342-0.275-4.016-0.642-4.936h-20.966v-12.215h24.811
		c0.459-1.758,0.642-3.346,0.642-5.188c0-2.342-0.276-4.1-0.642-5.02h-37.904v56.561h38.729
		C179.302,169.578,179.485,167.988,179.485,166.146 M126.385,114.774c-1.648-0.251-4.212-0.418-5.952-0.418
		c-1.739,0-4.12,0.167-5.951,0.418v35.56l-27.924-35.56c-1.373-0.167-3.206-0.333-4.944-0.333c-1.648,0-3.387,0.083-4.852,0.333
		v56.561c1.282,0.166,3.753,0.418,5.858,0.418c2.564,0,5.311-0.252,6.042-0.418v-36.229l28.474,36.229
		c1.464,0.252,3.021,0.334,4.578,0.334c1.556,0,3.754-0.168,4.67-0.334V114.774z M52.318,143.055
		c0,13.303-4.487,18.826-12.36,18.826c-7.874,0-12.36-5.523-12.36-18.826s4.486-18.825,12.36-18.825
		C47.832,124.23,52.318,129.752,52.318,143.055 M65.868,143.055c0-18.407-8.973-29.116-25.91-29.116
		c-16.938,0-25.909,10.709-25.909,29.116c0,18.406,8.972,29.115,25.909,29.115C56.895,172.17,65.868,161.461,65.868,143.055"/>
	<g>
		<path style="fill:#1A2A4F;" d="M30.542,184.467c0,2.468-0.946,3.83-3.7,3.83c-2.783,0-3.658-1.362-3.658-3.83v-6.01
			c0.287-0.043,0.66-0.071,1.004-0.071c0.402,0,0.76,0.028,1.047,0.071v6.153c0,1.319,0.373,2.065,1.621,2.065
			s1.678-0.746,1.678-2.065v-6.153c0.258-0.043,0.688-0.071,1.019-0.071c0.315,0,0.746,0.028,0.989,0.071V184.467z"/>
		<path style="fill:#1A2A4F;" d="M40.981,188.153c-0.143,0.028-0.487,0.058-0.731,0.058c-0.244,0-0.487-0.015-0.717-0.058
			l-4.461-6.211v6.211c-0.115,0.028-0.545,0.071-0.947,0.071c-0.33,0-0.717-0.043-0.918-0.071v-9.696
			c0.229-0.043,0.502-0.058,0.76-0.058c0.272,0,0.56,0.029,0.774,0.058l4.375,6.096v-6.096c0.287-0.043,0.66-0.071,0.932-0.071
			s0.674,0.028,0.932,0.071V188.153z"/>
		<path style="fill:#1A2A4F;" d="M45.784,188.153c-0.273,0.043-0.603,0.071-1.033,0.071c-0.387,0-0.746-0.028-1.018-0.071v-9.696
			c0.272-0.043,0.674-0.071,1.033-0.071c0.401,0,0.76,0.028,1.019,0.071V188.153z"/>
		<path style="fill:#1A2A4F;" d="M51.348,183.907c0.215,0.603,0.43,1.277,0.531,1.851h0.029c0.1-0.573,0.301-1.248,0.516-1.851
			l1.062-3.069c0.272-0.788,0.43-1.549,0.445-2.381c0.287-0.043,0.688-0.071,1.018-0.071c0.301,0,0.731,0.028,0.99,0.071
			c0,0.961-0.172,1.879-0.56,2.897l-2.596,6.799c-0.172,0.043-0.574,0.071-0.918,0.071c-0.388,0-0.703-0.028-0.961-0.071
			l-2.553-6.77c-0.387-1.019-0.56-1.966-0.56-2.927c0.258-0.043,0.603-0.071,1.033-0.071c0.33,0,0.746,0.028,1.004,0.071
			c0,0.89,0.158,1.593,0.431,2.381L51.348,183.907z"/>
		<path style="fill:#1A2A4F;" d="M63.925,188.153h-6.067v-9.696h5.938c0.058,0.158,0.101,0.459,0.101,0.86
			c0,0.316-0.029,0.589-0.101,0.89h-3.887v2.095h3.285c0.057,0.157,0.1,0.444,0.1,0.846c0,0.315-0.029,0.574-0.1,0.875h-3.285v2.381
			h4.016c0.057,0.158,0.1,0.459,0.1,0.86C64.025,187.579,63.997,187.853,63.925,188.153z"/>
		<path style="fill:#1A2A4F;" d="M73.36,188.139c-0.373,0.058-0.76,0.086-1.205,0.086c-0.401,0-0.803-0.014-1.076-0.071
			l-1.965-3.485h-0.846v3.485c-0.359,0.058-0.66,0.071-1.047,0.071c-0.344,0-0.645-0.014-1.004-0.071v-9.696
			c0.66-0.043,2.037-0.071,2.869-0.071c2.438,0,3.658,0.86,3.658,3.098c0,1.19-0.717,2.381-1.721,2.812L73.36,188.139z
			 M69.215,180.063c-0.315,0-0.703,0.015-0.946,0.029v2.868h0.717c1.176,0,1.693-0.431,1.693-1.491
			C70.678,180.408,70.162,180.063,69.215,180.063z"/>
		<path style="fill:#1A2A4F;" d="M78.005,188.297c-1.047,0-2.194-0.201-3.012-0.574c-0.043-0.2-0.071-0.459-0.071-0.688
			c0-0.344,0.043-0.674,0.143-1.061c0.846,0.344,1.965,0.559,2.84,0.559c1.018,0,1.563-0.473,1.563-1.118
			c0-0.718-0.459-1.019-1.85-1.449c-1.549-0.473-2.682-1.219-2.682-2.883c0-1.778,1.535-2.769,3.557-2.769
			c0.932,0,1.764,0.144,2.324,0.33c0.043,0.158,0.072,0.416,0.072,0.789c0,0.272-0.029,0.688-0.086,0.918
			c-0.717-0.187-1.535-0.287-2.194-0.287c-1.076,0-1.664,0.358-1.664,0.933c0,0.674,0.531,0.946,1.822,1.349
			c1.549,0.487,2.696,1.219,2.696,2.939C81.462,187.164,79.985,188.297,78.005,188.297z"/>
		<path style="fill:#1A2A4F;" d="M85.749,188.153c-0.273,0.043-0.603,0.071-1.033,0.071c-0.387,0-0.746-0.028-1.018-0.071v-9.696
			c0.272-0.043,0.674-0.071,1.033-0.071c0.401,0,0.76,0.028,1.019,0.071V188.153z"/>
		<path style="fill:#1A2A4F;" d="M94.941,180.207h-2.568v7.946c-0.272,0.043-0.66,0.071-1.018,0.071
			c-0.359,0-0.746-0.028-1.033-0.071v-7.946h-2.567c-0.058-0.187-0.101-0.631-0.101-0.875c0-0.243,0.057-0.688,0.115-0.875h7.172
			c0.057,0.187,0.1,0.632,0.1,0.875C95.042,179.576,94.999,180.021,94.941,180.207z"/>
		<path style="fill:#1A2A4F;" d="M103.574,180.681l-2.195,4.231v3.241c-0.272,0.043-0.588,0.071-1.018,0.071
			c-0.388,0-0.76-0.028-1.033-0.071v-3.271l-2.094-4.088c-0.459-0.889-0.703-1.62-0.703-2.352c0.229-0.029,0.646-0.058,1.004-0.058
			c0.344,0,0.731,0.014,1.004,0.058c0,0.602,0.086,1.004,0.416,1.692l0.961,1.979c0.215,0.43,0.401,0.946,0.459,1.247h0.014
			c0.072-0.301,0.301-0.832,0.474-1.204l0.989-2.08c0.215-0.444,0.345-0.961,0.345-1.621c0.272-0.043,0.703-0.071,1.047-0.071
			c0.401,0,0.703,0.028,0.932,0.071C104.176,179.188,103.89,180.063,103.574,180.681z"/>
		<path style="fill:#1A2A4F;" d="M111.976,188.153c-0.272,0.043-0.602,0.071-1.032,0.071c-0.388,0-0.746-0.028-1.019-0.071v-9.696
			c0.272-0.043,0.674-0.071,1.033-0.071c0.401,0,0.76,0.028,1.018,0.071V188.153z"/>
		<path style="fill:#1A2A4F;" d="M122.488,188.153c-0.143,0.028-0.487,0.058-0.731,0.058c-0.244,0-0.488-0.015-0.717-0.058
			l-4.46-6.211v6.211c-0.115,0.028-0.545,0.071-0.947,0.071c-0.33,0-0.717-0.043-0.918-0.071v-9.696
			c0.229-0.043,0.502-0.058,0.76-0.058c0.272,0,0.56,0.029,0.774,0.058l4.375,6.096v-6.096c0.287-0.043,0.66-0.071,0.932-0.071
			s0.674,0.028,0.932,0.071V188.153z"/>
		<path style="fill:#1A2A4F;" d="M134.748,180.207h-2.568v7.946c-0.272,0.043-0.66,0.071-1.018,0.071
			c-0.359,0-0.746-0.028-1.033-0.071v-7.946h-2.567c-0.058-0.187-0.101-0.631-0.101-0.875c0-0.243,0.057-0.688,0.115-0.875h7.172
			c0.057,0.187,0.1,0.632,0.1,0.875C134.848,179.576,134.805,180.021,134.748,180.207z"/>
		<path style="fill:#1A2A4F;" d="M144.184,188.153c-0.258,0.043-0.617,0.071-1.018,0.071c-0.402,0-0.76-0.028-1.033-0.071v-4.016
			h-3.371v4.016c-0.272,0.043-0.588,0.071-1.019,0.071c-0.387,0-0.76-0.028-1.033-0.071v-9.696c0.272-0.043,0.674-0.071,1.033-0.071
			c0.402,0,0.76,0.028,1.019,0.071v3.931h3.371v-3.931c0.315-0.043,0.674-0.071,1.033-0.071c0.344,0,0.774,0.028,1.018,0.071
			V188.153z"/>
		<path style="fill:#1A2A4F;" d="M152.974,188.153h-6.067v-9.696h5.938c0.057,0.158,0.101,0.459,0.101,0.86
			c0,0.316-0.029,0.589-0.101,0.89h-3.887v2.095h3.285c0.058,0.157,0.101,0.444,0.101,0.846c0,0.315-0.029,0.574-0.101,0.875h-3.285
			v2.381h4.016c0.058,0.158,0.101,0.459,0.101,0.86C153.074,187.579,153.045,187.853,152.974,188.153z"/>
		<path style="fill:#1A2A4F;" d="M166.367,184.467c0,2.468-0.946,3.83-3.7,3.83c-2.783,0-3.657-1.362-3.657-3.83v-6.01
			c0.286-0.043,0.659-0.071,1.004-0.071c0.401,0,0.76,0.028,1.047,0.071v6.153c0,1.319,0.373,2.065,1.621,2.065
			c1.247,0,1.678-0.746,1.678-2.065v-6.153c0.258-0.043,0.688-0.071,1.019-0.071c0.315,0,0.745,0.028,0.989,0.071V184.467z"/>
		<path style="fill:#1A2A4F;" d="M176.649,188.153c-0.259,0.043-0.718,0.071-1.22,0.071c-0.358,0-0.875-0.028-1.176-0.071
			l-2.51-3.887l-0.66,0.789v3.098c-0.272,0.043-0.603,0.071-1.033,0.071c-0.387,0-0.745-0.028-1.018-0.071v-9.696
			c0.272-0.043,0.674-0.071,1.032-0.071c0.401,0,0.761,0.028,1.019,0.071v4.174l1.664-1.95c0.731-0.86,1.133-1.478,1.291-2.224
			c0.286-0.043,0.688-0.071,1.004-0.071c0.258,0,0.702,0.028,1.004,0.071c-0.216,1.134-0.817,2.123-1.679,3.112l-1.147,1.32
			L176.649,188.153z"/>
	</g>
	<g>
		<path style="fill:#1A2A4F;" d="M23.988,196.755h-3.815v2.094h3.213c0.057,0.158,0.1,0.445,0.1,0.847
			c0,0.315-0.028,0.574-0.1,0.875h-3.213v4.131c-0.272,0.043-0.588,0.071-1.019,0.071c-0.387,0-0.76-0.028-1.033-0.071v-9.696h5.867
			c0.057,0.158,0.1,0.459,0.1,0.861C24.088,196.182,24.06,196.454,23.988,196.755z"/>
		<path style="fill:#1A2A4F;" d="M28.591,204.845c-2.654,0-4.06-1.836-4.06-4.991c0-3.156,1.406-4.992,4.06-4.992
			c2.653,0,4.059,1.836,4.059,4.992C32.65,203.009,31.244,204.845,28.591,204.845z M28.591,196.626
			c-1.234,0-1.937,0.946-1.937,3.228c0,2.28,0.703,3.227,1.937,3.227c1.233,0,1.936-0.946,1.936-3.227
			C30.527,197.572,29.824,196.626,28.591,196.626z"/>
		<path style="fill:#1A2A4F;" d="M41.225,204.687c-0.373,0.058-0.76,0.086-1.205,0.086c-0.401,0-0.803-0.014-1.076-0.071
			l-1.965-3.485h-0.846v3.485c-0.359,0.058-0.66,0.071-1.047,0.071c-0.344,0-0.645-0.014-1.004-0.071v-9.696
			c0.66-0.043,2.037-0.071,2.869-0.071c2.438,0,3.658,0.86,3.658,3.098c0,1.19-0.717,2.381-1.721,2.812L41.225,204.687z
			 M37.079,196.611c-0.315,0-0.703,0.015-0.946,0.029v2.868h0.717c1.176,0,1.693-0.43,1.693-1.491S38.026,196.611,37.079,196.611z"
			/>
		<path style="fill:#1A2A4F;" d="M47.992,204.845c-1.047,0-2.194-0.201-3.012-0.574c-0.043-0.2-0.071-0.459-0.071-0.688
			c0-0.344,0.043-0.674,0.143-1.062c0.846,0.345,1.965,0.56,2.84,0.56c1.018,0,1.563-0.473,1.563-1.118
			c0-0.718-0.459-1.019-1.85-1.449c-1.549-0.473-2.682-1.219-2.682-2.883c0-1.778,1.535-2.769,3.557-2.769
			c0.932,0,1.764,0.144,2.324,0.33c0.043,0.158,0.072,0.416,0.072,0.789c0,0.272-0.029,0.688-0.086,0.918
			c-0.717-0.187-1.535-0.287-2.194-0.287c-1.076,0-1.664,0.358-1.664,0.933c0,0.674,0.531,0.946,1.822,1.349
			c1.549,0.487,2.696,1.219,2.696,2.94C51.448,203.712,49.971,204.845,47.992,204.845z"/>
		<path style="fill:#1A2A4F;" d="M58.876,196.755h-2.567v7.946c-0.272,0.043-0.66,0.071-1.018,0.071
			c-0.359,0-0.746-0.028-1.033-0.071v-7.946H51.69c-0.058-0.187-0.101-0.631-0.101-0.875s0.058-0.688,0.115-0.875h7.171
			c0.058,0.187,0.101,0.631,0.101,0.875S58.934,196.568,58.876,196.755z"/>
		<path style="fill:#1A2A4F;" d="M67.322,201.015c0,2.468-0.946,3.83-3.7,3.83c-2.783,0-3.658-1.362-3.658-3.83v-6.01
			c0.287-0.043,0.66-0.071,1.004-0.071c0.402,0,0.76,0.028,1.047,0.071v6.153c0,1.319,0.373,2.065,1.621,2.065
			s1.678-0.746,1.678-2.065v-6.153c0.258-0.043,0.688-0.071,1.019-0.071c0.315,0,0.746,0.028,0.989,0.071V201.015z"/>
		<path style="fill:#1A2A4F;" d="M75.396,203.841c-0.889,0.688-2.037,0.932-3.614,0.932c-0.803,0-2.166-0.028-2.625-0.071v-9.696
			c0.703-0.043,2.166-0.071,2.983-0.071c3.156,0,4.776,1.334,4.776,4.805C76.916,201.531,76.443,203.023,75.396,203.841z
			 M72.183,196.626c-0.387,0-0.817,0.015-0.975,0.028v6.383c0.187,0.015,0.617,0.029,1.061,0.029c1.808,0,2.524-1.147,2.524-3.356
			C74.793,197.286,74.047,196.626,72.183,196.626z"/>
		<path style="fill:#1A2A4F;" d="M84.387,197.229l-2.195,4.231v3.241c-0.272,0.043-0.588,0.071-1.018,0.071
			c-0.388,0-0.76-0.028-1.033-0.071v-3.271l-2.094-4.088c-0.459-0.889-0.703-1.62-0.703-2.352c0.229-0.029,0.646-0.058,1.004-0.058
			c0.344,0,0.731,0.015,1.004,0.058c0,0.602,0.086,1.004,0.416,1.692l0.961,1.979c0.215,0.43,0.401,0.946,0.459,1.247h0.014
			c0.072-0.301,0.301-0.831,0.474-1.204l0.989-2.08c0.215-0.444,0.345-0.961,0.345-1.621c0.272-0.043,0.703-0.071,1.047-0.071
			c0.401,0,0.703,0.028,0.932,0.071C84.989,195.736,84.702,196.611,84.387,197.229z"/>
		<path style="fill:#1A2A4F;" d="M88.143,204.701c-0.273,0.043-0.603,0.071-1.033,0.071c-0.387,0-0.746-0.028-1.018-0.071v-9.696
			c0.272-0.043,0.674-0.071,1.033-0.071c0.401,0,0.76,0.028,1.019,0.071V204.701z"/>
		<path style="fill:#1A2A4F;" d="M97.823,204.701c-0.143,0.028-0.487,0.058-0.731,0.058c-0.244,0-0.488-0.015-0.717-0.058
			l-4.46-6.211v6.211c-0.115,0.028-0.545,0.071-0.947,0.071c-0.33,0-0.717-0.043-0.918-0.071v-9.696
			c0.229-0.043,0.502-0.057,0.76-0.057c0.272,0,0.56,0.028,0.774,0.057l4.375,6.096v-6.096c0.287-0.043,0.66-0.071,0.932-0.071
			s0.674,0.028,0.932,0.071V204.701z"/>
		<path style="fill:#1A2A4F;" d="M107,204.328c-0.746,0.33-1.965,0.517-3.098,0.517c-3.227,0-4.647-2.065-4.647-4.892
			c0-2.954,1.75-5.092,4.863-5.092c0.889,0,1.908,0.187,2.51,0.445c0.043,0.229,0.072,0.573,0.072,0.731
			c0,0.315-0.057,0.659-0.115,0.875c-0.617-0.201-1.506-0.33-2.324-0.33c-2.065,0-2.883,1.506-2.883,3.342
			c0,1.951,0.86,3.198,2.596,3.198c0.387,0,0.76-0.028,0.975-0.086v-3.098c0.272-0.043,0.646-0.072,1.004-0.072
			c0.401,0,0.789,0.029,1.047,0.072V204.328z"/>
		<path style="fill:#1A2A4F;" d="M114.671,201.23h-1.004v3.471c-0.272,0.043-0.603,0.071-1.033,0.071
			c-0.387,0-0.746-0.028-1.019-0.071v-9.682c0.832-0.043,2.094-0.086,2.912-0.086c2.195,0,3.787,0.76,3.787,3.041
			C118.314,200.197,116.923,201.23,114.671,201.23z M114.613,196.626c-0.287,0-0.66,0.015-0.946,0.028v2.854h0.889
			c1.104,0,1.692-0.287,1.692-1.463C116.249,197.042,115.747,196.626,114.613,196.626z"/>
		<path style="fill:#1A2A4F;" d="M127.047,204.701c-0.258,0.043-0.617,0.071-1.018,0.071c-0.402,0-0.76-0.028-1.033-0.071v-4.017
			h-3.371v4.017c-0.272,0.043-0.588,0.071-1.019,0.071c-0.387,0-0.76-0.028-1.033-0.071v-9.696c0.272-0.043,0.674-0.071,1.033-0.071
			c0.402,0,0.76,0.028,1.019,0.071v3.931h3.371v-3.931c0.315-0.043,0.674-0.071,1.033-0.071c0.344,0,0.774,0.028,1.018,0.071
			V204.701z"/>
		<path style="fill:#1A2A4F;" d="M137.056,204.701c-0.187,0.043-0.631,0.071-1.104,0.071c-0.373,0-0.803-0.043-0.99-0.071
			l-0.717-1.965h-3.442l-0.674,1.965c-0.316,0.043-0.688,0.071-1.062,0.071s-0.803-0.028-1.019-0.071l3.385-9.696
			c0.201-0.043,0.674-0.071,0.99-0.071c0.387,0,0.846,0.028,1.004,0.071L137.056,204.701z M133.628,201.029l-0.846-2.739
			c-0.101-0.315-0.201-0.718-0.287-1.162h-0.029c-0.072,0.444-0.187,0.847-0.287,1.162l-0.803,2.739H133.628z"/>
		<path style="fill:#1A2A4F;" d="M145.201,204.687c-0.373,0.058-0.76,0.086-1.205,0.086c-0.401,0-0.803-0.014-1.076-0.071
			l-1.965-3.485h-0.846v3.485c-0.359,0.058-0.66,0.071-1.047,0.071c-0.344,0-0.646-0.014-1.004-0.071v-9.696
			c0.66-0.043,2.037-0.071,2.869-0.071c2.438,0,3.658,0.86,3.658,3.098c0,1.19-0.717,2.381-1.721,2.812L145.201,204.687z
			 M141.056,196.611c-0.316,0-0.703,0.015-0.947,0.029v2.868h0.717c1.176,0,1.692-0.43,1.692-1.491S142.002,196.611,141.056,196.611
			z"/>
		<path style="fill:#1A2A4F;" d="M156.171,204.701c-0.172,0.043-0.56,0.071-0.961,0.071c-0.43,0-0.832-0.043-1.004-0.071
			l-0.172-5.823l-2.123,4.905c-0.157,0.058-0.502,0.086-0.717,0.086c-0.258,0-0.574-0.028-0.732-0.071l-2.123-4.92l-0.187,5.823
			c-0.187,0.043-0.631,0.071-1.019,0.071c-0.229,0-0.617-0.028-0.875-0.071l0.416-9.696c0.272-0.028,0.545-0.071,0.832-0.071
			c0.344,0,0.674,0.028,0.846,0.071l2.84,6.584l2.854-6.584c0.286-0.043,0.573-0.071,0.831-0.071c0.33,0,0.632,0.028,0.847,0.071
			L156.171,204.701z"/>
		<path style="fill:#1A2A4F;" d="M166.065,204.701c-0.187,0.043-0.631,0.071-1.104,0.071c-0.372,0-0.803-0.043-0.989-0.071
			l-0.717-1.965h-3.442l-0.675,1.965c-0.315,0.043-0.688,0.071-1.062,0.071c-0.372,0-0.803-0.028-1.018-0.071l3.385-9.696
			c0.201-0.043,0.674-0.071,0.989-0.071c0.388,0,0.847,0.028,1.004,0.071L166.065,204.701z M162.638,201.029l-0.847-2.739
			c-0.1-0.315-0.2-0.718-0.286-1.162h-0.029c-0.071,0.444-0.187,0.847-0.286,1.162l-0.804,2.739H162.638z"/>
		<path style="fill:#1A2A4F;" d="M173.336,197.027c-0.689-0.215-1.55-0.373-2.238-0.373c-1.635,0-2.696,1.162-2.696,3.242
			c0,1.907,0.832,3.155,2.683,3.155c0.688,0,1.463-0.144,2.151-0.358c0.101,0.258,0.172,0.659,0.172,0.961
			c0,0.243-0.015,0.545-0.043,0.674c-0.718,0.33-1.636,0.517-2.481,0.517c-3.084,0-4.604-1.865-4.604-4.905
			c0-2.955,1.636-5.078,4.69-5.078c0.746,0,1.722,0.187,2.41,0.488c0.043,0.144,0.057,0.459,0.057,0.646
			C173.436,196.439,173.379,196.855,173.336,197.027z"/>
		<path style="fill:#1A2A4F;" d="M181.308,197.229l-2.194,4.231v3.241c-0.272,0.043-0.588,0.071-1.019,0.071
			c-0.387,0-0.76-0.028-1.032-0.071v-3.271l-2.095-4.088c-0.459-0.889-0.702-1.62-0.702-2.352c0.229-0.029,0.646-0.058,1.004-0.058
			c0.344,0,0.731,0.015,1.004,0.058c0,0.602,0.086,1.004,0.416,1.692l0.961,1.979c0.215,0.43,0.401,0.946,0.459,1.247h0.015
			c0.071-0.301,0.301-0.831,0.473-1.204l0.99-2.08c0.215-0.444,0.344-0.961,0.344-1.621c0.272-0.043,0.703-0.071,1.047-0.071
			c0.402,0,0.703,0.028,0.933,0.071C181.91,195.736,181.623,196.611,181.308,197.229z"/>
	</g>
	<g>
		<path style="fill:#1A2A4F;" d="M57.76,218.867h-5.415c-0.114-0.267-0.152-0.596-0.152-0.888c0-0.152,0.013-0.342,0.038-0.469
			c0.887-0.9,1.838-1.915,2.675-2.854c0.621-0.697,1.116-1.344,1.116-2.054c0-0.622-0.431-0.977-1.192-0.977
			c-0.558,0-1.445,0.19-2.27,0.583c-0.051-0.216-0.102-0.596-0.102-0.9c0-0.152,0.025-0.456,0.076-0.659
			c0.621-0.267,1.623-0.507,2.599-0.507c1.446,0,2.714,0.672,2.714,2.231c0,1.369-0.736,2.295-2.308,3.943
			c-0.304,0.33-0.634,0.646-0.963,0.989h3.208c0.038,0.165,0.063,0.481,0.063,0.786C57.849,218.348,57.811,218.689,57.76,218.867z"
			/>
		<path style="fill:#1A2A4F;" d="M62.046,218.994c-2.029,0-3.018-1.496-3.018-4.413c0-2.941,1.027-4.412,3.056-4.412
			c2.016,0,3.005,1.471,3.005,4.412C65.09,217.498,64.062,218.994,62.046,218.994z M62.059,211.652
			c-0.812,0-1.167,0.748-1.167,2.929c0,2.144,0.355,2.93,1.167,2.93s1.167-0.786,1.167-2.93
			C63.226,212.4,62.871,211.652,62.059,211.652z"/>
		<path style="fill:#1A2A4F;" d="M70.619,218.867c-0.19,0.038-0.532,0.063-0.9,0.063c-0.355,0-0.672-0.025-0.9-0.063v-6.556
			l-1.801,1.192c-0.431-0.394-0.735-0.926-0.85-1.383l2.98-1.825c0.178-0.038,0.545-0.063,0.735-0.063
			c0.216,0,0.609,0.038,0.735,0.063V218.867z"/>
		<path style="fill:#1A2A4F;" d="M75.59,218.994c-0.685,0-1.699-0.14-2.396-0.381c-0.025-0.089-0.063-0.316-0.063-0.57
			c0-0.279,0.038-0.57,0.114-0.812c0.583,0.178,1.483,0.292,2.194,0.292c0.9,0,1.483-0.482,1.483-1.345
			c0-0.367-0.102-0.697-0.317-0.913c-0.279-0.278-0.748-0.393-1.433-0.393H73.51v-4.577h4.793c0.038,0.202,0.063,0.52,0.063,0.748
			c0,0.24-0.038,0.659-0.063,0.812h-3.17v1.572h0.558c0.989,0,1.775,0.177,2.333,0.659c0.495,0.431,0.773,1.091,0.773,2.003
			C78.798,218.03,77.314,218.994,75.59,218.994z"/>
		<path style="fill:#1A2A4F;" d="M80.08,221.162c-0.203-0.14-0.469-0.405-0.545-0.697c0.532-0.38,0.925-0.837,1.103-1.306
			c-0.241-0.216-0.431-0.521-0.431-0.938c0-0.495,0.431-0.9,0.938-0.9c0.57,0,0.951,0.418,0.951,1.04
			C82.096,219.349,81.17,220.528,80.08,221.162z"/>
		<path style="fill:#1A2A4F;" d="M91.733,218.867h-5.415c-0.114-0.267-0.152-0.596-0.152-0.888c0-0.152,0.013-0.342,0.038-0.469
			c0.887-0.9,1.838-1.915,2.675-2.854c0.621-0.697,1.116-1.344,1.116-2.054c0-0.622-0.431-0.977-1.192-0.977
			c-0.558,0-1.445,0.19-2.27,0.583c-0.051-0.216-0.102-0.596-0.102-0.9c0-0.152,0.025-0.456,0.076-0.659
			c0.621-0.267,1.623-0.507,2.599-0.507c1.446,0,2.714,0.672,2.714,2.231c0,1.369-0.736,2.295-2.308,3.943
			c-0.304,0.33-0.634,0.646-0.963,0.989h3.208c0.038,0.165,0.063,0.481,0.063,0.786C91.822,218.348,91.784,218.689,91.733,218.867z"
			/>
		<path style="fill:#1A2A4F;" d="M96.02,218.994c-2.029,0-3.018-1.496-3.018-4.413c0-2.941,1.027-4.412,3.056-4.412
			c2.016,0,3.005,1.471,3.005,4.412C99.063,217.498,98.036,218.994,96.02,218.994z M96.032,211.652
			c-0.812,0-1.167,0.748-1.167,2.929c0,2.144,0.355,2.93,1.167,2.93s1.167-0.786,1.167-2.93
			C97.199,212.4,96.844,211.652,96.032,211.652z"/>
		<path style="fill:#1A2A4F;" d="M104.592,218.867c-0.19,0.038-0.532,0.063-0.9,0.063c-0.355,0-0.672-0.025-0.9-0.063v-6.556
			l-1.801,1.192c-0.431-0.394-0.735-0.926-0.85-1.383l2.98-1.825c0.178-0.038,0.545-0.063,0.735-0.063
			c0.216,0,0.609,0.038,0.735,0.063V218.867z"/>
		<path style="fill:#1A2A4F;" d="M110.07,218.994c-2.308,0-3.195-1.623-3.195-4.02c0-2.701,1.002-4.806,3.804-4.806
			c0.481,0,1.154,0.076,1.433,0.178c0.051,0.177,0.063,0.469,0.063,0.608c0,0.24-0.025,0.57-0.089,0.748
			c-0.33-0.051-0.812-0.089-1.179-0.089c-1.23,0-1.965,0.748-2.105,2.13c0.393-0.253,1.065-0.469,1.687-0.469
			c1.521,0,2.485,1.141,2.485,2.676C112.974,217.662,111.846,218.994,110.07,218.994z M110.083,214.683
			c-0.545,0-1.09,0.229-1.357,0.482c-0.013,0.126-0.013,0.291-0.013,0.481c0,0.786,0.279,1.902,1.306,1.902
			c0.71,0,1.078-0.673,1.078-1.51C111.098,215.216,110.768,214.683,110.083,214.683z"/>
		<path style="fill:#1A2A4F;" d="M114.052,221.162c-0.203-0.14-0.469-0.405-0.545-0.697c0.532-0.38,0.925-0.837,1.103-1.306
			c-0.241-0.216-0.431-0.521-0.431-0.938c0-0.495,0.431-0.9,0.938-0.9c0.57,0,0.951,0.418,0.951,1.04
			C116.068,219.349,115.143,220.528,114.052,221.162z"/>
		<path style="fill:#1A2A4F;" d="M125.706,218.867h-5.415c-0.114-0.267-0.152-0.596-0.152-0.888c0-0.152,0.013-0.342,0.038-0.469
			c0.887-0.9,1.838-1.915,2.675-2.854c0.621-0.697,1.116-1.344,1.116-2.054c0-0.622-0.431-0.977-1.192-0.977
			c-0.558,0-1.445,0.19-2.27,0.583c-0.051-0.216-0.102-0.596-0.102-0.9c0-0.152,0.025-0.456,0.076-0.659
			c0.621-0.267,1.623-0.507,2.599-0.507c1.446,0,2.714,0.672,2.714,2.231c0,1.369-0.735,2.295-2.308,3.943
			c-0.304,0.33-0.634,0.646-0.963,0.989h3.208c0.038,0.165,0.063,0.481,0.063,0.786
			C125.795,218.348,125.757,218.689,125.706,218.867z"/>
		<path style="fill:#1A2A4F;" d="M129.992,218.994c-2.029,0-3.018-1.496-3.018-4.413c0-2.941,1.027-4.412,3.056-4.412
			c2.016,0,3.005,1.471,3.005,4.412C133.036,217.498,132.009,218.994,129.992,218.994z M130.005,211.652
			c-0.812,0-1.167,0.748-1.167,2.929c0,2.144,0.355,2.93,1.167,2.93s1.167-0.786,1.167-2.93
			C131.172,212.4,130.816,211.652,130.005,211.652z"/>
		<path style="fill:#1A2A4F;" d="M138.564,218.867c-0.19,0.038-0.532,0.063-0.9,0.063c-0.355,0-0.672-0.025-0.9-0.063v-6.556
			l-1.801,1.192c-0.431-0.394-0.735-0.926-0.85-1.383l2.98-1.825c0.178-0.038,0.545-0.063,0.735-0.063
			c0.216,0,0.609,0.038,0.735,0.063V218.867z"/>
		<path style="fill:#1A2A4F;" d="M146.756,211.729l-3.373,7.139c-0.241,0.038-0.609,0.063-0.926,0.063s-0.799-0.025-1.015-0.063
			l3.437-7.012h-3.83c-0.025-0.178-0.063-0.495-0.063-0.786c0-0.267,0.025-0.584,0.076-0.773h5.757
			c0.038,0.164,0.076,0.431,0.076,0.697C146.896,211.246,146.845,211.538,146.756,211.729z"/>
	</g>
</g>
</svg>
