<?xml version="1.0" encoding="utf-8"?>
<!-- Generator: Adobe Illustrator 16.0.0, SVG Export Plug-In . SVG Version: 6.00 Build 0)  -->
<!DOCTYPE svg PUBLIC "-//W3C//DTD SVG 1.0//EN" "http://www.w3.org/TR/2001/REC-SVG-20010904/DTD/svg10.dtd">
<svg version="1.0" xmlns="http://www.w3.org/2000/svg" xmlns:xlink="http://www.w3.org/1999/xlink" x="0px" y="0px" width="300px"
	 height="300px" viewBox="0 0 300 300" style="enable-background:new 0 0 300 300;" xml:space="preserve">
<g id="Text" style="display:none;">
	<text transform="matrix(1 0 0 1 122.9033 223.9111)" style="display:inline;"><tspan x="0" y="0" style="fill:#58595B; font-family:'FSMatthew-Light'; font-size:25.3015;">countries ac</tspan><tspan x="124.963" y="0" style="fill:#58595B; font-family:'FSMatthew-Light'; font-size:25.3015;">r</tspan><tspan x="132.756" y="0" style="fill:#58595B; font-family:'FSMatthew-Light'; font-size:25.3015;">oss </tspan></text>
	
		<text transform="matrix(1 0 0 1 122.9033 251.5146)" style="display:inline;fill:#58595B; font-family:'FSMatthew-Light'; font-size:25.3015;">the globe</text>
	<text transform="matrix(1 0 0 1 88.8008 195.2627)" style="display:inline;"><tspan x="0" y="0" style="fill:#837199; font-family:'FSMatthew-Bold'; font-size:134.9568; letter-spacing:-16;">1</tspan><tspan x="57.895" y="0" style="fill:#837199; font-family:'FSMatthew-Bold'; font-size:134.9568; letter-spacing:-2;">0</tspan><tspan x="129.285" y="0" style="fill:#837199; font-family:'FSMatthew-Bold'; font-size:134.9568;">0</tspan></text>
	<text transform="matrix(1 0 0 1 12.9658 61.46)" style="display:inline;"><tspan x="0" y="0" style="fill:#58595B; font-family:'FSMatthew-Light'; font-size:25.3015;">W</tspan><tspan x="21.228" y="0" style="fill:#58595B; font-family:'FSMatthew-Light'; font-size:25.3015;">e </tspan><tspan x="38.989" y="0" style="fill:#58595B; font-family:'FSMatthew-Light'; font-size:25.3015;">w</tspan><tspan x="57.13" y="0" style="fill:#58595B; font-family:'FSMatthew-Light'; font-size:25.3015;">elcome in</tspan><tspan x="156.589" y="0" style="fill:#58595B; font-family:'FSMatthew-Light'; font-size:25.3015;">t</tspan><tspan x="165.419" y="0" style="fill:#58595B; font-family:'FSMatthew-Light'; font-size:25.3015;">ernational </tspan></text>
	<text transform="matrix(1 0 0 1 12.9658 91.8232)" style="display:inline;"><tspan x="0" y="0" style="fill:#58595B; font-family:'FSMatthew-Light'; font-size:25.3015;">s</tspan><tspan x="9.868" y="0" style="fill:#58595B; font-family:'FSMatthew-Light'; font-size:25.3015;">t</tspan><tspan x="18.951" y="0" style="fill:#58595B; font-family:'FSMatthew-Light'; font-size:25.3015;">udents </tspan><tspan x="96.043" y="0" style="fill:#58595B; font-family:'FSMatthew-Light'; font-size:25.3015;">f</tspan><tspan x="104.772" y="0" style="fill:#58595B; font-family:'FSMatthew-Light'; font-size:25.3015;">r</tspan><tspan x="112.59" y="0" style="fill:#58595B; font-family:'FSMatthew-Light'; font-size:25.3015;">om </tspan><tspan x="152.692" y="0" style="fill:#58595B; font-family:'FSMatthew-Light'; font-size:25.3015;">o</tspan><tspan x="165.419" y="0" style="fill:#58595B; font-family:'FSMatthew-Light'; font-size:25.3015;">v</tspan><tspan x="177.209" y="0" style="fill:#58595B; font-family:'FSMatthew-Light'; font-size:25.3015;">er</tspan></text>
</g>
<g id="Text_Flat">
	<g>
		<path style="fill:#58595B;" d="M132.922,212.324c-0.81-0.329-1.872-0.531-2.808-0.531c-3.289,0-4.503,2.555-4.503,5.642
			c0,3.036,1.164,5.389,4.478,5.389c0.885,0,1.948-0.151,2.732-0.38c0.051,0.152,0.102,0.329,0.102,0.531
			c0,0.304-0.051,0.531-0.126,0.709c-0.734,0.304-1.923,0.48-2.859,0.48c-4.124,0-6.046-2.707-6.046-6.679
			c0-4.124,2.1-7.008,6.122-7.008c0.961,0,2.1,0.228,2.884,0.582c0.076,0.202,0.101,0.404,0.101,0.632
			C132.998,211.944,132.972,212.147,132.922,212.324z"/>
		<path style="fill:#58595B;" d="M140.335,224.164c-3.314,0-5.439-2.277-5.439-6.831s2.15-6.855,5.464-6.855
			c3.314,0,5.414,2.251,5.414,6.806C145.774,221.837,143.649,224.164,140.335,224.164z M140.36,211.717
			c-2.429,0-3.744,1.872-3.744,5.591c0,3.72,1.29,5.617,3.719,5.617s3.719-1.897,3.719-5.617
			C144.054,213.589,142.789,211.717,140.36,211.717z"/>
		<path style="fill:#58595B;" d="M158.198,218.902c0,3.845-1.594,5.262-4.934,5.262c-3.416,0-4.857-1.417-4.857-5.136v-8.298
			c0.228-0.076,0.531-0.127,0.81-0.127c0.354,0,0.632,0.076,0.835,0.127v8.096c0,2.454,0.379,4.073,3.238,4.073
			c2.682,0,3.264-1.568,3.264-4.124v-8.045c0.202-0.076,0.557-0.127,0.835-0.127s0.581,0.051,0.81,0.127V218.902z"/>
		<path style="fill:#58595B;" d="M171.684,223.937c-0.202,0.051-0.506,0.102-0.81,0.102c-0.253,0-0.582-0.051-0.835-0.127v-8.02
			c0-1.215-0.151-2.15-0.506-2.809c-0.43-0.81-1.239-1.214-2.555-1.214c-1.266,0-2.783,0.708-3.77,1.467v10.575
			c-0.278,0.076-0.557,0.127-0.86,0.127c-0.253,0-0.557-0.051-0.784-0.127V210.73c0.177-0.076,0.48-0.102,0.657-0.102
			c0.253,0,0.557,0.025,0.709,0.102l0.126,1.315h0.025c1.392-1.139,2.985-1.568,4.275-1.568s2.631,0.43,3.365,1.315
			c0.81,0.961,0.961,2.353,0.961,3.719V223.937z"/>
		<path style="fill:#58595B;" d="M182.058,223.784c-0.658,0.229-1.645,0.38-2.379,0.38c-2.504,0-3.693-1.189-3.693-3.997v-8.146
			h-2.276c-0.051-0.126-0.076-0.43-0.076-0.582c0-0.126,0.025-0.43,0.076-0.557l2.276-0.151v-3.44
			c0.202-0.076,0.531-0.127,0.81-0.127s0.633,0.051,0.835,0.127v3.44h3.719c0.051,0.126,0.102,0.506,0.102,0.633
			c0,0.177-0.051,0.48-0.102,0.657h-3.719v7.994c0,1.999,0.582,2.834,2.15,2.834c0.86,0,1.695-0.127,2.277-0.304
			c0.05,0.127,0.101,0.43,0.101,0.607C182.158,223.38,182.133,223.557,182.058,223.784z"/>
		<path style="fill:#58595B;" d="M190.406,211.944c-1.468,0.203-3.062,0.734-4.25,1.645v10.322
			c-0.254,0.076-0.557,0.127-0.835,0.127s-0.557-0.051-0.81-0.127V210.73c0.151-0.051,0.379-0.102,0.632-0.102
			c0.203,0,0.481,0.051,0.684,0.102l0.126,1.619h0.025c1.088-0.937,2.985-1.721,4.428-1.872c0.051,0.151,0.101,0.43,0.101,0.657
			C190.507,211.388,190.457,211.717,190.406,211.944z"/>
		<path style="fill:#58595B;" d="M193.873,208.149c-0.582,0-1.062-0.506-1.062-1.112c0-0.607,0.48-1.088,1.062-1.088
			s1.088,0.48,1.088,1.088C194.961,207.644,194.455,208.149,193.873,208.149z M194.708,223.911
			c-0.228,0.076-0.557,0.127-0.835,0.127s-0.582-0.051-0.81-0.127V210.73c0.202-0.051,0.531-0.127,0.784-0.127
			c0.278,0,0.658,0.051,0.86,0.127V223.911z"/>
		<path style="fill:#58595B;" d="M207.662,217.764h-8.476c0.102,2.909,1.468,5.11,4.63,5.11c1.139,0,2.201-0.152,3.137-0.38
			c0.051,0.127,0.102,0.38,0.102,0.531c0,0.253-0.051,0.48-0.127,0.658c-0.986,0.304-2.226,0.48-3.263,0.48
			c-1.999,0-3.517-0.633-4.453-1.645c-1.113-1.214-1.695-3.036-1.695-5.136c0-3.668,1.847-6.906,5.541-6.906
			c3.314,0,4.63,2.732,4.63,6.071C207.688,216.929,207.688,217.384,207.662,217.764z M206.043,216.549
			c0-2.327-0.253-4.832-3.062-4.832c-2.454,0-3.643,2.252-3.795,4.832H206.043z"/>
		<path style="fill:#58595B;" d="M213.381,224.164c-1.266,0-2.581-0.228-3.491-0.582c-0.076-0.177-0.127-0.48-0.127-0.708
			c0-0.152,0.051-0.531,0.102-0.684c0.936,0.38,2.276,0.684,3.39,0.684c1.923,0,3.112-0.81,3.112-2.403
			c0-1.442-0.734-1.948-2.732-2.682c-2.783-1.013-3.694-2.176-3.694-3.896c0-2.327,1.923-3.415,4.402-3.415
			c0.835,0,1.923,0.151,2.556,0.354c0.075,0.229,0.101,0.456,0.101,0.607c0,0.202-0.05,0.557-0.101,0.733
			c-0.835-0.253-1.721-0.404-2.581-0.404c-1.796,0-2.884,0.683-2.884,2.074c0,1.215,0.683,1.797,2.758,2.581
			c1.897,0.708,3.643,1.417,3.643,3.972C217.833,222.975,215.885,224.164,213.381,224.164z"/>
		<path style="fill:#58595B;" d="M235.088,220.673c0,0.911,0,2.049,0.051,3.238c-0.177,0.076-0.455,0.127-0.683,0.127
			c-0.203,0-0.481-0.051-0.684-0.127c-0.076-0.405-0.126-0.937-0.151-1.417h-0.025c-0.86,1.062-2.378,1.67-3.871,1.67
			c-2.353,0-4.326-1.315-4.326-4.022c0-1.543,0.633-2.682,1.619-3.39c1.113-0.785,2.581-1.038,4.149-1.038
			c0.886,0,1.619,0.051,2.276,0.152v-0.733c0-2.53-1.037-3.365-3.162-3.365c-1.189,0-2.656,0.253-3.567,0.48
			c-0.051-0.126-0.101-0.404-0.101-0.657c0-0.178,0.05-0.431,0.126-0.582c1.088-0.329,2.53-0.531,3.744-0.531
			c3.011,0,4.604,1.366,4.604,4.452V220.673z M233.443,217.105c-0.733-0.101-1.492-0.151-2.15-0.151
			c-1.239,0-2.353,0.228-3.111,0.81c-0.684,0.506-1.062,1.315-1.062,2.353c0,1.847,1.188,2.732,2.833,2.732
			c1.366,0,2.809-0.658,3.491-1.695V217.105z"/>
		<path style="fill:#58595B;" d="M246.878,212.324c-0.81-0.329-1.872-0.531-2.809-0.531c-3.289,0-4.503,2.555-4.503,5.642
			c0,3.036,1.164,5.389,4.478,5.389c0.886,0,1.948-0.151,2.732-0.38c0.051,0.152,0.102,0.329,0.102,0.531
			c0,0.304-0.051,0.531-0.127,0.709c-0.733,0.304-1.923,0.48-2.858,0.48c-4.124,0-6.047-2.707-6.047-6.679
			c0-4.124,2.101-7.008,6.123-7.008c0.961,0,2.1,0.228,2.884,0.582c0.076,0.202,0.102,0.404,0.102,0.632
			C246.954,211.944,246.929,212.147,246.878,212.324z"/>
		<path style="fill:#58595B;" d="M255.481,211.944c-1.468,0.203-3.062,0.734-4.25,1.645v10.322
			c-0.254,0.076-0.557,0.127-0.835,0.127s-0.557-0.051-0.81-0.127V210.73c0.151-0.051,0.379-0.102,0.632-0.102
			c0.203,0,0.48,0.051,0.684,0.102l0.126,1.619h0.025c1.088-0.937,2.985-1.721,4.428-1.872c0.051,0.151,0.101,0.43,0.101,0.657
			C255.582,211.388,255.532,211.717,255.481,211.944z"/>
		<path style="fill:#58595B;" d="M262.085,224.164c-3.314,0-5.439-2.277-5.439-6.831s2.15-6.855,5.465-6.855
			s5.414,2.251,5.414,6.806C267.524,221.837,265.399,224.164,262.085,224.164z M262.11,211.717c-2.429,0-3.744,1.872-3.744,5.591
			c0,3.72,1.29,5.617,3.719,5.617s3.719-1.897,3.719-5.617C265.804,213.589,264.539,211.717,262.11,211.717z"/>
		<path style="fill:#58595B;" d="M273.167,224.164c-1.266,0-2.581-0.228-3.491-0.582c-0.076-0.177-0.127-0.48-0.127-0.708
			c0-0.152,0.051-0.531,0.102-0.684c0.936,0.38,2.276,0.684,3.39,0.684c1.923,0,3.112-0.81,3.112-2.403
			c0-1.442-0.734-1.948-2.732-2.682c-2.783-1.013-3.693-2.176-3.693-3.896c0-2.327,1.922-3.415,4.401-3.415
			c0.835,0,1.923,0.151,2.556,0.354c0.075,0.229,0.101,0.456,0.101,0.607c0,0.202-0.05,0.557-0.101,0.733
			c-0.835-0.253-1.721-0.404-2.581-0.404c-1.796,0-2.884,0.683-2.884,2.074c0,1.215,0.683,1.797,2.758,2.581
			c1.897,0.708,3.643,1.417,3.643,3.972C277.619,222.975,275.671,224.164,273.167,224.164z"/>
		<path style="fill:#58595B;" d="M283.237,224.164c-1.266,0-2.581-0.228-3.491-0.582c-0.076-0.177-0.127-0.48-0.127-0.708
			c0-0.152,0.051-0.531,0.102-0.684c0.936,0.38,2.276,0.684,3.39,0.684c1.923,0,3.112-0.81,3.112-2.403
			c0-1.442-0.734-1.948-2.732-2.682c-2.783-1.013-3.693-2.176-3.693-3.896c0-2.327,1.922-3.415,4.401-3.415
			c0.835,0,1.923,0.151,2.556,0.354c0.075,0.229,0.101,0.456,0.101,0.607c0,0.202-0.05,0.557-0.101,0.733
			c-0.835-0.253-1.721-0.404-2.581-0.404c-1.796,0-2.884,0.683-2.884,2.074c0,1.215,0.683,1.797,2.758,2.581
			c1.897,0.708,3.643,1.417,3.643,3.972C287.689,222.975,285.741,224.164,283.237,224.164z"/>
	</g>
	<g>
		<path style="fill:#58595B;" d="M131.631,251.388c-0.658,0.229-1.644,0.38-2.378,0.38c-2.504,0-3.694-1.189-3.694-3.997v-8.146
			h-2.277c-0.05-0.126-0.076-0.43-0.076-0.582c0-0.126,0.025-0.43,0.076-0.557l2.277-0.151v-3.44
			c0.203-0.076,0.531-0.127,0.81-0.127s0.633,0.051,0.835,0.127v3.44h3.719c0.05,0.126,0.101,0.506,0.101,0.633
			c0,0.177-0.051,0.48-0.101,0.657h-3.719v7.994c0,1.999,0.582,2.834,2.15,2.834c0.86,0,1.695-0.127,2.277-0.304
			c0.051,0.127,0.102,0.43,0.102,0.607C131.733,250.983,131.708,251.16,131.631,251.388z"/>
		<path style="fill:#58595B;" d="M144.206,251.515c-0.228,0.076-0.506,0.127-0.759,0.127c-0.304,0-0.632-0.051-0.886-0.127v-7.994
			c0-2.783-0.708-4.048-3.061-4.048c-1.265,0-2.783,0.708-3.77,1.467v10.575c-0.278,0.076-0.582,0.127-0.86,0.127
			c-0.253,0-0.556-0.051-0.784-0.127v-18.469c0.228-0.075,0.582-0.126,0.81-0.126c0.228,0,0.607,0.051,0.835,0.126v6.502
			c1.341-1.037,2.935-1.467,4.174-1.467c1.291,0,2.606,0.43,3.339,1.315c0.81,0.961,0.961,2.353,0.961,3.719V251.515z"/>
		<path style="fill:#58595B;" d="M156.983,245.367h-8.476c0.102,2.909,1.467,5.11,4.63,5.11c1.139,0,2.201-0.152,3.137-0.38
			c0.051,0.127,0.102,0.38,0.102,0.531c0,0.253-0.051,0.48-0.127,0.658c-0.986,0.304-2.226,0.48-3.263,0.48
			c-1.999,0-3.517-0.633-4.453-1.645c-1.113-1.214-1.695-3.036-1.695-5.136c0-3.668,1.847-6.906,5.541-6.906
			c3.314,0,4.63,2.732,4.63,6.071C157.009,244.532,157.009,244.987,156.983,245.367z M155.364,244.152
			c0-2.327-0.253-4.832-3.062-4.832c-2.454,0-3.643,2.252-3.795,4.832H155.364z"/>
		<path style="fill:#58595B;" d="M174.87,249.313c0,1.897-0.101,4.175-1.012,5.743c-1.088,1.872-3.036,2.682-4.983,2.682
			c-1.113,0-2.075-0.127-2.885-0.405c-0.076-0.151-0.101-0.404-0.101-0.606c0-0.152,0.05-0.456,0.101-0.607
			c0.784,0.202,1.695,0.354,2.606,0.354c3.188,0,4.629-1.974,4.629-5.439v-1.062c-0.986,1.037-2.378,1.543-3.517,1.543
			c-3.364,0-5.11-2.605-5.11-6.274c0-4.503,2.657-7.159,6.578-7.159c1.037,0,2.605,0.304,3.693,0.733V249.313z M173.226,239.624
			c-0.91-0.253-1.568-0.329-2.2-0.329c-3.214,0-4.731,2.707-4.731,5.87c0,2.808,1.062,5.009,3.542,5.009
			c1.265,0,2.555-0.633,3.39-1.518V239.624z"/>
		<path style="fill:#58595B;" d="M180.007,251.515c-0.278,0.076-0.557,0.127-0.859,0.127c-0.254,0-0.557-0.051-0.785-0.127v-18.469
			c0.229-0.05,0.507-0.126,0.835-0.126c0.278,0,0.582,0.051,0.81,0.126V251.515z"/>
		<path style="fill:#58595B;" d="M188.204,251.768c-3.314,0-5.439-2.277-5.439-6.831s2.15-6.855,5.465-6.855
			s5.414,2.251,5.414,6.806C193.644,249.44,191.519,251.768,188.204,251.768z M188.229,239.32c-2.429,0-3.744,1.872-3.744,5.591
			c0,3.72,1.29,5.617,3.719,5.617s3.719-1.897,3.719-5.617C191.923,241.192,190.658,239.32,188.229,239.32z"/>
		<path style="fill:#58595B;" d="M200.4,251.768c-1.164,0-2.657-0.177-4.048-0.683v-18.039c0.177-0.05,0.557-0.126,0.784-0.126
			c0.404,0,0.708,0.076,0.86,0.126v6.401c1.037-0.86,2.353-1.366,3.744-1.366c3.566,0,5.06,3.061,5.06,6.477
			C206.801,248.909,204.574,251.768,200.4,251.768z M201.514,239.498c-1.266,0-2.53,0.531-3.517,1.518v9.082
			c0.683,0.253,1.543,0.405,2.276,0.405c3.517,0,4.807-2.682,4.807-5.845C205.08,242.205,204.372,239.498,201.514,239.498z"/>
		<path style="fill:#58595B;" d="M218.945,245.367h-8.476c0.102,2.909,1.468,5.11,4.63,5.11c1.139,0,2.201-0.152,3.137-0.38
			c0.051,0.127,0.102,0.38,0.102,0.531c0,0.253-0.051,0.48-0.127,0.658c-0.986,0.304-2.226,0.48-3.263,0.48
			c-1.999,0-3.517-0.633-4.453-1.645c-1.113-1.214-1.695-3.036-1.695-5.136c0-3.668,1.847-6.906,5.541-6.906
			c3.314,0,4.63,2.732,4.63,6.071C218.971,244.532,218.971,244.987,218.945,245.367z M217.326,244.152
			c0-2.327-0.253-4.832-3.062-4.832c-2.454,0-3.643,2.252-3.795,4.832H217.326z"/>
	</g>
	<g>
		<path style="fill:#837199;" d="M142.921,195.263c-2.024,0.405-5.668,0.675-9.583,0.675c-3.779,0-7.153-0.27-9.583-0.675v-69.776
			l-19.165,12.687c-4.589-4.184-7.828-9.853-9.043-14.711l31.717-19.435c1.889-0.405,5.803-0.675,7.828-0.675
			c2.294,0,6.479,0.405,7.828,0.675V195.263z"/>
		<path style="fill:#837199;" d="M183.541,196.612c-21.595,0-32.121-15.926-32.121-46.968c0-31.312,10.932-46.967,32.526-46.967
			c21.459,0,31.986,15.656,31.986,46.967C215.933,180.687,205,196.612,183.541,196.612z M183.676,118.468
			c-8.638,0-12.417,7.963-12.417,31.176c0,22.81,3.779,31.177,12.417,31.177s12.417-8.367,12.417-31.177
			C196.093,126.431,192.313,118.468,183.676,118.468z"/>
		<path style="fill:#837199;" d="M254.931,196.612c-21.594,0-32.121-15.926-32.121-46.968c0-31.312,10.933-46.967,32.526-46.967
			c21.459,0,31.986,15.656,31.986,46.967C287.322,180.687,276.391,196.612,254.931,196.612z M255.066,118.468
			c-8.638,0-12.417,7.963-12.417,31.176c0,22.81,3.779,31.177,12.417,31.177s12.416-8.367,12.416-31.177
			C267.482,126.431,263.704,118.468,255.066,118.468z"/>
	</g>
	<g>
		<path style="fill:#58595B;" d="M24.249,49.19c-0.202-0.81-0.354-1.543-0.455-2.277c-0.126,0.708-0.278,1.392-0.506,2.251
			L20.151,61.46c-0.253,0.076-0.658,0.126-1.012,0.126c-0.354,0-0.835-0.025-1.088-0.126l-3.693-12.827
			c-0.43-1.417-0.607-2.859-0.633-4.275c0.253-0.076,0.633-0.126,0.886-0.126c0.278,0,0.531,0.05,0.835,0.126
			c0.025,1.341,0.177,2.631,0.531,3.921l2.605,9.259c0.126,0.481,0.481,1.771,0.582,2.302c0.051-0.506,0.304-1.619,0.48-2.328
			l3.314-13.155c0.228-0.076,0.557-0.126,0.81-0.126c0.278,0,0.632,0.076,0.81,0.126l3.314,13.13
			c0.177,0.658,0.405,1.645,0.582,2.378c0.177-0.734,0.43-1.746,0.632-2.479l2.581-9.107c0.354-1.291,0.557-2.581,0.582-3.921
			c0.253-0.076,0.531-0.126,0.835-0.126c0.253,0,0.632,0.05,0.835,0.126c-0.025,1.315-0.203,2.707-0.633,4.174L29.587,61.46
			c-0.278,0.076-0.86,0.126-1.139,0.126c-0.253,0-0.708-0.051-1.012-0.126L24.249,49.19z"/>
		<path style="fill:#58595B;" d="M45.325,55.312H36.85c0.102,2.909,1.467,5.11,4.63,5.11c1.139,0,2.201-0.152,3.137-0.38
			c0.05,0.127,0.101,0.38,0.101,0.532c0,0.253-0.051,0.48-0.126,0.658c-0.987,0.303-2.227,0.48-3.264,0.48
			c-1.999,0-3.517-0.632-4.453-1.645c-1.113-1.214-1.695-3.036-1.695-5.136c0-3.668,1.847-6.906,5.541-6.906
			c3.314,0,4.629,2.732,4.629,6.072C45.351,54.478,45.351,54.933,45.325,55.312z M43.706,54.098c0-2.328-0.253-4.833-3.061-4.833
			c-2.454,0-3.643,2.252-3.795,4.833H43.706z"/>
		<path style="fill:#58595B;" d="M69.006,50.885l-3.39,10.575c-0.203,0.076-0.582,0.126-0.784,0.126
			c-0.228,0-0.607-0.051-0.785-0.126l-3.036-10.221h-0.051L57.773,61.46c-0.228,0.076-0.582,0.126-0.784,0.126
			c-0.203,0-0.531-0.051-0.759-0.126l-3.137-10.423c-0.278-0.86-0.405-1.847-0.43-2.783c0.202-0.051,0.607-0.101,0.86-0.101
			c0.278,0,0.531,0.05,0.759,0.126c0.025,0.911,0.177,1.872,0.405,2.707l2.302,8.222h0.025l3.289-10.955
			c0.177-0.051,0.531-0.076,0.708-0.076s0.557,0.025,0.708,0.076l3.112,10.955h0.025l2.53-8.197c0.278-0.936,0.48-1.821,0.531-2.732
			c0.177-0.076,0.607-0.126,0.834-0.126c0.228,0,0.582,0.05,0.734,0.126C69.487,49.139,69.285,50,69.006,50.885z"/>
		<path style="fill:#58595B;" d="M81.228,55.312h-8.476c0.102,2.909,1.467,5.11,4.63,5.11c1.139,0,2.201-0.152,3.137-0.38
			c0.05,0.127,0.101,0.38,0.101,0.532c0,0.253-0.051,0.48-0.126,0.658c-0.987,0.303-2.227,0.48-3.264,0.48
			c-1.999,0-3.517-0.632-4.453-1.645c-1.113-1.214-1.695-3.036-1.695-5.136c0-3.668,1.847-6.906,5.541-6.906
			c3.314,0,4.629,2.732,4.629,6.072C81.252,54.478,81.252,54.933,81.228,55.312z M79.608,54.098c0-2.328-0.253-4.833-3.062-4.833
			c-2.454,0-3.643,2.252-3.795,4.833H79.608z"/>
		<path style="fill:#58595B;" d="M85.707,61.46c-0.278,0.076-0.557,0.126-0.86,0.126c-0.253,0-0.557-0.051-0.784-0.126V42.992
			c0.228-0.051,0.506-0.126,0.835-0.126c0.278,0,0.582,0.05,0.81,0.126V61.46z"/>
		<path style="fill:#58595B;" d="M97.496,49.873c-0.81-0.329-1.872-0.531-2.808-0.531c-3.289,0-4.503,2.555-4.503,5.642
			c0,3.036,1.164,5.389,4.478,5.389c0.885,0,1.948-0.152,2.732-0.379c0.051,0.152,0.102,0.329,0.102,0.531
			c0,0.304-0.051,0.531-0.126,0.708c-0.734,0.303-1.923,0.48-2.859,0.48c-4.124,0-6.046-2.707-6.046-6.679
			c0-4.124,2.1-7.008,6.122-7.008c0.961,0,2.1,0.228,2.884,0.582c0.076,0.203,0.101,0.405,0.101,0.633
			C97.572,49.494,97.546,49.696,97.496,49.873z"/>
		<path style="fill:#58595B;" d="M104.909,61.713c-3.314,0-5.439-2.277-5.439-6.831c0-4.554,2.15-6.856,5.464-6.856
			c3.314,0,5.414,2.251,5.414,6.805S108.224,61.713,104.909,61.713z M104.935,49.266c-2.429,0-3.744,1.872-3.744,5.591
			c0,3.719,1.29,5.616,3.719,5.616s3.719-1.897,3.719-5.616C108.628,51.138,107.363,49.266,104.935,49.266z"/>
		<path style="fill:#58595B;" d="M131.374,61.485c-0.253,0.05-0.506,0.101-0.759,0.101c-0.304,0-0.582-0.076-0.885-0.126v-7.995
			c0-2.783-0.708-4.048-3.062-4.048c-1.214,0-2.833,0.633-3.845,1.366c0.202,0.708,0.253,1.493,0.253,2.277v8.399
			c-0.253,0.076-0.506,0.126-0.759,0.126c-0.329,0-0.633-0.051-0.886-0.126v-7.995c0-2.783-0.632-4.048-2.985-4.048
			c-1.265,0-2.757,0.708-3.744,1.467V61.46c-0.278,0.076-0.607,0.126-0.911,0.126c-0.253,0-0.531-0.051-0.734-0.126V48.279
			c0.126-0.051,0.405-0.102,0.683-0.102c0.228,0,0.506,0.051,0.683,0.102l0.126,1.315h0.025c1.392-1.139,2.985-1.568,4.275-1.568
			c1.291,0,2.53,0.43,3.264,1.315c0.101,0.101,0.177,0.228,0.253,0.354c1.341-1.088,3.062-1.669,4.706-1.669
			c1.291,0,2.606,0.43,3.34,1.315c0.81,0.961,0.961,2.353,0.961,3.719V61.485z"/>
		<path style="fill:#58595B;" d="M144.151,55.312h-8.475c0.102,2.909,1.467,5.11,4.63,5.11c1.139,0,2.201-0.152,3.137-0.38
			c0.05,0.127,0.101,0.38,0.101,0.532c0,0.253-0.051,0.48-0.126,0.658c-0.987,0.303-2.227,0.48-3.264,0.48
			c-1.999,0-3.517-0.632-4.453-1.645c-1.113-1.214-1.695-3.036-1.695-5.136c0-3.668,1.847-6.906,5.541-6.906
			c3.314,0,4.629,2.732,4.629,6.072C144.177,54.478,144.177,54.933,144.151,55.312z M142.532,54.098
			c0-2.328-0.253-4.833-3.061-4.833c-2.454,0-3.643,2.252-3.795,4.833H142.532z"/>
		<path style="fill:#58595B;" d="M153.412,45.699c-0.582,0-1.062-0.506-1.062-1.113c0-0.607,0.48-1.088,1.062-1.088
			s1.088,0.481,1.088,1.088C154.5,45.193,153.994,45.699,153.412,45.699z M154.247,61.46c-0.228,0.076-0.557,0.126-0.835,0.126
			s-0.582-0.051-0.81-0.126V48.279c0.202-0.051,0.531-0.126,0.784-0.126c0.278,0,0.658,0.05,0.86,0.126V61.46z"/>
		<path style="fill:#58595B;" d="M167.909,61.485c-0.202,0.05-0.506,0.101-0.81,0.101c-0.253,0-0.582-0.051-0.835-0.126v-8.02
			c0-1.214-0.151-2.15-0.506-2.808c-0.43-0.81-1.239-1.214-2.555-1.214c-1.266,0-2.783,0.708-3.77,1.467V61.46
			c-0.278,0.076-0.557,0.126-0.86,0.126c-0.253,0-0.557-0.051-0.784-0.126V48.279c0.177-0.076,0.48-0.102,0.657-0.102
			c0.253,0,0.557,0.025,0.709,0.102l0.126,1.315h0.025c1.392-1.139,2.985-1.568,4.275-1.568s2.631,0.43,3.365,1.315
			c0.81,0.961,0.961,2.353,0.961,3.719V61.485z"/>
		<path style="fill:#58595B;" d="M178.283,61.333c-0.658,0.228-1.645,0.379-2.379,0.379c-2.504,0-3.693-1.189-3.693-3.997v-8.146
			h-2.276c-0.051-0.126-0.076-0.43-0.076-0.582c0-0.126,0.025-0.43,0.076-0.556l2.276-0.152v-3.441
			c0.202-0.076,0.531-0.126,0.81-0.126s0.633,0.051,0.835,0.126v3.441h3.719c0.051,0.126,0.102,0.506,0.102,0.632
			c0,0.177-0.051,0.48-0.102,0.658h-3.719v7.995c0,1.999,0.582,2.833,2.15,2.833c0.86,0,1.695-0.126,2.277-0.304
			c0.05,0.126,0.101,0.43,0.101,0.607C178.384,60.929,178.358,61.106,178.283,61.333z"/>
		<path style="fill:#58595B;" d="M189.517,55.312h-8.476c0.102,2.909,1.468,5.11,4.63,5.11c1.139,0,2.201-0.152,3.137-0.38
			c0.051,0.127,0.102,0.38,0.102,0.532c0,0.253-0.051,0.48-0.127,0.658c-0.986,0.303-2.226,0.48-3.263,0.48
			c-1.999,0-3.517-0.632-4.453-1.645c-1.113-1.214-1.695-3.036-1.695-5.136c0-3.668,1.848-6.906,5.541-6.906
			c3.314,0,4.63,2.732,4.63,6.072C189.542,54.478,189.542,54.933,189.517,55.312z M187.897,54.098c0-2.328-0.253-4.833-3.062-4.833
			c-2.454,0-3.643,2.252-3.795,4.833H187.897z"/>
		<path style="fill:#58595B;" d="M198.195,49.494c-1.468,0.202-3.062,0.733-4.25,1.644V61.46c-0.254,0.076-0.557,0.126-0.835,0.126
			s-0.557-0.051-0.81-0.126V48.279c0.151-0.051,0.379-0.102,0.632-0.102c0.203,0,0.481,0.051,0.684,0.102l0.126,1.619h0.025
			c1.088-0.936,2.985-1.721,4.428-1.872c0.051,0.151,0.101,0.43,0.101,0.658C198.296,48.937,198.246,49.266,198.195,49.494z"/>
		<path style="fill:#58595B;" d="M210.87,61.485c-0.202,0.05-0.506,0.101-0.81,0.101c-0.253,0-0.582-0.051-0.835-0.126v-8.02
			c0-1.214-0.151-2.15-0.506-2.808c-0.43-0.81-1.239-1.214-2.555-1.214c-1.266,0-2.783,0.708-3.77,1.467V61.46
			c-0.278,0.076-0.557,0.126-0.86,0.126c-0.253,0-0.557-0.051-0.784-0.126V48.279c0.177-0.076,0.48-0.102,0.657-0.102
			c0.253,0,0.557,0.025,0.709,0.102l0.126,1.315h0.025c1.392-1.139,2.985-1.568,4.275-1.568s2.631,0.43,3.365,1.315
			c0.81,0.961,0.961,2.353,0.961,3.719V61.485z"/>
		<path style="fill:#58595B;" d="M223.242,58.222c0,0.911,0,2.049,0.051,3.238c-0.177,0.076-0.455,0.126-0.683,0.126
			c-0.203,0-0.481-0.051-0.684-0.126c-0.076-0.405-0.126-0.936-0.151-1.417h-0.025c-0.86,1.063-2.378,1.67-3.871,1.67
			c-2.353,0-4.326-1.315-4.326-4.022c0-1.543,0.633-2.682,1.619-3.39c1.113-0.784,2.581-1.037,4.149-1.037
			c0.886,0,1.619,0.05,2.276,0.152v-0.734c0-2.53-1.037-3.365-3.162-3.365c-1.189,0-2.656,0.253-3.567,0.48
			c-0.051-0.126-0.101-0.405-0.101-0.658c0-0.177,0.05-0.43,0.126-0.582c1.088-0.329,2.53-0.531,3.744-0.531
			c3.011,0,4.604,1.366,4.604,4.453V58.222z M221.598,54.654c-0.733-0.101-1.492-0.151-2.15-0.151c-1.239,0-2.353,0.228-3.111,0.81
			c-0.684,0.506-1.062,1.315-1.062,2.353c0,1.847,1.188,2.732,2.833,2.732c1.366,0,2.809-0.658,3.491-1.695V54.654z"/>
		<path style="fill:#58595B;" d="M233.743,61.333c-0.658,0.228-1.645,0.379-2.379,0.379c-2.504,0-3.693-1.189-3.693-3.997v-8.146
			h-2.276c-0.051-0.126-0.076-0.43-0.076-0.582c0-0.126,0.025-0.43,0.076-0.556l2.276-0.152v-3.441
			c0.202-0.076,0.531-0.126,0.81-0.126s0.633,0.051,0.835,0.126v3.441h3.719c0.051,0.126,0.102,0.506,0.102,0.632
			c0,0.177-0.051,0.48-0.102,0.658h-3.719v7.995c0,1.999,0.582,2.833,2.15,2.833c0.86,0,1.695-0.126,2.277-0.304
			c0.05,0.126,0.101,0.43,0.101,0.607C233.844,60.929,233.818,61.106,233.743,61.333z"/>
		<path style="fill:#58595B;" d="M237.108,45.699c-0.582,0-1.062-0.506-1.062-1.113c0-0.607,0.48-1.088,1.062-1.088
			s1.088,0.481,1.088,1.088C238.196,45.193,237.69,45.699,237.108,45.699z M237.943,61.46c-0.228,0.076-0.557,0.126-0.835,0.126
			s-0.582-0.051-0.81-0.126V48.279c0.203-0.051,0.531-0.126,0.784-0.126c0.278,0,0.658,0.05,0.86,0.126V61.46z"/>
		<path style="fill:#58595B;" d="M246.191,61.713c-3.314,0-5.439-2.277-5.439-6.831c0-4.554,2.15-6.856,5.465-6.856
			s5.414,2.251,5.414,6.805S249.506,61.713,246.191,61.713z M246.217,49.266c-2.429,0-3.744,1.872-3.744,5.591
			c0,3.719,1.29,5.616,3.719,5.616s3.719-1.897,3.719-5.616C249.91,51.138,248.646,49.266,246.217,49.266z"/>
		<path style="fill:#58595B;" d="M264.458,61.485c-0.202,0.05-0.506,0.101-0.81,0.101c-0.253,0-0.582-0.051-0.835-0.126v-8.02
			c0-1.214-0.151-2.15-0.506-2.808c-0.43-0.81-1.239-1.214-2.555-1.214c-1.266,0-2.783,0.708-3.77,1.467V61.46
			c-0.278,0.076-0.557,0.126-0.86,0.126c-0.253,0-0.557-0.051-0.784-0.126V48.279c0.177-0.076,0.48-0.102,0.657-0.102
			c0.253,0,0.557,0.025,0.709,0.102l0.126,1.315h0.025c1.392-1.139,2.985-1.568,4.275-1.568s2.631,0.43,3.365,1.315
			c0.81,0.961,0.961,2.353,0.961,3.719V61.485z"/>
		<path style="fill:#58595B;" d="M276.83,58.222c0,0.911,0,2.049,0.051,3.238c-0.177,0.076-0.455,0.126-0.683,0.126
			c-0.203,0-0.481-0.051-0.684-0.126c-0.076-0.405-0.126-0.936-0.151-1.417h-0.025c-0.86,1.063-2.378,1.67-3.871,1.67
			c-2.353,0-4.326-1.315-4.326-4.022c0-1.543,0.633-2.682,1.619-3.39c1.113-0.784,2.581-1.037,4.149-1.037
			c0.886,0,1.619,0.05,2.276,0.152v-0.734c0-2.53-1.037-3.365-3.162-3.365c-1.189,0-2.656,0.253-3.567,0.48
			c-0.051-0.126-0.101-0.405-0.101-0.658c0-0.177,0.05-0.43,0.126-0.582c1.088-0.329,2.53-0.531,3.744-0.531
			c3.011,0,4.604,1.366,4.604,4.453V58.222z M275.186,54.654c-0.733-0.101-1.492-0.151-2.15-0.151c-1.239,0-2.353,0.228-3.111,0.81
			c-0.684,0.506-1.062,1.315-1.062,2.353c0,1.847,1.188,2.732,2.833,2.732c1.366,0,2.809-0.658,3.491-1.695V54.654z"/>
		<path style="fill:#58595B;" d="M282.018,61.46c-0.278,0.076-0.557,0.126-0.859,0.126c-0.254,0-0.557-0.051-0.785-0.126V42.992
			c0.229-0.051,0.507-0.126,0.835-0.126c0.278,0,0.582,0.05,0.81,0.126V61.46z"/>
	</g>
	<g>
		<path style="fill:#58595B;" d="M17.621,92.076c-1.265,0-2.581-0.228-3.492-0.582c-0.076-0.177-0.126-0.48-0.126-0.708
			c0-0.152,0.051-0.531,0.102-0.683c0.936,0.379,2.277,0.683,3.39,0.683c1.923,0,3.112-0.81,3.112-2.403
			c0-1.442-0.733-1.948-2.732-2.682c-2.783-1.012-3.694-2.175-3.694-3.896c0-2.327,1.923-3.415,4.402-3.415
			c0.835,0,1.923,0.151,2.555,0.354c0.076,0.228,0.102,0.456,0.102,0.607c0,0.203-0.051,0.557-0.102,0.734
			c-0.834-0.253-1.72-0.405-2.58-0.405c-1.796,0-2.884,0.683-2.884,2.075c0,1.214,0.683,1.796,2.758,2.581
			c1.897,0.708,3.643,1.417,3.643,3.972C22.073,90.887,20.125,92.076,17.621,92.076z"/>
		<path style="fill:#58595B;" d="M31.562,91.697c-0.658,0.228-1.645,0.379-2.378,0.379c-2.505,0-3.694-1.189-3.694-3.997v-8.146
			h-2.277c-0.05-0.126-0.076-0.43-0.076-0.582c0-0.126,0.025-0.43,0.076-0.556l2.277-0.152v-3.441
			c0.203-0.076,0.531-0.126,0.81-0.126s0.633,0.051,0.835,0.126v3.441h3.719c0.05,0.126,0.101,0.506,0.101,0.632
			c0,0.177-0.051,0.48-0.101,0.658h-3.719v7.995c0,1.999,0.582,2.833,2.15,2.833c0.86,0,1.695-0.126,2.277-0.304
			c0.051,0.126,0.102,0.43,0.102,0.607C31.663,91.292,31.638,91.469,31.562,91.697z"/>
		<path style="fill:#58595B;" d="M43.352,86.814c0,3.846-1.594,5.262-4.933,5.262c-3.416,0-4.857-1.417-4.857-5.136v-8.298
			c0.228-0.076,0.531-0.126,0.81-0.126c0.354,0,0.632,0.076,0.835,0.126v8.096c0,2.454,0.379,4.073,3.238,4.073
			c2.682,0,3.263-1.569,3.263-4.124v-8.045c0.203-0.076,0.557-0.126,0.835-0.126s0.582,0.05,0.81,0.126V86.814z"/>
		<path style="fill:#58595B;" d="M55.8,91.95c-0.228,0-0.506-0.076-0.658-0.126l-0.152-1.518h-0.025
			c-1.088,1.139-2.378,1.771-3.82,1.771c-3.491,0-5.161-2.909-5.161-6.451c0-3.517,1.493-7.235,5.515-7.235
			c1.265,0,2.429,0.43,3.365,1.088v-6.123c0.228-0.076,0.531-0.126,0.81-0.126c0.304,0,0.607,0.076,0.835,0.126v18.468
			C56.331,91.899,56.078,91.95,55.8,91.95z M54.864,80.869c-0.911-0.759-2.075-1.138-3.264-1.138c-2.935,0-3.921,2.884-3.921,5.818
			c0,2.252,0.708,5.187,3.542,5.187c1.366,0,2.757-0.683,3.643-1.746V80.869z"/>
		<path style="fill:#58595B;" d="M69.361,85.676h-8.475c0.102,2.909,1.467,5.11,4.63,5.11c1.139,0,2.201-0.152,3.137-0.38
			c0.05,0.127,0.101,0.38,0.101,0.532c0,0.253-0.051,0.48-0.126,0.658c-0.987,0.303-2.227,0.48-3.264,0.48
			c-1.999,0-3.517-0.632-4.453-1.645c-1.113-1.214-1.695-3.036-1.695-5.136c0-3.668,1.847-6.906,5.541-6.906
			c3.314,0,4.629,2.732,4.629,6.072C69.387,84.841,69.387,85.296,69.361,85.676z M67.742,84.461c0-2.328-0.253-4.833-3.061-4.833
			c-2.454,0-3.643,2.252-3.795,4.833H67.742z"/>
		<path style="fill:#58595B;" d="M82.265,91.849c-0.202,0.05-0.506,0.101-0.81,0.101c-0.253,0-0.582-0.051-0.835-0.126v-8.02
			c0-1.214-0.151-2.15-0.506-2.808c-0.43-0.81-1.24-1.214-2.555-1.214c-1.265,0-2.783,0.708-3.77,1.467v10.575
			c-0.278,0.076-0.557,0.126-0.86,0.126c-0.253,0-0.556-0.051-0.784-0.126V78.643c0.177-0.076,0.481-0.102,0.658-0.102
			c0.253,0,0.557,0.025,0.708,0.102l0.126,1.315h0.025c1.392-1.139,2.985-1.568,4.275-1.568c1.291,0,2.631,0.43,3.365,1.315
			c0.81,0.961,0.961,2.353,0.961,3.719V91.849z"/>
		<path style="fill:#58595B;" d="M92.639,91.697c-0.658,0.228-1.645,0.379-2.378,0.379c-2.505,0-3.694-1.189-3.694-3.997v-8.146
			H84.29c-0.05-0.126-0.076-0.43-0.076-0.582c0-0.126,0.025-0.43,0.076-0.556l2.277-0.152v-3.441
			c0.203-0.076,0.531-0.126,0.81-0.126s0.633,0.051,0.835,0.126v3.441h3.719c0.05,0.126,0.101,0.506,0.101,0.632
			c0,0.177-0.051,0.48-0.101,0.658h-3.719v7.995c0,1.999,0.582,2.833,2.15,2.833c0.86,0,1.695-0.126,2.277-0.304
			c0.051,0.126,0.102,0.43,0.102,0.607C92.74,91.292,92.715,91.469,92.639,91.697z"/>
		<path style="fill:#58595B;" d="M98.028,92.076c-1.265,0-2.581-0.228-3.492-0.582c-0.076-0.177-0.126-0.48-0.126-0.708
			c0-0.152,0.051-0.531,0.102-0.683c0.936,0.379,2.277,0.683,3.39,0.683c1.923,0,3.112-0.81,3.112-2.403
			c0-1.442-0.733-1.948-2.732-2.682c-2.783-1.012-3.694-2.175-3.694-3.896c0-2.327,1.923-3.415,4.402-3.415
			c0.835,0,1.923,0.151,2.555,0.354c0.076,0.228,0.102,0.456,0.102,0.607c0,0.203-0.051,0.557-0.102,0.734
			c-0.834-0.253-1.72-0.405-2.58-0.405c-1.796,0-2.884,0.683-2.884,2.075c0,1.214,0.683,1.796,2.758,2.581
			c1.897,0.708,3.643,1.417,3.643,3.972C102.48,90.887,100.533,92.076,98.028,92.076z"/>
		<path style="fill:#58595B;" d="M118.192,74.443c-0.379-0.101-1.062-0.203-1.594-0.203c-0.961,0-1.67,0.253-2.15,0.784
			c-0.734,0.785-0.86,1.847-0.86,3.188v0.43h3.567c0.05,0.126,0.101,0.43,0.101,0.607c0,0.203-0.051,0.506-0.101,0.683h-3.567
			v11.891c-0.228,0.076-0.48,0.126-0.81,0.126s-0.607-0.051-0.835-0.126V79.933h-2.277c-0.05-0.126-0.076-0.455-0.076-0.607
			c0-0.126,0.025-0.405,0.076-0.531l2.277-0.152v-0.43c0-1.796,0.304-3.036,1.341-4.073c0.734-0.734,1.822-1.088,3.062-1.088
			c0.658,0,1.391,0.152,1.847,0.329c0.051,0.126,0.076,0.303,0.076,0.48C118.268,74.013,118.243,74.316,118.192,74.443z"/>
		<path style="fill:#58595B;" d="M125.353,79.857c-1.468,0.202-3.062,0.733-4.25,1.644v10.322c-0.253,0.076-0.557,0.126-0.835,0.126
			s-0.557-0.051-0.81-0.126V78.643c0.152-0.051,0.379-0.102,0.633-0.102c0.202,0,0.48,0.051,0.683,0.102l0.127,1.619h0.025
			c1.088-0.936,2.985-1.721,4.428-1.872c0.05,0.151,0.101,0.43,0.101,0.658C125.454,79.3,125.403,79.629,125.353,79.857z"/>
		<path style="fill:#58595B;" d="M131.981,92.076c-3.314,0-5.439-2.277-5.439-6.831c0-4.554,2.15-6.856,5.464-6.856
			c3.314,0,5.414,2.251,5.414,6.805S135.296,92.076,131.981,92.076z M132.007,79.629c-2.429,0-3.744,1.872-3.744,5.591
			c0,3.719,1.29,5.616,3.719,5.616s3.719-1.897,3.719-5.616C135.701,81.501,134.436,79.629,132.007,79.629z"/>
		<path style="fill:#58595B;" d="M158.446,91.849c-0.253,0.05-0.506,0.101-0.759,0.101c-0.304,0-0.582-0.076-0.886-0.126v-7.995
			c0-2.783-0.709-4.048-3.062-4.048c-1.214,0-2.833,0.633-3.845,1.366c0.202,0.708,0.253,1.493,0.253,2.277v8.399
			c-0.253,0.076-0.506,0.126-0.759,0.126c-0.329,0-0.633-0.051-0.886-0.126v-7.995c0-2.783-0.632-4.048-2.985-4.048
			c-1.265,0-2.757,0.708-3.744,1.467v10.575c-0.278,0.076-0.607,0.126-0.911,0.126c-0.253,0-0.531-0.051-0.734-0.126V78.643
			c0.126-0.051,0.405-0.102,0.683-0.102c0.228,0,0.506,0.051,0.683,0.102l0.126,1.315h0.025c1.392-1.139,2.985-1.568,4.275-1.568
			c1.291,0,2.53,0.43,3.264,1.315c0.101,0.101,0.177,0.228,0.253,0.354c1.341-1.088,3.062-1.669,4.706-1.669
			c1.29,0,2.605,0.43,3.339,1.315c0.81,0.961,0.962,2.353,0.962,3.719V91.849z"/>
		<path style="fill:#58595B;" d="M172.084,92.076c-3.314,0-5.439-2.277-5.439-6.831c0-4.554,2.15-6.856,5.465-6.856
			s5.414,2.251,5.414,6.805S175.398,92.076,172.084,92.076z M172.109,79.629c-2.429,0-3.744,1.872-3.744,5.591
			c0,3.719,1.29,5.616,3.719,5.616s3.719-1.897,3.719-5.616C175.803,81.501,174.538,79.629,172.109,79.629z"/>
		<path style="fill:#58595B;" d="M189.036,81.855l-3.973,9.968c-0.228,0.076-0.48,0.126-0.683,0.126
			c-0.278,0-0.506-0.051-0.709-0.126l-4.098-9.968c-0.456-1.139-0.658-2.277-0.658-3.213c0.202-0.051,0.557-0.126,0.784-0.126
			c0.304,0,0.607,0.05,0.86,0.126c0.025,0.86,0.126,1.847,0.506,2.757l3.289,8.349h0.051l3.188-8.349
			c0.354-0.885,0.531-1.872,0.531-2.757c0.177-0.076,0.557-0.126,0.886-0.126c0.177,0,0.506,0.025,0.733,0.101
			C189.719,79.528,189.542,80.616,189.036,81.855z"/>
		<path style="fill:#58595B;" d="M201.307,85.676h-8.476c0.102,2.909,1.468,5.11,4.63,5.11c1.139,0,2.201-0.152,3.137-0.38
			c0.051,0.127,0.102,0.38,0.102,0.532c0,0.253-0.051,0.48-0.127,0.658c-0.986,0.303-2.226,0.48-3.263,0.48
			c-1.999,0-3.517-0.632-4.453-1.645c-1.113-1.214-1.695-3.036-1.695-5.136c0-3.668,1.847-6.906,5.541-6.906
			c3.314,0,4.63,2.732,4.63,6.072C201.332,84.841,201.332,85.296,201.307,85.676z M199.688,84.461c0-2.328-0.253-4.833-3.062-4.833
			c-2.454,0-3.643,2.252-3.795,4.833H199.688z"/>
		<path style="fill:#58595B;" d="M209.985,79.857c-1.468,0.202-3.062,0.733-4.25,1.644v10.322c-0.254,0.076-0.557,0.126-0.835,0.126
			s-0.557-0.051-0.81-0.126V78.643c0.151-0.051,0.379-0.102,0.632-0.102c0.203,0,0.48,0.051,0.684,0.102l0.126,1.619h0.025
			c1.088-0.936,2.985-1.721,4.428-1.872c0.051,0.151,0.101,0.43,0.101,0.658C210.086,79.3,210.036,79.629,209.985,79.857z"/>
	</g>
</g>
</svg>
