<?xml version="1.0" encoding="utf-8"?>
<!-- Generator: Adobe Illustrator 16.0.0, SVG Export Plug-In . SVG Version: 6.00 Build 0)  -->
<!DOCTYPE svg PUBLIC "-//W3C//DTD SVG 1.1//EN" "http://www.w3.org/Graphics/SVG/1.1/DTD/svg11.dtd">
<svg version="1.1" id="Layer_1" xmlns="http://www.w3.org/2000/svg" xmlns:xlink="http://www.w3.org/1999/xlink" x="0px" y="0px"
	 width="300px" height="300px" viewBox="0 0 300 300" enable-background="new 0 0 300 300" xml:space="preserve">
<g>
	<path fill="#333333" d="M12.258,182.341c-0.525,0-0.96-0.457-0.96-1.006s0.435-0.982,0.96-0.982c0.526,0,0.983,0.434,0.983,0.982
		S12.784,182.341,12.258,182.341z M13.012,196.581c-0.206,0.068-0.503,0.114-0.754,0.114c-0.251,0-0.525-0.046-0.731-0.114v-11.909
		c0.183-0.045,0.48-0.114,0.709-0.114c0.251,0,0.594,0.046,0.777,0.114V196.581z"/>
	<path fill="#333333" d="M25.56,196.604c-0.183,0.046-0.457,0.092-0.731,0.092c-0.229,0-0.525-0.046-0.754-0.114v-7.246
		c0-1.097-0.137-1.942-0.457-2.537c-0.389-0.731-1.12-1.097-2.309-1.097c-1.143,0-2.514,0.64-3.406,1.325v9.555
		c-0.251,0.068-0.503,0.114-0.777,0.114c-0.229,0-0.502-0.046-0.708-0.114v-11.909c0.16-0.068,0.435-0.091,0.594-0.091
		c0.229,0,0.503,0.022,0.64,0.091l0.114,1.188h0.023c1.257-1.028,2.697-1.417,3.863-1.417c1.166,0,2.377,0.389,3.04,1.188
		c0.731,0.869,0.869,2.126,0.869,3.36V196.604z"/>
	<path fill="#333333" d="M42.586,191.026h-7.658c0.092,2.629,1.326,4.617,4.183,4.617c1.029,0,1.989-0.137,2.834-0.343
		c0.045,0.114,0.091,0.343,0.091,0.48c0,0.229-0.046,0.435-0.114,0.594c-0.892,0.274-2.012,0.435-2.949,0.435
		c-1.806,0-3.177-0.571-4.023-1.485c-1.006-1.098-1.531-2.743-1.531-4.641c0-3.314,1.668-6.24,5.006-6.24
		c2.994,0,4.183,2.469,4.183,5.486C42.608,190.272,42.608,190.684,42.586,191.026z M41.123,189.93c0-2.104-0.229-4.366-2.766-4.366
		c-2.217,0-3.292,2.034-3.429,4.366H41.123z"/>
	<path fill="#333333" d="M53.533,196.695c-0.297,0-0.48-0.046-0.708-0.114c-0.137-0.617-0.274-1.074-0.731-1.691l-2.651-3.611
		l-2.812,3.748c-0.503,0.663-0.572,0.96-0.663,1.555c-0.251,0.068-0.526,0.114-0.731,0.114c-0.229,0-0.663-0.046-0.823-0.114
		c0.091-0.754,0.343-1.257,0.823-1.897l3.314-4.365l-2.834-3.749c-0.64-0.846-0.846-1.485-0.846-1.942
		c0.183-0.046,0.571-0.092,0.8-0.092c0.274,0,0.572,0.022,0.754,0.092c0.069,0.434,0.206,0.914,0.731,1.646l2.24,3.062l2.309-3.017
		c0.548-0.709,0.686-1.212,0.777-1.691c0.183-0.046,0.457-0.092,0.754-0.092c0.16,0,0.572,0.046,0.731,0.092
		c-0.022,0.64-0.343,1.233-0.846,1.92l-2.812,3.726l3.2,4.343c0.526,0.709,0.8,1.212,0.915,1.966
		C54.195,196.649,53.784,196.695,53.533,196.695z"/>
	<path fill="#333333" d="M63.245,196.467c-0.594,0.206-1.486,0.343-2.148,0.343c-2.263,0-3.337-1.074-3.337-3.611v-7.36h-2.057
		c-0.045-0.114-0.068-0.389-0.068-0.525c0-0.114,0.023-0.389,0.068-0.503l2.057-0.138v-3.108c0.183-0.068,0.48-0.114,0.731-0.114
		s0.572,0.046,0.754,0.114v3.108h3.36c0.045,0.114,0.091,0.457,0.091,0.571c0,0.16-0.046,0.435-0.091,0.595h-3.36v7.223
		c0,1.807,0.526,2.561,1.943,2.561c0.777,0,1.532-0.114,2.057-0.274c0.046,0.114,0.092,0.389,0.092,0.549
		C63.336,196.101,63.313,196.261,63.245,196.467z"/>
	<path fill="#333333" d="M73.621,191.026h-7.658c0.092,2.629,1.326,4.617,4.183,4.617c1.029,0,1.989-0.137,2.834-0.343
		c0.045,0.114,0.091,0.343,0.091,0.48c0,0.229-0.046,0.435-0.114,0.594c-0.892,0.274-2.012,0.435-2.949,0.435
		c-1.806,0-3.177-0.571-4.023-1.485c-1.006-1.098-1.531-2.743-1.531-4.641c0-3.314,1.668-6.24,5.006-6.24
		c2.994,0,4.183,2.469,4.183,5.486C73.644,190.272,73.644,190.684,73.621,191.026z M72.158,189.93c0-2.104-0.229-4.366-2.766-4.366
		c-2.217,0-3.292,2.034-3.429,4.366H72.158z"/>
	<path fill="#333333" d="M81.665,185.77c-1.326,0.183-2.766,0.663-3.84,1.485v9.326c-0.229,0.068-0.503,0.114-0.754,0.114
		s-0.503-0.046-0.731-0.114v-11.909c0.137-0.045,0.343-0.091,0.572-0.091c0.183,0,0.434,0.046,0.617,0.091l0.115,1.463h0.022
		c0.983-0.846,2.697-1.554,4-1.691c0.045,0.138,0.091,0.389,0.091,0.595C81.756,185.267,81.71,185.563,81.665,185.77z"/>
	<path fill="#333333" d="M93.321,196.604c-0.183,0.046-0.457,0.092-0.731,0.092c-0.229,0-0.525-0.046-0.754-0.114v-7.246
		c0-1.097-0.137-1.942-0.457-2.537c-0.389-0.731-1.12-1.097-2.309-1.097c-1.143,0-2.514,0.64-3.406,1.325v9.555
		c-0.251,0.068-0.503,0.114-0.777,0.114c-0.229,0-0.502-0.046-0.708-0.114v-11.909c0.16-0.068,0.435-0.091,0.594-0.091
		c0.229,0,0.503,0.022,0.64,0.091l0.114,1.188h0.023c1.257-1.028,2.697-1.417,3.863-1.417c1.166,0,2.377,0.389,3.04,1.188
		c0.731,0.869,0.869,2.126,0.869,3.36V196.604z"/>
	<path fill="#333333" d="M104.725,193.655c0,0.823,0,1.852,0.045,2.926c-0.16,0.068-0.412,0.114-0.617,0.114
		c-0.183,0-0.434-0.046-0.617-0.114c-0.068-0.365-0.114-0.846-0.137-1.28h-0.022c-0.777,0.96-2.149,1.509-3.498,1.509
		c-2.125,0-3.909-1.188-3.909-3.635c0-1.394,0.572-2.423,1.463-3.062c1.006-0.709,2.332-0.938,3.749-0.938
		c0.8,0,1.463,0.046,2.057,0.138v-0.663c0-2.286-0.938-3.04-2.857-3.04c-1.074,0-2.4,0.229-3.223,0.435
		c-0.046-0.114-0.092-0.366-0.092-0.595c0-0.16,0.046-0.389,0.114-0.525c0.983-0.297,2.286-0.48,3.383-0.48
		c2.72,0,4.16,1.234,4.16,4.023V193.655z M103.239,190.433c-0.663-0.092-1.349-0.138-1.943-0.138c-1.12,0-2.126,0.206-2.812,0.731
		c-0.617,0.457-0.96,1.188-0.96,2.126c0,1.669,1.074,2.469,2.56,2.469c1.234,0,2.537-0.595,3.154-1.531V190.433z"/>
	<path fill="#333333" d="M109.637,196.581c-0.251,0.068-0.503,0.114-0.777,0.114c-0.229,0-0.503-0.046-0.708-0.114v-16.687
		c0.206-0.045,0.457-0.114,0.754-0.114c0.251,0,0.525,0.046,0.731,0.114V196.581z"/>
</g>
<g>
	<path fill="#333333" d="M20.053,220.427c0,1.714-0.092,3.771-0.915,5.188c-0.983,1.691-2.743,2.423-4.503,2.423
		c-1.006,0-1.875-0.114-2.606-0.366c-0.068-0.137-0.091-0.365-0.091-0.548c0-0.138,0.046-0.412,0.091-0.549
		c0.709,0.183,1.532,0.32,2.354,0.32c2.88,0,4.183-1.783,4.183-4.915v-0.96c-0.892,0.938-2.149,1.395-3.177,1.395
		c-3.04,0-4.617-2.354-4.617-5.669c0-4.068,2.4-6.469,5.943-6.469c0.937,0,2.354,0.274,3.337,0.663V220.427z M18.567,211.672
		c-0.823-0.229-1.417-0.297-1.989-0.297c-2.903,0-4.274,2.445-4.274,5.303c0,2.537,0.96,4.525,3.2,4.525
		c1.143,0,2.309-0.571,3.063-1.371V211.672z"/>
	<path fill="#333333" d="M28.713,211.604c-1.326,0.183-2.766,0.663-3.84,1.485v9.326c-0.229,0.068-0.503,0.114-0.754,0.114
		s-0.503-0.046-0.731-0.114v-11.909c0.137-0.045,0.343-0.091,0.572-0.091c0.183,0,0.434,0.046,0.617,0.091l0.114,1.463h0.022
		c0.983-0.846,2.697-1.554,4-1.691c0.045,0.138,0.091,0.389,0.091,0.595C28.805,211.101,28.759,211.397,28.713,211.604z"/>
	<path fill="#333333" d="M38.678,219.489c0,0.823,0,1.852,0.046,2.926c-0.16,0.068-0.411,0.114-0.617,0.114
		c-0.183,0-0.434-0.046-0.617-0.114c-0.068-0.365-0.114-0.846-0.137-1.28H37.33c-0.777,0.96-2.149,1.509-3.498,1.509
		c-2.125,0-3.909-1.188-3.909-3.635c0-1.394,0.572-2.423,1.463-3.062c1.006-0.709,2.332-0.938,3.749-0.938
		c0.8,0,1.463,0.046,2.057,0.138v-0.663c0-2.286-0.938-3.04-2.857-3.04c-1.074,0-2.4,0.229-3.223,0.435
		c-0.046-0.114-0.092-0.366-0.092-0.595c0-0.16,0.046-0.389,0.114-0.525c0.983-0.297,2.286-0.48,3.383-0.48
		c2.72,0,4.16,1.234,4.16,4.023V219.489z M37.192,216.267c-0.663-0.092-1.349-0.138-1.943-0.138c-1.12,0-2.126,0.206-2.812,0.731
		c-0.617,0.457-0.96,1.188-0.96,2.126c0,1.669,1.074,2.469,2.56,2.469c1.234,0,2.537-0.595,3.154-1.531V216.267z"/>
	<path fill="#333333" d="M51.202,222.438c-0.183,0.046-0.457,0.092-0.731,0.092c-0.229,0-0.525-0.046-0.754-0.114v-7.246
		c0-1.097-0.137-1.942-0.457-2.537c-0.389-0.731-1.12-1.097-2.309-1.097c-1.143,0-2.514,0.64-3.406,1.325v9.555
		c-0.251,0.068-0.503,0.114-0.777,0.114c-0.229,0-0.502-0.046-0.708-0.114v-11.909c0.16-0.068,0.435-0.091,0.594-0.091
		c0.229,0,0.503,0.022,0.64,0.091l0.114,1.188h0.023c1.257-1.028,2.697-1.417,3.863-1.417c1.166,0,2.377,0.389,3.04,1.188
		c0.731,0.869,0.869,2.126,0.869,3.36V222.438z"/>
	<path fill="#333333" d="M60.8,222.301c-0.594,0.206-1.485,0.343-2.148,0.343c-2.263,0-3.337-1.074-3.337-3.611v-7.36h-2.057
		c-0.045-0.114-0.068-0.389-0.068-0.525c0-0.114,0.023-0.389,0.068-0.503l2.057-0.138v-3.108c0.183-0.068,0.48-0.114,0.731-0.114
		s0.572,0.046,0.754,0.114v3.108h3.36c0.045,0.114,0.091,0.457,0.091,0.571c0,0.16-0.046,0.435-0.091,0.595H56.8v7.223
		c0,1.807,0.526,2.561,1.943,2.561c0.777,0,1.532-0.114,2.057-0.274c0.046,0.114,0.092,0.389,0.092,0.549
		C60.892,221.935,60.869,222.095,60.8,222.301z"/>
	<path fill="#333333" d="M69.3,208.175c-0.525,0-0.96-0.457-0.96-1.006s0.435-0.982,0.96-0.982c0.526,0,0.983,0.434,0.983,0.982
		S69.826,208.175,69.3,208.175z M70.054,222.415c-0.206,0.068-0.503,0.114-0.754,0.114c-0.251,0-0.525-0.046-0.731-0.114v-11.909
		c0.183-0.045,0.48-0.114,0.709-0.114c0.251,0,0.594,0.046,0.777,0.114V222.415z"/>
	<path fill="#333333" d="M82.602,222.438c-0.183,0.046-0.457,0.092-0.731,0.092c-0.229,0-0.525-0.046-0.754-0.114v-7.246
		c0-1.097-0.137-1.942-0.457-2.537c-0.389-0.731-1.12-1.097-2.309-1.097c-1.143,0-2.514,0.64-3.406,1.325v9.555
		c-0.251,0.068-0.503,0.114-0.777,0.114c-0.229,0-0.502-0.046-0.708-0.114v-11.909c0.16-0.068,0.435-0.091,0.594-0.091
		c0.229,0,0.503,0.022,0.64,0.091l0.114,1.188h0.023c1.257-1.028,2.697-1.417,3.863-1.417c1.166,0,2.377,0.389,3.04,1.188
		c0.731,0.869,0.869,2.126,0.869,3.36V222.438z"/>
	<path fill="#333333" d="M93.366,211.946c-0.731-0.297-1.691-0.48-2.537-0.48c-2.972,0-4.069,2.309-4.069,5.098
		c0,2.743,1.051,4.869,4.046,4.869c0.8,0,1.76-0.138,2.468-0.344c0.046,0.138,0.092,0.298,0.092,0.48c0,0.274-0.046,0.48-0.114,0.64
		c-0.663,0.274-1.737,0.435-2.583,0.435c-3.726,0-5.463-2.445-5.463-6.034c0-3.726,1.897-6.332,5.531-6.332
		c0.869,0,1.897,0.206,2.606,0.526c0.068,0.183,0.091,0.365,0.091,0.571C93.435,211.604,93.412,211.786,93.366,211.946z"/>
	<path fill="#333333" d="M100.29,222.644c-2.994,0-4.914-2.057-4.914-6.172c0-4.114,1.943-6.194,4.937-6.194
		c2.995,0,4.892,2.034,4.892,6.149C105.205,220.541,103.285,222.644,100.29,222.644z M100.313,211.397
		c-2.194,0-3.383,1.691-3.383,5.052s1.166,5.074,3.36,5.074s3.36-1.714,3.36-5.074S102.507,211.397,100.313,211.397z"/>
	<path fill="#333333" d="M124.403,222.438c-0.229,0.046-0.458,0.092-0.686,0.092c-0.274,0-0.526-0.068-0.8-0.114v-7.223
		c0-2.515-0.64-3.657-2.766-3.657c-1.097,0-2.56,0.571-3.474,1.234c0.183,0.64,0.229,1.349,0.229,2.057v7.589
		c-0.229,0.068-0.457,0.114-0.686,0.114c-0.297,0-0.572-0.046-0.8-0.114v-7.223c0-2.515-0.571-3.657-2.697-3.657
		c-1.143,0-2.491,0.64-3.383,1.325v9.555c-0.251,0.068-0.548,0.114-0.823,0.114c-0.229,0-0.48-0.046-0.663-0.114v-11.909
		c0.114-0.045,0.366-0.091,0.617-0.091c0.206,0,0.457,0.046,0.617,0.091l0.114,1.188h0.023c1.257-1.028,2.697-1.417,3.863-1.417
		c1.166,0,2.286,0.389,2.949,1.188c0.091,0.092,0.16,0.206,0.229,0.32c1.211-0.982,2.766-1.509,4.251-1.509
		c1.166,0,2.354,0.389,3.018,1.188c0.731,0.869,0.869,2.126,0.869,3.36V222.438z"/>
	<path fill="#333333" d="M136.171,216.86h-7.657c0.092,2.629,1.326,4.617,4.183,4.617c1.029,0,1.989-0.137,2.834-0.343
		c0.045,0.114,0.091,0.343,0.091,0.48c0,0.229-0.046,0.435-0.114,0.594c-0.892,0.274-2.012,0.435-2.949,0.435
		c-1.806,0-3.177-0.571-4.023-1.485c-1.006-1.098-1.531-2.743-1.531-4.641c0-3.314,1.668-6.24,5.006-6.24
		c2.994,0,4.183,2.469,4.183,5.486C136.194,216.106,136.194,216.518,136.171,216.86z M134.708,215.764
		c0-2.104-0.229-4.366-2.766-4.366c-2.217,0-3.292,2.034-3.429,4.366H134.708z"/>
</g>
<g>
	<path fill="#333333" d="M18.178,232.546c-0.343-0.092-0.96-0.183-1.44-0.183c-0.869,0-1.509,0.229-1.943,0.708
		c-0.663,0.709-0.777,1.669-0.777,2.88v0.389h3.223c0.045,0.114,0.091,0.389,0.091,0.549c0,0.183-0.046,0.457-0.091,0.617h-3.223
		v10.743c-0.206,0.068-0.434,0.114-0.731,0.114s-0.548-0.046-0.754-0.114v-10.743h-2.057c-0.045-0.114-0.068-0.411-0.068-0.549
		c0-0.114,0.023-0.365,0.068-0.479l2.057-0.138v-0.389c0-1.622,0.274-2.742,1.211-3.68c0.663-0.663,1.646-0.982,2.766-0.982
		c0.594,0,1.257,0.137,1.668,0.297c0.046,0.114,0.068,0.274,0.068,0.435C18.247,232.157,18.224,232.432,18.178,232.546z"/>
	<path fill="#333333" d="M23.32,248.478c-2.994,0-4.914-2.057-4.914-6.172c0-4.114,1.943-6.194,4.937-6.194
		c2.995,0,4.892,2.034,4.892,6.149C28.234,246.375,26.314,248.478,23.32,248.478z M23.343,237.231c-2.194,0-3.383,1.691-3.383,5.052
		s1.166,5.074,3.36,5.074s3.36-1.714,3.36-5.074S25.537,237.231,23.343,237.231z"/>
	<path fill="#333333" d="M36.209,237.438c-1.326,0.183-2.766,0.663-3.84,1.485v9.326c-0.229,0.068-0.503,0.114-0.754,0.114
		s-0.503-0.046-0.731-0.114V236.34c0.137-0.045,0.343-0.091,0.572-0.091c0.183,0,0.434,0.046,0.617,0.091l0.114,1.463h0.022
		c0.983-0.846,2.697-1.554,4-1.691c0.045,0.138,0.091,0.389,0.091,0.595C36.301,236.935,36.255,237.231,36.209,237.438z"/>
	<path fill="#333333" d="M53.122,248.271c-0.183,0.046-0.457,0.092-0.731,0.092c-0.229,0-0.525-0.046-0.754-0.114v-7.246
		c0-1.097-0.137-1.942-0.457-2.537c-0.389-0.731-1.12-1.097-2.309-1.097c-1.143,0-2.514,0.64-3.406,1.325v9.555
		c-0.251,0.068-0.503,0.114-0.777,0.114c-0.229,0-0.502-0.046-0.708-0.114V236.34c0.16-0.068,0.435-0.091,0.594-0.091
		c0.229,0,0.503,0.022,0.64,0.091l0.114,1.188h0.023c1.257-1.028,2.697-1.417,3.863-1.417c1.166,0,2.377,0.389,3.04,1.188
		c0.731,0.869,0.869,2.126,0.869,3.36V248.271z"/>
	<path fill="#333333" d="M65.165,243.724c0,3.474-1.44,4.754-4.457,4.754c-3.086,0-4.389-1.28-4.389-4.64v-7.498
		c0.206-0.068,0.48-0.114,0.731-0.114c0.32,0,0.571,0.069,0.754,0.114v7.314c0,2.218,0.343,3.681,2.926,3.681
		c2.423,0,2.948-1.417,2.948-3.726v-7.27c0.183-0.068,0.503-0.114,0.754-0.114s0.526,0.046,0.731,0.114V243.724z"/>
	<path fill="#333333" d="M74.763,248.135c-0.594,0.206-1.486,0.343-2.148,0.343c-2.263,0-3.337-1.074-3.337-3.611v-7.36H67.22
		c-0.045-0.114-0.068-0.389-0.068-0.525c0-0.114,0.023-0.389,0.068-0.503l2.057-0.138v-3.108c0.183-0.068,0.48-0.114,0.731-0.114
		s0.572,0.046,0.754,0.114v3.108h3.36c0.045,0.114,0.091,0.457,0.091,0.571c0,0.16-0.046,0.435-0.091,0.595h-3.36v7.223
		c0,1.807,0.526,2.561,1.943,2.561c0.777,0,1.532-0.114,2.057-0.274c0.046,0.114,0.092,0.389,0.092,0.549
		C74.855,247.769,74.832,247.929,74.763,248.135z"/>
	<path fill="#333333" d="M82.511,237.438c-1.326,0.183-2.766,0.663-3.84,1.485v9.326c-0.229,0.068-0.503,0.114-0.754,0.114
		s-0.503-0.046-0.731-0.114V236.34c0.137-0.045,0.343-0.091,0.572-0.091c0.183,0,0.434,0.046,0.617,0.091l0.115,1.463h0.022
		c0.983-0.846,2.697-1.554,4-1.691c0.045,0.138,0.091,0.389,0.091,0.595C82.602,236.935,82.556,237.231,82.511,237.438z"/>
	<path fill="#333333" d="M85.847,234.009c-0.526,0-0.96-0.457-0.96-1.006s0.435-0.982,0.96-0.982c0.525,0,0.982,0.434,0.982,0.982
		S86.372,234.009,85.847,234.009z M86.601,248.249c-0.206,0.068-0.503,0.114-0.754,0.114c-0.251,0-0.526-0.046-0.731-0.114V236.34
		c0.183-0.045,0.48-0.114,0.708-0.114c0.251,0,0.594,0.046,0.777,0.114V248.249z"/>
	<path fill="#333333" d="M96.337,248.135c-0.594,0.206-1.486,0.343-2.148,0.343c-2.263,0-3.337-1.074-3.337-3.611v-7.36h-2.057
		c-0.045-0.114-0.068-0.389-0.068-0.525c0-0.114,0.023-0.389,0.068-0.503l2.057-0.138v-3.108c0.183-0.068,0.48-0.114,0.731-0.114
		s0.572,0.046,0.754,0.114v3.108h3.36c0.045,0.114,0.091,0.457,0.091,0.571c0,0.16-0.046,0.435-0.091,0.595h-3.36v7.223
		c0,1.807,0.526,2.561,1.943,2.561c0.777,0,1.532-0.114,2.057-0.274c0.046,0.114,0.092,0.389,0.092,0.549
		C96.429,247.769,96.406,247.929,96.337,248.135z"/>
	<path fill="#333333" d="M99.581,234.009c-0.525,0-0.96-0.457-0.96-1.006s0.435-0.982,0.96-0.982c0.526,0,0.983,0.434,0.983,0.982
		S100.107,234.009,99.581,234.009z M100.335,248.249c-0.206,0.068-0.503,0.114-0.754,0.114c-0.251,0-0.525-0.046-0.731-0.114V236.34
		c0.183-0.045,0.48-0.114,0.709-0.114c0.251,0,0.594,0.046,0.777,0.114V248.249z"/>
	<path fill="#333333" d="M108.015,248.478c-2.994,0-4.914-2.057-4.914-6.172c0-4.114,1.943-6.194,4.937-6.194
		c2.995,0,4.892,2.034,4.892,6.149C112.93,246.375,111.01,248.478,108.015,248.478z M108.038,237.231
		c-2.194,0-3.383,1.691-3.383,5.052s1.166,5.074,3.36,5.074s3.36-1.714,3.36-5.074S110.232,237.231,108.038,237.231z"/>
	<path fill="#333333" d="M124.722,248.271c-0.183,0.046-0.457,0.092-0.731,0.092c-0.229,0-0.525-0.046-0.754-0.114v-7.246
		c0-1.097-0.137-1.942-0.457-2.537c-0.389-0.731-1.12-1.097-2.309-1.097c-1.143,0-2.514,0.64-3.406,1.325v9.555
		c-0.251,0.068-0.503,0.114-0.777,0.114c-0.229,0-0.502-0.046-0.708-0.114V236.34c0.16-0.068,0.435-0.091,0.594-0.091
		c0.229,0,0.503,0.022,0.64,0.091l0.114,1.188h0.023c1.257-1.028,2.697-1.417,3.863-1.417c1.166,0,2.377,0.389,3.04,1.188
		c0.731,0.869,0.869,2.126,0.869,3.36V248.271z"/>
</g>
<g>
	<path fill="#333333" d="M16.761,263.264c-1.326,0.183-2.766,0.663-3.84,1.485v9.326c-0.229,0.068-0.503,0.114-0.754,0.114
		s-0.503-0.046-0.731-0.114v-11.909c0.137-0.045,0.343-0.091,0.572-0.091c0.183,0,0.434,0.046,0.617,0.091l0.114,1.463h0.022
		c0.983-0.846,2.697-1.554,4-1.691c0.045,0.138,0.091,0.389,0.091,0.595C16.853,262.761,16.807,263.058,16.761,263.264z"/>
	<path fill="#333333" d="M27.206,268.521h-7.658c0.092,2.629,1.326,4.617,4.183,4.617c1.029,0,1.989-0.137,2.834-0.343
		c0.045,0.114,0.091,0.343,0.091,0.48c0,0.229-0.046,0.435-0.114,0.594c-0.892,0.274-2.012,0.435-2.949,0.435
		c-1.806,0-3.177-0.571-4.023-1.485c-1.006-1.098-1.531-2.743-1.531-4.641c0-3.314,1.668-6.24,5.006-6.24
		c2.994,0,4.183,2.469,4.183,5.486C27.229,267.767,27.229,268.178,27.206,268.521z M25.743,267.424c0-2.104-0.229-4.366-2.766-4.366
		c-2.217,0-3.292,2.034-3.429,4.366H25.743z"/>
	<path fill="#333333" d="M32.575,274.304c-1.143,0-2.331-0.206-3.154-0.525c-0.068-0.16-0.114-0.435-0.114-0.641
		c0-0.137,0.046-0.479,0.092-0.617c0.846,0.343,2.057,0.617,3.062,0.617c1.737,0,2.812-0.731,2.812-2.171
		c0-1.303-0.663-1.761-2.468-2.423c-2.515-0.915-3.337-1.966-3.337-3.521c0-2.103,1.737-3.086,3.977-3.086
		c0.754,0,1.737,0.138,2.309,0.32c0.069,0.206,0.092,0.411,0.092,0.549c0,0.183-0.046,0.503-0.092,0.663
		c-0.754-0.229-1.554-0.366-2.331-0.366c-1.623,0-2.606,0.617-2.606,1.874c0,1.098,0.617,1.623,2.491,2.332
		c1.714,0.64,3.292,1.279,3.292,3.589C36.599,273.229,34.838,274.304,32.575,274.304z"/>
	<path fill="#333333" d="M47.729,268.521h-7.658c0.092,2.629,1.326,4.617,4.183,4.617c1.029,0,1.989-0.137,2.834-0.343
		c0.045,0.114,0.091,0.343,0.091,0.48c0,0.229-0.046,0.435-0.114,0.594c-0.892,0.274-2.012,0.435-2.949,0.435
		c-1.806,0-3.177-0.571-4.023-1.485c-1.006-1.098-1.531-2.743-1.531-4.641c0-3.314,1.668-6.24,5.006-6.24
		c2.994,0,4.183,2.469,4.183,5.486C47.751,267.767,47.751,268.178,47.729,268.521z M46.266,267.424c0-2.104-0.229-4.366-2.766-4.366
		c-2.217,0-3.292,2.034-3.429,4.366H46.266z"/>
	<path fill="#333333" d="M58.606,271.149c0,0.823,0,1.852,0.046,2.926c-0.16,0.068-0.411,0.114-0.617,0.114
		c-0.183,0-0.434-0.046-0.617-0.114c-0.068-0.365-0.114-0.846-0.137-1.28h-0.022c-0.777,0.96-2.149,1.509-3.498,1.509
		c-2.125,0-3.909-1.188-3.909-3.635c0-1.394,0.572-2.423,1.463-3.062c1.006-0.709,2.332-0.938,3.749-0.938
		c0.8,0,1.463,0.046,2.057,0.138v-0.663c0-2.286-0.938-3.04-2.857-3.04c-1.074,0-2.4,0.229-3.223,0.435
		c-0.046-0.114-0.092-0.366-0.092-0.595c0-0.16,0.046-0.389,0.114-0.525c0.983-0.297,2.286-0.48,3.383-0.48
		c2.72,0,4.16,1.234,4.16,4.023V271.149z M57.121,267.927c-0.663-0.092-1.349-0.138-1.943-0.138c-1.12,0-2.126,0.206-2.812,0.731
		c-0.617,0.457-0.96,1.188-0.96,2.126c0,1.669,1.074,2.469,2.56,2.469c1.234,0,2.537-0.595,3.154-1.531V267.927z"/>
	<path fill="#333333" d="M67.313,263.264c-1.326,0.183-2.766,0.663-3.84,1.485v9.326c-0.229,0.068-0.503,0.114-0.754,0.114
		s-0.503-0.046-0.731-0.114v-11.909c0.137-0.045,0.343-0.091,0.572-0.091c0.183,0,0.434,0.046,0.617,0.091l0.115,1.463h0.022
		c0.983-0.846,2.697-1.554,4-1.691c0.045,0.138,0.091,0.389,0.091,0.595C67.405,262.761,67.359,263.058,67.313,263.264z"/>
	<path fill="#333333" d="M76.752,263.606c-0.731-0.297-1.691-0.48-2.537-0.48c-2.972,0-4.069,2.309-4.069,5.098
		c0,2.743,1.051,4.869,4.046,4.869c0.8,0,1.76-0.138,2.469-0.344c0.045,0.138,0.091,0.298,0.091,0.48c0,0.274-0.046,0.48-0.114,0.64
		c-0.663,0.274-1.737,0.435-2.583,0.435c-3.726,0-5.463-2.445-5.463-6.034c0-3.726,1.897-6.332,5.531-6.332
		c0.869,0,1.897,0.206,2.606,0.526c0.068,0.183,0.091,0.365,0.091,0.571C76.821,263.264,76.798,263.446,76.752,263.606z"/>
	<path fill="#333333" d="M88.545,274.075c-0.206,0.068-0.457,0.114-0.686,0.114c-0.274,0-0.571-0.046-0.8-0.114v-7.223
		c0-2.515-0.64-3.657-2.766-3.657c-1.143,0-2.514,0.64-3.406,1.325v9.555c-0.251,0.068-0.526,0.114-0.777,0.114
		c-0.229,0-0.502-0.046-0.708-0.114v-16.687c0.206-0.068,0.526-0.114,0.731-0.114c0.206,0,0.549,0.046,0.754,0.114v5.875
		c1.211-0.938,2.651-1.326,3.771-1.326c1.166,0,2.354,0.389,3.017,1.188c0.731,0.869,0.869,2.126,0.869,3.36V274.075z"/>
</g>
<g>
	<path fill="#59A6AE" d="M52.397,164.87H10.225c-0.484-1.064-0.967-3.579-0.967-5.417c0-1.354,0.193-3.288,0.387-4.643
		c5.513-2.031,7.642-5.417,7.642-11.8v-7.448h-7.158c-0.291-1.741-0.581-4.159-0.581-5.417c0-1.741,0.193-3.772,0.581-5.417h7.158
		v-4.933c0-13.058,7.641-21.279,21.667-21.279c5.126,0,10.543,1.064,13.638,2.321c0.29,0.967,0.483,3.385,0.483,4.449
		c0,1.741-0.29,4.45-0.677,6.384c-2.999-1.161-7.835-2.031-11.897-2.031c-6.674,0-9.382,3.289-9.382,10.253v4.836h14.315
		c0.387,1.645,0.58,3.676,0.58,5.417c0,1.258-0.193,3.772-0.58,5.417H31.117v6.964c0,4.546-1.645,8.512-5.9,11.317v0.097H52.3
		c0.387,1.354,0.581,3.869,0.581,5.609C52.88,161.098,52.687,163.322,52.397,164.87z"/>
	<path fill="#59A6AE" d="M77.252,165.837c-5.223,0-12.961-1.063-18.281-2.901c-0.193-0.677-0.483-2.418-0.483-4.353
		c0-2.128,0.29-4.353,0.871-6.19c4.449,1.354,11.317,2.225,16.733,2.225c6.867,0,11.317-3.676,11.317-10.253
		c0-2.805-0.774-5.32-2.418-6.964c-2.128-2.128-5.707-2.999-10.93-2.999H61.39V99.484h36.562c0.29,1.547,0.484,3.965,0.484,5.707
		c0,1.838-0.291,5.03-0.484,6.19H73.771v11.994h4.256c7.544,0,13.542,1.354,17.797,5.03c3.772,3.289,5.9,8.318,5.9,15.282
		C101.724,158.486,90.407,165.837,77.252,165.837z"/>
	<path fill="#59A6AE" d="M129.191,165.837c-15.476,0-23.021-11.413-23.021-33.66c0-22.44,7.835-33.66,23.311-33.66
		c15.379,0,22.924,11.22,22.924,33.66C152.405,154.424,144.57,165.837,129.191,165.837z M129.288,109.833
		c-6.19,0-8.899,5.707-8.899,22.343c0,16.347,2.708,22.344,8.899,22.344s8.898-5.997,8.898-22.344
		C138.186,115.54,135.478,109.833,129.288,109.833z"/>
	<path fill="#59A6AE" d="M235.586,164.87c-1.548,0.387-4.837,0.483-6.385,0.483c-1.644,0-5.416-0.193-6.964-0.483v-30.372
		c0-3.676-0.097-6.384-1.451-8.028c-1.257-1.548-3.191-2.128-5.609-2.128c-3.289,0-7.932,1.451-10.931,3.289
		c0.097,1.645,0.193,3.289,0.193,5.223v32.016c-1.547,0.387-4.836,0.483-6.384,0.483c-1.644,0-5.416-0.193-6.964-0.483v-30.372
		c0-3.676-0.097-6.384-1.451-8.028c-1.257-1.548-3.191-2.128-5.609-2.128c-3.386,0-7.738,1.354-10.737,3.192v37.336
		c-2.225,0.387-5.319,0.483-7.061,0.483c-1.548,0-4.353-0.097-6.287-0.483v-50.394c1.258-0.29,4.353-0.483,5.804-0.483
		c1.354,0,4.159,0.193,5.609,0.483l0.581,4.546c4.256-3.192,10.35-5.514,15.766-5.514c5.61,0,10.543,1.935,14.315,6.094
		c5.224-3.579,11.511-6.094,17.895-6.094c4.739,0,9.576,1.935,11.994,4.836c2.998,3.579,3.676,8.222,3.676,15.283V164.87z"/>
</g>
<g>
	<path fill="#333333" d="M17.035,28.437c-3.84,0-5.852-2.88-5.852-7.955c0-5.074,2.012-7.954,5.852-7.954
		c3.84,0,5.852,2.88,5.852,7.954C22.887,25.557,20.875,28.437,17.035,28.437z M17.035,13.693c-2.766,0-4.206,2.217-4.206,6.789
		c0,4.572,1.44,6.789,4.206,6.789c2.766,0,4.206-2.217,4.206-6.789C21.241,15.911,19.801,13.693,17.035,13.693z"/>
	<path fill="#333333" d="M34.519,23.682c0,3.475-1.44,4.754-4.457,4.754c-3.086,0-4.389-1.28-4.389-4.64v-7.497
		c0.206-0.069,0.48-0.114,0.731-0.114c0.32,0,0.571,0.068,0.754,0.114v7.314c0,2.217,0.343,3.68,2.926,3.68
		c2.423,0,2.948-1.417,2.948-3.726v-7.269c0.183-0.069,0.503-0.114,0.754-0.114s0.526,0.045,0.731,0.114V23.682z"/>
	<path fill="#333333" d="M42.883,17.396c-1.326,0.183-2.766,0.663-3.84,1.485v9.326c-0.229,0.068-0.503,0.114-0.754,0.114
		s-0.503-0.046-0.731-0.114V16.299c0.137-0.046,0.343-0.092,0.572-0.092c0.183,0,0.434,0.046,0.617,0.092l0.115,1.463h0.022
		c0.983-0.846,2.697-1.555,4-1.691c0.045,0.137,0.091,0.388,0.091,0.594C42.974,16.894,42.928,17.19,42.883,17.396z"/>
	<path fill="#333333" d="M61.92,28.208c-0.114,0.046-0.411,0.091-0.617,0.091c-0.16,0-0.388-0.045-0.571-0.091L52,15.248v12.96
		c-0.16,0.068-0.458,0.114-0.709,0.114c-0.229,0-0.502-0.046-0.686-0.114V12.756c0.183-0.069,0.48-0.114,0.686-0.114
		c0.251,0,0.48,0.045,0.64,0.114l8.595,12.731V12.756c0.229-0.069,0.48-0.114,0.708-0.114c0.206,0,0.48,0.045,0.686,0.114V28.208z"
		/>
	<path fill="#333333" d="M74.192,23.682c0,3.475-1.44,4.754-4.457,4.754c-3.086,0-4.389-1.28-4.389-4.64v-7.497
		c0.206-0.069,0.48-0.114,0.731-0.114c0.32,0,0.571,0.068,0.754,0.114v7.314c0,2.217,0.343,3.68,2.926,3.68
		c2.423,0,2.948-1.417,2.948-3.726v-7.269c0.183-0.069,0.503-0.114,0.754-0.114s0.526,0.045,0.731,0.114V23.682z"/>
	<path fill="#333333" d="M83.562,28.094c-0.594,0.206-1.486,0.343-2.148,0.343c-2.263,0-3.337-1.074-3.337-3.611v-7.36h-2.057
		c-0.045-0.114-0.068-0.389-0.068-0.526c0-0.114,0.023-0.388,0.068-0.502l2.057-0.137V13.19c0.183-0.068,0.48-0.114,0.731-0.114
		s0.572,0.046,0.754,0.114v3.109h3.36c0.045,0.114,0.091,0.457,0.091,0.571c0,0.16-0.046,0.434-0.091,0.594h-3.36v7.223
		c0,1.806,0.526,2.56,1.943,2.56c0.777,0,1.532-0.114,2.057-0.274c0.046,0.114,0.092,0.389,0.092,0.549
		C83.654,27.728,83.631,27.888,83.562,28.094z"/>
	<path fill="#333333" d="M91.104,17.396c-1.326,0.183-2.766,0.663-3.84,1.485v9.326c-0.229,0.068-0.503,0.114-0.754,0.114
		s-0.503-0.046-0.731-0.114V16.299c0.137-0.046,0.343-0.092,0.572-0.092c0.183,0,0.434,0.046,0.617,0.092l0.114,1.463h0.022
		c0.983-0.846,2.697-1.555,4-1.691c0.045,0.137,0.091,0.388,0.091,0.594C91.195,16.894,91.149,17.19,91.104,17.396z"/>
	<path fill="#333333" d="M94.234,13.968c-0.526,0-0.96-0.457-0.96-1.006c0-0.548,0.435-0.983,0.96-0.983
		c0.525,0,0.982,0.435,0.982,0.983C95.217,13.511,94.76,13.968,94.234,13.968z M94.988,28.208c-0.206,0.068-0.503,0.114-0.754,0.114
		c-0.251,0-0.526-0.046-0.731-0.114V16.299c0.183-0.046,0.48-0.114,0.708-0.114c0.251,0,0.594,0.045,0.777,0.114V28.208z"/>
	<path fill="#333333" d="M104.519,28.094c-0.594,0.206-1.486,0.343-2.148,0.343c-2.263,0-3.337-1.074-3.337-3.611v-7.36h-2.057
		c-0.045-0.114-0.068-0.389-0.068-0.526c0-0.114,0.023-0.388,0.068-0.502l2.057-0.137V13.19c0.183-0.068,0.48-0.114,0.731-0.114
		s0.572,0.046,0.754,0.114v3.109h3.36c0.045,0.114,0.091,0.457,0.091,0.571c0,0.16-0.046,0.434-0.091,0.594h-3.36v7.223
		c0,1.806,0.526,2.56,1.943,2.56c0.777,0,1.532-0.114,2.057-0.274c0.046,0.114,0.092,0.389,0.092,0.549
		C104.611,27.728,104.588,27.888,104.519,28.094z"/>
	<path fill="#333333" d="M107.558,13.968c-0.525,0-0.96-0.457-0.96-1.006c0-0.548,0.435-0.983,0.96-0.983
		c0.526,0,0.983,0.435,0.983,0.983C108.541,13.511,108.083,13.968,107.558,13.968z M108.312,28.208
		c-0.206,0.068-0.503,0.114-0.754,0.114c-0.251,0-0.525-0.046-0.731-0.114V16.299c0.183-0.046,0.48-0.114,0.709-0.114
		c0.251,0,0.594,0.045,0.777,0.114V28.208z"/>
	<path fill="#333333" d="M115.763,28.437c-2.994,0-4.914-2.057-4.914-6.171c0-4.115,1.943-6.194,4.937-6.194
		c2.995,0,4.892,2.034,4.892,6.148S118.757,28.437,115.763,28.437z M115.786,17.19c-2.194,0-3.383,1.691-3.383,5.052
		c0,3.36,1.166,5.074,3.36,5.074s3.36-1.714,3.36-5.074C119.123,18.882,117.98,17.19,115.786,17.19z"/>
	<path fill="#333333" d="M132.264,28.231c-0.183,0.045-0.457,0.091-0.731,0.091c-0.229,0-0.525-0.046-0.754-0.114v-7.246
		c0-1.097-0.137-1.943-0.457-2.537c-0.389-0.731-1.12-1.097-2.309-1.097c-1.143,0-2.514,0.64-3.406,1.326v9.555
		c-0.251,0.068-0.503,0.114-0.777,0.114c-0.229,0-0.502-0.046-0.708-0.114V16.299c0.16-0.069,0.435-0.092,0.594-0.092
		c0.229,0,0.503,0.023,0.64,0.092l0.114,1.188h0.023c1.257-1.029,2.697-1.417,3.863-1.417c1.166,0,2.377,0.388,3.04,1.188
		c0.731,0.869,0.869,2.125,0.869,3.36V28.231z"/>
	<path fill="#333333" d="M142.318,28.208c-0.183,0.068-0.526,0.114-0.777,0.114s-0.594-0.046-0.777-0.114V12.756
		c0.183-0.069,0.525-0.114,0.777-0.114s0.594,0.045,0.777,0.114V28.208z"/>
	<path fill="#333333" d="M155.003,28.231c-0.184,0.045-0.458,0.091-0.731,0.091c-0.229,0-0.526-0.046-0.755-0.114v-7.246
		c0-1.097-0.137-1.943-0.457-2.537c-0.389-0.731-1.12-1.097-2.309-1.097c-1.143,0-2.514,0.64-3.406,1.326v9.555
		c-0.251,0.068-0.503,0.114-0.777,0.114c-0.229,0-0.502-0.046-0.708-0.114V16.299c0.16-0.069,0.435-0.092,0.594-0.092
		c0.229,0,0.503,0.023,0.64,0.092l0.114,1.188h0.023c1.257-1.029,2.697-1.417,3.863-1.417c1.166,0,2.377,0.388,3.04,1.188
		c0.731,0.869,0.869,2.125,0.869,3.36V28.231z"/>
	<path fill="#333333" d="M167.184,28.231c-0.183,0.045-0.457,0.091-0.731,0.091c-0.229,0-0.525-0.046-0.754-0.114v-7.246
		c0-1.097-0.138-1.943-0.457-2.537c-0.389-0.731-1.12-1.097-2.309-1.097c-1.144,0-2.515,0.64-3.406,1.326v9.555
		c-0.251,0.068-0.503,0.114-0.777,0.114c-0.229,0-0.503-0.046-0.708-0.114V16.299c0.159-0.069,0.434-0.092,0.594-0.092
		c0.229,0,0.503,0.023,0.641,0.092l0.114,1.188h0.022c1.257-1.029,2.697-1.417,3.863-1.417c1.165,0,2.377,0.388,3.04,1.188
		c0.731,0.869,0.868,2.125,0.868,3.36V28.231z"/>
	<path fill="#333333" d="M174.473,28.437c-2.994,0-4.914-2.057-4.914-6.171c0-4.115,1.942-6.194,4.938-6.194
		c2.994,0,4.892,2.034,4.892,6.148S177.467,28.437,174.473,28.437z M174.496,17.19c-2.194,0-3.384,1.691-3.384,5.052
		c0,3.36,1.166,5.074,3.36,5.074s3.36-1.714,3.36-5.074C177.833,18.882,176.69,17.19,174.496,17.19z"/>
	<path fill="#333333" d="M189.785,19.202l-3.589,9.006c-0.205,0.068-0.434,0.114-0.617,0.114c-0.251,0-0.457-0.046-0.64-0.114
		l-3.703-9.006c-0.411-1.029-0.594-2.057-0.594-2.903c0.183-0.046,0.502-0.114,0.708-0.114c0.274,0,0.549,0.045,0.777,0.114
		c0.022,0.777,0.114,1.668,0.457,2.491l2.972,7.543h0.046l2.88-7.543c0.32-0.8,0.479-1.691,0.479-2.491
		c0.16-0.069,0.503-0.114,0.801-0.114c0.159,0,0.457,0.022,0.662,0.091C190.402,17.099,190.242,18.082,189.785,19.202z"/>
	<path fill="#333333" d="M200.39,25.282c0,0.823,0,1.852,0.046,2.926c-0.16,0.068-0.411,0.114-0.617,0.114
		c-0.183,0-0.435-0.046-0.617-0.114c-0.068-0.366-0.114-0.846-0.137-1.28h-0.023c-0.777,0.96-2.148,1.509-3.497,1.509
		c-2.126,0-3.908-1.188-3.908-3.634c0-1.395,0.571-2.423,1.463-3.063c1.006-0.708,2.331-0.937,3.748-0.937
		c0.8,0,1.463,0.045,2.058,0.137v-0.663c0-2.286-0.938-3.04-2.857-3.04c-1.074,0-2.4,0.229-3.223,0.434
		c-0.046-0.114-0.092-0.366-0.092-0.594c0-0.16,0.046-0.389,0.114-0.525c0.983-0.297,2.286-0.48,3.383-0.48
		c2.721,0,4.16,1.234,4.16,4.023V25.282z M198.904,22.059c-0.663-0.091-1.349-0.137-1.943-0.137c-1.12,0-2.125,0.206-2.812,0.731
		c-0.617,0.457-0.96,1.188-0.96,2.125c0,1.668,1.074,2.469,2.561,2.469c1.234,0,2.537-0.594,3.154-1.532V22.059z"/>
	<path fill="#333333" d="M209.873,28.094c-0.594,0.206-1.485,0.343-2.148,0.343c-2.263,0-3.337-1.074-3.337-3.611v-7.36h-2.058
		c-0.046-0.114-0.068-0.389-0.068-0.526c0-0.114,0.022-0.388,0.068-0.502l2.058-0.137V13.19c0.183-0.068,0.479-0.114,0.731-0.114
		c0.251,0,0.571,0.046,0.754,0.114v3.109h3.36c0.046,0.114,0.091,0.457,0.091,0.571c0,0.16-0.045,0.434-0.091,0.594h-3.36v7.223
		c0,1.806,0.525,2.56,1.943,2.56c0.776,0,1.531-0.114,2.057-0.274c0.046,0.114,0.092,0.389,0.092,0.549
		C209.965,27.728,209.941,27.888,209.873,28.094z"/>
	<path fill="#333333" d="M212.911,13.968c-0.525,0-0.96-0.457-0.96-1.006c0-0.548,0.435-0.983,0.96-0.983
		c0.526,0,0.983,0.435,0.983,0.983C213.895,13.511,213.438,13.968,212.911,13.968z M213.666,28.208
		c-0.206,0.068-0.503,0.114-0.755,0.114c-0.251,0-0.525-0.046-0.731-0.114V16.299c0.184-0.046,0.48-0.114,0.709-0.114
		c0.251,0,0.594,0.045,0.777,0.114V28.208z"/>
	<path fill="#333333" d="M221.116,28.437c-2.994,0-4.914-2.057-4.914-6.171c0-4.115,1.942-6.194,4.938-6.194
		c2.994,0,4.892,2.034,4.892,6.148S224.11,28.437,221.116,28.437z M221.14,17.19c-2.194,0-3.384,1.691-3.384,5.052
		c0,3.36,1.166,5.074,3.36,5.074s3.36-1.714,3.36-5.074C224.477,18.882,223.334,17.19,221.14,17.19z"/>
	<path fill="#333333" d="M237.618,28.231c-0.183,0.045-0.457,0.091-0.731,0.091c-0.229,0-0.525-0.046-0.754-0.114v-7.246
		c0-1.097-0.138-1.943-0.457-2.537c-0.389-0.731-1.12-1.097-2.309-1.097c-1.144,0-2.515,0.64-3.406,1.326v9.555
		c-0.251,0.068-0.503,0.114-0.777,0.114c-0.229,0-0.503-0.046-0.708-0.114V16.299c0.159-0.069,0.434-0.092,0.594-0.092
		c0.229,0,0.503,0.023,0.641,0.092l0.114,1.188h0.022c1.257-1.029,2.697-1.417,3.863-1.417c1.165,0,2.377,0.388,3.04,1.188
		c0.731,0.869,0.868,2.125,0.868,3.36V28.231z"/>
</g>
<g>
	<path fill="#333333" d="M21.31,40.053c-0.869-0.229-2.125-0.435-3.154-0.435c-3.771,0-5.326,2.995-5.326,6.766
		c0,3.726,1.486,6.628,5.188,6.628c1.211,0,2.446-0.183,3.269-0.457c0.046,0.137,0.069,0.366,0.069,0.549
		c0,0.229-0.023,0.525-0.069,0.663c-0.823,0.274-1.988,0.503-3.314,0.503c-4.16,0-6.789-2.514-6.789-7.863
		c0-4.823,2.537-8.046,6.812-8.046c1.234,0,2.538,0.229,3.292,0.525c0.069,0.183,0.092,0.412,0.092,0.617
		C21.378,39.642,21.355,39.893,21.31,40.053z"/>
	<path fill="#333333" d="M32.37,48.488h-7.657c0.092,2.628,1.326,4.617,4.183,4.617c1.029,0,1.989-0.137,2.834-0.343
		c0.045,0.115,0.091,0.343,0.091,0.48c0,0.229-0.046,0.434-0.114,0.594c-0.892,0.274-2.012,0.434-2.949,0.434
		c-1.806,0-3.177-0.571-4.023-1.486c-1.006-1.097-1.531-2.743-1.531-4.64c0-3.314,1.668-6.24,5.006-6.24
		c2.994,0,4.183,2.468,4.183,5.486C32.393,47.733,32.393,48.145,32.37,48.488z M30.907,47.391c0-2.103-0.229-4.366-2.766-4.366
		c-2.217,0-3.292,2.035-3.429,4.366H30.907z"/>
	<path fill="#333333" d="M44.026,54.065c-0.183,0.045-0.457,0.091-0.731,0.091c-0.229,0-0.525-0.046-0.754-0.114v-7.246
		c0-1.097-0.137-1.943-0.457-2.537c-0.389-0.731-1.12-1.097-2.309-1.097c-1.143,0-2.514,0.64-3.406,1.326v9.555
		c-0.251,0.068-0.503,0.114-0.777,0.114c-0.229,0-0.502-0.046-0.708-0.114V42.133c0.16-0.069,0.435-0.092,0.594-0.092
		c0.229,0,0.503,0.023,0.64,0.092l0.114,1.188h0.023c1.257-1.029,2.697-1.417,3.863-1.417c1.166,0,2.377,0.388,3.04,1.188
		c0.731,0.869,0.869,2.125,0.869,3.36V54.065z"/>
	<path fill="#333333" d="M53.395,53.928c-0.594,0.206-1.486,0.343-2.148,0.343c-2.263,0-3.337-1.074-3.337-3.611v-7.36h-2.057
		c-0.045-0.114-0.068-0.389-0.068-0.526c0-0.114,0.023-0.388,0.068-0.502l2.057-0.137v-3.109c0.183-0.068,0.48-0.114,0.731-0.114
		s0.572,0.046,0.754,0.114v3.109h3.36c0.045,0.114,0.091,0.457,0.091,0.571c0,0.16-0.046,0.434-0.091,0.594h-3.36v7.223
		c0,1.806,0.526,2.56,1.943,2.56c0.777,0,1.532-0.114,2.057-0.274c0.046,0.114,0.092,0.389,0.092,0.549
		C53.487,53.562,53.464,53.722,53.395,53.928z"/>
	<path fill="#333333" d="M60.937,43.23c-1.326,0.183-2.766,0.663-3.84,1.485v9.326c-0.229,0.068-0.503,0.114-0.754,0.114
		s-0.503-0.046-0.731-0.114V42.133c0.137-0.046,0.343-0.092,0.572-0.092c0.183,0,0.434,0.046,0.617,0.092l0.114,1.463h0.022
		c0.983-0.846,2.697-1.555,4-1.691c0.045,0.137,0.091,0.388,0.091,0.594C61.028,42.728,60.982,43.024,60.937,43.23z"/>
	<path fill="#333333" d="M71.153,48.488h-7.658c0.092,2.628,1.326,4.617,4.183,4.617c1.029,0,1.989-0.137,2.834-0.343
		c0.045,0.115,0.091,0.343,0.091,0.48c0,0.229-0.046,0.434-0.114,0.594c-0.892,0.274-2.012,0.434-2.949,0.434
		c-1.806,0-3.177-0.571-4.023-1.486c-1.006-1.097-1.531-2.743-1.531-4.64c0-3.314,1.668-6.24,5.006-6.24
		c2.994,0,4.183,2.468,4.183,5.486C71.176,47.733,71.176,48.145,71.153,48.488z M69.69,47.391c0-2.103-0.229-4.366-2.766-4.366
		c-2.217,0-3.292,2.035-3.429,4.366H69.69z"/>
	<path fill="#333333" d="M85.436,38.339c-0.343-0.091-0.96-0.183-1.44-0.183c-0.869,0-1.509,0.229-1.943,0.708
		c-0.663,0.709-0.777,1.669-0.777,2.88v0.389h3.223c0.045,0.114,0.091,0.388,0.091,0.548c0,0.183-0.046,0.457-0.091,0.617h-3.223
		v10.743c-0.206,0.068-0.434,0.114-0.731,0.114s-0.548-0.046-0.754-0.114V43.299h-2.057c-0.045-0.114-0.068-0.411-0.068-0.548
		c0-0.114,0.023-0.366,0.068-0.48l2.057-0.137v-0.389c0-1.623,0.274-2.743,1.211-3.68c0.663-0.663,1.646-0.983,2.766-0.983
		c0.594,0,1.257,0.137,1.668,0.297c0.046,0.114,0.068,0.274,0.068,0.434C85.504,37.95,85.482,38.225,85.436,38.339z"/>
	<path fill="#333333" d="M90.372,54.271c-2.994,0-4.914-2.057-4.914-6.171c0-4.115,1.943-6.194,4.937-6.194
		c2.995,0,4.892,2.034,4.892,6.148S93.366,54.271,90.372,54.271z M90.395,43.024c-2.194,0-3.383,1.691-3.383,5.052
		c0,3.36,1.166,5.074,3.36,5.074s3.36-1.714,3.36-5.074C93.732,44.716,92.589,43.024,90.395,43.024z"/>
	<path fill="#333333" d="M103.056,43.23c-1.326,0.183-2.766,0.663-3.84,1.485v9.326c-0.229,0.068-0.503,0.114-0.754,0.114
		s-0.503-0.046-0.731-0.114V42.133c0.137-0.046,0.343-0.092,0.572-0.092c0.183,0,0.434,0.046,0.617,0.092l0.114,1.463h0.022
		c0.983-0.846,2.697-1.555,4-1.691c0.045,0.137,0.091,0.388,0.091,0.594C103.147,42.728,103.102,43.024,103.056,43.23z"/>
	<path fill="#333333" d="M118.848,39.779h-6.515v5.668h5.486c0.046,0.115,0.114,0.412,0.114,0.595c0,0.183-0.045,0.434-0.114,0.617
		h-5.486v7.383c-0.183,0.068-0.525,0.114-0.777,0.114s-0.594-0.046-0.777-0.114V38.59h8.069c0.068,0.16,0.114,0.411,0.114,0.594
		C118.962,39.39,118.917,39.642,118.848,39.779z"/>
	<path fill="#333333" d="M124.606,54.271c-2.994,0-4.914-2.057-4.914-6.171c0-4.115,1.943-6.194,4.937-6.194
		c2.995,0,4.892,2.034,4.892,6.148S127.601,54.271,124.606,54.271z M124.629,43.024c-2.194,0-3.383,1.691-3.383,5.052
		c0,3.36,1.166,5.074,3.36,5.074s3.36-1.714,3.36-5.074C127.966,44.716,126.823,43.024,124.629,43.024z"/>
	<path fill="#333333" d="M136.216,54.271c-2.994,0-4.914-2.057-4.914-6.171c0-4.115,1.943-6.194,4.937-6.194
		c2.995,0,4.892,2.034,4.892,6.148S139.21,54.271,136.216,54.271z M136.239,43.024c-2.194,0-3.383,1.691-3.383,5.052
		c0,3.36,1.166,5.074,3.36,5.074s3.36-1.714,3.36-5.074C139.576,44.716,138.433,43.024,136.239,43.024z"/>
	<path fill="#333333" d="M151.779,54.156c-0.205,0-0.457-0.068-0.594-0.114l-0.138-1.372h-0.022c-0.983,1.029-2.148,1.6-3.452,1.6
		c-3.154,0-4.663-2.628-4.663-5.829c0-3.177,1.349-6.537,4.983-6.537c1.143,0,2.194,0.388,3.04,0.983v-5.532
		c0.206-0.069,0.48-0.114,0.731-0.114c0.274,0,0.549,0.068,0.755,0.114v16.686C152.26,54.11,152.031,54.156,151.779,54.156z
		 M150.934,44.145c-0.823-0.686-1.875-1.028-2.949-1.028c-2.651,0-3.543,2.605-3.543,5.257c0,2.035,0.64,4.686,3.2,4.686
		c1.234,0,2.491-0.617,3.292-1.577V44.145z"/>
	<path fill="#333333" d="M168.691,51.116c0,0.823,0,1.852,0.046,2.926c-0.16,0.068-0.411,0.114-0.617,0.114
		c-0.183,0-0.435-0.046-0.617-0.114c-0.068-0.366-0.114-0.846-0.137-1.28h-0.023c-0.777,0.96-2.148,1.509-3.497,1.509
		c-2.126,0-3.908-1.188-3.908-3.634c0-1.395,0.571-2.423,1.463-3.063c1.006-0.708,2.331-0.937,3.748-0.937
		c0.801,0,1.463,0.045,2.058,0.137V46.11c0-2.286-0.938-3.04-2.857-3.04c-1.074,0-2.4,0.229-3.223,0.434
		c-0.046-0.114-0.092-0.366-0.092-0.594c0-0.16,0.046-0.389,0.114-0.525c0.983-0.297,2.286-0.48,3.383-0.48
		c2.721,0,4.16,1.234,4.16,4.023V51.116z M167.206,47.893c-0.663-0.091-1.349-0.137-1.943-0.137c-1.12,0-2.125,0.206-2.812,0.731
		c-0.617,0.457-0.96,1.188-0.96,2.125c0,1.668,1.074,2.469,2.561,2.469c1.234,0,2.537-0.594,3.154-1.532V47.893z"/>
	<path fill="#333333" d="M180.986,54.065c-0.183,0.045-0.457,0.091-0.731,0.091c-0.229,0-0.525-0.046-0.754-0.114v-7.246
		c0-1.097-0.138-1.943-0.457-2.537c-0.389-0.731-1.12-1.097-2.309-1.097c-1.144,0-2.515,0.64-3.406,1.326v9.555
		c-0.251,0.068-0.503,0.114-0.777,0.114c-0.229,0-0.503-0.046-0.708-0.114V42.133c0.159-0.069,0.434-0.092,0.594-0.092
		c0.229,0,0.503,0.023,0.641,0.092l0.114,1.188h0.022c1.257-1.029,2.697-1.417,3.863-1.417c1.165,0,2.377,0.388,3.04,1.188
		c0.731,0.869,0.868,2.125,0.868,3.36V54.065z"/>
	<path fill="#333333" d="M192.229,54.156c-0.205,0-0.457-0.068-0.594-0.114l-0.138-1.372h-0.022c-0.982,1.029-2.148,1.6-3.451,1.6
		c-3.154,0-4.663-2.628-4.663-5.829c0-3.177,1.349-6.537,4.982-6.537c1.144,0,2.194,0.388,3.04,0.983v-5.532
		c0.206-0.069,0.48-0.114,0.731-0.114c0.274,0,0.549,0.068,0.755,0.114v16.686C192.71,54.11,192.481,54.156,192.229,54.156z
		 M191.384,44.145c-0.822-0.686-1.874-1.028-2.948-1.028c-2.651,0-3.543,2.605-3.543,5.257c0,2.035,0.64,4.686,3.2,4.686
		c1.234,0,2.491-0.617,3.291-1.577V44.145z"/>
</g>
<g>
	<path fill="#333333" d="M22.407,80.796c-0.183,0.068-0.525,0.114-0.777,0.114s-0.595-0.046-0.777-0.114v-7.154h-7.475v7.154
		c-0.183,0.068-0.525,0.114-0.777,0.114s-0.594-0.046-0.777-0.114V65.344c0.183-0.069,0.526-0.114,0.777-0.114
		s0.594,0.045,0.777,0.114v7.063h7.475v-7.063c0.183-0.069,0.526-0.114,0.777-0.114s0.594,0.045,0.777,0.114V80.796z"/>
	<path fill="#333333" d="M34.404,75.242h-7.657c0.092,2.628,1.326,4.617,4.183,4.617c1.029,0,1.989-0.137,2.834-0.343
		c0.045,0.115,0.091,0.343,0.091,0.48c0,0.229-0.046,0.434-0.114,0.594c-0.892,0.274-2.012,0.434-2.949,0.434
		c-1.806,0-3.177-0.571-4.023-1.486c-1.006-1.097-1.531-2.743-1.531-4.64c0-3.314,1.668-6.24,5.006-6.24
		c2.994,0,4.183,2.468,4.183,5.486C34.427,74.487,34.427,74.898,34.404,75.242z M32.941,74.145c0-2.103-0.229-4.366-2.766-4.366
		c-2.217,0-3.292,2.035-3.429,4.366H32.941z"/>
	<path fill="#333333" d="M45.055,77.87c0,0.823,0,1.852,0.045,2.926c-0.16,0.068-0.412,0.114-0.617,0.114
		c-0.183,0-0.434-0.046-0.617-0.114c-0.068-0.366-0.114-0.846-0.137-1.28h-0.022c-0.777,0.96-2.149,1.509-3.498,1.509
		c-2.125,0-3.909-1.188-3.909-3.634c0-1.395,0.572-2.423,1.463-3.063c1.006-0.708,2.332-0.937,3.749-0.937
		c0.8,0,1.463,0.045,2.057,0.137v-0.663c0-2.286-0.938-3.04-2.857-3.04c-1.074,0-2.4,0.229-3.223,0.434
		c-0.046-0.114-0.092-0.366-0.092-0.594c0-0.16,0.046-0.389,0.114-0.525c0.983-0.297,2.286-0.48,3.383-0.48
		c2.72,0,4.16,1.234,4.16,4.023V77.87z M43.569,74.647c-0.663-0.091-1.349-0.137-1.943-0.137c-1.12,0-2.126,0.206-2.812,0.731
		c-0.617,0.457-0.96,1.188-0.96,2.125c0,1.668,1.074,2.469,2.56,2.469c1.234,0,2.537-0.594,3.154-1.532V74.647z"/>
	<path fill="#333333" d="M49.738,80.796c-0.251,0.068-0.503,0.114-0.777,0.114c-0.229,0-0.503-0.046-0.708-0.114V64.11
		c0.206-0.046,0.457-0.114,0.754-0.114c0.251,0,0.525,0.045,0.731,0.114V80.796z"/>
	<path fill="#333333" d="M59.223,80.682c-0.594,0.206-1.485,0.343-2.148,0.343c-2.263,0-3.337-1.074-3.337-3.611v-7.36H51.68
		c-0.045-0.114-0.068-0.389-0.068-0.526c0-0.114,0.023-0.388,0.068-0.502l2.057-0.137v-3.109c0.183-0.068,0.48-0.114,0.731-0.114
		s0.572,0.046,0.754,0.114v3.109h3.36c0.045,0.114,0.091,0.457,0.091,0.571c0,0.16-0.046,0.434-0.091,0.594h-3.36v7.223
		c0,1.806,0.526,2.56,1.943,2.56c0.777,0,1.532-0.114,2.057-0.274c0.046,0.114,0.092,0.389,0.092,0.549
		C59.314,80.316,59.292,80.476,59.223,80.682z"/>
	<path fill="#333333" d="M70.582,80.796c-0.206,0.068-0.457,0.114-0.686,0.114c-0.274,0-0.571-0.046-0.8-0.114v-7.223
		c0-2.514-0.64-3.657-2.766-3.657c-1.143,0-2.514,0.64-3.406,1.326v9.555c-0.251,0.068-0.526,0.114-0.777,0.114
		c-0.229,0-0.502-0.046-0.708-0.114V64.11c0.206-0.069,0.526-0.114,0.731-0.114c0.206,0,0.549,0.045,0.754,0.114v5.875
		c1.211-0.938,2.651-1.326,3.771-1.326c1.166,0,2.354,0.388,3.017,1.188c0.731,0.869,0.869,2.125,0.869,3.36V80.796z"/>
	<path fill="#333333" d="M87.79,80.796c-0.206,0.068-0.457,0.114-0.686,0.114c-0.274,0-0.571-0.046-0.8-0.114v-7.223
		c0-2.514-0.64-3.657-2.766-3.657c-1.143,0-2.514,0.64-3.406,1.326v9.555c-0.251,0.068-0.526,0.114-0.777,0.114
		c-0.229,0-0.502-0.046-0.708-0.114V64.11c0.206-0.069,0.526-0.114,0.731-0.114c0.206,0,0.549,0.045,0.754,0.114v5.875
		c1.211-0.938,2.651-1.326,3.771-1.326c1.166,0,2.354,0.388,3.017,1.188c0.731,0.869,0.869,2.125,0.869,3.36V80.796z"/>
	<path fill="#333333" d="M98.965,77.87c0,0.823,0,1.852,0.046,2.926c-0.16,0.068-0.411,0.114-0.617,0.114
		c-0.183,0-0.434-0.046-0.617-0.114c-0.068-0.366-0.114-0.846-0.137-1.28h-0.022c-0.777,0.96-2.149,1.509-3.498,1.509
		c-2.125,0-3.909-1.188-3.909-3.634c0-1.395,0.572-2.423,1.463-3.063c1.006-0.708,2.332-0.937,3.749-0.937
		c0.8,0,1.463,0.045,2.057,0.137v-0.663c0-2.286-0.938-3.04-2.857-3.04c-1.074,0-2.4,0.229-3.223,0.434
		c-0.046-0.114-0.092-0.366-0.092-0.594c0-0.16,0.046-0.389,0.114-0.525c0.983-0.297,2.286-0.48,3.383-0.48
		c2.72,0,4.16,1.234,4.16,4.023V77.87z M97.479,74.647c-0.663-0.091-1.349-0.137-1.943-0.137c-1.12,0-2.126,0.206-2.812,0.731
		c-0.617,0.457-0.96,1.188-0.96,2.125c0,1.668,1.074,2.469,2.56,2.469c1.234,0,2.537-0.594,3.154-1.532V74.647z"/>
	<path fill="#333333" d="M104.769,81.024c-1.143,0-2.331-0.206-3.154-0.526c-0.068-0.16-0.114-0.434-0.114-0.64
		c0-0.137,0.046-0.48,0.092-0.617c0.846,0.343,2.057,0.617,3.062,0.617c1.737,0,2.812-0.731,2.812-2.171
		c0-1.303-0.663-1.76-2.468-2.423c-2.515-0.914-3.337-1.965-3.337-3.52c0-2.103,1.737-3.085,3.977-3.085
		c0.754,0,1.737,0.137,2.309,0.32c0.069,0.206,0.092,0.412,0.092,0.548c0,0.183-0.046,0.503-0.092,0.663
		c-0.754-0.229-1.554-0.366-2.331-0.366c-1.623,0-2.606,0.617-2.606,1.875c0,1.097,0.617,1.623,2.491,2.332
		c1.714,0.64,3.292,1.28,3.292,3.588C108.792,79.95,107.032,81.024,104.769,81.024z"/>
	<path fill="#333333" d="M118.893,81.024c-1.143,0-2.332-0.206-3.155-0.526c-0.068-0.16-0.114-0.434-0.114-0.64
		c0-0.137,0.046-0.48,0.092-0.617c0.846,0.343,2.057,0.617,3.062,0.617c1.737,0,2.812-0.731,2.812-2.171
		c0-1.303-0.663-1.76-2.468-2.423c-2.515-0.914-3.337-1.965-3.337-3.52c0-2.103,1.737-3.085,3.977-3.085
		c0.754,0,1.737,0.137,2.309,0.32c0.069,0.206,0.092,0.412,0.092,0.548c0,0.183-0.046,0.503-0.092,0.663
		c-0.754-0.229-1.554-0.366-2.331-0.366c-1.623,0-2.606,0.617-2.606,1.875c0,1.097,0.617,1.623,2.492,2.332
		c1.714,0.64,3.291,1.28,3.291,3.588C122.915,79.95,121.155,81.024,118.893,81.024z"/>
	<path fill="#333333" d="M133.84,75.242h-7.658c0.092,2.628,1.326,4.617,4.183,4.617c1.029,0,1.989-0.137,2.834-0.343
		c0.045,0.115,0.091,0.343,0.091,0.48c0,0.229-0.046,0.434-0.114,0.594c-0.892,0.274-2.012,0.434-2.949,0.434
		c-1.806,0-3.177-0.571-4.023-1.486c-1.006-1.097-1.531-2.743-1.531-4.64c0-3.314,1.668-6.24,5.006-6.24
		c2.994,0,4.183,2.468,4.183,5.486C133.862,74.487,133.862,74.898,133.84,75.242z M132.377,74.145c0-2.103-0.229-4.366-2.766-4.366
		c-2.217,0-3.292,2.035-3.429,4.366H132.377z"/>
	<path fill="#333333" d="M143.849,70.327c-0.731-0.297-1.691-0.48-2.537-0.48c-2.972,0-4.069,2.309-4.069,5.097
		c0,2.743,1.051,4.869,4.046,4.869c0.8,0,1.76-0.137,2.469-0.343c0.045,0.137,0.091,0.297,0.091,0.48c0,0.274-0.046,0.48-0.114,0.64
		c-0.663,0.274-1.737,0.434-2.583,0.434c-3.726,0-5.463-2.446-5.463-6.034c0-3.726,1.897-6.332,5.531-6.332
		c0.869,0,1.897,0.206,2.606,0.525c0.068,0.183,0.091,0.366,0.091,0.572C143.917,69.984,143.895,70.167,143.849,70.327z"/>
	<path fill="#333333" d="M155.07,76.27c0,3.475-1.439,4.754-4.457,4.754c-3.086,0-4.389-1.28-4.389-4.64v-7.497
		c0.206-0.069,0.48-0.114,0.731-0.114c0.32,0,0.571,0.068,0.754,0.114v7.314c0,2.217,0.343,3.68,2.926,3.68
		c2.422,0,2.949-1.417,2.949-3.726v-7.269c0.183-0.069,0.503-0.114,0.754-0.114c0.252,0,0.525,0.045,0.731,0.114V76.27z"/>
	<path fill="#333333" d="M163.435,69.984c-1.325,0.183-2.766,0.663-3.84,1.485v9.326c-0.229,0.068-0.503,0.114-0.754,0.114
		c-0.252,0-0.503-0.046-0.731-0.114V68.887c0.137-0.046,0.343-0.092,0.571-0.092c0.183,0,0.435,0.046,0.617,0.092l0.114,1.463h0.022
		c0.983-0.846,2.697-1.555,4-1.691c0.046,0.137,0.092,0.388,0.092,0.594C163.526,69.481,163.48,69.778,163.435,69.984z"/>
	<path fill="#333333" d="M173.65,75.242h-7.657c0.091,2.628,1.325,4.617,4.183,4.617c1.028,0,1.988-0.137,2.834-0.343
		c0.046,0.115,0.092,0.343,0.092,0.48c0,0.229-0.046,0.434-0.114,0.594c-0.892,0.274-2.012,0.434-2.948,0.434
		c-1.807,0-3.178-0.571-4.023-1.486c-1.006-1.097-1.531-2.743-1.531-4.64c0-3.314,1.668-6.24,5.006-6.24
		c2.994,0,4.183,2.468,4.183,5.486C173.673,74.487,173.673,74.898,173.65,75.242z M172.188,74.145c0-2.103-0.229-4.366-2.766-4.366
		c-2.218,0-3.292,2.035-3.429,4.366H172.188z"/>
	<path fill="#333333" d="M184.368,80.91c-0.205,0-0.457-0.068-0.594-0.114l-0.138-1.372h-0.022c-0.982,1.029-2.148,1.6-3.451,1.6
		c-3.154,0-4.663-2.628-4.663-5.829c0-3.177,1.349-6.537,4.982-6.537c1.144,0,2.194,0.388,3.04,0.983V64.11
		c0.206-0.069,0.48-0.114,0.731-0.114c0.274,0,0.549,0.068,0.755,0.114v16.686C184.849,80.864,184.62,80.91,184.368,80.91z
		 M183.522,70.898c-0.822-0.686-1.874-1.028-2.948-1.028c-2.651,0-3.543,2.605-3.543,5.257c0,2.035,0.64,4.686,3.2,4.686
		c1.234,0,2.491-0.617,3.291-1.577V70.898z"/>
	<path fill="#333333" d="M197.395,81.024c-2.994,0-4.914-2.057-4.914-6.171c0-4.115,1.942-6.194,4.938-6.194
		c2.994,0,4.892,2.034,4.892,6.148S200.389,81.024,197.395,81.024z M197.418,69.778c-2.194,0-3.384,1.691-3.384,5.052
		c0,3.36,1.166,5.074,3.36,5.074s3.36-1.714,3.36-5.074C200.755,71.47,199.612,69.778,197.418,69.778z"/>
	<path fill="#333333" d="M212.707,71.79l-3.589,9.006c-0.205,0.068-0.434,0.114-0.617,0.114c-0.251,0-0.457-0.046-0.64-0.114
		l-3.703-9.006c-0.411-1.029-0.594-2.057-0.594-2.903c0.183-0.046,0.502-0.114,0.708-0.114c0.274,0,0.549,0.045,0.777,0.114
		c0.022,0.777,0.114,1.668,0.457,2.491l2.972,7.543h0.046l2.88-7.543c0.32-0.8,0.479-1.691,0.479-2.491
		c0.16-0.069,0.503-0.114,0.801-0.114c0.159,0,0.457,0.022,0.662,0.091C213.324,69.687,213.164,70.67,212.707,71.79z"/>
	<path fill="#333333" d="M223.791,75.242h-7.657c0.091,2.628,1.325,4.617,4.183,4.617c1.028,0,1.988-0.137,2.834-0.343
		c0.046,0.115,0.092,0.343,0.092,0.48c0,0.229-0.046,0.434-0.114,0.594c-0.892,0.274-2.012,0.434-2.948,0.434
		c-1.807,0-3.178-0.571-4.023-1.486c-1.006-1.097-1.531-2.743-1.531-4.64c0-3.314,1.668-6.24,5.006-6.24
		c2.994,0,4.183,2.468,4.183,5.486C223.813,74.487,223.813,74.898,223.791,75.242z M222.328,74.145c0-2.103-0.229-4.366-2.766-4.366
		c-2.218,0-3.292,2.035-3.429,4.366H222.328z"/>
	<path fill="#333333" d="M231.629,69.984c-1.325,0.183-2.766,0.663-3.84,1.485v9.326c-0.229,0.068-0.503,0.114-0.754,0.114
		c-0.252,0-0.503-0.046-0.731-0.114V68.887c0.137-0.046,0.343-0.092,0.571-0.092c0.183,0,0.434,0.046,0.617,0.092l0.114,1.463h0.022
		c0.983-0.846,2.697-1.555,4-1.691c0.046,0.137,0.092,0.388,0.092,0.594C231.721,69.481,231.675,69.778,231.629,69.984z"/>
</g>
<path fill="none" stroke="#333333" stroke-width="2.366" stroke-miterlimit="10" d="M168.694,183.198c0,0-6.806,0-6.806,6.806v4.604
	c0,0,0,6.806,6.806,6.806h38.219c0,0,6.806,0,6.806-6.806v-4.604c0,0,0-6.806-6.806-6.806H168.694z"/>
<path fill="none" stroke="#333333" stroke-width="2.366" stroke-miterlimit="10" d="M164.729,217.267
	c-11.616,7.557-19.297,20.652-19.297,35.542c0,23.402,18.969,42.37,42.37,42.37s42.37-18.968,42.37-42.37
	c0-14.3-7.087-26.946-17.94-34.62"/>
<path fill="none" stroke="#333333" stroke-width="2.366" stroke-miterlimit="10" d="M168.715,201.183c0,0,2.882,11.706-6.751,17.56"
	/>
<path fill="none" stroke="#333333" stroke-width="2.366" stroke-miterlimit="10" d="M208.103,202.024c0,0-2.477,11.933,6.83,17.708"
	/>
<path fill="none" stroke="#333333" stroke-width="2.366" stroke-miterlimit="10" d="M230.454,246.701c0,0-5.997-6.598-14.661-4.278
	c-8.66,2.319-16.26,7.813-28.921,1.89c-12.663-5.919-20.658-1.521-25.723,1.777c-5.067,3.299-13.457,2.321-15.861,0.365"/>
</svg>
