<?xml version="1.0" encoding="utf-8"?>
<!-- Generator: Adobe Illustrator 16.0.0, SVG Export Plug-In . SVG Version: 6.00 Build 0)  -->
<!DOCTYPE svg PUBLIC "-//W3C//DTD SVG 1.1//EN" "http://www.w3.org/Graphics/SVG/1.1/DTD/svg11.dtd">
<svg version="1.1" id="Layer_1" xmlns="http://www.w3.org/2000/svg" xmlns:xlink="http://www.w3.org/1999/xlink" x="0px" y="0px"
	 width="300px" height="300px" viewBox="0 0 300 300" enable-background="new 0 0 300 300" xml:space="preserve">
<g>
	<path fill="#333333" d="M16.513,59.983c-3.061,0-4.664-2.295-4.664-6.34c0-4.044,1.603-6.34,4.664-6.34
		c3.061,0,4.664,2.295,4.664,6.34C21.177,57.688,19.574,59.983,16.513,59.983z M16.513,48.232c-2.205,0-3.353,1.767-3.353,5.411
		c0,3.644,1.148,5.411,3.353,5.411s3.352-1.767,3.352-5.411C19.865,49.999,18.718,48.232,16.513,48.232z"/>
	<path fill="#333333" d="M30.291,56.193c0,2.77-1.147,3.79-3.553,3.79c-2.459,0-3.498-1.02-3.498-3.698v-5.976
		c0.164-0.055,0.383-0.091,0.583-0.091c0.255,0,0.456,0.055,0.602,0.091v5.83c0,1.768,0.273,2.934,2.332,2.934
		c1.931,0,2.35-1.13,2.35-2.97v-5.794c0.146-0.055,0.401-0.091,0.601-0.091c0.201,0,0.419,0.036,0.583,0.091V56.193z"/>
	<path fill="#333333" d="M36.781,51.183c-1.057,0.146-2.205,0.528-3.061,1.184v7.434c-0.183,0.055-0.401,0.091-0.602,0.091
		c-0.2,0-0.401-0.037-0.583-0.091v-9.492c0.109-0.036,0.273-0.073,0.456-0.073c0.146,0,0.346,0.037,0.492,0.073l0.091,1.166h0.018
		c0.784-0.674,2.15-1.239,3.188-1.348c0.037,0.109,0.073,0.31,0.073,0.474C36.854,50.782,36.817,51.019,36.781,51.183z"/>
	<path fill="#333333" d="M45.839,59.892c-1.221,0-2.223-0.037-3.225-0.091V47.485c0.729-0.037,1.694-0.091,2.624-0.091
		c2.787,0,4.154,0.784,4.154,3.042c0,1.367-0.692,2.369-1.822,2.733c1.712,0.201,2.806,1.385,2.806,3.134
		C50.375,58.817,48.426,59.892,45.839,59.892z M45.238,48.286c-0.31,0-0.911,0.019-1.385,0.055v4.519h1.421
		c1.585,0,2.915-0.346,2.915-2.405C48.189,48.596,46.786,48.286,45.238,48.286z M48.098,54.244
		c-0.583-0.365-1.221-0.474-2.132-0.474h-2.113v5.156c0.565,0.055,1.148,0.073,1.84,0.073c2.095,0,3.371-0.802,3.371-2.678
		C49.063,55.374,48.736,54.645,48.098,54.244z"/>
	<path fill="#333333" d="M55.426,59.983c-1.093,0-2.35-0.2-3.297-0.546c-0.055-0.146-0.091-0.328-0.091-0.528
		c0-0.182,0.037-0.401,0.073-0.547c0.965,0.383,2.277,0.62,3.225,0.62c1.84,0,2.806-0.82,2.806-2.332c0-1.33-0.71-1.931-2.059-2.423
		l-1.093-0.4c-1.822-0.674-2.86-1.549-2.86-3.298c0-2.041,1.622-3.225,3.917-3.225c0.893,0,1.804,0.127,2.624,0.346
		c0.055,0.109,0.073,0.292,0.073,0.455c0,0.146-0.036,0.383-0.091,0.51c-0.765-0.237-1.658-0.346-2.533-0.346
		c-1.348,0-2.714,0.474-2.714,2.187c0,1.366,0.692,1.84,2.241,2.423l0.966,0.365c1.676,0.637,2.751,1.494,2.751,3.279
		C59.361,58.89,57.722,59.983,55.426,59.983z"/>
	<path fill="#333333" d="M67.363,51.457c-0.583-0.237-1.348-0.383-2.022-0.383c-2.369,0-3.243,1.84-3.243,4.063
		c0,2.187,0.838,3.881,3.225,3.881c0.638,0,1.403-0.109,1.968-0.273c0.036,0.109,0.073,0.237,0.073,0.382
		c0,0.219-0.037,0.383-0.091,0.51c-0.528,0.219-1.385,0.346-2.059,0.346c-2.97,0-4.354-1.949-4.354-4.81
		c0-2.97,1.512-5.047,4.409-5.047c0.692,0,1.512,0.164,2.077,0.419c0.055,0.146,0.073,0.292,0.073,0.456
		C67.417,51.183,67.399,51.329,67.363,51.457z"/>
	<path fill="#333333" d="M81.742,59.801c-0.146,0.055-0.419,0.091-0.619,0.091c-0.201,0-0.474-0.037-0.62-0.091v-5.703h-5.958v5.703
		c-0.146,0.055-0.419,0.091-0.62,0.091c-0.2,0-0.474-0.037-0.619-0.091V47.485c0.146-0.055,0.419-0.091,0.619-0.091
		c0.201,0,0.474,0.037,0.62,0.091v5.629h5.958v-5.629c0.146-0.055,0.419-0.091,0.62-0.091c0.2,0,0.474,0.037,0.619,0.091V59.801z"/>
	<path fill="#333333" d="M87.74,59.983c-2.387,0-3.917-1.64-3.917-4.919c0-3.28,1.549-4.938,3.936-4.938s3.899,1.622,3.899,4.901
		S90.127,59.983,87.74,59.983z M87.759,51.019c-1.749,0-2.697,1.348-2.697,4.026s0.929,4.045,2.678,4.045s2.678-1.367,2.678-4.045
		S89.508,51.019,87.759,51.019z"/>
	<path fill="#333333" d="M100.734,59.819c-0.146,0.037-0.364,0.073-0.583,0.073c-0.182,0-0.419-0.037-0.601-0.091v-5.775
		c0-0.875-0.109-1.549-0.364-2.022c-0.31-0.583-0.893-0.875-1.84-0.875c-0.911,0-2.004,0.51-2.714,1.057v7.616
		c-0.201,0.055-0.401,0.091-0.62,0.091c-0.182,0-0.401-0.037-0.565-0.091v-9.492c0.127-0.055,0.346-0.073,0.474-0.073
		c0.183,0,0.401,0.018,0.51,0.073l0.091,0.947h0.018c1.002-0.82,2.15-1.129,3.079-1.129s1.895,0.31,2.423,0.947
		c0.583,0.692,0.692,1.694,0.692,2.678V59.819z"/>
	<path fill="#333333" d="M105.11,59.983c-0.911,0-1.858-0.164-2.515-0.419c-0.055-0.127-0.091-0.346-0.091-0.51
		c0-0.109,0.036-0.382,0.073-0.492c0.674,0.273,1.64,0.492,2.441,0.492c1.385,0,2.241-0.583,2.241-1.73
		c0-1.039-0.528-1.403-1.967-1.932c-2.004-0.729-2.66-1.566-2.66-2.806c0-1.676,1.385-2.459,3.17-2.459
		c0.602,0,1.385,0.109,1.84,0.255c0.055,0.164,0.073,0.328,0.073,0.438c0,0.146-0.036,0.401-0.073,0.528
		c-0.601-0.182-1.239-0.292-1.858-0.292c-1.293,0-2.077,0.492-2.077,1.494c0,0.875,0.492,1.293,1.986,1.858
		c1.366,0.51,2.623,1.02,2.623,2.86C108.316,59.126,106.914,59.983,105.11,59.983z"/>
	<path fill="#333333" d="M121.785,48.651c-0.692-0.182-1.694-0.346-2.514-0.346c-3.006,0-4.245,2.387-4.245,5.393
		c0,2.97,1.185,5.284,4.136,5.284c0.966,0,1.95-0.146,2.605-0.364c0.037,0.109,0.055,0.292,0.055,0.437
		c0,0.182-0.018,0.419-0.055,0.528c-0.656,0.219-1.585,0.401-2.642,0.401c-3.316,0-5.411-2.004-5.411-6.267
		c0-3.844,2.022-6.413,5.429-6.413c0.984,0,2.022,0.182,2.624,0.419c0.055,0.146,0.073,0.328,0.073,0.492
		C121.839,48.323,121.821,48.523,121.785,48.651z"/>
	<path fill="#333333" d="M126.926,59.983c-2.387,0-3.917-1.64-3.917-4.919c0-3.28,1.549-4.938,3.936-4.938s3.899,1.622,3.899,4.901
		S129.312,59.983,126.926,59.983z M126.944,51.019c-1.749,0-2.697,1.348-2.697,4.026s0.929,4.045,2.678,4.045
		s2.678-1.367,2.678-4.045S128.693,51.019,126.944,51.019z"/>
	<path fill="#333333" d="M145.805,59.819c-0.183,0.037-0.365,0.073-0.547,0.073c-0.219,0-0.419-0.055-0.638-0.091v-5.757
		c0-2.004-0.51-2.915-2.205-2.915c-0.875,0-2.041,0.456-2.769,0.984c0.146,0.51,0.182,1.075,0.182,1.64v6.049
		c-0.182,0.055-0.364,0.091-0.546,0.091c-0.237,0-0.456-0.037-0.638-0.091v-5.757c0-2.004-0.456-2.915-2.15-2.915
		c-0.911,0-1.986,0.51-2.696,1.057v7.616c-0.201,0.055-0.438,0.091-0.656,0.091c-0.182,0-0.382-0.037-0.528-0.091v-9.492
		c0.091-0.036,0.292-0.073,0.492-0.073c0.164,0,0.364,0.037,0.492,0.073l0.091,0.947h0.018c1.002-0.82,2.15-1.129,3.079-1.129
		s1.822,0.31,2.35,0.947c0.073,0.073,0.127,0.164,0.182,0.255c0.966-0.784,2.205-1.203,3.389-1.203c0.929,0,1.877,0.31,2.405,0.947
		c0.583,0.692,0.692,1.694,0.692,2.678V59.819z"/>
	<path fill="#333333" d="M161.26,59.819c-0.182,0.037-0.364,0.073-0.546,0.073c-0.219,0-0.42-0.055-0.638-0.091v-5.757
		c0-2.004-0.511-2.915-2.205-2.915c-0.874,0-2.04,0.456-2.77,0.984c0.146,0.51,0.183,1.075,0.183,1.64v6.049
		c-0.183,0.055-0.364,0.091-0.547,0.091c-0.236,0-0.455-0.037-0.638-0.091v-5.757c0-2.004-0.455-2.915-2.149-2.915
		c-0.911,0-1.986,0.51-2.696,1.057v7.616c-0.2,0.055-0.438,0.091-0.656,0.091c-0.182,0-0.382-0.037-0.528-0.091v-9.492
		c0.091-0.036,0.292-0.073,0.492-0.073c0.164,0,0.364,0.037,0.492,0.073l0.091,0.947h0.018c1.003-0.82,2.15-1.129,3.079-1.129
		c0.93,0,1.822,0.31,2.351,0.947c0.073,0.073,0.128,0.164,0.183,0.255c0.965-0.784,2.204-1.203,3.389-1.203
		c0.929,0,1.876,0.31,2.404,0.947c0.583,0.692,0.692,1.694,0.692,2.678V59.819z"/>
	<path fill="#333333" d="M170.504,56.193c0,2.77-1.148,3.79-3.553,3.79c-2.46,0-3.498-1.02-3.498-3.698v-5.976
		c0.164-0.055,0.382-0.091,0.583-0.091c0.255,0,0.455,0.055,0.601,0.091v5.83c0,1.768,0.273,2.934,2.332,2.934
		c1.932,0,2.351-1.13,2.351-2.97v-5.794c0.146-0.055,0.4-0.091,0.602-0.091c0.2,0,0.419,0.036,0.583,0.091V56.193z"/>
	<path fill="#333333" d="M180.054,59.819c-0.146,0.037-0.364,0.073-0.583,0.073c-0.182,0-0.419-0.037-0.602-0.091v-5.775
		c0-0.875-0.108-1.549-0.364-2.022c-0.31-0.583-0.893-0.875-1.84-0.875c-0.911,0-2.004,0.51-2.715,1.057v7.616
		c-0.2,0.055-0.4,0.091-0.619,0.091c-0.183,0-0.4-0.037-0.564-0.091v-9.492c0.127-0.055,0.346-0.073,0.474-0.073
		c0.182,0,0.4,0.018,0.51,0.073l0.091,0.947h0.019c1.002-0.82,2.149-1.129,3.079-1.129c0.929,0,1.895,0.31,2.423,0.947
		c0.583,0.692,0.692,1.694,0.692,2.678V59.819z"/>
	<path fill="#333333" d="M182.972,48.45c-0.419,0-0.765-0.364-0.765-0.801c0-0.438,0.346-0.784,0.765-0.784s0.783,0.346,0.783,0.784
		C183.755,48.086,183.391,48.45,182.972,48.45z M183.573,59.801c-0.164,0.055-0.401,0.091-0.602,0.091s-0.419-0.037-0.583-0.091
		v-9.492c0.146-0.036,0.383-0.091,0.565-0.091c0.2,0,0.474,0.036,0.619,0.091V59.801z"/>
	<path fill="#333333" d="M191.008,59.709c-0.474,0.164-1.184,0.273-1.712,0.273c-1.804,0-2.66-0.856-2.66-2.878v-5.867h-1.64
		c-0.036-0.091-0.055-0.31-0.055-0.419c0-0.091,0.019-0.31,0.055-0.401l1.64-0.109v-2.478c0.146-0.055,0.383-0.091,0.583-0.091
		s0.455,0.037,0.602,0.091v2.478h2.678c0.036,0.091,0.073,0.364,0.073,0.456c0,0.127-0.037,0.346-0.073,0.474h-2.678v5.757
		c0,1.439,0.419,2.041,1.548,2.041c0.62,0,1.221-0.091,1.64-0.219c0.037,0.091,0.073,0.31,0.073,0.438
		C191.081,59.418,191.062,59.546,191.008,59.709z"/>
	<path fill="#333333" d="M199.3,58.216c0,1.767-0.072,3.024-0.71,4.154c-0.729,1.293-2.168,1.913-3.462,1.913
		c-0.947,0-1.604-0.091-2.187-0.292c-0.055-0.109-0.072-0.292-0.072-0.438c0-0.109,0.036-0.346,0.072-0.455
		c0.547,0.164,1.203,0.292,2.077,0.292c2.004,0,3.098-1.439,3.098-3.936v-0.638c-0.93,0.82-1.968,1.166-2.915,1.166
		c-1.021,0-1.822-0.255-2.332-0.875c-0.565-0.674-0.638-1.658-0.638-2.642v-6.158c0.146-0.036,0.382-0.091,0.564-0.091
		c0.219,0,0.455,0.055,0.619,0.091v5.958c0,0.875,0.073,1.604,0.401,2.095c0.291,0.419,0.765,0.638,1.476,0.638
		c1.13,0,2.204-0.601,2.824-1.202v-7.488c0.163-0.036,0.4-0.091,0.619-0.091c0.182,0,0.419,0.055,0.564,0.091V58.216z"/>
</g>
<g>
	<path fill="#333333" d="M18.809,72.106l-2.86,5.611v4.354c-0.146,0.055-0.419,0.091-0.619,0.091c-0.201,0-0.474-0.037-0.62-0.091
		v-4.391l-2.842-5.593c-0.382-0.765-0.638-1.458-0.692-2.314c0.146-0.055,0.492-0.091,0.62-0.091c0.164,0,0.474,0.036,0.601,0.091
		c0.037,0.692,0.255,1.421,0.492,1.913l2.459,4.938l2.423-4.919c0.31-0.638,0.51-1.239,0.528-1.949
		c0.128-0.037,0.438-0.091,0.602-0.091c0.182,0,0.474,0.037,0.583,0.091C19.464,70.503,19.228,71.287,18.809,72.106z"/>
	<path fill="#333333" d="M23.439,82.254c-2.387,0-3.917-1.64-3.917-4.919c0-3.28,1.549-4.938,3.936-4.938s3.899,1.622,3.899,4.901
		S25.826,82.254,23.439,82.254z M23.458,73.291c-1.749,0-2.697,1.348-2.697,4.026s0.929,4.045,2.678,4.045s2.678-1.367,2.678-4.045
		S25.207,73.291,23.458,73.291z"/>
	<path fill="#333333" d="M36.141,78.465c0,2.77-1.147,3.79-3.553,3.79c-2.459,0-3.498-1.02-3.498-3.698V72.58
		c0.164-0.055,0.383-0.091,0.583-0.091c0.255,0,0.456,0.055,0.602,0.091v5.83c0,1.768,0.273,2.934,2.332,2.934
		c1.931,0,2.35-1.13,2.35-2.97V72.58c0.146-0.055,0.401-0.091,0.601-0.091c0.201,0,0.419,0.036,0.583,0.091V78.465z"/>
	<path fill="#333333" d="M43.433,81.981c-0.474,0.164-1.185,0.273-1.713,0.273c-1.804,0-2.66-0.856-2.66-2.878v-5.867h-1.64
		c-0.037-0.091-0.055-0.31-0.055-0.419c0-0.091,0.018-0.31,0.055-0.401l1.64-0.109v-2.478c0.146-0.055,0.382-0.091,0.583-0.091
		c0.2,0,0.456,0.037,0.601,0.091v2.478h2.678c0.037,0.091,0.073,0.364,0.073,0.456c0,0.127-0.036,0.346-0.073,0.474h-2.678v5.757
		c0,1.439,0.419,2.041,1.549,2.041c0.619,0,1.221-0.091,1.64-0.219c0.036,0.091,0.073,0.31,0.073,0.438
		C43.505,81.689,43.487,81.817,43.433,81.981z"/>
	<path fill="#333333" d="M52.308,82.072c-0.164,0.055-0.364,0.091-0.546,0.091c-0.219,0-0.456-0.037-0.638-0.091v-5.757
		c0-2.004-0.51-2.915-2.205-2.915c-0.911,0-2.004,0.51-2.714,1.057v7.616c-0.201,0.055-0.419,0.091-0.62,0.091
		c-0.182,0-0.401-0.037-0.565-0.091v-13.3c0.164-0.055,0.419-0.091,0.583-0.091s0.438,0.037,0.602,0.091v4.682
		c0.965-0.747,2.113-1.057,3.006-1.057c0.929,0,1.876,0.31,2.405,0.947c0.583,0.692,0.692,1.694,0.692,2.678V82.072z"/>
	<path fill="#333333" d="M65.303,73.236c-0.146-0.583-0.255-1.111-0.328-1.64c-0.091,0.51-0.201,1.002-0.365,1.622l-2.259,8.854
		c-0.182,0.055-0.474,0.091-0.729,0.091c-0.255,0-0.601-0.019-0.783-0.091l-2.66-9.237c-0.31-1.021-0.437-2.059-0.456-3.079
		c0.183-0.055,0.456-0.091,0.638-0.091c0.201,0,0.383,0.037,0.602,0.091c0.018,0.965,0.127,1.895,0.382,2.824l1.876,6.668
		c0.091,0.346,0.346,1.275,0.419,1.658c0.036-0.364,0.218-1.166,0.346-1.676l2.386-9.474c0.164-0.055,0.401-0.091,0.583-0.091
		c0.201,0,0.456,0.055,0.583,0.091l2.387,9.456c0.128,0.474,0.292,1.184,0.419,1.712c0.127-0.528,0.31-1.257,0.455-1.785
		l1.858-6.559c0.255-0.929,0.401-1.858,0.419-2.824c0.183-0.055,0.383-0.091,0.602-0.091c0.182,0,0.456,0.037,0.601,0.091
		c-0.018,0.947-0.146,1.949-0.456,3.006l-2.678,9.31c-0.2,0.055-0.619,0.091-0.82,0.091c-0.182,0-0.51-0.037-0.729-0.091
		L65.303,73.236z"/>
	<path fill="#333333" d="M76.914,82.254c-2.387,0-3.917-1.64-3.917-4.919c0-3.28,1.549-4.938,3.936-4.938s3.899,1.622,3.899,4.901
		S79.301,82.254,76.914,82.254z M76.933,73.291c-1.749,0-2.697,1.348-2.697,4.026s0.929,4.045,2.678,4.045s2.678-1.367,2.678-4.045
		S78.682,73.291,76.933,73.291z"/>
	<path fill="#333333" d="M86.865,73.455c-1.057,0.146-2.205,0.528-3.061,1.184v7.434c-0.183,0.055-0.401,0.091-0.602,0.091
		c-0.2,0-0.401-0.037-0.583-0.091V72.58c0.109-0.036,0.273-0.073,0.456-0.073c0.146,0,0.346,0.037,0.492,0.073l0.091,1.166h0.018
		c0.784-0.674,2.15-1.239,3.188-1.348c0.037,0.109,0.073,0.31,0.073,0.474C86.938,73.054,86.902,73.291,86.865,73.455z"/>
	<path fill="#333333" d="M95.54,82.072c-0.127,0.037-0.401,0.091-0.601,0.091s-0.492-0.037-0.729-0.091l-3.097-4.883l-1.384,1.293
		v3.589c-0.183,0.055-0.419,0.091-0.638,0.091c-0.146,0-0.383-0.037-0.547-0.091v-13.3c0.164-0.055,0.365-0.091,0.602-0.091
		c0.218,0,0.4,0.037,0.583,0.091v8.326l3.079-2.879c0.656-0.619,0.984-1.166,1.075-1.64c0.127-0.055,0.401-0.091,0.564-0.091
		c0.164,0,0.419,0.036,0.529,0.091c-0.073,0.674-0.492,1.494-1.33,2.259l-1.694,1.567L95.54,82.072z"/>
	<path fill="#333333" d="M105.055,73.455c-1.057,0.146-2.205,0.528-3.061,1.184v7.434c-0.183,0.055-0.401,0.091-0.602,0.091
		c-0.2,0-0.401-0.037-0.583-0.091V72.58c0.109-0.036,0.273-0.073,0.456-0.073c0.146,0,0.346,0.037,0.492,0.073l0.091,1.166h0.018
		c0.784-0.674,2.15-1.239,3.188-1.348c0.037,0.109,0.073,0.31,0.073,0.474C105.127,73.054,105.091,73.291,105.055,73.455z"/>
	<path fill="#333333" d="M113.037,77.645h-6.104c0.073,2.095,1.057,3.68,3.334,3.68c0.82,0,1.585-0.109,2.259-0.273
		c0.036,0.091,0.073,0.273,0.073,0.383c0,0.182-0.037,0.346-0.091,0.474c-0.71,0.219-1.603,0.346-2.35,0.346
		c-1.439,0-2.532-0.456-3.207-1.184c-0.802-0.875-1.221-2.187-1.221-3.699c0-2.642,1.33-4.974,3.99-4.974
		c2.387,0,3.334,1.968,3.334,4.373C113.055,77.044,113.055,77.372,113.037,77.645z M111.871,76.771c0-1.676-0.183-3.48-2.205-3.48
		c-1.768,0-2.624,1.622-2.733,3.48H111.871z"/>
	<path fill="#333333" d="M120.856,73.728c-0.583-0.237-1.348-0.383-2.022-0.383c-2.369,0-3.243,1.84-3.243,4.063
		c0,2.187,0.838,3.881,3.225,3.881c0.638,0,1.403-0.109,1.968-0.273c0.036,0.109,0.073,0.237,0.073,0.382
		c0,0.219-0.037,0.383-0.091,0.51c-0.528,0.219-1.385,0.346-2.059,0.346c-2.97,0-4.354-1.949-4.354-4.81
		c0-2.97,1.512-5.047,4.409-5.047c0.692,0,1.512,0.164,2.077,0.419c0.055,0.146,0.073,0.292,0.073,0.456
		C120.911,73.455,120.892,73.601,120.856,73.728z"/>
	<path fill="#333333" d="M129.403,77.645H123.3c0.073,2.095,1.057,3.68,3.334,3.68c0.82,0,1.585-0.109,2.259-0.273
		c0.036,0.091,0.073,0.273,0.073,0.383c0,0.182-0.037,0.346-0.091,0.474c-0.71,0.219-1.603,0.346-2.35,0.346
		c-1.439,0-2.532-0.456-3.207-1.184c-0.802-0.875-1.221-2.187-1.221-3.699c0-2.642,1.33-4.974,3.99-4.974
		c2.387,0,3.334,1.968,3.334,4.373C129.422,77.044,129.422,77.372,129.403,77.645z M128.237,76.771c0-1.676-0.182-3.48-2.204-3.48
		c-1.768,0-2.624,1.622-2.733,3.48H128.237z"/>
	<path fill="#333333" d="M131.885,70.722c-0.419,0-0.766-0.364-0.766-0.801c0-0.438,0.346-0.784,0.766-0.784
		c0.419,0,0.783,0.346,0.783,0.784C132.668,70.357,132.304,70.722,131.885,70.722z M132.486,82.072
		c-0.164,0.055-0.401,0.091-0.601,0.091c-0.201,0-0.419-0.037-0.583-0.091V72.58c0.146-0.036,0.382-0.091,0.564-0.091
		c0.201,0,0.474,0.036,0.62,0.091V82.072z"/>
	<path fill="#333333" d="M141.306,74.894l-2.86,7.178c-0.164,0.055-0.346,0.091-0.492,0.091c-0.2,0-0.364-0.037-0.51-0.091
		l-2.951-7.178c-0.328-0.82-0.474-1.64-0.474-2.314c0.146-0.036,0.4-0.091,0.564-0.091c0.219,0,0.438,0.036,0.62,0.091
		c0.018,0.62,0.091,1.33,0.364,1.986l2.369,6.012h0.036l2.296-6.012c0.255-0.638,0.382-1.348,0.382-1.986
		c0.128-0.055,0.401-0.091,0.638-0.091c0.127,0,0.364,0.018,0.528,0.073C141.797,73.218,141.67,74.001,141.306,74.894z"/>
	<path fill="#333333" d="M149.963,77.645h-6.104c0.073,2.095,1.057,3.68,3.334,3.68c0.82,0,1.585-0.109,2.259-0.273
		c0.037,0.091,0.073,0.273,0.073,0.383c0,0.182-0.036,0.346-0.091,0.474c-0.711,0.219-1.604,0.346-2.351,0.346
		c-1.439,0-2.532-0.456-3.207-1.184c-0.802-0.875-1.221-2.187-1.221-3.699c0-2.642,1.33-4.974,3.99-4.974
		c2.386,0,3.333,1.968,3.333,4.373C149.98,77.044,149.98,77.372,149.963,77.645z M148.797,76.771c0-1.676-0.183-3.48-2.205-3.48
		c-1.768,0-2.624,1.622-2.733,3.48H148.797z"/>
	<path fill="#333333" d="M158.347,82.164c-0.164,0-0.364-0.055-0.474-0.091l-0.109-1.093h-0.018
		c-0.784,0.82-1.713,1.275-2.752,1.275c-2.514,0-3.716-2.095-3.716-4.646c0-2.532,1.074-5.21,3.972-5.21
		c0.91,0,1.749,0.31,2.423,0.784v-4.409c0.164-0.055,0.383-0.091,0.583-0.091c0.219,0,0.438,0.055,0.602,0.091v13.3
		C158.729,82.127,158.547,82.164,158.347,82.164z M157.673,74.184c-0.656-0.547-1.494-0.82-2.351-0.82
		c-2.113,0-2.823,2.077-2.823,4.19c0,1.622,0.51,3.735,2.55,3.735c0.984,0,1.986-0.492,2.624-1.257V74.184z"/>
</g>
<g>
	<path fill="#333333" d="M14.163,201.747c-0.911,0-1.858-0.164-2.515-0.42c-0.055-0.127-0.091-0.346-0.091-0.51
		c0-0.109,0.036-0.383,0.073-0.492c0.674,0.273,1.64,0.492,2.441,0.492c1.385,0,2.241-0.583,2.241-1.73
		c0-1.039-0.528-1.403-1.967-1.932c-2.004-0.729-2.66-1.566-2.66-2.806c0-1.676,1.385-2.459,3.17-2.459
		c0.602,0,1.385,0.108,1.84,0.255c0.055,0.164,0.073,0.328,0.073,0.437c0,0.146-0.036,0.401-0.073,0.528
		c-0.601-0.182-1.239-0.291-1.858-0.291c-1.293,0-2.077,0.492-2.077,1.494c0,0.874,0.492,1.293,1.986,1.858
		c1.366,0.51,2.623,1.021,2.623,2.86C17.369,200.891,15.966,201.747,14.163,201.747z"/>
	<path fill="#333333" d="M25.972,199.232c0,0.656,0,1.476,0.036,2.332c-0.127,0.055-0.328,0.091-0.492,0.091
		c-0.146,0-0.346-0.036-0.492-0.091c-0.055-0.292-0.091-0.674-0.109-1.021h-0.018c-0.62,0.766-1.712,1.203-2.788,1.203
		c-1.694,0-3.115-0.948-3.115-2.897c0-1.111,0.456-1.931,1.166-2.441c0.802-0.564,1.858-0.747,2.988-0.747
		c0.638,0,1.166,0.037,1.64,0.109v-0.528c0-1.821-0.747-2.423-2.277-2.423c-0.856,0-1.913,0.183-2.569,0.346
		c-0.037-0.091-0.073-0.291-0.073-0.474c0-0.127,0.036-0.31,0.091-0.419c0.784-0.236,1.822-0.382,2.697-0.382
		c2.168,0,3.316,0.983,3.316,3.206V199.232z M24.787,196.663c-0.528-0.072-1.075-0.108-1.548-0.108
		c-0.893,0-1.694,0.163-2.241,0.583c-0.492,0.364-0.765,0.947-0.765,1.694c0,1.329,0.856,1.967,2.041,1.967
		c0.984,0,2.022-0.474,2.514-1.221V196.663z"/>
	<path fill="#333333" d="M33.718,201.474c-0.474,0.164-1.184,0.273-1.713,0.273c-1.803,0-2.66-0.856-2.66-2.879v-5.866h-1.64
		c-0.037-0.092-0.055-0.311-0.055-0.42c0-0.091,0.018-0.31,0.055-0.4l1.64-0.109v-2.478c0.146-0.055,0.382-0.091,0.583-0.091
		c0.2,0,0.456,0.036,0.601,0.091v2.478h2.678c0.037,0.091,0.073,0.364,0.073,0.456c0,0.127-0.036,0.346-0.073,0.474H30.53v5.757
		c0,1.439,0.419,2.04,1.549,2.04c0.619,0,1.221-0.091,1.64-0.218c0.036,0.091,0.073,0.31,0.073,0.437
		C33.791,201.182,33.773,201.31,33.718,201.474z"/>
	<path fill="#333333" d="M36.308,190.214c-0.419,0-0.765-0.364-0.765-0.802c0-0.437,0.346-0.783,0.765-0.783
		c0.419,0,0.784,0.347,0.784,0.783C37.091,189.85,36.727,190.214,36.308,190.214z M36.909,201.564
		c-0.164,0.055-0.401,0.091-0.602,0.091c-0.2,0-0.419-0.036-0.583-0.091v-9.492c0.146-0.036,0.383-0.091,0.565-0.091
		c0.201,0,0.474,0.036,0.62,0.091V201.564z"/>
	<path fill="#333333" d="M41.738,201.747c-0.911,0-1.858-0.164-2.514-0.42c-0.055-0.127-0.091-0.346-0.091-0.51
		c0-0.109,0.036-0.383,0.073-0.492c0.674,0.273,1.64,0.492,2.441,0.492c1.385,0,2.241-0.583,2.241-1.73
		c0-1.039-0.528-1.403-1.967-1.932c-2.004-0.729-2.66-1.566-2.66-2.806c0-1.676,1.385-2.459,3.17-2.459
		c0.602,0,1.385,0.108,1.84,0.255c0.055,0.164,0.073,0.328,0.073,0.437c0,0.146-0.036,0.401-0.073,0.528
		c-0.601-0.182-1.239-0.291-1.858-0.291c-1.293,0-2.077,0.492-2.077,1.494c0,0.874,0.492,1.293,1.986,1.858
		c1.367,0.51,2.624,1.021,2.624,2.86C44.945,200.891,43.542,201.747,41.738,201.747z"/>
	<path fill="#333333" d="M52.436,189.048c-0.273-0.072-0.765-0.146-1.147-0.146c-0.692,0-1.203,0.182-1.549,0.564
		c-0.528,0.565-0.619,1.33-0.619,2.296v0.31h2.569c0.036,0.091,0.073,0.31,0.073,0.438c0,0.146-0.037,0.364-0.073,0.492h-2.569
		v8.562c-0.164,0.055-0.346,0.091-0.583,0.091s-0.438-0.036-0.602-0.091v-8.562h-1.64c-0.037-0.092-0.055-0.328-0.055-0.438
		c0-0.091,0.018-0.292,0.055-0.383l1.64-0.109v-0.31c0-1.294,0.219-2.187,0.966-2.934c0.528-0.528,1.312-0.783,2.205-0.783
		c0.474,0,1.002,0.109,1.33,0.237c0.037,0.091,0.055,0.218,0.055,0.346C52.491,188.738,52.473,188.957,52.436,189.048z"/>
	<path fill="#333333" d="M59.835,199.232c0,0.656,0,1.476,0.037,2.332c-0.127,0.055-0.328,0.091-0.492,0.091
		c-0.146,0-0.346-0.036-0.492-0.091c-0.055-0.292-0.091-0.674-0.109-1.021H58.76c-0.62,0.766-1.712,1.203-2.788,1.203
		c-1.694,0-3.115-0.948-3.115-2.897c0-1.111,0.456-1.931,1.166-2.441c0.802-0.564,1.858-0.747,2.988-0.747
		c0.638,0,1.166,0.037,1.64,0.109v-0.528c0-1.821-0.747-2.423-2.277-2.423c-0.856,0-1.913,0.183-2.569,0.346
		c-0.037-0.091-0.073-0.291-0.073-0.474c0-0.127,0.036-0.31,0.091-0.419c0.784-0.236,1.822-0.382,2.697-0.382
		c2.168,0,3.315,0.983,3.315,3.206V199.232z M58.651,196.663c-0.528-0.072-1.075-0.108-1.548-0.108
		c-0.893,0-1.694,0.163-2.241,0.583c-0.492,0.364-0.765,0.947-0.765,1.694c0,1.329,0.856,1.967,2.041,1.967
		c0.984,0,2.022-0.474,2.514-1.221V196.663z"/>
	<path fill="#333333" d="M68.511,193.22c-0.583-0.236-1.348-0.382-2.022-0.382c-2.369,0-3.243,1.84-3.243,4.062
		c0,2.187,0.838,3.881,3.225,3.881c0.638,0,1.403-0.109,1.968-0.273c0.036,0.109,0.073,0.236,0.073,0.383
		c0,0.219-0.037,0.382-0.091,0.51c-0.528,0.219-1.385,0.347-2.059,0.347c-2.97,0-4.354-1.95-4.354-4.811
		c0-2.97,1.512-5.046,4.409-5.046c0.692,0,1.512,0.163,2.077,0.419c0.055,0.146,0.073,0.291,0.073,0.455
		C68.566,192.947,68.547,193.093,68.511,193.22z"/>
	<path fill="#333333" d="M75.802,201.474c-0.474,0.164-1.185,0.273-1.713,0.273c-1.804,0-2.66-0.856-2.66-2.879v-5.866h-1.64
		c-0.037-0.092-0.055-0.311-0.055-0.42c0-0.091,0.018-0.31,0.055-0.4l1.64-0.109v-2.478c0.146-0.055,0.382-0.091,0.583-0.091
		c0.2,0,0.456,0.036,0.601,0.091v2.478h2.678c0.037,0.091,0.073,0.364,0.073,0.456c0,0.127-0.036,0.346-0.073,0.474h-2.678v5.757
		c0,1.439,0.419,2.04,1.549,2.04c0.619,0,1.221-0.091,1.64-0.218c0.036,0.091,0.073,0.31,0.073,0.437
		C75.875,201.182,75.856,201.31,75.802,201.474z"/>
	<path fill="#333333" d="M78.392,190.214c-0.419,0-0.766-0.364-0.766-0.802c0-0.437,0.346-0.783,0.766-0.783
		c0.419,0,0.783,0.347,0.783,0.783C79.175,189.85,78.811,190.214,78.392,190.214z M78.993,201.564
		c-0.164,0.055-0.401,0.091-0.601,0.091c-0.201,0-0.419-0.036-0.583-0.091v-9.492c0.146-0.036,0.382-0.091,0.564-0.091
		c0.201,0,0.474,0.036,0.62,0.091V201.564z"/>
	<path fill="#333333" d="M85.116,201.747c-2.387,0-3.917-1.641-3.917-4.92s1.549-4.937,3.936-4.937s3.899,1.621,3.899,4.9
		S87.502,201.747,85.116,201.747z M85.134,192.783c-1.749,0-2.697,1.348-2.697,4.026c0,2.678,0.929,4.044,2.678,4.044
		s2.678-1.366,2.678-4.044C87.794,194.131,86.883,192.783,85.134,192.783z"/>
	<path fill="#333333" d="M98.438,201.583c-0.146,0.036-0.364,0.072-0.583,0.072c-0.182,0-0.419-0.036-0.601-0.091v-5.775
		c0-0.875-0.109-1.549-0.364-2.022c-0.31-0.583-0.893-0.874-1.84-0.874c-0.911,0-2.004,0.51-2.714,1.057v7.615
		c-0.201,0.055-0.401,0.091-0.62,0.091c-0.182,0-0.401-0.036-0.565-0.091v-9.492c0.127-0.055,0.346-0.073,0.474-0.073
		c0.182,0,0.401,0.019,0.51,0.073l0.091,0.947h0.018c1.002-0.819,2.15-1.129,3.079-1.129s1.895,0.31,2.423,0.947
		c0.583,0.692,0.692,1.694,0.692,2.678V201.583z"/>
	<path fill="#333333" d="M109.483,192.947c-1.057,0.146-2.205,0.528-3.061,1.184v7.434c-0.183,0.055-0.401,0.091-0.602,0.091
		c-0.2,0-0.401-0.036-0.583-0.091v-9.492c0.109-0.036,0.273-0.073,0.456-0.073c0.146,0,0.346,0.037,0.492,0.073l0.091,1.166h0.018
		c0.784-0.674,2.15-1.239,3.188-1.348c0.037,0.108,0.073,0.31,0.073,0.474C109.556,192.546,109.52,192.783,109.483,192.947z"/>
	<path fill="#333333" d="M117.429,199.232c0,0.656,0,1.476,0.037,2.332c-0.127,0.055-0.328,0.091-0.492,0.091
		c-0.146,0-0.346-0.036-0.492-0.091c-0.055-0.292-0.091-0.674-0.109-1.021h-0.018c-0.62,0.766-1.712,1.203-2.788,1.203
		c-1.694,0-3.115-0.948-3.115-2.897c0-1.111,0.456-1.931,1.166-2.441c0.802-0.564,1.858-0.747,2.988-0.747
		c0.638,0,1.166,0.037,1.64,0.109v-0.528c0-1.821-0.747-2.423-2.277-2.423c-0.856,0-1.913,0.183-2.569,0.346
		c-0.037-0.091-0.073-0.291-0.073-0.474c0-0.127,0.036-0.31,0.091-0.419c0.784-0.236,1.822-0.382,2.697-0.382
		c2.168,0,3.315,0.983,3.315,3.206V199.232z M116.245,196.663c-0.528-0.072-1.075-0.108-1.548-0.108
		c-0.893,0-1.694,0.163-2.241,0.583c-0.492,0.364-0.765,0.947-0.765,1.694c0,1.329,0.856,1.967,2.041,1.967
		c0.984,0,2.022-0.474,2.514-1.221V196.663z"/>
	<path fill="#333333" d="M125.176,201.474c-0.474,0.164-1.185,0.273-1.713,0.273c-1.804,0-2.66-0.856-2.66-2.879v-5.866h-1.64
		c-0.037-0.092-0.055-0.311-0.055-0.42c0-0.091,0.018-0.31,0.055-0.4l1.64-0.109v-2.478c0.146-0.055,0.382-0.091,0.583-0.091
		c0.2,0,0.456,0.036,0.601,0.091v2.478h2.678c0.037,0.091,0.073,0.364,0.073,0.456c0,0.127-0.036,0.346-0.073,0.474h-2.678v5.757
		c0,1.439,0.419,2.04,1.549,2.04c0.619,0,1.221-0.091,1.64-0.218c0.036,0.091,0.073,0.31,0.073,0.437
		C125.249,201.182,125.23,201.31,125.176,201.474z"/>
	<path fill="#333333" d="M127.766,190.214c-0.419,0-0.766-0.364-0.766-0.802c0-0.437,0.346-0.783,0.766-0.783
		c0.419,0,0.783,0.347,0.783,0.783C128.549,189.85,128.185,190.214,127.766,190.214z M128.367,201.564
		c-0.164,0.055-0.401,0.091-0.601,0.091c-0.201,0-0.419-0.036-0.583-0.091v-9.492c0.146-0.036,0.382-0.091,0.564-0.091
		c0.201,0,0.474,0.036,0.62,0.091V201.564z"/>
	<path fill="#333333" d="M138.389,201.583c-0.146,0.036-0.364,0.072-0.583,0.072c-0.182,0-0.419-0.036-0.601-0.091v-5.775
		c0-0.875-0.109-1.549-0.364-2.022c-0.31-0.583-0.893-0.874-1.84-0.874c-0.911,0-2.004,0.51-2.714,1.057v7.615
		c-0.201,0.055-0.401,0.091-0.62,0.091c-0.182,0-0.401-0.036-0.565-0.091v-9.492c0.127-0.055,0.346-0.073,0.474-0.073
		c0.182,0,0.401,0.019,0.51,0.073l0.091,0.947h0.018c1.002-0.819,2.15-1.129,3.079-1.129s1.895,0.31,2.423,0.947
		c0.583,0.692,0.692,1.694,0.692,2.678V201.583z"/>
	<path fill="#333333" d="M147.866,199.979c0,1.366-0.073,3.006-0.729,4.136c-0.784,1.348-2.187,1.931-3.589,1.931
		c-0.802,0-1.494-0.091-2.077-0.291c-0.055-0.109-0.073-0.292-0.073-0.438c0-0.109,0.037-0.328,0.073-0.438
		c0.565,0.146,1.221,0.256,1.877,0.256c2.295,0,3.334-1.422,3.334-3.917v-0.766c-0.71,0.747-1.713,1.111-2.533,1.111
		c-2.423,0-3.68-1.877-3.68-4.519c0-3.243,1.913-5.155,4.737-5.155c0.747,0,1.877,0.218,2.66,0.528V199.979z M146.682,193.002
		c-0.656-0.183-1.13-0.237-1.585-0.237c-2.314,0-3.407,1.949-3.407,4.227c0,2.022,0.765,3.607,2.551,3.607
		c0.911,0,1.84-0.455,2.441-1.093V193.002z"/>
	<path fill="#333333" d="M160.096,189.048c-0.273-0.072-0.765-0.146-1.147-0.146c-0.692,0-1.202,0.182-1.549,0.564
		c-0.528,0.565-0.619,1.33-0.619,2.296v0.31h2.568c0.037,0.091,0.073,0.31,0.073,0.438c0,0.146-0.036,0.364-0.073,0.492h-2.568
		v8.562c-0.164,0.055-0.347,0.091-0.583,0.091c-0.237,0-0.438-0.036-0.602-0.091v-8.562h-1.64c-0.036-0.092-0.055-0.328-0.055-0.438
		c0-0.091,0.019-0.292,0.055-0.383l1.64-0.109v-0.31c0-1.294,0.219-2.187,0.966-2.934c0.528-0.528,1.312-0.783,2.204-0.783
		c0.474,0,1.002,0.109,1.33,0.237c0.037,0.091,0.055,0.218,0.055,0.346C160.15,188.738,160.133,188.957,160.096,189.048z"/>
	<path fill="#333333" d="M165.438,192.947c-1.058,0.146-2.205,0.528-3.062,1.184v7.434c-0.182,0.055-0.4,0.091-0.601,0.091
		c-0.201,0-0.401-0.036-0.583-0.091v-9.492c0.109-0.036,0.272-0.073,0.455-0.073c0.146,0,0.347,0.037,0.492,0.073l0.091,1.166h0.019
		c0.783-0.674,2.149-1.239,3.188-1.348c0.036,0.108,0.072,0.31,0.072,0.474C165.51,192.546,165.474,192.783,165.438,192.947z"/>
	<path fill="#333333" d="M170.395,201.747c-2.387,0-3.917-1.641-3.917-4.92s1.548-4.937,3.935-4.937s3.899,1.621,3.899,4.9
		S172.781,201.747,170.395,201.747z M170.412,192.783c-1.749,0-2.696,1.348-2.696,4.026c0,2.678,0.93,4.044,2.679,4.044
		s2.678-1.366,2.678-4.044C173.072,194.131,172.161,192.783,170.412,192.783z"/>
	<path fill="#333333" d="M189.638,201.583c-0.183,0.036-0.364,0.072-0.547,0.072c-0.219,0-0.419-0.055-0.638-0.091v-5.757
		c0-2.005-0.51-2.915-2.204-2.915c-0.875,0-2.041,0.455-2.77,0.983c0.146,0.51,0.183,1.075,0.183,1.64v6.049
		c-0.183,0.055-0.365,0.091-0.547,0.091c-0.237,0-0.456-0.036-0.638-0.091v-5.757c0-2.005-0.456-2.915-2.15-2.915
		c-0.91,0-1.985,0.51-2.696,1.057v7.615c-0.2,0.055-0.437,0.091-0.655,0.091c-0.183,0-0.383-0.036-0.528-0.091v-9.492
		c0.091-0.036,0.291-0.073,0.491-0.073c0.164,0,0.364,0.037,0.492,0.073l0.091,0.947h0.019c1.002-0.819,2.149-1.129,3.079-1.129
		c0.929,0,1.822,0.31,2.351,0.947c0.072,0.072,0.127,0.164,0.182,0.255c0.966-0.783,2.205-1.202,3.389-1.202
		c0.93,0,1.877,0.31,2.405,0.947c0.583,0.692,0.692,1.694,0.692,2.678V201.583z"/>
	<path fill="#333333" d="M199.812,201.747c-2.387,0-3.917-1.641-3.917-4.92s1.548-4.937,3.935-4.937s3.899,1.621,3.899,4.9
		S202.198,201.747,199.812,201.747z M199.829,192.783c-1.749,0-2.696,1.348-2.696,4.026c0,2.678,0.93,4.044,2.679,4.044
		s2.678-1.366,2.678-4.044C202.489,194.131,201.578,192.783,199.829,192.783z"/>
	<path fill="#333333" d="M212.842,197.957c0,2.77-1.148,3.79-3.553,3.79c-2.46,0-3.498-1.021-3.498-3.699v-5.976
		c0.164-0.055,0.382-0.091,0.583-0.091c0.255,0,0.455,0.055,0.601,0.091v5.83c0,1.768,0.273,2.934,2.332,2.934
		c1.932,0,2.351-1.13,2.351-2.97v-5.794c0.146-0.055,0.4-0.091,0.602-0.091c0.2,0,0.419,0.036,0.583,0.091V197.957z"/>
	<path fill="#333333" d="M219.678,192.947c-1.058,0.146-2.205,0.528-3.062,1.184v7.434c-0.182,0.055-0.4,0.091-0.601,0.091
		c-0.201,0-0.401-0.036-0.583-0.091v-9.492c0.109-0.036,0.272-0.073,0.455-0.073c0.146,0,0.347,0.037,0.492,0.073l0.091,1.166h0.019
		c0.783-0.674,2.149-1.239,3.188-1.348c0.036,0.108,0.072,0.31,0.072,0.474C219.75,192.546,219.714,192.783,219.678,192.947z"/>
</g>
<g>
	<path fill="#333333" d="M228.12,201.747c-0.911,0-1.858-0.164-2.515-0.42c-0.055-0.127-0.091-0.346-0.091-0.51
		c0-0.109,0.036-0.383,0.073-0.492c0.674,0.273,1.64,0.492,2.44,0.492c1.385,0,2.241-0.583,2.241-1.73
		c0-1.039-0.528-1.403-1.968-1.932c-2.004-0.729-2.659-1.566-2.659-2.806c0-1.676,1.384-2.459,3.17-2.459
		c0.601,0,1.385,0.108,1.84,0.255c0.055,0.164,0.073,0.328,0.073,0.437c0,0.146-0.037,0.401-0.073,0.528
		c-0.602-0.182-1.239-0.291-1.858-0.291c-1.294,0-2.077,0.492-2.077,1.494c0,0.874,0.492,1.293,1.986,1.858
		c1.366,0.51,2.623,1.021,2.623,2.86C231.326,200.891,229.924,201.747,228.12,201.747z"/>
	<path fill="#333333" d="M238.325,201.474c-0.474,0.164-1.184,0.273-1.712,0.273c-1.804,0-2.66-0.856-2.66-2.879v-5.866h-1.64
		c-0.036-0.092-0.055-0.311-0.055-0.42c0-0.091,0.019-0.31,0.055-0.4l1.64-0.109v-2.478c0.146-0.055,0.383-0.091,0.583-0.091
		s0.455,0.036,0.602,0.091v2.478h2.678c0.036,0.091,0.073,0.364,0.073,0.456c0,0.127-0.037,0.346-0.073,0.474h-2.678v5.757
		c0,1.439,0.419,2.04,1.548,2.04c0.62,0,1.221-0.091,1.64-0.218c0.037,0.091,0.073,0.31,0.073,0.437
		C238.398,201.182,238.38,201.31,238.325,201.474z"/>
	<path fill="#333333" d="M247,197.957c0,2.77-1.148,3.79-3.553,3.79c-2.46,0-3.498-1.021-3.498-3.699v-5.976
		c0.164-0.055,0.382-0.091,0.583-0.091c0.255,0,0.455,0.055,0.601,0.091v5.83c0,1.768,0.273,2.934,2.332,2.934
		c1.932,0,2.351-1.13,2.351-2.97v-5.794c0.146-0.055,0.4-0.091,0.602-0.091c0.2,0,0.419,0.036,0.583,0.091V197.957z"/>
	<path fill="#333333" d="M256.149,201.655c-0.164,0-0.364-0.055-0.474-0.091l-0.109-1.093h-0.018
		c-0.784,0.819-1.713,1.275-2.752,1.275c-2.514,0-3.716-2.096-3.716-4.646c0-2.532,1.074-5.21,3.972-5.21
		c0.91,0,1.749,0.31,2.423,0.783v-4.409c0.164-0.055,0.383-0.091,0.583-0.091c0.219,0,0.438,0.055,0.602,0.091v13.3
		C256.532,201.619,256.35,201.655,256.149,201.655z M255.476,193.676c-0.656-0.547-1.494-0.82-2.351-0.82
		c-2.113,0-2.823,2.077-2.823,4.19c0,1.622,0.51,3.735,2.55,3.735c0.984,0,1.986-0.492,2.624-1.257V193.676z"/>
	<path fill="#333333" d="M266.083,197.138h-6.104c0.073,2.095,1.057,3.68,3.334,3.68c0.82,0,1.585-0.109,2.259-0.273
		c0.037,0.092,0.073,0.273,0.073,0.383c0,0.183-0.036,0.346-0.091,0.474c-0.711,0.219-1.604,0.347-2.351,0.347
		c-1.439,0-2.532-0.456-3.206-1.185c-0.802-0.875-1.221-2.187-1.221-3.698c0-2.642,1.33-4.974,3.989-4.974
		c2.387,0,3.334,1.967,3.334,4.372C266.101,196.536,266.101,196.864,266.083,197.138z M264.917,196.263
		c0-1.676-0.183-3.479-2.205-3.479c-1.767,0-2.623,1.621-2.732,3.479H264.917z"/>
	<path fill="#333333" d="M275.561,201.583c-0.146,0.036-0.364,0.072-0.583,0.072c-0.182,0-0.419-0.036-0.602-0.091v-5.775
		c0-0.875-0.108-1.549-0.364-2.022c-0.31-0.583-0.893-0.874-1.84-0.874c-0.911,0-2.004,0.51-2.715,1.057v7.615
		c-0.2,0.055-0.4,0.091-0.619,0.091c-0.183,0-0.4-0.036-0.564-0.091v-9.492c0.127-0.055,0.346-0.073,0.474-0.073
		c0.182,0,0.4,0.019,0.51,0.073l0.091,0.947h0.019c1.002-0.819,2.149-1.129,3.079-1.129c0.929,0,1.895,0.31,2.423,0.947
		c0.583,0.692,0.692,1.694,0.692,2.678V201.583z"/>
	<path fill="#333333" d="M283.216,201.474c-0.474,0.164-1.184,0.273-1.712,0.273c-1.804,0-2.66-0.856-2.66-2.879v-5.866h-1.64
		c-0.036-0.092-0.055-0.311-0.055-0.42c0-0.091,0.019-0.31,0.055-0.4l1.64-0.109v-2.478c0.146-0.055,0.383-0.091,0.583-0.091
		s0.455,0.036,0.602,0.091v2.478h2.678c0.036,0.091,0.073,0.364,0.073,0.456c0,0.127-0.037,0.346-0.073,0.474h-2.678v5.757
		c0,1.439,0.419,2.04,1.548,2.04c0.62,0,1.221-0.091,1.64-0.218c0.037,0.091,0.073,0.31,0.073,0.437
		C283.289,201.182,283.271,201.31,283.216,201.474z"/>
	<path fill="#333333" d="M287.264,201.747c-0.911,0-1.858-0.164-2.515-0.42c-0.055-0.127-0.091-0.346-0.091-0.51
		c0-0.109,0.036-0.383,0.073-0.492c0.674,0.273,1.64,0.492,2.44,0.492c1.385,0,2.241-0.583,2.241-1.73
		c0-1.039-0.528-1.403-1.968-1.932c-2.004-0.729-2.66-1.566-2.66-2.806c0-1.676,1.385-2.459,3.171-2.459
		c0.601,0,1.385,0.108,1.84,0.255c0.055,0.164,0.073,0.328,0.073,0.437c0,0.146-0.037,0.401-0.073,0.528
		c-0.602-0.182-1.239-0.291-1.858-0.291c-1.294,0-2.077,0.492-2.077,1.494c0,0.874,0.492,1.293,1.986,1.858
		c1.366,0.51,2.623,1.021,2.623,2.86C290.47,200.891,289.067,201.747,287.264,201.747z"/>
</g>
<g>
	<path fill="#66A827" d="M51.446,176.805c-1.733,0.347-4.852,0.578-8.202,0.578c-3.235,0-6.123-0.231-8.202-0.578v-59.726
		l-16.405,10.859c-3.928-3.582-6.7-8.433-7.74-12.592L38.045,98.71c1.618-0.347,4.968-0.578,6.701-0.578
		c1.964,0,5.545,0.346,6.7,0.578V176.805z"/>
	<path fill="#66A827" d="M86.216,177.96c-18.484,0-27.495-13.632-27.495-40.203c0-26.801,9.357-40.202,27.841-40.202
		c18.368,0,27.379,13.401,27.379,40.202C113.942,164.328,104.584,177.96,86.216,177.96z M86.332,111.071
		c-7.394,0-10.628,6.816-10.628,26.686c0,19.524,3.235,26.686,10.628,26.686s10.628-7.162,10.628-26.686
		C96.959,117.887,93.725,111.071,86.332,111.071z"/>
	<path fill="#66A827" d="M147.325,177.96c-18.484,0-27.495-13.632-27.495-40.203c0-26.801,9.357-40.202,27.841-40.202
		c18.369,0,27.379,13.401,27.379,40.202C175.051,164.328,165.693,177.96,147.325,177.96z M147.44,111.071
		c-7.394,0-10.628,6.816-10.628,26.686c0,19.524,3.235,26.686,10.628,26.686s10.628-7.162,10.628-26.686
		C158.068,117.887,154.834,111.071,147.44,111.071z"/>
	<path fill="#66A827" d="M178.051,115.461c0-9.935,4.505-18.484,17.328-18.484c12.939,0,17.329,8.549,17.329,18.484
		c0,9.704-4.39,18.715-17.329,18.715C182.556,134.176,178.051,125.166,178.051,115.461z M202.657,178.076
		c-4.968-1.387-10.051-4.737-12.592-8.318l47.364-74.282c4.737,1.271,9.82,4.159,12.708,7.74L202.657,178.076z M199.307,115.692
		c0-4.968-1.039-8.087-3.928-8.087c-2.888,0-3.928,3.119-3.928,8.087c0,4.967,1.155,7.855,3.928,7.855
		C198.152,123.548,199.307,120.66,199.307,115.692z M226.108,159.822c0-9.935,4.506-18.483,17.329-18.483
		c12.938,0,17.328,8.549,17.328,18.483c0,9.705-4.39,18.715-17.328,18.715C230.614,178.537,226.108,169.527,226.108,159.822z
		 M247.365,160.054c0-4.968-1.04-8.087-3.928-8.087c-2.889,0-3.928,3.119-3.928,8.087s1.155,7.855,3.928,7.855
		S247.365,165.021,247.365,160.054z"/>
</g>
<g>
	<path fill="#66A827" d="M21.702,223.853c0,1.099,0.025,2.351,0.025,3.704c-0.409,0.103-1.098,0.128-1.532,0.128
		c-0.485,0-1.124-0.052-1.533-0.128c-0.051-0.307-0.102-0.843-0.128-1.175h-0.051c-0.869,0.894-2.35,1.431-3.704,1.431
		c-2.554,0-4.393-1.584-4.393-4.215c0-4.087,3.627-4.776,6.667-4.776c0.205,0,0.69,0.025,1.099,0.051
		c0-0.153-0.026-0.485-0.051-0.613c-0.179-1.047-0.869-1.481-2.35-1.481c-1.149,0-2.759,0.229-3.984,0.536
		c-0.128-0.357-0.205-0.971-0.205-1.43c0-0.384,0.051-0.971,0.153-1.227c1.43-0.435,3.193-0.664,4.649-0.664
		c3.193,0,5.338,1.481,5.338,4.802V223.853z M18.177,221.324c-0.307-0.025-0.715-0.051-1.073-0.051
		c-2.299,0-3.193,0.919-3.193,2.068c0,0.996,0.664,1.687,1.813,1.687c0.843,0,1.788-0.409,2.452-0.997V221.324z"/>
	<path fill="#66A827" d="M33.424,215.679c0,0.562-0.077,1.176-0.255,1.712c-0.843-0.332-1.941-0.536-2.989-0.536
		c-1.992,0-3.346,1.276-3.346,4.138c0,2.503,1.149,3.959,3.372,3.959c1.149,0,2.248-0.204,3.065-0.485
		c0.153,0.562,0.23,1.252,0.23,1.788c0,0.357,0,0.613-0.025,0.843c-1.022,0.46-2.375,0.716-3.653,0.716
		c-4.419,0-6.616-2.58-6.616-6.77c0-4.342,2.299-7.05,6.769-7.05c1.251,0,2.478,0.256,3.346,0.664
		C33.399,214.938,33.424,215.296,33.424,215.679z"/>
	<path fill="#66A827" d="M42.797,216.956c-1.328,0.204-2.759,0.664-4.036,1.328v9.272c-0.357,0.076-1.124,0.128-1.737,0.128
		c-0.613,0-1.507-0.052-1.788-0.128v-13.308c0.383-0.052,1.022-0.128,1.533-0.128c0.434,0,1.124,0.051,1.481,0.128l0.205,1.635
		c0.945-0.844,2.656-1.763,4.317-1.891c0.051,0.204,0.102,0.945,0.102,1.481C42.874,215.985,42.848,216.599,42.797,216.956z"/>
	<path fill="#66A827" d="M49.386,227.812c-3.857,0-6.309-2.479-6.309-6.871c0-4.368,2.427-6.948,6.309-6.948
		c3.883,0,6.309,2.555,6.309,6.922C55.695,225.283,53.269,227.812,49.386,227.812z M49.386,216.752c-1.66,0-2.682,1.124-2.682,4.163
		c0,3.04,1.022,4.139,2.682,4.139s2.682-1.099,2.682-4.139C52.068,217.851,51.046,216.752,49.386,216.752z"/>
	<path fill="#66A827" d="M61.159,227.812c-1.507,0-3.09-0.23-4.316-0.639c-0.077-0.384-0.103-0.869-0.103-1.38
		c0-0.408,0.103-0.996,0.205-1.354c1.175,0.408,2.861,0.689,3.857,0.689c1.379,0,2.171-0.46,2.171-1.404
		c0-0.817-0.639-1.201-2.325-1.737c-2.682-0.843-3.934-2.095-3.934-4.036c0-2.886,2.657-3.959,5.186-3.959
		c1.175,0,2.478,0.204,3.372,0.485c0.102,0.383,0.153,0.92,0.153,1.226c0,0.333-0.103,1.022-0.23,1.456
		c-0.869-0.255-2.069-0.459-3.065-0.459c-1.226,0-2.069,0.306-2.069,1.072c0,0.817,0.945,1.149,2.427,1.635
		c2.58,0.843,3.806,1.916,3.806,3.934C66.293,226.458,63.791,227.812,61.159,227.812z"/>
	<path fill="#66A827" d="M71.656,227.812c-1.507,0-3.091-0.23-4.317-0.639c-0.077-0.384-0.103-0.869-0.103-1.38
		c0-0.408,0.103-0.996,0.205-1.354c1.175,0.408,2.861,0.689,3.857,0.689c1.379,0,2.171-0.46,2.171-1.404
		c0-0.817-0.639-1.201-2.325-1.737c-2.682-0.843-3.934-2.095-3.934-4.036c0-2.886,2.657-3.959,5.186-3.959
		c1.175,0,2.478,0.204,3.372,0.485c0.102,0.383,0.153,0.92,0.153,1.226c0,0.333-0.103,1.022-0.23,1.456
		c-0.869-0.255-2.069-0.459-3.065-0.459c-1.226,0-2.069,0.306-2.069,1.072c0,0.817,0.945,1.149,2.427,1.635
		c2.58,0.843,3.806,1.916,3.806,3.934C76.79,226.458,74.287,227.812,71.656,227.812z"/>
	<path fill="#66A827" d="M87.746,227.812c-1.66,0-3.652-0.23-4.878-0.844c-0.077-0.255-0.128-0.817-0.128-1.149
		c0-0.536,0.077-1.2,0.205-1.736c1.379,0.536,2.988,0.817,4.266,0.817c2.094,0,3.27-0.971,3.27-2.58
		c0-1.737-1.047-2.427-2.989-2.427h-1.405c-0.077-0.281-0.153-0.843-0.153-1.456c0-0.511,0.102-1.124,0.179-1.354h1.329
		c1.762,0,2.58-0.945,2.58-2.273c0-1.252-0.919-1.864-2.375-1.864c-1.303,0-2.835,0.332-4.112,0.868
		c-0.128-0.435-0.23-1.149-0.23-1.712c0-0.383,0.051-0.97,0.128-1.2c1.098-0.485,3.116-0.868,4.828-0.868
		c2.988,0,5.492,1.481,5.492,4.521c0,1.687-0.767,3.091-2.222,3.755v0.052c1.686,0.639,2.708,2.171,2.708,3.934
		C94.234,225.947,91.271,227.812,87.746,227.812z"/>
	<path fill="#66A827" d="M110.707,215.679c0,0.562-0.077,1.176-0.255,1.712c-0.843-0.332-1.941-0.536-2.989-0.536
		c-1.992,0-3.346,1.276-3.346,4.138c0,2.503,1.149,3.959,3.372,3.959c1.149,0,2.248-0.204,3.065-0.485
		c0.153,0.562,0.23,1.252,0.23,1.788c0,0.357,0,0.613-0.025,0.843c-1.022,0.46-2.375,0.716-3.653,0.716
		c-4.419,0-6.616-2.58-6.616-6.77c0-4.342,2.299-7.05,6.769-7.05c1.251,0,2.478,0.256,3.346,0.664
		C110.681,214.938,110.707,215.296,110.707,215.679z"/>
	<path fill="#66A827" d="M117.55,227.812c-3.857,0-6.309-2.479-6.309-6.871c0-4.368,2.427-6.948,6.309-6.948
		c3.883,0,6.309,2.555,6.309,6.922C123.859,225.283,121.433,227.812,117.55,227.812z M117.55,216.752
		c-1.66,0-2.682,1.124-2.682,4.163c0,3.04,1.022,4.139,2.682,4.139c1.661,0,2.682-1.099,2.682-4.139
		C120.232,217.851,119.211,216.752,117.55,216.752z"/>
	<path fill="#66A827" d="M137.089,227.557c-0.408,0.103-1.277,0.128-1.686,0.128c-0.434,0-1.431-0.052-1.839-0.128v-8.735
		c0-1.38-0.715-1.967-1.864-1.967c-0.92,0-1.967,0.332-2.785,0.843v9.859c-0.587,0.103-1.405,0.128-1.864,0.128
		c-0.409,0-1.149-0.025-1.661-0.128v-13.308c0.332-0.077,1.149-0.128,1.533-0.128c0.357,0,1.099,0.051,1.481,0.128l0.179,1.175
		c1.149-0.843,2.81-1.431,4.292-1.431c2.81,0,4.214,1.737,4.214,4.648V227.557z"/>
	<path fill="#66A827" d="M143.269,227.812c-1.507,0-3.09-0.23-4.316-0.639c-0.077-0.384-0.103-0.869-0.103-1.38
		c0-0.408,0.103-0.996,0.205-1.354c1.175,0.408,2.861,0.689,3.857,0.689c1.379,0,2.171-0.46,2.171-1.404
		c0-0.817-0.639-1.201-2.325-1.737c-2.682-0.843-3.934-2.095-3.934-4.036c0-2.886,2.657-3.959,5.186-3.959
		c1.175,0,2.478,0.204,3.372,0.485c0.102,0.383,0.153,0.92,0.153,1.226c0,0.333-0.103,1.022-0.23,1.456
		c-0.869-0.255-2.069-0.459-3.065-0.459c-1.226,0-2.069,0.306-2.069,1.072c0,0.817,0.945,1.149,2.427,1.635
		c2.58,0.843,3.806,1.916,3.806,3.934C148.403,226.458,145.9,227.812,143.269,227.812z"/>
	<path fill="#66A827" d="M161.02,222.142h-8.071c0.051,1.66,1.2,2.887,3.423,2.887c1.2,0,2.427-0.153,3.474-0.435
		c0.153,0.689,0.256,1.456,0.256,2.146c0,0.103,0,0.229-0.026,0.511c-1.303,0.383-2.656,0.562-3.984,0.562
		c-4.854,0-6.871-2.784-6.871-6.846c0-3.551,1.992-6.974,6.31-6.974c4.087,0,5.568,3.014,5.568,6.335
		C161.097,220.788,161.097,221.478,161.02,222.142z M157.571,219.612c0-1.608-0.435-2.963-2.095-2.963
		c-1.583,0-2.427,1.252-2.528,2.963H157.571z"/>
	<path fill="#66A827" d="M172.078,215.679c0,0.562-0.077,1.176-0.256,1.712c-0.843-0.332-1.941-0.536-2.988-0.536
		c-1.993,0-3.347,1.276-3.347,4.138c0,2.503,1.149,3.959,3.372,3.959c1.149,0,2.248-0.204,3.065-0.485
		c0.153,0.562,0.229,1.252,0.229,1.788c0,0.357,0,0.613-0.025,0.843c-1.021,0.46-2.376,0.716-3.653,0.716
		c-4.419,0-6.615-2.58-6.615-6.77c0-4.342,2.299-7.05,6.769-7.05c1.252,0,2.479,0.256,3.347,0.664
		C172.052,214.938,172.078,215.296,172.078,215.679z"/>
	<path fill="#66A827" d="M185.282,222.423c0,3.806-1.788,5.39-5.772,5.39c-3.883,0-5.671-1.584-5.671-5.39v-8.174
		c0.358-0.052,1.048-0.128,1.737-0.128c0.613,0,1.379,0.051,1.788,0.128v8.147c0,1.993,0.588,2.708,2.196,2.708
		c1.635,0,2.197-0.715,2.197-2.708v-8.147c0.357-0.077,1.149-0.128,1.788-0.128s1.481,0.076,1.736,0.128V222.423z"/>
	<path fill="#66A827" d="M195.957,227.301c-0.766,0.307-1.686,0.512-3.167,0.512c-2.887,0-4.317-1.405-4.317-4.215v-6.718h-2.196
		c-0.103-0.384-0.179-1.022-0.179-1.354c0-0.306,0.076-0.868,0.153-1.123l2.222-0.153v-3.423c0.281-0.052,1.176-0.103,1.763-0.103
		c0.639,0,1.431,0.051,1.763,0.103v3.423h3.679c0.102,0.357,0.152,0.868,0.152,1.149c0,0.306-0.025,1.124-0.127,1.481h-3.704v6.207
		c0,1.276,0.511,1.839,1.763,1.839c0.689,0,1.532-0.103,2.12-0.307c0.102,0.332,0.229,0.971,0.229,1.559
		C196.11,226.483,196.06,227.021,195.957,227.301z"/>
	<path fill="#66A827" d="M199.507,212.793c-1.073,0-1.941-0.869-1.941-1.941c0-1.073,0.868-1.941,1.941-1.941
		c1.072,0,1.94,0.868,1.94,1.941C201.447,211.924,200.579,212.793,199.507,212.793z M201.269,227.557
		c-0.459,0.103-1.404,0.128-1.813,0.128c-0.613,0-1.277-0.052-1.711-0.128v-13.308c0.562-0.077,1.251-0.128,1.711-0.128
		c0.613,0,1.252,0.051,1.813,0.128V227.557z"/>
	<path fill="#66A827" d="M214.32,218.157l-3.831,9.399c-0.256,0.051-0.92,0.128-1.584,0.128c-0.689,0-1.431-0.077-1.736-0.128
		l-3.679-9.451c-0.485-1.277-0.715-2.528-0.715-3.856c0.46-0.077,1.098-0.128,1.635-0.128c0.74,0,1.251,0.051,1.66,0.128
		c0,0.944,0.128,1.992,0.46,2.988l2.35,6.743h0.051l2.427-6.743c0.332-0.996,0.46-1.865,0.46-2.988
		c0.357-0.052,1.124-0.128,1.686-0.128c0.562,0,1.149,0.051,1.559,0.128C215.062,215.679,214.806,216.981,214.32,218.157z"/>
	<path fill="#66A827" d="M227.269,222.142h-8.071c0.051,1.66,1.2,2.887,3.423,2.887c1.2,0,2.427-0.153,3.474-0.435
		c0.153,0.689,0.256,1.456,0.256,2.146c0,0.103,0,0.229-0.026,0.511c-1.303,0.383-2.656,0.562-3.984,0.562
		c-4.854,0-6.871-2.784-6.871-6.846c0-3.551,1.992-6.974,6.31-6.974c4.087,0,5.568,3.014,5.568,6.335
		C227.346,220.788,227.346,221.478,227.269,222.142z M223.82,219.612c0-1.608-0.435-2.963-2.095-2.963
		c-1.583,0-2.427,1.252-2.528,2.963H223.82z"/>
	<path fill="#66A827" d="M245.07,225.207c0,1.94-0.103,4.087-1.099,5.772c-1.2,2.018-3.218,2.86-5.491,2.86
		c-1.277,0-2.733-0.179-3.908-0.536c-0.077-0.229-0.128-0.843-0.128-1.226c0-0.307,0.103-1.048,0.179-1.354
		c1.021,0.281,2.401,0.46,3.346,0.46c1.533,0,2.452-0.536,3.015-1.558c0.511-0.92,0.587-1.941,0.587-2.938
		c-0.894,0.689-2.068,1.124-3.167,1.124c-3.346,0-4.7-1.737-4.7-5.032v-8.531c0.409-0.103,1.277-0.128,1.687-0.128
		c0.434,0,1.43,0.051,1.839,0.128v8.327c0,1.635,0.588,2.35,2.043,2.35c0.92,0,1.737-0.383,2.273-0.895v-9.782
		c0.588-0.103,1.405-0.128,1.865-0.128c0.408,0,1.149,0.025,1.66,0.128V225.207z"/>
	<path fill="#66A827" d="M258.401,222.142h-8.071c0.051,1.66,1.2,2.887,3.423,2.887c1.2,0,2.427-0.153,3.474-0.435
		c0.153,0.689,0.256,1.456,0.256,2.146c0,0.103,0,0.229-0.026,0.511c-1.303,0.383-2.656,0.562-3.984,0.562
		c-4.854,0-6.871-2.784-6.871-6.846c0-3.551,1.992-6.974,6.31-6.974c4.087,0,5.568,3.014,5.568,6.335
		C258.479,220.788,258.479,221.478,258.401,222.142z M254.953,219.612c0-1.608-0.435-2.963-2.095-2.963
		c-1.583,0-2.427,1.252-2.528,2.963H254.953z"/>
	<path fill="#66A827" d="M270.609,223.853c0,1.099,0.025,2.351,0.025,3.704c-0.409,0.103-1.099,0.128-1.533,0.128
		c-0.485,0-1.124-0.052-1.532-0.128c-0.051-0.307-0.103-0.843-0.128-1.175h-0.051c-0.868,0.894-2.351,1.431-3.704,1.431
		c-2.554,0-4.394-1.584-4.394-4.215c0-4.087,3.627-4.776,6.667-4.776c0.204,0,0.689,0.025,1.099,0.051
		c0-0.153-0.025-0.485-0.051-0.613c-0.18-1.047-0.869-1.481-2.351-1.481c-1.149,0-2.759,0.229-3.984,0.536
		c-0.128-0.357-0.204-0.971-0.204-1.43c0-0.384,0.051-0.971,0.152-1.227c1.431-0.435,3.193-0.664,4.649-0.664
		c3.192,0,5.339,1.481,5.339,4.802V223.853z M267.084,221.324c-0.307-0.025-0.715-0.051-1.073-0.051
		c-2.299,0-3.192,0.919-3.192,2.068c0,0.996,0.664,1.687,1.813,1.687c0.843,0,1.788-0.409,2.452-0.997V221.324z"/>
	<path fill="#66A827" d="M280.416,216.956c-1.328,0.204-2.759,0.664-4.036,1.328v9.272c-0.357,0.076-1.124,0.128-1.736,0.128
		c-0.613,0-1.508-0.052-1.788-0.128v-13.308c0.383-0.052,1.021-0.128,1.532-0.128c0.435,0,1.124,0.051,1.481,0.128l0.204,1.635
		c0.945-0.844,2.657-1.763,4.317-1.891c0.051,0.204,0.102,0.945,0.102,1.481C280.492,215.985,280.467,216.599,280.416,216.956z"/>
	<path fill="#66A827" d="M285.447,227.812c-1.507,0-3.091-0.23-4.317-0.639c-0.076-0.384-0.102-0.869-0.102-1.38
		c0-0.408,0.102-0.996,0.204-1.354c1.175,0.408,2.86,0.689,3.857,0.689c1.379,0,2.171-0.46,2.171-1.404
		c0-0.817-0.639-1.201-2.324-1.737c-2.683-0.843-3.934-2.095-3.934-4.036c0-2.886,2.656-3.959,5.185-3.959
		c1.175,0,2.478,0.204,3.372,0.485c0.103,0.383,0.153,0.92,0.153,1.226c0,0.333-0.103,1.022-0.23,1.456
		c-0.868-0.255-2.068-0.459-3.064-0.459c-1.227,0-2.069,0.306-2.069,1.072c0,0.817,0.945,1.149,2.427,1.635
		c2.58,0.843,3.806,1.916,3.806,3.934C290.581,226.458,288.078,227.812,285.447,227.812z"/>
</g>
<g>
	<path fill="#333333" d="M13.584,254.495c-2.024-2.024-3.063-4.832-3.063-7.422c0-2.862,1.094-5.488,3.063-7.513
		c0.2,0.055,0.401,0.164,0.547,0.311c-1.696,2.17-2.443,4.686-2.443,7.166c0,2.461,0.748,4.905,2.443,7.147
		C13.985,254.331,13.784,254.44,13.584,254.495z"/>
	<path fill="#333333" d="M19.963,248.806c-0.894,1.039-1.732,1.933-2.443,2.698h5.616c0.055,0.164,0.055,0.365,0.055,0.475
		c0,0.164-0.018,0.328-0.055,0.492h-6.875c-0.109-0.31-0.146-0.511-0.146-0.711c0-0.128,0-0.183,0.018-0.292
		c1.058-1.148,2.316-2.517,3.045-3.337c2.005-2.261,2.771-3.629,2.771-4.978c0-1.532-0.875-2.298-2.298-2.298
		c-0.966,0-2.097,0.292-2.99,0.693c-0.037-0.109-0.055-0.365-0.055-0.475c0-0.164,0.037-0.328,0.091-0.474
		c0.729-0.328,2.006-0.639,3.118-0.639c2.042,0,3.446,1.131,3.446,3.082C23.264,244.685,22.389,245.997,19.963,248.806z"/>
	<path fill="#333333" d="M28.913,252.653c-2.461,0-3.829-1.823-3.829-6.346s1.514-6.346,3.902-6.346
		c2.425,0,3.829,1.823,3.829,6.346S31.301,252.653,28.913,252.653z M28.986,240.855c-1.824,0-2.589,1.86-2.589,5.452
		s0.711,5.452,2.535,5.452c1.823,0,2.571-1.86,2.571-5.452S30.809,240.855,28.986,240.855z"/>
	<path fill="#333333" d="M39.704,252.471c-0.146,0.055-0.419,0.091-0.62,0.091s-0.474-0.036-0.62-0.091v-11.087l-3.191,2.024
		c-0.182-0.164-0.401-0.492-0.474-0.802l3.902-2.48c0.127-0.036,0.328-0.073,0.474-0.073c0.182,0,0.383,0.037,0.529,0.092V252.471z"
		/>
	<path fill="#333333" d="M47.212,252.653c-0.948,0-1.896-0.128-2.681-0.42c-0.037-0.091-0.055-0.273-0.055-0.419
		c0-0.146,0.018-0.311,0.073-0.475c0.803,0.256,1.678,0.401,2.517,0.401c1.896,0,2.808-1.186,2.808-2.917
		c0-2.152-1.131-2.882-3.264-2.882h-1.823v-5.798h5.78c0.055,0.109,0.091,0.31,0.091,0.438c0,0.146-0.037,0.383-0.091,0.528h-4.595
		v3.939h0.948c2.498,0,4.267,0.966,4.267,3.683C51.188,251.158,49.546,252.653,47.212,252.653z"/>
	<path fill="#333333" d="M56.398,247.237c0.037,0.092,0.091,0.328,0.091,0.475c0,0.146-0.036,0.346-0.091,0.492h-3.556
		c-0.055-0.146-0.091-0.347-0.091-0.492c0-0.146,0.055-0.383,0.091-0.475H56.398z"/>
	<path fill="#333333" d="M61.666,248.806c-0.894,1.039-1.732,1.933-2.443,2.698h5.616c0.055,0.164,0.055,0.365,0.055,0.475
		c0,0.164-0.018,0.328-0.055,0.492h-6.874c-0.11-0.31-0.146-0.511-0.146-0.711c0-0.128,0-0.183,0.018-0.292
		c1.058-1.148,2.316-2.517,3.045-3.337c2.006-2.261,2.772-3.629,2.772-4.978c0-1.532-0.875-2.298-2.298-2.298
		c-0.966,0-2.097,0.292-2.99,0.693c-0.037-0.109-0.055-0.365-0.055-0.475c0-0.164,0.037-0.328,0.091-0.474
		c0.729-0.328,2.006-0.639,3.118-0.639c2.042,0,3.446,1.131,3.446,3.082C64.967,244.685,64.091,245.997,61.666,248.806z"/>
	<path fill="#333333" d="M70.597,252.653c-2.461,0-3.829-1.823-3.829-6.346s1.514-6.346,3.902-6.346
		c2.425,0,3.829,1.823,3.829,6.346S72.986,252.653,70.597,252.653z M70.67,240.855c-1.824,0-2.589,1.86-2.589,5.452
		s0.711,5.452,2.535,5.452c1.823,0,2.571-1.86,2.571-5.452S72.494,240.855,70.67,240.855z"/>
	<path fill="#333333" d="M81.406,252.471c-0.146,0.055-0.419,0.091-0.62,0.091s-0.474-0.036-0.62-0.091v-11.087l-3.191,2.024
		c-0.182-0.164-0.401-0.492-0.474-0.802l3.902-2.48c0.127-0.036,0.328-0.073,0.474-0.073c0.182,0,0.383,0.037,0.529,0.092V252.471z"
		/>
	<path fill="#333333" d="M93.072,241.11l-5.16,11.36c-0.146,0.055-0.419,0.091-0.657,0.091c-0.219,0-0.456-0.036-0.62-0.091
		l5.306-11.36h-6.2c-0.073-0.164-0.109-0.346-0.109-0.51c0-0.146,0.036-0.328,0.091-0.456h7.349
		c0.037,0.109,0.073,0.328,0.073,0.438C93.145,240.782,93.127,240.965,93.072,241.11z"/>
	<path fill="#333333" d="M94.272,255.297c-0.109-0.091-0.255-0.31-0.31-0.456c0.748-0.602,1.313-1.276,1.496-2.023
		c-0.383-0.201-0.693-0.584-0.693-1.058c0-0.511,0.401-0.894,0.857-0.894c0.583,0,1.003,0.528,1.003,1.167
		C96.625,253.054,95.786,254.349,94.272,255.297z"/>
	<path fill="#333333" d="M111.391,252.471c-0.091,0.036-0.328,0.073-0.492,0.073c-0.127,0-0.31-0.037-0.456-0.073l-6.965-10.339
		v10.339c-0.127,0.055-0.365,0.091-0.565,0.091c-0.183,0-0.401-0.036-0.547-0.091v-12.326c0.146-0.055,0.383-0.092,0.547-0.092
		c0.2,0,0.383,0.037,0.51,0.092l6.856,10.156v-10.156c0.183-0.055,0.383-0.092,0.565-0.092c0.164,0,0.383,0.037,0.547,0.092V252.471
		z"/>
	<path fill="#333333" d="M117.111,252.653c-1.094,0-2.352-0.201-3.3-0.547c-0.055-0.146-0.091-0.329-0.091-0.529
		c0-0.183,0.037-0.401,0.073-0.547c0.966,0.383,2.279,0.62,3.228,0.62c1.841,0,2.808-0.82,2.808-2.334
		c0-1.331-0.711-1.933-2.06-2.426l-1.094-0.4c-1.823-0.675-2.863-1.55-2.863-3.301c0-2.042,1.623-3.228,3.92-3.228
		c0.894,0,1.805,0.128,2.625,0.347c0.055,0.109,0.073,0.292,0.073,0.456c0,0.146-0.037,0.383-0.091,0.51
		c-0.766-0.236-1.659-0.346-2.535-0.346c-1.349,0-2.717,0.474-2.717,2.188c0,1.368,0.693,1.842,2.243,2.426l0.967,0.364
		c1.677,0.639,2.753,1.495,2.753,3.282C121.05,251.559,119.409,252.653,117.111,252.653z"/>
	<path fill="#333333" d="M125.987,252.653c-1.094,0-2.352-0.201-3.3-0.547c-0.055-0.146-0.091-0.329-0.091-0.529
		c0-0.183,0.037-0.401,0.073-0.547c0.966,0.383,2.279,0.62,3.228,0.62c1.841,0,2.808-0.82,2.808-2.334
		c0-1.331-0.711-1.933-2.06-2.426l-1.094-0.4c-1.823-0.675-2.863-1.55-2.863-3.301c0-2.042,1.623-3.228,3.92-3.228
		c0.894,0,1.805,0.128,2.625,0.347c0.055,0.109,0.073,0.292,0.073,0.456c0,0.146-0.037,0.383-0.091,0.51
		c-0.766-0.236-1.659-0.346-2.535-0.346c-1.349,0-2.717,0.474-2.717,2.188c0,1.368,0.693,1.842,2.243,2.426l0.967,0.364
		c1.677,0.639,2.753,1.495,2.753,3.282C129.926,251.559,128.285,252.653,125.987,252.653z"/>
	<path fill="#333333" d="M133.441,247.037c0-2.48-0.748-4.996-2.443-7.166c0.146-0.146,0.347-0.256,0.547-0.311
		c1.969,2.024,3.063,4.65,3.063,7.513c0,2.59-1.039,5.397-3.063,7.422c-0.201-0.055-0.401-0.164-0.547-0.311
		C132.694,251.942,133.441,249.498,133.441,247.037z"/>
</g>
</svg>
