<?xml version="1.0" encoding="utf-8"?>
<!-- Generator: Adobe Illustrator 16.0.0, SVG Export Plug-In . SVG Version: 6.00 Build 0)  -->
<!DOCTYPE svg PUBLIC "-//W3C//DTD SVG 1.0//EN" "http://www.w3.org/TR/2001/REC-SVG-20010904/DTD/svg10.dtd">
<svg version="1.0" xmlns="http://www.w3.org/2000/svg" xmlns:xlink="http://www.w3.org/1999/xlink" x="0px" y="0px" width="300px"
	 height="300px" viewBox="0 0 300 300" style="enable-background:new 0 0 300 300;" xml:space="preserve">
<g id="Text" style="display:none;">
	
		<text transform="matrix(1 0 0 1 25.4805 199.4502)" style="display:inline;fill:#58595B; font-family:'FSMatthew-Light'; font-size:27.6815;">i</text>
	<text transform="matrix(1 0 0 1 31.2646 199.4502)" style="display:inline;"><tspan x="0" y="0" style="fill:#58595B; font-family:'FSMatthew-Light'; font-size:25.3747;">n the Har</tspan><tspan x="97.005" y="0" style="fill:#58595B; font-family:'FSMatthew-Light'; font-size:25.3747;">v</tspan><tspan x="108.677" y="0" style="fill:#58595B; font-family:'FSMatthew-Light'; font-size:25.3747;">a</tspan><tspan x="121.212" y="0" style="fill:#58595B; font-family:'FSMatthew-Light'; font-size:25.3747;">r</tspan><tspan x="129.027" y="0" style="fill:#58595B; font-family:'FSMatthew-Light'; font-size:25.3747;">d Business</tspan></text>
	<text transform="matrix(1 0 0 1 25.4805 227.1357)" style="display:inline;"><tspan x="0" y="0" style="fill:#58595B; font-family:'FSMatthew-Light'; font-size:25.3747;">School</tspan><tspan x="68.637" y="0" style="fill:#58595B; font-family:'FSMatthew-Light'; font-size:25.3747; letter-spacing:-1;">’</tspan><tspan x="71.758" y="0" style="fill:#58595B; font-family:'FSMatthew-Light'; font-size:25.3747;">s</tspan><tspan x="81.857" y="0" style="fill:#58595B; font-family:'FSMatthew-Light'; font-size:25.3747; letter-spacing:-1;"> </tspan><tspan x="86.322" y="0" style="fill:#58595B; font-family:'FSMatthew-Light'; font-size:25.3747;">Mic</tspan><tspan x="122.38" y="0" style="fill:#58595B; font-family:'FSMatthew-Light'; font-size:25.3747;">r</tspan><tspan x="130.195" y="0" style="fill:#58595B; font-family:'FSMatthew-Light'; font-size:25.3747;">oeconomics</tspan></text>
	<text transform="matrix(1 0 0 1 25.4805 254.8184)" style="display:inline;"><tspan x="0" y="0" style="fill:#58595B; font-family:'FSMatthew-Light'; font-size:25.3747;">of </tspan><tspan x="27.911" y="0" style="fill:#58595B; font-family:'FSMatthew-Light'; font-size:25.3747;">C</tspan><tspan x="41.562" y="0" style="fill:#58595B; font-family:'FSMatthew-Light'; font-size:25.3747;">ompetiti</tspan><tspan x="131.235" y="0" style="fill:#58595B; font-family:'FSMatthew-Light'; font-size:25.3747;">v</tspan><tspan x="143.035" y="0" style="fill:#58595B; font-family:'FSMatthew-Light'; font-size:25.3747;">eness</tspan></text>
	
		<text transform="matrix(1 0 0 1 226.6719 254.8184)" style="display:inline;fill:#58595B; font-family:'FSMatthew-Light'; font-size:25.3747;"> </text>
	<path style="display:inline;fill:#58595B;" d="M39.92,282.502c-0.202,0.076-0.534,0.126-0.887,0.126
		c-0.307,0-0.687-0.05-0.915-0.126l-1.547-4.441H29.49l-1.498,4.469c-0.178,0.049-0.583,0.099-0.863,0.099
		c-0.304,0-0.635-0.05-0.887-0.126l5.836-17.156c0.279-0.076,0.608-0.126,0.863-0.126c0.28,0,0.584,0.05,0.811,0.126L39.92,282.502z
		 M33.728,269.99c-0.254-0.685-0.559-1.676-0.786-2.563c-0.255,0.865-0.559,1.879-0.789,2.563l-2.232,6.728h6.168L33.728,269.99z
		 M59.206,269.278v13.224c-0.23,0.076-0.559,0.126-0.838,0.126s-0.583-0.05-0.813-0.126v-11.931h-5.43v11.931
		c-0.23,0.076-0.482,0.126-0.813,0.126c-0.329,0-0.608-0.05-0.838-0.126v-11.931h-5.862v11.931
		c-0.228,0.076-0.482,0.126-0.813,0.126c-0.329,0-0.608-0.05-0.835-0.126v-11.931H40.68c-0.052-0.125-0.077-0.454-0.077-0.607
		c0-0.126,0.025-0.406,0.077-0.532l2.284-0.153v-0.432c0-1.798,0.305-3.042,1.345-4.083c0.734-0.738,1.827-1.094,3.07-1.094
		c0.66,0,1.397,0.153,1.852,0.332c0.051,0.127,0.077,0.303,0.077,0.482c0,0.148-0.025,0.456-0.077,0.582
		c-0.381-0.1-1.066-0.203-1.597-0.203c-0.965,0-1.677,0.252-2.158,0.788c-0.737,0.784-0.863,1.852-0.863,3.195v0.432h5.862v-0.432
		c0-1.798,0.307-3.042,1.345-4.083c0.736-0.738,1.829-1.094,3.072-1.094c0.658,0,1.395,0.153,1.852,0.332
		c0.05,0.127,0.077,0.303,0.077,0.482c0,0.148-0.027,0.456-0.077,0.582c-0.381-0.1-1.065-0.203-1.6-0.203
		c-0.964,0-1.673,0.252-2.155,0.788c-0.737,0.784-0.863,1.852-0.863,3.195v0.432H59.206z M64.455,282.502
		c-0.277,0.076-0.557,0.126-0.863,0.126c-0.252,0-0.556-0.05-0.786-0.126v-18.526c0.23-0.05,0.506-0.126,0.838-0.126
		c0.279,0,0.583,0.05,0.811,0.126V282.502z M68.87,266.692c-0.583,0-1.065-0.509-1.065-1.117s0.482-1.091,1.065-1.091
		c0.583,0,1.093,0.482,1.093,1.091S69.454,266.692,68.87,266.692z M69.708,282.502c-0.228,0.076-0.559,0.126-0.838,0.126
		s-0.583-0.05-0.811-0.126v-13.224c0.203-0.05,0.532-0.126,0.787-0.126c0.279,0,0.66,0.05,0.862,0.126V282.502z M82.294,279.254
		c0,0.914,0,2.054,0.051,3.248c-0.178,0.076-0.457,0.126-0.685,0.126c-0.203,0-0.482-0.05-0.685-0.126
		c-0.076-0.406-0.128-0.941-0.153-1.424h-0.025c-0.863,1.067-2.385,1.677-3.884,1.677c-2.361,0-4.338-1.32-4.338-4.033
		c0-1.55,0.632-2.689,1.624-3.4c1.115-0.789,2.588-1.041,4.161-1.041c0.89,0,1.625,0.049,2.285,0.152v-0.738
		c0-2.537-1.041-3.375-3.172-3.375c-1.192,0-2.666,0.252-3.577,0.482c-0.052-0.126-0.104-0.405-0.104-0.658
		c0-0.18,0.052-0.433,0.128-0.586c1.09-0.329,2.537-0.531,3.755-0.531c3.021,0,4.618,1.37,4.618,4.465V279.254z M80.646,275.677
		c-0.734-0.104-1.496-0.154-2.156-0.154c-1.244,0-2.361,0.23-3.123,0.812c-0.685,0.509-1.065,1.32-1.065,2.361
		c0,1.852,1.191,2.739,2.842,2.739c1.37,0,2.816-0.657,3.501-1.698V275.677z M92.825,282.375c-0.659,0.227-1.648,0.38-2.385,0.38
		c-2.512,0-3.706-1.194-3.706-4.011v-8.173H84.45c-0.049-0.125-0.074-0.428-0.074-0.581c0-0.126,0.024-0.433,0.074-0.559
		l2.285-0.153v-3.45c0.203-0.076,0.534-0.127,0.813-0.127s0.633,0.051,0.838,0.127v3.45h3.73c0.05,0.127,0.102,0.509,0.102,0.636
		c0,0.175-0.051,0.482-0.102,0.657h-3.73v8.02c0,2.006,0.583,2.844,2.156,2.844c0.863,0,1.701-0.127,2.284-0.302
		c0.052,0.125,0.102,0.428,0.102,0.607C92.927,281.971,92.902,282.146,92.825,282.375z M104.091,276.334h-8.502
		c0.102,2.92,1.474,5.127,4.645,5.127c1.143,0,2.208-0.153,3.147-0.383c0.05,0.131,0.102,0.383,0.102,0.537
		c0,0.251-0.052,0.48-0.126,0.657c-0.991,0.306-2.234,0.482-3.275,0.482c-2.005,0-3.528-0.636-4.465-1.649
		c-1.117-1.217-1.701-3.045-1.701-5.149c0-3.681,1.852-6.93,5.558-6.93c3.325,0,4.645,2.74,4.645,6.092
		C104.119,275.496,104.119,275.956,104.091,276.334z M102.468,275.118c0-2.335-0.253-4.849-3.071-4.849
		c-2.462,0-3.653,2.257-3.807,4.849H102.468z M125.458,282.502c-0.128,0.05-0.457,0.1-0.685,0.1c-0.178,0-0.432-0.05-0.635-0.1
		l-9.693-14.391v14.391c-0.178,0.076-0.509,0.126-0.789,0.126c-0.252,0-0.559-0.05-0.762-0.126v-17.156
		c0.203-0.076,0.534-0.126,0.762-0.126c0.279,0,0.534,0.05,0.711,0.126l9.543,14.138v-14.138c0.252-0.076,0.532-0.126,0.786-0.126
		c0.228,0,0.531,0.05,0.761,0.126V282.502z M138.779,276.334h-8.501c0.102,2.92,1.471,5.127,4.645,5.127
		c1.142,0,2.208-0.153,3.147-0.383c0.049,0.131,0.102,0.383,0.102,0.537c0,0.251-0.052,0.48-0.128,0.657
		c-0.989,0.306-2.233,0.482-3.273,0.482c-2.005,0-3.528-0.636-4.468-1.649c-1.115-1.217-1.7-3.045-1.7-5.149
		c0-3.681,1.854-6.93,5.559-6.93c3.323,0,4.643,2.74,4.643,6.092C138.804,275.496,138.804,275.956,138.779,276.334z
		 M137.155,275.118c0-2.335-0.255-4.849-3.07-4.849c-2.462,0-3.654,2.257-3.807,4.849H137.155z M148.599,282.375
		c-0.66,0.227-1.649,0.38-2.386,0.38c-2.512,0-3.706-1.194-3.706-4.011v-8.173h-2.285c-0.049-0.125-0.074-0.428-0.074-0.581
		c0-0.126,0.025-0.433,0.074-0.559l2.285-0.153v-3.45c0.203-0.076,0.534-0.127,0.813-0.127s0.633,0.051,0.838,0.127v3.45h3.73
		c0.05,0.127,0.102,0.509,0.102,0.636c0,0.175-0.051,0.482-0.102,0.657h-3.73v8.02c0,2.006,0.583,2.844,2.156,2.844
		c0.863,0,1.701-0.127,2.285-0.302c0.051,0.125,0.101,0.428,0.101,0.607C148.7,281.971,148.675,282.146,148.599,282.375z
		 M165.929,271.892l-3.401,10.61c-0.203,0.076-0.584,0.126-0.786,0.126c-0.23,0-0.611-0.05-0.786-0.126l-3.046-10.255h-0.052
		l-3.197,10.255c-0.229,0.076-0.583,0.126-0.788,0.126c-0.202,0-0.531-0.05-0.761-0.126l-3.146-10.456
		c-0.279-0.861-0.407-1.853-0.432-2.789c0.203-0.055,0.608-0.104,0.863-0.104c0.279,0,0.534,0.05,0.762,0.126
		c0.024,0.915,0.178,1.879,0.404,2.717l2.31,8.25h0.027l3.298-10.988c0.178-0.055,0.534-0.078,0.712-0.078s0.559,0.023,0.71,0.078
		l3.122,10.988h0.024l2.539-8.223c0.279-0.941,0.481-1.829,0.531-2.744c0.179-0.076,0.61-0.126,0.839-0.126
		c0.227,0,0.583,0.05,0.736,0.126C166.411,270.144,166.208,271.005,165.929,271.892z M173.438,282.755
		c-3.325,0-5.456-2.285-5.456-6.853c0-4.569,2.155-6.876,5.48-6.876s5.432,2.258,5.432,6.825
		C178.894,280.42,176.762,282.755,173.438,282.755z M173.462,270.27c-2.436,0-3.755,1.879-3.755,5.61
		c0,3.729,1.295,5.631,3.73,5.631c2.435,0,3.73-1.901,3.73-5.631C177.168,272.148,175.899,270.27,173.462,270.27z M187.521,270.499
		c-1.474,0.203-3.073,0.735-4.265,1.649v10.354c-0.255,0.076-0.559,0.126-0.838,0.126s-0.559-0.05-0.812-0.126v-13.224
		c0.151-0.05,0.381-0.1,0.634-0.1c0.202,0,0.481,0.05,0.687,0.1l0.126,1.627h0.025c1.092-0.941,2.994-1.727,4.442-1.879
		c0.05,0.152,0.101,0.432,0.101,0.658C187.622,269.94,187.571,270.27,187.521,270.499z M199.828,282.502
		c-0.178,0.05-0.559,0.126-0.838,0.126s-0.686-0.05-1.017-0.126l-4.313-6.803l-1.929,1.801v5.002
		c-0.255,0.076-0.583,0.126-0.888,0.126c-0.203,0-0.534-0.05-0.762-0.126v-18.526c0.228-0.076,0.508-0.126,0.838-0.126
		c0.305,0,0.557,0.05,0.812,0.126v11.597l4.289-4.009c0.915-0.861,1.37-1.623,1.498-2.285c0.179-0.076,0.557-0.126,0.786-0.126
		c0.229,0,0.584,0.05,0.736,0.126c-0.101,0.941-0.687,2.082-1.854,3.149l-2.361,2.181L199.828,282.502z"/>
	<text transform="matrix(1 0 0 1 25.4805 52.0957)" style="display:inline;"><tspan x="0" y="0" style="fill:#837199; font-family:'FSMatthew-Bold'; font-size:48.9764; letter-spacing:-1;">W</tspan><tspan x="42.168" y="0" style="fill:#837199; font-family:'FSMatthew-Bold'; font-size:48.9764;">e</tspan><tspan x="67.635" y="0" style="fill:#837199; font-family:'FSMatthew-Bold'; font-size:48.9764;"> </tspan><tspan x="78.018" y="0" style="fill:#837199; font-family:'FSMatthew-Bold'; font-size:48.9764;">a</tspan><tspan x="103.877" y="0" style="fill:#837199; font-family:'FSMatthew-Bold'; font-size:48.9764; letter-spacing:-1;">r</tspan><tspan x="121.605" y="0" style="fill:#837199; font-family:'FSMatthew-Bold'; font-size:48.9764;">e</tspan><tspan x="147.073" y="0" style="fill:#837199; font-family:'FSMatthew-Bold'; font-size:48.9764;"> </tspan><tspan x="157.456" y="0" style="fill:#837199; font-family:'FSMatthew-Bold'; font-size:48.9764;">th</tspan><tspan x="206.039" y="0" style="fill:#837199; font-family:'FSMatthew-Bold'; font-size:48.9764;">e</tspan></text>
	
		<text transform="matrix(1 0 0 1 257.0537 52.0957)" style="display:inline;fill:#837199; font-family:'FSMatthew-Bold'; font-size:48.9764;"> </text>
	<text transform="matrix(1 0 0 1 25.4805 111.957)" style="display:inline;"><tspan x="0" y="0" style="fill:#837199; font-family:'FSMatthew-Bold'; font-size:68.0226;">o</tspan><tspan x="37.276" y="0" style="fill:#837199; font-family:'FSMatthew-Bold'; font-size:68.0226;">nly</tspan><tspan x="131.553" y="0" style="fill:#837199; font-family:'FSMatthew-Bold'; font-size:68.0226;"> </tspan><tspan x="146.041" y="0" style="fill:#837199; font-family:'FSMatthew-Bold'; font-size:68.0226;">U</tspan><tspan x="190.052" y="0" style="fill:#837199; font-family:'FSMatthew-Bold'; font-size:68.0226;">K </tspan></text>
	<text transform="matrix(1 0 0 1 25.4805 165.2861)" style="display:inline;"><tspan x="0" y="0" style="fill:#837199; font-family:'FSMatthew-Bold'; font-size:48.9764;">in</tspan><tspan x="41.041" y="0" style="fill:#837199; font-family:'FSMatthew-Bold'; font-size:48.9764; letter-spacing:-1;">s</tspan><tspan x="61.854" y="0" style="fill:#837199; font-family:'FSMatthew-Bold'; font-size:48.9764;">ti</tspan><tspan x="95.402" y="0" style="fill:#837199; font-family:'FSMatthew-Bold'; font-size:48.9764; letter-spacing:-1;">t</tspan><tspan x="115.286" y="0" style="fill:#837199; font-family:'FSMatthew-Bold'; font-size:48.9764;">utio</tspan><tspan x="203.1" y="0" style="fill:#837199; font-family:'FSMatthew-Bold'; font-size:48.9764;">n</tspan></text>
</g>
<g id="Text_Flat">
	<g>
		<path style="fill:#58595B;" d="M28.359,182.206c-0.637,0-1.163-0.554-1.163-1.218c0-0.665,0.526-1.19,1.163-1.19
			c0.636,0,1.189,0.525,1.189,1.19C29.549,181.652,28.995,182.206,28.359,182.206z M29.272,199.45
			c-0.249,0.083-0.609,0.139-0.913,0.139c-0.305,0-0.637-0.056-0.886-0.139v-14.421c0.221-0.056,0.581-0.139,0.857-0.139
			c0.305,0,0.72,0.056,0.941,0.139V199.45z"/>
	</g>
	<g>
		<path style="fill:#58595B;" d="M43.14,199.476c-0.202,0.051-0.507,0.102-0.812,0.102c-0.254,0-0.584-0.051-0.838-0.127v-8.044
			c0-1.218-0.151-2.157-0.507-2.816c-0.432-0.812-1.243-1.219-2.563-1.219c-1.269,0-2.791,0.711-3.78,1.473v10.606
			c-0.279,0.076-0.559,0.127-0.863,0.127c-0.254,0-0.558-0.051-0.786-0.127v-13.221c0.178-0.076,0.481-0.102,0.659-0.102
			c0.254,0,0.559,0.025,0.711,0.102l0.127,1.319h0.025c1.396-1.142,2.994-1.573,4.288-1.573s2.639,0.432,3.375,1.319
			c0.812,0.965,0.964,2.36,0.964,3.73V199.476z"/>
		<path style="fill:#58595B;" d="M59.125,199.323c-0.659,0.229-1.649,0.381-2.385,0.381c-2.513,0-3.705-1.192-3.705-4.01v-8.171
			h-2.283c-0.051-0.127-0.076-0.431-0.076-0.583c0-0.127,0.025-0.432,0.076-0.559l2.283-0.152v-3.451
			c0.203-0.076,0.533-0.127,0.812-0.127c0.278,0,0.634,0.051,0.837,0.127v3.451h3.73c0.051,0.127,0.102,0.508,0.102,0.635
			c0,0.178-0.051,0.481-0.102,0.659h-3.73v8.019c0,2.005,0.584,2.843,2.157,2.843c0.862,0,1.7-0.127,2.283-0.305
			c0.051,0.127,0.102,0.432,0.102,0.608C59.227,198.917,59.201,199.095,59.125,199.323z"/>
		<path style="fill:#58595B;" d="M71.736,199.45c-0.228,0.076-0.507,0.127-0.761,0.127c-0.305,0-0.635-0.051-0.889-0.127v-8.019
			c0-2.791-0.71-4.061-3.07-4.061c-1.269,0-2.791,0.711-3.78,1.473v10.606c-0.279,0.076-0.584,0.127-0.863,0.127
			c-0.254,0-0.558-0.051-0.786-0.127v-18.524c0.229-0.076,0.583-0.127,0.812-0.127s0.609,0.051,0.838,0.127v6.521
			c1.345-1.04,2.943-1.472,4.187-1.472c1.294,0,2.613,0.432,3.35,1.319c0.812,0.965,0.964,2.36,0.964,3.73V199.45z"/>
		<path style="fill:#58595B;" d="M84.551,193.284H76.05c0.102,2.918,1.472,5.126,4.644,5.126c1.143,0,2.208-0.152,3.146-0.381
			c0.051,0.127,0.102,0.381,0.102,0.533c0,0.253-0.051,0.481-0.127,0.659c-0.989,0.305-2.232,0.482-3.273,0.482
			c-2.004,0-3.526-0.635-4.466-1.649c-1.116-1.218-1.7-3.045-1.7-5.151c0-3.68,1.853-6.928,5.558-6.928
			c3.324,0,4.644,2.741,4.644,6.091C84.576,192.446,84.576,192.903,84.551,193.284z M82.927,192.066c0-2.335-0.254-4.847-3.07-4.847
			c-2.462,0-3.654,2.258-3.807,4.847H82.927z"/>
		<path style="fill:#58595B;" d="M105.104,199.45c-0.203,0.076-0.583,0.127-0.862,0.127s-0.66-0.051-0.863-0.127v-7.942H95.08v7.942
			c-0.203,0.076-0.583,0.127-0.862,0.127s-0.66-0.051-0.863-0.127v-17.153c0.203-0.076,0.584-0.127,0.863-0.127
			s0.659,0.051,0.862,0.127v7.841h8.298v-7.841c0.203-0.076,0.584-0.127,0.863-0.127s0.659,0.051,0.862,0.127V199.45z"/>
		<path style="fill:#58595B;" d="M118.02,196.202c0,0.913,0,2.056,0.051,3.248c-0.178,0.076-0.457,0.127-0.686,0.127
			c-0.203,0-0.482-0.051-0.686-0.127c-0.076-0.406-0.126-0.938-0.151-1.421h-0.025c-0.863,1.065-2.386,1.675-3.883,1.675
			c-2.36,0-4.339-1.319-4.339-4.035c0-1.548,0.634-2.689,1.624-3.4c1.116-0.786,2.588-1.04,4.161-1.04
			c0.889,0,1.624,0.051,2.284,0.152v-0.736c0-2.537-1.041-3.375-3.172-3.375c-1.193,0-2.665,0.254-3.578,0.482
			c-0.051-0.127-0.102-0.406-0.102-0.659c0-0.178,0.051-0.432,0.127-0.584c1.091-0.33,2.537-0.533,3.755-0.533
			c3.021,0,4.619,1.37,4.619,4.467V196.202z M116.37,192.624c-0.736-0.102-1.497-0.152-2.157-0.152c-1.243,0-2.36,0.229-3.121,0.812
			c-0.686,0.507-1.065,1.319-1.065,2.359c0,1.853,1.192,2.741,2.842,2.741c1.37,0,2.816-0.66,3.502-1.7V192.624z"/>
		<path style="fill:#58595B;" d="M127.433,187.447c-1.472,0.203-3.07,0.736-4.263,1.649v10.354
			c-0.254,0.076-0.559,0.127-0.838,0.127s-0.558-0.051-0.812-0.127v-13.221c0.152-0.051,0.38-0.102,0.634-0.102
			c0.203,0,0.482,0.051,0.686,0.102l0.127,1.624h0.025c1.091-0.938,2.994-1.726,4.44-1.878c0.051,0.152,0.102,0.432,0.102,0.66
			C127.534,186.89,127.483,187.22,127.433,187.447z"/>
		<path style="fill:#58595B;" d="M138.953,189.452l-3.984,9.998c-0.229,0.076-0.482,0.127-0.685,0.127
			c-0.279,0-0.508-0.051-0.711-0.127l-4.11-9.998c-0.457-1.142-0.66-2.283-0.66-3.223c0.203-0.051,0.559-0.127,0.786-0.127
			c0.305,0,0.609,0.051,0.863,0.127c0.025,0.863,0.127,1.853,0.508,2.766l3.299,8.374h0.051l3.197-8.374
			c0.354-0.888,0.532-1.877,0.532-2.766c0.178-0.076,0.559-0.127,0.889-0.127c0.178,0,0.507,0.025,0.735,0.102
			C139.638,187.118,139.46,188.209,138.953,189.452z"/>
		<path style="fill:#58595B;" d="M150.701,196.202c0,0.913,0,2.056,0.051,3.248c-0.178,0.076-0.457,0.127-0.686,0.127
			c-0.203,0-0.482-0.051-0.686-0.127c-0.076-0.406-0.126-0.938-0.151-1.421h-0.025c-0.863,1.065-2.386,1.675-3.883,1.675
			c-2.36,0-4.339-1.319-4.339-4.035c0-1.548,0.634-2.689,1.624-3.4c1.116-0.786,2.588-1.04,4.161-1.04
			c0.889,0,1.624,0.051,2.284,0.152v-0.736c0-2.537-1.041-3.375-3.172-3.375c-1.193,0-2.665,0.254-3.578,0.482
			c-0.051-0.127-0.102-0.406-0.102-0.659c0-0.178,0.051-0.432,0.127-0.584c1.091-0.33,2.537-0.533,3.755-0.533
			c3.021,0,4.619,1.37,4.619,4.467V196.202z M149.052,192.624c-0.736-0.102-1.497-0.152-2.157-0.152
			c-1.243,0-2.36,0.229-3.121,0.812c-0.686,0.507-1.065,1.319-1.065,2.359c0,1.853,1.192,2.741,2.842,2.741
			c1.37,0,2.816-0.66,3.502-1.7V192.624z"/>
		<path style="fill:#58595B;" d="M160.114,187.447c-1.472,0.203-3.07,0.736-4.263,1.649v10.354
			c-0.254,0.076-0.559,0.127-0.838,0.127s-0.558-0.051-0.812-0.127v-13.221c0.152-0.051,0.38-0.102,0.634-0.102
			c0.203,0,0.482,0.051,0.686,0.102l0.127,1.624h0.025c1.091-0.938,2.994-1.726,4.44-1.878c0.051,0.152,0.102,0.432,0.102,0.66
			C160.216,186.89,160.165,187.22,160.114,187.447z"/>
		<path style="fill:#58595B;" d="M171.127,199.577c-0.229,0-0.507-0.076-0.659-0.127l-0.152-1.522h-0.025
			c-1.091,1.142-2.386,1.776-3.832,1.776c-3.502,0-5.177-2.918-5.177-6.471c0-3.527,1.497-7.258,5.532-7.258
			c1.269,0,2.436,0.432,3.375,1.092v-6.142c0.229-0.076,0.533-0.127,0.812-0.127c0.305,0,0.609,0.076,0.838,0.127v18.524
			C171.66,199.526,171.406,199.577,171.127,199.577z M170.188,188.463c-0.914-0.762-2.081-1.143-3.273-1.143
			c-2.943,0-3.934,2.894-3.934,5.837c0,2.258,0.711,5.202,3.553,5.202c1.37,0,2.766-0.686,3.654-1.751V188.463z"/>
		<path style="fill:#58595B;" d="M185.794,199.577c-1.7,0-3.096-0.051-4.491-0.127v-17.153c1.015-0.051,2.359-0.127,3.653-0.127
			c3.883,0,5.786,1.091,5.786,4.237c0,1.903-0.965,3.299-2.538,3.807c2.386,0.279,3.908,1.929,3.908,4.364
			C192.112,198.08,189.397,199.577,185.794,199.577z M184.956,183.413c-0.431,0-1.269,0.025-1.928,0.076v6.293h1.979
			c2.208,0,4.061-0.482,4.061-3.35C189.067,183.845,187.113,183.413,184.956,183.413z M188.94,191.711
			c-0.812-0.508-1.7-0.66-2.969-0.66h-2.943v7.182c0.786,0.076,1.599,0.102,2.562,0.102c2.918,0,4.694-1.117,4.694-3.73
			C190.285,193.284,189.828,192.269,188.94,191.711z"/>
		<path style="fill:#58595B;" d="M204.799,194.426c0,3.857-1.599,5.278-4.948,5.278c-3.426,0-4.872-1.421-4.872-5.151v-8.323
			c0.229-0.076,0.533-0.127,0.812-0.127c0.355,0,0.635,0.076,0.838,0.127v8.12c0,2.462,0.381,4.086,3.248,4.086
			c2.689,0,3.273-1.573,3.273-4.137v-8.069c0.203-0.076,0.559-0.127,0.837-0.127c0.279,0,0.584,0.051,0.812,0.127V194.426z"/>
		<path style="fill:#58595B;" d="M211.117,199.704c-1.269,0-2.588-0.229-3.502-0.584c-0.076-0.178-0.127-0.481-0.127-0.71
			c0-0.152,0.051-0.533,0.102-0.686c0.939,0.381,2.284,0.686,3.4,0.686c1.929,0,3.121-0.812,3.121-2.411
			c0-1.446-0.735-1.954-2.74-2.689c-2.791-1.016-3.705-2.183-3.705-3.908c0-2.334,1.929-3.426,4.416-3.426
			c0.837,0,1.928,0.152,2.562,0.355c0.076,0.229,0.102,0.457,0.102,0.609c0,0.203-0.051,0.558-0.102,0.735
			c-0.838-0.254-1.726-0.406-2.588-0.406c-1.802,0-2.894,0.686-2.894,2.081c0,1.218,0.686,1.802,2.767,2.589
			c1.902,0.71,3.653,1.421,3.653,3.983C215.583,198.512,213.63,199.704,211.117,199.704z"/>
		<path style="fill:#58595B;" d="M219.186,183.642c-0.583,0-1.065-0.508-1.065-1.117c0-0.608,0.482-1.091,1.065-1.091
			c0.584,0,1.092,0.482,1.092,1.091C220.277,183.134,219.77,183.642,219.186,183.642z M220.023,199.45
			c-0.229,0.076-0.559,0.127-0.838,0.127c-0.278,0-0.583-0.051-0.812-0.127v-13.221c0.203-0.051,0.533-0.127,0.786-0.127
			c0.279,0,0.66,0.051,0.863,0.127V199.45z"/>
		<path style="fill:#58595B;" d="M233.727,199.476c-0.203,0.051-0.508,0.102-0.812,0.102c-0.254,0-0.583-0.051-0.837-0.127v-8.044
			c0-1.218-0.152-2.157-0.508-2.816c-0.432-0.812-1.243-1.219-2.562-1.219c-1.27,0-2.792,0.711-3.781,1.473v10.606
			c-0.279,0.076-0.559,0.127-0.863,0.127c-0.253,0-0.558-0.051-0.786-0.127v-13.221c0.178-0.076,0.482-0.102,0.66-0.102
			c0.253,0,0.558,0.025,0.71,0.102l0.127,1.319h0.025c1.396-1.142,2.994-1.573,4.288-1.573c1.295,0,2.64,0.432,3.375,1.319
			c0.812,0.965,0.965,2.36,0.965,3.73V199.476z"/>
		<path style="fill:#58595B;" d="M246.54,193.284h-8.501c0.102,2.918,1.472,5.126,4.645,5.126c1.142,0,2.207-0.152,3.146-0.381
			c0.051,0.127,0.102,0.381,0.102,0.533c0,0.253-0.051,0.481-0.127,0.659c-0.99,0.305-2.233,0.482-3.273,0.482
			c-2.005,0-3.527-0.635-4.467-1.649c-1.116-1.218-1.7-3.045-1.7-5.151c0-3.68,1.853-6.928,5.558-6.928
			c3.324,0,4.644,2.741,4.644,6.091C246.565,192.446,246.565,192.903,246.54,193.284z M244.916,192.066
			c0-2.335-0.254-4.847-3.07-4.847c-2.461,0-3.654,2.258-3.807,4.847H244.916z"/>
		<path style="fill:#58595B;" d="M252.274,199.704c-1.269,0-2.588-0.229-3.502-0.584c-0.076-0.178-0.127-0.481-0.127-0.71
			c0-0.152,0.051-0.533,0.102-0.686c0.939,0.381,2.284,0.686,3.4,0.686c1.929,0,3.121-0.812,3.121-2.411
			c0-1.446-0.735-1.954-2.74-2.689c-2.791-1.016-3.705-2.183-3.705-3.908c0-2.334,1.929-3.426,4.416-3.426
			c0.837,0,1.928,0.152,2.562,0.355c0.076,0.229,0.102,0.457,0.102,0.609c0,0.203-0.051,0.558-0.102,0.735
			c-0.838-0.254-1.726-0.406-2.588-0.406c-1.802,0-2.894,0.686-2.894,2.081c0,1.218,0.686,1.802,2.767,2.589
			c1.902,0.71,3.653,1.421,3.653,3.983C256.74,198.512,254.787,199.704,252.274,199.704z"/>
		<path style="fill:#58595B;" d="M262.373,199.704c-1.269,0-2.588-0.229-3.502-0.584c-0.076-0.178-0.127-0.481-0.127-0.71
			c0-0.152,0.051-0.533,0.102-0.686c0.939,0.381,2.284,0.686,3.4,0.686c1.929,0,3.121-0.812,3.121-2.411
			c0-1.446-0.735-1.954-2.74-2.689c-2.791-1.016-3.705-2.183-3.705-3.908c0-2.334,1.929-3.426,4.416-3.426
			c0.837,0,1.928,0.152,2.562,0.355c0.076,0.229,0.102,0.457,0.102,0.609c0,0.203-0.051,0.558-0.102,0.735
			c-0.838-0.254-1.726-0.406-2.588-0.406c-1.802,0-2.894,0.686-2.894,2.081c0,1.218,0.686,1.802,2.767,2.589
			c1.902,0.71,3.653,1.421,3.653,3.983C266.839,198.512,264.886,199.704,262.373,199.704z"/>
	</g>
	<g>
		<path style="fill:#58595B;" d="M31.773,227.39c-1.522,0-3.273-0.279-4.593-0.762c-0.076-0.203-0.127-0.456-0.127-0.735
			c0-0.254,0.051-0.559,0.102-0.762c1.345,0.533,3.172,0.863,4.491,0.863c2.562,0,3.908-1.143,3.908-3.248
			c0-1.853-0.99-2.69-2.868-3.375l-1.522-0.559c-2.537-0.938-3.983-2.157-3.983-4.593c0-2.842,2.258-4.491,5.455-4.491
			c1.244,0,2.513,0.178,3.654,0.481c0.076,0.152,0.102,0.406,0.102,0.635c0,0.203-0.051,0.533-0.127,0.711
			c-1.065-0.33-2.309-0.482-3.527-0.482c-1.878,0-3.78,0.659-3.78,3.045c0,1.903,0.964,2.562,3.121,3.375l1.345,0.508
			c2.334,0.888,3.832,2.08,3.832,4.567C37.255,225.867,34.971,227.39,31.773,227.39z"/>
		<path style="fill:#58595B;" d="M48.622,215.514c-0.812-0.33-1.878-0.533-2.816-0.533c-3.299,0-4.517,2.563-4.517,5.659
			c0,3.045,1.167,5.405,4.491,5.405c0.888,0,1.954-0.152,2.74-0.381c0.051,0.152,0.102,0.33,0.102,0.533
			c0,0.304-0.051,0.532-0.127,0.71c-0.735,0.305-1.929,0.482-2.867,0.482c-4.137,0-6.064-2.715-6.064-6.699
			c0-4.136,2.105-7.029,6.141-7.029c0.964,0,2.106,0.229,2.893,0.584c0.076,0.203,0.102,0.406,0.102,0.635
			C48.698,215.133,48.673,215.336,48.622,215.514z"/>
		<path style="fill:#58595B;" d="M61.486,227.136c-0.228,0.076-0.507,0.127-0.761,0.127c-0.305,0-0.635-0.051-0.889-0.127v-8.019
			c0-2.791-0.71-4.061-3.07-4.061c-1.269,0-2.791,0.711-3.78,1.473v10.606c-0.279,0.076-0.584,0.127-0.863,0.127
			c-0.254,0-0.558-0.051-0.786-0.127v-18.524c0.229-0.076,0.583-0.127,0.812-0.127s0.609,0.051,0.838,0.127v6.521
			c1.345-1.04,2.943-1.472,4.187-1.472c1.294,0,2.613,0.432,3.35,1.319c0.812,0.965,0.964,2.36,0.964,3.73V227.136z"/>
		<path style="fill:#58595B;" d="M69.581,227.39c-3.324,0-5.456-2.284-5.456-6.852s2.157-6.877,5.481-6.877s5.43,2.259,5.43,6.826
			S72.905,227.39,69.581,227.39z M69.606,214.905c-2.437,0-3.756,1.877-3.756,5.607s1.294,5.634,3.73,5.634
			c2.436,0,3.729-1.903,3.729-5.634S72.042,214.905,69.606,214.905z"/>
		<path style="fill:#58595B;" d="M82.472,227.39c-3.324,0-5.456-2.284-5.456-6.852s2.157-6.877,5.481-6.877s5.43,2.259,5.43,6.826
			S85.796,227.39,82.472,227.39z M82.497,214.905c-2.437,0-3.756,1.877-3.756,5.607s1.294,5.634,3.73,5.634
			c2.436,0,3.729-1.903,3.729-5.634S84.933,214.905,82.497,214.905z"/>
		<path style="fill:#58595B;" d="M92.342,227.136c-0.279,0.076-0.559,0.127-0.862,0.127c-0.254,0-0.559-0.051-0.787-0.127v-18.524
			c0.229-0.051,0.508-0.127,0.838-0.127c0.278,0,0.583,0.051,0.812,0.127V227.136z"/>
		<path style="fill:#58595B;" d="M96.147,211.657c-0.787-0.178-1.37-0.686-1.37-1.498c0-0.71,0.533-1.294,1.243-1.294
			c1.04,0,1.649,0.762,1.649,1.903c0,1.675-0.989,3.527-2.512,4.872c-0.178-0.102-0.406-0.33-0.533-0.533
			C95.462,214.118,96.046,212.9,96.147,211.657z"/>
		<path style="fill:#58595B;" d="M101.907,227.39c-1.269,0-2.588-0.229-3.501-0.584c-0.076-0.178-0.127-0.481-0.127-0.71
			c0-0.152,0.051-0.533,0.102-0.686c0.938,0.381,2.283,0.686,3.399,0.686c1.929,0,3.122-0.812,3.122-2.411
			c0-1.446-0.736-1.954-2.741-2.689c-2.791-1.016-3.704-2.183-3.704-3.908c0-2.334,1.928-3.426,4.415-3.426
			c0.837,0,1.929,0.152,2.562,0.355c0.076,0.229,0.102,0.457,0.102,0.609c0,0.203-0.051,0.558-0.102,0.735
			c-0.837-0.254-1.726-0.406-2.588-0.406c-1.802,0-2.893,0.686-2.893,2.081c0,1.218,0.685,1.802,2.766,2.589
			c1.903,0.71,3.654,1.421,3.654,3.983C106.374,226.197,104.42,227.39,101.907,227.39z"/>
		<path style="fill:#58595B;" d="M129.616,227.136c-0.229,0.076-0.558,0.127-0.837,0.127s-0.66-0.076-0.889-0.127l-0.38-14.642
			c-0.33,0.989-1.117,2.943-1.649,4.237l-3.553,8.78c-0.178,0.025-0.508,0.076-0.66,0.076s-0.482-0.051-0.659-0.076l-3.654-8.831
			c-0.686-1.649-1.243-3.02-1.548-3.983l-0.355,14.438c-0.254,0.076-0.66,0.127-0.913,0.127c-0.229,0-0.635-0.051-0.812-0.127
			l0.609-17.153c0.203-0.076,0.786-0.127,0.964-0.127c0.279,0,0.711,0.051,0.939,0.127l5.455,13.321l5.304-13.321
			c0.279-0.076,0.862-0.127,1.04-0.127c0.229,0,0.787,0.051,1.041,0.127L129.616,227.136z"/>
		<path style="fill:#58595B;" d="M134.158,211.327c-0.584,0-1.066-0.508-1.066-1.117c0-0.608,0.482-1.091,1.066-1.091
			c0.583,0,1.091,0.482,1.091,1.091C135.249,210.819,134.741,211.327,134.158,211.327z M134.995,227.136
			c-0.229,0.076-0.559,0.127-0.837,0.127c-0.279,0-0.584-0.051-0.812-0.127v-13.221c0.203-0.051,0.533-0.127,0.787-0.127
			c0.278,0,0.659,0.051,0.862,0.127V227.136z"/>
		<path style="fill:#58595B;" d="M146.871,215.514c-0.812-0.33-1.878-0.533-2.816-0.533c-3.299,0-4.517,2.563-4.517,5.659
			c0,3.045,1.167,5.405,4.491,5.405c0.888,0,1.954-0.152,2.74-0.381c0.051,0.152,0.102,0.33,0.102,0.533
			c0,0.304-0.051,0.532-0.127,0.71c-0.735,0.305-1.929,0.482-2.867,0.482c-4.137,0-6.064-2.715-6.064-6.699
			c0-4.136,2.105-7.029,6.141-7.029c0.964,0,2.106,0.229,2.893,0.584c0.076,0.203,0.102,0.406,0.102,0.635
			C146.947,215.133,146.922,215.336,146.871,215.514z"/>
		<path style="fill:#58595B;" d="M155.498,215.133c-1.472,0.203-3.07,0.736-4.263,1.649v10.354
			c-0.254,0.076-0.559,0.127-0.838,0.127s-0.558-0.051-0.812-0.127v-13.221c0.152-0.051,0.38-0.102,0.634-0.102
			c0.203,0,0.482,0.051,0.686,0.102l0.127,1.624h0.025c1.091-0.938,2.994-1.726,4.44-1.878c0.051,0.152,0.102,0.432,0.102,0.66
			C155.6,214.575,155.549,214.905,155.498,215.133z"/>
		<path style="fill:#58595B;" d="M162.121,227.39c-3.324,0-5.456-2.284-5.456-6.852s2.157-6.877,5.481-6.877
			s5.431,2.259,5.431,6.826S165.445,227.39,162.121,227.39z M162.146,214.905c-2.437,0-3.756,1.877-3.756,5.607
			s1.294,5.634,3.73,5.634s3.73-1.903,3.73-5.634S164.583,214.905,162.146,214.905z"/>
		<path style="fill:#58595B;" d="M179.731,220.97h-8.501c0.102,2.918,1.472,5.126,4.645,5.126c1.142,0,2.207-0.152,3.146-0.381
			c0.051,0.127,0.102,0.381,0.102,0.533c0,0.253-0.051,0.481-0.127,0.659c-0.99,0.305-2.233,0.482-3.273,0.482
			c-2.005,0-3.527-0.635-4.467-1.649c-1.116-1.218-1.7-3.045-1.7-5.151c0-3.68,1.853-6.928,5.558-6.928
			c3.324,0,4.644,2.741,4.644,6.091C179.757,220.132,179.757,220.589,179.731,220.97z M178.107,219.752
			c0-2.335-0.254-4.847-3.07-4.847c-2.461,0-3.654,2.258-3.807,4.847H178.107z"/>
		<path style="fill:#58595B;" d="M190.846,215.514c-0.812-0.33-1.878-0.533-2.816-0.533c-3.299,0-4.518,2.563-4.518,5.659
			c0,3.045,1.168,5.405,4.492,5.405c0.888,0,1.953-0.152,2.74-0.381c0.051,0.152,0.102,0.33,0.102,0.533
			c0,0.304-0.051,0.532-0.127,0.71c-0.736,0.305-1.929,0.482-2.867,0.482c-4.137,0-6.065-2.715-6.065-6.699
			c0-4.136,2.106-7.029,6.142-7.029c0.964,0,2.105,0.229,2.893,0.584c0.076,0.203,0.102,0.406,0.102,0.635
			C190.922,215.133,190.896,215.336,190.846,215.514z"/>
		<path style="fill:#58595B;" d="M198.279,227.39c-3.324,0-5.456-2.284-5.456-6.852s2.157-6.877,5.481-6.877
			s5.431,2.259,5.431,6.826S201.604,227.39,198.279,227.39z M198.305,214.905c-2.436,0-3.756,1.877-3.756,5.607
			s1.295,5.634,3.73,5.634c2.437,0,3.73-1.903,3.73-5.634S200.741,214.905,198.305,214.905z"/>
		<path style="fill:#58595B;" d="M216.601,227.161c-0.203,0.051-0.508,0.102-0.812,0.102c-0.254,0-0.583-0.051-0.837-0.127v-8.044
			c0-1.218-0.152-2.157-0.508-2.816c-0.432-0.812-1.243-1.219-2.562-1.219c-1.27,0-2.792,0.711-3.781,1.473v10.606
			c-0.279,0.076-0.559,0.127-0.863,0.127c-0.253,0-0.558-0.051-0.786-0.127v-13.221c0.178-0.076,0.482-0.102,0.66-0.102
			c0.253,0,0.558,0.025,0.71,0.102l0.127,1.319h0.025c1.396-1.142,2.994-1.573,4.288-1.573c1.295,0,2.64,0.432,3.375,1.319
			c0.812,0.965,0.965,2.36,0.965,3.73V227.161z"/>
		<path style="fill:#58595B;" d="M224.694,227.39c-3.324,0-5.456-2.284-5.456-6.852s2.157-6.877,5.481-6.877
			s5.431,2.259,5.431,6.826S228.019,227.39,224.694,227.39z M224.72,214.905c-2.436,0-3.756,1.877-3.756,5.607
			s1.295,5.634,3.73,5.634c2.437,0,3.73-1.903,3.73-5.634S227.156,214.905,224.72,214.905z"/>
		<path style="fill:#58595B;" d="M251.237,227.161c-0.254,0.051-0.508,0.102-0.762,0.102c-0.305,0-0.584-0.076-0.888-0.127v-8.019
			c0-2.791-0.711-4.061-3.07-4.061c-1.219,0-2.843,0.635-3.857,1.371c0.203,0.71,0.254,1.497,0.254,2.283v8.425
			c-0.254,0.076-0.508,0.127-0.762,0.127c-0.33,0-0.634-0.051-0.888-0.127v-8.019c0-2.791-0.635-4.061-2.994-4.061
			c-1.27,0-2.767,0.711-3.756,1.473v10.606c-0.279,0.076-0.609,0.127-0.914,0.127c-0.253,0-0.532-0.051-0.735-0.127v-13.221
			c0.127-0.051,0.406-0.102,0.686-0.102c0.228,0,0.507,0.051,0.685,0.102l0.127,1.319h0.025c1.396-1.142,2.994-1.573,4.288-1.573
			c1.295,0,2.538,0.432,3.273,1.319c0.102,0.102,0.178,0.229,0.254,0.355c1.345-1.091,3.07-1.675,4.72-1.675
			c1.294,0,2.614,0.432,3.35,1.319c0.812,0.965,0.965,2.36,0.965,3.73V227.161z"/>
		<path style="fill:#58595B;" d="M255.523,211.327c-0.583,0-1.065-0.508-1.065-1.117c0-0.608,0.482-1.091,1.065-1.091
			c0.584,0,1.092,0.482,1.092,1.091C256.615,210.819,256.107,211.327,255.523,211.327z M256.361,227.136
			c-0.229,0.076-0.559,0.127-0.838,0.127c-0.278,0-0.583-0.051-0.812-0.127v-13.221c0.203-0.051,0.533-0.127,0.786-0.127
			c0.279,0,0.66,0.051,0.863,0.127V227.136z"/>
		<path style="fill:#58595B;" d="M268.237,215.514c-0.812-0.33-1.878-0.533-2.816-0.533c-3.299,0-4.518,2.563-4.518,5.659
			c0,3.045,1.168,5.405,4.492,5.405c0.888,0,1.953-0.152,2.74-0.381c0.051,0.152,0.102,0.33,0.102,0.533
			c0,0.304-0.051,0.532-0.127,0.71c-0.736,0.305-1.929,0.482-2.867,0.482c-4.137,0-6.065-2.715-6.065-6.699
			c0-4.136,2.106-7.029,6.142-7.029c0.964,0,2.105,0.229,2.893,0.584c0.076,0.203,0.102,0.406,0.102,0.635
			C268.313,215.133,268.288,215.336,268.237,215.514z"/>
		<path style="fill:#58595B;" d="M273.896,227.39c-1.269,0-2.588-0.229-3.502-0.584c-0.076-0.178-0.127-0.481-0.127-0.71
			c0-0.152,0.051-0.533,0.102-0.686c0.939,0.381,2.284,0.686,3.4,0.686c1.929,0,3.121-0.812,3.121-2.411
			c0-1.446-0.735-1.954-2.74-2.689c-2.791-1.016-3.705-2.183-3.705-3.908c0-2.334,1.929-3.426,4.416-3.426
			c0.837,0,1.928,0.152,2.562,0.355c0.076,0.229,0.102,0.457,0.102,0.609c0,0.203-0.051,0.558-0.102,0.735
			c-0.838-0.254-1.726-0.406-2.588-0.406c-1.802,0-2.894,0.686-2.894,2.081c0,1.218,0.686,1.802,2.767,2.589
			c1.902,0.71,3.653,1.421,3.653,3.983C278.361,226.197,276.408,227.39,273.896,227.39z"/>
	</g>
	<g>
		<path style="fill:#58595B;" d="M31.926,255.072c-3.324,0-5.456-2.284-5.456-6.852s2.157-6.877,5.481-6.877s5.43,2.259,5.43,6.826
			S35.25,255.072,31.926,255.072z M31.951,242.588c-2.437,0-3.756,1.877-3.756,5.607s1.294,5.634,3.73,5.634
			c2.436,0,3.729-1.903,3.729-5.634S34.387,242.588,31.951,242.588z"/>
		<path style="fill:#58595B;" d="M47.582,237.386c-0.381-0.102-1.066-0.203-1.599-0.203c-0.965,0-1.675,0.254-2.157,0.786
			c-0.736,0.787-0.863,1.853-0.863,3.197v0.432h3.578c0.051,0.127,0.102,0.432,0.102,0.609c0,0.203-0.051,0.507-0.102,0.685h-3.578
			v11.927c-0.228,0.076-0.481,0.127-0.812,0.127s-0.609-0.051-0.838-0.127v-11.927H39.03c-0.051-0.127-0.076-0.456-0.076-0.608
			c0-0.127,0.025-0.406,0.076-0.533l2.283-0.152v-0.432c0-1.801,0.305-3.045,1.346-4.085c0.735-0.736,1.826-1.091,3.07-1.091
			c0.659,0,1.396,0.152,1.853,0.329c0.051,0.127,0.076,0.305,0.076,0.482C47.658,236.954,47.633,237.259,47.582,237.386z"/>
		<path style="fill:#58595B;" d="M66.079,239.289c-0.964-0.254-2.359-0.482-3.501-0.482c-4.188,0-5.913,3.324-5.913,7.511
			c0,4.137,1.649,7.359,5.761,7.359c1.345,0,2.715-0.203,3.628-0.508c0.051,0.152,0.076,0.406,0.076,0.609
			c0,0.253-0.025,0.583-0.076,0.735c-0.913,0.305-2.207,0.559-3.679,0.559c-4.618,0-7.537-2.791-7.537-8.729
			c0-5.354,2.817-8.932,7.562-8.932c1.37,0,2.816,0.254,3.653,0.583c0.076,0.203,0.102,0.457,0.102,0.686
			C66.155,238.832,66.13,239.111,66.079,239.289z"/>
		<path style="fill:#58595B;" d="M73.488,255.072c-3.324,0-5.455-2.284-5.455-6.852s2.156-6.877,5.48-6.877s5.431,2.259,5.431,6.826
			S76.812,255.072,73.488,255.072z M73.514,242.588c-2.436,0-3.755,1.877-3.755,5.607s1.294,5.634,3.729,5.634
			c2.437,0,3.73-1.903,3.73-5.634S75.95,242.588,73.514,242.588z"/>
		<path style="fill:#58595B;" d="M100.03,254.844c-0.253,0.051-0.507,0.102-0.761,0.102c-0.305,0-0.584-0.076-0.889-0.127V246.8
			c0-2.791-0.71-4.061-3.07-4.061c-1.218,0-2.842,0.635-3.856,1.371c0.203,0.71,0.254,1.497,0.254,2.283v8.425
			c-0.254,0.076-0.508,0.127-0.762,0.127c-0.33,0-0.635-0.051-0.888-0.127V246.8c0-2.791-0.635-4.061-2.995-4.061
			c-1.269,0-2.766,0.711-3.755,1.473v10.606c-0.279,0.076-0.609,0.127-0.914,0.127c-0.254,0-0.532-0.051-0.735-0.127v-13.221
			c0.127-0.051,0.405-0.102,0.685-0.102c0.229,0,0.508,0.051,0.686,0.102l0.127,1.319h0.025c1.396-1.142,2.994-1.573,4.288-1.573
			s2.538,0.432,3.273,1.319c0.102,0.102,0.178,0.229,0.254,0.355c1.345-1.091,3.07-1.675,4.72-1.675c1.294,0,2.613,0.432,3.35,1.319
			c0.812,0.965,0.964,2.36,0.964,3.73V254.844z"/>
		<path style="fill:#58595B;" d="M111.778,253.448c-0.989,0.888-2.537,1.37-4.009,1.37c-1.041,0-2.005-0.178-2.716-0.432v6.395
			c-0.254,0.076-0.482,0.127-0.837,0.127c-0.279,0-0.609-0.051-0.812-0.127v-19.184c0.127-0.051,0.432-0.102,0.686-0.102
			s0.481,0.051,0.659,0.102l0.152,1.396h0.025c0.965-1.015,2.411-1.649,3.883-1.649c1.599,0,3.02,0.686,3.907,1.954
			c0.736,1.065,1.193,2.589,1.193,4.44C113.91,250.276,113.123,252.23,111.778,253.448z M108.632,242.688
			c-1.345,0-2.689,0.559-3.578,1.675v8.729c0.66,0.305,1.675,0.482,2.538,0.482c2.74,0,4.593-1.802,4.593-5.761
			C112.185,244.693,110.967,242.688,108.632,242.688z"/>
		<path style="fill:#58595B;" d="M126.064,248.652h-8.501c0.102,2.918,1.472,5.126,4.644,5.126c1.143,0,2.208-0.152,3.146-0.381
			c0.051,0.127,0.102,0.381,0.102,0.533c0,0.253-0.051,0.481-0.127,0.659c-0.989,0.305-2.232,0.482-3.273,0.482
			c-2.004,0-3.526-0.635-4.466-1.649c-1.116-1.218-1.7-3.045-1.7-5.151c0-3.68,1.853-6.928,5.558-6.928
			c3.324,0,4.644,2.741,4.644,6.091C126.09,247.814,126.09,248.271,126.064,248.652z M124.44,247.435
			c0-2.335-0.254-4.847-3.07-4.847c-2.462,0-3.654,2.258-3.807,4.847H124.44z"/>
		<path style="fill:#58595B;" d="M135.884,254.691c-0.659,0.229-1.649,0.381-2.385,0.381c-2.513,0-3.705-1.192-3.705-4.01v-8.171
			h-2.283c-0.051-0.127-0.076-0.431-0.076-0.583c0-0.127,0.025-0.432,0.076-0.559l2.283-0.152v-3.451
			c0.203-0.076,0.533-0.127,0.812-0.127c0.278,0,0.634,0.051,0.837,0.127v3.451h3.73c0.051,0.127,0.102,0.508,0.102,0.635
			c0,0.178-0.051,0.481-0.102,0.659h-3.73v8.019c0,2.005,0.584,2.843,2.157,2.843c0.862,0,1.7-0.127,2.283-0.305
			c0.051,0.127,0.102,0.432,0.102,0.608C135.985,254.285,135.96,254.463,135.884,254.691z"/>
		<path style="fill:#58595B;" d="M139.259,239.01c-0.584,0-1.065-0.508-1.065-1.117c0-0.608,0.481-1.091,1.065-1.091
			s1.091,0.482,1.091,1.091C140.35,238.502,139.843,239.01,139.259,239.01z M140.097,254.818c-0.229,0.076-0.559,0.127-0.838,0.127
			s-0.584-0.051-0.812-0.127v-13.221c0.203-0.051,0.532-0.127,0.786-0.127c0.279,0,0.66,0.051,0.863,0.127V254.818z"/>
		<path style="fill:#58595B;" d="M150.678,254.691c-0.66,0.229-1.649,0.381-2.386,0.381c-2.512,0-3.704-1.192-3.704-4.01v-8.171
			h-2.284c-0.051-0.127-0.076-0.431-0.076-0.583c0-0.127,0.025-0.432,0.076-0.559l2.284-0.152v-3.451
			c0.202-0.076,0.532-0.127,0.812-0.127s0.635,0.051,0.838,0.127v3.451h3.729c0.051,0.127,0.102,0.508,0.102,0.635
			c0,0.178-0.051,0.481-0.102,0.659h-3.729v8.019c0,2.005,0.583,2.843,2.156,2.843c0.863,0,1.7-0.127,2.284-0.305
			c0.051,0.127,0.102,0.432,0.102,0.608C150.779,254.285,150.754,254.463,150.678,254.691z"/>
		<path style="fill:#58595B;" d="M154.052,239.01c-0.584,0-1.065-0.508-1.065-1.117c0-0.608,0.481-1.091,1.065-1.091
			s1.091,0.482,1.091,1.091C155.143,238.502,154.636,239.01,154.052,239.01z M154.89,254.818c-0.229,0.076-0.559,0.127-0.838,0.127
			s-0.584-0.051-0.812-0.127v-13.221c0.203-0.051,0.532-0.127,0.786-0.127c0.279,0,0.66,0.051,0.863,0.127V254.818z"/>
		<path style="fill:#58595B;" d="M167.399,244.82l-3.984,9.998c-0.228,0.076-0.481,0.127-0.685,0.127
			c-0.279,0-0.508-0.051-0.711-0.127l-4.11-9.998c-0.457-1.142-0.66-2.283-0.66-3.223c0.203-0.051,0.559-0.127,0.786-0.127
			c0.305,0,0.609,0.051,0.863,0.127c0.025,0.863,0.127,1.853,0.508,2.766l3.299,8.374h0.051l3.197-8.374
			c0.355-0.888,0.532-1.877,0.532-2.766c0.178-0.076,0.559-0.127,0.889-0.127c0.178,0,0.508,0.025,0.735,0.102
			C168.084,242.486,167.907,243.577,167.399,244.82z"/>
		<path style="fill:#58595B;" d="M179.681,248.652h-8.501c0.102,2.918,1.472,5.126,4.645,5.126c1.142,0,2.207-0.152,3.146-0.381
			c0.051,0.127,0.102,0.381,0.102,0.533c0,0.253-0.051,0.481-0.127,0.659c-0.99,0.305-2.233,0.482-3.273,0.482
			c-2.005,0-3.527-0.635-4.467-1.649c-1.116-1.218-1.7-3.045-1.7-5.151c0-3.68,1.853-6.928,5.558-6.928
			c3.324,0,4.644,2.741,4.644,6.091C179.706,247.814,179.706,248.271,179.681,248.652z M178.057,247.435
			c0-2.335-0.254-4.847-3.07-4.847c-2.461,0-3.654,2.258-3.807,4.847H178.057z"/>
		<path style="fill:#58595B;" d="M192.622,254.844c-0.203,0.051-0.508,0.102-0.812,0.102c-0.254,0-0.583-0.051-0.837-0.127v-8.044
			c0-1.218-0.152-2.157-0.508-2.816c-0.432-0.812-1.243-1.219-2.562-1.219c-1.27,0-2.792,0.711-3.781,1.473v10.606
			c-0.279,0.076-0.559,0.127-0.863,0.127c-0.253,0-0.558-0.051-0.786-0.127v-13.221c0.178-0.076,0.482-0.102,0.66-0.102
			c0.253,0,0.558,0.025,0.71,0.102l0.127,1.319h0.025c1.396-1.142,2.994-1.573,4.288-1.573c1.295,0,2.64,0.432,3.375,1.319
			c0.812,0.965,0.965,2.36,0.965,3.73V254.844z"/>
		<path style="fill:#58595B;" d="M205.436,248.652h-8.501c0.102,2.918,1.472,5.126,4.644,5.126c1.143,0,2.208-0.152,3.147-0.381
			c0.051,0.127,0.101,0.381,0.101,0.533c0,0.253-0.05,0.481-0.126,0.659c-0.99,0.305-2.233,0.482-3.273,0.482
			c-2.005,0-3.527-0.635-4.467-1.649c-1.116-1.218-1.7-3.045-1.7-5.151c0-3.68,1.853-6.928,5.558-6.928
			c3.324,0,4.644,2.741,4.644,6.091C205.461,247.814,205.461,248.271,205.436,248.652z M203.812,247.435
			c0-2.335-0.254-4.847-3.07-4.847c-2.461,0-3.654,2.258-3.807,4.847H203.812z"/>
		<path style="fill:#58595B;" d="M211.17,255.072c-1.269,0-2.588-0.229-3.502-0.584c-0.076-0.178-0.127-0.482-0.127-0.71
			c0-0.152,0.051-0.533,0.102-0.686c0.939,0.381,2.284,0.686,3.4,0.686c1.929,0,3.121-0.812,3.121-2.411
			c0-1.446-0.735-1.954-2.74-2.689c-2.791-1.016-3.705-2.183-3.705-3.908c0-2.334,1.929-3.426,4.416-3.426
			c0.837,0,1.928,0.152,2.562,0.355c0.076,0.229,0.102,0.457,0.102,0.609c0,0.203-0.051,0.558-0.102,0.735
			c-0.838-0.254-1.726-0.405-2.588-0.405c-1.802,0-2.894,0.685-2.894,2.08c0,1.218,0.686,1.802,2.767,2.589
			c1.902,0.71,3.653,1.421,3.653,3.983C215.636,253.88,213.683,255.072,211.17,255.072z"/>
		<path style="fill:#58595B;" d="M221.269,255.072c-1.269,0-2.588-0.229-3.502-0.584c-0.076-0.178-0.127-0.482-0.127-0.71
			c0-0.152,0.051-0.533,0.102-0.686c0.939,0.381,2.284,0.686,3.4,0.686c1.929,0,3.121-0.812,3.121-2.411
			c0-1.446-0.735-1.954-2.74-2.689c-2.791-1.016-3.705-2.183-3.705-3.908c0-2.334,1.929-3.426,4.416-3.426
			c0.837,0,1.928,0.152,2.562,0.355c0.076,0.229,0.102,0.457,0.102,0.609c0,0.203-0.051,0.558-0.102,0.735
			c-0.838-0.254-1.726-0.405-2.588-0.405c-1.802,0-2.894,0.685-2.894,2.08c0,1.218,0.686,1.802,2.767,2.589
			c1.902,0.71,3.653,1.421,3.653,3.983C225.734,253.88,223.781,255.072,221.269,255.072z"/>
	</g>
	<path style="fill:#58595B;" d="M39.92,282.502c-0.202,0.076-0.534,0.126-0.887,0.126c-0.307,0-0.687-0.05-0.915-0.126l-1.547-4.441
		H29.49l-1.498,4.469c-0.178,0.049-0.583,0.099-0.863,0.099c-0.304,0-0.635-0.05-0.887-0.126l5.836-17.156
		c0.279-0.076,0.608-0.126,0.863-0.126c0.28,0,0.584,0.05,0.811,0.126L39.92,282.502z M33.728,269.99
		c-0.254-0.685-0.559-1.676-0.786-2.563c-0.255,0.865-0.559,1.879-0.789,2.563l-2.232,6.728h6.168L33.728,269.99z M59.206,269.278
		v13.224c-0.23,0.076-0.559,0.126-0.838,0.126s-0.583-0.05-0.813-0.126v-11.931h-5.43v11.931c-0.23,0.076-0.482,0.126-0.813,0.126
		c-0.329,0-0.608-0.05-0.838-0.126v-11.931h-5.862v11.931c-0.228,0.076-0.482,0.126-0.813,0.126c-0.329,0-0.608-0.05-0.835-0.126
		v-11.931H40.68c-0.052-0.125-0.077-0.454-0.077-0.607c0-0.126,0.025-0.406,0.077-0.532l2.284-0.153v-0.432
		c0-1.798,0.305-3.042,1.345-4.083c0.734-0.738,1.827-1.094,3.07-1.094c0.66,0,1.397,0.153,1.852,0.332
		c0.051,0.127,0.077,0.303,0.077,0.482c0,0.148-0.025,0.456-0.077,0.582c-0.381-0.1-1.066-0.203-1.597-0.203
		c-0.965,0-1.677,0.252-2.158,0.788c-0.737,0.784-0.863,1.852-0.863,3.195v0.432h5.862v-0.432c0-1.798,0.307-3.042,1.345-4.083
		c0.736-0.738,1.829-1.094,3.072-1.094c0.658,0,1.395,0.153,1.852,0.332c0.05,0.127,0.077,0.303,0.077,0.482
		c0,0.148-0.027,0.456-0.077,0.582c-0.381-0.1-1.065-0.203-1.6-0.203c-0.964,0-1.673,0.252-2.155,0.788
		c-0.737,0.784-0.863,1.852-0.863,3.195v0.432H59.206z M64.455,282.502c-0.277,0.076-0.557,0.126-0.863,0.126
		c-0.252,0-0.556-0.05-0.786-0.126v-18.526c0.23-0.05,0.506-0.126,0.838-0.126c0.279,0,0.583,0.05,0.811,0.126V282.502z
		 M68.87,266.692c-0.583,0-1.065-0.509-1.065-1.117s0.482-1.091,1.065-1.091c0.583,0,1.093,0.482,1.093,1.091
		S69.454,266.692,68.87,266.692z M69.708,282.502c-0.228,0.076-0.559,0.126-0.838,0.126s-0.583-0.05-0.811-0.126v-13.224
		c0.203-0.05,0.532-0.126,0.787-0.126c0.279,0,0.66,0.05,0.862,0.126V282.502z M82.294,279.254c0,0.914,0,2.054,0.051,3.248
		c-0.178,0.076-0.457,0.126-0.685,0.126c-0.203,0-0.482-0.05-0.685-0.126c-0.076-0.406-0.128-0.941-0.153-1.424h-0.025
		c-0.863,1.067-2.385,1.677-3.884,1.677c-2.361,0-4.338-1.32-4.338-4.033c0-1.55,0.632-2.689,1.624-3.4
		c1.115-0.789,2.588-1.041,4.161-1.041c0.89,0,1.625,0.049,2.285,0.152v-0.738c0-2.537-1.041-3.375-3.172-3.375
		c-1.192,0-2.666,0.252-3.577,0.482c-0.052-0.126-0.104-0.405-0.104-0.658c0-0.18,0.052-0.433,0.128-0.586
		c1.09-0.329,2.537-0.531,3.755-0.531c3.021,0,4.618,1.37,4.618,4.465V279.254z M80.646,275.677
		c-0.734-0.104-1.496-0.154-2.156-0.154c-1.244,0-2.361,0.23-3.123,0.812c-0.685,0.509-1.065,1.32-1.065,2.361
		c0,1.852,1.191,2.739,2.842,2.739c1.37,0,2.816-0.657,3.501-1.698V275.677z M92.825,282.375c-0.659,0.227-1.648,0.38-2.385,0.38
		c-2.512,0-3.706-1.194-3.706-4.011v-8.173H84.45c-0.049-0.125-0.074-0.428-0.074-0.581c0-0.126,0.024-0.433,0.074-0.559
		l2.285-0.153v-3.45c0.203-0.076,0.534-0.127,0.813-0.127s0.633,0.051,0.838,0.127v3.45h3.73c0.05,0.127,0.102,0.509,0.102,0.636
		c0,0.175-0.051,0.482-0.102,0.657h-3.73v8.02c0,2.006,0.583,2.844,2.156,2.844c0.863,0,1.701-0.127,2.284-0.302
		c0.052,0.125,0.102,0.428,0.102,0.607C92.927,281.971,92.902,282.146,92.825,282.375z M104.091,276.334h-8.502
		c0.102,2.92,1.474,5.127,4.645,5.127c1.143,0,2.208-0.153,3.147-0.383c0.05,0.131,0.102,0.383,0.102,0.537
		c0,0.251-0.052,0.48-0.126,0.657c-0.991,0.306-2.234,0.482-3.275,0.482c-2.005,0-3.528-0.636-4.465-1.649
		c-1.117-1.217-1.701-3.045-1.701-5.149c0-3.681,1.852-6.93,5.558-6.93c3.325,0,4.645,2.74,4.645,6.092
		C104.119,275.496,104.119,275.956,104.091,276.334z M102.468,275.118c0-2.335-0.253-4.849-3.071-4.849
		c-2.462,0-3.653,2.257-3.807,4.849H102.468z M125.458,282.502c-0.128,0.05-0.457,0.1-0.685,0.1c-0.178,0-0.432-0.05-0.635-0.1
		l-9.693-14.391v14.391c-0.178,0.076-0.509,0.126-0.789,0.126c-0.252,0-0.559-0.05-0.762-0.126v-17.156
		c0.203-0.076,0.534-0.126,0.762-0.126c0.279,0,0.534,0.05,0.711,0.126l9.543,14.138v-14.138c0.252-0.076,0.532-0.126,0.786-0.126
		c0.228,0,0.531,0.05,0.761,0.126V282.502z M138.779,276.334h-8.501c0.102,2.92,1.471,5.127,4.645,5.127
		c1.142,0,2.208-0.153,3.147-0.383c0.049,0.131,0.102,0.383,0.102,0.537c0,0.251-0.052,0.48-0.128,0.657
		c-0.989,0.306-2.233,0.482-3.273,0.482c-2.005,0-3.528-0.636-4.468-1.649c-1.115-1.217-1.7-3.045-1.7-5.149
		c0-3.681,1.854-6.93,5.559-6.93c3.323,0,4.643,2.74,4.643,6.092C138.804,275.496,138.804,275.956,138.779,276.334z
		 M137.155,275.118c0-2.335-0.255-4.849-3.07-4.849c-2.462,0-3.654,2.257-3.807,4.849H137.155z M148.599,282.375
		c-0.66,0.227-1.649,0.38-2.386,0.38c-2.512,0-3.706-1.194-3.706-4.011v-8.173h-2.285c-0.049-0.125-0.074-0.428-0.074-0.581
		c0-0.126,0.025-0.433,0.074-0.559l2.285-0.153v-3.45c0.203-0.076,0.534-0.127,0.813-0.127s0.633,0.051,0.838,0.127v3.45h3.73
		c0.05,0.127,0.102,0.509,0.102,0.636c0,0.175-0.051,0.482-0.102,0.657h-3.73v8.02c0,2.006,0.583,2.844,2.156,2.844
		c0.863,0,1.701-0.127,2.285-0.302c0.051,0.125,0.101,0.428,0.101,0.607C148.7,281.971,148.675,282.146,148.599,282.375z
		 M165.929,271.892l-3.401,10.61c-0.203,0.076-0.584,0.126-0.786,0.126c-0.23,0-0.611-0.05-0.786-0.126l-3.046-10.255h-0.052
		l-3.197,10.255c-0.229,0.076-0.583,0.126-0.788,0.126c-0.202,0-0.531-0.05-0.761-0.126l-3.146-10.456
		c-0.279-0.861-0.407-1.853-0.432-2.789c0.203-0.055,0.608-0.104,0.863-0.104c0.279,0,0.534,0.05,0.762,0.126
		c0.024,0.915,0.178,1.879,0.404,2.717l2.31,8.25h0.027l3.298-10.988c0.178-0.055,0.534-0.078,0.712-0.078s0.559,0.023,0.71,0.078
		l3.122,10.988h0.024l2.539-8.223c0.279-0.941,0.481-1.829,0.531-2.744c0.179-0.076,0.61-0.126,0.839-0.126
		c0.227,0,0.583,0.05,0.736,0.126C166.411,270.144,166.208,271.005,165.929,271.892z M173.438,282.755
		c-3.325,0-5.456-2.285-5.456-6.853c0-4.569,2.155-6.876,5.48-6.876s5.432,2.258,5.432,6.825
		C178.894,280.42,176.762,282.755,173.438,282.755z M173.462,270.27c-2.436,0-3.755,1.879-3.755,5.61
		c0,3.729,1.295,5.631,3.73,5.631c2.435,0,3.73-1.901,3.73-5.631C177.168,272.148,175.899,270.27,173.462,270.27z M187.521,270.499
		c-1.474,0.203-3.073,0.735-4.265,1.649v10.354c-0.255,0.076-0.559,0.126-0.838,0.126s-0.559-0.05-0.812-0.126v-13.224
		c0.151-0.05,0.381-0.1,0.634-0.1c0.202,0,0.481,0.05,0.687,0.1l0.126,1.627h0.025c1.092-0.941,2.994-1.727,4.442-1.879
		c0.05,0.152,0.101,0.432,0.101,0.658C187.622,269.94,187.571,270.27,187.521,270.499z M199.828,282.502
		c-0.178,0.05-0.559,0.126-0.838,0.126s-0.686-0.05-1.017-0.126l-4.313-6.803l-1.929,1.801v5.002
		c-0.255,0.076-0.583,0.126-0.888,0.126c-0.203,0-0.534-0.05-0.762-0.126v-18.526c0.228-0.076,0.508-0.126,0.838-0.126
		c0.305,0,0.557,0.05,0.812,0.126v11.597l4.289-4.009c0.915-0.861,1.37-1.623,1.498-2.285c0.179-0.076,0.557-0.126,0.786-0.126
		c0.229,0,0.584,0.05,0.736,0.126c-0.101,0.941-0.687,2.082-1.854,3.149l-2.361,2.181L199.828,282.502z"/>
	<g>
		<path style="fill:#837199;" d="M58.787,52.096c-0.637,0.098-1.91,0.245-3.281,0.245c-1.323,0-2.646-0.147-3.527-0.245
			l-4.017-16.359c-0.44-1.715-0.686-3.576-0.881-5.192h-0.049c-0.147,1.616-0.539,3.526-0.931,5.192l-3.968,16.359
			c-0.882,0.098-2.253,0.245-3.526,0.245c-1.225,0-2.694-0.147-3.38-0.245L27.831,27.85c-0.783-2.547-1.273-5.583-1.273-8.865
			c1.028-0.195,2.303-0.245,3.38-0.245c1.812,0,2.694,0.099,3.478,0.245c0,3.184,0.44,5.829,1.028,8.082l2.988,11.314
			c0.44,1.764,0.882,4.065,1.126,6.27h0.099c0.245-2.204,0.637-4.506,1.077-6.318l4.604-19.348c0.882-0.146,1.714-0.245,2.596-0.245
			c0.931,0,1.764,0.099,2.694,0.245l4.702,19.396c0.44,1.764,0.931,4.065,1.176,6.27h0.098c0.245-2.204,0.686-4.506,1.176-6.318
			l3.135-11.266c0.637-2.253,1.126-4.898,1.126-8.082c0.784-0.146,2.204-0.245,3.674-0.245c0.979,0,2.302,0.099,3.232,0.245
			c0,3.625-0.538,6.367-1.322,8.865L58.787,52.096z"/>
		<path style="fill:#837199;" d="M91.845,41.712H76.367c0.098,3.184,2.302,5.534,6.563,5.534c2.302,0,4.652-0.294,6.661-0.832
			c0.294,1.322,0.489,2.792,0.489,4.114c0,0.195,0,0.44-0.049,0.979c-2.498,0.734-5.094,1.077-7.641,1.077
			c-9.307,0-13.176-5.339-13.176-13.127c0-6.808,3.82-13.371,12.098-13.371c7.837,0,10.678,5.779,10.678,12.147
			C91.991,39.115,91.991,40.438,91.845,41.712z M85.232,36.862c0-3.086-0.833-5.682-4.017-5.682c-3.037,0-4.653,2.4-4.849,5.682
			H85.232z"/>
		<path style="fill:#837199;" d="M126.861,44.993c0,2.106,0.049,4.506,0.049,7.103c-0.783,0.195-2.105,0.245-2.938,0.245
			c-0.931,0-2.155-0.099-2.938-0.245c-0.099-0.588-0.196-1.616-0.245-2.253h-0.098c-1.666,1.714-4.507,2.742-7.103,2.742
			c-4.898,0-8.425-3.036-8.425-8.081c0-7.837,6.955-9.16,12.784-9.16c0.392,0,1.322,0.049,2.106,0.099
			c0-0.294-0.05-0.931-0.099-1.176c-0.343-2.009-1.665-2.841-4.506-2.841c-2.204,0-5.29,0.44-7.641,1.028
			c-0.245-0.686-0.393-1.861-0.393-2.743c0-0.734,0.099-1.861,0.294-2.351c2.743-0.833,6.123-1.273,8.915-1.273
			c6.122,0,10.236,2.841,10.236,9.208V44.993z M120.103,40.145c-0.588-0.05-1.372-0.099-2.058-0.099
			c-4.408,0-6.122,1.764-6.122,3.968c0,1.91,1.273,3.232,3.478,3.232c1.616,0,3.429-0.783,4.702-1.91V40.145z"/>
		<path style="fill:#837199;" d="M146.893,31.769c-2.547,0.392-5.29,1.273-7.739,2.547v17.78c-0.686,0.146-2.155,0.245-3.331,0.245
			c-1.175,0-2.89-0.099-3.429-0.245v-25.52c0.735-0.098,1.96-0.244,2.939-0.244c0.832,0,2.155,0.098,2.841,0.244l0.392,3.135
			c1.812-1.616,5.094-3.379,8.278-3.624c0.098,0.392,0.195,1.812,0.195,2.841C147.039,29.907,146.99,31.083,146.893,31.769z"/>
		<path style="fill:#837199;" d="M171.283,41.712h-15.479c0.098,3.184,2.302,5.534,6.563,5.534c2.303,0,4.653-0.294,6.661-0.832
			c0.294,1.322,0.49,2.792,0.49,4.114c0,0.195,0,0.44-0.049,0.979c-2.498,0.734-5.094,1.077-7.641,1.077
			c-9.307,0-13.177-5.339-13.177-13.127c0-6.808,3.82-13.371,12.099-13.371c7.837,0,10.678,5.779,10.678,12.147
			C171.43,39.115,171.43,40.438,171.283,41.712z M164.671,36.862c0-3.086-0.833-5.682-4.017-5.682c-3.037,0-4.653,2.4-4.85,5.682
			H164.671z"/>
		<path style="fill:#837199;" d="M202.137,51.605c-1.469,0.588-3.232,0.979-6.073,0.979c-5.535,0-8.278-2.693-8.278-8.081V31.621
			h-4.212c-0.196-0.734-0.343-1.959-0.343-2.596c0-0.588,0.146-1.665,0.294-2.155l4.261-0.294v-6.563
			c0.539-0.098,2.254-0.195,3.38-0.195c1.225,0,2.743,0.098,3.38,0.195v6.563h7.054c0.195,0.687,0.293,1.666,0.293,2.204
			c0,0.588-0.049,2.155-0.244,2.841h-7.103v11.902c0,2.449,0.979,3.527,3.38,3.527c1.322,0,2.938-0.196,4.065-0.588
			c0.195,0.637,0.44,1.861,0.44,2.987C202.431,50.038,202.333,51.066,202.137,51.605z"/>
		<path style="fill:#837199;" d="M229.024,35.001v17.095c-0.784,0.195-2.449,0.245-3.233,0.245c-0.832,0-2.742-0.099-3.526-0.245
			V35.393c0-2.645-1.371-3.82-3.575-3.82c-1.764,0-3.919,0.637-5.486,1.616v18.907c-1.126,0.195-2.693,0.245-3.575,0.245
			c-0.784,0-2.204-0.05-3.184-0.245V16.389c0.637-0.147,2.057-0.245,3.281-0.245s2.743,0.098,3.478,0.245v12
			c2.155-1.371,5.144-2.302,7.739-2.302C226.33,26.087,229.024,29.417,229.024,35.001z"/>
		<path style="fill:#837199;" d="M255.716,41.712h-15.478c0.098,3.184,2.302,5.534,6.563,5.534c2.302,0,4.653-0.294,6.661-0.832
			c0.294,1.322,0.49,2.792,0.49,4.114c0,0.195,0,0.44-0.05,0.979c-2.498,0.734-5.094,1.077-7.641,1.077
			c-9.307,0-13.176-5.339-13.176-13.127c0-6.808,3.82-13.371,12.099-13.371c7.837,0,10.678,5.779,10.678,12.147
			C255.863,39.115,255.863,40.438,255.716,41.712z M249.104,36.862c0-3.086-0.833-5.682-4.017-5.682c-3.036,0-4.653,2.4-4.849,5.682
			H249.104z"/>
	</g>
	<g>
		<path style="fill:#837199;" d="M44.459,112.637c-10.271,0-16.802-6.598-16.802-18.298c0-11.632,6.462-18.503,16.802-18.503
			s16.802,6.803,16.802,18.435S54.799,112.637,44.459,112.637z M44.459,83.183c-4.422,0-7.143,2.993-7.143,11.088
			s2.721,11.02,7.143,11.02s7.143-2.925,7.143-11.02C51.602,86.107,48.881,83.183,44.459,83.183z"/>
		<path style="fill:#837199;" d="M98.129,111.957c-1.088,0.271-3.401,0.34-4.489,0.34c-1.156,0-3.81-0.136-4.898-0.34V88.692
			c0-3.673-1.904-5.237-4.965-5.237c-2.449,0-5.238,0.884-7.415,2.244v26.258c-1.564,0.271-3.741,0.34-4.966,0.34
			c-1.088,0-3.061-0.068-4.422-0.34v-35.44c0.885-0.204,3.062-0.34,4.082-0.34c0.952,0,2.925,0.136,3.945,0.34l0.476,3.129
			c3.062-2.245,7.483-3.81,11.429-3.81c7.482,0,11.224,4.626,11.224,12.381V111.957z"/>
		<path style="fill:#837199;" d="M115.337,111.957c-1.224,0.271-3.741,0.34-4.829,0.34c-1.633,0-3.401-0.136-4.558-0.34v-49.59
			c1.496-0.204,3.333-0.34,4.558-0.34c1.632,0,3.537,0.136,4.829,0.34V111.957z"/>
		<path style="fill:#837199;" d="M153.43,105.698c0,5.17-0.271,10.884-2.925,15.374c-3.197,5.374-8.571,7.618-14.625,7.618
			c-3.401,0-7.278-0.476-10.408-1.429c-0.204-0.611-0.34-2.244-0.34-3.265c0-0.816,0.272-2.789,0.477-3.605
			c2.721,0.748,6.394,1.225,8.911,1.225c4.081,0,6.53-1.429,8.026-4.149c1.36-2.449,1.564-5.17,1.564-7.823
			c-2.381,1.837-5.51,2.993-8.435,2.993c-8.911,0-12.517-4.625-12.517-13.4v-22.72c1.089-0.272,3.401-0.34,4.489-0.34
			c1.157,0,3.81,0.136,4.898,0.34v22.176c0,4.354,1.564,6.258,5.441,6.258c2.449,0,4.626-1.021,6.055-2.381V76.517
			c1.564-0.272,3.741-0.34,4.966-0.34c1.088,0,3.061,0.067,4.421,0.34V105.698z"/>
		<path style="fill:#837199;" d="M211.315,94.475c0,11.7-4.489,18.162-17.55,18.162c-13.197,0-17.347-6.462-17.347-18.162V65.973
			c1.36-0.204,3.129-0.34,4.762-0.34c1.905,0,3.605,0.136,4.966,0.34v29.183c0,6.258,1.769,9.795,7.687,9.795
			s7.959-3.537,7.959-9.795V65.973c1.225-0.204,3.266-0.34,4.83-0.34c1.496,0,3.537,0.136,4.693,0.34V94.475z"/>
		<path style="fill:#837199;" d="M256.755,111.957c-1.225,0.204-3.401,0.34-5.782,0.34c-1.701,0-4.149-0.136-5.578-0.34
			L233.49,93.522l-3.129,3.741v14.693c-1.292,0.204-2.857,0.34-4.897,0.34c-1.837,0-3.537-0.136-4.83-0.34V65.973
			c1.293-0.204,3.197-0.34,4.897-0.34c1.905,0,3.605,0.136,4.83,0.34v19.795l7.891-9.251c3.47-4.082,5.374-7.007,6.122-10.544
			c1.36-0.204,3.266-0.34,4.762-0.34c1.225,0,3.333,0.136,4.762,0.34c-1.021,5.374-3.877,10.067-7.959,14.762l-5.441,6.258
			L256.755,111.957z"/>
	</g>
	<g>
		<path style="fill:#837199;" d="M32.239,136.975c-2.057,0-3.723-1.665-3.723-3.722c0-2.058,1.666-3.723,3.723-3.723
			c2.058,0,3.723,1.665,3.723,3.723C35.962,135.31,34.297,136.975,32.239,136.975z M35.619,165.286
			c-0.882,0.196-2.693,0.245-3.478,0.245c-1.176,0-2.449-0.099-3.281-0.245v-25.52c1.077-0.146,2.399-0.244,3.281-0.244
			c1.176,0,2.4,0.098,3.478,0.244V165.286z"/>
		<path style="fill:#837199;" d="M64.026,165.286c-0.783,0.196-2.449,0.245-3.232,0.245c-0.833,0-2.743-0.099-3.527-0.245v-16.752
			c0-2.645-1.371-3.771-3.575-3.771c-1.764,0-3.771,0.637-5.339,1.616v18.907c-1.127,0.196-2.694,0.245-3.575,0.245
			c-0.784,0-2.204-0.049-3.185-0.245v-25.52c0.637-0.146,2.204-0.244,2.939-0.244c0.686,0,2.106,0.098,2.841,0.244l0.343,2.254
			c2.204-1.617,5.388-2.743,8.229-2.743c5.388,0,8.082,3.33,8.082,8.914V165.286z"/>
		<path style="fill:#837199;" d="M77.102,165.776c-2.891,0-5.927-0.441-8.278-1.225c-0.146-0.735-0.196-1.666-0.196-2.646
			c0-0.783,0.196-1.91,0.393-2.596c2.253,0.783,5.485,1.322,7.396,1.322c2.646,0,4.164-0.882,4.164-2.693
			c0-1.567-1.225-2.303-4.458-3.331c-5.143-1.616-7.543-4.017-7.543-7.739c0-5.535,5.095-7.592,9.943-7.592
			c2.253,0,4.751,0.392,6.466,0.931c0.195,0.734,0.294,1.763,0.294,2.351c0,0.637-0.196,1.96-0.441,2.792
			c-1.665-0.489-3.967-0.882-5.878-0.882c-2.351,0-3.967,0.588-3.967,2.058c0,1.567,1.812,2.204,4.653,3.135
			c4.946,1.616,7.298,3.674,7.298,7.543C86.946,163.18,82.146,165.776,77.102,165.776z"/>
		<path style="fill:#837199;" d="M106.536,164.796c-1.47,0.588-3.233,0.98-6.074,0.98c-5.535,0-8.277-2.694-8.277-8.082v-12.883
			h-4.213c-0.195-0.734-0.343-1.959-0.343-2.596c0-0.588,0.147-1.665,0.294-2.155l4.262-0.294v-6.563
			c0.538-0.098,2.253-0.195,3.38-0.195c1.224,0,2.742,0.098,3.379,0.195v6.563h7.054c0.195,0.687,0.294,1.666,0.294,2.204
			c0,0.588-0.049,2.155-0.245,2.841h-7.103v11.903c0,2.448,0.979,3.526,3.38,3.526c1.322,0,2.938-0.196,4.065-0.588
			c0.196,0.637,0.44,1.861,0.44,2.988C106.829,163.229,106.731,164.258,106.536,164.796z"/>
		<path style="fill:#837199;" d="M114.566,136.975c-2.058,0-3.723-1.665-3.723-3.722c0-2.058,1.665-3.723,3.723-3.723
			c2.057,0,3.723,1.665,3.723,3.723C118.289,135.31,116.623,136.975,114.566,136.975z M117.946,165.286
			c-0.882,0.196-2.694,0.245-3.478,0.245c-1.176,0-2.449-0.099-3.282-0.245v-25.52c1.077-0.146,2.4-0.244,3.282-0.244
			c1.175,0,2.399,0.098,3.478,0.244V165.286z"/>
		<path style="fill:#837199;" d="M140.084,164.796c-1.47,0.588-3.233,0.98-6.074,0.98c-5.535,0-8.277-2.694-8.277-8.082v-12.883
			h-4.213c-0.195-0.734-0.343-1.959-0.343-2.596c0-0.588,0.147-1.665,0.294-2.155l4.262-0.294v-6.563
			c0.538-0.098,2.253-0.195,3.38-0.195c1.224,0,2.742,0.098,3.379,0.195v6.563h7.054c0.195,0.687,0.294,1.666,0.294,2.204
			c0,0.588-0.049,2.155-0.245,2.841h-7.103v11.903c0,2.448,0.979,3.526,3.38,3.526c1.322,0,2.938-0.196,4.065-0.588
			c0.196,0.637,0.44,1.861,0.44,2.988C140.377,163.229,140.279,164.258,140.084,164.796z"/>
		<path style="fill:#837199;" d="M165.649,155.441c0,7.298-3.429,10.335-11.07,10.335c-7.444,0-10.873-3.037-10.873-10.335v-15.675
			c0.686-0.098,2.008-0.244,3.33-0.244c1.176,0,2.646,0.098,3.429,0.244v15.625c0,3.821,1.127,5.192,4.213,5.192
			c3.135,0,4.212-1.371,4.212-5.192v-15.625c0.686-0.146,2.204-0.244,3.429-0.244s2.841,0.146,3.331,0.244V155.441z"/>
		<path style="fill:#837199;" d="M187.345,164.796c-1.469,0.588-3.232,0.98-6.073,0.98c-5.535,0-8.278-2.694-8.278-8.082v-12.883
			h-4.212c-0.196-0.734-0.343-1.959-0.343-2.596c0-0.588,0.146-1.665,0.294-2.155l4.261-0.294v-6.563
			c0.539-0.098,2.254-0.195,3.38-0.195c1.225,0,2.743,0.098,3.38,0.195v6.563h7.054c0.195,0.687,0.293,1.666,0.293,2.204
			c0,0.588-0.049,2.155-0.244,2.841h-7.103v11.903c0,2.448,0.979,3.526,3.38,3.526c1.322,0,2.938-0.196,4.065-0.588
			c0.195,0.637,0.44,1.861,0.44,2.988C187.639,163.229,187.541,164.258,187.345,164.796z"/>
		<path style="fill:#837199;" d="M195.376,136.975c-2.058,0-3.723-1.665-3.723-3.722c0-2.058,1.665-3.723,3.723-3.723
			c2.057,0,3.722,1.665,3.722,3.723C199.098,135.31,197.433,136.975,195.376,136.975z M198.755,165.286
			c-0.881,0.196-2.693,0.245-3.478,0.245c-1.176,0-2.449-0.099-3.281-0.245v-25.52c1.077-0.146,2.399-0.244,3.281-0.244
			c1.176,0,2.4,0.098,3.478,0.244V165.286z"/>
		<path style="fill:#837199;" d="M215.357,165.776c-7.396,0-12.099-4.752-12.099-13.176c0-8.376,4.653-13.323,12.099-13.323
			c7.444,0,12.098,4.897,12.098,13.273S222.802,165.776,215.357,165.776z M215.357,144.567c-3.185,0-5.144,2.155-5.144,7.983
			c0,5.829,1.959,7.936,5.144,7.936c3.184,0,5.143-2.106,5.143-7.936C220.5,146.673,218.541,144.567,215.357,144.567z"/>
		<path style="fill:#837199;" d="M254.05,165.286c-0.783,0.196-2.449,0.245-3.232,0.245c-0.833,0-2.743-0.099-3.526-0.245v-16.752
			c0-2.645-1.372-3.771-3.576-3.771c-1.763,0-3.771,0.637-5.339,1.616v18.907c-1.126,0.196-2.693,0.245-3.575,0.245
			c-0.784,0-2.204-0.049-3.184-0.245v-25.52c0.637-0.146,2.204-0.244,2.938-0.244c0.686,0,2.106,0.098,2.841,0.244l0.343,2.254
			c2.204-1.617,5.388-2.743,8.229-2.743c5.389,0,8.082,3.33,8.082,8.914V165.286z"/>
	</g>
</g>
</svg>
