<?xml version="1.0" encoding="utf-8"?>
<!-- Generator: Adobe Illustrator 16.0.0, SVG Export Plug-In . SVG Version: 6.00 Build 0)  -->
<!DOCTYPE svg PUBLIC "-//W3C//DTD SVG 1.1//EN" "http://www.w3.org/Graphics/SVG/1.1/DTD/svg11.dtd">
<svg version="1.1" id="Layer_1" xmlns="http://www.w3.org/2000/svg" xmlns:xlink="http://www.w3.org/1999/xlink" x="0px" y="0px"
	 width="300px" height="300px" viewBox="0 0 300 300" enable-background="new 0 0 300 300" xml:space="preserve">
<g>
	<path fill="#252525" d="M164.7,189.675c0,2.309-0.956,3.158-2.96,3.158c-2.05,0-2.915-0.85-2.915-3.082v-4.979
		c0.136-0.046,0.318-0.076,0.485-0.076c0.213,0,0.38,0.046,0.501,0.076v4.858c0,1.473,0.228,2.444,1.943,2.444
		c1.609,0,1.959-0.941,1.959-2.475v-4.828c0.121-0.046,0.334-0.076,0.501-0.076s0.349,0.03,0.485,0.076V189.675z"/>
	<path fill="#252525" d="M172.93,192.696c-0.121,0.03-0.304,0.061-0.486,0.061c-0.151,0-0.349-0.03-0.501-0.075v-4.813
		c0-0.729-0.091-1.29-0.304-1.685c-0.258-0.486-0.743-0.729-1.533-0.729c-0.759,0-1.67,0.426-2.262,0.881v6.347
		c-0.167,0.045-0.334,0.075-0.517,0.075c-0.151,0-0.334-0.03-0.471-0.075v-7.91c0.106-0.046,0.289-0.061,0.395-0.061
		c0.152,0,0.334,0.015,0.426,0.061l0.075,0.789h0.016c0.835-0.683,1.792-0.941,2.565-0.941c0.774,0,1.579,0.259,2.02,0.79
		c0.486,0.577,0.577,1.412,0.577,2.231V192.696z"/>
	<path fill="#252525" d="M180.553,192.757c-0.137,0-0.304-0.045-0.396-0.075l-0.091-0.911h-0.016
		c-0.652,0.684-1.427,1.062-2.292,1.062c-2.096,0-3.098-1.746-3.098-3.871c0-2.11,0.896-4.343,3.311-4.343
		c0.759,0,1.457,0.259,2.019,0.653v-3.674c0.137-0.046,0.319-0.076,0.486-0.076c0.182,0,0.364,0.045,0.501,0.076v11.083
		C180.871,192.727,180.72,192.757,180.553,192.757z M179.99,186.107c-0.546-0.455-1.245-0.684-1.958-0.684
		c-1.762,0-2.354,1.731-2.354,3.492c0,1.352,0.425,3.112,2.126,3.112c0.819,0,1.654-0.41,2.186-1.047V186.107z"/>
	<path fill="#252525" d="M188.843,188.992h-5.087c0.062,1.746,0.881,3.066,2.778,3.066c0.684,0,1.321-0.091,1.883-0.228
		c0.03,0.076,0.061,0.228,0.061,0.319c0,0.151-0.03,0.288-0.075,0.395c-0.593,0.182-1.336,0.288-1.959,0.288
		c-1.199,0-2.11-0.379-2.672-0.986c-0.668-0.729-1.018-1.822-1.018-3.082c0-2.202,1.108-4.146,3.325-4.146
		c1.989,0,2.778,1.64,2.778,3.645C188.857,188.491,188.857,188.765,188.843,188.992z M187.871,188.264c0-1.397-0.152-2.9-1.838-2.9
		c-1.473,0-2.186,1.352-2.277,2.9H187.871z"/>
	<path fill="#252525" d="M194.188,185.5c-0.881,0.121-1.838,0.44-2.551,0.987v6.194c-0.152,0.045-0.334,0.075-0.501,0.075
		s-0.334-0.03-0.486-0.075v-7.91c0.091-0.03,0.228-0.061,0.38-0.061c0.121,0,0.288,0.03,0.41,0.061l0.075,0.972h0.016
		c0.652-0.562,1.791-1.032,2.657-1.124c0.03,0.092,0.061,0.259,0.061,0.396C194.248,185.166,194.218,185.363,194.188,185.5z"/>
	<path fill="#252525" d="M202.067,192.833c-0.79,0-1.579-0.106-2.232-0.349c-0.03-0.076-0.045-0.229-0.045-0.35
		s0.015-0.258,0.061-0.395c0.668,0.213,1.396,0.334,2.095,0.334c1.579,0,2.338-0.987,2.338-2.43c0-1.791-0.941-2.398-2.718-2.398
		h-1.518v-4.828h4.812c0.046,0.091,0.076,0.258,0.076,0.364c0,0.122-0.03,0.319-0.076,0.44h-3.826v3.279h0.79
		c2.08,0,3.553,0.805,3.553,3.067C205.377,191.588,204.011,192.833,202.067,192.833z"/>
	<path fill="#252525" d="M210.51,192.833c-2.05,0-3.188-1.518-3.188-5.283s1.26-5.283,3.249-5.283c2.02,0,3.188,1.518,3.188,5.283
		S212.498,192.833,210.51,192.833z M210.57,183.01c-1.519,0-2.156,1.549-2.156,4.54s0.593,4.539,2.11,4.539
		c1.519,0,2.141-1.548,2.141-4.539S212.089,183.01,210.57,183.01z"/>
	<path fill="#252525" d="M225.131,191.36c0,1.473-0.061,2.521-0.592,3.462c-0.607,1.078-1.807,1.594-2.885,1.594
		c-0.789,0-1.336-0.075-1.821-0.242c-0.046-0.092-0.062-0.243-0.062-0.365c0-0.091,0.03-0.288,0.062-0.379
		c0.455,0.137,1.002,0.242,1.73,0.242c1.67,0,2.581-1.199,2.581-3.279v-0.531c-0.774,0.684-1.64,0.972-2.43,0.972
		c-0.85,0-1.518-0.212-1.943-0.729c-0.471-0.562-0.531-1.382-0.531-2.201v-5.132c0.122-0.03,0.319-0.076,0.471-0.076
		c0.183,0,0.38,0.046,0.517,0.076v4.965c0,0.729,0.061,1.336,0.334,1.746c0.243,0.349,0.638,0.531,1.229,0.531
		c0.941,0,1.837-0.501,2.354-1.002v-6.24c0.137-0.03,0.334-0.076,0.516-0.076c0.152,0,0.35,0.046,0.471,0.076V191.36z"/>
	<path fill="#252525" d="M232.996,188.992h-5.087c0.062,1.746,0.881,3.066,2.779,3.066c0.683,0,1.32-0.091,1.882-0.228
		c0.03,0.076,0.062,0.228,0.062,0.319c0,0.151-0.031,0.288-0.076,0.395c-0.593,0.182-1.336,0.288-1.959,0.288
		c-1.199,0-2.11-0.379-2.672-0.986c-0.668-0.729-1.018-1.822-1.018-3.082c0-2.202,1.108-4.146,3.325-4.146
		c1.989,0,2.778,1.64,2.778,3.645C233.011,188.491,233.011,188.765,232.996,188.992z M232.024,188.264c0-1.397-0.152-2.9-1.838-2.9
		c-1.473,0-2.186,1.352-2.277,2.9H232.024z"/>
	<path fill="#252525" d="M240.208,190.738c0,0.546,0,1.229,0.03,1.943c-0.106,0.045-0.273,0.075-0.41,0.075
		c-0.121,0-0.288-0.03-0.41-0.075c-0.045-0.243-0.075-0.562-0.091-0.851h-0.015c-0.517,0.638-1.428,1.002-2.323,1.002
		c-1.412,0-2.597-0.789-2.597-2.414c0-0.926,0.38-1.609,0.972-2.034c0.668-0.471,1.549-0.622,2.49-0.622
		c0.531,0,0.972,0.03,1.366,0.091v-0.44c0-1.519-0.622-2.02-1.897-2.02c-0.714,0-1.594,0.152-2.141,0.289
		c-0.03-0.076-0.061-0.243-0.061-0.396c0-0.105,0.03-0.258,0.075-0.349c0.653-0.197,1.519-0.319,2.247-0.319
		c1.807,0,2.764,0.82,2.764,2.673V190.738z M239.221,188.598c-0.44-0.062-0.896-0.092-1.29-0.092c-0.744,0-1.412,0.137-1.867,0.486
		c-0.41,0.304-0.638,0.789-0.638,1.412c0,1.108,0.713,1.64,1.7,1.64c0.819,0,1.686-0.395,2.095-1.018V188.598z"/>
	<path fill="#252525" d="M245.993,185.5c-0.881,0.121-1.838,0.44-2.551,0.987v6.194c-0.152,0.045-0.334,0.075-0.501,0.075
		s-0.334-0.03-0.486-0.075v-7.91c0.091-0.03,0.228-0.061,0.38-0.061c0.121,0,0.288,0.03,0.41,0.061l0.075,0.972h0.016
		c0.652-0.562,1.791-1.032,2.657-1.124c0.03,0.092,0.061,0.259,0.061,0.396C246.054,185.166,246.023,185.363,245.993,185.5z"/>
	<path fill="#252525" d="M249.44,192.833c-0.76,0-1.549-0.137-2.096-0.349c-0.045-0.106-0.076-0.289-0.076-0.426
		c0-0.091,0.031-0.318,0.062-0.409c0.562,0.228,1.366,0.409,2.034,0.409c1.153,0,1.867-0.485,1.867-1.442
		c0-0.865-0.44-1.169-1.64-1.609c-1.67-0.606-2.217-1.306-2.217-2.338c0-1.396,1.154-2.05,2.642-2.05
		c0.501,0,1.154,0.092,1.534,0.213c0.045,0.137,0.061,0.273,0.061,0.364c0,0.122-0.03,0.334-0.061,0.44
		c-0.501-0.151-1.033-0.243-1.549-0.243c-1.078,0-1.73,0.41-1.73,1.245c0,0.729,0.409,1.078,1.654,1.549
		c1.139,0.425,2.187,0.851,2.187,2.384C252.112,192.12,250.943,192.833,249.44,192.833z"/>
	<path fill="#252525" d="M260.175,192.833c-1.989,0-3.265-1.366-3.265-4.099c0-2.733,1.291-4.115,3.279-4.115
		c1.989,0,3.249,1.352,3.249,4.084C263.438,191.437,262.164,192.833,260.175,192.833z M260.189,185.363
		c-1.457,0-2.246,1.124-2.246,3.355s0.773,3.37,2.231,3.37c1.457,0,2.231-1.139,2.231-3.37S261.647,185.363,260.189,185.363z"/>
	<path fill="#252525" d="M266.233,192.682c-0.167,0.045-0.334,0.075-0.517,0.075c-0.151,0-0.334-0.03-0.471-0.075v-11.083
		c0.137-0.031,0.304-0.076,0.501-0.076c0.167,0,0.35,0.03,0.486,0.076V192.682z"/>
	<path fill="#252525" d="M273.931,192.757c-0.137,0-0.304-0.045-0.396-0.075l-0.091-0.911h-0.016
		c-0.652,0.684-1.427,1.062-2.292,1.062c-2.096,0-3.098-1.746-3.098-3.871c0-2.11,0.896-4.343,3.311-4.343
		c0.759,0,1.457,0.259,2.019,0.653v-3.674c0.137-0.046,0.319-0.076,0.486-0.076c0.182,0,0.364,0.045,0.501,0.076v11.083
		C274.249,192.727,274.098,192.757,273.931,192.757z M273.368,186.107c-0.546-0.455-1.245-0.684-1.958-0.684
		c-1.762,0-2.354,1.731-2.354,3.492c0,1.352,0.425,3.112,2.126,3.112c0.819,0,1.654-0.41,2.186-1.047V186.107z"/>
	<path fill="#252525" d="M282.494,192.833c-0.698,0-1.595-0.106-2.43-0.41v-10.824c0.106-0.031,0.334-0.076,0.471-0.076
		c0.243,0,0.425,0.045,0.517,0.076v3.841c0.622-0.517,1.412-0.82,2.247-0.82c2.141,0,3.036,1.838,3.036,3.887
		C286.335,191.117,284.999,192.833,282.494,192.833z M283.162,185.47c-0.76,0-1.519,0.318-2.11,0.911v5.45
		c0.41,0.152,0.926,0.243,1.366,0.243c2.11,0,2.885-1.609,2.885-3.507C285.303,187.095,284.878,185.47,283.162,185.47z"/>
	<path fill="#252525" d="M294.003,191.36c0,1.473-0.061,2.521-0.592,3.462c-0.607,1.078-1.807,1.594-2.885,1.594
		c-0.789,0-1.336-0.075-1.821-0.242c-0.046-0.092-0.062-0.243-0.062-0.365c0-0.091,0.03-0.288,0.062-0.379
		c0.455,0.137,1.002,0.242,1.73,0.242c1.67,0,2.581-1.199,2.581-3.279v-0.531c-0.774,0.684-1.64,0.972-2.43,0.972
		c-0.85,0-1.518-0.212-1.943-0.729c-0.471-0.562-0.531-1.382-0.531-2.201v-5.132c0.122-0.03,0.319-0.076,0.471-0.076
		c0.183,0,0.38,0.046,0.517,0.076v4.965c0,0.729,0.061,1.336,0.334,1.746c0.243,0.349,0.638,0.531,1.229,0.531
		c0.941,0,1.837-0.501,2.354-1.002v-6.24c0.137-0.03,0.334-0.076,0.516-0.076c0.152,0,0.35,0.046,0.471,0.076V191.36z"/>
</g>
<g>
	<path fill="#252525" d="M151.961,201.762h-2.991v9.474c-0.121,0.045-0.349,0.075-0.516,0.075s-0.395-0.03-0.517-0.075v-9.474
		h-2.991c-0.045-0.092-0.076-0.259-0.076-0.396c0-0.121,0.031-0.288,0.076-0.395h7.015c0.045,0.106,0.075,0.273,0.075,0.395
		C152.036,201.503,152.006,201.67,151.961,201.762z"/>
	<path fill="#252525" d="M154.162,201.776c-0.35,0-0.638-0.304-0.638-0.668s0.288-0.653,0.638-0.653
		c0.349,0,0.652,0.289,0.652,0.653S154.511,201.776,154.162,201.776z M154.663,211.235c-0.137,0.045-0.334,0.075-0.501,0.075
		s-0.35-0.03-0.486-0.075v-7.91c0.122-0.03,0.319-0.076,0.471-0.076c0.167,0,0.396,0.03,0.517,0.076V211.235z"/>
	<path fill="#252525" d="M167.934,211.25c-0.151,0.03-0.304,0.061-0.455,0.061c-0.183,0-0.35-0.045-0.531-0.075v-4.798
		c0-1.67-0.426-2.43-1.838-2.43c-0.729,0-1.7,0.38-2.308,0.82c0.122,0.425,0.152,0.896,0.152,1.366v5.041
		c-0.152,0.045-0.304,0.075-0.456,0.075c-0.197,0-0.379-0.03-0.531-0.075v-4.798c0-1.67-0.379-2.43-1.791-2.43
		c-0.76,0-1.655,0.426-2.247,0.881v6.347c-0.167,0.045-0.364,0.075-0.547,0.075c-0.151,0-0.318-0.03-0.44-0.075v-7.91
		c0.076-0.03,0.243-0.061,0.41-0.061c0.137,0,0.304,0.03,0.41,0.061l0.075,0.789h0.016c0.835-0.683,1.792-0.941,2.565-0.941
		c0.774,0,1.519,0.259,1.959,0.79c0.061,0.061,0.106,0.137,0.151,0.212c0.805-0.652,1.838-1.002,2.824-1.002
		c0.774,0,1.563,0.259,2.004,0.79c0.486,0.577,0.577,1.412,0.577,2.231V211.25z"/>
	<path fill="#252525" d="M175.738,207.546h-5.087c0.062,1.746,0.881,3.066,2.779,3.066c0.683,0,1.32-0.091,1.882-0.228
		c0.03,0.076,0.062,0.228,0.062,0.319c0,0.151-0.031,0.288-0.076,0.395c-0.593,0.182-1.336,0.288-1.959,0.288
		c-1.199,0-2.11-0.379-2.672-0.986c-0.668-0.729-1.018-1.822-1.018-3.082c0-2.202,1.108-4.146,3.325-4.146
		c1.989,0,2.778,1.64,2.778,3.645C175.753,207.045,175.753,207.318,175.738,207.546z M174.767,206.817c0-1.397-0.152-2.9-1.838-2.9
		c-1.473,0-2.186,1.352-2.277,2.9H174.767z"/>
	<path fill="#252525" d="M179.322,211.387c-0.76,0-1.549-0.137-2.096-0.349c-0.045-0.106-0.076-0.289-0.076-0.426
		c0-0.091,0.031-0.318,0.062-0.409c0.562,0.228,1.366,0.409,2.034,0.409c1.153,0,1.867-0.485,1.867-1.442
		c0-0.865-0.44-1.169-1.64-1.609c-1.67-0.606-2.217-1.306-2.217-2.338c0-1.396,1.154-2.05,2.642-2.05
		c0.501,0,1.154,0.092,1.534,0.213c0.045,0.137,0.061,0.273,0.061,0.364c0,0.122-0.03,0.334-0.061,0.44
		c-0.501-0.151-1.033-0.243-1.549-0.243c-1.078,0-1.73,0.41-1.73,1.245c0,0.729,0.409,1.078,1.654,1.549
		c1.139,0.425,2.187,0.851,2.187,2.384C181.994,210.674,180.825,211.387,179.322,211.387z"/>
	<path fill="#252525" d="M194.521,211.235c-0.122,0.045-0.35,0.075-0.517,0.075s-0.395-0.03-0.517-0.075v-4.752h-4.964v4.752
		c-0.122,0.045-0.35,0.075-0.517,0.075s-0.395-0.03-0.517-0.075v-10.264c0.122-0.046,0.35-0.076,0.517-0.076s0.395,0.03,0.517,0.076
		v4.691h4.964v-4.691c0.122-0.046,0.35-0.076,0.517-0.076s0.395,0.03,0.517,0.076V211.235z"/>
	<path fill="#252525" d="M197.542,201.776c-0.35,0-0.638-0.304-0.638-0.668s0.288-0.653,0.638-0.653
		c0.349,0,0.652,0.289,0.652,0.653S197.891,201.776,197.542,201.776z M198.043,211.235c-0.137,0.045-0.334,0.075-0.501,0.075
		s-0.35-0.03-0.486-0.075v-7.91c0.122-0.03,0.319-0.076,0.471-0.076c0.167,0,0.396,0.03,0.517,0.076V211.235z"/>
	<path fill="#252525" d="M206.028,209.914c0,1.139-0.061,2.505-0.607,3.446c-0.652,1.124-1.821,1.609-2.99,1.609
		c-0.668,0-1.245-0.075-1.731-0.242c-0.045-0.092-0.061-0.243-0.061-0.365c0-0.091,0.03-0.272,0.061-0.364
		c0.471,0.122,1.018,0.213,1.564,0.213c1.913,0,2.778-1.185,2.778-3.265v-0.638c-0.593,0.623-1.428,0.927-2.11,0.927
		c-2.02,0-3.067-1.564-3.067-3.766c0-2.702,1.595-4.297,3.948-4.297c0.622,0,1.563,0.183,2.216,0.44V209.914z M205.042,204.1
		c-0.547-0.152-0.941-0.197-1.321-0.197c-1.928,0-2.839,1.624-2.839,3.521c0,1.686,0.638,3.007,2.126,3.007
		c0.759,0,1.533-0.38,2.034-0.911V204.1z"/>
	<path fill="#252525" d="M214.319,211.235c-0.137,0.045-0.304,0.075-0.455,0.075c-0.183,0-0.38-0.03-0.532-0.075v-4.798
		c0-1.67-0.425-2.43-1.837-2.43c-0.759,0-1.67,0.426-2.262,0.881v6.347c-0.167,0.045-0.35,0.075-0.517,0.075
		c-0.151,0-0.334-0.03-0.471-0.075v-11.083c0.137-0.046,0.35-0.076,0.486-0.076s0.364,0.03,0.501,0.076v3.901
		c0.805-0.622,1.761-0.881,2.505-0.881c0.774,0,1.563,0.259,2.004,0.79c0.486,0.577,0.577,1.412,0.577,2.231V211.235z"/>
	<path fill="#252525" d="M222.139,207.546h-5.087c0.062,1.746,0.881,3.066,2.779,3.066c0.683,0,1.32-0.091,1.882-0.228
		c0.03,0.076,0.062,0.228,0.062,0.319c0,0.151-0.031,0.288-0.076,0.395c-0.593,0.182-1.336,0.288-1.959,0.288
		c-1.199,0-2.11-0.379-2.672-0.986c-0.668-0.729-1.018-1.822-1.018-3.082c0-2.202,1.108-4.146,3.325-4.146
		c1.989,0,2.778,1.64,2.778,3.645C222.153,207.045,222.153,207.318,222.139,207.546z M221.167,206.817c0-1.397-0.152-2.9-1.838-2.9
		c-1.473,0-2.186,1.352-2.277,2.9H221.167z"/>
	<path fill="#252525" d="M227.499,204.054c-0.881,0.121-1.838,0.44-2.551,0.987v6.194c-0.152,0.045-0.334,0.075-0.501,0.075
		s-0.334-0.03-0.486-0.075v-7.91c0.091-0.03,0.228-0.061,0.38-0.061c0.121,0,0.288,0.03,0.41,0.061l0.075,0.972h0.016
		c0.652-0.562,1.791-1.032,2.657-1.124c0.03,0.092,0.061,0.259,0.061,0.396C227.56,203.72,227.529,203.917,227.499,204.054z"/>
	<path fill="#252525" d="M238.521,211.235h-5.588v-10.264h5.36c0.045,0.106,0.075,0.273,0.075,0.395c0,0.137-0.03,0.304-0.075,0.396
		h-4.327v3.765h3.734c0.03,0.076,0.076,0.273,0.076,0.395c0,0.122-0.03,0.289-0.076,0.41h-3.734v4.114h4.555
		c0.045,0.106,0.075,0.273,0.075,0.396C238.597,210.977,238.566,211.144,238.521,211.235z"/>
	<path fill="#252525" d="M245.947,211.311c-0.137,0-0.304-0.045-0.396-0.075l-0.091-0.911h-0.016
		c-0.652,0.684-1.427,1.062-2.292,1.062c-2.096,0-3.098-1.746-3.098-3.871c0-2.11,0.896-4.343,3.311-4.343
		c0.759,0,1.457,0.259,2.019,0.653v-3.674c0.137-0.046,0.319-0.076,0.486-0.076c0.182,0,0.364,0.045,0.501,0.076v11.083
		C246.266,211.28,246.114,211.311,245.947,211.311z M245.385,204.661c-0.546-0.455-1.245-0.684-1.958-0.684
		c-1.762,0-2.354,1.731-2.354,3.492c0,1.352,0.425,3.112,2.126,3.112c0.819,0,1.654-0.41,2.186-1.047V204.661z"/>
	<path fill="#252525" d="M254.403,208.229c0,2.309-0.956,3.158-2.96,3.158c-2.05,0-2.915-0.85-2.915-3.082v-4.979
		c0.136-0.046,0.318-0.076,0.485-0.076c0.213,0,0.38,0.046,0.501,0.076v4.858c0,1.473,0.228,2.444,1.943,2.444
		c1.609,0,1.959-0.941,1.959-2.475v-4.828c0.121-0.046,0.334-0.076,0.501-0.076s0.349,0.03,0.485,0.076V208.229z"/>
	<path fill="#252525" d="M261.556,204.281c-0.486-0.197-1.124-0.318-1.686-0.318c-1.974,0-2.702,1.533-2.702,3.386
		c0,1.821,0.698,3.233,2.687,3.233c0.531,0,1.169-0.091,1.64-0.228c0.03,0.091,0.062,0.197,0.062,0.319
		c0,0.182-0.031,0.318-0.076,0.425c-0.44,0.182-1.154,0.288-1.716,0.288c-2.475,0-3.629-1.624-3.629-4.008
		c0-2.475,1.261-4.206,3.675-4.206c0.576,0,1.26,0.137,1.73,0.35c0.046,0.121,0.061,0.243,0.061,0.38
		C261.601,204.054,261.586,204.175,261.556,204.281z"/>
	<path fill="#252525" d="M268.737,209.292c0,0.546,0,1.229,0.03,1.943c-0.106,0.045-0.273,0.075-0.41,0.075
		c-0.121,0-0.288-0.03-0.41-0.075c-0.045-0.243-0.075-0.562-0.091-0.851h-0.015c-0.517,0.638-1.428,1.002-2.323,1.002
		c-1.412,0-2.597-0.789-2.597-2.414c0-0.926,0.38-1.609,0.972-2.034c0.668-0.471,1.549-0.622,2.49-0.622
		c0.531,0,0.972,0.03,1.366,0.091v-0.44c0-1.519-0.622-2.02-1.897-2.02c-0.714,0-1.594,0.152-2.141,0.289
		c-0.03-0.076-0.061-0.243-0.061-0.396c0-0.105,0.03-0.258,0.075-0.349c0.653-0.197,1.519-0.319,2.247-0.319
		c1.807,0,2.764,0.82,2.764,2.673V209.292z M267.75,207.151c-0.44-0.062-0.896-0.092-1.29-0.092c-0.744,0-1.412,0.137-1.867,0.486
		c-0.41,0.304-0.638,0.789-0.638,1.412c0,1.108,0.713,1.64,1.7,1.64c0.819,0,1.686-0.395,2.095-1.018V207.151z"/>
	<path fill="#252525" d="M275.19,211.159c-0.396,0.137-0.987,0.228-1.428,0.228c-1.503,0-2.217-0.713-2.217-2.398V204.1h-1.366
		c-0.03-0.076-0.045-0.259-0.045-0.35c0-0.076,0.015-0.258,0.045-0.334l1.366-0.091v-2.065c0.122-0.045,0.319-0.075,0.486-0.075
		s0.38,0.03,0.501,0.075v2.065h2.231c0.03,0.076,0.062,0.304,0.062,0.38c0,0.105-0.031,0.288-0.062,0.395h-2.231v4.798
		c0,1.199,0.35,1.7,1.29,1.7c0.517,0,1.018-0.076,1.367-0.183c0.03,0.076,0.061,0.259,0.061,0.364
		C275.251,210.916,275.235,211.022,275.19,211.159z"/>
	<path fill="#252525" d="M277.361,201.776c-0.35,0-0.638-0.304-0.638-0.668s0.288-0.653,0.638-0.653
		c0.349,0,0.652,0.289,0.652,0.653S277.71,201.776,277.361,201.776z M277.862,211.235c-0.137,0.045-0.334,0.075-0.501,0.075
		s-0.35-0.03-0.486-0.075v-7.91c0.122-0.03,0.319-0.076,0.471-0.076c0.167,0,0.396,0.03,0.517,0.076V211.235z"/>
	<path fill="#252525" d="M282.949,211.387c-1.989,0-3.265-1.366-3.265-4.099c0-2.733,1.291-4.115,3.279-4.115
		c1.989,0,3.249,1.352,3.249,4.084C286.213,209.99,284.938,211.387,282.949,211.387z M282.964,203.917
		c-1.457,0-2.246,1.124-2.246,3.355s0.773,3.37,2.231,3.37c1.457,0,2.231-1.139,2.231-3.37S284.422,203.917,282.964,203.917z"/>
	<path fill="#252525" d="M294.063,211.25c-0.121,0.03-0.304,0.061-0.486,0.061c-0.151,0-0.349-0.03-0.501-0.075v-4.813
		c0-0.729-0.091-1.29-0.304-1.685c-0.258-0.486-0.743-0.729-1.533-0.729c-0.759,0-1.67,0.426-2.262,0.881v6.347
		c-0.167,0.045-0.334,0.075-0.517,0.075c-0.151,0-0.334-0.03-0.471-0.075v-7.91c0.106-0.046,0.289-0.061,0.395-0.061
		c0.152,0,0.334,0.015,0.426,0.061l0.075,0.789h0.016c0.835-0.683,1.792-0.941,2.565-0.941c0.774,0,1.579,0.259,2.02,0.79
		c0.486,0.577,0.577,1.412,0.577,2.231V211.25z"/>
</g>
<g>
	<path fill="#AA9244" d="M119.161,109.748c-0.875,0.135-1.785,0.202-2.829,0.202c-0.943,0-1.886-0.033-2.526-0.168l-4.614-8.184
		h-1.987v8.184c-0.842,0.135-1.549,0.168-2.458,0.168c-0.808,0-1.515-0.033-2.357-0.168V87.017c1.549-0.101,4.782-0.168,6.735-0.168
		c5.725,0,8.587,2.021,8.587,7.274c0,2.795-1.684,5.59-4.041,6.6L119.161,109.748z M109.428,90.789c-0.741,0-1.65,0.033-2.223,0.067
		v6.734h1.684c2.761,0,3.974-1.01,3.974-3.502S111.651,90.789,109.428,90.789z"/>
	<path fill="#AA9244" d="M134.754,104.899c0,1.447,0.034,3.098,0.034,4.883c-0.539,0.135-1.448,0.168-2.021,0.168
		c-0.64,0-1.482-0.067-2.021-0.168c-0.067-0.404-0.135-1.111-0.168-1.55h-0.067c-1.145,1.179-3.098,1.887-4.883,1.887
		c-3.368,0-5.792-2.088-5.792-5.557c0-5.389,4.782-6.298,8.79-6.298c0.27,0,0.909,0.034,1.448,0.067c0-0.202-0.034-0.64-0.067-0.809
		c-0.236-1.38-1.145-1.953-3.099-1.953c-1.515,0-3.637,0.304-5.253,0.708c-0.168-0.472-0.269-1.28-0.269-1.887
		c0-0.505,0.067-1.279,0.202-1.616c1.886-0.572,4.209-0.875,6.129-0.875c4.209,0,7.038,1.953,7.038,6.331V104.899z M130.106,101.565
		c-0.404-0.034-0.943-0.067-1.414-0.067c-3.031,0-4.209,1.212-4.209,2.728c0,1.313,0.875,2.223,2.391,2.223
		c1.111,0,2.357-0.539,3.233-1.313V101.565z"/>
	<path fill="#AA9244" d="M153.311,109.782c-0.539,0.135-1.684,0.168-2.223,0.168c-0.572,0-1.886-0.067-2.425-0.168V98.265
		c0-1.818-0.943-2.593-2.458-2.593c-1.212,0-2.593,0.438-3.67,1.111v12.999c-0.775,0.135-1.853,0.168-2.458,0.168
		c-0.539,0-1.516-0.033-2.189-0.168V92.236c0.438-0.101,1.516-0.168,2.021-0.168c0.472,0,1.448,0.067,1.953,0.168l0.236,1.55
		c1.516-1.111,3.705-1.886,5.658-1.886c3.704,0,5.557,2.289,5.557,6.129V109.782z"/>
	<path fill="#AA9244" d="M172.102,109.782c-0.572,0.101-1.751,0.168-2.525,0.168c-0.674,0-2.055-0.067-2.56-0.168l-4.479-7.544
		l-1.448,1.381v6.163c-0.606,0.135-1.853,0.168-2.392,0.168c-0.808,0-1.684-0.067-2.256-0.168v-24.55
		c0.741-0.102,1.65-0.169,2.256-0.169c0.809,0,1.65,0.067,2.392,0.169v13.47l3.604-3.502c0.977-0.977,1.649-2.088,1.784-2.964
		c0.573-0.101,1.65-0.168,2.257-0.168c0.707,0,1.684,0.067,2.155,0.168c-0.135,1.752-1.011,3.334-2.93,5.254l-2.29,2.223
		L172.102,109.782z"/>
	<path fill="#AA9244" d="M187.291,102.643h-10.642c0.067,2.189,1.583,3.806,4.513,3.806c1.583,0,3.199-0.202,4.58-0.572
		c0.202,0.909,0.337,1.919,0.337,2.828c0,0.135,0,0.304-0.034,0.674c-1.717,0.505-3.502,0.741-5.253,0.741
		c-6.398,0-9.059-3.671-9.059-9.025c0-4.682,2.626-9.193,8.317-9.193c5.389,0,7.342,3.974,7.342,8.352
		C187.393,100.857,187.393,101.767,187.291,102.643z M182.745,99.309c0-2.121-0.572-3.906-2.762-3.906
		c-2.088,0-3.199,1.65-3.334,3.906H182.745z"/>
	<path fill="#AA9244" d="M204.466,109.782c-0.539,0.101-1.448,0.168-2.155,0.168c-0.64,0-1.381-0.067-1.853-0.168l-0.134-1.55
		c-1.213,1.179-2.762,1.887-4.58,1.887c-5.019,0-7.173-4.008-7.173-8.823c0-5.187,2.323-9.396,7.678-9.396
		c1.313,0,2.829,0.403,3.569,0.875v-7.543c0.606-0.102,1.617-0.169,2.357-0.169c0.909,0,1.616,0.102,2.29,0.169V109.782z
		 M199.818,96.244c-0.808-0.37-1.852-0.572-2.728-0.572c-2.728,0-3.738,2.425-3.738,5.354c0,2.458,0.606,5.253,3.334,5.253
		c1.313,0,2.324-0.538,3.132-1.212V96.244z"/>
	<path fill="#AA9244" d="M216.76,90.317c-1.415,0-2.56-1.146-2.56-2.56s1.145-2.56,2.56-2.56c1.414,0,2.56,1.146,2.56,2.56
		S218.174,90.317,216.76,90.317z M219.083,109.782c-0.605,0.135-1.852,0.168-2.391,0.168c-0.809,0-1.684-0.067-2.257-0.168V92.236
		c0.741-0.101,1.65-0.168,2.257-0.168c0.809,0,1.65,0.067,2.391,0.168V109.782z"/>
	<path fill="#AA9244" d="M237.941,109.782c-0.539,0.135-1.684,0.168-2.223,0.168c-0.572,0-1.886-0.067-2.425-0.168V98.265
		c0-1.818-0.943-2.593-2.458-2.593c-1.213,0-2.594,0.438-3.671,1.111v12.999c-0.774,0.135-1.853,0.168-2.458,0.168
		c-0.539,0-1.516-0.033-2.189-0.168V92.236c0.438-0.101,1.516-0.168,2.021-0.168c0.472,0,1.448,0.067,1.953,0.168l0.236,1.55
		c1.515-1.111,3.704-1.886,5.657-1.886c3.704,0,5.557,2.289,5.557,6.129V109.782z"/>
	<path fill="#AA9244" d="M258.788,109.445c-1.011,0.404-2.223,0.674-4.176,0.674c-3.806,0-5.691-1.853-5.691-5.557v-8.857h-2.896
		c-0.135-0.505-0.235-1.347-0.235-1.784c0-0.404,0.101-1.146,0.202-1.482l2.93-0.202v-4.513c0.37-0.066,1.549-0.134,2.323-0.134
		c0.842,0,1.886,0.067,2.324,0.134v4.513h4.85c0.134,0.472,0.201,1.146,0.201,1.516c0,0.404-0.033,1.482-0.168,1.953h-4.883v8.184
		c0,1.684,0.673,2.425,2.323,2.425c0.909,0,2.021-0.135,2.795-0.404c0.135,0.438,0.304,1.279,0.304,2.055
		C258.99,108.367,258.923,109.075,258.788,109.445z"/>
	<path fill="#AA9244" d="M276.603,98.029v11.753c-0.538,0.135-1.684,0.168-2.223,0.168c-0.572,0-1.886-0.067-2.425-0.168V98.299
		c0-1.819-0.942-2.627-2.458-2.627c-1.212,0-2.694,0.438-3.771,1.111v12.999c-0.774,0.135-1.853,0.168-2.458,0.168
		c-0.539,0-1.516-0.033-2.189-0.168v-24.55c0.438-0.102,1.414-0.169,2.256-0.169c0.843,0,1.887,0.067,2.392,0.169v8.25
		c1.481-0.942,3.536-1.582,5.32-1.582C274.751,91.9,276.603,94.189,276.603,98.029z"/>
	<path fill="#AA9244" d="M294.25,102.643h-10.642c0.067,2.189,1.583,3.806,4.513,3.806c1.583,0,3.199-0.202,4.58-0.572
		c0.202,0.909,0.337,1.919,0.337,2.828c0,0.135,0,0.304-0.034,0.674c-1.717,0.505-3.502,0.741-5.253,0.741
		c-6.398,0-9.059-3.671-9.059-9.025c0-4.682,2.626-9.193,8.317-9.193c5.389,0,7.342,3.974,7.342,8.352
		C294.352,100.857,294.352,101.767,294.25,102.643z M289.704,99.309c0-2.121-0.572-3.906-2.762-3.906
		c-2.088,0-3.199,1.65-3.334,3.906H289.704z"/>
</g>
<g>
	<path fill="#AA9244" d="M99.727,139.553c-0.404,0.101-1.617,0.168-2.29,0.168c-0.708,0-1.751-0.067-2.122-0.168l-2.694-11.215
		h-0.067l-2.728,11.215c-0.337,0.067-1.617,0.168-2.223,0.168c-0.774,0-2.054-0.101-2.324-0.168l-3.705-12.393
		c-0.471-1.583-0.774-3.536-0.808-5.153c0.539-0.101,1.28-0.168,2.088-0.168c0.741,0,1.751,0.101,2.189,0.168
		c0,1.313,0.236,2.964,0.606,4.513l1.987,7.914h0.067l3.267-12.427c0.37-0.067,0.875-0.135,1.717-0.135
		c0.707,0,1.246,0.067,1.684,0.135l3.065,12.427h0.067l2.357-7.914c0.404-1.515,0.674-3.199,0.674-4.513
		c0.438-0.067,1.448-0.168,2.189-0.168c0.808,0,1.481,0.067,2.021,0.168c-0.034,1.752-0.27,3.064-0.774,4.614L99.727,139.553z"/>
	<path fill="#AA9244" d="M113.704,139.89c-5.085,0-8.318-3.267-8.318-9.06c0-5.759,3.199-9.159,8.318-9.159
		c5.119,0,8.318,3.367,8.318,9.126S118.823,139.89,113.704,139.89z M113.704,125.308c-2.189,0-3.536,1.481-3.536,5.489
		c0,4.007,1.347,5.455,3.536,5.455s3.536-1.448,3.536-5.455C117.24,126.756,115.893,125.308,113.704,125.308z"/>
	<path fill="#AA9244" d="M134.18,125.577c-1.751,0.27-3.637,0.875-5.321,1.751v12.225c-0.472,0.101-1.482,0.168-2.29,0.168
		s-1.987-0.067-2.357-0.168v-17.546c0.505-0.067,1.347-0.168,2.021-0.168c0.573,0,1.482,0.067,1.953,0.168l0.27,2.155
		c1.246-1.111,3.502-2.323,5.691-2.491c0.067,0.269,0.135,1.245,0.135,1.953C134.281,124.297,134.247,125.105,134.18,125.577z"/>
	<path fill="#AA9244" d="M141.185,139.553c-0.606,0.135-1.853,0.168-2.391,0.168c-0.808,0-1.684-0.067-2.256-0.168v-24.55
		c0.741-0.102,1.65-0.169,2.256-0.169c0.808,0,1.751,0.067,2.391,0.169V139.553z"/>
	<path fill="#AA9244" d="M159.337,139.553c-0.539,0.101-1.448,0.168-2.155,0.168c-0.641,0-1.381-0.067-1.853-0.168l-0.135-1.55
		c-1.212,1.179-2.762,1.887-4.58,1.887c-5.018,0-7.173-4.008-7.173-8.823c0-5.187,2.324-9.396,7.678-9.396
		c1.313,0,2.829,0.403,3.57,0.875v-7.543c0.606-0.102,1.616-0.169,2.357-0.169c0.909,0,1.616,0.102,2.29,0.169V139.553z
		 M154.689,126.015c-0.809-0.37-1.853-0.572-2.728-0.572c-2.729,0-3.738,2.425-3.738,5.354c0,2.458,0.606,5.253,3.334,5.253
		c1.313,0,2.323-0.538,3.132-1.212V126.015z"/>
	<path fill="#AA9244" d="M163.446,119.684c-1.044-0.37-1.853-1.313-1.853-2.525c0-1.415,0.876-2.425,2.323-2.425
		c1.752,0,2.796,1.414,2.796,3.334c0,2.492-1.448,5.422-3.536,7.273c-0.741-0.303-1.348-0.808-1.752-1.481
		C162.436,122.715,163.277,121.03,163.446,119.684z"/>
	<path fill="#AA9244" d="M172.774,139.89c-1.987,0-4.075-0.304-5.691-0.843c-0.102-0.505-0.135-1.145-0.135-1.818
		c0-0.538,0.135-1.313,0.27-1.784c1.549,0.538,3.771,0.909,5.085,0.909c1.818,0,2.862-0.606,2.862-1.853
		c0-1.077-0.842-1.583-3.064-2.29c-3.536-1.111-5.187-2.762-5.187-5.32c0-3.806,3.503-5.22,6.837-5.22
		c1.549,0,3.267,0.269,4.445,0.64c0.135,0.505,0.202,1.212,0.202,1.616c0,0.438-0.135,1.347-0.304,1.92
		c-1.145-0.337-2.728-0.606-4.041-0.606c-1.616,0-2.728,0.404-2.728,1.414c0,1.078,1.246,1.516,3.199,2.155
		c3.401,1.111,5.018,2.526,5.018,5.187C179.543,138.104,176.243,139.89,172.774,139.89z"/>
	<path fill="#AA9244" d="M199.514,139.216c-1.011,0.404-2.223,0.674-4.176,0.674c-3.806,0-5.691-1.853-5.691-5.557v-8.857h-2.896
		c-0.135-0.505-0.235-1.347-0.235-1.784c0-0.404,0.101-1.146,0.202-1.482l2.93-0.202v-4.513c0.37-0.066,1.549-0.134,2.323-0.134
		c0.842,0,1.887,0.067,2.324,0.134v4.513h4.85c0.134,0.472,0.201,1.146,0.201,1.516c0,0.404-0.033,1.482-0.168,1.953h-4.883v8.184
		c0,1.684,0.673,2.425,2.323,2.425c0.909,0,2.021-0.135,2.795-0.404c0.135,0.438,0.304,1.279,0.304,2.055
		C199.716,138.138,199.648,138.846,199.514,139.216z"/>
	<path fill="#AA9244" d="M208.943,139.89c-5.085,0-8.317-3.267-8.317-9.06c0-5.759,3.199-9.159,8.317-9.159
		c5.119,0,8.318,3.367,8.318,9.126S214.062,139.89,208.943,139.89z M208.943,125.308c-2.188,0-3.536,1.481-3.536,5.489
		c0,4.007,1.348,5.455,3.536,5.455c2.189,0,3.536-1.448,3.536-5.455C212.479,126.756,211.133,125.308,208.943,125.308z"/>
	<path fill="#AA9244" d="M227.365,139.553c-1.044,0-2.458-0.169-3.3-0.404v8.318c-0.606,0.101-1.616,0.168-2.357,0.168
		c-0.909,0-1.616-0.101-2.29-0.168v-25.426c0.539-0.102,1.448-0.169,2.155-0.169c0.64,0,1.347,0.067,1.818,0.169l0.169,1.448
		c1.077-1.011,3.03-1.818,4.849-1.818c4.816,0,6.972,3.939,6.972,8.452C235.381,135.343,232.687,139.553,227.365,139.553z
		 M227.433,125.442c-1.246,0-2.559,0.505-3.367,1.246v8.924c0.64,0.202,1.886,0.337,2.762,0.337c2.491,0,3.771-2.055,3.771-5.456
		C230.599,127.16,229.386,125.442,227.433,125.442z"/>
	<path fill="#AA9244" d="M255.553,139.553c-0.505,0.101-1.414,0.168-2.391,0.168c-0.943,0-1.785-0.067-2.392-0.168v-17.411
		l-4.781,3.166c-1.146-1.044-1.953-2.458-2.257-3.671l7.914-4.85c0.472-0.101,1.448-0.168,1.953-0.168
		c0.572,0,1.616,0.101,1.953,0.168V139.553z"/>
	<path fill="#AA9244" d="M267.778,139.89c-1.818,0-4.513-0.371-6.365-1.011c-0.067-0.235-0.168-0.842-0.168-1.516
		c0-0.74,0.101-1.516,0.303-2.155c1.549,0.472,3.94,0.774,5.826,0.774c2.391,0,3.94-1.279,3.94-3.569
		c0-0.977-0.27-1.853-0.843-2.425c-0.74-0.74-1.986-1.044-3.805-1.044h-4.412v-12.157h12.729c0.102,0.539,0.169,1.381,0.169,1.987
		c0,0.64-0.102,1.751-0.169,2.155h-8.419v4.176h1.482c2.626,0,4.714,0.472,6.196,1.751c1.313,1.146,2.054,2.896,2.054,5.321
		C276.298,137.33,272.358,139.89,267.778,139.89z"/>
	<path fill="#AA9244" d="M286.199,139.89c-5.388,0-8.015-3.975-8.015-11.72c0-7.812,2.728-11.72,8.116-11.72
		c5.354,0,7.98,3.907,7.98,11.72C294.281,135.915,291.554,139.89,286.199,139.89z M286.233,120.391
		c-2.155,0-3.099,1.987-3.099,7.779c0,5.691,0.943,7.779,3.099,7.779s3.098-2.088,3.098-7.779
		C289.331,122.378,288.389,120.391,286.233,120.391z"/>
</g>
<g>
	<path fill="#AA9244" d="M146.238,162.555c0,5.019-2.357,7.106-7.611,7.106c-5.119,0-7.476-2.088-7.476-7.106v-10.776
		c0.472-0.067,1.381-0.168,2.29-0.168c0.808,0,1.818,0.067,2.357,0.168v10.743c0,2.627,0.774,3.569,2.896,3.569
		c2.155,0,2.896-0.942,2.896-3.569v-10.743c0.472-0.101,1.516-0.168,2.357-0.168s1.953,0.101,2.29,0.168V162.555z"/>
	<path fill="#AA9244" d="M164.761,169.324c-0.538,0.135-1.684,0.168-2.223,0.168c-0.572,0-1.886-0.067-2.424-0.168v-11.518
		c0-1.818-0.943-2.593-2.459-2.593c-1.212,0-2.593,0.438-3.671,1.111v12.999c-0.774,0.135-1.852,0.168-2.458,0.168
		c-0.539,0-1.516-0.033-2.188-0.168v-17.546c0.438-0.101,1.515-0.168,2.021-0.168c0.471,0,1.447,0.067,1.953,0.168l0.235,1.55
		c1.516-1.111,3.704-1.886,5.657-1.886c3.705,0,5.557,2.289,5.557,6.129V169.324z"/>
	<path fill="#AA9244" d="M170.453,149.859c-1.415,0-2.56-1.146-2.56-2.56s1.145-2.56,2.56-2.56c1.414,0,2.56,1.146,2.56,2.56
		S171.867,149.859,170.453,149.859z M172.776,169.324c-0.605,0.135-1.852,0.168-2.391,0.168c-0.809,0-1.684-0.067-2.257-0.168
		v-17.546c0.741-0.101,1.65-0.168,2.257-0.168c0.809,0,1.65,0.067,2.391,0.168V169.324z"/>
	<path fill="#AA9244" d="M190.154,156.932l-5.052,12.393c-0.337,0.067-1.213,0.168-2.088,0.168c-0.909,0-1.886-0.101-2.29-0.168
		l-4.85-12.46c-0.64-1.685-0.942-3.334-0.942-5.086c0.605-0.101,1.447-0.168,2.155-0.168c0.977,0,1.649,0.067,2.188,0.168
		c0,1.246,0.169,2.627,0.606,3.94l3.098,8.891h0.067l3.199-8.891c0.438-1.313,0.606-2.458,0.606-3.94
		c0.472-0.067,1.481-0.168,2.223-0.168s1.516,0.067,2.055,0.168C191.131,153.665,190.794,155.382,190.154,156.932z"/>
	<path fill="#AA9244" d="M207.396,162.185h-10.642c0.067,2.189,1.583,3.806,4.513,3.806c1.583,0,3.199-0.202,4.58-0.572
		c0.202,0.909,0.337,1.919,0.337,2.828c0,0.135,0,0.304-0.034,0.674c-1.717,0.505-3.502,0.741-5.253,0.741
		c-6.398,0-9.059-3.671-9.059-9.025c0-4.682,2.626-9.193,8.317-9.193c5.389,0,7.342,3.974,7.342,8.352
		C207.498,160.399,207.498,161.309,207.396,162.185z M202.851,158.851c0-2.121-0.572-3.906-2.762-3.906
		c-2.088,0-3.199,1.65-3.334,3.906H202.851z"/>
	<path fill="#AA9244" d="M219.655,155.349c-1.751,0.27-3.637,0.875-5.32,1.751v12.225c-0.472,0.101-1.481,0.168-2.29,0.168
		s-1.987-0.067-2.357-0.168v-17.546c0.505-0.067,1.347-0.168,2.021-0.168c0.572,0,1.481,0.067,1.953,0.168l0.27,2.155
		c1.246-1.111,3.502-2.323,5.691-2.491c0.067,0.269,0.135,1.245,0.135,1.953C219.757,154.068,219.723,154.877,219.655,155.349z"/>
	<path fill="#AA9244" d="M226.459,169.661c-1.987,0-4.075-0.304-5.691-0.843c-0.102-0.505-0.135-1.145-0.135-1.818
		c0-0.538,0.135-1.313,0.27-1.784c1.549,0.538,3.771,0.909,5.085,0.909c1.818,0,2.862-0.606,2.862-1.853
		c0-1.077-0.842-1.583-3.064-2.29c-3.536-1.111-5.187-2.762-5.187-5.32c0-3.806,3.503-5.22,6.837-5.22
		c1.549,0,3.267,0.269,4.445,0.64c0.135,0.505,0.202,1.212,0.202,1.616c0,0.438-0.135,1.347-0.304,1.92
		c-1.145-0.337-2.728-0.606-4.041-0.606c-1.616,0-2.728,0.404-2.728,1.414c0,1.078,1.246,1.516,3.199,2.155
		c3.401,1.111,5.018,2.526,5.018,5.187C233.228,167.876,229.928,169.661,226.459,169.661z"/>
	<path fill="#AA9244" d="M238.044,149.859c-1.414,0-2.56-1.146-2.56-2.56s1.146-2.56,2.56-2.56s2.56,1.146,2.56,2.56
		S239.458,149.859,238.044,149.859z M240.367,169.324c-0.605,0.135-1.852,0.168-2.391,0.168c-0.809,0-1.684-0.067-2.257-0.168
		v-17.546c0.741-0.101,1.65-0.168,2.257-0.168c0.808,0,1.65,0.067,2.391,0.168V169.324z"/>
	<path fill="#AA9244" d="M254.915,168.987c-1.011,0.404-2.223,0.674-4.176,0.674c-3.806,0-5.691-1.853-5.691-5.557v-8.857h-2.896
		c-0.135-0.505-0.235-1.347-0.235-1.784c0-0.404,0.101-1.146,0.202-1.482l2.93-0.202v-4.513c0.37-0.066,1.549-0.134,2.323-0.134
		c0.842,0,1.886,0.067,2.324,0.134v4.513h4.85c0.134,0.472,0.201,1.146,0.201,1.516c0,0.404-0.033,1.482-0.168,1.953h-4.883v8.184
		c0,1.684,0.673,2.425,2.323,2.425c0.909,0,2.021-0.135,2.795-0.404c0.135,0.438,0.304,1.279,0.304,2.055
		C255.117,167.909,255.05,168.617,254.915,168.987z"/>
	<path fill="#AA9244" d="M259.765,149.859c-1.414,0-2.56-1.146-2.56-2.56s1.146-2.56,2.56-2.56s2.56,1.146,2.56,2.56
		S261.179,149.859,259.765,149.859z M262.088,169.324c-0.605,0.135-1.852,0.168-2.391,0.168c-0.809,0-1.684-0.067-2.257-0.168
		v-17.546c0.741-0.101,1.65-0.168,2.257-0.168c0.808,0,1.65,0.067,2.391,0.168V169.324z"/>
	<path fill="#AA9244" d="M280.071,162.185H269.43c0.067,2.189,1.583,3.806,4.513,3.806c1.583,0,3.199-0.202,4.58-0.572
		c0.202,0.909,0.337,1.919,0.337,2.828c0,0.135,0,0.304-0.034,0.674c-1.717,0.505-3.502,0.741-5.253,0.741
		c-6.398,0-9.06-3.671-9.06-9.025c0-4.682,2.627-9.193,8.318-9.193c5.389,0,7.342,3.974,7.342,8.352
		C280.173,160.399,280.173,161.309,280.071,162.185z M275.525,158.851c0-2.121-0.572-3.906-2.762-3.906
		c-2.088,0-3.199,1.65-3.334,3.906H275.525z"/>
	<path fill="#AA9244" d="M287.549,169.661c-1.987,0-4.075-0.304-5.691-0.843c-0.102-0.505-0.135-1.145-0.135-1.818
		c0-0.538,0.135-1.313,0.27-1.784c1.549,0.538,3.771,0.909,5.085,0.909c1.818,0,2.862-0.606,2.862-1.853
		c0-1.077-0.842-1.583-3.064-2.29c-3.536-1.111-5.187-2.762-5.187-5.32c0-3.806,3.503-5.22,6.837-5.22
		c1.549,0,3.267,0.269,4.445,0.64c0.135,0.505,0.202,1.212,0.202,1.616c0,0.438-0.135,1.347-0.304,1.92
		c-1.145-0.337-2.728-0.606-4.041-0.606c-1.616,0-2.728,0.404-2.728,1.414c0,1.078,1.246,1.516,3.199,2.155
		c3.401,1.111,5.018,2.526,5.018,5.187C294.317,167.876,291.018,169.661,287.549,169.661z"/>
</g>
<path fill="#252525" d="M37.249,88.178c-8.409,0-15.252,6.782-15.252,15.121c0,8.338,6.844,15.122,15.252,15.122
	c8.413,0,15.253-6.784,15.253-15.122C52.502,94.96,45.661,88.178,37.249,88.178 M37.249,122.233c-10.533,0-19.1-8.495-19.1-18.935
	c0-10.441,8.567-18.936,19.1-18.936s19.101,8.495,19.101,18.936C56.349,113.739,47.781,122.233,37.249,122.233"/>
<path fill="#252525" d="M51.853,124.3c-1.478,1.114-2.325,2.954-3.146,4.734c-1.099,2.387-1.611,3.2-2.193,3.482
	c-0.128,0.062-0.268,0.094-0.412,0.094c-0.025,0-0.051-0.001-0.076-0.003c-0.812-0.065-2.589-1.014-3.316-1.42
	c-1.656-0.922-3.529-1.969-5.462-1.969c-1.94,0-3.809,1.047-5.463,1.972c-0.151,0.083-0.316,0.177-0.491,0.277
	c-1.226,0.702-2.081,1.161-2.766,1.161c-0.089,0-0.172-0.006-0.249-0.02c-0.081-0.015-0.156-0.038-0.231-0.072
	c-0.695-0.317-1.28-1.379-2.258-3.5c-0.822-1.782-1.671-3.625-3.143-4.733c-1.51-1.142-3.583-1.43-5.407-1.685
	c-2.586-0.358-3.496-0.64-3.89-1.203c-0.408-0.577-0.389-1.58,0.084-4.284c0.328-1.863,0.698-3.973,0.132-5.792
	c-0.55-1.756-1.963-3.145-3.327-4.487c-1.735-1.709-2.559-2.676-2.559-3.553c0-0.873,0.824-1.839,2.559-3.548
	c1.364-1.343,2.776-2.732,3.327-4.49c0.566-1.821,0.196-3.933-0.132-5.796c-0.473-2.706-0.493-3.706-0.087-4.277
	c0.396-0.569,1.26-0.838,3.89-1.208c1.827-0.253,3.9-0.538,5.407-1.677c1.476-1.114,2.325-2.956,3.146-4.736
	c1.094-2.384,1.604-3.197,2.191-3.482c0.115-0.056,0.242-0.088,0.371-0.095c0.028-0.001,0.069-0.002,0.091-0.002
	c0.68,0,1.7,0.5,3.353,1.427c1.65,0.921,3.524,1.965,5.453,1.965c1.935,0,3.806-1.045,5.458-1.967
	c0.159-0.088,0.339-0.193,0.525-0.303c1.191-0.695,2.023-1.152,2.691-1.152c0.169,0,0.33,0.028,0.476,0.085
	c0.02,0.008,0.038,0.016,0.054,0.024c0.691,0.319,1.275,1.377,2.261,3.511c0.82,1.776,1.667,3.614,3.14,4.726
	c1.509,1.141,3.58,1.425,5.448,1.685c2.586,0.365,3.45,0.633,3.849,1.2c0.403,0.579,0.384,1.579-0.091,4.287
	c-0.326,1.868-0.695,3.984-0.128,5.791c0.55,1.755,1.962,3.145,3.326,4.488c1.733,1.707,2.56,2.673,2.56,3.548
	c0,0.875-0.825,1.84-2.565,3.553c-1.362,1.346-2.772,2.737-3.323,4.49c-0.568,1.816-0.198,3.926,0.131,5.789
	c0.473,2.703,0.495,3.704,0.086,4.287c-0.398,0.562-1.307,0.842-3.883,1.197C55.433,122.871,53.358,123.159,51.853,124.3
	 M34.309,136.099l-7.772,15.516c-0.153,0.307-0.467,0.506-0.813,0.517c-0.01,0-0.018,0-0.028,0c-0.336,0-0.646-0.179-0.815-0.468
	l-3.144-5.434c-0.339-0.593-0.971-0.962-1.646-0.962c-0.118,0-0.235,0.013-0.366,0.039l-5.966,1.079
	c-0.055,0.006-0.113,0.013-0.168,0.013c-0.293,0-0.571-0.135-0.751-0.369c-0.213-0.284-0.249-0.659-0.091-0.975l7.528-15.143
	c0.158-0.319,0.485-0.52,0.843-0.52h0.008c0.361,0.003,0.689,0.213,0.842,0.538c0.11,0.233,0.223,0.473,0.322,0.689
	c1.076,2.333,2.187,4.745,4.604,5.562c0.481,0.163,0.985,0.243,1.496,0.243c1.646,0,3.248-0.803,4.621-1.554
	c0.144-0.077,0.299-0.116,0.453-0.116c0.237,0,0.472,0.089,0.651,0.26C34.414,135.292,34.491,135.733,34.309,136.099
	 M57.405,127.679c-0.134-0.268-0.129-0.582,0.012-0.848c0.14-0.263,0.399-0.444,0.698-0.487c2.489-0.351,4.835-0.825,6.191-2.753
	c1.431-2.042,0.98-4.621,0.545-7.114c-0.308-1.741-0.521-3.142-0.25-4.007c0.247-0.785,1.132-1.699,2.366-2.915
	c1.733-1.706,3.694-3.641,3.694-6.257c0-2.613-1.959-4.543-3.694-6.252c-1.229-1.211-2.115-2.128-2.363-2.914
	c-0.275-0.869-0.061-2.271,0.248-4.012c0.435-2.495,0.886-5.075-0.545-7.115c-1.475-2.098-4.15-2.472-6.51-2.802
	c-1.643-0.226-2.953-0.437-3.616-0.938c-0.65-0.493-1.226-1.667-1.974-3.287c-1.074-2.333-2.187-4.748-4.603-5.562
	c-0.476-0.158-0.98-0.239-1.495-0.239c-1.875,0-3.768,1.059-5.29,1.91c-1.551,0.863-2.714,1.476-3.571,1.476
	c-0.851,0-2.008-0.607-3.574-1.478c-1.515-0.848-3.402-1.904-5.29-1.904c-0.521,0-1.01,0.078-1.487,0.236
	c-2.42,0.815-3.531,3.229-4.619,5.591c-0.738,1.598-1.31,2.767-1.964,3.26c-0.663,0.499-1.972,0.71-3.611,0.936
	c-2.363,0.329-5.04,0.702-6.514,2.802c-1.429,2.043-0.979,4.62-0.536,7.142c0.31,1.79,0.508,3.122,0.239,3.983
	c-0.247,0.788-1.133,1.705-2.366,2.918c-1.73,1.704-3.69,3.636-3.69,6.25c0,2.614,1.962,4.549,3.711,6.272
	c1.219,1.205,2.101,2.118,2.347,2.898c0.267,0.862,0.069,2.193-0.246,4.01c-0.438,2.492-0.888,5.068,0.541,7.109
	c1.354,1.932,3.704,2.406,6.193,2.757c0.3,0.042,0.559,0.224,0.699,0.487c0.141,0.266,0.145,0.58,0.011,0.848L6.781,148.428
	c-0.323,0.648-0.249,1.413,0.191,1.994c0.366,0.477,0.933,0.76,1.519,0.76c0.117,0,0.231-0.009,0.361-0.035l9.572-1.734
	c0.058-0.009,0.114-0.013,0.17-0.013c0.334,0,0.646,0.174,0.815,0.468l4.799,8.302c0.337,0.592,0.978,0.957,1.664,0.957h0.054
	c0.713-0.02,1.353-0.429,1.669-1.058l11.855-23.684c0.053-0.038,0.094-0.089,0.157-0.119c0.121-0.054,0.251-0.08,0.384-0.08
	c0.158,0,0.316,0.038,0.458,0.117l0.418,0.229c1.586,0.887,3.388,1.893,5.221,1.893c0.525,0,1.018-0.08,1.511-0.248
	c2.414-0.812,3.526-3.219,4.606-5.561c0.099-0.216,0.211-0.455,0.321-0.689c0.156-0.325,0.481-0.534,0.842-0.538h0.011
	c0.356,0,0.683,0.203,0.842,0.52l7.526,15.143c0.156,0.316,0.121,0.691-0.094,0.975c-0.18,0.234-0.458,0.369-0.75,0.369
	c-0.056,0-0.113-0.006-0.168-0.013l-5.981-1.083c-0.117-0.024-0.237-0.035-0.357-0.035c-0.667,0-1.297,0.37-1.641,0.964
	l-3.132,5.415c-0.168,0.291-0.479,0.471-0.814,0.471c-0.012,0-0.021,0-0.031-0.002c-0.347-0.01-0.66-0.209-0.812-0.518l-3.272-6.574
	c-0.326-0.656-0.984-1.064-1.717-1.064c-0.298,0-0.585,0.067-0.859,0.201c-0.459,0.226-0.803,0.616-0.969,1.097
	c-0.167,0.481-0.13,0.998,0.098,1.454l5.646,11.354c0.316,0.633,0.954,1.042,1.636,1.062h0.089c0.688,0,1.326-0.365,1.667-0.959
	l4.798-8.3c0.168-0.294,0.482-0.468,0.813-0.468c0.057,0,0.114,0.003,0.17,0.013l9.583,1.735c0.12,0.025,0.242,0.034,0.362,0.034
	c0.589,0,1.139-0.275,1.506-0.76c0.44-0.581,0.515-1.345,0.193-1.994L57.405,127.679z"/>
</svg>
