<?xml version="1.0" encoding="utf-8"?>
<!-- Generator: Adobe Illustrator 16.0.0, SVG Export Plug-In . SVG Version: 6.00 Build 0)  -->
<!DOCTYPE svg PUBLIC "-//W3C//DTD SVG 1.0//EN" "http://www.w3.org/TR/2001/REC-SVG-20010904/DTD/svg10.dtd">
<svg version="1.0" xmlns="http://www.w3.org/2000/svg" xmlns:xlink="http://www.w3.org/1999/xlink" x="0px" y="0px" width="300px"
	 height="300px" viewBox="0 0 300 300" style="enable-background:new 0 0 300 300;" xml:space="preserve">
<g id="Text" style="display:none;">
	<text transform="matrix(1 0 0 1 11.7334 78.1699)" style="display:inline;"><tspan x="0" y="0" style="fill:#58595B; font-family:'FSMatthew-Light'; font-size:25.5693;">W</tspan><tspan x="21.452" y="0" style="fill:#58595B; font-family:'FSMatthew-Light'; font-size:25.5693;">e h</tspan><tspan x="53.029" y="0" style="fill:#58595B; font-family:'FSMatthew-Light'; font-size:25.5693;">a</tspan><tspan x="65.431" y="0" style="fill:#58595B; font-family:'FSMatthew-Light'; font-size:25.5693;">v</tspan><tspan x="77.346" y="0" style="fill:#58595B; font-family:'FSMatthew-Light'; font-size:25.5693;">e </tspan><tspan x="95.295" y="0" style="fill:#58595B; font-family:'FSMatthew-Light'; font-size:25.5693;">o</tspan><tspan x="108.155" y="0" style="fill:#58595B; font-family:'FSMatthew-Light'; font-size:25.5693;">v</tspan><tspan x="120.07" y="0" style="fill:#58595B; font-family:'FSMatthew-Light'; font-size:25.5693;">er </tspan></text>
	<text transform="matrix(1 0 0 1 11.7334 210.8242)" style="display:inline;"><tspan x="0" y="0" style="fill:#58595B; font-family:'FSMatthew-Light'; font-size:25.5693;">and a </tspan><tspan x="63.512" y="0" style="fill:#58595B; font-family:'FSMatthew-Light'; font-size:25.5693;">f</tspan><tspan x="72.563" y="0" style="fill:#58595B; font-family:'FSMatthew-Light'; font-size:25.5693;">u</tspan><tspan x="85.783" y="0" style="fill:#58595B; font-family:'FSMatthew-Light'; font-size:25.5693;">r</tspan><tspan x="94.553" y="0" style="fill:#58595B; font-family:'FSMatthew-Light'; font-size:25.5693;">ther 27 outside </tspan></text>
	<text transform="matrix(1 0 0 1 11.7334 236.3945)" style="display:inline;"><tspan x="0" y="0" style="fill:#58595B; font-family:'FSMatthew-Light'; font-size:25.5693;">of Eu</tspan><tspan x="54.257" y="0" style="fill:#58595B; font-family:'FSMatthew-Light'; font-size:25.5693;">r</tspan><tspan x="62.158" y="0" style="fill:#58595B; font-family:'FSMatthew-Light'; font-size:25.5693;">ope</tspan></text>
	<text transform="matrix(1 0 0 1 10.2178 117.7842)" style="display:inline;"><tspan x="0" y="0" style="fill:#837199; font-family:'FSMatthew-Bold'; font-size:41.8407;">160</tspan><tspan x="67.654" y="0" style="fill:#837199; font-family:'FSMatthew-Bold'; font-size:41.8407; letter-spacing:-1;"> </tspan><tspan x="75.855" y="0" style="fill:#837199; font-family:'FSMatthew-Bold'; font-size:41.8407;">E</tspan><tspan x="98.198" y="0" style="fill:#837199; font-family:'FSMatthew-Bold'; font-size:41.8407;">R</tspan><tspan x="123.637" y="0" style="fill:#837199; font-family:'FSMatthew-Bold'; font-size:41.8407;">AS</tspan><tspan x="172.925" y="0" style="fill:#837199; font-family:'FSMatthew-Bold'; font-size:41.8407;">M</tspan><tspan x="206.732" y="0" style="fill:#837199; font-family:'FSMatthew-Bold'; font-size:41.8407;">U</tspan><tspan x="233.845" y="0" style="fill:#837199; font-family:'FSMatthew-Bold'; font-size:41.8407;">S</tspan><tspan x="256.021" y="0" style="fill:#837199; font-family:'FSMatthew-Bold'; font-size:41.8407;">+</tspan><tspan x="277.358" y="0" style="fill:#837199; font-family:'FSMatthew-Bold'; font-size:41.8407; letter-spacing:-9;"> </tspan><tspan x="277.4" y="0" style="fill:#837199; font-family:'FSMatthew-Bold'; font-size:41.8407;"> </tspan></text>
	<text transform="matrix(1 0 0 1 10.2178 150.3271)" style="display:inline;"><tspan x="0" y="0" style="fill:#837199; font-family:'FSMatthew-Medium'; font-size:29.6399; letter-spacing:-1;">S</tspan><tspan x="12.982" y="0" style="fill:#837199; font-family:'FSMatthew-Medium'; font-size:29.6399;">T</tspan><tspan x="27.12" y="0" style="fill:#837199; font-family:'FSMatthew-Medium'; font-size:29.6399;">UD</tspan><tspan x="64.91" y="0" style="fill:#837199; font-family:'FSMatthew-Medium'; font-size:29.6399;">E</tspan><tspan x="78.899" y="0" style="fill:#837199; font-family:'FSMatthew-Medium'; font-size:29.6399;">N</tspan><tspan x="97.84" y="0" style="fill:#837199; font-family:'FSMatthew-Medium'; font-size:29.6399; letter-spacing:-2;">T</tspan><tspan x="110.495" y="0" style="fill:#837199; font-family:'FSMatthew-Medium'; font-size:29.6399;"> </tspan><tspan x="116.216" y="0" style="fill:#837199; font-family:'FSMatthew-Medium'; font-size:29.6399;">E</tspan><tspan x="130.205" y="0" style="fill:#837199; font-family:'FSMatthew-Medium'; font-size:29.6399;">X</tspan><tspan x="146.241" y="0" style="fill:#837199; font-family:'FSMatthew-Medium'; font-size:29.6399;">C</tspan><tspan x="162.839" y="0" style="fill:#837199; font-family:'FSMatthew-Medium'; font-size:29.6399;">H</tspan><tspan x="181.601" y="0" style="fill:#837199; font-family:'FSMatthew-Medium'; font-size:29.6399;">A</tspan><tspan x="199.147" y="0" style="fill:#837199; font-family:'FSMatthew-Medium'; font-size:29.6399;">NG</tspan><tspan x="236.671" y="0" style="fill:#837199; font-family:'FSMatthew-Medium'; font-size:29.6399;">E </tspan></text>
	<text transform="matrix(1 0 0 1 10.2178 182.8711)" style="display:inline;"><tspan x="0" y="0" style="fill:#837199; font-family:'FSMatthew-Medium'; font-size:29.6399; letter-spacing:-2;">P</tspan><tspan x="12.952" y="0" style="fill:#837199; font-family:'FSMatthew-Medium'; font-size:29.6399;">A</tspan><tspan x="30.499" y="0" style="fill:#837199; font-family:'FSMatthew-Medium'; font-size:29.6399; letter-spacing:-1;">R</tspan><tspan x="45.022" y="0" style="fill:#837199; font-family:'FSMatthew-Medium'; font-size:29.6399;">T</tspan><tspan x="59.161" y="0" style="fill:#837199; font-family:'FSMatthew-Medium'; font-size:29.6399;">N</tspan><tspan x="78.101" y="0" style="fill:#837199; font-family:'FSMatthew-Medium'; font-size:29.6399;">E</tspan><tspan x="92.09" y="0" style="fill:#837199; font-family:'FSMatthew-Medium'; font-size:29.6399;">R</tspan><tspan x="107.058" y="0" style="fill:#837199; font-family:'FSMatthew-Medium'; font-size:29.6399;">S</tspan><tspan x="121.107" y="0" style="fill:#837199; font-family:'FSMatthew-Medium'; font-size:29.6399;">H</tspan><tspan x="139.84" y="0" style="fill:#837199; font-family:'FSMatthew-Medium'; font-size:29.6399;">IP</tspan><tspan x="161.565" y="0" style="fill:#837199; font-family:'FSMatthew-Medium'; font-size:29.6399;">S </tspan></text>
</g>
<g id="Text_Flat">
	<g>
		<path style="fill:#58595B;" d="M23.139,65.767c-0.204-0.818-0.357-1.561-0.46-2.302c-0.128,0.716-0.281,1.406-0.512,2.276
			L18.996,78.17c-0.256,0.076-0.665,0.128-1.022,0.128c-0.358,0-0.845-0.025-1.101-0.128L13.14,65.204
			c-0.435-1.433-0.613-2.89-0.64-4.322c0.256-0.077,0.64-0.128,0.896-0.128c0.281,0,0.537,0.051,0.844,0.128
			c0.025,1.355,0.179,2.66,0.537,3.964l2.634,9.36c0.128,0.485,0.486,1.79,0.589,2.327c0.051-0.512,0.307-1.637,0.485-2.353
			l3.351-13.299c0.23-0.077,0.562-0.128,0.818-0.128c0.281,0,0.64,0.077,0.818,0.128l3.35,13.272
			c0.18,0.665,0.409,1.663,0.589,2.404c0.179-0.741,0.435-1.765,0.639-2.506l2.609-9.207c0.357-1.304,0.562-2.608,0.588-3.964
			c0.256-0.077,0.537-0.128,0.844-0.128c0.256,0,0.64,0.051,0.844,0.128c-0.025,1.33-0.204,2.736-0.639,4.22l-3.76,13.068
			c-0.281,0.076-0.869,0.128-1.15,0.128c-0.256,0-0.717-0.052-1.023-0.128L23.139,65.767z"/>
		<path style="fill:#58595B;" d="M44.438,71.955h-8.567c0.103,2.941,1.483,5.166,4.68,5.166c1.151,0,2.226-0.153,3.172-0.384
			c0.051,0.128,0.102,0.384,0.102,0.537c0,0.256-0.051,0.486-0.128,0.665c-0.997,0.307-2.25,0.486-3.299,0.486
			c-2.021,0-3.555-0.64-4.501-1.663c-1.125-1.228-1.713-3.068-1.713-5.191c0-3.708,1.866-6.981,5.601-6.981
			c3.35,0,4.68,2.762,4.68,6.138C44.464,71.111,44.464,71.571,44.438,71.955z M42.802,70.728c0-2.353-0.256-4.885-3.095-4.885
			c-2.48,0-3.683,2.276-3.836,4.885H42.802z"/>
		<path style="fill:#58595B;" d="M63.104,78.17c-0.23,0.076-0.512,0.128-0.768,0.128c-0.307,0-0.639-0.052-0.895-0.128v-8.081
			c0-2.813-0.716-4.092-3.095-4.092c-1.278,0-2.812,0.716-3.811,1.482v10.69c-0.281,0.076-0.588,0.128-0.869,0.128
			c-0.256,0-0.562-0.052-0.793-0.128V59.501c0.23-0.077,0.588-0.128,0.818-0.128s0.614,0.051,0.844,0.128v6.572
			c1.355-1.049,2.967-1.483,4.22-1.483c1.305,0,2.634,0.435,3.376,1.33c0.818,0.972,0.972,2.378,0.972,3.76V78.17z"/>
		<path style="fill:#58595B;" d="M75.606,74.896c0,0.921,0,2.071,0.051,3.273c-0.179,0.076-0.46,0.128-0.69,0.128
			c-0.204,0-0.485-0.052-0.69-0.128c-0.077-0.409-0.128-0.946-0.153-1.433h-0.025c-0.87,1.074-2.404,1.688-3.913,1.688
			c-2.378,0-4.373-1.33-4.373-4.066c0-1.561,0.64-2.711,1.637-3.427c1.125-0.793,2.608-1.049,4.194-1.049
			c0.895,0,1.637,0.051,2.302,0.153v-0.741c0-2.558-1.049-3.401-3.197-3.401c-1.202,0-2.686,0.256-3.605,0.485
			c-0.052-0.128-0.103-0.409-0.103-0.665c0-0.179,0.051-0.435,0.128-0.588c1.1-0.332,2.558-0.537,3.785-0.537
			c3.043,0,4.654,1.381,4.654,4.501V74.896z M73.944,71.29c-0.742-0.102-1.509-0.153-2.174-0.153c-1.254,0-2.379,0.23-3.146,0.818
			c-0.69,0.512-1.074,1.33-1.074,2.379c0,1.866,1.202,2.762,2.864,2.762c1.381,0,2.839-0.665,3.529-1.714V71.29z"/>
		<path style="fill:#58595B;" d="M87.931,68.094L83.915,78.17c-0.229,0.076-0.485,0.128-0.69,0.128
			c-0.281,0-0.512-0.052-0.716-0.128l-4.143-10.076c-0.461-1.151-0.665-2.302-0.665-3.248c0.204-0.051,0.562-0.128,0.793-0.128
			c0.307,0,0.613,0.052,0.869,0.128c0.025,0.869,0.128,1.867,0.512,2.788l3.324,8.438h0.051l3.223-8.438
			c0.358-0.896,0.537-1.893,0.537-2.788c0.179-0.076,0.562-0.128,0.896-0.128c0.179,0,0.511,0.025,0.741,0.103
			C88.621,65.741,88.441,66.841,87.931,68.094z"/>
		<path style="fill:#58595B;" d="M100.331,71.955h-8.567c0.103,2.941,1.483,5.166,4.681,5.166c1.15,0,2.225-0.153,3.171-0.384
			c0.051,0.128,0.103,0.384,0.103,0.537c0,0.256-0.052,0.486-0.128,0.665c-0.997,0.307-2.251,0.486-3.299,0.486
			c-2.021,0-3.555-0.64-4.501-1.663c-1.126-1.228-1.714-3.068-1.714-5.191c0-3.708,1.867-6.981,5.601-6.981
			c3.351,0,4.68,2.762,4.68,6.138C100.356,71.111,100.356,71.571,100.331,71.955z M98.694,70.728c0-2.353-0.256-4.885-3.094-4.885
			c-2.481,0-3.683,2.276-3.837,4.885H98.694z"/>
		<path style="fill:#58595B;" d="M113.523,78.426c-3.35,0-5.498-2.302-5.498-6.905s2.174-6.931,5.524-6.931
			c3.35,0,5.473,2.276,5.473,6.88C119.022,76.072,116.874,78.426,113.523,78.426z M113.55,65.843c-2.455,0-3.785,1.893-3.785,5.652
			c0,3.759,1.304,5.677,3.759,5.677s3.76-1.918,3.76-5.677C117.283,67.735,116.005,65.843,113.55,65.843z"/>
		<path style="fill:#58595B;" d="M130.655,68.094l-4.015,10.076c-0.23,0.076-0.486,0.128-0.69,0.128
			c-0.281,0-0.512-0.052-0.717-0.128l-4.143-10.076c-0.46-1.151-0.665-2.302-0.665-3.248c0.205-0.051,0.562-0.128,0.793-0.128
			c0.307,0,0.614,0.052,0.869,0.128c0.026,0.869,0.128,1.867,0.512,2.788l3.325,8.438h0.051l3.223-8.438
			c0.357-0.896,0.536-1.893,0.536-2.788c0.18-0.076,0.563-0.128,0.896-0.128c0.179,0,0.512,0.025,0.741,0.103
			C131.346,65.741,131.167,66.841,130.655,68.094z"/>
		<path style="fill:#58595B;" d="M143.057,71.955h-8.567c0.103,2.941,1.483,5.166,4.68,5.166c1.151,0,2.226-0.153,3.172-0.384
			c0.051,0.128,0.102,0.384,0.102,0.537c0,0.256-0.051,0.486-0.128,0.665c-0.997,0.307-2.25,0.486-3.299,0.486
			c-2.021,0-3.555-0.64-4.501-1.663c-1.125-1.228-1.713-3.068-1.713-5.191c0-3.708,1.866-6.981,5.601-6.981
			c3.35,0,4.68,2.762,4.68,6.138C143.082,71.111,143.082,71.571,143.057,71.955z M141.42,70.728c0-2.353-0.256-4.885-3.095-4.885
			c-2.48,0-3.683,2.276-3.836,4.885H141.42z"/>
		<path style="fill:#58595B;" d="M151.826,66.073c-1.483,0.205-3.095,0.742-4.297,1.662V78.17c-0.256,0.076-0.562,0.128-0.844,0.128
			s-0.562-0.052-0.818-0.128V64.846c0.153-0.051,0.384-0.103,0.64-0.103c0.204,0,0.485,0.052,0.69,0.103l0.128,1.637h0.025
			c1.1-0.946,3.018-1.739,4.476-1.893c0.051,0.153,0.103,0.435,0.103,0.665C151.929,65.511,151.877,65.843,151.826,66.073z"/>
	</g>
	<g>
		<path style="fill:#58595B;" d="M22.576,207.551c0,0.921,0,2.071,0.052,3.273c-0.18,0.077-0.461,0.128-0.69,0.128
			c-0.205,0-0.486-0.051-0.69-0.128c-0.077-0.409-0.128-0.946-0.154-1.432h-0.025c-0.869,1.073-2.403,1.688-3.912,1.688
			c-2.379,0-4.374-1.33-4.374-4.066c0-1.56,0.64-2.711,1.637-3.427c1.126-0.793,2.609-1.049,4.194-1.049
			c0.896,0,1.637,0.052,2.302,0.153v-0.741c0-2.558-1.049-3.401-3.196-3.401c-1.202,0-2.686,0.256-3.606,0.486
			c-0.051-0.128-0.103-0.409-0.103-0.665c0-0.18,0.052-0.435,0.128-0.589c1.1-0.332,2.558-0.537,3.785-0.537
			c3.043,0,4.654,1.382,4.654,4.501V207.551z M20.914,203.945c-0.741-0.103-1.509-0.154-2.174-0.154
			c-1.253,0-2.378,0.23-3.146,0.818c-0.69,0.512-1.074,1.33-1.074,2.379c0,1.867,1.202,2.762,2.864,2.762
			c1.381,0,2.839-0.665,3.529-1.713V203.945z"/>
		<path style="fill:#58595B;" d="M36.333,210.85c-0.205,0.052-0.512,0.103-0.818,0.103c-0.256,0-0.589-0.051-0.845-0.128v-8.106
			c0-1.228-0.153-2.174-0.511-2.839c-0.436-0.818-1.254-1.228-2.583-1.228c-1.279,0-2.813,0.716-3.811,1.483v10.689
			c-0.281,0.077-0.562,0.128-0.87,0.128c-0.256,0-0.562-0.051-0.792-0.128V197.5c0.179-0.076,0.485-0.102,0.664-0.102
			c0.256,0,0.563,0.025,0.717,0.102l0.128,1.33h0.025c1.406-1.15,3.018-1.586,4.321-1.586c1.305,0,2.66,0.436,3.401,1.33
			c0.818,0.972,0.973,2.379,0.973,3.76V210.85z"/>
		<path style="fill:#58595B;" d="M48.912,210.952c-0.229,0-0.511-0.077-0.665-0.128l-0.153-1.534h-0.025
			c-1.1,1.15-2.403,1.79-3.861,1.79c-3.529,0-5.217-2.941-5.217-6.521c0-3.555,1.509-7.314,5.574-7.314
			c1.279,0,2.455,0.436,3.401,1.1v-6.188c0.23-0.076,0.537-0.128,0.818-0.128c0.308,0,0.614,0.077,0.845,0.128v18.669
			C49.449,210.901,49.193,210.952,48.912,210.952z M47.966,199.751c-0.92-0.768-2.097-1.151-3.299-1.151
			c-2.967,0-3.964,2.916-3.964,5.883c0,2.275,0.716,5.242,3.58,5.242c1.382,0,2.788-0.69,3.683-1.765V199.751z"/>
		<path style="fill:#58595B;" d="M67.833,207.551c0,0.921,0,2.071,0.052,3.273c-0.18,0.077-0.461,0.128-0.69,0.128
			c-0.205,0-0.486-0.051-0.69-0.128c-0.077-0.409-0.128-0.946-0.154-1.432h-0.025c-0.869,1.073-2.403,1.688-3.912,1.688
			c-2.379,0-4.374-1.33-4.374-4.066c0-1.56,0.64-2.711,1.637-3.427c1.126-0.793,2.609-1.049,4.194-1.049
			c0.896,0,1.637,0.052,2.302,0.153v-0.741c0-2.558-1.049-3.401-3.196-3.401c-1.202,0-2.686,0.256-3.606,0.486
			c-0.051-0.128-0.103-0.409-0.103-0.665c0-0.18,0.052-0.435,0.128-0.589c1.1-0.332,2.558-0.537,3.785-0.537
			c3.043,0,4.654,1.382,4.654,4.501V207.551z M66.171,203.945c-0.741-0.103-1.509-0.154-2.174-0.154
			c-1.253,0-2.378,0.23-3.146,0.818c-0.69,0.512-1.074,1.33-1.074,2.379c0,1.867,1.202,2.762,2.864,2.762
			c1.381,0,2.839-0.665,3.529-1.713V203.945z"/>
		<path style="fill:#58595B;" d="M84.528,193.255c-0.383-0.103-1.074-0.204-1.61-0.204c-0.973,0-1.688,0.256-2.174,0.793
			c-0.742,0.792-0.87,1.866-0.87,3.222v0.435h3.606c0.051,0.128,0.102,0.436,0.102,0.614c0,0.204-0.051,0.512-0.102,0.69h-3.606
			v12.02c-0.229,0.077-0.485,0.128-0.818,0.128c-0.332,0-0.613-0.051-0.844-0.128v-12.02H75.91
			c-0.051-0.128-0.076-0.461-0.076-0.614c0-0.128,0.025-0.409,0.076-0.537l2.302-0.153v-0.435c0-1.815,0.307-3.068,1.355-4.117
			c0.741-0.741,1.841-1.1,3.095-1.1c0.665,0,1.406,0.153,1.866,0.332c0.052,0.128,0.077,0.308,0.077,0.486
			C84.605,192.82,84.58,193.127,84.528,193.255z"/>
		<path style="fill:#58595B;" d="M95.856,205.761c0,3.887-1.611,5.319-4.987,5.319c-3.452,0-4.91-1.433-4.91-5.191V197.5
			c0.23-0.076,0.537-0.128,0.818-0.128c0.358,0,0.64,0.077,0.845,0.128v8.184c0,2.48,0.383,4.117,3.273,4.117
			c2.711,0,3.299-1.585,3.299-4.168V197.5c0.204-0.076,0.562-0.128,0.844-0.128s0.588,0.052,0.818,0.128V205.761z"/>
		<path style="fill:#58595B;" d="M105.214,198.728c-1.483,0.205-3.094,0.742-4.296,1.663v10.434
			c-0.256,0.077-0.562,0.128-0.844,0.128c-0.282,0-0.563-0.051-0.818-0.128V197.5c0.153-0.051,0.383-0.102,0.639-0.102
			c0.205,0,0.486,0.051,0.69,0.102l0.128,1.637h0.025c1.1-0.946,3.019-1.738,4.476-1.893c0.052,0.154,0.103,0.436,0.103,0.665
			C105.316,198.165,105.266,198.498,105.214,198.728z"/>
		<path style="fill:#58595B;" d="M115.109,210.696c-0.665,0.23-1.662,0.384-2.404,0.384c-2.531,0-3.733-1.202-3.733-4.041v-8.234
			h-2.302c-0.051-0.128-0.076-0.435-0.076-0.588c0-0.128,0.025-0.436,0.076-0.563l2.302-0.153v-3.478
			c0.204-0.077,0.537-0.128,0.818-0.128s0.64,0.051,0.844,0.128v3.478h3.76c0.051,0.128,0.102,0.512,0.102,0.64
			c0,0.179-0.051,0.486-0.102,0.665h-3.76v8.081c0,2.021,0.588,2.864,2.174,2.864c0.869,0,1.714-0.128,2.302-0.307
			c0.051,0.128,0.103,0.435,0.103,0.613C115.212,210.287,115.187,210.466,115.109,210.696z"/>
		<path style="fill:#58595B;" d="M127.818,210.824c-0.23,0.077-0.512,0.128-0.768,0.128c-0.307,0-0.64-0.051-0.896-0.128v-8.081
			c0-2.813-0.716-4.092-3.094-4.092c-1.279,0-2.813,0.716-3.811,1.483v10.689c-0.281,0.077-0.589,0.128-0.87,0.128
			c-0.256,0-0.562-0.051-0.792-0.128v-18.669c0.229-0.076,0.588-0.128,0.818-0.128c0.229,0,0.613,0.052,0.844,0.128v6.572
			c1.355-1.048,2.966-1.483,4.22-1.483c1.304,0,2.634,0.436,3.375,1.33c0.818,0.972,0.973,2.379,0.973,3.76V210.824z"/>
		<path style="fill:#58595B;" d="M140.729,204.609h-8.567c0.103,2.941,1.483,5.166,4.681,5.166c1.15,0,2.225-0.153,3.171-0.383
			c0.051,0.127,0.103,0.383,0.103,0.536c0,0.256-0.052,0.486-0.128,0.665c-0.997,0.308-2.251,0.486-3.299,0.486
			c-2.021,0-3.555-0.64-4.501-1.662c-1.126-1.228-1.714-3.069-1.714-5.191c0-3.709,1.867-6.982,5.601-6.982
			c3.351,0,4.68,2.763,4.68,6.138C140.755,203.766,140.755,204.227,140.729,204.609z M139.093,203.382
			c0-2.353-0.256-4.884-3.094-4.884c-2.481,0-3.683,2.275-3.837,4.884H139.093z"/>
		<path style="fill:#58595B;" d="M149.499,198.728c-1.483,0.205-3.094,0.742-4.296,1.663v10.434
			c-0.256,0.077-0.562,0.128-0.844,0.128c-0.282,0-0.563-0.051-0.818-0.128V197.5c0.153-0.051,0.383-0.102,0.639-0.102
			c0.205,0,0.486,0.051,0.69,0.102l0.128,1.637h0.025c1.1-0.946,3.019-1.738,4.476-1.893c0.052,0.154,0.103,0.436,0.103,0.665
			C149.602,198.165,149.551,198.498,149.499,198.728z"/>
		<path style="fill:#58595B;" d="M163.204,205.684c-1.253,1.458-2.43,2.711-3.427,3.785h7.877c0.076,0.23,0.076,0.512,0.076,0.665
			c0,0.23-0.025,0.46-0.076,0.69h-9.642c-0.153-0.435-0.204-0.716-0.204-0.997c0-0.18,0-0.256,0.025-0.409
			c1.483-1.611,3.248-3.529,4.271-4.681c2.813-3.171,3.888-5.089,3.888-6.981c0-2.148-1.229-3.222-3.223-3.222
			c-1.355,0-2.941,0.409-4.194,0.972c-0.051-0.153-0.076-0.512-0.076-0.665c0-0.23,0.051-0.461,0.128-0.665
			c1.022-0.46,2.812-0.896,4.373-0.896c2.864,0,4.833,1.586,4.833,4.322C167.833,199.904,166.605,201.745,163.204,205.684z"/>
		<path style="fill:#58595B;" d="M181.641,194.892l-7.237,15.933c-0.205,0.077-0.589,0.128-0.921,0.128
			c-0.307,0-0.64-0.051-0.869-0.128l7.441-15.933h-8.695c-0.102-0.229-0.153-0.485-0.153-0.716c0-0.205,0.052-0.46,0.128-0.64
			h10.307c0.051,0.153,0.103,0.461,0.103,0.614C181.743,194.432,181.717,194.688,181.641,194.892z"/>
		<path style="fill:#58595B;" d="M195.191,211.08c-3.351,0-5.499-2.302-5.499-6.905c0-4.603,2.174-6.931,5.524-6.931
			c3.35,0,5.473,2.276,5.473,6.88S198.541,211.08,195.191,211.08z M195.217,198.498c-2.455,0-3.785,1.893-3.785,5.651
			c0,3.76,1.305,5.678,3.76,5.678s3.759-1.918,3.759-5.678C198.95,200.391,197.672,198.498,195.217,198.498z"/>
		<path style="fill:#58595B;" d="M213.244,205.761c0,3.887-1.611,5.319-4.987,5.319c-3.452,0-4.91-1.433-4.91-5.191V197.5
			c0.23-0.076,0.537-0.128,0.818-0.128c0.358,0,0.64,0.077,0.844,0.128v8.184c0,2.48,0.384,4.117,3.273,4.117
			c2.711,0,3.3-1.585,3.3-4.168V197.5c0.204-0.076,0.562-0.128,0.844-0.128s0.588,0.052,0.818,0.128V205.761z"/>
		<path style="fill:#58595B;" d="M223.727,210.696c-0.665,0.23-1.662,0.384-2.404,0.384c-2.531,0-3.733-1.202-3.733-4.041v-8.234
			h-2.302c-0.052-0.128-0.077-0.435-0.077-0.588c0-0.128,0.025-0.436,0.077-0.563l2.302-0.153v-3.478
			c0.204-0.077,0.537-0.128,0.818-0.128s0.639,0.051,0.844,0.128v3.478h3.759c0.052,0.128,0.103,0.512,0.103,0.64
			c0,0.179-0.051,0.486-0.103,0.665h-3.759v8.081c0,2.021,0.588,2.864,2.174,2.864c0.869,0,1.713-0.128,2.302-0.307
			c0.051,0.128,0.102,0.435,0.102,0.613C223.828,210.287,223.803,210.466,223.727,210.696z"/>
		<path style="fill:#58595B;" d="M229.172,211.08c-1.278,0-2.608-0.23-3.528-0.588c-0.077-0.18-0.128-0.486-0.128-0.717
			c0-0.153,0.051-0.537,0.102-0.69c0.946,0.384,2.302,0.69,3.428,0.69c1.943,0,3.146-0.818,3.146-2.43
			c0-1.457-0.742-1.969-2.763-2.71c-2.812-1.023-3.733-2.2-3.733-3.938c0-2.354,1.943-3.453,4.45-3.453
			c0.844,0,1.943,0.154,2.583,0.358c0.076,0.23,0.102,0.46,0.102,0.614c0,0.204-0.051,0.562-0.102,0.741
			c-0.845-0.256-1.739-0.409-2.609-0.409c-1.815,0-2.915,0.69-2.915,2.097c0,1.228,0.69,1.816,2.787,2.608
			c1.919,0.717,3.684,1.433,3.684,4.016C233.674,209.878,231.704,211.08,229.172,211.08z"/>
		<path style="fill:#58595B;" d="M237.303,194.892c-0.589,0-1.074-0.512-1.074-1.125c0-0.614,0.485-1.1,1.074-1.1
			c0.588,0,1.1,0.485,1.1,1.1C238.402,194.38,237.891,194.892,237.303,194.892z M238.146,210.824
			c-0.23,0.077-0.562,0.128-0.844,0.128c-0.282,0-0.589-0.051-0.818-0.128V197.5c0.204-0.051,0.536-0.128,0.792-0.128
			c0.281,0,0.665,0.052,0.87,0.128V210.824z"/>
		<path style="fill:#58595B;" d="M250.906,210.952c-0.23,0-0.512-0.077-0.665-0.128l-0.153-1.534h-0.025
			c-1.1,1.15-2.404,1.79-3.861,1.79c-3.529,0-5.218-2.941-5.218-6.521c0-3.555,1.509-7.314,5.575-7.314
			c1.279,0,2.455,0.436,3.401,1.1v-6.188c0.23-0.076,0.537-0.128,0.818-0.128c0.307,0,0.614,0.077,0.844,0.128v18.669
			C251.443,210.901,251.188,210.952,250.906,210.952z M249.96,199.751c-0.921-0.768-2.097-1.151-3.299-1.151
			c-2.967,0-3.964,2.916-3.964,5.883c0,2.275,0.716,5.242,3.58,5.242c1.381,0,2.788-0.69,3.683-1.765V199.751z"/>
		<path style="fill:#58595B;" d="M264.611,204.609h-8.566c0.102,2.941,1.483,5.166,4.68,5.166c1.15,0,2.225-0.153,3.171-0.383
			c0.052,0.127,0.103,0.383,0.103,0.536c0,0.256-0.051,0.486-0.128,0.665c-0.997,0.308-2.25,0.486-3.299,0.486
			c-2.021,0-3.555-0.64-4.501-1.662c-1.125-1.228-1.714-3.069-1.714-5.191c0-3.709,1.867-6.982,5.601-6.982
			c3.351,0,4.681,2.763,4.681,6.138C264.638,203.766,264.638,204.227,264.611,204.609z M262.975,203.382
			c0-2.353-0.255-4.884-3.094-4.884c-2.48,0-3.683,2.275-3.836,4.884H262.975z"/>
	</g>
	<g>
		<path style="fill:#58595B;" d="M18.229,236.65c-3.35,0-5.498-2.302-5.498-6.905c0-4.603,2.174-6.931,5.524-6.931
			c3.35,0,5.473,2.276,5.473,6.88S21.579,236.65,18.229,236.65z M18.255,224.068c-2.455,0-3.785,1.893-3.785,5.651
			c0,3.76,1.304,5.678,3.759,5.678s3.76-1.918,3.76-5.678C21.988,225.961,20.71,224.068,18.255,224.068z"/>
		<path style="fill:#58595B;" d="M34.006,218.825c-0.384-0.103-1.074-0.204-1.611-0.204c-0.972,0-1.688,0.256-2.174,0.793
			c-0.741,0.792-0.869,1.866-0.869,3.222v0.435h3.605c0.052,0.128,0.103,0.436,0.103,0.614c0,0.204-0.051,0.512-0.103,0.69h-3.605
			v12.02c-0.23,0.077-0.486,0.128-0.818,0.128c-0.333,0-0.614-0.051-0.844-0.128v-12.02h-2.302
			c-0.052-0.128-0.077-0.461-0.077-0.614c0-0.128,0.025-0.409,0.077-0.537l2.302-0.153v-0.435c0-1.815,0.307-3.068,1.354-4.117
			c0.742-0.741,1.842-1.1,3.095-1.1c0.665,0,1.406,0.153,1.867,0.332c0.051,0.128,0.076,0.308,0.076,0.486
			C34.082,218.391,34.057,218.697,34.006,218.825z"/>
		<path style="fill:#58595B;" d="M51.443,236.395h-9.411v-17.288h9.027c0.077,0.18,0.128,0.461,0.128,0.665
			c0,0.23-0.051,0.512-0.128,0.665h-7.288v6.343h6.291c0.051,0.127,0.128,0.46,0.128,0.664c0,0.205-0.051,0.486-0.128,0.69h-6.291
			v6.931h7.672c0.077,0.18,0.128,0.461,0.128,0.665C51.571,235.96,51.521,236.241,51.443,236.395z"/>
		<path style="fill:#58595B;" d="M64.33,231.331c0,3.887-1.611,5.319-4.987,5.319c-3.452,0-4.91-1.433-4.91-5.191v-8.389
			c0.23-0.076,0.537-0.128,0.818-0.128c0.358,0,0.64,0.077,0.845,0.128v8.184c0,2.48,0.383,4.117,3.273,4.117
			c2.711,0,3.299-1.585,3.299-4.168v-8.133c0.204-0.076,0.562-0.128,0.844-0.128s0.588,0.052,0.818,0.128V231.331z"/>
		<path style="fill:#58595B;" d="M73.688,224.298c-1.483,0.205-3.095,0.742-4.297,1.663v10.434
			c-0.256,0.077-0.562,0.128-0.844,0.128s-0.562-0.051-0.818-0.128V223.07c0.153-0.051,0.384-0.102,0.64-0.102
			c0.204,0,0.485,0.051,0.69,0.102l0.128,1.637h0.025c1.1-0.946,3.018-1.738,4.476-1.893c0.051,0.154,0.102,0.436,0.102,0.665
			C73.79,223.735,73.739,224.068,73.688,224.298z"/>
		<path style="fill:#58595B;" d="M80.387,236.65c-3.35,0-5.498-2.302-5.498-6.905c0-4.603,2.174-6.931,5.524-6.931
			c3.35,0,5.473,2.276,5.473,6.88S83.737,236.65,80.387,236.65z M80.413,224.068c-2.455,0-3.785,1.893-3.785,5.651
			c0,3.76,1.304,5.678,3.759,5.678s3.76-1.918,3.76-5.678C84.146,225.961,82.868,224.068,80.413,224.068z"/>
		<path style="fill:#58595B;" d="M97.059,235.014c-0.997,0.895-2.558,1.381-4.041,1.381c-1.048,0-2.021-0.179-2.736-0.435v6.444
			c-0.256,0.077-0.485,0.128-0.844,0.128c-0.281,0-0.613-0.051-0.818-0.128V223.07c0.128-0.051,0.435-0.102,0.69-0.102
			s0.486,0.051,0.665,0.102l0.153,1.407h0.025c0.972-1.023,2.43-1.663,3.913-1.663c1.611,0,3.043,0.691,3.938,1.97
			c0.741,1.074,1.202,2.608,1.202,4.476C99.207,231.816,98.414,233.786,97.059,235.014z M93.888,224.17
			c-1.355,0-2.711,0.562-3.606,1.688v8.797c0.665,0.308,1.688,0.486,2.558,0.486c2.762,0,4.629-1.815,4.629-5.806
			C97.468,226.19,96.24,224.17,93.888,224.17z"/>
		<path style="fill:#58595B;" d="M111.454,230.18h-8.567c0.103,2.941,1.483,5.166,4.681,5.166c1.15,0,2.225-0.153,3.171-0.383
			c0.051,0.127,0.103,0.383,0.103,0.536c0,0.256-0.052,0.486-0.128,0.665c-0.997,0.308-2.251,0.486-3.299,0.486
			c-2.021,0-3.555-0.64-4.501-1.662c-1.126-1.228-1.714-3.069-1.714-5.191c0-3.709,1.867-6.982,5.601-6.982
			c3.351,0,4.68,2.763,4.68,6.138C111.479,229.336,111.479,229.797,111.454,230.18z M109.817,228.952
			c0-2.353-0.256-4.884-3.094-4.884c-2.481,0-3.683,2.275-3.837,4.884H109.817z"/>
	</g>
	<g>
		<path style="fill:#837199;" d="M26.995,117.784c-0.628,0.125-1.757,0.209-2.971,0.209c-1.171,0-2.218-0.084-2.971-0.209V96.153
			l-5.941,3.933c-1.422-1.297-2.426-3.055-2.803-4.561l9.832-6.025c0.586-0.125,1.8-0.209,2.427-0.209
			c0.712,0,2.009,0.126,2.427,0.209V117.784z"/>
		<path style="fill:#837199;" d="M44.693,118.202c-7.614,0-10.543-5.355-10.543-13.263c0-8.912,3.305-15.857,12.552-15.857
			c1.59,0,3.808,0.251,4.728,0.586c0.167,0.586,0.209,1.548,0.209,2.008c0,0.795-0.083,1.883-0.293,2.469
			c-1.088-0.167-2.678-0.293-3.891-0.293c-4.059,0-6.485,2.469-6.945,7.029c1.297-0.837,3.515-1.548,5.564-1.548
			c5.021,0,8.2,3.766,8.2,8.828C54.274,113.81,50.551,118.202,44.693,118.202z M44.735,103.977c-1.799,0-3.598,0.754-4.477,1.59
			c-0.042,0.419-0.042,0.963-0.042,1.59c0,2.595,0.921,6.276,4.31,6.276c2.343,0,3.557-2.218,3.557-4.979
			C48.083,105.734,46.995,103.977,44.735,103.977z"/>
		<path style="fill:#837199;" d="M66.743,118.202c-6.694,0-9.958-4.937-9.958-14.56c0-9.707,3.39-14.561,10.084-14.561
			c6.652,0,9.916,4.854,9.916,14.561C76.785,113.266,73.396,118.202,66.743,118.202z M66.785,93.978c-2.678,0-3.85,2.468-3.85,9.665
			c0,7.07,1.172,9.664,3.85,9.664s3.85-2.594,3.85-9.664C70.635,96.445,69.463,93.978,66.785,93.978z"/>
		<path style="fill:#837199;" d="M106.909,117.784H89.211V89.5h17.321c0.168,0.461,0.293,1.339,0.293,2.511
			c0,0.921-0.083,1.716-0.293,2.594H95.194v6.109h9.581c0.167,0.46,0.293,1.297,0.293,2.468c0,0.921-0.084,1.674-0.293,2.553h-9.581
			v6.945h11.715c0.167,0.46,0.293,1.339,0.293,2.51C107.202,116.11,107.118,116.905,106.909,117.784z"/>
		<path style="fill:#837199;" d="M132.39,117.742c-1.088,0.167-2.217,0.251-3.515,0.251c-1.171,0-2.343-0.042-3.138-0.209
			l-5.732-10.167h-2.468v10.167c-1.046,0.167-1.925,0.209-3.055,0.209c-1.004,0-1.883-0.042-2.929-0.209V89.5
			c1.925-0.125,5.941-0.209,8.368-0.209c7.112,0,10.669,2.511,10.669,9.037c0,3.473-2.092,6.945-5.021,8.201L132.39,117.742z
			 M120.298,94.187c-0.92,0-2.05,0.042-2.761,0.084v8.367h2.092c3.431,0,4.937-1.255,4.937-4.351
			C124.565,95.19,123.06,94.187,120.298,94.187z"/>
		<path style="fill:#837199;" d="M160.716,117.784c-0.544,0.125-1.841,0.209-3.222,0.209c-1.088,0-2.343-0.126-2.887-0.209
			l-2.092-5.732h-10.042l-1.967,5.732c-0.92,0.125-2.008,0.209-3.096,0.209s-2.343-0.084-2.971-0.209l9.874-28.284
			c0.586-0.125,1.967-0.209,2.887-0.209c1.13,0,2.469,0.084,2.929,0.209L160.716,117.784z M150.716,107.073l-2.468-7.991
			c-0.293-0.921-0.586-2.093-0.837-3.39h-0.084c-0.209,1.297-0.544,2.469-0.837,3.39l-2.343,7.991H150.716z"/>
		<path style="fill:#837199;" d="M171.763,118.202c-3.055,0-6.402-0.586-8.787-1.674c-0.125-0.585-0.209-1.339-0.209-2.008
			c0-1.004,0.126-1.967,0.419-3.096c2.468,1.004,5.731,1.631,8.284,1.631c2.971,0,4.561-1.38,4.561-3.263
			c0-2.093-1.339-2.971-5.397-4.227c-4.519-1.38-7.824-3.556-7.824-8.409c0-5.188,4.477-8.075,10.376-8.075
			c2.72,0,5.146,0.418,6.778,0.962c0.125,0.461,0.209,1.214,0.209,2.302c0,0.795-0.084,2.008-0.251,2.678
			c-2.092-0.544-4.477-0.837-6.401-0.837c-3.138,0-4.854,1.046-4.854,2.72c0,1.966,1.548,2.761,5.313,3.933
			c4.519,1.423,7.866,3.557,7.866,8.577C181.846,114.897,177.536,118.202,171.763,118.202z"/>
		<path style="fill:#837199;" d="M214.898,117.784c-0.502,0.125-1.631,0.209-2.803,0.209c-1.255,0-2.427-0.126-2.929-0.209
			l-0.502-16.987l-6.192,14.31c-0.46,0.167-1.465,0.251-2.092,0.251c-0.754,0-1.674-0.084-2.134-0.209l-6.192-14.352l-0.544,16.987
			c-0.544,0.125-1.841,0.209-2.971,0.209c-0.67,0-1.799-0.084-2.553-0.209l1.214-28.284c0.795-0.083,1.59-0.209,2.427-0.209
			c1.004,0,1.966,0.084,2.469,0.209l8.284,19.205l8.326-19.205c0.836-0.125,1.673-0.209,2.426-0.209
			c0.963,0,1.842,0.084,2.469,0.209L214.898,117.784z"/>
		<path style="fill:#837199;" d="M241.427,107.031c0,7.196-2.762,11.171-10.795,11.171c-8.117,0-10.669-3.975-10.669-11.171V89.5
			c0.837-0.125,1.925-0.209,2.929-0.209c1.171,0,2.218,0.084,3.054,0.209v17.949c0,3.85,1.088,6.025,4.729,6.025
			c3.64,0,4.895-2.176,4.895-6.025V89.5c0.754-0.125,2.009-0.209,2.971-0.209c0.921,0,2.176,0.084,2.888,0.209V107.031z"/>
		<path style="fill:#837199;" d="M254.899,118.202c-3.055,0-6.402-0.586-8.787-1.674c-0.125-0.585-0.209-1.339-0.209-2.008
			c0-1.004,0.126-1.967,0.419-3.096c2.468,1.004,5.731,1.631,8.284,1.631c2.971,0,4.561-1.38,4.561-3.263
			c0-2.093-1.339-2.971-5.397-4.227c-4.519-1.38-7.824-3.556-7.824-8.409c0-5.188,4.477-8.075,10.376-8.075
			c2.72,0,5.146,0.418,6.778,0.962c0.125,0.461,0.209,1.214,0.209,2.302c0,0.795-0.084,2.008-0.251,2.678
			c-2.092-0.544-4.477-0.837-6.401-0.837c-3.138,0-4.854,1.046-4.854,2.72c0,1.966,1.548,2.761,5.313,3.933
			c4.519,1.423,7.866,3.557,7.866,8.577C264.982,114.897,260.673,118.202,254.899,118.202z"/>
		<path style="fill:#837199;" d="M285.526,109.165h-6.317v5.983c-0.628,0.125-1.549,0.293-2.302,0.293
			c-0.711,0-1.632-0.126-2.301-0.293v-5.983h-6.318c-0.125-0.628-0.293-1.548-0.293-2.301c0-0.712,0.126-1.632,0.293-2.302h6.318
			v-5.983c0.669-0.167,1.59-0.292,2.301-0.292c0.753,0,1.674,0.167,2.302,0.292v5.983h6.317c0.167,0.67,0.293,1.59,0.293,2.302
			C285.819,107.617,285.652,108.537,285.526,109.165z"/>
	</g>
	<g>
		<path style="fill:#837199;" d="M12.114,147.187c1.155,0.711,2.845,1.304,4.622,1.304c2.638,0,4.179-1.393,4.179-3.408
			c0-1.867-1.067-2.934-3.764-3.971c-3.26-1.156-5.274-2.845-5.274-5.66c0-3.111,2.578-5.423,6.46-5.423
			c2.045,0,3.526,0.475,4.415,0.979l-0.711,2.104c-0.652-0.355-1.985-0.948-3.793-0.948c-2.727,0-3.764,1.63-3.764,2.993
			c0,1.866,1.215,2.785,3.971,3.852c3.379,1.305,5.097,2.934,5.097,5.868c0,3.082-2.281,5.748-6.993,5.748
			c-1.926,0-4.029-0.562-5.097-1.273L12.114,147.187z"/>
		<path style="fill:#837199;" d="M29.245,132.548H23.17v-2.193h14.787v2.193h-6.104v17.779h-2.607V132.548z"/>
		<path style="fill:#837199;" d="M42.168,130.354v11.823c0,4.475,1.985,6.371,4.652,6.371c2.963,0,4.859-1.955,4.859-6.371v-11.823
			h2.607V142c0,6.135-3.229,8.653-7.556,8.653c-4.09,0-7.171-2.341-7.171-8.534v-11.765H42.168z"/>
		<path style="fill:#837199;" d="M58.203,130.621c1.571-0.237,3.438-0.415,5.482-0.415c3.704,0,6.342,0.859,8.09,2.489
			c1.777,1.63,2.814,3.941,2.814,7.171c0,3.26-1.007,5.927-2.874,7.765c-1.867,1.866-4.948,2.874-8.83,2.874
			c-1.838,0-3.378-0.089-4.683-0.237V130.621z M60.781,148.282c0.652,0.119,1.601,0.148,2.608,0.148
			c5.511,0,8.504-3.082,8.504-8.476c0.03-4.711-2.637-7.704-8.09-7.704c-1.333,0-2.341,0.118-3.022,0.267V148.282z"/>
		<path style="fill:#837199;" d="M87.722,140.963h-7.764v7.201h8.652v2.163H77.38v-19.973h10.786v2.163h-8.208v6.312h7.764V140.963z
			"/>
		<path style="fill:#837199;" d="M91.369,150.327v-19.973h2.815l6.4,10.104c1.481,2.341,2.638,4.445,3.586,6.49l0.06-0.03
			c-0.237-2.667-0.297-5.097-0.297-8.208v-8.356h2.43v19.973h-2.607l-6.341-10.135c-1.394-2.223-2.727-4.504-3.734-6.667
			l-0.089,0.029c0.148,2.519,0.208,4.919,0.208,8.238v8.534H91.369z"/>
		<path style="fill:#837199;" d="M114.103,132.548h-6.075v-2.193h14.787v2.193h-6.104v17.779h-2.607V132.548z"/>
		<path style="fill:#837199;" d="M139.027,140.963h-7.764v7.201h8.652v2.163h-11.23v-19.973h10.786v2.163h-8.208v6.312h7.764
			V140.963z"/>
		<path style="fill:#837199;" d="M153.609,150.327l-2.548-4.415c-1.037-1.689-1.689-2.786-2.312-3.941h-0.06
			c-0.562,1.155-1.126,2.223-2.163,3.971l-2.4,4.386h-2.963l6.104-10.104l-5.867-9.868h2.992l2.638,4.682
			c0.741,1.305,1.304,2.312,1.837,3.379h0.089c0.563-1.186,1.067-2.104,1.808-3.379l2.727-4.682h2.963l-6.074,9.72l6.223,10.253
			H153.609z"/>
		<path style="fill:#837199;" d="M172.668,149.675c-0.948,0.475-2.845,0.948-5.274,0.948c-5.63,0-9.868-3.556-9.868-10.104
			c0-6.253,4.238-10.49,10.431-10.49c2.489,0,4.06,0.533,4.741,0.89l-0.622,2.104c-0.978-0.474-2.37-0.83-4.03-0.83
			c-4.682,0-7.793,2.993-7.793,8.238c0,4.89,2.815,8.03,7.675,8.03c1.57,0,3.171-0.325,4.208-0.829L172.668,149.675z"/>
		<path style="fill:#837199;" d="M177.887,130.354v8.356h9.66v-8.356h2.607v19.973h-2.607v-9.364h-9.66v9.364h-2.578v-19.973
			H177.887z"/>
		<path style="fill:#837199;" d="M197.301,144.045l-2.074,6.282h-2.667l6.785-19.973h3.111l6.815,19.973h-2.756l-2.133-6.282
			H197.301z M203.85,142.03l-1.956-5.749c-0.444-1.304-0.741-2.489-1.037-3.645h-0.06c-0.296,1.185-0.622,2.399-1.008,3.614
			l-1.955,5.779H203.85z"/>
		<path style="fill:#837199;" d="M211.617,150.327v-19.973h2.815l6.4,10.104c1.481,2.341,2.638,4.445,3.586,6.49l0.059-0.03
			c-0.236-2.667-0.296-5.097-0.296-8.208v-8.356h2.43v19.973h-2.607l-6.342-10.135c-1.393-2.223-2.726-4.504-3.733-6.667
			l-0.089,0.029c0.148,2.519,0.207,4.919,0.207,8.238v8.534H211.617z"/>
		<path style="fill:#837199;" d="M245.758,149.438c-1.155,0.415-3.437,1.096-6.134,1.096c-3.022,0-5.512-0.771-7.467-2.637
			c-1.719-1.659-2.786-4.327-2.786-7.438c0.03-5.956,4.119-10.312,10.816-10.312c2.312,0,4.119,0.504,4.979,0.918l-0.623,2.104
			c-1.066-0.475-2.399-0.859-4.415-0.859c-4.859,0-8.03,3.022-8.03,8.03c0,5.067,3.052,8.061,7.704,8.061
			c1.689,0,2.845-0.237,3.438-0.534v-5.956h-4.06v-2.074h6.578V149.438z"/>
		<path style="fill:#837199;" d="M259.482,140.963h-7.764v7.201h8.652v2.163h-11.23v-19.973h10.786v2.163h-8.208v6.312h7.764
			V140.963z"/>
	</g>
	<g>
		<path style="fill:#837199;" d="M12.47,163.136c1.244-0.207,2.874-0.385,4.948-0.385c2.549,0,4.416,0.592,5.601,1.659
			c1.097,0.948,1.749,2.4,1.749,4.178c0,1.808-0.534,3.23-1.541,4.268c-1.363,1.452-3.586,2.192-6.104,2.192
			c-0.771,0-1.481-0.029-2.074-0.178v8.001H12.47V163.136z M15.048,172.767c0.562,0.147,1.274,0.207,2.134,0.207
			c3.111,0,5.008-1.511,5.008-4.267c0-2.638-1.867-3.912-4.712-3.912c-1.126,0-1.985,0.089-2.43,0.208V172.767z"/>
		<path style="fill:#837199;" d="M28.652,176.589l-2.074,6.282h-2.667l6.786-19.973h3.111l6.815,19.973h-2.756l-2.134-6.282H28.652z
			 M35.201,174.574l-1.956-5.749c-0.444-1.304-0.74-2.489-1.037-3.645h-0.06c-0.296,1.186-0.622,2.4-1.007,3.615l-1.956,5.778
			H35.201z"/>
		<path style="fill:#837199;" d="M42.969,163.165c1.305-0.267,3.171-0.414,4.949-0.414c2.756,0,4.533,0.503,5.778,1.63
			c1.008,0.889,1.57,2.252,1.57,3.793c0,2.637-1.659,4.385-3.764,5.097v0.089c1.541,0.533,2.46,1.955,2.934,4.029
			c0.652,2.786,1.126,4.712,1.541,5.482h-2.667c-0.325-0.563-0.771-2.281-1.333-4.771c-0.593-2.756-1.659-3.793-4.001-3.882h-2.43
			v8.652h-2.578V163.165z M45.547,172.263h2.638c2.756,0,4.504-1.512,4.504-3.793c0-2.578-1.867-3.704-4.593-3.733
			c-1.245,0-2.134,0.118-2.549,0.236V172.263z"/>
		<path style="fill:#837199;" d="M61.285,165.092h-6.074v-2.193h14.786v2.193h-6.104v17.779h-2.608V165.092z"/>
		<path style="fill:#837199;" d="M71.631,182.871v-19.973h2.815l6.4,10.105c1.481,2.341,2.637,4.444,3.585,6.489l0.06-0.03
			c-0.237-2.666-0.296-5.097-0.296-8.208v-8.356h2.43v19.973h-2.607l-6.342-10.135c-1.393-2.222-2.727-4.504-3.733-6.667
			l-0.089,0.029c0.147,2.52,0.207,4.919,0.207,8.238v8.534H71.631z"/>
		<path style="fill:#837199;" d="M100.912,173.507h-7.764v7.201h8.652v2.163H90.57v-19.973h10.786v2.163h-8.208v6.312h7.764V173.507
			z"/>
		<path style="fill:#837199;" d="M104.56,163.165c1.305-0.267,3.171-0.414,4.949-0.414c2.756,0,4.533,0.503,5.778,1.63
			c1.008,0.889,1.57,2.252,1.57,3.793c0,2.637-1.659,4.385-3.764,5.097v0.089c1.541,0.533,2.46,1.955,2.934,4.029
			c0.652,2.786,1.126,4.712,1.541,5.482h-2.667c-0.325-0.563-0.771-2.281-1.333-4.771c-0.593-2.756-1.659-3.793-4.001-3.882h-2.43
			v8.652h-2.578V163.165z M107.138,172.263h2.638c2.756,0,4.504-1.512,4.504-3.793c0-2.578-1.867-3.704-4.593-3.733
			c-1.245,0-2.134,0.118-2.549,0.236V172.263z"/>
		<path style="fill:#837199;" d="M119.172,179.73c1.156,0.711,2.845,1.304,4.623,1.304c2.637,0,4.178-1.393,4.178-3.408
			c0-1.866-1.066-2.934-3.763-3.971c-3.26-1.155-5.274-2.845-5.274-5.66c0-3.111,2.577-5.422,6.459-5.422
			c2.045,0,3.526,0.474,4.416,0.978l-0.712,2.104c-0.651-0.355-1.985-0.948-3.793-0.948c-2.726,0-3.763,1.63-3.763,2.993
			c0,1.867,1.215,2.785,3.971,3.853c3.378,1.304,5.097,2.934,5.097,5.867c0,3.081-2.282,5.748-6.993,5.748
			c-1.927,0-4.03-0.562-5.097-1.273L119.172,179.73z"/>
		<path style="fill:#837199;" d="M136.155,162.898v8.356h9.66v-8.356h2.607v19.973h-2.607v-9.364h-9.66v9.364h-2.578v-19.973
			H136.155z"/>
		<path style="fill:#837199;" d="M154.888,162.898v19.973h-2.578v-19.973H154.888z"/>
		<path style="fill:#837199;" d="M158.83,163.136c1.245-0.207,2.874-0.385,4.949-0.385c2.548,0,4.415,0.592,5.6,1.659
			c1.097,0.948,1.749,2.4,1.749,4.178c0,1.808-0.533,3.23-1.541,4.268c-1.363,1.452-3.586,2.192-6.104,2.192
			c-0.771,0-1.481-0.029-2.074-0.178v8.001h-2.578V163.136z M161.408,172.767c0.563,0.147,1.274,0.207,2.134,0.207
			c3.111,0,5.008-1.511,5.008-4.267c0-2.638-1.867-3.912-4.712-3.912c-1.126,0-1.985,0.089-2.43,0.208V172.767z"/>
		<path style="fill:#837199;" d="M173.68,179.73c1.155,0.711,2.845,1.304,4.623,1.304c2.637,0,4.178-1.393,4.178-3.408
			c0-1.866-1.066-2.934-3.764-3.971c-3.259-1.155-5.274-2.845-5.274-5.66c0-3.111,2.578-5.422,6.46-5.422
			c2.045,0,3.526,0.474,4.415,0.978l-0.711,2.104c-0.651-0.355-1.985-0.948-3.793-0.948c-2.726,0-3.763,1.63-3.763,2.993
			c0,1.867,1.215,2.785,3.971,3.853c3.378,1.304,5.097,2.934,5.097,5.867c0,3.081-2.282,5.748-6.993,5.748
			c-1.927,0-4.03-0.562-5.098-1.273L173.68,179.73z"/>
	</g>
</g>
</svg>
