<?xml version="1.0" encoding="utf-8"?>
<!-- Generator: Adobe Illustrator 16.0.0, SVG Export Plug-In . SVG Version: 6.00 Build 0)  -->
<!DOCTYPE svg PUBLIC "-//W3C//DTD SVG 1.0//EN" "http://www.w3.org/TR/2001/REC-SVG-20010904/DTD/svg10.dtd">
<svg version="1.0" xmlns="http://www.w3.org/2000/svg" xmlns:xlink="http://www.w3.org/1999/xlink" x="0px" y="0px" width="300px"
	 height="300px" viewBox="0 0 300 300" style="enable-background:new 0 0 300 300;" xml:space="preserve">
<g id="Icon">
	<path style="fill:#58595B;" d="M191.214,187.684c-0.112-1.455-0.732-2.378-1.978-2.831c-1.166-0.426-2.135-0.155-2.827,0.901
		c-1.781,2.715-3.622,5.396-5.268,8.19c-0.392,0.663-0.411,1.861-0.081,2.571c0.872,1.863,3.413,1.964,4.617,0.21
		c1.753-2.555,3.394-5.189,5.055-7.808C190.986,188.517,191.088,188.016,191.214,187.684 M164.535,167.573
		c-0.642-0.705-1.209-1.646-2.039-2.162c-0.999-0.62-2.261-0.4-2.942,0.583c-1.938,2.798-3.808,5.649-5.555,8.57
		c-0.753,1.256-0.052,2.822,1.261,3.521c1.276,0.679,2.491,0.387,3.333-0.876c1.726-2.589,3.425-5.192,5.111-7.805
		C163.987,168.964,164.146,168.44,164.535,167.573 M183.809,179.091c-0.208-1.569-0.843-2.492-2.121-2.887
		c-1.246-0.386-2.232,0.003-2.942,1.08c-2.58,3.911-5.174,7.815-7.719,11.752c-0.921,1.423-0.515,3,0.861,3.831
		c1.368,0.831,2.912,0.399,3.834-1.013c2.374-3.635,4.778-7.246,7.141-10.886C183.283,180.323,183.562,179.587,183.809,179.091
		 M177.604,168.437c-0.027-1.75-0.898-2.606-2.124-3.037c-1.303-0.456-2.42-0.033-3.202,1.155
		c-3.627,5.512-7.272,11.012-10.878,16.537c-0.953,1.463-0.597,2.93,0.8,3.851c1.514,0.995,2.914,0.741,3.937-0.793
		c3.601-5.41,7.19-10.832,10.766-16.261C177.242,169.366,177.451,168.76,177.604,168.437 M137.745,158.809
		c8.772-13.479,17.457-26.822,26.197-40.25c-3.537-2.177-6.969-4.293-10.52-6.479c-8.71,13.688-17.363,27.286-26.111,41.033
		C130.806,155.019,134.211,156.878,137.745,158.809 M267.438,158.806c3.547-1.935,6.953-3.794,10.435-5.695
		c-8.749-13.74-17.424-27.367-26.127-41.036c-3.615,2.232-7.033,4.345-10.503,6.487C250.013,132.039,258.679,145.35,267.438,158.806
		 M177.427,143.051c1.732,0,3.105,0.007,4.479-0.002c6.062-0.037,4.868,0.602,8.157-4.322c1.109-1.66,2.482-3.137,4.415-3.519
		c4.092-0.808,8.137-1.14,11.952,1.435c12.643,8.534,25.372,16.939,38.044,25.429c0.865,0.58,1.463,0.675,2.332,0.007
		c1.719-1.325,3.539-2.517,5.318-3.764c1.892-1.323,3.782-2.646,5.741-4.019c-5.9-9.066-11.709-17.993-17.56-26.982
		c-0.911,0.445-1.784,0.794-2.576,1.272c-2.812,1.696-5.701,1.843-8.817,0.868c-4.611-1.441-9.28-2.701-13.933-4.005
		c-0.848-0.237-1.737-0.448-2.609-0.454c-5.977-0.038-11.955-0.045-17.932-0.008c-2.633,0.015-4.761,1.167-6.378,3.226
		c-0.792,1.009-1.5,2.083-2.247,3.127C183.089,135.147,180.361,138.953,177.427,143.051 M236.657,180.603
		c-6.909-4.146-13.722-8.233-20.534-12.324c-0.422-0.253-0.863-0.489-1.249-0.793c-1.155-0.908-1.449-2.359-0.755-3.574
		c0.715-1.252,2.232-1.746,3.598-1.143c0.405,0.178,0.774,0.437,1.155,0.664c7.07,4.24,14.135,8.491,21.215,12.715
		c2.334,1.392,4.652,0.844,6.046-1.342c1.323-2.076,0.799-4.435-1.407-5.909c-13.962-9.324-27.932-18.638-41.924-27.919
		c-0.657-0.436-1.538-0.604-2.342-0.737c-3.287-0.553-5.811,0.451-7.171,3.688c-0.094,0.224-0.271,0.411-0.405,0.619
		c-1.754,2.708-4.26,4.031-7.467,4.04c-4.251,0.011-8.501-0.003-12.751,0.008c-1.31,0.003-2.466-0.269-3.109-1.56
		c-0.637-1.282-0.176-2.361,0.597-3.428c2.809-3.88,5.59-7.784,8.375-11.682c0.272-0.381,0.51-0.789,1.048-1.63
		c-5.712,1.446-9.552-2.263-14.042-3.989c-5.978,9.188-11.889,18.273-17.702,27.208c2.799,2.795,5.445,5.439,8.14,8.13
		c1.737-1.44,3.83-2.152,6.216-1.985c2.398,0.165,4.267,1.351,5.891,3.08c2.862-2.895,6.158-4.011,9.883-2.314
		c4.385,2.001,5.77,5.657,4.859,10.268c4.228,1.33,6.285,4.222,6.502,8.448c3.473,0.659,5.878,2.479,6.961,5.81
		c1.102,3.381-0.099,6.277-2.207,9.025c4.915,1.876,9.656,3.692,14.403,5.494c3.11,1.184,5.427,0.023,6.492-3.282
		c-3.501-1.997-7.02-3.994-10.526-6.01c-1.8-1.034-2.373-2.55-1.56-4.033c0.832-1.516,2.517-1.828,4.357-0.781
		c4.033,2.296,8.042,4.637,12.091,6.899c3.205,1.793,6.485,0.787,8.192-2.27c-6.029-3.761-12.062-7.497-18.062-11.284
		c-1.439-0.91-1.742-2.565-0.876-3.876c0.828-1.256,2.362-1.594,3.79-0.819c0.348,0.188,0.675,0.411,1.009,0.621
		c4.733,2.957,9.444,5.945,14.214,8.84c0.936,0.565,2.072,1,3.151,1.098C233.621,184.835,235.244,182.988,236.657,180.603
		 M168.647,121.549c2.205,1.103,4.269,2.155,6.355,3.16c0.379,0.184,0.847,0.235,1.279,0.25c1.035,0.036,2.082-0.071,3.111,0.029
		c2.501,0.24,4.514-0.234,6.393-2.272c2.204-2.389,5.363-3.291,8.631-3.32c5.979-0.052,11.957-0.059,17.934,0.021
		c1.41,0.018,2.845,0.334,4.216,0.705c4.379,1.189,8.804,2.266,13.071,3.781c2.909,1.036,5.152,0.249,7.513-1.405
		c-0.682-1.062-1.392-2.111-2.041-3.197c-0.971-1.624-0.657-3.063,0.953-4.067c4.944-3.08,9.904-6.136,14.876-9.168
		c1.707-1.041,3.105-0.722,4.187,0.972c9.632,15.111,19.256,30.23,28.865,45.358c1.131,1.782,0.72,3.312-1.144,4.339
		c-4.885,2.69-9.783,5.354-14.69,8.004c-1.794,0.969-3.044,0.63-4.186-1.06c-0.995-1.472-1.961-2.961-2.945-4.44
		c-0.023-0.035-0.081-0.046-0.275-0.148c-3.398,2.377-6.862,4.798-10.149,7.095c0.599,1.881,1.471,3.604,1.659,5.399
		c0.581,5.621-3.299,10.168-8.953,10.908c-0.593,0.075-1.323,0.442-1.658,0.91c-1.805,2.509-3.62,4.954-6.682,6.085
		c-0.273,0.099-0.458,0.478-0.654,0.749c-0.987,1.357-1.905,2.77-2.958,4.077c-2.457,3.054-5.692,4.523-9.604,4.288
		c-1.035-0.062-1.619,0.185-2.114,1.08c-1.734,3.136-4.173,5.467-7.908,5.75c-1.569,0.119-3.252-0.157-4.766-0.63
		c-2.68-0.837-5.269-1.965-7.896-2.966c-2.625-0.999-5.253-1.991-8.022-3.044c-1.73,2.963-4.282,4.765-7.798,4.691
		c-3.462-0.076-5.931-1.894-7.47-4.906c-5.551,0.634-8.272-0.82-10.432-5.515c-6.995-0.543-9.558-2.839-10.073-9.103
		c-0.293-0.091-0.612-0.194-0.934-0.285c-5.359-1.529-7.784-7.555-4.937-12.355c0.978-1.648,2.052-3.24,3.124-4.93
		c-2.325-2.325-4.591-4.594-6.862-6.857c-0.31-0.311-0.641-0.6-1.079-1.006c-1.145,1.748-2.229,3.432-3.339,5.095
		c-1.179,1.77-2.419,2.1-4.289,1.087c-4.861-2.627-9.714-5.272-14.559-7.935c-1.922-1.058-2.328-2.596-1.154-4.441
		c9.583-15.086,19.174-30.166,28.778-45.236c1.155-1.813,2.521-2.082,4.417-0.919c4.757,2.914,9.504,5.843,14.248,8.778
		c2.141,1.324,2.448,2.705,1.105,4.813C169.449,120.303,169.103,120.838,168.647,121.549"/>
</g>
<g id="Text" style="display:none;">
	<text transform="matrix(1 0 0 1 11.6357 69.6475)" style="display:inline;"><tspan x="0" y="0" style="fill:#837199; font-family:'FSMatthew-Bold'; font-size:25.7835;">O</tspan><tspan x="16.63" y="0" style="fill:#837199; font-family:'FSMatthew-Bold'; font-size:25.7835;">u</tspan><tspan x="31.017" y="0" style="fill:#837199; font-family:'FSMatthew-Bold'; font-size:25.7835;">r gl</tspan><tspan x="67.422" y="0" style="fill:#837199; font-family:'FSMatthew-Bold'; font-size:25.7835;">ob</tspan><tspan x="95.887" y="0" style="fill:#837199; font-family:'FSMatthew-Bold'; font-size:25.7835;">a</tspan><tspan x="109.526" y="0" style="fill:#837199; font-family:'FSMatthew-Bold'; font-size:25.7835;">l </tspan></text>
	<text transform="matrix(1 0 0 1 11.6357 95.4307)" style="display:inline;"><tspan x="0" y="0" style="fill:#837199; font-family:'FSMatthew-Bold'; font-size:25.7835;">p</tspan><tspan x="14.387" y="0" style="fill:#837199; font-family:'FSMatthew-Bold'; font-size:25.7835;">la</tspan><tspan x="34.652" y="0" style="fill:#837199; font-family:'FSMatthew-Bold'; font-size:25.7835;">c</tspan><tspan x="46.151" y="0" style="fill:#837199; font-family:'FSMatthew-Bold'; font-size:25.7835;">emen</tspan><tspan x="110.764" y="0" style="fill:#837199; font-family:'FSMatthew-Bold'; font-size:25.7835;">t </tspan></text>
	<text transform="matrix(1 0 0 1 11.6357 121.2148)" style="display:inline;"><tspan x="0" y="0" style="fill:#837199; font-family:'FSMatthew-Bold'; font-size:25.7835;">employe</tspan><tspan x="99.471" y="0" style="fill:#837199; font-family:'FSMatthew-Bold'; font-size:25.7835;">r </tspan></text>
	<text transform="matrix(1 0 0 1 11.6357 146.998)" style="display:inline;"><tspan x="0" y="0" style="fill:#837199; font-family:'FSMatthew-Bold'; font-size:25.7835;">pa</tspan><tspan x="28" y="0" style="fill:#837199; font-family:'FSMatthew-Bold'; font-size:25.7835;">r</tspan><tspan x="38.313" y="0" style="fill:#837199; font-family:'FSMatthew-Bold'; font-size:25.7835;">tne</tspan><tspan x="77.22" y="0" style="fill:#837199; font-family:'FSMatthew-Bold'; font-size:25.7835;">r</tspan><tspan x="86.605" y="0" style="fill:#837199; font-family:'FSMatthew-Bold'; font-size:25.7835;">s </tspan></text>
	<text transform="matrix(1 0 0 1 11.6357 172.7812)" style="display:inline;"><tspan x="0" y="0" style="fill:#837199; font-family:'FSMatthew-Bold'; font-size:25.7835;">incl</tspan><tspan x="40.247" y="0" style="fill:#837199; font-family:'FSMatthew-Bold'; font-size:25.7835;">ud</tspan><tspan x="68.917" y="0" style="fill:#837199; font-family:'FSMatthew-Bold'; font-size:25.7835;">e</tspan><tspan x="82.325" y="0" style="fill:#837199; font-family:'FSMatthew-Bold'; font-size:25.7835;">:</tspan></text>
	
		<text transform="matrix(1 0 0 1 100.2773 172.7812)" style="display:inline;fill:#76B143; font-family:'FSMatthew-Bold'; font-size:27.2159;"> </text>
	<text transform="matrix(1 0 0 1 11.6357 191.4033)" style="display:inline;"><tspan x="0" y="0" style="fill:#58595B; font-family:'FSMatthew-Light'; font-size:15.7566;">Citi, </tspan><tspan x="28.077" y="0" style="fill:#58595B; font-family:'FSMatthew-Light'; font-size:15.7566;">W</tspan><tspan x="41.187" y="0" style="fill:#58595B; font-family:'FSMatthew-Light'; font-size:15.7566;">alt Disney </tspan></text>
	<text transform="matrix(1 0 0 1 11.6357 210.0264)" style="display:inline;"><tspan x="0" y="0" style="fill:#58595B; font-family:'FSMatthew-Light'; font-size:15.7566;">W</tspan><tspan x="13.22" y="0" style="fill:#58595B; font-family:'FSMatthew-Light'; font-size:15.7566;">orld, Allen &amp; </tspan></text>
	<text transform="matrix(1 0 0 1 11.6357 228.6504)" style="display:inline;"><tspan x="0" y="0" style="fill:#58595B; font-family:'FSMatthew-Light'; font-size:15.7566;">O</tspan><tspan x="9.863" y="0" style="fill:#58595B; font-family:'FSMatthew-Light'; font-size:15.7566;">v</tspan><tspan x="17.206" y="0" style="fill:#58595B; font-family:'FSMatthew-Light'; font-size:15.7566;">ery and PwC </tspan></text>
	<text transform="matrix(1 0 0 1 11.6357 247.2754)" style="display:inline;"><tspan x="0" y="0" style="fill:#58595B; font-family:'FSMatthew-Light'; font-size:15.7566;">t</tspan><tspan x="5.499" y="0" style="fill:#58595B; font-family:'FSMatthew-Light'; font-size:15.7566;">o name ju</tspan><tspan x="69.438" y="0" style="fill:#58595B; font-family:'FSMatthew-Light'; font-size:15.7566;">s</tspan><tspan x="75.567" y="0" style="fill:#58595B; font-family:'FSMatthew-Light'; font-size:15.7566;">t a </tspan><tspan x="96.176" y="0" style="fill:#58595B; font-family:'FSMatthew-Light'; font-size:15.7566;">f</tspan><tspan x="101.297" y="0" style="fill:#58595B; font-family:'FSMatthew-Light'; font-size:15.7566;">ew</tspan></text>
</g>
<g id="Text_Flat">
	<g>
		<path style="fill:#837199;" d="M20.068,69.905c-4.771,0-7.298-3.301-7.298-8.974c0-5.673,2.527-8.974,7.298-8.974
			c4.771,0,7.298,3.301,7.298,8.974C27.366,66.604,24.839,69.905,20.068,69.905z M20.068,55.129c-2.218,0-3.481,1.702-3.481,5.802
			c0,4.101,1.264,5.802,3.481,5.802s3.481-1.702,3.481-5.802C23.549,56.831,22.286,55.129,20.068,55.129z"/>
		<path style="fill:#837199;" d="M41.366,64.464c0,3.842-1.805,5.441-5.828,5.441c-3.919,0-5.725-1.599-5.725-5.441v-8.252
			c0.361-0.052,1.057-0.129,1.753-0.129c0.619,0,1.393,0.051,1.805,0.129v8.226c0,2.011,0.593,2.733,2.218,2.733
			c1.65,0,2.218-0.722,2.218-2.733v-8.226c0.361-0.078,1.16-0.129,1.805-0.129c0.645,0,1.496,0.077,1.753,0.129V64.464z"/>
		<path style="fill:#837199;" d="M51.885,58.946c-1.341,0.206-2.785,0.67-4.074,1.341v9.361c-0.361,0.077-1.135,0.129-1.754,0.129
			c-0.619,0-1.521-0.052-1.805-0.129V56.212c0.387-0.052,1.032-0.129,1.547-0.129c0.438,0,1.135,0.051,1.496,0.129l0.207,1.65
			c0.954-0.851,2.682-1.779,4.358-1.908c0.052,0.206,0.103,0.954,0.103,1.496C51.962,57.966,51.937,58.584,51.885,58.946z"/>
		<path style="fill:#837199;" d="M71.119,67.275c0,1.728-0.103,4.204-1.108,5.905c-1.212,2.038-3.069,2.811-5.544,2.811
			c-1.418,0-2.785-0.181-3.971-0.542c-0.078-0.258-0.104-0.593-0.104-0.928c0-0.567,0.078-1.161,0.207-1.676
			c1.109,0.284,2.424,0.464,3.456,0.464c1.47,0,2.476-0.567,3.043-1.599c0.516-0.928,0.593-1.779,0.593-2.811
			c-0.645,0.49-1.831,0.877-3.042,0.877c-3.765,0-5.699-2.785-5.699-6.473c0-4.796,2.501-7.349,7.22-7.349
			c1.212,0,3.404,0.232,4.951,0.876V67.275z M67.561,58.92c-0.387-0.077-1.186-0.129-1.521-0.129c-2.372,0-3.43,1.521-3.43,4.332
			c0,2.244,0.825,3.791,2.604,3.791c1.006,0,1.831-0.284,2.347-0.722V58.92z"/>
		<path style="fill:#837199;" d="M77.641,69.647c-0.464,0.103-1.418,0.129-1.831,0.129c-0.619,0-1.289-0.052-1.728-0.129V50.849
			c0.567-0.078,1.264-0.129,1.728-0.129c0.619,0,1.341,0.051,1.831,0.129V69.647z"/>
		<path style="fill:#837199;" d="M86.253,69.905c-3.894,0-6.37-2.501-6.37-6.937c0-4.41,2.45-7.014,6.37-7.014
			c3.919,0,6.369,2.579,6.369,6.988S90.172,69.905,86.253,69.905z M86.253,58.739c-1.676,0-2.708,1.135-2.708,4.204
			c0,3.068,1.032,4.177,2.708,4.177c1.676,0,2.708-1.109,2.708-4.177C88.96,59.848,87.929,58.739,86.253,58.739z"/>
		<path style="fill:#837199;" d="M99.815,69.905c-1.238,0-3.353-0.155-5.029-0.799V50.849c0.387-0.078,1.109-0.129,1.728-0.129
			c0.773,0,1.547,0.077,1.831,0.129v5.957c0.8-0.438,2.012-0.851,3.146-0.851c4.022,0,5.467,3.223,5.467,6.447
			C106.958,66.836,104.637,69.905,99.815,69.905z M100.795,58.843c-0.851,0-1.779,0.283-2.45,0.722v7.375
			c0.387,0.103,1.083,0.18,1.78,0.18c2.269,0,3.171-1.599,3.171-4.513C103.296,60.596,102.703,58.843,100.795,58.843z"/>
		<path style="fill:#837199;" d="M119.824,65.908c0,1.109,0.025,2.373,0.025,3.739c-0.413,0.103-1.109,0.129-1.547,0.129
			c-0.49,0-1.135-0.052-1.547-0.129c-0.052-0.31-0.103-0.851-0.129-1.186h-0.052c-0.876,0.902-2.373,1.444-3.739,1.444
			c-2.579,0-4.435-1.599-4.435-4.255c0-4.126,3.662-4.822,6.73-4.822c0.206,0,0.696,0.026,1.109,0.052
			c0-0.155-0.026-0.49-0.052-0.619c-0.181-1.057-0.877-1.496-2.373-1.496c-1.16,0-2.785,0.232-4.023,0.542
			c-0.129-0.361-0.206-0.98-0.206-1.444c0-0.387,0.052-0.98,0.155-1.238c1.444-0.438,3.223-0.67,4.693-0.67
			c3.223,0,5.39,1.496,5.39,4.848V65.908z M116.265,63.355c-0.309-0.026-0.722-0.052-1.083-0.052c-2.321,0-3.223,0.928-3.223,2.089
			c0,1.006,0.67,1.702,1.831,1.702c0.851,0,1.805-0.413,2.476-1.006V63.355z"/>
		<path style="fill:#837199;" d="M126.371,69.647c-0.464,0.103-1.418,0.129-1.831,0.129c-0.619,0-1.289-0.052-1.728-0.129V50.849
			c0.567-0.078,1.264-0.129,1.728-0.129c0.619,0,1.341,0.051,1.831,0.129V69.647z"/>
	</g>
	<g>
		<path style="fill:#837199;" d="M19.32,95.431c-0.799,0-1.882-0.129-2.527-0.31v6.37c-0.464,0.077-1.237,0.129-1.805,0.129
			c-0.696,0-1.238-0.077-1.754-0.129V82.021c0.413-0.078,1.109-0.129,1.65-0.129c0.49,0,1.032,0.052,1.393,0.129l0.129,1.108
			c0.825-0.773,2.321-1.392,3.713-1.392c3.688,0,5.338,3.017,5.338,6.472C25.458,92.207,23.395,95.431,19.32,95.431z M19.372,84.626
			c-0.954,0-1.96,0.387-2.579,0.954v6.833c0.49,0.155,1.444,0.258,2.115,0.258c1.908,0,2.888-1.573,2.888-4.178
			C21.796,85.941,20.868,84.626,19.372,84.626z"/>
		<path style="fill:#837199;" d="M31.232,95.431c-0.464,0.103-1.418,0.129-1.831,0.129c-0.619,0-1.289-0.052-1.728-0.129V76.632
			c0.567-0.078,1.264-0.129,1.728-0.129c0.619,0,1.341,0.051,1.831,0.129V95.431z"/>
		<path style="fill:#837199;" d="M44.95,91.691c0,1.109,0.025,2.373,0.025,3.739c-0.413,0.103-1.109,0.129-1.547,0.129
			c-0.49,0-1.135-0.052-1.547-0.129c-0.052-0.31-0.103-0.851-0.129-1.186H41.7c-0.876,0.902-2.373,1.444-3.739,1.444
			c-2.579,0-4.435-1.599-4.435-4.255c0-4.126,3.662-4.822,6.73-4.822c0.206,0,0.696,0.026,1.109,0.052
			c0-0.155-0.026-0.49-0.052-0.619c-0.181-1.057-0.877-1.496-2.373-1.496c-1.16,0-2.785,0.232-4.023,0.542
			c-0.129-0.361-0.206-0.98-0.206-1.444c0-0.387,0.052-0.98,0.155-1.238c1.444-0.438,3.223-0.67,4.693-0.67
			c3.223,0,5.39,1.496,5.39,4.848V91.691z M41.391,89.139c-0.309-0.026-0.722-0.052-1.083-0.052c-2.321,0-3.223,0.928-3.223,2.089
			c0,1.006,0.67,1.702,1.831,1.702c0.851,0,1.805-0.413,2.476-1.006V89.139z"/>
		<path style="fill:#837199;" d="M57.428,83.439c0,0.567-0.077,1.187-0.258,1.728c-0.851-0.335-1.96-0.542-3.017-0.542
			c-2.012,0-3.378,1.289-3.378,4.177c0,2.527,1.161,3.997,3.404,3.997c1.16,0,2.269-0.206,3.094-0.49
			c0.155,0.567,0.232,1.264,0.232,1.805c0,0.361,0,0.619-0.025,0.851c-1.032,0.464-2.398,0.722-3.688,0.722
			c-4.461,0-6.679-2.604-6.679-6.833c0-4.384,2.321-7.117,6.833-7.117c1.264,0,2.501,0.258,3.378,0.67
			C57.402,82.692,57.428,83.053,57.428,83.439z"/>
		<path style="fill:#837199;" d="M70.526,89.964h-8.148c0.051,1.676,1.212,2.914,3.456,2.914c1.212,0,2.45-0.155,3.507-0.438
			c0.155,0.696,0.258,1.47,0.258,2.166c0,0.103,0,0.232-0.026,0.516c-1.315,0.387-2.682,0.567-4.022,0.567
			c-4.9,0-6.937-2.811-6.937-6.911c0-3.584,2.011-7.04,6.37-7.04c4.126,0,5.622,3.042,5.622,6.395
			C70.604,88.597,70.604,89.293,70.526,89.964z M67.045,87.411c0-1.625-0.438-2.991-2.115-2.991c-1.599,0-2.45,1.264-2.553,2.991
			H67.045z"/>
		<path style="fill:#837199;" d="M92.959,95.431c-0.413,0.103-1.29,0.129-1.702,0.129c-0.438,0-1.444-0.052-1.856-0.129v-8.097
			c0-0.98-0.026-1.702-0.387-2.141c-0.335-0.413-0.851-0.567-1.496-0.567c-0.876,0-2.114,0.387-2.914,0.876
			c0.026,0.438,0.052,0.877,0.052,1.393v8.536c-0.413,0.103-1.289,0.129-1.702,0.129c-0.438,0-1.444-0.052-1.856-0.129v-8.097
			c0-0.98-0.026-1.702-0.387-2.141c-0.335-0.413-0.851-0.567-1.496-0.567c-0.903,0-2.063,0.361-2.863,0.851v9.954
			c-0.593,0.103-1.418,0.129-1.882,0.129c-0.413,0-1.16-0.026-1.676-0.129V81.996c0.335-0.078,1.161-0.129,1.547-0.129
			c0.361,0,1.109,0.051,1.496,0.129l0.155,1.212c1.135-0.851,2.759-1.47,4.204-1.47c1.496,0,2.811,0.516,3.816,1.625
			c1.393-0.954,3.068-1.625,4.771-1.625c1.264,0,2.553,0.516,3.198,1.289c0.799,0.954,0.98,2.192,0.98,4.075V95.431z"/>
		<path style="fill:#837199;" d="M107.009,89.964h-8.148c0.051,1.676,1.212,2.914,3.456,2.914c1.212,0,2.45-0.155,3.507-0.438
			c0.155,0.696,0.258,1.47,0.258,2.166c0,0.103,0,0.232-0.026,0.516c-1.315,0.387-2.682,0.567-4.022,0.567
			c-4.9,0-6.937-2.811-6.937-6.911c0-3.584,2.011-7.04,6.37-7.04c4.126,0,5.622,3.042,5.622,6.395
			C107.087,88.597,107.087,89.293,107.009,89.964z M103.528,87.411c0-1.625-0.438-2.991-2.115-2.991
			c-1.599,0-2.45,1.264-2.553,2.991H103.528z"/>
		<path style="fill:#837199;" d="M121.087,95.431c-0.412,0.103-1.289,0.129-1.702,0.129c-0.438,0-1.444-0.052-1.857-0.129v-8.819
			c0-1.393-0.722-1.985-1.882-1.985c-0.928,0-1.986,0.335-2.811,0.851v9.954c-0.593,0.103-1.418,0.129-1.882,0.129
			c-0.413,0-1.16-0.026-1.676-0.129V81.996c0.335-0.078,1.161-0.129,1.547-0.129c0.361,0,1.109,0.051,1.496,0.129l0.181,1.186
			c1.16-0.851,2.836-1.444,4.332-1.444c2.837,0,4.255,1.753,4.255,4.693V95.431z"/>
		<path style="fill:#837199;" d="M132.509,95.173c-0.774,0.31-1.702,0.516-3.198,0.516c-2.914,0-4.358-1.418-4.358-4.255v-6.782
			h-2.217c-0.104-0.387-0.181-1.031-0.181-1.367c0-0.309,0.077-0.876,0.155-1.134l2.243-0.155V78.54
			c0.284-0.052,1.187-0.103,1.78-0.103c0.645,0,1.444,0.051,1.779,0.103v3.456h3.713c0.103,0.361,0.154,0.876,0.154,1.16
			c0,0.31-0.025,1.135-0.129,1.496h-3.739v6.267c0,1.289,0.516,1.856,1.779,1.856c0.696,0,1.547-0.103,2.14-0.309
			c0.103,0.335,0.232,0.979,0.232,1.573C132.663,94.348,132.612,94.889,132.509,95.173z"/>
	</g>
	<g>
		<path style="fill:#837199;" d="M24.375,115.748h-8.148c0.051,1.676,1.212,2.914,3.456,2.914c1.212,0,2.45-0.155,3.507-0.438
			c0.155,0.696,0.258,1.47,0.258,2.166c0,0.103,0,0.232-0.026,0.516c-1.315,0.387-2.682,0.567-4.022,0.567
			c-4.9,0-6.937-2.811-6.937-6.911c0-3.584,2.011-7.04,6.37-7.04c4.126,0,5.622,3.042,5.622,6.395
			C24.452,114.381,24.452,115.078,24.375,115.748z M20.894,113.195c0-1.625-0.438-2.991-2.115-2.991
			c-1.599,0-2.45,1.264-2.553,2.991H20.894z"/>
		<path style="fill:#837199;" d="M46.808,121.215c-0.413,0.103-1.29,0.129-1.702,0.129c-0.438,0-1.444-0.052-1.856-0.129v-8.097
			c0-0.98-0.026-1.702-0.387-2.141c-0.335-0.413-0.851-0.567-1.496-0.567c-0.876,0-2.114,0.387-2.914,0.876
			c0.026,0.438,0.052,0.877,0.052,1.393v8.536c-0.413,0.103-1.289,0.129-1.702,0.129c-0.438,0-1.444-0.052-1.856-0.129v-8.097
			c0-0.98-0.026-1.702-0.387-2.141c-0.335-0.413-0.851-0.567-1.496-0.567c-0.903,0-2.063,0.361-2.863,0.851v9.954
			c-0.593,0.103-1.418,0.129-1.882,0.129c-0.413,0-1.16-0.026-1.676-0.129V107.78c0.335-0.078,1.161-0.129,1.547-0.129
			c0.361,0,1.109,0.051,1.496,0.129l0.155,1.212c1.135-0.851,2.759-1.47,4.204-1.47c1.496,0,2.811,0.516,3.816,1.625
			c1.393-0.954,3.068-1.625,4.771-1.625c1.264,0,2.553,0.516,3.198,1.289c0.799,0.954,0.98,2.192,0.98,4.075V121.215z"/>
		<path style="fill:#837199;" d="M55.804,121.215c-0.799,0-1.882-0.129-2.527-0.31v6.37c-0.464,0.077-1.237,0.129-1.805,0.129
			c-0.696,0-1.238-0.077-1.754-0.129v-19.469c0.413-0.078,1.109-0.129,1.65-0.129c0.49,0,1.032,0.052,1.393,0.129l0.129,1.108
			c0.825-0.773,2.321-1.392,3.713-1.392c3.688,0,5.338,3.017,5.338,6.472C61.941,117.991,59.878,121.215,55.804,121.215z
			 M55.855,110.41c-0.954,0-1.96,0.387-2.579,0.954v6.833c0.49,0.155,1.444,0.258,2.115,0.258c1.908,0,2.888-1.573,2.888-4.178
			C58.279,111.725,57.351,110.41,55.855,110.41z"/>
		<path style="fill:#837199;" d="M67.741,121.215c-0.464,0.103-1.418,0.129-1.831,0.129c-0.619,0-1.289-0.052-1.728-0.129v-18.799
			c0.567-0.078,1.264-0.129,1.728-0.129c0.619,0,1.341,0.051,1.831,0.129V121.215z"/>
		<path style="fill:#837199;" d="M76.353,121.473c-3.894,0-6.37-2.501-6.37-6.937c0-4.41,2.45-7.014,6.37-7.014
			c3.919,0,6.369,2.579,6.369,6.988S80.272,121.473,76.353,121.473z M76.353,110.307c-1.676,0-2.708,1.135-2.708,4.204
			c0,3.068,1.032,4.177,2.708,4.177c1.676,0,2.708-1.109,2.708-4.177C79.06,111.416,78.028,110.307,76.353,110.307z"/>
		<path style="fill:#837199;" d="M96.335,118.842c0,1.96-0.103,4.126-1.109,5.828c-1.212,2.037-3.249,2.888-5.544,2.888
			c-1.29,0-2.759-0.181-3.946-0.542c-0.077-0.232-0.129-0.851-0.129-1.238c0-0.31,0.104-1.058,0.181-1.367
			c1.032,0.284,2.424,0.464,3.378,0.464c1.547,0,2.476-0.542,3.043-1.573c0.516-0.928,0.593-1.96,0.593-2.966
			c-0.902,0.696-2.089,1.135-3.198,1.135c-3.378,0-4.745-1.753-4.745-5.08v-8.613c0.413-0.104,1.289-0.129,1.702-0.129
			c0.438,0,1.444,0.051,1.857,0.129v8.407c0,1.65,0.593,2.372,2.063,2.372c0.928,0,1.753-0.387,2.295-0.902v-9.876
			c0.593-0.104,1.418-0.129,1.882-0.129c0.413,0,1.161,0.025,1.676,0.129V118.842z"/>
		<path style="fill:#837199;" d="M110.438,115.748h-8.148c0.051,1.676,1.212,2.914,3.455,2.914c1.212,0,2.45-0.155,3.507-0.438
			c0.155,0.696,0.258,1.47,0.258,2.166c0,0.103,0,0.232-0.026,0.516c-1.315,0.387-2.682,0.567-4.022,0.567
			c-4.9,0-6.937-2.811-6.937-6.911c0-3.584,2.011-7.04,6.37-7.04c4.126,0,5.622,3.042,5.622,6.395
			C110.516,114.381,110.516,115.078,110.438,115.748z M106.958,113.195c0-1.625-0.438-2.991-2.115-2.991
			c-1.599,0-2.45,1.264-2.553,2.991H106.958z"/>
		<path style="fill:#837199;" d="M120.339,110.513c-1.341,0.206-2.785,0.67-4.074,1.341v9.361c-0.361,0.077-1.135,0.129-1.754,0.129
			c-0.619,0-1.521-0.052-1.805-0.129V107.78c0.387-0.052,1.032-0.129,1.547-0.129c0.438,0,1.135,0.051,1.496,0.129l0.207,1.65
			c0.954-0.851,2.682-1.779,4.358-1.908c0.052,0.206,0.103,0.954,0.103,1.496C120.416,109.533,120.391,110.152,120.339,110.513z"/>
	</g>
	<g>
		<path style="fill:#837199;" d="M19.32,146.998c-0.799,0-1.882-0.129-2.527-0.31v6.369c-0.464,0.078-1.237,0.13-1.805,0.13
			c-0.696,0-1.238-0.078-1.754-0.13v-19.469c0.413-0.078,1.109-0.129,1.65-0.129c0.49,0,1.032,0.052,1.393,0.129l0.129,1.108
			c0.825-0.773,2.321-1.392,3.713-1.392c3.688,0,5.338,3.017,5.338,6.472C25.458,143.774,23.395,146.998,19.32,146.998z
			 M19.372,136.193c-0.954,0-1.96,0.387-2.579,0.954v6.833c0.49,0.155,1.444,0.258,2.115,0.258c1.908,0,2.888-1.573,2.888-4.178
			C21.796,137.508,20.868,136.193,19.372,136.193z"/>
		<path style="fill:#837199;" d="M38.324,143.259c0,1.109,0.025,2.373,0.025,3.739c-0.413,0.103-1.109,0.129-1.547,0.129
			c-0.49,0-1.135-0.052-1.547-0.129c-0.052-0.31-0.103-0.851-0.129-1.186h-0.052c-0.876,0.902-2.373,1.444-3.739,1.444
			c-2.579,0-4.435-1.599-4.435-4.255c0-4.126,3.662-4.822,6.73-4.822c0.206,0,0.696,0.026,1.109,0.052
			c0-0.155-0.026-0.49-0.052-0.619c-0.181-1.057-0.877-1.496-2.373-1.496c-1.16,0-2.785,0.232-4.023,0.542
			c-0.129-0.361-0.206-0.98-0.206-1.444c0-0.387,0.052-0.98,0.155-1.238c1.444-0.438,3.223-0.67,4.693-0.67
			c3.223,0,5.39,1.496,5.39,4.848V143.259z M34.765,140.706c-0.309-0.026-0.722-0.052-1.083-0.052c-2.321,0-3.223,0.928-3.223,2.089
			c0,1.006,0.67,1.702,1.831,1.702c0.851,0,1.805-0.413,2.476-1.006V140.706z"/>
		<path style="fill:#837199;" d="M48.868,136.296c-1.341,0.206-2.785,0.67-4.074,1.341v9.361c-0.361,0.077-1.135,0.129-1.754,0.129
			c-0.619,0-1.521-0.052-1.805-0.129v-13.435c0.387-0.052,1.032-0.129,1.547-0.129c0.438,0,1.135,0.051,1.496,0.129l0.207,1.65
			c0.954-0.851,2.682-1.779,4.358-1.908c0.052,0.206,0.103,0.954,0.103,1.496C48.945,135.316,48.92,135.935,48.868,136.296z"/>
		<path style="fill:#837199;" d="M60.058,146.74c-0.773,0.31-1.702,0.516-3.197,0.516c-2.914,0-4.358-1.418-4.358-4.255v-6.782
			h-2.217c-0.104-0.387-0.181-1.031-0.181-1.367c0-0.309,0.077-0.876,0.155-1.134l2.243-0.155v-3.456
			c0.284-0.052,1.187-0.103,1.779-0.103c0.645,0,1.444,0.051,1.78,0.103v3.456h3.713c0.103,0.361,0.154,0.876,0.154,1.16
			c0,0.31-0.025,1.135-0.129,1.496h-3.739v6.267c0,1.289,0.516,1.856,1.779,1.856c0.696,0,1.547-0.103,2.14-0.309
			c0.103,0.335,0.232,0.979,0.232,1.573C60.212,145.915,60.161,146.457,60.058,146.74z"/>
		<path style="fill:#837199;" d="M74.136,146.998c-0.412,0.103-1.289,0.129-1.702,0.129c-0.438,0-1.444-0.052-1.857-0.129v-8.819
			c0-1.393-0.722-1.985-1.882-1.985c-0.928,0-1.986,0.335-2.811,0.851v9.954c-0.593,0.103-1.418,0.129-1.882,0.129
			c-0.413,0-1.16-0.026-1.676-0.129v-13.435c0.335-0.078,1.161-0.129,1.547-0.129c0.361,0,1.109,0.051,1.496,0.129l0.181,1.186
			c1.16-0.851,2.836-1.444,4.332-1.444c2.837,0,4.255,1.753,4.255,4.693V146.998z"/>
		<path style="fill:#837199;" d="M88.188,141.531h-8.148c0.051,1.676,1.212,2.914,3.455,2.914c1.212,0,2.45-0.155,3.507-0.438
			c0.155,0.696,0.258,1.47,0.258,2.166c0,0.103,0,0.232-0.026,0.516c-1.315,0.387-2.682,0.567-4.022,0.567
			c-4.9,0-6.937-2.811-6.937-6.911c0-3.584,2.011-7.04,6.37-7.04c4.126,0,5.622,3.042,5.622,6.395
			C88.265,140.165,88.265,140.861,88.188,141.531z M84.707,138.978c0-1.625-0.438-2.991-2.115-2.991
			c-1.599,0-2.45,1.264-2.553,2.991H84.707z"/>
		<path style="fill:#837199;" d="M98.088,136.296c-1.341,0.206-2.785,0.67-4.074,1.341v9.361c-0.361,0.077-1.135,0.129-1.754,0.129
			c-0.619,0-1.521-0.052-1.805-0.129v-13.435c0.387-0.052,1.032-0.129,1.547-0.129c0.438,0,1.135,0.051,1.496,0.129l0.207,1.65
			c0.954-0.851,2.682-1.779,4.358-1.908c0.052,0.206,0.103,0.954,0.103,1.496C98.165,135.316,98.14,135.935,98.088,136.296z"/>
		<path style="fill:#837199;" d="M103.811,147.256c-1.521,0-3.12-0.232-4.358-0.645c-0.077-0.387-0.103-0.877-0.103-1.393
			c0-0.413,0.103-1.006,0.206-1.367c1.187,0.413,2.888,0.696,3.894,0.696c1.393,0,2.192-0.464,2.192-1.418
			c0-0.825-0.645-1.212-2.347-1.753c-2.708-0.851-3.971-2.115-3.971-4.075c0-2.914,2.682-3.997,5.235-3.997
			c1.186,0,2.501,0.206,3.404,0.49c0.104,0.387,0.155,0.928,0.155,1.238c0,0.335-0.103,1.032-0.232,1.47
			c-0.877-0.258-2.089-0.464-3.095-0.464c-1.238,0-2.088,0.309-2.088,1.083c0,0.825,0.954,1.16,2.45,1.65
			c2.604,0.851,3.842,1.934,3.842,3.971C108.994,145.889,106.467,147.256,103.811,147.256z"/>
	</g>
	<g>
		<path style="fill:#837199;" d="M15.194,157.876c-1.083,0-1.96-0.877-1.96-1.96s0.877-1.96,1.96-1.96s1.96,0.877,1.96,1.96
			S16.277,157.876,15.194,157.876z M16.974,172.781c-0.464,0.104-1.418,0.129-1.831,0.129c-0.619,0-1.289-0.052-1.728-0.129v-13.436
			c0.567-0.077,1.264-0.129,1.728-0.129c0.619,0,1.264,0.052,1.831,0.129V172.781z"/>
		<path style="fill:#837199;" d="M31.929,172.781c-0.412,0.104-1.289,0.129-1.702,0.129c-0.438,0-1.444-0.052-1.857-0.129v-8.819
			c0-1.393-0.722-1.985-1.882-1.985c-0.928,0-1.986,0.335-2.811,0.851v9.954c-0.593,0.104-1.418,0.129-1.882,0.129
			c-0.413,0-1.16-0.025-1.676-0.129v-13.436c0.335-0.077,1.161-0.129,1.547-0.129c0.361,0,1.109,0.052,1.496,0.129l0.181,1.187
			c1.16-0.851,2.836-1.444,4.332-1.444c2.837,0,4.255,1.754,4.255,4.693V172.781z"/>
		<path style="fill:#837199;" d="M44.382,160.79c0,0.567-0.077,1.187-0.258,1.728c-0.851-0.335-1.96-0.541-3.017-0.541
			c-2.012,0-3.378,1.289-3.378,4.178c0,2.526,1.161,3.997,3.404,3.997c1.16,0,2.269-0.207,3.094-0.49
			c0.155,0.567,0.232,1.264,0.232,1.805c0,0.361,0,0.619-0.025,0.852c-1.032,0.464-2.398,0.722-3.688,0.722
			c-4.461,0-6.679-2.604-6.679-6.834c0-4.384,2.321-7.117,6.833-7.117c1.264,0,2.501,0.258,3.378,0.671
			C44.356,160.042,44.382,160.403,44.382,160.79z"/>
		<path style="fill:#837199;" d="M50.465,172.781c-0.464,0.104-1.418,0.129-1.831,0.129c-0.619,0-1.289-0.052-1.728-0.129v-18.799
			c0.567-0.077,1.264-0.129,1.728-0.129c0.619,0,1.341,0.052,1.831,0.129V172.781z"/>
		<path style="fill:#837199;" d="M64.982,167.598c0,3.843-1.805,5.441-5.828,5.441c-3.919,0-5.725-1.599-5.725-5.441v-8.252
			c0.361-0.051,1.057-0.129,1.753-0.129c0.619,0,1.393,0.052,1.805,0.129v8.227c0,2.012,0.593,2.733,2.218,2.733
			c1.65,0,2.218-0.722,2.218-2.733v-8.227c0.361-0.077,1.16-0.129,1.805-0.129c0.645,0,1.496,0.078,1.754,0.129V167.598z"/>
		<path style="fill:#837199;" d="M79.267,172.781c-0.413,0.077-1.109,0.129-1.65,0.129c-0.49,0-1.058-0.052-1.418-0.129
			l-0.103-1.187c-0.929,0.903-2.115,1.444-3.507,1.444c-3.842,0-5.493-3.068-5.493-6.756c0-3.972,1.779-7.195,5.879-7.195
			c1.006,0,2.167,0.31,2.733,0.671v-5.776c0.464-0.077,1.238-0.129,1.805-0.129c0.696,0,1.238,0.077,1.754,0.129V172.781z
			 M75.708,162.415c-0.619-0.284-1.418-0.438-2.088-0.438c-2.089,0-2.863,1.856-2.863,4.1c0,1.883,0.464,4.023,2.553,4.023
			c1.006,0,1.779-0.413,2.398-0.929V162.415z"/>
		<path style="fill:#837199;" d="M93.292,167.314h-8.148c0.051,1.676,1.212,2.914,3.455,2.914c1.212,0,2.45-0.155,3.507-0.438
			c0.155,0.696,0.258,1.47,0.258,2.166c0,0.104,0,0.232-0.026,0.516c-1.315,0.387-2.682,0.567-4.022,0.567
			c-4.9,0-6.937-2.811-6.937-6.911c0-3.584,2.011-7.04,6.37-7.04c4.126,0,5.622,3.043,5.622,6.396
			C93.37,165.947,93.37,166.644,93.292,167.314z M89.811,164.762c0-1.625-0.438-2.991-2.115-2.991c-1.599,0-2.45,1.263-2.553,2.991
			H89.811z"/>
		<path style="fill:#837199;" d="M97.184,162.904c-1.032,0-1.883-0.851-1.883-1.882c0-1.032,0.851-1.883,1.883-1.883
			c1.031,0,1.882,0.851,1.882,1.883C99.066,162.054,98.215,162.904,97.184,162.904z M97.184,173.193
			c-1.032,0-1.883-0.851-1.883-1.882s0.851-1.883,1.883-1.883c1.031,0,1.882,0.852,1.882,1.883S98.215,173.193,97.184,173.193z"/>
	</g>
	<g>
		<path style="fill:#58595B;" d="M19.517,181.757c-0.599-0.157-1.466-0.3-2.175-0.3c-2.601,0-3.673,2.065-3.673,4.666
			c0,2.569,1.025,4.571,3.578,4.571c0.835,0,1.687-0.126,2.254-0.315c0.032,0.095,0.047,0.252,0.047,0.378
			c0,0.158-0.016,0.362-0.047,0.457c-0.567,0.189-1.371,0.347-2.285,0.347c-2.869,0-4.682-1.733-4.682-5.422
			c0-3.326,1.75-5.548,4.697-5.548c0.851,0,1.75,0.157,2.27,0.362c0.047,0.126,0.063,0.283,0.063,0.426
			C19.564,181.473,19.548,181.646,19.517,181.757z"/>
		<path style="fill:#58595B;" d="M22.146,181.583c-0.362,0-0.662-0.314-0.662-0.693c0-0.378,0.3-0.678,0.662-0.678
			c0.363,0,0.678,0.3,0.678,0.678C22.823,181.269,22.508,181.583,22.146,181.583z M22.666,191.403
			c-0.142,0.047-0.347,0.079-0.521,0.079s-0.362-0.032-0.504-0.079v-8.212c0.126-0.032,0.331-0.079,0.489-0.079
			c0.173,0,0.41,0.031,0.536,0.079V191.403z"/>
		<path style="fill:#58595B;" d="M29.238,191.324c-0.41,0.143-1.024,0.236-1.481,0.236c-1.561,0-2.301-0.74-2.301-2.49v-5.075
			h-1.419c-0.031-0.079-0.047-0.268-0.047-0.362c0-0.079,0.016-0.269,0.047-0.347l1.419-0.095v-2.144
			c0.126-0.048,0.331-0.079,0.504-0.079c0.173,0,0.394,0.031,0.52,0.079v2.144h2.317c0.032,0.078,0.063,0.315,0.063,0.394
			c0,0.11-0.031,0.3-0.063,0.41h-2.317v4.98c0,1.245,0.362,1.766,1.34,1.766c0.536,0,1.056-0.079,1.418-0.189
			c0.032,0.079,0.063,0.269,0.063,0.379C29.301,191.072,29.285,191.183,29.238,191.324z"/>
		<path style="fill:#58595B;" d="M31.332,181.583c-0.362,0-0.662-0.314-0.662-0.693c0-0.378,0.3-0.678,0.662-0.678
			c0.363,0,0.678,0.3,0.678,0.678C32.009,181.269,31.694,181.583,31.332,181.583z M31.852,191.403
			c-0.142,0.047-0.347,0.079-0.521,0.079s-0.362-0.032-0.504-0.079v-8.212c0.126-0.032,0.331-0.079,0.489-0.079
			c0.173,0,0.41,0.031,0.536,0.079V191.403z"/>
		<path style="fill:#58595B;" d="M33.458,193.847c-0.094-0.079-0.221-0.269-0.268-0.395c0.646-0.52,1.135-1.104,1.292-1.749
			c-0.331-0.174-0.599-0.505-0.599-0.914c0-0.441,0.347-0.772,0.741-0.772c0.504,0,0.867,0.457,0.867,1.009
			C35.492,191.908,34.767,193.026,33.458,193.847z"/>
		<path style="fill:#58595B;" d="M46.743,183.759c-0.126-0.505-0.22-0.962-0.284-1.419c-0.079,0.441-0.173,0.867-0.315,1.403
			l-1.955,7.66c-0.158,0.047-0.41,0.079-0.63,0.079s-0.521-0.016-0.678-0.079l-2.302-7.991c-0.268-0.883-0.378-1.781-0.394-2.664
			c0.158-0.047,0.394-0.079,0.552-0.079c0.173,0,0.331,0.032,0.521,0.079c0.016,0.835,0.11,1.64,0.331,2.443l1.624,5.769
			c0.079,0.3,0.3,1.104,0.363,1.435c0.031-0.315,0.189-1.009,0.299-1.45l2.065-8.196c0.142-0.047,0.347-0.079,0.504-0.079
			c0.173,0,0.394,0.048,0.504,0.079l2.065,8.181c0.11,0.41,0.252,1.024,0.362,1.481c0.11-0.457,0.268-1.088,0.394-1.545l1.608-5.674
			c0.221-0.804,0.347-1.608,0.363-2.443c0.157-0.047,0.331-0.079,0.52-0.079c0.158,0,0.394,0.032,0.52,0.079
			c-0.016,0.819-0.126,1.687-0.394,2.601l-2.317,8.055c-0.173,0.047-0.536,0.079-0.709,0.079c-0.158,0-0.441-0.032-0.63-0.079
			L46.743,183.759z"/>
		<path style="fill:#58595B;" d="M59.505,189.386c0,0.567,0,1.276,0.032,2.018c-0.11,0.047-0.284,0.079-0.426,0.079
			c-0.126,0-0.299-0.032-0.425-0.079c-0.047-0.252-0.079-0.583-0.095-0.883h-0.016c-0.536,0.662-1.482,1.04-2.412,1.04
			c-1.466,0-2.695-0.819-2.695-2.506c0-0.962,0.394-1.671,1.009-2.112c0.693-0.488,1.607-0.646,2.585-0.646
			c0.552,0,1.009,0.032,1.418,0.095v-0.457c0-1.576-0.646-2.096-1.97-2.096c-0.741,0-1.655,0.157-2.223,0.299
			c-0.031-0.079-0.063-0.252-0.063-0.409c0-0.11,0.032-0.269,0.079-0.363c0.678-0.205,1.577-0.331,2.333-0.331
			c1.876,0,2.869,0.852,2.869,2.774V189.386z M58.481,187.163c-0.457-0.062-0.93-0.095-1.34-0.095c-0.772,0-1.466,0.143-1.939,0.505
			c-0.425,0.315-0.662,0.819-0.662,1.466c0,1.15,0.741,1.702,1.765,1.702c0.851,0,1.75-0.41,2.175-1.056V187.163z"/>
		<path style="fill:#58595B;" d="M62.734,191.403c-0.173,0.047-0.347,0.079-0.536,0.079c-0.157,0-0.347-0.032-0.488-0.079v-11.507
			c0.142-0.031,0.315-0.078,0.52-0.078c0.173,0,0.362,0.031,0.504,0.078V191.403z"/>
		<path style="fill:#58595B;" d="M69.274,191.324c-0.41,0.143-1.024,0.236-1.481,0.236c-1.561,0-2.301-0.74-2.301-2.49v-5.075
			h-1.419c-0.031-0.079-0.047-0.268-0.047-0.362c0-0.079,0.016-0.269,0.047-0.347l1.419-0.095v-2.144
			c0.126-0.048,0.331-0.079,0.504-0.079c0.173,0,0.394,0.031,0.52,0.079v2.144h2.317c0.032,0.078,0.063,0.315,0.063,0.394
			c0,0.11-0.031,0.3-0.063,0.41h-2.317v4.98c0,1.245,0.362,1.766,1.34,1.766c0.536,0,1.056-0.079,1.418-0.189
			c0.032,0.079,0.063,0.269,0.063,0.379C69.337,191.072,69.321,191.183,69.274,191.324z"/>
		<path style="fill:#58595B;" d="M77.277,191.482c-0.757,0-2.175-0.048-2.743-0.079v-10.655c0.804-0.047,1.86-0.079,2.727-0.079
			c3.499,0,5.107,1.576,5.107,5.249C82.369,189.244,80.776,191.482,77.277,191.482z M77.262,181.457
			c-0.504,0-1.183,0.016-1.655,0.048v9.11c0.394,0.047,1.214,0.079,1.639,0.079c2.538,0,3.988-1.64,3.988-4.713
			C81.233,182.986,80.241,181.457,77.262,181.457z"/>
		<path style="fill:#58595B;" d="M84.902,181.583c-0.362,0-0.662-0.314-0.662-0.693c0-0.378,0.3-0.678,0.662-0.678
			c0.363,0,0.678,0.3,0.678,0.678C85.58,181.269,85.265,181.583,84.902,181.583z M85.423,191.403
			c-0.142,0.047-0.347,0.079-0.521,0.079s-0.362-0.032-0.504-0.079v-8.212c0.126-0.032,0.331-0.079,0.489-0.079
			c0.173,0,0.41,0.031,0.536,0.079V191.403z"/>
		<path style="fill:#58595B;" d="M89.457,191.561c-0.788,0-1.608-0.142-2.175-0.362c-0.047-0.11-0.079-0.3-0.079-0.441
			c0-0.095,0.031-0.331,0.063-0.426c0.583,0.237,1.418,0.426,2.112,0.426c1.198,0,1.939-0.504,1.939-1.497
			c0-0.898-0.457-1.214-1.702-1.671c-1.734-0.631-2.301-1.355-2.301-2.428c0-1.45,1.198-2.128,2.742-2.128
			c0.521,0,1.198,0.095,1.592,0.221c0.047,0.143,0.063,0.284,0.063,0.379c0,0.126-0.032,0.347-0.063,0.457
			c-0.52-0.158-1.072-0.252-1.608-0.252c-1.119,0-1.797,0.425-1.797,1.292c0,0.757,0.426,1.119,1.718,1.607
			c1.182,0.441,2.27,0.883,2.27,2.475C92.231,190.82,91.018,191.561,89.457,191.561z"/>
		<path style="fill:#58595B;" d="M100.205,191.419c-0.126,0.031-0.315,0.063-0.504,0.063c-0.158,0-0.363-0.032-0.521-0.079v-4.997
			c0-0.756-0.094-1.34-0.315-1.749c-0.268-0.505-0.772-0.757-1.592-0.757c-0.788,0-1.734,0.441-2.349,0.914v6.589
			c-0.173,0.047-0.347,0.079-0.536,0.079c-0.158,0-0.347-0.032-0.489-0.079v-8.212c0.11-0.048,0.299-0.063,0.41-0.063
			c0.158,0,0.347,0.016,0.441,0.063l0.079,0.819h0.016c0.867-0.709,1.86-0.978,2.664-0.978c0.804,0,1.639,0.269,2.096,0.82
			c0.504,0.599,0.599,1.466,0.599,2.316V191.419z"/>
		<path style="fill:#58595B;" d="M108.161,187.573h-5.28c0.063,1.812,0.914,3.184,2.884,3.184c0.709,0,1.371-0.095,1.955-0.236
			c0.031,0.079,0.063,0.236,0.063,0.331c0,0.157-0.032,0.3-0.079,0.41c-0.615,0.188-1.387,0.299-2.034,0.299
			c-1.245,0-2.191-0.394-2.774-1.024c-0.694-0.756-1.056-1.892-1.056-3.199c0-2.286,1.151-4.304,3.452-4.304
			c2.064,0,2.884,1.703,2.884,3.783C108.177,187.053,108.177,187.337,108.161,187.573z M107.152,186.816
			c0-1.45-0.158-3.011-1.907-3.011c-1.529,0-2.27,1.403-2.364,3.011H107.152z"/>
		<path style="fill:#58595B;" d="M116.008,190.032c0,1.528-0.063,2.616-0.615,3.594c-0.63,1.119-1.875,1.655-2.995,1.655
			c-0.82,0-1.387-0.079-1.892-0.253c-0.047-0.095-0.063-0.252-0.063-0.378c0-0.095,0.032-0.3,0.063-0.395
			c0.473,0.143,1.041,0.253,1.797,0.253c1.734,0,2.68-1.245,2.68-3.405v-0.552c-0.804,0.71-1.702,1.009-2.522,1.009
			c-0.883,0-1.576-0.221-2.018-0.756c-0.489-0.584-0.552-1.435-0.552-2.286v-5.327c0.126-0.032,0.331-0.079,0.489-0.079
			c0.189,0,0.394,0.047,0.536,0.079v5.154c0,0.756,0.063,1.387,0.347,1.812c0.252,0.362,0.662,0.552,1.276,0.552
			c0.978,0,1.907-0.521,2.443-1.04v-6.479c0.142-0.032,0.347-0.079,0.536-0.079c0.157,0,0.362,0.047,0.488,0.079V190.032z"/>
	</g>
	<g>
		<path style="fill:#58595B;" d="M18.666,202.382c-0.126-0.505-0.22-0.962-0.284-1.419c-0.079,0.441-0.173,0.867-0.315,1.403
			l-1.955,7.66c-0.158,0.047-0.41,0.079-0.63,0.079s-0.521-0.016-0.678-0.079l-2.302-7.991c-0.268-0.883-0.378-1.781-0.394-2.664
			c0.158-0.047,0.394-0.079,0.552-0.079c0.173,0,0.331,0.032,0.521,0.079c0.016,0.835,0.11,1.64,0.331,2.443l1.624,5.769
			c0.079,0.3,0.3,1.104,0.363,1.435c0.031-0.315,0.189-1.009,0.299-1.45l2.065-8.196c0.142-0.047,0.347-0.079,0.504-0.079
			c0.173,0,0.394,0.048,0.504,0.079l2.065,8.181c0.11,0.41,0.252,1.024,0.362,1.481c0.11-0.457,0.268-1.088,0.394-1.545l1.608-5.674
			c0.221-0.804,0.347-1.608,0.363-2.443c0.157-0.047,0.331-0.079,0.52-0.079c0.158,0,0.394,0.032,0.52,0.079
			c-0.016,0.819-0.126,1.687-0.394,2.601l-2.317,8.055c-0.173,0.047-0.536,0.079-0.709,0.079c-0.158,0-0.441-0.032-0.63-0.079
			L18.666,202.382z"/>
		<path style="fill:#58595B;" d="M28.859,210.184c-2.064,0-3.389-1.418-3.389-4.256c0-2.837,1.34-4.271,3.405-4.271
			s3.373,1.403,3.373,4.24S30.924,210.184,28.859,210.184z M28.875,202.429c-1.513,0-2.333,1.167-2.333,3.483
			c0,2.317,0.804,3.5,2.317,3.5s2.317-1.183,2.317-3.5C31.176,203.596,30.388,202.429,28.875,202.429z"/>
		<path style="fill:#58595B;" d="M37.604,202.57c-0.915,0.127-1.907,0.458-2.648,1.025v6.431c-0.157,0.047-0.347,0.079-0.52,0.079
			s-0.347-0.032-0.504-0.079v-8.212c0.095-0.032,0.236-0.063,0.394-0.063c0.126,0,0.299,0.031,0.426,0.063l0.079,1.009h0.016
			c0.678-0.583,1.86-1.072,2.759-1.167c0.031,0.095,0.063,0.269,0.063,0.41C37.667,202.224,37.636,202.429,37.604,202.57z"/>
		<path style="fill:#58595B;" d="M40.25,210.026c-0.173,0.047-0.347,0.079-0.536,0.079c-0.157,0-0.347-0.032-0.488-0.079V198.52
			c0.142-0.031,0.315-0.078,0.52-0.078c0.173,0,0.362,0.031,0.504,0.078V210.026z"/>
		<path style="fill:#58595B;" d="M48.083,210.105c-0.142,0-0.315-0.048-0.41-0.079l-0.095-0.945h-0.016
			c-0.678,0.709-1.482,1.103-2.38,1.103c-2.175,0-3.215-1.812-3.215-4.019c0-2.191,0.93-4.509,3.436-4.509
			c0.788,0,1.513,0.269,2.097,0.678v-3.814c0.142-0.047,0.331-0.078,0.504-0.078c0.189,0,0.378,0.047,0.52,0.078v11.507
			C48.414,210.073,48.256,210.105,48.083,210.105z M47.5,203.201c-0.567-0.473-1.292-0.709-2.034-0.709
			c-1.828,0-2.443,1.797-2.443,3.625c0,1.403,0.441,3.231,2.207,3.231c0.851,0,1.718-0.426,2.27-1.088V203.201z"/>
		<path style="fill:#58595B;" d="M50.065,212.47c-0.094-0.079-0.221-0.269-0.268-0.395c0.646-0.52,1.135-1.104,1.292-1.749
			c-0.331-0.174-0.599-0.505-0.599-0.914c0-0.441,0.347-0.772,0.741-0.772c0.504,0,0.867,0.457,0.867,1.009
			C52.099,210.531,51.374,211.649,50.065,212.47z"/>
		<path style="fill:#58595B;" d="M65.289,210.026c-0.126,0.047-0.331,0.079-0.552,0.079c-0.189,0-0.425-0.032-0.567-0.079
			l-0.961-2.759h-4.398l-0.93,2.774c-0.11,0.031-0.363,0.063-0.536,0.063c-0.189,0-0.394-0.032-0.552-0.079l3.625-10.655
			c0.173-0.047,0.378-0.079,0.536-0.079c0.173,0,0.362,0.032,0.504,0.079L65.289,210.026z M61.443,202.256
			c-0.157-0.426-0.347-1.041-0.488-1.593c-0.158,0.536-0.347,1.167-0.489,1.593l-1.387,4.177h3.831L61.443,202.256z"/>
		<path style="fill:#58595B;" d="M67.729,210.026c-0.173,0.047-0.347,0.079-0.536,0.079c-0.157,0-0.347-0.032-0.488-0.079V198.52
			c0.142-0.031,0.315-0.078,0.52-0.078c0.173,0,0.362,0.031,0.504,0.078V210.026z"/>
		<path style="fill:#58595B;" d="M70.958,210.026c-0.173,0.047-0.347,0.079-0.536,0.079c-0.157,0-0.347-0.032-0.488-0.079V198.52
			c0.142-0.031,0.315-0.078,0.52-0.078c0.173,0,0.362,0.031,0.504,0.078V210.026z"/>
		<path style="fill:#58595B;" d="M78.996,206.196h-5.28c0.063,1.812,0.914,3.184,2.884,3.184c0.709,0,1.371-0.095,1.955-0.236
			c0.031,0.079,0.063,0.236,0.063,0.331c0,0.157-0.032,0.3-0.079,0.41c-0.615,0.188-1.387,0.299-2.034,0.299
			c-1.245,0-2.191-0.394-2.774-1.024c-0.694-0.756-1.056-1.892-1.056-3.199c0-2.286,1.151-4.304,3.452-4.304
			c2.064,0,2.884,1.703,2.884,3.783C79.012,205.676,79.012,205.96,78.996,206.196z M77.987,205.439c0-1.45-0.158-3.011-1.907-3.011
			c-1.529,0-2.27,1.403-2.364,3.011H77.987z"/>
		<path style="fill:#58595B;" d="M87.032,210.042c-0.126,0.031-0.315,0.063-0.504,0.063c-0.158,0-0.363-0.032-0.521-0.079v-4.997
			c0-0.756-0.094-1.34-0.315-1.749c-0.268-0.505-0.772-0.757-1.592-0.757c-0.788,0-1.734,0.441-2.349,0.914v6.589
			c-0.173,0.047-0.347,0.079-0.536,0.079c-0.158,0-0.347-0.032-0.489-0.079v-8.212c0.11-0.048,0.299-0.063,0.41-0.063
			c0.158,0,0.347,0.016,0.441,0.063l0.079,0.819h0.016c0.867-0.709,1.86-0.978,2.664-0.978c0.804,0,1.639,0.269,2.096,0.82
			c0.504,0.599,0.599,1.466,0.599,2.316V210.042z"/>
		<path style="fill:#58595B;" d="M101.513,210.278c-0.867-0.078-1.655-0.536-2.601-1.561c-0.978,0.993-2.223,1.466-3.357,1.466
			c-1.939,0-3.357-1.166-3.357-2.821c0-1.355,0.898-2.506,2.254-3.231c-0.93-0.977-1.324-1.733-1.324-2.537
			c0-1.403,1.198-2.38,2.585-2.38c1.213,0,2.317,0.788,2.317,2.033c0,1.276-0.756,2.002-2.317,3.026l3.184,3.263
			c0.804-1.088,0.977-2.207,0.977-3.216c0.095-0.047,0.315-0.079,0.426-0.079c0.142,0,0.315,0.048,0.41,0.095
			c-0.032,1.088-0.331,2.554-1.245,3.752c0.819,0.851,1.466,1.292,2.081,1.387c0.047,0.142,0.047,0.315,0.047,0.426
			C101.592,209.979,101.56,210.184,101.513,210.278z M94.956,204.715c-1.103,0.614-1.687,1.418-1.687,2.585
			c0,1.261,0.915,2.112,2.349,2.112c0.946,0,1.955-0.458,2.695-1.214L94.956,204.715z M95.712,199.938
			c-0.961,0-1.655,0.614-1.655,1.592c0,0.883,0.441,1.514,1.135,2.191c1.198-0.741,1.923-1.45,1.923-2.396
			C97.115,200.427,96.469,199.938,95.712,199.938z"/>
	</g>
	<g>
		<path style="fill:#58595B;" d="M16.569,228.808c-2.648,0-4.035-1.985-4.035-5.485c0-3.499,1.387-5.484,4.035-5.484
			s4.035,1.985,4.035,5.484C20.604,226.822,19.217,228.808,16.569,228.808z M16.569,218.642c-1.907,0-2.9,1.528-2.9,4.681
			c0,3.153,0.993,4.682,2.9,4.682s2.9-1.528,2.9-4.682C19.47,220.17,18.477,218.642,16.569,218.642z"/>
		<path style="fill:#58595B;" d="M28.135,222.44l-2.475,6.21c-0.142,0.047-0.299,0.079-0.425,0.079
			c-0.173,0-0.315-0.032-0.441-0.079l-2.554-6.21c-0.284-0.71-0.41-1.419-0.41-2.002c0.126-0.032,0.347-0.079,0.489-0.079
			c0.189,0,0.378,0.031,0.536,0.079c0.016,0.536,0.079,1.15,0.315,1.718l2.049,5.201h0.032l1.986-5.201
			c0.221-0.552,0.331-1.166,0.331-1.718c0.11-0.048,0.347-0.079,0.552-0.079c0.11,0,0.315,0.016,0.457,0.063
			C28.561,220.99,28.45,221.668,28.135,222.44z"/>
		<path style="fill:#58595B;" d="M35.777,224.82h-5.28c0.063,1.812,0.914,3.184,2.884,3.184c0.709,0,1.371-0.095,1.955-0.236
			c0.031,0.079,0.063,0.236,0.063,0.331c0,0.157-0.032,0.3-0.079,0.41c-0.615,0.188-1.387,0.299-2.034,0.299
			c-1.245,0-2.191-0.394-2.774-1.024c-0.694-0.756-1.056-1.892-1.056-3.199c0-2.286,1.151-4.304,3.452-4.304
			c2.064,0,2.884,1.703,2.884,3.783C35.793,224.3,35.793,224.584,35.777,224.82z M34.769,224.063c0-1.45-0.158-3.011-1.907-3.011
			c-1.529,0-2.27,1.403-2.364,3.011H34.769z"/>
		<path style="fill:#58595B;" d="M41.181,221.194c-0.915,0.127-1.907,0.458-2.648,1.025v6.431c-0.157,0.047-0.347,0.079-0.52,0.079
			s-0.347-0.032-0.504-0.079v-8.212c0.095-0.032,0.236-0.063,0.394-0.063c0.126,0,0.299,0.031,0.426,0.063l0.079,1.009h0.016
			c0.678-0.583,1.86-1.072,2.759-1.167c0.031,0.095,0.063,0.269,0.063,0.41C41.244,220.848,41.212,221.053,41.181,221.194z"/>
		<path style="fill:#58595B;" d="M48.886,227.279c0,1.528-0.063,2.616-0.615,3.594c-0.63,1.119-1.875,1.655-2.995,1.655
			c-0.82,0-1.387-0.079-1.892-0.253c-0.047-0.094-0.063-0.252-0.063-0.378c0-0.095,0.032-0.3,0.063-0.395
			c0.473,0.143,1.041,0.253,1.797,0.253c1.734,0,2.68-1.245,2.68-3.405v-0.552c-0.804,0.71-1.702,1.009-2.522,1.009
			c-0.883,0-1.576-0.221-2.018-0.756c-0.489-0.584-0.552-1.435-0.552-2.286v-5.327c0.126-0.032,0.331-0.079,0.489-0.079
			c0.189,0,0.394,0.047,0.536,0.079v5.154c0,0.756,0.063,1.387,0.347,1.812c0.252,0.362,0.662,0.552,1.276,0.552
			c0.978,0,1.907-0.521,2.443-1.04v-6.479c0.142-0.032,0.347-0.079,0.536-0.079c0.157,0,0.362,0.047,0.488,0.079V227.279z"/>
		<path style="fill:#58595B;" d="M60.104,226.633c0,0.567,0,1.276,0.032,2.018c-0.11,0.047-0.284,0.079-0.426,0.079
			c-0.126,0-0.299-0.032-0.425-0.079c-0.047-0.252-0.079-0.583-0.095-0.883h-0.016c-0.536,0.662-1.482,1.04-2.412,1.04
			c-1.466,0-2.695-0.819-2.695-2.506c0-0.962,0.394-1.671,1.009-2.112c0.693-0.488,1.607-0.646,2.585-0.646
			c0.551,0,1.009,0.032,1.418,0.095v-0.457c0-1.576-0.646-2.097-1.97-2.097c-0.741,0-1.655,0.158-2.223,0.3
			c-0.031-0.079-0.063-0.252-0.063-0.409c0-0.11,0.032-0.269,0.079-0.363c0.678-0.205,1.577-0.331,2.333-0.331
			c1.876,0,2.869,0.852,2.869,2.774V226.633z M59.08,224.41c-0.457-0.062-0.93-0.095-1.34-0.095c-0.772,0-1.466,0.143-1.939,0.505
			c-0.425,0.315-0.662,0.819-0.662,1.466c0,1.15,0.741,1.702,1.765,1.702c0.851,0,1.75-0.41,2.175-1.056V224.41z"/>
		<path style="fill:#58595B;" d="M68.582,228.666c-0.126,0.031-0.315,0.063-0.504,0.063c-0.158,0-0.363-0.032-0.521-0.079v-4.997
			c0-0.756-0.094-1.34-0.315-1.749c-0.268-0.505-0.772-0.757-1.592-0.757c-0.788,0-1.734,0.441-2.349,0.914v6.589
			c-0.173,0.047-0.347,0.079-0.536,0.079c-0.158,0-0.347-0.032-0.489-0.079v-8.212c0.11-0.048,0.299-0.063,0.41-0.063
			c0.158,0,0.347,0.016,0.441,0.063l0.079,0.819h0.016c0.867-0.709,1.86-0.978,2.664-0.978c0.804,0,1.639,0.269,2.096,0.82
			c0.504,0.599,0.599,1.466,0.599,2.316V228.666z"/>
		<path style="fill:#58595B;" d="M76.333,228.729c-0.142,0-0.315-0.048-0.41-0.079l-0.095-0.945h-0.016
			c-0.678,0.709-1.482,1.103-2.38,1.103c-2.175,0-3.215-1.812-3.215-4.019c0-2.191,0.93-4.509,3.436-4.509
			c0.788,0,1.513,0.269,2.097,0.678v-3.814c0.142-0.047,0.331-0.078,0.504-0.078c0.189,0,0.378,0.047,0.52,0.078v11.507
			C76.665,228.697,76.507,228.729,76.333,228.729z M75.75,221.825c-0.567-0.473-1.292-0.709-2.034-0.709
			c-1.828,0-2.443,1.797-2.443,3.625c0,1.403,0.441,3.231,2.207,3.231c0.851,0,1.718-0.426,2.27-1.088V221.825z"/>
		<path style="fill:#58595B;" d="M85.392,224.41h-1.671v4.24c-0.126,0.047-0.378,0.079-0.552,0.079s-0.394-0.032-0.52-0.079v-10.655
			c0.599-0.047,1.875-0.079,2.695-0.079c2.096,0,3.625,0.788,3.625,3.074C88.97,223.275,87.646,224.41,85.392,224.41z
			 M85.329,218.704c-0.363,0-1.104,0.016-1.608,0.048v4.854h1.498c1.687,0,2.664-0.662,2.664-2.585
			C87.882,219.146,86.811,218.704,85.329,218.704z"/>
		<path style="fill:#58595B;" d="M100.143,222.062l-2.112,6.589c-0.126,0.047-0.363,0.079-0.489,0.079
			c-0.142,0-0.378-0.032-0.489-0.079l-1.891-6.368H95.13l-1.986,6.368c-0.142,0.047-0.363,0.079-0.489,0.079
			s-0.331-0.032-0.473-0.079l-1.955-6.494c-0.173-0.536-0.252-1.15-0.268-1.733c0.126-0.032,0.378-0.063,0.536-0.063
			c0.174,0,0.331,0.031,0.473,0.079c0.016,0.567,0.11,1.166,0.252,1.687l1.435,5.122h0.016l2.049-6.824
			c0.11-0.032,0.331-0.048,0.441-0.048s0.347,0.016,0.441,0.048l1.938,6.824h0.016l1.577-5.106c0.173-0.583,0.299-1.135,0.331-1.702
			c0.11-0.048,0.378-0.079,0.521-0.079c0.142,0,0.362,0.031,0.457,0.079C100.442,220.975,100.316,221.51,100.143,222.062z"/>
		<path style="fill:#58595B;" d="M108.761,219.004c-0.599-0.157-1.466-0.3-2.175-0.3c-2.601,0-3.673,2.065-3.673,4.666
			c0,2.569,1.025,4.571,3.578,4.571c0.835,0,1.687-0.126,2.254-0.315c0.032,0.095,0.047,0.252,0.047,0.378
			c0,0.158-0.016,0.362-0.047,0.457c-0.567,0.189-1.371,0.347-2.285,0.347c-2.869,0-4.682-1.733-4.682-5.422
			c0-3.326,1.75-5.548,4.697-5.548c0.851,0,1.75,0.157,2.27,0.362c0.047,0.126,0.063,0.283,0.063,0.426
			C108.808,218.72,108.792,218.894,108.761,219.004z"/>
	</g>
	<g>
		<path style="fill:#58595B;" d="M17.074,247.196c-0.41,0.143-1.024,0.236-1.481,0.236c-1.561,0-2.301-0.74-2.301-2.49v-5.075
			h-1.419c-0.031-0.079-0.047-0.268-0.047-0.362c0-0.079,0.016-0.269,0.047-0.347l1.419-0.095v-2.144
			c0.126-0.048,0.331-0.079,0.504-0.079c0.173,0,0.394,0.031,0.52,0.079v2.144h2.317c0.032,0.078,0.063,0.315,0.063,0.394
			c0,0.11-0.031,0.3-0.063,0.41h-2.317v4.98c0,1.245,0.362,1.766,1.34,1.766c0.536,0,1.056-0.079,1.418-0.189
			c0.032,0.079,0.063,0.269,0.063,0.379C17.137,246.944,17.121,247.055,17.074,247.196z"/>
		<path style="fill:#58595B;" d="M21.138,247.433c-2.064,0-3.389-1.418-3.389-4.256c0-2.837,1.34-4.271,3.405-4.271
			s3.373,1.403,3.373,4.24S23.203,247.433,21.138,247.433z M21.154,239.678c-1.513,0-2.333,1.167-2.333,3.483
			c0,2.317,0.804,3.5,2.317,3.5s2.317-1.183,2.317-3.5C23.456,240.845,22.667,239.678,21.154,239.678z"/>
		<path style="fill:#58595B;" d="M35.982,247.291c-0.126,0.031-0.315,0.063-0.504,0.063c-0.158,0-0.363-0.032-0.521-0.079v-4.997
			c0-0.756-0.094-1.34-0.315-1.749c-0.268-0.505-0.772-0.757-1.592-0.757c-0.788,0-1.734,0.441-2.349,0.914v6.589
			c-0.173,0.047-0.347,0.079-0.536,0.079c-0.158,0-0.347-0.032-0.489-0.079v-8.212c0.11-0.048,0.299-0.063,0.41-0.063
			c0.158,0,0.347,0.016,0.441,0.063l0.079,0.819h0.016c0.867-0.709,1.86-0.978,2.664-0.978c0.804,0,1.639,0.269,2.096,0.82
			c0.504,0.599,0.599,1.466,0.599,2.316V247.291z"/>
		<path style="fill:#58595B;" d="M43.687,245.258c0,0.567,0,1.276,0.032,2.018c-0.11,0.047-0.284,0.079-0.426,0.079
			c-0.126,0-0.299-0.032-0.425-0.079c-0.047-0.252-0.079-0.583-0.095-0.883h-0.016c-0.536,0.662-1.482,1.04-2.412,1.04
			c-1.466,0-2.695-0.819-2.695-2.506c0-0.962,0.394-1.671,1.009-2.112c0.693-0.488,1.607-0.646,2.585-0.646
			c0.551,0,1.009,0.032,1.418,0.095v-0.457c0-1.576-0.646-2.097-1.97-2.097c-0.741,0-1.655,0.158-2.223,0.3
			c-0.031-0.079-0.063-0.252-0.063-0.409c0-0.11,0.032-0.269,0.079-0.363c0.678-0.205,1.577-0.331,2.333-0.331
			c1.876,0,2.869,0.852,2.869,2.774V245.258z M42.662,243.035c-0.457-0.062-0.93-0.095-1.34-0.095c-0.772,0-1.466,0.143-1.939,0.505
			c-0.425,0.315-0.662,0.819-0.662,1.466c0,1.15,0.741,1.702,1.765,1.702c0.851,0,1.75-0.41,2.175-1.056V243.035z"/>
		<path style="fill:#58595B;" d="M57.271,247.291c-0.158,0.031-0.315,0.063-0.473,0.063c-0.189,0-0.362-0.048-0.552-0.079v-4.98
			c0-1.734-0.441-2.522-1.907-2.522c-0.756,0-1.765,0.395-2.396,0.852c0.126,0.441,0.158,0.93,0.158,1.418v5.233
			c-0.158,0.047-0.315,0.079-0.473,0.079c-0.205,0-0.394-0.032-0.552-0.079v-4.98c0-1.734-0.394-2.522-1.86-2.522
			c-0.788,0-1.718,0.441-2.333,0.914v6.589c-0.173,0.047-0.378,0.079-0.567,0.079c-0.158,0-0.331-0.032-0.457-0.079v-8.212
			c0.079-0.032,0.252-0.063,0.426-0.063c0.142,0,0.315,0.031,0.425,0.063l0.079,0.819h0.016c0.867-0.709,1.86-0.978,2.664-0.978
			c0.804,0,1.576,0.269,2.033,0.82c0.063,0.062,0.11,0.142,0.158,0.221c0.835-0.678,1.907-1.041,2.932-1.041
			c0.804,0,1.624,0.269,2.081,0.82c0.504,0.599,0.599,1.466,0.599,2.316V247.291z"/>
		<path style="fill:#58595B;" d="M65.226,243.445h-5.28c0.063,1.812,0.914,3.184,2.884,3.184c0.709,0,1.371-0.095,1.955-0.236
			c0.031,0.079,0.063,0.236,0.063,0.331c0,0.157-0.032,0.3-0.079,0.41c-0.615,0.188-1.387,0.299-2.034,0.299
			c-1.245,0-2.191-0.394-2.774-1.024c-0.694-0.756-1.056-1.892-1.056-3.199c0-2.286,1.151-4.304,3.452-4.304
			c2.064,0,2.884,1.703,2.884,3.783C65.241,242.925,65.241,243.209,65.226,243.445z M64.217,242.688c0-1.45-0.158-3.011-1.907-3.011
			c-1.529,0-2.27,1.403-2.364,3.011H64.217z"/>
		<path style="fill:#58595B;" d="M71.794,247.339c0,1.418-0.221,2.38-0.898,3.089c-0.426,0.441-1.167,0.709-1.955,0.709
			c-0.268,0-0.441-0.016-0.709-0.062c-0.047-0.095-0.063-0.236-0.063-0.331s0.031-0.284,0.063-0.362
			c0.142,0.031,0.363,0.047,0.504,0.047c1.639,0,2.033-1.245,2.033-2.695v-8.669c0.142-0.048,0.347-0.079,0.504-0.079
			c0.142,0,0.378,0.047,0.521,0.079V247.339z M71.274,237.455c-0.362,0-0.662-0.314-0.662-0.693c0-0.378,0.299-0.678,0.662-0.678
			c0.363,0,0.678,0.3,0.678,0.678C71.952,237.141,71.637,237.455,71.274,237.455z"/>
		<path style="fill:#58595B;" d="M80.052,244.154c0,2.396-0.993,3.278-3.074,3.278c-2.128,0-3.026-0.882-3.026-3.199v-5.17
			c0.142-0.048,0.331-0.079,0.504-0.079c0.221,0,0.394,0.047,0.521,0.079v5.044c0,1.528,0.236,2.537,2.018,2.537
			c1.67,0,2.033-0.977,2.033-2.569v-5.012c0.126-0.048,0.347-0.079,0.52-0.079s0.363,0.031,0.504,0.079V244.154z"/>
		<path style="fill:#58595B;" d="M83.974,247.433c-0.788,0-1.608-0.142-2.175-0.362c-0.047-0.11-0.079-0.299-0.079-0.441
			c0-0.095,0.031-0.331,0.063-0.426c0.583,0.237,1.418,0.426,2.112,0.426c1.198,0,1.939-0.504,1.939-1.497
			c0-0.898-0.457-1.214-1.702-1.671c-1.734-0.631-2.302-1.355-2.302-2.428c0-1.45,1.198-2.128,2.743-2.128
			c0.521,0,1.198,0.095,1.592,0.221c0.047,0.143,0.063,0.284,0.063,0.379c0,0.126-0.032,0.347-0.063,0.457
			c-0.52-0.158-1.072-0.253-1.608-0.253c-1.119,0-1.797,0.426-1.797,1.293c0,0.757,0.426,1.119,1.718,1.607
			c1.182,0.441,2.27,0.883,2.27,2.475C86.748,246.692,85.535,247.433,83.974,247.433z"/>
		<path style="fill:#58595B;" d="M92.641,247.196c-0.41,0.143-1.024,0.236-1.481,0.236c-1.561,0-2.301-0.74-2.301-2.49v-5.075
			h-1.419c-0.031-0.079-0.047-0.268-0.047-0.362c0-0.079,0.016-0.269,0.047-0.347l1.419-0.095v-2.144
			c0.126-0.048,0.331-0.079,0.504-0.079c0.173,0,0.394,0.031,0.52,0.079v2.144h2.317c0.032,0.078,0.063,0.315,0.063,0.394
			c0,0.11-0.031,0.3-0.063,0.41h-2.317v4.98c0,1.245,0.362,1.766,1.34,1.766c0.536,0,1.056-0.079,1.418-0.189
			c0.032,0.079,0.063,0.269,0.063,0.379C92.704,246.944,92.688,247.055,92.641,247.196z"/>
		<path style="fill:#58595B;" d="M103.245,245.258c0,0.567,0,1.276,0.032,2.018c-0.11,0.047-0.284,0.079-0.426,0.079
			c-0.126,0-0.299-0.032-0.425-0.079c-0.047-0.252-0.079-0.583-0.095-0.883h-0.016c-0.536,0.662-1.482,1.04-2.412,1.04
			c-1.466,0-2.695-0.819-2.695-2.506c0-0.962,0.394-1.671,1.009-2.112c0.693-0.488,1.607-0.646,2.585-0.646
			c0.551,0,1.009,0.032,1.418,0.095v-0.457c0-1.576-0.646-2.097-1.97-2.097c-0.741,0-1.655,0.158-2.223,0.3
			c-0.031-0.079-0.063-0.252-0.063-0.409c0-0.11,0.032-0.269,0.079-0.363c0.678-0.205,1.577-0.331,2.333-0.331
			c1.876,0,2.869,0.852,2.869,2.774V245.258z M102.221,243.035c-0.457-0.062-0.93-0.095-1.34-0.095
			c-0.772,0-1.466,0.143-1.939,0.505c-0.425,0.315-0.662,0.819-0.662,1.466c0,1.15,0.741,1.702,1.765,1.702
			c0.851,0,1.75-0.41,2.175-1.056V243.035z"/>
		<path style="fill:#58595B;" d="M113.533,236.446c-0.236-0.062-0.662-0.126-0.993-0.126c-0.599,0-1.04,0.158-1.34,0.489
			c-0.457,0.488-0.536,1.15-0.536,1.985v0.269h2.223c0.031,0.078,0.063,0.268,0.063,0.378c0,0.126-0.032,0.315-0.063,0.426h-2.223
			v7.408c-0.142,0.047-0.299,0.079-0.504,0.079s-0.378-0.032-0.52-0.079v-7.408h-1.419c-0.031-0.079-0.047-0.284-0.047-0.378
			c0-0.079,0.016-0.253,0.047-0.331l1.419-0.095v-0.269c0-1.119,0.189-1.892,0.835-2.537c0.457-0.457,1.135-0.678,1.907-0.678
			c0.41,0,0.867,0.094,1.15,0.204c0.032,0.079,0.047,0.189,0.047,0.3C113.581,236.179,113.565,236.368,113.533,236.446z"/>
		<path style="fill:#58595B;" d="M119.868,243.445h-5.28c0.063,1.812,0.914,3.184,2.884,3.184c0.709,0,1.371-0.095,1.955-0.236
			c0.031,0.079,0.063,0.236,0.063,0.331c0,0.157-0.032,0.3-0.079,0.41c-0.615,0.188-1.387,0.299-2.034,0.299
			c-1.245,0-2.191-0.394-2.774-1.024c-0.694-0.756-1.056-1.892-1.056-3.199c0-2.286,1.151-4.304,3.452-4.304
			c2.064,0,2.884,1.703,2.884,3.783C119.884,242.925,119.884,243.209,119.868,243.445z M118.859,242.688
			c0-1.45-0.158-3.011-1.907-3.011c-1.529,0-2.27,1.403-2.364,3.011H118.859z"/>
		<path style="fill:#58595B;" d="M131.151,240.687l-2.112,6.589c-0.126,0.047-0.363,0.079-0.489,0.079
			c-0.142,0-0.378-0.032-0.489-0.079l-1.891-6.368h-0.032l-1.986,6.368c-0.142,0.047-0.363,0.079-0.489,0.079
			s-0.331-0.032-0.473-0.079l-1.955-6.494c-0.173-0.536-0.252-1.15-0.268-1.733c0.126-0.032,0.378-0.063,0.536-0.063
			c0.174,0,0.331,0.031,0.473,0.079c0.016,0.567,0.11,1.166,0.252,1.687l1.435,5.122h0.016l2.049-6.824
			c0.11-0.032,0.331-0.048,0.441-0.048s0.347,0.016,0.441,0.048l1.938,6.824h0.016l1.577-5.106c0.173-0.583,0.299-1.135,0.331-1.702
			c0.11-0.048,0.378-0.079,0.521-0.079c0.142,0,0.362,0.031,0.457,0.079C131.45,239.6,131.324,240.135,131.151,240.687z"/>
	</g>
</g>
</svg>
