<?xml version="1.0" encoding="utf-8"?>
<!-- Generator: Adobe Illustrator 16.0.0, SVG Export Plug-In . SVG Version: 6.00 Build 0)  -->
<!DOCTYPE svg PUBLIC "-//W3C//DTD SVG 1.0//EN" "http://www.w3.org/TR/2001/REC-SVG-20010904/DTD/svg10.dtd">
<svg version="1.0" xmlns="http://www.w3.org/2000/svg" xmlns:xlink="http://www.w3.org/1999/xlink" x="0px" y="0px" width="300px"
	 height="300px" viewBox="0 0 300 300" style="enable-background:new 0 0 300 300;" xml:space="preserve">
<g id="Text" style="display:none;">
	<text transform="matrix(1 0 0 1 12.8701 158.209)" style="display:inline;"><tspan x="0" y="0" style="fill:#837199; font-family:'FSMatthew-Bold'; font-size:94.9381; letter-spacing:-4;">1</tspan><tspan x="47.373" y="0" style="fill:#837199; font-family:'FSMatthew-Bold'; font-size:94.9381;">8</tspan></text>
	
		<text transform="matrix(1 0 0 1 110.2744 149.7588)" style="display:inline;fill:#837199; font-family:'FSMatthew-Bold'; font-size:94.9381;">,</text>
	<text transform="matrix(1 0 0 1 133.249 158.209)" style="display:inline;"><tspan x="0" y="0" style="fill:#837199; font-family:'FSMatthew-Bold'; font-size:94.9381; letter-spacing:-1;">00</tspan><tspan x="100.442" y="0" style="fill:#837199; font-family:'FSMatthew-Bold'; font-size:94.9381;">0</tspan></text>
	<text transform="matrix(1 0 0 1 32.9727 82.709)" style="display:inline;"><tspan x="0" y="0" style="fill:#837199; font-family:'FSMatthew-Bold'; font-size:32.0839;">O</tspan><tspan x="20.694" y="0" style="fill:#837199; font-family:'FSMatthew-Bold'; font-size:32.0839;">v</tspan><tspan x="37.185" y="0" style="fill:#837199; font-family:'FSMatthew-Bold'; font-size:32.0839;">e</tspan><tspan x="53.868" y="0" style="fill:#837199; font-family:'FSMatthew-Bold'; font-size:32.0839;">r</tspan></text>
	<text transform="matrix(1 0 0 1 36.5625 181.709)" style="display:inline;"><tspan x="0" y="0" style="fill:#58595B; font-family:'FSMatthew-Light'; font-size:15.1976;">school child</tspan><tspan x="71.61" y="0" style="fill:#58595B; font-family:'FSMatthew-Light'; font-size:15.1976;">r</tspan><tspan x="76.291" y="0" style="fill:#58595B; font-family:'FSMatthew-Light'; font-size:15.1976;">en </tspan><tspan x="95.06" y="0" style="fill:#58595B; font-family:'FSMatthew-Light'; font-size:15.1976;">fr</tspan><tspan x="104.999" y="0" style="fill:#58595B; font-family:'FSMatthew-Light'; font-size:15.1976;">om 100 schools in </tspan></text>
	<text transform="matrix(1 0 0 1 36.5625 200.2803)" style="display:inline;"><tspan x="0" y="0" style="fill:#58595B; font-family:'FSMatthew-Light'; font-size:15.1976;">No</tspan><tspan x="17.827" y="0" style="fill:#58595B; font-family:'FSMatthew-Light'; font-size:15.1976;">r</tspan><tspan x="23.055" y="0" style="fill:#58595B; font-family:'FSMatthew-Light'; font-size:15.1976;">thern</tspan><tspan x="57.34" y="0" style="fill:#58595B; font-family:'FSMatthew-Light'; font-size:15.1976;"> </tspan><tspan x="60.607" y="0" style="fill:#58595B; font-family:'FSMatthew-Light'; font-size:15.1976;">I</tspan><tspan x="64.285" y="0" style="fill:#58595B; font-family:'FSMatthew-Light'; font-size:15.1976;">r</tspan><tspan x="68.966" y="0" style="fill:#58595B; font-family:'FSMatthew-Light'; font-size:15.1976;">eland</tspan><tspan x="102.962" y="0" style="fill:#58595B; font-family:'FSMatthew-Light'; font-size:15.1976;"> </tspan><tspan x="106.229" y="0" style="fill:#58595B; font-family:'FSMatthew-Light'; font-size:15.1976;">a</tspan><tspan x="113.737" y="0" style="fill:#58595B; font-family:'FSMatthew-Light'; font-size:15.1976;">r</tspan><tspan x="118.418" y="0" style="fill:#58595B; font-family:'FSMatthew-Light'; font-size:15.1976;">e</tspan><tspan x="125.743" y="0" style="fill:#58595B; font-family:'FSMatthew-Light'; font-size:15.1976;"> </tspan><tspan x="129.01" y="0" style="fill:#58595B; font-family:'FSMatthew-Light'; font-size:15.1976;">learning</tspan><tspan x="179.207" y="0" style="fill:#58595B; font-family:'FSMatthew-Light'; font-size:15.1976;"> </tspan><tspan x="182.475" y="0" style="fill:#58595B; font-family:'FSMatthew-Light'; font-size:15.1976;">Mandarin </tspan></text>
	<text transform="matrix(1 0 0 1 36.5625 218.8516)" style="display:inline;"><tspan x="0" y="0" style="fill:#58595B; font-family:'FSMatthew-Light'; font-size:15.1976;">th</tspan><tspan x="13.784" y="0" style="fill:#58595B; font-family:'FSMatthew-Light'; font-size:15.1976;">r</tspan><tspan x="18.48" y="0" style="fill:#58595B; font-family:'FSMatthew-Light'; font-size:15.1976;">ough our </tspan><tspan x="77.294" y="0" style="fill:#58595B; font-family:'FSMatthew-Light'; font-size:15.1976;">C</tspan><tspan x="85.455" y="0" style="fill:#58595B; font-family:'FSMatthew-Light'; font-size:15.1976;">on</tspan><tspan x="101.275" y="0" style="fill:#58595B; font-family:'FSMatthew-Light'; font-size:15.1976;">f</tspan><tspan x="106.67" y="0" style="fill:#58595B; font-family:'FSMatthew-Light'; font-size:15.1976;">ucius In</tspan><tspan x="153.342" y="0" style="fill:#58595B; font-family:'FSMatthew-Light'; font-size:15.1976;">s</tspan><tspan x="159.254" y="0" style="fill:#58595B; font-family:'FSMatthew-Light'; font-size:15.1976;">ti</tspan><tspan x="168.113" y="0" style="fill:#58595B; font-family:'FSMatthew-Light'; font-size:15.1976;">t</tspan><tspan x="173.569" y="0" style="fill:#58595B; font-family:'FSMatthew-Light'; font-size:15.1976;">u</tspan><tspan x="181.427" y="0" style="fill:#58595B; font-family:'FSMatthew-Light'; font-size:15.1976;">t</tspan><tspan x="186.73" y="0" style="fill:#58595B; font-family:'FSMatthew-Light'; font-size:15.1976;">e</tspan><tspan x="193.919" y="0" style="fill:#58595B; font-family:'FSMatthew-Light'; font-size:15.1976;">, rising </tspan></text>
	<text transform="matrix(1 0 0 1 36.5625 237.4229)" style="display:inline;"><tspan x="0" y="0" style="fill:#58595B; font-family:'FSMatthew-Light'; font-size:15.1976;">f</tspan><tspan x="5.243" y="0" style="fill:#58595B; font-family:'FSMatthew-Light'; font-size:15.1976;">r</tspan><tspan x="9.939" y="0" style="fill:#58595B; font-family:'FSMatthew-Light'; font-size:15.1976;">om only 101 pa</tspan><tspan x="107.202" y="0" style="fill:#58595B; font-family:'FSMatthew-Light'; font-size:15.1976;">r</tspan><tspan x="112.415" y="0" style="fill:#58595B; font-family:'FSMatthew-Light'; font-size:15.1976;">ticipants in 2012</tspan></text>
</g>
<g id="Text_Flat">
	<g>
		<path style="fill:#837199;" d="M50.941,158.209c-1.424,0.285-3.987,0.475-6.741,0.475c-2.658,0-5.032-0.189-6.741-0.475v-49.084
			l-13.481,8.924c-3.228-2.943-5.506-6.931-6.361-10.349l22.311-13.671c1.329-0.285,4.083-0.475,5.506-0.475
			c1.614,0,4.557,0.285,5.506,0.475V158.209z"/>
		<path style="fill:#837199;" d="M86.352,159.158c-12.057,0-23.545-6.266-23.545-18.418c0-7.311,5.126-13.577,12.057-16.805
			c-5.032-3.038-9.399-7.785-9.399-13.766c0-10.539,9.874-17.185,21.077-17.185c11.013,0,20.602,5.792,20.602,15.855
			c0,6.456-4.367,11.488-9.684,14.526c7.215,3.228,12.247,8.83,12.247,16.045C109.707,152.228,98.029,159.158,86.352,159.158z
			 M85.782,129.727c-4.842,2.184-9.02,5.791-9.02,10.538c0,4.557,3.893,8.355,9.684,8.355c5.696,0,9.304-3.703,9.304-8.45
			C95.751,135.423,91.289,132.005,85.782,129.727z M86.352,103.333c-3.987,0-7.405,2.468-7.405,6.171
			c0,4.082,3.133,7.025,7.69,8.829c4.082-1.898,7.025-5.126,7.025-8.734C93.662,105.612,90.624,103.333,86.352,103.333z"/>
	</g>
	<g>
		<path style="fill:#837199;" d="M115.116,166.943c-1.519-1.045-3.513-3.038-4.082-5.222c3.987-2.849,6.93-6.267,8.26-9.779
			c-1.804-1.614-3.228-3.893-3.228-7.025c0-3.703,3.228-6.741,7.025-6.741c4.272,0,7.121,3.133,7.121,7.785
			C130.212,153.366,123.281,162.196,115.116,166.943z"/>
	</g>
	<g>
		<path style="fill:#837199;" d="M159.168,159.158c-15.191,0-22.596-11.203-22.596-33.039c0-22.026,7.69-33.039,22.88-33.039
			c15.096,0,22.501,11.013,22.501,33.039C181.953,147.955,174.264,159.158,159.168,159.158z M159.263,104.188
			c-6.076,0-8.734,5.602-8.734,21.931c0,16.045,2.658,21.932,8.734,21.932s8.734-5.887,8.734-21.932
			C167.997,109.79,165.339,104.188,159.263,104.188z"/>
		<path style="fill:#837199;" d="M209.39,159.158c-15.19,0-22.596-11.203-22.596-33.039c0-22.026,7.689-33.039,22.88-33.039
			c15.096,0,22.501,11.013,22.501,33.039C232.175,147.955,224.484,159.158,209.39,159.158z M209.484,104.188
			c-6.076,0-8.734,5.602-8.734,21.931c0,16.045,2.658,21.932,8.734,21.932s8.734-5.887,8.734-21.932
			C218.219,109.79,215.561,104.188,209.484,104.188z"/>
		<path style="fill:#837199;" d="M259.61,159.158c-15.19,0-22.596-11.203-22.596-33.039c0-22.026,7.689-33.039,22.88-33.039
			c15.096,0,22.501,11.013,22.501,33.039C282.396,147.955,274.705,159.158,259.61,159.158z M259.705,104.188
			c-6.076,0-8.734,5.602-8.734,21.931c0,16.045,2.658,21.932,8.734,21.932s8.734-5.887,8.734-21.932
			C268.439,109.79,265.781,104.188,259.705,104.188z"/>
	</g>
	<g>
		<path style="fill:#837199;" d="M43.466,83.03c-5.937,0-9.081-4.107-9.081-11.167s3.145-11.167,9.081-11.167
			s9.081,4.107,9.081,11.167S49.402,83.03,43.466,83.03z M43.466,64.643c-2.76,0-4.332,2.118-4.332,7.22s1.572,7.22,4.332,7.22
			s4.332-2.118,4.332-7.22S46.226,64.643,43.466,64.643z"/>
		<path style="fill:#837199;" d="M68.941,70.9l-4.813,11.809c-0.321,0.064-1.155,0.161-1.989,0.161
			c-0.867,0-1.797-0.097-2.182-0.161l-4.621-11.873c-0.609-1.604-0.898-3.177-0.898-4.845c0.578-0.097,1.38-0.161,2.054-0.161
			c0.931,0,1.572,0.064,2.086,0.161c0,1.187,0.161,2.503,0.578,3.754l2.952,8.471h0.064l3.049-8.471
			c0.417-1.251,0.578-2.343,0.578-3.754c0.449-0.064,1.412-0.161,2.118-0.161s1.444,0.064,1.958,0.161
			C69.872,67.788,69.551,69.424,68.941,70.9z"/>
		<path style="fill:#837199;" d="M86.009,75.906h-10.14c0.064,2.085,1.508,3.626,4.3,3.626c1.508,0,3.049-0.192,4.364-0.545
			c0.192,0.866,0.321,1.829,0.321,2.695c0,0.128,0,0.289-0.032,0.642c-1.636,0.481-3.337,0.706-5.006,0.706
			c-6.097,0-8.632-3.498-8.632-8.6c0-4.46,2.503-8.761,7.926-8.761c5.134,0,6.995,3.787,6.995,7.958
			C86.105,74.206,86.105,75.072,86.009,75.906z M81.677,72.729c0-2.021-0.545-3.722-2.631-3.722c-1.989,0-3.048,1.572-3.177,3.722
			H81.677z"/>
		<path style="fill:#837199;" d="M98.329,69.392c-1.668,0.256-3.465,0.834-5.07,1.668v11.648c-0.449,0.096-1.412,0.161-2.182,0.161
			s-1.894-0.064-2.246-0.161V65.991c0.481-0.064,1.283-0.161,1.925-0.161c0.545,0,1.412,0.064,1.861,0.161l0.257,2.054
			c1.188-1.059,3.337-2.214,5.423-2.375c0.064,0.257,0.128,1.188,0.128,1.861C98.425,68.172,98.393,68.943,98.329,69.392z"/>
	</g>
	<g>
		<path style="fill:#58595B;" d="M39.359,181.861c-0.76,0-1.55-0.137-2.097-0.35c-0.046-0.106-0.076-0.289-0.076-0.426
			c0-0.091,0.03-0.319,0.061-0.41c0.562,0.228,1.368,0.41,2.036,0.41c1.155,0,1.87-0.486,1.87-1.443
			c0-0.867-0.441-1.171-1.642-1.611c-1.672-0.608-2.219-1.307-2.219-2.341c0-1.397,1.155-2.052,2.645-2.052
			c0.501,0,1.155,0.092,1.535,0.213c0.046,0.137,0.061,0.273,0.061,0.365c0,0.121-0.03,0.334-0.061,0.44
			c-0.501-0.152-1.033-0.243-1.55-0.243c-1.079,0-1.733,0.41-1.733,1.246c0,0.729,0.411,1.079,1.657,1.551
			c1.14,0.425,2.188,0.851,2.188,2.386C42.034,181.146,40.863,181.861,39.359,181.861z"/>
		<path style="fill:#58595B;" d="M48.63,174.748c-0.486-0.197-1.125-0.318-1.687-0.318c-1.976,0-2.706,1.534-2.706,3.389
			c0,1.824,0.699,3.237,2.69,3.237c0.532,0,1.17-0.092,1.641-0.229c0.03,0.092,0.061,0.198,0.061,0.319
			c0,0.183-0.031,0.319-0.076,0.426c-0.441,0.183-1.155,0.289-1.717,0.289c-2.478,0-3.632-1.627-3.632-4.013
			c0-2.478,1.261-4.21,3.678-4.21c0.578,0,1.262,0.137,1.732,0.35c0.046,0.122,0.061,0.243,0.061,0.38
			C48.675,174.521,48.66,174.642,48.63,174.748z"/>
		<path style="fill:#58595B;" d="M56.335,181.709c-0.137,0.046-0.304,0.076-0.456,0.076c-0.183,0-0.38-0.03-0.532-0.076v-4.803
			c0-1.672-0.425-2.432-1.839-2.432c-0.76,0-1.672,0.426-2.264,0.882v6.353c-0.167,0.046-0.35,0.076-0.517,0.076
			c-0.152,0-0.334-0.03-0.471-0.076v-11.095c0.137-0.045,0.349-0.075,0.486-0.075c0.137,0,0.364,0.03,0.501,0.075v3.906
			c0.805-0.623,1.763-0.882,2.507-0.882c0.775,0,1.565,0.259,2.006,0.791c0.486,0.577,0.578,1.413,0.578,2.233V181.709z"/>
		<path style="fill:#58595B;" d="M61.183,181.861c-1.991,0-3.268-1.368-3.268-4.104c0-2.736,1.292-4.119,3.283-4.119
			s3.252,1.353,3.252,4.089C64.45,180.463,63.173,181.861,61.183,181.861z M61.198,174.384c-1.459,0-2.25,1.124-2.25,3.358
			s0.775,3.374,2.234,3.374s2.234-1.14,2.234-3.374S62.657,174.384,61.198,174.384z"/>
		<path style="fill:#58595B;" d="M68.903,181.861c-1.991,0-3.268-1.368-3.268-4.104c0-2.736,1.292-4.119,3.283-4.119
			c1.991,0,3.252,1.353,3.252,4.089C72.17,180.463,70.894,181.861,68.903,181.861z M68.918,174.384c-1.459,0-2.25,1.124-2.25,3.358
			s0.775,3.374,2.234,3.374s2.234-1.14,2.234-3.374S70.377,174.384,68.918,174.384z"/>
		<path style="fill:#58595B;" d="M74.814,181.709c-0.167,0.046-0.334,0.076-0.517,0.076c-0.152,0-0.334-0.03-0.471-0.076v-11.095
			c0.137-0.03,0.304-0.075,0.501-0.075c0.167,0,0.35,0.03,0.486,0.075V181.709z"/>
		<path style="fill:#58595B;" d="M85.24,174.748c-0.486-0.197-1.125-0.318-1.687-0.318c-1.976,0-2.706,1.534-2.706,3.389
			c0,1.824,0.699,3.237,2.69,3.237c0.532,0,1.17-0.092,1.641-0.229c0.03,0.092,0.061,0.198,0.061,0.319
			c0,0.183-0.031,0.319-0.076,0.426c-0.441,0.183-1.155,0.289-1.717,0.289c-2.478,0-3.632-1.627-3.632-4.013
			c0-2.478,1.261-4.21,3.678-4.21c0.578,0,1.262,0.137,1.732,0.35c0.046,0.122,0.061,0.243,0.061,0.38
			C85.286,174.521,85.271,174.642,85.24,174.748z"/>
		<path style="fill:#58595B;" d="M92.945,181.709c-0.137,0.046-0.304,0.076-0.456,0.076c-0.183,0-0.38-0.03-0.532-0.076v-4.803
			c0-1.672-0.425-2.432-1.839-2.432c-0.76,0-1.672,0.426-2.264,0.882v6.353c-0.167,0.046-0.35,0.076-0.517,0.076
			c-0.152,0-0.334-0.03-0.471-0.076v-11.095c0.137-0.045,0.349-0.075,0.486-0.075c0.137,0,0.364,0.03,0.501,0.075v3.906
			c0.805-0.623,1.763-0.882,2.507-0.882c0.775,0,1.565,0.259,2.006,0.791c0.486,0.577,0.578,1.413,0.578,2.233V181.709z"/>
		<path style="fill:#58595B;" d="M95.513,172.241c-0.35,0-0.638-0.305-0.638-0.669c0-0.365,0.289-0.653,0.638-0.653
			s0.653,0.288,0.653,0.653C96.167,171.937,95.863,172.241,95.513,172.241z M96.015,181.709c-0.137,0.046-0.334,0.076-0.501,0.076
			s-0.35-0.03-0.486-0.076v-7.918c0.122-0.03,0.319-0.076,0.471-0.076c0.167,0,0.395,0.03,0.517,0.076V181.709z"/>
		<path style="fill:#58595B;" d="M99.161,181.709c-0.167,0.046-0.334,0.076-0.517,0.076c-0.152,0-0.334-0.03-0.471-0.076v-11.095
			c0.137-0.03,0.304-0.075,0.501-0.075c0.167,0,0.35,0.03,0.486,0.075V181.709z"/>
		<path style="fill:#58595B;" d="M106.713,181.785c-0.137,0-0.304-0.046-0.395-0.076l-0.091-0.912h-0.015
			c-0.653,0.685-1.429,1.064-2.295,1.064c-2.097,0-3.1-1.748-3.1-3.876c0-2.112,0.896-4.347,3.313-4.347
			c0.76,0,1.459,0.259,2.021,0.654v-3.679c0.137-0.045,0.319-0.075,0.486-0.075c0.182,0,0.365,0.045,0.501,0.075v11.095
			C107.033,181.755,106.881,181.785,106.713,181.785z M106.151,175.128c-0.547-0.455-1.246-0.684-1.96-0.684
			c-1.763,0-2.356,1.732-2.356,3.495c0,1.354,0.426,3.116,2.128,3.116c0.82,0,1.656-0.41,2.188-1.049V175.128z"/>
		<path style="fill:#58595B;" d="M112.747,174.521c-0.882,0.121-1.839,0.44-2.553,0.987v6.201c-0.152,0.046-0.334,0.076-0.501,0.076
			c-0.167,0-0.334-0.03-0.486-0.076v-7.918c0.091-0.03,0.228-0.061,0.38-0.061c0.122,0,0.289,0.03,0.41,0.061l0.076,0.973h0.015
			c0.653-0.562,1.793-1.033,2.66-1.125c0.03,0.092,0.061,0.259,0.061,0.396C112.808,174.187,112.777,174.384,112.747,174.521z"/>
		<path style="fill:#58595B;" d="M119.541,178.016h-5.091c0.061,1.748,0.881,3.07,2.781,3.07c0.684,0,1.322-0.091,1.885-0.229
			c0.03,0.076,0.061,0.229,0.061,0.319c0,0.152-0.03,0.289-0.076,0.396c-0.593,0.183-1.337,0.289-1.96,0.289
			c-1.201,0-2.112-0.38-2.675-0.988c-0.668-0.729-1.018-1.823-1.018-3.085c0-2.204,1.109-4.149,3.328-4.149
			c1.991,0,2.781,1.642,2.781,3.647C119.556,177.515,119.556,177.788,119.541,178.016z M118.568,177.286
			c0-1.397-0.152-2.902-1.839-2.902c-1.474,0-2.188,1.353-2.28,2.902H118.568z"/>
		<path style="fill:#58595B;" d="M127.291,181.725c-0.121,0.03-0.304,0.061-0.486,0.061c-0.152,0-0.349-0.03-0.501-0.076v-4.817
			c0-0.729-0.091-1.292-0.304-1.688c-0.258-0.486-0.745-0.729-1.535-0.729c-0.76,0-1.671,0.426-2.264,0.882v6.353
			c-0.167,0.046-0.334,0.076-0.517,0.076c-0.152,0-0.334-0.03-0.471-0.076v-7.918c0.106-0.046,0.289-0.061,0.396-0.061
			c0.152,0,0.334,0.015,0.425,0.061l0.076,0.79h0.015c0.836-0.684,1.793-0.942,2.568-0.942c0.775,0,1.581,0.259,2.021,0.791
			c0.486,0.577,0.577,1.413,0.577,2.233V181.725z"/>
		<path style="fill:#58595B;" d="M137.139,171.269c-0.228-0.062-0.638-0.122-0.957-0.122c-0.578,0-1.003,0.152-1.292,0.471
			c-0.441,0.472-0.517,1.11-0.517,1.915v0.259h2.143c0.03,0.076,0.061,0.258,0.061,0.364c0,0.122-0.031,0.305-0.061,0.411h-2.143
			v7.143c-0.137,0.046-0.289,0.076-0.486,0.076c-0.198,0-0.365-0.03-0.502-0.076v-7.143h-1.368c-0.03-0.076-0.045-0.273-0.045-0.365
			c0-0.076,0.015-0.243,0.045-0.319l1.368-0.091v-0.259c0-1.079,0.183-1.823,0.806-2.446c0.441-0.441,1.094-0.653,1.839-0.653
			c0.396,0,0.836,0.091,1.109,0.197c0.031,0.076,0.046,0.183,0.046,0.289C137.185,171.01,137.169,171.192,137.139,171.269z"/>
		<path style="fill:#58595B;" d="M141.455,174.521c-0.882,0.121-1.839,0.44-2.553,0.987v6.201c-0.152,0.046-0.334,0.076-0.501,0.076
			c-0.167,0-0.334-0.03-0.486-0.076v-7.918c0.091-0.03,0.228-0.061,0.38-0.061c0.122,0,0.289,0.03,0.41,0.061l0.076,0.973h0.015
			c0.653-0.562,1.793-1.033,2.66-1.125c0.03,0.092,0.061,0.259,0.061,0.396C141.516,174.187,141.485,174.384,141.455,174.521z"/>
		<path style="fill:#58595B;" d="M145.421,181.861c-1.991,0-3.268-1.368-3.268-4.104c0-2.736,1.292-4.119,3.283-4.119
			c1.991,0,3.252,1.353,3.252,4.089C148.689,180.463,147.412,181.861,145.421,181.861z M145.437,174.384
			c-1.459,0-2.25,1.124-2.25,3.358s0.775,3.374,2.234,3.374s2.234-1.14,2.234-3.374S146.896,174.384,145.437,174.384z"/>
		<path style="fill:#58595B;" d="M161.318,181.725c-0.152,0.03-0.305,0.061-0.456,0.061c-0.183,0-0.35-0.046-0.532-0.076v-4.803
			c0-1.672-0.426-2.432-1.839-2.432c-0.729,0-1.702,0.38-2.311,0.821c0.122,0.425,0.152,0.896,0.152,1.367v5.046
			c-0.152,0.046-0.304,0.076-0.456,0.076c-0.197,0-0.38-0.03-0.532-0.076v-4.803c0-1.672-0.38-2.432-1.793-2.432
			c-0.76,0-1.656,0.426-2.249,0.882v6.353c-0.168,0.046-0.365,0.076-0.547,0.076c-0.152,0-0.319-0.03-0.441-0.076v-7.918
			c0.076-0.03,0.243-0.061,0.411-0.061c0.137,0,0.304,0.03,0.41,0.061l0.076,0.79h0.016c0.836-0.684,1.793-0.942,2.568-0.942
			s1.52,0.259,1.961,0.791c0.061,0.061,0.106,0.137,0.151,0.212c0.806-0.653,1.839-1.003,2.827-1.003
			c0.775,0,1.565,0.259,2.006,0.791c0.486,0.577,0.578,1.413,0.578,2.233V181.725z"/>
		<path style="fill:#58595B;" d="M170.893,181.709c-0.121,0.046-0.35,0.076-0.517,0.076s-0.396-0.03-0.517-0.076v-9.24l-2.66,1.687
			c-0.151-0.137-0.334-0.41-0.395-0.668l3.252-2.067c0.106-0.03,0.273-0.061,0.396-0.061c0.151,0,0.319,0.03,0.44,0.076V181.709z"/>
		<path style="fill:#58595B;" d="M177.701,181.861c-2.052,0-3.191-1.521-3.191-5.289c0-3.77,1.262-5.289,3.252-5.289
			c2.021,0,3.191,1.52,3.191,5.289C180.953,180.341,179.692,181.861,177.701,181.861z M177.762,172.028
			c-1.52,0-2.158,1.55-2.158,4.544s0.593,4.544,2.113,4.544c1.52,0,2.143-1.55,2.143-4.544S179.281,172.028,177.762,172.028z"/>
		<path style="fill:#58595B;" d="M185.756,181.861c-2.052,0-3.191-1.521-3.191-5.289c0-3.77,1.262-5.289,3.252-5.289
			c2.021,0,3.191,1.52,3.191,5.289C189.008,180.341,187.747,181.861,185.756,181.861z M185.816,172.028
			c-1.52,0-2.158,1.55-2.158,4.544s0.593,4.544,2.113,4.544c1.52,0,2.143-1.55,2.143-4.544S187.336,172.028,185.816,172.028z"/>
		<path style="fill:#58595B;" d="M195.953,181.861c-0.761,0-1.551-0.137-2.098-0.35c-0.046-0.106-0.076-0.289-0.076-0.426
			c0-0.091,0.03-0.319,0.061-0.41c0.562,0.228,1.368,0.41,2.037,0.41c1.154,0,1.869-0.486,1.869-1.443
			c0-0.867-0.44-1.171-1.642-1.611c-1.672-0.608-2.219-1.307-2.219-2.341c0-1.397,1.155-2.052,2.645-2.052
			c0.501,0,1.155,0.092,1.535,0.213c0.045,0.137,0.061,0.273,0.061,0.365c0,0.121-0.03,0.334-0.061,0.44
			c-0.502-0.152-1.034-0.243-1.551-0.243c-1.079,0-1.732,0.41-1.732,1.246c0,0.729,0.41,1.079,1.657,1.551
			c1.14,0.425,2.188,0.851,2.188,2.386C198.627,181.146,197.457,181.861,195.953,181.861z"/>
		<path style="fill:#58595B;" d="M205.224,174.748c-0.486-0.197-1.125-0.318-1.688-0.318c-1.976,0-2.705,1.534-2.705,3.389
			c0,1.824,0.699,3.237,2.69,3.237c0.531,0,1.17-0.092,1.641-0.229c0.031,0.092,0.062,0.198,0.062,0.319
			c0,0.183-0.03,0.319-0.076,0.426c-0.44,0.183-1.155,0.289-1.718,0.289c-2.477,0-3.632-1.627-3.632-4.013
			c0-2.478,1.262-4.21,3.678-4.21c0.577,0,1.262,0.137,1.732,0.35c0.046,0.122,0.061,0.243,0.061,0.38
			C205.269,174.521,205.254,174.642,205.224,174.748z"/>
		<path style="fill:#58595B;" d="M212.929,181.709c-0.137,0.046-0.304,0.076-0.456,0.076c-0.182,0-0.38-0.03-0.531-0.076v-4.803
			c0-1.672-0.426-2.432-1.839-2.432c-0.761,0-1.672,0.426-2.265,0.882v6.353c-0.167,0.046-0.35,0.076-0.517,0.076
			c-0.152,0-0.335-0.03-0.472-0.076v-11.095c0.137-0.045,0.35-0.075,0.486-0.075s0.365,0.03,0.502,0.075v3.906
			c0.806-0.623,1.763-0.882,2.508-0.882c0.774,0,1.565,0.259,2.006,0.791c0.486,0.577,0.577,1.413,0.577,2.233V181.709z"/>
		<path style="fill:#58595B;" d="M217.776,181.861c-1.991,0-3.268-1.368-3.268-4.104c0-2.736,1.292-4.119,3.282-4.119
			c1.991,0,3.253,1.353,3.253,4.089C221.044,180.463,219.768,181.861,217.776,181.861z M217.791,174.384
			c-1.459,0-2.249,1.124-2.249,3.358s0.775,3.374,2.234,3.374s2.234-1.14,2.234-3.374S219.25,174.384,217.791,174.384z"/>
		<path style="fill:#58595B;" d="M225.497,181.861c-1.991,0-3.268-1.368-3.268-4.104c0-2.736,1.292-4.119,3.282-4.119
			c1.991,0,3.253,1.353,3.253,4.089C228.765,180.463,227.488,181.861,225.497,181.861z M225.512,174.384
			c-1.459,0-2.249,1.124-2.249,3.358s0.775,3.374,2.234,3.374s2.234-1.14,2.234-3.374S226.971,174.384,225.512,174.384z"/>
		<path style="fill:#58595B;" d="M231.408,181.709c-0.167,0.046-0.334,0.076-0.517,0.076c-0.152,0-0.335-0.03-0.472-0.076v-11.095
			c0.137-0.03,0.305-0.075,0.502-0.075c0.167,0,0.35,0.03,0.486,0.075V181.709z"/>
		<path style="fill:#58595B;" d="M235.268,181.861c-0.76,0-1.55-0.137-2.097-0.35c-0.046-0.106-0.076-0.289-0.076-0.426
			c0-0.091,0.03-0.319,0.061-0.41c0.562,0.228,1.368,0.41,2.037,0.41c1.154,0,1.869-0.486,1.869-1.443
			c0-0.867-0.44-1.171-1.642-1.611c-1.672-0.608-2.219-1.307-2.219-2.341c0-1.397,1.155-2.052,2.645-2.052
			c0.501,0,1.155,0.092,1.535,0.213c0.045,0.137,0.061,0.273,0.061,0.365c0,0.121-0.03,0.334-0.061,0.44
			c-0.502-0.152-1.034-0.243-1.551-0.243c-1.079,0-1.732,0.41-1.732,1.246c0,0.729,0.41,1.079,1.656,1.551
			c1.141,0.425,2.189,0.851,2.189,2.386C237.943,181.146,236.772,181.861,235.268,181.861z"/>
		<path style="fill:#58595B;" d="M243.445,172.241c-0.35,0-0.639-0.305-0.639-0.669c0-0.365,0.289-0.653,0.639-0.653
			c0.349,0,0.653,0.288,0.653,0.653C244.099,171.937,243.794,172.241,243.445,172.241z M243.946,181.709
			c-0.137,0.046-0.334,0.076-0.501,0.076c-0.168,0-0.35-0.03-0.486-0.076v-7.918c0.121-0.03,0.318-0.076,0.471-0.076
			c0.167,0,0.396,0.03,0.517,0.076V181.709z"/>
		<path style="fill:#58595B;" d="M252.152,181.725c-0.121,0.03-0.304,0.061-0.486,0.061c-0.151,0-0.35-0.03-0.501-0.076v-4.817
			c0-0.729-0.092-1.292-0.305-1.688c-0.258-0.486-0.744-0.729-1.534-0.729c-0.76,0-1.672,0.426-2.265,0.882v6.353
			c-0.167,0.046-0.335,0.076-0.517,0.076c-0.152,0-0.335-0.03-0.472-0.076v-7.918c0.106-0.046,0.289-0.061,0.396-0.061
			c0.152,0,0.334,0.015,0.426,0.061l0.075,0.79h0.016c0.836-0.684,1.793-0.942,2.568-0.942s1.581,0.259,2.021,0.791
			c0.486,0.577,0.577,1.413,0.577,2.233V181.725z"/>
	</g>
	<g>
		<path style="fill:#58595B;" d="M45.377,200.28c-0.076,0.03-0.273,0.061-0.41,0.061c-0.106,0-0.258-0.03-0.38-0.061l-5.806-8.617
			v8.617c-0.106,0.046-0.304,0.076-0.471,0.076c-0.152,0-0.334-0.03-0.456-0.076v-10.273c0.122-0.046,0.319-0.076,0.456-0.076
			c0.167,0,0.319,0.03,0.426,0.076l5.714,8.465v-8.465c0.152-0.046,0.319-0.076,0.471-0.076c0.137,0,0.319,0.03,0.456,0.076V200.28z
			"/>
		<path style="fill:#58595B;" d="M50.529,200.433c-1.991,0-3.268-1.368-3.268-4.104s1.292-4.119,3.283-4.119
			s3.252,1.353,3.252,4.089C53.797,199.034,52.52,200.433,50.529,200.433z M50.544,192.955c-1.459,0-2.25,1.125-2.25,3.358
			c0,2.234,0.775,3.374,2.234,3.374s2.234-1.14,2.234-3.374C52.763,194.08,52.003,192.955,50.544,192.955z"/>
		<path style="fill:#58595B;" d="M58.964,193.092c-0.882,0.121-1.839,0.44-2.553,0.988v6.2c-0.152,0.046-0.334,0.076-0.501,0.076
			c-0.167,0-0.334-0.03-0.486-0.076v-7.918c0.091-0.03,0.228-0.061,0.38-0.061c0.122,0,0.289,0.03,0.41,0.061l0.076,0.973h0.015
			c0.653-0.562,1.793-1.033,2.66-1.125c0.03,0.092,0.061,0.259,0.061,0.396C59.024,192.758,58.994,192.955,58.964,193.092z"/>
		<path style="fill:#58595B;" d="M64.86,200.204c-0.395,0.137-0.988,0.229-1.429,0.229c-1.504,0-2.219-0.715-2.219-2.401v-4.894
			h-1.368c-0.03-0.076-0.045-0.259-0.045-0.35c0-0.076,0.015-0.259,0.045-0.335l1.368-0.091v-2.067
			c0.122-0.045,0.319-0.075,0.486-0.075s0.38,0.03,0.501,0.075v2.067h2.234c0.03,0.076,0.061,0.304,0.061,0.38
			c0,0.106-0.03,0.289-0.061,0.396h-2.234v4.802c0,1.201,0.35,1.702,1.292,1.702c0.517,0,1.018-0.075,1.368-0.182
			c0.03,0.075,0.061,0.258,0.061,0.364C64.921,199.961,64.906,200.067,64.86,200.204z"/>
		<path style="fill:#58595B;" d="M72.413,200.28c-0.137,0.046-0.304,0.076-0.456,0.076c-0.183,0-0.38-0.03-0.532-0.076v-4.803
			c0-1.672-0.425-2.432-1.839-2.432c-0.76,0-1.671,0.426-2.264,0.882v6.353c-0.167,0.046-0.35,0.076-0.517,0.076
			c-0.152,0-0.334-0.03-0.471-0.076v-11.095c0.137-0.045,0.35-0.075,0.486-0.075c0.137,0,0.365,0.03,0.502,0.075v3.906
			c0.805-0.623,1.763-0.882,2.507-0.882c0.775,0,1.565,0.259,2.006,0.791c0.486,0.577,0.577,1.413,0.577,2.233V200.28z"/>
		<path style="fill:#58595B;" d="M80.088,196.587h-5.091c0.061,1.748,0.881,3.07,2.781,3.07c0.684,0,1.322-0.091,1.885-0.228
			c0.03,0.075,0.061,0.228,0.061,0.318c0,0.152-0.03,0.289-0.076,0.396c-0.593,0.183-1.337,0.289-1.96,0.289
			c-1.201,0-2.112-0.38-2.675-0.988c-0.668-0.729-1.018-1.823-1.018-3.085c0-2.204,1.109-4.149,3.328-4.149
			c1.991,0,2.781,1.642,2.781,3.647C80.104,196.086,80.104,196.359,80.088,196.587z M79.116,195.857
			c0-1.397-0.152-2.902-1.839-2.902c-1.474,0-2.188,1.353-2.28,2.902H79.116z"/>
		<path style="fill:#58595B;" d="M85.301,193.092c-0.882,0.121-1.839,0.44-2.553,0.988v6.2c-0.152,0.046-0.334,0.076-0.501,0.076
			c-0.167,0-0.334-0.03-0.486-0.076v-7.918c0.091-0.03,0.228-0.061,0.38-0.061c0.122,0,0.289,0.03,0.41,0.061l0.076,0.973h0.015
			c0.653-0.562,1.793-1.033,2.66-1.125c0.03,0.092,0.061,0.259,0.061,0.396C85.361,192.758,85.331,192.955,85.301,193.092z"/>
		<path style="fill:#58595B;" d="M92.915,200.296c-0.122,0.03-0.304,0.061-0.486,0.061c-0.152,0-0.35-0.03-0.502-0.076v-4.817
			c0-0.729-0.091-1.292-0.304-1.688c-0.258-0.486-0.745-0.729-1.535-0.729c-0.76,0-1.672,0.426-2.264,0.882v6.353
			c-0.167,0.046-0.334,0.076-0.517,0.076c-0.152,0-0.334-0.03-0.471-0.076v-7.918c0.106-0.046,0.289-0.061,0.395-0.061
			c0.152,0,0.334,0.015,0.425,0.061l0.076,0.79h0.015c0.836-0.684,1.793-0.942,2.568-0.942s1.581,0.259,2.021,0.791
			c0.486,0.577,0.578,1.413,0.578,2.233V200.296z"/>
		<path style="fill:#58595B;" d="M99.525,200.28c-0.122,0.046-0.35,0.076-0.517,0.076s-0.395-0.03-0.517-0.076v-10.273
			c0.122-0.046,0.35-0.076,0.517-0.076s0.395,0.03,0.517,0.076V200.28z"/>
		<path style="fill:#58595B;" d="M105.422,193.092c-0.882,0.121-1.839,0.44-2.553,0.988v6.2c-0.152,0.046-0.334,0.076-0.502,0.076
			c-0.167,0-0.334-0.03-0.486-0.076v-7.918c0.091-0.03,0.228-0.061,0.38-0.061c0.122,0,0.289,0.03,0.41,0.061l0.076,0.973h0.015
			c0.653-0.562,1.793-1.033,2.66-1.125c0.03,0.092,0.061,0.259,0.061,0.396C105.483,192.758,105.453,192.955,105.422,193.092z"/>
		<path style="fill:#58595B;" d="M112.215,196.587h-5.091c0.061,1.748,0.881,3.07,2.781,3.07c0.684,0,1.322-0.091,1.885-0.228
			c0.03,0.075,0.061,0.228,0.061,0.318c0,0.152-0.03,0.289-0.076,0.396c-0.593,0.183-1.337,0.289-1.96,0.289
			c-1.201,0-2.112-0.38-2.675-0.988c-0.668-0.729-1.018-1.823-1.018-3.085c0-2.204,1.109-4.149,3.328-4.149
			c1.991,0,2.781,1.642,2.781,3.647C112.23,196.086,112.23,196.359,112.215,196.587z M111.243,195.857
			c0-1.397-0.152-2.902-1.839-2.902c-1.474,0-2.188,1.353-2.28,2.902H111.243z"/>
		<path style="fill:#58595B;" d="M114.905,200.28c-0.167,0.046-0.334,0.076-0.517,0.076c-0.152,0-0.334-0.03-0.471-0.076v-11.095
			c0.137-0.03,0.304-0.075,0.501-0.075c0.167,0,0.35,0.03,0.486,0.075V200.28z"/>
		<path style="fill:#58595B;" d="M122.413,198.335c0,0.547,0,1.231,0.03,1.945c-0.106,0.046-0.273,0.076-0.41,0.076
			c-0.122,0-0.289-0.03-0.411-0.076c-0.045-0.243-0.076-0.562-0.091-0.851h-0.015c-0.517,0.638-1.429,1.003-2.326,1.003
			c-1.413,0-2.599-0.791-2.599-2.417c0-0.927,0.38-1.61,0.973-2.036c0.669-0.472,1.55-0.623,2.493-0.623
			c0.532,0,0.973,0.03,1.368,0.091v-0.44c0-1.52-0.623-2.021-1.9-2.021c-0.714,0-1.596,0.152-2.143,0.289
			c-0.031-0.076-0.061-0.243-0.061-0.396c0-0.106,0.03-0.258,0.076-0.35c0.653-0.197,1.52-0.319,2.249-0.319
			c1.809,0,2.766,0.821,2.766,2.675V198.335z M121.425,196.192c-0.441-0.062-0.896-0.092-1.292-0.092
			c-0.745,0-1.413,0.137-1.869,0.486c-0.41,0.305-0.638,0.791-0.638,1.414c0,1.109,0.714,1.641,1.702,1.641
			c0.82,0,1.687-0.395,2.097-1.018V196.192z"/>
		<path style="fill:#58595B;" d="M130.589,200.296c-0.122,0.03-0.304,0.061-0.486,0.061c-0.152,0-0.35-0.03-0.502-0.076v-4.817
			c0-0.729-0.091-1.292-0.304-1.688c-0.258-0.486-0.745-0.729-1.535-0.729c-0.76,0-1.672,0.426-2.264,0.882v6.353
			c-0.167,0.046-0.334,0.076-0.517,0.076c-0.152,0-0.334-0.03-0.471-0.076v-7.918c0.106-0.046,0.289-0.061,0.395-0.061
			c0.152,0,0.334,0.015,0.425,0.061l0.076,0.79h0.015c0.836-0.684,1.793-0.942,2.568-0.942s1.581,0.259,2.021,0.791
			c0.486,0.577,0.578,1.413,0.578,2.233V200.296z"/>
		<path style="fill:#58595B;" d="M138.065,200.356c-0.137,0-0.304-0.046-0.395-0.076l-0.091-0.912h-0.015
			c-0.653,0.685-1.428,1.064-2.295,1.064c-2.097,0-3.1-1.748-3.1-3.876c0-2.112,0.896-4.347,3.313-4.347
			c0.76,0,1.459,0.259,2.021,0.653v-3.678c0.137-0.045,0.319-0.075,0.486-0.075c0.182,0,0.365,0.045,0.501,0.075v11.095
			C138.385,200.326,138.233,200.356,138.065,200.356z M137.503,193.699c-0.547-0.455-1.247-0.684-1.96-0.684
			c-1.763,0-2.356,1.732-2.356,3.496c0,1.353,0.426,3.115,2.128,3.115c0.821,0,1.656-0.41,2.188-1.049V193.699z"/>
		<path style="fill:#58595B;" d="M149.236,198.335c0,0.547,0,1.231,0.03,1.945c-0.106,0.046-0.273,0.076-0.41,0.076
			c-0.122,0-0.289-0.03-0.411-0.076c-0.045-0.243-0.076-0.562-0.091-0.851h-0.015c-0.517,0.638-1.429,1.003-2.326,1.003
			c-1.413,0-2.599-0.791-2.599-2.417c0-0.927,0.38-1.61,0.973-2.036c0.669-0.472,1.55-0.623,2.493-0.623
			c0.532,0,0.973,0.03,1.368,0.091v-0.44c0-1.52-0.623-2.021-1.9-2.021c-0.714,0-1.596,0.152-2.143,0.289
			c-0.031-0.076-0.061-0.243-0.061-0.396c0-0.106,0.03-0.258,0.076-0.35c0.653-0.197,1.52-0.319,2.249-0.319
			c1.809,0,2.766,0.821,2.766,2.675V198.335z M148.248,196.192c-0.441-0.062-0.896-0.092-1.292-0.092
			c-0.745,0-1.413,0.137-1.869,0.486c-0.41,0.305-0.638,0.791-0.638,1.414c0,1.109,0.714,1.641,1.702,1.641
			c0.82,0,1.687-0.395,2.097-1.018V196.192z"/>
		<path style="fill:#58595B;" d="M154.874,193.092c-0.882,0.121-1.839,0.44-2.554,0.988v6.2c-0.152,0.046-0.334,0.076-0.501,0.076
			s-0.335-0.03-0.486-0.076v-7.918c0.091-0.03,0.228-0.061,0.38-0.061c0.121,0,0.289,0.03,0.41,0.061l0.076,0.973h0.016
			c0.652-0.562,1.793-1.033,2.659-1.125c0.03,0.092,0.061,0.259,0.061,0.396C154.935,192.758,154.904,192.955,154.874,193.092z"/>
		<path style="fill:#58595B;" d="M161.668,196.587h-5.092c0.061,1.748,0.882,3.07,2.781,3.07c0.684,0,1.322-0.091,1.885-0.228
			c0.03,0.075,0.061,0.228,0.061,0.318c0,0.152-0.03,0.289-0.076,0.396c-0.593,0.183-1.337,0.289-1.96,0.289
			c-1.201,0-2.113-0.38-2.675-0.988c-0.669-0.729-1.019-1.823-1.019-3.085c0-2.204,1.109-4.149,3.328-4.149
			c1.991,0,2.781,1.642,2.781,3.647C161.683,196.086,161.683,196.359,161.668,196.587z M160.695,195.857
			c0-1.397-0.152-2.902-1.84-2.902c-1.474,0-2.188,1.353-2.279,2.902H160.695z"/>
		<path style="fill:#58595B;" d="M167.624,200.28c-0.167,0.046-0.334,0.076-0.517,0.076c-0.152,0-0.335-0.03-0.472-0.076v-11.095
			c0.137-0.03,0.305-0.075,0.502-0.075c0.167,0,0.35,0.03,0.486,0.075V200.28z"/>
		<path style="fill:#58595B;" d="M175.375,196.587h-5.091c0.061,1.748,0.882,3.07,2.781,3.07c0.684,0,1.322-0.091,1.885-0.228
			c0.03,0.075,0.061,0.228,0.061,0.318c0,0.152-0.03,0.289-0.076,0.396c-0.593,0.183-1.337,0.289-1.96,0.289
			c-1.201,0-2.113-0.38-2.675-0.988c-0.669-0.729-1.019-1.823-1.019-3.085c0-2.204,1.109-4.149,3.328-4.149
			c1.991,0,2.781,1.642,2.781,3.647C175.391,196.086,175.391,196.359,175.375,196.587z M174.402,195.857
			c0-1.397-0.151-2.902-1.839-2.902c-1.474,0-2.188,1.353-2.279,2.902H174.402z"/>
		<path style="fill:#58595B;" d="M182.457,198.335c0,0.547,0,1.231,0.031,1.945c-0.106,0.046-0.273,0.076-0.411,0.076
			c-0.121,0-0.288-0.03-0.41-0.076c-0.045-0.243-0.076-0.562-0.091-0.851h-0.016c-0.517,0.638-1.429,1.003-2.325,1.003
			c-1.413,0-2.599-0.791-2.599-2.417c0-0.927,0.38-1.61,0.973-2.036c0.669-0.472,1.55-0.623,2.492-0.623
			c0.532,0,0.973,0.03,1.368,0.091v-0.44c0-1.52-0.623-2.021-1.899-2.021c-0.715,0-1.596,0.152-2.144,0.289
			c-0.03-0.076-0.061-0.243-0.061-0.396c0-0.106,0.03-0.258,0.076-0.35c0.653-0.197,1.52-0.319,2.249-0.319
			c1.809,0,2.766,0.821,2.766,2.675V198.335z M181.47,196.192c-0.44-0.062-0.896-0.092-1.292-0.092
			c-0.744,0-1.413,0.137-1.869,0.486c-0.41,0.305-0.639,0.791-0.639,1.414c0,1.109,0.715,1.641,1.702,1.641
			c0.821,0,1.688-0.395,2.098-1.018V196.192z"/>
		<path style="fill:#58595B;" d="M188.095,193.092c-0.881,0.121-1.839,0.44-2.553,0.988v6.2c-0.152,0.046-0.335,0.076-0.502,0.076
			s-0.334-0.03-0.486-0.076v-7.918c0.092-0.03,0.229-0.061,0.38-0.061c0.122,0,0.289,0.03,0.41,0.061l0.076,0.973h0.016
			c0.653-0.562,1.793-1.033,2.659-1.125c0.03,0.092,0.062,0.259,0.062,0.396C188.156,192.758,188.125,192.955,188.095,193.092z"/>
		<path style="fill:#58595B;" d="M195.709,200.296c-0.121,0.03-0.304,0.061-0.486,0.061c-0.151,0-0.35-0.03-0.501-0.076v-4.817
			c0-0.729-0.092-1.292-0.305-1.688c-0.258-0.486-0.744-0.729-1.534-0.729c-0.76,0-1.672,0.426-2.265,0.882v6.353
			c-0.167,0.046-0.335,0.076-0.517,0.076c-0.152,0-0.335-0.03-0.472-0.076v-7.918c0.106-0.046,0.289-0.061,0.396-0.061
			c0.152,0,0.334,0.015,0.426,0.061l0.075,0.79h0.016c0.836-0.684,1.793-0.942,2.568-0.942s1.581,0.259,2.021,0.791
			c0.486,0.577,0.577,1.413,0.577,2.233V200.296z"/>
		<path style="fill:#58595B;" d="M198.277,190.812c-0.349,0-0.638-0.305-0.638-0.669c0-0.365,0.289-0.653,0.638-0.653
			c0.35,0,0.654,0.288,0.654,0.653C198.932,190.508,198.627,190.812,198.277,190.812z M198.779,200.28
			c-0.137,0.046-0.334,0.076-0.502,0.076c-0.167,0-0.349-0.03-0.486-0.076v-7.918c0.122-0.03,0.319-0.076,0.472-0.076
			c0.167,0,0.396,0.03,0.517,0.076V200.28z"/>
		<path style="fill:#58595B;" d="M206.985,200.296c-0.121,0.03-0.304,0.061-0.486,0.061c-0.151,0-0.35-0.03-0.501-0.076v-4.817
			c0-0.729-0.092-1.292-0.305-1.688c-0.258-0.486-0.744-0.729-1.534-0.729c-0.761,0-1.672,0.426-2.265,0.882v6.353
			c-0.167,0.046-0.335,0.076-0.517,0.076c-0.152,0-0.335-0.03-0.472-0.076v-7.918c0.106-0.046,0.289-0.061,0.396-0.061
			c0.151,0,0.334,0.015,0.426,0.061l0.075,0.79h0.016c0.836-0.684,1.793-0.942,2.568-0.942s1.581,0.259,2.021,0.791
			c0.486,0.577,0.577,1.413,0.577,2.233V200.296z"/>
		<path style="fill:#58595B;" d="M214.736,198.958c0,1.14-0.061,2.508-0.607,3.45c-0.653,1.124-1.824,1.61-2.994,1.61
			c-0.669,0-1.246-0.075-1.732-0.243c-0.046-0.091-0.061-0.243-0.061-0.364c0-0.091,0.03-0.273,0.061-0.365
			c0.471,0.122,1.019,0.213,1.565,0.213c1.915,0,2.781-1.186,2.781-3.268v-0.638c-0.593,0.623-1.429,0.927-2.112,0.927
			c-2.021,0-3.07-1.565-3.07-3.769c0-2.706,1.596-4.302,3.951-4.302c0.623,0,1.565,0.183,2.219,0.441V198.958z M213.749,193.138
			c-0.548-0.152-0.942-0.198-1.322-0.198c-1.931,0-2.842,1.627-2.842,3.526c0,1.687,0.638,3.009,2.127,3.009
			c0.761,0,1.535-0.38,2.037-0.912V193.138z"/>
		<path style="fill:#58595B;" d="M229.706,200.28c-0.137,0.046-0.335,0.076-0.502,0.076s-0.395-0.046-0.531-0.076l-0.229-8.77
			c-0.197,0.593-0.669,1.764-0.987,2.538l-2.128,5.259c-0.106,0.016-0.304,0.046-0.396,0.046c-0.091,0-0.288-0.03-0.395-0.046
			l-2.188-5.289c-0.411-0.987-0.745-1.809-0.928-2.386l-0.213,8.647c-0.151,0.046-0.395,0.076-0.547,0.076
			c-0.137,0-0.38-0.03-0.486-0.076l0.365-10.273c0.121-0.046,0.471-0.076,0.577-0.076c0.167,0,0.426,0.03,0.562,0.076l3.268,7.979
			l3.176-7.979c0.168-0.046,0.518-0.076,0.623-0.076c0.137,0,0.472,0.03,0.623,0.076L229.706,200.28z"/>
		<path style="fill:#58595B;" d="M237.289,198.335c0,0.547,0,1.231,0.03,1.945c-0.106,0.046-0.274,0.076-0.411,0.076
			c-0.121,0-0.288-0.03-0.41-0.076c-0.045-0.243-0.076-0.562-0.091-0.851h-0.016c-0.517,0.638-1.429,1.003-2.325,1.003
			c-1.413,0-2.599-0.791-2.599-2.417c0-0.927,0.38-1.61,0.973-2.036c0.669-0.472,1.55-0.623,2.492-0.623
			c0.532,0,0.973,0.03,1.368,0.091v-0.44c0-1.52-0.623-2.021-1.899-2.021c-0.715,0-1.596,0.152-2.144,0.289
			c-0.03-0.076-0.061-0.243-0.061-0.396c0-0.106,0.03-0.258,0.076-0.35c0.653-0.197,1.52-0.319,2.249-0.319
			c1.809,0,2.767,0.821,2.767,2.675V198.335z M236.301,196.192c-0.44-0.062-0.896-0.092-1.292-0.092
			c-0.744,0-1.413,0.137-1.869,0.486c-0.41,0.305-0.639,0.791-0.639,1.414c0,1.109,0.715,1.641,1.702,1.641
			c0.821,0,1.688-0.395,2.098-1.018V196.192z"/>
		<path style="fill:#58595B;" d="M245.465,200.296c-0.121,0.03-0.304,0.061-0.486,0.061c-0.151,0-0.35-0.03-0.501-0.076v-4.817
			c0-0.729-0.092-1.292-0.305-1.688c-0.258-0.486-0.744-0.729-1.534-0.729c-0.76,0-1.672,0.426-2.265,0.882v6.353
			c-0.167,0.046-0.335,0.076-0.517,0.076c-0.152,0-0.335-0.03-0.472-0.076v-7.918c0.106-0.046,0.289-0.061,0.396-0.061
			c0.152,0,0.334,0.015,0.426,0.061l0.075,0.79h0.016c0.836-0.684,1.793-0.942,2.568-0.942s1.581,0.259,2.021,0.791
			c0.486,0.577,0.577,1.413,0.577,2.233V200.296z"/>
		<path style="fill:#58595B;" d="M252.942,200.356c-0.137,0-0.304-0.046-0.395-0.076l-0.092-0.912h-0.015
			c-0.654,0.685-1.429,1.064-2.295,1.064c-2.098,0-3.101-1.748-3.101-3.876c0-2.112,0.896-4.347,3.313-4.347
			c0.76,0,1.459,0.259,2.021,0.653v-3.678c0.137-0.045,0.319-0.075,0.486-0.075c0.183,0,0.365,0.045,0.502,0.075v11.095
			C253.262,200.326,253.109,200.356,252.942,200.356z M252.38,193.699c-0.547-0.455-1.246-0.684-1.96-0.684
			c-1.763,0-2.355,1.732-2.355,3.496c0,1.353,0.425,3.115,2.127,3.115c0.821,0,1.657-0.41,2.188-1.049V193.699z"/>
		<path style="fill:#58595B;" d="M260.846,198.335c0,0.547,0,1.231,0.03,1.945c-0.106,0.046-0.274,0.076-0.411,0.076
			c-0.121,0-0.288-0.03-0.41-0.076c-0.045-0.243-0.076-0.562-0.091-0.851h-0.016c-0.517,0.638-1.429,1.003-2.325,1.003
			c-1.413,0-2.599-0.791-2.599-2.417c0-0.927,0.38-1.61,0.973-2.036c0.669-0.472,1.55-0.623,2.492-0.623
			c0.532,0,0.973,0.03,1.368,0.091v-0.44c0-1.52-0.623-2.021-1.899-2.021c-0.715,0-1.596,0.152-2.144,0.289
			c-0.03-0.076-0.061-0.243-0.061-0.396c0-0.106,0.03-0.258,0.076-0.35c0.653-0.197,1.52-0.319,2.249-0.319
			c1.809,0,2.767,0.821,2.767,2.675V198.335z M259.857,196.192c-0.44-0.062-0.896-0.092-1.292-0.092
			c-0.744,0-1.413,0.137-1.869,0.486c-0.41,0.305-0.639,0.791-0.639,1.414c0,1.109,0.715,1.641,1.702,1.641
			c0.821,0,1.688-0.395,2.098-1.018V196.192z"/>
		<path style="fill:#58595B;" d="M266.482,193.092c-0.881,0.121-1.839,0.44-2.553,0.988v6.2c-0.152,0.046-0.335,0.076-0.502,0.076
			s-0.334-0.03-0.486-0.076v-7.918c0.092-0.03,0.229-0.061,0.38-0.061c0.122,0,0.289,0.03,0.411,0.061l0.075,0.973h0.016
			c0.653-0.562,1.793-1.033,2.659-1.125c0.03,0.092,0.062,0.259,0.062,0.396C266.544,192.758,266.513,192.955,266.482,193.092z"/>
		<path style="fill:#58595B;" d="M268.564,190.812c-0.349,0-0.638-0.305-0.638-0.669c0-0.365,0.289-0.653,0.638-0.653
			c0.35,0,0.654,0.288,0.654,0.653C269.219,190.508,268.914,190.812,268.564,190.812z M269.066,200.28
			c-0.137,0.046-0.334,0.076-0.502,0.076c-0.167,0-0.349-0.03-0.486-0.076v-7.918c0.122-0.03,0.319-0.076,0.472-0.076
			c0.167,0,0.396,0.03,0.517,0.076V200.28z"/>
		<path style="fill:#58595B;" d="M277.273,200.296c-0.121,0.03-0.304,0.061-0.486,0.061c-0.151,0-0.35-0.03-0.501-0.076v-4.817
			c0-0.729-0.092-1.292-0.305-1.688c-0.258-0.486-0.744-0.729-1.534-0.729c-0.76,0-1.672,0.426-2.265,0.882v6.353
			c-0.167,0.046-0.335,0.076-0.517,0.076c-0.152,0-0.335-0.03-0.472-0.076v-7.918c0.106-0.046,0.289-0.061,0.396-0.061
			c0.152,0,0.334,0.015,0.426,0.061l0.075,0.79h0.016c0.836-0.684,1.793-0.942,2.568-0.942s1.581,0.259,2.021,0.791
			c0.486,0.577,0.577,1.413,0.577,2.233V200.296z"/>
	</g>
	<g>
		<path style="fill:#58595B;" d="M41.806,218.775c-0.395,0.137-0.988,0.229-1.429,0.229c-1.504,0-2.219-0.715-2.219-2.401v-4.894
			h-1.368c-0.03-0.076-0.045-0.259-0.045-0.35c0-0.076,0.015-0.259,0.045-0.335l1.368-0.091v-2.067
			c0.122-0.045,0.319-0.075,0.486-0.075s0.38,0.03,0.501,0.075v2.067h2.234c0.03,0.076,0.061,0.304,0.061,0.38
			c0,0.106-0.03,0.289-0.061,0.396h-2.234v4.802c0,1.201,0.35,1.702,1.292,1.702c0.517,0,1.018-0.075,1.368-0.182
			c0.03,0.075,0.061,0.258,0.061,0.364C41.867,218.532,41.852,218.639,41.806,218.775z"/>
		<path style="fill:#58595B;" d="M49.358,218.852c-0.137,0.046-0.304,0.076-0.456,0.076c-0.183,0-0.38-0.03-0.532-0.076v-4.803
			c0-1.672-0.425-2.432-1.839-2.432c-0.76,0-1.671,0.426-2.264,0.882v6.353c-0.167,0.046-0.35,0.076-0.517,0.076
			c-0.152,0-0.334-0.03-0.471-0.076v-11.095c0.137-0.045,0.35-0.075,0.486-0.075c0.137,0,0.365,0.03,0.502,0.075v3.906
			c0.805-0.623,1.763-0.882,2.507-0.882c0.775,0,1.565,0.259,2.006,0.791c0.486,0.577,0.577,1.413,0.577,2.233V218.852z"/>
		<path style="fill:#58595B;" d="M54.921,211.663c-0.882,0.121-1.839,0.44-2.553,0.987v6.201c-0.152,0.046-0.334,0.076-0.502,0.076
			c-0.167,0-0.334-0.03-0.486-0.076v-7.918c0.091-0.03,0.228-0.061,0.38-0.061c0.122,0,0.289,0.03,0.41,0.061l0.076,0.973h0.015
			c0.653-0.562,1.793-1.033,2.66-1.125c0.03,0.092,0.061,0.259,0.061,0.396C54.982,211.329,54.952,211.526,54.921,211.663z"/>
		<path style="fill:#58595B;" d="M58.903,219.004c-1.991,0-3.268-1.368-3.268-4.104c0-2.736,1.292-4.119,3.283-4.119
			c1.991,0,3.252,1.353,3.252,4.089C62.17,217.605,60.894,219.004,58.903,219.004z M58.918,211.526c-1.459,0-2.25,1.124-2.25,3.358
			s0.775,3.374,2.234,3.374s2.234-1.14,2.234-3.374S60.377,211.526,58.918,211.526z"/>
		<path style="fill:#58595B;" d="M69.632,215.843c0,2.31-0.957,3.161-2.963,3.161c-2.052,0-2.918-0.852-2.918-3.086v-4.984
			c0.137-0.046,0.319-0.076,0.486-0.076c0.213,0,0.38,0.046,0.501,0.076v4.863c0,1.475,0.228,2.447,1.945,2.447
			c1.611,0,1.96-0.942,1.96-2.478v-4.833c0.122-0.046,0.334-0.076,0.501-0.076c0.167,0,0.35,0.03,0.486,0.076V215.843z"/>
		<path style="fill:#58595B;" d="M77.383,217.529c0,1.14-0.061,2.508-0.608,3.45c-0.654,1.124-1.824,1.61-2.994,1.61
			c-0.669,0-1.246-0.075-1.732-0.243c-0.046-0.091-0.061-0.243-0.061-0.364c0-0.092,0.031-0.273,0.061-0.365
			c0.471,0.122,1.018,0.213,1.565,0.213c1.915,0,2.781-1.186,2.781-3.268v-0.638c-0.593,0.623-1.429,0.927-2.113,0.927
			c-2.021,0-3.07-1.565-3.07-3.77c0-2.705,1.596-4.301,3.951-4.301c0.623,0,1.565,0.183,2.219,0.441V217.529z M76.396,211.709
			c-0.547-0.152-0.942-0.198-1.322-0.198c-1.93,0-2.842,1.626-2.842,3.526c0,1.687,0.638,3.009,2.128,3.009
			c0.76,0,1.535-0.38,2.037-0.912V211.709z"/>
		<path style="fill:#58595B;" d="M85.528,218.852c-0.137,0.046-0.304,0.076-0.456,0.076c-0.183,0-0.38-0.03-0.532-0.076v-4.803
			c0-1.672-0.425-2.432-1.839-2.432c-0.76,0-1.671,0.426-2.264,0.882v6.353c-0.167,0.046-0.35,0.076-0.517,0.076
			c-0.152,0-0.334-0.03-0.471-0.076v-11.095c0.137-0.045,0.35-0.075,0.486-0.075c0.137,0,0.365,0.03,0.502,0.075v3.906
			c0.805-0.623,1.763-0.882,2.507-0.882c0.775,0,1.565,0.259,2.006,0.791c0.486,0.577,0.577,1.413,0.577,2.233V218.852z"/>
		<path style="fill:#58595B;" d="M93.72,219.004c-1.991,0-3.268-1.368-3.268-4.104c0-2.736,1.292-4.119,3.283-4.119
			c1.991,0,3.252,1.353,3.252,4.089C96.988,217.605,95.711,219.004,93.72,219.004z M93.735,211.526c-1.459,0-2.25,1.124-2.25,3.358
			s0.775,3.374,2.234,3.374s2.234-1.14,2.234-3.374S95.194,211.526,93.735,211.526z"/>
		<path style="fill:#58595B;" d="M104.449,215.843c0,2.31-0.957,3.161-2.963,3.161c-2.052,0-2.918-0.852-2.918-3.086v-4.984
			c0.137-0.046,0.319-0.076,0.486-0.076c0.213,0,0.38,0.046,0.501,0.076v4.863c0,1.475,0.228,2.447,1.945,2.447
			c1.611,0,1.96-0.942,1.96-2.478v-4.833c0.122-0.046,0.334-0.076,0.501-0.076c0.167,0,0.35,0.03,0.486,0.076V215.843z"/>
		<path style="fill:#58595B;" d="M110.012,211.663c-0.882,0.121-1.839,0.44-2.553,0.987v6.201c-0.152,0.046-0.334,0.076-0.501,0.076
			c-0.167,0-0.334-0.03-0.486-0.076v-7.918c0.091-0.03,0.228-0.061,0.38-0.061c0.122,0,0.289,0.03,0.41,0.061l0.076,0.973h0.015
			c0.653-0.562,1.793-1.033,2.66-1.125c0.03,0.092,0.061,0.259,0.061,0.396C110.072,211.329,110.042,211.526,110.012,211.663z"/>
		<path style="fill:#58595B;" d="M121.455,209.551c-0.577-0.152-1.413-0.289-2.097-0.289c-2.507,0-3.541,1.991-3.541,4.499
			c0,2.477,0.988,4.407,3.45,4.407c0.806,0,1.626-0.122,2.173-0.305c0.031,0.092,0.046,0.243,0.046,0.365
			c0,0.152-0.015,0.35-0.046,0.44c-0.547,0.183-1.322,0.335-2.204,0.335c-2.766,0-4.514-1.672-4.514-5.229
			c0-3.207,1.687-5.35,4.529-5.35c0.821,0,1.687,0.152,2.188,0.35c0.046,0.122,0.061,0.273,0.061,0.41
			C121.501,209.277,121.486,209.444,121.455,209.551z"/>
		<path style="fill:#58595B;" d="M125.877,219.004c-1.991,0-3.268-1.368-3.268-4.104c0-2.736,1.292-4.119,3.283-4.119
			c1.991,0,3.252,1.353,3.252,4.089C129.145,217.605,127.868,219.004,125.877,219.004z M125.893,211.526
			c-1.459,0-2.25,1.124-2.25,3.358s0.775,3.374,2.234,3.374s2.234-1.14,2.234-3.374S127.352,211.526,125.893,211.526z"/>
		<path style="fill:#58595B;" d="M136.851,218.867c-0.122,0.03-0.304,0.061-0.486,0.061c-0.152,0-0.35-0.03-0.502-0.076v-4.817
			c0-0.729-0.091-1.292-0.304-1.688c-0.258-0.486-0.745-0.729-1.535-0.729c-0.76,0-1.672,0.426-2.264,0.882v6.353
			c-0.167,0.046-0.334,0.076-0.517,0.076c-0.152,0-0.334-0.03-0.471-0.076v-7.918c0.106-0.046,0.289-0.061,0.395-0.061
			c0.152,0,0.334,0.015,0.425,0.061l0.076,0.79h0.015c0.836-0.684,1.793-0.942,2.568-0.942s1.581,0.259,2.021,0.791
			c0.486,0.577,0.578,1.413,0.578,2.233V218.867z"/>
		<path style="fill:#58595B;" d="M143.354,208.411c-0.228-0.062-0.638-0.122-0.957-0.122c-0.578,0-1.003,0.152-1.292,0.471
			c-0.441,0.472-0.517,1.11-0.517,1.915v0.259h2.143c0.03,0.076,0.061,0.258,0.061,0.364c0,0.122-0.031,0.305-0.061,0.411h-2.143
			v7.143c-0.137,0.046-0.289,0.076-0.486,0.076c-0.198,0-0.365-0.03-0.502-0.076v-7.143h-1.368c-0.03-0.076-0.045-0.273-0.045-0.365
			c0-0.076,0.015-0.243,0.045-0.319l1.368-0.091v-0.259c0-1.079,0.183-1.823,0.806-2.446c0.441-0.441,1.094-0.653,1.839-0.653
			c0.396,0,0.836,0.091,1.109,0.197c0.031,0.076,0.046,0.183,0.046,0.289C143.4,208.152,143.385,208.335,143.354,208.411z"/>
		<path style="fill:#58595B;" d="M150.103,215.843c0,2.31-0.958,3.161-2.964,3.161c-2.052,0-2.918-0.852-2.918-3.086v-4.984
			c0.137-0.046,0.319-0.076,0.486-0.076c0.213,0,0.38,0.046,0.501,0.076v4.863c0,1.475,0.228,2.447,1.945,2.447
			c1.611,0,1.96-0.942,1.96-2.478v-4.833c0.122-0.046,0.334-0.076,0.502-0.076c0.167,0,0.349,0.03,0.486,0.076V215.843z"/>
		<path style="fill:#58595B;" d="M157.108,211.891c-0.486-0.197-1.125-0.318-1.688-0.318c-1.976,0-2.705,1.534-2.705,3.389
			c0,1.824,0.699,3.237,2.69,3.237c0.531,0,1.17-0.092,1.641-0.229c0.031,0.092,0.062,0.198,0.062,0.319
			c0,0.183-0.03,0.319-0.076,0.426c-0.44,0.183-1.155,0.289-1.718,0.289c-2.477,0-3.632-1.627-3.632-4.013
			c0-2.478,1.261-4.21,3.678-4.21c0.577,0,1.262,0.137,1.732,0.35c0.046,0.122,0.061,0.243,0.061,0.38
			C157.153,211.663,157.139,211.784,157.108,211.891z"/>
		<path style="fill:#58595B;" d="M159.281,209.384c-0.349,0-0.638-0.305-0.638-0.669c0-0.365,0.289-0.653,0.638-0.653
			c0.35,0,0.654,0.288,0.654,0.653C159.936,209.079,159.631,209.384,159.281,209.384z M159.783,218.852
			c-0.137,0.046-0.334,0.076-0.502,0.076c-0.167,0-0.349-0.03-0.486-0.076v-7.918c0.122-0.03,0.319-0.076,0.472-0.076
			c0.167,0,0.396,0.03,0.517,0.076V218.852z"/>
		<path style="fill:#58595B;" d="M167.746,215.843c0,2.31-0.957,3.161-2.963,3.161c-2.052,0-2.918-0.852-2.918-3.086v-4.984
			c0.137-0.046,0.318-0.076,0.486-0.076c0.212,0,0.38,0.046,0.501,0.076v4.863c0,1.475,0.229,2.447,1.945,2.447
			c1.611,0,1.961-0.942,1.961-2.478v-4.833c0.121-0.046,0.334-0.076,0.501-0.076s0.35,0.03,0.486,0.076V215.843z"/>
		<path style="fill:#58595B;" d="M171.531,219.004c-0.761,0-1.551-0.137-2.098-0.35c-0.046-0.106-0.076-0.289-0.076-0.426
			c0-0.091,0.03-0.319,0.061-0.41c0.562,0.228,1.368,0.41,2.037,0.41c1.154,0,1.869-0.486,1.869-1.443
			c0-0.867-0.44-1.171-1.642-1.611c-1.672-0.608-2.219-1.307-2.219-2.341c0-1.397,1.155-2.052,2.645-2.052
			c0.501,0,1.155,0.092,1.535,0.213c0.045,0.137,0.061,0.273,0.061,0.365c0,0.121-0.03,0.334-0.061,0.44
			c-0.502-0.152-1.034-0.243-1.551-0.243c-1.079,0-1.732,0.41-1.732,1.246c0,0.729,0.41,1.079,1.657,1.551
			c1.14,0.425,2.188,0.851,2.188,2.386C174.205,218.289,173.035,219.004,171.531,219.004z"/>
		<path style="fill:#58595B;" d="M180.481,218.852c-0.121,0.046-0.35,0.076-0.517,0.076s-0.396-0.03-0.517-0.076v-10.273
			c0.121-0.046,0.35-0.076,0.517-0.076s0.396,0.03,0.517,0.076V218.852z"/>
		<path style="fill:#58595B;" d="M188.916,218.867c-0.121,0.03-0.304,0.061-0.486,0.061c-0.151,0-0.35-0.03-0.501-0.076v-4.817
			c0-0.729-0.092-1.292-0.305-1.688c-0.258-0.486-0.744-0.729-1.534-0.729c-0.76,0-1.672,0.426-2.265,0.882v6.353
			c-0.167,0.046-0.335,0.076-0.517,0.076c-0.152,0-0.335-0.03-0.472-0.076v-7.918c0.106-0.046,0.289-0.061,0.396-0.061
			c0.152,0,0.334,0.015,0.426,0.061l0.075,0.79h0.016c0.836-0.684,1.793-0.942,2.568-0.942s1.581,0.259,2.021,0.791
			c0.486,0.577,0.577,1.413,0.577,2.233V218.867z"/>
		<path style="fill:#58595B;" d="M192.701,219.004c-0.761,0-1.551-0.137-2.098-0.35c-0.046-0.106-0.076-0.289-0.076-0.426
			c0-0.091,0.03-0.319,0.061-0.41c0.562,0.228,1.368,0.41,2.037,0.41c1.154,0,1.869-0.486,1.869-1.443
			c0-0.867-0.44-1.171-1.642-1.611c-1.672-0.608-2.219-1.307-2.219-2.341c0-1.397,1.155-2.052,2.645-2.052
			c0.501,0,1.155,0.092,1.535,0.213c0.045,0.137,0.061,0.273,0.061,0.365c0,0.121-0.03,0.334-0.061,0.44
			c-0.502-0.152-1.034-0.243-1.551-0.243c-1.079,0-1.732,0.41-1.732,1.246c0,0.729,0.41,1.079,1.657,1.551
			c1.14,0.425,2.188,0.851,2.188,2.386C195.375,218.289,194.205,219.004,192.701,219.004z"/>
		<path style="fill:#58595B;" d="M201.06,218.775c-0.396,0.137-0.987,0.229-1.429,0.229c-1.504,0-2.219-0.715-2.219-2.401v-4.894
			h-1.368c-0.03-0.076-0.045-0.259-0.045-0.35c0-0.076,0.015-0.259,0.045-0.335l1.368-0.091v-2.067
			c0.122-0.045,0.319-0.075,0.486-0.075s0.38,0.03,0.502,0.075v2.067h2.233c0.03,0.076,0.062,0.304,0.062,0.38
			c0,0.106-0.031,0.289-0.062,0.396H198.4v4.802c0,1.201,0.35,1.702,1.291,1.702c0.518,0,1.019-0.075,1.368-0.182
			c0.03,0.075,0.061,0.258,0.061,0.364C201.12,218.532,201.105,218.639,201.06,218.775z"/>
		<path style="fill:#58595B;" d="M203.08,209.384c-0.349,0-0.638-0.305-0.638-0.669c0-0.365,0.289-0.653,0.638-0.653
			c0.35,0,0.654,0.288,0.654,0.653C203.734,209.079,203.43,209.384,203.08,209.384z M203.582,218.852
			c-0.137,0.046-0.334,0.076-0.502,0.076c-0.167,0-0.349-0.03-0.486-0.076v-7.918c0.122-0.03,0.319-0.076,0.472-0.076
			c0.167,0,0.396,0.03,0.517,0.076V218.852z"/>
		<path style="fill:#58595B;" d="M209.919,218.775c-0.396,0.137-0.987,0.229-1.429,0.229c-1.504,0-2.219-0.715-2.219-2.401v-4.894
			h-1.368c-0.03-0.076-0.045-0.259-0.045-0.35c0-0.076,0.015-0.259,0.045-0.335l1.368-0.091v-2.067
			c0.122-0.045,0.319-0.075,0.486-0.075s0.38,0.03,0.502,0.075v2.067h2.233c0.03,0.076,0.062,0.304,0.062,0.38
			c0,0.106-0.031,0.289-0.062,0.396h-2.233v4.802c0,1.201,0.35,1.702,1.291,1.702c0.518,0,1.019-0.075,1.368-0.182
			c0.03,0.075,0.061,0.258,0.061,0.364C209.979,218.532,209.965,218.639,209.919,218.775z"/>
		<path style="fill:#58595B;" d="M217.001,215.843c0,2.31-0.957,3.161-2.963,3.161c-2.052,0-2.918-0.852-2.918-3.086v-4.984
			c0.137-0.046,0.318-0.076,0.486-0.076c0.212,0,0.38,0.046,0.501,0.076v4.863c0,1.475,0.229,2.447,1.945,2.447
			c1.611,0,1.961-0.942,1.961-2.478v-4.833c0.121-0.046,0.334-0.076,0.501-0.076s0.35,0.03,0.486,0.076V215.843z"/>
		<path style="fill:#58595B;" d="M223.232,218.775c-0.396,0.137-0.988,0.229-1.429,0.229c-1.505,0-2.219-0.715-2.219-2.401v-4.894
			h-1.368c-0.03-0.076-0.045-0.259-0.045-0.35c0-0.076,0.015-0.259,0.045-0.335l1.368-0.091v-2.067
			c0.122-0.045,0.319-0.075,0.486-0.075s0.38,0.03,0.502,0.075v2.067h2.233c0.03,0.076,0.062,0.304,0.062,0.38
			c0,0.106-0.031,0.289-0.062,0.396h-2.233v4.802c0,1.201,0.35,1.702,1.291,1.702c0.518,0,1.019-0.075,1.368-0.182
			c0.03,0.075,0.061,0.258,0.061,0.364C223.293,218.532,223.278,218.639,223.232,218.775z"/>
		<path style="fill:#58595B;" d="M229.98,215.158h-5.092c0.061,1.748,0.882,3.07,2.781,3.07c0.684,0,1.322-0.091,1.885-0.229
			c0.03,0.076,0.061,0.229,0.061,0.319c0,0.152-0.03,0.289-0.076,0.396c-0.593,0.183-1.337,0.289-1.96,0.289
			c-1.201,0-2.113-0.38-2.675-0.988c-0.669-0.729-1.019-1.823-1.019-3.085c0-2.204,1.109-4.149,3.328-4.149
			c1.991,0,2.781,1.642,2.781,3.647C229.995,214.657,229.995,214.931,229.98,215.158z M229.008,214.429
			c0-1.397-0.152-2.902-1.84-2.902c-1.474,0-2.188,1.353-2.279,2.902H229.008z"/>
		<path style="fill:#58595B;" d="M230.938,221.207c-0.092-0.076-0.213-0.258-0.259-0.38c0.623-0.501,1.095-1.063,1.246-1.687
			c-0.318-0.168-0.577-0.486-0.577-0.882c0-0.426,0.334-0.745,0.715-0.745c0.486,0,0.835,0.441,0.835,0.973
			C232.897,219.338,232.199,220.417,230.938,221.207z"/>
		<path style="fill:#58595B;" d="M241.545,211.663c-0.881,0.121-1.839,0.44-2.553,0.987v6.201c-0.152,0.046-0.335,0.076-0.502,0.076
			s-0.334-0.03-0.486-0.076v-7.918c0.092-0.03,0.229-0.061,0.38-0.061c0.122,0,0.289,0.03,0.411,0.061l0.075,0.973h0.016
			c0.653-0.562,1.793-1.033,2.659-1.125c0.03,0.092,0.062,0.259,0.062,0.396C241.606,211.329,241.575,211.526,241.545,211.663z"/>
		<path style="fill:#58595B;" d="M243.627,209.384c-0.35,0-0.639-0.305-0.639-0.669c0-0.365,0.289-0.653,0.639-0.653
			c0.349,0,0.653,0.288,0.653,0.653C244.28,209.079,243.976,209.384,243.627,209.384z M244.128,218.852
			c-0.137,0.046-0.334,0.076-0.501,0.076c-0.168,0-0.35-0.03-0.486-0.076v-7.918c0.121-0.03,0.318-0.076,0.471-0.076
			c0.167,0,0.396,0.03,0.517,0.076V218.852z"/>
		<path style="fill:#58595B;" d="M248.02,219.004c-0.761,0-1.551-0.137-2.098-0.35c-0.046-0.106-0.076-0.289-0.076-0.426
			c0-0.091,0.03-0.319,0.061-0.41c0.562,0.228,1.368,0.41,2.037,0.41c1.154,0,1.869-0.486,1.869-1.443
			c0-0.867-0.44-1.171-1.642-1.611c-1.672-0.608-2.219-1.307-2.219-2.341c0-1.397,1.155-2.052,2.645-2.052
			c0.501,0,1.155,0.092,1.535,0.213c0.045,0.137,0.061,0.273,0.061,0.365c0,0.121-0.03,0.334-0.061,0.44
			c-0.502-0.152-1.034-0.243-1.551-0.243c-1.079,0-1.732,0.41-1.732,1.246c0,0.729,0.41,1.079,1.657,1.551
			c1.14,0.425,2.188,0.851,2.188,2.386C250.693,218.289,249.523,219.004,248.02,219.004z"/>
		<path style="fill:#58595B;" d="M252.852,209.384c-0.349,0-0.638-0.305-0.638-0.669c0-0.365,0.289-0.653,0.638-0.653
			c0.35,0,0.654,0.288,0.654,0.653C253.506,209.079,253.201,209.384,252.852,209.384z M253.354,218.852
			c-0.137,0.046-0.334,0.076-0.502,0.076c-0.167,0-0.349-0.03-0.486-0.076v-7.918c0.122-0.03,0.319-0.076,0.472-0.076
			c0.167,0,0.396,0.03,0.517,0.076V218.852z"/>
		<path style="fill:#58595B;" d="M261.56,218.867c-0.121,0.03-0.304,0.061-0.486,0.061c-0.151,0-0.35-0.03-0.501-0.076v-4.817
			c0-0.729-0.092-1.292-0.305-1.688c-0.258-0.486-0.744-0.729-1.534-0.729c-0.761,0-1.672,0.426-2.265,0.882v6.353
			c-0.167,0.046-0.335,0.076-0.517,0.076c-0.152,0-0.335-0.03-0.472-0.076v-7.918c0.106-0.046,0.289-0.061,0.396-0.061
			c0.151,0,0.334,0.015,0.426,0.061l0.075,0.79h0.016c0.836-0.684,1.793-0.942,2.568-0.942s1.581,0.259,2.021,0.791
			c0.486,0.577,0.577,1.413,0.577,2.233V218.867z"/>
		<path style="fill:#58595B;" d="M269.311,217.529c0,1.14-0.061,2.508-0.607,3.45c-0.653,1.124-1.824,1.61-2.994,1.61
			c-0.669,0-1.246-0.075-1.732-0.243c-0.046-0.091-0.061-0.243-0.061-0.364c0-0.092,0.03-0.273,0.061-0.365
			c0.471,0.122,1.019,0.213,1.565,0.213c1.915,0,2.781-1.186,2.781-3.268v-0.638c-0.593,0.623-1.429,0.927-2.112,0.927
			c-2.021,0-3.07-1.565-3.07-3.77c0-2.705,1.596-4.301,3.951-4.301c0.623,0,1.565,0.183,2.219,0.441V217.529z M268.323,211.709
			c-0.548-0.152-0.942-0.198-1.322-0.198c-1.931,0-2.842,1.626-2.842,3.526c0,1.687,0.638,3.009,2.127,3.009
			c0.761,0,1.535-0.38,2.037-0.912V211.709z"/>
	</g>
	<g>
		<path style="fill:#58595B;" d="M42.079,226.982c-0.228-0.062-0.638-0.122-0.957-0.122c-0.578,0-1.003,0.152-1.292,0.472
			c-0.441,0.471-0.517,1.109-0.517,1.914v0.259h2.143c0.03,0.076,0.061,0.259,0.061,0.364c0,0.122-0.031,0.305-0.061,0.411h-2.143
			v7.143c-0.137,0.046-0.289,0.076-0.486,0.076c-0.198,0-0.365-0.03-0.502-0.076v-7.143h-1.368c-0.03-0.076-0.045-0.274-0.045-0.365
			c0-0.076,0.015-0.243,0.045-0.319l1.368-0.091v-0.259c0-1.079,0.183-1.823,0.806-2.446c0.441-0.44,1.094-0.653,1.839-0.653
			c0.396,0,0.836,0.091,1.109,0.197c0.031,0.076,0.046,0.183,0.046,0.289C42.125,226.724,42.11,226.906,42.079,226.982z"/>
		<path style="fill:#58595B;" d="M46.38,230.234c-0.882,0.121-1.839,0.44-2.553,0.988v6.2c-0.152,0.046-0.334,0.076-0.502,0.076
			c-0.167,0-0.334-0.03-0.486-0.076v-7.918c0.091-0.03,0.228-0.061,0.38-0.061c0.122,0,0.289,0.03,0.41,0.061l0.076,0.973h0.015
			c0.653-0.562,1.793-1.033,2.66-1.125c0.03,0.092,0.061,0.259,0.061,0.396C46.441,229.9,46.411,230.098,46.38,230.234z"/>
		<path style="fill:#58595B;" d="M50.362,237.575c-1.991,0-3.268-1.368-3.268-4.104s1.292-4.119,3.283-4.119
			c1.991,0,3.252,1.353,3.252,4.089C53.629,236.177,52.353,237.575,50.362,237.575z M50.377,230.098c-1.459,0-2.25,1.125-2.25,3.358
			c0,2.234,0.775,3.374,2.234,3.374s2.234-1.14,2.234-3.374C52.596,231.223,51.836,230.098,50.377,230.098z"/>
		<path style="fill:#58595B;" d="M66.259,237.438c-0.152,0.03-0.304,0.061-0.456,0.061c-0.182,0-0.35-0.046-0.532-0.076v-4.803
			c0-1.672-0.426-2.432-1.839-2.432c-0.729,0-1.702,0.38-2.31,0.821c0.122,0.425,0.152,0.896,0.152,1.367v5.046
			c-0.152,0.046-0.304,0.076-0.456,0.076c-0.197,0-0.38-0.03-0.532-0.076v-4.803c0-1.672-0.38-2.432-1.793-2.432
			c-0.76,0-1.657,0.426-2.249,0.882v6.353c-0.167,0.046-0.365,0.076-0.547,0.076c-0.152,0-0.319-0.03-0.44-0.076v-7.918
			c0.076-0.03,0.243-0.061,0.41-0.061c0.137,0,0.304,0.03,0.41,0.061l0.076,0.79h0.015c0.836-0.684,1.793-0.942,2.568-0.942
			s1.52,0.259,1.96,0.791c0.061,0.061,0.106,0.137,0.152,0.212c0.805-0.653,1.839-1.003,2.827-1.003
			c0.775,0,1.565,0.259,2.006,0.791c0.486,0.577,0.578,1.413,0.578,2.233V237.438z"/>
		<path style="fill:#58595B;" d="M74.45,237.575c-1.991,0-3.268-1.368-3.268-4.104s1.292-4.119,3.283-4.119
			c1.991,0,3.252,1.353,3.252,4.089C77.717,236.177,76.44,237.575,74.45,237.575z M74.465,230.098c-1.459,0-2.25,1.125-2.25,3.358
			c0,2.234,0.775,3.374,2.234,3.374s2.234-1.14,2.234-3.374C76.684,231.223,75.924,230.098,74.465,230.098z"/>
		<path style="fill:#58595B;" d="M85.423,237.438c-0.122,0.03-0.304,0.061-0.486,0.061c-0.152,0-0.35-0.03-0.502-0.076v-4.817
			c0-0.729-0.091-1.292-0.304-1.688c-0.258-0.486-0.745-0.729-1.535-0.729c-0.76,0-1.672,0.426-2.264,0.882v6.353
			c-0.167,0.046-0.334,0.076-0.517,0.076c-0.152,0-0.334-0.03-0.471-0.076v-7.918c0.106-0.046,0.289-0.061,0.395-0.061
			c0.152,0,0.334,0.015,0.425,0.061l0.076,0.79h0.015c0.836-0.684,1.793-0.942,2.568-0.942s1.581,0.259,2.021,0.791
			c0.486,0.577,0.578,1.413,0.578,2.233V237.438z"/>
		<path style="fill:#58595B;" d="M88.462,237.423c-0.167,0.046-0.334,0.076-0.517,0.076c-0.152,0-0.334-0.03-0.471-0.076v-11.095
			c0.137-0.03,0.304-0.075,0.501-0.075c0.167,0,0.35,0.03,0.486,0.075V237.423z"/>
		<path style="fill:#58595B;" d="M96.456,236.101c0,1.475-0.061,2.522-0.593,3.465c-0.608,1.079-1.809,1.596-2.888,1.596
			c-0.79,0-1.337-0.075-1.824-0.243c-0.045-0.091-0.061-0.243-0.061-0.364c0-0.091,0.03-0.289,0.061-0.38
			c0.456,0.137,1.003,0.243,1.733,0.243c1.671,0,2.583-1.201,2.583-3.283v-0.531c-0.775,0.684-1.642,0.973-2.432,0.973
			c-0.851,0-1.52-0.213-1.945-0.729c-0.471-0.562-0.532-1.384-0.532-2.204v-5.137c0.122-0.03,0.319-0.076,0.471-0.076
			c0.183,0,0.38,0.046,0.517,0.076v4.97c0,0.729,0.061,1.337,0.334,1.748c0.243,0.35,0.639,0.531,1.231,0.531
			c0.942,0,1.839-0.501,2.355-1.003v-6.246c0.137-0.03,0.334-0.076,0.517-0.076c0.152,0,0.35,0.046,0.471,0.076V236.101z"/>
		<path style="fill:#58595B;" d="M106.075,237.423c-0.122,0.046-0.35,0.076-0.517,0.076s-0.395-0.03-0.517-0.076v-9.24l-2.66,1.687
			c-0.152-0.137-0.334-0.41-0.395-0.668l3.252-2.067c0.106-0.03,0.273-0.061,0.396-0.061c0.152,0,0.319,0.03,0.44,0.076V237.423z"/>
		<path style="fill:#58595B;" d="M112.884,237.575c-2.052,0-3.191-1.521-3.191-5.289c0-3.77,1.261-5.289,3.252-5.289
			c2.021,0,3.192,1.52,3.192,5.289C116.136,236.055,114.875,237.575,112.884,237.575z M112.944,227.742
			c-1.52,0-2.158,1.55-2.158,4.544s0.592,4.544,2.112,4.544s2.143-1.55,2.143-4.544S114.464,227.742,112.944,227.742z"/>
		<path style="fill:#58595B;" d="M122.185,237.423c-0.122,0.046-0.35,0.076-0.517,0.076s-0.395-0.03-0.517-0.076v-9.24l-2.66,1.687
			c-0.152-0.137-0.334-0.41-0.395-0.668l3.252-2.067c0.106-0.03,0.273-0.061,0.396-0.061c0.152,0,0.319,0.03,0.44,0.076V237.423z"/>
		<path style="fill:#58595B;" d="M134.388,236.603c-0.593,0.531-1.52,0.82-2.401,0.82c-0.623,0-1.201-0.106-1.626-0.259v3.83
			c-0.152,0.046-0.289,0.076-0.501,0.076c-0.167,0-0.365-0.03-0.486-0.076v-11.489c0.076-0.03,0.258-0.061,0.41-0.061
			s0.289,0.03,0.395,0.061l0.091,0.836h0.015c0.578-0.608,1.444-0.988,2.325-0.988c0.958,0,1.809,0.411,2.34,1.171
			c0.441,0.638,0.714,1.55,0.714,2.659C135.665,234.702,135.193,235.873,134.388,236.603z M132.503,230.158
			c-0.805,0-1.611,0.334-2.143,1.003v5.229c0.395,0.183,1.003,0.288,1.52,0.288c1.642,0,2.751-1.078,2.751-3.449
			C134.631,231.359,133.902,230.158,132.503,230.158z"/>
		<path style="fill:#58595B;" d="M142.701,235.478c0,0.547,0,1.231,0.03,1.945c-0.106,0.046-0.273,0.076-0.41,0.076
			c-0.122,0-0.289-0.03-0.41-0.076c-0.046-0.243-0.076-0.562-0.091-0.851h-0.015c-0.517,0.638-1.429,1.003-2.325,1.003
			c-1.414,0-2.599-0.791-2.599-2.417c0-0.927,0.38-1.61,0.973-2.036c0.669-0.472,1.55-0.623,2.493-0.623
			c0.532,0,0.973,0.03,1.368,0.091v-0.44c0-1.52-0.623-2.021-1.9-2.021c-0.714,0-1.596,0.152-2.143,0.289
			c-0.031-0.076-0.061-0.243-0.061-0.396c0-0.106,0.03-0.258,0.076-0.35c0.653-0.197,1.52-0.319,2.249-0.319
			c1.809,0,2.766,0.821,2.766,2.675V235.478z M141.713,233.335c-0.441-0.062-0.897-0.092-1.292-0.092
			c-0.745,0-1.413,0.137-1.869,0.486c-0.411,0.305-0.638,0.791-0.638,1.414c0,1.109,0.714,1.641,1.702,1.641
			c0.82,0,1.687-0.395,2.097-1.018V233.335z"/>
		<path style="fill:#58595B;" d="M148.339,230.234c-0.882,0.121-1.839,0.44-2.553,0.988v6.2c-0.152,0.046-0.334,0.076-0.502,0.076
			c-0.167,0-0.334-0.03-0.486-0.076v-7.918c0.091-0.03,0.228-0.061,0.38-0.061c0.122,0,0.289,0.03,0.41,0.061l0.076,0.973h0.015
			c0.653-0.562,1.793-1.033,2.66-1.125c0.03,0.092,0.061,0.259,0.061,0.396C148.4,229.9,148.37,230.098,148.339,230.234z"/>
		<path style="fill:#58595B;" d="M154.221,237.347c-0.396,0.137-0.988,0.229-1.429,0.229c-1.505,0-2.219-0.715-2.219-2.401v-4.894
			h-1.368c-0.03-0.076-0.045-0.259-0.045-0.35c0-0.076,0.015-0.259,0.045-0.335l1.368-0.091v-2.067
			c0.122-0.045,0.319-0.075,0.486-0.075s0.38,0.03,0.501,0.075v2.067h2.234c0.03,0.076,0.062,0.304,0.062,0.38
			c0,0.106-0.031,0.289-0.062,0.396h-2.234v4.802c0,1.201,0.35,1.702,1.293,1.702c0.517,0,1.018-0.075,1.367-0.182
			c0.03,0.075,0.061,0.258,0.061,0.364C154.281,237.104,154.267,237.21,154.221,237.347z"/>
		<path style="fill:#58595B;" d="M156.242,227.955c-0.35,0-0.639-0.305-0.639-0.669c0-0.365,0.289-0.653,0.639-0.653
			c0.349,0,0.653,0.288,0.653,0.653C156.896,227.65,156.591,227.955,156.242,227.955z M156.743,237.423
			c-0.137,0.046-0.334,0.076-0.501,0.076c-0.168,0-0.35-0.03-0.486-0.076v-7.918c0.121-0.03,0.318-0.076,0.471-0.076
			c0.167,0,0.396,0.03,0.517,0.076V237.423z"/>
		<path style="fill:#58595B;" d="M163.856,230.462c-0.486-0.197-1.125-0.318-1.688-0.318c-1.976,0-2.705,1.534-2.705,3.389
			c0,1.823,0.699,3.237,2.69,3.237c0.531,0,1.17-0.092,1.641-0.229c0.031,0.092,0.062,0.198,0.062,0.319
			c0,0.183-0.03,0.319-0.076,0.426c-0.44,0.183-1.155,0.289-1.718,0.289c-2.477,0-3.632-1.627-3.632-4.013
			c0-2.478,1.262-4.21,3.678-4.21c0.577,0,1.262,0.137,1.732,0.35c0.046,0.122,0.061,0.243,0.061,0.38
			C163.901,230.234,163.887,230.355,163.856,230.462z"/>
		<path style="fill:#58595B;" d="M166.029,227.955c-0.35,0-0.639-0.305-0.639-0.669c0-0.365,0.289-0.653,0.639-0.653
			c0.349,0,0.653,0.288,0.653,0.653C166.683,227.65,166.378,227.955,166.029,227.955z M166.53,237.423
			c-0.137,0.046-0.334,0.076-0.501,0.076c-0.168,0-0.35-0.03-0.486-0.076v-7.918c0.121-0.03,0.318-0.076,0.471-0.076
			c0.167,0,0.396,0.03,0.517,0.076V237.423z"/>
		<path style="fill:#58595B;" d="M173.674,236.603c-0.593,0.531-1.52,0.82-2.401,0.82c-0.623,0-1.2-0.106-1.626-0.259v3.83
			c-0.152,0.046-0.289,0.076-0.502,0.076c-0.167,0-0.364-0.03-0.486-0.076v-11.489c0.076-0.03,0.259-0.061,0.41-0.061
			c0.152,0,0.289,0.03,0.396,0.061l0.091,0.836h0.016c0.577-0.608,1.443-0.988,2.325-0.988c0.958,0,1.809,0.411,2.341,1.171
			c0.44,0.638,0.714,1.55,0.714,2.659C174.95,234.702,174.479,235.873,173.674,236.603z M171.789,230.158
			c-0.806,0-1.611,0.334-2.143,1.003v5.229c0.395,0.183,1.003,0.288,1.52,0.288c1.642,0,2.751-1.078,2.751-3.449
			C173.917,231.359,173.188,230.158,171.789,230.158z"/>
		<path style="fill:#58595B;" d="M181.986,235.478c0,0.547,0,1.231,0.031,1.945c-0.106,0.046-0.273,0.076-0.411,0.076
			c-0.121,0-0.288-0.03-0.41-0.076c-0.045-0.243-0.076-0.562-0.091-0.851h-0.016c-0.517,0.638-1.429,1.003-2.325,1.003
			c-1.413,0-2.599-0.791-2.599-2.417c0-0.927,0.38-1.61,0.973-2.036c0.669-0.472,1.55-0.623,2.492-0.623
			c0.532,0,0.973,0.03,1.368,0.091v-0.44c0-1.52-0.623-2.021-1.899-2.021c-0.715,0-1.596,0.152-2.144,0.289
			c-0.03-0.076-0.061-0.243-0.061-0.396c0-0.106,0.03-0.258,0.076-0.35c0.653-0.197,1.52-0.319,2.249-0.319
			c1.809,0,2.766,0.821,2.766,2.675V235.478z M180.999,233.335c-0.44-0.062-0.896-0.092-1.292-0.092
			c-0.744,0-1.413,0.137-1.869,0.486c-0.41,0.305-0.639,0.791-0.639,1.414c0,1.109,0.715,1.641,1.702,1.641
			c0.821,0,1.688-0.395,2.098-1.018V233.335z"/>
		<path style="fill:#58595B;" d="M190.162,237.438c-0.121,0.03-0.304,0.061-0.486,0.061c-0.151,0-0.35-0.03-0.501-0.076v-4.817
			c0-0.729-0.092-1.292-0.305-1.688c-0.258-0.486-0.744-0.729-1.534-0.729c-0.76,0-1.672,0.426-2.265,0.882v6.353
			c-0.167,0.046-0.335,0.076-0.517,0.076c-0.152,0-0.335-0.03-0.472-0.076v-7.918c0.106-0.046,0.289-0.061,0.396-0.061
			c0.152,0,0.334,0.015,0.426,0.061l0.075,0.79h0.016c0.836-0.684,1.793-0.942,2.568-0.942s1.581,0.259,2.021,0.791
			c0.486,0.577,0.577,1.413,0.577,2.233V237.438z"/>
		<path style="fill:#58595B;" d="M196.394,237.347c-0.396,0.137-0.987,0.229-1.429,0.229c-1.504,0-2.219-0.715-2.219-2.401v-4.894
			h-1.368c-0.03-0.076-0.045-0.259-0.045-0.35c0-0.076,0.015-0.259,0.045-0.335l1.368-0.091v-2.067
			c0.122-0.045,0.319-0.075,0.486-0.075s0.38,0.03,0.502,0.075v2.067h2.233c0.03,0.076,0.062,0.304,0.062,0.38
			c0,0.106-0.031,0.289-0.062,0.396h-2.233v4.802c0,1.201,0.35,1.702,1.291,1.702c0.518,0,1.019-0.075,1.368-0.182
			c0.03,0.075,0.061,0.258,0.061,0.364C196.454,237.104,196.439,237.21,196.394,237.347z"/>
		<path style="fill:#58595B;" d="M199.631,237.575c-0.761,0-1.551-0.137-2.098-0.35c-0.046-0.106-0.076-0.289-0.076-0.426
			c0-0.091,0.03-0.319,0.061-0.41c0.562,0.228,1.368,0.41,2.037,0.41c1.154,0,1.869-0.486,1.869-1.444c0-0.866-0.44-1.17-1.642-1.61
			c-1.672-0.608-2.219-1.308-2.219-2.341c0-1.398,1.155-2.052,2.645-2.052c0.501,0,1.155,0.092,1.535,0.213
			c0.045,0.137,0.061,0.273,0.061,0.365c0,0.121-0.03,0.334-0.061,0.44c-0.502-0.152-1.034-0.243-1.551-0.243
			c-1.079,0-1.732,0.41-1.732,1.246c0,0.729,0.41,1.079,1.657,1.55c1.14,0.426,2.188,0.852,2.188,2.387
			C202.305,236.86,201.135,237.575,199.631,237.575z"/>
		<path style="fill:#58595B;" d="M207.807,227.955c-0.349,0-0.638-0.305-0.638-0.669c0-0.365,0.289-0.653,0.638-0.653
			c0.35,0,0.654,0.288,0.654,0.653C208.461,227.65,208.156,227.955,207.807,227.955z M208.309,237.423
			c-0.137,0.046-0.334,0.076-0.502,0.076c-0.167,0-0.349-0.03-0.486-0.076v-7.918c0.122-0.03,0.319-0.076,0.472-0.076
			c0.167,0,0.396,0.03,0.517,0.076V237.423z"/>
		<path style="fill:#58595B;" d="M216.515,237.438c-0.121,0.03-0.304,0.061-0.486,0.061c-0.151,0-0.35-0.03-0.501-0.076v-4.817
			c0-0.729-0.092-1.292-0.305-1.688c-0.258-0.486-0.744-0.729-1.534-0.729c-0.761,0-1.672,0.426-2.265,0.882v6.353
			c-0.167,0.046-0.335,0.076-0.517,0.076c-0.152,0-0.335-0.03-0.472-0.076v-7.918c0.106-0.046,0.289-0.061,0.396-0.061
			c0.151,0,0.334,0.015,0.426,0.061l0.075,0.79h0.016c0.836-0.684,1.793-0.942,2.568-0.942s1.581,0.259,2.021,0.791
			c0.486,0.577,0.577,1.413,0.577,2.233V237.438z"/>
		<path style="fill:#58595B;" d="M225.146,234.368c-0.744,0.866-1.443,1.611-2.036,2.249h4.681c0.046,0.137,0.046,0.304,0.046,0.396
			c0,0.137-0.016,0.273-0.046,0.41h-5.729c-0.091-0.259-0.122-0.426-0.122-0.593c0-0.106,0-0.152,0.016-0.243
			c0.882-0.957,1.93-2.098,2.538-2.781c1.672-1.885,2.31-3.024,2.31-4.148c0-1.277-0.729-1.915-1.914-1.915
			c-0.806,0-1.748,0.243-2.493,0.577c-0.03-0.091-0.045-0.304-0.045-0.396c0-0.137,0.03-0.273,0.075-0.395
			c0.608-0.273,1.672-0.532,2.6-0.532c1.702,0,2.872,0.942,2.872,2.568C227.897,230.934,227.168,232.027,225.146,234.368z"/>
		<path style="fill:#58595B;" d="M232.897,237.575c-2.052,0-3.191-1.521-3.191-5.289c0-3.77,1.261-5.289,3.252-5.289
			c2.021,0,3.191,1.52,3.191,5.289C236.149,236.055,234.889,237.575,232.897,237.575z M232.958,227.742
			c-1.52,0-2.158,1.55-2.158,4.544s0.593,4.544,2.112,4.544c1.521,0,2.144-1.55,2.144-4.544S234.478,227.742,232.958,227.742z"/>
		<path style="fill:#58595B;" d="M242.198,237.423c-0.121,0.046-0.35,0.076-0.517,0.076s-0.396-0.03-0.517-0.076v-9.24l-2.66,1.687
			c-0.151-0.137-0.334-0.41-0.395-0.668l3.252-2.067c0.106-0.03,0.273-0.061,0.396-0.061c0.151,0,0.319,0.03,0.44,0.076V237.423z"/>
		<path style="fill:#58595B;" d="M249.311,234.368c-0.744,0.866-1.443,1.611-2.036,2.249h4.681c0.046,0.137,0.046,0.304,0.046,0.396
			c0,0.137-0.016,0.273-0.046,0.41h-5.729c-0.091-0.259-0.122-0.426-0.122-0.593c0-0.106,0-0.152,0.016-0.243
			c0.882-0.957,1.93-2.098,2.538-2.781c1.672-1.885,2.31-3.024,2.31-4.148c0-1.277-0.729-1.915-1.914-1.915
			c-0.806,0-1.748,0.243-2.493,0.577c-0.03-0.091-0.045-0.304-0.045-0.396c0-0.137,0.03-0.273,0.075-0.395
			c0.608-0.273,1.672-0.532,2.6-0.532c1.702,0,2.872,0.942,2.872,2.568C252.062,230.934,251.332,232.027,249.311,234.368z"/>
	</g>
</g>
</svg>
