<?xml version="1.0" encoding="utf-8"?>
<!-- Generator: Adobe Illustrator 16.0.0, SVG Export Plug-In . SVG Version: 6.00 Build 0)  -->
<!DOCTYPE svg PUBLIC "-//W3C//DTD SVG 1.0//EN" "http://www.w3.org/TR/2001/REC-SVG-20010904/DTD/svg10.dtd">
<svg version="1.0" xmlns="http://www.w3.org/2000/svg" xmlns:xlink="http://www.w3.org/1999/xlink" x="0px" y="0px" width="300px"
	 height="300px" viewBox="0 0 300 300" style="enable-background:new 0 0 300 300;" xml:space="preserve">
<g id="Text" style="display:none;">
	<path style="display:inline;fill:#58595B;" d="M25.318,90.204c-0.131-0.521-0.229-0.994-0.294-1.465
		c-0.081,0.456-0.179,0.895-0.326,1.449l-2.018,7.915c-0.164,0.048-0.424,0.081-0.652,0.081c-0.228,0-0.537-0.016-0.7-0.081
		l-2.377-8.257c-0.277-0.912-0.391-1.84-0.407-2.752c0.162-0.048,0.407-0.081,0.569-0.081c0.179,0,0.342,0.033,0.538,0.081
		c0.016,0.863,0.114,1.694,0.342,2.524l1.677,5.959c0.082,0.31,0.31,1.141,0.375,1.483c0.033-0.326,0.195-1.042,0.309-1.499
		l2.134-8.468c0.146-0.048,0.357-0.081,0.52-0.081c0.179,0,0.407,0.048,0.522,0.081l2.133,8.452
		c0.114,0.423,0.261,1.058,0.374,1.531c0.114-0.473,0.277-1.124,0.408-1.596l1.66-5.862c0.228-0.83,0.358-1.662,0.375-2.524
		c0.162-0.048,0.341-0.081,0.538-0.081c0.162,0,0.407,0.033,0.537,0.081c-0.016,0.847-0.13,1.743-0.407,2.688l-2.395,8.322
		c-0.179,0.048-0.553,0.081-0.732,0.081c-0.164,0-0.456-0.032-0.651-0.081L25.318,90.204z M38.865,94.145H33.41
		c0.065,1.873,0.944,3.29,2.979,3.29c0.733,0,1.417-0.099,2.02-0.245c0.033,0.081,0.065,0.245,0.065,0.342
		c0,0.163-0.033,0.31-0.082,0.423c-0.634,0.196-1.433,0.31-2.101,0.31c-1.286,0-2.263-0.407-2.866-1.059
		c-0.716-0.782-1.091-1.955-1.091-3.306c0-2.361,1.188-4.446,3.566-4.446c2.134,0,2.98,1.76,2.98,3.909
		C38.881,93.607,38.881,93.9,38.865,94.145z M37.822,93.363c0-1.498-0.163-3.11-1.971-3.11c-1.579,0-2.345,1.45-2.442,3.11H37.822z
		 M47.265,98.265c-2.133,0-3.501-1.465-3.501-4.397c0-2.931,1.384-4.413,3.518-4.413c2.133,0,3.485,1.45,3.485,4.381
		S49.399,98.265,47.265,98.265z M47.282,90.252c-1.563,0-2.411,1.206-2.411,3.599s0.83,3.615,2.394,3.615s2.395-1.222,2.395-3.615
		S48.845,90.252,47.282,90.252z M58.11,89.618v-0.277c0-1.156,0.195-1.954,0.863-2.622c0.472-0.473,1.172-0.701,1.97-0.701
		c0.423,0,0.896,0.098,1.189,0.212c0.032,0.082,0.048,0.196,0.048,0.31c0,0.098-0.016,0.293-0.048,0.374
		c-0.244-0.065-0.685-0.13-1.026-0.13c-0.619,0-1.075,0.163-1.384,0.505c-0.472,0.504-0.554,1.189-0.554,2.052v0.277h2.296
		c0.033,0.081,0.065,0.277,0.065,0.391c0,0.13-0.033,0.325-0.065,0.44h-2.296v7.654c-0.146,0.048-0.31,0.081-0.521,0.081
		c-0.212,0-0.391-0.032-0.537-0.081v-7.654h-3.762v7.654c-0.146,0.048-0.31,0.081-0.521,0.081c-0.212,0-0.391-0.032-0.538-0.081
		v-7.654h-1.466c-0.033-0.082-0.048-0.294-0.048-0.391c0-0.082,0.016-0.261,0.048-0.342l1.466-0.098v-0.277
		c0-1.156,0.196-1.954,0.863-2.622c0.473-0.473,1.173-0.701,1.971-0.701c0.423,0,0.896,0.098,1.188,0.212
		c0.033,0.082,0.048,0.196,0.048,0.31c0,0.098-0.016,0.293-0.048,0.374c-0.244-0.065-0.684-0.13-1.026-0.13
		c-0.618,0-1.075,0.163-1.384,0.505c-0.472,0.504-0.553,1.189-0.553,2.052v0.277H58.11z M68.661,94.145h-5.456
		c0.065,1.873,0.945,3.29,2.98,3.29c0.733,0,1.417-0.099,2.02-0.245c0.032,0.081,0.065,0.245,0.065,0.342
		c0,0.163-0.033,0.31-0.082,0.423c-0.635,0.196-1.433,0.31-2.1,0.31c-1.287,0-2.264-0.407-2.866-1.059
		c-0.716-0.782-1.091-1.955-1.091-3.306c0-2.361,1.189-4.446,3.566-4.446c2.133,0,2.98,1.76,2.98,3.909
		C68.677,93.607,68.677,93.9,68.661,94.145z M67.619,93.363c0-1.498-0.163-3.11-1.971-3.11c-1.579,0-2.345,1.45-2.443,3.11H67.619z
		 M74.245,90.399c-0.945,0.13-1.97,0.473-2.736,1.059v6.645c-0.162,0.048-0.358,0.081-0.537,0.081c-0.179,0-0.358-0.032-0.522-0.081
		v-8.485c0.098-0.033,0.244-0.065,0.408-0.065c0.13,0,0.31,0.032,0.439,0.065l0.082,1.042h0.016c0.7-0.602,1.922-1.107,2.85-1.206
		c0.033,0.099,0.065,0.277,0.065,0.424C74.31,90.041,74.277,90.252,74.245,90.399z M82.5,98.265c-2.133,0-3.501-1.465-3.501-4.397
		c0-2.931,1.384-4.413,3.517-4.413c2.134,0,3.485,1.45,3.485,4.381S84.632,98.265,82.5,98.265z M82.516,90.252
		c-1.563,0-2.41,1.206-2.41,3.599s0.831,3.615,2.394,3.615c1.563,0,2.394-1.222,2.394-3.615S84.079,90.252,82.516,90.252z
		 M94.256,98.118c-0.131,0.033-0.326,0.065-0.521,0.065c-0.163,0-0.375-0.032-0.538-0.081v-5.163c0-0.781-0.098-1.384-0.326-1.807
		c-0.276-0.521-0.798-0.782-1.644-0.782c-0.815,0-1.792,0.457-2.427,0.944v6.808c-0.179,0.048-0.358,0.081-0.553,0.081
		c-0.164,0-0.359-0.032-0.506-0.081v-8.485c0.115-0.049,0.31-0.065,0.424-0.065c0.163,0,0.359,0.016,0.456,0.065l0.081,0.847h0.017
		c0.896-0.733,1.922-1.01,2.752-1.01c0.831,0,1.694,0.277,2.166,0.847c0.521,0.619,0.62,1.515,0.62,2.394V98.118z M102.478,94.145
		h-5.455c0.065,1.873,0.944,3.29,2.98,3.29c0.732,0,1.417-0.099,2.019-0.245c0.033,0.081,0.066,0.245,0.066,0.342
		c0,0.163-0.033,0.31-0.082,0.423c-0.635,0.196-1.433,0.31-2.101,0.31c-1.287,0-2.263-0.407-2.866-1.059
		c-0.716-0.782-1.091-1.955-1.091-3.306c0-2.361,1.188-4.446,3.566-4.446c2.133,0,2.98,1.76,2.98,3.909
		C102.495,93.607,102.495,93.9,102.478,94.145z M101.436,93.363c0-1.498-0.163-3.11-1.971-3.11c-1.58,0-2.344,1.45-2.442,3.11
		H101.436z M110.879,98.265c-2.133,0-3.501-1.465-3.501-4.397c0-2.931,1.384-4.413,3.518-4.413c2.133,0,3.484,1.45,3.484,4.381
		S113.013,98.265,110.879,98.265z M110.896,90.252c-1.563,0-2.411,1.206-2.411,3.599s0.831,3.615,2.394,3.615
		s2.394-1.222,2.394-3.615S112.459,90.252,110.896,90.252z M120.926,86.914c-0.244-0.065-0.684-0.13-1.026-0.13
		c-0.62,0-1.075,0.163-1.385,0.505c-0.472,0.504-0.554,1.189-0.554,2.052v0.277h2.296c0.033,0.081,0.064,0.277,0.064,0.391
		c0,0.13-0.032,0.325-0.064,0.44h-2.296v7.654c-0.146,0.048-0.309,0.081-0.521,0.081c-0.211,0-0.39-0.032-0.537-0.081v-7.654h-1.466
		c-0.033-0.082-0.049-0.294-0.049-0.391c0-0.082,0.016-0.261,0.049-0.342l1.466-0.098v-0.277c0-1.156,0.195-1.954,0.863-2.622
		c0.472-0.473,1.172-0.701,1.97-0.701c0.424,0,0.896,0.098,1.189,0.212c0.032,0.082,0.049,0.196,0.049,0.31
		C120.975,86.638,120.958,86.833,120.926,86.914z M130.272,98.021c-0.424,0.146-1.06,0.244-1.531,0.244
		c-1.613,0-2.377-0.766-2.377-2.573v-5.243h-1.465c-0.033-0.082-0.049-0.277-0.049-0.375c0-0.082,0.017-0.277,0.049-0.358
		l1.465-0.098v-2.215c0.13-0.048,0.342-0.081,0.521-0.081c0.179,0,0.407,0.033,0.537,0.081v2.215h2.394
		c0.033,0.081,0.065,0.325,0.065,0.407c0,0.114-0.033,0.309-0.065,0.424h-2.394v5.146c0,1.287,0.374,1.823,1.383,1.823
		c0.554,0,1.091-0.082,1.467-0.195c0.031,0.082,0.064,0.276,0.064,0.391C130.336,97.76,130.32,97.874,130.272,98.021z
		 M138.364,98.103c-0.146,0.048-0.326,0.081-0.489,0.081c-0.195,0-0.407-0.032-0.57-0.081v-5.146c0-1.792-0.456-2.605-1.969-2.605
		c-0.815,0-1.792,0.457-2.427,0.944v6.808c-0.179,0.048-0.375,0.081-0.553,0.081c-0.164,0-0.358-0.032-0.505-0.081V86.215
		c0.146-0.05,0.374-0.082,0.521-0.082s0.391,0.032,0.538,0.082v4.184c0.864-0.668,1.89-0.945,2.687-0.945
		c0.831,0,1.678,0.277,2.149,0.847c0.522,0.619,0.62,1.515,0.62,2.394V98.103z M146.586,94.145h-5.456
		c0.065,1.873,0.945,3.29,2.98,3.29c0.732,0,1.417-0.099,2.019-0.245c0.033,0.081,0.067,0.245,0.067,0.342
		c0,0.163-0.034,0.31-0.083,0.423c-0.635,0.196-1.433,0.31-2.101,0.31c-1.286,0-2.262-0.407-2.865-1.059
		c-0.716-0.782-1.091-1.955-1.091-3.306c0-2.361,1.189-4.446,3.566-4.446c2.133,0,2.98,1.76,2.98,3.909
		C146.603,93.607,146.603,93.9,146.586,94.145z M145.543,93.363c0-1.498-0.162-3.11-1.97-3.11c-1.58,0-2.345,1.45-2.443,3.11
		H145.543z M153.05,98.103c-0.18,0.048-0.358,0.081-0.554,0.081c-0.163,0-0.358-0.032-0.505-0.081V86.215
		c0.146-0.033,0.325-0.082,0.538-0.082c0.179,0,0.374,0.032,0.521,0.082V98.103z M161.094,96.018c0,0.586,0,1.318,0.032,2.085
		c-0.113,0.048-0.293,0.081-0.439,0.081c-0.131,0-0.31-0.032-0.439-0.081c-0.05-0.261-0.082-0.604-0.099-0.913h-0.017
		c-0.554,0.684-1.53,1.075-2.491,1.075c-1.514,0-2.784-0.847-2.784-2.589c0-0.993,0.407-1.726,1.042-2.182
		c0.717-0.504,1.661-0.668,2.671-0.668c0.569,0,1.042,0.033,1.466,0.099v-0.473c0-1.628-0.669-2.166-2.036-2.166
		c-0.766,0-1.71,0.164-2.296,0.31c-0.033-0.082-0.064-0.261-0.064-0.424c0-0.114,0.031-0.277,0.08-0.375
		c0.701-0.212,1.629-0.343,2.411-0.343c1.938,0,2.964,0.88,2.964,2.867V96.018z M160.035,93.721
		c-0.473-0.065-0.961-0.098-1.385-0.098c-0.798,0-1.514,0.146-2.003,0.521c-0.439,0.326-0.684,0.847-0.684,1.515
		c0,1.189,0.765,1.758,1.823,1.758c0.881,0,1.809-0.423,2.248-1.09V93.721z M167.134,90.399c-0.945,0.13-1.97,0.473-2.735,1.059
		v6.645c-0.163,0.048-0.358,0.081-0.538,0.081c-0.179,0-0.358-0.032-0.521-0.081v-8.485c0.1-0.033,0.244-0.065,0.408-0.065
		c0.13,0,0.309,0.032,0.439,0.065l0.082,1.042h0.015c0.701-0.602,1.922-1.107,2.851-1.206c0.032,0.099,0.064,0.277,0.064,0.424
		C167.198,90.041,167.166,90.252,167.134,90.399z M174.491,96.685c0,1.221-0.063,2.687-0.65,3.696
		c-0.699,1.205-1.954,1.726-3.209,1.726c-0.716,0-1.335-0.081-1.856-0.26c-0.049-0.099-0.064-0.261-0.064-0.391
		c0-0.098,0.033-0.294,0.064-0.391c0.506,0.13,1.091,0.229,1.678,0.229c2.053,0,2.979-1.271,2.979-3.501v-0.685
		c-0.634,0.668-1.529,0.995-2.263,0.995c-2.166,0-3.291-1.678-3.291-4.039c0-2.899,1.713-4.609,4.235-4.609
		c0.668,0,1.678,0.196,2.377,0.473V96.685z M173.433,90.449c-0.587-0.164-1.009-0.212-1.416-0.212c-2.066,0-3.044,1.743-3.044,3.778
		c0,1.807,0.682,3.224,2.278,3.224c0.814,0,1.645-0.407,2.182-0.976V90.449z M182.762,94.145h-5.454
		c0.066,1.873,0.944,3.29,2.98,3.29c0.732,0,1.417-0.099,2.019-0.245c0.034,0.081,0.065,0.245,0.065,0.342
		c0,0.163-0.031,0.31-0.081,0.423c-0.636,0.196-1.434,0.31-2.102,0.31c-1.287,0-2.262-0.407-2.865-1.059
		c-0.717-0.782-1.091-1.955-1.091-3.306c0-2.361,1.188-4.446,3.566-4.446c2.133,0,2.98,1.76,2.98,3.909
		C182.78,93.607,182.78,93.9,182.762,94.145z M181.722,93.363c0-1.498-0.164-3.11-1.972-3.11c-1.578,0-2.345,1.45-2.442,3.11
		H181.722z M186.442,98.265c-0.815,0-1.66-0.146-2.248-0.374c-0.047-0.115-0.081-0.31-0.081-0.456c0-0.099,0.034-0.342,0.065-0.44
		c0.604,0.244,1.466,0.44,2.183,0.44c1.237,0,2.002-0.521,2.002-1.548c0-0.928-0.473-1.254-1.759-1.726
		c-1.79-0.651-2.376-1.401-2.376-2.508c0-1.498,1.236-2.199,2.833-2.199c0.537,0,1.237,0.099,1.645,0.229
		c0.049,0.146,0.065,0.292,0.065,0.391c0,0.13-0.033,0.358-0.065,0.472c-0.538-0.163-1.107-0.261-1.662-0.261
		c-1.155,0-1.856,0.44-1.856,1.335c0,0.782,0.439,1.156,1.775,1.661c1.224,0.457,2.345,0.913,2.345,2.557
		C189.308,97.499,188.055,98.265,186.442,98.265z M195.396,98.021c-0.424,0.146-1.059,0.244-1.53,0.244
		c-1.612,0-2.378-0.766-2.378-2.573v-5.243h-1.466c-0.032-0.082-0.049-0.277-0.049-0.375c0-0.082,0.017-0.277,0.049-0.358
		l1.466-0.098v-2.215c0.13-0.048,0.343-0.081,0.522-0.081c0.179,0,0.405,0.033,0.535,0.081v2.215h2.395
		c0.032,0.081,0.066,0.325,0.066,0.407c0,0.114-0.034,0.309-0.066,0.424h-2.395v5.146c0,1.287,0.377,1.823,1.386,1.823
		c0.554,0,1.091-0.082,1.465-0.195c0.032,0.082,0.065,0.276,0.065,0.391C195.461,97.76,195.445,97.874,195.396,98.021z
		 M210.425,91.294l-2.181,6.808c-0.131,0.048-0.377,0.081-0.507,0.081c-0.146,0-0.39-0.032-0.505-0.081l-1.952-6.58h-0.034
		l-2.05,6.58c-0.147,0.048-0.377,0.081-0.506,0.081c-0.131,0-0.342-0.032-0.489-0.081l-2.02-6.709
		c-0.179-0.554-0.26-1.189-0.275-1.792c0.129-0.033,0.39-0.065,0.552-0.065c0.18,0,0.344,0.033,0.488,0.082
		c0.018,0.586,0.116,1.205,0.262,1.743l1.482,5.292h0.017l2.117-7.051c0.112-0.033,0.34-0.049,0.456-0.049
		c0.113,0,0.357,0.016,0.455,0.049l2.002,7.051h0.018l1.628-5.276c0.179-0.602,0.31-1.172,0.342-1.758
		c0.114-0.049,0.391-0.082,0.537-0.082c0.147,0,0.375,0.033,0.474,0.082C210.735,90.171,210.604,90.725,210.425,91.294z
		 M215.243,98.265c-2.133,0-3.502-1.465-3.502-4.397c0-2.931,1.386-4.413,3.519-4.413c2.134,0,3.485,1.45,3.485,4.381
		S217.377,98.265,215.243,98.265z M215.26,90.252c-1.563,0-2.411,1.206-2.411,3.599s0.832,3.615,2.395,3.615
		c1.563,0,2.393-1.222,2.393-3.615S216.824,90.252,215.26,90.252z M224.279,90.399c-0.943,0.13-1.97,0.473-2.734,1.059v6.645
		c-0.163,0.048-0.358,0.081-0.537,0.081c-0.18,0-0.359-0.032-0.521-0.081v-8.485c0.098-0.033,0.244-0.065,0.407-0.065
		c0.13,0,0.309,0.032,0.438,0.065l0.082,1.042h0.015c0.701-0.602,1.923-1.107,2.851-1.206c0.032,0.099,0.065,0.277,0.065,0.424
		C224.345,90.041,224.312,90.252,224.279,90.399z M232.178,98.103c-0.116,0.032-0.358,0.081-0.537,0.081
		c-0.18,0-0.439-0.032-0.651-0.081l-2.769-4.365l-1.238,1.156v3.209c-0.163,0.048-0.375,0.081-0.569,0.081
		c-0.129,0-0.343-0.032-0.489-0.081V86.215c0.146-0.05,0.326-0.082,0.537-0.082c0.195,0,0.358,0.032,0.521,0.082v7.441l2.753-2.574
		c0.585-0.553,0.878-1.042,0.959-1.465c0.115-0.049,0.358-0.082,0.507-0.082c0.146,0,0.373,0.033,0.471,0.082
		c-0.065,0.602-0.439,1.335-1.188,2.02l-1.515,1.4L232.178,98.103z M235.742,93.428c0.031,0.082,0.081,0.293,0.081,0.423
		s-0.031,0.31-0.081,0.439h-3.175c-0.048-0.13-0.083-0.309-0.083-0.439s0.049-0.341,0.083-0.423H235.742z M240.187,98.265
		c-0.749,0-1.71-0.114-2.605-0.44v-11.61c0.116-0.033,0.358-0.082,0.506-0.082c0.261,0,0.455,0.049,0.553,0.082v4.119
		c0.668-0.553,1.515-0.88,2.411-0.88c2.295,0,3.256,1.971,3.256,4.169C244.307,96.424,242.874,98.265,240.187,98.265z
		 M240.902,90.367c-0.812,0-1.627,0.342-2.263,0.977v5.846c0.44,0.163,0.994,0.26,1.465,0.26c2.265,0,3.096-1.726,3.096-3.761
		C243.2,92.109,242.744,90.367,240.902,90.367z M251.862,96.018c0,0.586,0,1.318,0.032,2.085c-0.114,0.048-0.292,0.081-0.439,0.081
		c-0.13,0-0.31-0.032-0.438-0.081c-0.05-0.261-0.082-0.604-0.1-0.913h-0.016c-0.554,0.684-1.531,1.075-2.492,1.075
		c-1.513,0-2.783-0.847-2.783-2.589c0-0.993,0.405-1.726,1.041-2.182c0.717-0.504,1.662-0.668,2.672-0.668
		c0.569,0,1.04,0.033,1.464,0.099v-0.473c0-1.628-0.666-2.166-2.035-2.166c-0.765,0-1.709,0.164-2.297,0.31
		c-0.031-0.082-0.063-0.261-0.063-0.424c0-0.114,0.032-0.277,0.081-0.375c0.7-0.212,1.628-0.343,2.41-0.343
		c1.938,0,2.964,0.88,2.964,2.867V96.018z M250.803,93.721c-0.472-0.065-0.961-0.098-1.383-0.098c-0.798,0-1.515,0.146-2.003,0.521
		c-0.439,0.326-0.685,0.847-0.685,1.515c0,1.189,0.765,1.758,1.823,1.758c0.88,0,1.808-0.423,2.247-1.09V93.721z M255.997,98.265
		c-0.813,0-1.661-0.146-2.246-0.374c-0.05-0.115-0.082-0.31-0.082-0.456c0-0.099,0.032-0.342,0.063-0.44
		c0.604,0.244,1.467,0.44,2.184,0.44c1.236,0,2.003-0.521,2.003-1.548c0-0.928-0.472-1.254-1.76-1.726
		c-1.79-0.651-2.377-1.401-2.377-2.508c0-1.498,1.237-2.199,2.833-2.199c0.537,0,1.237,0.099,1.646,0.229
		c0.049,0.146,0.064,0.292,0.064,0.391c0,0.13-0.033,0.358-0.064,0.472c-0.538-0.163-1.108-0.261-1.661-0.261
		c-1.157,0-1.855,0.44-1.855,1.335c0,0.782,0.439,1.156,1.772,1.661c1.224,0.457,2.346,0.913,2.346,2.557
		C258.862,97.499,257.61,98.265,255.997,98.265z M266.646,94.145h-5.456c0.065,1.873,0.943,3.29,2.98,3.29
		c0.732,0,1.417-0.099,2.02-0.245c0.032,0.081,0.064,0.245,0.064,0.342c0,0.163-0.032,0.31-0.082,0.423
		c-0.635,0.196-1.432,0.31-2.099,0.31c-1.286,0-2.264-0.407-2.868-1.059c-0.716-0.782-1.09-1.955-1.09-3.306
		c0-2.361,1.188-4.446,3.566-4.446c2.132,0,2.979,1.76,2.979,3.909C266.662,93.607,266.662,93.9,266.646,94.145z M265.604,93.363
		c0-1.498-0.162-3.11-1.971-3.11c-1.579,0-2.345,1.45-2.442,3.11H265.604z M274.282,98.183c-0.146,0-0.326-0.049-0.423-0.081
		l-0.097-0.978h-0.019c-0.699,0.733-1.53,1.14-2.458,1.14c-2.248,0-3.322-1.872-3.322-4.153c0-2.263,0.962-4.658,3.551-4.658
		c0.813,0,1.562,0.277,2.165,0.701v-3.94c0.146-0.05,0.343-0.082,0.522-0.082c0.194,0,0.39,0.049,0.537,0.082v11.888
		C274.623,98.151,274.461,98.183,274.282,98.183z M273.68,91.051c-0.586-0.488-1.334-0.732-2.101-0.732
		c-1.89,0-2.524,1.856-2.524,3.745c0,1.449,0.456,3.338,2.28,3.338c0.879,0,1.774-0.44,2.345-1.124V91.051z"/>
	<text transform="matrix(1 0 0 1 18.0566 114.3848)" style="display:inline;"><tspan x="0" y="0" style="fill:#58595B; font-family:'FSMatthew-Light'; font-size:16.282;">learning p</tspan><tspan x="65.843" y="0" style="fill:#58595B; font-family:'FSMatthew-Light'; font-size:16.282;">r</tspan><tspan x="70.858" y="0" style="fill:#58595B; font-family:'FSMatthew-Light'; font-size:16.282;">og</tspan><tspan x="87.481" y="0" style="fill:#58595B; font-family:'FSMatthew-Light'; font-size:16.282;">r</tspan><tspan x="92.415" y="0" style="fill:#58595B; font-family:'FSMatthew-Light'; font-size:16.282;">ammes in the U</tspan><tspan x="198.214" y="0" style="fill:#58595B; font-family:'FSMatthew-Light'; font-size:16.282;">K</tspan><tspan x="207.331" y="0" style="fill:#58595B; font-family:'FSMatthew-Light'; font-size:16.282;">, with</tspan></text>
	
		<text transform="matrix(1 0 0 1 18.0566 154.3506)" style="display:inline;fill:#B3A068; font-family:'FSMatthew-Bold'; font-size:48.8461;"> </text>
	
		<text transform="matrix(1 0 0 1 18.0566 164.7119)" style="display:inline;fill:#58595B; font-family:'FSMatthew-Light'; font-size:16.282;"> </text>
	<text transform="matrix(1 0 0 1 18.0566 194.3115)" style="display:inline;"><tspan x="0" y="0" style="fill:#58595B; font-family:'FSMatthew-Light'; font-size:16.282;">of our </tspan><tspan x="43.619" y="0" style="fill:#58595B; font-family:'FSMatthew-Light'; font-size:16.282;">s</tspan><tspan x="49.969" y="0" style="fill:#58595B; font-family:'FSMatthew-Light'; font-size:16.282;">t</tspan><tspan x="55.814" y="0" style="fill:#58595B; font-family:'FSMatthew-Light'; font-size:16.282;">udents beneﬁ</tspan><tspan x="146.943" y="0" style="fill:#58595B; font-family:'FSMatthew-Light'; font-size:16.282;">t</tspan><tspan x="152.87" y="0" style="fill:#58595B; font-family:'FSMatthew-Light'; font-size:16.282;">ting </tspan><tspan x="182.975" y="0" style="fill:#58595B; font-family:'FSMatthew-Light'; font-size:16.282;">f</tspan><tspan x="188.592" y="0" style="fill:#58595B; font-family:'FSMatthew-Light'; font-size:16.282;">r</tspan><tspan x="193.623" y="0" style="fill:#58595B; font-family:'FSMatthew-Light'; font-size:16.282;">om</tspan></text>
	<text transform="matrix(1 0 0 1 18.0566 210.5928)" style="display:inline;"><tspan x="0" y="0" style="fill:#58595B; font-family:'FSMatthew-Light'; font-size:16.282;">indu</tspan><tspan x="29.014" y="0" style="fill:#58595B; font-family:'FSMatthew-Light'; font-size:16.282;">s</tspan><tspan x="35.364" y="0" style="fill:#58595B; font-family:'FSMatthew-Light'; font-size:16.282;">try experience e</tspan><tspan x="142.954" y="0" style="fill:#58595B; font-family:'FSMatthew-Light'; font-size:16.282;">v</tspan><tspan x="150.525" y="0" style="fill:#58595B; font-family:'FSMatthew-Light'; font-size:16.282;">ery year</tspan></text>
	<text transform="matrix(1 0 0 1 11.7627 168.2676)" style="display:inline;"><tspan x="0" y="0" style="fill:#B3A068; font-family:'FSMatthew-Bold'; font-size:57.7273; letter-spacing:-2;">O</tspan><tspan x="35.155" y="0" style="fill:#B3A068; font-family:'FSMatthew-Bold'; font-size:57.7273; letter-spacing:-1;">VER</tspan><tspan x="131.04" y="0" style="fill:#B3A068; font-family:'FSMatthew-Bold'; font-size:57.7273; letter-spacing:-2;"> </tspan><tspan x="141.719" y="0" style="fill:#B3A068; font-family:'FSMatthew-Bold'; font-size:57.7273; letter-spacing:-1;">2</tspan><tspan x="171.679" y="0" style="fill:#B3A068; font-family:'FSMatthew-Bold'; font-size:57.7273; letter-spacing:-2;">,</tspan><tspan x="183.974" y="0" style="fill:#B3A068; font-family:'FSMatthew-Bold'; font-size:57.7273; letter-spacing:-1;">00</tspan><tspan x="243.894" y="0" style="fill:#B3A068; font-family:'FSMatthew-Bold'; font-size:57.7273;">0</tspan></text>
</g>
<g id="Text_Flat">
	<path style="fill:#58595B;" d="M25.318,90.204c-0.131-0.521-0.229-0.994-0.294-1.465c-0.081,0.456-0.179,0.895-0.326,1.449
		l-2.018,7.915c-0.164,0.048-0.424,0.081-0.652,0.081c-0.228,0-0.537-0.016-0.7-0.081l-2.377-8.257
		c-0.277-0.912-0.391-1.84-0.407-2.752c0.162-0.048,0.407-0.081,0.569-0.081c0.179,0,0.342,0.033,0.538,0.081
		c0.016,0.863,0.114,1.694,0.342,2.524l1.677,5.959c0.082,0.31,0.31,1.141,0.375,1.483c0.033-0.326,0.195-1.042,0.309-1.499
		l2.134-8.468c0.146-0.048,0.357-0.081,0.52-0.081c0.179,0,0.407,0.048,0.522,0.081l2.133,8.452
		c0.114,0.423,0.261,1.058,0.374,1.531c0.114-0.473,0.277-1.124,0.408-1.596l1.66-5.862c0.228-0.83,0.358-1.662,0.375-2.524
		c0.162-0.048,0.341-0.081,0.538-0.081c0.162,0,0.407,0.033,0.537,0.081c-0.016,0.847-0.13,1.743-0.407,2.688l-2.395,8.322
		c-0.179,0.048-0.553,0.081-0.732,0.081c-0.164,0-0.456-0.032-0.651-0.081L25.318,90.204z M38.865,94.145H33.41
		c0.065,1.873,0.944,3.29,2.979,3.29c0.733,0,1.417-0.099,2.02-0.245c0.033,0.081,0.065,0.245,0.065,0.342
		c0,0.163-0.033,0.31-0.082,0.423c-0.634,0.196-1.433,0.31-2.101,0.31c-1.286,0-2.263-0.407-2.866-1.059
		c-0.716-0.782-1.091-1.955-1.091-3.306c0-2.361,1.188-4.446,3.566-4.446c2.134,0,2.98,1.76,2.98,3.909
		C38.881,93.607,38.881,93.9,38.865,94.145z M37.822,93.363c0-1.498-0.163-3.11-1.971-3.11c-1.579,0-2.345,1.45-2.442,3.11H37.822z
		 M47.265,98.265c-2.133,0-3.501-1.465-3.501-4.397c0-2.931,1.384-4.413,3.518-4.413c2.133,0,3.485,1.45,3.485,4.381
		S49.399,98.265,47.265,98.265z M47.282,90.252c-1.563,0-2.411,1.206-2.411,3.599s0.83,3.615,2.394,3.615s2.395-1.222,2.395-3.615
		S48.845,90.252,47.282,90.252z M58.11,89.618v-0.277c0-1.156,0.195-1.954,0.863-2.622c0.472-0.473,1.172-0.701,1.97-0.701
		c0.423,0,0.896,0.098,1.189,0.212c0.032,0.082,0.048,0.196,0.048,0.31c0,0.098-0.016,0.293-0.048,0.374
		c-0.244-0.065-0.685-0.13-1.026-0.13c-0.619,0-1.075,0.163-1.384,0.505c-0.472,0.504-0.554,1.189-0.554,2.052v0.277h2.296
		c0.033,0.081,0.065,0.277,0.065,0.391c0,0.13-0.033,0.325-0.065,0.44h-2.296v7.654c-0.146,0.048-0.31,0.081-0.521,0.081
		c-0.212,0-0.391-0.032-0.537-0.081v-7.654h-3.762v7.654c-0.146,0.048-0.31,0.081-0.521,0.081c-0.212,0-0.391-0.032-0.538-0.081
		v-7.654h-1.466c-0.033-0.082-0.048-0.294-0.048-0.391c0-0.082,0.016-0.261,0.048-0.342l1.466-0.098v-0.277
		c0-1.156,0.196-1.954,0.863-2.622c0.473-0.473,1.173-0.701,1.971-0.701c0.423,0,0.896,0.098,1.188,0.212
		c0.033,0.082,0.048,0.196,0.048,0.31c0,0.098-0.016,0.293-0.048,0.374c-0.244-0.065-0.684-0.13-1.026-0.13
		c-0.618,0-1.075,0.163-1.384,0.505c-0.472,0.504-0.553,1.189-0.553,2.052v0.277H58.11z M68.661,94.145h-5.456
		c0.065,1.873,0.945,3.29,2.98,3.29c0.733,0,1.417-0.099,2.02-0.245c0.032,0.081,0.065,0.245,0.065,0.342
		c0,0.163-0.033,0.31-0.082,0.423c-0.635,0.196-1.433,0.31-2.1,0.31c-1.287,0-2.264-0.407-2.866-1.059
		c-0.716-0.782-1.091-1.955-1.091-3.306c0-2.361,1.189-4.446,3.566-4.446c2.133,0,2.98,1.76,2.98,3.909
		C68.677,93.607,68.677,93.9,68.661,94.145z M67.619,93.363c0-1.498-0.163-3.11-1.971-3.11c-1.579,0-2.345,1.45-2.443,3.11H67.619z
		 M74.245,90.399c-0.945,0.13-1.97,0.473-2.736,1.059v6.645c-0.162,0.048-0.358,0.081-0.537,0.081c-0.179,0-0.358-0.032-0.522-0.081
		v-8.485c0.098-0.033,0.244-0.065,0.408-0.065c0.13,0,0.31,0.032,0.439,0.065l0.082,1.042h0.016c0.7-0.602,1.922-1.107,2.85-1.206
		c0.033,0.099,0.065,0.277,0.065,0.424C74.31,90.041,74.277,90.252,74.245,90.399z M82.5,98.265c-2.133,0-3.501-1.465-3.501-4.397
		c0-2.931,1.384-4.413,3.517-4.413c2.134,0,3.485,1.45,3.485,4.381S84.632,98.265,82.5,98.265z M82.516,90.252
		c-1.563,0-2.41,1.206-2.41,3.599s0.831,3.615,2.394,3.615c1.563,0,2.394-1.222,2.394-3.615S84.079,90.252,82.516,90.252z
		 M94.256,98.118c-0.131,0.033-0.326,0.065-0.521,0.065c-0.163,0-0.375-0.032-0.538-0.081v-5.163c0-0.781-0.098-1.384-0.326-1.807
		c-0.276-0.521-0.798-0.782-1.644-0.782c-0.815,0-1.792,0.457-2.427,0.944v6.808c-0.179,0.048-0.358,0.081-0.553,0.081
		c-0.164,0-0.359-0.032-0.506-0.081v-8.485c0.115-0.049,0.31-0.065,0.424-0.065c0.163,0,0.359,0.016,0.456,0.065l0.081,0.847h0.017
		c0.896-0.733,1.922-1.01,2.752-1.01c0.831,0,1.694,0.277,2.166,0.847c0.521,0.619,0.62,1.515,0.62,2.394V98.118z M102.478,94.145
		h-5.455c0.065,1.873,0.944,3.29,2.98,3.29c0.732,0,1.417-0.099,2.019-0.245c0.033,0.081,0.066,0.245,0.066,0.342
		c0,0.163-0.033,0.31-0.082,0.423c-0.635,0.196-1.433,0.31-2.101,0.31c-1.287,0-2.263-0.407-2.866-1.059
		c-0.716-0.782-1.091-1.955-1.091-3.306c0-2.361,1.188-4.446,3.566-4.446c2.133,0,2.98,1.76,2.98,3.909
		C102.495,93.607,102.495,93.9,102.478,94.145z M101.436,93.363c0-1.498-0.163-3.11-1.971-3.11c-1.58,0-2.344,1.45-2.442,3.11
		H101.436z M110.879,98.265c-2.133,0-3.501-1.465-3.501-4.397c0-2.931,1.384-4.413,3.518-4.413c2.133,0,3.484,1.45,3.484,4.381
		S113.013,98.265,110.879,98.265z M110.896,90.252c-1.563,0-2.411,1.206-2.411,3.599s0.831,3.615,2.394,3.615
		s2.394-1.222,2.394-3.615S112.459,90.252,110.896,90.252z M120.926,86.914c-0.244-0.065-0.684-0.13-1.026-0.13
		c-0.62,0-1.075,0.163-1.385,0.505c-0.472,0.504-0.554,1.189-0.554,2.052v0.277h2.296c0.033,0.081,0.064,0.277,0.064,0.391
		c0,0.13-0.032,0.325-0.064,0.44h-2.296v7.654c-0.146,0.048-0.309,0.081-0.521,0.081c-0.211,0-0.39-0.032-0.537-0.081v-7.654h-1.466
		c-0.033-0.082-0.049-0.294-0.049-0.391c0-0.082,0.016-0.261,0.049-0.342l1.466-0.098v-0.277c0-1.156,0.195-1.954,0.863-2.622
		c0.472-0.473,1.172-0.701,1.97-0.701c0.424,0,0.896,0.098,1.189,0.212c0.032,0.082,0.049,0.196,0.049,0.31
		C120.975,86.638,120.958,86.833,120.926,86.914z M130.272,98.021c-0.424,0.146-1.06,0.244-1.531,0.244
		c-1.613,0-2.377-0.766-2.377-2.573v-5.243h-1.465c-0.033-0.082-0.049-0.277-0.049-0.375c0-0.082,0.017-0.277,0.049-0.358
		l1.465-0.098v-2.215c0.13-0.048,0.342-0.081,0.521-0.081c0.179,0,0.407,0.033,0.537,0.081v2.215h2.394
		c0.033,0.081,0.065,0.325,0.065,0.407c0,0.114-0.033,0.309-0.065,0.424h-2.394v5.146c0,1.287,0.374,1.823,1.383,1.823
		c0.554,0,1.091-0.082,1.467-0.195c0.031,0.082,0.064,0.276,0.064,0.391C130.336,97.76,130.32,97.874,130.272,98.021z
		 M138.364,98.103c-0.146,0.048-0.326,0.081-0.489,0.081c-0.195,0-0.407-0.032-0.57-0.081v-5.146c0-1.792-0.456-2.605-1.969-2.605
		c-0.815,0-1.792,0.457-2.427,0.944v6.808c-0.179,0.048-0.375,0.081-0.553,0.081c-0.164,0-0.358-0.032-0.505-0.081V86.215
		c0.146-0.05,0.374-0.082,0.521-0.082s0.391,0.032,0.538,0.082v4.184c0.864-0.668,1.89-0.945,2.687-0.945
		c0.831,0,1.678,0.277,2.149,0.847c0.522,0.619,0.62,1.515,0.62,2.394V98.103z M146.586,94.145h-5.456
		c0.065,1.873,0.945,3.29,2.98,3.29c0.732,0,1.417-0.099,2.019-0.245c0.033,0.081,0.067,0.245,0.067,0.342
		c0,0.163-0.034,0.31-0.083,0.423c-0.635,0.196-1.433,0.31-2.101,0.31c-1.286,0-2.262-0.407-2.865-1.059
		c-0.716-0.782-1.091-1.955-1.091-3.306c0-2.361,1.189-4.446,3.566-4.446c2.133,0,2.98,1.76,2.98,3.909
		C146.603,93.607,146.603,93.9,146.586,94.145z M145.543,93.363c0-1.498-0.162-3.11-1.97-3.11c-1.58,0-2.345,1.45-2.443,3.11
		H145.543z M153.05,98.103c-0.18,0.048-0.358,0.081-0.554,0.081c-0.163,0-0.358-0.032-0.505-0.081V86.215
		c0.146-0.033,0.325-0.082,0.538-0.082c0.179,0,0.374,0.032,0.521,0.082V98.103z M161.094,96.018c0,0.586,0,1.318,0.032,2.085
		c-0.113,0.048-0.293,0.081-0.439,0.081c-0.131,0-0.31-0.032-0.439-0.081c-0.05-0.261-0.082-0.604-0.099-0.913h-0.017
		c-0.554,0.684-1.53,1.075-2.491,1.075c-1.514,0-2.784-0.847-2.784-2.589c0-0.993,0.407-1.726,1.042-2.182
		c0.717-0.504,1.661-0.668,2.671-0.668c0.569,0,1.042,0.033,1.466,0.099v-0.473c0-1.628-0.669-2.166-2.036-2.166
		c-0.766,0-1.71,0.164-2.296,0.31c-0.033-0.082-0.064-0.261-0.064-0.424c0-0.114,0.031-0.277,0.08-0.375
		c0.701-0.212,1.629-0.343,2.411-0.343c1.938,0,2.964,0.88,2.964,2.867V96.018z M160.035,93.721
		c-0.473-0.065-0.961-0.098-1.385-0.098c-0.798,0-1.514,0.146-2.003,0.521c-0.439,0.326-0.684,0.847-0.684,1.515
		c0,1.189,0.765,1.758,1.823,1.758c0.881,0,1.809-0.423,2.248-1.09V93.721z M167.134,90.399c-0.945,0.13-1.97,0.473-2.735,1.059
		v6.645c-0.163,0.048-0.358,0.081-0.538,0.081c-0.179,0-0.358-0.032-0.521-0.081v-8.485c0.1-0.033,0.244-0.065,0.408-0.065
		c0.13,0,0.309,0.032,0.439,0.065l0.082,1.042h0.015c0.701-0.602,1.922-1.107,2.851-1.206c0.032,0.099,0.064,0.277,0.064,0.424
		C167.198,90.041,167.166,90.252,167.134,90.399z M174.491,96.685c0,1.221-0.063,2.687-0.65,3.696
		c-0.699,1.205-1.954,1.726-3.209,1.726c-0.716,0-1.335-0.081-1.856-0.26c-0.049-0.099-0.064-0.261-0.064-0.391
		c0-0.098,0.033-0.294,0.064-0.391c0.506,0.13,1.091,0.229,1.678,0.229c2.053,0,2.979-1.271,2.979-3.501v-0.685
		c-0.634,0.668-1.529,0.995-2.263,0.995c-2.166,0-3.291-1.678-3.291-4.039c0-2.899,1.713-4.609,4.235-4.609
		c0.668,0,1.678,0.196,2.377,0.473V96.685z M173.433,90.449c-0.587-0.164-1.009-0.212-1.416-0.212c-2.066,0-3.044,1.743-3.044,3.778
		c0,1.807,0.682,3.224,2.278,3.224c0.814,0,1.645-0.407,2.182-0.976V90.449z M182.762,94.145h-5.454
		c0.066,1.873,0.944,3.29,2.98,3.29c0.732,0,1.417-0.099,2.019-0.245c0.034,0.081,0.065,0.245,0.065,0.342
		c0,0.163-0.031,0.31-0.081,0.423c-0.636,0.196-1.434,0.31-2.102,0.31c-1.287,0-2.262-0.407-2.865-1.059
		c-0.717-0.782-1.091-1.955-1.091-3.306c0-2.361,1.188-4.446,3.566-4.446c2.133,0,2.98,1.76,2.98,3.909
		C182.78,93.607,182.78,93.9,182.762,94.145z M181.722,93.363c0-1.498-0.164-3.11-1.972-3.11c-1.578,0-2.345,1.45-2.442,3.11
		H181.722z M186.442,98.265c-0.815,0-1.66-0.146-2.248-0.374c-0.047-0.115-0.081-0.31-0.081-0.456c0-0.099,0.034-0.342,0.065-0.44
		c0.604,0.244,1.466,0.44,2.183,0.44c1.237,0,2.002-0.521,2.002-1.548c0-0.928-0.473-1.254-1.759-1.726
		c-1.79-0.651-2.376-1.401-2.376-2.508c0-1.498,1.236-2.199,2.833-2.199c0.537,0,1.237,0.099,1.645,0.229
		c0.049,0.146,0.065,0.292,0.065,0.391c0,0.13-0.033,0.358-0.065,0.472c-0.538-0.163-1.107-0.261-1.662-0.261
		c-1.155,0-1.856,0.44-1.856,1.335c0,0.782,0.439,1.156,1.775,1.661c1.224,0.457,2.345,0.913,2.345,2.557
		C189.308,97.499,188.055,98.265,186.442,98.265z M195.396,98.021c-0.424,0.146-1.059,0.244-1.53,0.244
		c-1.612,0-2.378-0.766-2.378-2.573v-5.243h-1.466c-0.032-0.082-0.049-0.277-0.049-0.375c0-0.082,0.017-0.277,0.049-0.358
		l1.466-0.098v-2.215c0.13-0.048,0.343-0.081,0.522-0.081c0.179,0,0.405,0.033,0.535,0.081v2.215h2.395
		c0.032,0.081,0.066,0.325,0.066,0.407c0,0.114-0.034,0.309-0.066,0.424h-2.395v5.146c0,1.287,0.377,1.823,1.386,1.823
		c0.554,0,1.091-0.082,1.465-0.195c0.032,0.082,0.065,0.276,0.065,0.391C195.461,97.76,195.445,97.874,195.396,98.021z
		 M210.425,91.294l-2.181,6.808c-0.131,0.048-0.377,0.081-0.507,0.081c-0.146,0-0.39-0.032-0.505-0.081l-1.952-6.58h-0.034
		l-2.05,6.58c-0.147,0.048-0.377,0.081-0.506,0.081c-0.131,0-0.342-0.032-0.489-0.081l-2.02-6.709
		c-0.179-0.554-0.26-1.189-0.275-1.792c0.129-0.033,0.39-0.065,0.552-0.065c0.18,0,0.344,0.033,0.488,0.082
		c0.018,0.586,0.116,1.205,0.262,1.743l1.482,5.292h0.017l2.117-7.051c0.112-0.033,0.34-0.049,0.456-0.049
		c0.113,0,0.357,0.016,0.455,0.049l2.002,7.051h0.018l1.628-5.276c0.179-0.602,0.31-1.172,0.342-1.758
		c0.114-0.049,0.391-0.082,0.537-0.082c0.147,0,0.375,0.033,0.474,0.082C210.735,90.171,210.604,90.725,210.425,91.294z
		 M215.243,98.265c-2.133,0-3.502-1.465-3.502-4.397c0-2.931,1.386-4.413,3.519-4.413c2.134,0,3.485,1.45,3.485,4.381
		S217.377,98.265,215.243,98.265z M215.26,90.252c-1.563,0-2.411,1.206-2.411,3.599s0.832,3.615,2.395,3.615
		c1.563,0,2.393-1.222,2.393-3.615S216.824,90.252,215.26,90.252z M224.279,90.399c-0.943,0.13-1.97,0.473-2.734,1.059v6.645
		c-0.163,0.048-0.358,0.081-0.537,0.081c-0.18,0-0.359-0.032-0.521-0.081v-8.485c0.098-0.033,0.244-0.065,0.407-0.065
		c0.13,0,0.309,0.032,0.438,0.065l0.082,1.042h0.015c0.701-0.602,1.923-1.107,2.851-1.206c0.032,0.099,0.065,0.277,0.065,0.424
		C224.345,90.041,224.312,90.252,224.279,90.399z M232.178,98.103c-0.116,0.032-0.358,0.081-0.537,0.081
		c-0.18,0-0.439-0.032-0.651-0.081l-2.769-4.365l-1.238,1.156v3.209c-0.163,0.048-0.375,0.081-0.569,0.081
		c-0.129,0-0.343-0.032-0.489-0.081V86.215c0.146-0.05,0.326-0.082,0.537-0.082c0.195,0,0.358,0.032,0.521,0.082v7.441l2.753-2.574
		c0.585-0.553,0.878-1.042,0.959-1.465c0.115-0.049,0.358-0.082,0.507-0.082c0.146,0,0.373,0.033,0.471,0.082
		c-0.065,0.602-0.439,1.335-1.188,2.02l-1.515,1.4L232.178,98.103z M235.742,93.428c0.031,0.082,0.081,0.293,0.081,0.423
		s-0.031,0.31-0.081,0.439h-3.175c-0.048-0.13-0.083-0.309-0.083-0.439s0.049-0.341,0.083-0.423H235.742z M240.187,98.265
		c-0.749,0-1.71-0.114-2.605-0.44v-11.61c0.116-0.033,0.358-0.082,0.506-0.082c0.261,0,0.455,0.049,0.553,0.082v4.119
		c0.668-0.553,1.515-0.88,2.411-0.88c2.295,0,3.256,1.971,3.256,4.169C244.307,96.424,242.874,98.265,240.187,98.265z
		 M240.902,90.367c-0.812,0-1.627,0.342-2.263,0.977v5.846c0.44,0.163,0.994,0.26,1.465,0.26c2.265,0,3.096-1.726,3.096-3.761
		C243.2,92.109,242.744,90.367,240.902,90.367z M251.862,96.018c0,0.586,0,1.318,0.032,2.085c-0.114,0.048-0.292,0.081-0.439,0.081
		c-0.13,0-0.31-0.032-0.438-0.081c-0.05-0.261-0.082-0.604-0.1-0.913h-0.016c-0.554,0.684-1.531,1.075-2.492,1.075
		c-1.513,0-2.783-0.847-2.783-2.589c0-0.993,0.405-1.726,1.041-2.182c0.717-0.504,1.662-0.668,2.672-0.668
		c0.569,0,1.04,0.033,1.464,0.099v-0.473c0-1.628-0.666-2.166-2.035-2.166c-0.765,0-1.709,0.164-2.297,0.31
		c-0.031-0.082-0.063-0.261-0.063-0.424c0-0.114,0.032-0.277,0.081-0.375c0.7-0.212,1.628-0.343,2.41-0.343
		c1.938,0,2.964,0.88,2.964,2.867V96.018z M250.803,93.721c-0.472-0.065-0.961-0.098-1.383-0.098c-0.798,0-1.515,0.146-2.003,0.521
		c-0.439,0.326-0.685,0.847-0.685,1.515c0,1.189,0.765,1.758,1.823,1.758c0.88,0,1.808-0.423,2.247-1.09V93.721z M255.997,98.265
		c-0.813,0-1.661-0.146-2.246-0.374c-0.05-0.115-0.082-0.31-0.082-0.456c0-0.099,0.032-0.342,0.063-0.44
		c0.604,0.244,1.467,0.44,2.184,0.44c1.236,0,2.003-0.521,2.003-1.548c0-0.928-0.472-1.254-1.76-1.726
		c-1.79-0.651-2.377-1.401-2.377-2.508c0-1.498,1.237-2.199,2.833-2.199c0.537,0,1.237,0.099,1.646,0.229
		c0.049,0.146,0.064,0.292,0.064,0.391c0,0.13-0.033,0.358-0.064,0.472c-0.538-0.163-1.108-0.261-1.661-0.261
		c-1.157,0-1.855,0.44-1.855,1.335c0,0.782,0.439,1.156,1.772,1.661c1.224,0.457,2.346,0.913,2.346,2.557
		C258.862,97.499,257.61,98.265,255.997,98.265z M266.646,94.145h-5.456c0.065,1.873,0.943,3.29,2.98,3.29
		c0.732,0,1.417-0.099,2.02-0.245c0.032,0.081,0.064,0.245,0.064,0.342c0,0.163-0.032,0.31-0.082,0.423
		c-0.635,0.196-1.432,0.31-2.099,0.31c-1.286,0-2.264-0.407-2.868-1.059c-0.716-0.782-1.09-1.955-1.09-3.306
		c0-2.361,1.188-4.446,3.566-4.446c2.132,0,2.979,1.76,2.979,3.909C266.662,93.607,266.662,93.9,266.646,94.145z M265.604,93.363
		c0-1.498-0.162-3.11-1.971-3.11c-1.579,0-2.345,1.45-2.442,3.11H265.604z M274.282,98.183c-0.146,0-0.326-0.049-0.423-0.081
		l-0.097-0.978h-0.019c-0.699,0.733-1.53,1.14-2.458,1.14c-2.248,0-3.322-1.872-3.322-4.153c0-2.263,0.962-4.658,3.551-4.658
		c0.813,0,1.562,0.277,2.165,0.701v-3.94c0.146-0.05,0.343-0.082,0.522-0.082c0.194,0,0.39,0.049,0.537,0.082v11.888
		C274.623,98.151,274.461,98.183,274.282,98.183z M273.68,91.051c-0.586-0.488-1.334-0.732-2.101-0.732
		c-1.89,0-2.524,1.856-2.524,3.745c0,1.449,0.456,3.338,2.28,3.338c0.879,0,1.774-0.44,2.345-1.124V91.051z"/>
	<g>
		<path style="fill:#58595B;" d="M20.254,114.385c-0.179,0.049-0.358,0.082-0.553,0.082c-0.163,0-0.358-0.033-0.505-0.082V102.5
			c0.146-0.033,0.326-0.082,0.537-0.082c0.179,0,0.375,0.033,0.521,0.082V114.385z"/>
		<path style="fill:#58595B;" d="M28.558,110.428h-5.454c0.065,1.873,0.944,3.289,2.979,3.289c0.732,0,1.417-0.098,2.019-0.244
			c0.032,0.081,0.065,0.244,0.065,0.342c0,0.163-0.033,0.309-0.082,0.423c-0.635,0.195-1.433,0.309-2.1,0.309
			c-1.286,0-2.263-0.407-2.866-1.058c-0.716-0.781-1.091-1.954-1.091-3.305c0-2.361,1.189-4.445,3.566-4.445
			c2.133,0,2.979,1.759,2.979,3.908C28.574,109.891,28.574,110.184,28.558,110.428z M27.516,109.647c0-1.498-0.163-3.11-1.97-3.11
			c-1.58,0-2.345,1.449-2.442,3.11H27.516z"/>
		<path style="fill:#58595B;" d="M36.146,112.301c0,0.586,0,1.319,0.032,2.084c-0.114,0.049-0.293,0.082-0.439,0.082
			c-0.13,0-0.309-0.033-0.439-0.082c-0.049-0.261-0.082-0.603-0.098-0.912h-0.017c-0.553,0.684-1.53,1.074-2.491,1.074
			c-1.514,0-2.784-0.846-2.784-2.588c0-0.993,0.407-1.726,1.042-2.182c0.716-0.505,1.661-0.667,2.67-0.667
			c0.57,0,1.042,0.032,1.465,0.098v-0.472c0-1.628-0.667-2.166-2.035-2.166c-0.765,0-1.709,0.163-2.295,0.31
			c-0.033-0.082-0.065-0.261-0.065-0.423c0-0.114,0.032-0.277,0.081-0.375c0.7-0.212,1.628-0.342,2.41-0.342
			c1.938,0,2.963,0.879,2.963,2.866V112.301z M35.087,110.005c-0.472-0.065-0.96-0.098-1.384-0.098
			c-0.798,0-1.514,0.147-2.002,0.521c-0.439,0.326-0.684,0.847-0.684,1.514c0,1.189,0.766,1.759,1.824,1.759
			c0.879,0,1.807-0.423,2.247-1.091V110.005z"/>
		<path style="fill:#58595B;" d="M42.186,106.684c-0.944,0.13-1.97,0.472-2.735,1.059v6.643c-0.163,0.049-0.358,0.082-0.538,0.082
			c-0.179,0-0.358-0.033-0.521-0.082v-8.482c0.098-0.033,0.245-0.065,0.407-0.065c0.13,0,0.309,0.032,0.439,0.065l0.082,1.042h0.016
			c0.7-0.603,1.921-1.107,2.849-1.205c0.033,0.098,0.065,0.277,0.065,0.423C42.251,106.326,42.218,106.537,42.186,106.684z"/>
		<path style="fill:#58595B;" d="M50.343,114.401c-0.13,0.033-0.326,0.065-0.521,0.065c-0.163,0-0.375-0.033-0.537-0.082v-5.161
			c0-0.781-0.098-1.384-0.326-1.807c-0.277-0.521-0.798-0.782-1.645-0.782c-0.814,0-1.791,0.456-2.426,0.944v6.806
			c-0.179,0.049-0.358,0.082-0.554,0.082c-0.163,0-0.358-0.033-0.505-0.082v-8.482c0.114-0.049,0.31-0.065,0.423-0.065
			c0.163,0,0.358,0.016,0.456,0.065l0.082,0.847h0.016c0.896-0.733,1.921-1.01,2.751-1.01c0.831,0,1.693,0.277,2.166,0.847
			c0.521,0.619,0.619,1.514,0.619,2.394V114.401z"/>
		<path style="fill:#58595B;" d="M53.095,104.242c-0.375,0-0.684-0.326-0.684-0.716c0-0.391,0.31-0.7,0.684-0.7s0.7,0.309,0.7,0.7
			C53.795,103.916,53.469,104.242,53.095,104.242z M53.632,114.385c-0.146,0.049-0.358,0.082-0.537,0.082s-0.375-0.033-0.521-0.082
			v-8.482c0.13-0.033,0.342-0.082,0.504-0.082c0.179,0,0.423,0.033,0.554,0.082V114.385z"/>
		<path style="fill:#58595B;" d="M62.424,114.401c-0.13,0.033-0.326,0.065-0.521,0.065c-0.163,0-0.375-0.033-0.537-0.082v-5.161
			c0-0.781-0.098-1.384-0.326-1.807c-0.277-0.521-0.798-0.782-1.645-0.782c-0.814,0-1.791,0.456-2.426,0.944v6.806
			c-0.179,0.049-0.358,0.082-0.554,0.082c-0.163,0-0.358-0.033-0.505-0.082v-8.482c0.114-0.049,0.31-0.065,0.423-0.065
			c0.163,0,0.358,0.016,0.456,0.065l0.082,0.847h0.016c0.896-0.733,1.921-1.01,2.751-1.01c0.831,0,1.693,0.277,2.166,0.847
			c0.521,0.619,0.619,1.514,0.619,2.394V114.401z"/>
		<path style="fill:#58595B;" d="M70.728,112.968c0,1.221-0.065,2.687-0.651,3.696c-0.7,1.205-1.954,1.726-3.207,1.726
			c-0.717,0-1.335-0.082-1.856-0.261c-0.049-0.098-0.065-0.26-0.065-0.391c0-0.098,0.033-0.293,0.065-0.391
			c0.505,0.13,1.091,0.228,1.677,0.228c2.051,0,2.979-1.27,2.979-3.5v-0.684c-0.635,0.667-1.531,0.993-2.263,0.993
			c-2.166,0-3.289-1.677-3.289-4.038c0-2.898,1.71-4.608,4.233-4.608c0.667,0,1.677,0.196,2.377,0.472V112.968z M69.669,106.732
			c-0.586-0.163-1.01-0.211-1.417-0.211c-2.068,0-3.045,1.742-3.045,3.777c0,1.807,0.684,3.224,2.28,3.224
			c0.814,0,1.644-0.407,2.182-0.977V106.732z"/>
		<path style="fill:#58595B;" d="M81.897,113.505c-0.635,0.57-1.628,0.879-2.573,0.879c-0.667,0-1.286-0.114-1.742-0.277v4.103
			c-0.163,0.049-0.31,0.081-0.538,0.081c-0.179,0-0.391-0.032-0.521-0.081v-12.309c0.082-0.033,0.277-0.065,0.44-0.065
			c0.163,0,0.309,0.032,0.423,0.065l0.098,0.896h0.016c0.619-0.651,1.547-1.059,2.491-1.059c1.025,0,1.938,0.44,2.507,1.254
			c0.472,0.684,0.765,1.661,0.765,2.849C83.265,111.47,82.76,112.724,81.897,113.505z M79.878,106.603
			c-0.863,0-1.726,0.358-2.295,1.074v5.601c0.423,0.195,1.074,0.309,1.628,0.309c1.758,0,2.947-1.156,2.947-3.696
			C82.157,107.889,81.376,106.603,79.878,106.603z"/>
		<path style="fill:#58595B;" d="M88.8,106.684c-0.944,0.13-1.97,0.472-2.735,1.059v6.643c-0.163,0.049-0.358,0.082-0.538,0.082
			c-0.179,0-0.358-0.033-0.521-0.082v-8.482c0.098-0.033,0.245-0.065,0.407-0.065c0.13,0,0.31,0.032,0.439,0.065l0.082,1.042h0.016
			c0.7-0.603,1.921-1.107,2.849-1.205c0.033,0.098,0.065,0.277,0.065,0.423C88.866,106.326,88.833,106.537,88.8,106.684z"/>
		<path style="fill:#58595B;" d="M93.05,114.547c-2.133,0-3.5-1.465-3.5-4.396c0-2.931,1.384-4.413,3.517-4.413
			s3.484,1.449,3.484,4.38S95.183,114.547,93.05,114.547z M93.066,106.537c-1.563,0-2.41,1.205-2.41,3.598
			c0,2.394,0.83,3.615,2.393,3.615s2.394-1.221,2.394-3.615C95.443,107.742,94.629,106.537,93.066,106.537z"/>
		<path style="fill:#58595B;" d="M104.431,112.968c0,1.221-0.065,2.687-0.651,3.696c-0.7,1.205-1.954,1.726-3.208,1.726
			c-0.716,0-1.335-0.082-1.856-0.261c-0.049-0.098-0.065-0.26-0.065-0.391c0-0.098,0.033-0.293,0.065-0.391
			c0.505,0.13,1.091,0.228,1.677,0.228c2.051,0,2.979-1.27,2.979-3.5v-0.684c-0.635,0.667-1.531,0.993-2.263,0.993
			c-2.166,0-3.289-1.677-3.289-4.038c0-2.898,1.709-4.608,4.233-4.608c0.667,0,1.677,0.196,2.377,0.472V112.968z M103.373,106.732
			c-0.586-0.163-1.01-0.211-1.417-0.211c-2.068,0-3.045,1.742-3.045,3.777c0,1.807,0.684,3.224,2.28,3.224
			c0.814,0,1.644-0.407,2.182-0.977V106.732z"/>
		<path style="fill:#58595B;" d="M110.438,106.684c-0.944,0.13-1.97,0.472-2.735,1.059v6.643c-0.163,0.049-0.358,0.082-0.538,0.082
			c-0.179,0-0.358-0.033-0.521-0.082v-8.482c0.098-0.033,0.245-0.065,0.407-0.065c0.13,0,0.309,0.032,0.439,0.065l0.082,1.042h0.016
			c0.7-0.603,1.921-1.107,2.849-1.205c0.033,0.098,0.065,0.277,0.065,0.423C110.504,106.326,110.471,106.537,110.438,106.684z"/>
		<path style="fill:#58595B;" d="M117.375,112.301c0,0.586,0,1.319,0.032,2.084c-0.114,0.049-0.293,0.082-0.439,0.082
			c-0.13,0-0.309-0.033-0.439-0.082c-0.049-0.261-0.082-0.603-0.098-0.912h-0.017c-0.553,0.684-1.53,1.074-2.491,1.074
			c-1.514,0-2.784-0.846-2.784-2.588c0-0.993,0.407-1.726,1.042-2.182c0.716-0.505,1.661-0.667,2.67-0.667
			c0.57,0,1.042,0.032,1.465,0.098v-0.472c0-1.628-0.667-2.166-2.035-2.166c-0.765,0-1.709,0.163-2.295,0.31
			c-0.033-0.082-0.065-0.261-0.065-0.423c0-0.114,0.032-0.277,0.081-0.375c0.7-0.212,1.628-0.342,2.41-0.342
			c1.938,0,2.963,0.879,2.963,2.866V112.301z M116.316,110.005c-0.472-0.065-0.96-0.098-1.384-0.098
			c-0.798,0-1.514,0.147-2.002,0.521c-0.439,0.326-0.684,0.847-0.684,1.514c0,1.189,0.766,1.759,1.824,1.759
			c0.879,0,1.807-0.423,2.247-1.091V110.005z"/>
		<path style="fill:#58595B;" d="M131.409,114.401c-0.163,0.033-0.326,0.065-0.488,0.065c-0.195,0-0.375-0.049-0.57-0.082v-5.145
			c0-1.791-0.456-2.605-1.97-2.605c-0.781,0-1.823,0.407-2.475,0.879c0.13,0.456,0.163,0.96,0.163,1.465v5.405
			c-0.163,0.049-0.326,0.082-0.489,0.082c-0.211,0-0.407-0.033-0.57-0.082v-5.145c0-1.791-0.407-2.605-1.921-2.605
			c-0.814,0-1.775,0.456-2.41,0.944v6.806c-0.179,0.049-0.391,0.082-0.586,0.082c-0.163,0-0.342-0.033-0.472-0.082v-8.482
			c0.082-0.033,0.261-0.065,0.44-0.065c0.146,0,0.326,0.032,0.439,0.065l0.082,0.847h0.016c0.896-0.733,1.921-1.01,2.751-1.01
			c0.831,0,1.628,0.277,2.1,0.847c0.065,0.065,0.114,0.146,0.163,0.228c0.863-0.7,1.97-1.075,3.028-1.075
			c0.83,0,1.677,0.277,2.149,0.847c0.521,0.619,0.619,1.514,0.619,2.394V114.401z"/>
		<path style="fill:#58595B;" d="M145.363,114.401c-0.163,0.033-0.326,0.065-0.488,0.065c-0.195,0-0.375-0.049-0.57-0.082v-5.145
			c0-1.791-0.456-2.605-1.97-2.605c-0.781,0-1.823,0.407-2.475,0.879c0.13,0.456,0.163,0.96,0.163,1.465v5.405
			c-0.163,0.049-0.325,0.082-0.488,0.082c-0.211,0-0.407-0.033-0.57-0.082v-5.145c0-1.791-0.407-2.605-1.921-2.605
			c-0.814,0-1.775,0.456-2.41,0.944v6.806c-0.179,0.049-0.391,0.082-0.586,0.082c-0.163,0-0.342-0.033-0.472-0.082v-8.482
			c0.082-0.033,0.261-0.065,0.44-0.065c0.146,0,0.326,0.032,0.439,0.065l0.082,0.847h0.016c0.896-0.733,1.921-1.01,2.751-1.01
			c0.831,0,1.628,0.277,2.1,0.847c0.065,0.065,0.114,0.146,0.163,0.228c0.863-0.7,1.97-1.075,3.028-1.075
			c0.83,0,1.677,0.277,2.149,0.847c0.521,0.619,0.619,1.514,0.619,2.394V114.401z"/>
		<path style="fill:#58595B;" d="M153.586,110.428h-5.455c0.065,1.873,0.944,3.289,2.98,3.289c0.732,0,1.416-0.098,2.019-0.244
			c0.032,0.081,0.065,0.244,0.065,0.342c0,0.163-0.033,0.309-0.082,0.423c-0.635,0.195-1.433,0.309-2.101,0.309
			c-1.286,0-2.263-0.407-2.865-1.058c-0.716-0.781-1.091-1.954-1.091-3.305c0-2.361,1.188-4.445,3.565-4.445
			c2.133,0,2.979,1.759,2.979,3.908C153.602,109.891,153.602,110.184,153.586,110.428z M152.544,109.647
			c0-1.498-0.163-3.11-1.971-3.11c-1.579,0-2.344,1.449-2.442,3.11H152.544z"/>
		<path style="fill:#58595B;" d="M157.266,114.547c-0.814,0-1.661-0.146-2.247-0.374c-0.049-0.114-0.081-0.31-0.081-0.456
			c0-0.098,0.032-0.342,0.064-0.439c0.603,0.244,1.466,0.439,2.182,0.439c1.237,0,2.003-0.521,2.003-1.547
			c0-0.928-0.473-1.253-1.759-1.726c-1.791-0.651-2.377-1.4-2.377-2.507c0-1.498,1.237-2.198,2.833-2.198
			c0.537,0,1.237,0.098,1.645,0.228c0.049,0.146,0.065,0.293,0.065,0.391c0,0.13-0.033,0.358-0.065,0.472
			c-0.537-0.163-1.107-0.26-1.661-0.26c-1.155,0-1.855,0.439-1.855,1.335c0,0.782,0.439,1.156,1.774,1.661
			c1.222,0.456,2.345,0.912,2.345,2.556C160.131,113.782,158.877,114.547,157.266,114.547z"/>
		<path style="fill:#58595B;" d="M166.025,104.242c-0.375,0-0.684-0.326-0.684-0.716c0-0.391,0.309-0.7,0.684-0.7
			c0.374,0,0.7,0.309,0.7,0.7C166.726,103.916,166.399,104.242,166.025,104.242z M166.562,114.385
			c-0.146,0.049-0.358,0.082-0.537,0.082c-0.18,0-0.375-0.033-0.521-0.082v-8.482c0.131-0.033,0.342-0.082,0.505-0.082
			c0.18,0,0.424,0.033,0.554,0.082V114.385z"/>
		<path style="fill:#58595B;" d="M175.354,114.401c-0.13,0.033-0.325,0.065-0.521,0.065c-0.163,0-0.375-0.033-0.537-0.082v-5.161
			c0-0.781-0.098-1.384-0.326-1.807c-0.276-0.521-0.798-0.782-1.645-0.782c-0.813,0-1.79,0.456-2.426,0.944v6.806
			c-0.179,0.049-0.357,0.082-0.553,0.082c-0.163,0-0.358-0.033-0.505-0.082v-8.482c0.113-0.049,0.309-0.065,0.423-0.065
			c0.163,0,0.358,0.016,0.456,0.065l0.081,0.847h0.017c0.896-0.733,1.921-1.01,2.752-1.01c0.83,0,1.692,0.277,2.165,0.847
			c0.521,0.619,0.618,1.514,0.618,2.394V114.401z"/>
		<path style="fill:#58595B;" d="M185.612,114.303c-0.424,0.146-1.059,0.244-1.53,0.244c-1.612,0-2.377-0.765-2.377-2.572v-5.243
			h-1.466c-0.032-0.081-0.049-0.276-0.049-0.374c0-0.082,0.017-0.277,0.049-0.358l1.466-0.098v-2.214
			c0.13-0.049,0.342-0.082,0.521-0.082s0.407,0.033,0.537,0.082v2.214h2.394c0.032,0.082,0.065,0.326,0.065,0.407
			c0,0.114-0.033,0.309-0.065,0.423h-2.394v5.145c0,1.286,0.375,1.824,1.384,1.824c0.554,0,1.091-0.082,1.466-0.196
			c0.032,0.082,0.064,0.277,0.064,0.391C185.677,114.043,185.661,114.157,185.612,114.303z"/>
		<path style="fill:#58595B;" d="M193.703,114.385c-0.146,0.049-0.325,0.082-0.488,0.082c-0.195,0-0.407-0.033-0.569-0.082v-5.145
			c0-1.791-0.456-2.605-1.971-2.605c-0.813,0-1.79,0.456-2.426,0.944v6.806c-0.179,0.049-0.374,0.082-0.553,0.082
			c-0.163,0-0.358-0.033-0.505-0.082V102.5c0.146-0.049,0.374-0.082,0.521-0.082s0.391,0.033,0.537,0.082v4.184
			c0.863-0.667,1.889-0.944,2.687-0.944c0.83,0,1.677,0.277,2.149,0.847c0.521,0.619,0.618,1.514,0.618,2.394V114.385z"/>
		<path style="fill:#58595B;" d="M201.927,110.428h-5.454c0.064,1.873,0.944,3.289,2.979,3.289c0.733,0,1.417-0.098,2.02-0.244
			c0.032,0.081,0.064,0.244,0.064,0.342c0,0.163-0.032,0.309-0.081,0.423c-0.635,0.195-1.433,0.309-2.101,0.309
			c-1.286,0-2.263-0.407-2.865-1.058c-0.716-0.781-1.091-1.954-1.091-3.305c0-2.361,1.188-4.445,3.565-4.445
			c2.133,0,2.979,1.759,2.979,3.908C201.942,109.891,201.942,110.184,201.927,110.428z M200.885,109.647
			c0-1.498-0.163-3.11-1.971-3.11c-1.579,0-2.344,1.449-2.441,3.11H200.885z"/>
		<path style="fill:#58595B;" d="M208.618,110.624c0,1.074,0.179,1.888,0.651,2.409c0.407,0.44,1.025,0.7,1.954,0.7
			c0.928,0,1.562-0.26,1.97-0.7c0.472-0.521,0.651-1.335,0.651-2.409v-7.245c0.146-0.049,0.407-0.082,0.554-0.082
			c0.162,0,0.406,0.033,0.553,0.082v7.082c0,1.449-0.276,2.458-0.96,3.143c-0.603,0.602-1.515,0.944-2.768,0.944
			c-1.254,0-2.149-0.342-2.752-0.944c-0.684-0.684-0.961-1.693-0.961-3.143v-7.082c0.131-0.049,0.358-0.082,0.554-0.082
			s0.391,0.033,0.554,0.082V110.624z"/>
		<path style="fill:#58595B;" d="M224.851,114.385c-0.13,0.049-0.391,0.082-0.586,0.082s-0.424-0.017-0.7-0.082l-3.631-5.405
			l-1.172,1.319v4.086c-0.131,0.049-0.391,0.082-0.57,0.082c-0.179,0-0.407-0.033-0.537-0.082v-11.006
			c0.13-0.049,0.358-0.082,0.537-0.082c0.18,0,0.439,0.033,0.57,0.082v5.519l3.468-3.973c0.488-0.553,0.749-1.091,0.83-1.546
			c0.146-0.017,0.358-0.049,0.521-0.049c0.162,0,0.423,0.032,0.537,0.049c-0.032,0.521-0.358,1.221-1.025,1.986l-2.442,2.816
			L224.851,114.385z"/>
		<path style="fill:#58595B;" d="M225.876,116.908c-0.098-0.081-0.228-0.277-0.276-0.407c0.667-0.538,1.172-1.14,1.335-1.807
			c-0.342-0.179-0.619-0.521-0.619-0.944c0-0.456,0.358-0.798,0.766-0.798c0.521,0,0.896,0.472,0.896,1.042
			C227.977,114.906,227.228,116.062,225.876,116.908z"/>
		<path style="fill:#58595B;" d="M243.313,107.579l-2.182,6.806c-0.131,0.049-0.375,0.082-0.505,0.082
			c-0.146,0-0.391-0.033-0.505-0.082l-1.953-6.578h-0.033l-2.051,6.578c-0.147,0.049-0.375,0.082-0.505,0.082
			c-0.131,0-0.342-0.033-0.488-0.082l-2.02-6.708c-0.179-0.553-0.261-1.188-0.276-1.791c0.13-0.033,0.391-0.065,0.554-0.065
			c0.179,0,0.342,0.033,0.488,0.082c0.016,0.586,0.114,1.205,0.261,1.742l1.481,5.291h0.016l2.117-7.049
			c0.113-0.033,0.342-0.049,0.456-0.049c0.113,0,0.357,0.016,0.455,0.049l2.003,7.049h0.017l1.628-5.275
			c0.179-0.603,0.31-1.172,0.342-1.758c0.114-0.049,0.391-0.082,0.537-0.082s0.375,0.033,0.473,0.082
			C243.623,106.456,243.492,107.009,243.313,107.579z"/>
		<path style="fill:#58595B;" d="M245.772,104.242c-0.375,0-0.684-0.326-0.684-0.716c0-0.391,0.309-0.7,0.684-0.7
			c0.374,0,0.7,0.309,0.7,0.7C246.473,103.916,246.146,104.242,245.772,104.242z M246.31,114.385
			c-0.146,0.049-0.358,0.082-0.537,0.082c-0.18,0-0.375-0.033-0.521-0.082v-8.482c0.131-0.033,0.342-0.082,0.505-0.082
			c0.18,0,0.424,0.033,0.554,0.082V114.385z"/>
		<path style="fill:#58595B;" d="M253.1,114.303c-0.424,0.146-1.059,0.244-1.53,0.244c-1.612,0-2.377-0.765-2.377-2.572v-5.243
			h-1.466c-0.032-0.081-0.049-0.276-0.049-0.374c0-0.082,0.017-0.277,0.049-0.358l1.466-0.098v-2.214
			c0.13-0.049,0.342-0.082,0.521-0.082s0.407,0.033,0.537,0.082v2.214h2.394c0.032,0.082,0.065,0.326,0.065,0.407
			c0,0.114-0.033,0.309-0.065,0.423h-2.394v5.145c0,1.286,0.375,1.824,1.384,1.824c0.554,0,1.091-0.082,1.466-0.196
			c0.032,0.082,0.064,0.277,0.064,0.391C253.164,114.043,253.148,114.157,253.1,114.303z"/>
		<path style="fill:#58595B;" d="M261.19,114.385c-0.146,0.049-0.325,0.082-0.488,0.082c-0.195,0-0.407-0.033-0.569-0.082v-5.145
			c0-1.791-0.456-2.605-1.971-2.605c-0.813,0-1.79,0.456-2.426,0.944v6.806c-0.179,0.049-0.374,0.082-0.553,0.082
			c-0.163,0-0.358-0.033-0.505-0.082V102.5c0.146-0.049,0.374-0.082,0.521-0.082s0.391,0.033,0.537,0.082v4.184
			c0.863-0.667,1.889-0.944,2.687-0.944c0.83,0,1.677,0.277,2.149,0.847c0.521,0.619,0.618,1.514,0.618,2.394V114.385z"/>
	</g>
	<g>
		<path style="fill:#58595B;" d="M22.192,194.475c-2.133,0-3.5-1.466-3.5-4.396s1.384-4.412,3.517-4.412s3.484,1.449,3.484,4.38
			S24.325,194.475,22.192,194.475z M22.208,186.464c-1.563,0-2.41,1.205-2.41,3.599c0,2.393,0.83,3.614,2.393,3.614
			s2.394-1.222,2.394-3.614C24.585,187.669,23.771,186.464,22.208,186.464z"/>
		<path style="fill:#58595B;" d="M32.238,183.126c-0.244-0.064-0.684-0.13-1.026-0.13c-0.619,0-1.075,0.163-1.384,0.505
			c-0.472,0.505-0.554,1.188-0.554,2.052v0.276h2.296c0.032,0.081,0.065,0.276,0.065,0.391c0,0.13-0.033,0.326-0.065,0.439h-2.296
			v7.652c-0.146,0.049-0.309,0.081-0.521,0.081c-0.211,0-0.391-0.032-0.537-0.081v-7.652h-1.465
			c-0.033-0.081-0.049-0.293-0.049-0.391c0-0.081,0.016-0.261,0.049-0.342l1.465-0.098v-0.276c0-1.156,0.195-1.954,0.863-2.622
			c0.472-0.472,1.172-0.7,1.97-0.7c0.423,0,0.896,0.098,1.188,0.212c0.032,0.082,0.049,0.195,0.049,0.31
			C32.287,182.85,32.27,183.045,32.238,183.126z"/>
		<path style="fill:#58595B;" d="M40.102,194.475c-2.133,0-3.5-1.466-3.5-4.396s1.384-4.412,3.517-4.412s3.484,1.449,3.484,4.38
			S42.234,194.475,40.102,194.475z M40.118,186.464c-1.563,0-2.41,1.205-2.41,3.599c0,2.393,0.83,3.614,2.393,3.614
			s2.394-1.222,2.394-3.614C42.495,187.669,41.681,186.464,40.118,186.464z"/>
		<path style="fill:#58595B;" d="M51.597,191.088c0,2.475-1.025,3.387-3.175,3.387c-2.198,0-3.126-0.912-3.126-3.306v-5.34
			c0.146-0.049,0.342-0.081,0.521-0.081c0.228,0,0.407,0.049,0.538,0.081v5.21c0,1.579,0.244,2.621,2.084,2.621
			c1.726,0,2.1-1.01,2.1-2.653v-5.178c0.13-0.049,0.358-0.081,0.537-0.081c0.179,0,0.375,0.032,0.521,0.081V191.088z"/>
		<path style="fill:#58595B;" d="M57.556,186.61c-0.944,0.131-1.97,0.473-2.735,1.059v6.643c-0.163,0.049-0.358,0.081-0.538,0.081
			c-0.179,0-0.358-0.032-0.521-0.081v-8.482c0.098-0.032,0.245-0.065,0.407-0.065c0.13,0,0.309,0.033,0.439,0.065l0.082,1.042h0.016
			c0.7-0.603,1.921-1.107,2.849-1.205c0.033,0.098,0.065,0.277,0.065,0.424C57.621,186.252,57.588,186.464,57.556,186.61z"/>
		<path style="fill:#58595B;" d="M64.671,194.475c-0.814,0-1.661-0.146-2.247-0.375c-0.049-0.113-0.082-0.309-0.082-0.456
			c0-0.098,0.033-0.342,0.065-0.439c0.603,0.244,1.465,0.439,2.182,0.439c1.237,0,2.002-0.521,2.002-1.546
			c0-0.929-0.472-1.254-1.758-1.727c-1.791-0.65-2.377-1.399-2.377-2.507c0-1.498,1.237-2.198,2.833-2.198
			c0.538,0,1.237,0.098,1.645,0.229c0.049,0.146,0.065,0.293,0.065,0.391c0,0.13-0.032,0.358-0.065,0.472
			c-0.537-0.162-1.107-0.261-1.661-0.261c-1.156,0-1.856,0.44-1.856,1.336c0,0.781,0.439,1.155,1.774,1.66
			c1.221,0.456,2.345,0.912,2.345,2.557C67.537,193.709,66.283,194.475,64.671,194.475z"/>
		<path style="fill:#58595B;" d="M73.643,194.23c-0.423,0.146-1.059,0.244-1.531,0.244c-1.612,0-2.377-0.766-2.377-2.572v-5.243
			H68.27c-0.033-0.081-0.049-0.276-0.049-0.374c0-0.082,0.016-0.277,0.049-0.358l1.465-0.098v-2.214
			c0.13-0.049,0.342-0.082,0.521-0.082s0.407,0.033,0.537,0.082v2.214h2.394c0.033,0.081,0.065,0.325,0.065,0.407
			c0,0.113-0.032,0.31-0.065,0.423h-2.394v5.146c0,1.286,0.375,1.823,1.384,1.823c0.553,0,1.091-0.082,1.465-0.195
			c0.032,0.081,0.065,0.276,0.065,0.391C73.708,193.97,73.691,194.084,73.643,194.23z"/>
		<path style="fill:#58595B;" d="M81.229,191.088c0,2.475-1.025,3.387-3.175,3.387c-2.198,0-3.126-0.912-3.126-3.306v-5.34
			c0.146-0.049,0.342-0.081,0.521-0.081c0.228,0,0.407,0.049,0.538,0.081v5.21c0,1.579,0.244,2.621,2.084,2.621
			c1.726,0,2.1-1.01,2.1-2.653v-5.178c0.13-0.049,0.358-0.081,0.537-0.081c0.179,0,0.375,0.032,0.521,0.081V191.088z"/>
		<path style="fill:#58595B;" d="M89.24,194.393c-0.146,0-0.326-0.049-0.423-0.081l-0.098-0.977h-0.017
			c-0.7,0.732-1.53,1.14-2.458,1.14c-2.247,0-3.322-1.873-3.322-4.152c0-2.263,0.961-4.656,3.549-4.656
			c0.814,0,1.563,0.277,2.166,0.7v-3.939c0.146-0.049,0.342-0.082,0.521-0.082c0.195,0,0.391,0.049,0.537,0.082v11.885
			C89.582,194.36,89.419,194.393,89.24,194.393z M88.638,187.262c-0.586-0.488-1.335-0.732-2.1-0.732
			c-1.889,0-2.524,1.855-2.524,3.744c0,1.449,0.456,3.338,2.28,3.338c0.879,0,1.774-0.439,2.344-1.123V187.262z"/>
		<path style="fill:#58595B;" d="M97.967,190.355h-5.454c0.065,1.872,0.944,3.288,2.979,3.288c0.732,0,1.417-0.098,2.019-0.244
			c0.032,0.082,0.065,0.244,0.065,0.342c0,0.163-0.033,0.31-0.082,0.424c-0.635,0.195-1.433,0.31-2.1,0.31
			c-1.286,0-2.263-0.407-2.866-1.059c-0.716-0.781-1.091-1.954-1.091-3.305c0-2.361,1.188-4.445,3.566-4.445
			c2.133,0,2.979,1.759,2.979,3.907C97.984,189.818,97.984,190.111,97.967,190.355z M96.925,189.573c0-1.497-0.163-3.109-1.97-3.109
			c-1.58,0-2.345,1.449-2.442,3.109H96.925z"/>
		<path style="fill:#58595B;" d="M106.271,194.328c-0.13,0.032-0.326,0.064-0.521,0.064c-0.163,0-0.375-0.032-0.537-0.081v-5.161
			c0-0.781-0.098-1.384-0.326-1.808c-0.277-0.521-0.798-0.781-1.645-0.781c-0.814,0-1.791,0.456-2.426,0.944v6.806
			c-0.179,0.049-0.358,0.081-0.554,0.081c-0.163,0-0.358-0.032-0.505-0.081v-8.482c0.114-0.049,0.31-0.065,0.423-0.065
			c0.163,0,0.358,0.017,0.456,0.065l0.082,0.847h0.016c0.896-0.732,1.921-1.01,2.751-1.01c0.831,0,1.693,0.277,2.166,0.847
			c0.521,0.619,0.619,1.515,0.619,2.394V194.328z"/>
		<path style="fill:#58595B;" d="M112.947,194.23c-0.423,0.146-1.059,0.244-1.531,0.244c-1.612,0-2.377-0.766-2.377-2.572v-5.243
			h-1.465c-0.033-0.081-0.049-0.276-0.049-0.374c0-0.082,0.016-0.277,0.049-0.358l1.465-0.098v-2.214
			c0.13-0.049,0.342-0.082,0.521-0.082s0.407,0.033,0.537,0.082v2.214h2.394c0.033,0.081,0.065,0.325,0.065,0.407
			c0,0.113-0.032,0.31-0.065,0.423h-2.394v5.146c0,1.286,0.375,1.823,1.384,1.823c0.553,0,1.091-0.082,1.465-0.195
			c0.032,0.081,0.065,0.276,0.065,0.391C113.012,193.97,112.996,194.084,112.947,194.23z"/>
		<path style="fill:#58595B;" d="M116.415,194.475c-0.814,0-1.661-0.146-2.247-0.375c-0.049-0.113-0.082-0.309-0.082-0.456
			c0-0.098,0.033-0.342,0.065-0.439c0.603,0.244,1.465,0.439,2.182,0.439c1.237,0,2.002-0.521,2.002-1.546
			c0-0.929-0.472-1.254-1.758-1.727c-1.791-0.65-2.377-1.399-2.377-2.507c0-1.498,1.238-2.198,2.833-2.198
			c0.538,0,1.237,0.098,1.645,0.229c0.049,0.146,0.065,0.293,0.065,0.391c0,0.13-0.032,0.358-0.065,0.472
			c-0.537-0.162-1.107-0.261-1.661-0.261c-1.156,0-1.856,0.44-1.856,1.336c0,0.781,0.439,1.155,1.774,1.66
			c1.221,0.456,2.345,0.912,2.345,2.557C119.28,193.709,118.026,194.475,116.415,194.475z"/>
		<path style="fill:#58595B;" d="M127.193,194.475c-0.749,0-1.709-0.114-2.605-0.439v-11.608c0.114-0.033,0.358-0.082,0.505-0.082
			c0.261,0,0.456,0.049,0.554,0.082v4.119c0.667-0.554,1.514-0.88,2.41-0.88c2.295,0,3.256,1.971,3.256,4.168
			C131.312,192.635,129.879,194.475,127.193,194.475z M127.909,186.578c-0.814,0-1.628,0.342-2.263,0.977v5.845
			c0.439,0.163,0.993,0.261,1.465,0.261c2.263,0,3.093-1.726,3.093-3.761C130.205,188.32,129.749,186.578,127.909,186.578z"/>
		<path style="fill:#58595B;" d="M139.127,190.355h-5.454c0.065,1.872,0.944,3.288,2.979,3.288c0.732,0,1.417-0.098,2.019-0.244
			c0.032,0.082,0.065,0.244,0.065,0.342c0,0.163-0.033,0.31-0.082,0.424c-0.635,0.195-1.433,0.31-2.1,0.31
			c-1.286,0-2.263-0.407-2.866-1.059c-0.716-0.781-1.091-1.954-1.091-3.305c0-2.361,1.188-4.445,3.566-4.445
			c2.133,0,2.979,1.759,2.979,3.907C139.144,189.818,139.144,190.111,139.127,190.355z M138.085,189.573
			c0-1.497-0.163-3.109-1.97-3.109c-1.58,0-2.345,1.449-2.442,3.109H138.085z"/>
		<path style="fill:#58595B;" d="M147.431,194.328c-0.13,0.032-0.326,0.064-0.521,0.064c-0.163,0-0.375-0.032-0.537-0.081v-5.161
			c0-0.781-0.098-1.384-0.326-1.808c-0.277-0.521-0.798-0.781-1.645-0.781c-0.814,0-1.791,0.456-2.426,0.944v6.806
			c-0.179,0.049-0.358,0.081-0.554,0.081c-0.163,0-0.358-0.032-0.505-0.081v-8.482c0.114-0.049,0.31-0.065,0.423-0.065
			c0.163,0,0.358,0.017,0.456,0.065l0.082,0.847h0.016c0.896-0.732,1.921-1.01,2.751-1.01c0.831,0,1.693,0.277,2.166,0.847
			c0.521,0.619,0.619,1.515,0.619,2.394V194.328z"/>
		<path style="fill:#58595B;" d="M155.653,190.355h-5.454c0.065,1.872,0.944,3.288,2.979,3.288c0.732,0,1.416-0.098,2.019-0.244
			c0.033,0.082,0.065,0.244,0.065,0.342c0,0.163-0.032,0.31-0.081,0.424c-0.636,0.195-1.433,0.31-2.101,0.31
			c-1.286,0-2.263-0.407-2.865-1.059c-0.717-0.781-1.091-1.954-1.091-3.305c0-2.361,1.189-4.445,3.566-4.445
			c2.133,0,2.979,1.759,2.979,3.907C155.67,189.818,155.67,190.111,155.653,190.355z M154.611,189.573
			c0-1.497-0.163-3.109-1.97-3.109c-1.579,0-2.345,1.449-2.442,3.109H154.611z"/>
		<path style="fill:#58595B;" d="M163.827,194.312c-0.146,0.049-0.358,0.081-0.537,0.081s-0.375-0.032-0.521-0.081v-7.652h-3.483
			v7.652c-0.146,0.049-0.31,0.081-0.521,0.081s-0.391-0.032-0.537-0.081v-7.652h-1.466c-0.032-0.081-0.049-0.293-0.049-0.391
			c0-0.081,0.017-0.261,0.049-0.342l1.466-0.098v-0.276c0-1.156,0.195-1.954,0.863-2.622c0.472-0.472,1.172-0.7,1.97-0.7
			c0.423,0,0.896,0.098,1.188,0.212c0.032,0.082,0.049,0.195,0.049,0.31c0,0.098-0.017,0.293-0.049,0.374
			c-0.244-0.064-0.684-0.13-1.025-0.13c-0.619,0-1.075,0.163-1.385,0.505c-0.472,0.505-0.553,1.188-0.553,2.052v0.276h4.542V194.312
			z"/>
		<path style="fill:#58595B;" d="M170.617,194.23c-0.424,0.146-1.059,0.244-1.53,0.244c-1.612,0-2.377-0.766-2.377-2.572v-5.243
			h-1.466c-0.032-0.081-0.049-0.276-0.049-0.374c0-0.082,0.017-0.277,0.049-0.358l1.466-0.098v-2.214
			c0.13-0.049,0.342-0.082,0.521-0.082s0.407,0.033,0.537,0.082v2.214h2.394c0.032,0.081,0.065,0.325,0.065,0.407
			c0,0.113-0.033,0.31-0.065,0.423h-2.394v5.146c0,1.286,0.375,1.823,1.384,1.823c0.554,0,1.091-0.082,1.466-0.195
			c0.032,0.081,0.064,0.276,0.064,0.391C170.682,193.97,170.666,194.084,170.617,194.23z"/>
		<path style="fill:#58595B;" d="M176.544,194.23c-0.424,0.146-1.059,0.244-1.53,0.244c-1.612,0-2.377-0.766-2.377-2.572v-5.243
			h-1.466c-0.032-0.081-0.049-0.276-0.049-0.374c0-0.082,0.017-0.277,0.049-0.358l1.466-0.098v-2.214
			c0.13-0.049,0.342-0.082,0.521-0.082s0.407,0.033,0.537,0.082v2.214h2.394c0.032,0.081,0.065,0.325,0.065,0.407
			c0,0.113-0.033,0.31-0.065,0.423h-2.394v5.146c0,1.286,0.375,1.823,1.384,1.823c0.554,0,1.091-0.082,1.466-0.195
			c0.032,0.081,0.064,0.276,0.064,0.391C176.608,193.97,176.593,194.084,176.544,194.23z"/>
		<path style="fill:#58595B;" d="M178.709,184.168c-0.375,0-0.684-0.325-0.684-0.716s0.309-0.7,0.684-0.7c0.374,0,0.7,0.31,0.7,0.7
			S179.083,184.168,178.709,184.168z M179.246,194.312c-0.146,0.049-0.358,0.081-0.537,0.081c-0.18,0-0.375-0.032-0.521-0.081
			v-8.482c0.131-0.032,0.342-0.081,0.505-0.081c0.18,0,0.424,0.032,0.554,0.081V194.312z"/>
		<path style="fill:#58595B;" d="M188.038,194.328c-0.13,0.032-0.325,0.064-0.521,0.064c-0.163,0-0.375-0.032-0.537-0.081v-5.161
			c0-0.781-0.098-1.384-0.326-1.808c-0.276-0.521-0.798-0.781-1.645-0.781c-0.813,0-1.79,0.456-2.426,0.944v6.806
			c-0.179,0.049-0.357,0.081-0.553,0.081c-0.163,0-0.358-0.032-0.505-0.081v-8.482c0.113-0.049,0.309-0.065,0.423-0.065
			c0.163,0,0.358,0.017,0.456,0.065l0.081,0.847h0.017c0.896-0.732,1.921-1.01,2.752-1.01c0.83,0,1.692,0.277,2.165,0.847
			c0.521,0.619,0.618,1.515,0.618,2.394V194.328z"/>
		<path style="fill:#58595B;" d="M196.342,192.896c0,1.221-0.065,2.686-0.651,3.695c-0.7,1.205-1.954,1.726-3.207,1.726
			c-0.717,0-1.335-0.081-1.856-0.26c-0.049-0.098-0.065-0.261-0.065-0.392c0-0.098,0.033-0.293,0.065-0.391
			c0.505,0.131,1.091,0.229,1.677,0.229c2.052,0,2.979-1.271,2.979-3.501v-0.684c-0.635,0.668-1.53,0.993-2.263,0.993
			c-2.165,0-3.289-1.677-3.289-4.038c0-2.897,1.71-4.607,4.233-4.607c0.667,0,1.677,0.195,2.377,0.473V192.896z M195.283,186.659
			c-0.586-0.163-1.009-0.212-1.416-0.212c-2.067,0-3.045,1.742-3.045,3.777c0,1.808,0.684,3.224,2.279,3.224
			c0.814,0,1.645-0.406,2.182-0.977V186.659z"/>
		<path style="fill:#58595B;" d="M206.941,183.126c-0.244-0.064-0.684-0.13-1.025-0.13c-0.619,0-1.075,0.163-1.385,0.505
			c-0.472,0.505-0.553,1.188-0.553,2.052v0.276h2.295c0.033,0.081,0.065,0.276,0.065,0.391c0,0.13-0.032,0.326-0.065,0.439h-2.295
			v7.652c-0.146,0.049-0.31,0.081-0.521,0.081s-0.391-0.032-0.537-0.081v-7.652h-1.466c-0.032-0.081-0.049-0.293-0.049-0.391
			c0-0.081,0.017-0.261,0.049-0.342l1.466-0.098v-0.276c0-1.156,0.195-1.954,0.863-2.622c0.472-0.472,1.172-0.7,1.97-0.7
			c0.423,0,0.896,0.098,1.188,0.212c0.032,0.082,0.049,0.195,0.049,0.31C206.99,182.85,206.974,183.045,206.941,183.126z"/>
		<path style="fill:#58595B;" d="M211.549,186.61c-0.944,0.131-1.97,0.473-2.735,1.059v6.643c-0.162,0.049-0.357,0.081-0.537,0.081
			c-0.179,0-0.358-0.032-0.521-0.081v-8.482c0.098-0.032,0.244-0.065,0.406-0.065c0.131,0,0.31,0.033,0.44,0.065l0.081,1.042h0.017
			c0.7-0.603,1.921-1.107,2.849-1.205c0.033,0.098,0.065,0.277,0.065,0.424C211.614,186.252,211.582,186.464,211.549,186.61z"/>
		<path style="fill:#58595B;" d="M215.815,194.475c-2.133,0-3.501-1.466-3.501-4.396s1.384-4.412,3.517-4.412
			s3.484,1.449,3.484,4.38S217.948,194.475,215.815,194.475z M215.831,186.464c-1.562,0-2.409,1.205-2.409,3.599
			c0,2.393,0.83,3.614,2.394,3.614c1.562,0,2.393-1.222,2.393-3.614C218.208,187.669,217.395,186.464,215.831,186.464z"/>
		<path style="fill:#58595B;" d="M232.845,194.328c-0.163,0.032-0.325,0.064-0.488,0.064c-0.195,0-0.374-0.049-0.57-0.081v-5.145
			c0-1.791-0.455-2.605-1.97-2.605c-0.781,0-1.823,0.407-2.475,0.879c0.13,0.456,0.163,0.961,0.163,1.466v5.405
			c-0.163,0.049-0.326,0.081-0.488,0.081c-0.212,0-0.407-0.032-0.57-0.081v-5.145c0-1.791-0.407-2.605-1.921-2.605
			c-0.814,0-1.774,0.456-2.41,0.944v6.806c-0.179,0.049-0.391,0.081-0.586,0.081c-0.163,0-0.342-0.032-0.472-0.081v-8.482
			c0.081-0.032,0.26-0.065,0.439-0.065c0.146,0,0.325,0.033,0.439,0.065l0.081,0.847h0.017c0.896-0.732,1.921-1.01,2.752-1.01
			c0.83,0,1.628,0.277,2.1,0.847c0.065,0.065,0.114,0.146,0.163,0.229c0.863-0.7,1.97-1.075,3.028-1.075
			c0.83,0,1.677,0.277,2.149,0.847c0.521,0.619,0.618,1.515,0.618,2.394V194.328z"/>
	</g>
	<g>
		<path style="fill:#58595B;" d="M19.75,200.449c-0.375,0-0.684-0.325-0.684-0.716s0.31-0.7,0.684-0.7s0.7,0.31,0.7,0.7
			S20.125,200.449,19.75,200.449z M20.287,210.593c-0.146,0.049-0.358,0.081-0.537,0.081s-0.375-0.032-0.521-0.081v-8.482
			c0.13-0.032,0.342-0.081,0.504-0.081c0.179,0,0.423,0.032,0.554,0.081V210.593z"/>
		<path style="fill:#58595B;" d="M29.079,210.609c-0.13,0.032-0.326,0.064-0.521,0.064c-0.163,0-0.375-0.032-0.537-0.081v-5.161
			c0-0.781-0.098-1.384-0.326-1.808c-0.277-0.521-0.798-0.781-1.645-0.781c-0.814,0-1.791,0.456-2.426,0.944v6.806
			c-0.179,0.049-0.358,0.081-0.554,0.081c-0.163,0-0.358-0.032-0.505-0.081v-8.482c0.114-0.049,0.31-0.065,0.423-0.065
			c0.163,0,0.358,0.017,0.456,0.065l0.082,0.847h0.016c0.896-0.732,1.921-1.01,2.751-1.01c0.831,0,1.693,0.277,2.166,0.847
			c0.521,0.619,0.619,1.515,0.619,2.394V210.609z"/>
		<path style="fill:#58595B;" d="M37.09,210.674c-0.146,0-0.326-0.049-0.423-0.081l-0.098-0.977h-0.017
			c-0.7,0.732-1.53,1.14-2.458,1.14c-2.247,0-3.322-1.873-3.322-4.152c0-2.263,0.961-4.656,3.549-4.656
			c0.814,0,1.563,0.277,2.166,0.7v-3.939c0.146-0.049,0.342-0.082,0.521-0.082c0.195,0,0.391,0.049,0.537,0.082v11.885
			C37.432,210.642,37.269,210.674,37.09,210.674z M36.487,203.543c-0.586-0.488-1.335-0.732-2.1-0.732
			c-1.889,0-2.524,1.855-2.524,3.744c0,1.449,0.456,3.338,2.28,3.338c0.879,0,1.774-0.439,2.344-1.123V203.543z"/>
		<path style="fill:#58595B;" d="M46.012,207.369c0,2.475-1.025,3.387-3.175,3.387c-2.198,0-3.126-0.912-3.126-3.306v-5.34
			c0.146-0.049,0.342-0.081,0.521-0.081c0.228,0,0.407,0.049,0.538,0.081v5.21c0,1.579,0.244,2.621,2.084,2.621
			c1.726,0,2.1-1.01,2.1-2.653v-5.178c0.13-0.049,0.358-0.081,0.537-0.081c0.179,0,0.375,0.032,0.521,0.081V207.369z"/>
		<path style="fill:#58595B;" d="M50.066,210.756c-0.814,0-1.661-0.146-2.247-0.375c-0.049-0.113-0.082-0.309-0.082-0.456
			c0-0.098,0.033-0.342,0.065-0.439c0.603,0.244,1.465,0.439,2.182,0.439c1.237,0,2.002-0.521,2.002-1.546
			c0-0.929-0.472-1.254-1.758-1.727c-1.791-0.65-2.377-1.399-2.377-2.507c0-1.498,1.237-2.198,2.833-2.198
			c0.538,0,1.237,0.098,1.645,0.229c0.049,0.146,0.065,0.293,0.065,0.391c0,0.13-0.032,0.358-0.065,0.472
			c-0.537-0.162-1.107-0.261-1.661-0.261c-1.156,0-1.856,0.44-1.856,1.336c0,0.781,0.439,1.155,1.774,1.66
			c1.221,0.456,2.345,0.912,2.345,2.557C52.932,209.99,51.678,210.756,50.066,210.756z"/>
		<path style="fill:#58595B;" d="M59.038,210.512c-0.423,0.146-1.059,0.244-1.531,0.244c-1.612,0-2.377-0.766-2.377-2.572v-5.243
			h-1.465c-0.033-0.081-0.049-0.276-0.049-0.374c0-0.082,0.016-0.277,0.049-0.358l1.465-0.098v-2.214
			c0.13-0.049,0.342-0.082,0.521-0.082s0.407,0.033,0.537,0.082v2.214h2.394c0.033,0.081,0.065,0.325,0.065,0.407
			c0,0.113-0.032,0.31-0.065,0.423h-2.394v5.146c0,1.286,0.375,1.823,1.384,1.823c0.553,0,1.091-0.082,1.465-0.195
			c0.032,0.081,0.065,0.276,0.065,0.391C59.103,210.251,59.087,210.365,59.038,210.512z"/>
		<path style="fill:#58595B;" d="M64.411,202.892c-0.944,0.131-1.97,0.473-2.735,1.059v6.643c-0.163,0.049-0.358,0.081-0.538,0.081
			c-0.179,0-0.358-0.032-0.521-0.081v-8.482c0.098-0.032,0.245-0.065,0.407-0.065c0.13,0,0.31,0.033,0.439,0.065l0.082,1.042h0.016
			c0.7-0.603,1.921-1.107,2.849-1.205c0.033,0.098,0.065,0.277,0.065,0.424C64.476,202.533,64.443,202.745,64.411,202.892z"/>
		<path style="fill:#58595B;" d="M72.373,209.177c0,1.579-0.065,2.702-0.635,3.712c-0.651,1.155-1.938,1.709-3.093,1.709
			c-0.847,0-1.433-0.081-1.954-0.26c-0.049-0.098-0.065-0.261-0.065-0.392c0-0.098,0.033-0.309,0.065-0.406
			c0.488,0.146,1.074,0.26,1.856,0.26c1.791,0,2.768-1.286,2.768-3.517v-0.569c-0.83,0.732-1.758,1.042-2.605,1.042
			c-0.912,0-1.628-0.229-2.084-0.782c-0.504-0.602-0.57-1.481-0.57-2.36v-5.503c0.13-0.032,0.342-0.081,0.505-0.081
			c0.195,0,0.407,0.049,0.554,0.081v5.324c0,0.781,0.065,1.433,0.358,1.872c0.261,0.374,0.684,0.569,1.319,0.569
			c1.009,0,1.97-0.537,2.523-1.074v-6.691c0.147-0.032,0.358-0.081,0.554-0.081c0.163,0,0.375,0.049,0.505,0.081V209.177z"/>
		<path style="fill:#58595B;" d="M84.226,206.637h-5.454c0.065,1.872,0.944,3.288,2.979,3.288c0.732,0,1.417-0.098,2.019-0.244
			c0.032,0.082,0.065,0.244,0.065,0.342c0,0.163-0.033,0.31-0.082,0.424c-0.635,0.195-1.433,0.31-2.1,0.31
			c-1.286,0-2.263-0.407-2.866-1.059c-0.716-0.781-1.091-1.954-1.091-3.305c0-2.361,1.189-4.445,3.566-4.445
			c2.133,0,2.979,1.759,2.979,3.907C84.242,206.1,84.242,206.393,84.226,206.637z M83.184,205.854c0-1.497-0.163-3.109-1.97-3.109
			c-1.58,0-2.345,1.449-2.442,3.109H83.184z"/>
		<path style="fill:#58595B;" d="M91.862,210.674c-0.212,0-0.342-0.032-0.505-0.081c-0.098-0.439-0.195-0.766-0.521-1.205
			l-1.889-2.572l-2.002,2.67c-0.358,0.473-0.407,0.685-0.472,1.107c-0.179,0.049-0.375,0.081-0.521,0.081
			c-0.163,0-0.472-0.032-0.586-0.081c0.065-0.537,0.244-0.896,0.586-1.352l2.361-3.109l-2.019-2.67
			c-0.456-0.603-0.602-1.059-0.602-1.384c0.13-0.033,0.407-0.065,0.57-0.065c0.195,0,0.407,0.017,0.537,0.065
			c0.049,0.309,0.146,0.65,0.521,1.172l1.596,2.182l1.644-2.149c0.391-0.505,0.489-0.862,0.554-1.204
			c0.13-0.033,0.326-0.065,0.537-0.065c0.114,0,0.407,0.032,0.521,0.065c-0.016,0.455-0.244,0.879-0.602,1.367l-2.003,2.654
			l2.279,3.093c0.375,0.505,0.57,0.863,0.651,1.4C92.334,210.642,92.041,210.674,91.862,210.674z"/>
		<path style="fill:#58595B;" d="M99.433,209.714c-0.635,0.569-1.628,0.879-2.572,0.879c-0.668,0-1.287-0.114-1.742-0.276v4.103
			c-0.163,0.049-0.31,0.081-0.538,0.081c-0.179,0-0.391-0.032-0.521-0.081V202.11c0.082-0.032,0.277-0.065,0.44-0.065
			c0.163,0,0.309,0.033,0.423,0.065l0.098,0.896h0.016c0.619-0.651,1.547-1.059,2.491-1.059c1.025,0,1.937,0.439,2.507,1.254
			c0.472,0.684,0.765,1.66,0.765,2.85C100.8,207.679,100.295,208.932,99.433,209.714z M97.414,202.811
			c-0.863,0-1.726,0.358-2.295,1.074v5.601c0.423,0.195,1.074,0.31,1.628,0.31c1.758,0,2.947-1.156,2.947-3.695
			C99.693,204.097,98.912,202.811,97.414,202.811z"/>
		<path style="fill:#58595B;" d="M108.599,206.637h-5.454c0.065,1.872,0.944,3.288,2.979,3.288c0.732,0,1.417-0.098,2.019-0.244
			c0.032,0.082,0.065,0.244,0.065,0.342c0,0.163-0.033,0.31-0.082,0.424c-0.635,0.195-1.433,0.31-2.1,0.31
			c-1.286,0-2.263-0.407-2.866-1.059c-0.716-0.781-1.091-1.954-1.091-3.305c0-2.361,1.188-4.445,3.566-4.445
			c2.133,0,2.979,1.759,2.979,3.907C108.616,206.1,108.616,206.393,108.599,206.637z M107.557,205.854
			c0-1.497-0.163-3.109-1.97-3.109c-1.58,0-2.345,1.449-2.442,3.109H107.557z"/>
		<path style="fill:#58595B;" d="M114.184,202.892c-0.944,0.131-1.97,0.473-2.735,1.059v6.643c-0.163,0.049-0.358,0.081-0.538,0.081
			c-0.179,0-0.358-0.032-0.521-0.081v-8.482c0.098-0.032,0.245-0.065,0.407-0.065c0.13,0,0.31,0.033,0.439,0.065l0.082,1.042h0.016
			c0.7-0.603,1.921-1.107,2.849-1.205c0.033,0.098,0.065,0.277,0.065,0.424C114.25,202.533,114.217,202.745,114.184,202.892z"/>
		<path style="fill:#58595B;" d="M116.415,200.449c-0.375,0-0.684-0.325-0.684-0.716s0.31-0.7,0.684-0.7s0.7,0.31,0.7,0.7
			S116.79,200.449,116.415,200.449z M116.952,210.593c-0.146,0.049-0.358,0.081-0.537,0.081s-0.375-0.032-0.521-0.081v-8.482
			c0.13-0.032,0.342-0.081,0.504-0.081c0.179,0,0.423,0.032,0.554,0.081V210.593z"/>
		<path style="fill:#58595B;" d="M125.288,206.637h-5.454c0.065,1.872,0.944,3.288,2.979,3.288c0.732,0,1.417-0.098,2.019-0.244
			c0.032,0.082,0.065,0.244,0.065,0.342c0,0.163-0.033,0.31-0.082,0.424c-0.635,0.195-1.433,0.31-2.1,0.31
			c-1.286,0-2.263-0.407-2.866-1.059c-0.716-0.781-1.091-1.954-1.091-3.305c0-2.361,1.189-4.445,3.566-4.445
			c2.133,0,2.979,1.759,2.979,3.907C125.305,206.1,125.305,206.393,125.288,206.637z M124.246,205.854
			c0-1.497-0.163-3.109-1.97-3.109c-1.58,0-2.345,1.449-2.442,3.109H124.246z"/>
		<path style="fill:#58595B;" d="M133.592,210.609c-0.13,0.032-0.326,0.064-0.521,0.064c-0.163,0-0.375-0.032-0.537-0.081v-5.161
			c0-0.781-0.098-1.384-0.326-1.808c-0.277-0.521-0.798-0.781-1.645-0.781c-0.814,0-1.791,0.456-2.426,0.944v6.806
			c-0.179,0.049-0.358,0.081-0.554,0.081c-0.163,0-0.358-0.032-0.505-0.081v-8.482c0.114-0.049,0.31-0.065,0.423-0.065
			c0.163,0,0.358,0.017,0.456,0.065l0.082,0.847h0.016c0.896-0.732,1.921-1.01,2.751-1.01c0.831,0,1.693,0.277,2.166,0.847
			c0.521,0.619,0.619,1.515,0.619,2.394V210.609z"/>
		<path style="fill:#58595B;" d="M141.098,203.136c-0.521-0.211-1.205-0.342-1.807-0.342c-2.117,0-2.898,1.645-2.898,3.631
			c0,1.954,0.749,3.468,2.882,3.468c0.57,0,1.253-0.098,1.758-0.244c0.032,0.098,0.065,0.212,0.065,0.342
			c0,0.195-0.033,0.342-0.082,0.456c-0.472,0.195-1.237,0.31-1.839,0.31c-2.654,0-3.892-1.742-3.892-4.299
			c0-2.653,1.352-4.51,3.94-4.51c0.619,0,1.351,0.146,1.856,0.375c0.049,0.13,0.065,0.26,0.065,0.406
			C141.146,202.892,141.13,203.022,141.098,203.136z"/>
		<path style="fill:#58595B;" d="M148.897,206.637h-5.454c0.065,1.872,0.944,3.288,2.979,3.288c0.732,0,1.417-0.098,2.019-0.244
			c0.032,0.082,0.065,0.244,0.065,0.342c0,0.163-0.033,0.31-0.082,0.424c-0.635,0.195-1.433,0.31-2.1,0.31
			c-1.286,0-2.263-0.407-2.866-1.059c-0.716-0.781-1.091-1.954-1.091-3.305c0-2.361,1.188-4.445,3.566-4.445
			c2.133,0,2.979,1.759,2.979,3.907C148.914,206.1,148.914,206.393,148.897,206.637z M147.855,205.854
			c0-1.497-0.163-3.109-1.97-3.109c-1.58,0-2.345,1.449-2.442,3.109H147.855z"/>
		<path style="fill:#58595B;" d="M160.327,206.637h-5.454c0.064,1.872,0.944,3.288,2.979,3.288c0.733,0,1.417-0.098,2.02-0.244
			c0.032,0.082,0.064,0.244,0.064,0.342c0,0.163-0.032,0.31-0.081,0.424c-0.635,0.195-1.433,0.31-2.101,0.31
			c-1.286,0-2.263-0.407-2.865-1.059c-0.716-0.781-1.091-1.954-1.091-3.305c0-2.361,1.188-4.445,3.565-4.445
			c2.133,0,2.979,1.759,2.979,3.907C160.343,206.1,160.343,206.393,160.327,206.637z M159.285,205.854
			c0-1.497-0.163-3.109-1.971-3.109c-1.579,0-2.344,1.449-2.441,3.109H159.285z"/>
		<path style="fill:#58595B;" d="M167.865,204.178l-2.557,6.415c-0.146,0.049-0.309,0.081-0.439,0.081
			c-0.179,0-0.325-0.032-0.456-0.081l-2.637-6.415c-0.294-0.732-0.424-1.465-0.424-2.067c0.13-0.032,0.358-0.081,0.505-0.081
			c0.195,0,0.391,0.032,0.554,0.081c0.016,0.554,0.081,1.188,0.325,1.774l2.117,5.373h0.032l2.052-5.373
			c0.228-0.569,0.342-1.205,0.342-1.774c0.113-0.049,0.357-0.081,0.569-0.081c0.114,0,0.326,0.016,0.473,0.064
			C168.305,202.68,168.19,203.38,167.865,204.178z"/>
		<path style="fill:#58595B;" d="M175.746,206.637h-5.454c0.064,1.872,0.944,3.288,2.979,3.288c0.732,0,1.416-0.098,2.019-0.244
			c0.032,0.082,0.065,0.244,0.065,0.342c0,0.163-0.033,0.31-0.082,0.424c-0.635,0.195-1.433,0.31-2.101,0.31
			c-1.286,0-2.263-0.407-2.865-1.059c-0.716-0.781-1.091-1.954-1.091-3.305c0-2.361,1.188-4.445,3.565-4.445
			c2.133,0,2.979,1.759,2.979,3.907C175.762,206.1,175.762,206.393,175.746,206.637z M174.704,205.854
			c0-1.497-0.163-3.109-1.971-3.109c-1.579,0-2.344,1.449-2.441,3.109H174.704z"/>
		<path style="fill:#58595B;" d="M181.33,202.892c-0.944,0.131-1.97,0.473-2.735,1.059v6.643c-0.162,0.049-0.357,0.081-0.537,0.081
			c-0.179,0-0.358-0.032-0.521-0.081v-8.482c0.098-0.032,0.244-0.065,0.406-0.065c0.131,0,0.31,0.033,0.44,0.065l0.081,1.042h0.017
			c0.7-0.603,1.921-1.107,2.849-1.205c0.033,0.098,0.065,0.277,0.065,0.424C181.396,202.533,181.363,202.745,181.33,202.892z"/>
		<path style="fill:#58595B;" d="M189.292,209.177c0,1.579-0.064,2.702-0.635,3.712c-0.651,1.155-1.938,1.709-3.093,1.709
			c-0.847,0-1.434-0.081-1.954-0.26c-0.049-0.098-0.065-0.261-0.065-0.392c0-0.098,0.033-0.309,0.065-0.406
			c0.488,0.146,1.074,0.26,1.855,0.26c1.791,0,2.769-1.286,2.769-3.517v-0.569c-0.831,0.732-1.759,1.042-2.605,1.042
			c-0.911,0-1.628-0.229-2.084-0.782c-0.505-0.602-0.569-1.481-0.569-2.36v-5.503c0.13-0.032,0.342-0.081,0.505-0.081
			c0.195,0,0.406,0.049,0.553,0.081v5.324c0,0.781,0.065,1.433,0.358,1.872c0.261,0.374,0.684,0.569,1.319,0.569
			c1.009,0,1.97-0.537,2.523-1.074v-6.691c0.146-0.032,0.357-0.081,0.554-0.081c0.162,0,0.374,0.049,0.504,0.081V209.177z"/>
		<path style="fill:#58595B;" d="M201.405,209.177c0,1.579-0.064,2.702-0.635,3.712c-0.651,1.155-1.938,1.709-3.093,1.709
			c-0.847,0-1.434-0.081-1.954-0.26c-0.049-0.098-0.065-0.261-0.065-0.392c0-0.098,0.033-0.309,0.065-0.406
			c0.488,0.146,1.074,0.26,1.855,0.26c1.791,0,2.769-1.286,2.769-3.517v-0.569c-0.831,0.732-1.759,1.042-2.605,1.042
			c-0.911,0-1.628-0.229-2.084-0.782c-0.505-0.602-0.569-1.481-0.569-2.36v-5.503c0.13-0.032,0.342-0.081,0.505-0.081
			c0.195,0,0.406,0.049,0.553,0.081v5.324c0,0.781,0.065,1.433,0.358,1.872c0.261,0.374,0.684,0.569,1.319,0.569
			c1.009,0,1.97-0.537,2.523-1.074v-6.691c0.146-0.032,0.357-0.081,0.554-0.081c0.162,0,0.374,0.049,0.504,0.081V209.177z"/>
		<path style="fill:#58595B;" d="M209.677,206.637h-5.454c0.064,1.872,0.944,3.288,2.979,3.288c0.733,0,1.417-0.098,2.02-0.244
			c0.032,0.082,0.064,0.244,0.064,0.342c0,0.163-0.032,0.31-0.081,0.424c-0.635,0.195-1.433,0.31-2.101,0.31
			c-1.286,0-2.263-0.407-2.865-1.059c-0.716-0.781-1.091-1.954-1.091-3.305c0-2.361,1.188-4.445,3.565-4.445
			c2.133,0,2.979,1.759,2.979,3.907C209.692,206.1,209.692,206.393,209.677,206.637z M208.635,205.854
			c0-1.497-0.163-3.109-1.971-3.109c-1.579,0-2.344,1.449-2.441,3.109H208.635z"/>
		<path style="fill:#58595B;" d="M217.264,208.509c0,0.586,0,1.318,0.032,2.084c-0.113,0.049-0.293,0.081-0.439,0.081
			c-0.13,0-0.31-0.032-0.439-0.081c-0.049-0.261-0.081-0.603-0.098-0.912h-0.017c-0.554,0.685-1.53,1.075-2.491,1.075
			c-1.514,0-2.783-0.847-2.783-2.589c0-0.993,0.406-1.726,1.042-2.182c0.716-0.505,1.66-0.668,2.67-0.668
			c0.569,0,1.042,0.033,1.465,0.098v-0.472c0-1.628-0.667-2.166-2.035-2.166c-0.765,0-1.709,0.163-2.296,0.31
			c-0.032-0.081-0.064-0.26-0.064-0.423c0-0.114,0.032-0.277,0.081-0.375c0.7-0.211,1.628-0.342,2.41-0.342
			c1.938,0,2.963,0.88,2.963,2.865V208.509z M216.205,206.213c-0.472-0.064-0.96-0.098-1.384-0.098
			c-0.798,0-1.514,0.146-2.003,0.521c-0.439,0.325-0.684,0.847-0.684,1.514c0,1.188,0.766,1.759,1.823,1.759
			c0.88,0,1.808-0.424,2.247-1.091V206.213z"/>
		<path style="fill:#58595B;" d="M223.304,202.892c-0.944,0.131-1.97,0.473-2.735,1.059v6.643c-0.162,0.049-0.357,0.081-0.537,0.081
			c-0.179,0-0.358-0.032-0.521-0.081v-8.482c0.098-0.032,0.244-0.065,0.406-0.065c0.131,0,0.31,0.033,0.44,0.065l0.081,1.042h0.017
			c0.7-0.603,1.921-1.107,2.849-1.205c0.033,0.098,0.065,0.277,0.065,0.424C223.369,202.533,223.337,202.745,223.304,202.892z"/>
	</g>
	<g>
		<path style="fill:#B3A068;" d="M30.639,168.845c-10.679,0-16.336-7.389-16.336-20.088s5.657-20.088,16.336-20.088
			c10.679,0,16.335,7.389,16.335,20.088S41.317,168.845,30.639,168.845z M30.639,135.769c-4.964,0-7.793,3.81-7.793,12.988
			c0,9.178,2.829,12.988,7.793,12.988c4.964,0,7.792-3.811,7.792-12.988C38.431,139.579,35.603,135.769,30.639,135.769z"/>
		<path style="fill:#B3A068;" d="M62.33,151.182c0.866,2.424,1.732,5.137,2.136,7.446h0.116c0.404-2.31,1.212-5.022,2.078-7.446
			l4.271-12.354c1.097-3.175,1.732-6.234,1.79-9.582c1.154-0.173,2.771-0.289,4.098-0.289c1.212,0,2.944,0.115,3.983,0.289
			c0,3.868-0.692,7.562-2.251,11.66l-10.448,27.361c-0.692,0.173-2.309,0.289-3.694,0.289c-1.559,0-2.828-0.116-3.867-0.289
			l-10.275-27.246c-1.559-4.099-2.251-7.908-2.251-11.776c1.039-0.173,2.424-0.289,4.156-0.289c1.328,0,3.001,0.115,4.041,0.289
			c0,3.579,0.635,6.407,1.732,9.582L62.33,151.182z"/>
		<path style="fill:#B3A068;" d="M108.973,168.268H84.555v-39.021h23.898c0.231,0.635,0.404,1.847,0.404,3.463
			c0,1.27-0.116,2.367-0.404,3.579H92.81v8.428h13.219c0.231,0.635,0.404,1.79,0.404,3.406c0,1.27-0.115,2.309-0.404,3.521H92.81
			v9.583h16.163c0.231,0.635,0.404,1.847,0.404,3.463C109.376,165.959,109.261,167.056,108.973,168.268z"/>
		<path style="fill:#B3A068;" d="M142.974,168.21c-1.5,0.23-3.059,0.347-4.849,0.347c-1.616,0-3.232-0.059-4.329-0.289
			l-7.908-14.027h-3.406v14.027c-1.443,0.23-2.655,0.289-4.214,0.289c-1.386,0-2.598-0.059-4.041-0.289v-39.021
			c2.655-0.173,8.197-0.289,11.545-0.289c9.813,0,14.72,3.463,14.72,12.468c0,4.791-2.886,9.582-6.927,11.314L142.974,168.21z
			 M126.292,135.711c-1.27,0-2.829,0.058-3.81,0.115v11.545h2.886c4.733,0,6.811-1.732,6.811-6.003S130.102,135.711,126.292,135.711
			z"/>
		<path style="fill:#B3A068;" d="M181.362,168.268h-24.648c-0.52-1.212-0.692-2.713-0.692-4.041c0-0.692,0.058-1.559,0.173-2.136
			c4.041-4.098,8.37-8.716,12.18-12.987c2.829-3.175,5.08-6.119,5.08-9.352c0-2.829-1.963-4.445-5.426-4.445
			c-2.54,0-6.581,0.866-10.333,2.655c-0.23-0.981-0.462-2.713-0.462-4.098c0-0.693,0.115-2.078,0.347-3.002
			c2.828-1.212,7.389-2.309,11.833-2.309c6.581,0,12.354,3.059,12.354,10.159c0,6.234-3.349,10.448-10.506,17.952
			c-1.386,1.501-2.887,2.944-4.388,4.503h14.604c0.173,0.75,0.289,2.193,0.289,3.578
			C181.767,165.901,181.593,167.459,181.362,168.268z"/>
		<path style="fill:#B3A068;" d="M186.386,178.716c-0.924-0.635-2.136-1.848-2.482-3.175c2.424-1.732,4.214-3.81,5.021-5.945
			c-1.097-0.981-1.962-2.367-1.962-4.272c0-2.251,1.962-4.098,4.271-4.098c2.598,0,4.329,1.904,4.329,4.733
			C195.563,170.461,191.35,175.829,186.386,178.716z"/>
		<path style="fill:#B3A068;" d="M211.495,168.845c-9.236,0-13.738-6.812-13.738-20.088c0-13.392,4.676-20.088,13.911-20.088
			c9.179,0,13.681,6.696,13.681,20.088C225.349,162.033,220.673,168.845,211.495,168.845z M211.553,135.423
			c-3.694,0-5.311,3.405-5.311,13.334c0,9.756,1.616,13.334,5.311,13.334s5.311-3.578,5.311-13.334
			C216.863,138.828,215.247,135.423,211.553,135.423z"/>
		<path style="fill:#B3A068;" d="M241.455,168.845c-9.236,0-13.738-6.812-13.738-20.088c0-13.392,4.676-20.088,13.911-20.088
			c9.179,0,13.681,6.696,13.681,20.088C255.309,162.033,250.633,168.845,241.455,168.845z M241.513,135.423
			c-3.694,0-5.311,3.405-5.311,13.334c0,9.756,1.616,13.334,5.311,13.334s5.311-3.578,5.311-13.334
			C246.823,138.828,245.207,135.423,241.513,135.423z"/>
		<path style="fill:#B3A068;" d="M271.415,168.845c-9.236,0-13.738-6.812-13.738-20.088c0-13.392,4.676-20.088,13.911-20.088
			c9.179,0,13.681,6.696,13.681,20.088C285.269,162.033,280.593,168.845,271.415,168.845z M271.473,135.423
			c-3.694,0-5.311,3.405-5.311,13.334c0,9.756,1.616,13.334,5.311,13.334s5.311-3.578,5.311-13.334
			C276.783,138.828,275.167,135.423,271.473,135.423z"/>
	</g>
</g>
</svg>
