<?xml version="1.0" encoding="utf-8"?>
<!-- Generator: Adobe Illustrator 16.0.0, SVG Export Plug-In . SVG Version: 6.00 Build 0)  -->
<!DOCTYPE svg PUBLIC "-//W3C//DTD SVG 1.1//EN" "http://www.w3.org/Graphics/SVG/1.1/DTD/svg11.dtd">
<svg version="1.1" id="Layer_1" xmlns="http://www.w3.org/2000/svg" xmlns:xlink="http://www.w3.org/1999/xlink" x="0px" y="0px"
	 width="300px" height="300px" viewBox="0 0 300 300" enable-background="new 0 0 300 300" xml:space="preserve">
<g>
	<path fill="#59A6AE" d="M23.073,142.167c-2.896,0-6.03-0.04-8.569-0.198V115.15c2.222-0.119,4.88-0.198,7.141-0.198
		c4.602,0,9.601,0.952,9.601,6.863c0,2.777-1.468,4.8-3.769,5.594v0.08c3.452,0.635,5.673,3.015,5.673,6.585
		C33.15,140.223,28.508,142.167,23.073,142.167z M22.082,118.8c-0.833,0-2.063,0.04-2.777,0.079v7.142h2.698
		c2.817,0,4.602-0.992,4.602-3.928C26.604,119.276,24.303,118.8,22.082,118.8z M22.319,129.829h-3.015v8.371
		c0.913,0.08,2.341,0.119,3.571,0.119c3.491,0,5.554-1.15,5.554-4.364C28.429,130.384,25.493,129.829,22.319,129.829z"/>
	<path fill="#59A6AE" d="M55.562,141.969c-0.913,0.119-1.667,0.198-2.46,0.198c-1.031,0-1.983-0.079-2.737-0.198l-5.713-9.998
		h-3.095v9.998c-0.833,0.119-1.587,0.198-2.459,0.198c-0.793,0-1.547-0.079-2.341-0.198V115.15c1.785-0.08,4.8-0.198,7.181-0.198
		c6.07,0,10.355,1.904,10.355,8.093c0,4.007-1.904,7.062-5.118,8.172L55.562,141.969z M44.493,118.8c-0.992,0-2.38,0.04-2.936,0.04
		v9.125h2.698c3.293,0,5.197-1.151,5.197-4.84C49.452,119.871,47.547,118.8,44.493,118.8z"/>
	<path fill="#59A6AE" d="M75.553,141.969H59.366V115.15h15.71c0.159,0.437,0.238,1.19,0.238,1.984c0,0.714-0.079,1.349-0.238,2.023
		h-10.91v6.982h9.323c0.159,0.437,0.238,1.19,0.238,1.984c0,0.714-0.079,1.349-0.238,2.023h-9.323v7.815h11.386
		c0.159,0.437,0.238,1.19,0.238,1.983C75.791,140.66,75.711,141.294,75.553,141.969z"/>
	<path fill="#59A6AE" d="M102.17,141.969c-0.437,0.119-1.508,0.198-2.539,0.198c-0.794,0-1.904-0.079-2.46-0.198l-2.143-6.03H85.11
		l-2.023,6.03c-0.674,0.119-1.587,0.198-2.499,0.198c-0.794,0-1.746-0.079-2.301-0.198l9.402-26.819
		c0.516-0.119,1.587-0.198,2.261-0.198c0.794,0,1.746,0.119,2.143,0.198L102.17,141.969z M86.419,131.971h7.181l-2.619-7.736
		c-0.476-1.388-0.793-2.618-1.032-3.809h-0.04c-0.278,1.23-0.595,2.42-1.031,3.769L86.419,131.971z"/>
	<path fill="#59A6AE" d="M125.295,141.929c-0.635,0.159-1.984,0.238-2.817,0.238c-0.913,0-1.983-0.079-2.777-0.198l-7.577-11.426
		l-2.301,2.5v8.926c-0.714,0.119-1.547,0.198-2.459,0.198c-0.833,0-1.667-0.079-2.341-0.198V115.15
		c0.674-0.119,1.547-0.198,2.341-0.198c0.912,0,1.746,0.079,2.459,0.198v12.298l6.467-7.22c1.428-1.626,2.38-3.372,2.698-4.999
		c0.595-0.119,1.468-0.199,2.261-0.199c0.754,0,1.746,0.08,2.341,0.199c-0.357,2.579-1.389,4.562-4.007,7.418l-4.285,4.642
		L125.295,141.929z"/>
	<path fill="#59A6AE" d="M138.741,141.969c-0.714,0.119-1.547,0.198-2.38,0.198s-1.666-0.079-2.38-0.198v-22.812h-7.379
		c-0.158-0.516-0.238-1.388-0.238-1.983c0-0.556,0.08-1.547,0.238-2.023h19.52c0.158,0.516,0.238,1.389,0.238,1.984
		c0,0.555-0.08,1.547-0.238,2.023h-7.379V141.969z"/>
	<path fill="#59A6AE" d="M169.92,141.969c-0.675,0.119-1.428,0.198-2.301,0.198c-0.913,0-1.746-0.079-2.46-0.198v-11.505h-10.791
		v11.505c-0.714,0.119-1.508,0.198-2.46,0.198c-0.833,0-1.626-0.079-2.34-0.198V115.15c0.674-0.119,1.507-0.198,2.301-0.198
		c0.912,0,1.785,0.079,2.499,0.198v11.267h10.791V115.15c0.794-0.119,1.587-0.198,2.42-0.198c0.794,0,1.666,0.079,2.341,0.198
		V141.969z"/>
	<path fill="#59A6AE" d="M193.68,141.969c-0.912,0.119-1.666,0.198-2.46,0.198c-1.031,0-1.983-0.079-2.737-0.198l-5.713-9.998
		h-3.094v9.998c-0.833,0.119-1.587,0.198-2.46,0.198c-0.794,0-1.547-0.079-2.341-0.198V115.15c1.785-0.08,4.801-0.198,7.181-0.198
		c6.07,0,10.354,1.904,10.354,8.093c0,4.007-1.904,7.062-5.117,8.172L193.68,141.969z M182.611,118.8
		c-0.992,0-2.381,0.04-2.936,0.04v9.125h2.697c3.293,0,5.197-1.151,5.197-4.84C187.57,119.871,185.666,118.8,182.611,118.8z"/>
	<path fill="#59A6AE" d="M206.808,142.365c-6.903,0-11.068-4.642-11.068-13.766c0-9.006,4.205-13.846,11.108-13.846
		s11.028,4.84,11.028,13.846C217.876,137.724,213.711,142.365,206.808,142.365z M206.848,118.8c-3.77,0-6.11,2.658-6.11,9.72
		c0,6.982,2.302,9.799,6.07,9.799c3.77,0,6.109-2.817,6.109-9.799C212.917,121.458,210.616,118.8,206.848,118.8z"/>
	<path fill="#59A6AE" d="M221.642,115.15c0.715-0.119,1.548-0.198,2.341-0.198c0.913,0,1.706,0.079,2.46,0.198v17.337
		c0,3.729,1.111,6.07,4.999,6.07s5.038-2.34,5.038-6.07V115.15c0.675-0.119,1.508-0.198,2.301-0.198
		c0.794,0,1.667,0.079,2.341,0.198v16.821c0,6.903-2.459,10.394-9.68,10.394c-7.261,0-9.8-3.491-9.8-10.394V115.15z"/>
	<path fill="#59A6AE" d="M265.913,140.66c-2.023,0.992-5.197,1.706-8.292,1.706c-8.609,0-12.774-5.197-12.774-13.488
		c0-8.53,4.84-14.124,13.171-14.124c2.856,0,5.197,0.516,6.863,1.151c0.119,0.516,0.238,1.15,0.238,1.865
		c0,0.714-0.04,1.428-0.158,2.103c-1.984-0.556-4.364-0.992-6.745-0.992c-5.871,0-8.371,4.166-8.371,9.918
		c0,5.435,2.183,9.402,7.697,9.402c1.189,0,2.578-0.159,3.57-0.476v-8.529c0.754-0.119,1.547-0.199,2.301-0.199
		c0.833,0,1.666,0.08,2.5,0.199V140.66z"/>
	<path fill="#59A6AE" d="M290.982,141.969c-0.675,0.119-1.429,0.198-2.302,0.198c-0.912,0-1.745-0.079-2.459-0.198v-11.505h-10.791
		v11.505c-0.715,0.119-1.508,0.198-2.46,0.198c-0.833,0-1.627-0.079-2.341-0.198V115.15c0.675-0.119,1.508-0.198,2.301-0.198
		c0.913,0,1.785,0.079,2.5,0.198v11.267h10.791V115.15c0.793-0.119,1.587-0.198,2.42-0.198c0.793,0,1.666,0.079,2.341,0.198V141.969
		z"/>
</g>
<g>
	<path fill="#59A6AE" d="M19.622,178.173c-0.674,0.119-1.468,0.198-2.38,0.198c-0.873,0-1.706-0.079-2.42-0.198v-26.818
		c0.714-0.119,1.587-0.199,2.42-0.199c0.873,0,1.706,0.08,2.38,0.199V178.173z"/>
	<path fill="#59A6AE" d="M45.804,178.173c-0.357,0.119-1.468,0.158-2.063,0.158c-0.556,0-1.468-0.039-1.984-0.158L29.3,159.368
		v18.805c-0.357,0.119-1.508,0.198-2.262,0.198c-0.674,0-1.587-0.079-2.142-0.198v-26.818c0.476-0.08,1.587-0.159,2.142-0.159
		c0.635,0,1.706,0.04,2.182,0.159l12.18,18.368v-18.368c0.595-0.119,1.547-0.199,2.182-0.199s1.666,0.08,2.222,0.199V178.173z"/>
	<path fill="#59A6AE" d="M76.822,172.143h-3.65v5.99c-0.556,0.119-1.389,0.198-2.301,0.198c-0.912,0-1.706-0.079-2.38-0.198v-5.99
		H57.264c-0.119-0.516-0.238-1.27-0.238-1.864c0-0.556,0.079-1.35,0.278-1.785l7.895-17.139c0.635-0.119,1.547-0.199,2.261-0.199
		c0.992,0,2.063,0.08,2.737,0.199l-8.093,16.781h6.387v-5.515c0.674-0.119,1.587-0.198,2.38-0.198s1.667,0.079,2.301,0.198v5.515
		h3.65c0.198,0.595,0.238,1.389,0.238,2.062C77.06,170.833,76.981,171.667,76.822,172.143z"/>
	<path fill="#59A6AE" d="M87.49,178.569c-6.07,0-9.046-4.761-9.046-13.806c0-9.006,3.016-13.807,9.085-13.807
		s9.045,4.801,9.045,13.807C96.575,173.809,93.56,178.569,87.49,178.569z M87.53,154.766c-2.579,0-4.166,2.222-4.166,9.958
		s1.547,10.037,4.126,10.037c2.579,0,4.166-2.301,4.166-9.997C91.656,156.987,90.108,154.766,87.53,154.766z"/>
	<path fill="#59A6AE" d="M118.945,178.173c-0.675,0.119-1.468,0.198-2.38,0.198c-0.873,0-1.706-0.079-2.42-0.198v-9.283
		l-6.109-12.021c-0.873-1.705-1.349-3.451-1.349-5.514c0.635-0.08,1.547-0.159,2.34-0.159c0.754,0,1.746,0.04,2.38,0.159
		c-0.04,1.586,0.198,2.896,0.952,4.363l2.698,5.316c0.556,1.071,1.032,2.222,1.468,3.61h0.079c0.516-1.389,1.031-2.539,1.587-3.61
		l2.658-5.316c0.754-1.468,0.873-2.896,0.873-4.363c0.635-0.119,1.587-0.199,2.341-0.199c0.793,0,1.667,0.119,2.301,0.199
		c0,2.062-0.635,4.165-1.349,5.594l-6.07,11.941V178.173z"/>
	<path fill="#59A6AE" d="M145.681,178.173h-16.187v-26.818h15.71c0.159,0.436,0.238,1.189,0.238,1.983
		c0,0.714-0.08,1.349-0.238,2.023h-10.91v6.982h9.323c0.159,0.437,0.238,1.189,0.238,1.983c0,0.714-0.08,1.349-0.238,2.023h-9.323
		v7.815h11.386c0.159,0.437,0.238,1.19,0.238,1.983C145.919,176.863,145.84,177.498,145.681,178.173z"/>
	<path fill="#59A6AE" d="M172.259,178.173c-0.437,0.119-1.508,0.198-2.539,0.198c-0.794,0-1.904-0.079-2.46-0.198l-2.143-6.03
		h-9.918l-2.023,6.03c-0.675,0.119-1.587,0.198-2.499,0.198c-0.794,0-1.746-0.079-2.301-0.198l9.403-26.818
		c0.516-0.119,1.587-0.199,2.261-0.199c0.794,0,1.746,0.119,2.143,0.199L172.259,178.173z M156.509,168.175h7.181l-2.618-7.735
		c-0.477-1.389-0.794-2.619-1.032-3.809H160c-0.278,1.229-0.596,2.42-1.032,3.769L156.509,168.175z"/>
	<path fill="#59A6AE" d="M193.916,178.173c-0.912,0.119-1.666,0.198-2.46,0.198c-1.031,0-1.983-0.079-2.737-0.198l-5.713-9.998
		h-3.094v9.998c-0.833,0.119-1.587,0.198-2.46,0.198c-0.794,0-1.547-0.079-2.341-0.198v-26.818c1.785-0.08,4.801-0.199,7.181-0.199
		c6.07,0,10.354,1.904,10.354,8.094c0,4.007-1.904,7.062-5.117,8.173L193.916,178.173z M182.848,155.004
		c-0.992,0-2.381,0.04-2.936,0.04v9.124h2.697c3.293,0,5.197-1.15,5.197-4.84C187.807,156.075,185.902,155.004,182.848,155.004z"/>
	<path fill="#59A6AE" d="M204.267,178.569c-2.341,0-5.673-0.396-7.736-1.468c-0.119-0.595-0.198-1.19-0.198-1.785
		c0-0.794,0.079-1.587,0.278-2.341c2.261,0.912,5.078,1.508,7.3,1.508c2.936,0,5.157-1.031,5.157-3.65
		c0-2.062-1.111-3.094-5.197-4.482c-5.396-1.825-7.34-4.443-7.34-7.975c0-5.236,4.643-7.419,9.363-7.419
		c2.262,0,4.205,0.278,6.149,0.794c0.158,0.595,0.198,1.229,0.198,1.824c0,0.715-0.079,1.429-0.238,2.104
		c-1.825-0.437-3.888-0.715-5.792-0.715c-2.381,0-4.88,0.794-4.88,3.214c0,1.706,1.031,2.816,4.84,4.205
		c4.959,1.825,7.578,3.491,7.578,8.094C213.749,175.951,209.623,178.569,204.267,178.569z"/>
</g>
<g>
	<path fill="#333333" d="M13.907,196.012c-0.5,0-0.913-0.435-0.913-0.956s0.413-0.934,0.913-0.934s0.935,0.412,0.935,0.934
		S14.407,196.012,13.907,196.012z M14.624,209.549c-0.195,0.065-0.478,0.108-0.717,0.108s-0.5-0.043-0.695-0.108v-11.32
		c0.174-0.044,0.456-0.108,0.674-0.108c0.239,0,0.564,0.043,0.738,0.108V209.549z"/>
	<path fill="#333333" d="M26.356,209.57c-0.174,0.044-0.435,0.087-0.695,0.087c-0.217,0-0.5-0.043-0.717-0.108v-6.888
		c0-1.043-0.131-1.848-0.435-2.412c-0.37-0.695-1.065-1.043-2.195-1.043c-1.086,0-2.39,0.608-3.238,1.26v9.083
		c-0.239,0.065-0.478,0.108-0.738,0.108c-0.218,0-0.479-0.043-0.674-0.108v-11.32c0.152-0.065,0.413-0.087,0.565-0.087
		c0.217,0,0.478,0.021,0.608,0.087l0.109,1.13h0.021c1.195-0.979,2.564-1.348,3.672-1.348c1.108,0,2.26,0.369,2.89,1.13
		c0.695,0.826,0.826,2.021,0.826,3.194V209.57z"/>
	<path fill="#333333" d="M40.04,209.44c-0.565,0.195-1.413,0.326-2.043,0.326c-2.151,0-3.172-1.021-3.172-3.434v-6.996h-1.956
		c-0.043-0.109-0.065-0.37-0.065-0.5c0-0.109,0.022-0.369,0.065-0.479l1.956-0.13v-2.955c0.174-0.065,0.456-0.108,0.695-0.108
		c0.239,0,0.543,0.043,0.717,0.108v2.955h3.194c0.043,0.108,0.087,0.435,0.087,0.543c0,0.152-0.044,0.413-0.087,0.565h-3.194v6.865
		c0,1.717,0.5,2.434,1.847,2.434c0.739,0,1.456-0.108,1.956-0.26c0.043,0.108,0.087,0.369,0.087,0.521
		C40.127,209.093,40.105,209.245,40.04,209.44z"/>
	<path fill="#333333" d="M50.836,209.549c-0.196,0.065-0.435,0.108-0.652,0.108c-0.261,0-0.543-0.043-0.761-0.108v-6.866
		c0-2.391-0.608-3.477-2.629-3.477c-1.086,0-2.39,0.608-3.237,1.26v9.083c-0.239,0.065-0.5,0.108-0.739,0.108
		c-0.217,0-0.478-0.043-0.673-0.108v-15.862c0.196-0.064,0.5-0.108,0.695-0.108s0.521,0.044,0.717,0.108v5.585
		c1.151-0.892,2.521-1.261,3.585-1.261c1.108,0,2.238,0.369,2.868,1.13c0.695,0.826,0.826,2.021,0.826,3.194V209.549z"/>
	<path fill="#333333" d="M61.806,204.269h-7.279c0.087,2.499,1.261,4.39,3.977,4.39c0.978,0,1.891-0.131,2.694-0.326
		c0.043,0.108,0.087,0.326,0.087,0.456c0,0.218-0.043,0.413-0.108,0.565c-0.848,0.261-1.912,0.413-2.803,0.413
		c-1.716,0-3.02-0.544-3.824-1.413c-0.956-1.043-1.456-2.607-1.456-4.411c0-3.15,1.586-5.932,4.758-5.932
		c2.846,0,3.976,2.347,3.976,5.215C61.827,203.552,61.827,203.942,61.806,204.269z M60.415,203.226c0-1.999-0.217-4.15-2.629-4.15
		c-2.108,0-3.129,1.935-3.26,4.15H60.415z"/>
	<path fill="#333333" d="M77.163,207.658c0,1.63-0.087,3.585-0.869,4.933c-0.935,1.607-2.607,2.303-4.281,2.303
		c-0.956,0-1.782-0.108-2.477-0.348c-0.065-0.13-0.087-0.348-0.087-0.521c0-0.13,0.043-0.391,0.087-0.521
		c0.674,0.174,1.456,0.305,2.238,0.305c2.737,0,3.976-1.695,3.976-4.672v-0.912c-0.847,0.891-2.042,1.325-3.02,1.325
		c-2.89,0-4.39-2.238-4.39-5.389c0-3.868,2.282-6.149,5.649-6.149c0.891,0,2.238,0.261,3.173,0.631V207.658z M75.75,199.337
		c-0.782-0.218-1.347-0.283-1.89-0.283c-2.76,0-4.063,2.325-4.063,5.041c0,2.412,0.913,4.303,3.042,4.303
		c1.086,0,2.194-0.543,2.912-1.304V199.337z"/>
	<path fill="#333333" d="M81.57,209.549c-0.239,0.065-0.479,0.108-0.739,0.108c-0.217,0-0.478-0.043-0.673-0.108v-15.862
		c0.196-0.043,0.435-0.108,0.717-0.108c0.239,0,0.5,0.044,0.695,0.108V209.549z"/>
	<path fill="#333333" d="M88.609,209.767c-2.846,0-4.671-1.956-4.671-5.867s1.847-5.889,4.693-5.889
		c2.846,0,4.649,1.934,4.649,5.846C93.28,207.767,91.455,209.767,88.609,209.767z M88.631,199.075c-2.086,0-3.216,1.608-3.216,4.803
		c0,3.193,1.108,4.823,3.194,4.823s3.194-1.63,3.194-4.823C91.803,200.684,90.717,199.075,88.631,199.075z"/>
	<path fill="#333333" d="M99.079,209.767c-1,0-2.282-0.152-3.477-0.587v-15.493c0.152-0.043,0.478-0.108,0.673-0.108
		c0.348,0,0.608,0.065,0.739,0.108v5.498c0.891-0.739,2.021-1.174,3.216-1.174c3.063,0,4.346,2.629,4.346,5.562
		C104.576,207.311,102.664,209.767,99.079,209.767z M100.035,199.228c-1.086,0-2.173,0.457-3.02,1.304v7.801
		c0.586,0.218,1.325,0.348,1.955,0.348c3.021,0,4.129-2.304,4.129-5.02C103.099,201.553,102.49,199.228,100.035,199.228z"/>
	<path fill="#333333" d="M114.654,206.768c0,0.782,0,1.76,0.043,2.781c-0.152,0.065-0.391,0.108-0.586,0.108
		c-0.174,0-0.413-0.043-0.587-0.108c-0.065-0.348-0.108-0.804-0.13-1.217h-0.022c-0.738,0.913-2.042,1.435-3.324,1.435
		c-2.021,0-3.716-1.131-3.716-3.455c0-1.326,0.543-2.304,1.391-2.912c0.956-0.674,2.217-0.891,3.563-0.891
		c0.761,0,1.391,0.043,1.956,0.131v-0.631c0-2.173-0.891-2.89-2.716-2.89c-1.021,0-2.282,0.218-3.064,0.413
		c-0.043-0.109-0.087-0.348-0.087-0.565c0-0.151,0.044-0.369,0.109-0.499c0.934-0.283,2.173-0.457,3.216-0.457
		c2.585,0,3.955,1.174,3.955,3.824V206.768z M113.242,203.704c-0.63-0.087-1.282-0.131-1.847-0.131
		c-1.065,0-2.021,0.195-2.672,0.695c-0.587,0.435-0.913,1.13-0.913,2.021c0,1.586,1.021,2.346,2.434,2.346
		c1.174,0,2.412-0.564,2.999-1.455V203.704z"/>
	<path fill="#333333" d="M119.105,209.549c-0.239,0.065-0.479,0.108-0.739,0.108c-0.217,0-0.478-0.043-0.673-0.108v-15.862
		c0.196-0.043,0.435-0.108,0.717-0.108c0.239,0,0.5,0.044,0.695,0.108V209.549z"/>
	<path fill="#333333" d="M130.357,209.767c-1,0-2.281-0.152-3.477-0.587v-15.493c0.152-0.043,0.478-0.108,0.674-0.108
		c0.348,0,0.608,0.065,0.738,0.108v5.498c0.891-0.739,2.021-1.174,3.216-1.174c3.064,0,4.346,2.629,4.346,5.562
		C135.854,207.311,133.942,209.767,130.357,209.767z M131.313,199.228c-1.086,0-2.173,0.457-3.021,1.304v7.801
		c0.587,0.218,1.326,0.348,1.956,0.348c3.02,0,4.128-2.304,4.128-5.02C134.377,201.553,133.769,199.228,131.313,199.228z"/>
	<path fill="#333333" d="M145.934,206.768c0,0.782,0,1.76,0.043,2.781c-0.152,0.065-0.391,0.108-0.586,0.108
		c-0.174,0-0.413-0.043-0.587-0.108c-0.065-0.348-0.108-0.804-0.13-1.217h-0.022c-0.738,0.913-2.042,1.435-3.324,1.435
		c-2.021,0-3.716-1.131-3.716-3.455c0-1.326,0.543-2.304,1.391-2.912c0.956-0.674,2.217-0.891,3.563-0.891
		c0.761,0,1.391,0.043,1.956,0.131v-0.631c0-2.173-0.891-2.89-2.716-2.89c-1.021,0-2.282,0.218-3.064,0.413
		c-0.043-0.109-0.087-0.348-0.087-0.565c0-0.151,0.044-0.369,0.109-0.499c0.934-0.283,2.173-0.457,3.216-0.457
		c2.585,0,3.955,1.174,3.955,3.824V206.768z M144.521,203.704c-0.63-0.087-1.282-0.131-1.847-0.131
		c-1.065,0-2.021,0.195-2.672,0.695c-0.587,0.435-0.913,1.13-0.913,2.021c0,1.586,1.021,2.346,2.434,2.346
		c1.174,0,2.412-0.564,2.999-1.455V203.704z"/>
	<path fill="#333333" d="M154.947,209.44c-0.564,0.195-1.412,0.326-2.042,0.326c-2.151,0-3.173-1.021-3.173-3.434v-6.996h-1.955
		c-0.044-0.109-0.065-0.37-0.065-0.5c0-0.109,0.021-0.369,0.065-0.479l1.955-0.13v-2.955c0.174-0.065,0.457-0.108,0.695-0.108
		c0.239,0,0.543,0.043,0.717,0.108v2.955h3.194c0.044,0.108,0.087,0.435,0.087,0.543c0,0.152-0.043,0.413-0.087,0.565h-3.194v6.865
		c0,1.717,0.5,2.434,1.848,2.434c0.738,0,1.456-0.108,1.955-0.26c0.044,0.108,0.087,0.369,0.087,0.521
		C155.034,209.093,155.013,209.245,154.947,209.44z"/>
	<path fill="#333333" d="M162.854,209.44c-0.564,0.195-1.412,0.326-2.042,0.326c-2.151,0-3.173-1.021-3.173-3.434v-6.996h-1.955
		c-0.044-0.109-0.065-0.37-0.065-0.5c0-0.109,0.021-0.369,0.065-0.479l1.955-0.13v-2.955c0.174-0.065,0.456-0.108,0.695-0.108
		s0.544,0.043,0.718,0.108v2.955h3.193c0.044,0.108,0.087,0.435,0.087,0.543c0,0.152-0.043,0.413-0.087,0.565h-3.193v6.865
		c0,1.717,0.499,2.434,1.847,2.434c0.738,0,1.456-0.108,1.955-0.26c0.044,0.108,0.087,0.369,0.087,0.521
		C162.94,209.093,162.919,209.245,162.854,209.44z"/>
	<path fill="#333333" d="M166.415,209.549c-0.239,0.065-0.479,0.108-0.739,0.108c-0.217,0-0.478-0.043-0.673-0.108v-15.862
		c0.195-0.043,0.434-0.108,0.717-0.108c0.238,0,0.5,0.044,0.695,0.108V209.549z"/>
	<path fill="#333333" d="M177.495,204.269h-7.279c0.087,2.499,1.261,4.39,3.977,4.39c0.978,0,1.891-0.131,2.694-0.326
		c0.044,0.108,0.087,0.326,0.087,0.456c0,0.218-0.043,0.413-0.108,0.565c-0.848,0.261-1.912,0.413-2.804,0.413
		c-1.716,0-3.02-0.544-3.824-1.413c-0.955-1.043-1.455-2.607-1.455-4.411c0-3.15,1.586-5.932,4.758-5.932
		c2.847,0,3.977,2.347,3.977,5.215C177.517,203.552,177.517,203.942,177.495,204.269z M176.104,203.226
		c0-1.999-0.217-4.15-2.629-4.15c-2.107,0-3.129,1.935-3.26,4.15H176.104z"/>
	<path fill="#333333" d="M192.396,206.768c0,0.782,0,1.76,0.043,2.781c-0.151,0.065-0.391,0.108-0.586,0.108
		c-0.174,0-0.413-0.043-0.587-0.108c-0.065-0.348-0.108-0.804-0.13-1.217h-0.022c-0.738,0.913-2.042,1.435-3.324,1.435
		c-2.021,0-3.716-1.131-3.716-3.455c0-1.326,0.543-2.304,1.391-2.912c0.956-0.674,2.217-0.891,3.563-0.891
		c0.761,0,1.391,0.043,1.956,0.131v-0.631c0-2.173-0.891-2.89-2.717-2.89c-1.021,0-2.281,0.218-3.063,0.413
		c-0.043-0.109-0.087-0.348-0.087-0.565c0-0.151,0.044-0.369,0.109-0.499c0.934-0.283,2.172-0.457,3.215-0.457
		c2.586,0,3.955,1.174,3.955,3.824V206.768z M190.983,203.704c-0.631-0.087-1.282-0.131-1.848-0.131
		c-1.064,0-2.021,0.195-2.672,0.695c-0.587,0.435-0.913,1.13-0.913,2.021c0,1.586,1.021,2.346,2.434,2.346
		c1.174,0,2.412-0.564,2.999-1.455V203.704z"/>
	<path fill="#333333" d="M203.582,207.658c0,1.63-0.087,3.585-0.869,4.933c-0.935,1.607-2.607,2.303-4.28,2.303
		c-0.956,0-1.781-0.108-2.477-0.348c-0.065-0.13-0.088-0.348-0.088-0.521c0-0.13,0.044-0.391,0.088-0.521
		c0.673,0.174,1.455,0.305,2.237,0.305c2.738,0,3.977-1.695,3.977-4.672v-0.912c-0.848,0.891-2.042,1.325-3.021,1.325
		c-2.89,0-4.389-2.238-4.389-5.389c0-3.868,2.281-6.149,5.649-6.149c0.891,0,2.237,0.261,3.172,0.631V207.658z M202.17,199.337
		c-0.782-0.218-1.347-0.283-1.891-0.283c-2.759,0-4.063,2.325-4.063,5.041c0,2.412,0.913,4.303,3.043,4.303
		c1.086,0,2.194-0.543,2.911-1.304V199.337z"/>
	<path fill="#333333" d="M214.27,206.768c0,0.782,0,1.76,0.044,2.781c-0.152,0.065-0.392,0.108-0.587,0.108
		c-0.174,0-0.413-0.043-0.587-0.108c-0.065-0.348-0.108-0.804-0.131-1.217h-0.021c-0.738,0.913-2.042,1.435-3.324,1.435
		c-2.021,0-3.716-1.131-3.716-3.455c0-1.326,0.544-2.304,1.391-2.912c0.956-0.674,2.217-0.891,3.563-0.891
		c0.761,0,1.391,0.043,1.956,0.131v-0.631c0-2.173-0.892-2.89-2.716-2.89c-1.021,0-2.282,0.218-3.064,0.413
		c-0.043-0.109-0.087-0.348-0.087-0.565c0-0.151,0.044-0.369,0.108-0.499c0.935-0.283,2.174-0.457,3.217-0.457
		c2.585,0,3.954,1.174,3.954,3.824V206.768z M212.857,203.704c-0.63-0.087-1.282-0.131-1.847-0.131
		c-1.065,0-2.021,0.195-2.673,0.695c-0.587,0.435-0.913,1.13-0.913,2.021c0,1.586,1.021,2.346,2.434,2.346
		c1.174,0,2.412-0.564,2.999-1.455V203.704z"/>
	<path fill="#333333" d="M218.047,196.012c-0.5,0-0.913-0.435-0.913-0.956s0.413-0.934,0.913-0.934s0.935,0.412,0.935,0.934
		S218.547,196.012,218.047,196.012z M218.764,209.549c-0.195,0.065-0.478,0.108-0.717,0.108s-0.5-0.043-0.695-0.108v-11.32
		c0.174-0.044,0.456-0.108,0.674-0.108c0.239,0,0.564,0.043,0.738,0.108V209.549z"/>
	<path fill="#333333" d="M230.496,209.57c-0.174,0.044-0.435,0.087-0.695,0.087c-0.218,0-0.5-0.043-0.717-0.108v-6.888
		c0-1.043-0.131-1.848-0.435-2.412c-0.369-0.695-1.064-1.043-2.195-1.043c-1.086,0-2.39,0.608-3.237,1.26v9.083
		c-0.239,0.065-0.478,0.108-0.738,0.108c-0.218,0-0.479-0.043-0.674-0.108v-11.32c0.152-0.065,0.413-0.087,0.565-0.087
		c0.217,0,0.478,0.021,0.607,0.087l0.109,1.13h0.021c1.195-0.979,2.564-1.348,3.672-1.348c1.108,0,2.26,0.369,2.891,1.13
		c0.695,0.826,0.825,2.021,0.825,3.194V209.57z"/>
	<path fill="#333333" d="M235.902,209.767c-1.087,0-2.216-0.196-2.999-0.5c-0.064-0.152-0.108-0.413-0.108-0.608
		c0-0.131,0.044-0.456,0.087-0.587c0.805,0.326,1.956,0.587,2.912,0.587c1.651,0,2.672-0.695,2.672-2.064
		c0-1.238-0.63-1.673-2.346-2.304c-2.391-0.869-3.173-1.868-3.173-3.346c0-1.999,1.651-2.934,3.78-2.934
		c0.718,0,1.652,0.131,2.195,0.305c0.064,0.195,0.087,0.391,0.087,0.521c0,0.174-0.044,0.478-0.087,0.63
		c-0.717-0.218-1.478-0.348-2.217-0.348c-1.543,0-2.477,0.587-2.477,1.782c0,1.043,0.586,1.542,2.368,2.216
		c1.63,0.608,3.129,1.217,3.129,3.411C239.727,208.745,238.054,209.767,235.902,209.767z"/>
	<path fill="#333333" d="M247.851,209.44c-0.564,0.195-1.412,0.326-2.042,0.326c-2.151,0-3.173-1.021-3.173-3.434v-6.996h-1.955
		c-0.044-0.109-0.065-0.37-0.065-0.5c0-0.109,0.021-0.369,0.065-0.479l1.955-0.13v-2.955c0.174-0.065,0.457-0.108,0.695-0.108
		c0.239,0,0.543,0.043,0.717,0.108v2.955h3.194c0.044,0.108,0.087,0.435,0.087,0.543c0,0.152-0.043,0.413-0.087,0.565h-3.194v6.865
		c0,1.717,0.5,2.434,1.848,2.434c0.738,0,1.455-0.108,1.955-0.26c0.044,0.108,0.087,0.369,0.087,0.521
		C247.938,209.093,247.916,209.245,247.851,209.44z"/>
</g>
<g>
	<path fill="#59A6AE" d="M18.709,74.589c-3.78,0-6.062-2.542-6.062-7.54c0-4.933,2.303-7.583,6.084-7.583s6.041,2.651,6.041,7.583
		C24.771,72.047,22.49,74.589,18.709,74.589z M18.731,61.683c-2.064,0-3.346,1.456-3.346,5.323c0,3.824,1.26,5.367,3.324,5.367
		c2.064,0,3.347-1.543,3.347-5.367C22.056,63.139,20.795,61.683,18.731,61.683z"/>
	<path fill="#59A6AE" d="M36.044,70.048c0,3.238-1.369,4.542-4.693,4.542s-4.65-1.304-4.65-4.542v-6.996
		c0.304-0.065,0.782-0.109,1.238-0.109c0.435,0,0.956,0.022,1.282,0.109v6.909c0,1.825,0.348,2.716,2.151,2.716
		c1.781,0,2.173-0.891,2.173-2.716v-6.909c0.304-0.087,0.825-0.109,1.26-0.109s0.978,0.043,1.239,0.109V70.048z"/>
	<path fill="#59A6AE" d="M44.428,64.964c-1.086,0.13-2.477,0.586-3.542,1.195v8.213c-0.326,0.087-0.826,0.108-1.26,0.108
		s-0.978-0.043-1.26-0.108v-11.32c0.283-0.044,0.695-0.109,1.043-0.109c0.326,0,0.76,0.043,1.043,0.109l0.174,1.391h0.065
		c0.913-0.848,2.434-1.521,3.716-1.608c0.043,0.196,0.087,0.608,0.087,1.043C44.493,64.182,44.472,64.659,44.428,64.964z"/>
	<path fill="#59A6AE" d="M53.919,74.589c-1.325,0-2.585-0.239-3.52-0.5c-0.065-0.305-0.087-0.608-0.087-0.913
		c0-0.326,0.043-0.717,0.13-1.021c0.891,0.326,2.195,0.543,3.151,0.543c1.26,0,2.238-0.413,2.238-1.543
		c0-0.956-0.717-1.282-2.281-1.782c-2.347-0.76-3.259-1.738-3.259-3.325c0-2.216,2.129-3.216,4.237-3.216
		c0.826,0,2.021,0.152,2.694,0.37c0.087,0.261,0.131,0.565,0.131,0.847c0,0.326-0.065,0.717-0.152,1.021
		c-0.826-0.217-1.651-0.348-2.542-0.348c-1.239,0-1.978,0.369-1.978,1.195c0,0.847,0.913,1.151,2.238,1.629
		c1.912,0.673,3.194,1.282,3.194,3.455C58.113,73.308,56.201,74.589,53.919,74.589z"/>
	<path fill="#59A6AE" d="M65.497,64.833c-2.086,0-3.433,1.108-3.433,3.977c0,2.194,0.978,3.781,3.324,3.781
		c0.695,0,1.695-0.174,2.586-0.435c0.108,0.5,0.152,1.086,0.152,1.629v0.152c-0.913,0.435-2.129,0.652-3.107,0.652
		c-3.672,0-5.541-2.238-5.541-5.714c0-3.434,1.999-6.041,5.584-6.041c1.239,0,2.238,0.239,2.934,0.565
		c0.043,0.304,0.065,0.63,0.065,0.934c0,0.348-0.044,0.673-0.109,1C67.257,65.029,66.258,64.833,65.497,64.833z"/>
	<path fill="#59A6AE" d="M71.339,61.378c-0.804,0-1.434-0.63-1.434-1.434s0.63-1.434,1.434-1.434s1.434,0.63,1.434,1.434
		S72.144,61.378,71.339,61.378z M72.621,74.372c-0.369,0.087-0.934,0.108-1.282,0.108c-0.413,0-0.869-0.043-1.217-0.108v-11.32
		c0.391-0.065,0.847-0.109,1.217-0.109c0.435,0,0.891,0.043,1.282,0.109V74.372z"/>
	<path fill="#59A6AE" d="M84.114,69.548h-7.04c0.043,1.956,1.325,3.107,3.303,3.107c1,0,1.912-0.13,2.89-0.369
		c0.109,0.565,0.152,1.151,0.152,1.804c-1.151,0.391-2.194,0.5-3.39,0.5c-3.694,0-5.606-2.325-5.606-5.823
		c0-3.172,1.847-5.932,5.258-5.932c3.172,0,4.476,2.478,4.476,5.541C84.158,68.962,84.136,69.288,84.114,69.548z M81.637,67.636
		c0-1.369-0.283-2.846-2.021-2.846c-1.629,0-2.412,1.325-2.542,2.846H81.637z"/>
	<path fill="#59A6AE" d="M95.605,74.372c-0.326,0.087-0.848,0.108-1.195,0.108c-0.369,0-0.956-0.043-1.304-0.108v-6.714
		c0-0.913-0.087-1.651-0.478-2.108c-0.326-0.37-0.848-0.543-1.478-0.543c-0.913,0-1.869,0.37-2.542,0.848v8.518
		c-0.435,0.065-0.978,0.108-1.347,0.108c-0.348,0-0.804-0.021-1.173-0.108v-11.32c0.283-0.065,0.76-0.109,1.065-0.109
		c0.282,0,0.738,0.043,1.021,0.109l0.152,1.021c0.891-0.673,2.325-1.239,3.65-1.239c2.629,0,3.629,1.76,3.629,4.346V74.372z"/>
	<path fill="#59A6AE" d="M98.557,64.898H96.71c-0.087-0.282-0.13-0.543-0.13-0.848c0-0.304,0.043-0.564,0.13-0.847l1.847-0.13V60.14
		c0.283-0.065,0.848-0.152,1.261-0.152c0.435,0,0.956,0.087,1.26,0.152v2.912h3.216c0.087,0.282,0.131,0.608,0.131,0.912
		c0,0.305-0.044,0.608-0.131,0.935h-3.216v5.758c0,0.521,0.065,1.087,0.326,1.435c0.217,0.304,0.63,0.5,1.282,0.5
		c0.5,0,1.282-0.109,1.847-0.283c0.087,0.392,0.13,0.804,0.13,1.174c0,0.261-0.022,0.478-0.043,0.651
		c-0.521,0.261-1.521,0.457-2.564,0.457c-2.542,0-3.499-1.195-3.499-3.499V64.898z"/>
	<path fill="#59A6AE" d="M107.441,61.378c-0.804,0-1.434-0.63-1.434-1.434s0.63-1.434,1.434-1.434s1.434,0.63,1.434,1.434
		S108.245,61.378,107.441,61.378z M108.724,74.372c-0.37,0.087-0.935,0.108-1.282,0.108c-0.413,0-0.869-0.043-1.217-0.108v-11.32
		c0.391-0.065,0.848-0.109,1.217-0.109c0.435,0,0.891,0.043,1.282,0.109V74.372z"/>
	<path fill="#59A6AE" d="M114.241,74.589c-1.326,0-2.586-0.239-3.521-0.5c-0.065-0.305-0.087-0.608-0.087-0.913
		c0-0.326,0.044-0.717,0.131-1.021c0.891,0.326,2.194,0.543,3.15,0.543c1.26,0,2.238-0.413,2.238-1.543
		c0-0.956-0.717-1.282-2.282-1.782c-2.347-0.76-3.259-1.738-3.259-3.325c0-2.216,2.129-3.216,4.237-3.216
		c0.825,0,2.021,0.152,2.694,0.37c0.087,0.261,0.13,0.565,0.13,0.847c0,0.326-0.065,0.717-0.152,1.021
		c-0.826-0.217-1.651-0.348-2.542-0.348c-1.238,0-1.977,0.369-1.977,1.195c0,0.847,0.913,1.151,2.238,1.629
		c1.912,0.673,3.194,1.282,3.194,3.455C118.435,73.308,116.522,74.589,114.241,74.589z"/>
	<path fill="#59A6AE" d="M120.647,64.898h-1.847c-0.087-0.282-0.13-0.543-0.13-0.848c0-0.304,0.043-0.564,0.13-0.847l1.847-0.13
		V60.14c0.283-0.065,0.848-0.152,1.261-0.152c0.435,0,0.956,0.087,1.26,0.152v2.912h3.216c0.087,0.282,0.131,0.608,0.131,0.912
		c0,0.305-0.044,0.608-0.131,0.935h-3.216v5.758c0,0.521,0.065,1.087,0.326,1.435c0.217,0.304,0.63,0.5,1.282,0.5
		c0.5,0,1.282-0.109,1.847-0.283c0.087,0.392,0.13,0.804,0.13,1.174c0,0.261-0.022,0.478-0.043,0.651
		c-0.521,0.261-1.521,0.457-2.564,0.457c-2.542,0-3.499-1.195-3.499-3.499V64.898z"/>
	<path fill="#59A6AE" d="M131.857,74.589c-1.326,0-2.586-0.239-3.521-0.5c-0.065-0.305-0.087-0.608-0.087-0.913
		c0-0.326,0.044-0.717,0.131-1.021c0.891,0.326,2.194,0.543,3.15,0.543c1.26,0,2.238-0.413,2.238-1.543
		c0-0.956-0.717-1.282-2.282-1.782c-2.347-0.76-3.259-1.738-3.259-3.325c0-2.216,2.129-3.216,4.237-3.216
		c0.825,0,2.021,0.152,2.694,0.37c0.087,0.261,0.13,0.565,0.13,0.847c0,0.326-0.065,0.717-0.152,1.021
		c-0.826-0.217-1.651-0.348-2.542-0.348c-1.238,0-1.977,0.369-1.977,1.195c0,0.847,0.913,1.151,2.238,1.629
		c1.912,0.673,3.194,1.282,3.194,3.455C136.051,73.308,134.139,74.589,131.857,74.589z"/>
</g>
<g>
	<path fill="#59A6AE" d="M22.555,91.314v7.192c-0.326,0.087-0.847,0.108-1.195,0.108c-0.37,0-0.956-0.043-1.304-0.108v-6.714
		c0-0.913-0.087-1.651-0.479-2.108c-0.326-0.37-0.847-0.543-1.478-0.543c-0.912,0-1.868,0.37-2.542,0.848v8.518
		c-0.435,0.065-0.978,0.108-1.347,0.108c-0.348,0-0.804-0.021-1.173-0.108V82.645c0.304-0.065,0.804-0.087,1.238-0.087
		s0.956,0.022,1.282,0.087v5.389c0.826-0.565,2.173-1.065,3.368-1.065C21.556,86.969,22.555,88.729,22.555,91.314z"/>
	<path fill="#59A6AE" d="M32.655,98.615c-0.348,0-0.825-0.043-1.108-0.108c-0.065-0.348-0.109-0.804-0.13-1.13h-0.021
		c-0.695,0.826-1.999,1.347-3.26,1.347c-2.173,0-3.759-1.282-3.759-3.477c0-3.303,2.847-4.085,5.367-4.085
		c0.435,0,1.086,0.043,1.412,0.065c0-1.716-0.63-2.303-2.347-2.303c-1,0-2.325,0.195-3.216,0.413
		c-0.087-0.261-0.13-0.652-0.13-0.956c0-0.283,0.043-0.652,0.13-0.869c1.086-0.326,2.499-0.543,3.629-0.543
		c2.759,0,4.454,1.152,4.454,3.998v4.498c0,1.173,0.021,1.999,0.043,3.042C33.416,98.594,32.981,98.615,32.655,98.615z
		 M31.178,93.053c-0.326-0.043-0.847-0.065-1.347-0.065c-1.891,0-2.89,0.804-2.89,2.042c0,1.086,0.717,1.717,1.847,1.717
		c0.912,0,1.847-0.413,2.39-1V93.053z"/>
	<path fill="#59A6AE" d="M44.538,89.924l-3.434,8.583c-0.261,0.043-0.695,0.108-1.13,0.108c-0.456,0-0.999-0.043-1.282-0.108
		l-3.325-8.583c-0.282-0.782-0.435-1.781-0.456-2.737c0.304-0.065,0.848-0.109,1.173-0.109c0.478,0,0.913,0.043,1.26,0.109
		c0,0.738,0.13,1.651,0.391,2.477l2.173,6.171h0.043l2.238-6.171c0.239-0.76,0.391-1.673,0.391-2.477
		c0.326-0.065,0.848-0.109,1.261-0.109c0.326,0,0.869,0.065,1.151,0.109C44.973,88.143,44.82,89.142,44.538,89.924z"/>
	<path fill="#59A6AE" d="M55.529,93.683h-7.04c0.043,1.956,1.326,3.107,3.303,3.107c1,0,1.912-0.13,2.89-0.369
		c0.108,0.565,0.152,1.151,0.152,1.804c-1.152,0.391-2.195,0.5-3.39,0.5c-3.694,0-5.606-2.325-5.606-5.823
		c0-3.172,1.847-5.932,5.258-5.932c3.172,0,4.476,2.478,4.476,5.541C55.572,93.097,55.551,93.422,55.529,93.683z M53.052,91.771
		c0-1.369-0.282-2.846-2.021-2.846c-1.63,0-2.412,1.325-2.542,2.846H53.052z"/>
	<path fill="#59A6AE" d="M78.534,98.507c-0.326,0.087-0.847,0.108-1.195,0.108c-0.37,0-0.978-0.043-1.326-0.108v-6.714
		c0-0.848-0.065-1.478-0.326-1.912c-0.304-0.5-0.891-0.739-1.651-0.739c-0.869,0-1.956,0.413-2.629,0.891
		c0.087,0.457,0.087,0.869,0.087,1.369v7.105c-0.326,0.087-0.847,0.108-1.195,0.108c-0.37,0-0.956-0.043-1.304-0.108v-6.714
		c0-0.935-0.087-1.651-0.5-2.108c-0.326-0.37-0.826-0.543-1.435-0.543c-0.825,0-1.825,0.348-2.585,0.848v8.518
		c-0.435,0.065-0.978,0.108-1.347,0.108c-0.348,0-0.804-0.021-1.173-0.108v-11.32c0.283-0.065,0.76-0.109,1.065-0.109
		c0.282,0,0.738,0.043,1.021,0.109l0.152,1.021c0.935-0.739,2.347-1.239,3.563-1.239c1.413,0,2.456,0.565,3.042,1.369
		c1.087-0.782,2.586-1.369,3.955-1.369c1.151,0,2.281,0.392,2.911,1.108c0.739,0.848,0.869,1.978,0.869,3.324V98.507z"/>
	<path fill="#59A6AE" d="M88.654,98.615c-0.348,0-0.825-0.043-1.108-0.108c-0.065-0.348-0.109-0.804-0.13-1.13h-0.021
		c-0.695,0.826-1.999,1.347-3.26,1.347c-2.173,0-3.759-1.282-3.759-3.477c0-3.303,2.847-4.085,5.367-4.085
		c0.435,0,1.086,0.043,1.412,0.065c0-1.716-0.63-2.303-2.347-2.303c-1,0-2.325,0.195-3.216,0.413
		c-0.087-0.261-0.13-0.652-0.13-0.956c0-0.283,0.043-0.652,0.13-0.869c1.086-0.326,2.499-0.543,3.629-0.543
		c2.759,0,4.454,1.152,4.454,3.998v4.498c0,1.173,0.021,1.999,0.043,3.042C89.415,98.594,88.98,98.615,88.654,98.615z
		 M87.177,93.053c-0.326-0.043-0.847-0.065-1.347-0.065c-1.891,0-2.89,0.804-2.89,2.042c0,1.086,0.717,1.717,1.847,1.717
		c0.912,0,1.847-0.413,2.39-1V93.053z"/>
	<path fill="#59A6AE" d="M101.318,98.507c-0.369,0.065-0.76,0.108-1.151,0.108c-0.326,0-0.652-0.043-0.978-0.108l-0.087-1h-0.022
		c-0.804,0.739-1.934,1.217-3.042,1.217c-3.216,0-4.65-2.629-4.65-5.693c0-3.172,1.347-6.062,4.954-6.062
		c0.826,0,1.717,0.174,2.455,0.587v-4.911c0.413-0.065,0.848-0.087,1.261-0.087c0.413,0,0.847,0.022,1.26,0.087V98.507z
		 M98.798,89.533c-0.586-0.326-1.412-0.5-2.064-0.5c-2.26,0-2.759,2.042-2.759,3.911c0,1.651,0.456,3.694,2.499,3.694
		c0.826,0,1.716-0.391,2.325-0.934V89.533z"/>
	<path fill="#59A6AE" d="M112.766,93.683h-7.04c0.043,1.956,1.326,3.107,3.303,3.107c1,0,1.912-0.13,2.89-0.369
		c0.108,0.565,0.152,1.151,0.152,1.804c-1.152,0.391-2.195,0.5-3.39,0.5c-3.694,0-5.606-2.325-5.606-5.823
		c0-3.172,1.847-5.932,5.258-5.932c3.172,0,4.476,2.478,4.476,5.541C112.81,93.097,112.788,93.422,112.766,93.683z M110.289,91.771
		c0-1.369-0.282-2.846-2.021-2.846c-1.63,0-2.412,1.325-2.542,2.846H110.289z"/>
	<path fill="#59A6AE" d="M120.192,89.033h-1.847c-0.087-0.282-0.13-0.543-0.13-0.848c0-0.304,0.043-0.564,0.13-0.847l1.847-0.13
		v-2.934c0.283-0.065,0.848-0.152,1.261-0.152c0.435,0,0.956,0.087,1.26,0.152v2.912h3.216c0.087,0.282,0.131,0.608,0.131,0.912
		c0,0.305-0.044,0.608-0.131,0.935h-3.216v5.758c0,0.521,0.065,1.087,0.326,1.435c0.217,0.304,0.63,0.5,1.282,0.5
		c0.5,0,1.282-0.109,1.847-0.283c0.087,0.392,0.13,0.804,0.13,1.174c0,0.261-0.022,0.478-0.043,0.651
		c-0.521,0.261-1.521,0.457-2.564,0.457c-2.542,0-3.499-1.195-3.499-3.499V89.033z"/>
	<path fill="#59A6AE" d="M137.616,91.314v7.192c-0.326,0.087-0.848,0.108-1.195,0.108c-0.369,0-0.956-0.043-1.304-0.108v-6.714
		c0-0.913-0.087-1.651-0.478-2.108c-0.326-0.37-0.848-0.543-1.478-0.543c-0.913,0-1.869,0.37-2.542,0.848v8.518
		c-0.435,0.065-0.978,0.108-1.347,0.108c-0.348,0-0.804-0.021-1.173-0.108V82.645c0.304-0.065,0.804-0.087,1.239-0.087
		s0.956,0.022,1.282,0.087v5.389c0.826-0.565,2.173-1.065,3.368-1.065C136.617,86.969,137.616,88.729,137.616,91.314z"/>
	<path fill="#59A6AE" d="M148.999,93.683h-7.04c0.043,1.956,1.326,3.107,3.303,3.107c1,0,1.912-0.13,2.89-0.369
		c0.108,0.565,0.152,1.151,0.152,1.804c-1.152,0.391-2.195,0.5-3.39,0.5c-3.694,0-5.606-2.325-5.606-5.823
		c0-3.172,1.847-5.932,5.258-5.932c3.172,0,4.476,2.478,4.476,5.541C149.042,93.097,149.021,93.422,148.999,93.683z M146.521,91.771
		c0-1.369-0.282-2.846-2.021-2.846c-1.63,0-2.412,1.325-2.542,2.846H146.521z"/>
</g>
<g>
	<path fill="#59A6AE" d="M170.118,98.513c-1.631,0.306-3.873,0.51-6.116,0.51s-4.384-0.204-6.116-0.51V43.259l-15.904,10.398
		c-2.854-2.65-4.791-6.218-5.607-9.48l23.243-14.578c1.428-0.306,3.67-0.51,5.098-0.51c1.937,0,4.077,0.204,5.402,0.51V98.513z"/>
</g>
<g>
	<path fill="#59A6AE" d="M190.887,81.962c-4.705,0-9.179-0.849-12.496-1.774c-0.231-1.08-0.309-2.16-0.309-3.239
		c0-1.157,0.154-2.545,0.463-3.625c3.163,1.157,7.791,1.928,11.185,1.928c4.474,0,7.944-1.465,7.944-5.476
		c0-3.394-2.545-4.551-8.099-6.325c-8.33-2.7-11.57-6.17-11.57-11.801c0-7.868,7.56-11.416,15.041-11.416
		c2.932,0,7.174,0.54,9.564,1.311c0.309,0.926,0.463,2.005,0.463,3.008c0,1.157-0.231,2.545-0.54,3.625
		c-2.931-0.771-5.861-1.234-9.024-1.234c-4.396,0-7.019,1.311-7.019,4.242c0,3.008,3.239,4.088,7.944,5.785
		c6.788,2.391,11.339,4.551,11.339,12.264C205.773,77.411,198.985,81.962,190.887,81.962z"/>
	<path fill="#59A6AE" d="M213.639,47.561h-6.556c-0.309-1.003-0.463-1.929-0.463-3.008c0-1.08,0.154-2.005,0.463-3.008l6.556-0.463
		V30.668c1.003-0.231,3.009-0.54,4.474-0.54c1.543,0,3.395,0.309,4.474,0.54v10.336h11.416c0.309,1.003,0.463,2.16,0.463,3.24
		s-0.154,2.16-0.463,3.317h-11.416V68c0,1.852,0.231,3.857,1.157,5.091c0.771,1.08,2.237,1.774,4.551,1.774
		c1.774,0,4.551-0.386,6.557-1.003c0.309,1.388,0.463,2.854,0.463,4.165c0,0.926-0.077,1.697-0.154,2.314
		c-1.852,0.926-5.399,1.62-9.102,1.62c-9.024,0-12.419-4.243-12.419-12.418V47.561z"/>
</g>
<g>
	<path fill="#59A6AE" d="M18.089,241.815c-1.264,0-2.387-0.141-3.3-0.421v8.672c-0.597,0.105-1.439,0.176-2.106,0.176
		c-0.737,0-1.37-0.07-1.966-0.176v-26.544c0.281-0.035,1.018-0.175,1.72-0.175c0.772,0,1.44,0.14,1.686,0.175l0.21,1.65h0.035
		c1.124-1.053,3.16-2.001,5.267-2.001c4.459,0,7.127,3.546,7.127,8.742C26.761,238.059,23.707,241.815,18.089,241.815z
		 M18.791,226.507c-1.58,0-3.02,0.668-4.002,1.58v10.147c0.737,0.245,1.826,0.421,2.809,0.421c3.616,0,4.985-2.598,4.985-6.53
		C22.583,228.509,21.144,226.507,18.791,226.507z"/>
	<path fill="#59A6AE" d="M42.208,241.991c-0.562,0-1.334-0.07-1.791-0.176c-0.105-0.562-0.175-1.299-0.21-1.826h-0.035
		c-1.124,1.335-3.23,2.178-5.267,2.178c-3.511,0-6.074-2.072-6.074-5.618c0-5.337,4.6-6.601,8.672-6.601
		c0.702,0,1.755,0.07,2.282,0.105c0-2.774-1.018-3.722-3.792-3.722c-1.615,0-3.757,0.315-5.196,0.667
		c-0.141-0.422-0.211-1.054-0.211-1.545c0-0.457,0.07-1.054,0.211-1.404c1.755-0.527,4.038-0.878,5.863-0.878
		c4.459,0,7.198,1.86,7.198,6.46v7.269c0,1.896,0.035,3.229,0.07,4.915C43.437,241.956,42.734,241.991,42.208,241.991z
		 M39.82,233.003c-0.527-0.07-1.37-0.105-2.177-0.105c-3.055,0-4.67,1.299-4.67,3.301c0,1.755,1.159,2.773,2.984,2.773
		c1.475,0,2.984-0.667,3.862-1.615V233.003z"/>
	<path fill="#59A6AE" d="M62.956,241.815c-0.527,0.141-1.369,0.176-1.931,0.176c-0.597,0-1.545-0.07-2.106-0.176v-10.85
		c0-1.475-0.141-2.668-0.772-3.405c-0.527-0.597-1.37-0.878-2.388-0.878c-1.475,0-3.02,0.597-4.108,1.369v13.764
		c-0.702,0.105-1.58,0.176-2.177,0.176c-0.562,0-1.299-0.035-1.896-0.176v-18.293c0.457-0.104,1.229-0.175,1.72-0.175
		c0.457,0,1.194,0.07,1.65,0.175l0.246,1.65c1.439-1.088,3.757-2.001,5.899-2.001c4.248,0,5.863,2.844,5.863,7.022V241.815z"/>
	<path fill="#59A6AE" d="M75.418,226.402c-3.371,0-5.548,1.79-5.548,6.425c0,3.546,1.58,6.109,5.372,6.109
		c1.124,0,2.739-0.281,4.178-0.702c0.175,0.808,0.246,1.755,0.246,2.633v0.246c-1.475,0.702-3.44,1.054-5.021,1.054
		c-5.934,0-8.953-3.617-8.953-9.234c0-5.548,3.23-9.761,9.023-9.761c2.001,0,3.616,0.386,4.74,0.913
		c0.07,0.491,0.105,1.018,0.105,1.51c0,0.562-0.07,1.088-0.176,1.615C78.262,226.718,76.646,226.402,75.418,226.402z"/>
	<path fill="#59A6AE" d="M92.655,226.612c-1.755,0.211-4.002,0.948-5.723,1.932v13.271c-0.526,0.141-1.334,0.176-2.036,0.176
		c-0.703,0-1.58-0.07-2.037-0.176v-18.293c0.457-0.069,1.124-0.175,1.685-0.175c0.527,0,1.229,0.07,1.686,0.175l0.281,2.247h0.105
		c1.475-1.369,3.932-2.457,6.004-2.598c0.07,0.315,0.141,0.983,0.141,1.686C92.76,225.349,92.725,226.121,92.655,226.612z"/>
	<path fill="#59A6AE" d="M108.664,234.021H97.288c0.07,3.16,2.142,5.021,5.337,5.021c1.615,0,3.09-0.211,4.669-0.598
		c0.176,0.913,0.246,1.861,0.246,2.915c-1.861,0.632-3.546,0.808-5.478,0.808c-5.969,0-9.058-3.757-9.058-9.41
		c0-5.126,2.984-9.585,8.497-9.585c5.126,0,7.233,4.003,7.233,8.953C108.734,233.073,108.699,233.6,108.664,234.021z
		 M104.661,230.932c0-2.213-0.457-4.6-3.266-4.6c-2.633,0-3.897,2.142-4.108,4.6H104.661z"/>
	<path fill="#59A6AE" d="M124.461,241.991c-0.562,0-1.334-0.07-1.791-0.176c-0.105-0.562-0.175-1.299-0.21-1.826h-0.035
		c-1.124,1.335-3.23,2.178-5.267,2.178c-3.511,0-6.074-2.072-6.074-5.618c0-5.337,4.6-6.601,8.672-6.601
		c0.702,0,1.755,0.07,2.282,0.105c0-2.774-1.018-3.722-3.792-3.722c-1.615,0-3.757,0.315-5.196,0.667
		c-0.141-0.422-0.211-1.054-0.211-1.545c0-0.457,0.07-1.054,0.211-1.404c1.755-0.527,4.038-0.878,5.863-0.878
		c4.459,0,7.198,1.86,7.198,6.46v7.269c0,1.896,0.035,3.229,0.07,4.915C125.69,241.956,124.988,241.991,124.461,241.991z
		 M122.074,233.003c-0.527-0.07-1.37-0.105-2.177-0.105c-3.055,0-4.67,1.299-4.67,3.301c0,1.755,1.159,2.773,2.984,2.773
		c1.475,0,2.984-0.667,3.862-1.615V233.003z"/>
	<path fill="#59A6AE" d="M131.06,226.507h-2.984c-0.141-0.456-0.211-0.877-0.211-1.369c0-0.491,0.07-0.913,0.211-1.369l2.984-0.211
		v-4.739c0.457-0.105,1.369-0.246,2.036-0.246c0.702,0,1.545,0.141,2.037,0.246v4.704h5.196c0.141,0.457,0.21,0.983,0.21,1.475
		c0,0.492-0.07,0.983-0.21,1.51h-5.196v9.305c0,0.843,0.105,1.756,0.526,2.317c0.352,0.491,1.019,0.808,2.072,0.808
		c0.808,0,2.071-0.176,2.984-0.457c0.141,0.633,0.21,1.3,0.21,1.896c0,0.421-0.035,0.772-0.07,1.054
		c-0.843,0.421-2.458,0.737-4.143,0.737c-4.108,0-5.653-1.932-5.653-5.653V226.507z"/>
	<path fill="#59A6AE" d="M145.418,220.819c-1.299,0-2.317-1.019-2.317-2.317s1.018-2.317,2.317-2.317
		c1.299,0,2.317,1.019,2.317,2.317S146.717,220.819,145.418,220.819z M147.49,241.815c-0.597,0.141-1.51,0.176-2.071,0.176
		c-0.667,0-1.405-0.07-1.966-0.176v-18.293c0.632-0.104,1.369-0.175,1.966-0.175c0.702,0,1.439,0.07,2.071,0.175V241.815z"/>
	<path fill="#59A6AE" d="M160.129,226.402c-3.371,0-5.548,1.79-5.548,6.425c0,3.546,1.58,6.109,5.372,6.109
		c1.124,0,2.738-0.281,4.178-0.702c0.176,0.808,0.246,1.755,0.246,2.633v0.246c-1.475,0.702-3.44,1.054-5.021,1.054
		c-5.934,0-8.953-3.617-8.953-9.234c0-5.548,3.23-9.761,9.023-9.761c2.001,0,3.616,0.386,4.739,0.913
		c0.07,0.491,0.105,1.018,0.105,1.51c0,0.562-0.07,1.088-0.175,1.615C162.973,226.718,161.357,226.402,160.129,226.402z"/>
	<path fill="#59A6AE" d="M183.509,226.402c-3.37,0-5.547,1.79-5.547,6.425c0,3.546,1.58,6.109,5.372,6.109
		c1.123,0,2.738-0.281,4.178-0.702c0.176,0.808,0.246,1.755,0.246,2.633v0.246c-1.475,0.702-3.441,1.054-5.021,1.054
		c-5.934,0-8.953-3.617-8.953-9.234c0-5.548,3.23-9.761,9.023-9.761c2.002,0,3.616,0.386,4.74,0.913
		c0.07,0.491,0.105,1.018,0.105,1.51c0,0.562-0.07,1.088-0.176,1.615C186.354,226.718,184.738,226.402,183.509,226.402z"/>
	<path fill="#59A6AE" d="M203.204,241.991c-0.562,0-1.334-0.07-1.79-0.176c-0.105-0.562-0.176-1.299-0.211-1.826h-0.035
		c-1.124,1.335-3.23,2.178-5.267,2.178c-3.511,0-6.074-2.072-6.074-5.618c0-5.337,4.6-6.601,8.672-6.601
		c0.703,0,1.756,0.07,2.282,0.105c0-2.774-1.018-3.722-3.792-3.722c-1.614,0-3.757,0.315-5.196,0.667
		c-0.14-0.422-0.21-1.054-0.21-1.545c0-0.457,0.07-1.054,0.21-1.404c1.756-0.527,4.038-0.878,5.864-0.878
		c4.459,0,7.197,1.86,7.197,6.46v7.269c0,1.896,0.035,3.229,0.07,4.915C204.434,241.956,203.73,241.991,203.204,241.991z
		 M200.816,233.003c-0.526-0.07-1.369-0.105-2.177-0.105c-3.055,0-4.67,1.299-4.67,3.301c0,1.755,1.159,2.773,2.985,2.773
		c1.475,0,2.984-0.667,3.861-1.615V233.003z"/>
	<path fill="#59A6AE" d="M223.952,241.815c-0.526,0.141-1.369,0.176-1.931,0.176c-0.597,0-1.545-0.07-2.106-0.176v-10.85
		c0-1.475-0.141-2.668-0.772-3.405c-0.526-0.597-1.369-0.878-2.388-0.878c-1.475,0-3.02,0.597-4.107,1.369v13.764
		c-0.703,0.105-1.58,0.176-2.178,0.176c-0.562,0-1.299-0.035-1.896-0.176v-18.293c0.456-0.104,1.229-0.175,1.721-0.175
		c0.456,0,1.193,0.07,1.649,0.175l0.246,1.65c1.439-1.088,3.757-2.001,5.898-2.001c4.249,0,5.863,2.844,5.863,7.022V241.815z"/>
	<path fill="#59A6AE" d="M236.449,226.402c-3.37,0-5.547,1.79-5.547,6.425c0,3.546,1.58,6.109,5.372,6.109
		c1.123,0,2.738-0.281,4.178-0.702c0.176,0.808,0.246,1.755,0.246,2.633v0.246c-1.475,0.702-3.441,1.054-5.021,1.054
		c-5.934,0-8.953-3.617-8.953-9.234c0-5.548,3.23-9.761,9.023-9.761c2.002,0,3.616,0.386,4.74,0.913
		c0.07,0.491,0.105,1.018,0.105,1.51c0,0.562-0.07,1.088-0.176,1.615C239.294,226.718,237.679,226.402,236.449,226.402z"/>
	<path fill="#59A6AE" d="M257.829,234.021h-11.375c0.07,3.16,2.142,5.021,5.336,5.021c1.615,0,3.09-0.211,4.67-0.598
		c0.176,0.913,0.246,1.861,0.246,2.915c-1.861,0.632-3.546,0.808-5.478,0.808c-5.969,0-9.059-3.757-9.059-9.41
		c0-5.126,2.984-9.585,8.497-9.585c5.126,0,7.232,4.003,7.232,8.953C257.899,233.073,257.864,233.6,257.829,234.021z
		 M253.827,230.932c0-2.213-0.457-4.6-3.266-4.6c-2.633,0-3.897,2.142-4.107,4.6H253.827z"/>
	<path fill="#59A6AE" d="M270.783,226.612c-1.756,0.211-4.003,0.948-5.723,1.932v13.271c-0.527,0.141-1.335,0.176-2.037,0.176
		s-1.58-0.07-2.036-0.176v-18.293c0.456-0.069,1.123-0.175,1.686-0.175c0.526,0,1.229,0.07,1.686,0.175l0.28,2.247h0.105
		c1.475-1.369,3.933-2.457,6.004-2.598c0.07,0.315,0.141,0.983,0.141,1.686C270.889,225.349,270.854,226.121,270.783,226.612z"/>
</g>
</svg>
