<?xml version="1.0" encoding="utf-8"?>
<!-- Generator: Adobe Illustrator 16.0.0, SVG Export Plug-In . SVG Version: 6.00 Build 0)  -->
<!DOCTYPE svg PUBLIC "-//W3C//DTD SVG 1.0//EN" "http://www.w3.org/TR/2001/REC-SVG-20010904/DTD/svg10.dtd">
<svg version="1.0" xmlns="http://www.w3.org/2000/svg" xmlns:xlink="http://www.w3.org/1999/xlink" x="0px" y="0px" width="300px"
	 height="300px" viewBox="0 0 300 300" style="enable-background:new 0 0 300 300;" xml:space="preserve">
<g id="Text" style="display:none;">
	<text transform="matrix(1 0 0 1 13.6802 131.5586)" style="display:inline;"><tspan x="0" y="0" style="fill:#B3A068; font-family:'FSMatthew-Bold'; font-size:127.6877; letter-spacing:-4;">9</tspan><tspan x="64.992" y="0" style="fill:#B3A068; font-family:'FSMatthew-Bold'; font-size:127.6877;">4%</tspan></text>
	
		<text transform="matrix(1 0 0 1 252.709 131.5586)" style="display:inline;fill:#58595B; font-family:'FSMatthew-Light'; font-size:23.9415;"> </text>
	<text transform="matrix(1 0 0 1 13.6782 166.1318)" style="display:inline;"><tspan x="0" y="0" style="fill:#58595B; font-family:'FSMatthew-Light'; font-size:23.9415;">of our g</tspan><tspan x="76.419" y="0" style="fill:#58595B; font-family:'FSMatthew-Light'; font-size:23.9415;">r</tspan><tspan x="83.65" y="0" style="fill:#58595B; font-family:'FSMatthew-Light'; font-size:23.9415;">adua</tspan><tspan x="132.203" y="0" style="fill:#58595B; font-family:'FSMatthew-Light'; font-size:23.9415;">t</tspan><tspan x="140.558" y="0" style="fill:#58595B; font-family:'FSMatthew-Light'; font-size:23.9415;">es a</tspan><tspan x="178.72" y="0" style="fill:#58595B; font-family:'FSMatthew-Light'; font-size:23.9415;">r</tspan><tspan x="186.118" y="0" style="fill:#58595B; font-family:'FSMatthew-Light'; font-size:23.9415;">e in </tspan></text>
	<text transform="matrix(1 0 0 1 239.6113 166.1318)" style="display:inline;"><tspan x="0" y="0" style="fill:#58595B; font-family:'FSMatthew-Light'; font-size:23.9415;">w</tspan><tspan x="17.142" y="0" style="fill:#58595B; font-family:'FSMatthew-Light'; font-size:23.9415;">ork </tspan></text>
	<text transform="matrix(1 0 0 1 13.6782 195.3877)" style="display:inline;"><tspan x="0" y="0" style="fill:#58595B; font-family:'FSMatthew-Light'; font-size:23.9415;">or </tspan><tspan x="25.425" y="0" style="fill:#58595B; font-family:'FSMatthew-Light'; font-size:23.9415;">f</tspan><tspan x="33.9" y="0" style="fill:#58595B; font-family:'FSMatthew-Light'; font-size:23.9415;">u</tspan><tspan x="46.278" y="0" style="fill:#58595B; font-family:'FSMatthew-Light'; font-size:23.9415;">r</tspan><tspan x="54.515" y="0" style="fill:#58595B; font-family:'FSMatthew-Light'; font-size:23.9415;">ther </tspan><tspan x="101.032" y="0" style="fill:#58595B; font-family:'FSMatthew-Light'; font-size:23.9415;">s</tspan><tspan x="110.345" y="0" style="fill:#58595B; font-family:'FSMatthew-Light'; font-size:23.9415;">t</tspan><tspan x="118.964" y="0" style="fill:#58595B; font-family:'FSMatthew-Light'; font-size:23.9415;">udy six months </tspan></text>
	<text transform="matrix(1 0 0 1 13.6782 224.6455)" style="display:inline;"><tspan x="0" y="0" style="fill:#58595B; font-family:'FSMatthew-Light'; font-size:23.9415;">af</tspan><tspan x="20.733" y="0" style="fill:#58595B; font-family:'FSMatthew-Light'; font-size:23.9415;">t</tspan><tspan x="29.088" y="0" style="fill:#58595B; font-family:'FSMatthew-Light'; font-size:23.9415;">er le</tspan><tspan x="70.338" y="0" style="fill:#58595B; font-family:'FSMatthew-Light'; font-size:23.9415;">a</tspan><tspan x="81.926" y="0" style="fill:#58595B; font-family:'FSMatthew-Light'; font-size:23.9415;">ving uni</tspan><tspan x="158.633" y="0" style="fill:#58595B; font-family:'FSMatthew-Light'; font-size:23.9415;">v</tspan><tspan x="169.79" y="0" style="fill:#58595B; font-family:'FSMatthew-Light'; font-size:23.9415;">ersi</tspan><tspan x="203.858" y="0" style="fill:#58595B; font-family:'FSMatthew-Light'; font-size:23.9415;">t</tspan><tspan x="212.333" y="0" style="fill:#58595B; font-family:'FSMatthew-Light'; font-size:23.9415;">y </tspan></text>
	<text transform="matrix(1 0 0 1 13.6782 253.9014)" style="display:inline;"><tspan x="0" y="0" style="fill:#58595B; font-family:'FSMatthew-Light'; font-size:23.9415;">(DLHE Sur</tspan><tspan x="99.619" y="0" style="fill:#58595B; font-family:'FSMatthew-Light'; font-size:23.9415;">v</tspan><tspan x="110.751" y="0" style="fill:#58595B; font-family:'FSMatthew-Light'; font-size:23.9415;">ey 2016/17)</tspan></text>
</g>
<g id="Text_Flat">
	<g>
		<path style="fill:#B3A068;" d="M40.75,132.835c-5.107,0-10.726-0.766-13.79-1.788c-0.511-1.788-0.638-4.979-0.638-6.384
			c0-2.426,0.383-5.746,0.894-7.661c3.575,0.894,7.661,1.532,12.641,1.532c10.087,0,17.876-8.555,18.643-20.94
			c-3.703,2.426-8.811,3.958-14.939,3.958c-16.599,0-25.282-11.492-25.282-27.197c0-16.599,11.236-30.389,29.24-30.389
			c24.644,0,30.772,19.408,30.772,38.433C78.289,106.915,68.713,132.835,40.75,132.835z M47.9,58.522
			c-6.64,0-11.236,5.235-11.236,15.067c0,9.066,3.575,14.045,11.109,14.045c4.086,0,9.448-2.171,11.747-4.597
			c0-0.639,0.127-2.426,0.127-3.32C59.647,70.525,58.881,58.522,47.9,58.522z"/>
		<path style="fill:#B3A068;" d="M147.622,112.917h-11.236v18.642c-1.532,0.255-5.107,0.639-9.065,0.639
			c-3.703,0-6.64-0.256-8.683-0.639v-18.642H81.354c-0.511-1.66-0.894-4.597-0.894-6.895c0-2.682,0.383-5.107,0.894-6.895
			l26.175-53.883c2.298-0.383,6.129-0.639,8.938-0.639c3.958,0,8.172,0.383,10.087,0.639L100.378,97.85h18.259V80.229
			c2.298-0.383,5.873-0.638,8.81-0.638c3.064,0,6.767,0.255,8.938,0.638V97.85h11.236c0.639,2.043,0.894,4.852,0.894,7.533
			C148.516,108.064,148.133,111.512,147.622,112.917z"/>
		<path style="fill:#B3A068;" d="M155.027,63.758c0-10.981,4.979-20.43,19.152-20.43c14.301,0,19.153,9.448,19.153,20.43
			c0,10.726-4.853,20.685-19.153,20.685C160.007,84.442,155.027,74.483,155.027,63.758z M182.225,132.963
			c-5.49-1.532-11.109-5.235-13.918-9.193l52.352-82.102c5.234,1.404,10.853,4.597,14.045,8.555L182.225,132.963z M178.521,64.013
			c0-5.49-1.149-8.938-4.342-8.938c-3.191,0-4.341,3.447-4.341,8.938c0,5.491,1.276,8.683,4.341,8.683
			S178.521,69.503,178.521,64.013z M208.145,112.789c0-10.981,4.979-20.43,19.152-20.43c14.301,0,19.153,9.448,19.153,20.43
			c0,10.726-4.853,20.685-19.153,20.685C213.124,133.474,208.145,123.515,208.145,112.789z M231.639,113.044
			c0-5.49-1.149-8.938-4.342-8.938c-3.191,0-4.341,3.447-4.341,8.938c0,5.491,1.276,8.683,4.341,8.683
			S231.639,118.535,231.639,113.044z"/>
	</g>
	<g>
		<path style="fill:#58595B;" d="M19.759,166.371c-3.136,0-5.147-2.154-5.147-6.464s2.035-6.488,5.171-6.488s5.124,2.131,5.124,6.44
			S22.896,166.371,19.759,166.371z M19.783,154.592c-2.298,0-3.543,1.772-3.543,5.291c0,3.52,1.221,5.315,3.52,5.315
			s3.52-1.796,3.52-5.315C23.279,156.364,22.082,154.592,19.783,154.592z"/>
		<path style="fill:#58595B;" d="M34.531,149.685c-0.359-0.096-1.005-0.191-1.508-0.191c-0.91,0-1.58,0.239-2.035,0.742
			c-0.694,0.742-0.814,1.747-0.814,3.017v0.406h3.375c0.048,0.12,0.096,0.407,0.096,0.575c0,0.191-0.048,0.479-0.096,0.646h-3.375
			v11.252c-0.216,0.072-0.455,0.12-0.766,0.12c-0.312,0-0.575-0.048-0.79-0.12V154.88h-2.155c-0.048-0.12-0.072-0.432-0.072-0.575
			c0-0.119,0.024-0.383,0.072-0.503l2.155-0.144v-0.406c0-1.7,0.287-2.873,1.269-3.854c0.694-0.694,1.724-1.03,2.897-1.03
			c0.623,0,1.317,0.145,1.748,0.312c0.048,0.12,0.072,0.287,0.072,0.455C34.603,149.277,34.579,149.564,34.531,149.685z"/>
		<path style="fill:#58595B;" d="M46.094,166.371c-3.136,0-5.147-2.154-5.147-6.464s2.035-6.488,5.171-6.488s5.124,2.131,5.124,6.44
			S49.23,166.371,46.094,166.371z M46.118,154.592c-2.298,0-3.543,1.772-3.543,5.291c0,3.52,1.221,5.315,3.52,5.315
			s3.52-1.796,3.52-5.315C49.614,156.364,48.417,154.592,46.118,154.592z"/>
		<path style="fill:#58595B;" d="M62.997,161.392c0,3.639-1.508,4.979-4.668,4.979c-3.232,0-4.597-1.341-4.597-4.86v-7.853
			c0.215-0.071,0.503-0.119,0.766-0.119c0.335,0,0.599,0.071,0.79,0.119v7.661c0,2.322,0.359,3.854,3.064,3.854
			c2.538,0,3.088-1.484,3.088-3.902v-7.613c0.191-0.071,0.527-0.119,0.79-0.119s0.551,0.048,0.766,0.119V161.392z"/>
		<path style="fill:#58595B;" d="M71.759,154.808c-1.388,0.191-2.896,0.694-4.022,1.557v9.768c-0.239,0.072-0.527,0.12-0.79,0.12
			s-0.527-0.048-0.766-0.12v-12.474c0.144-0.048,0.359-0.096,0.599-0.096c0.191,0,0.455,0.048,0.646,0.096l0.12,1.532h0.024
			c1.029-0.886,2.825-1.628,4.189-1.771c0.048,0.144,0.096,0.407,0.096,0.623C71.855,154.281,71.807,154.592,71.759,154.808z"/>
		<path style="fill:#58595B;" d="M88.47,164.049c0,1.796-0.096,3.95-0.958,5.435c-1.03,1.771-2.873,2.538-4.717,2.538
			c-1.053,0-1.963-0.12-2.729-0.383c-0.072-0.145-0.096-0.384-0.096-0.575c0-0.144,0.048-0.431,0.096-0.574
			c0.742,0.191,1.604,0.335,2.466,0.335c3.017,0,4.381-1.867,4.381-5.147v-1.005c-0.934,0.981-2.25,1.46-3.328,1.46
			c-3.185,0-4.836-2.466-4.836-5.938c0-4.262,2.514-6.775,6.225-6.775c0.982,0,2.466,0.287,3.496,0.694V164.049z M86.914,154.88
			c-0.862-0.239-1.484-0.312-2.083-0.312c-3.041,0-4.477,2.562-4.477,5.555c0,2.657,1.006,4.74,3.352,4.74
			c1.197,0,2.418-0.599,3.208-1.437V154.88z"/>
		<path style="fill:#58595B;" d="M97.304,154.808c-1.388,0.191-2.896,0.694-4.022,1.557v9.768c-0.239,0.072-0.527,0.12-0.79,0.12
			s-0.527-0.048-0.766-0.12v-12.474c0.144-0.048,0.359-0.096,0.599-0.096c0.191,0,0.455,0.048,0.646,0.096l0.12,1.532h0.024
			c1.029-0.886,2.825-1.628,4.189-1.771c0.048,0.144,0.096,0.407,0.096,0.623C97.4,154.281,97.352,154.592,97.304,154.808z"/>
		<path style="fill:#58595B;" d="M107.479,163.067c0,0.862,0,1.939,0.048,3.064c-0.167,0.072-0.431,0.12-0.646,0.12
			c-0.191,0-0.455-0.048-0.646-0.12c-0.072-0.383-0.12-0.886-0.144-1.341h-0.024c-0.814,1.006-2.25,1.58-3.663,1.58
			c-2.227,0-4.094-1.245-4.094-3.807c0-1.46,0.599-2.537,1.532-3.208c1.054-0.742,2.442-0.981,3.926-0.981
			c0.838,0,1.532,0.048,2.155,0.144v-0.694c0-2.394-0.981-3.184-2.993-3.184c-1.125,0-2.514,0.239-3.375,0.454
			c-0.048-0.119-0.096-0.383-0.096-0.622c0-0.168,0.048-0.407,0.12-0.551c1.029-0.312,2.394-0.503,3.543-0.503
			c2.849,0,4.357,1.293,4.357,4.214V163.067z M105.923,159.691c-0.694-0.096-1.413-0.144-2.035-0.144
			c-1.173,0-2.227,0.216-2.945,0.767c-0.646,0.479-1.006,1.245-1.006,2.227c0,1.747,1.125,2.585,2.682,2.585
			c1.293,0,2.657-0.622,3.304-1.604V159.691z"/>
		<path style="fill:#58595B;" d="M119.377,166.252c-0.215,0-0.479-0.072-0.622-0.12l-0.144-1.437h-0.024
			c-1.029,1.077-2.25,1.676-3.615,1.676c-3.304,0-4.884-2.753-4.884-6.104c0-3.328,1.413-6.848,5.219-6.848
			c1.197,0,2.298,0.407,3.184,1.029v-5.793c0.215-0.072,0.503-0.12,0.766-0.12c0.288,0,0.575,0.072,0.79,0.12v17.477
			C119.88,166.204,119.641,166.252,119.377,166.252z M118.492,155.766c-0.862-0.719-1.963-1.077-3.088-1.077
			c-2.777,0-3.711,2.729-3.711,5.506c0,2.131,0.67,4.908,3.352,4.908c1.292,0,2.609-0.646,3.447-1.652V155.766z"/>
		<path style="fill:#58595B;" d="M132.498,161.392c0,3.639-1.508,4.979-4.668,4.979c-3.232,0-4.597-1.341-4.597-4.86v-7.853
			c0.215-0.071,0.503-0.119,0.766-0.119c0.335,0,0.599,0.071,0.79,0.119v7.661c0,2.322,0.359,3.854,3.064,3.854
			c2.538,0,3.088-1.484,3.088-3.902v-7.613c0.191-0.071,0.527-0.119,0.79-0.119s0.551,0.048,0.766,0.119V161.392z"/>
		<path style="fill:#58595B;" d="M144.205,163.067c0,0.862,0,1.939,0.048,3.064c-0.167,0.072-0.431,0.12-0.646,0.12
			c-0.191,0-0.455-0.048-0.646-0.12c-0.072-0.383-0.12-0.886-0.144-1.341h-0.024c-0.814,1.006-2.25,1.58-3.663,1.58
			c-2.227,0-4.094-1.245-4.094-3.807c0-1.46,0.599-2.537,1.532-3.208c1.054-0.742,2.442-0.981,3.926-0.981
			c0.838,0,1.532,0.048,2.155,0.144v-0.694c0-2.394-0.981-3.184-2.993-3.184c-1.125,0-2.514,0.239-3.375,0.454
			c-0.048-0.119-0.096-0.383-0.096-0.622c0-0.168,0.048-0.407,0.12-0.551c1.029-0.312,2.394-0.503,3.543-0.503
			c2.849,0,4.357,1.293,4.357,4.214V163.067z M142.648,159.691c-0.694-0.096-1.413-0.144-2.035-0.144
			c-1.173,0-2.227,0.216-2.945,0.767c-0.646,0.479-1.006,1.245-1.006,2.227c0,1.747,1.125,2.585,2.682,2.585
			c1.293,0,2.657-0.622,3.304-1.604V159.691z"/>
		<path style="fill:#58595B;" d="M154.141,166.012c-0.623,0.216-1.557,0.359-2.251,0.359c-2.37,0-3.495-1.125-3.495-3.782v-7.709
			h-2.155c-0.048-0.12-0.072-0.407-0.072-0.551c0-0.12,0.024-0.407,0.072-0.527l2.155-0.144v-3.256
			c0.192-0.071,0.503-0.119,0.766-0.119c0.264,0,0.599,0.048,0.79,0.119v3.256h3.519c0.048,0.12,0.097,0.479,0.097,0.599
			c0,0.168-0.049,0.455-0.097,0.623h-3.519v7.565c0,1.891,0.551,2.681,2.035,2.681c0.814,0,1.604-0.119,2.155-0.287
			c0.048,0.12,0.096,0.407,0.096,0.575C154.236,165.629,154.212,165.797,154.141,166.012z"/>
		<path style="fill:#58595B;" d="M164.771,160.314h-8.021c0.096,2.753,1.389,4.836,4.381,4.836c1.078,0,2.083-0.144,2.969-0.359
			c0.048,0.12,0.096,0.359,0.096,0.503c0,0.239-0.048,0.455-0.119,0.622c-0.934,0.288-2.106,0.455-3.089,0.455
			c-1.891,0-3.327-0.599-4.213-1.556c-1.054-1.149-1.604-2.873-1.604-4.86c0-3.472,1.748-6.536,5.243-6.536
			c3.137,0,4.381,2.586,4.381,5.746C164.794,159.524,164.794,159.955,164.771,160.314z M163.238,159.165
			c0-2.202-0.239-4.573-2.897-4.573c-2.322,0-3.447,2.131-3.591,4.573H163.238z"/>
		<path style="fill:#58595B;" d="M170.181,166.371c-1.197,0-2.442-0.215-3.304-0.551c-0.072-0.167-0.12-0.455-0.12-0.67
			c0-0.144,0.048-0.503,0.096-0.646c0.886,0.359,2.155,0.646,3.208,0.646c1.819,0,2.945-0.767,2.945-2.274
			c0-1.365-0.694-1.844-2.586-2.538c-2.634-0.957-3.495-2.059-3.495-3.687c0-2.203,1.819-3.232,4.165-3.232
			c0.79,0,1.82,0.144,2.419,0.335c0.071,0.216,0.096,0.432,0.096,0.575c0,0.191-0.048,0.526-0.096,0.694
			c-0.79-0.239-1.629-0.383-2.442-0.383c-1.7,0-2.729,0.646-2.729,1.963c0,1.149,0.646,1.699,2.609,2.441
			c1.796,0.671,3.448,1.341,3.448,3.759C174.395,165.246,172.551,166.371,170.181,166.371z"/>
		<path style="fill:#58595B;" d="M190.723,163.067c0,0.862,0,1.939,0.048,3.064c-0.168,0.072-0.432,0.12-0.646,0.12
			c-0.191,0-0.455-0.048-0.646-0.12c-0.072-0.383-0.12-0.886-0.144-1.341h-0.024c-0.813,1.006-2.25,1.58-3.663,1.58
			c-2.227,0-4.094-1.245-4.094-3.807c0-1.46,0.599-2.537,1.532-3.208c1.054-0.742,2.442-0.981,3.927-0.981
			c0.838,0,1.532,0.048,2.154,0.144v-0.694c0-2.394-0.981-3.184-2.992-3.184c-1.126,0-2.514,0.239-3.376,0.454
			c-0.048-0.119-0.096-0.383-0.096-0.622c0-0.168,0.048-0.407,0.119-0.551c1.03-0.312,2.395-0.503,3.544-0.503
			c2.849,0,4.357,1.293,4.357,4.214V163.067z M189.166,159.691c-0.694-0.096-1.412-0.144-2.035-0.144
			c-1.173,0-2.227,0.216-2.944,0.767c-0.646,0.479-1.006,1.245-1.006,2.227c0,1.747,1.125,2.585,2.682,2.585
			c1.293,0,2.657-0.622,3.304-1.604V159.691z"/>
		<path style="fill:#58595B;" d="M199.604,154.808c-1.389,0.191-2.896,0.694-4.021,1.557v9.768c-0.24,0.072-0.527,0.12-0.79,0.12
			c-0.264,0-0.527-0.048-0.767-0.12v-12.474c0.144-0.048,0.359-0.096,0.599-0.096c0.191,0,0.455,0.048,0.646,0.096l0.119,1.532
			h0.024c1.029-0.886,2.825-1.628,4.189-1.771c0.048,0.144,0.096,0.407,0.096,0.623
			C199.699,154.281,199.651,154.592,199.604,154.808z"/>
		<path style="fill:#58595B;" d="M210.33,160.314h-8.021c0.096,2.753,1.389,4.836,4.382,4.836c1.077,0,2.082-0.144,2.968-0.359
			c0.048,0.12,0.097,0.359,0.097,0.503c0,0.239-0.049,0.455-0.12,0.622c-0.934,0.288-2.106,0.455-3.089,0.455
			c-1.891,0-3.327-0.599-4.213-1.556c-1.054-1.149-1.604-2.873-1.604-4.86c0-3.472,1.748-6.536,5.243-6.536
			c3.137,0,4.381,2.586,4.381,5.746C210.354,159.524,210.354,159.955,210.33,160.314z M208.798,159.165
			c0-2.202-0.239-4.573-2.897-4.573c-2.322,0-3.447,2.131-3.591,4.573H208.798z"/>
		<path style="fill:#58595B;" d="M219.093,151.217c-0.551,0-1.006-0.479-1.006-1.054s0.455-1.029,1.006-1.029
			c0.55,0,1.029,0.455,1.029,1.029S219.643,151.217,219.093,151.217z M219.883,166.132c-0.216,0.072-0.527,0.12-0.79,0.12
			c-0.264,0-0.551-0.048-0.767-0.12v-12.474c0.191-0.048,0.503-0.119,0.742-0.119c0.264,0,0.623,0.048,0.814,0.119V166.132z"/>
		<path style="fill:#58595B;" d="M232.81,166.156c-0.191,0.048-0.479,0.096-0.766,0.096c-0.239,0-0.551-0.048-0.79-0.12v-7.589
			c0-1.149-0.144-2.035-0.479-2.658c-0.406-0.766-1.173-1.148-2.418-1.148c-1.196,0-2.633,0.67-3.566,1.388v10.008
			c-0.264,0.072-0.527,0.12-0.814,0.12c-0.239,0-0.526-0.048-0.742-0.12v-12.474c0.168-0.071,0.455-0.096,0.622-0.096
			c0.24,0,0.527,0.024,0.671,0.096l0.119,1.245h0.024c1.316-1.077,2.825-1.484,4.046-1.484s2.49,0.407,3.185,1.245
			c0.766,0.91,0.909,2.227,0.909,3.52V166.156z"/>
	</g>
	<g>
		<path style="fill:#58595B;" d="M255.748,156.124l-3.209,10.008c-0.191,0.072-0.55,0.12-0.742,0.12
			c-0.215,0-0.574-0.048-0.742-0.12l-2.872-9.672h-0.048l-3.017,9.672c-0.216,0.072-0.551,0.12-0.742,0.12
			c-0.192,0-0.503-0.048-0.719-0.12l-2.969-9.863c-0.263-0.814-0.383-1.748-0.407-2.634c0.192-0.048,0.575-0.096,0.814-0.096
			c0.264,0,0.503,0.048,0.718,0.119c0.024,0.862,0.168,1.772,0.384,2.562l2.179,7.78h0.023l3.112-10.366
			c0.168-0.048,0.503-0.072,0.671-0.072c0.167,0,0.526,0.024,0.67,0.072l2.944,10.366h0.024l2.395-7.757
			c0.263-0.886,0.454-1.724,0.502-2.586c0.168-0.071,0.575-0.119,0.79-0.119c0.216,0,0.551,0.048,0.694,0.119
			C256.202,154.473,256.011,155.286,255.748,156.124z"/>
		<path style="fill:#58595B;" d="M262.834,166.371c-3.137,0-5.147-2.154-5.147-6.464s2.035-6.488,5.171-6.488
			c3.137,0,5.124,2.131,5.124,6.44S265.971,166.371,262.834,166.371z M262.857,154.592c-2.298,0-3.543,1.772-3.543,5.291
			c0,3.52,1.221,5.315,3.52,5.315c2.298,0,3.52-1.796,3.52-5.315C266.354,156.364,265.156,154.592,262.857,154.592z"/>
		<path style="fill:#58595B;" d="M276.121,154.808c-1.389,0.191-2.896,0.694-4.021,1.557v9.768c-0.24,0.072-0.527,0.12-0.79,0.12
			c-0.264,0-0.527-0.048-0.767-0.12v-12.474c0.144-0.048,0.359-0.096,0.599-0.096c0.191,0,0.455,0.048,0.646,0.096l0.119,1.532
			h0.024c1.029-0.886,2.825-1.628,4.189-1.771c0.048,0.144,0.096,0.407,0.096,0.623
			C276.217,154.281,276.169,154.592,276.121,154.808z"/>
		<path style="fill:#58595B;" d="M287.733,166.132c-0.168,0.048-0.526,0.12-0.79,0.12s-0.646-0.048-0.958-0.12l-4.069-6.416
			l-1.819,1.699v4.717c-0.24,0.072-0.551,0.12-0.838,0.12c-0.192,0-0.503-0.048-0.719-0.12v-17.477
			c0.216-0.072,0.479-0.12,0.79-0.12c0.287,0,0.526,0.048,0.767,0.12v10.94l4.046-3.782c0.861-0.814,1.293-1.532,1.412-2.155
			c0.168-0.071,0.526-0.119,0.742-0.119s0.551,0.048,0.694,0.119c-0.096,0.886-0.646,1.964-1.748,2.969l-2.227,2.06L287.733,166.132
			z"/>
	</g>
	<g>
		<path style="fill:#58595B;" d="M19.759,195.627c-3.136,0-5.147-2.154-5.147-6.464s2.035-6.488,5.171-6.488s5.124,2.131,5.124,6.44
			S22.896,195.627,19.759,195.627z M19.783,183.848c-2.298,0-3.543,1.772-3.543,5.291c0,3.52,1.221,5.315,3.52,5.315
			s3.52-1.796,3.52-5.315C23.279,185.62,22.082,183.848,19.783,183.848z"/>
		<path style="fill:#58595B;" d="M33.046,184.063c-1.388,0.191-2.896,0.694-4.022,1.557v9.768c-0.239,0.072-0.527,0.12-0.79,0.12
			s-0.527-0.048-0.766-0.12v-12.474c0.144-0.048,0.359-0.096,0.599-0.096c0.191,0,0.455,0.048,0.646,0.096l0.12,1.532h0.024
			c1.029-0.886,2.825-1.628,4.189-1.771c0.048,0.144,0.096,0.407,0.096,0.623C33.143,183.537,33.094,183.848,33.046,184.063z"/>
		<path style="fill:#58595B;" d="M47.794,178.94c-0.359-0.096-1.005-0.191-1.508-0.191c-0.91,0-1.58,0.239-2.035,0.742
			c-0.694,0.742-0.814,1.747-0.814,3.017v0.406h3.375c0.048,0.12,0.096,0.407,0.096,0.575c0,0.191-0.048,0.479-0.096,0.646h-3.375
			v11.252c-0.216,0.072-0.455,0.12-0.766,0.12c-0.312,0-0.575-0.048-0.79-0.12v-11.252h-2.155c-0.048-0.12-0.072-0.432-0.072-0.575
			c0-0.119,0.024-0.383,0.072-0.503l2.155-0.144v-0.406c0-1.7,0.287-2.873,1.269-3.854c0.694-0.694,1.724-1.03,2.897-1.03
			c0.623,0,1.317,0.145,1.748,0.312c0.048,0.12,0.072,0.287,0.072,0.455C47.866,178.533,47.842,178.82,47.794,178.94z"/>
		<path style="fill:#58595B;" d="M58.4,190.647c0,3.639-1.508,4.979-4.668,4.979c-3.232,0-4.597-1.341-4.597-4.86v-7.853
			c0.215-0.071,0.503-0.119,0.766-0.119c0.335,0,0.599,0.071,0.79,0.119v7.661c0,2.322,0.359,3.854,3.064,3.854
			c2.538,0,3.088-1.484,3.088-3.902v-7.613c0.191-0.071,0.527-0.119,0.79-0.119s0.551,0.048,0.766,0.119V190.647z"/>
		<path style="fill:#58595B;" d="M67.163,184.063c-1.388,0.191-2.896,0.694-4.022,1.557v9.768c-0.239,0.072-0.527,0.12-0.79,0.12
			s-0.527-0.048-0.766-0.12v-12.474c0.144-0.048,0.359-0.096,0.599-0.096c0.191,0,0.455,0.048,0.646,0.096l0.12,1.532h0.024
			c1.029-0.886,2.825-1.628,4.189-1.771c0.048,0.144,0.096,0.407,0.096,0.623C67.259,183.537,67.21,183.848,67.163,184.063z"/>
		<path style="fill:#58595B;" d="M76.452,195.268c-0.623,0.216-1.556,0.359-2.25,0.359c-2.37,0-3.496-1.125-3.496-3.782v-7.709
			h-2.155c-0.048-0.12-0.072-0.407-0.072-0.551c0-0.12,0.024-0.407,0.072-0.527l2.155-0.144v-3.256
			c0.192-0.071,0.503-0.119,0.766-0.119c0.264,0,0.599,0.048,0.79,0.119v3.256h3.52c0.048,0.12,0.096,0.479,0.096,0.599
			c0,0.168-0.048,0.455-0.096,0.623h-3.52v7.565c0,1.891,0.551,2.681,2.035,2.681c0.814,0,1.604-0.119,2.155-0.287
			c0.048,0.12,0.096,0.407,0.096,0.575C76.548,194.885,76.524,195.053,76.452,195.268z"/>
		<path style="fill:#58595B;" d="M88.351,195.388c-0.216,0.072-0.479,0.12-0.718,0.12c-0.288,0-0.599-0.048-0.838-0.12v-7.565
			c0-2.634-0.67-3.83-2.897-3.83c-1.197,0-2.634,0.67-3.567,1.388v10.008c-0.263,0.072-0.551,0.12-0.814,0.12
			c-0.239,0-0.527-0.048-0.742-0.12v-17.477c0.215-0.072,0.551-0.12,0.766-0.12s0.575,0.048,0.79,0.12v6.152
			c1.269-0.981,2.777-1.389,3.95-1.389c1.221,0,2.466,0.407,3.16,1.245c0.766,0.91,0.91,2.227,0.91,3.52V195.388z"/>
		<path style="fill:#58595B;" d="M100.441,189.57H92.42c0.096,2.753,1.389,4.836,4.381,4.836c1.077,0,2.083-0.144,2.969-0.359
			c0.048,0.12,0.096,0.359,0.096,0.503c0,0.239-0.048,0.455-0.12,0.622c-0.934,0.288-2.107,0.455-3.088,0.455
			c-1.892,0-3.328-0.599-4.214-1.556c-1.053-1.149-1.604-2.873-1.604-4.86c0-3.472,1.748-6.536,5.243-6.536
			c3.136,0,4.381,2.586,4.381,5.746C100.465,188.78,100.465,189.211,100.441,189.57z M98.909,188.421
			c0-2.202-0.24-4.573-2.897-4.573c-2.322,0-3.448,2.131-3.591,4.573H98.909z"/>
		<path style="fill:#58595B;" d="M108.652,184.063c-1.388,0.191-2.896,0.694-4.022,1.557v9.768c-0.239,0.072-0.527,0.12-0.79,0.12
			s-0.527-0.048-0.766-0.12v-12.474c0.144-0.048,0.359-0.096,0.599-0.096c0.191,0,0.455,0.048,0.646,0.096l0.12,1.532h0.024
			c1.029-0.886,2.825-1.628,4.189-1.771c0.048,0.144,0.096,0.407,0.096,0.623C108.749,183.537,108.7,183.848,108.652,184.063z"/>
		<path style="fill:#58595B;" d="M119.115,195.627c-1.197,0-2.442-0.215-3.304-0.551c-0.072-0.167-0.12-0.455-0.12-0.67
			c0-0.144,0.048-0.503,0.096-0.646c0.886,0.359,2.155,0.646,3.208,0.646c1.819,0,2.944-0.767,2.944-2.274
			c0-1.365-0.694-1.844-2.585-2.538c-2.633-0.957-3.496-2.059-3.496-3.687c0-2.203,1.82-3.232,4.166-3.232
			c0.79,0,1.819,0.144,2.418,0.335c0.072,0.216,0.096,0.432,0.096,0.575c0,0.191-0.048,0.526-0.096,0.694
			c-0.79-0.239-1.628-0.383-2.442-0.383c-1.7,0-2.729,0.646-2.729,1.963c0,1.149,0.646,1.699,2.61,2.441
			c1.795,0.671,3.447,1.341,3.447,3.759C123.328,194.502,121.485,195.627,119.115,195.627z"/>
		<path style="fill:#58595B;" d="M132.282,195.268c-0.623,0.216-1.556,0.359-2.25,0.359c-2.37,0-3.496-1.125-3.496-3.782v-7.709
			h-2.155c-0.048-0.12-0.072-0.407-0.072-0.551c0-0.12,0.024-0.407,0.072-0.527l2.155-0.144v-3.256
			c0.192-0.071,0.503-0.119,0.766-0.119c0.264,0,0.599,0.048,0.79,0.119v3.256h3.52c0.048,0.12,0.096,0.479,0.096,0.599
			c0,0.168-0.048,0.455-0.096,0.623h-3.52v7.565c0,1.891,0.551,2.681,2.035,2.681c0.814,0,1.604-0.119,2.155-0.287
			c0.048,0.12,0.096,0.407,0.096,0.575C132.378,194.885,132.354,195.053,132.282,195.268z"/>
		<path style="fill:#58595B;" d="M143.463,190.647c0,3.639-1.508,4.979-4.668,4.979c-3.232,0-4.597-1.341-4.597-4.86v-7.853
			c0.215-0.071,0.503-0.119,0.766-0.119c0.335,0,0.599,0.071,0.79,0.119v7.661c0,2.322,0.359,3.854,3.064,3.854
			c2.538,0,3.088-1.484,3.088-3.902v-7.613c0.191-0.071,0.527-0.119,0.79-0.119s0.551,0.048,0.766,0.119V190.647z"/>
		<path style="fill:#58595B;" d="M155.242,195.508c-0.216,0-0.479-0.072-0.623-0.12l-0.144-1.437h-0.023
			c-1.03,1.077-2.251,1.676-3.615,1.676c-3.304,0-4.884-2.753-4.884-6.104c0-3.328,1.413-6.848,5.219-6.848
			c1.197,0,2.299,0.407,3.185,1.029v-5.793c0.215-0.072,0.502-0.12,0.766-0.12c0.287,0,0.574,0.072,0.79,0.12v17.477
			C155.744,195.46,155.505,195.508,155.242,195.508z M154.356,185.021c-0.862-0.719-1.964-1.077-3.089-1.077
			c-2.777,0-3.711,2.729-3.711,5.506c0,2.131,0.67,4.908,3.352,4.908c1.292,0,2.61-0.646,3.448-1.652V185.021z"/>
		<path style="fill:#58595B;" d="M168.457,193.305c0,2.322-0.096,3.975-0.934,5.459c-0.958,1.699-2.849,2.514-4.549,2.514
			c-1.245,0-2.106-0.12-2.873-0.383c-0.071-0.145-0.096-0.384-0.096-0.575c0-0.144,0.048-0.455,0.096-0.599
			c0.719,0.216,1.58,0.384,2.729,0.384c2.634,0,4.07-1.892,4.07-5.172v-0.838c-1.222,1.077-2.586,1.532-3.831,1.532
			c-1.341,0-2.394-0.335-3.064-1.149c-0.742-0.886-0.838-2.179-0.838-3.471v-8.093c0.191-0.048,0.503-0.119,0.742-0.119
			c0.287,0,0.599,0.071,0.814,0.119v7.829c0,1.149,0.096,2.106,0.526,2.753c0.383,0.551,1.006,0.838,1.939,0.838
			c1.484,0,2.896-0.79,3.711-1.58v-9.84c0.215-0.048,0.526-0.119,0.813-0.119c0.239,0,0.551,0.071,0.742,0.119V193.305z"/>
		<path style="fill:#58595B;" d="M179.758,195.627c-1.197,0-2.442-0.215-3.304-0.551c-0.072-0.167-0.12-0.455-0.12-0.67
			c0-0.144,0.048-0.503,0.096-0.646c0.886,0.359,2.155,0.646,3.208,0.646c1.819,0,2.945-0.767,2.945-2.274
			c0-1.365-0.694-1.844-2.586-2.538c-2.634-0.957-3.495-2.059-3.495-3.687c0-2.203,1.819-3.232,4.165-3.232
			c0.79,0,1.82,0.144,2.419,0.335c0.071,0.216,0.096,0.432,0.096,0.575c0,0.191-0.048,0.526-0.096,0.694
			c-0.79-0.239-1.629-0.383-2.442-0.383c-1.7,0-2.729,0.646-2.729,1.963c0,1.149,0.646,1.699,2.609,2.441
			c1.796,0.671,3.448,1.341,3.448,3.759C183.972,194.502,182.128,195.627,179.758,195.627z"/>
		<path style="fill:#58595B;" d="M187.371,180.473c-0.551,0-1.006-0.479-1.006-1.054s0.455-1.029,1.006-1.029
			c0.55,0,1.029,0.455,1.029,1.029S187.921,180.473,187.371,180.473z M188.161,195.388c-0.216,0.072-0.527,0.12-0.79,0.12
			c-0.264,0-0.551-0.048-0.767-0.12v-12.474c0.191-0.048,0.503-0.119,0.742-0.119c0.264,0,0.623,0.048,0.814,0.119V195.388z"/>
		<path style="fill:#58595B;" d="M200.107,195.508c-0.312,0-0.503-0.048-0.742-0.12c-0.144-0.646-0.287-1.125-0.766-1.771
			l-2.777-3.783l-2.945,3.927c-0.526,0.694-0.598,1.006-0.693,1.628c-0.264,0.072-0.551,0.12-0.767,0.12
			c-0.239,0-0.694-0.048-0.862-0.12c0.096-0.79,0.359-1.316,0.862-1.987l3.472-4.572l-2.969-3.927
			c-0.671-0.886-0.886-1.556-0.886-2.035c0.191-0.048,0.599-0.096,0.838-0.096c0.287,0,0.599,0.024,0.79,0.096
			c0.071,0.455,0.215,0.958,0.766,1.724l2.347,3.209l2.418-3.161c0.574-0.741,0.718-1.269,0.813-1.771
			c0.192-0.048,0.479-0.096,0.79-0.096c0.168,0,0.599,0.048,0.767,0.096c-0.024,0.671-0.359,1.293-0.886,2.012l-2.945,3.902
			l3.353,4.549c0.551,0.742,0.838,1.269,0.957,2.059C200.802,195.46,200.371,195.508,200.107,195.508z"/>
		<path style="fill:#58595B;" d="M225.938,195.412c-0.239,0.048-0.479,0.096-0.718,0.096c-0.287,0-0.551-0.072-0.838-0.12v-7.565
			c0-2.634-0.671-3.83-2.897-3.83c-1.148,0-2.681,0.598-3.639,1.292c0.191,0.671,0.239,1.413,0.239,2.155v7.948
			c-0.239,0.072-0.479,0.12-0.718,0.12c-0.312,0-0.599-0.048-0.838-0.12v-7.565c0-2.634-0.599-3.83-2.825-3.83
			c-1.197,0-2.609,0.67-3.543,1.388v10.008c-0.264,0.072-0.575,0.12-0.862,0.12c-0.239,0-0.503-0.048-0.694-0.12v-12.474
			c0.12-0.048,0.383-0.096,0.646-0.096c0.216,0,0.479,0.048,0.646,0.096l0.119,1.245h0.024c1.316-1.077,2.825-1.484,4.046-1.484
			s2.395,0.407,3.089,1.245c0.096,0.096,0.167,0.216,0.239,0.335c1.269-1.029,2.896-1.58,4.453-1.58c1.221,0,2.466,0.407,3.16,1.245
			c0.766,0.91,0.909,2.227,0.909,3.52V195.412z"/>
		<path style="fill:#58595B;" d="M233.577,195.627c-3.137,0-5.147-2.154-5.147-6.464s2.035-6.488,5.171-6.488
			c3.137,0,5.124,2.131,5.124,6.44S236.714,195.627,233.577,195.627z M233.601,183.848c-2.298,0-3.543,1.772-3.543,5.291
			c0,3.52,1.221,5.315,3.52,5.315c2.298,0,3.52-1.796,3.52-5.315C237.097,185.62,235.899,183.848,233.601,183.848z"/>
		<path style="fill:#58595B;" d="M250.862,195.412c-0.191,0.048-0.479,0.096-0.766,0.096c-0.239,0-0.551-0.048-0.79-0.12v-7.589
			c0-1.149-0.144-2.035-0.479-2.658c-0.406-0.766-1.173-1.148-2.418-1.148c-1.196,0-2.633,0.67-3.566,1.388v10.008
			c-0.264,0.072-0.527,0.12-0.814,0.12c-0.239,0-0.526-0.048-0.742-0.12v-12.474c0.168-0.071,0.455-0.096,0.622-0.096
			c0.24,0,0.527,0.024,0.671,0.096l0.119,1.245h0.024c1.316-1.077,2.825-1.484,4.046-1.484s2.49,0.407,3.185,1.245
			c0.766,0.91,0.909,2.227,0.909,3.52V195.412z"/>
		<path style="fill:#58595B;" d="M260.678,195.268c-0.623,0.216-1.557,0.359-2.251,0.359c-2.37,0-3.495-1.125-3.495-3.782v-7.709
			h-2.154c-0.048-0.12-0.072-0.407-0.072-0.551c0-0.12,0.024-0.407,0.072-0.527l2.154-0.144v-3.256
			c0.191-0.071,0.503-0.119,0.767-0.119c0.263,0,0.599,0.048,0.79,0.119v3.256h3.519c0.048,0.12,0.097,0.479,0.097,0.599
			c0,0.168-0.049,0.455-0.097,0.623h-3.519v7.565c0,1.891,0.551,2.681,2.034,2.681c0.814,0,1.604-0.119,2.155-0.287
			c0.048,0.12,0.096,0.407,0.096,0.575C260.773,194.885,260.749,195.053,260.678,195.268z"/>
		<path style="fill:#58595B;" d="M272.576,195.388c-0.215,0.072-0.479,0.12-0.718,0.12c-0.287,0-0.599-0.048-0.838-0.12v-7.565
			c0-2.634-0.671-3.83-2.897-3.83c-1.196,0-2.633,0.67-3.566,1.388v10.008c-0.264,0.072-0.551,0.12-0.814,0.12
			c-0.239,0-0.526-0.048-0.742-0.12v-17.477c0.216-0.072,0.551-0.12,0.767-0.12c0.215,0,0.574,0.048,0.79,0.12v6.152
			c1.269-0.981,2.776-1.389,3.95-1.389c1.221,0,2.466,0.407,3.16,1.245c0.766,0.91,0.909,2.227,0.909,3.52V195.388z"/>
		<path style="fill:#58595B;" d="M278.538,195.627c-1.197,0-2.442-0.215-3.304-0.551c-0.072-0.167-0.12-0.455-0.12-0.67
			c0-0.144,0.048-0.503,0.096-0.646c0.886,0.359,2.155,0.646,3.208,0.646c1.819,0,2.945-0.767,2.945-2.274
			c0-1.365-0.694-1.844-2.586-2.538c-2.634-0.957-3.495-2.059-3.495-3.687c0-2.203,1.819-3.232,4.165-3.232
			c0.79,0,1.82,0.144,2.419,0.335c0.071,0.216,0.096,0.432,0.096,0.575c0,0.191-0.048,0.526-0.096,0.694
			c-0.79-0.239-1.629-0.383-2.442-0.383c-1.7,0-2.729,0.646-2.729,1.963c0,1.149,0.646,1.699,2.609,2.441
			c1.796,0.671,3.448,1.341,3.448,3.759C282.752,194.502,280.908,195.627,278.538,195.627z"/>
	</g>
	<g>
		<path style="fill:#58595B;" d="M23.829,221.581c0,0.862,0,1.939,0.048,3.064c-0.167,0.072-0.431,0.12-0.646,0.12
			c-0.191,0-0.455-0.048-0.646-0.12c-0.072-0.383-0.12-0.886-0.144-1.341h-0.024c-0.814,1.006-2.25,1.58-3.663,1.58
			c-2.227,0-4.094-1.245-4.094-3.807c0-1.46,0.599-2.537,1.532-3.208c1.054-0.742,2.442-0.981,3.926-0.981
			c0.838,0,1.532,0.048,2.155,0.144v-0.694c0-2.394-0.981-3.184-2.993-3.184c-1.125,0-2.514,0.239-3.375,0.454
			c-0.048-0.119-0.096-0.383-0.096-0.622c0-0.168,0.048-0.407,0.12-0.551c1.029-0.312,2.394-0.503,3.543-0.503
			c2.849,0,4.357,1.293,4.357,4.214V221.581z M22.273,218.205c-0.694-0.096-1.413-0.144-2.035-0.144
			c-1.173,0-2.227,0.216-2.945,0.767c-0.646,0.479-1.006,1.245-1.006,2.227c0,1.747,1.125,2.585,2.682,2.585
			c1.293,0,2.657-0.622,3.304-1.604V218.205z"/>
		<path style="fill:#58595B;" d="M34.195,208.198c-0.359-0.096-1.005-0.191-1.508-0.191c-0.91,0-1.58,0.239-2.035,0.742
			c-0.694,0.742-0.814,1.747-0.814,3.017v0.406h3.375c0.048,0.12,0.096,0.407,0.096,0.575c0,0.191-0.048,0.479-0.096,0.646h-3.375
			v11.252c-0.216,0.072-0.455,0.12-0.766,0.12c-0.312,0-0.575-0.048-0.79-0.12v-11.252h-2.155c-0.048-0.12-0.072-0.432-0.072-0.575
			c0-0.119,0.024-0.383,0.072-0.503l2.155-0.144v-0.406c0-1.7,0.287-2.873,1.269-3.854c0.694-0.694,1.724-1.03,2.897-1.03
			c0.623,0,1.317,0.145,1.748,0.312c0.048,0.12,0.072,0.287,0.072,0.455C34.267,207.791,34.243,208.078,34.195,208.198z"/>
		<path style="fill:#58595B;" d="M42.671,224.525c-0.623,0.216-1.556,0.359-2.25,0.359c-2.37,0-3.496-1.125-3.496-3.782v-7.709
			H34.77c-0.048-0.12-0.072-0.407-0.072-0.551c0-0.12,0.024-0.407,0.072-0.527l2.155-0.144v-3.256
			c0.192-0.071,0.503-0.119,0.766-0.119c0.264,0,0.599,0.048,0.79,0.119v3.256H42c0.048,0.12,0.096,0.479,0.096,0.599
			c0,0.168-0.048,0.455-0.096,0.623h-3.52v7.565c0,1.891,0.551,2.681,2.035,2.681c0.814,0,1.604-0.119,2.155-0.287
			c0.048,0.12,0.096,0.407,0.096,0.575C42.767,224.143,42.743,224.311,42.671,224.525z"/>
		<path style="fill:#58595B;" d="M53.301,218.828H45.28c0.096,2.753,1.389,4.836,4.381,4.836c1.077,0,2.083-0.144,2.969-0.359
			c0.048,0.12,0.096,0.359,0.096,0.503c0,0.239-0.048,0.455-0.12,0.622c-0.934,0.288-2.107,0.455-3.088,0.455
			c-1.892,0-3.328-0.599-4.214-1.556c-1.053-1.149-1.604-2.873-1.604-4.86c0-3.472,1.748-6.536,5.243-6.536
			c3.136,0,4.381,2.586,4.381,5.746C53.325,218.038,53.325,218.469,53.301,218.828z M51.769,217.679c0-2.202-0.24-4.573-2.897-4.573
			c-2.322,0-3.448,2.131-3.591,4.573H51.769z"/>
		<path style="fill:#58595B;" d="M61.512,213.321c-1.388,0.191-2.896,0.694-4.022,1.557v9.768c-0.239,0.072-0.527,0.12-0.79,0.12
			s-0.527-0.048-0.766-0.12v-12.474c0.144-0.048,0.359-0.096,0.599-0.096c0.191,0,0.455,0.048,0.646,0.096l0.12,1.532h0.024
			c1.029-0.886,2.825-1.628,4.189-1.771c0.048,0.144,0.096,0.407,0.096,0.623C61.608,212.795,61.56,213.105,61.512,213.321z"/>
		<path style="fill:#58595B;" d="M70.801,224.646c-0.263,0.072-0.526,0.12-0.814,0.12c-0.239,0-0.527-0.048-0.742-0.12v-17.477
			c0.215-0.048,0.479-0.12,0.79-0.12c0.264,0,0.551,0.048,0.766,0.12V224.646z"/>
		<path style="fill:#58595B;" d="M83.011,218.828h-8.021c0.096,2.753,1.389,4.836,4.381,4.836c1.077,0,2.083-0.144,2.969-0.359
			c0.048,0.12,0.096,0.359,0.096,0.503c0,0.239-0.048,0.455-0.12,0.622c-0.934,0.288-2.107,0.455-3.088,0.455
			c-1.892,0-3.328-0.599-4.214-1.556c-1.053-1.149-1.604-2.873-1.604-4.86c0-3.472,1.748-6.536,5.243-6.536
			c3.136,0,4.381,2.586,4.381,5.746C83.035,218.038,83.035,218.469,83.011,218.828z M81.479,217.679c0-2.202-0.24-4.573-2.897-4.573
			c-2.322,0-3.448,2.131-3.591,4.573H81.479z"/>
		<path style="fill:#58595B;" d="M94.167,221.581c0,0.862,0,1.939,0.048,3.064c-0.167,0.072-0.431,0.12-0.646,0.12
			c-0.191,0-0.455-0.048-0.646-0.12c-0.072-0.383-0.12-0.886-0.144-1.341h-0.024c-0.814,1.006-2.25,1.58-3.663,1.58
			c-2.227,0-4.094-1.245-4.094-3.807c0-1.46,0.599-2.537,1.532-3.208c1.054-0.742,2.442-0.981,3.926-0.981
			c0.838,0,1.532,0.048,2.155,0.144v-0.694c0-2.394-0.981-3.184-2.993-3.184c-1.125,0-2.514,0.239-3.375,0.454
			c-0.048-0.119-0.096-0.383-0.096-0.622c0-0.168,0.048-0.407,0.12-0.551c1.029-0.312,2.394-0.503,3.543-0.503
			c2.849,0,4.357,1.293,4.357,4.214V221.581z M92.611,218.205c-0.694-0.096-1.413-0.144-2.035-0.144
			c-1.173,0-2.227,0.216-2.945,0.767c-0.646,0.479-1.006,1.245-1.006,2.227c0,1.747,1.125,2.585,2.682,2.585
			c1.293,0,2.657-0.622,3.304-1.604V218.205z"/>
		<path style="fill:#58595B;" d="M105.683,215.213l-3.759,9.433c-0.215,0.072-0.455,0.12-0.646,0.12c-0.263,0-0.479-0.048-0.67-0.12
			l-3.879-9.433c-0.431-1.077-0.622-2.155-0.622-3.041c0.191-0.048,0.526-0.119,0.742-0.119c0.287,0,0.574,0.048,0.814,0.119
			c0.024,0.814,0.12,1.748,0.479,2.61l3.112,7.9h0.048l3.017-7.9c0.335-0.838,0.503-1.772,0.503-2.61
			c0.167-0.071,0.527-0.119,0.838-0.119c0.167,0,0.479,0.023,0.694,0.096C106.33,213.01,106.162,214.04,105.683,215.213z"/>
		<path style="fill:#58595B;" d="M109.346,209.73c-0.55,0-1.005-0.479-1.005-1.054s0.455-1.029,1.005-1.029
			c0.551,0,1.03,0.455,1.03,1.029S109.896,209.73,109.346,209.73z M110.136,224.646c-0.215,0.072-0.526,0.12-0.79,0.12
			c-0.263,0-0.55-0.048-0.766-0.12v-12.474c0.192-0.048,0.503-0.119,0.742-0.119c0.264,0,0.623,0.048,0.814,0.119V224.646z"/>
		<path style="fill:#58595B;" d="M123.064,224.67c-0.192,0.048-0.479,0.096-0.766,0.096c-0.24,0-0.551-0.048-0.79-0.12v-7.589
			c0-1.149-0.144-2.035-0.479-2.658c-0.407-0.766-1.173-1.148-2.418-1.148c-1.197,0-2.634,0.67-3.567,1.388v10.008
			c-0.263,0.072-0.527,0.12-0.814,0.12c-0.239,0-0.527-0.048-0.742-0.12v-12.474c0.167-0.071,0.455-0.096,0.623-0.096
			c0.239,0,0.527,0.024,0.67,0.096l0.12,1.245h0.024c1.317-1.077,2.825-1.484,4.046-1.484c1.221,0,2.49,0.407,3.184,1.245
			c0.766,0.91,0.91,2.227,0.91,3.52V224.67z"/>
		<path style="fill:#58595B;" d="M135.274,222.562c0,1.796-0.096,3.95-0.958,5.435c-1.03,1.771-2.873,2.538-4.716,2.538
			c-1.054,0-1.963-0.12-2.729-0.383c-0.072-0.145-0.096-0.384-0.096-0.575c0-0.144,0.048-0.431,0.096-0.574
			c0.742,0.191,1.604,0.335,2.466,0.335c3.017,0,4.381-1.867,4.381-5.147v-1.005c-0.934,0.981-2.25,1.46-3.328,1.46
			c-3.185,0-4.836-2.466-4.836-5.938c0-4.262,2.514-6.775,6.225-6.775c0.982,0,2.466,0.287,3.496,0.694V222.562z M133.718,213.394
			c-0.862-0.239-1.484-0.312-2.083-0.312c-3.041,0-4.477,2.562-4.477,5.555c0,2.657,1.006,4.74,3.352,4.74
			c1.197,0,2.418-0.599,3.208-1.437V213.394z"/>
		<path style="fill:#58595B;" d="M152.99,219.905c0,3.639-1.508,4.979-4.668,4.979c-3.232,0-4.597-1.341-4.597-4.86v-7.853
			c0.215-0.071,0.503-0.119,0.766-0.119c0.335,0,0.599,0.071,0.79,0.119v7.661c0,2.322,0.359,3.854,3.064,3.854
			c2.538,0,3.089-1.484,3.089-3.902v-7.613c0.191-0.071,0.526-0.119,0.79-0.119c0.263,0,0.55,0.048,0.766,0.119V219.905z"/>
		<path style="fill:#58595B;" d="M165.751,224.67c-0.191,0.048-0.479,0.096-0.766,0.096c-0.239,0-0.551-0.048-0.79-0.12v-7.589
			c0-1.149-0.144-2.035-0.479-2.658c-0.406-0.766-1.173-1.148-2.418-1.148c-1.196,0-2.633,0.67-3.566,1.388v10.008
			c-0.264,0.072-0.527,0.12-0.814,0.12c-0.239,0-0.526-0.048-0.742-0.12v-12.474c0.168-0.071,0.455-0.096,0.622-0.096
			c0.24,0,0.527,0.024,0.671,0.096l0.119,1.245h0.024c1.316-1.077,2.825-1.484,4.046-1.484s2.49,0.407,3.185,1.245
			c0.766,0.91,0.909,2.227,0.909,3.52V224.67z"/>
		<path style="fill:#58595B;" d="M169.797,209.73c-0.551,0-1.006-0.479-1.006-1.054s0.455-1.029,1.006-1.029
			c0.55,0,1.029,0.455,1.029,1.029S170.347,209.73,169.797,209.73z M170.587,224.646c-0.216,0.072-0.527,0.12-0.79,0.12
			c-0.264,0-0.551-0.048-0.767-0.12v-12.474c0.191-0.048,0.503-0.119,0.742-0.119c0.264,0,0.623,0.048,0.814,0.119V224.646z"/>
		<path style="fill:#58595B;" d="M182.39,215.213l-3.759,9.433c-0.216,0.072-0.455,0.12-0.646,0.12c-0.263,0-0.479-0.048-0.67-0.12
			l-3.879-9.433c-0.431-1.077-0.622-2.155-0.622-3.041c0.191-0.048,0.526-0.119,0.742-0.119c0.287,0,0.574,0.048,0.813,0.119
			c0.024,0.814,0.12,1.748,0.479,2.61l3.112,7.9h0.048l3.017-7.9c0.335-0.838,0.503-1.772,0.503-2.61
			c0.167-0.071,0.526-0.119,0.838-0.119c0.167,0,0.479,0.023,0.694,0.096C183.036,213.01,182.868,214.04,182.39,215.213z"/>
		<path style="fill:#58595B;" d="M194.001,218.828h-8.021c0.096,2.753,1.389,4.836,4.381,4.836c1.078,0,2.083-0.144,2.969-0.359
			c0.048,0.12,0.096,0.359,0.096,0.503c0,0.239-0.048,0.455-0.119,0.622c-0.934,0.288-2.106,0.455-3.089,0.455
			c-1.891,0-3.327-0.599-4.213-1.556c-1.054-1.149-1.604-2.873-1.604-4.86c0-3.472,1.748-6.536,5.243-6.536
			c3.137,0,4.381,2.586,4.381,5.746C194.024,218.038,194.024,218.469,194.001,218.828z M192.469,217.679
			c0-2.202-0.239-4.573-2.897-4.573c-2.322,0-3.447,2.131-3.591,4.573H192.469z"/>
		<path style="fill:#58595B;" d="M202.213,213.321c-1.389,0.191-2.896,0.694-4.021,1.557v9.768c-0.24,0.072-0.527,0.12-0.79,0.12
			c-0.264,0-0.527-0.048-0.767-0.12v-12.474c0.144-0.048,0.359-0.096,0.599-0.096c0.191,0,0.455,0.048,0.646,0.096l0.119,1.532
			h0.024c1.029-0.886,2.825-1.628,4.189-1.771c0.048,0.144,0.096,0.407,0.096,0.623
			C202.309,212.795,202.261,213.105,202.213,213.321z"/>
		<path style="fill:#58595B;" d="M207.408,224.885c-1.197,0-2.442-0.215-3.304-0.551c-0.072-0.167-0.12-0.455-0.12-0.67
			c0-0.144,0.048-0.503,0.096-0.646c0.886,0.359,2.155,0.646,3.208,0.646c1.819,0,2.945-0.767,2.945-2.274
			c0-1.365-0.694-1.844-2.586-2.538c-2.634-0.957-3.495-2.059-3.495-3.687c0-2.203,1.819-3.232,4.165-3.232
			c0.79,0,1.82,0.144,2.419,0.335c0.071,0.216,0.096,0.432,0.096,0.575c0,0.191-0.048,0.526-0.096,0.694
			c-0.79-0.239-1.629-0.383-2.442-0.383c-1.7,0-2.729,0.646-2.729,1.963c0,1.149,0.646,1.699,2.609,2.441
			c1.796,0.671,3.448,1.341,3.448,3.759C211.622,223.76,209.778,224.885,207.408,224.885z"/>
		<path style="fill:#58595B;" d="M215.022,209.73c-0.551,0-1.006-0.479-1.006-1.054s0.455-1.029,1.006-1.029
			c0.55,0,1.029,0.455,1.029,1.029S215.572,209.73,215.022,209.73z M215.812,224.646c-0.216,0.072-0.527,0.12-0.79,0.12
			c-0.264,0-0.551-0.048-0.767-0.12v-12.474c0.191-0.048,0.503-0.119,0.742-0.119c0.264,0,0.623,0.048,0.814,0.119V224.646z"/>
		<path style="fill:#58595B;" d="M225.795,224.525c-0.623,0.216-1.557,0.359-2.251,0.359c-2.37,0-3.495-1.125-3.495-3.782v-7.709
			h-2.154c-0.048-0.12-0.072-0.407-0.072-0.551c0-0.12,0.024-0.407,0.072-0.527l2.154-0.144v-3.256
			c0.191-0.071,0.503-0.119,0.767-0.119c0.263,0,0.599,0.048,0.79,0.119v3.256h3.519c0.048,0.12,0.097,0.479,0.097,0.599
			c0,0.168-0.049,0.455-0.097,0.623h-3.519v7.565c0,1.891,0.551,2.681,2.034,2.681c0.814,0,1.604-0.119,2.155-0.287
			c0.048,0.12,0.096,0.407,0.096,0.575C225.891,224.143,225.866,224.311,225.795,224.525z"/>
		<path style="fill:#58595B;" d="M236.928,222.562c0,2.322-0.096,3.975-0.934,5.459c-0.958,1.699-2.849,2.514-4.549,2.514
			c-1.245,0-2.106-0.12-2.873-0.383c-0.071-0.145-0.096-0.384-0.096-0.575c0-0.144,0.048-0.455,0.096-0.599
			c0.719,0.216,1.58,0.384,2.729,0.384c2.634,0,4.07-1.892,4.07-5.172v-0.838c-1.222,1.077-2.586,1.532-3.831,1.532
			c-1.341,0-2.394-0.335-3.064-1.149c-0.742-0.886-0.838-2.179-0.838-3.471v-8.093c0.191-0.048,0.503-0.119,0.742-0.119
			c0.287,0,0.599,0.071,0.814,0.119v7.829c0,1.149,0.096,2.106,0.526,2.753c0.383,0.551,1.006,0.838,1.939,0.838
			c1.484,0,2.896-0.79,3.711-1.58v-9.84c0.215-0.048,0.526-0.119,0.813-0.119c0.239,0,0.551,0.071,0.742,0.119V222.562z"/>
	</g>
	<g>
		<path style="fill:#58595B;" d="M19.017,256.559c-2.658-2.657-4.022-6.344-4.022-9.744c0-3.759,1.437-7.206,4.022-9.863
			c0.263,0.071,0.527,0.216,0.718,0.407c-2.227,2.849-3.208,6.152-3.208,9.408c0,3.232,0.981,6.44,3.208,9.385
			C19.544,256.344,19.28,256.487,19.017,256.559z"/>
		<path style="fill:#58595B;" d="M27.301,254.021c-1.149,0-3.304-0.072-4.166-0.12v-16.185c1.221-0.071,2.825-0.119,4.142-0.119
			c5.315,0,7.757,2.394,7.757,7.973C35.034,250.621,32.616,254.021,27.301,254.021z M27.277,238.795
			c-0.766,0-1.795,0.023-2.514,0.071v13.838c0.599,0.072,1.843,0.12,2.49,0.12c3.854,0,6.057-2.49,6.057-7.158
			C33.31,241.117,31.802,238.795,27.277,238.795z"/>
		<path style="fill:#58595B;" d="M47.172,253.901h-8.738v-16.185c0.191-0.071,0.55-0.119,0.814-0.119
			c0.263,0,0.623,0.048,0.814,0.119v14.939h7.11c0.072,0.144,0.12,0.431,0.12,0.646C47.292,253.494,47.244,253.758,47.172,253.901z"
			/>
		<path style="fill:#58595B;" d="M61.178,253.901c-0.191,0.072-0.551,0.12-0.814,0.12s-0.623-0.048-0.814-0.12v-7.493h-7.829v7.493
			c-0.191,0.072-0.551,0.12-0.814,0.12c-0.264,0-0.623-0.048-0.814-0.12v-16.185c0.191-0.071,0.55-0.119,0.814-0.119
			c0.263,0,0.623,0.048,0.814,0.119v7.398h7.829v-7.398c0.191-0.071,0.551-0.119,0.814-0.119s0.623,0.048,0.814,0.119V253.901z"/>
		<path style="fill:#58595B;" d="M74.058,253.901h-8.81v-16.185h8.451c0.072,0.168,0.12,0.432,0.12,0.623
			c0,0.215-0.048,0.479-0.12,0.622h-6.823v5.938h5.889c0.048,0.12,0.12,0.431,0.12,0.623c0,0.191-0.048,0.454-0.12,0.646h-5.889
			v6.488h7.182c0.072,0.168,0.12,0.431,0.12,0.623C74.178,253.494,74.13,253.758,74.058,253.901z"/>
		<path style="fill:#58595B;" d="M86.507,254.141c-1.437,0-3.088-0.264-4.333-0.718c-0.072-0.191-0.12-0.432-0.12-0.694
			c0-0.239,0.048-0.527,0.096-0.719c1.269,0.503,2.993,0.814,4.238,0.814c2.418,0,3.687-1.077,3.687-3.064
			c0-1.748-0.934-2.538-2.705-3.185l-1.437-0.526c-2.394-0.886-3.759-2.035-3.759-4.333c0-2.682,2.131-4.238,5.147-4.238
			c1.173,0,2.37,0.168,3.447,0.455c0.072,0.144,0.096,0.383,0.096,0.599c0,0.191-0.048,0.503-0.12,0.67
			c-1.005-0.311-2.179-0.454-3.328-0.454c-1.771,0-3.567,0.622-3.567,2.872c0,1.796,0.91,2.419,2.945,3.185l1.269,0.479
			c2.203,0.838,3.615,1.964,3.615,4.31C91.679,252.704,89.524,254.141,86.507,254.141z"/>
		<path style="fill:#58595B;" d="M103.745,249.161c0,3.639-1.508,4.979-4.668,4.979c-3.232,0-4.597-1.341-4.597-4.86v-7.853
			c0.215-0.071,0.503-0.119,0.766-0.119c0.335,0,0.599,0.071,0.79,0.119v7.661c0,2.322,0.359,3.854,3.064,3.854
			c2.538,0,3.088-1.484,3.088-3.902v-7.613c0.191-0.071,0.527-0.119,0.79-0.119s0.551,0.048,0.766,0.119V249.161z"/>
		<path style="fill:#58595B;" d="M112.507,242.577c-1.388,0.191-2.896,0.694-4.022,1.557v9.768c-0.239,0.072-0.527,0.12-0.79,0.12
			s-0.527-0.048-0.766-0.12v-12.474c0.144-0.048,0.359-0.096,0.599-0.096c0.191,0,0.455,0.048,0.646,0.096l0.12,1.532h0.024
			c1.029-0.886,2.825-1.628,4.189-1.771c0.048,0.144,0.096,0.407,0.096,0.623C112.603,242.051,112.555,242.361,112.507,242.577z"/>
		<path style="fill:#58595B;" d="M123.376,244.469l-3.759,9.433c-0.215,0.072-0.455,0.12-0.646,0.12c-0.263,0-0.479-0.048-0.67-0.12
			l-3.879-9.433c-0.431-1.077-0.622-2.155-0.622-3.041c0.191-0.048,0.526-0.119,0.742-0.119c0.287,0,0.574,0.048,0.814,0.119
			c0.024,0.814,0.12,1.748,0.479,2.61l3.112,7.9h0.048l3.017-7.9c0.335-0.838,0.503-1.772,0.503-2.61
			c0.167-0.071,0.527-0.119,0.838-0.119c0.167,0,0.479,0.023,0.694,0.096C124.023,242.266,123.855,243.296,123.376,244.469z"/>
		<path style="fill:#58595B;" d="M134.964,248.084h-8.021c0.096,2.753,1.389,4.836,4.381,4.836c1.077,0,2.083-0.144,2.969-0.359
			c0.048,0.12,0.096,0.359,0.096,0.503c0,0.239-0.048,0.455-0.12,0.622c-0.934,0.288-2.107,0.455-3.088,0.455
			c-1.892,0-3.328-0.599-4.214-1.556c-1.053-1.149-1.604-2.873-1.604-4.86c0-3.472,1.748-6.536,5.243-6.536
			c3.136,0,4.381,2.586,4.381,5.746C134.988,247.294,134.988,247.725,134.964,248.084z M133.432,246.935
			c0-2.202-0.24-4.573-2.897-4.573c-2.322,0-3.448,2.131-3.591,4.573H133.432z"/>
		<path style="fill:#58595B;" d="M146.886,251.818c0,2.322-0.096,3.975-0.934,5.459c-0.958,1.699-2.849,2.514-4.549,2.514
			c-1.245,0-2.107-0.12-2.873-0.383c-0.072-0.145-0.096-0.384-0.096-0.575c0-0.144,0.048-0.455,0.096-0.599
			c0.718,0.216,1.58,0.384,2.729,0.384c2.633,0,4.07-1.892,4.07-5.172v-0.838c-1.221,1.077-2.585,1.532-3.831,1.532
			c-1.341,0-2.394-0.335-3.064-1.149c-0.742-0.886-0.838-2.179-0.838-3.471v-8.093c0.191-0.048,0.503-0.119,0.742-0.119
			c0.287,0,0.599,0.071,0.814,0.119v7.829c0,1.149,0.096,2.106,0.527,2.753c0.383,0.551,1.005,0.838,1.939,0.838
			c1.484,0,2.897-0.79,3.711-1.58v-9.84c0.216-0.048,0.527-0.119,0.814-0.119c0.24,0,0.551,0.071,0.742,0.119V251.818z"/>
		<path style="fill:#58595B;" d="M160.557,249.089c-1.173,1.365-2.274,2.538-3.208,3.544h7.374c0.071,0.215,0.071,0.479,0.071,0.622
			c0,0.216-0.023,0.431-0.071,0.646h-9.026c-0.144-0.407-0.191-0.67-0.191-0.934c0-0.168,0-0.239,0.024-0.383
			c1.389-1.509,3.04-3.305,3.998-4.382c2.633-2.969,3.639-4.764,3.639-6.535c0-2.012-1.149-3.017-3.017-3.017
			c-1.269,0-2.753,0.383-3.926,0.909c-0.048-0.144-0.072-0.479-0.072-0.622c0-0.216,0.048-0.432,0.12-0.623
			c0.957-0.431,2.633-0.838,4.094-0.838c2.682,0,4.524,1.484,4.524,4.046C164.89,243.679,163.74,245.402,160.557,249.089z"/>
		<path style="fill:#58595B;" d="M172.767,254.141c-3.232,0-5.028-2.394-5.028-8.331s1.987-8.332,5.124-8.332
			c3.184,0,5.027,2.395,5.027,8.332S175.902,254.141,172.767,254.141z M172.862,238.651c-2.395,0-3.4,2.441-3.4,7.158
			c0,4.716,0.935,7.158,3.328,7.158c2.395,0,3.376-2.442,3.376-7.158C176.166,241.093,175.256,238.651,172.862,238.651z"/>
		<path style="fill:#58595B;" d="M187.419,253.901c-0.191,0.072-0.551,0.12-0.814,0.12c-0.263,0-0.622-0.048-0.813-0.12v-14.556
			l-4.189,2.657c-0.24-0.216-0.527-0.646-0.623-1.054l5.124-3.256c0.167-0.048,0.431-0.096,0.622-0.096
			c0.239,0,0.503,0.048,0.694,0.119V253.901z"/>
		<path style="fill:#58595B;" d="M198.575,254.141c-3.879,0-5.075-3.088-5.075-7.302c0-5.004,1.747-9.361,6.799-9.361
			c0.574,0,1.173,0.096,1.508,0.191c0.072,0.144,0.097,0.384,0.097,0.503c0,0.144-0.048,0.455-0.12,0.575
			c-0.359-0.072-0.91-0.144-1.364-0.144c-3.232,0-4.885,2.657-5.147,6.822c0.909-0.861,2.441-1.484,3.854-1.484
			c2.609,0,4.262,1.964,4.262,4.765C203.388,251.771,201.663,254.141,198.575,254.141z M198.982,245.139
			c-1.245,0-2.777,0.646-3.759,1.676c-0.024,0.336-0.024,0.575-0.024,0.79c0,3.137,0.91,5.411,3.376,5.411
			c2.179,0,3.088-2.227,3.088-4.214C201.663,247.006,201.089,245.139,198.982,245.139z"/>
		<path style="fill:#58595B;" d="M206.907,254.141c-0.216,0.072-0.526,0.12-0.79,0.12c-0.239,0-0.479-0.048-0.694-0.12l4.812-16.663
			c0.239-0.071,0.599-0.119,0.79-0.119s0.574,0.071,0.694,0.119L206.907,254.141z"/>
		<path style="fill:#58595B;" d="M220.625,253.901c-0.191,0.072-0.551,0.12-0.814,0.12c-0.263,0-0.622-0.048-0.813-0.12v-14.556
			l-4.189,2.657c-0.24-0.216-0.527-0.646-0.623-1.054l5.124-3.256c0.167-0.048,0.431-0.096,0.622-0.096
			c0.239,0,0.503,0.048,0.694,0.119V253.901z"/>
		<path style="fill:#58595B;" d="M236.402,238.986l-6.775,14.915c-0.191,0.072-0.55,0.12-0.861,0.12
			c-0.287,0-0.599-0.048-0.814-0.12l6.967-14.915h-8.14c-0.096-0.216-0.144-0.455-0.144-0.671c0-0.191,0.048-0.431,0.12-0.599h9.647
			c0.048,0.145,0.096,0.432,0.096,0.575C236.498,238.555,236.475,238.795,236.402,238.986z"/>
		<path style="fill:#58595B;" d="M242.292,246.767c0-3.256-0.981-6.56-3.208-9.408c0.191-0.191,0.455-0.336,0.718-0.407
			c2.586,2.657,4.022,6.104,4.022,9.863c0,3.4-1.364,7.087-4.022,9.744c-0.263-0.071-0.526-0.215-0.718-0.407
			C241.311,253.207,242.292,249.999,242.292,246.767z"/>
	</g>
</g>
</svg>
