<?xml version="1.0" encoding="utf-8"?>
<!-- Generator: Adobe Illustrator 16.0.0, SVG Export Plug-In . SVG Version: 6.00 Build 0)  -->
<!DOCTYPE svg PUBLIC "-//W3C//DTD SVG 1.0//EN" "http://www.w3.org/TR/2001/REC-SVG-20010904/DTD/svg10.dtd">
<svg version="1.0" xmlns="http://www.w3.org/2000/svg" xmlns:xlink="http://www.w3.org/1999/xlink" x="0px" y="0px" width="300px"
	 height="300px" viewBox="0 0 300 300" style="enable-background:new 0 0 300 300;" xml:space="preserve">
<g id="Icon">
	<path style="fill:#58595B;" d="M52.649,120.593c-0.188-0.809-0.396-1.48-0.491-2.167c-0.833-6.117-1.73-12.228-2.439-18.361
		c-0.558-4.848-1.965-9.672-0.652-14.629c-0.222-0.042-0.357-0.087-0.49-0.087c-6.006,0.001-12.013-0.1-18.013,0.043
		c-5.357,0.128-9.675,5.619-8.855,10.963c0.409,2.671,0.789,5.344,1.185,8.016c0.684,4.615,1.351,9.232,2.067,13.841
		c0.243,1.561,1.321,2.401,2.841,2.4c6.461-0.009,12.923-0.014,19.384-0.02C48.972,120.591,50.758,120.593,52.649,120.593
		 M99.155,120.783c0.05,0.008,0.252,0.059,0.454,0.059c7.969,0.004,15.936,0.015,23.906-0.006c1.866-0.005,3.033-1.14,3.302-3.017
		c0.955-6.699,1.749-13.427,2.93-20.089c1.284-7.245-3.816-12.65-10.592-12.341c-5.148,0.235-10.318,0.046-15.478,0.049
		c-0.361,0-0.722,0.04-0.843,0.047c0.08,2.055,0.417,3.997,0.186,5.869C101.811,101.158,100.46,110.947,99.155,120.783 M75.9,120.99
		c4.566,0,9.132,0.012,13.699-0.004c2.177-0.007,3.647-1.294,3.936-3.458c1.171-8.801,2.362-17.601,3.467-26.412
		c0.792-6.309-4.26-12.041-10.626-12.086c-7.025-0.05-14.051-0.035-21.077-0.003c-5.201,0.025-9.731,3.709-10.538,8.844
		c-0.314,1.994-0.063,4.12,0.188,6.155c0.964,7.766,2.018,15.521,3.071,23.277c0.338,2.486,1.781,3.683,4.284,3.687
		C66.838,120.994,71.369,120.991,75.9,120.99 M75.484,126.917c-15.663,0-31.328,0.001-46.991,0c-5.36-0.001-8.854-2.881-9.679-8.157
		c-1.142-7.314-2.277-14.631-3.229-21.972c-1.128-8.705,6.028-16.948,14.823-17.104c6.845-0.12,13.696-0.044,20.543-0.019
		c0.777,0.003,1.29-0.229,1.797-0.815c3.281-3.768,7.48-5.626,12.437-5.668c6.954-0.06,13.909-0.063,20.862,0.001
		c4.997,0.045,9.202,1.993,12.552,5.708c0.491,0.544,0.975,0.775,1.709,0.772c6.743-0.025,13.486-0.056,20.23,0
		c7.013,0.058,13.195,4.866,14.742,11.604c0.407,1.766,0.409,3.71,0.179,5.521c-0.741,5.845-1.68,11.665-2.537,17.496
		c-0.24,1.631-0.425,3.271-0.696,4.898c-0.764,4.619-4.464,7.727-9.225,7.729C107.163,126.923,91.322,126.917,75.484,126.917"/>
	<path style="fill:#58595B;" d="M85.238,51.11c-0.038-0.004-0.074-0.005-0.113-0.008c0-1.052,0.033-2.106-0.005-3.157
		c-0.188-5.122-4.255-9.033-9.355-9.017c-5.065,0.018-9.113,3.893-9.291,8.967c-0.075,2.102-0.075,4.212,0,6.314
		c0.167,4.816,3.786,8.53,8.661,8.973c4.483,0.406,8.778-2.726,9.733-7.265C85.195,54.358,85.126,52.714,85.238,51.11
		 M91.018,51.042c0.14,2.709,0.093,5.399-0.872,7.998c-2.452,6.602-9.001,10.614-16.178,9.867
		c-6.66-0.693-12.412-6.064-13.261-12.771c-0.492-3.888-0.661-7.868,0.306-11.733c1.781-7.114,8.608-12.013,15.699-11.402
		c7.829,0.672,13.676,6.35,14.288,13.938C91.111,48.297,91.018,49.674,91.018,51.042"/>
	<path style="fill:#58595B;" d="M49.147,59.177c-0.052-0.006-0.104-0.011-0.156-0.016c0-0.876,0.025-1.754-0.003-2.631
		c-0.147-4.662-3.766-8.172-8.342-8.109c-4.554,0.062-8.026,3.589-8.085,8.233c-0.021,1.754-0.029,3.51,0.01,5.264
		c0.088,3.951,3.084,7.351,6.89,7.86c4.257,0.569,8.09-1.793,9.139-5.822C48.999,62.42,48.976,60.773,49.147,59.177 M26.424,59.189
		c0.213-2.015,0.203-4.084,0.681-6.035c1.664-6.792,8.371-11.375,15.128-10.512c7.321,0.936,12.654,6.738,12.669,13.935
		c0.007,2.831,0.121,5.736-0.439,8.479c-1.441,7.048-8.051,11.545-15.372,10.814c-6.694-0.67-12.151-6.528-12.453-13.397
		c-0.049-1.086-0.007-2.175-0.007-3.264C26.562,59.203,26.492,59.196,26.424,59.189"/>
	<path style="fill:#58595B;" d="M102.419,59.051c0.032,0.001,0.06,0.003,0.091,0.004c0,1.018-0.041,2.038,0.007,3.053
		c0.205,4.322,3.636,7.644,8.014,7.79c4.172,0.139,7.9-3.03,8.277-7.248c0.201-2.262,0.205-4.568,0.021-6.832
		c-0.332-4.11-3.578-7.163-7.593-7.385c-4.144-0.23-7.708,2.386-8.538,6.428C102.419,56.219,102.503,57.652,102.419,59.051
		 M125.174,59.347c-0.232,2.084-0.229,4.227-0.74,6.24c-1.729,6.803-8.52,11.214-15.508,10.26
		c-6.984-0.953-12.276-6.904-12.244-13.888c0.013-2.833-0.113-5.736,0.444-8.483c1.392-6.878,8.031-11.536,14.96-10.854
		c7.122,0.701,12.565,6.381,12.86,13.438c0.046,1.087,0.006,2.176,0.006,3.266C125.026,59.332,125.101,59.339,125.174,59.347"/>
</g>
<g id="Text" style="display:none;">
	<text transform="matrix(1 0 0 1 14.9736 152.2617)" style="display:inline;"><tspan x="0" y="0" style="fill:#58595B; font-family:'FSMatthew-Light'; font-size:16.1221;"> </tspan><tspan x="3.546" y="0" style="fill:#58595B; font-family:'FSMatthew-Light'; font-size:16.1221;">W</tspan><tspan x="17.073" y="0" style="fill:#58595B; font-family:'FSMatthew-Light'; font-size:16.1221;">e h</tspan><tspan x="36.983" y="0" style="fill:#58595B; font-family:'FSMatthew-Light'; font-size:16.1221;">a</tspan><tspan x="44.786" y="0" style="fill:#58595B; font-family:'FSMatthew-Light'; font-size:16.1221;">v</tspan><tspan x="52.299" y="0" style="fill:#58595B; font-family:'FSMatthew-Light'; font-size:16.1221;">e c</tspan><tspan x="70.629" y="0" style="fill:#58595B; font-family:'FSMatthew-Light'; font-size:16.1221;">r</tspan><tspan x="75.595" y="0" style="fill:#58595B; font-family:'FSMatthew-Light'; font-size:16.1221;">ea</tspan><tspan x="91.33" y="0" style="fill:#58595B; font-family:'FSMatthew-Light'; font-size:16.1221;">t</tspan><tspan x="96.972" y="0" style="fill:#58595B; font-family:'FSMatthew-Light'; font-size:16.1221;">ed 38 spin</tspan><tspan x="164.136" y="0" style="fill:#58595B; font-family:'FSMatthew-Light'; font-size:16.1221;">-</tspan><tspan x="168.875" y="0" style="fill:#58595B; font-family:'FSMatthew-Light'; font-size:16.1221;">out companie</tspan><tspan x="260.093" y="0" style="fill:#58595B; font-family:'FSMatthew-Light'; font-size:16.1221;">s</tspan><tspan x="266.412" y="0" style="fill:#58595B; font-family:'FSMatthew-Light'; font-size:16.1221;">,</tspan><tspan x="269.749" y="0" style="fill:#58595B; font-family:'FSMatthew-Light'; font-size:16.1221; letter-spacing:-1;">      </tspan><tspan x="279.712" y="0" style="fill:#58595B; font-family:'FSMatthew-Light'; font-size:16.1221;"> </tspan></text>
	
		<text transform="matrix(1 0 0 1 14.9736 168.3828)" style="display:inline;fill:#FFFFFF; font-family:'FSMatthew-Light'; font-size:16.1221;">i</text>
	<text transform="matrix(1 0 0 1 18.3428 168.3828)" style="display:inline;"><tspan x="0" y="0" style="fill:#58595B; font-family:'FSMatthew-Light'; font-size:16.1221;">19 of which a</tspan><tspan x="89.073" y="0" style="fill:#58595B; font-family:'FSMatthew-Light'; font-size:16.1221;">r</tspan><tspan x="94.038" y="0" style="fill:#58595B; font-family:'FSMatthew-Light'; font-size:16.1221;">e pa</tspan><tspan x="121.719" y="0" style="fill:#58595B; font-family:'FSMatthew-Light'; font-size:16.1221;">r</tspan><tspan x="127.249" y="0" style="fill:#58595B; font-family:'FSMatthew-Light'; font-size:16.1221;">t</tspan><tspan x="132.489" y="0" style="fill:#58595B; font-family:'FSMatthew-Light'; font-size:16.1221;">-</tspan><tspan x="137.244" y="0" style="fill:#58595B; font-family:'FSMatthew-Light'; font-size:16.1221;">o</tspan><tspan x="145.37" y="0" style="fill:#58595B; font-family:'FSMatthew-Light'; font-size:16.1221;">wned by Ul</tspan><tspan x="219.014" y="0" style="fill:#58595B; font-family:'FSMatthew-Light'; font-size:16.1221;">s</tspan><tspan x="225.285" y="0" style="fill:#58595B; font-family:'FSMatthew-Light'; font-size:16.1221;">t</tspan><tspan x="230.928" y="0" style="fill:#58595B; font-family:'FSMatthew-Light'; font-size:16.1221;">er - </tspan></text>
	<text transform="matrix(1 0 0 1 14.9736 184.5049)" style="display:inline;"><tspan x="0" y="0" style="fill:#58595B; font-family:'FSMatthew-Light'; font-size:16.1221;"> these companies h</tspan><tspan x="127.346" y="0" style="fill:#58595B; font-family:'FSMatthew-Light'; font-size:16.1221;">a</tspan><tspan x="135.148" y="0" style="fill:#58595B; font-family:'FSMatthew-Light'; font-size:16.1221;">v</tspan><tspan x="142.661" y="0" style="fill:#58595B; font-family:'FSMatthew-Light'; font-size:16.1221;">e a </tspan><tspan x="165.489" y="0" style="fill:#58595B; font-family:'FSMatthew-Light'; font-size:16.1221;">t</tspan><tspan x="171.277" y="0" style="fill:#58595B; font-family:'FSMatthew-Light'; font-size:16.1221;">urn</tspan><tspan x="193.59" y="0" style="fill:#58595B; font-family:'FSMatthew-Light'; font-size:16.1221;">ov</tspan><tspan x="209.228" y="0" style="fill:#58595B; font-family:'FSMatthew-Light'; font-size:16.1221;">er of </tspan></text>
	<text transform="matrix(1 0 0 1 14.9805 232.8779)" style="display:inline;"><tspan x="0" y="0" style="fill:#B3A068; font-family:'FSMatthew-Bold'; font-size:55.6944; letter-spacing:-2;">£2</tspan><tspan x="56.696" y="0" style="fill:#B3A068; font-family:'FSMatthew-Bold'; font-size:55.6944;">5</tspan><tspan x="87.215" y="0" style="fill:#B3A068; font-family:'FSMatthew-Bold'; font-size:55.6944; letter-spacing:-2;"> milli</tspan><tspan x="197.431" y="0" style="fill:#B3A068; font-family:'FSMatthew-Bold'; font-size:55.6944; letter-spacing:-2;">o</tspan><tspan x="226.28" y="0" style="fill:#B3A068; font-family:'FSMatthew-Bold'; font-size:55.6944;">n</tspan></text>
	
		<text transform="matrix(1 0 0 1 273.1182 232.8779)" style="display:inline;fill:#58595B; font-family:'FSMatthew-Light'; font-size:13.1908;"> </text>
	<path style="display:inline;fill:#B3A068;" d="M27.752,255.02c0,0.946,0.022,2.023,0.022,3.188
		c-0.352,0.089-0.946,0.108-1.319,0.108c-0.418,0-0.967-0.043-1.319-0.108c-0.043-0.264-0.087-0.725-0.109-1.011h-0.044
		c-0.747,0.771-2.023,1.231-3.188,1.231c-2.198,0-3.782-1.363-3.782-3.628c0-3.518,3.122-4.11,5.738-4.11
		c0.176,0,0.594,0.02,0.945,0.043c0-0.132-0.021-0.418-0.043-0.526c-0.155-0.902-0.749-1.276-2.023-1.276
		c-0.99,0-2.375,0.197-3.431,0.461c-0.108-0.307-0.174-0.833-0.174-1.231c0-0.329,0.043-0.833,0.132-1.054
		c1.23-0.375,2.748-0.572,4-0.572c2.748,0,4.595,1.277,4.595,4.133V255.02z M24.719,252.844c-0.265-0.023-0.616-0.043-0.923-0.043
		c-1.979,0-2.748,0.79-2.748,1.779c0,0.856,0.571,1.452,1.56,1.452c0.726,0,1.539-0.353,2.111-0.859V252.844z M39.865,258.208
		c-0.351,0.089-1.098,0.108-1.45,0.108c-0.374,0-1.231-0.043-1.583-0.108v-7.518c0-1.188-0.616-1.694-1.605-1.694
		c-0.791,0-1.693,0.286-2.397,0.727v8.485c-0.505,0.089-1.208,0.108-1.604,0.108c-0.351,0-0.989-0.02-1.428-0.108v-11.453
		c0.286-0.066,0.989-0.109,1.318-0.109c0.308,0,0.946,0.043,1.275,0.109l0.155,1.011c0.989-0.725,2.417-1.231,3.692-1.231
		c2.419,0,3.627,1.494,3.627,4.002V258.208z M51.606,258.208c-0.353,0.065-0.946,0.108-1.407,0.108
		c-0.417,0-0.901-0.043-1.209-0.108l-0.087-1.011c-0.792,0.771-1.804,1.231-2.99,1.231c-3.276,0-4.683-2.617-4.683-5.76
		c0-3.387,1.517-6.135,5.012-6.135c0.857,0,1.846,0.263,2.33,0.572v-4.923c0.396-0.069,1.055-0.112,1.539-0.112
		c0.594,0,1.056,0.065,1.496,0.112V258.208z M48.571,249.37c-0.527-0.242-1.209-0.374-1.78-0.374c-1.78,0-2.44,1.582-2.44,3.495
		c0,1.606,0.396,3.429,2.177,3.429c0.857,0,1.517-0.351,2.043-0.79V249.37z M67.413,253.548h-6.947
		c0.044,1.428,1.034,2.484,2.946,2.484c1.033,0,2.088-0.132,2.99-0.375c0.132,0.596,0.221,1.254,0.221,1.847
		c0,0.089,0,0.197-0.023,0.44c-1.121,0.329-2.286,0.484-3.43,0.484c-4.176,0-5.913-2.396-5.913-5.892
		c0-3.057,1.715-6.003,5.429-6.003c3.519,0,4.793,2.594,4.793,5.453C67.479,252.383,67.479,252.975,67.413,253.548z M64.444,251.372
		c0-1.386-0.374-2.55-1.802-2.55c-1.364,0-2.088,1.075-2.177,2.55H64.444z M86.077,258.208c-0.353,0.089-1.1,0.108-1.451,0.108
		c-0.374,0-1.231-0.043-1.582-0.108v-6.902c0-0.836-0.023-1.451-0.331-1.825c-0.286-0.353-0.726-0.484-1.275-0.484
		c-0.747,0-1.802,0.329-2.483,0.747c0.021,0.375,0.043,0.748,0.043,1.188v7.277c-0.351,0.089-1.1,0.108-1.45,0.108
		c-0.374,0-1.23-0.043-1.583-0.108v-6.902c0-0.836-0.021-1.451-0.331-1.825c-0.285-0.353-0.725-0.484-1.274-0.484
		c-0.77,0-1.759,0.309-2.44,0.727v8.485c-0.506,0.089-1.209,0.108-1.604,0.108c-0.352,0-0.99-0.02-1.43-0.108v-11.453
		c0.287-0.066,0.989-0.109,1.319-0.109c0.308,0,0.945,0.043,1.276,0.109l0.132,1.033c0.967-0.728,2.351-1.254,3.582-1.254
		c1.275,0,2.396,0.441,3.253,1.386c1.188-0.813,2.616-1.386,4.067-1.386c1.078,0,2.176,0.441,2.725,1.1
		c0.683,0.812,0.836,1.868,0.836,3.472V258.208z M93.29,258.208c-0.682,0-1.605-0.108-2.155-0.264v5.431
		c-0.396,0.066-1.056,0.108-1.54,0.108c-0.592,0-1.054-0.065-1.494-0.108v-16.598c0.352-0.065,0.944-0.111,1.407-0.111
		c0.418,0,0.879,0.046,1.187,0.111l0.11,0.945c0.704-0.662,1.978-1.188,3.166-1.188c3.143,0,4.55,2.573,4.55,5.52
		C98.521,255.459,96.763,258.208,93.29,258.208z M93.332,248.996c-0.813,0-1.67,0.329-2.197,0.813v5.825
		c0.417,0.134,1.231,0.22,1.802,0.22c1.627,0,2.462-1.34,2.462-3.561C95.399,250.118,94.607,248.996,93.332,248.996z
		 M103.006,258.208c-0.396,0.089-1.21,0.108-1.562,0.108c-0.526,0-1.1-0.043-1.473-0.108v-16.024
		c0.484-0.069,1.078-0.112,1.473-0.112c0.528,0,1.144,0.043,1.562,0.112V258.208z M109.888,258.429
		c-3.321,0-5.431-2.133-5.431-5.914c0-3.759,2.088-5.98,5.431-5.98c3.34,0,5.429,2.199,5.429,5.957
		C115.317,256.253,113.229,258.429,109.888,258.429z M109.888,248.909c-1.43,0-2.309,0.966-2.309,3.582s0.879,3.561,2.309,3.561
		c1.428,0,2.307-0.944,2.307-3.561C112.195,249.854,111.316,248.909,109.888,248.909z M126.463,256.184
		c0,1.672-0.088,3.519-0.946,4.97c-1.034,1.738-2.77,2.462-4.726,2.462c-1.099,0-2.352-0.154-3.364-0.461
		c-0.065-0.197-0.11-0.724-0.11-1.057c0-0.263,0.089-0.901,0.154-1.165c0.879,0.243,2.067,0.398,2.88,0.398
		c1.318,0,2.11-0.464,2.594-1.344c0.439-0.79,0.506-1.671,0.506-2.526c-0.77,0.593-1.782,0.968-2.727,0.968
		c-2.879,0-4.045-1.495-4.045-4.331v-7.343c0.352-0.089,1.1-0.109,1.452-0.109c0.373,0,1.23,0.043,1.583,0.109v7.165
		c0,1.407,0.505,2.023,1.757,2.023c0.792,0,1.496-0.329,1.957-0.771v-8.418c0.505-0.089,1.209-0.109,1.604-0.109
		c0.352,0,0.99,0.021,1.43,0.109V256.184z M136.688,258.429c-1.43,0-3.145-0.197-4.199-0.728c-0.066-0.218-0.11-0.701-0.11-0.987
		c0-0.461,0.066-1.034,0.176-1.495c1.186,0.461,2.572,0.701,3.671,0.701c1.802,0,2.814-0.833,2.814-2.218
		c0-1.497-0.901-2.09-2.572-2.09h-1.209c-0.066-0.24-0.132-0.725-0.132-1.253c0-0.439,0.087-0.968,0.153-1.166h1.143
		c1.518,0,2.22-0.812,2.22-1.955c0-1.076-0.791-1.606-2.044-1.606c-1.121,0-2.44,0.286-3.54,0.747
		c-0.11-0.372-0.197-0.987-0.197-1.471c0-0.329,0.044-0.835,0.11-1.033c0.944-0.418,2.682-0.747,4.155-0.747
		c2.572,0,4.726,1.274,4.726,3.89c0,1.452-0.66,2.66-1.912,3.231v0.043c1.45,0.55,2.33,1.87,2.33,3.388
		C142.271,256.822,139.72,258.429,136.688,258.429z M148.075,258.429c-1.428,0-3.143-0.197-4.2-0.728
		c-0.065-0.218-0.108-0.701-0.108-0.987c0-0.461,0.066-1.034,0.174-1.495c1.188,0.461,2.574,0.701,3.673,0.701
		c1.802,0,2.814-0.833,2.814-2.218c0-1.497-0.901-2.09-2.573-2.09h-1.208c-0.066-0.24-0.132-0.725-0.132-1.253
		c0-0.439,0.087-0.968,0.153-1.166h1.143c1.518,0,2.22-0.812,2.22-1.955c0-1.076-0.792-1.606-2.044-1.606
		c-1.122,0-2.44,0.286-3.54,0.747c-0.11-0.372-0.197-0.987-0.197-1.471c0-0.329,0.043-0.835,0.108-1.033
		c0.946-0.418,2.683-0.747,4.155-0.747c2.572,0,4.727,1.274,4.727,3.89c0,1.452-0.659,2.66-1.913,3.231v0.043
		c1.451,0.55,2.33,1.87,2.33,3.388C153.658,256.822,151.109,258.429,148.075,258.429z M160.231,258.429
		c-3.517,0-5.23-2.594-5.23-7.652c0-5.099,1.78-7.648,5.297-7.648c3.496,0,5.21,2.55,5.21,7.648
		C165.508,255.835,163.728,258.429,160.231,258.429z M160.255,245.698c-1.408,0-2.023,1.297-2.023,5.078
		c0,3.716,0.615,5.078,2.023,5.078c1.405,0,2.021-1.362,2.021-5.078C162.276,246.995,161.66,245.698,160.255,245.698z
		 M174.653,258.429c-1.296,0-2.658-0.197-3.714-0.55c-0.066-0.329-0.088-0.747-0.088-1.188c0-0.353,0.088-0.855,0.176-1.165
		c1.011,0.352,2.462,0.592,3.32,0.592c1.187,0,1.867-0.395,1.867-1.208c0-0.703-0.549-1.032-2-1.493
		c-2.308-0.728-3.386-1.804-3.386-3.475c0-2.482,2.286-3.407,4.463-3.407c1.011,0,2.133,0.178,2.901,0.418
		c0.089,0.329,0.133,0.79,0.133,1.057c0,0.283-0.088,0.879-0.199,1.251c-0.747-0.219-1.78-0.396-2.638-0.396
		c-1.055,0-1.78,0.264-1.78,0.924c0,0.703,0.812,0.988,2.089,1.406c2.22,0.728,3.275,1.649,3.275,3.386
		C179.073,257.264,176.918,258.429,174.653,258.429z M187.426,257.987c-0.66,0.264-1.452,0.441-2.727,0.441
		c-2.483,0-3.715-1.212-3.715-3.628v-5.781h-1.891c-0.089-0.329-0.154-0.879-0.154-1.165c0-0.264,0.065-0.748,0.132-0.968
		l1.913-0.132v-2.945c0.242-0.046,1.011-0.089,1.517-0.089c0.55,0,1.231,0.043,1.517,0.089v2.945h3.166
		c0.089,0.306,0.131,0.747,0.131,0.987c0,0.267-0.021,0.968-0.108,1.277h-3.188v5.342c0,1.098,0.441,1.582,1.517,1.582
		c0.595,0,1.32-0.089,1.826-0.264c0.086,0.286,0.197,0.836,0.197,1.34C187.558,257.283,187.513,257.747,187.426,257.987z
		 M197.912,255.02c0,0.946,0.021,2.023,0.021,3.188c-0.352,0.089-0.944,0.108-1.318,0.108c-0.418,0-0.968-0.043-1.319-0.108
		c-0.044-0.264-0.088-0.725-0.11-1.011h-0.044c-0.747,0.771-2.023,1.231-3.188,1.231c-2.199,0-3.78-1.363-3.78-3.628
		c0-3.518,3.122-4.11,5.737-4.11c0.175,0,0.593,0.02,0.945,0.043c0-0.132-0.022-0.418-0.044-0.526
		c-0.153-0.902-0.747-1.276-2.023-1.276c-0.988,0-2.374,0.197-3.429,0.461c-0.109-0.307-0.176-0.833-0.176-1.231
		c0-0.329,0.044-0.833,0.132-1.054c1.23-0.375,2.747-0.572,4.002-0.572c2.747,0,4.594,1.277,4.594,4.133V255.02z M194.879,252.844
		c-0.264-0.023-0.616-0.043-0.925-0.043c-1.977,0-2.747,0.79-2.747,1.779c0,0.856,0.57,1.452,1.562,1.452
		c0.724,0,1.538-0.353,2.11-0.859V252.844z M204.001,249.02v9.188c-0.306,0.065-1.032,0.108-1.494,0.108
		c-0.373,0-1.231-0.043-1.538-0.108v-9.188h-1.87c-0.087-0.264-0.152-0.794-0.152-1.057c0-0.372,0.065-0.836,0.176-1.076
		l1.847-0.132v-0.461c0-2.902,1.647-4.397,4.154-4.397c0.726,0,1.626,0.151,2.286,0.396c0.088,0.264,0.11,0.658,0.11,0.968
		c0,0.329-0.088,0.77-0.221,1.119c-0.484-0.152-1.055-0.24-1.626-0.24c-1.099,0-1.672,0.681-1.672,2.089v0.527h4.022v-0.329
		c0-2.945,1.518-4.529,4.398-4.529c0.681,0,1.648,0.151,2.309,0.396c0.087,0.264,0.109,0.658,0.109,0.968
		c0,0.329-0.089,0.77-0.22,1.119c-0.484-0.152-1.055-0.24-1.628-0.24c-1.273,0-1.934,0.681-1.934,2.155v0.461h2.813
		c0.111,0.372,0.132,0.879,0.132,1.122c0,0.264-0.044,0.747-0.109,1.143h-2.836v9.188c-0.308,0.065-1.033,0.108-1.495,0.108
		c-0.374,0-1.231-0.043-1.54-0.108v-9.188H204.001z"/>
</g>
<g id="Text_Flat">
	<g>
		<path style="fill:#58595B;" d="M25.713,144.439c-0.129-0.516-0.226-0.984-0.291-1.452c-0.081,0.452-0.177,0.887-0.322,1.436
			l-2,7.838c-0.161,0.049-0.419,0.08-0.645,0.08c-0.226,0-0.532-0.016-0.694-0.08l-2.354-8.177
			c-0.274-0.903-0.387-1.822-0.403-2.726c0.161-0.048,0.403-0.081,0.564-0.081c0.177,0,0.339,0.032,0.532,0.081
			c0.016,0.855,0.113,1.677,0.339,2.5l1.661,5.903c0.081,0.307,0.307,1.129,0.371,1.468c0.032-0.323,0.193-1.032,0.306-1.484
			l2.113-8.387c0.146-0.048,0.355-0.081,0.516-0.081c0.178,0,0.403,0.048,0.516,0.081l2.113,8.371
			c0.113,0.419,0.258,1.048,0.371,1.517c0.113-0.468,0.274-1.113,0.403-1.581l1.645-5.806c0.226-0.823,0.355-1.645,0.371-2.5
			c0.161-0.048,0.339-0.081,0.532-0.081c0.161,0,0.403,0.032,0.532,0.081c-0.016,0.838-0.129,1.726-0.403,2.661l-2.371,8.242
			c-0.178,0.049-0.549,0.08-0.726,0.08c-0.161,0-0.452-0.031-0.645-0.08L25.713,144.439z"/>
		<path style="fill:#58595B;" d="M39.143,148.342H33.74c0.064,1.855,0.936,3.258,2.952,3.258c0.726,0,1.403-0.097,2-0.242
			c0.032,0.081,0.064,0.242,0.064,0.339c0,0.161-0.032,0.307-0.081,0.42c-0.629,0.193-1.419,0.306-2.081,0.306
			c-1.274,0-2.242-0.403-2.839-1.048c-0.709-0.774-1.081-1.936-1.081-3.274c0-2.339,1.177-4.403,3.532-4.403
			c2.113,0,2.952,1.742,2.952,3.871C39.159,147.81,39.159,148.101,39.143,148.342z M38.111,147.568c0-1.484-0.162-3.081-1.952-3.081
			c-1.564,0-2.323,1.436-2.419,3.081H38.111z"/>
		<path style="fill:#58595B;" d="M50.912,152.262c-0.146,0.049-0.323,0.08-0.484,0.08c-0.194,0-0.403-0.031-0.564-0.08v-5.097
			c0-1.774-0.452-2.581-1.952-2.581c-0.807,0-1.774,0.452-2.403,0.936v6.742c-0.177,0.049-0.371,0.08-0.548,0.08
			c-0.161,0-0.355-0.031-0.5-0.08v-11.774c0.145-0.048,0.371-0.081,0.516-0.081s0.387,0.032,0.532,0.081v4.145
			c0.855-0.661,1.871-0.936,2.661-0.936c0.823,0,1.662,0.274,2.129,0.839c0.516,0.613,0.613,1.5,0.613,2.371V152.262z"/>
		<path style="fill:#58595B;" d="M58.795,150.197c0,0.581,0,1.307,0.032,2.064c-0.113,0.049-0.29,0.08-0.436,0.08
			c-0.129,0-0.306-0.031-0.435-0.08c-0.048-0.258-0.081-0.597-0.097-0.903h-0.016c-0.548,0.678-1.516,1.064-2.467,1.064
			c-1.5,0-2.758-0.839-2.758-2.564c0-0.984,0.403-1.709,1.032-2.161c0.71-0.5,1.645-0.661,2.645-0.661
			c0.564,0,1.032,0.032,1.452,0.097v-0.468c0-1.613-0.661-2.145-2.016-2.145c-0.758,0-1.693,0.161-2.274,0.307
			c-0.032-0.081-0.064-0.258-0.064-0.419c0-0.113,0.032-0.274,0.081-0.371c0.693-0.209,1.613-0.339,2.387-0.339
			c1.919,0,2.935,0.871,2.935,2.839V150.197z M57.747,147.923c-0.468-0.065-0.952-0.097-1.371-0.097c-0.791,0-1.5,0.146-1.984,0.516
			c-0.436,0.323-0.678,0.839-0.678,1.5c0,1.177,0.758,1.742,1.807,1.742c0.871,0,1.79-0.419,2.226-1.08V147.923z"/>
		<path style="fill:#58595B;" d="M66.55,145.907l-2.532,6.354c-0.145,0.049-0.306,0.08-0.436,0.08c-0.177,0-0.322-0.031-0.451-0.08
			l-2.613-6.354c-0.29-0.726-0.419-1.452-0.419-2.048c0.129-0.032,0.354-0.081,0.5-0.081c0.193,0,0.387,0.032,0.548,0.081
			c0.016,0.548,0.081,1.177,0.322,1.758l2.097,5.322h0.032l2.032-5.322c0.226-0.564,0.339-1.193,0.339-1.758
			c0.113-0.048,0.355-0.081,0.564-0.081c0.113,0,0.323,0.016,0.468,0.064C66.985,144.423,66.873,145.117,66.55,145.907z"/>
		<path style="fill:#58595B;" d="M74.369,148.342h-5.403c0.064,1.855,0.936,3.258,2.952,3.258c0.726,0,1.403-0.097,2-0.242
			c0.032,0.081,0.064,0.242,0.064,0.339c0,0.161-0.032,0.307-0.081,0.42c-0.629,0.193-1.419,0.306-2.081,0.306
			c-1.274,0-2.242-0.403-2.839-1.048c-0.709-0.774-1.081-1.936-1.081-3.274c0-2.339,1.178-4.403,3.532-4.403
			c2.113,0,2.952,1.742,2.952,3.871C74.385,147.81,74.385,148.101,74.369,148.342z M73.337,147.568c0-1.484-0.162-3.081-1.952-3.081
			c-1.564,0-2.323,1.436-2.419,3.081H73.337z"/>
		<path style="fill:#58595B;" d="M84.977,144.875c-0.516-0.21-1.193-0.339-1.79-0.339c-2.097,0-2.871,1.629-2.871,3.597
			c0,1.936,0.742,3.436,2.855,3.436c0.564,0,1.242-0.098,1.742-0.242c0.032,0.097,0.064,0.21,0.064,0.339
			c0,0.193-0.032,0.339-0.081,0.452c-0.468,0.193-1.226,0.306-1.822,0.306c-2.629,0-3.855-1.726-3.855-4.258
			c0-2.629,1.339-4.468,3.903-4.468c0.613,0,1.338,0.146,1.838,0.371c0.048,0.129,0.064,0.258,0.064,0.403
			C85.025,144.633,85.009,144.762,84.977,144.875z"/>
		<path style="fill:#58595B;" d="M90.457,144.633c-0.935,0.129-1.951,0.468-2.709,1.048v6.581c-0.161,0.049-0.355,0.08-0.532,0.08
			s-0.355-0.031-0.516-0.08v-8.403c0.097-0.032,0.242-0.064,0.403-0.064c0.129,0,0.307,0.032,0.436,0.064l0.081,1.032h0.016
			c0.693-0.597,1.903-1.097,2.822-1.194c0.032,0.097,0.065,0.274,0.065,0.419C90.522,144.278,90.489,144.488,90.457,144.633z"/>
		<path style="fill:#58595B;" d="M97.665,148.342h-5.403c0.064,1.855,0.936,3.258,2.952,3.258c0.726,0,1.403-0.097,2-0.242
			c0.032,0.081,0.064,0.242,0.064,0.339c0,0.161-0.032,0.307-0.081,0.42c-0.629,0.193-1.419,0.306-2.081,0.306
			c-1.274,0-2.242-0.403-2.839-1.048c-0.709-0.774-1.081-1.936-1.081-3.274c0-2.339,1.178-4.403,3.532-4.403
			c2.113,0,2.952,1.742,2.952,3.871C97.681,147.81,97.681,148.101,97.665,148.342z M96.633,147.568c0-1.484-0.162-3.081-1.952-3.081
			c-1.564,0-2.323,1.436-2.419,3.081H96.633z"/>
		<path style="fill:#58595B;" d="M105.177,150.197c0,0.581,0,1.307,0.032,2.064c-0.113,0.049-0.29,0.08-0.436,0.08
			c-0.129,0-0.306-0.031-0.435-0.08c-0.048-0.258-0.081-0.597-0.097-0.903h-0.016c-0.548,0.678-1.516,1.064-2.467,1.064
			c-1.5,0-2.758-0.839-2.758-2.564c0-0.984,0.403-1.709,1.032-2.161c0.71-0.5,1.645-0.661,2.645-0.661
			c0.565,0,1.032,0.032,1.452,0.097v-0.468c0-1.613-0.661-2.145-2.016-2.145c-0.758,0-1.693,0.161-2.274,0.307
			c-0.032-0.081-0.064-0.258-0.064-0.419c0-0.113,0.032-0.274,0.081-0.371c0.693-0.209,1.613-0.339,2.387-0.339
			c1.919,0,2.935,0.871,2.935,2.839V150.197z M104.129,147.923c-0.468-0.065-0.952-0.097-1.371-0.097
			c-0.791,0-1.5,0.146-1.984,0.516c-0.436,0.323-0.678,0.839-0.678,1.5c0,1.177,0.758,1.742,1.807,1.742
			c0.871,0,1.79-0.419,2.226-1.08V147.923z"/>
		<path style="fill:#58595B;" d="M111.868,152.182c-0.419,0.145-1.048,0.241-1.516,0.241c-1.597,0-2.355-0.758-2.355-2.548v-5.193
			h-1.452c-0.032-0.081-0.048-0.274-0.048-0.371c0-0.081,0.016-0.274,0.048-0.355l1.452-0.097v-2.194
			c0.129-0.048,0.339-0.081,0.516-0.081c0.178,0,0.403,0.032,0.532,0.081v2.194h2.371c0.032,0.081,0.064,0.322,0.064,0.403
			c0,0.113-0.032,0.307-0.064,0.419h-2.371v5.097c0,1.275,0.371,1.806,1.371,1.806c0.548,0,1.081-0.08,1.452-0.193
			c0.032,0.08,0.064,0.274,0.064,0.387C111.932,151.923,111.916,152.036,111.868,152.182z"/>
		<path style="fill:#58595B;" d="M119.042,148.342h-5.403c0.064,1.855,0.936,3.258,2.952,3.258c0.726,0,1.403-0.097,2-0.242
			c0.032,0.081,0.064,0.242,0.064,0.339c0,0.161-0.032,0.307-0.081,0.42c-0.629,0.193-1.419,0.306-2.081,0.306
			c-1.274,0-2.242-0.403-2.839-1.048c-0.709-0.774-1.081-1.936-1.081-3.274c0-2.339,1.177-4.403,3.532-4.403
			c2.113,0,2.952,1.742,2.952,3.871C119.059,147.81,119.059,148.101,119.042,148.342z M118.01,147.568
			c0-1.484-0.162-3.081-1.952-3.081c-1.564,0-2.323,1.436-2.419,3.081H118.01z"/>
		<path style="fill:#58595B;" d="M126.603,152.342c-0.145,0-0.322-0.048-0.419-0.08l-0.097-0.968h-0.016
			c-0.693,0.726-1.516,1.129-2.435,1.129c-2.226,0-3.291-1.854-3.291-4.113c0-2.242,0.952-4.613,3.516-4.613
			c0.807,0,1.548,0.274,2.145,0.694v-3.903c0.145-0.048,0.339-0.081,0.516-0.081c0.194,0,0.387,0.048,0.532,0.081v11.774
			C126.942,152.311,126.781,152.342,126.603,152.342z M126.006,145.278c-0.581-0.483-1.322-0.726-2.081-0.726
			c-1.871,0-2.5,1.839-2.5,3.709c0,1.436,0.452,3.307,2.258,3.307c0.871,0,1.758-0.436,2.322-1.113V145.278z"/>
		<path style="fill:#58595B;" d="M135.469,152.423c-0.871,0-1.742-0.161-2.371-0.403c-0.048-0.097-0.064-0.29-0.064-0.387
			s0.016-0.322,0.048-0.436c0.709,0.258,1.468,0.42,2.258,0.42c1.436,0,2.516-0.807,2.516-2.533c0-2.081-1.516-2.307-2.968-2.307
			h-0.081c-0.032-0.129-0.048-0.258-0.048-0.387c0-0.081,0.016-0.258,0.048-0.355h0.323c1.419,0,2.371-0.581,2.371-2.145
			c0-1.323-0.709-1.903-1.871-1.903c-0.871,0-1.71,0.177-2.307,0.419c-0.032-0.081-0.064-0.307-0.064-0.436s0.032-0.29,0.064-0.371
			c0.564-0.226,1.5-0.403,2.387-0.403c1.742,0,2.935,0.919,2.935,2.629c0,1.322-0.645,2.145-1.822,2.516v0.016
			c1.387,0.338,2.193,1.258,2.193,2.726C139.017,151.326,137.469,152.423,135.469,152.423z"/>
		<path style="fill:#58595B;" d="M144.562,152.423c-1.983,0-3.467-0.983-3.467-3.032c0-1.306,1.048-2.467,2.451-3.016
			c-1.129-0.581-1.983-1.355-1.983-2.646c0-1.629,1.451-2.548,3.048-2.548c1.532,0,2.936,0.838,2.936,2.467
			c0,0.968-0.564,2.016-2.113,2.71c1.484,0.645,2.548,1.516,2.548,2.983C147.981,151.229,146.481,152.423,144.562,152.423z
			 M144.449,146.746c-1.354,0.548-2.193,1.436-2.193,2.677c0,1.355,0.952,2.21,2.274,2.21c1.307,0,2.291-0.774,2.291-2.242
			C146.82,148.052,145.933,147.326,144.449,146.746z M144.562,141.956c-1.016,0-1.871,0.581-1.871,1.758
			c0,1.065,0.645,1.823,1.887,2.291c1.146-0.5,1.839-1.193,1.839-2.291C146.417,142.552,145.658,141.956,144.562,141.956z"/>
		<path style="fill:#58595B;" d="M155.299,152.423c-0.807,0-1.646-0.146-2.226-0.37c-0.049-0.113-0.081-0.307-0.081-0.452
			c0-0.097,0.032-0.339,0.064-0.436c0.597,0.241,1.452,0.436,2.161,0.436c1.226,0,1.984-0.517,1.984-1.532
			c0-0.919-0.468-1.242-1.742-1.71c-1.774-0.645-2.354-1.387-2.354-2.483c0-1.484,1.226-2.178,2.806-2.178
			c0.532,0,1.227,0.097,1.63,0.226c0.048,0.145,0.064,0.29,0.064,0.387c0,0.129-0.032,0.354-0.064,0.468
			c-0.532-0.162-1.098-0.258-1.646-0.258c-1.146,0-1.839,0.436-1.839,1.323c0,0.774,0.436,1.145,1.758,1.645
			c1.21,0.452,2.323,0.903,2.323,2.532C158.138,151.665,156.896,152.423,155.299,152.423z"/>
		<path style="fill:#58595B;" d="M165.166,151.391c-0.629,0.564-1.612,0.871-2.548,0.871c-0.661,0-1.274-0.113-1.726-0.274v4.064
			c-0.162,0.048-0.307,0.081-0.532,0.081c-0.178,0-0.388-0.033-0.517-0.081v-12.193c0.081-0.032,0.274-0.064,0.436-0.064
			s0.307,0.032,0.419,0.064l0.097,0.887h0.017c0.613-0.645,1.532-1.048,2.468-1.048c1.016,0,1.919,0.436,2.483,1.242
			c0.468,0.677,0.759,1.645,0.759,2.822C166.521,149.375,166.021,150.617,165.166,151.391z M163.166,144.552
			c-0.854,0-1.709,0.355-2.273,1.064v5.548c0.419,0.193,1.064,0.306,1.612,0.306c1.742,0,2.919-1.145,2.919-3.661
			C165.424,145.827,164.65,144.552,163.166,144.552z"/>
		<path style="fill:#58595B;" d="M168.824,142.214c-0.371,0-0.678-0.323-0.678-0.71s0.307-0.693,0.678-0.693
			c0.37,0,0.693,0.306,0.693,0.693S169.194,142.214,168.824,142.214z M169.356,152.262c-0.146,0.049-0.355,0.08-0.532,0.08
			c-0.178,0-0.371-0.031-0.517-0.08v-8.403c0.129-0.032,0.339-0.081,0.5-0.081c0.178,0,0.42,0.032,0.549,0.081V152.262z"/>
		<path style="fill:#58595B;" d="M178.064,152.277c-0.129,0.033-0.322,0.064-0.516,0.064c-0.161,0-0.371-0.031-0.532-0.08v-5.113
			c0-0.774-0.097-1.371-0.323-1.79c-0.273-0.516-0.79-0.774-1.629-0.774c-0.806,0-1.773,0.452-2.402,0.936v6.742
			c-0.178,0.049-0.355,0.08-0.549,0.08c-0.161,0-0.354-0.031-0.5-0.08v-8.403c0.113-0.048,0.307-0.064,0.419-0.064
			c0.162,0,0.355,0.016,0.452,0.064l0.08,0.838h0.017c0.887-0.726,1.903-1,2.726-1s1.678,0.274,2.146,0.839
			c0.516,0.613,0.612,1.5,0.612,2.371V152.277z"/>
		<path style="fill:#58595B;" d="M182.98,147.633c0.032,0.081,0.08,0.291,0.08,0.419s-0.032,0.306-0.08,0.436h-3.146
			c-0.048-0.129-0.08-0.307-0.08-0.436s0.048-0.339,0.08-0.419H182.98z"/>
		<path style="fill:#58595B;" d="M187.945,152.423c-2.113,0-3.468-1.451-3.468-4.354s1.371-4.371,3.483-4.371
			c2.113,0,3.452,1.436,3.452,4.339C191.413,150.939,190.059,152.423,187.945,152.423z M187.961,144.488
			c-1.548,0-2.387,1.193-2.387,3.564c0,2.371,0.822,3.581,2.371,3.581c1.548,0,2.371-1.21,2.371-3.581
			C190.316,145.681,189.51,144.488,187.961,144.488z"/>
		<path style="fill:#58595B;" d="M199.329,149.068c0,2.451-1.016,3.354-3.145,3.354c-2.178,0-3.097-0.903-3.097-3.274v-5.29
			c0.145-0.048,0.338-0.081,0.516-0.081c0.226,0,0.403,0.048,0.532,0.081v5.161c0,1.564,0.242,2.597,2.064,2.597
			c1.71,0,2.081-1,2.081-2.629v-5.129c0.129-0.048,0.354-0.081,0.532-0.081c0.177,0,0.37,0.032,0.516,0.081V149.068z"/>
		<path style="fill:#58595B;" d="M205.938,152.182c-0.42,0.145-1.049,0.241-1.517,0.241c-1.597,0-2.354-0.758-2.354-2.548v-5.193
			h-1.451c-0.032-0.081-0.049-0.274-0.049-0.371c0-0.081,0.017-0.274,0.049-0.355l1.451-0.097v-2.194
			c0.129-0.048,0.339-0.081,0.517-0.081c0.177,0,0.403,0.032,0.532,0.081v2.194h2.37c0.032,0.081,0.065,0.322,0.065,0.403
			c0,0.113-0.033,0.307-0.065,0.419h-2.37v5.097c0,1.275,0.371,1.806,1.37,1.806c0.549,0,1.081-0.08,1.452-0.193
			c0.032,0.08,0.064,0.274,0.064,0.387C206.003,151.923,205.986,152.036,205.938,152.182z"/>
		<path style="fill:#58595B;" d="M216.337,144.875c-0.516-0.21-1.193-0.339-1.79-0.339c-2.097,0-2.871,1.629-2.871,3.597
			c0,1.936,0.742,3.436,2.854,3.436c0.564,0,1.242-0.098,1.742-0.242c0.032,0.097,0.064,0.21,0.064,0.339
			c0,0.193-0.032,0.339-0.08,0.452c-0.468,0.193-1.227,0.306-1.823,0.306c-2.629,0-3.854-1.726-3.854-4.258
			c0-2.629,1.339-4.468,3.903-4.468c0.612,0,1.339,0.146,1.839,0.371c0.048,0.129,0.064,0.258,0.064,0.403
			C216.386,144.633,216.369,144.762,216.337,144.875z"/>
		<path style="fill:#58595B;" d="M221.06,152.423c-2.113,0-3.468-1.451-3.468-4.354s1.371-4.371,3.483-4.371
			c2.113,0,3.452,1.436,3.452,4.339C224.527,150.939,223.173,152.423,221.06,152.423z M221.075,144.488
			c-1.548,0-2.387,1.193-2.387,3.564c0,2.371,0.822,3.581,2.371,3.581c1.548,0,2.371-1.21,2.371-3.581
			C223.431,145.681,222.624,144.488,221.075,144.488z"/>
		<path style="fill:#58595B;" d="M237.927,152.277c-0.161,0.033-0.322,0.064-0.483,0.064c-0.193,0-0.371-0.048-0.564-0.08v-5.097
			c0-1.774-0.452-2.581-1.952-2.581c-0.773,0-1.806,0.403-2.451,0.871c0.129,0.452,0.161,0.952,0.161,1.452v5.354
			c-0.161,0.049-0.322,0.08-0.483,0.08c-0.21,0-0.403-0.031-0.564-0.08v-5.097c0-1.774-0.403-2.581-1.903-2.581
			c-0.807,0-1.758,0.452-2.387,0.936v6.742c-0.178,0.049-0.388,0.08-0.581,0.08c-0.161,0-0.339-0.031-0.468-0.08v-8.403
			c0.081-0.032,0.258-0.064,0.436-0.064c0.146,0,0.322,0.032,0.436,0.064l0.08,0.838h0.017c0.887-0.726,1.903-1,2.726-1
			s1.613,0.274,2.081,0.839c0.064,0.064,0.112,0.145,0.161,0.226c0.854-0.693,1.951-1.064,3-1.064c0.822,0,1.661,0.274,2.129,0.839
			c0.516,0.613,0.612,1.5,0.612,2.371V152.277z"/>
		<path style="fill:#58595B;" d="M245.389,151.391c-0.629,0.564-1.612,0.871-2.548,0.871c-0.661,0-1.274-0.113-1.726-0.274v4.064
			c-0.162,0.048-0.307,0.081-0.532,0.081c-0.178,0-0.388-0.033-0.517-0.081v-12.193c0.081-0.032,0.274-0.064,0.436-0.064
			s0.307,0.032,0.419,0.064l0.097,0.887h0.017c0.613-0.645,1.532-1.048,2.468-1.048c1.016,0,1.919,0.436,2.483,1.242
			c0.468,0.677,0.759,1.645,0.759,2.822C246.744,149.375,246.244,150.617,245.389,151.391z M243.389,144.552
			c-0.854,0-1.709,0.355-2.273,1.064v5.548c0.419,0.193,1.064,0.306,1.612,0.306c1.742,0,2.919-1.145,2.919-3.661
			C245.646,145.827,244.873,144.552,243.389,144.552z"/>
		<path style="fill:#58595B;" d="M254.208,150.197c0,0.581,0,1.307,0.032,2.064c-0.113,0.049-0.291,0.08-0.436,0.08
			c-0.129,0-0.307-0.031-0.436-0.08c-0.049-0.258-0.081-0.597-0.097-0.903h-0.017c-0.548,0.678-1.516,1.064-2.468,1.064
			c-1.5,0-2.758-0.839-2.758-2.564c0-0.984,0.403-1.709,1.032-2.161c0.71-0.5,1.646-0.661,2.646-0.661
			c0.564,0,1.032,0.032,1.451,0.097v-0.468c0-1.613-0.661-2.145-2.016-2.145c-0.759,0-1.693,0.161-2.274,0.307
			c-0.032-0.081-0.064-0.258-0.064-0.419c0-0.113,0.032-0.274,0.08-0.371c0.694-0.209,1.613-0.339,2.388-0.339
			c1.919,0,2.936,0.871,2.936,2.839V150.197z M253.159,147.923c-0.468-0.065-0.951-0.097-1.371-0.097c-0.79,0-1.5,0.146-1.983,0.516
			c-0.436,0.323-0.678,0.839-0.678,1.5c0,1.177,0.758,1.742,1.807,1.742c0.871,0,1.79-0.419,2.226-1.08V147.923z"/>
		<path style="fill:#58595B;" d="M262.881,152.277c-0.129,0.033-0.322,0.064-0.516,0.064c-0.161,0-0.371-0.031-0.532-0.08v-5.113
			c0-0.774-0.097-1.371-0.323-1.79c-0.273-0.516-0.79-0.774-1.629-0.774c-0.806,0-1.773,0.452-2.402,0.936v6.742
			c-0.178,0.049-0.355,0.08-0.549,0.08c-0.161,0-0.354-0.031-0.5-0.08v-8.403c0.113-0.048,0.307-0.064,0.419-0.064
			c0.162,0,0.355,0.016,0.452,0.064l0.08,0.838h0.017c0.887-0.726,1.903-1,2.726-1s1.678,0.274,2.146,0.839
			c0.516,0.613,0.612,1.5,0.612,2.371V152.277z"/>
		<path style="fill:#58595B;" d="M265.604,142.214c-0.371,0-0.678-0.323-0.678-0.71s0.307-0.693,0.678-0.693
			c0.37,0,0.693,0.306,0.693,0.693S265.974,142.214,265.604,142.214z M266.136,152.262c-0.146,0.049-0.355,0.08-0.532,0.08
			c-0.178,0-0.371-0.031-0.517-0.08v-8.403c0.129-0.032,0.339-0.081,0.5-0.081c0.178,0,0.42,0.032,0.549,0.081V152.262z"/>
		<path style="fill:#58595B;" d="M274.393,148.342h-5.403c0.064,1.855,0.936,3.258,2.952,3.258c0.726,0,1.402-0.097,1.999-0.242
			c0.032,0.081,0.065,0.242,0.065,0.339c0,0.161-0.033,0.307-0.081,0.42c-0.629,0.193-1.419,0.306-2.081,0.306
			c-1.273,0-2.241-0.403-2.838-1.048c-0.71-0.774-1.081-1.936-1.081-3.274c0-2.339,1.178-4.403,3.532-4.403
			c2.113,0,2.951,1.742,2.951,3.871C274.408,147.81,274.408,148.101,274.393,148.342z M273.36,147.568
			c0-1.484-0.161-3.081-1.952-3.081c-1.564,0-2.322,1.436-2.419,3.081H273.36z"/>
		<path style="fill:#58595B;" d="M278.034,152.423c-0.807,0-1.646-0.146-2.226-0.37c-0.049-0.113-0.081-0.307-0.081-0.452
			c0-0.097,0.032-0.339,0.064-0.436c0.597,0.241,1.452,0.436,2.161,0.436c1.226,0,1.984-0.517,1.984-1.532
			c0-0.919-0.468-1.242-1.742-1.71c-1.774-0.645-2.354-1.387-2.354-2.483c0-1.484,1.226-2.178,2.806-2.178
			c0.532,0,1.227,0.097,1.63,0.226c0.048,0.145,0.064,0.29,0.064,0.387c0,0.129-0.032,0.354-0.064,0.468
			c-0.532-0.162-1.098-0.258-1.646-0.258c-1.146,0-1.839,0.436-1.839,1.323c0,0.774,0.436,1.145,1.758,1.645
			c1.21,0.452,2.323,0.903,2.323,2.532C280.873,151.665,279.631,152.423,278.034,152.423z"/>
		<path style="fill:#58595B;" d="M281.869,154.762c-0.097-0.08-0.226-0.274-0.273-0.403c0.661-0.532,1.161-1.129,1.322-1.79
			c-0.339-0.178-0.613-0.516-0.613-0.936c0-0.451,0.355-0.791,0.759-0.791c0.516,0,0.887,0.468,0.887,1.033
			C283.95,152.777,283.208,153.923,281.869,154.762z"/>
	</g>
	<g>
		<path style="fill:#FFFFFF;" d="M16.651,158.335c-0.371,0-0.677-0.323-0.677-0.71s0.307-0.693,0.677-0.693
			c0.371,0,0.694,0.307,0.694,0.693S17.022,158.335,16.651,158.335z M17.183,168.383c-0.145,0.049-0.354,0.08-0.532,0.08
			c-0.177,0-0.371-0.031-0.516-0.08v-8.402c0.129-0.033,0.339-0.081,0.5-0.081c0.178,0,0.419,0.032,0.548,0.081V168.383z"/>
	</g>
	<g>
		<path style="fill:#58595B;" d="M23.907,168.383c-0.129,0.049-0.371,0.08-0.548,0.08c-0.178,0-0.419-0.031-0.548-0.08v-9.807
			l-2.823,1.791c-0.161-0.146-0.355-0.436-0.419-0.71l3.452-2.193c0.113-0.032,0.291-0.064,0.419-0.064
			c0.161,0,0.339,0.032,0.468,0.081V168.383z"/>
		<path style="fill:#58595B;" d="M30.323,168.544c-0.581,0-1.129-0.112-1.371-0.193c-0.032-0.097-0.064-0.242-0.064-0.339
			s0.016-0.29,0.064-0.403c0.242,0.065,0.726,0.161,1.355,0.161c1.951,0,2.935-1.822,3.032-4.467c-0.613,0.58-1.597,1.016-2.5,1.016
			c-1.887,0-2.984-1.273-2.984-3.258c0-2.291,1.29-3.742,3.371-3.742c2.516,0,3.291,2.146,3.291,4.774
			C34.516,165.593,33.532,168.544,30.323,168.544z M31.209,158.076c-1.532,0-2.193,1.323-2.193,2.904
			c0,1.37,0.516,2.499,1.919,2.499c0.903,0,1.822-0.483,2.419-1.112c0.016-0.21,0.016-0.564,0.016-0.662
			C33.371,160.205,32.968,158.076,31.209,158.076z"/>
		<path style="fill:#58595B;" d="M43.075,168.544c-2.113,0-3.468-1.451-3.468-4.354s1.371-4.371,3.484-4.371
			s3.452,1.436,3.452,4.339S45.188,168.544,43.075,168.544z M43.091,160.609c-1.548,0-2.387,1.193-2.387,3.564
			c0,2.37,0.823,3.58,2.371,3.58s2.371-1.21,2.371-3.58C45.446,161.803,44.64,160.609,43.091,160.609z"/>
		<path style="fill:#58595B;" d="M53.023,157.303c-0.242-0.064-0.677-0.129-1.016-0.129c-0.613,0-1.064,0.161-1.371,0.5
			c-0.468,0.5-0.548,1.178-0.548,2.031v0.275h2.274c0.032,0.08,0.064,0.273,0.064,0.387c0,0.129-0.032,0.322-0.064,0.436h-2.274
			v7.58c-0.146,0.049-0.307,0.08-0.516,0.08c-0.21,0-0.387-0.031-0.532-0.08v-7.58h-1.452c-0.032-0.081-0.048-0.291-0.048-0.387
			c0-0.082,0.016-0.259,0.048-0.34l1.452-0.096v-0.275c0-1.145,0.193-1.936,0.854-2.596c0.468-0.469,1.162-0.693,1.952-0.693
			c0.419,0,0.887,0.096,1.177,0.209c0.032,0.08,0.048,0.193,0.048,0.307C53.071,157.028,53.055,157.222,53.023,157.303z"/>
		<path style="fill:#58595B;" d="M67.583,161.641l-2.161,6.742c-0.129,0.049-0.371,0.08-0.5,0.08c-0.145,0-0.387-0.031-0.5-0.08
			l-1.936-6.516h-0.032l-2.032,6.516c-0.145,0.049-0.371,0.08-0.5,0.08s-0.338-0.031-0.484-0.08l-2-6.645
			c-0.177-0.549-0.258-1.178-0.274-1.774c0.129-0.032,0.387-0.064,0.548-0.064c0.177,0,0.339,0.032,0.484,0.081
			c0.016,0.58,0.113,1.193,0.258,1.725l1.468,5.242h0.016l2.097-6.983c0.113-0.032,0.339-0.048,0.452-0.048s0.355,0.016,0.452,0.048
			l1.984,6.983h0.016l1.613-5.226c0.177-0.597,0.307-1.161,0.339-1.741c0.113-0.049,0.387-0.081,0.532-0.081
			c0.145,0,0.371,0.032,0.468,0.081C67.89,160.528,67.76,161.076,67.583,161.641z"/>
		<path style="fill:#58595B;" d="M75.885,168.383c-0.146,0.049-0.323,0.08-0.484,0.08c-0.194,0-0.403-0.031-0.564-0.08v-5.097
			c0-1.774-0.452-2.581-1.952-2.581c-0.807,0-1.774,0.452-2.403,0.936v6.742c-0.177,0.049-0.371,0.08-0.548,0.08
			c-0.161,0-0.355-0.031-0.5-0.08v-11.773c0.145-0.049,0.371-0.081,0.516-0.081s0.387,0.032,0.532,0.081v4.145
			c0.855-0.661,1.871-0.936,2.661-0.936c0.823,0,1.662,0.274,2.129,0.839c0.516,0.612,0.613,1.5,0.613,2.371V168.383z"/>
		<path style="fill:#58595B;" d="M78.606,158.335c-0.371,0-0.677-0.323-0.677-0.71s0.307-0.693,0.677-0.693
			c0.371,0,0.694,0.307,0.694,0.693S78.978,158.335,78.606,158.335z M79.139,168.383c-0.145,0.049-0.354,0.08-0.532,0.08
			c-0.177,0-0.371-0.031-0.516-0.08v-8.402c0.129-0.033,0.339-0.081,0.5-0.081c0.178,0,0.419,0.032,0.548,0.081V168.383z"/>
		<path style="fill:#58595B;" d="M86.686,160.996c-0.516-0.21-1.193-0.339-1.79-0.339c-2.097,0-2.871,1.629-2.871,3.597
			c0,1.936,0.742,3.436,2.855,3.436c0.564,0,1.242-0.098,1.742-0.242c0.032,0.097,0.064,0.21,0.064,0.339
			c0,0.193-0.032,0.339-0.081,0.452c-0.468,0.193-1.226,0.306-1.822,0.306c-2.629,0-3.855-1.726-3.855-4.258
			c0-2.629,1.339-4.468,3.903-4.468c0.613,0,1.338,0.146,1.838,0.371c0.048,0.129,0.064,0.258,0.064,0.403
			C86.734,160.754,86.718,160.883,86.686,160.996z"/>
		<path style="fill:#58595B;" d="M94.86,168.383c-0.146,0.049-0.323,0.08-0.484,0.08c-0.194,0-0.403-0.031-0.564-0.08v-5.097
			c0-1.774-0.452-2.581-1.952-2.581c-0.807,0-1.774,0.452-2.403,0.936v6.742c-0.177,0.049-0.371,0.08-0.548,0.08
			c-0.161,0-0.355-0.031-0.5-0.08v-11.773c0.145-0.049,0.371-0.081,0.516-0.081s0.387,0.032,0.532,0.081v4.145
			c0.855-0.661,1.871-0.936,2.661-0.936c0.823,0,1.662,0.274,2.129,0.839c0.516,0.612,0.613,1.5,0.613,2.371V168.383z"/>
		<path style="fill:#58595B;" d="M106.29,166.318c0,0.58,0,1.307,0.032,2.064c-0.113,0.049-0.29,0.08-0.436,0.08
			c-0.129,0-0.306-0.031-0.435-0.08c-0.048-0.258-0.081-0.597-0.097-0.903h-0.016c-0.548,0.678-1.516,1.064-2.467,1.064
			c-1.5,0-2.758-0.839-2.758-2.564c0-0.983,0.403-1.71,1.032-2.161c0.71-0.5,1.645-0.661,2.645-0.661
			c0.565,0,1.032,0.032,1.452,0.097v-0.468c0-1.612-0.661-2.146-2.016-2.146c-0.758,0-1.693,0.162-2.274,0.307
			c-0.032-0.08-0.064-0.258-0.064-0.419c0-0.112,0.032-0.274,0.081-0.371c0.693-0.21,1.613-0.339,2.387-0.339
			c1.919,0,2.935,0.871,2.935,2.839V166.318z M105.241,164.045c-0.468-0.065-0.952-0.098-1.371-0.098
			c-0.791,0-1.5,0.146-1.984,0.516c-0.436,0.323-0.678,0.84-0.678,1.5c0,1.178,0.758,1.742,1.807,1.742
			c0.871,0,1.79-0.419,2.226-1.08V164.045z"/>
		<path style="fill:#58595B;" d="M112.27,160.754c-0.935,0.129-1.951,0.468-2.709,1.049v6.58c-0.161,0.049-0.355,0.08-0.532,0.08
			s-0.355-0.031-0.516-0.08v-8.402c0.097-0.033,0.242-0.064,0.403-0.064c0.129,0,0.306,0.031,0.436,0.064l0.081,1.031h0.016
			c0.693-0.596,1.903-1.096,2.822-1.193c0.032,0.098,0.065,0.274,0.065,0.42C112.335,160.399,112.302,160.609,112.27,160.754z"/>
		<path style="fill:#58595B;" d="M119.478,164.463h-5.403c0.064,1.855,0.936,3.259,2.952,3.259c0.726,0,1.403-0.097,2-0.242
			c0.032,0.081,0.064,0.242,0.064,0.339c0,0.161-0.032,0.307-0.081,0.42c-0.629,0.193-1.419,0.306-2.081,0.306
			c-1.274,0-2.242-0.403-2.839-1.048c-0.709-0.774-1.081-1.936-1.081-3.274c0-2.339,1.178-4.403,3.532-4.403
			c2.113,0,2.952,1.742,2.952,3.871C119.494,163.932,119.494,164.222,119.478,164.463z M118.445,163.689
			c0-1.484-0.162-3.08-1.952-3.08c-1.564,0-2.323,1.436-2.419,3.08H118.445z"/>
		<path style="fill:#58595B;" d="M130.117,167.512c-0.629,0.564-1.613,0.871-2.548,0.871c-0.662,0-1.274-0.113-1.726-0.274v4.064
			c-0.161,0.049-0.306,0.081-0.532,0.081c-0.177,0-0.387-0.032-0.516-0.081V159.98c0.081-0.033,0.274-0.064,0.436-0.064
			s0.307,0.031,0.419,0.064l0.097,0.887h0.016c0.613-0.646,1.532-1.049,2.468-1.049c1.016,0,1.919,0.436,2.484,1.242
			c0.467,0.678,0.758,1.645,0.758,2.822C131.472,165.496,130.972,166.738,130.117,167.512z M128.118,160.674
			c-0.855,0-1.71,0.354-2.274,1.064v5.548c0.419,0.193,1.064,0.306,1.613,0.306c1.742,0,2.919-1.145,2.919-3.66
			C130.375,161.947,129.601,160.674,128.118,160.674z"/>
		<path style="fill:#58595B;" d="M138.936,166.318c0,0.58,0,1.307,0.032,2.064c-0.113,0.049-0.29,0.08-0.436,0.08
			c-0.129,0-0.306-0.031-0.435-0.08c-0.048-0.258-0.081-0.597-0.097-0.903h-0.016c-0.548,0.678-1.516,1.064-2.467,1.064
			c-1.5,0-2.758-0.839-2.758-2.564c0-0.983,0.403-1.71,1.032-2.161c0.71-0.5,1.645-0.661,2.645-0.661
			c0.565,0,1.032,0.032,1.452,0.097v-0.468c0-1.612-0.661-2.146-2.016-2.146c-0.758,0-1.693,0.162-2.274,0.307
			c-0.032-0.08-0.064-0.258-0.064-0.419c0-0.112,0.032-0.274,0.081-0.371c0.693-0.21,1.613-0.339,2.387-0.339
			c1.919,0,2.935,0.871,2.935,2.839V166.318z M137.888,164.045c-0.468-0.065-0.952-0.098-1.371-0.098
			c-0.791,0-1.5,0.146-1.984,0.516c-0.436,0.323-0.678,0.84-0.678,1.5c0,1.178,0.758,1.742,1.807,1.742
			c0.871,0,1.79-0.419,2.226-1.08V164.045z"/>
		<path style="fill:#58595B;" d="M144.917,160.754c-0.935,0.129-1.951,0.468-2.709,1.049v6.58c-0.161,0.049-0.355,0.08-0.532,0.08
			s-0.355-0.031-0.516-0.08v-8.402c0.097-0.033,0.242-0.064,0.403-0.064c0.129,0,0.306,0.031,0.436,0.064l0.081,1.031h0.016
			c0.693-0.596,1.903-1.096,2.822-1.193c0.032,0.098,0.065,0.274,0.065,0.42C144.981,160.399,144.949,160.609,144.917,160.754z"/>
		<path style="fill:#58595B;" d="M151.156,168.303c-0.419,0.145-1.048,0.241-1.516,0.241c-1.597,0-2.355-0.758-2.355-2.548v-5.193
			h-1.452c-0.032-0.081-0.048-0.274-0.048-0.371c0-0.081,0.016-0.274,0.048-0.355l1.452-0.096v-2.194
			c0.129-0.048,0.339-0.081,0.516-0.081c0.178,0,0.403,0.033,0.532,0.081v2.194h2.371c0.032,0.08,0.064,0.322,0.064,0.402
			c0,0.113-0.032,0.307-0.064,0.42h-2.371v5.096c0,1.275,0.371,1.807,1.371,1.807c0.548,0,1.081-0.08,1.452-0.193
			c0.032,0.08,0.064,0.274,0.064,0.387C151.221,168.044,151.204,168.157,151.156,168.303z"/>
		<path style="fill:#58595B;" d="M154.702,163.754c0.032,0.08,0.081,0.291,0.081,0.42s-0.032,0.306-0.081,0.436h-3.145
			c-0.049-0.13-0.081-0.307-0.081-0.436s0.049-0.34,0.081-0.42H154.702z"/>
		<path style="fill:#58595B;" d="M159.684,168.544c-2.113,0-3.468-1.451-3.468-4.354s1.371-4.371,3.483-4.371
			c2.113,0,3.452,1.436,3.452,4.339S161.797,168.544,159.684,168.544z M159.699,160.609c-1.548,0-2.387,1.193-2.387,3.564
			c0,2.37,0.822,3.58,2.371,3.58c1.548,0,2.371-1.21,2.371-3.58C162.055,161.803,161.248,160.609,159.699,160.609z"/>
		<path style="fill:#58595B;" d="M174.584,161.641l-2.162,6.742c-0.129,0.049-0.37,0.08-0.5,0.08c-0.145,0-0.387-0.031-0.5-0.08
			l-1.935-6.516h-0.032l-2.032,6.516c-0.146,0.049-0.371,0.08-0.5,0.08c-0.13,0-0.339-0.031-0.484-0.08l-2-6.645
			c-0.177-0.549-0.258-1.178-0.274-1.774c0.13-0.032,0.388-0.064,0.549-0.064c0.178,0,0.339,0.032,0.483,0.081
			c0.017,0.58,0.113,1.193,0.259,1.725l1.468,5.242h0.016l2.097-6.983c0.113-0.032,0.339-0.048,0.452-0.048
			c0.112,0,0.354,0.016,0.451,0.048l1.983,6.983h0.017l1.613-5.226c0.177-0.597,0.306-1.161,0.338-1.741
			c0.113-0.049,0.388-0.081,0.532-0.081c0.146,0,0.371,0.032,0.468,0.081C174.89,160.528,174.761,161.076,174.584,161.641z"/>
		<path style="fill:#58595B;" d="M182.885,168.398c-0.129,0.033-0.322,0.064-0.516,0.064c-0.161,0-0.371-0.031-0.532-0.08v-5.113
			c0-0.773-0.097-1.371-0.323-1.789c-0.273-0.517-0.79-0.775-1.629-0.775c-0.806,0-1.773,0.452-2.402,0.936v6.742
			c-0.178,0.049-0.355,0.08-0.549,0.08c-0.161,0-0.354-0.031-0.5-0.08v-8.402c0.113-0.049,0.307-0.064,0.419-0.064
			c0.162,0,0.355,0.016,0.452,0.064l0.08,0.838h0.017c0.887-0.726,1.903-1,2.726-1s1.678,0.274,2.146,0.839
			c0.516,0.612,0.612,1.5,0.612,2.371V168.398z"/>
		<path style="fill:#58595B;" d="M191.026,164.463h-5.403c0.064,1.855,0.936,3.259,2.951,3.259c0.727,0,1.403-0.097,2-0.242
			c0.032,0.081,0.064,0.242,0.064,0.339c0,0.161-0.032,0.307-0.08,0.42c-0.629,0.193-1.419,0.306-2.081,0.306
			c-1.273,0-2.241-0.403-2.838-1.048c-0.71-0.774-1.081-1.936-1.081-3.274c0-2.339,1.178-4.403,3.532-4.403
			c2.113,0,2.951,1.742,2.951,3.871C191.042,163.932,191.042,164.222,191.026,164.463z M189.994,163.689
			c0-1.484-0.161-3.08-1.952-3.08c-1.564,0-2.322,1.436-2.419,3.08H189.994z"/>
		<path style="fill:#58595B;" d="M198.587,168.463c-0.145,0-0.322-0.048-0.419-0.08l-0.097-0.968h-0.017
			c-0.693,0.726-1.516,1.129-2.436,1.129c-2.226,0-3.29-1.854-3.29-4.112c0-2.242,0.952-4.613,3.517-4.613
			c0.806,0,1.548,0.274,2.145,0.693v-3.902c0.146-0.049,0.339-0.081,0.517-0.081c0.193,0,0.387,0.048,0.532,0.081v11.773
			C198.926,168.432,198.765,168.463,198.587,168.463z M197.99,161.398c-0.58-0.482-1.322-0.725-2.08-0.725
			c-1.871,0-2.5,1.838-2.5,3.709c0,1.436,0.451,3.307,2.258,3.307c0.871,0,1.758-0.436,2.322-1.113V161.398z"/>
		<path style="fill:#58595B;" d="M207.356,168.544c-0.742,0-1.694-0.112-2.581-0.436v-11.499c0.113-0.033,0.354-0.081,0.5-0.081
			c0.258,0,0.451,0.048,0.549,0.081v4.08c0.661-0.549,1.5-0.871,2.387-0.871c2.274,0,3.226,1.951,3.226,4.129
			C211.437,166.722,210.018,168.544,207.356,168.544z M208.065,160.722c-0.807,0-1.612,0.339-2.241,0.968v5.79
			c0.436,0.161,0.983,0.259,1.451,0.259c2.242,0,3.064-1.711,3.064-3.727C210.34,162.447,209.889,160.722,208.065,160.722z"/>
		<path style="fill:#58595B;" d="M219.433,166.979c0,1.564-0.064,2.677-0.629,3.678c-0.646,1.145-1.919,1.693-3.064,1.693
			c-0.839,0-1.419-0.081-1.936-0.258c-0.048-0.097-0.064-0.259-0.064-0.388c0-0.097,0.032-0.307,0.064-0.403
			c0.484,0.146,1.064,0.259,1.839,0.259c1.774,0,2.742-1.274,2.742-3.484v-0.564c-0.823,0.727-1.742,1.032-2.581,1.032
			c-0.903,0-1.612-0.226-2.064-0.774c-0.5-0.596-0.564-1.467-0.564-2.338v-5.451c0.129-0.033,0.339-0.081,0.5-0.081
			c0.193,0,0.403,0.048,0.549,0.081v5.273c0,0.773,0.064,1.42,0.354,1.855c0.258,0.37,0.678,0.564,1.307,0.564
			c1,0,1.951-0.533,2.5-1.064v-6.629c0.145-0.033,0.354-0.081,0.548-0.081c0.161,0,0.371,0.048,0.5,0.081V166.979z"/>
		<path style="fill:#58595B;" d="M226.476,164.657c0,1.064,0.177,1.87,0.645,2.387c0.403,0.436,1.017,0.694,1.936,0.694
			c0.92,0,1.549-0.259,1.952-0.694c0.468-0.517,0.645-1.322,0.645-2.387v-7.177c0.146-0.049,0.403-0.081,0.549-0.081
			c0.161,0,0.403,0.032,0.548,0.081v7.016c0,1.436-0.273,2.436-0.951,3.112c-0.597,0.597-1.5,0.936-2.742,0.936
			c-1.241,0-2.129-0.339-2.726-0.936c-0.677-0.677-0.951-1.677-0.951-3.112v-7.016c0.129-0.049,0.354-0.081,0.548-0.081
			s0.388,0.032,0.549,0.081V164.657z"/>
		<path style="fill:#58595B;" d="M236.229,168.383c-0.178,0.049-0.355,0.08-0.549,0.08c-0.161,0-0.354-0.031-0.5-0.08v-11.773
			c0.146-0.033,0.322-0.081,0.532-0.081c0.178,0,0.371,0.032,0.517,0.081V168.383z"/>
		<path style="fill:#58595B;" d="M240.324,168.544c-0.807,0-1.646-0.146-2.226-0.37c-0.049-0.113-0.081-0.307-0.081-0.452
			c0-0.097,0.032-0.339,0.064-0.436c0.597,0.241,1.452,0.436,2.161,0.436c1.226,0,1.984-0.517,1.984-1.532
			c0-0.92-0.468-1.242-1.742-1.71c-1.774-0.646-2.354-1.387-2.354-2.483c0-1.484,1.226-2.178,2.806-2.178
			c0.532,0,1.227,0.098,1.63,0.227c0.048,0.145,0.064,0.289,0.064,0.387c0,0.129-0.032,0.354-0.064,0.468
			c-0.532-0.161-1.098-0.259-1.646-0.259c-1.146,0-1.839,0.436-1.839,1.323c0,0.774,0.436,1.146,1.758,1.646
			c1.21,0.451,2.323,0.902,2.323,2.531C243.163,167.786,241.921,168.544,240.324,168.544z"/>
		<path style="fill:#58595B;" d="M249.192,168.303c-0.42,0.145-1.049,0.241-1.517,0.241c-1.597,0-2.354-0.758-2.354-2.548v-5.193
			h-1.451c-0.032-0.081-0.049-0.274-0.049-0.371c0-0.081,0.017-0.274,0.049-0.355l1.451-0.096v-2.194
			c0.129-0.048,0.339-0.081,0.517-0.081c0.177,0,0.403,0.033,0.532,0.081v2.194h2.37c0.032,0.08,0.065,0.322,0.065,0.402
			c0,0.113-0.033,0.307-0.065,0.42h-2.37v5.096c0,1.275,0.371,1.807,1.37,1.807c0.549,0,1.081-0.08,1.452-0.193
			c0.032,0.08,0.064,0.274,0.064,0.387C249.257,168.044,249.24,168.157,249.192,168.303z"/>
		<path style="fill:#58595B;" d="M256.367,164.463h-5.403c0.064,1.855,0.936,3.259,2.952,3.259c0.726,0,1.402-0.097,1.999-0.242
			c0.032,0.081,0.065,0.242,0.065,0.339c0,0.161-0.033,0.307-0.081,0.42c-0.629,0.193-1.419,0.306-2.081,0.306
			c-1.273,0-2.241-0.403-2.838-1.048c-0.71-0.774-1.081-1.936-1.081-3.274c0-2.339,1.178-4.403,3.532-4.403
			c2.113,0,2.951,1.742,2.951,3.871C256.383,163.932,256.383,164.222,256.367,164.463z M255.335,163.689
			c0-1.484-0.161-3.08-1.952-3.08c-1.564,0-2.322,1.436-2.419,3.08H255.335z"/>
		<path style="fill:#58595B;" d="M261.896,160.754c-0.936,0.129-1.951,0.468-2.709,1.049v6.58c-0.162,0.049-0.355,0.08-0.532,0.08
			c-0.178,0-0.355-0.031-0.517-0.08v-8.402c0.097-0.033,0.242-0.064,0.403-0.064c0.129,0,0.307,0.031,0.436,0.064l0.08,1.031h0.017
			c0.693-0.596,1.903-1.096,2.822-1.193c0.032,0.098,0.064,0.274,0.064,0.42C261.96,160.399,261.928,160.609,261.896,160.754z"/>
		<path style="fill:#58595B;" d="M269.844,163.754c0.032,0.08,0.08,0.291,0.08,0.42s-0.032,0.306-0.08,0.436h-3.146
			c-0.048-0.13-0.08-0.307-0.08-0.436s0.048-0.34,0.08-0.42H269.844z"/>
	</g>
	<g>
		<path style="fill:#58595B;" d="M24.084,184.424c-0.419,0.146-1.048,0.242-1.516,0.242c-1.597,0-2.355-0.758-2.355-2.548v-5.193
			h-1.452c-0.032-0.081-0.048-0.274-0.048-0.371c0-0.081,0.016-0.274,0.048-0.355l1.452-0.097v-2.193
			c0.129-0.048,0.339-0.08,0.516-0.08c0.178,0,0.403,0.032,0.532,0.08v2.193h2.371c0.032,0.081,0.064,0.323,0.064,0.403
			c0,0.113-0.032,0.307-0.064,0.42h-2.371v5.097c0,1.273,0.371,1.806,1.371,1.806c0.548,0,1.081-0.08,1.452-0.193
			c0.032,0.081,0.064,0.274,0.064,0.388C24.149,184.166,24.133,184.279,24.084,184.424z"/>
		<path style="fill:#58595B;" d="M32.098,184.505c-0.146,0.049-0.323,0.081-0.484,0.081c-0.194,0-0.403-0.032-0.564-0.081v-5.097
			c0-1.774-0.452-2.58-1.952-2.58c-0.807,0-1.774,0.451-2.403,0.935v6.742c-0.177,0.049-0.371,0.081-0.548,0.081
			c-0.161,0-0.355-0.032-0.5-0.081v-11.773c0.145-0.049,0.371-0.081,0.516-0.081s0.387,0.032,0.532,0.081v4.145
			c0.855-0.661,1.871-0.936,2.661-0.936c0.823,0,1.662,0.274,2.129,0.839c0.516,0.613,0.613,1.5,0.613,2.371V184.505z"/>
		<path style="fill:#58595B;" d="M40.239,180.586h-5.403c0.064,1.854,0.936,3.258,2.952,3.258c0.726,0,1.403-0.097,2-0.242
			c0.032,0.081,0.064,0.242,0.064,0.339c0,0.161-0.032,0.307-0.081,0.419c-0.629,0.194-1.419,0.307-2.081,0.307
			c-1.274,0-2.242-0.403-2.839-1.048c-0.709-0.774-1.081-1.936-1.081-3.274c0-2.339,1.178-4.403,3.532-4.403
			c2.113,0,2.952,1.742,2.952,3.871C40.255,180.054,40.255,180.344,40.239,180.586z M39.207,179.812
			c0-1.483-0.162-3.081-1.952-3.081c-1.564,0-2.323,1.436-2.419,3.081H39.207z"/>
		<path style="fill:#58595B;" d="M43.881,184.666c-0.807,0-1.645-0.145-2.226-0.371c-0.048-0.112-0.081-0.307-0.081-0.451
			c0-0.097,0.032-0.339,0.064-0.436c0.597,0.242,1.452,0.436,2.162,0.436c1.226,0,1.983-0.517,1.983-1.532
			c0-0.92-0.467-1.242-1.742-1.71c-1.774-0.645-2.355-1.387-2.355-2.483c0-1.484,1.226-2.178,2.807-2.178
			c0.532,0,1.226,0.097,1.629,0.226c0.048,0.146,0.064,0.291,0.064,0.388c0,0.129-0.032,0.354-0.064,0.468
			c-0.532-0.161-1.097-0.258-1.645-0.258c-1.145,0-1.839,0.435-1.839,1.322c0,0.774,0.436,1.145,1.758,1.645
			c1.209,0.452,2.322,0.903,2.322,2.532C46.72,183.908,45.478,184.666,43.881,184.666z"/>
		<path style="fill:#58595B;" d="M54.427,180.586h-5.403c0.064,1.854,0.936,3.258,2.952,3.258c0.726,0,1.403-0.097,2-0.242
			c0.032,0.081,0.064,0.242,0.064,0.339c0,0.161-0.032,0.307-0.081,0.419c-0.629,0.194-1.419,0.307-2.081,0.307
			c-1.274,0-2.242-0.403-2.839-1.048c-0.709-0.774-1.081-1.936-1.081-3.274c0-2.339,1.178-4.403,3.532-4.403
			c2.113,0,2.952,1.742,2.952,3.871C54.443,180.054,54.443,180.344,54.427,180.586z M53.395,179.812
			c0-1.483-0.162-3.081-1.952-3.081c-1.564,0-2.323,1.436-2.419,3.081H53.395z"/>
		<path style="fill:#58595B;" d="M65.034,177.118c-0.516-0.21-1.193-0.339-1.79-0.339c-2.097,0-2.871,1.629-2.871,3.597
			c0,1.936,0.742,3.436,2.855,3.436c0.564,0,1.242-0.097,1.742-0.242c0.032,0.097,0.064,0.21,0.064,0.339
			c0,0.193-0.032,0.339-0.081,0.451c-0.468,0.194-1.226,0.307-1.822,0.307c-2.629,0-3.855-1.726-3.855-4.258
			c0-2.629,1.339-4.468,3.903-4.468c0.613,0,1.338,0.146,1.838,0.371c0.048,0.129,0.064,0.258,0.064,0.403
			C65.083,176.876,65.066,177.005,65.034,177.118z"/>
		<path style="fill:#58595B;" d="M69.757,184.666c-2.113,0-3.468-1.451-3.468-4.354s1.371-4.371,3.484-4.371
			s3.452,1.436,3.452,4.339S71.87,184.666,69.757,184.666z M69.773,176.73c-1.548,0-2.387,1.194-2.387,3.564
			c0,2.371,0.823,3.581,2.371,3.581s2.371-1.21,2.371-3.581C72.128,177.925,71.321,176.73,69.773,176.73z"/>
		<path style="fill:#58595B;" d="M86.624,184.521c-0.162,0.032-0.323,0.064-0.484,0.064c-0.194,0-0.371-0.049-0.564-0.081v-5.097
			c0-1.774-0.452-2.58-1.952-2.58c-0.774,0-1.807,0.402-2.452,0.87c0.129,0.452,0.162,0.952,0.162,1.452v5.354
			c-0.162,0.049-0.323,0.081-0.484,0.081c-0.21,0-0.403-0.032-0.565-0.081v-5.097c0-1.774-0.403-2.58-1.903-2.58
			c-0.807,0-1.758,0.451-2.387,0.935v6.742c-0.177,0.049-0.387,0.081-0.581,0.081c-0.161,0-0.339-0.032-0.468-0.081v-8.403
			c0.081-0.032,0.258-0.064,0.436-0.064c0.145,0,0.323,0.032,0.436,0.064l0.081,0.839h0.016c0.887-0.726,1.903-1,2.726-1
			c0.823,0,1.613,0.274,2.081,0.839c0.064,0.064,0.113,0.146,0.162,0.226c0.854-0.693,1.951-1.064,3-1.064
			c0.823,0,1.662,0.274,2.129,0.839c0.516,0.613,0.613,1.5,0.613,2.371V184.521z"/>
		<path style="fill:#58595B;" d="M94.085,183.634c-0.629,0.564-1.613,0.871-2.548,0.871c-0.661,0-1.274-0.113-1.726-0.274v4.064
			c-0.161,0.049-0.306,0.081-0.532,0.081c-0.177,0-0.387-0.032-0.516-0.081v-12.193c0.081-0.032,0.274-0.064,0.436-0.064
			s0.307,0.032,0.419,0.064l0.097,0.888h0.016c0.613-0.646,1.532-1.049,2.468-1.049c1.016,0,1.919,0.436,2.484,1.242
			c0.468,0.678,0.758,1.646,0.758,2.822C95.44,181.618,94.94,182.859,94.085,183.634z M92.086,176.796
			c-0.855,0-1.71,0.354-2.274,1.064v5.548c0.419,0.193,1.064,0.307,1.613,0.307c1.742,0,2.919-1.146,2.919-3.661
			C94.344,178.069,93.569,176.796,92.086,176.796z"/>
		<path style="fill:#58595B;" d="M102.905,182.44c0,0.581,0,1.307,0.032,2.064c-0.113,0.049-0.29,0.081-0.436,0.081
			c-0.129,0-0.306-0.032-0.435-0.081c-0.048-0.258-0.081-0.597-0.097-0.903h-0.016c-0.548,0.678-1.516,1.064-2.467,1.064
			c-1.5,0-2.758-0.839-2.758-2.564c0-0.983,0.403-1.709,1.032-2.161c0.71-0.5,1.645-0.661,2.645-0.661
			c0.565,0,1.032,0.032,1.452,0.097v-0.468c0-1.612-0.661-2.145-2.016-2.145c-0.758,0-1.693,0.161-2.274,0.306
			c-0.032-0.08-0.064-0.258-0.064-0.419c0-0.113,0.032-0.274,0.081-0.371c0.693-0.21,1.613-0.339,2.387-0.339
			c1.919,0,2.935,0.871,2.935,2.839V182.44z M101.856,180.166c-0.468-0.064-0.952-0.097-1.371-0.097c-0.791,0-1.5,0.146-1.984,0.517
			c-0.436,0.322-0.678,0.839-0.678,1.5c0,1.177,0.758,1.741,1.807,1.741c0.871,0,1.79-0.419,2.226-1.08V180.166z"/>
		<path style="fill:#58595B;" d="M111.579,184.521c-0.129,0.032-0.323,0.064-0.516,0.064c-0.162,0-0.371-0.032-0.532-0.081v-5.112
			c0-0.774-0.097-1.371-0.323-1.791c-0.274-0.516-0.791-0.773-1.629-0.773c-0.807,0-1.774,0.451-2.403,0.935v6.742
			c-0.177,0.049-0.355,0.081-0.548,0.081c-0.161,0-0.355-0.032-0.5-0.081v-8.403c0.113-0.048,0.307-0.064,0.419-0.064
			c0.161,0,0.355,0.017,0.452,0.064l0.081,0.839h0.016c0.887-0.726,1.903-1,2.726-1c0.823,0,1.678,0.274,2.145,0.839
			c0.516,0.613,0.613,1.5,0.613,2.371V184.521z"/>
		<path style="fill:#58595B;" d="M114.3,174.457c-0.371,0-0.677-0.323-0.677-0.71s0.307-0.693,0.677-0.693
			c0.371,0,0.694,0.307,0.694,0.693S114.671,174.457,114.3,174.457z M114.833,184.505c-0.145,0.049-0.354,0.081-0.532,0.081
			c-0.177,0-0.371-0.032-0.516-0.081v-8.403c0.129-0.032,0.339-0.08,0.5-0.08c0.178,0,0.419,0.032,0.548,0.08V184.505z"/>
		<path style="fill:#58595B;" d="M123.089,180.586h-5.403c0.064,1.854,0.936,3.258,2.952,3.258c0.726,0,1.403-0.097,2-0.242
			c0.032,0.081,0.064,0.242,0.064,0.339c0,0.161-0.032,0.307-0.081,0.419c-0.629,0.194-1.419,0.307-2.081,0.307
			c-1.274,0-2.242-0.403-2.839-1.048c-0.709-0.774-1.081-1.936-1.081-3.274c0-2.339,1.177-4.403,3.532-4.403
			c2.113,0,2.952,1.742,2.952,3.871C123.105,180.054,123.105,180.344,123.089,180.586z M122.057,179.812
			c0-1.483-0.162-3.081-1.952-3.081c-1.564,0-2.323,1.436-2.419,3.081H122.057z"/>
		<path style="fill:#58595B;" d="M126.731,184.666c-0.807,0-1.645-0.145-2.226-0.371c-0.048-0.112-0.081-0.307-0.081-0.451
			c0-0.097,0.032-0.339,0.064-0.436c0.597,0.242,1.452,0.436,2.162,0.436c1.226,0,1.983-0.517,1.983-1.532
			c0-0.92-0.467-1.242-1.742-1.71c-1.774-0.645-2.354-1.387-2.354-2.483c0-1.484,1.226-2.178,2.806-2.178
			c0.532,0,1.226,0.097,1.629,0.226c0.048,0.146,0.064,0.291,0.064,0.388c0,0.129-0.032,0.354-0.064,0.468
			c-0.532-0.161-1.097-0.258-1.645-0.258c-1.145,0-1.839,0.435-1.839,1.322c0,0.774,0.436,1.145,1.758,1.645
			c1.209,0.452,2.322,0.903,2.322,2.532C129.57,183.908,128.328,184.666,126.731,184.666z"/>
		<path style="fill:#58595B;" d="M141.275,184.505c-0.146,0.049-0.323,0.081-0.484,0.081c-0.194,0-0.403-0.032-0.564-0.081v-5.097
			c0-1.774-0.452-2.58-1.952-2.58c-0.807,0-1.774,0.451-2.403,0.935v6.742c-0.177,0.049-0.371,0.081-0.548,0.081
			c-0.161,0-0.355-0.032-0.5-0.081v-11.773c0.145-0.049,0.371-0.081,0.516-0.081s0.387,0.032,0.532,0.081v4.145
			c0.855-0.661,1.871-0.936,2.661-0.936c0.823,0,1.662,0.274,2.129,0.839c0.516,0.613,0.613,1.5,0.613,2.371V184.505z"/>
		<path style="fill:#58595B;" d="M149.158,182.44c0,0.581,0,1.307,0.032,2.064c-0.113,0.049-0.29,0.081-0.436,0.081
			c-0.129,0-0.306-0.032-0.435-0.081c-0.048-0.258-0.081-0.597-0.097-0.903h-0.016c-0.548,0.678-1.516,1.064-2.467,1.064
			c-1.5,0-2.758-0.839-2.758-2.564c0-0.983,0.403-1.709,1.032-2.161c0.71-0.5,1.645-0.661,2.645-0.661
			c0.565,0,1.032,0.032,1.452,0.097v-0.468c0-1.612-0.661-2.145-2.016-2.145c-0.758,0-1.693,0.161-2.274,0.306
			c-0.032-0.08-0.064-0.258-0.064-0.419c0-0.113,0.032-0.274,0.081-0.371c0.693-0.21,1.613-0.339,2.387-0.339
			c1.919,0,2.935,0.871,2.935,2.839V182.44z M148.109,180.166c-0.468-0.064-0.952-0.097-1.371-0.097c-0.791,0-1.5,0.146-1.984,0.517
			c-0.436,0.322-0.678,0.839-0.678,1.5c0,1.177,0.758,1.741,1.807,1.741c0.871,0,1.79-0.419,2.226-1.08V180.166z"/>
		<path style="fill:#58595B;" d="M156.912,178.15l-2.532,6.354c-0.146,0.049-0.307,0.081-0.436,0.081
			c-0.177,0-0.322-0.032-0.451-0.081l-2.613-6.354c-0.29-0.726-0.419-1.452-0.419-2.049c0.129-0.032,0.354-0.08,0.5-0.08
			c0.193,0,0.387,0.032,0.548,0.08c0.017,0.549,0.081,1.178,0.323,1.759l2.097,5.322h0.032l2.032-5.322
			c0.226-0.564,0.339-1.194,0.339-1.759c0.112-0.048,0.354-0.08,0.564-0.08c0.112,0,0.322,0.016,0.468,0.064
			C157.348,176.666,157.234,177.36,156.912,178.15z"/>
		<path style="fill:#58595B;" d="M164.731,180.586h-5.403c0.064,1.854,0.936,3.258,2.951,3.258c0.727,0,1.403-0.097,2-0.242
			c0.032,0.081,0.064,0.242,0.064,0.339c0,0.161-0.032,0.307-0.08,0.419c-0.629,0.194-1.419,0.307-2.081,0.307
			c-1.273,0-2.241-0.403-2.838-1.048c-0.71-0.774-1.081-1.936-1.081-3.274c0-2.339,1.178-4.403,3.532-4.403
			c2.113,0,2.951,1.742,2.951,3.871C164.747,180.054,164.747,180.344,164.731,180.586z M163.699,179.812
			c0-1.483-0.161-3.081-1.952-3.081c-1.564,0-2.322,1.436-2.419,3.081H163.699z"/>
		<path style="fill:#58595B;" d="M175.791,182.44c0,0.581,0,1.307,0.032,2.064c-0.113,0.049-0.291,0.081-0.436,0.081
			c-0.129,0-0.307-0.032-0.436-0.081c-0.049-0.258-0.081-0.597-0.097-0.903h-0.017c-0.548,0.678-1.516,1.064-2.468,1.064
			c-1.5,0-2.758-0.839-2.758-2.564c0-0.983,0.403-1.709,1.032-2.161c0.71-0.5,1.646-0.661,2.646-0.661
			c0.564,0,1.032,0.032,1.451,0.097v-0.468c0-1.612-0.661-2.145-2.016-2.145c-0.759,0-1.693,0.161-2.274,0.306
			c-0.032-0.08-0.064-0.258-0.064-0.419c0-0.113,0.032-0.274,0.08-0.371c0.694-0.21,1.613-0.339,2.388-0.339
			c1.919,0,2.936,0.871,2.936,2.839V182.44z M174.742,180.166c-0.468-0.064-0.951-0.097-1.371-0.097c-0.79,0-1.5,0.146-1.983,0.517
			c-0.436,0.322-0.678,0.839-0.678,1.5c0,1.177,0.758,1.741,1.807,1.741c0.871,0,1.79-0.419,2.226-1.08V180.166z"/>
		<path style="fill:#58595B;" d="M186.027,184.424c-0.42,0.146-1.049,0.242-1.517,0.242c-1.597,0-2.354-0.758-2.354-2.548v-5.193
			h-1.451c-0.032-0.081-0.049-0.274-0.049-0.371c0-0.081,0.017-0.274,0.049-0.355l1.451-0.097v-2.193
			c0.129-0.048,0.339-0.08,0.517-0.08c0.177,0,0.403,0.032,0.532,0.08v2.193h2.37c0.032,0.081,0.065,0.323,0.065,0.403
			c0,0.113-0.033,0.307-0.065,0.42h-2.37v5.097c0,1.273,0.371,1.806,1.37,1.806c0.549,0,1.081-0.08,1.452-0.193
			c0.032,0.081,0.064,0.274,0.064,0.388C186.092,184.166,186.075,184.279,186.027,184.424z"/>
		<path style="fill:#58595B;" d="M193.541,181.312c0,2.451-1.016,3.354-3.145,3.354c-2.178,0-3.097-0.903-3.097-3.274v-5.29
			c0.145-0.048,0.338-0.08,0.516-0.08c0.226,0,0.403,0.048,0.532,0.08v5.161c0,1.564,0.242,2.597,2.064,2.597
			c1.71,0,2.081-1,2.081-2.629v-5.129c0.129-0.048,0.354-0.08,0.532-0.08c0.177,0,0.37,0.032,0.516,0.08V181.312z"/>
		<path style="fill:#58595B;" d="M199.44,176.876c-0.936,0.129-1.951,0.468-2.709,1.049v6.58c-0.162,0.049-0.355,0.081-0.532,0.081
			c-0.178,0-0.355-0.032-0.517-0.081v-8.403c0.097-0.032,0.242-0.064,0.403-0.064c0.129,0,0.307,0.032,0.436,0.064l0.08,1.032h0.017
			c0.693-0.597,1.903-1.097,2.822-1.193c0.032,0.097,0.064,0.274,0.064,0.42C199.505,176.521,199.473,176.73,199.44,176.876z"/>
		<path style="fill:#58595B;" d="M207.519,184.521c-0.129,0.032-0.322,0.064-0.516,0.064c-0.161,0-0.371-0.032-0.532-0.081v-5.112
			c0-0.774-0.097-1.371-0.323-1.791c-0.273-0.516-0.79-0.773-1.629-0.773c-0.806,0-1.773,0.451-2.402,0.935v6.742
			c-0.178,0.049-0.355,0.081-0.549,0.081c-0.161,0-0.354-0.032-0.5-0.081v-8.403c0.113-0.048,0.307-0.064,0.419-0.064
			c0.162,0,0.355,0.017,0.452,0.064l0.08,0.839h0.017c0.887-0.726,1.903-1,2.726-1s1.678,0.274,2.146,0.839
			c0.516,0.613,0.612,1.5,0.612,2.371V184.521z"/>
		<path style="fill:#58595B;" d="M212.66,184.666c-2.113,0-3.468-1.451-3.468-4.354s1.371-4.371,3.483-4.371
			c2.113,0,3.452,1.436,3.452,4.339S214.773,184.666,212.66,184.666z M212.676,176.73c-1.548,0-2.387,1.194-2.387,3.564
			c0,2.371,0.822,3.581,2.371,3.581c1.548,0,2.371-1.21,2.371-3.581C215.031,177.925,214.225,176.73,212.676,176.73z"/>
		<path style="fill:#58595B;" d="M223.479,178.15l-2.532,6.354c-0.146,0.049-0.307,0.081-0.436,0.081
			c-0.177,0-0.322-0.032-0.451-0.081l-2.613-6.354c-0.29-0.726-0.419-1.452-0.419-2.049c0.129-0.032,0.354-0.08,0.5-0.08
			c0.193,0,0.387,0.032,0.548,0.08c0.017,0.549,0.081,1.178,0.323,1.759l2.097,5.322h0.032l2.032-5.322
			c0.226-0.564,0.339-1.194,0.339-1.759c0.112-0.048,0.354-0.08,0.564-0.08c0.112,0,0.322,0.016,0.468,0.064
			C223.914,176.666,223.801,177.36,223.479,178.15z"/>
		<path style="fill:#58595B;" d="M231.298,180.586h-5.403c0.064,1.854,0.936,3.258,2.951,3.258c0.727,0,1.403-0.097,2-0.242
			c0.032,0.081,0.064,0.242,0.064,0.339c0,0.161-0.032,0.307-0.08,0.419c-0.629,0.194-1.419,0.307-2.081,0.307
			c-1.273,0-2.241-0.403-2.838-1.048c-0.71-0.774-1.081-1.936-1.081-3.274c0-2.339,1.178-4.403,3.532-4.403
			c2.113,0,2.951,1.742,2.951,3.871C231.313,180.054,231.313,180.344,231.298,180.586z M230.266,179.812
			c0-1.483-0.161-3.081-1.952-3.081c-1.564,0-2.322,1.436-2.419,3.081H230.266z"/>
		<path style="fill:#58595B;" d="M236.827,176.876c-0.936,0.129-1.951,0.468-2.709,1.049v6.58c-0.162,0.049-0.355,0.081-0.532,0.081
			c-0.178,0-0.355-0.032-0.517-0.081v-8.403c0.097-0.032,0.242-0.064,0.403-0.064c0.129,0,0.307,0.032,0.436,0.064l0.08,1.032h0.017
			c0.693-0.597,1.903-1.097,2.822-1.193c0.032,0.097,0.064,0.274,0.064,0.42C236.892,176.521,236.859,176.73,236.827,176.876z"/>
		<path style="fill:#58595B;" d="M245,184.666c-2.113,0-3.468-1.451-3.468-4.354s1.371-4.371,3.483-4.371
			c2.113,0,3.452,1.436,3.452,4.339S247.113,184.666,245,184.666z M245.016,176.73c-1.548,0-2.387,1.194-2.387,3.564
			c0,2.371,0.822,3.581,2.371,3.581c1.548,0,2.371-1.21,2.371-3.581C247.371,177.925,246.564,176.73,245.016,176.73z"/>
		<path style="fill:#58595B;" d="M254.948,173.425c-0.242-0.064-0.677-0.129-1.016-0.129c-0.613,0-1.064,0.161-1.371,0.5
			c-0.468,0.5-0.549,1.177-0.549,2.032v0.273h2.274c0.032,0.081,0.064,0.274,0.064,0.388c0,0.129-0.032,0.322-0.064,0.436h-2.274
			v7.58c-0.145,0.049-0.306,0.081-0.516,0.081s-0.388-0.032-0.532-0.081v-7.58h-1.452c-0.032-0.081-0.048-0.291-0.048-0.388
			c0-0.08,0.016-0.258,0.048-0.339l1.452-0.097v-0.273c0-1.146,0.193-1.936,0.854-2.597c0.468-0.468,1.161-0.694,1.952-0.694
			c0.419,0,0.887,0.098,1.177,0.21c0.032,0.081,0.049,0.193,0.049,0.307C254.997,173.15,254.98,173.344,254.948,173.425z"/>
	</g>
	<g>
		<path style="fill:#B3A068;" d="M42.661,232.878H18.378c-0.278-0.612-0.557-2.061-0.557-3.119c0-0.779,0.111-1.894,0.223-2.673
			c3.175-1.17,4.4-3.119,4.4-6.795v-4.288h-4.121c-0.167-1.003-0.334-2.396-0.334-3.119c0-1.003,0.112-2.172,0.334-3.119h4.121
			v-2.841c0-7.519,4.4-12.252,12.476-12.252c2.952,0,6.071,0.612,7.853,1.336c0.167,0.558,0.279,1.949,0.279,2.562
			c0,1.002-0.167,2.562-0.39,3.676c-1.727-0.669-4.511-1.17-6.851-1.17c-3.843,0-5.402,1.894-5.402,5.903v2.785h8.243
			c0.223,0.947,0.334,2.116,0.334,3.119c0,0.724-0.111,2.172-0.334,3.119h-8.243v4.01c0,2.617-0.947,4.901-3.397,6.516v0.056h15.594
			c0.223,0.78,0.334,2.229,0.334,3.23C42.939,230.706,42.828,231.986,42.661,232.878z"/>
		<path style="fill:#B3A068;" d="M70.229,232.878H46.447c-0.501-1.17-0.668-2.617-0.668-3.898c0-0.669,0.056-1.504,0.167-2.061
			c3.898-3.955,8.076-8.41,11.751-12.531c2.729-3.063,4.901-5.904,4.901-9.022c0-2.729-1.894-4.289-5.235-4.289
			c-2.451,0-6.349,0.836-9.969,2.562c-0.223-0.947-0.446-2.618-0.446-3.955c0-0.668,0.111-2.005,0.334-2.896
			c2.729-1.17,7.129-2.228,11.417-2.228c6.349,0,11.919,2.951,11.919,9.802c0,6.015-3.23,10.081-10.137,17.321
			c-1.336,1.448-2.785,2.84-4.233,4.344H70.34c0.167,0.725,0.279,2.116,0.279,3.453C70.619,230.595,70.451,232.099,70.229,232.878z"
			/>
		<path style="fill:#B3A068;" d="M85.321,233.435c-3.007,0-7.463-0.612-10.526-1.671c-0.111-0.39-0.278-1.392-0.278-2.506
			c0-1.226,0.167-2.506,0.501-3.564c2.562,0.779,6.516,1.281,9.635,1.281c3.954,0,6.516-2.117,6.516-5.904
			c0-1.615-0.446-3.062-1.393-4.01c-1.225-1.226-3.286-1.727-6.293-1.727h-7.296v-20.105H97.24c0.167,0.891,0.278,2.283,0.278,3.286
			c0,1.058-0.167,2.896-0.278,3.564H83.316v6.906h2.451c4.344,0,7.797,0.779,10.248,2.896c2.172,1.894,3.397,4.79,3.397,8.8
			C99.412,229.202,92.896,233.435,85.321,233.435z"/>
		<path style="fill:#B3A068;" d="M159.561,232.878c-0.891,0.223-2.784,0.278-3.676,0.278c-0.946,0-3.118-0.111-4.01-0.278V215.39
			c0-2.116-0.056-3.676-0.835-4.622c-0.725-0.892-1.838-1.226-3.23-1.226c-1.894,0-4.567,0.835-6.294,1.894
			c0.056,0.947,0.112,1.894,0.112,3.008v18.435c-0.891,0.223-2.785,0.278-3.676,0.278c-0.947,0-3.119-0.111-4.01-0.278V215.39
			c0-2.116-0.056-3.676-0.835-4.622c-0.724-0.892-1.838-1.226-3.23-1.226c-1.949,0-4.456,0.779-6.182,1.838v21.498
			c-1.281,0.223-3.063,0.278-4.065,0.278c-0.891,0-2.506-0.056-3.62-0.278v-29.017c0.724-0.167,2.506-0.278,3.342-0.278
			c0.779,0,2.395,0.111,3.23,0.278l0.334,2.617c2.45-1.838,5.959-3.175,9.078-3.175c3.23,0,6.071,1.114,8.243,3.509
			c3.007-2.061,6.627-3.509,10.304-3.509c2.729,0,5.513,1.114,6.906,2.785c1.727,2.061,2.116,4.734,2.116,8.8V232.878z"/>
		<path style="fill:#B3A068;" d="M168.415,200.687c-2.339,0-4.232-1.894-4.232-4.232c0-2.34,1.894-4.233,4.232-4.233
			c2.34,0,4.233,1.894,4.233,4.233C172.648,198.793,170.755,200.687,168.415,200.687z M172.258,232.878
			c-1.002,0.223-3.062,0.278-3.954,0.278c-1.337,0-2.784-0.111-3.731-0.278v-29.017c1.226-0.167,2.729-0.278,3.731-0.278
			c1.337,0,2.729,0.111,3.954,0.278V232.878z"/>
		<path style="fill:#B3A068;" d="M185.179,232.878c-1.002,0.223-3.062,0.278-3.954,0.278c-1.337,0-2.784-0.111-3.731-0.278v-40.602
			c1.226-0.167,2.729-0.278,3.731-0.278c1.337,0,2.896,0.111,3.954,0.278V232.878z"/>
		<path style="fill:#B3A068;" d="M197.82,232.878c-1.002,0.223-3.062,0.278-3.954,0.278c-1.337,0-2.784-0.111-3.731-0.278v-40.602
			c1.226-0.167,2.729-0.278,3.731-0.278c1.337,0,2.896,0.111,3.954,0.278V232.878z"/>
		<path style="fill:#B3A068;" d="M206.898,200.687c-2.339,0-4.232-1.894-4.232-4.232c0-2.34,1.894-4.233,4.232-4.233
			c2.34,0,4.233,1.894,4.233,4.233C211.132,198.793,209.238,200.687,206.898,200.687z M210.741,232.878
			c-1.002,0.223-3.062,0.278-3.954,0.278c-1.336,0-2.784-0.111-3.731-0.278v-29.017c1.226-0.167,2.729-0.278,3.731-0.278
			c1.337,0,2.729,0.111,3.954,0.278V232.878z"/>
		<path style="fill:#B3A068;" d="M227.95,233.435c-8.41,0-13.757-5.402-13.757-14.981c0-9.523,5.291-15.149,13.757-15.149
			c8.465,0,13.756,5.57,13.756,15.094S236.415,233.435,227.95,233.435z M227.95,209.319c-3.62,0-5.849,2.45-5.849,9.078
			s2.229,9.022,5.849,9.022s5.848-2.395,5.848-9.022C233.798,211.714,231.57,209.319,227.95,209.319z"/>
		<path style="fill:#B3A068;" d="M270.222,232.878c-0.891,0.223-2.784,0.278-3.676,0.278c-0.946,0-3.119-0.111-4.01-0.278V213.83
			c0-3.007-1.56-4.288-4.065-4.288c-2.005,0-4.289,0.724-6.071,1.838v21.498c-1.28,0.223-3.062,0.278-4.065,0.278
			c-0.892,0-2.506-0.056-3.62-0.278v-29.017c0.724-0.167,2.506-0.278,3.342-0.278c0.779,0,2.395,0.111,3.23,0.278l0.39,2.562
			c2.506-1.838,6.126-3.119,9.356-3.119c6.127,0,9.189,3.788,9.189,10.137V232.878z"/>
	</g>
	<path style="fill:#B3A068;" d="M27.752,255.02c0,0.946,0.022,2.023,0.022,3.188c-0.352,0.089-0.946,0.108-1.319,0.108
		c-0.418,0-0.967-0.043-1.319-0.108c-0.043-0.264-0.087-0.725-0.109-1.011h-0.044c-0.747,0.771-2.023,1.231-3.188,1.231
		c-2.198,0-3.782-1.363-3.782-3.628c0-3.518,3.122-4.11,5.738-4.11c0.176,0,0.594,0.02,0.945,0.043c0-0.132-0.021-0.418-0.043-0.526
		c-0.155-0.902-0.749-1.276-2.023-1.276c-0.99,0-2.375,0.197-3.431,0.461c-0.108-0.307-0.174-0.833-0.174-1.231
		c0-0.329,0.043-0.833,0.132-1.054c1.23-0.375,2.748-0.572,4-0.572c2.748,0,4.595,1.277,4.595,4.133V255.02z M24.719,252.844
		c-0.265-0.023-0.616-0.043-0.923-0.043c-1.979,0-2.748,0.79-2.748,1.779c0,0.856,0.571,1.452,1.56,1.452
		c0.726,0,1.539-0.353,2.111-0.859V252.844z M39.865,258.208c-0.351,0.089-1.098,0.108-1.45,0.108c-0.374,0-1.231-0.043-1.583-0.108
		v-7.518c0-1.188-0.616-1.694-1.605-1.694c-0.791,0-1.693,0.286-2.397,0.727v8.485c-0.505,0.089-1.208,0.108-1.604,0.108
		c-0.351,0-0.989-0.02-1.428-0.108v-11.453c0.286-0.066,0.989-0.109,1.318-0.109c0.308,0,0.946,0.043,1.275,0.109l0.155,1.011
		c0.989-0.725,2.417-1.231,3.692-1.231c2.419,0,3.627,1.494,3.627,4.002V258.208z M51.606,258.208
		c-0.353,0.065-0.946,0.108-1.407,0.108c-0.417,0-0.901-0.043-1.209-0.108l-0.087-1.011c-0.792,0.771-1.804,1.231-2.99,1.231
		c-3.276,0-4.683-2.617-4.683-5.76c0-3.387,1.517-6.135,5.012-6.135c0.857,0,1.846,0.263,2.33,0.572v-4.923
		c0.396-0.069,1.055-0.112,1.539-0.112c0.594,0,1.056,0.065,1.496,0.112V258.208z M48.571,249.37
		c-0.527-0.242-1.209-0.374-1.78-0.374c-1.78,0-2.44,1.582-2.44,3.495c0,1.606,0.396,3.429,2.177,3.429
		c0.857,0,1.517-0.351,2.043-0.79V249.37z M67.413,253.548h-6.947c0.044,1.428,1.034,2.484,2.946,2.484
		c1.033,0,2.088-0.132,2.99-0.375c0.132,0.596,0.221,1.254,0.221,1.847c0,0.089,0,0.197-0.023,0.44
		c-1.121,0.329-2.286,0.484-3.43,0.484c-4.176,0-5.913-2.396-5.913-5.892c0-3.057,1.715-6.003,5.429-6.003
		c3.519,0,4.793,2.594,4.793,5.453C67.479,252.383,67.479,252.975,67.413,253.548z M64.444,251.372c0-1.386-0.374-2.55-1.802-2.55
		c-1.364,0-2.088,1.075-2.177,2.55H64.444z M86.077,258.208c-0.353,0.089-1.1,0.108-1.451,0.108c-0.374,0-1.231-0.043-1.582-0.108
		v-6.902c0-0.836-0.023-1.451-0.331-1.825c-0.286-0.353-0.726-0.484-1.275-0.484c-0.747,0-1.802,0.329-2.483,0.747
		c0.021,0.375,0.043,0.748,0.043,1.188v7.277c-0.351,0.089-1.1,0.108-1.45,0.108c-0.374,0-1.23-0.043-1.583-0.108v-6.902
		c0-0.836-0.021-1.451-0.331-1.825c-0.285-0.353-0.725-0.484-1.274-0.484c-0.77,0-1.759,0.309-2.44,0.727v8.485
		c-0.506,0.089-1.209,0.108-1.604,0.108c-0.352,0-0.99-0.02-1.43-0.108v-11.453c0.287-0.066,0.989-0.109,1.319-0.109
		c0.308,0,0.945,0.043,1.276,0.109l0.132,1.033c0.967-0.728,2.351-1.254,3.582-1.254c1.275,0,2.396,0.441,3.253,1.386
		c1.188-0.813,2.616-1.386,4.067-1.386c1.078,0,2.176,0.441,2.725,1.1c0.683,0.812,0.836,1.868,0.836,3.472V258.208z M93.29,258.208
		c-0.682,0-1.605-0.108-2.155-0.264v5.431c-0.396,0.066-1.056,0.108-1.54,0.108c-0.592,0-1.054-0.065-1.494-0.108v-16.598
		c0.352-0.065,0.944-0.111,1.407-0.111c0.418,0,0.879,0.046,1.187,0.111l0.11,0.945c0.704-0.662,1.978-1.188,3.166-1.188
		c3.143,0,4.55,2.573,4.55,5.52C98.521,255.459,96.763,258.208,93.29,258.208z M93.332,248.996c-0.813,0-1.67,0.329-2.197,0.813
		v5.825c0.417,0.134,1.231,0.22,1.802,0.22c1.627,0,2.462-1.34,2.462-3.561C95.399,250.118,94.607,248.996,93.332,248.996z
		 M103.006,258.208c-0.396,0.089-1.21,0.108-1.562,0.108c-0.526,0-1.1-0.043-1.473-0.108v-16.024
		c0.484-0.069,1.078-0.112,1.473-0.112c0.528,0,1.144,0.043,1.562,0.112V258.208z M109.888,258.429
		c-3.321,0-5.431-2.133-5.431-5.914c0-3.759,2.088-5.98,5.431-5.98c3.34,0,5.429,2.199,5.429,5.957
		C115.317,256.253,113.229,258.429,109.888,258.429z M109.888,248.909c-1.43,0-2.309,0.966-2.309,3.582s0.879,3.561,2.309,3.561
		c1.428,0,2.307-0.944,2.307-3.561C112.195,249.854,111.316,248.909,109.888,248.909z M126.463,256.184
		c0,1.672-0.088,3.519-0.946,4.97c-1.034,1.738-2.77,2.462-4.726,2.462c-1.099,0-2.352-0.154-3.364-0.461
		c-0.065-0.197-0.11-0.724-0.11-1.057c0-0.263,0.089-0.901,0.154-1.165c0.879,0.243,2.067,0.398,2.88,0.398
		c1.318,0,2.11-0.464,2.594-1.344c0.439-0.79,0.506-1.671,0.506-2.526c-0.77,0.593-1.782,0.968-2.727,0.968
		c-2.879,0-4.045-1.495-4.045-4.331v-7.343c0.352-0.089,1.1-0.109,1.452-0.109c0.373,0,1.23,0.043,1.583,0.109v7.165
		c0,1.407,0.505,2.023,1.757,2.023c0.792,0,1.496-0.329,1.957-0.771v-8.418c0.505-0.089,1.209-0.109,1.604-0.109
		c0.352,0,0.99,0.021,1.43,0.109V256.184z M136.688,258.429c-1.43,0-3.145-0.197-4.199-0.728c-0.066-0.218-0.11-0.701-0.11-0.987
		c0-0.461,0.066-1.034,0.176-1.495c1.186,0.461,2.572,0.701,3.671,0.701c1.802,0,2.814-0.833,2.814-2.218
		c0-1.497-0.901-2.09-2.572-2.09h-1.209c-0.066-0.24-0.132-0.725-0.132-1.253c0-0.439,0.087-0.968,0.153-1.166h1.143
		c1.518,0,2.22-0.812,2.22-1.955c0-1.076-0.791-1.606-2.044-1.606c-1.121,0-2.44,0.286-3.54,0.747
		c-0.11-0.372-0.197-0.987-0.197-1.471c0-0.329,0.044-0.835,0.11-1.033c0.944-0.418,2.682-0.747,4.155-0.747
		c2.572,0,4.726,1.274,4.726,3.89c0,1.452-0.66,2.66-1.912,3.231v0.043c1.45,0.55,2.33,1.87,2.33,3.388
		C142.271,256.822,139.72,258.429,136.688,258.429z M148.075,258.429c-1.428,0-3.143-0.197-4.2-0.728
		c-0.065-0.218-0.108-0.701-0.108-0.987c0-0.461,0.066-1.034,0.174-1.495c1.188,0.461,2.574,0.701,3.673,0.701
		c1.802,0,2.814-0.833,2.814-2.218c0-1.497-0.901-2.09-2.573-2.09h-1.208c-0.066-0.24-0.132-0.725-0.132-1.253
		c0-0.439,0.087-0.968,0.153-1.166h1.143c1.518,0,2.22-0.812,2.22-1.955c0-1.076-0.792-1.606-2.044-1.606
		c-1.122,0-2.44,0.286-3.54,0.747c-0.11-0.372-0.197-0.987-0.197-1.471c0-0.329,0.043-0.835,0.108-1.033
		c0.946-0.418,2.683-0.747,4.155-0.747c2.572,0,4.727,1.274,4.727,3.89c0,1.452-0.659,2.66-1.913,3.231v0.043
		c1.451,0.55,2.33,1.87,2.33,3.388C153.658,256.822,151.109,258.429,148.075,258.429z M160.231,258.429
		c-3.517,0-5.23-2.594-5.23-7.652c0-5.099,1.78-7.648,5.297-7.648c3.496,0,5.21,2.55,5.21,7.648
		C165.508,255.835,163.728,258.429,160.231,258.429z M160.255,245.698c-1.408,0-2.023,1.297-2.023,5.078
		c0,3.716,0.615,5.078,2.023,5.078c1.405,0,2.021-1.362,2.021-5.078C162.276,246.995,161.66,245.698,160.255,245.698z
		 M174.653,258.429c-1.296,0-2.658-0.197-3.714-0.55c-0.066-0.329-0.088-0.747-0.088-1.188c0-0.353,0.088-0.855,0.176-1.165
		c1.011,0.352,2.462,0.592,3.32,0.592c1.187,0,1.867-0.395,1.867-1.208c0-0.703-0.549-1.032-2-1.493
		c-2.308-0.728-3.386-1.804-3.386-3.475c0-2.482,2.286-3.407,4.463-3.407c1.011,0,2.133,0.178,2.901,0.418
		c0.089,0.329,0.133,0.79,0.133,1.057c0,0.283-0.088,0.879-0.199,1.251c-0.747-0.219-1.78-0.396-2.638-0.396
		c-1.055,0-1.78,0.264-1.78,0.924c0,0.703,0.812,0.988,2.089,1.406c2.22,0.728,3.275,1.649,3.275,3.386
		C179.073,257.264,176.918,258.429,174.653,258.429z M187.426,257.987c-0.66,0.264-1.452,0.441-2.727,0.441
		c-2.483,0-3.715-1.212-3.715-3.628v-5.781h-1.891c-0.089-0.329-0.154-0.879-0.154-1.165c0-0.264,0.065-0.748,0.132-0.968
		l1.913-0.132v-2.945c0.242-0.046,1.011-0.089,1.517-0.089c0.55,0,1.231,0.043,1.517,0.089v2.945h3.166
		c0.089,0.306,0.131,0.747,0.131,0.987c0,0.267-0.021,0.968-0.108,1.277h-3.188v5.342c0,1.098,0.441,1.582,1.517,1.582
		c0.595,0,1.32-0.089,1.826-0.264c0.086,0.286,0.197,0.836,0.197,1.34C187.558,257.283,187.513,257.747,187.426,257.987z
		 M197.912,255.02c0,0.946,0.021,2.023,0.021,3.188c-0.352,0.089-0.944,0.108-1.318,0.108c-0.418,0-0.968-0.043-1.319-0.108
		c-0.044-0.264-0.088-0.725-0.11-1.011h-0.044c-0.747,0.771-2.023,1.231-3.188,1.231c-2.199,0-3.78-1.363-3.78-3.628
		c0-3.518,3.122-4.11,5.737-4.11c0.175,0,0.593,0.02,0.945,0.043c0-0.132-0.022-0.418-0.044-0.526
		c-0.153-0.902-0.747-1.276-2.023-1.276c-0.988,0-2.374,0.197-3.429,0.461c-0.109-0.307-0.176-0.833-0.176-1.231
		c0-0.329,0.044-0.833,0.132-1.054c1.23-0.375,2.747-0.572,4.002-0.572c2.747,0,4.594,1.277,4.594,4.133V255.02z M194.879,252.844
		c-0.264-0.023-0.616-0.043-0.925-0.043c-1.977,0-2.747,0.79-2.747,1.779c0,0.856,0.57,1.452,1.562,1.452
		c0.724,0,1.538-0.353,2.11-0.859V252.844z M204.001,249.02v9.188c-0.306,0.065-1.032,0.108-1.494,0.108
		c-0.373,0-1.231-0.043-1.538-0.108v-9.188h-1.87c-0.087-0.264-0.152-0.794-0.152-1.057c0-0.372,0.065-0.836,0.176-1.076
		l1.847-0.132v-0.461c0-2.902,1.647-4.397,4.154-4.397c0.726,0,1.626,0.151,2.286,0.396c0.088,0.264,0.11,0.658,0.11,0.968
		c0,0.329-0.088,0.77-0.221,1.119c-0.484-0.152-1.055-0.24-1.626-0.24c-1.099,0-1.672,0.681-1.672,2.089v0.527h4.022v-0.329
		c0-2.945,1.518-4.529,4.398-4.529c0.681,0,1.648,0.151,2.309,0.396c0.087,0.264,0.109,0.658,0.109,0.968
		c0,0.329-0.089,0.77-0.22,1.119c-0.484-0.152-1.055-0.24-1.628-0.24c-1.273,0-1.934,0.681-1.934,2.155v0.461h2.813
		c0.111,0.372,0.132,0.879,0.132,1.122c0,0.264-0.044,0.747-0.109,1.143h-2.836v9.188c-0.308,0.065-1.033,0.108-1.495,0.108
		c-0.374,0-1.231-0.043-1.54-0.108v-9.188H204.001z"/>
</g>
</svg>
