<?xml version="1.0" encoding="utf-8"?>
<!-- Generator: Adobe Illustrator 16.0.0, SVG Export Plug-In . SVG Version: 6.00 Build 0)  -->
<!DOCTYPE svg PUBLIC "-//W3C//DTD SVG 1.1//EN" "http://www.w3.org/Graphics/SVG/1.1/DTD/svg11.dtd">
<svg version="1.1" id="Layer_1" xmlns="http://www.w3.org/2000/svg" xmlns:xlink="http://www.w3.org/1999/xlink" x="0px" y="0px"
	 width="300px" height="300px" viewBox="0 0 300 300" enable-background="new 0 0 300 300" xml:space="preserve">
<g>
	<path fill="#AA9244" d="M75.873,226.582H41.679c-0.721-1.682-0.961-3.764-0.961-5.605c0-0.961,0.08-2.162,0.24-2.963
		c5.605-5.686,11.611-12.092,16.896-18.018c3.924-4.404,7.047-8.488,7.047-12.973c0-3.924-2.723-6.166-7.527-6.166
		c-3.523,0-9.129,1.201-14.334,3.684c-0.32-1.361-0.641-3.764-0.641-5.686c0-0.961,0.16-2.883,0.48-4.164
		c3.924-1.682,10.25-3.203,16.416-3.203c9.129,0,17.137,4.244,17.137,14.094c0,8.648-4.645,14.494-14.574,24.904
		c-1.922,2.082-4.004,4.084-6.086,6.246h20.26c0.24,1.041,0.4,3.043,0.4,4.965C76.433,223.299,76.193,225.461,75.873,226.582z"/>
	<path fill="#AA9244" d="M98.372,227.383c-4.324,0-10.73-0.881-15.135-2.402c-0.16-0.561-0.4-2.002-0.4-3.604
		c0-1.762,0.24-3.604,0.721-5.125c3.684,1.121,9.369,1.842,13.854,1.842c5.686,0,9.369-3.043,9.369-8.488
		c0-2.322-0.641-4.404-2.002-5.766c-1.762-1.762-4.725-2.482-9.049-2.482h-10.49v-28.908h30.27c0.24,1.281,0.4,3.283,0.4,4.725
		c0,1.521-0.24,4.164-0.4,5.125h-20.02v9.93h3.523c6.246,0,11.211,1.121,14.734,4.164c3.123,2.723,4.885,6.887,4.885,12.652
		C118.631,221.297,109.262,227.383,98.372,227.383z"/>
	<path fill="#AA9244" d="M124.394,241.076c-1.281-0.881-2.963-2.562-3.443-4.404c3.363-2.402,5.846-5.285,6.967-8.248
		c-1.521-1.361-2.723-3.283-2.723-5.926c0-3.123,2.723-5.686,5.926-5.686c3.604,0,6.006,2.643,6.006,6.566
		C137.126,229.625,131.28,237.072,124.394,241.076z"/>
	<path fill="#AA9244" d="M159.227,227.383c-12.812,0-19.059-9.449-19.059-27.867c0-18.578,6.486-27.867,19.299-27.867
		c12.732,0,18.979,9.289,18.979,27.867C178.445,217.934,171.959,227.383,159.227,227.383z M159.307,181.018
		c-5.125,0-7.367,4.725-7.367,18.498c0,13.533,2.242,18.498,7.367,18.498s7.367-4.965,7.367-18.498
		C166.674,185.742,164.432,181.018,159.307,181.018z"/>
	<path fill="#AA9244" d="M200.784,227.383c-12.812,0-19.059-9.449-19.059-27.867c0-18.578,6.486-27.867,19.299-27.867
		c12.732,0,18.979,9.289,18.979,27.867C220.003,217.934,213.517,227.383,200.784,227.383z M200.864,181.018
		c-5.125,0-7.367,4.725-7.367,18.498c0,13.533,2.242,18.498,7.367,18.498s7.367-4.965,7.367-18.498
		C208.231,185.742,205.989,181.018,200.864,181.018z"/>
	<path fill="#AA9244" d="M242.341,227.383c-12.812,0-19.059-9.449-19.059-27.867c0-18.578,6.486-27.867,19.299-27.867
		c12.732,0,18.979,9.289,18.979,27.867C261.56,217.934,255.073,227.383,242.341,227.383z M242.421,181.018
		c-5.125,0-7.367,4.725-7.367,18.498c0,13.533,2.242,18.498,7.367,18.498s7.367-4.965,7.367-18.498
		C249.788,185.742,247.546,181.018,242.421,181.018z"/>
</g>
<g>
	<path fill="#AA9244" d="M49.79,263.637c-1.694,0-3.305-0.305-4.499-0.639c-0.083-0.389-0.111-0.777-0.111-1.166
		c0-0.417,0.056-0.916,0.167-1.306c1.139,0.417,2.805,0.694,4.027,0.694c1.611,0,2.86-0.527,2.86-1.972
		c0-1.222-0.917-1.639-2.916-2.277c-2.999-0.972-4.166-2.222-4.166-4.249c0-2.832,2.722-4.109,5.416-4.109
		c1.055,0,2.583,0.194,3.443,0.472c0.111,0.333,0.167,0.722,0.167,1.083c0,0.417-0.083,0.917-0.194,1.306
		c-1.055-0.278-2.11-0.444-3.249-0.444c-1.583,0-2.527,0.472-2.527,1.527c0,1.083,1.167,1.472,2.86,2.083
		c2.444,0.86,4.083,1.638,4.083,4.415C55.15,261.999,52.706,263.637,49.79,263.637z"/>
	<path fill="#AA9244" d="M58.815,251.251h-2.36c-0.111-0.36-0.167-0.694-0.167-1.083s0.056-0.722,0.167-1.083l2.36-0.167v-3.749
		c0.361-0.083,1.083-0.194,1.611-0.194c0.556,0,1.222,0.111,1.611,0.194v3.722h4.11c0.111,0.361,0.167,0.777,0.167,1.166
		c0,0.39-0.056,0.778-0.167,1.194h-4.11v7.359c0,0.667,0.083,1.389,0.417,1.833c0.278,0.389,0.805,0.639,1.639,0.639
		c0.639,0,1.638-0.139,2.36-0.361c0.111,0.5,0.167,1.028,0.167,1.5c0,0.333-0.028,0.611-0.055,0.833
		c-0.667,0.333-1.944,0.583-3.277,0.583c-3.249,0-4.471-1.527-4.471-4.471V251.251z"/>
	<path fill="#AA9244" d="M81.059,257.833c0,4.138-1.75,5.804-5.998,5.804c-4.249,0-5.943-1.666-5.943-5.804v-8.942
		c0.389-0.083,1-0.139,1.583-0.139c0.556,0,1.222,0.027,1.639,0.139v8.831c0,2.333,0.444,3.472,2.749,3.472
		c2.277,0,2.777-1.139,2.777-3.472v-8.831c0.389-0.111,1.055-0.139,1.611-0.139c0.555,0,1.25,0.056,1.583,0.139V257.833z"/>
	<path fill="#AA9244" d="M96.749,263.359c-0.472,0.083-0.972,0.139-1.472,0.139c-0.417,0-0.833-0.056-1.25-0.139l-0.111-1.277
		h-0.028c-1.027,0.944-2.472,1.555-3.888,1.555c-4.11,0-5.943-3.36-5.943-7.275c0-4.055,1.722-7.748,6.332-7.748
		c1.055,0,2.194,0.222,3.138,0.75v-6.276c0.527-0.084,1.083-0.111,1.611-0.111c0.527,0,1.083,0.027,1.61,0.111V263.359z
		 M93.527,251.89c-0.75-0.416-1.805-0.639-2.638-0.639c-2.888,0-3.527,2.61-3.527,4.999c0,2.11,0.583,4.721,3.193,4.721
		c1.056,0,2.194-0.5,2.972-1.193V251.89z"/>
	<path fill="#AA9244" d="M112.188,257.194h-8.998c0.056,2.499,1.694,3.971,4.221,3.971c1.278,0,2.444-0.166,3.694-0.472
		c0.139,0.722,0.194,1.472,0.194,2.305c-1.472,0.5-2.805,0.639-4.333,0.639c-4.721,0-7.165-2.971-7.165-7.442
		c0-4.055,2.36-7.581,6.72-7.581c4.055,0,5.721,3.166,5.721,7.081C112.244,256.444,112.216,256.861,112.188,257.194z
		 M109.022,254.75c0-1.749-0.361-3.638-2.583-3.638c-2.083,0-3.083,1.694-3.25,3.638H109.022z"/>
	<path fill="#AA9244" d="M127.684,263.359c-0.417,0.111-1.083,0.139-1.527,0.139c-0.472,0-1.222-0.056-1.666-0.139v-8.581
		c0-1.167-0.111-2.11-0.611-2.694c-0.417-0.472-1.083-0.694-1.888-0.694c-1.167,0-2.388,0.473-3.249,1.083v10.887
		c-0.556,0.083-1.25,0.139-1.722,0.139c-0.444,0-1.027-0.027-1.5-0.139v-14.469c0.361-0.083,0.972-0.139,1.361-0.139
		c0.361,0,0.944,0.056,1.305,0.139l0.194,1.306c1.139-0.861,2.972-1.583,4.666-1.583c3.36,0,4.638,2.249,4.638,5.554V263.359z"/>
	<path fill="#AA9244" d="M132.266,251.251h-2.36c-0.111-0.36-0.167-0.694-0.167-1.083s0.055-0.722,0.167-1.083l2.36-0.167v-3.749
		c0.361-0.083,1.083-0.194,1.611-0.194c0.555,0,1.222,0.111,1.611,0.194v3.722h4.11c0.11,0.361,0.166,0.777,0.166,1.166
		c0,0.39-0.056,0.778-0.166,1.194h-4.11v7.359c0,0.667,0.083,1.389,0.416,1.833c0.278,0.389,0.806,0.639,1.639,0.639
		c0.639,0,1.639-0.139,2.361-0.361c0.11,0.5,0.166,1.028,0.166,1.5c0,0.333-0.027,0.611-0.056,0.833
		c-0.666,0.333-1.943,0.583-3.276,0.583c-3.25,0-4.472-1.527-4.472-4.471V251.251z"/>
	<path fill="#AA9244" d="M147.429,263.637c-1.694,0-3.305-0.305-4.499-0.639c-0.084-0.389-0.111-0.777-0.111-1.166
		c0-0.417,0.056-0.916,0.167-1.306c1.139,0.417,2.805,0.694,4.026,0.694c1.61,0,2.86-0.527,2.86-1.972
		c0-1.222-0.916-1.639-2.916-2.277c-2.999-0.972-4.166-2.222-4.166-4.249c0-2.832,2.722-4.109,5.416-4.109
		c1.055,0,2.582,0.194,3.443,0.472c0.111,0.333,0.167,0.722,0.167,1.083c0,0.417-0.084,0.917-0.194,1.306
		c-1.056-0.278-2.111-0.444-3.25-0.444c-1.582,0-2.526,0.472-2.526,1.527c0,1.083,1.166,1.472,2.86,2.083
		c2.443,0.86,4.082,1.638,4.082,4.415C152.788,261.999,150.345,263.637,147.429,263.637z"/>
	<path fill="#AA9244" d="M172.394,263.498c-0.444,0-1.056-0.056-1.416-0.139c-0.084-0.444-0.139-1.027-0.167-1.444h-0.027
		c-0.889,1.056-2.556,1.722-4.166,1.722c-2.777,0-4.805-1.638-4.805-4.443c0-4.221,3.639-5.221,6.859-5.221
		c0.556,0,1.389,0.056,1.806,0.083c0-2.193-0.806-2.943-2.999-2.943c-1.278,0-2.972,0.25-4.11,0.527
		c-0.111-0.333-0.167-0.833-0.167-1.222c0-0.361,0.056-0.833,0.167-1.11c1.389-0.417,3.193-0.694,4.638-0.694
		c3.526,0,5.693,1.472,5.693,5.109v5.749c0,1.499,0.027,2.555,0.056,3.888C173.365,263.471,172.811,263.498,172.394,263.498z
		 M170.505,256.389c-0.416-0.056-1.083-0.083-1.722-0.083c-2.416,0-3.693,1.027-3.693,2.61c0,1.389,0.916,2.194,2.36,2.194
		c1.167,0,2.36-0.528,3.055-1.278V256.389z"/>
	<path fill="#AA9244" d="M184.362,251.168c-2.666,0-4.388,1.416-4.388,5.082c0,2.805,1.249,4.832,4.249,4.832
		c0.889,0,2.166-0.222,3.305-0.556c0.139,0.639,0.194,1.389,0.194,2.083v0.194c-1.167,0.556-2.722,0.833-3.972,0.833
		c-4.693,0-7.081-2.86-7.081-7.304c0-4.388,2.555-7.72,7.137-7.72c1.583,0,2.86,0.305,3.749,0.722
		c0.056,0.389,0.084,0.806,0.084,1.194c0,0.444-0.056,0.86-0.14,1.277C186.611,251.418,185.334,251.168,184.362,251.168z"/>
	<path fill="#AA9244" d="M198.774,251.335c-1.389,0.166-3.166,0.749-4.526,1.527v10.497c-0.417,0.111-1.056,0.139-1.611,0.139
		c-0.555,0-1.249-0.056-1.61-0.139v-14.469c0.361-0.056,0.889-0.139,1.333-0.139c0.417,0,0.972,0.056,1.333,0.139l0.223,1.777h0.083
		c1.166-1.083,3.11-1.944,4.749-2.055c0.055,0.25,0.11,0.777,0.11,1.333C198.857,250.335,198.83,250.945,198.774,251.335z"/>
	<path fill="#AA9244" d="M206.521,263.637c-4.055,0-6.637-2.638-6.637-7.47s2.582-7.554,6.637-7.554s6.638,2.693,6.638,7.525
		S210.576,263.637,206.521,263.637z M206.521,251.085c-2.138,0-3.332,1.416-3.332,5.054c0,3.639,1.194,5.026,3.332,5.026
		c2.139,0,3.333-1.388,3.333-5.026C209.854,252.501,208.66,251.085,206.521,251.085z"/>
	<path fill="#AA9244" d="M220.185,263.637c-1.694,0-3.305-0.305-4.499-0.639c-0.084-0.389-0.111-0.777-0.111-1.166
		c0-0.417,0.056-0.916,0.167-1.306c1.139,0.417,2.805,0.694,4.026,0.694c1.61,0,2.86-0.527,2.86-1.972
		c0-1.222-0.916-1.639-2.916-2.277c-2.999-0.972-4.166-2.222-4.166-4.249c0-2.832,2.722-4.109,5.416-4.109
		c1.055,0,2.582,0.194,3.443,0.472c0.111,0.333,0.167,0.722,0.167,1.083c0,0.417-0.084,0.917-0.194,1.306
		c-1.056-0.278-2.111-0.444-3.25-0.444c-1.582,0-2.526,0.472-2.526,1.527c0,1.083,1.166,1.472,2.86,2.083
		c2.443,0.86,4.082,1.638,4.082,4.415C225.544,261.999,223.101,263.637,220.185,263.637z"/>
	<path fill="#AA9244" d="M232.486,263.637c-1.694,0-3.306-0.305-4.499-0.639c-0.084-0.389-0.111-0.777-0.111-1.166
		c0-0.417,0.056-0.916,0.167-1.306c1.138,0.417,2.805,0.694,4.026,0.694c1.61,0,2.86-0.527,2.86-1.972
		c0-1.222-0.916-1.639-2.916-2.277c-2.999-0.972-4.165-2.222-4.165-4.249c0-2.832,2.721-4.109,5.415-4.109
		c1.055,0,2.583,0.194,3.443,0.472c0.111,0.333,0.167,0.722,0.167,1.083c0,0.417-0.084,0.917-0.194,1.306
		c-1.056-0.278-2.111-0.444-3.25-0.444c-1.583,0-2.526,0.472-2.526,1.527c0,1.083,1.166,1.472,2.86,2.083
		c2.443,0.86,4.082,1.638,4.082,4.415C237.846,261.999,235.401,263.637,232.486,263.637z"/>
</g>
<g>
	<path fill="#AA9244" d="M51.679,290.212c-4.055,0-6.638-2.638-6.638-7.47s2.583-7.554,6.638-7.554c4.054,0,6.637,2.693,6.637,7.525
		S55.733,290.212,51.679,290.212z M51.679,277.66c-2.139,0-3.333,1.416-3.333,5.054c0,3.639,1.194,5.026,3.333,5.026
		c2.138,0,3.333-1.388,3.333-5.026C55.011,279.076,53.817,277.66,51.679,277.66z"/>
	<path fill="#AA9244" d="M73.256,284.408c0,4.138-1.75,5.804-5.999,5.804c-4.249,0-5.943-1.666-5.943-5.804v-8.942
		c0.389-0.083,1-0.139,1.583-0.139c0.556,0,1.222,0.027,1.639,0.139v8.831c0,2.333,0.444,3.472,2.749,3.472
		c2.277,0,2.777-1.139,2.777-3.472v-8.831c0.389-0.111,1.055-0.139,1.611-0.139c0.555,0,1.25,0.056,1.583,0.139V284.408z"/>
	<path fill="#AA9244" d="M84.78,277.91c-1.389,0.166-3.166,0.749-4.527,1.527v10.497c-0.417,0.111-1.055,0.139-1.61,0.139
		c-0.556,0-1.25-0.056-1.611-0.139v-14.469c0.361-0.056,0.889-0.139,1.333-0.139c0.417,0,0.972,0.056,1.333,0.139l0.222,1.777h0.083
		c1.166-1.083,3.11-1.944,4.749-2.055c0.056,0.25,0.111,0.777,0.111,1.333C84.863,276.91,84.835,277.521,84.78,277.91z"/>
	<path fill="#AA9244" d="M101.469,277.743c-2.666,0-4.388,1.416-4.388,5.082c0,2.805,1.25,4.832,4.249,4.832
		c0.889,0,2.166-0.222,3.305-0.556c0.139,0.639,0.194,1.389,0.194,2.083v0.194c-1.167,0.556-2.722,0.833-3.971,0.833
		c-4.693,0-7.082-2.86-7.082-7.304c0-4.388,2.555-7.72,7.137-7.72c1.583,0,2.86,0.306,3.749,0.722
		c0.056,0.389,0.083,0.806,0.083,1.194c0,0.444-0.056,0.86-0.139,1.277C103.718,277.993,102.44,277.743,101.469,277.743z"/>
	<path fill="#AA9244" d="M117.853,290.073c-0.444,0-1.055-0.056-1.417-0.139c-0.083-0.444-0.139-1.027-0.167-1.444h-0.028
		c-0.889,1.056-2.555,1.722-4.166,1.722c-2.777,0-4.804-1.638-4.804-4.443c0-4.221,3.638-5.221,6.859-5.221
		c0.555,0,1.389,0.056,1.805,0.083c0-2.193-0.806-2.943-3-2.943c-1.277,0-2.971,0.25-4.11,0.527
		c-0.111-0.333-0.167-0.833-0.167-1.222c0-0.361,0.055-0.833,0.167-1.11c1.388-0.417,3.193-0.694,4.638-0.694
		c3.527,0,5.693,1.472,5.693,5.109v5.749c0,1.499,0.028,2.555,0.056,3.888C118.825,290.046,118.27,290.073,117.853,290.073z
		 M115.965,282.964c-0.417-0.056-1.083-0.083-1.722-0.083c-2.416,0-3.693,1.027-3.693,2.61c0,1.389,0.917,2.194,2.36,2.194
		c1.167,0,2.361-0.528,3.055-1.278V282.964z"/>
	<path fill="#AA9244" d="M144.096,289.935c-0.416,0.111-1.083,0.139-1.527,0.139c-0.472,0-1.249-0.056-1.693-0.139v-8.581
		c0-1.083-0.084-1.889-0.417-2.444c-0.389-0.639-1.139-0.944-2.11-0.944c-1.111,0-2.5,0.528-3.36,1.139
		c0.111,0.584,0.111,1.111,0.111,1.75v9.081c-0.417,0.111-1.083,0.139-1.528,0.139c-0.472,0-1.222-0.056-1.667-0.139v-8.581
		c0-1.194-0.111-2.11-0.639-2.694c-0.417-0.472-1.055-0.694-1.833-0.694c-1.056,0-2.333,0.444-3.305,1.084v10.886
		c-0.555,0.083-1.25,0.139-1.722,0.139c-0.444,0-1.027-0.027-1.5-0.139v-14.469c0.361-0.083,0.972-0.139,1.361-0.139
		c0.361,0,0.944,0.056,1.305,0.139l0.194,1.306c1.194-0.944,3-1.583,4.555-1.583c1.805,0,3.138,0.722,3.888,1.749
		c1.388-1,3.305-1.749,5.054-1.749c1.472,0,2.916,0.5,3.722,1.416c0.944,1.083,1.11,2.527,1.11,4.249V289.935z"/>
	<path fill="#AA9244" d="M153.704,289.935c-1,0-1.889-0.111-2.61-0.333v6.859c-0.473,0.083-1.139,0.139-1.667,0.139
		c-0.583,0-1.083-0.056-1.555-0.139v-20.995c0.223-0.027,0.806-0.139,1.36-0.139c0.611,0,1.139,0.111,1.333,0.139l0.167,1.306h0.028
		c0.889-0.834,2.499-1.583,4.165-1.583c3.527,0,5.638,2.805,5.638,6.915C160.563,286.963,158.147,289.935,153.704,289.935z
		 M154.26,277.826c-1.25,0-2.389,0.528-3.166,1.25v8.025c0.583,0.194,1.444,0.334,2.222,0.334c2.86,0,3.943-2.056,3.943-5.166
		C157.259,279.409,156.12,277.826,154.26,277.826z"/>
	<path fill="#AA9244" d="M175.503,284.408c0,4.138-1.749,5.804-5.998,5.804s-5.943-1.666-5.943-5.804v-8.942
		c0.389-0.083,1-0.139,1.583-0.139c0.556,0,1.222,0.027,1.639,0.139v8.831c0,2.333,0.444,3.472,2.749,3.472
		c2.277,0,2.777-1.139,2.777-3.472v-8.831c0.389-0.111,1.056-0.139,1.61-0.139c0.556,0,1.25,0.056,1.583,0.139V284.408z"/>
	<path fill="#AA9244" d="M183.251,290.212c-1.694,0-3.305-0.305-4.499-0.639c-0.084-0.389-0.111-0.777-0.111-1.166
		c0-0.417,0.056-0.917,0.167-1.306c1.139,0.417,2.805,0.694,4.026,0.694c1.61,0,2.86-0.527,2.86-1.972
		c0-1.222-0.916-1.639-2.916-2.277c-2.999-0.972-4.166-2.222-4.166-4.249c0-2.832,2.722-4.109,5.416-4.109
		c1.055,0,2.582,0.194,3.443,0.472c0.111,0.333,0.167,0.723,0.167,1.083c0,0.417-0.084,0.917-0.194,1.306
		c-1.056-0.278-2.111-0.444-3.25-0.444c-1.582,0-2.526,0.472-2.526,1.527c0,1.083,1.166,1.472,2.86,2.083
		c2.443,0.86,4.082,1.638,4.082,4.415C188.61,288.574,186.167,290.212,183.251,290.212z"/>
	<path fill="#AA9244" d="M203.189,283.77h-8.998c0.056,2.499,1.694,3.971,4.222,3.971c1.277,0,2.443-0.166,3.693-0.472
		c0.139,0.722,0.194,1.472,0.194,2.305c-1.472,0.5-2.805,0.639-4.332,0.639c-4.722,0-7.165-2.971-7.165-7.442
		c0-4.055,2.36-7.581,6.721-7.581c4.055,0,5.721,3.166,5.721,7.081C203.245,283.02,203.217,283.437,203.189,283.77z
		 M200.023,281.325c0-1.749-0.361-3.638-2.583-3.638c-2.082,0-3.082,1.694-3.249,3.638H200.023z"/>
	<path fill="#AA9244" d="M210.466,290.212c-1.694,0-3.305-0.305-4.499-0.639c-0.084-0.389-0.111-0.777-0.111-1.166
		c0-0.417,0.056-0.917,0.167-1.306c1.139,0.417,2.805,0.694,4.026,0.694c1.61,0,2.86-0.527,2.86-1.972
		c0-1.222-0.916-1.639-2.916-2.277c-2.999-0.972-4.166-2.222-4.166-4.249c0-2.832,2.722-4.109,5.416-4.109
		c1.055,0,2.582,0.194,3.443,0.472c0.111,0.333,0.167,0.723,0.167,1.083c0,0.417-0.084,0.917-0.194,1.306
		c-1.056-0.278-2.111-0.444-3.25-0.444c-1.582,0-2.526,0.472-2.526,1.527c0,1.083,1.166,1.472,2.86,2.083
		c2.443,0.86,4.082,1.638,4.082,4.415C215.825,288.574,213.382,290.212,210.466,290.212z"/>
</g>
<path fill="#AA9244" d="M160.221,32.227c4.352,0.011,7.875,3.618,7.879,8.085c-0.004,4.463-3.527,8.077-7.879,8.083
	c-4.353-0.005-7.883-3.62-7.888-8.083C152.338,35.844,155.868,32.237,160.221,32.227 M160.221,53.786
	c7.253-0.004,13.134-6.03,13.134-13.474c0-7.447-5.881-13.475-13.134-13.475c-7.261,0-13.145,6.028-13.145,13.475
	C147.076,47.756,152.96,53.782,160.221,53.786 M175.987,101.794V72.651c0-1.491-1.179-2.693-2.627-2.693
	c-1.451,0-2.63,1.202-2.628,2.693v67.368h-7.888V99.6c0.003-1.495-1.175-2.697-2.629-2.697c-1.452,0-2.625,1.203-2.625,2.697v40.419
	h-7.889V72.651c0-1.491-1.174-2.693-2.626-2.693c-1.45,0-2.626,1.202-2.626,2.693l-0.002,29.144
	c-3.054-1.115-5.254-4.071-5.26-7.584V67.259c0-2.901,1.819-5.507,4.492-6.424l5.22-1.366l9.458,9.696
	c0.495,0.507,1.157,0.792,1.86,0.792c0.701,0,1.36-0.284,1.859-0.792l9.457-9.696l5.222,1.366c2.664,0.917,4.494,3.523,4.489,6.424
	V94.21C181.239,97.721,179.038,100.676,175.987,101.794 M133.937,94.21c-0.012,3.513-2.208,6.469-5.263,7.584V72.651
	c0-1.491-1.176-2.693-2.627-2.693c-1.452,0-2.625,1.202-2.625,2.693v67.368h-7.889V99.6c0-1.495-1.174-2.697-2.625-2.697
	c-1.454,0-2.632,1.203-2.63,2.697v40.419h-7.892l0.008-67.368c0-1.491-1.182-2.693-2.633-2.693c-1.45,0-2.625,1.202-2.625,2.693
	v29.144c-3.055-1.12-5.251-4.073-5.261-7.584V67.259c0-2.901,1.823-5.507,4.494-6.424l5.218-1.366l9.458,9.696
	c0.494,0.507,1.157,0.792,1.86,0.792c0.703,0,1.364-0.284,1.859-0.792l9.458-9.696l5.218,1.366c2.67,0.917,4.495,3.523,4.495,6.424
	V94.21z M86.622,94.21c-0.007,3.511-2.205,6.466-5.258,7.584V72.651c0-1.491-1.179-2.693-2.626-2.693
	c-1.45,0-2.629,1.202-2.629,2.693v67.368h-7.888V99.6c0-1.495-1.175-2.697-2.629-2.697c-1.451,0-2.627,1.203-2.627,2.697v40.419
	h-7.887V72.651c0-1.491-1.173-2.693-2.625-2.693c-1.451,0-2.627,1.202-2.627,2.693l-0.002,29.144
	c-3.052-1.12-5.252-4.073-5.26-7.584V67.259c0-2.896,1.818-5.496,4.475-6.419l5.238-1.371l9.457,9.696
	c0.495,0.507,1.156,0.792,1.859,0.792c0.703,0,1.364-0.284,1.859-0.792l9.457-9.696l5.221,1.366
	c2.671,0.917,4.493,3.523,4.493,6.424V94.21z M178.364,55.704l-0.17-0.053l-6.814-1.782c-0.901-0.234-1.851,0.03-2.51,0.705
	l-8.651,8.872l-8.66-8.872c-0.654-0.675-1.604-0.939-2.504-0.705l-6.815,1.782l-0.174,0.053c-2.232,0.758-4.104,2.173-5.504,3.965
	c-1.399-1.792-3.275-3.207-5.51-3.965l-0.17-0.053l-6.815-1.782c-0.898-0.234-1.847,0.03-2.508,0.705l-8.652,8.872l-8.652-8.872
	c-0.663-0.675-1.611-0.939-2.509-0.705l-6.815,1.782l-0.171,0.053c-2.237,0.758-4.11,2.173-5.509,3.965
	c-1.399-1.792-3.274-3.207-5.505-3.965l-0.178-0.053l-6.812-1.782c-0.9-0.234-1.85,0.03-2.506,0.705l-8.657,8.872l-8.652-8.872
	c-0.659-0.675-1.608-0.939-2.509-0.705l-6.809,1.782l-0.177,0.053c-4.858,1.65-8.127,6.315-8.134,11.555V94.21
	c0,6.518,4.512,11.95,10.513,13.199v35.305c0,0.722,0.275,1.393,0.773,1.901c0.495,0.511,1.152,0.79,1.856,0.79h26.285
	c0.701,0,1.363-0.279,1.857-0.79c0.498-0.509,0.769-1.185,0.769-1.901v-35.305c3.226-0.673,5.991-2.581,7.886-5.191
	c1.896,2.61,4.659,4.518,7.887,5.191v35.305c0,0.722,0.271,1.393,0.768,1.901c0.495,0.511,1.157,0.79,1.857,0.79h26.286
	c0.7,0,1.362-0.279,1.856-0.79c0.499-0.509,0.771-1.185,0.771-1.901v-35.305c3.226-0.671,5.991-2.581,7.89-5.191
	c1.896,2.61,4.656,4.521,7.885,5.191v35.305c0,0.722,0.273,1.393,0.771,1.901c0.496,0.511,1.151,0.79,1.856,0.79h26.284
	c0.703,0,1.363-0.279,1.857-0.79c0.499-0.509,0.77-1.185,0.77-1.901v-35.305c6-1.249,10.513-6.681,10.513-13.199V67.259
	C186.5,62.019,183.227,57.354,178.364,55.704 M136.562,10.668c4.353,0.012,7.878,3.62,7.885,8.083
	c-0.007,4.468-3.532,8.079-7.885,8.084c-4.355-0.005-7.881-3.616-7.885-8.084C128.681,14.288,132.206,10.68,136.562,10.668
	 M136.562,32.227c7.258-0.004,13.141-6.028,13.141-13.476s-5.883-13.473-13.141-13.473c-7.257,0-13.142,6.025-13.142,13.473
	S129.305,32.222,136.562,32.227 M89.247,10.668c4.354,0.012,7.879,3.62,7.885,8.083c-0.005,4.468-3.531,8.079-7.885,8.084
	c-4.353-0.005-7.874-3.616-7.883-8.084C81.374,14.288,84.894,10.68,89.247,10.668 M89.247,32.227
	c7.26-0.004,13.142-6.028,13.147-13.476c-0.005-7.447-5.888-13.473-13.147-13.473c-7.259,0-13.142,6.025-13.142,13.473
	S81.988,32.222,89.247,32.227 M65.594,32.227c4.354,0.011,7.878,3.618,7.883,8.085c-0.005,4.463-3.528,8.077-7.883,8.083
	c-4.351-0.005-7.876-3.62-7.887-8.083C57.718,35.844,61.244,32.237,65.594,32.227 M65.594,53.786
	c7.254-0.004,13.139-6.03,13.144-13.474c-0.004-7.447-5.89-13.475-13.144-13.475c-7.261,0-13.143,6.028-13.143,13.475
	C52.451,47.756,58.333,53.782,65.594,53.786 M112.908,32.227c4.351,0.011,7.876,3.618,7.881,8.085
	c-0.005,4.463-3.53,8.077-7.881,8.083c-4.354-0.005-7.877-3.62-7.886-8.083C105.031,35.844,108.553,32.237,112.908,32.227
	 M112.908,53.786c7.254-0.004,13.137-6.03,13.137-13.474c0-7.447-5.883-13.475-13.137-13.475c-7.262,0-13.145,6.028-13.145,13.475
	C99.763,47.756,105.646,53.782,112.908,53.786"/>
</svg>
