<?xml version="1.0" encoding="utf-8"?>
<!-- Generator: Adobe Illustrator 16.0.0, SVG Export Plug-In . SVG Version: 6.00 Build 0)  -->
<!DOCTYPE svg PUBLIC "-//W3C//DTD SVG 1.1//EN" "http://www.w3.org/Graphics/SVG/1.1/DTD/svg11.dtd">
<svg version="1.1" id="Layer_1" xmlns="http://www.w3.org/2000/svg" xmlns:xlink="http://www.w3.org/1999/xlink" x="0px" y="0px"
	 width="300px" height="300px" viewBox="0 0 300 300" enable-background="new 0 0 300 300" xml:space="preserve">
<path fill="#252525" stroke="#AB9245" stroke-miterlimit="10" d="M11.786,154.413L11.786,154.413c-0.993,0-1.807-0.821-1.807-1.821
	v-20.383c0-1.002,0.813-1.822,1.807-1.822c0.994,0,1.807,0.82,1.807,1.822v20.383C13.593,153.592,12.78,154.413,11.786,154.413"/>
<path fill="#252525" stroke="#AB9245" stroke-miterlimit="10" d="M27.912,154.413L27.912,154.413c-0.994,0-1.807-0.821-1.807-1.821
	v-20.383c0-1.002,0.813-1.822,1.807-1.822s1.807,0.82,1.807,1.822v20.383C29.719,153.592,28.906,154.413,27.912,154.413"/>
<path fill="#252525" stroke="#AB9245" stroke-miterlimit="10" d="M44.037,154.413L44.037,154.413c-0.993,0-1.807-0.821-1.807-1.821
	v-20.383c0-1.002,0.813-1.822,1.807-1.822c0.994,0,1.807,0.82,1.807,1.822v20.383C45.844,153.592,45.031,154.413,44.037,154.413"/>
<path fill="#252525" stroke="#AB9245" stroke-miterlimit="10" d="M2.207,164.62L2.207,164.62c0-1.002,0.813-1.821,1.807-1.821
	h47.797c0.994,0,1.807,0.819,1.807,1.821s-0.813,1.82-1.807,1.82H4.013C3.02,166.44,2.207,165.622,2.207,164.62"/>
<path fill="#252525" stroke="#AB9245" stroke-miterlimit="10" d="M27.912,112.031l18.022,12.342H9.891L27.912,112.031z
	 M53.618,126.193c0-0.028-0.003-0.057-0.004-0.087c-0.001-0.028-0.001-0.055-0.005-0.083c-0.005-0.046-0.011-0.09-0.018-0.134
	c-0.002-0.014-0.004-0.026-0.006-0.04c-0.008-0.043-0.019-0.085-0.03-0.127c-0.005-0.016-0.008-0.031-0.013-0.046
	c-0.011-0.035-0.022-0.069-0.035-0.103c-0.008-0.024-0.016-0.048-0.025-0.071c-0.009-0.024-0.021-0.045-0.031-0.067
	c-0.016-0.035-0.031-0.068-0.049-0.102c-0.005-0.01-0.01-0.019-0.016-0.027c-0.132-0.24-0.318-0.454-0.558-0.619l-23.689-16.222
	c-0.373-0.254-0.809-0.348-1.227-0.298c-0.418-0.05-0.853,0.044-1.228,0.298L2.997,124.688c-0.24,0.165-0.426,0.379-0.559,0.619
	c-0.005,0.009-0.01,0.018-0.016,0.027c-0.018,0.033-0.033,0.067-0.048,0.102c-0.01,0.022-0.021,0.043-0.03,0.067
	c-0.01,0.022-0.018,0.046-0.026,0.071c-0.012,0.034-0.024,0.067-0.034,0.103c-0.005,0.015-0.008,0.03-0.013,0.046
	c-0.011,0.042-0.021,0.083-0.03,0.127c-0.003,0.013-0.004,0.024-0.005,0.038c-0.008,0.046-0.016,0.09-0.02,0.136
	c-0.003,0.027-0.003,0.055-0.004,0.083c-0.002,0.031-0.005,0.059-0.005,0.087c0,0.002,0,0.004,0,0.004c0,0.354,0.1,0.71,0.311,1.022
	c0.233,0.346,0.564,0.583,0.932,0.702c0.013,0.004,0.025,0.01,0.037,0.015c0.035,0.01,0.071,0.018,0.106,0.027
	c0.023,0.006,0.047,0.013,0.071,0.018c0.03,0.005,0.061,0.008,0.089,0.013s0.058,0.011,0.088,0.014
	c0.039,0.004,0.08,0.004,0.121,0.006c0.018,0,0.034,0.002,0.052,0.002h47.797c0.017,0,0.035-0.002,0.053-0.002
	c0.04-0.002,0.081-0.002,0.121-0.006c0.029-0.003,0.058-0.009,0.086-0.014c0.03-0.004,0.061-0.008,0.09-0.013
	c0.024-0.005,0.047-0.012,0.07-0.018c0.036-0.009,0.071-0.018,0.107-0.027c0.013-0.005,0.025-0.01,0.037-0.015
	c0.366-0.119,0.699-0.356,0.932-0.702c0.211-0.312,0.31-0.668,0.31-1.022C53.618,126.197,53.618,126.195,53.618,126.193"/>
<path fill="#252525" stroke="#AB9245" stroke-miterlimit="10" d="M6.35,158.605L6.35,158.605c0-1.004,0.813-1.821,1.807-1.821h39.51
	c0.993,0,1.806,0.817,1.806,1.821c0,1.002-0.813,1.821-1.806,1.821H8.157C7.163,160.427,6.35,159.607,6.35,158.605"/>
<g>
	<path fill="#AB9245" d="M88.235,132.351h-4.189v6.951c-0.571,0.095-1.904,0.238-3.38,0.238c-1.381,0-2.476-0.095-3.237-0.238
		v-6.951H63.527c-0.19-0.619-0.333-1.714-0.333-2.571c0-1,0.143-1.904,0.333-2.571l9.759-20.09c0.857-0.143,2.285-0.238,3.333-0.238
		c1.476,0,3.047,0.143,3.761,0.238l-9.759,19.614h6.808v-6.57c0.856-0.143,2.189-0.238,3.285-0.238c1.143,0,2.523,0.096,3.333,0.238
		v6.57h4.189c0.238,0.762,0.333,1.809,0.333,2.809C88.568,130.542,88.426,131.827,88.235,132.351z"/>
</g>
<g>
	<path fill="#AB9245" d="M101.081,114.171c-2.065,0-3.399,1.097-3.399,3.937c0,2.173,0.968,3.744,3.292,3.744
		c0.688,0,1.678-0.172,2.561-0.43c0.107,0.495,0.15,1.076,0.15,1.613v0.151c-0.903,0.43-2.108,0.646-3.077,0.646
		c-3.636,0-5.486-2.216-5.486-5.659c0-3.399,1.979-5.981,5.529-5.981c1.227,0,2.216,0.237,2.905,0.559
		c0.043,0.301,0.064,0.624,0.064,0.925c0,0.344-0.043,0.667-0.107,0.99C102.823,114.365,101.833,114.171,101.081,114.171z"/>
	<path fill="#AB9245" d="M113.127,123.724c-0.344,0-0.817-0.043-1.097-0.107c-0.064-0.344-0.107-0.796-0.129-1.119h-0.021
		c-0.688,0.817-1.979,1.334-3.228,1.334c-2.151,0-3.722-1.27-3.722-3.442c0-3.271,2.818-4.045,5.314-4.045
		c0.43,0,1.076,0.043,1.398,0.064c0-1.7-0.624-2.281-2.324-2.281c-0.99,0-2.302,0.194-3.184,0.409
		c-0.086-0.258-0.129-0.646-0.129-0.947c0-0.28,0.043-0.646,0.129-0.861c1.076-0.323,2.474-0.538,3.593-0.538
		c2.732,0,4.41,1.14,4.41,3.958v4.454c0,1.162,0.021,1.979,0.043,3.012C113.88,123.702,113.45,123.724,113.127,123.724z
		 M111.664,118.216c-0.323-0.043-0.839-0.064-1.334-0.064c-1.872,0-2.861,0.796-2.861,2.022c0,1.076,0.71,1.7,1.829,1.7
		c0.904,0,1.829-0.409,2.367-0.99V118.216z"/>
	<path fill="#AB9245" d="M132.855,123.616c-0.323,0.086-0.839,0.107-1.184,0.107c-0.366,0-0.968-0.043-1.312-0.107v-6.648
		c0-0.839-0.064-1.463-0.323-1.894c-0.301-0.495-0.882-0.731-1.635-0.731c-0.861,0-1.937,0.409-2.604,0.882
		c0.086,0.452,0.086,0.86,0.086,1.355v7.035c-0.322,0.086-0.839,0.107-1.183,0.107c-0.366,0-0.947-0.043-1.291-0.107v-6.648
		c0-0.925-0.086-1.635-0.495-2.087c-0.323-0.366-0.818-0.538-1.42-0.538c-0.818,0-1.808,0.344-2.561,0.839v8.434
		c-0.43,0.064-0.968,0.107-1.334,0.107c-0.344,0-0.796-0.021-1.162-0.107v-11.209c0.28-0.064,0.753-0.107,1.054-0.107
		c0.28,0,0.731,0.043,1.011,0.107l0.15,1.011c0.925-0.731,2.324-1.226,3.529-1.226c1.398,0,2.431,0.559,3.012,1.355
		c1.076-0.775,2.561-1.355,3.916-1.355c1.14,0,2.259,0.387,2.883,1.097c0.731,0.839,0.861,1.958,0.861,3.292V123.616z"/>
	<path fill="#AB9245" d="M139.672,123.616c-0.774,0-1.463-0.086-2.022-0.258v5.314c-0.366,0.064-0.882,0.107-1.291,0.107
		c-0.452,0-0.839-0.043-1.205-0.107v-16.266c0.172-0.021,0.624-0.107,1.054-0.107c0.473,0,0.882,0.086,1.033,0.107l0.129,1.011
		h0.022c0.688-0.646,1.936-1.226,3.227-1.226c2.732,0,4.368,2.173,4.368,5.357C144.986,121.314,143.114,123.616,139.672,123.616z
		 M140.102,114.236c-0.968,0-1.85,0.409-2.453,0.968v6.218c0.452,0.15,1.119,0.258,1.721,0.258c2.216,0,3.055-1.592,3.055-4.001
		C142.426,115.462,141.544,114.236,140.102,114.236z"/>
	<path fill="#AB9245" d="M155.936,119.335c0,3.206-1.355,4.497-4.647,4.497s-4.604-1.291-4.604-4.497v-6.928
		c0.301-0.064,0.775-0.107,1.226-0.107c0.431,0,0.947,0.021,1.27,0.107v6.842c0,1.808,0.345,2.689,2.13,2.689
		c1.765,0,2.151-0.882,2.151-2.689v-6.842c0.302-0.086,0.817-0.107,1.248-0.107s0.969,0.043,1.227,0.107V119.335z"/>
	<path fill="#AB9245" d="M161.312,123.832c-1.312,0-2.56-0.237-3.485-0.495c-0.064-0.301-0.086-0.603-0.086-0.903
		c0-0.323,0.043-0.71,0.129-1.011c0.883,0.323,2.174,0.538,3.12,0.538c1.248,0,2.216-0.409,2.216-1.527
		c0-0.947-0.71-1.27-2.259-1.764c-2.323-0.753-3.228-1.721-3.228-3.292c0-2.194,2.108-3.184,4.195-3.184
		c0.818,0,2.001,0.15,2.668,0.366c0.086,0.258,0.129,0.56,0.129,0.839c0,0.323-0.064,0.71-0.15,1.011
		c-0.817-0.215-1.635-0.344-2.517-0.344c-1.227,0-1.958,0.366-1.958,1.184c0,0.839,0.903,1.14,2.216,1.613
		c1.894,0.667,3.163,1.27,3.163,3.421C165.465,122.562,163.571,123.832,161.312,123.832z"/>
	<path fill="#AB9245" d="M176.135,118.84h-6.971c0.043,1.937,1.312,3.077,3.271,3.077c0.989,0,1.893-0.129,2.861-0.366
		c0.107,0.56,0.15,1.14,0.15,1.786c-1.141,0.387-2.173,0.495-3.356,0.495c-3.657,0-5.551-2.302-5.551-5.766
		c0-3.141,1.829-5.874,5.207-5.874c3.141,0,4.432,2.453,4.432,5.486C176.178,118.259,176.156,118.582,176.135,118.84z
		 M173.682,116.947c0-1.355-0.279-2.819-2-2.819c-1.614,0-2.389,1.312-2.518,2.819H173.682z"/>
	<path fill="#AB9245" d="M181.146,123.832c-1.312,0-2.56-0.237-3.485-0.495c-0.064-0.301-0.086-0.603-0.086-0.903
		c0-0.323,0.043-0.71,0.129-1.011c0.883,0.323,2.174,0.538,3.12,0.538c1.248,0,2.216-0.409,2.216-1.527
		c0-0.947-0.71-1.27-2.259-1.764c-2.323-0.753-3.228-1.721-3.228-3.292c0-2.194,2.108-3.184,4.195-3.184
		c0.818,0,2.001,0.15,2.668,0.366c0.086,0.258,0.129,0.56,0.129,0.839c0,0.323-0.064,0.71-0.15,1.011
		c-0.817-0.215-1.635-0.344-2.517-0.344c-1.227,0-1.958,0.366-1.958,1.184c0,0.839,0.903,1.14,2.216,1.613
		c1.894,0.667,3.163,1.27,3.163,3.421C185.299,122.562,183.405,123.832,181.146,123.832z"/>
</g>
<g>
	<path fill="#AB9245" d="M99.794,138.962c-0.206,0-0.49-0.026-0.657-0.064c-0.039-0.206-0.064-0.477-0.077-0.669h-0.013
		c-0.412,0.489-1.185,0.798-1.932,0.798c-1.288,0-2.228-0.76-2.228-2.061c0-1.958,1.687-2.421,3.181-2.421
		c0.258,0,0.644,0.026,0.837,0.039c0-1.017-0.374-1.365-1.391-1.365c-0.592,0-1.378,0.116-1.906,0.245
		c-0.052-0.155-0.077-0.386-0.077-0.567c0-0.167,0.025-0.386,0.077-0.515c0.644-0.193,1.481-0.322,2.15-0.322
		c1.636,0,2.64,0.683,2.64,2.37v2.666c0,0.696,0.013,1.185,0.026,1.803C100.245,138.949,99.987,138.962,99.794,138.962z
		 M98.918,135.666c-0.193-0.026-0.502-0.039-0.798-0.039c-1.121,0-1.713,0.477-1.713,1.21c0,0.644,0.425,1.018,1.095,1.018
		c0.541,0,1.095-0.245,1.417-0.593V135.666z"/>
	<path fill="#AB9245" d="M105.346,133.244c-1.236,0-2.035,0.657-2.035,2.357c0,1.301,0.58,2.241,1.97,2.241
		c0.412,0,1.005-0.103,1.533-0.257c0.064,0.296,0.09,0.644,0.09,0.966v0.09c-0.541,0.257-1.262,0.386-1.842,0.386
		c-2.176,0-3.284-1.327-3.284-3.387c0-2.035,1.185-3.58,3.31-3.58c0.734,0,1.327,0.142,1.739,0.335
		c0.025,0.18,0.039,0.373,0.039,0.554c0,0.206-0.026,0.399-0.064,0.592C106.389,133.36,105.797,133.244,105.346,133.244z"/>
	<path fill="#AB9245" d="M112.044,133.322c-0.644,0.077-1.468,0.348-2.099,0.708v4.868c-0.193,0.051-0.49,0.064-0.747,0.064
		c-0.258,0-0.58-0.026-0.747-0.064v-6.709c0.167-0.026,0.412-0.064,0.618-0.064c0.193,0,0.451,0.025,0.618,0.064l0.103,0.824h0.039
		c0.541-0.502,1.442-0.902,2.202-0.953c0.026,0.116,0.052,0.36,0.052,0.618C112.083,132.858,112.07,133.141,112.044,133.322z"/>
	<path fill="#AB9245" d="M115.638,139.027c-1.88,0-3.078-1.224-3.078-3.464s1.198-3.503,3.078-3.503s3.078,1.249,3.078,3.49
		C118.716,137.791,117.518,139.027,115.638,139.027z M115.638,133.206c-0.992,0-1.545,0.657-1.545,2.344
		c0,1.687,0.554,2.331,1.545,2.331s1.545-0.644,1.545-2.331C117.183,133.862,116.629,133.206,115.638,133.206z"/>
	<path fill="#AB9245" d="M121.976,139.027c-0.786,0-1.533-0.142-2.086-0.296c-0.039-0.18-0.052-0.36-0.052-0.541
		c0-0.193,0.026-0.425,0.078-0.605c0.528,0.193,1.301,0.322,1.867,0.322c0.747,0,1.327-0.245,1.327-0.914
		c0-0.567-0.425-0.76-1.353-1.056c-1.391-0.451-1.932-1.03-1.932-1.971c0-1.313,1.262-1.906,2.511-1.906
		c0.489,0,1.198,0.09,1.597,0.219c0.051,0.155,0.077,0.335,0.077,0.502c0,0.193-0.039,0.425-0.09,0.605
		c-0.489-0.128-0.979-0.206-1.507-0.206c-0.734,0-1.172,0.219-1.172,0.708c0,0.502,0.541,0.683,1.327,0.966
		c1.133,0.399,1.893,0.76,1.893,2.048C124.461,138.267,123.328,139.027,121.976,139.027z"/>
	<path fill="#AB9245" d="M127.682,139.027c-0.786,0-1.533-0.142-2.086-0.296c-0.039-0.18-0.052-0.36-0.052-0.541
		c0-0.193,0.026-0.425,0.078-0.605c0.528,0.193,1.3,0.322,1.867,0.322c0.747,0,1.327-0.245,1.327-0.914
		c0-0.567-0.425-0.76-1.353-1.056c-1.391-0.451-1.932-1.03-1.932-1.971c0-1.313,1.262-1.906,2.511-1.906
		c0.489,0,1.198,0.09,1.597,0.219c0.051,0.155,0.077,0.335,0.077,0.502c0,0.193-0.039,0.425-0.09,0.605
		c-0.489-0.128-0.979-0.206-1.507-0.206c-0.734,0-1.172,0.219-1.172,0.708c0,0.502,0.541,0.683,1.327,0.966
		c1.133,0.399,1.893,0.76,1.893,2.048C130.167,138.267,129.034,139.027,127.682,139.027z"/>
	<path fill="#AB9245" d="M141.528,138.898c-0.116,0.039-0.477,0.051-0.67,0.051c-0.18,0-0.477-0.013-0.644-0.051l-4.043-6.104v6.104
		c-0.116,0.039-0.49,0.064-0.734,0.064c-0.219,0-0.515-0.026-0.695-0.064v-8.706c0.155-0.026,0.515-0.052,0.695-0.052
		c0.206,0,0.554,0.013,0.708,0.052l3.954,5.962v-5.962c0.193-0.039,0.502-0.064,0.708-0.064s0.541,0.025,0.721,0.064V138.898z"/>
	<path fill="#AB9245" d="M146.127,139.027c-1.88,0-3.078-1.224-3.078-3.464s1.197-3.503,3.078-3.503s3.078,1.249,3.078,3.49
		C149.205,137.791,148.008,139.027,146.127,139.027z M146.127,133.206c-0.992,0-1.545,0.657-1.545,2.344
		c0,1.687,0.554,2.331,1.545,2.331s1.545-0.644,1.545-2.331C147.673,133.862,147.119,133.206,146.127,133.206z"/>
	<path fill="#AB9245" d="M154.216,133.322c-0.644,0.077-1.468,0.348-2.099,0.708v4.868c-0.193,0.051-0.489,0.064-0.747,0.064
		s-0.58-0.026-0.747-0.064v-6.709c0.167-0.026,0.412-0.064,0.618-0.064c0.193,0,0.451,0.025,0.618,0.064l0.104,0.824h0.038
		c0.541-0.502,1.442-0.902,2.202-0.953c0.025,0.116,0.052,0.36,0.052,0.618C154.255,132.858,154.242,133.141,154.216,133.322z"/>
	<path fill="#AB9245" d="M156.304,133.283h-1.095c-0.051-0.167-0.077-0.322-0.077-0.502s0.026-0.335,0.077-0.502l1.095-0.077v-1.739
		c0.168-0.039,0.503-0.09,0.747-0.09c0.258,0,0.567,0.051,0.747,0.09v1.726h1.906c0.052,0.167,0.077,0.36,0.077,0.541
		c0,0.181-0.025,0.361-0.077,0.554h-1.906v3.413c0,0.309,0.039,0.644,0.193,0.85c0.129,0.18,0.373,0.296,0.76,0.296
		c0.296,0,0.76-0.064,1.095-0.167c0.052,0.232,0.077,0.477,0.077,0.696c0,0.154-0.013,0.283-0.025,0.386
		c-0.31,0.154-0.901,0.271-1.52,0.271c-1.507,0-2.074-0.708-2.074-2.074V133.283z"/>
	<path fill="#AB9245" d="M167.007,134.635v4.263c-0.193,0.051-0.502,0.064-0.708,0.064c-0.219,0-0.566-0.026-0.772-0.064v-3.979
		c0-0.541-0.052-0.979-0.284-1.249c-0.192-0.219-0.502-0.322-0.875-0.322c-0.541,0-1.107,0.219-1.507,0.502v5.048
		c-0.258,0.039-0.58,0.064-0.799,0.064c-0.206,0-0.477-0.013-0.695-0.064v-9.401c0.181-0.039,0.477-0.051,0.734-0.051
		c0.257,0,0.566,0.013,0.76,0.051v3.194c0.489-0.335,1.288-0.631,1.996-0.631C166.414,132.06,167.007,133.103,167.007,134.635z"/>
	<path fill="#AB9245" d="M174.13,136.039h-4.172c0.025,1.159,0.785,1.841,1.957,1.841c0.593,0,1.134-0.077,1.713-0.219
		c0.064,0.335,0.09,0.683,0.09,1.069c-0.683,0.232-1.301,0.296-2.009,0.296c-2.189,0-3.322-1.378-3.322-3.452
		c0-1.88,1.095-3.516,3.116-3.516c1.88,0,2.653,1.468,2.653,3.284C174.156,135.691,174.144,135.884,174.13,136.039z
		 M172.662,134.906c0-0.812-0.167-1.687-1.197-1.687c-0.967,0-1.43,0.785-1.507,1.687H172.662z"/>
	<path fill="#AB9245" d="M179.27,133.322c-0.644,0.077-1.468,0.348-2.099,0.708v4.868c-0.193,0.051-0.489,0.064-0.747,0.064
		s-0.58-0.026-0.747-0.064v-6.709c0.167-0.026,0.412-0.064,0.618-0.064c0.193,0,0.451,0.025,0.618,0.064l0.103,0.824h0.039
		c0.541-0.502,1.442-0.902,2.202-0.953c0.026,0.116,0.052,0.36,0.052,0.618C179.309,132.858,179.296,133.141,179.27,133.322z"/>
	<path fill="#AB9245" d="M186.354,138.898c-0.193,0.051-0.502,0.064-0.708,0.064c-0.219,0-0.566-0.026-0.772-0.064v-3.979
		c0-0.541-0.052-0.979-0.284-1.249c-0.192-0.219-0.502-0.322-0.875-0.322c-0.541,0-1.107,0.219-1.507,0.502v5.048
		c-0.258,0.039-0.58,0.064-0.799,0.064c-0.206,0-0.477-0.013-0.695-0.064v-6.709c0.167-0.039,0.451-0.064,0.631-0.064
		c0.168,0,0.438,0.025,0.605,0.064l0.09,0.605c0.528-0.399,1.378-0.734,2.164-0.734c1.558,0,2.15,1.043,2.15,2.576V138.898z"/>
	<path fill="#AB9245" d="M192.886,138.898c-0.22,0.039-0.477,0.064-0.773,0.064c-0.283,0-0.554-0.026-0.785-0.064v-8.706
		c0.231-0.039,0.515-0.064,0.785-0.064c0.284,0,0.554,0.025,0.773,0.064V138.898z"/>
	<path fill="#AB9245" d="M198.463,133.322c-0.644,0.077-1.468,0.348-2.099,0.708v4.868c-0.193,0.051-0.489,0.064-0.747,0.064
		s-0.58-0.026-0.747-0.064v-6.709c0.167-0.026,0.412-0.064,0.618-0.064c0.193,0,0.451,0.025,0.618,0.064l0.103,0.824h0.039
		c0.541-0.502,1.442-0.902,2.202-0.953c0.026,0.116,0.052,0.36,0.052,0.618C198.502,132.858,198.489,133.141,198.463,133.322z"/>
	<path fill="#AB9245" d="M204.723,136.039h-4.172c0.025,1.159,0.785,1.841,1.957,1.841c0.593,0,1.134-0.077,1.713-0.219
		c0.064,0.335,0.09,0.683,0.09,1.069c-0.683,0.232-1.301,0.296-2.009,0.296c-2.189,0-3.322-1.378-3.322-3.452
		c0-1.88,1.095-3.516,3.116-3.516c1.881,0,2.653,1.468,2.653,3.284C204.749,135.691,204.736,135.884,204.723,136.039z
		 M203.255,134.906c0-0.812-0.167-1.687-1.197-1.687c-0.966,0-1.43,0.785-1.507,1.687H203.255z"/>
	<path fill="#AB9245" d="M207.789,138.898c-0.219,0.039-0.554,0.064-0.772,0.064c-0.245,0-0.516-0.026-0.722-0.064v-9.401
		c0.245-0.039,0.516-0.051,0.734-0.051c0.258,0,0.541,0.013,0.76,0.051V138.898z"/>
	<path fill="#AB9245" d="M214.216,138.962c-0.206,0-0.489-0.026-0.656-0.064c-0.039-0.206-0.064-0.477-0.077-0.669h-0.014
		c-0.412,0.489-1.185,0.798-1.932,0.798c-1.287,0-2.228-0.76-2.228-2.061c0-1.958,1.687-2.421,3.181-2.421
		c0.258,0,0.645,0.026,0.837,0.039c0-1.017-0.373-1.365-1.391-1.365c-0.593,0-1.378,0.116-1.906,0.245
		c-0.051-0.155-0.077-0.386-0.077-0.567c0-0.167,0.026-0.386,0.077-0.515c0.645-0.193,1.481-0.322,2.151-0.322
		c1.635,0,2.64,0.683,2.64,2.37v2.666c0,0.696,0.013,1.185,0.026,1.803C214.667,138.949,214.409,138.962,214.216,138.962z
		 M213.341,135.666c-0.193-0.026-0.503-0.039-0.799-0.039c-1.12,0-1.713,0.477-1.713,1.21c0,0.644,0.425,1.018,1.095,1.018
		c0.541,0,1.095-0.245,1.417-0.593V135.666z"/>
	<path fill="#AB9245" d="M222.202,138.898c-0.193,0.051-0.502,0.064-0.708,0.064c-0.219,0-0.566-0.026-0.772-0.064v-3.979
		c0-0.541-0.052-0.979-0.284-1.249c-0.192-0.219-0.502-0.322-0.875-0.322c-0.541,0-1.107,0.219-1.507,0.502v5.048
		c-0.258,0.039-0.58,0.064-0.799,0.064c-0.206,0-0.477-0.013-0.695-0.064v-6.709c0.167-0.039,0.451-0.064,0.631-0.064
		c0.168,0,0.438,0.025,0.605,0.064l0.09,0.605c0.528-0.399,1.378-0.734,2.164-0.734c1.558,0,2.15,1.043,2.15,2.576V138.898z"/>
	<path fill="#AB9245" d="M229.479,138.898c-0.219,0.039-0.45,0.064-0.683,0.064c-0.192,0-0.386-0.026-0.579-0.064l-0.052-0.592
		h-0.013c-0.477,0.438-1.146,0.721-1.803,0.721c-1.906,0-2.756-1.559-2.756-3.375c0-1.88,0.798-3.593,2.937-3.593
		c0.489,0,1.017,0.103,1.455,0.348v-2.911c0.244-0.039,0.502-0.051,0.747-0.051c0.244,0,0.502,0.013,0.746,0.051V138.898z
		 M227.986,133.579c-0.348-0.193-0.838-0.296-1.224-0.296c-1.34,0-1.636,1.21-1.636,2.318c0,0.979,0.271,2.189,1.481,2.189
		c0.489,0,1.017-0.232,1.378-0.554V133.579z"/>
</g>
<g>
	<path fill="#AB9245" d="M96.788,151.914c-1.299-1.209-1.994-2.912-1.994-4.625c0-1.714,0.695-3.36,1.994-4.57
		c0.258,0.034,0.426,0.157,0.571,0.358c-1.098,1.299-1.512,2.767-1.512,4.245c0,1.5,0.414,2.934,1.512,4.233
		C97.213,151.757,97.045,151.88,96.788,151.914z"/>
	<path fill="#AB9245" d="M102.747,150.268c-0.493,0.313-1.176,0.448-2.218,0.448c-0.616,0-1.209-0.011-1.982-0.056v-7.571
		c0.471-0.034,1.075-0.056,1.714-0.056c1.355,0,2.777,0.224,2.777,1.881c0,0.817-0.336,1.366-1.12,1.646v0.011
		c1.097,0.112,1.68,0.851,1.68,1.87C103.598,149.349,103.273,149.932,102.747,150.268z M101.515,144.141
		c-0.28-0.179-0.784-0.235-1.098-0.235c-0.269,0-0.526,0.011-0.75,0.022v2.307h0.694c0.918,0,1.59-0.213,1.59-1.243
		C101.951,144.567,101.783,144.309,101.515,144.141z M100.518,147.132h-0.851v2.677c0.224,0.022,0.594,0.034,0.851,0.034
		c1.165,0,1.971-0.269,1.971-1.4C102.489,147.4,101.884,147.132,100.518,147.132z"/>
	<path fill="#AB9245" d="M106.936,150.771c-0.829,0-1.568-0.28-2.016-0.739c-0.538-0.548-0.795-1.355-0.795-2.262
		c0-1.579,0.862-3.058,2.621-3.058c1.602,0,2.229,1.277,2.229,2.71c0,0.213-0.011,0.426-0.022,0.639h-3.718
		c0.022,0.47,0.202,1.075,0.582,1.444c0.336,0.325,0.852,0.482,1.333,0.482c0.504,0,1.03-0.056,1.467-0.168
		c0.034,0.112,0.045,0.224,0.045,0.336c0,0.123-0.011,0.246-0.045,0.37C108.056,150.727,107.518,150.771,106.936,150.771z
		 M107.899,147.255c0-0.829-0.124-1.736-1.188-1.736c-0.963,0-1.422,0.862-1.478,1.736H107.899z"/>
	<path fill="#AB9245" d="M110.878,150.66c-0.19,0.034-0.37,0.056-0.56,0.056c-0.168,0-0.336-0.022-0.504-0.056v-8.176
		c0.168-0.034,0.358-0.045,0.538-0.045s0.347,0.011,0.526,0.045V150.66z"/>
	<path fill="#AB9245" d="M115.583,143.223c-0.269-0.089-0.515-0.134-0.795-0.134c-0.863,0-1.199,0.549-1.199,1.736h1.501
		c0.034,0.101,0.056,0.246,0.056,0.347c0,0.123-0.022,0.302-0.056,0.414h-1.501v5.074c-0.168,0.045-0.358,0.056-0.526,0.056
		c-0.179,0-0.358-0.022-0.538-0.056v-5.074h-0.963c-0.045-0.112-0.056-0.246-0.056-0.358c0-0.089,0.011-0.257,0.056-0.336
		l0.963-0.056c0-1.602,0.694-2.487,2.105-2.487c0.303,0,0.728,0.079,0.963,0.19c0.034,0.112,0.045,0.247,0.045,0.336
		C115.639,142.988,115.617,143.122,115.583,143.223z"/>
	<path fill="#AB9245" d="M119.48,150.716c-0.134,0-0.336-0.022-0.47-0.056l-0.067-0.583h-0.011c-0.37,0.471-1.008,0.694-1.725,0.694
		c-1.109,0-1.949-0.638-1.949-1.758c0-1.691,1.422-2.094,2.8-2.094c0.146,0,0.605,0.022,0.762,0.045v-0.135
		c0-0.94-0.403-1.31-1.355-1.31c-0.493,0-1.232,0.101-1.59,0.179c-0.033-0.112-0.056-0.235-0.056-0.358
		c0-0.112,0.022-0.247,0.056-0.358c0.504-0.157,1.221-0.269,1.803-0.269c1.389,0,2.207,0.616,2.207,2.027v2.408
		c0,0.459,0,1.064,0.011,1.512C119.761,150.693,119.615,150.716,119.48,150.716z M118.82,147.77
		c-0.168-0.022-0.459-0.045-0.739-0.045c-1.086,0-1.725,0.415-1.725,1.188c0,0.661,0.459,1.019,1.12,1.019
		c0.493,0,1.109-0.291,1.344-0.627V147.77z"/>
	<path fill="#AB9245" d="M122.427,150.771c-0.56,0-1.254-0.089-1.669-0.246c-0.033-0.135-0.044-0.258-0.044-0.392
		c0-0.123,0.011-0.28,0.044-0.403c0.437,0.146,1.098,0.28,1.591,0.28c0.717,0,1.243-0.269,1.243-0.885
		c0-0.538-0.314-0.762-1.131-1.053c-1.086-0.392-1.736-0.851-1.736-1.747c0-1.142,1.008-1.613,2.038-1.613
		c0.437,0,1.031,0.09,1.355,0.202c0.034,0.112,0.045,0.235,0.045,0.347c0,0.134-0.022,0.28-0.056,0.403
		c-0.37-0.101-0.896-0.19-1.266-0.19c-0.594,0-1.12,0.179-1.12,0.795c0,0.515,0.437,0.694,1.143,0.974
		c1.008,0.403,1.702,0.694,1.702,1.814C124.566,150.245,123.581,150.771,122.427,150.771z"/>
	<path fill="#AB9245" d="M128.598,150.503c-0.481,0.19-0.907,0.269-1.422,0.269c-1.176,0-1.557-0.717-1.557-1.781v-3.405h-0.986
		c-0.034-0.112-0.056-0.213-0.056-0.336c0-0.112,0.022-0.246,0.056-0.358l0.986-0.056v-1.512c0.168-0.045,0.347-0.045,0.526-0.045
		s0.358,0.011,0.538,0.045v1.501h1.702c0.034,0.112,0.045,0.257,0.045,0.37c0,0.123-0.011,0.269-0.045,0.392h-1.702v3.159
		c0,0.627,0.101,1.209,0.874,1.209c0.381,0,0.672-0.056,1.042-0.157c0.034,0.112,0.056,0.246,0.056,0.358
		C128.654,150.268,128.632,150.391,128.598,150.503z"/>
	<path fill="#AB9245" d="M129.506,150.234c0-0.37,0.302-0.672,0.672-0.672c0.426,0,0.706,0.347,0.706,0.818
		c0,0.885-0.862,1.837-1.613,2.318c-0.157-0.112-0.269-0.258-0.336-0.448c0.481-0.336,0.84-0.773,1.019-1.21
		C129.685,150.85,129.506,150.592,129.506,150.234z"/>
	<path fill="#AB9245" d="M138.88,144.197c-0.459-0.146-1.131-0.269-1.68-0.269c-1.702,0-2.396,1.276-2.396,2.979
		c0,0.829,0.19,1.602,0.604,2.128c0.415,0.526,1.008,0.773,1.837,0.773c0.594,0,1.154-0.124,1.579-0.247
		c0.045,0.123,0.079,0.292,0.079,0.415c0,0.157-0.011,0.291-0.045,0.437c-0.583,0.224-1.277,0.358-1.848,0.358
		c-2.374,0-3.382-1.635-3.382-3.83c0-1.21,0.358-2.296,1.042-3.013c0.583-0.605,1.434-0.952,2.431-0.952
		c0.672,0,1.355,0.168,1.781,0.358c0.045,0.146,0.056,0.235,0.056,0.392S138.925,144.052,138.88,144.197z"/>
	<path fill="#AB9245" d="M141.95,150.771c-1.579,0-2.598-1.042-2.598-3.013s1.019-3.046,2.598-3.046c1.58,0,2.599,1.064,2.599,3.035
		S143.529,150.771,141.95,150.771z M141.95,145.508c-0.985,0-1.5,0.683-1.5,2.24c0,1.557,0.515,2.229,1.5,2.229
		c0.986,0,1.501-0.672,1.501-2.229C143.451,146.191,142.936,145.508,141.95,145.508z"/>
	<path fill="#AB9245" d="M146.419,150.66c-0.19,0.034-0.37,0.056-0.56,0.056c-0.168,0-0.336-0.022-0.504-0.056v-8.176
		c0.168-0.034,0.358-0.045,0.538-0.045s0.347,0.011,0.526,0.045V150.66z"/>
	<path fill="#AB9245" d="M150.037,150.771c-0.829,0-1.568-0.28-2.017-0.739c-0.537-0.548-0.795-1.355-0.795-2.262
		c0-1.579,0.862-3.058,2.621-3.058c1.602,0,2.229,1.277,2.229,2.71c0,0.213-0.012,0.426-0.022,0.639h-3.719
		c0.022,0.47,0.202,1.075,0.583,1.444c0.336,0.325,0.851,0.482,1.333,0.482c0.504,0,1.03-0.056,1.467-0.168
		c0.033,0.112,0.045,0.224,0.045,0.336c0,0.123-0.012,0.246-0.045,0.37C151.156,150.727,150.619,150.771,150.037,150.771z
		 M151,147.255c0-0.829-0.123-1.736-1.188-1.736c-0.963,0-1.422,0.862-1.479,1.736H151z"/>
	<path fill="#AB9245" d="M155.738,145.608c-0.561,0.045-1.232,0.258-1.759,0.605v4.446c-0.168,0.045-0.358,0.056-0.537,0.056
		c-0.168,0-0.358-0.011-0.526-0.056v-5.835c0.123-0.034,0.279-0.056,0.414-0.056c0.146,0,0.291,0.022,0.437,0.056l0.09,0.649h0.011
		c0.493-0.459,1.21-0.762,1.871-0.762c0.022,0.112,0.045,0.213,0.045,0.437C155.783,145.306,155.761,145.452,155.738,145.608z"/>
	<path fill="#AB9245" d="M160.028,150.716c-0.135,0-0.336-0.022-0.471-0.056l-0.067-0.583h-0.011
		c-0.37,0.471-1.009,0.694-1.726,0.694c-1.108,0-1.948-0.638-1.948-1.758c0-1.691,1.422-2.094,2.8-2.094
		c0.146,0,0.604,0.022,0.762,0.045v-0.135c0-0.94-0.403-1.31-1.355-1.31c-0.492,0-1.231,0.101-1.59,0.179
		c-0.034-0.112-0.057-0.235-0.057-0.358c0-0.112,0.022-0.247,0.057-0.358c0.504-0.157,1.221-0.269,1.803-0.269
		c1.389,0,2.206,0.616,2.206,2.027v2.408c0,0.459,0,1.064,0.012,1.512C160.308,150.693,160.162,150.716,160.028,150.716z
		 M159.367,147.77c-0.168-0.022-0.459-0.045-0.739-0.045c-1.086,0-1.725,0.415-1.725,1.188c0,0.661,0.459,1.019,1.12,1.019
		c0.492,0,1.108-0.291,1.344-0.627V147.77z"/>
	<path fill="#AB9245" d="M162.19,143.873c-0.348,0-0.639-0.292-0.639-0.639s0.291-0.638,0.639-0.638
		c0.347,0,0.638,0.291,0.638,0.638S162.537,143.873,162.19,143.873z M162.728,150.66c-0.179,0.034-0.369,0.056-0.549,0.056
		c-0.168,0-0.347-0.022-0.515-0.056v-5.835c0.168-0.034,0.347-0.056,0.515-0.056c0.18,0,0.37,0.022,0.549,0.056V150.66z"/>
	<path fill="#AB9245" d="M168.798,150.66c-0.168,0.045-0.336,0.056-0.504,0.056c-0.19,0-0.381-0.022-0.56-0.056v-3.595
		c0-0.93-0.225-1.49-1.12-1.49c-0.628,0-1.21,0.258-1.591,0.538v4.547c-0.19,0.034-0.381,0.056-0.571,0.056
		c-0.168,0-0.324-0.022-0.492-0.056v-5.835c0.134-0.034,0.279-0.056,0.425-0.056c0.135,0,0.292,0.022,0.426,0.056l0.078,0.548h0.012
		c0.582-0.448,1.276-0.661,1.927-0.661c0.548,0,1.131,0.179,1.5,0.594c0.393,0.459,0.471,1.086,0.471,1.669V150.66z"/>
	<path fill="#AB9245" d="M172.383,150.771c-0.829,0-1.568-0.28-2.017-0.739c-0.537-0.548-0.795-1.355-0.795-2.262
		c0-1.579,0.862-3.058,2.621-3.058c1.602,0,2.229,1.277,2.229,2.71c0,0.213-0.012,0.426-0.022,0.639h-3.719
		c0.022,0.47,0.202,1.075,0.583,1.444c0.336,0.325,0.851,0.482,1.333,0.482c0.504,0,1.03-0.056,1.467-0.168
		c0.033,0.112,0.045,0.224,0.045,0.336c0,0.123-0.012,0.246-0.045,0.37C173.502,150.727,172.965,150.771,172.383,150.771z
		 M173.346,147.255c0-0.829-0.123-1.736-1.188-1.736c-0.963,0-1.422,0.862-1.479,1.736H173.346z"/>
	<path fill="#AB9245" d="M175.015,150.234c0-0.37,0.303-0.672,0.672-0.672c0.426,0,0.706,0.347,0.706,0.818
		c0,0.885-0.863,1.837-1.613,2.318c-0.156-0.112-0.269-0.258-0.336-0.448c0.481-0.336,0.84-0.773,1.02-1.21
		C175.193,150.85,175.015,150.592,175.015,150.234z"/>
	<path fill="#AB9245" d="M182.889,148.128c0,0.65-0.157,1.456-0.605,1.949c-0.437,0.471-1.142,0.694-1.77,0.694
		c-0.459,0-1.164-0.112-1.456-0.224c-0.033-0.135-0.056-0.292-0.056-0.437c0-0.134,0.011-0.302,0.056-0.426
		c0.325,0.112,0.852,0.179,1.198,0.179c1.222,0,1.513-0.817,1.513-1.915v-4.861c0.179-0.022,0.358-0.056,0.537-0.056
		c0.19,0,0.393,0.022,0.583,0.056V148.128z"/>
	<path fill="#AB9245" d="M186.406,150.771c-1.579,0-2.599-1.042-2.599-3.013s1.02-3.046,2.599-3.046s2.598,1.064,2.598,3.035
		S187.985,150.771,186.406,150.771z M186.406,145.508c-0.986,0-1.501,0.683-1.501,2.24c0,1.557,0.515,2.229,1.501,2.229
		c0.985,0,1.5-0.672,1.5-2.229C187.906,146.191,187.392,145.508,186.406,145.508z"/>
	<path fill="#AB9245" d="M192.634,145.608c-0.561,0.045-1.232,0.258-1.759,0.605v4.446c-0.168,0.045-0.358,0.056-0.537,0.056
		c-0.168,0-0.358-0.011-0.526-0.056v-5.835c0.123-0.034,0.279-0.056,0.414-0.056c0.146,0,0.291,0.022,0.437,0.056l0.09,0.649h0.011
		c0.493-0.459,1.21-0.762,1.871-0.762c0.022,0.112,0.045,0.213,0.045,0.437C192.679,145.306,192.656,145.452,192.634,145.608z"/>
	<path fill="#AB9245" d="M197.327,150.716c-0.168,0-0.246-0.022-0.403-0.056l-0.056-0.549h-0.012
		c-0.414,0.415-1.098,0.661-1.691,0.661c-1.602,0-2.329-1.333-2.329-2.822c0-0.661,0.101-1.221,0.269-1.658
		c0.448-1.142,1.411-1.579,2.195-1.579c0.481,0,1.008,0.124,1.434,0.37v-2.598c0.168-0.034,0.348-0.045,0.526-0.045
		c0.18,0,0.37,0.011,0.538,0.045v8.176C197.618,150.693,197.518,150.716,197.327,150.716z M196.733,145.933
		c-0.347-0.212-0.852-0.336-1.21-0.336c-0.425,0-0.783,0.146-1.008,0.37c-0.447,0.437-0.594,1.198-0.594,1.859
		c0,0.672,0.135,1.209,0.393,1.568c0.246,0.336,0.616,0.526,1.063,0.526c0.448,0,1.042-0.257,1.355-0.571V145.933z"/>
	<path fill="#AB9245" d="M202.86,150.716c-0.135,0-0.336-0.022-0.471-0.056l-0.067-0.583h-0.011
		c-0.37,0.471-1.009,0.694-1.726,0.694c-1.108,0-1.948-0.638-1.948-1.758c0-1.691,1.422-2.094,2.8-2.094
		c0.146,0,0.604,0.022,0.762,0.045v-0.135c0-0.94-0.403-1.31-1.355-1.31c-0.492,0-1.231,0.101-1.59,0.179
		c-0.034-0.112-0.057-0.235-0.057-0.358c0-0.112,0.022-0.247,0.057-0.358c0.504-0.157,1.221-0.269,1.803-0.269
		c1.389,0,2.206,0.616,2.206,2.027v2.408c0,0.459,0,1.064,0.012,1.512C203.14,150.693,202.994,150.716,202.86,150.716z
		 M202.199,147.77c-0.168-0.022-0.459-0.045-0.739-0.045c-1.086,0-1.725,0.415-1.725,1.188c0,0.661,0.459,1.019,1.12,1.019
		c0.492,0,1.108-0.291,1.344-0.627V147.77z"/>
	<path fill="#AB9245" d="M209.233,150.66c-0.168,0.045-0.336,0.056-0.504,0.056c-0.19,0-0.381-0.022-0.56-0.056v-3.595
		c0-0.93-0.225-1.49-1.12-1.49c-0.628,0-1.21,0.258-1.591,0.538v4.547c-0.19,0.034-0.381,0.056-0.571,0.056
		c-0.168,0-0.324-0.022-0.492-0.056v-5.835c0.134-0.034,0.279-0.056,0.425-0.056c0.135,0,0.292,0.022,0.426,0.056l0.078,0.548h0.012
		c0.582-0.448,1.276-0.661,1.927-0.661c0.548,0,1.131,0.179,1.5,0.594c0.393,0.459,0.471,1.086,0.471,1.669V150.66z"/>
	<path fill="#AB9245" d="M211.743,150.771c-0.561,0-1.255-0.089-1.669-0.246c-0.034-0.135-0.045-0.258-0.045-0.392
		c0-0.123,0.011-0.28,0.045-0.403c0.437,0.146,1.098,0.28,1.59,0.28c0.717,0,1.243-0.269,1.243-0.885
		c0-0.538-0.313-0.762-1.131-1.053c-1.086-0.392-1.736-0.851-1.736-1.747c0-1.142,1.009-1.613,2.039-1.613
		c0.437,0,1.03,0.09,1.354,0.202c0.034,0.112,0.045,0.235,0.045,0.347c0,0.134-0.022,0.28-0.056,0.403
		c-0.37-0.101-0.896-0.19-1.266-0.19c-0.594,0-1.12,0.179-1.12,0.795c0,0.515,0.437,0.694,1.143,0.974
		c1.008,0.403,1.702,0.694,1.702,1.814C213.882,150.245,212.896,150.771,211.743,150.771z"/>
	<path fill="#AB9245" d="M217.903,150.503c-0.482,0.19-0.907,0.269-1.423,0.269c-1.176,0-1.557-0.717-1.557-1.781v-3.405h-0.985
		c-0.034-0.112-0.057-0.213-0.057-0.336c0-0.112,0.022-0.246,0.057-0.358l0.985-0.056v-1.512c0.168-0.045,0.347-0.045,0.526-0.045
		c0.179,0,0.358,0.011,0.537,0.045v1.501h1.703c0.033,0.112,0.045,0.257,0.045,0.37c0,0.123-0.012,0.269-0.045,0.392h-1.703v3.159
		c0,0.627,0.102,1.209,0.874,1.209c0.381,0,0.672-0.056,1.042-0.157c0.033,0.112,0.056,0.246,0.056,0.358
		C217.959,150.268,217.937,150.391,217.903,150.503z"/>
	<path fill="#AB9245" d="M220.782,150.771c-1.579,0-2.599-1.042-2.599-3.013s1.02-3.046,2.599-3.046s2.598,1.064,2.598,3.035
		S222.361,150.771,220.782,150.771z M220.782,145.508c-0.986,0-1.501,0.683-1.501,2.24c0,1.557,0.515,2.229,1.501,2.229
		c0.985,0,1.501-0.672,1.501-2.229C222.283,146.191,221.768,145.508,220.782,145.508z"/>
	<path fill="#AB9245" d="M231.153,146.27l-1.399,4.39c-0.168,0.045-0.403,0.056-0.571,0.056c-0.19,0-0.414-0.011-0.594-0.056
		l-1.086-4.334h-0.012l-1.188,4.334c-0.179,0.045-0.402,0.056-0.582,0.056c-0.168,0-0.392-0.022-0.56-0.056l-1.333-4.581
		c-0.112-0.392-0.202-0.885-0.19-1.254c0.146-0.034,0.369-0.056,0.537-0.056c0.18,0,0.336,0.022,0.516,0.056
		c-0.012,0.38,0.067,0.806,0.179,1.232l0.896,3.517h0.011l1.222-4.749c0.146-0.034,0.347-0.056,0.492-0.056s0.348,0.022,0.493,0.056
		l1.198,4.771h0.011l0.986-3.517c0.123-0.437,0.179-0.852,0.179-1.254c0.146-0.034,0.358-0.056,0.526-0.056
		c0.157,0,0.37,0.022,0.504,0.056C231.389,145.228,231.321,145.765,231.153,146.27z"/>
	<path fill="#AB9245" d="M236.866,150.66c-0.168,0.045-0.336,0.056-0.504,0.056c-0.19,0-0.381-0.022-0.56-0.056v-3.595
		c0-0.93-0.225-1.49-1.12-1.49c-0.628,0-1.21,0.258-1.591,0.538v4.547c-0.19,0.034-0.381,0.056-0.571,0.056
		c-0.168,0-0.324-0.022-0.492-0.056v-5.835c0.134-0.034,0.279-0.056,0.425-0.056c0.135,0,0.292,0.022,0.426,0.056l0.078,0.548h0.012
		c0.582-0.448,1.276-0.661,1.927-0.661c0.548,0,1.131,0.179,1.5,0.594c0.393,0.459,0.471,1.086,0.471,1.669V150.66z"/>
	<path fill="#AB9245" d="M244.08,150.716c-0.135,0-0.336-0.022-0.471-0.056l-0.067-0.583h-0.011
		c-0.37,0.471-1.009,0.694-1.726,0.694c-1.108,0-1.948-0.638-1.948-1.758c0-1.691,1.422-2.094,2.8-2.094
		c0.146,0,0.604,0.022,0.762,0.045v-0.135c0-0.94-0.403-1.31-1.355-1.31c-0.492,0-1.231,0.101-1.59,0.179
		c-0.034-0.112-0.057-0.235-0.057-0.358c0-0.112,0.022-0.247,0.057-0.358c0.504-0.157,1.221-0.269,1.803-0.269
		c1.389,0,2.206,0.616,2.206,2.027v2.408c0,0.459,0,1.064,0.012,1.512C244.359,150.693,244.214,150.716,244.08,150.716z
		 M243.419,147.77c-0.168-0.022-0.459-0.045-0.739-0.045c-1.086,0-1.725,0.415-1.725,1.188c0,0.661,0.459,1.019,1.12,1.019
		c0.492,0,1.108-0.291,1.344-0.627V147.77z"/>
	<path fill="#AB9245" d="M250.452,150.66c-0.168,0.045-0.336,0.056-0.504,0.056c-0.19,0-0.381-0.022-0.56-0.056v-3.595
		c0-0.93-0.225-1.49-1.12-1.49c-0.628,0-1.21,0.258-1.591,0.538v4.547c-0.19,0.034-0.381,0.056-0.571,0.056
		c-0.168,0-0.324-0.022-0.492-0.056v-5.835c0.134-0.034,0.279-0.056,0.425-0.056c0.135,0,0.292,0.022,0.426,0.056l0.078,0.548h0.012
		c0.582-0.448,1.276-0.661,1.927-0.661c0.548,0,1.131,0.179,1.5,0.594c0.393,0.459,0.471,1.086,0.471,1.669V150.66z"/>
	<path fill="#AB9245" d="M255.717,150.716c-0.168,0-0.246-0.022-0.403-0.056l-0.056-0.549h-0.012
		c-0.414,0.415-1.098,0.661-1.691,0.661c-1.602,0-2.329-1.333-2.329-2.822c0-0.661,0.101-1.221,0.269-1.658
		c0.448-1.142,1.411-1.579,2.195-1.579c0.481,0,1.008,0.124,1.434,0.37v-2.598c0.168-0.034,0.348-0.045,0.526-0.045
		c0.18,0,0.37,0.011,0.538,0.045v8.176C256.008,150.693,255.907,150.716,255.717,150.716z M255.123,145.933
		c-0.347-0.212-0.852-0.336-1.21-0.336c-0.425,0-0.783,0.146-1.008,0.37c-0.448,0.437-0.594,1.198-0.594,1.859
		c0,0.672,0.135,1.209,0.393,1.568c0.246,0.336,0.616,0.526,1.063,0.526c0.448,0,1.042-0.257,1.355-0.571V145.933z"/>
	<path fill="#AB9245" d="M266.771,150.66c-0.134,0.034-0.336,0.056-0.492,0.056c-0.146,0-0.482-0.022-0.616-0.056l-0.135-5.421
		l-1.982,4.715c-0.056,0.022-0.291,0.045-0.392,0.045s-0.303-0.022-0.37-0.045l-2.016-4.715l-0.135,5.421
		c-0.123,0.022-0.414,0.056-0.571,0.056c-0.111,0-0.38-0.034-0.492-0.056l0.269-7.571c0.168-0.034,0.348-0.056,0.459-0.056
		c0.157,0,0.403,0.033,0.504,0.056l2.363,5.443l2.285-5.443c0.146-0.022,0.426-0.056,0.582-0.056c0.157,0,0.403,0.033,0.493,0.056
		L266.771,150.66z"/>
	<path fill="#AB9245" d="M271.959,150.716c-0.135,0-0.336-0.022-0.471-0.056l-0.067-0.583h-0.011
		c-0.37,0.471-1.009,0.694-1.726,0.694c-1.108,0-1.948-0.638-1.948-1.758c0-1.691,1.422-2.094,2.8-2.094
		c0.146,0,0.604,0.022,0.762,0.045v-0.135c0-0.94-0.403-1.31-1.355-1.31c-0.492,0-1.231,0.101-1.59,0.179
		c-0.034-0.112-0.057-0.235-0.057-0.358c0-0.112,0.022-0.247,0.057-0.358c0.504-0.157,1.221-0.269,1.803-0.269
		c1.389,0,2.206,0.616,2.206,2.027v2.408c0,0.459,0,1.064,0.012,1.512C272.238,150.693,272.093,150.716,271.959,150.716z
		 M271.298,147.77c-0.168-0.022-0.459-0.045-0.739-0.045c-1.086,0-1.725,0.415-1.725,1.188c0,0.661,0.459,1.019,1.12,1.019
		c0.492,0,1.108-0.291,1.344-0.627V147.77z"/>
	<path fill="#AB9245" d="M278.097,149.663c0,0.929-0.056,1.825-0.47,2.531c-0.493,0.828-1.49,1.221-2.397,1.221
		c-0.492,0-0.918-0.057-1.389-0.213c-0.045-0.123-0.045-0.246-0.045-0.37c0-0.123,0.012-0.257,0.045-0.369
		c0.392,0.112,0.862,0.179,1.243,0.179c1.366,0,1.949-0.828,1.949-2.24v-0.269c-0.348,0.347-0.874,0.583-1.535,0.583
		c-1.522,0-2.329-1.154-2.329-2.823c0-1.971,1.165-3.181,3.002-3.181c0.683,0,1.478,0.168,1.926,0.358V149.663z M277.033,145.597
		c-0.258-0.067-0.605-0.101-0.93-0.101c-1.266,0-1.849,1.086-1.849,2.363c0,1.232,0.415,2.016,1.4,2.016
		c0.526,0,0.975-0.19,1.378-0.549V145.597z"/>
	<path fill="#AB9245" d="M281.727,150.771c-0.829,0-1.568-0.28-2.017-0.739c-0.537-0.548-0.795-1.355-0.795-2.262
		c0-1.579,0.862-3.058,2.621-3.058c1.602,0,2.229,1.277,2.229,2.71c0,0.213-0.012,0.426-0.022,0.639h-3.719
		c0.022,0.47,0.202,1.075,0.583,1.444c0.336,0.325,0.851,0.482,1.333,0.482c0.504,0,1.03-0.056,1.467-0.168
		c0.033,0.112,0.045,0.224,0.045,0.336c0,0.123-0.012,0.246-0.045,0.37C282.846,150.727,282.309,150.771,281.727,150.771z
		 M282.689,147.255c0-0.829-0.123-1.736-1.188-1.736c-0.963,0-1.422,0.862-1.479,1.736H282.689z"/>
	<path fill="#AB9245" d="M287.17,150.771c-0.829,0-1.568-0.28-2.017-0.739c-0.537-0.548-0.795-1.355-0.795-2.262
		c0-1.579,0.862-3.058,2.621-3.058c1.602,0,2.229,1.277,2.229,2.71c0,0.213-0.012,0.426-0.022,0.639h-3.719
		c0.022,0.47,0.202,1.075,0.583,1.444c0.336,0.325,0.851,0.482,1.333,0.482c0.504,0,1.03-0.056,1.467-0.168
		c0.033,0.112,0.045,0.224,0.045,0.336c0,0.123-0.012,0.246-0.045,0.37C288.289,150.727,287.752,150.771,287.17,150.771z
		 M288.133,147.255c0-0.829-0.123-1.736-1.188-1.736c-0.963,0-1.422,0.862-1.479,1.736H288.133z"/>
	<path fill="#AB9245" d="M290.519,151.914c-0.258-0.034-0.426-0.157-0.571-0.358c1.098-1.299,1.513-2.767,1.513-4.245
		c0-1.501-0.415-2.935-1.513-4.234c0.146-0.202,0.336-0.325,0.594-0.358c1.3,1.21,1.972,2.912,1.972,4.626
		C292.513,149.058,291.818,150.705,290.519,151.914z"/>
</g>
<g>
	<path fill="#AB9245" d="M85.521,187.256H65.193c-0.429-1-0.571-2.237-0.571-3.332c0-0.572,0.048-1.286,0.143-1.762
		c3.333-3.381,6.903-7.189,10.045-10.712c2.333-2.618,4.189-5.046,4.189-7.712c0-2.333-1.619-3.666-4.475-3.666
		c-2.095,0-5.427,0.714-8.521,2.189c-0.19-0.809-0.381-2.237-0.381-3.38c0-0.571,0.095-1.714,0.285-2.476
		c2.333-1,6.094-1.904,9.76-1.904c5.427,0,10.188,2.523,10.188,8.379c0,5.142-2.761,8.617-8.665,14.806
		c-1.143,1.238-2.38,2.429-3.618,3.714h12.045c0.143,0.619,0.238,1.809,0.238,2.951C85.855,185.304,85.712,186.59,85.521,187.256z"
		/>
</g>
<g>
	<path fill="#AB9245" d="M99.875,171.784c-1.355,0-2.969-0.258-4.152-0.688v-15.232c0.323-0.064,0.774-0.086,1.205-0.086
		c0.495,0,0.99,0.021,1.291,0.086v5.207c0.624-0.517,1.721-0.926,2.84-0.926c3.185,0,4.476,2.754,4.476,5.486
		C105.534,169.332,103.662,171.784,99.875,171.784z M100.564,162.253c-0.817,0-1.786,0.302-2.345,0.732v6.712
		c0.387,0.107,0.968,0.173,1.441,0.173c2.41,0,3.313-1.593,3.313-4.196C102.974,164.061,102.393,162.253,100.564,162.253z"/>
	<path fill="#AB9245" d="M113.256,162.253c-1.076,0.13-2.453,0.581-3.507,1.184v8.133c-0.323,0.086-0.817,0.107-1.248,0.107
		c-0.431,0-0.968-0.043-1.248-0.107V160.36c0.28-0.043,0.688-0.107,1.033-0.107c0.323,0,0.753,0.043,1.033,0.107l0.172,1.377h0.064
		c0.903-0.839,2.41-1.506,3.679-1.593c0.043,0.194,0.086,0.603,0.086,1.033C113.321,161.479,113.299,161.952,113.256,162.253z"/>
	<path fill="#AB9245" d="M121.624,171.677c-0.344,0-0.817-0.043-1.097-0.107c-0.064-0.345-0.107-0.796-0.129-1.119h-0.021
		c-0.688,0.818-1.979,1.334-3.228,1.334c-2.151,0-3.722-1.27-3.722-3.442c0-3.27,2.818-4.045,5.314-4.045
		c0.43,0,1.076,0.043,1.398,0.065c0-1.7-0.624-2.281-2.324-2.281c-0.99,0-2.302,0.194-3.184,0.409
		c-0.086-0.259-0.129-0.646-0.129-0.947c0-0.279,0.043-0.645,0.129-0.86c1.076-0.322,2.474-0.538,3.593-0.538
		c2.732,0,4.41,1.141,4.41,3.959v4.454c0,1.161,0.021,1.979,0.043,3.012C122.377,171.655,121.947,171.677,121.624,171.677z
		 M120.161,166.169c-0.323-0.043-0.839-0.064-1.334-0.064c-1.872,0-2.861,0.796-2.861,2.022c0,1.076,0.71,1.699,1.829,1.699
		c0.904,0,1.829-0.408,2.367-0.989V166.169z"/>
	<path fill="#AB9245" d="M134.359,171.569c-0.323,0.086-0.839,0.107-1.183,0.107c-0.366,0-0.947-0.043-1.291-0.107v-6.648
		c0-0.903-0.086-1.635-0.473-2.087c-0.323-0.365-0.839-0.537-1.463-0.537c-0.904,0-1.851,0.365-2.518,0.839v8.434
		c-0.43,0.064-0.968,0.107-1.334,0.107c-0.344,0-0.796-0.021-1.162-0.107V160.36c0.28-0.064,0.753-0.107,1.054-0.107
		c0.28,0,0.731,0.043,1.011,0.107l0.15,1.011c0.882-0.667,2.302-1.227,3.615-1.227c2.604,0,3.593,1.743,3.593,4.304V171.569z"/>
	<path fill="#AB9245" d="M142.017,162.124c-2.065,0-3.399,1.098-3.399,3.938c0,2.173,0.968,3.743,3.292,3.743
		c0.688,0,1.678-0.172,2.561-0.43c0.107,0.495,0.15,1.075,0.15,1.613v0.15c-0.903,0.431-2.108,0.646-3.077,0.646
		c-3.636,0-5.486-2.216-5.486-5.658c0-3.399,1.979-5.981,5.529-5.981c1.227,0,2.216,0.237,2.905,0.56
		c0.043,0.302,0.064,0.624,0.064,0.926c0,0.344-0.043,0.667-0.107,0.989C143.76,162.318,142.77,162.124,142.017,162.124z"/>
	<path fill="#AB9245" d="M156,164.448v7.121c-0.322,0.086-0.839,0.107-1.184,0.107c-0.365,0-0.946-0.043-1.29-0.107v-6.648
		c0-0.903-0.087-1.635-0.474-2.087c-0.323-0.365-0.839-0.537-1.463-0.537c-0.904,0-1.851,0.365-2.518,0.839v8.434
		c-0.43,0.064-0.968,0.107-1.334,0.107c-0.344,0-0.796-0.021-1.162-0.107v-15.706c0.301-0.064,0.796-0.086,1.226-0.086
		c0.431,0,0.947,0.021,1.27,0.086v5.336c0.817-0.56,2.151-1.055,3.335-1.055C155.011,160.145,156,161.888,156,164.448z"/>
	<path fill="#AB9245" d="M168.067,162.124c-2.065,0-3.399,1.098-3.399,3.938c0,2.173,0.968,3.743,3.292,3.743
		c0.688,0,1.678-0.172,2.56-0.43c0.107,0.495,0.151,1.075,0.151,1.613v0.15c-0.904,0.431-2.108,0.646-3.077,0.646
		c-3.636,0-5.486-2.216-5.486-5.658c0-3.399,1.979-5.981,5.529-5.981c1.227,0,2.216,0.237,2.904,0.56
		c0.043,0.302,0.064,0.624,0.064,0.926c0,0.344-0.043,0.667-0.107,0.989C169.81,162.318,168.82,162.124,168.067,162.124z"/>
	<path fill="#AB9245" d="M180.114,171.677c-0.344,0-0.817-0.043-1.097-0.107c-0.064-0.345-0.108-0.796-0.13-1.119h-0.021
		c-0.688,0.818-1.979,1.334-3.227,1.334c-2.151,0-3.723-1.27-3.723-3.442c0-3.27,2.818-4.045,5.314-4.045
		c0.431,0,1.076,0.043,1.398,0.065c0-1.7-0.624-2.281-2.323-2.281c-0.99,0-2.303,0.194-3.185,0.409
		c-0.086-0.259-0.129-0.646-0.129-0.947c0-0.279,0.043-0.645,0.129-0.86c1.076-0.322,2.475-0.538,3.593-0.538
		c2.732,0,4.411,1.141,4.411,3.959v4.454c0,1.161,0.021,1.979,0.043,3.012C180.867,171.655,180.438,171.677,180.114,171.677z
		 M178.651,166.169c-0.322-0.043-0.839-0.064-1.334-0.064c-1.872,0-2.861,0.796-2.861,2.022c0,1.076,0.71,1.699,1.829,1.699
		c0.903,0,1.828-0.408,2.366-0.989V166.169z"/>
	<path fill="#AB9245" d="M199.842,171.569c-0.323,0.086-0.839,0.107-1.184,0.107c-0.365,0-0.968-0.043-1.312-0.107v-6.648
		c0-0.839-0.064-1.463-0.322-1.893c-0.302-0.495-0.883-0.731-1.636-0.731c-0.86,0-1.936,0.408-2.603,0.882
		c0.086,0.451,0.086,0.86,0.086,1.355v7.035c-0.323,0.086-0.84,0.107-1.184,0.107c-0.366,0-0.946-0.043-1.291-0.107v-6.648
		c0-0.925-0.086-1.635-0.495-2.087c-0.322-0.365-0.817-0.537-1.42-0.537c-0.817,0-1.807,0.344-2.56,0.839v8.434
		c-0.431,0.064-0.969,0.107-1.334,0.107c-0.345,0-0.796-0.021-1.162-0.107V160.36c0.279-0.064,0.753-0.107,1.055-0.107
		c0.279,0,0.731,0.043,1.011,0.107l0.15,1.011c0.926-0.731,2.324-1.227,3.528-1.227c1.398,0,2.432,0.56,3.013,1.355
		c1.075-0.774,2.56-1.355,3.915-1.355c1.141,0,2.26,0.388,2.884,1.098c0.731,0.839,0.86,1.958,0.86,3.292V171.569z"/>
	<path fill="#AB9245" d="M206.659,171.569c-0.775,0-1.464-0.086-2.022-0.258v5.313c-0.366,0.064-0.883,0.107-1.291,0.107
		c-0.452,0-0.839-0.043-1.205-0.107V160.36c0.172-0.021,0.624-0.107,1.055-0.107c0.473,0,0.882,0.086,1.032,0.107l0.129,1.011h0.021
		c0.688-0.646,1.937-1.227,3.228-1.227c2.732,0,4.367,2.174,4.367,5.357C211.973,169.268,210.102,171.569,206.659,171.569z
		 M207.089,162.188c-0.968,0-1.851,0.409-2.452,0.969v6.218c0.451,0.15,1.118,0.258,1.721,0.258c2.216,0,3.056-1.592,3.056-4.002
		C209.413,163.415,208.53,162.188,207.089,162.188z"/>
	<path fill="#AB9245" d="M222.922,167.288c0,3.205-1.355,4.496-4.646,4.496c-3.292,0-4.604-1.291-4.604-4.496v-6.928
		c0.301-0.064,0.774-0.107,1.227-0.107c0.43,0,0.946,0.021,1.27,0.107v6.842c0,1.807,0.344,2.689,2.13,2.689
		c1.764,0,2.151-0.883,2.151-2.689v-6.842c0.301-0.086,0.817-0.107,1.248-0.107c0.43,0,0.968,0.043,1.226,0.107V167.288z"/>
	<path fill="#AB9245" d="M228.299,171.784c-1.312,0-2.56-0.236-3.485-0.494c-0.064-0.302-0.086-0.603-0.086-0.904
		c0-0.322,0.043-0.71,0.129-1.011c0.883,0.322,2.174,0.538,3.12,0.538c1.248,0,2.216-0.409,2.216-1.528
		c0-0.946-0.71-1.269-2.259-1.764c-2.323-0.753-3.228-1.722-3.228-3.292c0-2.194,2.108-3.185,4.195-3.185
		c0.818,0,2.001,0.151,2.668,0.366c0.086,0.258,0.129,0.56,0.129,0.839c0,0.323-0.064,0.71-0.15,1.012
		c-0.817-0.216-1.635-0.345-2.517-0.345c-1.227,0-1.958,0.366-1.958,1.184c0,0.839,0.903,1.14,2.216,1.613
		c1.894,0.667,3.162,1.27,3.162,3.421C232.451,170.515,230.559,171.784,228.299,171.784z"/>
	<path fill="#AB9245" d="M243.121,166.793h-6.971c0.043,1.937,1.312,3.077,3.271,3.077c0.989,0,1.893-0.13,2.861-0.366
		c0.107,0.56,0.15,1.141,0.15,1.786c-1.141,0.387-2.173,0.494-3.356,0.494c-3.657,0-5.551-2.302-5.551-5.766
		c0-3.142,1.829-5.874,5.207-5.874c3.141,0,4.432,2.453,4.432,5.486C243.164,166.212,243.143,166.535,243.121,166.793z
		 M240.668,164.899c0-1.355-0.279-2.818-2-2.818c-1.614,0-2.389,1.312-2.518,2.818H240.668z"/>
	<path fill="#AB9245" d="M248.154,171.784c-1.312,0-2.56-0.236-3.485-0.494c-0.064-0.302-0.086-0.603-0.086-0.904
		c0-0.322,0.043-0.71,0.129-1.011c0.883,0.322,2.174,0.538,3.12,0.538c1.248,0,2.216-0.409,2.216-1.528
		c0-0.946-0.71-1.269-2.259-1.764c-2.323-0.753-3.228-1.722-3.228-3.292c0-2.194,2.108-3.185,4.195-3.185
		c0.818,0,2.001,0.151,2.668,0.366c0.086,0.258,0.129,0.56,0.129,0.839c0,0.323-0.064,0.71-0.15,1.012
		c-0.817-0.216-1.635-0.345-2.517-0.345c-1.227,0-1.958,0.366-1.958,1.184c0,0.839,0.903,1.14,2.216,1.613
		c1.894,0.667,3.162,1.27,3.162,3.421C252.307,170.515,250.414,171.784,248.154,171.784z"/>
</g>
<g>
	<path fill="#AB9245" d="M95.917,179.152c-0.477,0-0.85-0.374-0.85-0.85c0-0.477,0.374-0.851,0.85-0.851s0.85,0.374,0.85,0.851
		C96.768,178.778,96.394,179.152,95.917,179.152z M96.677,186.854c-0.219,0.052-0.554,0.064-0.76,0.064
		c-0.245,0-0.515-0.025-0.721-0.064v-6.71c0.231-0.038,0.502-0.064,0.721-0.064c0.257,0,0.528,0.026,0.76,0.064V186.854z"/>
	<path fill="#AB9245" d="M104.122,186.854c-0.193,0.052-0.502,0.064-0.708,0.064c-0.219,0-0.567-0.025-0.773-0.064v-3.979
		c0-0.541-0.051-0.979-0.283-1.249c-0.193-0.219-0.502-0.322-0.876-0.322c-0.541,0-1.107,0.219-1.507,0.502v5.049
		c-0.257,0.039-0.579,0.064-0.798,0.064c-0.206,0-0.477-0.013-0.695-0.064v-6.71c0.167-0.038,0.451-0.064,0.631-0.064
		c0.167,0,0.438,0.026,0.605,0.064l0.09,0.605c0.528-0.399,1.378-0.734,2.164-0.734c1.558,0,2.15,1.044,2.15,2.576V186.854z"/>
	<path fill="#AB9245" d="M114.246,186.854h-5.254v-8.706c0.232-0.038,0.515-0.064,0.786-0.064c0.283,0,0.554,0.026,0.772,0.064
		v7.405h3.696c0.052,0.193,0.077,0.451,0.077,0.657S114.298,186.635,114.246,186.854z"/>
	<path fill="#AB9245" d="M118.214,186.982c-1.88,0-3.078-1.224-3.078-3.465c0-2.24,1.197-3.503,3.078-3.503s3.078,1.25,3.078,3.49
		C121.292,185.746,120.095,186.982,118.214,186.982z M118.214,181.161c-0.992,0-1.545,0.657-1.545,2.344
		c0,1.688,0.554,2.331,1.545,2.331s1.545-0.644,1.545-2.331C119.76,181.818,119.206,181.161,118.214,181.161z"/>
	<path fill="#AB9245" d="M128.351,186.854c-0.193,0.052-0.502,0.064-0.708,0.064c-0.219,0-0.567-0.025-0.773-0.064v-3.979
		c0-0.541-0.051-0.979-0.283-1.249c-0.193-0.219-0.502-0.322-0.876-0.322c-0.541,0-1.107,0.219-1.507,0.502v5.049
		c-0.257,0.039-0.579,0.064-0.798,0.064c-0.206,0-0.477-0.013-0.695-0.064v-6.71c0.167-0.038,0.451-0.064,0.631-0.064
		c0.167,0,0.438,0.026,0.605,0.064l0.09,0.605c0.528-0.399,1.378-0.734,2.164-0.734c1.558,0,2.15,1.044,2.15,2.576V186.854z"/>
	<path fill="#AB9245" d="M135.616,186.854c-0.219,0.039-0.451,0.064-0.683,0.064c-0.193,0-0.386-0.025-0.58-0.064l-0.051-0.593
		h-0.013c-0.477,0.438-1.146,0.722-1.803,0.722c-1.906,0-2.756-1.559-2.756-3.374c0-1.881,0.799-3.594,2.937-3.594
		c0.489,0,1.018,0.104,1.455,0.349v-2.911c0.245-0.038,0.502-0.052,0.747-0.052s0.502,0.014,0.747,0.052V186.854z M134.122,181.535
		c-0.348-0.193-0.837-0.297-1.223-0.297c-1.339,0-1.636,1.211-1.636,2.318c0,0.979,0.271,2.189,1.481,2.189
		c0.489,0,1.018-0.232,1.378-0.554V181.535z"/>
	<path fill="#AB9245" d="M140.112,186.982c-1.88,0-3.078-1.224-3.078-3.465c0-2.24,1.197-3.503,3.078-3.503s3.078,1.25,3.078,3.49
		C143.19,185.746,141.992,186.982,140.112,186.982z M140.112,181.161c-0.992,0-1.545,0.657-1.545,2.344
		c0,1.688,0.554,2.331,1.545,2.331s1.545-0.644,1.545-2.331C141.657,181.818,141.104,181.161,140.112,181.161z"/>
	<path fill="#AB9245" d="M150.249,186.854c-0.193,0.052-0.503,0.064-0.709,0.064c-0.219,0-0.566-0.025-0.772-0.064v-3.979
		c0-0.541-0.052-0.979-0.283-1.249c-0.193-0.219-0.502-0.322-0.876-0.322c-0.541,0-1.107,0.219-1.507,0.502v5.049
		c-0.257,0.039-0.579,0.064-0.798,0.064c-0.206,0-0.477-0.013-0.695-0.064v-6.71c0.167-0.038,0.451-0.064,0.631-0.064
		c0.167,0,0.438,0.026,0.605,0.064l0.09,0.605c0.528-0.399,1.378-0.734,2.163-0.734c1.559,0,2.151,1.044,2.151,2.576V186.854z"/>
	<path fill="#AB9245" d="M159.652,186.918c-0.206,0-0.489-0.025-0.656-0.064c-0.039-0.206-0.064-0.477-0.077-0.67h-0.014
		c-0.412,0.489-1.185,0.799-1.932,0.799c-1.287,0-2.228-0.76-2.228-2.061c0-1.958,1.687-2.421,3.181-2.421
		c0.258,0,0.645,0.025,0.837,0.038c0-1.018-0.373-1.365-1.391-1.365c-0.592,0-1.378,0.116-1.906,0.245
		c-0.051-0.154-0.077-0.387-0.077-0.566c0-0.168,0.026-0.387,0.077-0.516c0.645-0.193,1.481-0.322,2.151-0.322
		c1.636,0,2.64,0.683,2.64,2.37v2.666c0,0.695,0.013,1.185,0.025,1.803C160.104,186.905,159.846,186.918,159.652,186.918z
		 M158.777,183.621c-0.193-0.025-0.503-0.039-0.799-0.039c-1.12,0-1.713,0.477-1.713,1.211c0,0.644,0.425,1.018,1.095,1.018
		c0.541,0,1.095-0.245,1.417-0.593V183.621z"/>
	<path fill="#AB9245" d="M167.639,186.854c-0.193,0.052-0.502,0.064-0.708,0.064c-0.219,0-0.566-0.025-0.772-0.064v-3.979
		c0-0.541-0.052-0.979-0.284-1.249c-0.192-0.219-0.502-0.322-0.875-0.322c-0.541,0-1.107,0.219-1.507,0.502v5.049
		c-0.258,0.039-0.58,0.064-0.799,0.064c-0.206,0-0.477-0.013-0.695-0.064v-6.71c0.167-0.038,0.451-0.064,0.631-0.064
		c0.168,0,0.438,0.026,0.605,0.064l0.09,0.605c0.528-0.399,1.378-0.734,2.164-0.734c1.559,0,2.15,1.044,2.15,2.576V186.854z"/>
	<path fill="#AB9245" d="M174.903,186.854c-0.219,0.039-0.45,0.064-0.683,0.064c-0.192,0-0.386-0.025-0.579-0.064l-0.052-0.593
		h-0.013c-0.477,0.438-1.146,0.722-1.803,0.722c-1.906,0-2.756-1.559-2.756-3.374c0-1.881,0.798-3.594,2.937-3.594
		c0.489,0,1.017,0.104,1.455,0.349v-2.911c0.244-0.038,0.502-0.052,0.747-0.052c0.244,0,0.502,0.014,0.746,0.052V186.854z
		 M173.41,181.535c-0.348-0.193-0.838-0.297-1.224-0.297c-1.34,0-1.636,1.211-1.636,2.318c0,0.979,0.271,2.189,1.481,2.189
		c0.489,0,1.017-0.232,1.378-0.554V181.535z"/>
	<path fill="#AB9245" d="M182.594,186.918c-0.94,0-1.957-0.013-2.781-0.064v-8.706c0.721-0.038,1.584-0.064,2.317-0.064
		c1.494,0,3.117,0.31,3.117,2.229c0,0.901-0.477,1.558-1.224,1.815v0.026c1.12,0.206,1.842,0.979,1.842,2.138
		C185.865,186.287,184.358,186.918,182.594,186.918z M182.271,179.332c-0.271,0-0.669,0.014-0.901,0.026v2.318h0.876
		c0.914,0,1.494-0.322,1.494-1.275C183.74,179.487,182.993,179.332,182.271,179.332z M182.349,182.913h-0.979v2.717
		c0.296,0.026,0.76,0.039,1.159,0.039c1.134,0,1.803-0.374,1.803-1.417C184.332,183.093,183.379,182.913,182.349,182.913z"/>
	<path fill="#AB9245" d="M188.056,179.152c-0.477,0-0.851-0.374-0.851-0.85c0-0.477,0.374-0.851,0.851-0.851s0.85,0.374,0.85,0.851
		C188.905,178.778,188.532,179.152,188.056,179.152z M188.815,186.854c-0.219,0.052-0.554,0.064-0.76,0.064
		c-0.245,0-0.516-0.025-0.722-0.064v-6.71c0.232-0.038,0.503-0.064,0.722-0.064c0.258,0,0.528,0.026,0.76,0.064V186.854z"/>
	<path fill="#AB9245" d="M194.212,181.277c-0.644,0.077-1.468,0.348-2.099,0.708v4.868c-0.193,0.052-0.489,0.064-0.747,0.064
		s-0.58-0.025-0.747-0.064v-6.71c0.167-0.025,0.412-0.064,0.618-0.064c0.193,0,0.451,0.026,0.618,0.064l0.104,0.824h0.038
		c0.541-0.502,1.442-0.901,2.202-0.953c0.025,0.116,0.052,0.361,0.052,0.618C194.251,180.813,194.238,181.097,194.212,181.277z"/>
	<path fill="#AB9245" d="M205.482,186.854c-0.193,0.052-0.502,0.064-0.708,0.064c-0.219,0-0.58-0.025-0.786-0.064v-3.979
		c0-0.502-0.038-0.876-0.193-1.133c-0.18-0.297-0.527-0.438-0.979-0.438c-0.515,0-1.159,0.245-1.558,0.528
		c0.051,0.271,0.051,0.515,0.051,0.812v4.211c-0.192,0.052-0.502,0.064-0.708,0.064c-0.219,0-0.566-0.025-0.772-0.064v-3.979
		c0-0.554-0.052-0.979-0.297-1.249c-0.192-0.219-0.489-0.322-0.85-0.322c-0.489,0-1.082,0.206-1.532,0.502v5.049
		c-0.258,0.039-0.58,0.064-0.799,0.064c-0.206,0-0.477-0.013-0.695-0.064v-6.71c0.167-0.038,0.451-0.064,0.631-0.064
		c0.168,0,0.438,0.026,0.605,0.064l0.09,0.605c0.554-0.438,1.392-0.734,2.112-0.734c0.837,0,1.455,0.335,1.803,0.812
		c0.645-0.463,1.533-0.812,2.344-0.812c0.683,0,1.353,0.232,1.727,0.657c0.438,0.502,0.515,1.172,0.515,1.971V186.854z"/>
	<path fill="#AB9245" d="M207.983,179.152c-0.477,0-0.851-0.374-0.851-0.85c0-0.477,0.374-0.851,0.851-0.851s0.85,0.374,0.85,0.851
		C208.833,178.778,208.46,179.152,207.983,179.152z M208.743,186.854c-0.219,0.052-0.554,0.064-0.76,0.064
		c-0.245,0-0.516-0.025-0.722-0.064v-6.71c0.232-0.038,0.503-0.064,0.722-0.064c0.258,0,0.528,0.026,0.76,0.064V186.854z"/>
	<path fill="#AB9245" d="M216.174,186.854c-0.193,0.052-0.502,0.064-0.708,0.064c-0.219,0-0.566-0.025-0.772-0.064v-3.979
		c0-0.541-0.052-0.979-0.284-1.249c-0.192-0.219-0.502-0.322-0.875-0.322c-0.541,0-1.107,0.219-1.507,0.502v5.049
		c-0.258,0.039-0.58,0.064-0.799,0.064c-0.206,0-0.477-0.013-0.695-0.064v-6.71c0.167-0.038,0.451-0.064,0.631-0.064
		c0.168,0,0.438,0.026,0.605,0.064l0.09,0.605c0.528-0.399,1.378-0.734,2.164-0.734c1.559,0,2.15,1.044,2.15,2.576V186.854z"/>
	<path fill="#AB9245" d="M223.35,185.707c0,1.134-0.116,2.216-0.579,3.001c-0.554,0.94-1.7,1.313-2.718,1.313
		c-0.541,0-1.249-0.103-1.765-0.271c-0.051-0.129-0.051-0.36-0.051-0.528c0-0.142,0.025-0.398,0.064-0.54
		c0.579,0.154,1.159,0.231,1.635,0.231c0.734,0,1.275-0.271,1.61-0.824c0.271-0.451,0.322-0.991,0.322-1.584v-0.129
		c-0.348,0.283-0.967,0.477-1.494,0.477c-1.906,0-2.82-1.43-2.82-3.22c0-2.318,1.287-3.619,3.412-3.619
		c0.824,0,1.777,0.181,2.383,0.399V185.707z M221.869,181.251c-0.245-0.051-0.593-0.09-0.915-0.09c-1.313,0-1.867,0.876-1.867,2.435
		c0,1.107,0.36,2.061,1.468,2.061c0.477,0,0.992-0.168,1.314-0.464V181.251z"/>
	<path fill="#AB9245" d="M230.743,182.591v4.263c-0.193,0.052-0.502,0.064-0.708,0.064c-0.219,0-0.566-0.025-0.772-0.064v-3.979
		c0-0.541-0.052-0.979-0.284-1.249c-0.192-0.219-0.502-0.322-0.875-0.322c-0.541,0-1.107,0.219-1.507,0.502v5.049
		c-0.258,0.039-0.58,0.064-0.799,0.064c-0.206,0-0.477-0.013-0.695-0.064v-9.401c0.181-0.038,0.477-0.052,0.734-0.052
		c0.257,0,0.566,0.014,0.76,0.052v3.194c0.489-0.335,1.288-0.632,1.996-0.632C230.15,180.015,230.743,181.059,230.743,182.591z"/>
	<path fill="#AB9245" d="M237.119,186.918c-0.206,0-0.489-0.025-0.656-0.064c-0.039-0.206-0.064-0.477-0.077-0.67h-0.014
		c-0.412,0.489-1.185,0.799-1.932,0.799c-1.287,0-2.228-0.76-2.228-2.061c0-1.958,1.687-2.421,3.181-2.421
		c0.258,0,0.645,0.025,0.837,0.038c0-1.018-0.373-1.365-1.391-1.365c-0.592,0-1.378,0.116-1.906,0.245
		c-0.051-0.154-0.077-0.387-0.077-0.566c0-0.168,0.026-0.387,0.077-0.516c0.645-0.193,1.481-0.322,2.151-0.322
		c1.636,0,2.64,0.683,2.64,2.37v2.666c0,0.695,0.013,1.185,0.025,1.803C237.57,186.905,237.312,186.918,237.119,186.918z
		 M236.244,183.621c-0.193-0.025-0.503-0.039-0.799-0.039c-1.12,0-1.713,0.477-1.713,1.211c0,0.644,0.425,1.018,1.095,1.018
		c0.541,0,1.095-0.245,1.417-0.593V183.621z"/>
	<path fill="#AB9245" d="M249.291,186.854c-0.193,0.052-0.502,0.064-0.708,0.064c-0.219,0-0.58-0.025-0.786-0.064v-3.979
		c0-0.502-0.038-0.876-0.193-1.133c-0.18-0.297-0.527-0.438-0.979-0.438c-0.515,0-1.159,0.245-1.558,0.528
		c0.051,0.271,0.051,0.515,0.051,0.812v4.211c-0.192,0.052-0.502,0.064-0.708,0.064c-0.219,0-0.566-0.025-0.772-0.064v-3.979
		c0-0.554-0.052-0.979-0.297-1.249c-0.192-0.219-0.489-0.322-0.85-0.322c-0.489,0-1.082,0.206-1.532,0.502v5.049
		c-0.258,0.039-0.58,0.064-0.799,0.064c-0.206,0-0.477-0.013-0.695-0.064v-6.71c0.167-0.038,0.451-0.064,0.631-0.064
		c0.168,0,0.438,0.026,0.605,0.064l0.09,0.605c0.554-0.438,1.392-0.734,2.112-0.734c0.837,0,1.455,0.335,1.803,0.812
		c0.645-0.463,1.533-0.812,2.344-0.812c0.683,0,1.353,0.232,1.727,0.657c0.438,0.502,0.515,1.172,0.515,1.971V186.854z"/>
</g>
</svg>
