<?xml version="1.0" encoding="utf-8"?>
<!-- Generator: Adobe Illustrator 16.0.0, SVG Export Plug-In . SVG Version: 6.00 Build 0)  -->
<!DOCTYPE svg PUBLIC "-//W3C//DTD SVG 1.1//EN" "http://www.w3.org/Graphics/SVG/1.1/DTD/svg11.dtd">
<svg version="1.1" id="Layer_1" xmlns="http://www.w3.org/2000/svg" xmlns:xlink="http://www.w3.org/1999/xlink" x="0px" y="0px"
	 width="300px" height="300px" viewBox="0 0 300 300" enable-background="new 0 0 300 300" xml:space="preserve">
<g>
	<path fill="#333333" d="M20.649,30.509h-8.821V14.304h8.462c0.072,0.167,0.12,0.431,0.12,0.623c0,0.216-0.048,0.479-0.12,0.624
		h-6.832v5.945h5.897c0.048,0.12,0.12,0.431,0.12,0.623s-0.048,0.456-0.12,0.647h-5.897v6.496h7.191
		c0.072,0.168,0.12,0.432,0.12,0.624C20.769,30.101,20.721,30.365,20.649,30.509z"/>
	<path fill="#333333" d="M26.307,30.749c-1.198,0-2.445-0.216-3.308-0.551c-0.072-0.168-0.12-0.456-0.12-0.671
		c0-0.144,0.048-0.503,0.096-0.647c0.887,0.359,2.158,0.647,3.212,0.647c1.822,0,2.948-0.767,2.948-2.277
		c0-1.366-0.695-1.846-2.589-2.541c-2.637-0.958-3.5-2.062-3.5-3.691c0-2.206,1.822-3.236,4.171-3.236
		c0.791,0,1.822,0.144,2.421,0.336c0.072,0.215,0.096,0.431,0.096,0.575c0,0.192-0.048,0.527-0.096,0.695
		c-0.791-0.239-1.63-0.383-2.445-0.383c-1.702,0-2.733,0.647-2.733,1.966c0,1.15,0.647,1.702,2.613,2.445
		c1.798,0.671,3.452,1.343,3.452,3.764C30.526,29.622,28.68,30.749,26.307,30.749z"/>
	<path fill="#333333" d="M39.491,30.389c-0.623,0.215-1.558,0.359-2.253,0.359c-2.374,0-3.5-1.126-3.5-3.788v-7.719h-2.158
		c-0.048-0.12-0.072-0.408-0.072-0.551c0-0.12,0.024-0.408,0.072-0.527l2.158-0.144v-3.26c0.192-0.072,0.503-0.12,0.767-0.12
		s0.599,0.048,0.791,0.12v3.26h3.524c0.048,0.12,0.096,0.479,0.096,0.6c0,0.167-0.048,0.455-0.096,0.623h-3.524v7.575
		c0,1.894,0.551,2.685,2.038,2.685c0.815,0,1.606-0.12,2.157-0.288c0.048,0.12,0.096,0.408,0.096,0.575
		C39.587,30.005,39.563,30.173,39.491,30.389z"/>
	<path fill="#333333" d="M50.111,27.44c0,0.863,0,1.942,0.048,3.068c-0.168,0.072-0.432,0.12-0.647,0.12
		c-0.191,0-0.455-0.048-0.647-0.12c-0.072-0.384-0.12-0.887-0.144-1.342h-0.024c-0.815,1.007-2.253,1.582-3.667,1.582
		c-2.229,0-4.099-1.247-4.099-3.812c0-1.462,0.599-2.541,1.534-3.212c1.055-0.743,2.445-0.982,3.931-0.982
		c0.839,0,1.534,0.048,2.158,0.144V22.19c0-2.397-0.983-3.188-2.997-3.188c-1.126,0-2.517,0.24-3.38,0.456
		c-0.048-0.12-0.096-0.384-0.096-0.624c0-0.167,0.048-0.407,0.12-0.551c1.031-0.312,2.397-0.503,3.548-0.503
		c2.853,0,4.363,1.294,4.363,4.219V27.44z M48.553,24.061c-0.695-0.096-1.415-0.144-2.038-0.144c-1.175,0-2.229,0.216-2.949,0.767
		c-0.647,0.479-1.007,1.247-1.007,2.229c0,1.75,1.127,2.589,2.685,2.589c1.294,0,2.661-0.623,3.308-1.606V24.061z"/>
	<path fill="#333333" d="M57.255,30.749c-1.103,0-2.517-0.168-3.835-0.647V13.01c0.168-0.048,0.527-0.12,0.743-0.12
		c0.384,0,0.671,0.072,0.815,0.12v6.064c0.983-0.815,2.229-1.294,3.548-1.294c3.38,0,4.794,2.901,4.794,6.137
		C63.32,28.04,61.21,30.749,57.255,30.749z M58.31,19.122c-1.198,0-2.397,0.503-3.332,1.438v8.606
		c0.647,0.24,1.462,0.383,2.158,0.383c3.332,0,4.555-2.541,4.555-5.537C61.69,21.688,61.019,19.122,58.31,19.122z"/>
	<path fill="#333333" d="M67.516,30.509c-0.264,0.072-0.527,0.12-0.815,0.12c-0.239,0-0.527-0.048-0.743-0.12V13.01
		c0.215-0.048,0.479-0.12,0.791-0.12c0.264,0,0.551,0.048,0.767,0.12V30.509z"/>
	<path fill="#333333" d="M71.687,15.575c-0.551,0-1.007-0.479-1.007-1.055c0-0.575,0.456-1.031,1.007-1.031s1.031,0.456,1.031,1.031
		C72.717,15.095,72.238,15.575,71.687,15.575z M72.478,30.509c-0.216,0.072-0.527,0.12-0.791,0.12s-0.551-0.048-0.767-0.12V18.02
		c0.192-0.048,0.503-0.12,0.743-0.12c0.264,0,0.623,0.048,0.815,0.12V30.509z"/>
	<path fill="#333333" d="M78.614,30.749c-1.198,0-2.445-0.216-3.308-0.551c-0.072-0.168-0.12-0.456-0.12-0.671
		c0-0.144,0.048-0.503,0.096-0.647c0.887,0.359,2.158,0.647,3.212,0.647c1.822,0,2.948-0.767,2.948-2.277
		c0-1.366-0.695-1.846-2.589-2.541c-2.637-0.958-3.5-2.062-3.5-3.691c0-2.206,1.822-3.236,4.171-3.236
		c0.791,0,1.822,0.144,2.421,0.336c0.072,0.215,0.096,0.431,0.096,0.575c0,0.192-0.048,0.527-0.096,0.695
		c-0.791-0.239-1.63-0.383-2.445-0.383c-1.702,0-2.733,0.647-2.733,1.966c0,1.15,0.647,1.702,2.613,2.445
		c1.798,0.671,3.452,1.343,3.452,3.764C82.833,29.622,80.988,30.749,78.614,30.749z"/>
	<path fill="#333333" d="M94.963,30.509c-0.216,0.072-0.479,0.12-0.719,0.12c-0.288,0-0.599-0.048-0.839-0.12v-7.575
		c0-2.637-0.671-3.835-2.901-3.835c-1.198,0-2.637,0.671-3.572,1.391v10.02c-0.264,0.072-0.551,0.12-0.815,0.12
		c-0.24,0-0.527-0.048-0.743-0.12V13.01c0.216-0.072,0.552-0.12,0.767-0.12c0.216,0,0.576,0.048,0.791,0.12v6.161
		c1.271-0.983,2.781-1.391,3.956-1.391c1.223,0,2.469,0.408,3.164,1.247c0.767,0.911,0.911,2.229,0.911,3.524V30.509z"/>
	<path fill="#333333" d="M115.507,30.533c-0.24,0.048-0.479,0.096-0.719,0.096c-0.288,0-0.551-0.072-0.839-0.12v-7.575
		c0-2.637-0.671-3.835-2.9-3.835c-1.151,0-2.685,0.6-3.644,1.294c0.191,0.671,0.24,1.415,0.24,2.158v7.958
		c-0.24,0.072-0.479,0.12-0.719,0.12c-0.312,0-0.6-0.048-0.839-0.12v-7.575c0-2.637-0.599-3.835-2.829-3.835
		c-1.198,0-2.613,0.671-3.548,1.391v10.02c-0.264,0.072-0.575,0.12-0.863,0.12c-0.24,0-0.503-0.048-0.695-0.12V18.02
		c0.12-0.048,0.384-0.096,0.647-0.096c0.216,0,0.479,0.048,0.647,0.096l0.12,1.247h0.024c1.318-1.079,2.829-1.486,4.051-1.486
		s2.397,0.408,3.092,1.247c0.096,0.096,0.168,0.216,0.24,0.335c1.271-1.031,2.9-1.582,4.458-1.582c1.223,0,2.469,0.408,3.165,1.247
		c0.767,0.911,0.911,2.229,0.911,3.524V30.533z"/>
	<path fill="#333333" d="M127.613,24.684h-8.03c0.096,2.757,1.39,4.842,4.387,4.842c1.079,0,2.085-0.144,2.973-0.359
		c0.048,0.12,0.096,0.359,0.096,0.503c0,0.24-0.048,0.455-0.12,0.623c-0.935,0.288-2.11,0.456-3.093,0.456
		c-1.894,0-3.332-0.599-4.219-1.558c-1.055-1.151-1.606-2.876-1.606-4.866c0-3.476,1.75-6.544,5.25-6.544
		c3.14,0,4.387,2.589,4.387,5.753C127.637,23.893,127.637,24.324,127.613,24.684z M126.079,23.533c0-2.206-0.24-4.579-2.9-4.579
		c-2.325,0-3.452,2.133-3.596,4.579H126.079z"/>
	<path fill="#333333" d="M139.84,30.533c-0.192,0.048-0.479,0.096-0.767,0.096c-0.24,0-0.551-0.048-0.791-0.12V22.91
		c0-1.15-0.144-2.038-0.479-2.661c-0.408-0.767-1.175-1.151-2.421-1.151c-1.198,0-2.637,0.671-3.572,1.391v10.02
		c-0.264,0.072-0.527,0.12-0.815,0.12c-0.24,0-0.527-0.048-0.743-0.12V18.02c0.168-0.072,0.456-0.096,0.624-0.096
		c0.24,0,0.527,0.024,0.671,0.096l0.12,1.247h0.024c1.318-1.079,2.829-1.486,4.051-1.486s2.493,0.408,3.188,1.247
		c0.767,0.911,0.911,2.229,0.911,3.524V30.533z"/>
	<path fill="#333333" d="M149.668,30.389c-0.623,0.215-1.558,0.359-2.253,0.359c-2.374,0-3.5-1.126-3.5-3.788v-7.719h-2.158
		c-0.048-0.12-0.072-0.408-0.072-0.551c0-0.12,0.024-0.408,0.072-0.527l2.158-0.144v-3.26c0.192-0.072,0.503-0.12,0.767-0.12
		s0.599,0.048,0.791,0.12v3.26h3.524c0.048,0.12,0.096,0.479,0.096,0.6c0,0.167-0.048,0.455-0.096,0.623h-3.524v7.575
		c0,1.894,0.551,2.685,2.038,2.685c0.815,0,1.606-0.12,2.157-0.288c0.048,0.12,0.096,0.408,0.096,0.575
		C149.764,30.005,149.74,30.173,149.668,30.389z"/>
	<path fill="#333333" d="M161.727,30.749c-3.141,0-5.154-2.158-5.154-6.472c0-4.315,2.038-6.497,5.178-6.497
		c3.141,0,5.13,2.134,5.13,6.448C166.88,28.543,164.867,30.749,161.727,30.749z M161.75,18.955c-2.301,0-3.547,1.774-3.547,5.298
		c0,3.523,1.222,5.321,3.523,5.321c2.301,0,3.523-1.798,3.523-5.321C165.25,20.729,164.052,18.955,161.75,18.955z"/>
	<path fill="#333333" d="M176.518,14.041c-0.36-0.096-1.007-0.192-1.511-0.192c-0.911,0-1.582,0.24-2.037,0.743
		c-0.695,0.743-0.815,1.75-0.815,3.021v0.407h3.38c0.048,0.12,0.096,0.408,0.096,0.575c0,0.192-0.048,0.479-0.096,0.647h-3.38
		v11.267c-0.216,0.072-0.455,0.12-0.768,0.12c-0.312,0-0.575-0.048-0.791-0.12V19.242h-2.157c-0.048-0.12-0.071-0.432-0.071-0.575
		c0-0.12,0.023-0.384,0.071-0.503l2.157-0.144v-0.407c0-1.702,0.288-2.877,1.271-3.86c0.695-0.695,1.727-1.031,2.901-1.031
		c0.623,0,1.318,0.144,1.75,0.312c0.048,0.12,0.071,0.288,0.071,0.455C176.589,13.633,176.565,13.92,176.518,14.041z"/>
	<path fill="#333333" d="M190.277,30.389c-0.624,0.215-1.559,0.359-2.254,0.359c-2.373,0-3.5-1.126-3.5-3.788v-7.719h-2.157
		c-0.048-0.12-0.071-0.408-0.071-0.551c0-0.12,0.023-0.408,0.071-0.527l2.157-0.144v-3.26c0.192-0.072,0.504-0.12,0.768-0.12
		s0.6,0.048,0.791,0.12v3.26h3.523c0.048,0.12,0.097,0.479,0.097,0.6c0,0.167-0.049,0.455-0.097,0.623h-3.523v7.575
		c0,1.894,0.552,2.685,2.037,2.685c0.815,0,1.606-0.12,2.158-0.288c0.048,0.12,0.096,0.408,0.096,0.575
		C190.373,30.005,190.349,30.173,190.277,30.389z"/>
	<path fill="#333333" d="M202.191,30.509c-0.216,0.072-0.479,0.12-0.719,0.12c-0.288,0-0.6-0.048-0.84-0.12v-7.575
		c0-2.637-0.671-3.835-2.9-3.835c-1.198,0-2.637,0.671-3.571,1.391v10.02c-0.264,0.072-0.552,0.12-0.815,0.12
		c-0.239,0-0.527-0.048-0.743-0.12V13.01c0.216-0.072,0.552-0.12,0.768-0.12s0.575,0.048,0.791,0.12v6.161
		c1.271-0.983,2.78-1.391,3.955-1.391c1.223,0,2.469,0.408,3.164,1.247c0.768,0.911,0.911,2.229,0.911,3.524V30.509z"/>
	<path fill="#333333" d="M214.298,24.684h-8.031c0.097,2.757,1.391,4.842,4.388,4.842c1.078,0,2.085-0.144,2.972-0.359
		c0.048,0.12,0.097,0.359,0.097,0.503c0,0.24-0.049,0.455-0.12,0.623c-0.936,0.288-2.109,0.456-3.093,0.456
		c-1.894,0-3.332-0.599-4.219-1.558c-1.055-1.151-1.606-2.876-1.606-4.866c0-3.476,1.75-6.544,5.25-6.544
		c3.141,0,4.387,2.589,4.387,5.753C214.321,23.893,214.321,24.324,214.298,24.684z M212.764,23.533c0-2.206-0.24-4.579-2.901-4.579
		c-2.325,0-3.451,2.133-3.596,4.579H212.764z"/>
	<path fill="#333333" d="M231.797,30.533c-0.191,0.048-0.479,0.096-0.768,0.096c-0.239,0-0.551-0.048-0.791-0.12V22.91
		c0-1.15-0.144-2.038-0.479-2.661c-0.407-0.767-1.174-1.151-2.421-1.151c-1.198,0-2.637,0.671-3.571,1.391v10.02
		c-0.264,0.072-0.527,0.12-0.815,0.12c-0.239,0-0.527-0.048-0.743-0.12V18.02c0.168-0.072,0.456-0.096,0.623-0.096
		c0.24,0,0.527,0.024,0.672,0.096l0.119,1.247h0.024c1.318-1.079,2.829-1.486,4.051-1.486c1.223,0,2.493,0.408,3.188,1.247
		c0.768,0.911,0.911,2.229,0.911,3.524V30.533z"/>
	<path fill="#333333" d="M243.903,24.684h-8.031c0.097,2.757,1.391,4.842,4.388,4.842c1.078,0,2.085-0.144,2.972-0.359
		c0.048,0.12,0.097,0.359,0.097,0.503c0,0.24-0.049,0.455-0.12,0.623c-0.936,0.288-2.109,0.456-3.093,0.456
		c-1.894,0-3.332-0.599-4.219-1.558c-1.055-1.151-1.606-2.876-1.606-4.866c0-3.476,1.75-6.544,5.25-6.544
		c3.141,0,4.387,2.589,4.387,5.753C243.927,23.893,243.927,24.324,243.903,24.684z M242.369,23.533c0-2.206-0.24-4.579-2.901-4.579
		c-2.325,0-3.451,2.133-3.596,4.579H242.369z"/>
	<path fill="#333333" d="M261.067,20.489l-3.213,10.02c-0.191,0.072-0.551,0.12-0.743,0.12c-0.216,0-0.575-0.048-0.743-0.12
		l-2.876-9.685h-0.048l-3.021,9.685c-0.216,0.072-0.552,0.12-0.743,0.12c-0.192,0-0.504-0.048-0.72-0.12l-2.972-9.876
		c-0.264-0.815-0.384-1.75-0.408-2.637c0.192-0.048,0.575-0.096,0.815-0.096c0.264,0,0.503,0.048,0.719,0.12
		c0.024,0.863,0.168,1.774,0.384,2.565l2.182,7.791h0.023l3.116-10.38c0.168-0.048,0.504-0.072,0.672-0.072s0.527,0.024,0.671,0.072
		l2.948,10.38h0.024l2.397-7.767c0.264-0.887,0.455-1.726,0.503-2.589c0.168-0.072,0.575-0.12,0.791-0.12s0.552,0.048,0.695,0.12
		C261.522,18.834,261.331,19.65,261.067,20.489z"/>
</g>
<g>
	<path fill="#333333" d="M21.776,42.471c-0.911-0.24-2.229-0.456-3.308-0.456c-3.956,0-5.585,3.14-5.585,7.096
		c0,3.907,1.558,6.952,5.441,6.952c1.271,0,2.565-0.192,3.428-0.479c0.048,0.144,0.072,0.383,0.072,0.575
		c0,0.24-0.024,0.551-0.072,0.695c-0.863,0.288-2.085,0.527-3.476,0.527c-4.363,0-7.12-2.637-7.12-8.246
		c0-5.058,2.661-8.438,7.144-8.438c1.294,0,2.661,0.24,3.452,0.551c0.072,0.192,0.096,0.432,0.096,0.647
		C21.848,42.04,21.824,42.303,21.776,42.471z"/>
	<path fill="#333333" d="M28.776,57.381c-3.14,0-5.154-2.158-5.154-6.472c0-4.315,2.038-6.497,5.178-6.497s5.13,2.134,5.13,6.448
		C33.93,55.176,31.916,57.381,28.776,57.381z M28.8,45.587c-2.301,0-3.548,1.774-3.548,5.298c0,3.523,1.223,5.321,3.524,5.321
		s3.524-1.798,3.524-5.321C32.3,47.361,31.101,45.587,28.8,45.587z"/>
	<path fill="#333333" d="M45.533,55.056c0,1.798-0.096,3.955-0.959,5.441c-1.031,1.774-2.876,2.541-4.722,2.541
		c-1.055,0-1.966-0.12-2.733-0.383c-0.072-0.144-0.096-0.384-0.096-0.576c0-0.144,0.048-0.431,0.096-0.575
		c0.743,0.192,1.606,0.335,2.469,0.335c3.021,0,4.387-1.87,4.387-5.154v-1.007c-0.935,0.983-2.253,1.462-3.332,1.462
		c-3.188,0-4.842-2.469-4.842-5.945c0-4.267,2.517-6.784,6.232-6.784c0.983,0,2.469,0.288,3.5,0.695V55.056z M43.975,45.875
		c-0.863-0.24-1.486-0.312-2.086-0.312c-3.044,0-4.482,2.565-4.482,5.561c0,2.661,1.007,4.747,3.356,4.747
		c1.199,0,2.421-0.599,3.212-1.438V45.875z"/>
	<path fill="#333333" d="M58.381,57.166c-0.192,0.048-0.479,0.096-0.767,0.096c-0.24,0-0.551-0.048-0.791-0.12v-7.599
		c0-1.15-0.144-2.038-0.479-2.661c-0.408-0.767-1.175-1.151-2.421-1.151c-1.198,0-2.637,0.671-3.572,1.391v10.02
		c-0.264,0.072-0.527,0.12-0.815,0.12c-0.24,0-0.527-0.048-0.743-0.12V44.652c0.168-0.072,0.456-0.096,0.624-0.096
		c0.24,0,0.527,0.024,0.671,0.096l0.12,1.247h0.024c1.318-1.079,2.829-1.486,4.051-1.486s2.493,0.408,3.188,1.247
		c0.767,0.911,0.911,2.229,0.911,3.524V57.166z"/>
	<path fill="#333333" d="M62.433,42.208c-0.551,0-1.007-0.479-1.007-1.055c0-0.575,0.456-1.031,1.007-1.031s1.031,0.456,1.031,1.031
		C63.464,41.728,62.984,42.208,62.433,42.208z M63.224,57.142c-0.216,0.072-0.527,0.12-0.791,0.12s-0.551-0.048-0.767-0.12V44.652
		c0.191-0.048,0.503-0.12,0.743-0.12c0.264,0,0.623,0.048,0.815,0.12V57.142z"/>
	<path fill="#333333" d="M73.22,57.022c-0.623,0.215-1.558,0.359-2.253,0.359c-2.374,0-3.5-1.126-3.5-3.788v-7.719H65.31
		c-0.048-0.12-0.072-0.408-0.072-0.551c0-0.12,0.024-0.408,0.072-0.527l2.158-0.144v-3.26c0.192-0.072,0.503-0.12,0.767-0.12
		s0.599,0.048,0.791,0.12v3.26h3.524c0.048,0.12,0.096,0.479,0.096,0.6c0,0.167-0.048,0.455-0.096,0.623h-3.524v7.575
		c0,1.894,0.551,2.685,2.038,2.685c0.815,0,1.606-0.12,2.157-0.288c0.048,0.12,0.096,0.408,0.096,0.575
		C73.316,56.638,73.292,56.806,73.22,57.022z"/>
	<path fill="#333333" d="M76.409,42.208c-0.551,0-1.007-0.479-1.007-1.055c0-0.575,0.456-1.031,1.007-1.031s1.031,0.456,1.031,1.031
		C77.44,41.728,76.96,42.208,76.409,42.208z M77.2,57.142c-0.216,0.072-0.527,0.12-0.791,0.12s-0.551-0.048-0.767-0.12V44.652
		c0.192-0.048,0.503-0.12,0.743-0.12c0.264,0,0.623,0.048,0.815,0.12V57.142z"/>
	<path fill="#333333" d="M89.018,47.697l-3.763,9.445c-0.216,0.072-0.456,0.12-0.647,0.12c-0.264,0-0.479-0.048-0.671-0.12
		l-3.884-9.445c-0.431-1.079-0.623-2.157-0.623-3.044c0.192-0.048,0.527-0.12,0.743-0.12c0.288,0,0.575,0.048,0.815,0.12
		c0.024,0.815,0.12,1.75,0.479,2.613l3.116,7.911h0.048l3.021-7.911c0.335-0.839,0.503-1.774,0.503-2.613
		c0.168-0.072,0.527-0.12,0.839-0.12c0.168,0,0.479,0.024,0.695,0.096C89.666,45.491,89.498,46.522,89.018,47.697z"/>
	<path fill="#333333" d="M100.621,51.316h-8.03c0.096,2.757,1.39,4.842,4.387,4.842c1.079,0,2.085-0.144,2.973-0.359
		c0.048,0.12,0.096,0.359,0.096,0.503c0,0.24-0.048,0.455-0.12,0.623c-0.935,0.288-2.11,0.456-3.093,0.456
		c-1.894,0-3.332-0.599-4.219-1.558c-1.055-1.151-1.606-2.876-1.606-4.866c0-3.476,1.75-6.544,5.25-6.544
		c3.14,0,4.387,2.589,4.387,5.753C100.645,50.525,100.645,50.957,100.621,51.316z M99.086,50.166c0-2.206-0.24-4.579-2.9-4.579
		c-2.325,0-3.452,2.133-3.596,4.579H99.086z"/>
	<path fill="#333333" d="M120.541,57.142c-0.191,0.072-0.503,0.12-0.839,0.12c-0.288,0-0.647-0.048-0.863-0.12l-1.462-4.195h-6.688
		l-1.415,4.219c-0.167,0.048-0.551,0.096-0.815,0.096c-0.288,0-0.599-0.048-0.839-0.12l5.513-16.205
		c0.264-0.072,0.576-0.12,0.815-0.12c0.264,0,0.551,0.048,0.767,0.12L120.541,57.142z M114.692,45.324
		c-0.239-0.647-0.527-1.582-0.743-2.421c-0.24,0.815-0.527,1.774-0.743,2.421l-2.11,6.353h5.825L114.692,45.324z"/>
	<path fill="#333333" d="M132.24,57.166c-0.192,0.048-0.479,0.096-0.767,0.096c-0.24,0-0.551-0.048-0.791-0.12v-7.599
		c0-1.15-0.144-2.038-0.479-2.661c-0.408-0.767-1.175-1.151-2.421-1.151c-1.198,0-2.637,0.671-3.572,1.391v10.02
		c-0.264,0.072-0.527,0.12-0.815,0.12c-0.24,0-0.527-0.048-0.743-0.12V44.652c0.168-0.072,0.456-0.096,0.624-0.096
		c0.24,0,0.527,0.024,0.671,0.096l0.12,1.247h0.024c1.318-1.079,2.829-1.486,4.051-1.486s2.493,0.408,3.188,1.247
		c0.767,0.911,0.911,2.229,0.911,3.524V57.166z"/>
	<path fill="#333333" d="M143.962,54.073c0,0.863,0,1.942,0.048,3.068c-0.168,0.072-0.432,0.12-0.647,0.12
		c-0.191,0-0.455-0.048-0.647-0.12c-0.072-0.384-0.12-0.887-0.144-1.342h-0.024c-0.815,1.007-2.253,1.582-3.667,1.582
		c-2.229,0-4.099-1.247-4.099-3.812c0-1.462,0.599-2.541,1.534-3.212c1.055-0.743,2.445-0.982,3.931-0.982
		c0.839,0,1.534,0.048,2.158,0.144v-0.695c0-2.397-0.983-3.188-2.997-3.188c-1.126,0-2.517,0.24-3.38,0.456
		c-0.048-0.12-0.096-0.384-0.096-0.624c0-0.167,0.048-0.407,0.12-0.551c1.031-0.312,2.397-0.503,3.548-0.503
		c2.853,0,4.363,1.294,4.363,4.219V54.073z M142.404,50.693c-0.695-0.096-1.415-0.144-2.038-0.144c-1.175,0-2.229,0.216-2.949,0.767
		c-0.647,0.479-1.007,1.247-1.007,2.229c0,1.75,1.127,2.589,2.685,2.589c1.294,0,2.661-0.623,3.308-1.606V50.693z"/>
	<path fill="#333333" d="M148.877,57.142c-0.264,0.072-0.527,0.12-0.815,0.12c-0.239,0-0.527-0.048-0.743-0.12V39.643
		c0.215-0.048,0.479-0.12,0.791-0.12c0.264,0,0.551,0.048,0.767,0.12V57.142z"/>
	<path fill="#333333" d="M161.485,55.056c0,2.325-0.096,3.979-0.935,5.465c-0.959,1.702-2.853,2.517-4.555,2.517
		c-1.246,0-2.109-0.12-2.876-0.383c-0.072-0.144-0.097-0.384-0.097-0.576c0-0.144,0.048-0.455,0.097-0.599
		c0.719,0.216,1.582,0.383,2.732,0.383c2.637,0,4.075-1.894,4.075-5.178v-0.839c-1.223,1.079-2.589,1.534-3.836,1.534
		c-1.342,0-2.396-0.335-3.068-1.151c-0.743-0.887-0.839-2.181-0.839-3.476v-8.103c0.192-0.048,0.504-0.12,0.743-0.12
		c0.288,0,0.6,0.072,0.815,0.12v7.839c0,1.15,0.096,2.109,0.527,2.757c0.384,0.551,1.007,0.839,1.941,0.839
		c1.486,0,2.9-0.791,3.716-1.582v-9.853c0.216-0.048,0.527-0.12,0.814-0.12c0.24,0,0.552,0.072,0.743,0.12V55.056z"/>
	<path fill="#333333" d="M171.267,57.022c-0.624,0.215-1.559,0.359-2.254,0.359c-2.373,0-3.5-1.126-3.5-3.788v-7.719h-2.157
		c-0.048-0.12-0.071-0.408-0.071-0.551c0-0.12,0.023-0.408,0.071-0.527l2.157-0.144v-3.26c0.192-0.072,0.504-0.12,0.768-0.12
		s0.6,0.048,0.791,0.12v3.26h3.523c0.048,0.12,0.097,0.479,0.097,0.6c0,0.167-0.049,0.455-0.097,0.623h-3.523v7.575
		c0,1.894,0.552,2.685,2.037,2.685c0.815,0,1.606-0.12,2.158-0.288c0.048,0.12,0.096,0.408,0.096,0.575
		C171.362,56.638,171.338,56.806,171.267,57.022z"/>
	<path fill="#333333" d="M174.455,42.208c-0.552,0-1.007-0.479-1.007-1.055c0-0.575,0.455-1.031,1.007-1.031
		c0.551,0,1.03,0.456,1.03,1.031C175.485,41.728,175.006,42.208,174.455,42.208z M175.246,57.142
		c-0.216,0.072-0.527,0.12-0.791,0.12s-0.552-0.048-0.768-0.12V44.652c0.192-0.048,0.504-0.12,0.743-0.12
		c0.264,0,0.624,0.048,0.815,0.12V57.142z"/>
	<path fill="#333333" d="M186.465,46.163c-0.768-0.312-1.774-0.503-2.661-0.503c-3.116,0-4.267,2.421-4.267,5.346
		c0,2.876,1.103,5.106,4.242,5.106c0.839,0,1.846-0.144,2.589-0.359c0.048,0.144,0.097,0.312,0.097,0.503
		c0,0.288-0.049,0.503-0.12,0.671c-0.695,0.288-1.822,0.456-2.709,0.456c-3.907,0-5.729-2.565-5.729-6.329
		c0-3.907,1.99-6.64,5.802-6.64c0.91,0,1.989,0.216,2.732,0.551c0.072,0.192,0.096,0.384,0.096,0.6
		C186.536,45.803,186.513,45.995,186.465,46.163z"/>
	<path fill="#333333" d="M191.812,57.381c-1.199,0-2.445-0.216-3.309-0.551c-0.071-0.168-0.12-0.456-0.12-0.671
		c0-0.144,0.049-0.503,0.097-0.647c0.887,0.359,2.157,0.647,3.212,0.647c1.821,0,2.948-0.767,2.948-2.277
		c0-1.366-0.695-1.846-2.589-2.541c-2.637-0.958-3.5-2.062-3.5-3.691c0-2.206,1.822-3.236,4.171-3.236
		c0.791,0,1.822,0.144,2.422,0.336c0.071,0.215,0.096,0.431,0.096,0.575c0,0.192-0.048,0.527-0.096,0.695
		c-0.791-0.239-1.631-0.383-2.445-0.383c-1.702,0-2.732,0.647-2.732,1.966c0,1.15,0.646,1.702,2.612,2.445
		c1.798,0.671,3.452,1.343,3.452,3.764C196.03,56.255,194.185,57.381,191.812,57.381z"/>
	<path fill="#333333" d="M214.32,57.142c-0.168,0.072-0.551,0.12-0.814,0.12c-0.288,0-0.695-0.048-1.007-0.12l-3.692-6.544
		c-0.264,0.024-0.527,0.024-0.814,0.024h-2.109v6.521c-0.192,0.072-0.575,0.12-0.839,0.12s-0.6-0.048-0.792-0.12V40.937
		c1.056-0.048,2.35-0.12,3.524-0.12c3.452,0,5.753,1.127,5.753,4.842c0,2.277-1.078,3.931-3.164,4.603L214.32,57.142z
		 M208.063,42.016c-0.599,0-1.653,0.024-2.181,0.072v7.288h2.205c2.445,0,3.787-1.079,3.787-3.74
		C211.875,42.999,210.533,42.016,208.063,42.016z"/>
	<path fill="#333333" d="M225.828,51.316h-8.031c0.097,2.757,1.391,4.842,4.387,4.842c1.079,0,2.086-0.144,2.973-0.359
		c0.048,0.12,0.096,0.359,0.096,0.503c0,0.24-0.048,0.455-0.119,0.623c-0.936,0.288-2.109,0.456-3.093,0.456
		c-1.894,0-3.332-0.599-4.219-1.558c-1.055-1.151-1.606-2.876-1.606-4.866c0-3.476,1.75-6.544,5.25-6.544
		c3.141,0,4.387,2.589,4.387,5.753C225.852,50.525,225.852,50.957,225.828,51.316z M224.294,50.166c0-2.206-0.24-4.579-2.901-4.579
		c-2.325,0-3.451,2.133-3.596,4.579H224.294z"/>
	<path fill="#333333" d="M231.246,57.381c-1.199,0-2.445-0.216-3.309-0.551c-0.071-0.168-0.12-0.456-0.12-0.671
		c0-0.144,0.049-0.503,0.097-0.647c0.887,0.359,2.157,0.647,3.212,0.647c1.821,0,2.948-0.767,2.948-2.277
		c0-1.366-0.695-1.846-2.589-2.541c-2.637-0.958-3.5-2.062-3.5-3.691c0-2.206,1.822-3.236,4.171-3.236
		c0.791,0,1.822,0.144,2.422,0.336c0.071,0.215,0.096,0.431,0.096,0.575c0,0.192-0.048,0.527-0.096,0.695
		c-0.791-0.239-1.631-0.383-2.445-0.383c-1.702,0-2.732,0.647-2.732,1.966c0,1.15,0.646,1.702,2.612,2.445
		c1.798,0.671,3.452,1.343,3.452,3.764C235.465,56.255,233.619,57.381,231.246,57.381z"/>
	<path fill="#333333" d="M246.924,51.316h-8.031c0.097,2.757,1.391,4.842,4.387,4.842c1.079,0,2.086-0.144,2.973-0.359
		c0.048,0.12,0.096,0.359,0.096,0.503c0,0.24-0.048,0.455-0.119,0.623c-0.936,0.288-2.109,0.456-3.093,0.456
		c-1.894,0-3.332-0.599-4.219-1.558c-1.055-1.151-1.606-2.876-1.606-4.866c0-3.476,1.75-6.544,5.25-6.544
		c3.141,0,4.387,2.589,4.387,5.753C246.947,50.525,246.947,50.957,246.924,51.316z M245.39,50.166c0-2.206-0.24-4.579-2.901-4.579
		c-2.325,0-3.451,2.133-3.596,4.579H245.39z"/>
	<path fill="#333333" d="M258.095,54.073c0,0.863,0,1.942,0.048,3.068c-0.168,0.072-0.432,0.12-0.647,0.12
		c-0.191,0-0.455-0.048-0.647-0.12c-0.071-0.384-0.119-0.887-0.144-1.342h-0.023c-0.815,1.007-2.254,1.582-3.668,1.582
		c-2.229,0-4.1-1.247-4.1-3.812c0-1.462,0.6-2.541,1.534-3.212c1.055-0.743,2.445-0.982,3.932-0.982
		c0.839,0,1.534,0.048,2.157,0.144v-0.695c0-2.397-0.982-3.188-2.996-3.188c-1.127,0-2.517,0.24-3.38,0.456
		c-0.048-0.12-0.096-0.384-0.096-0.624c0-0.167,0.048-0.407,0.119-0.551c1.031-0.312,2.397-0.503,3.548-0.503
		c2.853,0,4.363,1.294,4.363,4.219V54.073z M256.536,50.693c-0.695-0.096-1.414-0.144-2.037-0.144c-1.175,0-2.229,0.216-2.948,0.767
		c-0.647,0.479-1.007,1.247-1.007,2.229c0,1.75,1.126,2.589,2.685,2.589c1.294,0,2.661-0.623,3.308-1.606V50.693z"/>
	<path fill="#333333" d="M266.988,45.803c-1.391,0.191-2.901,0.695-4.027,1.558v9.78c-0.24,0.072-0.527,0.12-0.791,0.12
		s-0.527-0.048-0.768-0.12V44.652c0.144-0.048,0.359-0.096,0.6-0.096c0.191,0,0.455,0.048,0.647,0.096l0.119,1.534h0.024
		c1.03-0.887,2.828-1.63,4.195-1.774c0.048,0.144,0.096,0.408,0.096,0.624C267.084,45.276,267.036,45.587,266.988,45.803z"/>
	<path fill="#333333" d="M276.673,46.163c-0.768-0.312-1.774-0.503-2.661-0.503c-3.116,0-4.267,2.421-4.267,5.346
		c0,2.876,1.103,5.106,4.242,5.106c0.839,0,1.846-0.144,2.589-0.359c0.048,0.144,0.097,0.312,0.097,0.503
		c0,0.288-0.049,0.503-0.12,0.671c-0.695,0.288-1.822,0.456-2.709,0.456c-3.907,0-5.729-2.565-5.729-6.329
		c0-3.907,1.99-6.64,5.802-6.64c0.91,0,1.989,0.216,2.732,0.551c0.072,0.192,0.096,0.384,0.096,0.6
		C276.744,45.803,276.721,45.995,276.673,46.163z"/>
	<path fill="#333333" d="M288.827,57.142c-0.216,0.072-0.479,0.12-0.719,0.12c-0.288,0-0.6-0.048-0.84-0.12v-7.575
		c0-2.637-0.671-3.835-2.9-3.835c-1.198,0-2.637,0.671-3.571,1.391v10.02c-0.264,0.072-0.552,0.12-0.815,0.12
		c-0.239,0-0.527-0.048-0.743-0.12V39.643c0.216-0.072,0.552-0.12,0.768-0.12s0.575,0.048,0.791,0.12v6.161
		c1.271-0.983,2.78-1.391,3.955-1.391c1.223,0,2.469,0.408,3.164,1.247c0.768,0.911,0.911,2.229,0.911,3.524V57.142z"/>
</g>
<g>
	<path fill="#333333" d="M20.577,83.774h-8.75V67.57c0.192-0.072,0.551-0.12,0.815-0.12s0.624,0.048,0.815,0.12v14.958h7.12
		c0.072,0.144,0.12,0.432,0.12,0.647C20.697,83.367,20.649,83.63,20.577,83.774z"/>
	<path fill="#333333" d="M31.629,80.706c0,0.863,0,1.942,0.048,3.068c-0.168,0.072-0.432,0.12-0.647,0.12
		c-0.191,0-0.455-0.048-0.647-0.12c-0.072-0.384-0.12-0.887-0.144-1.342h-0.024c-0.815,1.007-2.253,1.582-3.667,1.582
		c-2.229,0-4.099-1.247-4.099-3.812c0-1.462,0.599-2.541,1.534-3.212c1.055-0.743,2.445-0.982,3.931-0.982
		c0.839,0,1.534,0.048,2.158,0.144v-0.695c0-2.397-0.983-3.188-2.997-3.188c-1.126,0-2.517,0.24-3.38,0.456
		c-0.048-0.12-0.096-0.384-0.096-0.624c0-0.167,0.048-0.407,0.12-0.551c1.031-0.312,2.397-0.503,3.548-0.503
		c2.853,0,4.363,1.294,4.363,4.219V80.706z M30.071,77.326c-0.695-0.096-1.415-0.144-2.038-0.144c-1.175,0-2.229,0.216-2.949,0.767
		c-0.647,0.479-1.007,1.247-1.007,2.229c0,1.75,1.127,2.589,2.685,2.589c1.294,0,2.661-0.623,3.308-1.606V77.326z"/>
	<path fill="#333333" d="M38.772,84.014c-1.103,0-2.517-0.168-3.835-0.647V66.275c0.168-0.048,0.527-0.12,0.743-0.12
		c0.384,0,0.671,0.072,0.815,0.12v6.064c0.983-0.815,2.229-1.294,3.548-1.294c3.38,0,4.794,2.901,4.794,6.137
		C44.837,81.305,42.728,84.014,38.772,84.014z M39.827,72.388c-1.198,0-2.397,0.503-3.332,1.438v8.606
		c0.647,0.24,1.462,0.383,2.158,0.383c3.332,0,4.555-2.541,4.555-5.537C43.208,74.953,42.536,72.388,39.827,72.388z"/>
	<path fill="#333333" d="M56.416,86.435c-2.661-2.661-4.027-6.352-4.027-9.756c0-3.763,1.438-7.215,4.027-9.876
		c0.264,0.072,0.527,0.215,0.719,0.407c-2.229,2.853-3.212,6.161-3.212,9.421c0,3.236,0.983,6.448,3.212,9.397
		C56.943,86.22,56.68,86.363,56.416,86.435z"/>
	<path fill="#333333" d="M69.769,69.104c-0.911-0.24-2.229-0.456-3.308-0.456c-3.956,0-5.585,3.14-5.585,7.096
		c0,3.907,1.558,6.952,5.441,6.952c1.271,0,2.565-0.192,3.428-0.479c0.048,0.144,0.072,0.383,0.072,0.575
		c0,0.24-0.024,0.551-0.072,0.695c-0.863,0.288-2.085,0.527-3.476,0.527c-4.363,0-7.12-2.637-7.12-8.246
		c0-5.058,2.661-8.438,7.144-8.438c1.294,0,2.661,0.24,3.452,0.551c0.072,0.192,0.096,0.432,0.096,0.647
		C69.84,68.672,69.816,68.936,69.769,69.104z"/>
	<path fill="#333333" d="M84.799,83.774c-0.191,0.072-0.503,0.12-0.839,0.12c-0.288,0-0.647-0.048-0.863-0.12l-1.462-4.195h-6.688
		l-1.415,4.219c-0.167,0.048-0.551,0.096-0.815,0.096c-0.288,0-0.599-0.048-0.839-0.12l5.513-16.205
		c0.264-0.072,0.576-0.12,0.815-0.12c0.264,0,0.551,0.048,0.767,0.12L84.799,83.774z M78.95,71.957
		c-0.239-0.647-0.527-1.582-0.743-2.421c-0.24,0.815-0.527,1.774-0.743,2.421l-2.11,6.353h5.825L78.95,71.957z"/>
	<path fill="#333333" d="M97.384,83.774c-0.167,0.072-0.551,0.12-0.815,0.12c-0.288,0-0.695-0.048-1.007-0.12l-3.691-6.544
		c-0.264,0.024-0.527,0.024-0.815,0.024h-2.11v6.521c-0.191,0.072-0.575,0.12-0.839,0.12s-0.599-0.048-0.791-0.12V67.57
		c1.055-0.048,2.349-0.12,3.524-0.12c3.452,0,5.753,1.127,5.753,4.842c0,2.277-1.079,3.931-3.164,4.603L97.384,83.774z
		 M91.128,68.648c-0.599,0-1.654,0.024-2.182,0.072v7.288h2.206c2.445,0,3.788-1.079,3.788-3.74
		C94.939,69.631,93.597,68.648,91.128,68.648z"/>
	<path fill="#333333" d="M109.131,83.774h-8.75V67.57c0.192-0.072,0.551-0.12,0.815-0.12s0.624,0.048,0.815,0.12v14.958h7.12
		c0.072,0.144,0.12,0.432,0.12,0.647C109.251,83.367,109.203,83.63,109.131,83.774z"/>
	<path fill="#333333" d="M114.573,76.631c0-3.26-0.983-6.568-3.212-9.421c0.192-0.192,0.456-0.335,0.719-0.407
		c2.589,2.661,4.027,6.113,4.027,9.876c0,3.404-1.367,7.096-4.027,9.756c-0.264-0.072-0.527-0.215-0.719-0.407
		C113.59,83.079,114.573,79.867,114.573,76.631z"/>
	<path fill="#333333" d="M118.169,87.49c-0.144-0.12-0.335-0.408-0.408-0.6c0.983-0.791,1.726-1.678,1.966-2.661
		c-0.503-0.264-0.911-0.767-0.911-1.391c0-0.671,0.527-1.174,1.127-1.174c0.767,0,1.318,0.695,1.318,1.534
		C121.262,84.542,120.159,86.244,118.169,87.49z"/>
	<path fill="#333333" d="M137.921,83.894c-0.216,0-0.479-0.072-0.623-0.12l-0.144-1.438h-0.024c-1.031,1.079-2.253,1.678-3.62,1.678
		c-3.308,0-4.89-2.757-4.89-6.113c0-3.332,1.414-6.856,5.226-6.856c1.199,0,2.301,0.408,3.188,1.031v-5.801
		c0.215-0.072,0.503-0.12,0.767-0.12c0.288,0,0.575,0.072,0.791,0.12v17.499C138.425,83.846,138.185,83.894,137.921,83.894z
		 M137.035,73.395c-0.863-0.719-1.966-1.079-3.093-1.079c-2.78,0-3.715,2.733-3.715,5.514c0,2.133,0.671,4.914,3.356,4.914
		c1.294,0,2.613-0.647,3.452-1.654V73.395z"/>
	<path fill="#333333" d="M150.771,77.949h-8.03c0.096,2.757,1.39,4.842,4.387,4.842c1.079,0,2.085-0.144,2.973-0.359
		c0.048,0.12,0.096,0.359,0.096,0.503c0,0.24-0.048,0.455-0.12,0.623c-0.935,0.288-2.11,0.456-3.093,0.456
		c-1.894,0-3.332-0.599-4.219-1.558c-1.055-1.151-1.606-2.876-1.606-4.866c0-3.476,1.75-6.544,5.25-6.544
		c3.14,0,4.387,2.589,4.387,5.753C150.794,77.158,150.794,77.59,150.771,77.949z M149.236,76.799c0-2.206-0.24-4.579-2.9-4.579
		c-2.325,0-3.452,2.133-3.596,4.579H149.236z"/>
	<path fill="#333333" d="M155.015,83.774c-0.264,0.072-0.527,0.12-0.815,0.12c-0.239,0-0.527-0.048-0.743-0.12V66.275
		c0.216-0.048,0.479-0.12,0.791-0.12c0.264,0,0.552,0.048,0.768,0.12V83.774z"/>
	<path fill="#333333" d="M159.186,68.84c-0.552,0-1.007-0.479-1.007-1.055c0-0.575,0.455-1.031,1.007-1.031
		c0.551,0,1.03,0.456,1.03,1.031C160.216,68.361,159.736,68.84,159.186,68.84z M159.977,83.774c-0.216,0.072-0.527,0.12-0.791,0.12
		s-0.552-0.048-0.768-0.12V71.285c0.192-0.048,0.504-0.12,0.743-0.12c0.264,0,0.624,0.048,0.815,0.12V83.774z"/>
	<path fill="#333333" d="M171.794,74.33l-3.764,9.445c-0.216,0.072-0.455,0.12-0.646,0.12c-0.264,0-0.479-0.048-0.672-0.12
		l-3.883-9.445c-0.432-1.079-0.624-2.157-0.624-3.044c0.192-0.048,0.528-0.12,0.743-0.12c0.288,0,0.576,0.048,0.815,0.12
		c0.024,0.815,0.12,1.75,0.479,2.613l3.116,7.911h0.048l3.021-7.911c0.336-0.839,0.504-1.774,0.504-2.613
		c0.167-0.072,0.527-0.12,0.839-0.12c0.168,0,0.479,0.024,0.695,0.096C172.441,72.124,172.273,73.155,171.794,74.33z"/>
	<path fill="#333333" d="M183.421,77.949h-8.031c0.097,2.757,1.391,4.842,4.388,4.842c1.078,0,2.085-0.144,2.972-0.359
		c0.048,0.12,0.097,0.359,0.097,0.503c0,0.24-0.049,0.455-0.12,0.623c-0.936,0.288-2.109,0.456-3.093,0.456
		c-1.894,0-3.332-0.599-4.219-1.558c-1.055-1.151-1.606-2.876-1.606-4.866c0-3.476,1.75-6.544,5.25-6.544
		c3.141,0,4.387,2.589,4.387,5.753C183.444,77.158,183.444,77.59,183.421,77.949z M181.887,76.799c0-2.206-0.24-4.579-2.901-4.579
		c-2.325,0-3.451,2.133-3.596,4.579H181.887z"/>
	<path fill="#333333" d="M191.644,72.436c-1.391,0.191-2.901,0.695-4.027,1.558v9.78c-0.24,0.072-0.527,0.12-0.791,0.12
		s-0.527-0.048-0.768-0.12V71.285c0.144-0.048,0.359-0.096,0.6-0.096c0.191,0,0.455,0.048,0.647,0.096l0.119,1.534h0.024
		c1.03-0.887,2.828-1.63,4.195-1.774c0.048,0.144,0.096,0.408,0.096,0.624C191.739,71.909,191.691,72.22,191.644,72.436z"/>
	<path fill="#333333" d="M194.928,68.84c-0.552,0-1.007-0.479-1.007-1.055c0-0.575,0.455-1.031,1.007-1.031
		c0.551,0,1.03,0.456,1.03,1.031C195.958,68.361,195.479,68.84,194.928,68.84z M195.719,83.774c-0.216,0.072-0.527,0.12-0.791,0.12
		s-0.552-0.048-0.768-0.12V71.285c0.192-0.048,0.504-0.12,0.743-0.12c0.264,0,0.624,0.048,0.815,0.12V83.774z"/>
	<path fill="#333333" d="M208.664,83.798c-0.191,0.048-0.479,0.096-0.768,0.096c-0.239,0-0.551-0.048-0.791-0.12v-7.599
		c0-1.15-0.144-2.038-0.479-2.661c-0.407-0.767-1.174-1.151-2.421-1.151c-1.198,0-2.637,0.671-3.571,1.391v10.02
		c-0.264,0.072-0.527,0.12-0.815,0.12c-0.239,0-0.527-0.048-0.743-0.12V71.285c0.168-0.072,0.456-0.096,0.623-0.096
		c0.24,0,0.527,0.024,0.672,0.096l0.119,1.247h0.024c1.318-1.079,2.829-1.486,4.051-1.486c1.223,0,2.493,0.408,3.188,1.247
		c0.768,0.911,0.911,2.229,0.911,3.524V83.798z"/>
	<path fill="#333333" d="M220.89,81.689c0,1.798-0.096,3.955-0.959,5.441c-1.03,1.774-2.876,2.541-4.722,2.541
		c-1.055,0-1.966-0.12-2.733-0.383c-0.071-0.144-0.096-0.384-0.096-0.576c0-0.144,0.048-0.431,0.096-0.575
		c0.743,0.192,1.606,0.335,2.47,0.335c3.021,0,4.387-1.87,4.387-5.154v-1.007c-0.936,0.983-2.254,1.462-3.332,1.462
		c-3.188,0-4.843-2.469-4.843-5.945c0-4.267,2.518-6.784,6.233-6.784c0.982,0,2.469,0.288,3.499,0.695V81.689z M219.332,72.508
		c-0.863-0.24-1.486-0.312-2.086-0.312c-3.044,0-4.482,2.565-4.482,5.561c0,2.661,1.007,4.747,3.356,4.747
		c1.198,0,2.421-0.599,3.212-1.438V72.508z"/>
</g>
<g>
	<path fill="#333333" d="M19.283,243.935c-0.767-0.312-1.774-0.504-2.661-0.504c-3.116,0-4.267,2.421-4.267,5.346
		c0,2.877,1.103,5.105,4.243,5.105c0.839,0,1.846-0.144,2.589-0.359c0.048,0.145,0.096,0.312,0.096,0.504
		c0,0.287-0.048,0.503-0.12,0.671c-0.695,0.288-1.822,0.455-2.709,0.455c-3.907,0-5.729-2.564-5.729-6.328
		c0-3.907,1.989-6.64,5.801-6.64c0.911,0,1.99,0.216,2.733,0.551c0.072,0.192,0.096,0.384,0.096,0.6
		C19.354,243.574,19.331,243.767,19.283,243.935z"/>
	<path fill="#333333" d="M26.307,255.152c-3.14,0-5.154-2.157-5.154-6.472c0-4.315,2.038-6.496,5.178-6.496s5.13,2.133,5.13,6.448
		C31.461,252.947,29.447,255.152,26.307,255.152z M26.331,243.358c-2.301,0-3.548,1.774-3.548,5.298
		c0,3.524,1.223,5.322,3.524,5.322s3.524-1.798,3.524-5.322C29.831,245.133,28.632,243.358,26.331,243.358z"/>
	<path fill="#333333" d="M43.063,252.827c0,1.798-0.096,3.956-0.959,5.442c-1.031,1.773-2.876,2.541-4.723,2.541
		c-1.055,0-1.965-0.12-2.732-0.384c-0.072-0.145-0.096-0.384-0.096-0.575c0-0.145,0.048-0.432,0.096-0.575
		c0.743,0.191,1.606,0.335,2.469,0.335c3.021,0,4.387-1.869,4.387-5.153v-1.007c-0.935,0.982-2.253,1.462-3.332,1.462
		c-3.188,0-4.842-2.469-4.842-5.945c0-4.267,2.517-6.783,6.232-6.783c0.983,0,2.469,0.287,3.5,0.694V252.827z M41.505,243.646
		c-0.863-0.239-1.486-0.312-2.086-0.312c-3.044,0-4.482,2.564-4.482,5.562c0,2.66,1.007,4.746,3.356,4.746
		c1.199,0,2.421-0.6,3.212-1.438V243.646z"/>
	<path fill="#333333" d="M55.913,254.938c-0.192,0.048-0.479,0.096-0.767,0.096c-0.24,0-0.551-0.048-0.791-0.12v-7.599
		c0-1.151-0.144-2.038-0.479-2.661c-0.408-0.768-1.175-1.15-2.421-1.15c-1.198,0-2.637,0.671-3.572,1.39v10.021
		c-0.264,0.072-0.527,0.12-0.815,0.12c-0.24,0-0.527-0.048-0.743-0.12v-12.489c0.168-0.072,0.456-0.096,0.624-0.096
		c0.24,0,0.527,0.023,0.671,0.096l0.12,1.247h0.024c1.318-1.079,2.829-1.486,4.051-1.486s2.493,0.407,3.188,1.246
		c0.767,0.911,0.911,2.229,0.911,3.523V254.938z"/>
	<path fill="#333333" d="M59.964,239.979c-0.551,0-1.007-0.479-1.007-1.055s0.456-1.03,1.007-1.03s1.031,0.455,1.031,1.03
		S60.516,239.979,59.964,239.979z M60.755,254.913c-0.216,0.072-0.527,0.12-0.791,0.12s-0.551-0.048-0.767-0.12v-12.489
		c0.191-0.048,0.503-0.12,0.743-0.12c0.264,0,0.623,0.048,0.815,0.12V254.913z"/>
	<path fill="#333333" d="M70.751,254.793c-0.623,0.216-1.558,0.359-2.253,0.359c-2.374,0-3.5-1.126-3.5-3.787v-7.719h-2.158
		c-0.048-0.12-0.072-0.407-0.072-0.552c0-0.119,0.024-0.407,0.072-0.527l2.158-0.144v-3.26c0.192-0.072,0.503-0.12,0.767-0.12
		s0.599,0.048,0.791,0.12v3.26h3.524c0.048,0.12,0.096,0.479,0.096,0.6c0,0.168-0.048,0.455-0.096,0.623h-3.524v7.575
		c0,1.894,0.551,2.685,2.038,2.685c0.815,0,1.606-0.12,2.157-0.288c0.048,0.12,0.096,0.408,0.096,0.576
		C70.848,254.41,70.824,254.577,70.751,254.793z"/>
	<path fill="#333333" d="M73.94,239.979c-0.551,0-1.007-0.479-1.007-1.055s0.456-1.03,1.007-1.03s1.031,0.455,1.031,1.03
		S74.491,239.979,73.94,239.979z M74.731,254.913c-0.216,0.072-0.527,0.12-0.791,0.12s-0.551-0.048-0.767-0.12v-12.489
		c0.191-0.048,0.503-0.12,0.743-0.12c0.264,0,0.623,0.048,0.815,0.12V254.913z"/>
	<path fill="#333333" d="M86.549,245.469l-3.763,9.444c-0.216,0.072-0.456,0.12-0.647,0.12c-0.264,0-0.479-0.048-0.671-0.12
		l-3.884-9.444c-0.431-1.079-0.623-2.158-0.623-3.045c0.192-0.048,0.527-0.12,0.743-0.12c0.288,0,0.575,0.048,0.815,0.12
		c0.024,0.815,0.12,1.75,0.479,2.613l3.116,7.91h0.048l3.021-7.91c0.335-0.839,0.503-1.774,0.503-2.613
		c0.168-0.072,0.527-0.12,0.839-0.12c0.168,0,0.479,0.024,0.695,0.097C87.196,243.263,87.028,244.294,86.549,245.469z"/>
	<path fill="#333333" d="M98.175,249.088h-8.03c0.096,2.757,1.39,4.843,4.387,4.843c1.079,0,2.085-0.145,2.973-0.36
		c0.048,0.12,0.096,0.36,0.096,0.504c0,0.239-0.048,0.455-0.12,0.623c-0.935,0.288-2.11,0.455-3.093,0.455
		c-1.894,0-3.332-0.599-4.219-1.558c-1.055-1.15-1.606-2.877-1.606-4.866c0-3.476,1.75-6.544,5.25-6.544
		c3.14,0,4.387,2.589,4.387,5.753C98.199,248.297,98.199,248.729,98.175,249.088z M96.641,247.938c0-2.205-0.24-4.579-2.9-4.579
		c-2.325,0-3.452,2.134-3.596,4.579H96.641z"/>
	<path fill="#333333" d="M114.621,251.845c0,0.863,0,1.941,0.048,3.068c-0.168,0.072-0.432,0.12-0.647,0.12
		c-0.191,0-0.455-0.048-0.647-0.12c-0.072-0.384-0.12-0.887-0.144-1.343h-0.024c-0.815,1.007-2.253,1.582-3.667,1.582
		c-2.229,0-4.099-1.246-4.099-3.811c0-1.463,0.599-2.541,1.534-3.213c1.055-0.743,2.445-0.982,3.931-0.982
		c0.839,0,1.534,0.048,2.158,0.144v-0.695c0-2.396-0.983-3.188-2.997-3.188c-1.126,0-2.517,0.239-3.38,0.455
		c-0.048-0.12-0.096-0.384-0.096-0.623c0-0.168,0.048-0.408,0.12-0.552c1.031-0.312,2.397-0.503,3.548-0.503
		c2.853,0,4.363,1.294,4.363,4.219V251.845z M113.062,248.465c-0.695-0.096-1.415-0.144-2.038-0.144
		c-1.175,0-2.229,0.216-2.949,0.767c-0.647,0.479-1.007,1.247-1.007,2.229c0,1.75,1.127,2.589,2.685,2.589
		c1.294,0,2.661-0.623,3.308-1.606V248.465z"/>
	<path fill="#333333" d="M127.518,254.938c-0.192,0.048-0.479,0.096-0.767,0.096c-0.24,0-0.551-0.048-0.791-0.12v-7.599
		c0-1.151-0.144-2.038-0.479-2.661c-0.408-0.768-1.175-1.15-2.421-1.15c-1.198,0-2.637,0.671-3.572,1.39v10.021
		c-0.264,0.072-0.527,0.12-0.815,0.12c-0.24,0-0.527-0.048-0.743-0.12v-12.489c0.168-0.072,0.456-0.096,0.624-0.096
		c0.24,0,0.527,0.023,0.671,0.096l0.12,1.247h0.024c1.318-1.079,2.829-1.486,4.051-1.486s2.493,0.407,3.188,1.246
		c0.767,0.911,0.911,2.229,0.911,3.523V254.938z"/>
	<path fill="#333333" d="M139.24,251.845c0,0.863,0,1.941,0.048,3.068c-0.168,0.072-0.432,0.12-0.647,0.12
		c-0.191,0-0.455-0.048-0.647-0.12c-0.072-0.384-0.12-0.887-0.144-1.343h-0.024c-0.815,1.007-2.253,1.582-3.667,1.582
		c-2.229,0-4.099-1.246-4.099-3.811c0-1.463,0.599-2.541,1.534-3.213c1.055-0.743,2.445-0.982,3.931-0.982
		c0.839,0,1.534,0.048,2.158,0.144v-0.695c0-2.396-0.983-3.188-2.997-3.188c-1.126,0-2.517,0.239-3.38,0.455
		c-0.048-0.12-0.096-0.384-0.096-0.623c0-0.168,0.048-0.408,0.12-0.552c1.031-0.312,2.397-0.503,3.548-0.503
		c2.853,0,4.363,1.294,4.363,4.219V251.845z M137.682,248.465c-0.695-0.096-1.415-0.144-2.038-0.144
		c-1.175,0-2.229,0.216-2.949,0.767c-0.647,0.479-1.007,1.247-1.007,2.229c0,1.75,1.127,2.589,2.685,2.589
		c1.294,0,2.661-0.623,3.308-1.606V248.465z"/>
	<path fill="#333333" d="M144.154,254.913c-0.264,0.072-0.527,0.12-0.815,0.12c-0.239,0-0.527-0.048-0.743-0.12v-17.499
		c0.215-0.048,0.479-0.12,0.791-0.12c0.264,0,0.551,0.048,0.767,0.12V254.913z"/>
	<path fill="#333333" d="M156.763,252.827c0,2.325-0.096,3.979-0.935,5.466c-0.959,1.702-2.853,2.518-4.555,2.518
		c-1.247,0-2.109-0.12-2.876-0.384c-0.072-0.145-0.096-0.384-0.096-0.575c0-0.145,0.048-0.456,0.096-0.6
		c0.719,0.216,1.582,0.384,2.733,0.384c2.637,0,4.075-1.894,4.075-5.178v-0.84c-1.223,1.079-2.589,1.534-3.836,1.534
		c-1.342,0-2.397-0.335-3.068-1.15c-0.743-0.887-0.839-2.182-0.839-3.476v-8.103c0.192-0.048,0.503-0.12,0.743-0.12
		c0.288,0,0.6,0.072,0.815,0.12v7.839c0,1.15,0.096,2.109,0.528,2.757c0.383,0.551,1.006,0.839,1.941,0.839
		c1.486,0,2.9-0.791,3.716-1.582v-9.853c0.216-0.048,0.527-0.12,0.814-0.12c0.24,0,0.552,0.072,0.743,0.12V252.827z"/>
	<path fill="#333333" d="M166.544,254.793c-0.624,0.216-1.559,0.359-2.254,0.359c-2.373,0-3.5-1.126-3.5-3.787v-7.719h-2.157
		c-0.048-0.12-0.071-0.407-0.071-0.552c0-0.119,0.023-0.407,0.071-0.527l2.157-0.144v-3.26c0.192-0.072,0.504-0.12,0.768-0.12
		s0.6,0.048,0.791,0.12v3.26h3.523c0.048,0.12,0.097,0.479,0.097,0.6c0,0.168-0.049,0.455-0.097,0.623h-3.523v7.575
		c0,1.894,0.552,2.685,2.037,2.685c0.815,0,1.606-0.12,2.158-0.288c0.048,0.12,0.096,0.408,0.096,0.576
		C166.64,254.41,166.615,254.577,166.544,254.793z"/>
	<path fill="#333333" d="M169.732,239.979c-0.552,0-1.007-0.479-1.007-1.055s0.455-1.03,1.007-1.03c0.551,0,1.03,0.455,1.03,1.03
		S170.283,239.979,169.732,239.979z M170.523,254.913c-0.216,0.072-0.527,0.12-0.791,0.12s-0.552-0.048-0.768-0.12v-12.489
		c0.192-0.048,0.504-0.12,0.743-0.12c0.264,0,0.624,0.048,0.815,0.12V254.913z"/>
	<path fill="#333333" d="M181.743,243.935c-0.768-0.312-1.774-0.504-2.661-0.504c-3.116,0-4.267,2.421-4.267,5.346
		c0,2.877,1.103,5.105,4.242,5.105c0.839,0,1.846-0.144,2.589-0.359c0.048,0.145,0.097,0.312,0.097,0.504
		c0,0.287-0.049,0.503-0.12,0.671c-0.695,0.288-1.822,0.455-2.709,0.455c-3.907,0-5.729-2.564-5.729-6.328
		c0-3.907,1.99-6.64,5.802-6.64c0.91,0,1.989,0.216,2.732,0.551c0.072,0.192,0.096,0.384,0.096,0.6
		C181.814,243.574,181.791,243.767,181.743,243.935z"/>
	<path fill="#333333" d="M187.089,255.152c-1.199,0-2.445-0.215-3.309-0.551c-0.071-0.168-0.12-0.456-0.12-0.671
		c0-0.145,0.049-0.504,0.097-0.647c0.887,0.359,2.157,0.647,3.212,0.647c1.821,0,2.948-0.768,2.948-2.277
		c0-1.367-0.695-1.846-2.589-2.541c-2.637-0.959-3.5-2.062-3.5-3.692c0-2.205,1.822-3.235,4.171-3.235
		c0.791,0,1.822,0.144,2.422,0.335c0.071,0.216,0.096,0.432,0.096,0.575c0,0.192-0.048,0.527-0.096,0.695
		c-0.791-0.239-1.631-0.383-2.445-0.383c-1.702,0-2.732,0.646-2.732,1.965c0,1.151,0.646,1.702,2.612,2.445
		c1.798,0.671,3.452,1.343,3.452,3.764C191.308,254.026,189.462,255.152,187.089,255.152z"/>
</g>
<g>
	<path fill="#333333" d="M17.005,270.064c-1.39,0.192-2.9,0.695-4.027,1.559v9.78c-0.239,0.072-0.527,0.12-0.791,0.12
		s-0.527-0.048-0.767-0.12v-12.489c0.144-0.048,0.36-0.096,0.6-0.096c0.191,0,0.455,0.048,0.647,0.096l0.12,1.534h0.024
		c1.031-0.887,2.829-1.63,4.195-1.773c0.048,0.144,0.096,0.407,0.096,0.623C17.102,269.537,17.053,269.849,17.005,270.064z"/>
	<path fill="#333333" d="M27.721,275.578h-8.03c0.096,2.757,1.39,4.843,4.387,4.843c1.079,0,2.085-0.145,2.973-0.36
		c0.048,0.12,0.096,0.36,0.096,0.504c0,0.239-0.048,0.455-0.12,0.623c-0.935,0.288-2.11,0.455-3.093,0.455
		c-1.894,0-3.332-0.599-4.219-1.558c-1.055-1.15-1.606-2.877-1.606-4.866c0-3.476,1.75-6.544,5.25-6.544
		c3.14,0,4.387,2.589,4.387,5.753C27.745,274.787,27.745,275.219,27.721,275.578z M26.187,274.428c0-2.205-0.24-4.579-2.9-4.579
		c-2.325,0-3.452,2.134-3.596,4.579H26.187z"/>
	<path fill="#333333" d="M33.139,281.643c-1.198,0-2.445-0.215-3.308-0.551c-0.072-0.168-0.12-0.456-0.12-0.671
		c0-0.145,0.048-0.504,0.096-0.647c0.887,0.359,2.158,0.647,3.212,0.647c1.822,0,2.948-0.768,2.948-2.277
		c0-1.367-0.695-1.846-2.589-2.541c-2.637-0.959-3.5-2.062-3.5-3.692c0-2.205,1.822-3.235,4.171-3.235
		c0.791,0,1.822,0.144,2.421,0.335c0.072,0.216,0.096,0.432,0.096,0.575c0,0.192-0.048,0.527-0.096,0.695
		c-0.791-0.239-1.63-0.383-2.445-0.383c-1.702,0-2.733,0.646-2.733,1.965c0,1.151,0.647,1.702,2.613,2.445
		c1.798,0.671,3.452,1.343,3.452,3.764C37.358,280.517,35.513,281.643,33.139,281.643z"/>
	<path fill="#333333" d="M48.817,275.578h-8.03c0.096,2.757,1.39,4.843,4.387,4.843c1.079,0,2.085-0.145,2.973-0.36
		c0.048,0.12,0.096,0.36,0.096,0.504c0,0.239-0.048,0.455-0.12,0.623c-0.935,0.288-2.11,0.455-3.093,0.455
		c-1.894,0-3.332-0.599-4.219-1.558c-1.055-1.15-1.606-2.877-1.606-4.866c0-3.476,1.75-6.544,5.25-6.544
		c3.14,0,4.387,2.589,4.387,5.753C48.841,274.787,48.841,275.219,48.817,275.578z M47.283,274.428c0-2.205-0.24-4.579-2.9-4.579
		c-2.325,0-3.452,2.134-3.596,4.579H47.283z"/>
	<path fill="#333333" d="M59.988,278.335c0,0.863,0,1.941,0.048,3.068c-0.168,0.072-0.432,0.12-0.647,0.12
		c-0.191,0-0.455-0.048-0.647-0.12c-0.072-0.384-0.12-0.887-0.144-1.343h-0.024c-0.815,1.007-2.253,1.582-3.667,1.582
		c-2.229,0-4.099-1.246-4.099-3.811c0-1.463,0.599-2.541,1.534-3.213c1.055-0.743,2.445-0.982,3.931-0.982
		c0.839,0,1.534,0.048,2.158,0.144v-0.695c0-2.396-0.983-3.188-2.997-3.188c-1.126,0-2.517,0.239-3.38,0.455
		c-0.048-0.12-0.096-0.384-0.096-0.623c0-0.168,0.048-0.408,0.12-0.552c1.031-0.312,2.397-0.503,3.548-0.503
		c2.853,0,4.363,1.294,4.363,4.219V278.335z M58.43,274.955c-0.695-0.096-1.415-0.144-2.038-0.144c-1.175,0-2.229,0.216-2.949,0.767
		c-0.647,0.479-1.007,1.247-1.007,2.229c0,1.75,1.127,2.589,2.685,2.589c1.294,0,2.661-0.623,3.308-1.606V274.955z"/>
	<path fill="#333333" d="M68.882,270.064c-1.39,0.192-2.9,0.695-4.027,1.559v9.78c-0.239,0.072-0.527,0.12-0.791,0.12
		s-0.527-0.048-0.767-0.12v-12.489c0.144-0.048,0.36-0.096,0.6-0.096c0.191,0,0.456,0.048,0.647,0.096l0.12,1.534h0.024
		c1.031-0.887,2.829-1.63,4.195-1.773c0.048,0.144,0.096,0.407,0.096,0.623C68.978,269.537,68.93,269.849,68.882,270.064z"/>
	<path fill="#333333" d="M78.542,270.425c-0.767-0.312-1.774-0.504-2.661-0.504c-3.116,0-4.267,2.421-4.267,5.346
		c0,2.877,1.103,5.105,4.243,5.105c0.839,0,1.846-0.144,2.589-0.359c0.048,0.145,0.096,0.312,0.096,0.504
		c0,0.287-0.048,0.503-0.12,0.671c-0.695,0.288-1.822,0.455-2.709,0.455c-3.907,0-5.729-2.564-5.729-6.328
		c0-3.907,1.989-6.64,5.801-6.64c0.911,0,1.99,0.216,2.733,0.551c0.072,0.192,0.096,0.384,0.096,0.6
		C78.614,270.064,78.59,270.257,78.542,270.425z"/>
	<path fill="#333333" d="M90.697,281.403c-0.216,0.072-0.479,0.12-0.719,0.12c-0.288,0-0.599-0.048-0.839-0.12v-7.575
		c0-2.637-0.671-3.835-2.901-3.835c-1.198,0-2.637,0.671-3.572,1.39v10.021c-0.264,0.072-0.551,0.12-0.815,0.12
		c-0.24,0-0.527-0.048-0.743-0.12v-17.499c0.216-0.072,0.552-0.12,0.767-0.12c0.216,0,0.576,0.048,0.791,0.12v6.16
		c1.271-0.982,2.781-1.39,3.956-1.39c1.223,0,2.469,0.407,3.164,1.246c0.767,0.911,0.911,2.229,0.911,3.523V281.403z"/>
	<path fill="#333333" d="M107.021,270.425c-0.767-0.312-1.774-0.504-2.661-0.504c-3.116,0-4.267,2.421-4.267,5.346
		c0,2.877,1.103,5.105,4.243,5.105c0.839,0,1.846-0.144,2.589-0.359c0.048,0.145,0.096,0.312,0.096,0.504
		c0,0.287-0.048,0.503-0.12,0.671c-0.695,0.288-1.822,0.455-2.709,0.455c-3.907,0-5.729-2.564-5.729-6.328
		c0-3.907,1.989-6.64,5.801-6.64c0.911,0,1.99,0.216,2.733,0.551c0.072,0.192,0.096,0.384,0.096,0.6
		C107.093,270.064,107.069,270.257,107.021,270.425z"/>
	<path fill="#333333" d="M118.121,278.335c0,0.863,0,1.941,0.048,3.068c-0.168,0.072-0.432,0.12-0.647,0.12
		c-0.191,0-0.455-0.048-0.647-0.12c-0.072-0.384-0.12-0.887-0.144-1.343h-0.024c-0.815,1.007-2.253,1.582-3.667,1.582
		c-2.229,0-4.099-1.246-4.099-3.811c0-1.463,0.599-2.541,1.534-3.213c1.055-0.743,2.445-0.982,3.931-0.982
		c0.839,0,1.534,0.048,2.158,0.144v-0.695c0-2.396-0.983-3.188-2.997-3.188c-1.126,0-2.517,0.239-3.38,0.455
		c-0.048-0.12-0.096-0.384-0.096-0.623c0-0.168,0.048-0.408,0.12-0.552c1.031-0.312,2.397-0.503,3.548-0.503
		c2.853,0,4.363,1.294,4.363,4.219V278.335z M116.563,274.955c-0.695-0.096-1.415-0.144-2.038-0.144
		c-1.175,0-2.229,0.216-2.949,0.767c-0.647,0.479-1.007,1.247-1.007,2.229c0,1.75,1.127,2.589,2.685,2.589
		c1.294,0,2.661-0.623,3.308-1.606V274.955z"/>
	<path fill="#333333" d="M129.34,280.108c-0.935,0.84-2.397,1.295-3.787,1.295c-0.983,0-1.894-0.168-2.565-0.407v6.041
		c-0.239,0.071-0.455,0.119-0.791,0.119c-0.264,0-0.575-0.048-0.767-0.119v-18.123c0.12-0.048,0.408-0.096,0.647-0.096
		s0.456,0.048,0.623,0.096l0.144,1.318h0.024c0.911-0.959,2.277-1.558,3.667-1.558c1.51,0,2.853,0.646,3.692,1.846
		c0.695,1.007,1.126,2.445,1.126,4.194C131.354,277.112,130.61,278.958,129.34,280.108z M126.368,269.945
		c-1.271,0-2.541,0.527-3.38,1.582v8.246c0.624,0.287,1.583,0.455,2.397,0.455c2.589,0,4.339-1.702,4.339-5.441
		C129.724,271.839,128.573,269.945,126.368,269.945z"/>
	<path fill="#333333" d="M142.453,278.335c0,0.863,0,1.941,0.048,3.068c-0.168,0.072-0.432,0.12-0.647,0.12
		c-0.191,0-0.455-0.048-0.647-0.12c-0.072-0.384-0.12-0.887-0.144-1.343h-0.024c-0.815,1.007-2.253,1.582-3.667,1.582
		c-2.229,0-4.099-1.246-4.099-3.811c0-1.463,0.599-2.541,1.534-3.213c1.055-0.743,2.445-0.982,3.931-0.982
		c0.839,0,1.534,0.048,2.158,0.144v-0.695c0-2.396-0.983-3.188-2.997-3.188c-1.126,0-2.517,0.239-3.38,0.455
		c-0.048-0.12-0.096-0.384-0.096-0.623c0-0.168,0.048-0.408,0.12-0.552c1.031-0.312,2.397-0.503,3.548-0.503
		c2.853,0,4.363,1.294,4.363,4.219V278.335z M140.895,274.955c-0.695-0.096-1.415-0.144-2.038-0.144
		c-1.175,0-2.229,0.216-2.949,0.767c-0.647,0.479-1.007,1.247-1.007,2.229c0,1.75,1.127,2.589,2.685,2.589
		c1.294,0,2.661-0.623,3.308-1.606V274.955z"/>
	<path fill="#333333" d="M149.596,281.643c-1.103,0-2.517-0.167-3.835-0.646v-17.092c0.168-0.048,0.527-0.12,0.743-0.12
		c0.384,0,0.671,0.072,0.815,0.12v6.064c0.983-0.814,2.229-1.294,3.548-1.294c3.38,0,4.794,2.9,4.794,6.137
		C155.661,278.935,153.552,281.643,149.596,281.643z M150.651,270.017c-1.199,0-2.397,0.504-3.333,1.438v8.605
		c0.647,0.24,1.462,0.384,2.158,0.384c3.332,0,4.555-2.541,4.555-5.537C154.031,272.582,153.36,270.017,150.651,270.017z"/>
	<path fill="#333333" d="M159.114,266.469c-0.552,0-1.007-0.479-1.007-1.055s0.455-1.03,1.007-1.03c0.551,0,1.03,0.455,1.03,1.03
		S159.665,266.469,159.114,266.469z M159.905,281.403c-0.216,0.072-0.527,0.12-0.791,0.12s-0.552-0.048-0.768-0.12v-12.489
		c0.192-0.048,0.504-0.12,0.743-0.12c0.264,0,0.624,0.048,0.815,0.12V281.403z"/>
	<path fill="#333333" d="M164.867,281.403c-0.264,0.072-0.527,0.12-0.815,0.12c-0.239,0-0.527-0.048-0.743-0.12v-17.499
		c0.216-0.048,0.479-0.12,0.791-0.12c0.264,0,0.552,0.048,0.768,0.12V281.403z"/>
	<path fill="#333333" d="M169.038,266.469c-0.552,0-1.007-0.479-1.007-1.055s0.455-1.03,1.007-1.03c0.551,0,1.03,0.455,1.03,1.03
		S169.589,266.469,169.038,266.469z M169.829,281.403c-0.216,0.072-0.527,0.12-0.791,0.12s-0.552-0.048-0.768-0.12v-12.489
		c0.192-0.048,0.504-0.12,0.743-0.12c0.264,0,0.624,0.048,0.815,0.12V281.403z"/>
	<path fill="#333333" d="M179.826,281.283c-0.624,0.216-1.559,0.359-2.254,0.359c-2.373,0-3.5-1.126-3.5-3.787v-7.719h-2.157
		c-0.048-0.12-0.071-0.407-0.071-0.552c0-0.119,0.023-0.407,0.071-0.527l2.157-0.144v-3.26c0.192-0.072,0.504-0.12,0.768-0.12
		s0.6,0.048,0.791,0.12v3.26h3.523c0.048,0.12,0.097,0.479,0.097,0.6c0,0.168-0.049,0.455-0.097,0.623h-3.523v7.575
		c0,1.894,0.552,2.685,2.037,2.685c0.815,0,1.606-0.12,2.158-0.288c0.048,0.12,0.096,0.408,0.096,0.576
		C179.922,280.9,179.897,281.067,179.826,281.283z"/>
	<path fill="#333333" d="M183.014,266.469c-0.552,0-1.007-0.479-1.007-1.055s0.455-1.03,1.007-1.03c0.551,0,1.03,0.455,1.03,1.03
		S183.564,266.469,183.014,266.469z M183.805,281.403c-0.216,0.072-0.527,0.12-0.791,0.12s-0.552-0.048-0.768-0.12v-12.489
		c0.192-0.048,0.504-0.12,0.743-0.12c0.264,0,0.624,0.048,0.815,0.12V281.403z"/>
	<path fill="#333333" d="M196.079,275.578h-8.031c0.097,2.757,1.391,4.843,4.388,4.843c1.078,0,2.085-0.145,2.972-0.36
		c0.048,0.12,0.097,0.36,0.097,0.504c0,0.239-0.049,0.455-0.12,0.623c-0.936,0.288-2.109,0.455-3.093,0.455
		c-1.894,0-3.332-0.599-4.219-1.558c-1.055-1.15-1.606-2.877-1.606-4.866c0-3.476,1.75-6.544,5.25-6.544
		c3.141,0,4.387,2.589,4.387,5.753C196.103,274.787,196.103,275.219,196.079,275.578z M194.545,274.428
		c0-2.205-0.24-4.579-2.901-4.579c-2.325,0-3.451,2.134-3.596,4.579H194.545z"/>
	<path fill="#333333" d="M201.497,281.643c-1.199,0-2.445-0.215-3.309-0.551c-0.071-0.168-0.12-0.456-0.12-0.671
		c0-0.145,0.049-0.504,0.097-0.647c0.887,0.359,2.157,0.647,3.212,0.647c1.821,0,2.948-0.768,2.948-2.277
		c0-1.367-0.695-1.846-2.589-2.541c-2.637-0.959-3.5-2.062-3.5-3.692c0-2.205,1.822-3.235,4.171-3.235
		c0.791,0,1.822,0.144,2.422,0.335c0.071,0.216,0.096,0.432,0.096,0.575c0,0.192-0.048,0.527-0.096,0.695
		c-0.791-0.239-1.631-0.383-2.445-0.383c-1.702,0-2.732,0.646-2.732,1.965c0,1.151,0.646,1.702,2.612,2.445
		c1.798,0.671,3.452,1.343,3.452,3.764C205.716,280.517,203.87,281.643,201.497,281.643z"/>
</g>
<g>
	<path fill="#59A6AE" d="M63.981,155.999c-1.073,0.165-3.22,0.413-5.532,0.413c-2.229,0-4.458-0.248-5.944-0.413l-6.771-27.577
		c-0.743-2.89-1.156-6.027-1.486-8.752h-0.083c-0.248,2.725-0.908,5.945-1.569,8.752l-6.688,27.577
		c-1.486,0.165-3.798,0.413-5.945,0.413c-2.064,0-4.541-0.248-5.697-0.413L11.8,115.129c-1.321-4.293-2.146-9.413-2.146-14.944
		c1.734-0.331,3.88-0.413,5.697-0.413c3.055,0,4.541,0.165,5.862,0.413c0,5.367,0.743,9.825,1.734,13.623l5.037,19.073
		c0.743,2.972,1.486,6.853,1.899,10.568h0.165c0.413-3.715,1.073-7.596,1.816-10.651l7.761-32.613
		c1.486-0.248,2.89-0.413,4.376-0.413c1.569,0,2.972,0.165,4.541,0.413l7.926,32.696c0.743,2.972,1.569,6.853,1.981,10.568h0.166
		c0.413-3.715,1.156-7.596,1.981-10.651l5.284-18.99c1.073-3.798,1.899-8.256,1.899-13.623c1.321-0.248,3.715-0.413,6.192-0.413
		c1.651,0,3.881,0.165,5.449,0.413c0,6.11-0.908,10.733-2.229,14.944L63.981,155.999z"/>
	<path fill="#59A6AE" d="M103.287,156.824c-15.275,0-23.366-10.568-23.366-28.732c0-18.164,8.091-28.732,23.366-28.732
		c15.274,0,23.366,10.568,23.366,28.732C126.653,146.256,118.562,156.824,103.287,156.824z M103.287,109.515
		c-7.101,0-11.146,5.449-11.146,18.577s4.046,18.577,11.146,18.577s11.146-5.449,11.146-18.577S110.388,109.515,103.287,109.515z"/>
	<path fill="#59A6AE" d="M172.728,155.916c-2.146,0.331-4.376,0.496-6.936,0.496c-2.312,0-4.623-0.083-6.192-0.413l-11.311-20.063
		h-4.872v20.063c-2.064,0.33-3.798,0.413-6.027,0.413c-1.982,0-3.716-0.083-5.78-0.413v-55.814
		c3.798-0.248,11.724-0.413,16.513-0.413c14.036,0,21.054,4.954,21.054,17.834c0,6.853-4.129,13.706-9.908,16.183L172.728,155.916z
		 M148.867,109.432c-1.816,0-4.046,0.083-5.45,0.165v16.513h4.128c6.77,0,9.743-2.477,9.743-8.587S154.315,109.432,148.867,109.432z
		"/>
	<path fill="#59A6AE" d="M210.298,155.999h-34.182v-55.814c1.568-0.248,3.716-0.413,5.779-0.413c2.312,0,4.541,0.165,6.027,0.413
		v45.741h22.375c0.331,0.908,0.578,2.642,0.578,4.954C210.876,152.696,210.711,154.266,210.298,155.999z"/>
	<path fill="#59A6AE" d="M250.593,151.045c-5.119,3.963-11.725,5.367-20.807,5.367c-4.624,0-12.467-0.165-15.109-0.413v-55.814
		c4.046-0.248,12.468-0.413,17.174-0.413c18.164,0,27.494,7.679,27.494,27.66C259.345,137.752,256.62,146.339,250.593,151.045z
		 M232.098,109.515c-2.229,0-4.706,0.083-5.614,0.165v36.742c1.073,0.083,3.551,0.165,6.11,0.165
		c10.403,0,14.531-6.605,14.531-19.32C247.125,113.313,242.832,109.515,232.098,109.515z"/>
</g>
<g>
	<path fill="#59A6AE" d="M53.679,181.976c-4.105-1.283-9.237-2.224-13.342-2.224c-9.75,0-16.079,6.927-16.079,19.328
		c0,11.375,4.96,18.816,15.993,18.816c4.105,0,8.724-0.855,12.829-2.139c0.599,1.539,1.026,3.935,1.026,5.73
		c0,1.454-0.086,3.25-0.257,4.02c-4.276,1.967-9.75,3.079-14.796,3.079c-18.388,0-27.454-11.118-27.454-29.25
		c0-17.618,9.75-30.276,27.967-30.276c4.447,0,10.263,1.112,14.368,2.908c0.257,0.855,0.342,2.737,0.342,3.849
		C54.277,178.469,53.935,180.949,53.679,181.976z"/>
	<path fill="#59A6AE" d="M100.975,227.731H65.568v-57.815c1.625-0.257,3.849-0.428,5.987-0.428c2.395,0,4.704,0.171,6.243,0.428
		v47.381h23.177c0.342,0.941,0.599,2.737,0.599,5.132C101.574,224.311,101.403,225.936,100.975,227.731z"/>
	<path fill="#59A6AE" d="M162.811,227.731c-1.111,0.257-3.763,0.428-6.585,0.428c-2.224,0-4.79-0.257-5.901-0.428l-4.276-11.717
		h-20.526l-4.02,11.717c-1.882,0.257-4.105,0.428-6.329,0.428s-4.789-0.171-6.072-0.428l20.184-57.815
		c1.197-0.257,4.02-0.428,5.901-0.428c2.309,0,5.046,0.171,5.987,0.428L162.811,227.731z M142.37,205.837l-5.046-16.335
		c-0.599-1.882-1.197-4.276-1.71-6.928h-0.171c-0.427,2.651-1.112,5.046-1.71,6.928l-4.79,16.335H142.37z"/>
	<path fill="#59A6AE" d="M187.871,228.587c-6.243,0-13.086-1.197-17.961-3.421c-0.256-1.197-0.428-2.737-0.428-4.105
		c0-2.053,0.257-4.02,0.855-6.329c5.046,2.053,11.717,3.336,16.935,3.336c6.072,0,9.322-2.822,9.322-6.671
		c0-4.276-2.737-6.072-11.033-8.639c-9.236-2.822-15.993-7.27-15.993-17.19c0-10.605,9.151-16.507,21.21-16.507
		c5.56,0,10.521,0.855,13.855,1.968c0.257,0.94,0.428,2.479,0.428,4.703c0,1.625-0.171,4.105-0.514,5.475
		c-4.275-1.112-9.15-1.711-13.085-1.711c-6.414,0-9.921,2.138-9.921,5.56c0,4.02,3.164,5.645,10.861,8.039
		c9.237,2.908,16.079,7.27,16.079,17.532C208.482,221.83,199.674,228.587,187.871,228.587z"/>
	<path fill="#59A6AE" d="M234.654,228.587c-6.243,0-13.086-1.197-17.961-3.421c-0.256-1.197-0.428-2.737-0.428-4.105
		c0-2.053,0.257-4.02,0.855-6.329c5.046,2.053,11.717,3.336,16.935,3.336c6.072,0,9.322-2.822,9.322-6.671
		c0-4.276-2.737-6.072-11.033-8.639c-9.236-2.822-15.993-7.27-15.993-17.19c0-10.605,9.151-16.507,21.21-16.507
		c5.56,0,10.521,0.855,13.855,1.968c0.257,0.94,0.428,2.479,0.428,4.703c0,1.625-0.171,4.105-0.514,5.475
		c-4.275-1.112-9.15-1.711-13.085-1.711c-6.414,0-9.921,2.138-9.921,5.56c0,4.02,3.164,5.645,10.861,8.039
		c9.237,2.908,16.079,7.27,16.079,17.532C255.266,221.83,246.457,228.587,234.654,228.587z"/>
</g>
</svg>
