<?xml version="1.0" encoding="utf-8"?>
<!-- Generator: Adobe Illustrator 16.0.0, SVG Export Plug-In . SVG Version: 6.00 Build 0)  -->
<!DOCTYPE svg PUBLIC "-//W3C//DTD SVG 1.0//EN" "http://www.w3.org/TR/2001/REC-SVG-20010904/DTD/svg10.dtd">
<svg version="1.0" xmlns="http://www.w3.org/2000/svg" xmlns:xlink="http://www.w3.org/1999/xlink" x="0px" y="0px" width="300px"
	 height="300px" viewBox="0 0 300 300" style="enable-background:new 0 0 300 300;" xml:space="preserve">
<g id="Text" style="display:none;">
	<text transform="matrix(1 0 0 1 56.5596 155.5117)" style="display:inline;"><tspan x="0" y="0" style="fill:#58595B; font-family:'FSMatthew-Light'; font-size:19.8618;">in</tspan><tspan x="14.737" y="0" style="fill:#58595B; font-family:'FSMatthew-Light'; font-size:19.8618;">v</tspan><tspan x="23.993" y="0" style="fill:#58595B; font-family:'FSMatthew-Light'; font-size:19.8618;">e</tspan><tspan x="33.566" y="0" style="fill:#58595B; font-family:'FSMatthew-Light'; font-size:19.8618;">s</tspan><tspan x="41.312" y="0" style="fill:#58595B; font-family:'FSMatthew-Light'; font-size:19.8618;">tment </tspan><tspan x="97.718" y="0" style="fill:#58595B; font-family:'FSMatthew-Light'; font-size:19.8618;">f</tspan><tspan x="104.57" y="0" style="fill:#58595B; font-family:'FSMatthew-Light'; font-size:19.8618;">r</tspan><tspan x="110.708" y="0" style="fill:#58595B; font-family:'FSMatthew-Light'; font-size:19.8618;">om </tspan></text>
	<text transform="matrix(1 0 0 1 56.5596 175.373)" style="display:inline;"><tspan x="0" y="0" style="fill:#58595B; font-family:'FSMatthew-Light'; font-size:19.8618;">Rand</tspan><tspan x="41.61" y="0" style="fill:#58595B; font-family:'FSMatthew-Light'; font-size:19.8618;">o</tspan><tspan x="51.401" y="0" style="fill:#58595B; font-family:'FSMatthew-Light'; font-size:19.8618;">x </tspan><tspan x="65.583" y="0" style="fill:#58595B; font-family:'FSMatthew-Light'; font-size:19.8618;">t</tspan><tspan x="72.514" y="0" style="fill:#58595B; font-family:'FSMatthew-Light'; font-size:19.8618;">o deli</tspan><tspan x="115.156" y="0" style="fill:#58595B; font-family:'FSMatthew-Light'; font-size:19.8618;">v</tspan><tspan x="124.411" y="0" style="fill:#58595B; font-family:'FSMatthew-Light'; font-size:19.8618;">er </tspan></text>
	<text transform="matrix(1 0 0 1 56.5596 195.2344)" style="display:inline;"><tspan x="0" y="0" style="fill:#58595B; font-family:'FSMatthew-Light'; font-size:19.8618;">cu</tspan><tspan x="18.908" y="0" style="fill:#58595B; font-family:'FSMatthew-Light'; font-size:19.8618;">t</tspan><tspan x="26.158" y="0" style="fill:#58595B; font-family:'FSMatthew-Light'; font-size:19.8618;">ting</tspan><tspan x="58.512" y="0" style="fill:#58595B; font-family:'FSMatthew-Light'; font-size:19.8618;">-</tspan><tspan x="64.351" y="0" style="fill:#58595B; font-family:'FSMatthew-Light'; font-size:19.8618;">edge </tspan></text>
	<text transform="matrix(1 0 0 1 56.5596 215.0977)" style="display:inline;"><tspan x="0" y="0" style="fill:#58595B; font-family:'FSMatthew-Light'; font-size:19.8618;">t</tspan><tspan x="6.952" y="0" style="fill:#58595B; font-family:'FSMatthew-Light'; font-size:19.8618;">echnologies </tspan><tspan x="106.774" y="0" style="fill:#58595B; font-family:'FSMatthew-Light'; font-size:19.8618;">t</tspan><tspan x="113.706" y="0" style="fill:#58595B; font-family:'FSMatthew-Light'; font-size:19.8618;">o be</tspan><tspan x="148.087" y="0" style="fill:#58595B; font-family:'FSMatthew-Light'; font-size:19.8618;">t</tspan><tspan x="155.335" y="0" style="fill:#58595B; font-family:'FSMatthew-Light'; font-size:19.8618;">t</tspan><tspan x="162.288" y="0" style="fill:#58595B; font-family:'FSMatthew-Light'; font-size:19.8618;">er </tspan></text>
	<text transform="matrix(1 0 0 1 56.5596 234.959)" style="display:inline;"><tspan x="0" y="0" style="fill:#58595B; font-family:'FSMatthew-Light'; font-size:19.8618;">d</tspan><tspan x="10.983" y="0" style="fill:#58595B; font-family:'FSMatthew-Light'; font-size:19.8618;">iagnose con</tspan><tspan x="106.974" y="0" style="fill:#58595B; font-family:'FSMatthew-Light'; font-size:19.8618;">d</tspan><tspan x="117.937" y="0" style="fill:#58595B; font-family:'FSMatthew-Light'; font-size:19.8618;">itions </tspan></text>
	
		<text transform="matrix(1 0 0 1 56.5596 254.8203)" style="display:inline;fill:#58595B; font-family:'FSMatthew-Light'; font-size:19.8618;">such as cancer and </text>
	<text transform="matrix(1 0 0 1 56.5596 274.6816)" style="display:inline;"><tspan x="0" y="0" style="fill:#58595B; font-family:'FSMatthew-Light'; font-size:19.8618;">hea</tspan><tspan x="29.971" y="0" style="fill:#58595B; font-family:'FSMatthew-Light'; font-size:19.8618;">r</tspan><tspan x="36.803" y="0" style="fill:#58595B; font-family:'FSMatthew-Light'; font-size:19.8618;">t </tspan><tspan x="48.601" y="0" style="fill:#58595B; font-family:'FSMatthew-Light'; font-size:19.8618;">d</tspan><tspan x="59.564" y="0" style="fill:#58595B; font-family:'FSMatthew-Light'; font-size:19.8618;">isease</tspan></text>
	<text transform="matrix(1 0 0 1 51.666 68.3301)" style="display:inline;"><tspan x="0" y="0" style="fill:#B3A068; font-family:'FSMatthew-Bold'; font-size:68.6134; letter-spacing:-2;">£</tspan><tspan x="34.923" y="0" style="fill:#B3A068; font-family:'FSMatthew-Bold'; font-size:68.6134;">50 </tspan></text>
	<text transform="matrix(1 0 0 1 51.666 127.8867)" style="display:inline;"><tspan x="0" y="0" style="fill:#B3A068; font-family:'FSMatthew-Bold'; font-size:68.6134; letter-spacing:-2;">millio</tspan><tspan x="158.631" y="0" style="fill:#B3A068; font-family:'FSMatthew-Bold'; font-size:68.6134;">n</tspan></text>
</g>
<g id="Text_Flat">
	<g>
		<path style="fill:#58595B;" d="M58.625,143.135c-0.457,0-0.834-0.397-0.834-0.875c0-0.477,0.377-0.854,0.834-0.854
			c0.457,0,0.854,0.377,0.854,0.854C59.48,142.738,59.083,143.135,58.625,143.135z M59.281,155.512
			c-0.179,0.061-0.437,0.1-0.656,0.1c-0.218,0-0.457-0.039-0.636-0.1v-10.35c0.159-0.04,0.417-0.1,0.616-0.1
			c0.218,0,0.517,0.04,0.675,0.1V155.512z"/>
		<path style="fill:#58595B;" d="M70.008,155.531c-0.159,0.041-0.397,0.08-0.636,0.08c-0.199,0-0.457-0.039-0.656-0.1v-6.297
			c0-0.954-0.119-1.688-0.397-2.205c-0.337-0.636-0.973-0.954-2.006-0.954c-0.993,0-2.186,0.556-2.96,1.152v8.304
			c-0.218,0.061-0.437,0.1-0.675,0.1c-0.199,0-0.437-0.039-0.616-0.1v-10.35c0.139-0.06,0.377-0.08,0.517-0.08
			c0.199,0,0.437,0.02,0.556,0.08l0.099,1.033h0.02c1.093-0.894,2.344-1.232,3.357-1.232s2.066,0.338,2.643,1.033
			c0.636,0.755,0.755,1.848,0.755,2.92V155.531z"/>
		<path style="fill:#58595B;" d="M79.661,147.685l-3.119,7.827c-0.179,0.061-0.377,0.1-0.536,0.1c-0.219,0-0.397-0.039-0.556-0.1
			l-3.219-7.827c-0.357-0.894-0.517-1.788-0.517-2.523c0.159-0.04,0.438-0.1,0.616-0.1c0.238,0,0.477,0.04,0.675,0.1
			c0.02,0.675,0.1,1.45,0.397,2.166l2.583,6.556h0.04l2.503-6.556c0.278-0.695,0.417-1.47,0.417-2.166
			c0.139-0.06,0.437-0.1,0.695-0.1c0.139,0,0.397,0.02,0.576,0.08C80.197,145.857,80.058,146.711,79.661,147.685z"/>
		<path style="fill:#58595B;" d="M89.293,150.685h-6.655c0.08,2.284,1.152,4.013,3.636,4.013c0.894,0,1.729-0.119,2.463-0.297
			c0.04,0.098,0.08,0.297,0.08,0.416c0,0.199-0.04,0.377-0.099,0.518c-0.775,0.238-1.749,0.377-2.563,0.377
			c-1.569,0-2.762-0.496-3.497-1.291c-0.874-0.953-1.331-2.385-1.331-4.033c0-2.881,1.45-5.424,4.351-5.424
			c2.603,0,3.636,2.146,3.636,4.768C89.313,150.029,89.313,150.387,89.293,150.685z M88.022,149.731
			c0-1.828-0.198-3.794-2.404-3.794c-1.927,0-2.861,1.768-2.98,3.794H88.022z"/>
		<path style="fill:#58595B;" d="M93.781,155.711c-0.993,0-2.026-0.18-2.741-0.457c-0.06-0.139-0.1-0.377-0.1-0.557
			c0-0.119,0.04-0.416,0.08-0.535c0.735,0.297,1.788,0.535,2.662,0.535c1.51,0,2.444-0.635,2.444-1.887
			c0-1.133-0.576-1.529-2.146-2.106c-2.185-0.795-2.9-1.709-2.9-3.06c0-1.828,1.51-2.682,3.457-2.682
			c0.655,0,1.51,0.119,2.006,0.278c0.06,0.179,0.08,0.357,0.08,0.477c0,0.159-0.04,0.437-0.08,0.576
			c-0.656-0.199-1.351-0.318-2.026-0.318c-1.411,0-2.265,0.537-2.265,1.629c0,0.954,0.536,1.411,2.165,2.026
			c1.49,0.557,2.861,1.113,2.861,3.119C97.278,154.777,95.748,155.711,93.781,155.711z"/>
		<path style="fill:#58595B;" d="M104.725,155.412c-0.517,0.18-1.291,0.299-1.867,0.299c-1.967,0-2.901-0.934-2.901-3.139v-6.397
			h-1.788c-0.04-0.1-0.06-0.338-0.06-0.457c0-0.099,0.02-0.338,0.06-0.437l1.788-0.119v-2.702c0.159-0.06,0.417-0.099,0.636-0.099
			c0.219,0,0.497,0.04,0.656,0.099v2.702h2.92c0.04,0.099,0.08,0.397,0.08,0.497c0,0.139-0.04,0.377-0.08,0.517h-2.92v6.278
			c0,1.568,0.457,2.225,1.688,2.225c0.676,0,1.331-0.1,1.788-0.238c0.04,0.1,0.08,0.338,0.08,0.477
			C104.805,155.096,104.785,155.234,104.725,155.412z"/>
		<path style="fill:#58595B;" d="M121.034,155.531c-0.198,0.041-0.397,0.08-0.596,0.08c-0.238,0-0.457-0.059-0.695-0.1v-6.277
			c0-2.186-0.556-3.179-2.404-3.179c-0.954,0-2.225,0.497-3.02,1.073c0.159,0.556,0.199,1.172,0.199,1.788v6.595
			c-0.199,0.061-0.397,0.1-0.596,0.1c-0.258,0-0.497-0.039-0.695-0.1v-6.277c0-2.186-0.497-3.179-2.344-3.179
			c-0.993,0-2.166,0.556-2.94,1.152v8.304c-0.218,0.061-0.477,0.1-0.715,0.1c-0.199,0-0.417-0.039-0.576-0.1v-10.35
			c0.099-0.04,0.318-0.08,0.536-0.08c0.179,0,0.397,0.04,0.537,0.08l0.099,1.033h0.02c1.093-0.894,2.344-1.232,3.357-1.232
			s1.987,0.338,2.563,1.033c0.08,0.079,0.139,0.179,0.199,0.278c1.053-0.854,2.404-1.311,3.695-1.311
			c1.013,0,2.046,0.338,2.622,1.033c0.636,0.755,0.755,1.848,0.755,2.92V155.531z"/>
		<path style="fill:#58595B;" d="M131.062,150.685h-6.655c0.08,2.284,1.152,4.013,3.636,4.013c0.894,0,1.729-0.119,2.463-0.297
			c0.04,0.098,0.08,0.297,0.08,0.416c0,0.199-0.04,0.377-0.099,0.518c-0.775,0.238-1.749,0.377-2.563,0.377
			c-1.569,0-2.762-0.496-3.497-1.291c-0.874-0.953-1.331-2.385-1.331-4.033c0-2.881,1.45-5.424,4.351-5.424
			c2.603,0,3.636,2.146,3.636,4.768C131.082,150.029,131.082,150.387,131.062,150.685z M129.791,149.731
			c0-1.828-0.198-3.794-2.404-3.794c-1.927,0-2.861,1.768-2.98,3.794H129.791z"/>
		<path style="fill:#58595B;" d="M141.192,155.531c-0.159,0.041-0.397,0.08-0.636,0.08c-0.199,0-0.457-0.039-0.656-0.1v-6.297
			c0-0.954-0.119-1.688-0.397-2.205c-0.337-0.636-0.973-0.954-2.006-0.954c-0.993,0-2.186,0.556-2.96,1.152v8.304
			c-0.218,0.061-0.437,0.1-0.675,0.1c-0.199,0-0.437-0.039-0.616-0.1v-10.35c0.139-0.06,0.377-0.08,0.517-0.08
			c0.199,0,0.437,0.02,0.556,0.08l0.099,1.033h0.02c1.093-0.894,2.344-1.232,3.357-1.232s2.066,0.338,2.643,1.033
			c0.636,0.755,0.755,1.848,0.755,2.92V155.531z"/>
		<path style="fill:#58595B;" d="M149.334,155.412c-0.517,0.18-1.292,0.299-1.867,0.299c-1.967,0-2.901-0.934-2.901-3.139v-6.397
			h-1.788c-0.04-0.1-0.06-0.338-0.06-0.457c0-0.099,0.02-0.338,0.06-0.437l1.788-0.119v-2.702c0.159-0.06,0.417-0.099,0.636-0.099
			c0.219,0,0.497,0.04,0.656,0.099v2.702h2.92c0.04,0.099,0.08,0.397,0.08,0.497c0,0.139-0.04,0.377-0.08,0.517h-2.92v6.278
			c0,1.568,0.457,2.225,1.688,2.225c0.676,0,1.331-0.1,1.788-0.238c0.04,0.1,0.08,0.338,0.08,0.477
			C149.414,155.096,149.394,155.234,149.334,155.412z"/>
		<path style="fill:#58595B;" d="M161.49,141.864c-0.299-0.08-0.835-0.159-1.252-0.159c-0.756,0-1.312,0.199-1.689,0.616
			c-0.576,0.616-0.676,1.45-0.676,2.503v0.338h2.802c0.04,0.099,0.079,0.338,0.079,0.477c0,0.159-0.039,0.397-0.079,0.537h-2.802
			v9.337c-0.178,0.061-0.377,0.1-0.635,0.1s-0.477-0.039-0.656-0.1v-9.337h-1.787c-0.041-0.1-0.061-0.358-0.061-0.477
			c0-0.099,0.02-0.318,0.061-0.417l1.787-0.119v-0.338c0-1.411,0.238-2.384,1.053-3.199c0.576-0.576,1.432-0.854,2.404-0.854
			c0.517,0,1.093,0.119,1.451,0.258c0.039,0.099,0.059,0.238,0.059,0.377C161.549,141.526,161.529,141.764,161.49,141.864z"/>
		<path style="fill:#58595B;" d="M167.109,146.115c-1.152,0.159-2.403,0.576-3.338,1.292v8.105c-0.197,0.061-0.437,0.1-0.654,0.1
			c-0.219,0-0.438-0.039-0.637-0.1v-10.35c0.119-0.04,0.299-0.08,0.497-0.08c0.159,0,0.378,0.04,0.536,0.08l0.1,1.271h0.02
			c0.854-0.735,2.345-1.351,3.477-1.47c0.04,0.119,0.08,0.338,0.08,0.517C167.189,145.678,167.149,145.937,167.109,146.115z"/>
		<path style="fill:#58595B;" d="M172.313,155.711c-2.603,0-4.271-1.789-4.271-5.364c0-3.576,1.688-5.384,4.291-5.384
			s4.251,1.768,4.251,5.344C176.584,153.883,174.916,155.711,172.313,155.711z M172.333,145.937c-1.907,0-2.94,1.47-2.94,4.391
			c0,2.921,1.014,4.411,2.921,4.411s2.921-1.49,2.921-4.411C175.234,147.407,174.24,145.937,172.333,145.937z"/>
		<path style="fill:#58595B;" d="M193.092,155.531c-0.199,0.041-0.398,0.08-0.596,0.08c-0.238,0-0.457-0.059-0.695-0.1v-6.277
			c0-2.186-0.557-3.179-2.404-3.179c-0.953,0-2.225,0.497-3.02,1.073c0.158,0.556,0.197,1.172,0.197,1.788v6.595
			c-0.197,0.061-0.396,0.1-0.596,0.1c-0.258,0-0.496-0.039-0.695-0.1v-6.277c0-2.186-0.496-3.179-2.344-3.179
			c-0.993,0-2.166,0.556-2.94,1.152v8.304c-0.218,0.061-0.477,0.1-0.715,0.1c-0.198,0-0.417-0.039-0.576-0.1v-10.35
			c0.099-0.04,0.317-0.08,0.536-0.08c0.18,0,0.397,0.04,0.537,0.08l0.099,1.033h0.021c1.092-0.894,2.344-1.232,3.357-1.232
			s1.986,0.338,2.562,1.033c0.08,0.079,0.139,0.179,0.199,0.278c1.053-0.854,2.402-1.311,3.695-1.311
			c1.012,0,2.045,0.338,2.621,1.033c0.637,0.755,0.756,1.848,0.756,2.92V155.531z"/>
	</g>
	<g>
		<path style="fill:#58595B;" d="M66.592,175.373c-0.139,0.061-0.457,0.1-0.675,0.1c-0.238,0-0.576-0.039-0.834-0.1l-3.06-5.424
			c-0.219,0.02-0.437,0.02-0.675,0.02h-1.749v5.404c-0.159,0.061-0.477,0.1-0.695,0.1c-0.218,0-0.497-0.039-0.656-0.1v-13.43
			c0.875-0.039,1.947-0.1,2.92-0.1c2.861,0,4.769,0.934,4.769,4.014c0,1.887-0.894,3.258-2.623,3.814L66.592,175.373z
			 M61.407,162.838c-0.497,0-1.371,0.02-1.808,0.059v6.041h1.828c2.027,0,3.139-0.895,3.139-3.1
			C64.566,163.652,63.454,162.838,61.407,162.838z"/>
		<path style="fill:#58595B;" d="M75.808,172.83c0,0.715,0,1.609,0.04,2.543c-0.139,0.061-0.358,0.1-0.537,0.1
			c-0.159,0-0.377-0.039-0.536-0.1c-0.06-0.318-0.1-0.734-0.119-1.111h-0.02c-0.675,0.834-1.868,1.311-3.04,1.311
			c-1.848,0-3.397-1.033-3.397-3.158c0-1.213,0.497-2.107,1.271-2.662c0.874-0.617,2.026-0.814,3.258-0.814
			c0.695,0,1.271,0.039,1.788,0.119v-0.576c0-1.988-0.814-2.643-2.483-2.643c-0.934,0-2.086,0.197-2.801,0.377
			c-0.04-0.1-0.08-0.318-0.08-0.516c0-0.141,0.04-0.338,0.1-0.457c0.854-0.26,1.986-0.418,2.94-0.418
			c2.364,0,3.616,1.072,3.616,3.496V172.83z M74.517,170.029c-0.576-0.08-1.172-0.119-1.689-0.119c-0.973,0-1.848,0.18-2.443,0.635
			c-0.537,0.398-0.834,1.033-0.834,1.848c0,1.451,0.934,2.146,2.225,2.146c1.073,0,2.205-0.516,2.742-1.33V170.029z"/>
		<path style="fill:#58595B;" d="M86.494,175.393c-0.159,0.041-0.397,0.08-0.636,0.08c-0.199,0-0.457-0.039-0.656-0.1v-6.297
			c0-0.953-0.119-1.689-0.397-2.205c-0.337-0.637-0.973-0.955-2.006-0.955c-0.993,0-2.186,0.557-2.96,1.152v8.305
			c-0.218,0.061-0.437,0.1-0.675,0.1c-0.199,0-0.437-0.039-0.616-0.1v-10.35c0.139-0.061,0.377-0.08,0.517-0.08
			c0.199,0,0.437,0.02,0.556,0.08l0.099,1.033h0.02c1.093-0.895,2.344-1.232,3.357-1.232s2.066,0.338,2.643,1.033
			c0.636,0.754,0.755,1.848,0.755,2.92V175.393z"/>
		<path style="fill:#58595B;" d="M96.265,175.473c-0.179,0-0.397-0.059-0.517-0.1l-0.119-1.191h-0.02
			c-0.854,0.895-1.868,1.391-3,1.391c-2.742,0-4.053-2.285-4.053-5.066c0-2.762,1.172-5.682,4.331-5.682
			c0.993,0,1.907,0.338,2.642,0.854v-4.807c0.179-0.061,0.417-0.1,0.636-0.1c0.238,0,0.477,0.059,0.656,0.1v14.502
			C96.682,175.434,96.483,175.473,96.265,175.473z M95.53,166.771c-0.715-0.596-1.629-0.895-2.563-0.895
			c-2.304,0-3.079,2.266-3.079,4.57c0,1.768,0.556,4.072,2.781,4.072c1.073,0,2.166-0.537,2.861-1.371V166.771z"/>
		<path style="fill:#58595B;" d="M103.216,175.572c-2.603,0-4.271-1.789-4.271-5.363c0-3.576,1.688-5.385,4.291-5.385
			s4.251,1.768,4.251,5.344S105.818,175.572,103.216,175.572z M103.235,165.797c-1.907,0-2.94,1.471-2.94,4.391
			c0,2.922,1.013,4.412,2.92,4.412s2.92-1.49,2.92-4.412C106.136,167.268,105.143,165.797,103.235,165.797z"/>
		<path style="fill:#58595B;" d="M116.444,175.473c-0.258,0-0.417-0.039-0.616-0.1c-0.119-0.535-0.238-0.934-0.636-1.469
			l-2.304-3.141l-2.444,3.26c-0.437,0.576-0.497,0.834-0.576,1.35c-0.219,0.061-0.457,0.1-0.636,0.1c-0.199,0-0.576-0.039-0.715-0.1
			c0.08-0.654,0.298-1.092,0.715-1.648l2.881-3.795l-2.464-3.258c-0.556-0.734-0.735-1.291-0.735-1.689
			c0.159-0.039,0.497-0.078,0.695-0.078c0.238,0,0.497,0.02,0.656,0.078c0.06,0.379,0.179,0.795,0.636,1.432l1.947,2.662
			l2.007-2.623c0.477-0.615,0.596-1.053,0.675-1.471c0.159-0.039,0.397-0.078,0.656-0.078c0.139,0,0.497,0.039,0.636,0.078
			c-0.02,0.557-0.298,1.074-0.735,1.67l-2.443,3.238l2.781,3.773c0.457,0.617,0.695,1.055,0.794,1.709
			C117.02,175.434,116.663,175.473,116.444,175.473z"/>
		<path style="fill:#58595B;" d="M128.996,175.273c-0.517,0.18-1.292,0.299-1.867,0.299c-1.967,0-2.901-0.934-2.901-3.139v-6.398
			h-1.788c-0.04-0.098-0.06-0.336-0.06-0.455c0-0.1,0.02-0.338,0.06-0.438l1.788-0.119v-2.703c0.159-0.059,0.417-0.1,0.636-0.1
			c0.219,0,0.497,0.041,0.656,0.1v2.703h2.92c0.04,0.1,0.08,0.396,0.08,0.496c0,0.139-0.04,0.377-0.08,0.516h-2.92v6.279
			c0,1.568,0.457,2.225,1.688,2.225c0.676,0,1.331-0.1,1.788-0.238c0.04,0.1,0.08,0.338,0.08,0.477
			C129.076,174.957,129.056,175.096,128.996,175.273z"/>
		<path style="fill:#58595B;" d="M134.12,175.572c-2.603,0-4.271-1.789-4.271-5.363c0-3.576,1.688-5.385,4.291-5.385
			s4.251,1.768,4.251,5.344S136.722,175.572,134.12,175.572z M134.139,165.797c-1.907,0-2.94,1.471-2.94,4.391
			c0,2.922,1.013,4.412,2.92,4.412s2.92-1.49,2.92-4.412C137.04,167.268,136.046,165.797,134.139,165.797z"/>
		<path style="fill:#58595B;" d="M152.016,175.473c-0.18,0-0.397-0.059-0.517-0.1l-0.119-1.191h-0.021
			c-0.854,0.895-1.867,1.391-3,1.391c-2.742,0-4.053-2.285-4.053-5.066c0-2.762,1.172-5.682,4.331-5.682
			c0.993,0,1.907,0.338,2.642,0.854v-4.807c0.179-0.061,0.417-0.1,0.636-0.1c0.238,0,0.477,0.059,0.656,0.1v14.502
			C152.433,175.434,152.234,175.473,152.016,175.473z M151.28,166.771c-0.715-0.596-1.629-0.895-2.563-0.895
			c-2.304,0-3.079,2.266-3.079,4.57c0,1.768,0.556,4.072,2.781,4.072c1.073,0,2.166-0.537,2.861-1.371V166.771z"/>
		<path style="fill:#58595B;" d="M162.662,170.545h-6.656c0.08,2.285,1.152,4.014,3.636,4.014c0.894,0,1.729-0.119,2.464-0.297
			c0.039,0.098,0.079,0.297,0.079,0.416c0,0.199-0.04,0.377-0.099,0.518c-0.775,0.238-1.749,0.377-2.563,0.377
			c-1.569,0-2.762-0.496-3.497-1.291c-0.873-0.953-1.33-2.385-1.33-4.033c0-2.881,1.449-5.424,4.35-5.424
			c2.604,0,3.637,2.146,3.637,4.768C162.682,169.891,162.682,170.248,162.662,170.545z M161.391,169.592
			c0-1.828-0.199-3.795-2.404-3.795c-1.928,0-2.861,1.77-2.98,3.795H161.391z"/>
		<path style="fill:#58595B;" d="M166.176,175.373c-0.219,0.061-0.438,0.1-0.676,0.1c-0.199,0-0.438-0.039-0.616-0.1v-14.502
			c0.179-0.041,0.397-0.1,0.655-0.1c0.219,0,0.457,0.039,0.637,0.1V175.373z"/>
		<path style="fill:#58595B;" d="M169.631,162.996c-0.457,0-0.834-0.396-0.834-0.873c0-0.479,0.377-0.855,0.834-0.855
			s0.854,0.377,0.854,0.855C170.484,162.6,170.088,162.996,169.631,162.996z M170.286,175.373c-0.179,0.061-0.437,0.1-0.655,0.1
			s-0.457-0.039-0.637-0.1v-10.35c0.16-0.041,0.418-0.1,0.617-0.1c0.218,0,0.516,0.039,0.675,0.1V175.373z"/>
		<path style="fill:#58595B;" d="M180.08,167.547l-3.119,7.826c-0.18,0.061-0.378,0.1-0.537,0.1c-0.219,0-0.396-0.039-0.556-0.1
			l-3.219-7.826c-0.357-0.895-0.517-1.789-0.517-2.523c0.159-0.041,0.438-0.1,0.616-0.1c0.238,0,0.477,0.039,0.675,0.1
			c0.021,0.676,0.1,1.449,0.398,2.164l2.582,6.557h0.04l2.503-6.557c0.278-0.695,0.418-1.469,0.418-2.164
			c0.139-0.061,0.437-0.1,0.695-0.1c0.139,0,0.396,0.02,0.576,0.08C180.616,165.719,180.477,166.572,180.08,167.547z"/>
		<path style="fill:#58595B;" d="M189.713,170.545h-6.656c0.08,2.285,1.152,4.014,3.637,4.014c0.893,0,1.729-0.119,2.463-0.297
			c0.039,0.098,0.08,0.297,0.08,0.416c0,0.199-0.041,0.377-0.1,0.518c-0.775,0.238-1.748,0.377-2.562,0.377
			c-1.57,0-2.762-0.496-3.497-1.291c-0.874-0.953-1.331-2.385-1.331-4.033c0-2.881,1.45-5.424,4.352-5.424
			c2.602,0,3.635,2.146,3.635,4.768C189.732,169.891,189.732,170.248,189.713,170.545z M188.441,169.592
			c0-1.828-0.199-3.795-2.404-3.795c-1.928,0-2.861,1.77-2.98,3.795H188.441z"/>
		<path style="fill:#58595B;" d="M196.523,165.977c-1.15,0.158-2.402,0.576-3.336,1.291v8.105c-0.199,0.061-0.438,0.1-0.656,0.1
			s-0.438-0.039-0.637-0.1v-10.35c0.119-0.041,0.299-0.08,0.498-0.08c0.158,0,0.377,0.039,0.535,0.08l0.1,1.271h0.02
			c0.855-0.736,2.346-1.352,3.477-1.471c0.041,0.119,0.08,0.338,0.08,0.516C196.604,165.539,196.564,165.797,196.523,165.977z"/>
	</g>
	<g>
		<path style="fill:#58595B;" d="M64.427,186.137c-0.636-0.26-1.47-0.418-2.205-0.418c-2.583,0-3.536,2.006-3.536,4.43
			c0,2.385,0.914,4.232,3.516,4.232c0.695,0,1.53-0.119,2.146-0.299c0.04,0.119,0.08,0.26,0.08,0.418
			c0,0.238-0.04,0.416-0.099,0.557c-0.576,0.238-1.51,0.377-2.245,0.377c-3.238,0-4.748-2.125-4.748-5.244
			c0-3.238,1.649-5.504,4.808-5.504c0.755,0,1.649,0.18,2.265,0.457c0.06,0.158,0.079,0.318,0.079,0.496
			C64.486,185.838,64.467,185.996,64.427,186.137z"/>
		<path style="fill:#58595B;" d="M74.179,191.301c0,3.02-1.252,4.133-3.874,4.133c-2.682,0-3.814-1.113-3.814-4.033v-6.516
			c0.179-0.061,0.417-0.1,0.636-0.1c0.278,0,0.497,0.059,0.655,0.1v6.357c0,1.926,0.298,3.197,2.543,3.197
			c2.106,0,2.563-1.23,2.563-3.238v-6.316c0.159-0.061,0.437-0.1,0.656-0.1c0.218,0,0.457,0.039,0.636,0.1V191.301z"/>
		<path style="fill:#58595B;" d="M82.322,195.135c-0.517,0.18-1.291,0.299-1.867,0.299c-1.967,0-2.901-0.934-2.901-3.139v-6.398
			h-1.788c-0.04-0.098-0.06-0.336-0.06-0.455c0-0.1,0.02-0.338,0.06-0.438l1.788-0.119v-2.703c0.159-0.059,0.417-0.1,0.636-0.1
			c0.219,0,0.497,0.041,0.656,0.1v2.703h2.92c0.04,0.1,0.08,0.396,0.08,0.496c0,0.139-0.04,0.377-0.08,0.516h-2.92v6.279
			c0,1.568,0.457,2.225,1.688,2.225c0.676,0,1.331-0.1,1.788-0.238c0.04,0.1,0.08,0.338,0.08,0.477
			C82.401,194.818,82.381,194.957,82.322,195.135z"/>
		<path style="fill:#58595B;" d="M89.571,195.135c-0.517,0.18-1.292,0.299-1.867,0.299c-1.967,0-2.901-0.934-2.901-3.139v-6.398
			h-1.788c-0.04-0.098-0.06-0.336-0.06-0.455c0-0.1,0.02-0.338,0.06-0.438l1.788-0.119v-2.703c0.159-0.059,0.417-0.1,0.636-0.1
			c0.219,0,0.497,0.041,0.656,0.1v2.703h2.92c0.04,0.1,0.08,0.396,0.08,0.496c0,0.139-0.04,0.377-0.08,0.516h-2.92v6.279
			c0,1.568,0.457,2.225,1.688,2.225c0.676,0,1.331-0.1,1.788-0.238c0.04,0.1,0.08,0.338,0.08,0.477
			C89.651,194.818,89.631,194.957,89.571,195.135z"/>
		<path style="fill:#58595B;" d="M92.211,182.857c-0.457,0-0.834-0.396-0.834-0.873c0-0.479,0.377-0.855,0.834-0.855
			c0.457,0,0.854,0.377,0.854,0.855C93.066,182.461,92.668,182.857,92.211,182.857z M92.867,195.234
			c-0.179,0.061-0.437,0.1-0.656,0.1c-0.218,0-0.457-0.039-0.636-0.1v-10.35c0.159-0.041,0.417-0.1,0.616-0.1
			c0.218,0,0.517,0.039,0.675,0.1V195.234z"/>
		<path style="fill:#58595B;" d="M103.594,195.254c-0.159,0.041-0.397,0.08-0.636,0.08c-0.199,0-0.457-0.039-0.656-0.1v-6.297
			c0-0.953-0.119-1.689-0.397-2.205c-0.337-0.637-0.973-0.955-2.006-0.955c-0.993,0-2.186,0.557-2.96,1.152v8.305
			c-0.218,0.061-0.437,0.1-0.675,0.1c-0.199,0-0.437-0.039-0.616-0.1v-10.35c0.139-0.061,0.377-0.08,0.517-0.08
			c0.199,0,0.437,0.02,0.556,0.08l0.099,1.033h0.02c1.093-0.895,2.344-1.232,3.357-1.232s2.066,0.338,2.643,1.033
			c0.636,0.754,0.755,1.848,0.755,2.92V195.254z"/>
		<path style="fill:#58595B;" d="M113.724,193.506c0,1.49-0.08,3.279-0.795,4.51c-0.854,1.471-2.384,2.107-3.914,2.107
			c-0.874,0-1.629-0.1-2.265-0.318c-0.06-0.119-0.08-0.318-0.08-0.477c0-0.119,0.04-0.357,0.08-0.477
			c0.616,0.158,1.331,0.277,2.046,0.277c2.503,0,3.636-1.549,3.636-4.271v-0.834c-0.775,0.814-1.867,1.211-2.761,1.211
			c-2.643,0-4.013-2.045-4.013-4.926c0-3.537,2.086-5.623,5.166-5.623c0.814,0,2.046,0.238,2.9,0.576V193.506z M112.432,185.896
			c-0.715-0.197-1.231-0.258-1.729-0.258c-2.523,0-3.715,2.127-3.715,4.609c0,2.205,0.834,3.934,2.781,3.934
			c0.993,0,2.007-0.496,2.662-1.191V185.896z"/>
		<path style="fill:#58595B;" d="M119.839,189.533c0.04,0.1,0.099,0.357,0.099,0.516c0,0.16-0.04,0.379-0.099,0.537h-3.874
			c-0.06-0.158-0.1-0.377-0.1-0.537c0-0.158,0.06-0.416,0.1-0.516H119.839z"/>
		<path style="fill:#58595B;" d="M129.652,190.406h-6.655c0.08,2.285,1.152,4.014,3.636,4.014c0.894,0,1.729-0.119,2.463-0.297
			c0.04,0.098,0.08,0.297,0.08,0.416c0,0.199-0.04,0.377-0.099,0.518c-0.775,0.238-1.749,0.377-2.563,0.377
			c-1.569,0-2.762-0.496-3.497-1.291c-0.874-0.953-1.331-2.385-1.331-4.033c0-2.881,1.45-5.424,4.351-5.424
			c2.603,0,3.636,2.146,3.636,4.768C129.672,189.752,129.672,190.109,129.652,190.406z M128.38,189.453
			c0-1.828-0.198-3.795-2.404-3.795c-1.927,0-2.861,1.77-2.98,3.795H128.38z"/>
		<path style="fill:#58595B;" d="M138.967,195.334c-0.179,0-0.397-0.059-0.517-0.1l-0.119-1.191h-0.02
			c-0.854,0.895-1.868,1.391-3,1.391c-2.742,0-4.053-2.285-4.053-5.066c0-2.762,1.172-5.682,4.331-5.682
			c0.993,0,1.907,0.338,2.642,0.854v-4.807c0.179-0.061,0.417-0.1,0.636-0.1c0.238,0,0.477,0.059,0.656,0.1v14.502
			C139.384,195.295,139.186,195.334,138.967,195.334z M138.232,186.633c-0.715-0.596-1.629-0.895-2.563-0.895
			c-2.304,0-3.079,2.266-3.079,4.57c0,1.768,0.556,4.072,2.781,4.072c1.073,0,2.166-0.537,2.861-1.371V186.633z"/>
		<path style="fill:#58595B;" d="M149.712,193.506c0,1.49-0.08,3.279-0.795,4.51c-0.854,1.471-2.384,2.107-3.914,2.107
			c-0.874,0-1.629-0.1-2.265-0.318c-0.06-0.119-0.08-0.318-0.08-0.477c0-0.119,0.04-0.357,0.08-0.477
			c0.616,0.158,1.331,0.277,2.046,0.277c2.503,0,3.636-1.549,3.636-4.271v-0.834c-0.775,0.814-1.867,1.211-2.761,1.211
			c-2.643,0-4.013-2.045-4.013-4.926c0-3.537,2.086-5.623,5.166-5.623c0.814,0,2.046,0.238,2.9,0.576V193.506z M148.421,185.896
			c-0.715-0.197-1.231-0.258-1.729-0.258c-2.523,0-3.715,2.127-3.715,4.609c0,2.205,0.834,3.934,2.781,3.934
			c0.994,0,2.007-0.496,2.662-1.191V185.896z"/>
		<path style="fill:#58595B;" d="M159.801,190.406h-6.654c0.079,2.285,1.152,4.014,3.635,4.014c0.895,0,1.729-0.119,2.464-0.297
			c0.04,0.098,0.079,0.297,0.079,0.416c0,0.199-0.039,0.377-0.099,0.518c-0.774,0.238-1.749,0.377-2.563,0.377
			c-1.568,0-2.762-0.496-3.496-1.291c-0.874-0.953-1.331-2.385-1.331-4.033c0-2.881,1.45-5.424,4.351-5.424
			c2.603,0,3.636,2.146,3.636,4.768C159.821,189.752,159.821,190.109,159.801,190.406z M158.529,189.453
			c0-1.828-0.197-3.795-2.403-3.795c-1.927,0-2.86,1.77-2.979,3.795H158.529z"/>
	</g>
	<g>
		<path style="fill:#58595B;" d="M63.414,214.998c-0.517,0.18-1.291,0.299-1.867,0.299c-1.967,0-2.901-0.934-2.901-3.139v-6.398
			h-1.788c-0.04-0.098-0.06-0.336-0.06-0.455c0-0.1,0.02-0.338,0.06-0.438l1.788-0.119v-2.703c0.159-0.059,0.417-0.1,0.636-0.1
			c0.219,0,0.497,0.041,0.656,0.1v2.703h2.92c0.04,0.1,0.08,0.396,0.08,0.496c0,0.139-0.04,0.377-0.08,0.516h-2.92v6.279
			c0,1.568,0.457,2.225,1.688,2.225c0.676,0,1.331-0.1,1.788-0.238c0.04,0.1,0.08,0.338,0.08,0.477
			C63.493,214.682,63.473,214.82,63.414,214.998z"/>
		<path style="fill:#58595B;" d="M72.252,210.27h-6.655c0.08,2.285,1.152,4.014,3.636,4.014c0.894,0,1.729-0.119,2.463-0.297
			c0.04,0.098,0.08,0.297,0.08,0.416c0,0.199-0.04,0.377-0.099,0.518c-0.775,0.238-1.749,0.377-2.563,0.377
			c-1.569,0-2.762-0.496-3.497-1.291c-0.874-0.953-1.331-2.385-1.331-4.033c0-2.881,1.45-5.424,4.351-5.424
			c2.603,0,3.636,2.146,3.636,4.768C72.272,209.615,72.272,209.973,72.252,210.27z M70.981,209.316c0-1.828-0.198-3.795-2.404-3.795
			c-1.927,0-2.861,1.77-2.98,3.795H70.981z"/>
		<path style="fill:#58595B;" d="M80.952,206c-0.636-0.26-1.47-0.418-2.205-0.418c-2.583,0-3.536,2.006-3.536,4.43
			c0,2.385,0.914,4.232,3.516,4.232c0.695,0,1.53-0.119,2.146-0.299c0.04,0.119,0.079,0.26,0.079,0.418
			c0,0.238-0.04,0.416-0.099,0.557c-0.576,0.238-1.51,0.377-2.245,0.377c-3.238,0-4.748-2.125-4.748-5.244
			c0-3.238,1.649-5.504,4.808-5.504c0.755,0,1.649,0.18,2.265,0.457c0.06,0.158,0.079,0.318,0.079,0.496
			C81.011,205.701,80.992,205.859,80.952,206z"/>
		<path style="fill:#58595B;" d="M91.022,215.098c-0.179,0.061-0.397,0.1-0.596,0.1c-0.238,0-0.497-0.039-0.695-0.1v-6.277
			c0-2.186-0.556-3.18-2.404-3.18c-0.993,0-2.186,0.557-2.96,1.152v8.305c-0.218,0.061-0.457,0.1-0.675,0.1
			c-0.199,0-0.437-0.039-0.616-0.1v-14.502c0.179-0.061,0.457-0.1,0.636-0.1s0.477,0.039,0.655,0.1v5.105
			c1.053-0.814,2.305-1.152,3.278-1.152c1.013,0,2.046,0.338,2.623,1.033c0.636,0.754,0.755,1.848,0.755,2.92V215.098z"/>
		<path style="fill:#58595B;" d="M101.608,215.117c-0.159,0.041-0.397,0.08-0.636,0.08c-0.199,0-0.457-0.039-0.656-0.1v-6.297
			c0-0.953-0.119-1.689-0.397-2.205c-0.337-0.637-0.973-0.955-2.006-0.955c-0.993,0-2.186,0.557-2.96,1.152v8.305
			c-0.218,0.061-0.437,0.1-0.675,0.1c-0.199,0-0.437-0.039-0.616-0.1v-10.35c0.139-0.061,0.377-0.08,0.517-0.08
			c0.199,0,0.437,0.02,0.556,0.08l0.099,1.033h0.02c1.093-0.895,2.344-1.232,3.357-1.232s2.066,0.338,2.643,1.033
			c0.636,0.754,0.755,1.848,0.755,2.92V215.117z"/>
		<path style="fill:#58595B;" d="M107.943,215.297c-2.603,0-4.271-1.789-4.271-5.363c0-3.576,1.688-5.385,4.291-5.385
			s4.251,1.768,4.251,5.344S110.545,215.297,107.943,215.297z M107.962,205.521c-1.907,0-2.94,1.471-2.94,4.391
			c0,2.922,1.013,4.412,2.92,4.412s2.92-1.49,2.92-4.412C110.863,206.992,109.87,205.521,107.962,205.521z"/>
		<path style="fill:#58595B;" d="M115.668,215.098c-0.219,0.061-0.437,0.1-0.676,0.1c-0.198,0-0.437-0.039-0.616-0.1v-14.502
			c0.179-0.041,0.397-0.1,0.656-0.1c0.218,0,0.457,0.039,0.636,0.1V215.098z"/>
		<path style="fill:#58595B;" d="M122.104,215.297c-2.603,0-4.271-1.789-4.271-5.363c0-3.576,1.688-5.385,4.291-5.385
			s4.251,1.768,4.251,5.344S124.706,215.297,122.104,215.297z M122.123,205.521c-1.907,0-2.94,1.471-2.94,4.391
			c0,2.922,1.013,4.412,2.92,4.412s2.92-1.49,2.92-4.412C125.024,206.992,124.03,205.521,122.123,205.521z"/>
		<path style="fill:#58595B;" d="M135.988,213.369c0,1.49-0.08,3.279-0.795,4.51c-0.854,1.471-2.384,2.107-3.914,2.107
			c-0.874,0-1.629-0.1-2.265-0.318c-0.06-0.119-0.08-0.318-0.08-0.477c0-0.119,0.04-0.357,0.08-0.477
			c0.616,0.158,1.331,0.277,2.046,0.277c2.503,0,3.636-1.549,3.636-4.271v-0.834c-0.775,0.814-1.867,1.211-2.761,1.211
			c-2.643,0-4.013-2.045-4.013-4.926c0-3.537,2.086-5.623,5.166-5.623c0.814,0,2.046,0.238,2.9,0.576V213.369z M134.696,205.76
			c-0.715-0.197-1.231-0.258-1.729-0.258c-2.523,0-3.715,2.127-3.715,4.609c0,2.205,0.834,3.934,2.781,3.934
			c0.994,0,2.007-0.496,2.662-1.191V205.76z"/>
		<path style="fill:#58595B;" d="M139.402,202.721c-0.457,0-0.834-0.396-0.834-0.873c0-0.479,0.377-0.855,0.834-0.855
			c0.457,0,0.854,0.377,0.854,0.855C140.256,202.324,139.859,202.721,139.402,202.721z M140.058,215.098
			c-0.179,0.061-0.437,0.1-0.656,0.1c-0.218,0-0.457-0.039-0.636-0.1v-10.35c0.159-0.041,0.417-0.1,0.616-0.1
			c0.218,0,0.517,0.039,0.675,0.1V215.098z"/>
		<path style="fill:#58595B;" d="M150.228,210.27h-6.655c0.08,2.285,1.152,4.014,3.636,4.014c0.894,0,1.729-0.119,2.463-0.297
			c0.04,0.098,0.08,0.297,0.08,0.416c0,0.199-0.04,0.377-0.099,0.518c-0.775,0.238-1.749,0.377-2.563,0.377
			c-1.569,0-2.762-0.496-3.497-1.291c-0.874-0.953-1.331-2.385-1.331-4.033c0-2.881,1.45-5.424,4.351-5.424
			c2.603,0,3.636,2.146,3.636,4.768C150.248,209.615,150.248,209.973,150.228,210.27z M148.957,209.316
			c0-1.828-0.198-3.795-2.404-3.795c-1.927,0-2.861,1.77-2.98,3.795H148.957z"/>
		<path style="fill:#58595B;" d="M154.715,215.297c-0.992,0-2.025-0.18-2.74-0.457c-0.061-0.139-0.1-0.377-0.1-0.557
			c0-0.119,0.039-0.416,0.079-0.535c0.735,0.297,1.788,0.535,2.662,0.535c1.51,0,2.444-0.635,2.444-1.887
			c0-1.133-0.576-1.529-2.146-2.105c-2.186-0.795-2.9-1.709-2.9-3.061c0-1.828,1.51-2.682,3.457-2.682
			c0.655,0,1.51,0.119,2.006,0.277c0.061,0.18,0.08,0.357,0.08,0.479c0,0.158-0.04,0.436-0.08,0.574
			c-0.655-0.197-1.351-0.316-2.025-0.316c-1.411,0-2.266,0.535-2.266,1.629c0,0.953,0.537,1.41,2.166,2.025
			c1.49,0.557,2.861,1.113,2.861,3.119C158.213,214.363,156.683,215.297,154.715,215.297z"/>
		<path style="fill:#58595B;" d="M170.188,214.998c-0.517,0.18-1.292,0.299-1.867,0.299c-1.968,0-2.901-0.934-2.901-3.139v-6.398
			h-1.787c-0.04-0.098-0.061-0.336-0.061-0.455c0-0.1,0.021-0.338,0.061-0.438l1.787-0.119v-2.703c0.16-0.059,0.418-0.1,0.637-0.1
			s0.496,0.041,0.655,0.1v2.703h2.921c0.039,0.1,0.079,0.396,0.079,0.496c0,0.139-0.04,0.377-0.079,0.516h-2.921v6.279
			c0,1.568,0.457,2.225,1.688,2.225c0.676,0,1.331-0.1,1.788-0.238c0.04,0.1,0.079,0.338,0.079,0.477
			C170.268,214.682,170.248,214.82,170.188,214.998z"/>
		<path style="fill:#58595B;" d="M175.312,215.297c-2.603,0-4.271-1.789-4.271-5.363c0-3.576,1.688-5.385,4.291-5.385
			s4.252,1.768,4.252,5.344S177.915,215.297,175.312,215.297z M175.332,205.521c-1.907,0-2.939,1.471-2.939,4.391
			c0,2.922,1.013,4.412,2.92,4.412s2.92-1.49,2.92-4.412C178.232,206.992,177.239,205.521,175.332,205.521z"/>
		<path style="fill:#58595B;" d="M189.254,215.297c-0.912,0-2.086-0.139-3.178-0.537v-14.164c0.139-0.041,0.438-0.1,0.615-0.1
			c0.318,0,0.557,0.059,0.676,0.1v5.025c0.814-0.676,1.848-1.072,2.941-1.072c2.801,0,3.973,2.404,3.973,5.086
			C194.281,213.053,192.533,215.297,189.254,215.297z M190.129,205.662c-0.994,0-1.986,0.416-2.762,1.191v7.133
			c0.537,0.197,1.213,0.316,1.789,0.316c2.76,0,3.773-2.105,3.773-4.588C192.93,207.787,192.373,205.662,190.129,205.662z"/>
		<path style="fill:#58595B;" d="M203.814,210.27h-6.656c0.08,2.285,1.152,4.014,3.637,4.014c0.893,0,1.729-0.119,2.463-0.297
			c0.039,0.098,0.08,0.297,0.08,0.416c0,0.199-0.041,0.377-0.1,0.518c-0.775,0.238-1.748,0.377-2.562,0.377
			c-1.57,0-2.762-0.496-3.498-1.291c-0.873-0.953-1.33-2.385-1.33-4.033c0-2.881,1.449-5.424,4.352-5.424
			c2.602,0,3.635,2.146,3.635,4.768C203.834,209.615,203.834,209.973,203.814,210.27z M202.543,209.316
			c0-1.828-0.199-3.795-2.404-3.795c-1.928,0-2.861,1.77-2.98,3.795H202.543z"/>
		<path style="fill:#58595B;" d="M211.5,214.998c-0.516,0.18-1.291,0.299-1.867,0.299c-1.967,0-2.9-0.934-2.9-3.139v-6.398h-1.789
			c-0.039-0.098-0.059-0.336-0.059-0.455c0-0.1,0.02-0.338,0.059-0.438l1.789-0.119v-2.703c0.158-0.059,0.416-0.1,0.635-0.1
			s0.498,0.041,0.656,0.1v2.703h2.92c0.041,0.1,0.08,0.396,0.08,0.496c0,0.139-0.039,0.377-0.08,0.516h-2.92v6.279
			c0,1.568,0.457,2.225,1.689,2.225c0.674,0,1.33-0.1,1.787-0.238c0.039,0.1,0.08,0.338,0.08,0.477
			C211.58,214.682,211.561,214.82,211.5,214.998z"/>
		<path style="fill:#58595B;" d="M218.75,214.998c-0.518,0.18-1.293,0.299-1.869,0.299c-1.967,0-2.9-0.934-2.9-3.139v-6.398h-1.787
			c-0.041-0.098-0.061-0.336-0.061-0.455c0-0.1,0.02-0.338,0.061-0.438l1.787-0.119v-2.703c0.16-0.059,0.418-0.1,0.637-0.1
			s0.496,0.041,0.654,0.1v2.703h2.922c0.039,0.1,0.078,0.396,0.078,0.496c0,0.139-0.039,0.377-0.078,0.516h-2.922v6.279
			c0,1.568,0.457,2.225,1.689,2.225c0.676,0,1.332-0.1,1.789-0.238c0.039,0.1,0.078,0.338,0.078,0.477
			C218.828,214.682,218.809,214.82,218.75,214.998z"/>
		<path style="fill:#58595B;" d="M227.588,210.27h-6.654c0.078,2.285,1.152,4.014,3.635,4.014c0.895,0,1.729-0.119,2.465-0.297
			c0.039,0.098,0.078,0.297,0.078,0.416c0,0.199-0.039,0.377-0.1,0.518c-0.773,0.238-1.748,0.377-2.562,0.377
			c-1.568,0-2.762-0.496-3.496-1.291c-0.875-0.953-1.332-2.385-1.332-4.033c0-2.881,1.451-5.424,4.352-5.424
			c2.604,0,3.637,2.146,3.637,4.768C227.609,209.615,227.609,209.973,227.588,210.27z M226.316,209.316
			c0-1.828-0.197-3.795-2.402-3.795c-1.928,0-2.861,1.77-2.98,3.795H226.316z"/>
		<path style="fill:#58595B;" d="M234.4,205.701c-1.152,0.158-2.404,0.576-3.338,1.291v8.105c-0.199,0.061-0.438,0.1-0.656,0.1
			c-0.217,0-0.436-0.039-0.635-0.1v-10.35c0.119-0.041,0.299-0.08,0.496-0.08c0.16,0,0.377,0.039,0.537,0.08l0.1,1.271h0.02
			c0.854-0.736,2.344-1.352,3.477-1.471c0.039,0.119,0.08,0.338,0.08,0.516C234.48,205.264,234.439,205.521,234.4,205.701z"/>
	</g>
	<g>
		<path style="fill:#58595B;" d="M65.043,235.059c-0.179,0-0.397-0.059-0.517-0.1l-0.119-1.191h-0.02
			c-0.854,0.895-1.868,1.391-3,1.391c-2.742,0-4.053-2.285-4.053-5.066c0-2.762,1.172-5.682,4.331-5.682
			c0.993,0,1.907,0.338,2.642,0.854v-4.807c0.179-0.061,0.417-0.1,0.636-0.1c0.238,0,0.477,0.059,0.656,0.1v14.502
			C65.46,235.02,65.261,235.059,65.043,235.059z M64.308,226.357c-0.715-0.596-1.629-0.895-2.563-0.895
			c-2.304,0-3.079,2.266-3.079,4.57c0,1.768,0.556,4.072,2.781,4.072c1.073,0,2.166-0.537,2.861-1.371V226.357z"/>
		<path style="fill:#58595B;" d="M69.609,222.582c-0.457,0-0.834-0.396-0.834-0.873c0-0.479,0.377-0.855,0.834-0.855
			c0.457,0,0.854,0.377,0.854,0.855C70.463,222.186,70.066,222.582,69.609,222.582z M70.265,234.959
			c-0.179,0.061-0.437,0.1-0.656,0.1c-0.218,0-0.457-0.039-0.636-0.1v-10.35c0.159-0.041,0.417-0.1,0.616-0.1
			c0.218,0,0.517,0.039,0.675,0.1V234.959z"/>
		<path style="fill:#58595B;" d="M80.118,232.416c0,0.715,0,1.609,0.04,2.543c-0.139,0.061-0.357,0.1-0.537,0.1
			c-0.159,0-0.377-0.039-0.536-0.1c-0.06-0.318-0.1-0.734-0.119-1.111h-0.02c-0.675,0.834-1.868,1.311-3.04,1.311
			c-1.848,0-3.397-1.033-3.397-3.158c0-1.213,0.497-2.107,1.271-2.662c0.874-0.617,2.026-0.814,3.258-0.814
			c0.695,0,1.271,0.039,1.788,0.119v-0.576c0-1.988-0.814-2.643-2.483-2.643c-0.934,0-2.086,0.197-2.801,0.377
			c-0.04-0.1-0.08-0.318-0.08-0.516c0-0.141,0.04-0.338,0.1-0.457c0.854-0.26,1.986-0.418,2.94-0.418
			c2.364,0,3.616,1.072,3.616,3.496V232.416z M78.827,229.615c-0.576-0.08-1.172-0.119-1.689-0.119c-0.973,0-1.848,0.18-2.443,0.635
			c-0.537,0.398-0.834,1.033-0.834,1.848c0,1.451,0.934,2.146,2.225,2.146c1.073,0,2.205-0.516,2.742-1.33V229.615z"/>
		<path style="fill:#58595B;" d="M90.346,233.23c0,1.49-0.08,3.279-0.795,4.51c-0.854,1.471-2.384,2.107-3.914,2.107
			c-0.874,0-1.629-0.1-2.265-0.318c-0.06-0.119-0.08-0.318-0.08-0.477c0-0.119,0.04-0.357,0.08-0.477
			c0.616,0.158,1.331,0.277,2.046,0.277c2.503,0,3.636-1.549,3.636-4.271v-0.834c-0.775,0.814-1.867,1.211-2.761,1.211
			c-2.643,0-4.013-2.045-4.013-4.926c0-3.537,2.086-5.623,5.166-5.623c0.814,0,2.046,0.238,2.9,0.576V233.23z M89.055,225.621
			c-0.715-0.197-1.231-0.258-1.729-0.258c-2.523,0-3.715,2.127-3.715,4.609c0,2.205,0.834,3.934,2.781,3.934
			c0.994,0,2.007-0.496,2.662-1.191V225.621z"/>
		<path style="fill:#58595B;" d="M100.992,234.979c-0.159,0.041-0.397,0.08-0.636,0.08c-0.199,0-0.457-0.039-0.656-0.1v-6.297
			c0-0.953-0.119-1.689-0.397-2.205c-0.337-0.637-0.973-0.955-2.006-0.955c-0.994,0-2.186,0.557-2.96,1.152v8.305
			c-0.218,0.061-0.437,0.1-0.675,0.1c-0.199,0-0.437-0.039-0.616-0.1v-10.35c0.139-0.061,0.377-0.08,0.517-0.08
			c0.198,0,0.437,0.02,0.556,0.08l0.099,1.033h0.02c1.093-0.895,2.344-1.232,3.357-1.232s2.066,0.338,2.643,1.033
			c0.636,0.754,0.755,1.848,0.755,2.92V234.979z"/>
		<path style="fill:#58595B;" d="M107.327,235.158c-2.603,0-4.271-1.789-4.271-5.363c0-3.576,1.688-5.385,4.291-5.385
			s4.251,1.768,4.251,5.344S109.929,235.158,107.327,235.158z M107.346,225.383c-1.907,0-2.94,1.471-2.94,4.391
			c0,2.922,1.013,4.412,2.92,4.412s2.92-1.49,2.92-4.412C110.247,226.854,109.253,225.383,107.346,225.383z"/>
		<path style="fill:#58595B;" d="M116.026,235.158c-0.994,0-2.027-0.18-2.742-0.457c-0.06-0.139-0.1-0.377-0.1-0.557
			c0-0.119,0.04-0.416,0.08-0.535c0.735,0.297,1.788,0.535,2.662,0.535c1.51,0,2.444-0.635,2.444-1.887
			c0-1.133-0.576-1.529-2.146-2.105c-2.185-0.795-2.9-1.709-2.9-3.061c0-1.828,1.51-2.682,3.457-2.682
			c0.655,0,1.51,0.119,2.006,0.277c0.06,0.18,0.08,0.357,0.08,0.479c0,0.158-0.04,0.436-0.08,0.574
			c-0.656-0.197-1.351-0.316-2.026-0.316c-1.411,0-2.265,0.535-2.265,1.629c0,0.953,0.536,1.41,2.166,2.025
			c1.49,0.557,2.86,1.113,2.86,3.119C119.522,234.225,117.993,235.158,116.026,235.158z"/>
		<path style="fill:#58595B;" d="M129.016,230.131h-6.655c0.08,2.285,1.152,4.014,3.636,4.014c0.894,0,1.729-0.119,2.463-0.297
			c0.04,0.098,0.08,0.297,0.08,0.416c0,0.199-0.04,0.377-0.099,0.518c-0.775,0.238-1.749,0.377-2.563,0.377
			c-1.569,0-2.762-0.496-3.497-1.291c-0.874-0.953-1.331-2.385-1.331-4.033c0-2.881,1.45-5.424,4.351-5.424
			c2.603,0,3.636,2.146,3.636,4.768C129.036,229.477,129.036,229.834,129.016,230.131z M127.745,229.178
			c0-1.828-0.198-3.795-2.404-3.795c-1.927,0-2.861,1.77-2.98,3.795H127.745z"/>
		<path style="fill:#58595B;" d="M142.085,225.861c-0.636-0.26-1.47-0.418-2.205-0.418c-2.583,0-3.536,2.006-3.536,4.43
			c0,2.385,0.914,4.232,3.516,4.232c0.695,0,1.53-0.119,2.146-0.299c0.04,0.119,0.08,0.26,0.08,0.418
			c0,0.238-0.04,0.416-0.099,0.557c-0.576,0.238-1.51,0.377-2.245,0.377c-3.238,0-4.748-2.125-4.748-5.244
			c0-3.238,1.649-5.504,4.808-5.504c0.755,0,1.649,0.18,2.265,0.457c0.06,0.158,0.079,0.318,0.079,0.496
			C142.145,225.562,142.125,225.721,142.085,225.861z"/>
		<path style="fill:#58595B;" d="M147.904,235.158c-2.603,0-4.271-1.789-4.271-5.363c0-3.576,1.688-5.385,4.291-5.385
			s4.251,1.768,4.251,5.344S150.506,235.158,147.904,235.158z M147.923,225.383c-1.907,0-2.94,1.471-2.94,4.391
			c0,2.922,1.013,4.412,2.92,4.412s2.92-1.49,2.92-4.412C150.824,226.854,149.831,225.383,147.923,225.383z"/>
		<path style="fill:#58595B;" d="M162.245,234.979c-0.159,0.041-0.397,0.08-0.636,0.08c-0.199,0-0.457-0.039-0.656-0.1v-6.297
			c0-0.953-0.119-1.689-0.396-2.205c-0.338-0.637-0.974-0.955-2.007-0.955c-0.993,0-2.186,0.557-2.96,1.152v8.305
			c-0.219,0.061-0.438,0.1-0.676,0.1c-0.199,0-0.438-0.039-0.615-0.1v-10.35c0.139-0.061,0.377-0.08,0.516-0.08
			c0.199,0,0.438,0.02,0.557,0.08l0.1,1.033h0.02c1.093-0.895,2.344-1.232,3.357-1.232s2.066,0.338,2.643,1.033
			c0.636,0.754,0.755,1.848,0.755,2.92V234.979z"/>
		<path style="fill:#58595B;" d="M172.017,235.059c-0.179,0-0.397-0.059-0.517-0.1l-0.119-1.191h-0.02
			c-0.855,0.895-1.868,1.391-3,1.391c-2.742,0-4.053-2.285-4.053-5.066c0-2.762,1.172-5.682,4.33-5.682
			c0.994,0,1.908,0.338,2.643,0.854v-4.807c0.179-0.061,0.418-0.1,0.636-0.1c0.238,0,0.478,0.059,0.655,0.1v14.502
			C172.434,235.02,172.234,235.059,172.017,235.059z M171.281,226.357c-0.715-0.596-1.629-0.895-2.562-0.895
			c-2.305,0-3.08,2.266-3.08,4.57c0,1.768,0.557,4.072,2.781,4.072c1.073,0,2.166-0.537,2.861-1.371V226.357z"/>
		<path style="fill:#58595B;" d="M176.562,222.582c-0.457,0-0.834-0.396-0.834-0.873c0-0.479,0.377-0.855,0.834-0.855
			s0.854,0.377,0.854,0.855C177.417,222.186,177.02,222.582,176.562,222.582z M177.219,234.959c-0.18,0.061-0.438,0.1-0.656,0.1
			s-0.457-0.039-0.635-0.1v-10.35c0.158-0.041,0.416-0.1,0.615-0.1c0.219,0,0.517,0.039,0.676,0.1V234.959z"/>
		<path style="fill:#58595B;" d="M185.502,234.859c-0.516,0.18-1.291,0.299-1.867,0.299c-1.967,0-2.9-0.934-2.9-3.139v-6.398h-1.789
			c-0.039-0.098-0.059-0.336-0.059-0.455c0-0.1,0.02-0.338,0.059-0.438l1.789-0.119v-2.703c0.158-0.059,0.417-0.1,0.635-0.1
			c0.219,0,0.497,0.041,0.656,0.1v2.703h2.92c0.041,0.1,0.08,0.396,0.08,0.496c0,0.139-0.039,0.377-0.08,0.516h-2.92v6.279
			c0,1.568,0.457,2.225,1.688,2.225c0.675,0,1.331-0.1,1.788-0.238c0.039,0.1,0.08,0.338,0.08,0.477
			C185.582,234.543,185.562,234.682,185.502,234.859z"/>
		<path style="fill:#58595B;" d="M188.143,222.582c-0.457,0-0.836-0.396-0.836-0.873c0-0.479,0.379-0.855,0.836-0.855
			s0.854,0.377,0.854,0.855C188.996,222.186,188.6,222.582,188.143,222.582z M188.797,234.959c-0.178,0.061-0.436,0.1-0.654,0.1
			s-0.457-0.039-0.637-0.1v-10.35c0.158-0.041,0.418-0.1,0.615-0.1c0.219,0,0.518,0.039,0.676,0.1V234.959z"/>
		<path style="fill:#58595B;" d="M195.273,235.158c-2.604,0-4.271-1.789-4.271-5.363c0-3.576,1.689-5.385,4.291-5.385
			c2.604,0,4.252,1.768,4.252,5.344S197.875,235.158,195.273,235.158z M195.293,225.383c-1.906,0-2.939,1.471-2.939,4.391
			c0,2.922,1.012,4.412,2.92,4.412c1.906,0,2.92-1.49,2.92-4.412C198.193,226.854,197.201,225.383,195.293,225.383z"/>
		<path style="fill:#58595B;" d="M209.615,234.979c-0.16,0.041-0.398,0.08-0.637,0.08c-0.199,0-0.457-0.039-0.654-0.1v-6.297
			c0-0.953-0.121-1.689-0.398-2.205c-0.338-0.637-0.973-0.955-2.006-0.955c-0.994,0-2.186,0.557-2.961,1.152v8.305
			c-0.219,0.061-0.438,0.1-0.676,0.1c-0.197,0-0.438-0.039-0.615-0.1v-10.35c0.139-0.061,0.377-0.08,0.516-0.08
			c0.199,0,0.438,0.02,0.557,0.08l0.1,1.033h0.02c1.094-0.895,2.346-1.232,3.357-1.232c1.014,0,2.066,0.338,2.643,1.033
			c0.637,0.754,0.756,1.848,0.756,2.92V234.979z"/>
		<path style="fill:#58595B;" d="M214.559,235.158c-0.994,0-2.027-0.18-2.742-0.457c-0.059-0.139-0.1-0.377-0.1-0.557
			c0-0.119,0.041-0.416,0.08-0.535c0.734,0.297,1.787,0.535,2.662,0.535c1.51,0,2.443-0.635,2.443-1.887
			c0-1.133-0.576-1.529-2.145-2.105c-2.186-0.795-2.902-1.709-2.902-3.061c0-1.828,1.512-2.682,3.457-2.682
			c0.656,0,1.51,0.119,2.008,0.277c0.059,0.18,0.078,0.357,0.078,0.479c0,0.158-0.039,0.436-0.078,0.574
			c-0.656-0.197-1.352-0.316-2.027-0.316c-1.41,0-2.264,0.535-2.264,1.629c0,0.953,0.535,1.41,2.164,2.025
			c1.49,0.557,2.861,1.113,2.861,3.119C218.055,234.225,216.525,235.158,214.559,235.158z"/>
	</g>
	<g>
		<path style="fill:#58595B;" d="M60.215,255.02c-0.994,0-2.027-0.18-2.742-0.457c-0.06-0.139-0.1-0.377-0.1-0.557
			c0-0.119,0.04-0.416,0.08-0.535c0.735,0.297,1.788,0.535,2.662,0.535c1.51,0,2.444-0.635,2.444-1.887
			c0-1.133-0.576-1.529-2.146-2.105c-2.185-0.795-2.9-1.709-2.9-3.061c0-1.828,1.51-2.682,3.457-2.682
			c0.655,0,1.51,0.119,2.006,0.277c0.06,0.18,0.08,0.357,0.08,0.479c0,0.158-0.04,0.436-0.08,0.574
			c-0.656-0.197-1.351-0.316-2.026-0.316c-1.411,0-2.265,0.535-2.265,1.629c0,0.953,0.536,1.41,2.166,2.025
			c1.49,0.557,2.86,1.113,2.86,3.119C63.711,254.086,62.182,255.02,60.215,255.02z"/>
		<path style="fill:#58595B;" d="M73.444,250.887c0,3.02-1.252,4.133-3.874,4.133c-2.682,0-3.814-1.113-3.814-4.033v-6.516
			c0.179-0.061,0.417-0.1,0.636-0.1c0.278,0,0.497,0.059,0.655,0.1v6.357c0,1.926,0.298,3.197,2.543,3.197
			c2.106,0,2.563-1.23,2.563-3.238v-6.316c0.159-0.061,0.437-0.1,0.656-0.1c0.218,0,0.457,0.039,0.636,0.1V250.887z"/>
		<path style="fill:#58595B;" d="M82.6,245.723c-0.636-0.26-1.47-0.418-2.205-0.418c-2.583,0-3.536,2.006-3.536,4.43
			c0,2.385,0.914,4.232,3.516,4.232c0.695,0,1.53-0.119,2.146-0.299c0.04,0.119,0.079,0.26,0.079,0.418
			c0,0.238-0.04,0.416-0.099,0.557c-0.576,0.238-1.51,0.377-2.245,0.377c-3.238,0-4.748-2.125-4.748-5.244
			c0-3.238,1.649-5.504,4.808-5.504c0.755,0,1.649,0.18,2.265,0.457c0.06,0.158,0.079,0.318,0.079,0.496
			C82.66,245.424,82.64,245.582,82.6,245.723z"/>
		<path style="fill:#58595B;" d="M92.67,254.82c-0.179,0.061-0.397,0.1-0.596,0.1c-0.238,0-0.497-0.039-0.695-0.1v-6.277
			c0-2.186-0.556-3.18-2.404-3.18c-0.993,0-2.186,0.557-2.96,1.152v8.305c-0.218,0.061-0.457,0.1-0.675,0.1
			c-0.199,0-0.437-0.039-0.616-0.1v-14.502c0.179-0.061,0.457-0.1,0.636-0.1s0.477,0.039,0.655,0.1v5.105
			c1.053-0.814,2.305-1.152,3.278-1.152c1.013,0,2.046,0.338,2.623,1.033c0.636,0.754,0.755,1.848,0.755,2.92V254.82z"/>
		<path style="fill:#58595B;" d="M106.751,252.277c0,0.715,0,1.609,0.04,2.543c-0.139,0.061-0.357,0.1-0.537,0.1
			c-0.159,0-0.377-0.039-0.536-0.1c-0.06-0.318-0.1-0.734-0.119-1.111h-0.02c-0.675,0.834-1.868,1.311-3.04,1.311
			c-1.848,0-3.397-1.033-3.397-3.158c0-1.213,0.497-2.107,1.271-2.662c0.874-0.617,2.026-0.814,3.258-0.814
			c0.695,0,1.271,0.039,1.788,0.119v-0.576c0-1.988-0.814-2.643-2.483-2.643c-0.934,0-2.086,0.197-2.801,0.377
			c-0.04-0.1-0.08-0.318-0.08-0.516c0-0.141,0.04-0.338,0.1-0.457c0.854-0.26,1.986-0.418,2.94-0.418
			c2.364,0,3.616,1.072,3.616,3.496V252.277z M105.46,249.477c-0.576-0.08-1.172-0.119-1.689-0.119c-0.973,0-1.848,0.18-2.443,0.635
			c-0.537,0.398-0.834,1.033-0.834,1.848c0,1.451,0.934,2.146,2.225,2.146c1.073,0,2.205-0.516,2.742-1.33V249.477z"/>
		<path style="fill:#58595B;" d="M111.795,255.02c-0.994,0-2.027-0.18-2.742-0.457c-0.06-0.139-0.1-0.377-0.1-0.557
			c0-0.119,0.04-0.416,0.08-0.535c0.735,0.297,1.788,0.535,2.662,0.535c1.51,0,2.444-0.635,2.444-1.887
			c0-1.133-0.576-1.529-2.146-2.105c-2.185-0.795-2.9-1.709-2.9-3.061c0-1.828,1.51-2.682,3.457-2.682
			c0.655,0,1.51,0.119,2.006,0.277c0.06,0.18,0.08,0.357,0.08,0.479c0,0.158-0.04,0.436-0.08,0.574
			c-0.656-0.197-1.351-0.316-2.026-0.316c-1.411,0-2.265,0.535-2.265,1.629c0,0.953,0.536,1.41,2.166,2.025
			c1.49,0.557,2.86,1.113,2.86,3.119C115.292,254.086,113.762,255.02,111.795,255.02z"/>
		<path style="fill:#58595B;" d="M128.281,245.723c-0.636-0.26-1.47-0.418-2.205-0.418c-2.583,0-3.536,2.006-3.536,4.43
			c0,2.385,0.914,4.232,3.516,4.232c0.695,0,1.53-0.119,2.146-0.299c0.04,0.119,0.079,0.26,0.079,0.418
			c0,0.238-0.04,0.416-0.099,0.557c-0.576,0.238-1.51,0.377-2.245,0.377c-3.238,0-4.748-2.125-4.748-5.244
			c0-3.238,1.649-5.504,4.808-5.504c0.755,0,1.649,0.18,2.265,0.457c0.06,0.158,0.079,0.318,0.079,0.496
			C128.34,245.424,128.321,245.582,128.281,245.723z"/>
		<path style="fill:#58595B;" d="M137.477,252.277c0,0.715,0,1.609,0.04,2.543c-0.139,0.061-0.357,0.1-0.537,0.1
			c-0.159,0-0.377-0.039-0.536-0.1c-0.06-0.318-0.1-0.734-0.119-1.111h-0.02c-0.675,0.834-1.868,1.311-3.04,1.311
			c-1.848,0-3.397-1.033-3.397-3.158c0-1.213,0.497-2.107,1.271-2.662c0.874-0.617,2.026-0.814,3.258-0.814
			c0.695,0,1.271,0.039,1.788,0.119v-0.576c0-1.988-0.814-2.643-2.483-2.643c-0.934,0-2.086,0.197-2.801,0.377
			c-0.04-0.1-0.08-0.318-0.08-0.516c0-0.141,0.04-0.338,0.1-0.457c0.854-0.26,1.986-0.418,2.94-0.418
			c2.364,0,3.616,1.072,3.616,3.496V252.277z M136.186,249.477c-0.576-0.08-1.172-0.119-1.689-0.119
			c-0.973,0-1.848,0.18-2.443,0.635c-0.537,0.398-0.834,1.033-0.834,1.848c0,1.451,0.934,2.146,2.225,2.146
			c1.073,0,2.205-0.516,2.742-1.33V249.477z"/>
		<path style="fill:#58595B;" d="M148.163,254.84c-0.159,0.041-0.397,0.08-0.636,0.08c-0.199,0-0.457-0.039-0.656-0.1v-6.297
			c0-0.953-0.119-1.689-0.397-2.205c-0.337-0.637-0.973-0.955-2.006-0.955c-0.994,0-2.186,0.557-2.96,1.152v8.305
			c-0.218,0.061-0.437,0.1-0.675,0.1c-0.199,0-0.437-0.039-0.616-0.1v-10.35c0.139-0.061,0.377-0.08,0.517-0.08
			c0.198,0,0.437,0.02,0.556,0.08l0.099,1.033h0.02c1.093-0.895,2.344-1.232,3.357-1.232s2.066,0.338,2.643,1.033
			c0.636,0.754,0.755,1.848,0.755,2.92V254.84z"/>
		<path style="fill:#58595B;" d="M157.318,245.723c-0.636-0.26-1.471-0.418-2.205-0.418c-2.582,0-3.536,2.006-3.536,4.43
			c0,2.385,0.913,4.232,3.517,4.232c0.695,0,1.529-0.119,2.145-0.299c0.041,0.119,0.08,0.26,0.08,0.418
			c0,0.238-0.039,0.416-0.1,0.557c-0.576,0.238-1.51,0.377-2.244,0.377c-3.238,0-4.749-2.125-4.749-5.244
			c0-3.238,1.649-5.504,4.807-5.504c0.756,0,1.649,0.18,2.266,0.457c0.06,0.158,0.079,0.318,0.079,0.496
			C157.378,245.424,157.358,245.582,157.318,245.723z"/>
		<path style="fill:#58595B;" d="M166.832,249.992h-6.655c0.079,2.285,1.152,4.014,3.636,4.014c0.895,0,1.729-0.119,2.463-0.297
			c0.041,0.098,0.08,0.297,0.08,0.416c0,0.199-0.039,0.377-0.1,0.518c-0.774,0.238-1.748,0.377-2.562,0.377
			c-1.569,0-2.762-0.496-3.496-1.291c-0.875-0.953-1.332-2.385-1.332-4.033c0-2.881,1.451-5.424,4.352-5.424
			c2.602,0,3.635,2.146,3.635,4.768C166.852,249.338,166.852,249.695,166.832,249.992z M165.561,249.039
			c0-1.828-0.198-3.795-2.404-3.795c-1.926,0-2.86,1.77-2.979,3.795H165.561z"/>
		<path style="fill:#58595B;" d="M173.645,245.424c-1.152,0.158-2.404,0.576-3.338,1.291v8.105c-0.199,0.061-0.438,0.1-0.656,0.1
			s-0.437-0.039-0.635-0.1v-10.35c0.119-0.041,0.297-0.08,0.496-0.08c0.158,0,0.377,0.039,0.537,0.08l0.099,1.271h0.021
			c0.854-0.736,2.344-1.352,3.477-1.471c0.039,0.119,0.079,0.338,0.079,0.516C173.724,244.986,173.684,245.244,173.645,245.424z"/>
		<path style="fill:#58595B;" d="M187.092,252.277c0,0.715,0,1.609,0.039,2.543c-0.139,0.061-0.357,0.1-0.537,0.1
			c-0.158,0-0.377-0.039-0.535-0.1c-0.061-0.318-0.1-0.734-0.119-1.111h-0.021c-0.674,0.834-1.867,1.311-3.039,1.311
			c-1.848,0-3.396-1.033-3.396-3.158c0-1.213,0.496-2.107,1.271-2.662c0.873-0.617,2.025-0.814,3.258-0.814
			c0.695,0,1.271,0.039,1.787,0.119v-0.576c0-1.988-0.814-2.643-2.482-2.643c-0.934,0-2.086,0.197-2.801,0.377
			c-0.04-0.1-0.08-0.318-0.08-0.516c0-0.141,0.04-0.338,0.1-0.457c0.854-0.26,1.986-0.418,2.939-0.418
			c2.365,0,3.617,1.072,3.617,3.496V252.277z M185.799,249.477c-0.576-0.08-1.172-0.119-1.688-0.119
			c-0.974,0-1.848,0.18-2.443,0.635c-0.537,0.398-0.835,1.033-0.835,1.848c0,1.451,0.934,2.146,2.226,2.146
			c1.072,0,2.205-0.516,2.74-1.33V249.477z"/>
		<path style="fill:#58595B;" d="M197.777,254.84c-0.16,0.041-0.398,0.08-0.637,0.08c-0.199,0-0.457-0.039-0.654-0.1v-6.297
			c0-0.953-0.121-1.689-0.398-2.205c-0.338-0.637-0.973-0.955-2.006-0.955c-0.994,0-2.186,0.557-2.961,1.152v8.305
			c-0.219,0.061-0.438,0.1-0.676,0.1c-0.197,0-0.438-0.039-0.615-0.1v-10.35c0.139-0.061,0.377-0.08,0.516-0.08
			c0.199,0,0.438,0.02,0.557,0.08l0.1,1.033h0.02c1.094-0.895,2.346-1.232,3.357-1.232c1.014,0,2.066,0.338,2.643,1.033
			c0.637,0.754,0.756,1.848,0.756,2.92V254.84z"/>
		<path style="fill:#58595B;" d="M207.549,254.92c-0.18,0-0.398-0.059-0.518-0.1l-0.119-1.191h-0.02
			c-0.854,0.895-1.867,1.391-3,1.391c-2.742,0-4.053-2.285-4.053-5.066c0-2.762,1.172-5.682,4.33-5.682
			c0.994,0,1.908,0.338,2.643,0.854v-4.807c0.18-0.061,0.418-0.1,0.637-0.1c0.238,0,0.477,0.059,0.654,0.1v14.502
			C207.965,254.881,207.768,254.92,207.549,254.92z M206.812,246.219c-0.715-0.596-1.629-0.895-2.562-0.895
			c-2.305,0-3.08,2.266-3.08,4.57c0,1.768,0.557,4.072,2.783,4.072c1.072,0,2.164-0.537,2.859-1.371V246.219z"/>
	</g>
	<g>
		<path style="fill:#58595B;" d="M65.857,274.682c-0.179,0.061-0.397,0.1-0.596,0.1c-0.238,0-0.497-0.039-0.695-0.1v-6.277
			c0-2.186-0.556-3.18-2.404-3.18c-0.994,0-2.186,0.557-2.96,1.152v8.305c-0.218,0.061-0.457,0.1-0.675,0.1
			c-0.199,0-0.437-0.039-0.616-0.1V260.18c0.179-0.061,0.457-0.1,0.636-0.1s0.477,0.039,0.655,0.1v5.105
			c1.053-0.814,2.305-1.152,3.278-1.152c1.013,0,2.046,0.338,2.623,1.033c0.636,0.754,0.755,1.848,0.755,2.92V274.682z"/>
		<path style="fill:#58595B;" d="M75.887,269.854h-6.656c0.08,2.285,1.152,4.014,3.636,4.014c0.894,0,1.729-0.119,2.463-0.297
			c0.04,0.098,0.08,0.297,0.08,0.416c0,0.199-0.04,0.377-0.099,0.518c-0.775,0.238-1.749,0.377-2.563,0.377
			c-1.569,0-2.762-0.496-3.497-1.291c-0.874-0.953-1.331-2.385-1.331-4.033c0-2.881,1.45-5.424,4.351-5.424
			c2.603,0,3.636,2.146,3.636,4.768C75.907,269.199,75.907,269.557,75.887,269.854z M74.616,268.9c0-1.828-0.199-3.795-2.404-3.795
			c-1.927,0-2.861,1.77-2.98,3.795H74.616z"/>
		<path style="fill:#58595B;" d="M85.142,272.139c0,0.715,0,1.609,0.04,2.543c-0.139,0.061-0.357,0.1-0.537,0.1
			c-0.159,0-0.377-0.039-0.536-0.1c-0.06-0.318-0.1-0.734-0.119-1.111h-0.02c-0.675,0.834-1.868,1.311-3.04,1.311
			c-1.848,0-3.397-1.033-3.397-3.158c0-1.213,0.497-2.107,1.271-2.662c0.874-0.617,2.026-0.814,3.258-0.814
			c0.695,0,1.271,0.039,1.788,0.119v-0.576c0-1.988-0.814-2.643-2.483-2.643c-0.934,0-2.086,0.197-2.801,0.377
			c-0.04-0.1-0.08-0.318-0.08-0.516c0-0.141,0.04-0.338,0.1-0.457c0.854-0.26,1.986-0.418,2.94-0.418
			c2.364,0,3.616,1.072,3.616,3.496V272.139z M83.851,269.338c-0.576-0.08-1.172-0.119-1.689-0.119c-0.973,0-1.848,0.18-2.443,0.635
			c-0.537,0.398-0.834,1.033-0.834,1.848c0,1.451,0.934,2.146,2.225,2.146c1.073,0,2.205-0.516,2.742-1.33V269.338z"/>
		<path style="fill:#58595B;" d="M92.51,265.285c-1.152,0.158-2.404,0.576-3.338,1.291v8.105c-0.198,0.061-0.437,0.1-0.655,0.1
			c-0.219,0-0.437-0.039-0.636-0.1v-10.35c0.119-0.041,0.298-0.08,0.497-0.08c0.159,0,0.377,0.039,0.537,0.08l0.099,1.271h0.02
			c0.854-0.736,2.344-1.352,3.477-1.471c0.04,0.119,0.08,0.338,0.08,0.516C92.59,264.848,92.55,265.105,92.51,265.285z"/>
		<path style="fill:#58595B;" d="M100.217,274.582c-0.517,0.18-1.292,0.299-1.867,0.299c-1.967,0-2.901-0.934-2.901-3.139v-6.398
			h-1.788c-0.04-0.098-0.06-0.336-0.06-0.455c0-0.1,0.02-0.338,0.06-0.438l1.788-0.119v-2.703c0.159-0.059,0.417-0.1,0.636-0.1
			c0.219,0,0.497,0.041,0.656,0.1v2.703h2.92c0.04,0.1,0.08,0.396,0.08,0.496c0,0.139-0.04,0.377-0.08,0.516h-2.92v6.279
			c0,1.568,0.457,2.225,1.688,2.225c0.676,0,1.331-0.1,1.788-0.238c0.04,0.1,0.08,0.338,0.08,0.477
			C100.296,274.266,100.276,274.404,100.217,274.582z"/>
		<path style="fill:#58595B;" d="M113.644,274.781c-0.179,0-0.397-0.059-0.517-0.1l-0.119-1.191h-0.02
			c-0.854,0.895-1.868,1.391-3,1.391c-2.742,0-4.053-2.285-4.053-5.066c0-2.762,1.172-5.682,4.331-5.682
			c0.993,0,1.907,0.338,2.642,0.854v-4.807c0.179-0.061,0.417-0.1,0.636-0.1c0.238,0,0.477,0.059,0.656,0.1v14.502
			C114.061,274.742,113.862,274.781,113.644,274.781z M112.908,266.08c-0.715-0.596-1.629-0.895-2.563-0.895
			c-2.304,0-3.079,2.266-3.079,4.57c0,1.768,0.556,4.072,2.781,4.072c1.073,0,2.166-0.537,2.861-1.371V266.08z"/>
		<path style="fill:#58595B;" d="M118.19,262.305c-0.457,0-0.834-0.396-0.834-0.873c0-0.479,0.377-0.855,0.834-0.855
			c0.457,0,0.854,0.377,0.854,0.855C119.044,261.908,118.647,262.305,118.19,262.305z M118.846,274.682
			c-0.179,0.061-0.437,0.1-0.656,0.1c-0.218,0-0.457-0.039-0.636-0.1v-10.35c0.159-0.041,0.417-0.1,0.616-0.1
			c0.218,0,0.517,0.039,0.675,0.1V274.682z"/>
		<path style="fill:#58595B;" d="M123.93,274.881c-0.993,0-2.026-0.18-2.741-0.457c-0.06-0.139-0.1-0.377-0.1-0.557
			c0-0.119,0.04-0.416,0.08-0.535c0.735,0.297,1.788,0.535,2.662,0.535c1.51,0,2.444-0.635,2.444-1.887
			c0-1.133-0.576-1.529-2.146-2.105c-2.185-0.795-2.9-1.709-2.9-3.061c0-1.828,1.51-2.682,3.457-2.682
			c0.655,0,1.51,0.119,2.006,0.277c0.06,0.18,0.08,0.357,0.08,0.479c0,0.158-0.04,0.436-0.08,0.574
			c-0.656-0.197-1.351-0.316-2.026-0.316c-1.411,0-2.265,0.535-2.265,1.629c0,0.953,0.536,1.41,2.165,2.025
			c1.49,0.557,2.861,1.113,2.861,3.119C127.427,273.947,125.897,274.881,123.93,274.881z"/>
		<path style="fill:#58595B;" d="M136.921,269.854h-6.656c0.08,2.285,1.152,4.014,3.636,4.014c0.894,0,1.729-0.119,2.463-0.297
			c0.04,0.098,0.08,0.297,0.08,0.416c0,0.199-0.04,0.377-0.099,0.518c-0.775,0.238-1.749,0.377-2.563,0.377
			c-1.569,0-2.762-0.496-3.497-1.291c-0.874-0.953-1.331-2.385-1.331-4.033c0-2.881,1.45-5.424,4.351-5.424
			c2.603,0,3.636,2.146,3.636,4.768C136.941,269.199,136.941,269.557,136.921,269.854z M135.65,268.9
			c0-1.828-0.199-3.795-2.404-3.795c-1.927,0-2.861,1.77-2.98,3.795H135.65z"/>
		<path style="fill:#58595B;" d="M146.176,272.139c0,0.715,0,1.609,0.04,2.543c-0.139,0.061-0.357,0.1-0.537,0.1
			c-0.159,0-0.377-0.039-0.536-0.1c-0.06-0.318-0.1-0.734-0.119-1.111h-0.02c-0.675,0.834-1.868,1.311-3.04,1.311
			c-1.848,0-3.397-1.033-3.397-3.158c0-1.213,0.497-2.107,1.271-2.662c0.874-0.617,2.026-0.814,3.258-0.814
			c0.695,0,1.271,0.039,1.788,0.119v-0.576c0-1.988-0.814-2.643-2.483-2.643c-0.934,0-2.086,0.197-2.801,0.377
			c-0.04-0.1-0.08-0.318-0.08-0.516c0-0.141,0.04-0.338,0.1-0.457c0.854-0.26,1.986-0.418,2.94-0.418
			c2.364,0,3.616,1.072,3.616,3.496V272.139z M144.885,269.338c-0.576-0.08-1.172-0.119-1.689-0.119
			c-0.973,0-1.848,0.18-2.443,0.635c-0.537,0.398-0.834,1.033-0.834,1.848c0,1.451,0.934,2.146,2.225,2.146
			c1.073,0,2.205-0.516,2.742-1.33V269.338z"/>
		<path style="fill:#58595B;" d="M151.221,274.881c-0.994,0-2.027-0.18-2.742-0.457c-0.06-0.139-0.1-0.377-0.1-0.557
			c0-0.119,0.04-0.416,0.08-0.535c0.735,0.297,1.788,0.535,2.663,0.535c1.51,0,2.443-0.635,2.443-1.887
			c0-1.133-0.576-1.529-2.146-2.105c-2.185-0.795-2.9-1.709-2.9-3.061c0-1.828,1.51-2.682,3.457-2.682
			c0.656,0,1.51,0.119,2.007,0.277c0.06,0.18,0.079,0.357,0.079,0.479c0,0.158-0.039,0.436-0.079,0.574
			c-0.655-0.197-1.351-0.316-2.026-0.316c-1.411,0-2.265,0.535-2.265,1.629c0,0.953,0.536,1.41,2.165,2.025
			c1.49,0.557,2.861,1.113,2.861,3.119C154.717,273.947,153.188,274.881,151.221,274.881z"/>
		<path style="fill:#58595B;" d="M164.211,269.854h-6.656c0.08,2.285,1.152,4.014,3.637,4.014c0.894,0,1.729-0.119,2.463-0.297
			c0.04,0.098,0.08,0.297,0.08,0.416c0,0.199-0.04,0.377-0.1,0.518c-0.775,0.238-1.748,0.377-2.562,0.377
			c-1.57,0-2.762-0.496-3.497-1.291c-0.874-0.953-1.331-2.385-1.331-4.033c0-2.881,1.45-5.424,4.351-5.424
			c2.603,0,3.636,2.146,3.636,4.768C164.23,269.199,164.23,269.557,164.211,269.854z M162.939,268.9
			c0-1.828-0.199-3.795-2.404-3.795c-1.927,0-2.861,1.77-2.98,3.795H162.939z"/>
	</g>
	<g>
		<path style="fill:#B3A068;" d="M85.77,68.33H55.852c-0.343-0.755-0.686-2.539-0.686-3.843c0-0.96,0.137-2.333,0.274-3.293
			c3.911-1.441,5.421-3.843,5.421-8.372v-5.284h-5.078c-0.206-1.235-0.412-2.951-0.412-3.843c0-1.235,0.137-2.676,0.412-3.842h5.078
			v-3.5c0-9.263,5.421-15.096,15.371-15.096c3.637,0,7.479,0.754,9.675,1.646c0.206,0.687,0.343,2.402,0.343,3.157
			c0,1.235-0.206,3.156-0.48,4.529c-2.127-0.824-5.558-1.441-8.44-1.441c-4.735,0-6.656,2.333-6.656,7.273v3.431h10.156
			c0.274,1.167,0.412,2.607,0.412,3.842c0,0.892-0.137,2.676-0.412,3.843H70.673v4.94c0,3.225-1.167,6.039-4.186,8.028v0.069h19.213
			c0.275,0.96,0.412,2.745,0.412,3.98C86.113,65.654,85.976,67.232,85.77,68.33z"/>
		<path style="fill:#B3A068;" d="M103.401,69.016c-3.706,0-9.195-0.755-12.969-2.059c-0.137-0.48-0.343-1.715-0.343-3.088
			c0-1.509,0.206-3.087,0.618-4.392c3.156,0.961,8.028,1.579,11.871,1.579c4.872,0,8.028-2.608,8.028-7.274
			c0-1.99-0.549-3.774-1.715-4.94c-1.51-1.51-4.049-2.127-7.754-2.127h-8.989V21.944h25.938c0.206,1.098,0.343,2.813,0.343,4.048
			c0,1.304-0.206,3.568-0.343,4.392h-17.155v8.509h3.019c5.353,0,9.607,0.961,12.626,3.568c2.676,2.333,4.186,5.901,4.186,10.842
			C120.762,63.801,112.733,69.016,103.401,69.016z"/>
		<path style="fill:#B3A068;" d="M142.922,69.016c-10.979,0-16.331-8.097-16.331-23.879c0-15.919,5.558-23.879,16.537-23.879
			c10.91,0,16.263,7.959,16.263,23.879C159.391,60.919,153.832,69.016,142.922,69.016z M142.991,29.286
			c-4.392,0-6.313,4.048-6.313,15.851c0,11.597,1.921,15.851,6.313,15.851s6.312-4.254,6.312-15.851
			C149.303,33.334,147.382,29.286,142.991,29.286z"/>
	</g>
	<g>
		<path style="fill:#B3A068;" d="M109.58,127.887c-1.098,0.274-3.431,0.343-4.529,0.343c-1.167,0-3.842-0.137-4.94-0.343V106.34
			c0-2.607-0.068-4.529-1.029-5.695c-0.892-1.098-2.264-1.51-3.98-1.51c-2.333,0-5.626,1.029-7.754,2.333
			c0.069,1.167,0.137,2.333,0.137,3.706v22.713c-1.098,0.274-3.431,0.343-4.529,0.343c-1.167,0-3.842-0.137-4.94-0.343V106.34
			c0-2.607-0.069-4.529-1.029-5.695c-0.892-1.098-2.264-1.51-3.98-1.51c-2.401,0-5.489,0.961-7.617,2.265v26.487
			c-1.578,0.274-3.774,0.343-5.009,0.343c-1.098,0-3.087-0.069-4.46-0.343v-35.75c0.892-0.206,3.088-0.343,4.117-0.343
			c0.96,0,2.951,0.137,3.98,0.343l0.412,3.225c3.019-2.264,7.342-3.911,11.185-3.911c3.98,0,7.479,1.373,10.156,4.323
			c3.706-2.539,8.166-4.323,12.694-4.323c3.362,0,6.793,1.373,8.509,3.431c2.127,2.539,2.607,5.833,2.607,10.842V127.887z"/>
		<path style="fill:#B3A068;" d="M120.485,88.225c-2.882,0-5.215-2.333-5.215-5.215c0-2.882,2.333-5.215,5.215-5.215
			c2.882,0,5.215,2.333,5.215,5.215C125.701,85.892,123.368,88.225,120.485,88.225z M125.22,127.887
			c-1.235,0.274-3.774,0.343-4.872,0.343c-1.646,0-3.431-0.137-4.597-0.343v-35.75c1.509-0.206,3.362-0.343,4.597-0.343
			c1.647,0,3.362,0.137,4.872,0.343V127.887z"/>
		<path style="fill:#B3A068;" d="M141.137,127.887c-1.235,0.274-3.774,0.343-4.872,0.343c-1.647,0-3.431-0.137-4.598-0.343V77.864
			c1.51-0.206,3.362-0.343,4.598-0.343c1.646,0,3.568,0.137,4.872,0.343V127.887z"/>
		<path style="fill:#B3A068;" d="M156.712,127.887c-1.235,0.274-3.774,0.343-4.872,0.343c-1.646,0-3.431-0.137-4.597-0.343V77.864
			c1.51-0.206,3.362-0.343,4.597-0.343c1.646,0,3.568,0.137,4.872,0.343V127.887z"/>
		<path style="fill:#B3A068;" d="M167.895,88.225c-2.881,0-5.215-2.333-5.215-5.215c0-2.882,2.334-5.215,5.215-5.215
			c2.883,0,5.216,2.333,5.216,5.215C173.11,85.892,170.777,88.225,167.895,88.225z M172.63,127.887
			c-1.235,0.274-3.774,0.343-4.872,0.343c-1.646,0-3.431-0.137-4.598-0.343v-35.75c1.51-0.206,3.363-0.343,4.598-0.343
			c1.646,0,3.362,0.137,4.872,0.343V127.887z"/>
		<path style="fill:#B3A068;" d="M193.83,128.573c-10.361,0-16.948-6.656-16.948-18.458c0-11.733,6.519-18.664,16.948-18.664
			s16.949,6.862,16.949,18.596S204.26,128.573,193.83,128.573z M193.83,98.861c-4.459,0-7.205,3.02-7.205,11.185
			s2.746,11.116,7.205,11.116c4.461,0,7.205-2.951,7.205-11.116C201.035,101.812,198.291,98.861,193.83,98.861z"/>
		<path style="fill:#B3A068;" d="M245.979,127.887c-1.098,0.274-3.432,0.343-4.529,0.343c-1.166,0-3.842-0.137-4.941-0.343v-23.468
			c0-3.705-1.92-5.284-5.008-5.284c-2.471,0-5.283,0.892-7.48,2.265v26.487c-1.578,0.274-3.773,0.343-5.008,0.343
			c-1.1,0-3.088-0.069-4.461-0.343v-35.75c0.893-0.206,3.088-0.343,4.117-0.343c0.961,0,2.951,0.137,3.98,0.343l0.48,3.157
			c3.088-2.265,7.547-3.843,11.527-3.843c7.549,0,11.322,4.666,11.322,12.489V127.887z"/>
	</g>
</g>
</svg>
