<?xml version="1.0" encoding="utf-8"?>
<!-- Generator: Adobe Illustrator 16.0.0, SVG Export Plug-In . SVG Version: 6.00 Build 0)  -->
<!DOCTYPE svg PUBLIC "-//W3C//DTD SVG 1.1//EN" "http://www.w3.org/Graphics/SVG/1.1/DTD/svg11.dtd">
<svg version="1.1" id="Layer_1" xmlns="http://www.w3.org/2000/svg" xmlns:xlink="http://www.w3.org/1999/xlink" x="0px" y="0px"
	 width="300px" height="300px" viewBox="0 0 300 300" enable-background="new 0 0 300 300" xml:space="preserve">
<g>
	<path fill="#59A6AE" d="M74.674,131.42c-5.258-1.912-12.427-3.106-17.804-3.106c-11.949,0-17.565,4.541-19.597,13.741h27.961
		c0.478,1.673,0.717,3.705,0.717,5.497c0,1.554-0.239,3.704-0.717,5.497H35.959c-0.12,0.956-0.12,2.15-0.12,2.629
		c0,1.075,0.12,2.509,0.239,3.226h29.156c0.478,1.912,0.717,3.585,0.717,5.497c0,1.554-0.239,3.585-0.717,5.496H37.99
		c1.792,7.289,8.484,11.711,18.641,11.711c6.214,0,12.786-1.076,17.326-2.749c0.717,2.151,1.314,5.497,1.314,8.365
		c0,2.031-0.119,4.302-0.358,5.377c-4.899,2.39-12.666,3.943-20.672,3.943c-18.641,0-31.188-10.038-34.414-26.647h-9.082
		c-0.358-1.553-0.717-3.942-0.717-5.496c0-2.151,0.358-3.943,0.717-5.497h7.647c-0.119-0.717-0.119-2.27-0.119-3.226
		c0-0.598,0-1.673,0.119-2.629h-7.647c-0.478-1.793-0.717-3.943-0.717-5.497c0-1.673,0.239-3.823,0.717-5.497h8.842
		c3.346-17.207,15.415-28.678,35.728-28.678c7.05,0,14.578,1.553,19.716,4.062c0.358,1.195,0.478,3.824,0.478,5.377
		C75.511,126.521,75.033,129.987,74.674,131.42z"/>
	<path fill="#59A6AE" d="M100.126,196.544c-7.767,0-17.087-1.076-22.823-3.943c-0.358-1.195-0.598-3.824-0.598-5.377
		c0-2.51,0.358-5.616,0.956-8.126c6.453,2.51,13.98,3.824,19.955,3.824c9.798,0,15.295-4.541,15.295-12.069
		c0-8.125-4.899-11.352-13.98-11.352h-6.572c-0.358-1.314-0.717-3.943-0.717-6.811c0-2.39,0.478-5.258,0.836-6.333h6.213
		c8.245,0,12.069-4.421,12.069-10.635c0-5.855-4.302-8.723-11.113-8.723c-6.094,0-13.264,1.553-19.238,4.062
		c-0.597-2.031-1.075-5.377-1.075-8.006c0-1.792,0.239-4.541,0.598-5.616c5.138-2.27,14.578-4.062,22.583-4.062
		c13.981,0,25.691,6.931,25.691,21.15c0,7.887-3.585,14.458-10.396,17.565v0.239c7.887,2.987,12.667,10.156,12.667,18.401
		C130.477,187.82,116.616,196.544,100.126,196.544z"/>
	<path fill="#59A6AE" d="M160.351,196.544c-19.119,0-28.439-14.101-28.439-41.583c0-27.723,9.679-41.583,28.798-41.583
		c18.999,0,28.319,13.861,28.319,41.583C189.028,182.443,179.35,196.544,160.351,196.544z M160.47,127.358
		c-7.647,0-10.993,7.05-10.993,27.603c0,20.193,3.346,27.603,10.993,27.603s10.993-7.409,10.993-27.603
		C171.463,134.408,168.117,127.358,160.47,127.358z"/>
	<path fill="#59A6AE" d="M284.621,195.349c-1.911,0.478-5.975,0.598-7.886,0.598c-2.032,0-6.692-0.239-8.604-0.598v-37.521
		c0-4.541-0.12-7.886-1.793-9.917c-1.553-1.912-3.943-2.629-6.931-2.629c-4.062,0-9.798,1.792-13.502,4.062
		c0.119,2.032,0.239,4.063,0.239,6.453v39.552c-1.912,0.478-5.975,0.598-7.887,0.598c-2.031,0-6.691-0.239-8.604-0.598v-37.521
		c0-4.541-0.119-7.886-1.792-9.917c-1.554-1.912-3.943-2.629-6.931-2.629c-4.183,0-9.56,1.673-13.264,3.943v46.124
		c-2.748,0.478-6.572,0.598-8.723,0.598c-1.912,0-5.378-0.12-7.768-0.598v-62.255c1.554-0.359,5.377-0.598,7.17-0.598
		c1.673,0,5.138,0.239,6.931,0.598l0.717,5.616c5.258-3.943,12.785-6.811,19.477-6.811c6.931,0,13.025,2.39,17.686,7.528
		c6.452-4.421,14.219-7.528,22.105-7.528c5.855,0,11.83,2.39,14.817,5.975c3.704,4.421,4.54,10.157,4.54,18.88V195.349z"/>
</g>
<g>
	<path fill="#333333" d="M134.816,89.645c-0.196-0.783-0.343-1.493-0.441-2.203c-0.122,0.686-0.269,1.346-0.489,2.178l-3.035,11.895
		c-0.245,0.073-0.636,0.123-0.979,0.123c-0.343,0-0.808-0.025-1.053-0.123l-3.573-12.409c-0.416-1.371-0.587-2.766-0.612-4.136
		c0.245-0.074,0.612-0.123,0.856-0.123c0.269,0,0.514,0.049,0.808,0.123c0.024,1.297,0.171,2.545,0.514,3.793l2.521,8.958
		c0.122,0.465,0.465,1.713,0.563,2.227c0.049-0.489,0.293-1.566,0.465-2.252l3.206-12.727c0.221-0.074,0.539-0.123,0.783-0.123
		c0.27,0,0.612,0.073,0.783,0.123l3.207,12.702c0.171,0.637,0.392,1.591,0.563,2.301c0.171-0.71,0.416-1.688,0.612-2.398
		l2.497-8.811c0.342-1.249,0.538-2.497,0.562-3.793c0.245-0.074,0.514-0.123,0.808-0.123c0.245,0,0.612,0.049,0.808,0.123
		c-0.025,1.272-0.196,2.619-0.612,4.038l-3.598,12.507c-0.269,0.073-0.832,0.123-1.101,0.123c-0.245,0-0.686-0.049-0.979-0.123
		L134.816,89.645z"/>
	<path fill="#333333" d="M154.932,95.568h-8.2c0.098,2.814,1.419,4.944,4.479,4.944c1.102,0,2.129-0.147,3.035-0.367
		c0.049,0.123,0.098,0.367,0.098,0.514c0,0.245-0.049,0.465-0.122,0.636c-0.955,0.293-2.154,0.465-3.157,0.465
		c-1.934,0-3.402-0.612-4.308-1.591c-1.077-1.175-1.64-2.937-1.64-4.968c0-3.549,1.787-6.682,5.36-6.682
		c3.206,0,4.479,2.643,4.479,5.874C154.956,94.761,154.956,95.201,154.932,95.568z M153.365,94.394c0-2.252-0.245-4.675-2.962-4.675
		c-2.374,0-3.524,2.178-3.671,4.675H153.365z"/>
	<path fill="#333333" d="M168.268,89.939c-1.42,0.196-2.962,0.709-4.112,1.591v9.986c-0.244,0.073-0.538,0.123-0.808,0.123
		c-0.269,0-0.538-0.049-0.783-0.123V88.764c0.147-0.049,0.367-0.098,0.612-0.098c0.195,0,0.465,0.049,0.661,0.098l0.122,1.566h0.024
		c1.053-0.906,2.888-1.665,4.283-1.811c0.049,0.146,0.098,0.416,0.098,0.636C168.365,89.4,168.316,89.719,168.268,89.939z"/>
	<path fill="#333333" d="M178.986,95.568h-8.198c0.098,2.814,1.419,4.944,4.479,4.944c1.102,0,2.129-0.147,3.035-0.367
		c0.049,0.123,0.098,0.367,0.098,0.514c0,0.245-0.049,0.465-0.122,0.636c-0.955,0.293-2.154,0.465-3.157,0.465
		c-1.934,0-3.402-0.612-4.308-1.591c-1.077-1.175-1.641-2.937-1.641-4.968c0-3.549,1.787-6.682,5.36-6.682
		c3.206,0,4.479,2.643,4.479,5.874C179.012,94.761,179.012,95.201,178.986,95.568z M177.42,94.394c0-2.252-0.244-4.675-2.961-4.675
		c-2.374,0-3.524,2.178-3.671,4.675H177.42z"/>
	<path fill="#333333" d="M189.46,90.306c-0.783-0.318-1.812-0.514-2.717-0.514c-3.182,0-4.356,2.472-4.356,5.458
		c0,2.937,1.126,5.213,4.332,5.213c0.856,0,1.885-0.147,2.643-0.367c0.05,0.147,0.099,0.318,0.099,0.514
		c0,0.294-0.049,0.514-0.123,0.686c-0.709,0.293-1.859,0.465-2.766,0.465c-3.989,0-5.85-2.619-5.85-6.461
		c0-3.989,2.032-6.779,5.924-6.779c0.93,0,2.031,0.22,2.79,0.562c0.073,0.196,0.098,0.392,0.098,0.612
		C189.533,89.939,189.509,90.135,189.46,90.306z"/>
	<path fill="#333333" d="M200.961,95.568h-8.198c0.098,2.814,1.419,4.944,4.479,4.944c1.102,0,2.129-0.147,3.035-0.367
		c0.049,0.123,0.098,0.367,0.098,0.514c0,0.245-0.049,0.465-0.122,0.636c-0.955,0.293-2.154,0.465-3.157,0.465
		c-1.934,0-3.402-0.612-4.308-1.591c-1.077-1.175-1.641-2.937-1.641-4.968c0-3.549,1.787-6.682,5.36-6.682
		c3.206,0,4.479,2.643,4.479,5.874C200.986,94.761,200.986,95.201,200.961,95.568z M199.395,94.394c0-2.252-0.244-4.675-2.961-4.675
		c-2.374,0-3.524,2.178-3.671,4.675H199.395z"/>
	<path fill="#333333" d="M213.197,101.54c-0.195,0.049-0.489,0.098-0.783,0.098c-0.244,0-0.562-0.049-0.808-0.123v-7.759
		c0-1.175-0.146-2.08-0.489-2.717c-0.416-0.783-1.199-1.175-2.472-1.175c-1.224,0-2.692,0.686-3.647,1.42v10.23
		c-0.269,0.073-0.538,0.123-0.832,0.123c-0.244,0-0.538-0.049-0.759-0.123V88.764c0.172-0.074,0.465-0.098,0.637-0.098
		c0.245,0,0.538,0.024,0.686,0.098l0.122,1.272h0.024c1.346-1.101,2.888-1.517,4.137-1.517c1.248,0,2.545,0.416,3.255,1.272
		c0.783,0.93,0.93,2.276,0.93,3.598V101.54z"/>
	<path fill="#333333" d="M223.011,101.393c-0.637,0.22-1.591,0.367-2.301,0.367c-2.423,0-3.573-1.15-3.573-3.867v-7.881h-2.203
		c-0.049-0.122-0.073-0.416-0.073-0.563c0-0.122,0.024-0.416,0.073-0.538l2.203-0.147v-3.329c0.195-0.073,0.514-0.123,0.783-0.123
		c0.269,0,0.611,0.049,0.808,0.123v3.329h3.598c0.049,0.123,0.098,0.489,0.098,0.612c0,0.171-0.049,0.465-0.098,0.636h-3.598v7.734
		c0,1.934,0.562,2.741,2.08,2.741c0.832,0,1.64-0.123,2.203-0.294c0.049,0.123,0.098,0.416,0.098,0.587
		C223.108,101.001,223.084,101.173,223.011,101.393z"/>
	<path fill="#333333" d="M226.802,101.516c-0.269,0.073-0.538,0.123-0.832,0.123c-0.244,0-0.538-0.049-0.759-0.123V83.649
		c0.221-0.049,0.49-0.123,0.808-0.123c0.27,0,0.563,0.049,0.783,0.123V101.516z"/>
	<path fill="#333333" d="M239.455,99.386c0,2.374-0.099,4.063-0.955,5.581c-0.979,1.737-2.912,2.57-4.65,2.57
		c-1.272,0-2.153-0.123-2.937-0.392c-0.073-0.147-0.099-0.392-0.099-0.587c0-0.147,0.05-0.465,0.099-0.612
		c0.734,0.22,1.615,0.392,2.79,0.392c2.692,0,4.16-1.934,4.16-5.287v-0.857c-1.248,1.102-2.643,1.566-3.916,1.566
		c-1.37,0-2.447-0.342-3.133-1.175c-0.758-0.905-0.856-2.227-0.856-3.549v-8.272c0.196-0.049,0.515-0.123,0.759-0.123
		c0.294,0,0.612,0.074,0.832,0.123v8.003c0,1.175,0.099,2.154,0.539,2.814c0.392,0.563,1.027,0.856,1.982,0.856
		c1.518,0,2.961-0.808,3.793-1.615V88.764c0.221-0.049,0.539-0.123,0.833-0.123c0.244,0,0.562,0.074,0.759,0.123V99.386z"/>
	<path fill="#333333" d="M262.556,91.285l-3.279,10.23c-0.196,0.073-0.563,0.123-0.759,0.123c-0.221,0-0.588-0.049-0.759-0.123
		l-2.938-9.888h-0.049l-3.084,9.888c-0.22,0.073-0.562,0.123-0.759,0.123c-0.195,0-0.514-0.049-0.733-0.123l-3.035-10.084
		c-0.27-0.832-0.392-1.787-0.416-2.692c0.195-0.049,0.587-0.098,0.832-0.098c0.27,0,0.514,0.049,0.734,0.123
		c0.024,0.881,0.171,1.811,0.392,2.619l2.227,7.955h0.025l3.182-10.598c0.171-0.049,0.514-0.074,0.685-0.074
		c0.172,0,0.539,0.024,0.686,0.074l3.011,10.598h0.024l2.447-7.93c0.27-0.905,0.465-1.762,0.514-2.643
		c0.172-0.074,0.588-0.123,0.808-0.123c0.221,0,0.563,0.049,0.71,0.123C263.021,89.596,262.825,90.428,262.556,91.285z"/>
	<path fill="#333333" d="M269.578,101.76c-3.206,0-5.263-2.203-5.263-6.608c0-4.406,2.081-6.633,5.287-6.633
		s5.237,2.178,5.237,6.583C274.84,99.509,272.784,101.76,269.578,101.76z M269.603,89.719c-2.35,0-3.622,1.811-3.622,5.409
		c0,3.598,1.248,5.434,3.598,5.434s3.598-1.835,3.598-5.434C273.176,91.53,271.952,89.719,269.603,89.719z"/>
	<path fill="#333333" d="M287.026,101.54c-0.195,0.049-0.489,0.098-0.783,0.098c-0.244,0-0.562-0.049-0.808-0.123v-7.759
		c0-1.175-0.146-2.08-0.489-2.717c-0.416-0.783-1.199-1.175-2.472-1.175c-1.225,0-2.692,0.686-3.647,1.42v10.23
		c-0.269,0.073-0.538,0.123-0.832,0.123c-0.244,0-0.538-0.049-0.759-0.123V88.764c0.172-0.074,0.465-0.098,0.637-0.098
		c0.244,0,0.538,0.024,0.686,0.098l0.122,1.272h0.024c1.346-1.101,2.888-1.517,4.137-1.517c1.248,0,2.545,0.416,3.255,1.272
		c0.783,0.93,0.93,2.276,0.93,3.598V101.54z"/>
</g>
<g>
	<path fill="#333333" d="M13.411,213.935c-0.563,0-1.028-0.489-1.028-1.077c0-0.587,0.465-1.052,1.028-1.052
		s1.052,0.465,1.052,1.052C14.463,213.445,13.974,213.935,13.411,213.935z M14.219,229.183c-0.22,0.073-0.539,0.122-0.808,0.122
		s-0.563-0.049-0.783-0.122v-12.752c0.196-0.049,0.514-0.122,0.759-0.122c0.269,0,0.636,0.049,0.832,0.122V229.183z"/>
	<path fill="#333333" d="M27.532,229.207c-0.195,0.049-0.489,0.098-0.783,0.098c-0.245,0-0.562-0.049-0.808-0.122v-7.759
		c0-1.175-0.146-2.08-0.489-2.717c-0.416-0.783-1.199-1.175-2.472-1.175c-1.224,0-2.692,0.686-3.646,1.42v10.23
		c-0.27,0.073-0.539,0.122-0.833,0.122c-0.245,0-0.538-0.049-0.759-0.122v-12.752c0.171-0.073,0.465-0.098,0.637-0.098
		c0.245,0,0.538,0.024,0.685,0.098l0.123,1.273h0.024c1.346-1.102,2.888-1.518,4.136-1.518c1.249,0,2.545,0.416,3.255,1.272
		c0.783,0.93,0.93,2.276,0.93,3.598V229.207z"/>
	<path fill="#333333" d="M43.193,229.061c-0.636,0.22-1.591,0.367-2.301,0.367c-2.423,0-3.573-1.15-3.573-3.867v-7.881h-2.203
		c-0.049-0.123-0.074-0.416-0.074-0.563c0-0.122,0.025-0.416,0.074-0.538l2.203-0.147v-3.328c0.196-0.073,0.514-0.122,0.783-0.122
		c0.27,0,0.612,0.049,0.808,0.122v3.328h3.598c0.049,0.123,0.098,0.49,0.098,0.612c0,0.171-0.049,0.465-0.098,0.637H38.91v7.733
		c0,1.934,0.563,2.741,2.081,2.741c0.832,0,1.64-0.122,2.203-0.293c0.049,0.122,0.098,0.416,0.098,0.587
		C43.292,228.669,43.267,228.84,43.193,229.061z"/>
	<path fill="#333333" d="M55.479,229.183c-0.221,0.073-0.49,0.122-0.734,0.122c-0.294,0-0.612-0.049-0.857-0.122v-7.734
		c0-2.692-0.685-3.916-2.961-3.916c-1.224,0-2.692,0.686-3.646,1.42v10.23c-0.27,0.073-0.563,0.122-0.833,0.122
		c-0.245,0-0.538-0.049-0.758-0.122v-17.867c0.22-0.073,0.562-0.122,0.783-0.122c0.22,0,0.587,0.049,0.808,0.122v6.29
		c1.297-1.003,2.839-1.419,4.038-1.419c1.249,0,2.521,0.416,3.231,1.272c0.783,0.93,0.93,2.276,0.93,3.598V229.183z"/>
	<path fill="#333333" d="M67.958,223.235h-8.199c0.098,2.814,1.419,4.943,4.479,4.943c1.102,0,2.129-0.146,3.035-0.366
		c0.049,0.122,0.098,0.366,0.098,0.514c0,0.244-0.049,0.465-0.123,0.636c-0.955,0.294-2.154,0.466-3.157,0.466
		c-1.934,0-3.402-0.612-4.308-1.591c-1.077-1.175-1.64-2.938-1.64-4.969c0-3.549,1.787-6.682,5.36-6.682
		c3.207,0,4.479,2.644,4.479,5.874C67.983,222.428,67.983,222.868,67.958,223.235z M66.392,222.061c0-2.252-0.245-4.675-2.961-4.675
		c-2.374,0-3.524,2.178-3.671,4.675H66.392z"/>
	<path fill="#333333" d="M86.067,229.183c-0.221,0.073-0.49,0.122-0.734,0.122c-0.294,0-0.612-0.049-0.857-0.122v-7.734
		c0-2.692-0.685-3.916-2.961-3.916c-1.224,0-2.692,0.686-3.646,1.42v10.23c-0.27,0.073-0.563,0.122-0.833,0.122
		c-0.245,0-0.538-0.049-0.758-0.122v-17.867c0.22-0.073,0.562-0.122,0.783-0.122c0.22,0,0.587,0.049,0.808,0.122v6.29
		c1.297-1.003,2.839-1.419,4.038-1.419c1.249,0,2.521,0.416,3.231,1.272c0.783,0.93,0.93,2.276,0.93,3.598V229.183z"/>
	<path fill="#333333" d="M90.324,213.935c-0.563,0-1.028-0.489-1.028-1.077c0-0.587,0.465-1.052,1.028-1.052
		s1.052,0.465,1.052,1.052C91.376,213.445,90.887,213.935,90.324,213.935z M91.131,229.183c-0.22,0.073-0.539,0.122-0.808,0.122
		s-0.563-0.049-0.783-0.122v-12.752c0.196-0.049,0.514-0.122,0.759-0.122c0.269,0,0.636,0.049,0.832,0.122V229.183z"/>
	<path fill="#333333" d="M103.882,227.054c0,1.835-0.098,4.038-0.979,5.556c-1.053,1.811-2.937,2.594-4.822,2.594
		c-1.077,0-2.007-0.122-2.79-0.392c-0.074-0.146-0.098-0.392-0.098-0.587c0-0.146,0.049-0.44,0.098-0.588
		c0.759,0.196,1.64,0.343,2.521,0.343c3.083,0,4.479-1.909,4.479-5.262v-1.028c-0.954,1.004-2.3,1.493-3.402,1.493
		c-3.255,0-4.944-2.521-4.944-6.069c0-4.357,2.57-6.927,6.363-6.927c1.004,0,2.521,0.294,3.574,0.71V227.054z M102.291,217.68
		c-0.881-0.245-1.517-0.318-2.129-0.318c-3.108,0-4.577,2.619-4.577,5.678c0,2.717,1.028,4.847,3.427,4.847
		c1.224,0,2.472-0.612,3.279-1.469V217.68z"/>
	<path fill="#333333" d="M117.121,229.183c-0.221,0.073-0.49,0.122-0.734,0.122c-0.294,0-0.612-0.049-0.857-0.122v-7.734
		c0-2.692-0.685-3.916-2.961-3.916c-1.224,0-2.692,0.686-3.646,1.42v10.23c-0.27,0.073-0.563,0.122-0.833,0.122
		c-0.245,0-0.538-0.049-0.758-0.122v-17.867c0.22-0.073,0.562-0.122,0.783-0.122c0.22,0,0.587,0.049,0.808,0.122v6.29
		c1.297-1.003,2.839-1.419,4.038-1.419c1.249,0,2.521,0.416,3.231,1.272c0.783,0.93,0.93,2.276,0.93,3.598V229.183z"/>
	<path fill="#333333" d="M122.136,229.183c-0.269,0.073-0.539,0.122-0.832,0.122c-0.245,0-0.539-0.049-0.759-0.122v-17.867
		c0.22-0.049,0.489-0.122,0.808-0.122c0.269,0,0.563,0.049,0.783,0.122V229.183z"/>
	<path fill="#333333" d="M135.131,227.054c0,2.374-0.098,4.062-0.955,5.58c-0.979,1.737-2.913,2.569-4.65,2.569
		c-1.272,0-2.154-0.122-2.937-0.392c-0.073-0.146-0.098-0.392-0.098-0.587c0-0.146,0.049-0.465,0.098-0.612
		c0.734,0.221,1.616,0.392,2.791,0.392c2.692,0,4.161-1.934,4.161-5.286v-0.856c-1.249,1.101-2.644,1.566-3.916,1.566
		c-1.371,0-2.448-0.343-3.133-1.175c-0.759-0.906-0.857-2.228-0.857-3.549v-8.273c0.196-0.049,0.514-0.122,0.759-0.122
		c0.294,0,0.612,0.073,0.833,0.122v8.004c0,1.175,0.098,2.153,0.538,2.814c0.392,0.563,1.028,0.856,1.983,0.856
		c1.517,0,2.961-0.808,3.793-1.615v-10.06c0.22-0.049,0.539-0.122,0.832-0.122c0.245,0,0.563,0.073,0.759,0.122V227.054z"/>
	<path fill="#333333" d="M152.114,217.973c-0.783-0.317-1.812-0.514-2.717-0.514c-3.182,0-4.357,2.472-4.357,5.458
		c0,2.937,1.126,5.213,4.333,5.213c0.856,0,1.885-0.146,2.643-0.367c0.05,0.147,0.099,0.318,0.099,0.515
		c0,0.293-0.049,0.514-0.123,0.685c-0.709,0.294-1.86,0.466-2.765,0.466c-3.99,0-5.85-2.619-5.85-6.462
		c0-3.989,2.031-6.779,5.923-6.779c0.93,0,2.032,0.22,2.791,0.562c0.073,0.196,0.098,0.392,0.098,0.612
		C152.188,217.605,152.163,217.802,152.114,217.973z"/>
	<path fill="#333333" d="M159.406,229.428c-3.206,0-5.263-2.203-5.263-6.608s2.081-6.633,5.287-6.633s5.237,2.178,5.237,6.584
		C164.668,227.176,162.612,229.428,159.406,229.428z M159.431,217.386c-2.35,0-3.622,1.812-3.622,5.409s1.248,5.434,3.598,5.434
		s3.598-1.836,3.598-5.434S161.78,217.386,159.431,217.386z"/>
	<path fill="#333333" d="M185.104,229.207c-0.245,0.049-0.49,0.098-0.734,0.098c-0.294,0-0.563-0.073-0.857-0.122v-7.734
		c0-2.692-0.685-3.916-2.961-3.916c-1.175,0-2.741,0.612-3.721,1.322c0.196,0.685,0.245,1.443,0.245,2.202v8.126
		c-0.245,0.073-0.489,0.122-0.734,0.122c-0.318,0-0.611-0.049-0.856-0.122v-7.734c0-2.692-0.612-3.916-2.888-3.916
		c-1.225,0-2.668,0.686-3.623,1.42v10.23c-0.269,0.073-0.587,0.122-0.881,0.122c-0.245,0-0.514-0.049-0.71-0.122v-12.752
		c0.123-0.049,0.392-0.098,0.661-0.098c0.22,0,0.489,0.049,0.661,0.098l0.122,1.273h0.024c1.346-1.102,2.888-1.518,4.137-1.518
		c1.248,0,2.447,0.416,3.157,1.272c0.098,0.098,0.171,0.221,0.244,0.343c1.298-1.053,2.962-1.615,4.553-1.615
		c1.248,0,2.521,0.416,3.23,1.272c0.783,0.93,0.931,2.276,0.931,3.598V229.207z"/>
	<path fill="#333333" d="M196.53,227.861c-0.955,0.856-2.447,1.321-3.867,1.321c-1.004,0-1.934-0.171-2.619-0.416v6.168
		c-0.244,0.073-0.465,0.122-0.808,0.122c-0.269,0-0.587-0.049-0.783-0.122v-18.504c0.123-0.049,0.416-0.098,0.661-0.098
		s0.465,0.049,0.637,0.098l0.146,1.347h0.024c0.93-0.979,2.325-1.591,3.745-1.591c1.542,0,2.912,0.661,3.769,1.885
		c0.71,1.027,1.15,2.496,1.15,4.283C198.586,224.802,197.827,226.687,196.53,227.861z M193.495,217.483
		c-1.297,0-2.595,0.538-3.451,1.615v8.42c0.637,0.294,1.615,0.465,2.448,0.465c2.643,0,4.43-1.737,4.43-5.556
		C196.922,219.417,195.747,217.483,193.495,217.483z"/>
	<path fill="#333333" d="M210.43,223.235h-8.199c0.098,2.814,1.419,4.943,4.479,4.943c1.102,0,2.129-0.146,3.035-0.366
		c0.049,0.122,0.098,0.366,0.098,0.514c0,0.244-0.049,0.465-0.122,0.636c-0.955,0.294-2.154,0.466-3.157,0.466
		c-1.934,0-3.402-0.612-4.308-1.591c-1.077-1.175-1.641-2.938-1.641-4.969c0-3.549,1.787-6.682,5.36-6.682
		c3.206,0,4.479,2.644,4.479,5.874C210.454,222.428,210.454,222.868,210.43,223.235z M208.863,222.061
		c0-2.252-0.245-4.675-2.962-4.675c-2.374,0-3.524,2.178-3.671,4.675H208.863z"/>
	<path fill="#333333" d="M219.998,229.061c-0.637,0.22-1.592,0.367-2.301,0.367c-2.424,0-3.573-1.15-3.573-3.867v-7.881h-2.203
		c-0.049-0.123-0.073-0.416-0.073-0.563c0-0.122,0.024-0.416,0.073-0.538l2.203-0.147v-3.328c0.195-0.073,0.514-0.122,0.783-0.122
		c0.269,0,0.611,0.049,0.808,0.122v3.328h3.598c0.049,0.123,0.098,0.49,0.098,0.612c0,0.171-0.049,0.465-0.098,0.637h-3.598v7.733
		c0,1.934,0.562,2.741,2.08,2.741c0.832,0,1.64-0.122,2.203-0.293c0.049,0.122,0.098,0.416,0.098,0.587
		C220.096,228.669,220.071,228.84,219.998,229.061z"/>
	<path fill="#333333" d="M223.35,213.935c-0.563,0-1.028-0.489-1.028-1.077c0-0.587,0.465-1.052,1.028-1.052
		c0.562,0,1.052,0.465,1.052,1.052C224.401,213.445,223.912,213.935,223.35,213.935z M224.157,229.183
		c-0.221,0.073-0.539,0.122-0.808,0.122c-0.27,0-0.563-0.049-0.783-0.122v-12.752c0.195-0.049,0.514-0.122,0.758-0.122
		c0.27,0,0.637,0.049,0.833,0.122V229.183z"/>
	<path fill="#333333" d="M234.461,229.061c-0.637,0.22-1.592,0.367-2.301,0.367c-2.424,0-3.573-1.15-3.573-3.867v-7.881h-2.203
		c-0.049-0.123-0.073-0.416-0.073-0.563c0-0.122,0.024-0.416,0.073-0.538l2.203-0.147v-3.328c0.195-0.073,0.514-0.122,0.783-0.122
		c0.269,0,0.611,0.049,0.808,0.122v3.328h3.598c0.049,0.123,0.098,0.49,0.098,0.612c0,0.171-0.049,0.465-0.098,0.637h-3.598v7.733
		c0,1.934,0.562,2.741,2.08,2.741c0.832,0,1.64-0.122,2.203-0.293c0.049,0.122,0.098,0.416,0.098,0.587
		C234.559,228.669,234.534,228.84,234.461,229.061z"/>
	<path fill="#333333" d="M237.836,213.935c-0.562,0-1.027-0.489-1.027-1.077c0-0.587,0.465-1.052,1.027-1.052
		c0.563,0,1.053,0.465,1.053,1.052C238.889,213.445,238.399,213.935,237.836,213.935z M238.645,229.183
		c-0.221,0.073-0.539,0.122-0.809,0.122c-0.269,0-0.562-0.049-0.783-0.122v-12.752c0.196-0.049,0.515-0.122,0.759-0.122
		c0.27,0,0.637,0.049,0.833,0.122V229.183z"/>
	<path fill="#333333" d="M250.807,219.539l-3.842,9.644c-0.221,0.073-0.466,0.122-0.661,0.122c-0.27,0-0.489-0.049-0.686-0.122
		l-3.965-9.644c-0.44-1.101-0.637-2.202-0.637-3.108c0.196-0.049,0.539-0.122,0.759-0.122c0.294,0,0.588,0.049,0.832,0.122
		c0.024,0.833,0.123,1.787,0.49,2.668l3.182,8.077h0.049l3.084-8.077c0.343-0.856,0.514-1.811,0.514-2.668
		c0.172-0.073,0.538-0.122,0.856-0.122c0.172,0,0.489,0.024,0.71,0.098C251.468,217.288,251.297,218.34,250.807,219.539z"/>
	<path fill="#333333" d="M262.773,223.235h-8.198c0.098,2.814,1.419,4.943,4.479,4.943c1.102,0,2.129-0.146,3.035-0.366
		c0.049,0.122,0.098,0.366,0.098,0.514c0,0.244-0.049,0.465-0.122,0.636c-0.955,0.294-2.154,0.466-3.157,0.466
		c-1.934,0-3.402-0.612-4.308-1.591c-1.077-1.175-1.641-2.938-1.641-4.969c0-3.549,1.787-6.682,5.36-6.682
		c3.206,0,4.479,2.644,4.479,5.874C262.799,222.428,262.799,222.868,262.773,223.235z M261.207,222.061
		c0-2.252-0.244-4.675-2.961-4.675c-2.374,0-3.524,2.178-3.671,4.675H261.207z"/>
</g>
<g>
	<path fill="#333333" d="M21.953,256.844h-9.007v-16.545h8.64c0.073,0.171,0.122,0.44,0.122,0.636c0,0.221-0.049,0.49-0.122,0.637
		H14.61v6.069h6.021c0.049,0.123,0.123,0.441,0.123,0.637c0,0.196-0.049,0.465-0.123,0.661H14.61v6.633h7.343
		c0.073,0.171,0.122,0.44,0.122,0.636C22.075,256.428,22.026,256.697,21.953,256.844z"/>
	<path fill="#333333" d="M26.871,251.19c0,1.615,0.269,2.839,0.979,3.622c0.612,0.66,1.542,1.053,2.937,1.053
		s2.35-0.393,2.961-1.053c0.709-0.783,0.979-2.007,0.979-3.622v-10.892c0.22-0.073,0.612-0.123,0.832-0.123
		c0.245,0,0.612,0.05,0.832,0.123v10.646c0,2.178-0.416,3.695-1.444,4.724c-0.906,0.905-2.276,1.42-4.161,1.42
		c-1.885,0-3.231-0.515-4.136-1.42c-1.028-1.028-1.444-2.546-1.444-4.724v-10.646c0.196-0.073,0.539-0.123,0.832-0.123
		c0.294,0,0.587,0.05,0.833,0.123V251.19z"/>
	<path fill="#333333" d="M47.548,256.844c-0.196,0.073-0.563,0.122-0.832,0.122s-0.636-0.049-0.832-0.122v-16.545
		c0.196-0.073,0.563-0.123,0.832-0.123s0.636,0.05,0.832,0.123V256.844z"/>
	<path fill="#333333" d="M61.131,256.868c-0.195,0.049-0.489,0.098-0.783,0.098c-0.245,0-0.562-0.049-0.808-0.122v-7.759
		c0-1.175-0.146-2.08-0.489-2.717c-0.416-0.783-1.199-1.175-2.472-1.175c-1.224,0-2.692,0.686-3.646,1.42v10.23
		c-0.27,0.073-0.539,0.122-0.833,0.122c-0.245,0-0.538-0.049-0.759-0.122v-12.752c0.171-0.073,0.465-0.098,0.637-0.098
		c0.245,0,0.538,0.024,0.685,0.098l0.123,1.273h0.024c1.346-1.102,2.888-1.518,4.136-1.518c1.249,0,2.545,0.416,3.255,1.272
		c0.783,0.93,0.93,2.276,0.93,3.598V256.868z"/>
	<path fill="#333333" d="M71.164,256.722c-0.636,0.22-1.591,0.367-2.301,0.367c-2.423,0-3.573-1.15-3.573-3.867v-7.881h-2.203
		c-0.049-0.123-0.073-0.416-0.073-0.563c0-0.122,0.024-0.416,0.073-0.538l2.203-0.147v-3.328c0.196-0.073,0.514-0.122,0.783-0.122
		s0.612,0.049,0.808,0.122v3.328h3.598c0.049,0.123,0.098,0.49,0.098,0.612c0,0.171-0.049,0.465-0.098,0.637H66.88v7.733
		c0,1.934,0.563,2.741,2.081,2.741c0.832,0,1.64-0.122,2.203-0.293c0.049,0.122,0.098,0.416,0.098,0.587
		C71.262,256.33,71.237,256.501,71.164,256.722z"/>
	<path fill="#333333" d="M82.029,250.896H73.83c0.098,2.814,1.419,4.943,4.479,4.943c1.102,0,2.129-0.146,3.035-0.367
		c0.049,0.123,0.098,0.367,0.098,0.515c0,0.244-0.049,0.465-0.123,0.636c-0.954,0.294-2.154,0.466-3.157,0.466
		c-1.934,0-3.402-0.612-4.308-1.591c-1.077-1.175-1.64-2.938-1.64-4.969c0-3.549,1.787-6.682,5.36-6.682
		c3.207,0,4.479,2.644,4.479,5.874C82.054,250.089,82.054,250.529,82.029,250.896z M80.463,249.722c0-2.252-0.245-4.675-2.961-4.675
		c-2.374,0-3.524,2.178-3.671,4.675H80.463z"/>
	<path fill="#333333" d="M90.422,245.267c-1.42,0.196-2.961,0.71-4.112,1.591v9.986c-0.245,0.073-0.539,0.122-0.808,0.122
		c-0.27,0-0.539-0.049-0.783-0.122v-12.752c0.146-0.049,0.367-0.098,0.612-0.098c0.196,0,0.465,0.049,0.661,0.098l0.123,1.566h0.024
		c1.052-0.905,2.888-1.664,4.283-1.811c0.049,0.146,0.098,0.416,0.098,0.636C90.52,244.729,90.471,245.047,90.422,245.267z"/>
	<path fill="#333333" d="M98.596,245.267c-1.42,0.196-2.961,0.71-4.112,1.591v9.986c-0.245,0.073-0.539,0.122-0.808,0.122
		c-0.27,0-0.539-0.049-0.783-0.122v-12.752c0.146-0.049,0.367-0.098,0.612-0.098c0.196,0,0.465,0.049,0.661,0.098l0.123,1.566h0.024
		c1.052-0.905,2.888-1.664,4.283-1.811c0.049,0.146,0.098,0.416,0.098,0.636C98.694,244.729,98.645,245.047,98.596,245.267z"/>
	<path fill="#333333" d="M109.535,250.896h-8.199c0.098,2.814,1.419,4.943,4.479,4.943c1.102,0,2.129-0.146,3.035-0.367
		c0.049,0.123,0.098,0.367,0.098,0.515c0,0.244-0.049,0.465-0.123,0.636c-0.954,0.294-2.154,0.466-3.157,0.466
		c-1.934,0-3.402-0.612-4.308-1.591c-1.077-1.175-1.64-2.938-1.64-4.969c0-3.549,1.787-6.682,5.36-6.682
		c3.207,0,4.479,2.644,4.479,5.874C109.56,250.089,109.56,250.529,109.535,250.896z M107.969,249.722
		c0-2.252-0.245-4.675-2.961-4.675c-2.374,0-3.524,2.178-3.671,4.675H107.969z"/>
	<path fill="#333333" d="M121.453,254.715c0,1.835-0.098,4.038-0.979,5.556c-1.053,1.811-2.937,2.594-4.822,2.594
		c-1.077,0-2.007-0.122-2.79-0.392c-0.074-0.146-0.098-0.392-0.098-0.587c0-0.147,0.049-0.44,0.098-0.588
		c0.759,0.196,1.64,0.343,2.521,0.343c3.083,0,4.479-1.909,4.479-5.262v-1.028c-0.954,1.004-2.3,1.493-3.402,1.493
		c-3.255,0-4.944-2.521-4.944-6.07c0-4.356,2.57-6.926,6.363-6.926c1.004,0,2.521,0.294,3.574,0.71V254.715z M119.861,245.341
		c-0.881-0.245-1.517-0.318-2.129-0.318c-3.108,0-4.577,2.618-4.577,5.678c0,2.717,1.028,4.847,3.427,4.847
		c1.224,0,2.472-0.612,3.279-1.469V245.341z"/>
	<path fill="#333333" d="M141.225,244.606l-4.772,12.237c-0.22,0.073-0.587,0.122-0.833,0.122c-0.245,0-0.636-0.049-0.905-0.122
		l-4.602-12.091c-0.759-2.007-0.856-3.06-0.881-4.454c0.22-0.073,0.636-0.123,0.856-0.123c0.245,0,0.563,0.05,0.808,0.123
		c0.024,1.37,0.147,2.276,0.783,3.989l3.06,8.272c0.22,0.661,0.612,1.738,0.856,2.57c0.245-0.832,0.612-1.909,0.857-2.57
		l3.157-8.272c0.661-1.713,0.783-2.79,0.832-3.989c0.22-0.073,0.49-0.123,0.783-0.123c0.245,0,0.587,0.05,0.832,0.123
		C142.008,241.449,141.91,242.844,141.225,244.606z"/>
	<path fill="#333333" d="M155.566,256.844c-0.196,0.073-0.515,0.122-0.857,0.122c-0.293,0-0.66-0.049-0.881-0.122l-1.493-4.283
		h-6.828l-1.444,4.308c-0.171,0.049-0.562,0.098-0.832,0.098c-0.293,0-0.612-0.049-0.856-0.122l5.629-16.545
		c0.27-0.073,0.588-0.123,0.833-0.123c0.269,0,0.563,0.05,0.783,0.123L155.566,256.844z M149.594,244.777
		c-0.245-0.66-0.539-1.615-0.759-2.472c-0.245,0.832-0.539,1.812-0.759,2.472l-2.154,6.486h5.947L149.594,244.777z"/>
	<path fill="#333333" d="M167.775,250.26h-2.594v6.584c-0.196,0.073-0.588,0.122-0.857,0.122c-0.269,0-0.611-0.049-0.808-0.122
		v-16.545c0.931-0.073,2.913-0.123,4.186-0.123c3.255,0,5.629,1.225,5.629,4.773S171.275,250.26,167.775,250.26z M167.678,241.4
		c-0.562,0-1.713,0.024-2.496,0.073v7.538h2.324c2.619,0,4.137-1.028,4.137-4.014C171.643,242.085,169.979,241.4,167.678,241.4z"/>
	<path fill="#333333" d="M181.554,245.267c-1.42,0.196-2.962,0.71-4.112,1.591v9.986c-0.244,0.073-0.538,0.122-0.808,0.122
		c-0.269,0-0.538-0.049-0.783-0.122v-12.752c0.147-0.049,0.367-0.098,0.612-0.098c0.195,0,0.465,0.049,0.66,0.098l0.123,1.566h0.024
		c1.053-0.905,2.888-1.664,4.283-1.811c0.049,0.146,0.098,0.416,0.098,0.636C181.651,244.729,181.603,245.047,181.554,245.267z"/>
	<path fill="#333333" d="M187.94,257.089c-3.206,0-5.263-2.203-5.263-6.608c0-4.406,2.081-6.633,5.287-6.633
		s5.237,2.178,5.237,6.584C193.202,254.837,191.146,257.089,187.94,257.089z M187.965,245.047c-2.35,0-3.622,1.811-3.622,5.409
		c0,3.598,1.248,5.434,3.598,5.434s3.598-1.836,3.598-5.434C191.538,246.857,190.314,245.047,187.965,245.047z"/>
	<path fill="#333333" d="M205.047,254.715c0,1.835-0.098,4.038-0.979,5.556c-1.052,1.811-2.937,2.594-4.821,2.594
		c-1.077,0-2.007-0.122-2.79-0.392c-0.073-0.146-0.098-0.392-0.098-0.587c0-0.147,0.049-0.44,0.098-0.588
		c0.759,0.196,1.64,0.343,2.521,0.343c3.084,0,4.479-1.909,4.479-5.262v-1.028c-0.955,1.004-2.301,1.493-3.402,1.493
		c-3.255,0-4.944-2.521-4.944-6.07c0-4.356,2.57-6.926,6.364-6.926c1.003,0,2.521,0.294,3.573,0.71V254.715z M203.456,245.341
		c-0.882-0.245-1.518-0.318-2.13-0.318c-3.108,0-4.576,2.618-4.576,5.678c0,2.717,1.027,4.847,3.426,4.847
		c1.225,0,2.473-0.612,3.28-1.469V245.341z"/>
	<path fill="#333333" d="M214.075,245.267c-1.42,0.196-2.962,0.71-4.112,1.591v9.986c-0.244,0.073-0.538,0.122-0.808,0.122
		c-0.269,0-0.538-0.049-0.783-0.122v-12.752c0.147-0.049,0.367-0.098,0.612-0.098c0.195,0,0.465,0.049,0.66,0.098l0.123,1.566h0.024
		c1.053-0.905,2.888-1.664,4.283-1.811c0.049,0.146,0.098,0.416,0.098,0.636C214.173,244.729,214.124,245.047,214.075,245.267z"/>
	<path fill="#333333" d="M224.5,253.711c0,0.881,0,1.982,0.05,3.133c-0.172,0.073-0.44,0.122-0.661,0.122
		c-0.196,0-0.465-0.049-0.661-0.122c-0.073-0.392-0.122-0.905-0.146-1.371h-0.024c-0.832,1.028-2.301,1.616-3.745,1.616
		c-2.276,0-4.185-1.273-4.185-3.892c0-1.493,0.611-2.595,1.566-3.28c1.076-0.759,2.496-1.003,4.014-1.003
		c0.856,0,1.566,0.049,2.202,0.146v-0.71c0-2.447-1.003-3.255-3.059-3.255c-1.15,0-2.57,0.245-3.451,0.465
		c-0.049-0.122-0.098-0.392-0.098-0.636c0-0.172,0.049-0.417,0.122-0.563c1.053-0.318,2.447-0.514,3.622-0.514
		c2.913,0,4.454,1.321,4.454,4.308V253.711z M222.909,250.26c-0.709-0.098-1.443-0.146-2.08-0.146c-1.199,0-2.276,0.22-3.011,0.783
		c-0.66,0.489-1.027,1.272-1.027,2.276c0,1.786,1.15,2.643,2.741,2.643c1.321,0,2.717-0.636,3.377-1.64V250.26z"/>
	<path fill="#333333" d="M245.596,256.868c-0.244,0.049-0.489,0.098-0.733,0.098c-0.294,0-0.563-0.073-0.857-0.122v-7.734
		c0-2.692-0.685-3.916-2.961-3.916c-1.175,0-2.741,0.612-3.721,1.322c0.196,0.685,0.245,1.443,0.245,2.202v8.126
		c-0.245,0.073-0.489,0.122-0.734,0.122c-0.318,0-0.611-0.049-0.856-0.122v-7.734c0-2.692-0.612-3.916-2.888-3.916
		c-1.225,0-2.668,0.686-3.623,1.42v10.23c-0.269,0.073-0.587,0.122-0.881,0.122c-0.245,0-0.514-0.049-0.71-0.122v-12.752
		c0.123-0.049,0.392-0.098,0.661-0.098c0.221,0,0.489,0.049,0.661,0.098l0.122,1.273h0.024c1.346-1.102,2.888-1.518,4.137-1.518
		c1.248,0,2.447,0.416,3.157,1.272c0.098,0.098,0.171,0.221,0.244,0.343c1.298-1.053,2.962-1.615,4.553-1.615
		c1.248,0,2.521,0.416,3.23,1.272c0.783,0.93,0.93,2.276,0.93,3.598V256.868z"/>
	<path fill="#333333" d="M266.568,256.868c-0.245,0.049-0.49,0.098-0.734,0.098c-0.294,0-0.563-0.073-0.857-0.122v-7.734
		c0-2.692-0.685-3.916-2.961-3.916c-1.175,0-2.741,0.612-3.721,1.322c0.196,0.685,0.245,1.443,0.245,2.202v8.126
		c-0.245,0.073-0.489,0.122-0.734,0.122c-0.318,0-0.611-0.049-0.856-0.122v-7.734c0-2.692-0.612-3.916-2.888-3.916
		c-1.225,0-2.668,0.686-3.623,1.42v10.23c-0.269,0.073-0.587,0.122-0.881,0.122c-0.245,0-0.514-0.049-0.71-0.122v-12.752
		c0.123-0.049,0.392-0.098,0.661-0.098c0.22,0,0.489,0.049,0.661,0.098l0.122,1.273h0.024c1.346-1.102,2.888-1.518,4.137-1.518
		c1.248,0,2.447,0.416,3.157,1.272c0.098,0.098,0.171,0.221,0.244,0.343c1.298-1.053,2.962-1.615,4.553-1.615
		c1.248,0,2.521,0.416,3.23,1.272c0.783,0.93,0.931,2.276,0.931,3.598V256.868z"/>
	<path fill="#333333" d="M278.926,250.896h-8.199c0.098,2.814,1.419,4.943,4.479,4.943c1.102,0,2.129-0.146,3.035-0.367
		c0.049,0.123,0.098,0.367,0.098,0.515c0,0.244-0.049,0.465-0.122,0.636c-0.955,0.294-2.154,0.466-3.157,0.466
		c-1.934,0-3.402-0.612-4.308-1.591c-1.077-1.175-1.641-2.938-1.641-4.969c0-3.549,1.787-6.682,5.36-6.682
		c3.206,0,4.479,2.644,4.479,5.874C278.95,250.089,278.95,250.529,278.926,250.896z M277.359,249.722
		c0-2.252-0.245-4.675-2.962-4.675c-2.374,0-3.524,2.178-3.671,4.675H277.359z"/>
</g>
<path fill="#333333" d="M59.53,23.695c0,4.062-10.308,7.355-23.01,7.355c-12.699,0-23.006-3.294-23.006-7.355V17.28
	c0-4.062,10.307-7.355,23.006-7.355c12.702,0,23.01,3.294,23.01,7.355V23.695z"/>
<path fill="#333333" d="M59.53,34.386c-0.007-0.269-0.058-0.536-0.15-0.792c-5.858,3.081-14.52,4.278-22.86,4.278
	c-8.336,0-17.106-1.241-22.855-4.278c-0.093,0.255-0.144,0.522-0.151,0.792v6.416c0,4.061,10.307,7.355,23.006,7.355
	c12.702,0,23.01-3.294,23.01-7.355V34.386z"/>
<path fill="#333333" d="M59.53,51.492c-0.007-0.269-0.058-0.536-0.15-0.79c-5.858,3.08-14.52,4.276-22.86,4.276
	c-8.336,0-17.106-1.241-22.855-4.276c-0.093,0.254-0.144,0.521-0.151,0.79v6.416c0,4.062,10.307,7.355,23.006,7.355
	c12.702,0,23.01-3.294,23.01-7.355V51.492z"/>
<path fill="#333333" d="M89.659,65.263c12.702,0,23.008-3.294,23.008-7.355v-6.416c0-4.062-10.306-7.354-23.008-7.354
	c-12.703,0-23.01,3.293-23.01,7.354v6.416C66.63,61.969,76.827,65.263,89.659,65.263"/>
<path fill="#333333" d="M66.629,75.014c0,4.062,10.307,7.355,23.009,7.355c12.701,0,23.006-3.294,23.006-7.355v-6.415
	c-0.007-0.27-0.058-0.537-0.15-0.789c-5.855,3.077-14.52,4.274-22.856,4.274c-8.339,0-17.106-1.239-22.858-4.274
	c-0.095,0.252-0.146,0.519-0.151,0.789V75.014z"/>
<path fill="#333333" d="M66.629,92.121c0,4.062,10.307,7.355,23.009,7.355c12.701,0,23.006-3.293,23.006-7.355v-6.417
	c-0.007-0.27-0.058-0.536-0.15-0.789c-5.855,3.078-14.52,4.275-22.856,4.275c-8.339,0-17.106-1.238-22.858-4.275
	c-0.095,0.252-0.146,0.519-0.151,0.789V92.121z"/>
<path fill="#333333" d="M59.53,68.599c-0.007-0.27-0.058-0.537-0.15-0.791c-5.858,3.08-14.52,4.277-22.86,4.277
	c-8.336,0-17.106-1.24-22.855-4.277c-0.093,0.254-0.144,0.521-0.151,0.791v6.415c0,4.062,10.307,7.355,23.006,7.355
	c12.702,0,23.01-3.294,23.01-7.355V68.599z"/>
<path fill="#333333" d="M13.664,85.02c-0.093,0.253-0.143,0.522-0.15,0.792v6.413c0,4.064,10.306,7.36,23.008,7.36
	c12.702,0,23.007-3.296,23.007-7.36v-6.413c-0.005-0.269-0.056-0.539-0.148-0.792c-5.86,3.081-14.52,4.275-22.859,4.275
	S19.522,88.078,13.664,85.02"/>
</svg>
