<?xml version="1.0" encoding="utf-8"?>
<!-- Generator: Adobe Illustrator 16.0.0, SVG Export Plug-In . SVG Version: 6.00 Build 0)  -->
<!DOCTYPE svg PUBLIC "-//W3C//DTD SVG 1.0//EN" "http://www.w3.org/TR/2001/REC-SVG-20010904/DTD/svg10.dtd">
<svg version="1.0" xmlns="http://www.w3.org/2000/svg" xmlns:xlink="http://www.w3.org/1999/xlink" x="0px" y="0px" width="300px"
	 height="300px" viewBox="0 0 300 300" style="enable-background:new 0 0 300 300;" xml:space="preserve">
<g id="Icon">
	<path style="fill:#58595B;" d="M67.904,151.42c-0.478-1.39-1.136-2.705-1.357-4.09c-0.383-2.393-0.511-4.83-0.706-7.25
		c-0.047-0.611-0.283-0.762-0.865-0.754c-2.484,0.029-4.969,0.029-7.453-0.001c-0.597-0.008-0.808,0.171-0.851,0.771
		c-0.146,2.013-0.369,4.021-0.521,6.035c-0.129,1.715-0.476,3.345-1.503,4.771c-0.102,0.144-0.173,0.31-0.285,0.518H67.904z
		 M61.264,135.687c14.272,0,28.544,0,42.816,0c1.325,0,1.334-0.009,1.334-1.323c0-19.468,0-38.935,0-58.402
		c0-1.346-0.002-1.348-1.306-1.348c-28.573,0-57.146,0-85.718,0c-1.284,0-1.292,0.011-1.292,1.278
		c-0.002,19.494-0.002,38.99,0,58.484c0,1.309,0,1.311,1.346,1.311C32.718,135.687,46.991,135.687,61.264,135.687 M53.073,139.339
		h-1.18c-11.265,0-22.527,0.002-33.792-0.002c-2.276,0-3.881-1.069-4.457-3.006c-0.155-0.515-0.209-1.078-0.209-1.616
		c-0.009-19.684-0.011-39.369-0.006-59.055c0.002-2.992,1.746-4.721,4.759-4.721c28.733-0.004,57.468-0.004,86.203-0.002
		c2.939,0.002,4.688,1.75,4.689,4.702c0.004,19.686,0.004,39.37-0.001,59.054c0,2.907-1.747,4.641-4.648,4.644
		c-11.292,0.004-22.583,0.002-33.874,0.002H69.43c0.143,1.625,0.273,3.145,0.413,4.664c0.076,0.816,0.215,1.63,0.24,2.447
		c0.064,1.91,1.04,3.258,2.716,3.946c1.263,0.523,2.668,0.718,4.02,1.014c0.419,0.093,0.87,0.018,1.308,0.047
		c1.095,0.08,1.832,0.816,1.839,1.82c0.007,1.014-0.718,1.758-1.811,1.843c-0.245,0.022-0.493,0.012-0.738,0.012
		c-10.772,0-21.542,0-32.313,0c-0.274,0-0.55,0.011-0.82-0.018c-1.044-0.102-1.738-0.84-1.735-1.825
		c0.002-0.981,0.701-1.728,1.747-1.823c0.923-0.088,1.886-0.003,2.766-0.238c1.222-0.327,2.457-0.751,3.547-1.374
		c1.169-0.666,1.712-1.837,1.814-3.224c0.151-2.07,0.386-4.135,0.58-6.203C53.031,140.104,53.044,139.778,53.073,139.339"/>
</g>
<g id="Text" style="display:none;">
	<text transform="matrix(1 0 0 1 117.9502 119.4258)" style="display:inline;"><tspan x="0" y="0" style="fill:#837199; font-family:'FSMatthew-Bold'; font-size:71.6371;">4</tspan><tspan x="39.973" y="0" style="fill:#837199; font-family:'FSMatthew-Bold'; font-size:71.6371; letter-spacing:-6;">,</tspan><tspan x="52.294" y="0" style="fill:#837199; font-family:'FSMatthew-Bold'; font-size:71.6371;">00</tspan><tspan x="129.517" y="0" style="fill:#837199; font-family:'FSMatthew-Bold'; font-size:71.6371;">0</tspan></text>
	<text transform="matrix(1 0 0 1 15.1309 199.1934)" style="display:inline;"><tspan x="0" y="0" style="fill:#837199; font-family:'FSMatthew-Bold'; font-size:50.4771;">50 </tspan><tspan x="65.316" y="0" style="fill:#837199; font-family:'FSMatthew-Bold'; font-size:50.4771; letter-spacing:-1;">c</tspan><tspan x="87.323" y="0" style="fill:#837199; font-family:'FSMatthew-Bold'; font-size:50.4771;">ountrie</tspan><tspan x="248.745" y="0" style="fill:#837199; font-family:'FSMatthew-Bold'; font-size:50.4771;">s</tspan></text>
	<text transform="matrix(1 0 0 1 15.0645 57.7246)" style="display:inline;"><tspan x="0" y="0" style="fill:#58595B; font-family:'FSMatthew-Light'; font-size:21.2647;">Mo</tspan><tspan x="27.325" y="0" style="fill:#58595B; font-family:'FSMatthew-Light'; font-size:21.2647;">r</tspan><tspan x="33.875" y="0" style="fill:#58595B; font-family:'FSMatthew-Light'; font-size:21.2647;">e than</tspan></text>
	<text transform="matrix(1 0 0 1 17.9365 226.29)" style="display:inline;"><tspan x="0" y="0" style="fill:#58595B; font-family:'FSMatthew-Light'; font-size:21.2647;">h</tspan><tspan x="11.334" y="0" style="fill:#58595B; font-family:'FSMatthew-Light'; font-size:21.2647;">a</tspan><tspan x="21.647" y="0" style="fill:#58595B; font-family:'FSMatthew-Light'; font-size:21.2647;">v</tspan><tspan x="31.557" y="0" style="fill:#58595B; font-family:'FSMatthew-Light'; font-size:21.2647;">e success</tspan><tspan x="111.616" y="0" style="fill:#58595B; font-family:'FSMatthew-Light'; font-size:21.2647;">f</tspan><tspan x="119.145" y="0" style="fill:#58595B; font-family:'FSMatthew-Light'; font-size:21.2647;">ully comple</tspan><tspan x="218.64" y="0" style="fill:#58595B; font-family:'FSMatthew-Light'; font-size:21.2647;">t</tspan><tspan x="226.061" y="0" style="fill:#58595B; font-family:'FSMatthew-Light'; font-size:21.2647;">ed </tspan></text>
	
		<text transform="matrix(1 0 0 1 270 226.29)" style="display:inline;fill:#58595B; font-family:'FSMatthew-Light'; font-size:21.2647;"> </text>
	<text transform="matrix(1 0 0 1 17.9365 250.8301)" style="display:inline;"><tspan x="0" y="0" style="fill:#58595B; font-family:'FSMatthew-Light'; font-size:21.2647;">our </tspan><tspan x="33.577" y="0" style="fill:#58595B; font-family:'FSMatthew-Light'; font-size:21.2647;">d</tspan><tspan x="45.314" y="0" style="fill:#58595B; font-family:'FSMatthew-Light'; font-size:21.2647;">i</tspan><tspan x="49.759" y="0" style="fill:#58595B; font-family:'FSMatthew-Light'; font-size:21.2647;">st</tspan><tspan x="65.792" y="0" style="fill:#58595B; font-family:'FSMatthew-Light'; font-size:21.2647;">ance learning courses</tspan></text>
	<text transform="matrix(1 0 0 1 116.5801 154.415)" style="display:inline;"><tspan x="0" y="0" style="fill:#58595B; font-family:'FSMatthew-Light'; font-size:21.2647;">s</tspan><tspan x="8.06" y="0" style="fill:#58595B; font-family:'FSMatthew-Light'; font-size:21.2647;">t</tspan><tspan x="15.502" y="0" style="fill:#58595B; font-family:'FSMatthew-Light'; font-size:21.2647;">ud</tspan><tspan x="37.234" y="0" style="fill:#58595B; font-family:'FSMatthew-Light'; font-size:21.2647;">e</tspan><tspan x="47.271" y="0" style="fill:#58595B; font-family:'FSMatthew-Light'; font-size:21.2647;">nts </tspan><tspan x="78.933" y="0" style="fill:#58595B; font-family:'FSMatthew-Light'; font-size:21.2647;">f</tspan><tspan x="86.078" y="0" style="fill:#58595B; font-family:'FSMatthew-Light'; font-size:21.2647;">r</tspan><tspan x="92.436" y="0" style="fill:#58595B; font-family:'FSMatthew-Light'; font-size:21.2647;">o</tspan><tspan x="103.025" y="0" style="fill:#58595B; font-family:'FSMatthew-Light'; font-size:21.2647;">m </tspan><tspan x="125.545" y="0" style="fill:#58595B; font-family:'FSMatthew-Light'; font-size:21.2647;">ov</tspan><tspan x="145.745" y="0" style="fill:#58595B; font-family:'FSMatthew-Light'; font-size:21.2647;">e</tspan><tspan x="155.804" y="0" style="fill:#58595B; font-family:'FSMatthew-Light'; font-size:21.2647;">r</tspan></text>
</g>
<g id="Text_Flat">
	<g>
		<path style="fill:#837199;" d="M156.636,108.966h-6.304v10.459c-0.86,0.143-2.866,0.358-5.087,0.358
			c-2.077,0-3.726-0.144-4.871-0.358v-10.459h-20.919c-0.287-0.931-0.502-2.579-0.502-3.869c0-1.504,0.215-2.865,0.502-3.869
			l14.686-30.232c1.29-0.215,3.439-0.358,5.016-0.358c2.221,0,4.585,0.215,5.659,0.358l-14.687,29.516h10.245v-9.886
			c1.289-0.215,3.295-0.358,4.943-0.358c1.719,0,3.797,0.144,5.015,0.358v9.886h6.304c0.358,1.146,0.502,2.723,0.502,4.227
			S156.922,108.178,156.636,108.966z"/>
		<path style="fill:#837199;" d="M161.576,132.393c-1.146-0.788-2.65-2.292-3.08-3.94c3.009-2.149,5.229-4.729,6.232-7.379
			c-1.361-1.218-2.436-2.938-2.436-5.302c0-2.794,2.436-5.086,5.302-5.086c3.224,0,5.372,2.364,5.372,5.875
			C172.967,122.148,167.737,128.811,161.576,132.393z"/>
		<path style="fill:#837199;" d="M189.802,120.142c-11.462,0-17.05-8.454-17.05-24.931c0-16.621,5.803-24.931,17.265-24.931
			c11.391,0,16.979,8.31,16.979,24.931C206.995,111.688,201.192,120.142,189.802,120.142z M189.873,78.663
			c-4.585,0-6.591,4.227-6.591,16.549c0,12.107,2.006,16.549,6.591,16.549s6.592-4.441,6.592-16.549
			C196.465,82.889,194.458,78.663,189.873,78.663z"/>
		<path style="fill:#837199;" d="M228.413,120.142c-11.462,0-17.05-8.454-17.05-24.931c0-16.621,5.803-24.931,17.265-24.931
			c11.391,0,16.979,8.31,16.979,24.931C245.606,111.688,239.804,120.142,228.413,120.142z M228.484,78.663
			c-4.585,0-6.591,4.227-6.591,16.549c0,12.107,2.006,16.549,6.591,16.549s6.592-4.441,6.592-16.549
			C235.076,82.889,233.069,78.663,228.484,78.663z"/>
		<path style="fill:#837199;" d="M267.024,120.142c-11.462,0-17.05-8.454-17.05-24.931c0-16.621,5.803-24.931,17.265-24.931
			c11.391,0,16.979,8.31,16.979,24.931C284.218,111.688,278.415,120.142,267.024,120.142z M267.096,78.663
			c-4.585,0-6.591,4.227-6.591,16.549c0,12.107,2.006,16.549,6.591,16.549s6.592-4.441,6.592-16.549
			C273.688,82.889,271.681,78.663,267.096,78.663z"/>
	</g>
	<g>
		<path style="fill:#837199;" d="M27.498,199.698c-2.726,0-6.764-0.556-9.54-1.515c-0.102-0.354-0.253-1.262-0.253-2.271
			c0-1.11,0.151-2.271,0.454-3.23c2.322,0.707,5.906,1.161,8.732,1.161c3.584,0,5.906-1.918,5.906-5.351
			c0-1.464-0.404-2.776-1.262-3.634c-1.11-1.11-2.979-1.565-5.704-1.565H19.22v-18.222H38.3c0.151,0.808,0.252,2.069,0.252,2.979
			c0,0.959-0.151,2.625-0.252,3.23H25.681v6.259h2.221c3.938,0,7.066,0.707,9.288,2.625c1.968,1.716,3.079,4.341,3.079,7.975
			C40.269,195.862,34.362,199.698,27.498,199.698z"/>
		<path style="fill:#837199;" d="M56.117,199.698c-8.076,0-12.013-5.956-12.013-17.565c0-11.711,4.088-17.566,12.164-17.566
			c8.026,0,11.963,5.855,11.963,17.566C68.231,193.742,64.144,199.698,56.117,199.698z M56.168,170.473
			c-3.23,0-4.644,2.978-4.644,11.66c0,8.53,1.413,11.659,4.644,11.659s4.644-3.129,4.644-11.659
			C60.812,173.45,59.398,170.473,56.168,170.473z"/>
		<path style="fill:#837199;" d="M102.253,175.722c0,1.11-0.151,2.322-0.505,3.382c-1.666-0.656-3.836-1.06-5.906-1.06
			c-3.937,0-6.612,2.523-6.612,8.177c0,4.947,2.271,7.824,6.663,7.824c2.271,0,4.442-0.404,6.058-0.959
			c0.303,1.11,0.454,2.473,0.454,3.533c0,0.707,0,1.211-0.051,1.666c-2.019,0.908-4.694,1.413-7.218,1.413
			c-8.732,0-13.073-5.099-13.073-13.376c0-8.581,4.543-13.932,13.376-13.932c2.474,0,4.896,0.505,6.612,1.312
			C102.202,174.258,102.253,174.965,102.253,175.722z"/>
		<path style="fill:#837199;" d="M116.537,199.698c-7.622,0-12.468-4.896-12.468-13.578c0-8.632,4.796-13.729,12.468-13.729
			c7.673,0,12.468,5.048,12.468,13.679C129.005,194.701,124.21,199.698,116.537,199.698z M116.537,177.842
			c-3.281,0-5.3,2.221-5.3,8.228s2.019,8.178,5.3,8.178s5.3-2.171,5.3-8.178C121.837,180.013,119.818,177.842,116.537,177.842z"/>
		<path style="fill:#837199;" d="M155.303,189.048c0,7.521-3.533,10.65-11.407,10.65c-7.672,0-11.206-3.13-11.206-10.65v-16.152
			c0.707-0.102,2.07-0.253,3.433-0.253c1.212,0,2.726,0.102,3.533,0.253v16.102c0,3.938,1.161,5.351,4.341,5.351
			c3.23,0,4.342-1.413,4.342-5.351v-16.102c0.706-0.151,2.271-0.253,3.533-0.253s2.927,0.151,3.432,0.253V189.048z"/>
		<path style="fill:#837199;" d="M183.621,199.193c-0.809,0.202-2.524,0.252-3.332,0.252c-0.858,0-2.826-0.101-3.634-0.252v-17.263
			c0-2.726-1.414-3.887-3.686-3.887c-1.816,0-3.886,0.656-5.501,1.666v19.483c-1.161,0.202-2.776,0.252-3.686,0.252
			c-0.808,0-2.271-0.05-3.28-0.252v-26.298c0.656-0.151,2.271-0.253,3.028-0.253c0.707,0,2.17,0.102,2.928,0.253l0.354,2.321
			c2.271-1.665,5.552-2.826,8.479-2.826c5.553,0,8.329,3.433,8.329,9.187V199.193z"/>
		<path style="fill:#837199;" d="M205.477,198.688c-1.515,0.605-3.332,1.01-6.26,1.01c-5.703,0-8.53-2.776-8.53-8.329v-13.274
			h-4.341c-0.202-0.758-0.354-2.02-0.354-2.676c0-0.605,0.151-1.716,0.303-2.221l4.392-0.303v-6.764
			c0.556-0.102,2.322-0.202,3.483-0.202c1.262,0,2.826,0.101,3.482,0.202v6.764h7.269c0.202,0.706,0.303,1.716,0.303,2.271
			c0,0.605-0.051,2.221-0.252,2.928h-7.319v12.266c0,2.523,1.01,3.634,3.482,3.634c1.363,0,3.029-0.202,4.189-0.605
			c0.202,0.656,0.455,1.918,0.455,3.079C205.779,197.073,205.678,198.134,205.477,198.688z"/>
		<path style="fill:#837199;" d="M224.354,178.246c-2.625,0.403-5.451,1.312-7.976,2.624v18.323
			c-0.706,0.151-2.221,0.252-3.432,0.252c-1.212,0-2.979-0.101-3.533-0.252v-26.298c0.757-0.102,2.019-0.253,3.028-0.253
			c0.858,0,2.221,0.102,2.928,0.253l0.403,3.23c1.868-1.666,5.25-3.483,8.53-3.735c0.102,0.403,0.202,1.867,0.202,2.928
			C224.506,176.328,224.455,177.539,224.354,178.246z"/>
		<path style="fill:#837199;" d="M232.128,170.019c-2.12,0-3.836-1.717-3.836-3.837c0-2.119,1.716-3.836,3.836-3.836
			s3.836,1.717,3.836,3.836C235.964,168.302,234.248,170.019,232.128,170.019z M235.61,199.193
			c-0.908,0.202-2.776,0.252-3.583,0.252c-1.212,0-2.524-0.101-3.383-0.252v-26.298c1.111-0.151,2.474-0.253,3.383-0.253
			c1.211,0,2.473,0.102,3.583,0.253V199.193z"/>
		<path style="fill:#837199;" d="M263.069,188.492h-15.951c0.102,3.281,2.373,5.704,6.765,5.704c2.372,0,4.795-0.303,6.864-0.858
			c0.303,1.363,0.505,2.877,0.505,4.24c0,0.202,0,0.454-0.051,1.01c-2.574,0.757-5.249,1.11-7.874,1.11
			c-9.591,0-13.578-5.502-13.578-13.527c0-7.017,3.938-13.78,12.468-13.78c8.076,0,11.004,5.956,11.004,12.518
			C263.221,185.817,263.221,187.18,263.069,188.492z M256.255,183.495c0-3.18-0.858-5.855-4.14-5.855
			c-3.129,0-4.795,2.474-4.997,5.855H256.255z"/>
		<path style="fill:#837199;" d="M274.779,199.698c-2.979,0-6.108-0.454-8.531-1.262c-0.151-0.758-0.201-1.717-0.201-2.726
			c0-0.808,0.201-1.969,0.403-2.676c2.322,0.808,5.653,1.363,7.622,1.363c2.726,0,4.29-0.909,4.29-2.776
			c0-1.615-1.262-2.372-4.593-3.433c-5.3-1.666-7.773-4.139-7.773-7.975c0-5.704,5.249-7.824,10.246-7.824
			c2.322,0,4.896,0.403,6.663,0.959c0.202,0.757,0.303,1.817,0.303,2.423c0,0.656-0.201,2.019-0.454,2.877
			c-1.716-0.505-4.089-0.908-6.057-0.908c-2.423,0-4.089,0.605-4.089,2.12c0,1.615,1.867,2.271,4.795,3.23
			c5.099,1.665,7.521,3.785,7.521,7.773C284.925,197.022,279.978,199.698,274.779,199.698z"/>
	</g>
	<g>
		<path style="fill:#58595B;" d="M29.997,57.725c-0.191,0.064-0.469,0.106-0.702,0.106c-0.234,0-0.553-0.064-0.744-0.106
			l-0.319-12.273c-0.276,0.83-0.937,2.468-1.383,3.552l-2.978,7.36c-0.149,0.021-0.426,0.064-0.554,0.064
			c-0.127,0-0.403-0.042-0.553-0.064l-3.062-7.402c-0.575-1.382-1.043-2.531-1.298-3.339l-0.298,12.103
			c-0.213,0.064-0.553,0.106-0.766,0.106c-0.191,0-0.532-0.042-0.681-0.106l0.511-14.379c0.17-0.064,0.659-0.106,0.808-0.106
			c0.234,0,0.596,0.042,0.787,0.106l4.573,11.167l4.445-11.167c0.234-0.064,0.724-0.106,0.872-0.106c0.191,0,0.66,0.042,0.872,0.106
			L29.997,57.725z"/>
		<path style="fill:#58595B;" d="M36.99,57.938c-2.787,0-4.573-1.915-4.573-5.743c0-3.829,1.808-5.765,4.594-5.765
			c2.787,0,4.553,1.893,4.553,5.722C41.563,55.98,39.776,57.938,36.99,57.938z M37.011,47.472c-2.042,0-3.147,1.574-3.147,4.701
			s1.085,4.722,3.127,4.722s3.127-1.595,3.127-4.722S39.053,47.472,37.011,47.472z"/>
		<path style="fill:#58595B;" d="M48.792,47.664c-1.233,0.17-2.574,0.617-3.573,1.382v8.679c-0.213,0.064-0.469,0.106-0.702,0.106
			c-0.234,0-0.468-0.042-0.681-0.106V46.643c0.128-0.042,0.319-0.085,0.531-0.085c0.171,0,0.404,0.042,0.574,0.085l0.106,1.361
			h0.021c0.915-0.787,2.51-1.446,3.723-1.574c0.042,0.128,0.085,0.362,0.085,0.553C48.877,47.196,48.834,47.472,48.792,47.664z"/>
		<path style="fill:#58595B;" d="M58.298,52.556h-7.125c0.085,2.446,1.233,4.297,3.893,4.297c0.957,0,1.851-0.127,2.638-0.319
			c0.042,0.106,0.085,0.319,0.085,0.447c0,0.213-0.043,0.404-0.106,0.553c-0.83,0.255-1.872,0.404-2.744,0.404
			c-1.681,0-2.957-0.532-3.743-1.383c-0.937-1.021-1.426-2.552-1.426-4.318c0-3.084,1.553-5.807,4.658-5.807
			c2.787,0,3.893,2.297,3.893,5.105C58.319,51.854,58.319,52.237,58.298,52.556z M56.937,51.535c0-1.957-0.212-4.062-2.573-4.062
			c-2.063,0-3.063,1.893-3.19,4.062H56.937z"/>
		<path style="fill:#58595B;" d="M71.205,57.618c-0.554,0.191-1.383,0.319-2,0.319c-2.105,0-3.105-1-3.105-3.361v-6.849h-1.914
			c-0.043-0.106-0.063-0.362-0.063-0.489c0-0.106,0.021-0.362,0.063-0.468l1.914-0.127V43.75c0.171-0.063,0.447-0.106,0.681-0.106
			c0.234,0,0.532,0.042,0.702,0.106v2.893h3.127c0.042,0.106,0.085,0.425,0.085,0.532c0,0.149-0.043,0.404-0.085,0.553h-3.127v6.721
			c0,1.681,0.489,2.382,1.808,2.382c0.724,0,1.426-0.106,1.915-0.255c0.042,0.106,0.085,0.361,0.085,0.51
			C71.29,57.278,71.269,57.427,71.205,57.618z"/>
		<path style="fill:#58595B;" d="M81.773,57.725c-0.191,0.064-0.425,0.106-0.638,0.106c-0.255,0-0.532-0.042-0.744-0.106v-6.722
			c0-2.34-0.596-3.403-2.574-3.403c-1.063,0-2.34,0.596-3.169,1.234v8.891c-0.234,0.064-0.489,0.106-0.724,0.106
			c-0.213,0-0.468-0.042-0.659-0.106V42.197c0.191-0.063,0.489-0.106,0.681-0.106s0.511,0.042,0.702,0.106v5.467
			c1.127-0.872,2.467-1.234,3.51-1.234c1.084,0,2.19,0.362,2.808,1.106c0.681,0.808,0.808,1.978,0.808,3.126V57.725z"/>
		<path style="fill:#58595B;" d="M92.172,55.002c0,0.766,0,1.723,0.043,2.723c-0.149,0.064-0.384,0.106-0.575,0.106
			c-0.17,0-0.403-0.042-0.574-0.106c-0.063-0.34-0.106-0.787-0.127-1.191h-0.021c-0.724,0.894-2,1.404-3.255,1.404
			c-1.978,0-3.637-1.106-3.637-3.382c0-1.297,0.531-2.254,1.361-2.85c0.936-0.66,2.169-0.872,3.488-0.872
			c0.744,0,1.361,0.042,1.914,0.127v-0.617c0-2.127-0.872-2.829-2.658-2.829c-1,0-2.233,0.213-3,0.404
			c-0.042-0.106-0.085-0.34-0.085-0.553c0-0.149,0.043-0.362,0.106-0.489c0.915-0.276,2.127-0.447,3.148-0.447
			c2.531,0,3.871,1.149,3.871,3.744V55.002z M90.789,52.003c-0.616-0.085-1.255-0.128-1.808-0.128c-1.042,0-1.979,0.191-2.616,0.681
			c-0.574,0.426-0.894,1.106-0.894,1.979c0,1.553,1,2.297,2.382,2.297c1.149,0,2.361-0.553,2.936-1.425V52.003z"/>
		<path style="fill:#58595B;" d="M103.612,57.746c-0.17,0.042-0.426,0.085-0.681,0.085c-0.213,0-0.489-0.042-0.702-0.106v-6.743
			c0-1.021-0.128-1.808-0.426-2.361c-0.361-0.681-1.042-1.021-2.147-1.021c-1.064,0-2.34,0.596-3.17,1.234v8.891
			c-0.233,0.064-0.468,0.106-0.723,0.106c-0.213,0-0.469-0.042-0.66-0.106V46.643c0.149-0.064,0.404-0.085,0.554-0.085
			c0.212,0,0.468,0.021,0.596,0.085l0.105,1.106h0.021c1.17-0.957,2.51-1.319,3.595-1.319s2.213,0.362,2.829,1.106
			c0.681,0.808,0.809,1.978,0.809,3.126V57.746z"/>
	</g>
	<g>
		<path style="fill:#58595B;" d="M27.892,226.29c-0.191,0.063-0.426,0.106-0.639,0.106c-0.255,0-0.531-0.043-0.744-0.106v-6.722
			c0-2.34-0.596-3.403-2.573-3.403c-1.064,0-2.34,0.596-3.17,1.233v8.892c-0.233,0.063-0.489,0.106-0.723,0.106
			c-0.213,0-0.469-0.043-0.66-0.106v-15.527c0.191-0.064,0.489-0.106,0.681-0.106s0.511,0.042,0.702,0.106v5.466
			c1.128-0.872,2.468-1.233,3.51-1.233c1.085,0,2.191,0.361,2.808,1.106c0.681,0.808,0.809,1.978,0.809,3.127V226.29z"/>
		<path style="fill:#58595B;" d="M38.289,223.567c0,0.766,0,1.723,0.043,2.723c-0.148,0.063-0.383,0.106-0.574,0.106
			c-0.17,0-0.404-0.043-0.574-0.106c-0.063-0.341-0.106-0.787-0.128-1.191h-0.021c-0.723,0.894-1.999,1.404-3.254,1.404
			c-1.979,0-3.638-1.106-3.638-3.382c0-1.298,0.532-2.255,1.361-2.851c0.937-0.659,2.17-0.872,3.488-0.872
			c0.745,0,1.361,0.042,1.915,0.128v-0.617c0-2.127-0.872-2.829-2.659-2.829c-1,0-2.233,0.213-2.999,0.404
			c-0.043-0.106-0.085-0.341-0.085-0.553c0-0.149,0.042-0.362,0.106-0.489c0.914-0.277,2.127-0.447,3.147-0.447
			c2.531,0,3.871,1.148,3.871,3.744V223.567z M36.907,220.568c-0.617-0.085-1.255-0.128-1.809-0.128
			c-1.042,0-1.978,0.191-2.616,0.681c-0.574,0.426-0.894,1.106-0.894,1.979c0,1.553,1,2.297,2.383,2.297
			c1.148,0,2.361-0.553,2.936-1.425V220.568z"/>
		<path style="fill:#58595B;" d="M48.539,217.909l-3.34,8.381c-0.191,0.063-0.404,0.106-0.574,0.106
			c-0.234,0-0.426-0.043-0.596-0.106l-3.446-8.381c-0.383-0.957-0.553-1.914-0.553-2.701c0.17-0.043,0.468-0.106,0.659-0.106
			c0.256,0,0.511,0.043,0.724,0.106c0.021,0.724,0.106,1.553,0.426,2.318l2.765,7.02h0.043l2.68-7.02
			c0.298-0.744,0.447-1.574,0.447-2.318c0.148-0.063,0.468-0.106,0.744-0.106c0.148,0,0.425,0.021,0.617,0.085
			C49.113,215.952,48.964,216.867,48.539,217.909z"/>
		<path style="fill:#58595B;" d="M58.852,221.121h-7.125c0.085,2.446,1.233,4.297,3.893,4.297c0.957,0,1.851-0.128,2.638-0.319
			c0.042,0.106,0.085,0.319,0.085,0.447c0,0.212-0.043,0.403-0.106,0.553c-0.83,0.255-1.872,0.404-2.744,0.404
			c-1.681,0-2.957-0.532-3.743-1.383c-0.937-1.021-1.426-2.553-1.426-4.318c0-3.084,1.553-5.807,4.658-5.807
			c2.787,0,3.893,2.298,3.893,5.105C58.873,220.419,58.873,220.802,58.852,221.121z M57.49,220.101c0-1.957-0.212-4.063-2.573-4.063
			c-2.063,0-3.063,1.894-3.19,4.063H57.49z"/>
		<path style="fill:#58595B;" d="M68.334,226.503c-1.063,0-2.17-0.191-2.936-0.489c-0.063-0.149-0.106-0.404-0.106-0.596
			c0-0.128,0.043-0.446,0.085-0.574c0.787,0.319,1.915,0.574,2.851,0.574c1.616,0,2.616-0.681,2.616-2.021
			c0-1.213-0.616-1.638-2.297-2.255c-2.34-0.851-3.105-1.829-3.105-3.275c0-1.957,1.616-2.872,3.701-2.872
			c0.701,0,1.616,0.128,2.148,0.298c0.063,0.191,0.085,0.383,0.085,0.511c0,0.17-0.043,0.468-0.085,0.616
			c-0.702-0.212-1.447-0.34-2.17-0.34c-1.511,0-2.425,0.574-2.425,1.744c0,1.021,0.574,1.511,2.318,2.17
			c1.596,0.596,3.062,1.191,3.062,3.339C72.077,225.503,70.439,226.503,68.334,226.503z"/>
		<path style="fill:#58595B;" d="M82.498,222.078c0,3.233-1.34,4.425-4.147,4.425c-2.872,0-4.084-1.191-4.084-4.318v-6.977
			c0.191-0.063,0.446-0.106,0.681-0.106c0.297,0,0.531,0.063,0.701,0.106v6.807c0,2.063,0.319,3.425,2.723,3.425
			c2.255,0,2.744-1.319,2.744-3.468v-6.764c0.17-0.063,0.468-0.106,0.702-0.106c0.233,0,0.489,0.043,0.681,0.106V222.078z"/>
		<path style="fill:#58595B;" d="M92.301,216.548c-0.681-0.276-1.574-0.446-2.361-0.446c-2.766,0-3.786,2.148-3.786,4.743
			c0,2.553,0.979,4.53,3.765,4.53c0.744,0,1.638-0.127,2.297-0.318c0.043,0.127,0.086,0.276,0.086,0.446
			c0,0.255-0.043,0.446-0.106,0.596c-0.617,0.255-1.617,0.404-2.404,0.404c-3.467,0-5.083-2.276-5.083-5.615
			c0-3.468,1.766-5.893,5.147-5.893c0.808,0,1.766,0.191,2.425,0.489c0.063,0.17,0.085,0.341,0.085,0.532
			C92.364,216.229,92.343,216.399,92.301,216.548z"/>
		<path style="fill:#58595B;" d="M101.551,216.548c-0.681-0.276-1.574-0.446-2.361-0.446c-2.766,0-3.786,2.148-3.786,4.743
			c0,2.553,0.979,4.53,3.765,4.53c0.744,0,1.638-0.127,2.297-0.318c0.043,0.127,0.086,0.276,0.086,0.446
			c0,0.255-0.043,0.446-0.106,0.596c-0.617,0.255-1.617,0.404-2.404,0.404c-3.467,0-5.083-2.276-5.083-5.615
			c0-3.468,1.766-5.893,5.147-5.893c0.808,0,1.766,0.191,2.425,0.489c0.063,0.17,0.085,0.341,0.085,0.532
			C101.614,216.229,101.593,216.399,101.551,216.548z"/>
		<path style="fill:#58595B;" d="M111.736,221.121h-7.126c0.085,2.446,1.234,4.297,3.893,4.297c0.957,0,1.851-0.128,2.638-0.319
			c0.043,0.106,0.085,0.319,0.085,0.447c0,0.212-0.042,0.403-0.106,0.553c-0.829,0.255-1.871,0.404-2.743,0.404
			c-1.681,0-2.957-0.532-3.744-1.383c-0.936-1.021-1.425-2.553-1.425-4.318c0-3.084,1.553-5.807,4.658-5.807
			c2.786,0,3.893,2.298,3.893,5.105C111.758,220.419,111.758,220.802,111.736,221.121z M110.375,220.101
			c0-1.957-0.213-4.063-2.574-4.063c-2.062,0-3.062,1.894-3.19,4.063H110.375z"/>
		<path style="fill:#58595B;" d="M116.54,226.503c-1.063,0-2.169-0.191-2.935-0.489c-0.064-0.149-0.106-0.404-0.106-0.596
			c0-0.128,0.042-0.446,0.085-0.574c0.787,0.319,1.914,0.574,2.851,0.574c1.616,0,2.616-0.681,2.616-2.021
			c0-1.213-0.617-1.638-2.298-2.255c-2.34-0.851-3.105-1.829-3.105-3.275c0-1.957,1.617-2.872,3.701-2.872
			c0.702,0,1.617,0.128,2.148,0.298c0.063,0.191,0.085,0.383,0.085,0.511c0,0.17-0.042,0.468-0.085,0.616
			c-0.702-0.212-1.446-0.34-2.17-0.34c-1.51,0-2.425,0.574-2.425,1.744c0,1.021,0.574,1.511,2.318,2.17
			c1.596,0.596,3.063,1.191,3.063,3.339C120.284,225.503,118.646,226.503,116.54,226.503z"/>
		<path style="fill:#58595B;" d="M125.004,226.503c-1.063,0-2.17-0.191-2.936-0.489c-0.063-0.149-0.106-0.404-0.106-0.596
			c0-0.128,0.043-0.446,0.085-0.574c0.787,0.319,1.915,0.574,2.851,0.574c1.616,0,2.616-0.681,2.616-2.021
			c0-1.213-0.616-1.638-2.297-2.255c-2.34-0.851-3.105-1.829-3.105-3.275c0-1.957,1.616-2.872,3.701-2.872
			c0.701,0,1.616,0.128,2.148,0.298c0.063,0.191,0.085,0.383,0.085,0.511c0,0.17-0.043,0.468-0.085,0.616
			c-0.702-0.212-1.447-0.34-2.17-0.34c-1.511,0-2.425,0.574-2.425,1.744c0,1.021,0.574,1.511,2.318,2.17
			c1.596,0.596,3.062,1.191,3.062,3.339C128.747,225.503,127.109,226.503,125.004,226.503z"/>
		<path style="fill:#58595B;" d="M137.274,211.677c-0.319-0.085-0.894-0.17-1.34-0.17c-0.809,0-1.404,0.213-1.809,0.659
			c-0.616,0.659-0.723,1.553-0.723,2.681v0.361h2.999c0.042,0.106,0.085,0.361,0.085,0.511c0,0.17-0.043,0.425-0.085,0.574h-2.999
			v9.997c-0.191,0.063-0.404,0.106-0.681,0.106c-0.277,0-0.511-0.043-0.702-0.106v-9.997h-1.914
			c-0.043-0.106-0.064-0.383-0.064-0.511c0-0.106,0.021-0.34,0.064-0.446l1.914-0.128v-0.361c0-1.511,0.255-2.553,1.127-3.425
			c0.617-0.617,1.532-0.915,2.574-0.915c0.553,0,1.17,0.128,1.553,0.276c0.042,0.106,0.063,0.256,0.063,0.404
			C137.338,211.315,137.316,211.57,137.274,211.677z"/>
		<path style="fill:#58595B;" d="M146.695,222.078c0,3.233-1.34,4.425-4.147,4.425c-2.872,0-4.084-1.191-4.084-4.318v-6.977
			c0.191-0.063,0.446-0.106,0.681-0.106c0.297,0,0.531,0.063,0.701,0.106v6.807c0,2.063,0.319,3.425,2.723,3.425
			c2.255,0,2.744-1.319,2.744-3.468v-6.764c0.17-0.063,0.468-0.106,0.702-0.106c0.233,0,0.489,0.043,0.681,0.106V222.078z"/>
		<path style="fill:#58595B;" d="M150.946,226.29c-0.234,0.063-0.468,0.106-0.724,0.106c-0.213,0-0.468-0.043-0.659-0.106v-15.527
			c0.191-0.043,0.426-0.106,0.702-0.106c0.233,0,0.489,0.042,0.681,0.106V226.29z"/>
		<path style="fill:#58595B;" d="M155.305,226.29c-0.233,0.063-0.468,0.106-0.723,0.106c-0.213,0-0.468-0.043-0.659-0.106v-15.527
			c0.191-0.043,0.425-0.106,0.701-0.106c0.234,0,0.489,0.042,0.681,0.106V226.29z"/>
		<path style="fill:#58595B;" d="M166.491,224.439c0,2.063-0.085,3.531-0.829,4.85c-0.851,1.511-2.531,2.233-4.042,2.233
			c-1.105,0-1.871-0.106-2.552-0.34c-0.064-0.128-0.086-0.341-0.086-0.511c0-0.128,0.043-0.404,0.086-0.532
			c0.638,0.191,1.403,0.341,2.425,0.341c2.34,0,3.615-1.681,3.615-4.595v-0.744c-1.084,0.957-2.297,1.361-3.403,1.361
			c-1.19,0-2.127-0.298-2.723-1.021c-0.659-0.787-0.744-1.936-0.744-3.084v-7.189c0.17-0.043,0.447-0.106,0.659-0.106
			c0.256,0,0.532,0.063,0.724,0.106v6.955c0,1.021,0.085,1.872,0.468,2.446c0.341,0.489,0.894,0.745,1.723,0.745
			c1.319,0,2.574-0.702,3.297-1.404v-8.742c0.192-0.043,0.469-0.106,0.724-0.106c0.213,0,0.489,0.063,0.659,0.106V224.439z"/>
		<path style="fill:#58595B;" d="M181.035,216.548c-0.681-0.276-1.573-0.446-2.36-0.446c-2.766,0-3.786,2.148-3.786,4.743
			c0,2.553,0.979,4.53,3.765,4.53c0.744,0,1.638-0.127,2.297-0.318c0.043,0.127,0.085,0.276,0.085,0.446
			c0,0.255-0.042,0.446-0.106,0.596c-0.616,0.255-1.616,0.404-2.403,0.404c-3.467,0-5.084-2.276-5.084-5.615
			c0-3.468,1.766-5.893,5.148-5.893c0.808,0,1.765,0.191,2.425,0.489c0.063,0.17,0.085,0.341,0.085,0.532
			C181.1,216.229,181.078,216.399,181.035,216.548z"/>
		<path style="fill:#58595B;" d="M187.265,226.503c-2.786,0-4.573-1.915-4.573-5.743c0-3.829,1.809-5.765,4.595-5.765
			c2.787,0,4.552,1.894,4.552,5.722C191.838,224.546,190.052,226.503,187.265,226.503z M187.286,216.037
			c-2.042,0-3.147,1.574-3.147,4.701s1.084,4.723,3.126,4.723s3.127-1.596,3.127-4.723S189.328,216.037,187.286,216.037z"/>
		<path style="fill:#58595B;" d="M209.512,226.312c-0.213,0.042-0.426,0.085-0.639,0.085c-0.255,0-0.489-0.063-0.744-0.106v-6.722
			c0-2.34-0.596-3.403-2.574-3.403c-1.021,0-2.382,0.532-3.232,1.148c0.17,0.596,0.213,1.255,0.213,1.915v7.062
			c-0.213,0.063-0.426,0.106-0.639,0.106c-0.276,0-0.531-0.043-0.744-0.106v-6.722c0-2.34-0.532-3.403-2.51-3.403
			c-1.064,0-2.319,0.596-3.148,1.233v8.892c-0.234,0.063-0.511,0.106-0.766,0.106c-0.213,0-0.447-0.043-0.617-0.106v-11.082
			c0.106-0.043,0.341-0.085,0.574-0.085c0.191,0,0.426,0.042,0.574,0.085l0.106,1.106h0.021c1.17-0.958,2.51-1.319,3.595-1.319
			s2.127,0.361,2.744,1.106c0.085,0.085,0.148,0.191,0.213,0.298c1.127-0.915,2.573-1.404,3.956-1.404
			c1.085,0,2.19,0.361,2.808,1.106c0.681,0.808,0.809,1.978,0.809,3.127V226.312z"/>
		<path style="fill:#58595B;" d="M219.354,225.142c-0.83,0.744-2.127,1.148-3.36,1.148c-0.873,0-1.681-0.148-2.276-0.361v5.36
			c-0.213,0.063-0.404,0.105-0.702,0.105c-0.233,0-0.511-0.042-0.681-0.105v-16.081c0.106-0.043,0.361-0.085,0.574-0.085
			s0.404,0.042,0.554,0.085l0.127,1.17h0.021c0.809-0.851,2.021-1.383,3.255-1.383c1.34,0,2.53,0.574,3.275,1.638
			c0.616,0.894,1,2.17,1,3.723C221.142,222.482,220.481,224.12,219.354,225.142z M216.717,216.123c-1.127,0-2.255,0.468-2.999,1.403
			v7.317c0.553,0.255,1.403,0.404,2.127,0.404c2.297,0,3.85-1.511,3.85-4.829C219.694,217.803,218.674,216.123,216.717,216.123z"/>
		<path style="fill:#58595B;" d="M224.839,226.29c-0.233,0.063-0.468,0.106-0.723,0.106c-0.213,0-0.468-0.043-0.659-0.106v-15.527
			c0.191-0.043,0.425-0.106,0.701-0.106c0.234,0,0.489,0.042,0.681,0.106V226.29z"/>
		<path style="fill:#58595B;" d="M235.686,221.121h-7.126c0.085,2.446,1.233,4.297,3.893,4.297c0.957,0,1.851-0.128,2.638-0.319
			c0.042,0.106,0.085,0.319,0.085,0.447c0,0.212-0.043,0.403-0.106,0.553c-0.829,0.255-1.872,0.404-2.744,0.404
			c-1.68,0-2.956-0.532-3.743-1.383c-0.937-1.021-1.426-2.553-1.426-4.318c0-3.084,1.554-5.807,4.659-5.807
			c2.786,0,3.893,2.298,3.893,5.105C235.707,220.419,235.707,220.802,235.686,221.121z M234.324,220.101
			c0-1.957-0.213-4.063-2.574-4.063c-2.063,0-3.062,1.894-3.19,4.063H234.324z"/>
		<path style="fill:#58595B;" d="M243.915,226.184c-0.554,0.191-1.383,0.319-2,0.319c-2.105,0-3.105-1-3.105-3.361v-6.849h-1.914
			c-0.043-0.106-0.064-0.361-0.064-0.489c0-0.106,0.021-0.361,0.064-0.468l1.914-0.128v-2.893c0.17-0.064,0.446-0.106,0.681-0.106
			s0.532,0.042,0.702,0.106v2.893h3.127c0.042,0.106,0.085,0.426,0.085,0.532c0,0.148-0.043,0.403-0.085,0.553h-3.127v6.722
			c0,1.68,0.489,2.382,1.808,2.382c0.724,0,1.426-0.106,1.915-0.255c0.042,0.106,0.085,0.361,0.085,0.511
			C244,225.844,243.979,225.992,243.915,226.184z"/>
		<path style="fill:#58595B;" d="M253.356,221.121h-7.126c0.085,2.446,1.233,4.297,3.893,4.297c0.957,0,1.851-0.128,2.638-0.319
			c0.042,0.106,0.085,0.319,0.085,0.447c0,0.212-0.043,0.403-0.106,0.553c-0.829,0.255-1.872,0.404-2.744,0.404
			c-1.68,0-2.956-0.532-3.743-1.383c-0.937-1.021-1.426-2.553-1.426-4.318c0-3.084,1.553-5.807,4.659-5.807
			c2.786,0,3.893,2.298,3.893,5.105C253.378,220.419,253.378,220.802,253.356,221.121z M251.995,220.101
			c0-1.957-0.213-4.063-2.574-4.063c-2.063,0-3.062,1.894-3.19,4.063H251.995z"/>
		<path style="fill:#58595B;" d="M263.329,226.396c-0.191,0-0.426-0.063-0.554-0.106l-0.127-1.276h-0.021
			c-0.915,0.957-2,1.489-3.212,1.489c-2.936,0-4.34-2.446-4.34-5.424c0-2.957,1.256-6.084,4.638-6.084
			c1.063,0,2.042,0.361,2.829,0.915v-5.147c0.191-0.064,0.446-0.106,0.681-0.106c0.255,0,0.51,0.063,0.701,0.106v15.527
			C263.775,226.354,263.562,226.396,263.329,226.396z M262.542,217.08c-0.766-0.639-1.744-0.957-2.744-0.957
			c-2.468,0-3.297,2.425-3.297,4.892c0,1.894,0.596,4.36,2.978,4.36c1.148,0,2.318-0.574,3.063-1.467V217.08z"/>
	</g>
	<g>
		<path style="fill:#58595B;" d="M23.34,251.043c-2.787,0-4.573-1.914-4.573-5.743s1.808-5.765,4.594-5.765
			c2.787,0,4.553,1.894,4.553,5.722C27.913,249.086,26.126,251.043,23.34,251.043z M23.36,240.577c-2.042,0-3.147,1.574-3.147,4.701
			s1.085,4.723,3.127,4.723s3.127-1.596,3.127-4.723S25.402,240.577,23.36,240.577z"/>
		<path style="fill:#58595B;" d="M38.354,246.618c0,3.233-1.34,4.425-4.147,4.425c-2.872,0-4.084-1.191-4.084-4.318v-6.977
			c0.191-0.063,0.446-0.106,0.681-0.106c0.297,0,0.531,0.063,0.701,0.106v6.807c0,2.063,0.319,3.425,2.723,3.425
			c2.255,0,2.744-1.319,2.744-3.468v-6.764c0.17-0.063,0.468-0.106,0.702-0.106c0.233,0,0.489,0.043,0.681,0.106V246.618z"/>
		<path style="fill:#58595B;" d="M46.135,240.769c-1.233,0.171-2.573,0.617-3.573,1.383v8.679c-0.213,0.063-0.468,0.106-0.702,0.106
			c-0.233,0-0.468-0.043-0.681-0.106v-11.082c0.128-0.043,0.319-0.085,0.532-0.085c0.17,0,0.404,0.042,0.574,0.085l0.106,1.361
			h0.021c0.914-0.787,2.51-1.446,3.722-1.574c0.043,0.128,0.086,0.361,0.086,0.553C46.221,240.301,46.178,240.577,46.135,240.769z"
			/>
		<path style="fill:#58595B;" d="M60.596,250.937c-0.191,0-0.425-0.063-0.553-0.106l-0.128-1.276h-0.021
			c-0.915,0.957-2,1.489-3.212,1.489c-2.936,0-4.34-2.446-4.34-5.424c0-2.957,1.255-6.084,4.638-6.084
			c1.063,0,2.042,0.361,2.828,0.915v-5.147c0.191-0.064,0.447-0.106,0.681-0.106c0.256,0,0.511,0.063,0.702,0.106v15.527
			C61.043,250.894,60.83,250.937,60.596,250.937z M59.809,241.62c-0.766-0.639-1.744-0.957-2.743-0.957
			c-2.468,0-3.297,2.425-3.297,4.892c0,1.894,0.595,4.36,2.978,4.36c1.148,0,2.318-0.574,3.062-1.468V241.62z"/>
		<path style="fill:#58595B;" d="M65.463,237.578c-0.488,0-0.893-0.425-0.893-0.936s0.404-0.915,0.893-0.915
			c0.489,0,0.915,0.404,0.915,0.915S65.952,237.578,65.463,237.578z M66.165,250.83c-0.191,0.063-0.468,0.106-0.702,0.106
			c-0.233,0-0.488-0.043-0.681-0.106v-11.082c0.171-0.043,0.447-0.106,0.66-0.106c0.233,0,0.553,0.043,0.723,0.106V250.83z"/>
		<path style="fill:#58595B;" d="M71.609,251.043c-1.063,0-2.17-0.191-2.936-0.489c-0.063-0.149-0.106-0.404-0.106-0.596
			c0-0.128,0.043-0.446,0.085-0.574c0.787,0.319,1.915,0.574,2.851,0.574c1.616,0,2.616-0.681,2.616-2.021
			c0-1.213-0.616-1.638-2.297-2.255c-2.34-0.851-3.105-1.829-3.105-3.275c0-1.957,1.616-2.872,3.701-2.872
			c0.701,0,1.616,0.128,2.148,0.298c0.063,0.191,0.085,0.383,0.085,0.511c0,0.17-0.043,0.468-0.085,0.617
			c-0.702-0.213-1.447-0.341-2.17-0.341c-1.511,0-2.425,0.574-2.425,1.744c0,1.021,0.574,1.511,2.318,2.17
			c1.596,0.596,3.062,1.19,3.062,3.339C75.353,250.043,73.715,251.043,71.609,251.043z"/>
		<path style="fill:#58595B;" d="M83.306,250.724c-0.553,0.191-1.383,0.319-1.999,0.319c-2.106,0-3.105-1-3.105-3.361v-6.849h-1.915
			c-0.042-0.106-0.063-0.361-0.063-0.489c0-0.106,0.021-0.361,0.063-0.468l1.915-0.128v-2.893c0.17-0.064,0.446-0.106,0.681-0.106
			c0.233,0,0.531,0.042,0.702,0.106v2.893h3.126c0.043,0.106,0.086,0.426,0.086,0.531c0,0.149-0.043,0.404-0.086,0.554h-3.126v6.722
			c0,1.68,0.489,2.382,1.808,2.382c0.724,0,1.425-0.106,1.914-0.255c0.043,0.106,0.085,0.361,0.085,0.511
			C83.391,250.384,83.37,250.532,83.306,250.724z"/>
		<path style="fill:#58595B;" d="M92.747,248.107c0,0.766,0,1.723,0.043,2.723c-0.148,0.063-0.383,0.106-0.574,0.106
			c-0.17,0-0.404-0.043-0.574-0.106c-0.063-0.34-0.106-0.787-0.128-1.191h-0.021c-0.723,0.894-1.999,1.404-3.254,1.404
			c-1.979,0-3.638-1.106-3.638-3.382c0-1.298,0.532-2.255,1.361-2.851c0.937-0.659,2.17-0.872,3.488-0.872
			c0.745,0,1.361,0.042,1.915,0.128v-0.617c0-2.127-0.872-2.829-2.659-2.829c-1,0-2.233,0.213-2.999,0.404
			c-0.043-0.106-0.085-0.341-0.085-0.553c0-0.149,0.042-0.362,0.106-0.489c0.914-0.277,2.127-0.447,3.147-0.447
			c2.531,0,3.871,1.148,3.871,3.744V248.107z M91.365,245.108c-0.617-0.085-1.255-0.128-1.809-0.128
			c-1.042,0-1.978,0.191-2.616,0.681c-0.574,0.426-0.894,1.106-0.894,1.979c0,1.553,1,2.297,2.383,2.297
			c1.148,0,2.361-0.553,2.936-1.425V245.108z"/>
		<path style="fill:#58595B;" d="M104.188,250.852c-0.17,0.042-0.425,0.085-0.681,0.085c-0.212,0-0.489-0.043-0.701-0.106v-6.743
			c0-1.021-0.128-1.808-0.426-2.36c-0.361-0.681-1.042-1.021-2.148-1.021c-1.063,0-2.34,0.596-3.169,1.233v8.892
			c-0.234,0.063-0.469,0.106-0.724,0.106c-0.213,0-0.468-0.043-0.659-0.106v-11.082c0.148-0.063,0.404-0.085,0.553-0.085
			c0.213,0,0.468,0.021,0.596,0.085l0.106,1.106h0.021c1.17-0.958,2.51-1.319,3.595-1.319s2.212,0.361,2.829,1.106
			c0.681,0.808,0.808,1.978,0.808,3.127V250.852z"/>
		<path style="fill:#58595B;" d="M113.99,241.088c-0.681-0.276-1.574-0.446-2.361-0.446c-2.765,0-3.786,2.148-3.786,4.743
			c0,2.553,0.979,4.53,3.766,4.53c0.744,0,1.638-0.127,2.297-0.318c0.043,0.127,0.085,0.276,0.085,0.446
			c0,0.255-0.042,0.447-0.106,0.596c-0.616,0.255-1.616,0.404-2.403,0.404c-3.467,0-5.084-2.276-5.084-5.615
			c0-3.468,1.766-5.893,5.147-5.893c0.809,0,1.766,0.191,2.425,0.489c0.064,0.17,0.085,0.341,0.085,0.532
			C114.054,240.769,114.033,240.939,113.99,241.088z"/>
		<path style="fill:#58595B;" d="M124.176,245.661h-7.125c0.085,2.446,1.233,4.297,3.893,4.297c0.957,0,1.851-0.128,2.638-0.319
			c0.042,0.106,0.085,0.319,0.085,0.447c0,0.212-0.043,0.404-0.106,0.553c-0.83,0.255-1.872,0.404-2.744,0.404
			c-1.681,0-2.957-0.532-3.743-1.383c-0.937-1.021-1.426-2.553-1.426-4.318c0-3.084,1.553-5.807,4.658-5.807
			c2.787,0,3.893,2.298,3.893,5.105C124.197,244.959,124.197,245.342,124.176,245.661z M122.814,244.641
			c0-1.957-0.212-4.063-2.573-4.063c-2.063,0-3.063,1.894-3.19,4.063H122.814z"/>
		<path style="fill:#58595B;" d="M132.616,250.83c-0.234,0.063-0.468,0.106-0.724,0.106c-0.213,0-0.468-0.043-0.659-0.106v-15.527
			c0.191-0.043,0.426-0.106,0.702-0.106c0.233,0,0.489,0.042,0.681,0.106V250.83z"/>
		<path style="fill:#58595B;" d="M143.462,245.661h-7.125c0.085,2.446,1.233,4.297,3.893,4.297c0.957,0,1.851-0.128,2.638-0.319
			c0.042,0.106,0.085,0.319,0.085,0.447c0,0.212-0.043,0.404-0.106,0.553c-0.83,0.255-1.872,0.404-2.744,0.404
			c-1.681,0-2.957-0.532-3.743-1.383c-0.937-1.021-1.426-2.553-1.426-4.318c0-3.084,1.553-5.807,4.658-5.807
			c2.787,0,3.893,2.298,3.893,5.105C143.483,244.959,143.483,245.342,143.462,245.661z M142.101,244.641
			c0-1.957-0.212-4.063-2.573-4.063c-2.063,0-3.063,1.894-3.19,4.063H142.101z"/>
		<path style="fill:#58595B;" d="M153.371,248.107c0,0.766,0,1.723,0.043,2.723c-0.149,0.063-0.383,0.106-0.574,0.106
			c-0.171,0-0.404-0.043-0.574-0.106c-0.064-0.34-0.106-0.787-0.128-1.191h-0.021c-0.723,0.894-1.999,1.404-3.254,1.404
			c-1.979,0-3.638-1.106-3.638-3.382c0-1.298,0.532-2.255,1.361-2.851c0.937-0.659,2.17-0.872,3.488-0.872
			c0.745,0,1.361,0.042,1.914,0.128v-0.617c0-2.127-0.872-2.829-2.658-2.829c-1,0-2.233,0.213-2.999,0.404
			c-0.043-0.106-0.085-0.341-0.085-0.553c0-0.149,0.042-0.362,0.106-0.489c0.914-0.277,2.127-0.447,3.147-0.447
			c2.531,0,3.871,1.148,3.871,3.744V248.107z M151.988,245.108c-0.616-0.085-1.254-0.128-1.808-0.128
			c-1.042,0-1.978,0.191-2.616,0.681c-0.574,0.426-0.894,1.106-0.894,1.979c0,1.553,1,2.297,2.383,2.297
			c1.148,0,2.36-0.553,2.935-1.425V245.108z"/>
		<path style="fill:#58595B;" d="M161.26,240.769c-1.233,0.171-2.573,0.617-3.573,1.383v8.679c-0.213,0.063-0.468,0.106-0.702,0.106
			c-0.233,0-0.468-0.043-0.681-0.106v-11.082c0.128-0.043,0.319-0.085,0.532-0.085c0.17,0,0.404,0.042,0.574,0.085l0.106,1.361
			h0.021c0.915-0.787,2.511-1.446,3.723-1.574c0.043,0.128,0.085,0.361,0.085,0.553C161.345,240.301,161.303,240.577,161.26,240.769
			z"/>
		<path style="fill:#58595B;" d="M171.915,250.852c-0.171,0.042-0.426,0.085-0.681,0.085c-0.213,0-0.489-0.043-0.702-0.106v-6.743
			c0-1.021-0.128-1.808-0.426-2.36c-0.361-0.681-1.042-1.021-2.148-1.021c-1.063,0-2.34,0.596-3.169,1.233v8.892
			c-0.234,0.063-0.468,0.106-0.724,0.106c-0.212,0-0.468-0.043-0.659-0.106v-11.082c0.149-0.063,0.404-0.085,0.553-0.085
			c0.213,0,0.469,0.021,0.596,0.085l0.106,1.106h0.021c1.17-0.958,2.51-1.319,3.595-1.319s2.212,0.361,2.829,1.106
			c0.681,0.808,0.809,1.978,0.809,3.127V250.852z"/>
		<path style="fill:#58595B;" d="M175.505,237.578c-0.489,0-0.894-0.425-0.894-0.936s0.404-0.915,0.894-0.915
			s0.915,0.404,0.915,0.915S175.994,237.578,175.505,237.578z M176.207,250.83c-0.191,0.063-0.468,0.106-0.702,0.106
			c-0.233,0-0.489-0.043-0.681-0.106v-11.082c0.17-0.043,0.447-0.106,0.659-0.106c0.234,0,0.554,0.043,0.724,0.106V250.83z"/>
		<path style="fill:#58595B;" d="M187.692,250.852c-0.171,0.042-0.426,0.085-0.681,0.085c-0.213,0-0.489-0.043-0.702-0.106v-6.743
			c0-1.021-0.128-1.808-0.426-2.36c-0.361-0.681-1.042-1.021-2.148-1.021c-1.063,0-2.34,0.596-3.169,1.233v8.892
			c-0.234,0.063-0.468,0.106-0.724,0.106c-0.212,0-0.468-0.043-0.659-0.106v-11.082c0.149-0.063,0.404-0.085,0.553-0.085
			c0.213,0,0.469,0.021,0.596,0.085l0.106,1.106h0.021c1.17-0.958,2.51-1.319,3.595-1.319s2.212,0.361,2.829,1.106
			c0.681,0.808,0.809,1.978,0.809,3.127V250.852z"/>
		<path style="fill:#58595B;" d="M198.537,248.979c0,1.596-0.085,3.51-0.852,4.828c-0.914,1.574-2.552,2.255-4.189,2.255
			c-0.937,0-1.745-0.106-2.426-0.34c-0.063-0.128-0.085-0.341-0.085-0.511c0-0.128,0.043-0.383,0.085-0.511
			c0.66,0.17,1.426,0.298,2.191,0.298c2.68,0,3.893-1.659,3.893-4.573v-0.894c-0.83,0.872-2,1.298-2.957,1.298
			c-2.829,0-4.297-2.19-4.297-5.275c0-3.786,2.234-6.02,5.531-6.02c0.872,0,2.19,0.256,3.105,0.617V248.979z M197.154,240.833
			c-0.766-0.213-1.319-0.276-1.851-0.276c-2.701,0-3.978,2.275-3.978,4.935c0,2.361,0.894,4.212,2.978,4.212
			c1.063,0,2.148-0.532,2.851-1.276V240.833z"/>
		<path style="fill:#58595B;" d="M213.081,241.088c-0.681-0.276-1.573-0.446-2.36-0.446c-2.766,0-3.786,2.148-3.786,4.743
			c0,2.553,0.979,4.53,3.765,4.53c0.744,0,1.638-0.127,2.297-0.318c0.043,0.127,0.085,0.276,0.085,0.446
			c0,0.255-0.042,0.447-0.106,0.596c-0.616,0.255-1.616,0.404-2.403,0.404c-3.467,0-5.084-2.276-5.084-5.615
			c0-3.468,1.766-5.893,5.148-5.893c0.808,0,1.765,0.191,2.425,0.489c0.063,0.17,0.085,0.341,0.085,0.532
			C213.146,240.769,213.124,240.939,213.081,241.088z"/>
		<path style="fill:#58595B;" d="M219.311,251.043c-2.786,0-4.573-1.914-4.573-5.743s1.809-5.765,4.595-5.765
			c2.787,0,4.552,1.894,4.552,5.722C223.884,249.086,222.098,251.043,219.311,251.043z M219.332,240.577
			c-2.042,0-3.147,1.574-3.147,4.701s1.084,4.723,3.126,4.723s3.127-1.596,3.127-4.723S221.374,240.577,219.332,240.577z"/>
		<path style="fill:#58595B;" d="M234.324,246.618c0,3.233-1.34,4.425-4.147,4.425c-2.872,0-4.084-1.191-4.084-4.318v-6.977
			c0.191-0.063,0.446-0.106,0.681-0.106c0.298,0,0.531,0.063,0.702,0.106v6.807c0,2.063,0.318,3.425,2.723,3.425
			c2.254,0,2.743-1.319,2.743-3.468v-6.764c0.171-0.063,0.469-0.106,0.702-0.106c0.234,0,0.489,0.043,0.681,0.106V246.618z"/>
		<path style="fill:#58595B;" d="M242.106,240.769c-1.233,0.171-2.573,0.617-3.573,1.383v8.679
			c-0.213,0.063-0.468,0.106-0.702,0.106c-0.233,0-0.468-0.043-0.681-0.106v-11.082c0.128-0.043,0.319-0.085,0.532-0.085
			c0.17,0,0.403,0.042,0.574,0.085l0.106,1.361h0.021c0.915-0.787,2.511-1.446,3.723-1.574c0.043,0.128,0.085,0.361,0.085,0.553
			C242.191,240.301,242.149,240.577,242.106,240.769z"/>
		<path style="fill:#58595B;" d="M246.721,251.043c-1.063,0-2.17-0.191-2.936-0.489c-0.063-0.149-0.106-0.404-0.106-0.596
			c0-0.128,0.043-0.446,0.085-0.574c0.787,0.319,1.914,0.574,2.851,0.574c1.616,0,2.616-0.681,2.616-2.021
			c0-1.213-0.617-1.638-2.297-2.255c-2.34-0.851-3.105-1.829-3.105-3.275c0-1.957,1.616-2.872,3.7-2.872
			c0.702,0,1.617,0.128,2.148,0.298c0.064,0.191,0.085,0.383,0.085,0.511c0,0.17-0.042,0.468-0.085,0.617
			c-0.701-0.213-1.446-0.341-2.169-0.341c-1.511,0-2.425,0.574-2.425,1.744c0,1.021,0.574,1.511,2.318,2.17
			c1.595,0.596,3.062,1.19,3.062,3.339C250.464,250.043,248.826,251.043,246.721,251.043z"/>
		<path style="fill:#58595B;" d="M260.629,245.661h-7.126c0.085,2.446,1.233,4.297,3.893,4.297c0.957,0,1.851-0.128,2.638-0.319
			c0.042,0.106,0.085,0.319,0.085,0.447c0,0.212-0.043,0.404-0.106,0.553c-0.829,0.255-1.872,0.404-2.744,0.404
			c-1.68,0-2.956-0.532-3.743-1.383c-0.937-1.021-1.426-2.553-1.426-4.318c0-3.084,1.554-5.807,4.659-5.807
			c2.786,0,3.893,2.298,3.893,5.105C260.65,244.959,260.65,245.342,260.629,245.661z M259.268,244.641
			c0-1.957-0.213-4.063-2.574-4.063c-2.063,0-3.062,1.894-3.19,4.063H259.268z"/>
		<path style="fill:#58595B;" d="M265.434,251.043c-1.063,0-2.17-0.191-2.936-0.489c-0.063-0.149-0.106-0.404-0.106-0.596
			c0-0.128,0.043-0.446,0.085-0.574c0.787,0.319,1.914,0.574,2.851,0.574c1.616,0,2.616-0.681,2.616-2.021
			c0-1.213-0.617-1.638-2.297-2.255c-2.34-0.851-3.105-1.829-3.105-3.275c0-1.957,1.616-2.872,3.7-2.872
			c0.702,0,1.617,0.128,2.148,0.298c0.064,0.191,0.085,0.383,0.085,0.511c0,0.17-0.042,0.468-0.085,0.617
			c-0.701-0.213-1.446-0.341-2.169-0.341c-1.511,0-2.425,0.574-2.425,1.744c0,1.021,0.574,1.511,2.318,2.17
			c1.595,0.596,3.062,1.19,3.062,3.339C269.177,250.043,267.539,251.043,265.434,251.043z"/>
	</g>
	<g>
		<path style="fill:#58595B;" d="M120.494,154.628c-1.063,0-2.17-0.191-2.936-0.489c-0.063-0.149-0.106-0.404-0.106-0.596
			c0-0.128,0.043-0.446,0.085-0.574c0.787,0.319,1.915,0.574,2.851,0.574c1.616,0,2.616-0.681,2.616-2.021
			c0-1.213-0.616-1.638-2.297-2.255c-2.34-0.851-3.105-1.829-3.105-3.275c0-1.957,1.616-2.872,3.701-2.872
			c0.701,0,1.616,0.128,2.148,0.298c0.063,0.191,0.085,0.383,0.085,0.511c0,0.17-0.043,0.468-0.085,0.616
			c-0.702-0.212-1.447-0.34-2.17-0.34c-1.511,0-2.425,0.574-2.425,1.744c0,1.021,0.574,1.511,2.318,2.17
			c1.596,0.596,3.062,1.191,3.062,3.339C124.237,153.628,122.6,154.628,120.494,154.628z"/>
		<path style="fill:#58595B;" d="M131.978,154.309c-0.553,0.191-1.383,0.319-1.999,0.319c-2.106,0-3.105-1-3.105-3.361v-6.849
			h-1.915c-0.042-0.106-0.063-0.361-0.063-0.489c0-0.106,0.021-0.361,0.063-0.468l1.915-0.128v-2.893
			c0.17-0.063,0.446-0.106,0.681-0.106c0.233,0,0.531,0.042,0.702,0.106v2.893h3.126c0.043,0.106,0.086,0.426,0.086,0.532
			c0,0.148-0.043,0.403-0.086,0.553h-3.126v6.722c0,1.68,0.489,2.382,1.808,2.382c0.724,0,1.425-0.106,1.914-0.255
			c0.043,0.106,0.085,0.361,0.085,0.511C132.062,153.969,132.042,154.117,131.978,154.309z"/>
		<path style="fill:#58595B;" d="M141.696,150.203c0,3.233-1.34,4.425-4.147,4.425c-2.872,0-4.084-1.191-4.084-4.318v-6.977
			c0.191-0.063,0.446-0.106,0.681-0.106c0.297,0,0.531,0.063,0.701,0.106v6.807c0,2.063,0.319,3.425,2.723,3.425
			c2.255,0,2.744-1.319,2.744-3.468v-6.764c0.17-0.063,0.468-0.106,0.702-0.106c0.233,0,0.489,0.043,0.681,0.106V150.203z"/>
		<path style="fill:#58595B;" d="M151.967,154.521c-0.191,0-0.426-0.063-0.553-0.106l-0.128-1.276h-0.021
			c-0.914,0.957-1.999,1.489-3.211,1.489c-2.936,0-4.34-2.446-4.34-5.424c0-2.957,1.255-6.084,4.638-6.084
			c1.063,0,2.042,0.361,2.828,0.915v-5.148c0.191-0.063,0.447-0.106,0.681-0.106c0.256,0,0.511,0.063,0.702,0.106v15.528
			C152.414,154.479,152.201,154.521,151.967,154.521z M151.18,145.205c-0.766-0.639-1.744-0.957-2.743-0.957
			c-2.468,0-3.297,2.425-3.297,4.892c0,1.894,0.595,4.36,2.978,4.36c1.148,0,2.318-0.574,3.062-1.467V145.205z"/>
		<path style="fill:#58595B;" d="M163.174,149.246h-7.126c0.085,2.446,1.233,4.297,3.893,4.297c0.957,0,1.851-0.128,2.638-0.319
			c0.042,0.106,0.085,0.319,0.085,0.447c0,0.212-0.043,0.403-0.106,0.553c-0.829,0.255-1.872,0.404-2.744,0.404
			c-1.68,0-2.956-0.532-3.743-1.383c-0.937-1.021-1.426-2.553-1.426-4.318c0-3.084,1.554-5.807,4.659-5.807
			c2.786,0,3.893,2.298,3.893,5.105C163.195,148.544,163.195,148.927,163.174,149.246z M161.812,148.226
			c0-1.957-0.213-4.063-2.574-4.063c-2.063,0-3.062,1.894-3.19,4.063H161.812z"/>
		<path style="fill:#58595B;" d="M173.806,154.437c-0.171,0.042-0.426,0.085-0.681,0.085c-0.213,0-0.489-0.043-0.702-0.106v-6.743
			c0-1.021-0.128-1.808-0.426-2.36c-0.361-0.681-1.042-1.021-2.148-1.021c-1.063,0-2.34,0.596-3.169,1.233v8.892
			c-0.234,0.063-0.468,0.106-0.724,0.106c-0.212,0-0.468-0.043-0.659-0.106v-11.082c0.149-0.063,0.404-0.085,0.553-0.085
			c0.213,0,0.469,0.021,0.596,0.085l0.106,1.106h0.021c1.17-0.958,2.51-1.319,3.595-1.319s2.212,0.361,2.829,1.106
			c0.681,0.808,0.809,1.978,0.809,3.127V154.437z"/>
		<path style="fill:#58595B;" d="M182.332,154.309c-0.554,0.191-1.383,0.319-2,0.319c-2.105,0-3.105-1-3.105-3.361v-6.849h-1.914
			c-0.043-0.106-0.064-0.361-0.064-0.489c0-0.106,0.021-0.361,0.064-0.468l1.914-0.128v-2.893c0.17-0.063,0.446-0.106,0.681-0.106
			s0.532,0.042,0.702,0.106v2.893h3.127c0.042,0.106,0.085,0.426,0.085,0.532c0,0.148-0.043,0.403-0.085,0.553h-3.127v6.722
			c0,1.68,0.489,2.382,1.808,2.382c0.724,0,1.426-0.106,1.915-0.255c0.042,0.106,0.085,0.361,0.085,0.511
			C182.417,153.969,182.396,154.117,182.332,154.309z"/>
		<path style="fill:#58595B;" d="M186.669,154.628c-1.063,0-2.17-0.191-2.936-0.489c-0.063-0.149-0.106-0.404-0.106-0.596
			c0-0.128,0.043-0.446,0.085-0.574c0.787,0.319,1.914,0.574,2.851,0.574c1.616,0,2.616-0.681,2.616-2.021
			c0-1.213-0.617-1.638-2.297-2.255c-2.34-0.851-3.106-1.829-3.106-3.275c0-1.957,1.617-2.872,3.701-2.872
			c0.702,0,1.617,0.128,2.148,0.298c0.064,0.191,0.085,0.383,0.085,0.511c0,0.17-0.042,0.468-0.085,0.616
			c-0.701-0.212-1.446-0.34-2.169-0.34c-1.511,0-2.425,0.574-2.425,1.744c0,1.021,0.574,1.511,2.318,2.17
			c1.595,0.596,3.062,1.191,3.062,3.339C190.412,153.628,188.774,154.628,186.669,154.628z"/>
		<path style="fill:#58595B;" d="M203.234,139.802c-0.319-0.085-0.894-0.17-1.341-0.17c-0.808,0-1.403,0.213-1.808,0.659
			c-0.617,0.66-0.724,1.553-0.724,2.68v0.362h3c0.042,0.106,0.085,0.361,0.085,0.511c0,0.17-0.043,0.425-0.085,0.574h-3v9.997
			c-0.191,0.063-0.403,0.106-0.681,0.106c-0.276,0-0.51-0.043-0.701-0.106v-9.997h-1.915c-0.042-0.106-0.063-0.383-0.063-0.511
			c0-0.106,0.021-0.34,0.063-0.446l1.915-0.128v-0.362c0-1.51,0.255-2.552,1.127-3.424c0.617-0.617,1.531-0.915,2.574-0.915
			c0.553,0,1.17,0.127,1.553,0.276c0.042,0.106,0.063,0.255,0.063,0.404C203.298,139.44,203.276,139.696,203.234,139.802z"/>
		<path style="fill:#58595B;" d="M209.061,144.354c-1.233,0.171-2.573,0.617-3.573,1.383v8.679
			c-0.213,0.063-0.468,0.106-0.702,0.106c-0.233,0-0.468-0.043-0.681-0.106v-11.082c0.128-0.043,0.319-0.085,0.532-0.085
			c0.17,0,0.404,0.042,0.574,0.085l0.106,1.361h0.021c0.915-0.787,2.511-1.446,3.723-1.574c0.043,0.128,0.085,0.361,0.085,0.553
			C209.146,143.886,209.104,144.162,209.061,144.354z"/>
		<path style="fill:#58595B;" d="M214.418,154.628c-2.786,0-4.573-1.915-4.573-5.743c0-3.829,1.809-5.765,4.595-5.765
			c2.787,0,4.552,1.894,4.552,5.722C218.991,152.671,217.205,154.628,214.418,154.628z M214.439,144.162
			c-2.042,0-3.147,1.574-3.147,4.701s1.084,4.723,3.126,4.723s3.127-1.596,3.127-4.723S216.481,144.162,214.439,144.162z"/>
		<path style="fill:#58595B;" d="M236.452,154.437c-0.213,0.042-0.426,0.085-0.639,0.085c-0.255,0-0.489-0.063-0.744-0.106v-6.722
			c0-2.34-0.596-3.403-2.574-3.403c-1.021,0-2.382,0.532-3.232,1.148c0.17,0.596,0.212,1.255,0.212,1.915v7.062
			c-0.212,0.063-0.425,0.106-0.638,0.106c-0.276,0-0.531-0.043-0.744-0.106v-6.722c0-2.34-0.532-3.403-2.51-3.403
			c-1.064,0-2.319,0.596-3.148,1.233v8.892c-0.234,0.063-0.511,0.106-0.766,0.106c-0.213,0-0.447-0.043-0.617-0.106v-11.082
			c0.106-0.043,0.341-0.085,0.574-0.085c0.191,0,0.426,0.042,0.574,0.085l0.106,1.106h0.021c1.17-0.958,2.51-1.319,3.595-1.319
			s2.127,0.361,2.744,1.106c0.085,0.085,0.148,0.191,0.213,0.298c1.127-0.915,2.573-1.404,3.956-1.404
			c1.085,0,2.19,0.361,2.808,1.106c0.681,0.808,0.809,1.978,0.809,3.127V154.437z"/>
		<path style="fill:#58595B;" d="M247.527,154.628c-2.786,0-4.573-1.915-4.573-5.743c0-3.829,1.809-5.765,4.595-5.765
			c2.787,0,4.552,1.894,4.552,5.722C252.101,152.671,250.314,154.628,247.527,154.628z M247.549,144.162
			c-2.042,0-3.147,1.574-3.147,4.701s1.084,4.723,3.126,4.723s3.127-1.596,3.127-4.723S249.591,144.162,247.549,144.162z"/>
		<path style="fill:#58595B;" d="M261.584,146.034l-3.34,8.381c-0.191,0.063-0.404,0.106-0.574,0.106
			c-0.233,0-0.425-0.043-0.596-0.106l-3.445-8.381c-0.383-0.957-0.554-1.914-0.554-2.701c0.171-0.043,0.469-0.106,0.66-0.106
			c0.255,0,0.51,0.043,0.723,0.106c0.021,0.724,0.106,1.553,0.426,2.318l2.765,7.02h0.043l2.68-7.02
			c0.298-0.744,0.447-1.574,0.447-2.318c0.148-0.063,0.468-0.106,0.744-0.106c0.149,0,0.426,0.021,0.617,0.085
			C262.158,144.077,262.01,144.992,261.584,146.034z"/>
		<path style="fill:#58595B;" d="M271.685,149.246h-7.126c0.085,2.446,1.233,4.297,3.893,4.297c0.957,0,1.851-0.128,2.638-0.319
			c0.042,0.106,0.085,0.319,0.085,0.447c0,0.212-0.043,0.403-0.106,0.553c-0.829,0.255-1.872,0.404-2.744,0.404
			c-1.68,0-2.956-0.532-3.743-1.383c-0.937-1.021-1.426-2.553-1.426-4.318c0-3.084,1.553-5.807,4.659-5.807
			c2.786,0,3.893,2.298,3.893,5.105C271.706,148.544,271.706,148.927,271.685,149.246z M270.323,148.226
			c0-1.957-0.213-4.063-2.574-4.063c-2.063,0-3.062,1.894-3.19,4.063H270.323z"/>
		<path style="fill:#58595B;" d="M278.786,144.354c-1.233,0.171-2.573,0.617-3.573,1.383v8.679
			c-0.213,0.063-0.468,0.106-0.702,0.106c-0.233,0-0.468-0.043-0.681-0.106v-11.082c0.128-0.043,0.319-0.085,0.532-0.085
			c0.17,0,0.403,0.042,0.574,0.085l0.106,1.361h0.021c0.915-0.787,2.511-1.446,3.723-1.574c0.043,0.128,0.085,0.361,0.085,0.553
			C278.871,143.886,278.829,144.162,278.786,144.354z"/>
	</g>
</g>
</svg>
