<?xml version="1.0" encoding="utf-8"?>
<!-- Generator: Adobe Illustrator 16.0.0, SVG Export Plug-In . SVG Version: 6.00 Build 0)  -->
<!DOCTYPE svg PUBLIC "-//W3C//DTD SVG 1.1//EN" "http://www.w3.org/Graphics/SVG/1.1/DTD/svg11.dtd">
<svg version="1.1" id="Layer_1" xmlns="http://www.w3.org/2000/svg" xmlns:xlink="http://www.w3.org/1999/xlink" x="0px" y="0px"
	 width="300px" height="300px" viewBox="0 0 300 300" enable-background="new 0 0 300 300" xml:space="preserve">
<g>
	<g>
		<path fill="#AB9245" d="M60.527,200.207H9.576c-1.074-2.506-1.432-5.607-1.432-8.352c0-1.432,0.12-3.223,0.358-4.416
			c8.353-8.471,17.302-18.018,25.177-26.848c5.847-6.562,10.5-12.648,10.5-19.331c0-5.847-4.057-9.188-11.217-9.188
			c-5.25,0-13.603,1.79-21.359,5.489c-0.477-2.029-0.955-5.608-0.955-8.473c0-1.432,0.239-4.295,0.716-6.205
			c5.847-2.506,15.273-4.773,24.461-4.773c13.603,0,25.535,6.324,25.535,21.001c0,12.886-6.921,21.597-21.717,37.109
			c-2.864,3.104-5.966,6.086-9.069,9.309h30.189c0.358,1.551,0.597,4.533,0.597,7.398C61.362,195.314,61.004,198.537,60.527,200.207
			z"/>
		<path fill="#AB9245" d="M74.366,221.805c-1.909-1.312-4.415-3.818-5.131-6.562c5.012-3.58,8.71-7.875,10.381-12.291
			c-2.268-2.027-4.057-4.891-4.057-8.83c0-4.652,4.057-8.471,8.83-8.471c5.37,0,8.949,3.938,8.949,9.785
			C93.338,204.742,84.627,215.84,74.366,221.805z"/>
		<path fill="#AB9245" d="M127.94,201.4c-7.756,0-17.063-1.074-22.791-3.938c-0.358-1.193-0.597-3.818-0.597-5.369
			c0-2.506,0.358-5.609,0.955-8.113c6.443,2.504,13.961,3.818,19.927,3.818c9.785,0,15.273-4.535,15.273-12.053
			c0-8.113-4.892-11.336-13.961-11.336h-6.562c-0.358-1.312-0.716-3.938-0.716-6.801c0-2.387,0.477-5.25,0.835-6.324h6.205
			c8.233,0,12.052-4.416,12.052-10.621c0-5.847-4.296-8.71-11.097-8.71c-6.085,0-13.245,1.551-19.211,4.057
			c-0.597-2.028-1.074-5.369-1.074-7.994c0-1.79,0.239-4.535,0.597-5.608c5.131-2.268,14.558-4.057,22.552-4.057
			c13.961,0,25.654,6.92,25.654,21.121c0,7.875-3.579,14.438-10.381,17.54v0.24c7.875,2.982,12.648,10.141,12.648,18.375
			C158.249,192.689,144.407,201.4,127.94,201.4z"/>
		<path fill="#AB9245" d="M197.504,201.4c-19.092,0-28.398-14.08-28.398-41.523c0-27.684,9.665-41.525,28.757-41.525
			c18.973,0,28.279,13.841,28.279,41.525C226.142,187.32,216.477,201.4,197.504,201.4z M197.623,132.312
			c-7.637,0-10.978,7.04-10.978,27.565c0,20.164,3.341,27.562,10.978,27.562s10.979-7.398,10.979-27.562
			C208.602,139.352,205.26,132.312,197.623,132.312z"/>
		<path fill="#AB9245" d="M262.891,201.4c-19.092,0-28.398-14.08-28.398-41.523c0-27.684,9.665-41.525,28.757-41.525
			c18.973,0,28.279,13.841,28.279,41.525C291.528,187.32,281.863,201.4,262.891,201.4z M263.01,132.312
			c-7.637,0-10.978,7.04-10.978,27.565c0,20.164,3.341,27.562,10.978,27.562s10.979-7.398,10.979-27.562
			C273.988,139.352,270.646,132.312,263.01,132.312z"/>
	</g>
</g>
<path fill="#AB9245" d="M100.477,233.969c-1.673,0-3.268-0.301-4.447-0.629c-0.081-0.387-0.109-0.77-0.109-1.156
	c0-0.41,0.054-0.902,0.165-1.287c1.124,0.41,2.773,0.688,3.981,0.688c1.592,0,2.829-0.523,2.829-1.953
	c0-1.209-0.909-1.617-2.885-2.252c-2.965-0.961-4.119-2.195-4.119-4.201c0-2.801,2.692-4.062,5.354-4.062
	c1.043,0,2.555,0.193,3.407,0.467c0.107,0.33,0.164,0.715,0.164,1.07c0,0.414-0.082,0.908-0.191,1.291
	c-1.044-0.275-2.088-0.438-3.213-0.438c-1.563,0-2.499,0.467-2.499,1.51c0,1.07,1.154,1.455,2.827,2.061
	c2.419,0.848,4.037,1.617,4.037,4.361C105.776,232.352,103.362,233.969,100.477,233.969z M109.37,221.725h-2.335
	c-0.11-0.355-0.164-0.686-0.164-1.072c0-0.383,0.054-0.713,0.164-1.07l2.335-0.164v-3.707c0.356-0.084,1.069-0.189,1.592-0.189
	c0.548,0,1.209,0.105,1.592,0.189v3.678h4.064c0.109,0.359,0.163,0.77,0.163,1.156c0,0.383-0.054,0.77-0.163,1.18h-4.064V229
	c0,0.658,0.083,1.373,0.412,1.814c0.275,0.383,0.795,0.627,1.62,0.627c0.631,0,1.62-0.135,2.335-0.354
	c0.106,0.496,0.163,1.018,0.163,1.482c0,0.33-0.028,0.602-0.057,0.822c-0.657,0.33-1.92,0.576-3.239,0.576
	c-3.211,0-4.418-1.51-4.418-4.418V221.725z M129.46,233.834c-0.44,0-1.042-0.057-1.4-0.141c-0.082-0.438-0.135-1.016-0.163-1.426
	h-0.028c-0.879,1.043-2.526,1.701-4.12,1.701c-2.746,0-4.75-1.617-4.75-4.391c0-4.176,3.599-5.164,6.782-5.164
	c0.55,0,1.375,0.057,1.785,0.082c0-2.168-0.796-2.908-2.964-2.908c-1.263,0-2.937,0.244-4.065,0.521
	c-0.109-0.33-0.163-0.822-0.163-1.209c0-0.355,0.054-0.824,0.163-1.096c1.375-0.416,3.158-0.689,4.587-0.689
	c3.486,0,5.628,1.455,5.628,5.053v5.684c0,1.484,0.026,2.525,0.053,3.842C130.423,233.807,129.873,233.834,129.46,233.834z
	 M127.594,226.805c-0.41-0.057-1.072-0.084-1.701-0.084c-2.391,0-3.651,1.018-3.651,2.582c0,1.371,0.906,2.168,2.333,2.168
	c1.153,0,2.335-0.521,3.02-1.264V226.805z M141.288,215.6c-1.072,0-1.867,0.387-2.333,1.209c-0.275,0.494-0.357,1.1-0.357,2.088
	v0.492h5.463v-0.354c0-1.842,0.356-3.16,1.235-4.176c0.906-1.016,2.388-1.537,3.898-1.537c0.935,0,1.979,0.191,2.827,0.494
	c0.084,0.303,0.111,0.658,0.111,1.043c0,0.33-0.056,0.74-0.19,1.1c-0.716-0.248-1.403-0.359-2.032-0.359
	c-1.21,0-1.813,0.332-2.226,0.963c-0.328,0.547-0.466,1.346-0.466,2.334v0.492h3.568c0.14,0.332,0.193,0.854,0.193,1.129
	c0,0.299-0.054,0.822-0.166,1.207h-3.596v11.969c-0.384,0.084-1.069,0.141-1.563,0.141c-0.441,0-1.181-0.057-1.594-0.141v-11.969
	h-5.463v11.969c-0.386,0.084-1.072,0.141-1.565,0.141c-0.438,0-1.179-0.057-1.592-0.141v-11.969h-2.28
	c-0.109-0.303-0.165-0.797-0.165-1.1c0-0.328,0.056-0.82,0.165-1.068l2.28-0.139v-0.383c0-1.842,0.357-3.16,1.235-4.176
	c0.907-1.016,2.389-1.537,3.899-1.537c0.933,0,1.976,0.191,2.83,0.494c0.079,0.303,0.107,0.658,0.107,1.043
	c0,0.33-0.054,0.74-0.191,1.1C142.607,215.711,141.92,215.6,141.288,215.6z M181.184,233.693c-0.412,0.113-1.069,0.141-1.508,0.141
	c-0.468,0-1.237-0.057-1.678-0.141v-8.482c0-1.072-0.08-1.867-0.41-2.414c-0.385-0.633-1.125-0.934-2.088-0.934
	c-1.095,0-2.471,0.52-3.321,1.125c0.109,0.576,0.109,1.098,0.109,1.727v8.979c-0.41,0.113-1.071,0.141-1.511,0.141
	c-0.466,0-1.206-0.057-1.645-0.141v-8.482c0-1.178-0.112-2.086-0.634-2.66c-0.411-0.469-1.045-0.688-1.811-0.688
	c-1.045,0-2.309,0.439-3.268,1.068v10.762c-0.551,0.084-1.237,0.141-1.704,0.141c-0.438,0-1.016-0.027-1.481-0.141v-14.305
	c0.358-0.08,0.96-0.135,1.347-0.135c0.354,0,0.933,0.055,1.288,0.135l0.193,1.291c1.18-0.932,2.965-1.564,4.503-1.564
	c1.786,0,3.102,0.715,3.843,1.732c1.373-0.99,3.268-1.732,4.999-1.732c1.455,0,2.88,0.496,3.678,1.402
	c0.932,1.07,1.098,2.498,1.098,4.197V233.693z M196.385,227.6h-8.896c0.055,2.473,1.676,3.926,4.173,3.926
	c1.265,0,2.418-0.164,3.652-0.465c0.138,0.713,0.191,1.455,0.191,2.279c-1.455,0.494-2.773,0.629-4.283,0.629
	c-4.666,0-7.083-2.936-7.083-7.357c0-4.008,2.333-7.496,6.646-7.496c4.008,0,5.655,3.131,5.655,7.002
	C196.439,226.859,196.41,227.271,196.385,227.6z M193.254,225.184c0-1.73-0.357-3.596-2.555-3.596c-2.058,0-3.047,1.674-3.211,3.596
	H193.254z M220.622,233.693c-0.414,0.113-1.071,0.141-1.51,0.141c-0.468,0-1.234-0.057-1.676-0.141v-8.482
	c0-1.072-0.081-1.867-0.411-2.414c-0.386-0.633-1.127-0.934-2.089-0.934c-1.096,0-2.471,0.52-3.321,1.125
	c0.109,0.576,0.109,1.098,0.109,1.727v8.979c-0.41,0.113-1.069,0.141-1.509,0.141c-0.468,0-1.208-0.057-1.646-0.141v-8.482
	c0-1.178-0.112-2.086-0.635-2.66c-0.41-0.469-1.041-0.688-1.81-0.688c-1.041,0-2.306,0.439-3.268,1.068v10.762
	c-0.547,0.084-1.235,0.141-1.703,0.141c-0.438,0-1.017-0.027-1.482-0.141v-14.305c0.358-0.08,0.96-0.135,1.347-0.135
	c0.356,0,0.932,0.055,1.292,0.135l0.189,1.291c1.18-0.932,2.965-1.564,4.504-1.564c1.784,0,3.103,0.715,3.845,1.732
	c1.37-0.99,3.268-1.732,4.997-1.732c1.454,0,2.879,0.496,3.677,1.402c0.935,1.07,1.1,2.498,1.1,4.197V233.693z M229.645,233.969
	c-1.732,0-3.79-0.328-5.299-0.877v-19.439c0.412-0.082,0.987-0.109,1.537-0.109c0.632,0,1.263,0.027,1.648,0.109v6.645
	c0.796-0.66,2.194-1.182,3.623-1.182c4.062,0,5.712,3.514,5.712,7.002C236.866,230.842,234.476,233.969,229.645,233.969z
	 M230.523,221.809c-1.044,0-2.281,0.383-2.992,0.932v8.566c0.492,0.135,1.234,0.219,1.838,0.219c3.074,0,4.23-2.031,4.23-5.354
	C233.6,224.113,232.858,221.809,230.523,221.809z M251.354,227.6h-8.896c0.057,2.473,1.674,3.926,4.173,3.926
	c1.262,0,2.416-0.164,3.653-0.465c0.135,0.713,0.192,1.455,0.192,2.279c-1.455,0.494-2.773,0.629-4.285,0.629
	c-4.668,0-7.084-2.936-7.084-7.357c0-4.008,2.335-7.496,6.646-7.496c4.009,0,5.653,3.131,5.653,7.002
	C251.408,226.859,251.38,227.271,251.354,227.6z M248.225,225.184c0-1.73-0.358-3.596-2.553-3.596c-2.061,0-3.049,1.674-3.213,3.596
	H248.225z M262.304,221.809c-1.373,0.164-3.13,0.742-4.477,1.51v10.375c-0.411,0.113-1.045,0.141-1.593,0.141
	s-1.234-0.057-1.592-0.141v-14.305c0.357-0.053,0.879-0.135,1.32-0.135c0.41,0,0.96,0.055,1.316,0.135l0.219,1.758h0.081
	c1.154-1.07,3.076-1.92,4.696-2.031c0.054,0.248,0.109,0.768,0.109,1.318C262.385,220.816,262.357,221.422,262.304,221.809z
	 M268.887,233.969c-1.673,0-3.268-0.301-4.446-0.629c-0.084-0.387-0.111-0.77-0.111-1.156c0-0.41,0.056-0.902,0.168-1.287
	c1.122,0.41,2.771,0.688,3.979,0.688c1.593,0,2.828-0.523,2.828-1.953c0-1.209-0.907-1.617-2.884-2.252
	c-2.964-0.961-4.117-2.195-4.117-4.201c0-2.801,2.691-4.062,5.353-4.062c1.044,0,2.555,0.193,3.405,0.467
	c0.109,0.33,0.166,0.715,0.166,1.07c0,0.414-0.084,0.908-0.193,1.291c-1.042-0.275-2.087-0.438-3.213-0.438
	c-1.563,0-2.498,0.467-2.498,1.51c0,1.07,1.153,1.455,2.828,2.061c2.415,0.848,4.036,1.617,4.036,4.361
	C274.188,232.352,271.772,233.969,268.887,233.969z"/>
<g>
	<path fill="#AB9245" d="M106.778,108.751c-7.976,0-12.789-5.363-12.789-15.906c0-10.405,4.859-15.997,12.834-15.997
		c7.976,0,12.743,5.592,12.743,15.997C119.566,103.388,114.754,108.751,106.778,108.751z M106.824,81.523
		c-4.354,0-7.059,3.071-7.059,11.23c0,8.067,2.659,11.322,7.013,11.322c4.355,0,7.059-3.255,7.059-11.322
		C113.837,84.595,111.178,81.523,106.824,81.523z"/>
	<path fill="#AB9245" d="M142.985,90.187l-7.242,18.106c-0.55,0.092-1.467,0.229-2.384,0.229c-0.962,0-2.108-0.091-2.704-0.229
		l-7.013-18.106c-0.596-1.65-0.917-3.758-0.963-5.775c0.642-0.137,1.788-0.229,2.475-0.229c1.009,0,1.925,0.092,2.659,0.229
		c0,1.559,0.275,3.484,0.825,5.226l4.583,13.018h0.092l4.721-13.018c0.504-1.604,0.825-3.53,0.825-5.226
		c0.688-0.137,1.788-0.229,2.659-0.229c0.688,0,1.833,0.137,2.429,0.229C143.902,86.428,143.581,88.537,142.985,90.187z"/>
	<path fill="#AB9245" d="M166.176,98.117h-14.852c0.092,4.125,2.796,6.555,6.968,6.555c2.108,0,4.033-0.275,6.096-0.779
		c0.229,1.192,0.321,2.429,0.321,3.805c-2.43,0.825-4.63,1.054-7.15,1.054c-7.793,0-11.826-4.905-11.826-12.285
		c0-6.692,3.896-12.514,11.093-12.514c6.691,0,9.442,5.226,9.442,11.688C166.268,96.879,166.222,97.566,166.176,98.117z
		 M160.95,94.083c0-2.888-0.596-6.005-4.263-6.005c-3.438,0-5.088,2.796-5.363,6.005H160.95z"/>
	<path fill="#AB9245" d="M183.133,88.445c-2.292,0.275-5.226,1.238-7.472,2.521v17.327c-0.688,0.184-1.742,0.229-2.659,0.229
		c-0.916,0-2.062-0.091-2.658-0.229V84.411c0.596-0.092,1.467-0.229,2.2-0.229c0.688,0,1.604,0.092,2.2,0.229l0.366,2.934h0.138
		c1.926-1.788,5.134-3.208,7.839-3.392c0.092,0.413,0.183,1.284,0.183,2.2C183.27,86.795,183.224,87.803,183.133,88.445z"/>
</g>
</svg>
