<?xml version="1.0" encoding="utf-8"?>
<!-- Generator: Adobe Illustrator 16.0.0, SVG Export Plug-In . SVG Version: 6.00 Build 0)  -->
<!DOCTYPE svg PUBLIC "-//W3C//DTD SVG 1.1//EN" "http://www.w3.org/Graphics/SVG/1.1/DTD/svg11.dtd">
<svg version="1.1" id="Layer_1" xmlns="http://www.w3.org/2000/svg" xmlns:xlink="http://www.w3.org/1999/xlink" x="0px" y="0px"
	 width="300px" height="300px" viewBox="0 0 300 300" enable-background="new 0 0 300 300" xml:space="preserve">
<g>
	<path fill="#AB9245" d="M189.346,168.729h-21.961c-0.252-0.554-0.504-1.863-0.504-2.82c0-0.705,0.102-1.713,0.202-2.418
		c2.871-1.058,3.979-2.821,3.979-6.146v-3.878h-3.727c-0.151-0.907-0.303-2.166-0.303-2.821c0-0.906,0.101-1.964,0.303-2.82h3.727
		v-2.568c0-6.8,3.979-11.082,11.283-11.082c2.67,0,5.49,0.555,7.102,1.209c0.151,0.504,0.252,1.764,0.252,2.317
		c0,0.906-0.15,2.316-0.353,3.324c-1.562-0.604-4.08-1.058-6.195-1.058c-3.476,0-4.886,1.713-4.886,5.339v2.519h7.455
		c0.201,0.856,0.302,1.914,0.302,2.82c0,0.655-0.101,1.965-0.302,2.821h-7.455v3.626c0,2.368-0.856,4.433-3.072,5.894v0.051h14.104
		c0.201,0.705,0.302,2.015,0.302,2.921C189.598,166.765,189.497,167.924,189.346,168.729z"/>
	<path fill="#AB9245" d="M217.654,161.376h-4.433v7.354c-0.604,0.101-2.015,0.252-3.576,0.252c-1.46,0-2.619-0.101-3.425-0.252
		v-7.354h-14.708c-0.201-0.655-0.353-1.813-0.353-2.721c0-1.058,0.151-2.015,0.353-2.72l10.326-21.256
		c0.906-0.151,2.417-0.252,3.525-0.252c1.562,0,3.224,0.151,3.979,0.252l-10.326,20.752h7.203v-6.95
		c0.906-0.151,2.317-0.252,3.476-0.252c1.209,0,2.669,0.101,3.525,0.252v6.95h4.433c0.252,0.807,0.353,1.914,0.353,2.972
		C218.007,159.462,217.855,160.821,217.654,161.376z"/>
	<path fill="#AB9245" d="M228.585,169.233c-3.274,0-7.203-0.453-9.621-1.662c-0.151-0.504-0.252-1.612-0.252-2.267
		c0-1.058,0.151-2.367,0.403-3.426c2.72,1.059,5.894,1.612,8.411,1.612c4.131,0,6.447-1.914,6.447-5.088
		c0-3.425-2.064-4.784-5.893-4.784h-2.771c-0.151-0.555-0.302-1.663-0.302-2.871c0-1.008,0.201-2.217,0.353-2.67h2.619
		c3.476,0,5.087-1.863,5.087-4.482c0-2.469-1.813-3.678-4.685-3.678c-2.568,0-5.591,0.655-8.109,1.713
		c-0.252-0.856-0.453-2.267-0.453-3.375c0-0.755,0.101-1.914,0.252-2.367c2.166-0.957,6.145-1.713,9.52-1.713
		c5.894,0,10.829,2.922,10.829,8.916c0,3.324-1.511,6.095-4.382,7.404v0.101c3.324,1.259,5.339,4.281,5.339,7.757
		C241.378,165.557,235.535,169.233,228.585,169.233z"/>
	<path fill="#AB9245" d="M285.251,168.729c-0.806,0.201-2.519,0.252-3.324,0.252c-0.856,0-2.821-0.101-3.627-0.252v-15.816
		c0-1.913-0.05-3.324-0.756-4.181c-0.654-0.806-1.662-1.107-2.921-1.107c-1.713,0-4.13,0.755-5.691,1.712
		c0.05,0.856,0.101,1.713,0.101,2.721v16.672c-0.806,0.201-2.519,0.252-3.324,0.252c-0.856,0-2.821-0.101-3.627-0.252v-15.816
		c0-1.913-0.051-3.324-0.756-4.181c-0.654-0.806-1.662-1.107-2.921-1.107c-1.763,0-4.029,0.705-5.591,1.662v19.442
		c-1.159,0.201-2.771,0.252-3.678,0.252c-0.806,0-2.267-0.051-3.273-0.252v-26.242c0.654-0.151,2.267-0.252,3.022-0.252
		c0.705,0,2.165,0.101,2.921,0.252l0.303,2.367c2.216-1.662,5.389-2.871,8.21-2.871c2.921,0,5.49,1.008,7.454,3.173
		c2.721-1.863,5.994-3.173,9.318-3.173c2.469,0,4.987,1.008,6.246,2.519c1.562,1.863,1.914,4.281,1.914,7.958V168.729z"/>
</g>
<g>
	<path fill="#AB9245" d="M119.354,180.881c-0.869,0-1.573-0.704-1.573-1.573c0-0.868,0.704-1.572,1.573-1.572
		s1.572,0.704,1.572,1.572C120.926,180.177,120.223,180.881,119.354,180.881z M120.781,192.84c-0.373,0.083-1.138,0.104-1.469,0.104
		c-0.497,0-1.035-0.041-1.386-0.104v-10.78c0.455-0.062,1.014-0.104,1.386-0.104c0.497,0,1.014,0.042,1.469,0.104V192.84z"/>
	<path fill="#AB9245" d="M132.369,192.84c-0.331,0.083-1.035,0.104-1.366,0.104c-0.352,0-1.159-0.041-1.49-0.104v-7.076
		c0-1.117-0.579-1.594-1.51-1.594c-0.745,0-1.593,0.27-2.255,0.684v7.986c-0.476,0.083-1.138,0.104-1.51,0.104
		c-0.331,0-0.931-0.021-1.345-0.104v-10.78c0.269-0.062,0.931-0.104,1.242-0.104c0.29,0,0.89,0.042,1.2,0.104l0.145,0.952
		c0.931-0.683,2.276-1.159,3.476-1.159c2.276,0,3.414,1.407,3.414,3.767V192.84z"/>
	<path fill="#AB9245" d="M142.656,185.226l-3.104,7.614c-0.207,0.041-0.745,0.104-1.283,0.104c-0.559,0-1.159-0.062-1.407-0.104
		l-2.979-7.655c-0.393-1.035-0.579-2.049-0.579-3.125c0.373-0.062,0.89-0.104,1.324-0.104c0.6,0,1.014,0.042,1.345,0.104
		c0,0.766,0.104,1.614,0.373,2.421l1.904,5.463h0.041l1.966-5.463c0.269-0.807,0.373-1.51,0.373-2.421
		c0.29-0.041,0.91-0.104,1.366-0.104c0.455,0,0.931,0.042,1.262,0.104C143.256,183.219,143.049,184.273,142.656,185.226z"/>
	<path fill="#AB9245" d="M153.253,188.453h-6.539c0.042,1.345,0.972,2.338,2.772,2.338c0.972,0,1.965-0.124,2.814-0.352
		c0.124,0.559,0.207,1.18,0.207,1.738c0,0.083,0,0.187-0.021,0.414c-1.056,0.311-2.152,0.455-3.228,0.455
		c-3.931,0-5.566-2.256-5.566-5.545c0-2.876,1.614-5.649,5.111-5.649c3.31,0,4.51,2.442,4.51,5.132
		C153.314,187.356,153.314,187.915,153.253,188.453z M150.459,186.405c0-1.304-0.352-2.4-1.696-2.4c-1.283,0-1.966,1.014-2.048,2.4
		H150.459z"/>
	<path fill="#AB9245" d="M157.85,193.047c-1.222,0-2.504-0.187-3.497-0.518c-0.062-0.311-0.083-0.703-0.083-1.117
		c0-0.331,0.083-0.807,0.166-1.097c0.951,0.331,2.317,0.559,3.124,0.559c1.117,0,1.759-0.372,1.759-1.138
		c0-0.662-0.518-0.973-1.883-1.407c-2.173-0.683-3.187-1.696-3.187-3.269c0-2.339,2.151-3.208,4.2-3.208
		c0.952,0,2.007,0.166,2.731,0.394c0.082,0.311,0.124,0.745,0.124,0.993c0,0.269-0.083,0.827-0.187,1.18
		c-0.703-0.207-1.676-0.373-2.482-0.373c-0.993,0-1.677,0.249-1.677,0.869c0,0.662,0.766,0.932,1.966,1.324
		c2.09,0.683,3.083,1.552,3.083,3.187C162.008,191.95,159.98,193.047,157.85,193.047z"/>
	<path fill="#AB9245" d="M169.893,192.633c-0.62,0.248-1.365,0.414-2.565,0.414c-2.338,0-3.496-1.138-3.496-3.414v-5.441h-1.78
		c-0.082-0.311-0.145-0.828-0.145-1.097c0-0.249,0.062-0.704,0.124-0.911l1.801-0.124v-2.772c0.228-0.041,0.951-0.083,1.427-0.083
		c0.518,0,1.159,0.042,1.428,0.083v2.772h2.979c0.083,0.29,0.125,0.704,0.125,0.932c0,0.248-0.021,0.91-0.104,1.2h-3.001v5.027
		c0,1.035,0.414,1.49,1.428,1.49c0.559,0,1.242-0.083,1.718-0.249c0.083,0.27,0.187,0.787,0.187,1.263
		C170.018,191.971,169.976,192.405,169.893,192.633z"/>
	<path fill="#AB9245" d="M180.014,188.453h-6.539c0.042,1.345,0.973,2.338,2.773,2.338c0.972,0,1.965-0.124,2.813-0.352
		c0.124,0.559,0.207,1.18,0.207,1.738c0,0.083,0,0.187-0.021,0.414c-1.056,0.311-2.152,0.455-3.229,0.455
		c-3.931,0-5.565-2.256-5.565-5.545c0-2.876,1.614-5.649,5.11-5.649c3.311,0,4.511,2.442,4.511,5.132
		C180.075,187.356,180.075,187.915,180.014,188.453z M177.22,186.405c0-1.304-0.352-2.4-1.696-2.4c-1.283,0-1.966,1.014-2.049,2.4
		H177.22z"/>
	<path fill="#AB9245" d="M190.568,192.84c-0.33,0.062-0.89,0.104-1.324,0.104c-0.393,0-0.848-0.041-1.138-0.104l-0.083-0.952
		c-0.744,0.725-1.696,1.159-2.813,1.159c-3.083,0-4.407-2.462-4.407-5.421c0-3.187,1.428-5.773,4.718-5.773
		c0.807,0,1.737,0.249,2.193,0.538v-4.635c0.372-0.062,0.993-0.104,1.448-0.104c0.559,0,0.993,0.062,1.406,0.104V192.84z
		 M187.714,184.522c-0.497-0.228-1.139-0.353-1.677-0.353c-1.676,0-2.296,1.49-2.296,3.29c0,1.511,0.372,3.228,2.048,3.228
		c0.807,0,1.428-0.33,1.925-0.744V184.522z"/>
	<path fill="#AB9245" d="M197.877,180.881c-0.869,0-1.572-0.704-1.572-1.573c0-0.868,0.703-1.572,1.572-1.572
		s1.572,0.704,1.572,1.572C199.449,180.177,198.746,180.881,197.877,180.881z M199.305,192.84c-0.373,0.083-1.139,0.104-1.469,0.104
		c-0.497,0-1.035-0.041-1.387-0.104v-10.78c0.455-0.062,1.014-0.104,1.387-0.104c0.496,0,1.014,0.042,1.469,0.104V192.84z"/>
	<path fill="#AB9245" d="M210.893,192.84c-0.33,0.083-1.034,0.104-1.365,0.104c-0.352,0-1.158-0.041-1.489-0.104v-7.076
		c0-1.117-0.58-1.594-1.511-1.594c-0.745,0-1.594,0.27-2.256,0.684v7.986c-0.476,0.083-1.138,0.104-1.51,0.104
		c-0.331,0-0.932-0.021-1.345-0.104v-10.78c0.269-0.062,0.931-0.104,1.241-0.104c0.289,0,0.89,0.042,1.2,0.104l0.145,0.952
		c0.931-0.683,2.276-1.159,3.477-1.159c2.275,0,3.413,1.407,3.413,3.767V192.84z"/>
	<path fill="#AB9245" d="M225.36,192.84h-8.835c-0.187-0.435-0.249-0.973-0.249-1.448c0-0.248,0.021-0.559,0.062-0.766
		c1.448-1.469,3-3.124,4.365-4.655c1.015-1.139,1.821-2.193,1.821-3.353c0-1.014-0.703-1.593-1.945-1.593
		c-0.91,0-2.358,0.311-3.703,0.952c-0.083-0.353-0.166-0.973-0.166-1.47c0-0.248,0.042-0.744,0.124-1.076
		c1.015-0.434,2.648-0.827,4.242-0.827c2.358,0,4.428,1.097,4.428,3.642c0,2.234-1.2,3.745-3.766,6.435
		c-0.497,0.538-1.035,1.056-1.573,1.614h5.235c0.062,0.269,0.104,0.786,0.104,1.283C225.505,191.991,225.442,192.55,225.36,192.84z"
		/>
	<path fill="#AB9245" d="M231.757,193.047c-3.311,0-4.924-2.441-4.924-7.2c0-4.801,1.676-7.201,4.986-7.201
		c3.29,0,4.903,2.4,4.903,7.201C236.723,190.605,235.047,193.047,231.757,193.047z M231.777,181.066
		c-1.324,0-1.903,1.221-1.903,4.78c0,3.496,0.579,4.779,1.903,4.779s1.904-1.283,1.904-4.779
		C233.682,182.287,233.102,181.066,231.777,181.066z"/>
	<path fill="#AB9245" d="M245.146,192.84c-0.311,0.062-0.869,0.104-1.469,0.104c-0.579,0-1.097-0.041-1.469-0.104v-10.697
		l-2.938,1.945c-0.703-0.642-1.2-1.511-1.387-2.256l4.862-2.979c0.29-0.062,0.891-0.104,1.2-0.104c0.353,0,0.993,0.062,1.2,0.104
		V192.84z"/>
	<path fill="#AB9245" d="M253.488,193.047c-3.766,0-5.214-2.648-5.214-6.56c0-4.407,1.635-7.842,6.207-7.842
		c0.787,0,1.884,0.124,2.339,0.29c0.082,0.29,0.104,0.766,0.104,0.993c0,0.394-0.042,0.931-0.146,1.221
		c-0.538-0.083-1.324-0.145-1.924-0.145c-2.007,0-3.207,1.221-3.435,3.476c0.641-0.414,1.737-0.766,2.752-0.766
		c2.482,0,4.055,1.862,4.055,4.366C258.227,190.874,256.386,193.047,253.488,193.047z M253.51,186.012
		c-0.89,0-1.779,0.373-2.214,0.786c-0.021,0.207-0.021,0.477-0.021,0.786c0,1.283,0.456,3.104,2.132,3.104
		c1.158,0,1.759-1.096,1.759-2.462C255.165,186.881,254.627,186.012,253.51,186.012z"/>
	<path fill="#AB9245" d="M261.851,193.047c-0.228,0.041-0.91,0.104-1.345,0.104c-0.414,0-1.242-0.042-1.511-0.104l4.448-14.401
		c0.311-0.062,0.869-0.104,1.387-0.104c0.538,0,1.138,0.042,1.469,0.104L261.851,193.047z"/>
	<path fill="#AB9245" d="M274.66,192.84c-0.311,0.062-0.869,0.104-1.469,0.104c-0.579,0-1.097-0.041-1.469-0.104v-10.697
		l-2.938,1.945c-0.703-0.642-1.2-1.511-1.387-2.256l4.862-2.979c0.29-0.062,0.891-0.104,1.2-0.104c0.353,0,0.993,0.062,1.2,0.104
		V192.84z"/>
	<path fill="#AB9245" d="M287.431,181.19l-5.504,11.649c-0.394,0.062-0.993,0.104-1.511,0.104s-1.304-0.041-1.655-0.104
		l5.607-11.442h-6.249c-0.041-0.289-0.104-0.807-0.104-1.282c0-0.435,0.042-0.952,0.124-1.263h9.394
		c0.062,0.27,0.125,0.704,0.125,1.139C287.658,180.404,287.575,180.881,287.431,181.19z"/>
</g>
<path fill="#252525" d="M56.604,137.22c-0.563,0-1.02,0.454-1.02,1.011v6.159c0,0.558,0.457,1.011,1.02,1.011h21.74
	c0.563,0,1.02-0.453,1.02-1.011v-42.625c0-0.812-0.688-1.496-1.504-1.496H57.088c-0.816,0-1.504,0.684-1.504,1.496v5.677
	c0,0.558,0.457,1.01,1.02,1.01h6.213c1.15,0,2.086,0.928,2.086,2.068c0,1.141-0.936,2.069-2.086,2.069h-6.213
	c-0.563,0-1.02,0.452-1.02,1.01v6.159c0,0.558,0.457,1.01,1.02,1.01h6.213c1.15,0,2.086,0.928,2.086,2.068
	c0,1.142-0.936,2.068-2.086,2.068h-6.213c-0.563,0-1.02,0.453-1.02,1.011v6.157c0,0.56,0.457,1.011,1.02,1.011h6.213
	c1.15,0,2.086,0.929,2.086,2.069s-0.936,2.067-2.086,2.067H56.604z M55.667,149.537c-0.426,0-0.806,0.261-0.955,0.655
	c-1.728,4.592-6.533,16.322-15.121,36.914c-0.131,0.313-0.095,0.671,0.094,0.95c0.19,0.283,0.507,0.449,0.848,0.449h52.952
	c0.339,0,0.652-0.163,0.842-0.438c0.19-0.274,0.23-0.626,0.109-0.938c-8.065-20.537-12.588-32.268-14.237-36.914
	c-0.143-0.41-0.528-0.678-0.961-0.678H55.667z M39.704,192.643c-2.641,0-4.785-2.13-4.785-4.744c0-0.272,0.05-0.537,0.156-0.786
	c5.908-14.161,15.118-36.431,16.281-39.753c0.038-0.104,0.058-0.218,0.058-0.33v-45.265c0-0.055,0.009-0.104,0.017-0.156
	c0.011-0.08,0.023-0.163,0.029-0.25c0.021-0.282-0.074-0.558-0.27-0.764c-0.192-0.207-0.464-0.326-0.749-0.326h-3.151
	c-1.152,0-2.087-0.928-2.087-2.065c0-1.141,0.935-2.068,2.087-2.068H87.66c1.15,0,2.086,0.927,2.086,2.068
	c0,1.137-0.936,2.065-2.086,2.065h-3.155c-0.281,0-0.553,0.12-0.745,0.326c-0.194,0.203-0.292,0.482-0.272,0.76
	c0.007,0.087,0.018,0.171,0.031,0.258c0.005,0.047,0.016,0.097,0.016,0.151v45.295c0,0.104,0.017,0.213,0.049,0.312
	c1.061,3.238,9.969,26.112,15.335,39.776c0.095,0.242,0.143,0.496,0.143,0.751c0,2.614-2.148,4.744-4.787,4.744H39.704z"/>
<path fill="#252525" d="M10.021,137.22c-0.564,0-1.02,0.454-1.02,1.011v6.159c0,0.558,0.456,1.011,1.02,1.011h15.527
	c0.565,0,1.021-0.453,1.021-1.011v-43.107c0-0.561-0.456-1.014-1.021-1.014H10.021c-0.564,0-1.02,0.453-1.02,1.014v6.159
	c0,0.558,0.456,1.01,1.02,1.01h6.212c1.15,0,2.087,0.928,2.087,2.068c0,1.141-0.937,2.069-2.087,2.069h-6.212
	c-0.564,0-1.02,0.452-1.02,1.01v6.159c0,0.558,0.456,1.01,1.02,1.01h6.212c1.15,0,2.087,0.928,2.087,2.068
	c0,1.142-0.937,2.068-2.087,2.068h-6.212c-0.564,0-1.02,0.453-1.02,1.011v6.157c0,0.56,0.456,1.011,1.02,1.011h6.212
	c1.15,0,2.087,0.929,2.087,2.069s-0.937,2.067-2.087,2.067H10.021z M10.021,149.537c-0.564,0-1.02,0.451-1.02,1.011v29.251
	c0,4.802,3.941,8.707,8.784,8.707s8.784-3.905,8.784-8.707v-29.251c0-0.56-0.456-1.011-1.021-1.011H10.021z M17.785,192.643
	c-7.146,0-12.957-5.763-12.957-12.844v-78.516c0-0.561-0.457-1.014-1.018-1.014c-1.15,0-2.087-0.928-2.087-2.065
	c0-1.141,0.937-2.068,2.087-2.068h27.949c1.15,0,2.087,0.927,2.087,2.068c0,1.137-0.937,2.065-2.087,2.065
	c-0.562,0-1.018,0.453-1.018,1.014v78.516C30.742,186.88,24.928,192.643,17.785,192.643"/>
<rect x="60.729" y="173.11" fill="#252525" width="4.173" height="4.141"/>
<rect x="70.044" y="173.11" fill="#252525" width="4.173" height="4.141"/>
<rect x="60.729" y="160.795" fill="#252525" width="4.173" height="4.137"/>
<rect x="70.044" y="160.795" fill="#252525" width="4.173" height="4.137"/>
<g>
	<path fill="#252525" d="M133.944,90.992c-0.634-0.167-1.553-0.317-2.304-0.317c-2.754,0-3.89,2.187-3.89,4.941
		c0,2.721,1.085,4.841,3.79,4.841c0.885,0,1.786-0.134,2.387-0.334c0.033,0.1,0.05,0.267,0.05,0.4c0,0.167-0.017,0.384-0.05,0.484
		c-0.601,0.2-1.453,0.367-2.421,0.367c-3.038,0-4.958-1.836-4.958-5.743c0-3.522,1.853-5.876,4.975-5.876
		c0.901,0,1.853,0.167,2.404,0.384c0.05,0.133,0.066,0.3,0.066,0.451C133.994,90.691,133.978,90.875,133.944,90.992z"/>
	<path fill="#252525" d="M138.985,101.375c-2.187,0-3.589-1.502-3.589-4.507c0-3.004,1.419-4.524,3.606-4.524
		c2.187,0,3.572,1.486,3.572,4.491S141.171,101.375,138.985,101.375z M139.001,93.162c-1.603,0-2.471,1.235-2.471,3.689
		c0,2.454,0.852,3.706,2.454,3.706s2.454-1.252,2.454-3.706C141.438,94.397,140.604,93.162,139.001,93.162z"/>
	<path fill="#252525" d="M151.203,101.225c-0.134,0.034-0.334,0.067-0.534,0.067c-0.167,0-0.384-0.033-0.551-0.083v-5.292
		c0-0.801-0.101-1.419-0.334-1.853c-0.284-0.534-0.818-0.801-1.686-0.801c-0.834,0-1.836,0.467-2.487,0.968v6.978
		c-0.184,0.05-0.367,0.083-0.567,0.083c-0.167,0-0.368-0.033-0.518-0.083v-8.697c0.117-0.05,0.317-0.066,0.434-0.066
		c0.167,0,0.367,0.017,0.467,0.066l0.083,0.868h0.017c0.918-0.751,1.97-1.035,2.821-1.035c0.851,0,1.736,0.284,2.22,0.868
		c0.534,0.634,0.635,1.553,0.635,2.454V101.225z"/>
	<path fill="#252525" d="M158.213,101.125c-0.434,0.15-1.085,0.25-1.568,0.25c-1.653,0-2.438-0.785-2.438-2.638v-5.375h-1.503
		c-0.033-0.083-0.05-0.284-0.05-0.384c0-0.083,0.017-0.284,0.05-0.368l1.503-0.1v-2.27c0.134-0.05,0.351-0.083,0.534-0.083
		s0.417,0.033,0.551,0.083v2.27h2.454c0.033,0.083,0.066,0.334,0.066,0.417c0,0.117-0.033,0.317-0.066,0.434h-2.454v5.275
		c0,1.319,0.384,1.87,1.419,1.87c0.567,0,1.118-0.083,1.502-0.2c0.034,0.083,0.067,0.284,0.067,0.4
		C158.28,100.857,158.264,100.974,158.213,101.125z"/>
	<path fill="#252525" d="M160.584,90.808c-0.384,0-0.701-0.334-0.701-0.734c0-0.401,0.317-0.718,0.701-0.718
		s0.718,0.317,0.718,0.718C161.302,90.474,160.968,90.808,160.584,90.808z M161.135,101.208c-0.15,0.05-0.367,0.083-0.551,0.083
		s-0.384-0.033-0.534-0.083v-8.697c0.134-0.033,0.351-0.083,0.518-0.083c0.184,0,0.434,0.034,0.567,0.083V101.208z"/>
	<path fill="#252525" d="M170.315,101.225c-0.134,0.034-0.334,0.067-0.534,0.067c-0.167,0-0.384-0.033-0.551-0.083v-5.292
		c0-0.801-0.101-1.419-0.334-1.853c-0.284-0.534-0.818-0.801-1.687-0.801c-0.834,0-1.836,0.467-2.487,0.968v6.978
		c-0.184,0.05-0.367,0.083-0.567,0.083c-0.167,0-0.367-0.033-0.518-0.083v-8.697c0.117-0.05,0.317-0.066,0.435-0.066
		c0.167,0,0.367,0.017,0.467,0.066l0.084,0.868h0.017c0.918-0.751,1.97-1.035,2.821-1.035s1.736,0.284,2.22,0.868
		c0.534,0.634,0.635,1.553,0.635,2.454V101.225z"/>
	<path fill="#252525" d="M179.111,97.903c0,2.537-1.052,3.472-3.255,3.472c-2.254,0-3.205-0.935-3.205-3.389v-5.476
		c0.15-0.05,0.351-0.083,0.534-0.083c0.233,0,0.417,0.05,0.551,0.083v5.342c0,1.619,0.251,2.688,2.137,2.688
		c1.77,0,2.153-1.035,2.153-2.721v-5.309c0.134-0.05,0.367-0.083,0.551-0.083s0.385,0.034,0.534,0.083V97.903z"/>
	<path fill="#252525" d="M187.44,99.071c0,0.601,0,1.352,0.033,2.137c-0.117,0.05-0.301,0.083-0.451,0.083
		c-0.133,0-0.316-0.033-0.45-0.083c-0.05-0.267-0.084-0.618-0.101-0.935h-0.017c-0.567,0.701-1.569,1.102-2.554,1.102
		c-1.553,0-2.854-0.868-2.854-2.654c0-1.018,0.417-1.77,1.068-2.237c0.734-0.518,1.702-0.685,2.737-0.685
		c0.585,0,1.068,0.034,1.503,0.1v-0.484c0-1.669-0.685-2.22-2.087-2.22c-0.784,0-1.753,0.167-2.354,0.317
		c-0.033-0.083-0.067-0.267-0.067-0.434c0-0.117,0.034-0.284,0.084-0.384c0.718-0.217,1.669-0.351,2.471-0.351
		c1.986,0,3.038,0.902,3.038,2.938V99.071z M186.355,96.718c-0.484-0.067-0.985-0.101-1.419-0.101c-0.818,0-1.553,0.15-2.054,0.534
		c-0.45,0.334-0.701,0.868-0.701,1.553c0,1.219,0.785,1.803,1.87,1.803c0.901,0,1.853-0.434,2.304-1.118V96.718z"/>
	<path fill="#252525" d="M191.029,101.208c-0.184,0.05-0.367,0.083-0.568,0.083c-0.166,0-0.367-0.033-0.517-0.083V89.022
		c0.149-0.033,0.333-0.083,0.551-0.083c0.184,0,0.384,0.034,0.534,0.083V101.208z"/>
	<path fill="#252525" d="M194.617,101.208c-0.184,0.05-0.367,0.083-0.568,0.083c-0.166,0-0.367-0.033-0.517-0.083V89.022
		c0.149-0.033,0.333-0.083,0.551-0.083c0.184,0,0.384,0.034,0.534,0.083V101.208z"/>
	<path fill="#252525" d="M203.564,99.756c0,1.619-0.067,2.771-0.651,3.806c-0.668,1.186-1.986,1.753-3.172,1.753
		c-0.868,0-1.469-0.083-2.003-0.267c-0.05-0.1-0.066-0.267-0.066-0.4c0-0.1,0.033-0.317,0.066-0.417
		c0.501,0.15,1.102,0.267,1.903,0.267c1.836,0,2.838-1.319,2.838-3.606v-0.584c-0.852,0.751-1.803,1.068-2.671,1.068
		c-0.936,0-1.67-0.234-2.137-0.801c-0.518-0.618-0.585-1.519-0.585-2.42v-5.643c0.134-0.033,0.351-0.083,0.518-0.083
		c0.2,0,0.418,0.05,0.567,0.083v5.459c0,0.801,0.067,1.469,0.368,1.919c0.267,0.384,0.7,0.584,1.352,0.584
		c1.035,0,2.02-0.551,2.588-1.102v-6.861c0.149-0.033,0.367-0.083,0.567-0.083c0.167,0,0.384,0.05,0.518,0.083V99.756z"/>
	<path fill="#252525" d="M210.44,90.808c-0.384,0-0.701-0.334-0.701-0.734c0-0.401,0.317-0.718,0.701-0.718s0.718,0.317,0.718,0.718
		C211.158,90.474,210.824,90.808,210.44,90.808z M210.991,101.208c-0.15,0.05-0.367,0.083-0.551,0.083s-0.384-0.033-0.534-0.083
		v-8.697c0.133-0.033,0.351-0.083,0.518-0.083c0.184,0,0.434,0.034,0.567,0.083V101.208z"/>
	<path fill="#252525" d="M220.172,101.225c-0.134,0.034-0.334,0.067-0.534,0.067c-0.167,0-0.384-0.033-0.551-0.083v-5.292
		c0-0.801-0.101-1.419-0.334-1.853c-0.284-0.534-0.818-0.801-1.687-0.801c-0.834,0-1.836,0.467-2.487,0.968v6.978
		c-0.184,0.05-0.367,0.083-0.567,0.083c-0.167,0-0.367-0.033-0.518-0.083v-8.697c0.117-0.05,0.317-0.066,0.435-0.066
		c0.167,0,0.367,0.017,0.467,0.066l0.084,0.868h0.017c0.918-0.751,1.97-1.035,2.821-1.035s1.736,0.284,2.22,0.868
		c0.534,0.634,0.635,1.553,0.635,2.454V101.225z"/>
	<path fill="#252525" d="M228.45,94.631l-2.62,6.577c-0.15,0.05-0.317,0.083-0.451,0.083c-0.184,0-0.334-0.033-0.467-0.083
		l-2.705-6.577c-0.3-0.751-0.434-1.502-0.434-2.12c0.134-0.033,0.367-0.083,0.518-0.083c0.2,0,0.4,0.034,0.567,0.083
		c0.017,0.568,0.084,1.219,0.334,1.82l2.17,5.509h0.033l2.104-5.509c0.233-0.584,0.351-1.235,0.351-1.82
		c0.117-0.05,0.367-0.083,0.584-0.083c0.117,0,0.334,0.017,0.484,0.067C228.901,93.095,228.784,93.813,228.45,94.631z"/>
	<path fill="#252525" d="M236.696,97.151h-5.592c0.066,1.92,0.968,3.372,3.055,3.372c0.751,0,1.452-0.1,2.07-0.25
		c0.033,0.083,0.066,0.25,0.066,0.35c0,0.167-0.033,0.317-0.083,0.434c-0.651,0.201-1.47,0.317-2.154,0.317
		c-1.318,0-2.32-0.417-2.938-1.085c-0.734-0.801-1.118-2.003-1.118-3.389c0-2.421,1.218-4.558,3.655-4.558
		c2.187,0,3.055,1.803,3.055,4.006C236.713,96.601,236.713,96.901,236.696,97.151z M235.628,96.35c0-1.536-0.167-3.188-2.02-3.188
		c-1.619,0-2.404,1.485-2.504,3.188H235.628z"/>
	<path fill="#252525" d="M240.636,101.375c-0.834,0-1.702-0.15-2.304-0.384c-0.05-0.117-0.083-0.317-0.083-0.468
		c0-0.1,0.033-0.351,0.066-0.451c0.618,0.25,1.503,0.451,2.237,0.451c1.269,0,2.053-0.534,2.053-1.586
		c0-0.951-0.483-1.285-1.803-1.769c-1.836-0.668-2.438-1.436-2.438-2.571c0-1.536,1.27-2.254,2.905-2.254
		c0.551,0,1.269,0.101,1.686,0.234c0.051,0.15,0.067,0.3,0.067,0.401c0,0.133-0.034,0.367-0.067,0.484
		c-0.551-0.167-1.135-0.267-1.702-0.267c-1.186,0-1.903,0.451-1.903,1.369c0,0.801,0.451,1.186,1.819,1.703
		c1.252,0.468,2.404,0.935,2.404,2.621C243.574,100.59,242.289,101.375,240.636,101.375z"/>
	<path fill="#252525" d="M249.966,101.125c-0.434,0.15-1.085,0.25-1.568,0.25c-1.653,0-2.438-0.785-2.438-2.638v-5.375h-1.503
		c-0.033-0.083-0.05-0.284-0.05-0.384c0-0.083,0.017-0.284,0.05-0.368l1.503-0.1v-2.27c0.134-0.05,0.351-0.083,0.534-0.083
		s0.417,0.033,0.551,0.083v2.27h2.454c0.033,0.083,0.066,0.334,0.066,0.417c0,0.117-0.033,0.317-0.066,0.434h-2.454v5.275
		c0,1.319,0.384,1.87,1.419,1.87c0.567,0,1.118-0.083,1.502-0.2c0.034,0.083,0.067,0.284,0.067,0.4
		C250.033,100.857,250.017,100.974,249.966,101.125z"/>
	<path fill="#252525" d="M252.354,90.808c-0.384,0-0.701-0.334-0.701-0.734c0-0.401,0.317-0.718,0.701-0.718
		s0.718,0.317,0.718,0.718C253.071,90.474,252.737,90.808,252.354,90.808z M252.904,101.208c-0.15,0.05-0.367,0.083-0.551,0.083
		s-0.384-0.033-0.534-0.083v-8.697c0.134-0.033,0.351-0.083,0.518-0.083c0.184,0,0.434,0.034,0.567,0.083V101.208z"/>
	<path fill="#252525" d="M262.068,101.225c-0.134,0.034-0.334,0.067-0.534,0.067c-0.167,0-0.384-0.033-0.551-0.083v-5.292
		c0-0.801-0.101-1.419-0.334-1.853c-0.284-0.534-0.818-0.801-1.687-0.801c-0.834,0-1.836,0.467-2.487,0.968v6.978
		c-0.184,0.05-0.367,0.083-0.567,0.083c-0.167,0-0.367-0.033-0.518-0.083v-8.697c0.117-0.05,0.317-0.066,0.435-0.066
		c0.167,0,0.367,0.017,0.467,0.066l0.084,0.868h0.017c0.918-0.751,1.97-1.035,2.821-1.035s1.736,0.284,2.22,0.868
		c0.534,0.634,0.635,1.553,0.635,2.454V101.225z"/>
	<path fill="#252525" d="M270.748,99.756c0,1.252-0.067,2.754-0.668,3.789c-0.718,1.235-2.003,1.77-3.289,1.77
		c-0.734,0-1.368-0.083-1.902-0.267c-0.05-0.1-0.067-0.267-0.067-0.4c0-0.1,0.034-0.301,0.067-0.401
		c0.518,0.134,1.118,0.234,1.719,0.234c2.104,0,3.056-1.302,3.056-3.589v-0.701c-0.651,0.684-1.569,1.018-2.32,1.018
		c-2.221,0-3.372-1.719-3.372-4.14c0-2.972,1.752-4.725,4.34-4.725c0.685,0,1.72,0.201,2.438,0.484V99.756z M269.663,93.362
		c-0.602-0.167-1.035-0.217-1.453-0.217c-2.119,0-3.121,1.787-3.121,3.873c0,1.853,0.701,3.305,2.337,3.305
		c0.835,0,1.687-0.417,2.237-1.001V93.362z"/>
	<path fill="#252525" d="M277.624,90.808c-0.384,0-0.701-0.334-0.701-0.734c0-0.401,0.317-0.718,0.701-0.718
		s0.718,0.317,0.718,0.718C278.342,90.474,278.008,90.808,277.624,90.808z M278.175,101.208c-0.15,0.05-0.367,0.083-0.551,0.083
		s-0.384-0.033-0.534-0.083v-8.697c0.133-0.033,0.351-0.083,0.518-0.083c0.184,0,0.434,0.034,0.567,0.083V101.208z"/>
	<path fill="#252525" d="M287.355,101.225c-0.134,0.034-0.334,0.067-0.534,0.067c-0.167,0-0.384-0.033-0.551-0.083v-5.292
		c0-0.801-0.101-1.419-0.334-1.853c-0.284-0.534-0.818-0.801-1.687-0.801c-0.834,0-1.836,0.467-2.487,0.968v6.978
		c-0.184,0.05-0.367,0.083-0.567,0.083c-0.167,0-0.367-0.033-0.518-0.083v-8.697c0.117-0.05,0.317-0.066,0.435-0.066
		c0.167,0,0.367,0.017,0.467,0.066l0.084,0.868h0.017c0.918-0.751,1.97-1.035,2.821-1.035s1.736,0.284,2.22,0.868
		c0.534,0.634,0.635,1.553,0.635,2.454V101.225z"/>
</g>
<g>
	<path fill="#252525" d="M126.482,113.709c-0.968,0.133-2.02,0.483-2.804,1.085v6.811c-0.167,0.05-0.367,0.083-0.551,0.083
		s-0.367-0.033-0.534-0.083v-8.697c0.1-0.033,0.25-0.066,0.417-0.066c0.134,0,0.317,0.033,0.451,0.066l0.083,1.068h0.017
		c0.718-0.617,1.97-1.135,2.921-1.235c0.034,0.101,0.067,0.284,0.067,0.435C126.549,113.342,126.516,113.559,126.482,113.709z"/>
	<path fill="#252525" d="M134.128,117.548h-5.592c0.066,1.92,0.968,3.372,3.055,3.372c0.751,0,1.452-0.1,2.07-0.25
		c0.034,0.083,0.067,0.25,0.067,0.351c0,0.167-0.033,0.317-0.083,0.434c-0.651,0.2-1.469,0.317-2.153,0.317
		c-1.319,0-2.32-0.417-2.938-1.085c-0.734-0.802-1.119-2.003-1.119-3.389c0-2.421,1.219-4.558,3.656-4.558
		c2.187,0,3.055,1.803,3.055,4.007C134.145,116.997,134.145,117.298,134.128,117.548z M133.06,116.747
		c0-1.536-0.167-3.188-2.02-3.188c-1.619,0-2.404,1.485-2.504,3.188H133.06z"/>
	<path fill="#252525" d="M138.066,121.771c-0.834,0-1.703-0.15-2.303-0.384c-0.05-0.117-0.083-0.317-0.083-0.468
		c0-0.1,0.033-0.351,0.066-0.45c0.618,0.25,1.502,0.45,2.237,0.45c1.269,0,2.053-0.534,2.053-1.586c0-0.951-0.484-1.285-1.803-1.77
		c-1.836-0.667-2.437-1.436-2.437-2.57c0-1.536,1.269-2.254,2.905-2.254c0.551,0,1.269,0.101,1.686,0.234
		c0.05,0.149,0.066,0.3,0.066,0.4c0,0.134-0.033,0.367-0.066,0.484c-0.551-0.167-1.135-0.268-1.703-0.268
		c-1.185,0-1.903,0.451-1.903,1.369c0,0.801,0.451,1.185,1.819,1.702c1.252,0.468,2.404,0.935,2.404,2.621
		C141.005,120.987,139.719,121.771,138.066,121.771z"/>
	<path fill="#252525" d="M149.134,117.548h-5.592c0.066,1.92,0.968,3.372,3.055,3.372c0.751,0,1.452-0.1,2.07-0.25
		c0.034,0.083,0.067,0.25,0.067,0.351c0,0.167-0.033,0.317-0.083,0.434c-0.651,0.2-1.469,0.317-2.153,0.317
		c-1.319,0-2.32-0.417-2.938-1.085c-0.734-0.802-1.119-2.003-1.119-3.389c0-2.421,1.219-4.558,3.656-4.558
		c2.187,0,3.055,1.803,3.055,4.007C149.15,116.997,149.15,117.298,149.134,117.548z M148.065,116.747
		c0-1.536-0.167-3.188-2.02-3.188c-1.619,0-2.404,1.485-2.504,3.188H148.065z"/>
	<path fill="#252525" d="M157.062,119.468c0,0.601,0,1.353,0.033,2.137c-0.117,0.05-0.301,0.083-0.451,0.083
		c-0.133,0-0.316-0.033-0.45-0.083c-0.05-0.267-0.084-0.617-0.101-0.935h-0.017c-0.567,0.701-1.569,1.102-2.554,1.102
		c-1.553,0-2.854-0.868-2.854-2.654c0-1.019,0.417-1.77,1.068-2.237c0.734-0.517,1.702-0.684,2.737-0.684
		c0.584,0,1.068,0.033,1.503,0.1v-0.484c0-1.669-0.685-2.22-2.087-2.22c-0.784,0-1.753,0.167-2.354,0.317
		c-0.033-0.084-0.067-0.268-0.067-0.435c0-0.116,0.034-0.283,0.084-0.384c0.718-0.217,1.669-0.351,2.471-0.351
		c1.986,0,3.038,0.901,3.038,2.938V119.468z M155.978,117.114c-0.484-0.067-0.985-0.101-1.419-0.101
		c-0.818,0-1.553,0.15-2.054,0.534c-0.45,0.334-0.701,0.868-0.701,1.553c0,1.219,0.785,1.803,1.87,1.803
		c0.901,0,1.853-0.434,2.304-1.118V117.114z"/>
	<path fill="#252525" d="M163.421,113.709c-0.968,0.133-2.02,0.483-2.805,1.085v6.811c-0.166,0.05-0.367,0.083-0.551,0.083
		s-0.367-0.033-0.534-0.083v-8.697c0.101-0.033,0.251-0.066,0.418-0.066c0.133,0,0.316,0.033,0.45,0.066l0.084,1.068h0.017
		c0.718-0.617,1.97-1.135,2.921-1.235c0.033,0.101,0.067,0.284,0.067,0.435C163.488,113.342,163.454,113.559,163.421,113.709z"/>
	<path fill="#252525" d="M170.314,113.959c-0.534-0.217-1.235-0.351-1.853-0.351c-2.17,0-2.972,1.687-2.972,3.723
		c0,2.003,0.768,3.556,2.955,3.556c0.584,0,1.285-0.101,1.803-0.25c0.033,0.1,0.066,0.217,0.066,0.351
		c0,0.2-0.033,0.351-0.083,0.467c-0.484,0.2-1.269,0.317-1.887,0.317c-2.721,0-3.989-1.786-3.989-4.407
		c0-2.721,1.385-4.624,4.039-4.624c0.635,0,1.386,0.15,1.903,0.384c0.05,0.134,0.066,0.268,0.066,0.418
		C170.364,113.709,170.348,113.842,170.314,113.959z"/>
	<path fill="#252525" d="M178.928,121.604c-0.15,0.05-0.334,0.083-0.501,0.083c-0.2,0-0.417-0.033-0.584-0.083v-5.275
		c0-1.836-0.468-2.671-2.021-2.671c-0.834,0-1.836,0.468-2.487,0.969v6.978c-0.184,0.05-0.384,0.083-0.567,0.083
		c-0.167,0-0.367-0.033-0.518-0.083v-12.186c0.15-0.05,0.385-0.083,0.534-0.083c0.15,0,0.401,0.034,0.551,0.083v4.291
		c0.885-0.685,1.937-0.969,2.755-0.969c0.852,0,1.72,0.284,2.203,0.868c0.534,0.635,0.635,1.553,0.635,2.454V121.604z"/>
	<path fill="#252525" d="M191.096,119.468c0,0.601,0,1.353,0.033,2.137c-0.117,0.05-0.301,0.083-0.451,0.083
		c-0.133,0-0.316-0.033-0.45-0.083c-0.05-0.267-0.084-0.617-0.101-0.935h-0.017c-0.567,0.701-1.569,1.102-2.554,1.102
		c-1.553,0-2.854-0.868-2.854-2.654c0-1.019,0.417-1.77,1.068-2.237c0.734-0.517,1.702-0.684,2.737-0.684
		c0.584,0,1.068,0.033,1.503,0.1v-0.484c0-1.669-0.685-2.22-2.087-2.22c-0.784,0-1.753,0.167-2.354,0.317
		c-0.033-0.084-0.067-0.268-0.067-0.435c0-0.116,0.034-0.283,0.084-0.384c0.718-0.217,1.669-0.351,2.471-0.351
		c1.986,0,3.038,0.901,3.038,2.938V119.468z M190.011,117.114c-0.484-0.067-0.985-0.101-1.419-0.101
		c-0.818,0-1.553,0.15-2.054,0.534c-0.45,0.334-0.701,0.868-0.701,1.553c0,1.219,0.785,1.803,1.87,1.803
		c0.901,0,1.853-0.434,2.304-1.118V117.114z"/>
	<path fill="#252525" d="M200.243,121.621c-0.134,0.033-0.334,0.066-0.534,0.066c-0.167,0-0.384-0.033-0.551-0.083v-5.292
		c0-0.801-0.101-1.419-0.334-1.853c-0.284-0.534-0.818-0.802-1.687-0.802c-0.834,0-1.836,0.468-2.487,0.969v6.978
		c-0.184,0.05-0.367,0.083-0.567,0.083c-0.167,0-0.367-0.033-0.518-0.083v-8.697c0.117-0.05,0.317-0.066,0.435-0.066
		c0.167,0,0.367,0.017,0.467,0.066l0.084,0.868h0.017c0.918-0.751,1.97-1.035,2.821-1.035s1.736,0.284,2.22,0.868
		c0.534,0.635,0.635,1.553,0.635,2.454V121.621z"/>
	<path fill="#252525" d="M208.622,121.688c-0.15,0-0.334-0.05-0.434-0.083l-0.101-1.002h-0.017
		c-0.718,0.752-1.569,1.169-2.521,1.169c-2.304,0-3.405-1.92-3.405-4.257c0-2.32,0.984-4.774,3.639-4.774
		c0.835,0,1.603,0.284,2.221,0.718v-4.04c0.149-0.05,0.351-0.083,0.534-0.083c0.2,0,0.4,0.05,0.551,0.083v12.186
		C208.973,121.654,208.806,121.688,208.622,121.688z M208.005,114.376c-0.602-0.5-1.369-0.751-2.154-0.751
		c-1.936,0-2.587,1.903-2.587,3.84c0,1.485,0.468,3.422,2.337,3.422c0.901,0,1.819-0.451,2.404-1.152V114.376z"/>
	<path fill="#252525" d="M215.966,111.205c-0.384,0-0.701-0.334-0.701-0.734c0-0.401,0.317-0.718,0.701-0.718
		s0.718,0.317,0.718,0.718C216.684,110.871,216.35,111.205,215.966,111.205z M216.517,121.604c-0.15,0.05-0.367,0.083-0.551,0.083
		s-0.384-0.033-0.534-0.083v-8.697c0.133-0.033,0.351-0.083,0.518-0.083c0.184,0,0.434,0.033,0.567,0.083V121.604z"/>
	<path fill="#252525" d="M225.681,121.621c-0.134,0.033-0.334,0.066-0.534,0.066c-0.167,0-0.384-0.033-0.551-0.083v-5.292
		c0-0.801-0.101-1.419-0.334-1.853c-0.284-0.534-0.818-0.802-1.687-0.802c-0.834,0-1.836,0.468-2.487,0.969v6.978
		c-0.184,0.05-0.367,0.083-0.567,0.083c-0.167,0-0.367-0.033-0.518-0.083v-8.697c0.117-0.05,0.317-0.066,0.435-0.066
		c0.167,0,0.367,0.017,0.467,0.066l0.084,0.868h0.017c0.918-0.751,1.97-1.035,2.821-1.035s1.736,0.284,2.22,0.868
		c0.534,0.635,0.635,1.553,0.635,2.454V121.621z"/>
	<path fill="#252525" d="M234.744,121.621c-0.134,0.033-0.334,0.066-0.534,0.066c-0.167,0-0.384-0.033-0.551-0.083v-5.292
		c0-0.801-0.101-1.419-0.334-1.853c-0.284-0.534-0.818-0.802-1.687-0.802c-0.834,0-1.836,0.468-2.487,0.969v6.978
		c-0.184,0.05-0.367,0.083-0.567,0.083c-0.167,0-0.367-0.033-0.518-0.083v-8.697c0.117-0.05,0.317-0.066,0.435-0.066
		c0.167,0,0.367,0.017,0.467,0.066l0.084,0.868h0.017c0.918-0.751,1.97-1.035,2.821-1.035s1.736,0.284,2.22,0.868
		c0.534,0.635,0.635,1.553,0.635,2.454V121.621z"/>
	<path fill="#252525" d="M240.235,121.771c-2.187,0-3.589-1.502-3.589-4.507s1.419-4.524,3.605-4.524s3.572,1.486,3.572,4.49
		C243.824,120.235,242.422,121.771,240.235,121.771z M240.252,113.559c-1.603,0-2.471,1.235-2.471,3.689
		c0,2.453,0.852,3.705,2.454,3.705s2.454-1.252,2.454-3.705C242.689,114.794,241.854,113.559,240.252,113.559z"/>
	<path fill="#252525" d="M251.568,115.027l-2.62,6.577c-0.15,0.05-0.317,0.083-0.451,0.083c-0.184,0-0.334-0.033-0.467-0.083
		l-2.705-6.577c-0.3-0.751-0.434-1.502-0.434-2.12c0.134-0.033,0.367-0.083,0.518-0.083c0.2,0,0.4,0.033,0.567,0.083
		c0.017,0.567,0.084,1.219,0.334,1.819l2.17,5.509h0.033l2.104-5.509c0.233-0.584,0.351-1.235,0.351-1.819
		c0.117-0.05,0.367-0.083,0.584-0.083c0.117,0,0.334,0.017,0.484,0.066C252.02,113.491,251.902,114.209,251.568,115.027z"/>
	<path fill="#252525" d="M259.465,119.468c0,0.601,0,1.353,0.033,2.137c-0.117,0.05-0.301,0.083-0.451,0.083
		c-0.133,0-0.316-0.033-0.45-0.083c-0.05-0.267-0.084-0.617-0.101-0.935h-0.017c-0.567,0.701-1.569,1.102-2.554,1.102
		c-1.553,0-2.854-0.868-2.854-2.654c0-1.019,0.417-1.77,1.068-2.237c0.734-0.517,1.702-0.684,2.737-0.684
		c0.584,0,1.068,0.033,1.503,0.1v-0.484c0-1.669-0.685-2.22-2.087-2.22c-0.784,0-1.753,0.167-2.354,0.317
		c-0.033-0.084-0.067-0.268-0.067-0.435c0-0.116,0.034-0.283,0.084-0.384c0.718-0.217,1.669-0.351,2.471-0.351
		c1.986,0,3.038,0.901,3.038,2.938V119.468z M258.38,117.114c-0.484-0.067-0.985-0.101-1.419-0.101c-0.818,0-1.553,0.15-2.054,0.534
		c-0.45,0.334-0.701,0.868-0.701,1.553c0,1.219,0.785,1.803,1.87,1.803c0.901,0,1.853-0.434,2.304-1.118V117.114z"/>
	<path fill="#252525" d="M266.558,121.521c-0.434,0.149-1.085,0.25-1.568,0.25c-1.653,0-2.438-0.784-2.438-2.638v-5.375h-1.503
		c-0.033-0.084-0.05-0.284-0.05-0.384c0-0.084,0.017-0.284,0.05-0.367l1.503-0.101v-2.27c0.134-0.05,0.351-0.083,0.534-0.083
		s0.417,0.033,0.551,0.083v2.27h2.454c0.033,0.084,0.066,0.334,0.066,0.417c0,0.117-0.033,0.317-0.066,0.435h-2.454v5.275
		c0,1.318,0.384,1.869,1.419,1.869c0.567,0,1.118-0.083,1.502-0.2c0.034,0.083,0.067,0.284,0.067,0.4
		C266.625,121.254,266.608,121.371,266.558,121.521z"/>
	<path fill="#252525" d="M268.944,111.205c-0.384,0-0.701-0.334-0.701-0.734c0-0.401,0.317-0.718,0.701-0.718
		s0.718,0.317,0.718,0.718C269.662,110.871,269.328,111.205,268.944,111.205z M269.495,121.604c-0.15,0.05-0.367,0.083-0.551,0.083
		s-0.384-0.033-0.534-0.083v-8.697c0.133-0.033,0.351-0.083,0.518-0.083c0.184,0,0.434,0.033,0.567,0.083V121.604z"/>
	<path fill="#252525" d="M275.104,121.771c-2.187,0-3.589-1.502-3.589-4.507s1.419-4.524,3.605-4.524s3.572,1.486,3.572,4.49
		C278.693,120.235,277.291,121.771,275.104,121.771z M275.121,113.559c-1.603,0-2.471,1.235-2.471,3.689
		c0,2.453,0.852,3.705,2.454,3.705s2.454-1.252,2.454-3.705C277.559,114.794,276.724,113.559,275.121,113.559z"/>
	<path fill="#252525" d="M287.322,121.621c-0.134,0.033-0.334,0.066-0.534,0.066c-0.167,0-0.384-0.033-0.551-0.083v-5.292
		c0-0.801-0.101-1.419-0.334-1.853c-0.284-0.534-0.818-0.802-1.687-0.802c-0.834,0-1.836,0.468-2.487,0.969v6.978
		c-0.184,0.05-0.367,0.083-0.567,0.083c-0.167,0-0.367-0.033-0.518-0.083v-8.697c0.117-0.05,0.317-0.066,0.435-0.066
		c0.167,0,0.367,0.017,0.467,0.066l0.084,0.868h0.017c0.918-0.751,1.97-1.035,2.821-1.035s1.736,0.284,2.22,0.868
		c0.534,0.635,0.635,1.553,0.635,2.454V121.621z"/>
</g>
</svg>
