<?xml version="1.0" encoding="utf-8"?>
<!-- Generator: Adobe Illustrator 16.0.0, SVG Export Plug-In . SVG Version: 6.00 Build 0)  -->
<!DOCTYPE svg PUBLIC "-//W3C//DTD SVG 1.0//EN" "http://www.w3.org/TR/2001/REC-SVG-20010904/DTD/svg10.dtd">
<svg version="1.0" xmlns="http://www.w3.org/2000/svg" xmlns:xlink="http://www.w3.org/1999/xlink" x="0px" y="0px" width="300px"
	 height="300px" viewBox="0 0 300 300" style="enable-background:new 0 0 300 300;" xml:space="preserve">
<g id="Text" style="display:none;">
	<text transform="matrix(1 0 0 1 11.6631 58.9209)" style="display:inline;"><tspan x="0" y="0" style="fill:#58595B; font-family:'FSMatthew-Light'; font-size:27.8034;">In 2017 Ul</tspan><tspan x="115.632" y="0" style="fill:#58595B; font-family:'FSMatthew-Light'; font-size:27.8034;">s</tspan><tspan x="126.448" y="0" style="fill:#58595B; font-family:'FSMatthew-Light'; font-size:27.8034;">t</tspan><tspan x="136.151" y="0" style="fill:#58595B; font-family:'FSMatthew-Light'; font-size:27.8034;">er </tspan></text>
	<text transform="matrix(1 0 0 1 11.6631 86.7256)" style="display:inline;"><tspan x="0" y="0" style="fill:#58595B; font-family:'FSMatthew-Light'; font-size:27.8034;">Uni</tspan><tspan x="37.84" y="0" style="fill:#58595B; font-family:'FSMatthew-Light'; font-size:27.8034;">v</tspan><tspan x="50.796" y="0" style="fill:#58595B; font-family:'FSMatthew-Light'; font-size:27.8034;">ersi</tspan><tspan x="90.36" y="0" style="fill:#58595B; font-family:'FSMatthew-Light'; font-size:27.8034;">t</tspan><tspan x="100.202" y="0" style="fill:#58595B; font-family:'FSMatthew-Light'; font-size:27.8034;">y comple</tspan><tspan x="204.519" y="0" style="fill:#58595B; font-family:'FSMatthew-Light'; font-size:27.8034;">t</tspan><tspan x="214.222" y="0" style="fill:#58595B; font-family:'FSMatthew-Light'; font-size:27.8034;">ed its </tspan></text>
	<text transform="matrix(1 0 0 1 11.6631 170.1357)" style="display:inline;"><tspan x="0" y="0" style="fill:#B3A068; font-family:'FSMatthew-Bold'; font-size:96.0483; letter-spacing:-3;">500t</tspan><tspan x="183.928" y="0" style="fill:#B3A068; font-family:'FSMatthew-Bold'; font-size:96.0483;">h </tspan></text>
	<text transform="matrix(1 0 0 1 11.6631 215.6328)" style="display:inline;"><tspan x="0" y="0" style="fill:#B3A068; font-family:'FSMatthew-Bold'; font-size:37.9138; letter-spacing:-1;">I</tspan><tspan x="10.123" y="0" style="fill:#B3A068; font-family:'FSMatthew-Bold'; font-size:37.9138; letter-spacing:-1;">nn</tspan><tspan x="51.903" y="0" style="fill:#B3A068; font-family:'FSMatthew-Bold'; font-size:37.9138; letter-spacing:-1;">o</tspan><tspan x="71.731" y="0" style="fill:#B3A068; font-family:'FSMatthew-Bold'; font-size:37.9138; letter-spacing:-1;">v</tspan><tspan x="89.93" y="0" style="fill:#B3A068; font-family:'FSMatthew-Bold'; font-size:37.9138; letter-spacing:-1;">a</tspan><tspan x="109.114" y="0" style="fill:#B3A068; font-family:'FSMatthew-Bold'; font-size:37.9138; letter-spacing:-1;">tio</tspan><tspan x="153.624" y="0" style="fill:#B3A068; font-family:'FSMatthew-Bold'; font-size:37.9138;">n </tspan></text>
	<text transform="matrix(1 0 0 1 11.6631 248.5039)" style="display:inline;"><tspan x="0" y="0" style="fill:#B3A068; font-family:'FSMatthew-Bold'; font-size:37.9138; letter-spacing:-2;">V</tspan><tspan x="20.738" y="0" style="fill:#B3A068; font-family:'FSMatthew-Bold'; font-size:37.9138; letter-spacing:-1;">ou</tspan><tspan x="61.154" y="0" style="fill:#B3A068; font-family:'FSMatthew-Bold'; font-size:37.9138; letter-spacing:-1;">c</tspan><tspan x="78.063" y="0" style="fill:#B3A068; font-family:'FSMatthew-Bold'; font-size:37.9138; letter-spacing:-1;">h</tspan><tspan x="99.029" y="0" style="fill:#B3A068; font-family:'FSMatthew-Bold'; font-size:37.9138; letter-spacing:-1;">er </tspan><tspan x="139.217" y="0" style="fill:#B3A068; font-family:'FSMatthew-Bold'; font-size:37.9138; letter-spacing:-1;">p</tspan><tspan x="159.614" y="0" style="fill:#B3A068; font-family:'FSMatthew-Bold'; font-size:37.9138; letter-spacing:-1;">r</tspan><tspan x="172.58" y="0" style="fill:#B3A068; font-family:'FSMatthew-Bold'; font-size:37.9138; letter-spacing:-1;">oje</tspan><tspan x="221.45" y="0" style="fill:#B3A068; font-family:'FSMatthew-Bold'; font-size:37.9138;">c</tspan><tspan x="239.042" y="0" style="fill:#B3A068; font-family:'FSMatthew-Bold'; font-size:37.9138;">t</tspan></text>
</g>
<g id="Text_Flat">
	<g>
		<path style="fill:#58595B;" d="M15.972,58.921c-0.222,0.083-0.639,0.139-0.945,0.139c-0.306,0-0.723-0.056-0.945-0.139V40.127
			c0.222-0.084,0.639-0.139,0.945-0.139c0.306,0,0.723,0.055,0.945,0.139V58.921z"/>
		<path style="fill:#58595B;" d="M31.402,58.948c-0.223,0.056-0.556,0.111-0.89,0.111c-0.278,0-0.64-0.056-0.917-0.139v-8.813
			c0-1.334-0.167-2.363-0.556-3.086c-0.473-0.89-1.362-1.334-2.808-1.334c-1.39,0-3.058,0.778-4.142,1.612v11.621
			c-0.306,0.083-0.612,0.139-0.945,0.139c-0.278,0-0.612-0.056-0.862-0.139V44.437c0.194-0.084,0.528-0.111,0.723-0.111
			c0.278,0,0.612,0.027,0.778,0.111l0.139,1.445h0.028c1.529-1.251,3.281-1.724,4.698-1.724c1.418,0,2.892,0.473,3.698,1.445
			c0.89,1.057,1.057,2.586,1.057,4.087V58.948z"/>
		<path style="fill:#58595B;" d="M47.194,53.333c-1.362,1.584-2.641,2.946-3.725,4.114h8.562c0.083,0.25,0.083,0.556,0.083,0.723
			c0,0.25-0.028,0.501-0.083,0.751H41.551c-0.167-0.473-0.223-0.778-0.223-1.085c0-0.194,0-0.277,0.028-0.444
			c1.613-1.752,3.531-3.837,4.643-5.088c3.058-3.447,4.226-5.532,4.226-7.59c0-2.335-1.334-3.503-3.503-3.503
			c-1.473,0-3.197,0.445-4.559,1.057c-0.056-0.167-0.083-0.556-0.083-0.723c0-0.25,0.056-0.501,0.139-0.723
			c1.112-0.501,3.059-0.974,4.754-0.974c3.114,0,5.254,1.724,5.254,4.698C52.227,47.05,50.892,49.051,47.194,53.333z"/>
		<path style="fill:#58595B;" d="M61.375,59.198c-3.753,0-5.838-2.779-5.838-9.675c0-6.895,2.308-9.675,5.949-9.675
			c3.698,0,5.838,2.78,5.838,9.675C67.324,56.419,65.016,59.198,61.375,59.198z M61.485,41.211c-2.78,0-3.948,2.836-3.948,8.312
			c0,5.478,1.084,8.312,3.865,8.312c2.78,0,3.92-2.835,3.92-8.312C65.322,44.047,64.266,41.211,61.485,41.211z"/>
		<path style="fill:#58595B;" d="M78.389,58.921c-0.222,0.083-0.639,0.139-0.945,0.139c-0.306,0-0.723-0.056-0.945-0.139V42.018
			l-4.865,3.086c-0.278-0.25-0.612-0.751-0.723-1.224l5.95-3.781c0.194-0.056,0.5-0.11,0.723-0.11c0.278,0,0.584,0.055,0.806,0.139
			V58.921z"/>
		<path style="fill:#58595B;" d="M96.711,41.601l-7.868,17.32c-0.222,0.083-0.64,0.139-1.001,0.139
			c-0.333,0-0.695-0.056-0.945-0.139l8.09-17.32h-9.453c-0.111-0.25-0.167-0.528-0.167-0.778c0-0.223,0.056-0.501,0.139-0.695
			h11.204c0.056,0.167,0.111,0.5,0.111,0.667C96.823,41.1,96.795,41.378,96.711,41.601z"/>
		<path style="fill:#58595B;" d="M108.529,52.498c0,1.835,0.306,3.226,1.112,4.115c0.695,0.751,1.751,1.195,3.336,1.195
			c1.584,0,2.669-0.444,3.364-1.195c0.806-0.89,1.112-2.28,1.112-4.115V40.127c0.25-0.084,0.695-0.139,0.945-0.139
			c0.278,0,0.695,0.055,0.945,0.139v12.094c0,2.475-0.473,4.198-1.64,5.365c-1.029,1.029-2.585,1.612-4.726,1.612
			c-2.141,0-3.67-0.583-4.699-1.612c-1.167-1.167-1.64-2.891-1.64-5.365V40.127c0.222-0.084,0.612-0.139,0.945-0.139
			s0.667,0.055,0.945,0.139V52.498z"/>
		<path style="fill:#58595B;" d="M125.35,58.921c-0.306,0.083-0.612,0.139-0.945,0.139c-0.278,0-0.612-0.056-0.862-0.139V38.626
			c0.25-0.056,0.556-0.14,0.917-0.14c0.306,0,0.639,0.056,0.89,0.14V58.921z"/>
		<path style="fill:#58595B;" d="M132.411,59.198c-1.39,0-2.836-0.25-3.837-0.639c-0.083-0.195-0.139-0.528-0.139-0.778
			c0-0.167,0.056-0.584,0.111-0.751c1.029,0.417,2.502,0.751,3.726,0.751c2.113,0,3.419-0.89,3.419-2.642
			c0-1.585-0.806-2.141-3.002-2.947c-3.058-1.111-4.059-2.391-4.059-4.281c0-2.558,2.113-3.753,4.837-3.753
			c0.917,0,2.113,0.167,2.808,0.389c0.083,0.251,0.111,0.501,0.111,0.668c0,0.222-0.056,0.611-0.111,0.806
			c-0.917-0.277-1.891-0.444-2.836-0.444c-1.974,0-3.169,0.75-3.169,2.279c0,1.335,0.751,1.974,3.031,2.836
			c2.085,0.778,4.003,1.557,4.003,4.365C137.304,57.892,135.163,59.198,132.411,59.198z"/>
		<path style="fill:#58595B;" d="M147.702,58.781c-0.723,0.251-1.807,0.417-2.613,0.417c-2.752,0-4.059-1.307-4.059-4.393v-8.952
			h-2.502c-0.056-0.139-0.083-0.473-0.083-0.639c0-0.14,0.028-0.473,0.083-0.612l2.502-0.166v-3.781
			c0.223-0.084,0.584-0.14,0.89-0.14c0.306,0,0.695,0.056,0.917,0.14v3.781h4.087c0.056,0.139,0.111,0.556,0.111,0.694
			c0,0.195-0.056,0.528-0.111,0.723h-4.087v8.786c0,2.196,0.64,3.113,2.363,3.113c0.945,0,1.863-0.139,2.502-0.334
			c0.056,0.14,0.111,0.473,0.111,0.668C147.813,58.337,147.786,58.531,147.702,58.781z"/>
		<path style="fill:#58595B;" d="M160.047,52.165h-9.314c0.111,3.197,1.613,5.616,5.087,5.616c1.252,0,2.419-0.167,3.448-0.417
			c0.056,0.139,0.11,0.417,0.11,0.583c0,0.278-0.055,0.528-0.139,0.724c-1.084,0.333-2.446,0.527-3.586,0.527
			c-2.196,0-3.864-0.694-4.894-1.807c-1.223-1.335-1.862-3.336-1.862-5.644c0-4.031,2.029-7.59,6.088-7.59
			c3.643,0,5.088,3.002,5.088,6.672C160.074,51.247,160.074,51.748,160.047,52.165z M158.268,50.83c0-2.558-0.278-5.31-3.364-5.31
			c-2.696,0-4.003,2.475-4.17,5.31H158.268z"/>
		<path style="fill:#58595B;" d="M169.583,45.771c-1.612,0.223-3.364,0.807-4.671,1.808v11.343
			c-0.277,0.083-0.611,0.139-0.917,0.139s-0.611-0.056-0.89-0.139V44.437c0.167-0.056,0.417-0.111,0.695-0.111
			c0.222,0,0.527,0.056,0.75,0.111l0.14,1.779h0.027c1.195-1.029,3.28-1.891,4.865-2.058c0.056,0.167,0.111,0.473,0.111,0.723
			C169.694,45.159,169.639,45.521,169.583,45.771z"/>
	</g>
	<g>
		<path style="fill:#58595B;" d="M15.806,80.303c0,1.835,0.306,3.226,1.112,4.115c0.695,0.751,1.751,1.195,3.336,1.195
			c1.584,0,2.669-0.444,3.364-1.195c0.806-0.89,1.112-2.28,1.112-4.115V67.932c0.25-0.084,0.695-0.139,0.945-0.139
			c0.278,0,0.695,0.055,0.945,0.139v12.094c0,2.475-0.473,4.198-1.64,5.365c-1.029,1.029-2.585,1.612-4.726,1.612
			s-3.67-0.583-4.699-1.612c-1.167-1.167-1.64-2.891-1.64-5.365V67.932c0.222-0.084,0.612-0.139,0.945-0.139
			s0.667,0.055,0.945,0.139V80.303z"/>
		<path style="fill:#58595B;" d="M41.884,86.753c-0.223,0.056-0.556,0.111-0.89,0.111c-0.278,0-0.64-0.056-0.917-0.139v-8.813
			c0-1.334-0.167-2.363-0.556-3.086c-0.473-0.89-1.362-1.334-2.808-1.334c-1.39,0-3.058,0.778-4.142,1.612v11.621
			c-0.306,0.083-0.612,0.139-0.945,0.139c-0.278,0-0.612-0.056-0.862-0.139V72.241c0.194-0.084,0.528-0.111,0.723-0.111
			c0.278,0,0.612,0.027,0.778,0.111l0.139,1.445h0.028c1.529-1.251,3.281-1.724,4.698-1.724c1.418,0,2.892,0.473,3.698,1.445
			c0.89,1.057,1.057,2.586,1.057,4.087V86.753z"/>
		<path style="fill:#58595B;" d="M46.583,69.405c-0.639,0-1.167-0.557-1.167-1.224s0.528-1.195,1.167-1.195
			c0.64,0,1.196,0.528,1.196,1.195S47.223,69.405,46.583,69.405z M47.5,86.726c-0.25,0.083-0.611,0.139-0.917,0.139
			c-0.306,0-0.639-0.056-0.89-0.139V72.241c0.223-0.056,0.584-0.14,0.862-0.14c0.306,0,0.723,0.056,0.945,0.14V86.726z"/>
		<path style="fill:#58595B;" d="M61.208,75.771l-4.365,10.954c-0.25,0.083-0.528,0.139-0.751,0.139
			c-0.306,0-0.556-0.056-0.778-0.139L50.81,75.771c-0.5-1.251-0.723-2.502-0.723-3.53c0.222-0.056,0.611-0.14,0.862-0.14
			c0.333,0,0.667,0.056,0.945,0.14c0.028,0.944,0.139,2.029,0.556,3.03l3.614,9.174h0.056l3.503-9.174
			c0.389-0.974,0.584-2.058,0.584-3.03c0.195-0.084,0.612-0.14,0.973-0.14c0.194,0,0.556,0.028,0.806,0.111
			C61.958,73.214,61.763,74.409,61.208,75.771z"/>
		<path style="fill:#58595B;" d="M74.691,79.97h-9.313c0.111,3.197,1.613,5.616,5.088,5.616c1.251,0,2.419-0.167,3.447-0.417
			c0.056,0.139,0.111,0.417,0.111,0.583c0,0.278-0.056,0.528-0.139,0.724c-1.084,0.333-2.446,0.527-3.586,0.527
			c-2.196,0-3.864-0.694-4.893-1.807c-1.223-1.335-1.862-3.336-1.862-5.644c0-4.031,2.029-7.59,6.088-7.59
			c3.642,0,5.087,3.002,5.087,6.672C74.719,79.052,74.719,79.553,74.691,79.97z M72.912,78.635c0-2.558-0.278-5.31-3.364-5.31
			c-2.697,0-4.003,2.475-4.17,5.31H72.912z"/>
		<path style="fill:#58595B;" d="M84.228,73.575c-1.612,0.223-3.364,0.807-4.67,1.808v11.343c-0.278,0.083-0.612,0.139-0.917,0.139
			c-0.306,0-0.612-0.056-0.89-0.139V72.241c0.167-0.056,0.417-0.111,0.695-0.111c0.223,0,0.528,0.056,0.751,0.111l0.139,1.779h0.028
			c1.195-1.029,3.281-1.891,4.865-2.058c0.056,0.167,0.111,0.473,0.111,0.723C84.339,72.964,84.284,73.325,84.228,73.575z"/>
		<path style="fill:#58595B;" d="M90.262,87.003c-1.39,0-2.835-0.25-3.836-0.639c-0.083-0.195-0.139-0.528-0.139-0.778
			c0-0.167,0.056-0.584,0.111-0.751c1.029,0.417,2.502,0.751,3.726,0.751c2.113,0,3.419-0.89,3.419-2.642
			c0-1.585-0.806-2.141-3.002-2.947c-3.058-1.111-4.059-2.391-4.059-4.281c0-2.558,2.113-3.753,4.837-3.753
			c0.917,0,2.113,0.167,2.808,0.389c0.083,0.251,0.111,0.501,0.111,0.668c0,0.222-0.056,0.611-0.111,0.806
			c-0.917-0.277-1.891-0.444-2.836-0.444c-1.974,0-3.169,0.75-3.169,2.279c0,1.335,0.751,1.974,3.03,2.836
			c2.085,0.778,4.004,1.557,4.004,4.365C95.155,85.696,93.014,87.003,90.262,87.003z"/>
		<path style="fill:#58595B;" d="M99.104,69.405c-0.64,0-1.168-0.557-1.168-1.224s0.528-1.195,1.168-1.195
			c0.639,0,1.195,0.528,1.195,1.195S99.743,69.405,99.104,69.405z M100.021,86.726c-0.25,0.083-0.611,0.139-0.917,0.139
			c-0.306,0-0.64-0.056-0.89-0.139V72.241c0.222-0.056,0.583-0.14,0.862-0.14c0.306,0,0.723,0.056,0.945,0.14V86.726z"/>
		<path style="fill:#58595B;" d="M111.614,86.586c-0.723,0.251-1.807,0.417-2.613,0.417c-2.752,0-4.059-1.307-4.059-4.393v-8.952
			h-2.502c-0.056-0.139-0.083-0.473-0.083-0.639c0-0.14,0.028-0.473,0.083-0.612l2.502-0.166V68.46
			c0.223-0.084,0.584-0.14,0.89-0.14c0.306,0,0.695,0.056,0.917,0.14v3.781h4.087c0.056,0.139,0.111,0.556,0.111,0.694
			c0,0.195-0.056,0.528-0.111,0.723h-4.087v8.786c0,2.196,0.64,3.113,2.363,3.113c0.945,0,1.863-0.139,2.502-0.334
			c0.056,0.14,0.111,0.473,0.111,0.668C111.726,86.142,111.698,86.336,111.614,86.586z"/>
		<path style="fill:#58595B;" d="M124.543,84.307c0,2.696-0.111,4.615-1.084,6.339c-1.112,1.974-3.309,2.919-5.282,2.919
			c-1.446,0-2.447-0.139-3.336-0.444c-0.083-0.167-0.111-0.445-0.111-0.668c0-0.166,0.055-0.528,0.111-0.694
			c0.834,0.25,1.835,0.444,3.169,0.444c3.058,0,4.727-2.196,4.727-6.005v-0.974c-1.418,1.252-3.003,1.779-4.448,1.779
			c-1.557,0-2.78-0.389-3.559-1.334c-0.862-1.028-0.973-2.53-0.973-4.031v-9.396c0.222-0.056,0.583-0.14,0.862-0.14
			c0.333,0,0.695,0.084,0.945,0.14v9.091c0,1.334,0.111,2.446,0.611,3.197c0.445,0.64,1.168,0.973,2.252,0.973
			c1.724,0,3.364-0.917,4.31-1.835V72.241c0.25-0.056,0.611-0.14,0.945-0.14c0.278,0,0.64,0.084,0.862,0.14V84.307z"/>
		<path style="fill:#58595B;" d="M143.56,73.992c-0.89-0.361-2.057-0.584-3.086-0.584c-3.614,0-4.949,2.809-4.949,6.2
			c0,3.336,1.279,5.922,4.921,5.922c0.973,0,2.141-0.167,3.002-0.417c0.056,0.166,0.111,0.361,0.111,0.583
			c0,0.334-0.056,0.584-0.139,0.779c-0.807,0.333-2.113,0.527-3.142,0.527c-4.532,0-6.645-2.975-6.645-7.339
			c0-4.532,2.307-7.701,6.728-7.701c1.057,0,2.308,0.25,3.169,0.64c0.083,0.222,0.111,0.444,0.111,0.694
			C143.643,73.575,143.615,73.798,143.56,73.992z"/>
		<path style="fill:#58595B;" d="M151.706,87.003c-3.642,0-5.977-2.502-5.977-7.506s2.363-7.534,6.005-7.534
			c3.642,0,5.949,2.475,5.949,7.479S155.348,87.003,151.706,87.003z M151.734,73.325c-2.669,0-4.115,2.058-4.115,6.144
			c0,4.087,1.418,6.172,4.087,6.172s4.087-2.085,4.087-6.172C155.793,75.383,154.403,73.325,151.734,73.325z"/>
		<path style="fill:#58595B;" d="M180.787,86.753c-0.277,0.056-0.556,0.111-0.834,0.111c-0.333,0-0.64-0.083-0.973-0.139V77.94
			c0-3.059-0.778-4.448-3.364-4.448c-1.334,0-3.113,0.694-4.226,1.501c0.223,0.778,0.277,1.641,0.277,2.502v9.23
			c-0.277,0.083-0.556,0.139-0.834,0.139c-0.361,0-0.694-0.056-0.973-0.139V77.94c0-3.059-0.695-4.448-3.28-4.448
			c-1.391,0-3.03,0.778-4.115,1.612v11.621c-0.306,0.083-0.667,0.139-1.001,0.139c-0.277,0-0.583-0.056-0.806-0.139V72.241
			c0.139-0.056,0.444-0.111,0.751-0.111c0.25,0,0.556,0.056,0.75,0.111l0.14,1.445h0.027c1.529-1.251,3.28-1.724,4.698-1.724
			s2.78,0.473,3.587,1.445c0.111,0.111,0.194,0.25,0.277,0.39c1.474-1.195,3.364-1.835,5.172-1.835c1.417,0,2.863,0.473,3.669,1.445
			c0.89,1.057,1.057,2.586,1.057,4.087V86.753z"/>
		<path style="fill:#58595B;" d="M193.661,85.224c-1.085,0.974-2.78,1.502-4.394,1.502c-1.14,0-2.196-0.195-2.975-0.473v7.006
			c-0.277,0.083-0.528,0.139-0.917,0.139c-0.306,0-0.667-0.056-0.89-0.139V72.241c0.139-0.056,0.473-0.111,0.751-0.111
			c0.277,0,0.527,0.056,0.723,0.111l0.167,1.528h0.027c1.057-1.111,2.642-1.807,4.254-1.807c1.751,0,3.309,0.751,4.281,2.141
			c0.807,1.168,1.307,2.836,1.307,4.865C195.996,81.749,195.134,83.89,193.661,85.224z M190.213,73.437
			c-1.473,0-2.946,0.611-3.92,1.835v9.563c0.724,0.334,1.835,0.528,2.78,0.528c3.003,0,5.032-1.974,5.032-6.312
			C194.105,75.633,192.771,73.437,190.213,73.437z"/>
		<path style="fill:#58595B;" d="M200.834,86.726c-0.306,0.083-0.611,0.139-0.945,0.139c-0.277,0-0.611-0.056-0.861-0.139V66.431
			c0.25-0.056,0.556-0.14,0.917-0.14c0.306,0,0.64,0.056,0.89,0.14V86.726z"/>
		<path style="fill:#58595B;" d="M215.014,79.97H205.7c0.111,3.197,1.612,5.616,5.088,5.616c1.251,0,2.419-0.167,3.447-0.417
			c0.056,0.139,0.111,0.417,0.111,0.583c0,0.278-0.056,0.528-0.139,0.724c-1.085,0.333-2.447,0.527-3.587,0.527
			c-2.196,0-3.864-0.694-4.893-1.807c-1.224-1.335-1.863-3.336-1.863-5.644c0-4.031,2.029-7.59,6.089-7.59
			c3.642,0,5.088,3.002,5.088,6.672C215.042,79.052,215.042,79.553,215.014,79.97z M213.234,78.635c0-2.558-0.277-5.31-3.363-5.31
			c-2.697,0-4.004,2.475-4.171,5.31H213.234z"/>
		<path style="fill:#58595B;" d="M225.773,86.586c-0.723,0.251-1.808,0.417-2.613,0.417c-2.753,0-4.06-1.307-4.06-4.393v-8.952
			h-2.502c-0.056-0.139-0.083-0.473-0.083-0.639c0-0.14,0.027-0.473,0.083-0.612l2.502-0.166V68.46
			c0.223-0.084,0.584-0.14,0.89-0.14s0.695,0.056,0.918,0.14v3.781h4.087c0.056,0.139,0.11,0.556,0.11,0.694
			c0,0.195-0.055,0.528-0.11,0.723h-4.087v8.786c0,2.196,0.639,3.113,2.363,3.113c0.944,0,1.862-0.139,2.502-0.334
			c0.056,0.14,0.111,0.473,0.111,0.668C225.885,86.142,225.856,86.336,225.773,86.586z"/>
		<path style="fill:#58595B;" d="M238.117,79.97h-9.313c0.111,3.197,1.612,5.616,5.088,5.616c1.251,0,2.419-0.167,3.447-0.417
			c0.056,0.139,0.111,0.417,0.111,0.583c0,0.278-0.056,0.528-0.139,0.724c-1.085,0.333-2.447,0.527-3.587,0.527
			c-2.196,0-3.864-0.694-4.893-1.807c-1.224-1.335-1.863-3.336-1.863-5.644c0-4.031,2.029-7.59,6.089-7.59
			c3.642,0,5.088,3.002,5.088,6.672C238.146,79.052,238.146,79.553,238.117,79.97z M236.338,78.635c0-2.558-0.277-5.31-3.363-5.31
			c-2.697,0-4.004,2.475-4.171,5.31H236.338z"/>
		<path style="fill:#58595B;" d="M251.157,86.864c-0.25,0-0.556-0.083-0.723-0.139l-0.167-1.668h-0.027
			c-1.195,1.251-2.613,1.945-4.198,1.945c-3.837,0-5.672-3.196-5.672-7.089c0-3.864,1.641-7.951,6.061-7.951
			c1.391,0,2.669,0.473,3.698,1.195v-6.728c0.25-0.084,0.584-0.14,0.89-0.14c0.333,0,0.667,0.084,0.917,0.14v20.295
			C251.741,86.809,251.463,86.864,251.157,86.864z M250.129,74.688c-1.001-0.834-2.28-1.251-3.587-1.251
			c-3.225,0-4.309,3.169-4.309,6.395c0,2.474,0.778,5.699,3.892,5.699c1.502,0,3.03-0.751,4.004-1.919V74.688z"/>
		<path style="fill:#58595B;" d="M262.835,69.405c-0.64,0-1.168-0.557-1.168-1.224s0.528-1.195,1.168-1.195s1.195,0.528,1.195,1.195
			S263.475,69.405,262.835,69.405z M263.752,86.726c-0.25,0.083-0.611,0.139-0.917,0.139s-0.64-0.056-0.89-0.139V72.241
			c0.223-0.056,0.584-0.14,0.861-0.14c0.306,0,0.723,0.056,0.945,0.14V86.726z"/>
		<path style="fill:#58595B;" d="M275.347,86.586c-0.723,0.251-1.808,0.417-2.613,0.417c-2.753,0-4.06-1.307-4.06-4.393v-8.952
			h-2.502c-0.056-0.139-0.083-0.473-0.083-0.639c0-0.14,0.027-0.473,0.083-0.612l2.502-0.166V68.46
			c0.223-0.084,0.584-0.14,0.89-0.14s0.695,0.056,0.918,0.14v3.781h4.087c0.056,0.139,0.11,0.556,0.11,0.694
			c0,0.195-0.055,0.528-0.11,0.723h-4.087v8.786c0,2.196,0.639,3.113,2.363,3.113c0.944,0,1.862-0.139,2.502-0.334
			c0.056,0.14,0.111,0.473,0.111,0.668C275.458,86.142,275.43,86.336,275.347,86.586z"/>
		<path style="fill:#58595B;" d="M281.268,87.003c-1.39,0-2.836-0.25-3.836-0.639c-0.084-0.195-0.14-0.528-0.14-0.778
			c0-0.167,0.056-0.584,0.111-0.751c1.028,0.417,2.502,0.751,3.726,0.751c2.113,0,3.42-0.89,3.42-2.642
			c0-1.585-0.807-2.141-3.003-2.947c-3.059-1.111-4.06-2.391-4.06-4.281c0-2.558,2.113-3.753,4.838-3.753
			c0.918,0,2.113,0.167,2.808,0.389c0.084,0.251,0.111,0.501,0.111,0.668c0,0.222-0.056,0.611-0.111,0.806
			c-0.917-0.277-1.89-0.444-2.835-0.444c-1.975,0-3.17,0.75-3.17,2.279c0,1.335,0.751,1.974,3.03,2.836
			c2.085,0.778,4.004,1.557,4.004,4.365C286.161,85.696,284.021,87.003,281.268,87.003z"/>
	</g>
	<g>
		<path style="fill:#B3A068;" d="M35.196,171.097c-5.187,0-12.871-1.057-18.154-2.882c-0.192-0.673-0.48-2.401-0.48-4.322
			c0-2.113,0.288-4.323,0.864-6.147c4.418,1.345,11.238,2.209,16.617,2.209c6.82,0,11.239-3.65,11.239-10.182
			c0-2.786-0.769-5.283-2.401-6.916c-2.113-2.113-5.667-2.978-10.854-2.978H19.443v-34.676h36.309
			c0.288,1.537,0.48,3.938,0.48,5.667c0,1.825-0.289,4.995-0.48,6.147H31.738v11.911h4.227c7.492,0,13.447,1.345,17.674,4.994
			c3.746,3.266,5.859,8.261,5.859,15.177C59.498,163.796,48.26,171.097,35.196,171.097z"/>
		<path style="fill:#B3A068;" d="M86.773,171.097c-15.369,0-22.861-11.335-22.861-33.428c0-22.284,7.78-33.427,23.149-33.427
			c15.273,0,22.765,11.143,22.765,33.427C109.827,159.762,102.046,171.097,86.773,171.097z M86.87,115.48
			c-6.147,0-8.837,5.667-8.837,22.188c0,16.233,2.689,22.189,8.837,22.189s8.837-5.956,8.837-22.189
			C95.707,121.147,93.017,115.48,86.87,115.48z"/>
		<path style="fill:#B3A068;" d="M135.661,171.097c-15.369,0-22.861-11.335-22.861-33.428c0-22.284,7.78-33.427,23.149-33.427
			c15.273,0,22.765,11.143,22.765,33.427C158.714,159.762,150.934,171.097,135.661,171.097z M135.757,115.48
			c-6.147,0-8.837,5.667-8.837,22.188c0,16.233,2.689,22.189,8.837,22.189s8.837-5.956,8.837-22.189
			C144.594,121.147,141.904,115.48,135.757,115.48z"/>
		<path style="fill:#B3A068;" d="M195.979,169.175c-2.882,1.153-6.34,1.922-11.911,1.922c-10.854,0-16.232-5.283-16.232-15.85
			v-25.262h-8.261c-0.385-1.441-0.673-3.843-0.673-5.092c0-1.152,0.288-3.266,0.576-4.226l8.357-0.576V107.22
			c1.057-0.191,4.418-0.384,6.627-0.384c2.401,0,5.38,0.192,6.628,0.384v12.872h13.832c0.384,1.345,0.576,3.266,0.576,4.322
			c0,1.152-0.096,4.227-0.48,5.571H181.09v23.341c0,4.803,1.921,6.916,6.628,6.916c2.594,0,5.764-0.384,7.973-1.152
			c0.384,1.248,0.864,3.649,0.864,5.859C196.555,166.102,196.362,168.118,195.979,169.175z"/>
		<path style="fill:#B3A068;" d="M245.827,136.612v33.523c-1.537,0.384-4.803,0.48-6.34,0.48c-1.633,0-5.379-0.192-6.916-0.48
			v-32.755c0-5.187-2.689-7.492-7.012-7.492c-3.458,0-7.685,1.249-10.758,3.17v37.077c-2.209,0.384-5.283,0.48-7.012,0.48
			c-1.537,0-4.323-0.097-6.244-0.48v-70.023c1.249-0.288,4.034-0.48,6.436-0.48s5.379,0.192,6.82,0.48v23.533
			c4.227-2.689,10.086-4.515,15.177-4.515C240.544,119.131,245.827,125.662,245.827,136.612z"/>
	</g>
	<g>
		<path style="fill:#B3A068;" d="M20.005,215.633c-0.72,0.113-1.592,0.189-2.73,0.189c-1.024,0-1.972-0.076-2.692-0.189V190
			c0.72-0.113,1.782-0.189,2.73-0.189c1.062,0,2.01,0.076,2.692,0.189V215.633z"/>
		<path style="fill:#B3A068;" d="M41.503,215.633c-0.606,0.151-1.896,0.189-2.502,0.189c-0.645,0-2.124-0.076-2.73-0.189v-12.968
			c0-2.048-1.062-2.92-2.768-2.92c-1.365,0-2.92,0.493-4.133,1.251v14.637c-0.872,0.151-2.085,0.189-2.768,0.189
			c-0.606,0-1.706-0.038-2.464-0.189v-19.755c0.493-0.114,1.706-0.19,2.275-0.19c0.531,0,1.63,0.076,2.199,0.19l0.266,1.744
			c1.706-1.252,4.171-2.124,6.37-2.124c4.171,0,6.256,2.579,6.256,6.901V215.633z"/>
		<path style="fill:#B3A068;" d="M62.393,215.633c-0.606,0.151-1.896,0.189-2.502,0.189c-0.645,0-2.124-0.076-2.73-0.189v-12.968
			c0-2.048-1.062-2.92-2.768-2.92c-1.365,0-2.92,0.493-4.133,1.251v14.637c-0.872,0.151-2.085,0.189-2.768,0.189
			c-0.606,0-1.706-0.038-2.464-0.189v-19.755c0.493-0.114,1.706-0.19,2.275-0.19c0.531,0,1.63,0.076,2.199,0.19l0.266,1.744
			c1.706-1.252,4.171-2.124,6.37-2.124c4.171,0,6.256,2.579,6.256,6.901V215.633z"/>
		<path style="fill:#B3A068;" d="M74.145,216.012c-5.726,0-9.366-3.678-9.366-10.199c0-6.484,3.602-10.314,9.366-10.314
			s9.366,3.792,9.366,10.276C83.511,212.258,79.909,216.012,74.145,216.012z M74.145,199.594c-2.465,0-3.981,1.668-3.981,6.181
			c0,4.512,1.517,6.143,3.981,6.143s3.981-1.631,3.981-6.143C78.126,201.224,76.61,199.594,74.145,199.594z"/>
		<path style="fill:#B3A068;" d="M101.443,201.679l-5.688,13.954c-0.379,0.076-1.365,0.189-2.351,0.189
			c-1.023,0-2.124-0.113-2.578-0.189l-5.46-14.029c-0.72-1.896-1.062-3.754-1.062-5.726c0.683-0.114,1.63-0.19,2.427-0.19
			c1.1,0,1.858,0.076,2.464,0.19c0,1.402,0.19,2.957,0.683,4.436l3.489,10.011h0.076l3.602-10.011
			c0.493-1.479,0.683-2.768,0.683-4.436c0.531-0.076,1.668-0.19,2.502-0.19c0.834,0,1.707,0.076,2.313,0.19
			C102.543,198.001,102.164,199.935,101.443,201.679z"/>
		<path style="fill:#B3A068;" d="M119.68,210.135c0,1.631,0.038,3.488,0.038,5.498c-0.607,0.151-1.631,0.189-2.275,0.189
			c-0.72,0-1.668-0.076-2.275-0.189c-0.076-0.455-0.152-1.251-0.189-1.744h-0.076c-1.289,1.327-3.488,2.123-5.498,2.123
			c-3.792,0-6.522-2.351-6.522-6.256c0-6.067,5.384-7.091,9.897-7.091c0.303,0,1.023,0.038,1.63,0.075
			c0-0.228-0.038-0.72-0.076-0.909c-0.266-1.555-1.29-2.199-3.489-2.199c-1.706,0-4.095,0.341-5.915,0.796
			c-0.19-0.531-0.303-1.441-0.303-2.123c0-0.569,0.076-1.441,0.227-1.82c2.124-0.645,4.74-0.986,6.901-0.986
			c4.74,0,7.925,2.199,7.925,7.129V210.135z M114.447,206.381c-0.455-0.038-1.062-0.076-1.592-0.076c-3.413,0-4.74,1.365-4.74,3.071
			c0,1.479,0.986,2.503,2.692,2.503c1.251,0,2.654-0.606,3.64-1.479V206.381z"/>
		<path style="fill:#B3A068;" d="M135.641,215.254c-1.137,0.455-2.502,0.758-4.702,0.758c-4.285,0-6.408-2.085-6.408-6.256v-9.973
			h-3.261c-0.152-0.569-0.266-1.517-0.266-2.01c0-0.455,0.114-1.289,0.228-1.668l3.299-0.228v-5.081
			c0.417-0.076,1.744-0.152,2.616-0.152c0.948,0,2.124,0.076,2.617,0.152v5.081h5.46c0.152,0.53,0.228,1.289,0.228,1.706
			c0,0.455-0.038,1.668-0.189,2.199h-5.498v9.214c0,1.896,0.758,2.73,2.616,2.73c1.024,0,2.275-0.152,3.147-0.455
			c0.152,0.493,0.341,1.44,0.341,2.312C135.869,214.04,135.793,214.837,135.641,215.254z"/>
		<path style="fill:#B3A068;" d="M141.099,193.716c-1.593,0-2.882-1.289-2.882-2.882c0-1.592,1.289-2.882,2.882-2.882
			c1.592,0,2.881,1.29,2.881,2.882C143.98,192.427,142.691,193.716,141.099,193.716z M143.715,215.633
			c-0.683,0.151-2.085,0.189-2.692,0.189c-0.91,0-1.896-0.076-2.541-0.189v-19.755c0.834-0.114,1.858-0.19,2.541-0.19
			c0.91,0,1.858,0.076,2.692,0.19V215.633z"/>
		<path style="fill:#B3A068;" d="M155.81,216.012c-5.726,0-9.366-3.678-9.366-10.199c0-6.484,3.602-10.314,9.366-10.314
			s9.366,3.792,9.366,10.276C165.176,212.258,161.573,216.012,155.81,216.012z M155.81,199.594c-2.465,0-3.981,1.668-3.981,6.181
			c0,4.512,1.517,6.143,3.981,6.143s3.981-1.631,3.981-6.143C159.791,201.224,158.274,199.594,155.81,199.594z"/>
		<path style="fill:#B3A068;" d="M185.005,215.633c-0.607,0.151-1.896,0.189-2.503,0.189c-0.645,0-2.123-0.076-2.73-0.189v-12.968
			c0-2.048-1.062-2.92-2.768-2.92c-1.365,0-2.92,0.493-4.133,1.251v14.637c-0.872,0.151-2.086,0.189-2.769,0.189
			c-0.606,0-1.706-0.038-2.465-0.189v-19.755c0.493-0.114,1.707-0.19,2.275-0.19c0.531,0,1.631,0.076,2.199,0.19l0.266,1.744
			c1.706-1.252,4.171-2.124,6.37-2.124c4.171,0,6.257,2.579,6.257,6.901V215.633z"/>
	</g>
	<g>
		<path style="fill:#B3A068;" d="M21.787,237.28c0.569,1.593,1.138,3.375,1.403,4.892h0.076c0.265-1.517,0.796-3.299,1.365-4.892
			l2.806-8.114c0.72-2.086,1.138-4.096,1.175-6.295c0.758-0.113,1.82-0.189,2.692-0.189c0.796,0,1.934,0.076,2.616,0.189
			c0,2.541-0.455,4.968-1.479,7.659l-6.863,17.974c-0.455,0.113-1.517,0.189-2.427,0.189c-1.024,0-1.858-0.076-2.541-0.189
			l-6.75-17.897c-1.024-2.692-1.479-5.194-1.479-7.735c0.683-0.113,1.593-0.189,2.73-0.189c0.872,0,1.972,0.076,2.654,0.189
			c0,2.352,0.417,4.209,1.137,6.295L21.787,237.28z"/>
		<path style="fill:#B3A068;" d="M42.98,248.883c-5.726,0-9.366-3.678-9.366-10.199c0-6.484,3.602-10.314,9.366-10.314
			s9.366,3.792,9.366,10.276C52.346,245.129,48.744,248.883,42.98,248.883z M42.98,232.465c-2.465,0-3.981,1.668-3.981,6.181
			c0,4.512,1.517,6.143,3.981,6.143s3.981-1.631,3.981-6.143C46.962,234.095,45.445,232.465,42.98,232.465z"/>
		<path style="fill:#B3A068;" d="M71.682,240.883c0,5.649-2.654,8-8.569,8c-5.764,0-8.418-2.351-8.418-8v-12.134
			c0.531-0.076,1.555-0.19,2.579-0.19c0.91,0,2.047,0.076,2.654,0.19v12.096c0,2.957,0.872,4.019,3.261,4.019
			c2.427,0,3.261-1.062,3.261-4.019v-12.096c0.531-0.114,1.706-0.19,2.654-0.19c0.948,0,2.199,0.114,2.578,0.19V240.883z"/>
		<path style="fill:#B3A068;" d="M89.198,230.872c0,0.834-0.114,1.744-0.379,2.54c-1.251-0.492-2.882-0.796-4.437-0.796
			c-2.958,0-4.967,1.896-4.967,6.143c0,3.716,1.707,5.878,5.005,5.878c1.706,0,3.337-0.304,4.55-0.721
			c0.228,0.834,0.341,1.857,0.341,2.654c0,0.53,0,0.91-0.038,1.251c-1.517,0.683-3.526,1.062-5.422,1.062
			c-6.56,0-9.821-3.829-9.821-10.048c0-6.446,3.413-10.466,10.048-10.466c1.858,0,3.678,0.38,4.967,0.986
			C89.16,229.772,89.198,230.303,89.198,230.872z"/>
		<path style="fill:#B3A068;" d="M109.558,235.271v13.233c-0.606,0.151-1.896,0.189-2.502,0.189c-0.645,0-2.124-0.076-2.73-0.189
			v-12.93c0-2.048-1.062-2.958-2.768-2.958c-1.365,0-3.034,0.493-4.247,1.251v14.637c-0.872,0.151-2.085,0.189-2.768,0.189
			c-0.606,0-1.706-0.038-2.464-0.189v-27.643c0.493-0.113,1.592-0.189,2.541-0.189c0.948,0,2.123,0.076,2.692,0.189v9.29
			c1.668-1.062,3.981-1.782,5.991-1.782C107.472,228.369,109.558,230.948,109.558,235.271z"/>
		<path style="fill:#B3A068;" d="M129.424,240.465h-11.982c0.076,2.465,1.782,4.285,5.081,4.285c1.782,0,3.602-0.228,5.157-0.645
			c0.228,1.023,0.379,2.161,0.379,3.186c0,0.151,0,0.341-0.038,0.758c-1.934,0.568-3.943,0.834-5.915,0.834
			c-7.205,0-10.2-4.133-10.2-10.162c0-5.271,2.958-10.352,9.366-10.352c6.067,0,8.266,4.475,8.266,9.404
			C129.538,238.456,129.538,239.479,129.424,240.465z M124.305,236.711c0-2.389-0.645-4.398-3.109-4.398
			c-2.351,0-3.603,1.858-3.754,4.398H124.305z"/>
		<path style="fill:#B3A068;" d="M143.224,232.768c-1.972,0.304-4.095,0.986-5.991,1.972v13.765
			c-0.531,0.113-1.668,0.189-2.578,0.189c-0.91,0-2.237-0.076-2.654-0.189v-19.755c0.569-0.076,1.517-0.19,2.275-0.19
			c0.645,0,1.668,0.076,2.199,0.19l0.303,2.427c1.403-1.252,3.944-2.617,6.408-2.807c0.076,0.304,0.152,1.403,0.152,2.199
			C143.337,231.327,143.299,232.237,143.224,232.768z"/>
		<path style="fill:#B3A068;" d="M162.18,248.504c-1.176,0-2.769-0.189-3.716-0.455v9.366c-0.683,0.113-1.82,0.189-2.654,0.189
			c-1.024,0-1.82-0.114-2.579-0.189v-28.629c0.607-0.113,1.631-0.189,2.427-0.189c0.721,0,1.517,0.076,2.048,0.189l0.189,1.631
			c1.214-1.138,3.413-2.048,5.46-2.048c5.423,0,7.85,4.437,7.85,9.518C171.204,243.764,168.171,248.504,162.18,248.504z
			 M162.255,232.616c-1.402,0-2.882,0.568-3.791,1.403v10.048c0.72,0.228,2.123,0.379,3.109,0.379c2.806,0,4.246-2.312,4.246-6.143
			C165.819,234.55,164.454,232.616,162.255,232.616z"/>
		<path style="fill:#B3A068;" d="M184.852,232.768c-1.972,0.304-4.095,0.986-5.99,1.972v13.765
			c-0.531,0.113-1.669,0.189-2.579,0.189s-2.237-0.076-2.654-0.189v-19.755c0.569-0.076,1.517-0.19,2.275-0.19
			c0.645,0,1.668,0.076,2.199,0.19l0.304,2.427c1.402-1.252,3.943-2.617,6.408-2.807c0.075,0.304,0.151,1.403,0.151,2.199
			C184.966,231.327,184.928,232.237,184.852,232.768z"/>
		<path style="fill:#B3A068;" d="M194.822,248.883c-5.726,0-9.365-3.678-9.365-10.199c0-6.484,3.602-10.314,9.365-10.314
			s9.366,3.792,9.366,10.276C204.188,245.129,200.586,248.883,194.822,248.883z M194.822,232.465c-2.465,0-3.981,1.668-3.981,6.181
			c0,4.512,1.517,6.143,3.981,6.143s3.981-1.631,3.981-6.143C198.804,234.095,197.287,232.465,194.822,232.465z"/>
		<path style="fill:#B3A068;" d="M212.642,248.617c0,4.93-1.82,9.177-7.659,9.177c-1.023,0-2.389-0.151-3.223-0.342
			c-0.114-0.492-0.19-1.289-0.19-1.896c0-0.683,0.152-1.479,0.266-1.934c0.683,0.151,1.631,0.266,2.427,0.266
			c2.237,0,3.147-1.707,3.147-4.93v-20.21c0.834-0.114,1.857-0.19,2.54-0.19c0.91,0,1.858,0.076,2.692,0.19V248.617z
			 M210.025,226.587c-1.593,0-2.882-1.289-2.882-2.882c0-1.592,1.289-2.882,2.882-2.882s2.882,1.29,2.882,2.882
			C212.907,225.298,211.618,226.587,210.025,226.587z"/>
		<path style="fill:#B3A068;" d="M232.889,240.465h-11.982c0.076,2.465,1.782,4.285,5.081,4.285c1.782,0,3.603-0.228,5.157-0.645
			c0.228,1.023,0.379,2.161,0.379,3.186c0,0.151,0,0.341-0.038,0.758c-1.934,0.568-3.943,0.834-5.915,0.834
			c-7.204,0-10.199-4.133-10.199-10.162c0-5.271,2.957-10.352,9.365-10.352c6.067,0,8.267,4.475,8.267,9.404
			C233.003,238.456,233.003,239.479,232.889,240.465z M227.77,236.711c0-2.389-0.645-4.398-3.109-4.398
			c-2.351,0-3.602,1.858-3.754,4.398H227.77z"/>
		<path style="fill:#B3A068;" d="M249.494,230.872c0,0.834-0.114,1.744-0.38,2.54c-1.251-0.492-2.881-0.796-4.436-0.796
			c-2.958,0-4.968,1.896-4.968,6.143c0,3.716,1.706,5.878,5.005,5.878c1.707,0,3.337-0.304,4.551-0.721
			c0.228,0.834,0.341,1.857,0.341,2.654c0,0.53,0,0.91-0.038,1.251c-1.517,0.683-3.526,1.062-5.422,1.062
			c-6.56,0-9.821-3.829-9.821-10.048c0-6.446,3.413-10.466,10.049-10.466c1.858,0,3.678,0.38,4.967,0.986
			C249.456,229.772,249.494,230.303,249.494,230.872z"/>
		<path style="fill:#B3A068;" d="M265.569,248.125c-1.138,0.455-2.503,0.758-4.702,0.758c-4.285,0-6.408-2.085-6.408-6.256v-9.973
			h-3.261c-0.152-0.569-0.266-1.517-0.266-2.01c0-0.455,0.113-1.289,0.228-1.668l3.299-0.228v-5.081
			c0.417-0.076,1.744-0.152,2.616-0.152c0.948,0,2.124,0.076,2.616,0.152v5.081h5.461c0.151,0.53,0.227,1.289,0.227,1.706
			c0,0.455-0.037,1.668-0.189,2.199h-5.498v9.214c0,1.896,0.759,2.73,2.616,2.73c1.024,0,2.275-0.152,3.147-0.455
			c0.151,0.493,0.342,1.44,0.342,2.312C265.797,246.911,265.721,247.708,265.569,248.125z"/>
	</g>
</g>
</svg>
