<?xml version="1.0" encoding="utf-8"?>
<!-- Generator: Adobe Illustrator 16.0.0, SVG Export Plug-In . SVG Version: 6.00 Build 0)  -->
<!DOCTYPE svg PUBLIC "-//W3C//DTD SVG 1.1//EN" "http://www.w3.org/Graphics/SVG/1.1/DTD/svg11.dtd">
<svg version="1.1" id="Layer_1" xmlns="http://www.w3.org/2000/svg" xmlns:xlink="http://www.w3.org/1999/xlink" x="0px" y="0px"
	 width="300px" height="300px" viewBox="0 0 300 300" enable-background="new 0 0 300 300" xml:space="preserve">
<g>
	<path fill="#AA9244" d="M38.665,68.044c-1.119,0.224-3.134,0.373-5.299,0.373c-2.089,0-3.955-0.149-5.298-0.373V29.46L17.47,36.476
		c-2.538-2.313-4.329-5.448-5-8.135l17.538-10.747c1.045-0.224,3.209-0.374,4.329-0.374c1.269,0,3.583,0.224,4.329,0.374V68.044z"/>
	<path fill="#AA9244" d="M63.292,68.791c-2.985,0-6.269-0.448-8.06-1.044c-0.299-1.045-0.373-2.911-0.373-3.732
		c0-1.418,0.224-3.358,0.522-4.478c2.09,0.522,4.478,0.896,7.389,0.896c5.896,0,10.448-5,10.896-12.239
		c-2.164,1.418-5.149,2.313-8.732,2.313c-9.702,0-14.777-6.717-14.777-15.896c0-9.702,6.568-17.762,17.091-17.762
		c14.403,0,17.986,11.344,17.986,22.464C85.233,53.641,79.636,68.791,63.292,68.791z M67.471,25.355
		c-3.881,0-6.567,3.06-6.567,8.807c0,5.299,2.09,8.209,6.493,8.209c2.388,0,5.523-1.269,6.866-2.687c0-0.373,0.075-1.418,0.075-1.94
		C74.337,32.371,73.89,25.355,67.471,25.355z"/>
	<path fill="#AA9244" d="M106.576,68.791c-11.941,0-17.762-8.806-17.762-25.971c0-17.314,6.045-25.972,17.986-25.972
		c11.866,0,17.688,8.657,17.688,25.972C124.488,59.984,118.443,68.791,106.576,68.791z M106.651,25.58
		c-4.776,0-6.866,4.403-6.866,17.24c0,12.612,2.089,17.24,6.866,17.24s6.866-4.627,6.866-17.24
		C113.517,29.983,111.427,25.58,106.651,25.58z"/>
	<path fill="#AA9244" d="M128.741,81.553c-1.194-0.821-2.761-2.388-3.209-4.105c3.134-2.239,5.448-4.925,6.493-7.687
		c-1.418-1.269-2.538-3.06-2.538-5.522c0-2.911,2.538-5.299,5.523-5.299c3.358,0,5.597,2.463,5.597,6.12
		C140.607,70.88,135.159,77.821,128.741,81.553z"/>
	<path fill="#AA9244" d="M161.205,68.791c-11.942,0-17.763-8.806-17.763-25.971c0-17.314,6.045-25.972,17.985-25.972
		c11.867,0,17.688,8.657,17.688,25.972C179.115,59.984,173.07,68.791,161.205,68.791z M161.279,25.58
		c-4.777,0-6.867,4.403-6.867,17.24c0,12.612,2.09,17.24,6.867,17.24c4.775,0,6.865-4.627,6.865-17.24
		C168.145,29.983,166.055,25.58,161.279,25.58z"/>
	<path fill="#AA9244" d="M199.936,68.791c-11.939,0-17.762-8.806-17.762-25.971c0-17.314,6.045-25.972,17.986-25.972
		c11.867,0,17.688,8.657,17.688,25.972C217.848,59.984,211.803,68.791,199.936,68.791z M200.012,25.58
		c-4.777,0-6.867,4.403-6.867,17.24c0,12.612,2.09,17.24,6.867,17.24c4.775,0,6.865-4.627,6.865-17.24
		C206.877,29.983,204.787,25.58,200.012,25.58z"/>
	<path fill="#AA9244" d="M238.668,68.791c-11.939,0-17.762-8.806-17.762-25.971c0-17.314,6.045-25.972,17.986-25.972
		c11.867,0,17.688,8.657,17.688,25.972C256.58,59.984,250.535,68.791,238.668,68.791z M238.744,25.58
		c-4.777,0-6.867,4.403-6.867,17.24c0,12.612,2.09,17.24,6.867,17.24c4.775,0,6.865-4.627,6.865-17.24
		C245.609,29.983,243.52,25.58,238.744,25.58z"/>
</g>
<path fill="#AA9244" stroke="#252525" stroke-miterlimit="10" d="M32.773,230.984c4.474-1.193,8.798-2.138,13.255-1.61
	c1.862,0.221,3.775,0.749,5.459,1.567c2.807,1.363,3.49,3.878,1.863,6.517c-1.844,2.987-4.417,5.277-7.624,6.759
	c-0.402,0.185-1.169,0.04-1.543-0.245c-3.407-2.6-6.335-5.676-8.839-9.152C34.483,233.623,33.697,232.37,32.773,230.984
	 M72.518,161.606c4.587,0.02,9.066,0.719,13.479,1.979c1.585,0.454,2.719,1.338,3.673,2.578c2.098,2.729,2.598,5.937,2.876,9.247
	c0.22,2.604-0.558,4.763-2.325,6.645c-1.021,1.088-1.977,2.235-2.94,3.375c-2.494,2.948-4.047,6.32-4.227,10.201
	c-0.173,3.702-0.131,7.41-0.25,11.113c-0.137,4.236-1.292,8.166-3.992,11.501c-2.037,2.515-5.168,2.371-7.002-0.292
	c-0.667-0.968-1.233-2.075-1.537-3.2c-0.7-2.585-1.425-5.192-1.747-7.84c-0.5-4.095-2.243-7.335-5.534-9.814
	c-1.253-0.944-2.434-2.021-3.507-3.169c-4.48-4.786-7.592-10.094-6.866-17.051c0.401-3.836,0.745-7.64,2.611-11.096
	c0.303-0.566,0.926-1.116,1.528-1.345C61.83,162.517,67.102,161.644,72.518,161.606 M47.438,169.198
	c-0.042,0.281-0.058,0.401-0.081,0.523c-0.876,4.766-1.542,9.605-0.424,14.349c1.465,6.218,4.99,11.324,9.691,15.622
	c1.509,1.38,3.01,2.773,4.412,4.259c0.493,0.524,0.787,1.306,0.98,2.022c0.288,1.064,0.391,2.181,0.591,3.27
	c0.704,3.818,1.438,7.633,3.375,11.068c4.122,7.303,13.354,7.919,18.143,1.049c1.647-2.366,2.797-5.161,3.758-7.905
	c1.447-4.129,1.229-8.507,1.046-12.805c-0.222-5.311,1.074-9.957,5.111-13.626c0.188-0.172,0.329-0.391,0.502-0.578
	c3.435-3.669,4.771-7.976,3.962-12.947c-0.219-1.35-0.383-2.706-0.588-4.159c19.981,12.794,27.476,40.572,13.846,62.552
	C97.429,255,69.187,258.557,51.173,248.341c0.35-0.277,0.67-0.527,0.988-0.787c2.494-2.027,4.869-4.159,6.458-7.015
	c3.437-6.178,1.44-12.475-4.959-15.487c-3.841-1.812-7.931-2.21-12.114-1.903c-3.908,0.285-7.806,0.641-11.461,2.192
	C21.692,206.06,28.314,181.207,47.438,169.198 M72.426,155.477c-28.479-0.062-52.01,23.468-52.061,52.059
	c-0.052,28.835,23.302,52.3,52.121,52.366c28.792,0.065,52.277-23.361,52.306-52.176C124.821,178.875,101.43,155.537,72.426,155.477
	"/>
<path fill="#AA9244" stroke="#252525" stroke-miterlimit="10" d="M89.977,287.454H55.185c0.461-1.561,0.891-3.021,1.323-4.481
	h32.146C89.086,284.438,89.515,285.894,89.977,287.454 M69.462,272.279v4.52h-1.328c-4.478,0-8.958-0.004-13.439,0
	c-2.125,0-3.076,0.725-3.677,2.806c-0.934,3.228-1.866,6.459-2.774,9.7c-0.7,2.488,0.698,4.379,3.247,4.382
	c14.078,0.004,28.154,0.004,42.231-0.003c2.479,0,3.885-1.9,3.209-4.305c-0.909-3.24-1.834-6.476-2.774-9.702
	c-0.601-2.069-1.684-2.878-3.794-2.878c-4.396-0.004-8.788,0-13.183,0h-1.456v-4.624c2.088-0.237,4.205-0.383,6.288-0.73
	c21.636-3.608,37.684-15.112,47.963-34.452c5.895-11.089,8.121-23.063,6.775-35.529c-2.245-20.769-12.287-36.884-29.751-48.361
	c-1.104-0.73-2.263-1.007-3.49-0.329c-2.341,1.283-2.338,3.921,0.041,5.424c6.537,4.133,12.105,9.3,16.552,15.619
	c8.074,11.476,11.922,24.255,10.576,38.239c-2.341,24.259-15.05,41.179-37.618,50.199c-14.213,5.68-28.681,5.067-42.897-0.696
	c-0.84-0.338-1.806-0.598-2.691-0.535c-1.333,0.088-2.347,1.278-2.498,2.541c-0.16,1.33,0.573,2.782,1.976,3.248
	c4.315,1.438,8.625,2.929,13.027,4.039C63.01,271.623,66.195,271.81,69.462,272.279"/>
<g>
	<path fill="#252525" d="M38.492,105.772c-0.202,0.041-0.405,0.081-0.607,0.081c-0.243,0-0.466-0.061-0.708-0.101v-6.398
		c0-2.228-0.567-3.24-2.45-3.24c-0.972,0-2.268,0.506-3.078,1.093c0.162,0.567,0.203,1.195,0.203,1.822v6.723
		c-0.203,0.061-0.405,0.101-0.608,0.101c-0.263,0-0.506-0.041-0.708-0.101v-6.398c0-2.228-0.506-3.24-2.389-3.24
		c-1.013,0-2.207,0.567-2.997,1.174v8.464c-0.223,0.061-0.486,0.101-0.729,0.101c-0.202,0-0.425-0.041-0.587-0.101V95.203
		c0.101-0.041,0.324-0.081,0.547-0.081c0.182,0,0.405,0.041,0.546,0.081l0.102,1.053h0.02C26.161,95.345,27.437,95,28.469,95
		s2.025,0.344,2.612,1.053c0.081,0.081,0.142,0.183,0.202,0.284C32.357,95.466,33.734,95,35.05,95c1.032,0,2.085,0.344,2.672,1.053
		c0.648,0.77,0.77,1.883,0.77,2.977V105.772z"/>
	<path fill="#252525" d="M48.724,100.832H41.94c0.081,2.329,1.174,4.09,3.706,4.09c0.911,0,1.762-0.122,2.511-0.304
		c0.041,0.101,0.081,0.304,0.081,0.425c0,0.202-0.041,0.385-0.101,0.526c-0.79,0.243-1.782,0.385-2.612,0.385
		c-1.6,0-2.814-0.506-3.563-1.316c-0.891-0.972-1.357-2.43-1.357-4.11c0-2.936,1.479-5.528,4.435-5.528
		c2.652,0,3.706,2.187,3.706,4.86C48.744,100.164,48.744,100.528,48.724,100.832z M47.428,99.86c0-1.863-0.202-3.868-2.45-3.868
		c-1.964,0-2.916,1.802-3.038,3.868H47.428z"/>
	<path fill="#252525" d="M65.614,105.772c-0.202,0.041-0.405,0.081-0.607,0.081c-0.243,0-0.466-0.061-0.708-0.101v-6.398
		c0-2.228-0.567-3.24-2.45-3.24c-0.972,0-2.268,0.506-3.078,1.093c0.162,0.567,0.203,1.195,0.203,1.822v6.723
		c-0.203,0.061-0.405,0.101-0.608,0.101c-0.263,0-0.506-0.041-0.708-0.101v-6.398c0-2.228-0.506-3.24-2.389-3.24
		c-1.013,0-2.207,0.567-2.997,1.174v8.464c-0.223,0.061-0.486,0.101-0.729,0.101c-0.202,0-0.425-0.041-0.587-0.101V95.203
		c0.101-0.041,0.324-0.081,0.547-0.081c0.182,0,0.405,0.041,0.546,0.081l0.102,1.053h0.02C53.283,95.345,54.559,95,55.591,95
		s2.025,0.344,2.612,1.053c0.081,0.081,0.142,0.183,0.202,0.284C59.479,95.466,60.856,95,62.172,95c1.032,0,2.085,0.344,2.672,1.053
		c0.648,0.77,0.77,1.883,0.77,2.977V105.772z"/>
	<path fill="#252525" d="M71.553,105.955c-0.932,0-2.126-0.142-3.24-0.547V90.971c0.142-0.041,0.445-0.102,0.627-0.102
		c0.324,0,0.567,0.061,0.688,0.102v5.123C70.46,95.405,71.513,95,72.626,95c2.855,0,4.049,2.45,4.049,5.184
		C76.676,103.667,74.894,105.955,71.553,105.955z M72.444,96.134c-1.012,0-2.024,0.425-2.814,1.215v7.27
		c0.547,0.202,1.235,0.324,1.823,0.324c2.814,0,3.847-2.146,3.847-4.677C75.299,98.301,74.732,96.134,72.444,96.134z"/>
	<path fill="#252525" d="M86.399,100.832h-6.783c0.081,2.329,1.174,4.09,3.706,4.09c0.911,0,1.762-0.122,2.511-0.304
		c0.041,0.101,0.081,0.304,0.081,0.425c0,0.202-0.041,0.385-0.101,0.526c-0.79,0.243-1.782,0.385-2.612,0.385
		c-1.6,0-2.814-0.506-3.563-1.316c-0.891-0.972-1.357-2.43-1.357-4.11c0-2.936,1.478-5.528,4.435-5.528
		c2.652,0,3.706,2.187,3.706,4.86C86.419,100.164,86.419,100.528,86.399,100.832z M85.103,99.86c0-1.863-0.202-3.868-2.45-3.868
		c-1.964,0-2.916,1.802-3.038,3.868H85.103z"/>
	<path fill="#252525" d="M93.347,96.175c-1.174,0.162-2.45,0.587-3.402,1.316v8.261c-0.202,0.061-0.445,0.101-0.668,0.101
		s-0.445-0.041-0.648-0.101V95.203c0.122-0.041,0.304-0.081,0.506-0.081c0.162,0,0.384,0.041,0.546,0.081l0.102,1.296h0.02
		c0.871-0.75,2.389-1.377,3.543-1.499c0.041,0.122,0.081,0.344,0.081,0.526C93.428,95.729,93.388,95.993,93.347,96.175z"/>
	<path fill="#252525" d="M97.744,105.955c-1.012,0-2.065-0.183-2.794-0.466c-0.061-0.142-0.102-0.385-0.102-0.567
		c0-0.122,0.041-0.425,0.081-0.547c0.749,0.304,1.822,0.547,2.713,0.547c1.539,0,2.491-0.648,2.491-1.924
		c0-1.154-0.587-1.559-2.187-2.146c-2.228-0.81-2.957-1.742-2.957-3.119c0-1.863,1.539-2.733,3.523-2.733
		c0.668,0,1.539,0.122,2.045,0.284c0.061,0.182,0.081,0.364,0.081,0.486c0,0.162-0.041,0.445-0.081,0.587
		c-0.668-0.203-1.376-0.324-2.065-0.324c-1.438,0-2.309,0.547-2.309,1.66c0,0.972,0.547,1.438,2.207,2.065
		c1.519,0.567,2.916,1.134,2.916,3.179C101.308,105.003,99.749,105.955,97.744,105.955z"/>
	<path fill="#252525" d="M108.642,93.138c-0.466,0-0.851-0.405-0.851-0.891c0-0.486,0.385-0.871,0.851-0.871
		s0.871,0.385,0.871,0.871C109.512,92.733,109.107,93.138,108.642,93.138z M109.31,105.752c-0.182,0.061-0.445,0.101-0.668,0.101
		s-0.466-0.041-0.648-0.101V95.203c0.162-0.041,0.425-0.102,0.627-0.102c0.223,0,0.526,0.041,0.688,0.102V105.752z"/>
	<path fill="#252525" d="M120.245,105.772c-0.162,0.041-0.405,0.081-0.648,0.081c-0.202,0-0.465-0.041-0.668-0.101v-6.419
		c0-0.972-0.122-1.721-0.405-2.248c-0.344-0.648-0.992-0.972-2.045-0.972c-1.012,0-2.227,0.567-3.017,1.174v8.464
		c-0.223,0.061-0.445,0.101-0.688,0.101c-0.202,0-0.445-0.041-0.627-0.101V95.203c0.142-0.061,0.385-0.081,0.526-0.081
		c0.203,0,0.445,0.02,0.567,0.081l0.102,1.053h0.02c1.114-0.911,2.389-1.255,3.422-1.255s2.106,0.344,2.693,1.053
		c0.648,0.77,0.769,1.883,0.769,2.977V105.772z"/>
	<path fill="#252525" d="M131.164,105.955c-2.652,0-4.354-1.822-4.354-5.467c0-3.645,1.721-5.487,4.374-5.487
		c2.652,0,4.333,1.802,4.333,5.447C135.518,104.092,133.816,105.955,131.164,105.955z M131.185,95.993
		c-1.944,0-2.997,1.499-2.997,4.475s1.033,4.495,2.977,4.495s2.977-1.519,2.977-4.495S133.128,95.993,131.185,95.993z"/>
	<path fill="#252525" d="M145.463,101.743c0,3.078-1.276,4.212-3.949,4.212c-2.733,0-3.888-1.134-3.888-4.11v-6.642
		c0.183-0.061,0.425-0.102,0.648-0.102c0.284,0,0.506,0.061,0.668,0.102v6.479c0,1.964,0.304,3.26,2.592,3.26
		c2.146,0,2.612-1.255,2.612-3.3v-6.439c0.162-0.061,0.446-0.102,0.668-0.102s0.466,0.041,0.648,0.102V101.743z"/>
	<path fill="#252525" d="M152.877,96.175c-1.174,0.162-2.45,0.587-3.401,1.316v8.261c-0.202,0.061-0.445,0.101-0.668,0.101
		s-0.445-0.041-0.648-0.101V95.203c0.122-0.041,0.304-0.081,0.506-0.081c0.162,0,0.384,0.041,0.546,0.081l0.102,1.296h0.02
		c0.871-0.75,2.389-1.377,3.543-1.499c0.041,0.122,0.082,0.344,0.082,0.526C152.959,95.729,152.918,95.993,152.877,96.175z"/>
	<path fill="#252525" d="M167.016,103.991c0,1.519-0.082,3.341-0.811,4.597c-0.871,1.498-2.43,2.146-3.988,2.146
		c-0.893,0-1.66-0.101-2.309-0.324c-0.061-0.122-0.082-0.324-0.082-0.486c0-0.122,0.041-0.365,0.082-0.486
		c0.627,0.162,1.355,0.284,2.086,0.284c2.551,0,3.705-1.58,3.705-4.354v-0.851c-0.791,0.831-1.904,1.235-2.814,1.235
		c-2.693,0-4.09-2.085-4.09-5.021c0-3.604,2.125-5.73,5.264-5.73c0.83,0,2.086,0.243,2.957,0.587V103.991z M165.699,96.236
		c-0.729-0.203-1.256-0.263-1.762-0.263c-2.572,0-3.787,2.167-3.787,4.697c0,2.248,0.852,4.009,2.836,4.009
		c1.012,0,2.045-0.506,2.713-1.215V96.236z"/>
	<path fill="#252525" d="M171.129,105.752c-0.223,0.061-0.445,0.101-0.689,0.101c-0.201,0-0.445-0.041-0.627-0.101V90.971
		c0.182-0.041,0.404-0.102,0.668-0.102c0.223,0,0.467,0.041,0.648,0.102V105.752z"/>
	<path fill="#252525" d="M177.691,105.955c-2.654,0-4.354-1.822-4.354-5.467c0-3.645,1.721-5.487,4.373-5.487
		s4.332,1.802,4.332,5.447C182.043,104.092,180.344,105.955,177.691,105.955z M177.711,95.993c-1.943,0-2.996,1.499-2.996,4.475
		s1.031,4.495,2.977,4.495c1.943,0,2.975-1.519,2.975-4.495S179.654,95.993,177.711,95.993z"/>
	<path fill="#252525" d="M187.453,105.955c-0.932,0-2.127-0.142-3.24-0.547V90.971c0.143-0.041,0.445-0.102,0.629-0.102
		c0.322,0,0.566,0.061,0.688,0.102v5.123c0.83-0.688,1.883-1.093,2.996-1.093c2.855,0,4.051,2.45,4.051,5.184
		C192.576,103.667,190.795,105.955,187.453,105.955z M188.344,96.134c-1.012,0-2.025,0.425-2.814,1.215v7.27
		c0.547,0.202,1.234,0.324,1.822,0.324c2.814,0,3.848-2.146,3.848-4.677C191.199,98.301,190.633,96.134,188.344,96.134z"/>
	<path fill="#252525" d="M201.975,103.161c0,0.729,0,1.64,0.041,2.592c-0.141,0.061-0.363,0.101-0.547,0.101
		c-0.162,0-0.385-0.041-0.547-0.101c-0.061-0.324-0.1-0.749-0.121-1.134h-0.02c-0.689,0.85-1.904,1.336-3.098,1.336
		c-1.885,0-3.463-1.053-3.463-3.22c0-1.235,0.506-2.146,1.295-2.713c0.891-0.627,2.066-0.83,3.322-0.83
		c0.707,0,1.295,0.041,1.822,0.122v-0.587c0-2.025-0.83-2.693-2.531-2.693c-0.953,0-2.127,0.203-2.855,0.385
		c-0.041-0.101-0.082-0.324-0.082-0.526c0-0.142,0.041-0.344,0.102-0.466c0.871-0.263,2.025-0.425,2.998-0.425
		c2.408,0,3.684,1.093,3.684,3.564V103.161z M200.66,100.306c-0.588-0.081-1.195-0.122-1.723-0.122c-0.992,0-1.883,0.182-2.49,0.648
		c-0.547,0.405-0.85,1.053-0.85,1.883c0,1.478,0.951,2.187,2.268,2.187c1.094,0,2.248-0.526,2.795-1.356V100.306z"/>
	<path fill="#252525" d="M206.129,105.752c-0.223,0.061-0.445,0.101-0.688,0.101c-0.203,0-0.445-0.041-0.629-0.101V90.971
		c0.184-0.041,0.406-0.102,0.67-0.102c0.223,0,0.465,0.041,0.646,0.102V105.752z"/>
</g>
<g>
	<path fill="#252525" d="M31.041,132.41c0,0.729,0,1.64,0.041,2.592c-0.142,0.061-0.365,0.101-0.547,0.101
		c-0.162,0-0.385-0.041-0.547-0.101c-0.061-0.324-0.101-0.749-0.121-1.134h-0.021c-0.688,0.85-1.903,1.336-3.098,1.336
		c-1.883,0-3.462-1.053-3.462-3.22c0-1.235,0.506-2.146,1.296-2.713c0.891-0.627,2.065-0.83,3.321-0.83
		c0.708,0,1.296,0.041,1.822,0.122v-0.587c0-2.025-0.83-2.693-2.531-2.693c-0.952,0-2.126,0.203-2.855,0.385
		c-0.041-0.101-0.081-0.324-0.081-0.526c0-0.142,0.041-0.344,0.101-0.466c0.871-0.263,2.025-0.425,2.997-0.425
		c2.41,0,3.686,1.093,3.686,3.564V132.41z M29.725,129.555c-0.587-0.081-1.194-0.122-1.721-0.122c-0.992,0-1.883,0.182-2.49,0.648
		c-0.547,0.405-0.851,1.053-0.851,1.883c0,1.478,0.952,2.187,2.268,2.187c1.093,0,2.248-0.526,2.794-1.356V129.555z"/>
	<path fill="#252525" d="M35.195,135.001c-0.223,0.061-0.445,0.101-0.688,0.101c-0.202,0-0.445-0.041-0.627-0.101V120.22
		c0.182-0.041,0.405-0.102,0.668-0.102c0.223,0,0.466,0.041,0.648,0.102V135.001z"/>
	<path fill="#252525" d="M45.766,130.992c0,3.078-1.276,4.212-3.949,4.212c-2.733,0-3.888-1.134-3.888-4.11v-6.642
		c0.183-0.061,0.425-0.102,0.648-0.102c0.284,0,0.506,0.061,0.668,0.102v6.479c0,1.964,0.304,3.26,2.592,3.26
		c2.146,0,2.612-1.255,2.612-3.3v-6.439c0.162-0.061,0.446-0.102,0.668-0.102s0.466,0.041,0.648,0.102V130.992z"/>
	<path fill="#252525" d="M63.123,135.021c-0.202,0.041-0.405,0.081-0.607,0.081c-0.243,0-0.466-0.061-0.708-0.101v-6.398
		c0-2.228-0.567-3.24-2.45-3.24c-0.972,0-2.268,0.506-3.078,1.093c0.162,0.567,0.202,1.195,0.202,1.822v6.723
		c-0.202,0.061-0.405,0.101-0.607,0.101c-0.263,0-0.506-0.041-0.708-0.101v-6.398c0-2.228-0.506-3.24-2.389-3.24
		c-1.013,0-2.207,0.567-2.997,1.174v8.464c-0.223,0.061-0.486,0.101-0.729,0.101c-0.202,0-0.425-0.041-0.587-0.101v-10.549
		c0.101-0.041,0.324-0.081,0.547-0.081c0.182,0,0.405,0.041,0.546,0.081l0.102,1.053h0.02c1.114-0.911,2.389-1.255,3.422-1.255
		s2.025,0.344,2.612,1.053c0.081,0.081,0.142,0.183,0.202,0.284c1.073-0.871,2.45-1.336,3.767-1.336
		c1.032,0,2.085,0.344,2.672,1.053c0.648,0.77,0.77,1.883,0.77,2.977V135.021z"/>
	<path fill="#252525" d="M73.921,135.021c-0.162,0.041-0.405,0.081-0.648,0.081c-0.202,0-0.465-0.041-0.668-0.101v-6.419
		c0-0.972-0.122-1.721-0.405-2.248c-0.344-0.648-0.992-0.972-2.045-0.972c-1.012,0-2.227,0.567-3.017,1.174v8.464
		c-0.223,0.061-0.445,0.101-0.688,0.101c-0.202,0-0.445-0.041-0.627-0.101v-10.549c0.142-0.061,0.385-0.081,0.526-0.081
		c0.203,0,0.445,0.02,0.567,0.081l0.102,1.053h0.02c1.114-0.911,2.389-1.255,3.422-1.255s2.106,0.344,2.693,1.053
		c0.648,0.77,0.769,1.883,0.769,2.977V135.021z"/>
	<path fill="#252525" d="M77.347,122.387c-0.466,0-0.851-0.405-0.851-0.891c0-0.486,0.385-0.871,0.851-0.871
		s0.871,0.385,0.871,0.871C78.217,121.982,77.812,122.387,77.347,122.387z M78.015,135.001c-0.182,0.061-0.445,0.101-0.668,0.101
		s-0.466-0.041-0.648-0.101v-10.549c0.162-0.041,0.425-0.102,0.627-0.102c0.223,0,0.526,0.041,0.688,0.102V135.001z"/>
	<path fill="#252525" d="M93.406,135.021c-0.162,0.041-0.405,0.081-0.648,0.081c-0.202,0-0.465-0.041-0.668-0.101v-6.419
		c0-0.972-0.122-1.721-0.405-2.248c-0.344-0.648-0.992-0.972-2.045-0.972c-1.012,0-2.227,0.567-3.017,1.174v8.464
		c-0.223,0.061-0.445,0.101-0.688,0.101c-0.202,0-0.445-0.041-0.627-0.101v-10.549c0.142-0.061,0.385-0.081,0.526-0.081
		c0.203,0,0.445,0.02,0.567,0.081l0.102,1.053h0.02c1.114-0.911,2.389-1.255,3.422-1.255s2.106,0.344,2.693,1.053
		c0.648,0.77,0.769,1.883,0.769,2.977V135.021z"/>
	<path fill="#252525" d="M103.635,130.081h-6.783c0.081,2.329,1.174,4.09,3.706,4.09c0.911,0,1.762-0.122,2.511-0.304
		c0.041,0.101,0.081,0.304,0.081,0.425c0,0.202-0.041,0.385-0.101,0.526c-0.79,0.243-1.782,0.385-2.612,0.385
		c-1.6,0-2.814-0.506-3.563-1.316c-0.891-0.972-1.357-2.43-1.357-4.11c0-2.936,1.478-5.528,4.435-5.528
		c2.652,0,3.706,2.187,3.706,4.86C103.656,129.413,103.656,129.777,103.635,130.081z M102.339,129.109
		c0-1.863-0.202-3.868-2.45-3.868c-1.964,0-2.916,1.802-3.038,3.868H102.339z"/>
	<path fill="#252525" d="M111.475,134.9c-0.526,0.182-1.316,0.304-1.903,0.304c-2.005,0-2.957-0.952-2.957-3.199v-6.52h-1.822
		c-0.041-0.102-0.061-0.344-0.061-0.466c0-0.101,0.02-0.344,0.061-0.445l1.822-0.122v-2.754c0.162-0.061,0.425-0.101,0.648-0.101
		s0.506,0.041,0.668,0.101v2.754h2.977c0.041,0.101,0.081,0.405,0.081,0.506c0,0.142-0.04,0.385-0.081,0.527h-2.977v6.398
		c0,1.6,0.465,2.268,1.721,2.268c0.688,0,1.356-0.101,1.822-0.243c0.041,0.101,0.081,0.344,0.081,0.486
		C111.556,134.576,111.536,134.718,111.475,134.9z"/>
	<path fill="#252525" d="M125.307,126.538l-2.713,8.464c-0.162,0.061-0.466,0.101-0.627,0.101c-0.183,0-0.486-0.041-0.628-0.101
		l-2.43-8.18h-0.041l-2.551,8.18c-0.182,0.061-0.466,0.101-0.628,0.101c-0.162,0-0.425-0.041-0.607-0.101l-2.511-8.342
		c-0.223-0.688-0.324-1.478-0.344-2.228c0.162-0.041,0.486-0.081,0.688-0.081c0.223,0,0.425,0.041,0.607,0.102
		c0.021,0.729,0.142,1.498,0.324,2.167l1.842,6.581h0.021l2.632-8.768c0.142-0.041,0.425-0.061,0.567-0.061s0.445,0.02,0.567,0.061
		l2.491,8.768h0.02l2.025-6.561c0.223-0.749,0.385-1.458,0.425-2.187c0.142-0.061,0.486-0.102,0.668-0.102s0.466,0.041,0.587,0.102
		C125.692,125.141,125.53,125.829,125.307,126.538z"/>
	<path fill="#252525" d="M131.306,135.204c-2.652,0-4.354-1.822-4.354-5.467c0-3.645,1.721-5.487,4.374-5.487
		c2.652,0,4.333,1.802,4.333,5.447C135.659,133.341,133.958,135.204,131.306,135.204z M131.326,125.242
		c-1.944,0-2.997,1.499-2.997,4.475s1.033,4.495,2.977,4.495s2.977-1.519,2.977-4.495S133.27,125.242,131.326,125.242z"/>
	<path fill="#252525" d="M142.547,125.424c-1.174,0.162-2.45,0.587-3.402,1.316v8.261c-0.202,0.061-0.445,0.101-0.668,0.101
		s-0.445-0.041-0.648-0.101v-10.549c0.122-0.041,0.304-0.081,0.506-0.081c0.162,0,0.385,0.041,0.546,0.081l0.102,1.296h0.02
		c0.871-0.75,2.389-1.377,3.543-1.499c0.041,0.122,0.081,0.344,0.081,0.526C142.628,124.979,142.587,125.242,142.547,125.424z"/>
	<path fill="#252525" d="M152.369,135.001c-0.141,0.041-0.445,0.101-0.668,0.101s-0.547-0.041-0.81-0.101l-3.442-5.427l-1.539,1.438
		v3.989c-0.202,0.061-0.465,0.101-0.708,0.101c-0.162,0-0.425-0.041-0.607-0.101V120.22c0.182-0.061,0.405-0.102,0.668-0.102
		c0.243,0,0.446,0.041,0.648,0.102v9.253l3.422-3.199c0.729-0.688,1.093-1.296,1.194-1.822c0.142-0.061,0.446-0.102,0.627-0.102
		s0.467,0.041,0.588,0.102c-0.082,0.749-0.547,1.66-1.479,2.511l-1.883,1.741L152.369,135.001z"/>
</g>
</svg>
