<?xml version="1.0" encoding="utf-8"?>
<!-- Generator: Adobe Illustrator 16.0.0, SVG Export Plug-In . SVG Version: 6.00 Build 0)  -->
<!DOCTYPE svg PUBLIC "-//W3C//DTD SVG 1.1//EN" "http://www.w3.org/Graphics/SVG/1.1/DTD/svg11.dtd">
<svg version="1.1" id="Layer_1" xmlns="http://www.w3.org/2000/svg" xmlns:xlink="http://www.w3.org/1999/xlink" x="0px" y="0px"
	 width="300px" height="300px" viewBox="0 0 300 300" enable-background="new 0 0 300 300" xml:space="preserve">
<g>
	<path fill="#333333" d="M15.25,24.378c-3.314,0-5.051-2.486-5.051-6.866c0-4.38,1.736-6.866,5.051-6.866s5.051,2.486,5.051,6.866
		C20.301,21.892,18.565,24.378,15.25,24.378z M15.25,11.652c-2.387,0-3.63,1.914-3.63,5.86c0,3.946,1.243,5.859,3.63,5.859
		s3.63-1.914,3.63-5.859C18.881,13.566,17.638,11.652,15.25,11.652z"/>
	<path fill="#333333" d="M30.347,20.274c0,2.999-1.243,4.104-3.848,4.104c-2.663,0-3.788-1.105-3.788-4.005v-6.472
		c0.178-0.059,0.415-0.099,0.631-0.099c0.276,0,0.494,0.06,0.651,0.099v6.313c0,1.914,0.296,3.177,2.525,3.177
		c2.091,0,2.545-1.223,2.545-3.216v-6.274c0.158-0.059,0.434-0.099,0.651-0.099c0.217,0,0.454,0.04,0.631,0.099V20.274z"/>
	<path fill="#333333" d="M37.57,14.849c-1.144,0.158-2.387,0.572-3.314,1.282v8.05c-0.197,0.059-0.434,0.099-0.651,0.099
		c-0.217,0-0.434-0.04-0.631-0.099V13.901c0.118-0.039,0.296-0.079,0.493-0.079c0.158,0,0.375,0.04,0.533,0.079l0.099,1.263h0.02
		c0.849-0.73,2.328-1.341,3.453-1.46c0.04,0.119,0.079,0.335,0.079,0.513C37.649,14.415,37.61,14.671,37.57,14.849z"/>
	<path fill="#333333" d="M46.195,24.378c-0.987,0-2.013-0.178-2.723-0.454c-0.06-0.138-0.099-0.375-0.099-0.553
		c0-0.118,0.039-0.414,0.079-0.533c0.73,0.296,1.776,0.533,2.644,0.533c1.5,0,2.427-0.631,2.427-1.874
		c0-1.125-0.572-1.52-2.131-2.091c-2.17-0.79-2.88-1.697-2.88-3.039c0-1.815,1.499-2.664,3.433-2.664c0.651,0,1.5,0.119,1.993,0.276
		c0.059,0.178,0.079,0.355,0.079,0.474c0,0.158-0.04,0.434-0.079,0.572c-0.651-0.198-1.341-0.316-2.012-0.316
		c-1.401,0-2.25,0.533-2.25,1.618c0,0.947,0.533,1.401,2.151,2.013c1.479,0.552,2.841,1.104,2.841,3.098
		C49.667,23.451,48.148,24.378,46.195,24.378z"/>
	<path fill="#333333" d="M58.232,15.145c-0.631-0.256-1.46-0.415-2.19-0.415c-2.565,0-3.512,1.993-3.512,4.4
		c0,2.368,0.908,4.203,3.492,4.203c0.691,0,1.52-0.119,2.131-0.296c0.04,0.119,0.079,0.257,0.079,0.415
		c0,0.237-0.04,0.415-0.099,0.552c-0.572,0.237-1.5,0.375-2.229,0.375c-3.216,0-4.715-2.111-4.715-5.208
		c0-3.216,1.638-5.465,4.774-5.465c0.75,0,1.638,0.178,2.249,0.454c0.06,0.158,0.079,0.315,0.079,0.493
		C58.291,14.849,58.271,15.006,58.232,15.145z"/>
	<path fill="#333333" d="M61.055,11.889c-0.454,0-0.829-0.395-0.829-0.868s0.375-0.848,0.829-0.848c0.454,0,0.849,0.375,0.849,0.848
		S61.509,11.889,61.055,11.889z M61.707,24.181c-0.178,0.059-0.434,0.099-0.651,0.099c-0.217,0-0.454-0.04-0.631-0.099V13.901
		c0.158-0.039,0.415-0.099,0.612-0.099c0.217,0,0.513,0.04,0.671,0.099V24.181z"/>
	<path fill="#333333" d="M71.809,19.386H65.2c0.079,2.269,1.144,3.985,3.61,3.985c0.888,0,1.716-0.118,2.446-0.296
		c0.04,0.099,0.079,0.296,0.079,0.415c0,0.197-0.04,0.375-0.099,0.513c-0.77,0.237-1.736,0.375-2.545,0.375
		c-1.559,0-2.743-0.493-3.473-1.282c-0.868-0.947-1.322-2.368-1.322-4.005c0-2.861,1.44-5.386,4.321-5.386
		c2.584,0,3.61,2.131,3.61,4.735C71.829,18.735,71.829,19.09,71.809,19.386z M70.546,18.439c0-1.815-0.197-3.769-2.387-3.769
		c-1.914,0-2.841,1.756-2.959,3.769H70.546z"/>
	<path fill="#333333" d="M81.873,24.2c-0.158,0.04-0.395,0.079-0.631,0.079c-0.197,0-0.454-0.04-0.651-0.099v-6.254
		c0-0.947-0.119-1.677-0.395-2.19c-0.335-0.631-0.967-0.947-1.993-0.947c-0.987,0-2.17,0.552-2.94,1.144v8.247
		c-0.217,0.059-0.434,0.099-0.671,0.099c-0.197,0-0.434-0.04-0.611-0.099V13.901c0.138-0.059,0.375-0.079,0.513-0.079
		c0.197,0,0.434,0.02,0.553,0.079l0.099,1.026h0.02c1.085-0.888,2.328-1.223,3.334-1.223c1.006,0,2.052,0.335,2.624,1.026
		c0.631,0.75,0.75,1.835,0.75,2.9V24.2z"/>
	<path fill="#333333" d="M89.965,24.082c-0.513,0.178-1.282,0.296-1.854,0.296c-1.953,0-2.88-0.927-2.88-3.117v-6.353h-1.776
		c-0.04-0.099-0.059-0.335-0.059-0.454c0-0.099,0.02-0.335,0.059-0.434l1.776-0.119v-2.683c0.158-0.059,0.414-0.099,0.631-0.099
		c0.217,0,0.493,0.04,0.651,0.099v2.683h2.9c0.04,0.099,0.079,0.395,0.079,0.493c0,0.138-0.039,0.375-0.079,0.513h-2.9v6.234
		c0,1.559,0.454,2.21,1.677,2.21c0.67,0,1.322-0.099,1.775-0.237c0.04,0.099,0.079,0.335,0.079,0.474
		C90.044,23.766,90.024,23.904,89.965,24.082z"/>
	<path fill="#333333" d="M92.59,11.889c-0.454,0-0.829-0.395-0.829-0.868s0.375-0.848,0.829-0.848c0.454,0,0.849,0.375,0.849,0.848
		S93.044,11.889,92.59,11.889z M93.242,24.181c-0.178,0.059-0.434,0.099-0.651,0.099c-0.217,0-0.454-0.04-0.631-0.099V13.901
		c0.158-0.039,0.415-0.099,0.612-0.099c0.217,0,0.513,0.04,0.671,0.099V24.181z"/>
	<path fill="#333333" d="M98.293,24.378c-0.987,0-2.013-0.178-2.723-0.454c-0.06-0.138-0.099-0.375-0.099-0.553
		c0-0.118,0.039-0.414,0.079-0.533c0.73,0.296,1.776,0.533,2.644,0.533c1.5,0,2.427-0.631,2.427-1.874
		c0-1.125-0.572-1.52-2.131-2.091c-2.17-0.79-2.88-1.697-2.88-3.039c0-1.815,1.499-2.664,3.433-2.664c0.651,0,1.5,0.119,1.993,0.276
		c0.059,0.178,0.079,0.355,0.079,0.474c0,0.158-0.04,0.434-0.079,0.572c-0.651-0.198-1.341-0.316-2.012-0.316
		c-1.401,0-2.25,0.533-2.25,1.618c0,0.947,0.533,1.401,2.151,2.013c1.479,0.552,2.841,1.104,2.841,3.098
		C101.766,23.451,100.247,24.378,98.293,24.378z"/>
	<path fill="#333333" d="M109.167,24.082c-0.513,0.178-1.282,0.296-1.854,0.296c-1.953,0-2.88-0.927-2.88-3.117v-6.353h-1.776
		c-0.04-0.099-0.059-0.335-0.059-0.454c0-0.099,0.02-0.335,0.059-0.434l1.776-0.119v-2.683c0.158-0.059,0.414-0.099,0.631-0.099
		c0.217,0,0.493,0.04,0.651,0.099v2.683h2.9c0.04,0.099,0.079,0.395,0.079,0.493c0,0.138-0.039,0.375-0.079,0.513h-2.9v6.234
		c0,1.559,0.454,2.21,1.677,2.21c0.67,0,1.322-0.099,1.775-0.237c0.04,0.099,0.079,0.335,0.079,0.474
		C109.246,23.766,109.226,23.904,109.167,24.082z"/>
	<path fill="#333333" d="M113.371,24.378c-0.987,0-2.013-0.178-2.723-0.454c-0.06-0.138-0.099-0.375-0.099-0.553
		c0-0.118,0.039-0.414,0.079-0.533c0.73,0.296,1.776,0.533,2.644,0.533c1.5,0,2.427-0.631,2.427-1.874
		c0-1.125-0.572-1.52-2.131-2.091c-2.17-0.79-2.88-1.697-2.88-3.039c0-1.815,1.499-2.664,3.433-2.664c0.651,0,1.5,0.119,1.993,0.276
		c0.059,0.178,0.079,0.355,0.079,0.474c0,0.158-0.04,0.434-0.079,0.572c-0.651-0.198-1.341-0.316-2.012-0.316
		c-1.401,0-2.25,0.533-2.25,1.618c0,0.947,0.533,1.401,2.151,2.013c1.479,0.552,2.841,1.104,2.841,3.098
		C116.843,23.451,115.324,24.378,113.371,24.378z"/>
</g>
<g>
	<path fill="#333333" d="M130.283,21.655c0,0.71,0,1.598,0.04,2.525c-0.138,0.059-0.355,0.099-0.533,0.099
		c-0.158,0-0.375-0.04-0.533-0.099c-0.059-0.315-0.099-0.73-0.118-1.105h-0.02c-0.671,0.829-1.854,1.302-3.019,1.302
		c-1.835,0-3.374-1.026-3.374-3.137c0-1.203,0.493-2.091,1.263-2.644c0.868-0.612,2.012-0.809,3.235-0.809
		c0.69,0,1.263,0.04,1.776,0.119v-0.572c0-1.973-0.809-2.624-2.466-2.624c-0.927,0-2.072,0.197-2.782,0.375
		c-0.04-0.099-0.079-0.316-0.079-0.513c0-0.138,0.04-0.335,0.099-0.454c0.849-0.256,1.973-0.415,2.92-0.415
		c2.348,0,3.591,1.065,3.591,3.473V21.655z M129,18.874c-0.572-0.079-1.164-0.119-1.677-0.119c-0.967,0-1.834,0.178-2.427,0.631
		c-0.533,0.395-0.829,1.026-0.829,1.835c0,1.44,0.927,2.131,2.21,2.131c1.065,0,2.19-0.513,2.723-1.322V18.874z"/>
	<path fill="#333333" d="M139.479,15.145c-0.631-0.256-1.46-0.415-2.19-0.415c-2.565,0-3.512,1.993-3.512,4.4
		c0,2.368,0.908,4.203,3.492,4.203c0.691,0,1.52-0.119,2.131-0.296c0.04,0.119,0.079,0.257,0.079,0.415
		c0,0.237-0.04,0.415-0.099,0.552c-0.572,0.237-1.5,0.375-2.229,0.375c-3.216,0-4.715-2.111-4.715-5.208
		c0-3.216,1.638-5.465,4.774-5.465c0.75,0,1.638,0.178,2.249,0.454c0.06,0.158,0.079,0.315,0.079,0.493
		C139.538,14.849,139.519,15.006,139.479,15.145z"/>
	<path fill="#333333" d="M149.484,24.181c-0.178,0.059-0.395,0.099-0.592,0.099c-0.237,0-0.493-0.04-0.69-0.099v-6.234
		c0-2.17-0.553-3.157-2.387-3.157c-0.987,0-2.17,0.552-2.94,1.144v8.247c-0.217,0.059-0.454,0.099-0.671,0.099
		c-0.197,0-0.434-0.04-0.611-0.099V9.778c0.177-0.059,0.454-0.099,0.631-0.099c0.177,0,0.473,0.04,0.651,0.099v5.071
		c1.046-0.809,2.289-1.145,3.255-1.145c1.006,0,2.032,0.335,2.604,1.026c0.631,0.75,0.75,1.835,0.75,2.9V24.181z"/>
	<path fill="#333333" d="M152.821,11.889c-0.454,0-0.829-0.395-0.829-0.868s0.375-0.848,0.829-0.848
		c0.453,0,0.848,0.375,0.848,0.848S153.274,11.889,152.821,11.889z M153.472,24.181c-0.177,0.059-0.434,0.099-0.65,0.099
		c-0.218,0-0.454-0.04-0.632-0.099V13.901c0.158-0.039,0.414-0.099,0.611-0.099c0.218,0,0.514,0.04,0.671,0.099V24.181z"/>
	<path fill="#333333" d="M163.574,19.386h-6.609c0.079,2.269,1.145,3.985,3.611,3.985c0.888,0,1.716-0.118,2.446-0.296
		c0.039,0.099,0.079,0.296,0.079,0.415c0,0.197-0.04,0.375-0.1,0.513c-0.769,0.237-1.735,0.375-2.545,0.375
		c-1.559,0-2.742-0.493-3.472-1.282c-0.868-0.947-1.322-2.368-1.322-4.005c0-2.861,1.44-5.386,4.32-5.386
		c2.585,0,3.611,2.131,3.611,4.735C163.595,18.735,163.595,19.09,163.574,19.386z M162.312,18.439c0-1.815-0.197-3.769-2.387-3.769
		c-1.914,0-2.841,1.756-2.96,3.769H162.312z"/>
	<path fill="#333333" d="M172.712,16.407l-3.098,7.773c-0.178,0.059-0.375,0.099-0.533,0.099c-0.217,0-0.395-0.04-0.553-0.099
		l-3.195-7.773c-0.355-0.888-0.514-1.776-0.514-2.506c0.158-0.039,0.435-0.099,0.612-0.099c0.236,0,0.473,0.04,0.67,0.099
		c0.021,0.671,0.099,1.44,0.396,2.151l2.564,6.511h0.039l2.486-6.511c0.276-0.691,0.414-1.46,0.414-2.151
		c0.139-0.059,0.435-0.099,0.69-0.099c0.139,0,0.395,0.02,0.572,0.079C173.244,14.592,173.106,15.44,172.712,16.407z"/>
	<path fill="#333333" d="M182.282,19.386h-6.609c0.079,2.269,1.145,3.985,3.61,3.985c0.889,0,1.717-0.118,2.447-0.296
		c0.039,0.099,0.078,0.296,0.078,0.415c0,0.197-0.039,0.375-0.099,0.513c-0.769,0.237-1.735,0.375-2.545,0.375
		c-1.559,0-2.742-0.493-3.472-1.282c-0.868-0.947-1.322-2.368-1.322-4.005c0-2.861,1.44-5.386,4.32-5.386
		c2.585,0,3.611,2.131,3.611,4.735C182.303,18.735,182.303,19.09,182.282,19.386z M181.02,18.439c0-1.815-0.197-3.769-2.387-3.769
		c-1.914,0-2.841,1.756-2.96,3.769H181.02z"/>
	<path fill="#333333" d="M191.538,24.279c-0.178,0-0.395-0.059-0.514-0.099l-0.118-1.184h-0.02
		c-0.849,0.888-1.854,1.381-2.979,1.381c-2.723,0-4.024-2.269-4.024-5.031c0-2.742,1.164-5.643,4.301-5.643
		c0.986,0,1.895,0.335,2.624,0.849V9.778c0.178-0.059,0.414-0.099,0.632-0.099c0.236,0,0.474,0.06,0.65,0.099v14.403
		C191.952,24.24,191.755,24.279,191.538,24.279z M190.808,15.638c-0.71-0.592-1.617-0.888-2.545-0.888
		c-2.289,0-3.058,2.249-3.058,4.538c0,1.756,0.552,4.045,2.762,4.045c1.065,0,2.15-0.533,2.841-1.362V15.638z"/>
	<path fill="#333333" d="M206.142,21.655c0,0.71,0,1.598,0.04,2.525c-0.139,0.059-0.355,0.099-0.533,0.099
		c-0.158,0-0.375-0.04-0.532-0.099c-0.06-0.315-0.099-0.73-0.119-1.105h-0.02c-0.671,0.829-1.854,1.302-3.019,1.302
		c-1.835,0-3.374-1.026-3.374-3.137c0-1.203,0.493-2.091,1.263-2.644c0.868-0.612,2.013-0.809,3.236-0.809
		c0.69,0,1.263,0.04,1.775,0.119v-0.572c0-1.973-0.809-2.624-2.466-2.624c-0.928,0-2.072,0.197-2.782,0.375
		c-0.04-0.099-0.079-0.316-0.079-0.513c0-0.138,0.039-0.335,0.099-0.454c0.849-0.256,1.973-0.415,2.92-0.415
		c2.348,0,3.591,1.065,3.591,3.473V21.655z M204.859,18.874c-0.572-0.079-1.164-0.119-1.677-0.119c-0.967,0-1.835,0.178-2.427,0.631
		c-0.533,0.395-0.829,1.026-0.829,1.835c0,1.44,0.928,2.131,2.21,2.131c1.065,0,2.189-0.513,2.723-1.322V18.874z"/>
</g>
<g>
	<path fill="#59A6AE" d="M55.3,83.561c-0.884,0.136-2.651,0.34-4.555,0.34c-1.835,0-3.671-0.204-4.895-0.34l-5.574-22.705
		c-0.612-2.379-0.952-4.962-1.224-7.206h-0.068c-0.204,2.243-0.748,4.895-1.292,7.206l-5.506,22.705
		c-1.224,0.136-3.127,0.34-4.894,0.34c-1.7,0-3.739-0.204-4.69-0.34L12.338,49.912c-1.087-3.535-1.767-7.75-1.767-12.304
		c1.427-0.272,3.195-0.34,4.69-0.34c2.515,0,3.739,0.136,4.826,0.34c0,4.418,0.612,8.089,1.428,11.216l4.146,15.703
		c0.612,2.447,1.224,5.642,1.563,8.701h0.136c0.34-3.059,0.884-6.254,1.496-8.769l6.39-26.852c1.224-0.204,2.379-0.34,3.603-0.34
		c1.292,0,2.447,0.136,3.739,0.34l6.526,26.919c0.612,2.447,1.292,5.642,1.631,8.701h0.136c0.34-3.059,0.952-6.254,1.631-8.769
		l4.351-15.635c0.884-3.127,1.563-6.798,1.563-11.216c1.087-0.204,3.059-0.34,5.098-0.34c1.36,0,3.195,0.136,4.487,0.34
		c0,5.03-0.748,8.837-1.835,12.304L55.3,83.561z"/>
	<path fill="#59A6AE" d="M87.654,84.24c-12.576,0-19.238-8.701-19.238-23.656s6.662-23.656,19.238-23.656
		c12.576,0,19.237,8.701,19.237,23.656S100.23,84.24,87.654,84.24z M87.654,45.289c-5.846,0-9.177,4.486-9.177,15.295
		s3.331,15.295,9.177,15.295c5.846,0,9.177-4.486,9.177-15.295S93.5,45.289,87.654,45.289z"/>
	<path fill="#59A6AE" d="M144.821,83.493c-1.767,0.272-3.603,0.408-5.71,0.408c-1.903,0-3.807-0.068-5.098-0.34L124.7,67.042h-4.011
		v16.519c-1.7,0.272-3.127,0.34-4.962,0.34c-1.632,0-3.059-0.068-4.759-0.34V37.607c3.127-0.204,9.653-0.34,13.596-0.34
		c11.556,0,17.334,4.079,17.334,14.683c0,5.642-3.399,11.285-8.157,13.324L144.821,83.493z M125.175,45.221
		c-1.496,0-3.331,0.068-4.486,0.136v13.596h3.399c5.574,0,8.021-2.04,8.021-7.07S129.662,45.221,125.175,45.221z"/>
	<path fill="#59A6AE" d="M175.816,83.561h-28.143V37.607c1.292-0.204,3.059-0.34,4.759-0.34c1.903,0,3.738,0.136,4.962,0.34v37.66
		h18.422c0.272,0.748,0.477,2.175,0.477,4.079C176.293,80.841,176.157,82.133,175.816,83.561z"/>
	<path fill="#59A6AE" d="M208.987,79.482c-4.215,3.263-9.653,4.418-17.131,4.418c-3.807,0-10.265-0.136-12.439-0.34V37.607
		c3.331-0.204,10.265-0.34,14.139-0.34c14.956,0,22.637,6.322,22.637,22.772C216.192,68.538,213.949,75.607,208.987,79.482z
		 M193.76,45.289c-1.835,0-3.874,0.068-4.622,0.136v30.25c0.884,0.068,2.923,0.136,5.03,0.136c8.565,0,11.964-5.438,11.964-15.907
		C206.132,48.416,202.598,45.289,193.76,45.289z"/>
</g>
<g>
	<path fill="#59A6AE" d="M53.652,112.143H29.153v13.447h20.631c0.369,1.013,0.645,2.855,0.645,5.434
		c0,2.026-0.185,3.684-0.645,5.618H29.153v26.525c-1.75,0.276-3.776,0.461-6.539,0.461c-2.487,0-4.881-0.185-6.631-0.461v-62.261
		h37.669c0.369,1.013,0.645,2.947,0.645,5.526C54.297,108.458,54.113,110.208,53.652,112.143z"/>
	<path fill="#59A6AE" d="M72.989,163.167c-1.75,0.276-3.868,0.461-6.631,0.461c-2.487,0-4.79-0.185-6.54-0.461v-62.261
		c1.75-0.276,4.329-0.461,6.631-0.461c2.579,0,4.881,0.185,6.539,0.461V163.167z"/>
	<path fill="#59A6AE" d="M127.328,163.075c-2.395,0.368-4.881,0.553-7.736,0.553c-2.579,0-5.158-0.093-6.908-0.461l-12.618-22.381
		h-5.434v22.381c-2.302,0.368-4.237,0.461-6.723,0.461c-2.21,0-4.145-0.093-6.447-0.461v-62.261
		c4.237-0.276,13.079-0.461,18.42-0.461c15.657,0,23.486,5.526,23.486,19.894c0,7.645-4.605,15.289-11.052,18.052L127.328,163.075z
		 M100.71,111.222c-2.026,0-4.513,0.092-6.079,0.184v18.42h4.605c7.553,0,10.868-2.763,10.868-9.579
		C110.104,113.432,106.789,111.222,100.71,111.222z"/>
	<path fill="#59A6AE" d="M149.889,164.088c-6.724,0-14.092-1.289-19.341-3.684c-0.276-1.29-0.46-2.947-0.46-4.421
		c0-2.211,0.276-4.329,0.921-6.816c5.434,2.21,12.618,3.592,18.236,3.592c6.539,0,10.039-3.04,10.039-7.184
		c0-4.605-2.947-6.54-11.881-9.302c-9.947-3.04-17.223-7.829-17.223-18.513c0-11.421,9.855-17.776,22.842-17.776
		c5.986,0,11.328,0.921,14.92,2.119c0.276,1.013,0.461,2.671,0.461,5.065c0,1.75-0.185,4.421-0.553,5.895
		c-4.605-1.197-9.855-1.842-14.092-1.842c-6.908,0-10.684,2.302-10.684,5.986c0,4.329,3.408,6.079,11.696,8.658
		c9.947,3.131,17.315,7.829,17.315,18.881C172.085,156.812,162.599,164.088,149.889,164.088z"/>
	<path fill="#59A6AE" d="M218.501,112.143h-16.486v51.024c-1.75,0.276-4.237,0.461-6.539,0.461c-2.303,0-4.79-0.185-6.632-0.461
		v-51.024h-16.486c-0.368-1.197-0.645-4.053-0.645-5.618c0-1.566,0.368-4.421,0.736-5.618h46.052
		c0.368,1.197,0.645,4.052,0.645,5.618C219.146,108.09,218.869,110.945,218.501,112.143z"/>
</g>
<g>
	<path fill="#333333" d="M17.5,189.579c-0.177,0-0.395-0.06-0.513-0.099l-0.119-1.184h-0.02c-0.848,0.888-1.854,1.381-2.979,1.381
		c-2.723,0-4.025-2.269-4.025-5.031c0-2.742,1.164-5.643,4.301-5.643c0.987,0,1.894,0.336,2.624,0.849v-4.774
		c0.178-0.06,0.415-0.099,0.631-0.099c0.237,0,0.474,0.059,0.651,0.099v14.402C17.914,189.54,17.717,189.579,17.5,189.579z
		 M16.77,180.938c-0.71-0.592-1.618-0.888-2.545-0.888c-2.289,0-3.058,2.249-3.058,4.538c0,1.756,0.552,4.044,2.762,4.044
		c1.065,0,2.15-0.532,2.841-1.361V180.938z"/>
	<path fill="#333333" d="M22.04,177.188c-0.454,0-0.829-0.395-0.829-0.867c0-0.474,0.375-0.849,0.829-0.849
		c0.454,0,0.849,0.375,0.849,0.849C22.889,176.794,22.494,177.188,22.04,177.188z M22.691,189.48
		c-0.178,0.06-0.434,0.099-0.651,0.099c-0.217,0-0.454-0.039-0.631-0.099v-10.279c0.158-0.039,0.415-0.099,0.612-0.099
		c0.217,0,0.513,0.04,0.671,0.099V189.48z"/>
	<path fill="#333333" d="M27.743,189.678c-0.987,0-2.013-0.178-2.723-0.454c-0.06-0.138-0.099-0.374-0.099-0.552
		c0-0.119,0.039-0.415,0.079-0.533c0.73,0.296,1.776,0.533,2.644,0.533c1.5,0,2.427-0.632,2.427-1.875
		c0-1.124-0.572-1.519-2.131-2.091c-2.17-0.789-2.881-1.697-2.881-3.038c0-1.815,1.5-2.664,3.433-2.664
		c0.651,0,1.5,0.118,1.993,0.276c0.059,0.178,0.079,0.355,0.079,0.474c0,0.157-0.04,0.434-0.079,0.572
		c-0.651-0.197-1.341-0.316-2.012-0.316c-1.401,0-2.25,0.533-2.25,1.618c0,0.947,0.533,1.401,2.151,2.013
		c1.479,0.553,2.841,1.104,2.841,3.098C31.215,188.75,29.696,189.678,27.743,189.678z"/>
	<path fill="#333333" d="M39.78,180.444c-0.631-0.257-1.46-0.414-2.19-0.414c-2.565,0-3.512,1.992-3.512,4.399
		c0,2.367,0.908,4.202,3.492,4.202c0.691,0,1.52-0.118,2.131-0.296c0.04,0.118,0.079,0.257,0.079,0.414
		c0,0.237-0.04,0.415-0.099,0.553c-0.572,0.237-1.5,0.375-2.229,0.375c-3.216,0-4.715-2.111-4.715-5.209
		c0-3.216,1.638-5.465,4.774-5.465c0.75,0,1.638,0.178,2.249,0.454c0.06,0.157,0.079,0.315,0.079,0.493
		C39.839,180.148,39.82,180.307,39.78,180.444z"/>
	<path fill="#333333" d="M45.563,189.678c-2.584,0-4.242-1.775-4.242-5.327c0-3.551,1.677-5.347,4.262-5.347
		c2.584,0,4.222,1.756,4.222,5.308C49.805,187.862,48.147,189.678,45.563,189.678z M45.583,179.971c-1.894,0-2.92,1.46-2.92,4.36
		s1.006,4.38,2.9,4.38s2.9-1.479,2.9-4.38S47.477,179.971,45.583,179.971z"/>
	<path fill="#333333" d="M58.784,181.707l-3.098,7.773c-0.177,0.06-0.375,0.099-0.533,0.099c-0.217,0-0.395-0.039-0.552-0.099
		l-3.196-7.773c-0.355-0.888-0.513-1.775-0.513-2.506c0.158-0.039,0.434-0.099,0.611-0.099c0.237,0,0.474,0.04,0.671,0.099
		c0.02,0.671,0.099,1.44,0.395,2.15l2.565,6.511h0.04l2.486-6.511c0.276-0.69,0.414-1.46,0.414-2.15
		c0.138-0.059,0.434-0.099,0.691-0.099c0.138,0,0.395,0.02,0.572,0.079C59.317,179.892,59.179,180.74,58.784,181.707z"/>
	<path fill="#333333" d="M68.355,184.687h-6.609c0.079,2.269,1.144,3.985,3.61,3.985c0.888,0,1.716-0.119,2.446-0.296
		c0.04,0.099,0.079,0.296,0.079,0.414c0,0.197-0.04,0.375-0.099,0.513c-0.77,0.237-1.736,0.375-2.545,0.375
		c-1.559,0-2.743-0.493-3.473-1.282c-0.868-0.947-1.322-2.368-1.322-4.005c0-2.861,1.44-5.387,4.321-5.387
		c2.584,0,3.61,2.131,3.61,4.735C68.375,184.035,68.375,184.391,68.355,184.687z M67.093,183.739c0-1.815-0.197-3.769-2.387-3.769
		c-1.914,0-2.841,1.756-2.959,3.769H67.093z"/>
	<path fill="#333333" d="M75.125,180.148c-1.144,0.158-2.387,0.572-3.314,1.282v8.05c-0.197,0.06-0.434,0.099-0.651,0.099
		c-0.217,0-0.434-0.039-0.631-0.099v-10.279c0.118-0.039,0.296-0.079,0.493-0.079c0.158,0,0.375,0.04,0.533,0.079l0.099,1.263h0.02
		c0.849-0.729,2.328-1.342,3.453-1.46c0.04,0.118,0.079,0.336,0.079,0.513C75.204,179.714,75.164,179.971,75.125,180.148z"/>
	<path fill="#333333" d="M77.83,177.188c-0.454,0-0.829-0.395-0.829-0.867c0-0.474,0.375-0.849,0.829-0.849
		c0.454,0,0.849,0.375,0.849,0.849C78.678,176.794,78.284,177.188,77.83,177.188z M78.481,189.48
		c-0.178,0.06-0.434,0.099-0.651,0.099c-0.217,0-0.454-0.039-0.631-0.099v-10.279c0.158-0.039,0.415-0.099,0.612-0.099
		c0.217,0,0.513,0.04,0.671,0.099V189.48z"/>
	<path fill="#333333" d="M89.136,189.5c-0.158,0.04-0.395,0.079-0.631,0.079c-0.197,0-0.454-0.039-0.651-0.099v-6.254
		c0-0.947-0.119-1.678-0.395-2.19c-0.335-0.631-0.967-0.947-1.993-0.947c-0.987,0-2.17,0.553-2.94,1.145v8.247
		c-0.217,0.06-0.434,0.099-0.671,0.099c-0.197,0-0.434-0.039-0.611-0.099v-10.279c0.138-0.059,0.375-0.079,0.513-0.079
		c0.197,0,0.434,0.021,0.553,0.079l0.099,1.026h0.02c1.085-0.888,2.328-1.224,3.334-1.224c1.006,0,2.052,0.336,2.624,1.026
		c0.631,0.749,0.75,1.835,0.75,2.9V189.5z"/>
	<path fill="#333333" d="M99.2,187.764c0,1.48-0.079,3.256-0.789,4.479c-0.849,1.46-2.368,2.092-3.887,2.092
		c-0.868,0-1.618-0.099-2.25-0.315c-0.059-0.118-0.079-0.316-0.079-0.474c0-0.118,0.039-0.355,0.079-0.474
		c0.612,0.158,1.322,0.276,2.032,0.276c2.486,0,3.61-1.539,3.61-4.242v-0.828c-0.769,0.809-1.854,1.203-2.742,1.203
		c-2.624,0-3.985-2.032-3.985-4.893c0-3.513,2.072-5.584,5.129-5.584c0.809,0,2.032,0.237,2.881,0.572V187.764z M97.917,180.208
		c-0.71-0.198-1.223-0.257-1.716-0.257c-2.506,0-3.689,2.111-3.689,4.577c0,2.19,0.829,3.906,2.762,3.906
		c0.986,0,1.993-0.493,2.644-1.184V180.208z"/>
	<path fill="#333333" d="M113.25,186.955c0,0.71,0,1.598,0.04,2.525c-0.138,0.06-0.355,0.099-0.533,0.099
		c-0.158,0-0.375-0.039-0.533-0.099c-0.059-0.315-0.099-0.73-0.118-1.104h-0.02c-0.671,0.828-1.854,1.302-3.019,1.302
		c-1.835,0-3.374-1.026-3.374-3.137c0-1.204,0.493-2.092,1.263-2.644c0.868-0.612,2.012-0.81,3.235-0.81
		c0.69,0,1.263,0.04,1.776,0.118v-0.571c0-1.974-0.809-2.625-2.466-2.625c-0.927,0-2.072,0.198-2.782,0.375
		c-0.04-0.099-0.079-0.315-0.079-0.513c0-0.138,0.04-0.335,0.099-0.454c0.849-0.256,1.973-0.414,2.92-0.414
		c2.348,0,3.591,1.065,3.591,3.473V186.955z M111.968,184.173c-0.572-0.078-1.164-0.118-1.677-0.118
		c-0.967,0-1.834,0.178-2.427,0.632c-0.533,0.395-0.829,1.025-0.829,1.835c0,1.439,0.927,2.13,2.21,2.13
		c1.065,0,2.19-0.513,2.723-1.321V184.173z"/>
	<path fill="#333333" d="M128.209,189.5c-0.158,0.04-0.395,0.079-0.631,0.079c-0.197,0-0.454-0.039-0.651-0.099v-6.254
		c0-0.947-0.119-1.678-0.395-2.19c-0.335-0.631-0.967-0.947-1.993-0.947c-0.987,0-2.17,0.553-2.94,1.145v8.247
		c-0.217,0.06-0.434,0.099-0.671,0.099c-0.197,0-0.434-0.039-0.611-0.099v-10.279c0.138-0.059,0.375-0.079,0.513-0.079
		c0.197,0,0.434,0.021,0.553,0.079l0.099,1.026h0.02c1.085-0.888,2.328-1.224,3.334-1.224c1.006,0,2.052,0.336,2.624,1.026
		c0.631,0.749,0.75,1.835,0.75,2.9V189.5z"/>
	<path fill="#333333" d="M138.175,184.687h-6.609c0.079,2.269,1.144,3.985,3.61,3.985c0.888,0,1.716-0.119,2.446-0.296
		c0.04,0.099,0.079,0.296,0.079,0.414c0,0.197-0.04,0.375-0.099,0.513c-0.77,0.237-1.736,0.375-2.545,0.375
		c-1.559,0-2.743-0.493-3.473-1.282c-0.868-0.947-1.322-2.368-1.322-4.005c0-2.861,1.44-5.387,4.321-5.387
		c2.584,0,3.61,2.131,3.61,4.735C138.194,184.035,138.194,184.391,138.175,184.687z M136.912,183.739
		c0-1.815-0.197-3.769-2.387-3.769c-1.914,0-2.841,1.756-2.959,3.769H136.912z"/>
	<path fill="#333333" d="M152.304,181.233l-2.644,8.247c-0.158,0.06-0.454,0.099-0.611,0.099c-0.178,0-0.474-0.039-0.612-0.099
		l-2.368-7.971h-0.039l-2.486,7.971c-0.177,0.06-0.454,0.099-0.611,0.099s-0.415-0.039-0.592-0.099l-2.447-8.129
		c-0.217-0.671-0.315-1.44-0.335-2.17c0.158-0.039,0.474-0.079,0.671-0.079c0.217,0,0.415,0.04,0.592,0.099
		c0.02,0.71,0.138,1.46,0.316,2.111l1.795,6.412h0.02l2.565-8.543c0.138-0.039,0.415-0.06,0.552-0.06
		c0.138,0,0.434,0.021,0.553,0.06l2.427,8.543h0.02l1.973-6.393c0.217-0.729,0.375-1.421,0.414-2.131
		c0.139-0.059,0.474-0.099,0.651-0.099s0.454,0.04,0.572,0.099C152.679,179.872,152.521,180.543,152.304,181.233z"/>
</g>
<g>
	<path fill="#333333" d="M16.888,204.56c-0.631-0.257-1.46-0.414-2.19-0.414c-2.565,0-3.512,1.992-3.512,4.399
		c0,2.367,0.908,4.202,3.492,4.202c0.691,0,1.52-0.118,2.131-0.296c0.04,0.118,0.079,0.257,0.079,0.414
		c0,0.237-0.04,0.415-0.099,0.553c-0.572,0.237-1.5,0.375-2.229,0.375c-3.216,0-4.715-2.111-4.715-5.209
		c0-3.216,1.638-5.465,4.774-5.465c0.75,0,1.638,0.178,2.249,0.454c0.06,0.157,0.079,0.315,0.079,0.493
		C16.947,204.264,16.928,204.422,16.888,204.56z"/>
	<path fill="#333333" d="M22.671,213.793c-2.584,0-4.242-1.775-4.242-5.327c0-3.551,1.677-5.347,4.262-5.347
		c2.584,0,4.222,1.756,4.222,5.308C26.913,211.978,25.255,213.793,22.671,213.793z M22.691,204.086c-1.894,0-2.92,1.46-2.92,4.36
		s1.006,4.38,2.9,4.38s2.9-1.479,2.9-4.38S24.585,204.086,22.691,204.086z"/>
	<path fill="#333333" d="M43.311,213.615c-0.197,0.04-0.395,0.079-0.592,0.079c-0.237,0-0.454-0.06-0.691-0.099v-6.234
		c0-2.171-0.552-3.157-2.387-3.157c-0.947,0-2.209,0.493-2.999,1.065c0.158,0.553,0.198,1.164,0.198,1.776v6.55
		c-0.198,0.06-0.395,0.099-0.592,0.099c-0.256,0-0.493-0.039-0.69-0.099v-6.234c0-2.171-0.493-3.157-2.328-3.157
		c-0.986,0-2.15,0.553-2.92,1.145v8.247c-0.217,0.06-0.474,0.099-0.71,0.099c-0.197,0-0.414-0.039-0.572-0.099v-10.279
		c0.099-0.039,0.315-0.079,0.533-0.079c0.177,0,0.395,0.04,0.533,0.079l0.099,1.026h0.02c1.085-0.888,2.328-1.224,3.334-1.224
		c1.006,0,1.973,0.336,2.545,1.026c0.079,0.079,0.138,0.178,0.197,0.276c1.046-0.849,2.387-1.303,3.67-1.303
		c1.006,0,2.032,0.336,2.604,1.026c0.631,0.749,0.75,1.835,0.75,2.9V213.615z"/>
	<path fill="#333333" d="M49.096,213.793c-0.908,0-2.072-0.138-3.157-0.532v-14.067c0.138-0.04,0.434-0.099,0.611-0.099
		c0.316,0,0.553,0.059,0.671,0.099v4.991c0.809-0.671,1.835-1.065,2.92-1.065c2.782,0,3.946,2.388,3.946,5.051
		C54.087,211.563,52.351,213.793,49.096,213.793z M49.964,204.225c-0.987,0-1.973,0.414-2.743,1.184v7.083
		c0.533,0.197,1.204,0.315,1.776,0.315c2.742,0,3.749-2.092,3.749-4.558C52.746,206.335,52.193,204.225,49.964,204.225z"/>
	<path fill="#333333" d="M56.931,201.304c-0.454,0-0.829-0.395-0.829-0.867c0-0.474,0.375-0.849,0.829-0.849
		c0.454,0,0.849,0.375,0.849,0.849C57.779,200.909,57.385,201.304,56.931,201.304z M57.582,213.596
		c-0.178,0.06-0.434,0.099-0.651,0.099c-0.217,0-0.454-0.039-0.631-0.099v-10.279c0.158-0.039,0.415-0.099,0.612-0.099
		c0.217,0,0.513,0.04,0.671,0.099V213.596z"/>
	<path fill="#333333" d="M68.237,213.615c-0.158,0.04-0.395,0.079-0.631,0.079c-0.197,0-0.454-0.039-0.651-0.099v-6.254
		c0-0.947-0.119-1.678-0.395-2.19c-0.335-0.631-0.967-0.947-1.993-0.947c-0.987,0-2.17,0.553-2.94,1.145v8.247
		c-0.217,0.06-0.434,0.099-0.671,0.099c-0.197,0-0.434-0.039-0.611-0.099v-10.279c0.138-0.059,0.375-0.079,0.513-0.079
		c0.197,0,0.434,0.021,0.553,0.079l0.099,1.026h0.02c1.085-0.888,2.328-1.224,3.334-1.224c1.006,0,2.052,0.336,2.624,1.026
		c0.631,0.749,0.75,1.835,0.75,2.9V213.615z"/>
	<path fill="#333333" d="M78.203,208.802h-6.609c0.079,2.269,1.144,3.985,3.61,3.985c0.888,0,1.716-0.119,2.446-0.296
		c0.04,0.099,0.079,0.296,0.079,0.414c0,0.197-0.04,0.375-0.099,0.513c-0.77,0.237-1.736,0.375-2.545,0.375
		c-1.559,0-2.743-0.493-3.473-1.282c-0.868-0.947-1.322-2.368-1.322-4.005c0-2.861,1.44-5.387,4.321-5.387
		c2.584,0,3.61,2.131,3.61,4.735C78.223,208.15,78.223,208.506,78.203,208.802z M76.94,207.854c0-1.815-0.197-3.769-2.387-3.769
		c-1.914,0-2.841,1.756-2.959,3.769H76.94z"/>
	<path fill="#333333" d="M87.458,213.694c-0.177,0-0.395-0.06-0.513-0.099l-0.119-1.184h-0.02c-0.848,0.888-1.854,1.381-2.979,1.381
		c-2.723,0-4.025-2.269-4.025-5.031c0-2.742,1.164-5.643,4.301-5.643c0.987,0,1.894,0.336,2.624,0.849v-4.774
		c0.178-0.06,0.415-0.099,0.631-0.099c0.237,0,0.474,0.059,0.651,0.099v14.402C87.873,213.655,87.676,213.694,87.458,213.694z
		 M86.729,205.053c-0.71-0.592-1.618-0.888-2.545-0.888c-2.289,0-3.058,2.249-3.058,4.538c0,1.756,0.552,4.044,2.762,4.044
		c1.065,0,2.15-0.532,2.841-1.361V205.053z"/>
	<path fill="#333333" d="M100.503,213.497c-0.513,0.178-1.282,0.296-1.854,0.296c-1.953,0-2.88-0.928-2.88-3.117v-6.353h-1.776
		c-0.04-0.099-0.059-0.336-0.059-0.454c0-0.099,0.02-0.336,0.059-0.435l1.776-0.118v-2.683c0.158-0.06,0.414-0.099,0.631-0.099
		c0.217,0,0.493,0.039,0.651,0.099v2.683h2.9c0.04,0.099,0.079,0.395,0.079,0.493c0,0.139-0.039,0.375-0.079,0.514h-2.9v6.234
		c0,1.559,0.454,2.209,1.677,2.209c0.67,0,1.322-0.099,1.775-0.236c0.04,0.099,0.079,0.335,0.079,0.474
		C100.582,213.182,100.562,213.319,100.503,213.497z"/>
	<path fill="#333333" d="M107.016,204.264c-1.144,0.158-2.387,0.572-3.314,1.282v8.05c-0.197,0.06-0.434,0.099-0.651,0.099
		c-0.217,0-0.434-0.039-0.631-0.099v-10.279c0.118-0.039,0.296-0.079,0.493-0.079c0.158,0,0.375,0.04,0.533,0.079l0.099,1.263h0.02
		c0.849-0.729,2.328-1.342,3.453-1.46c0.04,0.118,0.079,0.336,0.079,0.513C107.095,203.829,107.055,204.086,107.016,204.264z"/>
	<path fill="#333333" d="M115.856,208.802h-6.609c0.079,2.269,1.144,3.985,3.61,3.985c0.888,0,1.716-0.119,2.446-0.296
		c0.04,0.099,0.079,0.296,0.079,0.414c0,0.197-0.04,0.375-0.099,0.513c-0.77,0.237-1.736,0.375-2.545,0.375
		c-1.559,0-2.743-0.493-3.473-1.282c-0.868-0.947-1.322-2.368-1.322-4.005c0-2.861,1.44-5.387,4.321-5.387
		c2.584,0,3.61,2.131,3.61,4.735C115.876,208.15,115.876,208.506,115.856,208.802z M114.594,207.854
		c0-1.815-0.197-3.769-2.387-3.769c-1.914,0-2.841,1.756-2.959,3.769H114.594z"/>
	<path fill="#333333" d="M125.052,211.07c0,0.71,0,1.598,0.04,2.525c-0.138,0.06-0.355,0.099-0.533,0.099
		c-0.158,0-0.375-0.039-0.533-0.099c-0.059-0.315-0.099-0.73-0.118-1.104h-0.02c-0.671,0.828-1.854,1.302-3.019,1.302
		c-1.835,0-3.374-1.026-3.374-3.137c0-1.204,0.493-2.092,1.263-2.644c0.868-0.612,2.012-0.81,3.235-0.81
		c0.69,0,1.263,0.04,1.776,0.118v-0.571c0-1.974-0.809-2.625-2.466-2.625c-0.927,0-2.072,0.198-2.782,0.375
		c-0.04-0.099-0.079-0.315-0.079-0.513c0-0.138,0.04-0.335,0.099-0.454c0.849-0.256,1.973-0.414,2.92-0.414
		c2.348,0,3.591,1.065,3.591,3.473V211.07z M123.77,208.288c-0.572-0.078-1.164-0.118-1.677-0.118c-0.967,0-1.834,0.178-2.427,0.632
		c-0.533,0.395-0.829,1.025-0.829,1.835c0,1.439,0.927,2.13,2.21,2.13c1.065,0,2.19-0.513,2.723-1.321V208.288z"/>
	<path fill="#333333" d="M133.242,213.497c-0.513,0.178-1.282,0.296-1.854,0.296c-1.953,0-2.88-0.928-2.88-3.117v-6.353h-1.776
		c-0.04-0.099-0.059-0.336-0.059-0.454c0-0.099,0.02-0.336,0.059-0.435l1.776-0.118v-2.683c0.158-0.06,0.414-0.099,0.631-0.099
		c0.217,0,0.493,0.039,0.651,0.099v2.683h2.9c0.04,0.099,0.079,0.395,0.079,0.493c0,0.139-0.039,0.375-0.079,0.514h-2.9v6.234
		c0,1.559,0.454,2.209,1.677,2.209c0.67,0,1.322-0.099,1.775-0.236c0.04,0.099,0.079,0.335,0.079,0.474
		C133.321,213.182,133.301,213.319,133.242,213.497z"/>
	<path fill="#333333" d="M149.442,213.615c-0.197,0.04-0.395,0.079-0.592,0.079c-0.237,0-0.454-0.06-0.691-0.099v-6.234
		c0-2.171-0.552-3.157-2.387-3.157c-0.947,0-2.209,0.493-2.999,1.065c0.158,0.553,0.197,1.164,0.197,1.776v6.55
		c-0.197,0.06-0.395,0.099-0.592,0.099c-0.256,0-0.493-0.039-0.69-0.099v-6.234c0-2.171-0.493-3.157-2.328-3.157
		c-0.986,0-2.15,0.553-2.92,1.145v8.247c-0.217,0.06-0.474,0.099-0.71,0.099c-0.197,0-0.414-0.039-0.572-0.099v-10.279
		c0.099-0.039,0.315-0.079,0.533-0.079c0.177,0,0.395,0.04,0.533,0.079l0.099,1.026h0.02c1.085-0.888,2.328-1.224,3.334-1.224
		c1.006,0,1.973,0.336,2.545,1.026c0.079,0.079,0.138,0.178,0.197,0.276c1.046-0.849,2.387-1.303,3.67-1.303
		c1.006,0,2.032,0.336,2.604,1.026c0.631,0.749,0.75,1.835,0.75,2.9V213.615z"/>
	<path fill="#333333" d="M159.41,208.802h-6.609c0.079,2.269,1.145,3.985,3.61,3.985c0.888,0,1.717-0.119,2.446-0.296
		c0.04,0.099,0.079,0.296,0.079,0.414c0,0.197-0.039,0.375-0.099,0.513c-0.77,0.237-1.736,0.375-2.545,0.375
		c-1.559,0-2.742-0.493-3.473-1.282c-0.868-0.947-1.322-2.368-1.322-4.005c0-2.861,1.44-5.387,4.321-5.387
		c2.585,0,3.61,2.131,3.61,4.735C159.43,208.15,159.43,208.506,159.41,208.802z M158.147,207.854c0-1.815-0.197-3.769-2.388-3.769
		c-1.913,0-2.841,1.756-2.959,3.769H158.147z"/>
	<path fill="#333333" d="M169.475,213.615c-0.158,0.04-0.395,0.079-0.631,0.079c-0.197,0-0.454-0.039-0.651-0.099v-6.254
		c0-0.947-0.118-1.678-0.395-2.19c-0.336-0.631-0.967-0.947-1.993-0.947c-0.986,0-2.17,0.553-2.939,1.145v8.247
		c-0.217,0.06-0.434,0.099-0.671,0.099c-0.197,0-0.434-0.039-0.611-0.099v-10.279c0.138-0.059,0.375-0.079,0.513-0.079
		c0.197,0,0.435,0.021,0.553,0.079l0.099,1.026h0.02c1.085-0.888,2.328-1.224,3.334-1.224c1.007,0,2.052,0.336,2.624,1.026
		c0.632,0.749,0.75,1.835,0.75,2.9V213.615z"/>
	<path fill="#333333" d="M177.566,213.497c-0.513,0.178-1.282,0.296-1.854,0.296c-1.953,0-2.881-0.928-2.881-3.117v-6.353h-1.775
		c-0.039-0.099-0.06-0.336-0.06-0.454c0-0.099,0.021-0.336,0.06-0.435l1.775-0.118v-2.683c0.158-0.06,0.415-0.099,0.632-0.099
		s0.493,0.039,0.651,0.099v2.683h2.899c0.04,0.099,0.079,0.395,0.079,0.493c0,0.139-0.039,0.375-0.079,0.514h-2.899v6.234
		c0,1.559,0.453,2.209,1.677,2.209c0.671,0,1.321-0.099,1.775-0.236c0.039,0.099,0.079,0.335,0.079,0.474
		C177.646,213.182,177.626,213.319,177.566,213.497z"/>
	<path fill="#333333" d="M189.644,200.041c-0.296-0.078-0.829-0.157-1.243-0.157c-0.75,0-1.302,0.197-1.677,0.611
		c-0.572,0.611-0.671,1.44-0.671,2.486v0.335h2.781c0.04,0.099,0.079,0.336,0.079,0.474c0,0.158-0.039,0.395-0.079,0.533h-2.781
		v9.272c-0.178,0.06-0.375,0.099-0.632,0.099c-0.256,0-0.474-0.039-0.65-0.099v-9.272h-1.776c-0.039-0.099-0.059-0.355-0.059-0.474
		c0-0.099,0.02-0.316,0.059-0.415l1.776-0.118v-0.335c0-1.401,0.236-2.368,1.045-3.177c0.572-0.572,1.421-0.849,2.388-0.849
		c0.513,0,1.085,0.118,1.44,0.257c0.039,0.099,0.059,0.236,0.059,0.375C189.702,199.706,189.683,199.942,189.644,200.041z"/>
	<path fill="#333333" d="M193.887,213.793c-2.585,0-4.242-1.775-4.242-5.327c0-3.551,1.677-5.347,4.262-5.347
		c2.584,0,4.222,1.756,4.222,5.308C198.128,211.978,196.471,213.793,193.887,213.793z M193.906,204.086
		c-1.895,0-2.92,1.46-2.92,4.36s1.006,4.38,2.9,4.38c1.894,0,2.899-1.479,2.899-4.38S195.8,204.086,193.906,204.086z"/>
	<path fill="#333333" d="M204.839,204.264c-1.145,0.158-2.387,0.572-3.314,1.282v8.05c-0.197,0.06-0.434,0.099-0.651,0.099
		c-0.217,0-0.434-0.039-0.631-0.099v-10.279c0.118-0.039,0.296-0.079,0.493-0.079c0.158,0,0.375,0.04,0.532,0.079l0.099,1.263h0.021
		c0.848-0.729,2.328-1.342,3.452-1.46c0.04,0.118,0.079,0.336,0.079,0.513C204.918,203.829,204.879,204.086,204.839,204.264z"/>
</g>
<g>
	<path fill="#333333" d="M16.928,236.646c-0.77,0.69-1.973,1.065-3.117,1.065c-0.809,0-1.559-0.138-2.111-0.335v4.972
		c-0.197,0.059-0.375,0.099-0.651,0.099c-0.217,0-0.474-0.04-0.631-0.099v-14.916c0.099-0.039,0.335-0.079,0.533-0.079
		s0.375,0.04,0.513,0.079l0.119,1.085h0.02c0.75-0.789,1.875-1.282,3.019-1.282c1.243,0,2.348,0.533,3.039,1.52
		c0.572,0.828,0.927,2.012,0.927,3.452C18.585,234.18,17.973,235.698,16.928,236.646z M14.481,228.28
		c-1.045,0-2.091,0.434-2.782,1.302v6.787c0.513,0.237,1.302,0.375,1.973,0.375c2.131,0,3.571-1.4,3.571-4.479
		C17.243,229.839,16.296,228.28,14.481,228.28z"/>
	<path fill="#333333" d="M25.295,228.379c-1.144,0.158-2.387,0.572-3.314,1.282v8.05c-0.197,0.06-0.434,0.099-0.651,0.099
		c-0.217,0-0.434-0.039-0.631-0.099v-10.279c0.118-0.039,0.296-0.079,0.493-0.079c0.158,0,0.375,0.04,0.533,0.079l0.099,1.263h0.02
		c0.849-0.729,2.328-1.342,3.453-1.46c0.04,0.118,0.079,0.336,0.079,0.513C25.375,227.944,25.335,228.201,25.295,228.379z"/>
	<path fill="#333333" d="M30.446,237.908c-2.584,0-4.242-1.775-4.242-5.327c0-3.551,1.677-5.347,4.262-5.347
		c2.584,0,4.222,1.756,4.222,5.308C34.688,236.093,33.031,237.908,30.446,237.908z M30.466,228.201c-1.894,0-2.92,1.46-2.92,4.36
		s1.006,4.38,2.9,4.38s2.9-1.479,2.9-4.38S32.36,228.201,30.466,228.201z"/>
	<path fill="#333333" d="M39.091,237.908c-0.987,0-2.013-0.178-2.723-0.454c-0.06-0.138-0.099-0.374-0.099-0.552
		c0-0.119,0.039-0.415,0.079-0.533c0.73,0.296,1.776,0.533,2.644,0.533c1.5,0,2.427-0.632,2.427-1.875
		c0-1.124-0.572-1.519-2.131-2.091c-2.17-0.789-2.881-1.697-2.881-3.038c0-1.815,1.5-2.664,3.433-2.664
		c0.651,0,1.5,0.118,1.993,0.276c0.059,0.178,0.079,0.355,0.079,0.474c0,0.157-0.04,0.434-0.079,0.572
		c-0.651-0.197-1.341-0.316-2.012-0.316c-1.401,0-2.25,0.533-2.25,1.618c0,0.947,0.533,1.401,2.151,2.013
		c1.479,0.553,2.841,1.104,2.841,3.098C42.563,236.98,41.044,237.908,39.091,237.908z"/>
	<path fill="#333333" d="M49.943,237.612c-0.513,0.178-1.282,0.296-1.854,0.296c-1.953,0-2.88-0.928-2.88-3.117v-6.353h-1.776
		c-0.04-0.099-0.059-0.336-0.059-0.454c0-0.099,0.02-0.336,0.059-0.435l1.776-0.118v-2.683c0.158-0.06,0.414-0.099,0.631-0.099
		c0.217,0,0.493,0.039,0.651,0.099v2.683h2.9c0.04,0.099,0.079,0.395,0.079,0.493c0,0.139-0.039,0.375-0.079,0.514h-2.9v6.234
		c0,1.559,0.454,2.209,1.677,2.209c0.67,0,1.322-0.099,1.775-0.236c0.04,0.099,0.079,0.335,0.079,0.474
		C50.022,237.297,50.002,237.435,49.943,237.612z"/>
	<path fill="#333333" d="M58.705,235.186c0,0.71,0,1.598,0.04,2.525c-0.138,0.06-0.355,0.099-0.533,0.099
		c-0.158,0-0.375-0.039-0.533-0.099c-0.059-0.315-0.099-0.73-0.118-1.104h-0.02c-0.671,0.828-1.854,1.302-3.019,1.302
		c-1.835,0-3.374-1.026-3.374-3.137c0-1.204,0.493-2.092,1.263-2.644c0.868-0.612,2.012-0.81,3.235-0.81
		c0.691,0,1.263,0.04,1.776,0.118v-0.571c0-1.974-0.809-2.625-2.466-2.625c-0.927,0-2.072,0.198-2.782,0.375
		c-0.04-0.099-0.079-0.315-0.079-0.513c0-0.138,0.04-0.335,0.099-0.454c0.849-0.256,1.973-0.414,2.92-0.414
		c2.348,0,3.591,1.065,3.591,3.473V235.186z M57.423,232.403c-0.572-0.078-1.164-0.118-1.677-0.118
		c-0.967,0-1.834,0.178-2.427,0.632c-0.533,0.395-0.829,1.025-0.829,1.835c0,1.439,0.927,2.13,2.21,2.13
		c1.065,0,2.19-0.513,2.723-1.321V232.403z"/>
	<path fill="#333333" d="M66.896,237.612c-0.513,0.178-1.282,0.296-1.854,0.296c-1.953,0-2.88-0.928-2.88-3.117v-6.353h-1.776
		c-0.04-0.099-0.059-0.336-0.059-0.454c0-0.099,0.02-0.336,0.059-0.435l1.776-0.118v-2.683c0.158-0.06,0.414-0.099,0.631-0.099
		c0.217,0,0.493,0.039,0.651,0.099v2.683h2.9c0.04,0.099,0.079,0.395,0.079,0.493c0,0.139-0.039,0.375-0.079,0.514h-2.9v6.234
		c0,1.559,0.454,2.209,1.677,2.209c0.67,0,1.322-0.099,1.775-0.236c0.04,0.099,0.079,0.335,0.079,0.474
		C66.975,237.297,66.955,237.435,66.896,237.612z"/>
	<path fill="#333333" d="M75.677,232.917h-6.609c0.079,2.269,1.144,3.985,3.61,3.985c0.888,0,1.716-0.119,2.446-0.296
		c0.04,0.099,0.079,0.296,0.079,0.414c0,0.197-0.04,0.375-0.099,0.513c-0.77,0.237-1.736,0.375-2.545,0.375
		c-1.559,0-2.743-0.493-3.473-1.282c-0.868-0.947-1.322-2.368-1.322-4.005c0-2.861,1.44-5.387,4.321-5.387
		c2.584,0,3.61,2.131,3.61,4.735C75.696,232.266,75.696,232.621,75.677,232.917z M74.414,231.97c0-1.815-0.197-3.769-2.387-3.769
		c-1.914,0-2.841,1.756-2.959,3.769H74.414z"/>
	<path fill="#333333" d="M88.662,228.675c-0.631-0.257-1.46-0.414-2.19-0.414c-2.565,0-3.512,1.992-3.512,4.399
		c0,2.367,0.908,4.202,3.492,4.202c0.691,0,1.52-0.118,2.131-0.296c0.04,0.118,0.079,0.257,0.079,0.414
		c0,0.237-0.04,0.415-0.099,0.553c-0.572,0.237-1.5,0.375-2.229,0.375c-3.216,0-4.715-2.111-4.715-5.209
		c0-3.216,1.638-5.465,4.774-5.465c0.75,0,1.638,0.178,2.249,0.454c0.06,0.157,0.079,0.315,0.079,0.493
		C88.721,228.379,88.702,228.537,88.662,228.675z"/>
	<path fill="#333333" d="M97.799,235.186c0,0.71,0,1.598,0.04,2.525c-0.138,0.06-0.355,0.099-0.533,0.099
		c-0.158,0-0.375-0.039-0.533-0.099c-0.059-0.315-0.099-0.73-0.118-1.104h-0.02c-0.671,0.828-1.854,1.302-3.019,1.302
		c-1.835,0-3.374-1.026-3.374-3.137c0-1.204,0.493-2.092,1.263-2.644c0.868-0.612,2.012-0.81,3.235-0.81
		c0.691,0,1.263,0.04,1.776,0.118v-0.571c0-1.974-0.809-2.625-2.466-2.625c-0.927,0-2.072,0.198-2.782,0.375
		c-0.04-0.099-0.079-0.315-0.079-0.513c0-0.138,0.04-0.335,0.099-0.454c0.849-0.256,1.973-0.414,2.92-0.414
		c2.348,0,3.591,1.065,3.591,3.473V235.186z M96.517,232.403c-0.572-0.078-1.164-0.118-1.677-0.118
		c-0.967,0-1.834,0.178-2.427,0.632c-0.533,0.395-0.829,1.025-0.829,1.835c0,1.439,0.927,2.13,2.21,2.13
		c1.065,0,2.19-0.513,2.723-1.321V232.403z"/>
	<path fill="#333333" d="M108.416,237.73c-0.158,0.04-0.395,0.079-0.631,0.079c-0.197,0-0.454-0.039-0.651-0.099v-6.254
		c0-0.947-0.119-1.678-0.395-2.19c-0.335-0.631-0.967-0.947-1.993-0.947c-0.987,0-2.17,0.553-2.94,1.145v8.247
		c-0.217,0.06-0.434,0.099-0.671,0.099c-0.197,0-0.434-0.039-0.611-0.099v-10.279c0.138-0.059,0.375-0.079,0.513-0.079
		c0.197,0,0.434,0.021,0.553,0.079l0.099,1.026h0.02c1.085-0.888,2.328-1.224,3.334-1.224c1.006,0,2.052,0.336,2.624,1.026
		c0.631,0.749,0.75,1.835,0.75,2.9V237.73z"/>
	<path fill="#333333" d="M117.514,228.675c-0.631-0.257-1.46-0.414-2.19-0.414c-2.565,0-3.512,1.992-3.512,4.399
		c0,2.367,0.908,4.202,3.492,4.202c0.691,0,1.52-0.118,2.131-0.296c0.04,0.118,0.079,0.257,0.079,0.414
		c0,0.237-0.04,0.415-0.099,0.553c-0.572,0.237-1.5,0.375-2.229,0.375c-3.216,0-4.715-2.111-4.715-5.209
		c0-3.216,1.638-5.465,4.774-5.465c0.75,0,1.638,0.178,2.249,0.454c0.06,0.157,0.079,0.315,0.079,0.493
		C117.573,228.379,117.553,228.537,117.514,228.675z"/>
	<path fill="#333333" d="M126.966,232.917h-6.609c0.079,2.269,1.144,3.985,3.61,3.985c0.888,0,1.716-0.119,2.446-0.296
		c0.04,0.099,0.079,0.296,0.079,0.414c0,0.197-0.04,0.375-0.099,0.513c-0.77,0.237-1.736,0.375-2.545,0.375
		c-1.559,0-2.743-0.493-3.473-1.282c-0.868-0.947-1.322-2.368-1.322-4.005c0-2.861,1.44-5.387,4.321-5.387
		c2.584,0,3.61,2.131,3.61,4.735C126.986,232.266,126.986,232.621,126.966,232.917z M125.704,231.97
		c0-1.815-0.197-3.769-2.387-3.769c-1.914,0-2.841,1.756-2.959,3.769H125.704z"/>
	<path fill="#333333" d="M133.736,228.379c-1.144,0.158-2.387,0.572-3.314,1.282v8.05c-0.197,0.06-0.434,0.099-0.651,0.099
		c-0.217,0-0.434-0.039-0.631-0.099v-10.279c0.118-0.039,0.296-0.079,0.493-0.079c0.158,0,0.375,0.04,0.533,0.079l0.099,1.263h0.02
		c0.849-0.729,2.328-1.342,3.453-1.46c0.04,0.118,0.079,0.336,0.079,0.513C133.815,227.944,133.775,228.201,133.736,228.379z"/>
	<path fill="#333333" d="M145.537,237.612c-0.513,0.178-1.282,0.296-1.854,0.296c-1.953,0-2.88-0.928-2.88-3.117v-6.353h-1.776
		c-0.04-0.099-0.059-0.336-0.059-0.454c0-0.099,0.02-0.336,0.059-0.435l1.776-0.118v-2.683c0.158-0.06,0.414-0.099,0.631-0.099
		c0.217,0,0.493,0.039,0.651,0.099v2.683h2.9c0.04,0.099,0.079,0.395,0.079,0.493c0,0.139-0.039,0.375-0.079,0.514h-2.9v6.234
		c0,1.559,0.454,2.209,1.677,2.209c0.67,0,1.322-0.099,1.775-0.236c0.04,0.099,0.079,0.335,0.079,0.474
		C145.616,237.297,145.596,237.435,145.537,237.612z"/>
	<path fill="#333333" d="M155.344,237.711c-0.178,0.06-0.395,0.099-0.592,0.099c-0.236,0-0.493-0.039-0.69-0.099v-6.234
		c0-2.171-0.553-3.157-2.388-3.157c-0.986,0-2.17,0.553-2.939,1.145v8.247c-0.217,0.06-0.454,0.099-0.671,0.099
		c-0.197,0-0.434-0.039-0.611-0.099v-14.402c0.177-0.06,0.454-0.099,0.631-0.099c0.177,0,0.473,0.039,0.651,0.099v5.07
		c1.046-0.809,2.289-1.145,3.256-1.145c1.006,0,2.031,0.336,2.604,1.026c0.632,0.749,0.75,1.835,0.75,2.9V237.711z"/>
	<path fill="#333333" d="M164.994,235.186c0,0.71,0,1.598,0.04,2.525c-0.139,0.06-0.355,0.099-0.533,0.099
		c-0.158,0-0.375-0.039-0.532-0.099c-0.06-0.315-0.099-0.73-0.119-1.104h-0.02c-0.671,0.828-1.854,1.302-3.019,1.302
		c-1.835,0-3.374-1.026-3.374-3.137c0-1.204,0.493-2.092,1.263-2.644c0.868-0.612,2.013-0.81,3.236-0.81
		c0.69,0,1.263,0.04,1.775,0.118v-0.571c0-1.974-0.809-2.625-2.466-2.625c-0.928,0-2.072,0.198-2.782,0.375
		c-0.04-0.099-0.079-0.315-0.079-0.513c0-0.138,0.039-0.335,0.099-0.454c0.849-0.256,1.973-0.414,2.92-0.414
		c2.348,0,3.591,1.065,3.591,3.473V235.186z M163.712,232.403c-0.572-0.078-1.164-0.118-1.677-0.118
		c-0.967,0-1.835,0.178-2.427,0.632c-0.533,0.395-0.829,1.025-0.829,1.835c0,1.439,0.928,2.13,2.21,2.13
		c1.065,0,2.189-0.513,2.723-1.321V232.403z"/>
	<path fill="#333333" d="M173.185,237.612c-0.513,0.178-1.282,0.296-1.854,0.296c-1.953,0-2.881-0.928-2.881-3.117v-6.353h-1.775
		c-0.039-0.099-0.06-0.336-0.06-0.454c0-0.099,0.021-0.336,0.06-0.435l1.775-0.118v-2.683c0.158-0.06,0.415-0.099,0.632-0.099
		s0.493,0.039,0.651,0.099v2.683h2.899c0.04,0.099,0.079,0.395,0.079,0.493c0,0.139-0.039,0.375-0.079,0.514h-2.899v6.234
		c0,1.559,0.453,2.209,1.677,2.209c0.671,0,1.321-0.099,1.775-0.236c0.039,0.099,0.079,0.335,0.079,0.474
		C173.264,237.297,173.244,237.435,173.185,237.612z"/>
	<path fill="#333333" d="M185.912,228.675c-0.631-0.257-1.46-0.414-2.189-0.414c-2.565,0-3.512,1.992-3.512,4.399
		c0,2.367,0.907,4.202,3.492,4.202c0.69,0,1.519-0.118,2.131-0.296c0.039,0.118,0.078,0.257,0.078,0.414
		c0,0.237-0.039,0.415-0.099,0.553c-0.571,0.237-1.499,0.375-2.229,0.375c-3.216,0-4.715-2.111-4.715-5.209
		c0-3.216,1.638-5.465,4.774-5.465c0.75,0,1.638,0.178,2.249,0.454c0.06,0.157,0.079,0.315,0.079,0.493
		C185.972,228.379,185.952,228.537,185.912,228.675z"/>
	<path fill="#333333" d="M191.695,237.908c-2.585,0-4.242-1.775-4.242-5.327c0-3.551,1.677-5.347,4.262-5.347
		c2.584,0,4.222,1.756,4.222,5.308C195.937,236.093,194.279,237.908,191.695,237.908z M191.715,228.201
		c-1.895,0-2.92,1.46-2.92,4.36s1.006,4.38,2.9,4.38c1.894,0,2.899-1.479,2.899-4.38S193.608,228.201,191.715,228.201z"/>
	<path fill="#333333" d="M205.627,233.805c0,2.999-1.243,4.104-3.848,4.104c-2.663,0-3.788-1.104-3.788-4.005v-6.472
		c0.178-0.059,0.414-0.099,0.632-0.099c0.276,0,0.493,0.06,0.65,0.099v6.313c0,1.914,0.296,3.177,2.525,3.177
		c2.092,0,2.546-1.224,2.546-3.216v-6.274c0.157-0.059,0.434-0.099,0.65-0.099c0.218,0,0.454,0.04,0.632,0.099V233.805z"/>
	<path fill="#333333" d="M209.575,237.711c-0.217,0.06-0.434,0.099-0.67,0.099c-0.198,0-0.435-0.039-0.612-0.099v-14.402
		c0.178-0.04,0.395-0.099,0.651-0.099c0.217,0,0.454,0.039,0.631,0.099V237.711z"/>
	<path fill="#333333" d="M219.382,237.81c-0.178,0-0.395-0.06-0.514-0.099l-0.118-1.184h-0.02c-0.849,0.888-1.854,1.381-2.979,1.381
		c-2.723,0-4.024-2.269-4.024-5.031c0-2.742,1.164-5.643,4.301-5.643c0.986,0,1.895,0.336,2.624,0.849v-4.774
		c0.178-0.06,0.414-0.099,0.632-0.099c0.236,0,0.474,0.059,0.65,0.099v14.402C219.796,237.771,219.599,237.81,219.382,237.81z
		 M218.651,229.168c-0.71-0.592-1.617-0.888-2.545-0.888c-2.289,0-3.058,2.249-3.058,4.538c0,1.756,0.552,4.044,2.762,4.044
		c1.065,0,2.15-0.532,2.841-1.361V229.168z"/>
</g>
<g>
	<path fill="#333333" d="M16.928,260.762c-0.77,0.69-1.973,1.065-3.117,1.065c-0.809,0-1.559-0.138-2.111-0.335v4.972
		c-0.197,0.059-0.375,0.099-0.651,0.099c-0.217,0-0.474-0.04-0.631-0.099v-14.916c0.099-0.039,0.335-0.079,0.533-0.079
		s0.375,0.04,0.513,0.079l0.119,1.085h0.02c0.75-0.789,1.875-1.282,3.019-1.282c1.243,0,2.348,0.533,3.039,1.52
		c0.572,0.828,0.927,2.013,0.927,3.452C18.585,258.296,17.973,259.814,16.928,260.762z M14.481,252.396
		c-1.045,0-2.091,0.434-2.782,1.302v6.787c0.513,0.237,1.302,0.375,1.973,0.375c2.131,0,3.571-1.4,3.571-4.479
		C17.243,253.955,16.296,252.396,14.481,252.396z"/>
	<path fill="#333333" d="M25.295,252.495c-1.144,0.158-2.387,0.572-3.314,1.282v8.05c-0.197,0.06-0.434,0.099-0.651,0.099
		c-0.217,0-0.434-0.039-0.631-0.099v-10.279c0.118-0.039,0.296-0.079,0.493-0.079c0.158,0,0.375,0.04,0.533,0.079l0.099,1.263h0.02
		c0.849-0.729,2.328-1.342,3.453-1.46c0.04,0.118,0.079,0.336,0.079,0.513C25.375,252.061,25.335,252.317,25.295,252.495z"/>
	<path fill="#333333" d="M34.116,257.033h-6.609c0.079,2.269,1.144,3.985,3.61,3.985c0.888,0,1.716-0.119,2.446-0.296
		c0.04,0.099,0.079,0.296,0.079,0.414c0,0.197-0.04,0.375-0.099,0.513c-0.77,0.237-1.736,0.375-2.545,0.375
		c-1.559,0-2.743-0.493-3.473-1.282c-0.868-0.947-1.322-2.368-1.322-4.005c0-2.861,1.44-5.387,4.321-5.387
		c2.584,0,3.61,2.131,3.61,4.735C34.136,256.382,34.136,256.737,34.116,257.033z M32.854,256.086c0-1.815-0.197-3.769-2.387-3.769
		c-1.914,0-2.841,1.756-2.959,3.769H32.854z"/>
	<path fill="#333333" d="M43.253,254.054l-3.098,7.773c-0.177,0.06-0.375,0.099-0.533,0.099c-0.217,0-0.395-0.039-0.552-0.099
		l-3.196-7.773c-0.355-0.888-0.513-1.775-0.513-2.506c0.158-0.039,0.434-0.099,0.611-0.099c0.237,0,0.474,0.04,0.671,0.099
		c0.02,0.671,0.099,1.44,0.395,2.15l2.565,6.511h0.04l2.486-6.511c0.276-0.69,0.414-1.46,0.414-2.15
		c0.138-0.059,0.434-0.099,0.691-0.099c0.138,0,0.395,0.02,0.572,0.079C43.786,252.238,43.648,253.087,43.253,254.054z"/>
	<path fill="#333333" d="M52.824,257.033h-6.609c0.079,2.269,1.144,3.985,3.61,3.985c0.888,0,1.716-0.119,2.446-0.296
		c0.04,0.099,0.079,0.296,0.079,0.414c0,0.197-0.04,0.375-0.099,0.513c-0.77,0.237-1.736,0.375-2.545,0.375
		c-1.559,0-2.743-0.493-3.473-1.282c-0.868-0.947-1.322-2.368-1.322-4.005c0-2.861,1.44-5.387,4.321-5.387
		c2.584,0,3.61,2.131,3.61,4.735C52.844,256.382,52.844,256.737,52.824,257.033z M51.562,256.086c0-1.815-0.197-3.769-2.387-3.769
		c-1.914,0-2.841,1.756-2.959,3.769H51.562z"/>
	<path fill="#333333" d="M62.889,261.847c-0.158,0.04-0.395,0.079-0.631,0.079c-0.197,0-0.454-0.039-0.651-0.099v-6.254
		c0-0.947-0.119-1.678-0.395-2.19c-0.335-0.631-0.967-0.947-1.993-0.947c-0.987,0-2.17,0.553-2.94,1.145v8.247
		c-0.217,0.06-0.434,0.099-0.671,0.099c-0.197,0-0.434-0.039-0.611-0.099v-10.279c0.138-0.059,0.375-0.079,0.513-0.079
		c0.197,0,0.434,0.021,0.553,0.079l0.099,1.026h0.02c1.085-0.888,2.328-1.224,3.334-1.224c1.006,0,2.052,0.336,2.624,1.026
		c0.631,0.749,0.75,1.835,0.75,2.9V261.847z"/>
	<path fill="#333333" d="M70.98,261.729c-0.513,0.178-1.282,0.296-1.854,0.296c-1.953,0-2.88-0.928-2.88-3.117v-6.353H64.47
		c-0.04-0.099-0.059-0.336-0.059-0.454c0-0.099,0.02-0.336,0.059-0.435l1.776-0.118v-2.683c0.158-0.06,0.414-0.099,0.631-0.099
		c0.217,0,0.493,0.039,0.651,0.099v2.683h2.9c0.04,0.099,0.079,0.395,0.079,0.493c0,0.139-0.039,0.375-0.079,0.514h-2.9v6.234
		c0,1.559,0.454,2.209,1.677,2.209c0.67,0,1.322-0.099,1.775-0.236c0.04,0.099,0.079,0.335,0.079,0.474
		C71.06,261.413,71.04,261.551,70.98,261.729z"/>
	<path fill="#333333" d="M82.702,261.729c-0.513,0.178-1.282,0.296-1.854,0.296c-1.953,0-2.88-0.928-2.88-3.117v-6.353h-1.776
		c-0.04-0.099-0.059-0.336-0.059-0.454c0-0.099,0.02-0.336,0.059-0.435l1.776-0.118v-2.683c0.158-0.06,0.414-0.099,0.631-0.099
		c0.217,0,0.493,0.039,0.651,0.099v2.683h2.9c0.04,0.099,0.079,0.395,0.079,0.493c0,0.139-0.039,0.375-0.079,0.514h-2.9v6.234
		c0,1.559,0.454,2.209,1.677,2.209c0.67,0,1.322-0.099,1.775-0.236c0.04,0.099,0.079,0.335,0.079,0.474
		C82.781,261.413,82.761,261.551,82.702,261.729z"/>
	<path fill="#333333" d="M91.898,257.921c0,2.999-1.243,4.104-3.848,4.104c-2.663,0-3.788-1.104-3.788-4.005v-6.472
		c0.178-0.059,0.415-0.099,0.631-0.099c0.276,0,0.494,0.06,0.651,0.099v6.313c0,1.914,0.296,3.177,2.525,3.177
		c2.091,0,2.545-1.224,2.545-3.216v-6.274c0.158-0.059,0.434-0.099,0.651-0.099c0.217,0,0.454,0.04,0.631,0.099V257.921z"/>
	<path fill="#333333" d="M108.809,261.847c-0.197,0.04-0.395,0.079-0.592,0.079c-0.237,0-0.454-0.06-0.691-0.099v-6.234
		c0-2.171-0.552-3.157-2.387-3.157c-0.947,0-2.209,0.493-2.999,1.065c0.158,0.553,0.198,1.164,0.198,1.776v6.55
		c-0.198,0.06-0.395,0.099-0.592,0.099c-0.256,0-0.493-0.039-0.69-0.099v-6.234c0-2.171-0.493-3.157-2.328-3.157
		c-0.986,0-2.15,0.553-2.92,1.145v8.247c-0.217,0.06-0.474,0.099-0.71,0.099c-0.197,0-0.414-0.039-0.572-0.099v-10.279
		c0.099-0.039,0.315-0.079,0.533-0.079c0.177,0,0.395,0.04,0.533,0.079l0.099,1.026h0.02c1.085-0.888,2.328-1.224,3.334-1.224
		c1.006,0,1.973,0.336,2.545,1.026c0.079,0.079,0.138,0.178,0.197,0.276c1.046-0.849,2.387-1.303,3.67-1.303
		c1.006,0,2.032,0.336,2.604,1.026c0.631,0.749,0.75,1.835,0.75,2.9V261.847z"/>
	<path fill="#333333" d="M115.107,262.024c-2.584,0-4.242-1.775-4.242-5.327c0-3.551,1.677-5.347,4.262-5.347
		c2.584,0,4.222,1.756,4.222,5.308C119.349,260.209,117.691,262.024,115.107,262.024z M115.127,252.317
		c-1.894,0-2.92,1.46-2.92,4.36s1.006,4.38,2.9,4.38s2.9-1.479,2.9-4.38S117.021,252.317,115.127,252.317z"/>
	<path fill="#333333" d="M129.039,257.921c0,2.999-1.243,4.104-3.848,4.104c-2.663,0-3.788-1.104-3.788-4.005v-6.472
		c0.178-0.059,0.415-0.099,0.631-0.099c0.276,0,0.494,0.06,0.651,0.099v6.313c0,1.914,0.296,3.177,2.525,3.177
		c2.091,0,2.545-1.224,2.545-3.216v-6.274c0.158-0.059,0.434-0.099,0.651-0.099c0.217,0,0.454,0.04,0.631,0.099V257.921z"/>
	<path fill="#333333" d="M136.262,252.495c-1.144,0.158-2.387,0.572-3.314,1.282v8.05c-0.197,0.06-0.434,0.099-0.651,0.099
		c-0.217,0-0.434-0.039-0.631-0.099v-10.279c0.118-0.039,0.296-0.079,0.493-0.079c0.158,0,0.375,0.04,0.533,0.079l0.099,1.263h0.02
		c0.849-0.729,2.328-1.342,3.453-1.46c0.04,0.118,0.079,0.336,0.079,0.513C136.341,252.061,136.301,252.317,136.262,252.495z"/>
	<path fill="#333333" d="M150.036,260.11c0,1.48-0.079,3.256-0.789,4.479c-0.849,1.46-2.368,2.092-3.887,2.092
		c-0.868,0-1.618-0.099-2.249-0.315c-0.059-0.119-0.079-0.316-0.079-0.474c0-0.118,0.039-0.355,0.079-0.474
		c0.612,0.158,1.322,0.276,2.032,0.276c2.486,0,3.61-1.539,3.61-4.242v-0.828c-0.769,0.809-1.854,1.203-2.742,1.203
		c-2.624,0-3.985-2.032-3.985-4.893c0-3.513,2.071-5.584,5.129-5.584c0.809,0,2.032,0.237,2.881,0.572V260.11z M148.753,252.555
		c-0.71-0.197-1.223-0.257-1.716-0.257c-2.506,0-3.689,2.111-3.689,4.577c0,2.19,0.829,3.906,2.762,3.906
		c0.986,0,1.993-0.493,2.644-1.184V252.555z"/>
	<path fill="#333333" d="M157.318,252.495c-1.145,0.158-2.387,0.572-3.314,1.282v8.05c-0.197,0.06-0.434,0.099-0.651,0.099
		c-0.217,0-0.434-0.039-0.631-0.099v-10.279c0.118-0.039,0.296-0.079,0.493-0.079c0.158,0,0.375,0.04,0.532,0.079l0.099,1.263h0.021
		c0.848-0.729,2.328-1.342,3.452-1.46c0.04,0.118,0.079,0.336,0.079,0.513C157.397,252.061,157.358,252.317,157.318,252.495z"/>
	<path fill="#333333" d="M162.489,262.024c-2.585,0-4.242-1.775-4.242-5.327c0-3.551,1.677-5.347,4.262-5.347
		c2.584,0,4.222,1.756,4.222,5.308C166.73,260.209,165.073,262.024,162.489,262.024z M162.509,252.317c-1.895,0-2.92,1.46-2.92,4.36
		s1.006,4.38,2.9,4.38c1.894,0,2.899-1.479,2.899-4.38S164.402,252.317,162.509,252.317z"/>
	<path fill="#333333" d="M180.702,253.58l-2.644,8.247c-0.158,0.06-0.454,0.099-0.612,0.099c-0.177,0-0.473-0.039-0.611-0.099
		l-2.367-7.971h-0.04l-2.485,7.971c-0.178,0.06-0.454,0.099-0.612,0.099c-0.157,0-0.414-0.039-0.592-0.099l-2.446-8.129
		c-0.217-0.671-0.315-1.44-0.335-2.17c0.157-0.039,0.474-0.079,0.671-0.079c0.217,0,0.414,0.04,0.592,0.099
		c0.02,0.71,0.138,1.46,0.315,2.111l1.795,6.412h0.021l2.564-8.543c0.138-0.039,0.414-0.06,0.553-0.06
		c0.138,0,0.434,0.021,0.552,0.06l2.427,8.543h0.021l1.973-6.393c0.217-0.729,0.375-1.421,0.414-2.131
		c0.139-0.059,0.474-0.099,0.651-0.099s0.454,0.04,0.572,0.099C181.077,252.219,180.919,252.89,180.702,253.58z"/>
	<path fill="#333333" d="M188.656,261.729c-0.513,0.178-1.282,0.296-1.854,0.296c-1.953,0-2.881-0.928-2.881-3.117v-6.353h-1.775
		c-0.039-0.099-0.06-0.336-0.06-0.454c0-0.099,0.021-0.336,0.06-0.435l1.775-0.118v-2.683c0.158-0.06,0.415-0.099,0.632-0.099
		s0.493,0.039,0.651,0.099v2.683h2.899c0.04,0.099,0.079,0.395,0.079,0.493c0,0.139-0.039,0.375-0.079,0.514h-2.899v6.234
		c0,1.559,0.453,2.209,1.677,2.209c0.671,0,1.321-0.099,1.775-0.236c0.039,0.099,0.079,0.335,0.079,0.474
		C188.735,261.413,188.716,261.551,188.656,261.729z"/>
	<path fill="#333333" d="M198.464,261.827c-0.178,0.06-0.395,0.099-0.592,0.099c-0.236,0-0.493-0.039-0.69-0.099v-6.234
		c0-2.171-0.553-3.157-2.388-3.157c-0.986,0-2.17,0.553-2.939,1.145v8.247c-0.217,0.06-0.454,0.099-0.671,0.099
		c-0.197,0-0.434-0.039-0.611-0.099v-14.402c0.178-0.06,0.453-0.099,0.631-0.099s0.474,0.039,0.651,0.099v5.07
		c1.046-0.809,2.289-1.145,3.256-1.145c1.006,0,2.031,0.336,2.604,1.026c0.632,0.749,0.75,1.835,0.75,2.9V261.827z"/>
</g>
<g>
	<path fill="#333333" d="M17.44,283.418c0,0.71,0,1.598,0.04,2.525c-0.138,0.06-0.355,0.099-0.533,0.099
		c-0.158,0-0.375-0.039-0.533-0.099c-0.059-0.315-0.099-0.73-0.118-1.104h-0.02c-0.671,0.828-1.854,1.302-3.019,1.302
		c-1.835,0-3.374-1.026-3.374-3.137c0-1.204,0.493-2.092,1.263-2.644c0.868-0.612,2.012-0.81,3.235-0.81
		c0.691,0,1.263,0.04,1.776,0.118v-0.571c0-1.974-0.809-2.625-2.466-2.625c-0.927,0-2.072,0.198-2.782,0.375
		c-0.04-0.099-0.079-0.315-0.079-0.513c0-0.138,0.04-0.335,0.099-0.454c0.849-0.256,1.973-0.414,2.92-0.414
		c2.348,0,3.591,1.065,3.591,3.473V283.418z M16.158,280.636c-0.572-0.078-1.164-0.118-1.677-0.118
		c-0.967,0-1.834,0.178-2.427,0.632c-0.533,0.395-0.829,1.025-0.829,1.835c0,1.439,0.927,2.13,2.21,2.13
		c1.065,0,2.19-0.513,2.723-1.321V280.636z"/>
	<path fill="#333333" d="M28.057,285.963c-0.158,0.04-0.395,0.079-0.631,0.079c-0.197,0-0.454-0.039-0.651-0.099v-6.254
		c0-0.947-0.119-1.678-0.395-2.19c-0.335-0.631-0.967-0.947-1.993-0.947c-0.987,0-2.17,0.553-2.94,1.145v8.247
		c-0.217,0.06-0.434,0.099-0.671,0.099c-0.197,0-0.434-0.039-0.611-0.099v-10.279c0.138-0.059,0.375-0.079,0.513-0.079
		c0.197,0,0.434,0.021,0.553,0.079l0.099,1.026h0.02c1.085-0.888,2.328-1.224,3.334-1.224c1.006,0,2.052,0.336,2.624,1.026
		c0.631,0.749,0.75,1.835,0.75,2.9V285.963z"/>
	<path fill="#333333" d="M37.767,286.042c-0.177,0-0.395-0.06-0.513-0.099l-0.119-1.184h-0.02c-0.848,0.888-1.854,1.381-2.979,1.381
		c-2.723,0-4.025-2.269-4.025-5.031c0-2.742,1.164-5.643,4.301-5.643c0.987,0,1.894,0.336,2.624,0.849v-4.774
		c0.178-0.06,0.415-0.099,0.631-0.099c0.237,0,0.474,0.059,0.651,0.099v14.402C38.181,286.003,37.984,286.042,37.767,286.042z
		 M37.037,277.4c-0.71-0.592-1.618-0.888-2.545-0.888c-2.289,0-3.058,2.249-3.058,4.538c0,1.756,0.552,4.044,2.762,4.044
		c1.065,0,2.15-0.532,2.841-1.361V277.4z"/>
	<path fill="#333333" d="M51.857,284.878c-0.77,0.69-1.973,1.065-3.117,1.065c-0.809,0-1.559-0.138-2.111-0.335v4.972
		c-0.197,0.059-0.375,0.099-0.651,0.099c-0.217,0-0.474-0.04-0.631-0.099v-14.916c0.099-0.039,0.335-0.079,0.533-0.079
		s0.375,0.04,0.513,0.079l0.119,1.085h0.02c0.75-0.789,1.875-1.282,3.019-1.282c1.243,0,2.348,0.533,3.039,1.52
		c0.572,0.828,0.927,2.012,0.927,3.452C53.515,282.412,52.903,283.931,51.857,284.878z M49.411,276.513
		c-1.045,0-2.091,0.434-2.782,1.302v6.787c0.513,0.237,1.302,0.375,1.973,0.375c2.131,0,3.571-1.4,3.571-4.479
		C52.173,278.071,51.226,276.513,49.411,276.513z"/>
	<path fill="#333333" d="M62.652,283.418c0,0.71,0,1.598,0.04,2.525c-0.138,0.06-0.355,0.099-0.533,0.099
		c-0.158,0-0.375-0.039-0.533-0.099c-0.059-0.315-0.099-0.73-0.118-1.104h-0.02c-0.671,0.828-1.854,1.302-3.019,1.302
		c-1.835,0-3.374-1.026-3.374-3.137c0-1.204,0.493-2.092,1.263-2.644c0.868-0.612,2.012-0.81,3.235-0.81
		c0.69,0,1.263,0.04,1.776,0.118v-0.571c0-1.974-0.809-2.625-2.466-2.625c-0.927,0-2.072,0.198-2.782,0.375
		c-0.04-0.099-0.079-0.315-0.079-0.513c0-0.138,0.04-0.335,0.099-0.454c0.849-0.256,1.973-0.414,2.92-0.414
		c2.348,0,3.591,1.065,3.591,3.473V283.418z M61.37,280.636c-0.572-0.078-1.164-0.118-1.677-0.118c-0.967,0-1.834,0.178-2.427,0.632
		c-0.533,0.395-0.829,1.025-0.829,1.835c0,1.439,0.927,2.13,2.21,2.13c1.065,0,2.19-0.513,2.723-1.321V280.636z"/>
	<path fill="#333333" d="M70.842,285.845c-0.513,0.178-1.282,0.296-1.854,0.296c-1.953,0-2.88-0.928-2.88-3.117v-6.353h-1.776
		c-0.04-0.099-0.059-0.336-0.059-0.454c0-0.099,0.02-0.336,0.059-0.435l1.776-0.118v-2.683c0.158-0.06,0.414-0.099,0.631-0.099
		c0.217,0,0.493,0.039,0.651,0.099v2.683h2.9c0.04,0.099,0.079,0.395,0.079,0.493c0,0.139-0.039,0.375-0.079,0.514h-2.9v6.234
		c0,1.559,0.454,2.209,1.677,2.209c0.67,0,1.322-0.099,1.775-0.236c0.04,0.099,0.079,0.335,0.079,0.474
		C70.921,285.529,70.901,285.667,70.842,285.845z"/>
	<path fill="#333333" d="M73.467,273.651c-0.454,0-0.829-0.395-0.829-0.867c0-0.474,0.375-0.849,0.829-0.849
		c0.454,0,0.849,0.375,0.849,0.849C74.316,273.257,73.921,273.651,73.467,273.651z M74.119,285.943
		c-0.178,0.06-0.434,0.099-0.651,0.099c-0.217,0-0.454-0.039-0.631-0.099v-10.279c0.158-0.039,0.415-0.099,0.612-0.099
		c0.217,0,0.513,0.04,0.671,0.099V285.943z"/>
	<path fill="#333333" d="M84.221,281.149h-6.609c0.079,2.269,1.144,3.985,3.61,3.985c0.888,0,1.716-0.119,2.446-0.296
		c0.04,0.099,0.079,0.296,0.079,0.414c0,0.197-0.04,0.375-0.099,0.513c-0.77,0.237-1.736,0.375-2.545,0.375
		c-1.559,0-2.743-0.493-3.473-1.282c-0.868-0.947-1.322-2.368-1.322-4.005c0-2.861,1.44-5.387,4.321-5.387
		c2.584,0,3.61,2.131,3.61,4.735C84.241,280.498,84.241,280.854,84.221,281.149z M82.958,280.202c0-1.815-0.197-3.769-2.387-3.769
		c-1.914,0-2.841,1.756-2.959,3.769H82.958z"/>
	<path fill="#333333" d="M94.286,285.963c-0.158,0.04-0.395,0.079-0.631,0.079c-0.197,0-0.454-0.039-0.651-0.099v-6.254
		c0-0.947-0.119-1.678-0.395-2.19c-0.335-0.631-0.967-0.947-1.993-0.947c-0.987,0-2.17,0.553-2.94,1.145v8.247
		c-0.217,0.06-0.434,0.099-0.671,0.099c-0.197,0-0.434-0.039-0.611-0.099v-10.279c0.138-0.059,0.375-0.079,0.513-0.079
		c0.197,0,0.434,0.021,0.553,0.079l0.099,1.026h0.02c1.085-0.888,2.328-1.224,3.334-1.224c1.006,0,2.052,0.336,2.624,1.026
		c0.631,0.749,0.75,1.835,0.75,2.9V285.963z"/>
	<path fill="#333333" d="M102.377,285.845c-0.513,0.178-1.282,0.296-1.854,0.296c-1.953,0-2.88-0.928-2.88-3.117v-6.353h-1.776
		c-0.04-0.099-0.059-0.336-0.059-0.454c0-0.099,0.02-0.336,0.059-0.435l1.776-0.118v-2.683c0.158-0.06,0.414-0.099,0.631-0.099
		c0.217,0,0.493,0.039,0.651,0.099v2.683h2.9c0.04,0.099,0.079,0.395,0.079,0.493c0,0.139-0.039,0.375-0.079,0.514h-2.9v6.234
		c0,1.559,0.454,2.209,1.677,2.209c0.67,0,1.322-0.099,1.775-0.236c0.04,0.099,0.079,0.335,0.079,0.474
		C102.457,285.529,102.437,285.667,102.377,285.845z"/>
	<path fill="#333333" d="M113.231,276.611c-1.144,0.158-2.387,0.572-3.314,1.282v8.05c-0.197,0.06-0.434,0.099-0.651,0.099
		c-0.217,0-0.434-0.039-0.631-0.099v-10.279c0.118-0.039,0.296-0.079,0.493-0.079c0.158,0,0.375,0.04,0.533,0.079l0.099,1.263h0.02
		c0.849-0.729,2.328-1.342,3.453-1.46c0.04,0.118,0.079,0.336,0.079,0.513C113.31,276.177,113.271,276.434,113.231,276.611z"/>
	<path fill="#333333" d="M122.052,281.149h-6.609c0.079,2.269,1.144,3.985,3.61,3.985c0.888,0,1.716-0.119,2.446-0.296
		c0.04,0.099,0.079,0.296,0.079,0.414c0,0.197-0.04,0.375-0.099,0.513c-0.77,0.237-1.736,0.375-2.545,0.375
		c-1.559,0-2.743-0.493-3.473-1.282c-0.868-0.947-1.322-2.368-1.322-4.005c0-2.861,1.44-5.387,4.321-5.387
		c2.584,0,3.61,2.131,3.61,4.735C122.072,280.498,122.072,280.854,122.052,281.149z M120.79,280.202
		c0-1.815-0.197-3.769-2.387-3.769c-1.914,0-2.841,1.756-2.959,3.769H120.79z"/>
	<path fill="#333333" d="M125.546,285.943c-0.217,0.06-0.434,0.099-0.671,0.099c-0.197,0-0.434-0.039-0.612-0.099v-14.402
		c0.178-0.04,0.395-0.099,0.651-0.099c0.217,0,0.454,0.039,0.631,0.099V285.943z"/>
	<path fill="#333333" d="M135.293,283.418c0,0.71,0,1.598,0.04,2.525c-0.138,0.06-0.355,0.099-0.533,0.099
		c-0.158,0-0.375-0.039-0.533-0.099c-0.059-0.315-0.099-0.73-0.118-1.104h-0.02c-0.671,0.828-1.854,1.302-3.019,1.302
		c-1.835,0-3.374-1.026-3.374-3.137c0-1.204,0.493-2.092,1.263-2.644c0.868-0.612,2.012-0.81,3.235-0.81
		c0.69,0,1.263,0.04,1.776,0.118v-0.571c0-1.974-0.809-2.625-2.466-2.625c-0.927,0-2.072,0.198-2.782,0.375
		c-0.04-0.099-0.079-0.315-0.079-0.513c0-0.138,0.04-0.335,0.099-0.454c0.849-0.256,1.973-0.414,2.92-0.414
		c2.348,0,3.591,1.065,3.591,3.473V283.418z M134.011,280.636c-0.572-0.078-1.164-0.118-1.677-0.118
		c-0.967,0-1.834,0.178-2.427,0.632c-0.533,0.395-0.829,1.025-0.829,1.835c0,1.439,0.927,2.13,2.21,2.13
		c1.065,0,2.19-0.513,2.723-1.321V280.636z"/>
	<path fill="#333333" d="M144.529,284.878c-0.77,0.69-1.973,1.065-3.117,1.065c-0.809,0-1.559-0.138-2.111-0.335v4.972
		c-0.197,0.059-0.375,0.099-0.651,0.099c-0.217,0-0.474-0.04-0.631-0.099v-14.916c0.099-0.039,0.335-0.079,0.533-0.079
		s0.375,0.04,0.513,0.079l0.119,1.085h0.02c0.75-0.789,1.875-1.282,3.019-1.282c1.243,0,2.348,0.533,3.039,1.52
		c0.572,0.828,0.927,2.012,0.927,3.452C146.187,282.412,145.575,283.931,144.529,284.878z M142.083,276.513
		c-1.045,0-2.091,0.434-2.782,1.302v6.787c0.513,0.237,1.302,0.375,1.973,0.375c2.131,0,3.571-1.4,3.571-4.479
		C144.845,278.071,143.898,276.513,142.083,276.513z"/>
	<path fill="#333333" d="M150.589,286.141c-0.987,0-2.013-0.178-2.723-0.454c-0.06-0.138-0.099-0.374-0.099-0.552
		c0-0.119,0.039-0.415,0.079-0.533c0.73,0.296,1.776,0.533,2.644,0.533c1.499,0,2.427-0.632,2.427-1.875
		c0-1.124-0.572-1.519-2.131-2.091c-2.17-0.789-2.881-1.697-2.881-3.038c0-1.815,1.5-2.664,3.434-2.664
		c0.65,0,1.499,0.118,1.992,0.276c0.06,0.178,0.079,0.355,0.079,0.474c0,0.157-0.039,0.434-0.079,0.572
		c-0.651-0.197-1.342-0.316-2.013-0.316c-1.4,0-2.249,0.533-2.249,1.618c0,0.947,0.533,1.401,2.15,2.013
		c1.48,0.553,2.842,1.104,2.842,3.098C154.062,285.213,152.542,286.141,150.589,286.141z"/>
	<path fill="#333333" d="M163.493,281.149h-6.609c0.079,2.269,1.145,3.985,3.61,3.985c0.889,0,1.717-0.119,2.447-0.296
		c0.039,0.099,0.078,0.296,0.078,0.414c0,0.197-0.039,0.375-0.099,0.513c-0.769,0.237-1.735,0.375-2.545,0.375
		c-1.559,0-2.742-0.493-3.472-1.282c-0.868-0.947-1.322-2.368-1.322-4.005c0-2.861,1.44-5.387,4.32-5.387
		c2.585,0,3.611,2.131,3.611,4.735C163.514,280.498,163.514,280.854,163.493,281.149z M162.23,280.202
		c0-1.815-0.197-3.769-2.387-3.769c-1.914,0-2.841,1.756-2.96,3.769H162.23z"/>
</g>
</svg>
