<?xml version="1.0" encoding="utf-8"?>
<!-- Generator: Adobe Illustrator 16.0.0, SVG Export Plug-In . SVG Version: 6.00 Build 0)  -->
<!DOCTYPE svg PUBLIC "-//W3C//DTD SVG 1.0//EN" "http://www.w3.org/TR/2001/REC-SVG-20010904/DTD/svg10.dtd">
<svg version="1.0" xmlns="http://www.w3.org/2000/svg" xmlns:xlink="http://www.w3.org/1999/xlink" x="0px" y="0px" width="300px"
	 height="300px" viewBox="0 0 300 300" style="enable-background:new 0 0 300 300;" xml:space="preserve">
<g id="Icon">
	<path style="fill:#58595B;" d="M175.777,17.264c-1.741,0.014-3.089,1.385-3.075,3.128c0.014,1.736,1.394,3.094,3.127,3.078
		c1.729-0.014,3.095-1.399,3.079-3.133C178.893,18.602,177.515,17.25,175.777,17.264 M138.521,119.769c17.857,0,35.716,0,53.571,0
		c2.862,0,3.904-1.035,3.904-3.882c0.001-20.188,0.001-40.375,0-60.562c0-2.856-1.038-3.893-3.887-3.893
		c-35.717,0-71.432,0-107.149,0c-2.864,0-3.897,1.029-3.897,3.881c-0.002,20.188-0.002,40.374,0,60.562
		c0,2.859,1.032,3.895,3.884,3.895C102.805,119.769,120.663,119.769,138.521,119.769 M111.429,45.218h1.545
		c26.397,0,52.797,0,79.193,0c6.117,0,10.041,3.91,10.041,10.012c0,20.23,0,40.461,0,60.69c0,6.123-3.91,10.059-9.994,10.061
		c-35.802,0-71.603,0-107.404,0c-6.024-0.002-9.961-3.938-9.961-9.956c-0.002-20.229-0.002-40.46,0-60.69
		c0-6.218,3.883-10.253,10.066-10.067c4.336,0.126,8.383-0.639,12.48-2.056c22.628-7.811,45.309-15.468,67.981-23.147
		c0.869-0.292,1.186-0.76,1.355-1.604c0.833-4.162,4.504-7.269,8.662-7.405c4.312-0.143,8.151,2.62,9.354,6.732
		c1.188,4.045-0.563,8.422-4.235,10.597c-3.687,2.181-8.317,1.645-11.248-1.521c-0.948-1.025-1.658-1.033-2.854-0.623
		c-18.001,6.165-36.022,12.281-54.038,18.408c-0.318,0.109-0.632,0.229-0.951,0.345C111.427,45.067,111.427,45.142,111.429,45.218"
		/>
	<path style="fill:#58595B;" d="M112.166,66.965c-10.347-0.014-18.671,8.291-18.675,18.625
		c-0.004,10.283,8.266,18.606,18.528,18.648c10.343,0.042,18.716-8.252,18.745-18.565C130.79,75.331,122.487,66.979,112.166,66.965
		 M112.089,110.452c-13.675-0.018-24.827-11.201-24.812-24.887c0.014-13.679,11.192-24.826,24.88-24.812
		c13.676,0.012,24.831,11.2,24.817,24.882C136.96,99.304,125.768,110.468,112.089,110.452"/>
	<path style="fill:#58595B;" d="M172.553,65.409c6.642,0,13.281-0.008,19.926,0.006c1.765,0.004,3.058,1.095,3.28,2.684
		c0.213,1.531-0.794,3.038-2.329,3.417c-0.412,0.103-0.856,0.103-1.284,0.103c-13.111,0.004-26.22,0.004-39.33,0.002
		c-2.228-0.002-3.646-1.242-3.624-3.145c0.022-1.892,1.43-3.066,3.696-3.068C159.444,65.407,165.997,65.409,172.553,65.409"/>
	<path style="fill:#58595B;" d="M172.417,88.706c-6.642,0-13.283,0.009-19.927-0.006c-1.764-0.004-3.061-1.102-3.278-2.687
		c-0.211-1.54,0.792-3.042,2.329-3.417c0.41-0.103,0.854-0.097,1.282-0.097c13.11-0.006,26.22-0.006,39.332-0.004
		c2.225,0.004,3.646,1.245,3.623,3.141c-0.02,1.884-1.44,3.069-3.697,3.069C185.526,88.708,178.971,88.706,172.417,88.706"/>
	<path style="fill:#58595B;" d="M172.541,99.58c6.64,0,13.285-0.017,19.926,0.008c2.609,0.008,4.148,2.531,2.879,4.654
		c-0.717,1.199-1.833,1.565-3.187,1.562c-7.807-0.024-15.614-0.012-23.419-0.012c-5.304,0-10.609,0.002-15.913-0.002
		c-2.231-0.002-3.649-1.233-3.636-3.131c0.014-1.892,1.426-3.077,3.685-3.077C159.432,99.578,165.985,99.58,172.541,99.58"/>
</g>
<g id="Text" style="display:none;">
	<text transform="matrix(1 0 0 1 74.8457 160.4639)" style="display:inline;"><tspan x="0" y="0" style="fill:#58595B; font-family:'FSMatthew-Light'; font-size:22.2916;">W</tspan><tspan x="18.68" y="0" style="fill:#58595B; font-family:'FSMatthew-Light'; font-size:22.2916;">e a</tspan><tspan x="45.34" y="0" style="fill:#58595B; font-family:'FSMatthew-Light'; font-size:22.2916;">r</tspan><tspan x="52.206" y="0" style="fill:#58595B; font-family:'FSMatthew-Light'; font-size:22.2916;">e p</tspan><tspan x="79.469" y="0" style="fill:#58595B; font-family:'FSMatthew-Light'; font-size:22.2916;">r</tspan><tspan x="86.356" y="0" style="fill:#58595B; font-family:'FSMatthew-Light'; font-size:22.2916;">oud</tspan></text>
	
		<text transform="matrix(1 0 0 1 201.6885 160.4639)" style="display:inline;fill:#58595B; font-family:'FSMatthew-Light'; font-size:22.2916;"> </text>
	<text transform="matrix(1 0 0 1 74.8457 182.7549)" style="display:inline;"><tspan x="0" y="0" style="fill:#58595B; font-family:'FSMatthew-Light'; font-size:22.2916;">t</tspan><tspan x="7.802" y="0" style="fill:#58595B; font-family:'FSMatthew-Light'; font-size:22.2916;">o ho</tspan><tspan x="47.235" y="0" style="fill:#58595B; font-family:'FSMatthew-Light'; font-size:22.2916;">s</tspan><tspan x="55.929" y="0" style="fill:#58595B; font-family:'FSMatthew-Light'; font-size:22.2916;">t the </tspan></text>
	
		<text transform="matrix(1 0 0 1 185.8379 182.7549)" style="display:inline;fill:#58595B; font-family:'FSMatthew-Light'; font-size:18.2386;"> </text>
	<text transform="matrix(1 0 0 1 74.8457 211.126)" style="display:inline;"><tspan x="0" y="0" style="fill:#837199; font-family:'FSMatthew-Medium'; font-size:25.8405;">BB</tspan><tspan x="27.029" y="0" style="fill:#837199; font-family:'FSMatthew-Medium'; font-size:25.8405;">C</tspan><tspan x="42.249" y="0" style="fill:#837199; font-family:'FSMatthew-Medium'; font-size:25.8405;">’S </tspan><tspan x="64.342" y="0" style="fill:#837199; font-family:'FSMatthew-Medium'; font-size:25.8405;">O</tspan><tspan x="81.629" y="0" style="fill:#837199; font-family:'FSMatthew-Medium'; font-size:25.8405;">N</tspan><tspan x="98.141" y="0" style="fill:#837199; font-family:'FSMatthew-Medium'; font-size:25.8405; letter-spacing:-3;">L</tspan><tspan x="107.211" y="0" style="fill:#837199; font-family:'FSMatthew-Medium'; font-size:25.8405;">Y</tspan></text>
	
		<text transform="matrix(1 0 0 1 206.4795 211.126)" style="display:inline;fill:#837199; font-family:'FSMatthew-Medium'; font-size:25.8405;"> </text>
	<text transform="matrix(1 0 0 1 74.8457 239.4971)" style="display:inline;"><tspan x="0" y="0" style="fill:#837199; font-family:'FSMatthew-Medium'; font-size:25.8405;">O</tspan><tspan x="17.287" y="0" style="fill:#837199; font-family:'FSMatthew-Medium'; font-size:25.8405;">N</tspan><tspan x="33.799" y="0" style="fill:#837199; font-family:'FSMatthew-Medium'; font-size:25.8405;">-</tspan><tspan x="41.731" y="0" style="fill:#837199; font-family:'FSMatthew-Medium'; font-size:25.8405;">C</tspan><tspan x="56.253" y="0" style="fill:#837199; font-family:'FSMatthew-Medium'; font-size:25.8405;">AMP</tspan><tspan x="105.117" y="0" style="fill:#837199; font-family:'FSMatthew-Medium'; font-size:25.8405;">U</tspan><tspan x="121.216" y="0" style="fill:#837199; font-family:'FSMatthew-Medium'; font-size:25.8405;">S</tspan></text>
	<text transform="matrix(1 0 0 1 74.8457 261.7881)" style="display:inline;"><tspan x="0" y="0" style="fill:#58595B; font-family:'FSMatthew-Light'; font-size:22.2916;">b</tspan><tspan x="11.614" y="0" style="fill:#58595B; font-family:'FSMatthew-Light'; font-size:22.2916;">r</tspan><tspan x="18.502" y="0" style="fill:#58595B; font-family:'FSMatthew-Light'; font-size:22.2916;">oadca</tspan><tspan x="73.205" y="0" style="fill:#58595B; font-family:'FSMatthew-Light'; font-size:22.2916;">s</tspan><tspan x="81.898" y="0" style="fill:#58595B; font-family:'FSMatthew-Light'; font-size:22.2916;">t</tspan><tspan x="90.235" y="0" style="fill:#58595B; font-family:'FSMatthew-Light'; font-size:22.2916;"> </tspan><tspan x="94.649" y="0" style="fill:#58595B; font-family:'FSMatthew-Light'; font-size:22.2916;">s</tspan><tspan x="103.343" y="0" style="fill:#58595B; font-family:'FSMatthew-Light'; font-size:22.2916;">t</tspan><tspan x="111.346" y="0" style="fill:#58595B; font-family:'FSMatthew-Light'; font-size:22.2916;">u</tspan><tspan x="122.87" y="0" style="fill:#58595B; font-family:'FSMatthew-Light'; font-size:22.2916;">d</tspan><tspan x="135.175" y="0" style="fill:#58595B; font-family:'FSMatthew-Light'; font-size:22.2916;">io</tspan></text>
	<text transform="matrix(1 0 0 1 74.8457 284.0801)" style="display:inline;"><tspan x="0" y="0" style="fill:#58595B; font-family:'FSMatthew-Light'; font-size:22.2916;">in the </tspan><tspan x="57.311" y="0" style="fill:#58595B; font-family:'FSMatthew-Light'; font-size:22.2916;">w</tspan><tspan x="73.272" y="0" style="fill:#58595B; font-family:'FSMatthew-Light'; font-size:22.2916;">orld</tspan></text>
</g>
<g id="Text_Flat">
	<g>
		<path style="fill:#58595B;" d="M84.789,149.652c-0.179-0.713-0.312-1.36-0.401-2.006c-0.111,0.624-0.245,1.226-0.446,1.984
			l-2.765,10.834c-0.223,0.066-0.58,0.111-0.892,0.111s-0.736-0.022-0.958-0.111l-3.255-11.303
			c-0.379-1.248-0.535-2.519-0.557-3.768c0.223-0.067,0.557-0.111,0.78-0.111c0.245,0,0.468,0.044,0.735,0.111
			c0.022,1.182,0.156,2.319,0.468,3.456l2.296,8.16c0.111,0.423,0.423,1.561,0.513,2.028c0.044-0.446,0.268-1.427,0.423-2.051
			l2.92-11.593c0.201-0.067,0.491-0.111,0.713-0.111c0.245,0,0.558,0.067,0.713,0.111l2.92,11.57
			c0.156,0.58,0.357,1.449,0.513,2.096c0.156-0.646,0.379-1.538,0.558-2.185l2.274-8.026c0.312-1.137,0.49-2.274,0.513-3.456
			c0.223-0.067,0.468-0.111,0.735-0.111c0.223,0,0.558,0.044,0.736,0.111c-0.022,1.159-0.178,2.386-0.557,3.679l-3.277,11.392
			c-0.245,0.066-0.758,0.111-1.003,0.111c-0.223,0-0.625-0.045-0.892-0.111L84.789,149.652z"/>
		<path style="fill:#58595B;" d="M103.335,155.047h-7.468c0.089,2.563,1.293,4.503,4.08,4.503c1.003,0,1.939-0.134,2.764-0.334
			c0.045,0.111,0.089,0.334,0.089,0.468c0,0.223-0.044,0.424-0.111,0.58c-0.87,0.267-1.962,0.423-2.876,0.423
			c-1.761,0-3.099-0.557-3.923-1.449c-0.981-1.069-1.494-2.675-1.494-4.525c0-3.232,1.627-6.085,4.882-6.085
			c2.92,0,4.08,2.408,4.08,5.35C103.357,154.311,103.357,154.712,103.335,155.047z M101.908,153.977
			c0-2.051-0.223-4.258-2.698-4.258c-2.162,0-3.21,1.984-3.344,4.258H101.908z"/>
		<path style="fill:#58595B;" d="M118.626,157.61c0,0.803,0,1.806,0.045,2.854c-0.156,0.066-0.401,0.111-0.602,0.111
			c-0.178,0-0.424-0.045-0.602-0.111c-0.067-0.356-0.111-0.825-0.134-1.248h-0.022c-0.758,0.936-2.096,1.471-3.411,1.471
			c-2.073,0-3.812-1.159-3.812-3.544c0-1.36,0.557-2.363,1.427-2.987c0.981-0.691,2.274-0.914,3.656-0.914
			c0.78,0,1.427,0.044,2.006,0.134v-0.646c0-2.229-0.914-2.965-2.787-2.965c-1.048,0-2.341,0.223-3.144,0.423
			c-0.044-0.111-0.089-0.356-0.089-0.58c0-0.156,0.045-0.379,0.112-0.513c0.958-0.29,2.229-0.468,3.299-0.468
			c2.653,0,4.057,1.204,4.057,3.923V157.61z M117.178,154.467c-0.646-0.089-1.315-0.134-1.895-0.134
			c-1.092,0-2.073,0.201-2.742,0.714c-0.602,0.445-0.936,1.159-0.936,2.073c0,1.627,1.047,2.407,2.497,2.407
			c1.204,0,2.475-0.579,3.077-1.493V154.467z"/>
		<path style="fill:#58595B;" d="M126.896,149.919c-1.293,0.178-2.698,0.646-3.746,1.449v9.096c-0.223,0.066-0.49,0.111-0.735,0.111
			c-0.246,0-0.491-0.045-0.713-0.111v-11.615c0.134-0.044,0.334-0.089,0.557-0.089c0.178,0,0.423,0.045,0.602,0.089l0.111,1.427
			h0.022c0.958-0.825,2.63-1.516,3.901-1.649c0.044,0.133,0.089,0.379,0.089,0.58C126.985,149.429,126.941,149.719,126.896,149.919z
			"/>
		<path style="fill:#58595B;" d="M136.861,155.047h-7.468c0.089,2.563,1.293,4.503,4.08,4.503c1.003,0,1.939-0.134,2.764-0.334
			c0.045,0.111,0.089,0.334,0.089,0.468c0,0.223-0.044,0.424-0.111,0.58c-0.87,0.267-1.962,0.423-2.876,0.423
			c-1.761,0-3.099-0.557-3.923-1.449c-0.981-1.069-1.494-2.675-1.494-4.525c0-3.232,1.627-6.085,4.882-6.085
			c2.92,0,4.08,2.408,4.08,5.35C136.883,154.311,136.883,154.712,136.861,155.047z M135.434,153.977
			c0-2.051-0.223-4.258-2.698-4.258c-2.162,0-3.21,1.984-3.344,4.258H135.434z"/>
		<path style="fill:#58595B;" d="M151.572,159.26c-0.869,0.78-2.229,1.204-3.521,1.204c-0.914,0-1.761-0.156-2.386-0.379v5.618
			c-0.223,0.066-0.423,0.111-0.735,0.111c-0.246,0-0.535-0.045-0.713-0.111v-16.854c0.111-0.044,0.379-0.089,0.602-0.089
			c0.223,0,0.424,0.045,0.58,0.089l0.134,1.226h0.022c0.847-0.892,2.118-1.449,3.411-1.449c1.405,0,2.653,0.602,3.433,1.716
			c0.646,0.937,1.048,2.274,1.048,3.901C153.445,156.474,152.754,158.19,151.572,159.26z M148.809,149.808
			c-1.182,0-2.363,0.491-3.144,1.472v7.669c0.58,0.268,1.472,0.423,2.229,0.423c2.408,0,4.035-1.582,4.035-5.061
			C151.93,151.569,150.859,149.808,148.809,149.808z"/>
		<path style="fill:#58595B;" d="M161.024,149.919c-1.293,0.178-2.697,0.646-3.745,1.449v9.096c-0.223,0.066-0.49,0.111-0.735,0.111
			s-0.49-0.045-0.714-0.111v-11.615c0.134-0.044,0.335-0.089,0.558-0.089c0.179,0,0.424,0.045,0.602,0.089l0.112,1.427h0.021
			c0.959-0.825,2.631-1.516,3.901-1.649c0.045,0.133,0.09,0.379,0.09,0.58C161.114,149.429,161.069,149.719,161.024,149.919z"/>
		<path style="fill:#58595B;" d="M166.864,160.687c-2.92,0-4.793-2.006-4.793-6.019c0-4.013,1.896-6.042,4.815-6.042
			c2.921,0,4.771,1.984,4.771,5.997S169.785,160.687,166.864,160.687z M166.887,149.719c-2.14,0-3.299,1.649-3.299,4.927
			s1.137,4.949,3.276,4.949c2.141,0,3.277-1.672,3.277-4.949S169.027,149.719,166.887,149.719z"/>
		<path style="fill:#58595B;" d="M182.603,156.05c0,3.389-1.404,4.637-4.347,4.637c-3.01,0-4.28-1.248-4.28-4.525v-7.312
			c0.2-0.067,0.468-0.111,0.713-0.111c0.312,0,0.558,0.067,0.736,0.111v7.134c0,2.162,0.334,3.589,2.854,3.589
			c2.362,0,2.875-1.382,2.875-3.634v-7.089c0.179-0.067,0.491-0.111,0.736-0.111s0.513,0.044,0.713,0.111V156.05z"/>
		<path style="fill:#58595B;" d="M193.57,160.575c-0.201,0-0.446-0.066-0.58-0.111l-0.134-1.338h-0.022
			c-0.958,1.004-2.096,1.561-3.366,1.561c-3.076,0-4.548-2.563-4.548-5.685c0-3.099,1.315-6.375,4.86-6.375
			c1.114,0,2.14,0.379,2.965,0.958v-5.395c0.2-0.067,0.468-0.111,0.713-0.111c0.268,0,0.535,0.067,0.736,0.111v16.274
			C194.038,160.53,193.815,160.575,193.57,160.575z M192.745,150.811c-0.803-0.669-1.828-1.003-2.876-1.003
			c-2.586,0-3.455,2.542-3.455,5.128c0,1.983,0.624,4.569,3.121,4.569c1.203,0,2.43-0.602,3.21-1.538V150.811z"/>
	</g>
	<g>
		<path style="fill:#58595B;" d="M82.537,182.644c-0.58,0.2-1.449,0.334-2.095,0.334c-2.207,0-3.255-1.048-3.255-3.522v-7.178H75.18
			c-0.044-0.111-0.067-0.379-0.067-0.513c0-0.111,0.022-0.379,0.067-0.49l2.006-0.134v-3.032c0.178-0.067,0.468-0.111,0.713-0.111
			s0.557,0.044,0.736,0.111v3.032h3.277c0.044,0.111,0.089,0.445,0.089,0.557c0,0.156-0.045,0.424-0.089,0.58h-3.277v7.044
			c0,1.762,0.513,2.497,1.895,2.497c0.758,0,1.494-0.111,2.006-0.268c0.045,0.111,0.089,0.379,0.089,0.535
			C82.626,182.287,82.604,182.442,82.537,182.644z"/>
		<path style="fill:#58595B;" d="M88.31,182.978c-2.92,0-4.793-2.006-4.793-6.019s1.895-6.042,4.815-6.042s4.771,1.984,4.771,5.997
			S91.23,182.978,88.31,182.978z M88.332,172.01c-2.14,0-3.299,1.649-3.299,4.927s1.137,4.949,3.277,4.949s3.277-1.672,3.277-4.949
			S90.472,172.01,88.332,172.01z"/>
		<path style="fill:#58595B;" d="M109.309,182.755c-0.201,0.066-0.446,0.111-0.669,0.111c-0.267,0-0.557-0.045-0.78-0.111v-7.045
			c0-2.452-0.624-3.566-2.697-3.566c-1.115,0-2.452,0.624-3.322,1.293v9.318c-0.245,0.066-0.513,0.111-0.758,0.111
			c-0.223,0-0.49-0.045-0.691-0.111V166.48c0.201-0.066,0.513-0.111,0.713-0.111s0.535,0.045,0.735,0.111v5.729
			c1.182-0.914,2.586-1.293,3.679-1.293c1.137,0,2.296,0.379,2.942,1.159c0.713,0.848,0.847,2.073,0.847,3.277V182.755z"/>
		<path style="fill:#58595B;" d="M116.419,182.978c-2.92,0-4.793-2.006-4.793-6.019s1.895-6.042,4.815-6.042
			s4.771,1.984,4.771,5.997S119.34,182.978,116.419,182.978z M116.441,172.01c-2.14,0-3.299,1.649-3.299,4.927
			s1.137,4.949,3.277,4.949s3.277-1.672,3.277-4.949S118.582,172.01,116.441,172.01z"/>
		<path style="fill:#58595B;" d="M126.183,182.978c-1.115,0-2.274-0.2-3.077-0.513c-0.067-0.156-0.111-0.424-0.111-0.624
			c0-0.134,0.044-0.468,0.089-0.602c0.825,0.334,2.006,0.602,2.987,0.602c1.694,0,2.742-0.713,2.742-2.118
			c0-1.271-0.646-1.716-2.408-2.362c-2.452-0.893-3.255-1.918-3.255-3.434c0-2.051,1.694-3.01,3.879-3.01
			c0.735,0,1.694,0.134,2.251,0.312c0.067,0.2,0.089,0.401,0.089,0.535c0,0.178-0.045,0.49-0.089,0.646
			c-0.736-0.224-1.516-0.356-2.274-0.356c-1.583,0-2.542,0.602-2.542,1.827c0,1.07,0.602,1.583,2.43,2.274
			c1.672,0.624,3.21,1.248,3.21,3.5C130.106,181.93,128.39,182.978,126.183,182.978z"/>
		<path style="fill:#58595B;" d="M138.465,182.644c-0.58,0.2-1.449,0.334-2.095,0.334c-2.207,0-3.255-1.048-3.255-3.522v-7.178
			h-2.006c-0.044-0.111-0.067-0.379-0.067-0.513c0-0.111,0.022-0.379,0.067-0.49l2.006-0.134v-3.032
			c0.178-0.067,0.468-0.111,0.713-0.111s0.557,0.044,0.736,0.111v3.032h3.277c0.044,0.111,0.089,0.445,0.089,0.557
			c0,0.156-0.045,0.424-0.089,0.58h-3.277v7.044c0,1.762,0.513,2.497,1.895,2.497c0.758,0,1.494-0.111,2.006-0.268
			c0.045,0.111,0.089,0.379,0.089,0.535C138.555,182.287,138.532,182.442,138.465,182.644z"/>
		<path style="fill:#58595B;" d="M151.706,182.644c-0.579,0.2-1.449,0.334-2.095,0.334c-2.207,0-3.255-1.048-3.255-3.522v-7.178
			h-2.006c-0.044-0.111-0.067-0.379-0.067-0.513c0-0.111,0.022-0.379,0.067-0.49l2.006-0.134v-3.032
			c0.178-0.067,0.468-0.111,0.713-0.111s0.557,0.044,0.736,0.111v3.032h3.277c0.045,0.111,0.09,0.445,0.09,0.557
			c0,0.156-0.045,0.424-0.09,0.58h-3.277v7.044c0,1.762,0.513,2.497,1.895,2.497c0.758,0,1.494-0.111,2.006-0.268
			c0.045,0.111,0.089,0.379,0.089,0.535C151.795,182.287,151.773,182.442,151.706,182.644z"/>
		<path style="fill:#58595B;" d="M162.785,182.755c-0.2,0.066-0.445,0.111-0.669,0.111c-0.268,0-0.557-0.045-0.78-0.111v-7.045
			c0-2.452-0.624-3.566-2.697-3.566c-1.114,0-2.452,0.624-3.321,1.293v9.318c-0.245,0.066-0.513,0.111-0.759,0.111
			c-0.223,0-0.49-0.045-0.69-0.111V166.48c0.2-0.066,0.513-0.111,0.713-0.111c0.201,0,0.535,0.045,0.736,0.111v5.729
			c1.182-0.914,2.586-1.293,3.678-1.293c1.138,0,2.297,0.379,2.943,1.159c0.713,0.848,0.847,2.073,0.847,3.277V182.755z"/>
		<path style="fill:#58595B;" d="M174.042,177.338h-7.468c0.089,2.563,1.293,4.503,4.08,4.503c1.003,0,1.939-0.134,2.764-0.334
			c0.045,0.111,0.09,0.334,0.09,0.468c0,0.223-0.045,0.424-0.112,0.58c-0.869,0.267-1.962,0.423-2.875,0.423
			c-1.762,0-3.1-0.557-3.924-1.449c-0.981-1.069-1.494-2.675-1.494-4.525c0-3.232,1.628-6.086,4.883-6.086
			c2.92,0,4.079,2.408,4.079,5.351C174.064,176.602,174.064,177.003,174.042,177.338z M172.615,176.268
			c0-2.051-0.223-4.258-2.697-4.258c-2.162,0-3.21,1.984-3.344,4.258H172.615z"/>
	</g>
	<g>
		<path style="fill:#837199;" d="M76.809,193.947c0.981-0.207,2.532-0.362,4.107-0.362c2.248,0,3.694,0.388,4.779,1.267
			c0.904,0.671,1.446,1.704,1.446,3.073c0,1.68-1.111,3.152-2.945,3.824v0.051c1.653,0.414,3.591,1.783,3.591,4.366
			c0,1.498-0.594,2.635-1.473,3.487c-1.214,1.111-3.177,1.628-6.019,1.628c-1.55,0-2.738-0.104-3.487-0.207V193.947z
			 M79.057,201.077h2.041c2.377,0,3.772-1.24,3.772-2.919c0-2.041-1.55-2.842-3.823-2.842c-1.034,0-1.628,0.077-1.989,0.154V201.077
			z M79.057,209.421c0.439,0.077,1.085,0.104,1.886,0.104c2.325,0,4.469-0.853,4.469-3.384c0-2.377-2.041-3.358-4.495-3.358h-1.86
			V209.421z"/>
		<path style="fill:#837199;" d="M90.323,193.947c0.981-0.207,2.532-0.362,4.107-0.362c2.248,0,3.694,0.388,4.779,1.267
			c0.904,0.671,1.446,1.704,1.446,3.073c0,1.68-1.111,3.152-2.945,3.824v0.051c1.653,0.414,3.591,1.783,3.591,4.366
			c0,1.498-0.594,2.635-1.473,3.487c-1.214,1.111-3.177,1.628-6.019,1.628c-1.55,0-2.738-0.104-3.487-0.207V193.947z
			 M92.571,201.077h2.041c2.377,0,3.772-1.24,3.772-2.919c0-2.041-1.55-2.842-3.824-2.842c-1.033,0-1.627,0.077-1.989,0.154V201.077
			z M92.571,209.421c0.439,0.077,1.085,0.104,1.886,0.104c2.325,0,4.469-0.853,4.469-3.384c0-2.377-2.041-3.358-4.495-3.358h-1.86
			V209.421z"/>
		<path style="fill:#837199;" d="M116.005,210.558c-0.827,0.413-2.48,0.827-4.599,0.827c-4.908,0-8.602-3.101-8.602-8.81
			c0-5.451,3.694-9.145,9.093-9.145c2.17,0,3.539,0.465,4.133,0.774l-0.542,1.834c-0.853-0.413-2.067-0.723-3.514-0.723
			c-4.082,0-6.794,2.608-6.794,7.182c0,4.262,2.454,7,6.691,7c1.369,0,2.764-0.284,3.668-0.723L116.005,210.558z"/>
		<path style="fill:#837199;" d="M121.848,193.431c-0.594,2.17-1.705,4.934-2.428,6.122l-1.447,0.181
			c0.568-1.524,1.24-4.211,1.524-6.07L121.848,193.431z"/>
		<path style="fill:#837199;" d="M123.605,208.388c1.007,0.62,2.48,1.137,4.03,1.137c2.299,0,3.643-1.214,3.643-2.971
			c0-1.628-0.93-2.558-3.281-3.462c-2.842-1.008-4.598-2.479-4.598-4.934c0-2.713,2.248-4.728,5.631-4.728
			c1.783,0,3.074,0.413,3.849,0.853l-0.62,1.834c-0.568-0.311-1.731-0.827-3.307-0.827c-2.377,0-3.281,1.421-3.281,2.609
			c0,1.628,1.059,2.429,3.461,3.358c2.945,1.137,4.443,2.558,4.443,5.115c0,2.687-1.989,5.012-6.097,5.012
			c-1.679,0-3.513-0.491-4.443-1.111L123.605,208.388z"/>
		<path style="fill:#837199;" d="M156.03,202.239c0,5.993-3.643,9.171-8.086,9.171c-4.598,0-7.827-3.565-7.827-8.835
			c0-5.528,3.436-9.145,8.085-9.145C152.956,193.431,156.03,197.072,156.03,202.239z M142.52,202.523
			c0,3.72,2.015,7.053,5.554,7.053c3.565,0,5.58-3.281,5.58-7.233c0-3.462-1.808-7.078-5.554-7.078
			C144.379,195.265,142.52,198.7,142.52,202.523z"/>
		<path style="fill:#837199;" d="M158.437,211.126v-17.411h2.454l5.58,8.809c1.292,2.041,2.3,3.875,3.126,5.657l0.052-0.025
			c-0.207-2.325-0.258-4.443-0.258-7.156v-7.284h2.118v17.411h-2.273l-5.528-8.835c-1.214-1.938-2.377-3.927-3.255-5.812
			l-0.078,0.026c0.13,2.195,0.182,4.288,0.182,7.181v7.44H158.437z"/>
		<path style="fill:#837199;" d="M174.949,193.715h2.248v15.525h7.439v1.886h-9.688V193.715z"/>
		<path style="fill:#837199;" d="M187.894,211.126v-7.389l-5.502-10.022h2.558l2.454,4.805c0.672,1.317,1.188,2.377,1.73,3.591
			h0.052c0.491-1.137,1.085-2.273,1.757-3.591l2.506-4.805h2.558l-5.839,9.997v7.414H187.894z"/>
	</g>
	<g>
		<path style="fill:#837199;" d="M91.689,230.61c0,5.993-3.643,9.171-8.086,9.171c-4.598,0-7.827-3.565-7.827-8.835
			c0-5.528,3.436-9.145,8.085-9.145C88.615,221.802,91.689,225.443,91.689,230.61z M78.178,230.895c0,3.72,2.015,7.053,5.554,7.053
			c3.565,0,5.58-3.281,5.58-7.233c0-3.462-1.809-7.078-5.554-7.078C80.038,223.636,78.178,227.071,78.178,230.895z"/>
		<path style="fill:#837199;" d="M94.096,239.497v-17.411h2.454l5.58,8.809c1.292,2.041,2.299,3.875,3.125,5.657l0.052-0.025
			c-0.207-2.325-0.258-4.443-0.258-7.156v-7.284h2.118v17.411h-2.273l-5.528-8.835c-1.214-1.938-2.377-3.927-3.255-5.812
			l-0.078,0.026c0.129,2.195,0.181,4.288,0.181,7.181v7.44H94.096z"/>
		<path style="fill:#837199;" d="M115.8,231.67v1.679h-6.381v-1.679H115.8z"/>
		<path style="fill:#837199;" d="M130.708,238.929c-0.827,0.413-2.48,0.827-4.599,0.827c-4.908,0-8.602-3.101-8.602-8.81
			c0-5.451,3.694-9.145,9.093-9.145c2.17,0,3.539,0.465,4.133,0.774l-0.542,1.834c-0.853-0.413-2.067-0.723-3.514-0.723
			c-4.082,0-6.794,2.608-6.794,7.182c0,4.262,2.454,7,6.691,7c1.369,0,2.764-0.284,3.668-0.723L130.708,238.929z"/>
		<path style="fill:#837199;" d="M135.879,234.021l-1.809,5.477h-2.325l5.916-17.411h2.712l5.942,17.411h-2.402l-1.86-5.477H135.879
			z M141.588,232.264l-1.705-5.012c-0.387-1.137-0.646-2.17-0.904-3.178h-0.051c-0.258,1.034-0.542,2.093-0.878,3.152l-1.705,5.037
			H141.588z"/>
		<path style="fill:#837199;" d="M163.06,231.851c-0.129-2.429-0.284-5.348-0.259-7.518h-0.077
			c-0.595,2.041-1.317,4.211-2.196,6.613l-3.074,8.447h-1.704l-2.816-8.292c-0.827-2.454-1.524-4.702-2.015-6.769h-0.052
			c-0.052,2.17-0.181,5.089-0.336,7.698l-0.465,7.466h-2.144l1.214-17.411h2.868l2.971,8.421c0.724,2.145,1.317,4.056,1.757,5.864
			h0.077c0.439-1.757,1.06-3.668,1.834-5.864l3.101-8.421h2.867l1.085,17.411h-2.195L163.06,231.851z"/>
		<path style="fill:#837199;" d="M168.67,222.292c1.085-0.181,2.506-0.336,4.314-0.336c2.222,0,3.85,0.517,4.883,1.447
			c0.956,0.826,1.523,2.092,1.523,3.643c0,1.575-0.465,2.815-1.343,3.72c-1.188,1.266-3.126,1.911-5.321,1.911
			c-0.672,0-1.292-0.025-1.809-0.154v6.975h-2.248V222.292z M170.918,230.688c0.49,0.13,1.11,0.182,1.859,0.182
			c2.713,0,4.366-1.317,4.366-3.721c0-2.299-1.627-3.409-4.107-3.409c-0.981,0-1.73,0.077-2.118,0.181V230.688z"/>
		<path style="fill:#837199;" d="M184.174,222.086v10.307c0,3.901,1.73,5.555,4.056,5.555c2.583,0,4.236-1.705,4.236-5.555v-10.307
			h2.273v10.152c0,5.347-2.815,7.543-6.587,7.543c-3.565,0-6.252-2.041-6.252-7.44v-10.255H184.174z"/>
		<path style="fill:#837199;" d="M197.715,236.759c1.008,0.62,2.48,1.137,4.03,1.137c2.299,0,3.643-1.214,3.643-2.971
			c0-1.628-0.931-2.558-3.281-3.462c-2.842-1.008-4.599-2.479-4.599-4.934c0-2.713,2.248-4.728,5.632-4.728
			c1.782,0,3.074,0.413,3.85,0.853l-0.62,1.834c-0.568-0.311-1.731-0.827-3.307-0.827c-2.377,0-3.281,1.421-3.281,2.609
			c0,1.628,1.06,2.429,3.462,3.358c2.945,1.137,4.443,2.558,4.443,5.115c0,2.687-1.989,5.012-6.097,5.012
			c-1.679,0-3.514-0.491-4.443-1.111L197.715,236.759z"/>
	</g>
	<g>
		<path style="fill:#58595B;" d="M79.929,262.011c-1.026,0-2.341-0.156-3.567-0.602v-15.896c0.156-0.044,0.49-0.111,0.691-0.111
			c0.356,0,0.624,0.067,0.758,0.111v5.641c0.914-0.758,2.073-1.204,3.299-1.204c3.144,0,4.459,2.697,4.459,5.707
			C85.569,259.492,83.607,262.011,79.929,262.011z M80.909,251.199c-1.114,0-2.229,0.468-3.099,1.337v8.004
			c0.602,0.223,1.36,0.356,2.006,0.356c3.099,0,4.236-2.363,4.236-5.149C84.053,253.584,83.429,251.199,80.909,251.199z"/>
		<path style="fill:#58595B;" d="M93.17,251.243c-1.293,0.179-2.698,0.646-3.746,1.449v9.096c-0.223,0.066-0.49,0.111-0.735,0.111
			c-0.246,0-0.491-0.045-0.713-0.111v-11.614c0.134-0.045,0.334-0.09,0.557-0.09c0.178,0,0.423,0.045,0.602,0.09l0.111,1.427h0.022
			c0.958-0.825,2.63-1.517,3.901-1.65c0.044,0.134,0.089,0.379,0.089,0.58C93.259,250.753,93.214,251.043,93.17,251.243z"/>
		<path style="fill:#58595B;" d="M99.01,262.011c-2.92,0-4.793-2.006-4.793-6.019s1.895-6.042,4.815-6.042s4.771,1.984,4.771,5.997
			S101.931,262.011,99.01,262.011z M99.032,251.043c-2.14,0-3.299,1.649-3.299,4.927s1.137,4.949,3.277,4.949
			s3.277-1.672,3.277-4.949S101.172,251.043,99.032,251.043z"/>
		<path style="fill:#58595B;" d="M114.124,258.935c0,0.803,0,1.806,0.045,2.854c-0.156,0.066-0.401,0.111-0.602,0.111
			c-0.178,0-0.424-0.045-0.602-0.111c-0.067-0.356-0.111-0.825-0.134-1.248h-0.022c-0.758,0.936-2.096,1.471-3.411,1.471
			c-2.073,0-3.812-1.159-3.812-3.544c0-1.36,0.557-2.363,1.427-2.987c0.981-0.691,2.274-0.914,3.656-0.914
			c0.78,0,1.427,0.044,2.006,0.134v-0.646c0-2.229-0.914-2.965-2.787-2.965c-1.048,0-2.341,0.223-3.144,0.423
			c-0.044-0.111-0.089-0.356-0.089-0.579c0-0.156,0.045-0.379,0.112-0.513c0.958-0.29,2.229-0.469,3.299-0.469
			c2.653,0,4.057,1.204,4.057,3.924V258.935z M112.675,255.791c-0.646-0.089-1.315-0.134-1.895-0.134
			c-1.092,0-2.073,0.201-2.742,0.714c-0.602,0.445-0.936,1.159-0.936,2.073c0,1.627,1.047,2.407,2.497,2.407
			c1.204,0,2.475-0.579,3.077-1.493V255.791z"/>
		<path style="fill:#58595B;" d="M125.203,261.899c-0.201,0-0.446-0.066-0.58-0.111l-0.134-1.338h-0.022
			c-0.959,1.004-2.096,1.561-3.367,1.561c-3.076,0-4.547-2.563-4.547-5.685c0-3.099,1.315-6.376,4.86-6.376
			c1.114,0,2.14,0.379,2.965,0.959v-5.396c0.201-0.066,0.468-0.111,0.713-0.111c0.268,0,0.535,0.067,0.736,0.111v16.274
			C125.671,261.854,125.448,261.899,125.203,261.899z M124.378,252.135c-0.803-0.668-1.828-1.003-2.876-1.003
			c-2.586,0-3.455,2.542-3.455,5.128c0,1.983,0.624,4.569,3.121,4.569c1.204,0,2.43-0.602,3.21-1.538V252.135z"/>
		<path style="fill:#58595B;" d="M136.17,251.578c-0.713-0.29-1.65-0.469-2.475-0.469c-2.898,0-3.968,2.252-3.968,4.972
			c0,2.675,1.025,4.748,3.946,4.748c0.78,0,1.717-0.134,2.408-0.334c0.045,0.134,0.089,0.29,0.089,0.468
			c0,0.268-0.044,0.469-0.111,0.625c-0.646,0.267-1.694,0.423-2.52,0.423c-3.634,0-5.328-2.385-5.328-5.885
			c0-3.634,1.85-6.176,5.395-6.176c0.847,0,1.851,0.201,2.542,0.513c0.067,0.179,0.089,0.357,0.089,0.558
			C136.237,251.243,136.214,251.422,136.17,251.578z"/>
		<path style="fill:#58595B;" d="M146.491,258.935c0,0.803,0,1.806,0.045,2.854c-0.156,0.066-0.401,0.111-0.602,0.111
			c-0.178,0-0.424-0.045-0.602-0.111c-0.067-0.356-0.111-0.825-0.134-1.248h-0.022c-0.758,0.936-2.096,1.471-3.411,1.471
			c-2.073,0-3.812-1.159-3.812-3.544c0-1.36,0.557-2.363,1.427-2.987c0.981-0.691,2.274-0.914,3.656-0.914
			c0.78,0,1.427,0.044,2.006,0.134v-0.646c0-2.229-0.914-2.965-2.787-2.965c-1.048,0-2.341,0.223-3.144,0.423
			c-0.044-0.111-0.089-0.356-0.089-0.579c0-0.156,0.045-0.379,0.112-0.513c0.958-0.29,2.229-0.469,3.299-0.469
			c2.653,0,4.057,1.204,4.057,3.924V258.935z M145.042,255.791c-0.646-0.089-1.315-0.134-1.895-0.134
			c-1.092,0-2.073,0.201-2.742,0.714c-0.602,0.445-0.936,1.159-0.936,2.073c0,1.627,1.047,2.407,2.497,2.407
			c1.204,0,2.475-0.579,3.077-1.493V255.791z"/>
		<path style="fill:#58595B;" d="M152.152,262.011c-1.115,0-2.274-0.2-3.077-0.513c-0.067-0.156-0.111-0.424-0.111-0.624
			c0-0.134,0.044-0.468,0.089-0.602c0.825,0.334,2.007,0.602,2.987,0.602c1.694,0,2.742-0.713,2.742-2.118
			c0-1.271-0.646-1.716-2.408-2.362c-2.452-0.893-3.255-1.918-3.255-3.434c0-2.051,1.694-3.01,3.88-3.01
			c0.735,0,1.693,0.134,2.251,0.312c0.066,0.2,0.089,0.401,0.089,0.535c0,0.178-0.044,0.49-0.089,0.646
			c-0.735-0.224-1.516-0.356-2.274-0.356c-1.582,0-2.541,0.602-2.541,1.827c0,1.07,0.602,1.583,2.43,2.274
			c1.672,0.624,3.211,1.248,3.211,3.5C156.076,260.963,154.359,262.011,152.152,262.011z"/>
		<path style="fill:#58595B;" d="M164.436,261.677c-0.58,0.2-1.449,0.334-2.096,0.334c-2.207,0-3.255-1.048-3.255-3.522v-7.178
			h-2.007c-0.044-0.111-0.066-0.379-0.066-0.513c0-0.111,0.022-0.379,0.066-0.49l2.007-0.134v-3.032
			c0.179-0.067,0.468-0.111,0.713-0.111c0.246,0,0.558,0.044,0.736,0.111v3.032h3.277c0.044,0.111,0.089,0.445,0.089,0.557
			c0,0.156-0.045,0.424-0.089,0.58h-3.277v7.044c0,1.762,0.513,2.497,1.895,2.497c0.758,0,1.494-0.111,2.007-0.268
			c0.044,0.111,0.089,0.379,0.089,0.535C164.524,261.32,164.502,261.476,164.436,261.677z"/>
		<path style="fill:#58595B;" d="M173.596,262.011c-1.114,0-2.273-0.2-3.076-0.513c-0.066-0.156-0.111-0.424-0.111-0.624
			c0-0.134,0.045-0.468,0.089-0.602c0.825,0.334,2.007,0.602,2.987,0.602c1.694,0,2.742-0.713,2.742-2.118
			c0-1.271-0.646-1.716-2.407-2.362c-2.452-0.893-3.255-1.918-3.255-3.434c0-2.051,1.694-3.01,3.879-3.01
			c0.735,0,1.694,0.134,2.251,0.312c0.067,0.2,0.09,0.401,0.09,0.535c0,0.178-0.045,0.49-0.09,0.646
			c-0.735-0.224-1.516-0.356-2.273-0.356c-1.583,0-2.541,0.602-2.541,1.827c0,1.07,0.602,1.583,2.43,2.274
			c1.672,0.624,3.21,1.248,3.21,3.5C177.52,260.963,175.803,262.011,173.596,262.011z"/>
		<path style="fill:#58595B;" d="M185.88,261.677c-0.58,0.2-1.449,0.334-2.096,0.334c-2.207,0-3.255-1.048-3.255-3.522v-7.178
			h-2.007c-0.044-0.111-0.066-0.379-0.066-0.513c0-0.111,0.022-0.379,0.066-0.49l2.007-0.134v-3.032
			c0.179-0.067,0.468-0.111,0.713-0.111c0.246,0,0.558,0.044,0.736,0.111v3.032h3.277c0.044,0.111,0.089,0.445,0.089,0.557
			c0,0.156-0.045,0.424-0.089,0.58h-3.277v7.044c0,1.762,0.513,2.497,1.895,2.497c0.758,0,1.494-0.111,2.007-0.268
			c0.044,0.111,0.089,0.379,0.089,0.535C185.969,261.32,185.946,261.476,185.88,261.677z"/>
		<path style="fill:#58595B;" d="M196.267,257.374c0,3.389-1.404,4.637-4.347,4.637c-3.01,0-4.28-1.248-4.28-4.525v-7.312
			c0.2-0.067,0.468-0.112,0.713-0.112c0.312,0,0.558,0.067,0.736,0.112v7.134c0,2.162,0.334,3.589,2.854,3.589
			c2.362,0,2.875-1.382,2.875-3.634v-7.089c0.179-0.067,0.491-0.112,0.736-0.112s0.513,0.045,0.713,0.112V257.374z"/>
		<path style="fill:#58595B;" d="M207.235,261.899c-0.201,0-0.446-0.066-0.58-0.111l-0.134-1.338h-0.022
			c-0.958,1.004-2.096,1.561-3.366,1.561c-3.076,0-4.548-2.563-4.548-5.685c0-3.099,1.315-6.376,4.86-6.376
			c1.114,0,2.14,0.379,2.965,0.959v-5.396c0.2-0.066,0.468-0.111,0.713-0.111c0.268,0,0.535,0.067,0.736,0.111v16.274
			C207.703,261.854,207.48,261.899,207.235,261.899z M206.41,252.135c-0.803-0.668-1.828-1.003-2.876-1.003
			c-2.586,0-3.455,2.542-3.455,5.128c0,1.983,0.624,4.569,3.121,4.569c1.203,0,2.43-0.602,3.21-1.538V252.135z"/>
		<path style="fill:#58595B;" d="M212.339,247.899c-0.513,0-0.937-0.445-0.937-0.98s0.424-0.959,0.937-0.959
			s0.959,0.424,0.959,0.959S212.852,247.899,212.339,247.899z M213.074,261.788c-0.2,0.066-0.49,0.111-0.735,0.111
			s-0.513-0.045-0.713-0.111v-11.614c0.178-0.045,0.468-0.112,0.69-0.112c0.245,0,0.58,0.045,0.758,0.112V261.788z"/>
		<path style="fill:#58595B;" d="M220.341,262.011c-2.92,0-4.793-2.006-4.793-6.019s1.896-6.042,4.815-6.042
			c2.921,0,4.771,1.984,4.771,5.997S223.262,262.011,220.341,262.011z M220.363,251.043c-2.14,0-3.299,1.649-3.299,4.927
			s1.137,4.949,3.276,4.949c2.141,0,3.277-1.672,3.277-4.949S222.504,251.043,220.363,251.043z"/>
	</g>
	<g>
		<path style="fill:#58595B;" d="M77.164,270.191c-0.513,0-0.936-0.445-0.936-0.98s0.423-0.959,0.936-0.959s0.958,0.424,0.958,0.959
			S77.677,270.191,77.164,270.191z M77.9,284.08c-0.201,0.066-0.491,0.111-0.736,0.111s-0.513-0.045-0.713-0.111v-11.614
			c0.178-0.045,0.468-0.112,0.691-0.112c0.245,0,0.58,0.045,0.758,0.112V284.08z"/>
		<path style="fill:#58595B;" d="M89.938,284.103c-0.178,0.044-0.446,0.089-0.713,0.089c-0.223,0-0.513-0.045-0.736-0.111v-7.067
			c0-1.069-0.133-1.895-0.446-2.474c-0.379-0.714-1.092-1.07-2.251-1.07c-1.115,0-2.452,0.624-3.322,1.293v9.318
			c-0.245,0.066-0.49,0.111-0.758,0.111c-0.223,0-0.49-0.045-0.691-0.111v-11.614c0.156-0.067,0.423-0.09,0.58-0.09
			c0.223,0,0.49,0.022,0.624,0.09l0.111,1.159h0.022c1.226-1.004,2.63-1.383,3.768-1.383c1.137,0,2.318,0.379,2.965,1.159
			c0.713,0.848,0.847,2.073,0.847,3.277V284.103z"/>
		<path style="fill:#58595B;" d="M103.98,283.969c-0.58,0.2-1.449,0.334-2.095,0.334c-2.207,0-3.255-1.048-3.255-3.522v-7.178
			h-2.006c-0.044-0.111-0.067-0.379-0.067-0.513c0-0.111,0.022-0.379,0.067-0.49l2.006-0.134v-3.032
			c0.178-0.067,0.468-0.111,0.713-0.111s0.557,0.044,0.736,0.111v3.032h3.277c0.044,0.111,0.089,0.445,0.089,0.557
			c0,0.156-0.045,0.424-0.089,0.58h-3.277v7.044c0,1.762,0.513,2.497,1.895,2.497c0.758,0,1.494-0.111,2.006-0.268
			c0.045,0.111,0.089,0.379,0.089,0.535C104.07,283.612,104.047,283.768,103.98,283.969z"/>
		<path style="fill:#58595B;" d="M115.06,284.08c-0.201,0.066-0.446,0.111-0.669,0.111c-0.267,0-0.557-0.045-0.78-0.111v-7.045
			c0-2.452-0.624-3.566-2.697-3.566c-1.115,0-2.452,0.624-3.322,1.293v9.318c-0.245,0.066-0.513,0.111-0.758,0.111
			c-0.223,0-0.49-0.045-0.691-0.111v-16.274c0.201-0.066,0.513-0.111,0.713-0.111s0.535,0.045,0.735,0.111v5.729
			c1.182-0.914,2.586-1.293,3.679-1.293c1.137,0,2.296,0.379,2.942,1.159c0.713,0.848,0.847,2.073,0.847,3.277V284.08z"/>
		<path style="fill:#58595B;" d="M126.317,278.663h-7.468c0.089,2.563,1.293,4.503,4.08,4.503c1.003,0,1.939-0.134,2.764-0.334
			c0.045,0.111,0.089,0.334,0.089,0.468c0,0.223-0.044,0.424-0.111,0.58c-0.87,0.267-1.962,0.423-2.876,0.423
			c-1.761,0-3.099-0.557-3.923-1.449c-0.981-1.069-1.494-2.675-1.494-4.525c0-3.232,1.627-6.086,4.882-6.086
			c2.92,0,4.08,2.408,4.08,5.351C126.339,277.927,126.339,278.328,126.317,278.663z M124.89,277.593
			c0-2.051-0.223-4.258-2.698-4.258c-2.162,0-3.21,1.984-3.344,4.258H124.89z"/>
		<path style="fill:#58595B;" d="M147.182,274.762l-2.987,9.318c-0.178,0.066-0.513,0.111-0.691,0.111
			c-0.201,0-0.535-0.045-0.691-0.111l-2.675-9.007h-0.044l-2.809,9.007c-0.201,0.066-0.513,0.111-0.691,0.111
			c-0.179,0-0.468-0.045-0.669-0.111l-2.764-9.185c-0.246-0.758-0.357-1.628-0.379-2.452c0.179-0.045,0.535-0.09,0.758-0.09
			c0.245,0,0.468,0.045,0.668,0.112c0.022,0.802,0.156,1.649,0.357,2.385l2.029,7.245h0.022l2.898-9.652
			c0.156-0.045,0.468-0.067,0.624-0.067s0.49,0.022,0.624,0.067l2.742,9.652h0.022l2.229-7.223c0.246-0.825,0.424-1.605,0.468-2.407
			c0.156-0.067,0.535-0.112,0.736-0.112s0.513,0.045,0.646,0.112C147.605,273.224,147.427,273.981,147.182,274.762z"/>
		<path style="fill:#58595B;" d="M153.779,284.303c-2.92,0-4.793-2.006-4.793-6.019s1.895-6.042,4.815-6.042
			c2.92,0,4.771,1.984,4.771,5.997S156.699,284.303,153.779,284.303z M153.802,273.335c-2.141,0-3.3,1.649-3.3,4.927
			s1.137,4.949,3.277,4.949c2.14,0,3.277-1.672,3.277-4.949S155.941,273.335,153.802,273.335z"/>
		<path style="fill:#58595B;" d="M166.15,273.535c-1.293,0.179-2.697,0.646-3.745,1.449v9.096c-0.223,0.066-0.49,0.111-0.735,0.111
			s-0.49-0.045-0.714-0.111v-11.614c0.134-0.045,0.335-0.09,0.558-0.09c0.179,0,0.424,0.045,0.602,0.09l0.112,1.427h0.021
			c0.959-0.825,2.631-1.517,3.901-1.65c0.045,0.134,0.09,0.379,0.09,0.58C166.24,273.045,166.195,273.335,166.15,273.535z"/>
		<path style="fill:#58595B;" d="M169.896,284.08c-0.245,0.066-0.49,0.111-0.758,0.111c-0.224,0-0.491-0.045-0.691-0.111v-16.274
			c0.2-0.044,0.446-0.111,0.735-0.111c0.245,0,0.513,0.045,0.714,0.111V284.08z"/>
		<path style="fill:#58595B;" d="M180.976,284.191c-0.201,0-0.446-0.066-0.58-0.111l-0.134-1.338h-0.022
			c-0.958,1.004-2.096,1.561-3.366,1.561c-3.076,0-4.548-2.563-4.548-5.685c0-3.099,1.315-6.376,4.86-6.376
			c1.114,0,2.14,0.379,2.965,0.959v-5.396c0.2-0.066,0.468-0.111,0.713-0.111c0.268,0,0.535,0.067,0.736,0.111v16.274
			C181.443,284.146,181.221,284.191,180.976,284.191z M180.15,274.427c-0.803-0.668-1.828-1.003-2.876-1.003
			c-2.586,0-3.455,2.542-3.455,5.128c0,1.983,0.624,4.569,3.121,4.569c1.203,0,2.43-0.602,3.21-1.538V274.427z"/>
	</g>
</g>
</svg>
