<?xml version="1.0" encoding="utf-8"?>
<!-- Generator: Adobe Illustrator 16.0.0, SVG Export Plug-In . SVG Version: 6.00 Build 0)  -->
<!DOCTYPE svg PUBLIC "-//W3C//DTD SVG 1.0//EN" "http://www.w3.org/TR/2001/REC-SVG-20010904/DTD/svg10.dtd">
<svg version="1.0" xmlns="http://www.w3.org/2000/svg" xmlns:xlink="http://www.w3.org/1999/xlink" x="0px" y="0px" width="300px"
	 height="300px" viewBox="0 0 300 300" style="enable-background:new 0 0 300 300;" xml:space="preserve">
<g id="Icon">
	<path style="fill:#58595B;" d="M159.41,211.391c8.748-14.888,17.515-29.809,26.365-44.869c-1.815,0-3.378,0.03-4.939-0.016
		c-0.68-0.021-1.06,0.199-1.418,0.787c-8.479,13.919-16.981,27.826-25.476,41.737c-0.161,0.262-0.28,0.554-0.433,0.861
		C155.52,210.401,157.418,210.886,159.41,211.391 M141.536,209.899c-0.043-0.183-0.043-0.267-0.08-0.321
		c-8.646-14.17-17.293-28.337-25.952-42.495c-0.139-0.228-0.413-0.527-0.632-0.531c-1.797-0.041-3.591-0.023-5.574-0.023
		c8.878,15.104,17.638,30.008,26.365,44.86C137.68,210.877,139.579,210.394,141.536,209.899 M95.96,166.521
		c10.14,16.773,20.146,33.327,30.153,49.877c1.559-0.979,3.035-1.905,4.579-2.874c-0.172-0.316-0.337-0.642-0.524-0.956
		c-1.297-2.215-2.599-4.431-3.901-6.646c-7.548-12.831-15.092-25.661-22.656-38.482c-0.22-0.368-0.635-0.862-0.977-0.878
		C100.49,166.484,98.336,166.521,95.96,166.521 M199.113,166.521c-2.165,0-4.092,0.041-6.02-0.022
		c-0.808-0.025-1.254,0.225-1.671,0.933c-8.808,15.024-17.641,30.037-26.472,45.05c-0.201,0.345-0.388,0.701-0.576,1.043
		c1.559,0.974,3.036,1.903,4.585,2.874C178.968,199.845,188.975,183.292,199.113,166.521 M147.52,276.55
		c17.046,0.011,30.854-13.772,30.878-30.82c0.025-17.051-13.74-30.863-30.793-30.901c-17.103-0.034-30.937,13.769-30.93,30.872
		C116.681,262.751,130.467,276.542,147.52,276.55 M147.543,209.094c0.361-0.589,0.631-1.02,0.899-1.457
		c9.03-14.773,18.074-29.539,27.069-44.334c0.938-1.544,2.07-2.201,3.899-2.185c7.937,0.079,15.878,0.048,23.815,0.022
		c1.267-0.008,2.26,0.322,2.904,1.465c0.647,1.155,0.356,2.174-0.292,3.245c-10.694,17.636-21.358,35.295-32.069,52.927
		c-0.58,0.952-0.447,1.442,0.257,2.233c9.199,10.355,12.152,22.316,7.988,35.508c-4.205,13.314-13.561,21.64-27.204,24.621
		c-19.068,4.172-38.293-8.199-42.535-27.264c-2.785-12.516,0.328-23.602,8.974-33.091c0.586-0.643,0.622-1.049,0.175-1.787
		c-10.736-17.699-21.445-35.419-32.164-53.129c-0.494-0.81-0.917-1.604-0.598-2.616c0.414-1.319,1.302-2.09,2.685-2.094
		c8.423-0.012,16.845-0.004,25.27-0.004c1.261,0,2.039,0.701,2.663,1.724c4.783,7.854,9.586,15.702,14.383,23.55
		c4.369,7.146,8.74,14.297,13.111,21.443C146.987,208.221,147.206,208.562,147.543,209.094"/>
	<g>
		<path style="fill:#58595B;" d="M152.229,261.645c-0.694,0.139-1.944,0.231-3.286,0.231c-1.296,0-2.453-0.093-3.286-0.231v-23.927
			l-6.572,4.351c-1.573-1.435-2.684-3.379-3.101-5.045l10.876-6.664c0.648-0.139,1.99-0.231,2.684-0.231
			c0.787,0,2.222,0.139,2.685,0.231V261.645z"/>
	</g>
</g>
<g id="Text" style="display:none;">
	<text transform="matrix(1 0 0 1 66.8105 25.0352)" style="display:inline;"><tspan x="0" y="0" style="fill:#58595B; font-family:'FSMatthew-Light'; font-size:15.9429;">W</tspan><tspan x="13.36" y="0" style="fill:#58595B; font-family:'FSMatthew-Light'; font-size:15.9429;">e </tspan><tspan x="24.552" y="0" style="fill:#58595B; font-family:'FSMatthew-Light'; font-size:15.9429;">w</tspan><tspan x="35.967" y="0" style="fill:#58595B; font-family:'FSMatthew-Light'; font-size:15.9429;">e</tspan><tspan x="43.651" y="0" style="fill:#58595B; font-family:'FSMatthew-Light'; font-size:15.9429;">r</tspan><tspan x="48.578" y="0" style="fill:#58595B; font-family:'FSMatthew-Light'; font-size:15.9429;">e awa</tspan><tspan x="87.016" y="0" style="fill:#58595B; font-family:'FSMatthew-Light'; font-size:15.9429;">r</tspan><tspan x="91.926" y="0" style="fill:#58595B; font-family:'FSMatthew-Light'; font-size:15.9429;">ded 2016 </tspan></text>
	<text transform="matrix(1 0 0 1 66.8105 49.6738)" style="display:inline;"><tspan x="0" y="0" style="fill:#837199; font-family:'FSMatthew-Bold'; font-size:24.6391; letter-spacing:-1;">C</tspan><tspan x="13.009" y="0" style="fill:#837199; font-family:'FSMatthew-Bold'; font-size:24.6391;">ONF</tspan><tspan x="56.422" y="0" style="fill:#837199; font-family:'FSMatthew-Bold'; font-size:24.6391;">UC</tspan><tspan x="84.954" y="0" style="fill:#837199; font-family:'FSMatthew-Bold'; font-size:24.6391;">IU</tspan><tspan x="106.537" y="0" style="fill:#837199; font-family:'FSMatthew-Bold'; font-size:24.6391;">S </tspan></text>
	<text transform="matrix(1 0 0 1 66.8105 74.3125)" style="display:inline;"><tspan x="0" y="0" style="fill:#837199; font-family:'FSMatthew-Bold'; font-size:24.6391;">IN</tspan><tspan x="22.446" y="0" style="fill:#837199; font-family:'FSMatthew-Bold'; font-size:24.6391; letter-spacing:-1;">S</tspan><tspan x="34.149" y="0" style="fill:#837199; font-family:'FSMatthew-Bold'; font-size:24.6391;">T</tspan><tspan x="46.642" y="0" style="fill:#837199; font-family:'FSMatthew-Bold'; font-size:24.6391;">IT</tspan><tspan x="65.515" y="0" style="fill:#837199; font-family:'FSMatthew-Bold'; font-size:24.6391;">U</tspan><tspan x="80.717" y="0" style="fill:#837199; font-family:'FSMatthew-Bold'; font-size:24.6391;">T</tspan><tspan x="93.234" y="0" style="fill:#837199; font-family:'FSMatthew-Bold'; font-size:24.6391;">E </tspan></text>
	<text transform="matrix(1 0 0 1 66.8105 98.9521)" style="display:inline;"><tspan x="0" y="0" style="fill:#837199; font-family:'FSMatthew-Bold'; font-size:24.6391;">OF</tspan><tspan x="27.324" y="0" style="fill:#837199; font-family:'FSMatthew-Bold'; font-size:24.6391; letter-spacing:-2;"> </tspan><tspan x="30.675" y="0" style="fill:#837199; font-family:'FSMatthew-Bold'; font-size:24.6391;">THE Y</tspan><tspan x="88.822" y="0" style="fill:#837199; font-family:'FSMatthew-Bold'; font-size:24.6391;">E</tspan><tspan x="101.634" y="0" style="fill:#837199; font-family:'FSMatthew-Bold'; font-size:24.6391;">A</tspan><tspan x="116.836" y="0" style="fill:#837199; font-family:'FSMatthew-Bold'; font-size:24.6391;">R</tspan></text>
	
		<text transform="matrix(1 0 0 1 66.8135 115.0947)" style="display:inline;fill:#58595B; font-family:'FSMatthew-Light'; font-size:15.9429;">and our Vice Chancellor </text>
	<text transform="matrix(1 0 0 1 66.8135 131.0381)" style="display:inline;"><tspan x="0" y="0" style="fill:#58595B; font-family:'FSMatthew-Light'; font-size:15.9429;">r</tspan><tspan x="4.91" y="0" style="fill:#58595B; font-family:'FSMatthew-Light'; font-size:15.9429;">ecei</tspan><tspan x="30.546" y="0" style="fill:#58595B; font-family:'FSMatthew-Light'; font-size:15.9429;">v</tspan><tspan x="37.976" y="0" style="fill:#58595B; font-family:'FSMatthew-Light'; font-size:15.9429;">ed a </tspan><tspan x="68.888" y="0" style="fill:#58595B; font-family:'FSMatthew-Light'; font-size:15.9429;">C</tspan><tspan x="77.465" y="0" style="fill:#58595B; font-family:'FSMatthew-Light'; font-size:15.9429;">on</tspan><tspan x="94.062" y="0" style="fill:#58595B; font-family:'FSMatthew-Light'; font-size:15.9429;">f</tspan><tspan x="99.705" y="0" style="fill:#58595B; font-family:'FSMatthew-Light'; font-size:15.9429;">ucius </tspan></text>
	<text transform="matrix(1 0 0 1 66.8135 146.9805)" style="display:inline;"><tspan x="0" y="0" style="fill:#58595B; font-family:'FSMatthew-Light'; font-size:15.9429;">E</tspan><tspan x="8.051" y="0" style="fill:#58595B; font-family:'FSMatthew-Light'; font-size:15.9429;">x</tspan><tspan x="15.703" y="0" style="fill:#58595B; font-family:'FSMatthew-Light'; font-size:15.9429;">cellence </tspan><tspan x="71.168" y="0" style="fill:#58595B; font-family:'FSMatthew-Light'; font-size:15.9429;">A</tspan><tspan x="80.127" y="0" style="fill:#58595B; font-family:'FSMatthew-Light'; font-size:15.9429;">wa</tspan><tspan x="99.498" y="0" style="fill:#58595B; font-family:'FSMatthew-Light'; font-size:15.9429;">r</tspan><tspan x="104.425" y="0" style="fill:#58595B; font-family:'FSMatthew-Light'; font-size:15.9429;">d in 2017</tspan></text>
</g>
<g id="Layer_3">
	<g>
		<path style="fill:#58595B;" d="M73.922,17.302c-0.128-0.51-0.223-0.973-0.287-1.435c-0.08,0.446-0.175,0.877-0.319,1.419
			l-1.978,7.75c-0.159,0.048-0.415,0.08-0.638,0.08s-0.526-0.016-0.686-0.08l-2.328-8.084c-0.271-0.893-0.383-1.802-0.398-2.695
			c0.159-0.048,0.398-0.08,0.558-0.08c0.175,0,0.334,0.032,0.526,0.08c0.016,0.845,0.112,1.659,0.335,2.472l1.643,5.836
			c0.08,0.303,0.303,1.116,0.367,1.451c0.032-0.319,0.191-1.021,0.303-1.467l2.089-8.292c0.144-0.048,0.351-0.08,0.51-0.08
			c0.175,0,0.399,0.048,0.51,0.08l2.089,8.276c0.112,0.415,0.255,1.037,0.367,1.499c0.112-0.462,0.271-1.101,0.399-1.563l1.626-5.74
			c0.223-0.813,0.351-1.626,0.367-2.472c0.159-0.048,0.334-0.08,0.526-0.08c0.16,0,0.399,0.032,0.526,0.08
			c-0.016,0.829-0.127,1.707-0.398,2.631l-2.344,8.148c-0.175,0.048-0.542,0.08-0.717,0.08c-0.16,0-0.447-0.032-0.638-0.08
			L73.922,17.302z"/>
		<path style="fill:#58595B;" d="M87.187,21.161h-5.342c0.064,1.833,0.925,3.221,2.918,3.221c0.718,0,1.387-0.096,1.977-0.239
			c0.032,0.08,0.064,0.239,0.064,0.335c0,0.16-0.032,0.303-0.08,0.415c-0.622,0.191-1.403,0.303-2.057,0.303
			c-1.26,0-2.216-0.399-2.806-1.037c-0.702-0.766-1.068-1.914-1.068-3.237c0-2.312,1.164-4.353,3.492-4.353
			c2.089,0,2.918,1.722,2.918,3.827C87.202,20.634,87.202,20.921,87.187,21.161z M86.166,20.395c0-1.467-0.16-3.045-1.93-3.045
			c-1.546,0-2.296,1.419-2.392,3.045H86.166z"/>
		<path style="fill:#58595B;" d="M102.109,18.37l-2.137,6.665c-0.127,0.048-0.367,0.08-0.494,0.08c-0.144,0-0.383-0.032-0.494-0.08
			l-1.914-6.442h-0.032l-2.009,6.442c-0.144,0.048-0.367,0.08-0.494,0.08c-0.128,0-0.335-0.032-0.479-0.08l-1.977-6.569
			c-0.176-0.542-0.255-1.164-0.271-1.754c0.128-0.032,0.383-0.063,0.542-0.063c0.175,0,0.334,0.032,0.478,0.08
			c0.016,0.574,0.112,1.18,0.255,1.706l1.451,5.183h0.016l2.073-6.905c0.111-0.032,0.334-0.048,0.446-0.048s0.351,0.016,0.446,0.048
			l1.961,6.905h0.016l1.594-5.167c0.176-0.59,0.303-1.148,0.335-1.722c0.112-0.048,0.383-0.08,0.526-0.08s0.367,0.032,0.462,0.08
			C102.413,17.27,102.285,17.812,102.109,18.37z"/>
		<path style="fill:#58595B;" d="M109.793,21.161h-5.342c0.064,1.833,0.925,3.221,2.918,3.221c0.718,0,1.387-0.096,1.977-0.239
			c0.032,0.08,0.064,0.239,0.064,0.335c0,0.16-0.032,0.303-0.08,0.415c-0.622,0.191-1.403,0.303-2.057,0.303
			c-1.26,0-2.216-0.399-2.806-1.037c-0.702-0.766-1.068-1.914-1.068-3.237c0-2.312,1.164-4.353,3.492-4.353
			c2.089,0,2.918,1.722,2.918,3.827C109.809,20.634,109.809,20.921,109.793,21.161z M108.773,20.395c0-1.467-0.16-3.045-1.93-3.045
			c-1.546,0-2.296,1.419-2.392,3.045H108.773z"/>
		<path style="fill:#58595B;" d="M115.261,17.493c-0.925,0.127-1.93,0.462-2.679,1.036v6.506c-0.159,0.048-0.351,0.08-0.526,0.08
			c-0.176,0-0.351-0.032-0.51-0.08v-8.308c0.096-0.032,0.239-0.064,0.398-0.064c0.127,0,0.303,0.032,0.431,0.064l0.08,1.021h0.016
			c0.686-0.59,1.881-1.084,2.791-1.18c0.032,0.095,0.063,0.271,0.063,0.415C115.325,17.142,115.293,17.35,115.261,17.493z"/>
		<path style="fill:#58595B;" d="M122.404,21.161h-5.342c0.064,1.833,0.925,3.221,2.918,3.221c0.718,0,1.387-0.096,1.977-0.239
			c0.032,0.08,0.064,0.239,0.064,0.335c0,0.16-0.032,0.303-0.08,0.415c-0.622,0.191-1.403,0.303-2.057,0.303
			c-1.26,0-2.216-0.399-2.806-1.037c-0.702-0.766-1.068-1.914-1.068-3.237c0-2.312,1.164-4.353,3.492-4.353
			c2.089,0,2.918,1.722,2.918,3.827C122.42,20.634,122.42,20.921,122.404,21.161z M121.384,20.395c0-1.467-0.16-3.045-1.93-3.045
			c-1.546,0-2.296,1.419-2.392,3.045H121.384z"/>
		<path style="fill:#58595B;" d="M133.34,22.994c0,0.574,0,1.292,0.032,2.041c-0.112,0.048-0.287,0.08-0.431,0.08
			c-0.127,0-0.303-0.032-0.431-0.08c-0.048-0.255-0.08-0.59-0.096-0.893H132.4c-0.542,0.67-1.499,1.053-2.44,1.053
			c-1.483,0-2.727-0.83-2.727-2.536c0-0.973,0.398-1.69,1.021-2.137c0.702-0.494,1.626-0.654,2.615-0.654
			c0.558,0,1.021,0.032,1.435,0.096v-0.462c0-1.594-0.654-2.121-1.993-2.121c-0.75,0-1.674,0.16-2.249,0.303
			c-0.032-0.08-0.064-0.255-0.064-0.415c0-0.111,0.032-0.271,0.08-0.367c0.686-0.207,1.594-0.334,2.36-0.334
			c1.897,0,2.902,0.861,2.902,2.806V22.994z M132.304,20.746c-0.462-0.063-0.941-0.095-1.355-0.095c-0.781,0-1.483,0.143-1.961,0.51
			c-0.431,0.319-0.669,0.829-0.669,1.483c0,1.164,0.749,1.722,1.786,1.722c0.861,0,1.77-0.415,2.201-1.068V20.746z"/>
		<path style="fill:#58595B;" d="M145.202,18.37l-2.137,6.665c-0.127,0.048-0.367,0.08-0.494,0.08c-0.144,0-0.383-0.032-0.494-0.08
			l-1.914-6.442h-0.032l-2.009,6.442c-0.144,0.048-0.367,0.08-0.494,0.08c-0.128,0-0.335-0.032-0.479-0.08l-1.977-6.569
			c-0.176-0.542-0.255-1.164-0.271-1.754c0.128-0.032,0.383-0.063,0.542-0.063c0.175,0,0.334,0.032,0.478,0.08
			c0.016,0.574,0.112,1.18,0.255,1.706l1.451,5.183h0.016l2.073-6.905c0.111-0.032,0.334-0.048,0.446-0.048s0.351,0.016,0.446,0.048
			l1.961,6.905h0.016l1.594-5.167c0.176-0.59,0.303-1.148,0.335-1.722c0.112-0.048,0.383-0.08,0.526-0.08s0.367,0.032,0.462,0.08
			C145.505,17.27,145.378,17.812,145.202,18.37z"/>
		<path style="fill:#58595B;" d="M152.711,22.994c0,0.574,0,1.292,0.031,2.041c-0.111,0.048-0.287,0.08-0.43,0.08
			c-0.128,0-0.304-0.032-0.432-0.08c-0.047-0.255-0.079-0.59-0.096-0.893h-0.016c-0.542,0.67-1.499,1.053-2.439,1.053
			c-1.483,0-2.727-0.83-2.727-2.536c0-0.973,0.398-1.69,1.021-2.137c0.702-0.494,1.626-0.654,2.615-0.654
			c0.558,0,1.021,0.032,1.435,0.096v-0.462c0-1.594-0.653-2.121-1.993-2.121c-0.75,0-1.674,0.16-2.249,0.303
			c-0.032-0.08-0.064-0.255-0.064-0.415c0-0.111,0.032-0.271,0.08-0.367c0.686-0.207,1.594-0.334,2.36-0.334
			c1.897,0,2.902,0.861,2.902,2.806V22.994z M151.674,20.746c-0.462-0.063-0.94-0.095-1.355-0.095c-0.781,0-1.483,0.143-1.961,0.51
			c-0.431,0.319-0.669,0.829-0.669,1.483c0,1.164,0.749,1.722,1.786,1.722c0.861,0,1.771-0.415,2.2-1.068V20.746z"/>
		<path style="fill:#58595B;" d="M158.625,17.493c-0.925,0.127-1.93,0.462-2.679,1.036v6.506c-0.159,0.048-0.351,0.08-0.526,0.08
			s-0.351-0.032-0.51-0.08v-8.308c0.096-0.032,0.238-0.064,0.398-0.064c0.127,0,0.303,0.032,0.431,0.064l0.079,1.021h0.017
			c0.686-0.59,1.882-1.084,2.79-1.18c0.032,0.095,0.064,0.271,0.064,0.415C158.689,17.142,158.657,17.35,158.625,17.493z"/>
		<path style="fill:#58595B;" d="M165.545,25.115c-0.144,0-0.319-0.048-0.415-0.08l-0.096-0.957h-0.016
			c-0.686,0.717-1.499,1.116-2.408,1.116c-2.2,0-3.253-1.834-3.253-4.066c0-2.216,0.941-4.56,3.477-4.56
			c0.797,0,1.53,0.271,2.12,0.686v-3.859c0.144-0.048,0.335-0.08,0.511-0.08c0.191,0,0.383,0.048,0.526,0.08v11.64
			C165.879,25.083,165.72,25.115,165.545,25.115z M164.954,18.131c-0.573-0.479-1.307-0.718-2.057-0.718
			c-1.85,0-2.472,1.818-2.472,3.667c0,1.419,0.447,3.269,2.232,3.269c0.861,0,1.738-0.431,2.296-1.101V18.131z"/>
		<path style="fill:#58595B;" d="M174.09,21.161h-5.342c0.064,1.833,0.925,3.221,2.918,3.221c0.718,0,1.388-0.096,1.978-0.239
			c0.032,0.08,0.063,0.239,0.063,0.335c0,0.16-0.031,0.303-0.079,0.415c-0.622,0.191-1.403,0.303-2.057,0.303
			c-1.26,0-2.217-0.399-2.807-1.037c-0.702-0.766-1.068-1.914-1.068-3.237c0-2.312,1.164-4.353,3.492-4.353
			c2.089,0,2.918,1.722,2.918,3.827C174.106,20.634,174.106,20.921,174.09,21.161z M173.069,20.395c0-1.467-0.159-3.045-1.929-3.045
			c-1.547,0-2.297,1.419-2.393,3.045H173.069z"/>
		<path style="fill:#58595B;" d="M181.567,25.115c-0.144,0-0.318-0.048-0.414-0.08l-0.096-0.957h-0.017
			c-0.686,0.717-1.499,1.116-2.407,1.116c-2.201,0-3.253-1.834-3.253-4.066c0-2.216,0.94-4.56,3.476-4.56
			c0.798,0,1.531,0.271,2.121,0.686v-3.859c0.144-0.048,0.335-0.08,0.51-0.08c0.191,0,0.383,0.048,0.526,0.08v11.64
			C181.902,25.083,181.743,25.115,181.567,25.115z M180.978,18.131c-0.574-0.479-1.308-0.718-2.057-0.718
			c-1.85,0-2.472,1.818-2.472,3.667c0,1.419,0.446,3.269,2.232,3.269c0.86,0,1.737-0.431,2.296-1.101V18.131z"/>
		<path style="fill:#58595B;" d="M191.116,21.83c-0.781,0.909-1.515,1.69-2.137,2.36h4.911c0.048,0.144,0.048,0.319,0.048,0.415
			c0,0.144-0.016,0.287-0.048,0.431h-6.012c-0.096-0.271-0.127-0.446-0.127-0.622c0-0.111,0-0.159,0.016-0.255
			c0.925-1.004,2.025-2.201,2.663-2.918c1.754-1.978,2.424-3.173,2.424-4.353c0-1.339-0.766-2.009-2.01-2.009
			c-0.845,0-1.833,0.255-2.615,0.606c-0.031-0.096-0.048-0.319-0.048-0.415c0-0.144,0.032-0.287,0.08-0.415
			c0.638-0.287,1.754-0.558,2.727-0.558c1.786,0,3.014,0.988,3.014,2.695C194.002,18.227,193.236,19.375,191.116,21.83z"/>
		<path style="fill:#58595B;" d="M199.247,25.195c-2.152,0-3.349-1.595-3.349-5.549s1.324-5.549,3.413-5.549
			c2.12,0,3.349,1.594,3.349,5.549S201.336,25.195,199.247,25.195z M199.312,14.878c-1.595,0-2.265,1.626-2.265,4.768
			s0.622,4.768,2.217,4.768c1.594,0,2.248-1.626,2.248-4.768S200.905,14.878,199.312,14.878z"/>
		<path style="fill:#58595B;" d="M209.004,25.035c-0.127,0.048-0.366,0.08-0.542,0.08s-0.414-0.032-0.542-0.08V15.34l-2.791,1.77
			c-0.159-0.144-0.351-0.431-0.414-0.702l3.412-2.168c0.111-0.032,0.287-0.064,0.415-0.064c0.159,0,0.335,0.032,0.462,0.08V25.035z"
			/>
		<path style="fill:#58595B;" d="M216.434,25.195c-2.583,0-3.38-2.057-3.38-4.864c0-3.333,1.164-6.234,4.528-6.234
			c0.383,0,0.781,0.063,1.004,0.127c0.048,0.096,0.064,0.255,0.064,0.335c0,0.096-0.032,0.303-0.08,0.383
			c-0.239-0.048-0.605-0.096-0.909-0.096c-2.152,0-3.252,1.77-3.428,4.544c0.605-0.574,1.626-0.989,2.567-0.989
			c1.738,0,2.838,1.308,2.838,3.173C219.639,23.616,218.491,25.195,216.434,25.195z M216.705,19.199
			c-0.829,0-1.85,0.431-2.504,1.116c-0.016,0.223-0.016,0.383-0.016,0.526c0,2.089,0.605,3.604,2.248,3.604
			c1.451,0,2.058-1.483,2.058-2.807C218.491,20.443,218.108,19.199,216.705,19.199z"/>
	</g>
	<g>
		<path style="fill:#837199;" d="M80.019,36.49c-1.183-0.37-2.661-0.641-3.844-0.641c-2.809,0-4.633,1.996-4.633,5.569
			c0,3.277,1.429,5.421,4.608,5.421c1.183,0,2.513-0.247,3.696-0.616c0.172,0.444,0.296,1.134,0.296,1.651
			c0,0.419-0.025,0.937-0.074,1.158c-1.232,0.567-2.809,0.887-4.263,0.887c-5.298,0-7.91-3.204-7.91-8.428
			c0-5.076,2.809-8.724,8.058-8.724c1.281,0,2.957,0.321,4.14,0.838c0.074,0.247,0.099,0.789,0.099,1.109
			C80.192,35.479,80.093,36.194,80.019,36.49z"/>
		<path style="fill:#837199;" d="M87.878,49.92c-4.559,0-6.974-3.154-6.974-8.576c0-5.422,2.415-8.576,6.974-8.576
			c4.559,0,6.974,3.154,6.974,8.576C94.852,46.766,92.437,49.92,87.878,49.92z M87.878,35.8c-2.119,0-3.327,1.626-3.327,5.545
			c0,3.918,1.208,5.544,3.327,5.544c2.12,0,3.327-1.626,3.327-5.544C91.205,37.426,89.998,35.8,87.878,35.8z"/>
		<path style="fill:#837199;" d="M110.177,49.674c-0.246,0.049-0.838,0.099-1.257,0.099s-0.838-0.025-1.232-0.099l-7.664-10.67
			v10.67c-0.197,0.049-0.937,0.123-1.626,0.123c-0.567,0-1.232-0.074-1.577-0.123V33.015c0.395-0.074,0.863-0.099,1.306-0.099
			c0.468,0,0.961,0.049,1.331,0.099l7.516,10.473V33.015c0.493-0.074,1.134-0.123,1.602-0.123s1.158,0.049,1.602,0.123V49.674z"/>
		<path style="fill:#837199;" d="M122.989,36.021h-6.555v3.598h5.52c0.099,0.271,0.172,0.764,0.172,1.454
			c0,0.542-0.049,0.986-0.172,1.503h-5.52v7.097c-0.468,0.074-1.01,0.123-1.75,0.123c-0.666,0-1.306-0.049-1.774-0.123V33.015
			h10.079c0.099,0.271,0.172,0.789,0.172,1.479C123.161,35.036,123.112,35.504,122.989,36.021z"/>
		<path style="fill:#837199;" d="M137.649,43.341c0,4.238-1.626,6.58-6.358,6.58c-4.781,0-6.284-2.341-6.284-6.58V33.015
			c0.493-0.074,1.133-0.123,1.725-0.123c0.69,0,1.306,0.049,1.799,0.123v10.572c0,2.267,0.641,3.549,2.785,3.549
			s2.883-1.282,2.883-3.549V33.015c0.443-0.074,1.183-0.123,1.75-0.123c0.542,0,1.281,0.049,1.7,0.123V43.341z"/>
		<path style="fill:#837199;" d="M151.644,36.49c-1.183-0.37-2.661-0.641-3.844-0.641c-2.809,0-4.633,1.996-4.633,5.569
			c0,3.277,1.429,5.421,4.608,5.421c1.183,0,2.513-0.247,3.696-0.616c0.173,0.444,0.297,1.134,0.297,1.651
			c0,0.419-0.025,0.937-0.074,1.158c-1.232,0.567-2.81,0.887-4.264,0.887c-5.298,0-7.91-3.204-7.91-8.428
			c0-5.076,2.809-8.724,8.058-8.724c1.281,0,2.957,0.321,4.14,0.838c0.073,0.247,0.099,0.789,0.099,1.109
			C151.816,35.479,151.718,36.194,151.644,36.49z"/>
		<path style="fill:#837199;" d="M157.186,49.674c-0.468,0.074-1.035,0.123-1.773,0.123c-0.666,0-1.281-0.049-1.75-0.123V33.015
			c0.469-0.074,1.158-0.123,1.774-0.123c0.69,0,1.306,0.049,1.749,0.123V49.674z"/>
		<path style="fill:#837199;" d="M172.538,43.341c0,4.238-1.627,6.58-6.358,6.58c-4.78,0-6.283-2.341-6.283-6.58V33.015
			c0.492-0.074,1.133-0.123,1.725-0.123c0.689,0,1.306,0.049,1.799,0.123v10.572c0,2.267,0.641,3.549,2.784,3.549
			c2.145,0,2.884-1.282,2.884-3.549V33.015c0.443-0.074,1.183-0.123,1.749-0.123c0.543,0,1.282,0.049,1.701,0.123V43.341z"/>
		<path style="fill:#837199;" d="M179.731,49.92c-1.799,0-3.771-0.345-5.176-0.986c-0.073-0.345-0.123-0.789-0.123-1.183
			c0-0.591,0.074-1.158,0.247-1.823c1.453,0.591,3.376,0.961,4.879,0.961c1.75,0,2.687-0.813,2.687-1.922
			c0-1.232-0.789-1.75-3.18-2.489c-2.661-0.813-4.607-2.095-4.607-4.953c0-3.056,2.637-4.756,6.111-4.756
			c1.602,0,3.03,0.247,3.992,0.567c0.073,0.271,0.123,0.715,0.123,1.355c0,0.468-0.05,1.183-0.148,1.577
			c-1.231-0.32-2.637-0.493-3.77-0.493c-1.849,0-2.859,0.616-2.859,1.602c0,1.158,0.912,1.626,3.13,2.316
			c2.661,0.838,4.633,2.095,4.633,5.052C185.67,47.974,183.132,49.92,179.731,49.92z"/>
	</g>
	<g>
		<path style="fill:#837199;" d="M72.232,74.312c-0.468,0.074-1.035,0.123-1.774,0.123c-0.665,0-1.281-0.049-1.75-0.123V57.654
			c0.468-0.074,1.158-0.123,1.774-0.123c0.69,0,1.306,0.049,1.75,0.123V74.312z"/>
		<path style="fill:#837199;" d="M88.372,74.312c-0.246,0.049-0.838,0.099-1.257,0.099s-0.838-0.025-1.232-0.099l-7.664-10.67v10.67
			c-0.197,0.049-0.937,0.123-1.626,0.123c-0.567,0-1.232-0.074-1.577-0.123V57.654c0.395-0.074,0.863-0.099,1.306-0.099
			c0.468,0,0.961,0.049,1.331,0.099l7.516,10.473V57.654c0.493-0.074,1.134-0.123,1.602-0.123s1.158,0.049,1.602,0.123V74.312z"/>
		<path style="fill:#837199;" d="M95.639,74.559c-1.799,0-3.77-0.345-5.175-0.986c-0.074-0.345-0.123-0.789-0.123-1.183
			c0-0.591,0.074-1.158,0.246-1.823c1.454,0.591,3.376,0.961,4.879,0.961c1.75,0,2.686-0.813,2.686-1.922
			c0-1.232-0.789-1.75-3.179-2.489c-2.662-0.813-4.608-2.095-4.608-4.953c0-3.056,2.637-4.756,6.111-4.756
			c1.602,0,3.031,0.247,3.992,0.567c0.074,0.271,0.124,0.715,0.124,1.355c0,0.468-0.049,1.183-0.148,1.577
			c-1.232-0.32-2.637-0.493-3.771-0.493c-1.848,0-2.858,0.616-2.858,1.602c0,1.158,0.912,1.626,3.129,2.316
			c2.662,0.838,4.633,2.095,4.633,5.052C101.578,72.612,99.04,74.559,95.639,74.559z"/>
		<path style="fill:#837199;" d="M113.873,60.66h-4.411v13.652c-0.468,0.074-1.134,0.123-1.75,0.123
			c-0.616,0-1.281-0.049-1.774-0.123V60.66h-4.411c-0.099-0.32-0.173-1.084-0.173-1.503s0.099-1.183,0.197-1.503h12.322
			c0.098,0.32,0.172,1.084,0.172,1.503S113.971,60.34,113.873,60.66z"/>
		<path style="fill:#837199;" d="M118.873,74.312c-0.468,0.074-1.035,0.123-1.774,0.123c-0.665,0-1.281-0.049-1.75-0.123V57.654
			c0.468-0.074,1.158-0.123,1.774-0.123c0.69,0,1.306,0.049,1.75,0.123V74.312z"/>
		<path style="fill:#837199;" d="M132.722,60.66h-4.411v13.652c-0.468,0.074-1.134,0.123-1.75,0.123
			c-0.616,0-1.281-0.049-1.774-0.123V60.66h-4.411c-0.099-0.32-0.172-1.084-0.172-1.503s0.098-1.183,0.197-1.503h12.322
			c0.099,0.32,0.172,1.084,0.172,1.503S132.82,60.34,132.722,60.66z"/>
		<path style="fill:#837199;" d="M146.741,67.979c0,4.238-1.626,6.58-6.358,6.58c-4.781,0-6.284-2.341-6.284-6.58V57.654
			c0.493-0.074,1.133-0.123,1.725-0.123c0.69,0,1.306,0.049,1.799,0.123v10.572c0,2.267,0.641,3.549,2.785,3.549
			s2.883-1.282,2.883-3.549V57.654c0.443-0.074,1.183-0.123,1.75-0.123c0.542,0,1.281,0.049,1.7,0.123V67.979z"/>
		<path style="fill:#837199;" d="M160.44,60.66h-4.411v13.652c-0.469,0.074-1.134,0.123-1.75,0.123
			c-0.615,0-1.281-0.049-1.773-0.123V60.66h-4.412c-0.099-0.32-0.172-1.084-0.172-1.503s0.098-1.183,0.197-1.503h12.322
			c0.099,0.32,0.173,1.084,0.173,1.503S160.539,60.34,160.44,60.66z"/>
		<path style="fill:#837199;" d="M172.316,74.312h-10.424V57.654h10.202c0.099,0.271,0.172,0.789,0.172,1.479
			c0,0.542-0.049,1.01-0.172,1.528h-6.679v3.598h5.644c0.099,0.271,0.172,0.764,0.172,1.454c0,0.542-0.049,0.986-0.172,1.503h-5.644
			v4.091h6.9c0.099,0.271,0.172,0.789,0.172,1.479C172.488,73.327,172.439,73.795,172.316,74.312z"/>
	</g>
	<g>
		<path style="fill:#837199;" d="M74.869,99.199c-4.559,0-6.974-3.154-6.974-8.576c0-5.422,2.415-8.576,6.974-8.576
			c4.559,0,6.974,3.154,6.974,8.576C81.843,96.044,79.428,99.199,74.869,99.199z M74.869,85.078c-2.119,0-3.327,1.626-3.327,5.545
			c0,3.918,1.208,5.544,3.327,5.544c2.12,0,3.327-1.626,3.327-5.544C78.196,86.705,76.988,85.078,74.869,85.078z"/>
		<path style="fill:#837199;" d="M93.891,85.3h-6.555v3.598h5.52c0.099,0.271,0.172,0.764,0.172,1.454
			c0,0.542-0.049,0.986-0.172,1.503h-5.52v7.097c-0.468,0.074-1.01,0.123-1.75,0.123c-0.666,0-1.306-0.049-1.774-0.123V82.293
			h10.079c0.099,0.271,0.172,0.789,0.172,1.479C94.063,84.314,94.014,84.782,93.891,85.3z"/>
		<path style="fill:#837199;" d="M110.398,85.3h-4.411v13.652c-0.468,0.074-1.134,0.123-1.75,0.123
			c-0.616,0-1.281-0.049-1.774-0.123V85.3h-4.411c-0.099-0.32-0.172-1.084-0.172-1.503s0.098-1.183,0.197-1.503h12.322
			c0.099,0.32,0.172,1.084,0.172,1.503S110.497,84.979,110.398,85.3z"/>
		<path style="fill:#837199;" d="M124.689,98.952c-0.443,0.074-1.06,0.123-1.75,0.123s-1.306-0.049-1.774-0.123v-6.9h-5.791v6.9
			c-0.468,0.074-1.01,0.123-1.75,0.123c-0.666,0-1.306-0.049-1.774-0.123V82.293c0.468-0.074,1.158-0.123,1.774-0.123
			c0.69,0,1.306,0.049,1.75,0.123v6.752h5.791v-6.752c0.542-0.074,1.158-0.123,1.774-0.123c0.591,0,1.331,0.049,1.75,0.123V98.952z"
			/>
		<path style="fill:#837199;" d="M137.846,98.952h-10.424V82.293h10.202c0.099,0.271,0.173,0.789,0.173,1.479
			c0,0.542-0.049,1.01-0.173,1.528h-6.678v3.598h5.644c0.098,0.271,0.172,0.764,0.172,1.454c0,0.542-0.049,0.986-0.172,1.503h-5.644
			v4.091h6.9c0.099,0.271,0.173,0.789,0.173,1.479C138.019,97.966,137.969,98.435,137.846,98.952z"/>
		<path style="fill:#837199;" d="M155.093,86.113l-3.771,7.27v5.569c-0.468,0.074-1.01,0.123-1.75,0.123
			c-0.666,0-1.306-0.049-1.774-0.123v-5.619l-3.598-7.023c-0.789-1.528-1.208-2.785-1.208-4.042
			c0.394-0.049,1.109-0.099,1.725-0.099c0.591,0,1.257,0.024,1.725,0.099c0,1.035,0.147,1.725,0.714,2.908l1.651,3.401
			c0.37,0.739,0.69,1.626,0.789,2.144h0.024c0.123-0.517,0.518-1.429,0.813-2.07l1.7-3.573c0.37-0.764,0.591-1.651,0.591-2.785
			c0.469-0.074,1.208-0.123,1.799-0.123c0.69,0,1.208,0.049,1.603,0.123C156.128,83.55,155.635,85.054,155.093,86.113z"/>
		<path style="fill:#837199;" d="M167.905,98.952H157.48V82.293h10.203c0.099,0.271,0.172,0.789,0.172,1.479
			c0,0.542-0.049,1.01-0.172,1.528h-6.679v3.598h5.644c0.099,0.271,0.172,0.764,0.172,1.454c0,0.542-0.049,0.986-0.172,1.503h-5.644
			v4.091h6.9c0.099,0.271,0.172,0.789,0.172,1.479C168.077,97.966,168.028,98.435,167.905,98.952z"/>
		<path style="fill:#837199;" d="M184.266,98.952c-0.32,0.074-1.084,0.123-1.897,0.123c-0.641,0-1.38-0.074-1.7-0.123l-1.231-3.376
			h-5.915l-1.158,3.376c-0.542,0.074-1.183,0.123-1.823,0.123s-1.38-0.049-1.75-0.123l5.816-16.659
			c0.345-0.074,1.158-0.123,1.7-0.123c0.665,0,1.454,0.049,1.725,0.123L184.266,98.952z M178.376,92.644l-1.453-4.707
			c-0.173-0.542-0.346-1.232-0.493-1.996h-0.05c-0.123,0.764-0.32,1.454-0.492,1.996l-1.38,4.707H178.376z"/>
		<path style="fill:#837199;" d="M197.767,98.928c-0.641,0.098-1.306,0.147-2.069,0.147c-0.69,0-1.381-0.024-1.849-0.123
			l-3.376-5.988h-1.454v5.988c-0.616,0.099-1.134,0.123-1.799,0.123c-0.592,0-1.109-0.024-1.725-0.123V82.293
			c1.133-0.074,3.499-0.123,4.928-0.123c4.189,0,6.284,1.479,6.284,5.323c0,2.045-1.232,4.091-2.957,4.83L197.767,98.928z
			 M190.646,85.054c-0.543,0-1.208,0.024-1.627,0.049v4.928h1.232c2.021,0,2.907-0.739,2.907-2.562
			C193.158,85.645,192.271,85.054,190.646,85.054z"/>
	</g>
	<g>
		<path style="fill:#58595B;" d="M73.574,113.054c0,0.574,0,1.292,0.032,2.041c-0.112,0.048-0.287,0.08-0.431,0.08
			c-0.127,0-0.303-0.032-0.431-0.08c-0.048-0.255-0.08-0.59-0.096-0.893h-0.016c-0.542,0.67-1.499,1.053-2.44,1.053
			c-1.483,0-2.727-0.83-2.727-2.536c0-0.973,0.398-1.69,1.021-2.137c0.702-0.494,1.626-0.654,2.615-0.654
			c0.558,0,1.021,0.032,1.435,0.096v-0.462c0-1.594-0.654-2.121-1.993-2.121c-0.75,0-1.674,0.16-2.249,0.303
			c-0.032-0.08-0.064-0.255-0.064-0.415c0-0.111,0.032-0.271,0.08-0.367c0.686-0.207,1.594-0.334,2.36-0.334
			c1.897,0,2.902,0.861,2.902,2.806V113.054z M72.538,110.805c-0.462-0.063-0.941-0.095-1.355-0.095
			c-0.781,0-1.483,0.143-1.961,0.51c-0.431,0.319-0.669,0.829-0.669,1.483c0,1.164,0.749,1.722,1.786,1.722
			c0.861,0,1.77-0.415,2.201-1.068V110.805z"/>
		<path style="fill:#58595B;" d="M82.151,115.111c-0.127,0.032-0.319,0.063-0.51,0.063c-0.159,0-0.367-0.032-0.526-0.08v-5.055
			c0-0.766-0.095-1.355-0.319-1.77c-0.271-0.51-0.781-0.765-1.61-0.765c-0.797,0-1.754,0.446-2.376,0.925v6.665
			c-0.175,0.048-0.351,0.08-0.542,0.08c-0.16,0-0.351-0.032-0.494-0.08v-8.308c0.111-0.048,0.303-0.064,0.415-0.064
			c0.159,0,0.351,0.016,0.446,0.064l0.08,0.829h0.016c0.877-0.717,1.881-0.988,2.695-0.988c0.813,0,1.658,0.271,2.121,0.829
			c0.51,0.606,0.606,1.483,0.606,2.344V115.111z"/>
		<path style="fill:#58595B;" d="M89.995,115.174c-0.144,0-0.319-0.048-0.415-0.08l-0.096-0.957h-0.016
			c-0.686,0.717-1.499,1.116-2.408,1.116c-2.2,0-3.252-1.834-3.252-4.066c0-2.216,0.94-4.56,3.476-4.56
			c0.797,0,1.531,0.271,2.121,0.686v-3.859c0.144-0.048,0.335-0.08,0.51-0.08c0.191,0,0.383,0.048,0.526,0.08v11.64
			C90.33,115.143,90.17,115.174,89.995,115.174z M89.405,108.19c-0.574-0.479-1.308-0.718-2.057-0.718
			c-1.85,0-2.471,1.818-2.471,3.667c0,1.419,0.446,3.269,2.232,3.269c0.861,0,1.738-0.431,2.296-1.101V108.19z"/>
		<path style="fill:#58595B;" d="M99.082,115.254c-2.089,0-3.428-1.435-3.428-4.306c0-2.87,1.355-4.321,3.444-4.321
			s3.413,1.419,3.413,4.289S101.171,115.254,99.082,115.254z M99.098,107.409c-1.531,0-2.36,1.18-2.36,3.524
			c0,2.344,0.813,3.54,2.344,3.54s2.344-1.196,2.344-3.54C101.426,108.589,100.628,107.409,99.098,107.409z"/>
		<path style="fill:#58595B;" d="M110.338,111.938c0,2.424-1.005,3.317-3.109,3.317c-2.153,0-3.062-0.893-3.062-3.237v-5.23
			c0.144-0.048,0.334-0.08,0.51-0.08c0.223,0,0.398,0.048,0.526,0.08v5.103c0,1.547,0.239,2.567,2.041,2.567
			c1.69,0,2.057-0.989,2.057-2.599v-5.071c0.127-0.048,0.351-0.08,0.526-0.08c0.175,0,0.367,0.032,0.51,0.08V111.938z"/>
		<path style="fill:#58595B;" d="M116.173,107.553c-0.925,0.127-1.93,0.462-2.679,1.036v6.506c-0.159,0.048-0.351,0.08-0.526,0.08
			c-0.176,0-0.351-0.032-0.51-0.08v-8.308c0.096-0.032,0.239-0.064,0.398-0.064c0.127,0,0.303,0.032,0.431,0.064l0.08,1.021h0.016
			c0.686-0.59,1.881-1.084,2.791-1.18c0.032,0.095,0.063,0.271,0.063,0.415C116.236,107.202,116.205,107.409,116.173,107.553z"/>
		<path style="fill:#58595B;" d="M128.497,107.122l-3.109,7.973c-0.144,0.048-0.382,0.08-0.542,0.08s-0.415-0.032-0.59-0.08
			l-2.998-7.877c-0.494-1.308-0.558-1.993-0.574-2.902c0.144-0.048,0.415-0.08,0.558-0.08c0.159,0,0.367,0.032,0.526,0.08
			c0.016,0.893,0.096,1.483,0.51,2.599l1.993,5.39c0.144,0.431,0.399,1.132,0.558,1.674c0.16-0.542,0.399-1.244,0.558-1.674
			l2.057-5.39c0.431-1.116,0.51-1.817,0.542-2.599c0.144-0.048,0.319-0.08,0.51-0.08c0.16,0,0.383,0.032,0.542,0.08
			C129.007,105.065,128.943,105.974,128.497,107.122z"/>
		<path style="fill:#58595B;" d="M131.174,105.161c-0.367,0-0.669-0.319-0.669-0.702c0-0.382,0.303-0.686,0.669-0.686
			s0.686,0.303,0.686,0.686C131.86,104.842,131.541,105.161,131.174,105.161z M131.701,115.095c-0.144,0.048-0.351,0.08-0.526,0.08
			s-0.367-0.032-0.51-0.08v-8.308c0.128-0.032,0.335-0.08,0.495-0.08c0.175,0,0.415,0.032,0.542,0.08V115.095z"/>
		<path style="fill:#58595B;" d="M139.163,107.792c-0.51-0.207-1.18-0.334-1.77-0.334c-2.073,0-2.838,1.61-2.838,3.556
			c0,1.914,0.733,3.396,2.822,3.396c0.558,0,1.228-0.096,1.722-0.239c0.032,0.096,0.064,0.207,0.064,0.335
			c0,0.191-0.032,0.335-0.08,0.446c-0.462,0.191-1.212,0.303-1.802,0.303c-2.599,0-3.811-1.707-3.811-4.21
			c0-2.599,1.323-4.417,3.858-4.417c0.606,0,1.324,0.143,1.818,0.367c0.048,0.127,0.064,0.255,0.064,0.398
			C139.21,107.553,139.194,107.68,139.163,107.792z"/>
		<path style="fill:#58595B;" d="M146.799,111.22h-5.342c0.064,1.833,0.925,3.221,2.918,3.221c0.718,0,1.387-0.096,1.977-0.239
			c0.032,0.08,0.064,0.239,0.064,0.335c0,0.16-0.032,0.303-0.08,0.415c-0.622,0.191-1.403,0.303-2.057,0.303
			c-1.26,0-2.216-0.399-2.806-1.037c-0.702-0.766-1.068-1.914-1.068-3.237c0-2.312,1.164-4.353,3.492-4.353
			c2.089,0,2.918,1.722,2.918,3.827C146.815,110.694,146.815,110.981,146.799,111.22z M145.779,110.455
			c0-1.467-0.16-3.045-1.93-3.045c-1.546,0-2.296,1.419-2.392,3.045H145.779z"/>
		<path style="fill:#58595B;" d="M158.947,105.336c-0.605-0.159-1.482-0.303-2.2-0.303c-2.632,0-3.716,2.089-3.716,4.72
			c0,2.599,1.037,4.624,3.62,4.624c0.845,0,1.706-0.127,2.28-0.319c0.031,0.096,0.047,0.255,0.047,0.383
			c0,0.16-0.016,0.367-0.047,0.462c-0.574,0.191-1.388,0.351-2.312,0.351c-2.902,0-4.736-1.754-4.736-5.485
			c0-3.365,1.771-5.613,4.752-5.613c0.861,0,1.771,0.159,2.297,0.367c0.047,0.127,0.063,0.287,0.063,0.431
			C158.995,105.049,158.979,105.225,158.947,105.336z"/>
		<path style="fill:#58595B;" d="M167.413,115.095c-0.144,0.048-0.319,0.08-0.479,0.08c-0.191,0-0.398-0.032-0.559-0.08v-5.039
			c0-1.754-0.446-2.551-1.929-2.551c-0.798,0-1.755,0.446-2.376,0.925v6.665c-0.176,0.048-0.367,0.08-0.543,0.08
			c-0.159,0-0.351-0.032-0.494-0.08v-11.64c0.144-0.048,0.367-0.08,0.511-0.08s0.383,0.032,0.526,0.08v4.098
			c0.845-0.654,1.85-0.925,2.631-0.925c0.813,0,1.643,0.271,2.104,0.829c0.511,0.606,0.606,1.483,0.606,2.344V115.095z"/>
		<path style="fill:#58595B;" d="M175.209,113.054c0,0.574,0,1.292,0.032,2.041c-0.112,0.048-0.287,0.08-0.431,0.08
			c-0.128,0-0.303-0.032-0.431-0.08c-0.048-0.255-0.08-0.59-0.096-0.893h-0.016c-0.542,0.67-1.499,1.053-2.439,1.053
			c-1.483,0-2.728-0.83-2.728-2.536c0-0.973,0.399-1.69,1.021-2.137c0.702-0.494,1.627-0.654,2.615-0.654
			c0.559,0,1.021,0.032,1.436,0.096v-0.462c0-1.594-0.654-2.121-1.993-2.121c-0.75,0-1.675,0.16-2.248,0.303
			c-0.032-0.08-0.064-0.255-0.064-0.415c0-0.111,0.032-0.271,0.08-0.367c0.686-0.207,1.595-0.334,2.359-0.334
			c1.897,0,2.902,0.861,2.902,2.806V113.054z M174.173,110.805c-0.463-0.063-0.941-0.095-1.355-0.095
			c-0.781,0-1.483,0.143-1.961,0.51c-0.431,0.319-0.67,0.829-0.67,1.483c0,1.164,0.749,1.722,1.786,1.722
			c0.86,0,1.77-0.415,2.2-1.068V110.805z"/>
		<path style="fill:#58595B;" d="M183.786,115.111c-0.128,0.032-0.319,0.063-0.511,0.063c-0.159,0-0.366-0.032-0.526-0.08v-5.055
			c0-0.766-0.096-1.355-0.318-1.77c-0.271-0.51-0.781-0.765-1.61-0.765c-0.798,0-1.755,0.446-2.376,0.925v6.665
			c-0.176,0.048-0.352,0.08-0.543,0.08c-0.159,0-0.351-0.032-0.494-0.08v-8.308c0.112-0.048,0.304-0.064,0.415-0.064
			c0.159,0,0.351,0.016,0.446,0.064l0.08,0.829h0.016c0.877-0.717,1.882-0.988,2.694-0.988c0.813,0,1.659,0.271,2.121,0.829
			c0.511,0.606,0.606,1.483,0.606,2.344V115.111z"/>
		<path style="fill:#58595B;" d="M191.135,107.792c-0.511-0.207-1.18-0.334-1.77-0.334c-2.073,0-2.839,1.61-2.839,3.556
			c0,1.914,0.733,3.396,2.822,3.396c0.559,0,1.228-0.096,1.723-0.239c0.031,0.096,0.063,0.207,0.063,0.335
			c0,0.191-0.032,0.335-0.08,0.446c-0.462,0.191-1.212,0.303-1.802,0.303c-2.599,0-3.811-1.707-3.811-4.21
			c0-2.599,1.323-4.417,3.858-4.417c0.606,0,1.323,0.143,1.818,0.367c0.048,0.127,0.063,0.255,0.063,0.398
			C191.183,107.553,191.167,107.68,191.135,107.792z"/>
		<path style="fill:#58595B;" d="M198.771,111.22h-5.342c0.064,1.833,0.925,3.221,2.918,3.221c0.718,0,1.388-0.096,1.978-0.239
			c0.032,0.08,0.063,0.239,0.063,0.335c0,0.16-0.031,0.303-0.079,0.415c-0.622,0.191-1.403,0.303-2.057,0.303
			c-1.26,0-2.217-0.399-2.807-1.037c-0.702-0.766-1.068-1.914-1.068-3.237c0-2.312,1.164-4.353,3.492-4.353
			c2.089,0,2.918,1.722,2.918,3.827C198.788,110.694,198.788,110.981,198.771,111.22z M197.751,110.455
			c0-1.467-0.159-3.045-1.929-3.045c-1.547,0-2.297,1.419-2.393,3.045H197.751z"/>
		<path style="fill:#58595B;" d="M201.593,115.095c-0.175,0.048-0.351,0.08-0.542,0.08c-0.159,0-0.351-0.032-0.494-0.08v-11.64
			c0.144-0.032,0.319-0.08,0.526-0.08c0.175,0,0.366,0.032,0.51,0.08V115.095z"/>
		<path style="fill:#58595B;" d="M204.86,115.095c-0.175,0.048-0.351,0.08-0.542,0.08c-0.159,0-0.351-0.032-0.494-0.08v-11.64
			c0.144-0.032,0.319-0.08,0.526-0.08c0.175,0,0.366,0.032,0.51,0.08V115.095z"/>
		<path style="fill:#58595B;" d="M210.026,115.254c-2.089,0-3.428-1.435-3.428-4.306c0-2.87,1.355-4.321,3.444-4.321
			s3.412,1.419,3.412,4.289S212.115,115.254,210.026,115.254z M210.043,107.409c-1.531,0-2.36,1.18-2.36,3.524
			c0,2.344,0.813,3.54,2.344,3.54c1.531,0,2.345-1.196,2.345-3.54C212.371,108.589,211.573,107.409,210.043,107.409z"/>
		<path style="fill:#58595B;" d="M218.875,107.553c-0.925,0.127-1.93,0.462-2.679,1.036v6.506c-0.16,0.048-0.352,0.08-0.526,0.08
			c-0.176,0-0.351-0.032-0.511-0.08v-8.308c0.096-0.032,0.239-0.064,0.399-0.064c0.127,0,0.303,0.032,0.43,0.064l0.08,1.021h0.016
			c0.686-0.59,1.882-1.084,2.791-1.18c0.031,0.095,0.063,0.271,0.063,0.415C218.938,107.202,218.906,107.409,218.875,107.553z"/>
	</g>
	<g>
		<path style="fill:#58595B;" d="M71.613,123.496c-0.925,0.127-1.93,0.462-2.679,1.036v6.506c-0.159,0.048-0.351,0.08-0.526,0.08
			c-0.176,0-0.351-0.032-0.51-0.08v-8.308c0.096-0.032,0.239-0.064,0.398-0.064c0.127,0,0.303,0.032,0.431,0.064l0.08,1.021h0.016
			c0.686-0.59,1.881-1.084,2.791-1.18c0.032,0.095,0.063,0.271,0.063,0.415C71.677,123.145,71.645,123.353,71.613,123.496z"/>
		<path style="fill:#58595B;" d="M78.74,127.164h-5.342c0.064,1.833,0.925,3.221,2.918,3.221c0.718,0,1.387-0.096,1.977-0.239
			c0.032,0.08,0.064,0.239,0.064,0.335c0,0.16-0.032,0.303-0.08,0.415c-0.622,0.191-1.403,0.303-2.057,0.303
			c-1.26,0-2.216-0.399-2.806-1.037c-0.702-0.766-1.068-1.914-1.068-3.237c0-2.312,1.164-4.353,3.492-4.353
			c2.089,0,2.918,1.722,2.918,3.827C78.756,126.637,78.756,126.924,78.74,127.164z M77.72,126.398c0-1.467-0.16-3.045-1.93-3.045
			c-1.546,0-2.296,1.419-2.392,3.045H77.72z"/>
		<path style="fill:#58595B;" d="M85.723,123.735c-0.51-0.207-1.18-0.334-1.77-0.334c-2.073,0-2.838,1.61-2.838,3.556
			c0,1.914,0.733,3.396,2.822,3.396c0.558,0,1.228-0.096,1.722-0.239c0.032,0.096,0.064,0.207,0.064,0.335
			c0,0.191-0.032,0.335-0.08,0.446c-0.462,0.191-1.212,0.303-1.802,0.303c-2.599,0-3.811-1.707-3.811-4.21
			c0-2.599,1.323-4.417,3.858-4.417c0.606,0,1.324,0.143,1.818,0.367c0.048,0.127,0.064,0.255,0.064,0.398
			C85.771,123.496,85.754,123.624,85.723,123.735z"/>
		<path style="fill:#58595B;" d="M93.359,127.164h-5.342c0.064,1.833,0.925,3.221,2.918,3.221c0.718,0,1.387-0.096,1.977-0.239
			c0.032,0.08,0.064,0.239,0.064,0.335c0,0.16-0.032,0.303-0.08,0.415c-0.622,0.191-1.403,0.303-2.057,0.303
			c-1.26,0-2.216-0.399-2.806-1.037c-0.702-0.766-1.068-1.914-1.068-3.237c0-2.312,1.164-4.353,3.492-4.353
			c2.089,0,2.918,1.722,2.918,3.827C93.375,126.637,93.375,126.924,93.359,127.164z M92.339,126.398c0-1.467-0.16-3.045-1.93-3.045
			c-1.546,0-2.296,1.419-2.392,3.045H92.339z"/>
		<path style="fill:#58595B;" d="M95.686,121.104c-0.367,0-0.669-0.319-0.669-0.702c0-0.382,0.303-0.686,0.669-0.686
			s0.686,0.303,0.686,0.686C96.372,120.785,96.053,121.104,95.686,121.104z M96.212,131.038c-0.144,0.048-0.351,0.08-0.526,0.08
			s-0.367-0.032-0.51-0.08v-8.308c0.128-0.032,0.335-0.08,0.495-0.08c0.175,0,0.415,0.032,0.542,0.08V131.038z"/>
		<path style="fill:#58595B;" d="M104.073,124.755l-2.503,6.283c-0.144,0.048-0.303,0.08-0.43,0.08c-0.176,0-0.319-0.032-0.447-0.08
			l-2.583-6.283c-0.287-0.717-0.415-1.435-0.415-2.025c0.127-0.032,0.351-0.08,0.494-0.08c0.191,0,0.383,0.032,0.542,0.08
			c0.016,0.542,0.08,1.164,0.319,1.738l2.073,5.262h0.032l2.009-5.262c0.223-0.558,0.335-1.18,0.335-1.738
			c0.111-0.048,0.351-0.08,0.558-0.08c0.111,0,0.319,0.016,0.462,0.063C104.503,123.289,104.392,123.974,104.073,124.755z"/>
		<path style="fill:#58595B;" d="M111.805,127.164h-5.342c0.064,1.833,0.925,3.221,2.918,3.221c0.718,0,1.387-0.096,1.977-0.239
			c0.032,0.08,0.064,0.239,0.064,0.335c0,0.16-0.032,0.303-0.08,0.415c-0.622,0.191-1.403,0.303-2.057,0.303
			c-1.26,0-2.216-0.399-2.806-1.037c-0.702-0.766-1.068-1.914-1.068-3.237c0-2.312,1.164-4.353,3.492-4.353
			c2.089,0,2.918,1.722,2.918,3.827C111.821,126.637,111.821,126.924,111.805,127.164z M110.785,126.398
			c0-1.467-0.16-3.045-1.93-3.045c-1.546,0-2.296,1.419-2.392,3.045H110.785z"/>
		<path style="fill:#58595B;" d="M119.282,131.118c-0.144,0-0.319-0.048-0.415-0.08l-0.096-0.957h-0.016
			c-0.686,0.717-1.499,1.116-2.408,1.116c-2.2,0-3.252-1.834-3.252-4.066c0-2.216,0.94-4.56,3.476-4.56
			c0.797,0,1.531,0.271,2.121,0.686v-3.859c0.144-0.048,0.335-0.08,0.51-0.08c0.191,0,0.383,0.048,0.526,0.08v11.64
			C119.617,131.086,119.458,131.118,119.282,131.118z M118.692,124.134c-0.574-0.479-1.308-0.718-2.057-0.718
			c-1.85,0-2.471,1.818-2.471,3.667c0,1.419,0.446,3.269,2.232,3.269c0.861,0,1.738-0.431,2.296-1.101V124.134z"/>
		<path style="fill:#58595B;" d="M131.08,128.997c0,0.574,0,1.292,0.032,2.041c-0.112,0.048-0.287,0.08-0.431,0.08
			c-0.127,0-0.303-0.032-0.431-0.08c-0.048-0.255-0.08-0.59-0.096-0.893h-0.016c-0.542,0.67-1.499,1.053-2.44,1.053
			c-1.483,0-2.727-0.83-2.727-2.536c0-0.973,0.398-1.69,1.021-2.137c0.702-0.494,1.626-0.654,2.615-0.654
			c0.558,0,1.021,0.032,1.435,0.096v-0.462c0-1.594-0.654-2.121-1.993-2.121c-0.75,0-1.674,0.16-2.249,0.303
			c-0.032-0.08-0.064-0.255-0.064-0.415c0-0.111,0.032-0.271,0.08-0.367c0.686-0.207,1.594-0.334,2.36-0.334
			c1.897,0,2.902,0.861,2.902,2.806V128.997z M130.043,126.749c-0.462-0.063-0.941-0.095-1.355-0.095
			c-0.781,0-1.483,0.143-1.961,0.51c-0.431,0.319-0.669,0.829-0.669,1.483c0,1.164,0.749,1.722,1.786,1.722
			c0.861,0,1.77-0.415,2.201-1.068V126.749z"/>
		<path style="fill:#58595B;" d="M143.674,121.279c-0.606-0.159-1.483-0.303-2.2-0.303c-2.631,0-3.715,2.089-3.715,4.72
			c0,2.599,1.036,4.624,3.62,4.624c0.845,0,1.706-0.127,2.28-0.319c0.032,0.096,0.048,0.255,0.048,0.383
			c0,0.16-0.016,0.367-0.048,0.462c-0.574,0.191-1.387,0.351-2.312,0.351c-2.902,0-4.736-1.754-4.736-5.485
			c0-3.365,1.77-5.613,4.752-5.613c0.861,0,1.77,0.159,2.296,0.367c0.048,0.127,0.064,0.287,0.064,0.431
			C143.722,120.993,143.706,121.168,143.674,121.279z"/>
		<path style="fill:#58595B;" d="M148.329,131.198c-2.089,0-3.428-1.435-3.428-4.306c0-2.87,1.355-4.321,3.444-4.321
			s3.413,1.419,3.413,4.289S150.418,131.198,148.329,131.198z M148.345,123.353c-1.531,0-2.36,1.18-2.36,3.524
			c0,2.344,0.813,3.54,2.344,3.54s2.344-1.196,2.344-3.54C150.673,124.532,149.875,123.353,148.345,123.353z"/>
		<path style="fill:#58595B;" d="M159.84,131.054c-0.127,0.032-0.318,0.063-0.51,0.063c-0.16,0-0.367-0.032-0.527-0.08v-5.055
			c0-0.766-0.095-1.355-0.318-1.77c-0.271-0.51-0.781-0.765-1.61-0.765c-0.798,0-1.754,0.446-2.376,0.925v6.665
			c-0.176,0.048-0.351,0.08-0.542,0.08c-0.159,0-0.351-0.032-0.494-0.08v-8.308c0.111-0.048,0.303-0.064,0.415-0.064
			c0.158,0,0.35,0.016,0.445,0.064l0.08,0.829h0.016c0.877-0.717,1.882-0.988,2.695-0.988c0.812,0,1.658,0.271,2.121,0.829
			c0.51,0.606,0.605,1.483,0.605,2.344V131.054z"/>
		<path style="fill:#58595B;" d="M166.663,120.083c-0.239-0.063-0.67-0.127-1.005-0.127c-0.605,0-1.052,0.159-1.354,0.494
			c-0.463,0.495-0.543,1.164-0.543,2.009v0.271h2.249c0.031,0.08,0.063,0.271,0.063,0.383c0,0.127-0.032,0.319-0.063,0.431h-2.249
			v7.494c-0.144,0.048-0.303,0.08-0.51,0.08s-0.383-0.032-0.526-0.08v-7.494h-1.435c-0.032-0.08-0.048-0.287-0.048-0.383
			c0-0.08,0.016-0.255,0.048-0.335l1.435-0.096v-0.271c0-1.132,0.191-1.914,0.845-2.567c0.463-0.462,1.148-0.686,1.93-0.686
			c0.415,0,0.877,0.096,1.164,0.208c0.032,0.08,0.048,0.191,0.048,0.303C166.711,119.812,166.695,120.004,166.663,120.083z"/>
		<path style="fill:#58595B;" d="M173.726,127.881c0,2.424-1.004,3.317-3.109,3.317c-2.152,0-3.062-0.893-3.062-3.237v-5.23
			c0.144-0.048,0.335-0.08,0.511-0.08c0.223,0,0.398,0.048,0.526,0.08v5.103c0,1.547,0.239,2.567,2.041,2.567
			c1.689,0,2.057-0.989,2.057-2.599v-5.071c0.128-0.048,0.351-0.08,0.526-0.08c0.175,0,0.366,0.032,0.51,0.08V127.881z"/>
		<path style="fill:#58595B;" d="M181.075,123.735c-0.511-0.207-1.18-0.334-1.77-0.334c-2.073,0-2.839,1.61-2.839,3.556
			c0,1.914,0.733,3.396,2.822,3.396c0.559,0,1.228-0.096,1.723-0.239c0.031,0.096,0.063,0.207,0.063,0.335
			c0,0.191-0.032,0.335-0.08,0.446c-0.462,0.191-1.212,0.303-1.802,0.303c-2.599,0-3.811-1.707-3.811-4.21
			c0-2.599,1.323-4.417,3.858-4.417c0.606,0,1.323,0.143,1.818,0.367c0.048,0.127,0.063,0.255,0.063,0.398
			C181.123,123.496,181.107,123.624,181.075,123.735z"/>
		<path style="fill:#58595B;" d="M183.354,121.104c-0.366,0-0.67-0.319-0.67-0.702c0-0.382,0.304-0.686,0.67-0.686
			c0.367,0,0.686,0.303,0.686,0.686C184.04,120.785,183.722,121.104,183.354,121.104z M183.881,131.038
			c-0.144,0.048-0.351,0.08-0.526,0.08c-0.175,0-0.366-0.032-0.51-0.08v-8.308c0.127-0.032,0.335-0.08,0.494-0.08
			c0.175,0,0.414,0.032,0.542,0.08V131.038z"/>
		<path style="fill:#58595B;" d="M192.235,127.881c0,2.424-1.004,3.317-3.109,3.317c-2.152,0-3.062-0.893-3.062-3.237v-5.23
			c0.144-0.048,0.335-0.08,0.511-0.08c0.223,0,0.398,0.048,0.526,0.08v5.103c0,1.547,0.239,2.567,2.041,2.567
			c1.689,0,2.057-0.989,2.057-2.599v-5.071c0.128-0.048,0.351-0.08,0.526-0.08c0.175,0,0.366,0.032,0.51,0.08V127.881z"/>
		<path style="fill:#58595B;" d="M196.204,131.198c-0.797,0-1.626-0.144-2.2-0.367c-0.048-0.111-0.08-0.303-0.08-0.446
			c0-0.096,0.032-0.335,0.064-0.431c0.59,0.239,1.435,0.431,2.137,0.431c1.212,0,1.961-0.51,1.961-1.515
			c0-0.909-0.462-1.228-1.722-1.69c-1.754-0.638-2.328-1.371-2.328-2.456c0-1.467,1.212-2.152,2.774-2.152
			c0.526,0,1.212,0.095,1.61,0.223c0.048,0.144,0.063,0.287,0.063,0.382c0,0.128-0.031,0.351-0.063,0.463
			c-0.526-0.16-1.084-0.255-1.626-0.255c-1.133,0-1.818,0.431-1.818,1.308c0,0.765,0.431,1.132,1.738,1.626
			c1.195,0.446,2.296,0.893,2.296,2.503C199.011,130.448,197.783,131.198,196.204,131.198z"/>
	</g>
	<g>
		<path style="fill:#58595B;" d="M74.037,146.98h-5.868v-10.779h5.628c0.048,0.112,0.08,0.287,0.08,0.415
			c0,0.144-0.032,0.319-0.08,0.415h-4.544v3.955h3.923c0.032,0.08,0.08,0.287,0.08,0.415c0,0.128-0.032,0.303-0.08,0.431h-3.923
			v4.321h4.784c0.048,0.111,0.08,0.287,0.08,0.415C74.117,146.709,74.084,146.885,74.037,146.98z"/>
		<path style="fill:#58595B;" d="M81.673,147.06c-0.207,0-0.335-0.032-0.494-0.08c-0.096-0.431-0.191-0.75-0.51-1.18l-1.85-2.519
			l-1.961,2.615c-0.351,0.462-0.398,0.67-0.462,1.084c-0.175,0.048-0.367,0.08-0.51,0.08c-0.16,0-0.462-0.032-0.574-0.08
			c0.064-0.526,0.239-0.877,0.574-1.323l2.312-3.046l-1.977-2.615c-0.447-0.59-0.59-1.037-0.59-1.355
			c0.127-0.032,0.398-0.064,0.558-0.064c0.191,0,0.399,0.016,0.526,0.064c0.048,0.303,0.144,0.638,0.51,1.148l1.562,2.137
			l1.611-2.105c0.382-0.494,0.478-0.845,0.542-1.18c0.127-0.032,0.319-0.064,0.526-0.064c0.111,0,0.398,0.032,0.51,0.064
			c-0.016,0.446-0.239,0.861-0.59,1.339l-1.961,2.599l2.232,3.03c0.367,0.494,0.558,0.845,0.638,1.371
			C82.135,147.028,81.848,147.06,81.673,147.06z"/>
		<path style="fill:#58595B;" d="M88.832,139.677c-0.51-0.207-1.18-0.334-1.77-0.334c-2.073,0-2.838,1.61-2.838,3.556
			c0,1.914,0.733,3.396,2.822,3.396c0.558,0,1.228-0.096,1.722-0.239c0.032,0.096,0.064,0.207,0.064,0.335
			c0,0.191-0.032,0.335-0.08,0.446c-0.462,0.191-1.212,0.303-1.802,0.303c-2.599,0-3.811-1.707-3.811-4.21
			c0-2.599,1.323-4.417,3.858-4.417c0.606,0,1.324,0.143,1.818,0.367c0.048,0.127,0.064,0.255,0.064,0.398
			C88.879,139.438,88.863,139.566,88.832,139.677z"/>
		<path style="fill:#58595B;" d="M96.468,143.106h-5.342c0.064,1.833,0.925,3.221,2.918,3.221c0.718,0,1.387-0.096,1.977-0.239
			c0.032,0.08,0.064,0.239,0.064,0.335c0,0.16-0.032,0.303-0.08,0.415c-0.622,0.191-1.403,0.303-2.057,0.303
			c-1.26,0-2.216-0.399-2.806-1.037c-0.702-0.766-1.068-1.914-1.068-3.237c0-2.312,1.164-4.353,3.492-4.353
			c2.089,0,2.918,1.722,2.918,3.827C96.484,142.58,96.484,142.867,96.468,143.106z M95.448,142.34c0-1.467-0.16-3.045-1.93-3.045
			c-1.546,0-2.296,1.419-2.392,3.045H95.448z"/>
		<path style="fill:#58595B;" d="M99.289,146.98c-0.176,0.048-0.351,0.08-0.542,0.08c-0.159,0-0.351-0.032-0.494-0.08v-11.64
			c0.144-0.032,0.319-0.08,0.526-0.08c0.175,0,0.367,0.032,0.51,0.08V146.98z"/>
		<path style="fill:#58595B;" d="M102.557,146.98c-0.176,0.048-0.351,0.08-0.542,0.08c-0.159,0-0.351-0.032-0.494-0.08v-11.64
			c0.144-0.032,0.319-0.08,0.526-0.08c0.175,0,0.367,0.032,0.51,0.08V146.98z"/>
		<path style="fill:#58595B;" d="M110.688,143.106h-5.342c0.064,1.833,0.925,3.221,2.918,3.221c0.718,0,1.387-0.096,1.977-0.239
			c0.032,0.08,0.064,0.239,0.064,0.335c0,0.16-0.032,0.303-0.08,0.415c-0.622,0.191-1.403,0.303-2.057,0.303
			c-1.26,0-2.216-0.399-2.806-1.037c-0.702-0.766-1.068-1.914-1.068-3.237c0-2.312,1.164-4.353,3.492-4.353
			c2.089,0,2.918,1.722,2.918,3.827C110.704,142.58,110.704,142.867,110.688,143.106z M109.668,142.34
			c0-1.467-0.16-3.045-1.93-3.045c-1.546,0-2.296,1.419-2.392,3.045H109.668z"/>
		<path style="fill:#58595B;" d="M118.819,146.997c-0.127,0.032-0.319,0.063-0.51,0.063c-0.159,0-0.367-0.032-0.526-0.08v-5.055
			c0-0.766-0.095-1.355-0.319-1.77c-0.271-0.51-0.781-0.765-1.61-0.765c-0.797,0-1.754,0.446-2.376,0.925v6.665
			c-0.175,0.048-0.351,0.08-0.542,0.08c-0.16,0-0.351-0.032-0.494-0.08v-8.308c0.111-0.048,0.303-0.064,0.415-0.064
			c0.159,0,0.351,0.016,0.446,0.064l0.08,0.829h0.016c0.877-0.717,1.881-0.988,2.695-0.988c0.813,0,1.658,0.271,2.121,0.829
			c0.51,0.606,0.606,1.483,0.606,2.344V146.997z"/>
		<path style="fill:#58595B;" d="M126.169,139.677c-0.51-0.207-1.18-0.334-1.77-0.334c-2.073,0-2.838,1.61-2.838,3.556
			c0,1.914,0.733,3.396,2.822,3.396c0.558,0,1.228-0.096,1.722-0.239c0.032,0.096,0.064,0.207,0.064,0.335
			c0,0.191-0.032,0.335-0.08,0.446c-0.462,0.191-1.212,0.303-1.802,0.303c-2.599,0-3.811-1.707-3.811-4.21
			c0-2.599,1.323-4.417,3.858-4.417c0.606,0,1.324,0.143,1.818,0.367c0.048,0.127,0.064,0.255,0.064,0.398
			C126.217,139.438,126.201,139.566,126.169,139.677z"/>
		<path style="fill:#58595B;" d="M133.806,143.106h-5.342c0.064,1.833,0.925,3.221,2.918,3.221c0.718,0,1.387-0.096,1.977-0.239
			c0.032,0.08,0.064,0.239,0.064,0.335c0,0.16-0.032,0.303-0.08,0.415c-0.622,0.191-1.403,0.303-2.057,0.303
			c-1.26,0-2.216-0.399-2.806-1.037c-0.702-0.766-1.068-1.914-1.068-3.237c0-2.312,1.164-4.353,3.492-4.353
			c2.089,0,2.918,1.722,2.918,3.827C133.821,142.58,133.821,142.867,133.806,143.106z M132.785,142.34
			c0-1.467-0.16-3.045-1.93-3.045c-1.546,0-2.296,1.419-2.392,3.045H132.785z"/>
		<path style="fill:#58595B;" d="M147.054,146.98c-0.127,0.048-0.334,0.08-0.558,0.08c-0.191,0-0.43-0.032-0.574-0.08l-0.973-2.791
			H140.5l-0.941,2.807c-0.112,0.032-0.367,0.063-0.542,0.063c-0.191,0-0.399-0.032-0.558-0.08l3.667-10.779
			c0.175-0.048,0.382-0.08,0.542-0.08c0.175,0,0.367,0.032,0.51,0.08L147.054,146.98z M143.163,139.119
			c-0.159-0.43-0.351-1.052-0.494-1.61c-0.16,0.542-0.351,1.18-0.494,1.61l-1.403,4.226h3.875L143.163,139.119z"/>
		<path style="fill:#58595B;" d="M157.688,140.315l-2.137,6.665c-0.127,0.048-0.366,0.08-0.494,0.08
			c-0.143,0-0.383-0.032-0.494-0.08l-1.913-6.442h-0.032l-2.009,6.442c-0.144,0.048-0.367,0.08-0.494,0.08
			c-0.128,0-0.335-0.032-0.479-0.08l-1.977-6.569c-0.176-0.542-0.255-1.164-0.271-1.754c0.128-0.032,0.383-0.063,0.542-0.063
			c0.175,0,0.334,0.032,0.478,0.08c0.016,0.574,0.112,1.18,0.255,1.706l1.451,5.183h0.016l2.073-6.905
			c0.111-0.032,0.334-0.048,0.446-0.048s0.351,0.016,0.446,0.048l1.961,6.905h0.017l1.595-5.167c0.176-0.59,0.303-1.148,0.334-1.722
			c0.112-0.048,0.383-0.08,0.527-0.08c0.143,0,0.366,0.032,0.462,0.08C157.991,139.215,157.863,139.757,157.688,140.315z"/>
		<path style="fill:#58595B;" d="M165.196,144.939c0,0.574,0,1.292,0.032,2.041c-0.112,0.048-0.287,0.08-0.431,0.08
			c-0.128,0-0.303-0.032-0.431-0.08c-0.048-0.255-0.08-0.59-0.096-0.893h-0.016c-0.542,0.67-1.499,1.053-2.439,1.053
			c-1.483,0-2.727-0.83-2.727-2.536c0-0.973,0.398-1.69,1.02-2.137c0.702-0.494,1.627-0.654,2.615-0.654
			c0.559,0,1.021,0.032,1.436,0.096v-0.462c0-1.594-0.654-2.121-1.993-2.121c-0.75,0-1.675,0.16-2.249,0.303
			c-0.031-0.08-0.063-0.255-0.063-0.415c0-0.111,0.032-0.271,0.08-0.367c0.686-0.207,1.595-0.334,2.359-0.334
			c1.897,0,2.902,0.861,2.902,2.806V144.939z M164.16,142.691c-0.463-0.063-0.941-0.095-1.355-0.095
			c-0.781,0-1.483,0.143-1.961,0.51c-0.432,0.319-0.67,0.829-0.67,1.483c0,1.164,0.749,1.722,1.786,1.722
			c0.86,0,1.77-0.415,2.2-1.068V142.691z"/>
		<path style="fill:#58595B;" d="M171.111,139.438c-0.925,0.127-1.93,0.462-2.679,1.036v6.506c-0.16,0.048-0.352,0.08-0.526,0.08
			c-0.176,0-0.351-0.032-0.511-0.08v-8.308c0.096-0.032,0.239-0.064,0.399-0.064c0.127,0,0.303,0.032,0.43,0.064l0.08,1.021h0.016
			c0.686-0.59,1.882-1.084,2.791-1.18c0.031,0.095,0.063,0.271,0.063,0.415C171.175,139.087,171.143,139.295,171.111,139.438z"/>
		<path style="fill:#58595B;" d="M178.046,147.06c-0.144,0-0.318-0.048-0.414-0.08l-0.096-0.957h-0.017
			c-0.686,0.717-1.499,1.116-2.407,1.116c-2.201,0-3.253-1.834-3.253-4.066c0-2.216,0.94-4.56,3.476-4.56
			c0.798,0,1.531,0.271,2.121,0.686v-3.859c0.144-0.048,0.335-0.08,0.51-0.08c0.191,0,0.383,0.048,0.526,0.08v11.64
			C178.381,147.028,178.222,147.06,178.046,147.06z M177.456,140.076c-0.574-0.479-1.308-0.718-2.057-0.718
			c-1.85,0-2.472,1.818-2.472,3.667c0,1.419,0.446,3.269,2.232,3.269c0.86,0,1.737-0.431,2.296-1.101V140.076z"/>
		<path style="fill:#58595B;" d="M184.741,137.046c-0.366,0-0.67-0.319-0.67-0.702c0-0.382,0.304-0.686,0.67-0.686
			c0.367,0,0.686,0.303,0.686,0.686C185.427,136.728,185.108,137.046,184.741,137.046z M185.268,146.98
			c-0.144,0.048-0.351,0.08-0.526,0.08c-0.175,0-0.366-0.032-0.51-0.08v-8.308c0.127-0.032,0.335-0.08,0.494-0.08
			c0.175,0,0.414,0.032,0.542,0.08V146.98z"/>
		<path style="fill:#58595B;" d="M193.878,146.997c-0.128,0.032-0.319,0.063-0.511,0.063c-0.159,0-0.366-0.032-0.526-0.08v-5.055
			c0-0.766-0.096-1.355-0.318-1.77c-0.271-0.51-0.781-0.765-1.61-0.765c-0.798,0-1.755,0.446-2.376,0.925v6.665
			c-0.176,0.048-0.352,0.08-0.543,0.08c-0.159,0-0.351-0.032-0.494-0.08v-8.308c0.112-0.048,0.304-0.064,0.415-0.064
			c0.159,0,0.351,0.016,0.446,0.064l0.08,0.829h0.016c0.877-0.717,1.882-0.988,2.694-0.988c0.813,0,1.659,0.271,2.121,0.829
			c0.511,0.606,0.606,1.483,0.606,2.344V146.997z"/>
		<path style="fill:#58595B;" d="M202.933,143.775c-0.781,0.909-1.515,1.69-2.137,2.36h4.911c0.048,0.144,0.048,0.319,0.048,0.415
			c0,0.144-0.016,0.287-0.048,0.431h-6.012c-0.096-0.271-0.127-0.446-0.127-0.622c0-0.111,0-0.159,0.016-0.255
			c0.925-1.004,2.025-2.201,2.663-2.918c1.754-1.978,2.424-3.173,2.424-4.353c0-1.339-0.766-2.009-2.01-2.009
			c-0.845,0-1.833,0.255-2.615,0.606c-0.031-0.096-0.048-0.319-0.048-0.415c0-0.144,0.032-0.287,0.08-0.415
			c0.638-0.287,1.754-0.558,2.727-0.558c1.786,0,3.014,0.988,3.014,2.695C205.818,140.172,205.053,141.32,202.933,143.775z"/>
		<path style="fill:#58595B;" d="M211.062,147.14c-2.152,0-3.349-1.595-3.349-5.549s1.324-5.549,3.413-5.549
			c2.12,0,3.349,1.594,3.349,5.549S213.151,147.14,211.062,147.14z M211.127,136.823c-1.595,0-2.265,1.626-2.265,4.768
			s0.622,4.768,2.217,4.768c1.594,0,2.248-1.626,2.248-4.768S212.721,136.823,211.127,136.823z"/>
		<path style="fill:#58595B;" d="M220.82,146.98c-0.127,0.048-0.366,0.08-0.542,0.08s-0.414-0.032-0.542-0.08v-9.695l-2.791,1.77
			c-0.159-0.144-0.351-0.431-0.414-0.702l3.412-2.168c0.111-0.032,0.287-0.064,0.415-0.064c0.159,0,0.335,0.032,0.462,0.08V146.98z"
			/>
		<path style="fill:#58595B;" d="M231.327,137.046l-4.513,9.934c-0.128,0.048-0.367,0.08-0.574,0.08
			c-0.191,0-0.398-0.032-0.542-0.08l4.64-9.934h-5.421c-0.064-0.144-0.096-0.303-0.096-0.446c0-0.127,0.031-0.287,0.079-0.399h6.427
			c0.031,0.096,0.063,0.287,0.063,0.383C231.391,136.759,231.375,136.919,231.327,137.046z"/>
	</g>
</g>
</svg>
