<?xml version="1.0" encoding="utf-8"?>
<!-- Generator: Adobe Illustrator 16.0.0, SVG Export Plug-In . SVG Version: 6.00 Build 0)  -->
<!DOCTYPE svg PUBLIC "-//W3C//DTD SVG 1.0//EN" "http://www.w3.org/TR/2001/REC-SVG-20010904/DTD/svg10.dtd">
<svg version="1.0" xmlns="http://www.w3.org/2000/svg" xmlns:xlink="http://www.w3.org/1999/xlink" x="0px" y="0px" width="300px"
	 height="300px" viewBox="0 0 300 300" style="enable-background:new 0 0 300 300;" xml:space="preserve">
<g id="Text" style="display:none;">
	<text transform="matrix(1 0 0 1 105.2236 126.1064)" style="display:inline;"><tspan x="0" y="0" style="fill:#B3A068; font-family:'FSMatthew-Bold'; font-size:45.8362; letter-spacing:-1;">Ac</tspan><tspan x="49.181" y="0" style="fill:#B3A068; font-family:'FSMatthew-Bold'; font-size:45.8362; letter-spacing:-1;">h</tspan><tspan x="74.528" y="0" style="fill:#B3A068; font-family:'FSMatthew-Bold'; font-size:45.8362; letter-spacing:-1;">i</tspan><tspan x="85.849" y="0" style="fill:#B3A068; font-family:'FSMatthew-Bold'; font-size:45.8362; letter-spacing:-1;">e</tspan><tspan x="108.445" y="0" style="fill:#B3A068; font-family:'FSMatthew-Bold'; font-size:45.8362; letter-spacing:-1;">v</tspan><tspan x="131.088" y="0" style="fill:#B3A068; font-family:'FSMatthew-Bold'; font-size:45.8362; letter-spacing:-1;">e</tspan><tspan x="154.006" y="0" style="fill:#B3A068; font-family:'FSMatthew-Bold'; font-size:45.8362;">d </tspan></text>
	<text transform="matrix(1 0 0 1 93.4414 166.627)" style="display:inline;"><tspan x="0" y="0" style="fill:#B3A068; font-family:'FSMatthew-Bold'; font-size:45.8362; letter-spacing:-1;">c</tspan><tspan x="20.442" y="0" style="fill:#B3A068; font-family:'FSMatthew-Bold'; font-size:45.8362; letter-spacing:-1;">ha</tspan><tspan x="69.073" y="0" style="fill:#B3A068; font-family:'FSMatthew-Bold'; font-size:45.8362;">r</tspan><tspan x="86.537" y="0" style="fill:#B3A068; font-family:'FSMatthew-Bold'; font-size:45.8362; letter-spacing:-1;">t</tspan><tspan x="104.274" y="0" style="fill:#B3A068; font-family:'FSMatthew-Bold'; font-size:45.8362; letter-spacing:-1;">e</tspan><tspan x="127.192" y="0" style="fill:#B3A068; font-family:'FSMatthew-Bold'; font-size:45.8362; letter-spacing:-2;">r</tspan><tspan x="142.868" y="0" style="fill:#B3A068; font-family:'FSMatthew-Bold'; font-size:45.8362; letter-spacing:-1;">e</tspan><tspan x="165.785" y="0" style="fill:#B3A068; font-family:'FSMatthew-Bold'; font-size:45.8362;">d </tspan></text>
	<text transform="matrix(1 0 0 1 13.5957 207.1455)" style="display:inline;"><tspan x="0" y="0" style="fill:#B3A068; font-family:'FSMatthew-Bold'; font-size:45.8362; letter-spacing:-2;">s</tspan><tspan x="18.608" y="0" style="fill:#B3A068; font-family:'FSMatthew-Bold'; font-size:45.8362; letter-spacing:-1;">t</tspan><tspan x="36.622" y="0" style="fill:#B3A068; font-family:'FSMatthew-Bold'; font-size:45.8362; letter-spacing:-1;">a</tspan><tspan x="59.769" y="0" style="fill:#B3A068; font-family:'FSMatthew-Bold'; font-size:45.8362; letter-spacing:-1;">t</tspan><tspan x="77.461" y="0" style="fill:#B3A068; font-family:'FSMatthew-Bold'; font-size:45.8362; letter-spacing:-1;">u</tspan><tspan x="102.12" y="0" style="fill:#B3A068; font-family:'FSMatthew-Bold'; font-size:45.8362; letter-spacing:-1;">s</tspan><tspan x="121.463" y="0" style="fill:#B3A068; font-family:'FSMatthew-Bold'; font-size:45.8362; letter-spacing:-1;"> </tspan><tspan x="130.079" y="0" style="fill:#B3A068; font-family:'FSMatthew-Bold'; font-size:45.8362; letter-spacing:-1;">in</tspan><tspan x="166.655" y="0" style="fill:#B3A068; font-family:'FSMatthew-Bold'; font-size:45.8362; letter-spacing:-1;"> </tspan><tspan x="175.272" y="0" style="fill:#B3A068; font-family:'FSMatthew-Bold'; font-size:45.8362; letter-spacing:-1;">198</tspan><tspan x="246.638" y="0" style="fill:#B3A068; font-family:'FSMatthew-Bold'; font-size:45.8362;">4</tspan></text>
</g>
<g id="Text_Flat">
	<g>
		<path style="fill:#B3A068;" d="M134.651,126.106c-0.597,0.138-2.018,0.229-3.53,0.229c-1.191,0-2.566-0.137-3.162-0.229
			l-2.292-6.28h-11.001l-2.154,6.28c-1.009,0.138-2.2,0.229-3.393,0.229c-1.191,0-2.566-0.091-3.254-0.229l10.817-30.986
			c0.642-0.137,2.154-0.229,3.163-0.229c1.237,0,2.704,0.092,3.208,0.229L134.651,126.106z M123.696,114.372l-2.705-8.755
			c-0.32-1.008-0.642-2.292-0.917-3.713h-0.091c-0.229,1.421-0.597,2.705-0.917,3.713l-2.567,8.755H123.696z"/>
		<path style="fill:#B3A068;" d="M153.764,104.792c0,1.008-0.138,2.108-0.458,3.071c-1.513-0.596-3.483-0.963-5.363-0.963
			c-3.575,0-6.005,2.292-6.005,7.426c0,4.492,2.063,7.105,6.051,7.105c2.062,0,4.033-0.367,5.5-0.871
			c0.275,1.008,0.413,2.246,0.413,3.208c0,0.642,0,1.1-0.046,1.513c-1.834,0.825-4.263,1.284-6.555,1.284
			c-7.93,0-11.872-4.63-11.872-12.147c0-7.792,4.126-12.651,12.147-12.651c2.246,0,4.445,0.458,6.004,1.192
			C153.718,103.463,153.764,104.104,153.764,104.792z"/>
		<path style="fill:#B3A068;" d="M178.377,110.109v15.997c-0.733,0.184-2.292,0.229-3.025,0.229c-0.779,0-2.566-0.091-3.3-0.229
			v-15.63c0-2.476-1.283-3.576-3.347-3.576c-1.649,0-3.666,0.596-5.133,1.513v17.693c-1.055,0.184-2.521,0.229-3.347,0.229
			c-0.733,0-2.062-0.045-2.979-0.229V92.691c0.596-0.137,1.926-0.229,3.071-0.229s2.566,0.092,3.255,0.229v11.23
			c2.017-1.283,4.812-2.154,7.242-2.154C175.856,101.767,178.377,104.884,178.377,110.109z"/>
		<path style="fill:#B3A068;" d="M186.077,99.612c-1.925,0-3.483-1.559-3.483-3.483c0-1.925,1.559-3.484,3.483-3.484
			c1.926,0,3.484,1.559,3.484,3.484C189.562,98.054,188.003,99.612,186.077,99.612z M189.24,126.106
			c-0.825,0.184-2.521,0.229-3.254,0.229c-1.101,0-2.292-0.091-3.071-0.229v-23.881c1.008-0.137,2.246-0.229,3.071-0.229
			c1.1,0,2.245,0.092,3.254,0.229V126.106z"/>
		<path style="fill:#B3A068;" d="M213.716,116.389h-14.484c0.092,2.979,2.154,5.18,6.142,5.18c2.155,0,4.355-0.275,6.234-0.779
			c0.275,1.238,0.458,2.613,0.458,3.851c0,0.184,0,0.413-0.046,0.917c-2.337,0.688-4.767,1.008-7.15,1.008
			c-8.709,0-12.33-4.997-12.33-12.285c0-6.371,3.575-12.514,11.322-12.514c7.334,0,9.992,5.409,9.992,11.368
			C213.854,113.959,213.854,115.197,213.716,116.389z M207.528,111.851c0-2.888-0.779-5.317-3.759-5.317
			c-2.842,0-4.354,2.246-4.538,5.317H207.528z"/>
		<path style="fill:#B3A068;" d="M235.487,109.238l-6.875,16.868c-0.459,0.092-1.65,0.229-2.843,0.229
			c-1.237,0-2.566-0.137-3.116-0.229l-6.601-16.96c-0.871-2.292-1.283-4.538-1.283-6.921c0.824-0.137,1.971-0.229,2.934-0.229
			c1.329,0,2.245,0.092,2.979,0.229c0,1.696,0.229,3.575,0.825,5.363l4.218,12.102h0.091l4.354-12.102
			c0.597-1.788,0.825-3.346,0.825-5.363c0.642-0.092,2.018-0.229,3.025-0.229c1.009,0,2.062,0.092,2.796,0.229
			C236.816,104.792,236.358,107.13,235.487,109.238z"/>
		<path style="fill:#B3A068;" d="M258.955,116.389h-14.484c0.092,2.979,2.154,5.18,6.143,5.18c2.154,0,4.354-0.275,6.233-0.779
			c0.275,1.238,0.458,2.613,0.458,3.851c0,0.184,0,0.413-0.046,0.917c-2.337,0.688-4.767,1.008-7.15,1.008
			c-8.709,0-12.33-4.997-12.33-12.285c0-6.371,3.575-12.514,11.322-12.514c7.334,0,9.992,5.409,9.992,11.368
			C259.093,113.959,259.093,115.197,258.955,116.389z M252.768,111.851c0-2.888-0.779-5.317-3.759-5.317
			c-2.842,0-4.354,2.246-4.538,5.317H252.768z"/>
		<path style="fill:#B3A068;" d="M282.332,126.106c-0.734,0.138-1.972,0.229-2.934,0.229c-0.871,0-1.88-0.091-2.521-0.229
			l-0.184-2.108c-1.65,1.604-3.759,2.567-6.233,2.567c-6.83,0-9.764-5.455-9.764-12.009c0-7.059,3.163-12.789,10.451-12.789
			c1.787,0,3.851,0.55,4.858,1.192V92.691c0.825-0.137,2.2-0.229,3.209-0.229c1.237,0,2.2,0.137,3.117,0.229V126.106z
			 M276.006,107.68c-1.1-0.504-2.521-0.779-3.713-0.779c-3.713,0-5.088,3.3-5.088,7.288c0,3.346,0.825,7.151,4.538,7.151
			c1.788,0,3.163-0.733,4.263-1.65V107.68z"/>
	</g>
	<g>
		<path style="fill:#B3A068;" d="M113.243,145.312c0,1.008-0.138,2.108-0.459,3.071c-1.513-0.596-3.483-0.963-5.362-0.963
			c-3.575,0-6.005,2.292-6.005,7.426c0,4.492,2.062,7.104,6.051,7.104c2.062,0,4.033-0.366,5.5-0.87
			c0.275,1.008,0.413,2.245,0.413,3.208c0,0.642,0,1.101-0.046,1.513c-1.834,0.825-4.264,1.283-6.555,1.283
			c-7.931,0-11.872-4.629-11.872-12.146c0-7.792,4.125-12.651,12.146-12.651c2.246,0,4.446,0.458,6.005,1.192
			C113.197,143.983,113.243,144.625,113.243,145.312z"/>
		<path style="fill:#B3A068;" d="M137.856,150.63v15.997c-0.733,0.184-2.292,0.229-3.025,0.229c-0.779,0-2.566-0.092-3.3-0.229
			v-15.63c0-2.476-1.284-3.576-3.347-3.576c-1.65,0-3.667,0.596-5.134,1.513v17.693c-1.054,0.184-2.521,0.229-3.346,0.229
			c-0.733,0-2.062-0.046-2.979-0.229v-33.416c0.596-0.137,1.925-0.229,3.071-0.229c1.146,0,2.566,0.092,3.254,0.229v11.23
			c2.017-1.283,4.813-2.154,7.242-2.154C135.335,142.287,137.856,145.404,137.856,150.63z"/>
		<path style="fill:#B3A068;" d="M161.095,159.98c0,1.971,0.046,4.217,0.046,6.646c-0.733,0.184-1.971,0.229-2.75,0.229
			c-0.871,0-2.017-0.092-2.75-0.229c-0.092-0.55-0.184-1.513-0.229-2.108h-0.092c-1.559,1.604-4.217,2.566-6.646,2.566
			c-4.583,0-7.884-2.842-7.884-7.562c0-7.334,6.509-8.572,11.964-8.572c0.366,0,1.237,0.046,1.971,0.091
			c0-0.275-0.046-0.871-0.092-1.1c-0.321-1.879-1.559-2.659-4.217-2.659c-2.062,0-4.95,0.413-7.15,0.962
			c-0.229-0.642-0.367-1.742-0.367-2.567c0-0.688,0.092-1.742,0.275-2.2c2.566-0.779,5.729-1.192,8.342-1.192
			c5.729,0,9.58,2.659,9.58,8.618V159.98z M154.77,155.442c-0.55-0.046-1.283-0.092-1.926-0.092c-4.125,0-5.729,1.65-5.729,3.713
			c0,1.788,1.192,3.025,3.255,3.025c1.513,0,3.208-0.733,4.4-1.787V155.442z"/>
		<path style="fill:#B3A068;" d="M178.925,147.604c-2.384,0.367-4.951,1.192-7.243,2.383v16.639
			c-0.642,0.138-2.017,0.229-3.116,0.229c-1.101,0-2.705-0.092-3.209-0.229v-23.881c0.688-0.092,1.834-0.229,2.75-0.229
			c0.779,0,2.018,0.092,2.659,0.229l0.366,2.934c1.696-1.513,4.768-3.163,7.747-3.392c0.092,0.367,0.183,1.696,0.183,2.659
			C179.062,145.863,179.016,146.963,178.925,147.604z"/>
		<path style="fill:#B3A068;" d="M197.947,166.169c-1.376,0.55-3.025,0.916-5.685,0.916c-5.18,0-7.746-2.521-7.746-7.562v-12.056
			h-3.942c-0.184-0.688-0.32-1.833-0.32-2.429c0-0.55,0.137-1.559,0.274-2.017l3.988-0.275v-6.142
			c0.504-0.092,2.108-0.184,3.163-0.184c1.146,0,2.566,0.092,3.162,0.184v6.142h6.601c0.184,0.642,0.275,1.559,0.275,2.063
			c0,0.55-0.046,2.017-0.229,2.658h-6.646v11.139c0,2.292,0.917,3.3,3.163,3.3c1.237,0,2.75-0.183,3.805-0.55
			c0.183,0.596,0.412,1.742,0.412,2.796C198.222,164.702,198.13,165.664,197.947,166.169z"/>
		<path style="fill:#B3A068;" d="M220.359,156.909h-14.484c0.092,2.979,2.154,5.18,6.143,5.18c2.154,0,4.354-0.274,6.233-0.779
			c0.275,1.238,0.458,2.613,0.458,3.851c0,0.184,0,0.412-0.046,0.917c-2.337,0.688-4.767,1.008-7.15,1.008
			c-8.709,0-12.33-4.996-12.33-12.284c0-6.371,3.575-12.514,11.322-12.514c7.334,0,9.992,5.409,9.992,11.368
			C220.497,154.48,220.497,155.718,220.359,156.909z M214.172,152.371c0-2.887-0.779-5.317-3.759-5.317
			c-2.842,0-4.354,2.246-4.538,5.317H214.172z"/>
		<path style="fill:#B3A068;" d="M237.044,147.604c-2.384,0.367-4.951,1.192-7.243,2.383v16.639
			c-0.642,0.138-2.017,0.229-3.116,0.229c-1.101,0-2.705-0.092-3.209-0.229v-23.881c0.688-0.092,1.834-0.229,2.75-0.229
			c0.779,0,2.018,0.092,2.659,0.229l0.366,2.934c1.696-1.513,4.768-3.163,7.747-3.392c0.092,0.367,0.183,1.696,0.183,2.659
			C237.181,145.863,237.135,146.963,237.044,147.604z"/>
		<path style="fill:#B3A068;" d="M258.953,156.909h-14.484c0.092,2.979,2.154,5.18,6.143,5.18c2.154,0,4.354-0.274,6.233-0.779
			c0.275,1.238,0.458,2.613,0.458,3.851c0,0.184,0,0.412-0.046,0.917c-2.337,0.688-4.767,1.008-7.15,1.008
			c-8.709,0-12.33-4.996-12.33-12.284c0-6.371,3.575-12.514,11.322-12.514c7.334,0,9.992,5.409,9.992,11.368
			C259.091,154.48,259.091,155.718,258.953,156.909z M252.766,152.371c0-2.887-0.779-5.317-3.759-5.317
			c-2.842,0-4.354,2.246-4.538,5.317H252.766z"/>
		<path style="fill:#B3A068;" d="M282.328,166.627c-0.732,0.138-1.971,0.229-2.934,0.229c-0.87,0-1.879-0.092-2.521-0.229
			l-0.184-2.108c-1.65,1.604-3.759,2.566-6.233,2.566c-6.83,0-9.764-5.454-9.764-12.009c0-7.059,3.163-12.789,10.451-12.789
			c1.787,0,3.85,0.55,4.858,1.192v-10.268c0.825-0.137,2.2-0.229,3.209-0.229c1.237,0,2.2,0.137,3.116,0.229V166.627z
			 M276.003,148.2c-1.1-0.504-2.521-0.779-3.713-0.779c-3.713,0-5.088,3.3-5.088,7.288c0,3.347,0.825,7.15,4.538,7.15
			c1.787,0,3.163-0.732,4.263-1.649V148.2z"/>
	</g>
	<g>
		<path style="fill:#B3A068;" d="M23.496,207.604c-2.704,0-5.546-0.412-7.746-1.146c-0.138-0.688-0.184-1.559-0.184-2.476
			c0-0.733,0.184-1.787,0.367-2.429c2.108,0.733,5.134,1.237,6.921,1.237c2.476,0,3.896-0.825,3.896-2.521
			c0-1.467-1.146-2.154-4.172-3.116c-4.812-1.513-7.059-3.759-7.059-7.243c0-5.179,4.768-7.104,9.305-7.104
			c2.109,0,4.446,0.367,6.051,0.871c0.184,0.688,0.275,1.65,0.275,2.2c0,0.596-0.184,1.834-0.413,2.612
			c-1.559-0.458-3.713-0.824-5.5-0.824c-2.2,0-3.713,0.55-3.713,1.925c0,1.467,1.696,2.062,4.354,2.934
			c4.63,1.513,6.83,3.438,6.83,7.059C32.71,205.175,28.218,207.604,23.496,207.604z"/>
		<path style="fill:#B3A068;" d="M50.173,206.688c-1.375,0.55-3.025,0.916-5.685,0.916c-5.179,0-7.746-2.521-7.746-7.562v-12.056
			H32.8c-0.183-0.688-0.32-1.833-0.32-2.43c0-0.55,0.138-1.558,0.274-2.017l3.988-0.274v-6.143c0.504-0.092,2.108-0.184,3.163-0.184
			c1.146,0,2.566,0.092,3.162,0.184v6.143h6.601c0.184,0.642,0.275,1.558,0.275,2.062c0,0.55-0.046,2.017-0.229,2.658h-6.646v11.139
			c0,2.292,0.917,3.3,3.163,3.3c1.237,0,2.75-0.183,3.805-0.55c0.184,0.596,0.412,1.742,0.412,2.796
			C50.447,205.221,50.355,206.183,50.173,206.688z"/>
		<path style="fill:#B3A068;" d="M72.082,200.499c0,1.971,0.046,4.217,0.046,6.646c-0.733,0.184-1.971,0.229-2.75,0.229
			c-0.871,0-2.018-0.092-2.751-0.229c-0.092-0.55-0.183-1.513-0.229-2.108h-0.092c-1.559,1.604-4.217,2.566-6.646,2.566
			c-4.584,0-7.884-2.842-7.884-7.562c0-7.334,6.509-8.572,11.963-8.572c0.367,0,1.238,0.046,1.972,0.092
			c0-0.274-0.046-0.871-0.092-1.1c-0.321-1.88-1.559-2.659-4.218-2.659c-2.062,0-4.95,0.413-7.15,0.963
			c-0.229-0.642-0.366-1.742-0.366-2.566c0-0.688,0.092-1.742,0.274-2.2c2.567-0.779,5.73-1.192,8.343-1.192
			c5.729,0,9.58,2.659,9.58,8.617V200.499z M65.757,195.961c-0.551-0.046-1.284-0.092-1.926-0.092c-4.125,0-5.729,1.65-5.729,3.713
			c0,1.788,1.191,3.025,3.255,3.025c1.512,0,3.208-0.733,4.4-1.787V195.961z"/>
		<path style="fill:#B3A068;" d="M91.333,206.688c-1.375,0.55-3.025,0.916-5.685,0.916c-5.179,0-7.746-2.521-7.746-7.562v-12.056
			H73.96c-0.183-0.688-0.32-1.833-0.32-2.43c0-0.55,0.138-1.558,0.274-2.017l3.988-0.274v-6.143
			c0.504-0.092,2.108-0.184,3.163-0.184c1.146,0,2.566,0.092,3.162,0.184v6.143h6.601c0.184,0.642,0.275,1.558,0.275,2.062
			c0,0.55-0.046,2.017-0.229,2.658h-6.646v11.139c0,2.292,0.917,3.3,3.163,3.3c1.237,0,2.75-0.183,3.805-0.55
			c0.184,0.596,0.412,1.742,0.412,2.796C91.607,205.221,91.516,206.183,91.333,206.688z"/>
		<path style="fill:#B3A068;" d="M114.342,197.933c0,6.829-3.209,9.671-10.359,9.671c-6.967,0-10.176-2.842-10.176-9.671v-14.668
			c0.642-0.092,1.879-0.229,3.117-0.229c1.1,0,2.475,0.092,3.208,0.229v14.622c0,3.575,1.055,4.858,3.942,4.858
			c2.934,0,3.942-1.283,3.942-4.858v-14.622c0.642-0.138,2.062-0.229,3.208-0.229c1.146,0,2.659,0.138,3.117,0.229V197.933z"/>
		<path style="fill:#B3A068;" d="M125.617,207.604c-2.705,0-5.547-0.412-7.747-1.146c-0.138-0.688-0.183-1.559-0.183-2.476
			c0-0.733,0.183-1.787,0.366-2.429c2.108,0.733,5.134,1.237,6.922,1.237c2.475,0,3.896-0.825,3.896-2.521
			c0-1.467-1.146-2.154-4.171-3.116c-4.812-1.513-7.059-3.759-7.059-7.243c0-5.179,4.767-7.104,9.305-7.104
			c2.108,0,4.446,0.367,6.051,0.871c0.183,0.688,0.274,1.65,0.274,2.2c0,0.596-0.183,1.834-0.412,2.612
			c-1.559-0.458-3.713-0.824-5.501-0.824c-2.2,0-3.713,0.55-3.713,1.925c0,1.467,1.696,2.062,4.354,2.934
			c4.63,1.513,6.83,3.438,6.83,7.059C134.83,205.175,130.338,207.604,125.617,207.604z"/>
		<path style="fill:#B3A068;" d="M150.001,180.651c-1.926,0-3.484-1.559-3.484-3.483c0-1.926,1.559-3.483,3.484-3.483
			c1.925,0,3.483,1.558,3.483,3.483C153.484,179.093,151.926,180.651,150.001,180.651z M153.163,207.146
			c-0.825,0.184-2.521,0.229-3.254,0.229c-1.101,0-2.292-0.092-3.071-0.229v-23.881c1.009-0.138,2.246-0.229,3.071-0.229
			c1.1,0,2.245,0.092,3.254,0.229V207.146z"/>
		<path style="fill:#B3A068;" d="M178.832,207.146c-0.734,0.184-2.292,0.229-3.025,0.229c-0.779,0-2.567-0.092-3.301-0.229v-15.677
			c0-2.475-1.283-3.529-3.346-3.529c-1.65,0-3.529,0.596-4.996,1.513v17.693c-1.055,0.184-2.521,0.229-3.347,0.229
			c-0.733,0-2.062-0.046-2.979-0.229v-23.881c0.596-0.138,2.062-0.229,2.75-0.229c0.643,0,1.972,0.092,2.659,0.229l0.32,2.108
			c2.063-1.513,5.042-2.567,7.701-2.567c5.042,0,7.563,3.117,7.563,8.343V207.146z"/>
		<path style="fill:#B3A068;" d="M207.249,207.146c-0.688,0.138-1.925,0.229-3.255,0.229c-1.283,0-2.429-0.092-3.254-0.229v-23.698
			l-6.509,4.309c-1.559-1.421-2.659-3.346-3.071-4.996l10.771-6.601c0.642-0.138,1.971-0.229,2.659-0.229
			c0.778,0,2.2,0.137,2.658,0.229V207.146z"/>
		<path style="fill:#B3A068;" d="M222.374,207.604c-1.834,0-3.851-0.274-4.95-0.642c-0.184-0.642-0.229-1.787-0.229-2.292
			c0-0.87,0.138-2.062,0.32-2.75c1.284,0.321,2.751,0.55,4.538,0.55c3.621,0,6.417-3.07,6.692-7.517
			c-1.329,0.87-3.163,1.421-5.363,1.421c-5.958,0-9.075-4.126-9.075-9.764c0-5.959,4.033-10.909,10.496-10.909
			c8.847,0,11.047,6.967,11.047,13.797C235.85,198.299,232.412,207.604,222.374,207.604z M224.94,180.927
			c-2.384,0-4.033,1.879-4.033,5.408c0,3.255,1.283,5.042,3.987,5.042c1.467,0,3.393-0.778,4.218-1.649
			c0-0.229,0.046-0.871,0.046-1.192C229.158,185.235,228.883,180.927,224.94,180.927z"/>
		<path style="fill:#B3A068;" d="M249.05,207.604c-5.821,0-11.368-3.025-11.368-8.893c0-3.529,2.476-6.555,5.821-8.112
			c-2.429-1.467-4.537-3.759-4.537-6.646c0-5.088,4.767-8.297,10.176-8.297c5.316,0,9.946,2.796,9.946,7.655
			c0,3.116-2.108,5.546-4.676,7.013c3.484,1.559,5.913,4.263,5.913,7.746C260.325,204.258,254.688,207.604,249.05,207.604z
			 M248.774,193.395c-2.338,1.054-4.354,2.796-4.354,5.088c0,2.2,1.88,4.033,4.676,4.033c2.75,0,4.492-1.787,4.492-4.079
			S251.434,194.494,248.774,193.395z M249.05,180.651c-1.926,0-3.575,1.192-3.575,2.979c0,1.971,1.513,3.392,3.713,4.263
			c1.971-0.917,3.392-2.475,3.392-4.217C252.579,181.752,251.112,180.651,249.05,180.651z"/>
		<path style="fill:#B3A068;" d="M284.985,200.453h-4.033v6.692c-0.55,0.092-1.834,0.229-3.255,0.229
			c-1.329,0-2.384-0.092-3.117-0.229v-6.692h-13.384c-0.184-0.596-0.321-1.65-0.321-2.475c0-0.963,0.138-1.834,0.321-2.476
			l9.396-19.344c0.825-0.138,2.2-0.229,3.208-0.229c1.422,0,2.934,0.137,3.622,0.229l-9.397,18.886h6.555v-6.326
			c0.825-0.138,2.109-0.229,3.163-0.229c1.101,0,2.43,0.092,3.209,0.229v6.326h4.033c0.229,0.732,0.321,1.741,0.321,2.704
			C285.307,198.711,285.169,199.949,284.985,200.453z"/>
	</g>
</g>
</svg>
