<?xml version="1.0" encoding="utf-8"?>
<!-- Generator: Adobe Illustrator 16.0.0, SVG Export Plug-In . SVG Version: 6.00 Build 0)  -->
<!DOCTYPE svg PUBLIC "-//W3C//DTD SVG 1.1//EN" "http://www.w3.org/Graphics/SVG/1.1/DTD/svg11.dtd">
<svg version="1.1" id="Layer_1" xmlns="http://www.w3.org/2000/svg" xmlns:xlink="http://www.w3.org/1999/xlink" x="0px" y="0px"
	 width="300px" height="300px" viewBox="0 0 300 300" enable-background="new 0 0 300 300" xml:space="preserve">
<g>
	<path fill="#333333" d="M28.783,199.965c-0.147,0.037-0.369,0.074-0.591,0.074c-0.185,0-0.424-0.037-0.609-0.092v-5.854
		c0-0.887-0.11-1.568-0.369-2.049c-0.314-0.592-0.905-0.887-1.865-0.887c-0.923,0-2.031,0.518-2.751,1.07v7.719
		c-0.203,0.055-0.406,0.092-0.628,0.092c-0.185,0-0.406-0.037-0.572-0.092v-9.619c0.129-0.057,0.351-0.074,0.48-0.074
		c0.185,0,0.406,0.018,0.517,0.074l0.092,0.959h0.019c1.016-0.83,2.179-1.145,3.12-1.145c0.942,0,1.92,0.314,2.456,0.961
		c0.591,0.701,0.702,1.717,0.702,2.713V199.965z"/>
	<path fill="#333333" d="M38.328,196.291c0,2.807-1.163,3.84-3.6,3.84c-2.493,0-3.545-1.033-3.545-3.748v-6.055
		c0.166-0.057,0.388-0.094,0.591-0.094c0.258,0,0.461,0.057,0.609,0.094v5.908c0,1.791,0.277,2.973,2.363,2.973
		c1.957,0,2.381-1.145,2.381-3.01v-5.871c0.148-0.057,0.406-0.094,0.609-0.094s0.425,0.037,0.591,0.094V196.291z"/>
	<path fill="#333333" d="M45.084,191.213c-1.071,0.148-2.234,0.537-3.102,1.201v7.533c-0.185,0.055-0.406,0.092-0.609,0.092
		s-0.406-0.037-0.591-0.092v-9.619c0.111-0.037,0.277-0.074,0.462-0.074c0.147,0,0.351,0.037,0.498,0.074l0.093,1.182h0.018
		c0.794-0.684,2.179-1.256,3.231-1.367c0.037,0.111,0.074,0.314,0.074,0.48C45.158,190.807,45.121,191.047,45.084,191.213z"/>
	<path fill="#333333" d="M49.09,200.131c-0.923,0-1.883-0.166-2.548-0.424c-0.055-0.129-0.092-0.352-0.092-0.518
		c0-0.111,0.037-0.387,0.074-0.498c0.683,0.277,1.662,0.498,2.474,0.498c1.403,0,2.271-0.59,2.271-1.754
		c0-1.053-0.535-1.422-1.994-1.957c-2.031-0.738-2.696-1.588-2.696-2.844c0-1.697,1.403-2.492,3.212-2.492
		c0.609,0,1.403,0.111,1.865,0.258c0.056,0.168,0.074,0.334,0.074,0.443c0,0.148-0.037,0.406-0.074,0.535
		c-0.609-0.184-1.255-0.295-1.883-0.295c-1.311,0-2.105,0.498-2.105,1.514c0,0.887,0.499,1.312,2.012,1.885
		c1.385,0.516,2.659,1.033,2.659,2.898C52.34,199.264,50.918,200.131,49.09,200.131z"/>
	<path fill="#333333" d="M54.961,188.443c-0.425,0-0.776-0.369-0.776-0.811c0-0.443,0.351-0.795,0.776-0.795
		c0.424,0,0.793,0.352,0.793,0.795C55.754,188.074,55.385,188.443,54.961,188.443z M55.57,199.947
		c-0.166,0.055-0.406,0.092-0.609,0.092c-0.203,0-0.425-0.037-0.591-0.092v-9.619c0.147-0.037,0.388-0.094,0.572-0.094
		c0.203,0,0.48,0.037,0.627,0.094V199.947z"/>
	<path fill="#333333" d="M65.54,199.965c-0.147,0.037-0.369,0.074-0.591,0.074c-0.185,0-0.424-0.037-0.609-0.092v-5.854
		c0-0.887-0.11-1.568-0.369-2.049c-0.314-0.592-0.905-0.887-1.865-0.887c-0.923,0-2.031,0.518-2.751,1.07v7.719
		c-0.203,0.055-0.406,0.092-0.628,0.092c-0.185,0-0.406-0.037-0.572-0.092v-9.619c0.129-0.057,0.351-0.074,0.48-0.074
		c0.185,0,0.406,0.018,0.517,0.074l0.092,0.959h0.019c1.016-0.83,2.179-1.145,3.12-1.145c0.942,0,1.92,0.314,2.456,0.961
		c0.591,0.701,0.702,1.717,0.702,2.713V199.965z"/>
	<path fill="#333333" d="M74.955,198.34c0,1.385-0.074,3.047-0.739,4.191c-0.794,1.367-2.215,1.957-3.637,1.957
		c-0.812,0-1.514-0.092-2.105-0.295c-0.055-0.111-0.074-0.295-0.074-0.443c0-0.111,0.037-0.332,0.074-0.443
		c0.573,0.148,1.237,0.26,1.902,0.26c2.326,0,3.379-1.441,3.379-3.971v-0.775c-0.72,0.758-1.736,1.127-2.566,1.127
		c-2.456,0-3.729-1.902-3.729-4.58c0-3.285,1.938-5.225,4.8-5.225c0.757,0,1.902,0.223,2.696,0.535V198.34z M73.755,191.27
		c-0.665-0.186-1.145-0.24-1.606-0.24c-2.345,0-3.453,1.975-3.453,4.283c0,2.049,0.775,3.656,2.585,3.656
		c0.923,0,1.865-0.463,2.474-1.107V191.27z"/>
	<path fill="#333333" d="M88.099,197.584c0,0.664,0,1.494,0.037,2.363c-0.129,0.055-0.332,0.092-0.499,0.092
		c-0.147,0-0.351-0.037-0.499-0.092c-0.055-0.297-0.092-0.684-0.111-1.035H87.01c-0.628,0.775-1.736,1.219-2.825,1.219
		c-1.717,0-3.157-0.959-3.157-2.936c0-1.125,0.462-1.957,1.182-2.473c0.812-0.574,1.883-0.758,3.028-0.758
		c0.646,0,1.182,0.037,1.662,0.111v-0.535c0-1.848-0.757-2.457-2.308-2.457c-0.868,0-1.938,0.186-2.603,0.352
		c-0.037-0.092-0.074-0.295-0.074-0.48c0-0.129,0.037-0.314,0.092-0.424c0.794-0.24,1.847-0.389,2.733-0.389
		c2.197,0,3.36,0.998,3.36,3.25V197.584z M86.899,194.98c-0.536-0.074-1.089-0.111-1.569-0.111c-0.905,0-1.717,0.166-2.271,0.592
		c-0.499,0.369-0.775,0.959-0.775,1.717c0,1.348,0.868,1.994,2.068,1.994c0.997,0,2.049-0.48,2.548-1.238V194.98z"/>
	<path fill="#333333" d="M98.031,199.965c-0.147,0.037-0.369,0.074-0.591,0.074c-0.185,0-0.424-0.037-0.609-0.092v-5.854
		c0-0.887-0.11-1.568-0.369-2.049c-0.314-0.592-0.905-0.887-1.865-0.887c-0.923,0-2.031,0.518-2.751,1.07v7.719
		c-0.203,0.055-0.406,0.092-0.628,0.092c-0.185,0-0.406-0.037-0.572-0.092v-9.619c0.129-0.057,0.351-0.074,0.48-0.074
		c0.185,0,0.406,0.018,0.517,0.074l0.092,0.959h0.019c1.016-0.83,2.179-1.145,3.12-1.145c0.942,0,1.92,0.314,2.456,0.961
		c0.591,0.701,0.702,1.717,0.702,2.713V199.965z"/>
	<path fill="#333333" d="M107.114,200.039c-0.166,0-0.369-0.055-0.48-0.092l-0.111-1.107h-0.019
		c-0.794,0.83-1.735,1.291-2.788,1.291c-2.548,0-3.766-2.123-3.766-4.707c0-2.566,1.089-5.281,4.025-5.281
		c0.923,0,1.772,0.314,2.456,0.795v-4.469c0.166-0.055,0.388-0.092,0.591-0.092c0.222,0,0.443,0.055,0.609,0.092v13.479
		C107.502,200.002,107.317,200.039,107.114,200.039z M106.431,191.953c-0.665-0.555-1.514-0.832-2.382-0.832
		c-2.142,0-2.862,2.105-2.862,4.246c0,1.645,0.517,3.785,2.585,3.785c0.997,0,2.012-0.498,2.659-1.273V191.953z"/>
	<path fill="#333333" d="M127.569,199.965c-0.185,0.037-0.369,0.074-0.554,0.074c-0.222,0-0.425-0.055-0.646-0.092v-5.834
		c0-2.031-0.517-2.955-2.234-2.955c-0.886,0-2.068,0.461-2.806,0.998c0.147,0.516,0.185,1.088,0.185,1.66v6.131
		c-0.185,0.055-0.369,0.092-0.554,0.092c-0.24,0-0.462-0.037-0.646-0.092v-5.834c0-2.031-0.461-2.955-2.179-2.955
		c-0.923,0-2.012,0.518-2.732,1.07v7.719c-0.203,0.055-0.443,0.092-0.665,0.092c-0.185,0-0.388-0.037-0.536-0.092v-9.619
		c0.092-0.037,0.295-0.074,0.499-0.074c0.167,0,0.369,0.037,0.499,0.074l0.092,0.959h0.019c1.016-0.83,2.179-1.145,3.12-1.145
		c0.942,0,1.847,0.314,2.382,0.961c0.074,0.074,0.129,0.166,0.185,0.258c0.979-0.793,2.234-1.219,3.434-1.219
		c0.942,0,1.902,0.314,2.438,0.961c0.591,0.701,0.701,1.717,0.701,2.713V199.965z"/>
	<path fill="#333333" d="M130.688,188.443c-0.425,0-0.776-0.369-0.776-0.811c0-0.443,0.351-0.795,0.776-0.795
		c0.424,0,0.793,0.352,0.793,0.795C131.482,188.074,131.113,188.443,130.688,188.443z M131.297,199.947
		c-0.166,0.055-0.406,0.092-0.609,0.092c-0.203,0-0.425-0.037-0.591-0.092v-9.619c0.147-0.037,0.388-0.094,0.572-0.094
		c0.203,0,0.48,0.037,0.627,0.094V199.947z"/>
	<path fill="#333333" d="M140.511,200.039c-0.166,0-0.369-0.055-0.48-0.092l-0.111-1.107h-0.019
		c-0.794,0.83-1.735,1.291-2.788,1.291c-2.548,0-3.766-2.123-3.766-4.707c0-2.566,1.089-5.281,4.025-5.281
		c0.923,0,1.772,0.314,2.456,0.795v-4.469c0.166-0.055,0.388-0.092,0.591-0.092c0.222,0,0.443,0.055,0.609,0.092v13.479
		C140.898,200.002,140.714,200.039,140.511,200.039z M139.828,191.953c-0.665-0.555-1.514-0.832-2.382-0.832
		c-2.142,0-2.862,2.105-2.862,4.246c0,1.645,0.517,3.785,2.585,3.785c0.997,0,2.012-0.498,2.659-1.273V191.953z"/>
	<path fill="#333333" d="M154.727,192.229l-2.475,7.719c-0.147,0.055-0.424,0.092-0.572,0.092c-0.166,0-0.442-0.037-0.572-0.092
		l-2.215-7.459h-0.037l-2.326,7.459c-0.166,0.055-0.425,0.092-0.572,0.092c-0.148,0-0.388-0.037-0.554-0.092l-2.289-7.607
		c-0.203-0.627-0.295-1.348-0.314-2.031c0.147-0.037,0.443-0.074,0.627-0.074c0.203,0,0.388,0.037,0.554,0.094
		c0.019,0.664,0.129,1.365,0.295,1.975l1.68,6h0.018l2.4-7.994c0.129-0.037,0.388-0.055,0.517-0.055s0.406,0.018,0.517,0.055
		l2.271,7.994h0.019l1.847-5.98c0.203-0.684,0.351-1.33,0.388-1.994c0.129-0.057,0.443-0.094,0.609-0.094s0.425,0.037,0.535,0.094
		C155.077,190.955,154.93,191.582,154.727,192.229z"/>
	<path fill="#333333" d="M157.513,188.443c-0.425,0-0.775-0.369-0.775-0.811c0-0.443,0.351-0.795,0.775-0.795
		s0.794,0.352,0.794,0.795C158.307,188.074,157.938,188.443,157.513,188.443z M158.122,199.947
		c-0.166,0.055-0.406,0.092-0.609,0.092s-0.425-0.037-0.591-0.092v-9.619c0.148-0.037,0.388-0.094,0.572-0.094
		c0.203,0,0.48,0.037,0.628,0.094V199.947z"/>
	<path fill="#333333" d="M166.153,187.262c-0.277-0.072-0.775-0.146-1.163-0.146c-0.702,0-1.219,0.184-1.569,0.572
		c-0.535,0.572-0.628,1.348-0.628,2.326v0.314h2.604c0.037,0.092,0.073,0.312,0.073,0.443c0,0.146-0.036,0.369-0.073,0.498h-2.604
		v8.678c-0.166,0.055-0.351,0.092-0.591,0.092s-0.443-0.037-0.609-0.092v-8.678h-1.661c-0.037-0.092-0.056-0.332-0.056-0.443
		c0-0.092,0.019-0.295,0.056-0.389l1.661-0.109v-0.314c0-1.311,0.222-2.215,0.979-2.973c0.535-0.535,1.329-0.793,2.234-0.793
		c0.479,0,1.016,0.109,1.348,0.238c0.037,0.094,0.056,0.223,0.056,0.352C166.209,186.949,166.19,187.17,166.153,187.262z"/>
	<path fill="#333333" d="M173.557,195.461h-6.186c0.074,2.123,1.071,3.729,3.379,3.729c0.831,0,1.606-0.111,2.289-0.277
		c0.037,0.094,0.074,0.277,0.074,0.389c0,0.184-0.037,0.35-0.093,0.48c-0.72,0.221-1.624,0.35-2.381,0.35
		c-1.459,0-2.566-0.461-3.25-1.199c-0.812-0.887-1.237-2.217-1.237-3.748c0-2.678,1.348-5.041,4.044-5.041
		c2.419,0,3.379,1.994,3.379,4.432C173.575,194.852,173.575,195.184,173.557,195.461z M172.375,194.574
		c0-1.699-0.185-3.527-2.234-3.527c-1.791,0-2.658,1.645-2.77,3.527H172.375z"/>
	<path fill="#333333" d="M179.889,191.213c-1.071,0.148-2.234,0.537-3.102,1.201v7.533c-0.186,0.055-0.406,0.092-0.609,0.092
		s-0.406-0.037-0.591-0.092v-9.619c0.11-0.037,0.276-0.074,0.461-0.074c0.148,0,0.351,0.037,0.499,0.074l0.092,1.182h0.019
		c0.794-0.684,2.179-1.256,3.231-1.367c0.037,0.111,0.073,0.314,0.073,0.48C179.962,190.807,179.926,191.047,179.889,191.213z"/>
	<path fill="#333333" d="M188.916,198.34c0,1.791-0.073,3.066-0.72,4.211c-0.738,1.311-2.197,1.938-3.508,1.938
		c-0.96,0-1.625-0.092-2.216-0.295c-0.056-0.111-0.074-0.295-0.074-0.443c0-0.111,0.037-0.352,0.074-0.461
		c0.554,0.166,1.219,0.295,2.104,0.295c2.031,0,3.139-1.459,3.139-3.988v-0.646c-0.941,0.832-1.994,1.182-2.954,1.182
		c-1.033,0-1.846-0.258-2.363-0.885c-0.572-0.684-0.646-1.682-0.646-2.678v-6.24c0.147-0.037,0.388-0.094,0.572-0.094
		c0.222,0,0.461,0.057,0.628,0.094v6.037c0,0.887,0.073,1.625,0.405,2.123c0.296,0.424,0.776,0.646,1.496,0.646
		c1.145,0,2.234-0.609,2.861-1.219v-7.588c0.167-0.037,0.406-0.094,0.628-0.094c0.185,0,0.425,0.057,0.572,0.094V198.34z"/>
	<path fill="#333333" d="M201.543,191.49c-0.591-0.24-1.366-0.387-2.05-0.387c-2.4,0-3.286,1.863-3.286,4.117
		c0,2.215,0.85,3.932,3.268,3.932c0.646,0,1.422-0.109,1.994-0.277c0.037,0.111,0.074,0.24,0.074,0.389
		c0,0.221-0.037,0.387-0.093,0.518c-0.535,0.221-1.403,0.35-2.086,0.35c-3.01,0-4.413-1.975-4.413-4.873
		c0-3.01,1.533-5.115,4.469-5.115c0.701,0,1.532,0.166,2.104,0.426c0.056,0.146,0.074,0.295,0.074,0.461
		C201.599,191.213,201.58,191.361,201.543,191.49z"/>
	<path fill="#333333" d="M206.768,200.131c-2.419,0-3.97-1.662-3.97-4.984c0-3.324,1.569-5.004,3.988-5.004s3.951,1.643,3.951,4.967
		S209.187,200.131,206.768,200.131z M206.786,191.047c-1.772,0-2.732,1.367-2.732,4.08c0,2.715,0.941,4.1,2.714,4.1
		s2.714-1.385,2.714-4.1C209.481,192.414,208.559,191.047,206.786,191.047z"/>
	<path fill="#333333" d="M225.895,199.965c-0.185,0.037-0.369,0.074-0.554,0.074c-0.222,0-0.425-0.055-0.646-0.092v-5.834
		c0-2.031-0.518-2.955-2.234-2.955c-0.886,0-2.067,0.461-2.807,0.998c0.148,0.516,0.185,1.088,0.185,1.66v6.131
		c-0.185,0.055-0.369,0.092-0.554,0.092c-0.239,0-0.461-0.037-0.646-0.092v-5.834c0-2.031-0.462-2.955-2.179-2.955
		c-0.924,0-2.013,0.518-2.732,1.07v7.719c-0.203,0.055-0.443,0.092-0.665,0.092c-0.185,0-0.388-0.037-0.535-0.092v-9.619
		c0.092-0.037,0.295-0.074,0.498-0.074c0.166,0,0.369,0.037,0.499,0.074l0.092,0.959h0.019c1.016-0.83,2.179-1.145,3.12-1.145
		s1.847,0.314,2.382,0.961c0.074,0.074,0.129,0.166,0.185,0.258c0.979-0.793,2.234-1.219,3.435-1.219
		c0.941,0,1.901,0.314,2.437,0.961c0.591,0.701,0.702,1.717,0.702,2.713V199.965z"/>
	<path fill="#333333" d="M234.257,198.949c-0.721,0.646-1.847,0.998-2.917,0.998c-0.758,0-1.459-0.129-1.976-0.314v4.652
		c-0.186,0.057-0.352,0.092-0.609,0.092c-0.203,0-0.443-0.035-0.591-0.092v-13.957c0.092-0.037,0.313-0.074,0.498-0.074
		s0.351,0.037,0.48,0.074l0.11,1.016h0.019c0.701-0.74,1.754-1.201,2.825-1.201c1.163,0,2.196,0.498,2.843,1.422
		c0.535,0.775,0.868,1.883,0.868,3.23C235.808,196.643,235.235,198.064,234.257,198.949z M231.967,191.121
		c-0.979,0-1.957,0.406-2.603,1.219v6.352c0.479,0.221,1.218,0.352,1.846,0.352c1.994,0,3.342-1.312,3.342-4.191
		C234.552,192.58,233.666,191.121,231.967,191.121z"/>
	<path fill="#333333" d="M244.485,195.461H238.3c0.074,2.123,1.071,3.729,3.379,3.729c0.831,0,1.606-0.111,2.289-0.277
		c0.037,0.094,0.074,0.277,0.074,0.389c0,0.184-0.037,0.35-0.093,0.48c-0.72,0.221-1.624,0.35-2.381,0.35
		c-1.459,0-2.566-0.461-3.25-1.199c-0.812-0.887-1.237-2.217-1.237-3.748c0-2.678,1.349-5.041,4.044-5.041
		c2.419,0,3.379,1.994,3.379,4.432C244.504,194.852,244.504,195.184,244.485,195.461z M243.304,194.574
		c0-1.699-0.185-3.527-2.234-3.527c-1.791,0-2.658,1.645-2.77,3.527H243.304z"/>
	<path fill="#333333" d="M251.444,199.854c-0.48,0.168-1.2,0.277-1.736,0.277c-1.827,0-2.695-0.867-2.695-2.916v-5.945h-1.661
		c-0.037-0.092-0.056-0.314-0.056-0.426c0-0.092,0.019-0.312,0.056-0.406l1.661-0.109v-2.512c0.147-0.055,0.388-0.092,0.591-0.092
		s0.462,0.037,0.609,0.092v2.512h2.714c0.037,0.092,0.074,0.369,0.074,0.461c0,0.129-0.037,0.352-0.074,0.48h-2.714v5.834
		c0,1.459,0.425,2.068,1.569,2.068c0.628,0,1.237-0.094,1.662-0.223c0.036,0.094,0.073,0.314,0.073,0.443
		C251.518,199.559,251.499,199.688,251.444,199.854z"/>
	<path fill="#333333" d="M259.457,195.461h-6.186c0.074,2.123,1.071,3.729,3.379,3.729c0.831,0,1.606-0.111,2.289-0.277
		c0.037,0.094,0.074,0.277,0.074,0.389c0,0.184-0.037,0.35-0.093,0.48c-0.72,0.221-1.624,0.35-2.381,0.35
		c-1.459,0-2.566-0.461-3.25-1.199c-0.812-0.887-1.237-2.217-1.237-3.748c0-2.678,1.348-5.041,4.044-5.041
		c2.419,0,3.379,1.994,3.379,4.432C259.476,194.852,259.476,195.184,259.457,195.461z M258.275,194.574
		c0-1.699-0.185-3.527-2.234-3.527c-1.791,0-2.658,1.645-2.77,3.527H258.275z"/>
	<path fill="#333333" d="M268.706,199.965c-0.147,0.037-0.369,0.074-0.591,0.074c-0.185,0-0.425-0.037-0.609-0.092v-5.854
		c0-0.887-0.11-1.568-0.369-2.049c-0.313-0.592-0.904-0.887-1.864-0.887c-0.924,0-2.031,0.518-2.751,1.07v7.719
		c-0.203,0.055-0.406,0.092-0.628,0.092c-0.185,0-0.406-0.037-0.572-0.092v-9.619c0.129-0.057,0.351-0.074,0.479-0.074
		c0.185,0,0.406,0.018,0.518,0.074l0.092,0.959h0.019c1.016-0.83,2.179-1.145,3.12-1.145s1.92,0.314,2.456,0.961
		c0.591,0.701,0.701,1.717,0.701,2.713V199.965z"/>
	<path fill="#333333" d="M277.05,191.49c-0.591-0.24-1.366-0.387-2.05-0.387c-2.4,0-3.286,1.863-3.286,4.117
		c0,2.215,0.85,3.932,3.268,3.932c0.646,0,1.422-0.109,1.994-0.277c0.037,0.111,0.074,0.24,0.074,0.389
		c0,0.221-0.037,0.387-0.093,0.518c-0.535,0.221-1.403,0.35-2.086,0.35c-3.01,0-4.413-1.975-4.413-4.873
		c0-3.01,1.533-5.115,4.469-5.115c0.701,0,1.532,0.166,2.104,0.426c0.056,0.146,0.074,0.295,0.074,0.461
		C277.105,191.213,277.087,191.361,277.05,191.49z"/>
	<path fill="#333333" d="M285.728,195.461h-6.186c0.074,2.123,1.071,3.729,3.379,3.729c0.831,0,1.606-0.111,2.289-0.277
		c0.037,0.094,0.074,0.277,0.074,0.389c0,0.184-0.037,0.35-0.093,0.48c-0.72,0.221-1.624,0.35-2.381,0.35
		c-1.459,0-2.566-0.461-3.25-1.199c-0.812-0.887-1.237-2.217-1.237-3.748c0-2.678,1.349-5.041,4.044-5.041
		c2.419,0,3.379,1.994,3.379,4.432C285.746,194.852,285.746,195.184,285.728,195.461z M284.546,194.574
		c0-1.699-0.185-3.527-2.234-3.527c-1.791,0-2.658,1.645-2.77,3.527H284.546z"/>
</g>
<g>
	<path fill="#333333" d="M26.512,222.414c-0.48,0.168-1.2,0.277-1.735,0.277c-1.828,0-2.696-0.867-2.696-2.916v-5.945h-1.662
		c-0.037-0.092-0.055-0.314-0.055-0.426c0-0.092,0.019-0.312,0.055-0.406l1.662-0.109v-2.512c0.148-0.055,0.388-0.092,0.591-0.092
		s0.462,0.037,0.609,0.092v2.512h2.714c0.037,0.092,0.074,0.369,0.074,0.461c0,0.129-0.037,0.352-0.074,0.48h-2.714v5.834
		c0,1.459,0.425,2.068,1.569,2.068c0.628,0,1.237-0.094,1.662-0.223c0.037,0.094,0.074,0.314,0.074,0.443
		C26.586,222.119,26.568,222.248,26.512,222.414z"/>
	<path fill="#333333" d="M34.524,218.021h-6.185c0.074,2.123,1.071,3.729,3.379,3.729c0.831,0,1.606-0.111,2.29-0.277
		c0.037,0.094,0.074,0.277,0.074,0.389c0,0.184-0.037,0.35-0.092,0.48c-0.72,0.221-1.625,0.35-2.382,0.35
		c-1.458,0-2.566-0.461-3.25-1.199c-0.812-0.887-1.237-2.217-1.237-3.748c0-2.678,1.348-5.041,4.043-5.041
		c2.418,0,3.378,1.994,3.378,4.432C34.543,217.412,34.543,217.744,34.524,218.021z M33.343,217.135c0-1.699-0.185-3.527-2.234-3.527
		c-1.791,0-2.659,1.645-2.77,3.527H33.343z"/>
	<path fill="#333333" d="M38.53,222.691c-0.923,0-1.883-0.166-2.548-0.424c-0.055-0.129-0.092-0.352-0.092-0.518
		c0-0.111,0.037-0.387,0.074-0.498c0.683,0.277,1.662,0.498,2.474,0.498c1.403,0,2.271-0.59,2.271-1.754
		c0-1.053-0.535-1.422-1.994-1.957c-2.031-0.738-2.696-1.588-2.696-2.844c0-1.697,1.403-2.492,3.212-2.492
		c0.609,0,1.403,0.111,1.865,0.258c0.056,0.168,0.074,0.334,0.074,0.443c0,0.148-0.037,0.406-0.074,0.535
		c-0.609-0.184-1.255-0.295-1.883-0.295c-1.311,0-2.105,0.498-2.105,1.514c0,0.887,0.499,1.312,2.012,1.885
		c1.385,0.516,2.659,1.033,2.659,2.898C41.78,221.824,40.358,222.691,38.53,222.691z"/>
	<path fill="#333333" d="M48.518,222.414c-0.48,0.168-1.2,0.277-1.735,0.277c-1.828,0-2.696-0.867-2.696-2.916v-5.945h-1.662
		c-0.037-0.092-0.055-0.314-0.055-0.426c0-0.092,0.019-0.312,0.055-0.406l1.662-0.109v-2.512c0.148-0.055,0.388-0.092,0.591-0.092
		s0.462,0.037,0.609,0.092v2.512h2.714c0.037,0.092,0.074,0.369,0.074,0.461c0,0.129-0.037,0.352-0.074,0.48h-2.714v5.834
		c0,1.459,0.425,2.068,1.569,2.068c0.628,0,1.237-0.094,1.662-0.223c0.037,0.094,0.074,0.314,0.074,0.443
		C48.592,222.119,48.574,222.248,48.518,222.414z"/>
	<path fill="#333333" d="M60.075,214.051c-0.591-0.24-1.366-0.387-2.049-0.387c-2.4,0-3.287,1.863-3.287,4.117
		c0,2.215,0.849,3.932,3.268,3.932c0.646,0,1.421-0.109,1.994-0.277c0.037,0.111,0.074,0.24,0.074,0.389
		c0,0.221-0.037,0.387-0.092,0.518c-0.536,0.221-1.403,0.35-2.086,0.35c-3.01,0-4.413-1.975-4.413-4.873
		c0-3.01,1.532-5.115,4.468-5.115c0.702,0,1.533,0.166,2.105,0.426c0.055,0.146,0.074,0.295,0.074,0.461
		C60.13,213.773,60.111,213.922,60.075,214.051z"/>
	<path fill="#333333" d="M68.752,218.021h-6.186c0.074,2.123,1.071,3.729,3.379,3.729c0.831,0,1.606-0.111,2.29-0.277
		c0.037,0.094,0.074,0.277,0.074,0.389c0,0.184-0.037,0.35-0.092,0.48c-0.72,0.221-1.625,0.35-2.382,0.35
		c-1.458,0-2.566-0.461-3.25-1.199c-0.812-0.887-1.237-2.217-1.237-3.748c0-2.678,1.348-5.041,4.043-5.041
		c2.418,0,3.378,1.994,3.378,4.432C68.77,217.412,68.77,217.744,68.752,218.021z M67.57,217.135c0-1.699-0.185-3.527-2.234-3.527
		c-1.791,0-2.659,1.645-2.77,3.527H67.57z"/>
	<path fill="#333333" d="M78.001,222.525c-0.147,0.037-0.369,0.074-0.591,0.074c-0.185,0-0.424-0.037-0.609-0.092v-5.854
		c0-0.887-0.11-1.568-0.369-2.049c-0.314-0.592-0.905-0.887-1.865-0.887c-0.923,0-2.031,0.518-2.751,1.07v7.719
		c-0.203,0.055-0.406,0.092-0.628,0.092c-0.185,0-0.406-0.037-0.572-0.092v-9.619c0.129-0.057,0.351-0.074,0.48-0.074
		c0.185,0,0.406,0.018,0.517,0.074l0.092,0.959h0.019c1.016-0.83,2.179-1.145,3.12-1.145c0.942,0,1.92,0.314,2.456,0.961
		c0.591,0.701,0.702,1.717,0.702,2.713V222.525z"/>
	<path fill="#333333" d="M85.403,222.414c-0.48,0.168-1.2,0.277-1.735,0.277c-1.828,0-2.696-0.867-2.696-2.916v-5.945h-1.662
		c-0.037-0.092-0.055-0.314-0.055-0.426c0-0.092,0.019-0.312,0.055-0.406l1.662-0.109v-2.512c0.148-0.055,0.388-0.092,0.591-0.092
		s0.462,0.037,0.609,0.092v2.512h2.714c0.037,0.092,0.074,0.369,0.074,0.461c0,0.129-0.037,0.352-0.074,0.48h-2.714v5.834
		c0,1.459,0.425,2.068,1.569,2.068c0.628,0,1.237-0.094,1.662-0.223c0.037,0.094,0.074,0.314,0.074,0.443
		C85.478,222.119,85.459,222.248,85.403,222.414z"/>
	<path fill="#333333" d="M91.312,213.773c-1.071,0.148-2.234,0.537-3.102,1.201v7.533c-0.185,0.055-0.406,0.092-0.609,0.092
		s-0.406-0.037-0.591-0.092v-9.619c0.111-0.037,0.277-0.074,0.462-0.074c0.147,0,0.351,0.037,0.499,0.074l0.092,1.182h0.018
		c0.794-0.684,2.179-1.256,3.231-1.367c0.037,0.111,0.074,0.314,0.074,0.48C91.385,213.367,91.348,213.607,91.312,213.773z"/>
	<path fill="#333333" d="M99.397,218.021h-6.186c0.074,2.123,1.071,3.729,3.379,3.729c0.831,0,1.606-0.111,2.29-0.277
		c0.037,0.094,0.074,0.277,0.074,0.389c0,0.184-0.037,0.35-0.092,0.48c-0.72,0.221-1.625,0.35-2.382,0.35
		c-1.458,0-2.566-0.461-3.25-1.199c-0.812-0.887-1.237-2.217-1.237-3.748c0-2.678,1.348-5.041,4.043-5.041
		c2.418,0,3.378,1.994,3.378,4.432C99.416,217.412,99.416,217.744,99.397,218.021z M98.216,217.135c0-1.699-0.185-3.527-2.234-3.527
		c-1.791,0-2.659,1.645-2.77,3.527H98.216z"/>
	<path fill="#333333" d="M103.385,222.691c-0.923,0-1.883-0.166-2.548-0.424c-0.055-0.129-0.092-0.352-0.092-0.518
		c0-0.111,0.037-0.387,0.074-0.498c0.683,0.277,1.662,0.498,2.474,0.498c1.403,0,2.271-0.59,2.271-1.754
		c0-1.053-0.535-1.422-1.994-1.957c-2.031-0.738-2.696-1.588-2.696-2.844c0-1.697,1.403-2.492,3.212-2.492
		c0.609,0,1.403,0.111,1.865,0.258c0.056,0.168,0.074,0.334,0.074,0.443c0,0.148-0.037,0.406-0.074,0.535
		c-0.609-0.184-1.255-0.295-1.883-0.295c-1.311,0-2.105,0.498-2.105,1.514c0,0.887,0.499,1.312,2.013,1.885
		c1.384,0.516,2.658,1.033,2.658,2.898C106.634,221.824,105.212,222.691,103.385,222.691z"/>
	<path fill="#333333" d="M112.947,211.004c-0.425,0-0.776-0.369-0.776-0.811c0-0.443,0.351-0.795,0.776-0.795
		c0.424,0,0.793,0.352,0.793,0.795C113.741,210.635,113.372,211.004,112.947,211.004z M113.556,222.508
		c-0.166,0.055-0.406,0.092-0.609,0.092c-0.203,0-0.425-0.037-0.591-0.092v-9.619c0.147-0.037,0.388-0.094,0.572-0.094
		c0.203,0,0.48,0.037,0.627,0.094V222.508z"/>
	<path fill="#333333" d="M123.526,222.525c-0.147,0.037-0.369,0.074-0.591,0.074c-0.185,0-0.424-0.037-0.609-0.092v-5.854
		c0-0.887-0.11-1.568-0.369-2.049c-0.314-0.592-0.905-0.887-1.865-0.887c-0.923,0-2.031,0.518-2.751,1.07v7.719
		c-0.203,0.055-0.406,0.092-0.628,0.092c-0.185,0-0.406-0.037-0.572-0.092v-9.619c0.129-0.057,0.351-0.074,0.48-0.074
		c0.185,0,0.406,0.018,0.517,0.074l0.092,0.959h0.019c1.016-0.83,2.179-1.145,3.12-1.145c0.942,0,1.92,0.314,2.456,0.961
		c0.591,0.701,0.702,1.717,0.702,2.713V222.525z"/>
	<path fill="#333333" d="M135.156,222.414c-0.48,0.168-1.2,0.277-1.735,0.277c-1.828,0-2.696-0.867-2.696-2.916v-5.945h-1.662
		c-0.037-0.092-0.055-0.314-0.055-0.426c0-0.092,0.019-0.312,0.055-0.406l1.662-0.109v-2.512c0.148-0.055,0.388-0.092,0.591-0.092
		s0.462,0.037,0.609,0.092v2.512h2.714c0.037,0.092,0.074,0.369,0.074,0.461c0,0.129-0.037,0.352-0.074,0.48h-2.714v5.834
		c0,1.459,0.425,2.068,1.569,2.068c0.628,0,1.237-0.094,1.662-0.223c0.037,0.094,0.074,0.314,0.074,0.443
		C135.23,222.119,135.212,222.248,135.156,222.414z"/>
	<path fill="#333333" d="M144.332,222.508c-0.166,0.055-0.369,0.092-0.554,0.092c-0.222,0-0.461-0.037-0.646-0.092v-5.834
		c0-2.031-0.517-2.955-2.234-2.955c-0.923,0-2.031,0.518-2.751,1.07v7.719c-0.203,0.055-0.425,0.092-0.628,0.092
		c-0.185,0-0.406-0.037-0.572-0.092v-13.479c0.167-0.055,0.425-0.092,0.591-0.092c0.167,0,0.443,0.037,0.609,0.092v4.744
		c0.979-0.756,2.142-1.07,3.046-1.07c0.942,0,1.902,0.314,2.437,0.961c0.591,0.701,0.702,1.717,0.702,2.713V222.508z"/>
	<path fill="#333333" d="M153.654,218.021h-6.185c0.074,2.123,1.071,3.729,3.379,3.729c0.831,0,1.606-0.111,2.29-0.277
		c0.037,0.094,0.073,0.277,0.073,0.389c0,0.184-0.036,0.35-0.092,0.48c-0.72,0.221-1.625,0.35-2.382,0.35
		c-1.458,0-2.566-0.461-3.25-1.199c-0.812-0.887-1.237-2.217-1.237-3.748c0-2.678,1.348-5.041,4.043-5.041
		c2.418,0,3.378,1.994,3.378,4.432C153.673,217.412,153.673,217.744,153.654,218.021z M152.473,217.135
		c0-1.699-0.185-3.527-2.234-3.527c-1.791,0-2.659,1.645-2.77,3.527H152.473z"/>
	<path fill="#333333" d="M161.241,218.242c0,1.219,0.203,2.143,0.738,2.732c0.462,0.498,1.163,0.795,2.216,0.795
		s1.772-0.297,2.234-0.795c0.535-0.59,0.738-1.514,0.738-2.732v-8.217c0.166-0.055,0.462-0.092,0.628-0.092
		c0.185,0,0.461,0.037,0.628,0.092v8.033c0,1.643-0.314,2.787-1.09,3.562c-0.683,0.684-1.717,1.07-3.139,1.07
		s-2.438-0.387-3.12-1.07c-0.775-0.775-1.09-1.92-1.09-3.562v-8.033c0.148-0.055,0.406-0.092,0.628-0.092s0.443,0.037,0.628,0.092
		V218.242z"/>
	<path fill="#333333" d="M179.648,222.508c-0.148,0.055-0.443,0.092-0.665,0.092s-0.48-0.018-0.794-0.092l-4.117-6.131l-1.329,1.496
		v4.635c-0.148,0.055-0.443,0.092-0.646,0.092s-0.462-0.037-0.609-0.092v-12.482c0.147-0.055,0.406-0.092,0.609-0.092
		s0.498,0.037,0.646,0.092v6.26l3.933-4.506c0.554-0.627,0.849-1.236,0.941-1.754c0.166-0.018,0.406-0.055,0.591-0.055
		s0.479,0.037,0.609,0.055c-0.037,0.592-0.406,1.385-1.163,2.254l-2.77,3.193L179.648,222.508z"/>
	<path fill="#333333" d="M180.81,225.369c-0.11-0.092-0.259-0.314-0.313-0.461c0.757-0.609,1.329-1.293,1.514-2.051
		c-0.388-0.203-0.701-0.59-0.701-1.07c0-0.518,0.406-0.904,0.867-0.904c0.591,0,1.016,0.535,1.016,1.182
		C183.191,223.098,182.342,224.408,180.81,225.369z"/>
	<path fill="#333333" d="M195.967,220.145c0,0.664,0,1.494,0.037,2.363c-0.129,0.055-0.332,0.092-0.498,0.092
		c-0.148,0-0.352-0.037-0.499-0.092c-0.056-0.297-0.092-0.684-0.11-1.035h-0.019c-0.628,0.775-1.735,1.219-2.825,1.219
		c-1.717,0-3.157-0.959-3.157-2.936c0-1.125,0.462-1.957,1.182-2.473c0.812-0.574,1.884-0.758,3.028-0.758
		c0.646,0,1.182,0.037,1.661,0.111v-0.535c0-1.848-0.757-2.457-2.308-2.457c-0.868,0-1.938,0.186-2.604,0.352
		c-0.037-0.092-0.073-0.295-0.073-0.48c0-0.129,0.036-0.314,0.092-0.424c0.794-0.24,1.847-0.389,2.732-0.389
		c2.197,0,3.36,0.998,3.36,3.25V220.145z M194.767,217.541c-0.535-0.074-1.089-0.111-1.569-0.111c-0.904,0-1.717,0.166-2.271,0.592
		c-0.499,0.369-0.775,0.959-0.775,1.717c0,1.348,0.867,1.994,2.067,1.994c0.997,0,2.05-0.48,2.548-1.238V217.541z"/>
	<path fill="#333333" d="M204.607,221.51c-0.721,0.646-1.847,0.998-2.918,0.998c-0.757,0-1.458-0.129-1.975-0.314v4.652
		c-0.186,0.057-0.352,0.092-0.609,0.092c-0.203,0-0.443-0.035-0.591-0.092v-13.957c0.092-0.037,0.313-0.074,0.498-0.074
		s0.351,0.037,0.48,0.074l0.11,1.016h0.019c0.701-0.74,1.754-1.201,2.825-1.201c1.163,0,2.197,0.498,2.843,1.422
		c0.536,0.775,0.868,1.883,0.868,3.23C206.158,219.203,205.586,220.625,204.607,221.51z M202.317,213.682
		c-0.979,0-1.957,0.406-2.603,1.219v6.352c0.479,0.221,1.218,0.352,1.846,0.352c1.994,0,3.342-1.312,3.342-4.191
		C204.902,215.141,204.017,213.682,202.317,213.682z"/>
	<path fill="#333333" d="M214.226,221.51c-0.721,0.646-1.847,0.998-2.917,0.998c-0.758,0-1.459-0.129-1.976-0.314v4.652
		c-0.186,0.057-0.352,0.092-0.609,0.092c-0.203,0-0.443-0.035-0.591-0.092v-13.957c0.092-0.037,0.313-0.074,0.498-0.074
		s0.351,0.037,0.48,0.074l0.11,1.016h0.019c0.701-0.74,1.754-1.201,2.825-1.201c1.163,0,2.196,0.498,2.843,1.422
		c0.535,0.775,0.868,1.883,0.868,3.23C215.776,219.203,215.204,220.625,214.226,221.51z M211.936,213.682
		c-0.979,0-1.957,0.406-2.603,1.219v6.352c0.479,0.221,1.218,0.352,1.846,0.352c1.994,0,3.342-1.312,3.342-4.191
		C214.521,215.141,213.635,213.682,211.936,213.682z"/>
	<path fill="#333333" d="M221.185,222.691c-2.419,0-3.97-1.662-3.97-4.984c0-3.324,1.569-5.004,3.988-5.004s3.951,1.643,3.951,4.967
		S223.604,222.691,221.185,222.691z M221.203,213.607c-1.772,0-2.732,1.367-2.732,4.08c0,2.715,0.941,4.1,2.714,4.1
		s2.714-1.385,2.714-4.1C223.898,214.975,222.976,213.607,221.203,213.607z"/>
	<path fill="#333333" d="M227.794,211.004c-0.425,0-0.775-0.369-0.775-0.811c0-0.443,0.351-0.795,0.775-0.795
		s0.794,0.352,0.794,0.795C228.588,210.635,228.219,211.004,227.794,211.004z M228.403,222.508
		c-0.166,0.055-0.406,0.092-0.609,0.092s-0.425-0.037-0.591-0.092v-9.619c0.148-0.037,0.388-0.094,0.572-0.094
		c0.203,0,0.48,0.037,0.628,0.094V222.508z"/>
	<path fill="#333333" d="M238.373,222.525c-0.147,0.037-0.369,0.074-0.591,0.074c-0.185,0-0.425-0.037-0.609-0.092v-5.854
		c0-0.887-0.11-1.568-0.369-2.049c-0.313-0.592-0.904-0.887-1.864-0.887c-0.924,0-2.031,0.518-2.751,1.07v7.719
		c-0.203,0.055-0.406,0.092-0.628,0.092c-0.185,0-0.406-0.037-0.572-0.092v-9.619c0.129-0.057,0.351-0.074,0.479-0.074
		c0.185,0,0.406,0.018,0.518,0.074l0.092,0.959h0.019c1.016-0.83,2.179-1.145,3.12-1.145s1.92,0.314,2.456,0.961
		c0.591,0.701,0.701,1.717,0.701,2.713V222.525z"/>
	<path fill="#333333" d="M245.942,222.414c-0.48,0.168-1.2,0.277-1.736,0.277c-1.827,0-2.695-0.867-2.695-2.916v-5.945h-1.661
		c-0.037-0.092-0.056-0.314-0.056-0.426c0-0.092,0.019-0.312,0.056-0.406l1.661-0.109v-2.512c0.147-0.055,0.388-0.092,0.591-0.092
		s0.462,0.037,0.609,0.092v2.512h2.714c0.037,0.092,0.074,0.369,0.074,0.461c0,0.129-0.037,0.352-0.074,0.48h-2.714v5.834
		c0,1.459,0.425,2.068,1.569,2.068c0.628,0,1.237-0.094,1.662-0.223c0.036,0.094,0.073,0.314,0.073,0.443
		C246.016,222.119,245.997,222.248,245.942,222.414z"/>
	<path fill="#333333" d="M254.157,218.021h-6.186c0.074,2.123,1.071,3.729,3.379,3.729c0.831,0,1.606-0.111,2.289-0.277
		c0.037,0.094,0.074,0.277,0.074,0.389c0,0.184-0.037,0.35-0.093,0.48c-0.72,0.221-1.624,0.35-2.381,0.35
		c-1.459,0-2.566-0.461-3.25-1.199c-0.812-0.887-1.237-2.217-1.237-3.748c0-2.678,1.349-5.041,4.044-5.041
		c2.419,0,3.379,1.994,3.379,4.432C254.176,217.412,254.176,217.744,254.157,218.021z M252.976,217.135
		c0-1.699-0.185-3.527-2.234-3.527c-1.791,0-2.658,1.645-2.77,3.527H252.976z"/>
	<path fill="#333333" d="M262.815,222.6c-0.166,0-0.369-0.055-0.48-0.092l-0.11-1.107h-0.019c-0.794,0.83-1.735,1.291-2.788,1.291
		c-2.548,0-3.767-2.123-3.767-4.707c0-2.566,1.09-5.281,4.025-5.281c0.923,0,1.772,0.314,2.455,0.795v-4.469
		c0.167-0.055,0.388-0.092,0.591-0.092c0.222,0,0.443,0.055,0.609,0.092v13.479C263.203,222.562,263.019,222.6,262.815,222.6z
		 M262.132,214.514c-0.664-0.555-1.514-0.832-2.381-0.832c-2.143,0-2.862,2.105-2.862,4.246c0,1.645,0.517,3.785,2.585,3.785
		c0.997,0,2.013-0.498,2.658-1.273V214.514z"/>
	<path fill="#333333" d="M272.858,222.691c-0.85,0-1.939-0.129-2.954-0.498v-13.164c0.129-0.037,0.406-0.092,0.572-0.092
		c0.295,0,0.517,0.055,0.628,0.092v4.672c0.757-0.629,1.717-0.998,2.732-0.998c2.603,0,3.692,2.234,3.692,4.727
		C277.529,220.605,275.904,222.691,272.858,222.691z M273.67,213.738c-0.923,0-1.846,0.387-2.565,1.107v6.627
		c0.498,0.186,1.126,0.297,1.661,0.297c2.566,0,3.508-1.957,3.508-4.266C276.273,215.713,275.757,213.738,273.67,213.738z"/>
	<path fill="#333333" d="M286.686,220.9c0,1.791-0.073,3.066-0.72,4.211c-0.738,1.311-2.197,1.938-3.508,1.938
		c-0.96,0-1.625-0.092-2.216-0.295c-0.056-0.111-0.074-0.295-0.074-0.443c0-0.111,0.037-0.352,0.074-0.461
		c0.554,0.166,1.219,0.295,2.104,0.295c2.031,0,3.139-1.459,3.139-3.988v-0.646c-0.941,0.832-1.994,1.182-2.954,1.182
		c-1.033,0-1.846-0.258-2.363-0.885c-0.572-0.684-0.646-1.682-0.646-2.678v-6.24c0.147-0.037,0.388-0.094,0.572-0.094
		c0.222,0,0.461,0.057,0.628,0.094v6.037c0,0.887,0.073,1.625,0.405,2.123c0.296,0.424,0.776,0.646,1.496,0.646
		c1.145,0,2.234-0.609,2.861-1.219v-7.588c0.167-0.037,0.406-0.094,0.628-0.094c0.185,0,0.425,0.057,0.572,0.094V220.9z"/>
</g>
<g>
	<path fill="#333333" d="M26.512,244.975c-0.48,0.168-1.2,0.277-1.735,0.277c-1.828,0-2.696-0.867-2.696-2.916v-5.945h-1.662
		c-0.037-0.092-0.055-0.314-0.055-0.426c0-0.092,0.019-0.312,0.055-0.406l1.662-0.109v-2.512c0.148-0.055,0.388-0.092,0.591-0.092
		s0.462,0.037,0.609,0.092v2.512h2.714c0.037,0.092,0.074,0.369,0.074,0.461c0,0.129-0.037,0.352-0.074,0.48h-2.714v5.834
		c0,1.459,0.425,2.068,1.569,2.068c0.628,0,1.237-0.094,1.662-0.223c0.037,0.094,0.074,0.314,0.074,0.443
		C26.586,244.68,26.568,244.809,26.512,244.975z"/>
	<path fill="#333333" d="M35.688,245.068c-0.166,0.055-0.369,0.092-0.554,0.092c-0.222,0-0.461-0.037-0.646-0.092v-5.834
		c0-2.031-0.517-2.955-2.234-2.955c-0.923,0-2.031,0.518-2.751,1.07v7.719c-0.203,0.055-0.425,0.092-0.628,0.092
		c-0.185,0-0.406-0.037-0.572-0.092V231.59c0.167-0.055,0.425-0.092,0.591-0.092c0.167,0,0.443,0.037,0.609,0.092v4.744
		c0.979-0.756,2.142-1.07,3.046-1.07c0.942,0,1.902,0.314,2.437,0.961c0.591,0.701,0.702,1.717,0.702,2.713V245.068z"/>
	<path fill="#333333" d="M45.011,240.582h-6.186c0.074,2.123,1.071,3.729,3.379,3.729c0.831,0,1.606-0.111,2.29-0.277
		c0.037,0.094,0.074,0.277,0.074,0.389c0,0.184-0.037,0.35-0.092,0.48c-0.72,0.221-1.625,0.35-2.382,0.35
		c-1.458,0-2.566-0.461-3.25-1.199c-0.812-0.887-1.237-2.217-1.237-3.748c0-2.678,1.348-5.041,4.043-5.041
		c2.418,0,3.378,1.994,3.378,4.432C45.029,239.973,45.029,240.305,45.011,240.582z M43.829,239.695c0-1.699-0.185-3.527-2.234-3.527
		c-1.791,0-2.659,1.645-2.77,3.527H43.829z"/>
	<path fill="#333333" d="M60.555,245.068c-0.092,0.037-0.332,0.074-0.499,0.074c-0.129,0-0.313-0.037-0.461-0.074L52.542,234.6
		v10.469c-0.129,0.055-0.37,0.092-0.573,0.092c-0.185,0-0.406-0.037-0.554-0.092v-12.482c0.148-0.055,0.388-0.092,0.554-0.092
		c0.203,0,0.388,0.037,0.517,0.092l6.942,10.285v-10.285c0.185-0.055,0.388-0.092,0.572-0.092c0.166,0,0.388,0.037,0.554,0.092
		V245.068z"/>
	<path fill="#333333" d="M70.468,241.412c0,2.807-1.163,3.84-3.6,3.84c-2.493,0-3.545-1.033-3.545-3.748v-6.055
		c0.166-0.057,0.388-0.094,0.591-0.094c0.258,0,0.461,0.057,0.609,0.094v5.908c0,1.791,0.277,2.973,2.363,2.973
		c1.957,0,2.381-1.145,2.381-3.01v-5.871c0.148-0.057,0.406-0.094,0.609-0.094s0.425,0.037,0.591,0.094V241.412z"/>
	<path fill="#333333" d="M77.226,236.334c-1.071,0.148-2.234,0.537-3.102,1.201v7.533c-0.185,0.055-0.406,0.092-0.609,0.092
		s-0.406-0.037-0.591-0.092v-9.619c0.111-0.037,0.277-0.074,0.462-0.074c0.147,0,0.351,0.037,0.499,0.074l0.092,1.182h0.018
		c0.794-0.684,2.179-1.256,3.231-1.367c0.037,0.111,0.074,0.314,0.074,0.48C77.299,235.928,77.262,236.168,77.226,236.334z"/>
	<path fill="#333333" d="M81.231,245.252c-0.923,0-1.883-0.166-2.548-0.424c-0.055-0.129-0.092-0.352-0.092-0.518
		c0-0.111,0.037-0.387,0.074-0.498c0.683,0.277,1.662,0.498,2.474,0.498c1.403,0,2.271-0.59,2.271-1.754
		c0-1.053-0.535-1.422-1.994-1.957c-2.031-0.738-2.696-1.588-2.696-2.844c0-1.697,1.403-2.492,3.212-2.492
		c0.609,0,1.403,0.111,1.865,0.258c0.056,0.168,0.074,0.334,0.074,0.443c0,0.148-0.037,0.406-0.074,0.535
		c-0.609-0.184-1.255-0.295-1.883-0.295c-1.311,0-2.105,0.498-2.105,1.514c0,0.887,0.499,1.312,2.013,1.885
		c1.384,0.516,2.658,1.033,2.658,2.898C84.48,244.385,83.059,245.252,81.231,245.252z"/>
	<path fill="#333333" d="M87.102,233.564c-0.424,0-0.775-0.369-0.775-0.811c0-0.443,0.351-0.795,0.775-0.795
		c0.425,0,0.794,0.352,0.794,0.795C87.896,233.195,87.526,233.564,87.102,233.564z M87.711,245.068
		c-0.166,0.055-0.406,0.092-0.609,0.092c-0.203,0-0.424-0.037-0.591-0.092v-9.619c0.148-0.037,0.388-0.094,0.573-0.094
		c0.203,0,0.48,0.037,0.627,0.094V245.068z"/>
	<path fill="#333333" d="M97.681,245.086c-0.147,0.037-0.369,0.074-0.591,0.074c-0.185,0-0.424-0.037-0.609-0.092v-5.854
		c0-0.887-0.11-1.568-0.369-2.049c-0.314-0.592-0.905-0.887-1.865-0.887c-0.923,0-2.031,0.518-2.751,1.07v7.719
		c-0.203,0.055-0.406,0.092-0.628,0.092c-0.185,0-0.406-0.037-0.572-0.092v-9.619c0.129-0.057,0.351-0.074,0.48-0.074
		c0.185,0,0.406,0.018,0.517,0.074l0.092,0.959h0.019c1.016-0.83,2.179-1.145,3.12-1.145c0.942,0,1.92,0.314,2.456,0.961
		c0.591,0.701,0.702,1.717,0.702,2.713V245.086z"/>
	<path fill="#333333" d="M107.096,243.461c0,1.385-0.074,3.047-0.739,4.191c-0.794,1.367-2.215,1.957-3.637,1.957
		c-0.812,0-1.514-0.092-2.105-0.295c-0.055-0.111-0.074-0.295-0.074-0.443c0-0.111,0.037-0.332,0.074-0.443
		c0.573,0.148,1.237,0.26,1.902,0.26c2.326,0,3.379-1.441,3.379-3.971v-0.775c-0.72,0.758-1.736,1.127-2.566,1.127
		c-2.456,0-3.729-1.902-3.729-4.58c0-3.285,1.938-5.225,4.8-5.225c0.757,0,1.902,0.223,2.696,0.535V243.461z M105.896,236.391
		c-0.665-0.186-1.145-0.24-1.606-0.24c-2.345,0-3.453,1.975-3.453,4.283c0,2.049,0.775,3.656,2.585,3.656
		c0.923,0,1.865-0.463,2.474-1.107V236.391z"/>
	<path fill="#333333" d="M120.24,242.705c0,0.664,0,1.494,0.037,2.363c-0.129,0.055-0.333,0.092-0.499,0.092
		c-0.147,0-0.351-0.037-0.499-0.092c-0.055-0.297-0.092-0.684-0.111-1.035h-0.018c-0.628,0.775-1.736,1.219-2.825,1.219
		c-1.717,0-3.157-0.959-3.157-2.936c0-1.125,0.462-1.957,1.182-2.473c0.812-0.574,1.883-0.758,3.028-0.758
		c0.646,0,1.182,0.037,1.662,0.111v-0.535c0-1.848-0.757-2.457-2.308-2.457c-0.868,0-1.938,0.186-2.603,0.352
		c-0.037-0.092-0.074-0.295-0.074-0.48c0-0.129,0.037-0.314,0.092-0.424c0.794-0.24,1.847-0.389,2.733-0.389
		c2.197,0,3.36,0.998,3.36,3.25V242.705z M119.04,240.102c-0.536-0.074-1.089-0.111-1.569-0.111c-0.905,0-1.717,0.166-2.271,0.592
		c-0.499,0.369-0.775,0.959-0.775,1.717c0,1.348,0.868,1.994,2.068,1.994c0.997,0,2.049-0.48,2.548-1.238V240.102z"/>
	<path fill="#333333" d="M130.172,245.086c-0.147,0.037-0.369,0.074-0.591,0.074c-0.185,0-0.424-0.037-0.609-0.092v-5.854
		c0-0.887-0.11-1.568-0.369-2.049c-0.314-0.592-0.905-0.887-1.865-0.887c-0.923,0-2.031,0.518-2.751,1.07v7.719
		c-0.203,0.055-0.406,0.092-0.628,0.092c-0.185,0-0.406-0.037-0.572-0.092v-9.619c0.129-0.057,0.351-0.074,0.48-0.074
		c0.185,0,0.406,0.018,0.517,0.074l0.092,0.959h0.019c1.016-0.83,2.179-1.145,3.12-1.145c0.942,0,1.92,0.314,2.456,0.961
		c0.591,0.701,0.702,1.717,0.702,2.713V245.086z"/>
	<path fill="#333333" d="M139.255,245.16c-0.166,0-0.369-0.055-0.48-0.092l-0.111-1.107h-0.019c-0.794,0.83-1.735,1.291-2.788,1.291
		c-2.548,0-3.766-2.123-3.766-4.707c0-2.566,1.089-5.281,4.025-5.281c0.923,0,1.772,0.314,2.456,0.795v-4.469
		c0.166-0.055,0.388-0.092,0.591-0.092c0.222,0,0.443,0.055,0.609,0.092v13.479C139.643,245.123,139.458,245.16,139.255,245.16z
		 M138.572,237.074c-0.665-0.555-1.514-0.832-2.382-0.832c-2.142,0-2.862,2.105-2.862,4.246c0,1.645,0.517,3.785,2.585,3.785
		c0.997,0,2.012-0.498,2.659-1.273V237.074z"/>
	<path fill="#333333" d="M158.049,245.068c-0.166,0.055-0.406,0.092-0.609,0.092s-0.479-0.055-0.646-0.092l-0.277-10.654
		c-0.24,0.721-0.812,2.143-1.2,3.084l-2.585,6.389c-0.129,0.018-0.369,0.055-0.479,0.055c-0.111,0-0.352-0.037-0.48-0.055
		l-2.659-6.426c-0.499-1.199-0.905-2.197-1.126-2.898l-0.259,10.506c-0.185,0.055-0.48,0.092-0.665,0.092
		c-0.166,0-0.461-0.037-0.591-0.092l0.443-12.482c0.148-0.055,0.573-0.092,0.702-0.092c0.203,0,0.517,0.037,0.683,0.092l3.97,9.693
		l3.858-9.693c0.203-0.055,0.628-0.092,0.757-0.092c0.166,0,0.572,0.037,0.757,0.092L158.049,245.068z"/>
	<path fill="#333333" d="M161.353,233.564c-0.425,0-0.775-0.369-0.775-0.811c0-0.443,0.351-0.795,0.775-0.795
		s0.794,0.352,0.794,0.795C162.146,233.195,161.777,233.564,161.353,233.564z M161.962,245.068
		c-0.166,0.055-0.406,0.092-0.609,0.092s-0.425-0.037-0.591-0.092v-9.619c0.148-0.037,0.388-0.094,0.572-0.094
		c0.203,0,0.48,0.037,0.628,0.094V245.068z"/>
	<path fill="#333333" d="M171.175,245.16c-0.166,0-0.369-0.055-0.48-0.092l-0.11-1.107h-0.019c-0.794,0.83-1.735,1.291-2.788,1.291
		c-2.548,0-3.767-2.123-3.767-4.707c0-2.566,1.09-5.281,4.025-5.281c0.923,0,1.772,0.314,2.455,0.795v-4.469
		c0.167-0.055,0.388-0.092,0.591-0.092c0.222,0,0.443,0.055,0.609,0.092v13.479C171.562,245.123,171.378,245.16,171.175,245.16z
		 M170.491,237.074c-0.664-0.555-1.514-0.832-2.381-0.832c-2.143,0-2.862,2.105-2.862,4.246c0,1.645,0.517,3.785,2.585,3.785
		c0.997,0,2.013-0.498,2.658-1.273V237.074z"/>
	<path fill="#333333" d="M185.391,237.35l-2.475,7.719c-0.147,0.055-0.424,0.092-0.572,0.092c-0.166,0-0.442-0.037-0.572-0.092
		l-2.216-7.459h-0.036l-2.327,7.459c-0.166,0.055-0.424,0.092-0.572,0.092c-0.147,0-0.388-0.037-0.554-0.092l-2.289-7.607
		c-0.203-0.627-0.296-1.348-0.314-2.031c0.148-0.037,0.443-0.074,0.628-0.074c0.203,0,0.388,0.037,0.554,0.094
		c0.019,0.664,0.13,1.365,0.296,1.975l1.68,6h0.019l2.4-7.994c0.129-0.037,0.388-0.055,0.517-0.055c0.13,0,0.406,0.018,0.518,0.055
		l2.271,7.994h0.019l1.847-5.98c0.203-0.684,0.351-1.33,0.388-1.994c0.129-0.057,0.443-0.094,0.609-0.094s0.425,0.037,0.535,0.094
		C185.741,236.076,185.594,236.703,185.391,237.35z"/>
	<path fill="#333333" d="M188.177,233.564c-0.425,0-0.775-0.369-0.775-0.811c0-0.443,0.351-0.795,0.775-0.795
		s0.794,0.352,0.794,0.795C188.971,233.195,188.602,233.564,188.177,233.564z M188.786,245.068
		c-0.166,0.055-0.406,0.092-0.609,0.092s-0.425-0.037-0.591-0.092v-9.619c0.148-0.037,0.388-0.094,0.572-0.094
		c0.203,0,0.48,0.037,0.628,0.094V245.068z"/>
	<path fill="#333333" d="M196.817,232.383c-0.277-0.072-0.775-0.146-1.163-0.146c-0.702,0-1.219,0.184-1.569,0.572
		c-0.535,0.572-0.628,1.348-0.628,2.326v0.314h2.604c0.037,0.092,0.073,0.312,0.073,0.443c0,0.146-0.036,0.369-0.073,0.498h-2.604
		v8.678c-0.166,0.055-0.351,0.092-0.591,0.092s-0.443-0.037-0.609-0.092v-8.678h-1.661c-0.037-0.092-0.056-0.332-0.056-0.443
		c0-0.092,0.019-0.295,0.056-0.389l1.661-0.109v-0.314c0-1.311,0.222-2.215,0.979-2.973c0.535-0.535,1.329-0.793,2.234-0.793
		c0.479,0,1.016,0.109,1.348,0.238c0.037,0.094,0.056,0.223,0.056,0.352C196.873,232.07,196.854,232.291,196.817,232.383z"/>
	<path fill="#333333" d="M204.221,240.582h-6.186c0.074,2.123,1.071,3.729,3.379,3.729c0.831,0,1.606-0.111,2.289-0.277
		c0.037,0.094,0.074,0.277,0.074,0.389c0,0.184-0.037,0.35-0.093,0.48c-0.72,0.221-1.624,0.35-2.381,0.35
		c-1.459,0-2.566-0.461-3.25-1.199c-0.812-0.887-1.237-2.217-1.237-3.748c0-2.678,1.348-5.041,4.044-5.041
		c2.419,0,3.379,1.994,3.379,4.432C204.239,239.973,204.239,240.305,204.221,240.582z M203.039,239.695
		c0-1.699-0.185-3.527-2.234-3.527c-1.791,0-2.658,1.645-2.77,3.527H203.039z"/>
	<path fill="#333333" d="M210.553,236.334c-1.071,0.148-2.234,0.537-3.102,1.201v7.533c-0.186,0.055-0.406,0.092-0.609,0.092
		s-0.406-0.037-0.591-0.092v-9.619c0.11-0.037,0.276-0.074,0.461-0.074c0.148,0,0.351,0.037,0.499,0.074l0.092,1.182h0.019
		c0.794-0.684,2.179-1.256,3.231-1.367c0.037,0.111,0.073,0.314,0.073,0.48C210.626,235.928,210.59,236.168,210.553,236.334z"/>
	<path fill="#333333" d="M219.58,243.461c0,1.791-0.073,3.066-0.72,4.211c-0.738,1.311-2.197,1.938-3.508,1.938
		c-0.96,0-1.625-0.092-2.216-0.295c-0.056-0.111-0.074-0.295-0.074-0.443c0-0.111,0.037-0.352,0.074-0.461
		c0.554,0.166,1.219,0.295,2.104,0.295c2.031,0,3.139-1.459,3.139-3.988v-0.646c-0.941,0.832-1.994,1.182-2.954,1.182
		c-1.033,0-1.846-0.258-2.363-0.885c-0.572-0.684-0.646-1.682-0.646-2.678v-6.24c0.147-0.037,0.388-0.094,0.572-0.094
		c0.222,0,0.461,0.057,0.628,0.094v6.037c0,0.887,0.073,1.625,0.405,2.123c0.296,0.424,0.776,0.646,1.496,0.646
		c1.145,0,2.234-0.609,2.861-1.219v-7.588c0.167-0.037,0.406-0.094,0.628-0.094c0.185,0,0.425,0.057,0.572,0.094V243.461z"/>
	<path fill="#333333" d="M234.127,233.768c-0.701-0.184-1.717-0.35-2.548-0.35c-3.046,0-4.302,2.418-4.302,5.465
		c0,3.01,1.2,5.354,4.191,5.354c0.979,0,1.976-0.146,2.64-0.369c0.037,0.111,0.056,0.297,0.056,0.443
		c0,0.186-0.019,0.426-0.056,0.535c-0.664,0.223-1.606,0.406-2.677,0.406c-3.36,0-5.483-2.031-5.483-6.352
		c0-3.895,2.049-6.498,5.502-6.498c0.997,0,2.049,0.184,2.658,0.424c0.056,0.148,0.074,0.332,0.074,0.5
		C234.183,233.436,234.164,233.639,234.127,233.768z"/>
	<path fill="#333333" d="M239.499,245.252c-2.419,0-3.97-1.662-3.97-4.984c0-3.324,1.569-5.004,3.988-5.004s3.951,1.643,3.951,4.967
		S241.918,245.252,239.499,245.252z M239.518,236.168c-1.772,0-2.732,1.367-2.732,4.08c0,2.715,0.941,4.1,2.714,4.1
		s2.714-1.385,2.714-4.1C242.213,237.535,241.29,236.168,239.518,236.168z"/>
	<path fill="#333333" d="M252.533,241.412c0,2.807-1.163,3.84-3.601,3.84c-2.492,0-3.545-1.033-3.545-3.748v-6.055
		c0.166-0.057,0.388-0.094,0.591-0.094c0.259,0,0.462,0.057,0.609,0.094v5.908c0,1.791,0.276,2.973,2.363,2.973
		c1.957,0,2.382-1.145,2.382-3.01v-5.871c0.147-0.057,0.406-0.094,0.609-0.094s0.424,0.037,0.591,0.094V241.412z"/>
	<path fill="#333333" d="M262.373,245.086c-0.147,0.037-0.369,0.074-0.591,0.074c-0.185,0-0.425-0.037-0.609-0.092v-5.854
		c0-0.887-0.11-1.568-0.369-2.049c-0.313-0.592-0.904-0.887-1.864-0.887c-0.924,0-2.031,0.518-2.751,1.07v7.719
		c-0.203,0.055-0.406,0.092-0.628,0.092c-0.185,0-0.406-0.037-0.572-0.092v-9.619c0.129-0.057,0.351-0.074,0.479-0.074
		c0.185,0,0.406,0.018,0.518,0.074l0.092,0.959h0.019c1.016-0.83,2.179-1.145,3.12-1.145s1.92,0.314,2.456,0.961
		c0.591,0.701,0.701,1.717,0.701,2.713V245.086z"/>
	<path fill="#333333" d="M270.884,236.611c-0.591-0.24-1.366-0.387-2.05-0.387c-2.4,0-3.286,1.863-3.286,4.117
		c0,2.215,0.85,3.932,3.268,3.932c0.646,0,1.422-0.109,1.994-0.277c0.037,0.111,0.074,0.24,0.074,0.389
		c0,0.221-0.037,0.387-0.093,0.518c-0.535,0.221-1.403,0.35-2.086,0.35c-3.01,0-4.413-1.975-4.413-4.873
		c0-3.01,1.533-5.115,4.469-5.115c0.701,0,1.532,0.166,2.104,0.426c0.056,0.146,0.074,0.295,0.074,0.461
		C270.939,236.334,270.921,236.482,270.884,236.611z"/>
	<path fill="#333333" d="M273.522,233.564c-0.425,0-0.775-0.369-0.775-0.811c0-0.443,0.351-0.795,0.775-0.795
		s0.794,0.352,0.794,0.795C274.316,233.195,273.947,233.564,273.522,233.564z M274.132,245.068
		c-0.166,0.055-0.406,0.092-0.609,0.092s-0.425-0.037-0.591-0.092v-9.619c0.148-0.037,0.388-0.094,0.572-0.094
		c0.203,0,0.48,0.037,0.628,0.094V245.068z"/>
	<path fill="#333333" d="M277.953,245.068c-0.203,0.055-0.406,0.092-0.627,0.092c-0.186,0-0.406-0.037-0.573-0.092V231.59
		c0.167-0.037,0.37-0.092,0.609-0.092c0.203,0,0.425,0.037,0.591,0.092V245.068z"/>
</g>
<g>
	<path fill="#AB9245" d="M27.746,172.203c-0.589,0.117-1.649,0.195-2.788,0.195c-1.099,0-2.081-0.078-2.788-0.195v-20.299
		l-5.575,3.691c-1.335-1.217-2.277-2.867-2.631-4.279l9.227-5.654c0.549-0.118,1.688-0.196,2.277-0.196
		c0.667,0,1.885,0.118,2.277,0.196V172.203z"/>
	<path fill="#AB9245" d="M52.911,172.596c-7.263,0-11.111-5.025-11.111-13.664c0-8.637,3.848-13.662,11.111-13.662
		s11.111,5.025,11.111,13.662C64.022,167.57,60.174,172.596,52.911,172.596z M52.911,150.099c-3.376,0-5.3,2.591-5.3,8.833
		c0,6.244,1.924,8.834,5.3,8.834s5.3-2.59,5.3-8.834C58.211,152.689,56.288,150.099,52.911,150.099z"/>
	<path fill="#AB9245" d="M83.613,150.452H73.169v5.731h8.794c0.157,0.433,0.274,1.217,0.274,2.316c0,0.865-0.078,1.57-0.274,2.395
		h-8.794v11.309c-0.746,0.117-1.61,0.195-2.788,0.195c-1.06,0-2.081-0.078-2.827-0.195v-26.541h16.058
		c0.157,0.432,0.274,1.256,0.274,2.356C83.887,148.882,83.809,149.627,83.613,150.452z"/>
	<path fill="#AB9245" d="M104.93,172.596c-7.263,0-11.111-5.025-11.111-13.664c0-8.637,3.848-13.662,11.111-13.662
		s11.111,5.025,11.111,13.662C116.041,167.57,112.193,172.596,104.93,172.596z M104.93,150.099c-3.376,0-5.3,2.591-5.3,8.833
		c0,6.244,1.924,8.834,5.3,8.834s5.3-2.59,5.3-8.834C110.23,152.689,108.307,150.099,104.93,150.099z"/>
	<path fill="#AB9245" d="M140.854,172.203c-0.393,0.078-1.335,0.156-2.002,0.156s-1.335-0.039-1.963-0.156l-12.21-17v17
		c-0.314,0.078-1.492,0.195-2.591,0.195c-0.903,0-1.963-0.117-2.513-0.195v-26.541c0.628-0.118,1.375-0.157,2.081-0.157
		c0.746,0,1.531,0.079,2.12,0.157l11.975,16.686v-16.686c0.785-0.118,1.806-0.196,2.552-0.196c0.746,0,1.845,0.079,2.552,0.196
		V172.203z"/>
	<path fill="#AB9245" d="M161.857,172.203h-16.254v-26.541c0.746-0.118,1.767-0.196,2.749-0.196c1.099,0,2.159,0.079,2.866,0.196
		v21.75h10.64c0.157,0.432,0.274,1.258,0.274,2.355C162.132,170.633,162.054,171.379,161.857,172.203z"/>
	<path fill="#AB9245" d="M178.464,151.748l-6.007,11.582v8.873c-0.746,0.117-1.609,0.195-2.787,0.195
		c-1.061,0-2.081-0.078-2.827-0.195v-8.951l-5.732-11.189c-1.256-2.435-1.924-4.437-1.924-6.439
		c0.629-0.079,1.768-0.157,2.749-0.157c0.942,0,2.002,0.04,2.748,0.157c0,1.649,0.235,2.748,1.139,4.633l2.63,5.418
		c0.589,1.178,1.1,2.592,1.257,3.416h0.039c0.196-0.824,0.824-2.277,1.296-3.299l2.709-5.692c0.589-1.217,0.942-2.63,0.942-4.437
		c0.746-0.118,1.924-0.196,2.866-0.196c1.099,0,1.923,0.079,2.552,0.196C180.113,147.665,179.328,150.06,178.464,151.748z"/>
</g>
<g>
	<path fill="#AB9245" d="M196.371,172.596c-2.552,0-5.614-0.354-7.498-1.297c-0.118-0.393-0.196-1.256-0.196-1.766
		c0-0.824,0.117-1.846,0.313-2.67c2.12,0.824,4.594,1.256,6.557,1.256c3.22,0,5.025-1.492,5.025-3.965c0-2.67-1.609-3.73-4.594-3.73
		h-2.159c-0.117-0.432-0.235-1.295-0.235-2.238c0-0.785,0.157-1.727,0.274-2.08h2.042c2.709,0,3.965-1.453,3.965-3.494
		c0-1.924-1.413-2.866-3.65-2.866c-2.003,0-4.358,0.51-6.321,1.334c-0.196-0.667-0.354-1.767-0.354-2.63
		c0-0.589,0.078-1.492,0.196-1.845c1.688-0.746,4.79-1.335,7.42-1.335c4.594,0,8.441,2.277,8.441,6.949
		c0,2.592-1.178,4.75-3.416,5.771v0.078c2.592,0.982,4.162,3.338,4.162,6.047C206.344,169.729,201.789,172.596,196.371,172.596z"/>
</g>
<path fill="#333333" d="M44.738,23.744c-0.639,0-1.154,0.515-1.154,1.153V74.07c0,0.636,0.515,1.153,1.154,1.153h7.023
	c0.639,0,1.154-0.517,1.154-1.153V24.896c0-0.638-0.515-1.153-1.154-1.153H44.738z M27.174,37.793c-0.635,0-1.152,0.517-1.152,1.153
	v77.273c0,0.636,0.517,1.151,1.152,1.151h45.663c0.635,0,1.152-0.515,1.152-1.151v-14.051c0-0.636-0.517-1.153-1.152-1.153h-3.512
	c-1.302,0-2.36-1.059-2.36-2.359c0-1.3,1.058-2.359,2.36-2.359h3.512c0.635,0,1.152-0.517,1.152-1.153v-7.026
	c0-0.635-0.517-1.153-1.152-1.153h-3.512c-1.302,0-2.36-1.058-2.36-2.359c0-1.3,1.058-2.36,2.36-2.36h3.512
	c0.635,0,1.152-0.515,1.152-1.151V74.07c0-0.636-0.517-1.153-1.152-1.153h-3.512c-1.302,0-2.36-1.059-2.36-2.359
	c0-1.303,1.058-2.362,2.36-2.362h3.512c0.635,0,1.152-0.515,1.152-1.153v-7.023c0-0.638-0.517-1.153-1.152-1.153h-3.512
	c-1.302,0-2.36-1.059-2.36-2.361c0-1.301,1.058-2.359,2.36-2.359h3.512c0.635,0,1.152-0.516,1.152-1.154V38.946
	c0-0.636-0.517-1.153-1.152-1.153H58.787c-0.635,0-1.151,0.517-1.151,1.153v38.636c0,1.3-1.06,2.361-2.36,2.361
	c-0.637,0-1.152,0.515-1.152,1.153v7.023c0,1.301-1.06,2.36-2.362,2.36c-0.635,0-1.152,0.517-1.152,1.153v7.025
	c0,1.3-1.06,2.359-2.36,2.359s-2.36-1.059-2.36-2.359v-7.025c0-0.636-0.517-1.153-1.152-1.153c-1.3,0-2.362-1.059-2.362-2.36v-7.023
	c0-0.638-0.515-1.153-1.152-1.153c-1.3,0-2.36-1.061-2.36-2.361V38.946c0-0.636-0.517-1.153-1.151-1.153H27.174z M79.863,101.016
	c-0.639,0-1.154,0.517-1.154,1.153v14.051c0,0.636,0.515,1.151,1.154,1.151h45.659c0.639,0,1.154-0.515,1.154-1.151V38.946
	c0-0.636-0.515-1.153-1.154-1.153H79.863c-0.639,0-1.154,0.517-1.154,1.153v14.048c0,0.638,0.515,1.154,1.154,1.154h3.511
	c1.3,0,2.36,1.058,2.36,2.359c0,1.302-1.06,2.361-2.36,2.361h-3.511c-0.639,0-1.154,0.515-1.154,1.153v7.023
	c0,0.638,0.515,1.153,1.154,1.153h3.511c1.3,0,2.36,1.059,2.36,2.362c0,1.3-1.06,2.359-2.36,2.359h-3.511
	c-0.639,0-1.154,0.517-1.154,1.153v7.025c0,0.636,0.515,1.151,1.154,1.151h3.511c1.3,0,2.36,1.061,2.36,2.36
	c0,1.301-1.06,2.359-2.36,2.359h-3.511c-0.639,0-1.154,0.518-1.154,1.153v7.026c0,0.636,0.515,1.153,1.154,1.153h3.511
	c1.3,0,2.36,1.059,2.36,2.359c0,1.3-1.06,2.359-2.36,2.359H79.863z M23.663,122.09c-1.3,0-2.358-1.058-2.358-2.359V35.435
	c0-1.301,1.058-2.362,2.358-2.362h14.051c0.635,0,1.151-0.515,1.151-1.151V21.385c0-1.301,1.06-2.361,2.36-2.361
	c0.637,0,1.152-0.515,1.152-1.153v-3.513c0-1.3,1.062-2.359,2.362-2.359h7.023c1.302,0,2.362,1.059,2.362,2.359v3.513
	c0,0.638,0.515,1.153,1.152,1.153c1.3,0,2.36,1.06,2.36,2.361v10.537c0,0.636,0.517,1.151,1.151,1.151h70.249
	c1.3,0,2.36,1.061,2.36,2.362v84.297c0,1.301-1.06,2.359-2.36,2.359H23.663z"/>
<rect x="95.065" y="68.195" fill="#333333" width="18.768" height="4.721"/>
<rect x="95.065" y="96.294" fill="#333333" width="18.768" height="4.719"/>
<rect x="95.065" y="82.245" fill="#333333" width="18.768" height="4.719"/>
<rect x="95.065" y="54.146" fill="#333333" width="18.768" height="4.721"/>
</svg>
