<?xml version="1.0" encoding="utf-8"?>
<!-- Generator: Adobe Illustrator 16.0.0, SVG Export Plug-In . SVG Version: 6.00 Build 0)  -->
<!DOCTYPE svg PUBLIC "-//W3C//DTD SVG 1.1//EN" "http://www.w3.org/Graphics/SVG/1.1/DTD/svg11.dtd">
<svg version="1.1" id="Layer_1" xmlns="http://www.w3.org/2000/svg" xmlns:xlink="http://www.w3.org/1999/xlink" x="0px" y="0px"
	 width="300px" height="300px" viewBox="0 0 300 300" enable-background="new 0 0 300 300" xml:space="preserve">
<g>
	<path fill="#333333" d="M11.76,94.595c-0.116,0.043-0.333,0.072-0.493,0.072c-0.159,0-0.376-0.029-0.492-0.072v-9.789
		c0.116-0.043,0.333-0.072,0.492-0.072c0.16,0,0.376,0.029,0.493,0.072V94.595z"/>
	<path fill="#333333" d="M19.796,94.609c-0.116,0.029-0.29,0.058-0.463,0.058c-0.145,0-0.333-0.029-0.478-0.072v-4.59
		c0-0.695-0.086-1.231-0.29-1.607c-0.246-0.463-0.709-0.695-1.462-0.695c-0.724,0-1.593,0.405-2.158,0.84v6.053
		c-0.159,0.043-0.318,0.072-0.492,0.072c-0.145,0-0.318-0.029-0.449-0.072V87.05c0.101-0.043,0.275-0.058,0.376-0.058
		c0.145,0,0.318,0.015,0.405,0.058l0.072,0.753h0.015c0.796-0.651,1.708-0.897,2.447-0.897c0.738,0,1.506,0.246,1.926,0.753
		c0.463,0.55,0.55,1.347,0.55,2.128V94.609z"/>
	<path fill="#333333" d="M29.656,87.962c-0.463-0.188-1.072-0.304-1.607-0.304c-1.882,0-2.578,1.462-2.578,3.229
		c0,1.738,0.666,3.084,2.563,3.084c0.507,0,1.115-0.087,1.564-0.217c0.029,0.087,0.058,0.188,0.058,0.304
		c0,0.174-0.029,0.304-0.072,0.405c-0.42,0.174-1.101,0.275-1.637,0.275c-2.36,0-3.46-1.55-3.46-3.823
		c0-2.36,1.202-4.011,3.504-4.011c0.55,0,1.202,0.13,1.651,0.333c0.043,0.116,0.058,0.231,0.058,0.362
		C29.699,87.746,29.685,87.861,29.656,87.962z"/>
	<path fill="#333333" d="M33.898,94.74c-1.897,0-3.113-1.303-3.113-3.91c0-2.606,1.23-3.924,3.127-3.924s3.099,1.289,3.099,3.895
		S35.795,94.74,33.898,94.74z M33.913,87.615c-1.39,0-2.143,1.071-2.143,3.2c0,2.128,0.739,3.214,2.129,3.214
		s2.128-1.086,2.128-3.214C36.027,88.687,35.303,87.615,33.913,87.615z"/>
	<path fill="#333333" d="M39.531,94.595c-0.16,0.043-0.319,0.072-0.493,0.072c-0.145,0-0.318-0.029-0.449-0.072V84.024
		c0.13-0.029,0.29-0.072,0.478-0.072c0.159,0,0.333,0.029,0.463,0.072V94.595z"/>
	<path fill="#333333" d="M42.499,94.595c-0.16,0.043-0.319,0.072-0.493,0.072c-0.145,0-0.318-0.029-0.449-0.072V84.024
		c0.13-0.029,0.29-0.072,0.478-0.072c0.159,0,0.333,0.029,0.463,0.072V94.595z"/>
	<path fill="#333333" d="M49.651,92.741c0,0.521,0,1.173,0.029,1.854c-0.102,0.043-0.261,0.072-0.391,0.072
		c-0.116,0-0.275-0.029-0.391-0.072c-0.043-0.231-0.072-0.536-0.087-0.811h-0.014c-0.493,0.608-1.361,0.956-2.216,0.956
		c-1.347,0-2.476-0.753-2.476-2.303c0-0.883,0.362-1.535,0.927-1.94c0.637-0.449,1.477-0.594,2.375-0.594
		c0.507,0,0.927,0.029,1.303,0.087v-0.42c0-1.448-0.594-1.926-1.81-1.926c-0.681,0-1.521,0.145-2.042,0.275
		c-0.029-0.072-0.058-0.231-0.058-0.376c0-0.101,0.029-0.246,0.073-0.333c0.623-0.188,1.448-0.304,2.143-0.304
		c1.723,0,2.635,0.782,2.635,2.548V92.741z M48.71,90.699c-0.42-0.058-0.854-0.086-1.231-0.086c-0.709,0-1.347,0.13-1.781,0.463
		c-0.391,0.29-0.608,0.753-0.608,1.347c0,1.057,0.68,1.563,1.622,1.563c0.782,0,1.607-0.376,1.999-0.97V90.699z"/>
	<path fill="#333333" d="M53.966,94.74c-0.667,0-1.521-0.102-2.317-0.391V84.024c0.101-0.029,0.318-0.072,0.449-0.072
		c0.231,0,0.405,0.043,0.492,0.072v3.664c0.594-0.492,1.347-0.782,2.143-0.782c2.042,0,2.896,1.752,2.896,3.707
		C57.63,93.103,56.355,94.74,53.966,94.74z M54.604,87.716c-0.724,0-1.448,0.304-2.013,0.869v5.198
		c0.391,0.145,0.883,0.232,1.303,0.232c2.013,0,2.751-1.535,2.751-3.345C56.645,89.266,56.24,87.716,54.604,87.716z"/>
	<path fill="#333333" d="M61.886,94.74c-1.897,0-3.113-1.303-3.113-3.91c0-2.606,1.23-3.924,3.127-3.924S65,88.194,65,90.801
		S63.783,94.74,61.886,94.74z M61.9,87.615c-1.39,0-2.143,1.071-2.143,3.2c0,2.128,0.739,3.214,2.129,3.214s2.128-1.086,2.128-3.214
		C64.015,88.687,63.291,87.615,61.9,87.615z"/>
	<path fill="#333333" d="M69.922,87.746c-0.84,0.116-1.752,0.42-2.433,0.941v5.908c-0.145,0.043-0.318,0.072-0.478,0.072
		c-0.16,0-0.319-0.029-0.463-0.072V87.05c0.087-0.029,0.217-0.058,0.362-0.058c0.116,0,0.275,0.029,0.391,0.058l0.072,0.927h0.015
		c0.623-0.536,1.708-0.985,2.534-1.071c0.029,0.086,0.058,0.246,0.058,0.376C69.98,87.427,69.951,87.615,69.922,87.746z"/>
	<path fill="#333333" d="M76.076,92.741c0,0.521,0,1.173,0.029,1.854c-0.102,0.043-0.261,0.072-0.391,0.072
		c-0.116,0-0.275-0.029-0.391-0.072c-0.043-0.231-0.072-0.536-0.087-0.811h-0.014c-0.493,0.608-1.361,0.956-2.216,0.956
		c-1.347,0-2.476-0.753-2.476-2.303c0-0.883,0.362-1.535,0.927-1.94c0.637-0.449,1.477-0.594,2.375-0.594
		c0.507,0,0.927,0.029,1.303,0.087v-0.42c0-1.448-0.594-1.926-1.81-1.926c-0.681,0-1.521,0.145-2.042,0.275
		c-0.029-0.072-0.058-0.231-0.058-0.376c0-0.101,0.029-0.246,0.073-0.333c0.623-0.188,1.448-0.304,2.143-0.304
		c1.723,0,2.635,0.782,2.635,2.548V92.741z M75.135,90.699c-0.42-0.058-0.854-0.086-1.231-0.086c-0.709,0-1.347,0.13-1.781,0.463
		c-0.391,0.29-0.608,0.753-0.608,1.347c0,1.057,0.68,1.563,1.622,1.563c0.782,0,1.607-0.376,1.999-0.97V90.699z"/>
	<path fill="#333333" d="M82.084,94.522c-0.376,0.13-0.941,0.217-1.361,0.217c-1.434,0-2.114-0.681-2.114-2.288v-4.663h-1.303
		c-0.029-0.073-0.043-0.247-0.043-0.333c0-0.072,0.015-0.246,0.043-0.318l1.303-0.087v-1.969c0.116-0.043,0.304-0.072,0.463-0.072
		s0.362,0.029,0.478,0.072v1.969h2.128c0.029,0.072,0.058,0.29,0.058,0.362c0,0.102-0.029,0.275-0.058,0.377h-2.128v4.576
		c0,1.144,0.333,1.622,1.23,1.622c0.493,0,0.97-0.072,1.303-0.173c0.029,0.072,0.058,0.246,0.058,0.347
		C82.143,94.291,82.128,94.392,82.084,94.522z"/>
	<path fill="#333333" d="M84.01,85.573c-0.333,0-0.608-0.29-0.608-0.637c0-0.347,0.275-0.623,0.608-0.623s0.623,0.275,0.623,0.623
		C84.632,85.284,84.343,85.573,84.01,85.573z M84.488,94.595c-0.13,0.043-0.319,0.072-0.478,0.072s-0.333-0.029-0.463-0.072V87.05
		c0.116-0.029,0.304-0.072,0.449-0.072c0.159,0,0.376,0.029,0.492,0.072V94.595z"/>
	<path fill="#333333" d="M89.208,94.74c-1.897,0-3.113-1.303-3.113-3.91c0-2.606,1.23-3.924,3.127-3.924s3.099,1.289,3.099,3.895
		S91.105,94.74,89.208,94.74z M89.223,87.615c-1.39,0-2.143,1.071-2.143,3.2c0,2.128,0.739,3.214,2.129,3.214
		s2.128-1.086,2.128-3.214C91.337,88.687,90.613,87.615,89.223,87.615z"/>
	<path fill="#333333" d="M99.663,94.609c-0.116,0.029-0.29,0.058-0.463,0.058c-0.145,0-0.333-0.029-0.478-0.072v-4.59
		c0-0.695-0.086-1.231-0.29-1.607c-0.246-0.463-0.709-0.695-1.462-0.695c-0.724,0-1.593,0.405-2.158,0.84v6.053
		c-0.159,0.043-0.318,0.072-0.492,0.072c-0.145,0-0.318-0.029-0.449-0.072V87.05c0.101-0.043,0.275-0.058,0.376-0.058
		c0.145,0,0.318,0.015,0.405,0.058l0.072,0.753h0.015c0.796-0.651,1.708-0.897,2.447-0.897c0.738,0,1.506,0.246,1.926,0.753
		c0.463,0.55,0.55,1.347,0.55,2.128V94.609z"/>
	<path fill="#333333" d="M113.548,88.542l-1.94,6.053c-0.116,0.043-0.333,0.072-0.449,0.072c-0.13,0-0.348-0.029-0.449-0.072
		l-1.738-5.85h-0.029l-1.825,5.85c-0.13,0.043-0.333,0.072-0.449,0.072c-0.116,0-0.304-0.029-0.435-0.072l-1.795-5.966
		c-0.16-0.493-0.232-1.057-0.247-1.593c0.116-0.029,0.348-0.058,0.493-0.058c0.159,0,0.304,0.029,0.434,0.072
		c0.015,0.521,0.102,1.072,0.232,1.549l1.318,4.707h0.014l1.883-6.271c0.101-0.029,0.304-0.043,0.405-0.043s0.318,0.015,0.405,0.043
		l1.781,6.271h0.015l1.448-4.692c0.16-0.536,0.275-1.042,0.304-1.564c0.102-0.043,0.348-0.072,0.478-0.072s0.333,0.029,0.42,0.072
		C113.824,87.542,113.708,88.035,113.548,88.542z"/>
	<path fill="#333333" d="M115.734,85.573c-0.333,0-0.608-0.29-0.608-0.637c0-0.347,0.275-0.623,0.608-0.623s0.623,0.275,0.623,0.623
		C116.356,85.284,116.067,85.573,115.734,85.573z M116.212,94.595c-0.13,0.043-0.319,0.072-0.478,0.072s-0.333-0.029-0.463-0.072
		V87.05c0.116-0.029,0.304-0.072,0.449-0.072c0.159,0,0.376,0.029,0.492,0.072V94.595z"/>
	<path fill="#333333" d="M122.25,94.522c-0.376,0.13-0.941,0.217-1.361,0.217c-1.434,0-2.114-0.681-2.114-2.288v-4.663h-1.303
		c-0.029-0.073-0.043-0.247-0.043-0.333c0-0.072,0.015-0.246,0.043-0.318l1.303-0.087v-1.969c0.116-0.043,0.304-0.072,0.463-0.072
		s0.362,0.029,0.478,0.072v1.969h2.128c0.029,0.072,0.058,0.29,0.058,0.362c0,0.102-0.029,0.275-0.058,0.377h-2.128v4.576
		c0,1.144,0.333,1.622,1.23,1.622c0.493,0,0.97-0.072,1.303-0.173c0.029,0.072,0.058,0.246,0.058,0.347
		C122.308,94.291,122.293,94.392,122.25,94.522z"/>
	<path fill="#333333" d="M129.446,94.595c-0.13,0.043-0.29,0.072-0.435,0.072c-0.173,0-0.362-0.029-0.507-0.072v-4.576
		c0-1.593-0.405-2.317-1.752-2.317c-0.724,0-1.593,0.405-2.158,0.84v6.053c-0.159,0.043-0.333,0.072-0.492,0.072
		c-0.145,0-0.318-0.029-0.449-0.072V84.024c0.13-0.043,0.333-0.072,0.463-0.072s0.347,0.029,0.478,0.072v3.722
		c0.768-0.594,1.68-0.84,2.39-0.84c0.738,0,1.491,0.246,1.911,0.753c0.463,0.55,0.55,1.347,0.55,2.128V94.595z"/>
	<path fill="#333333" d="M135.816,94.595c-0.116,0.043-0.333,0.072-0.493,0.072c-0.159,0-0.376-0.029-0.492-0.072v-9.789
		c0.116-0.043,0.333-0.072,0.492-0.072c0.16,0,0.376,0.029,0.493,0.072V94.595z"/>
	<path fill="#333333" d="M144.215,85.559h-2.853v9.036c-0.116,0.043-0.333,0.072-0.492,0.072s-0.376-0.029-0.492-0.072v-9.036
		h-2.853c-0.043-0.086-0.072-0.246-0.072-0.376c0-0.116,0.029-0.275,0.072-0.376h6.69c0.043,0.102,0.072,0.261,0.072,0.376
		C144.287,85.312,144.258,85.472,144.215,85.559z"/>
	<path fill="#333333" d="M150.571,94.74c-0.869,0-1.868-0.16-2.621-0.435c-0.043-0.116-0.072-0.261-0.072-0.42
		c0-0.145,0.029-0.319,0.058-0.435c0.768,0.304,1.81,0.492,2.563,0.492c1.463,0,2.23-0.651,2.23-1.854
		c0-1.057-0.565-1.535-1.637-1.926l-0.869-0.318c-1.448-0.536-2.273-1.231-2.273-2.621c0-1.622,1.289-2.563,3.114-2.563
		c0.709,0,1.434,0.101,2.085,0.275c0.043,0.087,0.058,0.232,0.058,0.362c0,0.116-0.029,0.304-0.072,0.405
		c-0.608-0.188-1.317-0.275-2.013-0.275c-1.072,0-2.158,0.376-2.158,1.737c0,1.086,0.55,1.463,1.781,1.926l0.767,0.29
		c1.332,0.507,2.187,1.188,2.187,2.606C153.698,93.871,152.396,94.74,150.571,94.74z"/>
	<path fill="#333333" d="M156.405,94.595c-0.159,0.043-0.318,0.072-0.492,0.072c-0.146,0-0.319-0.029-0.449-0.072V84.024
		c0.13-0.029,0.29-0.072,0.478-0.072c0.159,0,0.333,0.029,0.464,0.072V94.595z"/>
	<path fill="#333333" d="M158.925,85.573c-0.333,0-0.608-0.29-0.608-0.637c0-0.347,0.275-0.623,0.608-0.623s0.623,0.275,0.623,0.623
		C159.548,85.284,159.258,85.573,158.925,85.573z M159.402,94.595c-0.13,0.043-0.318,0.072-0.478,0.072s-0.333-0.029-0.463-0.072
		V87.05c0.115-0.029,0.304-0.072,0.448-0.072c0.159,0,0.377,0.029,0.492,0.072V94.595z"/>
	<path fill="#333333" d="M166.889,93.335c0,1.086-0.059,2.389-0.58,3.287c-0.622,1.071-1.737,1.535-2.853,1.535
		c-0.637,0-1.188-0.072-1.65-0.231c-0.044-0.087-0.058-0.232-0.058-0.348c0-0.087,0.028-0.261,0.058-0.348
		c0.449,0.116,0.97,0.203,1.491,0.203c1.824,0,2.65-1.13,2.65-3.113v-0.608c-0.565,0.594-1.361,0.883-2.013,0.883
		c-1.927,0-2.926-1.492-2.926-3.591c0-2.578,1.521-4.098,3.766-4.098c0.594,0,1.491,0.173,2.114,0.42V93.335z M165.947,87.789
		c-0.521-0.145-0.898-0.188-1.26-0.188c-1.84,0-2.708,1.549-2.708,3.359c0,1.607,0.608,2.867,2.027,2.867
		c0.724,0,1.462-0.362,1.94-0.869V87.789z"/>
	<path fill="#333333" d="M171.55,94.74c-1.896,0-3.113-1.303-3.113-3.91c0-2.606,1.231-3.924,3.128-3.924
		c1.897,0,3.099,1.289,3.099,3.895S173.447,94.74,171.55,94.74z M171.564,87.615c-1.39,0-2.143,1.071-2.143,3.2
		c0,2.128,0.738,3.214,2.128,3.214c1.391,0,2.129-1.086,2.129-3.214C173.679,88.687,172.955,87.615,171.564,87.615z"/>
	<path fill="#333333" d="M175.373,96.839c-0.087-0.073-0.203-0.246-0.246-0.362c0.594-0.478,1.042-1.014,1.188-1.607
		c-0.305-0.159-0.551-0.463-0.551-0.84c0-0.405,0.318-0.709,0.681-0.709c0.464,0,0.797,0.42,0.797,0.927
		C177.241,95.058,176.575,96.086,175.373,96.839z"/>
	<path fill="#333333" d="M190.881,88.542l-1.94,6.053c-0.115,0.043-0.333,0.072-0.448,0.072c-0.131,0-0.348-0.029-0.449-0.072
		l-1.738-5.85h-0.028l-1.825,5.85c-0.13,0.043-0.333,0.072-0.448,0.072c-0.116,0-0.305-0.029-0.435-0.072l-1.796-5.966
		c-0.159-0.493-0.231-1.057-0.246-1.593c0.116-0.029,0.348-0.058,0.492-0.058c0.159,0,0.305,0.029,0.435,0.072
		c0.015,0.521,0.102,1.072,0.231,1.549l1.318,4.707h0.015l1.882-6.271c0.102-0.029,0.305-0.043,0.405-0.043
		c0.102,0,0.319,0.015,0.406,0.043l1.781,6.271h0.014l1.448-4.692c0.159-0.536,0.275-1.042,0.305-1.564
		c0.101-0.043,0.347-0.072,0.478-0.072c0.13,0,0.333,0.029,0.42,0.072C191.156,87.542,191.04,88.035,190.881,88.542z"/>
	<path fill="#333333" d="M197.859,91.076h-4.851c0.058,1.665,0.84,2.925,2.649,2.925c0.652,0,1.261-0.087,1.796-0.217
		c0.029,0.073,0.058,0.217,0.058,0.304c0,0.145-0.028,0.275-0.072,0.376c-0.564,0.174-1.274,0.275-1.867,0.275
		c-1.145,0-2.014-0.362-2.549-0.941c-0.638-0.695-0.971-1.738-0.971-2.939c0-2.1,1.058-3.953,3.172-3.953
		c1.896,0,2.649,1.563,2.649,3.475C197.874,90.598,197.874,90.859,197.859,91.076z M196.933,90.381c0-1.332-0.145-2.766-1.752-2.766
		c-1.404,0-2.085,1.289-2.172,2.766H196.933z"/>
	<path fill="#333333" d="M208.43,94.595c-0.131,0.043-0.29,0.072-0.435,0.072c-0.174,0-0.362-0.029-0.507-0.072v-4.576
		c0-1.593-0.405-2.317-1.752-2.317c-0.725,0-1.594,0.405-2.158,0.84v6.053c-0.159,0.043-0.333,0.072-0.492,0.072
		c-0.145,0-0.318-0.029-0.449-0.072V84.024c0.131-0.043,0.333-0.072,0.464-0.072c0.13,0,0.348,0.029,0.478,0.072v3.722
		c0.768-0.594,1.68-0.84,2.39-0.84c0.738,0,1.491,0.246,1.911,0.753c0.464,0.55,0.551,1.347,0.551,2.128V94.595z"/>
	<path fill="#333333" d="M215.509,92.741c0,0.521,0,1.173,0.029,1.854c-0.102,0.043-0.261,0.072-0.392,0.072
		c-0.115,0-0.274-0.029-0.391-0.072c-0.043-0.231-0.072-0.536-0.087-0.811h-0.015c-0.492,0.608-1.361,0.956-2.215,0.956
		c-1.347,0-2.477-0.753-2.477-2.303c0-0.883,0.362-1.535,0.927-1.94c0.637-0.449,1.477-0.594,2.375-0.594
		c0.507,0,0.927,0.029,1.303,0.087v-0.42c0-1.448-0.594-1.926-1.81-1.926c-0.681,0-1.521,0.145-2.042,0.275
		c-0.029-0.072-0.058-0.231-0.058-0.376c0-0.101,0.028-0.246,0.072-0.333c0.622-0.188,1.448-0.304,2.143-0.304
		c1.724,0,2.636,0.782,2.636,2.548V92.741z M214.567,90.699c-0.42-0.058-0.854-0.086-1.23-0.086c-0.71,0-1.347,0.13-1.781,0.463
		c-0.391,0.29-0.608,0.753-0.608,1.347c0,1.057,0.681,1.563,1.622,1.563c0.782,0,1.607-0.376,1.998-0.97V90.699z"/>
	<path fill="#333333" d="M222.488,88.889l-2.273,5.706c-0.131,0.043-0.275,0.072-0.392,0.072c-0.159,0-0.289-0.029-0.405-0.072
		l-2.346-5.706c-0.261-0.651-0.377-1.303-0.377-1.839c0.116-0.029,0.319-0.072,0.449-0.072c0.174,0,0.348,0.029,0.492,0.072
		c0.015,0.492,0.072,1.057,0.29,1.579l1.882,4.778h0.029l1.824-4.778c0.203-0.507,0.305-1.072,0.305-1.579
		c0.102-0.043,0.318-0.072,0.507-0.072c0.102,0,0.289,0.014,0.42,0.058C222.879,87.557,222.777,88.18,222.488,88.889z"/>
	<path fill="#333333" d="M229.51,91.076h-4.851c0.058,1.665,0.84,2.925,2.649,2.925c0.652,0,1.261-0.087,1.796-0.217
		c0.029,0.073,0.058,0.217,0.058,0.304c0,0.145-0.028,0.275-0.072,0.376c-0.564,0.174-1.274,0.275-1.867,0.275
		c-1.145,0-2.014-0.362-2.549-0.941c-0.638-0.695-0.971-1.738-0.971-2.939c0-2.1,1.058-3.953,3.172-3.953
		c1.896,0,2.649,1.563,2.649,3.475C229.524,90.598,229.524,90.859,229.51,91.076z M228.583,90.381c0-1.332-0.145-2.766-1.752-2.766
		c-1.404,0-2.085,1.289-2.172,2.766H228.583z"/>
	<path fill="#333333" d="M239.486,94.667c-0.131,0-0.29-0.043-0.377-0.072l-0.087-0.869h-0.015
		c-0.622,0.651-1.361,1.014-2.187,1.014c-1.998,0-2.954-1.666-2.954-3.693c0-2.013,0.854-4.141,3.157-4.141
		c0.724,0,1.39,0.246,1.926,0.623v-3.504c0.13-0.043,0.304-0.072,0.463-0.072c0.174,0,0.348,0.043,0.479,0.072v10.571
		C239.79,94.638,239.646,94.667,239.486,94.667z M238.95,88.325c-0.521-0.435-1.188-0.652-1.868-0.652
		c-1.68,0-2.244,1.651-2.244,3.331c0,1.289,0.405,2.969,2.027,2.969c0.781,0,1.578-0.391,2.085-1V88.325z"/>
	<path fill="#333333" d="M247.247,91.076h-4.851c0.058,1.665,0.84,2.925,2.65,2.925c0.651,0,1.26-0.087,1.795-0.217
		c0.029,0.073,0.059,0.217,0.059,0.304c0,0.145-0.029,0.275-0.073,0.376c-0.564,0.174-1.274,0.275-1.867,0.275
		c-1.145,0-2.014-0.362-2.549-0.941c-0.638-0.695-0.971-1.738-0.971-2.939c0-2.1,1.058-3.953,3.172-3.953
		c1.896,0,2.649,1.563,2.649,3.475C247.262,90.598,247.262,90.859,247.247,91.076z M246.32,90.381c0-1.332-0.145-2.766-1.752-2.766
		c-1.404,0-2.085,1.289-2.172,2.766H246.32z"/>
	<path fill="#333333" d="M253.951,88.889l-2.273,5.706c-0.131,0.043-0.275,0.072-0.392,0.072c-0.159,0-0.289-0.029-0.405-0.072
		l-2.346-5.706c-0.261-0.651-0.377-1.303-0.377-1.839c0.116-0.029,0.319-0.072,0.449-0.072c0.174,0,0.348,0.029,0.492,0.072
		c0.015,0.492,0.072,1.057,0.29,1.579l1.882,4.778h0.029l1.824-4.778c0.203-0.507,0.305-1.072,0.305-1.579
		c0.102-0.043,0.318-0.072,0.507-0.072c0.102,0,0.289,0.014,0.42,0.058C254.342,87.557,254.24,88.18,253.951,88.889z"/>
	<path fill="#333333" d="M260.959,91.076h-4.851c0.058,1.665,0.84,2.925,2.649,2.925c0.652,0,1.261-0.087,1.796-0.217
		c0.029,0.073,0.058,0.217,0.058,0.304c0,0.145-0.028,0.275-0.072,0.376c-0.564,0.174-1.274,0.275-1.867,0.275
		c-1.145,0-2.014-0.362-2.549-0.941c-0.638-0.695-0.971-1.738-0.971-2.939c0-2.1,1.058-3.953,3.172-3.953
		c1.896,0,2.649,1.563,2.649,3.475C260.974,90.598,260.974,90.859,260.959,91.076z M260.032,90.381c0-1.332-0.145-2.766-1.752-2.766
		c-1.404,0-2.085,1.289-2.172,2.766H260.032z"/>
	<path fill="#333333" d="M263.521,94.595c-0.159,0.043-0.318,0.072-0.492,0.072c-0.146,0-0.319-0.029-0.449-0.072V84.024
		c0.13-0.029,0.29-0.072,0.478-0.072c0.159,0,0.333,0.029,0.464,0.072V94.595z"/>
	<path fill="#333333" d="M268.212,94.74c-1.896,0-3.113-1.303-3.113-3.91c0-2.606,1.231-3.924,3.128-3.924
		c1.897,0,3.099,1.289,3.099,3.895S270.109,94.74,268.212,94.74z M268.227,87.615c-1.39,0-2.143,1.071-2.143,3.2
		c0,2.128,0.738,3.214,2.128,3.214c1.391,0,2.129-1.086,2.129-3.214C270.341,88.687,269.617,87.615,268.227,87.615z"/>
	<path fill="#333333" d="M277.653,93.813c-0.565,0.507-1.448,0.782-2.288,0.782c-0.594,0-1.145-0.102-1.55-0.246v3.649
		c-0.145,0.043-0.275,0.073-0.478,0.073c-0.159,0-0.348-0.029-0.464-0.073V87.05c0.072-0.029,0.246-0.058,0.392-0.058
		c0.145,0,0.274,0.029,0.376,0.058l0.087,0.796h0.015c0.55-0.579,1.376-0.941,2.216-0.941c0.912,0,1.723,0.391,2.229,1.115
		c0.42,0.608,0.681,1.477,0.681,2.534C278.869,92.003,278.42,93.118,277.653,93.813z M275.857,87.673
		c-0.768,0-1.535,0.319-2.042,0.956v4.981c0.377,0.174,0.956,0.275,1.448,0.275c1.563,0,2.621-1.028,2.621-3.287
		C277.885,88.817,277.189,87.673,275.857,87.673z"/>
	<path fill="#333333" d="M285.805,91.076h-4.851c0.058,1.665,0.84,2.925,2.649,2.925c0.652,0,1.261-0.087,1.796-0.217
		c0.029,0.073,0.058,0.217,0.058,0.304c0,0.145-0.028,0.275-0.072,0.376c-0.564,0.174-1.274,0.275-1.867,0.275
		c-1.145,0-2.014-0.362-2.549-0.941c-0.638-0.695-0.971-1.738-0.971-2.939c0-2.1,1.058-3.953,3.172-3.953
		c1.896,0,2.649,1.563,2.649,3.475C285.819,90.598,285.819,90.859,285.805,91.076z M284.878,90.381c0-1.332-0.145-2.766-1.752-2.766
		c-1.404,0-2.085,1.289-2.172,2.766H284.878z"/>
	<path fill="#333333" d="M292.597,94.667c-0.131,0-0.29-0.043-0.377-0.072l-0.087-0.869h-0.015
		c-0.622,0.651-1.361,1.014-2.187,1.014c-1.998,0-2.954-1.666-2.954-3.693c0-2.013,0.854-4.141,3.157-4.141
		c0.724,0,1.39,0.246,1.926,0.623v-3.504c0.13-0.043,0.304-0.072,0.463-0.072c0.174,0,0.348,0.043,0.479,0.072v10.571
		C292.9,94.638,292.756,94.667,292.597,94.667z M292.061,88.325c-0.521-0.435-1.188-0.652-1.868-0.652
		c-1.68,0-2.244,1.651-2.244,3.331c0,1.289,0.405,2.969,2.027,2.969c0.781,0,1.578-0.391,2.085-1V88.325z"/>
</g>
<g>
	<path fill="#333333" d="M14.511,112.216c-0.376,0.13-0.941,0.217-1.361,0.217c-1.434,0-2.114-0.681-2.114-2.288v-4.663H9.732
		c-0.029-0.073-0.043-0.247-0.043-0.333c0-0.072,0.015-0.246,0.043-0.318l1.303-0.087v-1.969c0.116-0.043,0.304-0.072,0.463-0.072
		s0.362,0.029,0.478,0.072v1.969h2.128c0.029,0.072,0.058,0.29,0.058,0.362c0,0.102-0.029,0.275-0.058,0.377h-2.128v4.576
		c0,1.144,0.333,1.622,1.23,1.622c0.493,0,0.97-0.072,1.303-0.173c0.029,0.072,0.058,0.246,0.058,0.347
		C14.569,111.984,14.554,112.085,14.511,112.216z"/>
	<path fill="#333333" d="M21.707,112.288c-0.13,0.043-0.29,0.072-0.435,0.072c-0.173,0-0.362-0.029-0.507-0.072v-4.576
		c0-1.593-0.405-2.317-1.752-2.317c-0.724,0-1.593,0.405-2.158,0.84v6.053c-0.159,0.043-0.333,0.072-0.492,0.072
		c-0.145,0-0.318-0.029-0.449-0.072v-10.571c0.13-0.043,0.333-0.072,0.463-0.072s0.347,0.029,0.478,0.072v3.722
		c0.768-0.594,1.68-0.84,2.39-0.84c0.738,0,1.491,0.246,1.911,0.753c0.463,0.55,0.55,1.347,0.55,2.128V112.288z"/>
	<path fill="#333333" d="M27.006,105.439c-0.84,0.116-1.752,0.42-2.433,0.941v5.908c-0.145,0.043-0.318,0.072-0.478,0.072
		c-0.16,0-0.319-0.029-0.463-0.072v-7.544c0.087-0.029,0.217-0.058,0.362-0.058c0.116,0,0.275,0.029,0.391,0.058l0.072,0.927h0.015
		c0.623-0.536,1.708-0.985,2.534-1.071c0.029,0.086,0.058,0.246,0.058,0.376C27.064,105.12,27.035,105.309,27.006,105.439z"/>
	<path fill="#333333" d="M33.493,108.77h-4.851c0.058,1.665,0.84,2.925,2.65,2.925c0.652,0,1.26-0.087,1.795-0.217
		c0.029,0.073,0.058,0.217,0.058,0.304c0,0.145-0.029,0.275-0.072,0.376c-0.565,0.174-1.274,0.275-1.868,0.275
		c-1.144,0-2.013-0.362-2.548-0.941c-0.637-0.695-0.97-1.738-0.97-2.939c0-2.1,1.057-3.953,3.171-3.953
		c1.897,0,2.65,1.563,2.65,3.475C33.507,108.292,33.507,108.552,33.493,108.77z M32.566,108.074c0-1.332-0.145-2.766-1.752-2.766
		c-1.404,0-2.085,1.289-2.172,2.766H32.566z"/>
	<path fill="#333333" d="M40.472,108.77h-4.851c0.058,1.665,0.84,2.925,2.65,2.925c0.652,0,1.26-0.087,1.795-0.217
		c0.029,0.073,0.058,0.217,0.058,0.304c0,0.145-0.029,0.275-0.072,0.376c-0.565,0.174-1.274,0.275-1.868,0.275
		c-1.144,0-2.013-0.362-2.548-0.941c-0.637-0.695-0.97-1.738-0.97-2.939c0-2.1,1.057-3.953,3.171-3.953
		c1.897,0,2.65,1.563,2.65,3.475C40.486,108.292,40.486,108.552,40.472,108.77z M39.545,108.074c0-1.332-0.145-2.766-1.752-2.766
		c-1.404,0-2.085,1.289-2.172,2.766H39.545z"/>
	<path fill="#333333" d="M45.771,103.267c-0.333,0-0.608-0.29-0.608-0.637c0-0.347,0.275-0.623,0.608-0.623s0.623,0.275,0.623,0.623
		C46.394,102.977,46.104,103.267,45.771,103.267z M46.249,112.288c-0.13,0.043-0.319,0.072-0.478,0.072s-0.333-0.029-0.463-0.072
		v-7.544c0.116-0.029,0.304-0.072,0.449-0.072c0.159,0,0.376,0.029,0.492,0.072V112.288z"/>
	<path fill="#333333" d="M54.068,112.303c-0.116,0.029-0.29,0.058-0.463,0.058c-0.145,0-0.333-0.029-0.478-0.072v-4.59
		c0-0.695-0.086-1.231-0.29-1.607c-0.246-0.463-0.709-0.695-1.462-0.695c-0.724,0-1.593,0.405-2.158,0.84v6.053
		c-0.159,0.043-0.318,0.072-0.492,0.072c-0.145,0-0.318-0.029-0.449-0.072v-7.544c0.101-0.043,0.275-0.058,0.376-0.058
		c0.145,0,0.318,0.015,0.405,0.058l0.072,0.753h0.015c0.796-0.651,1.708-0.897,2.447-0.897c0.738,0,1.506,0.246,1.926,0.753
		c0.463,0.55,0.55,1.347,0.55,2.128V112.303z"/>
	<path fill="#333333" d="M61.786,112.303c-0.116,0.029-0.29,0.058-0.463,0.058c-0.145,0-0.333-0.029-0.478-0.072v-4.59
		c0-0.695-0.086-1.231-0.29-1.607c-0.246-0.463-0.709-0.695-1.462-0.695c-0.724,0-1.593,0.405-2.158,0.84v6.053
		c-0.159,0.043-0.318,0.072-0.492,0.072c-0.145,0-0.318-0.029-0.449-0.072v-7.544c0.101-0.043,0.275-0.058,0.376-0.058
		c0.145,0,0.318,0.015,0.405,0.058l0.072,0.753h0.015c0.796-0.651,1.708-0.897,2.447-0.897c0.738,0,1.506,0.246,1.926,0.753
		c0.463,0.55,0.55,1.347,0.55,2.128V112.303z"/>
	<path fill="#333333" d="M66.404,112.433c-1.897,0-3.113-1.303-3.113-3.91c0-2.606,1.23-3.924,3.127-3.924s3.099,1.289,3.099,3.895
		S68.301,112.433,66.404,112.433z M66.418,105.309c-1.39,0-2.143,1.071-2.143,3.2c0,2.128,0.739,3.214,2.129,3.214
		s2.128-1.086,2.128-3.214C68.533,106.38,67.809,105.309,66.418,105.309z"/>
	<path fill="#333333" d="M76.105,106.583l-2.273,5.706c-0.13,0.043-0.275,0.072-0.391,0.072c-0.16,0-0.29-0.029-0.406-0.072
		l-2.346-5.706c-0.261-0.651-0.376-1.303-0.376-1.839c0.116-0.029,0.318-0.072,0.449-0.072c0.174,0,0.348,0.029,0.492,0.072
		c0.015,0.492,0.073,1.057,0.29,1.579l1.882,4.778h0.029l1.825-4.778c0.203-0.507,0.304-1.072,0.304-1.579
		c0.101-0.043,0.318-0.072,0.507-0.072c0.101,0,0.29,0.014,0.42,0.058C76.496,105.25,76.395,105.873,76.105,106.583z"/>
	<path fill="#333333" d="M82.823,110.435c0,0.521,0,1.173,0.029,1.854c-0.102,0.043-0.261,0.072-0.391,0.072
		c-0.116,0-0.275-0.029-0.391-0.072c-0.043-0.231-0.072-0.536-0.087-0.811h-0.014c-0.493,0.608-1.361,0.956-2.216,0.956
		c-1.347,0-2.476-0.753-2.476-2.303c0-0.883,0.362-1.535,0.927-1.94c0.637-0.449,1.477-0.594,2.375-0.594
		c0.507,0,0.927,0.029,1.303,0.087v-0.42c0-1.448-0.594-1.926-1.81-1.926c-0.681,0-1.521,0.145-2.042,0.275
		c-0.029-0.072-0.058-0.231-0.058-0.376c0-0.101,0.029-0.246,0.073-0.333c0.623-0.188,1.448-0.304,2.143-0.304
		c1.723,0,2.635,0.782,2.635,2.548V110.435z M81.882,108.393c-0.42-0.058-0.854-0.086-1.231-0.086c-0.709,0-1.347,0.13-1.781,0.463
		c-0.391,0.29-0.608,0.753-0.608,1.347c0,1.057,0.68,1.563,1.622,1.563c0.782,0,1.607-0.376,1.999-0.97V108.393z"/>
	<path fill="#333333" d="M88.832,112.216c-0.376,0.13-0.941,0.217-1.361,0.217c-1.434,0-2.114-0.681-2.114-2.288v-4.663h-1.303
		c-0.029-0.073-0.043-0.247-0.043-0.333c0-0.072,0.015-0.246,0.043-0.318l1.303-0.087v-1.969c0.116-0.043,0.304-0.072,0.463-0.072
		s0.362,0.029,0.478,0.072v1.969h2.128c0.029,0.072,0.058,0.29,0.058,0.362c0,0.102-0.029,0.275-0.058,0.377h-2.128v4.576
		c0,1.144,0.333,1.622,1.23,1.622c0.493,0,0.97-0.072,1.303-0.173c0.029,0.072,0.058,0.246,0.058,0.347
		C88.89,111.984,88.875,112.085,88.832,112.216z"/>
	<path fill="#333333" d="M90.757,103.267c-0.333,0-0.608-0.29-0.608-0.637c0-0.347,0.275-0.623,0.608-0.623s0.623,0.275,0.623,0.623
		C91.38,102.977,91.09,103.267,90.757,103.267z M91.235,112.288c-0.13,0.043-0.319,0.072-0.478,0.072s-0.333-0.029-0.463-0.072
		v-7.544c0.116-0.029,0.304-0.072,0.449-0.072c0.159,0,0.376,0.029,0.492,0.072V112.288z"/>
	<path fill="#333333" d="M98.374,106.583l-2.273,5.706c-0.13,0.043-0.275,0.072-0.391,0.072c-0.16,0-0.29-0.029-0.406-0.072
		l-2.346-5.706c-0.261-0.651-0.376-1.303-0.376-1.839c0.116-0.029,0.318-0.072,0.449-0.072c0.174,0,0.348,0.029,0.492,0.072
		c0.015,0.492,0.073,1.057,0.29,1.579l1.882,4.778h0.029l1.825-4.778c0.203-0.507,0.304-1.072,0.304-1.579
		c0.101-0.043,0.318-0.072,0.507-0.072c0.101,0,0.29,0.014,0.42,0.058C98.765,105.25,98.664,105.873,98.374,106.583z"/>
	<path fill="#333333" d="M105.382,108.77h-4.851c0.058,1.665,0.84,2.925,2.65,2.925c0.652,0,1.26-0.087,1.795-0.217
		c0.029,0.073,0.058,0.217,0.058,0.304c0,0.145-0.029,0.275-0.072,0.376c-0.565,0.174-1.274,0.275-1.868,0.275
		c-1.144,0-2.013-0.362-2.548-0.941c-0.637-0.695-0.97-1.738-0.97-2.939c0-2.1,1.057-3.953,3.171-3.953
		c1.897,0,2.65,1.563,2.65,3.475C105.396,108.292,105.396,108.552,105.382,108.77z M104.456,108.074
		c0-1.332-0.145-2.766-1.752-2.766c-1.404,0-2.085,1.289-2.172,2.766H104.456z"/>
	<path fill="#333333" d="M112.477,112.433c-0.667,0-1.521-0.102-2.317-0.391v-10.325c0.101-0.029,0.318-0.072,0.449-0.072
		c0.231,0,0.405,0.043,0.492,0.072v3.664c0.594-0.492,1.347-0.782,2.143-0.782c2.042,0,2.896,1.752,2.896,3.707
		C116.14,110.796,114.866,112.433,112.477,112.433z M113.113,105.41c-0.724,0-1.448,0.304-2.013,0.869v5.198
		c0.391,0.145,0.883,0.232,1.303,0.232c2.013,0,2.751-1.535,2.751-3.345C115.155,106.959,114.75,105.41,113.113,105.41z"/>
	<path fill="#333333" d="M118.225,103.267c-0.333,0-0.608-0.29-0.608-0.637c0-0.347,0.275-0.623,0.608-0.623
		s0.623,0.275,0.623,0.623C118.847,102.977,118.558,103.267,118.225,103.267z M118.703,112.288c-0.13,0.043-0.319,0.072-0.478,0.072
		s-0.333-0.029-0.463-0.072v-7.544c0.116-0.029,0.304-0.072,0.449-0.072c0.159,0,0.376,0.029,0.492,0.072V112.288z"/>
	<path fill="#333333" d="M123.423,112.433c-1.897,0-3.113-1.303-3.113-3.91c0-2.606,1.23-3.924,3.127-3.924s3.099,1.289,3.099,3.895
		S125.32,112.433,123.423,112.433z M123.437,105.309c-1.39,0-2.143,1.071-2.143,3.2c0,2.128,0.739,3.214,2.129,3.214
		s2.128-1.086,2.128-3.214C125.551,106.38,124.827,105.309,123.437,105.309z"/>
	<path fill="#333333" d="M138.569,112.303c-0.145,0.029-0.29,0.058-0.435,0.058c-0.174,0-0.333-0.043-0.507-0.072v-4.576
		c0-1.593-0.405-2.317-1.752-2.317c-0.695,0-1.622,0.362-2.201,0.782c0.116,0.405,0.145,0.854,0.145,1.303v4.808
		c-0.145,0.043-0.29,0.072-0.435,0.072c-0.188,0-0.362-0.029-0.507-0.072v-4.576c0-1.593-0.362-2.317-1.709-2.317
		c-0.724,0-1.578,0.405-2.143,0.84v6.053c-0.159,0.043-0.347,0.072-0.521,0.072c-0.145,0-0.304-0.029-0.42-0.072v-7.544
		c0.072-0.029,0.231-0.058,0.391-0.058c0.13,0,0.29,0.029,0.391,0.058l0.072,0.753h0.015c0.796-0.651,1.708-0.897,2.447-0.897
		c0.738,0,1.448,0.246,1.868,0.753c0.058,0.058,0.101,0.13,0.145,0.203c0.768-0.623,1.752-0.956,2.693-0.956
		c0.739,0,1.492,0.246,1.912,0.753c0.463,0.55,0.55,1.347,0.55,2.128V112.303z"/>
	<path fill="#333333" d="M145.88,108.77h-4.851c0.058,1.665,0.84,2.925,2.65,2.925c0.652,0,1.26-0.087,1.795-0.217
		c0.029,0.073,0.058,0.217,0.058,0.304c0,0.145-0.029,0.275-0.072,0.376c-0.565,0.174-1.274,0.275-1.868,0.275
		c-1.144,0-2.013-0.362-2.548-0.941c-0.637-0.695-0.97-1.738-0.97-2.939c0-2.1,1.057-3.953,3.171-3.953
		c1.897,0,2.65,1.563,2.65,3.475C145.895,108.292,145.895,108.552,145.88,108.77z M144.954,108.074c0-1.332-0.145-2.766-1.752-2.766
		c-1.404,0-2.085,1.289-2.172,2.766H144.954z"/>
	<path fill="#333333" d="M152.671,112.36c-0.13,0-0.289-0.043-0.376-0.072l-0.087-0.869h-0.015
		c-0.623,0.651-1.361,1.014-2.187,1.014c-1.998,0-2.954-1.666-2.954-3.693c0-2.013,0.854-4.141,3.157-4.141
		c0.724,0,1.39,0.246,1.925,0.623v-3.504c0.131-0.043,0.305-0.072,0.464-0.072c0.174,0,0.348,0.043,0.478,0.072v10.571
		C152.975,112.332,152.83,112.36,152.671,112.36z M152.135,106.018c-0.521-0.435-1.187-0.652-1.868-0.652
		c-1.68,0-2.244,1.651-2.244,3.331c0,1.289,0.405,2.969,2.027,2.969c0.782,0,1.578-0.391,2.085-1V106.018z"/>
	<path fill="#333333" d="M156.001,103.267c-0.333,0-0.608-0.29-0.608-0.637c0-0.347,0.275-0.623,0.608-0.623
		s0.623,0.275,0.623,0.623C156.624,102.977,156.334,103.267,156.001,103.267z M156.479,112.288c-0.13,0.043-0.318,0.072-0.478,0.072
		s-0.333-0.029-0.463-0.072v-7.544c0.115-0.029,0.304-0.072,0.448-0.072c0.159,0,0.377,0.029,0.492,0.072V112.288z"/>
	<path fill="#333333" d="M163.256,105.656c-0.464-0.188-1.071-0.304-1.607-0.304c-1.883,0-2.577,1.462-2.577,3.229
		c0,1.738,0.666,3.084,2.562,3.084c0.507,0,1.115-0.087,1.564-0.217c0.028,0.087,0.058,0.188,0.058,0.304
		c0,0.174-0.029,0.304-0.072,0.405c-0.42,0.174-1.101,0.275-1.637,0.275c-2.36,0-3.461-1.55-3.461-3.823
		c0-2.36,1.202-4.011,3.505-4.011c0.55,0,1.201,0.13,1.65,0.333c0.044,0.116,0.058,0.231,0.058,0.362
		C163.299,105.439,163.285,105.555,163.256,105.656z"/>
	<path fill="#333333" d="M169.959,110.435c0,0.521,0,1.173,0.029,1.854c-0.102,0.043-0.261,0.072-0.392,0.072
		c-0.115,0-0.274-0.029-0.391-0.072c-0.043-0.231-0.072-0.536-0.087-0.811h-0.015c-0.492,0.608-1.361,0.956-2.215,0.956
		c-1.347,0-2.477-0.753-2.477-2.303c0-0.883,0.362-1.535,0.927-1.94c0.637-0.449,1.477-0.594,2.375-0.594
		c0.507,0,0.927,0.029,1.303,0.087v-0.42c0-1.448-0.594-1.926-1.81-1.926c-0.681,0-1.521,0.145-2.042,0.275
		c-0.029-0.072-0.058-0.231-0.058-0.376c0-0.101,0.028-0.246,0.072-0.333c0.622-0.188,1.448-0.304,2.143-0.304
		c1.724,0,2.636,0.782,2.636,2.548V110.435z M169.018,108.393c-0.42-0.058-0.854-0.086-1.23-0.086c-0.71,0-1.347,0.13-1.781,0.463
		c-0.391,0.29-0.608,0.753-0.608,1.347c0,1.057,0.681,1.563,1.622,1.563c0.782,0,1.607-0.376,1.998-0.97V108.393z"/>
	<path fill="#333333" d="M172.928,112.288c-0.159,0.043-0.318,0.072-0.492,0.072c-0.146,0-0.319-0.029-0.449-0.072v-10.571
		c0.13-0.029,0.29-0.072,0.478-0.072c0.159,0,0.333,0.029,0.464,0.072V112.288z"/>
	<path fill="#333333" d="M179.79,112.433c-0.724,0-1.477-0.13-1.998-0.333c-0.043-0.101-0.072-0.275-0.072-0.405
		c0-0.087,0.029-0.304,0.058-0.391c0.536,0.217,1.304,0.391,1.94,0.391c1.101,0,1.781-0.463,1.781-1.375
		c0-0.826-0.42-1.115-1.563-1.535c-1.593-0.579-2.114-1.245-2.114-2.23c0-1.332,1.101-1.955,2.52-1.955
		c0.478,0,1.101,0.086,1.462,0.203c0.044,0.13,0.059,0.261,0.059,0.347c0,0.116-0.029,0.319-0.059,0.42
		c-0.478-0.145-0.984-0.232-1.477-0.232c-1.028,0-1.65,0.391-1.65,1.188c0,0.695,0.391,1.028,1.578,1.477
		c1.086,0.405,2.085,0.811,2.085,2.273C182.339,111.752,181.224,112.433,179.79,112.433z"/>
	<path fill="#333333" d="M188.623,105.656c-0.464-0.188-1.071-0.304-1.607-0.304c-1.883,0-2.577,1.462-2.577,3.229
		c0,1.738,0.666,3.084,2.562,3.084c0.507,0,1.115-0.087,1.564-0.217c0.028,0.087,0.058,0.188,0.058,0.304
		c0,0.174-0.029,0.304-0.072,0.405c-0.42,0.174-1.101,0.275-1.637,0.275c-2.36,0-3.461-1.55-3.461-3.823
		c0-2.36,1.202-4.011,3.505-4.011c0.55,0,1.201,0.13,1.65,0.333c0.044,0.116,0.058,0.231,0.058,0.362
		C188.666,105.439,188.652,105.555,188.623,105.656z"/>
	<path fill="#333333" d="M190.692,103.267c-0.333,0-0.608-0.29-0.608-0.637c0-0.347,0.275-0.623,0.608-0.623
		s0.623,0.275,0.623,0.623C191.315,102.977,191.025,103.267,190.692,103.267z M191.17,112.288c-0.13,0.043-0.318,0.072-0.478,0.072
		s-0.333-0.029-0.463-0.072v-7.544c0.115-0.029,0.304-0.072,0.448-0.072c0.159,0,0.377,0.029,0.492,0.072V112.288z"/>
	<path fill="#333333" d="M198.584,108.77h-4.851c0.058,1.665,0.84,2.925,2.649,2.925c0.652,0,1.261-0.087,1.796-0.217
		c0.029,0.073,0.058,0.217,0.058,0.304c0,0.145-0.028,0.275-0.072,0.376c-0.564,0.174-1.274,0.275-1.867,0.275
		c-1.145,0-2.014-0.362-2.549-0.941c-0.638-0.695-0.971-1.738-0.971-2.939c0-2.1,1.058-3.953,3.172-3.953
		c1.896,0,2.649,1.563,2.649,3.475C198.599,108.292,198.599,108.552,198.584,108.77z M197.657,108.074
		c0-1.332-0.145-2.766-1.752-2.766c-1.404,0-2.085,1.289-2.172,2.766H197.657z"/>
	<path fill="#333333" d="M205.97,112.303c-0.116,0.029-0.29,0.058-0.464,0.058c-0.145,0-0.333-0.029-0.478-0.072v-4.59
		c0-0.695-0.087-1.231-0.29-1.607c-0.246-0.463-0.709-0.695-1.462-0.695c-0.725,0-1.594,0.405-2.158,0.84v6.053
		c-0.159,0.043-0.318,0.072-0.492,0.072c-0.145,0-0.318-0.029-0.449-0.072v-7.544c0.102-0.043,0.275-0.058,0.377-0.058
		c0.145,0,0.318,0.015,0.405,0.058l0.072,0.753h0.015c0.797-0.651,1.709-0.897,2.447-0.897s1.506,0.246,1.926,0.753
		c0.464,0.55,0.551,1.347,0.551,2.128V112.303z"/>
	<path fill="#333333" d="M212.644,105.656c-0.464-0.188-1.071-0.304-1.607-0.304c-1.883,0-2.577,1.462-2.577,3.229
		c0,1.738,0.666,3.084,2.562,3.084c0.507,0,1.115-0.087,1.564-0.217c0.028,0.087,0.058,0.188,0.058,0.304
		c0,0.174-0.029,0.304-0.072,0.405c-0.42,0.174-1.101,0.275-1.637,0.275c-2.36,0-3.461-1.55-3.461-3.823
		c0-2.36,1.202-4.011,3.505-4.011c0.55,0,1.201,0.13,1.65,0.333c0.044,0.116,0.058,0.231,0.058,0.362
		C212.687,105.439,212.673,105.555,212.644,105.656z"/>
	<path fill="#333333" d="M219.579,108.77h-4.851c0.058,1.665,0.84,2.925,2.65,2.925c0.651,0,1.26-0.087,1.795-0.217
		c0.029,0.073,0.059,0.217,0.059,0.304c0,0.145-0.029,0.275-0.073,0.376c-0.564,0.174-1.274,0.275-1.867,0.275
		c-1.145,0-2.014-0.362-2.549-0.941c-0.638-0.695-0.971-1.738-0.971-2.939c0-2.1,1.058-3.953,3.172-3.953
		c1.896,0,2.649,1.563,2.649,3.475C219.594,108.292,219.594,108.552,219.579,108.77z M218.652,108.074
		c0-1.332-0.145-2.766-1.752-2.766c-1.404,0-2.085,1.289-2.172,2.766H218.652z"/>
	<path fill="#333333" d="M229.556,112.36c-0.131,0-0.29-0.043-0.377-0.072l-0.087-0.869h-0.015
		c-0.622,0.651-1.361,1.014-2.187,1.014c-1.998,0-2.954-1.666-2.954-3.693c0-2.013,0.854-4.141,3.157-4.141
		c0.724,0,1.39,0.246,1.926,0.623v-3.504c0.13-0.043,0.304-0.072,0.463-0.072c0.174,0,0.348,0.043,0.479,0.072v10.571
		C229.859,112.332,229.715,112.36,229.556,112.36z M229.02,106.018c-0.521-0.435-1.188-0.652-1.868-0.652
		c-1.68,0-2.244,1.651-2.244,3.331c0,1.289,0.405,2.969,2.027,2.969c0.781,0,1.578-0.391,2.085-1V106.018z"/>
	<path fill="#333333" d="M237.315,108.77h-4.851c0.058,1.665,0.84,2.925,2.65,2.925c0.651,0,1.26-0.087,1.795-0.217
		c0.029,0.073,0.059,0.217,0.059,0.304c0,0.145-0.029,0.275-0.073,0.376c-0.564,0.174-1.274,0.275-1.867,0.275
		c-1.145,0-2.014-0.362-2.549-0.941c-0.638-0.695-0.971-1.738-0.971-2.939c0-2.1,1.058-3.953,3.172-3.953
		c1.896,0,2.649,1.563,2.649,3.475C237.33,108.292,237.33,108.552,237.315,108.77z M236.389,108.074
		c0-1.332-0.145-2.766-1.752-2.766c-1.404,0-2.085,1.289-2.172,2.766H236.389z"/>
	<path fill="#333333" d="M244.368,111.028c0,1.086-0.059,2.389-0.58,3.287c-0.622,1.071-1.737,1.535-2.853,1.535
		c-0.637,0-1.188-0.072-1.65-0.231c-0.044-0.087-0.058-0.232-0.058-0.348c0-0.087,0.028-0.261,0.058-0.348
		c0.449,0.116,0.97,0.203,1.491,0.203c1.824,0,2.65-1.13,2.65-3.113v-0.608c-0.565,0.594-1.361,0.883-2.013,0.883
		c-1.927,0-2.926-1.492-2.926-3.591c0-2.578,1.521-4.098,3.766-4.098c0.594,0,1.491,0.173,2.114,0.42V111.028z M243.427,105.482
		c-0.521-0.145-0.898-0.188-1.26-0.188c-1.84,0-2.708,1.549-2.708,3.359c0,1.607,0.608,2.867,2.027,2.867
		c0.724,0,1.462-0.362,1.94-0.869V105.482z"/>
	<path fill="#333333" d="M249.71,105.439c-0.84,0.116-1.752,0.42-2.433,0.941v5.908c-0.145,0.043-0.318,0.072-0.478,0.072
		s-0.318-0.029-0.464-0.072v-7.544c0.087-0.029,0.218-0.058,0.362-0.058c0.116,0,0.275,0.029,0.391,0.058l0.073,0.927h0.014
		c0.623-0.536,1.709-0.985,2.534-1.071c0.029,0.086,0.059,0.246,0.059,0.376C249.769,105.12,249.739,105.309,249.71,105.439z"/>
	<path fill="#333333" d="M256.183,108.77h-4.851c0.058,1.665,0.84,2.925,2.65,2.925c0.651,0,1.26-0.087,1.795-0.217
		c0.029,0.073,0.059,0.217,0.059,0.304c0,0.145-0.029,0.275-0.073,0.376c-0.564,0.174-1.274,0.275-1.867,0.275
		c-1.145,0-2.014-0.362-2.549-0.941c-0.638-0.695-0.971-1.738-0.971-2.939c0-2.1,1.058-3.953,3.172-3.953
		c1.896,0,2.649,1.563,2.649,3.475C256.197,108.292,256.197,108.552,256.183,108.77z M255.256,108.074
		c0-1.332-0.145-2.766-1.752-2.766c-1.404,0-2.085,1.289-2.172,2.766H255.256z"/>
	<path fill="#333333" d="M263.161,108.77h-4.851c0.058,1.665,0.84,2.925,2.65,2.925c0.651,0,1.26-0.087,1.795-0.217
		c0.029,0.073,0.059,0.217,0.059,0.304c0,0.145-0.029,0.275-0.073,0.376c-0.564,0.174-1.274,0.275-1.867,0.275
		c-1.145,0-2.014-0.362-2.549-0.941c-0.638-0.695-0.971-1.738-0.971-2.939c0-2.1,1.058-3.953,3.172-3.953
		c1.896,0,2.649,1.563,2.649,3.475C263.176,108.292,263.176,108.552,263.161,108.77z M262.234,108.074
		c0-1.332-0.145-2.766-1.752-2.766c-1.404,0-2.085,1.289-2.172,2.766H262.234z"/>
	<path fill="#333333" d="M266.434,112.433c-0.724,0-1.477-0.13-1.998-0.333c-0.043-0.101-0.072-0.275-0.072-0.405
		c0-0.087,0.029-0.304,0.058-0.391c0.536,0.217,1.304,0.391,1.94,0.391c1.101,0,1.781-0.463,1.781-1.375
		c0-0.826-0.42-1.115-1.563-1.535c-1.593-0.579-2.114-1.245-2.114-2.23c0-1.332,1.101-1.955,2.52-1.955
		c0.478,0,1.101,0.086,1.462,0.203c0.044,0.13,0.059,0.261,0.059,0.347c0,0.116-0.029,0.319-0.059,0.42
		c-0.478-0.145-0.984-0.232-1.477-0.232c-1.028,0-1.65,0.391-1.65,1.188c0,0.695,0.391,1.028,1.578,1.477
		c1.086,0.405,2.085,0.811,2.085,2.273C268.982,111.752,267.867,112.433,266.434,112.433z"/>
	<path fill="#333333" d="M269.88,114.533c-0.087-0.073-0.203-0.246-0.246-0.362c0.594-0.478,1.042-1.014,1.188-1.607
		c-0.305-0.159-0.551-0.463-0.551-0.84c0-0.405,0.318-0.709,0.681-0.709c0.464,0,0.797,0.42,0.797,0.927
		C271.748,112.751,271.082,113.78,269.88,114.533z"/>
	<path fill="#333333" d="M280.623,112.216c-0.377,0.13-0.941,0.217-1.361,0.217c-1.434,0-2.114-0.681-2.114-2.288v-4.663h-1.304
		c-0.028-0.073-0.043-0.247-0.043-0.333c0-0.072,0.015-0.246,0.043-0.318l1.304-0.087v-1.969c0.116-0.043,0.304-0.072,0.463-0.072
		c0.16,0,0.362,0.029,0.479,0.072v1.969h2.129c0.028,0.072,0.058,0.29,0.058,0.362c0,0.102-0.029,0.275-0.058,0.377h-2.129v4.576
		c0,1.144,0.333,1.622,1.23,1.622c0.492,0,0.971-0.072,1.304-0.173c0.028,0.072,0.058,0.246,0.058,0.347
		C280.681,111.984,280.666,112.085,280.623,112.216z"/>
	<path fill="#333333" d="M287.819,112.288c-0.131,0.043-0.29,0.072-0.435,0.072c-0.174,0-0.362-0.029-0.507-0.072v-4.576
		c0-1.593-0.405-2.317-1.752-2.317c-0.725,0-1.594,0.405-2.158,0.84v6.053c-0.159,0.043-0.333,0.072-0.492,0.072
		c-0.145,0-0.318-0.029-0.449-0.072v-10.571c0.131-0.043,0.333-0.072,0.464-0.072c0.13,0,0.348,0.029,0.478,0.072v3.722
		c0.768-0.594,1.68-0.84,2.39-0.84c0.738,0,1.491,0.246,1.911,0.753c0.464,0.55,0.551,1.347,0.551,2.128V112.288z"/>
	<path fill="#333333" d="M295.131,108.77h-4.851c0.058,1.665,0.84,2.925,2.649,2.925c0.652,0,1.261-0.087,1.796-0.217
		c0.029,0.073,0.058,0.217,0.058,0.304c0,0.145-0.028,0.275-0.072,0.376c-0.564,0.174-1.274,0.275-1.867,0.275
		c-1.145,0-2.014-0.362-2.549-0.941c-0.638-0.695-0.971-1.738-0.971-2.939c0-2.1,1.058-3.953,3.172-3.953
		c1.896,0,2.649,1.563,2.649,3.475C295.146,108.292,295.146,108.552,295.131,108.77z M294.204,108.074
		c0-1.332-0.145-2.766-1.752-2.766c-1.404,0-2.085,1.289-2.172,2.766H294.204z"/>
</g>
<g>
	<path fill="#333333" d="M15.25,176.445c-0.463-0.188-1.072-0.305-1.607-0.305c-1.882,0-2.578,1.463-2.578,3.229
		c0,1.737,0.666,3.084,2.563,3.084c0.507,0,1.115-0.087,1.564-0.217c0.029,0.087,0.058,0.188,0.058,0.304
		c0,0.174-0.029,0.305-0.072,0.406c-0.42,0.173-1.101,0.274-1.637,0.274c-2.36,0-3.46-1.549-3.46-3.822
		c0-2.36,1.202-4.012,3.504-4.012c0.55,0,1.202,0.131,1.651,0.333c0.043,0.116,0.058,0.232,0.058,0.362
		C15.293,176.228,15.278,176.344,15.25,176.445z"/>
	<path fill="#333333" d="M20.172,176.228c-0.84,0.116-1.752,0.42-2.433,0.941v5.908c-0.145,0.043-0.318,0.072-0.478,0.072
		c-0.16,0-0.319-0.029-0.463-0.072v-7.544c0.087-0.029,0.217-0.059,0.362-0.059c0.116,0,0.275,0.029,0.391,0.059l0.072,0.927h0.015
		c0.623-0.536,1.708-0.985,2.534-1.072c0.029,0.087,0.058,0.246,0.058,0.377C20.23,175.909,20.201,176.098,20.172,176.228z"/>
	<path fill="#333333" d="M23.952,183.222c-1.897,0-3.113-1.303-3.113-3.909s1.23-3.925,3.127-3.925s3.099,1.289,3.099,3.896
		S25.849,183.222,23.952,183.222z M23.966,176.098c-1.39,0-2.143,1.071-2.143,3.2s0.739,3.215,2.129,3.215s2.128-1.086,2.128-3.215
		S25.356,176.098,23.966,176.098z"/>
	<path fill="#333333" d="M30.293,183.222c-0.724,0-1.477-0.13-1.999-0.333c-0.043-0.102-0.072-0.275-0.072-0.405
		c0-0.087,0.029-0.304,0.058-0.391c0.536,0.217,1.303,0.391,1.94,0.391c1.101,0,1.781-0.463,1.781-1.376
		c0-0.825-0.42-1.114-1.564-1.534c-1.593-0.58-2.114-1.246-2.114-2.23c0-1.332,1.1-1.955,2.52-1.955
		c0.478,0,1.101,0.087,1.462,0.203c0.043,0.13,0.058,0.261,0.058,0.348c0,0.115-0.029,0.318-0.058,0.42
		c-0.478-0.146-0.985-0.231-1.477-0.231c-1.028,0-1.651,0.391-1.651,1.187c0,0.695,0.391,1.028,1.579,1.478
		c1.086,0.405,2.085,0.811,2.085,2.273C32.842,182.541,31.727,183.222,30.293,183.222z"/>
	<path fill="#333333" d="M36.056,183.222c-0.724,0-1.477-0.13-1.999-0.333c-0.043-0.102-0.072-0.275-0.072-0.405
		c0-0.087,0.029-0.304,0.058-0.391c0.536,0.217,1.303,0.391,1.94,0.391c1.101,0,1.781-0.463,1.781-1.376
		c0-0.825-0.42-1.114-1.564-1.534c-1.593-0.58-2.114-1.246-2.114-2.23c0-1.332,1.1-1.955,2.52-1.955
		c0.478,0,1.101,0.087,1.462,0.203c0.043,0.13,0.058,0.261,0.058,0.348c0,0.115-0.029,0.318-0.058,0.42
		c-0.478-0.146-0.985-0.231-1.477-0.231c-1.028,0-1.651,0.391-1.651,1.187c0,0.695,0.391,1.028,1.579,1.478
		c1.086,0.405,2.085,0.811,2.085,2.273C38.604,182.541,37.49,183.222,36.056,183.222z"/>
	<path fill="#333333" d="M42.63,178.921c0.029,0.072,0.072,0.261,0.072,0.377c0,0.115-0.029,0.275-0.072,0.391h-2.824
		c-0.043-0.115-0.073-0.275-0.073-0.391c0-0.116,0.043-0.305,0.073-0.377H42.63z"/>
	<path fill="#333333" d="M46.583,183.222c-0.667,0-1.521-0.102-2.317-0.391v-10.325c0.101-0.028,0.318-0.072,0.449-0.072
		c0.231,0,0.405,0.044,0.492,0.072v3.664c0.594-0.492,1.347-0.782,2.143-0.782c2.042,0,2.896,1.752,2.896,3.707
		C50.246,181.586,48.972,183.222,46.583,183.222z M47.22,176.199c-0.724,0-1.448,0.304-2.013,0.868v5.199
		c0.391,0.145,0.883,0.231,1.303,0.231c2.013,0,2.751-1.535,2.751-3.345C49.261,177.748,48.856,176.199,47.22,176.199z"/>
	<path fill="#333333" d="M54.502,183.222c-1.897,0-3.113-1.303-3.113-3.909s1.23-3.925,3.127-3.925s3.099,1.289,3.099,3.896
		S56.399,183.222,54.502,183.222z M54.517,176.098c-1.39,0-2.143,1.071-2.143,3.2s0.739,3.215,2.129,3.215s2.128-1.086,2.128-3.215
		S55.907,176.098,54.517,176.098z"/>
	<path fill="#333333" d="M62.539,176.228c-0.84,0.116-1.752,0.42-2.433,0.941v5.908c-0.145,0.043-0.318,0.072-0.478,0.072
		c-0.16,0-0.319-0.029-0.463-0.072v-7.544c0.087-0.029,0.217-0.059,0.362-0.059c0.116,0,0.275,0.029,0.391,0.059l0.072,0.927h0.015
		c0.623-0.536,1.708-0.985,2.534-1.072c0.029,0.087,0.058,0.246,0.058,0.377C62.596,175.909,62.567,176.098,62.539,176.228z"/>
	<path fill="#333333" d="M68.837,183.149c-0.13,0-0.29-0.043-0.376-0.072l-0.087-0.869h-0.014c-0.623,0.652-1.361,1.014-2.187,1.014
		c-1.998,0-2.954-1.665-2.954-3.692c0-2.013,0.854-4.142,3.157-4.142c0.724,0,1.39,0.246,1.926,0.623v-3.505
		c0.13-0.043,0.304-0.072,0.463-0.072c0.174,0,0.348,0.044,0.478,0.072v10.571C69.141,183.12,68.996,183.149,68.837,183.149z
		 M68.301,176.807c-0.521-0.434-1.188-0.651-1.868-0.651c-1.68,0-2.244,1.651-2.244,3.331c0,1.288,0.405,2.968,2.027,2.968
		c0.782,0,1.579-0.391,2.085-0.999V176.807z"/>
	<path fill="#333333" d="M76.598,179.559h-4.851c0.058,1.665,0.84,2.925,2.65,2.925c0.652,0,1.26-0.087,1.795-0.217
		c0.029,0.072,0.058,0.217,0.058,0.304c0,0.145-0.029,0.275-0.072,0.377c-0.565,0.173-1.274,0.274-1.868,0.274
		c-1.144,0-2.013-0.361-2.548-0.941c-0.637-0.694-0.97-1.737-0.97-2.939c0-2.1,1.057-3.953,3.171-3.953
		c1.897,0,2.65,1.564,2.65,3.476C76.612,179.08,76.612,179.341,76.598,179.559z M75.671,178.863c0-1.332-0.145-2.766-1.752-2.766
		c-1.404,0-2.085,1.289-2.172,2.766H75.671z"/>
	<path fill="#333333" d="M81.564,176.228c-0.84,0.116-1.752,0.42-2.433,0.941v5.908c-0.145,0.043-0.318,0.072-0.478,0.072
		c-0.16,0-0.319-0.029-0.463-0.072v-7.544c0.087-0.029,0.217-0.059,0.362-0.059c0.116,0,0.275,0.029,0.391,0.059l0.072,0.927h0.015
		c0.623-0.536,1.708-0.985,2.534-1.072c0.029,0.087,0.058,0.246,0.058,0.377C81.622,175.909,81.593,176.098,81.564,176.228z"/>
	<path fill="#333333" d="M90.961,176.445c-0.463-0.188-1.072-0.305-1.607-0.305c-1.882,0-2.578,1.463-2.578,3.229
		c0,1.737,0.666,3.084,2.563,3.084c0.507,0,1.115-0.087,1.564-0.217c0.029,0.087,0.058,0.188,0.058,0.304
		c0,0.174-0.029,0.305-0.072,0.406c-0.42,0.173-1.101,0.274-1.637,0.274c-2.36,0-3.46-1.549-3.46-3.822
		c0-2.36,1.202-4.012,3.504-4.012c0.55,0,1.202,0.131,1.651,0.333c0.043,0.116,0.058,0.232,0.058,0.362
		C91.005,176.228,90.99,176.344,90.961,176.445z"/>
	<path fill="#333333" d="M95.204,183.222c-1.897,0-3.113-1.303-3.113-3.909s1.23-3.925,3.127-3.925s3.099,1.289,3.099,3.896
		S97.101,183.222,95.204,183.222z M95.218,176.098c-1.39,0-2.143,1.071-2.143,3.2s0.739,3.215,2.129,3.215s2.128-1.086,2.128-3.215
		S96.608,176.098,95.218,176.098z"/>
	<path fill="#333333" d="M100.836,183.077c-0.16,0.043-0.319,0.072-0.493,0.072c-0.145,0-0.318-0.029-0.449-0.072v-10.571
		c0.13-0.028,0.29-0.072,0.478-0.072c0.159,0,0.333,0.029,0.463,0.072V183.077z"/>
	<path fill="#333333" d="M103.804,183.077c-0.16,0.043-0.319,0.072-0.493,0.072c-0.145,0-0.318-0.029-0.449-0.072v-10.571
		c0.13-0.028,0.29-0.072,0.478-0.072c0.159,0,0.333,0.029,0.463,0.072V183.077z"/>
	<path fill="#333333" d="M110.957,181.224c0,0.521,0,1.173,0.029,1.854c-0.102,0.043-0.261,0.072-0.391,0.072
		c-0.116,0-0.275-0.029-0.391-0.072c-0.043-0.231-0.072-0.536-0.087-0.811h-0.014c-0.493,0.607-1.361,0.955-2.216,0.955
		c-1.347,0-2.476-0.753-2.476-2.302c0-0.884,0.362-1.535,0.927-1.94c0.637-0.449,1.477-0.594,2.375-0.594
		c0.506,0,0.927,0.028,1.303,0.087v-0.42c0-1.448-0.594-1.926-1.81-1.926c-0.681,0-1.521,0.145-2.042,0.274
		c-0.029-0.072-0.058-0.231-0.058-0.376c0-0.102,0.029-0.246,0.073-0.333c0.623-0.188,1.448-0.305,2.143-0.305
		c1.723,0,2.635,0.782,2.635,2.549V181.224z M110.016,179.182c-0.42-0.058-0.854-0.087-1.231-0.087
		c-0.709,0-1.347,0.131-1.781,0.464c-0.391,0.289-0.608,0.753-0.608,1.347c0,1.057,0.68,1.563,1.622,1.563
		c0.782,0,1.607-0.376,1.999-0.97V179.182z"/>
	<path fill="#333333" d="M115.271,183.222c-0.667,0-1.521-0.102-2.317-0.391v-10.325c0.101-0.028,0.318-0.072,0.449-0.072
		c0.231,0,0.405,0.044,0.492,0.072v3.664c0.594-0.492,1.347-0.782,2.143-0.782c2.042,0,2.896,1.752,2.896,3.707
		C118.935,181.586,117.661,183.222,115.271,183.222z M115.908,176.199c-0.724,0-1.448,0.304-2.013,0.868v5.199
		c0.391,0.145,0.883,0.231,1.303,0.231c2.013,0,2.751-1.535,2.751-3.345C117.95,177.748,117.545,176.199,115.908,176.199z"/>
	<path fill="#333333" d="M123.191,183.222c-1.897,0-3.113-1.303-3.113-3.909s1.23-3.925,3.127-3.925s3.099,1.289,3.099,3.896
		S125.088,183.222,123.191,183.222z M123.206,176.098c-1.39,0-2.143,1.071-2.143,3.2s0.739,3.215,2.129,3.215
		s2.128-1.086,2.128-3.215S124.596,176.098,123.206,176.098z"/>
	<path fill="#333333" d="M131.228,176.228c-0.84,0.116-1.752,0.42-2.433,0.941v5.908c-0.145,0.043-0.318,0.072-0.478,0.072
		c-0.16,0-0.319-0.029-0.463-0.072v-7.544c0.087-0.029,0.217-0.059,0.362-0.059c0.116,0,0.275,0.029,0.391,0.059l0.072,0.927h0.015
		c0.623-0.536,1.708-0.985,2.534-1.072c0.029,0.087,0.058,0.246,0.058,0.377C131.285,175.909,131.256,176.098,131.228,176.228z"/>
	<path fill="#333333" d="M137.381,181.224c0,0.521,0,1.173,0.029,1.854c-0.102,0.043-0.261,0.072-0.391,0.072
		c-0.116,0-0.275-0.029-0.391-0.072c-0.043-0.231-0.072-0.536-0.087-0.811h-0.014c-0.493,0.607-1.361,0.955-2.216,0.955
		c-1.347,0-2.476-0.753-2.476-2.302c0-0.884,0.362-1.535,0.927-1.94c0.637-0.449,1.477-0.594,2.375-0.594
		c0.506,0,0.927,0.028,1.303,0.087v-0.42c0-1.448-0.594-1.926-1.81-1.926c-0.681,0-1.521,0.145-2.042,0.274
		c-0.029-0.072-0.058-0.231-0.058-0.376c0-0.102,0.029-0.246,0.073-0.333c0.623-0.188,1.448-0.305,2.143-0.305
		c1.723,0,2.635,0.782,2.635,2.549V181.224z M136.44,179.182c-0.42-0.058-0.854-0.087-1.231-0.087c-0.709,0-1.347,0.131-1.781,0.464
		c-0.391,0.289-0.608,0.753-0.608,1.347c0,1.057,0.68,1.563,1.622,1.563c0.782,0,1.607-0.376,1.999-0.97V179.182z"/>
	<path fill="#333333" d="M143.39,183.005c-0.376,0.13-0.941,0.217-1.361,0.217c-1.434,0-2.114-0.681-2.114-2.288v-4.662h-1.303
		c-0.029-0.072-0.043-0.246-0.043-0.333c0-0.072,0.015-0.246,0.043-0.318l1.303-0.087v-1.97c0.116-0.044,0.304-0.072,0.463-0.072
		s0.362,0.028,0.478,0.072v1.97h2.128c0.029,0.072,0.058,0.289,0.058,0.361c0,0.102-0.029,0.275-0.058,0.377h-2.128v4.575
		c0,1.145,0.333,1.622,1.23,1.622c0.493,0,0.97-0.072,1.303-0.174c0.029,0.072,0.058,0.246,0.058,0.348
		C143.448,182.773,143.434,182.874,143.39,183.005z"/>
	<path fill="#333333" d="M145.315,174.056c-0.333,0-0.608-0.289-0.608-0.637s0.275-0.623,0.608-0.623s0.623,0.275,0.623,0.623
		S145.648,174.056,145.315,174.056z M145.793,183.077c-0.13,0.043-0.319,0.072-0.478,0.072s-0.333-0.029-0.463-0.072v-7.544
		c0.116-0.029,0.304-0.073,0.449-0.073c0.159,0,0.376,0.029,0.492,0.073V183.077z"/>
	<path fill="#333333" d="M150.514,183.222c-1.897,0-3.113-1.303-3.113-3.909s1.23-3.925,3.127-3.925s3.099,1.289,3.099,3.896
		S152.41,183.222,150.514,183.222z M150.528,176.098c-1.39,0-2.143,1.071-2.143,3.2s0.739,3.215,2.129,3.215
		c1.39,0,2.129-1.086,2.129-3.215S151.918,176.098,150.528,176.098z"/>
	<path fill="#333333" d="M160.969,183.092c-0.116,0.028-0.29,0.058-0.464,0.058c-0.145,0-0.333-0.029-0.478-0.072v-4.591
		c0-0.694-0.087-1.23-0.29-1.606c-0.246-0.464-0.709-0.695-1.462-0.695c-0.725,0-1.594,0.405-2.158,0.84v6.053
		c-0.159,0.043-0.318,0.072-0.492,0.072c-0.145,0-0.318-0.029-0.449-0.072v-7.544c0.102-0.044,0.275-0.059,0.377-0.059
		c0.145,0,0.318,0.015,0.405,0.059l0.072,0.753h0.015c0.797-0.652,1.709-0.898,2.447-0.898s1.506,0.246,1.926,0.753
		c0.464,0.551,0.551,1.347,0.551,2.129V183.092z"/>
</g>
<g>
	<path fill="#333333" d="M13.193,200.916c-1.897,0-3.113-1.303-3.113-3.909s1.23-3.925,3.127-3.925s3.099,1.289,3.099,3.896
		S15.09,200.916,13.193,200.916z M13.208,193.792c-1.39,0-2.143,1.071-2.143,3.2s0.739,3.215,2.129,3.215s2.128-1.086,2.128-3.215
		S14.598,193.792,13.208,193.792z"/>
	<path fill="#333333" d="M22.127,190.823c-0.217-0.058-0.608-0.116-0.912-0.116c-0.55,0-0.956,0.146-1.231,0.449
		c-0.42,0.449-0.492,1.058-0.492,1.824v0.247h2.042c0.029,0.072,0.058,0.246,0.058,0.347c0,0.116-0.029,0.29-0.058,0.392h-2.042
		v6.806c-0.13,0.043-0.275,0.072-0.463,0.072c-0.188,0-0.348-0.029-0.478-0.072v-6.806h-1.303c-0.029-0.072-0.043-0.261-0.043-0.348
		c0-0.072,0.015-0.231,0.043-0.304l1.303-0.087v-0.247c0-1.027,0.174-1.737,0.768-2.331c0.42-0.42,1.042-0.622,1.752-0.622
		c0.376,0,0.796,0.086,1.057,0.188c0.029,0.072,0.043,0.174,0.043,0.275C22.17,190.577,22.156,190.751,22.127,190.823z"/>
	<path fill="#333333" d="M26.948,191.75c-0.333,0-0.608-0.289-0.608-0.637s0.275-0.623,0.608-0.623s0.623,0.275,0.623,0.623
		S27.281,191.75,26.948,191.75z M27.426,200.771c-0.13,0.043-0.319,0.072-0.478,0.072s-0.333-0.029-0.463-0.072v-7.544
		c0.116-0.029,0.304-0.073,0.449-0.073c0.159,0,0.376,0.029,0.492,0.073V200.771z"/>
	<path fill="#333333" d="M33.464,200.699c-0.376,0.13-0.941,0.217-1.361,0.217c-1.434,0-2.114-0.681-2.114-2.288v-4.662h-1.303
		c-0.029-0.072-0.043-0.246-0.043-0.333c0-0.072,0.015-0.246,0.043-0.318l1.303-0.087v-1.97c0.116-0.044,0.304-0.072,0.463-0.072
		s0.362,0.028,0.478,0.072v1.97h2.128c0.029,0.072,0.058,0.289,0.058,0.361c0,0.102-0.029,0.275-0.058,0.377H30.93v4.575
		c0,1.145,0.333,1.622,1.23,1.622c0.493,0,0.97-0.072,1.303-0.174c0.029,0.072,0.058,0.246,0.058,0.348
		C33.522,200.468,33.507,200.568,33.464,200.699z"/>
	<path fill="#333333" d="M36.548,200.916c-0.724,0-1.477-0.13-1.999-0.333c-0.043-0.102-0.072-0.274-0.072-0.405
		c0-0.087,0.029-0.304,0.058-0.391c0.536,0.217,1.303,0.391,1.94,0.391c1.101,0,1.781-0.463,1.781-1.376
		c0-0.825-0.42-1.114-1.564-1.534c-1.593-0.58-2.114-1.246-2.114-2.23c0-1.332,1.101-1.955,2.52-1.955
		c0.478,0,1.101,0.087,1.462,0.203c0.043,0.13,0.058,0.261,0.058,0.348c0,0.115-0.029,0.318-0.058,0.42
		c-0.478-0.146-0.985-0.232-1.477-0.232c-1.028,0-1.651,0.392-1.651,1.188c0,0.695,0.391,1.028,1.579,1.478
		c1.086,0.405,2.085,0.811,2.085,2.273C39.096,200.235,37.981,200.916,36.548,200.916z"/>
	<path fill="#333333" d="M49.377,200.771c-0.102,0.029-0.319,0.072-0.478,0.072s-0.391-0.029-0.579-0.072l-2.462-3.881l-1.101,1.028
		v2.853c-0.145,0.043-0.333,0.072-0.507,0.072c-0.116,0-0.304-0.029-0.434-0.072V190.2c0.13-0.043,0.29-0.072,0.478-0.072
		c0.174,0,0.319,0.029,0.463,0.072v6.618l2.447-2.288c0.521-0.492,0.782-0.927,0.854-1.303c0.101-0.044,0.318-0.073,0.449-0.073
		s0.333,0.029,0.42,0.073c-0.058,0.535-0.391,1.187-1.057,1.795l-1.347,1.245L49.377,200.771z"/>
	<path fill="#333333" d="M51.07,191.75c-0.333,0-0.608-0.289-0.608-0.637s0.275-0.623,0.608-0.623s0.623,0.275,0.623,0.623
		S51.403,191.75,51.07,191.75z M51.548,200.771c-0.13,0.043-0.319,0.072-0.478,0.072s-0.333-0.029-0.463-0.072v-7.544
		c0.116-0.029,0.304-0.073,0.449-0.073c0.159,0,0.376,0.029,0.492,0.073V200.771z"/>
	<path fill="#333333" d="M59.367,200.786c-0.116,0.028-0.29,0.058-0.463,0.058c-0.145,0-0.333-0.029-0.478-0.072v-4.591
		c0-0.694-0.086-1.23-0.29-1.606c-0.246-0.464-0.709-0.695-1.462-0.695c-0.724,0-1.593,0.405-2.158,0.84v6.053
		c-0.159,0.043-0.318,0.072-0.492,0.072c-0.145,0-0.318-0.029-0.449-0.072v-7.544c0.101-0.044,0.275-0.059,0.376-0.059
		c0.145,0,0.318,0.015,0.405,0.059l0.072,0.753h0.015c0.796-0.652,1.708-0.898,2.447-0.898c0.738,0,1.506,0.246,1.926,0.753
		c0.463,0.551,0.55,1.347,0.55,2.129V200.786z"/>
	<path fill="#333333" d="M66.491,200.844c-0.13,0-0.29-0.043-0.376-0.072l-0.087-0.869h-0.014c-0.623,0.652-1.361,1.014-2.187,1.014
		c-1.998,0-2.954-1.665-2.954-3.692c0-2.013,0.854-4.142,3.157-4.142c0.724,0,1.39,0.246,1.926,0.623V190.2
		c0.13-0.043,0.304-0.072,0.463-0.072c0.174,0,0.348,0.044,0.478,0.072v10.571C66.795,200.814,66.65,200.844,66.491,200.844z
		 M65.955,194.501c-0.521-0.434-1.188-0.651-1.868-0.651c-1.68,0-2.244,1.651-2.244,3.331c0,1.288,0.405,2.968,2.027,2.968
		c0.782,0,1.579-0.391,2.085-0.999V194.501z"/>
	<path fill="#333333" d="M72.572,191.75c-0.333,0-0.608-0.289-0.608-0.637s0.275-0.623,0.608-0.623s0.623,0.275,0.623,0.623
		S72.905,191.75,72.572,191.75z M73.05,200.771c-0.13,0.043-0.319,0.072-0.478,0.072s-0.333-0.029-0.463-0.072v-7.544
		c0.116-0.029,0.304-0.073,0.449-0.073c0.159,0,0.376,0.029,0.492,0.073V200.771z"/>
	<path fill="#333333" d="M80.869,200.786c-0.116,0.028-0.29,0.058-0.463,0.058c-0.145,0-0.333-0.029-0.478-0.072v-4.591
		c0-0.694-0.086-1.23-0.29-1.606c-0.246-0.464-0.709-0.695-1.462-0.695c-0.724,0-1.593,0.405-2.158,0.84v6.053
		c-0.159,0.043-0.318,0.072-0.492,0.072c-0.145,0-0.318-0.029-0.449-0.072v-7.544c0.101-0.044,0.275-0.059,0.376-0.059
		c0.145,0,0.318,0.015,0.405,0.059l0.072,0.753h0.015c0.796-0.652,1.708-0.898,2.447-0.898c0.738,0,1.506,0.246,1.926,0.753
		c0.463,0.551,0.55,1.347,0.55,2.129V200.786z"/>
	<path fill="#333333" d="M87.239,200.771c-0.116,0.043-0.333,0.072-0.493,0.072c-0.159,0-0.376-0.029-0.492-0.072v-9.789
		c0.116-0.043,0.333-0.072,0.492-0.072c0.16,0,0.376,0.029,0.493,0.072V200.771z"/>
	<path fill="#333333" d="M92.857,193.922c-0.84,0.116-1.752,0.42-2.433,0.941v5.908c-0.145,0.043-0.318,0.072-0.478,0.072
		c-0.16,0-0.319-0.029-0.463-0.072v-7.544c0.087-0.029,0.217-0.059,0.362-0.059c0.116,0,0.275,0.029,0.391,0.059l0.072,0.927h0.015
		c0.623-0.536,1.708-0.985,2.534-1.072c0.029,0.087,0.058,0.246,0.058,0.377C92.915,193.604,92.886,193.792,92.857,193.922z"/>
	<path fill="#333333" d="M99.344,197.253h-4.851c0.058,1.665,0.84,2.925,2.65,2.925c0.652,0,1.26-0.087,1.795-0.217
		c0.029,0.072,0.058,0.217,0.058,0.304c0,0.145-0.029,0.275-0.072,0.377c-0.565,0.173-1.274,0.274-1.868,0.274
		c-1.144,0-2.013-0.361-2.548-0.941c-0.637-0.694-0.97-1.737-0.97-2.939c0-2.1,1.057-3.953,3.171-3.953
		c1.897,0,2.65,1.564,2.65,3.476C99.358,196.774,99.358,197.035,99.344,197.253z M98.417,196.558c0-1.332-0.145-2.766-1.752-2.766
		c-1.404,0-2.085,1.289-2.172,2.766H98.417z"/>
	<path fill="#333333" d="M101.907,200.771c-0.16,0.043-0.319,0.072-0.493,0.072c-0.145,0-0.318-0.029-0.449-0.072V190.2
		c0.13-0.028,0.29-0.072,0.478-0.072c0.159,0,0.333,0.029,0.463,0.072V200.771z"/>
	<path fill="#333333" d="M109.059,198.918c0,0.521,0,1.173,0.029,1.854c-0.102,0.043-0.261,0.072-0.391,0.072
		c-0.116,0-0.275-0.029-0.391-0.072c-0.043-0.231-0.072-0.536-0.087-0.811h-0.014c-0.493,0.607-1.361,0.955-2.216,0.955
		c-1.347,0-2.476-0.753-2.476-2.302c0-0.884,0.362-1.535,0.927-1.94c0.637-0.449,1.477-0.594,2.375-0.594
		c0.506,0,0.927,0.028,1.303,0.087v-0.42c0-1.448-0.594-1.927-1.81-1.927c-0.681,0-1.521,0.146-2.042,0.275
		c-0.029-0.072-0.058-0.231-0.058-0.376c0-0.102,0.029-0.246,0.073-0.333c0.623-0.188,1.448-0.305,2.143-0.305
		c1.723,0,2.635,0.782,2.635,2.549V198.918z M108.118,196.876c-0.42-0.058-0.854-0.087-1.231-0.087
		c-0.709,0-1.347,0.131-1.781,0.464c-0.391,0.289-0.608,0.753-0.608,1.347c0,1.057,0.68,1.563,1.622,1.563
		c0.782,0,1.607-0.376,1.999-0.97V196.876z"/>
	<path fill="#333333" d="M116.849,200.786c-0.116,0.028-0.29,0.058-0.463,0.058c-0.145,0-0.333-0.029-0.478-0.072v-4.591
		c0-0.694-0.086-1.23-0.29-1.606c-0.246-0.464-0.709-0.695-1.462-0.695c-0.724,0-1.593,0.405-2.158,0.84v6.053
		c-0.159,0.043-0.318,0.072-0.492,0.072c-0.145,0-0.318-0.029-0.449-0.072v-7.544c0.101-0.044,0.275-0.059,0.376-0.059
		c0.145,0,0.318,0.015,0.405,0.059l0.072,0.753h0.015c0.796-0.652,1.708-0.898,2.447-0.898c0.738,0,1.506,0.246,1.926,0.753
		c0.463,0.551,0.55,1.347,0.55,2.129V200.786z"/>
	<path fill="#333333" d="M123.973,200.844c-0.13,0-0.29-0.043-0.376-0.072l-0.087-0.869h-0.014
		c-0.623,0.652-1.361,1.014-2.187,1.014c-1.998,0-2.954-1.665-2.954-3.692c0-2.013,0.854-4.142,3.157-4.142
		c0.724,0,1.39,0.246,1.926,0.623V190.2c0.13-0.043,0.304-0.072,0.463-0.072c0.174,0,0.348,0.044,0.478,0.072v10.571
		C124.277,200.814,124.132,200.844,123.973,200.844z M123.437,194.501c-0.521-0.434-1.188-0.651-1.868-0.651
		c-1.68,0-2.244,1.651-2.244,3.331c0,1.288,0.405,2.968,2.027,2.968c0.782,0,1.579-0.391,2.085-0.999V194.501z"/>
</g>
<g>
	<path fill="#AB9245" d="M36.984,126.299H19.012v9.865h15.135c0.27,0.743,0.473,2.095,0.473,3.986c0,1.486-0.135,2.703-0.473,4.122
		H19.012v19.459c-1.284,0.203-2.771,0.338-4.797,0.338c-1.824,0-3.581-0.135-4.865-0.338v-45.675h27.634
		c0.271,0.744,0.473,2.162,0.473,4.054C37.458,123.596,37.322,124.88,36.984,126.299z"/>
	<path fill="#AB9245" d="M51.175,163.73c-1.284,0.203-2.837,0.338-4.864,0.338c-1.825,0-3.514-0.135-4.797-0.338v-45.675
		c1.284-0.203,3.175-0.337,4.865-0.337c1.892,0,3.581,0.135,4.797,0.337V163.73z"/>
	<path fill="#AB9245" d="M91.04,163.663c-1.757,0.271-3.581,0.405-5.676,0.405c-1.892,0-3.784-0.067-5.067-0.338l-9.256-16.418
		h-3.986v16.418c-1.689,0.271-3.108,0.338-4.933,0.338c-1.622,0-3.04-0.067-4.729-0.338v-45.675
		c3.108-0.203,9.594-0.337,13.513-0.337c11.486,0,17.229,4.054,17.229,14.594c0,5.608-3.378,11.216-8.108,13.243L91.04,163.663z
		 M71.513,125.623c-1.486,0-3.311,0.068-4.459,0.135v13.513h3.378c5.541,0,7.973-2.027,7.973-7.027
		C78.405,127.245,75.972,125.623,71.513,125.623z"/>
	<path fill="#AB9245" d="M107.664,164.406c-4.932,0-10.337-0.946-14.189-2.703c-0.203-0.945-0.338-2.162-0.338-3.243
		c0-1.621,0.203-3.175,0.676-4.999c3.986,1.621,9.257,2.635,13.378,2.635c4.797,0,7.365-2.23,7.365-5.271
		c0-3.378-2.162-4.797-8.716-6.824c-7.297-2.229-12.635-5.743-12.635-13.581c0-8.378,7.229-13.04,16.756-13.04
		c4.392,0,8.311,0.675,10.946,1.554c0.203,0.744,0.337,1.959,0.337,3.716c0,1.284-0.135,3.243-0.405,4.324
		c-3.378-0.878-7.229-1.352-10.337-1.352c-5.067,0-7.838,1.689-7.838,4.392c0,3.175,2.5,4.459,8.581,6.351
		c7.297,2.297,12.703,5.743,12.703,13.851C123.947,159.068,116.988,164.406,107.664,164.406z"/>
	<path fill="#AB9245" d="M158.002,126.299h-12.095v37.432c-1.284,0.203-3.108,0.338-4.797,0.338c-1.689,0-3.514-0.135-4.865-0.338
		v-37.432h-12.094c-0.271-0.878-0.473-2.973-0.473-4.122c0-1.148,0.27-3.243,0.541-4.122h33.783c0.27,0.878,0.473,2.973,0.473,4.122
		C158.475,123.326,158.271,125.42,158.002,126.299z"/>
</g>
<path fill="#333333" d="M216.702,144.796c-0.405-2.288-0.794-4.487-1.202-6.797c-2.276,0.748-4.405,1.446-6.609,2.168
	C211.519,141.726,214.033,143.215,216.702,144.796 M200.814,139.944c-2.179-0.795-4.29-1.565-6.546-2.388
	c-0.481,2.322-0.937,4.516-1.414,6.812C195.558,142.863,198.111,141.446,200.814,139.944 M216.32,167.574
	c-2.737,1.521-5.283,2.935-7.969,4.427c2.211,0.802,4.327,1.568,6.561,2.376C215.396,172.036,215.848,169.858,216.32,167.574
	 M200.347,171.835c-2.704-1.612-5.219-3.111-7.896-4.707c0.42,2.366,0.811,4.575,1.223,6.894
	C195.929,173.283,198.044,172.589,200.347,171.835 M220.6,151.652c-0.055,3.143-0.106,6.08-0.161,9.191
	c1.9-1.53,3.681-2.97,5.579-4.5C224.176,154.75,222.444,153.252,220.6,151.652 M188.744,151.09c-1.914,1.543-3.705,2.991-5.59,4.516
	c1.864,1.605,3.596,3.102,5.43,4.682C188.638,157.164,188.689,154.238,188.744,151.09 M190.276,174.767
	c0.004-0.224,0.012-0.268,0.004-0.312c-0.483-3.189-0.963-6.382-1.464-9.567c-0.033-0.208-0.203-0.438-0.376-0.578
	c-1.048-0.858-2.137-1.669-3.169-2.546c-1.492-1.266-2.952-2.57-4.493-3.921c-0.999,1.146-2.033,2.256-2.976,3.435
	c-1.716,2.146-3.194,4.437-3.892,7.142c-0.798,3.104,0.438,5.449,3.452,6.552c0.232,0.088,0.471,0.16,0.71,0.223
	c2.444,0.667,4.925,0.604,7.404,0.317C187.083,175.329,188.677,175.021,190.276,174.767 M190.928,136.752
	c-0.029-0.013-0.171-0.085-0.323-0.113c-2.064-0.364-4.121-0.82-6.201-1.053c-2.183-0.245-4.382-0.209-6.505,0.511
	c-2.853,0.966-4.096,3.046-3.51,5.997c0.896,4.484,3.703,7.84,6.572,11.143c0.117-0.054,0.165-0.063,0.196-0.088
	c2.568-2.033,5.138-4.06,7.695-6.1c0.176-0.142,0.351-0.374,0.39-0.584C189.815,143.247,190.364,140.023,190.928,136.752
	 M228.17,158.672c-0.176,0.147-0.293,0.255-0.412,0.352c-2.299,1.829-4.573,3.684-6.909,5.462c-0.601,0.459-1.032,0.876-1.016,1.672
	c0.01,0.401-0.102,0.807-0.176,1.206c-0.483,2.589-0.971,5.182-1.461,7.806c0.028,0.013,0.11,0.05,0.193,0.072
	c3.206,0.836,6.452,1.379,9.78,1.2c1.543-0.082,3.053-0.371,4.406-1.179c1.341-0.798,2.188-1.929,2.313-3.535
	c0.101-1.31-0.157-2.561-0.603-3.783C232.998,164.391,230.702,161.497,228.17,158.672 M228.467,154.1
	c1.463-1.866,3.061-3.714,4.427-5.722c0.88-1.288,1.584-2.75,2.084-4.232c1.312-3.881-0.188-6.473-4.162-7.485
	c-0.088-0.022-0.176-0.036-0.266-0.053c-2.924-0.61-5.845-0.39-8.759,0.066c-1.014,0.157-2.015,0.371-2.869,0.531
	c0.449,3.321,0.882,6.517,1.329,9.713c0.031,0.223,0.136,0.497,0.299,0.635C223.115,149.691,225.696,151.812,228.467,154.1
	 M194.447,177.224c1.139,3.758,2.387,7.403,4.944,10.41c0.646,0.761,1.464,1.424,2.317,1.945c1.472,0.898,3.079,0.924,4.583,0.078
	c0.853-0.478,1.678-1.093,2.338-1.812c2.689-2.923,4.072-6.546,5.34-10.241c-0.134-0.072-0.207-0.119-0.287-0.15
	c-2.987-1.153-5.972-2.31-8.968-3.438c-0.28-0.107-0.663-0.098-0.948,0.003c-2.364,0.826-4.711,1.697-7.072,2.532
	C195.978,176.806,195.236,176.988,194.447,177.224 M195.201,134.364c0.216,0.079,0.361,0.129,0.505,0.184
	c2.86,1.108,5.727,2.198,8.575,3.333c0.46,0.186,0.824,0.176,1.278,0.009c2.717-0.977,5.444-1.924,8.168-2.878
	c0.313-0.108,0.635-0.19,1-0.298c-1.088-3.617-2.306-7.104-4.65-10.058c-0.626-0.783-1.393-1.499-2.219-2.064
	c-1.749-1.197-3.654-1.26-5.4-0.063c-1.077,0.738-2.065,1.698-2.87,2.734C197.497,127.947,196.295,131.096,195.201,134.364
	 M191.823,155.744c0.066,2.104,0.126,4.203,0.198,6.303c0.016,0.424,0.058,0.798,0.496,1.097c3.553,2.413,7.209,4.641,11.06,6.555
	c0.531,0.264,0.955,0.298,1.507,0.044c3.836-1.775,7.555-3.758,11.113-6.046c0.503-0.323,0.712-0.688,0.743-1.244
	c0.093-1.6,0.273-3.199,0.293-4.802c0.026-2.596-0.031-5.193-0.103-7.789c-0.01-0.349-0.201-0.827-0.47-1.012
	c-3.552-2.495-7.265-4.72-11.153-6.655c-0.498-0.249-0.894-0.239-1.388-0.01c-3.856,1.785-7.599,3.771-11.172,6.081
	c-0.475,0.308-0.68,0.657-0.713,1.191C192.107,151.552,191.963,153.645,191.823,155.744 M217.985,133.957
	c3.138-0.633,6.273-1.108,9.447-0.883c1.698,0.121,3.432,0.36,5.053,0.859c5.138,1.579,7.276,5.725,5.744,10.869
	c-1.05,3.519-3.092,6.458-5.442,9.204c-0.702,0.82-1.448,1.603-2.17,2.4c1.009,1.254,2.03,2.461,2.978,3.721
	c1.742,2.325,3.238,4.792,4.083,7.601c0.489,1.628,0.647,3.29,0.34,4.959c-0.577,3.107-2.562,4.989-5.441,6.026
	c-2.357,0.852-4.819,1.094-7.283,0.867c-2.488-0.229-4.955-0.71-7.432-1.084c-0.222-0.031-0.441-0.081-0.684-0.125
	c-0.463,1.213-0.894,2.419-1.386,3.604c-1.089,2.617-2.393,5.125-4.269,7.271c-0.78,0.898-1.652,1.747-2.606,2.454
	c-3.185,2.359-6.751,2.281-9.892-0.139c-1.896-1.461-3.272-3.355-4.438-5.417c-1.351-2.392-2.32-4.942-3.128-7.557
	c-0.066-0.214-0.131-0.425-0.199-0.645c-1.614,0.242-3.188,0.531-4.775,0.707c-3.484,0.387-6.958,0.402-10.317-0.798
	c-2.945-1.05-4.979-2.985-5.583-6.162c-0.358-1.876,0.014-3.689,0.653-5.452c1.272-3.503,3.45-6.432,5.913-9.169
	c0.451-0.503,0.923-0.993,1.441-1.546c-0.151-0.18-0.299-0.367-0.456-0.547c-2.385-2.736-4.547-5.621-5.998-8.98
	c-0.926-2.14-1.401-4.364-0.99-6.677c0.624-3.496,2.985-5.389,6.225-6.344c3.073-0.905,6.209-0.857,9.344-0.435
	c1.765,0.237,3.513,0.592,5.313,0.907c0.346-0.93,0.685-1.907,1.066-2.866c1.217-3.039,2.658-5.961,4.915-8.365
	c0.96-1.024,2.075-1.977,3.278-2.693c2.611-1.546,5.298-1.436,7.901,0.135c1.697,1.022,2.996,2.46,4.119,4.066
	c2.043,2.922,3.352,6.181,4.406,9.559c0.053,0.173,0.102,0.346,0.16,0.519C217.889,133.839,217.925,133.87,217.985,133.957"/>
<path fill="#333333" d="M207.993,156.001c0.022-1.876-1.474-3.406-3.358-3.435c-1.881-0.027-3.418,1.458-3.452,3.34
	c-0.036,1.908,1.474,3.454,3.391,3.473C206.444,159.395,207.97,157.887,207.993,156.001 M211.249,156.07
	c-0.059,3.688-3.094,6.627-6.779,6.564c-3.687-0.066-6.616-3.108-6.542-6.797c0.068-3.658,3.09-6.58,6.741-6.526
	C208.362,149.361,211.307,152.388,211.249,156.07"/>
</svg>
