<?xml version="1.0" encoding="utf-8"?>
<!-- Generator: Adobe Illustrator 16.0.0, SVG Export Plug-In . SVG Version: 6.00 Build 0)  -->
<!DOCTYPE svg PUBLIC "-//W3C//DTD SVG 1.0//EN" "http://www.w3.org/TR/2001/REC-SVG-20010904/DTD/svg10.dtd">
<svg version="1.0" xmlns="http://www.w3.org/2000/svg" xmlns:xlink="http://www.w3.org/1999/xlink" x="0px" y="0px" width="300px"
	 height="300px" viewBox="0 0 300 300" style="enable-background:new 0 0 300 300;" xml:space="preserve">
<g id="Icon">
	<text transform="matrix(1 0 0 1 285.7285 142.229)" style="fill:#9786A9; font-family:'FSMatthew-Light'; font-size:5;"> </text>
	<path style="fill:#58595B;" d="M45.86,164.663c-0.265-1.938-2.693-3.378-5.565-3.306c-2.458,0.061-4.753,1.598-4.9,3.306H45.86z
		 M51.585,178.306H29.623v1.777h21.962V178.306z M49.682,166.729H31.528v9.498h18.153V166.729z M22.58,124.191
		c-0.018,0.125-0.035,0.196-0.035,0.267c-0.001,3.363-0.047,6.727,0.014,10.089c0.055,2.923,1.868,5.218,4.575,5.979
		c0.203,0.057,0.415,0.08,0.635,0.121v-16.456H22.58z M53.412,140.66c0.238-0.047,0.436-0.072,0.626-0.124
		c2.752-0.756,4.589-3.179,4.606-6.132c0.02-3.234,0.006-6.468,0.004-9.702c0-0.162-0.021-0.323-0.03-0.479h-5.206V140.66z
		 M29.846,124.197v0.499c0,4.77-0.008,9.539,0.011,14.309c0.002,0.716,0.08,1.44,0.203,2.147c0.976,5.569,6.606,9.54,12.163,8.595
		c5.446-0.926,9.144-5.279,9.154-10.801c0.01-4.733,0.002-9.465,0.001-14.198c0-0.177-0.019-0.355-0.029-0.551H29.846z
		 M41.611,151.848v6.305c0,1.181,0.002,1.172,1.128,1.451c1.371,0.34,2.599,0.952,3.612,1.953c0.867,0.856,1.407,1.887,1.6,3.133
		c0.865,0,1.713-0.004,2.562,0.002c0.821,0.006,1.184,0.365,1.184,1.188c0.004,3.237,0.002,6.474,0.002,9.712v0.684
		c0.328,0,0.617-0.016,0.903,0.004c0.638,0.045,0.993,0.396,1.001,1.029c0.016,1.256,0.018,2.514-0.001,3.772
		c-0.01,0.687-0.41,1.028-1.165,1.028c-3.366,0.004-6.732,0.002-10.1,0.002c-4.476,0-8.953,0-13.429,0
		c-1.015,0-1.324-0.309-1.326-1.319c-0.002-1.093-0.004-2.183,0.001-3.274c0.004-0.904,0.33-1.228,1.24-1.242
		c0.202-0.004,0.403,0,0.671,0v-0.64c0-3.219-0.001-6.437,0.001-9.655c0-0.963,0.329-1.287,1.306-1.289c0.813-0.002,1.625,0,2.451,0
		c0.108-0.379,0.181-0.742,0.312-1.082c0.811-2.11,2.475-3.238,4.536-3.899c0.176-0.056,0.357-0.095,0.537-0.134
		c0.974-0.211,0.974-0.209,0.974-1.186v-5.939v-0.436c-1.45-0.437-2.86-0.715-4.146-1.276c-3.391-1.48-5.683-4.044-6.916-7.534
		c-0.122-0.345-0.262-0.478-0.643-0.514c-4.1-0.384-7.284-3.863-7.35-8.108c-0.056-3.735-0.017-7.472-0.011-11.209
		c0.001-0.848,0.373-1.196,1.239-1.196c12.541-0.001,25.082-0.001,37.624,0c0.881,0,1.235,0.355,1.236,1.254
		c0.005,3.662,0.024,7.325-0.005,10.987c-0.034,4.368-3.115,7.796-7.415,8.276c-0.337,0.038-0.418,0.199-0.512,0.456
		c-1.697,4.626-4.957,7.458-9.776,8.489C42.523,151.729,42.099,151.773,41.611,151.848"/>
	<path style="fill:#58595B;" d="M31.844,136.729c0-0.906-0.006-1.813,0.002-2.719c0.006-0.735,0.419-1.194,1.035-1.175
		c0.595,0.018,0.958,0.457,0.959,1.183c0.005,1.609,0,3.218,0.002,4.827c0.006,3.906,2.647,6.746,6.529,7.022
		c0.11,0.008,0.222,0.01,0.332,0.025c0.571,0.08,0.913,0.461,0.903,1.004c-0.011,0.556-0.406,0.998-0.998,0.961
		c-0.788-0.048-1.596-0.113-2.353-0.321c-3.729-1.026-6.315-4.385-6.406-8.255c-0.019-0.85-0.003-1.701-0.003-2.552H31.844z"/>
	<path style="fill:#58595B;" d="M35.044,173.242H46.13v-3.528H35.044V173.242z M40.556,175.275c-2.088,0-4.176,0.004-6.264,0
		c-0.952-0.002-1.274-0.32-1.276-1.254c-0.004-1.701-0.005-3.4,0-5.101c0.003-0.897,0.345-1.233,1.245-1.233
		c4.231-0.002,8.463-0.002,12.695,0c0.866,0,1.216,0.342,1.22,1.203c0.006,1.736,0.007,3.473-0.001,5.211
		c-0.003,0.83-0.346,1.17-1.188,1.172C44.843,175.281,42.699,175.275,40.556,175.275"/>
</g>
<g id="Text" style="display:none;">
	<text transform="matrix(1 0 0 1 68.7539 142.229)" style="display:inline;"><tspan x="0" y="0" style="fill:#837199; font-family:'FSMatthew-Bold'; font-size:29.1597; letter-spacing:-1;">R</tspan><tspan x="16.329" y="0" style="fill:#837199; font-family:'FSMatthew-Bold'; font-size:29.1597;">a</tspan><tspan x="31.143" y="0" style="fill:#837199; font-family:'FSMatthew-Bold'; font-size:29.1597;">n</tspan><tspan x="47.209" y="0" style="fill:#837199; font-family:'FSMatthew-Bold'; font-size:29.1597; letter-spacing:-1;">k</tspan><tspan x="61.322" y="0" style="fill:#837199; font-family:'FSMatthew-Bold'; font-size:29.1597;">ed</tspan><tspan x="91.502" y="0" style="fill:#837199; font-family:'FSMatthew-Bold'; font-size:29.1597;"> </tspan></text>
	<text transform="matrix(1 0 0 1 165.7979 142.229)" style="display:inline;"><tspan x="0" y="0" style="fill:#837199; font-family:'FSMatthew-Bold'; font-size:29.1597;">number</tspan><tspan x="99.899" y="0" style="fill:#837199; font-family:'FSMatthew-Bold'; font-size:29.1597; letter-spacing:-2;"> </tspan><tspan x="104.156" y="0" style="fill:#837199; font-family:'FSMatthew-Bold'; font-size:29.1597;">1</tspan></text>
	<text transform="matrix(1 0 0 1 68.7539 155.2285)" style="display:inline;"><tspan x="0" y="0" style="fill:#58595B; font-family:'FSMatthew-Light'; font-size:9;"> in the UK </tspan><tspan x="38.51" y="0" style="fill:#58595B; font-family:'FSMatthew-Light'; font-size:9;">f</tspan><tspan x="41.525" y="0" style="fill:#58595B; font-family:'FSMatthew-Light'; font-size:9;">o</tspan><tspan x="46.178" y="0" style="fill:#58595B; font-family:'FSMatthew-Light'; font-size:9;">r go</tspan><tspan x="60.713" y="0" style="fill:#58595B; font-family:'FSMatthew-Light'; font-size:9;">o</tspan><tspan x="65.365" y="0" style="fill:#58595B; font-family:'FSMatthew-Light'; font-size:9;">d </tspan><tspan x="72.232" y="0" style="fill:#58595B; font-family:'FSMatthew-Light'; font-size:9;">t</tspan><tspan x="75.463" y="0" style="fill:#58595B; font-family:'FSMatthew-Light'; font-size:9;">ea</tspan><tspan x="84.427" y="0" style="fill:#58595B; font-family:'FSMatthew-Light'; font-size:9;">c</tspan><tspan x="88.423" y="0" style="fill:#58595B; font-family:'FSMatthew-Light'; font-size:9;">he</tspan><tspan x="97.738" y="0" style="fill:#58595B; font-family:'FSMatthew-Light'; font-size:9;">r</tspan><tspan x="100.825" y="0" style="fill:#58595B; font-family:'FSMatthew-Light'; font-size:9;">s by th</tspan><tspan x="126.564" y="0" style="fill:#58595B; font-family:'FSMatthew-Light'; font-size:9;">e</tspan></text>
	<text transform="matrix(1 0 0 1 199.7764 155.2285)" style="display:inline;"><tspan x="0" y="0" style="fill:#58595B; font-family:'FSMatthew-Light'; font-size:9;"> In</tspan><tspan x="9.225" y="0" style="fill:#58595B; font-family:'FSMatthew-Light'; font-size:9;">t</tspan><tspan x="12.456" y="0" style="fill:#58595B; font-family:'FSMatthew-Light'; font-size:9;">e</tspan><tspan x="16.875" y="0" style="fill:#58595B; font-family:'FSMatthew-Light'; font-size:9;">rna</tspan><tspan x="29.394" y="0" style="fill:#58595B; font-family:'FSMatthew-Light'; font-size:9;">ti</tspan><tspan x="34.803" y="0" style="fill:#58595B; font-family:'FSMatthew-Light'; font-size:9;">ona</tspan><tspan x="48.887" y="0" style="fill:#58595B; font-family:'FSMatthew-Light'; font-size:9;">l </tspan></text>
	<text transform="matrix(1 0 0 1 68.7539 166.2266)" style="display:inline;"><tspan x="0" y="0" style="fill:#58595B; font-family:'FSMatthew-Light'; font-size:9;"> S</tspan><tspan x="6.804" y="0" style="fill:#58595B; font-family:'FSMatthew-Light'; font-size:9;">t</tspan><tspan x="10.134" y="0" style="fill:#58595B; font-family:'FSMatthew-Light'; font-size:9;">u</tspan><tspan x="14.868" y="0" style="fill:#58595B; font-family:'FSMatthew-Light'; font-size:9;">d</tspan><tspan x="19.665" y="0" style="fill:#58595B; font-family:'FSMatthew-Light'; font-size:9;">e</tspan><tspan x="24.084" y="0" style="fill:#58595B; font-family:'FSMatthew-Light'; font-size:9;">n</tspan><tspan x="28.971" y="0" style="fill:#58595B; font-family:'FSMatthew-Light'; font-size:9;">t</tspan><tspan x="32.417" y="0" style="fill:#58595B; font-family:'FSMatthew-Light'; font-size:9;"> Ba</tspan><tspan x="44.145" y="0" style="fill:#58595B; font-family:'FSMatthew-Light'; font-size:9;">r</tspan><tspan x="47.016" y="0" style="fill:#58595B; font-family:'FSMatthew-Light'; font-size:9;">o</tspan><tspan x="51.668" y="0" style="fill:#58595B; font-family:'FSMatthew-Light'; font-size:9;">m</tspan><tspan x="59.471" y="0" style="fill:#58595B; font-family:'FSMatthew-Light'; font-size:9;">e</tspan><tspan x="63.89" y="0" style="fill:#58595B; font-family:'FSMatthew-Light'; font-size:9;">t</tspan><tspan x="67.13" y="0" style="fill:#58595B; font-family:'FSMatthew-Light'; font-size:9;">e</tspan><tspan x="71.549" y="0" style="fill:#58595B; font-family:'FSMatthew-Light'; font-size:9;">r</tspan></text>
</g>
<g id="Text_Flat">
	<g>
		<path style="fill:#837199;" d="M85.462,142.2c-0.758,0.117-1.545,0.175-2.449,0.175c-0.816,0-1.633-0.029-2.187-0.146
			l-3.995-7.086H75.11v7.086c-0.729,0.117-1.341,0.146-2.128,0.146c-0.7,0-1.312-0.029-2.042-0.146v-19.712
			c1.342-0.087,4.141-0.146,5.832-0.146c4.957,0,7.436,1.75,7.436,6.298c0,2.42-1.458,4.84-3.499,5.715L85.462,142.2z
			 M77.035,125.783c-0.642,0-1.429,0.029-1.925,0.058v5.832h1.458c2.392,0,3.441-0.875,3.441-3.033S78.96,125.783,77.035,125.783z"
			/>
		<path style="fill:#837199;" d="M98.992,138.001c0,1.254,0.029,2.683,0.029,4.228c-0.467,0.117-1.254,0.146-1.75,0.146
			c-0.554,0-1.283-0.059-1.749-0.146c-0.059-0.35-0.117-0.962-0.146-1.341h-0.058c-0.992,1.021-2.683,1.633-4.229,1.633
			c-2.916,0-5.016-1.808-5.016-4.811c0-4.666,4.141-5.453,7.611-5.453c0.232,0,0.787,0.029,1.253,0.059
			c0-0.175-0.028-0.554-0.058-0.7c-0.204-1.195-0.991-1.691-2.683-1.691c-1.312,0-3.149,0.262-4.549,0.612
			c-0.146-0.408-0.233-1.108-0.233-1.633c0-0.438,0.058-1.108,0.175-1.4c1.633-0.496,3.645-0.758,5.307-0.758
			c3.646,0,6.095,1.691,6.095,5.482V138.001z M94.968,135.114c-0.35-0.029-0.816-0.059-1.225-0.059c-2.624,0-3.645,1.05-3.645,2.362
			c0,1.137,0.758,1.925,2.07,1.925c0.962,0,2.041-0.467,2.799-1.137V135.114z"/>
		<path style="fill:#837199;" d="M115.06,142.229c-0.467,0.117-1.458,0.146-1.925,0.146c-0.495,0-1.633-0.059-2.1-0.146v-9.973
			c0-1.575-0.816-2.245-2.128-2.245c-1.05,0-2.246,0.379-3.179,0.962v11.255c-0.671,0.117-1.604,0.146-2.129,0.146
			c-0.467,0-1.312-0.029-1.896-0.146v-15.192c0.379-0.088,1.312-0.146,1.75-0.146c0.408,0,1.254,0.058,1.691,0.146l0.204,1.341
			c1.312-0.962,3.207-1.633,4.898-1.633c3.208,0,4.812,1.983,4.812,5.307V142.229z"/>
		<path style="fill:#837199;" d="M131.33,142.229c-0.496,0.087-1.517,0.146-2.188,0.146c-0.583,0-1.778-0.059-2.216-0.146
			l-3.878-6.532l-1.254,1.195v5.336c-0.525,0.117-1.604,0.146-2.07,0.146c-0.7,0-1.458-0.059-1.954-0.146v-21.257
			c0.642-0.087,1.429-0.146,1.954-0.146c0.699,0,1.429,0.059,2.07,0.146v11.664l3.12-3.033c0.846-0.846,1.429-1.808,1.545-2.566
			c0.496-0.088,1.429-0.146,1.954-0.146c0.612,0,1.458,0.058,1.866,0.146c-0.116,1.516-0.875,2.887-2.537,4.549l-1.982,1.924
			L131.33,142.229z"/>
		<path style="fill:#837199;" d="M144.481,136.047h-9.215c0.059,1.895,1.37,3.295,3.907,3.295c1.371,0,2.771-0.175,3.966-0.496
			c0.175,0.787,0.292,1.662,0.292,2.449c0,0.117,0,0.262-0.029,0.583c-1.487,0.438-3.033,0.642-4.549,0.642
			c-5.541,0-7.844-3.178-7.844-7.814c0-4.053,2.274-7.961,7.202-7.961c4.665,0,6.356,3.441,6.356,7.232
			C144.568,134.502,144.568,135.289,144.481,136.047z M140.545,133.16c0-1.837-0.496-3.382-2.392-3.382
			c-1.808,0-2.771,1.429-2.887,3.382H140.545z"/>
		<path style="fill:#837199;" d="M159.352,142.229c-0.467,0.087-1.254,0.146-1.866,0.146c-0.554,0-1.195-0.059-1.604-0.146
			l-0.117-1.341c-1.05,1.021-2.391,1.633-3.965,1.633c-4.345,0-6.212-3.47-6.212-7.64c0-4.491,2.013-8.136,6.648-8.136
			c1.138,0,2.45,0.35,3.092,0.758v-6.532c0.524-0.087,1.399-0.146,2.041-0.146c0.787,0,1.399,0.088,1.982,0.146V142.229z
			 M155.328,130.507c-0.7-0.321-1.604-0.496-2.362-0.496c-2.362,0-3.236,2.1-3.236,4.636c0,2.129,0.524,4.549,2.887,4.549
			c1.137,0,2.012-0.466,2.712-1.05V130.507z"/>
	</g>
	<g>
		<path style="fill:#837199;" d="M180.961,142.229c-0.467,0.117-1.458,0.146-1.925,0.146c-0.495,0-1.633-0.059-2.1-0.146v-9.973
			c0-1.575-0.816-2.245-2.128-2.245c-1.05,0-2.246,0.379-3.179,0.962v11.255c-0.671,0.117-1.604,0.146-2.129,0.146
			c-0.467,0-1.312-0.029-1.896-0.146v-15.192c0.379-0.088,1.312-0.146,1.75-0.146c0.408,0,1.254,0.058,1.691,0.146l0.204,1.341
			c1.312-0.962,3.207-1.633,4.898-1.633c3.208,0,4.812,1.983,4.812,5.307V142.229z"/>
		<path style="fill:#837199;" d="M196.97,136.368c0,4.345-2.042,6.152-6.591,6.152c-4.432,0-6.473-1.808-6.473-6.152v-9.331
			c0.408-0.059,1.195-0.146,1.982-0.146c0.7,0,1.574,0.058,2.041,0.146v9.302c0,2.274,0.671,3.091,2.508,3.091
			c1.866,0,2.508-0.816,2.508-3.091v-9.302c0.408-0.088,1.312-0.146,2.041-0.146c0.729,0,1.691,0.087,1.983,0.146V136.368z"/>
		<path style="fill:#837199;" d="M222.774,142.229c-0.466,0.117-1.458,0.146-1.924,0.146c-0.496,0-1.634-0.059-2.1-0.146v-9.156
			c0-1.108-0.029-1.924-0.438-2.42c-0.379-0.467-0.963-0.642-1.691-0.642c-0.991,0-2.391,0.438-3.295,0.991
			c0.029,0.496,0.059,0.992,0.059,1.575v9.652c-0.467,0.117-1.458,0.146-1.925,0.146c-0.496,0-1.633-0.059-2.1-0.146v-9.156
			c0-1.108-0.029-1.924-0.438-2.42c-0.379-0.467-0.962-0.642-1.691-0.642c-1.021,0-2.332,0.408-3.236,0.962v11.255
			c-0.671,0.117-1.604,0.146-2.129,0.146c-0.467,0-1.312-0.029-1.896-0.146v-15.192c0.379-0.088,1.312-0.146,1.75-0.146
			c0.408,0,1.254,0.058,1.691,0.146l0.175,1.37c1.283-0.962,3.12-1.662,4.753-1.662c1.691,0,3.179,0.583,4.315,1.837
			c1.575-1.079,3.47-1.837,5.395-1.837c1.429,0,2.887,0.583,3.616,1.458c0.903,1.079,1.107,2.479,1.107,4.607V142.229z"/>
		<path style="fill:#837199;" d="M231.465,142.521c-1.399,0-3.791-0.175-5.687-0.904v-20.645c0.438-0.087,1.254-0.146,1.954-0.146
			c0.875,0,1.749,0.088,2.07,0.146v6.736c0.904-0.496,2.274-0.962,3.558-0.962c4.549,0,6.182,3.645,6.182,7.29
			C239.542,139.051,236.918,142.521,231.465,142.521z M232.573,130.011c-0.963,0-2.013,0.321-2.771,0.816v8.34
			c0.438,0.116,1.225,0.204,2.012,0.204c2.566,0,3.587-1.808,3.587-5.103C235.401,131.994,234.73,130.011,232.573,130.011z"/>
		<path style="fill:#837199;" d="M254.326,136.047h-9.215c0.059,1.895,1.37,3.295,3.907,3.295c1.371,0,2.771-0.175,3.966-0.496
			c0.175,0.787,0.292,1.662,0.292,2.449c0,0.117,0,0.262-0.029,0.583c-1.487,0.438-3.033,0.642-4.549,0.642
			c-5.541,0-7.845-3.178-7.845-7.814c0-4.053,2.275-7.961,7.203-7.961c4.665,0,6.356,3.441,6.356,7.232
			C254.413,134.502,254.413,135.289,254.326,136.047z M250.39,133.16c0-1.837-0.496-3.382-2.392-3.382
			c-1.808,0-2.771,1.429-2.887,3.382H250.39z"/>
		<path style="fill:#837199;" d="M265.231,130.128c-1.517,0.233-3.149,0.758-4.607,1.516v10.585
			c-0.408,0.087-1.283,0.146-1.983,0.146c-0.699,0-1.72-0.059-2.041-0.146v-15.192c0.438-0.059,1.167-0.146,1.75-0.146
			c0.495,0,1.283,0.058,1.691,0.146l0.233,1.866c1.078-0.962,3.032-2.012,4.928-2.158c0.059,0.233,0.116,1.079,0.116,1.691
			C265.318,129.02,265.289,129.72,265.231,130.128z"/>
		<path style="fill:#837199;" d="M281.647,142.229c-0.438,0.087-1.225,0.146-2.07,0.146c-0.816,0-1.546-0.059-2.07-0.146v-15.076
			l-4.141,2.741c-0.992-0.904-1.691-2.128-1.954-3.178l6.853-4.199c0.408-0.087,1.254-0.146,1.691-0.146
			c0.495,0,1.399,0.087,1.691,0.146V142.229z"/>
	</g>
	<g>
		<path style="fill:#58595B;" d="M71.761,149.62c-0.207,0-0.378-0.18-0.378-0.396c0-0.216,0.171-0.387,0.378-0.387
			s0.387,0.171,0.387,0.387C72.147,149.44,71.968,149.62,71.761,149.62z M72.058,155.229c-0.081,0.027-0.198,0.045-0.297,0.045
			c-0.1,0-0.207-0.018-0.288-0.045v-4.69c0.072-0.018,0.188-0.045,0.279-0.045c0.099,0,0.233,0.018,0.306,0.045V155.229z"/>
		<path style="fill:#58595B;" d="M77.008,155.238c-0.071,0.018-0.18,0.035-0.288,0.035c-0.09,0-0.207-0.018-0.297-0.045v-2.854
			c0-0.432-0.054-0.766-0.18-0.999c-0.153-0.288-0.441-0.432-0.909-0.432c-0.45,0-0.99,0.251-1.342,0.522v3.763
			c-0.099,0.027-0.198,0.045-0.306,0.045c-0.091,0-0.198-0.018-0.279-0.045v-4.69c0.062-0.027,0.171-0.036,0.234-0.036
			c0.09,0,0.197,0.009,0.252,0.036l0.045,0.468h0.009c0.495-0.405,1.062-0.558,1.521-0.558s0.937,0.153,1.197,0.468
			c0.288,0.342,0.342,0.837,0.342,1.324V155.238z"/>
		<path style="fill:#58595B;" d="M82.857,155.184c-0.233,0.082-0.585,0.135-0.846,0.135c-0.892,0-1.314-0.422-1.314-1.422v-2.899
			h-0.811c-0.018-0.045-0.026-0.153-0.026-0.207c0-0.045,0.009-0.153,0.026-0.198l0.811-0.054v-1.224
			c0.072-0.027,0.189-0.045,0.288-0.045s0.225,0.018,0.297,0.045v1.224h1.323c0.019,0.045,0.036,0.18,0.036,0.225
			c0,0.063-0.018,0.171-0.036,0.234h-1.323v2.845c0,0.711,0.207,1.009,0.766,1.009c0.306,0,0.603-0.046,0.81-0.109
			c0.019,0.046,0.036,0.154,0.036,0.217C82.894,155.04,82.885,155.104,82.857,155.184z"/>
		<path style="fill:#58595B;" d="M87.42,155.229c-0.081,0.027-0.18,0.045-0.27,0.045c-0.108,0-0.226-0.018-0.315-0.045v-2.844
			c0-0.99-0.252-1.441-1.089-1.441c-0.45,0-0.99,0.251-1.342,0.522v3.763c-0.099,0.027-0.207,0.045-0.306,0.045
			c-0.091,0-0.198-0.018-0.279-0.045v-6.571c0.081-0.027,0.207-0.045,0.288-0.045s0.216,0.018,0.297,0.045v2.313
			c0.478-0.369,1.044-0.522,1.485-0.522c0.459,0,0.928,0.153,1.188,0.468c0.288,0.342,0.342,0.837,0.342,1.324V155.229z"/>
		<path style="fill:#58595B;" d="M92.056,153.041H89.04c0.036,1.035,0.522,1.818,1.647,1.818c0.405,0,0.783-0.054,1.116-0.135
			c0.019,0.045,0.036,0.135,0.036,0.189c0,0.09-0.018,0.171-0.045,0.234c-0.352,0.107-0.792,0.17-1.161,0.17
			c-0.712,0-1.252-0.225-1.585-0.584c-0.396-0.433-0.603-1.081-0.603-1.828c0-1.305,0.657-2.458,1.971-2.458
			c1.18,0,1.647,0.972,1.647,2.161C92.064,152.744,92.064,152.906,92.056,153.041z M91.479,152.609c0-0.828-0.09-1.72-1.089-1.72
			c-0.873,0-1.297,0.802-1.351,1.72H91.479z"/>
		<path style="fill:#58595B;" d="M95.934,153.149c0,0.595,0.099,1.044,0.359,1.333c0.226,0.242,0.567,0.387,1.081,0.387
			c0.513,0,0.864-0.145,1.089-0.387c0.261-0.289,0.36-0.738,0.36-1.333v-4.006c0.081-0.027,0.225-0.045,0.306-0.045
			c0.09,0,0.226,0.018,0.307,0.045v3.917c0,0.802-0.153,1.359-0.531,1.737c-0.333,0.333-0.838,0.521-1.53,0.521
			c-0.693,0-1.188-0.188-1.521-0.521c-0.379-0.378-0.531-0.936-0.531-1.737v-3.917c0.071-0.027,0.198-0.045,0.306-0.045
			c0.108,0,0.216,0.018,0.307,0.045V153.149z"/>
		<path style="fill:#58595B;" d="M104.997,155.229c-0.071,0.027-0.216,0.045-0.324,0.045c-0.107,0-0.233-0.008-0.387-0.045
			l-2.008-2.988l-0.648,0.729v2.26c-0.071,0.027-0.216,0.045-0.314,0.045c-0.1,0-0.226-0.018-0.297-0.045v-6.085
			c0.071-0.027,0.197-0.045,0.297-0.045c0.099,0,0.243,0.018,0.314,0.045v3.052l1.918-2.197c0.271-0.306,0.414-0.604,0.459-0.855
			c0.081-0.009,0.198-0.027,0.288-0.027s0.234,0.018,0.297,0.027c-0.018,0.288-0.197,0.675-0.566,1.099l-1.351,1.557
			L104.997,155.229z"/>
		<path style="fill:#58595B;" d="M110.531,149.044c-0.135-0.036-0.378-0.072-0.566-0.072c-0.343,0-0.595,0.09-0.766,0.279
			c-0.261,0.279-0.306,0.657-0.306,1.134v0.153h1.269c0.019,0.045,0.036,0.153,0.036,0.216c0,0.072-0.018,0.18-0.036,0.243h-1.269
			v4.231c-0.081,0.027-0.172,0.045-0.288,0.045c-0.117,0-0.217-0.018-0.298-0.045v-4.231h-0.81
			c-0.019-0.045-0.027-0.162-0.027-0.216c0-0.045,0.009-0.144,0.027-0.189l0.81-0.054v-0.153c0-0.639,0.108-1.081,0.478-1.45
			c0.261-0.261,0.648-0.387,1.089-0.387c0.234,0,0.495,0.054,0.657,0.117c0.019,0.045,0.027,0.108,0.027,0.171
			C110.559,148.891,110.55,148.999,110.531,149.044z"/>
		<path style="fill:#58595B;" d="M112.566,155.318c-1.18,0-1.936-0.81-1.936-2.43c0-1.621,0.765-2.44,1.944-2.44
			c1.179,0,1.927,0.801,1.927,2.421S113.745,155.318,112.566,155.318z M112.575,150.89c-0.864,0-1.333,0.667-1.333,1.989
			c0,1.324,0.46,1.999,1.324,1.999s1.323-0.675,1.323-1.999C113.89,151.557,113.439,150.89,112.575,150.89z"/>
		<path style="fill:#58595B;" d="M117.642,150.971c-0.522,0.072-1.09,0.262-1.513,0.586v3.672c-0.09,0.027-0.198,0.045-0.297,0.045
			c-0.1,0-0.198-0.018-0.288-0.045v-4.69c0.054-0.018,0.135-0.036,0.225-0.036c0.072,0,0.171,0.018,0.243,0.036l0.045,0.577h0.01
			c0.387-0.333,1.062-0.613,1.575-0.667c0.018,0.054,0.036,0.153,0.036,0.234C117.678,150.772,117.659,150.89,117.642,150.971z"/>
		<path style="fill:#58595B;" d="M124.104,154.445c0,0.676-0.036,1.486-0.359,2.044c-0.388,0.667-1.081,0.954-1.773,0.954
			c-0.396,0-0.738-0.045-1.026-0.144c-0.027-0.054-0.036-0.144-0.036-0.216c0-0.055,0.018-0.162,0.036-0.217
			c0.278,0.072,0.603,0.127,0.927,0.127c1.135,0,1.647-0.703,1.647-1.936v-0.379c-0.351,0.369-0.846,0.549-1.251,0.549
			c-1.197,0-1.818-0.927-1.818-2.232c0-1.602,0.945-2.547,2.34-2.547c0.369,0,0.928,0.108,1.314,0.261V154.445z M123.519,150.998
			c-0.324-0.09-0.558-0.117-0.783-0.117c-1.144,0-1.684,0.963-1.684,2.088c0,1,0.378,1.783,1.261,1.783
			c0.45,0,0.909-0.225,1.206-0.54V150.998z"/>
		<path style="fill:#58595B;" d="M127.092,155.318c-1.18,0-1.936-0.81-1.936-2.43c0-1.621,0.765-2.44,1.944-2.44
			c1.179,0,1.927,0.801,1.927,2.421S128.271,155.318,127.092,155.318z M127.101,150.89c-0.864,0-1.333,0.667-1.333,1.989
			c0,1.324,0.46,1.999,1.324,1.999s1.323-0.675,1.323-1.999C128.415,151.557,127.965,150.89,127.101,150.89z"/>
		<path style="fill:#58595B;" d="M131.754,155.318c-1.18,0-1.936-0.81-1.936-2.43c0-1.621,0.765-2.44,1.944-2.44
			c1.179,0,1.927,0.801,1.927,2.421S132.933,155.318,131.754,155.318z M131.763,150.89c-0.864,0-1.333,0.667-1.333,1.989
			c0,1.324,0.46,1.999,1.324,1.999s1.323-0.675,1.323-1.999C133.077,151.557,132.627,150.89,131.763,150.89z"/>
		<path style="fill:#58595B;" d="M137.963,155.273c-0.081,0-0.18-0.026-0.233-0.045l-0.055-0.539h-0.009
			c-0.387,0.404-0.846,0.629-1.359,0.629c-1.242,0-1.836-1.035-1.836-2.295c0-1.252,0.53-2.575,1.962-2.575
			c0.45,0,0.864,0.153,1.197,0.387v-2.178c0.081-0.027,0.189-0.045,0.288-0.045c0.108,0,0.217,0.027,0.298,0.045v6.571
			C138.152,155.256,138.062,155.273,137.963,155.273z M137.63,151.331c-0.324-0.271-0.738-0.405-1.161-0.405
			c-1.044,0-1.396,1.026-1.396,2.07c0,0.801,0.252,1.846,1.261,1.846c0.486,0,0.981-0.243,1.296-0.621V151.331z"/>
		<path style="fill:#58595B;" d="M144.092,155.184c-0.233,0.082-0.585,0.135-0.846,0.135c-0.892,0-1.314-0.422-1.314-1.422v-2.899
			h-0.811c-0.018-0.045-0.026-0.153-0.026-0.207c0-0.045,0.009-0.153,0.026-0.198l0.811-0.054v-1.224
			c0.072-0.027,0.189-0.045,0.288-0.045s0.225,0.018,0.297,0.045v1.224h1.323c0.019,0.045,0.036,0.18,0.036,0.225
			c0,0.063-0.018,0.171-0.036,0.234h-1.323v2.845c0,0.711,0.207,1.009,0.766,1.009c0.306,0,0.603-0.046,0.81-0.109
			c0.019,0.046,0.036,0.154,0.036,0.217C144.128,155.04,144.119,155.104,144.092,155.184z"/>
		<path style="fill:#58595B;" d="M148.178,153.041h-3.016c0.036,1.035,0.522,1.818,1.647,1.818c0.405,0,0.783-0.054,1.116-0.135
			c0.019,0.045,0.036,0.135,0.036,0.189c0,0.09-0.018,0.171-0.045,0.234c-0.352,0.107-0.792,0.17-1.161,0.17
			c-0.712,0-1.252-0.225-1.585-0.584c-0.396-0.433-0.603-1.081-0.603-1.828c0-1.305,0.656-2.458,1.971-2.458
			c1.18,0,1.647,0.972,1.647,2.161C148.187,152.744,148.187,152.906,148.178,153.041z M147.602,152.609
			c0-0.828-0.09-1.72-1.089-1.72c-0.873,0-1.297,0.802-1.351,1.72H147.602z"/>
		<path style="fill:#58595B;" d="M152.463,154.076c0,0.324,0,0.729,0.018,1.152c-0.062,0.027-0.162,0.045-0.243,0.045
			c-0.071,0-0.171-0.018-0.243-0.045c-0.026-0.144-0.045-0.332-0.054-0.504h-0.009c-0.307,0.379-0.847,0.594-1.378,0.594
			c-0.837,0-1.539-0.467-1.539-1.431c0-0.55,0.225-0.954,0.576-1.206c0.396-0.279,0.918-0.369,1.477-0.369
			c0.315,0,0.576,0.018,0.811,0.054v-0.261c0-0.9-0.369-1.198-1.126-1.198c-0.423,0-0.945,0.09-1.27,0.17
			c-0.018-0.045-0.036-0.144-0.036-0.233c0-0.063,0.019-0.153,0.046-0.207c0.387-0.117,0.899-0.189,1.332-0.189
			c1.071,0,1.639,0.486,1.639,1.584V154.076z M151.878,152.807c-0.262-0.035-0.531-0.053-0.766-0.053
			c-0.441,0-0.837,0.08-1.107,0.287c-0.243,0.18-0.378,0.469-0.378,0.838c0,0.656,0.423,0.973,1.008,0.973
			c0.486,0,1-0.234,1.243-0.604V152.807z"/>
		<path style="fill:#58595B;" d="M156.746,151.105c-0.288-0.117-0.667-0.189-1-0.189c-1.17,0-1.603,0.91-1.603,2.007
			c0,1.08,0.414,1.918,1.594,1.918c0.315,0,0.693-0.054,0.973-0.135c0.018,0.054,0.036,0.117,0.036,0.189
			c0,0.107-0.019,0.188-0.045,0.252c-0.262,0.107-0.685,0.17-1.018,0.17c-1.468,0-2.151-0.963-2.151-2.376
			c0-1.468,0.747-2.494,2.178-2.494c0.343,0,0.748,0.081,1.026,0.207c0.027,0.072,0.036,0.144,0.036,0.225
			C156.772,150.971,156.764,151.043,156.746,151.105z"/>
		<path style="fill:#58595B;" d="M161.39,155.229c-0.081,0.027-0.18,0.045-0.27,0.045c-0.108,0-0.226-0.018-0.315-0.045v-2.844
			c0-0.99-0.252-1.441-1.089-1.441c-0.45,0-0.99,0.251-1.342,0.522v3.763c-0.099,0.027-0.207,0.045-0.306,0.045
			c-0.091,0-0.198-0.018-0.279-0.045v-6.571c0.081-0.027,0.207-0.045,0.288-0.045s0.216,0.018,0.297,0.045v2.313
			c0.478-0.369,1.044-0.522,1.485-0.522c0.459,0,0.928,0.153,1.188,0.468c0.288,0.342,0.342,0.837,0.342,1.324V155.229z"/>
		<path style="fill:#58595B;" d="M166.024,153.041h-3.016c0.036,1.035,0.522,1.818,1.647,1.818c0.405,0,0.783-0.054,1.116-0.135
			c0.019,0.045,0.036,0.135,0.036,0.189c0,0.09-0.018,0.171-0.045,0.234c-0.352,0.107-0.792,0.17-1.161,0.17
			c-0.712,0-1.252-0.225-1.585-0.584c-0.396-0.433-0.603-1.081-0.603-1.828c0-1.305,0.657-2.458,1.971-2.458
			c1.18,0,1.647,0.972,1.647,2.161C166.033,152.744,166.033,152.906,166.024,153.041z M165.448,152.609
			c0-0.828-0.09-1.72-1.089-1.72c-0.873,0-1.297,0.802-1.351,1.72H165.448z"/>
		<path style="fill:#58595B;" d="M169.202,150.971c-0.522,0.072-1.09,0.262-1.513,0.586v3.672c-0.09,0.027-0.198,0.045-0.297,0.045
			c-0.1,0-0.198-0.018-0.288-0.045v-4.69c0.054-0.018,0.135-0.036,0.225-0.036c0.072,0,0.171,0.018,0.243,0.036l0.045,0.577h0.01
			c0.387-0.333,1.062-0.613,1.575-0.667c0.018,0.054,0.036,0.153,0.036,0.234C169.238,150.772,169.22,150.89,169.202,150.971z"/>
		<path style="fill:#58595B;" d="M171.235,155.318c-0.45,0-0.918-0.08-1.242-0.207c-0.027-0.062-0.045-0.17-0.045-0.252
			c0-0.054,0.018-0.188,0.036-0.242c0.333,0.135,0.811,0.242,1.206,0.242c0.685,0,1.107-0.287,1.107-0.855
			c0-0.512-0.261-0.692-0.973-0.953c-0.99-0.36-1.313-0.775-1.313-1.387c0-0.829,0.684-1.215,1.566-1.215
			c0.297,0,0.684,0.054,0.909,0.126c0.026,0.081,0.036,0.162,0.036,0.216c0,0.072-0.019,0.198-0.036,0.261
			c-0.298-0.09-0.612-0.144-0.919-0.144c-0.639,0-1.026,0.243-1.026,0.739c0,0.432,0.243,0.639,0.981,0.918
			c0.676,0.252,1.297,0.504,1.297,1.413C172.82,154.896,172.127,155.318,171.235,155.318z"/>
		<path style="fill:#58595B;" d="M177.373,155.318c-0.414,0-0.945-0.062-1.44-0.242v-6.419c0.062-0.018,0.198-0.045,0.279-0.045
			c0.144,0,0.252,0.027,0.306,0.045v2.277c0.369-0.306,0.837-0.486,1.332-0.486c1.27,0,1.801,1.089,1.801,2.305
			C179.65,154.302,178.858,155.318,177.373,155.318z M177.77,150.953c-0.45,0-0.9,0.189-1.252,0.54v3.232
			c0.243,0.09,0.549,0.145,0.811,0.145c1.251,0,1.71-0.955,1.71-2.08C179.038,151.916,178.786,150.953,177.77,150.953z"/>
		<path style="fill:#58595B;" d="M184.205,154.445c0,0.873-0.036,1.495-0.352,2.053c-0.36,0.64-1.071,0.945-1.71,0.945
			c-0.469,0-0.793-0.045-1.081-0.144c-0.026-0.054-0.035-0.144-0.035-0.216c0-0.055,0.018-0.172,0.035-0.226
			c0.271,0.081,0.595,0.144,1.026,0.144c0.99,0,1.531-0.711,1.531-1.943v-0.316c-0.46,0.406-0.973,0.576-1.44,0.576
			c-0.505,0-0.9-0.125-1.152-0.432c-0.279-0.333-0.315-0.818-0.315-1.305v-3.043c0.072-0.018,0.188-0.045,0.279-0.045
			c0.107,0,0.225,0.027,0.306,0.045v2.944c0,0.432,0.036,0.793,0.198,1.035c0.144,0.207,0.378,0.315,0.729,0.315
			c0.558,0,1.089-0.298,1.396-0.595v-3.7c0.081-0.018,0.197-0.045,0.306-0.045c0.09,0,0.207,0.027,0.279,0.045V154.445z"/>
		<path style="fill:#58595B;" d="M190.081,155.184c-0.233,0.082-0.585,0.135-0.846,0.135c-0.892,0-1.314-0.422-1.314-1.422v-2.899
			h-0.811c-0.018-0.045-0.026-0.153-0.026-0.207c0-0.045,0.009-0.153,0.026-0.198l0.811-0.054v-1.224
			c0.072-0.027,0.189-0.045,0.288-0.045s0.225,0.018,0.297,0.045v1.224h1.323c0.019,0.045,0.036,0.18,0.036,0.225
			c0,0.063-0.018,0.171-0.036,0.234h-1.323v2.845c0,0.711,0.207,1.009,0.766,1.009c0.306,0,0.603-0.046,0.81-0.109
			c0.019,0.046,0.036,0.154,0.036,0.217C190.117,155.04,190.108,155.104,190.081,155.184z"/>
		<path style="fill:#58595B;" d="M194.645,155.229c-0.081,0.027-0.18,0.045-0.27,0.045c-0.108,0-0.226-0.018-0.315-0.045v-2.844
			c0-0.99-0.252-1.441-1.089-1.441c-0.45,0-0.99,0.251-1.342,0.522v3.763c-0.099,0.027-0.207,0.045-0.306,0.045
			c-0.091,0-0.198-0.018-0.279-0.045v-6.571c0.081-0.027,0.207-0.045,0.288-0.045s0.216,0.018,0.297,0.045v2.313
			c0.478-0.369,1.044-0.522,1.485-0.522c0.459,0,0.928,0.153,1.188,0.468c0.288,0.342,0.342,0.837,0.342,1.324V155.229z"/>
		<path style="fill:#58595B;" d="M199.279,153.041h-3.016c0.036,1.035,0.522,1.818,1.647,1.818c0.405,0,0.783-0.054,1.116-0.135
			c0.019,0.045,0.036,0.135,0.036,0.189c0,0.09-0.018,0.171-0.045,0.234c-0.352,0.107-0.792,0.17-1.161,0.17
			c-0.712,0-1.252-0.225-1.585-0.584c-0.396-0.433-0.603-1.081-0.603-1.828c0-1.305,0.656-2.458,1.971-2.458
			c1.18,0,1.647,0.972,1.647,2.161C199.288,152.744,199.288,152.906,199.279,153.041z M198.703,152.609
			c0-0.828-0.09-1.72-1.089-1.72c-0.873,0-1.297,0.802-1.351,1.72H198.703z"/>
	</g>
	<g>
		<path style="fill:#58595B;" d="M203.242,155.229c-0.072,0.027-0.207,0.045-0.307,0.045c-0.099,0-0.233-0.018-0.306-0.045v-6.085
			c0.072-0.027,0.207-0.045,0.306-0.045c0.1,0,0.234,0.018,0.307,0.045V155.229z"/>
		<path style="fill:#58595B;" d="M208.327,155.238c-0.071,0.018-0.18,0.035-0.288,0.035c-0.09,0-0.207-0.018-0.297-0.045v-2.854
			c0-0.432-0.054-0.766-0.18-0.999c-0.153-0.288-0.441-0.432-0.909-0.432c-0.45,0-0.99,0.251-1.342,0.522v3.763
			c-0.099,0.027-0.198,0.045-0.306,0.045c-0.091,0-0.198-0.018-0.279-0.045v-4.69c0.062-0.027,0.171-0.036,0.234-0.036
			c0.09,0,0.197,0.009,0.252,0.036l0.045,0.468h0.009c0.495-0.405,1.062-0.558,1.521-0.558s0.937,0.153,1.197,0.468
			c0.288,0.342,0.342,0.837,0.342,1.324V155.238z"/>
		<path style="fill:#58595B;" d="M212.106,155.184c-0.233,0.082-0.585,0.135-0.846,0.135c-0.892,0-1.314-0.422-1.314-1.422v-2.899
			h-0.811c-0.018-0.045-0.026-0.153-0.026-0.207c0-0.045,0.009-0.153,0.026-0.198l0.811-0.054v-1.224
			c0.072-0.027,0.189-0.045,0.288-0.045s0.225,0.018,0.297,0.045v1.224h1.323c0.019,0.045,0.036,0.18,0.036,0.225
			c0,0.063-0.018,0.171-0.036,0.234h-1.323v2.845c0,0.711,0.207,1.009,0.766,1.009c0.306,0,0.603-0.046,0.81-0.109
			c0.019,0.046,0.036,0.154,0.036,0.217C212.143,155.04,212.134,155.104,212.106,155.184z"/>
		<path style="fill:#58595B;" d="M216.193,153.041h-3.016c0.036,1.035,0.522,1.818,1.647,1.818c0.405,0,0.783-0.054,1.116-0.135
			c0.019,0.045,0.036,0.135,0.036,0.189c0,0.09-0.018,0.171-0.045,0.234c-0.352,0.107-0.792,0.17-1.161,0.17
			c-0.712,0-1.252-0.225-1.585-0.584c-0.396-0.433-0.603-1.081-0.603-1.828c0-1.305,0.656-2.458,1.971-2.458
			c1.18,0,1.647,0.972,1.647,2.161C216.202,152.744,216.202,152.906,216.193,153.041z M215.617,152.609
			c0-0.828-0.09-1.72-1.089-1.72c-0.873,0-1.297,0.802-1.351,1.72H215.617z"/>
		<path style="fill:#58595B;" d="M219.361,150.971c-0.522,0.072-1.09,0.262-1.513,0.586v3.672c-0.09,0.027-0.198,0.045-0.297,0.045
			c-0.1,0-0.198-0.018-0.288-0.045v-4.69c0.054-0.018,0.135-0.036,0.225-0.036c0.072,0,0.172,0.018,0.243,0.036l0.045,0.577h0.01
			c0.387-0.333,1.062-0.613,1.575-0.667c0.018,0.054,0.036,0.153,0.036,0.234C219.397,150.772,219.379,150.89,219.361,150.971z"/>
		<path style="fill:#58595B;" d="M223.96,155.238c-0.071,0.018-0.18,0.035-0.288,0.035c-0.09,0-0.207-0.018-0.297-0.045v-2.854
			c0-0.432-0.054-0.766-0.18-0.999c-0.153-0.288-0.441-0.432-0.909-0.432c-0.45,0-0.99,0.251-1.342,0.522v3.763
			c-0.099,0.027-0.198,0.045-0.306,0.045c-0.091,0-0.198-0.018-0.279-0.045v-4.69c0.062-0.027,0.171-0.036,0.234-0.036
			c0.09,0,0.197,0.009,0.252,0.036l0.045,0.468h0.009c0.495-0.405,1.062-0.558,1.521-0.558s0.937,0.153,1.197,0.468
			c0.288,0.342,0.342,0.837,0.342,1.324V155.238z"/>
		<path style="fill:#58595B;" d="M228.451,154.076c0,0.324,0,0.729,0.018,1.152c-0.062,0.027-0.162,0.045-0.243,0.045
			c-0.071,0-0.171-0.018-0.243-0.045c-0.026-0.144-0.045-0.332-0.054-0.504h-0.009c-0.307,0.379-0.847,0.594-1.378,0.594
			c-0.837,0-1.539-0.467-1.539-1.431c0-0.55,0.225-0.954,0.576-1.206c0.396-0.279,0.918-0.369,1.477-0.369
			c0.315,0,0.576,0.018,0.811,0.054v-0.261c0-0.9-0.369-1.198-1.126-1.198c-0.423,0-0.945,0.09-1.27,0.17
			c-0.018-0.045-0.036-0.144-0.036-0.233c0-0.063,0.019-0.153,0.046-0.207c0.387-0.117,0.899-0.189,1.332-0.189
			c1.071,0,1.639,0.486,1.639,1.584V154.076z M227.866,152.807c-0.262-0.035-0.531-0.053-0.766-0.053
			c-0.441,0-0.837,0.08-1.107,0.287c-0.243,0.18-0.378,0.469-0.378,0.838c0,0.656,0.423,0.973,1.008,0.973
			c0.486,0,1-0.234,1.243-0.604V152.807z"/>
		<path style="fill:#58595B;" d="M232.275,155.184c-0.233,0.082-0.585,0.135-0.846,0.135c-0.892,0-1.314-0.422-1.314-1.422v-2.899
			h-0.811c-0.018-0.045-0.026-0.153-0.026-0.207c0-0.045,0.009-0.153,0.026-0.198l0.811-0.054v-1.224
			c0.072-0.027,0.189-0.045,0.288-0.045s0.225,0.018,0.297,0.045v1.224h1.323c0.019,0.045,0.036,0.18,0.036,0.225
			c0,0.063-0.018,0.171-0.036,0.234H230.7v2.845c0,0.711,0.207,1.009,0.766,1.009c0.306,0,0.603-0.046,0.81-0.109
			c0.019,0.046,0.036,0.154,0.036,0.217C232.312,155.04,232.303,155.104,232.275,155.184z"/>
		<path style="fill:#58595B;" d="M233.553,149.62c-0.207,0-0.378-0.18-0.378-0.396c0-0.216,0.171-0.387,0.378-0.387
			s0.387,0.171,0.387,0.387C233.939,149.44,233.76,149.62,233.553,149.62z M233.85,155.229c-0.081,0.027-0.198,0.045-0.297,0.045
			c-0.1,0-0.207-0.018-0.288-0.045v-4.69c0.071-0.018,0.188-0.045,0.279-0.045c0.099,0,0.233,0.018,0.306,0.045V155.229z"/>
		<path style="fill:#58595B;" d="M236.866,155.318c-1.18,0-1.936-0.81-1.936-2.43c0-1.621,0.765-2.44,1.944-2.44
			c1.179,0,1.927,0.801,1.927,2.421S238.045,155.318,236.866,155.318z M236.875,150.89c-0.864,0-1.333,0.667-1.333,1.989
			c0,1.324,0.46,1.999,1.324,1.999s1.323-0.675,1.323-1.999C238.189,151.557,237.739,150.89,236.875,150.89z"/>
		<path style="fill:#58595B;" d="M243.453,155.238c-0.071,0.018-0.18,0.035-0.288,0.035c-0.09,0-0.207-0.018-0.297-0.045v-2.854
			c0-0.432-0.054-0.766-0.18-0.999c-0.153-0.288-0.441-0.432-0.909-0.432c-0.45,0-0.99,0.251-1.342,0.522v3.763
			c-0.099,0.027-0.198,0.045-0.306,0.045c-0.091,0-0.198-0.018-0.279-0.045v-4.69c0.062-0.027,0.171-0.036,0.234-0.036
			c0.09,0,0.197,0.009,0.252,0.036l0.045,0.468h0.009c0.495-0.405,1.062-0.558,1.521-0.558s0.937,0.153,1.197,0.468
			c0.288,0.342,0.342,0.837,0.342,1.324V155.238z"/>
		<path style="fill:#58595B;" d="M247.945,154.076c0,0.324,0,0.729,0.018,1.152c-0.062,0.027-0.162,0.045-0.243,0.045
			c-0.071,0-0.171-0.018-0.243-0.045c-0.026-0.144-0.045-0.332-0.054-0.504h-0.009c-0.307,0.379-0.847,0.594-1.378,0.594
			c-0.837,0-1.539-0.467-1.539-1.431c0-0.55,0.225-0.954,0.576-1.206c0.396-0.279,0.918-0.369,1.477-0.369
			c0.315,0,0.576,0.018,0.811,0.054v-0.261c0-0.9-0.369-1.198-1.126-1.198c-0.423,0-0.945,0.09-1.27,0.17
			c-0.018-0.045-0.036-0.144-0.036-0.233c0-0.063,0.019-0.153,0.046-0.207c0.387-0.117,0.899-0.189,1.332-0.189
			c1.071,0,1.639,0.486,1.639,1.584V154.076z M247.36,152.807c-0.262-0.035-0.531-0.053-0.766-0.053
			c-0.441,0-0.837,0.08-1.107,0.287c-0.243,0.18-0.378,0.469-0.378,0.838c0,0.656,0.423,0.973,1.008,0.973
			c0.486,0,1-0.234,1.243-0.604V152.807z"/>
		<path style="fill:#58595B;" d="M249.879,155.229c-0.1,0.027-0.198,0.045-0.307,0.045c-0.09,0-0.198-0.018-0.279-0.045v-6.571
			c0.081-0.018,0.181-0.045,0.298-0.045c0.099,0,0.207,0.018,0.288,0.045V155.229z"/>
	</g>
	<g>
		<path style="fill:#58595B;" d="M73.057,166.316c-0.54,0-1.161-0.098-1.629-0.27c-0.027-0.072-0.045-0.162-0.045-0.261
			c0-0.091,0.018-0.198,0.035-0.271c0.478,0.189,1.126,0.307,1.594,0.307c0.909,0,1.387-0.405,1.387-1.152
			c0-0.658-0.352-0.955-1.018-1.197l-0.54-0.199c-0.9-0.332-1.413-0.765-1.413-1.629c0-1.008,0.801-1.594,1.936-1.594
			c0.44,0,0.891,0.063,1.296,0.172c0.027,0.054,0.036,0.144,0.036,0.225c0,0.072-0.018,0.189-0.045,0.252
			c-0.378-0.117-0.819-0.171-1.251-0.171c-0.667,0-1.342,0.233-1.342,1.081c0,0.674,0.342,0.908,1.107,1.197l0.477,0.18
			c0.829,0.314,1.36,0.738,1.36,1.62C75.002,165.777,74.191,166.316,73.057,166.316z"/>
		<path style="fill:#58595B;" d="M78.663,166.182c-0.233,0.082-0.585,0.135-0.846,0.135c-0.892,0-1.314-0.422-1.314-1.422v-2.898
			h-0.811c-0.018-0.045-0.026-0.153-0.026-0.207c0-0.045,0.009-0.153,0.026-0.198l0.811-0.054v-1.225
			c0.072-0.027,0.189-0.045,0.288-0.045s0.225,0.018,0.297,0.045v1.225h1.323c0.019,0.045,0.036,0.18,0.036,0.225
			c0,0.062-0.018,0.171-0.036,0.234h-1.323v2.845c0,0.711,0.207,1.009,0.766,1.009c0.306,0,0.603-0.046,0.81-0.109
			c0.019,0.046,0.036,0.154,0.036,0.217C78.699,166.038,78.69,166.102,78.663,166.182z"/>
		<path style="fill:#58595B;" d="M82.957,164.444c0,1.368-0.567,1.872-1.756,1.872c-1.215,0-1.729-0.504-1.729-1.826v-2.953
			c0.081-0.027,0.189-0.045,0.288-0.045c0.126,0,0.226,0.026,0.297,0.045v2.881c0,0.873,0.136,1.449,1.152,1.449
			c0.955,0,1.162-0.559,1.162-1.468v-2.862c0.071-0.027,0.197-0.045,0.297-0.045c0.099,0,0.207,0.018,0.288,0.045V164.444z"/>
		<path style="fill:#58595B;" d="M87.466,166.271c-0.081,0-0.18-0.026-0.233-0.045l-0.055-0.539h-0.009
			c-0.387,0.404-0.846,0.629-1.359,0.629c-1.242,0-1.836-1.035-1.836-2.295c0-1.252,0.53-2.574,1.962-2.574
			c0.45,0,0.864,0.152,1.197,0.387v-2.179c0.081-0.027,0.189-0.046,0.288-0.046c0.108,0,0.217,0.027,0.298,0.046v6.571
			C87.655,166.254,87.565,166.271,87.466,166.271z M87.133,162.329c-0.324-0.271-0.738-0.405-1.161-0.405
			c-1.044,0-1.396,1.026-1.396,2.07c0,0.801,0.252,1.846,1.261,1.846c0.486,0,0.981-0.243,1.296-0.621V162.329z"/>
		<path style="fill:#58595B;" d="M92.38,164.039h-3.016c0.036,1.035,0.522,1.818,1.647,1.818c0.405,0,0.783-0.054,1.116-0.135
			c0.019,0.045,0.036,0.135,0.036,0.189c0,0.09-0.018,0.171-0.045,0.234c-0.352,0.107-0.792,0.17-1.161,0.17
			c-0.712,0-1.252-0.225-1.585-0.584c-0.396-0.433-0.603-1.081-0.603-1.828c0-1.305,0.657-2.457,1.971-2.457
			c1.18,0,1.647,0.972,1.647,2.16C92.389,163.742,92.389,163.904,92.38,164.039z M91.804,163.607c0-0.828-0.09-1.72-1.089-1.72
			c-0.873,0-1.297,0.802-1.351,1.72H91.804z"/>
		<path style="fill:#58595B;" d="M97.051,166.236c-0.071,0.018-0.18,0.035-0.288,0.035c-0.09,0-0.207-0.018-0.297-0.045v-2.854
			c0-0.432-0.054-0.766-0.18-0.999c-0.153-0.288-0.441-0.433-0.909-0.433c-0.45,0-0.99,0.252-1.342,0.522v3.763
			c-0.099,0.027-0.198,0.045-0.306,0.045c-0.091,0-0.198-0.018-0.279-0.045v-4.689c0.062-0.027,0.171-0.037,0.234-0.037
			c0.09,0,0.197,0.01,0.252,0.037l0.045,0.468h0.009c0.495-0.405,1.062-0.558,1.521-0.558s0.937,0.152,1.197,0.467
			c0.288,0.343,0.342,0.838,0.342,1.324V166.236z"/>
		<path style="fill:#58595B;" d="M100.83,166.182c-0.233,0.082-0.585,0.135-0.846,0.135c-0.892,0-1.314-0.422-1.314-1.422v-2.898
			h-0.811c-0.018-0.045-0.026-0.153-0.026-0.207c0-0.045,0.009-0.153,0.026-0.198l0.811-0.054v-1.225
			c0.072-0.027,0.189-0.045,0.288-0.045s0.225,0.018,0.297,0.045v1.225h1.323c0.019,0.045,0.036,0.18,0.036,0.225
			c0,0.062-0.018,0.171-0.036,0.234h-1.323v2.845c0,0.711,0.207,1.009,0.766,1.009c0.306,0,0.603-0.046,0.81-0.109
			c0.019,0.046,0.036,0.154,0.036,0.217C100.866,166.038,100.857,166.102,100.83,166.182z"/>
		<path style="fill:#58595B;" d="M105.6,166.271c-0.603,0-1.098-0.018-1.593-0.045v-6.086c0.359-0.018,0.837-0.045,1.296-0.045
			c1.378,0,2.053,0.388,2.053,1.504c0,0.676-0.342,1.17-0.9,1.351c0.847,0.099,1.387,0.685,1.387,1.548
			C107.842,165.74,106.878,166.271,105.6,166.271z M105.303,160.537c-0.153,0-0.45,0.01-0.685,0.027v2.232h0.703
			c0.783,0,1.44-0.171,1.44-1.188C106.762,160.69,106.068,160.537,105.303,160.537z M106.716,163.481
			c-0.288-0.181-0.603-0.234-1.053-0.234h-1.045v2.548c0.279,0.027,0.567,0.036,0.91,0.036c1.035,0,1.665-0.396,1.665-1.323
			C107.193,164.039,107.031,163.68,106.716,163.481z"/>
		<path style="fill:#58595B;" d="M112.18,165.074c0,0.324,0,0.729,0.018,1.152c-0.062,0.027-0.162,0.045-0.243,0.045
			c-0.071,0-0.171-0.018-0.243-0.045c-0.026-0.144-0.045-0.332-0.054-0.504h-0.009c-0.307,0.379-0.847,0.594-1.378,0.594
			c-0.837,0-1.539-0.467-1.539-1.431c0-0.55,0.225-0.954,0.576-1.206c0.396-0.279,0.918-0.369,1.477-0.369
			c0.315,0,0.576,0.018,0.811,0.054v-0.261c0-0.9-0.369-1.197-1.126-1.197c-0.423,0-0.945,0.09-1.27,0.17
			c-0.018-0.045-0.036-0.144-0.036-0.233c0-0.063,0.019-0.153,0.046-0.207c0.387-0.117,0.899-0.188,1.332-0.188
			c1.071,0,1.639,0.485,1.639,1.584V165.074z M111.595,163.805c-0.262-0.035-0.531-0.053-0.766-0.053
			c-0.441,0-0.837,0.08-1.107,0.287c-0.243,0.18-0.378,0.469-0.378,0.838c0,0.656,0.423,0.973,1.008,0.973
			c0.486,0,1-0.234,1.243-0.604V163.805z"/>
		<path style="fill:#58595B;" d="M115.608,161.969c-0.522,0.072-1.09,0.262-1.513,0.586v3.672c-0.09,0.027-0.198,0.045-0.297,0.045
			c-0.1,0-0.198-0.018-0.288-0.045v-4.689c0.054-0.019,0.135-0.037,0.225-0.037c0.072,0,0.171,0.019,0.243,0.037l0.045,0.576h0.01
			c0.387-0.334,1.062-0.613,1.575-0.666c0.018,0.053,0.036,0.152,0.036,0.233C115.645,161.771,115.626,161.888,115.608,161.969z"/>
		<path style="fill:#58595B;" d="M118.057,166.316c-1.18,0-1.936-0.81-1.936-2.43c0-1.621,0.765-2.439,1.944-2.439
			c1.179,0,1.927,0.801,1.927,2.421S119.235,166.316,118.057,166.316z M118.065,161.888c-0.864,0-1.333,0.667-1.333,1.989
			c0,1.324,0.46,1.999,1.324,1.999s1.323-0.675,1.323-1.999C119.38,162.555,118.93,161.888,118.065,161.888z"/>
		<path style="fill:#58595B;" d="M127.552,166.236c-0.09,0.018-0.18,0.035-0.27,0.035c-0.108,0-0.207-0.026-0.315-0.045v-2.844
			c0-0.99-0.252-1.441-1.089-1.441c-0.433,0-1.009,0.226-1.369,0.486c0.072,0.252,0.091,0.531,0.091,0.811v2.988
			c-0.091,0.027-0.181,0.045-0.271,0.045c-0.117,0-0.226-0.018-0.315-0.045v-2.844c0-0.99-0.225-1.441-1.062-1.441
			c-0.449,0-0.98,0.252-1.332,0.522v3.763c-0.099,0.027-0.216,0.045-0.324,0.045c-0.09,0-0.188-0.018-0.261-0.045v-4.689
			c0.045-0.019,0.144-0.037,0.243-0.037c0.081,0,0.18,0.019,0.243,0.037l0.045,0.468h0.009c0.495-0.405,1.062-0.558,1.521-0.558
			s0.9,0.152,1.161,0.467c0.036,0.037,0.063,0.082,0.09,0.127c0.478-0.387,1.09-0.594,1.675-0.594c0.459,0,0.928,0.152,1.188,0.467
			c0.288,0.343,0.342,0.838,0.342,1.324V166.236z"/>
		<path style="fill:#58595B;" d="M132.186,164.039h-3.016c0.036,1.035,0.522,1.818,1.647,1.818c0.405,0,0.783-0.054,1.116-0.135
			c0.019,0.045,0.036,0.135,0.036,0.189c0,0.09-0.018,0.171-0.045,0.234c-0.352,0.107-0.792,0.17-1.161,0.17
			c-0.712,0-1.252-0.225-1.585-0.584c-0.396-0.433-0.603-1.081-0.603-1.828c0-1.305,0.656-2.457,1.971-2.457
			c1.18,0,1.647,0.972,1.647,2.16C132.194,163.742,132.194,163.904,132.186,164.039z M131.609,163.607c0-0.828-0.09-1.72-1.089-1.72
			c-0.873,0-1.297,0.802-1.351,1.72H131.609z"/>
		<path style="fill:#58595B;" d="M135.749,166.182c-0.233,0.082-0.585,0.135-0.846,0.135c-0.892,0-1.314-0.422-1.314-1.422v-2.898
			h-0.811c-0.018-0.045-0.026-0.153-0.026-0.207c0-0.045,0.009-0.153,0.026-0.198l0.811-0.054v-1.225
			c0.072-0.027,0.189-0.045,0.288-0.045s0.225,0.018,0.297,0.045v1.225h1.323c0.019,0.045,0.036,0.18,0.036,0.225
			c0,0.062-0.018,0.171-0.036,0.234h-1.323v2.845c0,0.711,0.207,1.009,0.766,1.009c0.306,0,0.603-0.046,0.81-0.109
			c0.019,0.046,0.036,0.154,0.036,0.217C135.785,166.038,135.776,166.102,135.749,166.182z"/>
		<path style="fill:#58595B;" d="M139.845,164.039h-3.016c0.036,1.035,0.522,1.818,1.647,1.818c0.405,0,0.783-0.054,1.116-0.135
			c0.019,0.045,0.036,0.135,0.036,0.189c0,0.09-0.018,0.171-0.045,0.234c-0.352,0.107-0.792,0.17-1.161,0.17
			c-0.712,0-1.252-0.225-1.585-0.584c-0.396-0.433-0.603-1.081-0.603-1.828c0-1.305,0.657-2.457,1.971-2.457
			c1.18,0,1.647,0.972,1.647,2.16C139.854,163.742,139.854,163.904,139.845,164.039z M139.269,163.607c0-0.828-0.09-1.72-1.089-1.72
			c-0.873,0-1.297,0.802-1.351,1.72H139.269z"/>
		<path style="fill:#58595B;" d="M143.013,161.969c-0.522,0.072-1.09,0.262-1.513,0.586v3.672c-0.09,0.027-0.198,0.045-0.297,0.045
			c-0.1,0-0.198-0.018-0.288-0.045v-4.689c0.054-0.019,0.135-0.037,0.225-0.037c0.072,0,0.171,0.019,0.243,0.037l0.045,0.576h0.01
			c0.387-0.334,1.062-0.613,1.575-0.666c0.018,0.053,0.036,0.152,0.036,0.233C143.049,161.771,143.03,161.888,143.013,161.969z"/>
	</g>
</g>
</svg>
