<?xml version="1.0" encoding="utf-8"?>
<!-- Generator: Adobe Illustrator 16.0.0, SVG Export Plug-In . SVG Version: 6.00 Build 0)  -->
<!DOCTYPE svg PUBLIC "-//W3C//DTD SVG 1.1//EN" "http://www.w3.org/Graphics/SVG/1.1/DTD/svg11.dtd">
<svg version="1.1" id="Layer_1" xmlns="http://www.w3.org/2000/svg" xmlns:xlink="http://www.w3.org/1999/xlink" x="0px" y="0px"
	 width="300px" height="300px" viewBox="0 0 300 300" enable-background="new 0 0 300 300" xml:space="preserve">
<g>
	<path fill="#333333" d="M11.962,46.704c-3.609,0-5.5-2.707-5.5-7.477s1.891-7.477,5.5-7.477s5.5,2.707,5.5,7.477
		S15.571,46.704,11.962,46.704z M11.962,32.847c-2.6,0-3.953,2.084-3.953,6.381s1.354,6.381,3.953,6.381s3.953-2.084,3.953-6.381
		S14.562,32.847,11.962,32.847z"/>
	<path fill="#333333" d="M28.501,42.235c0,3.266-1.354,4.469-4.189,4.469c-2.9,0-4.125-1.203-4.125-4.361v-7.047
		c0.193-0.064,0.451-0.107,0.688-0.107c0.301,0,0.537,0.064,0.709,0.107v6.875c0,2.084,0.322,3.459,2.75,3.459
		c2.277,0,2.771-1.332,2.771-3.502v-6.832c0.172-0.064,0.473-0.107,0.709-0.107s0.494,0.043,0.688,0.107V42.235z"/>
	<path fill="#333333" d="M36.469,36.327c-1.246,0.172-2.6,0.623-3.609,1.396v8.766c-0.215,0.064-0.473,0.107-0.709,0.107
		s-0.473-0.043-0.688-0.107V35.296c0.129-0.043,0.322-0.086,0.537-0.086c0.172,0,0.408,0.043,0.58,0.086l0.107,1.375h0.021
		c0.924-0.795,2.535-1.461,3.76-1.59c0.043,0.129,0.086,0.365,0.086,0.559C36.555,35.854,36.512,36.134,36.469,36.327z"/>
	<path fill="#333333" d="M52.836,33.341c-0.816-0.215-1.998-0.408-2.965-0.408c-3.545,0-5.006,2.814-5.006,6.359
		c0,3.502,1.396,6.23,4.877,6.23c1.139,0,2.299-0.172,3.072-0.43c0.043,0.129,0.064,0.344,0.064,0.516
		c0,0.215-0.021,0.494-0.064,0.623c-0.773,0.258-1.869,0.473-3.115,0.473c-3.91,0-6.381-2.363-6.381-7.391
		c0-4.533,2.385-7.562,6.402-7.562c1.16,0,2.385,0.215,3.094,0.494c0.064,0.172,0.086,0.387,0.086,0.58
		C52.9,32.954,52.879,33.19,52.836,33.341z"/>
	<path fill="#333333" d="M59.213,46.704c-2.814,0-4.619-1.934-4.619-5.801s1.826-5.822,4.641-5.822s4.598,1.912,4.598,5.779
		S62.028,46.704,59.213,46.704z M59.235,36.134c-2.062,0-3.18,1.59-3.18,4.748s1.096,4.77,3.158,4.77s3.158-1.611,3.158-4.77
		S61.297,36.134,59.235,36.134z"/>
	<path fill="#333333" d="M81.769,46.511c-0.215,0.043-0.43,0.086-0.645,0.086c-0.258,0-0.494-0.064-0.752-0.107V39.7
		c0-2.363-0.602-3.438-2.6-3.438c-1.031,0-2.406,0.537-3.266,1.16c0.172,0.602,0.215,1.268,0.215,1.934v7.133
		c-0.215,0.064-0.43,0.107-0.645,0.107c-0.279,0-0.537-0.043-0.752-0.107V39.7c0-2.363-0.537-3.438-2.535-3.438
		c-1.074,0-2.342,0.602-3.18,1.246v8.98c-0.236,0.064-0.516,0.107-0.773,0.107c-0.215,0-0.451-0.043-0.623-0.107V35.296
		c0.107-0.043,0.344-0.086,0.58-0.086c0.193,0,0.43,0.043,0.58,0.086l0.107,1.117h0.021c1.182-0.967,2.535-1.332,3.631-1.332
		s2.148,0.365,2.771,1.117c0.086,0.086,0.15,0.193,0.215,0.301c1.139-0.924,2.6-1.418,3.996-1.418c1.096,0,2.213,0.365,2.836,1.117
		c0.688,0.816,0.816,1.998,0.816,3.158V46.511z"/>
	<path fill="#333333" d="M91.797,45.329c-0.838,0.752-2.148,1.16-3.395,1.16c-0.881,0-1.697-0.15-2.299-0.365v5.414
		c-0.215,0.064-0.408,0.107-0.709,0.107c-0.236,0-0.516-0.043-0.688-0.107V35.296c0.107-0.043,0.365-0.086,0.58-0.086
		s0.408,0.043,0.559,0.086l0.129,1.182h0.021c0.816-0.859,2.041-1.396,3.287-1.396c1.354,0,2.557,0.58,3.309,1.654
		c0.623,0.902,1.01,2.191,1.01,3.76C93.602,42.644,92.936,44.298,91.797,45.329z M89.133,36.22c-1.139,0-2.277,0.473-3.029,1.418
		v7.391c0.559,0.258,1.418,0.408,2.148,0.408c2.32,0,3.889-1.525,3.889-4.877C92.141,37.917,91.109,36.22,89.133,36.22z"/>
	<path fill="#333333" d="M104.254,42.235c0,3.266-1.354,4.469-4.189,4.469c-2.9,0-4.125-1.203-4.125-4.361v-7.047
		c0.193-0.064,0.451-0.107,0.688-0.107c0.301,0,0.537,0.064,0.709,0.107v6.875c0,2.084,0.322,3.459,2.75,3.459
		c2.277,0,2.771-1.332,2.771-3.502v-6.832c0.172-0.064,0.473-0.107,0.709-0.107s0.494,0.043,0.688,0.107V42.235z"/>
	<path fill="#333333" d="M113.146,46.382c-0.559,0.193-1.396,0.322-2.02,0.322c-2.127,0-3.137-1.01-3.137-3.395v-6.918h-1.934
		c-0.043-0.107-0.064-0.365-0.064-0.494c0-0.107,0.021-0.365,0.064-0.473l1.934-0.129v-2.922c0.172-0.064,0.451-0.107,0.688-0.107
		s0.537,0.043,0.709,0.107v2.922h3.158c0.043,0.107,0.086,0.43,0.086,0.537c0,0.15-0.043,0.408-0.086,0.559h-3.158v6.789
		c0,1.697,0.494,2.406,1.826,2.406c0.73,0,1.439-0.107,1.934-0.258c0.043,0.107,0.086,0.365,0.086,0.516
		C113.232,46.038,113.21,46.188,113.146,46.382z"/>
	<path fill="#333333" d="M122.812,41.269h-7.197c0.086,2.471,1.246,4.34,3.932,4.34c0.967,0,1.869-0.129,2.664-0.322
		c0.043,0.107,0.086,0.322,0.086,0.451c0,0.215-0.043,0.408-0.107,0.559c-0.838,0.258-1.891,0.408-2.771,0.408
		c-1.697,0-2.986-0.537-3.781-1.396c-0.945-1.031-1.439-2.578-1.439-4.361c0-3.115,1.568-5.865,4.705-5.865
		c2.814,0,3.932,2.32,3.932,5.156C122.833,40.56,122.833,40.946,122.812,41.269z M121.437,40.237c0-1.977-0.215-4.104-2.6-4.104
		c-2.084,0-3.094,1.912-3.223,4.104H121.437z"/>
	<path fill="#333333" d="M130.264,36.327c-1.246,0.172-2.6,0.623-3.609,1.396v8.766c-0.215,0.064-0.473,0.107-0.709,0.107
		s-0.473-0.043-0.688-0.107V35.296c0.129-0.043,0.322-0.086,0.537-0.086c0.172,0,0.408,0.043,0.58,0.086l0.107,1.375h0.021
		c0.924-0.795,2.535-1.461,3.76-1.59c0.043,0.129,0.086,0.365,0.086,0.559C130.35,35.854,130.307,36.134,130.264,36.327z"/>
</g>
<g>
	<path fill="#333333" d="M10.565,70.986c-1.289,0-2.771-0.236-3.889-0.645c-0.064-0.172-0.107-0.387-0.107-0.623
		c0-0.215,0.043-0.473,0.086-0.645c1.139,0.451,2.686,0.73,3.803,0.73c2.17,0,3.309-0.967,3.309-2.75
		c0-1.568-0.838-2.277-2.428-2.857l-1.289-0.473c-2.148-0.795-3.373-1.826-3.373-3.889c0-2.406,1.912-3.803,4.619-3.803
		c1.053,0,2.127,0.15,3.094,0.408c0.064,0.129,0.086,0.344,0.086,0.537c0,0.172-0.043,0.451-0.107,0.602
		c-0.902-0.279-1.955-0.408-2.986-0.408c-1.59,0-3.201,0.559-3.201,2.578c0,1.611,0.816,2.17,2.643,2.857l1.139,0.43
		c1.977,0.752,3.244,1.762,3.244,3.867C15.206,69.697,13.272,70.986,10.565,70.986z"/>
	<path fill="#333333" d="M24.935,60.932c-0.688-0.279-1.59-0.451-2.385-0.451c-2.793,0-3.824,2.17-3.824,4.791
		c0,2.578,0.988,4.576,3.803,4.576c0.752,0,1.654-0.129,2.32-0.322c0.043,0.129,0.086,0.279,0.086,0.451
		c0,0.258-0.043,0.451-0.107,0.602c-0.623,0.258-1.633,0.408-2.428,0.408c-3.502,0-5.135-2.299-5.135-5.672
		c0-3.502,1.783-5.951,5.199-5.951c0.816,0,1.783,0.193,2.449,0.494C24.978,60.029,25,60.201,25,60.395
		C25,60.609,24.978,60.781,24.935,60.932z"/>
	<path fill="#333333" d="M28.091,57.387c-0.494,0-0.902-0.43-0.902-0.945s0.408-0.924,0.902-0.924s0.924,0.408,0.924,0.924
		S28.585,57.387,28.091,57.387z M28.8,70.771c-0.193,0.064-0.473,0.107-0.709,0.107s-0.494-0.043-0.688-0.107V59.578
		c0.172-0.043,0.451-0.107,0.666-0.107c0.236,0,0.559,0.043,0.73,0.107V70.771z"/>
	<path fill="#333333" d="M39.906,65.551h-7.197c0.086,2.471,1.246,4.34,3.932,4.34c0.967,0,1.869-0.129,2.664-0.322
		c0.043,0.107,0.086,0.322,0.086,0.451c0,0.215-0.043,0.408-0.107,0.559c-0.838,0.258-1.891,0.408-2.771,0.408
		c-1.697,0-2.986-0.537-3.781-1.396c-0.945-1.031-1.439-2.578-1.439-4.361c0-3.115,1.568-5.865,4.705-5.865
		c2.814,0,3.932,2.32,3.932,5.156C39.927,64.842,39.927,65.229,39.906,65.551z M38.531,64.52c0-1.977-0.215-4.104-2.6-4.104
		c-2.084,0-3.094,1.912-3.223,4.104H38.531z"/>
	<path fill="#333333" d="M50.946,70.793c-0.172,0.043-0.43,0.086-0.688,0.086c-0.215,0-0.494-0.043-0.709-0.107v-6.811
		c0-1.031-0.129-1.826-0.43-2.385c-0.365-0.688-1.053-1.031-2.17-1.031c-1.074,0-2.363,0.602-3.201,1.246v8.98
		c-0.236,0.064-0.473,0.107-0.73,0.107c-0.215,0-0.473-0.043-0.666-0.107V59.578c0.15-0.064,0.408-0.086,0.559-0.086
		c0.215,0,0.473,0.021,0.602,0.086l0.107,1.117h0.021c1.182-0.967,2.535-1.332,3.631-1.332s2.234,0.365,2.857,1.117
		c0.688,0.816,0.816,1.998,0.816,3.158V70.793z"/>
	<path fill="#333333" d="M60.954,60.932c-0.688-0.279-1.59-0.451-2.385-0.451c-2.793,0-3.824,2.17-3.824,4.791
		c0,2.578,0.988,4.576,3.803,4.576c0.752,0,1.654-0.129,2.32-0.322c0.043,0.129,0.086,0.279,0.086,0.451
		c0,0.258-0.043,0.451-0.107,0.602c-0.623,0.258-1.633,0.408-2.428,0.408c-3.502,0-5.135-2.299-5.135-5.672
		c0-3.502,1.783-5.951,5.199-5.951c0.816,0,1.783,0.193,2.449,0.494c0.064,0.172,0.086,0.344,0.086,0.537
		C61.019,60.609,60.997,60.781,60.954,60.932z"/>
	<path fill="#333333" d="M71.329,65.551h-7.197c0.086,2.471,1.246,4.34,3.932,4.34c0.967,0,1.869-0.129,2.664-0.322
		c0.043,0.107,0.086,0.322,0.086,0.451c0,0.215-0.043,0.408-0.107,0.559c-0.838,0.258-1.891,0.408-2.771,0.408
		c-1.697,0-2.986-0.537-3.781-1.396c-0.945-1.031-1.439-2.578-1.439-4.361c0-3.115,1.568-5.865,4.705-5.865
		c2.814,0,3.932,2.32,3.932,5.156C71.35,64.842,71.35,65.229,71.329,65.551z M69.954,64.52c0-1.977-0.215-4.104-2.6-4.104
		c-2.084,0-3.094,1.912-3.223,4.104H69.954z"/>
	<path fill="#333333" d="M88.017,70.771c-0.15,0.064-0.494,0.107-0.73,0.107c-0.258,0-0.623-0.043-0.902-0.107l-3.309-5.865
		c-0.236,0.021-0.473,0.021-0.73,0.021h-1.891v5.844c-0.172,0.064-0.516,0.107-0.752,0.107s-0.537-0.043-0.709-0.107V56.248
		c0.945-0.043,2.105-0.107,3.158-0.107c3.094,0,5.156,1.01,5.156,4.34c0,2.041-0.967,3.523-2.836,4.125L88.017,70.771z
		 M82.41,57.215c-0.537,0-1.482,0.021-1.955,0.064v6.531h1.977c2.191,0,3.395-0.967,3.395-3.352
		C85.826,58.096,84.623,57.215,82.41,57.215z"/>
	<path fill="#333333" d="M98.412,65.551h-7.197c0.086,2.471,1.246,4.34,3.932,4.34c0.967,0,1.869-0.129,2.664-0.322
		c0.043,0.107,0.086,0.322,0.086,0.451c0,0.215-0.043,0.408-0.107,0.559c-0.838,0.258-1.891,0.408-2.771,0.408
		c-1.697,0-2.986-0.537-3.781-1.396c-0.945-1.031-1.439-2.578-1.439-4.361c0-3.115,1.568-5.865,4.705-5.865
		c2.814,0,3.932,2.32,3.932,5.156C98.434,64.842,98.434,65.229,98.412,65.551z M97.037,64.52c0-1.977-0.215-4.104-2.6-4.104
		c-2.084,0-3.094,1.912-3.223,4.104H97.037z"/>
	<path fill="#333333" d="M103.372,70.986c-1.074,0-2.191-0.193-2.965-0.494c-0.064-0.15-0.107-0.408-0.107-0.602
		c0-0.129,0.043-0.451,0.086-0.58c0.795,0.322,1.934,0.58,2.879,0.58c1.633,0,2.643-0.688,2.643-2.041
		c0-1.225-0.623-1.654-2.32-2.277c-2.363-0.859-3.137-1.848-3.137-3.309c0-1.977,1.633-2.9,3.738-2.9
		c0.709,0,1.633,0.129,2.17,0.301c0.064,0.193,0.086,0.387,0.086,0.516c0,0.172-0.043,0.473-0.086,0.623
		c-0.709-0.215-1.461-0.344-2.191-0.344c-1.525,0-2.449,0.58-2.449,1.762c0,1.031,0.58,1.525,2.342,2.191
		c1.611,0.602,3.094,1.203,3.094,3.373C107.153,69.977,105.499,70.986,103.372,70.986z"/>
	<path fill="#333333" d="M117.506,65.551h-7.197c0.086,2.471,1.246,4.34,3.932,4.34c0.967,0,1.869-0.129,2.664-0.322
		c0.043,0.107,0.086,0.322,0.086,0.451c0,0.215-0.043,0.408-0.107,0.559c-0.838,0.258-1.891,0.408-2.771,0.408
		c-1.697,0-2.986-0.537-3.781-1.396c-0.945-1.031-1.439-2.578-1.439-4.361c0-3.115,1.568-5.865,4.705-5.865
		c2.814,0,3.932,2.32,3.932,5.156C117.528,64.842,117.528,65.229,117.506,65.551z M116.131,64.52c0-1.977-0.215-4.104-2.6-4.104
		c-2.084,0-3.094,1.912-3.223,4.104H116.131z"/>
	<path fill="#333333" d="M127.623,68.021c0,0.773,0,1.74,0.043,2.75c-0.15,0.064-0.387,0.107-0.58,0.107
		c-0.172,0-0.408-0.043-0.58-0.107c-0.064-0.344-0.107-0.795-0.129-1.203h-0.021c-0.73,0.902-2.02,1.418-3.287,1.418
		c-1.998,0-3.674-1.117-3.674-3.416c0-1.311,0.537-2.277,1.375-2.879c0.945-0.666,2.191-0.881,3.523-0.881
		c0.752,0,1.375,0.043,1.934,0.129v-0.623c0-2.148-0.881-2.857-2.686-2.857c-1.01,0-2.256,0.215-3.029,0.408
		c-0.043-0.107-0.086-0.344-0.086-0.559c0-0.15,0.043-0.365,0.107-0.494c0.924-0.279,2.148-0.451,3.18-0.451
		c2.557,0,3.91,1.16,3.91,3.781V68.021z M126.226,64.992c-0.623-0.086-1.268-0.129-1.826-0.129c-1.053,0-1.998,0.193-2.643,0.688
		c-0.58,0.43-0.902,1.117-0.902,1.998c0,1.568,1.01,2.32,2.406,2.32c1.16,0,2.385-0.559,2.965-1.439V64.992z"/>
	<path fill="#333333" d="M135.697,60.609c-1.246,0.172-2.6,0.623-3.609,1.396v8.766c-0.215,0.064-0.473,0.107-0.709,0.107
		s-0.473-0.043-0.688-0.107V59.578c0.129-0.043,0.322-0.086,0.537-0.086c0.172,0,0.408,0.043,0.58,0.086l0.107,1.375h0.021
		c0.924-0.795,2.535-1.461,3.76-1.59c0.043,0.129,0.086,0.365,0.086,0.559C135.783,60.137,135.74,60.416,135.697,60.609z"/>
	<path fill="#333333" d="M144.461,60.932c-0.688-0.279-1.59-0.451-2.385-0.451c-2.793,0-3.824,2.17-3.824,4.791
		c0,2.578,0.988,4.576,3.803,4.576c0.752,0,1.654-0.129,2.32-0.322c0.043,0.129,0.086,0.279,0.086,0.451
		c0,0.258-0.043,0.451-0.107,0.602c-0.623,0.258-1.633,0.408-2.428,0.408c-3.502,0-5.135-2.299-5.135-5.672
		c0-3.502,1.783-5.951,5.199-5.951c0.816,0,1.783,0.193,2.449,0.494c0.064,0.172,0.086,0.344,0.086,0.537
		C144.525,60.609,144.504,60.781,144.461,60.932z"/>
	<path fill="#333333" d="M155.438,70.771c-0.193,0.064-0.43,0.107-0.645,0.107c-0.258,0-0.537-0.043-0.752-0.107v-6.789
		c0-2.363-0.602-3.438-2.6-3.438c-1.074,0-2.363,0.602-3.201,1.246v8.98c-0.236,0.064-0.494,0.107-0.73,0.107
		c-0.215,0-0.473-0.043-0.667-0.107V55.088c0.193-0.064,0.494-0.107,0.688-0.107c0.193,0,0.516,0.043,0.709,0.107v5.521
		c1.139-0.881,2.492-1.246,3.545-1.246c1.096,0,2.213,0.365,2.836,1.117c0.688,0.816,0.816,1.998,0.816,3.158V70.771z"/>
</g>
<g>
	<path fill="#333333" d="M8.567,95.05c-0.172,0.064-0.494,0.107-0.73,0.107s-0.559-0.043-0.73-0.107V80.526
		c0.172-0.064,0.494-0.107,0.73-0.107s0.559,0.043,0.73,0.107V95.05z"/>
	<path fill="#333333" d="M20.597,95.071c-0.172,0.043-0.43,0.086-0.688,0.086c-0.215,0-0.494-0.043-0.709-0.107v-6.811
		c0-1.031-0.129-1.826-0.43-2.385c-0.365-0.688-1.053-1.031-2.17-1.031c-1.074,0-2.363,0.602-3.201,1.246v8.98
		c-0.236,0.064-0.473,0.107-0.73,0.107c-0.215,0-0.473-0.043-0.666-0.107V83.856c0.15-0.064,0.408-0.086,0.559-0.086
		c0.215,0,0.473,0.021,0.602,0.086l0.107,1.117h0.021c1.182-0.967,2.535-1.332,3.631-1.332s2.234,0.365,2.857,1.117
		c0.688,0.816,0.816,1.998,0.816,3.158V95.071z"/>
	<path fill="#333333" d="M26.051,95.265c-1.074,0-2.191-0.193-2.965-0.494c-0.064-0.15-0.107-0.408-0.107-0.602
		c0-0.129,0.043-0.451,0.086-0.58c0.795,0.322,1.934,0.58,2.879,0.58c1.633,0,2.643-0.688,2.643-2.041
		c0-1.225-0.623-1.654-2.32-2.277c-2.363-0.859-3.137-1.848-3.137-3.309c0-1.977,1.633-2.9,3.738-2.9
		c0.709,0,1.633,0.129,2.17,0.301c0.064,0.193,0.086,0.387,0.086,0.516c0,0.172-0.043,0.473-0.086,0.623
		c-0.709-0.215-1.461-0.344-2.191-0.344c-1.525,0-2.449,0.58-2.449,1.762c0,1.031,0.58,1.525,2.342,2.191
		c1.611,0.602,3.094,1.203,3.094,3.373C29.832,94.255,28.178,95.265,26.051,95.265z"/>
	<path fill="#333333" d="M37.993,94.942c-0.559,0.193-1.396,0.322-2.02,0.322c-2.127,0-3.137-1.01-3.137-3.395v-6.918h-1.934
		c-0.043-0.107-0.064-0.365-0.064-0.494c0-0.107,0.021-0.365,0.064-0.473l1.934-0.129v-2.922c0.172-0.064,0.451-0.107,0.688-0.107
		s0.537,0.043,0.709,0.107v2.922h3.158c0.043,0.107,0.086,0.43,0.086,0.537c0,0.15-0.043,0.408-0.086,0.559h-3.158v6.789
		c0,1.697,0.494,2.406,1.826,2.406c0.73,0,1.439-0.107,1.934-0.258c0.043,0.107,0.086,0.365,0.086,0.516
		C38.079,94.599,38.058,94.749,37.993,94.942z"/>
	<path fill="#333333" d="M40.935,81.665c-0.494,0-0.902-0.43-0.902-0.945s0.408-0.924,0.902-0.924s0.924,0.408,0.924,0.924
		S41.429,81.665,40.935,81.665z M41.644,95.05c-0.193,0.064-0.473,0.107-0.709,0.107s-0.494-0.043-0.688-0.107V83.856
		c0.172-0.043,0.451-0.107,0.666-0.107c0.236,0,0.559,0.043,0.73,0.107V95.05z"/>
	<path fill="#333333" d="M50.687,94.942c-0.559,0.193-1.396,0.322-2.02,0.322c-2.127,0-3.137-1.01-3.137-3.395v-6.918h-1.934
		c-0.043-0.107-0.064-0.365-0.064-0.494c0-0.107,0.021-0.365,0.064-0.473l1.934-0.129v-2.922c0.172-0.064,0.451-0.107,0.688-0.107
		s0.537,0.043,0.709,0.107v2.922h3.158c0.043,0.107,0.086,0.43,0.086,0.537c0,0.15-0.043,0.408-0.086,0.559h-3.158v6.789
		c0,1.697,0.494,2.406,1.826,2.406c0.73,0,1.439-0.107,1.934-0.258c0.043,0.107,0.086,0.365,0.086,0.516
		C50.773,94.599,50.751,94.749,50.687,94.942z"/>
	<path fill="#333333" d="M60.804,90.796c0,3.266-1.354,4.469-4.189,4.469c-2.9,0-4.125-1.203-4.125-4.361v-7.047
		c0.193-0.064,0.451-0.107,0.688-0.107c0.301,0,0.537,0.064,0.709,0.107v6.875c0,2.084,0.322,3.459,2.75,3.459
		c2.277,0,2.771-1.332,2.771-3.502v-6.832c0.172-0.064,0.473-0.107,0.709-0.107s0.494,0.043,0.688,0.107V90.796z"/>
	<path fill="#333333" d="M69.695,94.942c-0.559,0.193-1.396,0.322-2.02,0.322c-2.127,0-3.137-1.01-3.137-3.395v-6.918h-1.934
		c-0.043-0.107-0.064-0.365-0.064-0.494c0-0.107,0.021-0.365,0.064-0.473l1.934-0.129v-2.922c0.172-0.064,0.451-0.107,0.688-0.107
		s0.537,0.043,0.709,0.107v2.922h3.158c0.043,0.107,0.086,0.43,0.086,0.537c0,0.15-0.043,0.408-0.086,0.559h-3.158v6.789
		c0,1.697,0.494,2.406,1.826,2.406c0.73,0,1.439-0.107,1.934-0.258c0.043,0.107,0.086,0.365,0.086,0.516
		C69.781,94.599,69.76,94.749,69.695,94.942z"/>
	<path fill="#333333" d="M79.361,89.829h-7.197c0.086,2.471,1.246,4.34,3.932,4.34c0.967,0,1.869-0.129,2.664-0.322
		c0.043,0.107,0.086,0.322,0.086,0.451c0,0.215-0.043,0.408-0.107,0.559c-0.838,0.258-1.891,0.408-2.771,0.408
		c-1.697,0-2.986-0.537-3.781-1.396c-0.945-1.031-1.439-2.578-1.439-4.361c0-3.115,1.568-5.865,4.705-5.865
		c2.814,0,3.932,2.32,3.932,5.156C79.382,89.12,79.382,89.507,79.361,89.829z M77.986,88.798c0-1.977-0.215-4.104-2.6-4.104
		c-2.084,0-3.094,1.912-3.223,4.104H77.986z"/>
	<path fill="#333333" d="M95.233,95.05c-0.193,0.064-0.43,0.107-0.645,0.107c-0.258,0-0.537-0.043-0.752-0.107v-6.789
		c0-2.363-0.602-3.438-2.6-3.438c-1.074,0-2.363,0.602-3.201,1.246v8.98c-0.236,0.064-0.494,0.107-0.73,0.107
		c-0.215,0-0.473-0.043-0.666-0.107V79.366c0.193-0.064,0.494-0.107,0.688-0.107s0.516,0.043,0.709,0.107v5.521
		c1.139-0.881,2.492-1.246,3.545-1.246c1.096,0,2.213,0.365,2.836,1.117c0.688,0.816,0.816,1.998,0.816,3.158V95.05z"/>
	<path fill="#333333" d="M105.843,92.3c0,0.773,0,1.74,0.043,2.75c-0.15,0.064-0.387,0.107-0.58,0.107
		c-0.172,0-0.408-0.043-0.58-0.107c-0.064-0.344-0.107-0.795-0.129-1.203h-0.021c-0.73,0.902-2.02,1.418-3.287,1.418
		c-1.998,0-3.674-1.117-3.674-3.416c0-1.311,0.537-2.277,1.375-2.879c0.945-0.666,2.191-0.881,3.523-0.881
		c0.752,0,1.375,0.043,1.934,0.129v-0.623c0-2.148-0.881-2.857-2.686-2.857c-1.01,0-2.256,0.215-3.029,0.408
		c-0.043-0.107-0.086-0.344-0.086-0.559c0-0.15,0.043-0.365,0.107-0.494c0.924-0.279,2.148-0.451,3.18-0.451
		c2.557,0,3.91,1.16,3.91,3.781V92.3z M104.447,89.271c-0.623-0.086-1.268-0.129-1.826-0.129c-1.053,0-1.998,0.193-2.643,0.688
		c-0.58,0.43-0.902,1.117-0.902,1.998c0,1.568,1.01,2.32,2.406,2.32c1.16,0,2.385-0.559,2.965-1.439V89.271z"/>
	<path fill="#333333" d="M111.404,95.265c-1.074,0-2.191-0.193-2.965-0.494c-0.064-0.15-0.107-0.408-0.107-0.602
		c0-0.129,0.043-0.451,0.086-0.58c0.795,0.322,1.934,0.58,2.879,0.58c1.633,0,2.643-0.688,2.643-2.041
		c0-1.225-0.623-1.654-2.32-2.277c-2.363-0.859-3.137-1.848-3.137-3.309c0-1.977,1.633-2.9,3.738-2.9
		c0.709,0,1.633,0.129,2.17,0.301c0.064,0.193,0.086,0.387,0.086,0.516c0,0.172-0.043,0.473-0.086,0.623
		c-0.709-0.215-1.461-0.344-2.191-0.344c-1.525,0-2.449,0.58-2.449,1.762c0,1.031,0.58,1.525,2.342,2.191
		c1.611,0.602,3.094,1.203,3.094,3.373C115.186,94.255,113.531,95.265,111.404,95.265z"/>
	<path fill="#333333" d="M127.385,84.888c-1.246,0.172-2.6,0.623-3.609,1.396v8.766c-0.215,0.064-0.473,0.107-0.709,0.107
		s-0.473-0.043-0.688-0.107V83.856c0.129-0.043,0.322-0.086,0.537-0.086c0.172,0,0.408,0.043,0.58,0.086l0.107,1.375h0.021
		c0.924-0.795,2.535-1.461,3.76-1.59c0.043,0.129,0.086,0.365,0.086,0.559C127.471,84.415,127.428,84.694,127.385,84.888z"/>
	<path fill="#333333" d="M137.094,89.829h-7.197c0.086,2.471,1.246,4.34,3.932,4.34c0.967,0,1.869-0.129,2.664-0.322
		c0.043,0.107,0.086,0.322,0.086,0.451c0,0.215-0.043,0.408-0.107,0.559c-0.838,0.258-1.891,0.408-2.771,0.408
		c-1.697,0-2.986-0.537-3.781-1.396c-0.945-1.031-1.439-2.578-1.439-4.361c0-3.115,1.568-5.865,4.705-5.865
		c2.814,0,3.932,2.32,3.932,5.156C137.115,89.12,137.115,89.507,137.094,89.829z M135.719,88.798c0-1.977-0.215-4.104-2.6-4.104
		c-2.084,0-3.094,1.912-3.223,4.104H135.719z"/>
	<path fill="#333333" d="M146.587,85.21c-0.688-0.279-1.59-0.451-2.385-0.451c-2.793,0-3.824,2.17-3.824,4.791
		c0,2.578,0.988,4.576,3.803,4.576c0.752,0,1.654-0.129,2.32-0.322c0.043,0.129,0.086,0.279,0.086,0.451
		c0,0.258-0.043,0.451-0.107,0.602c-0.623,0.258-1.633,0.408-2.428,0.408c-3.502,0-5.135-2.299-5.135-5.672
		c0-3.502,1.783-5.951,5.199-5.951c0.816,0,1.783,0.193,2.449,0.494c0.064,0.172,0.086,0.344,0.086,0.537
		C146.651,84.888,146.63,85.06,146.587,85.21z"/>
	<path fill="#333333" d="M156.961,89.829h-7.197c0.086,2.471,1.246,4.34,3.932,4.34c0.967,0,1.869-0.129,2.664-0.322
		c0.043,0.107,0.086,0.322,0.086,0.451c0,0.215-0.043,0.408-0.107,0.559c-0.838,0.258-1.891,0.408-2.771,0.408
		c-1.697,0-2.986-0.537-3.781-1.396c-0.945-1.031-1.439-2.578-1.439-4.361c0-3.115,1.568-5.865,4.705-5.865
		c2.814,0,3.932,2.32,3.932,5.156C156.982,89.12,156.982,89.507,156.961,89.829z M155.586,88.798c0-1.977-0.215-4.104-2.6-4.104
		c-2.084,0-3.094,1.912-3.223,4.104H155.586z"/>
	<path fill="#333333" d="M160.202,81.665c-0.494,0-0.902-0.43-0.902-0.945s0.408-0.924,0.902-0.924s0.924,0.408,0.924,0.924
		S160.696,81.665,160.202,81.665z M160.911,95.05c-0.193,0.064-0.473,0.107-0.709,0.107s-0.494-0.043-0.688-0.107V83.856
		c0.172-0.043,0.451-0.107,0.666-0.107c0.236,0,0.559,0.043,0.73,0.107V95.05z"/>
	<path fill="#333333" d="M171.717,86.585l-3.373,8.465c-0.193,0.064-0.408,0.107-0.58,0.107c-0.236,0-0.43-0.043-0.602-0.107
		l-3.48-8.465c-0.387-0.967-0.559-1.934-0.559-2.729c0.172-0.043,0.473-0.107,0.666-0.107c0.258,0,0.516,0.043,0.73,0.107
		c0.021,0.73,0.107,1.568,0.43,2.342l2.793,7.09h0.043l2.707-7.09c0.301-0.752,0.451-1.59,0.451-2.342
		c0.15-0.064,0.473-0.107,0.752-0.107c0.15,0,0.43,0.021,0.623,0.086C172.297,84.608,172.146,85.532,171.717,86.585z"/>
	<path fill="#333333" d="M182.326,89.829h-7.197c0.086,2.471,1.246,4.34,3.932,4.34c0.967,0,1.869-0.129,2.664-0.322
		c0.043,0.107,0.086,0.322,0.086,0.451c0,0.215-0.043,0.408-0.107,0.559c-0.838,0.258-1.891,0.408-2.771,0.408
		c-1.697,0-2.986-0.537-3.781-1.396c-0.945-1.031-1.439-2.578-1.439-4.361c0-3.115,1.568-5.865,4.705-5.865
		c2.814,0,3.932,2.32,3.932,5.156C182.348,89.12,182.348,89.507,182.326,89.829z M180.951,88.798c0-1.977-0.215-4.104-2.6-4.104
		c-2.084,0-3.094,1.912-3.223,4.104H180.951z"/>
	<path fill="#333333" d="M192.485,95.157c-0.193,0-0.43-0.064-0.559-0.107l-0.129-1.289h-0.021c-0.924,0.967-2.02,1.504-3.244,1.504
		c-2.965,0-4.383-2.471-4.383-5.479c0-2.986,1.268-6.145,4.684-6.145c1.074,0,2.062,0.365,2.857,0.924v-5.199
		c0.193-0.064,0.451-0.107,0.688-0.107c0.258,0,0.516,0.064,0.709,0.107V95.05C192.937,95.114,192.722,95.157,192.485,95.157z
		 M191.69,85.747c-0.773-0.645-1.762-0.967-2.771-0.967c-2.492,0-3.33,2.449-3.33,4.941c0,1.912,0.602,4.404,3.008,4.404
		c1.16,0,2.342-0.58,3.094-1.482V85.747z"/>
</g>
<g>
	<path fill="#59A6AE" d="M63.533,194.138H12.392c-0.586-1.29-1.173-4.34-1.173-6.568c0-1.643,0.235-3.988,0.469-5.63
		c6.686-2.464,9.266-6.568,9.266-14.311v-9.031h-8.68c-0.352-2.111-0.704-5.044-0.704-6.568c0-2.111,0.234-4.575,0.704-6.569h8.68
		v-5.982c0-15.834,9.267-25.805,26.274-25.805c6.217,0,12.785,1.29,16.539,2.815c0.352,1.173,0.586,4.105,0.586,5.396
		c0,2.111-0.352,5.396-0.821,7.742c-3.636-1.408-9.501-2.463-14.427-2.463c-8.093,0-11.377,3.988-11.377,12.433v5.865h17.359
		c0.469,1.994,0.704,4.458,0.704,6.569c0,1.524-0.234,4.574-0.704,6.568H37.728v8.445c0,5.513-1.994,10.321-7.155,13.724v0.117
		h32.842c0.469,1.642,0.704,4.691,0.704,6.803C64.119,189.563,63.884,192.261,63.533,194.138z"/>
	<path fill="#59A6AE" d="M123.466,128.101l-31.2,66.037c-2.229,0.352-5.63,0.587-8.562,0.587s-7.39-0.235-9.384-0.587l31.787-64.864
		H70.684c-0.235-1.642-0.586-4.575-0.586-7.272c0-2.463,0.234-5.396,0.704-7.155h53.251c0.352,1.525,0.704,3.988,0.704,6.451
		C124.756,123.644,124.287,126.342,123.466,128.101z"/>
	<path fill="#59A6AE" d="M120.53,196.015c-4.691,0-8.562-3.871-8.562-8.562c0-4.692,3.871-8.562,8.562-8.562
		c4.692,0,8.562,3.87,8.562,8.562C129.093,192.144,125.222,196.015,120.53,196.015z"/>
	<path fill="#59A6AE" d="M161.7,195.311c-21.348,0-29.559-15.014-29.559-37.182c0-24.984,9.267-44.455,35.188-44.455
		c4.457,0,10.674,0.704,13.254,1.642c0.47,1.642,0.587,4.34,0.587,5.63c0,2.229-0.234,5.278-0.821,6.92
		c-3.05-0.469-7.507-0.821-10.908-0.821c-11.378,0-18.181,6.92-19.471,19.706c3.636-2.346,9.853-4.34,15.6-4.34
		c14.075,0,22.99,10.556,22.99,24.749C188.561,182.995,178.121,195.311,161.7,195.311z M161.817,155.431
		c-5.044,0-10.088,2.111-12.551,4.457c-0.117,1.173-0.117,2.698-0.117,4.457c0,7.272,2.58,17.595,12.081,17.595
		c6.568,0,9.971-6.217,9.971-13.959C171.201,160.357,168.151,155.431,161.817,155.431z"/>
	<path fill="#59A6AE" d="M284.62,194.138c-1.876,0.469-5.864,0.587-7.741,0.587c-1.994,0-6.568-0.235-8.445-0.587v-36.831
		c0-4.457-0.117-7.741-1.759-9.735c-1.525-1.876-3.871-2.581-6.804-2.581c-3.987,0-9.618,1.76-13.254,3.988
		c0.117,1.994,0.234,3.987,0.234,6.334v38.824c-1.877,0.469-5.864,0.587-7.741,0.587c-1.994,0-6.568-0.235-8.445-0.587v-36.831
		c0-4.457-0.117-7.741-1.76-9.735c-1.524-1.876-3.87-2.581-6.803-2.581c-4.105,0-9.384,1.642-13.02,3.871v45.275
		c-2.698,0.469-6.451,0.587-8.562,0.587c-1.877,0-5.278-0.118-7.624-0.587v-61.11c1.524-0.352,5.278-0.586,7.037-0.586
		c1.643,0,5.044,0.234,6.804,0.586l0.703,5.513c5.161-3.871,12.551-6.686,19.119-6.686c6.804,0,12.785,2.346,17.359,7.39
		c6.334-4.34,13.958-7.39,21.7-7.39c5.747,0,11.611,2.346,14.544,5.865c3.637,4.34,4.457,9.97,4.457,18.533V194.138z"/>
</g>
<g>
	<path fill="#333333" d="M7.472,208.77c-0.494,0-0.902-0.43-0.902-0.945s0.408-0.924,0.902-0.924s0.924,0.408,0.924,0.924
		S7.966,208.77,7.472,208.77z M8.181,222.154c-0.193,0.064-0.473,0.107-0.709,0.107s-0.494-0.043-0.688-0.107v-11.193
		c0.172-0.043,0.451-0.107,0.666-0.107c0.236,0,0.559,0.043,0.73,0.107V222.154z"/>
	<path fill="#333333" d="M19.781,222.176c-0.172,0.043-0.43,0.086-0.688,0.086c-0.215,0-0.494-0.043-0.709-0.107v-6.811
		c0-1.031-0.129-1.826-0.43-2.385c-0.365-0.688-1.053-1.031-2.17-1.031c-1.074,0-2.363,0.602-3.201,1.246v8.98
		c-0.236,0.064-0.473,0.107-0.73,0.107c-0.215,0-0.473-0.043-0.666-0.107v-11.193c0.15-0.064,0.408-0.086,0.559-0.086
		c0.215,0,0.473,0.021,0.602,0.086l0.107,1.117h0.021c1.182-0.967,2.535-1.332,3.631-1.332s2.234,0.365,2.857,1.117
		c0.688,0.816,0.816,1.998,0.816,3.158V222.176z"/>
	<path fill="#333333" d="M33.698,207.395c-0.322-0.086-0.902-0.172-1.354-0.172c-0.816,0-1.418,0.215-1.826,0.666
		c-0.623,0.666-0.73,1.568-0.73,2.707v0.365h3.029c0.043,0.107,0.086,0.365,0.086,0.516c0,0.172-0.043,0.43-0.086,0.58h-3.029
		v10.098c-0.193,0.064-0.408,0.107-0.688,0.107s-0.516-0.043-0.709-0.107v-10.098h-1.934c-0.043-0.107-0.064-0.387-0.064-0.516
		c0-0.107,0.021-0.344,0.064-0.451l1.934-0.129v-0.365c0-1.525,0.258-2.578,1.139-3.459c0.623-0.623,1.547-0.924,2.6-0.924
		c0.559,0,1.182,0.129,1.568,0.279c0.043,0.107,0.064,0.258,0.064,0.408C33.762,207.029,33.741,207.287,33.698,207.395z"/>
	<path fill="#333333" d="M43.213,217.9c0,3.266-1.354,4.469-4.189,4.469c-2.9,0-4.125-1.203-4.125-4.361v-7.047
		c0.193-0.064,0.451-0.107,0.688-0.107c0.301,0,0.537,0.064,0.709,0.107v6.875c0,2.084,0.322,3.459,2.75,3.459
		c2.277,0,2.771-1.332,2.771-3.502v-6.832c0.172-0.064,0.473-0.107,0.709-0.107s0.494,0.043,0.688,0.107V217.9z"/>
	<path fill="#333333" d="M54.661,222.176c-0.172,0.043-0.43,0.086-0.688,0.086c-0.215,0-0.494-0.043-0.709-0.107v-6.811
		c0-1.031-0.129-1.826-0.43-2.385c-0.365-0.688-1.053-1.031-2.17-1.031c-1.074,0-2.363,0.602-3.201,1.246v8.98
		c-0.236,0.064-0.473,0.107-0.73,0.107c-0.215,0-0.473-0.043-0.666-0.107v-11.193c0.15-0.064,0.408-0.086,0.559-0.086
		c0.215,0,0.473,0.021,0.602,0.086l0.107,1.117h0.021c1.182-0.967,2.535-1.332,3.631-1.332s2.234,0.365,2.857,1.117
		c0.688,0.816,0.816,1.998,0.816,3.158V222.176z"/>
	<path fill="#333333" d="M65.228,222.262c-0.193,0-0.43-0.064-0.559-0.107l-0.129-1.289h-0.021c-0.924,0.967-2.02,1.504-3.244,1.504
		c-2.965,0-4.383-2.471-4.383-5.479c0-2.986,1.268-6.145,4.684-6.145c1.074,0,2.062,0.365,2.857,0.924v-5.199
		c0.193-0.064,0.451-0.107,0.688-0.107c0.258,0,0.516,0.064,0.709,0.107v15.684C65.679,222.219,65.464,222.262,65.228,222.262z
		 M64.433,212.852c-0.773-0.645-1.762-0.967-2.771-0.967c-2.492,0-3.33,2.449-3.33,4.941c0,1.912,0.602,4.404,3.008,4.404
		c1.16,0,2.342-0.58,3.094-1.482V212.852z"/>
	<path fill="#333333" d="M70.145,208.77c-0.494,0-0.902-0.43-0.902-0.945s0.408-0.924,0.902-0.924s0.924,0.408,0.924,0.924
		S70.639,208.77,70.145,208.77z M70.854,222.154c-0.193,0.064-0.473,0.107-0.709,0.107s-0.494-0.043-0.688-0.107v-11.193
		c0.172-0.043,0.451-0.107,0.666-0.107c0.236,0,0.559,0.043,0.73,0.107V222.154z"/>
	<path fill="#333333" d="M82.454,222.176c-0.172,0.043-0.43,0.086-0.688,0.086c-0.215,0-0.494-0.043-0.709-0.107v-6.811
		c0-1.031-0.129-1.826-0.43-2.385c-0.365-0.688-1.053-1.031-2.17-1.031c-1.074,0-2.363,0.602-3.201,1.246v8.98
		c-0.236,0.064-0.473,0.107-0.73,0.107c-0.215,0-0.473-0.043-0.666-0.107v-11.193c0.15-0.064,0.408-0.086,0.559-0.086
		c0.215,0,0.473,0.021,0.602,0.086l0.107,1.117h0.021c1.182-0.967,2.535-1.332,3.631-1.332s2.234,0.365,2.857,1.117
		c0.688,0.816,0.816,1.998,0.816,3.158V222.176z"/>
	<path fill="#333333" d="M93.408,220.285c0,1.611-0.086,3.545-0.859,4.877c-0.924,1.59-2.578,2.277-4.232,2.277
		c-0.945,0-1.762-0.107-2.449-0.344c-0.064-0.129-0.086-0.344-0.086-0.516c0-0.129,0.043-0.387,0.086-0.516
		c0.666,0.172,1.439,0.301,2.213,0.301c2.707,0,3.932-1.676,3.932-4.619v-0.902c-0.838,0.881-2.02,1.311-2.986,1.311
		c-2.857,0-4.34-2.213-4.34-5.328c0-3.824,2.256-6.08,5.586-6.08c0.881,0,2.213,0.258,3.137,0.623V220.285z M92.011,212.057
		c-0.773-0.215-1.332-0.279-1.869-0.279c-2.729,0-4.018,2.299-4.018,4.984c0,2.385,0.902,4.254,3.008,4.254
		c1.074,0,2.17-0.537,2.879-1.289V212.057z"/>
	<path fill="#333333" d="M108.7,219.404c0,0.773,0,1.74,0.043,2.75c-0.15,0.064-0.387,0.107-0.58,0.107
		c-0.172,0-0.408-0.043-0.58-0.107c-0.064-0.344-0.107-0.795-0.129-1.203h-0.021c-0.73,0.902-2.02,1.418-3.287,1.418
		c-1.998,0-3.674-1.117-3.674-3.416c0-1.311,0.537-2.277,1.375-2.879c0.945-0.666,2.191-0.881,3.523-0.881
		c0.752,0,1.375,0.043,1.934,0.129v-0.623c0-2.148-0.881-2.857-2.686-2.857c-1.01,0-2.256,0.215-3.029,0.408
		c-0.043-0.107-0.086-0.344-0.086-0.559c0-0.15,0.043-0.365,0.107-0.494c0.924-0.279,2.148-0.451,3.18-0.451
		c2.557,0,3.91,1.16,3.91,3.781V219.404z M107.303,216.375c-0.623-0.086-1.268-0.129-1.826-0.129c-1.053,0-1.998,0.193-2.643,0.688
		c-0.58,0.43-0.902,1.117-0.902,1.998c0,1.568,1.01,2.32,2.406,2.32c1.16,0,2.385-0.559,2.965-1.439V216.375z"/>
	<path fill="#333333" d="M118.708,212.314c-0.688-0.279-1.59-0.451-2.385-0.451c-2.793,0-3.824,2.17-3.824,4.791
		c0,2.578,0.988,4.576,3.803,4.576c0.752,0,1.654-0.129,2.32-0.322c0.043,0.129,0.086,0.279,0.086,0.451
		c0,0.258-0.043,0.451-0.107,0.602c-0.623,0.258-1.633,0.408-2.428,0.408c-3.502,0-5.135-2.299-5.135-5.672
		c0-3.502,1.783-5.951,5.199-5.951c0.816,0,1.783,0.193,2.449,0.494c0.064,0.172,0.086,0.344,0.086,0.537
		C118.772,211.992,118.751,212.164,118.708,212.314z"/>
	<path fill="#333333" d="M126.01,211.992c-1.246,0.172-2.6,0.623-3.609,1.396v8.766c-0.215,0.064-0.473,0.107-0.709,0.107
		s-0.473-0.043-0.688-0.107v-11.193c0.129-0.043,0.322-0.086,0.537-0.086c0.172,0,0.408,0.043,0.58,0.086l0.107,1.375h0.021
		c0.924-0.795,2.535-1.461,3.76-1.59c0.043,0.129,0.086,0.365,0.086,0.559C126.096,211.52,126.053,211.799,126.01,211.992z"/>
	<path fill="#333333" d="M131.616,222.369c-2.814,0-4.619-1.934-4.619-5.801s1.826-5.822,4.641-5.822s4.598,1.912,4.598,5.779
		S134.43,222.369,131.616,222.369z M131.637,211.799c-2.062,0-3.18,1.59-3.18,4.748s1.096,4.77,3.158,4.77s3.158-1.611,3.158-4.77
		S133.7,211.799,131.637,211.799z"/>
	<path fill="#333333" d="M141.023,222.369c-1.074,0-2.191-0.193-2.965-0.494c-0.064-0.15-0.107-0.408-0.107-0.602
		c0-0.129,0.043-0.451,0.086-0.58c0.795,0.322,1.934,0.58,2.879,0.58c1.633,0,2.643-0.688,2.643-2.041
		c0-1.225-0.623-1.654-2.32-2.277c-2.363-0.859-3.137-1.848-3.137-3.309c0-1.977,1.633-2.9,3.738-2.9
		c0.709,0,1.633,0.129,2.17,0.301c0.064,0.193,0.086,0.387,0.086,0.516c0,0.172-0.043,0.473-0.086,0.623
		c-0.709-0.215-1.461-0.344-2.191-0.344c-1.525,0-2.449,0.58-2.449,1.762c0,1.031,0.58,1.525,2.342,2.191
		c1.611,0.602,3.094,1.203,3.094,3.373C144.804,221.359,143.15,222.369,141.023,222.369z"/>
	<path fill="#333333" d="M149.571,222.369c-1.074,0-2.191-0.193-2.965-0.494c-0.064-0.15-0.107-0.408-0.107-0.602
		c0-0.129,0.043-0.451,0.086-0.58c0.795,0.322,1.934,0.58,2.879,0.58c1.633,0,2.643-0.688,2.643-2.041
		c0-1.225-0.623-1.654-2.32-2.277c-2.363-0.859-3.137-1.848-3.137-3.309c0-1.977,1.633-2.9,3.738-2.9
		c0.709,0,1.633,0.129,2.17,0.301c0.064,0.193,0.086,0.387,0.086,0.516c0,0.172-0.043,0.473-0.086,0.623
		c-0.709-0.215-1.461-0.344-2.191-0.344c-1.525,0-2.449,0.58-2.449,1.762c0,1.031,0.58,1.525,2.342,2.191
		c1.611,0.602,3.094,1.203,3.094,3.373C153.353,221.359,151.698,222.369,149.571,222.369z"/>
	<path fill="#333333" d="M164.649,222.369c-2.643,0-4.619-1.311-4.619-4.039c0-1.74,1.396-3.287,3.266-4.018
		c-1.504-0.773-2.643-1.805-2.643-3.523c0-2.17,1.934-3.395,4.061-3.395c2.041,0,3.91,1.117,3.91,3.287
		c0,1.289-0.752,2.686-2.814,3.609c1.977,0.859,3.395,2.02,3.395,3.975C169.204,220.779,167.206,222.369,164.649,222.369z
		 M164.499,214.807c-1.805,0.73-2.922,1.912-2.922,3.566c0,1.805,1.268,2.943,3.029,2.943c1.74,0,3.051-1.031,3.051-2.986
		C167.657,216.547,166.476,215.58,164.499,214.807z M164.649,208.426c-1.354,0-2.492,0.773-2.492,2.342
		c0,1.418,0.859,2.428,2.514,3.051c1.525-0.666,2.449-1.59,2.449-3.051C167.12,209.221,166.11,208.426,164.649,208.426z"/>
	<path fill="#333333" d="M175.302,222.369c-1.16,0-2.32-0.215-3.158-0.537c-0.064-0.129-0.086-0.387-0.086-0.516
		s0.021-0.43,0.064-0.58c0.945,0.344,1.955,0.559,3.008,0.559c1.912,0,3.352-1.074,3.352-3.373c0-2.771-2.02-3.072-3.953-3.072
		h-0.107c-0.043-0.172-0.064-0.344-0.064-0.516c0-0.107,0.021-0.344,0.064-0.473h0.43c1.891,0,3.158-0.773,3.158-2.857
		c0-1.762-0.945-2.535-2.492-2.535c-1.16,0-2.277,0.236-3.072,0.559c-0.043-0.107-0.086-0.408-0.086-0.58s0.043-0.387,0.086-0.494
		c0.752-0.301,1.998-0.537,3.18-0.537c2.32,0,3.91,1.225,3.91,3.502c0,1.762-0.859,2.857-2.428,3.352v0.021
		c1.848,0.451,2.922,1.676,2.922,3.631C180.028,220.908,177.966,222.369,175.302,222.369z"/>
	<path fill="#333333" d="M194.934,220.994c-0.838,0.752-2.148,1.16-3.395,1.16c-0.881,0-1.697-0.15-2.299-0.365v5.414
		c-0.215,0.064-0.408,0.107-0.709,0.107c-0.236,0-0.516-0.043-0.688-0.107v-16.242c0.107-0.043,0.365-0.086,0.58-0.086
		s0.408,0.043,0.559,0.086l0.129,1.182h0.021c0.816-0.859,2.041-1.396,3.287-1.396c1.354,0,2.557,0.58,3.309,1.654
		c0.623,0.902,1.01,2.191,1.01,3.76C196.738,218.309,196.072,219.963,194.934,220.994z M192.27,211.885
		c-1.139,0-2.277,0.473-3.029,1.418v7.391c0.559,0.258,1.418,0.408,2.148,0.408c2.32,0,3.889-1.525,3.889-4.877
		C195.277,213.582,194.246,211.885,192.27,211.885z"/>
	<path fill="#333333" d="M204.04,211.992c-1.246,0.172-2.6,0.623-3.609,1.396v8.766c-0.215,0.064-0.473,0.107-0.709,0.107
		s-0.473-0.043-0.688-0.107v-11.193c0.129-0.043,0.322-0.086,0.537-0.086c0.172,0,0.408,0.043,0.58,0.086l0.107,1.375h0.021
		c0.924-0.795,2.535-1.461,3.76-1.59c0.043,0.129,0.086,0.365,0.086,0.559C204.126,211.52,204.083,211.799,204.04,211.992z"/>
	<path fill="#333333" d="M209.646,222.369c-2.814,0-4.619-1.934-4.619-5.801s1.826-5.822,4.641-5.822s4.598,1.912,4.598,5.779
		S212.46,222.369,209.646,222.369z M209.667,211.799c-2.062,0-3.18,1.59-3.18,4.748s1.096,4.77,3.158,4.77s3.158-1.611,3.158-4.77
		S211.729,211.799,209.667,211.799z"/>
	<path fill="#333333" d="M218.43,222.24c0,1.934-0.301,3.244-1.225,4.211c-0.58,0.602-1.59,0.967-2.664,0.967
		c-0.365,0-0.602-0.021-0.967-0.086c-0.064-0.129-0.086-0.322-0.086-0.451s0.043-0.387,0.086-0.494
		c0.193,0.043,0.494,0.064,0.688,0.064c2.234,0,2.771-1.697,2.771-3.674v-11.816c0.193-0.064,0.473-0.107,0.688-0.107
		c0.193,0,0.516,0.064,0.709,0.107V222.24z M217.721,208.77c-0.494,0-0.902-0.43-0.902-0.945s0.408-0.924,0.902-0.924
		s0.924,0.408,0.924,0.924S218.215,208.77,217.721,208.77z"/>
	<path fill="#333333" d="M229.429,216.934h-7.197c0.086,2.471,1.246,4.34,3.932,4.34c0.967,0,1.869-0.129,2.664-0.322
		c0.043,0.107,0.086,0.322,0.086,0.451c0,0.215-0.043,0.408-0.107,0.559c-0.838,0.258-1.891,0.408-2.771,0.408
		c-1.697,0-2.986-0.537-3.781-1.396c-0.945-1.031-1.439-2.578-1.439-4.361c0-3.115,1.568-5.865,4.705-5.865
		c2.814,0,3.932,2.32,3.932,5.156C229.45,216.225,229.45,216.611,229.429,216.934z M228.054,215.902c0-1.977-0.215-4.104-2.6-4.104
		c-2.084,0-3.094,1.912-3.223,4.104H228.054z"/>
	<path fill="#333333" d="M238.835,212.314c-0.688-0.279-1.59-0.451-2.385-0.451c-2.793,0-3.824,2.17-3.824,4.791
		c0,2.578,0.988,4.576,3.803,4.576c0.752,0,1.654-0.129,2.32-0.322c0.043,0.129,0.086,0.279,0.086,0.451
		c0,0.258-0.043,0.451-0.107,0.602c-0.623,0.258-1.633,0.408-2.428,0.408c-3.502,0-5.135-2.299-5.135-5.672
		c0-3.502,1.783-5.951,5.199-5.951c0.816,0,1.783,0.193,2.449,0.494c0.064,0.172,0.086,0.344,0.086,0.537
		C238.899,211.992,238.878,212.164,238.835,212.314z"/>
	<path fill="#333333" d="M247.19,222.047c-0.559,0.193-1.396,0.322-2.02,0.322c-2.127,0-3.137-1.01-3.137-3.395v-6.918h-1.934
		c-0.043-0.107-0.064-0.365-0.064-0.494c0-0.107,0.021-0.365,0.064-0.473l1.934-0.129v-2.922c0.172-0.064,0.451-0.107,0.688-0.107
		s0.537,0.043,0.709,0.107v2.922h3.158c0.043,0.107,0.086,0.43,0.086,0.537c0,0.15-0.043,0.408-0.086,0.559h-3.158v6.789
		c0,1.697,0.494,2.406,1.826,2.406c0.73,0,1.439-0.107,1.934-0.258c0.043,0.107,0.086,0.365,0.086,0.516
		C247.276,221.703,247.255,221.854,247.19,222.047z"/>
	<path fill="#333333" d="M251.764,222.369c-1.074,0-2.191-0.193-2.965-0.494c-0.064-0.15-0.107-0.408-0.107-0.602
		c0-0.129,0.043-0.451,0.086-0.58c0.795,0.322,1.934,0.58,2.879,0.58c1.633,0,2.643-0.688,2.643-2.041
		c0-1.225-0.623-1.654-2.32-2.277c-2.363-0.859-3.137-1.848-3.137-3.309c0-1.977,1.633-2.9,3.738-2.9
		c0.709,0,1.633,0.129,2.17,0.301c0.064,0.193,0.086,0.387,0.086,0.516c0,0.172-0.043,0.473-0.086,0.623
		c-0.709-0.215-1.461-0.344-2.191-0.344c-1.525,0-2.449,0.58-2.449,1.762c0,1.031,0.58,1.525,2.342,2.191
		c1.611,0.602,3.094,1.203,3.094,3.373C255.545,221.359,253.891,222.369,251.764,222.369z"/>
	<path fill="#333333" d="M256.896,225.484c-0.129-0.107-0.301-0.365-0.365-0.537c0.881-0.709,1.547-1.504,1.762-2.385
		c-0.451-0.236-0.816-0.688-0.816-1.246c0-0.602,0.473-1.053,1.01-1.053c0.688,0,1.182,0.623,1.182,1.375
		C259.668,222.842,258.68,224.367,256.896,225.484z"/>
</g>
<g>
	<path fill="#333333" d="M14.347,243.684c0,0.773,0,1.74,0.043,2.75c-0.15,0.064-0.387,0.107-0.58,0.107
		c-0.172,0-0.408-0.043-0.58-0.107c-0.064-0.344-0.107-0.795-0.129-1.203h-0.021c-0.73,0.902-2.02,1.418-3.287,1.418
		c-1.998,0-3.674-1.117-3.674-3.416c0-1.311,0.537-2.277,1.375-2.879c0.945-0.666,2.191-0.881,3.523-0.881
		c0.752,0,1.375,0.043,1.934,0.129v-0.623c0-2.148-0.881-2.857-2.686-2.857c-1.01,0-2.256,0.215-3.029,0.408
		c-0.043-0.107-0.086-0.344-0.086-0.559c0-0.15,0.043-0.365,0.107-0.494c0.924-0.279,2.148-0.451,3.18-0.451
		c2.557,0,3.91,1.16,3.91,3.781V243.684z M12.95,240.654c-0.623-0.086-1.268-0.129-1.826-0.129c-1.053,0-1.998,0.193-2.643,0.688
		c-0.58,0.43-0.902,1.117-0.902,1.998c0,1.568,1.01,2.32,2.406,2.32c1.16,0,2.385-0.559,2.965-1.439V240.654z"/>
	<path fill="#333333" d="M25.902,246.455c-0.172,0.043-0.43,0.086-0.688,0.086c-0.215,0-0.494-0.043-0.709-0.107v-6.811
		c0-1.031-0.129-1.826-0.43-2.385c-0.365-0.688-1.053-1.031-2.17-1.031c-1.074,0-2.363,0.602-3.201,1.246v8.98
		c-0.236,0.064-0.473,0.107-0.73,0.107c-0.215,0-0.473-0.043-0.666-0.107V235.24c0.15-0.064,0.408-0.086,0.559-0.086
		c0.215,0,0.473,0.021,0.602,0.086l0.107,1.117h0.021c1.182-0.967,2.535-1.332,3.631-1.332s2.234,0.365,2.857,1.117
		c0.688,0.816,0.816,1.998,0.816,3.158V246.455z"/>
	<path fill="#333333" d="M36.469,246.541c-0.193,0-0.43-0.064-0.559-0.107l-0.129-1.289H35.76c-0.924,0.967-2.02,1.504-3.244,1.504
		c-2.965,0-4.383-2.471-4.383-5.479c0-2.986,1.268-6.145,4.684-6.145c1.074,0,2.062,0.365,2.857,0.924v-5.199
		c0.193-0.064,0.451-0.107,0.688-0.107c0.258,0,0.516,0.064,0.709,0.107v15.684C36.92,246.498,36.706,246.541,36.469,246.541z
		 M35.674,237.131c-0.773-0.645-1.762-0.967-2.771-0.967c-2.492,0-3.33,2.449-3.33,4.941c0,1.912,0.602,4.404,3.008,4.404
		c1.16,0,2.342-0.58,3.094-1.482V237.131z"/>
	<path fill="#333333" d="M47.207,246.648c-1.074,0-2.191-0.193-2.965-0.494c-0.064-0.15-0.107-0.408-0.107-0.602
		c0-0.129,0.043-0.451,0.086-0.58c0.795,0.322,1.934,0.58,2.879,0.58c1.633,0,2.643-0.688,2.643-2.041
		c0-1.225-0.623-1.654-2.32-2.277c-2.363-0.859-3.137-1.848-3.137-3.309c0-1.977,1.633-2.9,3.738-2.9
		c0.709,0,1.633,0.129,2.17,0.301c0.064,0.193,0.086,0.387,0.086,0.516c0,0.172-0.043,0.473-0.086,0.623
		c-0.709-0.215-1.461-0.344-2.191-0.344c-1.525,0-2.449,0.58-2.449,1.762c0,1.031,0.58,1.525,2.342,2.191
		c1.611,0.602,3.094,1.203,3.094,3.373C50.988,245.639,49.333,246.648,47.207,246.648z"/>
	<path fill="#333333" d="M61.255,241.213h-7.197c0.086,2.471,1.246,4.34,3.932,4.34c0.967,0,1.869-0.129,2.664-0.322
		c0.043,0.107,0.086,0.322,0.086,0.451c0,0.215-0.043,0.408-0.107,0.559c-0.838,0.258-1.891,0.408-2.771,0.408
		c-1.697,0-2.986-0.537-3.781-1.396c-0.945-1.031-1.439-2.578-1.439-4.361c0-3.115,1.568-5.865,4.705-5.865
		c2.814,0,3.932,2.32,3.932,5.156C61.276,240.504,61.276,240.891,61.255,241.213z M59.88,240.182c0-1.977-0.215-4.104-2.6-4.104
		c-2.084,0-3.094,1.912-3.223,4.104H59.88z"/>
	<path fill="#333333" d="M70.662,236.594c-0.688-0.279-1.59-0.451-2.385-0.451c-2.793,0-3.824,2.17-3.824,4.791
		c0,2.578,0.988,4.576,3.803,4.576c0.752,0,1.654-0.129,2.32-0.322c0.043,0.129,0.086,0.279,0.086,0.451
		c0,0.258-0.043,0.451-0.107,0.602c-0.623,0.258-1.633,0.408-2.428,0.408c-3.502,0-5.135-2.299-5.135-5.672
		c0-3.502,1.783-5.951,5.199-5.951c0.816,0,1.783,0.193,2.449,0.494c0.064,0.172,0.086,0.344,0.086,0.537
		C70.727,236.271,70.705,236.443,70.662,236.594z"/>
	<path fill="#333333" d="M81.208,242.18c0,3.266-1.354,4.469-4.189,4.469c-2.9,0-4.125-1.203-4.125-4.361v-7.047
		c0.193-0.064,0.451-0.107,0.688-0.107c0.301,0,0.537,0.064,0.709,0.107v6.875c0,2.084,0.322,3.459,2.75,3.459
		c2.277,0,2.771-1.332,2.771-3.502v-6.832c0.172-0.064,0.473-0.107,0.709-0.107s0.494,0.043,0.688,0.107V242.18z"/>
	<path fill="#333333" d="M89.068,236.271c-1.246,0.172-2.6,0.623-3.609,1.396v8.766c-0.215,0.064-0.473,0.107-0.709,0.107
		s-0.473-0.043-0.688-0.107V235.24c0.129-0.043,0.322-0.086,0.537-0.086c0.172,0,0.408,0.043,0.58,0.086l0.107,1.375h0.021
		c0.924-0.795,2.535-1.461,3.76-1.59c0.043,0.129,0.086,0.365,0.086,0.559C89.154,235.799,89.111,236.078,89.068,236.271z"/>
	<path fill="#333333" d="M98.67,241.213h-7.197c0.086,2.471,1.246,4.34,3.932,4.34c0.967,0,1.869-0.129,2.664-0.322
		c0.043,0.107,0.086,0.322,0.086,0.451c0,0.215-0.043,0.408-0.107,0.559c-0.838,0.258-1.891,0.408-2.771,0.408
		c-1.697,0-2.986-0.537-3.781-1.396c-0.945-1.031-1.439-2.578-1.439-4.361c0-3.115,1.568-5.865,4.705-5.865
		c2.814,0,3.932,2.32,3.932,5.156C98.691,240.504,98.691,240.891,98.67,241.213z M97.295,240.182c0-1.977-0.215-4.104-2.6-4.104
		c-2.084,0-3.094,1.912-3.223,4.104H97.295z"/>
	<path fill="#333333" d="M108.743,246.541c-0.193,0-0.43-0.064-0.559-0.107l-0.129-1.289h-0.021
		c-0.924,0.967-2.02,1.504-3.244,1.504c-2.965,0-4.383-2.471-4.383-5.479c0-2.986,1.268-6.145,4.684-6.145
		c1.074,0,2.062,0.365,2.857,0.924v-5.199c0.193-0.064,0.451-0.107,0.688-0.107c0.258,0,0.516,0.064,0.709,0.107v15.684
		C109.194,246.498,108.979,246.541,108.743,246.541z M107.948,237.131c-0.773-0.645-1.762-0.967-2.771-0.967
		c-2.492,0-3.33,2.449-3.33,4.941c0,1.912,0.602,4.404,3.008,4.404c1.16,0,2.342-0.58,3.094-1.482V237.131z"/>
	<path fill="#333333" d="M122.939,246.434c-0.172,0.064-0.494,0.107-0.73,0.107s-0.559-0.043-0.73-0.107v-13.062l-3.76,2.385
		c-0.215-0.193-0.473-0.58-0.559-0.945l4.598-2.922c0.15-0.043,0.387-0.086,0.559-0.086c0.215,0,0.451,0.043,0.623,0.107V246.434z"
		/>
	<path fill="#333333" d="M132.562,246.648c-2.9,0-4.512-2.148-4.512-7.477s1.783-7.477,4.598-7.477c2.857,0,4.512,2.148,4.512,7.477
		S135.376,246.648,132.562,246.648z M132.647,232.748c-2.148,0-3.051,2.191-3.051,6.424s0.838,6.424,2.986,6.424
		s3.029-2.191,3.029-6.424S134.796,232.748,132.647,232.748z"/>
	<path fill="#333333" d="M149.486,236.271c-1.246,0.172-2.6,0.623-3.609,1.396v8.766c-0.215,0.064-0.473,0.107-0.709,0.107
		s-0.473-0.043-0.688-0.107V235.24c0.129-0.043,0.322-0.086,0.537-0.086c0.172,0,0.408,0.043,0.58,0.086l0.107,1.375h0.021
		c0.924-0.795,2.535-1.461,3.76-1.59c0.043,0.129,0.086,0.365,0.086,0.559C149.572,235.799,149.529,236.078,149.486,236.271z"/>
	<path fill="#333333" d="M159.088,241.213h-7.197c0.086,2.471,1.246,4.34,3.932,4.34c0.967,0,1.869-0.129,2.664-0.322
		c0.043,0.107,0.086,0.322,0.086,0.451c0,0.215-0.043,0.408-0.107,0.559c-0.838,0.258-1.891,0.408-2.771,0.408
		c-1.697,0-2.986-0.537-3.781-1.396c-0.945-1.031-1.439-2.578-1.439-4.361c0-3.115,1.568-5.865,4.705-5.865
		c2.814,0,3.932,2.32,3.932,5.156C159.109,240.504,159.109,240.891,159.088,241.213z M157.713,240.182
		c0-1.977-0.215-4.104-2.6-4.104c-2.084,0-3.094,1.912-3.223,4.104H157.713z"/>
	<path fill="#333333" d="M163.94,246.648c-1.074,0-2.191-0.193-2.965-0.494c-0.064-0.15-0.107-0.408-0.107-0.602
		c0-0.129,0.043-0.451,0.086-0.58c0.795,0.322,1.934,0.58,2.879,0.58c1.633,0,2.643-0.688,2.643-2.041
		c0-1.225-0.623-1.654-2.32-2.277c-2.363-0.859-3.137-1.848-3.137-3.309c0-1.977,1.633-2.9,3.738-2.9
		c0.709,0,1.633,0.129,2.17,0.301c0.064,0.193,0.086,0.387,0.086,0.516c0,0.172-0.043,0.473-0.086,0.623
		c-0.709-0.215-1.461-0.344-2.191-0.344c-1.525,0-2.449,0.58-2.449,1.762c0,1.031,0.58,1.525,2.342,2.191
		c1.611,0.602,3.094,1.203,3.094,3.373C167.722,245.639,166.067,246.648,163.94,246.648z"/>
	<path fill="#333333" d="M177.988,241.213h-7.197c0.086,2.471,1.246,4.34,3.932,4.34c0.967,0,1.869-0.129,2.664-0.322
		c0.043,0.107,0.086,0.322,0.086,0.451c0,0.215-0.043,0.408-0.107,0.559c-0.838,0.258-1.891,0.408-2.771,0.408
		c-1.697,0-2.986-0.537-3.781-1.396c-0.945-1.031-1.439-2.578-1.439-4.361c0-3.115,1.568-5.865,4.705-5.865
		c2.814,0,3.932,2.32,3.932,5.156C178.01,240.504,178.01,240.891,177.988,241.213z M176.613,240.182c0-1.977-0.215-4.104-2.6-4.104
		c-2.084,0-3.094,1.912-3.223,4.104H176.613z"/>
	<path fill="#333333" d="M187.997,243.684c0,0.773,0,1.74,0.043,2.75c-0.15,0.064-0.387,0.107-0.58,0.107
		c-0.172,0-0.408-0.043-0.58-0.107c-0.064-0.344-0.107-0.795-0.129-1.203h-0.021c-0.73,0.902-2.02,1.418-3.287,1.418
		c-1.998,0-3.674-1.117-3.674-3.416c0-1.311,0.537-2.277,1.375-2.879c0.945-0.666,2.191-0.881,3.523-0.881
		c0.752,0,1.375,0.043,1.934,0.129v-0.623c0-2.148-0.881-2.857-2.686-2.857c-1.01,0-2.256,0.215-3.029,0.408
		c-0.043-0.107-0.086-0.344-0.086-0.559c0-0.15,0.043-0.365,0.107-0.494c0.924-0.279,2.148-0.451,3.18-0.451
		c2.557,0,3.91,1.16,3.91,3.781V243.684z M186.601,240.654c-0.623-0.086-1.268-0.129-1.826-0.129c-1.053,0-1.998,0.193-2.643,0.688
		c-0.58,0.43-0.902,1.117-0.902,1.998c0,1.568,1.01,2.32,2.406,2.32c1.16,0,2.385-0.559,2.965-1.439V240.654z"/>
	<path fill="#333333" d="M195.965,236.271c-1.246,0.172-2.6,0.623-3.609,1.396v8.766c-0.215,0.064-0.473,0.107-0.709,0.107
		s-0.473-0.043-0.688-0.107V235.24c0.129-0.043,0.322-0.086,0.537-0.086c0.172,0,0.408,0.043,0.58,0.086l0.107,1.375h0.021
		c0.924-0.795,2.535-1.461,3.76-1.59c0.043,0.129,0.086,0.365,0.086,0.559C196.051,235.799,196.008,236.078,195.965,236.271z"/>
	<path fill="#333333" d="M204.621,236.594c-0.688-0.279-1.59-0.451-2.385-0.451c-2.793,0-3.824,2.17-3.824,4.791
		c0,2.578,0.988,4.576,3.803,4.576c0.752,0,1.654-0.129,2.32-0.322c0.043,0.129,0.086,0.279,0.086,0.451
		c0,0.258-0.043,0.451-0.107,0.602c-0.623,0.258-1.633,0.408-2.428,0.408c-3.502,0-5.135-2.299-5.135-5.672
		c0-3.502,1.783-5.951,5.199-5.951c0.816,0,1.783,0.193,2.449,0.494c0.064,0.172,0.086,0.344,0.086,0.537
		C204.686,236.271,204.664,236.443,204.621,236.594z"/>
	<path fill="#333333" d="M215.511,246.434c-0.193,0.064-0.43,0.107-0.645,0.107c-0.258,0-0.537-0.043-0.752-0.107v-6.789
		c0-2.363-0.602-3.438-2.6-3.438c-1.074,0-2.363,0.602-3.201,1.246v8.98c-0.236,0.064-0.494,0.107-0.73,0.107
		c-0.215,0-0.473-0.043-0.666-0.107V230.75c0.193-0.064,0.494-0.107,0.688-0.107s0.516,0.043,0.709,0.107v5.521
		c1.139-0.881,2.492-1.246,3.545-1.246c1.096,0,2.213,0.365,2.836,1.117c0.688,0.816,0.816,1.998,0.816,3.158V246.434z"/>
	<path fill="#333333" d="M230.18,245.273c-0.838,0.752-2.148,1.16-3.395,1.16c-0.881,0-1.697-0.15-2.299-0.365v5.414
		c-0.215,0.064-0.408,0.107-0.709,0.107c-0.236,0-0.516-0.043-0.688-0.107V235.24c0.107-0.043,0.365-0.086,0.58-0.086
		s0.408,0.043,0.559,0.086l0.129,1.182h0.021c0.816-0.859,2.041-1.396,3.287-1.396c1.354,0,2.557,0.58,3.309,1.654
		c0.623,0.902,1.01,2.191,1.01,3.76C231.984,242.588,231.318,244.242,230.18,245.273z M227.516,236.164
		c-1.139,0-2.277,0.473-3.029,1.418v7.391c0.559,0.258,1.418,0.408,2.148,0.408c2.32,0,3.889-1.525,3.889-4.877
		C230.523,237.861,229.492,236.164,227.516,236.164z"/>
	<path fill="#333333" d="M239.286,236.271c-1.246,0.172-2.6,0.623-3.609,1.396v8.766c-0.215,0.064-0.473,0.107-0.709,0.107
		s-0.473-0.043-0.688-0.107V235.24c0.129-0.043,0.322-0.086,0.537-0.086c0.172,0,0.408,0.043,0.58,0.086l0.107,1.375h0.021
		c0.924-0.795,2.535-1.461,3.76-1.59c0.043,0.129,0.086,0.365,0.086,0.559C239.372,235.799,239.329,236.078,239.286,236.271z"/>
	<path fill="#333333" d="M244.913,246.648c-2.814,0-4.619-1.934-4.619-5.801s1.826-5.822,4.641-5.822s4.598,1.912,4.598,5.779
		S247.728,246.648,244.913,246.648z M244.935,236.078c-2.062,0-3.18,1.59-3.18,4.748s1.096,4.77,3.158,4.77s3.158-1.611,3.158-4.77
		S246.997,236.078,244.935,236.078z"/>
	<path fill="#333333" d="M253.697,246.52c0,1.934-0.301,3.244-1.225,4.211c-0.58,0.602-1.59,0.967-2.664,0.967
		c-0.365,0-0.602-0.021-0.967-0.086c-0.064-0.129-0.086-0.322-0.086-0.451s0.043-0.387,0.086-0.494
		c0.193,0.043,0.494,0.064,0.688,0.064c2.234,0,2.771-1.697,2.771-3.674V235.24c0.193-0.064,0.473-0.107,0.688-0.107
		c0.193,0,0.516,0.064,0.709,0.107V246.52z M252.988,233.049c-0.494,0-0.902-0.43-0.902-0.945s0.408-0.924,0.902-0.924
		s0.924,0.408,0.924,0.924S253.482,233.049,252.988,233.049z"/>
	<path fill="#333333" d="M264.695,241.213h-7.197c0.086,2.471,1.246,4.34,3.932,4.34c0.967,0,1.869-0.129,2.664-0.322
		c0.043,0.107,0.086,0.322,0.086,0.451c0,0.215-0.043,0.408-0.107,0.559c-0.838,0.258-1.891,0.408-2.771,0.408
		c-1.697,0-2.986-0.537-3.781-1.396c-0.945-1.031-1.439-2.578-1.439-4.361c0-3.115,1.568-5.865,4.705-5.865
		c2.814,0,3.932,2.32,3.932,5.156C264.717,240.504,264.717,240.891,264.695,241.213z M263.32,240.182c0-1.977-0.215-4.104-2.6-4.104
		c-2.084,0-3.094,1.912-3.223,4.104H263.32z"/>
	<path fill="#333333" d="M274.103,236.594c-0.688-0.279-1.59-0.451-2.385-0.451c-2.793,0-3.824,2.17-3.824,4.791
		c0,2.578,0.988,4.576,3.803,4.576c0.752,0,1.654-0.129,2.32-0.322c0.043,0.129,0.086,0.279,0.086,0.451
		c0,0.258-0.043,0.451-0.107,0.602c-0.623,0.258-1.633,0.408-2.428,0.408c-3.502,0-5.135-2.299-5.135-5.672
		c0-3.502,1.783-5.951,5.199-5.951c0.816,0,1.783,0.193,2.449,0.494c0.064,0.172,0.086,0.344,0.086,0.537
		C274.167,236.271,274.146,236.443,274.103,236.594z"/>
	<path fill="#333333" d="M282.458,246.326c-0.559,0.193-1.396,0.322-2.02,0.322c-2.127,0-3.137-1.01-3.137-3.395v-6.918h-1.934
		c-0.043-0.107-0.064-0.365-0.064-0.494c0-0.107,0.021-0.365,0.064-0.473l1.934-0.129v-2.922c0.172-0.064,0.451-0.107,0.688-0.107
		s0.537,0.043,0.709,0.107v2.922h3.158c0.043,0.107,0.086,0.43,0.086,0.537c0,0.15-0.043,0.408-0.086,0.559h-3.158v6.789
		c0,1.697,0.494,2.406,1.826,2.406c0.73,0,1.439-0.107,1.934-0.258c0.043,0.107,0.086,0.365,0.086,0.516
		C282.544,245.982,282.522,246.133,282.458,246.326z"/>
	<path fill="#333333" d="M287.031,246.648c-1.074,0-2.191-0.193-2.965-0.494c-0.064-0.15-0.107-0.408-0.107-0.602
		c0-0.129,0.043-0.451,0.086-0.58c0.795,0.322,1.934,0.58,2.879,0.58c1.633,0,2.643-0.688,2.643-2.041
		c0-1.225-0.623-1.654-2.32-2.277c-2.363-0.859-3.137-1.848-3.137-3.309c0-1.977,1.633-2.9,3.738-2.9
		c0.709,0,1.633,0.129,2.17,0.301c0.064,0.193,0.086,0.387,0.086,0.516c0,0.172-0.043,0.473-0.086,0.623
		c-0.709-0.215-1.461-0.344-2.191-0.344c-1.525,0-2.449,0.58-2.449,1.762c0,1.031,0.58,1.525,2.342,2.191
		c1.611,0.602,3.094,1.203,3.094,3.373C290.812,245.639,289.158,246.648,287.031,246.648z"/>
</g>
<g>
	<path fill="#333333" d="M13.036,255.944c-0.322-0.086-0.902-0.172-1.354-0.172c-0.816,0-1.418,0.215-1.826,0.666
		c-0.623,0.666-0.73,1.568-0.73,2.707v0.365h3.029c0.043,0.107,0.086,0.365,0.086,0.516c0,0.172-0.043,0.43-0.086,0.58H9.126v10.098
		c-0.193,0.064-0.408,0.107-0.688,0.107s-0.516-0.043-0.709-0.107v-10.098H5.796c-0.043-0.107-0.064-0.387-0.064-0.516
		c0-0.107,0.021-0.344,0.064-0.451l1.934-0.129v-0.365c0-1.525,0.258-2.578,1.139-3.459c0.623-0.623,1.547-0.924,2.6-0.924
		c0.559,0,1.182,0.129,1.568,0.279c0.043,0.107,0.064,0.258,0.064,0.408C13.101,255.579,13.079,255.837,13.036,255.944z"/>
	<path fill="#333333" d="M19.136,260.542c-1.246,0.172-2.6,0.623-3.609,1.396v8.766c-0.215,0.064-0.473,0.107-0.709,0.107
		s-0.473-0.043-0.688-0.107v-11.193c0.129-0.043,0.322-0.086,0.537-0.086c0.172,0,0.408,0.043,0.58,0.086l0.107,1.375h0.021
		c0.924-0.795,2.535-1.461,3.76-1.59c0.043,0.129,0.086,0.365,0.086,0.559C19.222,260.069,19.179,260.349,19.136,260.542z"/>
	<path fill="#333333" d="M24.741,270.919c-2.814,0-4.619-1.934-4.619-5.801s1.826-5.822,4.641-5.822s4.598,1.912,4.598,5.779
		S27.556,270.919,24.741,270.919z M24.763,260.349c-2.062,0-3.18,1.59-3.18,4.748s1.096,4.77,3.158,4.77s3.158-1.611,3.158-4.77
		S26.825,260.349,24.763,260.349z"/>
	<path fill="#333333" d="M47.21,270.726c-0.215,0.043-0.43,0.086-0.645,0.086c-0.258,0-0.494-0.064-0.752-0.107v-6.789
		c0-2.363-0.602-3.438-2.6-3.438c-1.031,0-2.406,0.537-3.266,1.16c0.172,0.602,0.215,1.268,0.215,1.934v7.133
		c-0.215,0.064-0.43,0.107-0.645,0.107c-0.279,0-0.537-0.043-0.752-0.107v-6.789c0-2.363-0.537-3.438-2.535-3.438
		c-1.074,0-2.342,0.602-3.18,1.246v8.98c-0.236,0.064-0.516,0.107-0.773,0.107c-0.215,0-0.451-0.043-0.623-0.107v-11.193
		c0.107-0.043,0.344-0.086,0.58-0.086c0.193,0,0.43,0.043,0.58,0.086l0.107,1.117h0.021c1.182-0.967,2.535-1.332,3.631-1.332
		s2.148,0.365,2.771,1.117c0.086,0.086,0.15,0.193,0.215,0.301c1.139-0.924,2.6-1.418,3.996-1.418c1.096,0,2.213,0.365,2.836,1.117
		c0.688,0.816,0.816,1.998,0.816,3.158V270.726z"/>
	<path fill="#333333" d="M65.1,270.704c-0.172,0.064-0.494,0.107-0.73,0.107s-0.559-0.043-0.73-0.107v-6.725h-7.025v6.725
		c-0.172,0.064-0.494,0.107-0.73,0.107s-0.559-0.043-0.73-0.107v-14.523c0.172-0.064,0.494-0.107,0.73-0.107s0.559,0.043,0.73,0.107
		v6.639h7.025v-6.639c0.172-0.064,0.494-0.107,0.73-0.107s0.559,0.043,0.73,0.107V270.704z"/>
	<path fill="#333333" d="M72.38,270.919c-2.814,0-4.619-1.934-4.619-5.801s1.826-5.822,4.641-5.822s4.598,1.912,4.598,5.779
		S75.194,270.919,72.38,270.919z M72.401,260.349c-2.062,0-3.18,1.59-3.18,4.748s1.096,4.77,3.158,4.77s3.158-1.611,3.158-4.77
		S74.464,260.349,72.401,260.349z"/>
	<path fill="#333333" d="M84.3,260.542c-1.246,0.172-2.6,0.623-3.609,1.396v8.766c-0.215,0.064-0.473,0.107-0.709,0.107
		s-0.473-0.043-0.688-0.107v-11.193c0.129-0.043,0.322-0.086,0.537-0.086c0.172,0,0.408,0.043,0.58,0.086l0.107,1.375h0.021
		c0.924-0.795,2.535-1.461,3.76-1.59c0.043,0.129,0.086,0.365,0.086,0.559C84.386,260.069,84.343,260.349,84.3,260.542z"/>
	<path fill="#333333" d="M87.242,257.319c-0.494,0-0.902-0.43-0.902-0.945s0.408-0.924,0.902-0.924s0.924,0.408,0.924,0.924
		S87.736,257.319,87.242,257.319z M87.951,270.704c-0.193,0.064-0.473,0.107-0.709,0.107s-0.494-0.043-0.688-0.107v-11.193
		c0.172-0.043,0.451-0.107,0.666-0.107c0.236,0,0.559,0.043,0.73,0.107V270.704z"/>
	<path fill="#333333" d="M98.412,260.499l-6.252,9.109h6.209c0.043,0.129,0.086,0.473,0.086,0.623c0,0.129-0.043,0.344-0.086,0.473
		H90.57c-0.043-0.086-0.064-0.301-0.064-0.43c0-0.15,0.021-0.344,0.086-0.537l6.273-9.131h-5.994
		c-0.064-0.15-0.107-0.408-0.107-0.559c0-0.107,0.043-0.43,0.107-0.537h7.584c0.043,0.129,0.064,0.322,0.064,0.451
		C98.52,260.048,98.498,260.241,98.412,260.499z"/>
	<path fill="#333333" d="M104.576,270.919c-2.814,0-4.619-1.934-4.619-5.801s1.826-5.822,4.641-5.822s4.598,1.912,4.598,5.779
		S107.39,270.919,104.576,270.919z M104.597,260.349c-2.062,0-3.18,1.59-3.18,4.748s1.096,4.77,3.158,4.77s3.158-1.611,3.158-4.77
		S106.66,260.349,104.597,260.349z"/>
	<path fill="#333333" d="M120.084,270.726c-0.172,0.043-0.43,0.086-0.688,0.086c-0.215,0-0.494-0.043-0.709-0.107v-6.811
		c0-1.031-0.129-1.826-0.43-2.385c-0.365-0.688-1.053-1.031-2.17-1.031c-1.074,0-2.363,0.602-3.201,1.246v8.98
		c-0.236,0.064-0.473,0.107-0.73,0.107c-0.215,0-0.473-0.043-0.666-0.107v-11.193c0.15-0.064,0.408-0.086,0.559-0.086
		c0.215,0,0.473,0.021,0.602,0.086l0.107,1.117h0.021c1.182-0.967,2.535-1.332,3.631-1.332s2.234,0.365,2.857,1.117
		c0.688,0.816,0.816,1.998,0.816,3.158V270.726z"/>
	<path fill="#333333" d="M132.282,266.386c-1.053,1.225-2.041,2.277-2.879,3.18h6.617c0.064,0.193,0.064,0.43,0.064,0.559
		c0,0.193-0.021,0.387-0.064,0.58h-8.1c-0.129-0.365-0.172-0.602-0.172-0.838c0-0.15,0-0.215,0.021-0.344
		c1.246-1.354,2.729-2.965,3.588-3.932c2.363-2.664,3.266-4.275,3.266-5.865c0-1.805-1.031-2.707-2.707-2.707
		c-1.139,0-2.471,0.344-3.523,0.816c-0.043-0.129-0.064-0.43-0.064-0.559c0-0.193,0.043-0.387,0.107-0.559
		c0.859-0.387,2.363-0.752,3.674-0.752c2.406,0,4.061,1.332,4.061,3.631C136.171,261.53,135.14,263.077,132.282,266.386z"/>
	<path fill="#333333" d="M143.236,270.919c-2.9,0-4.512-2.148-4.512-7.477s1.783-7.477,4.598-7.477c2.857,0,4.512,2.148,4.512,7.477
		S146.051,270.919,143.236,270.919z M143.322,257.019c-2.148,0-3.051,2.191-3.051,6.424s0.838,6.424,2.986,6.424
		s3.029-2.191,3.029-6.424S145.471,257.019,143.322,257.019z"/>
	<path fill="#333333" d="M155.05,266.386c-1.053,1.225-2.041,2.277-2.879,3.18h6.617c0.064,0.193,0.064,0.43,0.064,0.559
		c0,0.193-0.021,0.387-0.064,0.58h-8.1c-0.129-0.365-0.172-0.602-0.172-0.838c0-0.15,0-0.215,0.021-0.344
		c1.246-1.354,2.729-2.965,3.588-3.932c2.363-2.664,3.266-4.275,3.266-5.865c0-1.805-1.031-2.707-2.707-2.707
		c-1.139,0-2.471,0.344-3.523,0.816c-0.043-0.129-0.064-0.43-0.064-0.559c0-0.193,0.043-0.387,0.107-0.559
		c0.859-0.387,2.363-0.752,3.674-0.752c2.406,0,4.061,1.332,4.061,3.631C158.938,261.53,157.907,263.077,155.05,266.386z"/>
	<path fill="#333333" d="M166.003,270.919c-2.9,0-4.512-2.148-4.512-7.477s1.783-7.477,4.598-7.477c2.857,0,4.512,2.148,4.512,7.477
		S168.817,270.919,166.003,270.919z M166.089,257.019c-2.148,0-3.051,2.191-3.051,6.424s0.838,6.424,2.986,6.424
		s3.029-2.191,3.029-6.424S168.237,257.019,166.089,257.019z"/>
	<path fill="#333333" d="M172.381,274.034c-0.129-0.107-0.301-0.365-0.365-0.537c0.881-0.709,1.547-1.504,1.762-2.385
		c-0.451-0.236-0.816-0.688-0.816-1.246c0-0.602,0.473-1.053,1.01-1.053c0.688,0,1.182,0.623,1.182,1.375
		C175.152,271.392,174.164,272.917,172.381,274.034z"/>
	<path fill="#333333" d="M184.86,270.919c-1.074,0-2.191-0.193-2.965-0.494c-0.064-0.15-0.107-0.408-0.107-0.602
		c0-0.129,0.043-0.451,0.086-0.58c0.795,0.322,1.934,0.58,2.879,0.58c1.633,0,2.643-0.688,2.643-2.041
		c0-1.225-0.623-1.654-2.32-2.277c-2.363-0.859-3.137-1.848-3.137-3.309c0-1.977,1.633-2.9,3.738-2.9
		c0.709,0,1.633,0.129,2.17,0.301c0.064,0.193,0.086,0.387,0.086,0.516c0,0.172-0.043,0.473-0.086,0.623
		c-0.709-0.215-1.461-0.344-2.191-0.344c-1.525,0-2.449,0.58-2.449,1.762c0,1.031,0.58,1.525,2.342,2.191
		c1.611,0.602,3.094,1.203,3.094,3.373C188.642,269.909,186.987,270.919,184.86,270.919z"/>
	<path fill="#333333" d="M191.689,257.319c-0.494,0-0.902-0.43-0.902-0.945s0.408-0.924,0.902-0.924s0.924,0.408,0.924,0.924
		S192.184,257.319,191.689,257.319z M192.398,270.704c-0.193,0.064-0.473,0.107-0.709,0.107s-0.494-0.043-0.688-0.107v-11.193
		c0.172-0.043,0.451-0.107,0.666-0.107c0.236,0,0.559,0.043,0.73,0.107V270.704z"/>
	<path fill="#333333" d="M203.999,270.726c-0.172,0.043-0.43,0.086-0.688,0.086c-0.215,0-0.494-0.043-0.709-0.107v-6.811
		c0-1.031-0.129-1.826-0.43-2.385c-0.365-0.688-1.053-1.031-2.17-1.031c-1.074,0-2.363,0.602-3.201,1.246v8.98
		c-0.236,0.064-0.473,0.107-0.73,0.107c-0.215,0-0.473-0.043-0.666-0.107v-11.193c0.15-0.064,0.408-0.086,0.559-0.086
		c0.215,0,0.473,0.021,0.602,0.086l0.107,1.117h0.021c1.182-0.967,2.535-1.332,3.631-1.332s2.234,0.365,2.857,1.117
		c0.688,0.816,0.816,1.998,0.816,3.158V270.726z"/>
	<path fill="#333333" d="M213.9,260.864c-0.688-0.279-1.59-0.451-2.385-0.451c-2.793,0-3.824,2.17-3.824,4.791
		c0,2.578,0.988,4.576,3.803,4.576c0.752,0,1.654-0.129,2.32-0.322c0.043,0.129,0.086,0.279,0.086,0.451
		c0,0.258-0.043,0.451-0.107,0.602c-0.623,0.258-1.633,0.408-2.428,0.408c-3.502,0-5.135-2.299-5.135-5.672
		c0-3.502,1.783-5.951,5.199-5.951c0.816,0,1.783,0.193,2.449,0.494c0.064,0.172,0.086,0.344,0.086,0.537
		C213.965,260.542,213.943,260.714,213.9,260.864z"/>
	<path fill="#333333" d="M224.188,265.483h-7.197c0.086,2.471,1.246,4.34,3.932,4.34c0.967,0,1.869-0.129,2.664-0.322
		c0.043,0.107,0.086,0.322,0.086,0.451c0,0.215-0.043,0.408-0.107,0.559c-0.838,0.258-1.891,0.408-2.771,0.408
		c-1.697,0-2.986-0.537-3.781-1.396c-0.945-1.031-1.439-2.578-1.439-4.361c0-3.115,1.568-5.865,4.705-5.865
		c2.814,0,3.932,2.32,3.932,5.156C224.21,264.774,224.21,265.161,224.188,265.483z M222.813,264.452c0-1.977-0.215-4.104-2.6-4.104
		c-2.084,0-3.094,1.912-3.223,4.104H222.813z"/>
	<path fill="#333333" d="M235.893,266.386c-1.053,1.225-2.041,2.277-2.879,3.18h6.617c0.064,0.193,0.064,0.43,0.064,0.559
		c0,0.193-0.021,0.387-0.064,0.58h-8.1c-0.129-0.365-0.172-0.602-0.172-0.838c0-0.15,0-0.215,0.021-0.344
		c1.246-1.354,2.729-2.965,3.588-3.932c2.363-2.664,3.266-4.275,3.266-5.865c0-1.805-1.031-2.707-2.707-2.707
		c-1.139,0-2.471,0.344-3.523,0.816c-0.043-0.129-0.064-0.43-0.064-0.559c0-0.193,0.043-0.387,0.107-0.559
		c0.859-0.387,2.363-0.752,3.674-0.752c2.406,0,4.061,1.332,4.061,3.631C239.781,261.53,238.75,263.077,235.893,266.386z"/>
	<path fill="#333333" d="M246.847,270.919c-2.9,0-4.512-2.148-4.512-7.477s1.783-7.477,4.598-7.477c2.857,0,4.512,2.148,4.512,7.477
		S249.661,270.919,246.847,270.919z M246.933,257.019c-2.148,0-3.051,2.191-3.051,6.424s0.838,6.424,2.986,6.424
		s3.029-2.191,3.029-6.424S249.081,257.019,246.933,257.019z"/>
	<path fill="#333333" d="M259.992,270.704c-0.172,0.064-0.494,0.107-0.73,0.107s-0.559-0.043-0.73-0.107v-13.062l-3.76,2.385
		c-0.215-0.193-0.473-0.58-0.559-0.945l4.598-2.922c0.15-0.043,0.387-0.086,0.559-0.086c0.215,0,0.451,0.043,0.623,0.107V270.704z"
		/>
	<path fill="#333333" d="M274.77,267.181h-2.127v3.523c-0.215,0.064-0.473,0.086-0.709,0.086s-0.537-0.043-0.709-0.086v-3.523
		h-6.166c-0.064-0.15-0.107-0.387-0.107-0.559c0-0.236,0.043-0.494,0.107-0.666l4.684-9.775c0.215-0.064,0.537-0.107,0.752-0.107
		c0.258,0,0.537,0.043,0.73,0.107l-4.77,9.84h4.77v-3.717c0.172-0.064,0.473-0.107,0.709-0.107s0.537,0.043,0.709,0.107v3.717h2.127
		c0.064,0.172,0.107,0.344,0.107,0.58S274.834,267.009,274.77,267.181z"/>
</g>
</svg>
