<?xml version="1.0" encoding="utf-8"?>
<!-- Generator: Adobe Illustrator 16.0.0, SVG Export Plug-In . SVG Version: 6.00 Build 0)  -->
<!DOCTYPE svg PUBLIC "-//W3C//DTD SVG 1.0//EN" "http://www.w3.org/TR/2001/REC-SVG-20010904/DTD/svg10.dtd">
<svg version="1.0" xmlns="http://www.w3.org/2000/svg" xmlns:xlink="http://www.w3.org/1999/xlink" x="0px" y="0px" width="300px"
	 height="300px" viewBox="0 0 300 300" style="enable-background:new 0 0 300 300;" xml:space="preserve">
<g id="Text" style="display:none;">
	<text transform="matrix(1 0 0 1 11.5781 62.915)" style="display:inline;"><tspan x="0" y="0" style="fill:#58595B; font-family:'FSMatthew-Light'; font-size:20.0494;">W</tspan><tspan x="16.801" y="0" style="fill:#58595B; font-family:'FSMatthew-Light'; font-size:20.0494;">e h</tspan><tspan x="41.562" y="0" style="fill:#58595B; font-family:'FSMatthew-Light'; font-size:20.0494;">a</tspan><tspan x="51.286" y="0" style="fill:#58595B; font-family:'FSMatthew-Light'; font-size:20.0494;">v</tspan><tspan x="60.628" y="0" style="fill:#58595B; font-family:'FSMatthew-Light'; font-size:20.0494;">e pa</tspan><tspan x="95.052" y="0" style="fill:#58595B; font-family:'FSMatthew-Light'; font-size:20.0494;">r</tspan><tspan x="101.929" y="0" style="fill:#58595B; font-family:'FSMatthew-Light'; font-size:20.0494;">tne</tspan><tspan x="129.777" y="0" style="fill:#58595B; font-family:'FSMatthew-Light'; font-size:20.0494;">r</tspan><tspan x="135.973" y="0" style="fill:#58595B; font-family:'FSMatthew-Light'; font-size:20.0494;">ed with the </tspan></text>
	<text transform="matrix(1 0 0 1 11.5781 91.1855)" style="display:inline;"><tspan x="0" y="0" style="fill:#58595B; font-family:'FSMatthew-Bold'; font-size:22.6158;">U</tspan><tspan x="14.406" y="0" style="fill:#58595B; font-family:'FSMatthew-Bold'; font-size:22.6158;">ni</tspan><tspan x="32.905" y="0" style="fill:#58595B; font-family:'FSMatthew-Bold'; font-size:22.6158;">v</tspan><tspan x="44.303" y="0" style="fill:#58595B; font-family:'FSMatthew-Bold'; font-size:22.6158;">e</tspan><tspan x="55.837" y="0" style="fill:#58595B; font-family:'FSMatthew-Bold'; font-size:22.6158;">r</tspan><tspan x="63.843" y="0" style="fill:#58595B; font-family:'FSMatthew-Bold'; font-size:22.6158;">si</tspan><tspan x="79.425" y="0" style="fill:#58595B; font-family:'FSMatthew-Bold'; font-size:22.6158;">t</tspan><tspan x="88.335" y="0" style="fill:#58595B; font-family:'FSMatthew-Bold'; font-size:22.6158;">y </tspan><tspan x="105.387" y="0" style="fill:#58595B; font-family:'FSMatthew-Bold'; font-size:22.6158;">o</tspan><tspan x="117.396" y="0" style="fill:#58595B; font-family:'FSMatthew-Bold'; font-size:22.6158;">f</tspan><tspan x="126.329" y="0" style="fill:#58595B; font-family:'FSMatthew-Bold'; font-size:22.6158;"> </tspan><tspan x="130.987" y="0" style="fill:#58595B; font-family:'FSMatthew-Bold'; font-size:22.6158;">M</tspan><tspan x="149.238" y="0" style="fill:#58595B; font-family:'FSMatthew-Bold'; font-size:22.6158;">a</tspan><tspan x="160.976" y="0" style="fill:#58595B; font-family:'FSMatthew-Bold'; font-size:22.6158;">s</tspan><tspan x="170.609" y="0" style="fill:#58595B; font-family:'FSMatthew-Bold'; font-size:22.6158;">s</tspan><tspan x="180.379" y="0" style="fill:#58595B; font-family:'FSMatthew-Bold'; font-size:22.6158;">a</tspan><tspan x="192.094" y="0" style="fill:#58595B; font-family:'FSMatthew-Bold'; font-size:22.6158;">c</tspan><tspan x="202.406" y="0" style="fill:#58595B; font-family:'FSMatthew-Bold'; font-size:22.6158;">hu</tspan><tspan x="227.532" y="0" style="fill:#58595B; font-family:'FSMatthew-Bold'; font-size:22.6158;">se</tspan><tspan x="248.836" y="0" style="fill:#58595B; font-family:'FSMatthew-Bold'; font-size:22.6158;">t</tspan><tspan x="258.312" y="0" style="fill:#58595B; font-family:'FSMatthew-Bold'; font-size:22.6158;">t</tspan><tspan x="267.811" y="0" style="fill:#58595B; font-family:'FSMatthew-Bold'; font-size:22.6158;">s </tspan></text>
	<text transform="matrix(1 0 0 1 11.5781 119.4541)" style="display:inline;"><tspan x="0" y="0" style="fill:#58595B; font-family:'FSMatthew-Bold'; font-size:22.6158;">a</tspan><tspan x="11.715" y="0" style="fill:#58595B; font-family:'FSMatthew-Bold'; font-size:22.6158;">n</tspan><tspan x="24.402" y="0" style="fill:#58595B; font-family:'FSMatthew-Bold'; font-size:22.6158;">d</tspan><tspan x="36.705" y="0" style="fill:#58595B; font-family:'FSMatthew-Bold'; font-size:22.6158;"> D</tspan><tspan x="55.86" y="0" style="fill:#58595B; font-family:'FSMatthew-Bold'; font-size:22.6158;">ub</tspan><tspan x="80.601" y="0" style="fill:#58595B; font-family:'FSMatthew-Bold'; font-size:22.6158;">lin Ci</tspan><tspan x="127.867" y="0" style="fill:#58595B; font-family:'FSMatthew-Bold'; font-size:22.6158;">t</tspan><tspan x="136.777" y="0" style="fill:#58595B; font-family:'FSMatthew-Bold'; font-size:22.6158;">y </tspan><tspan x="153.829" y="0" style="fill:#58595B; font-family:'FSMatthew-Bold'; font-size:22.6158;">U</tspan><tspan x="168.234" y="0" style="fill:#58595B; font-family:'FSMatthew-Bold'; font-size:22.6158;">ni</tspan><tspan x="186.733" y="0" style="fill:#58595B; font-family:'FSMatthew-Bold'; font-size:22.6158;">v</tspan><tspan x="198.132" y="0" style="fill:#58595B; font-family:'FSMatthew-Bold'; font-size:22.6158;">e</tspan><tspan x="209.666" y="0" style="fill:#58595B; font-family:'FSMatthew-Bold'; font-size:22.6158;">r</tspan><tspan x="217.672" y="0" style="fill:#58595B; font-family:'FSMatthew-Bold'; font-size:22.6158;">si</tspan><tspan x="233.253" y="0" style="fill:#58595B; font-family:'FSMatthew-Bold'; font-size:22.6158;">t</tspan><tspan x="242.163" y="0" style="fill:#58595B; font-family:'FSMatthew-Bold'; font-size:22.6158;">y </tspan></text>
	<text transform="matrix(1 0 0 1 11.5781 143.1484)" style="display:inline;"><tspan x="0" y="0" style="fill:#58595B; font-family:'FSMatthew-Light'; font-size:20.0494;">t</tspan><tspan x="6.997" y="0" style="fill:#58595B; font-family:'FSMatthew-Light'; font-size:20.0494;">o </tspan><tspan x="21.593" y="0" style="fill:#58595B; font-family:'FSMatthew-Light'; font-size:20.0494;">r</tspan><tspan x="27.788" y="0" style="fill:#58595B; font-family:'FSMatthew-Light'; font-size:20.0494;">egene</tspan><tspan x="77.75" y="0" style="fill:#58595B; font-family:'FSMatthew-Light'; font-size:20.0494;">r</tspan><tspan x="83.805" y="0" style="fill:#58595B; font-family:'FSMatthew-Light'; font-size:20.0494;">a</tspan><tspan x="93.709" y="0" style="fill:#58595B; font-family:'FSMatthew-Light'; font-size:20.0494;">t</tspan><tspan x="100.707" y="0" style="fill:#58595B; font-family:'FSMatthew-Light'; font-size:20.0494;">e the</tspan></text>
	<text transform="matrix(1 0 0 1 11.5781 179.6025)" style="display:inline;"><tspan x="0" y="0" style="fill:#837199; font-family:'FSMatthew-Bold'; font-size:36.4535;">pea</tspan><tspan x="58.617" y="0" style="fill:#837199; font-family:'FSMatthew-Bold'; font-size:36.4535; letter-spacing:-1;">c</tspan><tspan x="74.875" y="0" style="fill:#837199; font-family:'FSMatthew-Bold'; font-size:36.4535;">e</tspan><tspan x="94.486" y="0" style="fill:#837199; font-family:'FSMatthew-Bold'; font-size:36.4535;">-b</tspan><tspan x="124.706" y="0" style="fill:#837199; font-family:'FSMatthew-Bold'; font-size:36.4535;">u</tspan><tspan x="145.046" y="0" style="fill:#837199; font-family:'FSMatthew-Bold'; font-size:36.4535;">il</tspan><tspan x="164.147" y="0" style="fill:#837199; font-family:'FSMatthew-Bold'; font-size:36.4535;">d</tspan><tspan x="184.342" y="0" style="fill:#837199; font-family:'FSMatthew-Bold'; font-size:36.4535;">in</tspan><tspan x="214.89" y="0" style="fill:#837199; font-family:'FSMatthew-Bold'; font-size:36.4535;">g </tspan></text>
	<text transform="matrix(1 0 0 1 11.5781 216.0576)" style="display:inline;"><tspan x="0" y="0" style="fill:#837199; font-family:'FSMatthew-Bold'; font-size:36.4535;">visi</tspan><tspan x="54.533" y="0" style="fill:#837199; font-family:'FSMatthew-Bold'; font-size:36.4535;">o</tspan><tspan x="74.509" y="0" style="fill:#837199; font-family:'FSMatthew-Bold'; font-size:36.4535;">n </tspan><tspan x="103.197" y="0" style="fill:#837199; font-family:'FSMatthew-Bold'; font-size:36.4535;">o</tspan><tspan x="122.918" y="0" style="fill:#837199; font-family:'FSMatthew-Bold'; font-size:36.4535;">f</tspan><tspan x="137.682" y="0" style="fill:#837199; font-family:'FSMatthew-Bold'; font-size:36.4535;"> t</tspan><tspan x="160.793" y="0" style="fill:#837199; font-family:'FSMatthew-Bold'; font-size:36.4535;">h</tspan><tspan x="181.681" y="0" style="fill:#837199; font-family:'FSMatthew-Bold'; font-size:36.4535;">e </tspan></text>
	<text transform="matrix(1 0 0 1 11.5781 252.5098)" style="display:inline;"><tspan x="0" y="0" style="fill:#837199; font-family:'FSMatthew-Bold'; font-size:36.4535;">Clin</tspan><tspan x="60.767" y="0" style="fill:#837199; font-family:'FSMatthew-Bold'; font-size:36.4535;">t</tspan><tspan x="75.858" y="0" style="fill:#837199; font-family:'FSMatthew-Bold'; font-size:36.4535;">o</tspan><tspan x="95.834" y="0" style="fill:#837199; font-family:'FSMatthew-Bold'; font-size:36.4535;">n Cent</tspan><tspan x="200.381" y="0" style="fill:#837199; font-family:'FSMatthew-Bold'; font-size:36.4535; letter-spacing:-1;">r</tspan><tspan x="213.576" y="0" style="fill:#837199; font-family:'FSMatthew-Bold'; font-size:36.4535;">e</tspan></text>
	
		<text transform="matrix(1 0 0 1 244.001 252.5098)" style="display:inline;fill:#837199; font-family:'FSMatthew-Bold'; font-size:32.8082;"> </text>
</g>
<g id="Layer_2">
	<g>
		<path style="fill:#58595B;" d="M20.521,53.191c-0.161-0.642-0.281-1.223-0.361-1.805c-0.101,0.562-0.221,1.103-0.401,1.785
			l-2.486,9.744c-0.201,0.06-0.521,0.1-0.802,0.1s-0.662-0.02-0.862-0.1L12.681,52.75c-0.341-1.123-0.481-2.266-0.501-3.388
			c0.2-0.06,0.501-0.101,0.702-0.101c0.221,0,0.421,0.041,0.662,0.101c0.02,1.062,0.141,2.085,0.421,3.107l2.065,7.338
			c0.1,0.381,0.381,1.404,0.461,1.825c0.04-0.401,0.241-1.283,0.381-1.845l2.627-10.426c0.18-0.06,0.441-0.101,0.642-0.101
			c0.22,0,0.501,0.061,0.642,0.101l2.626,10.406c0.14,0.521,0.321,1.303,0.461,1.885c0.141-0.582,0.341-1.383,0.501-1.965
			l2.045-7.218c0.281-1.022,0.441-2.045,0.461-3.107c0.2-0.06,0.421-0.101,0.662-0.101c0.2,0,0.501,0.041,0.662,0.101
			c-0.02,1.042-0.161,2.145-0.501,3.308l-2.947,10.246c-0.221,0.06-0.682,0.1-0.902,0.1c-0.2,0-0.562-0.04-0.802-0.1L20.521,53.191z
			"/>
		<path style="fill:#58595B;" d="M37.201,58.043h-6.716c0.08,2.306,1.163,4.05,3.669,4.05c0.902,0,1.744-0.12,2.486-0.301
			c0.04,0.101,0.08,0.301,0.08,0.421c0,0.2-0.04,0.381-0.1,0.521c-0.782,0.241-1.765,0.381-2.586,0.381
			c-1.584,0-2.787-0.501-3.529-1.303c-0.882-0.962-1.344-2.406-1.344-4.07c0-2.907,1.464-5.474,4.391-5.474
			c2.626,0,3.669,2.166,3.669,4.812C37.222,57.381,37.222,57.742,37.201,58.043z M35.918,57.081c0-1.845-0.2-3.83-2.426-3.83
			c-1.945,0-2.887,1.784-3.007,3.83H35.918z"/>
		<path style="fill:#58595B;" d="M51.837,62.915c-0.18,0.06-0.401,0.1-0.602,0.1c-0.24,0-0.501-0.04-0.702-0.1v-6.336
			c0-2.206-0.562-3.208-2.426-3.208c-1.002,0-2.206,0.562-2.988,1.163v8.381c-0.22,0.06-0.461,0.1-0.682,0.1
			c-0.2,0-0.441-0.04-0.622-0.1V48.278c0.181-0.06,0.461-0.1,0.642-0.1c0.181,0,0.481,0.04,0.662,0.1v5.153
			c1.063-0.822,2.326-1.163,3.309-1.163c1.022,0,2.065,0.341,2.646,1.042c0.642,0.762,0.762,1.865,0.762,2.947V62.915z"/>
		<path style="fill:#58595B;" d="M61.641,60.349c0,0.722,0,1.624,0.041,2.566c-0.141,0.06-0.361,0.1-0.542,0.1
			c-0.161,0-0.381-0.04-0.542-0.1c-0.06-0.321-0.1-0.742-0.12-1.123h-0.02c-0.682,0.842-1.885,1.324-3.068,1.324
			c-1.865,0-3.428-1.043-3.428-3.188c0-1.223,0.501-2.125,1.283-2.687c0.882-0.622,2.045-0.822,3.288-0.822
			c0.702,0,1.283,0.04,1.804,0.12v-0.582c0-2.005-0.822-2.667-2.506-2.667c-0.942,0-2.105,0.201-2.827,0.381
			c-0.04-0.1-0.08-0.321-0.08-0.521c0-0.141,0.04-0.341,0.1-0.461c0.862-0.261,2.005-0.421,2.967-0.421
			c2.386,0,3.649,1.083,3.649,3.529V60.349z M60.337,57.521c-0.581-0.08-1.183-0.12-1.704-0.12c-0.982,0-1.865,0.18-2.466,0.642
			c-0.541,0.401-0.842,1.042-0.842,1.865c0,1.463,0.942,2.165,2.246,2.165c1.083,0,2.226-0.521,2.767-1.343V57.521z"/>
		<path style="fill:#58595B;" d="M71.305,55.015l-3.147,7.9c-0.181,0.06-0.381,0.1-0.542,0.1c-0.221,0-0.401-0.04-0.562-0.1
			l-3.248-7.9c-0.361-0.902-0.521-1.804-0.521-2.546c0.161-0.04,0.441-0.1,0.622-0.1c0.241,0,0.481,0.04,0.682,0.1
			c0.02,0.682,0.101,1.464,0.401,2.186l2.606,6.617h0.04l2.526-6.617c0.281-0.702,0.421-1.483,0.421-2.186
			c0.141-0.06,0.441-0.1,0.702-0.1c0.141,0,0.401,0.02,0.582,0.08C71.846,53.171,71.706,54.033,71.305,55.015z"/>
		<path style="fill:#58595B;" d="M81.028,58.043h-6.716c0.08,2.306,1.163,4.05,3.669,4.05c0.902,0,1.744-0.12,2.486-0.301
			c0.04,0.101,0.08,0.301,0.08,0.421c0,0.2-0.04,0.381-0.1,0.521c-0.782,0.241-1.765,0.381-2.586,0.381
			c-1.584,0-2.787-0.501-3.529-1.303c-0.882-0.962-1.344-2.406-1.344-4.07c0-2.907,1.464-5.474,4.391-5.474
			c2.626,0,3.669,2.166,3.669,4.812C81.049,57.381,81.049,57.742,81.028,58.043z M79.745,57.081c0-1.845-0.2-3.83-2.426-3.83
			c-1.945,0-2.887,1.784-3.007,3.83H79.745z"/>
		<path style="fill:#58595B;" d="M94.261,61.833c-0.782,0.702-2.005,1.083-3.168,1.083c-0.822,0-1.584-0.14-2.146-0.341v5.053
			c-0.2,0.06-0.381,0.1-0.662,0.1c-0.22,0-0.481-0.04-0.642-0.1V52.469c0.101-0.04,0.341-0.08,0.542-0.08s0.381,0.04,0.521,0.08
			l0.12,1.103h0.02c0.762-0.802,1.905-1.303,3.068-1.303c1.263,0,2.386,0.541,3.087,1.544c0.582,0.842,0.942,2.045,0.942,3.509
			C95.945,59.326,95.323,60.87,94.261,61.833z M91.774,53.331c-1.062,0-2.125,0.441-2.827,1.323v6.897
			c0.521,0.24,1.323,0.381,2.005,0.381c2.165,0,3.629-1.424,3.629-4.551C94.582,54.915,93.619,53.331,91.774,53.331z"/>
		<path style="fill:#58595B;" d="M105.228,60.349c0,0.722,0,1.624,0.04,2.566c-0.141,0.06-0.361,0.1-0.542,0.1
			c-0.161,0-0.381-0.04-0.542-0.1c-0.06-0.321-0.1-0.742-0.12-1.123h-0.02c-0.682,0.842-1.885,1.324-3.068,1.324
			c-1.865,0-3.428-1.043-3.428-3.188c0-1.223,0.501-2.125,1.283-2.687c0.882-0.622,2.045-0.822,3.288-0.822
			c0.702,0,1.283,0.04,1.804,0.12v-0.582c0-2.005-0.822-2.667-2.506-2.667c-0.942,0-2.105,0.201-2.827,0.381
			c-0.04-0.1-0.08-0.321-0.08-0.521c0-0.141,0.04-0.341,0.1-0.461c0.862-0.261,2.005-0.421,2.967-0.421
			c2.386,0,3.649,1.083,3.649,3.529V60.349z M103.924,57.521c-0.581-0.08-1.183-0.12-1.704-0.12c-0.982,0-1.865,0.18-2.466,0.642
			c-0.541,0.401-0.842,1.042-0.842,1.865c0,1.463,0.942,2.165,2.246,2.165c1.083,0,2.226-0.521,2.767-1.343V57.521z"/>
		<path style="fill:#58595B;" d="M112.666,53.431c-1.163,0.161-2.426,0.582-3.369,1.303v8.181c-0.2,0.06-0.441,0.1-0.662,0.1
			c-0.22,0-0.441-0.04-0.642-0.1V52.469c0.121-0.04,0.301-0.08,0.501-0.08c0.16,0,0.381,0.04,0.541,0.08l0.101,1.283h0.02
			c0.862-0.742,2.366-1.363,3.509-1.483c0.04,0.12,0.08,0.341,0.08,0.521C112.746,52.99,112.706,53.251,112.666,53.431z"/>
		<path style="fill:#58595B;" d="M120.425,62.815c-0.521,0.18-1.304,0.301-1.885,0.301c-1.985,0-2.927-0.942-2.927-3.168v-6.456
			h-1.805c-0.04-0.101-0.06-0.341-0.06-0.461c0-0.1,0.02-0.341,0.06-0.441l1.805-0.121v-2.727c0.16-0.06,0.421-0.1,0.642-0.1
			c0.22,0,0.501,0.04,0.662,0.1v2.727h2.947c0.04,0.101,0.08,0.401,0.08,0.501c0,0.14-0.04,0.381-0.08,0.521h-2.947v6.335
			c0,1.584,0.461,2.246,1.704,2.246c0.682,0,1.343-0.1,1.805-0.24c0.04,0.1,0.08,0.341,0.08,0.481
			C120.505,62.494,120.485,62.634,120.425,62.815z"/>
		<path style="fill:#58595B;" d="M130.389,62.935c-0.16,0.04-0.401,0.08-0.642,0.08c-0.2,0-0.461-0.04-0.662-0.1v-6.356
			c0-0.962-0.12-1.704-0.401-2.226c-0.341-0.642-0.982-0.962-2.025-0.962c-1.003,0-2.206,0.562-2.988,1.163v8.381
			c-0.22,0.06-0.441,0.1-0.682,0.1c-0.2,0-0.441-0.04-0.622-0.1V52.469c0.141-0.06,0.381-0.08,0.521-0.08
			c0.2,0,0.441,0.02,0.562,0.08l0.1,1.043h0.02c1.103-0.902,2.366-1.243,3.389-1.243c1.022,0,2.085,0.341,2.667,1.042
			c0.642,0.762,0.762,1.865,0.762,2.947V62.935z"/>
		<path style="fill:#58595B;" d="M140.514,58.043h-6.716c0.08,2.306,1.163,4.05,3.669,4.05c0.902,0,1.744-0.12,2.486-0.301
			c0.04,0.101,0.08,0.301,0.08,0.421c0,0.2-0.04,0.381-0.1,0.521c-0.782,0.241-1.765,0.381-2.586,0.381
			c-1.584,0-2.787-0.501-3.529-1.303c-0.882-0.962-1.344-2.406-1.344-4.07c0-2.907,1.464-5.474,4.391-5.474
			c2.626,0,3.669,2.166,3.669,4.812C140.534,57.381,140.534,57.742,140.514,58.043z M139.23,57.081c0-1.845-0.2-3.83-2.426-3.83
			c-1.945,0-2.887,1.784-3.007,3.83H139.23z"/>
		<path style="fill:#58595B;" d="M147.391,53.431c-1.163,0.161-2.426,0.582-3.369,1.303v8.181c-0.2,0.06-0.441,0.1-0.662,0.1
			c-0.22,0-0.441-0.04-0.642-0.1V52.469c0.121-0.04,0.301-0.08,0.501-0.08c0.16,0,0.381,0.04,0.542,0.08l0.1,1.283h0.02
			c0.862-0.742,2.366-1.363,3.509-1.483c0.04,0.12,0.08,0.341,0.08,0.521C147.471,52.99,147.431,53.251,147.391,53.431z"/>
		<path style="fill:#58595B;" d="M156.373,58.043h-6.717c0.08,2.306,1.163,4.05,3.669,4.05c0.902,0,1.744-0.12,2.486-0.301
			c0.04,0.101,0.08,0.301,0.08,0.421c0,0.2-0.04,0.381-0.101,0.521c-0.781,0.241-1.764,0.381-2.586,0.381
			c-1.584,0-2.787-0.501-3.529-1.303c-0.882-0.962-1.344-2.406-1.344-4.07c0-2.907,1.464-5.474,4.391-5.474
			c2.627,0,3.669,2.166,3.669,4.812C156.393,57.381,156.393,57.742,156.373,58.043z M155.09,57.081c0-1.845-0.201-3.83-2.427-3.83
			c-1.944,0-2.887,1.784-3.007,3.83H155.09z"/>
		<path style="fill:#58595B;" d="M165.776,63.015c-0.181,0-0.401-0.06-0.521-0.1l-0.12-1.203h-0.021
			c-0.862,0.902-1.885,1.404-3.027,1.404c-2.767,0-4.09-2.306-4.09-5.113c0-2.787,1.183-5.734,4.371-5.734
			c1.002,0,1.925,0.341,2.666,0.862v-4.853c0.181-0.06,0.421-0.1,0.642-0.1c0.241,0,0.481,0.06,0.662,0.1v14.637
			C166.197,62.975,165.997,63.015,165.776,63.015z M165.034,54.233c-0.722-0.602-1.644-0.902-2.586-0.902
			c-2.326,0-3.108,2.286-3.108,4.611c0,1.785,0.562,4.11,2.808,4.11c1.082,0,2.186-0.541,2.887-1.383V54.233z"/>
		<path style="fill:#58595B;" d="M185.625,54.534l-2.687,8.381c-0.16,0.06-0.461,0.1-0.622,0.1c-0.18,0-0.48-0.04-0.621-0.1
			l-2.406-8.1h-0.04l-2.526,8.1c-0.181,0.06-0.461,0.1-0.621,0.1c-0.161,0-0.421-0.04-0.602-0.1l-2.486-8.261
			c-0.221-0.682-0.321-1.463-0.341-2.206c0.16-0.04,0.481-0.08,0.682-0.08c0.221,0,0.421,0.04,0.602,0.1
			c0.02,0.722,0.141,1.484,0.32,2.146l1.825,6.516h0.02l2.606-8.682c0.141-0.04,0.421-0.06,0.562-0.06s0.441,0.02,0.562,0.06
			l2.466,8.682h0.021l2.005-6.496c0.221-0.742,0.381-1.443,0.421-2.166c0.141-0.06,0.481-0.1,0.662-0.1s0.461,0.04,0.581,0.1
			C186.006,53.151,185.846,53.833,185.625,54.534z"/>
		<path style="fill:#58595B;" d="M188.651,50.424c-0.461,0-0.842-0.401-0.842-0.882c0-0.481,0.381-0.862,0.842-0.862
			s0.862,0.381,0.862,0.862C189.514,50.023,189.112,50.424,188.651,50.424z M189.313,62.915c-0.181,0.06-0.441,0.1-0.662,0.1
			s-0.461-0.04-0.642-0.1V52.469c0.16-0.04,0.421-0.1,0.622-0.1c0.221,0,0.521,0.04,0.682,0.1V62.915z"/>
		<path style="fill:#58595B;" d="M197.674,62.815c-0.521,0.18-1.303,0.301-1.885,0.301c-1.984,0-2.927-0.942-2.927-3.168v-6.456
			h-1.805c-0.04-0.101-0.061-0.341-0.061-0.461c0-0.1,0.021-0.341,0.061-0.441l1.805-0.121v-2.727c0.16-0.06,0.421-0.1,0.642-0.1
			s0.501,0.04,0.661,0.1v2.727h2.947c0.04,0.101,0.081,0.401,0.081,0.501c0,0.14-0.041,0.381-0.081,0.521h-2.947v6.335
			c0,1.584,0.462,2.246,1.704,2.246c0.683,0,1.344-0.1,1.805-0.24c0.04,0.1,0.08,0.341,0.08,0.481
			C197.754,62.494,197.734,62.634,197.674,62.815z"/>
		<path style="fill:#58595B;" d="M207.639,62.915c-0.181,0.06-0.401,0.1-0.602,0.1c-0.241,0-0.502-0.04-0.702-0.1v-6.336
			c0-2.206-0.562-3.208-2.426-3.208c-1.003,0-2.206,0.562-2.987,1.163v8.381c-0.221,0.06-0.462,0.1-0.682,0.1
			c-0.201,0-0.441-0.04-0.622-0.1V48.278c0.181-0.06,0.461-0.1,0.642-0.1s0.481,0.04,0.662,0.1v5.153
			c1.062-0.822,2.325-1.163,3.308-1.163c1.022,0,2.065,0.341,2.646,1.042c0.642,0.762,0.763,1.865,0.763,2.947V62.915z"/>
		<path style="fill:#58595B;" d="M220.269,62.815c-0.521,0.18-1.303,0.301-1.885,0.301c-1.984,0-2.927-0.942-2.927-3.168v-6.456
			h-1.805c-0.04-0.101-0.061-0.341-0.061-0.461c0-0.1,0.021-0.341,0.061-0.441l1.805-0.121v-2.727c0.16-0.06,0.421-0.1,0.642-0.1
			s0.501,0.04,0.661,0.1v2.727h2.947c0.04,0.101,0.081,0.401,0.081,0.501c0,0.14-0.041,0.381-0.081,0.521h-2.947v6.335
			c0,1.584,0.462,2.246,1.704,2.246c0.683,0,1.344-0.1,1.805-0.24c0.04,0.1,0.08,0.341,0.08,0.481
			C220.349,62.494,220.329,62.634,220.269,62.815z"/>
		<path style="fill:#58595B;" d="M230.234,62.915c-0.181,0.06-0.401,0.1-0.602,0.1c-0.241,0-0.502-0.04-0.702-0.1v-6.336
			c0-2.206-0.562-3.208-2.426-3.208c-1.003,0-2.206,0.562-2.987,1.163v8.381c-0.221,0.06-0.462,0.1-0.682,0.1
			c-0.201,0-0.441-0.04-0.622-0.1V48.278c0.181-0.06,0.461-0.1,0.642-0.1s0.481,0.04,0.662,0.1v5.153
			c1.062-0.822,2.325-1.163,3.308-1.163c1.022,0,2.065,0.341,2.646,1.042c0.642,0.762,0.763,1.865,0.763,2.947V62.915z"/>
		<path style="fill:#58595B;" d="M240.358,58.043h-6.717c0.08,2.306,1.163,4.05,3.669,4.05c0.902,0,1.744-0.12,2.486-0.301
			c0.04,0.101,0.08,0.301,0.08,0.421c0,0.2-0.04,0.381-0.101,0.521c-0.781,0.241-1.764,0.381-2.586,0.381
			c-1.584,0-2.787-0.501-3.529-1.303c-0.882-0.962-1.343-2.406-1.343-4.07c0-2.907,1.463-5.474,4.391-5.474
			c2.627,0,3.669,2.166,3.669,4.812C240.378,57.381,240.378,57.742,240.358,58.043z M239.075,57.081c0-1.845-0.201-3.83-2.427-3.83
			c-1.944,0-2.887,1.784-3.007,3.83H239.075z"/>
	</g>
	<g>
		<path style="fill:#58595B;" d="M24.807,85.374c0,3.889-1.493,6.038-5.834,6.038c-4.387,0-5.767-2.148-5.767-6.038v-9.475
			c0.453-0.068,1.041-0.113,1.583-0.113c0.633,0,1.199,0.045,1.651,0.113V85.6c0,2.081,0.588,3.256,2.555,3.256
			c1.968,0,2.646-1.176,2.646-3.256v-9.701c0.407-0.068,1.085-0.113,1.605-0.113c0.498,0,1.176,0.045,1.561,0.113V85.374z"/>
		<path style="fill:#58595B;" d="M37.743,91.186c-0.361,0.09-1.13,0.113-1.492,0.113c-0.384,0-1.267-0.045-1.628-0.113v-7.734
			c0-1.221-0.633-1.741-1.65-1.741c-0.814,0-1.742,0.294-2.465,0.746v8.729c-0.52,0.09-1.244,0.113-1.65,0.113
			c-0.362,0-1.018-0.023-1.47-0.113V79.404c0.294-0.068,1.018-0.113,1.357-0.113c0.316,0,0.973,0.045,1.312,0.113l0.158,1.041
			c1.018-0.747,2.488-1.267,3.799-1.267c2.487,0,3.731,1.538,3.731,4.116V91.186z"/>
		<path style="fill:#58595B;" d="M41.792,78.115c-0.95,0-1.719-0.769-1.719-1.718c0-0.95,0.769-1.719,1.719-1.719
			s1.719,0.769,1.719,1.719C43.511,77.346,42.742,78.115,41.792,78.115z M43.353,91.186c-0.407,0.09-1.244,0.113-1.605,0.113
			c-0.543,0-1.131-0.045-1.515-0.113V79.404c0.497-0.068,1.108-0.113,1.515-0.113c0.542,0,1.108,0.045,1.605,0.113V91.186z"/>
		<path style="fill:#58595B;" d="M55.248,82.864l-3.392,8.322c-0.226,0.045-0.814,0.113-1.402,0.113
			c-0.61,0-1.266-0.068-1.538-0.113l-3.256-8.367c-0.43-1.13-0.633-2.239-0.633-3.415c0.407-0.068,0.972-0.113,1.447-0.113
			c0.656,0,1.108,0.045,1.47,0.113c0,0.837,0.113,1.764,0.407,2.646l2.081,5.97h0.045l2.148-5.97
			c0.294-0.882,0.407-1.651,0.407-2.646c0.316-0.045,0.995-0.113,1.493-0.113s1.018,0.045,1.379,0.113
			C55.903,80.67,55.677,81.824,55.248,82.864z"/>
		<path style="fill:#58595B;" d="M67.052,86.392h-7.146c0.045,1.47,1.062,2.555,3.03,2.555c1.063,0,2.148-0.136,3.076-0.384
			c0.136,0.61,0.226,1.289,0.226,1.899c0,0.09,0,0.204-0.022,0.452c-1.153,0.339-2.352,0.498-3.528,0.498
			c-4.296,0-6.083-2.465-6.083-6.061c0-3.143,1.764-6.173,5.585-6.173c3.618,0,4.93,2.668,4.93,5.608
			C67.12,85.193,67.12,85.804,67.052,86.392z M64,84.153c0-1.425-0.384-2.623-1.854-2.623c-1.402,0-2.148,1.108-2.239,2.623H64z"/>
		<path style="fill:#58595B;" d="M75.511,81.801c-1.176,0.181-2.442,0.588-3.573,1.176v8.208c-0.317,0.068-0.995,0.113-1.538,0.113
			c-0.542,0-1.334-0.045-1.583-0.113V79.404c0.339-0.045,0.905-0.113,1.357-0.113c0.384,0,0.995,0.045,1.312,0.113l0.181,1.447
			c0.836-0.746,2.352-1.56,3.822-1.673c0.045,0.181,0.09,0.837,0.09,1.312C75.579,80.941,75.557,81.484,75.511,81.801z"/>
		<path style="fill:#58595B;" d="M80.306,91.412c-1.334,0-2.736-0.204-3.822-0.565c-0.068-0.339-0.091-0.769-0.091-1.221
			c0-0.362,0.091-0.882,0.181-1.198c1.04,0.362,2.533,0.61,3.415,0.61c1.221,0,1.922-0.407,1.922-1.244
			c0-0.724-0.565-1.063-2.058-1.538c-2.375-0.746-3.482-1.854-3.482-3.573c0-2.555,2.352-3.505,4.591-3.505
			c1.04,0,2.193,0.181,2.985,0.43c0.09,0.339,0.136,0.814,0.136,1.085c0,0.294-0.091,0.905-0.204,1.289
			c-0.769-0.226-1.832-0.407-2.714-0.407c-1.085,0-1.832,0.271-1.832,0.95c0,0.724,0.837,1.018,2.148,1.447
			c2.284,0.747,3.369,1.696,3.369,3.482C84.851,90.213,82.635,91.412,80.306,91.412z"/>
		<path style="fill:#58595B;" d="M88.312,78.115c-0.95,0-1.719-0.769-1.719-1.718c0-0.95,0.769-1.719,1.719-1.719
			s1.719,0.769,1.719,1.719C90.03,77.346,89.261,78.115,88.312,78.115z M89.872,91.186c-0.407,0.09-1.244,0.113-1.605,0.113
			c-0.543,0-1.131-0.045-1.515-0.113V79.404c0.497-0.068,1.108-0.113,1.515-0.113c0.542,0,1.108,0.045,1.605,0.113V91.186z"/>
		<path style="fill:#58595B;" d="M99.867,90.959c-0.678,0.271-1.492,0.452-2.804,0.452c-2.556,0-3.822-1.244-3.822-3.731v-5.948
			h-1.945c-0.09-0.339-0.158-0.904-0.158-1.198c0-0.271,0.068-0.769,0.136-0.995l1.967-0.136v-3.03c0.249-0.045,1.04-0.09,1.56-0.09
			c0.565,0,1.267,0.045,1.561,0.09v3.03h3.256c0.09,0.317,0.136,0.769,0.136,1.018c0,0.271-0.022,0.995-0.113,1.312h-3.279v5.495
			c0,1.131,0.452,1.628,1.561,1.628c0.61,0,1.356-0.09,1.877-0.271c0.09,0.294,0.203,0.859,0.203,1.379
			C100.003,90.236,99.958,90.71,99.867,90.959z"/>
		<path style="fill:#58595B;" d="M111.333,89.105c0,1.719-0.09,3.618-0.973,5.111c-1.062,1.787-2.849,2.533-4.862,2.533
			c-1.13,0-2.419-0.158-3.46-0.475c-0.068-0.203-0.113-0.746-0.113-1.085c0-0.271,0.09-0.927,0.158-1.198
			c0.904,0.249,2.125,0.407,2.962,0.407c1.357,0,2.171-0.475,2.668-1.379c0.452-0.814,0.52-1.718,0.52-2.601
			c-0.792,0.611-1.832,0.995-2.804,0.995c-2.962,0-4.161-1.538-4.161-4.455v-7.553c0.362-0.09,1.13-0.113,1.492-0.113
			c0.385,0,1.267,0.045,1.628,0.113v7.372c0,1.447,0.52,2.081,1.809,2.081c0.814,0,1.538-0.339,2.013-0.792v-8.661
			c0.52-0.09,1.244-0.113,1.651-0.113c0.361,0,1.018,0.022,1.47,0.113V89.105z"/>
		<path style="fill:#58595B;" d="M123.274,91.412c-3.415,0-5.585-2.193-5.585-6.083c0-3.867,2.148-6.151,5.585-6.151
			c3.438,0,5.585,2.261,5.585,6.128C128.859,89.173,126.711,91.412,123.274,91.412z M123.274,81.62c-1.47,0-2.375,0.995-2.375,3.686
			s0.905,3.663,2.375,3.663c1.47,0,2.375-0.972,2.375-3.663C125.648,82.592,124.744,81.62,123.274,81.62z"/>
		<path style="fill:#58595B;" d="M138.291,76.961c-0.498-0.158-1.085-0.249-1.673-0.249c-1.312,0-1.99,0.701-1.99,2.216v0.475h2.895
			c0.113,0.384,0.136,0.905,0.136,1.153c0,0.271-0.045,0.769-0.113,1.176h-2.917v9.453c-0.316,0.068-1.063,0.113-1.538,0.113
			c-0.384,0-1.267-0.045-1.583-0.113v-9.453h-1.922c-0.09-0.271-0.158-0.814-0.158-1.085c0-0.384,0.068-0.859,0.181-1.108
			l1.899-0.136v-0.339c0-3.03,1.561-4.658,4.523-4.658c0.701,0,1.696,0.158,2.374,0.407c0.091,0.271,0.113,0.678,0.113,0.995
			C138.517,76.147,138.426,76.6,138.291,76.961z"/>
		<path style="fill:#58595B;" d="M159.729,91.186c-0.271,0.068-0.882,0.113-1.516,0.113c-0.679,0-1.312-0.068-1.583-0.113
			l-0.271-9.181l-3.347,7.734c-0.249,0.09-0.791,0.136-1.131,0.136c-0.406,0-0.904-0.045-1.153-0.113l-3.347-7.756l-0.294,9.181
			c-0.294,0.068-0.995,0.113-1.605,0.113c-0.362,0-0.972-0.045-1.379-0.113l0.656-15.287c0.43-0.045,0.859-0.113,1.312-0.113
			c0.543,0,1.063,0.045,1.334,0.113l4.477,10.379l4.5-10.379c0.453-0.068,0.905-0.113,1.312-0.113c0.52,0,0.994,0.045,1.334,0.113
			L159.729,91.186z"/>
		<path style="fill:#58595B;" d="M171.604,87.907c0,0.972,0.022,2.08,0.022,3.279c-0.362,0.09-0.973,0.113-1.357,0.113
			c-0.43,0-0.995-0.045-1.356-0.113c-0.045-0.271-0.091-0.746-0.113-1.04h-0.045c-0.769,0.792-2.081,1.266-3.279,1.266
			c-2.261,0-3.89-1.402-3.89-3.731c0-3.618,3.212-4.229,5.902-4.229c0.181,0,0.61,0.022,0.973,0.045c0-0.136-0.022-0.43-0.046-0.543
			c-0.158-0.927-0.769-1.312-2.08-1.312c-1.018,0-2.442,0.204-3.527,0.475c-0.113-0.317-0.182-0.859-0.182-1.267
			c0-0.339,0.046-0.859,0.136-1.085c1.267-0.384,2.827-0.588,4.116-0.588c2.826,0,4.727,1.312,4.727,4.251V87.907z M168.482,85.668
			c-0.271-0.023-0.633-0.045-0.95-0.045c-2.035,0-2.826,0.814-2.826,1.832c0,0.882,0.588,1.493,1.605,1.493
			c0.746,0,1.583-0.362,2.171-0.882V85.668z"/>
		<path style="fill:#58595B;" d="M177.438,91.412c-1.334,0-2.736-0.204-3.822-0.565c-0.067-0.339-0.09-0.769-0.09-1.221
			c0-0.362,0.09-0.882,0.181-1.198c1.04,0.362,2.532,0.61,3.415,0.61c1.221,0,1.922-0.407,1.922-1.244
			c0-0.724-0.565-1.063-2.058-1.538c-2.375-0.746-3.482-1.854-3.482-3.573c0-2.555,2.352-3.505,4.59-3.505
			c1.04,0,2.193,0.181,2.985,0.43c0.091,0.339,0.136,0.814,0.136,1.085c0,0.294-0.091,0.905-0.204,1.289
			c-0.769-0.226-1.831-0.407-2.713-0.407c-1.086,0-1.832,0.271-1.832,0.95c0,0.724,0.837,1.018,2.148,1.447
			c2.284,0.747,3.369,1.696,3.369,3.482C181.983,90.213,179.768,91.412,177.438,91.412z"/>
		<path style="fill:#58595B;" d="M187.072,91.412c-1.334,0-2.736-0.204-3.822-0.565c-0.067-0.339-0.09-0.769-0.09-1.221
			c0-0.362,0.09-0.882,0.181-1.198c1.04,0.362,2.532,0.61,3.415,0.61c1.221,0,1.922-0.407,1.922-1.244
			c0-0.724-0.565-1.063-2.058-1.538c-2.375-0.746-3.482-1.854-3.482-3.573c0-2.555,2.352-3.505,4.59-3.505
			c1.04,0,2.193,0.181,2.985,0.43c0.091,0.339,0.136,0.814,0.136,1.085c0,0.294-0.091,0.905-0.204,1.289
			c-0.769-0.226-1.831-0.407-2.713-0.407c-1.086,0-1.832,0.271-1.832,0.95c0,0.724,0.837,1.018,2.148,1.447
			c2.284,0.747,3.369,1.696,3.369,3.482C191.617,90.213,189.401,91.412,187.072,91.412z"/>
		<path style="fill:#58595B;" d="M202.744,87.907c0,0.972,0.022,2.08,0.022,3.279c-0.362,0.09-0.973,0.113-1.357,0.113
			c-0.43,0-0.995-0.045-1.356-0.113c-0.045-0.271-0.091-0.746-0.113-1.04h-0.045c-0.769,0.792-2.081,1.266-3.279,1.266
			c-2.261,0-3.89-1.402-3.89-3.731c0-3.618,3.212-4.229,5.902-4.229c0.181,0,0.61,0.022,0.973,0.045c0-0.136-0.022-0.43-0.046-0.543
			c-0.158-0.927-0.769-1.312-2.08-1.312c-1.018,0-2.442,0.204-3.527,0.475c-0.113-0.317-0.182-0.859-0.182-1.267
			c0-0.339,0.046-0.859,0.136-1.085c1.267-0.384,2.827-0.588,4.116-0.588c2.826,0,4.727,1.312,4.727,4.251V87.907z M199.623,85.668
			c-0.271-0.023-0.633-0.045-0.95-0.045c-2.035,0-2.826,0.814-2.826,1.832c0,0.882,0.588,1.493,1.605,1.493
			c0.746,0,1.583-0.362,2.171-0.882V85.668z"/>
		<path style="fill:#58595B;" d="M213.441,80.67c0,0.498-0.068,1.04-0.227,1.515c-0.746-0.294-1.719-0.475-2.646-0.475
			c-1.765,0-2.963,1.131-2.963,3.664c0,2.216,1.018,3.505,2.985,3.505c1.018,0,1.99-0.181,2.714-0.43
			c0.136,0.498,0.203,1.108,0.203,1.583c0,0.316,0,0.543-0.022,0.746c-0.904,0.407-2.104,0.633-3.234,0.633
			c-3.912,0-5.856-2.284-5.856-5.993c0-3.844,2.035-6.241,5.992-6.241c1.108,0,2.194,0.226,2.963,0.588
			C213.418,80.015,213.441,80.331,213.441,80.67z"/>
		<path style="fill:#58595B;" d="M225.812,83.293v7.892c-0.362,0.09-1.131,0.113-1.493,0.113c-0.384,0-1.266-0.045-1.628-0.113
			v-7.711c0-1.221-0.633-1.764-1.65-1.764c-0.814,0-1.81,0.294-2.533,0.746v8.729c-0.52,0.09-1.243,0.113-1.65,0.113
			c-0.362,0-1.018-0.023-1.47-0.113V74.7c0.294-0.068,0.949-0.113,1.515-0.113s1.267,0.045,1.605,0.113v5.541
			c0.995-0.633,2.375-1.063,3.573-1.063C224.567,79.178,225.812,80.715,225.812,83.293z"/>
		<path style="fill:#58595B;" d="M238.205,86.64c0,3.37-1.583,4.771-5.11,4.771c-3.438,0-5.021-1.402-5.021-4.771v-7.236
			c0.317-0.045,0.928-0.113,1.538-0.113c0.543,0,1.221,0.045,1.583,0.113v7.214c0,1.764,0.521,2.397,1.944,2.397
			c1.447,0,1.945-0.633,1.945-2.397v-7.214c0.316-0.068,1.018-0.113,1.583-0.113s1.312,0.068,1.537,0.113V86.64z"/>
		<path style="fill:#58595B;" d="M243.995,91.412c-1.334,0-2.736-0.204-3.822-0.565c-0.067-0.339-0.09-0.769-0.09-1.221
			c0-0.362,0.09-0.882,0.181-1.198c1.04,0.362,2.532,0.61,3.415,0.61c1.221,0,1.922-0.407,1.922-1.244
			c0-0.724-0.565-1.063-2.058-1.538c-2.375-0.746-3.482-1.854-3.482-3.573c0-2.555,2.352-3.505,4.59-3.505
			c1.04,0,2.193,0.181,2.985,0.43c0.091,0.339,0.136,0.814,0.136,1.085c0,0.294-0.091,0.905-0.204,1.289
			c-0.769-0.226-1.831-0.407-2.713-0.407c-1.086,0-1.832,0.271-1.832,0.95c0,0.724,0.837,1.018,2.148,1.447
			c2.284,0.747,3.369,1.696,3.369,3.482C248.54,90.213,246.324,91.412,243.995,91.412z"/>
		<path style="fill:#58595B;" d="M260.052,86.392h-7.146c0.045,1.47,1.062,2.555,3.03,2.555c1.062,0,2.148-0.136,3.075-0.384
			c0.136,0.61,0.227,1.289,0.227,1.899c0,0.09,0,0.204-0.023,0.452c-1.153,0.339-2.352,0.498-3.527,0.498
			c-4.297,0-6.083-2.465-6.083-6.061c0-3.143,1.764-6.173,5.586-6.173c3.618,0,4.93,2.668,4.93,5.608
			C260.12,85.193,260.12,85.804,260.052,86.392z M256.999,84.153c0-1.425-0.385-2.623-1.854-2.623c-1.401,0-2.148,1.108-2.238,2.623
			H256.999z"/>
		<path style="fill:#58595B;" d="M269.278,90.959c-0.678,0.271-1.492,0.452-2.804,0.452c-2.556,0-3.822-1.244-3.822-3.731v-5.948
			h-1.944c-0.091-0.339-0.158-0.904-0.158-1.198c0-0.271,0.067-0.769,0.136-0.995l1.967-0.136v-3.03
			c0.249-0.045,1.041-0.09,1.561-0.09c0.565,0,1.267,0.045,1.561,0.09v3.03h3.257c0.09,0.317,0.135,0.769,0.135,1.018
			c0,0.271-0.022,0.995-0.112,1.312h-3.279v5.495c0,1.131,0.452,1.628,1.561,1.628c0.61,0,1.356-0.09,1.877-0.271
			c0.09,0.294,0.203,0.859,0.203,1.379C269.414,90.236,269.369,90.71,269.278,90.959z"/>
		<path style="fill:#58595B;" d="M278.754,90.959c-0.678,0.271-1.492,0.452-2.804,0.452c-2.556,0-3.822-1.244-3.822-3.731v-5.948
			h-1.944c-0.091-0.339-0.158-0.904-0.158-1.198c0-0.271,0.067-0.769,0.136-0.995l1.967-0.136v-3.03
			c0.249-0.045,1.041-0.09,1.561-0.09c0.565,0,1.267,0.045,1.561,0.09v3.03h3.257c0.09,0.317,0.135,0.769,0.135,1.018
			c0,0.271-0.022,0.995-0.112,1.312h-3.279v5.495c0,1.131,0.452,1.628,1.561,1.628c0.61,0,1.356-0.09,1.877-0.271
			c0.09,0.294,0.203,0.859,0.203,1.379C278.89,90.236,278.845,90.71,278.754,90.959z"/>
		<path style="fill:#58595B;" d="M284.273,91.412c-1.334,0-2.736-0.204-3.822-0.565c-0.067-0.339-0.09-0.769-0.09-1.221
			c0-0.362,0.09-0.882,0.181-1.198c1.04,0.362,2.532,0.61,3.415,0.61c1.221,0,1.922-0.407,1.922-1.244
			c0-0.724-0.565-1.063-2.058-1.538c-2.375-0.746-3.482-1.854-3.482-3.573c0-2.555,2.352-3.505,4.59-3.505
			c1.04,0,2.193,0.181,2.985,0.43c0.091,0.339,0.136,0.814,0.136,1.085c0,0.294-0.091,0.905-0.204,1.289
			c-0.769-0.226-1.831-0.407-2.713-0.407c-1.086,0-1.832,0.271-1.832,0.95c0,0.724,0.837,1.018,2.148,1.447
			c2.284,0.747,3.369,1.696,3.369,3.482C288.818,90.213,286.603,91.412,284.273,91.412z"/>
	</g>
	<g>
		<path style="fill:#58595B;" d="M22.365,116.175c0,0.972,0.022,2.08,0.022,3.279c-0.362,0.09-0.972,0.113-1.356,0.113
			c-0.43,0-0.995-0.045-1.357-0.113c-0.045-0.271-0.09-0.746-0.113-1.04h-0.045c-0.769,0.792-2.081,1.266-3.279,1.266
			c-2.261,0-3.889-1.402-3.889-3.731c0-3.618,3.211-4.229,5.902-4.229c0.181,0,0.611,0.022,0.973,0.045
			c0-0.136-0.023-0.43-0.045-0.543c-0.158-0.927-0.769-1.312-2.081-1.312c-1.018,0-2.442,0.204-3.527,0.475
			c-0.113-0.317-0.181-0.859-0.181-1.267c0-0.339,0.045-0.859,0.136-1.085c1.266-0.384,2.827-0.588,4.116-0.588
			c2.827,0,4.726,1.312,4.726,4.251V116.175z M19.244,113.937c-0.271-0.023-0.633-0.045-0.95-0.045
			c-2.035,0-2.827,0.814-2.827,1.832c0,0.882,0.588,1.493,1.605,1.493c0.746,0,1.583-0.362,2.171-0.882V113.937z"/>
		<path style="fill:#58595B;" d="M35.052,119.454c-0.361,0.09-1.13,0.113-1.492,0.113c-0.384,0-1.267-0.045-1.628-0.113v-7.734
			c0-1.221-0.633-1.741-1.65-1.741c-0.814,0-1.742,0.294-2.465,0.746v8.729c-0.52,0.09-1.244,0.113-1.65,0.113
			c-0.362,0-1.018-0.023-1.47-0.113v-11.782c0.294-0.068,1.018-0.113,1.357-0.113c0.316,0,0.973,0.045,1.312,0.113l0.158,1.041
			c1.018-0.747,2.488-1.267,3.799-1.267c2.487,0,3.731,1.538,3.731,4.116V119.454z"/>
		<path style="fill:#58595B;" d="M47.377,119.454c-0.361,0.068-0.972,0.113-1.447,0.113c-0.429,0-0.927-0.045-1.244-0.113
			l-0.09-1.04c-0.814,0.792-1.854,1.266-3.075,1.266c-3.37,0-4.817-2.691-4.817-5.925c0-3.482,1.561-6.309,5.156-6.309
			c0.882,0,1.899,0.271,2.397,0.588v-5.065c0.407-0.068,1.085-0.113,1.583-0.113c0.611,0,1.085,0.068,1.538,0.113V119.454z
			 M44.256,110.363c-0.542-0.249-1.244-0.384-1.832-0.384c-1.832,0-2.51,1.628-2.51,3.596c0,1.651,0.407,3.528,2.239,3.528
			c0.882,0,1.561-0.362,2.103-0.814V110.363z"/>
		<path style="fill:#58595B;" d="M64.474,118.097c-1.402,1.085-3.211,1.47-5.698,1.47c-1.267,0-3.415-0.045-4.139-0.113v-15.287
			c1.108-0.068,3.415-0.113,4.704-0.113c4.975,0,7.53,2.103,7.53,7.576C66.871,114.457,66.125,116.808,64.474,118.097z
			 M59.409,106.723c-0.61,0-1.289,0.022-1.538,0.045v10.063c0.294,0.022,0.973,0.045,1.673,0.045c2.85,0,3.98-1.809,3.98-5.292
			C63.524,107.763,62.349,106.723,59.409,106.723z"/>
		<path style="fill:#58595B;" d="M78.926,114.909c0,3.37-1.583,4.771-5.111,4.771c-3.437,0-5.02-1.402-5.02-4.771v-7.236
			c0.316-0.045,0.927-0.113,1.538-0.113c0.542,0,1.221,0.045,1.583,0.113v7.214c0,1.764,0.52,2.397,1.945,2.397
			c1.447,0,1.945-0.633,1.945-2.397v-7.214c0.316-0.068,1.018-0.113,1.583-0.113c0.565,0,1.312,0.068,1.538,0.113V114.909z"/>
		<path style="fill:#58595B;" d="M85.643,119.68c-1.085,0-2.939-0.136-4.41-0.701v-16.01c0.339-0.068,0.973-0.113,1.515-0.113
			c0.679,0,1.357,0.068,1.605,0.113v5.224c0.701-0.384,1.764-0.746,2.759-0.746c3.527,0,4.794,2.827,4.794,5.653
			C91.907,116.989,89.872,119.68,85.643,119.68z M86.502,109.979c-0.746,0-1.56,0.249-2.148,0.633v6.467
			c0.339,0.09,0.95,0.158,1.561,0.158c1.99,0,2.781-1.402,2.781-3.957C88.695,111.517,88.175,109.979,86.502,109.979z"/>
		<path style="fill:#58595B;" d="M96.747,119.454c-0.407,0.09-1.244,0.113-1.605,0.113c-0.543,0-1.131-0.045-1.515-0.113v-16.485
			c0.498-0.068,1.108-0.113,1.515-0.113c0.542,0,1.176,0.045,1.605,0.113V119.454z"/>
		<path style="fill:#58595B;" d="M100.886,106.383c-0.95,0-1.719-0.769-1.719-1.718c0-0.95,0.769-1.719,1.719-1.719
			s1.719,0.769,1.719,1.719C102.604,105.615,101.835,106.383,100.886,106.383z M102.446,119.454
			c-0.407,0.09-1.244,0.113-1.605,0.113c-0.543,0-1.131-0.045-1.515-0.113v-11.782c0.497-0.068,1.108-0.113,1.515-0.113
			c0.542,0,1.108,0.045,1.605,0.113V119.454z"/>
		<path style="fill:#58595B;" d="M115.336,119.454c-0.361,0.09-1.13,0.113-1.492,0.113c-0.384,0-1.267-0.045-1.628-0.113v-7.734
			c0-1.221-0.633-1.741-1.65-1.741c-0.814,0-1.742,0.294-2.465,0.746v8.729c-0.52,0.09-1.244,0.113-1.65,0.113
			c-0.362,0-1.018-0.023-1.47-0.113v-11.782c0.294-0.068,1.018-0.113,1.357-0.113c0.316,0,0.973,0.045,1.312,0.113l0.158,1.041
			c1.018-0.747,2.488-1.267,3.799-1.267c2.487,0,3.731,1.538,3.731,4.116V119.454z"/>
		<path style="fill:#58595B;" d="M133.044,107.356c-1.086-0.339-2.442-0.588-3.528-0.588c-2.578,0-4.251,1.832-4.251,5.11
			c0,3.008,1.312,4.975,4.229,4.975c1.085,0,2.307-0.226,3.392-0.565c0.159,0.407,0.271,1.041,0.271,1.515
			c0,0.384-0.022,0.859-0.068,1.063c-1.131,0.52-2.578,0.814-3.912,0.814c-4.862,0-7.259-2.94-7.259-7.734
			c0-4.658,2.578-8.005,7.395-8.005c1.176,0,2.713,0.294,3.799,0.769c0.068,0.226,0.091,0.724,0.091,1.018
			C133.202,106.429,133.111,107.084,133.044,107.356z"/>
		<path style="fill:#58595B;" d="M136.753,106.383c-0.95,0-1.719-0.769-1.719-1.718c0-0.95,0.769-1.719,1.719-1.719
			s1.719,0.769,1.719,1.719C138.472,105.615,137.703,106.383,136.753,106.383z M138.314,119.454
			c-0.407,0.09-1.244,0.113-1.606,0.113c-0.542,0-1.13-0.045-1.515-0.113v-11.782c0.497-0.068,1.108-0.113,1.515-0.113
			c0.543,0,1.108,0.045,1.606,0.113V119.454z"/>
		<path style="fill:#58595B;" d="M148.31,119.228c-0.679,0.271-1.493,0.452-2.804,0.452c-2.556,0-3.822-1.244-3.822-3.731v-5.948
			h-1.945c-0.09-0.339-0.158-0.904-0.158-1.198c0-0.271,0.068-0.769,0.136-0.995l1.967-0.136v-3.03
			c0.249-0.045,1.04-0.09,1.561-0.09c0.565,0,1.266,0.045,1.56,0.09v3.03h3.256c0.09,0.317,0.136,0.769,0.136,1.018
			c0,0.271-0.022,0.995-0.113,1.312h-3.279v5.495c0,1.131,0.452,1.628,1.561,1.628c0.61,0,1.356-0.09,1.877-0.271
			c0.09,0.294,0.203,0.859,0.203,1.379C148.445,118.504,148.4,118.979,148.31,119.228z"/>
		<path style="fill:#58595B;" d="M159.774,117.374c0,1.719-0.09,3.618-0.972,5.111c-1.063,1.787-2.85,2.533-4.862,2.533
			c-1.131,0-2.42-0.158-3.46-0.475c-0.068-0.203-0.113-0.746-0.113-1.085c0-0.271,0.09-0.927,0.158-1.198
			c0.905,0.249,2.125,0.407,2.962,0.407c1.356,0,2.171-0.475,2.668-1.379c0.453-0.814,0.521-1.718,0.521-2.601
			c-0.791,0.611-1.832,0.995-2.804,0.995c-2.963,0-4.161-1.538-4.161-4.455v-7.553c0.362-0.09,1.13-0.113,1.492-0.113
			c0.385,0,1.267,0.045,1.628,0.113v7.372c0,1.447,0.521,2.081,1.81,2.081c0.814,0,1.538-0.339,2.013-0.792v-8.661
			c0.52-0.09,1.243-0.113,1.65-0.113c0.362,0,1.018,0.022,1.47,0.113V117.374z"/>
		<path style="fill:#58595B;" d="M178.636,113.643c0,3.889-1.492,6.038-5.834,6.038c-4.387,0-5.767-2.148-5.767-6.038v-9.475
			c0.452-0.068,1.04-0.113,1.583-0.113c0.634,0,1.198,0.045,1.651,0.113v9.701c0,2.081,0.588,3.256,2.555,3.256
			c1.968,0,2.646-1.176,2.646-3.256v-9.701c0.406-0.068,1.085-0.113,1.605-0.113c0.497,0,1.176,0.045,1.56,0.113V113.643z"/>
		<path style="fill:#58595B;" d="M191.571,119.454c-0.361,0.09-1.131,0.113-1.492,0.113c-0.385,0-1.267-0.045-1.628-0.113v-7.734
			c0-1.221-0.634-1.741-1.651-1.741c-0.813,0-1.741,0.294-2.465,0.746v8.729c-0.52,0.09-1.243,0.113-1.65,0.113
			c-0.362,0-1.018-0.023-1.47-0.113v-11.782c0.294-0.068,1.018-0.113,1.356-0.113c0.316,0,0.973,0.045,1.312,0.113l0.158,1.041
			c1.018-0.747,2.487-1.267,3.799-1.267c2.488,0,3.731,1.538,3.731,4.116V119.454z"/>
		<path style="fill:#58595B;" d="M195.621,106.383c-0.95,0-1.719-0.769-1.719-1.718c0-0.95,0.769-1.719,1.719-1.719
			c0.949,0,1.718,0.769,1.718,1.719C197.339,105.615,196.57,106.383,195.621,106.383z M197.181,119.454
			c-0.406,0.09-1.243,0.113-1.605,0.113c-0.542,0-1.131-0.045-1.515-0.113v-11.782c0.497-0.068,1.107-0.113,1.515-0.113
			c0.543,0,1.108,0.045,1.605,0.113V119.454z"/>
		<path style="fill:#58595B;" d="M209.075,111.132l-3.392,8.322c-0.227,0.045-0.814,0.113-1.402,0.113
			c-0.61,0-1.266-0.068-1.537-0.113l-3.257-8.367c-0.43-1.13-0.633-2.239-0.633-3.415c0.407-0.068,0.972-0.113,1.447-0.113
			c0.655,0,1.107,0.045,1.47,0.113c0,0.837,0.113,1.764,0.407,2.646l2.08,5.97h0.045l2.148-5.97
			c0.294-0.882,0.407-1.651,0.407-2.646c0.316-0.045,0.995-0.113,1.492-0.113c0.498,0,1.018,0.045,1.38,0.113
			C209.731,108.939,209.505,110.092,209.075,111.132z"/>
		<path style="fill:#58595B;" d="M220.881,114.66h-7.146c0.045,1.47,1.062,2.555,3.03,2.555c1.062,0,2.148-0.136,3.075-0.384
			c0.136,0.61,0.227,1.289,0.227,1.899c0,0.09,0,0.204-0.023,0.452c-1.153,0.339-2.352,0.498-3.527,0.498
			c-4.297,0-6.083-2.465-6.083-6.061c0-3.143,1.764-6.173,5.586-6.173c3.618,0,4.93,2.668,4.93,5.608
			C220.949,113.461,220.949,114.072,220.881,114.66z M217.828,112.421c0-1.425-0.385-2.623-1.854-2.623
			c-1.401,0-2.148,1.108-2.238,2.623H217.828z"/>
		<path style="fill:#58595B;" d="M229.34,110.069c-1.176,0.181-2.442,0.588-3.573,1.176v8.208c-0.316,0.068-0.995,0.113-1.537,0.113
			c-0.543,0-1.335-0.045-1.583-0.113v-11.782c0.339-0.045,0.904-0.113,1.356-0.113c0.385,0,0.995,0.045,1.312,0.113l0.181,1.447
			c0.837-0.746,2.353-1.56,3.822-1.673c0.045,0.181,0.09,0.837,0.09,1.312C229.407,109.21,229.385,109.753,229.34,110.069z"/>
		<path style="fill:#58595B;" d="M234.135,119.68c-1.334,0-2.736-0.204-3.822-0.565c-0.067-0.339-0.09-0.769-0.09-1.221
			c0-0.362,0.09-0.882,0.181-1.198c1.04,0.362,2.532,0.61,3.415,0.61c1.221,0,1.922-0.407,1.922-1.244
			c0-0.724-0.565-1.063-2.058-1.538c-2.375-0.746-3.482-1.854-3.482-3.573c0-2.555,2.352-3.505,4.59-3.505
			c1.04,0,2.193,0.181,2.985,0.43c0.091,0.339,0.136,0.814,0.136,1.085c0,0.294-0.091,0.905-0.204,1.289
			c-0.769-0.226-1.831-0.407-2.713-0.407c-1.086,0-1.832,0.271-1.832,0.95c0,0.724,0.837,1.018,2.148,1.447
			c2.284,0.747,3.369,1.696,3.369,3.482C238.68,118.482,236.464,119.68,234.135,119.68z"/>
		<path style="fill:#58595B;" d="M242.141,106.383c-0.95,0-1.719-0.769-1.719-1.718c0-0.95,0.769-1.719,1.719-1.719
			c0.949,0,1.718,0.769,1.718,1.719C243.858,105.615,243.09,106.383,242.141,106.383z M243.7,119.454
			c-0.406,0.09-1.243,0.113-1.605,0.113c-0.542,0-1.131-0.045-1.515-0.113v-11.782c0.497-0.068,1.107-0.113,1.515-0.113
			c0.543,0,1.108,0.045,1.605,0.113V119.454z"/>
		<path style="fill:#58595B;" d="M253.695,119.228c-0.678,0.271-1.492,0.452-2.804,0.452c-2.556,0-3.822-1.244-3.822-3.731v-5.948
			h-1.944c-0.091-0.339-0.158-0.904-0.158-1.198c0-0.271,0.067-0.769,0.136-0.995l1.967-0.136v-3.03
			c0.249-0.045,1.041-0.09,1.561-0.09c0.565,0,1.267,0.045,1.561,0.09v3.03h3.257c0.09,0.317,0.135,0.769,0.135,1.018
			c0,0.271-0.022,0.995-0.112,1.312h-3.279v5.495c0,1.131,0.452,1.628,1.561,1.628c0.61,0,1.356-0.09,1.877-0.271
			c0.09,0.294,0.203,0.859,0.203,1.379C253.831,118.504,253.786,118.979,253.695,119.228z"/>
		<path style="fill:#58595B;" d="M265.161,117.374c0,1.719-0.091,3.618-0.973,5.111c-1.062,1.787-2.849,2.533-4.861,2.533
			c-1.131,0-2.42-0.158-3.46-0.475c-0.068-0.203-0.113-0.746-0.113-1.085c0-0.271,0.091-0.927,0.158-1.198
			c0.904,0.249,2.126,0.407,2.962,0.407c1.357,0,2.171-0.475,2.669-1.379c0.452-0.814,0.52-1.718,0.52-2.601
			c-0.791,0.611-1.831,0.995-2.804,0.995c-2.962,0-4.161-1.538-4.161-4.455v-7.553c0.362-0.09,1.131-0.113,1.493-0.113
			c0.384,0,1.266,0.045,1.628,0.113v7.372c0,1.447,0.521,2.081,1.809,2.081c0.814,0,1.538-0.339,2.013-0.792v-8.661
			c0.521-0.09,1.244-0.113,1.651-0.113c0.361,0,1.018,0.022,1.47,0.113V117.374z"/>
	</g>
	<g>
		<path style="fill:#58595B;" d="M18.496,143.048c-0.521,0.18-1.303,0.301-1.885,0.301c-1.985,0-2.927-0.942-2.927-3.168v-6.456
			h-1.805c-0.04-0.101-0.06-0.341-0.06-0.461c0-0.1,0.02-0.341,0.06-0.441l1.805-0.121v-2.727c0.16-0.06,0.421-0.1,0.642-0.1
			c0.22,0,0.501,0.04,0.662,0.1v2.727h2.947c0.04,0.101,0.08,0.401,0.08,0.501c0,0.14-0.04,0.381-0.08,0.521h-2.947v6.335
			c0,1.584,0.461,2.246,1.704,2.246c0.682,0,1.343-0.1,1.805-0.24c0.04,0.1,0.08,0.341,0.08,0.481
			C18.576,142.728,18.556,142.868,18.496,143.048z"/>
		<path style="fill:#58595B;" d="M23.668,143.349c-2.626,0-4.311-1.805-4.311-5.414c0-3.609,1.705-5.434,4.331-5.434
			s4.291,1.784,4.291,5.394C27.979,141.504,26.294,143.349,23.668,143.349z M23.688,133.484c-1.925,0-2.967,1.483-2.967,4.431
			c0,2.947,1.022,4.451,2.947,4.451s2.947-1.504,2.947-4.451C26.615,134.968,25.613,133.484,23.688,133.484z"/>
		<path style="fill:#58595B;" d="M39.206,133.665c-1.163,0.161-2.426,0.582-3.369,1.303v8.181c-0.2,0.06-0.441,0.1-0.662,0.1
			c-0.22,0-0.441-0.04-0.642-0.1v-10.446c0.121-0.04,0.301-0.08,0.501-0.08c0.16,0,0.381,0.04,0.542,0.08l0.1,1.283h0.02
			c0.862-0.742,2.366-1.363,3.509-1.483c0.04,0.12,0.08,0.341,0.08,0.521C39.286,133.224,39.246,133.484,39.206,133.665z"/>
		<path style="fill:#58595B;" d="M48.188,138.276h-6.717c0.08,2.306,1.163,4.05,3.669,4.05c0.902,0,1.744-0.12,2.486-0.301
			c0.04,0.101,0.08,0.301,0.08,0.421c0,0.2-0.04,0.381-0.1,0.521c-0.782,0.241-1.765,0.381-2.586,0.381
			c-1.584,0-2.787-0.501-3.529-1.303c-0.882-0.962-1.344-2.406-1.344-4.07c0-2.907,1.464-5.474,4.391-5.474
			c2.626,0,3.669,2.166,3.669,4.812C48.208,137.615,48.208,137.976,48.188,138.276z M46.905,137.314c0-1.845-0.201-3.83-2.426-3.83
			c-1.945,0-2.887,1.784-3.007,3.83H46.905z"/>
		<path style="fill:#58595B;" d="M57.952,141.404c0,1.503-0.08,3.308-0.802,4.551c-0.862,1.483-2.406,2.125-3.95,2.125
			c-0.882,0-1.644-0.1-2.286-0.321c-0.06-0.12-0.08-0.321-0.08-0.481c0-0.121,0.04-0.361,0.08-0.481
			c0.622,0.161,1.343,0.281,2.065,0.281c2.526,0,3.669-1.564,3.669-4.311v-0.842c-0.782,0.822-1.885,1.223-2.787,1.223
			c-2.667,0-4.05-2.065-4.05-4.973c0-3.569,2.105-5.674,5.213-5.674c0.822,0,2.065,0.241,2.927,0.582V141.404z M56.649,133.725
			c-0.722-0.201-1.243-0.261-1.745-0.261c-2.546,0-3.749,2.145-3.749,4.651c0,2.226,0.842,3.97,2.807,3.97
			c1.003,0,2.025-0.501,2.687-1.203V133.725z"/>
		<path style="fill:#58595B;" d="M68.137,138.276H61.42c0.08,2.306,1.163,4.05,3.669,4.05c0.902,0,1.744-0.12,2.486-0.301
			c0.04,0.101,0.08,0.301,0.08,0.421c0,0.2-0.04,0.381-0.1,0.521c-0.782,0.241-1.765,0.381-2.586,0.381
			c-1.584,0-2.787-0.501-3.529-1.303c-0.882-0.962-1.344-2.406-1.344-4.07c0-2.907,1.464-5.474,4.391-5.474
			c2.626,0,3.669,2.166,3.669,4.812C68.157,137.615,68.157,137.976,68.137,138.276z M66.854,137.314c0-1.845-0.2-3.83-2.426-3.83
			c-1.945,0-2.887,1.784-3.007,3.83H66.854z"/>
		<path style="fill:#58595B;" d="M78.362,143.168c-0.16,0.04-0.401,0.08-0.642,0.08c-0.2,0-0.461-0.04-0.662-0.1v-6.356
			c0-0.962-0.12-1.704-0.401-2.226c-0.341-0.642-0.982-0.962-2.025-0.962c-1.003,0-2.206,0.562-2.988,1.163v8.381
			c-0.22,0.06-0.441,0.1-0.682,0.1c-0.2,0-0.441-0.04-0.622-0.1v-10.446c0.141-0.06,0.381-0.08,0.521-0.08
			c0.2,0,0.441,0.02,0.562,0.08l0.1,1.043h0.02c1.103-0.902,2.366-1.243,3.389-1.243c1.022,0,2.085,0.341,2.667,1.042
			c0.642,0.762,0.762,1.865,0.762,2.947V143.168z"/>
		<path style="fill:#58595B;" d="M88.486,138.276H81.77c0.08,2.306,1.163,4.05,3.669,4.05c0.902,0,1.744-0.12,2.486-0.301
			c0.04,0.101,0.08,0.301,0.08,0.421c0,0.2-0.04,0.381-0.1,0.521c-0.782,0.241-1.765,0.381-2.586,0.381
			c-1.584,0-2.787-0.501-3.529-1.303c-0.882-0.962-1.344-2.406-1.344-4.07c0-2.907,1.464-5.474,4.391-5.474
			c2.626,0,3.669,2.166,3.669,4.812C88.507,137.615,88.507,137.976,88.486,138.276z M87.203,137.314c0-1.845-0.2-3.83-2.426-3.83
			c-1.945,0-2.887,1.784-3.007,3.83H87.203z"/>
		<path style="fill:#58595B;" d="M95.364,133.665c-1.163,0.161-2.426,0.582-3.369,1.303v8.181c-0.2,0.06-0.441,0.1-0.662,0.1
			c-0.22,0-0.441-0.04-0.642-0.1v-10.446c0.121-0.04,0.301-0.08,0.501-0.08c0.16,0,0.381,0.04,0.541,0.08l0.101,1.283h0.02
			c0.862-0.742,2.366-1.363,3.509-1.483c0.04,0.12,0.08,0.341,0.08,0.521C95.444,133.224,95.404,133.484,95.364,133.665z"/>
		<path style="fill:#58595B;" d="M103.885,140.582c0,0.722,0,1.624,0.04,2.566c-0.141,0.06-0.361,0.1-0.542,0.1
			c-0.161,0-0.381-0.04-0.542-0.1c-0.06-0.321-0.1-0.742-0.12-1.123h-0.02c-0.682,0.842-1.885,1.324-3.068,1.324
			c-1.865,0-3.428-1.043-3.428-3.188c0-1.223,0.501-2.125,1.283-2.687c0.882-0.622,2.045-0.822,3.288-0.822
			c0.702,0,1.283,0.04,1.804,0.12v-0.582c0-2.005-0.822-2.667-2.506-2.667c-0.942,0-2.105,0.201-2.827,0.381
			c-0.04-0.1-0.08-0.321-0.08-0.521c0-0.141,0.04-0.341,0.1-0.461c0.862-0.261,2.005-0.421,2.967-0.421
			c2.386,0,3.649,1.083,3.649,3.529V140.582z M102.581,137.755c-0.581-0.08-1.183-0.12-1.704-0.12c-0.982,0-1.865,0.18-2.466,0.642
			c-0.541,0.401-0.842,1.042-0.842,1.865c0,1.463,0.942,2.165,2.246,2.165c1.083,0,2.226-0.521,2.767-1.343V137.755z"/>
		<path style="fill:#58595B;" d="M112.205,143.048c-0.521,0.18-1.304,0.301-1.885,0.301c-1.985,0-2.927-0.942-2.927-3.168v-6.456
			h-1.805c-0.04-0.101-0.06-0.341-0.06-0.461c0-0.1,0.02-0.341,0.06-0.441l1.805-0.121v-2.727c0.16-0.06,0.421-0.1,0.642-0.1
			c0.22,0,0.501,0.04,0.662,0.1v2.727h2.947c0.04,0.101,0.08,0.401,0.08,0.501c0,0.14-0.04,0.381-0.08,0.521h-2.947v6.335
			c0,1.584,0.461,2.246,1.704,2.246c0.682,0,1.343-0.1,1.805-0.24c0.04,0.1,0.08,0.341,0.08,0.481
			C112.285,142.728,112.265,142.868,112.205,143.048z"/>
		<path style="fill:#58595B;" d="M121.106,138.276h-6.716c0.08,2.306,1.163,4.05,3.669,4.05c0.902,0,1.744-0.12,2.486-0.301
			c0.04,0.101,0.08,0.301,0.08,0.421c0,0.2-0.04,0.381-0.1,0.521c-0.782,0.241-1.765,0.381-2.586,0.381
			c-1.584,0-2.787-0.501-3.529-1.303c-0.882-0.962-1.344-2.406-1.344-4.07c0-2.907,1.464-5.474,4.391-5.474
			c2.626,0,3.669,2.166,3.669,4.812C121.127,137.615,121.127,137.976,121.106,138.276z M119.823,137.314
			c0-1.845-0.2-3.83-2.426-3.83c-1.945,0-2.887,1.784-3.007,3.83H119.823z"/>
		<path style="fill:#58595B;" d="M133.276,143.048c-0.521,0.18-1.304,0.301-1.885,0.301c-1.985,0-2.927-0.942-2.927-3.168v-6.456
			h-1.805c-0.04-0.101-0.06-0.341-0.06-0.461c0-0.1,0.02-0.341,0.06-0.441l1.805-0.121v-2.727c0.16-0.06,0.421-0.1,0.642-0.1
			c0.22,0,0.501,0.04,0.662,0.1v2.727h2.947c0.04,0.101,0.08,0.401,0.08,0.501c0,0.14-0.04,0.381-0.08,0.521h-2.947v6.335
			c0,1.584,0.461,2.246,1.704,2.246c0.682,0,1.343-0.1,1.805-0.24c0.04,0.1,0.08,0.341,0.08,0.481
			C133.356,142.728,133.336,142.868,133.276,143.048z"/>
		<path style="fill:#58595B;" d="M143.241,143.148c-0.18,0.06-0.401,0.1-0.602,0.1c-0.24,0-0.501-0.04-0.702-0.1v-6.336
			c0-2.206-0.562-3.208-2.426-3.208c-1.003,0-2.206,0.562-2.988,1.163v8.381c-0.22,0.06-0.461,0.1-0.682,0.1
			c-0.2,0-0.441-0.04-0.622-0.1v-14.637c0.181-0.06,0.461-0.1,0.642-0.1c0.181,0,0.481,0.04,0.662,0.1v5.153
			c1.063-0.822,2.326-1.163,3.309-1.163c1.022,0,2.065,0.341,2.646,1.042c0.642,0.762,0.762,1.865,0.762,2.947V143.148z"/>
		<path style="fill:#58595B;" d="M153.365,138.276h-6.716c0.08,2.306,1.163,4.05,3.669,4.05c0.902,0,1.745-0.12,2.486-0.301
			c0.04,0.101,0.081,0.301,0.081,0.421c0,0.2-0.041,0.381-0.101,0.521c-0.782,0.241-1.765,0.381-2.586,0.381
			c-1.584,0-2.787-0.501-3.529-1.303c-0.882-0.962-1.344-2.406-1.344-4.07c0-2.907,1.464-5.474,4.391-5.474
			c2.626,0,3.669,2.166,3.669,4.812C153.386,137.615,153.386,137.976,153.365,138.276z M152.082,137.314
			c0-1.845-0.2-3.83-2.426-3.83c-1.945,0-2.887,1.784-3.007,3.83H152.082z"/>
	</g>
	<g>
		<path style="fill:#837199;" d="M22.441,179.603c-1.13,0-2.661-0.183-3.573-0.438v9.004c-0.656,0.109-1.75,0.183-2.552,0.183
			c-0.984,0-1.75-0.109-2.479-0.183v-27.522c0.583-0.109,1.567-0.182,2.333-0.182c0.692,0,1.458,0.072,1.968,0.182l0.182,1.567
			c1.167-1.093,3.281-1.968,5.25-1.968c5.213,0,7.546,4.265,7.546,9.149C31.117,175.046,28.201,179.603,22.441,179.603z
			 M22.514,164.329c-1.349,0-2.771,0.546-3.646,1.349v9.66c0.693,0.219,2.042,0.364,2.989,0.364c2.698,0,4.083-2.224,4.083-5.905
			C25.941,166.188,24.628,164.329,22.514,164.329z"/>
		<path style="fill:#837199;" d="M49.963,171.874H38.444c0.073,2.37,1.713,4.12,4.885,4.12c1.713,0,3.463-0.219,4.958-0.62
			c0.219,0.984,0.365,2.078,0.365,3.062c0,0.146,0,0.328-0.037,0.729c-1.859,0.547-3.791,0.802-5.687,0.802
			c-6.926,0-9.806-3.973-9.806-9.77c0-5.066,2.843-9.951,9.004-9.951c5.833,0,7.947,4.301,7.947,9.04
			C50.073,169.942,50.073,170.927,49.963,171.874z M45.042,168.266c0-2.297-0.62-4.229-2.989-4.229c-2.26,0-3.463,1.786-3.609,4.229
			H45.042z"/>
		<path style="fill:#837199;" d="M68.299,174.316c0,1.568,0.037,3.354,0.037,5.286c-0.583,0.146-1.568,0.183-2.188,0.183
			c-0.692,0-1.604-0.073-2.187-0.183c-0.073-0.438-0.146-1.203-0.182-1.677h-0.073c-1.239,1.275-3.354,2.041-5.286,2.041
			c-3.645,0-6.27-2.26-6.27-6.015c0-5.832,5.177-6.816,9.515-6.816c0.292,0,0.984,0.036,1.567,0.072
			c0-0.219-0.037-0.692-0.073-0.874c-0.255-1.495-1.239-2.114-3.354-2.114c-1.64,0-3.937,0.327-5.687,0.765
			c-0.183-0.51-0.292-1.385-0.292-2.041c0-0.547,0.073-1.385,0.219-1.75c2.042-0.619,4.557-0.947,6.635-0.947
			c4.557,0,7.619,2.114,7.619,6.853V174.316z M63.269,170.708c-0.437-0.036-1.021-0.073-1.531-0.073
			c-3.281,0-4.557,1.312-4.557,2.953c0,1.422,0.948,2.406,2.588,2.406c1.203,0,2.552-0.584,3.5-1.422V170.708z"/>
		<path style="fill:#837199;" d="M85.942,162.651c0,0.803-0.109,1.678-0.364,2.442c-1.203-0.474-2.771-0.765-4.265-0.765
			c-2.843,0-4.775,1.822-4.775,5.905c0,3.572,1.641,5.65,4.812,5.65c1.64,0,3.208-0.292,4.375-0.693
			c0.218,0.803,0.328,1.786,0.328,2.552c0,0.511,0,0.875-0.036,1.203c-1.458,0.656-3.39,1.021-5.213,1.021
			c-6.307,0-9.441-3.682-9.441-9.66c0-6.196,3.281-10.061,9.66-10.061c1.786,0,3.536,0.364,4.775,0.947
			C85.906,161.595,85.942,162.105,85.942,162.651z"/>
		<path style="fill:#837199;" d="M104.46,171.874H92.941c0.073,2.37,1.713,4.12,4.885,4.12c1.713,0,3.463-0.219,4.958-0.62
			c0.219,0.984,0.365,2.078,0.365,3.062c0,0.146,0,0.328-0.037,0.729c-1.859,0.547-3.791,0.802-5.687,0.802
			c-6.926,0-9.806-3.973-9.806-9.77c0-5.066,2.843-9.951,9.004-9.951c5.833,0,7.947,4.301,7.947,9.04
			C104.57,169.942,104.57,170.927,104.46,171.874z M99.54,168.266c0-2.297-0.62-4.229-2.989-4.229c-2.26,0-3.463,1.786-3.609,4.229
			H99.54z"/>
		<path style="fill:#837199;" d="M115.324,172.057h-8.239c-0.109-0.511-0.255-1.422-0.255-1.932c0-0.62,0.073-1.531,0.219-1.969
			h8.275c0.146,0.438,0.219,1.349,0.219,1.969C115.542,170.635,115.433,171.546,115.324,172.057z"/>
		<path style="fill:#837199;" d="M125.348,179.967c-1.75,0-4.739-0.219-7.108-1.13v-25.809c0.547-0.109,1.567-0.183,2.442-0.183
			c1.093,0,2.187,0.109,2.588,0.183v8.421c1.13-0.62,2.843-1.203,4.447-1.203c5.687,0,7.728,4.557,7.728,9.113
			C135.445,175.629,132.164,179.967,125.348,179.967z M126.733,164.329c-1.203,0-2.516,0.4-3.463,1.021v10.426
			c0.547,0.146,1.531,0.255,2.516,0.255c3.208,0,4.483-2.261,4.483-6.38C130.269,166.808,129.43,164.329,126.733,164.329z"/>
		<path style="fill:#837199;" d="M154.802,172.275c0,5.432-2.552,7.691-8.238,7.691c-5.541,0-8.093-2.26-8.093-7.691V160.61
			c0.511-0.073,1.495-0.183,2.479-0.183c0.875,0,1.968,0.073,2.552,0.183v11.629c0,2.843,0.838,3.864,3.135,3.864
			c2.333,0,3.135-1.021,3.135-3.864V160.61c0.51-0.109,1.641-0.183,2.552-0.183s2.114,0.109,2.479,0.183V172.275z"/>
		<path style="fill:#837199;" d="M161.654,158.532c-1.531,0-2.771-1.239-2.771-2.771c0-1.53,1.239-2.771,2.771-2.771
			s2.771,1.24,2.771,2.771C164.425,157.293,163.186,158.532,161.654,158.532z M164.17,179.603c-0.656,0.146-2.005,0.183-2.588,0.183
			c-0.875,0-1.823-0.073-2.442-0.183V160.61c0.802-0.109,1.786-0.183,2.442-0.183c0.875,0,1.786,0.073,2.588,0.183V179.603z"/>
		<path style="fill:#837199;" d="M173.721,179.603c-0.656,0.146-2.005,0.183-2.588,0.183c-0.875,0-1.822-0.073-2.442-0.183v-26.574
			c0.802-0.109,1.786-0.183,2.442-0.183c0.875,0,1.896,0.073,2.588,0.183V179.603z"/>
		<path style="fill:#837199;" d="M194.098,179.603c-0.583,0.109-1.567,0.183-2.333,0.183c-0.692,0-1.494-0.073-2.005-0.183
			l-0.146-1.677c-1.312,1.275-2.989,2.041-4.958,2.041c-5.432,0-7.764-4.338-7.764-9.551c0-5.613,2.515-10.17,8.311-10.17
			c1.422,0,3.062,0.438,3.864,0.947v-8.165c0.656-0.109,1.75-0.183,2.552-0.183c0.984,0,1.75,0.109,2.479,0.183V179.603z
			 M189.067,164.948c-0.875-0.401-2.005-0.619-2.952-0.619c-2.953,0-4.047,2.624-4.047,5.796c0,2.661,0.656,5.687,3.609,5.687
			c1.421,0,2.515-0.583,3.39-1.312V164.948z"/>
		<path style="fill:#837199;" d="M200.95,158.532c-1.53,0-2.771-1.239-2.771-2.771c0-1.53,1.24-2.771,2.771-2.771
			c1.531,0,2.771,1.24,2.771,2.771C203.721,157.293,202.481,158.532,200.95,158.532z M203.466,179.603
			c-0.656,0.146-2.005,0.183-2.588,0.183c-0.875,0-1.823-0.073-2.442-0.183V160.61c0.802-0.109,1.786-0.183,2.442-0.183
			c0.874,0,1.786,0.073,2.588,0.183V179.603z"/>
		<path style="fill:#837199;" d="M224.608,179.603c-0.584,0.146-1.823,0.183-2.406,0.183c-0.62,0-2.041-0.073-2.625-0.183v-12.467
			c0-1.969-1.021-2.807-2.661-2.807c-1.312,0-2.807,0.474-3.973,1.202v14.071c-0.839,0.146-2.005,0.183-2.661,0.183
			c-0.584,0-1.641-0.037-2.37-0.183V160.61c0.475-0.109,1.641-0.183,2.188-0.183c0.511,0,1.567,0.073,2.114,0.183l0.255,1.677
			c1.641-1.203,4.01-2.041,6.124-2.041c4.011,0,6.016,2.479,6.016,6.634V179.603z"/>
		<path style="fill:#837199;" d="M244.84,176.249c0,2.442-0.146,5.941-1.567,8.348c-1.713,2.88-4.338,3.974-7.837,3.974
			c-2.005,0-3.938-0.256-5.614-0.766c-0.109-0.364-0.146-0.839-0.146-1.312c0-0.802,0.109-1.641,0.291-2.369
			c1.568,0.4,3.427,0.656,4.885,0.656c2.078,0,3.5-0.803,4.302-2.261c0.729-1.312,0.839-2.515,0.839-3.974
			c-0.911,0.693-2.589,1.24-4.302,1.24c-5.322,0-8.056-3.938-8.056-9.15c0-6.78,3.535-10.389,10.206-10.389
			c1.714,0,4.812,0.328,6.999,1.239V176.249z M239.81,164.438c-0.547-0.108-1.677-0.182-2.15-0.182c-3.354,0-4.849,2.15-4.849,6.124
			c0,3.172,1.167,5.358,3.682,5.358c1.422,0,2.589-0.4,3.317-1.021V164.438z"/>
	</g>
	<g>
		<path style="fill:#837199;" d="M28.93,202.643l-5.468,13.415c-0.365,0.073-1.312,0.183-2.26,0.183
			c-0.984,0-2.042-0.109-2.479-0.183l-5.25-13.487c-0.692-1.823-1.021-3.609-1.021-5.505c0.656-0.109,1.567-0.183,2.333-0.183
			c1.057,0,1.786,0.073,2.369,0.183c0,1.349,0.183,2.844,0.656,4.265l3.354,9.624h0.073l3.463-9.624
			c0.474-1.421,0.656-2.661,0.656-4.265c0.51-0.073,1.604-0.183,2.406-0.183c0.802,0,1.641,0.073,2.224,0.183
			C29.987,199.106,29.623,200.966,28.93,202.643z"/>
		<path style="fill:#837199;" d="M35.564,194.987c-1.531,0-2.771-1.239-2.771-2.771c0-1.53,1.239-2.771,2.771-2.771
			c1.531,0,2.77,1.24,2.77,2.771C38.334,193.748,37.095,194.987,35.564,194.987z M38.08,216.058
			c-0.656,0.146-2.005,0.183-2.588,0.183c-0.875,0-1.823-0.073-2.442-0.183v-18.992c0.802-0.109,1.786-0.183,2.442-0.183
			c0.875,0,1.786,0.073,2.588,0.183V216.058z"/>
		<path style="fill:#837199;" d="M48.14,216.422c-2.151,0-4.411-0.328-6.161-0.911c-0.109-0.547-0.146-1.239-0.146-1.969
			c0-0.583,0.146-1.421,0.292-1.932c1.677,0.583,4.083,0.984,5.505,0.984c1.968,0,3.098-0.656,3.098-2.005
			c0-1.167-0.911-1.714-3.317-2.479c-3.828-1.202-5.614-2.988-5.614-5.759c0-4.119,3.791-5.65,7.4-5.65
			c1.677,0,3.536,0.291,4.812,0.692c0.146,0.547,0.219,1.312,0.219,1.75c0,0.474-0.146,1.458-0.328,2.077
			c-1.239-0.364-2.953-0.655-4.374-0.655c-1.75,0-2.953,0.437-2.953,1.53c0,1.167,1.349,1.641,3.463,2.333
			c3.682,1.203,5.432,2.734,5.432,5.614C55.467,214.49,51.895,216.422,48.14,216.422z"/>
		<path style="fill:#837199;" d="M61.409,194.987c-1.531,0-2.771-1.239-2.771-2.771c0-1.53,1.239-2.771,2.771-2.771
			c1.531,0,2.77,1.24,2.77,2.771C64.179,193.748,62.94,194.987,61.409,194.987z M63.924,216.058
			c-0.656,0.146-2.005,0.183-2.588,0.183c-0.875,0-1.823-0.073-2.442-0.183v-18.992c0.802-0.109,1.786-0.183,2.442-0.183
			c0.875,0,1.786,0.073,2.588,0.183V216.058z"/>
		<path style="fill:#837199;" d="M76.281,216.422c-5.504,0-9.004-3.536-9.004-9.806c0-6.233,3.463-9.915,9.004-9.915
			s9.004,3.646,9.004,9.879S81.822,216.422,76.281,216.422z M76.281,200.638c-2.37,0-3.828,1.604-3.828,5.942
			s1.458,5.905,3.828,5.905s3.828-1.567,3.828-5.905C80.109,202.205,78.651,200.638,76.281,200.638z"/>
		<path style="fill:#837199;" d="M105.043,216.058c-0.583,0.146-1.823,0.183-2.406,0.183c-0.62,0-2.042-0.073-2.625-0.183v-12.467
			c0-1.969-1.021-2.807-2.661-2.807c-1.312,0-2.807,0.474-3.974,1.202v14.071c-0.838,0.146-2.005,0.183-2.661,0.183
			c-0.583,0-1.64-0.037-2.369-0.183v-18.992c0.474-0.109,1.64-0.183,2.187-0.183c0.51,0,1.567,0.073,2.114,0.183l0.255,1.677
			c1.64-1.203,4.01-2.041,6.124-2.041c4.01,0,6.015,2.479,6.015,6.634V216.058z"/>
		<path style="fill:#837199;" d="M124.946,216.422c-5.504,0-9.004-3.536-9.004-9.806c0-6.233,3.463-9.915,9.004-9.915
			s9.004,3.646,9.004,9.879S130.487,216.422,124.946,216.422z M124.946,200.638c-2.37,0-3.828,1.604-3.828,5.942
			s1.458,5.905,3.828,5.905s3.828-1.567,3.828-5.905C128.773,202.205,127.315,200.638,124.946,200.638z"/>
		<path style="fill:#837199;" d="M149.515,193.129c-0.802-0.256-1.75-0.401-2.697-0.401c-2.114,0-3.208,1.13-3.208,3.572v0.766
			h4.666c0.182,0.62,0.219,1.458,0.219,1.859c0,0.438-0.073,1.239-0.182,1.896h-4.703v15.237c-0.51,0.109-1.713,0.183-2.479,0.183
			c-0.62,0-2.041-0.073-2.552-0.183V200.82h-3.098c-0.146-0.438-0.255-1.312-0.255-1.75c0-0.619,0.109-1.385,0.292-1.786
			l3.062-0.219v-0.547c0-4.885,2.516-7.509,7.291-7.509c1.13,0,2.734,0.255,3.828,0.655c0.146,0.438,0.182,1.094,0.182,1.604
			C149.88,191.816,149.734,192.545,149.515,193.129z"/>
		<path style="fill:#837199;" d="M171.424,215.693c-1.094,0.438-2.406,0.729-4.521,0.729c-4.119,0-6.161-2.005-6.161-6.015v-9.587
			h-3.135c-0.146-0.547-0.255-1.458-0.255-1.933c0-0.437,0.109-1.239,0.219-1.604l3.171-0.219v-4.885
			c0.401-0.073,1.678-0.146,2.516-0.146c0.911,0,2.041,0.072,2.516,0.146v4.885h5.249c0.146,0.511,0.219,1.239,0.219,1.641
			c0,0.438-0.036,1.604-0.183,2.114h-5.285v8.858c0,1.822,0.729,2.624,2.515,2.624c0.984,0,2.188-0.146,3.026-0.438
			c0.146,0.475,0.328,1.386,0.328,2.224C171.643,214.526,171.569,215.292,171.424,215.693z"/>
		<path style="fill:#837199;" d="M191.437,203.335v12.723c-0.584,0.146-1.823,0.183-2.406,0.183c-0.62,0-2.041-0.073-2.625-0.183
			v-12.431c0-1.969-1.021-2.843-2.661-2.843c-1.312,0-2.916,0.474-4.082,1.202v14.071c-0.839,0.146-2.005,0.183-2.661,0.183
			c-0.584,0-1.641-0.037-2.37-0.183v-26.574c0.475-0.109,1.531-0.183,2.442-0.183c0.912,0,2.042,0.073,2.589,0.183v8.931
			c1.604-1.021,3.827-1.713,5.759-1.713C189.432,196.701,191.437,199.18,191.437,203.335z"/>
		<path style="fill:#837199;" d="M211.267,208.329h-11.52c0.073,2.37,1.714,4.12,4.885,4.12c1.714,0,3.464-0.219,4.958-0.62
			c0.219,0.984,0.364,2.078,0.364,3.062c0,0.146,0,0.328-0.036,0.729c-1.859,0.547-3.791,0.802-5.687,0.802
			c-6.927,0-9.806-3.973-9.806-9.77c0-5.066,2.843-9.951,9.004-9.951c5.832,0,7.946,4.301,7.946,9.04
			C211.376,206.397,211.376,207.382,211.267,208.329z M206.346,204.721c0-2.297-0.62-4.229-2.989-4.229
			c-2.26,0-3.463,1.786-3.609,4.229H206.346z"/>
	</g>
	<g>
		<path style="fill:#837199;" d="M31.117,233.007c-1.75-0.546-3.937-0.947-5.687-0.947c-4.155,0-6.853,2.952-6.853,8.238
			c0,4.849,2.114,8.02,6.817,8.02c1.75,0,3.718-0.364,5.468-0.911c0.255,0.656,0.438,1.677,0.438,2.442
			c0,0.62-0.037,1.386-0.109,1.713c-1.823,0.839-4.156,1.312-6.306,1.312c-7.838,0-11.702-4.738-11.702-12.467
			c0-7.51,4.156-12.904,11.92-12.904c1.896,0,4.375,0.474,6.125,1.239c0.109,0.364,0.146,1.167,0.146,1.641
			C31.372,231.513,31.227,232.57,31.117,233.007z"/>
		<path style="fill:#837199;" d="M39.793,252.51c-0.656,0.146-2.005,0.183-2.588,0.183c-0.875,0-1.823-0.073-2.442-0.183v-26.574
			c0.802-0.109,1.786-0.183,2.442-0.183c0.875,0,1.896,0.073,2.588,0.183V252.51z"/>
		<path style="fill:#837199;" d="M46.828,231.439c-1.531,0-2.771-1.239-2.771-2.771c0-1.53,1.239-2.771,2.771-2.771
			c1.531,0,2.77,1.24,2.77,2.771C49.598,230.2,48.359,231.439,46.828,231.439z M49.343,252.51c-0.656,0.146-2.005,0.183-2.588,0.183
			c-0.875,0-1.823-0.073-2.442-0.183v-18.992c0.802-0.109,1.786-0.183,2.442-0.183c0.875,0,1.786,0.073,2.588,0.183V252.51z"/>
		<path style="fill:#837199;" d="M70.486,252.51c-0.583,0.146-1.823,0.183-2.406,0.183c-0.62,0-2.042-0.073-2.625-0.183v-12.467
			c0-1.969-1.021-2.807-2.661-2.807c-1.312,0-2.807,0.474-3.974,1.202v14.071c-0.838,0.146-2.005,0.183-2.661,0.183
			c-0.583,0-1.64-0.037-2.369-0.183v-18.992c0.474-0.109,1.64-0.183,2.187-0.183c0.51,0,1.567,0.073,2.114,0.183l0.255,1.677
			c1.64-1.203,4.01-2.041,6.124-2.041c4.01,0,6.015,2.479,6.015,6.634V252.51z"/>
		<path style="fill:#837199;" d="M86.634,252.146c-1.093,0.438-2.406,0.729-4.52,0.729c-4.119,0-6.161-2.005-6.161-6.015v-9.587
			h-3.135c-0.146-0.547-0.255-1.458-0.255-1.933c0-0.437,0.109-1.239,0.219-1.604l3.171-0.219v-4.885
			c0.401-0.073,1.677-0.146,2.515-0.146c0.912,0,2.042,0.072,2.516,0.146v4.885h5.249c0.146,0.511,0.219,1.239,0.219,1.641
			c0,0.438-0.037,1.604-0.182,2.114h-5.286v8.858c0,1.822,0.729,2.624,2.515,2.624c0.984,0,2.187-0.146,3.025-0.438
			c0.146,0.475,0.328,1.386,0.328,2.224C86.853,250.979,86.78,251.744,86.634,252.146z"/>
		<path style="fill:#837199;" d="M97.606,252.874c-5.504,0-9.004-3.536-9.004-9.806c0-6.233,3.463-9.915,9.004-9.915
			s9.004,3.646,9.004,9.879S103.147,252.874,97.606,252.874z M97.606,237.09c-2.37,0-3.828,1.604-3.828,5.942
			s1.458,5.905,3.828,5.905s3.828-1.567,3.828-5.905C101.434,238.657,99.976,237.09,97.606,237.09z"/>
		<path style="fill:#837199;" d="M126.368,252.51c-0.583,0.146-1.823,0.183-2.406,0.183c-0.62,0-2.042-0.073-2.625-0.183v-12.467
			c0-1.969-1.021-2.807-2.661-2.807c-1.312,0-2.807,0.474-3.974,1.202v14.071c-0.838,0.146-2.005,0.183-2.661,0.183
			c-0.583,0-1.64-0.037-2.369-0.183v-18.992c0.474-0.109,1.64-0.183,2.187-0.183c0.51,0,1.567,0.073,2.114,0.183l0.255,1.677
			c1.64-1.203,4.01-2.041,6.124-2.041c4.01,0,6.015,2.479,6.015,6.634V252.51z"/>
		<path style="fill:#837199;" d="M155.64,233.007c-1.75-0.546-3.938-0.947-5.687-0.947c-4.155,0-6.853,2.952-6.853,8.238
			c0,4.849,2.114,8.02,6.817,8.02c1.75,0,3.718-0.364,5.468-0.911c0.255,0.656,0.438,1.677,0.438,2.442
			c0,0.62-0.037,1.386-0.109,1.713c-1.823,0.839-4.156,1.312-6.307,1.312c-7.838,0-11.702-4.738-11.702-12.467
			c0-7.51,4.156-12.904,11.92-12.904c1.896,0,4.375,0.474,6.125,1.239c0.109,0.364,0.146,1.167,0.146,1.641
			C155.895,231.513,155.749,232.57,155.64,233.007z"/>
		<path style="fill:#837199;" d="M174.959,244.781h-11.52c0.073,2.37,1.714,4.12,4.885,4.12c1.714,0,3.464-0.219,4.958-0.62
			c0.219,0.984,0.364,2.078,0.364,3.062c0,0.146,0,0.327-0.036,0.729c-1.859,0.547-3.791,0.802-5.687,0.802
			c-6.927,0-9.807-3.973-9.807-9.77c0-5.066,2.844-9.951,9.005-9.951c5.832,0,7.946,4.301,7.946,9.04
			C175.068,242.85,175.068,243.834,174.959,244.781z M170.038,241.173c0-2.297-0.62-4.229-2.989-4.229
			c-2.26,0-3.463,1.786-3.609,4.229H170.038z"/>
		<path style="fill:#837199;" d="M194.863,252.51c-0.584,0.146-1.823,0.183-2.406,0.183c-0.62,0-2.041-0.073-2.625-0.183v-12.467
			c0-1.969-1.021-2.807-2.661-2.807c-1.312,0-2.807,0.474-3.973,1.202v14.071c-0.839,0.146-2.005,0.183-2.661,0.183
			c-0.584,0-1.641-0.037-2.37-0.183v-18.992c0.475-0.109,1.641-0.183,2.188-0.183c0.511,0,1.567,0.073,2.114,0.183l0.255,1.677
			c1.641-1.203,4.01-2.041,6.124-2.041c4.011,0,6.016,2.479,6.016,6.634V252.51z"/>
		<path style="fill:#837199;" d="M211.012,252.146c-1.094,0.438-2.406,0.729-4.521,0.729c-4.119,0-6.161-2.005-6.161-6.015v-9.587
			h-3.135c-0.146-0.547-0.255-1.458-0.255-1.933c0-0.437,0.109-1.239,0.219-1.604l3.171-0.219v-4.885
			c0.401-0.073,1.678-0.146,2.516-0.146c0.911,0,2.041,0.072,2.516,0.146v4.885h5.249c0.146,0.511,0.219,1.239,0.219,1.641
			c0,0.438-0.036,1.604-0.183,2.114h-5.285v8.858c0,1.822,0.729,2.624,2.515,2.624c0.984,0,2.188-0.146,3.026-0.438
			c0.146,0.475,0.328,1.386,0.328,2.224C211.23,250.979,211.157,251.744,211.012,252.146z"/>
		<path style="fill:#837199;" d="M225.009,237.382c-1.896,0.291-3.937,0.947-5.759,1.896v13.232
			c-0.511,0.109-1.604,0.183-2.479,0.183s-2.15-0.073-2.552-0.183v-18.992c0.547-0.073,1.458-0.183,2.188-0.183
			c0.62,0,1.604,0.073,2.114,0.183l0.292,2.333c1.349-1.203,3.791-2.516,6.16-2.697c0.073,0.291,0.146,1.349,0.146,2.114
			C225.118,235.996,225.082,236.871,225.009,237.382z"/>
		<path style="fill:#837199;" d="M243.162,244.781h-11.52c0.073,2.37,1.714,4.12,4.885,4.12c1.714,0,3.464-0.219,4.958-0.62
			c0.219,0.984,0.364,2.078,0.364,3.062c0,0.146,0,0.327-0.036,0.729c-1.859,0.547-3.791,0.802-5.687,0.802
			c-6.927,0-9.807-3.973-9.807-9.77c0-5.066,2.844-9.951,9.005-9.951c5.832,0,7.946,4.301,7.946,9.04
			C243.271,242.85,243.271,243.834,243.162,244.781z M238.241,241.173c0-2.297-0.62-4.229-2.989-4.229
			c-2.26,0-3.463,1.786-3.609,4.229H238.241z"/>
	</g>
</g>
</svg>
