<?xml version="1.0" encoding="utf-8"?>
<!-- Generator: Adobe Illustrator 16.0.0, SVG Export Plug-In . SVG Version: 6.00 Build 0)  -->
<!DOCTYPE svg PUBLIC "-//W3C//DTD SVG 1.1//EN" "http://www.w3.org/Graphics/SVG/1.1/DTD/svg11.dtd">
<svg version="1.1" id="Layer_1" xmlns="http://www.w3.org/2000/svg" xmlns:xlink="http://www.w3.org/1999/xlink" x="0px" y="0px"
	 width="300px" height="300px" viewBox="0 0 300 300" enable-background="new 0 0 300 300" xml:space="preserve">
<g>
	<path fill="#333333" d="M23.874,126.569c-0.25-1.002-0.438-1.91-0.563-2.818c-0.157,0.877-0.345,1.722-0.626,2.787l-3.882,15.217
		c-0.313,0.094-0.814,0.157-1.253,0.157c-0.438,0-1.033-0.032-1.346-0.157l-4.571-15.875c-0.532-1.753-0.751-3.539-0.783-5.292
		c0.313-0.094,0.783-0.157,1.096-0.157c0.345,0,0.658,0.062,1.033,0.157c0.031,1.659,0.219,3.256,0.658,4.853l3.225,11.46
		c0.156,0.595,0.595,2.191,0.72,2.849c0.062-0.626,0.375-2.004,0.595-2.881l4.102-16.281c0.282-0.094,0.689-0.157,1.002-0.157
		c0.345,0,0.783,0.094,1.002,0.157l4.102,16.25c0.219,0.814,0.501,2.035,0.72,2.943c0.219-0.908,0.532-2.16,0.783-3.068
		l3.193-11.272c0.438-1.597,0.689-3.194,0.72-4.853c0.313-0.094,0.658-0.157,1.034-0.157c0.313,0,0.783,0.062,1.033,0.157
		c-0.031,1.628-0.25,3.35-0.783,5.166l-4.603,16c-0.344,0.094-1.064,0.157-1.409,0.157c-0.313,0-0.876-0.063-1.252-0.157
		L23.874,126.569z"/>
	<path fill="#333333" d="M43.72,142.068c-4.102,0-6.732-2.818-6.732-8.454c0-5.636,2.661-8.485,6.763-8.485
		c4.102,0,6.701,2.787,6.701,8.422C50.452,139.188,47.822,142.068,43.72,142.068z M43.751,126.663c-3.006,0-4.634,2.317-4.634,6.919
		c0,4.603,1.597,6.951,4.603,6.951s4.603-2.348,4.603-6.951C48.323,128.98,46.757,126.663,43.751,126.663z"/>
	<path fill="#333333" d="M60.719,126.945c-1.816,0.25-3.789,0.908-5.26,2.035v12.775c-0.313,0.094-0.689,0.157-1.034,0.157
		c-0.344,0-0.688-0.063-1.002-0.157v-16.313c0.188-0.062,0.47-0.125,0.783-0.125c0.25,0,0.595,0.063,0.845,0.125l0.157,2.004h0.031
		c1.346-1.159,3.694-2.129,5.479-2.317c0.062,0.188,0.125,0.532,0.125,0.814C60.844,126.256,60.781,126.663,60.719,126.945z"/>
	<path fill="#333333" d="M75.495,141.755c-0.219,0.062-0.688,0.157-1.033,0.157c-0.344,0-0.845-0.063-1.252-0.157l-5.323-8.392
		l-2.379,2.223v6.168c-0.313,0.094-0.72,0.157-1.096,0.157c-0.25,0-0.657-0.063-0.939-0.157v-22.857
		c0.282-0.094,0.626-0.157,1.034-0.157c0.375,0,0.688,0.062,1.002,0.157v14.309l5.292-4.947c1.127-1.064,1.69-2.004,1.847-2.818
		c0.219-0.094,0.689-0.157,0.971-0.157s0.72,0.062,0.908,0.157c-0.125,1.159-0.846,2.567-2.286,3.882l-2.912,2.693L75.495,141.755z"
		/>
	<path fill="#333333" d="M78.749,122.248c-0.72,0-1.315-0.626-1.315-1.377s0.595-1.347,1.315-1.347s1.346,0.595,1.346,1.347
		S79.469,122.248,78.749,122.248z M79.782,141.755c-0.282,0.094-0.689,0.157-1.033,0.157s-0.72-0.063-1.002-0.157v-16.313
		c0.25-0.062,0.658-0.157,0.971-0.157c0.344,0,0.814,0.062,1.064,0.157V141.755z"/>
	<path fill="#333333" d="M96.313,141.786c-0.251,0.062-0.626,0.125-1.002,0.125c-0.313,0-0.72-0.063-1.034-0.157v-9.926
		c0-1.503-0.188-2.661-0.626-3.476c-0.532-1.002-1.534-1.503-3.163-1.503c-1.565,0-3.444,0.877-4.665,1.816v13.088
		c-0.345,0.094-0.689,0.157-1.065,0.157c-0.313,0-0.688-0.063-0.97-0.157v-16.313c0.219-0.094,0.595-0.125,0.814-0.125
		c0.313,0,0.689,0.031,0.876,0.125l0.157,1.628h0.031c1.722-1.409,3.695-1.941,5.292-1.941s3.256,0.532,4.165,1.628
		c1.002,1.19,1.19,2.912,1.19,4.603V141.786z"/>
	<path fill="#333333" d="M111.903,139.031c0,2.348-0.125,5.167-1.252,7.108c-1.347,2.317-3.757,3.319-6.168,3.319
		c-1.377,0-2.567-0.157-3.569-0.501c-0.094-0.188-0.125-0.501-0.125-0.751c0-0.188,0.062-0.563,0.125-0.751
		c0.971,0.25,2.098,0.438,3.225,0.438c3.945,0,5.729-2.442,5.729-6.731v-1.315c-1.221,1.284-2.943,1.91-4.352,1.91
		c-4.165,0-6.325-3.225-6.325-7.765c0-5.573,3.288-8.861,8.141-8.861c1.284,0,3.225,0.375,4.572,0.908V139.031z M109.867,127.039
		c-1.127-0.313-1.941-0.407-2.724-0.407c-3.977,0-5.855,3.35-5.855,7.264c0,3.475,1.315,6.199,4.384,6.199
		c1.565,0,3.162-0.783,4.195-1.878V127.039z"/>
	<path fill="#333333" d="M130.966,141.598c-0.814,0.282-2.035,0.47-2.943,0.47c-3.1,0-4.571-1.472-4.571-4.947v-10.083h-2.818
		c-0.062-0.156-0.094-0.532-0.094-0.72c0-0.156,0.032-0.532,0.094-0.688l2.818-0.188v-4.258c0.25-0.094,0.658-0.157,1.002-0.157
		c0.345,0,0.783,0.063,1.033,0.157v4.258h4.603c0.062,0.157,0.125,0.626,0.125,0.783c0,0.219-0.062,0.595-0.125,0.814h-4.603v9.895
		c0,2.474,0.72,3.507,2.662,3.507c1.064,0,2.098-0.157,2.818-0.376c0.062,0.157,0.125,0.532,0.125,0.751
		C131.091,141.097,131.06,141.316,130.966,141.598z"/>
	<path fill="#333333" d="M138.635,142.068c-4.102,0-6.732-2.818-6.732-8.454c0-5.636,2.661-8.485,6.763-8.485
		c4.102,0,6.701,2.787,6.701,8.422C145.367,139.188,142.737,142.068,138.635,142.068z M138.667,126.663
		c-3.006,0-4.634,2.317-4.634,6.919c0,4.603,1.597,6.951,4.603,6.951s4.603-2.348,4.603-6.951
		C143.238,128.98,141.672,126.663,138.667,126.663z"/>
	<path fill="#333333" d="M167.156,128.667l-4.195,13.088c-0.251,0.094-0.721,0.157-0.971,0.157c-0.282,0-0.752-0.063-0.971-0.157
		l-3.758-12.649h-0.062l-3.945,12.649c-0.281,0.094-0.72,0.157-0.971,0.157c-0.25,0-0.657-0.063-0.938-0.157l-3.883-12.9
		c-0.345-1.064-0.501-2.286-0.532-3.444c0.25-0.063,0.751-0.125,1.064-0.125c0.344,0,0.657,0.062,0.939,0.157
		c0.031,1.127,0.219,2.317,0.501,3.35l2.849,10.176h0.031l4.071-13.558c0.219-0.063,0.657-0.094,0.876-0.094
		c0.22,0,0.689,0.031,0.877,0.094l3.852,13.558h0.031l3.131-10.145c0.345-1.158,0.595-2.254,0.657-3.381
		c0.22-0.094,0.752-0.157,1.034-0.157c0.281,0,0.72,0.062,0.907,0.157C167.751,126.506,167.501,127.571,167.156,128.667z"/>
	<path fill="#333333" d="M181.492,137.747c0,1.127,0,2.536,0.063,4.008c-0.22,0.094-0.563,0.157-0.846,0.157
		c-0.251,0-0.595-0.063-0.846-0.157c-0.094-0.501-0.156-1.159-0.188-1.753h-0.031c-1.064,1.315-2.943,2.066-4.791,2.066
		c-2.912,0-5.354-1.628-5.354-4.979c0-1.91,0.782-3.319,2.004-4.195c1.377-0.971,3.193-1.284,5.135-1.284
		c1.096,0,2.004,0.062,2.817,0.188v-0.908c0-3.131-1.283-4.165-3.913-4.165c-1.472,0-3.288,0.313-4.415,0.595
		c-0.062-0.156-0.125-0.501-0.125-0.814c0-0.219,0.062-0.532,0.156-0.72c1.347-0.407,3.131-0.657,4.634-0.657
		c3.727,0,5.698,1.69,5.698,5.511V137.747z M179.457,133.332c-0.907-0.125-1.847-0.188-2.661-0.188
		c-1.534,0-2.912,0.282-3.852,1.002c-0.845,0.626-1.314,1.628-1.314,2.912c0,2.286,1.472,3.382,3.507,3.382
		c1.69,0,3.476-0.814,4.32-2.098V133.332z"/>
	<path fill="#333333" d="M192.729,126.945c-1.816,0.25-3.789,0.908-5.261,2.035v12.775c-0.312,0.094-0.688,0.157-1.033,0.157
		c-0.344,0-0.688-0.063-1.002-0.157v-16.313c0.188-0.062,0.47-0.125,0.783-0.125c0.25,0,0.595,0.063,0.846,0.125l0.156,2.004h0.031
		c1.347-1.159,3.694-2.129,5.479-2.317c0.062,0.188,0.125,0.532,0.125,0.814C192.854,126.256,192.792,126.663,192.729,126.945z"/>
	<path fill="#333333" d="M205.941,141.912c-0.282,0-0.627-0.094-0.814-0.157l-0.188-1.879h-0.031
		c-1.347,1.409-2.943,2.192-4.729,2.192c-4.32,0-6.388-3.601-6.388-7.984c0-4.352,1.848-8.955,6.826-8.955
		c1.565,0,3.006,0.532,4.164,1.346v-7.577c0.282-0.094,0.658-0.157,1.002-0.157c0.376,0,0.752,0.094,1.033,0.157v22.857
		C206.599,141.849,206.285,141.912,205.941,141.912z M204.782,128.197c-1.127-0.939-2.567-1.409-4.039-1.409
		c-3.632,0-4.853,3.569-4.853,7.202c0,2.787,0.876,6.419,4.383,6.419c1.691,0,3.413-0.846,4.509-2.161V128.197z"/>
	<path fill="#333333" d="M214.33,142.068c-1.566,0-3.194-0.282-4.321-0.72c-0.094-0.219-0.156-0.595-0.156-0.876
		c0-0.188,0.062-0.658,0.125-0.845c1.158,0.469,2.817,0.845,4.195,0.845c2.38,0,3.852-1.002,3.852-2.975
		c0-1.785-0.908-2.411-3.382-3.319c-3.444-1.252-4.571-2.693-4.571-4.822c0-2.88,2.38-4.227,5.448-4.227
		c1.033,0,2.38,0.188,3.162,0.438c0.094,0.282,0.125,0.564,0.125,0.751c0,0.25-0.062,0.689-0.125,0.908
		c-1.033-0.313-2.129-0.501-3.193-0.501c-2.224,0-3.569,0.845-3.569,2.567c0,1.503,0.845,2.223,3.413,3.194
		c2.348,0.876,4.508,1.753,4.508,4.916C219.84,140.596,217.43,142.068,214.33,142.068z"/>
</g>
<g>
	<path fill="#333333" d="M23.686,167.985H13.197c0.125,3.601,1.816,6.324,5.73,6.324c1.409,0,2.724-0.188,3.883-0.47
		c0.062,0.157,0.125,0.47,0.125,0.658c0,0.312-0.062,0.595-0.157,0.813c-1.221,0.376-2.755,0.596-4.039,0.596
		c-2.474,0-4.352-0.783-5.511-2.035c-1.377-1.503-2.098-3.758-2.098-6.356c0-4.54,2.286-8.548,6.857-8.548
		c4.102,0,5.73,3.382,5.73,7.515C23.717,166.952,23.717,167.516,23.686,167.985z M21.682,166.482c0-2.881-0.313-5.98-3.789-5.98
		c-3.037,0-4.509,2.786-4.697,5.98H21.682z"/>
	<path fill="#333333" d="M30.384,175.907c-1.565,0-3.194-0.282-4.321-0.721c-0.094-0.219-0.157-0.595-0.157-0.877
		c0-0.188,0.062-0.657,0.125-0.845c1.158,0.47,2.818,0.845,4.195,0.845c2.38,0,3.852-1.002,3.852-2.974
		c0-1.785-0.908-2.411-3.382-3.319c-3.444-1.253-4.571-2.692-4.571-4.822c0-2.88,2.379-4.227,5.448-4.227
		c1.033,0,2.379,0.188,3.162,0.438c0.094,0.281,0.125,0.563,0.125,0.751c0,0.251-0.062,0.689-0.125,0.908
		c-1.033-0.313-2.129-0.501-3.193-0.501c-2.223,0-3.57,0.846-3.57,2.567c0,1.503,0.846,2.224,3.413,3.194
		c2.348,0.876,4.509,1.753,4.509,4.915C35.895,174.436,33.483,175.907,30.384,175.907z"/>
	<path fill="#333333" d="M47.195,175.438c-0.814,0.281-2.035,0.47-2.943,0.47c-3.1,0-4.571-1.472-4.571-4.947v-10.082h-2.818
		c-0.062-0.157-0.094-0.532-0.094-0.721c0-0.156,0.032-0.532,0.094-0.688l2.818-0.188v-4.258c0.25-0.094,0.658-0.156,1.002-0.156
		c0.345,0,0.783,0.062,1.033,0.156v4.258h4.603c0.062,0.157,0.125,0.627,0.125,0.783c0,0.219-0.062,0.595-0.125,0.814h-4.603v9.894
		c0,2.474,0.72,3.507,2.662,3.507c1.064,0,2.098-0.156,2.818-0.375c0.062,0.156,0.125,0.532,0.125,0.751
		C47.321,174.937,47.289,175.155,47.195,175.438z"/>
	<path fill="#333333" d="M60.688,171.586c0,1.127,0,2.536,0.062,4.008c-0.219,0.094-0.563,0.156-0.845,0.156
		c-0.25,0-0.595-0.062-0.846-0.156c-0.094-0.501-0.156-1.158-0.188-1.754h-0.031c-1.065,1.315-2.943,2.067-4.791,2.067
		c-2.912,0-5.354-1.629-5.354-4.979c0-1.91,0.783-3.319,2.004-4.196c1.378-0.971,3.194-1.283,5.135-1.283
		c1.096,0,2.004,0.062,2.818,0.188v-0.908c0-3.131-1.284-4.164-3.914-4.164c-1.472,0-3.288,0.313-4.415,0.595
		c-0.063-0.156-0.125-0.501-0.125-0.813c0-0.22,0.062-0.533,0.157-0.721c1.346-0.407,3.131-0.657,4.634-0.657
		c3.726,0,5.699,1.69,5.699,5.511V171.586z M58.653,167.171c-0.908-0.125-1.847-0.188-2.662-0.188c-1.534,0-2.912,0.281-3.851,1.002
		c-0.845,0.626-1.315,1.628-1.315,2.912c0,2.285,1.472,3.381,3.507,3.381c1.69,0,3.476-0.813,4.321-2.098V167.171z"/>
	<path fill="#333333" d="M69.64,175.907c-1.44,0-3.288-0.22-5.01-0.846v-22.325c0.219-0.062,0.688-0.156,0.97-0.156
		c0.501,0,0.877,0.094,1.065,0.156v7.922c1.284-1.064,2.912-1.69,4.634-1.69c4.415,0,6.262,3.788,6.262,8.016
		C77.561,172.369,74.806,175.907,69.64,175.907z M71.017,160.721c-1.565,0-3.131,0.658-4.352,1.879v11.24
		c0.845,0.313,1.91,0.502,2.818,0.502c4.352,0,5.949-3.319,5.949-7.233C75.432,164.071,74.555,160.721,71.017,160.721z"/>
	<path fill="#333333" d="M82.63,175.594c-0.344,0.094-0.689,0.156-1.064,0.156c-0.313,0-0.689-0.062-0.971-0.156v-22.857
		c0.282-0.062,0.626-0.156,1.033-0.156c0.344,0,0.72,0.062,1.002,0.156V175.594z"/>
	<path fill="#333333" d="M87.701,156.087c-0.72,0-1.315-0.626-1.315-1.378c0-0.751,0.595-1.346,1.315-1.346s1.346,0.595,1.346,1.346
		C89.047,155.461,88.421,156.087,87.701,156.087z M88.734,175.594c-0.282,0.094-0.689,0.156-1.033,0.156s-0.72-0.062-1.002-0.156
		V159.28c0.25-0.062,0.658-0.156,0.971-0.156c0.344,0,0.814,0.062,1.064,0.156V175.594z"/>
	<path fill="#333333" d="M96.374,175.907c-1.565,0-3.194-0.282-4.321-0.721c-0.094-0.219-0.157-0.595-0.157-0.877
		c0-0.188,0.062-0.657,0.125-0.845c1.158,0.47,2.818,0.845,4.195,0.845c2.38,0,3.852-1.002,3.852-2.974
		c0-1.785-0.908-2.411-3.382-3.319c-3.444-1.253-4.571-2.692-4.571-4.822c0-2.88,2.38-4.227,5.448-4.227
		c1.033,0,2.379,0.188,3.162,0.438c0.094,0.281,0.125,0.563,0.125,0.751c0,0.251-0.062,0.689-0.125,0.908
		c-1.033-0.313-2.129-0.501-3.193-0.501c-2.223,0-3.57,0.846-3.57,2.567c0,1.503,0.846,2.224,3.413,3.194
		c2.348,0.876,4.509,1.753,4.509,4.915C101.884,174.436,99.473,175.907,96.374,175.907z"/>
	<path fill="#333333" d="M117.318,175.594c-0.282,0.094-0.626,0.156-0.939,0.156c-0.376,0-0.783-0.062-1.096-0.156v-9.895
		c0-3.444-0.876-5.01-3.789-5.01c-1.565,0-3.444,0.877-4.665,1.816v13.088c-0.345,0.094-0.72,0.156-1.065,0.156
		c-0.313,0-0.688-0.062-0.97-0.156v-22.857c0.282-0.094,0.72-0.156,1.002-0.156c0.282,0,0.751,0.062,1.033,0.156v8.047
		c1.659-1.283,3.632-1.815,5.166-1.815c1.597,0,3.225,0.532,4.133,1.628c1.002,1.189,1.19,2.912,1.19,4.603V175.594z"/>
	<path fill="#333333" d="M122.23,156.087c-0.72,0-1.315-0.626-1.315-1.378c0-0.751,0.595-1.346,1.315-1.346s1.346,0.595,1.346,1.346
		C123.577,155.461,122.951,156.087,122.23,156.087z M123.264,175.594c-0.282,0.094-0.689,0.156-1.033,0.156s-0.72-0.062-1.002-0.156
		V159.28c0.25-0.062,0.658-0.156,0.971-0.156c0.344,0,0.814,0.062,1.064,0.156V175.594z"/>
	<path fill="#333333" d="M139.795,175.625c-0.251,0.062-0.626,0.125-1.002,0.125c-0.313,0-0.72-0.062-1.034-0.156v-9.926
		c0-1.503-0.188-2.661-0.626-3.476c-0.532-1.002-1.534-1.503-3.163-1.503c-1.565,0-3.444,0.877-4.665,1.816v13.088
		c-0.345,0.094-0.689,0.156-1.065,0.156c-0.313,0-0.688-0.062-0.97-0.156V159.28c0.219-0.094,0.595-0.125,0.814-0.125
		c0.313,0,0.689,0.031,0.876,0.125l0.157,1.629h0.031c1.722-1.409,3.695-1.941,5.292-1.941s3.256,0.532,4.165,1.628
		c1.002,1.189,1.19,2.912,1.19,4.603V175.625z"/>
	<path fill="#333333" d="M155.384,172.87c0,2.348-0.125,5.166-1.252,7.107c-1.347,2.316-3.757,3.318-6.168,3.318
		c-1.377,0-2.567-0.156-3.569-0.501c-0.094-0.188-0.125-0.501-0.125-0.751c0-0.188,0.062-0.563,0.125-0.752
		c0.971,0.251,2.098,0.438,3.225,0.438c3.945,0,5.729-2.442,5.729-6.731v-1.315c-1.221,1.284-2.943,1.91-4.352,1.91
		c-4.165,0-6.325-3.225-6.325-7.766c0-5.573,3.288-8.86,8.141-8.86c1.284,0,3.226,0.376,4.571,0.908V172.87z M153.349,160.878
		c-1.127-0.313-1.941-0.407-2.724-0.407c-3.977,0-5.855,3.35-5.855,7.264c0,3.476,1.315,6.2,4.384,6.2
		c1.565,0,3.162-0.783,4.195-1.879V160.878z"/>
</g>
<g>
	<path fill="#64AD94" d="M28.923,212.825c-0.385,0.089-1.303,0.148-2.28,0.148c-0.77,0-1.659-0.089-2.043-0.148l-1.481-4.058H16.01
		l-1.392,4.058c-0.651,0.089-1.421,0.148-2.191,0.148s-1.659-0.06-2.103-0.148l6.99-20.021c0.415-0.089,1.392-0.147,2.043-0.147
		c0.8,0,1.748,0.059,2.073,0.147L28.923,212.825z M21.845,205.243l-1.747-5.657c-0.208-0.651-0.415-1.48-0.592-2.398h-0.06
		c-0.148,0.918-0.385,1.747-0.592,2.398l-1.659,5.657H21.845z"/>
	<path fill="#64AD94" d="M53.831,212.825c-0.385,0.06-1.155,0.148-1.984,0.148c-0.799,0-1.599-0.089-2.132-0.148l-2.429-9.893
		c-0.267-1.036-0.415-2.162-0.533-3.139h-0.029c-0.089,0.977-0.326,2.132-0.563,3.139l-2.399,9.893
		c-0.533,0.06-1.362,0.148-2.132,0.148c-0.741,0-1.629-0.089-2.043-0.148l-4.473-14.66c-0.474-1.54-0.77-3.377-0.77-5.361
		c0.622-0.118,1.392-0.147,2.044-0.147c1.096,0,1.629,0.059,2.103,0.147c0,1.926,0.267,3.524,0.622,4.887l1.807,6.842
		c0.267,1.066,0.533,2.458,0.681,3.791h0.06c0.148-1.333,0.385-2.725,0.651-3.82l2.784-11.699c0.533-0.089,1.037-0.147,1.569-0.147
		c0.563,0,1.066,0.059,1.629,0.147l2.843,11.729c0.266,1.066,0.562,2.458,0.71,3.791h0.06c0.148-1.333,0.415-2.725,0.71-3.82
		l1.896-6.812c0.385-1.362,0.681-2.961,0.681-4.887c0.474-0.089,1.333-0.147,2.222-0.147c0.592,0,1.392,0.059,1.955,0.147
		c0,2.191-0.326,3.851-0.8,5.361L53.831,212.825z"/>
	<path fill="#64AD94" d="M68.343,213.121c-5.479,0-8.382-3.791-8.382-10.307s2.902-10.307,8.382-10.307
		c5.479,0,8.381,3.791,8.381,10.307S73.822,213.121,68.343,213.121z M68.343,196.15c-2.547,0-3.999,1.955-3.999,6.664
		s1.451,6.664,3.999,6.664c2.547,0,3.998-1.955,3.998-6.664S70.89,196.15,68.343,196.15z"/>
	<path fill="#64AD94" d="M93.843,212.796c-0.77,0.118-1.57,0.178-2.488,0.178c-0.829,0-1.659-0.03-2.221-0.148l-4.058-7.197h-1.748
		v7.197c-0.74,0.118-1.362,0.148-2.162,0.148c-0.711,0-1.333-0.03-2.073-0.148v-20.021c1.362-0.089,4.206-0.147,5.923-0.147
		c5.035,0,7.553,1.776,7.553,6.396c0,2.459-1.481,4.917-3.554,5.806L93.843,212.796z M85.283,196.121
		c-0.651,0-1.451,0.029-1.955,0.06v5.923h1.481c2.429,0,3.495-0.889,3.495-3.08S87.238,196.121,85.283,196.121z"/>
	<path fill="#64AD94" d="M107.94,212.825H95.679v-20.021c0.563-0.089,1.333-0.147,2.073-0.147c0.83,0,1.629,0.059,2.162,0.147
		v16.408h8.026c0.119,0.326,0.207,0.947,0.207,1.777C108.147,211.641,108.088,212.203,107.94,212.825z"/>
	<path fill="#64AD94" d="M122.985,211.048c-1.836,1.422-4.206,1.926-7.464,1.926c-1.658,0-4.472-0.06-5.42-0.148v-20.021
		c1.451-0.089,4.472-0.147,6.161-0.147c6.516,0,9.862,2.754,9.862,9.921C126.125,206.279,125.147,209.36,122.985,211.048z
		 M116.351,196.15c-0.8,0-1.688,0.03-2.014,0.06v13.18c0.385,0.029,1.273,0.06,2.192,0.06c3.731,0,5.212-2.37,5.212-6.931
		C121.741,197.513,120.201,196.15,116.351,196.15z"/>
	<path fill="#64AD94" d="M134.684,206.694h-6.694c-0.089-0.415-0.207-1.155-0.207-1.569c0-0.504,0.059-1.244,0.178-1.6h6.723
		c0.118,0.355,0.178,1.096,0.178,1.6C134.861,205.539,134.772,206.279,134.684,206.694z"/>
	<path fill="#64AD94" d="M151.091,196.979c-1.421-0.443-3.198-0.77-4.62-0.77c-3.376,0-5.568,2.399-5.568,6.693
		c0,3.939,1.718,6.516,5.539,6.516c1.421,0,3.021-0.296,4.442-0.74c0.207,0.533,0.355,1.362,0.355,1.984
		c0,0.504-0.029,1.126-0.089,1.392c-1.481,0.682-3.376,1.066-5.124,1.066c-6.368,0-9.507-3.85-9.507-10.129
		c0-6.102,3.376-10.484,9.685-10.484c1.541,0,3.554,0.385,4.976,1.007c0.089,0.296,0.119,0.948,0.119,1.333
		C151.299,195.766,151.18,196.625,151.091,196.979z"/>
	<path fill="#64AD94" d="M165.751,212.825H153.49v-20.021c0.562-0.089,1.332-0.147,2.073-0.147c0.829,0,1.629,0.059,2.162,0.147
		v16.408h8.025c0.119,0.326,0.208,0.947,0.208,1.777C165.959,211.641,165.899,212.203,165.751,212.825z"/>
	<path fill="#64AD94" d="M185.388,212.825c-0.386,0.089-1.304,0.148-2.281,0.148c-0.77,0-1.658-0.089-2.043-0.148l-1.481-4.058
		h-7.107l-1.393,4.058c-0.651,0.089-1.422,0.148-2.191,0.148c-0.771,0-1.658-0.06-2.103-0.148l6.989-20.021
		c0.415-0.089,1.392-0.147,2.044-0.147c0.8,0,1.747,0.059,2.073,0.147L185.388,212.825z M178.309,205.243l-1.747-5.657
		c-0.207-0.651-0.415-1.48-0.593-2.398h-0.059c-0.148,0.918-0.386,1.747-0.593,2.398l-1.658,5.657H178.309z"/>
	<path fill="#64AD94" d="M192.316,213.121c-2.162,0-4.531-0.414-6.22-1.185c-0.089-0.414-0.148-0.947-0.148-1.422
		c0-0.71,0.089-1.392,0.297-2.191c1.747,0.711,4.058,1.155,5.864,1.155c2.103,0,3.228-0.978,3.228-2.311
		c0-1.48-0.947-2.103-3.82-2.991c-3.198-0.978-5.538-2.518-5.538-5.953c0-3.672,3.169-5.716,7.345-5.716
		c1.925,0,3.644,0.296,4.798,0.681c0.089,0.326,0.148,0.859,0.148,1.63c0,0.562-0.06,1.421-0.178,1.895
		c-1.48-0.385-3.169-0.592-4.531-0.592c-2.222,0-3.436,0.74-3.436,1.925c0,1.393,1.096,1.955,3.761,2.784
		c3.199,1.007,5.568,2.518,5.568,6.071C199.454,210.781,196.403,213.121,192.316,213.121z"/>
	<path fill="#64AD94" d="M206.77,213.121c-2.162,0-4.531-0.414-6.22-1.185c-0.089-0.414-0.148-0.947-0.148-1.422
		c0-0.71,0.089-1.392,0.297-2.191c1.747,0.711,4.058,1.155,5.864,1.155c2.103,0,3.228-0.978,3.228-2.311
		c0-1.48-0.947-2.103-3.82-2.991c-3.198-0.978-5.538-2.518-5.538-5.953c0-3.672,3.169-5.716,7.345-5.716
		c1.925,0,3.644,0.296,4.798,0.681c0.089,0.326,0.148,0.859,0.148,1.63c0,0.562-0.06,1.421-0.178,1.895
		c-1.48-0.385-3.169-0.592-4.531-0.592c-2.222,0-3.436,0.74-3.436,1.925c0,1.393,1.096,1.955,3.761,2.784
		c3.199,1.007,5.568,2.518,5.568,6.071C213.907,210.781,210.856,213.121,206.77,213.121z"/>
</g>
<g>
	<path fill="#64AD94" d="M32.389,243.272c-0.355,0.089-1.155,0.148-1.984,0.148c-0.889,0-1.718-0.089-2.073-0.148l-0.355-12.024
		l-4.383,10.129c-0.326,0.118-1.037,0.178-1.481,0.178c-0.533,0-1.185-0.06-1.51-0.148l-4.383-10.158l-0.385,12.024
		c-0.385,0.089-1.303,0.148-2.103,0.148c-0.474,0-1.274-0.06-1.807-0.148l0.859-20.021c0.562-0.059,1.125-0.147,1.718-0.147
		c0.71,0,1.392,0.059,1.747,0.147l5.864,13.595l5.894-13.595c0.592-0.089,1.185-0.147,1.718-0.147c0.681,0,1.303,0.059,1.748,0.147
		L32.389,243.272z"/>
	<path fill="#64AD94" d="M47.997,243.272H35.468v-20.021H47.73c0.119,0.326,0.208,0.948,0.208,1.777c0,0.651-0.06,1.214-0.208,1.836
		h-8.026v4.324h6.782c0.119,0.326,0.208,0.918,0.208,1.747c0,0.652-0.059,1.186-0.208,1.807h-6.782v4.917h8.293
		c0.118,0.326,0.207,0.947,0.207,1.777C48.204,242.088,48.145,242.65,47.997,243.272z"/>
	<path fill="#64AD94" d="M63.279,241.495c-1.836,1.422-4.206,1.926-7.464,1.926c-1.658,0-4.472-0.06-5.42-0.148v-20.021
		c1.451-0.089,4.472-0.147,6.161-0.147c6.516,0,9.862,2.754,9.862,9.921C66.418,236.727,65.441,239.808,63.279,241.495z
		 M56.645,226.598c-0.8,0-1.688,0.03-2.014,0.06v13.18c0.385,0.029,1.273,0.06,2.192,0.06c3.731,0,5.212-2.37,5.212-6.931
		C62.035,227.96,60.495,226.598,56.645,226.598z"/>
	<path fill="#64AD94" d="M73.082,243.272c-0.562,0.089-1.244,0.148-2.132,0.148c-0.8,0-1.54-0.06-2.103-0.148v-20.021
		c0.562-0.089,1.392-0.147,2.132-0.147c0.829,0,1.57,0.059,2.103,0.147V243.272z"/>
	<path fill="#64AD94" d="M90.082,227.427c-1.422-0.443-3.199-0.77-4.621-0.77c-3.376,0-5.568,2.399-5.568,6.693
		c0,3.939,1.718,6.516,5.539,6.516c1.421,0,3.021-0.296,4.442-0.74c0.208,0.533,0.355,1.362,0.355,1.984
		c0,0.504-0.03,1.126-0.089,1.392c-1.481,0.682-3.376,1.066-5.124,1.066c-6.368,0-9.507-3.85-9.507-10.129
		c0-6.102,3.376-10.484,9.685-10.484c1.541,0,3.554,0.385,4.976,1.007c0.089,0.296,0.118,0.948,0.118,1.333
		C90.289,226.213,90.171,227.072,90.082,227.427z"/>
	<path fill="#64AD94" d="M109.955,243.272c-0.385,0.089-1.303,0.148-2.28,0.148c-0.77,0-1.659-0.089-2.043-0.148l-1.481-4.058
		h-7.108l-1.392,4.058c-0.651,0.089-1.421,0.148-2.191,0.148s-1.659-0.06-2.103-0.148l6.99-20.021
		c0.415-0.089,1.392-0.147,2.043-0.147c0.8,0,1.748,0.059,2.073,0.147L109.955,243.272z M102.876,235.69l-1.747-5.657
		c-0.208-0.651-0.415-1.48-0.592-2.398h-0.06c-0.148,0.918-0.385,1.747-0.592,2.398l-1.659,5.657H102.876z"/>
	<path fill="#64AD94" d="M123.697,243.272h-12.262v-20.021c0.563-0.089,1.333-0.147,2.073-0.147c0.83,0,1.629,0.059,2.162,0.147
		v16.408h8.026c0.119,0.326,0.208,0.947,0.208,1.777C123.904,242.088,123.845,242.65,123.697,243.272z"/>
	<path fill="#64AD94" d="M135.335,243.568c-2.162,0-4.531-0.414-6.22-1.185c-0.089-0.414-0.148-0.947-0.148-1.422
		c0-0.71,0.089-1.392,0.296-2.191c1.748,0.711,4.058,1.155,5.864,1.155c2.103,0,3.229-0.978,3.229-2.311
		c0-1.48-0.948-2.103-3.821-2.991c-3.199-0.978-5.538-2.518-5.538-5.953c0-3.672,3.169-5.716,7.345-5.716
		c1.925,0,3.643,0.296,4.798,0.681c0.089,0.326,0.148,0.859,0.148,1.63c0,0.562-0.059,1.421-0.178,1.895
		c-1.481-0.385-3.169-0.592-4.531-0.592c-2.222,0-3.436,0.74-3.436,1.925c0,1.393,1.096,1.955,3.762,2.784
		c3.199,1.007,5.568,2.518,5.568,6.071C142.473,241.229,139.423,243.568,135.335,243.568z"/>
	<path fill="#64AD94" d="M158.377,227.427c-1.421-0.443-3.198-0.77-4.62-0.77c-3.376,0-5.568,2.399-5.568,6.693
		c0,3.939,1.718,6.516,5.539,6.516c1.422,0,3.021-0.296,4.442-0.74c0.207,0.533,0.355,1.362,0.355,1.984
		c0,0.504-0.029,1.126-0.089,1.392c-1.48,0.682-3.376,1.066-5.124,1.066c-6.368,0-9.507-3.85-9.507-10.129
		c0-6.102,3.376-10.484,9.685-10.484c1.54,0,3.555,0.385,4.976,1.007c0.089,0.296,0.119,0.948,0.119,1.333
		C158.585,226.213,158.466,227.072,158.377,227.427z"/>
	<path fill="#64AD94" d="M176.178,243.272c-0.533,0.089-1.274,0.148-2.104,0.148s-1.569-0.06-2.132-0.148v-8.293h-6.96v8.293
		c-0.563,0.089-1.215,0.148-2.104,0.148c-0.8,0-1.569-0.06-2.132-0.148v-20.021c0.562-0.089,1.392-0.147,2.132-0.147
		c0.829,0,1.57,0.059,2.104,0.147v8.115h6.96v-8.115c0.651-0.089,1.392-0.147,2.132-0.147c0.711,0,1.6,0.059,2.104,0.147V243.272z"
		/>
	<path fill="#64AD94" d="M186.927,243.568c-5.479,0-8.382-3.791-8.382-10.307s2.903-10.307,8.382-10.307
		c5.479,0,8.382,3.791,8.382,10.307S192.406,243.568,186.927,243.568z M186.927,226.598c-2.547,0-3.998,1.955-3.998,6.664
		s1.451,6.664,3.998,6.664c2.548,0,3.999-1.955,3.999-6.664S189.475,226.598,186.927,226.598z"/>
	<path fill="#64AD94" d="M205.142,243.568c-5.479,0-8.382-3.791-8.382-10.307s2.903-10.307,8.382-10.307
		c5.479,0,8.382,3.791,8.382,10.307S210.621,243.568,205.142,243.568z M205.142,226.598c-2.547,0-3.998,1.955-3.998,6.664
		s1.451,6.664,3.998,6.664c2.548,0,3.999-1.955,3.999-6.664S207.689,226.598,205.142,226.598z"/>
	<path fill="#64AD94" d="M228.153,243.272h-12.261v-20.021c0.562-0.089,1.332-0.147,2.073-0.147c0.829,0,1.629,0.059,2.162,0.147
		v16.408h8.025c0.119,0.326,0.208,0.947,0.208,1.777C228.361,242.088,228.302,242.65,228.153,243.272z"/>
</g>
<g>
	<path fill="#64AD94" d="M16.425,273.716c-0.562,0.089-1.244,0.148-2.132,0.148c-0.8,0-1.54-0.06-2.103-0.148v-20.021
		c0.562-0.089,1.392-0.147,2.132-0.147c0.829,0,1.57,0.059,2.103,0.147V273.716z"/>
	<path fill="#64AD94" d="M35.824,273.716c-0.296,0.06-1.007,0.118-1.511,0.118c-0.503,0-1.007-0.029-1.48-0.118l-9.211-12.824
		v12.824c-0.237,0.06-1.125,0.148-1.955,0.148c-0.681,0-1.481-0.089-1.896-0.148v-20.021c0.474-0.089,1.037-0.118,1.57-0.118
		c0.562,0,1.155,0.06,1.599,0.118l9.034,12.588v-12.588c0.592-0.089,1.362-0.147,1.925-0.147c0.563,0,1.392,0.059,1.925,0.147
		V273.716z"/>
	<path fill="#64AD94" d="M56.704,273.716H44.057c-0.267-0.622-0.355-1.392-0.355-2.073c0-0.355,0.03-0.8,0.089-1.096
		c2.073-2.103,4.294-4.473,6.249-6.664c1.451-1.629,2.606-3.14,2.606-4.798c0-1.451-1.007-2.28-2.784-2.28
		c-1.303,0-3.376,0.444-5.301,1.362c-0.119-0.504-0.237-1.393-0.237-2.104c0-0.354,0.059-1.065,0.178-1.54
		c1.451-0.622,3.791-1.185,6.071-1.185c3.376,0,6.338,1.57,6.338,5.213c0,3.198-1.718,5.36-5.391,9.211
		c-0.711,0.771-1.481,1.511-2.251,2.311h7.493c0.089,0.385,0.148,1.125,0.148,1.836C56.911,272.502,56.822,273.301,56.704,273.716z"
		/>
	<path fill="#64AD94" d="M65.558,274.012c-4.739,0-7.049-3.494-7.049-10.307c0-6.871,2.399-10.307,7.138-10.307
		c4.709,0,7.02,3.436,7.02,10.307C72.667,270.518,70.268,274.012,65.558,274.012z M65.588,256.863c-1.896,0-2.725,1.748-2.725,6.842
		c0,5.006,0.83,6.842,2.725,6.842s2.725-1.836,2.725-6.842C68.312,258.611,67.483,256.863,65.588,256.863z"/>
	<path fill="#64AD94" d="M84.424,273.716c-0.444,0.089-1.244,0.148-2.103,0.148c-0.83,0-1.57-0.06-2.103-0.148v-15.312l-4.206,2.784
		c-1.007-0.918-1.718-2.162-1.984-3.229l6.96-4.265c0.415-0.089,1.273-0.147,1.718-0.147c0.503,0,1.422,0.089,1.718,0.147V273.716z"
		/>
	<path fill="#64AD94" d="M93.901,274.012c-1.185,0-2.488-0.178-3.199-0.414c-0.118-0.415-0.148-1.155-0.148-1.481
		c0-0.562,0.089-1.332,0.208-1.776c0.829,0.207,1.777,0.355,2.932,0.355c2.339,0,4.146-1.984,4.324-4.857
		c-0.859,0.562-2.043,0.918-3.465,0.918c-3.851,0-5.864-2.666-5.864-6.309c0-3.851,2.606-7.049,6.782-7.049
		c5.716,0,7.138,4.502,7.138,8.915C102.608,268,100.387,274.012,93.901,274.012z M95.56,256.774c-1.54,0-2.606,1.215-2.606,3.495
		c0,2.103,0.829,3.258,2.577,3.258c0.948,0,2.192-0.503,2.725-1.066c0-0.147,0.029-0.562,0.029-0.77
		C98.284,259.559,98.106,256.774,95.56,256.774z"/>
</g>
<path fill="#333333" d="M17.245,31.476c-1.484,0-2.694,1.17-2.694,2.61v57.442c0,1.439,1.209,2.611,2.694,2.611h86.235
	c1.488,0,2.694-1.171,2.694-2.611V34.086c0-1.44-1.206-2.61-2.694-2.61H17.245z M103.48,99.361H17.245
	c-4.459,0-8.084-3.512-8.084-7.833V34.086c0-4.317,3.625-7.832,8.084-7.832h86.235c4.457,0,8.084,3.514,8.084,7.832v57.442
	C111.564,95.849,107.937,99.361,103.48,99.361"/>
<path fill="#333333" d="M60.363,44.533c-10.401,0-18.865,8.2-18.865,18.276c0,10.077,8.464,18.276,18.865,18.276
	c10.4,0,18.865-8.199,18.865-18.276C79.228,52.733,70.763,44.533,60.363,44.533 M60.363,86.308
	c-13.375,0-24.253-10.54-24.253-23.499c0-12.958,10.877-23.498,24.253-23.498c13.373,0,24.252,10.54,24.252,23.498
	C84.615,75.768,73.736,86.308,60.363,86.308"/>
<path fill="#333333" d="M60.363,75.864c-1.488,0-2.694-1.169-2.694-2.611V52.364c0-1.442,1.206-2.61,2.694-2.61
	c1.49,0,2.694,1.167,2.694,2.61v20.888C63.057,74.695,61.853,75.864,60.363,75.864"/>
<path fill="#333333" d="M71.131,65.418H49.572c-1.488,0-2.694-1.168-2.694-2.612c0-1.442,1.206-2.611,2.694-2.611h21.559
	c1.491,0,2.694,1.168,2.694,2.611C73.825,64.25,72.622,65.418,71.131,65.418"/>
<path fill="#333333" d="M84.604,31.478c-1.488,0-2.694-1.168-2.694-2.611v-5.222c0-7.197-6.044-13.053-13.475-13.053H52.266
	c-7.427,0-13.474,5.856-13.474,13.053v5.222c0,1.443-1.206,2.611-2.696,2.611c-1.488,0-2.694-1.168-2.694-2.611v-5.222
	c0-10.077,8.462-18.276,18.865-18.276h16.168c10.398,0,18.863,8.199,18.863,18.276v5.222C87.297,30.31,86.094,31.478,84.604,31.478"
	/>
<path fill="#333333" d="M73.835,31.478c-1.49,0-2.696-1.168-2.696-2.611v-5.222c0-1.44-1.207-2.611-2.697-2.611H52.274
	c-1.484,0-2.692,1.17-2.692,2.611v5.222c0,1.443-1.206,2.611-2.699,2.611c-1.488,0-2.693-1.168-2.693-2.611v-5.222
	c0-4.318,3.627-7.832,8.084-7.832h16.168c4.46,0,8.084,3.514,8.084,7.832v5.222C76.527,30.31,75.323,31.478,73.835,31.478"/>
</svg>
