<?xml version="1.0" encoding="utf-8"?>
<!-- Generator: Adobe Illustrator 16.0.0, SVG Export Plug-In . SVG Version: 6.00 Build 0)  -->
<!DOCTYPE svg PUBLIC "-//W3C//DTD SVG 1.1//EN" "http://www.w3.org/Graphics/SVG/1.1/DTD/svg11.dtd">
<svg version="1.1" id="Layer_1" xmlns="http://www.w3.org/2000/svg" xmlns:xlink="http://www.w3.org/1999/xlink" x="0px" y="0px"
	 width="300px" height="300px" viewBox="0 0 300 300" enable-background="new 0 0 300 300" xml:space="preserve">
<g>
	<path fill="#64AD94" d="M30.887,145.517H9.159c-0.25-0.548-0.499-1.844-0.499-2.791c0-0.697,0.1-1.694,0.199-2.392
		c2.841-1.047,3.937-2.791,3.937-6.08v-3.837H9.109c-0.149-0.897-0.299-2.144-0.299-2.791c0-0.897,0.1-1.943,0.299-2.791h3.688
		v-2.541c0-6.729,3.937-10.964,11.163-10.964c2.642,0,5.432,0.548,7.027,1.196c0.149,0.498,0.249,1.744,0.249,2.292
		c0,0.897-0.149,2.292-0.349,3.289c-1.545-0.598-4.037-1.047-6.13-1.047c-3.438,0-4.834,1.694-4.834,5.283v2.491h7.376
		c0.199,0.848,0.299,1.894,0.299,2.791c0,0.647-0.1,1.943-0.299,2.791h-7.376v3.588c0,2.342-0.847,4.386-3.04,5.831v0.05h13.954
		c0.199,0.697,0.299,1.993,0.299,2.891C31.136,143.573,31.036,144.72,30.887,145.517z"/>
	<path fill="#64AD94" d="M55.558,145.517h-21.28c-0.448-1.046-0.598-2.342-0.598-3.488c0-0.598,0.05-1.346,0.149-1.844
		c3.488-3.538,7.226-7.525,10.515-11.213c2.442-2.741,4.386-5.282,4.386-8.073c0-2.442-1.695-3.838-4.685-3.838
		c-2.193,0-5.681,0.748-8.92,2.293c-0.2-0.848-0.399-2.343-0.399-3.538c0-0.599,0.1-1.795,0.299-2.592
		c2.442-1.047,6.379-1.993,10.216-1.993c5.681,0,10.665,2.641,10.665,8.771c0,5.383-2.891,9.021-9.07,15.499
		c-1.196,1.296-2.492,2.542-3.787,3.887h12.608c0.15,0.648,0.25,1.895,0.25,3.09C55.907,143.474,55.757,144.819,55.558,145.517z"/>
	<path fill="#64AD94" d="M71.06,146.016c-9.07,0-12.559-6.379-12.559-15.798c0-10.615,3.937-18.888,14.951-18.888
		c1.894,0,4.535,0.299,5.631,0.697c0.199,0.698,0.249,1.844,0.249,2.393c0,0.946-0.1,2.242-0.349,2.94
		c-1.296-0.2-3.189-0.35-4.635-0.35c-4.834,0-7.725,2.94-8.272,8.373c1.544-0.997,4.186-1.845,6.628-1.845
		c5.98,0,9.768,4.485,9.768,10.516C82.472,140.782,78.037,146.016,71.06,146.016z M71.11,129.071c-2.143,0-4.286,0.896-5.333,1.894
		c-0.05,0.498-0.05,1.146-0.05,1.894c0,3.09,1.097,7.476,5.133,7.476c2.791,0,4.236-2.642,4.236-5.931
		C75.097,131.164,73.801,129.071,71.11,129.071z"/>
	<path fill="#64AD94" d="M94.086,146.016c-3.239,0-7.126-0.449-9.519-1.645c-0.149-0.499-0.249-1.595-0.249-2.243
		c0-1.047,0.149-2.342,0.398-3.389c2.691,1.047,5.831,1.595,8.323,1.595c4.086,0,6.379-1.894,6.379-5.033
		c0-3.389-2.043-4.734-5.831-4.734h-2.741c-0.149-0.548-0.299-1.645-0.299-2.841c0-0.997,0.2-2.192,0.349-2.642h2.591
		c3.438,0,5.033-1.844,5.033-4.435c0-2.442-1.794-3.639-4.634-3.639c-2.542,0-5.532,0.648-8.023,1.694
		c-0.25-0.847-0.449-2.242-0.449-3.339c0-0.747,0.1-1.894,0.249-2.342c2.143-0.947,6.08-1.694,9.419-1.694
		c5.831,0,10.715,2.891,10.715,8.82c0,3.289-1.495,6.03-4.336,7.326v0.1c3.289,1.246,5.283,4.236,5.283,7.675
		C106.745,142.377,100.964,146.016,94.086,146.016z"/>
	<path fill="#64AD94" d="M154.689,145.517c-0.598,0.149-1.943,0.249-3.339,0.249c-1.495,0-2.89-0.149-3.488-0.249l-0.598-20.232
		l-7.375,17.043c-0.548,0.199-1.744,0.299-2.492,0.299c-0.897,0-1.994-0.1-2.542-0.249l-7.376-17.093l-0.647,20.232
		c-0.648,0.149-2.193,0.249-3.539,0.249c-0.797,0-2.143-0.1-3.04-0.249l1.445-33.688c0.947-0.1,1.894-0.249,2.891-0.249
		c1.196,0,2.342,0.1,2.94,0.249l9.868,22.874l9.917-22.874c0.997-0.149,1.994-0.249,2.891-0.249c1.146,0,2.193,0.1,2.94,0.249
		L154.689,145.517z"/>
	<path fill="#64AD94" d="M167.055,145.517c-0.947,0.149-2.093,0.249-3.588,0.249c-1.346,0-2.592-0.1-3.539-0.249v-33.688
		c0.947-0.149,2.343-0.249,3.589-0.249c1.396,0,2.641,0.1,3.538,0.249V145.517z"/>
	<path fill="#64AD94" d="M193.269,145.517h-20.632v-33.688c0.947-0.149,2.243-0.249,3.489-0.249c1.395,0,2.74,0.1,3.638,0.249
		v27.608h13.505c0.199,0.549,0.349,1.595,0.349,2.99C193.617,143.523,193.518,144.471,193.269,145.517z"/>
	<path fill="#64AD94" d="M217.541,145.517h-20.632v-33.688c0.947-0.149,2.243-0.249,3.489-0.249c1.395,0,2.74,0.1,3.638,0.249
		v27.608h13.505c0.199,0.549,0.35,1.595,0.35,2.99C217.891,143.523,217.79,144.471,217.541,145.517z"/>
	<path fill="#64AD94" d="M228.408,145.517c-0.947,0.149-2.093,0.249-3.588,0.249c-1.346,0-2.592-0.1-3.539-0.249v-33.688
		c0.947-0.149,2.343-0.249,3.589-0.249c1.396,0,2.641,0.1,3.538,0.249V145.517z"/>
	<path fill="#64AD94" d="M246.55,146.016c-9.22,0-14.104-6.379-14.104-17.343s4.884-17.343,14.104-17.343
		s14.104,6.379,14.104,17.343S255.77,146.016,246.55,146.016z M246.55,117.46c-4.285,0-6.728,3.289-6.728,11.213
		s2.442,11.213,6.728,11.213c4.286,0,6.728-3.289,6.728-11.213S250.836,117.46,246.55,117.46z"/>
	<path fill="#64AD94" d="M291.654,145.517c-0.498,0.1-1.694,0.199-2.541,0.199c-0.848,0-1.694-0.05-2.492-0.199l-15.499-21.578
		v21.578c-0.398,0.1-1.894,0.249-3.289,0.249c-1.146,0-2.491-0.149-3.189-0.249v-33.688c0.798-0.149,1.744-0.199,2.642-0.199
		c0.947,0,1.943,0.1,2.691,0.199l15.199,21.18v-21.18c0.997-0.149,2.293-0.249,3.239-0.249c0.947,0,2.343,0.1,3.239,0.249V145.517z"
		/>
</g>
<g>
	<path fill="#333333" d="M8.256,158.136c-0.472,0-0.862-0.41-0.862-0.902c0-0.493,0.39-0.883,0.862-0.883
		c0.472,0,0.883,0.39,0.883,0.883C9.139,157.726,8.728,158.136,8.256,158.136z M8.933,170.922c-0.185,0.062-0.451,0.103-0.677,0.103
		c-0.226,0-0.472-0.041-0.657-0.103v-10.692c0.165-0.041,0.431-0.103,0.636-0.103c0.226,0,0.534,0.041,0.698,0.103V170.922z"/>
	<path fill="#333333" d="M19.934,170.942c-0.165,0.041-0.411,0.082-0.657,0.082c-0.206,0-0.472-0.041-0.677-0.103v-6.506
		c0-0.985-0.124-1.744-0.411-2.278c-0.349-0.656-1.006-0.984-2.073-0.984c-1.026,0-2.258,0.574-3.058,1.189v8.579
		c-0.226,0.062-0.452,0.103-0.698,0.103c-0.205,0-0.452-0.041-0.636-0.103v-10.692c0.144-0.062,0.39-0.082,0.534-0.082
		c0.205,0,0.452,0.021,0.575,0.082l0.103,1.067h0.021c1.129-0.924,2.422-1.272,3.468-1.272c1.047,0,2.135,0.349,2.729,1.067
		c0.657,0.779,0.78,1.908,0.78,3.017V170.942z"/>
	<path fill="#333333" d="M29.824,162.836l-3.222,8.086c-0.185,0.062-0.39,0.103-0.554,0.103c-0.226,0-0.41-0.041-0.574-0.103
		l-3.325-8.086c-0.369-0.924-0.533-1.848-0.533-2.606c0.164-0.041,0.451-0.103,0.636-0.103c0.246,0,0.492,0.041,0.698,0.103
		c0.021,0.697,0.103,1.498,0.41,2.237l2.668,6.772h0.041l2.586-6.772c0.288-0.719,0.431-1.52,0.431-2.237
		c0.144-0.062,0.452-0.103,0.718-0.103c0.144,0,0.411,0.021,0.595,0.082C30.378,160.947,30.235,161.83,29.824,162.836z"/>
	<path fill="#333333" d="M39.674,165.935h-6.875c0.082,2.36,1.19,4.146,3.756,4.146c0.923,0,1.786-0.123,2.545-0.308
		c0.041,0.103,0.082,0.308,0.082,0.431c0,0.206-0.041,0.391-0.103,0.534c-0.8,0.246-1.806,0.39-2.647,0.39
		c-1.622,0-2.853-0.513-3.612-1.334c-0.903-0.985-1.375-2.463-1.375-4.166c0-2.976,1.498-5.603,4.495-5.603
		c2.688,0,3.756,2.216,3.756,4.925C39.695,165.258,39.695,165.627,39.674,165.935z M38.361,164.949c0-1.888-0.206-3.92-2.483-3.92
		c-1.991,0-2.956,1.827-3.079,3.92H38.361z"/>
	<path fill="#333333" d="M44.209,171.127c-1.026,0-2.093-0.185-2.833-0.472c-0.062-0.144-0.103-0.39-0.103-0.575
		c0-0.123,0.041-0.431,0.082-0.554c0.76,0.308,1.847,0.554,2.75,0.554c1.56,0,2.524-0.656,2.524-1.949
		c0-1.17-0.595-1.58-2.216-2.176c-2.257-0.82-2.996-1.765-2.996-3.16c0-1.889,1.56-2.771,3.571-2.771
		c0.677,0,1.56,0.123,2.073,0.287c0.062,0.185,0.082,0.369,0.082,0.492c0,0.164-0.041,0.452-0.082,0.596
		c-0.677-0.205-1.396-0.329-2.093-0.329c-1.457,0-2.34,0.555-2.34,1.684c0,0.985,0.554,1.457,2.237,2.093
		c1.539,0.575,2.955,1.149,2.955,3.223C47.821,170.162,46.241,171.127,44.209,171.127z"/>
	<path fill="#333333" d="M55.414,170.819c-0.534,0.185-1.334,0.308-1.929,0.308c-2.032,0-2.997-0.965-2.997-3.242v-6.608h-1.847
		c-0.041-0.103-0.062-0.35-0.062-0.473c0-0.103,0.021-0.349,0.062-0.451l1.847-0.123v-2.791c0.165-0.062,0.431-0.103,0.657-0.103
		c0.226,0,0.513,0.041,0.677,0.103v2.791h3.017c0.041,0.103,0.082,0.41,0.082,0.513c0,0.144-0.041,0.391-0.082,0.534h-3.017v6.485
		c0,1.621,0.472,2.298,1.745,2.298c0.698,0,1.375-0.103,1.847-0.246c0.041,0.103,0.082,0.349,0.082,0.493
		C55.496,170.491,55.475,170.635,55.414,170.819z"/>
	<path fill="#333333" d="M72.18,170.942c-0.206,0.041-0.411,0.082-0.616,0.082c-0.247,0-0.472-0.062-0.718-0.103v-6.485
		c0-2.258-0.575-3.283-2.483-3.283c-0.985,0-2.299,0.513-3.12,1.107c0.164,0.575,0.205,1.211,0.205,1.848v6.813
		c-0.205,0.062-0.41,0.103-0.615,0.103c-0.267,0-0.513-0.041-0.719-0.103v-6.485c0-2.258-0.513-3.283-2.421-3.283
		c-1.026,0-2.237,0.574-3.038,1.189v8.579c-0.226,0.062-0.493,0.103-0.739,0.103c-0.205,0-0.431-0.041-0.595-0.103v-10.692
		c0.103-0.041,0.329-0.082,0.554-0.082c0.185,0,0.411,0.041,0.554,0.082l0.103,1.067h0.021c1.129-0.924,2.422-1.272,3.468-1.272
		c1.047,0,2.052,0.349,2.647,1.067c0.082,0.082,0.144,0.185,0.206,0.287c1.087-0.883,2.483-1.354,3.817-1.354
		c1.047,0,2.114,0.349,2.709,1.067c0.657,0.779,0.78,1.908,0.78,3.017V170.942z"/>
	<path fill="#333333" d="M82.46,165.935h-6.875c0.082,2.36,1.19,4.146,3.756,4.146c0.923,0,1.786-0.123,2.545-0.308
		c0.041,0.103,0.082,0.308,0.082,0.431c0,0.206-0.041,0.391-0.103,0.534c-0.8,0.246-1.806,0.39-2.647,0.39
		c-1.622,0-2.853-0.513-3.612-1.334c-0.903-0.985-1.375-2.463-1.375-4.166c0-2.976,1.498-5.603,4.495-5.603
		c2.688,0,3.756,2.216,3.756,4.925C82.481,165.258,82.481,165.627,82.46,165.935z M81.147,164.949c0-1.888-0.206-3.92-2.483-3.92
		c-1.991,0-2.956,1.827-3.079,3.92H81.147z"/>
	<path fill="#333333" d="M92.844,170.942c-0.165,0.041-0.411,0.082-0.657,0.082c-0.206,0-0.472-0.041-0.677-0.103v-6.506
		c0-0.985-0.124-1.744-0.411-2.278c-0.349-0.656-1.006-0.984-2.073-0.984c-1.026,0-2.258,0.574-3.058,1.189v8.579
		c-0.226,0.062-0.452,0.103-0.698,0.103c-0.205,0-0.452-0.041-0.636-0.103v-10.692c0.144-0.062,0.39-0.082,0.534-0.082
		c0.205,0,0.452,0.021,0.575,0.082l0.103,1.067h0.021c1.129-0.924,2.422-1.272,3.468-1.272c1.047,0,2.135,0.349,2.729,1.067
		c0.657,0.779,0.78,1.908,0.78,3.017V170.942z"/>
	<path fill="#333333" d="M101.175,170.819c-0.534,0.185-1.334,0.308-1.929,0.308c-2.032,0-2.997-0.965-2.997-3.242v-6.608h-1.847
		c-0.041-0.103-0.062-0.35-0.062-0.473c0-0.103,0.021-0.349,0.062-0.451l1.847-0.123v-2.791c0.165-0.062,0.431-0.103,0.657-0.103
		c0.226,0,0.513,0.041,0.677,0.103v2.791h3.017c0.041,0.103,0.082,0.41,0.082,0.513c0,0.144-0.041,0.391-0.082,0.534h-3.017v6.485
		c0,1.621,0.472,2.298,1.745,2.298c0.698,0,1.375-0.103,1.847-0.246c0.041,0.103,0.082,0.349,0.082,0.493
		C101.257,170.491,101.237,170.635,101.175,170.819z"/>
	<path fill="#333333" d="M108.254,158.136c-0.472,0-0.862-0.41-0.862-0.902c0-0.493,0.39-0.883,0.862-0.883
		c0.472,0,0.883,0.39,0.883,0.883C109.137,157.726,108.726,158.136,108.254,158.136z M108.931,170.922
		c-0.185,0.062-0.451,0.103-0.677,0.103c-0.226,0-0.472-0.041-0.657-0.103v-10.692c0.165-0.041,0.431-0.103,0.636-0.103
		c0.226,0,0.534,0.041,0.698,0.103V170.922z"/>
	<path fill="#333333" d="M119.932,170.942c-0.165,0.041-0.411,0.082-0.657,0.082c-0.206,0-0.472-0.041-0.677-0.103v-6.506
		c0-0.985-0.124-1.744-0.411-2.278c-0.349-0.656-1.006-0.984-2.073-0.984c-1.026,0-2.258,0.574-3.058,1.189v8.579
		c-0.226,0.062-0.452,0.103-0.698,0.103c-0.205,0-0.452-0.041-0.636-0.103v-10.692c0.144-0.062,0.39-0.082,0.534-0.082
		c0.205,0,0.452,0.021,0.575,0.082l0.103,1.067h0.021c1.129-0.924,2.422-1.272,3.468-1.272c1.047,0,2.135,0.349,2.729,1.067
		c0.657,0.779,0.78,1.908,0.78,3.017V170.942z"/>
	<path fill="#333333" d="M130.827,171.127c-2.688,0-4.413-1.847-4.413-5.541s1.745-5.562,4.433-5.562s4.392,1.826,4.392,5.521
		S133.516,171.127,130.827,171.127z M130.848,161.029c-1.97,0-3.038,1.52-3.038,4.536s1.047,4.556,3.017,4.556
		s3.017-1.539,3.017-4.556S132.818,161.029,130.848,161.029z"/>
	<path fill="#333333" d="M145.233,166.858c0,3.119-1.293,4.269-4.002,4.269c-2.771,0-3.94-1.149-3.94-4.166v-6.731
		c0.185-0.062,0.431-0.103,0.657-0.103c0.287,0,0.513,0.062,0.677,0.103v6.567c0,1.99,0.308,3.304,2.627,3.304
		c2.175,0,2.647-1.272,2.647-3.345v-6.526c0.164-0.062,0.452-0.103,0.677-0.103s0.472,0.041,0.657,0.103V166.858z"/>
	<path fill="#333333" d="M152.662,161.215c-1.19,0.164-2.483,0.595-3.448,1.334v8.373c-0.205,0.062-0.452,0.103-0.677,0.103
		s-0.452-0.041-0.657-0.103v-10.692c0.123-0.041,0.308-0.082,0.513-0.082c0.164,0,0.39,0.041,0.554,0.082l0.103,1.313h0.021
		c0.882-0.76,2.422-1.396,3.592-1.519c0.041,0.123,0.082,0.349,0.082,0.533C152.744,160.763,152.703,161.029,152.662,161.215z"/>
	<path fill="#333333" d="M161.465,171.127c-1.026,0-2.094-0.185-2.832-0.472c-0.062-0.144-0.103-0.39-0.103-0.575
		c0-0.123,0.041-0.431,0.082-0.554c0.759,0.308,1.847,0.554,2.75,0.554c1.56,0,2.524-0.656,2.524-1.949
		c0-1.17-0.596-1.58-2.217-2.176c-2.258-0.82-2.996-1.765-2.996-3.16c0-1.889,1.56-2.771,3.57-2.771
		c0.678,0,1.561,0.123,2.073,0.287c0.062,0.185,0.082,0.369,0.082,0.492c0,0.164-0.041,0.452-0.082,0.596
		c-0.677-0.205-1.396-0.329-2.094-0.329c-1.457,0-2.339,0.555-2.339,1.684c0,0.985,0.554,1.457,2.236,2.093
		c1.54,0.575,2.956,1.149,2.956,3.223C165.077,170.162,163.496,171.127,161.465,171.127z"/>
	<path fill="#333333" d="M172.648,170.819c-0.533,0.185-1.334,0.308-1.929,0.308c-2.032,0-2.996-0.965-2.996-3.242v-6.608h-1.848
		c-0.041-0.103-0.062-0.35-0.062-0.473c0-0.103,0.021-0.349,0.062-0.451l1.848-0.123v-2.791c0.164-0.062,0.431-0.103,0.656-0.103
		s0.514,0.041,0.678,0.103v2.791h3.017c0.041,0.103,0.082,0.41,0.082,0.513c0,0.144-0.041,0.391-0.082,0.534h-3.017v6.485
		c0,1.621,0.472,2.298,1.744,2.298c0.698,0,1.375-0.103,1.847-0.246c0.041,0.103,0.082,0.349,0.082,0.493
		C172.73,170.491,172.71,170.635,172.648,170.819z"/>
	<path fill="#333333" d="M181.658,168.295c0,0.739,0,1.662,0.041,2.627c-0.144,0.062-0.37,0.103-0.555,0.103
		c-0.164,0-0.39-0.041-0.554-0.103c-0.062-0.328-0.103-0.76-0.123-1.149h-0.021c-0.698,0.862-1.93,1.354-3.141,1.354
		c-1.908,0-3.509-1.067-3.509-3.263c0-1.252,0.513-2.176,1.313-2.75c0.902-0.637,2.093-0.842,3.365-0.842
		c0.719,0,1.313,0.041,1.848,0.123v-0.595c0-2.053-0.842-2.73-2.565-2.73c-0.965,0-2.155,0.206-2.895,0.391
		c-0.041-0.103-0.082-0.328-0.082-0.534c0-0.144,0.041-0.349,0.103-0.472c0.883-0.267,2.053-0.431,3.038-0.431
		c2.442,0,3.735,1.108,3.735,3.611V168.295z M180.324,165.401c-0.596-0.082-1.211-0.123-1.745-0.123
		c-1.005,0-1.908,0.185-2.524,0.656c-0.554,0.411-0.861,1.067-0.861,1.909c0,1.498,0.964,2.216,2.298,2.216
		c1.108,0,2.278-0.533,2.833-1.375V165.401z"/>
	<path fill="#333333" d="M190.092,170.819c-0.533,0.185-1.334,0.308-1.929,0.308c-2.032,0-2.996-0.965-2.996-3.242v-6.608h-1.848
		c-0.041-0.103-0.062-0.35-0.062-0.473c0-0.103,0.021-0.349,0.062-0.451l1.848-0.123v-2.791c0.164-0.062,0.431-0.103,0.656-0.103
		s0.514,0.041,0.678,0.103v2.791h3.017c0.041,0.103,0.082,0.41,0.082,0.513c0,0.144-0.041,0.391-0.082,0.534h-3.017v6.485
		c0,1.621,0.472,2.298,1.744,2.298c0.698,0,1.375-0.103,1.847-0.246c0.041,0.103,0.082,0.349,0.082,0.493
		C190.174,170.491,190.153,170.635,190.092,170.819z"/>
	<path fill="#333333" d="M199.121,165.935h-6.875c0.082,2.36,1.19,4.146,3.756,4.146c0.923,0,1.785-0.123,2.544-0.308
		c0.041,0.103,0.083,0.308,0.083,0.431c0,0.206-0.042,0.391-0.104,0.534c-0.8,0.246-1.806,0.39-2.647,0.39
		c-1.621,0-2.853-0.513-3.611-1.334c-0.903-0.985-1.375-2.463-1.375-4.166c0-2.976,1.498-5.603,4.494-5.603
		c2.688,0,3.756,2.216,3.756,4.925C199.142,165.258,199.142,165.627,199.121,165.935z M197.808,164.949
		c0-1.888-0.205-3.92-2.483-3.92c-1.991,0-2.955,1.827-3.078,3.92H197.808z"/>
	<path fill="#333333" d="M205.195,165.032c0.041,0.103,0.103,0.369,0.103,0.533s-0.041,0.39-0.103,0.554h-4.002
		c-0.062-0.164-0.103-0.39-0.103-0.554s0.062-0.431,0.103-0.533H205.195z"/>
	<path fill="#333333" d="M211.434,171.127c-2.688,0-4.412-1.847-4.412-5.541s1.744-5.562,4.433-5.562s4.392,1.826,4.392,5.521
		S214.122,171.127,211.434,171.127z M211.454,161.029c-1.971,0-3.037,1.52-3.037,4.536s1.046,4.556,3.017,4.556
		c1.97,0,3.017-1.539,3.017-4.556S213.424,161.029,211.454,161.029z"/>
	<path fill="#333333" d="M224.014,156.822c-0.309-0.082-0.862-0.164-1.293-0.164c-0.78,0-1.354,0.205-1.745,0.637
		c-0.595,0.636-0.697,1.498-0.697,2.586v0.349h2.894c0.041,0.103,0.082,0.349,0.082,0.492c0,0.164-0.041,0.411-0.082,0.555h-2.894
		v9.646c-0.185,0.062-0.39,0.103-0.657,0.103c-0.267,0-0.492-0.041-0.677-0.103v-9.646h-1.848c-0.041-0.103-0.062-0.37-0.062-0.493
		c0-0.103,0.021-0.328,0.062-0.431l1.848-0.123v-0.349c0-1.458,0.246-2.463,1.088-3.305c0.595-0.595,1.478-0.883,2.483-0.883
		c0.533,0,1.128,0.123,1.498,0.268c0.041,0.103,0.062,0.246,0.062,0.39C224.075,156.474,224.055,156.72,224.014,156.822z"/>
	<path fill="#333333" d="M227.81,165.032c0.041,0.103,0.103,0.369,0.103,0.533s-0.041,0.39-0.103,0.554h-4.002
		c-0.062-0.164-0.103-0.39-0.103-0.554s0.062-0.431,0.103-0.533H227.81z"/>
	<path fill="#333333" d="M235.524,170.819c-0.533,0.185-1.334,0.308-1.929,0.308c-2.032,0-2.996-0.965-2.996-3.242v-6.608h-1.848
		c-0.041-0.103-0.062-0.35-0.062-0.473c0-0.103,0.021-0.349,0.062-0.451l1.848-0.123v-2.791c0.164-0.062,0.431-0.103,0.656-0.103
		s0.514,0.041,0.678,0.103v2.791h3.017c0.041,0.103,0.082,0.41,0.082,0.513c0,0.144-0.041,0.391-0.082,0.534h-3.017v6.485
		c0,1.621,0.472,2.298,1.744,2.298c0.698,0,1.375-0.103,1.847-0.246c0.041,0.103,0.082,0.349,0.082,0.493
		C235.606,170.491,235.586,170.635,235.524,170.819z"/>
	<path fill="#333333" d="M245.621,170.922c-0.185,0.062-0.41,0.103-0.615,0.103c-0.246,0-0.514-0.041-0.719-0.103v-6.485
		c0-2.258-0.574-3.283-2.483-3.283c-1.025,0-2.257,0.574-3.058,1.189v8.579c-0.226,0.062-0.472,0.103-0.697,0.103
		c-0.206,0-0.452-0.041-0.637-0.103V155.94c0.185-0.062,0.472-0.103,0.657-0.103c0.185,0,0.492,0.041,0.677,0.103v5.274
		c1.088-0.842,2.381-1.19,3.387-1.19c1.046,0,2.113,0.349,2.709,1.067c0.656,0.779,0.779,1.908,0.779,3.017V170.922z"/>
	<path fill="#333333" d="M255.902,165.935h-6.875c0.082,2.36,1.19,4.146,3.756,4.146c0.923,0,1.785-0.123,2.544-0.308
		c0.041,0.103,0.083,0.308,0.083,0.431c0,0.206-0.042,0.391-0.104,0.534c-0.8,0.246-1.806,0.39-2.647,0.39
		c-1.621,0-2.853-0.513-3.611-1.334c-0.903-0.985-1.375-2.463-1.375-4.166c0-2.976,1.498-5.603,4.494-5.603
		c2.688,0,3.756,2.216,3.756,4.925C255.923,165.258,255.923,165.627,255.902,165.935z M254.589,164.949
		c0-1.888-0.205-3.92-2.483-3.92c-1.991,0-2.955,1.827-3.078,3.92H254.589z"/>
	<path fill="#333333" d="M261.977,165.032c0.041,0.103,0.103,0.369,0.103,0.533s-0.041,0.39-0.103,0.554h-4.002
		c-0.062-0.164-0.103-0.39-0.103-0.554s0.062-0.431,0.103-0.533H261.977z"/>
	<path fill="#333333" d="M271.519,168.295c0,0.739,0,1.662,0.041,2.627c-0.144,0.062-0.37,0.103-0.555,0.103
		c-0.164,0-0.39-0.041-0.554-0.103c-0.062-0.328-0.103-0.76-0.123-1.149h-0.021c-0.698,0.862-1.93,1.354-3.141,1.354
		c-1.908,0-3.509-1.067-3.509-3.263c0-1.252,0.513-2.176,1.313-2.75c0.902-0.637,2.093-0.842,3.365-0.842
		c0.719,0,1.313,0.041,1.848,0.123v-0.595c0-2.053-0.842-2.73-2.565-2.73c-0.965,0-2.155,0.206-2.895,0.391
		c-0.041-0.103-0.082-0.328-0.082-0.534c0-0.144,0.041-0.349,0.103-0.472c0.883-0.267,2.053-0.431,3.038-0.431
		c2.442,0,3.735,1.108,3.735,3.611V168.295z M270.185,165.401c-0.596-0.082-1.211-0.123-1.745-0.123
		c-1.005,0-1.908,0.185-2.524,0.656c-0.554,0.411-0.861,1.067-0.861,1.909c0,1.498,0.964,2.216,2.298,2.216
		c1.108,0,2.278-0.533,2.833-1.375V165.401z"/>
	<path fill="#333333" d="M279.05,161.215c-1.19,0.164-2.483,0.595-3.448,1.334v8.373c-0.205,0.062-0.451,0.103-0.677,0.103
		c-0.227,0-0.452-0.041-0.657-0.103v-10.692c0.123-0.041,0.308-0.082,0.513-0.082c0.165,0,0.391,0.041,0.555,0.082l0.103,1.313
		h0.021c0.883-0.76,2.422-1.396,3.592-1.519c0.041,0.123,0.082,0.349,0.082,0.533C279.132,160.763,279.091,161.029,279.05,161.215z"
		/>
	<path fill="#333333" d="M286.889,170.819c-0.533,0.185-1.334,0.308-1.929,0.308c-2.032,0-2.996-0.965-2.996-3.242v-6.608h-1.848
		c-0.041-0.103-0.062-0.35-0.062-0.473c0-0.103,0.021-0.349,0.062-0.451l1.848-0.123v-2.791c0.164-0.062,0.431-0.103,0.656-0.103
		s0.514,0.041,0.678,0.103v2.791h3.017c0.041,0.103,0.082,0.41,0.082,0.513c0,0.144-0.041,0.391-0.082,0.534h-3.017v6.485
		c0,1.621,0.472,2.298,1.744,2.298c0.698,0,1.375-0.103,1.847-0.246c0.041,0.103,0.082,0.349,0.082,0.493
		C286.971,170.491,286.95,170.635,286.889,170.819z"/>
</g>
<g>
	<path fill="#333333" d="M11.499,196.431c-1.375,0-2.504-0.041-3.632-0.103v-13.874c0.821-0.041,1.909-0.103,2.955-0.103
		c3.14,0,4.679,0.883,4.679,3.428c0,1.539-0.78,2.668-2.052,3.078c1.929,0.226,3.161,1.561,3.161,3.53
		C16.609,195.22,14.413,196.431,11.499,196.431z M10.821,183.357c-0.349,0-1.026,0.021-1.56,0.062v5.09h1.601
		c1.786,0,3.284-0.39,3.284-2.709C14.146,183.706,12.566,183.357,10.821,183.357z M14.043,190.068
		c-0.657-0.41-1.375-0.533-2.401-0.533h-2.38v5.808c0.636,0.062,1.293,0.082,2.073,0.082c2.36,0,3.797-0.902,3.797-3.017
		C15.131,191.341,14.762,190.521,14.043,190.068z"/>
	<path fill="#333333" d="M26.541,191.341h-6.875c0.082,2.36,1.19,4.146,3.756,4.146c0.923,0,1.786-0.123,2.545-0.308
		c0.041,0.103,0.082,0.308,0.082,0.431c0,0.206-0.041,0.391-0.103,0.534c-0.8,0.246-1.806,0.39-2.647,0.39
		c-1.622,0-2.853-0.513-3.612-1.334c-0.903-0.985-1.375-2.463-1.375-4.166c0-2.976,1.499-5.603,4.495-5.603
		c2.688,0,3.756,2.216,3.756,4.925C26.562,190.664,26.562,191.033,26.541,191.341z M25.228,190.355c0-1.888-0.206-3.92-2.483-3.92
		c-1.991,0-2.956,1.827-3.079,3.92H25.228z"/>
	<path fill="#333333" d="M30.09,196.328c-0.226,0.062-0.451,0.103-0.698,0.103c-0.205,0-0.452-0.041-0.636-0.103v-14.981
		c0.185-0.041,0.411-0.103,0.677-0.103c0.226,0,0.472,0.041,0.657,0.103V196.328z"/>
	<path fill="#333333" d="M38.894,182.229c-0.308-0.082-0.862-0.164-1.293-0.164c-0.78,0-1.354,0.205-1.744,0.637
		c-0.595,0.636-0.698,1.498-0.698,2.586v0.349h2.894c0.041,0.103,0.082,0.349,0.082,0.492c0,0.164-0.041,0.411-0.082,0.555h-2.894
		v9.646c-0.185,0.062-0.39,0.103-0.657,0.103c-0.267,0-0.493-0.041-0.677-0.103v-9.646h-1.847c-0.041-0.103-0.062-0.37-0.062-0.493
		c0-0.103,0.021-0.328,0.062-0.431l1.847-0.123v-0.349c0-1.458,0.246-2.463,1.087-3.305c0.595-0.595,1.478-0.883,2.483-0.883
		c0.534,0,1.129,0.123,1.498,0.268c0.041,0.103,0.062,0.246,0.062,0.39C38.956,181.88,38.935,182.126,38.894,182.229z"/>
	<path fill="#333333" d="M46.918,193.701c0,0.739,0,1.662,0.041,2.627c-0.144,0.062-0.369,0.103-0.554,0.103
		c-0.164,0-0.39-0.041-0.554-0.103c-0.062-0.328-0.103-0.76-0.124-1.149h-0.021c-0.698,0.862-1.929,1.354-3.14,1.354
		c-1.909,0-3.51-1.067-3.51-3.263c0-1.252,0.513-2.176,1.313-2.75c0.903-0.637,2.093-0.842,3.366-0.842
		c0.718,0,1.313,0.041,1.847,0.123v-0.595c0-2.053-0.841-2.73-2.565-2.73c-0.964,0-2.155,0.206-2.894,0.391
		c-0.041-0.103-0.082-0.328-0.082-0.534c0-0.144,0.041-0.349,0.103-0.472c0.882-0.267,2.052-0.431,3.038-0.431
		c2.442,0,3.735,1.108,3.735,3.611V193.701z M45.584,190.808c-0.595-0.082-1.211-0.123-1.744-0.123
		c-1.006,0-1.909,0.185-2.524,0.656c-0.554,0.411-0.862,1.067-0.862,1.909c0,1.498,0.965,2.216,2.299,2.216
		c1.108,0,2.278-0.533,2.832-1.375V190.808z"/>
	<path fill="#333333" d="M52.048,196.533c-1.026,0-2.093-0.185-2.833-0.472c-0.062-0.144-0.103-0.39-0.103-0.575
		c0-0.123,0.041-0.431,0.082-0.554c0.76,0.308,1.847,0.554,2.75,0.554c1.56,0,2.524-0.656,2.524-1.949
		c0-1.17-0.595-1.58-2.216-2.176c-2.257-0.82-2.996-1.765-2.996-3.16c0-1.889,1.56-2.771,3.571-2.771
		c0.677,0,1.56,0.123,2.073,0.287c0.062,0.185,0.082,0.369,0.082,0.492c0,0.164-0.041,0.452-0.082,0.596
		c-0.677-0.205-1.396-0.329-2.093-0.329c-1.457,0-2.34,0.555-2.34,1.684c0,0.985,0.554,1.457,2.237,2.093
		c1.539,0.575,2.955,1.149,2.955,3.223C55.66,195.568,54.08,196.533,52.048,196.533z"/>
	<path fill="#333333" d="M63.252,196.226c-0.534,0.185-1.334,0.308-1.929,0.308c-2.032,0-2.997-0.965-2.997-3.242v-6.608h-1.847
		c-0.041-0.103-0.062-0.35-0.062-0.473c0-0.103,0.021-0.349,0.062-0.451l1.847-0.123v-2.791c0.165-0.062,0.431-0.103,0.657-0.103
		c0.226,0,0.513,0.041,0.677,0.103v2.791h3.017c0.041,0.103,0.082,0.41,0.082,0.513c0,0.144-0.041,0.391-0.082,0.534h-3.017v6.485
		c0,1.621,0.472,2.298,1.745,2.298c0.698,0,1.375-0.103,1.847-0.246c0.041,0.103,0.082,0.349,0.082,0.493
		C63.334,195.897,63.314,196.041,63.252,196.226z"/>
	<path fill="#333333" d="M76.324,186.929c-0.657-0.267-1.519-0.431-2.278-0.431c-2.668,0-3.653,2.072-3.653,4.576
		c0,2.463,0.944,4.371,3.633,4.371c0.718,0,1.58-0.123,2.216-0.308c0.041,0.123,0.082,0.267,0.082,0.431
		c0,0.247-0.041,0.432-0.103,0.575c-0.595,0.246-1.56,0.39-2.319,0.39c-3.345,0-4.905-2.196-4.905-5.418
		c0-3.346,1.704-5.685,4.967-5.685c0.78,0,1.703,0.185,2.339,0.472c0.062,0.164,0.082,0.328,0.082,0.513
		C76.385,186.621,76.365,186.785,76.324,186.929z"/>
	<path fill="#333333" d="M85.743,193.701c0,0.739,0,1.662,0.041,2.627c-0.144,0.062-0.369,0.103-0.554,0.103
		c-0.164,0-0.39-0.041-0.554-0.103c-0.062-0.328-0.103-0.76-0.124-1.149h-0.021c-0.698,0.862-1.929,1.354-3.14,1.354
		c-1.909,0-3.51-1.067-3.51-3.263c0-1.252,0.513-2.176,1.313-2.75c0.903-0.637,2.093-0.842,3.366-0.842
		c0.718,0,1.313,0.041,1.847,0.123v-0.595c0-2.053-0.841-2.73-2.565-2.73c-0.964,0-2.155,0.206-2.894,0.391
		c-0.041-0.103-0.082-0.328-0.082-0.534c0-0.144,0.041-0.349,0.103-0.472c0.882-0.267,2.052-0.431,3.038-0.431
		c2.442,0,3.735,1.108,3.735,3.611V193.701z M84.409,190.808c-0.595-0.082-1.211-0.123-1.744-0.123
		c-1.006,0-1.909,0.185-2.524,0.656c-0.554,0.411-0.862,1.067-0.862,1.909c0,1.498,0.965,2.216,2.299,2.216
		c1.108,0,2.278-0.533,2.832-1.375V190.808z"/>
	<path fill="#333333" d="M103.351,196.349c-0.206,0.041-0.411,0.082-0.616,0.082c-0.247,0-0.472-0.062-0.718-0.103v-6.485
		c0-2.258-0.575-3.283-2.483-3.283c-0.985,0-2.299,0.513-3.12,1.107c0.164,0.575,0.205,1.211,0.205,1.848v6.813
		c-0.205,0.062-0.41,0.103-0.615,0.103c-0.267,0-0.513-0.041-0.719-0.103v-6.485c0-2.258-0.513-3.283-2.421-3.283
		c-1.026,0-2.237,0.574-3.038,1.189v8.579c-0.226,0.062-0.493,0.103-0.739,0.103c-0.205,0-0.431-0.041-0.595-0.103v-10.692
		c0.103-0.041,0.329-0.082,0.554-0.082c0.185,0,0.411,0.041,0.554,0.082l0.103,1.067h0.021c1.129-0.924,2.422-1.272,3.468-1.272
		c1.047,0,2.052,0.349,2.647,1.067c0.082,0.082,0.144,0.185,0.206,0.287c1.087-0.883,2.483-1.354,3.817-1.354
		c1.047,0,2.114,0.349,2.709,1.067c0.657,0.779,0.78,1.908,0.78,3.017V196.349z"/>
	<path fill="#333333" d="M112.769,195.22c-0.8,0.719-2.052,1.108-3.243,1.108c-0.841,0-1.621-0.144-2.196-0.349v5.172
		c-0.205,0.062-0.39,0.103-0.677,0.103c-0.226,0-0.493-0.041-0.657-0.103v-15.516c0.103-0.041,0.349-0.082,0.554-0.082
		s0.39,0.041,0.534,0.082l0.123,1.129h0.021c0.78-0.821,1.95-1.334,3.14-1.334c1.293,0,2.442,0.554,3.161,1.58
		c0.595,0.862,0.964,2.093,0.964,3.592C114.493,192.654,113.857,194.234,112.769,195.22z M110.225,186.519
		c-1.088,0-2.176,0.451-2.894,1.354v7.06c0.534,0.246,1.354,0.39,2.052,0.39c2.217,0,3.715-1.457,3.715-4.658
		C113.098,188.14,112.112,186.519,110.225,186.519z"/>
	<path fill="#333333" d="M124.487,192.265c0,3.119-1.293,4.269-4.002,4.269c-2.771,0-3.94-1.149-3.94-4.166v-6.731
		c0.185-0.062,0.431-0.103,0.657-0.103c0.287,0,0.513,0.062,0.677,0.103v6.567c0,1.99,0.308,3.304,2.627,3.304
		c2.175,0,2.647-1.272,2.647-3.345v-6.526c0.164-0.062,0.452-0.103,0.677-0.103s0.472,0.041,0.657,0.103V192.265z"/>
	<path fill="#333333" d="M129.514,196.533c-1.026,0-2.093-0.185-2.833-0.472c-0.062-0.144-0.103-0.39-0.103-0.575
		c0-0.123,0.041-0.431,0.082-0.554c0.76,0.308,1.847,0.554,2.75,0.554c1.56,0,2.524-0.656,2.524-1.949
		c0-1.17-0.595-1.58-2.216-2.176c-2.257-0.82-2.997-1.765-2.997-3.16c0-1.889,1.56-2.771,3.571-2.771
		c0.677,0,1.56,0.123,2.073,0.287c0.062,0.185,0.082,0.369,0.082,0.492c0,0.164-0.041,0.452-0.082,0.596
		c-0.677-0.205-1.396-0.329-2.093-0.329c-1.457,0-2.34,0.555-2.34,1.684c0,0.985,0.554,1.457,2.237,2.093
		c1.539,0.575,2.955,1.149,2.955,3.223C133.126,195.568,131.546,196.533,129.514,196.533z"/>
</g>
</svg>
