<?xml version="1.0" encoding="utf-8"?>
<!-- Generator: Adobe Illustrator 16.0.0, SVG Export Plug-In . SVG Version: 6.00 Build 0)  -->
<!DOCTYPE svg PUBLIC "-//W3C//DTD SVG 1.0//EN" "http://www.w3.org/TR/2001/REC-SVG-20010904/DTD/svg10.dtd">
<svg version="1.0" xmlns="http://www.w3.org/2000/svg" xmlns:xlink="http://www.w3.org/1999/xlink" x="0px" y="0px" width="300px"
	 height="300px" viewBox="0 0 300 300" style="enable-background:new 0 0 300 300;" xml:space="preserve">
<g id="Text" style="display:none;">
	<text transform="matrix(1 0 0 1 11.7646 91.6201)" style="display:inline;"><tspan x="0" y="0" style="fill:#837199; font-family:'FSMatthew-Bold'; font-size:41.6802;">OU</tspan><tspan x="53.059" y="0" style="fill:#837199; font-family:'FSMatthew-Bold'; font-size:41.6802;">R</tspan><tspan x="77.191" y="0" style="fill:#837199; font-family:'FSMatthew-Bold'; font-size:41.6802;"> G</tspan><tspan x="111.827" y="0" style="fill:#837199; font-family:'FSMatthew-Bold'; font-size:41.6802; letter-spacing:-1;">L</tspan><tspan x="132.291" y="0" style="fill:#837199; font-family:'FSMatthew-Bold'; font-size:41.6802;">O</tspan><tspan x="158.758" y="0" style="fill:#837199; font-family:'FSMatthew-Bold'; font-size:41.6802; letter-spacing:-1;">B</tspan><tspan x="182.182" y="0" style="fill:#837199; font-family:'FSMatthew-Bold'; font-size:41.6802;">A</tspan><tspan x="208.732" y="0" style="fill:#837199; font-family:'FSMatthew-Bold'; font-size:41.6802; letter-spacing:-2;">L</tspan><tspan x="228.613" y="0" style="fill:#837199; font-family:'FSMatthew-Bold'; font-size:41.6802;"> </tspan></text>
	<text transform="matrix(1 0 0 1 11.7646 129.8408)" style="display:inline;"><tspan x="0" y="0" style="fill:#837199; font-family:'FSMatthew-Bold'; font-size:41.6802;">AM</tspan><tspan x="60.228" y="0" style="fill:#837199; font-family:'FSMatthew-Bold'; font-size:41.6802; letter-spacing:-1;">B</tspan><tspan x="83.651" y="0" style="fill:#837199; font-family:'FSMatthew-Bold'; font-size:41.6802;">A</tspan><tspan x="110.201" y="0" style="fill:#837199; font-family:'FSMatthew-Bold'; font-size:41.6802; letter-spacing:-1;">S</tspan><tspan x="131.374" y="0" style="fill:#837199; font-family:'FSMatthew-Bold'; font-size:41.6802; letter-spacing:-1;">S</tspan><tspan x="152.381" y="0" style="fill:#837199; font-family:'FSMatthew-Bold'; font-size:41.6802;">ADO</tspan><tspan x="232.114" y="0" style="fill:#837199; font-family:'FSMatthew-Bold'; font-size:41.6802;">R</tspan><tspan x="256.247" y="0" style="fill:#837199; font-family:'FSMatthew-Bold'; font-size:41.6802;">S </tspan></text>
	<text transform="matrix(1 0 0 1 11.7646 168.0615)" style="display:inline;"><tspan x="0" y="0" style="fill:#837199; font-family:'FSMatthew-Bold'; font-size:41.6802;">SCH</tspan><tspan x="72.313" y="0" style="fill:#837199; font-family:'FSMatthew-Bold'; font-size:41.6802;">E</tspan><tspan x="94.112" y="0" style="fill:#837199; font-family:'FSMatthew-Bold'; font-size:41.6802;">M</tspan><tspan x="127.79" y="0" style="fill:#837199; font-family:'FSMatthew-Bold'; font-size:41.6802;">E</tspan></text>
	
		<text transform="matrix(1 0 0 1 162.0195 168.0342)" style="display:inline;fill:#9786A9; font-family:'FSMatthew-Light'; font-size:15.6301;"> </text>
	<text transform="matrix(1 0 0 1 11.7646 190.6104)" style="display:inline;"><tspan x="0" y="0" style="fill:#58595B; font-family:'FSMatthew-Light'; font-size:19.1034;">helps </tspan><tspan x="45.063" y="0" style="fill:#58595B; font-family:'FSMatthew-Light'; font-size:19.1034;">s</tspan><tspan x="52.514" y="0" style="fill:#58595B; font-family:'FSMatthew-Light'; font-size:19.1034;">t</tspan><tspan x="59.372" y="0" style="fill:#58595B; font-family:'FSMatthew-Light'; font-size:19.1034;">udents de</tspan><tspan x="136.777" y="0" style="fill:#58595B; font-family:'FSMatthew-Light'; font-size:19.1034;">v</tspan><tspan x="145.68" y="0" style="fill:#58595B; font-family:'FSMatthew-Light'; font-size:19.1034;">elop a global </tspan></text>
	<text transform="matrix(1 0 0 1 11.7646 213.1904)" style="display:inline;"><tspan x="0" y="0" style="fill:#58595B; font-family:'FSMatthew-Light'; font-size:19.1034;">perspe</tspan><tspan x="52.305" y="0" style="fill:#58595B; font-family:'FSMatthew-Light'; font-size:19.1034;">c</tspan><tspan x="60.729" y="0" style="fill:#58595B; font-family:'FSMatthew-Light'; font-size:19.1034;">ti</tspan><tspan x="71.866" y="0" style="fill:#58595B; font-family:'FSMatthew-Light'; font-size:19.1034;">v</tspan><tspan x="80.768" y="0" style="fill:#58595B; font-family:'FSMatthew-Light'; font-size:19.1034;">e and deepen their </tspan></text>
	<text transform="matrix(1 0 0 1 11.7646 235.7695)" style="display:inline;"><tspan x="0" y="0" style="fill:#58595B; font-family:'FSMatthew-Light'; font-size:19.1034;">under</tspan><tspan x="45.638" y="0" style="fill:#58595B; font-family:'FSMatthew-Light'; font-size:19.1034;">s</tspan><tspan x="53.088" y="0" style="fill:#58595B; font-family:'FSMatthew-Light'; font-size:19.1034;">t</tspan><tspan x="60.041" y="0" style="fill:#58595B; font-family:'FSMatthew-Light'; font-size:19.1034;">an</tspan><tspan x="79.66" y="0" style="fill:#58595B; font-family:'FSMatthew-Light'; font-size:19.1034;">d</tspan><tspan x="90.205" y="0" style="fill:#58595B; font-family:'FSMatthew-Light'; font-size:19.1034;">ing of </tspan><tspan x="139.396" y="0" style="fill:#58595B; font-family:'FSMatthew-Light'; font-size:19.1034;">d</tspan><tspan x="149.959" y="0" style="fill:#58595B; font-family:'FSMatthew-Light'; font-size:19.1034;">i</tspan><tspan x="153.952" y="0" style="fill:#58595B; font-family:'FSMatthew-Light'; font-size:19.1034;">v</tspan><tspan x="162.854" y="0" style="fill:#58595B; font-family:'FSMatthew-Light'; font-size:19.1034;">ersi</tspan><tspan x="190.038" y="0" style="fill:#58595B; font-family:'FSMatthew-Light'; font-size:19.1034;">t</tspan><tspan x="196.8" y="0" style="fill:#58595B; font-family:'FSMatthew-Light'; font-size:19.1034;">y</tspan></text>
</g>
<g id="Layer_2">
	<g>
		<path style="fill:#837199;" d="M25.396,92.037c-7.713,0-11.798-5.336-11.798-14.507c0-9.171,4.085-14.507,11.798-14.507
			c7.712,0,11.797,5.336,11.797,14.507C37.193,86.701,33.108,92.037,25.396,92.037z M25.396,68.15c-3.586,0-5.628,2.751-5.628,9.379
			c0,6.628,2.042,9.38,5.628,9.38c3.585,0,5.627-2.751,5.627-9.38C31.023,70.902,28.981,68.15,25.396,68.15z"/>
		<path style="fill:#837199;" d="M62.618,80.907c0,7.17-2.751,11.13-10.755,11.13c-8.088,0-10.631-3.96-10.631-11.13V63.439
			c0.834-0.125,1.918-0.208,2.918-0.208c1.168,0,2.21,0.083,3.044,0.208v17.884c0,3.835,1.083,6.003,4.71,6.003
			s4.878-2.167,4.878-6.003V63.439c0.75-0.125,2.001-0.208,2.96-0.208c0.917,0,2.167,0.083,2.876,0.208V80.907z"/>
		<path style="fill:#837199;" d="M88.71,91.579c-1.084,0.167-2.21,0.25-3.502,0.25c-1.167,0-2.335-0.042-3.127-0.208L76.37,81.49
			h-2.459v10.13c-1.043,0.167-1.918,0.208-3.044,0.208c-1,0-1.875-0.042-2.918-0.208V63.439c1.918-0.125,5.92-0.208,8.338-0.208
			c7.087,0,10.63,2.501,10.63,9.004c0,3.46-2.084,6.92-5.002,8.17L88.71,91.579z M76.662,68.108c-0.917,0-2.043,0.042-2.751,0.083
			v8.337h2.084c3.418,0,4.919-1.25,4.919-4.335C80.914,69.109,79.413,68.108,76.662,68.108z"/>
		<path style="fill:#837199;" d="M121.887,90.536c-2.168,0.959-5.711,1.501-9.005,1.501c-9.379,0-13.506-6.003-13.506-14.215
			c0-8.587,5.085-14.799,14.132-14.799c2.584,0,5.544,0.542,7.295,1.292c0.125,0.667,0.208,1.667,0.208,2.126
			c0,0.917-0.166,1.917-0.333,2.542c-1.793-0.583-4.377-0.958-6.754-0.958c-6.003,0-8.379,4.377-8.379,9.713
			c0,5.669,2.502,9.296,7.546,9.296c1.125,0,2.209-0.083,2.834-0.25V77.78c0.793-0.125,1.876-0.208,2.919-0.208
			c1.167,0,2.292,0.083,3.043,0.208V90.536z"/>
		<path style="fill:#837199;" d="M143.977,91.62h-17.259V63.439c0.792-0.125,1.876-0.208,2.918-0.208
			c1.168,0,2.293,0.083,3.044,0.208v23.095h11.297c0.167,0.458,0.292,1.334,0.292,2.501
			C144.269,89.953,144.185,90.745,143.977,91.62z"/>
		<path style="fill:#837199;" d="M157.688,92.037c-7.712,0-11.797-5.336-11.797-14.507c0-9.171,4.085-14.507,11.797-14.507
			c7.713,0,11.798,5.336,11.798,14.507C169.485,86.701,165.4,92.037,157.688,92.037z M157.688,68.15
			c-3.585,0-5.627,2.751-5.627,9.379c0,6.628,2.042,9.38,5.627,9.38s5.628-2.751,5.628-9.38
			C163.315,70.902,161.272,68.15,157.688,68.15z"/>
		<path style="fill:#837199;" d="M182.445,91.829c-2.96,0-5.837-0.083-8.796-0.25V63.481c2.417-0.167,5.627-0.25,7.795-0.25
			c6.42,0,10.339,1.959,10.339,7.253c0,2.668-1.126,4.669-3.752,5.836c3.502,0.834,5.753,3.377,5.753,6.795
			C193.784,89.619,189.073,91.829,182.445,91.829z M181.861,68.15c-0.75,0-1.584,0.042-2.251,0.083v6.336h2.334
			c2.71,0,4.002-0.875,4.002-3.418C185.946,68.525,183.904,68.15,181.861,68.15z M182.528,79.239h-2.918v7.587
			c0.792,0.042,1.959,0.083,2.751,0.083c3.71,0,5.503-1.042,5.503-3.835C187.864,80.198,186.322,79.239,182.528,79.239z"/>
		<path style="fill:#837199;" d="M220.709,91.62c-0.542,0.125-1.834,0.208-3.21,0.208c-1.083,0-2.334-0.125-2.876-0.208
			l-2.084-5.711h-10.005l-1.96,5.711c-0.917,0.125-2.001,0.208-3.085,0.208c-1.083,0-2.334-0.083-2.959-0.208l9.838-28.181
			c0.583-0.125,1.959-0.208,2.876-0.208c1.126,0,2.46,0.083,2.918,0.208L220.709,91.62z M210.746,80.948l-2.459-7.962
			c-0.292-0.917-0.584-2.084-0.834-3.376h-0.084c-0.208,1.292-0.542,2.459-0.833,3.376l-2.335,7.962H210.746z"/>
		<path style="fill:#837199;" d="M240.882,91.62h-17.258V63.439c0.792-0.125,1.876-0.208,2.918-0.208
			c1.167,0,2.292,0.083,3.043,0.208v23.095h11.297c0.167,0.458,0.292,1.334,0.292,2.501
			C241.174,89.953,241.091,90.745,240.882,91.62z"/>
	</g>
	<g>
		<path style="fill:#837199;" d="M38.527,129.841c-0.542,0.125-1.834,0.208-3.21,0.208c-1.084,0-2.334-0.125-2.876-0.208
			l-2.085-5.711H20.352l-1.959,5.711c-0.917,0.125-2.001,0.208-3.085,0.208s-2.334-0.083-2.96-0.208l9.839-28.181
			c0.583-0.125,1.959-0.208,2.876-0.208c1.126,0,2.46,0.083,2.918,0.208L38.527,129.841z M28.564,119.169l-2.46-7.962
			c-0.292-0.917-0.583-2.084-0.833-3.376h-0.084c-0.208,1.292-0.542,2.459-0.834,3.376l-2.334,7.962H28.564z"/>
		<path style="fill:#837199;" d="M69.955,129.841c-0.501,0.125-1.626,0.208-2.793,0.208c-1.251,0-2.418-0.125-2.919-0.208
			l-0.5-16.925l-6.17,14.257c-0.458,0.167-1.459,0.25-2.084,0.25c-0.75,0-1.667-0.083-2.126-0.208l-6.17-14.298l-0.542,16.925
			c-0.542,0.125-1.834,0.208-2.96,0.208c-0.667,0-1.792-0.083-2.542-0.208l1.208-28.181c0.793-0.083,1.585-0.208,2.418-0.208
			c1.001,0,1.96,0.083,2.46,0.208l8.254,19.135l8.296-19.135c0.834-0.125,1.667-0.208,2.418-0.208c0.959,0,1.834,0.083,2.459,0.208
			L69.955,129.841z"/>
		<path style="fill:#837199;" d="M83.914,130.049c-2.959,0-5.836-0.083-8.796-0.25v-28.097c2.418-0.167,5.628-0.25,7.796-0.25
			c6.42,0,10.338,1.959,10.338,7.253c0,2.668-1.125,4.669-3.751,5.836c3.501,0.834,5.752,3.377,5.752,6.795
			C95.253,127.84,90.543,130.049,83.914,130.049z M83.331,106.371c-0.751,0-1.584,0.042-2.251,0.083v6.336h2.334
			c2.71,0,4.002-0.875,4.002-3.418C87.416,106.746,85.373,106.371,83.331,106.371z M83.998,117.46H81.08v7.587
			c0.792,0.042,1.959,0.083,2.751,0.083c3.71,0,5.503-1.042,5.503-3.835C89.334,118.418,87.791,117.46,83.998,117.46z"/>
		<path style="fill:#837199;" d="M122.179,129.841c-0.542,0.125-1.834,0.208-3.21,0.208c-1.084,0-2.334-0.125-2.876-0.208
			l-2.085-5.711h-10.005l-1.959,5.711c-0.917,0.125-2.001,0.208-3.085,0.208s-2.334-0.083-2.96-0.208l9.839-28.181
			c0.583-0.125,1.959-0.208,2.876-0.208c1.126,0,2.46,0.083,2.918,0.208L122.179,129.841z M112.216,119.169l-2.46-7.962
			c-0.292-0.917-0.583-2.084-0.833-3.376h-0.084c-0.208,1.292-0.542,2.459-0.834,3.376l-2.334,7.962H112.216z"/>
		<path style="fill:#837199;" d="M132.763,130.258c-3.043,0-6.378-0.584-8.755-1.667c-0.125-0.583-0.208-1.334-0.208-2.001
			c0-1,0.125-1.959,0.417-3.085c2.459,1,5.711,1.626,8.254,1.626c2.96,0,4.544-1.376,4.544-3.252c0-2.084-1.334-2.959-5.378-4.21
			c-4.502-1.375-7.795-3.543-7.795-8.379c0-5.169,4.46-8.045,10.338-8.045c2.71,0,5.128,0.417,6.754,0.958
			c0.125,0.459,0.208,1.209,0.208,2.293c0,0.792-0.083,2.001-0.25,2.668c-2.084-0.542-4.461-0.834-6.378-0.834
			c-3.127,0-4.836,1.042-4.836,2.71c0,1.959,1.542,2.751,5.294,3.918c4.503,1.417,7.838,3.543,7.838,8.546
			C142.81,126.964,138.516,130.258,132.763,130.258z"/>
		<path style="fill:#837199;" d="M153.937,130.258c-3.044,0-6.379-0.584-8.755-1.667c-0.125-0.583-0.208-1.334-0.208-2.001
			c0-1,0.125-1.959,0.416-3.085c2.46,1,5.712,1.626,8.255,1.626c2.96,0,4.544-1.376,4.544-3.252c0-2.084-1.334-2.959-5.378-4.21
			c-4.502-1.375-7.796-3.543-7.796-8.379c0-5.169,4.461-8.045,10.339-8.045c2.71,0,5.127,0.417,6.753,0.958
			c0.125,0.459,0.209,1.209,0.209,2.293c0,0.792-0.084,2.001-0.25,2.668c-2.085-0.542-4.461-0.834-6.379-0.834
			c-3.126,0-4.836,1.042-4.836,2.71c0,1.959,1.543,2.751,5.295,3.918c4.502,1.417,7.837,3.543,7.837,8.546
			C163.982,126.964,159.688,130.258,153.937,130.258z"/>
		<path style="fill:#837199;" d="M190.908,129.841c-0.542,0.125-1.834,0.208-3.21,0.208c-1.083,0-2.334-0.125-2.876-0.208
			l-2.084-5.711h-10.005l-1.96,5.711c-0.917,0.125-2.001,0.208-3.085,0.208c-1.083,0-2.334-0.083-2.959-0.208l9.838-28.181
			c0.583-0.125,1.959-0.208,2.876-0.208c1.126,0,2.46,0.083,2.918,0.208L190.908,129.841z M180.945,119.169l-2.459-7.962
			c-0.292-0.917-0.584-2.084-0.834-3.376h-0.084c-0.208,1.292-0.542,2.459-0.833,3.376l-2.335,7.962H180.945z"/>
		<path style="fill:#837199;" d="M211.956,127.34c-2.585,2.001-5.92,2.709-10.506,2.709c-2.334,0-6.294-0.083-7.628-0.208V101.66
			c2.042-0.125,6.294-0.208,8.671-0.208c9.171,0,13.882,3.877,13.882,13.965C216.375,120.628,214.999,124.963,211.956,127.34z
			 M202.618,106.371c-1.126,0-2.377,0.042-2.835,0.083v18.55c0.542,0.042,1.792,0.083,3.085,0.083c5.252,0,7.337-3.335,7.337-9.754
			C210.205,108.289,208.037,106.371,202.618,106.371z"/>
		<path style="fill:#837199;" d="M231.044,130.258c-7.712,0-11.798-5.336-11.798-14.507c0-9.171,4.086-14.507,11.798-14.507
			s11.797,5.336,11.797,14.507C242.841,124.922,238.756,130.258,231.044,130.258z M231.044,106.371
			c-3.585,0-5.628,2.751-5.628,9.379c0,6.628,2.043,9.38,5.628,9.38s5.628-2.751,5.628-9.38
			C236.672,109.123,234.629,106.371,231.044,106.371z"/>
		<path style="fill:#837199;" d="M267.766,129.799c-1.084,0.167-2.209,0.25-3.502,0.25c-1.167,0-2.334-0.042-3.126-0.208
			l-5.712-10.13h-2.459v10.13c-1.042,0.167-1.918,0.208-3.043,0.208c-1.001,0-1.876-0.042-2.918-0.208V101.66
			c1.917-0.125,5.919-0.208,8.337-0.208c7.087,0,10.63,2.501,10.63,9.004c0,3.46-2.084,6.92-5.002,8.17L267.766,129.799z
			 M255.718,106.329c-0.917,0-2.042,0.042-2.751,0.083v8.337h2.084c3.419,0,4.919-1.25,4.919-4.335
			C259.97,107.33,258.47,106.329,255.718,106.329z"/>
		<path style="fill:#837199;" d="M278.809,130.258c-3.043,0-6.378-0.584-8.754-1.667c-0.125-0.583-0.209-1.334-0.209-2.001
			c0-1,0.125-1.959,0.417-3.085c2.46,1,5.711,1.626,8.254,1.626c2.96,0,4.544-1.376,4.544-3.252c0-2.084-1.334-2.959-5.377-4.21
			c-4.503-1.375-7.796-3.543-7.796-8.379c0-5.169,4.46-8.045,10.338-8.045c2.71,0,5.128,0.417,6.754,0.958
			c0.125,0.459,0.208,1.209,0.208,2.293c0,0.792-0.083,2.001-0.25,2.668c-2.084-0.542-4.46-0.834-6.378-0.834
			c-3.127,0-4.836,1.042-4.836,2.71c0,1.959,1.543,2.751,5.294,3.918c4.503,1.417,7.838,3.543,7.838,8.546
			C288.855,126.964,284.562,130.258,278.809,130.258z"/>
	</g>
	<g>
		<path style="fill:#837199;" d="M22.562,168.479c-3.043,0-6.378-0.584-8.755-1.668c-0.125-0.583-0.208-1.334-0.208-2.001
			c0-1,0.125-1.959,0.417-3.085c2.459,1.001,5.711,1.626,8.254,1.626c2.96,0,4.544-1.375,4.544-3.251
			c0-2.085-1.334-2.96-5.378-4.211c-4.502-1.375-7.795-3.543-7.795-8.379c0-5.169,4.46-8.045,10.338-8.045
			c2.71,0,5.128,0.417,6.754,0.958c0.125,0.459,0.208,1.209,0.208,2.293c0,0.792-0.083,2.001-0.25,2.668
			c-2.084-0.542-4.461-0.834-6.378-0.834c-3.127,0-4.836,1.042-4.836,2.71c0,1.959,1.542,2.751,5.294,3.919
			c4.503,1.417,7.838,3.543,7.838,8.546C32.608,165.186,28.314,168.479,22.562,168.479z"/>
		<path style="fill:#837199;" d="M55.824,145.759c-2.001-0.625-4.502-1.084-6.503-1.084c-4.753,0-7.838,3.377-7.838,9.422
			c0,5.544,2.418,9.171,7.796,9.171c2.001,0,4.252-0.417,6.253-1.042c0.292,0.75,0.5,1.917,0.5,2.793
			c0,0.708-0.041,1.584-0.125,1.959c-2.084,0.959-4.752,1.501-7.212,1.501c-8.963,0-13.381-5.42-13.381-14.257
			c0-8.588,4.752-14.757,13.631-14.757c2.168,0,5.003,0.542,7.004,1.417c0.125,0.417,0.167,1.334,0.167,1.875
			C56.116,144.05,55.949,145.259,55.824,145.759z"/>
		<path style="fill:#837199;" d="M81.749,168.062c-0.75,0.125-1.793,0.208-2.96,0.208s-2.209-0.083-3.001-0.208v-11.673h-9.797
			v11.673c-0.792,0.125-1.709,0.208-2.96,0.208c-1.125,0-2.209-0.083-3.001-0.208v-28.181c0.792-0.125,1.959-0.208,3.001-0.208
			c1.168,0,2.21,0.083,2.96,0.208v11.423h9.797v-11.423c0.917-0.125,1.959-0.208,3.001-0.208c1.001,0,2.251,0.083,2.96,0.208
			V168.062z"/>
		<path style="fill:#837199;" d="M104.839,168.062H87.205v-28.181h17.258c0.167,0.459,0.292,1.334,0.292,2.501
			c0,0.917-0.083,1.709-0.292,2.584H93.166v6.086h9.547c0.166,0.459,0.291,1.293,0.291,2.46c0,0.917-0.083,1.668-0.291,2.543h-9.547
			v6.92h11.673c0.166,0.459,0.291,1.334,0.291,2.501C105.13,166.395,105.047,167.187,104.839,168.062z"/>
		<path style="fill:#837199;" d="M137.518,168.062c-0.5,0.125-1.626,0.208-2.793,0.208c-1.251,0-2.418-0.125-2.918-0.208
			l-0.5-16.925l-6.17,14.257c-0.459,0.167-1.459,0.25-2.084,0.25c-0.751,0-1.668-0.083-2.127-0.208l-6.169-14.299l-0.542,16.925
			c-0.542,0.125-1.834,0.208-2.96,0.208c-0.667,0-1.793-0.083-2.543-0.208l1.209-28.181c0.792-0.083,1.584-0.208,2.418-0.208
			c1,0,1.959,0.083,2.459,0.208l8.255,19.135l8.295-19.135c0.834-0.125,1.668-0.208,2.418-0.208c0.959,0,1.834,0.083,2.46,0.208
			L137.518,168.062z"/>
		<path style="fill:#837199;" d="M160.315,168.062h-17.634v-28.181h17.259c0.166,0.459,0.292,1.334,0.292,2.501
			c0,0.917-0.084,1.709-0.292,2.584h-11.298v6.086h9.547c0.167,0.459,0.292,1.293,0.292,2.46c0,0.917-0.084,1.668-0.292,2.543
			h-9.547v6.92h11.673c0.167,0.459,0.292,1.334,0.292,2.501C160.607,166.395,160.523,167.187,160.315,168.062z"/>
	</g>
	<g>
		<path style="fill:#58595B;" d="M20.705,190.61c-0.172,0.058-0.382,0.096-0.573,0.096c-0.229,0-0.478-0.038-0.669-0.096v-6.037
			c0-2.102-0.534-3.057-2.312-3.057c-0.955,0-2.101,0.535-2.846,1.108v7.985c-0.211,0.058-0.439,0.096-0.65,0.096
			c-0.19,0-0.42-0.038-0.592-0.096v-13.946c0.172-0.057,0.439-0.095,0.611-0.095s0.459,0.038,0.631,0.095v4.91
			c1.012-0.783,2.216-1.108,3.151-1.108c0.975,0,1.968,0.325,2.522,0.994c0.611,0.726,0.726,1.776,0.726,2.808V190.61z"/>
		<path style="fill:#58595B;" d="M30.353,185.968h-6.4c0.077,2.197,1.108,3.859,3.496,3.859c0.86,0,1.662-0.114,2.369-0.286
			c0.038,0.095,0.076,0.286,0.076,0.4c0,0.191-0.038,0.363-0.096,0.497c-0.744,0.229-1.681,0.363-2.464,0.363
			c-1.51,0-2.655-0.478-3.362-1.242c-0.841-0.917-1.28-2.292-1.28-3.878c0-2.771,1.395-5.216,4.184-5.216
			c2.503,0,3.496,2.063,3.496,4.585C30.371,185.338,30.371,185.682,30.353,185.968z M29.13,185.051c0-1.757-0.191-3.648-2.312-3.648
			c-1.854,0-2.751,1.7-2.866,3.648H29.13z"/>
		<path style="fill:#58595B;" d="M33.733,190.61c-0.21,0.058-0.421,0.096-0.649,0.096c-0.191,0-0.421-0.038-0.593-0.096v-13.946
			c0.172-0.038,0.382-0.095,0.631-0.095c0.21,0,0.439,0.038,0.611,0.095V190.61z"/>
		<path style="fill:#58595B;" d="M42.674,189.579c-0.745,0.668-1.911,1.031-3.019,1.031c-0.783,0-1.51-0.134-2.044-0.325v4.814
			c-0.191,0.058-0.363,0.096-0.631,0.096c-0.21,0-0.458-0.038-0.611-0.096v-14.442c0.096-0.038,0.325-0.076,0.516-0.076
			c0.191,0,0.363,0.038,0.497,0.076l0.114,1.051h0.02c0.726-0.765,1.814-1.242,2.923-1.242c1.203,0,2.273,0.517,2.941,1.472
			c0.555,0.802,0.898,1.948,0.898,3.343C44.278,187.19,43.686,188.662,42.674,189.579z M40.305,181.479
			c-1.013,0-2.025,0.42-2.693,1.261v6.572c0.496,0.229,1.261,0.362,1.91,0.362c2.063,0,3.458-1.355,3.458-4.336
			C42.979,182.988,42.062,181.479,40.305,181.479z"/>
		<path style="fill:#58595B;" d="M48.538,190.802c-0.955,0-1.949-0.172-2.637-0.439c-0.058-0.134-0.096-0.363-0.096-0.535
			c0-0.114,0.038-0.401,0.077-0.516c0.706,0.286,1.719,0.516,2.56,0.516c1.452,0,2.35-0.611,2.35-1.815
			c0-1.089-0.554-1.471-2.063-2.024c-2.101-0.765-2.789-1.644-2.789-2.942c0-1.758,1.452-2.579,3.324-2.579
			c0.631,0,1.452,0.115,1.93,0.268c0.058,0.172,0.076,0.344,0.076,0.459c0,0.152-0.038,0.42-0.076,0.554
			c-0.631-0.191-1.299-0.306-1.948-0.306c-1.356,0-2.179,0.516-2.179,1.566c0,0.917,0.517,1.356,2.083,1.948
			c1.433,0.535,2.751,1.07,2.751,3C51.9,189.903,50.429,190.802,48.538,190.802z"/>
		<path style="fill:#58595B;" d="M60.344,190.802c-0.955,0-1.949-0.172-2.637-0.439c-0.058-0.134-0.096-0.363-0.096-0.535
			c0-0.114,0.038-0.401,0.077-0.516c0.706,0.286,1.719,0.516,2.56,0.516c1.452,0,2.35-0.611,2.35-1.815
			c0-1.089-0.554-1.471-2.063-2.024c-2.101-0.765-2.789-1.644-2.789-2.942c0-1.758,1.452-2.579,3.324-2.579
			c0.631,0,1.452,0.115,1.93,0.268c0.058,0.172,0.076,0.344,0.076,0.459c0,0.152-0.038,0.42-0.076,0.554
			c-0.631-0.191-1.299-0.306-1.948-0.306c-1.356,0-2.179,0.516-2.179,1.566c0,0.917,0.517,1.356,2.083,1.948
			c1.433,0.535,2.751,1.07,2.751,3C63.706,189.903,62.234,190.802,60.344,190.802z"/>
		<path style="fill:#58595B;" d="M70.869,190.515c-0.496,0.172-1.241,0.287-1.796,0.287c-1.891,0-2.789-0.898-2.789-3.019v-6.151
			h-1.719c-0.038-0.096-0.058-0.325-0.058-0.439c0-0.096,0.02-0.325,0.058-0.421l1.719-0.114v-2.599
			c0.153-0.057,0.401-0.095,0.611-0.095c0.211,0,0.478,0.038,0.631,0.095v2.599h2.809c0.038,0.096,0.076,0.382,0.076,0.478
			c0,0.134-0.038,0.363-0.076,0.497h-2.809v6.036c0,1.51,0.439,2.14,1.624,2.14c0.649,0,1.279-0.095,1.719-0.229
			c0.038,0.095,0.077,0.324,0.077,0.458C70.946,190.209,70.927,190.343,70.869,190.515z"/>
		<path style="fill:#58595B;" d="M79.771,186.828c0,2.903-1.203,3.974-3.726,3.974c-2.579,0-3.668-1.07-3.668-3.879v-6.266
			c0.172-0.058,0.401-0.096,0.611-0.096c0.268,0,0.478,0.058,0.631,0.096v6.113c0,1.853,0.286,3.075,2.445,3.075
			c2.025,0,2.464-1.184,2.464-3.113v-6.075c0.153-0.058,0.421-0.096,0.631-0.096s0.439,0.038,0.611,0.096V186.828z"/>
		<path style="fill:#58595B;" d="M89.17,190.706c-0.172,0-0.382-0.058-0.496-0.096l-0.115-1.146H88.54
			c-0.821,0.86-1.796,1.338-2.885,1.338c-2.637,0-3.897-2.197-3.897-4.872c0-2.655,1.127-5.464,4.165-5.464
			c0.955,0,1.834,0.325,2.541,0.821v-4.623c0.172-0.057,0.4-0.095,0.611-0.095c0.229,0,0.458,0.057,0.63,0.095v13.946
			C89.571,190.668,89.381,190.706,89.17,190.706z M88.464,182.338c-0.688-0.572-1.566-0.859-2.465-0.859
			c-2.216,0-2.961,2.178-2.961,4.395c0,1.7,0.535,3.916,2.675,3.916c1.031,0,2.082-0.516,2.751-1.318V182.338z"/>
		<path style="fill:#58595B;" d="M99.41,185.968h-6.4c0.077,2.197,1.108,3.859,3.496,3.859c0.86,0,1.662-0.114,2.369-0.286
			c0.038,0.095,0.076,0.286,0.076,0.4c0,0.191-0.038,0.363-0.096,0.497c-0.744,0.229-1.681,0.363-2.464,0.363
			c-1.51,0-2.655-0.478-3.362-1.242c-0.841-0.917-1.28-2.292-1.28-3.878c0-2.771,1.395-5.216,4.184-5.216
			c2.503,0,3.496,2.063,3.496,4.585C99.429,185.338,99.429,185.682,99.41,185.968z M98.188,185.051c0-1.757-0.191-3.648-2.312-3.648
			c-1.854,0-2.751,1.7-2.866,3.648H98.188z"/>
		<path style="fill:#58595B;" d="M109.152,190.63c-0.152,0.038-0.382,0.076-0.611,0.076c-0.191,0-0.439-0.038-0.631-0.096v-6.056
			c0-0.917-0.114-1.624-0.382-2.121c-0.324-0.611-0.936-0.917-1.93-0.917c-0.955,0-2.101,0.535-2.846,1.108v7.985
			c-0.211,0.058-0.421,0.096-0.65,0.096c-0.19,0-0.42-0.038-0.592-0.096v-9.953c0.134-0.058,0.363-0.076,0.497-0.076
			c0.19,0,0.42,0.019,0.534,0.076l0.096,0.993h0.02c1.051-0.859,2.254-1.185,3.229-1.185s1.986,0.325,2.541,0.994
			c0.611,0.726,0.726,1.776,0.726,2.808V190.63z"/>
		<path style="fill:#58595B;" d="M116.984,190.515c-0.496,0.172-1.241,0.287-1.796,0.287c-1.891,0-2.789-0.898-2.789-3.019v-6.151
			h-1.719c-0.038-0.096-0.058-0.325-0.058-0.439c0-0.096,0.02-0.325,0.058-0.421l1.719-0.114v-2.599
			c0.153-0.057,0.401-0.095,0.611-0.095c0.211,0,0.478,0.038,0.631,0.095v2.599h2.809c0.038,0.096,0.076,0.382,0.076,0.478
			c0,0.134-0.038,0.363-0.076,0.497h-2.809v6.036c0,1.51,0.439,2.14,1.624,2.14c0.649,0,1.279-0.095,1.719-0.229
			c0.038,0.095,0.077,0.324,0.077,0.458C117.062,190.209,117.042,190.343,116.984,190.515z"/>
		<path style="fill:#58595B;" d="M121.054,190.802c-0.955,0-1.949-0.172-2.637-0.439c-0.058-0.134-0.096-0.363-0.096-0.535
			c0-0.114,0.038-0.401,0.077-0.516c0.706,0.286,1.719,0.516,2.56,0.516c1.452,0,2.35-0.611,2.35-1.815
			c0-1.089-0.554-1.471-2.063-2.024c-2.101-0.765-2.789-1.644-2.789-2.942c0-1.758,1.452-2.579,3.324-2.579
			c0.631,0,1.452,0.115,1.93,0.268c0.058,0.172,0.076,0.344,0.076,0.459c0,0.152-0.038,0.42-0.076,0.554
			c-0.631-0.191-1.299-0.306-1.948-0.306c-1.356,0-2.179,0.516-2.179,1.566c0,0.917,0.517,1.356,2.083,1.948
			c1.433,0.535,2.751,1.07,2.751,3C124.416,189.903,122.944,190.802,121.054,190.802z"/>
		<path style="fill:#58595B;" d="M137.501,190.706c-0.172,0-0.382-0.058-0.497-0.096l-0.114-1.146h-0.02
			c-0.821,0.86-1.795,1.338-2.885,1.338c-2.636,0-3.896-2.197-3.896-4.872c0-2.655,1.127-5.464,4.164-5.464
			c0.955,0,1.834,0.325,2.541,0.821v-4.623c0.172-0.057,0.401-0.095,0.611-0.095c0.229,0,0.459,0.057,0.631,0.095v13.946
			C137.902,190.668,137.711,190.706,137.501,190.706z M136.794,182.338c-0.688-0.572-1.566-0.859-2.464-0.859
			c-2.217,0-2.962,2.178-2.962,4.395c0,1.7,0.535,3.916,2.675,3.916c1.032,0,2.082-0.516,2.751-1.318V182.338z"/>
		<path style="fill:#58595B;" d="M147.74,185.968h-6.399c0.076,2.197,1.107,3.859,3.496,3.859c0.859,0,1.662-0.114,2.369-0.286
			c0.038,0.095,0.076,0.286,0.076,0.4c0,0.191-0.038,0.363-0.096,0.497c-0.745,0.229-1.682,0.363-2.465,0.363
			c-1.509,0-2.655-0.478-3.362-1.242c-0.84-0.917-1.279-2.292-1.279-3.878c0-2.771,1.395-5.216,4.184-5.216
			c2.503,0,3.496,2.063,3.496,4.585C147.76,185.338,147.76,185.682,147.74,185.968z M146.518,185.051
			c0-1.757-0.19-3.648-2.312-3.648c-1.853,0-2.751,1.7-2.865,3.648H146.518z"/>
		<path style="fill:#58595B;" d="M156.585,183.083l-2.999,7.527c-0.172,0.058-0.363,0.096-0.516,0.096
			c-0.21,0-0.382-0.038-0.535-0.096l-3.095-7.527c-0.344-0.859-0.497-1.719-0.497-2.426c0.153-0.038,0.42-0.096,0.593-0.096
			c0.229,0,0.458,0.038,0.649,0.096c0.019,0.649,0.095,1.395,0.382,2.082l2.483,6.305h0.038l2.407-6.305
			c0.268-0.668,0.401-1.413,0.401-2.082c0.134-0.058,0.42-0.096,0.669-0.096c0.134,0,0.382,0.02,0.554,0.076
			C157.102,181.326,156.968,182.147,156.585,183.083z"/>
		<path style="fill:#58595B;" d="M165.85,185.968h-6.399c0.076,2.197,1.108,3.859,3.496,3.859c0.859,0,1.662-0.114,2.369-0.286
			c0.038,0.095,0.076,0.286,0.076,0.4c0,0.191-0.038,0.363-0.096,0.497c-0.745,0.229-1.681,0.363-2.464,0.363
			c-1.51,0-2.656-0.478-3.362-1.242c-0.841-0.917-1.28-2.292-1.28-3.878c0-2.771,1.395-5.216,4.184-5.216
			c2.503,0,3.496,2.063,3.496,4.585C165.869,185.338,165.869,185.682,165.85,185.968z M164.627,185.051
			c0-1.757-0.19-3.648-2.312-3.648c-1.853,0-2.751,1.7-2.865,3.648H164.627z"/>
		<path style="fill:#58595B;" d="M169.231,190.61c-0.21,0.058-0.42,0.096-0.649,0.096c-0.191,0-0.421-0.038-0.593-0.096v-13.946
			c0.172-0.038,0.383-0.095,0.631-0.095c0.21,0,0.439,0.038,0.611,0.095V190.61z"/>
		<path style="fill:#58595B;" d="M175.421,190.802c-2.503,0-4.107-1.72-4.107-5.158s1.624-5.178,4.126-5.178
			c2.503,0,4.089,1.7,4.089,5.14C179.528,189.044,177.924,190.802,175.421,190.802z M175.439,181.402
			c-1.834,0-2.827,1.414-2.827,4.222c0,2.809,0.975,4.241,2.809,4.241s2.809-1.433,2.809-4.241
			C178.229,182.816,177.273,181.402,175.439,181.402z"/>
		<path style="fill:#58595B;" d="M187.876,189.579c-0.745,0.668-1.91,1.031-3.019,1.031c-0.783,0-1.509-0.134-2.044-0.325v4.814
			c-0.191,0.058-0.363,0.096-0.631,0.096c-0.21,0-0.458-0.038-0.611-0.096v-14.442c0.096-0.038,0.325-0.076,0.516-0.076
			c0.191,0,0.363,0.038,0.497,0.076l0.114,1.051h0.02c0.726-0.765,1.814-1.242,2.923-1.242c1.203,0,2.273,0.517,2.942,1.472
			c0.554,0.802,0.897,1.948,0.897,3.343C189.48,187.19,188.889,188.662,187.876,189.579z M185.507,181.479
			c-1.013,0-2.024,0.42-2.693,1.261v6.572c0.496,0.229,1.261,0.362,1.91,0.362c2.063,0,3.458-1.355,3.458-4.336
			C188.182,182.988,187.265,181.479,185.507,181.479z"/>
		<path style="fill:#58595B;" d="M202.527,188.165c0,0.688,0,1.548,0.039,2.445c-0.134,0.058-0.344,0.096-0.517,0.096
			c-0.152,0-0.362-0.038-0.516-0.096c-0.057-0.306-0.096-0.707-0.114-1.069h-0.02c-0.649,0.802-1.796,1.261-2.923,1.261
			c-1.776,0-3.267-0.994-3.267-3.038c0-1.165,0.478-2.024,1.223-2.56c0.841-0.593,1.948-0.783,3.133-0.783
			c0.669,0,1.223,0.038,1.72,0.114v-0.554c0-1.91-0.783-2.541-2.388-2.541c-0.898,0-2.006,0.191-2.694,0.363
			c-0.038-0.096-0.076-0.306-0.076-0.497c0-0.134,0.038-0.324,0.096-0.439c0.821-0.248,1.91-0.401,2.827-0.401
			c2.273,0,3.477,1.032,3.477,3.362V188.165z M201.286,185.472c-0.554-0.077-1.127-0.115-1.624-0.115
			c-0.936,0-1.776,0.172-2.35,0.611c-0.516,0.383-0.803,0.994-0.803,1.777c0,1.395,0.898,2.062,2.14,2.062
			c1.032,0,2.121-0.496,2.637-1.279V185.472z"/>
		<path style="fill:#58595B;" d="M216.568,188.948c0,1.433-0.076,3.152-0.764,4.337c-0.821,1.413-2.293,2.024-3.764,2.024
			c-0.841,0-1.566-0.095-2.178-0.306c-0.058-0.114-0.076-0.306-0.076-0.458c0-0.114,0.038-0.344,0.076-0.459
			c0.592,0.153,1.28,0.268,1.968,0.268c2.407,0,3.496-1.49,3.496-4.107v-0.802c-0.745,0.783-1.796,1.165-2.655,1.165
			c-2.541,0-3.859-1.968-3.859-4.737c0-3.401,2.006-5.407,4.967-5.407c0.783,0,1.968,0.229,2.789,0.555V188.948z M215.327,181.632
			c-0.688-0.191-1.185-0.249-1.662-0.249c-2.427,0-3.572,2.045-3.572,4.433c0,2.12,0.802,3.782,2.674,3.782
			c0.956,0,1.93-0.478,2.561-1.146V181.632z"/>
		<path style="fill:#58595B;" d="M220.446,190.61c-0.21,0.058-0.42,0.096-0.649,0.096c-0.191,0-0.421-0.038-0.593-0.096v-13.946
			c0.172-0.038,0.383-0.095,0.631-0.095c0.21,0,0.439,0.038,0.611,0.095V190.61z"/>
		<path style="fill:#58595B;" d="M226.636,190.802c-2.503,0-4.107-1.72-4.107-5.158s1.624-5.178,4.126-5.178
			c2.503,0,4.089,1.7,4.089,5.14C230.743,189.044,229.139,190.802,226.636,190.802z M226.654,181.402
			c-1.834,0-2.827,1.414-2.827,4.222c0,2.809,0.975,4.241,2.809,4.241s2.809-1.433,2.809-4.241
			C229.444,182.816,228.488,181.402,226.654,181.402z"/>
		<path style="fill:#58595B;" d="M235.843,190.802c-0.879,0-2.006-0.134-3.057-0.517v-13.621c0.134-0.038,0.421-0.095,0.593-0.095
			c0.306,0,0.534,0.057,0.649,0.095v4.834c0.783-0.649,1.776-1.032,2.827-1.032c2.693,0,3.821,2.312,3.821,4.891
			C240.677,188.643,238.995,190.802,235.843,190.802z M236.684,181.536c-0.955,0-1.91,0.401-2.655,1.146v6.858
			c0.516,0.19,1.165,0.305,1.719,0.305c2.656,0,3.63-2.024,3.63-4.412C239.377,183.58,238.843,181.536,236.684,181.536z"/>
		<path style="fill:#58595B;" d="M249.541,188.165c0,0.688,0,1.548,0.038,2.445c-0.134,0.058-0.345,0.096-0.517,0.096
			c-0.152,0-0.362-0.038-0.516-0.096c-0.057-0.306-0.096-0.707-0.114-1.069h-0.02c-0.649,0.802-1.796,1.261-2.923,1.261
			c-1.776,0-3.267-0.994-3.267-3.038c0-1.165,0.478-2.024,1.223-2.56c0.841-0.593,1.948-0.783,3.133-0.783
			c0.669,0,1.223,0.038,1.72,0.114v-0.554c0-1.91-0.783-2.541-2.388-2.541c-0.898,0-2.006,0.191-2.694,0.363
			c-0.038-0.096-0.076-0.306-0.076-0.497c0-0.134,0.038-0.324,0.096-0.439c0.821-0.248,1.91-0.401,2.827-0.401
			c2.273,0,3.478,1.032,3.478,3.362V188.165z M248.299,185.472c-0.554-0.077-1.127-0.115-1.624-0.115
			c-0.936,0-1.776,0.172-2.35,0.611c-0.516,0.383-0.803,0.994-0.803,1.777c0,1.395,0.898,2.062,2.14,2.062
			c1.032,0,2.121-0.496,2.637-1.279V185.472z"/>
		<path style="fill:#58595B;" d="M253.456,190.61c-0.21,0.058-0.42,0.096-0.649,0.096c-0.191,0-0.421-0.038-0.593-0.096v-13.946
			c0.172-0.038,0.383-0.095,0.631-0.095c0.21,0,0.439,0.038,0.611,0.095V190.61z"/>
	</g>
	<g>
		<path style="fill:#58595B;" d="M19.368,212.159c-0.745,0.668-1.911,1.031-3.019,1.031c-0.783,0-1.51-0.134-2.044-0.325v4.814
			c-0.191,0.058-0.363,0.096-0.631,0.096c-0.21,0-0.458-0.038-0.611-0.096v-14.442c0.096-0.038,0.325-0.076,0.516-0.076
			c0.191,0,0.363,0.038,0.497,0.076l0.114,1.051h0.02c0.726-0.765,1.814-1.242,2.923-1.242c1.203,0,2.273,0.517,2.941,1.472
			c0.555,0.802,0.898,1.948,0.898,3.343C20.973,209.771,20.38,211.242,19.368,212.159z M16.999,204.059
			c-1.013,0-2.025,0.42-2.693,1.261v6.572c0.496,0.229,1.261,0.362,1.91,0.362c2.063,0,3.458-1.355,3.458-4.336
			C19.674,205.568,18.757,204.059,16.999,204.059z"/>
		<path style="fill:#58595B;" d="M30.123,208.548h-6.4c0.077,2.197,1.108,3.859,3.496,3.859c0.86,0,1.662-0.114,2.369-0.286
			c0.038,0.095,0.076,0.286,0.076,0.4c0,0.191-0.038,0.363-0.096,0.497c-0.744,0.229-1.681,0.363-2.464,0.363
			c-1.51,0-2.655-0.478-3.362-1.242c-0.841-0.917-1.28-2.292-1.28-3.878c0-2.771,1.395-5.216,4.184-5.216
			c2.503,0,3.496,2.063,3.496,4.585C30.142,207.918,30.142,208.262,30.123,208.548z M28.9,207.631c0-1.757-0.191-3.648-2.312-3.648
			c-1.854,0-2.751,1.7-2.866,3.648H28.9z"/>
		<path style="fill:#58595B;" d="M36.676,204.154c-1.108,0.152-2.312,0.554-3.21,1.242v7.794c-0.191,0.058-0.42,0.096-0.63,0.096
			c-0.211,0-0.421-0.038-0.611-0.096v-9.953c0.114-0.038,0.286-0.076,0.478-0.076c0.152,0,0.362,0.038,0.516,0.076l0.096,1.223
			h0.019c0.821-0.707,2.255-1.299,3.344-1.414c0.038,0.115,0.076,0.325,0.076,0.497C36.752,203.734,36.714,203.982,36.676,204.154z"
			/>
		<path style="fill:#58595B;" d="M40.82,213.382c-0.955,0-1.948-0.172-2.636-0.439c-0.058-0.134-0.096-0.363-0.096-0.535
			c0-0.114,0.038-0.401,0.076-0.516c0.707,0.286,1.72,0.516,2.56,0.516c1.452,0,2.351-0.611,2.351-1.815
			c0-1.089-0.555-1.471-2.063-2.024c-2.102-0.765-2.789-1.644-2.789-2.942c0-1.758,1.452-2.579,3.324-2.579
			c0.63,0,1.451,0.115,1.929,0.268c0.058,0.172,0.077,0.344,0.077,0.459c0,0.152-0.038,0.42-0.077,0.554
			c-0.63-0.191-1.299-0.306-1.948-0.306c-1.356,0-2.178,0.516-2.178,1.566c0,0.917,0.516,1.356,2.082,1.948
			c1.433,0.535,2.751,1.07,2.751,3C44.183,212.483,42.712,213.382,40.82,213.382z"/>
		<path style="fill:#58595B;" d="M52.512,212.159c-0.745,0.668-1.91,1.031-3.019,1.031c-0.783,0-1.509-0.134-2.044-0.325v4.814
			c-0.191,0.058-0.363,0.096-0.63,0.096c-0.211,0-0.459-0.038-0.611-0.096v-14.442c0.095-0.038,0.324-0.076,0.516-0.076
			c0.19,0,0.362,0.038,0.496,0.076l0.115,1.051h0.019c0.727-0.765,1.815-1.242,2.923-1.242c1.204,0,2.273,0.517,2.942,1.472
			c0.554,0.802,0.897,1.948,0.897,3.343C54.116,209.771,53.524,211.242,52.512,212.159z M50.143,204.059
			c-1.012,0-2.024,0.42-2.693,1.261v6.572c0.497,0.229,1.261,0.362,1.91,0.362c2.063,0,3.458-1.355,3.458-4.336
			C52.817,205.568,51.9,204.059,50.143,204.059z"/>
		<path style="fill:#58595B;" d="M63.267,208.548h-6.399c0.076,2.197,1.107,3.859,3.496,3.859c0.859,0,1.662-0.114,2.369-0.286
			c0.038,0.095,0.076,0.286,0.076,0.4c0,0.191-0.038,0.363-0.096,0.497c-0.745,0.229-1.682,0.363-2.465,0.363
			c-1.509,0-2.655-0.478-3.362-1.242c-0.84-0.917-1.279-2.292-1.279-3.878c0-2.771,1.395-5.216,4.184-5.216
			c2.503,0,3.496,2.063,3.496,4.585C63.286,207.918,63.286,208.262,63.267,208.548z M62.044,207.631c0-1.757-0.19-3.648-2.312-3.648
			c-1.853,0-2.751,1.7-2.865,3.648H62.044z"/>
		<path style="fill:#58595B;" d="M71.635,204.44c-0.611-0.248-1.414-0.4-2.121-0.4c-2.483,0-3.4,1.929-3.4,4.26
			c0,2.292,0.879,4.069,3.382,4.069c0.668,0,1.471-0.115,2.062-0.287c0.038,0.115,0.077,0.249,0.077,0.401
			c0,0.229-0.039,0.401-0.096,0.535c-0.555,0.229-1.452,0.363-2.159,0.363c-3.114,0-4.565-2.045-4.565-5.044
			c0-3.114,1.585-5.292,4.623-5.292c0.726,0,1.586,0.172,2.178,0.439c0.058,0.153,0.076,0.306,0.076,0.478
			C71.691,204.154,71.673,204.307,71.635,204.44z"/>
		<path style="fill:#58595B;" d="M79.084,213.095c-0.496,0.172-1.241,0.287-1.796,0.287c-1.891,0-2.789-0.898-2.789-3.019v-6.151
			H72.78c-0.038-0.096-0.058-0.325-0.058-0.439c0-0.096,0.02-0.325,0.058-0.421l1.719-0.114v-2.599
			c0.153-0.057,0.401-0.095,0.611-0.095c0.211,0,0.478,0.038,0.631,0.095v2.599h2.809c0.038,0.096,0.076,0.382,0.076,0.478
			c0,0.134-0.038,0.363-0.076,0.497h-2.809v6.036c0,1.51,0.439,2.14,1.624,2.14c0.649,0,1.279-0.095,1.719-0.229
			c0.038,0.095,0.077,0.324,0.077,0.458C79.161,212.789,79.142,212.923,79.084,213.095z"/>
		<path style="fill:#58595B;" d="M81.625,201.289c-0.439,0-0.803-0.383-0.803-0.841c0-0.459,0.363-0.821,0.803-0.821
			s0.821,0.362,0.821,0.821C82.446,200.906,82.064,201.289,81.625,201.289z M82.255,213.19c-0.172,0.058-0.42,0.096-0.63,0.096
			s-0.439-0.038-0.611-0.096v-9.953c0.152-0.038,0.401-0.096,0.592-0.096c0.21,0,0.497,0.038,0.649,0.096V213.19z"/>
		<path style="fill:#58595B;" d="M91.674,205.663l-3,7.527c-0.172,0.058-0.362,0.096-0.516,0.096c-0.21,0-0.382-0.038-0.535-0.096
			l-3.095-7.527c-0.344-0.859-0.496-1.719-0.496-2.426c0.152-0.038,0.42-0.096,0.592-0.096c0.229,0,0.459,0.038,0.649,0.096
			c0.02,0.649,0.096,1.395,0.382,2.082l2.484,6.305h0.038l2.407-6.305c0.267-0.668,0.4-1.413,0.4-2.082
			c0.134-0.058,0.421-0.096,0.669-0.096c0.134,0,0.382,0.02,0.554,0.076C92.189,203.906,92.056,204.728,91.674,205.663z"/>
		<path style="fill:#58595B;" d="M100.938,208.548h-6.4c0.077,2.197,1.108,3.859,3.496,3.859c0.86,0,1.662-0.114,2.369-0.286
			c0.038,0.095,0.076,0.286,0.076,0.4c0,0.191-0.038,0.363-0.096,0.497c-0.744,0.229-1.681,0.363-2.464,0.363
			c-1.51,0-2.655-0.478-3.362-1.242c-0.841-0.917-1.28-2.292-1.28-3.878c0-2.771,1.395-5.216,4.184-5.216
			c2.503,0,3.496,2.063,3.496,4.585C100.957,207.918,100.957,208.262,100.938,208.548z M99.716,207.631
			c0-1.757-0.191-3.648-2.312-3.648c-1.854,0-2.751,1.7-2.866,3.648H99.716z"/>
		<path style="fill:#58595B;" d="M114.043,210.745c0,0.688,0,1.548,0.038,2.445c-0.134,0.058-0.344,0.096-0.516,0.096
			c-0.152,0-0.362-0.038-0.516-0.096c-0.058-0.306-0.096-0.707-0.114-1.069h-0.02c-0.649,0.802-1.796,1.261-2.923,1.261
			c-1.776,0-3.267-0.994-3.267-3.038c0-1.165,0.478-2.024,1.223-2.56c0.841-0.593,1.948-0.783,3.133-0.783
			c0.669,0,1.223,0.038,1.72,0.114v-0.554c0-1.91-0.783-2.541-2.389-2.541c-0.897,0-2.006,0.191-2.693,0.363
			c-0.038-0.096-0.076-0.306-0.076-0.497c0-0.134,0.038-0.324,0.096-0.439c0.821-0.248,1.91-0.401,2.827-0.401
			c2.273,0,3.477,1.032,3.477,3.362V210.745z M112.802,208.052c-0.555-0.077-1.127-0.115-1.624-0.115
			c-0.937,0-1.776,0.172-2.35,0.611c-0.516,0.383-0.803,0.994-0.803,1.777c0,1.395,0.898,2.062,2.14,2.062
			c1.031,0,2.121-0.496,2.637-1.279V208.052z"/>
		<path style="fill:#58595B;" d="M124.32,213.21c-0.152,0.038-0.382,0.076-0.611,0.076c-0.191,0-0.439-0.038-0.631-0.096v-6.056
			c0-0.917-0.114-1.624-0.382-2.121c-0.324-0.611-0.936-0.917-1.93-0.917c-0.955,0-2.101,0.535-2.846,1.108v7.985
			c-0.211,0.058-0.421,0.096-0.65,0.096c-0.19,0-0.42-0.038-0.592-0.096v-9.953c0.134-0.058,0.363-0.076,0.497-0.076
			c0.19,0,0.42,0.019,0.534,0.076l0.096,0.993h0.02c1.051-0.859,2.254-1.185,3.229-1.185s1.986,0.325,2.541,0.994
			c0.611,0.726,0.726,1.776,0.726,2.808V213.21z"/>
		<path style="fill:#58595B;" d="M133.719,213.286c-0.172,0-0.382-0.058-0.496-0.096l-0.115-1.146h-0.019
			c-0.821,0.86-1.796,1.338-2.885,1.338c-2.637,0-3.897-2.197-3.897-4.872c0-2.655,1.127-5.464,4.165-5.464
			c0.955,0,1.834,0.325,2.541,0.821v-4.623c0.172-0.057,0.4-0.095,0.611-0.095c0.229,0,0.458,0.057,0.63,0.095v13.946
			C134.12,213.248,133.93,213.286,133.719,213.286z M133.013,204.918c-0.688-0.572-1.566-0.859-2.465-0.859
			c-2.216,0-2.961,2.178-2.961,4.395c0,1.7,0.535,3.916,2.675,3.916c1.031,0,2.082-0.516,2.751-1.318V204.918z"/>
		<path style="fill:#58595B;" d="M147.912,213.286c-0.172,0-0.382-0.058-0.496-0.096l-0.115-1.146h-0.019
			c-0.821,0.86-1.796,1.338-2.885,1.338c-2.637,0-3.897-2.197-3.897-4.872c0-2.655,1.127-5.464,4.165-5.464
			c0.955,0,1.834,0.325,2.541,0.821v-4.623c0.172-0.057,0.4-0.095,0.611-0.095c0.229,0,0.458,0.057,0.63,0.095v13.946
			C148.313,213.248,148.123,213.286,147.912,213.286z M147.206,204.918c-0.688-0.572-1.566-0.859-2.465-0.859
			c-2.216,0-2.961,2.178-2.961,4.395c0,1.7,0.535,3.916,2.675,3.916c1.031,0,2.082-0.516,2.751-1.318V204.918z"/>
		<path style="fill:#58595B;" d="M158.152,208.548h-6.399c0.076,2.197,1.107,3.859,3.495,3.859c0.86,0,1.662-0.114,2.369-0.286
			c0.038,0.095,0.076,0.286,0.076,0.4c0,0.191-0.038,0.363-0.095,0.497c-0.745,0.229-1.682,0.363-2.465,0.363
			c-1.509,0-2.655-0.478-3.362-1.242c-0.841-0.917-1.28-2.292-1.28-3.878c0-2.771,1.396-5.216,4.185-5.216
			c2.502,0,3.496,2.063,3.496,4.585C158.172,207.918,158.172,208.262,158.152,208.548z M156.93,207.631
			c0-1.757-0.191-3.648-2.312-3.648c-1.854,0-2.751,1.7-2.865,3.648H156.93z"/>
		<path style="fill:#58595B;" d="M167.359,208.548h-6.399c0.076,2.197,1.108,3.859,3.496,3.859c0.859,0,1.662-0.114,2.369-0.286
			c0.038,0.095,0.076,0.286,0.076,0.4c0,0.191-0.038,0.363-0.096,0.497c-0.745,0.229-1.681,0.363-2.464,0.363
			c-1.51,0-2.656-0.478-3.362-1.242c-0.841-0.917-1.28-2.292-1.28-3.878c0-2.771,1.395-5.216,4.184-5.216
			c2.503,0,3.496,2.063,3.496,4.585C167.379,207.918,167.379,208.262,167.359,208.548z M166.137,207.631
			c0-1.757-0.19-3.648-2.312-3.648c-1.853,0-2.751,1.7-2.865,3.648H166.137z"/>
		<path style="fill:#58595B;" d="M175.766,212.159c-0.745,0.668-1.91,1.031-3.019,1.031c-0.783,0-1.509-0.134-2.044-0.325v4.814
			c-0.191,0.058-0.363,0.096-0.631,0.096c-0.21,0-0.458-0.038-0.611-0.096v-14.442c0.096-0.038,0.325-0.076,0.516-0.076
			c0.191,0,0.363,0.038,0.497,0.076l0.114,1.051h0.02c0.726-0.765,1.814-1.242,2.923-1.242c1.204,0,2.273,0.517,2.942,1.472
			c0.554,0.802,0.897,1.948,0.897,3.343C177.37,209.771,176.778,211.242,175.766,212.159z M173.396,204.059
			c-1.013,0-2.025,0.42-2.693,1.261v6.572c0.496,0.229,1.261,0.362,1.91,0.362c2.063,0,3.458-1.355,3.458-4.336
			C176.071,205.568,175.154,204.059,173.396,204.059z"/>
		<path style="fill:#58595B;" d="M186.52,208.548h-6.399c0.076,2.197,1.108,3.859,3.496,3.859c0.859,0,1.662-0.114,2.369-0.286
			c0.038,0.095,0.076,0.286,0.076,0.4c0,0.191-0.038,0.363-0.096,0.497c-0.745,0.229-1.681,0.363-2.464,0.363
			c-1.51,0-2.656-0.478-3.362-1.242c-0.841-0.917-1.28-2.292-1.28-3.878c0-2.771,1.395-5.216,4.184-5.216
			c2.503,0,3.496,2.063,3.496,4.585C186.539,207.918,186.539,208.262,186.52,208.548z M185.297,207.631
			c0-1.757-0.19-3.648-2.312-3.648c-1.853,0-2.751,1.7-2.865,3.648H185.297z"/>
		<path style="fill:#58595B;" d="M196.263,213.21c-0.152,0.038-0.382,0.076-0.611,0.076c-0.19,0-0.439-0.038-0.63-0.096v-6.056
			c0-0.917-0.115-1.624-0.383-2.121c-0.324-0.611-0.936-0.917-1.929-0.917c-0.956,0-2.102,0.535-2.847,1.108v7.985
			c-0.21,0.058-0.421,0.096-0.649,0.096c-0.191,0-0.421-0.038-0.593-0.096v-9.953c0.134-0.058,0.363-0.076,0.497-0.076
			c0.19,0,0.42,0.019,0.535,0.076l0.095,0.993h0.02c1.051-0.859,2.254-1.185,3.229-1.185s1.987,0.325,2.541,0.994
			c0.611,0.726,0.726,1.776,0.726,2.808V213.21z"/>
		<path style="fill:#58595B;" d="M208.298,213.095c-0.497,0.172-1.241,0.287-1.796,0.287c-1.891,0-2.789-0.898-2.789-3.019v-6.151
			h-1.72c-0.038-0.096-0.057-0.325-0.057-0.439c0-0.096,0.019-0.325,0.057-0.421l1.72-0.114v-2.599
			c0.153-0.057,0.401-0.095,0.611-0.095s0.478,0.038,0.631,0.095v2.599h2.808c0.038,0.096,0.077,0.382,0.077,0.478
			c0,0.134-0.039,0.363-0.077,0.497h-2.808v6.036c0,1.51,0.439,2.14,1.623,2.14c0.65,0,1.28-0.095,1.72-0.229
			c0.038,0.095,0.076,0.324,0.076,0.458C208.374,212.789,208.355,212.923,208.298,213.095z"/>
		<path style="fill:#58595B;" d="M217.792,213.19c-0.172,0.058-0.382,0.096-0.573,0.096c-0.229,0-0.478-0.038-0.668-0.096v-6.037
			c0-2.102-0.535-3.057-2.312-3.057c-0.956,0-2.102,0.535-2.847,1.108v7.985c-0.21,0.058-0.439,0.096-0.649,0.096
			c-0.191,0-0.421-0.038-0.593-0.096v-13.946c0.172-0.057,0.439-0.095,0.611-0.095s0.459,0.038,0.631,0.095v4.91
			c1.013-0.783,2.216-1.108,3.152-1.108c0.974,0,1.968,0.325,2.521,0.994c0.611,0.726,0.726,1.776,0.726,2.808V213.19z"/>
		<path style="fill:#58595B;" d="M227.439,208.548h-6.4c0.076,2.197,1.108,3.859,3.496,3.859c0.859,0,1.662-0.114,2.369-0.286
			c0.038,0.095,0.076,0.286,0.076,0.4c0,0.191-0.038,0.363-0.096,0.497c-0.745,0.229-1.681,0.363-2.464,0.363
			c-1.51,0-2.656-0.478-3.362-1.242c-0.841-0.917-1.28-2.292-1.28-3.878c0-2.771,1.395-5.216,4.184-5.216
			c2.503,0,3.496,2.063,3.496,4.585C227.458,207.918,227.458,208.262,227.439,208.548z M226.217,207.631
			c0-1.757-0.191-3.648-2.312-3.648c-1.853,0-2.751,1.7-2.865,3.648H226.217z"/>
		<path style="fill:#58595B;" d="M230.229,201.289c-0.439,0-0.803-0.383-0.803-0.841c0-0.459,0.363-0.821,0.803-0.821
			c0.438,0,0.821,0.362,0.821,0.821C231.05,200.906,230.667,201.289,230.229,201.289z M230.858,213.19
			c-0.172,0.058-0.42,0.096-0.63,0.096c-0.211,0-0.439-0.038-0.611-0.096v-9.953c0.152-0.038,0.4-0.096,0.592-0.096
			c0.21,0,0.497,0.038,0.649,0.096V213.19z"/>
		<path style="fill:#58595B;" d="M237.983,204.154c-1.107,0.152-2.312,0.554-3.209,1.242v7.794
			c-0.191,0.058-0.421,0.096-0.631,0.096s-0.42-0.038-0.611-0.096v-9.953c0.115-0.038,0.287-0.076,0.478-0.076
			c0.153,0,0.363,0.038,0.516,0.076l0.096,1.223h0.02c0.821-0.707,2.254-1.299,3.343-1.414c0.038,0.115,0.077,0.325,0.077,0.497
			C238.061,203.734,238.021,203.982,237.983,204.154z"/>
	</g>
	<g>
		<path style="fill:#58595B;" d="M20.399,231.987c0,2.903-1.203,3.974-3.726,3.974c-2.579,0-3.668-1.07-3.668-3.879v-6.266
			c0.172-0.058,0.401-0.096,0.611-0.096c0.268,0,0.478,0.058,0.631,0.096v6.113c0,1.854,0.286,3.076,2.445,3.076
			c2.025,0,2.464-1.185,2.464-3.114v-6.075c0.153-0.058,0.421-0.096,0.631-0.096s0.439,0.038,0.611,0.096V231.987z"/>
		<path style="fill:#58595B;" d="M30.582,235.789c-0.153,0.038-0.383,0.076-0.611,0.076c-0.191,0-0.439-0.038-0.631-0.096v-6.056
			c0-0.917-0.114-1.624-0.382-2.121c-0.325-0.611-0.937-0.917-1.93-0.917c-0.955,0-2.102,0.535-2.847,1.108v7.985
			c-0.21,0.058-0.42,0.096-0.649,0.096c-0.191,0-0.42-0.038-0.592-0.096v-9.953c0.133-0.058,0.362-0.076,0.496-0.076
			c0.191,0,0.421,0.019,0.535,0.076l0.096,0.993h0.019c1.051-0.859,2.255-1.185,3.229-1.185c0.975,0,1.987,0.325,2.541,0.994
			c0.611,0.726,0.727,1.776,0.727,2.808V235.789z"/>
		<path style="fill:#58595B;" d="M39.98,235.865c-0.172,0-0.382-0.058-0.497-0.096l-0.114-1.146h-0.02
			c-0.821,0.86-1.795,1.338-2.885,1.338c-2.636,0-3.896-2.197-3.896-4.872c0-2.655,1.127-5.464,4.164-5.464
			c0.955,0,1.834,0.325,2.541,0.822v-4.624c0.172-0.057,0.401-0.095,0.611-0.095c0.229,0,0.459,0.057,0.631,0.095v13.946
			C40.382,235.827,40.19,235.865,39.98,235.865z M39.273,227.497c-0.688-0.572-1.566-0.859-2.464-0.859
			c-2.217,0-2.962,2.178-2.962,4.394c0,1.701,0.535,3.917,2.675,3.917c1.032,0,2.082-0.516,2.751-1.318V227.497z"/>
		<path style="fill:#58595B;" d="M50.22,231.127h-6.4c0.077,2.197,1.108,3.859,3.496,3.859c0.86,0,1.662-0.114,2.369-0.287
			c0.038,0.096,0.076,0.287,0.076,0.401c0,0.191-0.038,0.363-0.096,0.497c-0.744,0.229-1.681,0.363-2.464,0.363
			c-1.51,0-2.655-0.478-3.362-1.242c-0.841-0.917-1.28-2.292-1.28-3.878c0-2.771,1.395-5.216,4.184-5.216
			c2.503,0,3.496,2.063,3.496,4.585C50.238,230.497,50.238,230.841,50.22,231.127z M48.997,230.21c0-1.757-0.191-3.648-2.312-3.648
			c-1.854,0-2.751,1.7-2.866,3.648H48.997z"/>
		<path style="fill:#58595B;" d="M56.771,226.733c-1.108,0.152-2.312,0.554-3.209,1.241v7.795c-0.191,0.058-0.421,0.096-0.631,0.096
			s-0.42-0.038-0.611-0.096v-9.953c0.114-0.038,0.286-0.076,0.478-0.076c0.153,0,0.363,0.038,0.516,0.076l0.096,1.223h0.02
			c0.821-0.707,2.254-1.299,3.343-1.414c0.038,0.115,0.076,0.325,0.076,0.497C56.848,226.313,56.81,226.562,56.771,226.733z"/>
		<path style="fill:#58595B;" d="M60.917,235.961c-0.955,0-1.948-0.172-2.636-0.439c-0.058-0.134-0.096-0.363-0.096-0.535
			c0-0.114,0.038-0.401,0.076-0.516c0.707,0.286,1.72,0.516,2.56,0.516c1.452,0,2.351-0.611,2.351-1.814
			c0-1.09-0.555-1.472-2.063-2.025c-2.102-0.765-2.789-1.643-2.789-2.942c0-1.757,1.452-2.579,3.324-2.579
			c0.63,0,1.451,0.115,1.929,0.268c0.058,0.172,0.077,0.344,0.077,0.459c0,0.152-0.038,0.42-0.077,0.554
			c-0.63-0.191-1.299-0.306-1.948-0.306c-1.356,0-2.178,0.516-2.178,1.566c0,0.917,0.516,1.356,2.082,1.949
			c1.433,0.534,2.751,1.069,2.751,2.999C64.279,235.062,62.809,235.961,60.917,235.961z"/>
		<path style="fill:#58595B;" d="M71.443,235.674c-0.497,0.172-1.242,0.287-1.796,0.287c-1.892,0-2.789-0.898-2.789-3.019v-6.151
			h-1.72c-0.038-0.096-0.057-0.325-0.057-0.439c0-0.096,0.019-0.325,0.057-0.421l1.72-0.114v-2.599
			c0.152-0.057,0.401-0.095,0.611-0.095s0.478,0.038,0.63,0.095v2.599h2.809c0.038,0.096,0.076,0.382,0.076,0.478
			c0,0.134-0.038,0.363-0.076,0.497H68.1v6.036c0,1.51,0.439,2.14,1.624,2.14c0.649,0,1.28-0.095,1.72-0.229
			c0.038,0.095,0.076,0.324,0.076,0.458C71.52,235.368,71.501,235.502,71.443,235.674z"/>
		<path style="fill:#58595B;" d="M79.906,233.324c0,0.688,0,1.548,0.038,2.445c-0.134,0.058-0.344,0.096-0.516,0.096
			c-0.153,0-0.363-0.038-0.516-0.096c-0.058-0.306-0.096-0.707-0.115-1.07h-0.019c-0.65,0.803-1.796,1.262-2.923,1.262
			c-1.777,0-3.268-0.994-3.268-3.038c0-1.165,0.478-2.024,1.223-2.56c0.841-0.593,1.949-0.783,3.134-0.783
			c0.668,0,1.223,0.038,1.719,0.114v-0.554c0-1.91-0.783-2.541-2.388-2.541c-0.898,0-2.006,0.191-2.693,0.363
			c-0.039-0.096-0.077-0.306-0.077-0.497c0-0.134,0.038-0.325,0.096-0.439c0.821-0.248,1.91-0.401,2.827-0.401
			c2.273,0,3.478,1.032,3.478,3.362V233.324z M78.664,230.631c-0.554-0.077-1.127-0.115-1.624-0.115
			c-0.936,0-1.776,0.172-2.35,0.611c-0.516,0.383-0.802,0.994-0.802,1.777c0,1.395,0.897,2.062,2.14,2.062
			c1.031,0,2.12-0.496,2.636-1.279V230.631z"/>
		<path style="fill:#58595B;" d="M90.184,235.789c-0.153,0.038-0.383,0.076-0.611,0.076c-0.191,0-0.439-0.038-0.631-0.096v-6.056
			c0-0.917-0.114-1.624-0.382-2.121c-0.325-0.611-0.937-0.917-1.93-0.917c-0.955,0-2.102,0.535-2.847,1.108v7.985
			c-0.21,0.058-0.42,0.096-0.649,0.096c-0.191,0-0.42-0.038-0.592-0.096v-9.953c0.133-0.058,0.362-0.076,0.496-0.076
			c0.191,0,0.421,0.019,0.535,0.076l0.096,0.993h0.019c1.051-0.859,2.255-1.185,3.229-1.185c0.975,0,1.987,0.325,2.541,0.994
			c0.611,0.726,0.727,1.776,0.727,2.808V235.789z"/>
		<path style="fill:#58595B;" d="M99.582,235.865c-0.172,0-0.382-0.058-0.497-0.096l-0.114-1.146h-0.02
			c-0.821,0.86-1.795,1.338-2.885,1.338c-2.636,0-3.896-2.197-3.896-4.872c0-2.655,1.127-5.464,4.164-5.464
			c0.955,0,1.834,0.325,2.541,0.822v-4.624c0.172-0.057,0.401-0.095,0.611-0.095c0.229,0,0.459,0.057,0.631,0.095v13.946
			C99.983,235.827,99.792,235.865,99.582,235.865z M98.875,227.497c-0.688-0.572-1.566-0.859-2.464-0.859
			c-2.217,0-2.962,2.178-2.962,4.394c0,1.701,0.535,3.917,2.675,3.917c1.032,0,2.082-0.516,2.751-1.318V227.497z"/>
		<path style="fill:#58595B;" d="M103.956,223.868c-0.439,0-0.802-0.383-0.802-0.841c0-0.459,0.362-0.821,0.802-0.821
			s0.821,0.362,0.821,0.821C104.777,223.485,104.396,223.868,103.956,223.868z M104.587,235.77
			c-0.172,0.058-0.421,0.096-0.631,0.096s-0.439-0.038-0.611-0.096v-9.953c0.153-0.038,0.401-0.096,0.593-0.096
			c0.21,0,0.496,0.038,0.649,0.096V235.77z"/>
		<path style="fill:#58595B;" d="M114.903,235.789c-0.153,0.038-0.383,0.076-0.611,0.076c-0.191,0-0.439-0.038-0.631-0.096v-6.056
			c0-0.917-0.114-1.624-0.382-2.121c-0.325-0.611-0.937-0.917-1.93-0.917c-0.955,0-2.102,0.535-2.847,1.108v7.985
			c-0.21,0.058-0.42,0.096-0.649,0.096c-0.191,0-0.42-0.038-0.592-0.096v-9.953c0.133-0.058,0.362-0.076,0.496-0.076
			c0.191,0,0.421,0.019,0.535,0.076l0.096,0.993h0.019c1.051-0.859,2.255-1.185,3.229-1.185c0.975,0,1.987,0.325,2.541,0.994
			c0.611,0.726,0.727,1.776,0.727,2.808V235.789z"/>
		<path style="fill:#58595B;" d="M124.646,234.107c0,1.433-0.077,3.152-0.765,4.337c-0.821,1.413-2.292,2.024-3.764,2.024
			c-0.84,0-1.566-0.095-2.178-0.306c-0.058-0.114-0.076-0.306-0.076-0.458c0-0.115,0.038-0.344,0.076-0.459
			c0.593,0.153,1.28,0.268,1.968,0.268c2.407,0,3.496-1.49,3.496-4.107v-0.802c-0.745,0.783-1.796,1.165-2.655,1.165
			c-2.541,0-3.859-1.968-3.859-4.738c0-3.4,2.006-5.406,4.967-5.406c0.784,0,1.968,0.229,2.79,0.555V234.107z M123.403,226.791
			c-0.688-0.191-1.185-0.249-1.662-0.249c-2.426,0-3.572,2.044-3.572,4.433c0,2.12,0.803,3.782,2.675,3.782
			c0.955,0,1.929-0.478,2.56-1.146V226.791z"/>
		<path style="fill:#58595B;" d="M134.999,235.961c-2.503,0-4.107-1.72-4.107-5.158c0-3.439,1.624-5.178,4.126-5.178
			c2.503,0,4.089,1.7,4.089,5.14C139.106,234.203,137.501,235.961,134.999,235.961z M135.018,226.562
			c-1.834,0-2.827,1.413-2.827,4.222s0.975,4.241,2.809,4.241s2.808-1.433,2.808-4.241S136.852,226.562,135.018,226.562z"/>
		<path style="fill:#58595B;" d="M146.785,222.646c-0.286-0.077-0.802-0.153-1.203-0.153c-0.726,0-1.261,0.191-1.624,0.592
			c-0.554,0.593-0.649,1.396-0.649,2.407v0.325h2.693c0.039,0.096,0.077,0.324,0.077,0.458c0,0.153-0.038,0.383-0.077,0.517h-2.693
			v8.979c-0.172,0.058-0.363,0.096-0.611,0.096s-0.458-0.038-0.63-0.096v-8.979h-1.72c-0.038-0.096-0.058-0.344-0.058-0.459
			c0-0.096,0.02-0.306,0.058-0.401l1.72-0.114v-0.325c0-1.356,0.229-2.292,1.012-3.075c0.555-0.555,1.376-0.821,2.312-0.821
			c0.497,0,1.051,0.114,1.395,0.248c0.039,0.096,0.058,0.229,0.058,0.363C146.843,222.32,146.824,222.55,146.785,222.646z"/>
		<path style="fill:#58595B;" d="M159.317,235.865c-0.172,0-0.382-0.058-0.496-0.096l-0.115-1.146h-0.019
			c-0.822,0.86-1.796,1.338-2.885,1.338c-2.637,0-3.897-2.197-3.897-4.872c0-2.655,1.127-5.464,4.165-5.464
			c0.955,0,1.834,0.325,2.54,0.822v-4.624c0.172-0.057,0.401-0.095,0.611-0.095c0.229,0,0.459,0.057,0.631,0.095v13.946
			C159.719,235.827,159.527,235.865,159.317,235.865z M158.61,227.497c-0.688-0.572-1.566-0.859-2.464-0.859
			c-2.216,0-2.961,2.178-2.961,4.394c0,1.701,0.534,3.917,2.674,3.917c1.032,0,2.083-0.516,2.751-1.318V227.497z"/>
		<path style="fill:#58595B;" d="M163.711,223.868c-0.439,0-0.803-0.383-0.803-0.841c0-0.459,0.363-0.821,0.803-0.821
			c0.438,0,0.821,0.362,0.821,0.821C164.532,223.485,164.149,223.868,163.711,223.868z M164.341,235.77
			c-0.172,0.058-0.42,0.096-0.63,0.096c-0.211,0-0.439-0.038-0.611-0.096v-9.953c0.152-0.038,0.4-0.096,0.592-0.096
			c0.21,0,0.497,0.038,0.649,0.096V235.77z"/>
		<path style="fill:#58595B;" d="M173.76,228.242l-3,7.527c-0.172,0.058-0.362,0.096-0.516,0.096c-0.21,0-0.382-0.038-0.534-0.096
			l-3.096-7.527c-0.344-0.859-0.496-1.719-0.496-2.426c0.152-0.038,0.42-0.096,0.592-0.096c0.229,0,0.459,0.038,0.649,0.096
			c0.02,0.649,0.096,1.395,0.383,2.082l2.483,6.305h0.038l2.407-6.305c0.268-0.668,0.401-1.413,0.401-2.082
			c0.133-0.058,0.42-0.096,0.668-0.096c0.134,0,0.383,0.02,0.555,0.076C174.275,226.485,174.142,227.307,173.76,228.242z"/>
		<path style="fill:#58595B;" d="M183.023,231.127h-6.399c0.076,2.197,1.108,3.859,3.496,3.859c0.859,0,1.662-0.114,2.369-0.287
			c0.038,0.096,0.076,0.287,0.076,0.401c0,0.191-0.038,0.363-0.096,0.497c-0.745,0.229-1.681,0.363-2.464,0.363
			c-1.51,0-2.656-0.478-3.362-1.242c-0.841-0.917-1.28-2.292-1.28-3.878c0-2.771,1.395-5.216,4.184-5.216
			c2.503,0,3.496,2.063,3.496,4.585C183.043,230.497,183.043,230.841,183.023,231.127z M181.801,230.21
			c0-1.757-0.19-3.648-2.312-3.648c-1.853,0-2.751,1.7-2.865,3.648H181.801z"/>
		<path style="fill:#58595B;" d="M189.576,226.733c-1.107,0.152-2.312,0.554-3.209,1.241v7.795
			c-0.191,0.058-0.421,0.096-0.631,0.096s-0.42-0.038-0.611-0.096v-9.953c0.115-0.038,0.287-0.076,0.478-0.076
			c0.153,0,0.363,0.038,0.517,0.076l0.095,1.223h0.02c0.821-0.707,2.254-1.299,3.343-1.414c0.038,0.115,0.077,0.325,0.077,0.497
			C189.653,226.313,189.614,226.562,189.576,226.733z"/>
		<path style="fill:#58595B;" d="M193.723,235.961c-0.956,0-1.949-0.172-2.637-0.439c-0.058-0.134-0.096-0.363-0.096-0.535
			c0-0.114,0.038-0.401,0.076-0.516c0.707,0.286,1.72,0.516,2.561,0.516c1.451,0,2.35-0.611,2.35-1.814
			c0-1.09-0.554-1.472-2.063-2.025c-2.102-0.765-2.789-1.643-2.789-2.942c0-1.757,1.452-2.579,3.324-2.579
			c0.63,0,1.452,0.115,1.93,0.268c0.057,0.172,0.076,0.344,0.076,0.459c0,0.152-0.038,0.42-0.076,0.554
			c-0.631-0.191-1.3-0.306-1.949-0.306c-1.356,0-2.178,0.516-2.178,1.566c0,0.917,0.516,1.356,2.083,1.949
			c1.433,0.534,2.75,1.069,2.75,2.999C197.084,235.062,195.613,235.961,193.723,235.961z"/>
		<path style="fill:#58595B;" d="M199.797,223.868c-0.439,0-0.803-0.383-0.803-0.841c0-0.459,0.363-0.821,0.803-0.821
			c0.438,0,0.821,0.362,0.821,0.821C200.618,223.485,200.235,223.868,199.797,223.868z M200.427,235.77
			c-0.172,0.058-0.42,0.096-0.63,0.096c-0.211,0-0.439-0.038-0.611-0.096v-9.953c0.152-0.038,0.4-0.096,0.592-0.096
			c0.21,0,0.497,0.038,0.649,0.096V235.77z"/>
		<path style="fill:#58595B;" d="M208.394,235.674c-0.497,0.172-1.241,0.287-1.796,0.287c-1.891,0-2.789-0.898-2.789-3.019v-6.151
			h-1.72c-0.038-0.096-0.057-0.325-0.057-0.439c0-0.096,0.019-0.325,0.057-0.421l1.72-0.114v-2.599
			c0.153-0.057,0.401-0.095,0.611-0.095s0.478,0.038,0.631,0.095v2.599h2.808c0.038,0.096,0.077,0.382,0.077,0.478
			c0,0.134-0.039,0.363-0.077,0.497h-2.808v6.036c0,1.51,0.439,2.14,1.623,2.14c0.65,0,1.28-0.095,1.72-0.229
			c0.038,0.095,0.076,0.324,0.076,0.458C208.47,235.368,208.451,235.502,208.394,235.674z"/>
		<path style="fill:#58595B;" d="M217.275,234.107c0,1.854-0.076,3.171-0.744,4.355c-0.765,1.356-2.273,2.006-3.63,2.006
			c-0.994,0-1.682-0.095-2.293-0.306c-0.058-0.114-0.076-0.306-0.076-0.458c0-0.115,0.038-0.363,0.076-0.478
			c0.573,0.172,1.261,0.306,2.178,0.306c2.102,0,3.248-1.51,3.248-4.127v-0.668c-0.975,0.859-2.063,1.223-3.057,1.223
			c-1.07,0-1.91-0.268-2.445-0.917c-0.593-0.707-0.669-1.739-0.669-2.771v-6.457c0.153-0.038,0.401-0.096,0.593-0.096
			c0.229,0,0.478,0.058,0.649,0.096v6.247c0,0.917,0.076,1.681,0.42,2.197c0.306,0.438,0.803,0.668,1.548,0.668
			c1.185,0,2.312-0.63,2.961-1.261v-7.852c0.172-0.038,0.42-0.096,0.649-0.096c0.191,0,0.439,0.058,0.592,0.096V234.107z"/>
	</g>
</g>
</svg>
