<?xml version="1.0" encoding="utf-8"?>
<!-- Generator: Adobe Illustrator 16.0.0, SVG Export Plug-In . SVG Version: 6.00 Build 0)  -->
<!DOCTYPE svg PUBLIC "-//W3C//DTD SVG 1.1//EN" "http://www.w3.org/Graphics/SVG/1.1/DTD/svg11.dtd">
<svg version="1.1" id="Layer_1" xmlns="http://www.w3.org/2000/svg" xmlns:xlink="http://www.w3.org/1999/xlink" x="0px" y="0px"
	 width="300px" height="300px" viewBox="0 0 300 300" enable-background="new 0 0 300 300" xml:space="preserve">
<g>
	<path fill="#66A827" d="M40.102,118.789c-1.636,0.251-3.334,0.377-5.284,0.377c-1.761,0-3.522-0.063-4.717-0.314l-8.617-15.284
		h-3.711v15.284c-1.572,0.251-2.893,0.314-4.591,0.314c-1.51,0-2.831-0.063-4.403-0.314V76.334
		c2.893-0.189,8.931-0.314,12.579-0.314c10.693,0,16.039,3.773,16.039,13.585c0,5.221-3.145,10.441-7.548,12.328L40.102,118.789z
		 M21.924,83.378c-1.384,0-3.082,0.063-4.151,0.125v12.58h3.145c5.157,0,7.422-1.887,7.422-6.542S26.075,83.378,21.924,83.378z"/>
	<path fill="#66A827" d="M69.282,109.732c0,2.705,0.062,5.787,0.062,9.12c-1.006,0.251-2.705,0.314-3.773,0.314
		c-1.195,0-2.768-0.126-3.774-0.314c-0.126-0.755-0.251-2.076-0.314-2.893h-0.126c-2.138,2.201-5.787,3.522-9.12,3.522
		c-6.29,0-10.818-3.899-10.818-10.378c0-10.063,8.931-11.762,16.416-11.762c0.503,0,1.698,0.063,2.705,0.126
		c0-0.377-0.063-1.195-0.126-1.51c-0.44-2.579-2.139-3.648-5.787-3.648c-2.83,0-6.793,0.566-9.812,1.321
		c-0.315-0.88-0.503-2.39-0.503-3.522c0-0.943,0.126-2.39,0.377-3.019c3.522-1.069,7.862-1.635,11.447-1.635
		c7.862,0,13.146,3.648,13.146,11.824V109.732z M60.602,103.505c-0.754-0.063-1.761-0.126-2.642-0.126
		c-5.661,0-7.862,2.264-7.862,5.095c0,2.453,1.635,4.151,4.465,4.151c2.076,0,4.403-1.006,6.038-2.453V103.505z"/>
	<path fill="#66A827" d="M103.935,118.852c-1.007,0.251-3.145,0.314-4.151,0.314c-1.069,0-3.522-0.126-4.529-0.314V97.341
		c0-3.396-1.761-4.843-4.591-4.843c-2.264,0-4.843,0.817-6.855,2.075v24.278c-1.447,0.251-3.459,0.314-4.592,0.314
		c-1.006,0-2.83-0.063-4.088-0.314V86.083c0.818-0.189,2.831-0.314,3.774-0.314c0.881,0,2.705,0.125,3.648,0.314l0.44,2.893
		c2.831-2.076,6.918-3.522,10.566-3.522c6.919,0,10.378,4.277,10.378,11.447V118.852z"/>
	<path fill="#66A827" d="M139.026,118.852c-1.069,0.188-3.271,0.314-4.717,0.314c-1.258,0-3.836-0.126-4.78-0.314l-8.366-14.089
		l-2.705,2.579v11.51c-1.132,0.251-3.459,0.314-4.465,0.314c-1.51,0-3.145-0.126-4.214-0.314V73
		c1.384-0.189,3.082-0.314,4.214-0.314c1.509,0,3.082,0.125,4.465,0.314v25.159l6.73-6.542c1.824-1.824,3.082-3.899,3.333-5.535
		c1.069-0.189,3.082-0.314,4.214-0.314c1.321,0,3.145,0.125,4.025,0.314c-0.251,3.271-1.887,6.227-5.472,9.812l-4.277,4.151
		L139.026,118.852z"/>
	<path fill="#66A827" d="M167.389,105.518h-19.875c0.125,4.088,2.956,7.107,8.428,7.107c2.956,0,5.976-0.377,8.555-1.069
		c0.377,1.698,0.629,3.585,0.629,5.283c0,0.251,0,0.566-0.063,1.258c-3.208,0.943-6.541,1.384-9.812,1.384
		c-11.951,0-16.919-6.855-16.919-16.856c0-8.743,4.906-17.17,15.536-17.17c10.063,0,13.711,7.421,13.711,15.598
		C167.577,102.185,167.577,103.883,167.389,105.518z M158.897,99.291c0-3.962-1.069-7.296-5.157-7.296
		c-3.899,0-5.975,3.082-6.227,7.296H158.897z"/>
	<path fill="#66A827" d="M199.463,118.852c-1.007,0.188-2.705,0.314-4.025,0.314c-1.195,0-2.579-0.126-3.46-0.314l-0.251-2.893
		c-2.265,2.201-5.158,3.522-8.554,3.522c-9.372,0-13.397-7.485-13.397-16.479c0-9.686,4.34-17.548,14.341-17.548
		c2.452,0,5.283,0.754,6.667,1.635V73c1.132-0.189,3.019-0.314,4.402-0.314c1.698,0,3.02,0.188,4.277,0.314V118.852z
		 M190.783,93.567c-1.51-0.692-3.46-1.069-5.095-1.069c-5.095,0-6.981,4.528-6.981,10c0,4.591,1.132,9.812,6.227,9.812
		c2.453,0,4.34-1.006,5.85-2.264V93.567z"/>
</g>
<g>
	<path fill="#66A827" d="M36.768,173.378c-1.006,0.252-3.145,0.314-4.151,0.314c-1.069,0-3.522-0.126-4.529-0.314v-21.511
		c0-3.396-1.761-4.843-4.591-4.843c-2.264,0-4.843,0.817-6.856,2.075v24.278c-1.446,0.252-3.459,0.314-4.591,0.314
		c-1.006,0-2.83-0.062-4.088-0.314v-32.769c0.818-0.189,2.831-0.314,3.774-0.314c0.88,0,2.705,0.125,3.648,0.314l0.44,2.893
		c2.83-2.076,6.918-3.522,10.566-3.522c6.919,0,10.378,4.277,10.378,11.447V173.378z"/>
	<path fill="#66A827" d="M70.665,160.735c0,9.372-4.403,13.271-14.215,13.271c-9.56,0-13.963-3.899-13.963-13.271v-20.126
		c0.88-0.126,2.579-0.314,4.277-0.314c1.509,0,3.396,0.125,4.403,0.314v20.064c0,4.906,1.447,6.667,5.409,6.667
		c4.025,0,5.409-1.761,5.409-6.667v-20.064c0.88-0.189,2.83-0.314,4.402-0.314c1.573,0,3.648,0.188,4.277,0.314V160.735z"/>
	<path fill="#66A827" d="M125.696,173.378c-1.006,0.252-3.145,0.314-4.151,0.314c-1.069,0-3.522-0.126-4.528-0.314v-19.75
		c0-2.39-0.063-4.151-0.944-5.22c-0.817-1.006-2.075-1.383-3.648-1.383c-2.138,0-5.157,0.943-7.107,2.138
		c0.062,1.069,0.125,2.138,0.125,3.397v20.818c-1.006,0.252-3.145,0.314-4.151,0.314c-1.069,0-3.522-0.126-4.529-0.314v-19.75
		c0-2.39-0.063-4.151-0.943-5.22c-0.818-1.006-2.076-1.383-3.648-1.383c-2.202,0-5.032,0.88-6.981,2.075v24.278
		c-1.447,0.252-3.459,0.314-4.592,0.314c-1.006,0-2.83-0.062-4.088-0.314v-32.769c0.818-0.189,2.831-0.314,3.774-0.314
		c0.881,0,2.705,0.125,3.648,0.314l0.377,2.956c2.768-2.076,6.73-3.585,10.252-3.585c3.648,0,6.855,1.258,9.309,3.962
		c3.396-2.327,7.485-3.962,11.636-3.962c3.082,0,6.227,1.258,7.799,3.145c1.95,2.327,2.39,5.346,2.39,9.938V173.378z"/>
	<path fill="#66A827" d="M143.804,174.007c-3.019,0-8.177-0.377-12.265-1.95v-44.53c0.944-0.189,2.705-0.314,4.214-0.314
		c1.887,0,3.774,0.188,4.466,0.314v14.529c1.95-1.069,4.906-2.075,7.673-2.075c9.812,0,13.333,7.862,13.333,15.724
		C161.226,166.522,155.565,174.007,143.804,174.007z M146.194,147.024c-2.076,0-4.34,0.691-5.975,1.761v17.988
		c0.943,0.252,2.642,0.44,4.34,0.44c5.535,0,7.736-3.899,7.736-11.007C152.295,151.301,150.848,147.024,146.194,147.024z"/>
	<path fill="#66A827" d="M192.482,160.044h-19.876c0.126,4.088,2.956,7.107,8.429,7.107c2.956,0,5.975-0.378,8.554-1.069
		c0.377,1.698,0.629,3.585,0.629,5.283c0,0.252,0,0.566-0.062,1.258c-3.208,0.943-6.542,1.384-9.812,1.384
		c-11.95,0-16.919-6.855-16.919-16.856c0-8.743,4.906-17.17,15.535-17.17c10.063,0,13.712,7.421,13.712,15.598
		C192.671,156.71,192.671,158.408,192.482,160.044z M183.991,153.817c0-3.963-1.069-7.296-5.157-7.296
		c-3.9,0-5.976,3.082-6.228,7.296H183.991z"/>
	<path fill="#66A827" d="M215.372,147.276c-3.271,0.503-6.792,1.635-9.938,3.271v22.832c-0.88,0.188-2.768,0.314-4.276,0.314
		c-1.51,0-3.711-0.126-4.403-0.314v-32.769c0.943-0.126,2.516-0.314,3.774-0.314c1.068,0,2.767,0.125,3.647,0.314l0.503,4.025
		c2.327-2.076,6.542-4.34,10.63-4.654c0.126,0.503,0.252,2.327,0.252,3.648C215.562,144.886,215.498,146.395,215.372,147.276z"/>
	<path fill="#66A827" d="M250.779,173.378c-0.943,0.188-2.642,0.314-4.466,0.314c-1.761,0-3.333-0.126-4.466-0.314V140.86
		l-8.931,5.912c-2.139-1.95-3.648-4.591-4.215-6.855l14.781-9.057c0.88-0.189,2.704-0.314,3.647-0.314
		c1.069,0,3.02,0.188,3.648,0.314V173.378z"/>
</g>
<path fill="#333333" d="M261.528,114.245v-2.234c0-6.676-0.004-13.348,0.002-20.02c0.003-2.662,0.675-3.345,3.301-3.349
	c6.737-0.008,13.474,0,20.209,0h2.042V69.983h-2.179c-6.674,0-13.346,0.004-20.016,0c-2.662-0.004-3.354-0.682-3.357-3.298
	c-0.008-6.739-0.002-13.478-0.002-20.212V44.43h-18.657v2.181c0,6.671,0.007,13.343-0.002,20.015
	c-0.002,2.645-0.697,3.353-3.306,3.357c-6.737,0.008-13.474,0-20.21,0h-2.033v18.659h2.188c6.67,0,13.339-0.004,20.011,0
	c2.651,0.004,3.349,0.687,3.351,3.307c0.009,6.735,0.002,13.473,0.002,20.208v2.088H261.528z M266.191,65.32
	c7.629,0,14.944-0.004,22.261,0.004c2.739,0,3.386,0.661,3.392,3.458c0.004,7.056,0.004,14.118,0,21.174
	c-0.006,2.637-0.704,3.34-3.32,3.345c-6.672,0.008-13.339,0.004-20.009,0.004h-2.323v2.218c0,6.73,0.007,13.469-0.004,20.199
	c-0.002,2.491-0.738,3.228-3.237,3.228c-7.188,0.012-14.375,0.012-21.564,0c-2.474-0.004-3.17-0.729-3.175-3.281
	c-0.006-6.668-0.002-13.34-0.002-20.011v-2.353c-0.812,0-1.499,0-2.185,0c-6.734,0-13.47,0.004-20.204-0.004
	c-2.528-0.004-3.256-0.72-3.261-3.202c-0.008-7.187-0.008-14.374,0-21.56c0.005-2.503,0.721-3.21,3.24-3.214
	c7.374-0.008,14.752-0.004,22.409-0.004v-2.139c0-6.735-0.004-13.469,0.002-20.204c0.003-2.683,0.628-3.306,3.307-3.306
	c7.121-0.004,14.245-0.008,21.369,0c2.62,0,3.301,0.694,3.303,3.353c0.007,6.667,0.002,13.335,0.002,20.007V65.32z"/>
<g>
	<path fill="#333333" d="M14.876,189.669c-0.322-0.086-0.9-0.172-1.35-0.172c-0.814,0-1.414,0.215-1.821,0.665
		c-0.621,0.664-0.729,1.563-0.729,2.699v0.364h3.021c0.043,0.106,0.085,0.364,0.085,0.514c0,0.172-0.042,0.429-0.085,0.578h-3.021
		v10.069c-0.193,0.064-0.407,0.107-0.686,0.107c-0.278,0-0.514-0.043-0.707-0.107v-10.069H7.657
		c-0.043-0.106-0.064-0.386-0.064-0.514c0-0.107,0.021-0.343,0.064-0.45l1.928-0.128v-0.364c0-1.521,0.257-2.571,1.135-3.449
		c0.621-0.621,1.542-0.922,2.592-0.922c0.557,0,1.178,0.129,1.564,0.279c0.042,0.106,0.064,0.257,0.064,0.406
		C14.94,189.305,14.919,189.562,14.876,189.669z"/>
	<path fill="#333333" d="M19.484,204.601c-2.806,0-4.606-1.928-4.606-5.784c0-3.855,1.821-5.806,4.627-5.806
		s4.584,1.907,4.584,5.763C24.09,202.63,22.291,204.601,19.484,204.601z M19.506,194.061c-2.057,0-3.17,1.586-3.17,4.734
		c0,3.149,1.092,4.756,3.149,4.756s3.149-1.606,3.149-4.756C22.634,195.646,21.562,194.061,19.506,194.061z"/>
	<path fill="#333333" d="M31.377,194.254c-1.242,0.171-2.592,0.621-3.599,1.393v8.74c-0.214,0.064-0.471,0.107-0.707,0.107
		c-0.235,0-0.471-0.043-0.686-0.107v-11.161c0.129-0.043,0.322-0.086,0.536-0.086c0.171,0,0.407,0.043,0.579,0.086l0.107,1.371
		h0.021c0.921-0.793,2.528-1.457,3.749-1.586c0.043,0.129,0.086,0.364,0.086,0.558C31.463,193.782,31.42,194.061,31.377,194.254z"/>
	<path fill="#333333" d="M45.049,203.229c-0.835,0.75-2.142,1.157-3.385,1.157c-0.878,0-1.692-0.15-2.292-0.364v5.398
		c-0.214,0.064-0.407,0.107-0.707,0.107c-0.236,0-0.515-0.043-0.686-0.107v-16.195c0.107-0.043,0.364-0.086,0.578-0.086
		s0.407,0.043,0.557,0.086l0.128,1.178h0.021c0.814-0.856,2.035-1.393,3.278-1.393c1.35,0,2.549,0.579,3.299,1.649
		c0.621,0.9,1.007,2.186,1.007,3.749C46.849,200.552,46.185,202.201,45.049,203.229z M42.393,194.146
		c-1.136,0-2.271,0.471-3.021,1.414v7.369c0.557,0.258,1.414,0.407,2.143,0.407c2.313,0,3.877-1.521,3.877-4.863
		C45.392,195.839,44.363,194.146,42.393,194.146z"/>
	<path fill="#333333" d="M57.714,204.387c-0.193,0.064-0.429,0.107-0.643,0.107c-0.257,0-0.536-0.043-0.75-0.107v-6.77
		c0-2.356-0.6-3.428-2.592-3.428c-1.071,0-2.357,0.6-3.192,1.242v8.955c-0.235,0.064-0.493,0.107-0.728,0.107
		c-0.214,0-0.472-0.043-0.664-0.107v-15.639c0.192-0.064,0.493-0.107,0.686-0.107c0.192,0,0.514,0.043,0.707,0.107v5.506
		c1.136-0.879,2.485-1.243,3.535-1.243c1.092,0,2.207,0.364,2.828,1.114c0.686,0.814,0.814,1.992,0.814,3.149V204.387z"/>
	<path fill="#333333" d="M68.193,201.645c0,0.771,0,1.735,0.043,2.742c-0.15,0.064-0.386,0.107-0.579,0.107
		c-0.171,0-0.407-0.043-0.579-0.107c-0.064-0.343-0.107-0.793-0.128-1.199h-0.021c-0.728,0.899-2.014,1.413-3.278,1.413
		c-1.992,0-3.663-1.113-3.663-3.406c0-1.307,0.536-2.271,1.371-2.87c0.942-0.664,2.185-0.879,3.513-0.879
		c0.75,0,1.371,0.043,1.928,0.129v-0.621c0-2.143-0.878-2.85-2.678-2.85c-1.007,0-2.25,0.214-3.021,0.407
		c-0.042-0.107-0.085-0.343-0.085-0.558c0-0.149,0.043-0.363,0.107-0.492c0.921-0.278,2.143-0.45,3.171-0.45
		c2.549,0,3.899,1.157,3.899,3.771V201.645z M66.801,198.624c-0.621-0.086-1.264-0.129-1.821-0.129c-1.05,0-1.993,0.193-2.635,0.686
		c-0.578,0.429-0.9,1.114-0.9,1.992c0,1.564,1.007,2.314,2.399,2.314c1.157,0,2.378-0.558,2.957-1.436V198.624z"/>
	<path fill="#333333" d="M76.144,194.254c-1.242,0.171-2.592,0.621-3.599,1.393v8.74c-0.214,0.064-0.471,0.107-0.707,0.107
		c-0.235,0-0.471-0.043-0.686-0.107v-11.161c0.129-0.043,0.322-0.086,0.536-0.086c0.171,0,0.407,0.043,0.579,0.086l0.107,1.371
		h0.021c0.921-0.793,2.528-1.457,3.749-1.586c0.043,0.129,0.086,0.364,0.086,0.558C76.23,193.782,76.187,194.061,76.144,194.254z"/>
	<path fill="#333333" d="M93.821,204.408c-0.214,0.043-0.428,0.086-0.643,0.086c-0.257,0-0.493-0.064-0.75-0.107v-6.77
		c0-2.356-0.6-3.428-2.592-3.428c-1.028,0-2.399,0.535-3.256,1.156c0.171,0.601,0.214,1.265,0.214,1.929v7.112
		c-0.214,0.064-0.429,0.107-0.643,0.107c-0.279,0-0.536-0.043-0.75-0.107v-6.77c0-2.356-0.536-3.428-2.528-3.428
		c-1.071,0-2.335,0.6-3.171,1.242v8.955c-0.235,0.064-0.514,0.107-0.771,0.107c-0.214,0-0.45-0.043-0.621-0.107v-11.161
		c0.107-0.043,0.343-0.086,0.578-0.086c0.193,0,0.429,0.043,0.579,0.086l0.107,1.113h0.021c1.178-0.964,2.528-1.328,3.621-1.328
		c1.092,0,2.142,0.364,2.764,1.114c0.085,0.086,0.15,0.192,0.214,0.3c1.135-0.921,2.592-1.414,3.984-1.414
		c1.093,0,2.207,0.364,2.828,1.114c0.686,0.814,0.814,1.992,0.814,3.149V204.408z"/>
	<path fill="#333333" d="M104.303,201.645c0,0.771,0,1.735,0.043,2.742c-0.15,0.064-0.386,0.107-0.579,0.107
		c-0.171,0-0.407-0.043-0.579-0.107c-0.064-0.343-0.107-0.793-0.128-1.199h-0.021c-0.728,0.899-2.014,1.413-3.278,1.413
		c-1.992,0-3.663-1.113-3.663-3.406c0-1.307,0.536-2.271,1.371-2.87c0.942-0.664,2.185-0.879,3.513-0.879
		c0.75,0,1.371,0.043,1.928,0.129v-0.621c0-2.143-0.878-2.85-2.678-2.85c-1.007,0-2.25,0.214-3.021,0.407
		c-0.042-0.107-0.085-0.343-0.085-0.558c0-0.149,0.043-0.363,0.107-0.492c0.921-0.278,2.143-0.45,3.171-0.45
		c2.549,0,3.899,1.157,3.899,3.771V201.645z M102.91,198.624c-0.621-0.086-1.264-0.129-1.821-0.129c-1.05,0-1.993,0.193-2.635,0.686
		c-0.578,0.429-0.9,1.114-0.9,1.992c0,1.564,1.007,2.314,2.399,2.314c1.157,0,2.378-0.558,2.957-1.436V198.624z"/>
	<path fill="#333333" d="M114.289,194.575c-0.686-0.279-1.585-0.45-2.378-0.45c-2.785,0-3.813,2.164-3.813,4.777
		c0,2.57,0.985,4.563,3.792,4.563c0.75,0,1.649-0.129,2.313-0.321c0.043,0.128,0.086,0.278,0.086,0.449
		c0,0.258-0.043,0.45-0.107,0.601c-0.621,0.257-1.628,0.406-2.421,0.406c-3.492,0-5.12-2.292-5.12-5.655
		c0-3.492,1.778-5.935,5.185-5.935c0.814,0,1.778,0.193,2.442,0.493c0.064,0.171,0.085,0.343,0.085,0.535
		C114.353,194.254,114.332,194.425,114.289,194.575z"/>
	<path fill="#333333" d="M124.896,202.522c0,2.078-0.086,3.557-0.835,4.885c-0.857,1.521-2.549,2.25-4.07,2.25
		c-1.114,0-1.885-0.107-2.571-0.343c-0.064-0.129-0.086-0.343-0.086-0.515c0-0.128,0.043-0.407,0.086-0.535
		c0.643,0.192,1.414,0.343,2.442,0.343c2.357,0,3.642-1.692,3.642-4.628v-0.75c-1.093,0.965-2.313,1.371-3.428,1.371
		c-1.2,0-2.142-0.3-2.742-1.028c-0.664-0.792-0.75-1.949-0.75-3.106v-7.24c0.172-0.043,0.45-0.107,0.665-0.107
		c0.257,0,0.536,0.064,0.728,0.107v7.005c0,1.028,0.086,1.886,0.472,2.464c0.343,0.493,0.899,0.75,1.735,0.75
		c1.328,0,2.592-0.707,3.32-1.414v-8.805c0.193-0.043,0.471-0.107,0.729-0.107c0.214,0,0.493,0.064,0.664,0.107V202.522z"/>
	<path fill="#333333" d="M139.875,201.645c0,0.771,0,1.735,0.043,2.742c-0.15,0.064-0.386,0.107-0.579,0.107
		c-0.171,0-0.407-0.043-0.578-0.107c-0.064-0.343-0.107-0.793-0.129-1.199h-0.021c-0.728,0.899-2.014,1.413-3.277,1.413
		c-1.993,0-3.664-1.113-3.664-3.406c0-1.307,0.536-2.271,1.371-2.87c0.942-0.664,2.185-0.879,3.513-0.879
		c0.75,0,1.371,0.043,1.928,0.129v-0.621c0-2.143-0.878-2.85-2.678-2.85c-1.007,0-2.25,0.214-3.021,0.407
		c-0.042-0.107-0.085-0.343-0.085-0.558c0-0.149,0.043-0.363,0.107-0.492c0.921-0.278,2.143-0.45,3.171-0.45
		c2.549,0,3.899,1.157,3.899,3.771V201.645z M138.483,198.624c-0.621-0.086-1.264-0.129-1.821-0.129
		c-1.05,0-1.993,0.193-2.635,0.686c-0.579,0.429-0.9,1.114-0.9,1.992c0,1.564,1.007,2.314,2.399,2.314
		c1.157,0,2.378-0.558,2.957-1.436V198.624z"/>
	<path fill="#333333" d="M151.404,204.408c-0.171,0.043-0.428,0.086-0.686,0.086c-0.214,0-0.493-0.043-0.707-0.107v-6.791
		c0-1.028-0.129-1.821-0.429-2.378c-0.364-0.686-1.05-1.028-2.164-1.028c-1.071,0-2.356,0.6-3.192,1.242v8.955
		c-0.235,0.064-0.471,0.107-0.728,0.107c-0.214,0-0.472-0.043-0.665-0.107v-11.161c0.15-0.064,0.407-0.086,0.557-0.086
		c0.214,0,0.471,0.021,0.6,0.086l0.107,1.113h0.021c1.178-0.964,2.528-1.328,3.621-1.328s2.228,0.364,2.849,1.114
		c0.686,0.814,0.814,1.992,0.814,3.149V204.408z"/>
	<path fill="#333333" d="M161.948,204.494c-0.192,0-0.428-0.064-0.557-0.107l-0.129-1.285h-0.021
		c-0.921,0.964-2.014,1.499-3.234,1.499c-2.957,0-4.37-2.463-4.37-5.463c0-2.978,1.264-6.127,4.67-6.127
		c1.071,0,2.057,0.364,2.85,0.921v-5.184c0.192-0.064,0.449-0.107,0.686-0.107c0.257,0,0.514,0.064,0.707,0.107v15.639
		C162.398,204.451,162.185,204.494,161.948,204.494z M161.156,195.11c-0.771-0.643-1.757-0.964-2.764-0.964
		c-2.485,0-3.321,2.442-3.321,4.928c0,1.906,0.601,4.392,3,4.392c1.156,0,2.335-0.579,3.085-1.479V195.11z"/>
	<path fill="#333333" d="M176.971,203.229c-0.835,0.75-2.143,1.157-3.385,1.157c-0.878,0-1.692-0.15-2.292-0.364v5.398
		c-0.215,0.064-0.407,0.107-0.707,0.107c-0.236,0-0.515-0.043-0.686-0.107v-16.195c0.106-0.043,0.364-0.086,0.578-0.086
		s0.407,0.043,0.557,0.086l0.129,1.178h0.021c0.814-0.856,2.035-1.393,3.277-1.393c1.351,0,2.55,0.579,3.3,1.649
		c0.621,0.9,1.007,2.186,1.007,3.749C178.771,200.552,178.106,202.201,176.971,203.229z M174.314,194.146
		c-1.136,0-2.271,0.471-3.021,1.414v7.369c0.557,0.258,1.414,0.407,2.142,0.407c2.314,0,3.878-1.521,3.878-4.863
		C177.313,195.839,176.285,194.146,174.314,194.146z"/>
	<path fill="#333333" d="M189.636,204.387c-0.193,0.064-0.429,0.107-0.643,0.107c-0.258,0-0.536-0.043-0.75-0.107v-6.77
		c0-2.356-0.6-3.428-2.593-3.428c-1.07,0-2.356,0.6-3.191,1.242v8.955c-0.236,0.064-0.493,0.107-0.729,0.107
		c-0.215,0-0.472-0.043-0.664-0.107v-15.639c0.192-0.064,0.492-0.107,0.686-0.107c0.192,0,0.514,0.043,0.707,0.107v5.506
		c1.135-0.879,2.484-1.243,3.534-1.243c1.093,0,2.207,0.364,2.828,1.114c0.686,0.814,0.814,1.992,0.814,3.149V204.387z"/>
	<path fill="#333333" d="M200.115,201.645c0,0.771,0,1.735,0.042,2.742c-0.149,0.064-0.386,0.107-0.578,0.107
		c-0.171,0-0.407-0.043-0.578-0.107c-0.064-0.343-0.107-0.793-0.129-1.199h-0.021c-0.729,0.899-2.014,1.413-3.277,1.413
		c-1.992,0-3.664-1.113-3.664-3.406c0-1.307,0.536-2.271,1.371-2.87c0.943-0.664,2.186-0.879,3.514-0.879
		c0.75,0,1.371,0.043,1.929,0.129v-0.621c0-2.143-0.879-2.85-2.679-2.85c-1.007,0-2.249,0.214-3.021,0.407
		c-0.043-0.107-0.086-0.343-0.086-0.558c0-0.149,0.043-0.363,0.107-0.492c0.921-0.278,2.143-0.45,3.171-0.45
		c2.549,0,3.899,1.157,3.899,3.771V201.645z M198.723,198.624c-0.622-0.086-1.265-0.129-1.821-0.129
		c-1.05,0-1.992,0.193-2.635,0.686c-0.579,0.429-0.9,1.114-0.9,1.992c0,1.564,1.007,2.314,2.399,2.314
		c1.157,0,2.378-0.558,2.957-1.436V198.624z"/>
	<path fill="#333333" d="M208.065,194.254c-1.242,0.171-2.592,0.621-3.599,1.393v8.74c-0.215,0.064-0.472,0.107-0.707,0.107
		c-0.236,0-0.472-0.043-0.686-0.107v-11.161c0.128-0.043,0.321-0.086,0.535-0.086c0.172,0,0.407,0.043,0.578,0.086l0.107,1.371
		h0.021c0.921-0.793,2.528-1.457,3.749-1.586c0.043,0.129,0.086,0.364,0.086,0.558C208.151,193.782,208.108,194.061,208.065,194.254
		z"/>
	<path fill="#333333" d="M225.742,204.408c-0.214,0.043-0.428,0.086-0.643,0.086c-0.257,0-0.492-0.064-0.749-0.107v-6.77
		c0-2.356-0.601-3.428-2.593-3.428c-1.028,0-2.399,0.535-3.256,1.156c0.171,0.601,0.214,1.265,0.214,1.929v7.112
		c-0.214,0.064-0.429,0.107-0.643,0.107c-0.278,0-0.536-0.043-0.75-0.107v-6.77c0-2.356-0.535-3.428-2.528-3.428
		c-1.07,0-2.335,0.6-3.17,1.242v8.955c-0.236,0.064-0.515,0.107-0.771,0.107c-0.214,0-0.45-0.043-0.621-0.107v-11.161
		c0.106-0.043,0.343-0.086,0.578-0.086c0.193,0,0.429,0.043,0.578,0.086l0.107,1.113h0.021c1.179-0.964,2.528-1.328,3.62-1.328
		c1.093,0,2.143,0.364,2.764,1.114c0.086,0.086,0.15,0.192,0.215,0.3c1.135-0.921,2.592-1.414,3.984-1.414
		c1.093,0,2.207,0.364,2.828,1.114c0.686,0.814,0.813,1.992,0.813,3.149V204.408z"/>
	<path fill="#333333" d="M236.225,201.645c0,0.771,0,1.735,0.042,2.742c-0.149,0.064-0.386,0.107-0.578,0.107
		c-0.171,0-0.407-0.043-0.578-0.107c-0.064-0.343-0.107-0.793-0.129-1.199h-0.021c-0.729,0.899-2.014,1.413-3.277,1.413
		c-1.992,0-3.664-1.113-3.664-3.406c0-1.307,0.536-2.271,1.371-2.87c0.943-0.664,2.186-0.879,3.514-0.879
		c0.75,0,1.371,0.043,1.929,0.129v-0.621c0-2.143-0.879-2.85-2.679-2.85c-1.007,0-2.249,0.214-3.021,0.407
		c-0.043-0.107-0.086-0.343-0.086-0.558c0-0.149,0.043-0.363,0.107-0.492c0.921-0.278,2.143-0.45,3.171-0.45
		c2.549,0,3.899,1.157,3.899,3.771V201.645z M234.832,198.624c-0.622-0.086-1.265-0.129-1.821-0.129
		c-1.05,0-1.992,0.193-2.635,0.686c-0.579,0.429-0.9,1.114-0.9,1.992c0,1.564,1.007,2.314,2.399,2.314
		c1.157,0,2.378-0.558,2.957-1.436V198.624z"/>
	<path fill="#333333" d="M246.21,194.575c-0.686-0.279-1.585-0.45-2.378-0.45c-2.785,0-3.813,2.164-3.813,4.777
		c0,2.57,0.985,4.563,3.792,4.563c0.75,0,1.649-0.129,2.314-0.321c0.042,0.128,0.085,0.278,0.085,0.449
		c0,0.258-0.043,0.45-0.106,0.601c-0.622,0.257-1.629,0.406-2.421,0.406c-3.492,0-5.12-2.292-5.12-5.655
		c0-3.492,1.777-5.935,5.184-5.935c0.814,0,1.778,0.193,2.442,0.493c0.064,0.171,0.086,0.343,0.086,0.535
		C246.274,194.254,246.253,194.425,246.21,194.575z"/>
	<path fill="#333333" d="M252.49,204.601c-2.807,0-4.605-1.928-4.605-5.784c0-3.855,1.82-5.806,4.627-5.806s4.585,1.907,4.585,5.763
		C257.097,202.63,255.297,204.601,252.49,204.601z M252.512,194.061c-2.057,0-3.171,1.586-3.171,4.734
		c0,3.149,1.093,4.756,3.149,4.756s3.149-1.606,3.149-4.756C255.64,195.646,254.568,194.061,252.512,194.061z"/>
	<path fill="#333333" d="M260.828,204.387c-0.236,0.064-0.472,0.107-0.729,0.107c-0.215,0-0.472-0.043-0.664-0.107v-15.639
		c0.192-0.043,0.428-0.107,0.707-0.107c0.235,0,0.492,0.043,0.686,0.107V204.387z"/>
	<path fill="#333333" d="M267.77,204.601c-2.807,0-4.605-1.928-4.605-5.784c0-3.855,1.82-5.806,4.627-5.806s4.585,1.907,4.585,5.763
		C272.376,202.63,270.576,204.601,267.77,204.601z M267.791,194.061c-2.057,0-3.171,1.586-3.171,4.734
		c0,3.149,1.093,4.756,3.149,4.756s3.149-1.606,3.149-4.756C270.919,195.646,269.848,194.061,267.791,194.061z"/>
	<path fill="#333333" d="M282.748,202.522c0,1.607-0.086,3.535-0.856,4.863c-0.922,1.586-2.571,2.271-4.221,2.271
		c-0.942,0-1.757-0.107-2.442-0.343c-0.064-0.129-0.086-0.343-0.086-0.515c0-0.128,0.043-0.386,0.086-0.514
		c0.664,0.171,1.436,0.3,2.207,0.3c2.699,0,3.92-1.671,3.92-4.606v-0.899c-0.835,0.878-2.014,1.307-2.978,1.307
		c-2.85,0-4.327-2.207-4.327-5.312c0-3.813,2.249-6.063,5.569-6.063c0.879,0,2.207,0.257,3.128,0.621V202.522z M281.355,194.317
		c-0.771-0.214-1.328-0.278-1.863-0.278c-2.721,0-4.007,2.293-4.007,4.971c0,2.378,0.9,4.241,3,4.241
		c1.071,0,2.163-0.535,2.87-1.285V194.317z"/>
	<path fill="#333333" d="M293.977,202.522c0,2.078-0.085,3.557-0.835,4.885c-0.857,1.521-2.55,2.25-4.07,2.25
		c-1.114,0-1.886-0.107-2.571-0.343c-0.064-0.129-0.085-0.343-0.085-0.515c0-0.128,0.042-0.407,0.085-0.535
		c0.643,0.192,1.414,0.343,2.442,0.343c2.356,0,3.643-1.692,3.643-4.628v-0.75c-1.093,0.965-2.314,1.371-3.428,1.371
		c-1.2,0-2.143-0.3-2.742-1.028c-0.665-0.792-0.75-1.949-0.75-3.106v-7.24c0.171-0.043,0.449-0.107,0.664-0.107
		c0.257,0,0.535,0.064,0.729,0.107v7.005c0,1.028,0.085,1.886,0.471,2.464c0.343,0.493,0.9,0.75,1.735,0.75
		c1.328,0,2.593-0.707,3.321-1.414v-8.805c0.192-0.043,0.471-0.107,0.728-0.107c0.215,0,0.493,0.064,0.664,0.107V202.522z"/>
</g>
<g>
	<path fill="#333333" d="M9.328,216.757c-0.493,0-0.9-0.429-0.9-0.942c0-0.515,0.407-0.922,0.9-0.922s0.921,0.407,0.921,0.922
		C10.249,216.328,9.82,216.757,9.328,216.757z M10.035,230.104c-0.193,0.064-0.471,0.107-0.707,0.107s-0.493-0.043-0.686-0.107
		v-11.161c0.171-0.043,0.45-0.107,0.664-0.107c0.236,0,0.557,0.043,0.729,0.107V230.104z"/>
	<path fill="#333333" d="M21.604,230.125c-0.171,0.043-0.428,0.086-0.686,0.086c-0.214,0-0.493-0.043-0.707-0.107v-6.791
		c0-1.028-0.129-1.821-0.429-2.378c-0.364-0.686-1.05-1.028-2.164-1.028c-1.071,0-2.356,0.6-3.192,1.242v8.955
		c-0.235,0.064-0.471,0.107-0.728,0.107c-0.214,0-0.472-0.043-0.665-0.107v-11.161c0.15-0.064,0.407-0.086,0.557-0.086
		c0.214,0,0.471,0.021,0.6,0.086l0.107,1.113h0.021c1.178-0.964,2.528-1.328,3.621-1.328s2.228,0.364,2.849,1.114
		c0.686,0.814,0.814,1.992,0.814,3.149V230.125z"/>
	<path fill="#333333" d="M35.106,229.996c-0.557,0.193-1.393,0.321-2.014,0.321c-2.121,0-3.128-1.007-3.128-3.385v-6.898h-1.928
		c-0.043-0.106-0.064-0.364-0.064-0.492c0-0.107,0.021-0.364,0.064-0.472l1.928-0.128v-2.914c0.171-0.064,0.45-0.107,0.686-0.107
		s0.536,0.043,0.707,0.107v2.914h3.149c0.043,0.106,0.086,0.428,0.086,0.535c0,0.15-0.043,0.407-0.086,0.557h-3.149v6.771
		c0,1.692,0.493,2.399,1.821,2.399c0.729,0,1.436-0.107,1.928-0.258c0.043,0.107,0.085,0.364,0.085,0.515
		C35.191,229.653,35.17,229.804,35.106,229.996z"/>
	<path fill="#333333" d="M45.756,230.104c-0.193,0.064-0.429,0.107-0.643,0.107c-0.257,0-0.536-0.043-0.75-0.107v-6.77
		c0-2.356-0.6-3.428-2.592-3.428c-1.071,0-2.357,0.6-3.192,1.242v8.955c-0.235,0.064-0.493,0.107-0.728,0.107
		c-0.214,0-0.472-0.043-0.664-0.107v-15.639c0.192-0.064,0.493-0.107,0.686-0.107c0.192,0,0.514,0.043,0.707,0.107v5.506
		c1.136-0.879,2.485-1.243,3.535-1.243c1.092,0,2.207,0.364,2.828,1.114c0.686,0.814,0.814,1.992,0.814,3.149V230.104z"/>
	<path fill="#333333" d="M56.578,224.897h-7.177c0.085,2.464,1.243,4.328,3.92,4.328c0.964,0,1.864-0.129,2.656-0.321
		c0.043,0.106,0.086,0.321,0.086,0.449c0,0.215-0.043,0.407-0.107,0.558c-0.835,0.257-1.885,0.406-2.764,0.406
		c-1.692,0-2.978-0.535-3.771-1.393c-0.943-1.028-1.436-2.57-1.436-4.349c0-3.106,1.564-5.849,4.692-5.849
		c2.806,0,3.92,2.313,3.92,5.142C56.599,224.19,56.599,224.576,56.578,224.897z M55.207,223.869c0-1.971-0.214-4.092-2.592-4.092
		c-2.078,0-3.085,1.907-3.213,4.092H55.207z"/>
	<path fill="#333333" d="M65.387,225.154c0,1.414,0.236,2.485,0.857,3.171c0.536,0.579,1.35,0.921,2.571,0.921
		s2.057-0.342,2.592-0.921c0.622-0.686,0.857-1.757,0.857-3.171v-9.533c0.193-0.064,0.536-0.106,0.729-0.106
		c0.214,0,0.536,0.042,0.729,0.106v9.319c0,1.907-0.364,3.235-1.264,4.135c-0.792,0.793-1.992,1.242-3.642,1.242
		c-1.649,0-2.828-0.449-3.621-1.242c-0.899-0.899-1.264-2.228-1.264-4.135v-9.319c0.171-0.064,0.471-0.106,0.729-0.106
		c0.257,0,0.514,0.042,0.728,0.106V225.154z"/>
	<path fill="#333333" d="M86.75,230.104c-0.171,0.064-0.514,0.107-0.771,0.107c-0.257,0-0.557-0.021-0.921-0.107l-4.777-7.112
		l-1.542,1.735v5.377c-0.171,0.064-0.514,0.107-0.75,0.107c-0.235,0-0.536-0.043-0.707-0.107v-14.482
		c0.171-0.064,0.472-0.106,0.707-0.106c0.236,0,0.579,0.042,0.75,0.106v7.263l4.563-5.228c0.643-0.729,0.985-1.436,1.093-2.035
		c0.193-0.021,0.471-0.064,0.686-0.064s0.557,0.043,0.707,0.064c-0.043,0.686-0.472,1.607-1.35,2.614l-3.214,3.706L86.75,230.104z"
		/>
	<path fill="#333333" d="M96.609,230.317c-0.985,0-2.249-0.149-3.428-0.578v-15.274c0.15-0.043,0.472-0.107,0.665-0.107
		c0.343,0,0.6,0.064,0.728,0.107v5.42c0.878-0.729,1.993-1.157,3.171-1.157c3.021,0,4.285,2.593,4.285,5.484
		C102.03,227.896,100.145,230.317,96.609,230.317z M97.552,219.928c-1.071,0-2.142,0.449-2.978,1.285v7.691
		c0.579,0.214,1.307,0.342,1.928,0.342c2.978,0,4.07-2.271,4.07-4.948C100.573,222.22,99.973,219.928,97.552,219.928z"/>
	<path fill="#333333" d="M112.659,228.239c0,2.078-0.086,3.557-0.835,4.885c-0.857,1.521-2.549,2.25-4.07,2.25
		c-1.114,0-1.885-0.107-2.571-0.343c-0.064-0.129-0.086-0.343-0.086-0.515c0-0.128,0.043-0.407,0.086-0.535
		c0.643,0.192,1.414,0.343,2.442,0.343c2.357,0,3.642-1.692,3.642-4.628v-0.75c-1.093,0.965-2.313,1.371-3.428,1.371
		c-1.2,0-2.142-0.3-2.742-1.028c-0.664-0.792-0.75-1.949-0.75-3.106v-7.24c0.172-0.043,0.45-0.107,0.665-0.107
		c0.257,0,0.536,0.064,0.728,0.107v7.005c0,1.028,0.086,1.886,0.472,2.464c0.343,0.493,0.899,0.75,1.735,0.75
		c1.328,0,2.592-0.707,3.32-1.414v-8.805c0.193-0.043,0.471-0.107,0.729-0.107c0.214,0,0.493,0.064,0.664,0.107V228.239z"/>
	<path fill="#333333" d="M128.109,216.735h-4.22v13.368c-0.171,0.064-0.493,0.107-0.729,0.107c-0.235,0-0.557-0.043-0.728-0.107
		v-13.368h-4.221c-0.064-0.129-0.107-0.364-0.107-0.557c0-0.172,0.042-0.407,0.107-0.558h9.897c0.064,0.15,0.107,0.386,0.107,0.558
		C128.217,216.371,128.174,216.606,128.109,216.735z"/>
	<path fill="#333333" d="M138.803,230.104c-0.192,0.064-0.428,0.107-0.643,0.107c-0.257,0-0.536-0.043-0.75-0.107v-6.77
		c0-2.356-0.6-3.428-2.592-3.428c-1.071,0-2.356,0.6-3.192,1.242v8.955c-0.235,0.064-0.493,0.107-0.728,0.107
		c-0.214,0-0.472-0.043-0.665-0.107v-15.639c0.193-0.064,0.493-0.107,0.686-0.107c0.193,0,0.515,0.043,0.707,0.107v5.506
		c1.136-0.879,2.485-1.243,3.535-1.243c1.092,0,2.207,0.364,2.828,1.114c0.686,0.814,0.814,1.992,0.814,3.149V230.104z"/>
	<path fill="#333333" d="M149.625,224.897h-7.177c0.085,2.464,1.243,4.328,3.92,4.328c0.964,0,1.864-0.129,2.657-0.321
		c0.042,0.106,0.085,0.321,0.085,0.449c0,0.215-0.043,0.407-0.107,0.558c-0.836,0.257-1.885,0.406-2.764,0.406
		c-1.692,0-2.978-0.535-3.771-1.393c-0.943-1.028-1.436-2.57-1.436-4.349c0-3.106,1.564-5.849,4.692-5.849
		c2.806,0,3.92,2.313,3.92,5.142C149.646,224.19,149.646,224.576,149.625,224.897z M148.254,223.869
		c0-1.971-0.214-4.092-2.592-4.092c-2.078,0-3.085,1.907-3.213,4.092H148.254z"/>
	<path fill="#333333" d="M166.961,229.547c-0.836,0.406-2.421,0.771-3.899,0.771c-4.263,0-6.599-2.87-6.599-7.305
		c0-4.499,2.593-7.605,6.877-7.605c1.007,0,2.293,0.214,3.106,0.492c0.064,0.15,0.086,0.386,0.086,0.579
		c0,0.106-0.021,0.407-0.064,0.535c-0.878-0.257-2.1-0.429-3.063-0.429c-3.492,0-5.398,2.679-5.398,6.385s1.714,6.148,5.142,6.148
		c0.878,0,1.906-0.172,2.356-0.407v-4.949c0.193-0.063,0.493-0.106,0.729-0.106s0.535,0.043,0.729,0.106V229.547z"/>
	<path fill="#333333" d="M178.233,225.861c0,3.257-1.35,4.456-4.178,4.456c-2.893,0-4.113-1.199-4.113-4.349v-7.026
		c0.192-0.064,0.45-0.107,0.686-0.107c0.3,0,0.535,0.064,0.707,0.107v6.855c0,2.077,0.321,3.448,2.742,3.448
		c2.271,0,2.764-1.328,2.764-3.491v-6.812c0.171-0.064,0.471-0.107,0.707-0.107c0.235,0,0.492,0.043,0.686,0.107V225.861z"/>
	<path fill="#333333" d="M188.713,227.361c0,0.771,0,1.735,0.043,2.742c-0.149,0.064-0.385,0.107-0.578,0.107
		c-0.171,0-0.407-0.043-0.578-0.107c-0.064-0.343-0.107-0.793-0.129-1.199h-0.021c-0.729,0.899-2.014,1.413-3.277,1.413
		c-1.992,0-3.664-1.113-3.664-3.406c0-1.307,0.536-2.271,1.371-2.87c0.943-0.664,2.186-0.879,3.514-0.879
		c0.75,0,1.371,0.043,1.929,0.129v-0.621c0-2.143-0.879-2.85-2.679-2.85c-1.007,0-2.249,0.214-3.021,0.407
		c-0.043-0.107-0.086-0.343-0.086-0.558c0-0.149,0.043-0.363,0.107-0.492c0.921-0.278,2.143-0.45,3.171-0.45
		c2.549,0,3.898,1.157,3.898,3.771V227.361z M187.321,224.341c-0.622-0.086-1.265-0.129-1.821-0.129
		c-1.05,0-1.992,0.193-2.635,0.686c-0.579,0.429-0.9,1.114-0.9,1.992c0,1.564,1.007,2.314,2.399,2.314
		c1.157,0,2.378-0.558,2.957-1.436V224.341z"/>
	<path fill="#333333" d="M196.664,219.971c-1.242,0.171-2.592,0.621-3.599,1.393v8.74c-0.215,0.064-0.472,0.107-0.707,0.107
		c-0.236,0-0.472-0.043-0.686-0.107v-11.161c0.128-0.043,0.321-0.086,0.535-0.086c0.172,0,0.407,0.043,0.579,0.086l0.106,1.371
		h0.021c0.921-0.793,2.528-1.457,3.749-1.586c0.043,0.129,0.086,0.364,0.086,0.558C196.75,219.499,196.707,219.777,196.664,219.971z
		"/>
	<path fill="#333333" d="M205.964,230.211c-0.192,0-0.428-0.064-0.557-0.107l-0.129-1.285h-0.021
		c-0.921,0.964-2.014,1.499-3.234,1.499c-2.957,0-4.37-2.463-4.37-5.463c0-2.978,1.264-6.127,4.67-6.127
		c1.071,0,2.057,0.364,2.85,0.921v-5.184c0.192-0.064,0.449-0.107,0.686-0.107c0.257,0,0.514,0.064,0.707,0.107v15.639
		C206.414,230.168,206.2,230.211,205.964,230.211z M205.172,220.827c-0.771-0.643-1.757-0.964-2.764-0.964
		c-2.485,0-3.321,2.442-3.321,4.928c0,1.906,0.601,4.392,3,4.392c1.156,0,2.335-0.579,3.085-1.479V220.827z"/>
	<path fill="#333333" d="M210.895,216.757c-0.492,0-0.899-0.429-0.899-0.942c0-0.515,0.407-0.922,0.899-0.922
		c0.493,0,0.922,0.407,0.922,0.922C211.816,216.328,211.388,216.757,210.895,216.757z M211.602,230.104
		c-0.192,0.064-0.471,0.107-0.707,0.107c-0.235,0-0.492-0.043-0.686-0.107v-11.161c0.172-0.043,0.45-0.107,0.665-0.107
		c0.235,0,0.557,0.043,0.728,0.107V230.104z"/>
	<path fill="#333333" d="M222.229,227.361c0,0.771,0,1.735,0.043,2.742c-0.149,0.064-0.385,0.107-0.578,0.107
		c-0.171,0-0.407-0.043-0.578-0.107c-0.064-0.343-0.107-0.793-0.129-1.199h-0.021c-0.729,0.899-2.014,1.413-3.277,1.413
		c-1.992,0-3.664-1.113-3.664-3.406c0-1.307,0.536-2.271,1.371-2.87c0.943-0.664,2.186-0.879,3.514-0.879
		c0.75,0,1.371,0.043,1.929,0.129v-0.621c0-2.143-0.879-2.85-2.679-2.85c-1.007,0-2.249,0.214-3.021,0.407
		c-0.043-0.107-0.086-0.343-0.086-0.558c0-0.149,0.043-0.363,0.107-0.492c0.921-0.278,2.143-0.45,3.171-0.45
		c2.549,0,3.898,1.157,3.898,3.771V227.361z M220.837,224.341c-0.622-0.086-1.265-0.129-1.821-0.129
		c-1.05,0-1.992,0.193-2.635,0.686c-0.579,0.429-0.9,1.114-0.9,1.992c0,1.564,1.007,2.314,2.399,2.314
		c1.157,0,2.378-0.558,2.957-1.436V224.341z"/>
	<path fill="#333333" d="M233.759,230.125c-0.172,0.043-0.429,0.086-0.686,0.086c-0.215,0-0.493-0.043-0.707-0.107v-6.791
		c0-1.028-0.129-1.821-0.429-2.378c-0.364-0.686-1.05-1.028-2.164-1.028c-1.07,0-2.356,0.6-3.191,1.242v8.955
		c-0.236,0.064-0.472,0.107-0.729,0.107c-0.215,0-0.472-0.043-0.664-0.107v-11.161c0.149-0.064,0.407-0.086,0.557-0.086
		c0.215,0,0.472,0.021,0.6,0.086l0.107,1.113h0.021c1.179-0.964,2.528-1.328,3.62-1.328c1.093,0,2.229,0.364,2.85,1.114
		c0.686,0.814,0.814,1.992,0.814,3.149V230.125z"/>
	<path fill="#333333" d="M242.096,216.757c-0.492,0-0.899-0.429-0.899-0.942c0-0.515,0.407-0.922,0.899-0.922
		c0.493,0,0.922,0.407,0.922,0.922C243.018,216.328,242.589,216.757,242.096,216.757z M242.803,230.104
		c-0.192,0.064-0.471,0.107-0.707,0.107c-0.235,0-0.492-0.043-0.686-0.107v-11.161c0.172-0.043,0.45-0.107,0.665-0.107
		c0.235,0,0.557,0.043,0.728,0.107V230.104z"/>
	<path fill="#333333" d="M254.374,230.125c-0.172,0.043-0.429,0.086-0.686,0.086c-0.215,0-0.493-0.043-0.707-0.107v-6.791
		c0-1.028-0.129-1.821-0.429-2.378c-0.364-0.686-1.05-1.028-2.164-1.028c-1.07,0-2.356,0.6-3.191,1.242v8.955
		c-0.236,0.064-0.472,0.107-0.729,0.107c-0.215,0-0.472-0.043-0.664-0.107v-11.161c0.149-0.064,0.407-0.086,0.557-0.086
		c0.215,0,0.472,0.021,0.6,0.086l0.107,1.113h0.021c1.179-0.964,2.528-1.328,3.62-1.328c1.093,0,2.229,0.364,2.85,1.114
		c0.686,0.814,0.814,1.992,0.814,3.149V230.125z"/>
</g>
<g>
	<path fill="#333333" d="M13.163,251.515c-1.05,1.221-2.036,2.271-2.871,3.17h6.599c0.064,0.193,0.064,0.429,0.064,0.558
		c0,0.192-0.021,0.386-0.064,0.578H8.813c-0.128-0.364-0.171-0.6-0.171-0.836c0-0.149,0-0.214,0.021-0.343
		c1.243-1.35,2.721-2.956,3.578-3.92c2.356-2.656,3.256-4.264,3.256-5.849c0-1.8-1.028-2.699-2.699-2.699
		c-1.136,0-2.464,0.343-3.514,0.813c-0.042-0.128-0.064-0.428-0.064-0.557c0-0.192,0.042-0.386,0.107-0.557
		c0.857-0.386,2.356-0.75,3.664-0.75c2.399,0,4.049,1.328,4.049,3.62C17.04,246.673,16.012,248.215,13.163,251.515z"/>
	<path fill="#333333" d="M24.092,256.034c-2.892,0-4.499-2.142-4.499-7.455c0-5.312,1.778-7.455,4.585-7.455
		c2.849,0,4.499,2.143,4.499,7.455C28.676,253.893,26.898,256.034,24.092,256.034z M24.178,242.174
		c-2.143,0-3.042,2.185-3.042,6.405s0.835,6.405,2.978,6.405s3.021-2.185,3.021-6.405S26.32,242.174,24.178,242.174z"/>
	<path fill="#333333" d="M37.207,255.82c-0.171,0.064-0.493,0.107-0.729,0.107s-0.557-0.043-0.729-0.107v-13.025L32,245.173
		c-0.214-0.192-0.471-0.578-0.557-0.942l4.585-2.914c0.15-0.043,0.386-0.085,0.557-0.085c0.214,0,0.45,0.042,0.622,0.106V255.82z"/>
	<path fill="#333333" d="M46.443,256.034c-1.114,0-2.228-0.149-3.149-0.492c-0.043-0.107-0.064-0.321-0.064-0.493
		c0-0.171,0.021-0.364,0.085-0.557c0.943,0.3,1.971,0.471,2.957,0.471c2.228,0,3.299-1.392,3.299-3.428
		c0-2.527-1.328-3.385-3.835-3.385h-2.142v-6.812h6.791c0.064,0.129,0.107,0.364,0.107,0.515c0,0.171-0.043,0.449-0.107,0.621
		h-5.398v4.627h1.114c2.935,0,5.013,1.136,5.013,4.328C51.114,254.277,49.186,256.034,46.443,256.034z"/>
	<path fill="#333333" d="M53.174,259.141c-0.128-0.106-0.3-0.364-0.364-0.535c0.878-0.707,1.542-1.5,1.757-2.378
		c-0.45-0.235-0.814-0.686-0.814-1.243c0-0.6,0.471-1.049,1.007-1.049c0.686,0,1.178,0.621,1.178,1.371
		C55.938,256.506,54.952,258.027,53.174,259.141z"/>
	<path fill="#333333" d="M67.745,251.515c-1.05,1.221-2.036,2.271-2.871,3.17h6.599c0.064,0.193,0.064,0.429,0.064,0.558
		c0,0.192-0.021,0.386-0.064,0.578h-8.077c-0.128-0.364-0.171-0.6-0.171-0.836c0-0.149,0-0.214,0.021-0.343
		c1.243-1.35,2.721-2.956,3.578-3.92c2.356-2.656,3.256-4.264,3.256-5.849c0-1.8-1.028-2.699-2.699-2.699
		c-1.136,0-2.464,0.343-3.514,0.813c-0.042-0.128-0.064-0.428-0.064-0.557c0-0.192,0.042-0.386,0.107-0.557
		c0.857-0.386,2.356-0.75,3.664-0.75c2.399,0,4.049,1.328,4.049,3.62C71.622,246.673,70.594,248.215,67.745,251.515z"/>
	<path fill="#333333" d="M78.674,256.034c-2.892,0-4.499-2.142-4.499-7.455c0-5.312,1.778-7.455,4.585-7.455
		c2.849,0,4.499,2.143,4.499,7.455C83.258,253.893,81.48,256.034,78.674,256.034z M78.76,242.174c-2.143,0-3.042,2.185-3.042,6.405
		s0.835,6.405,2.978,6.405s3.021-2.185,3.021-6.405S80.902,242.174,78.76,242.174z"/>
	<path fill="#333333" d="M91.789,255.82c-0.171,0.064-0.493,0.107-0.729,0.107s-0.557-0.043-0.729-0.107v-13.025l-3.749,2.378
		c-0.214-0.192-0.471-0.578-0.557-0.942l4.585-2.914c0.15-0.043,0.386-0.085,0.557-0.085c0.214,0,0.45,0.042,0.622,0.106V255.82z"/>
	<path fill="#333333" d="M101.775,256.034c-3.471,0-4.542-2.764-4.542-6.534c0-4.477,1.564-8.376,6.084-8.376
		c0.514,0,1.05,0.086,1.35,0.171c0.064,0.129,0.085,0.343,0.085,0.45c0,0.129-0.042,0.407-0.107,0.515
		c-0.321-0.064-0.814-0.129-1.221-0.129c-2.892,0-4.37,2.378-4.606,6.105c0.814-0.771,2.185-1.328,3.449-1.328
		c2.335,0,3.813,1.757,3.813,4.264C106.082,253.914,104.539,256.034,101.775,256.034z M102.14,247.979
		c-1.114,0-2.485,0.578-3.364,1.499c-0.021,0.301-0.021,0.515-0.021,0.707c0,2.807,0.814,4.842,3.021,4.842
		c1.949,0,2.764-1.992,2.764-3.771C104.539,249.65,104.025,247.979,102.14,247.979z"/>
	<path fill="#333333" d="M120.911,253.078c0,0.771,0,1.735,0.043,2.742c-0.15,0.064-0.386,0.107-0.579,0.107
		c-0.171,0-0.407-0.043-0.579-0.107c-0.064-0.343-0.107-0.793-0.128-1.199h-0.021c-0.728,0.899-2.014,1.413-3.278,1.413
		c-1.992,0-3.663-1.113-3.663-3.406c0-1.307,0.536-2.271,1.371-2.87c0.942-0.664,2.185-0.879,3.513-0.879
		c0.75,0,1.371,0.043,1.928,0.129v-0.621c0-2.143-0.878-2.85-2.678-2.85c-1.007,0-2.25,0.214-3.021,0.407
		c-0.042-0.107-0.085-0.343-0.085-0.558c0-0.149,0.043-0.363,0.107-0.492c0.921-0.278,2.143-0.45,3.171-0.45
		c2.549,0,3.899,1.157,3.899,3.771V253.078z M119.519,250.058c-0.621-0.086-1.264-0.129-1.821-0.129
		c-1.05,0-1.993,0.193-2.635,0.686c-0.578,0.429-0.9,1.114-0.9,1.992c0,1.564,1.007,2.314,2.399,2.314
		c1.157,0,2.378-0.558,2.957-1.436V250.058z"/>
	<path fill="#333333" d="M132.439,255.842c-0.171,0.043-0.428,0.086-0.686,0.086c-0.214,0-0.493-0.043-0.707-0.107v-6.791
		c0-1.028-0.129-1.821-0.429-2.378c-0.364-0.686-1.05-1.028-2.164-1.028c-1.071,0-2.356,0.6-3.192,1.242v8.955
		c-0.235,0.064-0.471,0.107-0.728,0.107c-0.214,0-0.472-0.043-0.665-0.107v-11.161c0.15-0.064,0.407-0.086,0.557-0.086
		c0.214,0,0.471,0.021,0.6,0.086l0.107,1.113h0.021c1.178-0.964,2.528-1.328,3.621-1.328s2.228,0.364,2.849,1.114
		c0.686,0.814,0.814,1.992,0.814,3.149V255.842z"/>
	<path fill="#333333" d="M142.984,255.928c-0.193,0-0.429-0.064-0.557-0.107l-0.128-1.285h-0.021
		c-0.921,0.964-2.014,1.499-3.235,1.499c-2.957,0-4.371-2.463-4.371-5.463c0-2.978,1.264-6.127,4.67-6.127
		c1.071,0,2.057,0.364,2.849,0.921v-5.184c0.193-0.064,0.45-0.107,0.686-0.107c0.257,0,0.514,0.064,0.707,0.107v15.639
		C143.434,255.885,143.219,255.928,142.984,255.928z M142.191,246.544c-0.771-0.643-1.756-0.964-2.764-0.964
		c-2.485,0-3.32,2.442-3.32,4.928c0,1.906,0.6,4.392,2.999,4.392c1.157,0,2.335-0.579,3.085-1.479V246.544z"/>
	<path fill="#333333" d="M155.82,251.515c-1.05,1.221-2.035,2.271-2.87,3.17h6.598c0.064,0.193,0.064,0.429,0.064,0.558
		c0,0.192-0.021,0.386-0.064,0.578h-8.076c-0.129-0.364-0.171-0.6-0.171-0.836c0-0.149,0-0.214,0.021-0.343
		c1.243-1.35,2.722-2.956,3.578-3.92c2.356-2.656,3.257-4.264,3.257-5.849c0-1.8-1.029-2.699-2.7-2.699
		c-1.135,0-2.463,0.343-3.513,0.813c-0.043-0.128-0.064-0.428-0.064-0.557c0-0.192,0.043-0.386,0.107-0.557
		c0.856-0.386,2.356-0.75,3.663-0.75c2.399,0,4.049,1.328,4.049,3.62C159.698,246.673,158.67,248.215,155.82,251.515z"/>
	<path fill="#333333" d="M166.751,256.034c-2.893,0-4.499-2.142-4.499-7.455c0-5.312,1.777-7.455,4.584-7.455
		c2.85,0,4.499,2.143,4.499,7.455C171.335,253.893,169.557,256.034,166.751,256.034z M166.836,242.174
		c-2.142,0-3.042,2.185-3.042,6.405s0.836,6.405,2.978,6.405c2.143,0,3.021-2.185,3.021-6.405S168.979,242.174,166.836,242.174z"/>
	<path fill="#333333" d="M179.864,255.82c-0.171,0.064-0.492,0.107-0.728,0.107c-0.236,0-0.558-0.043-0.729-0.107v-13.025
		l-3.749,2.378c-0.215-0.192-0.472-0.578-0.558-0.942l4.585-2.914c0.149-0.043,0.386-0.085,0.557-0.085
		c0.215,0,0.45,0.042,0.621,0.106V255.82z"/>
	<path fill="#333333" d="M193.986,242.474l-6.062,13.347c-0.171,0.064-0.492,0.107-0.771,0.107c-0.257,0-0.535-0.043-0.729-0.107
		l6.234-13.347h-7.283c-0.086-0.192-0.129-0.407-0.129-0.6c0-0.172,0.043-0.386,0.107-0.536h8.633
		c0.043,0.129,0.086,0.386,0.086,0.515C194.072,242.088,194.051,242.302,193.986,242.474z"/>
</g>
</svg>
