<?xml version="1.0" encoding="utf-8"?>
<!-- Generator: Adobe Illustrator 16.0.0, SVG Export Plug-In . SVG Version: 6.00 Build 0)  -->
<!DOCTYPE svg PUBLIC "-//W3C//DTD SVG 1.0//EN" "http://www.w3.org/TR/2001/REC-SVG-20010904/DTD/svg10.dtd">
<svg version="1.0" xmlns="http://www.w3.org/2000/svg" xmlns:xlink="http://www.w3.org/1999/xlink" x="0px" y="0px" width="300px"
	 height="300px" viewBox="0 0 300 300" style="enable-background:new 0 0 300 300;" xml:space="preserve">
<g id="Icon">
	<path style="fill:#1A2A4F;" d="M151.922,30.653l-11.928,6.36c-0.103,0.056-0.216,0.082-0.328,0.082
		c-0.118,0-0.238-0.03-0.345-0.092l-14.359-8.206c-0.214-0.123-0.457-0.189-0.703-0.189c-0.51,0-0.986,0.277-1.241,0.723
		c-0.39,0.681-0.152,1.553,0.532,1.945l12.035,6.878c0.221,0.125,0.355,0.36,0.352,0.615c-0.002,0.254-0.144,0.485-0.369,0.605
		l-10.982,5.857c-0.104,0.055-0.217,0.083-0.328,0.083c-0.113,0-0.226-0.028-0.328-0.083L96.595,30.653
		c-0.228-0.121-0.369-0.357-0.369-0.615c0-0.258,0.142-0.494,0.369-0.615l27.335-14.577c0.102-0.055,0.215-0.082,0.328-0.082
		c0.111,0,0.224,0.026,0.328,0.082l27.335,14.577c0.226,0.121,0.368,0.357,0.368,0.615C152.29,30.296,152.147,30.533,151.922,30.653
		 M141.94,64.009v6.368c0,0.385-0.312,0.698-0.697,0.698h-4.246c-0.385,0-0.697-0.313-0.697-0.698v-6.368
		c0-1.556,1.266-2.821,2.821-2.821C140.674,61.188,141.94,62.454,141.94,64.009 M122.833,56.187c0,0.246-0.131,0.472-0.341,0.6
		c-0.109,0.065-0.233,0.096-0.357,0.096c-0.114,0-0.228-0.027-0.333-0.083l-19.107-10.424c-0.225-0.122-0.362-0.357-0.362-0.612
		v-7.655c0-0.244,0.127-0.472,0.337-0.596c0.11-0.068,0.235-0.1,0.358-0.1c0.113,0,0.225,0.026,0.329,0.081l19.107,10.19
		c0.227,0.121,0.37,0.357,0.37,0.614V56.187z M156.776,28.779l-31.846-16.983c-0.206-0.111-0.44-0.168-0.672-0.168
		c-0.234,0-0.466,0.058-0.672,0.167L91.74,28.779c-0.467,0.249-0.755,0.729-0.755,1.259c0,0.528,0.289,1.011,0.755,1.26l7.472,3.985
		c0.117,0.062,0.203,0.159,0.266,0.266v0.858v0.812v9.803c0,0.524,0.285,1.003,0.743,1.253l23.323,12.72
		c0.038,0.014,0.078,0.028,0.12,0.047c0.023,0.012,0.046,0.019,0.071,0.028c0.001,0,0.032,0.01,0.034,0.011
		c0.189,0.072,0.349,0.104,0.49,0.104c0.139,0,0.301-0.033,0.484-0.103l0.046-0.016c0.022-0.008,0.043-0.016,0.064-0.025
		c0.037-0.019,0.075-0.032,0.12-0.047l7.752-4.227c0.334-0.183,0.58-0.483,0.688-0.85c0.108-0.365,0.066-0.75-0.117-1.084
		c-0.251-0.458-0.731-0.743-1.254-0.743c-0.239,0-0.469,0.059-0.681,0.173l-4.646,2.532c-0.104,0.058-0.219,0.085-0.333,0.085
		c-0.123,0-0.245-0.033-0.356-0.098c-0.211-0.125-0.34-0.354-0.34-0.6v-7.889c0-0.257,0.141-0.493,0.368-0.614l10.616-5.661
		c0.104-0.056,0.215-0.082,0.329-0.082c0.125,0,0.248,0.032,0.358,0.098c0.21,0.126,0.339,0.353,0.339,0.597v15.395
		c0,0.294-0.185,0.557-0.463,0.657c-2.263,0.805-3.784,2.943-3.784,5.321V72.5c0,0.787,0.641,1.427,1.427,1.427h8.492
		c0.786,0,1.427-0.641,1.427-1.427v-8.491c0-2.378-1.521-4.515-3.784-5.321c-0.278-0.1-0.463-0.363-0.463-0.657V40.373
		c0-0.258,0.144-0.494,0.37-0.615l4.245-2.265c0.104-0.055,0.215-0.081,0.328-0.081c0.125,0,0.25,0.031,0.36,0.1
		c0.209,0.125,0.338,0.352,0.338,0.596v7.655c0,0.255-0.14,0.49-0.363,0.612l-1.018,0.555c-0.69,0.377-0.947,1.247-0.57,1.937
		c0.251,0.457,0.731,0.742,1.255,0.742c0.241,0,0.471-0.058,0.682-0.173l2.121-1.158c0.461-0.252,0.745-0.731,0.745-1.253V36.894
		v-0.486V35.55c0.063-0.107,0.148-0.204,0.265-0.266l7.473-3.985c0.465-0.249,0.755-0.731,0.755-1.26
		C157.531,29.509,157.241,29.028,156.776,28.779"/>
</g>
<g id="Text" style="display:none;">
	
		<text transform="matrix(1 0 0 1 89.6396 229.8262)" style="display:inline;fill:#BBA461; font-family:'FSMatthew-Bold'; font-size:146.4567;">2</text>
	
		<text transform="matrix(1 0 0 1 162.123 174.2939)" style="display:inline;fill:#B3A068; font-family:'FSMatthew-Medium'; font-size:60.317;">%</text>
	<text transform="matrix(1 0 0 1 93.2295 250.6328)" style="display:inline;"><tspan x="0" y="0" style="fill:#1A2A4F; font-family:'FSMatthew-Bold'; font-size:18.4143;">o</tspan><tspan x="9.76" y="0" style="fill:#1A2A4F; font-family:'FSMatthew-Bold'; font-size:18.4143;">f uni</tspan><tspan x="46.017" y="0" style="fill:#1A2A4F; font-family:'FSMatthew-Bold'; font-size:18.4143;">v</tspan><tspan x="55.297" y="0" style="fill:#1A2A4F; font-family:'FSMatthew-Bold'; font-size:18.4143;">e</tspan><tspan x="64.688" y="0" style="fill:#1A2A4F; font-family:'FSMatthew-Bold'; font-size:18.4143;">r</tspan><tspan x="71.207" y="0" style="fill:#1A2A4F; font-family:'FSMatthew-Bold'; font-size:18.4143;">sitie</tspan><tspan x="105.53" y="0" style="fill:#1A2A4F; font-family:'FSMatthew-Bold'; font-size:18.4143;">s</tspan></text>
	
		<text transform="matrix(1 0 0 1 206.8252 250.6328)" style="display:inline;fill:#1A2A4F; font-family:'FSMatthew-Bold'; font-size:18.4143;"> </text>
	<text transform="matrix(1 0 0 1 93.2295 270.2744)" style="display:inline;"><tspan x="0" y="0" style="fill:#1A2A4F; font-family:'FSMatthew-Bold'; font-size:18.4143;">in t</tspan><tspan x="26.368" y="0" style="fill:#1A2A4F; font-family:'FSMatthew-Bold'; font-size:18.4143;">h</tspan><tspan x="36.735" y="0" style="fill:#1A2A4F; font-family:'FSMatthew-Bold'; font-size:18.4143;">e </tspan><tspan x="49.92" y="0" style="fill:#1A2A4F; font-family:'FSMatthew-Bold'; font-size:18.4143;">w</tspan><tspan x="63.491" y="0" style="fill:#1A2A4F; font-family:'FSMatthew-Bold'; font-size:18.4143;">orl</tspan><tspan x="84.852" y="0" style="fill:#1A2A4F; font-family:'FSMatthew-Bold'; font-size:18.4143;">d</tspan></text>
	<text transform="matrix(1 0 0 1 93.2295 114.0127)" style="display:inline;"><tspan x="0" y="0" style="fill:#B3A068; font-family:'FSMatthew-Bold'; font-size:42.1963; letter-spacing:-3;">T</tspan><tspan x="19.748" y="0" style="fill:#B3A068; font-family:'FSMatthew-Bold'; font-size:42.1963;">o</tspan><tspan x="42.492" y="0" style="fill:#B3A068; font-family:'FSMatthew-Bold'; font-size:42.1963;">p</tspan></text>
	<path style="display:inline;fill:#FFFFFF;" d="M140.595,78.444c0,0.385-0.312,0.697-0.697,0.697h-4.245
		c-0.385,0-0.697-0.312-0.697-0.697"/>
	<text transform="matrix(1 0 0 1 93.5869 283.7422)" style="display:inline;"><tspan x="0" y="0" style="fill:#1A2A4F; font-family:'FSMatthew-Light'; font-size:12.0993;">(</tspan><tspan x="3.521" y="0" style="fill:#1A2A4F; font-family:'FSMatthew-Light'; font-size:12.0993;">QS </tspan><tspan x="20.363" y="0" style="fill:#1A2A4F; font-family:'FSMatthew-Light'; font-size:12.0993;">W</tspan><tspan x="30.635" y="0" style="fill:#1A2A4F; font-family:'FSMatthew-Light'; font-size:12.0993;">or</tspan><tspan x="41.04" y="0" style="fill:#1A2A4F; font-family:'FSMatthew-Light'; font-size:12.0993;">ld </tspan><tspan x="52.873" y="0" style="fill:#1A2A4F; font-family:'FSMatthew-Light'; font-size:12.0993;">R</tspan><tspan x="59.576" y="0" style="fill:#1A2A4F; font-family:'FSMatthew-Light'; font-size:12.0993;">an</tspan><tspan x="72.243" y="0" style="fill:#1A2A4F; font-family:'FSMatthew-Light'; font-size:12.0993;">k</tspan><tspan x="77.99" y="0" style="fill:#1A2A4F; font-family:'FSMatthew-Light'; font-size:12.0993;">ing</tspan><tspan x="93.538" y="0" style="fill:#1A2A4F; font-family:'FSMatthew-Light'; font-size:12.0993;">s</tspan><tspan x="97.882" y="0" style="fill:#1A2A4F; font-family:'FSMatthew-Light'; font-size:12.0993;">)</tspan></text>
</g>
<g id="Text_Flat">
	<g>
		<path style="fill:#BBA461;" d="M160.377,229.826H97.841c-1.318-3.075-1.757-6.884-1.757-10.252c0-1.757,0.146-3.954,0.439-5.419
			c10.252-10.397,21.236-22.114,30.902-32.952c7.176-8.055,12.888-15.523,12.888-23.726c0-7.176-4.979-11.276-13.767-11.276
			c-6.444,0-16.696,2.197-26.215,6.736c-0.585-2.489-1.171-6.883-1.171-10.398c0-1.757,0.293-5.272,0.879-7.616
			c7.176-3.075,18.746-5.858,30.023-5.858c16.696,0,31.341,7.762,31.341,25.776c0,15.817-8.495,26.508-26.655,45.547
			c-3.515,3.808-7.323,7.47-11.13,11.424h37.053c0.439,1.903,0.732,5.565,0.732,9.08
			C161.402,223.821,160.963,227.775,160.377,229.826z"/>
	</g>
	<g>
		<path style="fill:#B3A068;" d="M182.511,146.125c0,8.263-4.343,12.365-9.41,12.365c-4.886,0-9.107-3.92-9.168-11.822
			c0-7.841,4.282-12.245,9.47-12.245C178.892,134.424,182.511,138.646,182.511,146.125z M168.155,146.487
			c-0.121,5.007,1.749,8.807,5.066,8.807c3.498,0,5.066-3.74,5.066-8.927c0-4.765-1.387-8.746-5.066-8.746
			C169.904,137.621,168.155,141.542,168.155,146.487z M172.739,174.957l23.041-40.533h3.378l-23.041,40.533H172.739z
			 M208.025,162.351c0,8.264-4.343,12.365-9.35,12.365c-4.886,0-9.108-3.92-9.168-11.762c0-7.901,4.282-12.305,9.47-12.305
			C204.466,150.649,208.025,154.871,208.025,162.351z M193.669,162.713c-0.06,5.007,1.87,8.807,5.128,8.807
			c3.498,0,5.066-3.74,5.066-8.928c0-4.765-1.388-8.746-5.066-8.746C195.479,153.846,193.669,157.767,193.669,162.713z"/>
	</g>
	<g>
		<path style="fill:#1A2A4F;" d="M98.368,250.817c-2.781,0-4.549-1.787-4.549-4.955c0-3.149,1.75-5.009,4.549-5.009
			c2.799,0,4.549,1.842,4.549,4.991S101.167,250.817,98.368,250.817z M98.368,242.842c-1.197,0-1.934,0.811-1.934,3.003
			c0,2.191,0.737,2.983,1.934,2.983c1.197,0,1.934-0.792,1.934-2.983C100.302,243.634,99.565,242.842,98.368,242.842z"/>
		<path style="fill:#1A2A4F;" d="M110.577,239.048c-0.405-0.129-0.884-0.202-1.363-0.202c-1.068,0-1.621,0.571-1.621,1.805v0.387
			h2.357c0.092,0.313,0.11,0.737,0.11,0.939c0,0.221-0.037,0.626-0.092,0.958h-2.375v7.698c-0.258,0.056-0.866,0.092-1.252,0.092
			c-0.313,0-1.031-0.036-1.29-0.092v-7.698h-1.565c-0.073-0.222-0.129-0.663-0.129-0.884c0-0.313,0.056-0.7,0.147-0.903l1.547-0.11
			v-0.276c0-2.468,1.271-3.794,3.684-3.794c0.571,0,1.381,0.129,1.934,0.332c0.074,0.221,0.092,0.553,0.092,0.811
			C110.761,238.386,110.688,238.754,110.577,239.048z"/>
		<path style="fill:#1A2A4F;" d="M123.43,246.931c0,2.744-1.289,3.887-4.162,3.887c-2.8,0-4.089-1.143-4.089-3.887v-5.894
			c0.258-0.036,0.755-0.092,1.252-0.092c0.442,0,0.995,0.037,1.289,0.092v5.875c0,1.437,0.424,1.953,1.584,1.953
			c1.179,0,1.584-0.517,1.584-1.953v-5.875c0.258-0.055,0.829-0.092,1.289-0.092s1.068,0.056,1.252,0.092V246.931z"/>
		<path style="fill:#1A2A4F;" d="M133.761,250.633c-0.295,0.073-0.921,0.092-1.216,0.092c-0.313,0-1.031-0.036-1.326-0.092v-6.299
			c0-0.994-0.516-1.418-1.345-1.418c-0.663,0-1.418,0.239-2.007,0.607v7.109c-0.424,0.073-1.013,0.092-1.345,0.092
			c-0.294,0-0.829-0.019-1.197-0.092v-9.596c0.239-0.055,0.829-0.092,1.105-0.092c0.258,0,0.792,0.037,1.068,0.092l0.129,0.848
			c0.829-0.608,2.026-1.031,3.094-1.031c2.026,0,3.039,1.252,3.039,3.352V250.633z"/>
		<path style="fill:#1A2A4F;" d="M137.055,239.987c-0.773,0-1.399-0.626-1.399-1.399s0.626-1.399,1.399-1.399s1.4,0.626,1.4,1.399
			S137.829,239.987,137.055,239.987z M138.326,250.633c-0.332,0.073-1.013,0.092-1.308,0.092c-0.442,0-0.921-0.036-1.234-0.092
			v-9.596c0.405-0.055,0.902-0.092,1.234-0.092c0.442,0,0.902,0.037,1.308,0.092V250.633z"/>
		<path style="fill:#1A2A4F;" d="M148.013,243.855l-2.763,6.777c-0.184,0.037-0.663,0.092-1.142,0.092
			c-0.498,0-1.031-0.055-1.252-0.092l-2.652-6.814c-0.35-0.921-0.516-1.823-0.516-2.781c0.332-0.055,0.792-0.092,1.179-0.092
			c0.534,0,0.902,0.037,1.197,0.092c0,0.682,0.092,1.437,0.332,2.155l1.694,4.862h0.037l1.75-4.862
			c0.239-0.719,0.332-1.345,0.332-2.155c0.258-0.036,0.81-0.092,1.215-0.092s0.829,0.037,1.124,0.092
			C148.547,242.068,148.363,243.008,148.013,243.855z"/>
		<path style="fill:#1A2A4F;" d="M157.624,246.729h-5.819c0.036,1.197,0.865,2.081,2.468,2.081c0.865,0,1.75-0.11,2.505-0.313
			c0.11,0.498,0.184,1.05,0.184,1.547c0,0.074,0,0.166-0.019,0.369c-0.938,0.276-1.915,0.405-2.873,0.405
			c-3.499,0-4.954-2.008-4.954-4.937c0-2.56,1.437-5.027,4.549-5.027c2.946,0,4.015,2.173,4.015,4.567
			C157.68,245.752,157.68,246.249,157.624,246.729z M155.138,244.905c0-1.16-0.312-2.137-1.51-2.137
			c-1.142,0-1.75,0.902-1.823,2.137H155.138z"/>
		<path style="fill:#1A2A4F;" d="M164.512,242.989c-0.958,0.147-1.989,0.479-2.91,0.958v6.686c-0.258,0.056-0.811,0.092-1.253,0.092
			c-0.441,0-1.086-0.036-1.289-0.092v-9.596c0.276-0.036,0.737-0.092,1.105-0.092c0.312,0,0.811,0.037,1.068,0.092l0.147,1.179
			c0.681-0.607,1.915-1.271,3.112-1.362c0.037,0.147,0.073,0.681,0.073,1.068C164.566,242.29,164.548,242.731,164.512,242.989z"/>
		<path style="fill:#1A2A4F;" d="M168.415,250.817c-1.087,0-2.229-0.166-3.113-0.461c-0.055-0.276-0.073-0.626-0.073-0.994
			c0-0.295,0.073-0.719,0.147-0.977c0.847,0.295,2.062,0.497,2.781,0.497c0.994,0,1.565-0.331,1.565-1.013
			c0-0.589-0.461-0.865-1.677-1.252c-1.934-0.608-2.836-1.511-2.836-2.91c0-2.081,1.915-2.854,3.739-2.854
			c0.847,0,1.786,0.147,2.431,0.35c0.073,0.276,0.11,0.663,0.11,0.884c0,0.239-0.073,0.737-0.166,1.05
			c-0.626-0.184-1.491-0.331-2.21-0.331c-0.884,0-1.491,0.221-1.491,0.773c0,0.589,0.681,0.829,1.749,1.179
			c1.86,0.607,2.744,1.381,2.744,2.836C172.116,249.841,170.312,250.817,168.415,250.817z"/>
		<path style="fill:#1A2A4F;" d="M174.933,239.987c-0.774,0-1.4-0.626-1.4-1.399s0.626-1.399,1.4-1.399
			c0.773,0,1.399,0.626,1.399,1.399S175.706,239.987,174.933,239.987z M176.203,250.633c-0.332,0.073-1.013,0.092-1.308,0.092
			c-0.442,0-0.921-0.036-1.234-0.092v-9.596c0.405-0.055,0.902-0.092,1.234-0.092c0.442,0,0.902,0.037,1.308,0.092V250.633z"/>
		<path style="fill:#1A2A4F;" d="M184.343,250.448c-0.553,0.222-1.216,0.369-2.284,0.369c-2.081,0-3.112-1.014-3.112-3.039v-4.844
			h-1.584c-0.073-0.276-0.129-0.737-0.129-0.977c0-0.221,0.056-0.626,0.11-0.811l1.603-0.11v-2.468
			c0.203-0.037,0.848-0.073,1.271-0.073c0.461,0,1.031,0.036,1.271,0.073v2.468h2.651c0.074,0.258,0.111,0.626,0.111,0.829
			c0,0.221-0.019,0.811-0.093,1.068h-2.67v4.476c0,0.921,0.368,1.325,1.271,1.325c0.497,0,1.105-0.073,1.528-0.221
			c0.074,0.239,0.166,0.7,0.166,1.124C184.453,249.859,184.416,250.246,184.343,250.448z"/>
		<path style="fill:#1A2A4F;" d="M187.178,239.987c-0.773,0-1.4-0.626-1.4-1.399s0.627-1.399,1.4-1.399s1.399,0.626,1.399,1.399
			S187.951,239.987,187.178,239.987z M188.448,250.633c-0.332,0.073-1.013,0.092-1.308,0.092c-0.442,0-0.921-0.036-1.234-0.092
			v-9.596c0.405-0.055,0.902-0.092,1.234-0.092c0.441,0,0.902,0.037,1.308,0.092V250.633z"/>
		<path style="fill:#1A2A4F;" d="M198.467,246.729h-5.82c0.037,1.197,0.865,2.081,2.468,2.081c0.866,0,1.75-0.11,2.505-0.313
			c0.11,0.498,0.185,1.05,0.185,1.547c0,0.074,0,0.166-0.019,0.369c-0.939,0.276-1.916,0.405-2.873,0.405
			c-3.5,0-4.955-2.008-4.955-4.937c0-2.56,1.438-5.027,4.55-5.027c2.946,0,4.015,2.173,4.015,4.567
			C198.521,245.752,198.521,246.249,198.467,246.729z M195.98,244.905c0-1.16-0.313-2.137-1.511-2.137
			c-1.142,0-1.75,0.902-1.823,2.137H195.98z"/>
		<path style="fill:#1A2A4F;" d="M202.738,250.817c-1.087,0-2.229-0.166-3.113-0.461c-0.055-0.276-0.073-0.626-0.073-0.994
			c0-0.295,0.073-0.719,0.147-0.977c0.847,0.295,2.062,0.497,2.781,0.497c0.994,0,1.565-0.331,1.565-1.013
			c0-0.589-0.461-0.865-1.677-1.252c-1.934-0.608-2.836-1.511-2.836-2.91c0-2.081,1.915-2.854,3.739-2.854
			c0.847,0,1.786,0.147,2.431,0.35c0.073,0.276,0.11,0.663,0.11,0.884c0,0.239-0.073,0.737-0.166,1.05
			c-0.626-0.184-1.491-0.331-2.21-0.331c-0.884,0-1.491,0.221-1.491,0.773c0,0.589,0.681,0.829,1.749,1.179
			c1.86,0.607,2.744,1.381,2.744,2.836C206.439,249.841,204.635,250.817,202.738,250.817z"/>
	</g>
	<g>
		<path style="fill:#1A2A4F;" d="M95.771,259.629c-0.773,0-1.399-0.626-1.399-1.399s0.626-1.399,1.399-1.399s1.4,0.626,1.4,1.399
			S96.544,259.629,95.771,259.629z M97.042,270.274c-0.332,0.073-1.013,0.092-1.308,0.092c-0.442,0-0.921-0.036-1.234-0.092v-9.596
			c0.405-0.055,0.902-0.092,1.234-0.092c0.442,0,0.902,0.037,1.308,0.092V270.274z"/>
		<path style="fill:#1A2A4F;" d="M107.539,270.274c-0.295,0.073-0.921,0.092-1.216,0.092c-0.313,0-1.031-0.036-1.326-0.092v-6.299
			c0-0.994-0.516-1.418-1.345-1.418c-0.663,0-1.418,0.239-2.007,0.607v7.109c-0.424,0.073-1.013,0.092-1.345,0.092
			c-0.294,0-0.829-0.019-1.197-0.092v-9.596c0.239-0.055,0.829-0.092,1.105-0.092c0.258,0,0.792,0.037,1.068,0.092l0.129,0.848
			c0.829-0.608,2.026-1.031,3.094-1.031c2.026,0,3.039,1.252,3.039,3.352V270.274z"/>
		<path style="fill:#1A2A4F;" d="M119.305,270.09c-0.553,0.222-1.216,0.369-2.284,0.369c-2.082,0-3.113-1.014-3.113-3.039v-4.844
			h-1.584c-0.074-0.276-0.129-0.737-0.129-0.977c0-0.221,0.055-0.626,0.111-0.811l1.602-0.11v-2.468
			c0.203-0.037,0.847-0.073,1.271-0.073c0.46,0,1.031,0.036,1.271,0.073v2.468h2.652c0.074,0.258,0.11,0.626,0.11,0.829
			c0,0.221-0.019,0.811-0.092,1.068h-2.671v4.476c0,0.921,0.369,1.325,1.271,1.325c0.497,0,1.105-0.073,1.529-0.221
			c0.073,0.239,0.166,0.7,0.166,1.124C119.415,269.501,119.378,269.888,119.305,270.09z"/>
		<path style="fill:#1A2A4F;" d="M129.23,263.847v6.428c-0.295,0.073-0.921,0.092-1.216,0.092c-0.313,0-1.031-0.036-1.326-0.092
			v-6.28c0-0.994-0.516-1.437-1.345-1.437c-0.663,0-1.473,0.239-2.062,0.607v7.109c-0.424,0.073-1.013,0.092-1.345,0.092
			c-0.294,0-0.829-0.019-1.197-0.092v-13.426c0.239-0.056,0.773-0.093,1.234-0.093s1.031,0.037,1.308,0.093v4.512
			c0.81-0.516,1.934-0.865,2.91-0.865C128.217,260.495,129.23,261.747,129.23,263.847z"/>
		<path style="fill:#1A2A4F;" d="M139.063,266.37h-5.82c0.037,1.197,0.866,2.081,2.468,2.081c0.866,0,1.75-0.11,2.505-0.313
			c0.11,0.498,0.184,1.05,0.184,1.548c0,0.073,0,0.165-0.019,0.368c-0.939,0.276-1.915,0.405-2.873,0.405
			c-3.499,0-4.954-2.008-4.954-4.937c0-2.56,1.437-5.027,4.549-5.027c2.947,0,4.015,2.173,4.015,4.567
			C139.118,265.394,139.118,265.891,139.063,266.37z M136.577,264.547c0-1.16-0.313-2.137-1.51-2.137
			c-1.142,0-1.75,0.902-1.823,2.137H136.577z"/>
		<path style="fill:#1A2A4F;" d="M154.034,270.274c-0.222,0.056-0.885,0.092-1.253,0.092c-0.387,0-0.957-0.036-1.16-0.092
			l-1.473-6.133h-0.037l-1.492,6.133c-0.184,0.037-0.884,0.092-1.215,0.092c-0.423,0-1.124-0.055-1.271-0.092l-2.026-6.777
			c-0.258-0.866-0.423-1.934-0.442-2.818c0.295-0.055,0.7-0.092,1.142-0.092c0.405,0,0.958,0.056,1.197,0.092
			c0,0.719,0.129,1.621,0.332,2.468l1.087,4.328h0.037l1.787-6.796c0.203-0.036,0.479-0.073,0.939-0.073
			c0.387,0,0.681,0.037,0.92,0.073l1.676,6.796h0.037l1.289-4.328c0.221-0.828,0.368-1.749,0.368-2.468
			c0.239-0.036,0.792-0.092,1.197-0.092c0.442,0,0.811,0.037,1.105,0.092c-0.019,0.958-0.147,1.676-0.424,2.523L154.034,270.274z"/>
		<path style="fill:#1A2A4F;" d="M161.859,270.459c-2.781,0-4.55-1.787-4.55-4.955c0-3.149,1.75-5.009,4.55-5.009
			c2.799,0,4.549,1.842,4.549,4.991S164.658,270.459,161.859,270.459z M161.859,262.483c-1.197,0-1.934,0.811-1.934,3.003
			c0,2.191,0.736,2.983,1.934,2.983s1.934-0.792,1.934-2.983C163.793,263.275,163.057,262.483,161.859,262.483z"/>
		<path style="fill:#1A2A4F;" d="M173.239,262.631c-0.958,0.147-1.989,0.479-2.91,0.958v6.686c-0.258,0.056-0.811,0.092-1.253,0.092
			c-0.441,0-1.086-0.036-1.289-0.092v-9.596c0.276-0.036,0.737-0.092,1.105-0.092c0.312,0,0.811,0.037,1.068,0.092l0.147,1.179
			c0.681-0.607,1.915-1.271,3.112-1.362c0.037,0.147,0.073,0.681,0.073,1.068C173.294,261.932,173.275,262.373,173.239,262.631z"/>
		<path style="fill:#1A2A4F;" d="M177.253,270.274c-0.332,0.073-1.014,0.092-1.308,0.092c-0.442,0-0.921-0.036-1.234-0.092v-13.426
			c0.405-0.056,0.902-0.093,1.234-0.093c0.441,0,0.957,0.037,1.308,0.093V270.274z"/>
		<path style="fill:#1A2A4F;" d="M187.363,270.274c-0.295,0.056-0.792,0.092-1.179,0.092c-0.35,0-0.755-0.036-1.013-0.092
			l-0.074-0.848c-0.663,0.646-1.51,1.032-2.504,1.032c-2.744,0-3.924-2.192-3.924-4.826c0-2.836,1.271-5.138,4.199-5.138
			c0.719,0,1.548,0.221,1.953,0.479v-4.125c0.331-0.056,0.884-0.093,1.289-0.093c0.497,0,0.884,0.056,1.252,0.093V270.274z
			 M184.822,262.871c-0.442-0.203-1.014-0.313-1.492-0.313c-1.492,0-2.044,1.326-2.044,2.929c0,1.344,0.331,2.873,1.823,2.873
			c0.718,0,1.271-0.295,1.713-0.663V262.871z"/>
	</g>
	<g>
		<path style="fill:#B3A068;" d="M115.337,90.639h-7.552v23.374c-0.802,0.126-1.941,0.211-2.996,0.211s-2.194-0.084-3.038-0.211
			V90.639H94.2c-0.168-0.548-0.295-1.856-0.295-2.574s0.169-2.025,0.338-2.574h21.095c0.168,0.549,0.295,1.856,0.295,2.574
			S115.506,90.091,115.337,90.639z"/>
		<path style="fill:#B3A068;" d="M124.748,114.435c-6.371,0-10.421-4.092-10.421-11.349c0-7.215,4.008-11.476,10.421-11.476
			c6.413,0,10.421,4.219,10.421,11.434C135.169,110.258,131.161,114.435,124.748,114.435z M124.748,96.166
			c-2.742,0-4.43,1.856-4.43,6.877c0,5.021,1.688,6.835,4.43,6.835c2.743,0,4.43-1.814,4.43-6.835
			C129.178,97.98,127.491,96.166,124.748,96.166z"/>
		<path style="fill:#B3A068;" d="M148.294,114.013c-1.308,0-3.08-0.211-4.135-0.506v10.421c-0.759,0.127-2.025,0.211-2.953,0.211
			c-1.139,0-2.025-0.127-2.869-0.211V92.074c0.675-0.126,1.814-0.211,2.7-0.211c0.802,0,1.688,0.084,2.278,0.211l0.211,1.814
			c1.35-1.266,3.797-2.278,6.076-2.278c6.033,0,8.733,4.937,8.733,10.59C158.335,108.739,154.96,114.013,148.294,114.013z
			 M148.378,96.335c-1.561,0-3.207,0.633-4.219,1.561v11.18c0.802,0.253,2.363,0.422,3.46,0.422c3.122,0,4.725-2.574,4.725-6.835
			C152.344,98.486,150.825,96.335,148.378,96.335z"/>
	</g>
	<path style="fill:#FFFFFF;" d="M140.595,78.444c0,0.385-0.312,0.697-0.697,0.697h-4.245c-0.385,0-0.697-0.312-0.697-0.697"/>
	<g>
		<path style="fill:#1A2A4F;" d="M96.285,285.085c-1.343-1.343-2.033-3.206-2.033-4.925c0-1.899,0.726-3.642,2.033-4.985
			c0.133,0.037,0.266,0.109,0.363,0.206c-1.125,1.44-1.622,3.109-1.622,4.756c0,1.633,0.496,3.255,1.622,4.743
			C96.551,284.977,96.418,285.049,96.285,285.085z"/>
		<path style="fill:#1A2A4F;" d="M102.468,283.464l1.573,1.017c-0.121,0.314-0.267,0.472-0.412,0.604l-1.936-1.307
			c-0.254,0.061-0.532,0.085-0.798,0.085c-2.033,0-3.098-1.524-3.098-4.211s1.064-4.211,3.098-4.211
			c2.033,0,3.098,1.524,3.098,4.211C103.993,281.528,103.473,282.835,102.468,283.464z M100.896,276.059
			c-1.464,0-2.227,1.174-2.227,3.594s0.762,3.594,2.227,3.594c1.464,0,2.226-1.174,2.226-3.594S102.359,276.059,100.896,276.059z"/>
		<path style="fill:#1A2A4F;" d="M107.804,283.863c-0.726,0-1.561-0.133-2.19-0.363c-0.036-0.097-0.061-0.218-0.061-0.351
			c0-0.121,0.024-0.267,0.049-0.363c0.641,0.254,1.512,0.411,2.142,0.411c1.222,0,1.863-0.544,1.863-1.549
			c0-0.883-0.472-1.282-1.367-1.609l-0.726-0.266c-1.21-0.448-1.9-1.028-1.9-2.19c0-1.355,1.077-2.142,2.602-2.142
			c0.593,0,1.198,0.085,1.743,0.229c0.036,0.073,0.048,0.194,0.048,0.303c0,0.097-0.024,0.254-0.061,0.339
			c-0.508-0.157-1.101-0.229-1.682-0.229c-0.895,0-1.803,0.314-1.803,1.452c0,0.907,0.46,1.222,1.488,1.609l0.642,0.241
			c1.113,0.424,1.827,0.992,1.827,2.179C110.417,283.137,109.328,283.863,107.804,283.863z"/>
		<path style="fill:#1A2A4F;" d="M119.346,277.874c-0.097-0.388-0.169-0.738-0.218-1.09c-0.061,0.339-0.133,0.666-0.242,1.077
			l-1.5,5.881c-0.121,0.036-0.314,0.061-0.484,0.061s-0.399-0.012-0.521-0.061l-1.767-6.135c-0.206-0.678-0.291-1.367-0.303-2.045
			c0.121-0.036,0.303-0.061,0.424-0.061c0.133,0,0.254,0.024,0.399,0.061c0.012,0.642,0.084,1.259,0.254,1.875l1.246,4.429
			c0.061,0.23,0.23,0.848,0.278,1.102c0.024-0.242,0.146-0.774,0.23-1.113l1.585-6.292c0.109-0.036,0.266-0.061,0.387-0.061
			c0.133,0,0.302,0.036,0.387,0.061l1.585,6.28c0.084,0.314,0.193,0.786,0.278,1.137c0.084-0.351,0.206-0.835,0.302-1.186
			l1.234-4.356c0.169-0.616,0.266-1.233,0.278-1.875c0.121-0.036,0.254-0.061,0.399-0.061c0.121,0,0.302,0.024,0.399,0.061
			c-0.012,0.629-0.097,1.295-0.303,1.996l-1.779,6.184c-0.133,0.036-0.411,0.061-0.544,0.061c-0.121,0-0.339-0.024-0.484-0.061
			L119.346,277.874z"/>
		<path style="fill:#1A2A4F;" d="M127.295,283.863c-1.585,0-2.602-1.089-2.602-3.268c0-2.178,1.029-3.278,2.614-3.278
			c1.585,0,2.589,1.076,2.589,3.255C129.896,282.75,128.88,283.863,127.295,283.863z M127.307,277.91
			c-1.162,0-1.791,0.896-1.791,2.674s0.617,2.687,1.778,2.687s1.779-0.908,1.779-2.687S128.469,277.91,127.307,277.91z"/>
		<path style="fill:#1A2A4F;" d="M134.119,278.019c-0.702,0.097-1.464,0.352-2.033,0.787v4.937
			c-0.121,0.036-0.266,0.061-0.399,0.061c-0.133,0-0.266-0.024-0.387-0.061v-6.305c0.073-0.023,0.182-0.048,0.303-0.048
			c0.097,0,0.229,0.024,0.327,0.048l0.061,0.774h0.012c0.521-0.447,1.428-0.822,2.118-0.895c0.024,0.072,0.048,0.205,0.048,0.314
			C134.167,277.753,134.144,277.91,134.119,278.019z"/>
		<path style="fill:#1A2A4F;" d="M136.26,283.742c-0.133,0.036-0.266,0.061-0.411,0.061c-0.121,0-0.266-0.024-0.375-0.061v-8.833
			c0.109-0.024,0.242-0.061,0.399-0.061c0.133,0,0.278,0.024,0.387,0.061V283.742z"/>
		<path style="fill:#1A2A4F;" d="M142.396,283.803c-0.109,0-0.242-0.036-0.315-0.061l-0.072-0.726h-0.012
			c-0.521,0.544-1.138,0.847-1.827,0.847c-1.67,0-2.469-1.392-2.469-3.086c0-1.682,0.714-3.46,2.638-3.46
			c0.605,0,1.162,0.205,1.609,0.52v-2.928c0.109-0.036,0.254-0.061,0.387-0.061c0.145,0,0.29,0.036,0.399,0.061v8.833
			C142.649,283.778,142.528,283.803,142.396,283.803z M141.948,278.503c-0.436-0.363-0.992-0.545-1.561-0.545
			c-1.404,0-1.875,1.38-1.875,2.783c0,1.077,0.339,2.48,1.694,2.48c0.653,0,1.319-0.326,1.743-0.835V278.503z"/>
		<path style="fill:#1A2A4F;" d="M152.57,283.742c-0.085,0.036-0.278,0.061-0.411,0.061c-0.146,0-0.352-0.024-0.509-0.061
			l-1.863-3.304c-0.133,0.013-0.266,0.013-0.412,0.013h-1.064v3.291c-0.097,0.036-0.291,0.061-0.424,0.061
			c-0.133,0-0.302-0.024-0.399-0.061v-8.18c0.533-0.024,1.186-0.061,1.779-0.061c1.743,0,2.904,0.568,2.904,2.444
			c0,1.149-0.544,1.984-1.597,2.323L152.57,283.742z M149.413,276.107c-0.303,0-0.835,0.012-1.101,0.036v3.678h1.113
			c1.234,0,1.912-0.544,1.912-1.888C151.336,276.604,150.659,276.107,149.413,276.107z"/>
		<path style="fill:#1A2A4F;" d="M158.294,282.193c0,0.436,0,0.98,0.023,1.549c-0.084,0.036-0.218,0.061-0.326,0.061
			c-0.098,0-0.23-0.024-0.327-0.061c-0.036-0.193-0.061-0.447-0.072-0.678h-0.013c-0.411,0.509-1.137,0.799-1.851,0.799
			c-1.126,0-2.069-0.629-2.069-1.924c0-0.738,0.303-1.283,0.774-1.622c0.532-0.375,1.234-0.496,1.984-0.496
			c0.424,0,0.774,0.024,1.089,0.073v-0.352c0-1.21-0.496-1.609-1.513-1.609c-0.568,0-1.271,0.121-1.706,0.23
			c-0.024-0.061-0.048-0.193-0.048-0.314c0-0.085,0.023-0.206,0.06-0.278c0.521-0.157,1.211-0.254,1.791-0.254
			c1.44,0,2.203,0.653,2.203,2.129V282.193z M157.507,280.487c-0.351-0.049-0.714-0.072-1.028-0.072
			c-0.593,0-1.126,0.108-1.488,0.387c-0.327,0.242-0.509,0.629-0.509,1.125c0,0.884,0.569,1.308,1.355,1.308
			c0.653,0,1.343-0.315,1.67-0.812V280.487z"/>
		<path style="fill:#1A2A4F;" d="M164.924,283.754c-0.097,0.024-0.242,0.049-0.388,0.049c-0.121,0-0.278-0.024-0.399-0.061v-3.836
			c0-0.581-0.072-1.028-0.241-1.343c-0.206-0.388-0.594-0.581-1.223-0.581c-0.604,0-1.331,0.339-1.803,0.702v5.058
			c-0.133,0.036-0.267,0.061-0.411,0.061c-0.121,0-0.267-0.024-0.375-0.061v-6.305c0.084-0.036,0.229-0.048,0.314-0.048
			c0.121,0,0.266,0.012,0.339,0.048l0.061,0.63h0.012c0.665-0.545,1.428-0.75,2.045-0.75s1.259,0.205,1.609,0.629
			c0.387,0.46,0.46,1.125,0.46,1.778V283.754z"/>
		<path style="fill:#1A2A4F;" d="M171.3,283.742c-0.085,0.024-0.267,0.061-0.399,0.061c-0.134,0-0.327-0.024-0.484-0.061
			l-2.057-3.243l-0.92,0.859v2.384c-0.121,0.036-0.278,0.061-0.424,0.061c-0.097,0-0.254-0.024-0.362-0.061v-8.833
			c0.108-0.036,0.241-0.061,0.398-0.061c0.146,0,0.267,0.024,0.388,0.061v5.529l2.045-1.911c0.436-0.412,0.653-0.774,0.714-1.09
			c0.085-0.036,0.267-0.06,0.375-0.06c0.109,0,0.278,0.023,0.351,0.06c-0.048,0.448-0.326,0.993-0.883,1.501l-1.125,1.041
			L171.3,283.742z"/>
		<path style="fill:#1A2A4F;" d="M172.836,276.204c-0.278,0-0.509-0.242-0.509-0.533c0-0.29,0.23-0.52,0.509-0.52
			s0.52,0.229,0.52,0.52C173.355,275.962,173.114,276.204,172.836,276.204z M173.235,283.742c-0.109,0.036-0.267,0.061-0.399,0.061
			c-0.134,0-0.278-0.024-0.388-0.061v-6.305c0.097-0.023,0.254-0.06,0.375-0.06c0.134,0,0.314,0.023,0.412,0.06V283.742z"/>
		<path style="fill:#1A2A4F;" d="M179.891,283.754c-0.097,0.024-0.242,0.049-0.388,0.049c-0.121,0-0.278-0.024-0.399-0.061v-3.836
			c0-0.581-0.072-1.028-0.241-1.343c-0.206-0.388-0.594-0.581-1.223-0.581c-0.604,0-1.331,0.339-1.803,0.702v5.058
			c-0.133,0.036-0.267,0.061-0.411,0.061c-0.121,0-0.267-0.024-0.375-0.061v-6.305c0.084-0.036,0.229-0.048,0.314-0.048
			c0.121,0,0.266,0.012,0.339,0.048l0.061,0.63h0.012c0.665-0.545,1.428-0.75,2.045-0.75s1.259,0.205,1.609,0.629
			c0.387,0.46,0.46,1.125,0.46,1.778V283.754z"/>
		<path style="fill:#1A2A4F;" d="M186.182,282.689c0,0.907-0.049,1.996-0.484,2.747c-0.521,0.896-1.452,1.282-2.384,1.282
			c-0.532,0-0.992-0.061-1.379-0.193c-0.036-0.072-0.049-0.193-0.049-0.291c0-0.072,0.024-0.218,0.049-0.29
			c0.375,0.097,0.811,0.17,1.246,0.17c1.524,0,2.214-0.944,2.214-2.602v-0.509c-0.472,0.496-1.137,0.738-1.682,0.738
			c-1.609,0-2.444-1.246-2.444-3.001c0-2.153,1.271-3.424,3.146-3.424c0.496,0,1.246,0.145,1.767,0.351V282.689z M185.395,278.055
			c-0.436-0.121-0.75-0.157-1.053-0.157c-1.536,0-2.263,1.295-2.263,2.808c0,1.343,0.509,2.396,1.694,2.396
			c0.605,0,1.223-0.302,1.621-0.726V278.055z"/>
		<path style="fill:#1A2A4F;" d="M189.352,283.863c-0.605,0-1.234-0.109-1.67-0.278c-0.036-0.085-0.061-0.229-0.061-0.339
			c0-0.072,0.024-0.254,0.049-0.327c0.447,0.182,1.089,0.327,1.621,0.327c0.92,0,1.488-0.388,1.488-1.149
			c0-0.689-0.351-0.932-1.307-1.283c-1.331-0.483-1.767-1.04-1.767-1.863c0-1.113,0.919-1.633,2.105-1.633
			c0.399,0,0.919,0.072,1.222,0.169c0.036,0.109,0.049,0.218,0.049,0.29c0,0.098-0.024,0.267-0.049,0.352
			c-0.399-0.121-0.822-0.194-1.234-0.194c-0.858,0-1.379,0.327-1.379,0.993c0,0.58,0.326,0.858,1.318,1.233
			c0.908,0.339,1.743,0.678,1.743,1.9C191.481,283.295,190.55,283.863,189.352,283.863z"/>
		<path style="fill:#1A2A4F;" d="M193.768,280.137c0-1.646-0.496-3.315-1.621-4.756c0.097-0.097,0.229-0.169,0.363-0.206
			c1.307,1.344,2.032,3.086,2.032,4.985c0,1.719-0.689,3.582-2.032,4.925c-0.134-0.036-0.267-0.108-0.363-0.205
			C193.271,283.392,193.768,281.77,193.768,280.137z"/>
	</g>
</g>
</svg>
