<?xml version="1.0" encoding="utf-8"?>
<!-- Generator: Adobe Illustrator 16.0.0, SVG Export Plug-In . SVG Version: 6.00 Build 0)  -->
<!DOCTYPE svg PUBLIC "-//W3C//DTD SVG 1.0//EN" "http://www.w3.org/TR/2001/REC-SVG-20010904/DTD/svg10.dtd">
<svg version="1.0" xmlns="http://www.w3.org/2000/svg" xmlns:xlink="http://www.w3.org/1999/xlink" x="0px" y="0px" width="300px"
	 height="300px" viewBox="0 0 300 300" style="enable-background:new 0 0 300 300;" xml:space="preserve">
<g id="Icon">
	<path style="fill:#58595B;" d="M83,95.383c0.56,0,1.066-0.009,1.573,0c7.684,0.154,15.331-0.185,22.786-2.24
		c2.111-0.582,4.126-1.529,6.146-2.398c0.47-0.203,1.079-0.764,1.108-1.193c0.124-1.799,0.053-3.61,0.053-5.463
		C104.471,88.443,93.788,88.753,83,88.62V95.383z M114.68,71.563c-11.675,4.775-23.759,4.894-35.817,4.223
		c0.968,0.945,2.042,1.874,2.966,2.932c0.974,1.115,1.168,2.549,1.144,4.129c2.018,0,3.951,0.017,5.884-0.003
		c6.692-0.066,13.326-0.644,19.758-2.611c1.751-0.534,3.417-1.37,5.075-2.167c0.424-0.203,0.919-0.773,0.947-1.202
		C114.742,75.115,114.68,73.356,114.68,71.563 M60.565,46.725v3.012c0,3.337,0.023,3.387,3.17,4.704
		c3.72,1.553,7.637,2.349,11.609,2.861c8.552,1.106,17.112,1.094,25.651-0.162c3.964-0.584,7.854-1.457,11.529-3.136
		c1.52-0.695,2.49-1.596,2.191-3.467c-0.161-1.005-0.023-2.058-0.034-3.088c-0.001-0.22-0.051-0.439-0.085-0.685
		c-8.663,3.748-17.752,4.531-26.941,4.533C78.44,51.298,69.319,50.521,60.565,46.725 M77.343,101.536
		c-8.698,3.771-17.808,4.553-27.023,4.556c-9.242,0.004-18.376-0.782-27.093-4.556c0,1.603,0.065,3.119-0.024,4.625
		c-0.058,1,0.329,1.661,1.16,2.05c1.42,0.666,2.835,1.388,4.323,1.862c6.291,2.006,12.788,2.651,19.356,2.779
		c7.416,0.144,14.791-0.255,21.98-2.244c2.165-0.599,4.228-1.596,6.299-2.499c0.43-0.188,0.95-0.757,0.975-1.179
		C77.407,105.16,77.343,103.378,77.343,101.536 M77.348,89.083c-8.726,3.803-17.849,4.579-27.06,4.579
		c-9.222,0.001-18.36-0.782-27.061-4.575c0,1.223,0.14,2.333-0.03,3.394c-0.356,2.219,0.702,3.405,2.633,4.087
		c0.229,0.08,0.447,0.188,0.67,0.279c3.846,1.565,7.88,2.345,11.973,2.877c6.059,0.79,12.141,0.918,18.234,0.526
		c5.087-0.329,10.135-0.975,15-2.567c1.653-0.541,3.226-1.354,4.786-2.141c0.385-0.194,0.794-0.762,0.815-1.178
		C77.401,92.644,77.348,90.917,77.348,89.083 M60.565,59.146c0,1.576,0.082,3.066-0.024,4.542c-0.081,1.116,0.354,1.845,1.297,2.241
		c1.947,0.815,3.883,1.713,5.906,2.287c5.868,1.667,11.905,2.187,17.981,2.294c6.869,0.12,13.691-0.312,20.399-1.909
		c2.565-0.612,5.088-1.362,7.388-2.713c0.786-0.465,1.288-1.029,1.192-2.041c-0.085-0.902-0.019-1.817-0.019-2.728v-1.996
		C102.806,65.147,73.17,65.414,60.565,59.146 M60.565,34.275v2.867c0,3.493,0.041,3.581,3.285,4.904
		c4.331,1.764,8.892,2.57,13.506,3.061c7.748,0.829,15.493,0.762,23.212-0.342c3.964-0.568,7.854-1.428,11.563-3.017
		c1.838-0.786,2.943-1.841,2.587-4.037c-0.179-1.097-0.032-2.249-0.032-3.437c-8.766,3.82-17.895,4.582-27.108,4.578
		C78.372,38.849,69.248,38.082,60.565,34.275 M50.094,76.216c-6.869,0.036-13.869,0.542-20.66,2.594
		c-1.782,0.54-3.513,1.319-5.165,2.181c-1.415,0.739-1.354,1.395,0.008,2.276c0.48,0.312,0.983,0.613,1.518,0.813
		c1.526,0.575,3.049,1.187,4.618,1.62c5.879,1.622,11.906,2.171,17.979,2.278c6.868,0.12,13.691-0.31,20.396-1.911
		c2.653-0.635,5.284-1.37,7.608-2.872c1.273-0.821,1.311-1.462-0.028-2.167c-1.652-0.865-3.375-1.661-5.155-2.199
		C64.393,76.764,57.362,76.247,50.094,76.216 M87.649,33.5c4.014-0.312,8.042-0.518,12.042-0.965
		c4.036-0.449,8.013-1.282,11.785-2.871c0.912-0.385,1.792-0.88,2.612-1.439c0.813-0.555,0.79-1.046-0.011-1.645
		c-0.556-0.414-1.153-0.809-1.79-1.064c-1.515-0.601-3.041-1.21-4.608-1.65c-5.426-1.529-10.995-2.104-16.611-2.29
		c-7.446-0.244-14.841,0.176-22.116,1.917c-2.566,0.614-5.101,1.349-7.36,2.771c-1.359,0.856-1.399,1.536,0.029,2.276
		c1.682,0.87,3.443,1.656,5.253,2.201C73.639,32.774,80.615,33.253,87.649,33.5 M54.969,70.498v-1.206
		c0-13.706,0.027-27.413-0.026-41.118c-0.008-2.573,0.993-4.495,2.974-6.003c2.658-2.023,5.735-3.12,8.913-3.943
		c8.262-2.135,16.681-2.629,25.17-2.286c5.766,0.233,11.477,0.894,17.052,2.455c2.633,0.736,5.196,1.666,7.484,3.204
		c1.723,1.154,3.193,2.535,3.608,4.693c0.107,0.561,0.123,1.144,0.123,1.717c0.004,20.195-0.023,40.388,0.035,60.585
		c0.007,2.77-1.099,4.77-3.243,6.327c-2.747,1.992-5.901,3.066-9.144,3.873c-7.734,1.921-15.61,2.445-23.547,2.26
		c-0.424-0.009-0.847,0-1.346,0c-0.024,0.206-0.069,0.433-0.071,0.664c-0.009,1.453-0.068,2.914,0.009,4.364
		c0.143,2.651-1.023,4.606-3.072,6.134c-2.292,1.713-4.908,2.75-7.628,3.523c-8.608,2.441-17.417,2.975-26.303,2.619
		c-6.374-0.255-12.684-1-18.789-2.978c-2.287-0.739-4.481-1.677-6.427-3.123c-2.074-1.544-3.156-3.5-3.126-6.197
		c0.09-7.672,0.093-15.343,0-23.015c-0.035-2.771,1.093-4.769,3.231-6.336c2.74-2.006,5.89-3.08,9.13-3.903
		c7.761-1.973,15.674-2.403,23.641-2.22c0.362,0.008,0.728,0.012,1.091,0.012C54.762,70.598,54.814,70.559,54.969,70.498"/>
</g>
<g id="Text" style="display:none;">
	<text transform="matrix(1 0 0 1 16.5137 147.3193)" style="display:inline;"><tspan x="0" y="0" style="fill:#B3A068; font-family:'FSMatthew-Bold'; font-size:23.2757;">O</tspan><tspan x="14.547" y="0" style="fill:#B3A068; font-family:'FSMatthew-Bold'; font-size:23.2757;">u</tspan><tspan x="27.069" y="0" style="fill:#B3A068; font-family:'FSMatthew-Bold'; font-size:23.2757;">r </tspan><tspan x="40.103" y="0" style="fill:#B3A068; font-family:'FSMatthew-Bold'; font-size:23.2757;">w</tspan><tspan x="57.024" y="0" style="fill:#B3A068; font-family:'FSMatthew-Bold'; font-size:23.2757;">o</tspan><tspan x="69.314" y="0" style="fill:#B3A068; font-family:'FSMatthew-Bold'; font-size:23.2757;">rl</tspan><tspan x="83.302" y="0" style="fill:#B3A068; font-family:'FSMatthew-Bold'; font-size:23.2757;">d</tspan><tspan x="95.731" y="0" style="fill:#B3A068; font-family:'FSMatthew-Bold'; font-size:23.2757;">-</tspan><tspan x="102.271" y="0" style="fill:#B3A068; font-family:'FSMatthew-Bold'; font-size:23.2757;">cl</tspan><tspan x="118.168" y="0" style="fill:#B3A068; font-family:'FSMatthew-Bold'; font-size:23.2757;">a</tspan><tspan x="129.993" y="0" style="fill:#B3A068; font-family:'FSMatthew-Bold'; font-size:23.2757;">s</tspan><tspan x="139.675" y="0" style="fill:#B3A068; font-family:'FSMatthew-Bold'; font-size:23.2757;">s d</tspan><tspan x="166.511" y="0" style="fill:#B3A068; font-family:'FSMatthew-Bold'; font-size:23.2757;">a</tspan><tspan x="178.266" y="0" style="fill:#B3A068; font-family:'FSMatthew-Bold'; font-size:23.2757;">t</tspan><tspan x="187.389" y="0" style="fill:#B3A068; font-family:'FSMatthew-Bold'; font-size:23.2757;">a </tspan></text>
	<text transform="matrix(1 0 0 1 16.5137 170.5947)" style="display:inline;"><tspan x="0" y="0" style="fill:#B3A068; font-family:'FSMatthew-Bold'; font-size:23.2757; letter-spacing:-1;">c</tspan><tspan x="9.915" y="0" style="fill:#B3A068; font-family:'FSMatthew-Bold'; font-size:23.2757;">o</tspan><tspan x="22.205" y="0" style="fill:#B3A068; font-family:'FSMatthew-Bold'; font-size:23.2757;">nne</tspan><tspan x="59.492" y="0" style="fill:#B3A068; font-family:'FSMatthew-Bold'; font-size:23.2757;">c</tspan><tspan x="70.268" y="0" style="fill:#B3A068; font-family:'FSMatthew-Bold'; font-size:23.2757;">tivi</tspan><tspan x="102.667" y="0" style="fill:#B3A068; font-family:'FSMatthew-Bold'; font-size:23.2757; letter-spacing:-1;">t</tspan><tspan x="111.604" y="0" style="fill:#B3A068; font-family:'FSMatthew-Bold'; font-size:23.2757;">y will s</tspan><tspan x="177.054" y="0" style="fill:#B3A068; font-family:'FSMatthew-Bold'; font-size:23.2757;">upp</tspan><tspan x="214.62" y="0" style="fill:#B3A068; font-family:'FSMatthew-Bold'; font-size:23.2757;">o</tspan><tspan x="226.933" y="0" style="fill:#B3A068; font-family:'FSMatthew-Bold'; font-size:23.2757;">r</tspan><tspan x="235.777" y="0" style="fill:#B3A068; font-family:'FSMatthew-Bold'; font-size:23.2757;">t </tspan><tspan x="249.603" y="0" style="fill:#B3A068; font-family:'FSMatthew-Bold'; font-size:23.2757;">a</tspan></text>
	<text transform="matrix(1 0 0 1 16.5137 223.3525)" style="display:inline;"><tspan x="0" y="0" style="fill:#B3A068; font-family:'FSMatthew-Bold'; font-size:58.9652; letter-spacing:-2;">£25</tspan><tspan x="90.038" y="0" style="fill:#B3A068; font-family:'FSMatthew-Bold'; font-size:58.9652; letter-spacing:-2;"> </tspan><tspan x="100.533" y="0" style="fill:#B3A068; font-family:'FSMatthew-Bold'; font-size:58.9652; letter-spacing:-2;">millio</tspan><tspan x="236.857" y="0" style="fill:#B3A068; font-family:'FSMatthew-Bold'; font-size:58.9652;">n</tspan></text>
	<text transform="matrix(1 0 0 1 16.5137 243.5244)" style="display:inline;"><tspan x="0" y="0" style="fill:#58595B; font-family:'FSMatthew-Light'; font-size:17.0689;">da</tspan><tspan x="17.359" y="0" style="fill:#58595B; font-family:'FSMatthew-Light'; font-size:17.0689;">t</tspan><tspan x="23.589" y="0" style="fill:#58595B; font-family:'FSMatthew-Light'; font-size:17.0689;">a cent</tspan><tspan x="66.909" y="0" style="fill:#58595B; font-family:'FSMatthew-Light'; font-size:17.0689;">r</tspan><tspan x="72.166" y="0" style="fill:#58595B; font-family:'FSMatthew-Light'; font-size:17.0689;">e and associa</tspan><tspan x="164.473" y="0" style="fill:#58595B; font-family:'FSMatthew-Light'; font-size:17.0689;">t</tspan><tspan x="170.43" y="0" style="fill:#58595B; font-family:'FSMatthew-Light'; font-size:17.0689;">ed me</tspan><tspan x="214.193" y="0" style="fill:#58595B; font-family:'FSMatthew-Light'; font-size:17.0689;">d</tspan><tspan x="223.615" y="0" style="fill:#58595B; font-family:'FSMatthew-Light'; font-size:17.0689;">ia   </tspan></text>
	<text transform="matrix(1 0 0 1 16.5137 260.5947)" style="display:inline;"><tspan x="0" y="0" style="fill:#58595B; font-family:'FSMatthew-Light'; font-size:17.0689;">businesses as pa</tspan><tspan x="114.069" y="0" style="fill:#58595B; font-family:'FSMatthew-Light'; font-size:17.0689;">r</tspan><tspan x="119.924" y="0" style="fill:#58595B; font-family:'FSMatthew-Light'; font-size:17.0689;">t of an en</tspan><tspan x="187.446" y="0" style="fill:#58595B; font-family:'FSMatthew-Light'; font-size:17.0689;">t</tspan><tspan x="193.403" y="0" style="fill:#58595B; font-family:'FSMatthew-Light'; font-size:17.0689;">erprise </tspan></text>
	<text transform="matrix(1 0 0 1 16.5137 277.6631)" style="display:inline;"><tspan x="0" y="0" style="fill:#58595B; font-family:'FSMatthew-Light'; font-size:17.0689;">z</tspan><tspan x="7.63" y="0" style="fill:#58595B; font-family:'FSMatthew-Light'; font-size:17.0689;">one loca</tspan><tspan x="65.407" y="0" style="fill:#58595B; font-family:'FSMatthew-Light'; font-size:17.0689;">t</tspan><tspan x="71.363" y="0" style="fill:#58595B; font-family:'FSMatthew-Light'; font-size:17.0689;">ed on campus</tspan></text>
</g>
<g id="Text_Flat">
	<g>
		<path style="fill:#B3A068;" d="M24.123,147.552c-4.305,0-6.585-2.979-6.585-8.098s2.28-8.098,6.585-8.098
			c4.305,0,6.585,2.979,6.585,8.098S28.428,147.552,24.123,147.552z M24.123,134.219c-2.001,0-3.142,1.536-3.142,5.235
			c0,3.7,1.14,5.235,3.142,5.235c2.001,0,3.141-1.535,3.141-5.235C27.264,135.754,26.124,134.219,24.123,134.219z"/>
		<path style="fill:#B3A068;" d="M42.882,142.643c0,3.467-1.629,4.909-5.259,4.909c-3.537,0-5.166-1.442-5.166-4.909v-7.447
			c0.326-0.046,0.954-0.116,1.583-0.116c0.559,0,1.256,0.046,1.629,0.116v7.423c0,1.814,0.535,2.467,2.001,2.467
			c1.489,0,2.001-0.652,2.001-2.467v-7.423c0.326-0.07,1.047-0.116,1.629-0.116c0.582,0,1.35,0.07,1.582,0.116V142.643z"/>
		<path style="fill:#B3A068;" d="M51.914,137.663c-1.21,0.186-2.513,0.605-3.677,1.21v8.447c-0.326,0.069-1.024,0.116-1.582,0.116
			c-0.559,0-1.373-0.047-1.629-0.116v-12.124c0.349-0.046,0.931-0.116,1.396-0.116c0.396,0,1.024,0.046,1.35,0.116l0.186,1.489
			c0.861-0.768,2.42-1.605,3.933-1.722c0.047,0.186,0.093,0.861,0.093,1.35C51.983,136.778,51.96,137.336,51.914,137.663z"/>
		<path style="fill:#B3A068;" d="M70.369,147.319c-0.279,0.069-1.117,0.116-1.583,0.116c-0.489,0-1.21-0.047-1.466-0.116
			l-1.862-7.749h-0.046l-1.885,7.749c-0.233,0.047-1.117,0.116-1.536,0.116c-0.535,0-1.419-0.069-1.606-0.116l-2.56-8.563
			c-0.326-1.093-0.535-2.443-0.559-3.56c0.373-0.07,0.884-0.116,1.443-0.116c0.512,0,1.21,0.07,1.513,0.116
			c0,0.908,0.163,2.048,0.419,3.118l1.373,5.468h0.047l2.257-8.586c0.256-0.046,0.605-0.093,1.187-0.093
			c0.488,0,0.861,0.047,1.163,0.093l2.118,8.586h0.047l1.628-5.468c0.279-1.047,0.466-2.21,0.466-3.118
			c0.302-0.046,1-0.116,1.512-0.116c0.559,0,1.024,0.046,1.396,0.116c-0.023,1.21-0.187,2.118-0.535,3.188L70.369,147.319z"/>
		<path style="fill:#B3A068;" d="M80.03,147.552c-3.514,0-5.748-2.257-5.748-6.259c0-3.979,2.21-6.33,5.748-6.33
			s5.748,2.327,5.748,6.306C85.778,145.248,83.567,147.552,80.03,147.552z M80.03,137.476c-1.513,0-2.443,1.024-2.443,3.793
			c0,2.769,0.931,3.77,2.443,3.77s2.443-1.001,2.443-3.77C82.474,138.477,81.543,137.476,80.03,137.476z"/>
		<path style="fill:#B3A068;" d="M94.158,137.663c-1.21,0.186-2.513,0.605-3.677,1.21v8.447c-0.326,0.069-1.024,0.116-1.582,0.116
			c-0.559,0-1.373-0.047-1.629-0.116v-12.124c0.349-0.046,0.931-0.116,1.396-0.116c0.396,0,1.024,0.046,1.35,0.116l0.186,1.489
			c0.861-0.768,2.42-1.605,3.933-1.722c0.047,0.186,0.093,0.861,0.093,1.35C94.228,136.778,94.205,137.336,94.158,137.663z"/>
		<path style="fill:#B3A068;" d="M99,147.319c-0.419,0.093-1.28,0.116-1.652,0.116c-0.559,0-1.164-0.047-1.559-0.116v-16.963
			c0.512-0.07,1.14-0.117,1.559-0.117c0.559,0,1.21,0.047,1.652,0.117V147.319z"/>
		<path style="fill:#B3A068;" d="M111.544,147.319c-0.373,0.069-1,0.116-1.489,0.116c-0.442,0-0.954-0.047-1.28-0.116l-0.093-1.07
			c-0.838,0.814-1.908,1.303-3.165,1.303c-3.467,0-4.957-2.769-4.957-6.097c0-3.583,1.605-6.492,5.306-6.492
			c0.907,0,1.955,0.279,2.466,0.605v-5.212c0.419-0.07,1.117-0.117,1.629-0.117c0.628,0,1.117,0.07,1.583,0.117V147.319z
			 M108.333,137.965c-0.559-0.256-1.28-0.396-1.885-0.396c-1.885,0-2.583,1.675-2.583,3.7c0,1.698,0.419,3.63,2.304,3.63
			c0.908,0,1.605-0.372,2.164-0.838V137.965z"/>
		<path style="fill:#B3A068;" d="M118.156,142.503h-5.259c-0.07-0.326-0.163-0.908-0.163-1.233c0-0.396,0.046-0.978,0.14-1.257
			h5.282c0.093,0.279,0.14,0.861,0.14,1.257C118.295,141.595,118.226,142.177,118.156,142.503z"/>
		<path style="fill:#B3A068;" d="M128.838,136.499c0,0.512-0.07,1.07-0.233,1.559c-0.768-0.303-1.769-0.489-2.723-0.489
			c-1.815,0-3.048,1.164-3.048,3.77c0,2.28,1.047,3.607,3.072,3.607c1.047,0,2.048-0.187,2.792-0.442
			c0.14,0.512,0.209,1.14,0.209,1.629c0,0.325,0,0.559-0.023,0.768c-0.931,0.419-2.164,0.651-3.328,0.651
			c-4.026,0-6.027-2.35-6.027-6.166c0-3.956,2.094-6.422,6.167-6.422c1.14,0,2.257,0.232,3.048,0.605
			C128.814,135.824,128.838,136.15,128.838,136.499z"/>
		<path style="fill:#B3A068;" d="M133.867,147.319c-0.419,0.093-1.28,0.116-1.652,0.116c-0.559,0-1.164-0.047-1.559-0.116v-16.963
			c0.512-0.07,1.14-0.117,1.559-0.117c0.559,0,1.21,0.047,1.652,0.117V147.319z"/>
		<path style="fill:#B3A068;" d="M145.782,143.945c0,1.001,0.023,2.141,0.023,3.374c-0.373,0.093-1.001,0.116-1.396,0.116
			c-0.442,0-1.024-0.047-1.396-0.116c-0.046-0.279-0.093-0.768-0.116-1.07h-0.047c-0.791,0.814-2.141,1.303-3.374,1.303
			c-2.327,0-4.002-1.442-4.002-3.839c0-3.724,3.304-4.352,6.074-4.352c0.186,0,0.628,0.023,1,0.046c0-0.14-0.023-0.442-0.046-0.559
			c-0.163-0.954-0.792-1.35-2.141-1.35c-1.047,0-2.513,0.209-3.63,0.489c-0.117-0.326-0.186-0.884-0.186-1.303
			c0-0.349,0.046-0.884,0.139-1.117c1.303-0.396,2.909-0.605,4.235-0.605c2.909,0,4.863,1.35,4.863,4.375V143.945z M142.57,141.642
			c-0.279-0.023-0.651-0.047-0.977-0.047c-2.094,0-2.909,0.838-2.909,1.885c0,0.908,0.605,1.536,1.652,1.536
			c0.768,0,1.629-0.372,2.234-0.907V141.642z"/>
		<path style="fill:#B3A068;" d="M151.532,147.552c-1.373,0-2.815-0.209-3.932-0.581c-0.07-0.35-0.093-0.792-0.093-1.257
			c0-0.372,0.093-0.907,0.186-1.233c1.071,0.372,2.606,0.628,3.514,0.628c1.256,0,1.978-0.419,1.978-1.279
			c0-0.745-0.582-1.094-2.117-1.583c-2.443-0.768-3.583-1.908-3.583-3.676c0-2.629,2.42-3.606,4.723-3.606
			c1.07,0,2.258,0.186,3.072,0.442c0.093,0.349,0.14,0.838,0.14,1.117c0,0.302-0.094,0.931-0.21,1.326
			c-0.791-0.233-1.885-0.419-2.792-0.419c-1.117,0-1.885,0.279-1.885,0.978c0,0.745,0.86,1.047,2.21,1.489
			c2.351,0.768,3.468,1.745,3.468,3.583C156.21,146.318,153.93,147.552,151.532,147.552z"/>
		<path style="fill:#B3A068;" d="M161.215,147.552c-1.373,0-2.815-0.209-3.933-0.581c-0.07-0.35-0.093-0.792-0.093-1.257
			c0-0.372,0.093-0.907,0.186-1.233c1.07,0.372,2.606,0.628,3.514,0.628c1.257,0,1.979-0.419,1.979-1.279
			c0-0.745-0.582-1.094-2.118-1.583c-2.443-0.768-3.583-1.908-3.583-3.676c0-2.629,2.42-3.606,4.724-3.606
			c1.07,0,2.257,0.186,3.071,0.442c0.094,0.349,0.14,0.838,0.14,1.117c0,0.302-0.093,0.931-0.209,1.326
			c-0.791-0.233-1.885-0.419-2.793-0.419c-1.116,0-1.885,0.279-1.885,0.978c0,0.745,0.861,1.047,2.211,1.489
			c2.351,0.768,3.467,1.745,3.467,3.583C165.892,146.318,163.611,147.552,161.215,147.552z"/>
		<path style="fill:#B3A068;" d="M182.3,147.319c-0.372,0.069-1,0.116-1.489,0.116c-0.441,0-0.954-0.047-1.279-0.116l-0.093-1.07
			c-0.838,0.814-1.908,1.303-3.165,1.303c-3.467,0-4.957-2.769-4.957-6.097c0-3.583,1.606-6.492,5.306-6.492
			c0.908,0,1.955,0.279,2.467,0.605v-5.212c0.419-0.07,1.117-0.117,1.629-0.117c0.628,0,1.117,0.07,1.582,0.117V147.319z
			 M179.089,137.965c-0.559-0.256-1.279-0.396-1.885-0.396c-1.885,0-2.583,1.675-2.583,3.7c0,1.698,0.419,3.63,2.304,3.63
			c0.907,0,1.605-0.372,2.164-0.838V137.965z"/>
		<path style="fill:#B3A068;" d="M194.124,143.945c0,1.001,0.023,2.141,0.023,3.374c-0.372,0.093-1.001,0.116-1.396,0.116
			c-0.442,0-1.023-0.047-1.396-0.116c-0.046-0.279-0.093-0.768-0.116-1.07h-0.046c-0.791,0.814-2.142,1.303-3.374,1.303
			c-2.327,0-4.003-1.442-4.003-3.839c0-3.724,3.305-4.352,6.073-4.352c0.187,0,0.629,0.023,1.001,0.046
			c0-0.14-0.023-0.442-0.047-0.559c-0.163-0.954-0.791-1.35-2.141-1.35c-1.047,0-2.513,0.209-3.63,0.489
			c-0.116-0.326-0.187-0.884-0.187-1.303c0-0.349,0.047-0.884,0.14-1.117c1.304-0.396,2.909-0.605,4.235-0.605
			c2.908,0,4.863,1.35,4.863,4.375V143.945z M190.913,141.642c-0.279-0.023-0.651-0.047-0.978-0.047
			c-2.095,0-2.909,0.838-2.909,1.885c0,0.908,0.605,1.536,1.652,1.536c0.769,0,1.629-0.372,2.234-0.907V141.642z"/>
		<path style="fill:#B3A068;" d="M203.901,147.087c-0.698,0.279-1.536,0.465-2.886,0.465c-2.63,0-3.933-1.279-3.933-3.839v-6.12
			h-2.001c-0.094-0.349-0.163-0.931-0.163-1.233c0-0.279,0.069-0.791,0.14-1.024l2.024-0.14v-3.118
			c0.256-0.046,1.07-0.093,1.605-0.093c0.582,0,1.304,0.046,1.605,0.093v3.118h3.352c0.093,0.326,0.139,0.791,0.139,1.047
			c0,0.279-0.022,1.023-0.116,1.35h-3.374v5.654c0,1.163,0.466,1.676,1.605,1.676c0.629,0,1.396-0.094,1.932-0.279
			c0.093,0.303,0.21,0.884,0.21,1.419C204.041,146.342,203.994,146.831,203.901,147.087z"/>
		<path style="fill:#B3A068;" d="M215.002,143.945c0,1.001,0.023,2.141,0.023,3.374c-0.372,0.093-1.001,0.116-1.396,0.116
			c-0.442,0-1.023-0.047-1.396-0.116c-0.046-0.279-0.093-0.768-0.116-1.07h-0.046c-0.791,0.814-2.142,1.303-3.374,1.303
			c-2.327,0-4.003-1.442-4.003-3.839c0-3.724,3.305-4.352,6.073-4.352c0.187,0,0.629,0.023,1.001,0.046
			c0-0.14-0.023-0.442-0.047-0.559c-0.163-0.954-0.791-1.35-2.141-1.35c-1.047,0-2.513,0.209-3.63,0.489
			c-0.116-0.326-0.187-0.884-0.187-1.303c0-0.349,0.047-0.884,0.14-1.117c1.304-0.396,2.909-0.605,4.235-0.605
			c2.908,0,4.863,1.35,4.863,4.375V143.945z M211.791,141.642c-0.279-0.023-0.651-0.047-0.978-0.047
			c-2.095,0-2.909,0.838-2.909,1.885c0,0.908,0.605,1.536,1.652,1.536c0.769,0,1.629-0.372,2.234-0.907V141.642z"/>
	</g>
	<g>
		<path style="fill:#B3A068;" d="M26.566,159.774c0,0.512-0.07,1.07-0.233,1.559c-0.768-0.302-1.769-0.488-2.723-0.488
			c-1.815,0-3.048,1.163-3.048,3.77c0,2.28,1.047,3.607,3.072,3.607c1.047,0,2.048-0.187,2.792-0.442
			c0.14,0.512,0.209,1.14,0.209,1.629c0,0.325,0,0.559-0.023,0.768c-0.931,0.419-2.164,0.651-3.328,0.651
			c-4.026,0-6.027-2.35-6.027-6.166c0-3.956,2.094-6.423,6.167-6.423c1.14,0,2.257,0.233,3.048,0.605
			C26.543,159.1,26.566,159.426,26.566,159.774z"/>
		<path style="fill:#B3A068;" d="M32.921,170.827c-3.514,0-5.748-2.257-5.748-6.259c0-3.979,2.21-6.33,5.748-6.33
			s5.748,2.327,5.748,6.307C38.668,168.523,36.458,170.827,32.921,170.827z M32.921,160.752c-1.513,0-2.443,1.023-2.443,3.793
			c0,2.769,0.931,3.77,2.443,3.77s2.443-1.001,2.443-3.77C35.364,161.752,34.434,160.752,32.921,160.752z"/>
		<path style="fill:#B3A068;" d="M50.818,170.595c-0.372,0.093-1.164,0.116-1.536,0.116c-0.396,0-1.303-0.047-1.675-0.116v-7.958
			c0-1.257-0.652-1.792-1.699-1.792c-0.838,0-1.792,0.303-2.537,0.768v8.982c-0.535,0.093-1.28,0.116-1.699,0.116
			c-0.372,0-1.047-0.023-1.512-0.116v-12.123c0.302-0.07,1.047-0.117,1.396-0.117c0.326,0,1,0.047,1.35,0.117l0.163,1.07
			c1.047-0.769,2.56-1.304,3.909-1.304c2.56,0,3.839,1.583,3.839,4.235V170.595z"/>
		<path style="fill:#B3A068;" d="M63.643,170.595c-0.372,0.093-1.164,0.116-1.536,0.116c-0.396,0-1.303-0.047-1.675-0.116v-7.958
			c0-1.257-0.652-1.792-1.699-1.792c-0.838,0-1.792,0.303-2.537,0.768v8.982c-0.535,0.093-1.28,0.116-1.699,0.116
			c-0.372,0-1.047-0.023-1.512-0.116v-12.123c0.302-0.07,1.047-0.117,1.396-0.117c0.326,0,1,0.047,1.35,0.117l0.163,1.07
			c1.047-0.769,2.56-1.304,3.909-1.304c2.56,0,3.839,1.583,3.839,4.235V170.595z"/>
		<path style="fill:#B3A068;" d="M75.863,165.661H68.51c0.046,1.513,1.094,2.63,3.118,2.63c1.094,0,2.21-0.14,3.165-0.396
			c0.14,0.628,0.233,1.326,0.233,1.954c0,0.094,0,0.21-0.023,0.466c-1.187,0.349-2.42,0.512-3.63,0.512
			c-4.421,0-6.26-2.536-6.26-6.236c0-3.234,1.815-6.353,5.748-6.353c3.723,0,5.073,2.746,5.073,5.771
			C75.933,164.429,75.933,165.057,75.863,165.661z M72.722,163.357c0-1.466-0.396-2.699-1.908-2.699
			c-1.443,0-2.211,1.141-2.304,2.699H72.722z"/>
		<path style="fill:#B3A068;" d="M86.058,159.774c0,0.512-0.069,1.07-0.232,1.559c-0.768-0.302-1.769-0.488-2.723-0.488
			c-1.815,0-3.048,1.163-3.048,3.77c0,2.28,1.047,3.607,3.072,3.607c1.047,0,2.048-0.187,2.792-0.442
			c0.139,0.512,0.209,1.14,0.209,1.629c0,0.325,0,0.559-0.023,0.768c-0.931,0.419-2.164,0.651-3.328,0.651
			c-4.026,0-6.027-2.35-6.027-6.166c0-3.956,2.094-6.423,6.167-6.423c1.14,0,2.257,0.233,3.048,0.605
			C86.035,159.1,86.058,159.426,86.058,159.774z"/>
		<path style="fill:#B3A068;" d="M95.903,170.362c-0.698,0.279-1.536,0.465-2.885,0.465c-2.629,0-3.933-1.279-3.933-3.839v-6.12
			h-2.001c-0.093-0.35-0.163-0.931-0.163-1.233c0-0.279,0.07-0.791,0.14-1.023l2.024-0.14v-3.118
			c0.256-0.047,1.07-0.094,1.605-0.094c0.582,0,1.303,0.047,1.606,0.094v3.118h3.351c0.093,0.325,0.14,0.791,0.14,1.047
			c0,0.279-0.023,1.023-0.116,1.35h-3.374v5.654c0,1.163,0.465,1.676,1.605,1.676c0.628,0,1.396-0.094,1.931-0.279
			c0.093,0.303,0.209,0.884,0.209,1.419C96.043,169.617,95.997,170.106,95.903,170.362z"/>
		<path style="fill:#B3A068;" d="M99.257,157.145c-0.978,0-1.769-0.791-1.769-1.769c0-0.977,0.791-1.769,1.769-1.769
			c0.977,0,1.768,0.792,1.768,1.769C101.025,156.354,100.234,157.145,99.257,157.145z M100.862,170.595
			c-0.419,0.093-1.28,0.116-1.652,0.116c-0.559,0-1.164-0.047-1.559-0.116v-12.123c0.512-0.07,1.14-0.117,1.559-0.117
			c0.559,0,1.14,0.047,1.652,0.117V170.595z"/>
		<path style="fill:#B3A068;" d="M112.87,162.031l-3.49,8.563c-0.233,0.047-0.838,0.116-1.443,0.116
			c-0.628,0-1.303-0.069-1.582-0.116l-3.351-8.609c-0.442-1.164-0.651-2.304-0.651-3.514c0.419-0.07,1-0.117,1.489-0.117
			c0.675,0,1.14,0.047,1.512,0.117c0,0.86,0.117,1.814,0.419,2.722l2.141,6.144h0.046l2.21-6.144
			c0.303-0.907,0.419-1.698,0.419-2.722c0.326-0.047,1.024-0.117,1.536-0.117c0.512,0,1.047,0.047,1.419,0.117
			C113.545,159.774,113.312,160.961,112.87,162.031z"/>
		<path style="fill:#B3A068;" d="M116.643,157.145c-0.978,0-1.769-0.791-1.769-1.769c0-0.977,0.791-1.769,1.769-1.769
			c0.977,0,1.768,0.792,1.768,1.769C118.411,156.354,117.62,157.145,116.643,157.145z M118.249,170.595
			c-0.419,0.093-1.28,0.116-1.652,0.116c-0.558,0-1.164-0.047-1.559-0.116v-12.123c0.512-0.07,1.14-0.117,1.559-0.117
			c0.559,0,1.14,0.047,1.652,0.117V170.595z"/>
		<path style="fill:#B3A068;" d="M128.302,170.362c-0.698,0.279-1.536,0.465-2.885,0.465c-2.629,0-3.933-1.279-3.933-3.839v-6.12
			h-2.001c-0.093-0.35-0.163-0.931-0.163-1.233c0-0.279,0.07-0.791,0.14-1.023l2.024-0.14v-3.118
			c0.256-0.047,1.07-0.094,1.605-0.094c0.582,0,1.303,0.047,1.606,0.094v3.118h3.351c0.093,0.325,0.14,0.791,0.14,1.047
			c0,0.279-0.023,1.023-0.116,1.35h-3.374v5.654c0,1.163,0.465,1.676,1.605,1.676c0.628,0,1.396-0.094,1.931-0.279
			c0.093,0.303,0.209,0.884,0.209,1.419C128.441,169.617,128.395,170.106,128.302,170.362z"/>
		<path style="fill:#B3A068;" d="M139.869,168.454c0,1.769-0.093,3.723-1,5.259c-1.094,1.838-2.932,2.606-5.003,2.606
			c-1.164,0-2.49-0.163-3.56-0.489c-0.07-0.209-0.117-0.768-0.117-1.116c0-0.279,0.093-0.954,0.163-1.233
			c0.931,0.256,2.188,0.419,3.048,0.419c1.396,0,2.234-0.489,2.746-1.42c0.466-0.838,0.536-1.769,0.536-2.676
			c-0.814,0.628-1.885,1.023-2.886,1.023c-3.048,0-4.282-1.582-4.282-4.584v-7.771c0.373-0.094,1.164-0.117,1.536-0.117
			c0.396,0,1.303,0.047,1.675,0.117v7.586c0,1.489,0.535,2.141,1.861,2.141c0.838,0,1.583-0.35,2.071-0.814v-8.912
			c0.535-0.094,1.28-0.117,1.699-0.117c0.372,0,1.047,0.023,1.512,0.117V168.454z"/>
		<path style="fill:#B3A068;" d="M158.954,170.595c-0.279,0.069-1.117,0.116-1.582,0.116c-0.489,0-1.21-0.047-1.467-0.116
			l-1.861-7.749h-0.046l-1.886,7.749c-0.232,0.047-1.117,0.116-1.535,0.116c-0.535,0-1.419-0.069-1.606-0.116l-2.56-8.563
			c-0.326-1.094-0.535-2.443-0.559-3.56c0.373-0.07,0.884-0.117,1.443-0.117c0.512,0,1.21,0.07,1.513,0.117
			c0,0.907,0.163,2.047,0.419,3.118l1.373,5.468h0.047l2.257-8.586c0.256-0.047,0.604-0.094,1.187-0.094
			c0.488,0,0.86,0.047,1.163,0.094l2.118,8.586h0.046l1.629-5.468c0.279-1.048,0.466-2.211,0.466-3.118
			c0.303-0.047,1-0.117,1.513-0.117c0.559,0,1.023,0.047,1.396,0.117c-0.023,1.21-0.186,2.117-0.535,3.188L158.954,170.595z"/>
		<path style="fill:#B3A068;" d="M165.613,157.145c-0.977,0-1.769-0.791-1.769-1.769c0-0.977,0.792-1.769,1.769-1.769
			c0.978,0,1.769,0.792,1.769,1.769C167.382,156.354,166.591,157.145,165.613,157.145z M167.219,170.595
			c-0.418,0.093-1.279,0.116-1.651,0.116c-0.559,0-1.164-0.047-1.56-0.116v-12.123c0.512-0.07,1.141-0.117,1.56-0.117
			c0.558,0,1.14,0.047,1.651,0.117V170.595z"/>
		<path style="fill:#B3A068;" d="M172.852,170.595c-0.419,0.093-1.279,0.116-1.652,0.116c-0.558,0-1.163-0.047-1.559-0.116v-16.964
			c0.512-0.069,1.141-0.116,1.559-0.116c0.559,0,1.211,0.047,1.652,0.116V170.595z"/>
		<path style="fill:#B3A068;" d="M178.367,170.595c-0.419,0.093-1.279,0.116-1.652,0.116c-0.558,0-1.163-0.047-1.559-0.116v-16.964
			c0.512-0.069,1.141-0.116,1.559-0.116c0.559,0,1.211,0.047,1.652,0.116V170.595z"/>
		<path style="fill:#B3A068;" d="M188.771,170.827c-1.373,0-2.815-0.209-3.933-0.581c-0.07-0.35-0.093-0.792-0.093-1.257
			c0-0.372,0.093-0.907,0.186-1.233c1.07,0.372,2.606,0.628,3.514,0.628c1.257,0,1.979-0.419,1.979-1.279
			c0-0.745-0.582-1.094-2.118-1.583c-2.443-0.768-3.583-1.907-3.583-3.676c0-2.63,2.42-3.607,4.724-3.607
			c1.07,0,2.257,0.187,3.071,0.442c0.094,0.349,0.14,0.838,0.14,1.117c0,0.303-0.093,0.931-0.209,1.326
			c-0.791-0.232-1.885-0.419-2.793-0.419c-1.116,0-1.885,0.279-1.885,0.978c0,0.744,0.861,1.047,2.211,1.489
			c2.351,0.768,3.467,1.745,3.467,3.583C193.448,169.594,191.168,170.827,188.771,170.827z"/>
		<path style="fill:#B3A068;" d="M205.389,165.918c0,3.467-1.629,4.909-5.259,4.909c-3.537,0-5.166-1.442-5.166-4.909v-7.446
			c0.325-0.047,0.954-0.117,1.582-0.117c0.559,0,1.257,0.047,1.629,0.117v7.423c0,1.814,0.535,2.467,2.001,2.467
			c1.489,0,2.001-0.652,2.001-2.467v-7.423c0.326-0.07,1.048-0.117,1.629-0.117c0.582,0,1.35,0.07,1.583,0.117V165.918z"/>
		<path style="fill:#B3A068;" d="M213.024,170.595c-0.722,0-1.699-0.116-2.28-0.279v5.748c-0.419,0.069-1.117,0.116-1.629,0.116
			c-0.629,0-1.117-0.07-1.583-0.116v-17.569c0.373-0.069,1.001-0.116,1.489-0.116c0.442,0,0.931,0.047,1.257,0.116l0.116,1.001
			c0.745-0.698,2.095-1.257,3.351-1.257c3.328,0,4.817,2.723,4.817,5.841C218.562,167.686,216.701,170.595,213.024,170.595z
			 M213.07,160.845c-0.86,0-1.768,0.349-2.326,0.861v6.166c0.441,0.14,1.303,0.232,1.908,0.232c1.722,0,2.605-1.419,2.605-3.77
			C215.258,162.031,214.42,160.845,213.07,160.845z"/>
		<path style="fill:#B3A068;" d="M225.546,170.595c-0.722,0-1.699-0.116-2.28-0.279v5.748c-0.419,0.069-1.117,0.116-1.629,0.116
			c-0.629,0-1.117-0.07-1.583-0.116v-17.569c0.373-0.069,1.001-0.116,1.489-0.116c0.442,0,0.931,0.047,1.257,0.116l0.116,1.001
			c0.745-0.698,2.095-1.257,3.351-1.257c3.328,0,4.817,2.723,4.817,5.841C231.084,167.686,229.223,170.595,225.546,170.595z
			 M225.592,160.845c-0.86,0-1.768,0.349-2.326,0.861v6.166c0.441,0.14,1.303,0.232,1.908,0.232c1.722,0,2.605-1.419,2.605-3.77
			C227.779,162.031,226.941,160.845,225.592,160.845z"/>
		<path style="fill:#B3A068;" d="M237.626,170.827c-3.514,0-5.747-2.257-5.747-6.259c0-3.979,2.21-6.33,5.747-6.33
			s5.748,2.327,5.748,6.307C243.374,168.523,241.163,170.827,237.626,170.827z M237.626,160.752c-1.513,0-2.443,1.023-2.443,3.793
			c0,2.769,0.931,3.77,2.443,3.77s2.443-1.001,2.443-3.77C240.069,161.752,239.139,160.752,237.626,160.752z"/>
		<path style="fill:#B3A068;" d="M251.776,160.938c-1.21,0.187-2.513,0.605-3.676,1.21v8.447c-0.326,0.069-1.024,0.116-1.583,0.116
			s-1.373-0.047-1.629-0.116v-12.123c0.35-0.047,0.931-0.117,1.396-0.117c0.396,0,1.023,0.047,1.35,0.117l0.187,1.489
			c0.86-0.769,2.42-1.606,3.933-1.723c0.046,0.187,0.093,0.861,0.093,1.35C251.847,160.054,251.823,160.612,251.776,160.938z"/>
		<path style="fill:#B3A068;" d="M261.413,170.362c-0.698,0.279-1.536,0.465-2.886,0.465c-2.63,0-3.933-1.279-3.933-3.839v-6.12
			h-2.001c-0.094-0.35-0.163-0.931-0.163-1.233c0-0.279,0.069-0.791,0.14-1.023l2.024-0.14v-3.118
			c0.256-0.047,1.07-0.094,1.605-0.094c0.582,0,1.304,0.047,1.605,0.094v3.118h3.352c0.093,0.325,0.139,0.791,0.139,1.047
			c0,0.279-0.022,1.023-0.116,1.35h-3.374v5.654c0,1.163,0.466,1.676,1.605,1.676c0.629,0,1.396-0.094,1.932-0.279
			c0.093,0.303,0.21,0.884,0.21,1.419C261.553,169.617,261.506,170.106,261.413,170.362z"/>
		<path style="fill:#B3A068;" d="M277.216,167.221c0,1.001,0.023,2.141,0.023,3.374c-0.372,0.093-1.001,0.116-1.396,0.116
			c-0.442,0-1.023-0.047-1.396-0.116c-0.046-0.279-0.093-0.768-0.116-1.07h-0.046c-0.791,0.814-2.142,1.303-3.374,1.303
			c-2.327,0-4.003-1.442-4.003-3.839c0-3.724,3.305-4.352,6.073-4.352c0.187,0,0.629,0.023,1.001,0.046
			c0-0.14-0.023-0.441-0.047-0.558c-0.163-0.954-0.791-1.35-2.141-1.35c-1.047,0-2.513,0.209-3.63,0.488
			c-0.116-0.326-0.187-0.885-0.187-1.303c0-0.35,0.047-0.885,0.14-1.117c1.304-0.396,2.909-0.605,4.235-0.605
			c2.908,0,4.863,1.35,4.863,4.375V167.221z M274.005,164.917c-0.279-0.023-0.651-0.047-0.978-0.047
			c-2.095,0-2.909,0.838-2.909,1.885c0,0.908,0.605,1.536,1.652,1.536c0.769,0,1.629-0.372,2.234-0.907V164.917z"/>
	</g>
	<g>
		<path style="fill:#B3A068;" d="M45.817,223.353H20.11c-0.295-0.648-0.59-2.182-0.59-3.302c0-0.825,0.118-2.005,0.236-2.83
			c3.361-1.238,4.658-3.302,4.658-7.193v-4.54h-4.363c-0.177-1.061-0.354-2.535-0.354-3.302c0-1.061,0.118-2.299,0.354-3.302h4.363
			v-3.007c0-7.959,4.658-12.971,13.207-12.971c3.125,0,6.427,0.648,8.313,1.415c0.177,0.589,0.295,2.063,0.295,2.712
			c0,1.062-0.177,2.712-0.413,3.892c-1.828-0.708-4.776-1.238-7.252-1.238c-4.068,0-5.719,2.005-5.719,6.25v2.947h8.726
			c0.236,1.003,0.354,2.241,0.354,3.302c0,0.767-0.118,2.3-0.354,3.302h-8.726v4.245c0,2.771-1.002,5.188-3.597,6.898v0.06h16.509
			c0.236,0.825,0.354,2.358,0.354,3.419C46.111,221.053,45.994,222.409,45.817,223.353z"/>
		<path style="fill:#B3A068;" d="M75.004,223.353H49.828c-0.531-1.238-0.708-2.771-0.708-4.127c0-0.708,0.059-1.592,0.177-2.182
			c4.127-4.187,8.549-8.903,12.441-13.267c2.889-3.242,5.188-6.249,5.188-9.551c0-2.89-2.005-4.54-5.542-4.54
			c-2.594,0-6.721,0.884-10.554,2.712c-0.236-1.002-0.472-2.771-0.472-4.186c0-0.708,0.118-2.123,0.354-3.066
			c2.889-1.238,7.547-2.358,12.087-2.358c6.721,0,12.618,3.125,12.618,10.377c0,6.368-3.42,10.672-10.731,18.337
			c-1.415,1.532-2.948,3.007-4.481,4.599h14.917c0.177,0.767,0.295,2.24,0.295,3.655C75.417,220.936,75.24,222.527,75.004,223.353z"
			/>
		<path style="fill:#B3A068;" d="M90.984,223.942c-3.184,0-7.901-0.648-11.144-1.769c-0.118-0.413-0.295-1.475-0.295-2.653
			c0-1.298,0.177-2.653,0.531-3.773c2.712,0.825,6.898,1.355,10.2,1.355c4.186,0,6.898-2.24,6.898-6.249
			c0-1.71-0.472-3.243-1.474-4.246c-1.297-1.297-3.479-1.827-6.663-1.827h-7.724v-21.284h22.287
			c0.177,0.943,0.295,2.417,0.295,3.479c0,1.12-0.177,3.065-0.295,3.773h-14.74v7.311h2.594c4.599,0,8.254,0.825,10.849,3.066
			c2.299,2.004,3.597,5.07,3.597,9.315C105.901,219.461,99.003,223.942,90.984,223.942z"/>
		<path style="fill:#B3A068;" d="M166.809,223.353c-0.943,0.235-2.947,0.295-3.891,0.295c-1.003,0-3.302-0.118-4.245-0.295v-18.514
			c0-2.24-0.06-3.892-0.885-4.894c-0.767-0.943-1.945-1.297-3.42-1.297c-2.004,0-4.834,0.885-6.662,2.005
			c0.059,1.002,0.118,2.004,0.118,3.184v19.516c-0.943,0.235-2.948,0.295-3.892,0.295c-1.002,0-3.302-0.118-4.245-0.295v-18.514
			c0-2.24-0.059-3.892-0.884-4.894c-0.767-0.943-1.946-1.297-3.42-1.297c-2.063,0-4.717,0.825-6.544,1.945v22.759
			c-1.356,0.235-3.243,0.295-4.304,0.295c-0.943,0-2.653-0.06-3.833-0.295v-30.718c0.767-0.178,2.653-0.295,3.538-0.295
			c0.825,0,2.535,0.117,3.419,0.295l0.354,2.771c2.594-1.945,6.309-3.36,9.61-3.36c3.419,0,6.427,1.179,8.726,3.715
			c3.184-2.182,7.016-3.715,10.908-3.715c2.889,0,5.837,1.179,7.311,2.948c1.828,2.181,2.24,5.011,2.24,9.315V223.353z"/>
		<path style="fill:#B3A068;" d="M176.188,189.273c-2.477,0-4.481-2.004-4.481-4.48s2.005-4.481,4.481-4.481s4.48,2.005,4.48,4.481
			S178.664,189.273,176.188,189.273z M180.256,223.353c-1.062,0.235-3.243,0.295-4.187,0.295c-1.415,0-2.948-0.118-3.95-0.295
			v-30.718c1.297-0.178,2.889-0.295,3.95-0.295c1.415,0,2.889,0.117,4.187,0.295V223.353z"/>
		<path style="fill:#B3A068;" d="M193.936,223.353c-1.062,0.235-3.243,0.295-4.187,0.295c-1.415,0-2.948-0.118-3.95-0.295v-42.981
			c1.297-0.178,2.889-0.295,3.95-0.295c1.415,0,3.066,0.117,4.187,0.295V223.353z"/>
		<path style="fill:#B3A068;" d="M207.319,223.353c-1.062,0.235-3.243,0.295-4.187,0.295c-1.415,0-2.948-0.118-3.95-0.295v-42.981
			c1.297-0.178,2.889-0.295,3.95-0.295c1.415,0,3.066,0.117,4.187,0.295V223.353z"/>
		<path style="fill:#B3A068;" d="M216.931,189.273c-2.477,0-4.481-2.004-4.481-4.48s2.005-4.481,4.481-4.481
			c2.476,0,4.48,2.005,4.48,4.481S219.406,189.273,216.931,189.273z M220.999,223.353c-1.062,0.235-3.243,0.295-4.187,0.295
			c-1.415,0-2.948-0.118-3.95-0.295v-30.718c1.297-0.178,2.889-0.295,3.95-0.295c1.415,0,2.889,0.117,4.187,0.295V223.353z"/>
		<path style="fill:#B3A068;" d="M239.219,223.942c-8.903,0-14.563-5.72-14.563-15.86c0-10.082,5.602-16.037,14.563-16.037
			s14.562,5.896,14.562,15.979C253.781,218.105,248.181,223.942,239.219,223.942z M239.219,198.412
			c-3.833,0-6.191,2.595-6.191,9.611c0,7.016,2.358,9.551,6.191,9.551c3.832,0,6.19-2.535,6.19-9.551
			C245.409,200.947,243.051,198.412,239.219,198.412z"/>
		<path style="fill:#B3A068;" d="M284.03,223.353c-0.943,0.235-2.948,0.295-3.892,0.295c-1.002,0-3.302-0.118-4.245-0.295v-20.164
			c0-3.185-1.65-4.54-4.304-4.54c-2.123,0-4.54,0.767-6.427,1.945v22.759c-1.356,0.235-3.243,0.295-4.304,0.295
			c-0.943,0-2.653-0.06-3.833-0.295v-30.718c0.767-0.178,2.653-0.295,3.538-0.295c0.825,0,2.535,0.117,3.42,0.295l0.412,2.712
			c2.653-1.946,6.485-3.302,9.905-3.302c6.485,0,9.729,4.009,9.729,10.73V223.353z"/>
	</g>
	<g>
		<path style="fill:#58595B;" d="M23.805,243.609c-0.154,0-0.342-0.051-0.444-0.085l-0.102-1.024h-0.017
			c-0.734,0.769-1.605,1.195-2.579,1.195c-2.356,0-3.483-1.964-3.483-4.354c0-2.373,1.007-4.883,3.722-4.883
			c0.854,0,1.639,0.29,2.271,0.734v-4.133c0.154-0.051,0.358-0.085,0.546-0.085c0.205,0,0.41,0.051,0.563,0.085v12.465
			C24.163,243.575,23.992,243.609,23.805,243.609z M23.173,236.131c-0.615-0.512-1.4-0.769-2.203-0.769
			c-1.981,0-2.646,1.947-2.646,3.928c0,1.52,0.478,3.5,2.39,3.5c0.922,0,1.861-0.461,2.459-1.178V236.131z"/>
		<path style="fill:#58595B;" d="M32.68,241.339c0,0.614,0,1.383,0.034,2.186c-0.12,0.051-0.308,0.085-0.461,0.085
			c-0.137,0-0.325-0.034-0.461-0.085c-0.051-0.273-0.085-0.632-0.102-0.956h-0.017c-0.581,0.717-1.605,1.127-2.613,1.127
			c-1.588,0-2.919-0.888-2.919-2.715c0-1.042,0.427-1.811,1.093-2.288c0.751-0.529,1.742-0.7,2.8-0.7
			c0.597,0,1.093,0.034,1.537,0.103V237.6c0-1.708-0.7-2.271-2.134-2.271c-0.803,0-1.793,0.171-2.408,0.325
			c-0.034-0.086-0.068-0.273-0.068-0.444c0-0.119,0.034-0.29,0.085-0.393c0.734-0.222,1.708-0.358,2.527-0.358
			c2.032,0,3.108,0.922,3.108,3.005V241.339z M31.57,238.932c-0.495-0.068-1.007-0.103-1.452-0.103c-0.836,0-1.588,0.153-2.1,0.546
			c-0.461,0.342-0.717,0.888-0.717,1.588c0,1.247,0.802,1.845,1.912,1.845c0.922,0,1.896-0.444,2.356-1.145V238.932z"/>
		<path style="fill:#58595B;" d="M39.763,243.439c-0.444,0.153-1.11,0.256-1.605,0.256c-1.69,0-2.493-0.803-2.493-2.698v-5.498
			h-1.537c-0.034-0.085-0.051-0.29-0.051-0.393c0-0.085,0.017-0.29,0.051-0.375l1.537-0.103v-2.322
			c0.136-0.052,0.358-0.086,0.546-0.086c0.188,0,0.427,0.034,0.563,0.086v2.322h2.51c0.034,0.085,0.068,0.341,0.068,0.427
			c0,0.119-0.034,0.324-0.068,0.443h-2.51v5.396c0,1.35,0.393,1.913,1.451,1.913c0.581,0,1.144-0.086,1.537-0.205
			c0.034,0.085,0.068,0.29,0.068,0.409C39.832,243.166,39.814,243.285,39.763,243.439z"/>
		<path style="fill:#58595B;" d="M47.342,241.339c0,0.614,0,1.383,0.034,2.186c-0.12,0.051-0.308,0.085-0.461,0.085
			c-0.137,0-0.325-0.034-0.461-0.085c-0.051-0.273-0.085-0.632-0.102-0.956h-0.017c-0.581,0.717-1.605,1.127-2.613,1.127
			c-1.588,0-2.919-0.888-2.919-2.715c0-1.042,0.427-1.811,1.093-2.288c0.751-0.529,1.742-0.7,2.8-0.7
			c0.597,0,1.093,0.034,1.537,0.103V237.6c0-1.708-0.7-2.271-2.134-2.271c-0.803,0-1.793,0.171-2.408,0.325
			c-0.034-0.086-0.068-0.273-0.068-0.444c0-0.119,0.034-0.29,0.085-0.393c0.734-0.222,1.708-0.358,2.527-0.358
			c2.032,0,3.108,0.922,3.108,3.005V241.339z M46.232,238.932c-0.495-0.068-1.007-0.103-1.452-0.103c-0.836,0-1.588,0.153-2.1,0.546
			c-0.461,0.342-0.717,0.888-0.717,1.588c0,1.247,0.802,1.845,1.912,1.845c0.922,0,1.896-0.444,2.356-1.145V238.932z"/>
		<path style="fill:#58595B;" d="M59.051,235.704c-0.546-0.222-1.264-0.358-1.896-0.358c-2.22,0-3.039,1.725-3.039,3.808
			c0,2.049,0.785,3.637,3.022,3.637c0.598,0,1.315-0.103,1.844-0.256c0.034,0.103,0.068,0.222,0.068,0.358
			c0,0.205-0.034,0.358-0.085,0.479c-0.495,0.204-1.298,0.324-1.93,0.324c-2.783,0-4.081-1.827-4.081-4.508
			c0-2.783,1.417-4.729,4.132-4.729c0.649,0,1.417,0.153,1.947,0.393c0.051,0.137,0.068,0.273,0.068,0.427
			C59.102,235.448,59.085,235.585,59.051,235.704z"/>
		<path style="fill:#58595B;" d="M67.227,239.375h-5.72c0.068,1.964,0.99,3.449,3.125,3.449c0.769,0,1.485-0.103,2.117-0.256
			c0.034,0.085,0.068,0.256,0.068,0.358c0,0.171-0.034,0.324-0.085,0.444c-0.666,0.204-1.502,0.324-2.203,0.324
			c-1.349,0-2.373-0.427-3.005-1.11c-0.751-0.819-1.144-2.049-1.144-3.466c0-2.476,1.246-4.661,3.739-4.661
			c2.237,0,3.125,1.844,3.125,4.098C67.244,238.812,67.244,239.119,67.227,239.375z M66.134,238.556c0-1.571-0.17-3.261-2.066-3.261
			c-1.656,0-2.458,1.52-2.561,3.261H66.134z"/>
		<path style="fill:#58595B;" d="M75.932,243.541c-0.136,0.034-0.341,0.068-0.546,0.068c-0.17,0-0.393-0.034-0.563-0.085v-5.413
			c0-0.819-0.102-1.451-0.341-1.895c-0.29-0.547-0.836-0.82-1.725-0.82c-0.854,0-1.878,0.479-2.544,0.991v7.137
			c-0.188,0.051-0.375,0.085-0.581,0.085c-0.171,0-0.375-0.034-0.529-0.085v-8.896c0.12-0.052,0.324-0.068,0.444-0.068
			c0.171,0,0.375,0.017,0.478,0.068l0.085,0.888h0.017c0.939-0.769,2.015-1.059,2.886-1.059c0.871,0,1.775,0.29,2.271,0.888
			c0.546,0.648,0.648,1.588,0.648,2.51V243.541z"/>
		<path style="fill:#58595B;" d="M82.929,243.439c-0.444,0.153-1.11,0.256-1.605,0.256c-1.69,0-2.493-0.803-2.493-2.698v-5.498
			h-1.537c-0.034-0.085-0.051-0.29-0.051-0.393c0-0.085,0.017-0.29,0.051-0.375l1.537-0.103v-2.322
			c0.136-0.052,0.358-0.086,0.546-0.086c0.188,0,0.427,0.034,0.563,0.086v2.322h2.51c0.034,0.085,0.068,0.341,0.068,0.427
			c0,0.119-0.034,0.324-0.068,0.443h-2.51v5.396c0,1.35,0.393,1.913,1.451,1.913c0.581,0,1.144-0.086,1.537-0.205
			c0.034,0.085,0.068,0.29,0.068,0.409C82.998,243.166,82.98,243.285,82.929,243.439z"/>
		<path style="fill:#58595B;" d="M88.562,235.448c-0.991,0.137-2.066,0.495-2.869,1.109v6.967c-0.171,0.051-0.375,0.085-0.563,0.085
			s-0.375-0.034-0.546-0.085v-8.896c0.103-0.034,0.256-0.068,0.427-0.068c0.137,0,0.325,0.034,0.461,0.068l0.085,1.093h0.017
			c0.734-0.632,2.015-1.161,2.988-1.264c0.034,0.103,0.068,0.29,0.068,0.443C88.63,235.072,88.596,235.295,88.562,235.448z"/>
		<path style="fill:#58595B;" d="M96.192,239.375h-5.72c0.068,1.964,0.99,3.449,3.125,3.449c0.769,0,1.485-0.103,2.117-0.256
			c0.034,0.085,0.068,0.256,0.068,0.358c0,0.171-0.034,0.324-0.085,0.444c-0.666,0.204-1.502,0.324-2.203,0.324
			c-1.349,0-2.373-0.427-3.005-1.11c-0.751-0.819-1.144-2.049-1.144-3.466c0-2.476,1.246-4.661,3.739-4.661
			c2.237,0,3.125,1.844,3.125,4.098C96.209,238.812,96.209,239.119,96.192,239.375z M95.1,238.556c0-1.571-0.17-3.261-2.066-3.261
			c-1.656,0-2.458,1.52-2.561,3.261H95.1z"/>
		<path style="fill:#58595B;" d="M107.901,241.339c0,0.614,0,1.383,0.034,2.186c-0.12,0.051-0.308,0.085-0.461,0.085
			c-0.137,0-0.325-0.034-0.461-0.085c-0.051-0.273-0.085-0.632-0.102-0.956h-0.017c-0.581,0.717-1.605,1.127-2.613,1.127
			c-1.588,0-2.919-0.888-2.919-2.715c0-1.042,0.427-1.811,1.093-2.288c0.751-0.529,1.742-0.7,2.8-0.7
			c0.598,0,1.093,0.034,1.537,0.103V237.6c0-1.708-0.7-2.271-2.134-2.271c-0.803,0-1.793,0.171-2.408,0.325
			c-0.034-0.086-0.068-0.273-0.068-0.444c0-0.119,0.034-0.29,0.085-0.393c0.734-0.222,1.708-0.358,2.527-0.358
			c2.032,0,3.108,0.922,3.108,3.005V241.339z M106.792,238.932c-0.495-0.068-1.007-0.103-1.452-0.103
			c-0.836,0-1.588,0.153-2.1,0.546c-0.461,0.342-0.717,0.888-0.717,1.588c0,1.247,0.802,1.845,1.912,1.845
			c0.922,0,1.896-0.444,2.356-1.145V238.932z"/>
		<path style="fill:#58595B;" d="M117.084,243.541c-0.136,0.034-0.341,0.068-0.546,0.068c-0.17,0-0.393-0.034-0.563-0.085v-5.413
			c0-0.819-0.102-1.451-0.341-1.895c-0.29-0.547-0.836-0.82-1.725-0.82c-0.854,0-1.878,0.479-2.544,0.991v7.137
			c-0.188,0.051-0.375,0.085-0.581,0.085c-0.171,0-0.375-0.034-0.529-0.085v-8.896c0.12-0.052,0.324-0.068,0.444-0.068
			c0.171,0,0.375,0.017,0.478,0.068l0.085,0.888h0.017c0.939-0.769,2.015-1.059,2.886-1.059c0.871,0,1.775,0.29,2.271,0.888
			c0.546,0.648,0.648,1.588,0.648,2.51V243.541z"/>
		<path style="fill:#58595B;" d="M125.482,243.609c-0.154,0-0.342-0.051-0.444-0.085l-0.102-1.024h-0.017
			c-0.734,0.769-1.605,1.195-2.579,1.195c-2.356,0-3.483-1.964-3.483-4.354c0-2.373,1.007-4.883,3.722-4.883
			c0.854,0,1.639,0.29,2.271,0.734v-4.133c0.154-0.051,0.358-0.085,0.546-0.085c0.205,0,0.41,0.051,0.563,0.085v12.465
			C125.84,243.575,125.669,243.609,125.482,243.609z M124.85,236.131c-0.615-0.512-1.4-0.769-2.203-0.769
			c-1.981,0-2.646,1.947-2.646,3.928c0,1.52,0.478,3.5,2.39,3.5c0.922,0,1.861-0.461,2.459-1.178V236.131z"/>
		<path style="fill:#58595B;" d="M138.112,241.339c0,0.614,0,1.383,0.034,2.186c-0.12,0.051-0.308,0.085-0.461,0.085
			c-0.137,0-0.325-0.034-0.461-0.085c-0.051-0.273-0.085-0.632-0.102-0.956h-0.017c-0.581,0.717-1.605,1.127-2.613,1.127
			c-1.588,0-2.919-0.888-2.919-2.715c0-1.042,0.427-1.811,1.093-2.288c0.751-0.529,1.742-0.7,2.8-0.7
			c0.598,0,1.093,0.034,1.537,0.103V237.6c0-1.708-0.7-2.271-2.134-2.271c-0.803,0-1.793,0.171-2.408,0.325
			c-0.034-0.086-0.068-0.273-0.068-0.444c0-0.119,0.034-0.29,0.085-0.393c0.734-0.222,1.708-0.358,2.527-0.358
			c2.032,0,3.108,0.922,3.108,3.005V241.339z M137.002,238.932c-0.495-0.068-1.007-0.103-1.452-0.103
			c-0.836,0-1.588,0.153-2.1,0.546c-0.461,0.342-0.717,0.888-0.717,1.588c0,1.247,0.802,1.845,1.912,1.845
			c0.922,0,1.896-0.444,2.356-1.145V238.932z"/>
		<path style="fill:#58595B;" d="M142.446,243.695c-0.854,0-1.742-0.154-2.356-0.393c-0.051-0.12-0.085-0.324-0.085-0.479
			c0-0.103,0.034-0.358,0.068-0.461c0.631,0.256,1.537,0.461,2.288,0.461c1.298,0,2.101-0.546,2.101-1.622
			c0-0.973-0.496-1.314-1.844-1.81c-1.878-0.684-2.493-1.469-2.493-2.63c0-1.57,1.297-2.305,2.971-2.305
			c0.563,0,1.298,0.103,1.725,0.239c0.051,0.153,0.068,0.307,0.068,0.409c0,0.137-0.034,0.376-0.068,0.495
			c-0.563-0.171-1.161-0.273-1.742-0.273c-1.212,0-1.946,0.462-1.946,1.4c0,0.819,0.461,1.213,1.861,1.742
			c1.281,0.478,2.459,0.956,2.459,2.681C145.451,242.893,144.136,243.695,142.446,243.695z"/>
		<path style="fill:#58595B;" d="M149.239,243.695c-0.854,0-1.742-0.154-2.356-0.393c-0.051-0.12-0.085-0.324-0.085-0.479
			c0-0.103,0.034-0.358,0.068-0.461c0.631,0.256,1.537,0.461,2.288,0.461c1.298,0,2.1-0.546,2.1-1.622
			c0-0.973-0.495-1.314-1.844-1.81c-1.878-0.684-2.493-1.469-2.493-2.63c0-1.57,1.298-2.305,2.971-2.305
			c0.563,0,1.297,0.103,1.724,0.239c0.052,0.153,0.068,0.307,0.068,0.409c0,0.137-0.034,0.376-0.068,0.495
			c-0.563-0.171-1.161-0.273-1.741-0.273c-1.212,0-1.946,0.462-1.946,1.4c0,0.819,0.461,1.213,1.861,1.742
			c1.281,0.478,2.458,0.956,2.458,2.681C152.244,242.893,150.93,243.695,149.239,243.695z"/>
		<path style="fill:#58595B;" d="M157.228,243.695c-2.236,0-3.671-1.537-3.671-4.61s1.451-4.627,3.688-4.627
			c2.236,0,3.653,1.52,3.653,4.593S159.464,243.695,157.228,243.695z M157.245,235.295c-1.64,0-2.527,1.263-2.527,3.773
			c0,2.51,0.871,3.79,2.51,3.79c1.64,0,2.51-1.28,2.51-3.79C159.737,236.558,158.884,235.295,157.245,235.295z"/>
		<path style="fill:#58595B;" d="M168.323,235.704c-0.547-0.222-1.264-0.358-1.896-0.358c-2.22,0-3.039,1.725-3.039,3.808
			c0,2.049,0.785,3.637,3.022,3.637c0.598,0,1.314-0.103,1.844-0.256c0.034,0.103,0.068,0.222,0.068,0.358
			c0,0.205-0.034,0.358-0.086,0.479c-0.495,0.204-1.297,0.324-1.929,0.324c-2.783,0-4.081-1.827-4.081-4.508
			c0-2.783,1.417-4.729,4.132-4.729c0.649,0,1.417,0.153,1.946,0.393c0.052,0.137,0.068,0.273,0.068,0.427
			C168.374,235.448,168.357,235.585,168.323,235.704z"/>
		<path style="fill:#58595B;" d="M170.763,232.887c-0.393,0-0.717-0.341-0.717-0.751s0.324-0.734,0.717-0.734
			c0.394,0,0.734,0.324,0.734,0.734S171.156,232.887,170.763,232.887z M171.326,243.524c-0.153,0.051-0.375,0.085-0.563,0.085
			c-0.188,0-0.393-0.034-0.546-0.085v-8.896c0.137-0.034,0.358-0.086,0.529-0.086c0.188,0,0.443,0.034,0.58,0.086V243.524z"/>
		<path style="fill:#58595B;" d="M179.794,241.339c0,0.614,0,1.383,0.034,2.186c-0.119,0.051-0.307,0.085-0.461,0.085
			c-0.137,0-0.324-0.034-0.461-0.085c-0.051-0.273-0.085-0.632-0.103-0.956h-0.017c-0.581,0.717-1.605,1.127-2.612,1.127
			c-1.588,0-2.92-0.888-2.92-2.715c0-1.042,0.427-1.811,1.093-2.288c0.751-0.529,1.741-0.7,2.8-0.7c0.598,0,1.093,0.034,1.537,0.103
			V237.6c0-1.708-0.7-2.271-2.135-2.271c-0.802,0-1.793,0.171-2.407,0.325c-0.034-0.086-0.068-0.273-0.068-0.444
			c0-0.119,0.034-0.29,0.086-0.393c0.733-0.222,1.707-0.358,2.526-0.358c2.032,0,3.107,0.922,3.107,3.005V241.339z M178.685,238.932
			c-0.495-0.068-1.008-0.103-1.451-0.103c-0.837,0-1.588,0.153-2.101,0.546c-0.461,0.342-0.717,0.888-0.717,1.588
			c0,1.247,0.803,1.845,1.912,1.845c0.922,0,1.896-0.444,2.356-1.145V238.932z"/>
		<path style="fill:#58595B;" d="M186.877,243.439c-0.443,0.153-1.109,0.256-1.604,0.256c-1.69,0-2.493-0.803-2.493-2.698v-5.498
			h-1.537c-0.034-0.085-0.051-0.29-0.051-0.393c0-0.085,0.017-0.29,0.051-0.375l1.537-0.103v-2.322
			c0.137-0.052,0.358-0.086,0.546-0.086c0.188,0,0.427,0.034,0.563,0.086v2.322h2.511c0.034,0.085,0.067,0.341,0.067,0.427
			c0,0.119-0.033,0.324-0.067,0.443h-2.511v5.396c0,1.35,0.393,1.913,1.452,1.913c0.58,0,1.144-0.086,1.536-0.205
			c0.034,0.085,0.068,0.29,0.068,0.409C186.945,243.166,186.929,243.285,186.877,243.439z"/>
		<path style="fill:#58595B;" d="M194.456,239.375h-5.72c0.068,1.964,0.99,3.449,3.125,3.449c0.768,0,1.485-0.103,2.117-0.256
			c0.034,0.085,0.068,0.256,0.068,0.358c0,0.171-0.034,0.324-0.086,0.444c-0.666,0.204-1.503,0.324-2.202,0.324
			c-1.35,0-2.374-0.427-3.006-1.11c-0.751-0.819-1.144-2.049-1.144-3.466c0-2.476,1.246-4.661,3.739-4.661
			c2.236,0,3.125,1.844,3.125,4.098C194.474,238.812,194.474,239.119,194.456,239.375z M193.363,238.556
			c0-1.571-0.171-3.261-2.065-3.261c-1.656,0-2.459,1.52-2.562,3.261H193.363z"/>
		<path style="fill:#58595B;" d="M202.461,243.609c-0.154,0-0.342-0.051-0.444-0.085l-0.103-1.024h-0.017
			c-0.734,0.769-1.605,1.195-2.578,1.195c-2.356,0-3.483-1.964-3.483-4.354c0-2.373,1.007-4.883,3.722-4.883
			c0.854,0,1.64,0.29,2.271,0.734v-4.133c0.153-0.051,0.358-0.085,0.546-0.085c0.205,0,0.41,0.051,0.563,0.085v12.465
			C202.819,243.575,202.648,243.609,202.461,243.609z M201.829,236.131c-0.615-0.512-1.4-0.769-2.203-0.769
			c-1.98,0-2.646,1.947-2.646,3.928c0,1.52,0.479,3.5,2.391,3.5c0.922,0,1.861-0.461,2.459-1.178V236.131z"/>
		<path style="fill:#58595B;" d="M221.375,243.541c-0.171,0.034-0.342,0.068-0.513,0.068c-0.205,0-0.393-0.051-0.598-0.085v-5.396
			c0-1.878-0.478-2.732-2.065-2.732c-0.82,0-1.913,0.428-2.596,0.923c0.137,0.478,0.171,1.007,0.171,1.536v5.669
			c-0.171,0.051-0.342,0.085-0.513,0.085c-0.222,0-0.427-0.034-0.598-0.085v-5.396c0-1.878-0.427-2.732-2.015-2.732
			c-0.854,0-1.861,0.479-2.527,0.991v7.137c-0.188,0.051-0.409,0.085-0.614,0.085c-0.171,0-0.358-0.034-0.495-0.085v-8.896
			c0.085-0.034,0.273-0.068,0.461-0.068c0.153,0,0.342,0.034,0.461,0.068l0.086,0.888h0.017c0.939-0.769,2.015-1.059,2.886-1.059
			s1.707,0.29,2.202,0.888c0.068,0.068,0.12,0.153,0.171,0.239c0.905-0.734,2.066-1.127,3.176-1.127c0.871,0,1.759,0.29,2.254,0.888
			c0.547,0.648,0.649,1.588,0.649,2.51V243.541z"/>
		<path style="fill:#58595B;" d="M229.992,239.375h-5.72c0.068,1.964,0.99,3.449,3.124,3.449c0.769,0,1.486-0.103,2.118-0.256
			c0.034,0.085,0.067,0.256,0.067,0.358c0,0.171-0.033,0.324-0.085,0.444c-0.666,0.204-1.503,0.324-2.202,0.324
			c-1.35,0-2.374-0.427-3.006-1.11c-0.751-0.819-1.144-2.049-1.144-3.466c0-2.476,1.246-4.661,3.739-4.661
			c2.236,0,3.125,1.844,3.125,4.098C230.01,238.812,230.01,239.119,229.992,239.375z M228.899,238.556
			c0-1.571-0.171-3.261-2.065-3.261c-1.656,0-2.459,1.52-2.562,3.261H228.899z"/>
		<path style="fill:#58595B;" d="M237.998,243.609c-0.154,0-0.342-0.051-0.444-0.085l-0.103-1.024h-0.017
			c-0.734,0.769-1.605,1.195-2.578,1.195c-2.356,0-3.483-1.964-3.483-4.354c0-2.373,1.007-4.883,3.722-4.883
			c0.854,0,1.64,0.29,2.271,0.734v-4.133c0.153-0.051,0.358-0.085,0.546-0.085c0.205,0,0.41,0.051,0.563,0.085v12.465
			C238.356,243.575,238.186,243.609,237.998,243.609z M237.366,236.131c-0.615-0.512-1.4-0.769-2.203-0.769
			c-1.98,0-2.646,1.947-2.646,3.928c0,1.52,0.479,3.5,2.391,3.5c0.922,0,1.861-0.461,2.459-1.178V236.131z"/>
		<path style="fill:#58595B;" d="M241.904,232.887c-0.393,0-0.717-0.341-0.717-0.751s0.324-0.734,0.717-0.734
			c0.394,0,0.734,0.324,0.734,0.734S242.298,232.887,241.904,232.887z M242.468,243.524c-0.153,0.051-0.375,0.085-0.563,0.085
			c-0.188,0-0.393-0.034-0.546-0.085v-8.896c0.137-0.034,0.358-0.086,0.529-0.086c0.188,0,0.443,0.034,0.58,0.086V243.524z"/>
		<path style="fill:#58595B;" d="M250.936,241.339c0,0.614,0,1.383,0.034,2.186c-0.119,0.051-0.307,0.085-0.461,0.085
			c-0.137,0-0.324-0.034-0.461-0.085c-0.051-0.273-0.085-0.632-0.103-0.956h-0.017c-0.581,0.717-1.605,1.127-2.612,1.127
			c-1.588,0-2.92-0.888-2.92-2.715c0-1.042,0.427-1.811,1.093-2.288c0.751-0.529,1.741-0.7,2.8-0.7c0.598,0,1.093,0.034,1.537,0.103
			V237.6c0-1.708-0.7-2.271-2.135-2.271c-0.802,0-1.793,0.171-2.407,0.325c-0.034-0.086-0.068-0.273-0.068-0.444
			c0-0.119,0.034-0.29,0.086-0.393c0.733-0.222,1.707-0.358,2.526-0.358c2.032,0,3.107,0.922,3.107,3.005V241.339z M249.826,238.932
			c-0.495-0.068-1.008-0.103-1.451-0.103c-0.837,0-1.588,0.153-2.101,0.546c-0.461,0.342-0.717,0.888-0.717,1.588
			c0,1.247,0.803,1.845,1.912,1.845c0.922,0,1.896-0.444,2.356-1.145V238.932z"/>
	</g>
	<g>
		<path style="fill:#58595B;" d="M20.407,260.766c-0.786,0-1.793-0.12-2.732-0.461V248.13c0.12-0.034,0.375-0.085,0.529-0.085
			c0.273,0,0.478,0.051,0.581,0.085v4.32c0.7-0.581,1.588-0.922,2.527-0.922c2.408,0,3.415,2.065,3.415,4.371
			C24.727,258.836,23.224,260.766,20.407,260.766z M21.158,252.484c-0.854,0-1.708,0.358-2.374,1.024v6.13
			c0.461,0.171,1.042,0.273,1.537,0.273c2.374,0,3.244-1.811,3.244-3.944C23.565,254.312,23.087,252.484,21.158,252.484z"/>
		<path style="fill:#58595B;" d="M33.124,257.214c0,2.596-1.076,3.552-3.33,3.552c-2.305,0-3.278-0.956-3.278-3.466v-5.601
			c0.154-0.052,0.358-0.086,0.546-0.086c0.239,0,0.427,0.052,0.563,0.086v5.464c0,1.656,0.256,2.749,2.186,2.749
			c1.81,0,2.203-1.059,2.203-2.783v-5.43c0.137-0.052,0.375-0.086,0.563-0.086s0.393,0.034,0.546,0.086V257.214z"/>
		<path style="fill:#58595B;" d="M37.373,260.766c-0.854,0-1.742-0.154-2.356-0.393c-0.051-0.12-0.085-0.324-0.085-0.479
			c0-0.103,0.034-0.358,0.068-0.461c0.631,0.256,1.537,0.461,2.288,0.461c1.298,0,2.101-0.546,2.101-1.622
			c0-0.973-0.496-1.314-1.844-1.81c-1.878-0.684-2.493-1.469-2.493-2.63c0-1.57,1.297-2.305,2.971-2.305
			c0.563,0,1.298,0.103,1.725,0.239c0.051,0.153,0.068,0.307,0.068,0.409c0,0.137-0.034,0.376-0.068,0.495
			c-0.563-0.171-1.161-0.273-1.742-0.273c-1.212,0-1.946,0.462-1.946,1.4c0,0.819,0.461,1.213,1.861,1.742
			c1.281,0.478,2.459,0.956,2.459,2.681C40.378,259.963,39.063,260.766,37.373,260.766z"/>
		<path style="fill:#58595B;" d="M42.8,249.957c-0.393,0-0.717-0.341-0.717-0.751s0.324-0.734,0.717-0.734
			c0.393,0,0.734,0.324,0.734,0.734S43.193,249.957,42.8,249.957z M43.364,260.595c-0.154,0.051-0.376,0.085-0.563,0.085
			c-0.188,0-0.393-0.034-0.546-0.085v-8.896c0.137-0.034,0.358-0.086,0.529-0.086c0.188,0,0.444,0.034,0.581,0.086V260.595z"/>
		<path style="fill:#58595B;" d="M52.583,260.611c-0.136,0.034-0.341,0.068-0.546,0.068c-0.17,0-0.393-0.034-0.563-0.085v-5.413
			c0-0.819-0.102-1.451-0.341-1.895c-0.29-0.547-0.836-0.82-1.725-0.82c-0.854,0-1.878,0.479-2.544,0.991v7.137
			c-0.188,0.051-0.375,0.085-0.581,0.085c-0.171,0-0.375-0.034-0.529-0.085v-8.896c0.12-0.052,0.324-0.068,0.444-0.068
			c0.171,0,0.375,0.017,0.478,0.068l0.085,0.888h0.017c0.939-0.769,2.015-1.059,2.886-1.059c0.871,0,1.775,0.29,2.271,0.888
			c0.546,0.648,0.648,1.588,0.648,2.51V260.611z"/>
		<path style="fill:#58595B;" d="M61.202,256.445h-5.72c0.068,1.964,0.99,3.449,3.125,3.449c0.769,0,1.485-0.103,2.117-0.256
			c0.034,0.085,0.068,0.256,0.068,0.358c0,0.171-0.034,0.324-0.085,0.444c-0.666,0.204-1.502,0.324-2.203,0.324
			c-1.349,0-2.373-0.427-3.005-1.11c-0.751-0.819-1.144-2.049-1.144-3.466c0-2.476,1.246-4.661,3.739-4.661
			c2.237,0,3.125,1.844,3.125,4.098C61.219,255.882,61.219,256.189,61.202,256.445z M60.109,255.626c0-1.571-0.17-3.261-2.066-3.261
			c-1.656,0-2.458,1.52-2.561,3.261H60.109z"/>
		<path style="fill:#58595B;" d="M65.058,260.766c-0.854,0-1.742-0.154-2.356-0.393c-0.051-0.12-0.085-0.324-0.085-0.479
			c0-0.103,0.034-0.358,0.068-0.461c0.631,0.256,1.537,0.461,2.288,0.461c1.298,0,2.101-0.546,2.101-1.622
			c0-0.973-0.496-1.314-1.844-1.81c-1.878-0.684-2.493-1.469-2.493-2.63c0-1.57,1.297-2.305,2.971-2.305
			c0.563,0,1.298,0.103,1.725,0.239c0.051,0.153,0.068,0.307,0.068,0.409c0,0.137-0.034,0.376-0.068,0.495
			c-0.563-0.171-1.161-0.273-1.742-0.273c-1.212,0-1.946,0.462-1.946,1.4c0,0.819,0.461,1.213,1.861,1.742
			c1.281,0.478,2.459,0.956,2.459,2.681C68.063,259.963,66.749,260.766,65.058,260.766z"/>
		<path style="fill:#58595B;" d="M71.851,260.766c-0.854,0-1.742-0.154-2.356-0.393c-0.051-0.12-0.085-0.324-0.085-0.479
			c0-0.103,0.034-0.358,0.068-0.461c0.631,0.256,1.537,0.461,2.288,0.461c1.298,0,2.101-0.546,2.101-1.622
			c0-0.973-0.496-1.314-1.844-1.81c-1.878-0.684-2.493-1.469-2.493-2.63c0-1.57,1.297-2.305,2.971-2.305
			c0.563,0,1.298,0.103,1.725,0.239c0.051,0.153,0.068,0.307,0.068,0.409c0,0.137-0.034,0.376-0.068,0.495
			c-0.563-0.171-1.161-0.273-1.742-0.273c-1.212,0-1.946,0.462-1.946,1.4c0,0.819,0.461,1.213,1.861,1.742
			c1.281,0.478,2.459,0.956,2.459,2.681C74.856,259.963,73.542,260.766,71.851,260.766z"/>
		<path style="fill:#58595B;" d="M83.016,256.445h-5.72c0.068,1.964,0.99,3.449,3.125,3.449c0.769,0,1.485-0.103,2.117-0.256
			c0.034,0.085,0.068,0.256,0.068,0.358c0,0.171-0.034,0.324-0.085,0.444c-0.666,0.204-1.502,0.324-2.203,0.324
			c-1.349,0-2.373-0.427-3.005-1.11c-0.751-0.819-1.144-2.049-1.144-3.466c0-2.476,1.246-4.661,3.739-4.661
			c2.237,0,3.125,1.844,3.125,4.098C83.033,255.882,83.033,256.189,83.016,256.445z M81.923,255.626c0-1.571-0.17-3.261-2.066-3.261
			c-1.656,0-2.458,1.52-2.561,3.261H81.923z"/>
		<path style="fill:#58595B;" d="M86.872,260.766c-0.854,0-1.742-0.154-2.356-0.393c-0.051-0.12-0.085-0.324-0.085-0.479
			c0-0.103,0.034-0.358,0.068-0.461c0.631,0.256,1.537,0.461,2.288,0.461c1.298,0,2.101-0.546,2.101-1.622
			c0-0.973-0.496-1.314-1.844-1.81c-1.878-0.684-2.493-1.469-2.493-2.63c0-1.57,1.297-2.305,2.971-2.305
			c0.563,0,1.298,0.103,1.725,0.239c0.051,0.153,0.068,0.307,0.068,0.409c0,0.137-0.034,0.376-0.068,0.495
			c-0.563-0.171-1.161-0.273-1.742-0.273c-1.212,0-1.946,0.462-1.946,1.4c0,0.819,0.461,1.213,1.861,1.742
			c1.281,0.478,2.459,0.956,2.459,2.681C89.877,259.963,88.562,260.766,86.872,260.766z"/>
		<path style="fill:#58595B;" d="M101.518,258.409c0,0.614,0,1.383,0.034,2.186c-0.12,0.051-0.308,0.085-0.461,0.085
			c-0.137,0-0.325-0.034-0.461-0.085c-0.051-0.273-0.085-0.632-0.102-0.956h-0.017c-0.581,0.717-1.605,1.127-2.613,1.127
			c-1.588,0-2.919-0.888-2.919-2.715c0-1.042,0.427-1.811,1.093-2.288c0.751-0.529,1.742-0.7,2.8-0.7
			c0.597,0,1.093,0.034,1.537,0.103v-0.495c0-1.708-0.7-2.271-2.134-2.271c-0.803,0-1.793,0.171-2.408,0.325
			c-0.034-0.086-0.068-0.273-0.068-0.444c0-0.119,0.034-0.29,0.085-0.393c0.734-0.222,1.708-0.358,2.527-0.358
			c2.032,0,3.108,0.922,3.108,3.005V258.409z M100.408,256.002c-0.495-0.068-1.007-0.103-1.452-0.103
			c-0.836,0-1.588,0.153-2.1,0.546c-0.461,0.342-0.717,0.888-0.717,1.588c0,1.247,0.802,1.845,1.912,1.845
			c0.922,0,1.896-0.444,2.356-1.145V256.002z"/>
		<path style="fill:#58595B;" d="M105.852,260.766c-0.854,0-1.742-0.154-2.356-0.393c-0.051-0.12-0.085-0.324-0.085-0.479
			c0-0.103,0.034-0.358,0.068-0.461c0.631,0.256,1.537,0.461,2.288,0.461c1.298,0,2.101-0.546,2.101-1.622
			c0-0.973-0.496-1.314-1.844-1.81c-1.878-0.684-2.493-1.469-2.493-2.63c0-1.57,1.298-2.305,2.971-2.305
			c0.563,0,1.298,0.103,1.725,0.239c0.051,0.153,0.068,0.307,0.068,0.409c0,0.137-0.034,0.376-0.068,0.495
			c-0.563-0.171-1.161-0.273-1.742-0.273c-1.212,0-1.946,0.462-1.946,1.4c0,0.819,0.461,1.213,1.861,1.742
			c1.281,0.478,2.459,0.956,2.459,2.681C108.857,259.963,107.542,260.766,105.852,260.766z"/>
		<path style="fill:#58595B;" d="M120.054,259.673c-0.666,0.598-1.708,0.922-2.698,0.922c-0.7,0-1.349-0.119-1.827-0.29v4.303
			c-0.171,0.051-0.325,0.085-0.563,0.085c-0.188,0-0.41-0.034-0.546-0.085v-12.908c0.085-0.034,0.29-0.068,0.461-0.068
			s0.324,0.034,0.444,0.068l0.103,0.938h0.017c0.649-0.683,1.622-1.109,2.612-1.109c1.076,0,2.032,0.461,2.629,1.314
			c0.495,0.717,0.803,1.741,0.803,2.988C121.488,257.538,120.959,258.854,120.054,259.673z M117.937,252.433
			c-0.905,0-1.81,0.376-2.407,1.127v5.874c0.444,0.205,1.127,0.324,1.708,0.324c1.844,0,3.09-1.212,3.09-3.876
			C120.327,253.782,119.508,252.433,117.937,252.433z"/>
		<path style="fill:#58595B;" d="M129.391,258.409c0,0.614,0,1.383,0.034,2.186c-0.12,0.051-0.308,0.085-0.461,0.085
			c-0.137,0-0.325-0.034-0.461-0.085c-0.051-0.273-0.085-0.632-0.102-0.956h-0.017c-0.581,0.717-1.605,1.127-2.613,1.127
			c-1.588,0-2.919-0.888-2.919-2.715c0-1.042,0.427-1.811,1.093-2.288c0.751-0.529,1.742-0.7,2.8-0.7
			c0.597,0,1.093,0.034,1.537,0.103v-0.495c0-1.708-0.7-2.271-2.134-2.271c-0.803,0-1.793,0.171-2.408,0.325
			c-0.034-0.086-0.068-0.273-0.068-0.444c0-0.119,0.034-0.29,0.085-0.393c0.734-0.222,1.708-0.358,2.527-0.358
			c2.032,0,3.108,0.922,3.108,3.005V258.409z M128.281,256.002c-0.495-0.068-1.007-0.103-1.452-0.103
			c-0.836,0-1.588,0.153-2.1,0.546c-0.461,0.342-0.717,0.888-0.717,1.588c0,1.247,0.802,1.845,1.912,1.845
			c0.922,0,1.896-0.444,2.356-1.145V256.002z"/>
		<path style="fill:#58595B;" d="M135.723,252.519c-0.991,0.137-2.066,0.495-2.869,1.109v6.967
			c-0.171,0.051-0.375,0.085-0.563,0.085s-0.375-0.034-0.546-0.085v-8.896c0.103-0.034,0.256-0.068,0.427-0.068
			c0.137,0,0.324,0.034,0.461,0.068l0.085,1.093h0.017c0.734-0.632,2.015-1.161,2.988-1.264c0.034,0.103,0.068,0.29,0.068,0.443
			C135.791,252.143,135.757,252.365,135.723,252.519z"/>
		<path style="fill:#58595B;" d="M142.328,260.51c-0.444,0.153-1.11,0.256-1.605,0.256c-1.69,0-2.493-0.803-2.493-2.698v-5.498
			h-1.537c-0.034-0.085-0.051-0.29-0.051-0.393c0-0.085,0.017-0.29,0.051-0.375l1.537-0.103v-2.322
			c0.136-0.052,0.358-0.086,0.546-0.086c0.188,0,0.427,0.034,0.563,0.086v2.322h2.51c0.034,0.085,0.068,0.341,0.068,0.427
			c0,0.119-0.034,0.324-0.068,0.443h-2.51v5.396c0,1.35,0.393,1.913,1.451,1.913c0.581,0,1.144-0.086,1.537-0.205
			c0.034,0.085,0.068,0.29,0.068,0.409C142.396,260.236,142.379,260.355,142.328,260.51z"/>
		<path style="fill:#58595B;" d="M150.913,260.766c-2.237,0-3.671-1.537-3.671-4.61s1.451-4.627,3.688-4.627s3.654,1.52,3.654,4.593
			S153.149,260.766,150.913,260.766z M150.93,252.365c-1.639,0-2.527,1.263-2.527,3.773c0,2.51,0.871,3.79,2.51,3.79
			c1.64,0,2.51-1.28,2.51-3.79C153.423,253.628,152.569,252.365,150.93,252.365z"/>
		<path style="fill:#58595B;" d="M161.445,248.864c-0.256-0.068-0.718-0.137-1.076-0.137c-0.648,0-1.127,0.171-1.451,0.529
			c-0.495,0.529-0.58,1.247-0.58,2.151v0.291h2.407c0.034,0.085,0.068,0.29,0.068,0.409c0,0.137-0.034,0.342-0.068,0.461h-2.407
			v8.025c-0.154,0.051-0.325,0.085-0.547,0.085s-0.409-0.034-0.563-0.085v-8.025h-1.536c-0.034-0.085-0.052-0.307-0.052-0.409
			c0-0.086,0.018-0.273,0.052-0.358l1.536-0.103v-0.291c0-1.212,0.205-2.049,0.905-2.749c0.495-0.495,1.229-0.733,2.065-0.733
			c0.444,0,0.939,0.102,1.247,0.222c0.034,0.085,0.051,0.205,0.051,0.324C161.496,248.574,161.479,248.779,161.445,248.864z"/>
		<path style="fill:#58595B;" d="M172.591,258.409c0,0.614,0,1.383,0.034,2.186c-0.119,0.051-0.307,0.085-0.461,0.085
			c-0.137,0-0.324-0.034-0.461-0.085c-0.051-0.273-0.085-0.632-0.103-0.956h-0.017c-0.581,0.717-1.605,1.127-2.612,1.127
			c-1.588,0-2.92-0.888-2.92-2.715c0-1.042,0.427-1.811,1.093-2.288c0.751-0.529,1.741-0.7,2.8-0.7c0.598,0,1.093,0.034,1.537,0.103
			v-0.495c0-1.708-0.7-2.271-2.135-2.271c-0.802,0-1.793,0.171-2.407,0.325c-0.034-0.086-0.068-0.273-0.068-0.444
			c0-0.119,0.034-0.29,0.086-0.393c0.733-0.222,1.707-0.358,2.526-0.358c2.032,0,3.107,0.922,3.107,3.005V258.409z M171.481,256.002
			c-0.495-0.068-1.008-0.103-1.451-0.103c-0.837,0-1.588,0.153-2.101,0.546c-0.461,0.342-0.717,0.888-0.717,1.588
			c0,1.247,0.803,1.845,1.912,1.845c0.922,0,1.896-0.444,2.356-1.145V256.002z"/>
		<path style="fill:#58595B;" d="M181.774,260.611c-0.137,0.034-0.342,0.068-0.547,0.068c-0.171,0-0.393-0.034-0.563-0.085v-5.413
			c0-0.819-0.103-1.451-0.341-1.895c-0.291-0.547-0.837-0.82-1.725-0.82c-0.854,0-1.879,0.479-2.545,0.991v7.137
			c-0.188,0.051-0.375,0.085-0.58,0.085c-0.171,0-0.376-0.034-0.529-0.085v-8.896c0.119-0.052,0.324-0.068,0.444-0.068
			c0.17,0,0.375,0.017,0.478,0.068l0.086,0.888h0.017c0.939-0.769,2.015-1.059,2.886-1.059s1.775,0.29,2.271,0.888
			c0.547,0.648,0.649,1.588,0.649,2.51V260.611z"/>
		<path style="fill:#58595B;" d="M194.148,256.445h-5.72c0.068,1.964,0.99,3.449,3.124,3.449c0.769,0,1.486-0.103,2.118-0.256
			c0.034,0.085,0.067,0.256,0.067,0.358c0,0.171-0.033,0.324-0.085,0.444c-0.666,0.204-1.503,0.324-2.202,0.324
			c-1.35,0-2.374-0.427-3.006-1.11c-0.751-0.819-1.144-2.049-1.144-3.466c0-2.476,1.246-4.661,3.739-4.661
			c2.236,0,3.125,1.844,3.125,4.098C194.166,255.882,194.166,256.189,194.148,256.445z M193.056,255.626
			c0-1.571-0.171-3.261-2.065-3.261c-1.656,0-2.459,1.52-2.562,3.261H193.056z"/>
		<path style="fill:#58595B;" d="M202.854,260.611c-0.137,0.034-0.342,0.068-0.547,0.068c-0.171,0-0.393-0.034-0.563-0.085v-5.413
			c0-0.819-0.103-1.451-0.341-1.895c-0.291-0.547-0.837-0.82-1.725-0.82c-0.854,0-1.879,0.479-2.545,0.991v7.137
			c-0.188,0.051-0.375,0.085-0.58,0.085c-0.171,0-0.376-0.034-0.529-0.085v-8.896c0.119-0.052,0.324-0.068,0.444-0.068
			c0.17,0,0.375,0.017,0.478,0.068l0.086,0.888h0.017c0.939-0.769,2.015-1.059,2.886-1.059s1.775,0.29,2.271,0.888
			c0.547,0.648,0.649,1.588,0.649,2.51V260.611z"/>
		<path style="fill:#58595B;" d="M209.851,260.51c-0.443,0.153-1.109,0.256-1.604,0.256c-1.69,0-2.493-0.803-2.493-2.698v-5.498
			h-1.537c-0.034-0.085-0.051-0.29-0.051-0.393c0-0.085,0.017-0.29,0.051-0.375l1.537-0.103v-2.322
			c0.137-0.052,0.358-0.086,0.546-0.086c0.188,0,0.427,0.034,0.563,0.086v2.322h2.511c0.034,0.085,0.067,0.341,0.067,0.427
			c0,0.119-0.033,0.324-0.067,0.443h-2.511v5.396c0,1.35,0.393,1.913,1.452,1.913c0.58,0,1.144-0.086,1.536-0.205
			c0.034,0.085,0.068,0.29,0.068,0.409C209.919,260.236,209.902,260.355,209.851,260.51z"/>
		<path style="fill:#58595B;" d="M217.43,256.445h-5.72c0.068,1.964,0.99,3.449,3.124,3.449c0.769,0,1.486-0.103,2.118-0.256
			c0.034,0.085,0.067,0.256,0.067,0.358c0,0.171-0.033,0.324-0.085,0.444c-0.666,0.204-1.503,0.324-2.202,0.324
			c-1.35,0-2.374-0.427-3.006-1.11c-0.751-0.819-1.144-2.049-1.144-3.466c0-2.476,1.246-4.661,3.739-4.661
			c2.236,0,3.125,1.844,3.125,4.098C217.447,255.882,217.447,256.189,217.43,256.445z M216.337,255.626
			c0-1.571-0.171-3.261-2.065-3.261c-1.656,0-2.459,1.52-2.562,3.261H216.337z"/>
		<path style="fill:#58595B;" d="M223.284,252.519c-0.99,0.137-2.066,0.495-2.869,1.109v6.967c-0.17,0.051-0.375,0.085-0.563,0.085
			c-0.188,0-0.375-0.034-0.546-0.085v-8.896c0.103-0.034,0.256-0.068,0.427-0.068c0.137,0,0.324,0.034,0.461,0.068l0.086,1.093
			h0.017c0.734-0.632,2.015-1.161,2.988-1.264c0.034,0.103,0.068,0.29,0.068,0.443C223.353,252.143,223.318,252.365,223.284,252.519
			z"/>
		<path style="fill:#58595B;" d="M230.642,259.673c-0.666,0.598-1.708,0.922-2.698,0.922c-0.7,0-1.349-0.119-1.827-0.29v4.303
			c-0.17,0.051-0.324,0.085-0.563,0.085c-0.188,0-0.409-0.034-0.546-0.085v-12.908c0.085-0.034,0.29-0.068,0.461-0.068
			s0.324,0.034,0.444,0.068l0.103,0.938h0.017c0.648-0.683,1.622-1.109,2.612-1.109c1.076,0,2.032,0.461,2.63,1.314
			c0.495,0.717,0.802,1.741,0.802,2.988C232.075,257.538,231.546,258.854,230.642,259.673z M228.524,252.433
			c-0.905,0-1.811,0.376-2.408,1.127v5.874c0.444,0.205,1.127,0.324,1.708,0.324c1.844,0,3.091-1.212,3.091-3.876
			C230.915,253.782,230.095,252.433,228.524,252.433z"/>
		<path style="fill:#58595B;" d="M237.878,252.519c-0.99,0.137-2.066,0.495-2.869,1.109v6.967c-0.17,0.051-0.375,0.085-0.563,0.085
			c-0.188,0-0.375-0.034-0.546-0.085v-8.896c0.103-0.034,0.256-0.068,0.427-0.068c0.137,0,0.324,0.034,0.461,0.068l0.086,1.093
			h0.017c0.734-0.632,2.015-1.161,2.988-1.264c0.034,0.103,0.068,0.29,0.068,0.443C237.946,252.143,237.912,252.365,237.878,252.519
			z"/>
		<path style="fill:#58595B;" d="M240.215,249.957c-0.393,0-0.717-0.341-0.717-0.751s0.324-0.734,0.717-0.734
			c0.394,0,0.734,0.324,0.734,0.734S240.608,249.957,240.215,249.957z M240.778,260.595c-0.153,0.051-0.375,0.085-0.563,0.085
			c-0.188,0-0.393-0.034-0.546-0.085v-8.896c0.137-0.034,0.358-0.086,0.529-0.086c0.188,0,0.443,0.034,0.58,0.086V260.595z"/>
		<path style="fill:#58595B;" d="M245.148,260.766c-0.854,0-1.741-0.154-2.356-0.393c-0.051-0.12-0.085-0.324-0.085-0.479
			c0-0.103,0.034-0.358,0.068-0.461c0.632,0.256,1.536,0.461,2.288,0.461c1.298,0,2.1-0.546,2.1-1.622
			c0-0.973-0.495-1.314-1.844-1.81c-1.878-0.684-2.493-1.469-2.493-2.63c0-1.57,1.298-2.305,2.972-2.305
			c0.563,0,1.297,0.103,1.724,0.239c0.052,0.153,0.068,0.307,0.068,0.409c0,0.137-0.034,0.376-0.068,0.495
			c-0.563-0.171-1.16-0.273-1.741-0.273c-1.212,0-1.946,0.462-1.946,1.4c0,0.819,0.461,1.213,1.861,1.742
			c1.28,0.478,2.458,0.956,2.458,2.681C248.153,259.963,246.839,260.766,245.148,260.766z"/>
		<path style="fill:#58595B;" d="M256.312,256.445h-5.72c0.068,1.964,0.99,3.449,3.124,3.449c0.769,0,1.486-0.103,2.118-0.256
			c0.034,0.085,0.067,0.256,0.067,0.358c0,0.171-0.033,0.324-0.085,0.444c-0.666,0.204-1.503,0.324-2.202,0.324
			c-1.35,0-2.374-0.427-3.006-1.11c-0.751-0.819-1.144-2.049-1.144-3.466c0-2.476,1.246-4.661,3.739-4.661
			c2.236,0,3.125,1.844,3.125,4.098C256.33,255.882,256.33,256.189,256.312,256.445z M255.22,255.626
			c0-1.571-0.171-3.261-2.065-3.261c-1.656,0-2.459,1.52-2.562,3.261H255.22z"/>
	</g>
	<g>
		<path style="fill:#58595B;" d="M23.6,269.553l-4.969,7.239h4.935c0.034,0.103,0.068,0.376,0.068,0.495
			c0,0.103-0.034,0.273-0.068,0.376h-6.198c-0.034-0.068-0.051-0.239-0.051-0.342c0-0.119,0.017-0.272,0.068-0.427l4.986-7.257
			h-4.764c-0.051-0.119-0.085-0.324-0.085-0.443c0-0.086,0.034-0.342,0.085-0.427h6.027c0.034,0.103,0.051,0.256,0.051,0.358
			C23.685,269.194,23.668,269.348,23.6,269.553z"/>
		<path style="fill:#58595B;" d="M28.48,277.834c-2.237,0-3.671-1.537-3.671-4.61s1.451-4.627,3.688-4.627s3.654,1.52,3.654,4.593
			S30.717,277.834,28.48,277.834z M28.498,269.434c-1.639,0-2.527,1.263-2.527,3.773c0,2.51,0.871,3.79,2.51,3.79
			s2.51-1.28,2.51-3.79C30.99,270.696,30.137,269.434,28.498,269.434z"/>
		<path style="fill:#58595B;" d="M40.805,277.68c-0.136,0.034-0.341,0.068-0.546,0.068c-0.17,0-0.393-0.034-0.563-0.085v-5.413
			c0-0.819-0.102-1.451-0.341-1.895c-0.29-0.547-0.836-0.82-1.725-0.82c-0.854,0-1.878,0.479-2.544,0.991v7.137
			c-0.188,0.051-0.375,0.085-0.581,0.085c-0.171,0-0.375-0.034-0.529-0.085v-8.896c0.12-0.052,0.324-0.068,0.444-0.068
			c0.171,0,0.375,0.017,0.478,0.068l0.085,0.888H35c0.939-0.769,2.015-1.059,2.886-1.059c0.871,0,1.775,0.29,2.271,0.888
			c0.546,0.648,0.648,1.588,0.648,2.51V277.68z"/>
		<path style="fill:#58595B;" d="M49.424,273.514h-5.72c0.068,1.964,0.99,3.449,3.125,3.449c0.769,0,1.485-0.103,2.117-0.256
			c0.034,0.085,0.068,0.256,0.068,0.358c0,0.171-0.034,0.324-0.085,0.444c-0.666,0.204-1.502,0.324-2.203,0.324
			c-1.349,0-2.373-0.427-3.005-1.11c-0.751-0.819-1.144-2.049-1.144-3.466c0-2.476,1.247-4.661,3.739-4.661
			c2.237,0,3.125,1.844,3.125,4.098C49.441,272.95,49.441,273.258,49.424,273.514z M48.332,272.694c0-1.571-0.17-3.261-2.066-3.261
			c-1.656,0-2.458,1.52-2.561,3.261H48.332z"/>
		<path style="fill:#58595B;" d="M56.199,277.663c-0.188,0.051-0.376,0.085-0.581,0.085c-0.171,0-0.375-0.034-0.529-0.085v-12.465
			c0.154-0.034,0.341-0.085,0.563-0.085c0.188,0,0.393,0.034,0.546,0.085V277.663z"/>
		<path style="fill:#58595B;" d="M61.729,277.834c-2.237,0-3.671-1.537-3.671-4.61s1.451-4.627,3.688-4.627s3.654,1.52,3.654,4.593
			S63.966,277.834,61.729,277.834z M61.747,269.434c-1.639,0-2.527,1.263-2.527,3.773c0,2.51,0.871,3.79,2.51,3.79
			s2.51-1.28,2.51-3.79C64.239,270.696,63.386,269.434,61.747,269.434z"/>
		<path style="fill:#58595B;" d="M72.825,269.843c-0.546-0.222-1.264-0.358-1.896-0.358c-2.22,0-3.039,1.725-3.039,3.808
			c0,2.049,0.785,3.637,3.022,3.637c0.598,0,1.315-0.103,1.844-0.256c0.034,0.103,0.068,0.222,0.068,0.358
			c0,0.205-0.034,0.358-0.085,0.479c-0.495,0.204-1.298,0.324-1.93,0.324c-2.783,0-4.081-1.827-4.081-4.508
			c0-2.783,1.417-4.729,4.132-4.729c0.649,0,1.417,0.153,1.947,0.393c0.051,0.137,0.068,0.273,0.068,0.427
			C72.876,269.587,72.859,269.724,72.825,269.843z"/>
		<path style="fill:#58595B;" d="M80.728,275.478c0,0.614,0,1.383,0.034,2.186c-0.12,0.051-0.308,0.085-0.461,0.085
			c-0.137,0-0.325-0.034-0.461-0.085c-0.051-0.273-0.085-0.632-0.102-0.956h-0.017c-0.581,0.717-1.605,1.127-2.613,1.127
			c-1.588,0-2.919-0.888-2.919-2.715c0-1.042,0.427-1.811,1.093-2.288c0.751-0.529,1.742-0.7,2.8-0.7
			c0.597,0,1.093,0.034,1.537,0.103v-0.495c0-1.708-0.7-2.271-2.134-2.271c-0.803,0-1.793,0.171-2.408,0.325
			c-0.034-0.086-0.068-0.273-0.068-0.444c0-0.119,0.034-0.29,0.085-0.393c0.734-0.222,1.708-0.358,2.527-0.358
			c2.032,0,3.108,0.922,3.108,3.005V275.478z M79.618,273.07c-0.495-0.068-1.007-0.103-1.452-0.103c-0.836,0-1.588,0.153-2.1,0.546
			c-0.461,0.342-0.717,0.888-0.717,1.588c0,1.247,0.802,1.845,1.912,1.845c0.922,0,1.896-0.444,2.356-1.145V273.07z"/>
		<path style="fill:#58595B;" d="M87.811,277.578c-0.444,0.153-1.11,0.256-1.605,0.256c-1.69,0-2.493-0.803-2.493-2.698v-5.498
			h-1.537c-0.034-0.085-0.051-0.29-0.051-0.393c0-0.085,0.017-0.29,0.051-0.375l1.537-0.103v-2.322
			c0.136-0.052,0.358-0.086,0.546-0.086c0.188,0,0.427,0.034,0.563,0.086v2.322h2.51c0.034,0.085,0.068,0.341,0.068,0.427
			c0,0.119-0.034,0.324-0.068,0.443h-2.51v5.396c0,1.35,0.393,1.913,1.451,1.913c0.581,0,1.144-0.086,1.537-0.205
			c0.034,0.085,0.068,0.29,0.068,0.409C87.879,277.305,87.862,277.424,87.811,277.578z"/>
		<path style="fill:#58595B;" d="M95.39,273.514h-5.72c0.068,1.964,0.99,3.449,3.125,3.449c0.769,0,1.485-0.103,2.117-0.256
			c0.034,0.085,0.068,0.256,0.068,0.358c0,0.171-0.034,0.324-0.085,0.444c-0.666,0.204-1.502,0.324-2.203,0.324
			c-1.349,0-2.373-0.427-3.005-1.11c-0.751-0.819-1.144-2.049-1.144-3.466c0-2.476,1.246-4.661,3.739-4.661
			c2.237,0,3.125,1.844,3.125,4.098C95.407,272.95,95.407,273.258,95.39,273.514z M94.297,272.694c0-1.571-0.17-3.261-2.066-3.261
			c-1.656,0-2.458,1.52-2.561,3.261H94.297z"/>
		<path style="fill:#58595B;" d="M103.396,277.748c-0.154,0-0.342-0.051-0.444-0.085l-0.102-1.024h-0.017
			c-0.734,0.769-1.605,1.195-2.579,1.195c-2.356,0-3.483-1.964-3.483-4.354c0-2.373,1.007-4.883,3.722-4.883
			c0.854,0,1.639,0.29,2.271,0.734v-4.133c0.154-0.051,0.358-0.085,0.546-0.085c0.205,0,0.41,0.051,0.563,0.085v12.465
			C103.754,277.714,103.583,277.748,103.396,277.748z M102.764,270.27c-0.615-0.512-1.4-0.769-2.203-0.769
			c-1.981,0-2.646,1.947-2.646,3.928c0,1.52,0.478,3.5,2.39,3.5c0.922,0,1.861-0.461,2.459-1.178V270.27z"/>
		<path style="fill:#58595B;" d="M113.123,277.834c-2.237,0-3.671-1.537-3.671-4.61s1.451-4.627,3.688-4.627s3.654,1.52,3.654,4.593
			S115.36,277.834,113.123,277.834z M113.14,269.434c-1.639,0-2.527,1.263-2.527,3.773c0,2.51,0.871,3.79,2.51,3.79
			s2.51-1.28,2.51-3.79C115.633,270.696,114.779,269.434,113.14,269.434z"/>
		<path style="fill:#58595B;" d="M125.448,277.68c-0.136,0.034-0.341,0.068-0.546,0.068c-0.17,0-0.393-0.034-0.563-0.085v-5.413
			c0-0.819-0.102-1.451-0.341-1.895c-0.29-0.547-0.836-0.82-1.725-0.82c-0.854,0-1.878,0.479-2.544,0.991v7.137
			c-0.188,0.051-0.375,0.085-0.581,0.085c-0.171,0-0.375-0.034-0.529-0.085v-8.896c0.12-0.052,0.324-0.068,0.444-0.068
			c0.171,0,0.375,0.017,0.478,0.068l0.085,0.888h0.017c0.939-0.769,2.015-1.059,2.886-1.059c0.871,0,1.775,0.29,2.271,0.888
			c0.546,0.648,0.648,1.588,0.648,2.51V277.68z"/>
		<path style="fill:#58595B;" d="M137.071,269.843c-0.546-0.222-1.264-0.358-1.896-0.358c-2.22,0-3.039,1.725-3.039,3.808
			c0,2.049,0.785,3.637,3.022,3.637c0.598,0,1.315-0.103,1.844-0.256c0.034,0.103,0.068,0.222,0.068,0.358
			c0,0.205-0.034,0.358-0.085,0.479c-0.495,0.204-1.298,0.324-1.93,0.324c-2.783,0-4.081-1.827-4.081-4.508
			c0-2.783,1.417-4.729,4.132-4.729c0.649,0,1.417,0.153,1.947,0.393c0.051,0.137,0.068,0.273,0.068,0.427
			C137.123,269.587,137.105,269.724,137.071,269.843z"/>
		<path style="fill:#58595B;" d="M144.974,275.478c0,0.614,0,1.383,0.034,2.186c-0.12,0.051-0.308,0.085-0.461,0.085
			c-0.137,0-0.325-0.034-0.461-0.085c-0.051-0.273-0.085-0.632-0.102-0.956h-0.017c-0.581,0.717-1.605,1.127-2.613,1.127
			c-1.588,0-2.919-0.888-2.919-2.715c0-1.042,0.427-1.811,1.093-2.288c0.751-0.529,1.742-0.7,2.8-0.7
			c0.597,0,1.093,0.034,1.537,0.103v-0.495c0-1.708-0.7-2.271-2.134-2.271c-0.803,0-1.793,0.171-2.408,0.325
			c-0.034-0.086-0.068-0.273-0.068-0.444c0-0.119,0.034-0.29,0.085-0.393c0.734-0.222,1.708-0.358,2.527-0.358
			c2.032,0,3.108,0.922,3.108,3.005V275.478z M143.864,273.07c-0.495-0.068-1.007-0.103-1.452-0.103c-0.836,0-1.588,0.153-2.1,0.546
			c-0.461,0.342-0.717,0.888-0.717,1.588c0,1.247,0.802,1.845,1.912,1.845c0.922,0,1.896-0.444,2.356-1.145V273.07z"/>
		<path style="fill:#58595B;" d="M159.689,277.68c-0.171,0.034-0.342,0.068-0.513,0.068c-0.205,0-0.393-0.051-0.598-0.085v-5.396
			c0-1.878-0.478-2.732-2.065-2.732c-0.82,0-1.913,0.428-2.596,0.923c0.137,0.478,0.171,1.007,0.171,1.536v5.669
			c-0.171,0.051-0.342,0.085-0.513,0.085c-0.222,0-0.427-0.034-0.598-0.085v-5.396c0-1.878-0.427-2.732-2.015-2.732
			c-0.854,0-1.861,0.479-2.527,0.991v7.137c-0.188,0.051-0.41,0.085-0.615,0.085c-0.171,0-0.358-0.034-0.495-0.085v-8.896
			c0.085-0.034,0.273-0.068,0.461-0.068c0.154,0,0.341,0.034,0.461,0.068l0.085,0.888h0.017c0.939-0.769,2.015-1.059,2.886-1.059
			s1.707,0.29,2.202,0.888c0.068,0.068,0.12,0.153,0.171,0.239c0.905-0.734,2.066-1.127,3.176-1.127c0.871,0,1.759,0.29,2.254,0.888
			c0.547,0.648,0.649,1.588,0.649,2.51V277.68z"/>
		<path style="fill:#58595B;" d="M167.59,276.741c-0.666,0.598-1.708,0.922-2.698,0.922c-0.7,0-1.349-0.119-1.827-0.29v4.303
			c-0.17,0.051-0.324,0.085-0.563,0.085c-0.188,0-0.409-0.034-0.546-0.085v-12.908c0.085-0.034,0.29-0.068,0.461-0.068
			s0.324,0.034,0.444,0.068l0.103,0.938h0.017c0.648-0.683,1.622-1.109,2.612-1.109c1.076,0,2.032,0.461,2.63,1.314
			c0.495,0.717,0.802,1.741,0.802,2.988C169.023,274.606,168.494,275.922,167.59,276.741z M165.473,269.501
			c-0.905,0-1.811,0.376-2.408,1.127v5.874c0.444,0.205,1.127,0.324,1.708,0.324c1.844,0,3.091-1.212,3.091-3.876
			C167.863,270.851,167.043,269.501,165.473,269.501z"/>
		<path style="fill:#58595B;" d="M177.404,274.282c0,2.596-1.076,3.552-3.33,3.552c-2.305,0-3.278-0.956-3.278-3.466v-5.601
			c0.154-0.052,0.359-0.086,0.547-0.086c0.239,0,0.427,0.052,0.563,0.086v5.464c0,1.656,0.256,2.749,2.186,2.749
			c1.81,0,2.202-1.059,2.202-2.783v-5.43c0.137-0.052,0.376-0.086,0.563-0.086c0.188,0,0.394,0.034,0.547,0.086V274.282z"/>
		<path style="fill:#58595B;" d="M181.653,277.834c-0.854,0-1.741-0.154-2.356-0.393c-0.051-0.12-0.085-0.324-0.085-0.479
			c0-0.103,0.034-0.358,0.068-0.461c0.632,0.256,1.536,0.461,2.288,0.461c1.298,0,2.1-0.546,2.1-1.622
			c0-0.973-0.495-1.314-1.844-1.81c-1.878-0.684-2.493-1.469-2.493-2.63c0-1.57,1.298-2.305,2.972-2.305
			c0.563,0,1.297,0.103,1.724,0.239c0.052,0.153,0.068,0.307,0.068,0.409c0,0.137-0.034,0.376-0.068,0.495
			c-0.563-0.171-1.16-0.273-1.741-0.273c-1.212,0-1.946,0.462-1.946,1.4c0,0.819,0.461,1.213,1.861,1.742
			c1.28,0.478,2.458,0.956,2.458,2.681C184.658,277.031,183.344,277.834,181.653,277.834z"/>
	</g>
</g>
</svg>
