<?xml version="1.0" encoding="utf-8"?>
<!-- Generator: Adobe Illustrator 16.0.0, SVG Export Plug-In . SVG Version: 6.00 Build 0)  -->
<!DOCTYPE svg PUBLIC "-//W3C//DTD SVG 1.1//EN" "http://www.w3.org/Graphics/SVG/1.1/DTD/svg11.dtd">
<svg version="1.1" id="Layer_1" xmlns="http://www.w3.org/2000/svg" xmlns:xlink="http://www.w3.org/1999/xlink" x="0px" y="0px"
	 width="300px" height="300px" viewBox="0 0 300 300" enable-background="new 0 0 300 300" xml:space="preserve">
<g>
	<path fill="#333333" d="M23.411,53.94c-2.381,0-3.629-1.786-3.629-4.933c0-3.146,1.248-4.933,3.629-4.933s3.629,1.786,3.629,4.933
		C27.04,52.154,25.792,53.94,23.411,53.94z M23.411,44.797c-1.715,0-2.608,1.375-2.608,4.21c0,2.835,0.893,4.21,2.608,4.21
		s2.608-1.375,2.608-4.21C26.019,46.172,25.126,44.797,23.411,44.797z"/>
	<path fill="#333333" d="M33.361,53.033c-0.553,0.496-1.417,0.766-2.24,0.766c-0.581,0-1.12-0.099-1.517-0.241v3.572
		c-0.142,0.042-0.269,0.071-0.468,0.071c-0.156,0-0.34-0.028-0.454-0.071V46.413c0.071-0.028,0.241-0.057,0.383-0.057
		s0.27,0.028,0.369,0.057l0.085,0.779h0.014c0.539-0.567,1.347-0.921,2.169-0.921c0.893,0,1.687,0.383,2.183,1.092
		c0.411,0.595,0.666,1.446,0.666,2.48C34.552,51.261,34.112,52.353,33.361,53.033z M31.604,47.022c-0.751,0-1.503,0.312-1.999,0.936
		v4.876c0.369,0.17,0.936,0.269,1.417,0.269c1.531,0,2.566-1.006,2.566-3.218C33.588,48.143,32.907,47.022,31.604,47.022z"/>
	<path fill="#333333" d="M41.596,53.798c-0.128,0.042-0.284,0.071-0.425,0.071c-0.17,0-0.354-0.028-0.496-0.071v-4.479
		c0-1.559-0.397-2.268-1.715-2.268c-0.709,0-1.56,0.397-2.112,0.822v5.925c-0.156,0.042-0.326,0.071-0.482,0.071
		c-0.142,0-0.312-0.028-0.439-0.071V43.45c0.127-0.042,0.326-0.071,0.454-0.071s0.34,0.028,0.468,0.071v3.643
		c0.751-0.581,1.645-0.822,2.339-0.822c0.723,0,1.46,0.241,1.871,0.737c0.454,0.539,0.539,1.318,0.539,2.084V53.798z"/>
	<path fill="#333333" d="M47.28,53.728c-0.369,0.127-0.921,0.212-1.333,0.212c-1.403,0-2.07-0.666-2.07-2.24v-4.564h-1.276
		c-0.028-0.071-0.042-0.241-0.042-0.326c0-0.071,0.014-0.241,0.042-0.312l1.276-0.085v-1.928c0.114-0.042,0.298-0.071,0.454-0.071
		c0.156,0,0.354,0.028,0.468,0.071v1.928h2.084c0.028,0.071,0.057,0.283,0.057,0.354c0,0.099-0.028,0.269-0.057,0.368h-2.084v4.479
		c0,1.12,0.326,1.588,1.205,1.588c0.482,0,0.95-0.071,1.276-0.17c0.028,0.071,0.057,0.241,0.057,0.34
		C47.336,53.5,47.322,53.6,47.28,53.728z"/>
	<path fill="#333333" d="M54.197,53.798c-0.128,0.042-0.284,0.071-0.425,0.071c-0.17,0-0.354-0.028-0.496-0.071v-4.479
		c0-1.559-0.397-2.268-1.715-2.268c-0.709,0-1.56,0.397-2.112,0.822v5.925c-0.156,0.042-0.326,0.071-0.482,0.071
		c-0.142,0-0.312-0.028-0.439-0.071V43.45c0.127-0.042,0.326-0.071,0.454-0.071s0.34,0.028,0.468,0.071v3.643
		c0.751-0.581,1.645-0.822,2.339-0.822c0.723,0,1.46,0.241,1.871,0.737c0.454,0.539,0.539,1.318,0.539,2.084V53.798z"/>
	<path fill="#333333" d="M61,51.984c0,0.51,0,1.148,0.028,1.814c-0.099,0.042-0.255,0.071-0.383,0.071
		c-0.113,0-0.269-0.028-0.382-0.071c-0.042-0.227-0.071-0.524-0.085-0.794h-0.014c-0.482,0.596-1.333,0.936-2.168,0.936
		c-1.318,0-2.424-0.737-2.424-2.254c0-0.865,0.354-1.502,0.907-1.899c0.624-0.439,1.446-0.581,2.325-0.581
		c0.496,0,0.907,0.028,1.276,0.085v-0.411c0-1.417-0.581-1.885-1.772-1.885c-0.666,0-1.488,0.142-1.999,0.27
		c-0.028-0.071-0.057-0.227-0.057-0.369c0-0.099,0.028-0.241,0.071-0.326c0.609-0.184,1.417-0.298,2.098-0.298
		c1.687,0,2.58,0.766,2.58,2.495V51.984z M60.079,49.985c-0.411-0.057-0.836-0.085-1.205-0.085c-0.695,0-1.318,0.128-1.744,0.454
		c-0.383,0.284-0.596,0.737-0.596,1.318c0,1.035,0.667,1.531,1.588,1.531c0.766,0,1.573-0.369,1.956-0.95V49.985z"/>
	<path fill="#333333" d="M63.778,53.798c-0.156,0.042-0.312,0.071-0.482,0.071c-0.142,0-0.312-0.028-0.439-0.071V43.45
		c0.127-0.028,0.284-0.071,0.468-0.071c0.156,0,0.326,0.028,0.454,0.071V53.798z"/>
	<path fill="#333333" d="M75.869,53.812c-0.142,0.028-0.284,0.057-0.425,0.057c-0.17,0-0.326-0.042-0.496-0.071v-4.479
		c0-1.559-0.397-2.268-1.715-2.268c-0.681,0-1.588,0.354-2.155,0.766c0.113,0.397,0.142,0.836,0.142,1.276v4.706
		c-0.142,0.042-0.284,0.071-0.425,0.071c-0.185,0-0.354-0.028-0.497-0.071v-4.479c0-1.559-0.354-2.268-1.672-2.268
		c-0.709,0-1.545,0.397-2.098,0.822v5.925c-0.156,0.042-0.34,0.071-0.51,0.071c-0.142,0-0.298-0.028-0.411-0.071v-7.385
		c0.071-0.028,0.227-0.057,0.383-0.057c0.127,0,0.284,0.028,0.383,0.057l0.071,0.737h0.014c0.78-0.638,1.673-0.879,2.396-0.879
		c0.723,0,1.417,0.241,1.829,0.737c0.057,0.057,0.1,0.127,0.142,0.198c0.751-0.609,1.715-0.936,2.636-0.936
		c0.723,0,1.46,0.241,1.872,0.737c0.454,0.539,0.539,1.318,0.539,2.084V53.812z"/>
	<path fill="#333333" d="M78.136,44.967c-0.326,0-0.595-0.284-0.595-0.624s0.27-0.609,0.595-0.609c0.326,0,0.61,0.269,0.61,0.609
		S78.462,44.967,78.136,44.967z M78.604,53.798c-0.127,0.042-0.312,0.071-0.468,0.071c-0.156,0-0.326-0.028-0.454-0.071v-7.385
		c0.114-0.028,0.298-0.071,0.439-0.071c0.156,0,0.369,0.028,0.482,0.071V53.798z"/>
	<path fill="#333333" d="M85.096,47.306c-0.454-0.185-1.049-0.298-1.573-0.298c-1.843,0-2.523,1.432-2.523,3.161
		c0,1.701,0.652,3.02,2.509,3.02c0.496,0,1.091-0.085,1.531-0.213c0.028,0.085,0.057,0.185,0.057,0.298
		c0,0.17-0.028,0.297-0.071,0.397c-0.411,0.17-1.077,0.269-1.602,0.269c-2.311,0-3.388-1.517-3.388-3.742
		c0-2.311,1.177-3.927,3.431-3.927c0.539,0,1.176,0.128,1.616,0.326c0.042,0.113,0.057,0.227,0.057,0.354
		C85.138,47.093,85.124,47.207,85.096,47.306z"/>
	<path fill="#333333" d="M94.11,47.306c-0.454-0.185-1.049-0.298-1.573-0.298c-1.843,0-2.523,1.432-2.523,3.161
		c0,1.701,0.652,3.02,2.509,3.02c0.496,0,1.091-0.085,1.531-0.213c0.028,0.085,0.057,0.185,0.057,0.298
		c0,0.17-0.028,0.297-0.071,0.397c-0.411,0.17-1.077,0.269-1.602,0.269c-2.311,0-3.388-1.517-3.388-3.742
		c0-2.311,1.177-3.927,3.431-3.927c0.539,0,1.176,0.128,1.616,0.326c0.042,0.113,0.057,0.227,0.057,0.354
		C94.153,47.093,94.139,47.207,94.11,47.306z"/>
	<path fill="#333333" d="M98.136,53.94c-1.857,0-3.048-1.276-3.048-3.827c0-2.552,1.205-3.842,3.062-3.842s3.034,1.262,3.034,3.813
		C101.184,52.636,99.993,53.94,98.136,53.94z M98.15,46.966c-1.361,0-2.098,1.049-2.098,3.133c0,2.083,0.723,3.147,2.084,3.147
		s2.084-1.063,2.084-3.147C100.22,48.015,99.511,46.966,98.15,46.966z"/>
	<path fill="#333333" d="M108.001,50.992c0,2.155-0.893,2.948-2.764,2.948c-1.914,0-2.722-0.793-2.722-2.877v-4.649
		c0.127-0.042,0.298-0.071,0.454-0.071c0.198,0,0.354,0.042,0.468,0.071v4.536c0,1.375,0.213,2.282,1.814,2.282
		c1.502,0,1.829-0.879,1.829-2.311v-4.508c0.113-0.042,0.312-0.071,0.468-0.071s0.326,0.028,0.454,0.071V50.992z"/>
	<path fill="#333333" d="M113.047,47.093c-0.822,0.113-1.715,0.411-2.381,0.921v5.784c-0.142,0.042-0.312,0.071-0.468,0.071
		s-0.312-0.028-0.454-0.071v-7.385c0.085-0.028,0.213-0.057,0.354-0.057c0.113,0,0.27,0.028,0.383,0.057l0.071,0.907h0.014
		c0.609-0.524,1.673-0.964,2.48-1.049c0.028,0.085,0.057,0.241,0.057,0.369C113.104,46.782,113.075,46.966,113.047,47.093z"/>
	<path fill="#333333" d="M115.981,53.94c-0.709,0-1.446-0.127-1.957-0.326c-0.042-0.1-0.071-0.27-0.071-0.397
		c0-0.085,0.028-0.298,0.057-0.383c0.525,0.212,1.276,0.383,1.9,0.383c1.077,0,1.743-0.454,1.743-1.347
		c0-0.808-0.411-1.092-1.531-1.503c-1.559-0.567-2.07-1.219-2.07-2.183c0-1.304,1.078-1.914,2.467-1.914
		c0.468,0,1.077,0.085,1.432,0.199c0.042,0.127,0.057,0.255,0.057,0.34c0,0.113-0.028,0.312-0.057,0.411
		c-0.468-0.142-0.964-0.227-1.446-0.227c-1.006,0-1.616,0.383-1.616,1.163c0,0.68,0.383,1.006,1.545,1.446
		c1.063,0.397,2.041,0.794,2.041,2.226C118.476,53.274,117.384,53.94,115.981,53.94z"/>
	<path fill="#333333" d="M125.124,50.354h-4.749c0.057,1.63,0.822,2.864,2.594,2.864c0.638,0,1.233-0.085,1.758-0.213
		c0.028,0.071,0.057,0.213,0.057,0.298c0,0.142-0.028,0.269-0.071,0.369c-0.553,0.17-1.248,0.269-1.829,0.269
		c-1.12,0-1.971-0.354-2.495-0.921c-0.624-0.68-0.95-1.701-0.95-2.877c0-2.056,1.035-3.87,3.104-3.87
		c1.857,0,2.594,1.531,2.594,3.402C125.138,49.886,125.138,50.141,125.124,50.354z M124.216,49.673c0-1.304-0.142-2.708-1.715-2.708
		c-1.375,0-2.042,1.262-2.126,2.708H124.216z"/>
	<path fill="#333333" d="M128.185,53.94c-0.709,0-1.446-0.127-1.957-0.326c-0.042-0.1-0.071-0.27-0.071-0.397
		c0-0.085,0.028-0.298,0.057-0.383c0.525,0.212,1.276,0.383,1.9,0.383c1.077,0,1.743-0.454,1.743-1.347
		c0-0.808-0.411-1.092-1.531-1.503c-1.559-0.567-2.07-1.219-2.07-2.183c0-1.304,1.078-1.914,2.467-1.914
		c0.468,0,1.077,0.085,1.432,0.199c0.042,0.127,0.057,0.255,0.057,0.34c0,0.113-0.028,0.312-0.057,0.411
		c-0.468-0.142-0.964-0.227-1.446-0.227c-1.006,0-1.616,0.383-1.616,1.163c0,0.68,0.383,1.006,1.545,1.446
		c1.063,0.397,2.041,0.794,2.041,2.226C130.68,53.274,129.588,53.94,128.185,53.94z"/>
	<path fill="#333333" d="M138.347,47.093c-0.822,0.113-1.715,0.411-2.381,0.921v5.784c-0.142,0.042-0.312,0.071-0.468,0.071
		s-0.312-0.028-0.454-0.071v-7.385c0.085-0.028,0.213-0.057,0.354-0.057c0.113,0,0.269,0.028,0.383,0.057l0.071,0.907h0.014
		c0.609-0.524,1.673-0.964,2.48-1.049c0.028,0.085,0.057,0.241,0.057,0.369C138.404,46.782,138.375,46.966,138.347,47.093z"/>
	<path fill="#333333" d="M144.542,50.354h-4.749c0.057,1.63,0.822,2.864,2.594,2.864c0.638,0,1.233-0.085,1.758-0.213
		c0.028,0.071,0.057,0.213,0.057,0.298c0,0.142-0.028,0.269-0.071,0.369c-0.553,0.17-1.248,0.269-1.829,0.269
		c-1.12,0-1.971-0.354-2.495-0.921c-0.624-0.68-0.95-1.701-0.95-2.877c0-2.056,1.035-3.87,3.104-3.87
		c1.857,0,2.594,1.531,2.594,3.402C144.556,49.886,144.556,50.141,144.542,50.354z M143.635,49.673c0-1.304-0.142-2.708-1.715-2.708
		c-1.375,0-2.042,1.262-2.126,2.708H143.635z"/>
	<path fill="#333333" d="M150.608,47.306c-0.454-0.185-1.049-0.298-1.573-0.298c-1.843,0-2.523,1.432-2.523,3.161
		c0,1.701,0.652,3.02,2.509,3.02c0.496,0,1.091-0.085,1.531-0.213c0.028,0.085,0.057,0.185,0.057,0.298
		c0,0.17-0.028,0.297-0.071,0.397c-0.411,0.17-1.077,0.269-1.602,0.269c-2.311,0-3.388-1.517-3.388-3.742
		c0-2.311,1.177-3.927,3.431-3.927c0.539,0,1.176,0.128,1.616,0.326c0.042,0.113,0.057,0.227,0.057,0.354
		C150.65,47.093,150.636,47.207,150.608,47.306z"/>
	<path fill="#333333" d="M157.271,50.354h-4.749c0.057,1.63,0.822,2.864,2.594,2.864c0.639,0,1.233-0.085,1.758-0.213
		c0.028,0.071,0.057,0.213,0.057,0.298c0,0.142-0.028,0.269-0.07,0.369c-0.553,0.17-1.247,0.269-1.829,0.269
		c-1.119,0-1.97-0.354-2.494-0.921c-0.624-0.68-0.95-1.701-0.95-2.877c0-2.056,1.035-3.87,3.104-3.87
		c1.857,0,2.594,1.531,2.594,3.402C157.284,49.886,157.284,50.141,157.271,50.354z M156.363,49.673c0-1.304-0.142-2.708-1.716-2.708
		c-1.375,0-2.041,1.262-2.126,2.708H156.363z"/>
	<path fill="#333333" d="M159.197,44.967c-0.326,0-0.596-0.284-0.596-0.624s0.27-0.609,0.596-0.609c0.325,0,0.609,0.269,0.609,0.609
		S159.522,44.967,159.197,44.967z M159.665,53.798c-0.128,0.042-0.312,0.071-0.468,0.071c-0.156,0-0.326-0.028-0.454-0.071v-7.385
		c0.113-0.028,0.298-0.071,0.439-0.071c0.156,0,0.369,0.028,0.482,0.071V53.798z"/>
	<path fill="#333333" d="M166.525,48.213l-2.226,5.585c-0.128,0.042-0.27,0.071-0.383,0.071c-0.155,0-0.283-0.028-0.396-0.071
		l-2.297-5.585c-0.255-0.638-0.368-1.276-0.368-1.8c0.113-0.028,0.312-0.071,0.439-0.071c0.17,0,0.34,0.028,0.481,0.071
		c0.015,0.482,0.071,1.035,0.284,1.545l1.843,4.678h0.028l1.786-4.678c0.198-0.496,0.298-1.049,0.298-1.545
		c0.099-0.042,0.312-0.071,0.496-0.071c0.099,0,0.283,0.014,0.411,0.057C166.908,46.909,166.809,47.519,166.525,48.213z"/>
	<path fill="#333333" d="M173.259,50.354h-4.749c0.057,1.63,0.822,2.864,2.594,2.864c0.639,0,1.233-0.085,1.758-0.213
		c0.028,0.071,0.057,0.213,0.057,0.298c0,0.142-0.028,0.269-0.07,0.369c-0.553,0.17-1.247,0.269-1.829,0.269
		c-1.119,0-1.97-0.354-2.494-0.921c-0.624-0.68-0.95-1.701-0.95-2.877c0-2.056,1.035-3.87,3.104-3.87
		c1.857,0,2.594,1.531,2.594,3.402C173.272,49.886,173.272,50.141,173.259,50.354z M172.352,49.673c0-1.304-0.142-2.708-1.716-2.708
		c-1.375,0-2.041,1.262-2.126,2.708H172.352z"/>
	<path fill="#333333" d="M179.764,53.869c-0.127,0-0.283-0.042-0.368-0.071l-0.085-0.851h-0.015
		c-0.609,0.638-1.332,0.992-2.141,0.992c-1.956,0-2.892-1.63-2.892-3.615c0-1.97,0.837-4.054,3.091-4.054
		c0.708,0,1.36,0.241,1.885,0.61V43.45c0.128-0.042,0.298-0.071,0.454-0.071c0.17,0,0.34,0.042,0.468,0.071v10.348
		C180.062,53.841,179.92,53.869,179.764,53.869z M179.239,47.66c-0.51-0.425-1.162-0.638-1.828-0.638
		c-1.645,0-2.197,1.616-2.197,3.26c0,1.262,0.396,2.906,1.984,2.906c0.766,0,1.545-0.383,2.041-0.978V47.66z"/>
	<path fill="#333333" d="M189.998,51.984c0,0.51,0,1.148,0.028,1.814c-0.1,0.042-0.256,0.071-0.383,0.071
		c-0.113,0-0.27-0.028-0.383-0.071c-0.043-0.227-0.071-0.524-0.085-0.794h-0.015c-0.481,0.596-1.332,0.936-2.169,0.936
		c-1.318,0-2.424-0.737-2.424-2.254c0-0.865,0.354-1.502,0.907-1.899c0.624-0.439,1.446-0.581,2.325-0.581
		c0.496,0,0.907,0.028,1.275,0.085v-0.411c0-1.417-0.581-1.885-1.771-1.885c-0.667,0-1.488,0.142-1.999,0.27
		c-0.028-0.071-0.057-0.227-0.057-0.369c0-0.099,0.028-0.241,0.07-0.326c0.61-0.184,1.418-0.298,2.099-0.298
		c1.687,0,2.58,0.766,2.58,2.495V51.984z M189.076,49.985c-0.411-0.057-0.836-0.085-1.205-0.085c-0.694,0-1.318,0.128-1.743,0.454
		c-0.383,0.284-0.596,0.737-0.596,1.318c0,1.035,0.666,1.531,1.588,1.531c0.766,0,1.573-0.369,1.956-0.95V49.985z"/>
</g>
<g>
	<path fill="#333333" d="M21.582,145.279c-0.709,0-1.446-0.127-1.957-0.326c-0.042-0.1-0.071-0.27-0.071-0.397
		c0-0.085,0.028-0.298,0.057-0.383c0.525,0.212,1.276,0.383,1.9,0.383c1.077,0,1.743-0.454,1.743-1.347
		c0-0.808-0.411-1.092-1.531-1.503c-1.559-0.567-2.069-1.219-2.069-2.183c0-1.304,1.077-1.914,2.466-1.914
		c0.468,0,1.077,0.085,1.432,0.199c0.042,0.127,0.057,0.255,0.057,0.34c0,0.113-0.028,0.312-0.057,0.411
		c-0.468-0.142-0.964-0.227-1.446-0.227c-1.006,0-1.616,0.383-1.616,1.163c0,0.68,0.383,1.006,1.545,1.446
		c1.063,0.397,2.041,0.794,2.041,2.226C24.077,144.613,22.985,145.279,21.582,145.279z"/>
	<path fill="#333333" d="M30.767,143.323c0,0.51,0,1.148,0.028,1.814c-0.099,0.042-0.255,0.071-0.383,0.071
		c-0.113,0-0.269-0.028-0.382-0.071c-0.042-0.227-0.071-0.524-0.085-0.794h-0.014c-0.482,0.596-1.333,0.936-2.168,0.936
		c-1.318,0-2.424-0.737-2.424-2.254c0-0.865,0.354-1.502,0.907-1.899c0.624-0.439,1.446-0.581,2.325-0.581
		c0.497,0,0.907,0.028,1.276,0.085v-0.411c0-1.417-0.581-1.885-1.772-1.885c-0.666,0-1.488,0.142-1.999,0.27
		c-0.028-0.071-0.057-0.227-0.057-0.369c0-0.099,0.028-0.241,0.071-0.326c0.609-0.184,1.417-0.298,2.098-0.298
		c1.687,0,2.58,0.766,2.58,2.495V143.323z M29.846,141.324c-0.411-0.057-0.836-0.085-1.205-0.085c-0.695,0-1.318,0.128-1.744,0.454
		c-0.383,0.284-0.596,0.737-0.596,1.318c0,1.035,0.667,1.531,1.588,1.531c0.766,0,1.573-0.369,1.956-0.95V141.324z"/>
	<path fill="#333333" d="M36.791,145.066c-0.369,0.127-0.921,0.212-1.333,0.212c-1.403,0-2.07-0.666-2.07-2.24v-4.564h-1.276
		c-0.028-0.071-0.042-0.241-0.042-0.326c0-0.071,0.014-0.241,0.042-0.312l1.276-0.085v-1.928c0.114-0.042,0.298-0.071,0.454-0.071
		c0.156,0,0.354,0.028,0.468,0.071v1.928h2.084c0.028,0.071,0.057,0.283,0.057,0.354c0,0.099-0.028,0.269-0.057,0.368H34.31v4.479
		c0,1.12,0.326,1.588,1.205,1.588c0.482,0,0.95-0.071,1.276-0.17c0.028,0.071,0.057,0.241,0.057,0.34
		C36.848,144.839,36.833,144.939,36.791,145.066z"/>
	<path fill="#333333" d="M38.803,136.306c-0.326,0-0.595-0.284-0.595-0.624s0.27-0.609,0.595-0.609c0.326,0,0.61,0.269,0.61,0.609
		S39.129,136.306,38.803,136.306z M39.271,145.137c-0.127,0.042-0.312,0.071-0.468,0.071c-0.156,0-0.326-0.028-0.454-0.071v-7.385
		c0.113-0.028,0.298-0.071,0.439-0.071c0.156,0,0.369,0.028,0.482,0.071V145.137z"/>
	<path fill="#333333" d="M43.027,145.279c-0.709,0-1.446-0.127-1.957-0.326c-0.042-0.1-0.071-0.27-0.071-0.397
		c0-0.085,0.028-0.298,0.057-0.383c0.525,0.212,1.276,0.383,1.9,0.383c1.077,0,1.743-0.454,1.743-1.347
		c0-0.808-0.411-1.092-1.531-1.503c-1.559-0.567-2.069-1.219-2.069-2.183c0-1.304,1.077-1.914,2.466-1.914
		c0.468,0,1.077,0.085,1.432,0.199c0.042,0.127,0.057,0.255,0.057,0.34c0,0.113-0.028,0.312-0.057,0.411
		c-0.468-0.142-0.964-0.227-1.446-0.227c-1.006,0-1.616,0.383-1.616,1.163c0,0.68,0.383,1.006,1.545,1.446
		c1.063,0.397,2.041,0.794,2.041,2.226C45.522,144.613,44.431,145.279,43.027,145.279z"/>
	<path fill="#333333" d="M51.347,135.399c-0.212-0.057-0.595-0.114-0.893-0.114c-0.539,0-0.936,0.142-1.205,0.439
		c-0.411,0.439-0.482,1.035-0.482,1.786v0.241h1.999c0.028,0.071,0.057,0.241,0.057,0.34c0,0.114-0.028,0.284-0.057,0.383h-1.999
		v6.663c-0.128,0.042-0.27,0.071-0.454,0.071c-0.185,0-0.34-0.028-0.468-0.071v-6.663H46.57c-0.028-0.071-0.042-0.255-0.042-0.34
		c0-0.071,0.014-0.227,0.042-0.298l1.276-0.085v-0.241c0-1.006,0.17-1.701,0.751-2.282c0.411-0.411,1.021-0.609,1.715-0.609
		c0.369,0,0.78,0.085,1.035,0.184c0.028,0.071,0.042,0.17,0.042,0.27C51.39,135.158,51.375,135.328,51.347,135.399z"/>
	<path fill="#333333" d="M57.102,143.323c0,0.51,0,1.148,0.028,1.814c-0.099,0.042-0.255,0.071-0.383,0.071
		c-0.113,0-0.269-0.028-0.382-0.071c-0.042-0.227-0.071-0.524-0.085-0.794h-0.014c-0.482,0.596-1.333,0.936-2.168,0.936
		c-1.318,0-2.424-0.737-2.424-2.254c0-0.865,0.354-1.502,0.907-1.899c0.624-0.439,1.446-0.581,2.325-0.581
		c0.497,0,0.907,0.028,1.276,0.085v-0.411c0-1.417-0.581-1.885-1.772-1.885c-0.666,0-1.488,0.142-1.999,0.27
		c-0.028-0.071-0.057-0.227-0.057-0.369c0-0.099,0.028-0.241,0.071-0.326c0.609-0.184,1.417-0.298,2.098-0.298
		c1.687,0,2.58,0.766,2.58,2.495V143.323z M56.181,141.324c-0.411-0.057-0.836-0.085-1.205-0.085c-0.695,0-1.318,0.128-1.744,0.454
		c-0.383,0.284-0.596,0.737-0.596,1.318c0,1.035,0.667,1.531,1.588,1.531c0.766,0,1.573-0.369,1.956-0.95V141.324z"/>
	<path fill="#333333" d="M63.849,138.645c-0.454-0.185-1.049-0.298-1.573-0.298c-1.843,0-2.523,1.432-2.523,3.161
		c0,1.701,0.652,3.02,2.509,3.02c0.496,0,1.091-0.085,1.531-0.213c0.028,0.085,0.057,0.185,0.057,0.298
		c0,0.17-0.028,0.297-0.071,0.397c-0.411,0.17-1.077,0.269-1.602,0.269c-2.311,0-3.388-1.517-3.388-3.742
		c0-2.311,1.177-3.927,3.431-3.927c0.539,0,1.176,0.128,1.616,0.326c0.042,0.113,0.057,0.227,0.057,0.354
		C63.891,138.432,63.877,138.545,63.849,138.645z"/>
	<path fill="#333333" d="M69.504,145.066c-0.369,0.127-0.921,0.212-1.333,0.212c-1.403,0-2.07-0.666-2.07-2.24v-4.564h-1.276
		c-0.028-0.071-0.042-0.241-0.042-0.326c0-0.071,0.014-0.241,0.042-0.312l1.276-0.085v-1.928c0.114-0.042,0.298-0.071,0.454-0.071
		c0.156,0,0.354,0.028,0.468,0.071v1.928h2.084c0.028,0.071,0.057,0.283,0.057,0.354c0,0.099-0.028,0.269-0.057,0.368h-2.084v4.479
		c0,1.12,0.326,1.588,1.205,1.588c0.482,0,0.95-0.071,1.276-0.17c0.028,0.071,0.057,0.241,0.057,0.34
		C69.561,144.839,69.547,144.939,69.504,145.066z"/>
	<path fill="#333333" d="M71.531,136.306c-0.326,0-0.595-0.284-0.595-0.624s0.27-0.609,0.595-0.609c0.326,0,0.61,0.269,0.61,0.609
		S71.857,136.306,71.531,136.306z M71.999,145.137c-0.127,0.042-0.312,0.071-0.468,0.071c-0.156,0-0.326-0.028-0.454-0.071v-7.385
		c0.113-0.028,0.298-0.071,0.439-0.071c0.156,0,0.369,0.028,0.482,0.071V145.137z"/>
	<path fill="#333333" d="M76.761,145.279c-1.857,0-3.048-1.276-3.048-3.827c0-2.552,1.205-3.842,3.062-3.842
		s3.034,1.262,3.034,3.813C79.809,143.975,78.618,145.279,76.761,145.279z M76.775,138.305c-1.361,0-2.098,1.049-2.098,3.133
		c0,2.083,0.723,3.147,2.084,3.147s2.084-1.063,2.084-3.147C78.845,139.354,78.136,138.305,76.775,138.305z"/>
	<path fill="#333333" d="M87.137,145.151c-0.114,0.028-0.284,0.057-0.454,0.057c-0.142,0-0.326-0.028-0.468-0.071v-4.494
		c0-0.68-0.085-1.205-0.284-1.573c-0.241-0.454-0.695-0.681-1.432-0.681c-0.709,0-1.56,0.397-2.112,0.822v5.925
		c-0.156,0.042-0.312,0.071-0.482,0.071c-0.142,0-0.312-0.028-0.439-0.071v-7.385c0.099-0.042,0.27-0.057,0.369-0.057
		c0.142,0,0.312,0.014,0.397,0.057l0.071,0.737h0.014c0.78-0.638,1.673-0.879,2.396-0.879c0.723,0,1.475,0.241,1.885,0.737
		c0.454,0.539,0.539,1.318,0.539,2.084V145.151z"/>
	<path fill="#333333" d="M95.726,138.432c-0.822,0.113-1.715,0.411-2.381,0.921v5.784c-0.142,0.042-0.312,0.071-0.468,0.071
		s-0.312-0.028-0.454-0.071v-7.385c0.085-0.028,0.213-0.057,0.354-0.057c0.113,0,0.269,0.028,0.383,0.057l0.071,0.907h0.014
		c0.609-0.524,1.673-0.964,2.48-1.049c0.028,0.085,0.057,0.241,0.057,0.369C95.783,138.121,95.754,138.305,95.726,138.432z"/>
	<path fill="#333333" d="M101.892,143.323c0,0.51,0,1.148,0.028,1.814c-0.099,0.042-0.255,0.071-0.383,0.071
		c-0.113,0-0.269-0.028-0.382-0.071c-0.042-0.227-0.071-0.524-0.085-0.794h-0.014c-0.482,0.596-1.333,0.936-2.168,0.936
		c-1.318,0-2.424-0.737-2.424-2.254c0-0.865,0.354-1.502,0.907-1.899c0.624-0.439,1.446-0.581,2.325-0.581
		c0.497,0,0.907,0.028,1.276,0.085v-0.411c0-1.417-0.581-1.885-1.772-1.885c-0.666,0-1.488,0.142-1.999,0.27
		c-0.028-0.071-0.057-0.227-0.057-0.369c0-0.099,0.028-0.241,0.071-0.326c0.609-0.184,1.417-0.298,2.098-0.298
		c1.687,0,2.58,0.766,2.58,2.495V143.323z M100.971,141.324c-0.411-0.057-0.836-0.085-1.205-0.085c-0.695,0-1.318,0.128-1.744,0.454
		c-0.383,0.284-0.596,0.737-0.596,1.318c0,1.035,0.667,1.531,1.588,1.531c0.766,0,1.573-0.369,1.956-0.95V141.324z"/>
	<path fill="#333333" d="M107.916,145.066c-0.369,0.127-0.921,0.212-1.333,0.212c-1.403,0-2.07-0.666-2.07-2.24v-4.564h-1.276
		c-0.028-0.071-0.042-0.241-0.042-0.326c0-0.071,0.014-0.241,0.042-0.312l1.276-0.085v-1.928c0.114-0.042,0.298-0.071,0.454-0.071
		c0.156,0,0.354,0.028,0.468,0.071v1.928h2.084c0.028,0.071,0.057,0.283,0.057,0.354c0,0.099-0.028,0.269-0.057,0.368h-2.084v4.479
		c0,1.12,0.326,1.588,1.205,1.588c0.482,0,0.95-0.071,1.276-0.17c0.028,0.071,0.057,0.241,0.057,0.34
		C107.973,144.839,107.958,144.939,107.916,145.066z"/>
	<path fill="#333333" d="M109.928,136.306c-0.326,0-0.595-0.284-0.595-0.624s0.27-0.609,0.595-0.609c0.326,0,0.61,0.269,0.61,0.609
		S110.254,136.306,109.928,136.306z M110.396,145.137c-0.127,0.042-0.312,0.071-0.468,0.071c-0.156,0-0.326-0.028-0.454-0.071
		v-7.385c0.113-0.028,0.298-0.071,0.439-0.071c0.156,0,0.369,0.028,0.482,0.071V145.137z"/>
	<path fill="#333333" d="M118.192,145.151c-0.114,0.028-0.284,0.057-0.454,0.057c-0.142,0-0.326-0.028-0.468-0.071v-4.494
		c0-0.68-0.085-1.205-0.284-1.573c-0.241-0.454-0.695-0.681-1.432-0.681c-0.709,0-1.56,0.397-2.112,0.822v5.925
		c-0.156,0.042-0.312,0.071-0.482,0.071c-0.142,0-0.312-0.028-0.439-0.071v-7.385c0.099-0.042,0.27-0.057,0.369-0.057
		c0.142,0,0.312,0.014,0.397,0.057l0.071,0.737h0.014c0.78-0.638,1.673-0.879,2.396-0.879c0.723,0,1.475,0.241,1.885,0.737
		c0.454,0.539,0.539,1.318,0.539,2.084V145.151z"/>
	<path fill="#333333" d="M125.562,143.904c0,1.063-0.057,2.339-0.567,3.218c-0.61,1.049-1.701,1.503-2.792,1.503
		c-0.624,0-1.163-0.071-1.616-0.227c-0.042-0.085-0.057-0.227-0.057-0.34c0-0.085,0.028-0.255,0.057-0.34
		c0.439,0.113,0.95,0.198,1.46,0.198c1.786,0,2.594-1.105,2.594-3.048v-0.595c-0.553,0.581-1.333,0.865-1.97,0.865
		c-1.886,0-2.864-1.46-2.864-3.516c0-2.523,1.489-4.012,3.686-4.012c0.582,0,1.46,0.17,2.07,0.411V143.904z M124.641,138.475
		c-0.51-0.142-0.879-0.184-1.233-0.184c-1.8,0-2.651,1.517-2.651,3.289c0,1.574,0.596,2.807,1.985,2.807
		c0.708,0,1.432-0.354,1.899-0.851V138.475z"/>
	<path fill="#333333" d="M135.938,143.323c0,0.51,0,1.148,0.028,1.814c-0.099,0.042-0.255,0.071-0.383,0.071
		c-0.113,0-0.269-0.028-0.382-0.071c-0.042-0.227-0.071-0.524-0.085-0.794h-0.014c-0.482,0.596-1.333,0.936-2.168,0.936
		c-1.318,0-2.424-0.737-2.424-2.254c0-0.865,0.354-1.502,0.907-1.899c0.624-0.439,1.446-0.581,2.325-0.581
		c0.496,0,0.907,0.028,1.276,0.085v-0.411c0-1.417-0.581-1.885-1.772-1.885c-0.666,0-1.488,0.142-1.999,0.27
		c-0.028-0.071-0.057-0.227-0.057-0.369c0-0.099,0.028-0.241,0.071-0.326c0.609-0.184,1.417-0.298,2.098-0.298
		c1.687,0,2.58,0.766,2.58,2.495V143.323z M135.016,141.324c-0.411-0.057-0.836-0.085-1.205-0.085c-0.695,0-1.318,0.128-1.744,0.454
		c-0.383,0.284-0.596,0.737-0.596,1.318c0,1.035,0.667,1.531,1.588,1.531c0.766,0,1.573-0.369,1.956-0.95V141.324z"/>
	<path fill="#333333" d="M142.684,138.645c-0.454-0.185-1.049-0.298-1.573-0.298c-1.843,0-2.523,1.432-2.523,3.161
		c0,1.701,0.652,3.02,2.509,3.02c0.496,0,1.091-0.085,1.531-0.213c0.028,0.085,0.057,0.185,0.057,0.298
		c0,0.17-0.028,0.297-0.071,0.397c-0.411,0.17-1.077,0.269-1.602,0.269c-2.311,0-3.388-1.517-3.388-3.742
		c0-2.311,1.177-3.927,3.431-3.927c0.539,0,1.176,0.128,1.616,0.326c0.042,0.113,0.057,0.227,0.057,0.354
		C142.727,138.432,142.712,138.545,142.684,138.645z"/>
	<path fill="#333333" d="M147.645,138.432c-0.822,0.113-1.715,0.411-2.381,0.921v5.784c-0.142,0.042-0.312,0.071-0.468,0.071
		s-0.312-0.028-0.454-0.071v-7.385c0.085-0.028,0.213-0.057,0.354-0.057c0.113,0,0.269,0.028,0.383,0.057l0.071,0.907h0.014
		c0.609-0.524,1.673-0.964,2.48-1.049c0.028,0.085,0.057,0.241,0.057,0.369C147.702,138.121,147.673,138.305,147.645,138.432z"/>
	<path fill="#333333" d="M151.486,145.279c-1.857,0-3.048-1.276-3.048-3.827c0-2.552,1.205-3.842,3.062-3.842
		c1.857,0,3.034,1.262,3.034,3.813C154.534,143.975,153.344,145.279,151.486,145.279z M151.5,138.305
		c-1.36,0-2.098,1.049-2.098,3.133c0,2.083,0.723,3.147,2.084,3.147c1.36,0,2.084-1.063,2.084-3.147
		C153.57,139.354,152.861,138.305,151.5,138.305z"/>
	<path fill="#333333" d="M157.837,145.279c-0.709,0-1.446-0.127-1.956-0.326c-0.043-0.1-0.071-0.27-0.071-0.397
		c0-0.085,0.028-0.298,0.057-0.383c0.524,0.212,1.276,0.383,1.899,0.383c1.077,0,1.744-0.454,1.744-1.347
		c0-0.808-0.411-1.092-1.531-1.503c-1.56-0.567-2.069-1.219-2.069-2.183c0-1.304,1.077-1.914,2.466-1.914
		c0.468,0,1.078,0.085,1.433,0.199c0.042,0.127,0.057,0.255,0.057,0.34c0,0.113-0.028,0.312-0.057,0.411
		c-0.468-0.142-0.965-0.227-1.446-0.227c-1.007,0-1.616,0.383-1.616,1.163c0,0.68,0.383,1.006,1.545,1.446
		c1.063,0.397,2.042,0.794,2.042,2.226C160.332,144.613,159.24,145.279,157.837,145.279z"/>
	<path fill="#333333" d="M163.605,145.279c-0.709,0-1.446-0.127-1.956-0.326c-0.043-0.1-0.071-0.27-0.071-0.397
		c0-0.085,0.028-0.298,0.057-0.383c0.524,0.212,1.276,0.383,1.899,0.383c1.077,0,1.744-0.454,1.744-1.347
		c0-0.808-0.411-1.092-1.531-1.503c-1.56-0.567-2.069-1.219-2.069-2.183c0-1.304,1.077-1.914,2.466-1.914
		c0.468,0,1.078,0.085,1.433,0.199c0.042,0.127,0.057,0.255,0.057,0.34c0,0.113-0.028,0.312-0.057,0.411
		c-0.468-0.142-0.965-0.227-1.446-0.227c-1.007,0-1.616,0.383-1.616,1.163c0,0.68,0.383,1.006,1.545,1.446
		c1.063,0.397,2.042,0.794,2.042,2.226C166.101,144.613,165.009,145.279,163.605,145.279z"/>
</g>
<g>
	<path fill="#333333" d="M24.984,177.809c0,0.511,0,1.148,0.028,1.814c-0.099,0.043-0.255,0.071-0.383,0.071
		c-0.113,0-0.269-0.028-0.382-0.071c-0.042-0.227-0.071-0.524-0.085-0.794h-0.014c-0.482,0.596-1.333,0.936-2.168,0.936
		c-1.318,0-2.424-0.737-2.424-2.254c0-0.864,0.354-1.502,0.907-1.899c0.624-0.439,1.446-0.581,2.325-0.581
		c0.497,0,0.907,0.028,1.276,0.085v-0.411c0-1.417-0.581-1.886-1.772-1.886c-0.666,0-1.488,0.143-1.999,0.27
		c-0.028-0.07-0.057-0.227-0.057-0.368c0-0.1,0.028-0.241,0.071-0.326c0.609-0.185,1.417-0.298,2.098-0.298
		c1.687,0,2.58,0.766,2.58,2.495V177.809z M24.062,175.81c-0.411-0.057-0.836-0.085-1.205-0.085c-0.695,0-1.318,0.128-1.744,0.454
		c-0.383,0.283-0.596,0.737-0.596,1.318c0,1.034,0.667,1.53,1.588,1.53c0.766,0,1.573-0.368,1.956-0.949V175.81z"/>
	<path fill="#333333" d="M32.751,179.638c-0.114,0.028-0.284,0.057-0.454,0.057c-0.142,0-0.326-0.028-0.468-0.071v-4.493
		c0-0.681-0.085-1.205-0.284-1.574c-0.241-0.453-0.695-0.68-1.432-0.68c-0.709,0-1.56,0.396-2.112,0.821v5.926
		c-0.156,0.043-0.312,0.071-0.482,0.071c-0.142,0-0.312-0.028-0.439-0.071v-7.386c0.099-0.042,0.27-0.057,0.369-0.057
		c0.142,0,0.312,0.015,0.397,0.057l0.071,0.737h0.014c0.78-0.638,1.673-0.879,2.396-0.879c0.723,0,1.475,0.241,1.885,0.737
		c0.454,0.539,0.539,1.318,0.539,2.084V179.638z"/>
	<path fill="#333333" d="M39.867,179.694c-0.127,0-0.283-0.043-0.368-0.071l-0.085-0.851h-0.014
		c-0.609,0.638-1.333,0.992-2.14,0.992c-1.957,0-2.892-1.63-2.892-3.614c0-1.971,0.836-4.055,3.09-4.055
		c0.709,0,1.361,0.241,1.885,0.609v-3.43c0.127-0.043,0.298-0.071,0.454-0.071c0.17,0,0.34,0.043,0.468,0.071v10.348
		C40.165,179.666,40.023,179.694,39.867,179.694z M39.342,173.485c-0.51-0.426-1.162-0.638-1.829-0.638
		c-1.644,0-2.197,1.615-2.197,3.26c0,1.262,0.397,2.906,1.985,2.906c0.765,0,1.545-0.383,2.041-0.979V173.485z"/>
	<path fill="#333333" d="M54.168,173.697l-1.899,5.926c-0.113,0.043-0.326,0.071-0.439,0.071c-0.127,0-0.34-0.028-0.439-0.071
		l-1.701-5.727h-0.028l-1.786,5.727c-0.127,0.043-0.326,0.071-0.439,0.071s-0.297-0.028-0.425-0.071l-1.758-5.84
		c-0.156-0.482-0.227-1.035-0.241-1.56c0.113-0.028,0.34-0.057,0.482-0.057c0.156,0,0.298,0.028,0.425,0.07
		c0.014,0.511,0.099,1.05,0.227,1.518l1.29,4.606h0.014l1.843-6.138c0.1-0.028,0.298-0.043,0.397-0.043s0.312,0.015,0.397,0.043
		l1.744,6.138h0.014l1.417-4.593c0.156-0.524,0.27-1.021,0.298-1.531c0.099-0.042,0.34-0.07,0.468-0.07
		c0.127,0,0.326,0.028,0.411,0.07C54.438,172.72,54.324,173.201,54.168,173.697z"/>
	<path fill="#333333" d="M61.128,176.179h-4.749c0.057,1.63,0.822,2.863,2.594,2.863c0.638,0,1.233-0.085,1.758-0.213
		c0.028,0.071,0.057,0.213,0.057,0.298c0,0.142-0.028,0.27-0.071,0.368c-0.553,0.171-1.248,0.27-1.829,0.27
		c-1.12,0-1.971-0.354-2.495-0.921c-0.624-0.681-0.95-1.701-0.95-2.878c0-2.056,1.035-3.87,3.104-3.87
		c1.857,0,2.594,1.531,2.594,3.402C61.142,175.711,61.142,175.966,61.128,176.179z M60.221,175.498c0-1.304-0.142-2.708-1.715-2.708
		c-1.375,0-2.042,1.262-2.126,2.708H60.221z"/>
	<path fill="#333333" d="M68.356,179.765c-0.652,0-1.488-0.099-2.268-0.383v-10.106c0.099-0.028,0.312-0.071,0.439-0.071
		c0.227,0,0.397,0.043,0.482,0.071v3.586c0.581-0.481,1.318-0.766,2.098-0.766c1.999,0,2.835,1.716,2.835,3.629
		C71.942,178.163,70.695,179.765,68.356,179.765z M68.979,172.89c-0.708,0-1.417,0.298-1.97,0.851v5.089
		c0.383,0.142,0.865,0.227,1.276,0.227c1.97,0,2.693-1.502,2.693-3.274C70.979,174.406,70.582,172.89,68.979,172.89z"/>
	<path fill="#333333" d="M76.251,179.765c-1.857,0-3.048-1.275-3.048-3.827s1.205-3.842,3.062-3.842s3.034,1.262,3.034,3.813
		S78.108,179.765,76.251,179.765z M76.265,172.79c-1.361,0-2.098,1.05-2.098,3.133c0,2.084,0.723,3.147,2.084,3.147
		s2.084-1.063,2.084-3.147C78.335,173.84,77.626,172.79,76.265,172.79z"/>
	<path fill="#333333" d="M86.003,177.809c0,0.511,0,1.148,0.028,1.814c-0.099,0.043-0.255,0.071-0.383,0.071
		c-0.113,0-0.269-0.028-0.382-0.071c-0.042-0.227-0.071-0.524-0.085-0.794h-0.014c-0.482,0.596-1.333,0.936-2.168,0.936
		c-1.318,0-2.424-0.737-2.424-2.254c0-0.864,0.354-1.502,0.907-1.899c0.624-0.439,1.446-0.581,2.325-0.581
		c0.496,0,0.907,0.028,1.276,0.085v-0.411c0-1.417-0.581-1.886-1.772-1.886c-0.666,0-1.488,0.143-1.999,0.27
		c-0.028-0.07-0.057-0.227-0.057-0.368c0-0.1,0.028-0.241,0.071-0.326c0.609-0.185,1.417-0.298,2.098-0.298
		c1.687,0,2.58,0.766,2.58,2.495V177.809z M85.082,175.81c-0.411-0.057-0.836-0.085-1.205-0.085c-0.695,0-1.318,0.128-1.744,0.454
		c-0.383,0.283-0.596,0.737-0.596,1.318c0,1.034,0.667,1.53,1.588,1.53c0.766,0,1.573-0.368,1.956-0.949V175.81z"/>
	<path fill="#333333" d="M89.745,179.765c-0.709,0-1.446-0.127-1.957-0.326c-0.042-0.099-0.071-0.269-0.071-0.396
		c0-0.085,0.028-0.298,0.057-0.383c0.525,0.213,1.276,0.383,1.9,0.383c1.077,0,1.743-0.454,1.743-1.347
		c0-0.809-0.411-1.092-1.531-1.503c-1.559-0.566-2.07-1.219-2.07-2.183c0-1.305,1.078-1.914,2.467-1.914
		c0.468,0,1.077,0.085,1.432,0.198c0.042,0.128,0.057,0.256,0.057,0.341c0,0.113-0.028,0.312-0.057,0.411
		c-0.468-0.142-0.964-0.228-1.446-0.228c-1.006,0-1.616,0.383-1.616,1.163c0,0.681,0.383,1.006,1.545,1.445
		c1.063,0.397,2.041,0.794,2.041,2.226C92.239,179.099,91.148,179.765,89.745,179.765z"/>
	<path fill="#333333" d="M97.682,179.552c-0.369,0.128-0.921,0.213-1.333,0.213c-1.403,0-2.07-0.666-2.07-2.239v-4.564h-1.276
		c-0.028-0.071-0.042-0.241-0.042-0.326c0-0.071,0.014-0.241,0.042-0.312l1.276-0.085v-1.928c0.114-0.042,0.298-0.07,0.454-0.07
		c0.156,0,0.354,0.028,0.468,0.07v1.928h2.084c0.028,0.071,0.057,0.284,0.057,0.354c0,0.1-0.028,0.27-0.057,0.369h-2.084v4.479
		c0,1.119,0.326,1.587,1.205,1.587c0.482,0,0.95-0.07,1.276-0.17c0.028,0.071,0.057,0.241,0.057,0.341
		C97.739,179.325,97.725,179.425,97.682,179.552z"/>
	<path fill="#333333" d="M106.371,179.552c-0.369,0.128-0.921,0.213-1.333,0.213c-1.403,0-2.07-0.666-2.07-2.239v-4.564h-1.276
		c-0.028-0.071-0.042-0.241-0.042-0.326c0-0.071,0.014-0.241,0.042-0.312l1.276-0.085v-1.928c0.114-0.042,0.298-0.07,0.454-0.07
		c0.156,0,0.354,0.028,0.468,0.07v1.928h2.084c0.028,0.071,0.057,0.284,0.057,0.354c0,0.1-0.028,0.27-0.057,0.369h-2.084v4.479
		c0,1.119,0.326,1.587,1.205,1.587c0.482,0,0.95-0.07,1.276-0.17c0.028,0.071,0.057,0.241,0.057,0.341
		C106.427,179.325,106.413,179.425,106.371,179.552z"/>
	<path fill="#333333" d="M113.557,179.623c-0.128,0.043-0.284,0.071-0.425,0.071c-0.17,0-0.354-0.028-0.496-0.071v-4.479
		c0-1.56-0.397-2.268-1.715-2.268c-0.709,0-1.56,0.396-2.112,0.821v5.926c-0.156,0.043-0.326,0.071-0.482,0.071
		c-0.142,0-0.312-0.028-0.439-0.071v-10.348c0.127-0.043,0.326-0.071,0.454-0.071s0.34,0.028,0.468,0.071v3.643
		c0.751-0.581,1.645-0.822,2.339-0.822c0.723,0,1.46,0.241,1.871,0.737c0.454,0.539,0.539,1.318,0.539,2.084V179.623z"/>
	<path fill="#333333" d="M120.857,176.179h-4.749c0.057,1.63,0.822,2.863,2.594,2.863c0.638,0,1.233-0.085,1.758-0.213
		c0.028,0.071,0.057,0.213,0.057,0.298c0,0.142-0.028,0.27-0.071,0.368c-0.553,0.171-1.248,0.27-1.829,0.27
		c-1.12,0-1.971-0.354-2.495-0.921c-0.624-0.681-0.95-1.701-0.95-2.878c0-2.056,1.035-3.87,3.104-3.87
		c1.857,0,2.594,1.531,2.594,3.402C120.871,175.711,120.871,175.966,120.857,176.179z M119.95,175.498
		c0-1.304-0.142-2.708-1.715-2.708c-1.375,0-2.042,1.262-2.126,2.708H119.95z"/>
</g>
<g>
	<path fill="#66A827" d="M36.027,125.84c-1.348,0.27-3.773,0.449-6.379,0.449c-2.516,0-4.762-0.18-6.379-0.449V79.391l-12.758,8.445
		c-3.055-2.785-5.211-6.559-6.02-9.793l21.113-12.938c1.258-0.27,3.863-0.449,5.211-0.449c1.527,0,4.312,0.27,5.211,0.449V125.84z"
		/>
	<path fill="#66A827" d="M63.067,126.739c-14.375,0-21.383-10.602-21.383-31.266c0-20.844,7.277-31.266,21.652-31.266
		c14.285,0,21.293,10.422,21.293,31.266C84.629,116.137,77.352,126.739,63.067,126.739z M63.157,74.719
		c-5.75,0-8.266,5.301-8.266,20.754c0,15.184,2.516,20.754,8.266,20.754s8.266-5.57,8.266-20.754
		C71.422,80.02,68.907,74.719,63.157,74.719z"/>
	<path fill="#66A827" d="M110.59,126.739c-14.375,0-21.383-10.602-21.383-31.266c0-20.844,7.277-31.266,21.652-31.266
		c14.285,0,21.293,10.422,21.293,31.266C132.152,116.137,124.875,126.739,110.59,126.739z M110.68,74.719
		c-5.75,0-8.266,5.301-8.266,20.754c0,15.184,2.516,20.754,8.266,20.754s8.266-5.57,8.266-20.754
		C118.945,80.02,116.43,74.719,110.68,74.719z"/>
	<path fill="#66A827" d="M134.485,78.133c0-7.727,3.504-14.375,13.477-14.375c10.062,0,13.476,6.648,13.476,14.375
		c0,7.547-3.414,14.555-13.476,14.555C137.989,92.688,134.485,85.68,134.485,78.133z M153.621,126.829
		c-3.863-1.078-7.816-3.684-9.792-6.469l36.835-57.77c3.684,0.988,7.637,3.234,9.883,6.02L153.621,126.829z M151.016,78.313
		c0-3.863-0.808-6.289-3.054-6.289s-3.055,2.426-3.055,6.289s0.898,6.109,3.055,6.109S151.016,82.176,151.016,78.313z
		 M171.859,112.633c0-7.727,3.504-14.375,13.477-14.375c10.062,0,13.477,6.648,13.477,14.375c0,7.547-3.414,14.555-13.477,14.555
		C175.363,127.188,171.859,120.18,171.859,112.633z M188.391,112.813c0-3.863-0.809-6.289-3.055-6.289s-3.055,2.426-3.055,6.289
		s0.898,6.109,3.055,6.109S188.391,116.676,188.391,112.813z"/>
</g>
<g>
	<path fill="#66A827" d="M22.695,165.675c-1.292,0-2.841-0.179-3.795-0.655c-0.06-0.198-0.099-0.636-0.099-0.894
		c0-0.418,0.06-0.935,0.159-1.352c1.073,0.417,2.325,0.636,3.318,0.636c1.629,0,2.543-0.755,2.543-2.006
		c0-1.352-0.814-1.888-2.324-1.888h-1.093c-0.06-0.219-0.119-0.655-0.119-1.133c0-0.397,0.08-0.874,0.139-1.053h1.033
		c1.371,0,2.007-0.735,2.007-1.769c0-0.973-0.715-1.45-1.848-1.45c-1.013,0-2.205,0.259-3.199,0.676
		c-0.099-0.338-0.179-0.894-0.179-1.331c0-0.298,0.04-0.755,0.099-0.934c0.854-0.378,2.424-0.676,3.755-0.676
		c2.325,0,4.271,1.152,4.271,3.517c0,1.312-0.596,2.404-1.729,2.921v0.039c1.312,0.497,2.106,1.688,2.106,3.06
		C27.741,164.225,25.437,165.675,22.695,165.675z"/>
	<path fill="#66A827" d="M40.552,156.238c0,0.438-0.06,0.914-0.199,1.331c-0.656-0.258-1.51-0.417-2.324-0.417
		c-1.55,0-2.603,0.993-2.603,3.219c0,1.946,0.894,3.079,2.622,3.079c0.894,0,1.749-0.159,2.384-0.378
		c0.119,0.438,0.179,0.974,0.179,1.391c0,0.278,0,0.478-0.02,0.656c-0.794,0.357-1.848,0.556-2.841,0.556
		c-3.437,0-5.146-2.006-5.146-5.265c0-3.377,1.788-5.483,5.265-5.483c0.974,0,1.927,0.199,2.603,0.517
		C40.532,155.662,40.552,155.94,40.552,156.238z"/>
	<path fill="#66A827" d="M45.874,165.675c-3,0-4.907-1.927-4.907-5.344c0-3.397,1.887-5.404,4.907-5.404
		c3.02,0,4.907,1.987,4.907,5.385C50.781,163.708,48.894,165.675,45.874,165.675z M45.874,157.073c-1.292,0-2.086,0.874-2.086,3.238
		s0.794,3.218,2.086,3.218c1.291,0,2.086-0.854,2.086-3.218C47.96,157.927,47.165,157.073,45.874,157.073z"/>
	<path fill="#66A827" d="M61.069,165.477c-0.317,0.079-0.993,0.1-1.311,0.1c-0.338,0-1.112-0.04-1.43-0.1v-6.795
		c0-1.072-0.557-1.529-1.451-1.529c-0.715,0-1.53,0.258-2.166,0.655v7.669c-0.457,0.079-1.092,0.1-1.45,0.1
		c-0.318,0-0.894-0.021-1.291-0.1v-10.351c0.258-0.06,0.894-0.1,1.192-0.1c0.278,0,0.854,0.04,1.152,0.1l0.139,0.914
		c0.894-0.656,2.185-1.113,3.337-1.113c2.186,0,3.278,1.352,3.278,3.616V165.477z"/>
	<path fill="#66A827" d="M65.874,165.675c-1.172,0-2.404-0.179-3.357-0.496c-0.06-0.298-0.079-0.676-0.079-1.073
		c0-0.317,0.079-0.774,0.159-1.053c0.914,0.318,2.225,0.536,3,0.536c1.073,0,1.688-0.357,1.688-1.093
		c0-0.636-0.497-0.934-1.808-1.351c-2.086-0.655-3.06-1.629-3.06-3.139c0-2.245,2.066-3.08,4.033-3.08
		c0.914,0,1.927,0.159,2.623,0.378c0.08,0.298,0.119,0.715,0.119,0.953c0,0.259-0.079,0.795-0.179,1.133
		c-0.675-0.198-1.609-0.357-2.384-0.357c-0.954,0-1.609,0.238-1.609,0.834c0,0.636,0.735,0.895,1.887,1.271
		c2.007,0.656,2.96,1.49,2.96,3.06C69.868,164.622,67.92,165.675,65.874,165.675z"/>
	<path fill="#66A827" d="M79.68,161.265h-6.278c0.04,1.291,0.934,2.245,2.662,2.245c0.934,0,1.888-0.119,2.702-0.338
		c0.119,0.536,0.199,1.133,0.199,1.669c0,0.079,0,0.179-0.02,0.397c-1.013,0.298-2.066,0.437-3.099,0.437
		c-3.775,0-5.344-2.165-5.344-5.324c0-2.761,1.55-5.424,4.907-5.424c3.179,0,4.331,2.345,4.331,4.928
		C79.739,160.212,79.739,160.748,79.68,161.265z M76.998,159.298c0-1.252-0.338-2.305-1.629-2.305c-1.231,0-1.887,0.974-1.967,2.305
		H76.998z"/>
	<path fill="#66A827" d="M88.279,156.238c0,0.438-0.06,0.914-0.199,1.331c-0.656-0.258-1.51-0.417-2.324-0.417
		c-1.55,0-2.603,0.993-2.603,3.219c0,1.946,0.894,3.079,2.622,3.079c0.894,0,1.749-0.159,2.384-0.378
		c0.119,0.438,0.179,0.974,0.179,1.391c0,0.278,0,0.478-0.02,0.656c-0.794,0.357-1.848,0.556-2.841,0.556
		c-3.437,0-5.146-2.006-5.146-5.265c0-3.377,1.788-5.483,5.265-5.483c0.974,0,1.927,0.199,2.603,0.517
		C88.259,155.662,88.279,155.94,88.279,156.238z"/>
	<path fill="#66A827" d="M98.548,161.483c0,2.96-1.391,4.191-4.49,4.191c-3.02,0-4.411-1.231-4.411-4.191v-6.357
		c0.278-0.04,0.814-0.1,1.351-0.1c0.477,0,1.073,0.04,1.391,0.1v6.338c0,1.549,0.457,2.105,1.708,2.105
		c1.271,0,1.708-0.557,1.708-2.105v-6.338c0.278-0.06,0.894-0.1,1.391-0.1c0.497,0,1.152,0.06,1.351,0.1V161.483z"/>
	<path fill="#66A827" d="M106.83,165.278c-0.596,0.238-1.312,0.396-2.464,0.396c-2.245,0-3.357-1.092-3.357-3.277v-5.226H99.3
		c-0.08-0.298-0.139-0.794-0.139-1.053c0-0.238,0.06-0.676,0.119-0.874l1.729-0.119v-2.662c0.219-0.04,0.914-0.08,1.371-0.08
		c0.497,0,1.112,0.04,1.371,0.08v2.662h2.861c0.08,0.278,0.119,0.676,0.119,0.894c0,0.238-0.02,0.875-0.099,1.152h-2.881V162
		c0,0.993,0.397,1.431,1.371,1.431c0.537,0,1.192-0.08,1.649-0.239c0.08,0.259,0.179,0.756,0.179,1.212
		C106.949,164.643,106.909,165.06,106.83,165.278z"/>
	<path fill="#66A827" d="M109.589,153.993c-0.834,0-1.51-0.675-1.51-1.51c0-0.834,0.675-1.51,1.51-1.51s1.51,0.676,1.51,1.51
		C111.099,153.318,110.424,153.993,109.589,153.993z M110.96,165.477c-0.357,0.079-1.093,0.1-1.41,0.1
		c-0.477,0-0.994-0.04-1.332-0.1v-10.351c0.438-0.06,0.974-0.1,1.332-0.1c0.477,0,0.973,0.04,1.41,0.1V165.477z"/>
	<path fill="#66A827" d="M121.11,158.166l-2.98,7.311c-0.199,0.04-0.715,0.1-1.232,0.1c-0.536,0-1.112-0.06-1.351-0.1l-2.861-7.351
		c-0.377-0.993-0.556-1.967-0.556-3c0.357-0.06,0.854-0.1,1.271-0.1c0.576,0,0.973,0.04,1.291,0.1c0,0.735,0.1,1.55,0.358,2.324
		l1.828,5.245h0.04l1.887-5.245c0.258-0.774,0.358-1.45,0.358-2.324c0.278-0.04,0.874-0.1,1.311-0.1s0.894,0.04,1.212,0.1
		C121.687,156.238,121.488,157.252,121.11,158.166z"/>
	<path fill="#66A827" d="M131.181,161.265h-6.278c0.04,1.291,0.934,2.245,2.662,2.245c0.934,0,1.888-0.119,2.702-0.338
		c0.119,0.536,0.199,1.133,0.199,1.669c0,0.079,0,0.179-0.02,0.397c-1.013,0.298-2.066,0.437-3.099,0.437
		c-3.775,0-5.344-2.165-5.344-5.324c0-2.761,1.55-5.424,4.907-5.424c3.179,0,4.331,2.345,4.331,4.928
		C131.24,160.212,131.24,160.748,131.181,161.265z M128.499,159.298c0-1.252-0.338-2.305-1.629-2.305
		c-1.231,0-1.887,0.974-1.967,2.305H128.499z"/>
	<path fill="#66A827" d="M145.024,163.648c0,1.51-0.08,3.179-0.854,4.49c-0.934,1.569-2.503,2.226-4.271,2.226
		c-0.994,0-2.126-0.14-3.04-0.418c-0.06-0.179-0.1-0.655-0.1-0.953c0-0.238,0.08-0.814,0.139-1.053
		c0.795,0.218,1.868,0.357,2.603,0.357c1.192,0,1.907-0.417,2.344-1.212c0.397-0.716,0.457-1.51,0.457-2.285
		c-0.695,0.537-1.609,0.874-2.463,0.874c-2.603,0-3.656-1.351-3.656-3.913v-6.636c0.318-0.079,0.994-0.1,1.312-0.1
		c0.337,0,1.112,0.04,1.43,0.1v6.477c0,1.271,0.457,1.828,1.589,1.828c0.715,0,1.351-0.299,1.768-0.695v-7.609
		c0.457-0.079,1.093-0.1,1.45-0.1c0.318,0,0.894,0.021,1.292,0.1V163.648z"/>
	<path fill="#66A827" d="M155.392,161.265h-6.278c0.04,1.291,0.934,2.245,2.663,2.245c0.934,0,1.887-0.119,2.702-0.338
		c0.119,0.536,0.198,1.133,0.198,1.669c0,0.079,0,0.179-0.02,0.397c-1.014,0.298-2.066,0.437-3.1,0.437
		c-3.775,0-5.344-2.165-5.344-5.324c0-2.761,1.55-5.424,4.907-5.424c3.179,0,4.331,2.345,4.331,4.928
		C155.451,160.212,155.451,160.748,155.392,161.265z M152.71,159.298c0-1.252-0.338-2.305-1.629-2.305
		c-1.232,0-1.888,0.974-1.967,2.305H152.71z"/>
	<path fill="#66A827" d="M164.886,162.596c0,0.854,0.02,1.828,0.02,2.881c-0.317,0.079-0.854,0.1-1.191,0.1
		c-0.378,0-0.874-0.04-1.192-0.1c-0.04-0.238-0.079-0.655-0.1-0.914h-0.039c-0.676,0.695-1.828,1.112-2.881,1.112
		c-1.987,0-3.417-1.231-3.417-3.277c0-3.179,2.821-3.716,5.185-3.716c0.159,0,0.537,0.021,0.854,0.04c0-0.119-0.02-0.377-0.04-0.477
		c-0.139-0.814-0.675-1.152-1.827-1.152c-0.895,0-2.146,0.179-3.1,0.417c-0.099-0.278-0.159-0.755-0.159-1.112
		c0-0.298,0.04-0.755,0.12-0.954c1.112-0.337,2.483-0.517,3.615-0.517c2.483,0,4.152,1.152,4.152,3.735V162.596z M162.145,160.629
		c-0.239-0.02-0.557-0.04-0.835-0.04c-1.788,0-2.483,0.716-2.483,1.609c0,0.775,0.517,1.312,1.411,1.312
		c0.655,0,1.391-0.318,1.907-0.774V160.629z"/>
	<path fill="#66A827" d="M172.532,157.231c-1.033,0.159-2.146,0.517-3.139,1.033v7.212c-0.278,0.06-0.874,0.1-1.352,0.1
		c-0.477,0-1.172-0.04-1.391-0.1v-10.351c0.298-0.04,0.795-0.1,1.192-0.1c0.338,0,0.874,0.04,1.152,0.1l0.159,1.271
		c0.734-0.655,2.065-1.371,3.357-1.471c0.039,0.159,0.079,0.735,0.079,1.152C172.592,156.477,172.572,156.954,172.532,157.231z"/>
	<path fill="#66A827" d="M176.443,165.675c-1.172,0-2.403-0.179-3.357-0.496c-0.06-0.298-0.079-0.676-0.079-1.073
		c0-0.317,0.079-0.774,0.159-1.053c0.913,0.318,2.225,0.536,2.999,0.536c1.073,0,1.689-0.357,1.689-1.093
		c0-0.636-0.497-0.934-1.809-1.351c-2.086-0.655-3.06-1.629-3.06-3.139c0-2.245,2.066-3.08,4.033-3.08
		c0.914,0,1.928,0.159,2.623,0.378c0.079,0.298,0.119,0.715,0.119,0.953c0,0.259-0.08,0.795-0.179,1.133
		c-0.676-0.198-1.609-0.357-2.385-0.357c-0.953,0-1.609,0.238-1.609,0.834c0,0.636,0.735,0.895,1.888,1.271
		c2.007,0.656,2.96,1.49,2.96,3.06C180.437,164.622,178.49,165.675,176.443,165.675z"/>
</g>
<g>
	<path fill="#333333" d="M188.521,166.239c-1.573-1.573-2.382-3.756-2.382-5.77c0-2.226,0.851-4.267,2.382-5.84
		c0.156,0.042,0.312,0.128,0.425,0.241c-1.317,1.687-1.899,3.643-1.899,5.57c0,1.914,0.582,3.813,1.899,5.557
		C188.833,166.112,188.678,166.197,188.521,166.239z"/>
	<path fill="#333333" d="M193.894,161.816c-0.694,0.809-1.347,1.503-1.899,2.099h4.366c0.042,0.127,0.042,0.283,0.042,0.368
		c0,0.128-0.014,0.255-0.042,0.383h-5.345c-0.085-0.241-0.113-0.396-0.113-0.553c0-0.1,0-0.142,0.015-0.227
		c0.822-0.894,1.8-1.957,2.367-2.595c1.559-1.758,2.154-2.82,2.154-3.869c0-1.191-0.681-1.786-1.786-1.786
		c-0.751,0-1.63,0.227-2.324,0.538c-0.028-0.085-0.043-0.283-0.043-0.368c0-0.128,0.028-0.256,0.071-0.369
		c0.566-0.255,1.559-0.496,2.424-0.496c1.588,0,2.679,0.879,2.679,2.396C196.459,158.613,195.779,159.634,193.894,161.816z"/>
	<path fill="#333333" d="M201.265,164.808c-1.914,0-2.978-1.417-2.978-4.933s1.177-4.934,3.034-4.934
		c1.885,0,2.977,1.418,2.977,4.934S203.121,164.808,201.265,164.808z M201.321,155.637c-1.418,0-2.014,1.445-2.014,4.238
		c0,2.792,0.554,4.238,1.971,4.238c1.418,0,1.999-1.446,1.999-4.238C203.277,157.082,202.738,155.637,201.321,155.637z"/>
	<path fill="#333333" d="M210.081,164.666c-0.113,0.043-0.326,0.071-0.482,0.071c-0.155,0-0.368-0.028-0.481-0.071v-8.619
		l-2.48,1.574c-0.143-0.128-0.312-0.383-0.369-0.624l3.034-1.928c0.099-0.028,0.255-0.057,0.368-0.057
		c0.142,0,0.298,0.028,0.411,0.07V164.666z"/>
	<path fill="#333333" d="M219.96,162.341h-1.403v2.325c-0.142,0.043-0.312,0.057-0.468,0.057c-0.155,0-0.354-0.028-0.468-0.057
		v-2.325h-4.068c-0.042-0.099-0.07-0.255-0.07-0.368c0-0.156,0.028-0.326,0.07-0.439l3.091-6.45c0.142-0.042,0.354-0.07,0.496-0.07
		c0.17,0,0.354,0.028,0.481,0.07l-3.146,6.493h3.146v-2.453c0.113-0.042,0.312-0.07,0.468-0.07c0.156,0,0.354,0.028,0.468,0.07
		v2.453h1.403c0.043,0.113,0.071,0.227,0.071,0.383C220.031,162.114,220.003,162.228,219.96,162.341z"/>
	<path fill="#333333" d="M224.298,160.598c0.028,0.071,0.07,0.255,0.07,0.368c0,0.114-0.028,0.27-0.07,0.383h-2.765
		c-0.042-0.113-0.07-0.269-0.07-0.383c0-0.113,0.042-0.297,0.07-0.368H224.298z"/>
	<path fill="#333333" d="M228.818,161.816c-0.694,0.809-1.347,1.503-1.899,2.099h4.366c0.042,0.127,0.042,0.283,0.042,0.368
		c0,0.128-0.014,0.255-0.042,0.383h-5.345c-0.085-0.241-0.113-0.396-0.113-0.553c0-0.1,0-0.142,0.015-0.227
		c0.822-0.894,1.8-1.957,2.367-2.595c1.559-1.758,2.154-2.82,2.154-3.869c0-1.191-0.681-1.786-1.786-1.786
		c-0.751,0-1.63,0.227-2.324,0.538c-0.028-0.085-0.043-0.283-0.043-0.368c0-0.128,0.028-0.256,0.071-0.369
		c0.566-0.255,1.559-0.496,2.424-0.496c1.588,0,2.679,0.879,2.679,2.396C231.384,158.613,230.703,159.634,228.818,161.816z"/>
	<path fill="#333333" d="M236.176,164.808c-1.914,0-2.978-1.417-2.978-4.933s1.177-4.934,3.034-4.934
		c1.885,0,2.977,1.418,2.977,4.934S238.032,164.808,236.176,164.808z M236.232,155.637c-1.418,0-2.014,1.445-2.014,4.238
		c0,2.792,0.554,4.238,1.971,4.238c1.418,0,1.999-1.446,1.999-4.238C238.188,157.082,237.649,155.637,236.232,155.637z"/>
	<path fill="#333333" d="M244.978,164.666c-0.113,0.043-0.326,0.071-0.482,0.071c-0.155,0-0.368-0.028-0.481-0.071v-8.619
		l-2.48,1.574c-0.143-0.128-0.312-0.383-0.369-0.624l3.034-1.928c0.099-0.028,0.255-0.057,0.368-0.057
		c0.142,0,0.298,0.028,0.411,0.07V164.666z"/>
	<path fill="#333333" d="M251.725,164.808c-2.297,0-3.005-1.828-3.005-4.323c0-2.963,1.034-5.543,4.025-5.543
		c0.34,0,0.694,0.057,0.894,0.113c0.042,0.086,0.057,0.228,0.057,0.298c0,0.085-0.028,0.27-0.071,0.341
		c-0.213-0.043-0.539-0.085-0.808-0.085c-1.914,0-2.893,1.573-3.048,4.039c0.538-0.51,1.445-0.878,2.282-0.878
		c1.545,0,2.523,1.162,2.523,2.82C254.574,163.404,253.553,164.808,251.725,164.808z M251.966,159.478
		c-0.737,0-1.645,0.383-2.226,0.992c-0.015,0.199-0.015,0.341-0.015,0.468c0,1.857,0.539,3.204,1.999,3.204
		c1.29,0,1.828-1.318,1.828-2.495C253.553,160.584,253.213,159.478,251.966,159.478z"/>
	<path fill="#333333" d="M255.819,166.863c-0.085-0.071-0.198-0.241-0.24-0.354c0.581-0.468,1.021-0.992,1.162-1.573
		c-0.298-0.156-0.539-0.454-0.539-0.822c0-0.397,0.312-0.694,0.667-0.694c0.453,0,0.779,0.411,0.779,0.907
		C257.648,165.119,256.996,166.126,255.819,166.863z"/>
	<path fill="#333333" d="M269.952,164.666c-0.071,0.028-0.255,0.057-0.383,0.057c-0.099,0-0.241-0.028-0.354-0.057l-5.415-8.037
		v8.037c-0.099,0.043-0.283,0.071-0.439,0.071c-0.142,0-0.312-0.028-0.425-0.071v-9.583c0.113-0.042,0.298-0.07,0.425-0.07
		c0.156,0,0.298,0.028,0.397,0.07l5.33,7.896v-7.896c0.142-0.042,0.297-0.07,0.439-0.07c0.127,0,0.297,0.028,0.425,0.07V164.666z"/>
	<path fill="#333333" d="M274.8,164.808c-0.851,0-1.829-0.156-2.565-0.425c-0.043-0.113-0.071-0.256-0.071-0.411
		c0-0.142,0.028-0.312,0.057-0.426c0.751,0.298,1.771,0.482,2.509,0.482c1.432,0,2.184-0.638,2.184-1.814
		c0-1.035-0.553-1.503-1.603-1.886l-0.851-0.312c-1.417-0.524-2.225-1.205-2.225-2.565c0-1.588,1.261-2.51,3.047-2.51
		c0.695,0,1.403,0.1,2.042,0.27c0.042,0.085,0.057,0.227,0.057,0.354c0,0.113-0.028,0.298-0.071,0.396
		c-0.596-0.184-1.29-0.269-1.971-0.269c-1.049,0-2.111,0.368-2.111,1.7c0,1.063,0.538,1.433,1.743,1.886l0.751,0.283
		c1.305,0.496,2.141,1.163,2.141,2.552C277.861,163.957,276.586,164.808,274.8,164.808z"/>
	<path fill="#333333" d="M282.113,164.808c-0.851,0-1.829-0.156-2.565-0.425c-0.043-0.113-0.071-0.256-0.071-0.411
		c0-0.142,0.028-0.312,0.057-0.426c0.751,0.298,1.771,0.482,2.509,0.482c1.432,0,2.184-0.638,2.184-1.814
		c0-1.035-0.553-1.503-1.603-1.886l-0.85-0.312c-1.418-0.524-2.226-1.205-2.226-2.565c0-1.588,1.261-2.51,3.047-2.51
		c0.695,0,1.403,0.1,2.042,0.27c0.042,0.085,0.057,0.227,0.057,0.354c0,0.113-0.028,0.298-0.071,0.396
		c-0.596-0.184-1.29-0.269-1.971-0.269c-1.049,0-2.111,0.368-2.111,1.7c0,1.063,0.538,1.433,1.743,1.886l0.751,0.283
		c1.305,0.496,2.141,1.163,2.141,2.552C285.175,163.957,283.899,164.808,282.113,164.808z"/>
	<path fill="#333333" d="M288.335,160.441c0-1.928-0.581-3.884-1.899-5.57c0.113-0.113,0.27-0.199,0.425-0.241
		c1.531,1.573,2.382,3.614,2.382,5.84c0,2.014-0.808,4.196-2.382,5.77c-0.155-0.042-0.312-0.127-0.425-0.241
		C287.754,164.255,288.335,162.355,288.335,160.441z"/>
</g>
<g>
	<path fill="#66A827" d="M24.463,199.49c-3.675,0-5.623-2.543-5.623-6.913c0-4.371,1.947-6.914,5.623-6.914s5.622,2.543,5.622,6.914
		C30.085,196.947,28.139,199.49,24.463,199.49z M24.463,188.106c-1.708,0-2.682,1.312-2.682,4.471c0,3.158,0.974,4.47,2.682,4.47
		s2.682-1.312,2.682-4.47C27.146,189.418,26.172,188.106,24.463,188.106z"/>
	<path fill="#66A827" d="M36.202,199.292c-0.616,0-1.45-0.1-1.947-0.238v4.907c-0.358,0.06-0.954,0.1-1.391,0.1
		c-0.536,0-0.954-0.061-1.351-0.1v-15c0.318-0.06,0.854-0.099,1.271-0.099c0.377,0,0.794,0.039,1.073,0.099l0.099,0.854
		c0.636-0.596,1.788-1.073,2.861-1.073c2.841,0,4.112,2.325,4.112,4.987C40.93,196.809,39.341,199.292,36.202,199.292z
		 M36.241,190.968c-0.735,0-1.51,0.298-1.986,0.735v5.265c0.377,0.119,1.112,0.198,1.629,0.198c1.47,0,2.225-1.212,2.225-3.218
		C38.109,191.98,37.394,190.968,36.241,190.968z"/>
	<path fill="#66A827" d="M48.675,199.094c-0.596,0.238-1.311,0.396-2.463,0.396c-2.245,0-3.357-1.092-3.357-3.277v-5.226h-1.708
		c-0.08-0.298-0.139-0.794-0.139-1.053c0-0.238,0.06-0.676,0.119-0.874l1.729-0.119v-2.662c0.219-0.04,0.914-0.08,1.371-0.08
		c0.497,0,1.113,0.04,1.371,0.08v2.662h2.861c0.08,0.278,0.119,0.676,0.119,0.894c0,0.239-0.02,0.874-0.099,1.152h-2.881v4.828
		c0,0.993,0.397,1.431,1.371,1.431c0.537,0,1.192-0.08,1.649-0.239c0.08,0.259,0.179,0.756,0.179,1.212
		C48.794,198.458,48.754,198.875,48.675,199.094z"/>
	<path fill="#66A827" d="M54.156,199.49c-3,0-4.907-1.927-4.907-5.344c0-3.397,1.887-5.404,4.907-5.404
		c3.02,0,4.907,1.987,4.907,5.385C59.063,197.523,57.176,199.49,54.156,199.49z M54.156,190.889c-1.292,0-2.086,0.874-2.086,3.238
		s0.794,3.218,2.086,3.218c1.291,0,2.086-0.854,2.086-3.218C56.242,191.742,55.447,190.889,54.156,190.889z"/>
	<path fill="#66A827" d="M75.789,199.292c-0.318,0.079-0.993,0.1-1.311,0.1c-0.338,0-1.113-0.04-1.431-0.1v-6.238
		c0-0.755-0.02-1.312-0.298-1.648c-0.258-0.318-0.656-0.438-1.152-0.438c-0.675,0-1.629,0.298-2.245,0.676
		c0.02,0.337,0.04,0.675,0.04,1.072v6.576c-0.318,0.079-0.993,0.1-1.312,0.1c-0.337,0-1.112-0.04-1.43-0.1v-6.238
		c0-0.755-0.02-1.312-0.298-1.648c-0.258-0.318-0.656-0.438-1.152-0.438c-0.695,0-1.589,0.278-2.206,0.655v7.669
		c-0.457,0.079-1.092,0.1-1.45,0.1c-0.318,0-0.894-0.021-1.291-0.1v-10.351c0.258-0.06,0.894-0.1,1.192-0.1
		c0.278,0,0.854,0.04,1.152,0.1l0.119,0.934c0.874-0.655,2.125-1.133,3.238-1.133c1.152,0,2.166,0.397,2.94,1.252
		c1.073-0.735,2.364-1.252,3.675-1.252c0.974,0,1.967,0.397,2.463,0.994c0.616,0.734,0.755,1.688,0.755,3.139V199.292z"/>
	<path fill="#66A827" d="M86.115,195.08h-6.278c0.04,1.291,0.934,2.245,2.662,2.245c0.934,0,1.888-0.119,2.702-0.338
		c0.119,0.536,0.199,1.133,0.199,1.669c0,0.079,0,0.179-0.02,0.397c-1.013,0.298-2.066,0.437-3.099,0.437
		c-3.775,0-5.344-2.165-5.344-5.324c0-2.761,1.55-5.424,4.907-5.424c3.179,0,4.331,2.345,4.331,4.928
		C86.175,194.027,86.175,194.563,86.115,195.08z M83.433,193.113c0-1.252-0.338-2.305-1.629-2.305c-1.231,0-1.887,0.974-1.967,2.305
		H83.433z"/>
	<path fill="#66A827" d="M93.92,199.094c-0.596,0.238-1.311,0.396-2.463,0.396c-2.245,0-3.357-1.092-3.357-3.277v-5.226h-1.708
		c-0.08-0.298-0.139-0.794-0.139-1.053c0-0.238,0.06-0.676,0.119-0.874l1.729-0.119v-2.662c0.219-0.04,0.914-0.08,1.371-0.08
		c0.497,0,1.113,0.04,1.371,0.08v2.662h2.861c0.08,0.278,0.119,0.676,0.119,0.894c0,0.239-0.02,0.874-0.099,1.152h-2.881v4.828
		c0,0.993,0.397,1.431,1.371,1.431c0.537,0,1.192-0.08,1.649-0.239c0.08,0.259,0.179,0.756,0.179,1.212
		C94.04,198.458,94,198.875,93.92,199.094z"/>
	<path fill="#66A827" d="M101.05,191.047c-1.033,0.159-2.146,0.517-3.139,1.033v7.212c-0.278,0.06-0.874,0.1-1.351,0.1
		c-0.477,0-1.172-0.04-1.391-0.1v-10.351c0.298-0.04,0.794-0.1,1.192-0.1c0.338,0,0.874,0.04,1.152,0.1l0.159,1.271
		c0.735-0.655,2.066-1.371,3.357-1.471c0.04,0.159,0.08,0.735,0.08,1.152C101.11,190.292,101.09,190.77,101.05,191.047z"/>
	<path fill="#66A827" d="M111.101,197.464c0,1.511-0.08,3.179-0.854,4.49c-0.934,1.569-2.503,2.226-4.271,2.226
		c-0.994,0-2.126-0.14-3.04-0.418c-0.06-0.179-0.1-0.655-0.1-0.953c0-0.238,0.08-0.814,0.139-1.053
		c0.795,0.218,1.868,0.357,2.603,0.357c1.192,0,1.907-0.417,2.344-1.212c0.397-0.716,0.457-1.51,0.457-2.285
		c-0.695,0.537-1.609,0.874-2.463,0.874c-2.603,0-3.656-1.351-3.656-3.913v-6.636c0.318-0.079,0.994-0.1,1.312-0.1
		c0.337,0,1.112,0.04,1.43,0.1v6.477c0,1.271,0.457,1.828,1.589,1.828c0.715,0,1.351-0.299,1.768-0.695v-7.609
		c0.457-0.079,1.093-0.1,1.45-0.1c0.318,0,0.894,0.021,1.292,0.1V197.464z"/>
	<path fill="#66A827" d="M125.163,199.292h-8.225v-13.43c0.377-0.06,0.894-0.1,1.391-0.1c0.556,0,1.092,0.04,1.45,0.1v11.006h5.384
		c0.08,0.219,0.139,0.636,0.139,1.192C125.302,198.497,125.262,198.875,125.163,199.292z"/>
	<path fill="#66A827" d="M134.935,195.08h-6.278c0.04,1.291,0.934,2.245,2.663,2.245c0.934,0,1.887-0.119,2.702-0.338
		c0.119,0.536,0.199,1.133,0.199,1.669c0,0.079,0,0.179-0.02,0.397c-1.013,0.298-2.066,0.437-3.099,0.437
		c-3.775,0-5.344-2.165-5.344-5.324c0-2.761,1.55-5.424,4.907-5.424c3.179,0,4.331,2.345,4.331,4.928
		C134.995,194.027,134.995,194.563,134.935,195.08z M132.253,193.113c0-1.252-0.338-2.305-1.629-2.305
		c-1.231,0-1.887,0.974-1.967,2.305H132.253z"/>
	<path fill="#66A827" d="M143.535,190.054c0,0.438-0.06,0.914-0.199,1.331c-0.656-0.258-1.51-0.417-2.324-0.417
		c-1.55,0-2.603,0.993-2.603,3.219c0,1.946,0.894,3.079,2.622,3.079c0.894,0,1.749-0.159,2.384-0.378
		c0.119,0.438,0.179,0.974,0.179,1.391c0,0.278,0,0.478-0.02,0.656c-0.794,0.357-1.848,0.556-2.841,0.556
		c-3.437,0-5.146-2.006-5.146-5.265c0-3.377,1.788-5.483,5.265-5.483c0.974,0,1.927,0.199,2.603,0.517
		C143.515,189.478,143.535,189.756,143.535,190.054z"/>
	<path fill="#66A827" d="M151.856,199.094c-0.597,0.238-1.312,0.396-2.464,0.396c-2.245,0-3.357-1.092-3.357-3.277v-5.226h-1.708
		c-0.08-0.298-0.139-0.794-0.139-1.053c0-0.238,0.06-0.676,0.119-0.874l1.729-0.119v-2.662c0.219-0.04,0.914-0.08,1.371-0.08
		c0.497,0,1.112,0.04,1.371,0.08v2.662h2.861c0.079,0.278,0.119,0.676,0.119,0.894c0,0.239-0.02,0.874-0.1,1.152h-2.88v4.828
		c0,0.993,0.397,1.431,1.371,1.431c0.537,0,1.192-0.08,1.649-0.239c0.079,0.259,0.179,0.756,0.179,1.212
		C151.976,198.458,151.936,198.875,151.856,199.094z"/>
	<path fill="#66A827" d="M161.729,195.299c0,2.96-1.391,4.191-4.49,4.191c-3.02,0-4.41-1.231-4.41-4.191v-6.357
		c0.277-0.04,0.814-0.1,1.351-0.1c0.477,0,1.073,0.04,1.391,0.1v6.338c0,1.549,0.457,2.105,1.709,2.105
		c1.271,0,1.708-0.557,1.708-2.105v-6.338c0.278-0.06,0.895-0.1,1.391-0.1c0.497,0,1.152,0.06,1.352,0.1V195.299z"/>
	<path fill="#66A827" d="M169.354,191.047c-1.033,0.159-2.146,0.517-3.139,1.033v7.212c-0.278,0.06-0.874,0.1-1.352,0.1
		c-0.477,0-1.172-0.04-1.391-0.1v-10.351c0.298-0.04,0.795-0.1,1.192-0.1c0.338,0,0.874,0.04,1.152,0.1l0.159,1.271
		c0.734-0.655,2.065-1.371,3.357-1.471c0.039,0.159,0.079,0.735,0.079,1.152C169.414,190.292,169.395,190.77,169.354,191.047z"/>
	<path fill="#66A827" d="M178.75,195.08h-6.278c0.04,1.291,0.934,2.245,2.662,2.245c0.934,0,1.888-0.119,2.702-0.338
		c0.119,0.536,0.198,1.133,0.198,1.669c0,0.079,0,0.179-0.02,0.397c-1.013,0.298-2.066,0.437-3.1,0.437
		c-3.774,0-5.344-2.165-5.344-5.324c0-2.761,1.55-5.424,4.907-5.424c3.179,0,4.331,2.345,4.331,4.928
		C178.81,194.027,178.81,194.563,178.75,195.08z M176.067,193.113c0-1.252-0.337-2.305-1.629-2.305
		c-1.231,0-1.887,0.974-1.967,2.305H176.067z"/>
	<path fill="#66A827" d="M185.879,191.047c-1.033,0.159-2.146,0.517-3.139,1.033v7.212c-0.278,0.06-0.874,0.1-1.352,0.1
		c-0.477,0-1.172-0.04-1.391-0.1v-10.351c0.298-0.04,0.795-0.1,1.192-0.1c0.338,0,0.874,0.04,1.152,0.1l0.159,1.271
		c0.734-0.655,2.065-1.371,3.357-1.471c0.039,0.159,0.079,0.735,0.079,1.152C185.938,190.292,185.919,190.77,185.879,191.047z"/>
</g>
<g>
	<path fill="#66A827" d="M23.51,221.317c-3,0-4.907-1.927-4.907-5.344c0-3.397,1.887-5.404,4.907-5.404
		c3.02,0,4.907,1.987,4.907,5.385C28.417,219.351,26.529,221.317,23.51,221.317z M23.51,212.716c-1.292,0-2.086,0.874-2.086,3.238
		s0.794,3.218,2.086,3.218c1.291,0,2.086-0.854,2.086-3.218C25.596,213.569,24.801,212.716,23.51,212.716z"/>
	<path fill="#66A827" d="M36.381,208.623c-0.437-0.14-0.954-0.219-1.47-0.219c-1.152,0-1.748,0.616-1.748,1.947v0.417h2.543
		c0.099,0.338,0.119,0.795,0.119,1.013c0,0.239-0.04,0.676-0.099,1.033h-2.563v8.305c-0.278,0.06-0.934,0.1-1.351,0.1
		c-0.338,0-1.112-0.04-1.391-0.1v-8.305h-1.688c-0.08-0.238-0.139-0.715-0.139-0.953c0-0.338,0.06-0.755,0.159-0.974l1.669-0.119
		v-0.298c0-2.662,1.371-4.093,3.974-4.093c0.616,0,1.49,0.139,2.086,0.357c0.079,0.238,0.099,0.596,0.099,0.874
		C36.58,207.907,36.5,208.305,36.381,208.623z"/>
	<path fill="#66A827" d="M47.345,220.921c-0.596,0.238-1.312,0.396-2.464,0.396c-2.245,0-3.357-1.092-3.357-3.277v-5.226h-1.708
		c-0.08-0.298-0.139-0.794-0.139-1.053c0-0.238,0.06-0.676,0.119-0.874l1.729-0.119v-2.662c0.219-0.04,0.914-0.08,1.371-0.08
		c0.497,0,1.112,0.04,1.371,0.08v2.662h2.861c0.08,0.278,0.119,0.676,0.119,0.894c0,0.238-0.02,0.875-0.099,1.152h-2.881v4.828
		c0,0.993,0.397,1.431,1.371,1.431c0.537,0,1.192-0.08,1.649-0.239c0.08,0.259,0.179,0.756,0.179,1.212
		C47.464,220.285,47.424,220.702,47.345,220.921z"/>
	<path fill="#66A827" d="M57.752,214.186v6.934c-0.318,0.079-0.994,0.1-1.312,0.1c-0.337,0-1.112-0.04-1.43-0.1v-6.774
		c0-1.073-0.557-1.55-1.45-1.55c-0.715,0-1.59,0.258-2.226,0.655v7.669c-0.457,0.079-1.092,0.1-1.45,0.1
		c-0.318,0-0.894-0.021-1.291-0.1v-14.483c0.258-0.06,0.834-0.099,1.331-0.099c0.497,0,1.112,0.039,1.41,0.099v4.868
		c0.875-0.557,2.086-0.935,3.139-0.935C56.66,210.569,57.752,211.921,57.752,214.186z"/>
	<path fill="#66A827" d="M68.081,216.907h-6.278c0.04,1.291,0.934,2.245,2.663,2.245c0.934,0,1.887-0.119,2.702-0.338
		c0.119,0.536,0.199,1.133,0.199,1.669c0,0.079,0,0.179-0.02,0.397c-1.013,0.298-2.066,0.437-3.099,0.437
		c-3.775,0-5.344-2.165-5.344-5.324c0-2.761,1.55-5.424,4.907-5.424c3.179,0,4.331,2.345,4.331,4.928
		C68.14,215.854,68.14,216.391,68.081,216.907z M65.398,214.94c0-1.252-0.338-2.305-1.629-2.305c-1.231,0-1.887,0.974-1.967,2.305
		H65.398z"/>
	<path fill="#66A827" d="M81.983,210.769l-3.04,5.86v4.49c-0.377,0.06-0.814,0.1-1.411,0.1c-0.536,0-1.053-0.04-1.43-0.1v-4.529
		l-2.901-5.662c-0.636-1.232-0.973-2.245-0.973-3.259c0.318-0.039,0.894-0.079,1.391-0.079c0.477,0,1.013,0.02,1.391,0.079
		c0,0.835,0.119,1.391,0.576,2.345l1.331,2.741c0.298,0.597,0.556,1.312,0.636,1.729h0.02c0.099-0.417,0.417-1.152,0.655-1.669
		l1.371-2.881c0.298-0.615,0.477-1.331,0.477-2.244c0.377-0.06,0.974-0.1,1.45-0.1c0.557,0,0.974,0.04,1.292,0.1
		C82.818,208.702,82.42,209.914,81.983,210.769z"/>
	<path fill="#66A827" d="M91.934,216.907h-6.278c0.04,1.291,0.934,2.245,2.663,2.245c0.934,0,1.887-0.119,2.702-0.338
		c0.119,0.536,0.199,1.133,0.199,1.669c0,0.079,0,0.179-0.02,0.397c-1.013,0.298-2.066,0.437-3.099,0.437
		c-3.775,0-5.344-2.165-5.344-5.324c0-2.761,1.55-5.424,4.907-5.424c3.179,0,4.331,2.345,4.331,4.928
		C91.994,215.854,91.994,216.391,91.934,216.907z M89.252,214.94c0-1.252-0.338-2.305-1.629-2.305c-1.231,0-1.887,0.974-1.967,2.305
		H89.252z"/>
	<path fill="#66A827" d="M101.428,218.238c0,0.854,0.02,1.828,0.02,2.881c-0.318,0.079-0.854,0.1-1.192,0.1
		c-0.377,0-0.874-0.04-1.192-0.1c-0.04-0.238-0.08-0.655-0.099-0.914h-0.04c-0.675,0.695-1.828,1.112-2.88,1.112
		c-1.987,0-3.417-1.231-3.417-3.277c0-3.179,2.821-3.716,5.186-3.716c0.159,0,0.536,0.021,0.854,0.04c0-0.119-0.02-0.377-0.04-0.477
		c-0.139-0.814-0.675-1.152-1.828-1.152c-0.894,0-2.146,0.179-3.1,0.417c-0.099-0.278-0.159-0.755-0.159-1.112
		c0-0.298,0.04-0.755,0.119-0.954c1.113-0.337,2.483-0.517,3.616-0.517c2.483,0,4.152,1.152,4.152,3.735V218.238z M98.686,216.271
		c-0.238-0.02-0.556-0.04-0.834-0.04c-1.788,0-2.483,0.716-2.483,1.609c0,0.775,0.517,1.312,1.411,1.312
		c0.656,0,1.391-0.318,1.907-0.774V216.271z"/>
	<path fill="#66A827" d="M109.074,212.874c-1.033,0.159-2.146,0.517-3.139,1.033v7.212c-0.278,0.06-0.875,0.1-1.351,0.1
		c-0.477,0-1.172-0.04-1.391-0.1v-10.351c0.298-0.04,0.794-0.1,1.192-0.1c0.338,0,0.874,0.04,1.152,0.1l0.159,1.271
		c0.735-0.655,2.066-1.371,3.357-1.471c0.04,0.159,0.08,0.735,0.08,1.152C109.134,212.119,109.114,212.597,109.074,212.874z"/>
</g>
<g>
	<path fill="#333333" d="M119.536,222.074c-1.573-1.573-2.381-3.756-2.381-5.77c0-2.226,0.851-4.267,2.381-5.84
		c0.156,0.042,0.312,0.128,0.425,0.241c-1.318,1.687-1.899,3.643-1.899,5.57c0,1.914,0.581,3.813,1.899,5.557
		C119.848,221.947,119.692,222.032,119.536,222.074z"/>
	<path fill="#333333" d="M128.693,220.501c-0.113,0.043-0.298,0.071-0.496,0.071c-0.17,0-0.383-0.028-0.51-0.071l-0.865-2.48h-3.955
		l-0.836,2.495c-0.099,0.028-0.326,0.057-0.482,0.057c-0.17,0-0.354-0.028-0.496-0.071l3.26-9.583c0.156-0.042,0.34-0.07,0.482-0.07
		c0.156,0,0.326,0.028,0.454,0.07L128.693,220.501z M125.234,213.513c-0.142-0.383-0.312-0.936-0.439-1.432
		c-0.142,0.481-0.312,1.049-0.439,1.432l-1.248,3.756h3.445L125.234,213.513z"/>
	<path fill="#333333" d="M131.457,220.643c-0.709,0-1.446-0.127-1.957-0.326c-0.042-0.099-0.071-0.27-0.071-0.396
		c0-0.085,0.028-0.298,0.057-0.383c0.525,0.213,1.276,0.383,1.9,0.383c1.077,0,1.743-0.454,1.743-1.347
		c0-0.809-0.411-1.092-1.531-1.503c-1.559-0.566-2.07-1.219-2.07-2.183c0-1.305,1.078-1.914,2.467-1.914
		c0.468,0,1.077,0.085,1.432,0.198c0.042,0.128,0.057,0.256,0.057,0.341c0,0.113-0.028,0.312-0.057,0.411
		c-0.468-0.142-0.964-0.227-1.446-0.227c-1.006,0-1.616,0.382-1.616,1.162c0,0.681,0.383,1.006,1.545,1.445
		c1.063,0.397,2.041,0.794,2.041,2.226C133.951,219.977,132.86,220.643,131.457,220.643z"/>
	<path fill="#333333" d="M136.97,220.643c-0.709,0-1.446-0.127-1.957-0.326c-0.042-0.099-0.071-0.27-0.071-0.396
		c0-0.085,0.028-0.298,0.057-0.383c0.525,0.213,1.276,0.383,1.9,0.383c1.077,0,1.743-0.454,1.743-1.347
		c0-0.809-0.411-1.092-1.531-1.503c-1.559-0.566-2.07-1.219-2.07-2.183c0-1.305,1.078-1.914,2.467-1.914
		c0.468,0,1.077,0.085,1.432,0.198c0.042,0.128,0.057,0.256,0.057,0.341c0,0.113-0.028,0.312-0.057,0.411
		c-0.468-0.142-0.964-0.227-1.446-0.227c-1.006,0-1.616,0.382-1.616,1.162c0,0.681,0.383,1.006,1.545,1.445
		c1.063,0.397,2.041,0.794,2.041,2.226C139.465,219.977,138.374,220.643,136.97,220.643z"/>
	<path fill="#333333" d="M143.462,220.643c-1.857,0-3.048-1.275-3.048-3.827s1.205-3.842,3.062-3.842s3.034,1.262,3.034,3.813
		S145.319,220.643,143.462,220.643z M143.476,213.668c-1.361,0-2.098,1.05-2.098,3.133c0,2.084,0.723,3.147,2.084,3.147
		s2.084-1.063,2.084-3.147C145.546,214.718,144.837,213.668,143.476,213.668z"/>
	<path fill="#333333" d="M152.548,214.009c-0.454-0.185-1.049-0.298-1.574-0.298c-1.843,0-2.523,1.432-2.523,3.161
		c0,1.701,0.652,3.02,2.509,3.02c0.496,0,1.092-0.085,1.531-0.213c0.028,0.085,0.057,0.185,0.057,0.298
		c0,0.17-0.028,0.298-0.071,0.396c-0.411,0.171-1.077,0.27-1.602,0.27c-2.311,0-3.388-1.517-3.388-3.742
		c0-2.311,1.177-3.927,3.431-3.927c0.539,0,1.176,0.128,1.616,0.326c0.043,0.113,0.057,0.227,0.057,0.354
		C152.59,213.796,152.576,213.909,152.548,214.009z"/>
	<path fill="#333333" d="M154.433,211.67c-0.326,0-0.596-0.284-0.596-0.624s0.27-0.609,0.596-0.609c0.325,0,0.609,0.27,0.609,0.609
		S154.758,211.67,154.433,211.67z M154.9,220.501c-0.128,0.043-0.312,0.071-0.468,0.071c-0.156,0-0.326-0.028-0.454-0.071v-7.386
		c0.113-0.028,0.298-0.07,0.439-0.07c0.156,0,0.369,0.028,0.482,0.07V220.501z"/>
	<path fill="#333333" d="M161.79,218.687c0,0.511,0,1.148,0.028,1.814c-0.1,0.043-0.256,0.071-0.383,0.071
		c-0.113,0-0.27-0.028-0.383-0.071c-0.043-0.227-0.071-0.524-0.085-0.794h-0.015c-0.481,0.596-1.332,0.936-2.169,0.936
		c-1.318,0-2.424-0.737-2.424-2.254c0-0.864,0.354-1.502,0.907-1.899c0.624-0.439,1.446-0.581,2.325-0.581
		c0.496,0,0.907,0.028,1.275,0.085v-0.411c0-1.417-0.581-1.885-1.771-1.885c-0.667,0-1.488,0.142-1.999,0.269
		c-0.028-0.07-0.057-0.227-0.057-0.368c0-0.1,0.028-0.241,0.07-0.326c0.61-0.185,1.418-0.298,2.099-0.298
		c1.687,0,2.58,0.766,2.58,2.495V218.687z M160.868,216.688c-0.411-0.057-0.836-0.085-1.205-0.085c-0.694,0-1.318,0.128-1.743,0.454
		c-0.383,0.283-0.596,0.737-0.596,1.318c0,1.034,0.666,1.53,1.588,1.53c0.766,0,1.573-0.368,1.956-0.949V216.688z"/>
	<path fill="#333333" d="M167.544,220.43c-0.369,0.128-0.922,0.213-1.333,0.213c-1.403,0-2.069-0.666-2.069-2.239v-4.564h-1.275
		c-0.028-0.071-0.043-0.241-0.043-0.326c0-0.071,0.015-0.241,0.043-0.312l1.275-0.085v-1.928c0.113-0.042,0.298-0.07,0.454-0.07
		c0.155,0,0.354,0.028,0.468,0.07v1.928h2.083c0.028,0.071,0.058,0.284,0.058,0.354c0,0.1-0.029,0.27-0.058,0.369h-2.083v4.479
		c0,1.119,0.326,1.587,1.204,1.587c0.482,0,0.95-0.07,1.276-0.17c0.028,0.071,0.057,0.241,0.057,0.341
		C167.601,220.203,167.586,220.303,167.544,220.43z"/>
	<path fill="#333333" d="M169.287,211.67c-0.326,0-0.596-0.284-0.596-0.624s0.27-0.609,0.596-0.609c0.325,0,0.609,0.27,0.609,0.609
		S169.612,211.67,169.287,211.67z M169.755,220.501c-0.128,0.043-0.312,0.071-0.468,0.071c-0.156,0-0.326-0.028-0.454-0.071v-7.386
		c0.113-0.028,0.298-0.07,0.439-0.07c0.156,0,0.369,0.028,0.482,0.07V220.501z"/>
	<path fill="#333333" d="M174.248,220.643c-1.857,0-3.048-1.275-3.048-3.827s1.205-3.842,3.062-3.842
		c1.857,0,3.034,1.262,3.034,3.813S176.105,220.643,174.248,220.643z M174.262,213.668c-1.36,0-2.098,1.05-2.098,3.133
		c0,2.084,0.723,3.147,2.084,3.147c1.36,0,2.084-1.063,2.084-3.147C176.332,214.718,175.623,213.668,174.262,213.668z"/>
	<path fill="#333333" d="M184.34,220.516c-0.113,0.028-0.283,0.057-0.453,0.057c-0.142,0-0.326-0.028-0.468-0.071v-4.493
		c0-0.681-0.085-1.205-0.284-1.574c-0.24-0.453-0.694-0.68-1.432-0.68c-0.708,0-1.559,0.396-2.111,0.821v5.926
		c-0.156,0.043-0.312,0.071-0.482,0.071c-0.142,0-0.312-0.028-0.439-0.071v-7.386c0.1-0.042,0.27-0.057,0.368-0.057
		c0.143,0,0.312,0.015,0.397,0.057l0.07,0.737h0.015c0.779-0.638,1.673-0.879,2.396-0.879s1.475,0.241,1.886,0.737
		c0.453,0.539,0.538,1.318,0.538,2.084V220.516z"/>
	<path fill="#333333" d="M191.725,220.643c-1.857,0-3.048-1.275-3.048-3.827s1.205-3.842,3.062-3.842
		c1.857,0,3.034,1.262,3.034,3.813S193.582,220.643,191.725,220.643z M191.738,213.668c-1.36,0-2.098,1.05-2.098,3.133
		c0,2.084,0.723,3.147,2.084,3.147c1.36,0,2.084-1.063,2.084-3.147C193.809,214.718,193.1,213.668,191.738,213.668z"/>
	<path fill="#333333" d="M200.342,210.763c-0.213-0.057-0.595-0.113-0.893-0.113c-0.539,0-0.936,0.142-1.205,0.439
		c-0.411,0.439-0.482,1.034-0.482,1.786v0.24h1.999c0.028,0.071,0.057,0.241,0.057,0.341c0,0.113-0.028,0.283-0.057,0.383h-1.999
		v6.662c-0.127,0.043-0.269,0.071-0.453,0.071s-0.341-0.028-0.468-0.071v-6.662h-1.276c-0.028-0.071-0.042-0.256-0.042-0.341
		c0-0.07,0.014-0.227,0.042-0.298l1.276-0.085v-0.24c0-1.007,0.17-1.701,0.751-2.282c0.411-0.411,1.021-0.61,1.716-0.61
		c0.368,0,0.779,0.086,1.034,0.185c0.028,0.071,0.043,0.17,0.043,0.27C200.385,210.521,200.37,210.691,200.342,210.763z"/>
</g>
<g>
	<path fill="#333333" d="M120.812,237.963c-2.381,0-3.629-1.786-3.629-4.933c0-3.147,1.248-4.934,3.629-4.934
		s3.629,1.786,3.629,4.934C124.441,236.177,123.193,237.963,120.812,237.963z M120.812,228.82c-1.715,0-2.608,1.375-2.608,4.21
		s0.893,4.21,2.608,4.21s2.608-1.375,2.608-4.21S122.527,228.82,120.812,228.82z"/>
	<path fill="#333333" d="M130.762,237.056c-0.553,0.496-1.417,0.766-2.24,0.766c-0.581,0-1.12-0.1-1.517-0.241v3.572
		c-0.142,0.043-0.269,0.071-0.468,0.071c-0.156,0-0.34-0.028-0.454-0.071v-10.717c0.071-0.028,0.241-0.057,0.383-0.057
		s0.27,0.028,0.369,0.057l0.085,0.78h0.014c0.539-0.567,1.347-0.922,2.169-0.922c0.893,0,1.687,0.383,2.183,1.092
		c0.411,0.596,0.666,1.446,0.666,2.48C131.953,235.284,131.514,236.375,130.762,237.056z M129.005,231.046
		c-0.751,0-1.503,0.312-1.999,0.936v4.876c0.369,0.17,0.936,0.27,1.417,0.27c1.531,0,2.566-1.007,2.566-3.218
		C130.989,232.165,130.309,231.046,129.005,231.046z"/>
	<path fill="#333333" d="M137.268,237.75c-0.369,0.128-0.921,0.213-1.333,0.213c-1.403,0-2.07-0.666-2.07-2.239v-4.564h-1.276
		c-0.028-0.071-0.042-0.241-0.042-0.326c0-0.071,0.014-0.241,0.042-0.312l1.276-0.085v-1.928c0.114-0.042,0.298-0.07,0.454-0.07
		c0.156,0,0.354,0.028,0.468,0.07v1.928h2.084c0.028,0.071,0.057,0.284,0.057,0.354c0,0.1-0.028,0.27-0.057,0.369h-2.084v4.479
		c0,1.119,0.326,1.587,1.205,1.587c0.482,0,0.95-0.07,1.276-0.17c0.028,0.071,0.057,0.241,0.057,0.341
		C137.325,237.523,137.311,237.623,137.268,237.75z"/>
	<path fill="#333333" d="M140.783,237.963c-1.857,0-3.048-1.275-3.048-3.827s1.205-3.842,3.062-3.842s3.034,1.262,3.034,3.813
		S142.64,237.963,140.783,237.963z M140.797,230.988c-1.361,0-2.098,1.05-2.098,3.133c0,2.084,0.723,3.147,2.084,3.147
		s2.084-1.063,2.084-3.147C142.867,232.038,142.158,230.988,140.797,230.988z"/>
	<path fill="#333333" d="M155.482,237.836c-0.142,0.028-0.283,0.057-0.426,0.057c-0.17,0-0.325-0.043-0.496-0.071v-4.479
		c0-1.56-0.396-2.268-1.715-2.268c-0.681,0-1.588,0.354-2.155,0.765c0.113,0.397,0.142,0.837,0.142,1.276v4.706
		c-0.142,0.043-0.284,0.071-0.425,0.071c-0.185,0-0.354-0.028-0.497-0.071v-4.479c0-1.56-0.354-2.268-1.672-2.268
		c-0.709,0-1.545,0.396-2.098,0.821v5.926c-0.156,0.043-0.34,0.071-0.51,0.071c-0.142,0-0.298-0.028-0.411-0.071v-7.386
		c0.071-0.028,0.227-0.057,0.383-0.057c0.127,0,0.284,0.028,0.383,0.057l0.071,0.737h0.014c0.78-0.638,1.673-0.879,2.396-0.879
		c0.723,0,1.417,0.241,1.829,0.737c0.057,0.057,0.1,0.128,0.142,0.198c0.751-0.609,1.715-0.936,2.636-0.936
		c0.724,0,1.46,0.241,1.871,0.737c0.454,0.539,0.539,1.318,0.539,2.084V237.836z"/>
	<path fill="#333333" d="M162.498,234.377h-4.749c0.057,1.63,0.822,2.863,2.595,2.863c0.638,0,1.232-0.085,1.757-0.213
		c0.028,0.071,0.058,0.213,0.058,0.298c0,0.142-0.029,0.27-0.071,0.368c-0.553,0.171-1.247,0.27-1.829,0.27
		c-1.119,0-1.97-0.354-2.494-0.921c-0.624-0.681-0.95-1.701-0.95-2.878c0-2.056,1.035-3.87,3.104-3.87
		c1.857,0,2.594,1.531,2.594,3.402C162.512,233.909,162.512,234.164,162.498,234.377z M161.591,233.696
		c0-1.304-0.142-2.708-1.716-2.708c-1.375,0-2.041,1.262-2.126,2.708H161.591z"/>
	<path fill="#333333" d="M167.855,237.75c-0.369,0.128-0.922,0.213-1.333,0.213c-1.403,0-2.069-0.666-2.069-2.239v-4.564h-1.275
		c-0.028-0.071-0.043-0.241-0.043-0.326c0-0.071,0.015-0.241,0.043-0.312l1.275-0.085v-1.928c0.113-0.042,0.298-0.07,0.454-0.07
		c0.155,0,0.354,0.028,0.468,0.07v1.928h2.083c0.028,0.071,0.058,0.284,0.058,0.354c0,0.1-0.029,0.27-0.058,0.369h-2.083v4.479
		c0,1.119,0.326,1.587,1.204,1.587c0.482,0,0.95-0.07,1.276-0.17c0.028,0.071,0.057,0.241,0.057,0.341
		C167.912,237.523,167.897,237.623,167.855,237.75z"/>
	<path fill="#333333" d="M172.392,231.116c-0.822,0.113-1.715,0.411-2.381,0.922v5.783c-0.143,0.043-0.312,0.071-0.468,0.071
		c-0.156,0-0.312-0.028-0.454-0.071v-7.386c0.085-0.028,0.213-0.057,0.354-0.057c0.113,0,0.27,0.028,0.383,0.057l0.07,0.907h0.015
		c0.609-0.524,1.673-0.964,2.48-1.049c0.028,0.085,0.057,0.241,0.057,0.369C172.448,230.805,172.42,230.988,172.392,231.116z"/>
	<path fill="#333333" d="M174.206,228.99c-0.326,0-0.596-0.284-0.596-0.624s0.27-0.609,0.596-0.609c0.325,0,0.609,0.27,0.609,0.609
		S174.531,228.99,174.206,228.99z M174.674,237.821c-0.128,0.043-0.312,0.071-0.468,0.071c-0.156,0-0.326-0.028-0.454-0.071v-7.386
		c0.113-0.028,0.298-0.07,0.439-0.07c0.156,0,0.369,0.028,0.482,0.07V237.821z"/>
	<path fill="#333333" d="M178.175,237.963c-0.709,0-1.446-0.127-1.956-0.326c-0.043-0.099-0.071-0.27-0.071-0.396
		c0-0.085,0.028-0.298,0.057-0.383c0.524,0.213,1.276,0.383,1.899,0.383c1.077,0,1.744-0.454,1.744-1.347
		c0-0.809-0.411-1.092-1.531-1.503c-1.56-0.566-2.069-1.219-2.069-2.183c0-1.305,1.077-1.914,2.466-1.914
		c0.468,0,1.078,0.085,1.433,0.198c0.042,0.128,0.057,0.256,0.057,0.341c0,0.113-0.028,0.312-0.057,0.411
		c-0.468-0.142-0.965-0.227-1.446-0.227c-1.007,0-1.616,0.382-1.616,1.162c0,0.681,0.383,1.006,1.545,1.445
		c1.063,0.397,2.042,0.794,2.042,2.226C180.67,237.297,179.578,237.963,178.175,237.963z"/>
	<path fill="#333333" d="M185.828,237.75c-0.369,0.128-0.922,0.213-1.333,0.213c-1.403,0-2.069-0.666-2.069-2.239v-4.564h-1.275
		c-0.028-0.071-0.043-0.241-0.043-0.326c0-0.071,0.015-0.241,0.043-0.312l1.275-0.085v-1.928c0.113-0.042,0.298-0.07,0.454-0.07
		c0.155,0,0.354,0.028,0.468,0.07v1.928h2.083c0.028,0.071,0.058,0.284,0.058,0.354c0,0.1-0.029,0.27-0.058,0.369h-2.083v4.479
		c0,1.119,0.326,1.587,1.204,1.587c0.482,0,0.95-0.07,1.276-0.17c0.028,0.071,0.057,0.241,0.057,0.341
		C185.885,237.523,185.87,237.623,185.828,237.75z"/>
	<path fill="#333333" d="M188.706,237.963c-0.709,0-1.446-0.127-1.956-0.326c-0.043-0.099-0.071-0.27-0.071-0.396
		c0-0.085,0.028-0.298,0.057-0.383c0.524,0.213,1.276,0.383,1.899,0.383c1.077,0,1.744-0.454,1.744-1.347
		c0-0.809-0.411-1.092-1.531-1.503c-1.56-0.566-2.069-1.219-2.069-2.183c0-1.305,1.077-1.914,2.466-1.914
		c0.468,0,1.078,0.085,1.433,0.198c0.042,0.128,0.057,0.256,0.057,0.341c0,0.113-0.028,0.312-0.057,0.411
		c-0.468-0.142-0.965-0.227-1.446-0.227c-1.007,0-1.616,0.382-1.616,1.162c0,0.681,0.383,1.006,1.545,1.445
		c1.063,0.397,2.042,0.794,2.042,2.226C191.201,237.297,190.109,237.963,188.706,237.963z"/>
	<path fill="#333333" d="M191.95,240.019c-0.085-0.071-0.198-0.241-0.24-0.354c0.581-0.468,1.021-0.992,1.162-1.573
		c-0.298-0.156-0.539-0.454-0.539-0.822c0-0.397,0.312-0.694,0.667-0.694c0.453,0,0.779,0.411,0.779,0.907
		C193.779,238.275,193.127,239.281,191.95,240.019z"/>
	<path fill="#333333" d="M201.334,234.972c-0.694,0.809-1.347,1.503-1.899,2.099h4.366c0.042,0.127,0.042,0.283,0.042,0.368
		c0,0.128-0.014,0.255-0.042,0.383h-5.345c-0.085-0.241-0.113-0.396-0.113-0.553c0-0.1,0-0.142,0.015-0.227
		c0.822-0.894,1.8-1.957,2.367-2.595c1.559-1.758,2.154-2.82,2.154-3.869c0-1.191-0.681-1.786-1.786-1.786
		c-0.751,0-1.63,0.227-2.324,0.538c-0.028-0.085-0.043-0.283-0.043-0.368c0-0.128,0.028-0.256,0.071-0.369
		c0.566-0.255,1.559-0.496,2.424-0.496c1.588,0,2.679,0.879,2.679,2.396C203.899,231.769,203.219,232.789,201.334,234.972z"/>
	<path fill="#333333" d="M208.422,237.963c-1.914,0-2.978-1.417-2.978-4.933s1.177-4.934,3.034-4.934
		c1.885,0,2.977,1.418,2.977,4.934S210.278,237.963,208.422,237.963z M208.479,228.792c-1.418,0-2.014,1.445-2.014,4.238
		c0,2.792,0.554,4.238,1.971,4.238c1.418,0,1.999-1.446,1.999-4.238C210.435,230.237,209.896,228.792,208.479,228.792z"/>
	<path fill="#333333" d="M216.954,237.821c-0.113,0.043-0.326,0.071-0.482,0.071c-0.155,0-0.368-0.028-0.481-0.071v-8.618
		l-2.48,1.573c-0.143-0.128-0.312-0.383-0.369-0.624l3.034-1.928c0.099-0.028,0.255-0.057,0.368-0.057
		c0.142,0,0.298,0.028,0.411,0.07V237.821z"/>
	<path fill="#333333" d="M223.233,237.963c-1.743,0-3.048-0.864-3.048-2.665c0-1.148,0.922-2.169,2.155-2.65
		c-0.992-0.511-1.744-1.191-1.744-2.325c0-1.432,1.276-2.239,2.68-2.239c1.347,0,2.58,0.737,2.58,2.169
		c0,0.851-0.496,1.771-1.857,2.381c1.304,0.567,2.239,1.333,2.239,2.623C226.238,236.914,224.921,237.963,223.233,237.963z
		 M223.135,232.974c-1.191,0.481-1.929,1.262-1.929,2.353c0,1.191,0.837,1.942,1.999,1.942c1.148,0,2.013-0.681,2.013-1.971
		C225.218,234.121,224.438,233.483,223.135,232.974z M223.233,228.764c-0.893,0-1.645,0.51-1.645,1.545
		c0,0.936,0.567,1.602,1.659,2.013c1.006-0.439,1.615-1.049,1.615-2.013C224.863,229.288,224.197,228.764,223.233,228.764z"/>
	<path fill="#333333" d="M229.513,233.597c0-1.928-0.581-3.884-1.899-5.57c0.113-0.113,0.27-0.199,0.425-0.241
		c1.531,1.573,2.382,3.614,2.382,5.84c0,2.014-0.808,4.196-2.382,5.77c-0.155-0.042-0.312-0.127-0.425-0.241
		C228.932,237.41,229.513,235.511,229.513,233.597z"/>
</g>
</svg>
