<?xml version="1.0" encoding="utf-8"?>
<!-- Generator: Adobe Illustrator 16.0.0, SVG Export Plug-In . SVG Version: 6.00 Build 0)  -->
<!DOCTYPE svg PUBLIC "-//W3C//DTD SVG 1.1//EN" "http://www.w3.org/Graphics/SVG/1.1/DTD/svg11.dtd">
<svg version="1.1" id="Layer_1" xmlns="http://www.w3.org/2000/svg" xmlns:xlink="http://www.w3.org/1999/xlink" x="0px" y="0px"
	 width="300px" height="300px" viewBox="0 0 300 300" enable-background="new 0 0 300 300" xml:space="preserve">
<g>
	<path fill="#66A827" d="M35.963,123.046c-1.113,0.223-3.116,0.371-5.268,0.371c-2.078,0-3.933-0.148-5.269-0.371V84.683
		l-10.537,6.975c-2.523-2.3-4.304-5.417-4.972-8.088l17.438-10.686c1.039-0.223,3.191-0.371,4.304-0.371
		c1.262,0,3.562,0.223,4.304,0.371V123.046z"/>
	<path fill="#66A827" d="M64.979,123.789c-11.873,0-17.66-8.756-17.66-25.823c0-17.215,6.01-25.823,17.883-25.823
		c11.798,0,17.586,8.608,17.586,25.823C82.788,115.032,76.777,123.789,64.979,123.789z M65.053,80.825
		c-4.749,0-6.827,4.378-6.827,17.141c0,12.54,2.078,17.141,6.827,17.141s6.827-4.601,6.827-17.141
		C71.88,85.203,69.802,80.825,65.053,80.825z"/>
</g>
<g>
	<path fill="#333333" d="M96.812,121.387c-1.272,0-2.736-0.233-3.839-0.636c-0.063-0.169-0.106-0.382-0.106-0.615
		c0-0.212,0.042-0.467,0.085-0.637c1.124,0.446,2.651,0.721,3.754,0.721c2.142,0,3.267-0.954,3.267-2.715
		c0-1.548-0.827-2.248-2.397-2.821l-1.272-0.466c-2.121-0.785-3.33-1.803-3.33-3.839c0-2.375,1.888-3.754,4.56-3.754
		c1.04,0,2.1,0.148,3.054,0.403c0.064,0.127,0.085,0.339,0.085,0.53c0,0.17-0.042,0.445-0.106,0.594
		c-0.891-0.275-1.93-0.403-2.948-0.403c-1.569,0-3.16,0.551-3.16,2.545c0,1.59,0.806,2.142,2.609,2.821l1.124,0.424
		c1.951,0.742,3.203,1.739,3.203,3.817C101.394,120.115,99.485,121.387,96.812,121.387z"/>
	<path fill="#333333" d="M110.892,111.461c-0.679-0.276-1.569-0.446-2.354-0.446c-2.757,0-3.775,2.143-3.775,4.73
		c0,2.545,0.976,4.518,3.754,4.518c0.743,0,1.633-0.127,2.291-0.318c0.042,0.127,0.084,0.275,0.084,0.445
		c0,0.254-0.042,0.445-0.106,0.594c-0.615,0.254-1.612,0.403-2.396,0.403c-3.458,0-5.069-2.269-5.069-5.599
		c0-3.457,1.76-5.875,5.133-5.875c0.806,0,1.76,0.191,2.418,0.488c0.063,0.169,0.085,0.339,0.085,0.53
		C110.956,111.143,110.935,111.313,110.892,111.461z"/>
	<path fill="#333333" d="M121.643,121.175c-0.191,0.063-0.424,0.106-0.636,0.106c-0.255,0-0.53-0.042-0.743-0.106v-6.702
		c0-2.333-0.594-3.394-2.566-3.394c-1.061,0-2.333,0.594-3.16,1.23v8.866c-0.233,0.063-0.488,0.106-0.721,0.106
		c-0.212,0-0.466-0.042-0.657-0.106v-15.483c0.191-0.064,0.488-0.106,0.679-0.106s0.509,0.042,0.7,0.106v5.451
		c1.124-0.87,2.46-1.23,3.5-1.23c1.082,0,2.185,0.36,2.8,1.103c0.679,0.806,0.806,1.973,0.806,3.118V121.175z"/>
	<path fill="#333333" d="M128.404,121.387c-2.778,0-4.56-1.909-4.56-5.727s1.803-5.748,4.582-5.748c2.778,0,4.539,1.888,4.539,5.705
		C132.964,119.436,131.183,121.387,128.404,121.387z M128.426,110.952c-2.036,0-3.139,1.569-3.139,4.688
		c0,3.118,1.082,4.708,3.118,4.708s3.118-1.591,3.118-4.708C131.522,112.521,130.462,110.952,128.426,110.952z"/>
	<path fill="#333333" d="M139.175,121.387c-2.778,0-4.56-1.909-4.56-5.727s1.803-5.748,4.582-5.748c2.778,0,4.539,1.888,4.539,5.705
		C143.735,119.436,141.954,121.387,139.175,121.387z M139.197,110.952c-2.036,0-3.139,1.569-3.139,4.688
		c0,3.118,1.082,4.708,3.118,4.708s3.118-1.591,3.118-4.708C142.293,112.521,141.233,110.952,139.197,110.952z"/>
	<path fill="#333333" d="M147.422,121.175c-0.233,0.063-0.467,0.106-0.721,0.106c-0.212,0-0.466-0.042-0.657-0.106v-15.483
		c0.191-0.042,0.424-0.106,0.7-0.106c0.233,0,0.488,0.042,0.679,0.106V121.175z"/>
	<path fill="#333333" d="M152.808,121.387c-1.061,0-2.163-0.191-2.927-0.488c-0.063-0.148-0.106-0.403-0.106-0.594
		c0-0.127,0.042-0.445,0.085-0.573c0.785,0.318,1.909,0.573,2.842,0.573c1.611,0,2.608-0.679,2.608-2.015
		c0-1.209-0.615-1.633-2.291-2.249c-2.333-0.848-3.096-1.824-3.096-3.266c0-1.951,1.612-2.863,3.691-2.863
		c0.699,0,1.611,0.127,2.142,0.297c0.063,0.191,0.085,0.382,0.085,0.509c0,0.17-0.042,0.467-0.085,0.615
		c-0.7-0.212-1.442-0.339-2.163-0.339c-1.506,0-2.418,0.573-2.418,1.739c0,1.018,0.572,1.506,2.312,2.164
		c1.591,0.594,3.055,1.188,3.055,3.33C156.541,120.391,154.907,121.387,152.808,121.387z"/>
	<path fill="#333333" d="M171.001,118.46c0,0.764,0,1.718,0.042,2.715c-0.148,0.063-0.382,0.106-0.572,0.106
		c-0.17,0-0.403-0.042-0.573-0.106c-0.063-0.339-0.105-0.785-0.127-1.188h-0.021c-0.721,0.891-1.993,1.4-3.245,1.4
		c-1.972,0-3.627-1.103-3.627-3.372c0-1.294,0.53-2.249,1.357-2.842c0.934-0.657,2.164-0.87,3.479-0.87
		c0.742,0,1.357,0.042,1.909,0.127v-0.615c0-2.121-0.869-2.821-2.651-2.821c-0.997,0-2.227,0.212-2.99,0.403
		c-0.043-0.106-0.085-0.339-0.085-0.551c0-0.148,0.042-0.361,0.106-0.488c0.911-0.276,2.12-0.445,3.139-0.445
		c2.523,0,3.86,1.145,3.86,3.733V118.46z M169.622,115.47c-0.615-0.084-1.251-0.127-1.803-0.127c-1.039,0-1.973,0.191-2.608,0.679
		c-0.573,0.424-0.892,1.103-0.892,1.972c0,1.548,0.997,2.291,2.376,2.291c1.146,0,2.354-0.552,2.927-1.421V115.47z"/>
	<path fill="#333333" d="M179.8,121.069c-0.552,0.191-1.379,0.318-1.994,0.318c-2.1,0-3.097-0.997-3.097-3.351v-6.83h-1.908
		c-0.043-0.106-0.063-0.36-0.063-0.488c0-0.106,0.021-0.36,0.063-0.466l1.908-0.127v-2.884c0.17-0.064,0.446-0.106,0.679-0.106
		c0.233,0,0.53,0.042,0.7,0.106v2.884h3.118c0.042,0.106,0.085,0.424,0.085,0.53c0,0.148-0.043,0.403-0.085,0.551h-3.118v6.703
		c0,1.675,0.488,2.375,1.803,2.375c0.722,0,1.421-0.106,1.909-0.255c0.042,0.106,0.085,0.361,0.085,0.509
		C179.885,120.73,179.863,120.878,179.8,121.069z"/>
	<path fill="#333333" d="M188.236,116.276c0,1.4,0.233,2.46,0.849,3.139c0.53,0.572,1.336,0.912,2.545,0.912s2.036-0.34,2.566-0.912
		c0.615-0.679,0.849-1.739,0.849-3.139v-9.438c0.19-0.063,0.53-0.106,0.721-0.106c0.212,0,0.53,0.042,0.722,0.106v9.227
		c0,1.887-0.361,3.203-1.252,4.093c-0.784,0.785-1.973,1.23-3.605,1.23s-2.8-0.445-3.584-1.23c-0.892-0.891-1.252-2.206-1.252-4.093
		v-9.227c0.17-0.063,0.467-0.106,0.722-0.106c0.254,0,0.509,0.042,0.721,0.106V116.276z"/>
	<path fill="#333333" d="M201.063,121.175c-0.233,0.063-0.467,0.106-0.721,0.106c-0.213,0-0.467-0.042-0.658-0.106v-15.483
		c0.191-0.042,0.425-0.106,0.7-0.106c0.233,0,0.488,0.042,0.679,0.106V121.175z"/>
	<path fill="#333333" d="M206.449,121.387c-1.061,0-2.163-0.191-2.927-0.488c-0.063-0.148-0.106-0.403-0.106-0.594
		c0-0.127,0.043-0.445,0.085-0.573c0.785,0.318,1.909,0.573,2.843,0.573c1.611,0,2.608-0.679,2.608-2.015
		c0-1.209-0.615-1.633-2.291-2.249c-2.333-0.848-3.097-1.824-3.097-3.266c0-1.951,1.612-2.863,3.691-2.863
		c0.699,0,1.611,0.127,2.142,0.297c0.063,0.191,0.085,0.382,0.085,0.509c0,0.17-0.042,0.467-0.085,0.615
		c-0.7-0.212-1.442-0.339-2.163-0.339c-1.506,0-2.418,0.573-2.418,1.739c0,1.018,0.572,1.506,2.312,2.164
		c1.591,0.594,3.055,1.188,3.055,3.33C210.183,120.391,208.549,121.387,206.449,121.387z"/>
	<path fill="#333333" d="M218.111,121.069c-0.552,0.191-1.379,0.318-1.994,0.318c-2.1,0-3.097-0.997-3.097-3.351v-6.83h-1.908
		c-0.043-0.106-0.063-0.36-0.063-0.488c0-0.106,0.021-0.36,0.063-0.466l1.908-0.127v-2.884c0.17-0.064,0.446-0.106,0.679-0.106
		c0.233,0,0.53,0.042,0.7,0.106v2.884h3.118c0.042,0.106,0.085,0.424,0.085,0.53c0,0.148-0.043,0.403-0.085,0.551h-3.118v6.703
		c0,1.675,0.488,2.375,1.803,2.375c0.722,0,1.421-0.106,1.909-0.255c0.042,0.106,0.085,0.361,0.085,0.509
		C218.196,120.73,218.175,120.878,218.111,121.069z"/>
	<path fill="#333333" d="M227.526,116.021h-7.105c0.085,2.439,1.23,4.284,3.882,4.284c0.954,0,1.846-0.127,2.63-0.318
		c0.043,0.106,0.085,0.318,0.085,0.446c0,0.212-0.042,0.403-0.106,0.551c-0.827,0.254-1.866,0.403-2.735,0.403
		c-1.676,0-2.948-0.53-3.733-1.378c-0.933-1.018-1.421-2.545-1.421-4.306c0-3.075,1.549-5.79,4.645-5.79
		c2.779,0,3.882,2.291,3.882,5.09C227.548,115.321,227.548,115.703,227.526,116.021z M226.169,115.003
		c0-1.952-0.212-4.051-2.566-4.051c-2.057,0-3.054,1.888-3.182,4.051H226.169z"/>
	<path fill="#333333" d="M234.798,111.143c-1.229,0.17-2.566,0.615-3.562,1.378v8.654c-0.213,0.063-0.467,0.106-0.7,0.106
		s-0.467-0.042-0.679-0.106v-11.05c0.127-0.042,0.318-0.085,0.53-0.085c0.17,0,0.402,0.042,0.572,0.085l0.106,1.357h0.021
		c0.911-0.785,2.502-1.442,3.711-1.569c0.043,0.127,0.085,0.36,0.085,0.551C234.883,110.676,234.841,110.952,234.798,111.143z"/>
	<path fill="#333333" d="M250.085,121.175c-0.19,0.063-0.424,0.106-0.636,0.106c-0.255,0-0.53-0.042-0.742-0.106v-6.702
		c0-2.333-0.594-3.394-2.566-3.394c-1.061,0-2.333,0.594-3.16,1.23v8.866c-0.233,0.063-0.488,0.106-0.722,0.106
		c-0.212,0-0.467-0.042-0.657-0.106v-15.483c0.19-0.064,0.487-0.106,0.679-0.106c0.19,0,0.509,0.042,0.7,0.106v5.451
		c1.124-0.87,2.46-1.23,3.499-1.23c1.082,0,2.185,0.36,2.8,1.103c0.679,0.806,0.806,1.973,0.806,3.118V121.175z"/>
	<path fill="#333333" d="M256.849,121.387c-2.779,0-4.561-1.909-4.561-5.727s1.803-5.748,4.581-5.748s4.539,1.888,4.539,5.705
		C261.408,119.436,259.627,121.387,256.849,121.387z M256.869,110.952c-2.036,0-3.139,1.569-3.139,4.688
		c0,3.118,1.082,4.708,3.118,4.708s3.117-1.591,3.117-4.708C259.966,112.521,258.905,110.952,256.869,110.952z"/>
	<path fill="#333333" d="M265.095,121.175c-0.233,0.063-0.467,0.106-0.721,0.106c-0.213,0-0.467-0.042-0.658-0.106v-15.483
		c0.191-0.042,0.425-0.106,0.7-0.106c0.233,0,0.488,0.042,0.679,0.106V121.175z"/>
	<path fill="#333333" d="M275.635,121.281c-0.191,0-0.424-0.063-0.552-0.106l-0.127-1.272h-0.021
		c-0.912,0.954-1.993,1.484-3.202,1.484c-2.928,0-4.327-2.439-4.327-5.408c0-2.948,1.251-6.066,4.624-6.066
		c1.061,0,2.036,0.36,2.82,0.912v-5.133c0.191-0.064,0.445-0.106,0.679-0.106c0.255,0,0.51,0.064,0.7,0.106v15.483
		C276.08,121.239,275.868,121.281,275.635,121.281z M274.85,111.992c-0.764-0.637-1.739-0.955-2.735-0.955
		c-2.461,0-3.288,2.418-3.288,4.878c0,1.888,0.594,4.348,2.97,4.348c1.146,0,2.312-0.573,3.054-1.463V111.992z"/>
</g>
<g>
	<path fill="#66A827" d="M42.996,166.43c-0.579,0.134-1.959,0.223-3.428,0.223c-1.158,0-2.494-0.134-3.072-0.223l-2.226-6.1H23.583
		l-2.093,6.1c-0.979,0.134-2.137,0.223-3.295,0.223s-2.494-0.089-3.161-0.223l10.508-30.099c0.623-0.133,2.093-0.223,3.072-0.223
		c1.202,0,2.627,0.089,3.117,0.223L42.996,166.43z M32.354,155.031l-2.627-8.504c-0.312-0.979-0.624-2.226-0.891-3.606h-0.089
		c-0.223,1.38-0.579,2.627-0.89,3.606l-2.494,8.504H32.354z"/>
	<path fill="#66A827" d="M59.069,165.984c-1.336,0.534-2.939,0.891-5.521,0.891c-5.031,0-7.524-2.449-7.524-7.347v-11.71h-3.83
		c-0.178-0.668-0.312-1.781-0.312-2.36c0-0.535,0.134-1.514,0.267-1.959l3.874-0.267v-5.966c0.49-0.089,2.048-0.178,3.072-0.178
		c1.113,0,2.493,0.089,3.072,0.178v5.966h6.412c0.178,0.624,0.268,1.514,0.268,2.004c0,0.534-0.045,1.959-0.223,2.583h-6.457v10.819
		c0,2.227,0.891,3.206,3.072,3.206c1.202,0,2.672-0.179,3.696-0.534c0.178,0.578,0.401,1.691,0.401,2.716
		C59.336,164.56,59.247,165.495,59.069,165.984z"/>
	<path fill="#66A827" d="M82.623,150.891v15.539c-0.712,0.178-2.226,0.223-2.938,0.223c-0.757,0-2.494-0.089-3.206-0.223v-15.183
		c0-2.405-1.247-3.474-3.25-3.474c-1.603,0-3.562,0.579-4.986,1.47v17.187c-1.024,0.178-2.449,0.223-3.25,0.223
		c-0.712,0-2.004-0.045-2.894-0.223v-32.459c0.579-0.133,1.87-0.223,2.983-0.223c1.113,0,2.494,0.089,3.162,0.223v10.909
		c1.959-1.247,4.675-2.093,7.035-2.093C80.174,142.787,82.623,145.814,82.623,150.891z"/>
	<path fill="#66A827" d="M105.999,156.99h-14.07c0.089,2.895,2.093,5.031,5.966,5.031c2.093,0,4.23-0.267,6.056-0.757
		c0.267,1.202,0.445,2.538,0.445,3.74c0,0.178,0,0.4-0.044,0.891c-2.271,0.668-4.631,0.979-6.946,0.979
		c-8.459,0-11.977-4.854-11.977-11.933c0-6.189,3.473-12.156,10.998-12.156c7.124,0,9.707,5.254,9.707,11.042
		C106.132,154.631,106.132,155.833,105.999,156.99z M99.987,152.582c0-2.805-0.757-5.165-3.651-5.165
		c-2.761,0-4.23,2.182-4.408,5.165H99.987z"/>
	<path fill="#66A827" d="M129.419,166.43c-0.713,0.178-2.227,0.223-2.939,0.223c-0.757,0-2.493-0.089-3.206-0.223v-15.228
		c0-2.404-1.247-3.429-3.25-3.429c-1.603,0-3.428,0.579-4.853,1.47v17.187c-1.024,0.178-2.449,0.223-3.25,0.223
		c-0.712,0-2.004-0.045-2.894-0.223v-23.198c0.579-0.133,2.003-0.223,2.671-0.223c0.624,0,1.915,0.089,2.583,0.223l0.312,2.048
		c2.004-1.469,4.898-2.494,7.48-2.494c4.897,0,7.347,3.028,7.347,8.104V166.43z"/>
	<path fill="#66A827" d="M152.037,159.974c0,1.914,0.045,4.097,0.045,6.456c-0.713,0.178-1.915,0.223-2.672,0.223
		c-0.846,0-1.959-0.089-2.671-0.223c-0.089-0.534-0.178-1.47-0.223-2.048h-0.089c-1.514,1.558-4.096,2.493-6.456,2.493
		c-4.453,0-7.659-2.761-7.659-7.347c0-7.124,6.323-8.326,11.621-8.326c0.356,0,1.202,0.045,1.915,0.089
		c0-0.267-0.044-0.846-0.089-1.068c-0.312-1.826-1.514-2.583-4.096-2.583c-2.004,0-4.809,0.401-6.946,0.935
		c-0.222-0.624-0.356-1.692-0.356-2.494c0-0.667,0.089-1.692,0.267-2.137c2.494-0.757,5.566-1.158,8.104-1.158
		c5.566,0,9.306,2.583,9.306,8.371V159.974z M145.893,155.565c-0.535-0.044-1.247-0.089-1.87-0.089
		c-4.007,0-5.566,1.603-5.566,3.606c0,1.736,1.158,2.938,3.162,2.938c1.469,0,3.117-0.712,4.274-1.736V155.565z"/>
	<path fill="#66A827" d="M173.721,166.875c-3.251,0-6.812-0.623-9.351-1.781c-0.134-0.623-0.223-1.425-0.223-2.137
		c0-1.069,0.134-2.093,0.445-3.295c2.627,1.068,6.1,1.736,8.816,1.736c3.161,0,4.853-1.47,4.853-3.473
		c0-2.227-1.425-3.162-5.743-4.497c-4.809-1.47-8.326-3.785-8.326-8.95c0-5.521,4.764-8.594,11.042-8.594
		c2.895,0,5.477,0.445,7.213,1.024c0.134,0.49,0.223,1.291,0.223,2.449c0,0.846-0.089,2.137-0.267,2.85
		c-2.227-0.579-4.765-0.891-6.812-0.891c-3.34,0-5.165,1.113-5.165,2.894c0,2.093,1.647,2.939,5.654,4.186
		c4.809,1.514,8.371,3.785,8.371,9.127C184.451,163.357,179.865,166.875,173.721,166.875z"/>
	<path fill="#66A827" d="M214.417,166.43c-0.579,0.089-1.736,0.223-2.983,0.223c-1.202,0-2.404-0.134-3.206-0.223l-3.65-14.871
		c-0.401-1.559-0.624-3.25-0.802-4.72h-0.045c-0.134,1.469-0.489,3.206-0.846,4.72l-3.606,14.871
		c-0.802,0.089-2.048,0.223-3.206,0.223c-1.113,0-2.449-0.134-3.072-0.223l-6.723-22.04c-0.713-2.315-1.158-5.076-1.158-8.059
		c0.936-0.178,2.093-0.223,3.072-0.223c1.647,0,2.449,0.089,3.161,0.223c0,2.894,0.401,5.299,0.936,7.347l2.716,10.286
		c0.4,1.603,0.802,3.695,1.024,5.699h0.089c0.223-2.004,0.578-4.097,0.979-5.744l4.186-17.587c0.801-0.133,1.558-0.223,2.359-0.223
		c0.846,0,1.603,0.089,2.449,0.223l4.274,17.632c0.4,1.603,0.846,3.695,1.068,5.699h0.089c0.223-2.004,0.623-4.097,1.068-5.744
		l2.85-10.241c0.579-2.048,1.024-4.453,1.024-7.347c0.713-0.133,2.004-0.223,3.34-0.223c0.89,0,2.092,0.089,2.938,0.223
		c0,3.295-0.49,5.789-1.202,8.059L214.417,166.43z"/>
	<path fill="#66A827" d="M248.834,166.43c-0.579,0.134-1.959,0.223-3.429,0.223c-1.157,0-2.493-0.134-3.071-0.223l-2.227-6.1
		h-10.687l-2.093,6.1c-0.979,0.134-2.137,0.223-3.295,0.223c-1.157,0-2.493-0.089-3.161-0.223l10.508-30.099
		c0.624-0.133,2.093-0.223,3.072-0.223c1.202,0,2.627,0.089,3.117,0.223L248.834,166.43z M238.192,155.031l-2.627-8.504
		c-0.312-0.979-0.623-2.226-0.891-3.606h-0.089c-0.223,1.38-0.579,2.627-0.891,3.606l-2.493,8.504H238.192z"/>
	<path fill="#66A827" d="M275.639,166.43c-0.445,0.089-1.514,0.178-2.271,0.178s-1.514-0.044-2.227-0.178l-13.847-19.279v19.279
		c-0.356,0.089-1.692,0.223-2.938,0.223c-1.024,0-2.227-0.134-2.85-0.223v-30.099c0.712-0.133,1.558-0.178,2.359-0.178
		c0.846,0,1.736,0.089,2.404,0.178l13.58,18.923v-18.923c0.891-0.133,2.048-0.223,2.895-0.223c0.846,0,2.093,0.089,2.894,0.223
		V166.43z"/>
</g>
<g>
	<path fill="#66A827" d="M27.145,209.041c-3.162,0-6.234-0.089-9.395-0.268v-30.01c2.583-0.178,6.011-0.267,8.326-0.267
		c6.857,0,11.042,2.093,11.042,7.747c0,2.85-1.202,4.986-4.007,6.233c3.74,0.891,6.145,3.606,6.145,7.258
		C39.256,206.682,34.224,209.041,27.145,209.041z M26.521,183.751c-0.801,0-1.692,0.044-2.404,0.089v6.768h2.493
		c2.895,0,4.274-0.935,4.274-3.651C30.885,184.151,28.703,183.751,26.521,183.751z M27.234,195.595h-3.117v8.104
		c0.846,0.044,2.093,0.089,2.938,0.089c3.963,0,5.877-1.113,5.877-4.097C32.933,196.618,31.286,195.595,27.234,195.595z"/>
	<path fill="#66A827" d="M55.196,190.341c-2.315,0.355-4.809,1.157-7.035,2.314v16.163c-0.624,0.134-1.959,0.223-3.028,0.223
		c-1.069,0-2.627-0.089-3.117-0.223v-23.197c0.667-0.09,1.781-0.223,2.671-0.223c0.757,0,1.959,0.089,2.583,0.223l0.356,2.85
		c1.647-1.47,4.631-3.072,7.525-3.295c0.089,0.355,0.178,1.647,0.178,2.582C55.33,188.648,55.285,189.717,55.196,190.341z"/>
	<path fill="#66A827" d="M66.906,209.264c-6.723,0-10.998-4.319-10.998-11.978c0-7.613,4.23-12.11,10.998-12.11
		c6.768,0,10.998,4.452,10.998,12.066C77.904,204.855,73.674,209.264,66.906,209.264z M66.906,189.984
		c-2.894,0-4.675,1.959-4.675,7.258c0,5.298,1.781,7.213,4.675,7.213s4.675-1.915,4.675-7.213
		C71.581,191.898,69.8,189.984,66.906,189.984z"/>
	<path fill="#66A827" d="M101.146,208.818c-0.712,0.178-2.226,0.223-2.938,0.223c-0.757,0-2.493-0.089-3.206-0.223v-15.228
		c0-2.404-1.247-3.429-3.25-3.429c-1.603,0-3.429,0.579-4.854,1.47v17.187c-1.024,0.178-2.449,0.223-3.25,0.223
		c-0.712,0-2.004-0.045-2.894-0.223v-23.197c0.579-0.134,2.003-0.223,2.671-0.223c0.623,0,1.915,0.089,2.583,0.223l0.312,2.048
		c2.003-1.47,4.898-2.493,7.48-2.493c4.897,0,7.346,3.027,7.346,8.104V208.818z"/>
	<path fill="#66A827" d="M123.008,189.628l-10.998,14.516h10.508c0.178,0.534,0.267,1.335,0.267,2.359
		c0,0.534-0.044,1.647-0.223,2.315h-17.988c-0.178-0.579-0.356-1.559-0.356-2.137c0-0.535,0.089-1.336,0.178-1.915l10.909-14.471
		h-10.018c-0.178-0.668-0.267-1.514-0.267-2.404c0-0.668,0.134-1.781,0.312-2.271h17.499c0.178,0.534,0.356,1.38,0.356,2.137
		C123.186,188.292,123.097,189.271,123.008,189.628z"/>
	<path fill="#66A827" d="M145.092,199.379h-14.07c0.089,2.895,2.093,5.031,5.966,5.031c2.093,0,4.23-0.267,6.056-0.757
		c0.267,1.202,0.445,2.538,0.445,3.74c0,0.178,0,0.4-0.044,0.891c-2.271,0.668-4.631,0.979-6.946,0.979
		c-8.459,0-11.977-4.854-11.977-11.933c0-6.189,3.473-12.155,10.998-12.155c7.124,0,9.707,5.254,9.707,11.042
		C145.226,197.02,145.226,198.222,145.092,199.379z M139.081,194.971c0-2.805-0.757-5.165-3.651-5.165
		c-2.761,0-4.23,2.183-4.408,5.165H139.081z"/>
	<path fill="#66A827" d="M182.671,208.818c-0.579,0.134-1.959,0.223-3.429,0.223c-1.157,0-2.493-0.134-3.072-0.223l-2.226-6.1
		h-10.687l-2.093,6.1c-0.979,0.134-2.137,0.223-3.295,0.223c-1.157,0-2.493-0.089-3.161-0.223l10.508-30.099
		c0.624-0.134,2.093-0.223,3.072-0.223c1.202,0,2.627,0.089,3.117,0.223L182.671,208.818z M172.029,197.42l-2.627-8.504
		c-0.312-0.979-0.623-2.227-0.891-3.607h-0.089c-0.223,1.381-0.579,2.628-0.891,3.607l-2.493,8.504H172.029z"/>
	<path fill="#66A827" d="M207.16,208.818c-0.534,0.134-2.138,0.223-3.027,0.223c-0.936,0-2.315-0.089-2.806-0.223l-3.562-14.827
		h-0.09l-3.606,14.827c-0.445,0.089-2.137,0.223-2.938,0.223c-1.023,0-2.716-0.134-3.072-0.223l-4.897-16.385
		c-0.623-2.093-1.024-4.676-1.068-6.812c0.712-0.134,1.691-0.223,2.76-0.223c0.979,0,2.315,0.133,2.895,0.223
		c0,1.736,0.312,3.918,0.802,5.966l2.627,10.464h0.089l4.319-16.43c0.489-0.09,1.157-0.179,2.271-0.179
		c0.935,0,1.647,0.089,2.226,0.179l4.053,16.43h0.089l3.116-10.464c0.534-2.003,0.891-4.229,0.891-5.966
		c0.579-0.09,1.915-0.223,2.895-0.223c1.068,0,1.959,0.089,2.671,0.223c-0.044,2.315-0.355,4.052-1.023,6.1L207.16,208.818z"/>
	<path fill="#66A827" d="M234.098,202.362c0,1.914,0.045,4.097,0.045,6.456c-0.713,0.178-1.915,0.223-2.672,0.223
		c-0.846,0-1.959-0.089-2.671-0.223c-0.09-0.534-0.179-1.47-0.223-2.048h-0.09c-1.514,1.558-4.096,2.493-6.456,2.493
		c-4.452,0-7.658-2.761-7.658-7.347c0-7.124,6.322-8.326,11.621-8.326c0.356,0,1.202,0.045,1.915,0.089
		c0-0.267-0.045-0.846-0.089-1.068c-0.312-1.825-1.515-2.583-4.097-2.583c-2.004,0-4.809,0.401-6.946,0.936
		c-0.223-0.623-0.355-1.692-0.355-2.493c0-0.668,0.089-1.692,0.267-2.138c2.493-0.757,5.565-1.157,8.104-1.157
		c5.565,0,9.306,2.582,9.306,8.37V202.362z M227.953,197.954c-0.534-0.044-1.246-0.089-1.87-0.089c-4.007,0-5.565,1.603-5.565,3.606
		c0,1.736,1.158,2.938,3.161,2.938c1.47,0,3.117-0.712,4.274-1.736V197.954z"/>
	<path fill="#66A827" d="M251.463,190.341c-2.315,0.355-4.81,1.157-7.035,2.314v16.163c-0.624,0.134-1.959,0.223-3.028,0.223
		c-1.068,0-2.627-0.089-3.116-0.223v-23.197c0.668-0.09,1.781-0.223,2.671-0.223c0.758,0,1.96,0.089,2.583,0.223l0.356,2.85
		c1.647-1.47,4.63-3.072,7.524-3.295c0.089,0.355,0.178,1.647,0.178,2.582C251.596,188.648,251.552,189.717,251.463,190.341z"/>
	<path fill="#66A827" d="M273.19,208.818c-0.712,0.134-1.914,0.223-2.85,0.223c-0.846,0-1.825-0.089-2.448-0.223l-0.179-2.048
		c-1.603,1.558-3.65,2.493-6.056,2.493c-6.634,0-9.483-5.299-9.483-11.666c0-6.856,3.072-12.422,10.151-12.422
		c1.737,0,3.74,0.534,4.72,1.157v-9.974c0.802-0.134,2.138-0.223,3.117-0.223c1.202,0,2.137,0.134,3.027,0.223V208.818z
		 M267.046,190.919c-1.068-0.489-2.448-0.757-3.606-0.757c-3.606,0-4.942,3.206-4.942,7.08c0,3.25,0.802,6.945,4.408,6.945
		c1.736,0,3.072-0.712,4.141-1.603V190.919z"/>
	<path fill="#66A827" d="M284.188,209.264c-2.627,0-5.388-0.4-7.524-1.113c-0.134-0.668-0.178-1.514-0.178-2.404
		c0-0.712,0.178-1.736,0.355-2.359c2.049,0.712,4.987,1.202,6.724,1.202c2.404,0,3.784-0.802,3.784-2.449
		c0-1.425-1.112-2.093-4.052-3.027c-4.675-1.47-6.856-3.651-6.856-7.035c0-5.031,4.631-6.901,9.038-6.901
		c2.049,0,4.319,0.355,5.878,0.846c0.178,0.668,0.267,1.603,0.267,2.137c0,0.579-0.178,1.781-0.4,2.538
		c-1.514-0.445-3.606-0.801-5.343-0.801c-2.138,0-3.606,0.534-3.606,1.87c0,1.425,1.647,2.003,4.229,2.85
		c4.497,1.469,6.635,3.339,6.635,6.856C293.138,206.903,288.773,209.264,284.188,209.264z"/>
</g>
</svg>
