<?xml version="1.0" encoding="utf-8"?>
<!-- Generator: Adobe Illustrator 16.0.0, SVG Export Plug-In . SVG Version: 6.00 Build 0)  -->
<!DOCTYPE svg PUBLIC "-//W3C//DTD SVG 1.1//EN" "http://www.w3.org/Graphics/SVG/1.1/DTD/svg11.dtd">
<svg version="1.1" id="Layer_1" xmlns="http://www.w3.org/2000/svg" xmlns:xlink="http://www.w3.org/1999/xlink" x="0px" y="0px"
	 width="300px" height="300px" viewBox="0 0 300 300" enable-background="new 0 0 300 300" xml:space="preserve">
<g>
	<path fill="#59A6AE" d="M82.609,194.72H24.71c-0.664-1.461-1.328-4.913-1.328-7.437c0-1.859,0.266-4.516,0.531-6.374
		c7.569-2.789,10.491-7.437,10.491-16.201v-10.226h-9.827c-0.398-2.391-0.797-5.71-0.797-7.437c0-2.39,0.266-5.179,0.797-7.437
		h9.827v-6.772c0-17.928,10.491-29.216,29.747-29.216c7.038,0,14.475,1.461,18.724,3.188c0.398,1.328,0.664,4.648,0.664,6.108
		c0,2.391-0.398,6.109-0.93,8.765c-4.117-1.593-10.756-2.789-16.334-2.789c-9.163,0-12.881,4.515-12.881,14.077v6.64h19.654
		c0.531,2.257,0.797,5.046,0.797,7.437c0,1.727-0.266,5.179-0.797,7.437H53.394v9.562c0,6.241-2.257,11.686-8.101,15.537v0.133
		h37.183c0.531,1.859,0.797,5.312,0.797,7.702C83.273,189.541,83.008,192.595,82.609,194.72z"/>
	<path fill="#59A6AE" d="M116.736,196.048c-7.171,0-17.794-1.461-25.099-3.984c-0.266-0.93-0.664-3.319-0.664-5.976
		c0-2.922,0.398-5.976,1.195-8.499c6.109,1.859,15.537,3.055,22.974,3.055c9.429,0,15.537-5.047,15.537-14.077
		c0-3.851-1.062-7.304-3.32-9.562c-2.921-2.921-7.835-4.116-15.006-4.116H94.957v-47.94h50.198c0.398,2.125,0.664,5.445,0.664,7.835
		c0,2.523-0.398,6.906-0.664,8.499h-33.2v16.467h5.843c10.358,0,18.592,1.859,24.435,6.906c5.179,4.515,8.101,11.421,8.101,20.981
		C150.333,185.955,134.796,196.048,116.736,196.048z"/>
	<path fill="#59A6AE" d="M263.873,194.72c-2.125,0.531-6.64,0.664-8.765,0.664c-2.258,0-7.437-0.266-9.562-0.664v-41.698
		c0-5.046-0.133-8.765-1.992-11.022c-1.727-2.125-4.382-2.921-7.702-2.921c-4.515,0-10.89,1.992-15.006,4.515
		c0.133,2.258,0.266,4.515,0.266,7.171v43.956c-2.125,0.531-6.64,0.664-8.765,0.664c-2.258,0-7.437-0.266-9.562-0.664v-41.698
		c0-5.046-0.133-8.765-1.992-11.022c-1.727-2.125-4.382-2.921-7.702-2.921c-4.647,0-10.624,1.859-14.74,4.382v51.26
		c-3.055,0.531-7.304,0.664-9.694,0.664c-2.125,0-5.976-0.133-8.632-0.664v-69.188c1.727-0.398,5.976-0.664,7.968-0.664
		c1.859,0,5.71,0.266,7.702,0.664l0.797,6.242c5.843-4.382,14.209-7.569,21.646-7.569c7.702,0,14.475,2.656,19.653,8.366
		c7.171-4.914,15.803-8.366,24.567-8.366c6.508,0,13.147,2.656,16.467,6.64c4.117,4.914,5.047,11.288,5.047,20.982V194.72z"/>
</g>
<g>
	<path fill="#333333" d="M66.575,89.448c-0.217,0.082-0.571,0.136-0.952,0.136c-0.326,0-0.734-0.054-0.979-0.136l-1.659-4.758H55.4
		l-1.604,4.786c-0.19,0.054-0.625,0.108-0.924,0.108c-0.327,0-0.68-0.054-0.952-0.136l6.254-18.381
		c0.299-0.082,0.652-0.136,0.924-0.136c0.299,0,0.625,0.054,0.87,0.136L66.575,89.448z M59.94,76.043
		c-0.271-0.734-0.598-1.794-0.843-2.746c-0.272,0.924-0.598,2.012-0.843,2.746l-2.393,7.206h6.607L59.94,76.043z"/>
	<path fill="#333333" d="M84.469,78.083l-3.644,11.366c-0.217,0.082-0.625,0.136-0.843,0.136c-0.245,0-0.653-0.054-0.843-0.136
		l-3.263-10.985h-0.054l-3.426,10.985c-0.245,0.082-0.625,0.136-0.843,0.136c-0.218,0-0.571-0.054-0.816-0.136l-3.372-11.203
		c-0.299-0.925-0.435-1.985-0.462-2.991c0.218-0.054,0.653-0.109,0.925-0.109c0.299,0,0.571,0.055,0.815,0.136
		c0.027,0.979,0.19,2.012,0.435,2.909l2.475,8.837h0.027l3.535-11.774c0.19-0.054,0.571-0.082,0.761-0.082s0.598,0.027,0.761,0.082
		l3.345,11.774h0.027l2.719-8.81c0.299-1.006,0.517-1.958,0.571-2.937c0.19-0.082,0.652-0.136,0.897-0.136
		c0.245,0,0.625,0.055,0.788,0.136C84.985,76.206,84.768,77.131,84.469,78.083z"/>
	<path fill="#333333" d="M97.007,85.968c0,0.979,0,2.203,0.055,3.48c-0.19,0.082-0.489,0.136-0.734,0.136
		c-0.217,0-0.517-0.054-0.734-0.136c-0.082-0.435-0.136-1.006-0.163-1.522h-0.027c-0.924,1.142-2.556,1.794-4.16,1.794
		c-2.529,0-4.65-1.414-4.65-4.323c0-1.659,0.68-2.882,1.74-3.644c1.196-0.843,2.773-1.115,4.459-1.115
		c0.952,0,1.74,0.055,2.447,0.163v-0.789c0-2.719-1.115-3.616-3.399-3.616c-1.278,0-2.855,0.272-3.834,0.517
		c-0.054-0.136-0.109-0.435-0.109-0.707c0-0.19,0.055-0.462,0.136-0.625c1.169-0.354,2.719-0.571,4.024-0.571
		c3.236,0,4.949,1.468,4.949,4.786V85.968z M95.24,82.134c-0.789-0.109-1.604-0.163-2.312-0.163c-1.332,0-2.529,0.245-3.344,0.87
		c-0.734,0.544-1.142,1.414-1.142,2.529c0,1.985,1.278,2.937,3.045,2.937c1.468,0,3.018-0.707,3.752-1.822V82.134z"/>
	<path fill="#333333" d="M106.852,76.587c-1.577,0.217-3.29,0.789-4.568,1.768v11.094c-0.271,0.082-0.598,0.136-0.897,0.136
		c-0.299,0-0.598-0.054-0.87-0.136V75.282c0.163-0.055,0.408-0.109,0.68-0.109c0.217,0,0.517,0.054,0.734,0.109l0.136,1.74h0.027
		c1.169-1.006,3.208-1.849,4.758-2.012c0.054,0.163,0.109,0.462,0.109,0.707C106.961,75.989,106.906,76.342,106.852,76.587z"/>
	<path fill="#333333" d="M118.41,89.584c-0.245,0-0.544-0.082-0.707-0.136l-0.163-1.631h-0.027
		c-1.169,1.224-2.556,1.903-4.106,1.903c-3.752,0-5.547-3.127-5.547-6.934c0-3.78,1.604-7.777,5.928-7.777
		c1.359,0,2.61,0.462,3.616,1.169v-6.58c0.245-0.082,0.571-0.136,0.87-0.136c0.326,0,0.653,0.082,0.897,0.136v19.85
		C118.98,89.53,118.708,89.584,118.41,89.584z M117.403,77.674c-0.979-0.815-2.229-1.224-3.508-1.224
		c-3.154,0-4.214,3.1-4.214,6.254c0,2.42,0.761,5.574,3.807,5.574c1.468,0,2.964-0.734,3.916-1.876V77.674z"/>
	<path fill="#333333" d="M132.741,82.841h-9.109c0.109,3.127,1.577,5.493,4.976,5.493c1.224,0,2.366-0.163,3.372-0.408
		c0.055,0.136,0.109,0.408,0.109,0.571c0,0.272-0.054,0.517-0.136,0.707c-1.061,0.326-2.393,0.517-3.508,0.517
		c-2.148,0-3.78-0.68-4.786-1.768c-1.196-1.305-1.822-3.263-1.822-5.52c0-3.943,1.985-7.423,5.955-7.423
		c3.562,0,4.976,2.937,4.976,6.526C132.769,81.943,132.769,82.433,132.741,82.841z M131.001,81.536c0-2.501-0.271-5.193-3.29-5.193
		c-2.637,0-3.916,2.42-4.079,5.193H131.001z"/>
	<path fill="#333333" d="M145.251,89.584c-0.245,0-0.544-0.082-0.707-0.136l-0.163-1.631h-0.027
		c-1.169,1.224-2.556,1.903-4.106,1.903c-3.752,0-5.547-3.127-5.547-6.934c0-3.78,1.604-7.777,5.928-7.777
		c1.359,0,2.61,0.462,3.616,1.169v-6.58c0.245-0.082,0.571-0.136,0.87-0.136c0.326,0,0.653,0.082,0.897,0.136v19.85
		C145.822,89.53,145.55,89.584,145.251,89.584z M144.245,77.674c-0.979-0.815-2.229-1.224-3.508-1.224
		c-3.154,0-4.214,3.1-4.214,6.254c0,2.42,0.761,5.574,3.807,5.574c1.468,0,2.964-0.734,3.916-1.876V77.674z"/>
</g>
<g>
	<path fill="#333333" d="M26.002,232.17c-0.707,0.244-1.768,0.407-2.556,0.407c-2.692,0-3.97-1.277-3.97-4.296v-8.756h-2.447
		c-0.054-0.136-0.082-0.462-0.082-0.625c0-0.136,0.027-0.462,0.082-0.599l2.447-0.163v-3.697c0.218-0.082,0.571-0.137,0.87-0.137
		c0.299,0,0.68,0.055,0.897,0.137v3.697h3.997c0.054,0.137,0.109,0.544,0.109,0.68c0,0.19-0.055,0.518-0.109,0.707h-3.997v8.593
		c0,2.148,0.625,3.046,2.311,3.046c0.925,0,1.822-0.137,2.447-0.327c0.055,0.137,0.109,0.463,0.109,0.653
		C26.111,231.734,26.083,231.925,26.002,232.17z"/>
	<path fill="#333333" d="M33.182,232.577c-3.562,0-5.846-2.446-5.846-7.341s2.311-7.369,5.873-7.369s5.819,2.42,5.819,7.314
		S36.744,232.577,33.182,232.577z M33.209,219.199c-2.61,0-4.024,2.013-4.024,6.01s1.387,6.036,3.997,6.036s3.997-2.039,3.997-6.036
		S35.819,219.199,33.209,219.199z"/>
	<path fill="#333333" d="M57.085,219.853c-0.87-0.354-2.012-0.571-3.018-0.571c-3.535,0-4.84,2.746-4.84,6.063
		c0,3.263,1.25,5.792,4.812,5.792c0.952,0,2.094-0.163,2.937-0.408c0.055,0.163,0.109,0.354,0.109,0.571
		c0,0.326-0.054,0.571-0.136,0.761c-0.789,0.327-2.066,0.517-3.073,0.517c-4.432,0-6.499-2.909-6.499-7.178
		c0-4.433,2.257-7.532,6.58-7.532c1.033,0,2.257,0.245,3.1,0.625c0.082,0.218,0.108,0.436,0.108,0.68
		C57.167,219.444,57.14,219.662,57.085,219.853z"/>
	<path fill="#333333" d="M65.163,232.577c-3.562,0-5.846-2.446-5.846-7.341s2.311-7.369,5.873-7.369s5.819,2.42,5.819,7.314
		S68.725,232.577,65.163,232.577z M65.19,219.199c-2.61,0-4.024,2.013-4.024,6.01s1.387,6.036,3.997,6.036s3.997-2.039,3.997-6.036
		S67.8,219.199,65.19,219.199z"/>
	<path fill="#333333" d="M84.906,232.333c-0.218,0.055-0.544,0.108-0.87,0.108c-0.272,0-0.625-0.054-0.897-0.136v-8.619
		c0-1.306-0.163-2.312-0.544-3.019c-0.462-0.87-1.332-1.306-2.746-1.306c-1.359,0-2.991,0.762-4.052,1.577v11.366
		c-0.299,0.082-0.598,0.136-0.924,0.136c-0.272,0-0.598-0.054-0.843-0.136v-14.167c0.19-0.081,0.517-0.108,0.707-0.108
		c0.272,0,0.598,0.027,0.761,0.108l0.136,1.414h0.027c1.496-1.224,3.208-1.686,4.595-1.686s2.828,0.462,3.617,1.414
		c0.87,1.033,1.033,2.528,1.033,3.997V232.333z"/>
	<path fill="#333333" d="M98.422,232.441c-0.245,0-0.544-0.081-0.707-0.136l-0.163-1.632h-0.027
		c-1.169,1.224-2.556,1.903-4.106,1.903c-3.752,0-5.547-3.127-5.547-6.934c0-3.779,1.604-7.776,5.928-7.776
		c1.359,0,2.61,0.462,3.616,1.169v-6.58c0.245-0.081,0.571-0.136,0.87-0.136c0.326,0,0.653,0.081,0.897,0.136v19.85
		C98.993,232.388,98.721,232.441,98.422,232.441z M97.416,220.532c-0.979-0.816-2.229-1.224-3.508-1.224
		c-3.154,0-4.214,3.1-4.214,6.254c0,2.42,0.761,5.574,3.807,5.574c1.468,0,2.964-0.734,3.916-1.877V220.532z"/>
	<path fill="#333333" d="M113.434,226.922c0,4.133-1.713,5.655-5.302,5.655c-3.671,0-5.221-1.522-5.221-5.52v-8.919
		c0.245-0.081,0.571-0.136,0.87-0.136c0.38,0,0.68,0.082,0.897,0.136v8.701c0,2.638,0.408,4.378,3.48,4.378
		c2.882,0,3.508-1.686,3.508-4.432v-8.647c0.218-0.081,0.598-0.136,0.897-0.136c0.299,0,0.625,0.055,0.87,0.136V226.922z"/>
	<path fill="#333333" d="M126.107,219.853c-0.87-0.354-2.012-0.571-3.018-0.571c-3.535,0-4.84,2.746-4.84,6.063
		c0,3.263,1.25,5.792,4.812,5.792c0.952,0,2.094-0.163,2.937-0.408c0.055,0.163,0.109,0.354,0.109,0.571
		c0,0.326-0.054,0.571-0.136,0.761c-0.789,0.327-2.066,0.517-3.073,0.517c-4.432,0-6.499-2.909-6.499-7.178
		c0-4.433,2.257-7.532,6.58-7.532c1.033,0,2.257,0.245,3.1,0.625c0.082,0.218,0.108,0.436,0.108,0.68
		C126.188,219.444,126.162,219.662,126.107,219.853z"/>
	<path fill="#333333" d="M136.822,232.17c-0.707,0.244-1.767,0.407-2.556,0.407c-2.692,0-3.97-1.277-3.97-4.296v-8.756h-2.447
		c-0.054-0.136-0.082-0.462-0.082-0.625c0-0.136,0.027-0.462,0.082-0.599l2.447-0.163v-3.697c0.218-0.082,0.571-0.137,0.87-0.137
		c0.299,0,0.68,0.055,0.897,0.137v3.697h3.997c0.054,0.137,0.109,0.544,0.109,0.68c0,0.19-0.055,0.518-0.109,0.707h-3.997v8.593
		c0,2.148,0.625,3.046,2.311,3.046c0.925,0,1.822-0.137,2.447-0.327c0.055,0.137,0.109,0.463,0.109,0.653
		C136.931,231.734,136.903,231.925,136.822,232.17z"/>
	<path fill="#333333" d="M152.023,219.444c-1.577,0.218-3.29,0.788-4.568,1.768v11.094c-0.271,0.082-0.598,0.136-0.897,0.136
		c-0.299,0-0.598-0.054-0.87-0.136v-14.167c0.163-0.054,0.408-0.108,0.68-0.108c0.217,0,0.517,0.055,0.734,0.108l0.136,1.74h0.027
		c1.169-1.006,3.208-1.849,4.758-2.012c0.055,0.163,0.109,0.462,0.109,0.707C152.133,218.846,152.078,219.199,152.023,219.444z"/>
	<path fill="#333333" d="M164.343,225.698h-9.108c0.108,3.127,1.577,5.492,4.976,5.492c1.224,0,2.365-0.163,3.372-0.407
		c0.054,0.136,0.108,0.407,0.108,0.57c0,0.272-0.055,0.518-0.136,0.707c-1.061,0.327-2.393,0.517-3.508,0.517
		c-2.148,0-3.779-0.68-4.786-1.767c-1.196-1.306-1.821-3.264-1.821-5.521c0-3.942,1.984-7.423,5.955-7.423
		c3.562,0,4.976,2.937,4.976,6.525C164.37,224.801,164.37,225.29,164.343,225.698z M162.603,224.393c0-2.501-0.271-5.193-3.29-5.193
		c-2.638,0-3.915,2.42-4.078,5.193H162.603z"/>
	<path fill="#333333" d="M170.599,232.577c-1.359,0-2.773-0.244-3.752-0.625c-0.082-0.19-0.136-0.517-0.136-0.762
		c0-0.163,0.054-0.57,0.108-0.733c1.006,0.407,2.447,0.733,3.644,0.733c2.066,0,3.345-0.87,3.345-2.583
		c0-1.55-0.789-2.094-2.937-2.882c-2.991-1.088-3.971-2.339-3.971-4.188c0-2.502,2.067-3.671,4.731-3.671
		c0.897,0,2.066,0.163,2.747,0.381c0.081,0.244,0.108,0.489,0.108,0.652c0,0.218-0.055,0.599-0.108,0.789
		c-0.897-0.272-1.85-0.436-2.774-0.436c-1.93,0-3.1,0.734-3.1,2.229c0,1.306,0.734,1.931,2.964,2.773
		c2.04,0.762,3.916,1.522,3.916,4.27C175.385,231.3,173.291,232.577,170.599,232.577z"/>
	<path fill="#333333" d="M188.519,225.698h-9.108c0.108,3.127,1.577,5.492,4.976,5.492c1.224,0,2.365-0.163,3.372-0.407
		c0.054,0.136,0.108,0.407,0.108,0.57c0,0.272-0.055,0.518-0.136,0.707c-1.061,0.327-2.393,0.517-3.508,0.517
		c-2.148,0-3.779-0.68-4.786-1.767c-1.196-1.306-1.821-3.264-1.821-5.521c0-3.942,1.984-7.423,5.955-7.423
		c3.562,0,4.976,2.937,4.976,6.525C188.546,224.801,188.546,225.29,188.519,225.698z M186.778,224.393
		c0-2.501-0.271-5.193-3.29-5.193c-2.638,0-3.915,2.42-4.078,5.193H186.778z"/>
	<path fill="#333333" d="M201.301,228.825c0,0.979,0,2.202,0.054,3.48c-0.189,0.082-0.489,0.136-0.733,0.136
		c-0.218,0-0.517-0.054-0.734-0.136c-0.082-0.435-0.136-1.006-0.163-1.522h-0.027c-0.925,1.142-2.556,1.794-4.16,1.794
		c-2.529,0-4.649-1.413-4.649-4.323c0-1.658,0.68-2.882,1.74-3.644c1.196-0.843,2.773-1.114,4.459-1.114
		c0.951,0,1.74,0.054,2.447,0.163v-0.789c0-2.719-1.115-3.616-3.399-3.616c-1.277,0-2.854,0.271-3.834,0.517
		c-0.054-0.136-0.108-0.435-0.108-0.707c0-0.19,0.055-0.462,0.136-0.625c1.17-0.354,2.72-0.571,4.024-0.571
		c3.236,0,4.949,1.469,4.949,4.785V228.825z M199.533,224.991c-0.789-0.108-1.604-0.163-2.312-0.163
		c-1.332,0-2.528,0.245-3.345,0.87c-0.733,0.544-1.142,1.414-1.142,2.528c0,1.985,1.278,2.938,3.045,2.938
		c1.469,0,3.019-0.707,3.753-1.822V224.991z"/>
	<path fill="#333333" d="M211.526,219.444c-1.577,0.218-3.29,0.788-4.568,1.768v11.094c-0.271,0.082-0.598,0.136-0.897,0.136
		c-0.299,0-0.598-0.054-0.87-0.136v-14.167c0.163-0.054,0.408-0.108,0.68-0.108c0.218,0,0.517,0.055,0.734,0.108l0.136,1.74h0.027
		c1.17-1.006,3.209-1.849,4.759-2.012c0.055,0.163,0.108,0.462,0.108,0.707C211.635,218.846,211.581,219.199,211.526,219.444z"/>
	<path fill="#333333" d="M222.649,219.853c-0.87-0.354-2.012-0.571-3.019-0.571c-3.534,0-4.84,2.746-4.84,6.063
		c0,3.263,1.251,5.792,4.813,5.792c0.951,0,2.094-0.163,2.937-0.408c0.054,0.163,0.108,0.354,0.108,0.571
		c0,0.326-0.055,0.571-0.136,0.761c-0.789,0.327-2.066,0.517-3.072,0.517c-4.433,0-6.499-2.909-6.499-7.178
		c0-4.433,2.257-7.532,6.58-7.532c1.033,0,2.257,0.245,3.1,0.625c0.082,0.218,0.109,0.436,0.109,0.68
		C222.731,219.444,222.704,219.662,222.649,219.853z"/>
	<path fill="#333333" d="M236.573,232.306c-0.245,0.082-0.544,0.136-0.815,0.136c-0.327,0-0.681-0.054-0.952-0.136v-8.593
		c0-2.99-0.762-4.351-3.29-4.351c-1.359,0-2.991,0.762-4.052,1.577v11.366c-0.299,0.082-0.625,0.136-0.924,0.136
		c-0.272,0-0.599-0.054-0.844-0.136v-19.85c0.245-0.081,0.626-0.136,0.87-0.136c0.245,0,0.653,0.055,0.897,0.136v6.988
		c1.441-1.115,3.154-1.577,4.486-1.577c1.387,0,2.801,0.462,3.59,1.414c0.87,1.033,1.033,2.528,1.033,3.997V232.306z"/>
	<path fill="#333333" d="M247.425,215.365c-0.626,0-1.143-0.544-1.143-1.196s0.517-1.169,1.143-1.169
		c0.625,0,1.169,0.517,1.169,1.169S248.05,215.365,247.425,215.365z M248.322,232.306c-0.245,0.082-0.599,0.136-0.897,0.136
		c-0.3,0-0.626-0.054-0.87-0.136v-14.167c0.217-0.054,0.57-0.136,0.843-0.136c0.299,0,0.707,0.055,0.925,0.136V232.306z"/>
	<path fill="#333333" d="M263.115,232.333c-0.218,0.055-0.544,0.108-0.87,0.108c-0.272,0-0.626-0.054-0.897-0.136v-8.619
		c0-1.306-0.163-2.312-0.544-3.019c-0.462-0.87-1.332-1.306-2.746-1.306c-1.359,0-2.991,0.762-4.052,1.577v11.366
		c-0.299,0.082-0.598,0.136-0.924,0.136c-0.272,0-0.599-0.054-0.844-0.136v-14.167c0.19-0.081,0.517-0.108,0.707-0.108
		c0.272,0,0.599,0.027,0.762,0.108l0.136,1.414h0.027c1.495-1.224,3.209-1.686,4.596-1.686s2.827,0.462,3.616,1.414
		c0.87,1.033,1.033,2.528,1.033,3.997V232.333z"/>
</g>
<g>
	<path fill="#333333" d="M28.232,264.15c-0.245,0-0.544-0.081-0.707-0.136l-0.163-1.632h-0.027
		c-1.169,1.224-2.556,1.903-4.106,1.903c-3.752,0-5.547-3.127-5.547-6.934c0-3.779,1.604-7.776,5.928-7.776
		c1.359,0,2.61,0.462,3.616,1.169v-6.58c0.245-0.081,0.571-0.136,0.87-0.136c0.326,0,0.653,0.081,0.897,0.136v19.85
		C28.803,264.097,28.531,264.15,28.232,264.15z M27.226,252.241c-0.979-0.816-2.229-1.224-3.508-1.224
		c-3.154,0-4.214,3.1-4.214,6.254c0,2.42,0.761,5.574,3.807,5.574c1.468,0,2.964-0.734,3.916-1.877V252.241z"/>
	<path fill="#333333" d="M42.482,260.534c0,0.979,0,2.202,0.054,3.48c-0.19,0.082-0.49,0.136-0.734,0.136
		c-0.217,0-0.517-0.054-0.734-0.136c-0.082-0.435-0.136-1.006-0.163-1.522h-0.027c-0.924,1.142-2.556,1.794-4.16,1.794
		c-2.529,0-4.65-1.413-4.65-4.323c0-1.658,0.68-2.882,1.74-3.644c1.196-0.843,2.773-1.114,4.459-1.114
		c0.952,0,1.74,0.054,2.447,0.163v-0.789c0-2.719-1.115-3.616-3.399-3.616c-1.278,0-2.855,0.271-3.834,0.517
		c-0.054-0.136-0.109-0.435-0.109-0.707c0-0.19,0.055-0.462,0.136-0.625c1.169-0.354,2.719-0.571,4.024-0.571
		c3.236,0,4.949,1.469,4.949,4.785V260.534z M40.715,256.7c-0.789-0.108-1.604-0.163-2.312-0.163c-1.332,0-2.529,0.245-3.344,0.87
		c-0.734,0.544-1.142,1.414-1.142,2.528c0,1.985,1.278,2.938,3.045,2.938c1.468,0,3.018-0.707,3.752-1.822V256.7z"/>
	<path fill="#333333" d="M53.904,263.879c-0.707,0.244-1.767,0.407-2.556,0.407c-2.692,0-3.97-1.277-3.97-4.296v-8.756h-2.447
		c-0.054-0.136-0.082-0.462-0.082-0.625c0-0.136,0.027-0.462,0.082-0.599l2.447-0.163v-3.697c0.218-0.082,0.571-0.137,0.87-0.137
		c0.299,0,0.68,0.055,0.897,0.137v3.697h3.997c0.054,0.137,0.109,0.544,0.109,0.68c0,0.19-0.055,0.518-0.109,0.707h-3.997v8.593
		c0,2.148,0.625,3.046,2.311,3.046c0.925,0,1.822-0.137,2.447-0.327c0.055,0.137,0.109,0.463,0.109,0.653
		C54.013,263.443,53.985,263.634,53.904,263.879z"/>
	<path fill="#333333" d="M66.114,260.534c0,0.979,0,2.202,0.055,3.48c-0.19,0.082-0.489,0.136-0.734,0.136
		c-0.217,0-0.517-0.054-0.734-0.136c-0.082-0.435-0.136-1.006-0.163-1.522H64.51c-0.924,1.142-2.556,1.794-4.16,1.794
		c-2.529,0-4.65-1.413-4.65-4.323c0-1.658,0.68-2.882,1.74-3.644c1.196-0.843,2.773-1.114,4.459-1.114
		c0.952,0,1.74,0.054,2.447,0.163v-0.789c0-2.719-1.115-3.616-3.399-3.616c-1.278,0-2.855,0.271-3.834,0.517
		c-0.054-0.136-0.109-0.435-0.109-0.707c0-0.19,0.055-0.462,0.136-0.625c1.169-0.354,2.719-0.571,4.024-0.571
		c3.236,0,4.949,1.469,4.949,4.785V260.534z M64.347,256.7c-0.789-0.108-1.604-0.163-2.312-0.163c-1.332,0-2.529,0.245-3.344,0.87
		c-0.734,0.544-1.142,1.414-1.142,2.528c0,1.985,1.278,2.938,3.045,2.938c1.468,0,3.018-0.707,3.752-1.822V256.7z"/>
	<path fill="#333333" d="M85.803,260.534c0,0.979,0,2.202,0.055,3.48c-0.19,0.082-0.489,0.136-0.734,0.136
		c-0.217,0-0.517-0.054-0.734-0.136c-0.082-0.435-0.136-1.006-0.163-1.522h-0.027c-0.924,1.142-2.556,1.794-4.16,1.794
		c-2.529,0-4.65-1.413-4.65-4.323c0-1.658,0.68-2.882,1.74-3.644c1.196-0.843,2.773-1.114,4.459-1.114
		c0.952,0,1.74,0.054,2.447,0.163v-0.789c0-2.719-1.115-3.616-3.399-3.616c-1.278,0-2.855,0.271-3.834,0.517
		c-0.054-0.136-0.109-0.435-0.109-0.707c0-0.19,0.055-0.462,0.136-0.625c1.169-0.354,2.719-0.571,4.024-0.571
		c3.236,0,4.949,1.469,4.949,4.785V260.534z M84.036,256.7c-0.789-0.108-1.604-0.163-2.312-0.163c-1.332,0-2.529,0.245-3.344,0.87
		c-0.734,0.544-1.142,1.414-1.142,2.528c0,1.985,1.278,2.938,3.045,2.938c1.468,0,3.018-0.707,3.752-1.822V256.7z"/>
	<path fill="#333333" d="M100.57,264.042c-0.218,0.055-0.544,0.108-0.87,0.108c-0.272,0-0.625-0.054-0.897-0.136v-8.619
		c0-1.306-0.163-2.312-0.544-3.019c-0.462-0.87-1.332-1.306-2.746-1.306c-1.36,0-2.991,0.762-4.052,1.577v11.366
		c-0.299,0.082-0.598,0.136-0.924,0.136c-0.272,0-0.598-0.054-0.843-0.136v-14.167c0.19-0.081,0.517-0.108,0.707-0.108
		c0.271,0,0.598,0.027,0.761,0.108l0.136,1.414h0.027c1.496-1.224,3.208-1.686,4.595-1.686s2.828,0.462,3.617,1.414
		c0.87,1.033,1.033,2.528,1.033,3.997V264.042z"/>
	<path fill="#333333" d="M114.004,260.534c0,0.979,0,2.202,0.055,3.48c-0.19,0.082-0.489,0.136-0.734,0.136
		c-0.217,0-0.517-0.054-0.734-0.136c-0.082-0.435-0.136-1.006-0.163-1.522H112.4c-0.924,1.142-2.556,1.794-4.16,1.794
		c-2.529,0-4.65-1.413-4.65-4.323c0-1.658,0.68-2.882,1.74-3.644c1.196-0.843,2.773-1.114,4.459-1.114
		c0.952,0,1.74,0.054,2.447,0.163v-0.789c0-2.719-1.115-3.616-3.399-3.616c-1.278,0-2.855,0.271-3.834,0.517
		c-0.054-0.136-0.109-0.435-0.109-0.707c0-0.19,0.055-0.462,0.136-0.625c1.169-0.354,2.719-0.571,4.024-0.571
		c3.236,0,4.949,1.469,4.949,4.785V260.534z M112.237,256.7c-0.789-0.108-1.604-0.163-2.312-0.163c-1.332,0-2.529,0.245-3.344,0.87
		c-0.734,0.544-1.142,1.414-1.142,2.528c0,1.985,1.278,2.938,3.045,2.938c1.468,0,3.018-0.707,3.752-1.822V256.7z"/>
	<path fill="#333333" d="M119.716,264.015c-0.299,0.082-0.598,0.136-0.925,0.136c-0.271,0-0.598-0.054-0.843-0.136v-19.85
		c0.245-0.055,0.544-0.136,0.897-0.136c0.299,0,0.625,0.055,0.87,0.136V264.015z"/>
	<path fill="#333333" d="M134.155,261.649c0,2.637-0.109,4.514-1.061,6.199c-1.088,1.931-3.236,2.855-5.167,2.855
		c-1.414,0-2.393-0.137-3.263-0.436c-0.082-0.163-0.109-0.435-0.109-0.652c0-0.163,0.054-0.517,0.109-0.68
		c0.815,0.244,1.794,0.435,3.1,0.435c2.991,0,4.623-2.147,4.623-5.873v-0.952c-1.387,1.224-2.937,1.74-4.351,1.74
		c-1.523,0-2.719-0.38-3.48-1.305c-0.843-1.006-0.952-2.475-0.952-3.942v-9.191c0.217-0.054,0.571-0.136,0.843-0.136
		c0.326,0,0.68,0.082,0.924,0.136v8.892c0,1.306,0.109,2.394,0.599,3.127c0.435,0.626,1.142,0.952,2.202,0.952
		c1.686,0,3.29-0.897,4.215-1.795v-11.176c0.245-0.054,0.598-0.136,0.924-0.136c0.272,0,0.625,0.082,0.843,0.136V261.649z"/>
	<path fill="#333333" d="M145.36,263.879c-0.707,0.244-1.767,0.407-2.556,0.407c-2.692,0-3.97-1.277-3.97-4.296v-8.756h-2.447
		c-0.054-0.136-0.082-0.462-0.082-0.625c0-0.136,0.027-0.462,0.082-0.599l2.447-0.163v-3.697c0.218-0.082,0.571-0.137,0.87-0.137
		c0.299,0,0.68,0.055,0.897,0.137v3.697h3.997c0.054,0.137,0.109,0.544,0.109,0.68c0,0.19-0.055,0.518-0.109,0.707h-3.997v8.593
		c0,2.148,0.625,3.046,2.311,3.046c0.925,0,1.822-0.137,2.447-0.327c0.055,0.137,0.109,0.463,0.109,0.653
		C145.469,263.443,145.441,263.634,145.36,263.879z"/>
	<path fill="#333333" d="M149.086,247.074c-0.625,0-1.142-0.544-1.142-1.196s0.517-1.169,1.142-1.169
		c0.625,0,1.169,0.517,1.169,1.169S149.711,247.074,149.086,247.074z M149.983,264.015c-0.245,0.082-0.598,0.136-0.897,0.136
		c-0.299,0-0.625-0.054-0.87-0.136v-14.167c0.218-0.054,0.571-0.136,0.843-0.136c0.299,0,0.707,0.055,0.924,0.136V264.015z"/>
	<path fill="#333333" d="M162.846,251.562c-0.87-0.354-2.012-0.571-3.019-0.571c-3.534,0-4.84,2.746-4.84,6.063
		c0,3.263,1.251,5.792,4.813,5.792c0.951,0,2.094-0.163,2.937-0.408c0.054,0.163,0.108,0.354,0.108,0.571
		c0,0.326-0.055,0.571-0.136,0.761c-0.789,0.327-2.066,0.517-3.072,0.517c-4.433,0-6.499-2.909-6.499-7.178
		c0-4.433,2.257-7.532,6.58-7.532c1.033,0,2.257,0.245,3.1,0.625c0.082,0.218,0.109,0.436,0.109,0.68
		C162.928,251.153,162.9,251.371,162.846,251.562z"/>
	<path fill="#333333" d="M169.02,264.286c-1.359,0-2.773-0.244-3.752-0.625c-0.082-0.19-0.136-0.517-0.136-0.762
		c0-0.163,0.054-0.57,0.108-0.733c1.006,0.407,2.447,0.733,3.644,0.733c2.066,0,3.345-0.87,3.345-2.583
		c0-1.55-0.789-2.094-2.937-2.882c-2.991-1.088-3.97-2.339-3.97-4.188c0-2.502,2.066-3.671,4.73-3.671
		c0.897,0,2.066,0.163,2.747,0.381c0.081,0.244,0.108,0.489,0.108,0.652c0,0.218-0.055,0.599-0.108,0.789
		c-0.897-0.272-1.85-0.436-2.774-0.436c-1.93,0-3.1,0.734-3.1,2.229c0,1.306,0.734,1.931,2.964,2.773
		c2.04,0.762,3.916,1.522,3.916,4.27C173.806,263.009,171.712,264.286,169.02,264.286z"/>
</g>
<path fill="#3D3938" d="M188.801,105.877h-13.083c-6.396,0-11.63-5.354-11.63-11.897V23.043c0-6.543,5.234-11.896,11.63-11.896
	h13.083c6.395,0,11.629,5.353,11.629,11.896v70.936C200.43,100.522,195.195,105.877,188.801,105.877"/>
<path fill="#3D3938" d="M231.923,105.877h-13.082c-6.396,0-11.63-5.354-11.63-11.897V41.706c0-6.543,5.234-11.896,11.63-11.896
	h13.082c6.396,0,11.63,5.353,11.63,11.896v52.274C243.553,100.522,238.318,105.877,231.923,105.877"/>
<path fill="#3D3938" d="M275.046,105.877h-13.081c-6.396,0-11.631-5.354-11.631-11.897V75.143c0-6.542,5.234-11.897,11.631-11.897
	h13.081c6.396,0,11.63,5.355,11.63,11.897v18.836C286.676,100.522,281.441,105.877,275.046,105.877"/>
</svg>
