<?xml version="1.0" encoding="utf-8"?>
<!-- Generator: Adobe Illustrator 16.0.0, SVG Export Plug-In . SVG Version: 6.00 Build 0)  -->
<!DOCTYPE svg PUBLIC "-//W3C//DTD SVG 1.1//EN" "http://www.w3.org/Graphics/SVG/1.1/DTD/svg11.dtd">
<svg version="1.1" id="Layer_1" xmlns="http://www.w3.org/2000/svg" xmlns:xlink="http://www.w3.org/1999/xlink" x="0px" y="0px"
	 width="300px" height="300px" viewBox="0 0 300 300" enable-background="new 0 0 300 300" xml:space="preserve">
<g>
	<path fill="#AB9245" d="M25.73,108.527l-2.822,9.54c-0.288,0.058-0.729,0.096-1.171,0.096c-0.461,0-0.921-0.039-1.305-0.096
		l-1.747-7.275c-0.153-0.614-0.346-1.67-0.422-2.15h-0.077c-0.058,0.479-0.25,1.401-0.422,2.092l-1.785,7.333
		c-0.365,0.058-0.902,0.096-1.344,0.096c-0.403,0-0.921-0.039-1.229-0.096l-2.822-9.674c-0.288-0.96-0.46-2.15-0.48-3.302
		c0.327-0.058,0.806-0.096,1.152-0.096c0.422,0,0.806,0.039,1.152,0.096c0.039,1.19,0.211,2.169,0.46,3.109l1.248,4.569
		c0.269,0.979,0.441,1.938,0.557,2.86h0.058c0.115-0.921,0.326-1.919,0.576-2.841l1.9-7.697c0.326-0.058,0.672-0.096,0.998-0.096
		c0.327,0,0.729,0.039,1.056,0.096l1.805,7.64c0.23,0.921,0.538,2.323,0.595,2.898h0.057c0.077-0.576,0.288-1.804,0.557-2.841
		l1.209-4.588c0.269-0.998,0.422-1.977,0.422-3.109c0.422-0.077,0.729-0.096,1.152-0.096c0.365,0,0.787,0.039,1.113,0.096
		C26.172,106.223,26.076,107.375,25.73,108.527z"/>
	<path fill="#AB9245" d="M35.14,113.806h-6.22c0.039,1.728,1.171,2.745,2.918,2.745c0.883,0,1.689-0.115,2.553-0.326
		c0.096,0.499,0.135,1.018,0.135,1.593c-1.018,0.346-1.939,0.441-2.995,0.441c-3.263,0-4.953-2.054-4.953-5.145
		c0-2.802,1.632-5.24,4.646-5.24c2.802,0,3.954,2.188,3.954,4.895C35.178,113.287,35.159,113.575,35.14,113.806z M32.952,112.116
		c0-1.209-0.25-2.515-1.785-2.515c-1.44,0-2.131,1.171-2.246,2.515H32.952z"/>
	<path fill="#AB9245" d="M53.264,110.427l-2.495,7.64c-0.25,0.077-0.749,0.096-1.075,0.096c-0.365,0-0.806-0.039-1.075-0.096
		l-1.728-6.833h-0.019l-1.9,6.833c-0.25,0.058-0.768,0.096-1.094,0.096c-0.365,0-0.825-0.039-1.056-0.096l-2.284-7.678
		c-0.192-0.672-0.346-1.439-0.346-2.323c0.288-0.058,0.71-0.096,1.075-0.096s0.883,0.038,1.152,0.096
		c0,0.729,0.115,1.555,0.307,2.323l1.248,4.991h0.039l1.996-7.294c0.23-0.038,0.538-0.096,0.902-0.096
		c0.326,0,0.652,0.039,0.902,0.096l1.939,7.314h0.039l1.42-5.145c0.192-0.71,0.288-1.44,0.288-2.188
		c0.269-0.058,0.787-0.096,1.152-0.096s0.787,0.038,1.075,0.096C53.667,108.814,53.514,109.698,53.264,110.427z"/>
	<path fill="#AB9245" d="M59.045,118.259c-2.803,0-4.588-1.824-4.588-5.164s1.785-5.221,4.588-5.221s4.588,1.862,4.588,5.202
		C63.633,116.416,61.848,118.259,59.045,118.259z M59.045,109.583c-1.478,0-2.304,0.979-2.304,3.494s0.826,3.474,2.304,3.474
		s2.303-0.959,2.303-3.474S60.523,109.583,59.045,109.583z"/>
	<path fill="#AB9245" d="M70.546,109.755c-0.959,0.115-2.188,0.518-3.129,1.056v7.256c-0.288,0.077-0.729,0.096-1.113,0.096
		s-0.864-0.039-1.113-0.096v-10.001c0.25-0.038,0.614-0.096,0.921-0.096c0.288,0,0.672,0.038,0.921,0.096l0.153,1.229h0.058
		c0.807-0.749,2.15-1.344,3.283-1.42c0.039,0.173,0.077,0.538,0.077,0.921C70.604,109.064,70.584,109.486,70.546,109.755z"/>
	<path fill="#AB9245" d="M77.112,112.174l3.782,5.893c-0.346,0.058-0.902,0.096-1.286,0.096s-0.96-0.039-1.286-0.096l-2.783-4.473
		l-1.075,1.037v3.436c-0.326,0.058-0.825,0.096-1.152,0.096c-0.364,0-0.768-0.039-1.075-0.096v-14.013
		c0.365-0.058,0.768-0.077,1.094-0.077c0.384,0,0.787,0.038,1.132,0.077v8.101l2.399-2.304c0.595-0.576,0.96-1.324,0.979-1.785
		c0.288-0.058,0.806-0.096,1.113-0.096c0.346,0,0.787,0.038,1.056,0.096c-0.039,0.749-0.48,1.843-1.382,2.688L77.112,112.174z"/>
	<path fill="#AB9245" d="M87.001,106.588c-0.71,0-1.267-0.557-1.267-1.267c0-0.71,0.557-1.267,1.267-1.267
		c0.71,0,1.267,0.557,1.267,1.267C88.269,106.031,87.712,106.588,87.001,106.588z M88.134,118.067
		c-0.327,0.077-0.826,0.096-1.133,0.096c-0.365,0-0.768-0.039-1.075-0.096v-10.001c0.345-0.058,0.749-0.096,1.075-0.096
		c0.384,0,0.787,0.038,1.133,0.096V118.067z"/>
	<path fill="#AB9245" d="M98.673,118.067c-0.288,0.077-0.749,0.096-1.056,0.096c-0.327,0-0.845-0.039-1.152-0.096v-5.932
		c0-0.806-0.077-1.458-0.422-1.862c-0.288-0.326-0.749-0.48-1.305-0.48c-0.806,0-1.651,0.327-2.246,0.749v7.525
		c-0.384,0.058-0.864,0.096-1.19,0.096c-0.307,0-0.71-0.02-1.037-0.096v-10.001c0.25-0.058,0.672-0.096,0.94-0.096
		c0.25,0,0.653,0.038,0.902,0.096l0.134,0.902c0.787-0.595,2.054-1.094,3.225-1.094c2.322,0,3.206,1.555,3.206,3.839V118.067z"/>
	<path fill="#AB9245" d="M109.465,109.64c-1.843,0-3.033,0.979-3.033,3.513c0,1.939,0.864,3.34,2.937,3.34
		c0.614,0,1.498-0.153,2.284-0.384c0.096,0.441,0.135,0.96,0.135,1.44v0.134c-0.806,0.384-1.881,0.576-2.745,0.576
		c-3.244,0-4.895-1.977-4.895-5.048c0-3.033,1.766-5.336,4.934-5.336c1.094,0,1.977,0.211,2.591,0.499
		c0.038,0.269,0.058,0.557,0.058,0.826c0,0.307-0.039,0.595-0.096,0.883C111.02,109.813,110.137,109.64,109.465,109.64z"/>
	<path fill="#AB9245" d="M115.782,118.067c-0.326,0.058-0.826,0.096-1.152,0.096c-0.365,0-0.768-0.039-1.075-0.096v-14.013
		c0.365-0.058,0.768-0.077,1.094-0.077c0.384,0,0.807,0.019,1.133,0.077V118.067z"/>
	<path fill="#AB9245" d="M121.964,118.259c-2.803,0-4.588-1.824-4.588-5.164s1.785-5.221,4.588-5.221s4.588,1.862,4.588,5.202
		C126.552,116.416,124.767,118.259,121.964,118.259z M121.964,109.583c-1.478,0-2.304,0.979-2.304,3.494s0.826,3.474,2.304,3.474
		s2.303-0.959,2.303-3.474S123.442,109.583,121.964,109.583z"/>
	<path fill="#AB9245" d="M130.854,118.259c-1.171,0-2.285-0.211-3.11-0.441c-0.058-0.269-0.077-0.538-0.077-0.806
		c0-0.288,0.038-0.633,0.115-0.902c0.787,0.288,1.938,0.48,2.783,0.48c1.113,0,1.977-0.365,1.977-1.363
		c0-0.845-0.633-1.133-2.016-1.574c-2.073-0.672-2.879-1.536-2.879-2.937c0-1.958,1.881-2.841,3.743-2.841
		c0.729,0,1.786,0.134,2.38,0.326c0.077,0.23,0.115,0.499,0.115,0.749c0,0.288-0.058,0.633-0.134,0.902
		c-0.729-0.192-1.459-0.307-2.246-0.307c-1.094,0-1.747,0.327-1.747,1.056c0,0.749,0.806,1.018,1.977,1.44
		c1.689,0.595,2.822,1.132,2.822,3.052C134.559,117.126,132.869,118.259,130.854,118.259z"/>
	<path fill="#AB9245" d="M144.082,113.806h-6.22c0.039,1.728,1.171,2.745,2.918,2.745c0.883,0,1.689-0.115,2.553-0.326
		c0.096,0.499,0.135,1.018,0.135,1.593c-1.018,0.346-1.939,0.441-2.995,0.441c-3.263,0-4.953-2.054-4.953-5.145
		c0-2.802,1.632-5.24,4.646-5.24c2.802,0,3.954,2.188,3.954,4.895C144.12,113.287,144.101,113.575,144.082,113.806z
		 M141.893,112.116c0-1.209-0.25-2.515-1.785-2.515c-1.44,0-2.131,1.171-2.246,2.515H141.893z"/>
</g>
<g>
	<path fill="#AB9245" d="M154.299,109.64c-1.843,0-3.032,0.979-3.032,3.513c0,1.939,0.863,3.34,2.937,3.34
		c0.614,0,1.497-0.153,2.284-0.384c0.096,0.441,0.135,0.96,0.135,1.44v0.134c-0.807,0.384-1.881,0.576-2.745,0.576
		c-3.244,0-4.895-1.977-4.895-5.048c0-3.033,1.766-5.336,4.933-5.336c1.095,0,1.978,0.211,2.592,0.499
		c0.038,0.269,0.058,0.557,0.058,0.826c0,0.307-0.038,0.595-0.096,0.883C155.854,109.813,154.971,109.64,154.299,109.64z"/>
	<path fill="#AB9245" d="M161.979,118.259c-2.802,0-4.587-1.824-4.587-5.164s1.785-5.221,4.587-5.221
		c2.803,0,4.588,1.862,4.588,5.202C166.567,116.416,164.782,118.259,161.979,118.259z M161.979,109.583
		c-1.478,0-2.303,0.979-2.303,3.494s0.825,3.474,2.303,3.474c1.479,0,2.304-0.959,2.304-3.474S163.458,109.583,161.979,109.583z"/>
	<path fill="#AB9245" d="M170.389,118.067c-0.326,0.058-0.825,0.096-1.151,0.096c-0.364,0-0.768-0.039-1.075-0.096v-14.013
		c0.365-0.058,0.769-0.077,1.095-0.077c0.384,0,0.806,0.019,1.132,0.077V118.067z"/>
	<path fill="#AB9245" d="M174.786,118.067c-0.326,0.058-0.825,0.096-1.151,0.096c-0.364,0-0.768-0.039-1.075-0.096v-14.013
		c0.365-0.058,0.769-0.077,1.095-0.077c0.384,0,0.806,0.019,1.132,0.077V118.067z"/>
	<path fill="#AB9245" d="M183.81,118.163c-0.308,0-0.729-0.039-0.979-0.096c-0.058-0.307-0.096-0.71-0.115-0.998h-0.019
		c-0.614,0.729-1.767,1.19-2.88,1.19c-1.92,0-3.32-1.132-3.32-3.071c0-2.917,2.515-3.609,4.741-3.609
		c0.384,0,0.959,0.039,1.247,0.058c0-1.516-0.557-2.035-2.073-2.035c-0.883,0-2.054,0.173-2.841,0.365
		c-0.076-0.23-0.115-0.576-0.115-0.845c0-0.25,0.039-0.576,0.115-0.768c0.96-0.288,2.208-0.48,3.206-0.48
		c2.438,0,3.935,1.018,3.935,3.532v3.973c0,1.037,0.02,1.766,0.039,2.688C184.481,118.144,184.097,118.163,183.81,118.163z
		 M182.504,113.249c-0.288-0.039-0.749-0.058-1.19-0.058c-1.67,0-2.553,0.71-2.553,1.804c0,0.96,0.634,1.517,1.632,1.517
		c0.806,0,1.632-0.365,2.111-0.883V113.249z"/>
	<path fill="#AB9245" d="M190.453,118.259c-1.21,0-2.649-0.23-3.705-0.614v-13.59c0.288-0.058,0.691-0.077,1.075-0.077
		c0.441,0,0.883,0.019,1.151,0.077v4.645c0.557-0.46,1.536-0.825,2.534-0.825c2.841,0,3.992,2.457,3.992,4.895
		C195.501,116.07,193.831,118.259,190.453,118.259z M191.067,109.755c-0.729,0-1.594,0.269-2.093,0.652v5.989
		c0.346,0.096,0.864,0.153,1.286,0.153c2.15,0,2.956-1.42,2.956-3.743C193.217,111.368,192.698,109.755,191.067,109.755z"/>
	<path fill="#AB9245" d="M201.108,118.259c-2.802,0-4.587-1.824-4.587-5.164s1.785-5.221,4.587-5.221
		c2.803,0,4.588,1.862,4.588,5.202C205.696,116.416,203.911,118.259,201.108,118.259z M201.108,109.583
		c-1.478,0-2.303,0.979-2.303,3.494s0.825,3.474,2.303,3.474c1.479,0,2.304-0.959,2.304-3.474S202.587,109.583,201.108,109.583z"/>
	<path fill="#AB9245" d="M212.609,109.755c-0.96,0.115-2.188,0.518-3.129,1.056v7.256c-0.288,0.077-0.729,0.096-1.113,0.096
		s-0.863-0.039-1.113-0.096v-10.001c0.25-0.038,0.614-0.096,0.921-0.096c0.288,0,0.672,0.038,0.922,0.096l0.153,1.229h0.058
		c0.807-0.749,2.15-1.344,3.282-1.42c0.039,0.173,0.077,0.538,0.077,0.921C212.667,109.064,212.647,109.486,212.609,109.755z"/>
	<path fill="#AB9245" d="M220.078,118.163c-0.308,0-0.729-0.039-0.979-0.096c-0.058-0.307-0.096-0.71-0.115-0.998h-0.019
		c-0.614,0.729-1.767,1.19-2.88,1.19c-1.92,0-3.32-1.132-3.32-3.071c0-2.917,2.515-3.609,4.741-3.609
		c0.384,0,0.959,0.039,1.247,0.058c0-1.516-0.557-2.035-2.073-2.035c-0.883,0-2.054,0.173-2.841,0.365
		c-0.076-0.23-0.115-0.576-0.115-0.845c0-0.25,0.039-0.576,0.115-0.768c0.96-0.288,2.208-0.48,3.206-0.48
		c2.438,0,3.935,1.018,3.935,3.532v3.973c0,1.037,0.02,1.766,0.039,2.688C220.75,118.144,220.365,118.163,220.078,118.163z
		 M218.772,113.249c-0.288-0.039-0.749-0.058-1.19-0.058c-1.67,0-2.553,0.71-2.553,1.804c0,0.96,0.634,1.517,1.632,1.517
		c0.806,0,1.632-0.365,2.111-0.883V113.249z"/>
	<path fill="#AB9245" d="M223.709,109.698h-1.632c-0.077-0.25-0.115-0.48-0.115-0.749c0-0.269,0.038-0.5,0.115-0.749l1.632-0.115
		v-2.591c0.249-0.058,0.748-0.134,1.113-0.134c0.384,0,0.844,0.077,1.113,0.134v2.572h2.841c0.076,0.25,0.115,0.538,0.115,0.806
		c0,0.269-0.039,0.538-0.115,0.826h-2.841v5.087c0,0.46,0.058,0.959,0.288,1.267c0.191,0.269,0.557,0.441,1.132,0.441
		c0.441,0,1.133-0.096,1.632-0.25c0.077,0.346,0.115,0.71,0.115,1.037c0,0.23-0.02,0.422-0.038,0.576
		c-0.461,0.23-1.344,0.403-2.266,0.403c-2.246,0-3.09-1.056-3.09-3.09V109.698z"/>
	<path fill="#AB9245" d="M231.562,106.588c-0.71,0-1.267-0.557-1.267-1.267c0-0.71,0.557-1.267,1.267-1.267s1.267,0.557,1.267,1.267
		C232.828,106.031,232.271,106.588,231.562,106.588z M232.694,118.067c-0.326,0.077-0.825,0.096-1.133,0.096
		c-0.364,0-0.768-0.039-1.075-0.096v-10.001c0.346-0.058,0.749-0.096,1.075-0.096c0.384,0,0.787,0.038,1.133,0.096V118.067z"/>
	<path fill="#AB9245" d="M238.875,118.259c-2.802,0-4.587-1.824-4.587-5.164s1.785-5.221,4.587-5.221
		c2.803,0,4.588,1.862,4.588,5.202C243.463,116.416,241.678,118.259,238.875,118.259z M238.875,109.583
		c-1.478,0-2.303,0.979-2.303,3.494s0.825,3.474,2.303,3.474c1.479,0,2.304-0.959,2.304-3.474S240.354,109.583,238.875,109.583z"/>
	<path fill="#AB9245" d="M253.428,118.067c-0.287,0.077-0.748,0.096-1.056,0.096c-0.326,0-0.845-0.039-1.151-0.096v-5.932
		c0-0.806-0.077-1.458-0.422-1.862c-0.288-0.326-0.749-0.48-1.306-0.48c-0.807,0-1.651,0.327-2.246,0.749v7.525
		c-0.384,0.058-0.863,0.096-1.19,0.096c-0.307,0-0.71-0.02-1.036-0.096v-10.001c0.25-0.058,0.672-0.096,0.94-0.096
		c0.25,0,0.652,0.038,0.902,0.096l0.135,0.902c0.786-0.595,2.054-1.094,3.225-1.094c2.322,0,3.205,1.555,3.205,3.839V118.067z"/>
	<path fill="#AB9245" d="M271.86,110.427l-2.496,7.64c-0.249,0.077-0.748,0.096-1.074,0.096c-0.365,0-0.807-0.039-1.075-0.096
		l-1.728-6.833h-0.02l-1.9,6.833c-0.249,0.058-0.768,0.096-1.094,0.096c-0.365,0-0.826-0.039-1.056-0.096l-2.284-7.678
		c-0.192-0.672-0.346-1.439-0.346-2.323c0.288-0.058,0.71-0.096,1.074-0.096c0.365,0,0.884,0.038,1.152,0.096
		c0,0.729,0.115,1.555,0.307,2.323l1.248,4.991h0.038l1.997-7.294c0.229-0.038,0.537-0.096,0.901-0.096
		c0.327,0,0.653,0.039,0.902,0.096l1.938,7.314h0.039l1.42-5.145c0.192-0.71,0.288-1.44,0.288-2.188
		c0.269-0.058,0.787-0.096,1.152-0.096c0.364,0,0.786,0.038,1.074,0.096C272.263,108.814,272.109,109.698,271.86,110.427z"/>
	<path fill="#AB9245" d="M274.877,106.588c-0.71,0-1.267-0.557-1.267-1.267c0-0.71,0.557-1.267,1.267-1.267s1.267,0.557,1.267,1.267
		C276.144,106.031,275.587,106.588,274.877,106.588z M276.01,118.067c-0.326,0.077-0.825,0.096-1.133,0.096
		c-0.364,0-0.768-0.039-1.075-0.096v-10.001c0.346-0.058,0.749-0.096,1.075-0.096c0.384,0,0.787,0.038,1.133,0.096V118.067z"/>
	<path fill="#AB9245" d="M278.986,109.698h-1.632c-0.077-0.25-0.115-0.48-0.115-0.749c0-0.269,0.038-0.5,0.115-0.749l1.632-0.115
		v-2.591c0.249-0.058,0.748-0.134,1.113-0.134c0.384,0,0.844,0.077,1.113,0.134v2.572h2.841c0.076,0.25,0.115,0.538,0.115,0.806
		c0,0.269-0.039,0.538-0.115,0.826h-2.841v5.087c0,0.46,0.058,0.959,0.288,1.267c0.191,0.269,0.557,0.441,1.132,0.441
		c0.441,0,1.133-0.096,1.632-0.25c0.077,0.346,0.115,0.71,0.115,1.037c0,0.23-0.02,0.422-0.038,0.576
		c-0.461,0.23-1.344,0.403-2.266,0.403c-2.246,0-3.09-1.056-3.09-3.09V109.698z"/>
	<path fill="#AB9245" d="M294.363,111.713v6.354c-0.287,0.077-0.748,0.096-1.056,0.096c-0.326,0-0.845-0.039-1.151-0.096v-5.932
		c0-0.806-0.077-1.458-0.422-1.862c-0.288-0.326-0.749-0.48-1.306-0.48c-0.807,0-1.651,0.327-2.246,0.749v7.525
		c-0.384,0.058-0.863,0.096-1.19,0.096c-0.307,0-0.71-0.02-1.036-0.096v-14.013c0.269-0.058,0.71-0.077,1.094-0.077
		c0.385,0,0.845,0.019,1.133,0.077v4.76c0.729-0.499,1.92-0.94,2.976-0.94C293.48,107.874,294.363,109.429,294.363,111.713z"/>
</g>
<g>
	<path fill="#AB9245" d="M18.782,133.39h-6.22c0.039,1.728,1.171,2.745,2.918,2.745c0.883,0,1.689-0.115,2.553-0.326
		c0.096,0.499,0.135,1.018,0.135,1.593c-1.018,0.346-1.939,0.441-2.995,0.441c-3.263,0-4.953-2.054-4.953-5.145
		c0-2.802,1.632-5.24,4.646-5.24c2.802,0,3.954,2.188,3.954,4.895C18.82,132.871,18.801,133.159,18.782,133.39z M16.593,131.7
		c0-1.209-0.25-2.515-1.785-2.515c-1.44,0-2.131,1.171-2.246,2.515H16.593z"/>
	<path fill="#AB9245" d="M35.177,137.651c-0.288,0.077-0.749,0.096-1.056,0.096c-0.326,0-0.864-0.039-1.171-0.096v-5.932
		c0-0.749-0.058-1.305-0.288-1.689c-0.269-0.441-0.787-0.653-1.458-0.653c-0.768,0-1.728,0.365-2.323,0.787
		c0.077,0.403,0.077,0.768,0.077,1.209v6.277c-0.288,0.077-0.749,0.096-1.056,0.096c-0.326,0-0.845-0.039-1.152-0.096v-5.932
		c0-0.825-0.077-1.458-0.441-1.862c-0.288-0.326-0.729-0.48-1.267-0.48c-0.729,0-1.612,0.307-2.284,0.749v7.525
		c-0.384,0.058-0.864,0.096-1.19,0.096c-0.307,0-0.71-0.02-1.037-0.096V127.65c0.25-0.058,0.672-0.096,0.94-0.096
		c0.25,0,0.653,0.038,0.902,0.096l0.134,0.902c0.826-0.653,2.073-1.094,3.148-1.094c1.248,0,2.169,0.499,2.688,1.209
		c0.96-0.691,2.284-1.209,3.494-1.209c1.018,0,2.016,0.346,2.572,0.979c0.653,0.749,0.768,1.747,0.768,2.937V137.651z"/>
	<path fill="#AB9245" d="M41.267,137.651c-0.691,0-1.306-0.077-1.805-0.23v4.741c-0.326,0.058-0.787,0.096-1.151,0.096
		c-0.403,0-0.749-0.039-1.075-0.096V127.65c0.153-0.019,0.557-0.096,0.94-0.096c0.422,0,0.787,0.077,0.921,0.096l0.115,0.902h0.019
		c0.614-0.576,1.728-1.094,2.879-1.094c2.438,0,3.897,1.939,3.897,4.78C46.008,135.597,44.338,137.651,41.267,137.651z
		 M41.65,129.282c-0.864,0-1.651,0.365-2.188,0.864v5.547c0.403,0.134,0.998,0.23,1.536,0.23c1.977,0,2.726-1.42,2.726-3.57
		C43.724,130.376,42.937,129.282,41.65,129.282z"/>
	<path fill="#AB9245" d="M49.83,137.651c-0.326,0.058-0.826,0.096-1.152,0.096c-0.365,0-0.768-0.039-1.075-0.096v-14.013
		c0.365-0.058,0.768-0.077,1.094-0.077c0.384,0,0.807,0.019,1.133,0.077V137.651z"/>
	<path fill="#AB9245" d="M56.012,137.843c-2.803,0-4.588-1.824-4.588-5.164s1.785-5.221,4.588-5.221s4.588,1.862,4.588,5.202
		C60.6,136,58.814,137.843,56.012,137.843z M56.012,129.167c-1.478,0-2.304,0.979-2.304,3.494s0.826,3.474,2.304,3.474
		s2.303-0.959,2.303-3.474S57.49,129.167,56.012,129.167z"/>
	<path fill="#AB9245" d="M70.468,135.923c0,1.324-0.038,3.09-0.787,4.319c-0.883,1.478-2.515,2.131-4.185,2.131
		c-0.864,0-1.766-0.096-2.687-0.403c-0.077-0.192-0.077-0.537-0.077-0.787c0-0.211,0.039-0.595,0.096-0.806
		c0.864,0.23,1.651,0.346,2.323,0.346c1.324,0,2.092-0.403,2.591-1.229c0.403-0.672,0.518-1.478,0.518-2.361v-0.192
		c-0.729,0.576-1.823,0.902-2.783,0.902c-1.094,0-2.054-0.346-2.61-0.979c-0.653-0.749-0.749-1.631-0.749-2.937v-6.277
		c0.288-0.077,0.749-0.096,1.056-0.096c0.326,0,0.864,0.038,1.171,0.096v5.951c0,0.921,0.019,1.439,0.365,1.843
		c0.269,0.326,0.749,0.499,1.382,0.499c0.864,0,1.651-0.345,2.169-0.787v-7.505c0.384-0.058,0.845-0.096,1.171-0.096
		c0.307,0,0.71,0.019,1.037,0.096V135.923z"/>
	<path fill="#AB9245" d="M80.587,133.39h-6.22c0.039,1.728,1.171,2.745,2.918,2.745c0.883,0,1.689-0.115,2.553-0.326
		c0.096,0.499,0.135,1.018,0.135,1.593c-1.018,0.346-1.939,0.441-2.995,0.441c-3.263,0-4.953-2.054-4.953-5.145
		c0-2.802,1.632-5.24,4.646-5.24c2.803,0,3.954,2.188,3.954,4.895C80.625,132.871,80.606,133.159,80.587,133.39z M78.398,131.7
		c0-1.209-0.25-2.515-1.785-2.515c-1.439,0-2.131,1.171-2.246,2.515H78.398z"/>
	<path fill="#AB9245" d="M87.691,129.339c-0.959,0.115-2.188,0.518-3.129,1.056v7.256c-0.288,0.077-0.729,0.096-1.113,0.096
		s-0.864-0.039-1.113-0.096V127.65c0.25-0.038,0.614-0.096,0.921-0.096c0.288,0,0.672,0.038,0.921,0.096l0.153,1.229h0.058
		c0.807-0.749,2.15-1.344,3.283-1.42c0.039,0.173,0.077,0.538,0.077,0.921C87.749,128.648,87.73,129.07,87.691,129.339z"/>
	<path fill="#AB9245" d="M91.744,137.843c-1.171,0-2.285-0.211-3.11-0.441c-0.058-0.269-0.077-0.538-0.077-0.806
		c0-0.288,0.038-0.633,0.115-0.902c0.787,0.288,1.938,0.48,2.783,0.48c1.113,0,1.977-0.365,1.977-1.363
		c0-0.845-0.633-1.133-2.016-1.574c-2.073-0.672-2.879-1.536-2.879-2.937c0-1.958,1.881-2.841,3.743-2.841
		c0.729,0,1.786,0.134,2.38,0.326c0.077,0.23,0.115,0.499,0.115,0.749c0,0.288-0.058,0.633-0.134,0.902
		c-0.729-0.192-1.459-0.307-2.246-0.307c-1.094,0-1.747,0.327-1.747,1.056c0,0.749,0.806,1.018,1.977,1.44
		c1.689,0.595,2.822,1.132,2.822,3.052C95.448,136.71,93.759,137.843,91.744,137.843z"/>
	<path fill="#AB9245" d="M107.89,137.747c-0.307,0-0.729-0.039-0.979-0.096c-0.058-0.307-0.096-0.71-0.115-0.998h-0.019
		c-0.614,0.729-1.766,1.19-2.879,1.19c-1.919,0-3.321-1.132-3.321-3.071c0-2.917,2.515-3.609,4.741-3.609
		c0.384,0,0.96,0.039,1.248,0.058c0-1.516-0.557-2.035-2.073-2.035c-0.883,0-2.054,0.173-2.841,0.365
		c-0.077-0.23-0.115-0.576-0.115-0.845c0-0.25,0.038-0.576,0.115-0.768c0.959-0.288,2.208-0.48,3.206-0.48
		c2.438,0,3.935,1.018,3.935,3.532v3.973c0,1.037,0.019,1.766,0.038,2.688C108.562,137.728,108.178,137.747,107.89,137.747z
		 M106.584,132.833c-0.288-0.039-0.749-0.058-1.19-0.058c-1.67,0-2.553,0.71-2.553,1.804c0,0.96,0.633,1.517,1.632,1.517
		c0.806,0,1.631-0.365,2.111-0.883V132.833z"/>
	<path fill="#AB9245" d="M119.256,137.651c-0.288,0.077-0.749,0.096-1.056,0.096c-0.327,0-0.845-0.039-1.152-0.096v-5.932
		c0-0.806-0.077-1.458-0.422-1.862c-0.288-0.326-0.749-0.48-1.305-0.48c-0.806,0-1.651,0.327-2.246,0.749v7.525
		c-0.384,0.058-0.864,0.096-1.19,0.096c-0.307,0-0.71-0.02-1.037-0.096V127.65c0.25-0.058,0.672-0.096,0.94-0.096
		c0.25,0,0.653,0.038,0.902,0.096l0.134,0.902c0.787-0.595,2.054-1.094,3.225-1.094c2.323,0,3.206,1.555,3.206,3.839V137.651z"/>
	<path fill="#AB9245" d="M129.528,137.651c-0.326,0.058-0.672,0.096-1.017,0.096c-0.288,0-0.576-0.039-0.864-0.096l-0.077-0.883
		h-0.019c-0.71,0.652-1.708,1.075-2.688,1.075c-2.841,0-4.108-2.323-4.108-5.029c0-2.802,1.19-5.355,4.376-5.355
		c0.729,0,1.517,0.154,2.169,0.519v-4.338c0.365-0.058,0.749-0.077,1.113-0.077s0.749,0.019,1.113,0.077V137.651z M127.301,129.723
		c-0.519-0.288-1.248-0.441-1.824-0.441c-1.996,0-2.438,1.804-2.438,3.455c0,1.459,0.403,3.263,2.208,3.263
		c0.729,0,1.517-0.346,2.054-0.825V129.723z"/>
	<path fill="#AB9245" d="M142.469,137.747c-0.307,0-0.729-0.039-0.979-0.096c-0.058-0.307-0.096-0.71-0.115-0.998h-0.019
		c-0.614,0.729-1.766,1.19-2.879,1.19c-1.919,0-3.321-1.132-3.321-3.071c0-2.917,2.515-3.609,4.741-3.609
		c0.384,0,0.96,0.039,1.248,0.058c0-1.516-0.557-2.035-2.073-2.035c-0.883,0-2.054,0.173-2.841,0.365
		c-0.077-0.23-0.115-0.576-0.115-0.845c0-0.25,0.038-0.576,0.115-0.768c0.959-0.288,2.208-0.48,3.206-0.48
		c2.438,0,3.935,1.018,3.935,3.532v3.973c0,1.037,0.019,1.766,0.039,2.688C143.141,137.728,142.757,137.747,142.469,137.747z
		 M141.164,132.833c-0.288-0.039-0.749-0.058-1.19-0.058c-1.67,0-2.553,0.71-2.553,1.804c0,0.96,0.633,1.517,1.632,1.517
		c0.806,0,1.631-0.365,2.111-0.883V132.833z"/>
	<path fill="#AB9245" d="M157.637,130.011l-2.496,7.64c-0.249,0.077-0.748,0.096-1.074,0.096c-0.365,0-0.807-0.039-1.075-0.096
		l-1.728-6.833h-0.02l-1.9,6.833c-0.25,0.058-0.768,0.096-1.094,0.096c-0.365,0-0.825-0.039-1.056-0.096l-2.284-7.678
		c-0.192-0.672-0.346-1.439-0.346-2.323c0.288-0.058,0.71-0.096,1.075-0.096s0.883,0.038,1.152,0.096
		c0,0.729,0.115,1.555,0.307,2.323l1.248,4.991h0.039l1.996-7.294c0.23-0.038,0.538-0.096,0.902-0.096
		c0.327,0,0.653,0.039,0.902,0.096l1.939,7.314h0.038l1.42-5.145c0.192-0.71,0.288-1.44,0.288-2.188
		c0.269-0.058,0.787-0.096,1.152-0.096c0.364,0,0.787,0.038,1.074,0.096C158.039,128.398,157.886,129.282,157.637,130.011z"/>
	<path fill="#AB9245" d="M165.74,137.747c-0.308,0-0.729-0.039-0.979-0.096c-0.058-0.307-0.096-0.71-0.115-0.998h-0.019
		c-0.614,0.729-1.767,1.19-2.88,1.19c-1.92,0-3.32-1.132-3.32-3.071c0-2.917,2.515-3.609,4.741-3.609
		c0.384,0,0.959,0.039,1.247,0.058c0-1.516-0.557-2.035-2.073-2.035c-0.883,0-2.054,0.173-2.841,0.365
		c-0.076-0.23-0.115-0.576-0.115-0.845c0-0.25,0.039-0.576,0.115-0.768c0.96-0.288,2.208-0.48,3.206-0.48
		c2.438,0,3.935,1.018,3.935,3.532v3.973c0,1.037,0.02,1.766,0.039,2.688C166.412,137.728,166.027,137.747,165.74,137.747z
		 M164.435,132.833c-0.288-0.039-0.749-0.058-1.19-0.058c-1.67,0-2.553,0.71-2.553,1.804c0,0.96,0.634,1.517,1.632,1.517
		c0.806,0,1.632-0.365,2.111-0.883V132.833z"/>
	<path fill="#AB9245" d="M174.035,129.339c-0.96,0.115-2.188,0.518-3.129,1.056v7.256c-0.288,0.077-0.729,0.096-1.113,0.096
		s-0.863-0.039-1.113-0.096V127.65c0.25-0.038,0.614-0.096,0.921-0.096c0.288,0,0.672,0.038,0.922,0.096l0.153,1.229h0.058
		c0.807-0.749,2.15-1.344,3.282-1.42c0.039,0.173,0.077,0.538,0.077,0.921C174.093,128.648,174.073,129.07,174.035,129.339z"/>
	<path fill="#AB9245" d="M183.001,137.651c-0.327,0.058-0.672,0.096-1.018,0.096c-0.288,0-0.576-0.039-0.864-0.096l-0.076-0.883
		h-0.02c-0.71,0.652-1.708,1.075-2.688,1.075c-2.841,0-4.107-2.323-4.107-5.029c0-2.802,1.189-5.355,4.376-5.355
		c0.729,0,1.517,0.154,2.169,0.519v-4.338c0.365-0.058,0.749-0.077,1.113-0.077c0.365,0,0.749,0.019,1.114,0.077V137.651z
		 M180.773,129.723c-0.518-0.288-1.247-0.441-1.823-0.441c-1.996,0-2.438,1.804-2.438,3.455c0,1.459,0.402,3.263,2.207,3.263
		c0.729,0,1.517-0.346,2.054-0.825V129.723z"/>
	<path fill="#AB9245" d="M186.209,126.172c-0.71,0-1.267-0.557-1.267-1.267c0-0.71,0.557-1.267,1.267-1.267s1.267,0.557,1.267,1.267
		C187.476,125.615,186.919,126.172,186.209,126.172z M187.342,137.651c-0.326,0.077-0.825,0.096-1.133,0.096
		c-0.364,0-0.768-0.039-1.075-0.096V127.65c0.346-0.058,0.749-0.096,1.075-0.096c0.384,0,0.787,0.038,1.133,0.096V137.651z"/>
	<path fill="#AB9245" d="M197.88,137.651c-0.287,0.077-0.748,0.096-1.056,0.096c-0.326,0-0.845-0.039-1.151-0.096v-5.932
		c0-0.806-0.077-1.458-0.422-1.862c-0.288-0.326-0.749-0.48-1.306-0.48c-0.807,0-1.651,0.327-2.246,0.749v7.525
		c-0.384,0.058-0.863,0.096-1.19,0.096c-0.307,0-0.71-0.02-1.036-0.096V127.65c0.25-0.058,0.672-0.096,0.94-0.096
		c0.25,0,0.652,0.038,0.902,0.096l0.135,0.902c0.787-0.595,2.054-1.094,3.225-1.094c2.322,0,3.205,1.555,3.205,3.839V137.651z"/>
	<path fill="#AB9245" d="M208.019,135.942c0,1.689-0.173,3.302-0.864,4.473c-0.825,1.401-2.533,1.958-4.05,1.958
		c-0.807,0-1.862-0.154-2.63-0.403c-0.077-0.192-0.077-0.537-0.077-0.787c0-0.211,0.039-0.595,0.097-0.806
		c0.863,0.23,1.728,0.346,2.438,0.346c1.094,0,1.9-0.403,2.399-1.229c0.403-0.672,0.479-1.478,0.479-2.361v-0.192
		c-0.518,0.422-1.439,0.71-2.227,0.71c-2.841,0-4.203-2.131-4.203-4.799c0-3.455,1.919-5.394,5.087-5.394
		c1.229,0,2.648,0.269,3.551,0.595V135.942z M205.811,129.301c-0.364-0.077-0.883-0.134-1.362-0.134
		c-1.958,0-2.783,1.305-2.783,3.628c0,1.651,0.537,3.071,2.188,3.071c0.71,0,1.478-0.25,1.957-0.691V129.301z"/>
	<path fill="#AB9245" d="M217.735,137.843c-1.21,0-2.649-0.23-3.705-0.614v-13.59c0.288-0.058,0.691-0.077,1.075-0.077
		c0.441,0,0.883,0.019,1.151,0.077v4.645c0.557-0.46,1.536-0.825,2.534-0.825c2.841,0,3.992,2.457,3.992,4.895
		C222.783,135.654,221.113,137.843,217.735,137.843z M218.35,129.339c-0.729,0-1.594,0.269-2.093,0.652v5.989
		c0.346,0.096,0.864,0.153,1.286,0.153c2.15,0,2.956-1.42,2.956-3.743C220.499,130.952,219.98,129.339,218.35,129.339z"/>
	<path fill="#AB9245" d="M228.371,137.843c-2.802,0-4.587-1.824-4.587-5.164s1.785-5.221,4.587-5.221
		c2.803,0,4.588,1.862,4.588,5.202C232.959,136,231.174,137.843,228.371,137.843z M228.371,129.167
		c-1.478,0-2.303,0.979-2.303,3.494s0.825,3.474,2.303,3.474c1.479,0,2.304-0.959,2.304-3.474S229.85,129.167,228.371,129.167z"/>
	<path fill="#AB9245" d="M242.752,137.651c-0.327,0.058-0.672,0.096-1.018,0.096c-0.288,0-0.576-0.039-0.864-0.096l-0.076-0.883
		h-0.02c-0.71,0.652-1.708,1.075-2.688,1.075c-2.841,0-4.107-2.323-4.107-5.029c0-2.802,1.189-5.355,4.376-5.355
		c0.729,0,1.517,0.154,2.169,0.519v-4.338c0.365-0.058,0.749-0.077,1.113-0.077c0.365,0,0.749,0.019,1.114,0.077V137.651z
		 M240.524,129.723c-0.518-0.288-1.247-0.441-1.823-0.441c-1.996,0-2.438,1.804-2.438,3.455c0,1.459,0.403,3.263,2.207,3.263
		c0.729,0,1.517-0.346,2.054-0.825V129.723z"/>
	<path fill="#AB9245" d="M245.96,126.172c-0.71,0-1.267-0.557-1.267-1.267c0-0.71,0.557-1.267,1.267-1.267s1.267,0.557,1.267,1.267
		C247.227,125.615,246.67,126.172,245.96,126.172z M247.093,137.651c-0.326,0.077-0.825,0.096-1.133,0.096
		c-0.364,0-0.768-0.039-1.075-0.096V127.65c0.346-0.058,0.749-0.096,1.075-0.096c0.384,0,0.787,0.038,1.133,0.096V137.651z"/>
	<path fill="#AB9245" d="M257.229,133.39h-6.219c0.038,1.728,1.171,2.745,2.917,2.745c0.884,0,1.689-0.115,2.554-0.326
		c0.096,0.499,0.134,1.018,0.134,1.593c-1.017,0.346-1.938,0.441-2.994,0.441c-3.264,0-4.952-2.054-4.952-5.145
		c0-2.802,1.631-5.24,4.645-5.24c2.803,0,3.955,2.188,3.955,4.895C257.268,132.871,257.248,133.159,257.229,133.39z M255.04,131.7
		c0-1.209-0.249-2.515-1.785-2.515c-1.439,0-2.13,1.171-2.245,2.515H255.04z"/>
	<path fill="#AB9245" d="M261.723,137.843c-1.171,0-2.284-0.211-3.109-0.441c-0.058-0.269-0.077-0.538-0.077-0.806
		c0-0.288,0.038-0.633,0.115-0.902c0.787,0.288,1.938,0.48,2.783,0.48c1.113,0,1.978-0.365,1.978-1.363
		c0-0.845-0.634-1.133-2.016-1.574c-2.073-0.672-2.88-1.536-2.88-2.937c0-1.958,1.882-2.841,3.743-2.841
		c0.729,0,1.785,0.134,2.381,0.326c0.076,0.23,0.115,0.499,0.115,0.749c0,0.288-0.058,0.633-0.135,0.902
		c-0.729-0.192-1.459-0.307-2.246-0.307c-1.094,0-1.747,0.327-1.747,1.056c0,0.749,0.807,1.018,1.978,1.44
		c1.689,0.595,2.821,1.132,2.821,3.052C265.427,136.71,263.738,137.843,261.723,137.843z"/>
</g>
<g>
	<path fill="#333333" d="M14.197,154.135c-0.353,0.122-0.881,0.203-1.274,0.203c-1.341,0-1.978-0.637-1.978-2.141v-4.363h-1.22
		c-0.027-0.067-0.041-0.23-0.041-0.312c0-0.067,0.014-0.23,0.041-0.298l1.22-0.082V145.3c0.108-0.041,0.284-0.068,0.434-0.068
		c0.149,0,0.339,0.027,0.447,0.068v1.843h1.992c0.027,0.068,0.054,0.271,0.054,0.339c0,0.095-0.027,0.257-0.054,0.352h-1.992v4.282
		c0,1.07,0.312,1.518,1.151,1.518c0.461,0,0.908-0.067,1.22-0.163c0.027,0.068,0.054,0.23,0.054,0.325
		C14.251,153.918,14.238,154.013,14.197,154.135z"/>
	<path fill="#333333" d="M17.707,154.338c-1.775,0-2.913-1.219-2.913-3.658c0-2.439,1.152-3.672,2.927-3.672
		c1.775,0,2.9,1.206,2.9,3.645C20.621,153.092,19.482,154.338,17.707,154.338z M17.721,147.672c-1.301,0-2.005,1.002-2.005,2.994
		c0,1.992,0.691,3.008,1.992,3.008s1.992-1.016,1.992-3.008C19.699,148.674,19.021,147.672,17.721,147.672z"/>
	<path fill="#333333" d="M29.917,154.271c-0.122,0-0.271-0.041-0.352-0.067l-0.082-0.813H29.47c-0.583,0.61-1.273,0.948-2.046,0.948
		c-1.87,0-2.764-1.559-2.764-3.455c0-1.883,0.799-3.875,2.954-3.875c0.677,0,1.301,0.23,1.802,0.583v-3.279
		c0.122-0.041,0.284-0.068,0.434-0.068c0.162,0,0.325,0.041,0.447,0.068v9.892C30.202,154.243,30.066,154.271,29.917,154.271z
		 M29.416,148.335c-0.488-0.406-1.111-0.61-1.748-0.61c-1.572,0-2.101,1.545-2.101,3.117c0,1.207,0.38,2.778,1.897,2.778
		c0.731,0,1.477-0.366,1.951-0.935V148.335z"/>
	<path fill="#333333" d="M37.181,150.91h-4.539c0.054,1.559,0.786,2.736,2.479,2.736c0.61,0,1.179-0.08,1.68-0.203
		c0.027,0.068,0.054,0.203,0.054,0.285c0,0.135-0.027,0.258-0.068,0.352c-0.528,0.163-1.192,0.258-1.748,0.258
		c-1.071,0-1.884-0.338-2.385-0.881c-0.597-0.65-0.908-1.625-0.908-2.75c0-1.965,0.989-3.699,2.968-3.699
		c1.775,0,2.479,1.463,2.479,3.252C37.194,150.463,37.194,150.707,37.181,150.91z M36.313,150.26c0-1.247-0.136-2.588-1.64-2.588
		c-1.314,0-1.951,1.206-2.032,2.588H36.313z"/>
	<path fill="#333333" d="M43.456,148.864l-2.127,5.339c-0.122,0.04-0.257,0.067-0.366,0.067c-0.149,0-0.271-0.027-0.379-0.067
		l-2.195-5.339c-0.244-0.61-0.352-1.22-0.352-1.721c0.108-0.027,0.298-0.068,0.42-0.068c0.163,0,0.325,0.027,0.46,0.068
		c0.014,0.461,0.068,0.989,0.271,1.477l1.761,4.472h0.027l1.708-4.472c0.19-0.474,0.285-1.003,0.285-1.477
		c0.095-0.041,0.298-0.068,0.474-0.068c0.095,0,0.271,0.014,0.393,0.055C43.821,147.617,43.727,148.2,43.456,148.864z"/>
	<path fill="#333333" d="M50.028,150.91h-4.539c0.054,1.559,0.786,2.736,2.479,2.736c0.61,0,1.179-0.08,1.68-0.203
		c0.027,0.068,0.054,0.203,0.054,0.285c0,0.135-0.027,0.258-0.068,0.352c-0.528,0.163-1.192,0.258-1.748,0.258
		c-1.07,0-1.883-0.338-2.385-0.881c-0.596-0.65-0.908-1.625-0.908-2.75c0-1.965,0.989-3.699,2.967-3.699
		c1.775,0,2.48,1.463,2.48,3.252C50.042,150.463,50.042,150.707,50.028,150.91z M49.161,150.26c0-1.247-0.135-2.588-1.64-2.588
		c-1.314,0-1.951,1.206-2.032,2.588H49.161z"/>
	<path fill="#333333" d="M52.427,154.203c-0.149,0.04-0.298,0.067-0.46,0.067c-0.136,0-0.298-0.027-0.42-0.067v-9.892
		c0.122-0.027,0.271-0.068,0.447-0.068c0.149,0,0.312,0.027,0.434,0.068V154.203z"/>
	<path fill="#333333" d="M56.817,154.338c-1.775,0-2.913-1.219-2.913-3.658c0-2.439,1.152-3.672,2.927-3.672
		c1.775,0,2.9,1.206,2.9,3.645C59.731,153.092,58.593,154.338,56.817,154.338z M56.831,147.672c-1.301,0-2.005,1.002-2.005,2.994
		c0,1.992,0.691,3.008,1.992,3.008s1.992-1.016,1.992-3.008C58.81,148.674,58.132,147.672,56.831,147.672z"/>
	<path fill="#333333" d="M65.653,153.471c-0.529,0.475-1.355,0.732-2.141,0.732c-0.556,0-1.07-0.096-1.45-0.23v3.414
		c-0.136,0.041-0.258,0.068-0.447,0.068c-0.149,0-0.325-0.027-0.434-0.068v-10.244c0.068-0.027,0.23-0.054,0.366-0.054
		c0.136,0,0.257,0.027,0.353,0.054l0.081,0.746h0.014c0.515-0.542,1.287-0.881,2.073-0.881c0.854,0,1.612,0.366,2.086,1.043
		c0.393,0.569,0.637,1.382,0.637,2.372C66.791,151.777,66.371,152.82,65.653,153.471z M63.973,147.726
		c-0.718,0-1.436,0.298-1.91,0.895v4.661c0.352,0.162,0.894,0.258,1.355,0.258c1.463,0,2.453-0.963,2.453-3.076
		C65.87,148.796,65.22,147.726,63.973,147.726z"/>
	<path fill="#333333" d="M73.743,154.338c-1.775,0-2.913-1.219-2.913-3.658c0-2.439,1.152-3.672,2.927-3.672
		c1.775,0,2.9,1.206,2.9,3.645C76.657,153.092,75.519,154.338,73.743,154.338z M73.757,147.672c-1.301,0-2.005,1.002-2.005,2.994
		c0,1.992,0.691,3.008,1.992,3.008s1.992-1.016,1.992-3.008C75.735,148.674,75.058,147.672,73.757,147.672z"/>
	<path fill="#333333" d="M83.311,151.52c0,2.06-0.854,2.818-2.642,2.818c-1.829,0-2.602-0.759-2.602-2.75v-4.445
		c0.122-0.041,0.284-0.068,0.434-0.068c0.189,0,0.339,0.041,0.447,0.068v4.335c0,1.314,0.203,2.182,1.734,2.182
		c1.436,0,1.748-0.84,1.748-2.208v-4.309c0.108-0.041,0.298-0.068,0.447-0.068s0.312,0.027,0.434,0.068V151.52z"/>
	<path fill="#333333" d="M88.271,147.793c-0.786,0.108-1.64,0.393-2.276,0.881v5.529c-0.136,0.04-0.298,0.067-0.447,0.067
		s-0.298-0.027-0.434-0.067v-7.06c0.081-0.027,0.203-0.054,0.339-0.054c0.108,0,0.257,0.027,0.366,0.054l0.068,0.867H85.9
		c0.583-0.501,1.599-0.921,2.371-1.002c0.027,0.081,0.054,0.23,0.054,0.352C88.326,147.496,88.298,147.672,88.271,147.793z"/>
	<path fill="#333333" d="M97.066,147.997c-0.434-0.176-1.002-0.285-1.504-0.285c-1.762,0-2.412,1.369-2.412,3.021
		c0,1.625,0.624,2.886,2.398,2.886c0.474,0,1.043-0.081,1.463-0.203c0.027,0.081,0.054,0.176,0.054,0.284
		c0,0.162-0.027,0.285-0.068,0.379c-0.393,0.163-1.03,0.258-1.531,0.258c-2.208,0-3.238-1.449-3.238-3.577
		c0-2.208,1.125-3.753,3.279-3.753c0.515,0,1.125,0.122,1.544,0.312c0.041,0.108,0.054,0.217,0.054,0.339
		C97.106,147.793,97.093,147.902,97.066,147.997z"/>
	<path fill="#333333" d="M103.72,151.52c0,2.06-0.854,2.818-2.642,2.818c-1.83,0-2.602-0.759-2.602-2.75v-4.445
		c0.122-0.041,0.285-0.068,0.434-0.068c0.189,0,0.338,0.041,0.447,0.068v4.335c0,1.314,0.204,2.182,1.734,2.182
		c1.437,0,1.748-0.84,1.748-2.208v-4.309c0.108-0.041,0.298-0.068,0.447-0.068s0.312,0.027,0.434,0.068V151.52z"/>
	<path fill="#333333" d="M108.68,147.793c-0.786,0.108-1.64,0.393-2.276,0.881v5.529c-0.136,0.04-0.298,0.067-0.447,0.067
		s-0.298-0.027-0.434-0.067v-7.06c0.082-0.027,0.203-0.054,0.339-0.054c0.108,0,0.257,0.027,0.366,0.054l0.068,0.867h0.013
		c0.583-0.501,1.599-0.921,2.372-1.002c0.027,0.081,0.054,0.23,0.054,0.352C108.734,147.496,108.707,147.672,108.68,147.793z"/>
	<path fill="#333333" d="M113.207,147.793c-0.786,0.108-1.64,0.393-2.276,0.881v5.529c-0.136,0.04-0.298,0.067-0.447,0.067
		s-0.298-0.027-0.434-0.067v-7.06c0.082-0.027,0.203-0.054,0.339-0.054c0.108,0,0.257,0.027,0.366,0.054l0.068,0.867h0.013
		c0.583-0.501,1.599-0.921,2.372-1.002c0.027,0.081,0.054,0.23,0.054,0.352C113.261,147.496,113.233,147.672,113.207,147.793z"/>
	<path fill="#333333" d="M115.063,145.761c-0.312,0-0.569-0.271-0.569-0.596s0.258-0.583,0.569-0.583s0.583,0.258,0.583,0.583
		S115.375,145.761,115.063,145.761z M115.511,154.203c-0.122,0.04-0.298,0.067-0.447,0.067s-0.312-0.027-0.434-0.067v-7.06
		c0.108-0.027,0.285-0.068,0.42-0.068c0.149,0,0.353,0.027,0.461,0.068V154.203z"/>
	<path fill="#333333" d="M121.853,147.997c-0.434-0.176-1.003-0.285-1.504-0.285c-1.762,0-2.412,1.369-2.412,3.021
		c0,1.625,0.624,2.886,2.398,2.886c0.474,0,1.043-0.081,1.463-0.203c0.027,0.081,0.054,0.176,0.054,0.284
		c0,0.162-0.027,0.285-0.068,0.379c-0.393,0.163-1.03,0.258-1.531,0.258c-2.209,0-3.239-1.449-3.239-3.577
		c0-2.208,1.125-3.753,3.279-3.753c0.515,0,1.125,0.122,1.544,0.312c0.041,0.108,0.054,0.217,0.054,0.339
		C121.893,147.793,121.88,147.902,121.853,147.997z"/>
	<path fill="#333333" d="M128.506,151.52c0,2.06-0.854,2.818-2.642,2.818c-1.829,0-2.602-0.759-2.602-2.75v-4.445
		c0.122-0.041,0.284-0.068,0.434-0.068c0.189,0,0.339,0.041,0.447,0.068v4.335c0,1.314,0.203,2.182,1.734,2.182
		c1.436,0,1.748-0.84,1.748-2.208v-4.309c0.108-0.041,0.298-0.068,0.447-0.068s0.312,0.027,0.434,0.068V151.52z"/>
	<path fill="#333333" d="M131.217,154.203c-0.149,0.04-0.298,0.067-0.46,0.067c-0.136,0-0.298-0.027-0.42-0.067v-9.892
		c0.122-0.027,0.271-0.068,0.447-0.068c0.149,0,0.312,0.027,0.434,0.068V154.203z"/>
	<path fill="#333333" d="M138.291,151.52c0,2.06-0.854,2.818-2.642,2.818c-1.829,0-2.602-0.759-2.602-2.75v-4.445
		c0.122-0.041,0.284-0.068,0.434-0.068c0.189,0,0.339,0.041,0.447,0.068v4.335c0,1.314,0.203,2.182,1.734,2.182
		c1.436,0,1.748-0.84,1.748-2.208v-4.309c0.108-0.041,0.298-0.068,0.447-0.068s0.312,0.027,0.434,0.068V151.52z"/>
	<path fill="#333333" d="M149.904,154.217c-0.135,0.026-0.271,0.054-0.407,0.054c-0.162,0-0.312-0.041-0.474-0.067v-4.282
		c0-1.49-0.379-2.168-1.639-2.168c-0.65,0-1.518,0.339-2.06,0.731c0.108,0.38,0.135,0.8,0.135,1.22v4.499
		c-0.135,0.04-0.271,0.067-0.407,0.067c-0.176,0-0.338-0.027-0.474-0.067v-4.282c0-1.49-0.338-2.168-1.599-2.168
		c-0.678,0-1.477,0.379-2.005,0.786v5.664c-0.149,0.04-0.325,0.067-0.488,0.067c-0.136,0-0.285-0.027-0.393-0.067v-7.06
		c0.068-0.027,0.217-0.054,0.366-0.054c0.122,0,0.271,0.027,0.366,0.054l0.068,0.705h0.014c0.745-0.609,1.599-0.84,2.29-0.84
		s1.355,0.23,1.748,0.705c0.055,0.054,0.095,0.122,0.136,0.189c0.718-0.583,1.64-0.894,2.521-0.894c0.691,0,1.396,0.23,1.788,0.705
		c0.434,0.515,0.515,1.26,0.515,1.992V154.217z"/>
	<path fill="#333333" d="M159.513,152.469c0,0.487,0,1.098,0.027,1.734c-0.095,0.04-0.244,0.067-0.366,0.067
		c-0.108,0-0.257-0.027-0.366-0.067c-0.04-0.217-0.067-0.502-0.081-0.76h-0.014c-0.46,0.569-1.273,0.895-2.073,0.895
		c-1.26,0-2.316-0.704-2.316-2.154c0-0.826,0.339-1.436,0.867-1.815c0.596-0.42,1.382-0.556,2.222-0.556
		c0.475,0,0.867,0.027,1.22,0.081v-0.393c0-1.355-0.556-1.802-1.693-1.802c-0.637,0-1.423,0.135-1.911,0.257
		c-0.026-0.067-0.054-0.217-0.054-0.352c0-0.095,0.027-0.23,0.067-0.312c0.583-0.176,1.355-0.284,2.006-0.284
		c1.612,0,2.466,0.731,2.466,2.385V152.469z M158.632,150.558c-0.393-0.054-0.799-0.081-1.151-0.081
		c-0.664,0-1.261,0.122-1.667,0.434c-0.365,0.271-0.569,0.705-0.569,1.26c0,0.989,0.638,1.464,1.518,1.464
		c0.732,0,1.505-0.353,1.87-0.908V150.558z"/>
	<path fill="#333333" d="M166.804,154.217c-0.109,0.026-0.271,0.054-0.434,0.054c-0.136,0-0.312-0.027-0.447-0.067v-4.296
		c0-0.65-0.082-1.151-0.271-1.504c-0.23-0.434-0.664-0.65-1.368-0.65c-0.678,0-1.491,0.379-2.02,0.786v5.664
		c-0.148,0.04-0.298,0.067-0.46,0.067c-0.136,0-0.299-0.027-0.42-0.067v-7.06c0.095-0.041,0.257-0.054,0.352-0.054
		c0.136,0,0.299,0.014,0.38,0.054l0.067,0.705h0.014c0.745-0.609,1.599-0.84,2.29-0.84c0.69,0,1.409,0.23,1.802,0.705
		c0.434,0.515,0.516,1.26,0.516,1.992V154.217z"/>
	<path fill="#333333" d="M173.472,154.271c-0.122,0-0.271-0.041-0.353-0.067l-0.081-0.813h-0.014
		c-0.583,0.61-1.273,0.948-2.046,0.948c-1.87,0-2.765-1.559-2.765-3.455c0-1.883,0.8-3.875,2.954-3.875
		c0.678,0,1.301,0.23,1.802,0.583v-3.279c0.122-0.041,0.285-0.068,0.434-0.068c0.163,0,0.325,0.041,0.447,0.068v9.892
		C173.756,154.243,173.62,154.271,173.472,154.271z M172.97,148.335c-0.487-0.406-1.111-0.61-1.748-0.61
		c-1.571,0-2.1,1.545-2.1,3.117c0,1.207,0.379,2.778,1.896,2.778c0.732,0,1.478-0.366,1.951-0.935V148.335z"/>
	<path fill="#333333" d="M184.095,154.203c-0.121,0.04-0.271,0.067-0.406,0.067c-0.162,0-0.339-0.027-0.474-0.067v-4.282
		c0-1.49-0.38-2.168-1.64-2.168c-0.678,0-1.49,0.379-2.02,0.786v5.664c-0.148,0.04-0.312,0.067-0.46,0.067
		c-0.136,0-0.299-0.027-0.421-0.067v-9.892c0.122-0.041,0.312-0.068,0.434-0.068c0.122,0,0.326,0.027,0.447,0.068v3.482
		c0.719-0.555,1.572-0.786,2.236-0.786c0.69,0,1.396,0.23,1.788,0.705c0.434,0.515,0.515,1.26,0.515,1.992V154.203z"/>
	<path fill="#333333" d="M190.723,152.469c0,0.487,0,1.098,0.027,1.734c-0.095,0.04-0.244,0.067-0.366,0.067
		c-0.108,0-0.258-0.027-0.365-0.067c-0.041-0.217-0.068-0.502-0.082-0.76h-0.014c-0.46,0.569-1.273,0.895-2.072,0.895
		c-1.261,0-2.317-0.704-2.317-2.154c0-0.826,0.339-1.436,0.867-1.815c0.596-0.42,1.382-0.556,2.222-0.556
		c0.475,0,0.867,0.027,1.22,0.081v-0.393c0-1.355-0.556-1.802-1.693-1.802c-0.637,0-1.423,0.135-1.911,0.257
		c-0.026-0.067-0.054-0.217-0.054-0.352c0-0.095,0.027-0.23,0.067-0.312c0.583-0.176,1.355-0.284,2.006-0.284
		c1.612,0,2.466,0.731,2.466,2.385V152.469z M189.842,150.558c-0.393-0.054-0.8-0.081-1.151-0.081c-0.664,0-1.261,0.122-1.667,0.434
		c-0.366,0.271-0.569,0.705-0.569,1.26c0,0.989,0.637,1.464,1.518,1.464c0.732,0,1.504-0.353,1.87-0.908V150.558z"/>
	<path fill="#333333" d="M197.24,148.864l-2.127,5.339c-0.122,0.04-0.258,0.067-0.366,0.067c-0.148,0-0.271-0.027-0.379-0.067
		l-2.195-5.339c-0.244-0.61-0.353-1.22-0.353-1.721c0.108-0.027,0.299-0.068,0.421-0.068c0.162,0,0.324,0.027,0.46,0.068
		c0.014,0.461,0.068,0.989,0.271,1.477l1.761,4.472h0.027l1.707-4.472c0.19-0.474,0.285-1.003,0.285-1.477
		c0.095-0.041,0.298-0.068,0.475-0.068c0.095,0,0.271,0.014,0.393,0.055C197.606,147.617,197.512,148.2,197.24,148.864z"/>
	<path fill="#333333" d="M203.813,150.91h-4.539c0.054,1.559,0.786,2.736,2.479,2.736c0.609,0,1.179-0.08,1.681-0.203
		c0.026,0.068,0.054,0.203,0.054,0.285c0,0.135-0.027,0.258-0.067,0.352c-0.529,0.163-1.192,0.258-1.748,0.258
		c-1.07,0-1.884-0.338-2.385-0.881c-0.597-0.65-0.908-1.625-0.908-2.75c0-1.965,0.989-3.699,2.968-3.699
		c1.774,0,2.479,1.463,2.479,3.252C203.827,150.463,203.827,150.707,203.813,150.91z M202.946,150.26
		c0-1.247-0.136-2.588-1.64-2.588c-1.314,0-1.951,1.206-2.032,2.588H202.946z"/>
	<path fill="#333333" d="M213.109,152.469c0,0.487,0,1.098,0.027,1.734c-0.095,0.04-0.244,0.067-0.366,0.067
		c-0.108,0-0.258-0.027-0.365-0.067c-0.041-0.217-0.068-0.502-0.082-0.76h-0.014c-0.46,0.569-1.273,0.895-2.072,0.895
		c-1.261,0-2.317-0.704-2.317-2.154c0-0.826,0.339-1.436,0.867-1.815c0.596-0.42,1.382-0.556,2.222-0.556
		c0.475,0,0.867,0.027,1.22,0.081v-0.393c0-1.355-0.556-1.802-1.693-1.802c-0.637,0-1.423,0.135-1.911,0.257
		c-0.026-0.067-0.054-0.217-0.054-0.352c0-0.095,0.027-0.23,0.067-0.312c0.583-0.176,1.355-0.284,2.006-0.284
		c1.612,0,2.466,0.731,2.466,2.385V152.469z M212.229,150.558c-0.393-0.054-0.8-0.081-1.151-0.081c-0.664,0-1.261,0.122-1.667,0.434
		c-0.366,0.271-0.569,0.705-0.569,1.26c0,0.989,0.637,1.464,1.518,1.464c0.732,0,1.504-0.353,1.87-0.908V150.558z"/>
	<path fill="#333333" d="M219.425,147.997c-0.434-0.176-1.002-0.285-1.504-0.285c-1.761,0-2.411,1.369-2.411,3.021
		c0,1.625,0.623,2.886,2.397,2.886c0.475,0,1.044-0.081,1.464-0.203c0.027,0.081,0.054,0.176,0.054,0.284
		c0,0.162-0.026,0.285-0.067,0.379c-0.393,0.163-1.029,0.258-1.531,0.258c-2.208,0-3.238-1.449-3.238-3.577
		c0-2.208,1.125-3.753,3.279-3.753c0.515,0,1.124,0.122,1.545,0.312c0.04,0.108,0.054,0.217,0.054,0.339
		C219.466,147.793,219.452,147.902,219.425,147.997z"/>
	<path fill="#333333" d="M226.296,154.203c-0.122,0.04-0.271,0.067-0.407,0.067c-0.162,0-0.339-0.027-0.474-0.067v-4.282
		c0-1.49-0.38-2.168-1.64-2.168c-0.678,0-1.491,0.379-2.02,0.786v5.664c-0.148,0.04-0.312,0.067-0.46,0.067
		c-0.136,0-0.299-0.027-0.42-0.067v-9.892c0.121-0.041,0.312-0.068,0.434-0.068c0.121,0,0.324,0.027,0.446,0.068v3.482
		c0.719-0.555,1.572-0.786,2.236-0.786c0.69,0,1.396,0.23,1.788,0.705c0.434,0.515,0.516,1.26,0.516,1.992V154.203z"/>
	<path fill="#333333" d="M228.587,145.761c-0.312,0-0.569-0.271-0.569-0.596s0.258-0.583,0.569-0.583s0.583,0.258,0.583,0.583
		S228.898,145.761,228.587,145.761z M229.034,154.203c-0.122,0.04-0.298,0.067-0.447,0.067s-0.312-0.027-0.434-0.067v-7.06
		c0.108-0.027,0.284-0.068,0.42-0.068c0.149,0,0.353,0.027,0.461,0.068V154.203z"/>
	<path fill="#333333" d="M235.972,150.91h-4.539c0.054,1.559,0.786,2.736,2.479,2.736c0.609,0,1.179-0.08,1.681-0.203
		c0.026,0.068,0.054,0.203,0.054,0.285c0,0.135-0.027,0.258-0.067,0.352c-0.529,0.163-1.192,0.258-1.748,0.258
		c-1.07,0-1.884-0.338-2.385-0.881c-0.597-0.65-0.908-1.625-0.908-2.75c0-1.965,0.989-3.699,2.968-3.699
		c1.774,0,2.479,1.463,2.479,3.252C235.985,150.463,235.985,150.707,235.972,150.91z M235.104,150.26
		c0-1.247-0.136-2.588-1.64-2.588c-1.314,0-1.951,1.206-2.032,2.588H235.104z"/>
	<path fill="#333333" d="M242.246,148.864l-2.127,5.339c-0.122,0.04-0.258,0.067-0.366,0.067c-0.148,0-0.271-0.027-0.379-0.067
		l-2.195-5.339c-0.244-0.61-0.353-1.22-0.353-1.721c0.108-0.027,0.299-0.068,0.421-0.068c0.162,0,0.324,0.027,0.46,0.068
		c0.014,0.461,0.068,0.989,0.271,1.477l1.761,4.472h0.027l1.707-4.472c0.19-0.474,0.285-1.003,0.285-1.477
		c0.095-0.041,0.298-0.068,0.475-0.068c0.095,0,0.271,0.014,0.393,0.055C242.612,147.617,242.518,148.2,242.246,148.864z"/>
	<path fill="#333333" d="M248.805,150.91h-4.539c0.054,1.559,0.786,2.736,2.479,2.736c0.609,0,1.179-0.08,1.68-0.203
		c0.027,0.068,0.055,0.203,0.055,0.285c0,0.135-0.027,0.258-0.067,0.352c-0.528,0.163-1.192,0.258-1.748,0.258
		c-1.07,0-1.884-0.338-2.385-0.881c-0.597-0.65-0.908-1.625-0.908-2.75c0-1.965,0.989-3.699,2.968-3.699
		c1.774,0,2.479,1.463,2.479,3.252C248.818,150.463,248.818,150.707,248.805,150.91z M247.938,150.26
		c0-1.247-0.136-2.588-1.64-2.588c-1.314,0-1.951,1.206-2.032,2.588H247.938z"/>
	<path fill="#333333" d="M255.161,154.271c-0.122,0-0.271-0.041-0.353-0.067l-0.081-0.813h-0.014
		c-0.583,0.61-1.273,0.948-2.046,0.948c-1.87,0-2.765-1.559-2.765-3.455c0-1.883,0.8-3.875,2.954-3.875
		c0.678,0,1.301,0.23,1.802,0.583v-3.279c0.122-0.041,0.285-0.068,0.434-0.068c0.163,0,0.325,0.041,0.447,0.068v9.892
		C255.445,154.243,255.31,154.271,255.161,154.271z M254.659,148.335c-0.487-0.406-1.111-0.61-1.748-0.61
		c-1.571,0-2.1,1.545-2.1,3.117c0,1.207,0.379,2.778,1.896,2.778c0.732,0,1.478-0.366,1.951-0.935V148.335z"/>
</g>
<g>
	<path fill="#333333" d="M15.484,167.471h-4.539c0.054,1.558,0.786,2.736,2.479,2.736c0.61,0,1.179-0.081,1.68-0.203
		c0.027,0.067,0.054,0.203,0.054,0.284c0,0.136-0.027,0.258-0.068,0.353c-0.528,0.163-1.192,0.258-1.748,0.258
		c-1.071,0-1.884-0.339-2.385-0.881c-0.597-0.65-0.908-1.626-0.908-2.751c0-1.964,0.989-3.698,2.968-3.698
		c1.775,0,2.479,1.463,2.479,3.252C15.498,167.023,15.498,167.267,15.484,167.471z M14.617,166.82c0-1.247-0.136-2.589-1.64-2.589
		c-1.314,0-1.951,1.206-2.032,2.589H14.617z"/>
	<path fill="#333333" d="M21.84,170.83c-0.176,0-0.285-0.026-0.42-0.067c-0.082-0.366-0.163-0.637-0.434-1.003l-1.572-2.141
		l-1.667,2.222c-0.298,0.394-0.339,0.569-0.393,0.922c-0.149,0.041-0.312,0.067-0.434,0.067c-0.136,0-0.393-0.026-0.488-0.067
		c0.054-0.447,0.203-0.745,0.488-1.125l1.965-2.588l-1.68-2.222c-0.379-0.502-0.501-0.881-0.501-1.152
		c0.108-0.027,0.339-0.054,0.474-0.054c0.163,0,0.339,0.014,0.447,0.054c0.041,0.258,0.122,0.543,0.434,0.977l1.328,1.814
		l1.369-1.788c0.325-0.42,0.407-0.718,0.461-1.003c0.108-0.027,0.271-0.054,0.447-0.054c0.095,0,0.339,0.026,0.434,0.054
		c-0.013,0.38-0.203,0.732-0.501,1.139l-1.667,2.209l1.897,2.574c0.312,0.42,0.474,0.718,0.542,1.165
		C22.233,170.804,21.989,170.83,21.84,170.83z"/>
	<path fill="#333333" d="M27.464,170.695c-0.353,0.122-0.881,0.203-1.274,0.203c-1.341,0-1.978-0.637-1.978-2.141v-4.363h-1.22
		c-0.027-0.068-0.041-0.23-0.041-0.312c0-0.067,0.014-0.229,0.041-0.297l1.22-0.082v-1.843c0.108-0.04,0.285-0.067,0.434-0.067
		s0.338,0.027,0.447,0.067v1.843h1.992c0.027,0.068,0.054,0.271,0.054,0.339c0,0.095-0.027,0.257-0.054,0.353h-1.992v4.281
		c0,1.07,0.312,1.518,1.152,1.518c0.461,0,0.908-0.067,1.22-0.162c0.027,0.067,0.054,0.23,0.054,0.325
		C27.519,170.479,27.505,170.573,27.464,170.695z"/>
	<path fill="#333333" d="M33.495,167.471h-4.539c0.054,1.558,0.786,2.736,2.479,2.736c0.61,0,1.179-0.081,1.68-0.203
		c0.027,0.067,0.054,0.203,0.054,0.284c0,0.136-0.027,0.258-0.068,0.353c-0.528,0.163-1.192,0.258-1.748,0.258
		c-1.07,0-1.883-0.339-2.385-0.881c-0.596-0.65-0.908-1.626-0.908-2.751c0-1.964,0.989-3.698,2.967-3.698
		c1.775,0,2.48,1.463,2.48,3.252C33.508,167.023,33.508,167.267,33.495,167.471z M32.627,166.82c0-1.247-0.135-2.589-1.64-2.589
		c-1.314,0-1.951,1.206-2.032,2.589H32.627z"/>
	<path fill="#333333" d="M40.406,170.776c-0.108,0.027-0.271,0.054-0.434,0.054c-0.136,0-0.312-0.026-0.447-0.067v-4.296
		c0-0.65-0.081-1.151-0.271-1.504c-0.23-0.434-0.664-0.65-1.369-0.65c-0.677,0-1.49,0.38-2.019,0.786v5.664
		c-0.149,0.041-0.298,0.067-0.461,0.067c-0.135,0-0.298-0.026-0.42-0.067v-7.06c0.095-0.041,0.257-0.055,0.353-0.055
		c0.135,0,0.298,0.014,0.379,0.055l0.068,0.705h0.014c0.745-0.61,1.599-0.84,2.29-0.84s1.409,0.229,1.802,0.704
		c0.434,0.515,0.515,1.26,0.515,1.991V170.776z"/>
	<path fill="#333333" d="M43.781,170.898c-0.677,0-1.382-0.122-1.87-0.312c-0.041-0.096-0.068-0.258-0.068-0.38
		c0-0.081,0.027-0.284,0.054-0.366c0.501,0.204,1.219,0.366,1.815,0.366c1.03,0,1.667-0.434,1.667-1.287
		c0-0.772-0.393-1.043-1.464-1.437c-1.49-0.542-1.978-1.165-1.978-2.087c0-1.246,1.03-1.828,2.358-1.828
		c0.447,0,1.029,0.08,1.368,0.189c0.041,0.121,0.054,0.244,0.054,0.324c0,0.109-0.027,0.299-0.054,0.394
		c-0.447-0.136-0.921-0.217-1.382-0.217c-0.962,0-1.545,0.366-1.545,1.111c0,0.65,0.366,0.962,1.477,1.382
		c1.016,0.379,1.951,0.759,1.951,2.127C46.166,170.262,45.122,170.898,43.781,170.898z"/>
	<path fill="#333333" d="M48.091,162.321c-0.312,0-0.569-0.271-0.569-0.597c0-0.324,0.258-0.582,0.569-0.582
		s0.583,0.258,0.583,0.582C48.673,162.051,48.402,162.321,48.091,162.321z M48.538,170.763c-0.122,0.041-0.298,0.067-0.447,0.067
		s-0.312-0.026-0.434-0.067v-7.06c0.108-0.027,0.285-0.067,0.42-0.067c0.149,0,0.353,0.026,0.461,0.067V170.763z"/>
	<path fill="#333333" d="M55.218,165.424l-2.127,5.339c-0.122,0.041-0.257,0.067-0.366,0.067c-0.149,0-0.271-0.026-0.379-0.067
		l-2.195-5.339c-0.244-0.609-0.352-1.219-0.352-1.721c0.108-0.027,0.298-0.067,0.42-0.067c0.163,0,0.325,0.026,0.46,0.067
		c0.014,0.461,0.068,0.989,0.271,1.477l1.761,4.472h0.027l1.708-4.472c0.19-0.474,0.285-1.002,0.285-1.477
		c0.095-0.041,0.298-0.067,0.474-0.067c0.095,0,0.271,0.013,0.393,0.054C55.584,164.178,55.489,164.76,55.218,165.424z"/>
	<path fill="#333333" d="M61.791,167.471h-4.539c0.054,1.558,0.786,2.736,2.479,2.736c0.61,0,1.179-0.081,1.68-0.203
		c0.027,0.067,0.054,0.203,0.054,0.284c0,0.136-0.027,0.258-0.068,0.353c-0.528,0.163-1.192,0.258-1.748,0.258
		c-1.07,0-1.883-0.339-2.385-0.881c-0.596-0.65-0.908-1.626-0.908-2.751c0-1.964,0.989-3.698,2.967-3.698
		c1.775,0,2.48,1.463,2.48,3.252C61.804,167.023,61.804,167.267,61.791,167.471z M60.923,166.82c0-1.247-0.135-2.589-1.64-2.589
		c-1.314,0-1.951,1.206-2.032,2.589H60.923z"/>
	<path fill="#333333" d="M71.087,169.028c0,0.488,0,1.098,0.027,1.734c-0.095,0.041-0.244,0.067-0.366,0.067
		c-0.108,0-0.257-0.026-0.366-0.067c-0.041-0.217-0.068-0.501-0.081-0.759h-0.014c-0.461,0.569-1.274,0.895-2.073,0.895
		c-1.26,0-2.317-0.705-2.317-2.154c0-0.827,0.338-1.437,0.867-1.816c0.596-0.42,1.382-0.555,2.222-0.555
		c0.474,0,0.867,0.026,1.219,0.081v-0.394c0-1.354-0.555-1.802-1.694-1.802c-0.637,0-1.422,0.136-1.91,0.257
		c-0.027-0.067-0.054-0.217-0.054-0.352c0-0.095,0.027-0.23,0.068-0.312c0.583-0.177,1.354-0.284,2.005-0.284
		c1.613,0,2.466,0.73,2.466,2.385V169.028z M70.207,167.117c-0.393-0.054-0.799-0.08-1.152-0.08c-0.664,0-1.26,0.121-1.667,0.434
		c-0.366,0.271-0.569,0.704-0.569,1.26c0,0.989,0.637,1.463,1.518,1.463c0.731,0,1.504-0.353,1.87-0.907V167.117z"/>
	<path fill="#333333" d="M77.402,164.557c-0.434-0.176-1.003-0.284-1.504-0.284c-1.762,0-2.412,1.368-2.412,3.021
		c0,1.626,0.624,2.886,2.398,2.886c0.474,0,1.043-0.081,1.463-0.203c0.027,0.081,0.054,0.177,0.054,0.285
		c0,0.162-0.027,0.284-0.068,0.379c-0.393,0.163-1.03,0.258-1.531,0.258c-2.209,0-3.239-1.45-3.239-3.577
		c0-2.209,1.125-3.753,3.279-3.753c0.515,0,1.125,0.121,1.544,0.311c0.041,0.109,0.054,0.217,0.054,0.34
		C77.443,164.354,77.43,164.462,77.402,164.557z"/>
	<path fill="#333333" d="M83.297,164.557c-0.434-0.176-1.002-0.284-1.504-0.284c-1.762,0-2.412,1.368-2.412,3.021
		c0,1.626,0.624,2.886,2.398,2.886c0.474,0,1.043-0.081,1.463-0.203c0.027,0.081,0.054,0.177,0.054,0.285
		c0,0.162-0.027,0.284-0.068,0.379c-0.393,0.163-1.03,0.258-1.531,0.258c-2.208,0-3.238-1.45-3.238-3.577
		c0-2.209,1.125-3.753,3.279-3.753c0.515,0,1.125,0.121,1.544,0.311c0.041,0.109,0.054,0.217,0.054,0.34
		C83.338,164.354,83.324,164.462,83.297,164.557z"/>
	<path fill="#333333" d="M87.905,164.354c-0.786,0.108-1.64,0.393-2.276,0.881v5.528c-0.136,0.041-0.298,0.067-0.447,0.067
		s-0.298-0.026-0.434-0.067v-7.06c0.081-0.027,0.203-0.055,0.339-0.055c0.108,0,0.257,0.027,0.366,0.055l0.068,0.867h0.014
		c0.583-0.501,1.599-0.922,2.371-1.002c0.027,0.08,0.054,0.229,0.054,0.352C87.959,164.056,87.932,164.231,87.905,164.354z"/>
	<path fill="#333333" d="M93.963,167.471h-4.539c0.054,1.558,0.786,2.736,2.479,2.736c0.61,0,1.179-0.081,1.68-0.203
		c0.027,0.067,0.054,0.203,0.054,0.284c0,0.136-0.027,0.258-0.068,0.353c-0.528,0.163-1.192,0.258-1.748,0.258
		c-1.071,0-1.884-0.339-2.385-0.881c-0.597-0.65-0.908-1.626-0.908-2.751c0-1.964,0.989-3.698,2.968-3.698
		c1.775,0,2.479,1.463,2.479,3.252C93.977,167.023,93.977,167.267,93.963,167.471z M93.096,166.82c0-1.247-0.136-2.589-1.64-2.589
		c-1.314,0-1.951,1.206-2.032,2.589H93.096z"/>
	<path fill="#333333" d="M100.318,170.83c-0.122,0-0.271-0.04-0.352-0.067l-0.082-0.812h-0.014
		c-0.583,0.609-1.273,0.948-2.046,0.948c-1.87,0-2.764-1.559-2.764-3.455c0-1.884,0.799-3.875,2.954-3.875
		c0.677,0,1.301,0.229,1.802,0.582v-3.279c0.122-0.041,0.284-0.067,0.434-0.067c0.162,0,0.325,0.04,0.447,0.067v9.892
		C100.603,170.804,100.468,170.83,100.318,170.83z M99.817,164.896c-0.488-0.406-1.111-0.609-1.748-0.609
		c-1.572,0-2.101,1.544-2.101,3.116c0,1.206,0.38,2.777,1.897,2.777c0.731,0,1.477-0.365,1.951-0.935V164.896z"/>
	<path fill="#333333" d="M103.436,162.321c-0.312,0-0.569-0.271-0.569-0.597c0-0.324,0.257-0.582,0.569-0.582
		s0.583,0.258,0.583,0.582C104.019,162.051,103.748,162.321,103.436,162.321z M103.883,170.763
		c-0.122,0.041-0.298,0.067-0.447,0.067s-0.312-0.026-0.434-0.067v-7.06c0.108-0.027,0.285-0.067,0.42-0.067
		c0.149,0,0.353,0.026,0.461,0.067V170.763z"/>
	<path fill="#333333" d="M109.534,170.695c-0.353,0.122-0.881,0.203-1.274,0.203c-1.341,0-1.978-0.637-1.978-2.141v-4.363h-1.22
		c-0.027-0.068-0.041-0.23-0.041-0.312c0-0.067,0.014-0.229,0.041-0.297l1.22-0.082v-1.843c0.108-0.04,0.284-0.067,0.434-0.067
		c0.149,0,0.339,0.027,0.447,0.067v1.843h1.992c0.027,0.068,0.054,0.271,0.054,0.339c0,0.095-0.027,0.257-0.054,0.353h-1.992v4.281
		c0,1.07,0.312,1.518,1.151,1.518c0.461,0,0.908-0.067,1.22-0.162c0.027,0.067,0.054,0.23,0.054,0.325
		C109.588,170.479,109.575,170.573,109.534,170.695z"/>
	<path fill="#333333" d="M115.551,169.028c0,0.488,0,1.098,0.027,1.734c-0.095,0.041-0.244,0.067-0.366,0.067
		c-0.108,0-0.257-0.026-0.366-0.067c-0.041-0.217-0.068-0.501-0.082-0.759h-0.013c-0.461,0.569-1.274,0.895-2.073,0.895
		c-1.26,0-2.317-0.705-2.317-2.154c0-0.827,0.339-1.437,0.867-1.816c0.596-0.42,1.382-0.555,2.222-0.555
		c0.474,0,0.867,0.026,1.219,0.081v-0.394c0-1.354-0.556-1.802-1.693-1.802c-0.637,0-1.423,0.136-1.911,0.257
		c-0.027-0.067-0.054-0.217-0.054-0.352c0-0.095,0.027-0.23,0.067-0.312c0.583-0.177,1.355-0.284,2.006-0.284
		c1.612,0,2.466,0.73,2.466,2.385V169.028z M114.67,167.117c-0.393-0.054-0.799-0.08-1.151-0.08c-0.664,0-1.26,0.121-1.667,0.434
		c-0.366,0.271-0.569,0.704-0.569,1.26c0,0.989,0.637,1.463,1.518,1.463c0.731,0,1.504-0.353,1.87-0.907V167.117z"/>
	<path fill="#333333" d="M121.175,170.695c-0.353,0.122-0.881,0.203-1.274,0.203c-1.341,0-1.978-0.637-1.978-2.141v-4.363h-1.22
		c-0.027-0.068-0.041-0.23-0.041-0.312c0-0.067,0.014-0.229,0.041-0.297l1.22-0.082v-1.843c0.108-0.04,0.284-0.067,0.434-0.067
		c0.149,0,0.339,0.027,0.447,0.067v1.843h1.992c0.027,0.068,0.054,0.271,0.054,0.339c0,0.095-0.027,0.257-0.054,0.353h-1.992v4.281
		c0,1.07,0.312,1.518,1.151,1.518c0.461,0,0.908-0.067,1.22-0.162c0.027,0.067,0.054,0.23,0.054,0.325
		C121.229,170.479,121.215,170.573,121.175,170.695z"/>
	<path fill="#333333" d="M122.978,162.321c-0.312,0-0.569-0.271-0.569-0.597c0-0.324,0.258-0.582,0.569-0.582
		s0.583,0.258,0.583,0.582C123.56,162.051,123.289,162.321,122.978,162.321z M123.425,170.763c-0.122,0.041-0.298,0.067-0.447,0.067
		s-0.312-0.026-0.434-0.067v-7.06c0.108-0.027,0.285-0.067,0.42-0.067c0.149,0,0.353,0.026,0.461,0.067V170.763z"/>
	<path fill="#333333" d="M127.843,170.898c-1.775,0-2.914-1.22-2.914-3.658c0-2.439,1.152-3.672,2.927-3.672s2.9,1.205,2.9,3.645
		C130.756,169.651,129.618,170.898,127.843,170.898z M127.856,164.231c-1.301,0-2.005,1.003-2.005,2.995
		c0,1.991,0.691,3.008,1.992,3.008s1.992-1.017,1.992-3.008C129.834,165.234,129.157,164.231,127.856,164.231z"/>
	<path fill="#333333" d="M137.626,170.776c-0.108,0.027-0.271,0.054-0.434,0.054c-0.135,0-0.312-0.026-0.447-0.067v-4.296
		c0-0.65-0.081-1.151-0.271-1.504c-0.23-0.434-0.664-0.65-1.368-0.65c-0.678,0-1.491,0.38-2.019,0.786v5.664
		c-0.149,0.041-0.298,0.067-0.461,0.067c-0.135,0-0.298-0.026-0.42-0.067v-7.06c0.095-0.041,0.257-0.055,0.352-0.055
		c0.136,0,0.298,0.014,0.38,0.055l0.067,0.705h0.014c0.745-0.61,1.599-0.84,2.29-0.84c0.691,0,1.409,0.229,1.802,0.704
		c0.434,0.515,0.515,1.26,0.515,1.991V170.776z"/>
	<path fill="#333333" d="M146.408,161.454c-0.203-0.054-0.569-0.108-0.854-0.108c-0.515,0-0.895,0.135-1.152,0.42
		c-0.393,0.42-0.46,0.989-0.46,1.707v0.23h1.91c0.027,0.068,0.055,0.23,0.055,0.325c0,0.108-0.027,0.271-0.055,0.366h-1.91v6.368
		c-0.122,0.041-0.258,0.067-0.434,0.067c-0.176,0-0.325-0.026-0.447-0.067v-6.368h-1.22c-0.027-0.068-0.041-0.244-0.041-0.325
		c0-0.067,0.014-0.217,0.041-0.284l1.22-0.082v-0.23c0-0.962,0.163-1.626,0.718-2.182c0.393-0.393,0.976-0.582,1.639-0.582
		c0.353,0,0.746,0.081,0.989,0.176c0.027,0.068,0.041,0.162,0.041,0.258C146.449,161.224,146.436,161.387,146.408,161.454z"/>
	<path fill="#333333" d="M150.257,164.354c-0.786,0.108-1.64,0.393-2.276,0.881v5.528c-0.136,0.041-0.298,0.067-0.447,0.067
		s-0.298-0.026-0.434-0.067v-7.06c0.082-0.027,0.203-0.055,0.339-0.055c0.108,0,0.257,0.027,0.366,0.055l0.068,0.867h0.013
		c0.583-0.501,1.599-0.922,2.372-1.002c0.027,0.08,0.054,0.229,0.054,0.352C150.312,164.056,150.284,164.231,150.257,164.354z"/>
	<path fill="#333333" d="M153.794,170.898c-1.774,0-2.913-1.22-2.913-3.658c0-2.439,1.151-3.672,2.927-3.672
		s2.899,1.205,2.899,3.645C156.707,169.651,155.569,170.898,153.794,170.898z M153.808,164.231c-1.301,0-2.005,1.003-2.005,2.995
		c0,1.991,0.69,3.008,1.991,3.008s1.992-1.017,1.992-3.008C155.786,165.234,155.108,164.231,153.808,164.231z"/>
	<path fill="#333333" d="M167.969,170.776c-0.136,0.027-0.271,0.054-0.406,0.054c-0.163,0-0.312-0.04-0.475-0.067v-4.282
		c0-1.49-0.379-2.168-1.64-2.168c-0.65,0-1.518,0.34-2.06,0.732c0.108,0.379,0.136,0.799,0.136,1.219v4.499
		c-0.136,0.041-0.271,0.067-0.406,0.067c-0.177,0-0.339-0.026-0.475-0.067v-4.282c0-1.49-0.339-2.168-1.599-2.168
		c-0.678,0-1.478,0.38-2.006,0.786v5.664c-0.148,0.041-0.325,0.067-0.487,0.067c-0.136,0-0.285-0.026-0.393-0.067v-7.06
		c0.067-0.027,0.217-0.055,0.365-0.055c0.122,0,0.271,0.027,0.366,0.055l0.067,0.705h0.014c0.745-0.61,1.599-0.84,2.29-0.84
		c0.69,0,1.354,0.229,1.748,0.704c0.054,0.054,0.095,0.122,0.136,0.189c0.718-0.583,1.639-0.894,2.52-0.894
		c0.691,0,1.396,0.229,1.789,0.704c0.434,0.515,0.515,1.26,0.515,1.991V170.776z"/>
	<path fill="#333333" d="M177.577,169.028c0,0.488,0,1.098,0.027,1.734c-0.095,0.041-0.244,0.067-0.366,0.067
		c-0.108,0-0.257-0.026-0.366-0.067c-0.04-0.217-0.067-0.501-0.081-0.759h-0.014c-0.46,0.569-1.273,0.895-2.073,0.895
		c-1.26,0-2.316-0.705-2.316-2.154c0-0.827,0.339-1.437,0.867-1.816c0.596-0.42,1.382-0.555,2.222-0.555
		c0.475,0,0.867,0.026,1.22,0.081v-0.394c0-1.354-0.556-1.802-1.693-1.802c-0.637,0-1.423,0.136-1.911,0.257
		c-0.026-0.067-0.054-0.217-0.054-0.352c0-0.095,0.027-0.23,0.067-0.312c0.583-0.177,1.355-0.284,2.006-0.284
		c1.612,0,2.466,0.73,2.466,2.385V169.028z M176.696,167.117c-0.393-0.054-0.799-0.08-1.151-0.08c-0.664,0-1.261,0.121-1.667,0.434
		c-0.365,0.271-0.569,0.704-0.569,1.26c0,0.989,0.638,1.463,1.518,1.463c0.732,0,1.505-0.353,1.87-0.907V167.117z"/>
	<path fill="#333333" d="M185.586,164.354c-0.785,0.108-1.64,0.393-2.276,0.881v5.528c-0.135,0.041-0.298,0.067-0.447,0.067
		c-0.148,0-0.298-0.026-0.434-0.067v-7.06c0.082-0.027,0.204-0.055,0.339-0.055c0.108,0,0.258,0.027,0.366,0.055l0.067,0.867h0.014
		c0.583-0.501,1.599-0.922,2.371-1.002c0.027,0.08,0.055,0.229,0.055,0.352C185.641,164.056,185.613,164.231,185.586,164.354z"/>
	<path fill="#333333" d="M191.346,169.028c0,0.488,0,1.098,0.027,1.734c-0.095,0.041-0.244,0.067-0.366,0.067
		c-0.108,0-0.258-0.026-0.365-0.067c-0.041-0.217-0.068-0.501-0.082-0.759h-0.014c-0.46,0.569-1.273,0.895-2.072,0.895
		c-1.261,0-2.317-0.705-2.317-2.154c0-0.827,0.339-1.437,0.867-1.816c0.596-0.42,1.382-0.555,2.222-0.555
		c0.475,0,0.867,0.026,1.22,0.081v-0.394c0-1.354-0.556-1.802-1.693-1.802c-0.637,0-1.423,0.136-1.911,0.257
		c-0.026-0.067-0.054-0.217-0.054-0.352c0-0.095,0.027-0.23,0.067-0.312c0.583-0.177,1.355-0.284,2.006-0.284
		c1.612,0,2.466,0.73,2.466,2.385V169.028z M190.465,167.117c-0.393-0.054-0.8-0.08-1.151-0.08c-0.664,0-1.261,0.121-1.667,0.434
		c-0.366,0.271-0.569,0.704-0.569,1.26c0,0.989,0.637,1.463,1.518,1.463c0.732,0,1.504-0.353,1.87-0.907V167.117z"/>
	<path fill="#333333" d="M198.636,170.776c-0.107,0.027-0.271,0.054-0.434,0.054c-0.135,0-0.312-0.026-0.446-0.067v-4.296
		c0-0.65-0.082-1.151-0.271-1.504c-0.23-0.434-0.664-0.65-1.368-0.65c-0.678,0-1.49,0.38-2.02,0.786v5.664
		c-0.148,0.041-0.298,0.067-0.46,0.067c-0.136,0-0.299-0.026-0.421-0.067v-7.06c0.096-0.041,0.258-0.055,0.353-0.055
		c0.136,0,0.298,0.014,0.38,0.055l0.067,0.705h0.014c0.745-0.61,1.599-0.84,2.29-0.84s1.409,0.229,1.802,0.704
		c0.434,0.515,0.515,1.26,0.515,1.991V170.776z"/>
	<path fill="#333333" d="M205.548,169.584c0,1.017-0.054,2.235-0.542,3.075c-0.582,1.003-1.626,1.437-2.669,1.437
		c-0.596,0-1.111-0.067-1.545-0.217c-0.04-0.081-0.054-0.217-0.054-0.325c0-0.081,0.026-0.244,0.054-0.325
		c0.42,0.108,0.908,0.19,1.396,0.19c1.708,0,2.479-1.058,2.479-2.914v-0.568c-0.528,0.555-1.273,0.826-1.883,0.826
		c-1.803,0-2.737-1.396-2.737-3.36c0-2.412,1.423-3.834,3.523-3.834c0.556,0,1.396,0.162,1.978,0.393V169.584z M204.667,164.395
		c-0.487-0.136-0.84-0.176-1.179-0.176c-1.721,0-2.533,1.449-2.533,3.143c0,1.504,0.569,2.684,1.896,2.684
		c0.678,0,1.369-0.339,1.815-0.813V164.395z"/>
	<path fill="#333333" d="M212.432,167.471h-4.539c0.054,1.558,0.786,2.736,2.479,2.736c0.609,0,1.179-0.081,1.68-0.203
		c0.027,0.067,0.055,0.203,0.055,0.284c0,0.136-0.027,0.258-0.067,0.353c-0.528,0.163-1.192,0.258-1.748,0.258
		c-1.07,0-1.884-0.339-2.385-0.881c-0.597-0.65-0.908-1.626-0.908-2.751c0-1.964,0.989-3.698,2.968-3.698
		c1.774,0,2.479,1.463,2.479,3.252C212.445,167.023,212.445,167.267,212.432,167.471z M211.564,166.82
		c0-1.247-0.136-2.589-1.64-2.589c-1.314,0-1.951,1.206-2.032,2.589H211.564z"/>
</g>
<g>
	<path fill="#333333" d="M12.964,187.459c-1.775,0-2.913-1.22-2.913-3.659c0-2.438,1.152-3.672,2.927-3.672
		c1.775,0,2.9,1.206,2.9,3.646C15.877,186.212,14.739,187.459,12.964,187.459z M12.978,180.792c-1.301,0-2.005,1.003-2.005,2.995
		c0,1.991,0.691,3.008,1.992,3.008s1.992-1.017,1.992-3.008C14.956,181.795,14.278,180.792,12.978,180.792z"/>
	<path fill="#333333" d="M21.325,178.015c-0.203-0.055-0.569-0.108-0.854-0.108c-0.515,0-0.895,0.136-1.152,0.42
		c-0.393,0.42-0.46,0.989-0.46,1.707v0.23h1.91c0.027,0.067,0.055,0.23,0.055,0.325c0,0.108-0.027,0.271-0.055,0.366h-1.91v6.368
		c-0.122,0.041-0.258,0.067-0.434,0.067c-0.176,0-0.325-0.026-0.447-0.067v-6.368h-1.22c-0.027-0.068-0.041-0.244-0.041-0.325
		c0-0.068,0.014-0.217,0.041-0.285l1.22-0.081v-0.23c0-0.962,0.163-1.626,0.718-2.182c0.393-0.393,0.976-0.582,1.639-0.582
		c0.353,0,0.746,0.081,0.989,0.176c0.027,0.067,0.041,0.163,0.041,0.258C21.366,177.784,21.353,177.946,21.325,178.015z"/>
	<path fill="#333333" d="M29.822,186.592c-0.529,0.474-1.355,0.731-2.141,0.731c-0.556,0-1.07-0.095-1.45-0.23v3.415
		c-0.136,0.04-0.258,0.067-0.447,0.067c-0.149,0-0.325-0.027-0.434-0.067v-10.244c0.068-0.027,0.23-0.054,0.366-0.054
		c0.136,0,0.257,0.026,0.353,0.054l0.081,0.745h0.014c0.515-0.542,1.287-0.881,2.073-0.881c0.854,0,1.612,0.366,2.086,1.044
		c0.393,0.569,0.637,1.382,0.637,2.371C30.96,184.897,30.54,185.941,29.822,186.592z M28.142,180.847
		c-0.718,0-1.436,0.298-1.91,0.895v4.66c0.352,0.163,0.894,0.258,1.355,0.258c1.463,0,2.453-0.962,2.453-3.076
		C30.039,181.917,29.389,180.847,28.142,180.847z"/>
	<path fill="#333333" d="M35.568,180.914c-0.786,0.108-1.64,0.394-2.276,0.881v5.528c-0.136,0.041-0.298,0.067-0.447,0.067
		s-0.298-0.026-0.434-0.067v-7.06c0.081-0.027,0.203-0.054,0.339-0.054c0.108,0,0.257,0.026,0.366,0.054l0.068,0.867h0.014
		c0.583-0.501,1.599-0.921,2.371-1.003c0.027,0.082,0.054,0.23,0.054,0.353C35.623,180.616,35.595,180.792,35.568,180.914z"/>
	<path fill="#333333" d="M39.119,187.459c-1.775,0-2.914-1.22-2.914-3.659c0-2.438,1.152-3.672,2.927-3.672s2.9,1.206,2.9,3.646
		C42.032,186.212,40.894,187.459,39.119,187.459z M39.132,180.792c-1.301,0-2.005,1.003-2.005,2.995
		c0,1.991,0.691,3.008,1.992,3.008s1.992-1.017,1.992-3.008C41.111,181.795,40.433,180.792,39.132,180.792z"/>
	<path fill="#333333" d="M47.48,178.015c-0.203-0.055-0.569-0.108-0.854-0.108c-0.515,0-0.895,0.136-1.152,0.42
		c-0.393,0.42-0.46,0.989-0.46,1.707v0.23h1.91c0.027,0.067,0.055,0.23,0.055,0.325c0,0.108-0.027,0.271-0.055,0.366h-1.91v6.368
		c-0.122,0.041-0.258,0.067-0.434,0.067c-0.176,0-0.325-0.026-0.447-0.067v-6.368h-1.22c-0.027-0.068-0.041-0.244-0.041-0.325
		c0-0.068,0.014-0.217,0.041-0.285l1.22-0.081v-0.23c0-0.962,0.163-1.626,0.718-2.182c0.393-0.393,0.976-0.582,1.639-0.582
		c0.353,0,0.746,0.081,0.989,0.176c0.027,0.067,0.041,0.163,0.041,0.258C47.521,177.784,47.508,177.946,47.48,178.015z"/>
	<path fill="#333333" d="M52.915,184.03h-4.539c0.054,1.559,0.786,2.737,2.479,2.737c0.61,0,1.179-0.081,1.68-0.203
		c0.027,0.067,0.054,0.203,0.054,0.284c0,0.136-0.027,0.258-0.068,0.353c-0.528,0.163-1.192,0.258-1.748,0.258
		c-1.07,0-1.883-0.339-2.385-0.881c-0.596-0.65-0.908-1.626-0.908-2.751c0-1.965,0.989-3.699,2.967-3.699
		c1.775,0,2.48,1.464,2.48,3.252C52.928,183.583,52.928,183.827,52.915,184.03z M52.047,183.38c0-1.246-0.135-2.588-1.64-2.588
		c-1.314,0-1.951,1.206-2.032,2.588H52.047z"/>
	<path fill="#333333" d="M55.978,187.459c-0.678,0-1.382-0.122-1.87-0.312c-0.041-0.096-0.067-0.258-0.067-0.38
		c0-0.081,0.027-0.284,0.054-0.366c0.501,0.204,1.219,0.366,1.815,0.366c1.03,0,1.667-0.434,1.667-1.287
		c0-0.772-0.393-1.043-1.463-1.437c-1.491-0.542-1.979-1.165-1.979-2.086c0-1.247,1.03-1.83,2.357-1.83
		c0.447,0,1.03,0.082,1.369,0.19c0.041,0.122,0.054,0.243,0.054,0.325c0,0.108-0.027,0.298-0.054,0.393
		c-0.447-0.136-0.921-0.217-1.382-0.217c-0.962,0-1.545,0.366-1.545,1.111c0,0.65,0.366,0.962,1.477,1.382
		c1.016,0.38,1.951,0.759,1.951,2.127C58.362,186.822,57.319,187.459,55.978,187.459z"/>
	<path fill="#333333" d="M61.372,187.459c-0.677,0-1.382-0.122-1.87-0.312c-0.041-0.096-0.068-0.258-0.068-0.38
		c0-0.081,0.027-0.284,0.054-0.366c0.501,0.204,1.219,0.366,1.815,0.366c1.03,0,1.667-0.434,1.667-1.287
		c0-0.772-0.393-1.043-1.464-1.437c-1.49-0.542-1.978-1.165-1.978-2.086c0-1.247,1.03-1.83,2.358-1.83
		c0.447,0,1.029,0.082,1.368,0.19c0.041,0.122,0.054,0.243,0.054,0.325c0,0.108-0.027,0.298-0.054,0.393
		c-0.447-0.136-0.921-0.217-1.382-0.217c-0.962,0-1.545,0.366-1.545,1.111c0,0.65,0.366,0.962,1.477,1.382
		c1.016,0.38,1.951,0.759,1.951,2.127C63.756,186.822,62.713,187.459,61.372,187.459z"/>
	<path fill="#333333" d="M65.681,178.882c-0.312,0-0.569-0.271-0.569-0.597s0.257-0.582,0.569-0.582s0.583,0.257,0.583,0.582
		S65.993,178.882,65.681,178.882z M66.128,187.323c-0.122,0.041-0.298,0.067-0.447,0.067s-0.312-0.026-0.434-0.067v-7.06
		c0.108-0.027,0.285-0.067,0.42-0.067c0.149,0,0.353,0.027,0.461,0.067V187.323z"/>
	<path fill="#333333" d="M70.546,187.459c-1.775,0-2.914-1.22-2.914-3.659c0-2.438,1.152-3.672,2.927-3.672s2.9,1.206,2.9,3.646
		C73.459,186.212,72.321,187.459,70.546,187.459z M70.559,180.792c-1.301,0-2.005,1.003-2.005,2.995
		c0,1.991,0.691,3.008,1.992,3.008s1.992-1.017,1.992-3.008C72.538,181.795,71.86,180.792,70.559,180.792z"/>
	<path fill="#333333" d="M80.33,187.337c-0.108,0.027-0.271,0.054-0.434,0.054c-0.135,0-0.312-0.026-0.447-0.067v-4.295
		c0-0.65-0.081-1.152-0.271-1.504c-0.23-0.434-0.664-0.65-1.368-0.65c-0.678,0-1.491,0.379-2.019,0.785v5.664
		c-0.149,0.041-0.298,0.067-0.461,0.067c-0.135,0-0.298-0.026-0.42-0.067v-7.06c0.095-0.04,0.257-0.054,0.352-0.054
		c0.136,0,0.298,0.014,0.38,0.054l0.067,0.705h0.014c0.745-0.61,1.599-0.841,2.29-0.841c0.691,0,1.409,0.23,1.802,0.705
		c0.434,0.515,0.515,1.26,0.515,1.992V187.337z"/>
	<path fill="#333333" d="M86.957,185.589c0,0.488,0,1.098,0.027,1.734c-0.095,0.041-0.244,0.067-0.366,0.067
		c-0.108,0-0.257-0.026-0.366-0.067c-0.041-0.217-0.068-0.501-0.081-0.759h-0.014c-0.461,0.569-1.274,0.895-2.073,0.895
		c-1.26,0-2.317-0.705-2.317-2.154c0-0.827,0.338-1.437,0.867-1.816c0.596-0.42,1.382-0.556,2.222-0.556
		c0.474,0,0.867,0.027,1.219,0.082v-0.394c0-1.354-0.555-1.802-1.694-1.802c-0.637,0-1.422,0.136-1.91,0.258
		c-0.027-0.068-0.054-0.217-0.054-0.353c0-0.095,0.027-0.23,0.068-0.312c0.583-0.177,1.354-0.285,2.005-0.285
		c1.613,0,2.466,0.732,2.466,2.385V185.589z M86.076,183.679c-0.393-0.055-0.799-0.082-1.152-0.082c-0.664,0-1.26,0.122-1.667,0.434
		c-0.366,0.271-0.569,0.705-0.569,1.261c0,0.989,0.637,1.463,1.518,1.463c0.731,0,1.504-0.353,1.87-0.907V183.679z"/>
	<path fill="#333333" d="M89.735,187.323c-0.149,0.041-0.298,0.067-0.46,0.067c-0.136,0-0.298-0.026-0.42-0.067v-9.892
		c0.122-0.026,0.271-0.067,0.447-0.067c0.149,0,0.312,0.027,0.434,0.067V187.323z"/>
	<path fill="#333333" d="M96.755,187.459c-0.623,0-1.423-0.095-2.168-0.366v-9.661c0.095-0.026,0.298-0.067,0.42-0.067
		c0.217,0,0.379,0.041,0.461,0.067v3.429c0.556-0.461,1.26-0.732,2.005-0.732c1.911,0,2.71,1.64,2.71,3.469
		C100.183,185.928,98.991,187.459,96.755,187.459z M97.351,180.887c-0.677,0-1.355,0.285-1.883,0.813v4.864
		c0.366,0.136,0.826,0.217,1.219,0.217c1.883,0,2.575-1.437,2.575-3.13C99.262,182.337,98.882,180.887,97.351,180.887z"/>
	<path fill="#333333" d="M104.168,187.459c-1.775,0-2.914-1.22-2.914-3.659c0-2.438,1.152-3.672,2.927-3.672s2.9,1.206,2.9,3.646
		C107.081,186.212,105.943,187.459,104.168,187.459z M104.181,180.792c-1.301,0-2.005,1.003-2.005,2.995
		c0,1.991,0.691,3.008,1.992,3.008s1.992-1.017,1.992-3.008C106.16,181.795,105.482,180.792,104.181,180.792z"/>
	<path fill="#333333" d="M113.396,187.391c-0.122,0-0.271-0.04-0.352-0.067l-0.082-0.812h-0.013
		c-0.583,0.609-1.274,0.948-2.046,0.948c-1.87,0-2.764-1.559-2.764-3.455c0-1.884,0.8-3.876,2.954-3.876
		c0.677,0,1.301,0.23,1.802,0.583v-3.279c0.122-0.04,0.285-0.067,0.434-0.067c0.163,0,0.325,0.041,0.447,0.067v9.892
		C113.681,187.364,113.545,187.391,113.396,187.391z M112.895,181.456c-0.487-0.406-1.111-0.609-1.748-0.609
		c-1.572,0-2.1,1.545-2.1,3.116c0,1.206,0.379,2.777,1.896,2.777c0.732,0,1.477-0.365,1.951-0.935V181.456z"/>
	<path fill="#333333" d="M116.5,178.882c-0.312,0-0.569-0.271-0.569-0.597s0.258-0.582,0.569-0.582s0.583,0.257,0.583,0.582
		S116.812,178.882,116.5,178.882z M116.947,187.323c-0.122,0.041-0.298,0.067-0.447,0.067s-0.312-0.026-0.434-0.067v-7.06
		c0.108-0.027,0.285-0.067,0.42-0.067c0.149,0,0.353,0.027,0.461,0.067V187.323z"/>
	<path fill="#333333" d="M123.885,184.03h-4.539c0.054,1.559,0.786,2.737,2.479,2.737c0.61,0,1.179-0.081,1.68-0.203
		c0.027,0.067,0.054,0.203,0.054,0.284c0,0.136-0.027,0.258-0.068,0.353c-0.528,0.163-1.192,0.258-1.748,0.258
		c-1.07,0-1.883-0.339-2.385-0.881c-0.596-0.65-0.908-1.626-0.908-2.751c0-1.965,0.989-3.699,2.967-3.699
		c1.775,0,2.48,1.464,2.48,3.252C123.899,183.583,123.899,183.827,123.885,184.03z M123.018,183.38c0-1.246-0.135-2.588-1.64-2.588
		c-1.314,0-1.951,1.206-2.032,2.588H123.018z"/>
	<path fill="#333333" d="M126.948,187.459c-0.678,0-1.382-0.122-1.87-0.312c-0.041-0.096-0.067-0.258-0.067-0.38
		c0-0.081,0.027-0.284,0.054-0.366c0.501,0.204,1.219,0.366,1.815,0.366c1.03,0,1.667-0.434,1.667-1.287
		c0-0.772-0.393-1.043-1.463-1.437c-1.491-0.542-1.979-1.165-1.979-2.086c0-1.247,1.03-1.83,2.357-1.83
		c0.447,0,1.03,0.082,1.369,0.19c0.041,0.122,0.054,0.243,0.054,0.325c0,0.108-0.027,0.298-0.054,0.393
		c-0.447-0.136-0.921-0.217-1.382-0.217c-0.962,0-1.545,0.366-1.545,1.111c0,0.65,0.366,0.962,1.477,1.382
		c1.016,0.38,1.951,0.759,1.951,2.127C129.333,186.822,128.29,187.459,126.948,187.459z"/>
</g>
</svg>
