<?xml version="1.0" encoding="utf-8"?>
<!-- Generator: Adobe Illustrator 16.0.0, SVG Export Plug-In . SVG Version: 6.00 Build 0)  -->
<!DOCTYPE svg PUBLIC "-//W3C//DTD SVG 1.0//EN" "http://www.w3.org/TR/2001/REC-SVG-20010904/DTD/svg10.dtd">
<svg version="1.0" xmlns="http://www.w3.org/2000/svg" xmlns:xlink="http://www.w3.org/1999/xlink" x="0px" y="0px" width="300px"
	 height="300px" viewBox="0 0 300 300" style="enable-background:new 0 0 300 300;" xml:space="preserve">
<g id="Icon">
	<path style="fill:#58595B;" d="M228.754,131.769c6.724,14.695,13.467,29.44,20.371,44.539c2.331-3.562,4.482-6.85,6.635-10.137
		c3.909-5.979,3.905-5.945,10.948-4.89c3.863,0.578,7.745,1.031,11.953,1.584c-6.704-14.782-13.251-29.21-19.891-43.847
		c-3.371,5.797-5.593,7.139-10.635,6.55c-1.733-0.203-3.467-0.45-5.175-0.808c-2.729-0.573-5.091,0.125-7.257,1.782
		C233.479,128.244,231.229,129.91,228.754,131.769 M222.795,131.292c-1.239-0.778-2.429-1.259-3.262-2.092
		c-4.511-4.503-9.635-5.594-15.839-3.993c-4.357,1.126-8.074-0.622-10.207-4.92c-0.17-0.348-0.52-0.608-0.913-1.051
		c-6.708,14.592-13.311,28.963-19.985,43.489c0.68,0,1.058,0.043,1.424-0.006c4.89-0.674,9.78-1.326,14.658-2.069
		c1.885-0.289,3.271-0.098,4.384,1.803c2.07,3.534,4.433,6.897,6.688,10.323c0.716,1.09,1.475,2.149,2.355,3.435
		C209.082,161.053,215.906,146.245,222.795,131.292 M272.699,52.292c0.199-3.74-0.399-4.759-3.842-6.382
		c-0.957-0.453-1.916-0.959-2.928-1.243c-5.323-1.496-8.341-5.109-10.049-10.232c-2.148-6.453-3.627-7.189-10.293-5.895
		c-0.375,0.072-0.758,0.096-1.126,0.183c-4.671,1.117-8.671-0.082-12.168-3.352c-1.15-1.076-2.552-1.905-3.895-2.758
		c-1.829-1.166-3.763-1.205-5.581-0.016c-1.714,1.117-3.382,2.32-4.982,3.595c-3.02,2.407-6.325,3.501-10.194,2.66
		c-1.702-0.371-3.44-0.608-5.174-0.808c-2.978-0.339-4.353,0.393-5.688,3.08c-0.744,1.492-1.438,3.022-1.959,4.6
		c-1.417,4.298-4.332,7.03-8.527,8.517c-1.001,0.354-2.008,0.698-2.988,1.1c-4.295,1.761-5.081,3.03-4.724,7.612
		c0.083,1.061,0.216,2.117,0.357,3.17c0.582,4.413-0.199,8.34-3.251,11.867c-5.348,6.18-5.334,7.758-0.081,14.058
		c2.982,3.583,4.051,7.473,3.353,12.055c-1.216,8.003-0.774,8.881,6.84,11.532c4.807,1.673,7.667,4.842,9.288,9.52
		c2.478,7.144,3.588,7.77,11.062,6.287c4.688-0.927,8.756-0.204,12.489,3.068c5.945,5.207,7.796,5.196,13.881,0.031
		c3.662-3.11,7.637-4.174,12.26-3.131c0.966,0.217,1.943,0.373,2.915,0.53c4.035,0.663,5.838,0.045,7.068-3.893
		c2.232-7.132,6.538-11.617,13.804-13.692c3.722-1.064,4.349-2.789,4.072-6.622c-0.087-1.211-0.24-2.419-0.389-3.625
		c-0.512-4.213-0.019-8.07,2.872-11.54c5.847-7.016,5.801-7.853,0.113-14.956c-2.453-3.061-3.712-6.396-3.127-10.344
		C272.354,55.618,272.504,53.952,272.699,52.292 M225.568,133.432c-3.928,8.534-7.636,16.583-11.339,24.632
		c-3.137,6.827-6.231,13.67-9.432,20.468c-0.514,1.09-1.461,1.976-2.208,2.957c-0.82-0.823-1.795-1.543-2.442-2.491
		c-2.947-4.328-5.883-8.673-8.652-13.121c-1.021-1.64-1.991-2.188-3.995-1.84c-5.384,0.934-10.814,1.599-16.242,2.234
		c-0.933,0.113-2.238-0.158-2.812-0.772c-0.416-0.445-0.129-1.854,0.229-2.661c6.806-15.329,13.583-30.666,20.584-45.901
		c1.341-2.92,0.48-4.43-1.818-6.14c-1.309-0.975-2.979-1.46-4.484-2.177c-1.569-0.749-3.218-1.38-4.68-2.299
		c-2.557-1.606-3.966-3.994-3.794-7.069c0.125-2.267,0.374-4.541,0.768-6.776c0.536-3.043-0.02-5.709-2.073-8.068
		c-0.995-1.142-1.917-2.36-2.779-3.608c-3.083-4.462-3.054-7.682,0.11-12.13c0.832-1.174,1.713-2.328,2.678-3.4
		c2.407-2.689,3.188-5.752,2.49-9.288c-0.354-1.782-0.553-3.604-0.686-5.417c-0.287-3.815,1.4-6.625,4.693-8.426
		c1.655-0.907,3.401-1.709,5.193-2.306c3.389-1.128,5.463-3.397,6.513-6.742c0.318-1.011,0.738-1.993,1.173-2.961
		c2.446-5.452,5.723-7.225,11.651-6.317c1.125,0.172,2.241,0.408,3.357,0.63c3.079,0.608,5.841,0.096,8.312-1.995
		c1.617-1.369,3.349-2.626,5.148-3.748c3.145-1.966,6.361-1.846,9.424,0.211c1.571,1.054,3.021,2.295,4.498,3.487
		c2.617,2.114,5.449,3.193,8.878,2.277c1.604-0.427,3.287-0.606,4.946-0.76c3.84-0.354,6.884,1.054,8.767,4.473
		c1.021,1.854,1.895,3.81,2.608,5.801c1.088,3.024,3.125,4.923,6.125,5.947c1.432,0.487,2.844,1.068,4.205,1.733
		c4.565,2.232,6.665,5.428,5.536,10.294c-1.465,6.317-0.334,11.389,4.052,16.313c3.668,4.113,3.617,7.984-0.055,12.166
		c-4.275,4.872-5.399,9.922-3.995,16.142c1.103,4.877-0.954,8.141-5.473,10.346c-1.837,0.898-3.815,1.512-5.631,2.446
		c-1.187,0.609-2.309,1.452-3.255,2.393c-1.155,1.147-1.299,2.427-0.529,4.091c7.131,15.427,14.169,30.898,21.162,46.386
		c0.451,0.994,0.341,2.241,0.49,3.372c-1.155,0.129-2.339,0.482-3.463,0.346c-5.575-0.679-11.13-1.543-16.71-2.188
		c-0.728-0.083-1.859,0.512-2.296,1.144c-3.312,4.818-6.478,9.737-9.747,14.585c-0.471,0.699-1.461,1.771-1.875,1.638
		c-0.786-0.258-1.557-1.153-1.936-1.971c-6.631-14.318-13.199-28.669-19.786-43.011
		C226.599,135.545,226.198,134.743,225.568,133.432"/>
	<path style="fill:none;stroke:#58595B;stroke-width:1.643;stroke-miterlimit:10;" d="M228.754,131.769
		c6.724,14.695,13.467,29.44,20.371,44.539c2.331-3.562,4.482-6.85,6.635-10.137c3.909-5.979,3.905-5.945,10.948-4.89
		c3.863,0.578,7.745,1.031,11.953,1.584c-6.704-14.782-13.251-29.21-19.891-43.847c-3.371,5.797-5.593,7.139-10.635,6.55
		c-1.733-0.203-3.467-0.45-5.175-0.808c-2.729-0.573-5.091,0.125-7.257,1.782C233.479,128.244,231.229,129.91,228.754,131.769z
		 M222.795,131.292c-1.239-0.778-2.429-1.259-3.262-2.092c-4.511-4.503-9.635-5.594-15.839-3.993
		c-4.357,1.126-8.074-0.622-10.207-4.92c-0.17-0.348-0.52-0.608-0.913-1.051c-6.708,14.592-13.311,28.963-19.985,43.489
		c0.68,0,1.058,0.043,1.424-0.006c4.89-0.674,9.78-1.326,14.658-2.069c1.885-0.289,3.271-0.098,4.384,1.803
		c2.07,3.534,4.433,6.897,6.688,10.323c0.716,1.09,1.475,2.149,2.355,3.435C209.082,161.053,215.906,146.245,222.795,131.292z
		 M272.699,52.292c0.199-3.74-0.399-4.759-3.842-6.382c-0.957-0.453-1.916-0.959-2.928-1.243
		c-5.323-1.496-8.341-5.109-10.049-10.232c-2.148-6.453-3.627-7.189-10.293-5.895c-0.375,0.072-0.758,0.096-1.126,0.183
		c-4.671,1.117-8.671-0.082-12.168-3.352c-1.15-1.076-2.552-1.905-3.895-2.758c-1.829-1.166-3.763-1.205-5.581-0.016
		c-1.714,1.117-3.382,2.32-4.982,3.595c-3.02,2.407-6.325,3.501-10.194,2.66c-1.702-0.371-3.44-0.608-5.174-0.808
		c-2.978-0.339-4.353,0.393-5.688,3.08c-0.744,1.492-1.438,3.022-1.959,4.6c-1.417,4.298-4.332,7.03-8.527,8.517
		c-1.001,0.354-2.008,0.698-2.988,1.1c-4.295,1.761-5.081,3.03-4.724,7.612c0.083,1.061,0.216,2.117,0.357,3.17
		c0.582,4.413-0.199,8.34-3.251,11.867c-5.348,6.18-5.334,7.758-0.081,14.058c2.982,3.583,4.051,7.473,3.353,12.055
		c-1.216,8.003-0.774,8.881,6.84,11.532c4.807,1.673,7.667,4.842,9.288,9.52c2.478,7.144,3.588,7.77,11.062,6.287
		c4.688-0.927,8.756-0.204,12.489,3.068c5.945,5.207,7.796,5.196,13.881,0.031c3.662-3.11,7.637-4.174,12.26-3.131
		c0.966,0.217,1.943,0.373,2.915,0.53c4.035,0.663,5.838,0.045,7.068-3.893c2.232-7.132,6.538-11.617,13.804-13.692
		c3.722-1.064,4.349-2.789,4.072-6.622c-0.087-1.211-0.24-2.419-0.389-3.625c-0.512-4.213-0.019-8.07,2.872-11.54
		c5.847-7.016,5.801-7.853,0.113-14.956c-2.453-3.061-3.712-6.396-3.127-10.344C272.354,55.618,272.504,53.952,272.699,52.292z
		 M225.568,133.432c-3.928,8.534-7.636,16.583-11.339,24.632c-3.137,6.827-6.231,13.67-9.432,20.468
		c-0.514,1.09-1.461,1.976-2.208,2.957c-0.82-0.823-1.795-1.543-2.442-2.491c-2.947-4.328-5.883-8.673-8.652-13.121
		c-1.021-1.64-1.991-2.188-3.995-1.84c-5.384,0.934-10.814,1.599-16.242,2.234c-0.933,0.113-2.238-0.158-2.812-0.772
		c-0.416-0.445-0.129-1.854,0.229-2.661c6.806-15.329,13.583-30.666,20.584-45.901c1.341-2.92,0.48-4.43-1.818-6.14
		c-1.309-0.975-2.979-1.46-4.484-2.177c-1.569-0.749-3.218-1.38-4.68-2.299c-2.557-1.606-3.966-3.994-3.794-7.069
		c0.125-2.267,0.374-4.541,0.768-6.776c0.536-3.043-0.02-5.709-2.073-8.068c-0.995-1.142-1.917-2.36-2.779-3.608
		c-3.083-4.462-3.054-7.682,0.11-12.13c0.832-1.174,1.713-2.328,2.678-3.4c2.407-2.689,3.188-5.752,2.49-9.288
		c-0.354-1.782-0.553-3.604-0.686-5.417c-0.287-3.815,1.4-6.625,4.693-8.426c1.655-0.907,3.401-1.709,5.193-2.306
		c3.389-1.128,5.463-3.397,6.513-6.742c0.318-1.011,0.738-1.993,1.173-2.961c2.446-5.452,5.723-7.225,11.651-6.317
		c1.125,0.172,2.241,0.408,3.357,0.63c3.079,0.608,5.841,0.096,8.312-1.995c1.617-1.369,3.349-2.626,5.148-3.748
		c3.145-1.966,6.361-1.846,9.424,0.211c1.571,1.054,3.021,2.295,4.498,3.487c2.617,2.114,5.449,3.193,8.878,2.277
		c1.604-0.427,3.287-0.606,4.946-0.76c3.84-0.354,6.884,1.054,8.767,4.473c1.021,1.854,1.895,3.81,2.608,5.801
		c1.088,3.024,3.125,4.923,6.125,5.947c1.432,0.487,2.844,1.068,4.205,1.733c4.565,2.232,6.665,5.428,5.536,10.294
		c-1.465,6.317-0.334,11.389,4.052,16.313c3.668,4.113,3.617,7.984-0.055,12.166c-4.275,4.872-5.399,9.922-3.995,16.142
		c1.103,4.877-0.954,8.141-5.473,10.346c-1.837,0.898-3.815,1.512-5.631,2.446c-1.187,0.609-2.309,1.452-3.255,2.393
		c-1.155,1.147-1.299,2.427-0.529,4.091c7.131,15.427,14.169,30.898,21.162,46.386c0.451,0.994,0.341,2.241,0.49,3.372
		c-1.155,0.129-2.339,0.482-3.463,0.346c-5.575-0.679-11.13-1.543-16.71-2.188c-0.728-0.083-1.859,0.512-2.296,1.144
		c-3.312,4.818-6.478,9.737-9.747,14.585c-0.471,0.699-1.461,1.771-1.875,1.638c-0.786-0.258-1.557-1.153-1.936-1.971
		c-6.631-14.318-13.199-28.669-19.786-43.011C226.599,135.545,226.198,134.743,225.568,133.432z"/>
	<path style="fill:#58595B;" d="M225.582,105.937c17.452,0.006,31.448-13.807,31.479-31.067
		c0.034-17.357-14.027-31.506-31.347-31.549c-17.525-0.042-31.6,13.865-31.592,31.211
		C194.136,91.909,208.181,105.93,225.582,105.937 M190.879,74.668c0.043-19.337,15.472-34.651,34.854-34.594
		c19.219,0.055,34.651,15.654,34.568,34.939c-0.079,19.102-15.637,34.519-34.799,34.484
		C206.159,109.464,190.834,94.046,190.879,74.668"/>
	<path style="fill:none;stroke:#58595B;stroke-width:1.643;stroke-miterlimit:10;" d="M225.582,105.937
		c17.452,0.006,31.448-13.807,31.479-31.067c0.034-17.357-14.027-31.506-31.347-31.549c-17.525-0.042-31.6,13.865-31.592,31.211
		C194.136,91.909,208.181,105.93,225.582,105.937z M190.879,74.668c0.043-19.337,15.472-34.651,34.854-34.594
		c19.219,0.055,34.651,15.654,34.568,34.939c-0.079,19.102-15.637,34.519-34.799,34.484
		C206.159,109.464,190.834,94.046,190.879,74.668z"/>
</g>
<g id="Text" style="display:none;">
	<text transform="matrix(1 0 0 1 8.7725 89.7109)" style="display:inline;"><tspan x="0" y="0" style="fill:#B3A068; font-family:'FSMatthew-Bold'; font-size:38.317; letter-spacing:-1;">  </tspan><tspan x="15.02" y="0" style="fill:#B3A068; font-family:'FSMatthew-Bold'; font-size:38.317; letter-spacing:-1;">R</tspan><tspan x="36.438" y="0" style="fill:#B3A068; font-family:'FSMatthew-Bold'; font-size:38.317; letter-spacing:-1;">a</tspan><tspan x="55.903" y="0" style="fill:#B3A068; font-family:'FSMatthew-Bold'; font-size:38.317; letter-spacing:-1;">n</tspan><tspan x="77.016" y="0" style="fill:#B3A068; font-family:'FSMatthew-Bold'; font-size:38.317; letter-spacing:-1;">k</tspan><tspan x="95.561" y="0" style="fill:#B3A068; font-family:'FSMatthew-Bold'; font-size:38.317; letter-spacing:-1;">e</tspan><tspan x="114.719" y="0" style="fill:#B3A068; font-family:'FSMatthew-Bold'; font-size:38.317;">d </tspan></text>
	<text transform="matrix(1 0 0 1 8.7725 170.6016)" style="display:inline;"><tspan x="0" y="0" style="fill:#B3A068; font-family:'FSMatthew-Bold'; font-size:102.1786; letter-spacing:-9;">1</tspan><tspan x="46.899" y="0" style="fill:#B3A068; font-family:'FSMatthew-Bold'; font-size:102.1786; letter-spacing:-3;">s</tspan><tspan x="88.995" y="0" style="fill:#B3A068; font-family:'FSMatthew-Bold'; font-size:102.1786;">t</tspan></text>
	<text transform="matrix(1 0 0 1 32.2246 204.7676)" style="display:inline;"><tspan x="0" y="0" style="fill:#58595B; font-family:'FSMatthew-Light'; font-size:23.4159;">in the UK </tspan><tspan x="92.468" y="0" style="fill:#58595B; font-family:'FSMatthew-Light'; font-size:23.4159; letter-spacing:-1;">f</tspan><tspan x="100.054" y="0" style="fill:#58595B; font-family:'FSMatthew-Light'; font-size:23.4159;">or the </tspan></text>
	<text transform="matrix(1 0 0 1 32.2246 230.3145)" style="display:inline;"><tspan x="0" y="0" style="fill:#58595B; font-family:'FSMatthew-Light'; font-size:23.4159;">de</tspan><tspan x="23.533" y="0" style="fill:#58595B; font-family:'FSMatthew-Light'; font-size:23.4159;">v</tspan><tspan x="34.444" y="0" style="fill:#58595B; font-family:'FSMatthew-Light'; font-size:23.4159;">elopment of San</tspan><tspan x="194.255" y="0" style="fill:#58595B; font-family:'FSMatthew-Light'; font-size:23.4159;">t</tspan><tspan x="202.778" y="0" style="fill:#58595B; font-family:'FSMatthew-Light'; font-size:23.4159;">ander </tspan></text>
	<text transform="matrix(1 0 0 1 32.2246 255.8613)" style="display:inline;"><tspan x="0" y="0" style="fill:#58595B; font-family:'FSMatthew-Light'; font-size:23.4159;">In</tspan><tspan x="18.147" y="0" style="fill:#58595B; font-family:'FSMatthew-Light'; font-size:23.4159;">t</tspan><tspan x="26.319" y="0" style="fill:#58595B; font-family:'FSMatthew-Light'; font-size:23.4159;">ernship P</tspan><tspan x="114.151" y="0" style="fill:#58595B; font-family:'FSMatthew-Light'; font-size:23.4159;">r</tspan><tspan x="121.362" y="0" style="fill:#58595B; font-family:'FSMatthew-Light'; font-size:23.4159;">og</tspan><tspan x="145.27" y="0" style="fill:#58595B; font-family:'FSMatthew-Light'; font-size:23.4159;">r</tspan><tspan x="152.365" y="0" style="fill:#58595B; font-family:'FSMatthew-Light'; font-size:23.4159;">ammes </tspan></text>
	
		<text transform="matrix(1 0 0 1 32.2246 281.4082)" style="display:inline;fill:#58595B; font-family:'FSMatthew-Light'; font-size:23.4159;">(2015/16)</text>
</g>
<g id="Text_Flat">
	<g>
		<path style="fill:#B3A068;" d="M45.747,89.673c-0.997,0.152-2.031,0.229-3.219,0.229c-1.073,0-2.146-0.038-2.874-0.191
			L34.405,80.4h-2.261v9.311c-0.958,0.153-1.762,0.191-2.797,0.191c-0.919,0-1.724-0.038-2.682-0.191V63.81
			c1.763-0.114,5.44-0.191,7.663-0.191c6.514,0,9.77,2.299,9.77,8.276c0,3.18-1.915,6.36-4.598,7.51L45.747,89.673z M34.674,68.102
			c-0.843,0-1.878,0.038-2.529,0.076v7.663h1.916c3.142,0,4.521-1.149,4.521-3.984C38.582,69.021,37.202,68.102,34.674,68.102z"/>
		<path style="fill:#B3A068;" d="M63.487,84.155c0,1.647,0.038,3.524,0.038,5.556c-0.612,0.153-1.647,0.191-2.299,0.191
			c-0.728,0-1.686-0.077-2.299-0.191c-0.076-0.46-0.153-1.265-0.191-1.763H58.66c-1.303,1.341-3.525,2.146-5.556,2.146
			c-3.832,0-6.591-2.375-6.591-6.322c0-6.13,5.44-7.164,10-7.164c0.307,0,1.035,0.038,1.647,0.076c0-0.229-0.038-0.728-0.076-0.92
			c-0.269-1.57-1.303-2.222-3.525-2.222c-1.724,0-4.138,0.345-5.977,0.805c-0.191-0.537-0.307-1.456-0.307-2.146
			c0-0.575,0.076-1.456,0.229-1.84c2.146-0.651,4.79-0.996,6.974-0.996c4.789,0,8.008,2.223,8.008,7.203V84.155z M58.2,80.362
			c-0.46-0.039-1.073-0.077-1.609-0.077c-3.448,0-4.789,1.38-4.789,3.104c0,1.494,0.996,2.529,2.72,2.529
			c1.265,0,2.683-0.613,3.679-1.495V80.362z"/>
		<path style="fill:#B3A068;" d="M84.6,89.711c-0.613,0.153-1.916,0.191-2.528,0.191c-0.651,0-2.146-0.077-2.759-0.191V76.607
			c0-2.069-1.073-2.95-2.797-2.95c-1.38,0-2.95,0.498-4.177,1.264v14.79c-0.881,0.153-2.107,0.191-2.797,0.191
			c-0.613,0-1.725-0.038-2.49-0.191V69.749c0.498-0.115,1.724-0.192,2.299-0.192c0.536,0,1.647,0.077,2.222,0.192l0.269,1.762
			c1.725-1.264,4.215-2.146,6.437-2.146c4.215,0,6.322,2.605,6.322,6.974V89.711z"/>
		<path style="fill:#B3A068;" d="M105.98,89.711c-0.651,0.114-1.992,0.191-2.874,0.191c-0.767,0-2.337-0.077-2.912-0.191
			l-5.096-8.583l-1.647,1.571v7.012c-0.689,0.153-2.107,0.191-2.721,0.191c-0.919,0-1.915-0.077-2.566-0.191V61.779
			c0.843-0.115,1.877-0.191,2.566-0.191c0.92,0,1.878,0.076,2.721,0.191v15.326l4.1-3.985c1.111-1.111,1.878-2.375,2.031-3.371
			c0.651-0.115,1.877-0.192,2.566-0.192c0.805,0,1.916,0.077,2.452,0.192c-0.153,1.992-1.149,3.793-3.333,5.977l-2.605,2.529
			L105.98,89.711z"/>
		<path style="fill:#B3A068;" d="M123.261,81.588h-12.107c0.076,2.49,1.801,4.33,5.134,4.33c1.801,0,3.641-0.23,5.211-0.651
			c0.23,1.034,0.384,2.184,0.384,3.218c0,0.153,0,0.345-0.039,0.767c-1.954,0.574-3.984,0.843-5.977,0.843
			c-7.28,0-10.307-4.176-10.307-10.269c0-5.325,2.988-10.46,9.464-10.46c6.13,0,8.353,4.521,8.353,9.502
			C123.376,79.558,123.376,80.592,123.261,81.588z M118.088,77.795c0-2.414-0.651-4.444-3.142-4.444
			c-2.375,0-3.64,1.877-3.793,4.444H118.088z"/>
		<path style="fill:#B3A068;" d="M142.802,89.711c-0.612,0.114-1.647,0.191-2.452,0.191c-0.728,0-1.57-0.077-2.107-0.191
			l-0.152-1.763c-1.38,1.341-3.143,2.146-5.211,2.146c-5.709,0-8.161-4.56-8.161-10.038c0-5.9,2.644-10.69,8.735-10.69
			c1.494,0,3.219,0.46,4.062,0.996v-8.582c0.689-0.115,1.839-0.191,2.682-0.191c1.035,0,1.84,0.114,2.605,0.191V89.711z
			 M137.515,74.309c-0.92-0.422-2.107-0.651-3.104-0.651c-3.104,0-4.253,2.758-4.253,6.092c0,2.797,0.689,5.977,3.793,5.977
			c1.494,0,2.644-0.612,3.563-1.379V74.309z"/>
	</g>
	<g>
		<path style="fill:#B3A068;" d="M49.744,170.602c-1.533,0.307-4.291,0.511-7.255,0.511c-2.86,0-5.415-0.204-7.254-0.511v-52.823
			l-14.509,9.604c-3.474-3.168-5.926-7.459-6.846-11.137l24.011-14.713c1.431-0.307,4.394-0.511,5.927-0.511
			c1.736,0,4.904,0.306,5.926,0.511V170.602z"/>
		<path style="fill:#B3A068;" d="M77.741,171.623c-6.028,0-12.363-0.919-17.268-2.554c-0.307-1.533-0.408-3.475-0.408-5.518
			c0-1.635,0.408-3.985,0.817-5.415c4.699,1.635,11.443,2.759,15.428,2.759c5.518,0,8.685-1.84,8.685-5.62
			c0-3.27-2.555-4.802-9.298-6.947c-10.728-3.372-15.734-8.378-15.734-16.144c0-11.545,10.626-15.837,20.741-15.837
			c4.7,0,9.91,0.817,13.486,1.941c0.409,1.533,0.613,3.679,0.613,4.904c0,1.328-0.408,4.087-0.92,5.824
			c-3.474-1.021-8.275-1.839-12.261-1.839c-4.904,0-8.275,1.226-8.275,4.291c0,3.27,3.78,4.598,9.706,6.539
			c10.319,3.371,15.224,7.663,15.224,15.734C98.277,166.208,88.265,171.623,77.741,171.623z"/>
		<path style="fill:#B3A068;" d="M137.819,169.58c-3.065,1.226-6.743,2.043-12.669,2.043c-11.546,0-17.268-5.619-17.268-16.858
			v-26.871h-8.787c-0.408-1.532-0.715-4.087-0.715-5.415c0-1.227,0.307-3.474,0.613-4.496l8.889-0.612v-13.691
			c1.124-0.204,4.7-0.409,7.05-0.409c2.555,0,5.722,0.205,7.05,0.409v13.691h14.713c0.409,1.43,0.613,3.474,0.613,4.598
			c0,1.226-0.103,4.495-0.511,5.926h-14.815v24.828c0,5.108,2.044,7.356,7.05,7.356c2.759,0,6.131-0.409,8.48-1.227
			c0.409,1.328,0.92,3.883,0.92,6.232C138.433,166.311,138.229,168.456,137.819,169.58z"/>
	</g>
	<g>
		<path style="fill:#58595B;" d="M34.661,190.176c-0.539,0-0.984-0.469-0.984-1.031c0-0.562,0.445-1.007,0.984-1.007
			c0.538,0,1.007,0.445,1.007,1.007C35.668,189.707,35.199,190.176,34.661,190.176z M35.434,204.768
			c-0.211,0.07-0.516,0.117-0.772,0.117c-0.258,0-0.539-0.047-0.75-0.117v-12.203c0.188-0.047,0.492-0.117,0.727-0.117
			c0.257,0,0.608,0.047,0.796,0.117V204.768z"/>
		<path style="fill:#58595B;" d="M48.08,204.791c-0.187,0.047-0.468,0.094-0.749,0.094c-0.234,0-0.539-0.047-0.773-0.117v-7.425
			c0-1.124-0.14-1.991-0.468-2.6c-0.398-0.75-1.147-1.125-2.366-1.125c-1.171,0-2.576,0.656-3.489,1.359v9.79
			c-0.258,0.07-0.516,0.117-0.797,0.117c-0.234,0-0.515-0.047-0.726-0.117v-12.203c0.164-0.07,0.444-0.094,0.608-0.094
			c0.234,0,0.516,0.023,0.656,0.094l0.117,1.218h0.023c1.288-1.054,2.764-1.452,3.958-1.452s2.436,0.398,3.115,1.218
			c0.75,0.891,0.89,2.179,0.89,3.443V204.791z"/>
		<path style="fill:#58595B;" d="M62.831,204.65c-0.609,0.211-1.522,0.352-2.202,0.352c-2.318,0-3.419-1.101-3.419-3.701v-7.542
			h-2.108c-0.047-0.117-0.07-0.397-0.07-0.538c0-0.117,0.023-0.398,0.07-0.516l2.108-0.141v-3.186
			c0.187-0.07,0.491-0.117,0.749-0.117s0.586,0.047,0.773,0.117v3.186h3.442c0.047,0.117,0.094,0.469,0.094,0.586
			c0,0.164-0.047,0.444-0.094,0.608h-3.442v7.401c0,1.851,0.538,2.624,1.99,2.624c0.797,0,1.569-0.117,2.108-0.281
			c0.047,0.117,0.094,0.398,0.094,0.562C62.925,204.275,62.901,204.439,62.831,204.65z"/>
		<path style="fill:#58595B;" d="M74.469,204.768c-0.21,0.07-0.468,0.117-0.702,0.117c-0.281,0-0.586-0.047-0.82-0.117v-7.401
			c0-2.576-0.655-3.748-2.834-3.748c-1.171,0-2.576,0.656-3.489,1.359v9.79c-0.258,0.07-0.539,0.117-0.797,0.117
			c-0.234,0-0.515-0.047-0.726-0.117v-17.099c0.211-0.07,0.538-0.117,0.749-0.117s0.562,0.047,0.773,0.117v6.02
			c1.241-0.96,2.717-1.358,3.864-1.358c1.194,0,2.412,0.398,3.092,1.218c0.75,0.891,0.89,2.179,0.89,3.443V204.768z"/>
		<path style="fill:#58595B;" d="M86.294,199.076h-7.847c0.094,2.693,1.358,4.731,4.286,4.731c1.055,0,2.038-0.141,2.904-0.352
			c0.047,0.117,0.094,0.352,0.094,0.492c0,0.233-0.047,0.444-0.117,0.608c-0.913,0.281-2.061,0.445-3.021,0.445
			c-1.85,0-3.255-0.586-4.122-1.522c-1.03-1.124-1.569-2.811-1.569-4.755c0-3.396,1.71-6.395,5.13-6.395
			c3.068,0,4.286,2.53,4.286,5.622C86.317,198.303,86.317,198.725,86.294,199.076z M84.795,197.952c0-2.155-0.234-4.474-2.834-4.474
			c-2.272,0-3.373,2.084-3.514,4.474H84.795z"/>
		<path style="fill:#58595B;" d="M95.915,199.357c0,1.546,0.258,2.717,0.938,3.466c0.585,0.633,1.476,1.008,2.811,1.008
			s2.248-0.375,2.834-1.008c0.68-0.749,0.937-1.92,0.937-3.466v-10.423c0.211-0.07,0.586-0.117,0.797-0.117
			c0.234,0,0.585,0.047,0.796,0.117v10.188c0,2.084-0.397,3.536-1.382,4.521c-0.866,0.866-2.178,1.358-3.981,1.358
			s-3.092-0.492-3.958-1.358c-0.984-0.984-1.383-2.437-1.383-4.521v-10.188c0.188-0.07,0.516-0.117,0.797-0.117
			s0.562,0.047,0.796,0.117V199.357z"/>
		<path style="fill:#58595B;" d="M119.264,204.768c-0.188,0.07-0.562,0.117-0.844,0.117s-0.609-0.023-1.007-0.117l-5.224-7.776
			l-1.687,1.897v5.879c-0.188,0.07-0.562,0.117-0.819,0.117s-0.586-0.047-0.773-0.117v-15.833c0.188-0.07,0.516-0.117,0.773-0.117
			s0.632,0.047,0.819,0.117v7.939l4.989-5.715c0.703-0.796,1.077-1.569,1.194-2.225c0.211-0.023,0.516-0.07,0.75-0.07
			s0.608,0.047,0.772,0.07c-0.047,0.749-0.515,1.756-1.476,2.857l-3.513,4.052L119.264,204.768z"/>
		<path style="fill:#58595B;" d="M133.194,188.677c-0.352-0.094-0.983-0.188-1.476-0.188c-0.89,0-1.546,0.234-1.991,0.726
			c-0.679,0.727-0.796,1.71-0.796,2.951v0.398h3.303c0.047,0.117,0.094,0.398,0.094,0.562c0,0.188-0.047,0.468-0.094,0.632h-3.303
			v11.009c-0.211,0.07-0.445,0.117-0.75,0.117c-0.304,0-0.562-0.047-0.772-0.117v-11.009h-2.108c-0.047-0.117-0.07-0.421-0.07-0.562
			c0-0.117,0.023-0.375,0.07-0.492l2.108-0.141v-0.398c0-1.662,0.281-2.811,1.241-3.771c0.68-0.68,1.687-1.007,2.834-1.007
			c0.609,0,1.288,0.141,1.71,0.304c0.047,0.117,0.07,0.281,0.07,0.445C133.265,188.278,133.241,188.56,133.194,188.677z"/>
		<path style="fill:#58595B;" d="M138.228,205.002c-3.068,0-5.035-2.108-5.035-6.324s1.99-6.348,5.059-6.348
			s5.013,2.085,5.013,6.301S141.296,205.002,138.228,205.002z M138.251,193.479c-2.248,0-3.466,1.732-3.466,5.176
			s1.194,5.2,3.442,5.2c2.249,0,3.443-1.757,3.443-5.2S140.5,193.479,138.251,193.479z"/>
		<path style="fill:#58595B;" d="M151.224,193.688c-1.358,0.188-2.834,0.68-3.935,1.522v9.557c-0.234,0.07-0.516,0.117-0.773,0.117
			s-0.515-0.047-0.749-0.117v-12.203c0.141-0.047,0.351-0.094,0.585-0.094c0.188,0,0.445,0.047,0.633,0.094l0.117,1.499h0.023
			c1.007-0.866,2.764-1.593,4.099-1.733c0.047,0.141,0.094,0.398,0.094,0.609C151.317,193.174,151.271,193.479,151.224,193.688z"/>
		<path style="fill:#58595B;" d="M165.227,204.65c-0.609,0.211-1.522,0.352-2.202,0.352c-2.318,0-3.42-1.101-3.42-3.701v-7.542
			h-2.107c-0.047-0.117-0.07-0.397-0.07-0.538c0-0.117,0.023-0.398,0.07-0.516l2.107-0.141v-3.186
			c0.188-0.07,0.492-0.117,0.75-0.117s0.585,0.047,0.772,0.117v3.186h3.443c0.047,0.117,0.094,0.469,0.094,0.586
			c0,0.164-0.047,0.444-0.094,0.608h-3.443v7.401c0,1.851,0.539,2.624,1.991,2.624c0.796,0,1.569-0.117,2.108-0.281
			c0.047,0.117,0.094,0.398,0.094,0.562C165.32,204.275,165.297,204.439,165.227,204.65z"/>
		<path style="fill:#58595B;" d="M176.865,204.768c-0.211,0.07-0.469,0.117-0.703,0.117c-0.281,0-0.585-0.047-0.819-0.117v-7.401
			c0-2.576-0.656-3.748-2.834-3.748c-1.172,0-2.577,0.656-3.49,1.359v9.79c-0.258,0.07-0.539,0.117-0.797,0.117
			c-0.233,0-0.515-0.047-0.726-0.117v-17.099c0.211-0.07,0.539-0.117,0.749-0.117c0.211,0,0.562,0.047,0.773,0.117v6.02
			c1.241-0.96,2.717-1.358,3.864-1.358c1.195,0,2.413,0.398,3.092,1.218c0.75,0.891,0.891,2.179,0.891,3.443V204.768z"/>
		<path style="fill:#58595B;" d="M188.689,199.076h-7.847c0.094,2.693,1.358,4.731,4.286,4.731c1.055,0,2.038-0.141,2.905-0.352
			c0.047,0.117,0.093,0.352,0.093,0.492c0,0.233-0.046,0.444-0.116,0.608c-0.914,0.281-2.062,0.445-3.021,0.445
			c-1.851,0-3.256-0.586-4.123-1.522c-1.03-1.124-1.569-2.811-1.569-4.755c0-3.396,1.71-6.395,5.13-6.395
			c3.068,0,4.286,2.53,4.286,5.622C188.713,198.303,188.713,198.725,188.689,199.076z M187.19,197.952
			c0-2.155-0.234-4.474-2.834-4.474c-2.271,0-3.373,2.084-3.514,4.474H187.19z"/>
	</g>
	<g>
		<path style="fill:#58595B;" d="M42.227,230.432c-0.211,0-0.469-0.07-0.609-0.117l-0.141-1.405h-0.023
			c-1.007,1.054-2.201,1.64-3.537,1.64c-3.231,0-4.777-2.693-4.777-5.973c0-3.256,1.382-6.699,5.105-6.699
			c1.171,0,2.249,0.398,3.115,1.008v-5.669c0.211-0.07,0.492-0.117,0.75-0.117c0.28,0,0.562,0.07,0.772,0.117v17.099
			C42.718,230.385,42.483,230.432,42.227,230.432z M41.359,220.173c-0.843-0.703-1.921-1.055-3.021-1.055
			c-2.717,0-3.63,2.671-3.63,5.388c0,2.084,0.655,4.802,3.278,4.802c1.266,0,2.554-0.633,3.373-1.616V220.173z"/>
		<path style="fill:#58595B;" d="M54.777,224.623h-7.847c0.094,2.693,1.358,4.731,4.286,4.731c1.055,0,2.038-0.141,2.904-0.352
			c0.047,0.117,0.094,0.352,0.094,0.492c0,0.233-0.047,0.444-0.117,0.608c-0.913,0.281-2.061,0.445-3.021,0.445
			c-1.85,0-3.255-0.586-4.122-1.522c-1.03-1.124-1.569-2.811-1.569-4.755c0-3.396,1.71-6.395,5.13-6.395
			c3.068,0,4.286,2.53,4.286,5.622C54.801,223.85,54.801,224.271,54.777,224.623z M53.278,223.499c0-2.155-0.234-4.474-2.834-4.474
			c-2.272,0-3.373,2.084-3.514,4.474H53.278z"/>
		<path style="fill:#58595B;" d="M65.618,221.086l-3.677,9.229c-0.211,0.07-0.445,0.117-0.633,0.117
			c-0.258,0-0.469-0.047-0.656-0.117l-3.794-9.229c-0.422-1.054-0.609-2.107-0.609-2.975c0.188-0.047,0.516-0.117,0.727-0.117
			c0.281,0,0.562,0.047,0.796,0.117c0.023,0.797,0.117,1.71,0.469,2.553l3.045,7.729h0.047l2.951-7.729
			c0.328-0.819,0.492-1.732,0.492-2.553c0.164-0.07,0.515-0.117,0.819-0.117c0.164,0,0.469,0.023,0.68,0.094
			C66.251,218.932,66.087,219.938,65.618,221.086z"/>
		<path style="fill:#58595B;" d="M76.975,224.623h-7.846c0.094,2.693,1.358,4.731,4.286,4.731c1.054,0,2.037-0.141,2.904-0.352
			c0.047,0.117,0.094,0.352,0.094,0.492c0,0.233-0.047,0.444-0.117,0.608c-0.914,0.281-2.062,0.445-3.021,0.445
			c-1.851,0-3.256-0.586-4.122-1.522c-1.031-1.124-1.569-2.811-1.569-4.755c0-3.396,1.709-6.395,5.129-6.395
			c3.068,0,4.286,2.53,4.286,5.622C76.998,223.85,76.998,224.271,76.975,224.623z M75.476,223.499c0-2.155-0.233-4.474-2.834-4.474
			c-2.271,0-3.372,2.084-3.513,4.474H75.476z"/>
		<path style="fill:#58595B;" d="M81.117,230.314c-0.258,0.07-0.516,0.117-0.796,0.117c-0.234,0-0.516-0.047-0.727-0.117v-17.099
			c0.211-0.047,0.469-0.117,0.773-0.117c0.257,0,0.538,0.047,0.749,0.117V230.314z"/>
		<path style="fill:#58595B;" d="M88.705,230.549c-3.068,0-5.036-2.108-5.036-6.324s1.991-6.348,5.06-6.348s5.012,2.085,5.012,6.301
			S91.773,230.549,88.705,230.549z M88.729,219.025c-2.249,0-3.467,1.732-3.467,5.176s1.194,5.2,3.443,5.2
			c2.248,0,3.442-1.757,3.442-5.2S90.977,219.025,88.729,219.025z"/>
		<path style="fill:#58595B;" d="M103.973,229.05c-0.913,0.819-2.342,1.265-3.701,1.265c-0.96,0-1.85-0.164-2.506-0.398v5.902
			c-0.234,0.07-0.445,0.117-0.772,0.117c-0.258,0-0.562-0.047-0.75-0.117v-17.707c0.117-0.047,0.398-0.094,0.633-0.094
			s0.444,0.047,0.608,0.094l0.141,1.288h0.023c0.891-0.937,2.226-1.522,3.584-1.522c1.476,0,2.787,0.633,3.606,1.804
			c0.68,0.983,1.102,2.39,1.102,4.099C105.94,226.122,105.214,227.926,103.973,229.05z M101.068,219.118
			c-1.241,0-2.482,0.516-3.303,1.546v8.058c0.609,0.281,1.546,0.445,2.343,0.445c2.529,0,4.239-1.663,4.239-5.317
			C104.348,220.969,103.224,219.118,101.068,219.118z"/>
		<path style="fill:#58595B;" d="M125.4,230.338c-0.233,0.047-0.468,0.094-0.702,0.094c-0.281,0-0.539-0.07-0.82-0.117v-7.401
			c0-2.576-0.655-3.748-2.834-3.748c-1.124,0-2.623,0.586-3.56,1.266c0.188,0.655,0.233,1.382,0.233,2.107v7.776
			c-0.233,0.07-0.468,0.117-0.702,0.117c-0.305,0-0.586-0.047-0.819-0.117v-7.401c0-2.576-0.586-3.748-2.765-3.748
			c-1.171,0-2.553,0.656-3.466,1.359v9.79c-0.258,0.07-0.562,0.117-0.844,0.117c-0.234,0-0.491-0.047-0.679-0.117v-12.203
			c0.117-0.047,0.374-0.094,0.632-0.094c0.211,0,0.469,0.047,0.633,0.094l0.117,1.218h0.023c1.288-1.054,2.764-1.452,3.958-1.452
			s2.343,0.398,3.021,1.218c0.094,0.094,0.164,0.211,0.234,0.328c1.241-1.007,2.834-1.546,4.356-1.546
			c1.194,0,2.412,0.398,3.092,1.218c0.749,0.891,0.89,2.179,0.89,3.443V230.338z"/>
		<path style="fill:#58595B;" d="M137.224,224.623h-7.847c0.094,2.693,1.358,4.731,4.286,4.731c1.055,0,2.038-0.141,2.904-0.352
			c0.047,0.117,0.094,0.352,0.094,0.492c0,0.233-0.047,0.444-0.117,0.608c-0.913,0.281-2.061,0.445-3.021,0.445
			c-1.85,0-3.255-0.586-4.122-1.522c-1.03-1.124-1.569-2.811-1.569-4.755c0-3.396,1.71-6.395,5.13-6.395
			c3.068,0,4.286,2.53,4.286,5.622C137.247,223.85,137.247,224.271,137.224,224.623z M135.725,223.499
			c0-2.155-0.234-4.474-2.834-4.474c-2.272,0-3.373,2.084-3.514,4.474H135.725z"/>
		<path style="fill:#58595B;" d="M149.165,230.338c-0.187,0.047-0.468,0.094-0.749,0.094c-0.234,0-0.539-0.047-0.773-0.117v-7.425
			c0-1.124-0.14-1.991-0.468-2.6c-0.398-0.75-1.147-1.125-2.366-1.125c-1.171,0-2.576,0.656-3.489,1.359v9.79
			c-0.258,0.07-0.516,0.117-0.797,0.117c-0.234,0-0.515-0.047-0.726-0.117v-12.203c0.164-0.07,0.444-0.094,0.608-0.094
			c0.234,0,0.516,0.023,0.656,0.094l0.117,1.218h0.023c1.288-1.054,2.764-1.452,3.958-1.452s2.436,0.398,3.115,1.218
			c0.75,0.891,0.89,2.179,0.89,3.443V230.338z"/>
		<path style="fill:#58595B;" d="M158.765,230.197c-0.608,0.211-1.522,0.352-2.201,0.352c-2.319,0-3.42-1.101-3.42-3.701v-7.542
			h-2.108c-0.046-0.117-0.069-0.397-0.069-0.538c0-0.117,0.023-0.398,0.069-0.516l2.108-0.141v-3.186
			c0.188-0.07,0.492-0.117,0.749-0.117c0.258,0,0.586,0.047,0.773,0.117v3.186h3.443c0.047,0.117,0.093,0.469,0.093,0.586
			c0,0.164-0.046,0.444-0.093,0.608h-3.443v7.401c0,1.851,0.538,2.624,1.991,2.624c0.796,0,1.568-0.117,2.107-0.281
			c0.047,0.117,0.094,0.398,0.094,0.562C158.858,229.822,158.835,229.986,158.765,230.197z"/>
		<path style="fill:#58595B;" d="M170.542,230.549c-3.068,0-5.036-2.108-5.036-6.324s1.991-6.348,5.06-6.348
			s5.013,2.085,5.013,6.301S173.61,230.549,170.542,230.549z M170.565,219.025c-2.248,0-3.467,1.732-3.467,5.176
			s1.195,5.2,3.443,5.2c2.249,0,3.443-1.757,3.443-5.2S172.814,219.025,170.565,219.025z"/>
		<path style="fill:#58595B;" d="M184.99,214.224c-0.351-0.094-0.983-0.188-1.476-0.188c-0.89,0-1.546,0.234-1.99,0.726
			c-0.68,0.727-0.797,1.71-0.797,2.951v0.398h3.303c0.047,0.117,0.094,0.398,0.094,0.562c0,0.188-0.047,0.468-0.094,0.632h-3.303
			v11.009c-0.211,0.07-0.445,0.117-0.749,0.117c-0.305,0-0.562-0.047-0.773-0.117v-11.009h-2.107
			c-0.047-0.117-0.07-0.421-0.07-0.562c0-0.117,0.023-0.375,0.07-0.492l2.107-0.141v-0.398c0-1.662,0.281-2.811,1.241-3.771
			c0.68-0.68,1.687-1.007,2.834-1.007c0.609,0,1.289,0.141,1.71,0.304c0.047,0.117,0.07,0.281,0.07,0.445
			C185.061,213.825,185.037,214.106,184.99,214.224z"/>
		<path style="fill:#58595B;" d="M196.158,230.549c-1.405,0-3.021-0.258-4.239-0.703c-0.07-0.188-0.117-0.421-0.117-0.679
			c0-0.234,0.047-0.516,0.094-0.703c1.241,0.492,2.928,0.797,4.146,0.797c2.366,0,3.607-1.055,3.607-2.998
			c0-1.71-0.914-2.483-2.646-3.115l-1.406-0.516c-2.342-0.866-3.677-1.991-3.677-4.239c0-2.623,2.085-4.146,5.036-4.146
			c1.147,0,2.318,0.164,3.372,0.444c0.07,0.141,0.094,0.375,0.094,0.586c0,0.188-0.047,0.492-0.117,0.656
			c-0.983-0.305-2.131-0.445-3.255-0.445c-1.733,0-3.49,0.608-3.49,2.811c0,1.757,0.89,2.365,2.881,3.115l1.241,0.469
			c2.155,0.819,3.537,1.92,3.537,4.216C201.218,229.144,199.109,230.549,196.158,230.549z"/>
		<path style="fill:#58595B;" d="M212.362,227.316c0,0.843,0,1.897,0.047,2.998c-0.164,0.07-0.421,0.117-0.632,0.117
			c-0.188,0-0.445-0.047-0.633-0.117c-0.07-0.375-0.117-0.866-0.141-1.312h-0.023c-0.796,0.983-2.201,1.546-3.583,1.546
			c-2.179,0-4.006-1.218-4.006-3.725c0-1.429,0.586-2.482,1.499-3.139c1.031-0.726,2.39-0.96,3.842-0.96
			c0.819,0,1.499,0.047,2.107,0.141v-0.68c0-2.342-0.96-3.114-2.928-3.114c-1.101,0-2.459,0.233-3.302,0.444
			c-0.047-0.117-0.094-0.375-0.094-0.608c0-0.164,0.047-0.398,0.117-0.539c1.007-0.305,2.342-0.492,3.466-0.492
			c2.787,0,4.263,1.265,4.263,4.123V227.316z M210.84,224.014c-0.679-0.094-1.382-0.141-1.99-0.141c-1.148,0-2.179,0.211-2.881,0.75
			c-0.633,0.468-0.984,1.218-0.984,2.178c0,1.71,1.102,2.53,2.624,2.53c1.265,0,2.6-0.609,3.231-1.569V224.014z"/>
		<path style="fill:#58595B;" d="M224.961,230.338c-0.188,0.047-0.469,0.094-0.75,0.094c-0.234,0-0.538-0.047-0.772-0.117v-7.425
			c0-1.124-0.141-1.991-0.469-2.6c-0.398-0.75-1.147-1.125-2.365-1.125c-1.172,0-2.577,0.656-3.49,1.359v9.79
			c-0.258,0.07-0.516,0.117-0.797,0.117c-0.233,0-0.515-0.047-0.726-0.117v-12.203c0.164-0.07,0.445-0.094,0.609-0.094
			c0.233,0,0.515,0.023,0.655,0.094l0.117,1.218h0.023c1.288-1.054,2.764-1.452,3.958-1.452c1.195,0,2.437,0.398,3.115,1.218
			c0.75,0.891,0.891,2.179,0.891,3.443V230.338z"/>
		<path style="fill:#58595B;" d="M234.561,230.197c-0.609,0.211-1.522,0.352-2.202,0.352c-2.318,0-3.42-1.101-3.42-3.701v-7.542
			h-2.107c-0.047-0.117-0.07-0.397-0.07-0.538c0-0.117,0.023-0.398,0.07-0.516l2.107-0.141v-3.186
			c0.188-0.07,0.492-0.117,0.75-0.117s0.585,0.047,0.772,0.117v3.186h3.443c0.047,0.117,0.094,0.469,0.094,0.586
			c0,0.164-0.047,0.444-0.094,0.608h-3.443v7.401c0,1.851,0.539,2.624,1.991,2.624c0.796,0,1.569-0.117,2.108-0.281
			c0.047,0.117,0.094,0.398,0.094,0.562C234.654,229.822,234.631,229.986,234.561,230.197z"/>
		<path style="fill:#58595B;" d="M244.934,227.316c0,0.843,0,1.897,0.047,2.998c-0.164,0.07-0.421,0.117-0.632,0.117
			c-0.188,0-0.445-0.047-0.633-0.117c-0.07-0.375-0.117-0.866-0.141-1.312h-0.023c-0.796,0.983-2.201,1.546-3.583,1.546
			c-2.179,0-4.006-1.218-4.006-3.725c0-1.429,0.586-2.482,1.499-3.139c1.031-0.726,2.39-0.96,3.842-0.96
			c0.819,0,1.499,0.047,2.107,0.141v-0.68c0-2.342-0.96-3.114-2.928-3.114c-1.101,0-2.459,0.233-3.302,0.444
			c-0.047-0.117-0.094-0.375-0.094-0.608c0-0.164,0.047-0.398,0.117-0.539c1.007-0.305,2.342-0.492,3.466-0.492
			c2.787,0,4.263,1.265,4.263,4.123V227.316z M243.411,224.014c-0.679-0.094-1.382-0.141-1.99-0.141
			c-1.148,0-2.179,0.211-2.881,0.75c-0.633,0.468-0.984,1.218-0.984,2.178c0,1.71,1.102,2.53,2.624,2.53
			c1.265,0,2.6-0.609,3.231-1.569V224.014z"/>
		<path style="fill:#58595B;" d="M257.532,230.338c-0.188,0.047-0.469,0.094-0.75,0.094c-0.234,0-0.538-0.047-0.772-0.117v-7.425
			c0-1.124-0.141-1.991-0.469-2.6c-0.398-0.75-1.147-1.125-2.365-1.125c-1.172,0-2.577,0.656-3.49,1.359v9.79
			c-0.258,0.07-0.516,0.117-0.797,0.117c-0.233,0-0.515-0.047-0.726-0.117v-12.203c0.164-0.07,0.445-0.094,0.609-0.094
			c0.233,0,0.515,0.023,0.655,0.094l0.117,1.218h0.023c1.288-1.054,2.764-1.452,3.958-1.452c1.195,0,2.437,0.398,3.115,1.218
			c0.75,0.891,0.891,2.179,0.891,3.443V230.338z"/>
		<path style="fill:#58595B;" d="M269.052,230.432c-0.211,0-0.468-0.07-0.608-0.117l-0.141-1.405h-0.023
			c-1.007,1.054-2.202,1.64-3.537,1.64c-3.232,0-4.778-2.693-4.778-5.973c0-3.256,1.382-6.699,5.106-6.699
			c1.171,0,2.248,0.398,3.115,1.008v-5.669c0.211-0.07,0.492-0.117,0.749-0.117c0.281,0,0.562,0.07,0.773,0.117v17.099
			C269.544,230.385,269.31,230.432,269.052,230.432z M268.186,220.173c-0.844-0.703-1.921-1.055-3.021-1.055
			c-2.717,0-3.631,2.671-3.631,5.388c0,2.084,0.656,4.802,3.279,4.802c1.265,0,2.553-0.633,3.373-1.616V220.173z"/>
		<path style="fill:#58595B;" d="M281.603,224.623h-7.847c0.094,2.693,1.358,4.731,4.287,4.731c1.054,0,2.037-0.141,2.904-0.352
			c0.047,0.117,0.094,0.352,0.094,0.492c0,0.233-0.047,0.444-0.117,0.608c-0.914,0.281-2.062,0.445-3.021,0.445
			c-1.851,0-3.256-0.586-4.123-1.522c-1.03-1.124-1.569-2.811-1.569-4.755c0-3.396,1.71-6.395,5.13-6.395
			c3.068,0,4.286,2.53,4.286,5.622C281.626,223.85,281.626,224.271,281.603,224.623z M280.104,223.499
			c0-2.155-0.234-4.474-2.834-4.474c-2.271,0-3.373,2.084-3.514,4.474H280.104z"/>
		<path style="fill:#58595B;" d="M289.633,219.235c-1.358,0.188-2.834,0.68-3.935,1.522v9.557c-0.234,0.07-0.516,0.117-0.773,0.117
			c-0.257,0-0.515-0.047-0.749-0.117v-12.203c0.141-0.047,0.352-0.094,0.586-0.094c0.187,0,0.444,0.047,0.632,0.094l0.117,1.499
			h0.023c1.007-0.866,2.764-1.593,4.099-1.733c0.047,0.141,0.094,0.398,0.094,0.609C289.727,218.721,289.68,219.025,289.633,219.235
			z"/>
	</g>
	<g>
		<path style="fill:#58595B;" d="M35.855,255.861c-0.188,0.07-0.539,0.117-0.797,0.117c-0.257,0-0.608-0.047-0.796-0.117v-15.833
			c0.188-0.07,0.539-0.117,0.796-0.117c0.258,0,0.609,0.047,0.797,0.117V255.861z"/>
		<path style="fill:#58595B;" d="M48.853,255.885c-0.187,0.047-0.468,0.094-0.749,0.094c-0.234,0-0.539-0.047-0.773-0.117v-7.425
			c0-1.124-0.14-1.991-0.468-2.6c-0.398-0.75-1.147-1.125-2.366-1.125c-1.171,0-2.576,0.656-3.489,1.359v9.79
			c-0.258,0.07-0.516,0.117-0.797,0.117c-0.234,0-0.515-0.047-0.726-0.117v-12.203c0.164-0.07,0.444-0.094,0.608-0.094
			c0.234,0,0.516,0.023,0.656,0.094l0.117,1.218h0.023c1.288-1.054,2.764-1.452,3.958-1.452s2.436,0.398,3.115,1.218
			c0.75,0.891,0.89,2.179,0.89,3.443V255.885z"/>
		<path style="fill:#58595B;" d="M58.452,255.744c-0.608,0.211-1.522,0.352-2.201,0.352c-2.319,0-3.42-1.101-3.42-3.701v-7.542
			h-2.107c-0.047-0.117-0.07-0.397-0.07-0.538c0-0.117,0.023-0.398,0.07-0.516l2.107-0.141v-3.186
			c0.188-0.07,0.492-0.117,0.75-0.117c0.257,0,0.585,0.047,0.772,0.117v3.186h3.443c0.047,0.117,0.094,0.469,0.094,0.586
			c0,0.164-0.047,0.444-0.094,0.608h-3.443v7.401c0,1.851,0.539,2.624,1.991,2.624c0.796,0,1.569-0.117,2.107-0.281
			c0.047,0.117,0.094,0.398,0.094,0.562C58.546,255.369,58.522,255.533,58.452,255.744z"/>
		<path style="fill:#58595B;" d="M68.85,250.17h-7.847c0.094,2.693,1.358,4.731,4.286,4.731c1.055,0,2.038-0.141,2.904-0.352
			c0.047,0.117,0.094,0.352,0.094,0.492c0,0.233-0.047,0.444-0.117,0.608c-0.913,0.281-2.061,0.445-3.021,0.445
			c-1.85,0-3.255-0.586-4.122-1.522c-1.03-1.124-1.569-2.811-1.569-4.755c0-3.396,1.71-6.395,5.13-6.395
			c3.068,0,4.286,2.53,4.286,5.622C68.873,249.396,68.873,249.818,68.85,250.17z M67.351,249.046c0-2.155-0.234-4.474-2.834-4.474
			c-2.272,0-3.373,2.084-3.514,4.474H67.351z"/>
		<path style="fill:#58595B;" d="M76.88,244.782c-1.358,0.188-2.834,0.68-3.935,1.522v9.557c-0.234,0.07-0.516,0.117-0.773,0.117
			s-0.515-0.047-0.749-0.117v-12.203c0.141-0.047,0.351-0.094,0.585-0.094c0.188,0,0.445,0.047,0.633,0.094l0.117,1.499h0.023
			c1.007-0.866,2.764-1.593,4.099-1.733c0.047,0.141,0.094,0.398,0.094,0.609C76.974,244.268,76.927,244.572,76.88,244.782z"/>
		<path style="fill:#58595B;" d="M88.612,255.885c-0.187,0.047-0.468,0.094-0.749,0.094c-0.234,0-0.539-0.047-0.773-0.117v-7.425
			c0-1.124-0.14-1.991-0.468-2.6c-0.398-0.75-1.147-1.125-2.366-1.125c-1.171,0-2.576,0.656-3.489,1.359v9.79
			c-0.258,0.07-0.516,0.117-0.797,0.117c-0.234,0-0.515-0.047-0.726-0.117v-12.203c0.164-0.07,0.444-0.094,0.608-0.094
			c0.234,0,0.516,0.023,0.656,0.094l0.117,1.218h0.023c1.288-1.054,2.764-1.452,3.958-1.452s2.436,0.398,3.115,1.218
			c0.75,0.891,0.89,2.179,0.89,3.443V255.885z"/>
		<path style="fill:#58595B;" d="M94.441,256.096c-1.171,0-2.39-0.211-3.232-0.539c-0.07-0.164-0.117-0.445-0.117-0.655
			c0-0.141,0.047-0.492,0.094-0.633c0.866,0.352,2.108,0.633,3.139,0.633c1.78,0,2.881-0.75,2.881-2.226
			c0-1.335-0.68-1.804-2.529-2.482c-2.577-0.938-3.42-2.015-3.42-3.607c0-2.154,1.78-3.162,4.075-3.162
			c0.773,0,1.78,0.141,2.366,0.328c0.07,0.211,0.094,0.422,0.094,0.562c0,0.188-0.047,0.515-0.094,0.679
			c-0.773-0.234-1.593-0.374-2.39-0.374c-1.663,0-2.67,0.632-2.67,1.92c0,1.124,0.633,1.663,2.553,2.39
			c1.757,0.655,3.373,1.312,3.373,3.677C98.563,254.995,96.76,256.096,94.441,256.096z"/>
		<path style="fill:#58595B;" d="M110.412,255.861c-0.21,0.07-0.468,0.117-0.702,0.117c-0.281,0-0.586-0.047-0.82-0.117v-7.401
			c0-2.576-0.655-3.748-2.834-3.748c-1.171,0-2.576,0.656-3.489,1.359v9.79c-0.258,0.07-0.539,0.117-0.797,0.117
			c-0.234,0-0.515-0.047-0.726-0.117v-17.099c0.211-0.07,0.538-0.117,0.749-0.117s0.562,0.047,0.773,0.117v6.02
			c1.241-0.96,2.717-1.358,3.864-1.358c1.194,0,2.412,0.398,3.092,1.218c0.75,0.891,0.89,2.179,0.89,3.443V255.861z"/>
		<path style="fill:#58595B;" d="M114.367,241.27c-0.539,0-0.983-0.469-0.983-1.031c0-0.562,0.444-1.007,0.983-1.007
			s1.007,0.445,1.007,1.007C115.374,240.801,114.906,241.27,114.367,241.27z M115.141,255.861c-0.211,0.07-0.516,0.117-0.773,0.117
			s-0.539-0.047-0.749-0.117v-12.203c0.187-0.047,0.491-0.117,0.726-0.117c0.258,0,0.609,0.047,0.797,0.117V255.861z"/>
		<path style="fill:#58595B;" d="M126.147,254.597c-0.914,0.819-2.343,1.265-3.701,1.265c-0.96,0-1.851-0.164-2.506-0.398v5.902
			c-0.234,0.07-0.445,0.117-0.773,0.117c-0.258,0-0.562-0.047-0.749-0.117v-17.707c0.117-0.047,0.397-0.094,0.632-0.094
			s0.445,0.047,0.609,0.094l0.141,1.288h0.023c0.89-0.937,2.225-1.522,3.583-1.522c1.476,0,2.787,0.633,3.607,1.804
			c0.679,0.983,1.101,2.39,1.101,4.099C128.114,251.669,127.389,253.473,126.147,254.597z M123.242,244.665
			c-1.241,0-2.482,0.516-3.302,1.546v8.058c0.608,0.281,1.546,0.445,2.342,0.445c2.529,0,4.239-1.663,4.239-5.317
			C126.521,246.516,125.397,244.665,123.242,244.665z"/>
		<path style="fill:#58595B;" d="M140.242,249.561h-2.482v6.301c-0.188,0.07-0.562,0.117-0.82,0.117
			c-0.257,0-0.585-0.047-0.772-0.117v-15.833c0.89-0.07,2.787-0.117,4.005-0.117c3.115,0,5.388,1.171,5.388,4.567
			C145.56,247.874,143.592,249.561,140.242,249.561z M140.148,241.082c-0.538,0-1.64,0.023-2.389,0.07v7.214h2.225
			c2.507,0,3.959-0.983,3.959-3.841C143.943,241.737,142.351,241.082,140.148,241.082z"/>
		<path style="fill:#58595B;" d="M153.426,244.782c-1.358,0.188-2.834,0.68-3.935,1.522v9.557c-0.234,0.07-0.516,0.117-0.773,0.117
			s-0.515-0.047-0.749-0.117v-12.203c0.141-0.047,0.351-0.094,0.585-0.094c0.188,0,0.445,0.047,0.633,0.094l0.117,1.499h0.023
			c1.007-0.866,2.764-1.593,4.099-1.733c0.047,0.141,0.094,0.398,0.094,0.609C153.52,244.268,153.473,244.572,153.426,244.782z"/>
		<path style="fill:#58595B;" d="M159.536,256.096c-3.068,0-5.036-2.108-5.036-6.324s1.991-6.348,5.06-6.348
			s5.013,2.085,5.013,6.301S162.604,256.096,159.536,256.096z M159.56,244.572c-2.248,0-3.467,1.732-3.467,5.176
			s1.195,5.2,3.443,5.2c2.249,0,3.443-1.757,3.443-5.2S161.809,244.572,159.56,244.572z"/>
		<path style="fill:#58595B;" d="M175.905,253.823c0,1.757-0.094,3.865-0.937,5.317c-1.008,1.733-2.811,2.482-4.614,2.482
			c-1.031,0-1.921-0.117-2.67-0.375c-0.07-0.141-0.094-0.374-0.094-0.562c0-0.141,0.047-0.422,0.094-0.562
			c0.726,0.188,1.568,0.328,2.412,0.328c2.951,0,4.286-1.827,4.286-5.036v-0.983c-0.913,0.96-2.201,1.429-3.256,1.429
			c-3.115,0-4.731-2.412-4.731-5.809c0-4.169,2.46-6.629,6.09-6.629c0.961,0,2.413,0.281,3.42,0.68V253.823z M174.383,244.853
			c-0.843-0.233-1.452-0.304-2.038-0.304c-2.975,0-4.38,2.506-4.38,5.434c0,2.6,0.984,4.638,3.279,4.638
			c1.171,0,2.366-0.586,3.139-1.405V244.853z"/>
		<path style="fill:#58595B;" d="M184.544,244.782c-1.358,0.188-2.834,0.68-3.935,1.522v9.557c-0.234,0.07-0.516,0.117-0.773,0.117
			c-0.257,0-0.515-0.047-0.749-0.117v-12.203c0.141-0.047,0.352-0.094,0.586-0.094c0.187,0,0.444,0.047,0.632,0.094l0.117,1.499
			h0.023c1.007-0.866,2.764-1.593,4.099-1.733c0.047,0.141,0.094,0.398,0.094,0.609
			C184.638,244.268,184.591,244.572,184.544,244.782z"/>
		<path style="fill:#58595B;" d="M194.521,252.863c0,0.843,0,1.897,0.047,2.998c-0.164,0.07-0.421,0.117-0.632,0.117
			c-0.188,0-0.445-0.047-0.633-0.117c-0.07-0.375-0.117-0.866-0.141-1.312h-0.023c-0.796,0.983-2.201,1.546-3.583,1.546
			c-2.179,0-4.006-1.218-4.006-3.725c0-1.429,0.586-2.482,1.499-3.139c1.031-0.726,2.39-0.96,3.842-0.96
			c0.819,0,1.499,0.047,2.107,0.141v-0.68c0-2.342-0.96-3.114-2.928-3.114c-1.101,0-2.459,0.233-3.302,0.444
			c-0.047-0.117-0.094-0.375-0.094-0.608c0-0.164,0.047-0.398,0.117-0.539c1.007-0.305,2.342-0.492,3.466-0.492
			c2.787,0,4.263,1.265,4.263,4.123V252.863z M192.998,249.561c-0.679-0.094-1.382-0.141-1.99-0.141
			c-1.148,0-2.179,0.211-2.881,0.75c-0.633,0.468-0.984,1.218-0.984,2.178c0,1.71,1.102,2.53,2.624,2.53
			c1.265,0,2.6-0.609,3.231-1.569V249.561z"/>
		<path style="fill:#58595B;" d="M214.708,255.885c-0.234,0.047-0.469,0.094-0.703,0.094c-0.281,0-0.539-0.07-0.819-0.117v-7.401
			c0-2.576-0.656-3.748-2.834-3.748c-1.125,0-2.624,0.586-3.561,1.266c0.188,0.655,0.234,1.382,0.234,2.107v7.776
			c-0.234,0.07-0.469,0.117-0.703,0.117c-0.305,0-0.585-0.047-0.819-0.117v-7.401c0-2.576-0.586-3.748-2.764-3.748
			c-1.172,0-2.554,0.656-3.467,1.359v9.79c-0.258,0.07-0.562,0.117-0.844,0.117c-0.233,0-0.491-0.047-0.679-0.117v-12.203
			c0.117-0.047,0.375-0.094,0.633-0.094c0.21,0,0.468,0.047,0.632,0.094l0.117,1.218h0.023c1.288-1.054,2.764-1.452,3.958-1.452
			c1.195,0,2.343,0.398,3.021,1.218c0.094,0.094,0.164,0.211,0.234,0.328c1.241-1.007,2.834-1.546,4.356-1.546
			c1.194,0,2.413,0.398,3.092,1.218c0.75,0.891,0.891,2.179,0.891,3.443V255.885z"/>
		<path style="fill:#58595B;" d="M234.774,255.885c-0.234,0.047-0.469,0.094-0.703,0.094c-0.281,0-0.539-0.07-0.819-0.117v-7.401
			c0-2.576-0.656-3.748-2.834-3.748c-1.125,0-2.624,0.586-3.561,1.266c0.188,0.655,0.234,1.382,0.234,2.107v7.776
			c-0.234,0.07-0.469,0.117-0.703,0.117c-0.305,0-0.585-0.047-0.819-0.117v-7.401c0-2.576-0.586-3.748-2.764-3.748
			c-1.172,0-2.554,0.656-3.467,1.359v9.79c-0.258,0.07-0.562,0.117-0.844,0.117c-0.233,0-0.491-0.047-0.679-0.117v-12.203
			c0.117-0.047,0.375-0.094,0.633-0.094c0.21,0,0.468,0.047,0.632,0.094l0.117,1.218h0.023c1.288-1.054,2.764-1.452,3.958-1.452
			c1.195,0,2.343,0.398,3.021,1.218c0.094,0.094,0.164,0.211,0.234,0.328c1.241-1.007,2.834-1.546,4.356-1.546
			c1.194,0,2.413,0.398,3.092,1.218c0.75,0.891,0.891,2.179,0.891,3.443V255.885z"/>
		<path style="fill:#58595B;" d="M246.597,250.17h-7.847c0.094,2.693,1.358,4.731,4.287,4.731c1.054,0,2.037-0.141,2.904-0.352
			c0.047,0.117,0.094,0.352,0.094,0.492c0,0.233-0.047,0.444-0.117,0.608c-0.914,0.281-2.062,0.445-3.021,0.445
			c-1.851,0-3.256-0.586-4.123-1.522c-1.03-1.124-1.569-2.811-1.569-4.755c0-3.396,1.71-6.395,5.13-6.395
			c3.068,0,4.286,2.53,4.286,5.622C246.62,249.396,246.62,249.818,246.597,250.17z M245.098,249.046
			c0-2.155-0.234-4.474-2.834-4.474c-2.271,0-3.373,2.084-3.514,4.474H245.098z"/>
		<path style="fill:#58595B;" d="M251.888,256.096c-1.171,0-2.389-0.211-3.232-0.539c-0.07-0.164-0.117-0.445-0.117-0.655
			c0-0.141,0.047-0.492,0.094-0.633c0.867,0.352,2.108,0.633,3.139,0.633c1.78,0,2.881-0.75,2.881-2.226
			c0-1.335-0.679-1.804-2.529-2.482c-2.576-0.938-3.42-2.015-3.42-3.607c0-2.154,1.78-3.162,4.076-3.162
			c0.772,0,1.779,0.141,2.365,0.328c0.07,0.211,0.094,0.422,0.094,0.562c0,0.188-0.047,0.515-0.094,0.679
			c-0.773-0.234-1.593-0.374-2.389-0.374c-1.663,0-2.671,0.632-2.671,1.92c0,1.124,0.633,1.663,2.554,2.39
			c1.756,0.655,3.372,1.312,3.372,3.677C256.01,254.995,254.207,256.096,251.888,256.096z"/>
	</g>
	<g>
		<path style="fill:#58595B;" d="M37.448,284.008c-2.601-2.6-3.936-6.207-3.936-9.532c0-3.678,1.405-7.051,3.936-9.65
			c0.258,0.07,0.515,0.211,0.702,0.398c-2.178,2.787-3.139,6.02-3.139,9.205c0,3.162,0.961,6.3,3.139,9.182
			C37.963,283.797,37.706,283.938,37.448,284.008z"/>
		<path style="fill:#58595B;" d="M46.112,276.7c-1.147,1.335-2.226,2.482-3.139,3.467h7.214c0.07,0.211,0.07,0.469,0.07,0.608
			c0,0.211-0.023,0.422-0.07,0.633h-8.83c-0.141-0.398-0.188-0.656-0.188-0.913c0-0.164,0-0.234,0.023-0.375
			c1.358-1.476,2.975-3.232,3.911-4.286c2.577-2.904,3.561-4.661,3.561-6.395c0-1.968-1.124-2.951-2.951-2.951
			c-1.241,0-2.693,0.375-3.841,0.89c-0.047-0.141-0.07-0.468-0.07-0.608c0-0.211,0.047-0.422,0.117-0.609
			c0.937-0.422,2.576-0.819,4.005-0.819c2.623,0,4.427,1.452,4.427,3.958C50.352,271.407,49.228,273.094,46.112,276.7z"/>
		<path style="fill:#58595B;" d="M58.055,281.643c-3.162,0-4.919-2.343-4.919-8.151s1.944-8.15,5.013-8.15
			c3.114,0,4.918,2.342,4.918,8.15S61.123,281.643,58.055,281.643z M58.148,266.488c-2.343,0-3.326,2.389-3.326,7.003
			s0.913,7.004,3.256,7.004c2.342,0,3.302-2.39,3.302-7.004S60.49,266.488,58.148,266.488z"/>
		<path style="fill:#58595B;" d="M72.385,281.408c-0.188,0.07-0.538,0.117-0.796,0.117s-0.609-0.047-0.797-0.117v-14.24l-4.099,2.6
			c-0.234-0.211-0.516-0.633-0.608-1.031l5.012-3.185c0.164-0.047,0.422-0.094,0.609-0.094c0.234,0,0.491,0.047,0.679,0.117V281.408
			z"/>
		<path style="fill:#58595B;" d="M82.477,281.643c-1.218,0-2.436-0.164-3.442-0.539c-0.047-0.117-0.07-0.352-0.07-0.538
			c0-0.188,0.023-0.398,0.094-0.609c1.03,0.328,2.154,0.516,3.232,0.516c2.436,0,3.606-1.522,3.606-3.748
			c0-2.764-1.452-3.7-4.192-3.7h-2.343v-7.448h7.426c0.069,0.14,0.116,0.397,0.116,0.562c0,0.188-0.047,0.492-0.116,0.68h-5.903
			v5.059h1.219c3.209,0,5.48,1.242,5.48,4.731C87.583,279.722,85.475,281.643,82.477,281.643z"/>
		<path style="fill:#58595B;" d="M91.444,281.643c-0.211,0.07-0.516,0.117-0.773,0.117c-0.234,0-0.468-0.047-0.679-0.117
			l4.708-16.302c0.233-0.07,0.585-0.117,0.772-0.117s0.562,0.07,0.68,0.117L91.444,281.643z"/>
		<path style="fill:#58595B;" d="M104.863,281.408c-0.188,0.07-0.539,0.117-0.797,0.117c-0.257,0-0.608-0.047-0.796-0.117v-14.24
			l-4.099,2.6c-0.234-0.211-0.516-0.633-0.609-1.031l5.013-3.185c0.164-0.047,0.421-0.094,0.608-0.094
			c0.234,0,0.492,0.047,0.68,0.117V281.408z"/>
		<path style="fill:#58595B;" d="M115.774,281.643c-3.795,0-4.966-3.021-4.966-7.144c0-4.896,1.71-9.158,6.652-9.158
			c0.562,0,1.147,0.094,1.476,0.188c0.07,0.14,0.094,0.374,0.094,0.491c0,0.141-0.047,0.445-0.117,0.562
			c-0.352-0.07-0.891-0.141-1.335-0.141c-3.162,0-4.778,2.6-5.036,6.676c0.89-0.844,2.389-1.453,3.771-1.453
			c2.554,0,4.17,1.921,4.17,4.661C120.482,279.323,118.796,281.643,115.774,281.643z M116.173,272.836
			c-1.219,0-2.718,0.632-3.678,1.64c-0.023,0.327-0.023,0.562-0.023,0.772c0,3.068,0.89,5.294,3.303,5.294
			c2.131,0,3.021-2.179,3.021-4.123C118.796,274.662,118.233,272.836,116.173,272.836z"/>
		<path style="fill:#58595B;" d="M126.054,274.429c0-3.186-0.961-6.418-3.139-9.205c0.188-0.188,0.445-0.328,0.702-0.398
			c2.53,2.6,3.936,5.973,3.936,9.65c0,3.325-1.335,6.933-3.936,9.532c-0.257-0.07-0.515-0.211-0.702-0.397
			C125.093,280.729,126.054,277.591,126.054,274.429z"/>
	</g>
</g>
</svg>
