<?xml version="1.0" encoding="utf-8"?>
<!-- Generator: Adobe Illustrator 16.0.0, SVG Export Plug-In . SVG Version: 6.00 Build 0)  -->
<!DOCTYPE svg PUBLIC "-//W3C//DTD SVG 1.1//EN" "http://www.w3.org/Graphics/SVG/1.1/DTD/svg11.dtd">
<svg version="1.1" id="Layer_1" xmlns="http://www.w3.org/2000/svg" xmlns:xlink="http://www.w3.org/1999/xlink" x="0px" y="0px"
	 width="300px" height="300px" viewBox="0 0 300 300" enable-background="new 0 0 300 300" xml:space="preserve">
<path fill="#252525" d="M-417.411-81.232c-0.702,0-1.369-0.126-1.864-0.265c-0.034-0.161-0.046-0.322-0.046-0.483
	c0-0.172,0.023-0.379,0.069-0.541c0.472,0.172,1.162,0.288,1.668,0.288c0.667,0,1.185-0.219,1.185-0.817
	c0-0.506-0.38-0.679-1.208-0.943c-1.243-0.403-1.726-0.92-1.726-1.76c0-1.174,1.128-1.703,2.244-1.703
	c0.437,0,1.07,0.081,1.427,0.196c0.046,0.138,0.069,0.299,0.069,0.449c0,0.172-0.034,0.38-0.081,0.541
	c-0.437-0.115-0.875-0.184-1.346-0.184c-0.656,0-1.047,0.196-1.047,0.633c0,0.449,0.483,0.61,1.185,0.863
	c1.013,0.356,1.691,0.679,1.691,1.829C-415.19-81.911-416.203-81.232-417.411-81.232z M-413.685-86.363h-0.978
	c-0.046-0.149-0.069-0.288-0.069-0.449s0.023-0.299,0.069-0.449l0.978-0.069v-1.553c0.15-0.035,0.449-0.081,0.667-0.081
	c0.23,0,0.506,0.046,0.667,0.081v1.542h1.703c0.046,0.149,0.069,0.322,0.069,0.483s-0.023,0.322-0.069,0.495h-1.703v3.049
	c0,0.276,0.035,0.575,0.173,0.759c0.115,0.161,0.333,0.265,0.679,0.265c0.265,0,0.679-0.058,0.978-0.149
	c0.046,0.207,0.069,0.426,0.069,0.621c0,0.138-0.011,0.253-0.023,0.345c-0.276,0.138-0.805,0.242-1.357,0.242
	c-1.346,0-1.853-0.633-1.853-1.853V-86.363z M-405.266-81.29c-0.184,0-0.437-0.023-0.586-0.058
	c-0.035-0.184-0.058-0.426-0.069-0.598h-0.011c-0.368,0.437-1.059,0.713-1.726,0.713c-1.15,0-1.99-0.679-1.99-1.841
	c0-1.749,1.507-2.163,2.842-2.163c0.23,0,0.575,0.023,0.748,0.035c0-0.909-0.334-1.22-1.243-1.22c-0.529,0-1.231,0.104-1.703,0.219
	c-0.046-0.138-0.069-0.345-0.069-0.506c0-0.149,0.023-0.345,0.069-0.46c0.575-0.173,1.323-0.288,1.921-0.288
	c1.461,0,2.358,0.61,2.358,2.117v2.381c0,0.622,0.011,1.059,0.023,1.611C-404.863-81.301-405.093-81.29-405.266-81.29z
	 M-406.048-84.235c-0.172-0.023-0.449-0.035-0.713-0.035c-1.001,0-1.53,0.426-1.53,1.082c0,0.575,0.379,0.909,0.978,0.909
	c0.483,0,0.978-0.219,1.266-0.529V-84.235z M-400.31-88.929c-0.449,0-0.782,0.161-0.978,0.506c-0.115,0.207-0.15,0.46-0.15,0.875
	v0.207h2.29v-0.149c0-0.771,0.149-1.323,0.518-1.749c0.38-0.426,1.001-0.644,1.634-0.644c0.391,0,0.829,0.081,1.185,0.207
	c0.035,0.126,0.046,0.276,0.046,0.437c0,0.138-0.023,0.311-0.081,0.46c-0.299-0.104-0.587-0.15-0.852-0.15
	c-0.506,0-0.759,0.138-0.932,0.403c-0.138,0.23-0.195,0.564-0.195,0.978v0.207h1.496c0.058,0.138,0.081,0.357,0.081,0.472
	c0,0.126-0.023,0.345-0.069,0.506h-1.507v5.016c-0.161,0.035-0.449,0.058-0.656,0.058c-0.184,0-0.495-0.023-0.667-0.058v-5.016
	h-2.29v5.016c-0.161,0.035-0.449,0.058-0.656,0.058c-0.184,0-0.495-0.023-0.667-0.058v-5.016h-0.955
	c-0.046-0.126-0.069-0.333-0.069-0.46c0-0.138,0.023-0.345,0.069-0.448l0.955-0.058v-0.161c0-0.771,0.149-1.323,0.518-1.749
	c0.379-0.426,1.001-0.644,1.634-0.644c0.391,0,0.828,0.081,1.185,0.207c0.034,0.126,0.046,0.276,0.046,0.437
	c0,0.138-0.023,0.311-0.081,0.46C-399.757-88.883-400.045-88.929-400.31-88.929z M-383.592-81.347
	c-0.172,0.046-0.448,0.058-0.632,0.058c-0.196,0-0.518-0.023-0.702-0.058v-3.555c0-0.449-0.034-0.782-0.172-1.012
	c-0.161-0.265-0.472-0.391-0.875-0.391c-0.46,0-1.036,0.218-1.392,0.472c0.046,0.242,0.046,0.46,0.046,0.725v3.762
	c-0.172,0.046-0.449,0.058-0.633,0.058c-0.195,0-0.506-0.023-0.69-0.058v-3.555c0-0.495-0.046-0.874-0.265-1.116
	c-0.173-0.196-0.438-0.288-0.759-0.288c-0.438,0-0.967,0.184-1.369,0.449v4.51c-0.23,0.035-0.518,0.058-0.713,0.058
	c-0.184,0-0.426-0.012-0.622-0.058v-5.994c0.15-0.035,0.403-0.058,0.564-0.058c0.149,0,0.391,0.023,0.541,0.058l0.081,0.541
	c0.495-0.392,1.243-0.656,1.887-0.656c0.748,0,1.3,0.299,1.61,0.725c0.575-0.414,1.369-0.725,2.094-0.725
	c0.609,0,1.208,0.208,1.542,0.587c0.391,0.449,0.46,1.047,0.46,1.76V-81.347z M-377.222-83.901h-3.728
	c0.023,1.036,0.702,1.646,1.749,1.646c0.529,0,1.013-0.069,1.53-0.196c0.058,0.299,0.081,0.61,0.081,0.955
	c-0.61,0.207-1.162,0.265-1.795,0.265c-1.956,0-2.968-1.231-2.968-3.083c0-1.68,0.978-3.141,2.784-3.141
	c1.68,0,2.37,1.312,2.37,2.934C-377.199-84.212-377.211-84.039-377.222-83.901z M-378.534-84.914c0-0.725-0.15-1.507-1.07-1.507
	c-0.863,0-1.277,0.702-1.346,1.507H-378.534z M-367.066-81.347c-0.173,0.046-0.449,0.058-0.633,0.058
	c-0.196,0-0.518-0.023-0.702-0.058v-3.555c0-0.449-0.035-0.782-0.173-1.012c-0.161-0.265-0.472-0.391-0.875-0.391
	c-0.46,0-1.035,0.218-1.392,0.472c0.046,0.242,0.046,0.46,0.046,0.725v3.762c-0.173,0.046-0.449,0.058-0.633,0.058
	c-0.196,0-0.506-0.023-0.69-0.058v-3.555c0-0.495-0.046-0.874-0.265-1.116c-0.172-0.196-0.437-0.288-0.759-0.288
	c-0.437,0-0.966,0.184-1.369,0.449v4.51c-0.23,0.035-0.518,0.058-0.713,0.058c-0.184,0-0.426-0.012-0.621-0.058v-5.994
	c0.149-0.035,0.402-0.058,0.563-0.058c0.15,0,0.391,0.023,0.541,0.058l0.081,0.541c0.495-0.392,1.242-0.656,1.887-0.656
	c0.748,0,1.3,0.299,1.611,0.725c0.575-0.414,1.369-0.725,2.094-0.725c0.61,0,1.208,0.208,1.542,0.587
	c0.392,0.449,0.46,1.047,0.46,1.76V-81.347z M-363.285-81.232c-0.725,0-1.588-0.138-2.221-0.368v-8.146
	c0.173-0.035,0.414-0.046,0.645-0.046c0.265,0,0.529,0.012,0.69,0.046v2.784c0.334-0.276,0.92-0.495,1.519-0.495
	c1.703,0,2.393,1.473,2.393,2.934C-360.259-82.543-361.26-81.232-363.285-81.232z M-362.917-86.329
	c-0.438,0-0.955,0.161-1.254,0.391v3.589c0.208,0.058,0.518,0.092,0.771,0.092c1.289,0,1.772-0.852,1.772-2.244
	C-361.628-85.362-361.939-86.329-362.917-86.329z M-354.188-83.901h-3.728c0.023,1.036,0.702,1.646,1.749,1.646
	c0.529,0,1.012-0.069,1.53-0.196c0.058,0.299,0.081,0.61,0.081,0.955c-0.61,0.207-1.162,0.265-1.795,0.265
	c-1.956,0-2.968-1.231-2.968-3.083c0-1.68,0.978-3.141,2.784-3.141c1.68,0,2.37,1.312,2.37,2.934
	C-354.165-84.212-354.176-84.039-354.188-83.901z M-355.499-84.914c0-0.725-0.15-1.507-1.07-1.507c-0.863,0-1.277,0.702-1.346,1.507
	H-355.499z M-349.6-86.329c-0.576,0.069-1.312,0.311-1.875,0.633v4.349c-0.173,0.046-0.438,0.058-0.667,0.058
	s-0.518-0.023-0.667-0.058v-5.994c0.149-0.023,0.368-0.058,0.552-0.058c0.172,0,0.402,0.023,0.552,0.058l0.092,0.736h0.035
	c0.483-0.449,1.289-0.805,1.967-0.852c0.023,0.104,0.046,0.322,0.046,0.553C-349.565-86.743-349.577-86.49-349.6-86.329z
	 M-346.84-81.232c-0.702,0-1.369-0.126-1.864-0.265c-0.034-0.161-0.046-0.322-0.046-0.483c0-0.172,0.023-0.379,0.069-0.541
	c0.472,0.172,1.162,0.288,1.668,0.288c0.667,0,1.185-0.219,1.185-0.817c0-0.506-0.38-0.679-1.208-0.943
	c-1.243-0.403-1.726-0.92-1.726-1.76c0-1.174,1.127-1.703,2.243-1.703c0.438,0,1.07,0.081,1.427,0.196
	c0.046,0.138,0.069,0.299,0.069,0.449c0,0.172-0.034,0.38-0.081,0.541c-0.437-0.115-0.874-0.184-1.346-0.184
	c-0.656,0-1.047,0.196-1.047,0.633c0,0.449,0.483,0.61,1.185,0.863c1.013,0.356,1.691,0.679,1.691,1.829
	C-344.62-81.911-345.632-81.232-346.84-81.232z"/>
<path fill="#252525" d="M-525.204,27.036c1.988-0.53,3.91-0.95,5.89-0.716c0.827,0.099,1.677,0.334,2.425,0.697
	c1.247,0.605,1.551,1.723,0.828,2.896c-0.819,1.327-1.962,2.345-3.387,3.003c-0.179,0.082-0.52,0.018-0.686-0.109
	c-1.513-1.154-2.815-2.521-3.927-4.066C-524.444,28.209-524.793,27.652-525.204,27.036 M-507.544-3.79
	c2.038,0.009,4.028,0.32,5.989,0.88c0.704,0.201,1.208,0.593,1.632,1.145c0.932,1.212,1.154,2.638,1.278,4.109
	c0.098,1.156-0.248,2.116-1.033,2.952c-0.453,0.483-0.878,0.993-1.306,1.499c-1.108,1.31-1.798,2.809-1.878,4.533
	c-0.077,1.644-0.058,3.292-0.111,4.938c-0.061,1.883-0.574,3.629-1.774,5.11c-0.905,1.117-2.296,1.054-3.111-0.13
	c-0.296-0.43-0.548-0.922-0.683-1.422c-0.311-1.148-0.633-2.307-0.776-3.483c-0.222-1.82-0.996-3.259-2.459-4.361
	c-0.557-0.42-1.081-0.898-1.558-1.408c-1.991-2.126-3.374-4.485-3.051-7.576c0.178-1.704,0.331-3.395,1.16-4.93
	c0.135-0.252,0.412-0.496,0.679-0.597C-512.293-3.385-509.951-3.773-507.544-3.79 M-518.688-0.417
	c-0.019,0.125-0.026,0.179-0.036,0.234c-0.389,2.116-0.685,4.267-0.188,6.375c0.651,2.762,2.217,5.03,4.306,6.941
	c0.67,0.613,1.337,1.233,1.96,1.893c0.219,0.232,0.35,0.58,0.436,0.898c0.127,0.473,0.173,0.968,0.262,1.452
	c0.313,1.696,0.639,3.392,1.5,4.918c1.831,3.245,5.933,3.519,8.061,0.466c0.732-1.051,1.243-2.293,1.67-3.512
	c0.643-1.835,0.546-3.78,0.465-5.69c-0.099-2.359,0.477-4.424,2.271-6.054c0.083-0.076,0.146-0.174,0.223-0.257
	c1.526-1.63,2.12-3.544,1.76-5.753c-0.097-0.599-0.17-1.202-0.261-1.847c8.878,5.684,12.208,18.027,6.152,27.792
	c-6.369,10.268-18.917,11.848-26.921,7.309c0.155-0.123,0.298-0.234,0.439-0.35c1.108-0.9,2.163-1.848,2.869-3.117
	c1.527-2.744,0.64-5.543-2.203-6.881c-1.707-0.804-3.524-0.982-5.383-0.846c-1.736,0.127-3.468,0.285-5.092,0.975
	C-530.127,15.962-527.185,4.919-518.688-0.417 M-507.585-6.514c-12.654-0.027-23.109,10.428-23.132,23.131
	c-0.023,12.813,10.354,23.239,23.158,23.268c12.793,0.029,23.228-10.38,23.241-23.183C-484.305,3.883-494.698-6.487-507.585-6.514"
	/>
<path fill="#252525" d="M-499.787,52.127h-15.459c0.205-0.693,0.396-1.342,0.588-1.99h14.283
	C-500.183,50.787-499.992,51.434-499.787,52.127 M-508.902,45.385v2.008h-0.59c-1.99,0-3.98-0.002-5.971,0
	c-0.945,0-1.367,0.322-1.634,1.246c-0.415,1.436-0.829,2.871-1.233,4.311c-0.311,1.105,0.31,1.945,1.443,1.947
	c6.255,0.002,12.509,0.002,18.764-0.002c1.101,0,1.726-0.844,1.426-1.912c-0.404-1.439-0.815-2.877-1.233-4.311
	c-0.267-0.92-0.748-1.279-1.686-1.279c-1.953-0.002-3.905,0-5.857,0h-0.647v-2.055c0.928-0.105,1.868-0.17,2.794-0.324
	c9.613-1.604,16.743-6.715,21.311-15.308c2.619-4.927,3.608-10.248,3.01-15.786c-0.998-9.229-5.459-16.389-13.219-21.489
	c-0.49-0.323-1.006-0.446-1.551-0.146c-1.04,0.571-1.039,1.742,0.019,2.411c2.904,1.836,5.378,4.131,7.354,6.939
	c3.587,5.099,5.297,10.777,4.699,16.99c-1.04,10.779-6.687,18.297-16.715,22.305c-6.315,2.523-12.743,2.252-19.06-0.309
	c-0.373-0.15-0.802-0.266-1.195-0.238c-0.593,0.039-1.043,0.568-1.11,1.129c-0.071,0.592,0.255,1.236,0.878,1.443
	c1.917,0.639,3.832,1.301,5.788,1.795C-511.769,45.094-510.354,45.176-508.902,45.385"/>
<g>
	<path fill="#AB9245" d="M173.607,234.494h-67.651c-1.426-3.328-1.901-7.447-1.901-11.09c0-1.902,0.158-4.279,0.475-5.863
		c11.09-11.248,22.973-23.922,33.429-35.646c7.763-8.715,13.943-16.795,13.943-25.666c0-7.764-5.387-12.2-14.893-12.2
		c-6.972,0-18.062,2.376-28.36,7.288c-0.634-2.693-1.268-7.446-1.268-11.248c0-1.901,0.317-5.704,0.951-8.239
		c7.763-3.327,20.279-6.337,32.479-6.337c18.062,0,33.904,8.396,33.904,27.884c0,17.109-9.188,28.676-28.833,49.271
		c-3.803,4.119-7.922,8.08-12.041,12.357h40.083c0.475,2.061,0.791,6.021,0.791,9.824
		C174.715,227.998,174.24,232.275,173.607,234.494z"/>
</g>
<g>
	<path fill="#AB9245" d="M189.389,150.606c-6.785,0-8.938-4.959-8.938-10.831c0-5.938,2.414-10.7,9.068-10.7
		c6.785,0,8.939,4.958,8.939,10.831C198.459,145.843,196.045,150.606,189.389,150.606z M191.15,175.205
		c-2.088-0.523-4.371-2.023-5.414-3.197l27.207-43.39c2.219,0.522,4.111,1.566,5.742,3.001L191.15,175.205z M189.389,134.425
		c-2.674,0-2.871,3.393-2.871,5.48s0.393,5.351,3.002,5.351s2.871-3.393,2.871-5.481S192,134.425,189.389,134.425z M214.184,175.66
		c-6.787,0-8.939-4.957-8.939-10.83c0-5.938,2.414-10.701,9.068-10.701c6.787,0,8.939,4.959,8.939,10.832
		C223.252,170.898,220.838,175.66,214.184,175.66z M214.184,159.48c-2.676,0-2.871,3.393-2.871,5.48s0.391,5.35,3,5.35
		c2.611,0,2.871-3.393,2.871-5.48S216.793,159.48,214.184,159.48z"/>
</g>
<g>
	<path fill="#252525" d="M106.522,257.199c-3.007,0-4.918-1.932-4.918-5.355c0-3.406,1.892-5.416,4.918-5.416
		s4.918,1.99,4.918,5.395C111.441,255.229,109.549,257.199,106.522,257.199z M106.522,248.578c-1.294,0-2.091,0.875-2.091,3.244
		c0,2.371,0.796,3.227,2.091,3.227s2.091-0.855,2.091-3.227C108.613,249.434,107.817,248.578,106.522,248.578z"/>
	<path fill="#252525" d="M119.728,244.475c-0.438-0.139-0.956-0.219-1.474-0.219c-1.155,0-1.752,0.617-1.752,1.951v0.418h2.549
		c0.1,0.34,0.12,0.797,0.12,1.016c0,0.24-0.04,0.678-0.1,1.037h-2.569V257c-0.279,0.061-0.936,0.1-1.354,0.1
		c-0.338,0-1.115-0.039-1.394-0.1v-8.322h-1.693c-0.08-0.24-0.139-0.717-0.139-0.957c0-0.338,0.06-0.756,0.159-0.975l1.673-0.121
		v-0.297c0-2.67,1.374-4.104,3.982-4.104c0.617,0,1.493,0.141,2.091,0.359c0.08,0.238,0.1,0.598,0.1,0.875
		C119.927,243.758,119.848,244.156,119.728,244.475z"/>
	<path fill="#252525" d="M133.631,252.998c0,2.967-1.394,4.201-4.5,4.201c-3.026,0-4.42-1.234-4.42-4.201v-6.373
		c0.279-0.039,0.816-0.098,1.354-0.098c0.478,0,1.075,0.039,1.394,0.098v6.354c0,1.553,0.458,2.109,1.712,2.109
		c1.274,0,1.712-0.557,1.712-2.109v-6.354c0.278-0.059,0.896-0.098,1.394-0.098c0.498,0,1.155,0.059,1.354,0.098V252.998z"/>
	<path fill="#252525" d="M144.805,257c-0.318,0.08-0.995,0.1-1.314,0.1c-0.338,0-1.115-0.039-1.434-0.1v-6.811
		c0-1.074-0.558-1.533-1.453-1.533c-0.717,0-1.533,0.26-2.171,0.658V257c-0.458,0.08-1.095,0.1-1.453,0.1
		c-0.319,0-0.896-0.02-1.295-0.1v-10.375c0.259-0.059,0.896-0.098,1.195-0.098c0.278,0,0.855,0.039,1.154,0.098l0.14,0.916
		c0.896-0.656,2.19-1.113,3.346-1.113c2.19,0,3.285,1.354,3.285,3.623V257z"/>
	<path fill="#252525" d="M148.374,245.49c-0.837,0-1.514-0.676-1.514-1.512c0-0.838,0.677-1.514,1.514-1.514
		c0.836,0,1.514,0.676,1.514,1.514C149.887,244.814,149.209,245.49,148.374,245.49z M149.748,257c-0.358,0.08-1.096,0.1-1.414,0.1
		c-0.478,0-0.995-0.039-1.334-0.1v-10.375c0.438-0.059,0.976-0.098,1.334-0.098c0.479,0,0.976,0.039,1.414,0.098V257z"/>
	<path fill="#252525" d="M160.223,249.672L157.236,257c-0.199,0.041-0.717,0.1-1.234,0.1c-0.537,0-1.115-0.059-1.354-0.1
		l-2.869-7.367c-0.377-0.996-0.557-1.971-0.557-3.008c0.357-0.059,0.855-0.098,1.273-0.098c0.578,0,0.977,0.039,1.295,0.098
		c0,0.738,0.1,1.555,0.359,2.33l1.832,5.258h0.039l1.893-5.258c0.258-0.775,0.357-1.453,0.357-2.33
		c0.279-0.039,0.877-0.098,1.314-0.098s0.896,0.039,1.215,0.098C160.801,247.74,160.602,248.756,160.223,249.672z"/>
	<path fill="#252525" d="M170.621,252.779h-6.293c0.039,1.295,0.936,2.25,2.668,2.25c0.936,0,1.893-0.119,2.709-0.338
		c0.119,0.537,0.199,1.135,0.199,1.672c0,0.08,0,0.18-0.02,0.398c-1.016,0.299-2.072,0.438-3.107,0.438
		c-3.783,0-5.355-2.17-5.355-5.336c0-2.768,1.553-5.436,4.918-5.436c3.186,0,4.34,2.35,4.34,4.938
		C170.68,251.723,170.68,252.262,170.621,252.779z M167.932,250.809c0-1.256-0.338-2.311-1.633-2.311
		c-1.234,0-1.891,0.975-1.971,2.311H167.932z"/>
	<path fill="#252525" d="M178.072,248.736c-1.035,0.16-2.15,0.518-3.146,1.035V257c-0.279,0.061-0.877,0.1-1.354,0.1
		c-0.479,0-1.176-0.039-1.395-0.1v-10.375c0.299-0.039,0.797-0.098,1.195-0.098c0.338,0,0.875,0.039,1.154,0.098l0.158,1.275
		c0.738-0.656,2.072-1.373,3.365-1.473c0.041,0.158,0.08,0.736,0.08,1.154C178.131,247.98,178.111,248.457,178.072,248.736z"/>
	<path fill="#252525" d="M182.295,257.199c-1.174,0-2.408-0.18-3.365-0.498c-0.059-0.299-0.078-0.676-0.078-1.074
		c0-0.318,0.078-0.777,0.158-1.057c0.916,0.32,2.23,0.539,3.008,0.539c1.074,0,1.691-0.359,1.691-1.096
		c0-0.637-0.498-0.936-1.811-1.354c-2.092-0.658-3.068-1.633-3.068-3.146c0-2.25,2.072-3.086,4.043-3.086
		c0.916,0,1.932,0.158,2.629,0.377c0.08,0.299,0.119,0.717,0.119,0.957c0,0.258-0.08,0.795-0.18,1.135
		c-0.676-0.199-1.613-0.359-2.389-0.359c-0.957,0-1.613,0.24-1.613,0.836c0,0.639,0.736,0.896,1.893,1.275
		c2.01,0.656,2.967,1.494,2.967,3.066C186.299,256.145,184.348,257.199,182.295,257.199z"/>
	<path fill="#252525" d="M189.348,245.49c-0.836,0-1.514-0.676-1.514-1.512c0-0.838,0.678-1.514,1.514-1.514
		s1.514,0.676,1.514,1.514C190.861,244.814,190.184,245.49,189.348,245.49z M190.721,257c-0.357,0.08-1.096,0.1-1.414,0.1
		c-0.477,0-0.994-0.039-1.334-0.1v-10.375c0.439-0.059,0.977-0.098,1.334-0.098c0.479,0,0.977,0.039,1.414,0.098V257z"/>
	<path fill="#252525" d="M199.523,256.801c-0.598,0.24-1.314,0.398-2.469,0.398c-2.25,0-3.365-1.096-3.365-3.285v-5.236h-1.713
		c-0.078-0.299-0.139-0.797-0.139-1.057c0-0.238,0.061-0.676,0.119-0.875l1.732-0.121v-2.668c0.219-0.039,0.916-0.078,1.375-0.078
		c0.496,0,1.115,0.039,1.373,0.078v2.668h2.867c0.08,0.279,0.119,0.678,0.119,0.896c0,0.24-0.02,0.877-0.1,1.156h-2.887v4.838
		c0,0.996,0.398,1.434,1.375,1.434c0.537,0,1.193-0.08,1.652-0.238c0.08,0.258,0.178,0.756,0.178,1.215
		C199.643,256.164,199.604,256.582,199.523,256.801z"/>
	<path fill="#252525" d="M202.594,245.49c-0.836,0-1.514-0.676-1.514-1.512c0-0.838,0.678-1.514,1.514-1.514
		s1.514,0.676,1.514,1.514C204.107,244.814,203.43,245.49,202.594,245.49z M203.967,257c-0.357,0.08-1.096,0.1-1.414,0.1
		c-0.477,0-0.994-0.039-1.334-0.1v-10.375c0.439-0.059,0.977-0.098,1.334-0.098c0.479,0,0.977,0.039,1.414,0.098V257z"/>
	<path fill="#252525" d="M214.801,252.779h-6.291c0.039,1.295,0.936,2.25,2.668,2.25c0.936,0,1.891-0.119,2.707-0.338
		c0.119,0.537,0.199,1.135,0.199,1.672c0,0.08,0,0.18-0.02,0.398c-1.016,0.299-2.07,0.438-3.105,0.438
		c-3.785,0-5.357-2.17-5.357-5.336c0-2.768,1.553-5.436,4.918-5.436c3.186,0,4.342,2.35,4.342,4.938
		C214.861,251.723,214.861,252.262,214.801,252.779z M212.113,250.809c0-1.256-0.338-2.311-1.633-2.311
		c-1.234,0-1.893,0.975-1.971,2.311H212.113z"/>
	<path fill="#252525" d="M219.424,257.199c-1.174,0-2.408-0.18-3.365-0.498c-0.059-0.299-0.078-0.676-0.078-1.074
		c0-0.318,0.078-0.777,0.158-1.057c0.916,0.32,2.23,0.539,3.008,0.539c1.074,0,1.691-0.359,1.691-1.096
		c0-0.637-0.498-0.936-1.811-1.354c-2.092-0.658-3.068-1.633-3.068-3.146c0-2.25,2.072-3.086,4.043-3.086
		c0.916,0,1.932,0.158,2.629,0.377c0.08,0.299,0.119,0.717,0.119,0.957c0,0.258-0.08,0.795-0.18,1.135
		c-0.676-0.199-1.613-0.359-2.389-0.359c-0.957,0-1.613,0.24-1.613,0.836c0,0.639,0.736,0.896,1.893,1.275
		c2.01,0.656,2.967,1.494,2.967,3.066C223.428,256.145,221.477,257.199,219.424,257.199z"/>
</g>
<g>
	<path fill="#252525" d="M103.715,266.738c-0.836,0-1.514-0.678-1.514-1.514s0.677-1.514,1.514-1.514s1.513,0.678,1.513,1.514
		S104.551,266.738,103.715,266.738z M105.089,278.248c-0.358,0.08-1.095,0.1-1.414,0.1c-0.478,0-0.996-0.041-1.334-0.1v-10.375
		c0.438-0.061,0.976-0.1,1.334-0.1c0.478,0,0.976,0.039,1.414,0.1V278.248z"/>
	<path fill="#252525" d="M116.44,278.248c-0.318,0.08-0.996,0.1-1.314,0.1c-0.339,0-1.115-0.041-1.434-0.1v-6.811
		c0-1.076-0.557-1.533-1.454-1.533c-0.717,0-1.533,0.258-2.17,0.656v7.688c-0.458,0.08-1.095,0.1-1.454,0.1
		c-0.318,0-0.896-0.02-1.294-0.1v-10.375c0.259-0.061,0.896-0.1,1.195-0.1c0.279,0,0.856,0.039,1.155,0.1l0.139,0.916
		c0.896-0.656,2.19-1.115,3.345-1.115c2.19,0,3.286,1.354,3.286,3.625V278.248z"/>
	<path fill="#252525" d="M129.169,278.049c-0.597,0.238-1.314,0.398-2.469,0.398c-2.25,0-3.365-1.096-3.365-3.287v-5.236h-1.712
		c-0.08-0.299-0.139-0.797-0.139-1.055c0-0.24,0.06-0.678,0.119-0.877l1.732-0.119v-2.668c0.219-0.041,0.916-0.08,1.374-0.08
		c0.498,0,1.115,0.039,1.374,0.08v2.668h2.868c0.08,0.279,0.119,0.678,0.119,0.896c0,0.238-0.02,0.875-0.1,1.154h-2.887v4.84
		c0,0.994,0.398,1.434,1.374,1.434c0.538,0,1.195-0.08,1.653-0.24c0.08,0.26,0.179,0.758,0.179,1.215
		C129.289,277.412,129.249,277.83,129.169,278.049z"/>
	<path fill="#252525" d="M139.905,271.299v6.949c-0.318,0.08-0.995,0.1-1.313,0.1c-0.339,0-1.115-0.041-1.435-0.1v-6.791
		c0-1.074-0.558-1.553-1.453-1.553c-0.717,0-1.593,0.258-2.23,0.656v7.688c-0.458,0.08-1.095,0.1-1.453,0.1
		c-0.319,0-0.896-0.02-1.295-0.1V263.73c0.259-0.059,0.837-0.1,1.334-0.1c0.498,0,1.115,0.041,1.414,0.1v4.879
		c0.876-0.557,2.091-0.936,3.146-0.936C138.81,267.674,139.905,269.027,139.905,271.299z"/>
	<path fill="#252525" d="M150.542,274.025h-6.292c0.039,1.295,0.936,2.25,2.668,2.25c0.936,0,1.892-0.119,2.708-0.338
		c0.119,0.537,0.199,1.135,0.199,1.672c0,0.08,0,0.18-0.02,0.398c-1.016,0.299-2.071,0.439-3.106,0.439
		c-3.784,0-5.356-2.172-5.356-5.338c0-2.768,1.553-5.436,4.918-5.436c3.186,0,4.341,2.35,4.341,4.938
		C150.602,272.971,150.602,273.508,150.542,274.025z M147.854,272.055c0-1.254-0.338-2.311-1.633-2.311
		c-1.234,0-1.892,0.977-1.971,2.311H147.854z"/>
	<path fill="#252525" d="M166.736,278.248c-0.24,0.059-0.957,0.1-1.355,0.1c-0.418,0-1.035-0.041-1.254-0.1l-1.594-6.631h-0.039
		l-1.613,6.631c-0.199,0.039-0.955,0.1-1.314,0.1c-0.457,0-1.215-0.061-1.373-0.1l-2.191-7.328
		c-0.277-0.936-0.457-2.092-0.477-3.047c0.318-0.061,0.756-0.1,1.234-0.1c0.438,0,1.035,0.061,1.295,0.1
		c0,0.777,0.139,1.752,0.357,2.668l1.176,4.68h0.039l1.932-7.348c0.219-0.039,0.518-0.08,1.016-0.08c0.418,0,0.736,0.041,0.996,0.08
		l1.811,7.348h0.041l1.393-4.68c0.24-0.896,0.398-1.891,0.398-2.668c0.26-0.039,0.857-0.1,1.295-0.1c0.479,0,0.877,0.039,1.195,0.1
		c-0.02,1.035-0.16,1.812-0.459,2.729L166.736,278.248z"/>
	<path fill="#252525" d="M175.203,278.447c-3.006,0-4.918-1.932-4.918-5.357c0-3.404,1.893-5.416,4.918-5.416
		c3.027,0,4.918,1.992,4.918,5.396S178.23,278.447,175.203,278.447z M175.203,269.824c-1.293,0-2.09,0.877-2.09,3.246
		s0.797,3.227,2.09,3.227c1.295,0,2.092-0.857,2.092-3.227C177.295,270.682,176.498,269.824,175.203,269.824z"/>
	<path fill="#252525" d="M187.514,269.984c-1.035,0.158-2.15,0.518-3.146,1.035v7.229c-0.279,0.059-0.877,0.1-1.354,0.1
		c-0.479,0-1.176-0.041-1.395-0.1v-10.375c0.299-0.039,0.797-0.1,1.195-0.1c0.338,0,0.875,0.039,1.154,0.1l0.158,1.273
		c0.738-0.656,2.072-1.373,3.365-1.473c0.041,0.16,0.08,0.736,0.08,1.154C187.572,269.227,187.553,269.705,187.514,269.984z"/>
	<path fill="#252525" d="M191.857,278.248c-0.359,0.08-1.096,0.1-1.414,0.1c-0.479,0-0.996-0.041-1.334-0.1V263.73
		c0.438-0.059,0.975-0.1,1.334-0.1c0.479,0,1.035,0.041,1.414,0.1V278.248z"/>
	<path fill="#252525" d="M202.791,278.248c-0.318,0.059-0.857,0.1-1.275,0.1c-0.379,0-0.816-0.041-1.096-0.1l-0.078-0.916
		c-0.717,0.697-1.633,1.115-2.709,1.115c-2.967,0-4.24-2.371-4.24-5.217c0-3.068,1.373-5.557,4.539-5.557
		c0.777,0,1.672,0.238,2.111,0.518v-4.461c0.357-0.059,0.955-0.1,1.393-0.1c0.539,0,0.957,0.061,1.355,0.1V278.248z
		 M200.043,270.242c-0.479-0.219-1.096-0.338-1.613-0.338c-1.613,0-2.211,1.434-2.211,3.166c0,1.453,0.359,3.105,1.973,3.105
		c0.775,0,1.373-0.318,1.852-0.717V270.242z"/>
</g>
<g>
	<path fill="#AB9245" d="M124.882,83.928h-8.169v25.284c-0.867,0.137-2.1,0.228-3.241,0.228c-1.141,0-2.373-0.091-3.286-0.228
		V83.928h-8.169c-0.183-0.593-0.32-2.008-0.32-2.784s0.183-2.191,0.365-2.784h22.82c0.182,0.593,0.319,2.008,0.319,2.784
		S125.064,83.335,124.882,83.928z"/>
	<path fill="#AB9245" d="M135.062,109.669c-6.892,0-11.273-4.427-11.273-12.277c0-7.805,4.336-12.414,11.273-12.414
		c6.938,0,11.272,4.564,11.272,12.368S142,109.669,135.062,109.669z M135.062,89.907c-2.967,0-4.792,2.008-4.792,7.439
		s1.825,7.394,4.792,7.394s4.792-1.962,4.792-7.394C139.854,91.87,138.029,89.907,135.062,89.907z"/>
	<path fill="#AB9245" d="M160.533,109.212c-1.416,0-3.332-0.228-4.473-0.548v11.273c-0.822,0.137-2.191,0.228-3.195,0.228
		c-1.232,0-2.191-0.137-3.103-0.228V85.48c0.729-0.137,1.962-0.228,2.921-0.228c0.865,0,1.824,0.091,2.463,0.228l0.229,1.962
		c1.461-1.369,4.107-2.464,6.572-2.464c6.527,0,9.447,5.34,9.447,11.456C171.395,103.507,167.744,109.212,160.533,109.212z
		 M160.623,90.09c-1.688,0-3.467,0.685-4.562,1.688v12.094c0.867,0.274,2.555,0.457,3.742,0.457c3.377,0,5.111-2.784,5.111-7.394
		C164.914,92.417,163.271,90.09,160.623,90.09z"/>
</g>
<path fill="#252525" d="M163.002,27.764L150.1,34.646c-0.11,0.06-0.232,0.088-0.354,0.088c-0.128,0-0.258-0.034-0.374-0.099
	l-15.532-8.876c-0.231-0.134-0.494-0.206-0.76-0.206c-0.553,0-1.066,0.3-1.343,0.782c-0.421,0.737-0.164,1.682,0.575,2.105
	l13.02,7.439c0.238,0.136,0.385,0.389,0.38,0.665c-0.002,0.275-0.156,0.525-0.398,0.656l-11.88,6.334
	c-0.112,0.06-0.234,0.091-0.355,0.091c-0.122,0-0.244-0.031-0.354-0.091l-29.57-15.77c-0.246-0.13-0.399-0.386-0.399-0.665
	s0.153-0.534,0.399-0.665l29.57-15.769c0.11-0.06,0.232-0.089,0.354-0.089c0.121,0,0.243,0.029,0.355,0.089l29.569,15.769
	c0.244,0.131,0.399,0.386,0.399,0.665S163.246,27.634,163.002,27.764 M152.204,63.848v6.888c0,0.417-0.338,0.755-0.754,0.755h-4.593
	c-0.416,0-0.754-0.338-0.754-0.755v-6.888c0-1.684,1.369-3.053,3.052-3.053C150.835,60.795,152.204,62.164,152.204,63.848
	 M131.535,55.387c0,0.264-0.142,0.511-0.369,0.648c-0.118,0.071-0.252,0.105-0.387,0.105c-0.123,0-0.247-0.031-0.36-0.091
	L109.75,44.772c-0.243-0.133-0.392-0.386-0.392-0.662v-8.283c0-0.264,0.138-0.508,0.365-0.645c0.119-0.074,0.254-0.108,0.388-0.108
	c0.122,0,0.243,0.028,0.355,0.088l20.669,11.023c0.245,0.13,0.4,0.386,0.4,0.665V55.387z M168.254,25.738L133.805,7.366
	c-0.223-0.119-0.476-0.182-0.728-0.182c-0.253,0-0.504,0.062-0.727,0.18l-34.45,18.373c-0.505,0.269-0.816,0.79-0.816,1.362
	s0.312,1.094,0.816,1.363l8.083,4.312c0.126,0.065,0.22,0.17,0.288,0.287v0.929v0.878v10.606c0,0.565,0.308,1.085,0.804,1.354
	l25.229,13.762c0.041,0.014,0.084,0.028,0.13,0.051c0.025,0.011,0.049,0.02,0.076,0.028c0.001,0,0.034,0.011,0.037,0.014
	c0.204,0.077,0.378,0.111,0.529,0.111c0.15,0,0.325-0.034,0.524-0.111l0.05-0.017c0.024-0.008,0.047-0.017,0.069-0.025
	c0.04-0.02,0.081-0.034,0.129-0.051l8.387-4.573c0.362-0.199,0.628-0.523,0.744-0.92c0.116-0.395,0.071-0.81-0.127-1.173
	c-0.271-0.494-0.791-0.804-1.355-0.804c-0.259,0-0.508,0.065-0.737,0.188l-5.026,2.741c-0.113,0.062-0.237,0.091-0.36,0.091
	c-0.134,0-0.266-0.034-0.385-0.105c-0.229-0.137-0.368-0.384-0.368-0.648v-8.535c0-0.278,0.152-0.534,0.397-0.665l11.483-6.124
	c0.112-0.06,0.233-0.088,0.355-0.088c0.135,0,0.269,0.034,0.388,0.108c0.228,0.136,0.366,0.38,0.366,0.645v16.653
	c0,0.318-0.2,0.602-0.501,0.71c-2.448,0.872-4.093,3.184-4.093,5.757v9.186c0,0.849,0.692,1.542,1.543,1.542h9.187
	c0.851,0,1.543-0.693,1.543-1.542v-9.186c0-2.573-1.645-4.885-4.093-5.757c-0.301-0.108-0.501-0.392-0.501-0.71V38.279
	c0-0.278,0.154-0.534,0.4-0.665l4.592-2.451c0.112-0.06,0.232-0.088,0.354-0.088c0.135,0,0.27,0.034,0.39,0.108
	c0.226,0.136,0.366,0.38,0.366,0.645v8.283c0,0.275-0.152,0.528-0.394,0.662l-1.101,0.599c-0.747,0.409-1.024,1.349-0.616,2.096
	c0.271,0.494,0.791,0.801,1.357,0.801c0.262,0,0.51-0.062,0.737-0.188l2.295-1.253c0.498-0.272,0.807-0.79,0.807-1.354V34.516V33.99
	v-0.929c0.068-0.116,0.159-0.221,0.285-0.287l8.084-4.312c0.503-0.27,0.816-0.791,0.816-1.363S168.757,26.006,168.254,25.738"/>
<path fill="#252525" d="M-263.161-129.633c1.802,0.004,3.261,1.498,3.263,3.348c-0.002,1.848-1.461,3.345-3.263,3.347
	c-1.803-0.002-3.264-1.499-3.266-3.347C-266.425-128.135-264.964-129.629-263.161-129.633 M-263.161-120.705
	c3.004-0.002,5.44-2.497,5.44-5.58c0-3.084-2.436-5.58-5.44-5.58c-3.007,0-5.443,2.496-5.443,5.58
	C-268.604-123.202-266.168-120.707-263.161-120.705 M-256.632-100.824v-12.069c0-0.617-0.488-1.115-1.087-1.115
	c-0.601,0-1.09,0.498-1.089,1.115v27.898h-3.266v-16.738c0.001-0.619-0.487-1.117-1.089-1.117c-0.601,0-1.087,0.498-1.087,1.117
	v16.738h-3.267v-27.898c0-0.617-0.486-1.115-1.087-1.115s-1.088,0.498-1.088,1.115l-0.001,12.069
	c-1.264-0.462-2.175-1.686-2.178-3.141v-11.161c0-1.201,0.754-2.28,1.861-2.66l2.161-0.566l3.917,4.015
	c0.205,0.21,0.479,0.328,0.77,0.328s0.564-0.118,0.77-0.328l3.916-4.015l2.162,0.566c1.104,0.38,1.862,1.459,1.86,2.66v11.161
	C-254.457-102.511-255.368-101.287-256.632-100.824 M-274.046-103.965c-0.004,1.455-0.914,2.679-2.179,3.141v-12.069
	c0-0.617-0.487-1.115-1.088-1.115s-1.087,0.498-1.087,1.115v27.898h-3.267v-16.738c0-0.619-0.486-1.117-1.087-1.117
	c-0.602,0-1.09,0.498-1.089,1.117v16.738h-3.268l0.003-27.898c0-0.617-0.489-1.115-1.09-1.115c-0.601,0-1.087,0.498-1.087,1.115
	v12.069c-1.265-0.464-2.175-1.687-2.179-3.141v-11.161c0-1.201,0.755-2.28,1.861-2.66l2.161-0.566l3.917,4.015
	c0.205,0.21,0.479,0.328,0.77,0.328s0.565-0.118,0.77-0.328l3.917-4.015l2.161,0.566c1.106,0.38,1.861,1.459,1.861,2.66V-103.965z
	 M-293.639-103.965c-0.003,1.454-0.913,2.678-2.178,3.141v-12.069c0-0.617-0.488-1.115-1.087-1.115
	c-0.601,0-1.089,0.498-1.089,1.115v27.898h-3.266v-16.738c0-0.619-0.487-1.117-1.089-1.117c-0.601,0-1.088,0.498-1.088,1.117v16.738
	h-3.266v-27.898c0-0.617-0.486-1.115-1.087-1.115s-1.088,0.498-1.088,1.115l-0.001,12.069c-1.264-0.464-2.175-1.687-2.178-3.141
	v-11.161c0-1.199,0.753-2.276,1.853-2.658l2.169-0.568l3.916,4.015c0.205,0.21,0.479,0.328,0.77,0.328s0.565-0.118,0.77-0.328
	l3.916-4.015l2.162,0.566c1.106,0.38,1.861,1.459,1.861,2.66V-103.965z M-255.647-119.911l-0.071-0.022l-2.822-0.738
	c-0.373-0.097-0.766,0.013-1.039,0.292l-3.583,3.674l-3.586-3.674c-0.271-0.279-0.664-0.389-1.037-0.292l-2.822,0.738l-0.072,0.022
	c-0.925,0.314-1.7,0.9-2.28,1.642c-0.579-0.742-1.356-1.328-2.281-1.642l-0.071-0.022l-2.822-0.738
	c-0.372-0.097-0.765,0.013-1.039,0.292l-3.583,3.674l-3.583-3.674c-0.274-0.279-0.667-0.389-1.039-0.292l-2.822,0.738l-0.071,0.022
	c-0.926,0.314-1.702,0.9-2.281,1.642c-0.58-0.742-1.356-1.328-2.28-1.642l-0.073-0.022l-2.821-0.738
	c-0.373-0.097-0.766,0.013-1.038,0.292l-3.585,3.674l-3.583-3.674c-0.273-0.279-0.666-0.389-1.039-0.292l-2.82,0.738l-0.073,0.022
	c-2.012,0.683-3.366,2.615-3.369,4.785v11.161c0,2.699,1.869,4.949,4.354,5.466v14.62c0,0.299,0.114,0.577,0.32,0.788
	c0.205,0.211,0.477,0.327,0.769,0.327h10.885c0.29,0,0.564-0.116,0.769-0.327c0.206-0.211,0.318-0.491,0.318-0.788v-14.62
	c1.336-0.279,2.481-1.069,3.266-2.15c0.785,1.081,1.929,1.871,3.266,2.15v14.62c0,0.299,0.112,0.577,0.318,0.788
	c0.205,0.211,0.479,0.327,0.769,0.327h10.885c0.29,0,0.564-0.116,0.769-0.327c0.206-0.211,0.319-0.491,0.319-0.788v-14.62
	c1.336-0.278,2.481-1.069,3.267-2.15c0.785,1.081,1.929,1.872,3.265,2.15v14.62c0,0.299,0.114,0.577,0.32,0.788
	c0.205,0.211,0.477,0.327,0.769,0.327h10.885c0.29,0,0.564-0.116,0.769-0.327c0.206-0.211,0.318-0.491,0.318-0.788v-14.62
	c2.484-0.517,4.354-2.767,4.354-5.466v-11.161C-252.278-117.296-253.633-119.228-255.647-119.911 M-272.959-138.561
	c1.803,0.005,3.263,1.499,3.265,3.347c-0.002,1.851-1.462,3.346-3.265,3.348c-1.803-0.002-3.263-1.497-3.265-3.348
	C-276.222-137.062-274.762-138.556-272.959-138.561 M-272.959-129.633c3.006-0.002,5.442-2.497,5.442-5.581
	s-2.436-5.579-5.442-5.579c-3.005,0-5.442,2.495-5.442,5.579S-275.964-129.635-272.959-129.633 M-292.552-138.561
	c1.803,0.005,3.263,1.499,3.265,3.347c-0.002,1.851-1.462,3.346-3.265,3.348c-1.803-0.002-3.261-1.497-3.265-3.348
	C-295.813-137.062-294.355-138.556-292.552-138.561 M-292.552-129.633c3.006-0.002,5.442-2.497,5.444-5.581
	c-0.002-3.084-2.438-5.579-5.444-5.579c-3.006,0-5.442,2.495-5.442,5.579S-295.558-129.635-292.552-129.633 M-302.347-129.633
	c1.803,0.004,3.262,1.498,3.264,3.348c-0.002,1.848-1.461,3.345-3.264,3.347c-1.802-0.002-3.262-1.499-3.266-3.347
	C-305.609-128.135-304.149-129.629-302.347-129.633 M-302.347-120.705c3.004-0.002,5.441-2.497,5.443-5.58
	c-0.002-3.084-2.439-5.58-5.443-5.58c-3.007,0-5.443,2.496-5.443,5.58C-307.79-123.202-305.354-120.707-302.347-120.705
	 M-282.754-129.633c1.802,0.004,3.262,1.498,3.264,3.348c-0.002,1.848-1.462,3.345-3.264,3.347
	c-1.803-0.002-3.262-1.499-3.266-3.347C-286.016-128.135-284.557-129.629-282.754-129.633 M-282.754-120.705
	c3.004-0.002,5.44-2.497,5.44-5.58c0-3.084-2.436-5.58-5.44-5.58c-3.007,0-5.443,2.496-5.443,5.58
	C-288.197-123.202-285.761-120.707-282.754-120.705"/>
<path fill="#252525" d="M-431.326,34.303L-431.326,34.303c-0.887,0-1.613-0.732-1.613-1.625V14.48c0-0.894,0.726-1.626,1.613-1.626
	c0.887,0,1.613,0.732,1.613,1.626v18.198C-429.713,33.57-430.439,34.303-431.326,34.303"/>
<path fill="#252525" d="M-416.929,34.303L-416.929,34.303c-0.887,0-1.613-0.732-1.613-1.625V14.48c0-0.894,0.726-1.626,1.613-1.626
	c0.887,0,1.613,0.732,1.613,1.626v18.198C-415.316,33.57-416.042,34.303-416.929,34.303"/>
<path fill="#252525" d="M-402.533,34.303L-402.533,34.303c-0.887,0-1.613-0.732-1.613-1.625V14.48c0-0.894,0.726-1.626,1.613-1.626
	c0.887,0,1.613,0.732,1.613,1.626v18.198C-400.92,33.57-401.646,34.303-402.533,34.303"/>
<path fill="#252525" d="M-439.878,43.416L-439.878,43.416c0-0.895,0.726-1.627,1.613-1.627h42.672c0.887,0,1.613,0.732,1.613,1.627
	s-0.726,1.625-1.613,1.625h-42.672C-439.152,45.041-439.878,44.311-439.878,43.416"/>
<path fill="#252525" d="M-416.929-3.534l16.089,11.018h-32.178L-416.929-3.534z M-393.98,9.11c0-0.026-0.003-0.052-0.004-0.078
	c-0.001-0.025-0.001-0.049-0.004-0.074c-0.004-0.041-0.01-0.081-0.017-0.12c-0.002-0.012-0.003-0.024-0.005-0.035
	c-0.007-0.039-0.017-0.076-0.027-0.114c-0.004-0.014-0.007-0.028-0.011-0.041c-0.009-0.031-0.02-0.061-0.031-0.091
	c-0.007-0.022-0.014-0.043-0.023-0.064c-0.008-0.02-0.018-0.04-0.027-0.059c-0.014-0.031-0.028-0.062-0.044-0.091
	c-0.004-0.009-0.009-0.017-0.014-0.025c-0.118-0.214-0.284-0.405-0.498-0.552l-21.149-14.482c-0.333-0.228-0.722-0.312-1.095-0.267
	c-0.373-0.045-0.762,0.039-1.096,0.267l-21.148,14.482c-0.214,0.147-0.38,0.338-0.499,0.552c-0.004,0.008-0.009,0.016-0.014,0.025
	c-0.015,0.029-0.029,0.06-0.043,0.091c-0.009,0.019-0.019,0.039-0.027,0.059c-0.009,0.021-0.016,0.042-0.023,0.064
	c-0.011,0.03-0.022,0.06-0.031,0.091c-0.004,0.013-0.007,0.027-0.011,0.041c-0.01,0.037-0.02,0.075-0.027,0.114
	c-0.002,0.011-0.003,0.022-0.005,0.033c-0.007,0.041-0.014,0.081-0.017,0.122c-0.003,0.025-0.003,0.049-0.004,0.074
	c-0.001,0.026-0.004,0.052-0.004,0.078c0,0.001,0,0.003,0,0.004c0,0.315,0.089,0.633,0.277,0.912
	c0.208,0.308,0.504,0.52,0.832,0.627c0.011,0.004,0.022,0.008,0.033,0.012c0.031,0.009,0.063,0.017,0.095,0.025
	c0.021,0.005,0.042,0.011,0.063,0.015c0.027,0.005,0.054,0.008,0.08,0.012c0.026,0.004,0.052,0.009,0.078,0.011
	c0.036,0.004,0.072,0.005,0.108,0.006c0.016,0.001,0.031,0.002,0.047,0.002h42.672c0.015,0,0.031-0.001,0.047-0.002
	c0.036-0.001,0.072-0.002,0.108-0.006c0.026-0.002,0.052-0.007,0.077-0.011c0.027-0.004,0.054-0.007,0.081-0.012
	c0.021-0.004,0.042-0.01,0.063-0.015c0.032-0.008,0.063-0.016,0.095-0.025c0.011-0.004,0.022-0.008,0.033-0.012
	c0.327-0.107,0.624-0.319,0.832-0.627c0.188-0.279,0.277-0.597,0.277-0.912C-393.98,9.113-393.98,9.111-393.98,9.11"/>
<path fill="#252525" d="M-436.179,38.047L-436.179,38.047c0-0.896,0.726-1.627,1.613-1.627h35.273c0.887,0,1.613,0.73,1.613,1.627
	c0,0.895-0.726,1.625-1.613,1.625h-35.273C-435.453,39.672-436.179,38.941-436.179,38.047"/>
<g>
	<path fill="#252525" d="M104.274,294.27c-1.453-1.453-2.199-3.471-2.199-5.328c0-2.057,0.785-3.941,2.199-5.395
		c0.144,0.039,0.288,0.117,0.393,0.223c-1.218,1.559-1.754,3.365-1.754,5.145c0,1.768,0.537,3.521,1.754,5.133
		C104.562,294.15,104.418,294.23,104.274,294.27z"/>
	<path fill="#252525" d="M110.963,292.516l1.702,1.1c-0.131,0.34-0.288,0.51-0.445,0.654l-2.095-1.414
		c-0.275,0.064-0.576,0.092-0.864,0.092c-2.199,0-3.352-1.65-3.352-4.557s1.152-4.557,3.352-4.557c2.2,0,3.352,1.65,3.352,4.557
		C112.612,290.42,112.049,291.834,110.963,292.516z M109.261,284.502c-1.584,0-2.409,1.27-2.409,3.889s0.825,3.889,2.409,3.889
		c1.584,0,2.409-1.27,2.409-3.889S110.845,284.502,109.261,284.502z"/>
	<path fill="#252525" d="M116.734,292.947c-0.785,0-1.688-0.145-2.37-0.393c-0.039-0.105-0.065-0.236-0.065-0.381
		c0-0.131,0.026-0.287,0.053-0.393c0.694,0.275,1.636,0.445,2.317,0.445c1.322,0,2.017-0.59,2.017-1.676
		c0-0.955-0.511-1.387-1.479-1.74l-0.786-0.289c-1.309-0.484-2.056-1.113-2.056-2.369c0-1.467,1.166-2.318,2.815-2.318
		c0.642,0,1.296,0.092,1.885,0.25c0.04,0.078,0.052,0.209,0.052,0.326c0,0.105-0.026,0.275-0.065,0.367
		c-0.55-0.17-1.191-0.248-1.82-0.248c-0.969,0-1.951,0.34-1.951,1.57c0,0.982,0.498,1.322,1.61,1.742l0.694,0.262
		c1.205,0.457,1.977,1.072,1.977,2.355C119.562,292.162,118.384,292.947,116.734,292.947z"/>
	<path fill="#252525" d="M129.221,286.467c-0.104-0.42-0.183-0.799-0.235-1.18c-0.065,0.367-0.144,0.721-0.262,1.166l-1.623,6.363
		c-0.131,0.039-0.34,0.064-0.524,0.064c-0.183,0-0.432-0.012-0.563-0.064l-1.911-6.639c-0.223-0.732-0.314-1.479-0.328-2.213
		c0.131-0.039,0.328-0.064,0.458-0.064c0.144,0,0.275,0.025,0.432,0.064c0.013,0.695,0.091,1.363,0.275,2.029l1.348,4.793
		c0.065,0.248,0.249,0.916,0.301,1.191c0.026-0.262,0.157-0.838,0.249-1.205l1.715-6.809c0.118-0.039,0.288-0.064,0.419-0.064
		c0.144,0,0.327,0.039,0.419,0.064l1.715,6.795c0.092,0.342,0.21,0.852,0.302,1.23c0.091-0.379,0.222-0.902,0.327-1.281l1.335-4.715
		c0.184-0.666,0.288-1.334,0.301-2.029c0.132-0.039,0.275-0.064,0.433-0.064c0.131,0,0.327,0.025,0.432,0.064
		c-0.013,0.682-0.104,1.402-0.327,2.16l-1.925,6.691c-0.144,0.039-0.444,0.064-0.589,0.064c-0.131,0-0.366-0.025-0.523-0.064
		L129.221,286.467z"/>
	<path fill="#252525" d="M137.819,292.947c-1.715,0-2.814-1.18-2.814-3.535c0-2.357,1.112-3.549,2.828-3.549
		c1.715,0,2.802,1.166,2.802,3.523C140.634,291.742,139.534,292.947,137.819,292.947z M137.833,286.506
		c-1.257,0-1.938,0.969-1.938,2.893c0,1.926,0.668,2.906,1.925,2.906s1.925-0.98,1.925-2.906
		C139.744,287.475,139.089,286.506,137.833,286.506z"/>
	<path fill="#252525" d="M145.201,286.623c-0.759,0.105-1.584,0.381-2.199,0.852v5.342c-0.131,0.039-0.288,0.064-0.432,0.064
		c-0.145,0-0.288-0.025-0.419-0.064v-6.822c0.078-0.025,0.196-0.051,0.327-0.051c0.104,0,0.248,0.025,0.354,0.051l0.065,0.838h0.013
		c0.563-0.484,1.545-0.889,2.291-0.969c0.026,0.08,0.053,0.223,0.053,0.342C145.253,286.336,145.227,286.506,145.201,286.623z"/>
	<path fill="#252525" d="M147.517,292.816c-0.145,0.039-0.288,0.064-0.445,0.064c-0.131,0-0.288-0.025-0.406-0.064v-9.559
		c0.118-0.025,0.263-0.064,0.433-0.064c0.144,0,0.301,0.025,0.419,0.064V292.816z"/>
	<path fill="#252525" d="M154.152,292.881c-0.117,0-0.262-0.039-0.34-0.064l-0.078-0.785h-0.014
		c-0.562,0.588-1.23,0.916-1.977,0.916c-1.806,0-2.67-1.506-2.67-3.34c0-1.818,0.772-3.744,2.854-3.744
		c0.654,0,1.256,0.223,1.74,0.564v-3.17c0.119-0.039,0.275-0.064,0.42-0.064c0.156,0,0.314,0.039,0.432,0.064v9.559
		C154.428,292.855,154.297,292.881,154.152,292.881z M153.668,287.146c-0.471-0.393-1.072-0.588-1.688-0.588
		c-1.519,0-2.03,1.492-2.03,3.01c0,1.166,0.366,2.686,1.833,2.686c0.707,0,1.428-0.354,1.885-0.904V287.146z"/>
	<path fill="#252525" d="M165.16,292.816c-0.092,0.039-0.301,0.064-0.445,0.064c-0.156,0-0.379-0.025-0.549-0.064l-2.016-3.574
		c-0.145,0.012-0.289,0.012-0.445,0.012h-1.152v3.562c-0.105,0.039-0.314,0.064-0.459,0.064s-0.326-0.025-0.432-0.064v-8.852
		c0.576-0.025,1.283-0.064,1.924-0.064c1.887,0,3.143,0.615,3.143,2.645c0,1.244-0.59,2.146-1.729,2.514L165.16,292.816z
		 M161.744,284.555c-0.328,0-0.904,0.014-1.191,0.039v3.98h1.205c1.334,0,2.068-0.59,2.068-2.043
		C163.826,285.092,163.092,284.555,161.744,284.555z"/>
	<path fill="#252525" d="M171.352,291.141c0,0.471,0,1.061,0.025,1.676c-0.092,0.039-0.234,0.064-0.354,0.064
		c-0.104,0-0.248-0.025-0.354-0.064c-0.039-0.211-0.064-0.484-0.078-0.734h-0.014c-0.445,0.551-1.23,0.865-2.002,0.865
		c-1.219,0-2.238-0.682-2.238-2.082c0-0.799,0.326-1.389,0.838-1.754c0.576-0.406,1.334-0.537,2.146-0.537
		c0.459,0,0.838,0.025,1.178,0.078v-0.379c0-1.311-0.537-1.742-1.637-1.742c-0.615,0-1.375,0.131-1.846,0.25
		c-0.025-0.066-0.053-0.211-0.053-0.342c0-0.092,0.027-0.223,0.066-0.301c0.562-0.17,1.309-0.275,1.938-0.275
		c1.559,0,2.383,0.707,2.383,2.305V291.141z M170.5,289.295c-0.379-0.053-0.771-0.08-1.113-0.08c-0.641,0-1.217,0.119-1.609,0.42
		c-0.354,0.262-0.551,0.68-0.551,1.217c0,0.957,0.615,1.414,1.467,1.414c0.707,0,1.453-0.34,1.807-0.877V289.295z"/>
	<path fill="#252525" d="M178.523,292.828c-0.104,0.027-0.262,0.053-0.418,0.053c-0.131,0-0.301-0.025-0.432-0.064v-4.15
		c0-0.629-0.08-1.113-0.262-1.453c-0.223-0.42-0.643-0.629-1.322-0.629c-0.656,0-1.441,0.367-1.951,0.76v5.473
		c-0.145,0.039-0.289,0.064-0.445,0.064c-0.131,0-0.289-0.025-0.406-0.064v-6.822c0.092-0.039,0.248-0.051,0.34-0.051
		c0.131,0,0.289,0.012,0.367,0.051l0.066,0.682h0.012c0.721-0.59,1.545-0.812,2.213-0.812s1.361,0.223,1.742,0.682
		c0.418,0.498,0.496,1.217,0.496,1.924V292.828z"/>
	<path fill="#252525" d="M185.422,292.816c-0.092,0.025-0.289,0.064-0.434,0.064c-0.143,0-0.354-0.025-0.523-0.064l-2.225-3.51
		l-0.996,0.93v2.58c-0.131,0.039-0.301,0.064-0.457,0.064c-0.105,0-0.275-0.025-0.393-0.064v-9.559
		c0.117-0.039,0.262-0.064,0.432-0.064c0.156,0,0.287,0.025,0.418,0.064v5.984l2.213-2.068c0.471-0.445,0.707-0.838,0.773-1.18
		c0.092-0.039,0.287-0.064,0.404-0.064c0.119,0,0.303,0.025,0.381,0.064c-0.053,0.484-0.354,1.074-0.957,1.625l-1.217,1.125
		L185.422,292.816z"/>
	<path fill="#252525" d="M187.082,284.66c-0.301,0-0.551-0.262-0.551-0.576s0.25-0.562,0.551-0.562s0.562,0.248,0.562,0.562
		S187.383,284.66,187.082,284.66z M187.514,292.816c-0.117,0.039-0.287,0.064-0.432,0.064s-0.301-0.025-0.42-0.064v-6.822
		c0.105-0.025,0.275-0.064,0.406-0.064c0.145,0,0.34,0.025,0.445,0.064V292.816z"/>
	<path fill="#252525" d="M194.715,292.828c-0.105,0.027-0.262,0.053-0.42,0.053c-0.131,0-0.301-0.025-0.432-0.064v-4.15
		c0-0.629-0.078-1.113-0.262-1.453c-0.223-0.42-0.641-0.629-1.322-0.629c-0.654,0-1.439,0.367-1.951,0.76v5.473
		c-0.143,0.039-0.287,0.064-0.445,0.064c-0.131,0-0.287-0.025-0.404-0.064v-6.822c0.09-0.039,0.248-0.051,0.34-0.051
		c0.131,0,0.287,0.012,0.367,0.051l0.064,0.682h0.014c0.719-0.59,1.545-0.812,2.213-0.812c0.666,0,1.361,0.223,1.74,0.682
		c0.42,0.498,0.498,1.217,0.498,1.924V292.828z"/>
	<path fill="#252525" d="M201.52,291.678c0,0.98-0.053,2.16-0.523,2.971c-0.562,0.969-1.57,1.389-2.578,1.389
		c-0.576,0-1.074-0.066-1.494-0.211c-0.039-0.078-0.051-0.209-0.051-0.312c0-0.08,0.025-0.236,0.051-0.314
		c0.406,0.104,0.877,0.184,1.35,0.184c1.648,0,2.395-1.021,2.395-2.816v-0.549c-0.51,0.537-1.23,0.799-1.818,0.799
		c-1.742,0-2.645-1.35-2.645-3.248c0-2.33,1.375-3.705,3.402-3.705c0.537,0,1.35,0.158,1.912,0.381V291.678z M200.668,286.662
		c-0.471-0.131-0.811-0.17-1.139-0.17c-1.662,0-2.447,1.4-2.447,3.037c0,1.453,0.549,2.592,1.832,2.592
		c0.654,0,1.322-0.326,1.754-0.785V286.662z"/>
	<path fill="#252525" d="M204.947,292.947c-0.654,0-1.336-0.119-1.807-0.301c-0.039-0.092-0.064-0.25-0.064-0.367
		c0-0.078,0.025-0.275,0.051-0.354c0.484,0.195,1.18,0.354,1.756,0.354c0.994,0,1.609-0.42,1.609-1.244
		c0-0.746-0.379-1.008-1.414-1.387c-1.439-0.525-1.91-1.127-1.91-2.018c0-1.203,0.994-1.768,2.277-1.768
		c0.432,0,0.994,0.08,1.322,0.184c0.039,0.119,0.053,0.236,0.053,0.314c0,0.105-0.027,0.289-0.053,0.379
		c-0.432-0.131-0.891-0.209-1.336-0.209c-0.93,0-1.492,0.354-1.492,1.074c0,0.629,0.354,0.93,1.428,1.336
		c0.98,0.365,1.885,0.732,1.885,2.055C207.252,292.332,206.244,292.947,204.947,292.947z"/>
	<path fill="#252525" d="M209.725,288.914c0-1.779-0.535-3.586-1.754-5.145c0.105-0.105,0.248-0.184,0.393-0.223
		c1.414,1.453,2.199,3.338,2.199,5.395c0,1.857-0.746,3.875-2.199,5.328c-0.145-0.039-0.287-0.119-0.393-0.223
		C209.189,292.436,209.725,290.682,209.725,288.914z"/>
</g>
</svg>
