<?xml version="1.0" encoding="utf-8"?>
<!-- Generator: Adobe Illustrator 16.0.0, SVG Export Plug-In . SVG Version: 6.00 Build 0)  -->
<!DOCTYPE svg PUBLIC "-//W3C//DTD SVG 1.0//EN" "http://www.w3.org/TR/2001/REC-SVG-20010904/DTD/svg10.dtd">
<svg version="1.0" xmlns="http://www.w3.org/2000/svg" xmlns:xlink="http://www.w3.org/1999/xlink" x="0px" y="0px" width="300px"
	 height="300px" viewBox="0 0 300 300" style="enable-background:new 0 0 300 300;" xml:space="preserve">
<g id="Icon">
	<path style="fill:none;stroke:#58595B;stroke-width:4;stroke-miterlimit:10;" d="M151.022,231.173
		c7.715,0.539,14.405-5.279,14.946-12.993c0.538-7.717-5.278-14.407-12.993-14.947c-7.714-0.538-14.407,5.277-14.947,12.992
		C137.488,223.943,143.307,230.632,151.022,231.173z"/>
	<path style="fill:none;stroke:#58595B;stroke-width:4;stroke-miterlimit:10;" d="M181.015,150.844
		c7.691-0.809,13.271-7.7,12.465-15.391c-0.81-7.694-7.699-13.274-15.391-12.463c-7.694,0.806-13.274,7.698-12.465,15.392
		C166.433,146.073,173.322,151.653,181.015,150.844z"/>
	<path style="fill:#58595B;" d="M213.634,206.889c10.029,0.699,18.729-6.862,19.43-16.892c0.7-10.031-6.861-18.732-16.892-19.434
		c-10.03-0.7-18.729,6.863-19.431,16.894C196.039,197.485,203.604,206.186,213.634,206.889"/>
	<path style="fill:none;stroke:#58595B;stroke-width:4;stroke-miterlimit:10;" d="M268.381,180.996
		c7.662,1.072,14.74-4.262,15.817-11.919c1.077-7.658-4.262-14.738-11.919-15.816c-7.66-1.078-14.74,4.261-15.815,11.919
		C255.385,172.838,260.721,179.918,268.381,180.996z"/>
	<path style="fill:none;stroke:#58595B;stroke-width:4;stroke-miterlimit:10;" d="M268.627,234.312
		c6.421,0.451,11.99-4.391,12.438-10.814c0.448-6.418-4.392-11.987-10.813-12.438c-6.418-0.446-11.987,4.395-12.438,10.815
		C257.366,228.293,262.208,233.863,268.627,234.312z"/>
	
		<line style="fill:none;stroke:#58595B;stroke-width:4;stroke-miterlimit:10;" x1="189.349" y1="146.803" x2="206.055" y2="177.898"/>
	
		<line style="fill:none;stroke:#58595B;stroke-width:4;stroke-miterlimit:10;" x1="165.702" y1="213.22" x2="203.847" y2="194.612"/>
	
		<line style="fill:none;stroke:#58595B;stroke-width:4;stroke-miterlimit:10;" x1="256.821" y1="173.228" x2="223.562" y2="184.703"/>
	<line style="fill:none;stroke:#58595B;stroke-width:4;stroke-miterlimit:10;" x1="222.78" y1="195.938" x2="258.83" y2="214.478"/>
	<path style="fill:none;stroke:#58595B;stroke-width:4;stroke-miterlimit:10;" d="M235.847,124.342
		c6.418,0.449,11.987-4.391,12.438-10.813c0.448-6.42-4.391-11.988-10.813-12.439c-6.42-0.447-11.987,4.394-12.438,10.813
		C224.586,118.323,229.428,123.894,235.847,124.342z"/>
	
		<line style="fill:none;stroke:#58595B;stroke-width:4;stroke-miterlimit:10;" x1="233.244" y1="124.434" x2="218.362" y2="180.933"/>
</g>
<g id="Text" style="display:none;">
	<text transform="matrix(1 0 0 1 9.2827 180.5029)" style="display:inline;"><tspan x="0" y="0" style="fill:#837199; font-family:'FSMatthew-Bold'; font-size:94.6666; letter-spacing:-10;">1</tspan><tspan x="41.558" y="0" style="fill:#837199; font-family:'FSMatthew-Bold'; font-size:94.6666; letter-spacing:-7;">5</tspan><tspan x="85.955" y="0" style="fill:#837199; font-family:'FSMatthew-Bold'; font-size:94.6666;">4</tspan></text>
	
		<text transform="matrix(1 0 0 1 30.3599 78.2983)" style="display:inline;fill:#58595B; font-family:'FSMatthew-Light'; font-size:24.6304;">Our alumni </text>
	<text transform="matrix(1 0 0 1 30.3599 102.9292)" style="display:inline;"><tspan x="0" y="0" style="fill:#58595B; font-family:'FSMatthew-Light'; font-size:24.6304;">ne</tspan><tspan x="25" y="0" style="fill:#58595B; font-family:'FSMatthew-Light'; font-size:24.6304;">t</tspan><tspan x="33.743" y="0" style="fill:#58595B; font-family:'FSMatthew-Light'; font-size:24.6304;">w</tspan><tspan x="51.403" y="0" style="fill:#58595B; font-family:'FSMatthew-Light'; font-size:24.6304;">ork spans</tspan></text>
</g>
<g id="Text_Flat">
	<g>
		<path style="fill:#837199;" d="M47.244,180.503c-1.42,0.284-3.976,0.474-6.721,0.474c-2.651,0-5.018-0.189-6.721-0.474v-48.942
			l-13.443,8.898c-3.218-2.935-5.49-6.911-6.342-10.319l22.246-13.632c1.326-0.284,4.071-0.473,5.491-0.473
			c1.609,0,4.544,0.284,5.491,0.473V180.503z"/>
		<path style="fill:#837199;" d="M74.033,181.449c-5.112,0-12.685-1.041-17.892-2.84c-0.189-0.662-0.473-2.366-0.473-4.26
			c0-2.083,0.284-4.26,0.852-6.059c4.354,1.325,11.076,2.178,16.377,2.178c6.721,0,11.076-3.598,11.076-10.035
			c0-2.745-0.757-5.206-2.367-6.815c-2.083-2.083-5.585-2.935-10.697-2.935H58.508v-34.174h35.784
			c0.284,1.515,0.473,3.881,0.473,5.585c0,1.799-0.284,4.923-0.473,6.059H70.625v11.739h4.165c7.384,0,13.253,1.325,17.418,4.922
			c3.692,3.219,5.775,8.141,5.775,14.958C97.984,174.255,86.908,181.449,74.033,181.449z"/>
		<path style="fill:#837199;" d="M146.357,166.682h-8.331v13.821c-1.136,0.189-3.786,0.474-6.721,0.474
			c-2.745,0-4.922-0.189-6.437-0.474v-13.821H97.226c-0.378-1.23-0.663-3.408-0.663-5.111c0-1.988,0.284-3.787,0.663-5.112
			l19.407-39.949c1.704-0.284,4.544-0.473,6.626-0.473c2.935,0,6.059,0.284,7.479,0.473l-19.406,39.003h13.537v-13.064
			c1.704-0.284,4.354-0.473,6.532-0.473c2.272,0,5.018,0.189,6.626,0.473v13.064h8.331c0.473,1.514,0.663,3.597,0.663,5.585
			C147.02,163.084,146.736,165.641,146.357,166.682z"/>
	</g>
	<g>
		<path style="fill:#58595B;" d="M38.068,78.544c-4.138,0-6.305-3.103-6.305-8.57s2.167-8.57,6.305-8.57
			c4.137,0,6.305,3.103,6.305,8.57S42.206,78.544,38.068,78.544z M38.068,62.66c-2.98,0-4.532,2.389-4.532,7.314
			c0,4.926,1.552,7.314,4.532,7.314S42.6,74.9,42.6,69.974C42.6,65.049,41.048,62.66,38.068,62.66z"/>
		<path style="fill:#58595B;" d="M56.91,73.422c0,3.744-1.552,5.123-4.803,5.123c-3.325,0-4.729-1.379-4.729-4.999v-8.078
			c0.222-0.074,0.518-0.123,0.788-0.123c0.345,0,0.616,0.074,0.813,0.123v7.881c0,2.389,0.369,3.965,3.152,3.965
			c2.61,0,3.177-1.527,3.177-4.015v-7.832c0.197-0.074,0.542-0.123,0.813-0.123s0.566,0.049,0.788,0.123V73.422z"/>
		<path style="fill:#58595B;" d="M65.925,66.649c-1.429,0.197-2.98,0.714-4.138,1.601v10.048c-0.246,0.074-0.542,0.123-0.812,0.123
			s-0.542-0.049-0.788-0.123V65.467c0.147-0.049,0.369-0.099,0.616-0.099c0.197,0,0.468,0.049,0.665,0.099l0.123,1.576h0.024
			c1.059-0.911,2.906-1.675,4.31-1.822c0.049,0.147,0.098,0.418,0.098,0.64C66.023,66.107,65.975,66.428,65.925,66.649z"/>
		<path style="fill:#58595B;" d="M82.6,75.146c0,0.887,0,1.995,0.049,3.152c-0.172,0.074-0.443,0.123-0.665,0.123
			c-0.197,0-0.468-0.049-0.665-0.123c-0.074-0.394-0.123-0.911-0.148-1.379h-0.024c-0.837,1.035-2.315,1.625-3.768,1.625
			c-2.291,0-4.211-1.28-4.211-3.916c0-1.502,0.616-2.611,1.576-3.3c1.083-0.763,2.512-1.01,4.039-1.01
			c0.862,0,1.576,0.049,2.216,0.148v-0.714c0-2.463-1.01-3.275-3.079-3.275c-1.157,0-2.586,0.246-3.472,0.468
			c-0.049-0.123-0.099-0.394-0.099-0.64c0-0.172,0.049-0.419,0.123-0.566c1.059-0.32,2.463-0.517,3.645-0.517
			c2.931,0,4.482,1.33,4.482,4.334V75.146z M80.999,71.673c-0.714-0.098-1.453-0.147-2.093-0.147c-1.207,0-2.291,0.222-3.029,0.788
			c-0.665,0.492-1.034,1.28-1.034,2.29c0,1.798,1.157,2.66,2.758,2.66c1.33,0,2.733-0.641,3.398-1.65V71.673z"/>
		<path style="fill:#58595B;" d="M87.649,78.298c-0.271,0.074-0.542,0.123-0.837,0.123c-0.246,0-0.542-0.049-0.763-0.123V60.32
			c0.222-0.049,0.492-0.124,0.812-0.124c0.271,0,0.566,0.049,0.788,0.124V78.298z"/>
		<path style="fill:#58595B;" d="M100.505,73.422c0,3.744-1.552,5.123-4.803,5.123c-3.325,0-4.729-1.379-4.729-4.999v-8.078
			c0.222-0.074,0.518-0.123,0.788-0.123c0.345,0,0.616,0.074,0.813,0.123v7.881c0,2.389,0.369,3.965,3.152,3.965
			c2.61,0,3.177-1.527,3.177-4.015v-7.832c0.197-0.074,0.542-0.123,0.813-0.123s0.566,0.049,0.788,0.123V73.422z"/>
		<path style="fill:#58595B;" d="M121.612,78.323c-0.247,0.049-0.493,0.099-0.739,0.099c-0.295,0-0.566-0.074-0.862-0.123v-7.782
			c0-2.709-0.689-3.94-2.98-3.94c-1.182,0-2.758,0.616-3.743,1.33c0.197,0.69,0.246,1.453,0.246,2.217v8.176
			c-0.246,0.074-0.493,0.123-0.739,0.123c-0.32,0-0.616-0.049-0.862-0.123v-7.782c0-2.709-0.616-3.94-2.906-3.94
			c-1.231,0-2.685,0.689-3.645,1.428v10.294c-0.271,0.074-0.591,0.123-0.887,0.123c-0.246,0-0.517-0.049-0.714-0.123V65.467
			c0.123-0.049,0.394-0.099,0.665-0.099c0.221,0,0.492,0.049,0.665,0.099l0.124,1.281h0.024c1.354-1.108,2.906-1.527,4.162-1.527
			s2.463,0.418,3.177,1.28c0.099,0.099,0.172,0.222,0.247,0.345c1.305-1.059,2.98-1.625,4.581-1.625c1.256,0,2.537,0.418,3.251,1.28
			c0.788,0.936,0.936,2.291,0.936,3.621V78.323z"/>
		<path style="fill:#58595B;" d="M134.741,78.323c-0.197,0.049-0.493,0.099-0.788,0.099c-0.247,0-0.566-0.049-0.813-0.123v-7.807
			c0-1.182-0.147-2.093-0.492-2.733c-0.419-0.788-1.207-1.182-2.488-1.182c-1.231,0-2.709,0.689-3.669,1.428v10.294
			c-0.271,0.074-0.542,0.123-0.837,0.123c-0.246,0-0.542-0.049-0.763-0.123V65.467c0.172-0.074,0.468-0.099,0.64-0.099
			c0.247,0,0.542,0.025,0.689,0.099l0.124,1.281h0.024c1.354-1.108,2.906-1.527,4.162-1.527s2.561,0.418,3.275,1.28
			c0.788,0.936,0.936,2.291,0.936,3.621V78.323z"/>
		<path style="fill:#58595B;" d="M138.904,62.955c-0.567,0-1.035-0.492-1.035-1.083c0-0.591,0.468-1.059,1.035-1.059
			c0.566,0,1.059,0.468,1.059,1.059C139.963,62.463,139.471,62.955,138.904,62.955z M139.717,78.298
			c-0.222,0.074-0.542,0.123-0.812,0.123c-0.271,0-0.567-0.049-0.788-0.123V65.467c0.197-0.049,0.517-0.123,0.763-0.123
			c0.271,0,0.64,0.049,0.837,0.123V78.298z"/>
	</g>
	<g>
		<path style="fill:#58595B;" d="M41.886,102.954c-0.197,0.049-0.493,0.099-0.788,0.099c-0.247,0-0.566-0.049-0.813-0.123v-7.807
			c0-1.182-0.147-2.093-0.492-2.733c-0.419-0.788-1.207-1.182-2.488-1.182c-1.231,0-2.709,0.689-3.669,1.428v10.294
			c-0.271,0.074-0.542,0.123-0.837,0.123c-0.246,0-0.542-0.049-0.763-0.123V90.098C32.207,90.024,32.502,90,32.675,90
			c0.246,0,0.542,0.025,0.689,0.099l0.124,1.281h0.024c1.354-1.108,2.906-1.527,4.162-1.527s2.561,0.418,3.275,1.28
			c0.788,0.936,0.936,2.291,0.936,3.621V102.954z"/>
		<path style="fill:#58595B;" d="M54.324,96.945h-8.25c0.099,2.832,1.428,4.975,4.507,4.975c1.108,0,2.143-0.148,3.054-0.37
			c0.049,0.124,0.099,0.37,0.099,0.518c0,0.246-0.049,0.468-0.123,0.64c-0.96,0.295-2.167,0.468-3.177,0.468
			c-1.945,0-3.423-0.616-4.334-1.601c-1.083-1.182-1.65-2.956-1.65-5c0-3.571,1.798-6.723,5.394-6.723
			c3.226,0,4.507,2.66,4.507,5.911C54.349,96.132,54.349,96.575,54.324,96.945z M52.748,95.763c0-2.266-0.247-4.704-2.98-4.704
			c-2.389,0-3.546,2.192-3.694,4.704H52.748z"/>
		<path style="fill:#58595B;" d="M63.856,102.806c-0.64,0.222-1.601,0.369-2.315,0.369c-2.438,0-3.596-1.157-3.596-3.891v-7.93
			h-2.216c-0.049-0.123-0.074-0.418-0.074-0.566c0-0.123,0.025-0.418,0.074-0.542l2.216-0.148v-3.349
			c0.197-0.074,0.517-0.124,0.788-0.124s0.616,0.049,0.812,0.124v3.349h3.621c0.049,0.123,0.098,0.493,0.098,0.616
			c0,0.172-0.049,0.468-0.098,0.64h-3.621v7.783c0,1.945,0.566,2.758,2.094,2.758c0.837,0,1.65-0.124,2.216-0.296
			c0.049,0.124,0.099,0.419,0.099,0.591C63.955,102.412,63.93,102.584,63.856,102.806z"/>
		<path style="fill:#58595B;" d="M80.702,92.635l-3.3,10.294c-0.197,0.074-0.566,0.123-0.763,0.123
			c-0.222,0-0.591-0.049-0.764-0.123l-2.955-9.95h-0.049l-3.103,9.95c-0.222,0.074-0.566,0.123-0.764,0.123
			c-0.197,0-0.517-0.049-0.739-0.123l-3.054-10.146c-0.271-0.837-0.394-1.798-0.419-2.709c0.197-0.049,0.591-0.099,0.837-0.099
			c0.271,0,0.517,0.049,0.739,0.123c0.025,0.887,0.172,1.822,0.394,2.635l2.241,8.004h0.024l3.202-10.664
			C72.402,90.024,72.748,90,72.92,90s0.542,0.025,0.689,0.074l3.029,10.664h0.024l2.463-7.979c0.271-0.911,0.468-1.773,0.517-2.66
			c0.172-0.074,0.591-0.123,0.813-0.123c0.221,0,0.566,0.049,0.714,0.123C81.17,90.936,80.973,91.773,80.702,92.635z"/>
		<path style="fill:#58595B;" d="M88.018,103.175c-3.226,0-5.295-2.216-5.295-6.649s2.093-6.674,5.32-6.674
			c3.226,0,5.27,2.192,5.27,6.625C93.313,100.91,91.244,103.175,88.018,103.175z M88.043,91.059c-2.364,0-3.645,1.822-3.645,5.443
			c0,3.62,1.256,5.467,3.62,5.467s3.62-1.847,3.62-5.467C91.638,92.881,90.407,91.059,88.043,91.059z"/>
		<path style="fill:#58595B;" d="M101.688,91.28c-1.429,0.197-2.98,0.714-4.138,1.601v10.048c-0.246,0.074-0.542,0.123-0.812,0.123
			s-0.542-0.049-0.788-0.123V90.098C96.097,90.049,96.319,90,96.565,90c0.197,0,0.468,0.049,0.665,0.099l0.123,1.576h0.024
			c1.059-0.911,2.906-1.675,4.31-1.822c0.049,0.147,0.098,0.418,0.098,0.64C101.786,90.738,101.737,91.059,101.688,91.28z"/>
		<path style="fill:#58595B;" d="M113.633,102.929c-0.172,0.049-0.542,0.123-0.813,0.123c-0.271,0-0.665-0.049-0.985-0.123
			l-4.187-6.6l-1.872,1.749v4.852c-0.246,0.074-0.566,0.123-0.862,0.123c-0.197,0-0.517-0.049-0.739-0.123V84.951
			c0.222-0.074,0.493-0.124,0.812-0.124c0.295,0,0.542,0.049,0.788,0.124v11.255l4.162-3.892c0.887-0.837,1.33-1.576,1.453-2.216
			c0.172-0.074,0.542-0.123,0.763-0.123c0.222,0,0.567,0.049,0.714,0.123c-0.099,0.911-0.665,2.02-1.798,3.054l-2.29,2.118
			L113.633,102.929z"/>
		<path style="fill:#58595B;" d="M124.052,103.175c-1.231,0-2.512-0.222-3.398-0.566c-0.074-0.172-0.123-0.468-0.123-0.689
			c0-0.148,0.049-0.517,0.099-0.665c0.911,0.37,2.216,0.665,3.3,0.665c1.872,0,3.029-0.788,3.029-2.339
			c0-1.404-0.714-1.896-2.66-2.611c-2.709-0.985-3.596-2.118-3.596-3.792c0-2.266,1.872-3.325,4.285-3.325
			c0.813,0,1.872,0.147,2.487,0.345c0.074,0.222,0.099,0.443,0.099,0.591c0,0.197-0.049,0.542-0.099,0.714
			c-0.812-0.246-1.674-0.394-2.512-0.394c-1.749,0-2.808,0.665-2.808,2.02c0,1.182,0.665,1.749,2.684,2.512
			c1.847,0.689,3.547,1.379,3.547,3.866C128.387,102.018,126.49,103.175,124.052,103.175z"/>
		<path style="fill:#58595B;" d="M139.125,101.599c-0.96,0.862-2.463,1.33-3.891,1.33c-1.01,0-1.946-0.172-2.635-0.418v6.206
			c-0.246,0.074-0.468,0.123-0.812,0.123c-0.271,0-0.591-0.049-0.788-0.123V90.098c0.123-0.049,0.418-0.099,0.665-0.099
			c0.246,0,0.468,0.049,0.64,0.099l0.148,1.354h0.024c0.936-0.985,2.34-1.601,3.768-1.601c1.551,0,2.931,0.665,3.792,1.896
			c0.714,1.035,1.158,2.512,1.158,4.31C141.194,98.521,140.43,100.417,139.125,101.599z M136.071,91.157
			c-1.305,0-2.61,0.542-3.473,1.625v8.472c0.641,0.295,1.625,0.468,2.463,0.468c2.66,0,4.458-1.749,4.458-5.591
			C139.519,93.103,138.337,91.157,136.071,91.157z"/>
		<path style="fill:#58595B;" d="M152.598,99.777c0,0.887,0,1.995,0.049,3.152c-0.172,0.074-0.443,0.123-0.665,0.123
			c-0.196,0-0.468-0.049-0.665-0.123c-0.073-0.394-0.123-0.911-0.147-1.379h-0.024c-0.837,1.035-2.315,1.625-3.768,1.625
			c-2.291,0-4.211-1.28-4.211-3.916c0-1.502,0.616-2.611,1.576-3.3c1.083-0.763,2.512-1.01,4.039-1.01
			c0.862,0,1.576,0.049,2.216,0.148v-0.714c0-2.463-1.01-3.275-3.079-3.275c-1.157,0-2.586,0.246-3.472,0.468
			c-0.049-0.123-0.099-0.394-0.099-0.64c0-0.172,0.049-0.419,0.123-0.566c1.059-0.32,2.463-0.517,3.645-0.517
			c2.931,0,4.482,1.33,4.482,4.334V99.777z M150.997,96.304c-0.714-0.098-1.453-0.147-2.093-0.147c-1.207,0-2.291,0.222-3.029,0.788
			c-0.665,0.492-1.034,1.28-1.034,2.29c0,1.798,1.157,2.66,2.758,2.66c1.33,0,2.733-0.641,3.398-1.65V96.304z"/>
		<path style="fill:#58595B;" d="M165.848,102.954c-0.196,0.049-0.492,0.099-0.788,0.099c-0.246,0-0.566-0.049-0.812-0.123v-7.807
			c0-1.182-0.147-2.093-0.492-2.733c-0.419-0.788-1.207-1.182-2.487-1.182c-1.231,0-2.709,0.689-3.67,1.428v10.294
			c-0.271,0.074-0.542,0.123-0.837,0.123c-0.247,0-0.542-0.049-0.764-0.123V90.098c0.172-0.074,0.468-0.099,0.641-0.099
			c0.246,0,0.541,0.025,0.689,0.099l0.123,1.281h0.024c1.354-1.108,2.906-1.527,4.162-1.527s2.562,0.418,3.275,1.28
			c0.788,0.936,0.936,2.291,0.936,3.621V102.954z"/>
		<path style="fill:#58595B;" d="M171.981,103.175c-1.231,0-2.512-0.222-3.398-0.566c-0.074-0.172-0.123-0.468-0.123-0.689
			c0-0.148,0.049-0.517,0.099-0.665c0.911,0.37,2.217,0.665,3.3,0.665c1.872,0,3.029-0.788,3.029-2.339
			c0-1.404-0.714-1.896-2.66-2.611c-2.709-0.985-3.595-2.118-3.595-3.792c0-2.266,1.871-3.325,4.285-3.325
			c0.812,0,1.871,0.147,2.487,0.345c0.073,0.222,0.099,0.443,0.099,0.591c0,0.197-0.05,0.542-0.099,0.714
			c-0.813-0.246-1.675-0.394-2.513-0.394c-1.748,0-2.808,0.665-2.808,2.02c0,1.182,0.665,1.749,2.685,2.512
			c1.848,0.689,3.547,1.379,3.547,3.866C176.316,102.018,174.42,103.175,171.981,103.175z"/>
	</g>
</g>
</svg>
