<?xml version="1.0" encoding="utf-8"?>
<!-- Generator: Adobe Illustrator 16.0.0, SVG Export Plug-In . SVG Version: 6.00 Build 0)  -->
<!DOCTYPE svg PUBLIC "-//W3C//DTD SVG 1.1//EN" "http://www.w3.org/Graphics/SVG/1.1/DTD/svg11.dtd">
<svg version="1.1" id="Layer_1" xmlns="http://www.w3.org/2000/svg" xmlns:xlink="http://www.w3.org/1999/xlink" x="0px" y="0px"
	 width="300px" height="300px" viewBox="0 0 300 300" enable-background="new 0 0 300 300" xml:space="preserve">
<path fill="#333333" d="M26.354,132.239c0.307,0.113,0.44,0.166,0.576,0.208c5.875,1.825,11.748,3.656,17.63,5.458
	c0.341,0.104,0.778,0.051,1.131-0.058c4.776-1.465,9.546-2.95,14.316-4.434c1.167-0.365,2.333-0.735,3.653-1.153
	c-0.666-0.982-1.285-1.858-1.86-2.761c-0.301-0.475-0.604-0.557-1.155-0.382c-4.948,1.573-9.905,3.118-14.869,4.642
	c-0.391,0.12-0.881,0.12-1.273,0c-5.065-1.529-10.122-3.086-15.177-4.644c-0.359-0.111-0.687-0.271-0.97,0.161
	C27.723,130.243,27.066,131.189,26.354,132.239 M74.1,121.876c-0.344-0.125-0.516-0.197-0.693-0.25
	c-9.211-2.863-18.421-5.729-27.639-8.569c-0.389-0.12-0.882-0.115-1.273,0.006c-7.995,2.462-15.983,4.95-23.972,7.434
	c-1.386,0.432-2.772,0.868-4.314,1.351c0.326,0.12,0.48,0.186,0.641,0.235c9.256,2.88,18.514,5.762,27.777,8.623
	c0.344,0.108,0.782,0.075,1.134-0.034c8.395-2.589,16.784-5.195,25.171-7.802C71.936,122.561,72.939,122.241,74.1,121.876
	 M28.03,161.985c5.722,8.52,11.401,16.974,17.104,25.462c5.725-8.529,11.41-17.005,17.097-25.479
	c1.434,0.813,2.688,1.527,4.021,2.283c0.017-0.219,0.035-0.334,0.035-0.449c0-7.321,0.022-14.643-0.018-21.964
	c-0.014-2.377-0.565-4.676-1.408-7c-1.083,0.33-2.126,0.647-3.209,0.975c0.126,0.315,0.216,0.541,0.306,0.768
	c1.076,2.712,1.696,5.5,1.449,8.44c-0.449,5.369-2.169,10.335-4.766,15.018c-1.737,3.131-3.868,5.949-6.796,8.083
	c-4.131,3.011-8.681,3.119-12.949,0.312c-1.77-1.164-3.247-2.647-4.54-4.311c-3.269-4.209-5.386-8.972-6.667-14.121
	c-0.816-3.281-1.246-6.595-0.427-9.941c0.348-1.422,0.829-2.812,1.268-4.283c-1.006-0.302-2.049-0.617-3.107-0.934
	c-0.993,2.417-1.408,4.831-1.413,7.314c-0.014,7.124-0.006,14.249-0.006,21.375c0,0.206,0,0.415,0,0.738
	C25.385,163.485,26.642,162.772,28.03,161.985 M31.325,136.66c-1.175,2.618-1.849,5.291-1.636,8.126
	c0.413,5.491,2.278,10.509,5.141,15.167c1.467,2.39,3.229,4.54,5.59,6.121c3.123,2.093,6.353,2.114,9.447-0.024
	c1.004-0.695,1.979-1.497,2.778-2.416c4.814-5.534,7.427-12.013,7.973-19.307c0.201-2.671-0.446-5.22-1.665-7.641
	c-0.28,0.072-0.518,0.125-0.75,0.197c-4.093,1.255-8.18,2.527-12.282,3.751c-0.481,0.142-1.073,0.134-1.557-0.002
	c-1.989-0.559-3.955-1.197-5.931-1.802C36.084,138.109,33.735,137.395,31.325,136.66 M9.896,197.191H7.224
	c-0.034-0.047-0.086-0.087-0.086-0.125c-0.013-4.578-0.284-9.168,1.002-13.656c2.073-7.239,6.205-12.953,12.505-17.079
	c0.439-0.29,0.551-0.59,0.551-1.075c-0.012-7.346,0.032-14.691-0.022-22.039c-0.041-5.495,1.348-10.513,4.582-14.988
	c0.055-0.074,0.09-0.163,0.173-0.319c-6.369-2.001-12.693-3.987-19.233-6.042c2.12-0.665,4.024-1.266,5.931-1.858
	c10.595-3.301,21.189-6.604,31.792-9.883c0.435-0.134,0.983-0.142,1.416-0.007c12.316,3.813,24.626,7.653,36.937,11.488
	c0.204,0.065,0.406,0.139,0.768,0.263c-0.86,0.284-1.577,0.524-2.295,0.757c-1.522,0.491-3.052,0.96-4.562,1.485
	c-0.225,0.078-0.515,0.41-0.516,0.626c-0.024,7.149-0.018,14.298-0.014,21.447c0,0.071,0.029,0.142,0.059,0.273
	c0.417,0.031,0.844,0.065,1.301,0.099v2.721h-5.557v-2.735c0.418-0.02,0.827-0.04,1.299-0.062v-21.352
	c-2.97,0.926-5.896,1.841-8.905,2.779c0.157,0.243,0.278,0.447,0.413,0.639c2.862,4.101,4.31,8.666,4.33,13.656
	c0.034,7.717,0.016,15.432-0.003,23.149c-0.001,0.562,0.176,0.86,0.643,1.175c7.817,5.274,12.355,12.585,13.271,21.987
	c0.278,2.849,0.043,5.749,0.043,8.671h-2.685c0-0.251,0.004-0.509,0-0.769c-0.043-2.587,0.028-5.181-0.152-7.758
	c-0.391-5.563-2.56-10.431-6.152-14.665c-3.025-3.564-6.695-6.297-11.046-8.344c-5.943,8.995-11.881,17.983-17.881,27.064
	c-5.989-9.049-11.922-18.016-17.841-26.96c-0.097,0-0.152-0.018-0.189,0.002c-6.976,3.509-12.347,8.577-15.352,15.904
	c-1.267,3.09-1.819,6.333-1.819,9.669c-0.001,1.701,0.001,3.402-0.002,5.104C9.927,196.674,9.908,196.915,9.896,197.191"/>
<g>
	<path fill="#66A827" d="M119.088,138.212c-0.32,0.074-1.083,0.123-1.896,0.123c-0.64,0-1.379-0.074-1.699-0.123l-1.231-3.374
		h-5.911l-1.157,3.374c-0.542,0.074-1.182,0.123-1.823,0.123c-0.64,0-1.379-0.049-1.749-0.123l5.812-16.648
		c0.345-0.074,1.158-0.123,1.7-0.123c0.665,0,1.453,0.049,1.724,0.123L119.088,138.212z M113.202,131.907l-1.453-4.704
		c-0.172-0.542-0.345-1.231-0.492-1.995h-0.049c-0.123,0.764-0.32,1.453-0.493,1.995l-1.379,4.704H113.202z"/>
	<path fill="#66A827" d="M132.877,138.212c-0.296,0.074-1.182,0.123-1.675,0.123c-0.517,0-1.281-0.049-1.552-0.123l-1.97-8.201
		h-0.049l-1.995,8.201c-0.246,0.049-1.182,0.123-1.625,0.123c-0.566,0-1.502-0.074-1.699-0.123l-2.709-9.063
		c-0.345-1.158-0.566-2.586-0.591-3.768c0.394-0.074,0.936-0.123,1.527-0.123c0.542,0,1.281,0.074,1.601,0.123
		c0,0.96,0.172,2.167,0.443,3.3l1.453,5.788h0.049l2.389-9.088c0.271-0.049,0.64-0.099,1.256-0.099c0.517,0,0.911,0.049,1.231,0.099
		l2.241,9.088h0.049l1.724-5.788c0.296-1.108,0.493-2.34,0.493-3.3c0.32-0.049,1.059-0.123,1.601-0.123
		c0.591,0,1.083,0.049,1.478,0.123c-0.025,1.281-0.197,2.241-0.566,3.374L132.877,138.212z"/>
	<path fill="#66A827" d="M148.02,134.641c0,1.059,0.024,2.266,0.024,3.571c-0.394,0.099-1.059,0.123-1.478,0.123
		c-0.468,0-1.083-0.049-1.478-0.123c-0.049-0.295-0.099-0.812-0.124-1.133h-0.049c-0.837,0.862-2.266,1.379-3.571,1.379
		c-2.463,0-4.236-1.527-4.236-4.063c0-3.94,3.497-4.605,6.428-4.605c0.197,0,0.665,0.025,1.059,0.049
		c0-0.147-0.025-0.468-0.049-0.591c-0.172-1.01-0.837-1.429-2.266-1.429c-1.108,0-2.66,0.222-3.842,0.518
		c-0.123-0.345-0.197-0.936-0.197-1.379c0-0.369,0.049-0.936,0.148-1.182c1.379-0.418,3.078-0.64,4.482-0.64
		c3.079,0,5.147,1.428,5.147,4.63V134.641z M144.621,132.203c-0.295-0.024-0.689-0.049-1.034-0.049
		c-2.216,0-3.079,0.887-3.079,1.995c0,0.96,0.641,1.625,1.749,1.625c0.813,0,1.724-0.394,2.364-0.96V132.203z"/>
	<path fill="#66A827" d="M157.844,127.991c-1.28,0.197-2.659,0.641-3.891,1.281v8.94c-0.345,0.074-1.084,0.123-1.675,0.123
		s-1.453-0.049-1.724-0.123v-12.831c0.37-0.049,0.985-0.123,1.478-0.123c0.418,0,1.083,0.049,1.428,0.123l0.197,1.576
		c0.911-0.812,2.562-1.699,4.162-1.822c0.05,0.197,0.099,0.911,0.099,1.428C157.918,127.056,157.894,127.646,157.844,127.991z"/>
	<path fill="#66A827" d="M170.106,138.212c-0.394,0.074-1.059,0.123-1.576,0.123c-0.468,0-1.01-0.049-1.354-0.123l-0.099-1.133
		c-0.887,0.862-2.02,1.379-3.349,1.379c-3.67,0-5.246-2.931-5.246-6.452c0-3.793,1.699-6.871,5.615-6.871
		c0.96,0,2.068,0.295,2.61,0.64v-5.517c0.443-0.074,1.183-0.123,1.724-0.123c0.665,0,1.183,0.074,1.675,0.123V138.212z
		 M166.708,128.312c-0.591-0.271-1.354-0.418-1.995-0.418c-1.994,0-2.733,1.773-2.733,3.916c0,1.798,0.443,3.842,2.438,3.842
		c0.96,0,1.699-0.394,2.29-0.886V128.312z"/>
	<path fill="#66A827" d="M183.256,132.991h-7.782c0.049,1.601,1.157,2.783,3.3,2.783c1.158,0,2.34-0.148,3.35-0.419
		c0.147,0.665,0.246,1.404,0.246,2.069c0,0.099,0,0.222-0.024,0.493c-1.256,0.369-2.562,0.542-3.842,0.542
		c-4.68,0-6.625-2.684-6.625-6.6c0-3.423,1.921-6.723,6.083-6.723c3.94,0,5.369,2.906,5.369,6.107
		C183.33,131.686,183.33,132.351,183.256,132.991z M179.932,130.553c0-1.552-0.419-2.857-2.02-2.857
		c-1.527,0-2.34,1.207-2.438,2.857H179.932z"/>
	<path fill="#66A827" d="M196.06,138.212c-0.394,0.074-1.059,0.123-1.576,0.123c-0.468,0-1.01-0.049-1.354-0.123l-0.099-1.133
		c-0.887,0.862-2.02,1.379-3.349,1.379c-3.67,0-5.246-2.931-5.246-6.452c0-3.793,1.699-6.871,5.615-6.871
		c0.96,0,2.068,0.295,2.61,0.64v-5.517c0.443-0.074,1.183-0.123,1.724-0.123c0.665,0,1.183,0.074,1.675,0.123V138.212z
		 M192.661,128.312c-0.591-0.271-1.354-0.418-1.995-0.418c-1.994,0-2.733,1.773-2.733,3.916c0,1.798,0.443,3.842,2.438,3.842
		c0.96,0,1.699-0.394,2.29-0.886V128.312z"/>
	<path fill="#66A827" d="M222.926,138.212c-0.395,0.099-1.231,0.123-1.626,0.123c-0.419,0-1.379-0.049-1.773-0.123v-7.733
		c0-0.936-0.024-1.625-0.369-2.044c-0.32-0.394-0.812-0.542-1.429-0.542c-0.837,0-2.019,0.369-2.782,0.837
		c0.024,0.418,0.049,0.837,0.049,1.33v8.152c-0.394,0.099-1.231,0.123-1.625,0.123c-0.419,0-1.38-0.049-1.773-0.123v-7.733
		c0-0.936-0.024-1.625-0.369-2.044c-0.32-0.394-0.813-0.542-1.429-0.542c-0.862,0-1.97,0.345-2.733,0.812v9.506
		c-0.566,0.099-1.354,0.123-1.798,0.123c-0.395,0-1.108-0.024-1.601-0.123v-12.831c0.319-0.074,1.107-0.123,1.478-0.123
		c0.345,0,1.059,0.049,1.428,0.123l0.148,1.158c1.083-0.813,2.635-1.404,4.014-1.404c1.429,0,2.685,0.492,3.646,1.551
		c1.33-0.911,2.931-1.551,4.556-1.551c1.207,0,2.438,0.492,3.054,1.231c0.764,0.911,0.937,2.093,0.937,3.891V138.212z"/>
	<path fill="#66A827" d="M230.803,138.458c-3.719,0-6.083-2.389-6.083-6.625c0-4.211,2.34-6.699,6.083-6.699
		s6.083,2.462,6.083,6.674S234.546,138.458,230.803,138.458z M230.803,127.794c-1.601,0-2.586,1.083-2.586,4.014
		s0.985,3.99,2.586,3.99s2.586-1.059,2.586-3.99C233.389,128.854,232.403,127.794,230.803,127.794z"/>
	<path fill="#66A827" d="M242.522,138.458c-1.453,0-2.979-0.222-4.162-0.616c-0.073-0.369-0.099-0.837-0.099-1.33
		c0-0.394,0.099-0.96,0.197-1.305c1.133,0.394,2.759,0.665,3.719,0.665c1.33,0,2.094-0.443,2.094-1.354
		c0-0.788-0.616-1.157-2.241-1.674c-2.586-0.813-3.793-2.02-3.793-3.891c0-2.783,2.562-3.817,5-3.817
		c1.133,0,2.389,0.197,3.25,0.468c0.099,0.37,0.148,0.887,0.148,1.182c0,0.32-0.099,0.985-0.222,1.404
		c-0.838-0.246-1.995-0.443-2.955-0.443c-1.183,0-1.995,0.295-1.995,1.034c0,0.788,0.911,1.108,2.34,1.576
		c2.487,0.813,3.669,1.847,3.669,3.793C247.473,137.153,245.06,138.458,242.522,138.458z"/>
	<path fill="#66A827" d="M257.101,137.966c-0.739,0.295-1.626,0.492-3.054,0.492c-2.783,0-4.162-1.354-4.162-4.063v-6.477h-2.118
		c-0.099-0.369-0.173-0.985-0.173-1.305c0-0.295,0.074-0.837,0.148-1.083l2.143-0.148v-3.3c0.271-0.049,1.133-0.098,1.699-0.098
		c0.615,0,1.379,0.049,1.699,0.098v3.3h3.546c0.099,0.345,0.148,0.837,0.148,1.108c0,0.295-0.025,1.083-0.123,1.428h-3.571v5.984
		c0,1.231,0.492,1.773,1.699,1.773c0.665,0,1.478-0.099,2.044-0.295c0.099,0.32,0.222,0.936,0.222,1.502
		C257.248,137.178,257.199,137.695,257.101,137.966z"/>
</g>
<g>
	<path fill="#66A827" d="M106.676,144.858c-1.034,0-1.872-0.837-1.872-1.872s0.837-1.872,1.872-1.872
		c1.035,0,1.872,0.837,1.872,1.872S107.71,144.858,106.676,144.858z M108.375,159.093c-0.443,0.099-1.355,0.123-1.749,0.123
		c-0.591,0-1.231-0.049-1.65-0.123v-12.831c0.542-0.074,1.207-0.123,1.65-0.123c0.591,0,1.207,0.049,1.749,0.123V159.093z"/>
	<path fill="#66A827" d="M130.391,159.093c-0.394,0.099-1.231,0.123-1.625,0.123c-0.418,0-1.379-0.049-1.773-0.123v-7.733
		c0-0.936-0.025-1.625-0.37-2.044c-0.32-0.394-0.812-0.542-1.428-0.542c-0.837,0-2.02,0.369-2.783,0.837
		c0.024,0.418,0.049,0.837,0.049,1.33v8.152c-0.394,0.099-1.231,0.123-1.625,0.123c-0.419,0-1.379-0.049-1.773-0.123v-7.733
		c0-0.936-0.024-1.625-0.37-2.044c-0.32-0.394-0.812-0.542-1.428-0.542c-0.862,0-1.97,0.345-2.733,0.812v9.506
		c-0.567,0.099-1.355,0.123-1.798,0.123c-0.394,0-1.108-0.024-1.601-0.123v-12.831c0.32-0.074,1.108-0.123,1.478-0.123
		c0.345,0,1.059,0.049,1.429,0.123l0.147,1.158c1.084-0.813,2.635-1.404,4.015-1.404c1.428,0,2.684,0.492,3.645,1.551
		c1.33-0.911,2.931-1.551,4.556-1.551c1.207,0,2.438,0.492,3.054,1.231c0.763,0.911,0.936,2.093,0.936,3.891V159.093z"/>
	<path fill="#66A827" d="M138.736,159.093c-0.763,0-1.798-0.123-2.414-0.296v6.083c-0.443,0.074-1.182,0.124-1.724,0.124
		c-0.665,0-1.182-0.074-1.675-0.124v-18.594c0.394-0.074,1.059-0.123,1.576-0.123c0.468,0,0.985,0.049,1.33,0.123l0.123,1.059
		c0.788-0.739,2.216-1.33,3.546-1.33c3.522,0,5.098,2.881,5.098,6.182C144.598,156.015,142.627,159.093,138.736,159.093z
		 M138.785,148.774c-0.911,0-1.872,0.369-2.463,0.911v6.526c0.468,0.148,1.379,0.247,2.02,0.247c1.823,0,2.758-1.503,2.758-3.99
		C141.1,150.03,140.214,148.774,138.785,148.774z"/>
	<path fill="#66A827" d="M153.707,148.872c-1.28,0.197-2.659,0.641-3.891,1.281v8.94c-0.345,0.074-1.084,0.123-1.675,0.123
		c-0.591,0-1.453-0.049-1.724-0.123v-12.831c0.37-0.049,0.985-0.123,1.478-0.123c0.419,0,1.084,0.049,1.429,0.123l0.197,1.576
		c0.911-0.812,2.562-1.699,4.162-1.822c0.05,0.197,0.099,0.911,0.099,1.428C153.781,147.937,153.757,148.527,153.707,148.872z"/>
	<path fill="#66A827" d="M160.429,159.339c-3.719,0-6.083-2.389-6.083-6.625c0-4.211,2.34-6.698,6.083-6.698
		s6.083,2.462,6.083,6.674C166.512,156.901,164.172,159.339,160.429,159.339z M160.429,148.675c-1.601,0-2.586,1.083-2.586,4.014
		s0.985,3.99,2.586,3.99s2.586-1.06,2.586-3.99C163.015,149.734,162.029,148.675,160.429,148.675z"/>
	<path fill="#66A827" d="M178.405,150.03l-3.694,9.063c-0.246,0.049-0.887,0.123-1.526,0.123c-0.665,0-1.38-0.074-1.675-0.123
		l-3.547-9.112c-0.468-1.231-0.689-2.438-0.689-3.719c0.443-0.074,1.06-0.123,1.576-0.123c0.715,0,1.207,0.049,1.601,0.123
		c0,0.911,0.124,1.921,0.443,2.881l2.267,6.501h0.049l2.34-6.501c0.32-0.96,0.443-1.798,0.443-2.881
		c0.345-0.049,1.083-0.123,1.625-0.123s1.108,0.049,1.502,0.123C179.119,147.641,178.873,148.897,178.405,150.03z"/>
	<path fill="#66A827" d="M191.258,153.872h-7.782c0.049,1.601,1.157,2.782,3.3,2.782c1.158,0,2.34-0.147,3.35-0.418
		c0.147,0.665,0.246,1.403,0.246,2.068c0,0.099,0,0.222-0.024,0.492c-1.256,0.37-2.562,0.542-3.842,0.542
		c-4.68,0-6.625-2.685-6.625-6.6c0-3.424,1.921-6.724,6.083-6.724c3.94,0,5.369,2.906,5.369,6.107
		C191.332,152.566,191.332,153.231,191.258,153.872z M187.934,151.434c0-1.552-0.419-2.857-2.02-2.857
		c-1.527,0-2.34,1.207-2.438,2.857H187.934z"/>
	<path fill="#66A827" d="M204.062,159.093c-0.394,0.074-1.059,0.123-1.576,0.123c-0.468,0-1.01-0.049-1.354-0.123l-0.099-1.133
		c-0.887,0.862-2.02,1.379-3.349,1.379c-3.67,0-5.246-2.931-5.246-6.452c0-3.793,1.699-6.871,5.615-6.871
		c0.96,0,2.068,0.295,2.61,0.64v-5.517c0.443-0.074,1.183-0.123,1.724-0.123c0.665,0,1.183,0.074,1.675,0.123V159.093z
		 M200.664,149.192c-0.591-0.271-1.354-0.418-1.995-0.418c-1.994,0-2.733,1.773-2.733,3.916c0,1.798,0.443,3.842,2.438,3.842
		c0.96,0,1.699-0.394,2.29-0.887V149.192z"/>
	<path fill="#66A827" d="M215.461,159.339c-1.453,0-2.979-0.222-4.162-0.615c-0.073-0.37-0.099-0.838-0.099-1.33
		c0-0.395,0.099-0.961,0.197-1.306c1.133,0.395,2.759,0.665,3.719,0.665c1.33,0,2.094-0.443,2.094-1.354
		c0-0.788-0.616-1.157-2.241-1.675c-2.586-0.812-3.793-2.02-3.793-3.891c0-2.783,2.562-3.817,5-3.817
		c1.133,0,2.389,0.197,3.25,0.468c0.099,0.37,0.148,0.887,0.148,1.182c0,0.32-0.099,0.985-0.222,1.404
		c-0.838-0.246-1.995-0.443-2.955-0.443c-1.183,0-1.995,0.295-1.995,1.034c0,0.788,0.911,1.108,2.34,1.576
		c2.487,0.812,3.669,1.848,3.669,3.793C220.411,158.034,217.998,159.339,215.461,159.339z"/>
	<path fill="#66A827" d="M230.039,158.847c-0.739,0.295-1.626,0.492-3.054,0.492c-2.783,0-4.162-1.354-4.162-4.063v-6.477h-2.118
		c-0.099-0.369-0.173-0.985-0.173-1.305c0-0.295,0.074-0.837,0.148-1.083l2.143-0.148v-3.3c0.271-0.049,1.133-0.098,1.699-0.098
		c0.615,0,1.379,0.049,1.699,0.098v3.3h3.546c0.099,0.345,0.148,0.837,0.148,1.108c0,0.295-0.025,1.083-0.123,1.428h-3.571v5.985
		c0,1.231,0.492,1.772,1.699,1.772c0.665,0,1.478-0.098,2.044-0.295c0.099,0.32,0.222,0.936,0.222,1.502
		C230.187,158.059,230.138,158.575,230.039,158.847z"/>
	<path fill="#66A827" d="M242.646,154.143c0,3.67-1.724,5.196-5.565,5.196c-3.744,0-5.468-1.526-5.468-5.196v-7.881
		c0.345-0.049,1.01-0.123,1.675-0.123c0.591,0,1.33,0.049,1.724,0.123v7.856c0,1.921,0.566,2.61,2.118,2.61
		c1.576,0,2.118-0.689,2.118-2.61v-7.856c0.345-0.074,1.108-0.123,1.724-0.123c0.616,0,1.429,0.074,1.675,0.123V154.143z"/>
	<path fill="#66A827" d="M256.066,159.093c-0.394,0.074-1.059,0.123-1.576,0.123c-0.468,0-1.01-0.049-1.354-0.123l-0.099-1.133
		c-0.887,0.862-2.02,1.379-3.349,1.379c-3.67,0-5.246-2.931-5.246-6.452c0-3.793,1.699-6.871,5.615-6.871
		c0.96,0,2.068,0.295,2.61,0.64v-5.517c0.443-0.074,1.183-0.123,1.724-0.123c0.665,0,1.183,0.074,1.675,0.123V159.093z
		 M252.668,149.192c-0.591-0.271-1.354-0.418-1.995-0.418c-1.994,0-2.733,1.773-2.733,3.916c0,1.798,0.443,3.842,2.438,3.842
		c0.96,0,1.699-0.394,2.29-0.887V149.192z"/>
	<path fill="#66A827" d="M269.215,153.872h-7.782c0.049,1.601,1.157,2.782,3.3,2.782c1.158,0,2.34-0.147,3.35-0.418
		c0.147,0.665,0.246,1.403,0.246,2.068c0,0.099,0,0.222-0.024,0.492c-1.256,0.37-2.562,0.542-3.842,0.542
		c-4.68,0-6.625-2.685-6.625-6.6c0-3.424,1.921-6.724,6.083-6.724c3.94,0,5.369,2.906,5.369,6.107
		C269.289,152.566,269.289,153.231,269.215,153.872z M265.891,151.434c0-1.552-0.419-2.857-2.02-2.857
		c-1.527,0-2.34,1.207-2.438,2.857H265.891z"/>
	<path fill="#66A827" d="M282.414,159.093c-0.395,0.099-1.231,0.123-1.626,0.123c-0.418,0-1.379-0.049-1.772-0.123v-8.423
		c0-1.33-0.69-1.896-1.798-1.896c-0.887,0-1.896,0.32-2.685,0.812v9.506c-0.566,0.099-1.354,0.123-1.798,0.123
		c-0.395,0-1.108-0.024-1.601-0.123v-12.831c0.319-0.074,1.107-0.123,1.478-0.123c0.345,0,1.059,0.049,1.428,0.123l0.173,1.133
		c1.108-0.812,2.709-1.379,4.138-1.379c2.709,0,4.063,1.674,4.063,4.482V159.093z"/>
	<path fill="#66A827" d="M293.075,158.847c-0.739,0.295-1.626,0.492-3.054,0.492c-2.783,0-4.162-1.354-4.162-4.063v-6.477h-2.118
		c-0.099-0.369-0.173-0.985-0.173-1.305c0-0.295,0.074-0.837,0.148-1.083l2.143-0.148v-3.3c0.271-0.049,1.133-0.098,1.699-0.098
		c0.615,0,1.379,0.049,1.699,0.098v3.3h3.546c0.099,0.345,0.148,0.837,0.148,1.108c0,0.295-0.025,1.083-0.123,1.428h-3.571v5.985
		c0,1.231,0.492,1.772,1.699,1.772c0.665,0,1.478-0.098,2.044-0.295c0.099,0.32,0.222,0.936,0.222,1.502
		C293.223,158.059,293.174,158.575,293.075,158.847z"/>
</g>
<g>
	<path fill="#66A827" d="M115.443,174.753h-7.782c0.049,1.601,1.157,2.782,3.3,2.782c1.158,0,2.34-0.147,3.35-0.418
		c0.148,0.665,0.246,1.403,0.246,2.068c0,0.099,0,0.222-0.024,0.492c-1.256,0.37-2.562,0.542-3.842,0.542
		c-4.679,0-6.625-2.685-6.625-6.6c0-3.424,1.921-6.724,6.083-6.724c3.94,0,5.369,2.906,5.369,6.107
		C115.517,173.447,115.517,174.112,115.443,174.753z M112.119,172.314c0-1.552-0.418-2.856-2.02-2.856
		c-1.527,0-2.339,1.206-2.438,2.856H112.119z"/>
	<path fill="#66A827" d="M122.14,175.27l-1.675,2.192c-0.542,0.714-0.862,1.675-0.911,2.512c-0.468,0.074-0.985,0.123-1.699,0.123
		c-0.616,0-1.354-0.049-1.675-0.123c0.099-1.379,0.739-2.586,1.699-3.793l2.291-2.856l-2.069-2.733
		c-0.936-1.231-1.453-2.291-1.601-3.473c0.246-0.05,0.788-0.123,1.576-0.123c0.591,0,1.231,0.073,1.527,0.123
		c0.172,0.887,0.714,1.748,1.305,2.536l1.256,1.699l1.281-1.699c0.64-0.812,1.231-1.649,1.379-2.536
		c0.295-0.05,0.985-0.123,1.576-0.123c0.788,0,1.108,0.073,1.428,0.123c-0.099,1.305-0.665,2.216-1.625,3.473l-2.093,2.709
		l2.241,2.782c0.985,1.257,1.601,2.488,1.724,3.892c-0.32,0.074-1.059,0.123-1.674,0.123c-0.714,0-1.231-0.049-1.7-0.123
		c-0.049-0.837-0.295-1.749-0.911-2.537L122.14,175.27z"/>
	<path fill="#66A827" d="M135.708,179.974c-0.763,0-1.798-0.123-2.414-0.296v6.083c-0.443,0.074-1.182,0.124-1.724,0.124
		c-0.665,0-1.182-0.074-1.675-0.124v-18.594c0.394-0.073,1.059-0.123,1.576-0.123c0.468,0,0.985,0.05,1.33,0.123l0.123,1.06
		c0.788-0.739,2.216-1.33,3.546-1.33c3.522,0,5.098,2.881,5.098,6.182C141.569,176.896,139.599,179.974,135.708,179.974z
		 M135.757,169.654c-0.911,0-1.872,0.37-2.463,0.911v6.526c0.468,0.148,1.379,0.247,2.02,0.247c1.823,0,2.758-1.503,2.758-3.99
		C138.072,170.91,137.186,169.654,135.757,169.654z"/>
	<path fill="#66A827" d="M154.028,174.753h-7.782c0.049,1.601,1.157,2.782,3.3,2.782c1.158,0,2.34-0.147,3.35-0.418
		c0.147,0.665,0.246,1.403,0.246,2.068c0,0.099,0,0.222-0.024,0.492c-1.256,0.37-2.562,0.542-3.842,0.542
		c-4.679,0-6.625-2.685-6.625-6.6c0-3.424,1.921-6.724,6.083-6.724c3.94,0,5.369,2.906,5.369,6.107
		C154.103,173.447,154.103,174.112,154.028,174.753z M150.704,172.314c0-1.552-0.418-2.856-2.02-2.856
		c-1.527,0-2.339,1.206-2.438,2.856H150.704z"/>
	<path fill="#66A827" d="M163.236,169.753c-1.28,0.197-2.659,0.641-3.891,1.281v8.939c-0.345,0.074-1.084,0.123-1.675,0.123
		s-1.453-0.049-1.724-0.123v-12.831c0.369-0.049,0.984-0.123,1.478-0.123c0.418,0,1.083,0.049,1.428,0.123l0.197,1.576
		c0.911-0.812,2.562-1.699,4.162-1.822c0.05,0.197,0.099,0.911,0.099,1.429C163.311,168.817,163.286,169.408,163.236,169.753z"/>
	<path fill="#66A827" d="M167.027,165.739c-1.034,0-1.871-0.838-1.871-1.872s0.837-1.872,1.871-1.872s1.872,0.838,1.872,1.872
		S168.062,165.739,167.027,165.739z M168.727,179.974c-0.443,0.099-1.354,0.123-1.748,0.123c-0.592,0-1.231-0.049-1.65-0.123
		v-12.831c0.542-0.074,1.207-0.123,1.65-0.123c0.591,0,1.206,0.049,1.748,0.123V179.974z"/>
	<path fill="#66A827" d="M182.123,174.753h-7.782c0.049,1.601,1.157,2.782,3.3,2.782c1.158,0,2.34-0.147,3.35-0.418
		c0.147,0.665,0.246,1.403,0.246,2.068c0,0.099,0,0.222-0.024,0.492c-1.256,0.37-2.562,0.542-3.842,0.542
		c-4.68,0-6.625-2.685-6.625-6.6c0-3.424,1.921-6.724,6.083-6.724c3.94,0,5.369,2.906,5.369,6.107
		C182.197,173.447,182.197,174.112,182.123,174.753z M178.799,172.314c0-1.552-0.419-2.856-2.02-2.856
		c-1.527,0-2.34,1.206-2.438,2.856H178.799z"/>
	<path fill="#66A827" d="M195.321,179.974c-0.395,0.099-1.231,0.123-1.626,0.123c-0.418,0-1.379-0.049-1.772-0.123v-8.423
		c0-1.33-0.69-1.896-1.798-1.896c-0.887,0-1.896,0.32-2.685,0.813v9.506c-0.566,0.099-1.354,0.123-1.798,0.123
		c-0.395,0-1.108-0.024-1.601-0.123v-12.831c0.319-0.074,1.107-0.123,1.478-0.123c0.345,0,1.059,0.049,1.428,0.123l0.173,1.133
		c1.108-0.812,2.709-1.379,4.138-1.379c2.709,0,4.063,1.675,4.063,4.482V179.974z"/>
	<path fill="#66A827" d="M206.967,168.521c0,0.542-0.073,1.133-0.246,1.65c-0.812-0.32-1.871-0.518-2.881-0.518
		c-1.921,0-3.227,1.231-3.227,3.99c0,2.413,1.108,3.817,3.251,3.817c1.108,0,2.167-0.197,2.955-0.468
		c0.147,0.541,0.222,1.206,0.222,1.724c0,0.345,0,0.591-0.024,0.812c-0.985,0.443-2.29,0.689-3.521,0.689
		c-4.261,0-6.379-2.487-6.379-6.526c0-4.187,2.217-6.797,6.526-6.797c1.207,0,2.389,0.246,3.227,0.641
		C206.942,167.808,206.967,168.152,206.967,168.521z"/>
	<path fill="#66A827" d="M219.229,174.753h-7.782c0.049,1.601,1.157,2.782,3.3,2.782c1.158,0,2.34-0.147,3.35-0.418
		c0.147,0.665,0.246,1.403,0.246,2.068c0,0.099,0,0.222-0.024,0.492c-1.256,0.37-2.562,0.542-3.842,0.542
		c-4.68,0-6.625-2.685-6.625-6.6c0-3.424,1.921-6.724,6.083-6.724c3.94,0,5.369,2.906,5.369,6.107
		C219.304,173.447,219.304,174.112,219.229,174.753z M215.905,172.314c0-1.552-0.419-2.856-2.02-2.856
		c-1.527,0-2.34,1.206-2.438,2.856H215.905z"/>
</g>
<g>
	<path fill="#333333" d="M104.504,189.842c-0.271,0-0.495-0.235-0.495-0.519s0.224-0.507,0.495-0.507
		c0.271,0,0.507,0.224,0.507,0.507S104.775,189.842,104.504,189.842z M104.893,197.19c-0.106,0.035-0.259,0.059-0.389,0.059
		c-0.129,0-0.271-0.023-0.377-0.059v-6.146c0.094-0.023,0.248-0.059,0.366-0.059c0.13,0,0.307,0.023,0.401,0.059V197.19z"/>
	<path fill="#333333" d="M111.381,197.202c-0.094,0.023-0.236,0.047-0.377,0.047c-0.118,0-0.271-0.023-0.389-0.059v-3.739
		c0-0.566-0.071-1.002-0.236-1.309c-0.201-0.378-0.578-0.566-1.191-0.566c-0.59,0-1.297,0.33-1.757,0.684v4.931
		c-0.13,0.035-0.26,0.059-0.401,0.059c-0.118,0-0.259-0.023-0.365-0.059v-6.146c0.083-0.035,0.224-0.047,0.307-0.047
		c0.118,0,0.259,0.012,0.33,0.047l0.059,0.613h0.012c0.649-0.53,1.392-0.73,1.993-0.73s1.227,0.2,1.569,0.613
		c0.377,0.448,0.448,1.097,0.448,1.733V197.202z"/>
	<path fill="#333333" d="M119.051,197.132c-0.307,0.105-0.767,0.177-1.109,0.177c-1.167,0-1.722-0.555-1.722-1.864v-3.798h-1.062
		c-0.023-0.059-0.035-0.2-0.035-0.271c0-0.059,0.012-0.2,0.035-0.259l1.062-0.071v-1.604c0.095-0.036,0.248-0.06,0.377-0.06
		c0.13,0,0.295,0.023,0.39,0.06v1.604h1.734c0.023,0.06,0.047,0.236,0.047,0.295c0,0.083-0.023,0.225-0.047,0.307h-1.734v3.728
		c0,0.932,0.271,1.321,1.002,1.321c0.401,0,0.79-0.06,1.062-0.142c0.023,0.059,0.047,0.2,0.047,0.283
		C119.098,196.942,119.086,197.025,119.051,197.132z"/>
	<path fill="#333333" d="M125.021,197.19c-0.106,0.035-0.236,0.059-0.354,0.059c-0.141,0-0.294-0.023-0.413-0.059v-3.728
		c0-1.297-0.33-1.887-1.427-1.887c-0.59,0-1.297,0.33-1.757,0.684v4.931c-0.13,0.035-0.271,0.059-0.401,0.059
		c-0.118,0-0.259-0.023-0.365-0.059v-8.61c0.106-0.035,0.271-0.059,0.377-0.059c0.106,0,0.283,0.023,0.389,0.059v3.031
		c0.625-0.483,1.368-0.684,1.946-0.684c0.602,0,1.215,0.2,1.557,0.613c0.377,0.448,0.448,1.097,0.448,1.733V197.19z"/>
	<path fill="#333333" d="M131.097,194.324h-3.952c0.047,1.356,0.684,2.383,2.159,2.383c0.531,0,1.026-0.071,1.462-0.177
		c0.024,0.059,0.047,0.177,0.047,0.247c0,0.118-0.023,0.225-0.059,0.307c-0.46,0.142-1.038,0.225-1.521,0.225
		c-0.932,0-1.64-0.295-2.076-0.767c-0.519-0.566-0.791-1.416-0.791-2.395c0-1.71,0.861-3.22,2.583-3.22
		c1.545,0,2.159,1.273,2.159,2.83C131.108,193.935,131.108,194.147,131.097,194.324z M130.342,193.758
		c0-1.085-0.118-2.253-1.427-2.253c-1.144,0-1.699,1.05-1.77,2.253H130.342z"/>
	<path fill="#333333" d="M136.183,194.466c0,0.778,0.13,1.368,0.472,1.746c0.294,0.318,0.743,0.507,1.415,0.507
		s1.132-0.188,1.427-0.507c0.342-0.378,0.472-0.968,0.472-1.746v-5.249c0.106-0.035,0.295-0.059,0.401-0.059
		c0.118,0,0.295,0.023,0.401,0.059v5.131c0,1.05-0.201,1.781-0.696,2.276c-0.437,0.437-1.097,0.685-2.005,0.685
		s-1.557-0.248-1.993-0.685c-0.496-0.495-0.696-1.227-0.696-2.276v-5.131c0.094-0.035,0.259-0.059,0.401-0.059
		s0.283,0.023,0.401,0.059V194.466z"/>
	<path fill="#333333" d="M148.062,197.19c-0.094,0.035-0.283,0.059-0.424,0.059s-0.307-0.012-0.507-0.059l-2.63-3.916l-0.849,0.955
		v2.961c-0.094,0.035-0.283,0.059-0.413,0.059c-0.129,0-0.294-0.023-0.389-0.059v-7.974c0.095-0.035,0.26-0.059,0.389-0.059
		c0.13,0,0.319,0.023,0.413,0.059v3.999l2.512-2.878c0.354-0.401,0.542-0.791,0.602-1.121c0.106-0.012,0.26-0.035,0.377-0.035
		c0.118,0,0.307,0.023,0.389,0.035c-0.023,0.378-0.259,0.885-0.743,1.439l-1.769,2.04L148.062,197.19z"/>
	<path fill="#333333" d="M153.668,198.5c-1.309-1.31-1.981-3.126-1.981-4.801c0-1.852,0.708-3.551,1.981-4.859
		c0.13,0.035,0.26,0.105,0.354,0.2c-1.097,1.403-1.581,3.031-1.581,4.636c0,1.592,0.484,3.173,1.581,4.623
		C153.928,198.394,153.798,198.464,153.668,198.5z"/>
	<path fill="#333333" d="M160.864,189.83h-2.324v7.36c-0.095,0.035-0.271,0.059-0.401,0.059c-0.129,0-0.307-0.023-0.4-0.059v-7.36
		h-2.324c-0.035-0.07-0.059-0.2-0.059-0.307c0-0.094,0.023-0.224,0.059-0.307h5.45c0.035,0.083,0.059,0.213,0.059,0.307
		C160.923,189.63,160.899,189.76,160.864,189.83z"/>
	<path fill="#333333" d="M167.813,197.19c-0.095,0.035-0.271,0.059-0.401,0.059s-0.307-0.023-0.4-0.059v-3.691h-3.857v3.691
		c-0.095,0.035-0.271,0.059-0.401,0.059s-0.307-0.023-0.4-0.059v-7.974c0.094-0.035,0.271-0.059,0.4-0.059s0.307,0.023,0.401,0.059
		v3.645h3.857v-3.645c0.094-0.035,0.271-0.059,0.4-0.059s0.307,0.023,0.401,0.059V197.19z"/>
	<path fill="#333333" d="M174.279,197.19h-4.34v-7.974h4.163c0.035,0.083,0.06,0.213,0.06,0.307c0,0.106-0.024,0.236-0.06,0.307
		h-3.361v2.926h2.901c0.023,0.059,0.06,0.212,0.06,0.307c0,0.094-0.024,0.224-0.06,0.318h-2.901v3.196h3.538
		c0.036,0.082,0.06,0.212,0.06,0.307C174.339,196.99,174.315,197.12,174.279,197.19z"/>
	<path fill="#333333" d="M181.064,194.819c-0.578,0.673-1.12,1.251-1.58,1.746h3.633c0.035,0.106,0.035,0.235,0.035,0.307
		c0,0.106-0.012,0.212-0.035,0.318h-4.447c-0.07-0.2-0.094-0.33-0.094-0.46c0-0.083,0-0.118,0.012-0.188
		c0.684-0.743,1.498-1.628,1.97-2.159c1.297-1.462,1.793-2.347,1.793-3.22c0-0.99-0.566-1.486-1.486-1.486
		c-0.625,0-1.356,0.188-1.935,0.448c-0.023-0.07-0.035-0.235-0.035-0.307c0-0.106,0.023-0.212,0.059-0.307
		c0.472-0.212,1.298-0.413,2.017-0.413c1.321,0,2.229,0.731,2.229,1.994C183.199,192.154,182.633,193.003,181.064,194.819z"/>
	<path fill="#333333" d="M187.188,197.309c-1.593,0-2.478-1.18-2.478-4.104c0-2.926,0.979-4.105,2.524-4.105
		c1.568,0,2.477,1.18,2.477,4.105C189.712,196.129,188.733,197.309,187.188,197.309z M187.235,189.677
		c-1.18,0-1.675,1.203-1.675,3.527c0,2.323,0.46,3.526,1.64,3.526c1.179,0,1.663-1.203,1.663-3.526
		C188.863,190.88,188.415,189.677,187.235,189.677z"/>
	<path fill="#333333" d="M194.515,197.19c-0.095,0.035-0.271,0.059-0.401,0.059s-0.307-0.023-0.4-0.059v-7.171l-2.064,1.309
		c-0.118-0.106-0.26-0.318-0.307-0.519l2.524-1.604c0.082-0.023,0.212-0.047,0.307-0.047c0.117,0,0.247,0.023,0.342,0.059V197.19z"
		/>
	<path fill="#333333" d="M200.131,197.309c-1.911,0-2.501-1.521-2.501-3.598c0-2.465,0.861-4.612,3.351-4.612
		c0.282,0,0.577,0.048,0.742,0.095c0.036,0.07,0.048,0.188,0.048,0.248c0,0.07-0.023,0.224-0.06,0.283
		c-0.177-0.036-0.448-0.071-0.672-0.071c-1.593,0-2.406,1.31-2.536,3.361c0.448-0.424,1.203-0.731,1.899-0.731
		c1.285,0,2.1,0.968,2.1,2.348C202.502,196.141,201.652,197.309,200.131,197.309z M200.331,192.873
		c-0.613,0-1.368,0.319-1.852,0.826c-0.012,0.165-0.012,0.283-0.012,0.389c0,1.546,0.448,2.666,1.663,2.666
		c1.073,0,1.521-1.097,1.521-2.076C201.652,193.793,201.369,192.873,200.331,192.873z"/>
	<path fill="#333333" d="M205.429,193.676c0-1.604-0.483-3.232-1.581-4.636c0.095-0.095,0.225-0.165,0.354-0.2
		c1.273,1.309,1.981,3.008,1.981,4.859c0,1.675-0.673,3.491-1.981,4.801c-0.13-0.036-0.26-0.106-0.354-0.201
		C204.945,196.849,205.429,195.268,205.429,193.676z"/>
</g>
</svg>
