<?xml version="1.0" encoding="utf-8"?>
<!-- Generator: Adobe Illustrator 16.0.0, SVG Export Plug-In . SVG Version: 6.00 Build 0)  -->
<!DOCTYPE svg PUBLIC "-//W3C//DTD SVG 1.1//EN" "http://www.w3.org/Graphics/SVG/1.1/DTD/svg11.dtd">
<svg version="1.1" id="Layer_1" xmlns="http://www.w3.org/2000/svg" xmlns:xlink="http://www.w3.org/1999/xlink" x="0px" y="0px"
	 width="300px" height="300px" viewBox="0 0 300 300" enable-background="new 0 0 300 300" xml:space="preserve">
<g>
	<path fill="#333333" d="M15.797,50.634H9.12V38.37h6.404c0.055,0.127,0.091,0.327,0.091,0.472c0,0.164-0.036,0.363-0.091,0.472
		h-5.17v4.499h4.463c0.037,0.091,0.091,0.327,0.091,0.472c0,0.146-0.036,0.345-0.091,0.49h-4.463v4.917h5.443
		c0.054,0.127,0.091,0.327,0.091,0.472C15.888,50.326,15.851,50.525,15.797,50.634z"/>
	<path fill="#333333" d="M19.859,50.816c-0.907,0-1.851-0.164-2.504-0.417c-0.054-0.127-0.091-0.345-0.091-0.508
		c0-0.109,0.037-0.381,0.073-0.49c0.671,0.272,1.633,0.49,2.431,0.49c1.379,0,2.231-0.581,2.231-1.724
		c0-1.034-0.526-1.397-1.959-1.923c-1.996-0.726-2.649-1.56-2.649-2.794c0-1.669,1.379-2.449,3.157-2.449
		c0.599,0,1.379,0.109,1.832,0.254c0.055,0.164,0.073,0.327,0.073,0.436c0,0.145-0.036,0.399-0.073,0.526
		c-0.599-0.181-1.233-0.29-1.85-0.29c-1.289,0-2.068,0.49-2.068,1.488c0,0.871,0.49,1.288,1.978,1.851
		c1.36,0.508,2.612,1.016,2.612,2.848C23.052,49.963,21.655,50.816,19.859,50.816z"/>
	<path fill="#333333" d="M29.601,50.543c-0.472,0.164-1.179,0.272-1.706,0.272c-1.796,0-2.649-0.853-2.649-2.867v-5.842h-1.633
		c-0.036-0.091-0.054-0.309-0.054-0.417c0-0.091,0.018-0.309,0.054-0.399l1.633-0.109v-2.468c0.146-0.054,0.381-0.09,0.581-0.09
		c0.2,0,0.454,0.036,0.599,0.09v2.468h2.667c0.036,0.09,0.072,0.363,0.072,0.454c0,0.127-0.036,0.344-0.072,0.472h-2.667v5.733
		c0,1.433,0.417,2.032,1.542,2.032c0.617,0,1.215-0.09,1.633-0.217c0.036,0.09,0.073,0.308,0.073,0.435
		C29.674,50.253,29.655,50.38,29.601,50.543z"/>
	<path fill="#333333" d="M37.401,48.312c0,0.653,0,1.47,0.037,2.322c-0.127,0.054-0.327,0.091-0.49,0.091
		c-0.145,0-0.345-0.037-0.49-0.091c-0.054-0.291-0.091-0.671-0.109-1.016h-0.018c-0.617,0.762-1.706,1.198-2.776,1.198
		c-1.687,0-3.103-0.944-3.103-2.885c0-1.107,0.454-1.923,1.161-2.431c0.798-0.562,1.851-0.744,2.976-0.744
		c0.635,0,1.161,0.037,1.633,0.109v-0.526c0-1.814-0.744-2.413-2.268-2.413c-0.853,0-1.905,0.182-2.558,0.345
		c-0.037-0.091-0.073-0.291-0.073-0.472c0-0.127,0.036-0.309,0.091-0.417C32.194,41.146,33.228,41,34.099,41
		c2.159,0,3.302,0.979,3.302,3.193V48.312z M36.222,45.754c-0.526-0.073-1.07-0.109-1.542-0.109c-0.889,0-1.688,0.163-2.231,0.581
		c-0.49,0.363-0.762,0.943-0.762,1.688c0,1.324,0.853,1.959,2.032,1.959c0.979,0,2.014-0.472,2.503-1.215V45.754z"/>
	<path fill="#333333" d="M42.589,50.816c-0.835,0-1.905-0.127-2.903-0.49V37.39c0.127-0.036,0.399-0.091,0.562-0.091
		c0.291,0,0.508,0.055,0.617,0.091v4.59C41.609,41.363,42.552,41,43.55,41c2.558,0,3.628,2.195,3.628,4.645
		C47.179,48.766,45.582,50.816,42.589,50.816z M43.387,42.017c-0.907,0-1.814,0.381-2.521,1.088v6.513
		c0.49,0.182,1.106,0.291,1.633,0.291c2.522,0,3.447-1.923,3.447-4.191C45.945,43.958,45.437,42.017,43.387,42.017z"/>
	<path fill="#333333" d="M50.116,50.634c-0.2,0.054-0.399,0.091-0.617,0.091c-0.182,0-0.399-0.037-0.562-0.091V37.39
		c0.163-0.036,0.363-0.091,0.599-0.091c0.2,0,0.417,0.036,0.581,0.091V50.634z"/>
	<path fill="#333333" d="M53.055,39.332c-0.417,0-0.762-0.363-0.762-0.798s0.345-0.78,0.762-0.78c0.417,0,0.78,0.345,0.78,0.78
		S53.472,39.332,53.055,39.332z M53.653,50.634c-0.163,0.054-0.399,0.091-0.599,0.091c-0.199,0-0.417-0.037-0.581-0.091v-9.452
		c0.145-0.037,0.381-0.091,0.562-0.091c0.2,0,0.472,0.036,0.617,0.091V50.634z"/>
	<path fill="#333333" d="M58.062,50.816c-0.907,0-1.851-0.164-2.504-0.417c-0.054-0.127-0.091-0.345-0.091-0.508
		c0-0.109,0.037-0.381,0.073-0.49c0.671,0.272,1.633,0.49,2.431,0.49c1.379,0,2.231-0.581,2.231-1.724
		c0-1.034-0.526-1.397-1.959-1.923c-1.996-0.726-2.648-1.56-2.648-2.794c0-1.669,1.378-2.449,3.157-2.449
		c0.599,0,1.379,0.109,1.832,0.254c0.055,0.164,0.073,0.327,0.073,0.436c0,0.145-0.036,0.399-0.073,0.526
		c-0.599-0.181-1.233-0.29-1.85-0.29c-1.289,0-2.068,0.49-2.068,1.488c0,0.871,0.49,1.288,1.978,1.851
		c1.36,0.508,2.612,1.016,2.612,2.848C61.255,49.963,59.858,50.816,58.062,50.816z"/>
	<path fill="#333333" d="M70.216,50.634c-0.163,0.054-0.363,0.091-0.544,0.091c-0.217,0-0.453-0.037-0.635-0.091v-5.733
		c0-1.996-0.508-2.903-2.195-2.903c-0.907,0-1.996,0.508-2.703,1.052v7.583c-0.2,0.054-0.417,0.091-0.617,0.091
		c-0.181,0-0.399-0.037-0.562-0.091V37.39c0.163-0.055,0.417-0.091,0.581-0.091c0.163,0,0.435,0.036,0.599,0.091v4.663
		C65.1,41.309,66.243,41,67.132,41c0.925,0,1.869,0.309,2.395,0.943c0.581,0.689,0.689,1.688,0.689,2.667V50.634z"/>
	<path fill="#333333" d="M73.063,39.332c-0.417,0-0.762-0.363-0.762-0.798s0.345-0.78,0.762-0.78c0.417,0,0.78,0.345,0.78,0.78
		S73.48,39.332,73.063,39.332z M73.662,50.634c-0.163,0.054-0.399,0.091-0.599,0.091c-0.199,0-0.417-0.037-0.581-0.091v-9.452
		c0.146-0.037,0.381-0.091,0.562-0.091c0.2,0,0.472,0.036,0.617,0.091V50.634z"/>
	<path fill="#333333" d="M83.241,50.652c-0.145,0.036-0.363,0.073-0.581,0.073c-0.181,0-0.417-0.037-0.599-0.091v-5.751
		c0-0.871-0.109-1.542-0.363-2.014c-0.309-0.581-0.889-0.871-1.833-0.871c-0.907,0-1.996,0.508-2.703,1.052v7.583
		c-0.2,0.054-0.399,0.091-0.617,0.091c-0.181,0-0.399-0.037-0.562-0.091v-9.452c0.127-0.055,0.345-0.073,0.472-0.073
		c0.181,0,0.399,0.018,0.508,0.073l0.091,0.943h0.018C78.07,41.309,79.213,41,80.138,41s1.887,0.309,2.413,0.943
		c0.581,0.689,0.689,1.688,0.689,2.667V50.652z"/>
	<path fill="#333333" d="M92.274,49.056c0,1.361-0.073,2.994-0.726,4.119c-0.78,1.342-2.177,1.923-3.574,1.923
		c-0.798,0-1.488-0.09-2.068-0.29c-0.055-0.109-0.073-0.291-0.073-0.436c0-0.109,0.036-0.327,0.073-0.436
		c0.562,0.146,1.215,0.254,1.869,0.254c2.286,0,3.32-1.416,3.32-3.901v-0.762c-0.708,0.744-1.705,1.107-2.521,1.107
		c-2.413,0-3.665-1.869-3.665-4.5c0-3.229,1.905-5.134,4.717-5.134c0.744,0,1.869,0.218,2.649,0.526V49.056z M91.095,42.107
		c-0.653-0.182-1.125-0.236-1.578-0.236c-2.304,0-3.393,1.941-3.393,4.209c0,2.014,0.762,3.592,2.54,3.592
		c0.907,0,1.833-0.454,2.431-1.089V42.107z"/>
	<path fill="#333333" d="M100.4,50.816c-0.907,0-1.851-0.164-2.504-0.417c-0.054-0.127-0.091-0.345-0.091-0.508
		c0-0.109,0.037-0.381,0.073-0.49c0.671,0.272,1.633,0.49,2.431,0.49c1.379,0,2.231-0.581,2.231-1.724
		c0-1.034-0.526-1.397-1.959-1.923c-1.996-0.726-2.648-1.56-2.648-2.794c0-1.669,1.378-2.449,3.157-2.449
		c0.599,0,1.379,0.109,1.832,0.254c0.055,0.164,0.073,0.327,0.073,0.436c0,0.145-0.036,0.399-0.073,0.526
		c-0.599-0.181-1.233-0.29-1.85-0.29c-1.289,0-2.068,0.49-2.068,1.488c0,0.871,0.49,1.288,1.978,1.851
		c1.36,0.508,2.612,1.016,2.612,2.848C103.593,49.963,102.196,50.816,100.4,50.816z"/>
	<path fill="#333333" d="M110.16,50.543c-0.472,0.164-1.179,0.272-1.706,0.272c-1.796,0-2.649-0.853-2.649-2.867v-5.842h-1.633
		c-0.036-0.091-0.054-0.309-0.054-0.417c0-0.091,0.018-0.309,0.054-0.399l1.633-0.109v-2.468c0.146-0.054,0.381-0.09,0.581-0.09
		c0.2,0,0.454,0.036,0.599,0.09v2.468h2.667c0.036,0.09,0.072,0.363,0.072,0.454c0,0.127-0.036,0.344-0.072,0.472h-2.667v5.733
		c0,1.433,0.417,2.032,1.542,2.032c0.617,0,1.215-0.09,1.633-0.217c0.036,0.09,0.073,0.308,0.073,0.435
		C110.232,50.253,110.214,50.38,110.16,50.543z"/>
	<path fill="#333333" d="M115.91,42.053c-1.052,0.145-2.195,0.526-3.048,1.179v7.402c-0.182,0.054-0.399,0.091-0.599,0.091
		c-0.2,0-0.399-0.037-0.581-0.091v-9.452c0.109-0.037,0.272-0.073,0.454-0.073c0.145,0,0.344,0.036,0.49,0.073l0.091,1.161h0.018
		c0.78-0.671,2.141-1.234,3.175-1.343c0.036,0.109,0.073,0.309,0.073,0.472C115.982,41.654,115.946,41.89,115.91,42.053z"/>
	<path fill="#333333" d="M123.402,48.312c0,0.653,0,1.47,0.037,2.322c-0.127,0.054-0.327,0.091-0.49,0.091
		c-0.145,0-0.345-0.037-0.49-0.091c-0.054-0.291-0.091-0.671-0.109-1.016h-0.018c-0.617,0.762-1.706,1.198-2.776,1.198
		c-1.687,0-3.103-0.944-3.103-2.885c0-1.107,0.454-1.923,1.161-2.431c0.798-0.562,1.851-0.744,2.976-0.744
		c0.635,0,1.161,0.037,1.633,0.109v-0.526c0-1.814-0.744-2.413-2.268-2.413c-0.853,0-1.905,0.182-2.558,0.345
		c-0.037-0.091-0.073-0.291-0.073-0.472c0-0.127,0.036-0.309,0.091-0.417c0.78-0.236,1.814-0.381,2.685-0.381
		c2.159,0,3.302,0.979,3.302,3.193V48.312z M122.223,45.754c-0.526-0.073-1.07-0.109-1.542-0.109c-0.889,0-1.688,0.163-2.231,0.581
		c-0.49,0.363-0.762,0.943-0.762,1.688c0,1.324,0.853,1.959,2.032,1.959c0.979,0,2.014-0.472,2.503-1.215V45.754z"/>
	<path fill="#333333" d="M130.712,50.543c-0.472,0.164-1.179,0.272-1.706,0.272c-1.796,0-2.649-0.853-2.649-2.867v-5.842h-1.633
		c-0.036-0.091-0.054-0.309-0.054-0.417c0-0.091,0.018-0.309,0.054-0.399l1.633-0.109v-2.468c0.146-0.054,0.381-0.09,0.581-0.09
		c0.2,0,0.454,0.036,0.599,0.09v2.468h2.667c0.036,0.09,0.072,0.363,0.072,0.454c0,0.127-0.036,0.344-0.072,0.472h-2.667v5.733
		c0,1.433,0.417,2.032,1.542,2.032c0.617,0,1.215-0.09,1.633-0.217c0.036,0.09,0.073,0.308,0.073,0.435
		C130.785,50.253,130.766,50.38,130.712,50.543z"/>
	<path fill="#333333" d="M138.549,46.226h-6.078c0.073,2.086,1.052,3.665,3.32,3.665c0.816,0,1.579-0.109,2.25-0.272
		c0.037,0.091,0.073,0.272,0.073,0.381c0,0.181-0.036,0.344-0.091,0.472c-0.708,0.217-1.597,0.345-2.34,0.345
		c-1.433,0-2.522-0.454-3.193-1.18c-0.798-0.871-1.216-2.177-1.216-3.683c0-2.631,1.324-4.953,3.973-4.953
		c2.377,0,3.32,1.959,3.32,4.354C138.567,45.627,138.567,45.954,138.549,46.226z M137.388,45.355c0-1.669-0.182-3.465-2.195-3.465
		c-1.76,0-2.613,1.615-2.722,3.465H137.388z"/>
	<path fill="#333333" d="M147.165,49.056c0,1.361-0.073,2.994-0.726,4.119c-0.78,1.342-2.177,1.923-3.574,1.923
		c-0.798,0-1.488-0.09-2.068-0.29c-0.055-0.109-0.073-0.291-0.073-0.436c0-0.109,0.036-0.327,0.073-0.436
		c0.562,0.146,1.215,0.254,1.869,0.254c2.286,0,3.32-1.416,3.32-3.901v-0.762c-0.708,0.744-1.705,1.107-2.521,1.107
		c-2.413,0-3.665-1.869-3.665-4.5c0-3.229,1.905-5.134,4.717-5.134c0.744,0,1.869,0.218,2.649,0.526V49.056z M145.985,42.107
		c-0.653-0.182-1.125-0.236-1.578-0.236c-2.304,0-3.393,1.941-3.393,4.209c0,2.014,0.762,3.592,2.54,3.592
		c0.907,0,1.833-0.454,2.431-1.089V42.107z"/>
	<path fill="#333333" d="M150.066,39.332c-0.417,0-0.762-0.363-0.762-0.798s0.345-0.78,0.762-0.78c0.417,0,0.779,0.345,0.779,0.78
		S150.483,39.332,150.066,39.332z M150.665,50.634c-0.163,0.054-0.399,0.091-0.599,0.091c-0.2,0-0.417-0.037-0.581-0.091v-9.452
		c0.146-0.037,0.381-0.091,0.562-0.091c0.199,0,0.472,0.036,0.617,0.091V50.634z"/>
	<path fill="#333333" d="M158.919,42.325c-0.581-0.236-1.343-0.381-2.014-0.381c-2.358,0-3.229,1.833-3.229,4.046
		c0,2.177,0.834,3.864,3.211,3.864c0.635,0,1.397-0.109,1.96-0.272c0.036,0.109,0.072,0.236,0.072,0.381
		c0,0.218-0.036,0.381-0.091,0.508c-0.526,0.217-1.379,0.345-2.05,0.345c-2.958,0-4.336-1.941-4.336-4.79
		c0-2.957,1.506-5.025,4.39-5.025c0.689,0,1.506,0.163,2.068,0.417c0.055,0.145,0.073,0.29,0.073,0.454
		C158.974,42.053,158.955,42.198,158.919,42.325z"/>
</g>
<g>
	<path fill="#333333" d="M13.039,64.51c-1.052,0.145-2.195,0.526-3.048,1.179v7.402c-0.182,0.054-0.399,0.091-0.599,0.091
		c-0.2,0-0.399-0.037-0.581-0.091v-9.452c0.109-0.037,0.272-0.073,0.454-0.073c0.145,0,0.345,0.036,0.49,0.073L9.846,64.8h0.018
		c0.78-0.671,2.141-1.234,3.175-1.343c0.036,0.109,0.073,0.309,0.073,0.472C13.112,64.111,13.075,64.347,13.039,64.51z"/>
	<path fill="#333333" d="M20.913,68.683h-6.078c0.073,2.086,1.052,3.665,3.32,3.665c0.816,0,1.579-0.109,2.25-0.272
		c0.037,0.091,0.073,0.272,0.073,0.381c0,0.181-0.036,0.344-0.091,0.472c-0.708,0.217-1.597,0.345-2.34,0.345
		c-1.433,0-2.522-0.454-3.193-1.18c-0.798-0.871-1.216-2.177-1.216-3.683c0-2.631,1.325-4.953,3.973-4.953
		c2.377,0,3.32,1.959,3.32,4.354C20.931,68.084,20.931,68.411,20.913,68.683z M19.751,67.812c0-1.669-0.182-3.465-2.195-3.465
		c-1.76,0-2.613,1.615-2.722,3.465H19.751z"/>
	<path fill="#333333" d="M24.793,73.273c-0.907,0-1.851-0.164-2.504-0.417c-0.054-0.127-0.091-0.345-0.091-0.508
		c0-0.109,0.037-0.381,0.073-0.49c0.671,0.272,1.633,0.49,2.431,0.49c1.379,0,2.231-0.581,2.231-1.724
		c0-1.034-0.526-1.397-1.959-1.923c-1.996-0.726-2.648-1.56-2.648-2.794c0-1.669,1.378-2.449,3.157-2.449
		c0.599,0,1.379,0.109,1.832,0.254c0.055,0.164,0.073,0.327,0.073,0.436c0,0.145-0.036,0.399-0.073,0.526
		c-0.599-0.181-1.233-0.29-1.85-0.29c-1.289,0-2.068,0.49-2.068,1.488c0,0.871,0.49,1.288,1.978,1.851
		c1.36,0.508,2.612,1.016,2.612,2.848C27.986,72.42,26.589,73.273,24.793,73.273z"/>
	<path fill="#333333" d="M36.44,68.683h-6.078c0.073,2.086,1.052,3.665,3.32,3.665c0.816,0,1.579-0.109,2.25-0.272
		c0.037,0.091,0.073,0.272,0.073,0.381c0,0.181-0.036,0.344-0.091,0.472c-0.708,0.217-1.597,0.345-2.34,0.345
		c-1.433,0-2.522-0.454-3.193-1.18c-0.798-0.871-1.216-2.177-1.216-3.683c0-2.631,1.325-4.953,3.973-4.953
		c2.377,0,3.32,1.959,3.32,4.354C36.458,68.084,36.458,68.411,36.44,68.683z M35.279,67.812c0-1.669-0.182-3.465-2.195-3.465
		c-1.76,0-2.613,1.615-2.722,3.465H35.279z"/>
	<path fill="#333333" d="M44.675,70.769c0,0.653,0,1.47,0.037,2.322c-0.127,0.054-0.327,0.091-0.49,0.091
		c-0.145,0-0.345-0.037-0.49-0.091c-0.054-0.291-0.091-0.671-0.109-1.016h-0.018c-0.617,0.762-1.706,1.198-2.776,1.198
		c-1.687,0-3.103-0.944-3.103-2.885c0-1.107,0.454-1.923,1.161-2.431c0.798-0.562,1.851-0.744,2.976-0.744
		c0.635,0,1.161,0.037,1.633,0.109v-0.526c0-1.814-0.744-2.413-2.268-2.413c-0.853,0-1.905,0.182-2.558,0.345
		c-0.037-0.091-0.073-0.291-0.073-0.472c0-0.127,0.036-0.309,0.091-0.417c0.78-0.236,1.814-0.381,2.685-0.381
		c2.159,0,3.302,0.979,3.302,3.193V70.769z M43.496,68.211c-0.526-0.073-1.07-0.109-1.542-0.109c-0.889,0-1.688,0.163-2.231,0.581
		c-0.49,0.363-0.762,0.943-0.762,1.688c0,1.324,0.853,1.959,2.032,1.959c0.979,0,2.014-0.472,2.503-1.215V68.211z"/>
	<path fill="#333333" d="M51.188,64.51c-1.052,0.145-2.195,0.526-3.048,1.179v7.402c-0.182,0.054-0.399,0.091-0.599,0.091
		c-0.2,0-0.399-0.037-0.581-0.091v-9.452c0.109-0.037,0.272-0.073,0.454-0.073c0.145,0,0.345,0.036,0.49,0.073l0.091,1.161h0.018
		c0.78-0.671,2.141-1.234,3.175-1.343c0.036,0.109,0.073,0.309,0.073,0.472C51.26,64.111,51.224,64.347,51.188,64.51z"/>
	<path fill="#333333" d="M58.262,64.782c-0.581-0.236-1.343-0.381-2.014-0.381c-2.359,0-3.229,1.833-3.229,4.046
		c0,2.177,0.834,3.864,3.211,3.864c0.635,0,1.397-0.109,1.959-0.272c0.037,0.109,0.073,0.236,0.073,0.381
		c0,0.218-0.036,0.381-0.091,0.508c-0.526,0.217-1.379,0.345-2.05,0.345c-2.957,0-4.336-1.941-4.336-4.79
		c0-2.957,1.506-5.025,4.391-5.025c0.689,0,1.506,0.163,2.068,0.417c0.054,0.145,0.072,0.29,0.072,0.454
		C58.316,64.51,58.298,64.655,58.262,64.782z"/>
	<path fill="#333333" d="M67.242,73.091c-0.163,0.054-0.363,0.091-0.544,0.091c-0.217,0-0.453-0.037-0.635-0.091v-5.733
		c0-1.996-0.508-2.903-2.195-2.903c-0.907,0-1.996,0.508-2.703,1.052v7.583c-0.2,0.054-0.417,0.091-0.617,0.091
		c-0.181,0-0.399-0.037-0.562-0.091V59.847c0.163-0.055,0.417-0.091,0.581-0.091c0.163,0,0.435,0.036,0.599,0.091v4.663
		c0.961-0.744,2.104-1.052,2.994-1.052c0.925,0,1.869,0.309,2.395,0.943c0.581,0.689,0.689,1.688,0.689,2.667V73.091z"/>
	<path fill="#333333" d="M73.861,61.789c-0.417,0-0.762-0.363-0.762-0.798s0.345-0.78,0.762-0.78c0.417,0,0.78,0.345,0.78,0.78
		S74.279,61.789,73.861,61.789z M74.46,73.091c-0.163,0.054-0.399,0.091-0.599,0.091c-0.199,0-0.417-0.037-0.581-0.091v-9.452
		c0.145-0.037,0.381-0.091,0.562-0.091c0.2,0,0.472,0.036,0.617,0.091V73.091z"/>
	<path fill="#333333" d="M84.021,73.109c-0.145,0.036-0.363,0.073-0.581,0.073c-0.181,0-0.417-0.037-0.599-0.091V67.34
		c0-0.871-0.109-1.542-0.363-2.014c-0.309-0.581-0.889-0.871-1.833-0.871c-0.907,0-1.996,0.508-2.703,1.052v7.583
		c-0.2,0.054-0.399,0.091-0.617,0.091c-0.181,0-0.399-0.037-0.562-0.091v-9.452c0.127-0.055,0.345-0.073,0.472-0.073
		c0.181,0,0.399,0.018,0.508,0.073l0.091,0.943h0.018c0.998-0.816,2.141-1.125,3.066-1.125s1.887,0.309,2.413,0.943
		c0.581,0.689,0.689,1.688,0.689,2.667V73.109z"/>
	<path fill="#333333" d="M88.319,73.273c-0.907,0-1.851-0.164-2.504-0.417c-0.054-0.127-0.091-0.345-0.091-0.508
		c0-0.109,0.037-0.381,0.073-0.49c0.671,0.272,1.633,0.49,2.431,0.49c1.379,0,2.231-0.581,2.231-1.724
		c0-1.034-0.526-1.397-1.959-1.923c-1.996-0.726-2.649-1.56-2.649-2.794c0-1.669,1.379-2.449,3.157-2.449
		c0.599,0,1.379,0.109,1.832,0.254c0.055,0.164,0.073,0.327,0.073,0.436c0,0.145-0.036,0.399-0.073,0.526
		c-0.599-0.181-1.233-0.29-1.85-0.29c-1.289,0-2.068,0.49-2.068,1.488c0,0.871,0.49,1.288,1.978,1.851
		c1.36,0.508,2.612,1.016,2.612,2.848C91.512,72.42,90.115,73.273,88.319,73.273z"/>
	<path fill="#333333" d="M98.079,73c-0.472,0.164-1.179,0.272-1.706,0.272c-1.796,0-2.649-0.853-2.649-2.867v-5.842h-1.633
		c-0.036-0.091-0.054-0.309-0.054-0.417c0-0.091,0.018-0.309,0.054-0.399l1.633-0.109v-2.468c0.146-0.054,0.381-0.09,0.581-0.09
		c0.2,0,0.454,0.036,0.599,0.09v2.468h2.667c0.036,0.09,0.072,0.363,0.072,0.454c0,0.127-0.036,0.344-0.072,0.472h-2.667v5.733
		c0,1.433,0.417,2.032,1.542,2.032c0.617,0,1.215-0.09,1.633-0.217c0.036,0.09,0.073,0.308,0.073,0.435
		C98.152,72.71,98.133,72.837,98.079,73z"/>
	<path fill="#333333" d="M100.255,61.789c-0.417,0-0.762-0.363-0.762-0.798s0.345-0.78,0.762-0.78c0.417,0,0.78,0.345,0.78,0.78
		S100.672,61.789,100.255,61.789z M100.854,73.091c-0.163,0.054-0.399,0.091-0.599,0.091c-0.199,0-0.417-0.037-0.581-0.091v-9.452
		c0.145-0.037,0.381-0.091,0.562-0.091c0.2,0,0.472,0.036,0.617,0.091V73.091z"/>
	<path fill="#333333" d="M108.201,73c-0.472,0.164-1.179,0.272-1.706,0.272c-1.796,0-2.649-0.853-2.649-2.867v-5.842h-1.633
		c-0.036-0.091-0.054-0.309-0.054-0.417c0-0.091,0.018-0.309,0.054-0.399l1.633-0.109v-2.468c0.146-0.054,0.381-0.09,0.581-0.09
		c0.2,0,0.454,0.036,0.599,0.09v2.468h2.667c0.036,0.09,0.072,0.363,0.072,0.454c0,0.127-0.036,0.344-0.072,0.472h-2.667v5.733
		c0,1.433,0.417,2.032,1.542,2.032c0.617,0,1.215-0.09,1.633-0.217c0.036,0.09,0.073,0.308,0.073,0.435
		C108.274,72.71,108.255,72.837,108.201,73z"/>
	<path fill="#333333" d="M116.419,69.499c0,2.758-1.143,3.774-3.538,3.774c-2.449,0-3.483-1.016-3.483-3.683v-5.951
		c0.164-0.055,0.381-0.091,0.581-0.091c0.254,0,0.454,0.054,0.599,0.091v5.806c0,1.76,0.272,2.921,2.322,2.921
		c1.923,0,2.34-1.125,2.34-2.958v-5.769c0.146-0.055,0.399-0.091,0.599-0.091c0.199,0,0.417,0.036,0.581,0.091V69.499z"/>
	<path fill="#333333" d="M123.638,73c-0.472,0.164-1.179,0.272-1.706,0.272c-1.796,0-2.649-0.853-2.649-2.867v-5.842h-1.633
		c-0.036-0.091-0.054-0.309-0.054-0.417c0-0.091,0.018-0.309,0.054-0.399l1.633-0.109v-2.468c0.146-0.054,0.381-0.09,0.581-0.09
		c0.2,0,0.454,0.036,0.599,0.09v2.468h2.667c0.036,0.09,0.072,0.363,0.072,0.454c0,0.127-0.036,0.344-0.072,0.472h-2.667v5.733
		c0,1.433,0.417,2.032,1.542,2.032c0.617,0,1.215-0.09,1.633-0.217c0.036,0.09,0.073,0.308,0.073,0.435
		C123.711,72.71,123.692,72.837,123.638,73z"/>
	<path fill="#333333" d="M131.457,68.683h-6.078c0.073,2.086,1.052,3.665,3.32,3.665c0.816,0,1.579-0.109,2.25-0.272
		c0.037,0.091,0.073,0.272,0.073,0.381c0,0.181-0.036,0.344-0.091,0.472c-0.708,0.217-1.597,0.345-2.34,0.345
		c-1.433,0-2.522-0.454-3.193-1.18c-0.798-0.871-1.216-2.177-1.216-3.683c0-2.631,1.325-4.953,3.973-4.953
		c2.377,0,3.32,1.959,3.32,4.354C131.475,68.084,131.475,68.411,131.457,68.683z M130.295,67.812c0-1.669-0.182-3.465-2.195-3.465
		c-1.76,0-2.613,1.615-2.722,3.465H130.295z"/>
	<path fill="#333333" d="M135.32,73.273c-0.907,0-1.851-0.164-2.504-0.417c-0.054-0.127-0.091-0.345-0.091-0.508
		c0-0.109,0.037-0.381,0.073-0.49c0.671,0.272,1.633,0.49,2.431,0.49c1.379,0,2.231-0.581,2.231-1.724
		c0-1.034-0.526-1.397-1.959-1.923c-1.996-0.726-2.648-1.56-2.648-2.794c0-1.669,1.378-2.449,3.157-2.449
		c0.599,0,1.379,0.109,1.832,0.254c0.055,0.164,0.073,0.327,0.073,0.436c0,0.145-0.036,0.399-0.073,0.526
		c-0.599-0.181-1.233-0.29-1.85-0.29c-1.289,0-2.068,0.49-2.068,1.488c0,0.871,0.49,1.288,1.978,1.851
		c1.36,0.508,2.612,1.016,2.612,2.848C138.513,72.42,137.116,73.273,135.32,73.273z"/>
	<path fill="#333333" d="M149.342,60.627c-0.272-0.073-0.762-0.146-1.143-0.146c-0.689,0-1.197,0.182-1.542,0.562
		c-0.526,0.562-0.617,1.325-0.617,2.286v0.309h2.558c0.037,0.09,0.073,0.308,0.073,0.435c0,0.146-0.036,0.363-0.073,0.49h-2.558
		v8.527c-0.163,0.054-0.345,0.091-0.581,0.091s-0.435-0.037-0.599-0.091v-8.527h-1.633c-0.036-0.091-0.054-0.327-0.054-0.436
		c0-0.091,0.018-0.291,0.054-0.381l1.633-0.109v-0.309c0-1.288,0.218-2.177,0.961-2.921c0.526-0.526,1.307-0.78,2.195-0.78
		c0.472,0,0.998,0.109,1.325,0.236c0.036,0.091,0.054,0.218,0.054,0.345C149.396,60.319,149.378,60.537,149.342,60.627z"/>
	<path fill="#333333" d="M153.006,73.273c-2.377,0-3.901-1.633-3.901-4.899s1.542-4.917,3.918-4.917c2.377,0,3.883,1.615,3.883,4.88
		S155.383,73.273,153.006,73.273z M153.023,64.347c-1.741,0-2.685,1.342-2.685,4.009s0.925,4.028,2.667,4.028
		c1.741,0,2.667-1.361,2.667-4.028S154.766,64.347,153.023,64.347z"/>
	<path fill="#333333" d="M162.856,64.51c-1.053,0.145-2.195,0.526-3.048,1.179v7.402c-0.182,0.054-0.399,0.091-0.599,0.091
		c-0.2,0-0.399-0.037-0.581-0.091v-9.452c0.109-0.037,0.272-0.073,0.454-0.073c0.145,0,0.345,0.036,0.489,0.073l0.091,1.161h0.019
		c0.78-0.671,2.141-1.234,3.175-1.343c0.036,0.109,0.072,0.309,0.072,0.472C162.929,64.111,162.893,64.347,162.856,64.51z"/>
</g>
<g>
	<path fill="#64AD94" d="M22.498,93.316c0,0.76-0.104,1.589-0.346,2.314c-1.14-0.449-2.625-0.725-4.042-0.725
		c-2.695,0-4.526,1.727-4.526,5.596c0,3.386,1.555,5.354,4.561,5.354c1.554,0,3.04-0.276,4.146-0.656
		c0.207,0.76,0.311,1.693,0.311,2.418c0,0.483,0,0.829-0.034,1.14c-1.382,0.622-3.213,0.967-4.94,0.967
		c-5.977,0-8.947-3.489-8.947-9.154c0-5.873,3.109-9.535,9.155-9.535c1.693,0,3.351,0.345,4.525,0.898
		C22.463,92.314,22.498,92.798,22.498,93.316z"/>
	<path fill="#64AD94" d="M35.006,95.044c-1.796,0.276-3.73,0.898-5.458,1.796v12.54c-0.483,0.104-1.52,0.173-2.349,0.173
		s-2.038-0.069-2.418-0.173V91.382c0.519-0.069,1.382-0.173,2.073-0.173c0.587,0,1.52,0.069,2.003,0.173l0.276,2.211
		c1.278-1.14,3.593-2.384,5.838-2.556c0.069,0.276,0.138,1.278,0.138,2.003C35.11,93.731,35.075,94.56,35.006,95.044z"/>
	<path fill="#64AD94" d="M51.176,102.057H40.259c0.069,2.246,1.624,3.904,4.629,3.904c1.624,0,3.282-0.208,4.698-0.587
		c0.208,0.933,0.345,1.969,0.345,2.902c0,0.138,0,0.311-0.034,0.691c-1.762,0.518-3.593,0.76-5.389,0.76
		c-6.564,0-9.293-3.765-9.293-9.258c0-4.802,2.695-9.431,8.533-9.431c5.527,0,7.531,4.076,7.531,8.567
		C51.279,100.226,51.279,101.158,51.176,102.057z M46.512,98.637c0-2.177-0.587-4.007-2.833-4.007c-2.142,0-3.282,1.693-3.42,4.007
		H46.512z"/>
	<path fill="#64AD94" d="M67.519,104.371c0,1.485,0.035,3.178,0.035,5.009c-0.553,0.138-1.486,0.173-2.073,0.173
		c-0.656,0-1.52-0.069-2.072-0.173c-0.069-0.415-0.139-1.14-0.173-1.589h-0.069c-1.174,1.209-3.178,1.935-5.009,1.935
		c-3.455,0-5.942-2.142-5.942-5.7c0-5.527,4.906-6.46,9.017-6.46c0.276,0,0.933,0.035,1.485,0.069c0-0.207-0.034-0.656-0.069-0.829
		c-0.242-1.417-1.174-2.004-3.178-2.004c-1.555,0-3.731,0.311-5.389,0.726c-0.173-0.483-0.276-1.312-0.276-1.935
		c0-0.518,0.069-1.312,0.208-1.658c1.935-0.587,4.318-0.898,6.287-0.898c4.318,0,7.22,2.003,7.22,6.495V104.371z M62.751,100.951
		c-0.415-0.035-0.967-0.069-1.451-0.069c-3.109,0-4.318,1.244-4.318,2.798c0,1.347,0.898,2.28,2.453,2.28
		c1.14,0,2.418-0.553,3.316-1.347V100.951z"/>
	<path fill="#64AD94" d="M81.72,109.035c-1.037,0.414-2.28,0.69-4.284,0.69c-3.904,0-5.838-1.9-5.838-5.7V94.94h-2.971
		c-0.138-0.519-0.242-1.382-0.242-1.831c0-0.415,0.104-1.175,0.207-1.52l3.005-0.208v-4.629c0.38-0.069,1.589-0.138,2.384-0.138
		c0.864,0,1.935,0.069,2.384,0.138v4.629h4.975c0.138,0.484,0.207,1.175,0.207,1.555c0,0.415-0.035,1.52-0.172,2.004h-5.009v8.395
		c0,1.727,0.691,2.487,2.383,2.487c0.933,0,2.073-0.138,2.868-0.415c0.138,0.449,0.311,1.312,0.311,2.107
		C81.928,107.93,81.858,108.655,81.72,109.035z"/>
	<path fill="#64AD94" d="M86.352,89.413c-1.451,0-2.625-1.175-2.625-2.626c0-1.451,1.174-2.625,2.625-2.625
		c1.451,0,2.626,1.174,2.626,2.625C88.978,88.238,87.803,89.413,86.352,89.413z M88.735,109.38c-0.622,0.138-1.9,0.173-2.453,0.173
		c-0.829,0-1.727-0.069-2.314-0.173V91.382c0.76-0.104,1.693-0.173,2.314-0.173c0.829,0,1.693,0.069,2.453,0.173V109.38z"/>
	<path fill="#64AD94" d="M106.217,96.667l-5.182,12.713c-0.346,0.069-1.244,0.173-2.142,0.173c-0.933,0-1.935-0.104-2.349-0.173
		l-4.975-12.782c-0.656-1.728-0.967-3.42-0.967-5.217c0.622-0.104,1.485-0.173,2.211-0.173c1.002,0,1.693,0.069,2.246,0.173
		c0,1.278,0.173,2.695,0.622,4.042l3.178,9.12h0.069l3.282-9.12c0.449-1.347,0.622-2.522,0.622-4.042
		c0.484-0.069,1.521-0.173,2.28-0.173s1.555,0.069,2.107,0.173C107.219,93.316,106.873,95.078,106.217,96.667z"/>
	<path fill="#64AD94" d="M123.562,102.057h-10.916c0.069,2.246,1.624,3.904,4.629,3.904c1.624,0,3.282-0.208,4.698-0.587
		c0.207,0.933,0.346,1.969,0.346,2.902c0,0.138,0,0.311-0.035,0.691c-1.762,0.518-3.593,0.76-5.389,0.76
		c-6.564,0-9.293-3.765-9.293-9.258c0-4.802,2.694-9.431,8.533-9.431c5.527,0,7.531,4.076,7.531,8.567
		C123.666,100.226,123.666,101.158,123.562,102.057z M118.898,98.637c0-2.177-0.587-4.007-2.833-4.007
		c-2.142,0-3.282,1.693-3.42,4.007H118.898z"/>
	<path fill="#64AD94" d="M134.62,89.413c-1.451,0-2.625-1.175-2.625-2.626c0-1.451,1.174-2.625,2.625-2.625
		c1.451,0,2.626,1.174,2.626,2.625C137.246,88.238,136.071,89.413,134.62,89.413z M137.004,109.38
		c-0.622,0.138-1.9,0.173-2.453,0.173c-0.829,0-1.727-0.069-2.314-0.173V91.382c0.76-0.104,1.693-0.173,2.314-0.173
		c0.829,0,1.693,0.069,2.453,0.173V109.38z"/>
	<path fill="#64AD94" d="M156.006,109.38c-0.553,0.138-1.728,0.173-2.28,0.173c-0.588,0-1.935-0.069-2.487-0.173V97.565
		c0-1.865-0.968-2.66-2.522-2.66c-1.244,0-2.66,0.449-3.766,1.14v13.334c-0.794,0.138-1.9,0.173-2.522,0.173
		c-0.553,0-1.555-0.035-2.245-0.173V91.382c0.449-0.104,1.554-0.173,2.072-0.173c0.484,0,1.486,0.069,2.004,0.173l0.242,1.589
		c1.555-1.14,3.8-1.935,5.804-1.935c3.8,0,5.7,2.349,5.7,6.287V109.38z"/>
	<path fill="#64AD94" d="M174.146,109.38c-0.553,0.104-1.485,0.173-2.211,0.173c-0.656,0-1.416-0.069-1.9-0.173l-0.138-1.589
		c-1.244,1.209-2.833,1.935-4.698,1.935c-5.147,0-7.358-4.111-7.358-9.051c0-5.32,2.384-9.638,7.877-9.638
		c1.347,0,2.901,0.415,3.661,0.898v-7.738c0.622-0.104,1.658-0.173,2.419-0.173c0.933,0,1.658,0.104,2.349,0.173V109.38z
		 M169.378,95.493c-0.829-0.38-1.899-0.587-2.798-0.587c-2.799,0-3.835,2.487-3.835,5.493c0,2.522,0.622,5.389,3.42,5.389
		c1.348,0,2.384-0.553,3.213-1.244V95.493z"/>
	<path fill="#64AD94" d="M192.424,102.437c0,5.147-2.419,7.289-7.808,7.289c-5.251,0-7.669-2.142-7.669-7.289V91.382
		c0.483-0.069,1.416-0.173,2.349-0.173c0.829,0,1.865,0.069,2.418,0.173v11.021c0,2.694,0.795,3.662,2.972,3.662
		c2.211,0,2.971-0.967,2.971-3.662V91.382c0.483-0.104,1.555-0.173,2.418-0.173s2.004,0.104,2.35,0.173V102.437z"/>
	<path fill="#64AD94" d="M200.614,109.726c-2.038,0-4.18-0.311-5.838-0.863c-0.104-0.519-0.139-1.175-0.139-1.866
		c0-0.553,0.139-1.347,0.276-1.831c1.589,0.553,3.869,0.933,5.217,0.933c1.865,0,2.937-0.622,2.937-1.9
		c0-1.105-0.864-1.624-3.144-2.349c-3.628-1.14-5.32-2.833-5.32-5.458c0-3.904,3.593-5.354,7.013-5.354
		c1.589,0,3.351,0.276,4.56,0.656c0.139,0.518,0.208,1.244,0.208,1.658c0,0.449-0.139,1.382-0.312,1.969
		c-1.174-0.346-2.798-0.622-4.146-0.622c-1.658,0-2.798,0.415-2.798,1.451c0,1.105,1.278,1.555,3.281,2.211
		c3.489,1.14,5.147,2.591,5.147,5.32C207.558,107.895,204.173,109.726,200.614,109.726z"/>
	<path fill="#64AD94" d="M220.377,109.035c-1.036,0.414-2.28,0.69-4.283,0.69c-3.904,0-5.839-1.9-5.839-5.7V94.94h-2.971
		c-0.139-0.519-0.242-1.382-0.242-1.831c0-0.415,0.104-1.175,0.208-1.52l3.005-0.208v-4.629c0.38-0.069,1.589-0.138,2.384-0.138
		c0.863,0,1.935,0.069,2.384,0.138v4.629h4.975c0.138,0.484,0.207,1.175,0.207,1.555c0,0.415-0.034,1.52-0.173,2.004h-5.009v8.395
		c0,1.727,0.69,2.487,2.384,2.487c0.933,0,2.072-0.138,2.867-0.415c0.138,0.449,0.311,1.312,0.311,2.107
		C220.584,107.93,220.516,108.655,220.377,109.035z"/>
	<path fill="#64AD94" d="M232.607,95.044c-1.796,0.276-3.73,0.898-5.458,1.796v12.54c-0.483,0.104-1.521,0.173-2.349,0.173
		c-0.83,0-2.039-0.069-2.419-0.173V91.382c0.519-0.069,1.382-0.173,2.073-0.173c0.587,0,1.52,0.069,2.004,0.173l0.275,2.211
		c1.278-1.14,3.594-2.384,5.839-2.556c0.069,0.276,0.138,1.278,0.138,2.003C232.711,93.731,232.677,94.56,232.607,95.044z"/>
	<path fill="#64AD94" d="M237.239,89.413c-1.451,0-2.626-1.175-2.626-2.626c0-1.451,1.175-2.625,2.626-2.625
		c1.45,0,2.625,1.174,2.625,2.625C239.864,88.238,238.689,89.413,237.239,89.413z M239.623,109.38
		c-0.622,0.138-1.9,0.173-2.453,0.173c-0.829,0-1.728-0.069-2.314-0.173V91.382c0.76-0.104,1.692-0.173,2.314-0.173
		c0.829,0,1.692,0.069,2.453,0.173V109.38z"/>
	<path fill="#64AD94" d="M257.726,102.057H246.81c0.069,2.246,1.623,3.904,4.629,3.904c1.624,0,3.282-0.208,4.698-0.587
		c0.207,0.933,0.346,1.969,0.346,2.902c0,0.138,0,0.311-0.035,0.691c-1.762,0.518-3.593,0.76-5.389,0.76
		c-6.563,0-9.293-3.765-9.293-9.258c0-4.802,2.694-9.431,8.533-9.431c5.527,0,7.53,4.076,7.53,8.567
		C257.829,100.226,257.829,101.158,257.726,102.057z M253.062,98.637c0-2.177-0.588-4.007-2.833-4.007
		c-2.142,0-3.282,1.693-3.42,4.007H253.062z"/>
	<path fill="#64AD94" d="M265.053,109.726c-2.038,0-4.18-0.311-5.838-0.863c-0.104-0.519-0.139-1.175-0.139-1.866
		c0-0.553,0.139-1.347,0.276-1.831c1.589,0.553,3.869,0.933,5.217,0.933c1.865,0,2.937-0.622,2.937-1.9
		c0-1.105-0.864-1.624-3.145-2.349c-3.627-1.14-5.319-2.833-5.319-5.458c0-3.904,3.593-5.354,7.013-5.354
		c1.589,0,3.351,0.276,4.56,0.656c0.139,0.518,0.208,1.244,0.208,1.658c0,0.449-0.139,1.382-0.312,1.969
		c-1.175-0.346-2.798-0.622-4.146-0.622c-1.658,0-2.798,0.415-2.798,1.451c0,1.105,1.278,1.555,3.282,2.211
		c3.488,1.14,5.146,2.591,5.146,5.32C271.996,107.895,268.611,109.726,265.053,109.726z"/>
	<path fill="#64AD94" d="M273.588,115.633c-0.553-0.38-1.278-1.105-1.485-1.9c1.451-1.037,2.521-2.28,3.006-3.559
		c-0.657-0.587-1.175-1.416-1.175-2.556c0-1.347,1.175-2.453,2.557-2.453c1.555,0,2.591,1.14,2.591,2.833
		C279.081,110.693,276.559,113.906,273.588,115.633z"/>
</g>
<g>
	<path fill="#64AD94" d="M24.985,145.66c-0.553,0.104-1.485,0.173-2.211,0.173c-0.656,0-1.417-0.069-1.9-0.173l-0.138-1.589
		c-1.244,1.209-2.833,1.935-4.698,1.935c-5.147,0-7.358-4.111-7.358-9.051c0-5.32,2.384-9.638,7.876-9.638
		c1.347,0,2.902,0.415,3.662,0.898v-7.738c0.622-0.104,1.658-0.172,2.418-0.172c0.933,0,1.658,0.104,2.349,0.172V145.66z
		 M20.218,131.772c-0.829-0.38-1.9-0.587-2.798-0.587c-2.798,0-3.835,2.487-3.835,5.493c0,2.522,0.622,5.389,3.42,5.389
		c1.347,0,2.383-0.553,3.212-1.244V131.772z"/>
	<path fill="#64AD94" d="M42.193,140.651c0,1.486,0.035,3.178,0.035,5.009c-0.553,0.139-1.486,0.173-2.073,0.173
		c-0.656,0-1.52-0.069-2.072-0.173c-0.069-0.414-0.139-1.14-0.173-1.589H37.84c-1.174,1.209-3.178,1.935-5.009,1.935
		c-3.455,0-5.942-2.143-5.942-5.7c0-5.527,4.906-6.46,9.017-6.46c0.276,0,0.933,0.034,1.485,0.069c0-0.208-0.034-0.656-0.069-0.829
		c-0.242-1.417-1.174-2.003-3.178-2.003c-1.555,0-3.731,0.311-5.389,0.725c-0.173-0.483-0.276-1.312-0.276-1.935
		c0-0.518,0.069-1.312,0.208-1.658c1.935-0.587,4.318-0.898,6.287-0.898c4.318,0,7.22,2.003,7.22,6.495V140.651z M37.425,137.231
		c-0.415-0.035-0.967-0.069-1.451-0.069c-3.109,0-4.318,1.243-4.318,2.798c0,1.348,0.898,2.28,2.453,2.28
		c1.14,0,2.418-0.553,3.316-1.348V137.231z"/>
	<path fill="#64AD94" d="M56.394,145.314c-1.037,0.415-2.28,0.691-4.284,0.691c-3.904,0-5.838-1.9-5.838-5.7v-9.086h-2.971
		c-0.138-0.518-0.242-1.382-0.242-1.831c0-0.415,0.104-1.175,0.207-1.52l3.005-0.208v-4.629c0.38-0.069,1.589-0.138,2.384-0.138
		c0.864,0,1.935,0.069,2.384,0.138v4.629h4.975c0.138,0.484,0.207,1.175,0.207,1.555c0,0.415-0.035,1.52-0.172,2.003H51.04v8.395
		c0,1.727,0.691,2.487,2.383,2.487c0.933,0,2.073-0.138,2.868-0.415c0.138,0.449,0.311,1.312,0.311,2.107
		C56.602,144.209,56.532,144.935,56.394,145.314z"/>
	<path fill="#64AD94" d="M72.564,140.651c0,1.486,0.035,3.178,0.035,5.009c-0.553,0.139-1.486,0.173-2.073,0.173
		c-0.656,0-1.52-0.069-2.072-0.173c-0.069-0.414-0.139-1.14-0.173-1.589h-0.069c-1.174,1.209-3.178,1.935-5.009,1.935
		c-3.455,0-5.942-2.143-5.942-5.7c0-5.527,4.906-6.46,9.017-6.46c0.276,0,0.933,0.034,1.485,0.069c0-0.208-0.034-0.656-0.069-0.829
		c-0.242-1.417-1.174-2.003-3.178-2.003c-1.555,0-3.731,0.311-5.389,0.725c-0.173-0.483-0.276-1.312-0.276-1.935
		c0-0.518,0.069-1.312,0.208-1.658c1.935-0.587,4.318-0.898,6.287-0.898c4.318,0,7.22,2.003,7.22,6.495V140.651z M67.796,137.231
		c-0.415-0.035-0.967-0.069-1.451-0.069c-3.109,0-4.318,1.243-4.318,2.798c0,1.348,0.898,2.28,2.453,2.28
		c1.14,0,2.418-0.553,3.316-1.348V137.231z"/>
	<path fill="#64AD94" d="M87.215,146.006c-2.038,0-4.18-0.312-5.838-0.864c-0.104-0.518-0.138-1.174-0.138-1.865
		c0-0.553,0.138-1.347,0.276-1.831c1.589,0.553,3.869,0.933,5.216,0.933c1.866,0,2.937-0.622,2.937-1.9
		c0-1.105-0.863-1.624-3.144-2.35c-3.627-1.14-5.32-2.833-5.32-5.458c0-3.904,3.593-5.354,7.013-5.354
		c1.589,0,3.351,0.276,4.56,0.656c0.138,0.518,0.207,1.244,0.207,1.658c0,0.449-0.138,1.382-0.311,1.969
		c-1.175-0.346-2.798-0.622-4.146-0.622c-1.658,0-2.798,0.415-2.798,1.451c0,1.105,1.278,1.554,3.282,2.211
		c3.489,1.14,5.147,2.591,5.147,5.32C94.159,144.175,90.773,146.006,87.215,146.006z"/>
	<path fill="#64AD94" d="M108.913,129.596c0,0.76-0.104,1.589-0.345,2.315c-1.14-0.449-2.626-0.726-4.042-0.726
		c-2.695,0-4.525,1.727-4.525,5.596c0,3.386,1.554,5.355,4.56,5.355c1.555,0,3.04-0.276,4.146-0.657
		c0.208,0.76,0.311,1.693,0.311,2.418c0,0.483,0,0.829-0.035,1.14c-1.382,0.622-3.212,0.968-4.94,0.968
		c-5.976,0-8.947-3.489-8.947-9.155c0-5.873,3.109-9.535,9.155-9.535c1.692,0,3.351,0.345,4.525,0.898
		C108.878,128.595,108.913,129.078,108.913,129.596z"/>
	<path fill="#64AD94" d="M113.82,125.692c-1.451,0-2.625-1.174-2.625-2.625c0-1.451,1.174-2.626,2.625-2.626
		c1.451,0,2.626,1.175,2.626,2.626C116.446,124.518,115.271,125.692,113.82,125.692z M116.204,145.66
		c-0.622,0.139-1.9,0.173-2.453,0.173c-0.829,0-1.727-0.069-2.314-0.173v-17.999c0.76-0.104,1.693-0.172,2.314-0.172
		c0.829,0,1.693,0.069,2.453,0.172V145.66z"/>
	<path fill="#64AD94" d="M134.308,138.336h-10.917c0.069,2.246,1.624,3.904,4.629,3.904c1.624,0,3.282-0.208,4.698-0.587
		c0.208,0.933,0.345,1.969,0.345,2.902c0,0.139,0,0.311-0.034,0.691c-1.762,0.518-3.593,0.76-5.389,0.76
		c-6.564,0-9.293-3.766-9.293-9.259c0-4.802,2.695-9.431,8.533-9.431c5.527,0,7.531,4.076,7.531,8.567
		C134.411,136.505,134.411,137.438,134.308,138.336z M129.644,134.917c0-2.176-0.587-4.007-2.833-4.007
		c-2.142,0-3.282,1.692-3.42,4.007H129.644z"/>
	<path fill="#64AD94" d="M152.137,145.66c-0.553,0.139-1.728,0.173-2.28,0.173c-0.587,0-1.935-0.069-2.487-0.173v-11.814
		c0-1.866-0.968-2.66-2.522-2.66c-1.244,0-2.66,0.449-3.766,1.14v13.335c-0.794,0.139-1.9,0.173-2.522,0.173
		c-0.553,0-1.555-0.034-2.245-0.173v-17.999c0.449-0.104,1.554-0.172,2.072-0.172c0.484,0,1.486,0.069,2.004,0.172l0.242,1.589
		c1.555-1.14,3.8-1.935,5.804-1.935c3.8,0,5.701,2.349,5.701,6.287V145.66z"/>
	<path fill="#64AD94" d="M167.789,129.596c0,0.76-0.104,1.589-0.346,2.315c-1.14-0.449-2.625-0.726-4.042-0.726
		c-2.694,0-4.525,1.727-4.525,5.596c0,3.386,1.555,5.355,4.561,5.355c1.555,0,3.04-0.276,4.146-0.657
		c0.207,0.76,0.311,1.693,0.311,2.418c0,0.483,0,0.829-0.034,1.14c-1.382,0.622-3.213,0.968-4.94,0.968
		c-5.977,0-8.947-3.489-8.947-9.155c0-5.873,3.109-9.535,9.154-9.535c1.693,0,3.352,0.345,4.525,0.898
		C167.755,128.595,167.789,129.078,167.789,129.596z"/>
	<path fill="#64AD94" d="M184.304,138.336h-10.916c0.069,2.246,1.623,3.904,4.629,3.904c1.624,0,3.282-0.208,4.698-0.587
		c0.207,0.933,0.346,1.969,0.346,2.902c0,0.139,0,0.311-0.035,0.691c-1.762,0.518-3.593,0.76-5.389,0.76
		c-6.563,0-9.293-3.766-9.293-9.259c0-4.802,2.694-9.431,8.533-9.431c5.527,0,7.53,4.076,7.53,8.567
		C184.407,136.505,184.407,137.438,184.304,138.336z M179.641,134.917c0-2.176-0.588-4.007-2.833-4.007
		c-2.142,0-3.282,1.692-3.42,4.007H179.641z"/>
	<path fill="#64AD94" d="M185.585,151.913c-0.553-0.38-1.278-1.105-1.485-1.9c1.451-1.036,2.521-2.28,3.006-3.558
		c-0.656-0.588-1.175-1.417-1.175-2.557c0-1.348,1.175-2.453,2.557-2.453c1.554,0,2.591,1.14,2.591,2.833
		C191.078,146.973,188.556,150.186,185.585,151.913z"/>
</g>
<g>
	<path fill="#64AD94" d="M36.731,181.939c-0.553,0.139-1.727,0.173-2.28,0.173c-0.587,0-1.935-0.069-2.487-0.173v-10.848
		c0-1.312-0.035-2.279-0.519-2.867c-0.449-0.553-1.14-0.76-2.003-0.76c-1.175,0-2.833,0.518-3.904,1.175
		c0.035,0.587,0.069,1.174,0.069,1.865v11.435c-0.553,0.139-1.728,0.173-2.28,0.173c-0.587,0-1.935-0.069-2.487-0.173v-10.848
		c0-1.312-0.035-2.279-0.518-2.867c-0.449-0.553-1.14-0.76-2.004-0.76c-1.209,0-2.764,0.483-3.834,1.14v13.335
		c-0.794,0.139-1.9,0.173-2.522,0.173c-0.553,0-1.554-0.034-2.246-0.173v-17.998c0.449-0.104,1.555-0.173,2.073-0.173
		c0.483,0,1.485,0.069,2.003,0.173L14,165.564c1.52-1.14,3.696-1.969,5.631-1.969c2.003,0,3.766,0.69,5.113,2.176
		c1.865-1.277,4.111-2.176,6.391-2.176c1.692,0,3.42,0.69,4.283,1.728c1.071,1.278,1.313,2.937,1.313,5.458V181.939z"/>
	<path fill="#64AD94" d="M54.527,174.615H43.611c0.069,2.246,1.624,3.904,4.629,3.904c1.624,0,3.282-0.207,4.698-0.588
		c0.207,0.934,0.346,1.97,0.346,2.902c0,0.139,0,0.311-0.035,0.691c-1.762,0.518-3.593,0.76-5.389,0.76
		c-6.564,0-9.293-3.766-9.293-9.259c0-4.802,2.694-9.431,8.533-9.431c5.527,0,7.531,4.076,7.531,8.567
		C54.631,172.785,54.631,173.718,54.527,174.615z M49.864,171.195c0-2.176-0.587-4.007-2.833-4.007c-2.142,0-3.282,1.692-3.42,4.007
		H49.864z"/>
	<path fill="#64AD94" d="M72.356,181.939c-0.553,0.139-1.728,0.173-2.28,0.173c-0.587,0-1.935-0.069-2.487-0.173v-11.814
		c0-1.865-0.967-2.66-2.521-2.66c-1.244,0-2.66,0.449-3.766,1.14v13.335c-0.794,0.139-1.9,0.173-2.522,0.173
		c-0.553,0-1.554-0.034-2.246-0.173v-17.998c0.449-0.104,1.555-0.173,2.073-0.173c0.483,0,1.485,0.069,2.003,0.173l0.242,1.589
		c1.555-1.14,3.8-1.935,5.804-1.935c3.8,0,5.7,2.349,5.7,6.287V181.939z"/>
	<path fill="#64AD94" d="M86.627,181.594c-1.036,0.415-2.28,0.691-4.284,0.691c-3.904,0-5.838-1.9-5.838-5.7v-9.086h-2.971
		c-0.138-0.518-0.242-1.382-0.242-1.831c0-0.414,0.104-1.174,0.208-1.52l3.005-0.207v-4.63c0.38-0.068,1.589-0.138,2.384-0.138
		c0.864,0,1.935,0.069,2.384,0.138v4.63h4.975c0.138,0.483,0.207,1.174,0.207,1.555c0,0.414-0.034,1.52-0.173,2.003h-5.009v8.395
		c0,1.728,0.691,2.487,2.384,2.487c0.933,0,2.072-0.138,2.867-0.414c0.138,0.449,0.311,1.312,0.311,2.107
		C86.834,180.488,86.765,181.214,86.627,181.594z"/>
	<path fill="#64AD94" d="M102.762,176.931c0,1.485,0.035,3.178,0.035,5.009c-0.553,0.139-1.486,0.173-2.073,0.173
		c-0.656,0-1.52-0.069-2.072-0.173c-0.069-0.414-0.139-1.14-0.173-1.589h-0.069c-1.174,1.209-3.178,1.935-5.009,1.935
		c-3.455,0-5.942-2.143-5.942-5.7c0-5.527,4.906-6.46,9.017-6.46c0.276,0,0.933,0.034,1.485,0.068c0-0.207-0.034-0.656-0.069-0.828
		c-0.242-1.417-1.174-2.004-3.178-2.004c-1.555,0-3.731,0.311-5.389,0.726c-0.173-0.484-0.276-1.313-0.276-1.935
		c0-0.519,0.069-1.313,0.208-1.658c1.935-0.588,4.318-0.898,6.287-0.898c4.318,0,7.22,2.004,7.22,6.494V176.931z M97.995,173.51
		c-0.415-0.034-0.967-0.068-1.451-0.068c-3.109,0-4.318,1.243-4.318,2.798c0,1.348,0.898,2.28,2.453,2.28
		c1.14,0,2.418-0.553,3.316-1.348V173.51z"/>
	<path fill="#64AD94" d="M110.504,181.939c-0.622,0.139-1.9,0.173-2.453,0.173c-0.829,0-1.727-0.069-2.314-0.173v-25.184
		c0.76-0.104,1.693-0.173,2.314-0.173c0.829,0,1.796,0.069,2.453,0.173V181.939z"/>
	<path fill="#64AD94" d="M135.862,169.883v12.057c-0.553,0.139-1.727,0.173-2.28,0.173c-0.587,0-1.935-0.069-2.487-0.173v-11.78
		c0-1.865-0.967-2.694-2.522-2.694c-1.244,0-2.764,0.449-3.869,1.14v13.335c-0.794,0.139-1.9,0.173-2.522,0.173
		c-0.553,0-1.554-0.034-2.246-0.173v-25.184c0.449-0.104,1.451-0.173,2.315-0.173s1.935,0.069,2.453,0.173v8.463
		c1.52-0.967,3.627-1.623,5.458-1.623C133.962,163.596,135.862,165.944,135.862,169.883z"/>
	<path fill="#64AD94" d="M153.657,174.615H142.74c0.069,2.246,1.624,3.904,4.629,3.904c1.624,0,3.282-0.207,4.699-0.588
		c0.207,0.934,0.345,1.97,0.345,2.902c0,0.139,0,0.311-0.034,0.691c-1.762,0.518-3.593,0.76-5.389,0.76
		c-6.564,0-9.293-3.766-9.293-9.259c0-4.802,2.695-9.431,8.533-9.431c5.527,0,7.531,4.076,7.531,8.567
		C153.761,172.785,153.761,173.718,153.657,174.615z M148.993,171.195c0-2.176-0.587-4.007-2.833-4.007
		c-2.142,0-3.282,1.692-3.42,4.007H148.993z"/>
	<path fill="#64AD94" d="M170,176.931c0,1.485,0.034,3.178,0.034,5.009c-0.553,0.139-1.485,0.173-2.072,0.173
		c-0.656,0-1.521-0.069-2.073-0.173c-0.068-0.414-0.138-1.14-0.173-1.589h-0.068c-1.175,1.209-3.179,1.935-5.01,1.935
		c-3.454,0-5.941-2.143-5.941-5.7c0-5.527,4.905-6.46,9.017-6.46c0.276,0,0.933,0.034,1.485,0.068c0-0.207-0.035-0.656-0.069-0.828
		c-0.242-1.417-1.175-2.004-3.178-2.004c-1.555,0-3.731,0.311-5.39,0.726c-0.173-0.484-0.276-1.313-0.276-1.935
		c0-0.519,0.069-1.313,0.207-1.658c1.935-0.588,4.318-0.898,6.287-0.898c4.318,0,7.221,2.004,7.221,6.494V176.931z M165.232,173.51
		c-0.414-0.034-0.967-0.068-1.451-0.068c-3.108,0-4.318,1.243-4.318,2.798c0,1.348,0.898,2.28,2.453,2.28
		c1.141,0,2.418-0.553,3.316-1.348V173.51z"/>
	<path fill="#64AD94" d="M177.742,181.939c-0.622,0.139-1.9,0.173-2.453,0.173c-0.829,0-1.728-0.069-2.314-0.173v-25.184
		c0.76-0.104,1.692-0.173,2.314-0.173c0.829,0,1.797,0.069,2.453,0.173V181.939z"/>
	<path fill="#64AD94" d="M192.148,181.594c-1.036,0.415-2.28,0.691-4.283,0.691c-3.904,0-5.839-1.9-5.839-5.7v-9.086h-2.971
		c-0.139-0.518-0.242-1.382-0.242-1.831c0-0.414,0.104-1.174,0.208-1.52l3.005-0.207v-4.63c0.38-0.068,1.589-0.138,2.384-0.138
		c0.863,0,1.935,0.069,2.384,0.138v4.63h4.975c0.138,0.483,0.207,1.174,0.207,1.555c0,0.414-0.034,1.52-0.173,2.003h-5.009v8.395
		c0,1.728,0.69,2.487,2.384,2.487c0.933,0,2.072-0.138,2.867-0.414c0.138,0.449,0.311,1.312,0.311,2.107
		C192.355,180.488,192.287,181.214,192.148,181.594z"/>
	<path fill="#64AD94" d="M210.08,169.883v12.057c-0.553,0.139-1.728,0.173-2.28,0.173c-0.587,0-1.935-0.069-2.487-0.173v-11.78
		c0-1.865-0.967-2.694-2.521-2.694c-1.244,0-2.764,0.449-3.869,1.14v13.335c-0.795,0.139-1.9,0.173-2.521,0.173
		c-0.553,0-1.555-0.034-2.246-0.173v-25.184c0.449-0.104,1.451-0.173,2.314-0.173c0.864,0,1.935,0.069,2.453,0.173v8.463
		c1.52-0.967,3.627-1.623,5.458-1.623C208.18,163.596,210.08,165.944,210.08,169.883z"/>
	<path fill="#64AD94" d="M212.57,188.192c-0.553-0.38-1.278-1.105-1.485-1.9c1.451-1.036,2.521-2.28,3.006-3.558
		c-0.657-0.588-1.175-1.417-1.175-2.557c0-1.348,1.175-2.453,2.557-2.453c1.555,0,2.591,1.141,2.591,2.833
		C218.063,183.252,215.541,186.465,212.57,188.192z"/>
</g>
<g>
	<path fill="#64AD94" d="M24.053,213.213c0,1.485,0.034,3.178,0.034,5.009c-0.553,0.138-1.485,0.173-2.072,0.173
		c-0.657,0-1.521-0.069-2.073-0.173c-0.069-0.415-0.138-1.14-0.172-1.589H19.7c-1.174,1.209-3.178,1.935-5.009,1.935
		c-3.454,0-5.941-2.142-5.941-5.7c0-5.527,4.905-6.46,9.016-6.46c0.276,0,0.933,0.034,1.486,0.069c0-0.208-0.035-0.657-0.069-0.83
		c-0.242-1.416-1.175-2.003-3.178-2.003c-1.555,0-3.731,0.311-5.389,0.726c-0.173-0.484-0.276-1.313-0.276-1.935
		c0-0.519,0.069-1.313,0.207-1.658c1.935-0.588,4.318-0.898,6.288-0.898c4.318,0,7.22,2.004,7.22,6.494V213.213z M19.285,209.793
		c-0.415-0.035-0.967-0.069-1.451-0.069c-3.109,0-4.318,1.243-4.318,2.798c0,1.348,0.898,2.28,2.453,2.28
		c1.14,0,2.418-0.553,3.316-1.348V209.793z"/>
	<path fill="#64AD94" d="M42.227,215.043c0,2.315-0.138,5.632-1.485,7.911c-1.624,2.729-4.111,3.766-7.427,3.766
		c-1.9,0-3.731-0.241-5.32-0.726c-0.104-0.345-0.138-0.794-0.138-1.243c0-0.76,0.104-1.555,0.276-2.245
		c1.485,0.38,3.248,0.621,4.629,0.621c1.969,0,3.316-0.76,4.076-2.142c0.691-1.243,0.794-2.384,0.794-3.766
		c-0.864,0.656-2.453,1.175-4.076,1.175c-5.044,0-7.635-3.731-7.635-8.671c0-6.426,3.351-9.846,9.673-9.846
		c1.624,0,4.56,0.311,6.633,1.175V215.043z M37.46,203.851c-0.519-0.104-1.589-0.173-2.039-0.173c-3.178,0-4.594,2.038-4.594,5.804
		c0,3.006,1.105,5.078,3.489,5.078c1.347,0,2.453-0.38,3.144-0.967V203.851z"/>
	<path fill="#64AD94" d="M55.323,203.885c-1.797,0.276-3.731,0.898-5.458,1.797v12.54c-0.484,0.104-1.52,0.173-2.349,0.173
		s-2.038-0.069-2.418-0.173v-17.998c0.518-0.069,1.382-0.173,2.072-0.173c0.587,0,1.521,0.068,2.004,0.173l0.276,2.211
		c1.278-1.141,3.593-2.384,5.838-2.557c0.069,0.276,0.138,1.278,0.138,2.004C55.427,202.572,55.392,203.401,55.323,203.885z"/>
	<path fill="#64AD94" d="M59.954,198.254c-1.451,0-2.625-1.174-2.625-2.625s1.174-2.626,2.625-2.626
		c1.451,0,2.626,1.175,2.626,2.626S61.405,198.254,59.954,198.254z M62.338,218.222c-0.622,0.138-1.9,0.173-2.453,0.173
		c-0.829,0-1.727-0.069-2.314-0.173v-17.998c0.76-0.104,1.693-0.173,2.314-0.173c0.829,0,1.693,0.068,2.453,0.173V218.222z"/>
	<path fill="#64AD94" d="M72.15,211.07h-7.808c-0.104-0.483-0.242-1.347-0.242-1.83c0-0.588,0.069-1.451,0.207-1.866h7.842
		c0.138,0.415,0.207,1.278,0.207,1.866C72.357,209.724,72.254,210.587,72.15,211.07z"/>
	<path fill="#64AD94" d="M85.97,196.492c-0.76-0.242-1.658-0.38-2.557-0.38c-2.003,0-3.04,1.071-3.04,3.386v0.726h4.422
		c0.173,0.587,0.208,1.382,0.208,1.762c0,0.414-0.069,1.175-0.173,1.796h-4.457v14.44c-0.483,0.104-1.624,0.173-2.349,0.173
		c-0.587,0-1.935-0.069-2.418-0.173v-14.44h-2.937c-0.138-0.414-0.242-1.243-0.242-1.658c0-0.587,0.104-1.312,0.276-1.692
		l2.902-0.207v-0.519c0-4.629,2.384-7.116,6.909-7.116c1.071,0,2.591,0.241,3.627,0.622c0.138,0.414,0.173,1.036,0.173,1.52
		C86.315,195.249,86.177,195.939,85.97,196.492z"/>
	<path fill="#64AD94" d="M93.295,218.567c-5.216,0-8.533-3.352-8.533-9.293c0-5.907,3.282-9.396,8.533-9.396
		s8.533,3.454,8.533,9.362C101.828,215.147,98.546,218.567,93.295,218.567z M93.295,203.608c-2.246,0-3.627,1.521-3.627,5.632
		c0,4.11,1.382,5.596,3.627,5.596s3.627-1.485,3.627-5.596C96.923,205.094,95.541,203.608,93.295,203.608z"/>
	<path fill="#64AD94" d="M111.229,218.567c-5.216,0-8.533-3.352-8.533-9.293c0-5.907,3.282-9.396,8.533-9.396
		s8.533,3.454,8.533,9.362C119.762,215.147,116.479,218.567,111.229,218.567z M111.229,203.608c-2.245,0-3.627,1.521-3.627,5.632
		c0,4.11,1.382,5.596,3.627,5.596c2.246,0,3.627-1.485,3.627-5.596C114.856,205.094,113.474,203.608,111.229,203.608z"/>
	<path fill="#64AD94" d="M136.934,218.222c-0.553,0.104-1.485,0.173-2.211,0.173c-0.656,0-1.417-0.069-1.9-0.173l-0.138-1.589
		c-1.244,1.209-2.833,1.935-4.698,1.935c-5.147,0-7.358-4.111-7.358-9.052c0-5.319,2.384-9.638,7.876-9.638
		c1.347,0,2.902,0.414,3.662,0.898v-7.738c0.622-0.104,1.658-0.173,2.418-0.173c0.933,0,1.658,0.104,2.349,0.173V218.222z
		 M132.167,204.334c-0.829-0.38-1.9-0.587-2.798-0.587c-2.798,0-3.834,2.487-3.834,5.493c0,2.521,0.622,5.389,3.42,5.389
		c1.347,0,2.384-0.553,3.213-1.244V204.334z"/>
	<path fill="#64AD94" d="M160.567,213.213c0,1.485,0.035,3.178,0.035,5.009c-0.553,0.138-1.485,0.173-2.073,0.173
		c-0.656,0-1.52-0.069-2.072-0.173c-0.069-0.415-0.139-1.14-0.173-1.589h-0.069c-1.175,1.209-3.178,1.935-5.009,1.935
		c-3.455,0-5.942-2.142-5.942-5.7c0-5.527,4.906-6.46,9.017-6.46c0.276,0,0.933,0.034,1.485,0.069c0-0.208-0.034-0.657-0.068-0.83
		c-0.242-1.416-1.175-2.003-3.179-2.003c-1.555,0-3.731,0.311-5.389,0.726c-0.173-0.484-0.276-1.313-0.276-1.935
		c0-0.519,0.069-1.313,0.208-1.658c1.935-0.588,4.318-0.898,6.287-0.898c4.318,0,7.22,2.004,7.22,6.494V213.213z M155.801,209.793
		c-0.415-0.035-0.968-0.069-1.451-0.069c-3.109,0-4.318,1.243-4.318,2.798c0,1.348,0.898,2.28,2.453,2.28
		c1.14,0,2.418-0.553,3.316-1.348V209.793z"/>
	<path fill="#64AD94" d="M179.261,218.222c-0.553,0.138-1.728,0.173-2.28,0.173c-0.587,0-1.935-0.069-2.487-0.173v-11.814
		c0-1.866-0.967-2.66-2.521-2.66c-1.244,0-2.66,0.449-3.766,1.14v13.335c-0.795,0.138-1.9,0.173-2.521,0.173
		c-0.553,0-1.555-0.035-2.246-0.173v-17.998c0.449-0.104,1.555-0.173,2.073-0.173c0.483,0,1.485,0.068,2.004,0.173l0.241,1.589
		c1.555-1.141,3.8-1.935,5.804-1.935c3.8,0,5.7,2.349,5.7,6.287V218.222z"/>
	<path fill="#64AD94" d="M197.4,218.222c-0.553,0.104-1.485,0.173-2.211,0.173c-0.656,0-1.416-0.069-1.9-0.173l-0.138-1.589
		c-1.244,1.209-2.833,1.935-4.698,1.935c-5.147,0-7.358-4.111-7.358-9.052c0-5.319,2.384-9.638,7.876-9.638
		c1.348,0,2.902,0.414,3.662,0.898v-7.738c0.622-0.104,1.658-0.173,2.418-0.173c0.934,0,1.658,0.104,2.35,0.173V218.222z
		 M192.633,204.334c-0.829-0.38-1.899-0.587-2.798-0.587c-2.798,0-3.835,2.487-3.835,5.493c0,2.521,0.622,5.389,3.42,5.389
		c1.348,0,2.384-0.553,3.213-1.244V204.334z"/>
</g>
<g>
	<path fill="#64AD94" d="M25.642,242.444v12.057c-0.553,0.138-1.727,0.173-2.28,0.173c-0.587,0-1.935-0.069-2.487-0.173v-11.78
		c0-1.865-0.967-2.694-2.522-2.694c-1.244,0-2.764,0.449-3.869,1.14v13.335c-0.794,0.138-1.9,0.173-2.522,0.173
		c-0.553,0-1.554-0.035-2.246-0.173v-25.184c0.449-0.104,1.451-0.173,2.315-0.173s1.935,0.068,2.453,0.173v8.464
		c1.52-0.968,3.627-1.624,5.458-1.624C23.742,236.157,25.642,238.506,25.642,242.444z"/>
	<path fill="#64AD94" d="M43.437,247.178H32.52c0.069,2.245,1.624,3.903,4.629,3.903c1.624,0,3.282-0.207,4.698-0.587
		c0.208,0.933,0.345,1.969,0.345,2.901c0,0.138,0,0.311-0.034,0.69c-1.762,0.519-3.593,0.761-5.389,0.761
		c-6.564,0-9.293-3.766-9.293-9.259c0-4.802,2.695-9.431,8.533-9.431c5.527,0,7.531,4.076,7.531,8.567
		C43.54,245.347,43.54,246.279,43.437,247.178z M38.772,243.757c0-2.176-0.587-4.007-2.833-4.007c-2.142,0-3.282,1.692-3.42,4.007
		H38.772z"/>
	<path fill="#64AD94" d="M59.78,249.492c0,1.485,0.035,3.178,0.035,5.009c-0.553,0.138-1.486,0.173-2.073,0.173
		c-0.656,0-1.52-0.069-2.072-0.173c-0.069-0.415-0.139-1.14-0.173-1.589h-0.069c-1.174,1.209-3.178,1.935-5.009,1.935
		c-3.455,0-5.942-2.142-5.942-5.7c0-5.527,4.906-6.46,9.017-6.46c0.276,0,0.933,0.034,1.485,0.069c0-0.208-0.034-0.657-0.069-0.83
		c-0.242-1.416-1.174-2.003-3.178-2.003c-1.555,0-3.731,0.311-5.389,0.726c-0.173-0.484-0.276-1.313-0.276-1.935
		c0-0.519,0.069-1.313,0.208-1.658c1.935-0.588,4.318-0.898,6.287-0.898c4.318,0,7.22,2.004,7.22,6.494V249.492z M55.012,246.072
		c-0.415-0.035-0.967-0.069-1.451-0.069c-3.109,0-4.318,1.243-4.318,2.798c0,1.348,0.898,2.28,2.453,2.28
		c1.14,0,2.418-0.553,3.316-1.348V246.072z"/>
	<path fill="#64AD94" d="M67.486,254.501c-0.622,0.138-1.9,0.173-2.453,0.173c-0.829,0-1.727-0.069-2.314-0.173v-25.184
		c0.76-0.104,1.693-0.173,2.314-0.173c0.829,0,1.796,0.068,2.453,0.173V254.501z"/>
	<path fill="#64AD94" d="M81.893,254.155c-1.037,0.415-2.28,0.691-4.284,0.691c-3.904,0-5.838-1.9-5.838-5.7v-9.086H68.8
		c-0.138-0.518-0.242-1.382-0.242-1.831c0-0.414,0.104-1.174,0.207-1.52l3.005-0.207v-4.63c0.38-0.068,1.589-0.138,2.384-0.138
		c0.864,0,1.935,0.069,2.384,0.138v4.63h4.975c0.138,0.483,0.207,1.174,0.207,1.554c0,0.415-0.035,1.521-0.172,2.004h-5.009v8.395
		c0,1.728,0.691,2.487,2.383,2.487c0.933,0,2.073-0.138,2.868-0.414c0.138,0.449,0.311,1.312,0.311,2.107
		C82.101,253.05,82.031,253.775,81.893,254.155z"/>
	<path fill="#64AD94" d="M99.825,242.444v12.057c-0.553,0.138-1.727,0.173-2.28,0.173c-0.587,0-1.935-0.069-2.487-0.173v-11.78
		c0-1.865-0.967-2.694-2.522-2.694c-1.244,0-2.764,0.449-3.869,1.14v13.335c-0.794,0.138-1.9,0.173-2.522,0.173
		c-0.553,0-1.555-0.035-2.245-0.173v-25.184c0.449-0.104,1.451-0.173,2.314-0.173c0.863,0,1.935,0.068,2.453,0.173v8.464
		c1.52-0.968,3.627-1.624,5.458-1.624C97.925,236.157,99.825,238.506,99.825,242.444z"/>
	<path fill="#64AD94" d="M120.522,254.155c-1.037,0.415-2.28,0.691-4.284,0.691c-3.904,0-5.838-1.9-5.838-5.7v-9.086h-2.971
		c-0.138-0.518-0.242-1.382-0.242-1.831c0-0.414,0.104-1.174,0.207-1.52l3.005-0.207v-4.63c0.38-0.068,1.589-0.138,2.384-0.138
		c0.864,0,1.935,0.069,2.384,0.138v4.63h4.975c0.138,0.483,0.207,1.174,0.207,1.554c0,0.415-0.035,1.521-0.172,2.004h-5.009v8.395
		c0,1.728,0.691,2.487,2.383,2.487c0.933,0,2.073-0.138,2.868-0.414c0.138,0.449,0.311,1.312,0.311,2.107
		C120.729,253.05,120.66,253.775,120.522,254.155z"/>
	<path fill="#64AD94" d="M137.106,247.178h-10.917c0.069,2.245,1.624,3.903,4.629,3.903c1.624,0,3.282-0.207,4.698-0.587
		c0.208,0.933,0.345,1.969,0.345,2.901c0,0.138,0,0.311-0.034,0.69c-1.762,0.519-3.593,0.761-5.389,0.761
		c-6.564,0-9.293-3.766-9.293-9.259c0-4.802,2.695-9.431,8.533-9.431c5.527,0,7.531,4.076,7.531,8.567
		C137.21,245.347,137.21,246.279,137.106,247.178z M132.442,243.757c0-2.176-0.587-4.007-2.833-4.007
		c-2.142,0-3.282,1.692-3.42,4.007H132.442z"/>
	<path fill="#64AD94" d="M151.895,238.438c0,0.76-0.104,1.589-0.345,2.314c-1.141-0.449-2.626-0.726-4.042-0.726
		c-2.695,0-4.525,1.728-4.525,5.597c0,3.385,1.554,5.354,4.56,5.354c1.555,0,3.04-0.276,4.146-0.656
		c0.207,0.76,0.312,1.692,0.312,2.418c0,0.483,0,0.829-0.035,1.14c-1.382,0.622-3.212,0.968-4.94,0.968
		c-5.976,0-8.947-3.489-8.947-9.155c0-5.872,3.109-9.534,9.155-9.534c1.692,0,3.351,0.346,4.525,0.898
		C151.86,237.436,151.895,237.919,151.895,238.438z"/>
	<path fill="#64AD94" d="M170.104,242.444v12.057c-0.553,0.138-1.728,0.173-2.28,0.173c-0.587,0-1.935-0.069-2.487-0.173v-11.78
		c0-1.865-0.967-2.694-2.521-2.694c-1.244,0-2.764,0.449-3.869,1.14v13.335c-0.795,0.138-1.9,0.173-2.521,0.173
		c-0.553,0-1.555-0.035-2.246-0.173v-25.184c0.449-0.104,1.451-0.173,2.314-0.173c0.864,0,1.935,0.068,2.453,0.173v8.464
		c1.52-0.968,3.627-1.624,5.458-1.624C168.203,236.157,170.104,238.506,170.104,242.444z"/>
	<path fill="#64AD94" d="M188.796,254.501c-0.553,0.138-1.728,0.173-2.28,0.173c-0.587,0-1.935-0.069-2.487-0.173v-11.814
		c0-1.866-0.967-2.66-2.521-2.66c-1.244,0-2.66,0.449-3.766,1.14v13.335c-0.795,0.138-1.9,0.173-2.521,0.173
		c-0.553,0-1.555-0.035-2.246-0.173v-17.998c0.449-0.104,1.555-0.173,2.073-0.173c0.483,0,1.485,0.068,2.004,0.173l0.241,1.589
		c1.555-1.141,3.8-1.935,5.804-1.935c3.8,0,5.7,2.349,5.7,6.287V254.501z"/>
	<path fill="#64AD94" d="M199.163,254.847c-5.217,0-8.533-3.352-8.533-9.293c0-5.907,3.282-9.396,8.533-9.396
		s8.532,3.454,8.532,9.362C207.695,251.427,204.414,254.847,199.163,254.847z M199.163,239.888c-2.246,0-3.628,1.521-3.628,5.632
		c0,4.11,1.382,5.596,3.628,5.596c2.245,0,3.627-1.485,3.627-5.596C202.79,241.373,201.408,239.888,199.163,239.888z"/>
	<path fill="#64AD94" d="M214.436,254.501c-0.622,0.138-1.9,0.173-2.453,0.173c-0.829,0-1.728-0.069-2.314-0.173v-25.184
		c0.76-0.104,1.692-0.173,2.314-0.173c0.829,0,1.797,0.068,2.453,0.173V254.501z"/>
	<path fill="#64AD94" d="M224.939,254.847c-5.217,0-8.533-3.352-8.533-9.293c0-5.907,3.282-9.396,8.533-9.396
		s8.532,3.454,8.532,9.362C233.472,251.427,230.19,254.847,224.939,254.847z M224.939,239.888c-2.246,0-3.628,1.521-3.628,5.632
		c0,4.11,1.382,5.596,3.628,5.596c2.245,0,3.627-1.485,3.627-5.596C228.566,241.373,227.185,239.888,224.939,239.888z"/>
	<path fill="#64AD94" d="M250.645,251.322c0,2.315-0.139,5.632-1.485,7.911c-1.624,2.729-4.111,3.766-7.428,3.766
		c-1.899,0-3.73-0.241-5.319-0.726c-0.104-0.345-0.139-0.794-0.139-1.243c0-0.76,0.104-1.555,0.276-2.245
		c1.485,0.38,3.247,0.621,4.629,0.621c1.97,0,3.316-0.76,4.077-2.142c0.69-1.243,0.794-2.384,0.794-3.766
		c-0.863,0.656-2.452,1.175-4.076,1.175c-5.044,0-7.635-3.731-7.635-8.671c0-6.426,3.351-9.846,9.673-9.846
		c1.624,0,4.561,0.311,6.633,1.175V251.322z M245.877,240.13c-0.518-0.104-1.589-0.173-2.038-0.173
		c-3.178,0-4.595,2.038-4.595,5.804c0,3.006,1.105,5.078,3.489,5.078c1.348,0,2.453-0.38,3.144-0.967V240.13z"/>
	<path fill="#64AD94" d="M256.141,234.533c-1.451,0-2.626-1.174-2.626-2.625s1.175-2.626,2.626-2.626s2.625,1.175,2.625,2.626
		S257.592,234.533,256.141,234.533z M258.524,254.501c-0.622,0.138-1.9,0.173-2.453,0.173c-0.829,0-1.728-0.069-2.314-0.173v-17.998
		c0.76-0.104,1.692-0.173,2.314-0.173c0.829,0,1.692,0.068,2.453,0.173V254.501z"/>
	<path fill="#64AD94" d="M276.627,247.178h-10.916c0.068,2.245,1.623,3.903,4.629,3.903c1.624,0,3.282-0.207,4.698-0.587
		c0.207,0.933,0.346,1.969,0.346,2.901c0,0.138,0,0.311-0.035,0.69c-1.762,0.519-3.593,0.761-5.389,0.761
		c-6.563,0-9.293-3.766-9.293-9.259c0-4.802,2.694-9.431,8.533-9.431c5.527,0,7.53,4.076,7.53,8.567
		C276.73,245.347,276.73,246.279,276.627,247.178z M271.964,243.757c0-2.176-0.588-4.007-2.833-4.007
		c-2.142,0-3.282,1.692-3.42,4.007H271.964z"/>
	<path fill="#64AD94" d="M283.954,254.847c-2.038,0-4.18-0.312-5.838-0.864c-0.104-0.518-0.139-1.174-0.139-1.865
		c0-0.553,0.139-1.348,0.276-1.831c1.589,0.553,3.869,0.933,5.217,0.933c1.865,0,2.937-0.621,2.937-1.899
		c0-1.105-0.864-1.624-3.144-2.35c-3.628-1.14-5.32-2.833-5.32-5.458c0-3.903,3.593-5.354,7.013-5.354
		c1.589,0,3.351,0.276,4.56,0.656c0.139,0.519,0.208,1.243,0.208,1.658c0,0.449-0.139,1.382-0.312,1.969
		c-1.174-0.345-2.798-0.621-4.146-0.621c-1.658,0-2.798,0.414-2.798,1.45c0,1.105,1.278,1.555,3.281,2.211
		c3.489,1.141,5.147,2.592,5.147,5.32C290.897,253.016,287.513,254.847,283.954,254.847z"/>
</g>
</svg>
