<?xml version="1.0" encoding="utf-8"?>
<!-- Generator: Adobe Illustrator 16.0.0, SVG Export Plug-In . SVG Version: 6.00 Build 0)  -->
<!DOCTYPE svg PUBLIC "-//W3C//DTD SVG 1.1//EN" "http://www.w3.org/Graphics/SVG/1.1/DTD/svg11.dtd">
<svg version="1.1" id="Layer_1" xmlns="http://www.w3.org/2000/svg" xmlns:xlink="http://www.w3.org/1999/xlink" x="0px" y="0px"
	 width="300px" height="300px" viewBox="0 0 300 300" enable-background="new 0 0 300 300" xml:space="preserve">
<g>
	<path fill="#66A71E" d="M76.281,167.625c-2.908,0.582-8.143,0.97-13.765,0.97c-5.429,0-10.276-0.388-13.766-0.97V67.39
		L21.22,85.615c-6.592-6.01-11.245-14.153-12.99-21.133l45.562-27.918c2.714-0.582,8.336-0.97,11.245-0.97
		c3.296,0,9.306,0.582,11.245,0.97V167.625z"/>
</g>
<g>
	<path fill="#66A71E" d="M98.365,150.263c-0.646-0.206-1.411-0.323-2.175-0.323c-1.704,0-2.586,0.911-2.586,2.88v0.617h3.762
		c0.147,0.5,0.176,1.176,0.176,1.499c0,0.353-0.059,0.999-0.147,1.528h-3.791v12.284c-0.412,0.088-1.381,0.146-1.999,0.146
		c-0.5,0-1.646-0.059-2.057-0.146v-12.284h-2.498c-0.118-0.353-0.206-1.059-0.206-1.411c0-0.499,0.088-1.116,0.235-1.439
		l2.469-0.177v-0.44c0-3.938,2.028-6.054,5.878-6.054c0.911,0,2.204,0.206,3.085,0.529c0.118,0.353,0.147,0.882,0.147,1.293
		C98.659,149.205,98.542,149.792,98.365,150.263z"/>
	<path fill="#66A71E" d="M105.185,169.042c-4.438,0-7.259-2.851-7.259-7.905c0-5.025,2.792-7.994,7.259-7.994
		c4.467,0,7.259,2.939,7.259,7.965S109.652,169.042,105.185,169.042z M105.185,156.316c-1.91,0-3.085,1.293-3.085,4.791
		c0,3.497,1.175,4.761,3.085,4.761c1.911,0,3.086-1.264,3.086-4.761C108.271,157.58,107.096,156.316,105.185,156.316z"/>
	<path fill="#66A71E" d="M121.028,169.042c-4.438,0-7.259-2.851-7.259-7.905c0-5.025,2.792-7.994,7.259-7.994
		c4.467,0,7.259,2.939,7.259,7.965S125.495,169.042,121.028,169.042z M121.028,156.316c-1.91,0-3.085,1.293-3.085,4.791
		c0,3.497,1.175,4.761,3.085,4.761c1.911,0,3.086-1.264,3.086-4.761C124.114,157.58,122.938,156.316,121.028,156.316z"/>
	<path fill="#66A71E" d="M140.191,168.454c-0.881,0.353-1.939,0.588-3.644,0.588c-3.321,0-4.966-1.616-4.966-4.85v-7.729h-2.528
		c-0.117-0.441-0.206-1.176-0.206-1.558c0-0.353,0.088-0.999,0.176-1.293l2.557-0.177v-3.938c0.323-0.059,1.352-0.118,2.027-0.118
		c0.735,0,1.646,0.059,2.028,0.118v3.938h4.232c0.118,0.411,0.177,0.999,0.177,1.322c0,0.353-0.03,1.294-0.147,1.705h-4.262v7.142
		c0,1.469,0.588,2.115,2.028,2.115c0.793,0,1.764-0.117,2.439-0.353c0.118,0.382,0.265,1.117,0.265,1.793
		C140.368,167.514,140.309,168.131,140.191,168.454z"/>
	<path fill="#66A71E" d="M148.216,169.042c-1.411,0-3.82-0.177-5.73-0.911v-20.807c0.44-0.088,1.264-0.147,1.969-0.147
		c0.882,0,1.763,0.088,2.086,0.147v6.789c0.911-0.499,2.292-0.97,3.585-0.97c4.584,0,6.231,3.674,6.231,7.348
		C156.357,165.545,153.712,169.042,148.216,169.042z M149.333,156.435c-0.97,0-2.028,0.323-2.792,0.822v8.405
		c0.441,0.118,1.234,0.206,2.028,0.206c2.586,0,3.615-1.822,3.615-5.144C152.184,158.433,151.508,156.435,149.333,156.435z"/>
	<path fill="#66A71E" d="M170.76,164.486c0,1.264,0.029,2.704,0.029,4.262c-0.471,0.117-1.264,0.146-1.764,0.146
		c-0.559,0-1.293-0.059-1.763-0.146c-0.06-0.353-0.118-0.97-0.147-1.352h-0.059c-0.999,1.028-2.704,1.646-4.262,1.646
		c-2.938,0-5.055-1.822-5.055-4.85c0-4.702,4.174-5.495,7.671-5.495c0.234,0,0.793,0.029,1.264,0.059
		c0-0.176-0.029-0.559-0.06-0.705c-0.205-1.205-0.999-1.705-2.703-1.705c-1.322,0-3.174,0.265-4.585,0.617
		c-0.146-0.411-0.235-1.116-0.235-1.646c0-0.44,0.06-1.116,0.177-1.41c1.646-0.5,3.674-0.765,5.349-0.765
		c3.674,0,6.143,1.705,6.143,5.525V164.486z M166.704,161.577c-0.353-0.029-0.823-0.059-1.234-0.059
		c-2.646,0-3.674,1.058-3.674,2.381c0,1.146,0.765,1.939,2.087,1.939c0.97,0,2.057-0.471,2.821-1.146V161.577z"/>
	<path fill="#66A71E" d="M177.903,168.748c-0.529,0.117-1.616,0.146-2.087,0.146c-0.705,0-1.469-0.059-1.969-0.146v-21.424
		c0.646-0.088,1.44-0.147,1.969-0.147c0.706,0,1.528,0.059,2.087,0.147V168.748z"/>
	<path fill="#66A71E" d="M185.163,168.748c-0.529,0.117-1.616,0.146-2.087,0.146c-0.705,0-1.469-0.059-1.969-0.146v-21.424
		c0.646-0.088,1.44-0.147,1.969-0.147c0.706,0,1.528,0.059,2.087,0.147V168.748z"/>
</g>
<g>
	<path fill="#66A71E" d="M98.953,186.561c0,0.646-0.088,1.353-0.294,1.97c-0.97-0.383-2.233-0.617-3.438-0.617
		c-2.292,0-3.85,1.469-3.85,4.761c0,2.88,1.322,4.555,3.879,4.555c1.323,0,2.586-0.234,3.527-0.558
		c0.176,0.646,0.265,1.439,0.265,2.057c0,0.412,0,0.705-0.03,0.97c-1.175,0.529-2.733,0.823-4.202,0.823
		c-5.084,0-7.612-2.969-7.612-7.788c0-4.996,2.645-8.111,7.788-8.111c1.44,0,2.851,0.294,3.85,0.765
		C98.924,185.709,98.953,186.12,98.953,186.561z"/>
	<path fill="#66A71E" d="M107.271,200.521c-4.438,0-7.259-2.851-7.259-7.905c0-5.025,2.792-7.994,7.259-7.994
		c4.467,0,7.259,2.939,7.259,7.965S111.739,200.521,107.271,200.521z M107.271,187.795c-1.91,0-3.085,1.293-3.085,4.791
		c0,3.497,1.175,4.761,3.085,4.761s3.086-1.264,3.086-4.761C110.357,189.059,109.182,187.795,107.271,187.795z"/>
	<path fill="#66A71E" d="M128.934,195.965c0,1.264,0.03,2.704,0.03,4.262c-0.47,0.117-1.264,0.146-1.764,0.146
		c-0.558,0-1.293-0.059-1.763-0.146c-0.059-0.353-0.118-0.97-0.147-1.352h-0.059c-1,1.028-2.704,1.646-4.261,1.646
		c-2.939,0-5.055-1.822-5.055-4.85c0-4.702,4.173-5.495,7.67-5.495c0.235,0,0.793,0.029,1.264,0.059
		c0-0.176-0.029-0.559-0.059-0.705c-0.206-1.205-0.999-1.705-2.704-1.705c-1.323,0-3.174,0.265-4.584,0.617
		c-0.147-0.411-0.235-1.116-0.235-1.646c0-0.44,0.059-1.116,0.176-1.41c1.646-0.5,3.674-0.765,5.349-0.765
		c3.674,0,6.142,1.705,6.142,5.525V195.965z M124.878,193.056c-0.353-0.029-0.823-0.059-1.234-0.059
		c-2.645,0-3.674,1.058-3.674,2.381c0,1.146,0.764,1.939,2.087,1.939c0.97,0,2.057-0.471,2.821-1.146V193.056z"/>
	<path fill="#66A71E" d="M142.837,186.561c0,0.646-0.088,1.353-0.294,1.97c-0.97-0.383-2.233-0.617-3.438-0.617
		c-2.292,0-3.85,1.469-3.85,4.761c0,2.88,1.322,4.555,3.879,4.555c1.323,0,2.586-0.234,3.527-0.558
		c0.176,0.646,0.265,1.439,0.265,2.057c0,0.412,0,0.705-0.03,0.97c-1.175,0.529-2.733,0.823-4.202,0.823
		c-5.084,0-7.612-2.969-7.612-7.788c0-4.996,2.645-8.111,7.788-8.111c1.44,0,2.851,0.294,3.85,0.765
		C142.808,185.709,142.837,186.12,142.837,186.561z"/>
	<path fill="#66A71E" d="M158.914,189.97v10.257c-0.47,0.117-1.47,0.146-1.939,0.146c-0.5,0-1.646-0.059-2.116-0.146v-10.021
		c0-1.587-0.823-2.292-2.146-2.292c-1.058,0-2.351,0.382-3.291,0.97v11.344c-0.676,0.117-1.617,0.146-2.146,0.146
		c-0.47,0-1.323-0.029-1.91-0.146v-21.424c0.382-0.089,1.234-0.147,1.969-0.147c0.735,0,1.646,0.059,2.087,0.147v7.2
		c1.293-0.823,3.086-1.382,4.644-1.382C157.298,184.621,158.914,186.62,158.914,189.97z"/>
	<path fill="#66A71E" d="M164.177,183.24c-1.234,0-2.233-0.999-2.233-2.233s0.999-2.233,2.233-2.233s2.233,0.999,2.233,2.233
		S165.411,183.24,164.177,183.24z M166.204,200.227c-0.528,0.117-1.616,0.146-2.086,0.146c-0.706,0-1.47-0.059-1.97-0.146v-15.312
		c0.647-0.088,1.44-0.146,1.97-0.146c0.705,0,1.439,0.059,2.086,0.146V200.227z"/>
	<path fill="#66A71E" d="M182.957,200.227c-0.471,0.117-1.47,0.146-1.939,0.146c-0.5,0-1.646-0.059-2.116-0.146v-10.051
		c0-1.587-0.823-2.263-2.146-2.263c-1.058,0-2.263,0.382-3.203,0.97v11.344c-0.676,0.117-1.616,0.146-2.146,0.146
		c-0.471,0-1.322-0.029-1.91-0.146v-15.312c0.382-0.088,1.322-0.146,1.763-0.146c0.412,0,1.264,0.059,1.705,0.146l0.206,1.352
		c1.322-0.97,3.232-1.646,4.937-1.646c3.233,0,4.85,1.999,4.85,5.349V200.227z"/>
	<path fill="#66A71E" d="M198.976,197.522c0,1.97-0.117,4.791-1.264,6.73c-1.381,2.321-3.497,3.203-6.318,3.203
		c-1.616,0-3.174-0.206-4.525-0.617c-0.089-0.294-0.118-0.676-0.118-1.058c0-0.646,0.089-1.322,0.235-1.91
		c1.264,0.323,2.763,0.528,3.938,0.528c1.675,0,2.821-0.646,3.468-1.821c0.587-1.059,0.676-2.028,0.676-3.204
		c-0.735,0.559-2.087,0.999-3.468,0.999c-4.291,0-6.495-3.174-6.495-7.376c0-5.466,2.851-8.376,8.229-8.376
		c1.382,0,3.88,0.265,5.643,0.999V197.522z M194.92,188.001c-0.44-0.088-1.352-0.146-1.733-0.146c-2.704,0-3.909,1.733-3.909,4.937
		c0,2.557,0.94,4.32,2.969,4.32c1.146,0,2.086-0.323,2.674-0.823V188.001z"/>
</g>
<g>
	<path fill="#66A71E" d="M101.069,231.708c-0.471,0.088-1.264,0.146-1.881,0.146c-0.559,0-1.205-0.059-1.617-0.146l-0.118-1.352
		c-1.058,1.028-2.41,1.646-3.997,1.646c-4.379,0-6.26-3.497-6.26-7.7c0-4.525,2.028-8.199,6.701-8.199
		c1.146,0,2.469,0.353,3.115,0.765v-6.583c0.529-0.089,1.411-0.147,2.057-0.147c0.793,0,1.411,0.088,1.999,0.147V231.708z
		 M97.014,219.894c-0.706-0.323-1.617-0.499-2.381-0.499c-2.38,0-3.262,2.115-3.262,4.673c0,2.145,0.529,4.584,2.909,4.584
		c1.146,0,2.028-0.47,2.733-1.058V219.894z"/>
	<path fill="#66A71E" d="M116.765,225.478h-9.287c0.059,1.91,1.381,3.321,3.938,3.321c1.381,0,2.792-0.177,3.997-0.5
		c0.176,0.794,0.294,1.675,0.294,2.469c0,0.117,0,0.265-0.029,0.588c-1.499,0.44-3.057,0.646-4.585,0.646
		c-5.583,0-7.905-3.203-7.905-7.876c0-4.085,2.292-8.023,7.259-8.023c4.702,0,6.407,3.468,6.407,7.288
		C116.853,223.92,116.853,224.714,116.765,225.478z M112.797,222.568c0-1.852-0.5-3.409-2.41-3.409c-1.822,0-2.792,1.44-2.91,3.409
		H112.797z"/>
	<path fill="#66A71E" d="M132.049,229.004c0,1.97-0.117,4.791-1.264,6.73c-1.381,2.321-3.497,3.203-6.318,3.203
		c-1.616,0-3.174-0.206-4.526-0.617c-0.088-0.294-0.118-0.676-0.118-1.058c0-0.646,0.088-1.323,0.235-1.91
		c1.264,0.323,2.763,0.528,3.938,0.528c1.675,0,2.821-0.646,3.468-1.822c0.588-1.058,0.676-2.027,0.676-3.203
		c-0.735,0.559-2.087,0.999-3.468,0.999c-4.291,0-6.495-3.174-6.495-7.376c0-5.467,2.851-8.376,8.229-8.376
		c1.381,0,3.879,0.265,5.643,0.999V229.004z M127.994,219.482c-0.441-0.088-1.352-0.146-1.734-0.146
		c-2.704,0-3.909,1.733-3.909,4.937c0,2.557,0.94,4.32,2.968,4.32c1.146,0,2.086-0.323,2.674-0.823V219.482z"/>
	<path fill="#66A71E" d="M143.777,219.512c-1.528,0.235-3.174,0.765-4.644,1.528v10.668c-0.411,0.088-1.293,0.146-1.998,0.146
		c-0.706,0-1.734-0.059-2.057-0.146v-15.312c0.44-0.059,1.175-0.146,1.763-0.146c0.5,0,1.293,0.059,1.705,0.146l0.235,1.881
		c1.087-0.97,3.057-2.027,4.967-2.175c0.059,0.235,0.118,1.088,0.118,1.705C143.866,218.396,143.836,219.101,143.777,219.512z"/>
	<path fill="#66A71E" d="M158.12,225.478h-9.287c0.059,1.91,1.381,3.321,3.938,3.321c1.382,0,2.792-0.177,3.997-0.5
		c0.177,0.794,0.294,1.675,0.294,2.469c0,0.117,0,0.265-0.029,0.588c-1.499,0.44-3.057,0.646-4.585,0.646
		c-5.583,0-7.905-3.203-7.905-7.876c0-4.085,2.292-8.023,7.259-8.023c4.702,0,6.407,3.468,6.407,7.288
		C158.209,223.92,158.209,224.714,158.12,225.478z M154.153,222.568c0-1.852-0.5-3.409-2.41-3.409c-1.822,0-2.792,1.44-2.91,3.409
		H154.153z"/>
	<path fill="#66A71E" d="M173.11,225.478h-9.286c0.059,1.91,1.381,3.321,3.938,3.321c1.382,0,2.792-0.177,3.997-0.5
		c0.177,0.794,0.294,1.675,0.294,2.469c0,0.117,0,0.265-0.029,0.588c-1.499,0.44-3.057,0.646-4.585,0.646
		c-5.584,0-7.905-3.203-7.905-7.876c0-4.085,2.292-8.023,7.259-8.023c4.702,0,6.407,3.468,6.407,7.288
		C173.199,223.92,173.199,224.714,173.11,225.478z M169.144,222.568c0-1.852-0.5-3.409-2.41-3.409c-1.822,0-2.792,1.44-2.909,3.409
		H169.144z"/>
	<path fill="#66A71E" d="M187.837,232.002c-4.438,0-7.259-2.851-7.259-7.905c0-5.025,2.792-7.994,7.259-7.994
		s7.259,2.939,7.259,7.965S192.304,232.002,187.837,232.002z M187.837,219.276c-1.91,0-3.086,1.293-3.086,4.791
		c0,3.497,1.176,4.761,3.086,4.761s3.086-1.264,3.086-4.761C190.923,220.54,189.747,219.276,187.837,219.276z"/>
	<path fill="#66A71E" d="M210.733,231.708c-0.471,0.117-1.47,0.146-1.939,0.146c-0.5,0-1.646-0.059-2.116-0.146v-10.051
		c0-1.587-0.823-2.263-2.146-2.263c-1.058,0-2.263,0.382-3.203,0.97v11.344c-0.676,0.117-1.616,0.146-2.146,0.146
		c-0.471,0-1.322-0.029-1.91-0.146v-15.312c0.382-0.088,1.322-0.146,1.763-0.146c0.412,0,1.264,0.059,1.705,0.146l0.206,1.352
		c1.322-0.97,3.232-1.646,4.937-1.646c3.233,0,4.85,1.999,4.85,5.349V231.708z"/>
</g>
<g>
	<path fill="#66A71E" d="M97.777,262.895c-0.881,0.353-1.939,0.588-3.644,0.588c-3.321,0-4.966-1.616-4.966-4.85v-7.729h-2.528
		c-0.117-0.441-0.206-1.176-0.206-1.558c0-0.353,0.088-0.999,0.176-1.293l2.557-0.177v-3.938c0.323-0.06,1.352-0.118,2.027-0.118
		c0.735,0,1.646,0.059,2.028,0.118v3.938h4.232c0.118,0.411,0.177,0.999,0.177,1.322c0,0.354-0.03,1.293-0.147,1.705h-4.262v7.142
		c0,1.469,0.588,2.115,2.028,2.115c0.793,0,1.764-0.117,2.439-0.353c0.118,0.382,0.265,1.117,0.265,1.793
		C97.954,261.954,97.895,262.571,97.777,262.895z"/>
	<path fill="#66A71E" d="M113.62,252.932v10.257c-0.47,0.117-1.469,0.146-1.939,0.146c-0.5,0-1.646-0.059-2.116-0.146v-10.021
		c0-1.587-0.823-2.292-2.145-2.292c-1.058,0-2.352,0.382-3.292,0.97v11.344c-0.676,0.117-1.616,0.146-2.145,0.146
		c-0.47,0-1.323-0.029-1.91-0.146v-21.424c0.382-0.089,1.234-0.147,1.969-0.147s1.646,0.059,2.086,0.147v7.2
		c1.293-0.823,3.086-1.382,4.644-1.382C112.003,247.583,113.62,249.582,113.62,252.932z"/>
	<path fill="#66A71E" d="M129.315,256.958h-9.287c0.059,1.91,1.381,3.321,3.938,3.321c1.381,0,2.792-0.177,3.997-0.5
		c0.176,0.794,0.294,1.675,0.294,2.469c0,0.117,0,0.265-0.029,0.588c-1.499,0.44-3.057,0.646-4.585,0.646
		c-5.583,0-7.905-3.203-7.905-7.876c0-4.085,2.292-8.023,7.259-8.023c4.702,0,6.407,3.468,6.407,7.288
		C129.403,255.4,129.403,256.194,129.315,256.958z M125.348,254.049c0-1.852-0.5-3.409-2.41-3.409c-1.822,0-2.792,1.44-2.91,3.409
		H125.348z"/>
	<path fill="#66A71E" d="M139.898,246.202c-1.234,0-2.233-0.999-2.233-2.233s0.999-2.233,2.233-2.233s2.233,0.999,2.233,2.233
		S141.133,246.202,139.898,246.202z M141.926,263.188c-0.529,0.117-1.617,0.146-2.086,0.146c-0.706,0-1.47-0.059-1.969-0.146
		v-15.312c0.646-0.088,1.44-0.146,1.969-0.146c0.705,0,1.44,0.059,2.086,0.146V263.188z"/>
	<path fill="#66A71E" d="M149.744,263.482c-1.734,0-3.556-0.265-4.967-0.734c-0.088-0.441-0.118-1-0.118-1.587
		c0-0.471,0.118-1.146,0.235-1.558c1.352,0.47,3.292,0.793,4.438,0.793c1.587,0,2.498-0.529,2.498-1.616
		c0-0.94-0.734-1.381-2.674-1.998c-3.086-0.971-4.526-2.41-4.526-4.644c0-3.321,3.056-4.556,5.966-4.556
		c1.352,0,2.851,0.235,3.879,0.559c0.117,0.44,0.176,1.058,0.176,1.411c0,0.382-0.117,1.175-0.264,1.675
		c-1-0.294-2.381-0.529-3.527-0.529c-1.411,0-2.381,0.353-2.381,1.234c0,0.94,1.087,1.322,2.792,1.881
		c2.968,0.97,4.379,2.204,4.379,4.526C155.651,261.925,152.771,263.482,149.744,263.482z"/>
	<path fill="#66A71E" d="M162.03,263.188c-0.529,0.117-1.616,0.146-2.087,0.146c-0.705,0-1.469-0.059-1.969-0.146v-21.424
		c0.646-0.089,1.44-0.147,1.969-0.147c0.706,0,1.528,0.059,2.087,0.147V263.188z"/>
	<path fill="#66A71E" d="M177.372,258.927c0,1.264,0.029,2.704,0.029,4.262c-0.471,0.117-1.264,0.146-1.764,0.146
		c-0.559,0-1.293-0.059-1.763-0.146c-0.06-0.353-0.118-0.97-0.147-1.352h-0.059c-0.999,1.028-2.704,1.646-4.262,1.646
		c-2.938,0-5.055-1.822-5.055-4.85c0-4.702,4.173-5.495,7.671-5.495c0.234,0,0.793,0.029,1.264,0.059
		c0-0.176-0.029-0.559-0.059-0.705c-0.206-1.205-1-1.705-2.704-1.705c-1.322,0-3.174,0.265-4.585,0.617
		c-0.146-0.411-0.234-1.116-0.234-1.646c0-0.44,0.059-1.116,0.176-1.41c1.646-0.5,3.674-0.765,5.349-0.765
		c3.674,0,6.143,1.705,6.143,5.525V258.927z M173.316,256.018c-0.353-0.029-0.823-0.059-1.234-0.059
		c-2.646,0-3.674,1.058-3.674,2.381c0,1.146,0.765,1.939,2.087,1.939c0.97,0,2.057-0.471,2.821-1.146V256.018z"/>
	<path fill="#66A71E" d="M193.891,263.188c-0.471,0.117-1.47,0.146-1.939,0.146c-0.5,0-1.646-0.059-2.116-0.146v-10.051
		c0-1.587-0.823-2.263-2.146-2.263c-1.058,0-2.263,0.382-3.203,0.97v11.344c-0.676,0.117-1.616,0.146-2.146,0.146
		c-0.471,0-1.322-0.029-1.91-0.146v-15.312c0.382-0.088,1.322-0.146,1.763-0.146c0.412,0,1.264,0.059,1.705,0.146l0.206,1.352
		c1.322-0.97,3.232-1.646,4.937-1.646c3.233,0,4.85,1.999,4.85,5.349V263.188z"/>
	<path fill="#66A71E" d="M209.909,263.188c-0.47,0.088-1.264,0.146-1.881,0.146c-0.559,0-1.205-0.059-1.616-0.146l-0.117-1.352
		c-1.059,1.028-2.41,1.646-3.997,1.646c-4.379,0-6.26-3.497-6.26-7.7c0-4.525,2.027-8.199,6.7-8.199
		c1.146,0,2.469,0.353,3.115,0.765v-6.583c0.529-0.089,1.411-0.147,2.058-0.147c0.793,0,1.41,0.088,1.998,0.147V263.188z
		 M205.854,251.374c-0.705-0.323-1.616-0.499-2.38-0.499c-2.381,0-3.263,2.115-3.263,4.673c0,2.145,0.529,4.584,2.91,4.584
		c1.146,0,2.027-0.47,2.732-1.058V251.374z"/>
	<path fill="#66A71E" d="M225.342,263.482c-4.438,0-7.259-2.851-7.259-7.905c0-5.025,2.792-7.994,7.259-7.994
		s7.259,2.939,7.259,7.965S229.809,263.482,225.342,263.482z M225.342,250.757c-1.91,0-3.086,1.293-3.086,4.791
		c0,3.497,1.176,4.761,3.086,4.761s3.086-1.264,3.086-4.761C228.428,252.021,227.252,250.757,225.342,250.757z"/>
	<path fill="#66A71E" d="M244.858,244.703c-0.646-0.206-1.411-0.323-2.175-0.323c-1.705,0-2.587,0.911-2.587,2.88v0.617h3.762
		c0.147,0.5,0.177,1.176,0.177,1.499c0,0.353-0.059,0.999-0.146,1.528h-3.792v12.284c-0.411,0.088-1.381,0.146-1.998,0.146
		c-0.5,0-1.646-0.059-2.058-0.146v-12.284h-2.497c-0.118-0.353-0.206-1.059-0.206-1.411c0-0.499,0.088-1.116,0.235-1.439
		l2.468-0.177v-0.44c0-3.938,2.028-6.055,5.878-6.055c0.911,0,2.204,0.206,3.086,0.529c0.117,0.353,0.147,0.882,0.147,1.293
		C245.152,243.646,245.034,244.233,244.858,244.703z"/>
</g>
<g>
	<path fill="#66A71E" d="M92.723,294.667c-0.558,0.088-1.234,0.146-2.116,0.146c-0.793,0-1.528-0.059-2.087-0.146v-19.866
		c0.559-0.089,1.381-0.147,2.116-0.147c0.823,0,1.558,0.059,2.086,0.147V294.667z"/>
	<path fill="#66A71E" d="M104.92,282.471c-1.528,0.235-3.174,0.765-4.644,1.528v10.668c-0.411,0.088-1.293,0.146-1.998,0.146
		c-0.706,0-1.734-0.059-2.057-0.146v-15.312c0.44-0.059,1.175-0.146,1.763-0.146c0.5,0,1.293,0.059,1.705,0.146l0.235,1.881
		c1.087-0.97,3.057-2.027,4.967-2.175c0.059,0.235,0.118,1.088,0.118,1.705C105.008,281.354,104.979,282.06,104.92,282.471z"/>
	<path fill="#66A71E" d="M119.263,288.437h-9.287c0.059,1.91,1.381,3.321,3.938,3.321c1.381,0,2.792-0.177,3.997-0.5
		c0.176,0.794,0.294,1.675,0.294,2.469c0,0.117,0,0.265-0.029,0.588c-1.499,0.44-3.057,0.646-4.585,0.646
		c-5.583,0-7.905-3.203-7.905-7.876c0-4.085,2.292-8.023,7.259-8.023c4.702,0,6.407,3.468,6.407,7.288
		C119.351,286.879,119.351,287.673,119.263,288.437z M115.295,285.527c0-1.852-0.5-3.409-2.41-3.409c-1.822,0-2.792,1.44-2.91,3.409
		H115.295z"/>
	<path fill="#66A71E" d="M125.672,294.667c-0.529,0.117-1.616,0.146-2.086,0.146c-0.706,0-1.47-0.059-1.969-0.146v-21.424
		c0.646-0.089,1.44-0.147,1.969-0.147c0.705,0,1.528,0.059,2.086,0.147V294.667z"/>
	<path fill="#66A71E" d="M141.014,290.405c0,1.264,0.03,2.704,0.03,4.262c-0.47,0.117-1.264,0.146-1.764,0.146
		c-0.558,0-1.293-0.059-1.763-0.146c-0.059-0.353-0.118-0.97-0.147-1.352h-0.059c-1,1.028-2.704,1.646-4.261,1.646
		c-2.939,0-5.055-1.822-5.055-4.85c0-4.702,4.173-5.495,7.67-5.495c0.235,0,0.793,0.029,1.264,0.059
		c0-0.176-0.029-0.559-0.059-0.705c-0.206-1.205-0.999-1.705-2.704-1.705c-1.323,0-3.174,0.265-4.584,0.617
		c-0.147-0.411-0.235-1.116-0.235-1.646c0-0.44,0.059-1.116,0.176-1.41c1.646-0.5,3.674-0.765,5.349-0.765
		c3.674,0,6.142,1.705,6.142,5.525V290.405z M136.958,287.496c-0.353-0.029-0.823-0.059-1.234-0.059
		c-2.645,0-3.674,1.058-3.674,2.381c0,1.146,0.764,1.939,2.087,1.939c0.97,0,2.057-0.471,2.821-1.146V287.496z"/>
	<path fill="#66A71E" d="M157.503,294.667c-0.471,0.117-1.47,0.146-1.939,0.146c-0.5,0-1.646-0.059-2.116-0.146v-10.051
		c0-1.587-0.823-2.263-2.146-2.263c-1.058,0-2.263,0.382-3.203,0.97v11.344c-0.676,0.117-1.617,0.146-2.146,0.146
		c-0.47,0-1.323-0.029-1.91-0.146v-15.312c0.382-0.088,1.322-0.146,1.763-0.146c0.412,0,1.264,0.059,1.705,0.146l0.206,1.352
		c1.323-0.97,3.233-1.646,4.937-1.646c3.233,0,4.85,1.999,4.85,5.349V294.667z"/>
	<path fill="#66A71E" d="M173.521,294.667c-0.47,0.088-1.264,0.146-1.881,0.146c-0.559,0-1.205-0.059-1.616-0.146l-0.117-1.352
		c-1.059,1.028-2.41,1.646-3.997,1.646c-4.379,0-6.26-3.497-6.26-7.7c0-4.525,2.027-8.199,6.7-8.199
		c1.146,0,2.469,0.353,3.115,0.765v-6.583c0.529-0.089,1.411-0.147,2.058-0.147c0.793,0,1.41,0.088,1.998,0.147V294.667z
		 M169.466,282.853c-0.705-0.323-1.616-0.499-2.38-0.499c-2.381,0-3.263,2.115-3.263,4.673c0,2.145,0.529,4.584,2.91,4.584
		c1.146,0,2.027-0.47,2.732-1.058V282.853z"/>
</g>
<g>
	<path fill="#66A71E" d="M108.217,132.344c-8.052,0-16.513-1.228-23.064-3.412c-0.41-2.047-0.546-4.641-0.546-7.37
		c0-2.184,0.546-5.322,1.092-7.233c6.277,2.184,15.285,3.685,20.607,3.685c7.37,0,11.601-2.457,11.601-7.506
		c0-4.367-3.412-6.415-12.419-9.28c-14.33-4.503-21.017-11.191-21.017-21.563c0-15.422,14.193-21.153,27.704-21.153
		c6.278,0,13.238,1.092,18.015,2.593c0.546,2.047,0.819,4.913,0.819,6.551c0,1.774-0.546,5.459-1.229,7.779
		c-4.64-1.365-11.055-2.457-16.377-2.457c-6.551,0-11.055,1.638-11.055,5.732c0,4.367,5.05,6.141,12.965,8.734
		c13.784,4.503,20.334,10.235,20.334,21.017C135.648,125.111,122.274,132.344,108.217,132.344z"/>
	<path fill="#66A71E" d="M186.277,129.615c-4.095,1.638-9.008,2.729-16.924,2.729c-15.421,0-23.063-7.506-23.063-22.518V73.933
		h-11.737c-0.546-2.047-0.955-5.459-0.955-7.233c0-1.638,0.409-4.641,0.819-6.005l11.874-0.819V41.589
		c1.501-0.273,6.277-0.546,9.417-0.546c3.411,0,7.643,0.272,9.416,0.546v18.287h19.652c0.546,1.911,0.819,4.641,0.819,6.142
		c0,1.638-0.137,6.005-0.683,7.916h-19.789v33.164c0,6.823,2.729,9.826,9.417,9.826c3.685,0,8.188-0.546,11.327-1.638
		c0.546,1.774,1.229,5.186,1.229,8.325C187.096,125.248,186.822,128.113,186.277,129.615z"/>
</g>
<g>
	<path fill="#333333" d="M27.831,11.56c-0.202-0.806-0.353-1.536-0.453-2.266c-0.126,0.705-0.277,1.385-0.504,2.241l-3.122,12.236
		c-0.252,0.076-0.655,0.126-1.007,0.126s-0.831-0.025-1.083-0.126l-3.676-12.765c-0.428-1.41-0.604-2.845-0.629-4.255
		c0.252-0.076,0.629-0.126,0.881-0.126c0.277,0,0.528,0.05,0.831,0.126c0.025,1.334,0.176,2.618,0.529,3.902l2.593,9.215
		c0.126,0.479,0.479,1.762,0.579,2.291c0.05-0.503,0.302-1.611,0.479-2.316l3.298-13.092c0.227-0.076,0.554-0.126,0.806-0.126
		c0.277,0,0.629,0.076,0.806,0.126l3.298,13.067c0.176,0.654,0.403,1.636,0.579,2.367c0.176-0.73,0.428-1.737,0.629-2.468
		l2.568-9.063c0.353-1.284,0.554-2.568,0.579-3.902c0.252-0.076,0.529-0.126,0.831-0.126c0.251,0,0.629,0.05,0.831,0.126
		c-0.025,1.309-0.201,2.694-0.629,4.154l-3.701,12.865c-0.277,0.076-0.856,0.126-1.133,0.126c-0.251,0-0.705-0.05-1.007-0.126
		L27.831,11.56z"/>
	<path fill="#333333" d="M48.8,17.652h-8.434c0.101,2.896,1.46,5.086,4.607,5.086c1.133,0,2.19-0.151,3.122-0.378
		c0.05,0.126,0.101,0.378,0.101,0.529c0,0.252-0.05,0.479-0.126,0.655c-0.982,0.302-2.215,0.479-3.248,0.479
		c-1.989,0-3.5-0.629-4.431-1.637c-1.108-1.208-1.687-3.021-1.687-5.111c0-3.651,1.838-6.874,5.514-6.874
		c3.298,0,4.607,2.719,4.607,6.042C48.825,16.822,48.825,17.275,48.8,17.652z M47.188,16.444c0-2.316-0.251-4.809-3.046-4.809
		c-2.442,0-3.625,2.241-3.776,4.809H47.188z"/>
	<path fill="#333333" d="M58.012,8.085c-0.579,0-1.058-0.504-1.058-1.108c0-0.604,0.479-1.083,1.058-1.083
		c0.579,0,1.083,0.478,1.083,1.083C59.094,7.582,58.59,8.085,58.012,8.085z M58.842,23.771c-0.227,0.076-0.554,0.126-0.831,0.126
		c-0.277,0-0.579-0.05-0.806-0.126V10.653c0.201-0.05,0.528-0.126,0.78-0.126c0.277,0,0.655,0.05,0.856,0.126V23.771z"/>
	<path fill="#333333" d="M72.437,23.796c-0.201,0.05-0.503,0.101-0.806,0.101c-0.251,0-0.579-0.05-0.831-0.126V15.79
		c0-1.208-0.151-2.14-0.504-2.795c-0.428-0.806-1.233-1.208-2.542-1.208c-1.259,0-2.77,0.705-3.751,1.46v10.524
		c-0.277,0.076-0.554,0.126-0.856,0.126c-0.252,0-0.554-0.05-0.781-0.126V10.653c0.176-0.076,0.479-0.101,0.655-0.101
		c0.251,0,0.554,0.025,0.705,0.101l0.125,1.309h0.025c1.385-1.133,2.971-1.561,4.255-1.561s2.619,0.428,3.349,1.31
		c0.806,0.957,0.957,2.341,0.957,3.701V23.796z"/>
	<path fill="#333333" d="M82.757,23.645c-0.655,0.227-1.636,0.378-2.367,0.378c-2.492,0-3.676-1.184-3.676-3.978v-8.107h-2.266
		c-0.05-0.126-0.075-0.428-0.075-0.579c0-0.126,0.025-0.428,0.075-0.554l2.266-0.151V7.229c0.202-0.075,0.529-0.125,0.806-0.125
		s0.629,0.05,0.831,0.125v3.424h3.701c0.05,0.126,0.101,0.503,0.101,0.629c0,0.176-0.051,0.479-0.101,0.655h-3.701v7.956
		c0,1.989,0.579,2.82,2.14,2.82c0.856,0,1.687-0.125,2.266-0.302c0.05,0.125,0.101,0.428,0.101,0.604
		C82.858,23.242,82.833,23.418,82.757,23.645z"/>
	<path fill="#333333" d="M91.064,11.862c-1.46,0.201-3.046,0.73-4.229,1.636v10.272c-0.252,0.076-0.554,0.126-0.831,0.126
		s-0.554-0.05-0.806-0.126V10.653c0.151-0.05,0.378-0.101,0.629-0.101c0.202,0,0.479,0.05,0.68,0.101l0.126,1.611h0.025
		c1.083-0.932,2.971-1.712,4.406-1.863c0.05,0.151,0.101,0.428,0.101,0.655C91.165,11.308,91.114,11.635,91.064,11.862z"/>
	<path fill="#333333" d="M97.634,24.022c-3.298,0-5.413-2.266-5.413-6.798c0-4.532,2.14-6.823,5.438-6.823
		c3.298,0,5.388,2.241,5.388,6.773C103.047,21.706,100.933,24.022,97.634,24.022z M97.659,11.635c-2.417,0-3.726,1.863-3.726,5.564
		s1.284,5.589,3.701,5.589s3.701-1.888,3.701-5.589S100.076,11.635,97.659,11.635z"/>
	<path fill="#333333" d="M114.778,23.896c-0.227,0-0.503-0.076-0.654-0.126l-0.151-1.511h-0.025
		c-1.083,1.133-2.367,1.763-3.802,1.763c-3.475,0-5.136-2.896-5.136-6.42c0-3.5,1.485-7.201,5.489-7.201
		c1.259,0,2.417,0.428,3.348,1.083V5.391c0.227-0.075,0.529-0.125,0.806-0.125c0.302,0,0.604,0.075,0.831,0.125v18.379
		C115.307,23.846,115.055,23.896,114.778,23.896z M113.846,12.869c-0.906-0.755-2.064-1.133-3.248-1.133
		c-2.92,0-3.902,2.87-3.902,5.791c0,2.241,0.705,5.162,3.524,5.162c1.36,0,2.745-0.68,3.625-1.737V12.869z"/>
	<path fill="#333333" d="M128.573,18.786c0,3.827-1.586,5.237-4.909,5.237c-3.399,0-4.834-1.41-4.834-5.111v-8.258
		c0.227-0.076,0.528-0.126,0.806-0.126c0.352,0,0.629,0.076,0.831,0.126v8.057c0,2.442,0.378,4.054,3.223,4.054
		c2.669,0,3.248-1.561,3.248-4.104v-8.006c0.201-0.076,0.554-0.126,0.831-0.126s0.579,0.05,0.806,0.126V18.786z"/>
	<path fill="#333333" d="M140.177,12.239c-0.806-0.327-1.863-0.528-2.795-0.528c-3.273,0-4.481,2.542-4.481,5.614
		c0,3.021,1.158,5.363,4.457,5.363c0.881,0,1.938-0.151,2.719-0.378c0.051,0.151,0.101,0.328,0.101,0.529
		c0,0.302-0.05,0.529-0.126,0.705c-0.73,0.302-1.914,0.479-2.845,0.479c-4.104,0-6.017-2.694-6.017-6.647
		c0-4.104,2.09-6.974,6.093-6.974c0.957,0,2.09,0.227,2.87,0.579c0.076,0.202,0.101,0.403,0.101,0.629
		C140.252,11.862,140.228,12.063,140.177,12.239z"/>
	<path fill="#333333" d="M152.235,17.652h-8.435c0.101,2.896,1.46,5.086,4.607,5.086c1.133,0,2.19-0.151,3.122-0.378
		c0.05,0.126,0.101,0.378,0.101,0.529c0,0.252-0.051,0.479-0.126,0.655c-0.982,0.302-2.215,0.479-3.248,0.479
		c-1.989,0-3.5-0.629-4.431-1.637c-1.108-1.208-1.687-3.021-1.687-5.111c0-3.651,1.838-6.874,5.514-6.874
		c3.298,0,4.608,2.719,4.608,6.042C152.261,16.822,152.261,17.275,152.235,17.652z M150.624,16.444c0-2.316-0.252-4.809-3.047-4.809
		c-2.442,0-3.625,2.241-3.776,4.809H150.624z"/>
	<path fill="#333333" d="M164.042,23.896c-0.227,0-0.504-0.076-0.655-0.126l-0.15-1.511h-0.025
		c-1.083,1.133-2.367,1.763-3.802,1.763c-3.475,0-5.137-2.896-5.137-6.42c0-3.5,1.486-7.201,5.489-7.201
		c1.259,0,2.417,0.428,3.349,1.083V5.391c0.227-0.075,0.528-0.125,0.806-0.125c0.302,0,0.604,0.075,0.83,0.125v18.379
		C164.57,23.846,164.318,23.896,164.042,23.896z M163.11,12.869c-0.906-0.755-2.064-1.133-3.248-1.133
		c-2.921,0-3.902,2.87-3.902,5.791c0,2.241,0.705,5.162,3.524,5.162c1.359,0,2.744-0.68,3.626-1.737V12.869z"/>
	<path fill="#333333" d="M180.681,23.645c-0.655,0.227-1.637,0.378-2.367,0.378c-2.492,0-3.676-1.184-3.676-3.978v-8.107h-2.266
		c-0.051-0.126-0.076-0.428-0.076-0.579c0-0.126,0.025-0.428,0.076-0.554l2.266-0.151V7.229c0.201-0.075,0.528-0.125,0.806-0.125
		s0.63,0.05,0.831,0.125v3.424h3.701c0.05,0.126,0.101,0.503,0.101,0.629c0,0.176-0.051,0.479-0.101,0.655h-3.701v7.956
		c0,1.989,0.579,2.82,2.14,2.82c0.856,0,1.688-0.125,2.267-0.302c0.05,0.125,0.101,0.428,0.101,0.604
		C180.781,23.242,180.756,23.418,180.681,23.645z"/>
	<path fill="#333333" d="M193.191,23.771c-0.227,0.076-0.504,0.126-0.756,0.126c-0.302,0-0.629-0.05-0.881-0.126v-7.956
		c0-2.77-0.705-4.028-3.047-4.028c-1.259,0-2.77,0.705-3.751,1.46v10.524c-0.277,0.076-0.579,0.126-0.856,0.126
		c-0.251,0-0.554-0.05-0.78-0.126V5.391c0.227-0.075,0.579-0.125,0.806-0.125s0.604,0.05,0.831,0.125v6.471
		c1.334-1.032,2.921-1.46,4.154-1.46c1.284,0,2.593,0.428,3.323,1.31c0.806,0.957,0.957,2.341,0.957,3.701V23.771z"/>
	<path fill="#333333" d="M205.903,17.652h-8.435c0.101,2.896,1.46,5.086,4.607,5.086c1.133,0,2.19-0.151,3.122-0.378
		c0.05,0.126,0.101,0.378,0.101,0.529c0,0.252-0.051,0.479-0.126,0.655c-0.981,0.302-2.216,0.479-3.248,0.479
		c-1.988,0-3.499-0.629-4.431-1.637c-1.108-1.208-1.688-3.021-1.688-5.111c0-3.651,1.838-6.874,5.515-6.874
		c3.298,0,4.607,2.719,4.607,6.042C205.929,16.822,205.929,17.275,205.903,17.652z M204.292,16.444c0-2.316-0.252-4.809-3.047-4.809
		c-2.442,0-3.625,2.241-3.776,4.809H204.292z"/>
</g>
</svg>
