<?xml version="1.0" encoding="utf-8"?>
<!-- Generator: Adobe Illustrator 16.0.0, SVG Export Plug-In . SVG Version: 6.00 Build 0)  -->
<!DOCTYPE svg PUBLIC "-//W3C//DTD SVG 1.1//EN" "http://www.w3.org/Graphics/SVG/1.1/DTD/svg11.dtd">
<svg version="1.1" id="Layer_1" xmlns="http://www.w3.org/2000/svg" xmlns:xlink="http://www.w3.org/1999/xlink" x="0px" y="0px"
	 width="300px" height="300px" viewBox="0 0 300 300" enable-background="new 0 0 300 300" xml:space="preserve">
<g>
	<path fill="#333333" d="M52.517,136.734c-0.466-0.189-1.077-0.306-1.616-0.306c-1.893,0-2.591,1.47-2.591,3.246
		c0,1.747,0.669,3.101,2.577,3.101c0.509,0,1.121-0.087,1.572-0.218c0.029,0.087,0.059,0.189,0.059,0.306
		c0,0.175-0.029,0.306-0.073,0.408c-0.422,0.174-1.106,0.276-1.645,0.276c-2.373,0-3.479-1.558-3.479-3.843
		c0-2.373,1.208-4.032,3.522-4.032c0.553,0,1.208,0.131,1.66,0.334c0.043,0.117,0.058,0.233,0.058,0.364
		C52.56,136.516,52.545,136.632,52.517,136.734z"/>
	<path fill="#333333" d="M56.784,143.547c-1.907,0-3.129-1.31-3.129-3.93c0-2.621,1.237-3.945,3.144-3.945
		c1.907,0,3.115,1.295,3.115,3.916S58.691,143.547,56.784,143.547z M56.799,136.385c-1.397,0-2.154,1.077-2.154,3.217
		c0,2.14,0.742,3.231,2.14,3.231s2.14-1.092,2.14-3.231C58.924,137.462,58.196,136.385,56.799,136.385z"/>
	<path fill="#333333" d="M67.064,140.519c0,2.213-0.917,3.028-2.838,3.028c-1.965,0-2.795-0.815-2.795-2.955v-4.774
		c0.131-0.044,0.306-0.073,0.466-0.073c0.204,0,0.364,0.043,0.48,0.073v4.658c0,1.412,0.218,2.344,1.863,2.344
		c1.543,0,1.877-0.903,1.877-2.373v-4.629c0.117-0.044,0.32-0.073,0.48-0.073s0.335,0.029,0.466,0.073V140.519z"/>
	<path fill="#333333" d="M72.396,136.516c-0.845,0.116-1.762,0.422-2.446,0.946v5.939c-0.146,0.043-0.32,0.073-0.48,0.073
		s-0.32-0.029-0.466-0.073v-7.584c0.087-0.029,0.218-0.059,0.364-0.059c0.116,0,0.276,0.029,0.393,0.059l0.073,0.932h0.014
		c0.626-0.539,1.718-0.99,2.548-1.077c0.029,0.087,0.058,0.247,0.058,0.378C72.454,136.196,72.424,136.385,72.396,136.516z"/>
	<path fill="#333333" d="M75.556,143.547c-0.728,0-1.484-0.131-2.009-0.335c-0.043-0.102-0.073-0.276-0.073-0.407
		c0-0.087,0.029-0.306,0.059-0.393c0.539,0.218,1.31,0.393,1.95,0.393c1.106,0,1.791-0.466,1.791-1.383
		c0-0.83-0.422-1.121-1.572-1.543c-1.602-0.582-2.125-1.251-2.125-2.242c0-1.339,1.106-1.965,2.533-1.965
		c0.48,0,1.106,0.087,1.47,0.204c0.044,0.131,0.059,0.262,0.059,0.349c0,0.117-0.029,0.32-0.059,0.422
		c-0.48-0.146-0.99-0.233-1.484-0.233c-1.034,0-1.66,0.393-1.66,1.194c0,0.699,0.393,1.033,1.586,1.485
		c1.092,0.407,2.097,0.815,2.097,2.285C78.118,142.863,76.997,143.547,75.556,143.547z"/>
	<path fill="#333333" d="M85.078,139.864h-4.876c0.059,1.674,0.844,2.94,2.664,2.94c0.655,0,1.267-0.087,1.805-0.219
		c0.029,0.073,0.058,0.219,0.058,0.306c0,0.146-0.029,0.276-0.073,0.378c-0.568,0.174-1.281,0.276-1.878,0.276
		c-1.15,0-2.023-0.364-2.562-0.946c-0.641-0.699-0.975-1.747-0.975-2.955c0-2.11,1.062-3.974,3.188-3.974
		c1.907,0,2.664,1.572,2.664,3.494C85.093,139.384,85.093,139.646,85.078,139.864z M84.146,139.166c0-1.339-0.146-2.781-1.761-2.781
		c-1.412,0-2.096,1.296-2.184,2.781H84.146z"/>
	<path fill="#333333" d="M88.371,143.547c-0.728,0-1.485-0.131-2.009-0.335c-0.043-0.102-0.073-0.276-0.073-0.407
		c0-0.087,0.029-0.306,0.059-0.393c0.539,0.218,1.31,0.393,1.95,0.393c1.106,0,1.791-0.466,1.791-1.383
		c0-0.83-0.422-1.121-1.572-1.543c-1.602-0.582-2.125-1.251-2.125-2.242c0-1.339,1.106-1.965,2.533-1.965
		c0.48,0,1.106,0.087,1.47,0.204c0.044,0.131,0.059,0.262,0.059,0.349c0,0.117-0.029,0.32-0.059,0.422
		c-0.48-0.146-0.99-0.233-1.484-0.233c-1.034,0-1.66,0.393-1.66,1.194c0,0.699,0.393,1.033,1.587,1.485
		c1.091,0.407,2.096,0.815,2.096,2.285C90.933,142.863,89.812,143.547,88.371,143.547z"/>
	<path fill="#333333" d="M99.074,136.516c-0.845,0.116-1.762,0.422-2.446,0.946v5.939c-0.146,0.043-0.32,0.073-0.48,0.073
		s-0.32-0.029-0.466-0.073v-7.584c0.087-0.029,0.218-0.059,0.364-0.059c0.116,0,0.276,0.029,0.393,0.059l0.073,0.932h0.014
		c0.626-0.539,1.718-0.99,2.548-1.077c0.029,0.087,0.058,0.247,0.058,0.378C99.132,136.196,99.103,136.385,99.074,136.516z"/>
	<path fill="#333333" d="M105.582,139.864h-4.876c0.059,1.674,0.844,2.94,2.664,2.94c0.655,0,1.267-0.087,1.805-0.219
		c0.029,0.073,0.058,0.219,0.058,0.306c0,0.146-0.029,0.276-0.073,0.378c-0.568,0.174-1.281,0.276-1.878,0.276
		c-1.15,0-2.023-0.364-2.562-0.946c-0.641-0.699-0.975-1.747-0.975-2.955c0-2.11,1.062-3.974,3.188-3.974
		c1.907,0,2.664,1.572,2.664,3.494C105.597,139.384,105.597,139.646,105.582,139.864z M104.65,139.166
		c0-1.339-0.146-2.781-1.761-2.781c-1.412,0-2.096,1.296-2.184,2.781H104.65z"/>
	<path fill="#333333" d="M111.961,136.734c-0.466-0.189-1.077-0.306-1.616-0.306c-1.893,0-2.591,1.47-2.591,3.246
		c0,1.747,0.669,3.101,2.577,3.101c0.509,0,1.121-0.087,1.572-0.218c0.029,0.087,0.058,0.189,0.058,0.306
		c0,0.175-0.029,0.306-0.073,0.408c-0.422,0.174-1.106,0.276-1.645,0.276c-2.373,0-3.479-1.558-3.479-3.843
		c0-2.373,1.208-4.032,3.522-4.032c0.553,0,1.208,0.131,1.66,0.334c0.043,0.117,0.058,0.233,0.058,0.364
		C112.005,136.516,111.99,136.632,111.961,136.734z"/>
	<path fill="#333333" d="M118.937,139.864h-4.877c0.059,1.674,0.844,2.94,2.664,2.94c0.655,0,1.267-0.087,1.805-0.219
		c0.029,0.073,0.058,0.219,0.058,0.306c0,0.146-0.029,0.276-0.073,0.378c-0.568,0.174-1.281,0.276-1.878,0.276
		c-1.15,0-2.023-0.364-2.562-0.946c-0.641-0.699-0.975-1.747-0.975-2.955c0-2.11,1.062-3.974,3.188-3.974
		c1.907,0,2.664,1.572,2.664,3.494C118.951,139.384,118.951,139.646,118.937,139.864z M118.005,139.166
		c0-1.339-0.146-2.781-1.762-2.781c-1.412,0-2.096,1.296-2.184,2.781H118.005z"/>
	<path fill="#333333" d="M121.064,134.333c-0.334,0-0.611-0.291-0.611-0.641c0-0.349,0.277-0.626,0.611-0.626
		c0.335,0,0.626,0.277,0.626,0.626C121.69,134.042,121.399,134.333,121.064,134.333z M121.545,143.401
		c-0.131,0.043-0.32,0.073-0.48,0.073c-0.16,0-0.334-0.029-0.466-0.073v-7.584c0.117-0.029,0.306-0.073,0.452-0.073
		c0.16,0,0.378,0.029,0.495,0.073V143.401z"/>
	<path fill="#333333" d="M128.723,137.666l-2.285,5.735c-0.131,0.043-0.277,0.073-0.393,0.073c-0.16,0-0.292-0.029-0.408-0.073
		l-2.358-5.735c-0.262-0.655-0.378-1.31-0.378-1.849c0.117-0.029,0.32-0.073,0.451-0.073c0.175,0,0.35,0.029,0.495,0.073
		c0.015,0.495,0.073,1.062,0.291,1.586l1.893,4.804h0.029l1.834-4.804c0.204-0.509,0.306-1.077,0.306-1.586
		c0.102-0.044,0.32-0.073,0.509-0.073c0.102,0,0.291,0.014,0.422,0.058C129.116,136.327,129.014,136.953,128.723,137.666z"/>
	<path fill="#333333" d="M135.785,139.864h-4.876c0.059,1.674,0.844,2.94,2.664,2.94c0.655,0,1.267-0.087,1.805-0.219
		c0.029,0.073,0.058,0.219,0.058,0.306c0,0.146-0.029,0.276-0.073,0.378c-0.568,0.174-1.281,0.276-1.878,0.276
		c-1.15,0-2.023-0.364-2.562-0.946c-0.641-0.699-0.975-1.747-0.975-2.955c0-2.11,1.062-3.974,3.188-3.974
		c1.907,0,2.664,1.572,2.664,3.494C135.8,139.384,135.8,139.646,135.785,139.864z M134.854,139.166c0-1.339-0.146-2.781-1.761-2.781
		c-1.412,0-2.096,1.296-2.184,2.781H134.854z"/>
	<path fill="#333333" d="M142.615,143.474c-0.131,0-0.291-0.043-0.378-0.073l-0.087-0.874h-0.015
		c-0.626,0.655-1.368,1.019-2.198,1.019c-2.009,0-2.969-1.674-2.969-3.712c0-2.023,0.859-4.163,3.173-4.163
		c0.728,0,1.397,0.247,1.936,0.626v-3.523c0.131-0.044,0.306-0.073,0.466-0.073c0.175,0,0.349,0.043,0.48,0.073v10.626
		C142.921,143.445,142.775,143.474,142.615,143.474z M142.077,137.098c-0.524-0.437-1.194-0.655-1.878-0.655
		c-1.688,0-2.256,1.659-2.256,3.348c0,1.296,0.408,2.984,2.038,2.984c0.786,0,1.586-0.393,2.096-1.004V137.098z"/>
	<path fill="#333333" d="M153.392,141.538c0,0.524,0,1.179,0.029,1.863c-0.103,0.043-0.263,0.073-0.394,0.073
		c-0.116,0-0.276-0.029-0.393-0.073c-0.044-0.233-0.073-0.539-0.088-0.815h-0.015c-0.495,0.612-1.368,0.961-2.227,0.961
		c-1.354,0-2.489-0.757-2.489-2.314c0-0.888,0.364-1.543,0.932-1.951c0.641-0.451,1.485-0.597,2.387-0.597
		c0.51,0,0.932,0.029,1.311,0.087v-0.422c0-1.456-0.597-1.936-1.82-1.936c-0.684,0-1.528,0.146-2.052,0.276
		c-0.029-0.073-0.059-0.233-0.059-0.378c0-0.102,0.029-0.248,0.073-0.334c0.626-0.189,1.456-0.306,2.155-0.306
		c1.732,0,2.649,0.786,2.649,2.562V141.538z M152.445,139.485c-0.422-0.058-0.859-0.087-1.237-0.087
		c-0.713,0-1.354,0.131-1.791,0.466c-0.393,0.291-0.611,0.757-0.611,1.354c0,1.062,0.684,1.572,1.63,1.572
		c0.786,0,1.615-0.378,2.009-0.976V139.485z"/>
</g>
<g>
	<path fill="#333333" d="M49.431,158.109c-0.728,0-1.485-0.131-2.009-0.335c-0.043-0.102-0.073-0.276-0.073-0.407
		c0-0.088,0.029-0.306,0.059-0.394c0.539,0.219,1.31,0.394,1.95,0.394c1.106,0,1.791-0.466,1.791-1.383
		c0-0.83-0.422-1.121-1.572-1.543c-1.602-0.583-2.125-1.252-2.125-2.242c0-1.339,1.106-1.965,2.533-1.965
		c0.48,0,1.106,0.087,1.47,0.204c0.044,0.131,0.059,0.262,0.059,0.349c0,0.117-0.029,0.32-0.059,0.422
		c-0.48-0.146-0.99-0.232-1.484-0.232c-1.034,0-1.66,0.393-1.66,1.193c0,0.699,0.393,1.034,1.587,1.485
		c1.091,0.407,2.096,0.815,2.096,2.285C51.992,157.425,50.872,158.109,49.431,158.109z"/>
	<path fill="#333333" d="M58.429,156.101c0,0.524,0,1.179,0.029,1.863c-0.102,0.044-0.262,0.073-0.393,0.073
		c-0.116,0-0.276-0.029-0.393-0.073c-0.043-0.233-0.073-0.539-0.087-0.815H57.57c-0.495,0.611-1.369,0.961-2.228,0.961
		c-1.354,0-2.489-0.757-2.489-2.314c0-0.888,0.364-1.543,0.932-1.95c0.641-0.452,1.485-0.598,2.388-0.598
		c0.509,0,0.932,0.029,1.31,0.088v-0.422c0-1.456-0.597-1.937-1.82-1.937c-0.684,0-1.528,0.146-2.052,0.276
		c-0.029-0.072-0.059-0.232-0.059-0.378c0-0.102,0.029-0.248,0.073-0.334c0.626-0.189,1.456-0.306,2.155-0.306
		c1.732,0,2.649,0.786,2.649,2.562V156.101z M57.483,154.048c-0.422-0.058-0.859-0.087-1.237-0.087
		c-0.713,0-1.354,0.131-1.791,0.466c-0.393,0.291-0.611,0.757-0.611,1.354c0,1.062,0.684,1.572,1.63,1.572
		c0.786,0,1.616-0.379,2.009-0.976V154.048z"/>
	<path fill="#333333" d="M64.196,157.891c-0.378,0.132-0.946,0.219-1.368,0.219c-1.441,0-2.125-0.685-2.125-2.3v-4.688h-1.31
		c-0.029-0.072-0.043-0.248-0.043-0.335c0-0.073,0.015-0.247,0.043-0.32l1.31-0.087v-1.98c0.117-0.043,0.306-0.073,0.466-0.073
		s0.364,0.029,0.48,0.073v1.98h2.14c0.029,0.073,0.058,0.291,0.058,0.364c0,0.102-0.029,0.277-0.058,0.378h-2.14v4.6
		c0,1.15,0.335,1.631,1.237,1.631c0.495,0,0.976-0.073,1.31-0.175c0.029,0.073,0.059,0.247,0.059,0.35
		C64.254,157.658,64.24,157.76,64.196,157.891z"/>
	<path fill="#333333" d="M65.857,148.895c-0.335,0-0.612-0.291-0.612-0.641c0-0.349,0.277-0.626,0.612-0.626
		c0.334,0,0.625,0.277,0.625,0.626C66.483,148.604,66.192,148.895,65.857,148.895z M66.337,157.964
		c-0.131,0.044-0.32,0.073-0.48,0.073c-0.16,0-0.335-0.029-0.466-0.073v-7.584c0.116-0.029,0.306-0.073,0.451-0.073
		c0.16,0,0.378,0.029,0.495,0.073V157.964z"/>
	<path fill="#333333" d="M69.774,158.109c-0.728,0-1.485-0.131-2.009-0.335c-0.043-0.102-0.073-0.276-0.073-0.407
		c0-0.088,0.029-0.306,0.059-0.394c0.539,0.219,1.31,0.394,1.95,0.394c1.106,0,1.791-0.466,1.791-1.383
		c0-0.83-0.422-1.121-1.572-1.543c-1.602-0.583-2.125-1.252-2.125-2.242c0-1.339,1.106-1.965,2.533-1.965
		c0.48,0,1.106,0.087,1.47,0.204c0.044,0.131,0.059,0.262,0.059,0.349c0,0.117-0.029,0.32-0.059,0.422
		c-0.48-0.146-0.99-0.232-1.484-0.232c-1.034,0-1.66,0.393-1.66,1.193c0,0.699,0.393,1.034,1.587,1.485
		c1.091,0.407,2.096,0.815,2.096,2.285C72.336,157.425,71.215,158.109,69.774,158.109z"/>
	<path fill="#333333" d="M77.885,147.963c-0.218-0.058-0.611-0.117-0.917-0.117c-0.553,0-0.961,0.146-1.237,0.451
		c-0.422,0.452-0.495,1.063-0.495,1.834v0.248h2.053c0.029,0.073,0.058,0.247,0.058,0.349c0,0.117-0.029,0.292-0.058,0.393h-2.053
		v6.842c-0.131,0.044-0.276,0.073-0.466,0.073s-0.349-0.029-0.48-0.073v-6.842h-1.31c-0.029-0.072-0.043-0.262-0.043-0.349
		c0-0.073,0.015-0.233,0.043-0.306l1.31-0.087v-0.248c0-1.034,0.175-1.747,0.771-2.344c0.422-0.422,1.048-0.626,1.762-0.626
		c0.378,0,0.8,0.087,1.062,0.189c0.029,0.073,0.043,0.174,0.043,0.276C77.928,147.716,77.914,147.891,77.885,147.963z"/>
	<path fill="#333333" d="M83.374,156.101c0,0.524,0,1.179,0.029,1.863c-0.102,0.044-0.262,0.073-0.393,0.073
		c-0.116,0-0.276-0.029-0.393-0.073c-0.043-0.233-0.073-0.539-0.087-0.815h-0.014c-0.495,0.611-1.369,0.961-2.228,0.961
		c-1.354,0-2.489-0.757-2.489-2.314c0-0.888,0.364-1.543,0.932-1.95c0.641-0.452,1.485-0.598,2.388-0.598
		c0.509,0,0.932,0.029,1.31,0.088v-0.422c0-1.456-0.597-1.937-1.82-1.937c-0.684,0-1.528,0.146-2.052,0.276
		c-0.029-0.072-0.059-0.232-0.059-0.378c0-0.102,0.029-0.248,0.073-0.334c0.626-0.189,1.456-0.306,2.155-0.306
		c1.732,0,2.649,0.786,2.649,2.562V156.101z M82.428,154.048c-0.422-0.058-0.859-0.087-1.237-0.087
		c-0.713,0-1.354,0.131-1.791,0.466c-0.393,0.291-0.611,0.757-0.611,1.354c0,1.062,0.684,1.572,1.63,1.572
		c0.786,0,1.616-0.379,2.009-0.976V154.048z"/>
	<path fill="#333333" d="M89.884,151.297c-0.466-0.189-1.077-0.306-1.616-0.306c-1.893,0-2.591,1.47-2.591,3.246
		c0,1.747,0.669,3.101,2.577,3.101c0.509,0,1.121-0.087,1.572-0.219c0.029,0.088,0.059,0.189,0.059,0.306
		c0,0.175-0.029,0.306-0.073,0.408c-0.422,0.175-1.106,0.276-1.645,0.276c-2.373,0-3.479-1.558-3.479-3.843
		c0-2.373,1.208-4.032,3.522-4.032c0.553,0,1.208,0.131,1.66,0.334c0.043,0.117,0.058,0.233,0.058,0.364
		C89.927,151.078,89.913,151.195,89.884,151.297z"/>
	<path fill="#333333" d="M95.287,157.891c-0.378,0.132-0.946,0.219-1.368,0.219c-1.441,0-2.125-0.685-2.125-2.3v-4.688h-1.31
		c-0.029-0.072-0.043-0.248-0.043-0.335c0-0.073,0.015-0.247,0.043-0.32l1.31-0.087v-1.98c0.117-0.043,0.306-0.073,0.466-0.073
		s0.364,0.029,0.48,0.073v1.98h2.14c0.029,0.073,0.058,0.291,0.058,0.364c0,0.102-0.029,0.277-0.058,0.378h-2.14v4.6
		c0,1.15,0.335,1.631,1.237,1.631c0.495,0,0.976-0.073,1.31-0.175c0.029,0.073,0.059,0.247,0.059,0.35
		C95.345,157.658,95.331,157.76,95.287,157.891z"/>
	<path fill="#333333" d="M96.934,148.895c-0.334,0-0.611-0.291-0.611-0.641c0-0.349,0.277-0.626,0.611-0.626
		c0.335,0,0.626,0.277,0.626,0.626C97.56,148.604,97.269,148.895,96.934,148.895z M97.414,157.964
		c-0.131,0.044-0.32,0.073-0.48,0.073c-0.16,0-0.334-0.029-0.466-0.073v-7.584c0.117-0.029,0.306-0.073,0.452-0.073
		c0.16,0,0.378,0.029,0.495,0.073V157.964z"/>
	<path fill="#333333" d="M101.87,158.109c-1.907,0-3.129-1.311-3.129-3.931s1.237-3.944,3.144-3.944
		c1.907,0,3.115,1.295,3.115,3.916C105,156.771,103.777,158.109,101.87,158.109z M101.884,150.947c-1.397,0-2.154,1.077-2.154,3.217
		c0,2.141,0.742,3.232,2.14,3.232s2.14-1.092,2.14-3.232C104.01,152.024,103.282,150.947,101.884,150.947z"/>
	<path fill="#333333" d="M112.091,157.979c-0.116,0.029-0.291,0.059-0.466,0.059c-0.146,0-0.334-0.029-0.48-0.073v-4.614
		c0-0.699-0.087-1.237-0.291-1.616c-0.248-0.466-0.713-0.698-1.47-0.698c-0.728,0-1.601,0.407-2.169,0.844v6.085
		c-0.16,0.044-0.32,0.073-0.495,0.073c-0.146,0-0.32-0.029-0.451-0.073v-7.584c0.102-0.044,0.277-0.059,0.378-0.059
		c0.146,0,0.32,0.015,0.408,0.059l0.073,0.757h0.015c0.801-0.655,1.718-0.902,2.46-0.902c0.743,0,1.514,0.247,1.936,0.757
		c0.466,0.553,0.553,1.354,0.553,2.14V157.979z"/>
	<path fill="#333333" d="M120.073,151.078c-0.845,0.117-1.762,0.423-2.446,0.946v5.939c-0.146,0.044-0.32,0.073-0.48,0.073
		s-0.32-0.029-0.466-0.073v-7.584c0.087-0.029,0.218-0.059,0.364-0.059c0.116,0,0.276,0.029,0.393,0.059l0.073,0.932h0.014
		c0.626-0.539,1.718-0.99,2.548-1.077c0.029,0.087,0.058,0.247,0.058,0.378C120.131,150.758,120.102,150.947,120.073,151.078z"/>
	<path fill="#333333" d="M125.97,156.101c0,0.524,0,1.179,0.029,1.863c-0.102,0.044-0.262,0.073-0.393,0.073
		c-0.116,0-0.276-0.029-0.393-0.073c-0.043-0.233-0.073-0.539-0.087-0.815h-0.014c-0.495,0.611-1.369,0.961-2.228,0.961
		c-1.354,0-2.489-0.757-2.489-2.314c0-0.888,0.364-1.543,0.932-1.95c0.641-0.452,1.485-0.598,2.388-0.598
		c0.509,0,0.932,0.029,1.31,0.088v-0.422c0-1.456-0.597-1.937-1.82-1.937c-0.684,0-1.528,0.146-2.052,0.276
		c-0.029-0.072-0.059-0.232-0.059-0.378c0-0.102,0.029-0.248,0.073-0.334c0.626-0.189,1.456-0.306,2.155-0.306
		c1.732,0,2.649,0.786,2.649,2.562V156.101z M125.024,154.048c-0.422-0.058-0.859-0.087-1.237-0.087
		c-0.713,0-1.354,0.131-1.791,0.466c-0.393,0.291-0.611,0.757-0.611,1.354c0,1.062,0.684,1.572,1.63,1.572
		c0.786,0,1.616-0.379,2.009-0.976V154.048z"/>
	<path fill="#333333" d="M131.737,157.891c-0.378,0.132-0.946,0.219-1.368,0.219c-1.441,0-2.125-0.685-2.125-2.3v-4.688h-1.31
		c-0.029-0.072-0.043-0.248-0.043-0.335c0-0.073,0.015-0.247,0.043-0.32l1.31-0.087v-1.98c0.117-0.043,0.306-0.073,0.466-0.073
		s0.364,0.029,0.48,0.073v1.98h2.14c0.029,0.073,0.058,0.291,0.058,0.364c0,0.102-0.029,0.277-0.058,0.378h-2.14v4.6
		c0,1.15,0.335,1.631,1.237,1.631c0.495,0,0.976-0.073,1.31-0.175c0.029,0.073,0.059,0.247,0.059,0.35
		C131.795,157.658,131.781,157.76,131.737,157.891z"/>
	<path fill="#333333" d="M133.398,148.895c-0.335,0-0.612-0.291-0.612-0.641c0-0.349,0.277-0.626,0.612-0.626
		c0.334,0,0.625,0.277,0.625,0.626C134.024,148.604,133.733,148.895,133.398,148.895z M133.878,157.964
		c-0.131,0.044-0.32,0.073-0.48,0.073c-0.16,0-0.335-0.029-0.466-0.073v-7.584c0.116-0.029,0.306-0.073,0.451-0.073
		c0.16,0,0.378,0.029,0.495,0.073V157.964z"/>
	<path fill="#333333" d="M141.449,157.979c-0.116,0.029-0.291,0.059-0.466,0.059c-0.146,0-0.334-0.029-0.48-0.073v-4.614
		c0-0.699-0.087-1.237-0.291-1.616c-0.248-0.466-0.713-0.698-1.47-0.698c-0.728,0-1.601,0.407-2.169,0.844v6.085
		c-0.16,0.044-0.32,0.073-0.495,0.073c-0.146,0-0.32-0.029-0.451-0.073v-7.584c0.102-0.044,0.277-0.059,0.378-0.059
		c0.146,0,0.32,0.015,0.408,0.059l0.073,0.757h0.015c0.801-0.655,1.718-0.902,2.46-0.902c0.743,0,1.514,0.247,1.936,0.757
		c0.466,0.553,0.553,1.354,0.553,2.14V157.979z"/>
	<path fill="#333333" d="M148.6,156.697c0,1.092-0.059,2.402-0.583,3.305c-0.626,1.077-1.747,1.543-2.868,1.543
		c-0.641,0-1.194-0.073-1.66-0.233c-0.043-0.087-0.058-0.232-0.058-0.349c0-0.088,0.029-0.263,0.058-0.35
		c0.452,0.116,0.976,0.204,1.5,0.204c1.834,0,2.664-1.136,2.664-3.13v-0.611c-0.568,0.597-1.369,0.888-2.023,0.888
		c-1.936,0-2.94-1.499-2.94-3.61c0-2.591,1.528-4.119,3.785-4.119c0.597,0,1.5,0.174,2.125,0.422V156.697z M147.654,151.122
		c-0.524-0.146-0.903-0.189-1.267-0.189c-1.849,0-2.722,1.557-2.722,3.377c0,1.615,0.611,2.882,2.038,2.882
		c0.728,0,1.47-0.364,1.951-0.873V151.122z"/>
	<path fill="#333333" d="M155.939,158.109c-1.907,0-3.13-1.311-3.13-3.931s1.237-3.944,3.145-3.944s3.115,1.295,3.115,3.916
		C159.069,156.771,157.847,158.109,155.939,158.109z M155.954,150.947c-1.397,0-2.154,1.077-2.154,3.217
		c0,2.141,0.742,3.232,2.14,3.232s2.14-1.092,2.14-3.232C158.079,152.024,157.352,150.947,155.954,150.947z"/>
	<path fill="#333333" d="M164.634,147.963c-0.219-0.058-0.611-0.117-0.917-0.117c-0.554,0-0.961,0.146-1.237,0.451
		c-0.422,0.452-0.495,1.063-0.495,1.834v0.248h2.053c0.029,0.073,0.058,0.247,0.058,0.349c0,0.117-0.028,0.292-0.058,0.393h-2.053
		v6.842c-0.131,0.044-0.276,0.073-0.466,0.073s-0.35-0.029-0.48-0.073v-6.842h-1.31c-0.029-0.072-0.044-0.262-0.044-0.349
		c0-0.073,0.015-0.233,0.044-0.306l1.31-0.087v-0.248c0-1.034,0.175-1.747,0.771-2.344c0.422-0.422,1.048-0.626,1.762-0.626
		c0.378,0,0.801,0.087,1.062,0.189c0.029,0.073,0.044,0.174,0.044,0.276C164.678,147.716,164.663,147.891,164.634,147.963z"/>
</g>
<g>
	<path fill="#66A827" d="M17.644,159.118c-0.537,0.107-1.501,0.179-2.539,0.179c-1.001,0-1.895-0.071-2.538-0.179v-18.483
		l-5.077,3.36c-1.216-1.108-2.074-2.609-2.396-3.896l8.401-5.148c0.5-0.107,1.538-0.179,2.074-0.179
		c0.608,0,1.716,0.107,2.074,0.179V159.118z"/>
	<path fill="#66A827" d="M30.368,159.476c-2.324,0-5.112-0.321-6.829-1.18c-0.107-0.357-0.179-1.145-0.179-1.608
		c0-0.751,0.107-1.681,0.286-2.432c1.931,0.751,4.183,1.145,5.97,1.145c2.932,0,4.576-1.359,4.576-3.611
		c0-2.431-1.465-3.396-4.183-3.396h-1.966c-0.107-0.393-0.214-1.18-0.214-2.038c0-0.715,0.143-1.573,0.25-1.895h1.859
		c2.467,0,3.611-1.323,3.611-3.182c0-1.752-1.287-2.61-3.325-2.61c-1.823,0-3.968,0.465-5.756,1.215
		c-0.179-0.607-0.322-1.609-0.322-2.395c0-0.537,0.071-1.359,0.179-1.681c1.538-0.679,4.362-1.215,6.757-1.215
		c4.183,0,7.687,2.074,7.687,6.328c0,2.359-1.072,4.326-3.11,5.255v0.071c2.36,0.894,3.79,3.039,3.79,5.505
		C39.449,156.866,35.301,159.476,30.368,159.476z"/>
</g>
<g>
	<path fill="#66A827" d="M177.409,159.269c-0.584,0.117-1.636,0.194-2.765,0.194c-1.091,0-2.064-0.077-2.765-0.194v-20.132
		l-5.53,3.661c-1.323-1.207-2.258-2.843-2.608-4.245l9.15-5.607c0.546-0.117,1.675-0.195,2.259-0.195
		c0.662,0,1.869,0.117,2.259,0.195V159.269z"/>
	<path fill="#66A827" d="M189.132,159.658c-6.23,0-9.268-4.596-9.268-13.552c0-9.034,3.153-13.551,9.384-13.551
		c6.192,0,9.229,4.517,9.229,13.551C198.478,155.062,195.323,159.658,189.132,159.658z M189.171,137.111
		c-2.492,0-3.583,2.298-3.583,8.995c0,6.581,1.091,8.995,3.583,8.995s3.582-2.414,3.582-8.995
		C192.753,139.409,191.663,137.111,189.171,137.111z"/>
	<path fill="#66A827" d="M209.734,159.658c-6.23,0-9.268-4.596-9.268-13.552c0-9.034,3.154-13.551,9.385-13.551
		c6.191,0,9.229,4.517,9.229,13.551C219.08,155.062,215.926,159.658,209.734,159.658z M209.773,137.111
		c-2.492,0-3.583,2.298-3.583,8.995c0,6.581,1.091,8.995,3.583,8.995s3.582-2.414,3.582-8.995
		C213.355,139.409,212.266,137.111,209.773,137.111z"/>
	<path fill="#66A827" d="M220.095,138.591c0-3.349,1.519-6.23,5.841-6.23c4.361,0,5.841,2.881,5.841,6.23
		c0,3.271-1.479,6.308-5.841,6.308C221.613,144.899,220.095,141.862,220.095,138.591z M228.389,159.697
		c-1.674-0.468-3.388-1.597-4.244-2.804l15.965-25.039c1.597,0.428,3.311,1.402,4.284,2.609L228.389,159.697z M227.26,138.669
		c0-1.674-0.351-2.726-1.324-2.726s-1.324,1.051-1.324,2.726c0,1.675,0.39,2.648,1.324,2.648S227.26,140.344,227.26,138.669z
		 M236.294,153.544c0-3.349,1.519-6.23,5.841-6.23c4.361,0,5.841,2.881,5.841,6.23c0,3.271-1.479,6.309-5.841,6.309
		C237.812,159.853,236.294,156.815,236.294,153.544z M243.459,153.622c0-1.675-0.351-2.726-1.324-2.726s-1.324,1.051-1.324,2.726
		s0.39,2.648,1.324,2.648S243.459,155.297,243.459,153.622z"/>
</g>
<g>
	<path fill="#333333" d="M253.88,134.333c-0.335,0-0.611-0.291-0.611-0.641c0-0.349,0.276-0.626,0.611-0.626
		s0.626,0.277,0.626,0.626C254.506,134.042,254.215,134.333,253.88,134.333z M254.36,143.401c-0.131,0.043-0.32,0.073-0.48,0.073
		s-0.335-0.029-0.466-0.073v-7.584c0.117-0.029,0.306-0.073,0.451-0.073c0.16,0,0.379,0.029,0.495,0.073V143.401z"/>
	<path fill="#333333" d="M262.223,143.416c-0.116,0.029-0.291,0.058-0.466,0.058c-0.146,0-0.335-0.029-0.48-0.073v-4.615
		c0-0.699-0.087-1.237-0.291-1.616c-0.247-0.466-0.713-0.699-1.47-0.699c-0.729,0-1.602,0.408-2.169,0.844v6.085
		c-0.16,0.043-0.32,0.073-0.495,0.073c-0.146,0-0.32-0.029-0.451-0.073v-7.584c0.102-0.044,0.276-0.059,0.378-0.059
		c0.146,0,0.32,0.015,0.408,0.059l0.072,0.757h0.015c0.801-0.655,1.718-0.902,2.46-0.902s1.514,0.247,1.937,0.757
		c0.466,0.553,0.553,1.354,0.553,2.14V143.416z"/>
	<path fill="#333333" d="M270.494,140.476c-0.713,0.83-1.383,1.543-1.95,2.154h4.483c0.044,0.131,0.044,0.291,0.044,0.378
		c0,0.131-0.015,0.262-0.044,0.393h-5.488c-0.087-0.248-0.116-0.408-0.116-0.568c0-0.102,0-0.146,0.015-0.233
		c0.845-0.917,1.849-2.009,2.432-2.664c1.601-1.805,2.212-2.897,2.212-3.974c0-1.223-0.698-1.834-1.834-1.834
		c-0.771,0-1.674,0.233-2.388,0.553c-0.028-0.087-0.043-0.291-0.043-0.378c0-0.131,0.029-0.262,0.072-0.378
		c0.582-0.262,1.602-0.509,2.489-0.509c1.631,0,2.751,0.902,2.751,2.46C273.129,137.186,272.431,138.234,270.494,140.476z"/>
	<path fill="#333333" d="M277.922,143.547c-1.965,0-3.057-1.456-3.057-5.066c0-3.61,1.208-5.065,3.115-5.065
		c1.936,0,3.057,1.456,3.057,5.065C281.037,142.091,279.829,143.547,277.922,143.547z M277.98,134.128
		c-1.456,0-2.067,1.485-2.067,4.353s0.568,4.353,2.023,4.353c1.456,0,2.053-1.485,2.053-4.353S279.437,134.128,277.98,134.128z"/>
	<path fill="#333333" d="M286.834,143.401c-0.117,0.043-0.335,0.073-0.495,0.073s-0.379-0.029-0.495-0.073v-8.851l-2.548,1.616
		c-0.146-0.131-0.319-0.393-0.378-0.641l3.115-1.979c0.102-0.029,0.262-0.058,0.378-0.058c0.146,0,0.306,0.029,0.423,0.073V143.401z
		"/>
	<path fill="#333333" d="M296.431,134.333l-4.12,9.069c-0.116,0.043-0.335,0.073-0.524,0.073c-0.174,0-0.363-0.029-0.494-0.073
		l4.235-9.069h-4.949c-0.058-0.131-0.087-0.277-0.087-0.408c0-0.116,0.029-0.262,0.072-0.364h5.867
		c0.028,0.087,0.058,0.262,0.058,0.349C296.488,134.07,296.474,134.216,296.431,134.333z"/>
</g>
<g>
	<path fill="#333333" d="M255.612,159.58c-1.616-1.616-2.445-3.858-2.445-5.925c0-2.286,0.873-4.382,2.445-5.998
		c0.16,0.043,0.32,0.131,0.437,0.248c-1.354,1.732-1.95,3.741-1.95,5.721c0,1.965,0.597,3.916,1.95,5.706
		C255.933,159.448,255.772,159.536,255.612,159.58z"/>
	<path fill="#333333" d="M265.324,157.964c-0.073,0.029-0.263,0.059-0.394,0.059c-0.102,0-0.247-0.029-0.364-0.059l-5.561-8.254
		v8.254c-0.102,0.044-0.291,0.073-0.451,0.073c-0.146,0-0.32-0.029-0.437-0.073v-9.84c0.116-0.044,0.306-0.073,0.437-0.073
		c0.16,0,0.306,0.029,0.408,0.073l5.473,8.108v-8.108c0.146-0.044,0.306-0.073,0.451-0.073c0.132,0,0.306,0.029,0.438,0.073V157.964
		z"/>
	<path fill="#333333" d="M270.175,158.109c-0.874,0-1.878-0.16-2.635-0.437c-0.044-0.116-0.073-0.262-0.073-0.422
		c0-0.146,0.029-0.32,0.059-0.438c0.771,0.306,1.819,0.495,2.576,0.495c1.471,0,2.242-0.655,2.242-1.863
		c0-1.062-0.568-1.543-1.646-1.936l-0.873-0.32c-1.456-0.539-2.285-1.237-2.285-2.635c0-1.63,1.295-2.576,3.13-2.576
		c0.713,0,1.44,0.102,2.096,0.276c0.044,0.087,0.059,0.233,0.059,0.364c0,0.117-0.029,0.306-0.073,0.408
		c-0.611-0.189-1.324-0.276-2.023-0.276c-1.077,0-2.169,0.378-2.169,1.747c0,1.092,0.554,1.471,1.791,1.937l0.771,0.291
		c1.339,0.509,2.197,1.193,2.197,2.62C273.318,157.236,272.009,158.109,270.175,158.109z"/>
	<path fill="#333333" d="M277.559,158.109c-0.874,0-1.878-0.16-2.635-0.437c-0.044-0.116-0.073-0.262-0.073-0.422
		c0-0.146,0.029-0.32,0.059-0.438c0.771,0.306,1.819,0.495,2.576,0.495c1.471,0,2.242-0.655,2.242-1.863
		c0-1.062-0.568-1.543-1.646-1.936l-0.873-0.32c-1.456-0.539-2.285-1.237-2.285-2.635c0-1.63,1.295-2.576,3.13-2.576
		c0.713,0,1.44,0.102,2.096,0.276c0.044,0.087,0.059,0.233,0.059,0.364c0,0.117-0.029,0.306-0.073,0.408
		c-0.611-0.189-1.324-0.276-2.023-0.276c-1.077,0-2.169,0.378-2.169,1.747c0,1.092,0.554,1.471,1.791,1.937l0.771,0.291
		c1.339,0.509,2.198,1.193,2.198,2.62C280.703,157.236,279.393,158.109,277.559,158.109z"/>
	<path fill="#333333" d="M283.806,153.626c0-1.979-0.597-3.989-1.95-5.721c0.116-0.117,0.276-0.204,0.437-0.248
		c1.572,1.616,2.445,3.711,2.445,5.998c0,2.066-0.829,4.309-2.445,5.925c-0.16-0.044-0.32-0.132-0.437-0.248
		C283.209,157.542,283.806,155.591,283.806,153.626z"/>
</g>
</svg>
