<?xml version="1.0" encoding="utf-8"?>
<!-- Generator: Adobe Illustrator 16.0.0, SVG Export Plug-In . SVG Version: 6.00 Build 0)  -->
<!DOCTYPE svg PUBLIC "-//W3C//DTD SVG 1.1//EN" "http://www.w3.org/Graphics/SVG/1.1/DTD/svg11.dtd">
<svg version="1.1" id="Layer_1" xmlns="http://www.w3.org/2000/svg" xmlns:xlink="http://www.w3.org/1999/xlink" x="0px" y="0px"
	 width="300px" height="300px" viewBox="0 0 300 300" enable-background="new 0 0 300 300" xml:space="preserve">
<g>
	<path fill="#333333" d="M11.734,111.295c-0.132,0.05-0.38,0.083-0.562,0.083s-0.43-0.033-0.562-0.083v-11.171
		c0.132-0.05,0.38-0.083,0.562-0.083s0.43,0.033,0.562,0.083V111.295z"/>
	<path fill="#333333" d="M20.907,111.312c-0.132,0.033-0.331,0.066-0.529,0.066c-0.166,0-0.38-0.033-0.545-0.083v-5.238
		c0-0.793-0.099-1.405-0.331-1.834c-0.281-0.529-0.81-0.793-1.669-0.793c-0.826,0-1.818,0.463-2.462,0.958v6.908
		c-0.182,0.05-0.363,0.083-0.562,0.083c-0.166,0-0.364-0.033-0.513-0.083v-8.61c0.116-0.049,0.314-0.066,0.43-0.066
		c0.166,0,0.364,0.017,0.463,0.066l0.083,0.859h0.017c0.909-0.744,1.95-1.024,2.793-1.024s1.718,0.281,2.198,0.859
		c0.529,0.628,0.628,1.537,0.628,2.429V111.312z"/>
	<path fill="#333333" d="M32.198,110.402c-0.645,0.579-1.653,0.893-2.611,0.893c-0.678,0-1.306-0.116-1.769-0.281v4.164
		c-0.165,0.05-0.314,0.083-0.545,0.083c-0.182,0-0.396-0.033-0.529-0.083v-12.493c0.083-0.033,0.281-0.066,0.446-0.066
		c0.166,0,0.314,0.033,0.43,0.066l0.099,0.909h0.017c0.628-0.661,1.57-1.074,2.528-1.074c1.041,0,1.966,0.446,2.545,1.272
		c0.479,0.694,0.777,1.686,0.777,2.892C33.586,108.337,33.074,109.609,32.198,110.402z M30.149,103.396
		c-0.876,0-1.751,0.363-2.33,1.09v5.685c0.43,0.198,1.091,0.314,1.653,0.314c1.785,0,2.991-1.173,2.991-3.751
		C32.462,104.701,31.669,103.396,30.149,103.396z"/>
	<path fill="#333333" d="M41.24,109.18c0,0.595,0,1.338,0.033,2.115c-0.115,0.05-0.297,0.083-0.446,0.083
		c-0.132,0-0.314-0.033-0.446-0.083c-0.05-0.265-0.083-0.611-0.099-0.925h-0.017c-0.562,0.694-1.553,1.09-2.528,1.09
		c-1.537,0-2.826-0.859-2.826-2.627c0-1.008,0.413-1.751,1.058-2.214c0.727-0.512,1.686-0.677,2.71-0.677
		c0.579,0,1.058,0.033,1.487,0.099v-0.479c0-1.652-0.678-2.198-2.066-2.198c-0.776,0-1.735,0.165-2.33,0.314
		c-0.033-0.083-0.066-0.264-0.066-0.43c0-0.116,0.033-0.281,0.083-0.38c0.711-0.215,1.653-0.347,2.446-0.347
		c1.967,0,3.008,0.893,3.008,2.908V109.18z M40.166,106.85c-0.479-0.066-0.975-0.099-1.405-0.099c-0.81,0-1.537,0.149-2.033,0.529
		c-0.446,0.331-0.694,0.859-0.694,1.537c0,1.207,0.777,1.785,1.851,1.785c0.893,0,1.834-0.43,2.281-1.107V106.85z"/>
	<path fill="#333333" d="M47.374,103.479c-0.958,0.132-2,0.479-2.776,1.074v6.742c-0.165,0.05-0.363,0.083-0.545,0.083
		c-0.182,0-0.363-0.033-0.529-0.083v-8.61c0.099-0.033,0.248-0.066,0.413-0.066c0.132,0,0.314,0.033,0.446,0.066l0.083,1.058h0.017
		c0.711-0.611,1.95-1.124,2.892-1.223c0.033,0.099,0.066,0.281,0.066,0.43C47.44,103.115,47.407,103.33,47.374,103.479z"/>
	<path fill="#333333" d="M53.771,111.212c-0.43,0.148-1.074,0.248-1.553,0.248c-1.636,0-2.413-0.776-2.413-2.611v-5.321h-1.487
		c-0.033-0.083-0.05-0.281-0.05-0.38c0-0.083,0.017-0.281,0.05-0.364l1.487-0.099v-2.247c0.132-0.05,0.347-0.083,0.529-0.083
		c0.182,0,0.413,0.033,0.545,0.083v2.247h2.429c0.033,0.083,0.066,0.331,0.066,0.414c0,0.115-0.033,0.314-0.066,0.429h-2.429v5.222
		c0,1.306,0.38,1.851,1.405,1.851c0.562,0,1.107-0.083,1.487-0.199c0.033,0.083,0.066,0.281,0.066,0.397
		C53.837,110.948,53.821,111.063,53.771,111.212z"/>
	<path fill="#333333" d="M61.986,111.312c-0.132,0.033-0.331,0.066-0.529,0.066c-0.166,0-0.38-0.033-0.545-0.083v-5.238
		c0-0.793-0.099-1.405-0.331-1.834c-0.281-0.529-0.81-0.793-1.669-0.793c-0.826,0-1.818,0.463-2.462,0.958v6.908
		c-0.182,0.05-0.363,0.083-0.562,0.083c-0.166,0-0.364-0.033-0.513-0.083v-8.61c0.116-0.049,0.314-0.066,0.43-0.066
		c0.166,0,0.364,0.017,0.463,0.066l0.083,0.859h0.017c0.909-0.744,1.95-1.024,2.793-1.024s1.718,0.281,2.198,0.859
		c0.529,0.628,0.628,1.537,0.628,2.429V111.312z"/>
	<path fill="#333333" d="M70.334,107.279h-5.536c0.066,1.9,0.958,3.338,3.024,3.338c0.744,0,1.438-0.099,2.049-0.248
		c0.033,0.083,0.066,0.248,0.066,0.347c0,0.166-0.033,0.314-0.083,0.43c-0.645,0.199-1.454,0.314-2.132,0.314
		c-1.306,0-2.297-0.413-2.909-1.074c-0.727-0.793-1.107-1.983-1.107-3.355c0-2.396,1.207-4.511,3.619-4.511
		c2.165,0,3.024,1.785,3.024,3.966C70.351,106.734,70.351,107.031,70.334,107.279z M69.277,106.486c0-1.52-0.165-3.156-2-3.156
		c-1.603,0-2.379,1.471-2.479,3.156H69.277z"/>
	<path fill="#333333" d="M76.006,103.479c-0.958,0.132-2,0.479-2.776,1.074v6.742c-0.165,0.05-0.363,0.083-0.545,0.083
		c-0.182,0-0.363-0.033-0.529-0.083v-8.61c0.099-0.033,0.248-0.066,0.413-0.066c0.132,0,0.314,0.033,0.446,0.066l0.083,1.058h0.017
		c0.711-0.611,1.95-1.124,2.892-1.223c0.033,0.099,0.066,0.281,0.066,0.43C76.072,103.115,76.039,103.33,76.006,103.479z"/>
	<path fill="#333333" d="M79.594,111.46c-0.826,0-1.686-0.148-2.28-0.38c-0.05-0.116-0.083-0.314-0.083-0.463
		c0-0.099,0.033-0.347,0.066-0.446c0.611,0.248,1.487,0.446,2.214,0.446c1.256,0,2.033-0.529,2.033-1.57
		c0-0.942-0.479-1.272-1.785-1.751c-1.818-0.661-2.413-1.421-2.413-2.545c0-1.521,1.256-2.231,2.875-2.231
		c0.545,0,1.256,0.099,1.669,0.231c0.049,0.148,0.066,0.297,0.066,0.396c0,0.132-0.033,0.364-0.066,0.479
		c-0.545-0.165-1.124-0.264-1.686-0.264c-1.173,0-1.884,0.446-1.884,1.355c0,0.793,0.446,1.173,1.801,1.686
		c1.24,0.463,2.38,0.926,2.38,2.595C82.502,110.684,81.23,111.46,79.594,111.46z"/>
	<path fill="#333333" d="M90.866,111.295c-0.149,0.05-0.331,0.083-0.496,0.083c-0.199,0-0.414-0.033-0.579-0.083v-5.222
		c0-1.817-0.463-2.644-2-2.644c-0.826,0-1.818,0.463-2.462,0.958v6.908c-0.182,0.05-0.38,0.083-0.562,0.083
		c-0.166,0-0.364-0.033-0.513-0.083V99.231c0.149-0.049,0.38-0.083,0.529-0.083c0.149,0,0.397,0.033,0.545,0.083v4.247
		c0.876-0.678,1.917-0.958,2.727-0.958c0.843,0,1.702,0.281,2.182,0.859c0.529,0.628,0.628,1.537,0.628,2.429V111.295z"/>
	<path fill="#333333" d="M93.662,101c-0.38,0-0.694-0.331-0.694-0.727s0.314-0.71,0.694-0.71c0.38,0,0.71,0.314,0.71,0.71
		S94.042,101,93.662,101z M94.208,111.295c-0.149,0.05-0.364,0.083-0.545,0.083c-0.182,0-0.38-0.033-0.529-0.083v-8.61
		c0.132-0.033,0.347-0.083,0.512-0.083c0.182,0,0.43,0.033,0.562,0.083V111.295z"/>
	<path fill="#333333" d="M101.976,110.402c-0.645,0.579-1.653,0.893-2.611,0.893c-0.678,0-1.306-0.116-1.769-0.281v4.164
		c-0.165,0.05-0.314,0.083-0.545,0.083c-0.182,0-0.396-0.033-0.529-0.083v-12.493c0.083-0.033,0.281-0.066,0.446-0.066
		c0.166,0,0.314,0.033,0.43,0.066l0.099,0.909h0.017c0.628-0.661,1.57-1.074,2.528-1.074c1.041,0,1.966,0.446,2.545,1.272
		c0.479,0.694,0.777,1.686,0.777,2.892C103.364,108.337,102.852,109.609,101.976,110.402z M99.926,103.396
		c-0.876,0-1.751,0.363-2.33,1.09v5.685c0.43,0.198,1.091,0.314,1.653,0.314c1.785,0,2.991-1.173,2.991-3.751
		C102.24,104.701,101.447,103.396,99.926,103.396z"/>
	<path fill="#333333" d="M118.786,104.387l-2.214,6.908c-0.132,0.05-0.38,0.083-0.513,0.083c-0.148,0-0.396-0.033-0.512-0.083
		l-1.983-6.676h-0.033l-2.082,6.676c-0.149,0.05-0.38,0.083-0.512,0.083s-0.347-0.033-0.496-0.083l-2.049-6.809
		c-0.182-0.562-0.265-1.206-0.281-1.817c0.132-0.033,0.396-0.066,0.562-0.066c0.182,0,0.347,0.033,0.496,0.083
		c0.016,0.595,0.116,1.223,0.264,1.769l1.504,5.371h0.017l2.148-7.155c0.116-0.033,0.347-0.05,0.463-0.05s0.364,0.017,0.463,0.05
		l2.032,7.155h0.017l1.653-5.354c0.182-0.612,0.314-1.19,0.347-1.785c0.116-0.049,0.397-0.083,0.545-0.083
		c0.149,0,0.38,0.033,0.479,0.083C119.1,103.247,118.968,103.809,118.786,104.387z"/>
	<path fill="#333333" d="M121.286,101c-0.38,0-0.694-0.331-0.694-0.727s0.314-0.71,0.694-0.71c0.38,0,0.71,0.314,0.71,0.71
		S121.666,101,121.286,101z M121.831,111.295c-0.149,0.05-0.364,0.083-0.545,0.083c-0.182,0-0.38-0.033-0.529-0.083v-8.61
		c0.132-0.033,0.347-0.083,0.512-0.083c0.182,0,0.43,0.033,0.562,0.083V111.295z"/>
	<path fill="#333333" d="M128.723,111.212c-0.43,0.148-1.074,0.248-1.553,0.248c-1.636,0-2.413-0.776-2.413-2.611v-5.321h-1.487
		c-0.033-0.083-0.05-0.281-0.05-0.38c0-0.083,0.017-0.281,0.05-0.364l1.487-0.099v-2.247c0.132-0.05,0.347-0.083,0.529-0.083
		c0.182,0,0.413,0.033,0.545,0.083v2.247h2.429c0.033,0.083,0.066,0.331,0.066,0.414c0,0.115-0.033,0.314-0.066,0.429h-2.429v5.222
		c0,1.306,0.38,1.851,1.405,1.851c0.562,0,1.107-0.083,1.487-0.199c0.033,0.083,0.066,0.281,0.066,0.397
		C128.789,110.948,128.773,111.063,128.723,111.212z"/>
	<path fill="#333333" d="M136.938,111.295c-0.149,0.05-0.331,0.083-0.496,0.083c-0.199,0-0.414-0.033-0.579-0.083v-5.222
		c0-1.817-0.463-2.644-2-2.644c-0.826,0-1.818,0.463-2.462,0.958v6.908c-0.182,0.05-0.38,0.083-0.562,0.083
		c-0.166,0-0.364-0.033-0.513-0.083V99.231c0.149-0.049,0.38-0.083,0.529-0.083c0.149,0,0.397,0.033,0.545,0.083v4.247
		c0.876-0.678,1.917-0.958,2.727-0.958c0.843,0,1.702,0.281,2.182,0.859c0.529,0.628,0.628,1.537,0.628,2.429V111.295z"/>
	<path fill="#333333" d="M150.361,111.295c-0.132,0.05-0.397,0.083-0.595,0.083s-0.43-0.017-0.71-0.083l-3.685-5.486l-1.19,1.338
		v4.148c-0.132,0.05-0.396,0.083-0.578,0.083c-0.182,0-0.414-0.033-0.545-0.083v-11.171c0.132-0.05,0.363-0.083,0.545-0.083
		c0.182,0,0.446,0.033,0.578,0.083v5.602l3.52-4.032c0.496-0.562,0.76-1.107,0.843-1.57c0.148-0.017,0.363-0.05,0.529-0.05
		c0.165,0,0.43,0.033,0.545,0.05c-0.033,0.529-0.364,1.239-1.041,2.016l-2.479,2.859L150.361,111.295z"/>
	<path fill="#333333" d="M157.568,109.18c0,0.595,0,1.338,0.033,2.115c-0.115,0.05-0.297,0.083-0.445,0.083
		c-0.133,0-0.314-0.033-0.447-0.083c-0.049-0.265-0.082-0.611-0.1-0.925h-0.016c-0.562,0.694-1.553,1.09-2.529,1.09
		c-1.535,0-2.824-0.859-2.824-2.627c0-1.008,0.412-1.751,1.057-2.214c0.727-0.512,1.686-0.677,2.711-0.677
		c0.578,0,1.057,0.033,1.486,0.099v-0.479c0-1.652-0.678-2.198-2.064-2.198c-0.777,0-1.736,0.165-2.33,0.314
		c-0.033-0.083-0.066-0.264-0.066-0.43c0-0.116,0.033-0.281,0.082-0.38c0.711-0.215,1.652-0.347,2.445-0.347
		c1.967,0,3.008,0.893,3.008,2.908V109.18z M156.494,106.85c-0.479-0.066-0.975-0.099-1.404-0.099c-0.811,0-1.537,0.149-2.033,0.529
		c-0.445,0.331-0.693,0.859-0.693,1.537c0,1.207,0.777,1.785,1.852,1.785c0.893,0,1.834-0.43,2.279-1.107V106.85z"/>
	<path fill="#333333" d="M160.447,101c-0.381,0-0.695-0.331-0.695-0.727s0.314-0.71,0.695-0.71c0.379,0,0.711,0.314,0.711,0.71
		S160.826,101,160.447,101z M160.992,111.295c-0.148,0.05-0.363,0.083-0.545,0.083s-0.381-0.033-0.529-0.083v-8.61
		c0.133-0.033,0.348-0.083,0.512-0.083c0.182,0,0.43,0.033,0.562,0.083V111.295z"/>
	<path fill="#333333" d="M169.916,111.312c-0.131,0.033-0.33,0.066-0.527,0.066c-0.166,0-0.381-0.033-0.545-0.083v-5.238
		c0-0.793-0.1-1.405-0.332-1.834c-0.281-0.529-0.809-0.793-1.668-0.793c-0.826,0-1.818,0.463-2.463,0.958v6.908
		c-0.182,0.05-0.363,0.083-0.562,0.083c-0.164,0-0.363-0.033-0.512-0.083v-8.61c0.115-0.049,0.314-0.066,0.43-0.066
		c0.166,0,0.363,0.017,0.463,0.066l0.082,0.859h0.018c0.908-0.744,1.949-1.024,2.793-1.024c0.842,0,1.719,0.281,2.197,0.859
		c0.529,0.628,0.627,1.537,0.627,2.429V111.312z"/>
	<path fill="#333333" d="M175.191,111.46c-2.164,0-3.553-1.487-3.553-4.461c0-2.975,1.404-4.479,3.57-4.479
		c2.164,0,3.535,1.471,3.535,4.445S177.357,111.46,175.191,111.46z M175.209,103.33c-1.586,0-2.445,1.223-2.445,3.652
		s0.842,3.668,2.428,3.668c1.588,0,2.43-1.239,2.43-3.668S176.795,103.33,175.209,103.33z"/>
	<path fill="#333333" d="M182.434,111.46c-0.826,0-1.686-0.148-2.281-0.38c-0.049-0.116-0.082-0.314-0.082-0.463
		c0-0.099,0.033-0.347,0.064-0.446c0.613,0.248,1.488,0.446,2.215,0.446c1.256,0,2.033-0.529,2.033-1.57
		c0-0.942-0.479-1.272-1.785-1.751c-1.818-0.661-2.412-1.421-2.412-2.545c0-1.521,1.256-2.231,2.875-2.231
		c0.545,0,1.256,0.099,1.67,0.231c0.049,0.148,0.064,0.297,0.064,0.396c0,0.132-0.031,0.364-0.064,0.479
		c-0.547-0.165-1.125-0.264-1.686-0.264c-1.174,0-1.885,0.446-1.885,1.355c0,0.793,0.447,1.173,1.801,1.686
		c1.24,0.463,2.381,0.926,2.381,2.595C185.342,110.684,184.068,111.46,182.434,111.46z"/>
	<path fill="#333333" d="M186.369,113.856c-0.1-0.083-0.232-0.281-0.281-0.413c0.678-0.545,1.189-1.157,1.355-1.834
		c-0.348-0.182-0.629-0.529-0.629-0.958c0-0.463,0.363-0.81,0.777-0.81c0.527,0,0.908,0.479,0.908,1.058
		C188.5,111.824,187.74,112.997,186.369,113.856z"/>
	<path fill="#333333" d="M198.633,111.212c-0.43,0.148-1.074,0.248-1.555,0.248c-1.635,0-2.412-0.776-2.412-2.611v-5.321h-1.486
		c-0.033-0.083-0.051-0.281-0.051-0.38c0-0.083,0.018-0.281,0.051-0.364l1.486-0.099v-2.247c0.133-0.05,0.348-0.083,0.529-0.083
		s0.412,0.033,0.545,0.083v2.247h2.43c0.033,0.083,0.066,0.331,0.066,0.414c0,0.115-0.033,0.314-0.066,0.429h-2.43v5.222
		c0,1.306,0.381,1.851,1.404,1.851c0.562,0,1.107-0.083,1.488-0.199c0.033,0.083,0.066,0.281,0.066,0.397
		C198.699,110.948,198.682,111.063,198.633,111.212z"/>
	<path fill="#333333" d="M206.848,111.295c-0.148,0.05-0.33,0.083-0.496,0.083c-0.197,0-0.412-0.033-0.578-0.083v-5.222
		c0-1.817-0.463-2.644-2-2.644c-0.826,0-1.816,0.463-2.461,0.958v6.908c-0.184,0.05-0.381,0.083-0.562,0.083
		c-0.166,0-0.363-0.033-0.512-0.083V99.231c0.148-0.049,0.379-0.083,0.527-0.083s0.396,0.033,0.547,0.083v4.247
		c0.875-0.678,1.916-0.958,2.727-0.958c0.842,0,1.701,0.281,2.18,0.859c0.529,0.628,0.629,1.537,0.629,2.429V111.295z"/>
	<path fill="#333333" d="M215.195,107.279h-5.535c0.064,1.9,0.957,3.338,3.023,3.338c0.744,0,1.438-0.099,2.049-0.248
		c0.033,0.083,0.066,0.248,0.066,0.347c0,0.166-0.033,0.314-0.082,0.43c-0.645,0.199-1.455,0.314-2.133,0.314
		c-1.305,0-2.297-0.413-2.908-1.074c-0.727-0.793-1.107-1.983-1.107-3.355c0-2.396,1.207-4.511,3.619-4.511
		c2.166,0,3.025,1.785,3.025,3.966C215.213,106.734,215.213,107.031,215.195,107.279z M214.139,106.486c0-1.52-0.166-3.156-2-3.156
		c-1.604,0-2.381,1.471-2.479,3.156H214.139z"/>
</g>
<g>
	<path fill="#333333" d="M10.544,122.193c0.512,0.116,0.893,0.446,0.893,0.975c0,0.462-0.347,0.843-0.81,0.843
		c-0.677,0-1.074-0.496-1.074-1.24c0-1.09,0.645-2.297,1.636-3.173c0.116,0.066,0.264,0.215,0.347,0.347
		C10.991,120.59,10.61,121.384,10.544,122.193z"/>
	<path fill="#333333" d="M19.353,131.497h-6.081v-11.171h5.833c0.049,0.116,0.083,0.297,0.083,0.43c0,0.148-0.033,0.33-0.083,0.43
		h-4.71v4.098h4.065c0.033,0.083,0.083,0.297,0.083,0.43c0,0.132-0.033,0.314-0.083,0.446h-4.065v4.479h4.958
		c0.05,0.116,0.083,0.297,0.083,0.43C19.436,131.216,19.403,131.398,19.353,131.497z"/>
	<path fill="#333333" d="M27.222,129.382c0,0.595,0,1.338,0.033,2.115c-0.115,0.05-0.297,0.083-0.446,0.083
		c-0.132,0-0.314-0.033-0.446-0.083c-0.05-0.265-0.083-0.611-0.099-0.925h-0.017c-0.562,0.694-1.553,1.09-2.528,1.09
		c-1.537,0-2.826-0.859-2.826-2.627c0-1.008,0.413-1.751,1.058-2.214c0.727-0.512,1.686-0.677,2.71-0.677
		c0.578,0,1.058,0.033,1.487,0.099v-0.479c0-1.652-0.678-2.198-2.066-2.198c-0.776,0-1.735,0.165-2.33,0.314
		c-0.033-0.083-0.066-0.264-0.066-0.43c0-0.116,0.033-0.281,0.083-0.38c0.711-0.215,1.653-0.347,2.446-0.347
		c1.967,0,3.008,0.893,3.008,2.908V129.382z M26.148,127.052c-0.479-0.066-0.975-0.099-1.405-0.099c-0.81,0-1.537,0.149-2.033,0.529
		c-0.446,0.331-0.694,0.859-0.694,1.537c0,1.207,0.777,1.785,1.851,1.785c0.893,0,1.834-0.43,2.281-1.107V127.052z"/>
	<path fill="#333333" d="M33.356,123.681c-0.958,0.132-2,0.479-2.776,1.074v6.742c-0.165,0.05-0.363,0.083-0.545,0.083
		c-0.182,0-0.363-0.033-0.529-0.083v-8.61c0.099-0.033,0.248-0.066,0.413-0.066c0.132,0,0.314,0.033,0.446,0.066l0.083,1.058h0.017
		c0.711-0.611,1.95-1.124,2.892-1.223c0.033,0.099,0.066,0.281,0.066,0.43C33.422,123.317,33.389,123.532,33.356,123.681z"/>
	<path fill="#333333" d="M41.637,131.514c-0.132,0.033-0.331,0.066-0.529,0.066c-0.166,0-0.38-0.033-0.545-0.083v-5.238
		c0-0.793-0.099-1.405-0.331-1.834c-0.281-0.529-0.81-0.793-1.669-0.793c-0.826,0-1.818,0.463-2.462,0.958v6.908
		c-0.182,0.05-0.363,0.083-0.562,0.083c-0.166,0-0.364-0.033-0.513-0.083v-8.61c0.116-0.049,0.314-0.066,0.43-0.066
		c0.166,0,0.364,0.017,0.463,0.066l0.083,0.859h0.017c0.909-0.744,1.95-1.024,2.793-1.024s1.718,0.281,2.198,0.859
		c0.529,0.628,0.628,1.537,0.628,2.429V131.514z"/>
	<path fill="#333333" d="M53.358,129.382c0,0.595,0,1.338,0.033,2.115c-0.115,0.05-0.297,0.083-0.446,0.083
		c-0.132,0-0.314-0.033-0.446-0.083c-0.05-0.265-0.083-0.611-0.099-0.925h-0.017c-0.562,0.694-1.553,1.09-2.528,1.09
		c-1.537,0-2.826-0.859-2.826-2.627c0-1.008,0.413-1.751,1.058-2.214c0.727-0.512,1.686-0.677,2.71-0.677
		c0.578,0,1.058,0.033,1.487,0.099v-0.479c0-1.652-0.678-2.198-2.066-2.198c-0.776,0-1.735,0.165-2.33,0.314
		c-0.033-0.083-0.066-0.264-0.066-0.43c0-0.116,0.033-0.281,0.083-0.38c0.711-0.215,1.653-0.347,2.446-0.347
		c1.967,0,3.008,0.893,3.008,2.908V129.382z M52.284,127.052c-0.479-0.066-0.975-0.099-1.405-0.099c-0.81,0-1.537,0.149-2.033,0.529
		c-0.446,0.331-0.694,0.859-0.694,1.537c0,1.207,0.777,1.785,1.851,1.785c0.893,0,1.834-0.43,2.281-1.107V127.052z"/>
	<path fill="#333333" d="M57.558,131.662c-0.826,0-1.686-0.148-2.28-0.38c-0.05-0.116-0.083-0.314-0.083-0.463
		c0-0.099,0.033-0.347,0.066-0.446c0.611,0.248,1.487,0.446,2.214,0.446c1.256,0,2.033-0.529,2.033-1.57
		c0-0.942-0.479-1.272-1.785-1.751c-1.818-0.661-2.413-1.421-2.413-2.545c0-1.521,1.256-2.231,2.875-2.231
		c0.545,0,1.256,0.099,1.669,0.231c0.049,0.148,0.066,0.297,0.066,0.396c0,0.132-0.033,0.364-0.066,0.479
		c-0.545-0.165-1.124-0.264-1.686-0.264c-1.173,0-1.884,0.446-1.884,1.355c0,0.793,0.446,1.173,1.801,1.686
		c1.24,0.463,2.38,0.926,2.38,2.595C60.466,130.886,59.194,131.662,57.558,131.662z"/>
	<path fill="#333333" d="M72.269,130.06c0,1.603-0.066,2.743-0.645,3.768c-0.661,1.173-1.967,1.735-3.14,1.735
		c-0.859,0-1.455-0.083-1.983-0.265c-0.049-0.099-0.066-0.264-0.066-0.396c0-0.099,0.033-0.314,0.066-0.413
		c0.496,0.148,1.091,0.264,1.884,0.264c1.818,0,2.81-1.305,2.81-3.569v-0.579c-0.843,0.744-1.785,1.058-2.644,1.058
		c-0.925,0-1.652-0.231-2.115-0.793c-0.512-0.611-0.579-1.504-0.579-2.396v-5.586c0.132-0.033,0.347-0.083,0.513-0.083
		c0.198,0,0.413,0.05,0.562,0.083v5.404c0,0.793,0.066,1.455,0.364,1.9c0.264,0.38,0.694,0.579,1.338,0.579
		c1.024,0,2-0.545,2.562-1.091v-6.792c0.149-0.033,0.363-0.083,0.562-0.083c0.165,0,0.38,0.05,0.512,0.083V130.06z"/>
	<path fill="#333333" d="M77.592,131.662c-2.165,0-3.553-1.487-3.553-4.461c0-2.975,1.405-4.479,3.569-4.479
		c2.165,0,3.537,1.471,3.537,4.445S79.757,131.662,77.592,131.662z M77.609,123.532c-1.586,0-2.446,1.223-2.446,3.652
		s0.843,3.668,2.429,3.668s2.429-1.239,2.429-3.668S79.195,123.532,77.609,123.532z"/>
	<path fill="#333333" d="M89.262,128.225c0,2.512-1.041,3.437-3.222,3.437c-2.231,0-3.173-0.925-3.173-3.354v-5.42
		c0.148-0.049,0.347-0.083,0.529-0.083c0.231,0,0.413,0.05,0.545,0.083v5.288c0,1.603,0.248,2.661,2.115,2.661
		c1.751,0,2.132-1.024,2.132-2.693v-5.255c0.132-0.049,0.363-0.083,0.545-0.083c0.182,0,0.38,0.033,0.529,0.083V128.225z"/>
	<path fill="#333333" d="M96.208,131.497c-0.182,0.05-0.364,0.083-0.562,0.083c-0.165,0-0.363-0.033-0.512-0.083v-12.063
		c0.149-0.033,0.331-0.083,0.545-0.083c0.182,0,0.38,0.033,0.529,0.083V131.497z"/>
	<path fill="#333333" d="M104.636,127.481h-5.536c0.066,1.9,0.958,3.338,3.024,3.338c0.744,0,1.438-0.099,2.049-0.248
		c0.033,0.083,0.066,0.248,0.066,0.347c0,0.166-0.033,0.314-0.083,0.43c-0.645,0.199-1.454,0.314-2.132,0.314
		c-1.306,0-2.297-0.413-2.909-1.074c-0.727-0.793-1.107-1.983-1.107-3.355c0-2.396,1.207-4.511,3.619-4.511
		c2.165,0,3.024,1.785,3.024,3.966C104.653,126.936,104.653,127.233,104.636,127.481z M103.579,126.688c0-1.52-0.165-3.156-2-3.156
		c-1.603,0-2.379,1.471-2.479,3.156H103.579z"/>
	<path fill="#333333" d="M112.34,129.382c0,0.595,0,1.338,0.033,2.115c-0.115,0.05-0.297,0.083-0.446,0.083
		c-0.132,0-0.314-0.033-0.446-0.083c-0.05-0.265-0.083-0.611-0.099-0.925h-0.017c-0.562,0.694-1.553,1.09-2.528,1.09
		c-1.537,0-2.826-0.859-2.826-2.627c0-1.008,0.413-1.751,1.058-2.214c0.727-0.512,1.686-0.677,2.71-0.677
		c0.579,0,1.058,0.033,1.487,0.099v-0.479c0-1.652-0.678-2.198-2.066-2.198c-0.776,0-1.735,0.165-2.33,0.314
		c-0.033-0.083-0.066-0.264-0.066-0.43c0-0.116,0.033-0.281,0.083-0.38c0.711-0.215,1.653-0.347,2.446-0.347
		c1.967,0,3.008,0.893,3.008,2.908V129.382z M111.266,127.052c-0.479-0.066-0.975-0.099-1.405-0.099
		c-0.81,0-1.537,0.149-2.033,0.529c-0.446,0.331-0.694,0.859-0.694,1.537c0,1.207,0.777,1.785,1.851,1.785
		c0.893,0,1.834-0.43,2.281-1.107V127.052z"/>
	<path fill="#333333" d="M118.474,123.681c-0.958,0.132-2,0.479-2.776,1.074v6.742c-0.165,0.05-0.363,0.083-0.545,0.083
		c-0.182,0-0.363-0.033-0.529-0.083v-8.61c0.099-0.033,0.248-0.066,0.413-0.066c0.132,0,0.314,0.033,0.446,0.066l0.083,1.058h0.017
		c0.711-0.611,1.95-1.124,2.892-1.223c0.033,0.099,0.066,0.281,0.066,0.43C118.54,123.317,118.507,123.532,118.474,123.681z"/>
	<path fill="#333333" d="M126.754,131.514c-0.132,0.033-0.331,0.066-0.529,0.066c-0.166,0-0.38-0.033-0.545-0.083v-5.238
		c0-0.793-0.099-1.405-0.331-1.834c-0.281-0.529-0.81-0.793-1.669-0.793c-0.826,0-1.818,0.463-2.462,0.958v6.908
		c-0.182,0.05-0.363,0.083-0.562,0.083c-0.166,0-0.364-0.033-0.513-0.083v-8.61c0.116-0.049,0.314-0.066,0.43-0.066
		c0.166,0,0.364,0.017,0.463,0.066l0.083,0.859h0.017c0.909-0.744,1.95-1.024,2.793-1.024s1.718,0.281,2.198,0.859
		c0.529,0.628,0.628,1.537,0.628,2.429V131.514z"/>
	<path fill="#333333" d="M128.956,121.417c-0.513-0.116-0.893-0.446-0.893-0.975c0-0.463,0.347-0.843,0.81-0.843
		c0.678,0,1.074,0.496,1.074,1.24c0,1.09-0.645,2.297-1.636,3.173c-0.116-0.066-0.265-0.215-0.347-0.347
		C128.509,123.02,128.889,122.227,128.956,121.417z"/>
	<path fill="#333333" d="M137.005,131.662c-0.826,0-1.686-0.148-2.28-0.38c-0.05-0.116-0.083-0.314-0.083-0.463
		c0-0.099,0.033-0.347,0.066-0.446c0.611,0.248,1.487,0.446,2.214,0.446c1.256,0,2.033-0.529,2.033-1.57
		c0-0.942-0.479-1.272-1.785-1.751c-1.818-0.661-2.413-1.421-2.413-2.545c0-1.521,1.256-2.231,2.875-2.231
		c0.545,0,1.256,0.099,1.669,0.231c0.049,0.148,0.066,0.297,0.066,0.396c0,0.132-0.033,0.364-0.066,0.479
		c-0.545-0.165-1.124-0.264-1.686-0.264c-1.173,0-1.884,0.446-1.884,1.355c0,0.793,0.446,1.173,1.801,1.686
		c1.24,0.463,2.38,0.926,2.38,2.595C139.914,130.886,138.641,131.662,137.005,131.662z"/>
	<path fill="#333333" d="M147.088,123.929c-0.529-0.215-1.223-0.347-1.834-0.347c-2.148,0-2.941,1.669-2.941,3.685
		c0,1.983,0.76,3.52,2.925,3.52c0.578,0,1.272-0.099,1.785-0.248c0.033,0.099,0.066,0.215,0.066,0.347
		c0,0.198-0.033,0.347-0.083,0.462c-0.479,0.199-1.256,0.314-1.867,0.314c-2.694,0-3.95-1.768-3.95-4.362
		c0-2.694,1.372-4.578,3.999-4.578c0.628,0,1.372,0.149,1.884,0.38c0.05,0.132,0.066,0.265,0.066,0.413
		C147.138,123.681,147.121,123.813,147.088,123.929z"/>
	<path fill="#333333" d="M155.469,131.497c-0.148,0.05-0.33,0.083-0.496,0.083c-0.197,0-0.412-0.033-0.578-0.083v-5.222
		c0-1.817-0.463-2.644-2-2.644c-0.826,0-1.817,0.463-2.462,0.958v6.908c-0.182,0.05-0.38,0.083-0.562,0.083
		c-0.166,0-0.364-0.033-0.513-0.083v-12.063c0.149-0.049,0.38-0.083,0.529-0.083c0.149,0,0.397,0.033,0.545,0.083v4.247
		c0.876-0.678,1.917-0.958,2.728-0.958c0.842,0,1.701,0.281,2.18,0.859c0.529,0.628,0.629,1.537,0.629,2.429V131.497z"/>
	<path fill="#333333" d="M163.818,127.481h-5.537c0.066,1.9,0.959,3.338,3.025,3.338c0.742,0,1.438-0.099,2.049-0.248
		c0.033,0.083,0.066,0.248,0.066,0.347c0,0.166-0.033,0.314-0.084,0.43c-0.645,0.199-1.453,0.314-2.131,0.314
		c-1.307,0-2.297-0.413-2.908-1.074c-0.729-0.793-1.107-1.983-1.107-3.355c0-2.396,1.205-4.511,3.619-4.511
		c2.164,0,3.023,1.785,3.023,3.966C163.834,126.936,163.834,127.233,163.818,127.481z M162.76,126.688c0-1.52-0.166-3.156-2-3.156
		c-1.602,0-2.379,1.471-2.479,3.156H162.76z"/>
	<path fill="#333333" d="M177.602,131.514c-0.164,0.033-0.33,0.066-0.496,0.066c-0.197,0-0.379-0.049-0.578-0.083v-5.222
		c0-1.817-0.463-2.644-1.998-2.644c-0.795,0-1.852,0.413-2.512,0.893c0.131,0.463,0.164,0.975,0.164,1.487v5.486
		c-0.164,0.05-0.33,0.083-0.496,0.083c-0.215,0-0.412-0.033-0.578-0.083v-5.222c0-1.817-0.412-2.644-1.949-2.644
		c-0.826,0-1.801,0.463-2.445,0.958v6.908c-0.184,0.05-0.398,0.083-0.596,0.083c-0.166,0-0.348-0.033-0.479-0.083v-8.61
		c0.082-0.033,0.264-0.066,0.445-0.066c0.148,0,0.33,0.033,0.445,0.066l0.084,0.859h0.016c0.91-0.744,1.951-1.024,2.793-1.024
		c0.844,0,1.652,0.281,2.133,0.859c0.064,0.066,0.115,0.148,0.164,0.231c0.877-0.711,2-1.091,3.074-1.091
		c0.842,0,1.701,0.281,2.182,0.859c0.529,0.628,0.627,1.537,0.627,2.429V131.514z"/>
	<path fill="#333333" d="M185.953,127.481h-5.537c0.066,1.9,0.959,3.338,3.025,3.338c0.742,0,1.438-0.099,2.049-0.248
		c0.033,0.083,0.066,0.248,0.066,0.347c0,0.166-0.033,0.314-0.084,0.43c-0.645,0.199-1.453,0.314-2.131,0.314
		c-1.307,0-2.297-0.413-2.908-1.074c-0.729-0.793-1.107-1.983-1.107-3.355c0-2.396,1.205-4.511,3.619-4.511
		c2.164,0,3.023,1.785,3.023,3.966C185.969,126.936,185.969,127.233,185.953,127.481z M184.895,126.688c0-1.52-0.166-3.156-2-3.156
		c-1.602,0-2.379,1.471-2.479,3.156H184.895z"/>
	<path fill="#333333" d="M196.285,120.144c-0.248-0.066-0.695-0.132-1.041-0.132c-0.629,0-1.092,0.165-1.406,0.512
		c-0.479,0.512-0.561,1.206-0.561,2.082v0.281h2.33c0.033,0.083,0.066,0.281,0.066,0.397c0,0.132-0.033,0.331-0.066,0.446h-2.33
		v7.767c-0.148,0.05-0.314,0.083-0.529,0.083s-0.396-0.033-0.545-0.083v-7.767h-1.488c-0.033-0.083-0.049-0.297-0.049-0.396
		c0-0.083,0.016-0.264,0.049-0.347l1.488-0.099v-0.281c0-1.173,0.197-1.983,0.875-2.661c0.48-0.479,1.189-0.71,2-0.71
		c0.43,0,0.908,0.099,1.207,0.215c0.031,0.083,0.049,0.198,0.049,0.314C196.334,119.863,196.316,120.062,196.285,120.144z"/>
	<path fill="#333333" d="M203.607,128.225c0,2.512-1.041,3.437-3.223,3.437c-2.23,0-3.172-0.925-3.172-3.354v-5.42
		c0.148-0.049,0.346-0.083,0.527-0.083c0.232,0,0.414,0.05,0.547,0.083v5.288c0,1.603,0.248,2.661,2.115,2.661
		c1.752,0,2.131-1.024,2.131-2.693v-5.255c0.133-0.049,0.363-0.083,0.545-0.083s0.381,0.033,0.529,0.083V128.225z"/>
	<path fill="#333333" d="M212.418,131.514c-0.133,0.033-0.33,0.066-0.529,0.066c-0.164,0-0.379-0.033-0.545-0.083v-5.238
		c0-0.793-0.1-1.405-0.33-1.834c-0.281-0.529-0.811-0.793-1.67-0.793c-0.826,0-1.816,0.463-2.461,0.958v6.908
		c-0.184,0.05-0.365,0.083-0.562,0.083c-0.166,0-0.363-0.033-0.512-0.083v-8.61c0.115-0.049,0.312-0.066,0.43-0.066
		c0.164,0,0.363,0.017,0.461,0.066l0.084,0.859h0.016c0.91-0.744,1.951-1.024,2.793-1.024c0.844,0,1.719,0.281,2.197,0.859
		c0.529,0.628,0.629,1.537,0.629,2.429V131.514z"/>
	<path fill="#333333" d="M220.553,131.58c-0.15,0-0.332-0.049-0.43-0.083l-0.1-0.992h-0.018c-0.709,0.744-1.553,1.157-2.494,1.157
		c-2.281,0-3.371-1.9-3.371-4.214c0-2.297,0.975-4.726,3.602-4.726c0.826,0,1.586,0.281,2.199,0.71v-3.999
		c0.148-0.049,0.346-0.083,0.527-0.083c0.199,0,0.396,0.049,0.545,0.083v12.063C220.898,131.547,220.734,131.58,220.553,131.58z
		 M219.941,124.342c-0.596-0.496-1.355-0.744-2.133-0.744c-1.916,0-2.561,1.884-2.561,3.801c0,1.471,0.463,3.388,2.312,3.388
		c0.893,0,1.801-0.446,2.381-1.14V124.342z"/>
	<path fill="#333333" d="M225.182,131.662c-0.826,0-1.686-0.148-2.281-0.38c-0.049-0.116-0.082-0.314-0.082-0.463
		c0-0.099,0.033-0.347,0.066-0.446c0.611,0.248,1.486,0.446,2.215,0.446c1.256,0,2.031-0.529,2.031-1.57
		c0-0.942-0.479-1.272-1.783-1.751c-1.818-0.661-2.414-1.421-2.414-2.545c0-1.521,1.256-2.231,2.877-2.231
		c0.545,0,1.256,0.099,1.668,0.231c0.051,0.148,0.066,0.297,0.066,0.396c0,0.132-0.033,0.364-0.066,0.479
		c-0.545-0.165-1.123-0.264-1.686-0.264c-1.174,0-1.883,0.446-1.883,1.355c0,0.793,0.445,1.173,1.801,1.686
		c1.238,0.463,2.379,0.926,2.379,2.595C228.09,130.886,226.818,131.662,225.182,131.662z"/>
	<path fill="#333333" d="M237.033,128.175c-0.809,0.942-1.57,1.752-2.215,2.446h5.09c0.051,0.149,0.051,0.331,0.051,0.43
		c0,0.149-0.018,0.297-0.051,0.446h-6.229c-0.1-0.281-0.133-0.463-0.133-0.645c0-0.116,0-0.165,0.016-0.264
		c0.959-1.042,2.1-2.281,2.76-3.024c1.818-2.049,2.512-3.289,2.512-4.511c0-1.388-0.793-2.082-2.082-2.082
		c-0.875,0-1.9,0.264-2.709,0.628c-0.033-0.099-0.051-0.331-0.051-0.43c0-0.149,0.033-0.298,0.084-0.43
		c0.66-0.297,1.816-0.579,2.826-0.579c1.85,0,3.123,1.025,3.123,2.793C240.025,124.441,239.232,125.63,237.033,128.175z"/>
	<path fill="#333333" d="M245.465,131.662c-2.23,0-3.471-1.652-3.471-5.75s1.371-5.751,3.537-5.751c2.197,0,3.471,1.653,3.471,5.751
		S247.629,131.662,245.465,131.662z M245.531,120.971c-1.652,0-2.348,1.686-2.348,4.941s0.645,4.941,2.297,4.941
		c1.654,0,2.33-1.686,2.33-4.941S247.184,120.971,245.531,120.971z"/>
	<path fill="#333333" d="M260.094,130.604c-0.645,0.579-1.652,0.893-2.611,0.893c-0.678,0-1.305-0.116-1.768-0.281v4.164
		c-0.166,0.05-0.314,0.083-0.545,0.083c-0.182,0-0.396-0.033-0.529-0.083v-12.493c0.082-0.033,0.281-0.066,0.447-0.066
		c0.164,0,0.312,0.033,0.43,0.066l0.098,0.909h0.018c0.627-0.661,1.57-1.074,2.527-1.074c1.041,0,1.967,0.446,2.545,1.272
		c0.48,0.694,0.777,1.686,0.777,2.892C261.482,128.539,260.971,129.812,260.094,130.604z M258.045,123.598
		c-0.875,0-1.752,0.363-2.33,1.09v5.685c0.43,0.198,1.09,0.314,1.652,0.314c1.785,0,2.992-1.173,2.992-3.751
		C260.359,124.903,259.564,123.598,258.045,123.598z"/>
	<path fill="#333333" d="M264.359,131.497c-0.182,0.05-0.363,0.083-0.561,0.083c-0.166,0-0.363-0.033-0.512-0.083v-12.063
		c0.148-0.033,0.33-0.083,0.545-0.083c0.182,0,0.379,0.033,0.527,0.083V131.497z"/>
	<path fill="#333333" d="M272.525,129.382c0,0.595,0,1.338,0.033,2.115c-0.117,0.05-0.299,0.083-0.447,0.083
		c-0.133,0-0.314-0.033-0.445-0.083c-0.051-0.265-0.084-0.611-0.1-0.925h-0.018c-0.561,0.694-1.553,1.09-2.527,1.09
		c-1.537,0-2.826-0.859-2.826-2.627c0-1.008,0.414-1.751,1.059-2.214c0.727-0.512,1.686-0.677,2.709-0.677
		c0.578,0,1.059,0.033,1.488,0.099v-0.479c0-1.652-0.678-2.198-2.066-2.198c-0.777,0-1.734,0.165-2.33,0.314
		c-0.033-0.083-0.066-0.264-0.066-0.43c0-0.116,0.033-0.281,0.084-0.38c0.709-0.215,1.652-0.347,2.445-0.347
		c1.967,0,3.008,0.893,3.008,2.908V129.382z M271.451,127.052c-0.48-0.066-0.975-0.099-1.404-0.099
		c-0.811,0-1.537,0.149-2.033,0.529c-0.447,0.331-0.695,0.859-0.695,1.537c0,1.207,0.777,1.785,1.852,1.785
		c0.893,0,1.834-0.43,2.281-1.107V127.052z"/>
	<path fill="#333333" d="M280.229,123.929c-0.527-0.215-1.223-0.347-1.834-0.347c-2.148,0-2.941,1.669-2.941,3.685
		c0,1.983,0.76,3.52,2.926,3.52c0.578,0,1.271-0.099,1.783-0.248c0.033,0.099,0.066,0.215,0.066,0.347
		c0,0.198-0.033,0.347-0.082,0.462c-0.479,0.199-1.256,0.314-1.867,0.314c-2.693,0-3.949-1.768-3.949-4.362
		c0-2.694,1.371-4.578,3.998-4.578c0.629,0,1.373,0.149,1.885,0.38c0.049,0.132,0.066,0.265,0.066,0.413
		C280.279,123.681,280.262,123.813,280.229,123.929z"/>
	<path fill="#333333" d="M288.146,127.481h-5.535c0.064,1.9,0.957,3.338,3.023,3.338c0.744,0,1.438-0.099,2.049-0.248
		c0.033,0.083,0.066,0.248,0.066,0.347c0,0.166-0.033,0.314-0.082,0.43c-0.645,0.199-1.455,0.314-2.133,0.314
		c-1.305,0-2.297-0.413-2.908-1.074c-0.727-0.793-1.107-1.983-1.107-3.355c0-2.396,1.207-4.511,3.619-4.511
		c2.166,0,3.025,1.785,3.025,3.966C288.164,126.936,288.164,127.233,288.146,127.481z M287.09,126.688c0-1.52-0.166-3.156-2-3.156
		c-1.604,0-2.381,1.471-2.479,3.156H287.09z"/>
	<path fill="#333333" d="M291.885,131.662c-0.826,0-1.686-0.148-2.281-0.38c-0.049-0.116-0.082-0.314-0.082-0.463
		c0-0.099,0.033-0.347,0.064-0.446c0.613,0.248,1.488,0.446,2.215,0.446c1.256,0,2.033-0.529,2.033-1.57
		c0-0.942-0.479-1.272-1.785-1.751c-1.818-0.661-2.412-1.421-2.412-2.545c0-1.521,1.256-2.231,2.875-2.231
		c0.545,0,1.256,0.099,1.67,0.231c0.049,0.148,0.064,0.297,0.064,0.396c0,0.132-0.031,0.364-0.064,0.479
		c-0.547-0.165-1.125-0.264-1.686-0.264c-1.174,0-1.885,0.446-1.885,1.355c0,0.793,0.447,1.173,1.801,1.686
		c1.24,0.463,2.381,0.926,2.381,2.595C294.793,130.886,293.52,131.662,291.885,131.662z"/>
</g>
<g>
	<path fill="#333333" d="M16.444,147.683h-5.536c0.066,1.9,0.958,3.338,3.024,3.338c0.744,0,1.438-0.099,2.049-0.248
		c0.033,0.083,0.066,0.248,0.066,0.347c0,0.165-0.033,0.313-0.083,0.43c-0.645,0.198-1.454,0.313-2.132,0.313
		c-1.306,0-2.297-0.413-2.909-1.074c-0.727-0.793-1.107-1.983-1.107-3.355c0-2.396,1.207-4.511,3.619-4.511
		c2.165,0,3.024,1.785,3.024,3.966C16.46,147.137,16.46,147.435,16.444,147.683z M15.386,146.889c0-1.52-0.165-3.156-2-3.156
		c-1.603,0-2.379,1.471-2.479,3.156H15.386z"/>
	<path fill="#333333" d="M24.147,149.583c0,0.595,0,1.338,0.033,2.115c-0.115,0.05-0.297,0.083-0.446,0.083
		c-0.132,0-0.314-0.033-0.446-0.083c-0.05-0.265-0.083-0.611-0.099-0.925h-0.017c-0.562,0.694-1.553,1.09-2.528,1.09
		c-1.537,0-2.826-0.859-2.826-2.627c0-1.008,0.413-1.751,1.058-2.214c0.727-0.512,1.686-0.677,2.71-0.677
		c0.579,0,1.058,0.033,1.487,0.099v-0.479c0-1.652-0.678-2.198-2.066-2.198c-0.776,0-1.735,0.165-2.33,0.314
		c-0.033-0.083-0.066-0.264-0.066-0.43c0-0.116,0.033-0.281,0.083-0.38c0.711-0.215,1.653-0.347,2.446-0.347
		c1.967,0,3.008,0.893,3.008,2.908V149.583z M23.073,147.253c-0.479-0.066-0.975-0.099-1.405-0.099c-0.81,0-1.537,0.149-2.033,0.529
		c-0.446,0.331-0.694,0.859-0.694,1.537c0,1.207,0.777,1.785,1.851,1.785c0.893,0,1.834-0.429,2.281-1.107V147.253z"/>
	<path fill="#333333" d="M31.851,144.13c-0.529-0.215-1.223-0.347-1.834-0.347c-2.148,0-2.941,1.669-2.941,3.685
		c0,1.983,0.76,3.52,2.925,3.52c0.578,0,1.272-0.099,1.785-0.248c0.033,0.099,0.066,0.215,0.066,0.347
		c0,0.198-0.033,0.347-0.083,0.463c-0.479,0.198-1.256,0.313-1.867,0.313c-2.694,0-3.95-1.768-3.95-4.362
		c0-2.694,1.372-4.578,3.999-4.578c0.628,0,1.372,0.149,1.884,0.38c0.05,0.132,0.066,0.265,0.066,0.413
		C31.901,143.882,31.884,144.014,31.851,144.13z"/>
	<path fill="#333333" d="M40.232,151.698c-0.149,0.05-0.331,0.083-0.496,0.083c-0.199,0-0.414-0.033-0.579-0.083v-5.222
		c0-1.817-0.463-2.644-2-2.644c-0.826,0-1.818,0.463-2.462,0.958v6.908c-0.182,0.05-0.38,0.083-0.562,0.083
		c-0.166,0-0.364-0.033-0.513-0.083v-12.063c0.149-0.049,0.38-0.083,0.529-0.083c0.149,0,0.397,0.033,0.545,0.083v4.247
		c0.876-0.678,1.917-0.958,2.727-0.958c0.843,0,1.702,0.281,2.182,0.859c0.529,0.628,0.628,1.537,0.628,2.429V151.698z"/>
	<path fill="#333333" d="M52.481,150.261c0,1.603-0.066,2.743-0.645,3.768c-0.661,1.173-1.967,1.735-3.14,1.735
		c-0.859,0-1.455-0.083-1.983-0.265c-0.049-0.099-0.066-0.265-0.066-0.396c0-0.1,0.033-0.314,0.066-0.413
		c0.496,0.148,1.091,0.265,1.884,0.265c1.818,0,2.81-1.306,2.81-3.57v-0.578c-0.843,0.744-1.785,1.058-2.644,1.058
		c-0.925,0-1.652-0.231-2.115-0.793c-0.512-0.611-0.579-1.504-0.579-2.396v-5.586c0.132-0.033,0.347-0.083,0.513-0.083
		c0.198,0,0.413,0.05,0.562,0.083v5.404c0,0.793,0.066,1.455,0.364,1.9c0.264,0.38,0.694,0.579,1.338,0.579
		c1.024,0,2-0.545,2.562-1.091v-6.792c0.149-0.033,0.363-0.083,0.562-0.083c0.165,0,0.38,0.05,0.512,0.083V150.261z"/>
	<path fill="#333333" d="M60.879,147.683h-5.536c0.066,1.9,0.958,3.338,3.024,3.338c0.744,0,1.438-0.099,2.049-0.248
		c0.033,0.083,0.066,0.248,0.066,0.347c0,0.165-0.033,0.313-0.083,0.43c-0.645,0.198-1.454,0.313-2.132,0.313
		c-1.306,0-2.297-0.413-2.909-1.074c-0.727-0.793-1.107-1.983-1.107-3.355c0-2.396,1.206-4.511,3.619-4.511
		c2.165,0,3.024,1.785,3.024,3.966C60.896,147.137,60.896,147.435,60.879,147.683z M59.821,146.889c0-1.52-0.165-3.156-2-3.156
		c-1.603,0-2.379,1.471-2.479,3.156H59.821z"/>
	<path fill="#333333" d="M68.583,149.583c0,0.595,0,1.338,0.033,2.115c-0.115,0.05-0.297,0.083-0.446,0.083
		c-0.132,0-0.314-0.033-0.446-0.083c-0.05-0.265-0.083-0.611-0.099-0.925h-0.017c-0.562,0.694-1.553,1.09-2.528,1.09
		c-1.537,0-2.826-0.859-2.826-2.627c0-1.008,0.413-1.751,1.058-2.214c0.727-0.512,1.686-0.677,2.71-0.677
		c0.579,0,1.058,0.033,1.487,0.099v-0.479c0-1.652-0.678-2.198-2.066-2.198c-0.776,0-1.735,0.165-2.33,0.314
		c-0.033-0.083-0.066-0.264-0.066-0.43c0-0.116,0.033-0.281,0.083-0.38c0.711-0.215,1.653-0.347,2.446-0.347
		c1.967,0,3.008,0.893,3.008,2.908V149.583z M67.509,147.253c-0.479-0.066-0.975-0.099-1.405-0.099c-0.81,0-1.537,0.149-2.033,0.529
		c-0.446,0.331-0.694,0.859-0.694,1.537c0,1.207,0.777,1.785,1.851,1.785c0.893,0,1.834-0.429,2.281-1.107V147.253z"/>
	<path fill="#333333" d="M74.716,143.882c-0.958,0.132-2,0.479-2.776,1.074v6.742c-0.165,0.05-0.363,0.083-0.545,0.083
		c-0.182,0-0.363-0.033-0.529-0.083v-8.61c0.099-0.033,0.248-0.066,0.413-0.066c0.132,0,0.314,0.033,0.446,0.066l0.083,1.058h0.017
		c0.711-0.611,1.95-1.124,2.892-1.223c0.033,0.099,0.066,0.281,0.066,0.43C74.782,143.518,74.75,143.733,74.716,143.882z"/>
	<path fill="#333333" d="M90.039,144.791l-2.214,6.908c-0.132,0.05-0.38,0.083-0.513,0.083c-0.148,0-0.396-0.033-0.512-0.083
		l-1.983-6.676h-0.033l-2.082,6.676c-0.149,0.05-0.38,0.083-0.512,0.083s-0.347-0.033-0.496-0.083l-2.049-6.809
		c-0.182-0.562-0.265-1.206-0.281-1.817c0.132-0.033,0.396-0.066,0.562-0.066c0.182,0,0.347,0.033,0.496,0.083
		c0.016,0.595,0.116,1.223,0.264,1.769l1.504,5.371h0.017l2.148-7.155c0.116-0.033,0.347-0.05,0.463-0.05s0.364,0.017,0.463,0.05
		l2.032,7.155h0.017l1.653-5.354c0.182-0.612,0.314-1.19,0.347-1.785c0.116-0.049,0.397-0.083,0.545-0.083
		c0.149,0,0.38,0.033,0.479,0.083C90.353,143.65,90.22,144.212,90.039,144.791z"/>
	<path fill="#333333" d="M92.538,141.403c-0.38,0-0.694-0.331-0.694-0.727s0.314-0.71,0.694-0.71c0.38,0,0.71,0.314,0.71,0.71
		S92.918,141.403,92.538,141.403z M93.083,151.698c-0.149,0.05-0.364,0.083-0.545,0.083c-0.182,0-0.38-0.033-0.529-0.083v-8.61
		c0.132-0.033,0.347-0.083,0.512-0.083c0.182,0,0.43,0.033,0.562,0.083V151.698z"/>
	<path fill="#333333" d="M99.976,151.615c-0.43,0.149-1.074,0.248-1.553,0.248c-1.636,0-2.413-0.776-2.413-2.611v-5.321h-1.487
		c-0.033-0.083-0.05-0.281-0.05-0.38c0-0.083,0.017-0.281,0.05-0.364l1.487-0.099v-2.247c0.132-0.05,0.347-0.083,0.529-0.083
		c0.182,0,0.413,0.033,0.545,0.083v2.247h2.429c0.033,0.083,0.066,0.331,0.066,0.414c0,0.115-0.033,0.314-0.066,0.429h-2.429v5.222
		c0,1.306,0.38,1.851,1.405,1.851c0.562,0,1.107-0.083,1.487-0.198c0.033,0.083,0.066,0.281,0.066,0.396
		C100.042,151.352,100.025,151.467,99.976,151.615z"/>
	<path fill="#333333" d="M108.191,151.698c-0.149,0.05-0.331,0.083-0.496,0.083c-0.199,0-0.414-0.033-0.579-0.083v-5.222
		c0-1.817-0.463-2.644-2-2.644c-0.826,0-1.818,0.463-2.462,0.958v6.908c-0.182,0.05-0.38,0.083-0.562,0.083
		c-0.166,0-0.364-0.033-0.513-0.083v-12.063c0.149-0.049,0.38-0.083,0.529-0.083c0.149,0,0.397,0.033,0.545,0.083v4.247
		c0.876-0.678,1.917-0.958,2.727-0.958c0.843,0,1.702,0.281,2.182,0.859c0.529,0.628,0.628,1.537,0.628,2.429V151.698z"/>
	<path fill="#333333" d="M119.911,149.583c0,0.595,0,1.338,0.033,2.115c-0.115,0.05-0.297,0.083-0.446,0.083
		c-0.132,0-0.314-0.033-0.446-0.083c-0.05-0.265-0.083-0.611-0.099-0.925h-0.017c-0.562,0.694-1.553,1.09-2.528,1.09
		c-1.537,0-2.826-0.859-2.826-2.627c0-1.008,0.413-1.751,1.058-2.214c0.727-0.512,1.686-0.677,2.71-0.677
		c0.579,0,1.058,0.033,1.487,0.099v-0.479c0-1.652-0.678-2.198-2.066-2.198c-0.776,0-1.735,0.165-2.33,0.314
		c-0.033-0.083-0.066-0.264-0.066-0.43c0-0.116,0.033-0.281,0.083-0.38c0.711-0.215,1.653-0.347,2.446-0.347
		c1.967,0,3.008,0.893,3.008,2.908V149.583z M118.837,147.253c-0.479-0.066-0.975-0.099-1.405-0.099
		c-0.81,0-1.537,0.149-2.033,0.529c-0.446,0.331-0.694,0.859-0.694,1.537c0,1.207,0.777,1.785,1.851,1.785
		c0.893,0,1.834-0.429,2.281-1.107V147.253z"/>
	<path fill="#333333" d="M131.285,150.806c-0.645,0.578-1.653,0.893-2.611,0.893c-0.677,0-1.305-0.115-1.768-0.281v4.165
		c-0.165,0.049-0.314,0.082-0.545,0.082c-0.182,0-0.396-0.033-0.529-0.082v-12.494c0.083-0.033,0.281-0.066,0.446-0.066
		c0.166,0,0.314,0.033,0.43,0.066l0.099,0.909h0.017c0.628-0.661,1.57-1.074,2.528-1.074c1.041,0,1.967,0.446,2.545,1.272
		c0.479,0.694,0.777,1.686,0.777,2.892C132.673,148.74,132.161,150.013,131.285,150.806z M129.235,143.799
		c-0.876,0-1.751,0.363-2.33,1.09v5.685c0.43,0.198,1.091,0.314,1.653,0.314c1.785,0,2.991-1.173,2.991-3.751
		C131.549,145.104,130.756,143.799,129.235,143.799z"/>
	<path fill="#333333" d="M140.327,149.583c0,0.595,0,1.338,0.033,2.115c-0.115,0.05-0.297,0.083-0.446,0.083
		c-0.132,0-0.314-0.033-0.446-0.083c-0.05-0.265-0.083-0.611-0.099-0.925h-0.017c-0.562,0.694-1.553,1.09-2.528,1.09
		c-1.537,0-2.826-0.859-2.826-2.627c0-1.008,0.413-1.751,1.058-2.214c0.727-0.512,1.686-0.677,2.71-0.677
		c0.579,0,1.058,0.033,1.487,0.099v-0.479c0-1.652-0.678-2.198-2.066-2.198c-0.776,0-1.735,0.165-2.33,0.314
		c-0.033-0.083-0.066-0.264-0.066-0.43c0-0.116,0.033-0.281,0.083-0.38c0.711-0.215,1.653-0.347,2.446-0.347
		c1.967,0,3.008,0.893,3.008,2.908V149.583z M139.253,147.253c-0.479-0.066-0.975-0.099-1.405-0.099
		c-0.81,0-1.537,0.149-2.033,0.529c-0.446,0.331-0.694,0.859-0.694,1.537c0,1.207,0.777,1.785,1.851,1.785
		c0.893,0,1.834-0.429,2.281-1.107V147.253z"/>
	<path fill="#333333" d="M148.03,144.13c-0.529-0.215-1.223-0.347-1.834-0.347c-2.148,0-2.941,1.669-2.941,3.685
		c0,1.983,0.76,3.52,2.925,3.52c0.578,0,1.272-0.099,1.785-0.248c0.033,0.099,0.066,0.215,0.066,0.347
		c0,0.198-0.033,0.347-0.083,0.463c-0.479,0.198-1.256,0.313-1.867,0.313c-2.694,0-3.95-1.768-3.95-4.362
		c0-2.694,1.372-4.578,3.999-4.578c0.628,0,1.372,0.149,1.884,0.38c0.05,0.132,0.066,0.265,0.066,0.413
		C148.08,143.882,148.063,144.014,148.03,144.13z"/>
	<path fill="#333333" d="M156.146,151.698c-0.115,0.033-0.363,0.083-0.545,0.083s-0.447-0.033-0.662-0.083l-2.809-4.429
		l-1.256,1.173v3.255c-0.165,0.05-0.38,0.083-0.578,0.083c-0.132,0-0.347-0.033-0.496-0.083v-12.063
		c0.149-0.049,0.331-0.083,0.545-0.083c0.198,0,0.364,0.033,0.529,0.083v7.552l2.793-2.611c0.596-0.562,0.893-1.058,0.975-1.487
		c0.115-0.049,0.363-0.083,0.512-0.083c0.15,0,0.381,0.033,0.48,0.083c-0.066,0.612-0.447,1.355-1.207,2.049l-1.537,1.421
		L156.146,151.698z"/>
	<path fill="#333333" d="M163.471,149.583c0,0.595,0,1.338,0.033,2.115c-0.117,0.05-0.299,0.083-0.447,0.083
		c-0.133,0-0.314-0.033-0.445-0.083c-0.051-0.265-0.084-0.611-0.1-0.925h-0.018c-0.561,0.694-1.553,1.09-2.527,1.09
		c-1.537,0-2.826-0.859-2.826-2.627c0-1.008,0.414-1.751,1.059-2.214c0.727-0.512,1.686-0.677,2.709-0.677
		c0.578,0,1.059,0.033,1.488,0.099v-0.479c0-1.652-0.678-2.198-2.066-2.198c-0.777,0-1.734,0.165-2.33,0.314
		c-0.033-0.083-0.066-0.264-0.066-0.43c0-0.116,0.033-0.281,0.084-0.38c0.709-0.215,1.652-0.347,2.445-0.347
		c1.967,0,3.008,0.893,3.008,2.908V149.583z M162.396,147.253c-0.48-0.066-0.975-0.099-1.404-0.099
		c-0.811,0-1.537,0.149-2.033,0.529c-0.447,0.331-0.695,0.859-0.695,1.537c0,1.207,0.777,1.785,1.852,1.785
		c0.893,0,1.834-0.429,2.281-1.107V147.253z"/>
	<path fill="#333333" d="M171.982,150.261c0,1.239-0.064,2.727-0.66,3.751c-0.711,1.223-1.982,1.752-3.256,1.752
		c-0.727,0-1.355-0.083-1.883-0.265c-0.051-0.099-0.066-0.265-0.066-0.396c0-0.1,0.033-0.298,0.066-0.396
		c0.512,0.132,1.105,0.231,1.701,0.231c2.082,0,3.023-1.289,3.023-3.554v-0.693c-0.645,0.678-1.553,1.008-2.297,1.008
		c-2.197,0-3.338-1.702-3.338-4.098c0-2.941,1.736-4.677,4.297-4.677c0.678,0,1.703,0.198,2.412,0.479V150.261z M170.908,143.931
		c-0.594-0.165-1.023-0.215-1.438-0.215c-2.098,0-3.09,1.769-3.09,3.834c0,1.834,0.693,3.272,2.314,3.272
		c0.826,0,1.668-0.413,2.213-0.991V143.931z"/>
	<path fill="#333333" d="M180.381,147.683h-5.535c0.064,1.9,0.957,3.338,3.023,3.338c0.744,0,1.438-0.099,2.049-0.248
		c0.033,0.083,0.066,0.248,0.066,0.347c0,0.165-0.033,0.313-0.082,0.43c-0.645,0.198-1.455,0.313-2.133,0.313
		c-1.305,0-2.297-0.413-2.908-1.074c-0.727-0.793-1.107-1.983-1.107-3.355c0-2.396,1.207-4.511,3.619-4.511
		c2.166,0,3.025,1.785,3.025,3.966C180.398,147.137,180.398,147.435,180.381,147.683z M179.324,146.889c0-1.52-0.166-3.156-2-3.156
		c-1.604,0-2.381,1.471-2.479,3.156H179.324z"/>
	<path fill="#333333" d="M195.852,144.791l-2.213,6.908c-0.133,0.05-0.381,0.083-0.514,0.083c-0.148,0-0.396-0.033-0.512-0.083
		l-1.982-6.676h-0.033l-2.082,6.676c-0.148,0.05-0.381,0.083-0.514,0.083c-0.131,0-0.346-0.033-0.494-0.083l-2.051-6.809
		c-0.182-0.562-0.264-1.206-0.279-1.817c0.131-0.033,0.396-0.066,0.561-0.066c0.182,0,0.348,0.033,0.496,0.083
		c0.018,0.595,0.115,1.223,0.266,1.769l1.502,5.371h0.018l2.148-7.155c0.115-0.033,0.348-0.05,0.463-0.05s0.363,0.017,0.463,0.05
		l2.031,7.155h0.018l1.652-5.354c0.182-0.612,0.314-1.19,0.348-1.785c0.115-0.049,0.396-0.083,0.545-0.083s0.379,0.033,0.479,0.083
		C196.166,143.65,196.033,144.212,195.852,144.791z"/>
	<path fill="#333333" d="M200.748,151.863c-2.164,0-3.553-1.487-3.553-4.461c0-2.975,1.404-4.479,3.57-4.479
		c2.164,0,3.535,1.471,3.535,4.445S202.914,151.863,200.748,151.863z M200.766,143.733c-1.586,0-2.445,1.223-2.445,3.652
		s0.842,3.668,2.428,3.668c1.588,0,2.43-1.239,2.43-3.668S202.352,143.733,200.766,143.733z"/>
	<path fill="#333333" d="M209.922,143.882c-0.957,0.132-1.998,0.479-2.775,1.074v6.742c-0.166,0.05-0.363,0.083-0.545,0.083
		s-0.363-0.033-0.529-0.083v-8.61c0.1-0.033,0.248-0.066,0.414-0.066c0.131,0,0.312,0.033,0.445,0.066l0.082,1.058h0.018
		c0.711-0.611,1.949-1.124,2.891-1.223c0.033,0.099,0.066,0.281,0.066,0.43C209.988,143.518,209.955,143.733,209.922,143.882z"/>
	<path fill="#333333" d="M216.336,151.615c-0.43,0.149-1.074,0.248-1.553,0.248c-1.637,0-2.412-0.776-2.412-2.611v-5.321h-1.488
		c-0.033-0.083-0.049-0.281-0.049-0.38c0-0.083,0.016-0.281,0.049-0.364l1.488-0.099v-2.247c0.131-0.05,0.346-0.083,0.527-0.083
		s0.414,0.033,0.547,0.083v2.247h2.428c0.033,0.083,0.066,0.331,0.066,0.414c0,0.115-0.033,0.314-0.066,0.429h-2.428v5.222
		c0,1.306,0.379,1.851,1.404,1.851c0.561,0,1.107-0.083,1.486-0.198c0.033,0.083,0.066,0.281,0.066,0.396
		C216.402,151.352,216.387,151.467,216.336,151.615z"/>
	<path fill="#333333" d="M224.551,151.698c-0.148,0.05-0.33,0.083-0.494,0.083c-0.199,0-0.414-0.033-0.578-0.083v-5.222
		c0-1.817-0.463-2.644-2-2.644c-0.826,0-1.818,0.463-2.463,0.958v6.908c-0.182,0.05-0.381,0.083-0.562,0.083
		c-0.164,0-0.363-0.033-0.512-0.083v-12.063c0.148-0.049,0.381-0.083,0.529-0.083s0.396,0.033,0.545,0.083v4.247
		c0.875-0.678,1.918-0.958,2.727-0.958c0.844,0,1.703,0.281,2.182,0.859c0.529,0.628,0.627,1.537,0.627,2.429V151.698z"/>
	<path fill="#333333" d="M236.736,148.426c0,2.512-1.041,3.437-3.223,3.437c-2.232,0-3.174-0.925-3.174-3.354v-5.42
		c0.148-0.049,0.348-0.083,0.529-0.083c0.23,0,0.412,0.05,0.545,0.083v5.288c0,1.603,0.248,2.661,2.115,2.661
		c1.752,0,2.133-1.024,2.133-2.693v-5.255c0.131-0.049,0.363-0.083,0.545-0.083s0.379,0.033,0.529,0.083V148.426z"/>
	<path fill="#333333" d="M244.391,150.806c-0.645,0.578-1.652,0.893-2.611,0.893c-0.678,0-1.307-0.115-1.768-0.281v4.165
		c-0.166,0.049-0.314,0.082-0.547,0.082c-0.182,0-0.396-0.033-0.527-0.082v-12.494c0.082-0.033,0.279-0.066,0.445-0.066
		s0.314,0.033,0.43,0.066l0.1,0.909h0.016c0.629-0.661,1.57-1.074,2.529-1.074c1.041,0,1.967,0.446,2.545,1.272
		c0.479,0.694,0.775,1.686,0.775,2.892C245.777,148.74,245.266,150.013,244.391,150.806z M242.342,143.799
		c-0.877,0-1.752,0.363-2.33,1.09v5.685c0.43,0.198,1.09,0.314,1.652,0.314c1.783,0,2.99-1.173,2.99-3.751
		C244.654,145.104,243.861,143.799,242.342,143.799z"/>
	<path fill="#333333" d="M255.764,151.615c-0.43,0.149-1.074,0.248-1.555,0.248c-1.635,0-2.412-0.776-2.412-2.611v-5.321h-1.486
		c-0.033-0.083-0.051-0.281-0.051-0.38c0-0.083,0.018-0.281,0.051-0.364l1.486-0.099v-2.247c0.133-0.05,0.348-0.083,0.529-0.083
		s0.412,0.033,0.545,0.083v2.247h2.43c0.033,0.083,0.066,0.331,0.066,0.414c0,0.115-0.033,0.314-0.066,0.429h-2.43v5.222
		c0,1.306,0.381,1.851,1.404,1.851c0.562,0,1.107-0.083,1.488-0.198c0.033,0.083,0.066,0.281,0.066,0.396
		C255.83,151.352,255.812,151.467,255.764,151.615z"/>
	<path fill="#333333" d="M260.029,151.863c-2.166,0-3.553-1.487-3.553-4.461c0-2.975,1.404-4.479,3.568-4.479
		c2.166,0,3.537,1.471,3.537,4.445S262.193,151.863,260.029,151.863z M260.045,143.733c-1.586,0-2.445,1.223-2.445,3.652
		s0.844,3.668,2.43,3.668s2.43-1.239,2.43-3.668S261.633,143.733,260.045,143.733z"/>
</g>
<g>
	<path fill="#AB9245" d="M23.5,187.293H8.172c-0.176-0.387-0.352-1.301-0.352-1.969c0-0.492,0.07-1.195,0.141-1.688
		c2.004-0.738,2.777-1.969,2.777-4.289v-2.707H8.137c-0.105-0.633-0.211-1.512-0.211-1.969c0-0.633,0.07-1.371,0.211-1.969h2.602
		v-1.793c0-4.746,2.777-7.734,7.875-7.734c1.863,0,3.832,0.387,4.957,0.844c0.105,0.352,0.176,1.23,0.176,1.617
		c0,0.633-0.105,1.617-0.246,2.32c-1.09-0.422-2.848-0.738-4.324-0.738c-2.426,0-3.41,1.195-3.41,3.727v1.758h5.203
		c0.141,0.598,0.211,1.336,0.211,1.969c0,0.457-0.07,1.371-0.211,1.969h-5.203v2.531c0,1.652-0.598,3.094-2.145,4.113v0.035h9.844
		c0.141,0.492,0.211,1.406,0.211,2.039C23.676,185.922,23.605,186.73,23.5,187.293z"/>
	<path fill="#AB9245" d="M38.371,187.293c-0.527,0.105-1.477,0.176-2.496,0.176c-0.984,0-1.863-0.07-2.496-0.176v-18.176
		l-4.992,3.305c-1.195-1.09-2.039-2.566-2.355-3.832l8.262-5.062c0.492-0.105,1.512-0.176,2.039-0.176
		c0.598,0,1.688,0.105,2.039,0.176V187.293z"/>
	<path fill="#AB9245" d="M52.116,187.645c-5.625,0-8.367-4.148-8.367-12.234c0-8.156,2.848-12.234,8.473-12.234
		c5.59,0,8.332,4.078,8.332,12.234C60.553,183.496,57.706,187.645,52.116,187.645z M52.151,167.289c-2.25,0-3.234,2.074-3.234,8.121
		c0,5.941,0.984,8.121,3.234,8.121s3.234-2.18,3.234-8.121C55.385,169.363,54.401,167.289,52.151,167.289z"/>
	<path fill="#AB9245" d="M70.361,187.645c-5.625,0-8.367-4.148-8.367-12.234c0-8.156,2.848-12.234,8.473-12.234
		c5.59,0,8.332,4.078,8.332,12.234C78.799,183.496,75.951,187.645,70.361,187.645z M70.396,167.289c-2.25,0-3.234,2.074-3.234,8.121
		c0,5.941,0.984,8.121,3.234,8.121s3.234-2.18,3.234-8.121C73.631,169.363,72.646,167.289,70.396,167.289z"/>
	<path fill="#AB9245" d="M97.537,187.293c-0.598,0.105-1.828,0.176-2.637,0.176c-0.703,0-2.145-0.07-2.672-0.176l-4.676-7.875
		l-1.512,1.441v6.434c-0.633,0.141-1.934,0.176-2.496,0.176c-0.844,0-1.758-0.07-2.355-0.176v-25.629
		c0.773-0.105,1.723-0.176,2.355-0.176c0.844,0,1.723,0.07,2.496,0.176v14.062l3.762-3.656c1.02-1.02,1.723-2.18,1.863-3.094
		c0.598-0.105,1.723-0.176,2.355-0.176c0.738,0,1.758,0.07,2.25,0.176c-0.141,1.828-1.055,3.48-3.059,5.484l-2.391,2.32
		L97.537,187.293z"/>
	<path fill="#AB9245" d="M114.165,187.293c-1.09,0-2.566-0.176-3.445-0.422v8.684c-0.633,0.105-1.688,0.176-2.461,0.176
		c-0.949,0-1.688-0.105-2.391-0.176v-26.543c0.562-0.105,1.512-0.176,2.25-0.176c0.668,0,1.406,0.07,1.898,0.176l0.176,1.512
		c1.125-1.055,3.164-1.898,5.062-1.898c5.027,0,7.277,4.113,7.277,8.824C122.532,182.898,119.719,187.293,114.165,187.293z
		 M114.235,172.562c-1.301,0-2.672,0.527-3.516,1.301v9.316c0.668,0.211,1.969,0.352,2.883,0.352c2.602,0,3.938-2.145,3.938-5.695
		C117.54,174.355,116.274,172.562,114.235,172.562z"/>
	<path fill="#AB9245" d="M140.004,179.84h-11.109c0.07,2.285,1.652,3.973,4.711,3.973c1.652,0,3.34-0.211,4.781-0.598
		c0.211,0.949,0.352,2.004,0.352,2.953c0,0.141,0,0.316-0.035,0.703c-1.793,0.527-3.656,0.773-5.484,0.773
		c-6.68,0-9.457-3.832-9.457-9.422c0-4.887,2.742-9.598,8.684-9.598c5.625,0,7.664,4.148,7.664,8.719
		C140.109,177.977,140.109,178.926,140.004,179.84z M135.258,176.359c0-2.215-0.598-4.078-2.883-4.078
		c-2.18,0-3.34,1.723-3.48,4.078H135.258z"/>
	<path fill="#AB9245" d="M152.801,172.703c-1.829,0.281-3.797,0.914-5.555,1.828v12.762c-0.492,0.105-1.547,0.176-2.391,0.176
		s-2.074-0.07-2.461-0.176v-18.316c0.527-0.07,1.406-0.176,2.109-0.176c0.598,0,1.547,0.07,2.039,0.176l0.281,2.25
		c1.301-1.16,3.656-2.426,5.942-2.602c0.07,0.281,0.141,1.301,0.141,2.039C152.906,171.367,152.871,172.211,152.801,172.703z"/>
	<path fill="#AB9245" d="M167.494,187.645c-2.074,0-4.254-0.316-5.941-0.879c-0.105-0.527-0.141-1.195-0.141-1.898
		c0-0.562,0.141-1.371,0.281-1.863c1.617,0.562,3.938,0.949,5.309,0.949c1.898,0,2.988-0.633,2.988-1.934
		c0-1.125-0.879-1.652-3.199-2.391c-3.691-1.16-5.414-2.883-5.414-5.555c0-3.973,3.656-5.449,7.137-5.449
		c1.617,0,3.41,0.281,4.641,0.668c0.141,0.527,0.211,1.266,0.211,1.688c0,0.457-0.141,1.406-0.316,2.004
		c-1.195-0.352-2.848-0.633-4.219-0.633c-1.688,0-2.848,0.422-2.848,1.477c0,1.125,1.301,1.582,3.34,2.25
		c3.551,1.16,5.238,2.637,5.238,5.414C174.561,185.781,171.115,187.645,167.494,187.645z"/>
	<path fill="#AB9245" d="M187.955,186.941c-1.055,0.422-2.32,0.703-4.359,0.703c-3.973,0-5.941-1.934-5.941-5.801v-9.246h-3.023
		c-0.141-0.527-0.246-1.406-0.246-1.863c0-0.422,0.105-1.195,0.211-1.547l3.059-0.211v-4.711c0.387-0.07,1.617-0.141,2.426-0.141
		c0.879,0,1.969,0.07,2.426,0.141v4.711h5.062c0.141,0.492,0.211,1.195,0.211,1.582c0,0.422-0.035,1.547-0.176,2.039h-5.098v8.543
		c0,1.758,0.703,2.531,2.426,2.531c0.949,0,2.109-0.141,2.918-0.422c0.141,0.457,0.316,1.336,0.316,2.145
		C188.166,185.816,188.096,186.555,187.955,186.941z"/>
	<path fill="#AB9245" d="M205.604,180.227c0,5.238-2.461,7.418-7.945,7.418c-5.344,0-7.805-2.18-7.805-7.418v-11.25
		c0.492-0.07,1.441-0.176,2.391-0.176c0.844,0,1.898,0.07,2.461,0.176v11.215c0,2.742,0.809,3.727,3.023,3.727
		c2.25,0,3.023-0.984,3.023-3.727v-11.215c0.492-0.105,1.582-0.176,2.461-0.176s2.039,0.105,2.391,0.176V180.227z"/>
	<path fill="#AB9245" d="M224.41,187.293c-0.562,0.105-1.512,0.176-2.25,0.176c-0.668,0-1.441-0.07-1.934-0.176l-0.141-1.617
		c-1.266,1.23-2.883,1.969-4.781,1.969c-5.238,0-7.488-4.184-7.488-9.211c0-5.414,2.426-9.809,8.016-9.809
		c1.371,0,2.953,0.422,3.727,0.914v-7.875c0.633-0.105,1.688-0.176,2.461-0.176c0.949,0,1.688,0.105,2.391,0.176V187.293z
		 M219.559,173.16c-0.844-0.387-1.934-0.598-2.848-0.598c-2.848,0-3.902,2.531-3.902,5.59c0,2.566,0.633,5.484,3.48,5.484
		c1.371,0,2.426-0.562,3.27-1.266V173.16z"/>
	<path fill="#AB9245" d="M242.832,179.84h-11.109c0.07,2.285,1.652,3.973,4.711,3.973c1.652,0,3.34-0.211,4.781-0.598
		c0.211,0.949,0.352,2.004,0.352,2.953c0,0.141,0,0.316-0.035,0.703c-1.793,0.527-3.656,0.773-5.484,0.773
		c-6.68,0-9.457-3.832-9.457-9.422c0-4.887,2.742-9.598,8.684-9.598c5.625,0,7.664,4.148,7.664,8.719
		C242.938,177.977,242.938,178.926,242.832,179.84z M238.086,176.359c0-2.215-0.598-4.078-2.883-4.078
		c-2.18,0-3.34,1.723-3.48,4.078H238.086z"/>
	<path fill="#AB9245" d="M261.324,187.293c-0.562,0.141-1.758,0.176-2.32,0.176c-0.598,0-1.969-0.07-2.531-0.176V175.27
		c0-1.898-0.984-2.707-2.566-2.707c-1.266,0-2.707,0.457-3.832,1.16v13.57c-0.809,0.141-1.934,0.176-2.566,0.176
		c-0.562,0-1.582-0.035-2.285-0.176v-18.316c0.457-0.105,1.582-0.176,2.109-0.176c0.492,0,1.512,0.07,2.039,0.176l0.246,1.617
		c1.582-1.16,3.867-1.969,5.906-1.969c3.867,0,5.801,2.391,5.801,6.398V187.293z"/>
	<path fill="#AB9245" d="M276.195,186.941c-1.055,0.422-2.32,0.703-4.359,0.703c-3.973,0-5.941-1.934-5.941-5.801v-9.246h-3.023
		c-0.141-0.527-0.246-1.406-0.246-1.863c0-0.422,0.105-1.195,0.211-1.547l3.059-0.211v-4.711c0.387-0.07,1.617-0.141,2.426-0.141
		c0.879,0,1.969,0.07,2.426,0.141v4.711h5.062c0.141,0.492,0.211,1.195,0.211,1.582c0,0.422-0.035,1.547-0.176,2.039h-5.098v8.543
		c0,1.758,0.703,2.531,2.426,2.531c0.949,0,2.109-0.141,2.918-0.422c0.141,0.457,0.316,1.336,0.316,2.145
		C276.406,185.816,276.336,186.555,276.195,186.941z"/>
</g>
</svg>
