<?xml version="1.0" encoding="utf-8"?>
<!-- Generator: Adobe Illustrator 16.0.0, SVG Export Plug-In . SVG Version: 6.00 Build 0)  -->
<!DOCTYPE svg PUBLIC "-//W3C//DTD SVG 1.1//EN" "http://www.w3.org/Graphics/SVG/1.1/DTD/svg11.dtd">
<svg version="1.1" id="Layer_1" xmlns="http://www.w3.org/2000/svg" xmlns:xlink="http://www.w3.org/1999/xlink" x="0px" y="0px"
	 width="300px" height="300px" viewBox="0 0 300 300" enable-background="new 0 0 300 300" xml:space="preserve">
<g>
	<path fill="#333333" d="M12.026,91.872c-0.147,0.055-0.422,0.092-0.624,0.092c-0.202,0-0.478-0.037-0.624-0.092V79.463
		c0.146-0.055,0.422-0.092,0.624-0.092c0.202,0,0.477,0.037,0.624,0.092V91.872z"/>
	<path fill="#333333" d="M22.58,91.89c-0.147,0.037-0.367,0.073-0.587,0.073c-0.184,0-0.422-0.037-0.606-0.092v-5.819
		c0-0.881-0.11-1.561-0.367-2.038c-0.312-0.587-0.899-0.881-1.854-0.881c-0.917,0-2.019,0.514-2.735,1.065v7.673
		c-0.202,0.055-0.404,0.092-0.624,0.092c-0.184,0-0.404-0.037-0.569-0.092v-9.563c0.129-0.055,0.349-0.074,0.478-0.074
		c0.184,0,0.404,0.019,0.514,0.074l0.092,0.955h0.019c1.01-0.826,2.166-1.138,3.102-1.138c0.937,0,1.909,0.312,2.441,0.955
		c0.587,0.697,0.698,1.707,0.698,2.698V91.89z"/>
	<path fill="#333333" d="M35.847,90.88c-0.716,0.643-1.835,0.991-2.9,0.991c-0.753,0-1.45-0.128-1.964-0.312v4.626
		c-0.184,0.055-0.349,0.092-0.606,0.092c-0.202,0-0.44-0.037-0.587-0.092V82.308c0.092-0.037,0.312-0.074,0.496-0.074
		s0.349,0.037,0.478,0.074l0.11,1.009h0.019c0.698-0.734,1.744-1.193,2.809-1.193c1.156,0,2.184,0.496,2.827,1.413
		c0.532,0.771,0.863,1.873,0.863,3.212C37.389,88.586,36.82,89.999,35.847,90.88z M33.571,83.097c-0.973,0-1.946,0.404-2.588,1.211
		v6.315c0.477,0.22,1.211,0.349,1.835,0.349c1.982,0,3.323-1.303,3.323-4.167C36.141,84.547,35.26,83.097,33.571,83.097z"/>
	<path fill="#333333" d="M46.253,89.522c0,0.661,0,1.487,0.037,2.35c-0.128,0.055-0.331,0.092-0.496,0.092
		c-0.147,0-0.349-0.037-0.496-0.092c-0.055-0.293-0.092-0.679-0.11-1.028H45.17c-0.624,0.771-1.726,1.211-2.809,1.211
		c-1.707,0-3.139-0.955-3.139-2.918c0-1.12,0.459-1.946,1.175-2.46c0.808-0.569,1.873-0.752,3.011-0.752
		c0.642,0,1.175,0.037,1.652,0.11v-0.532c0-1.835-0.752-2.441-2.294-2.441c-0.863,0-1.927,0.184-2.588,0.349
		c-0.037-0.092-0.073-0.293-0.073-0.477c0-0.128,0.037-0.312,0.092-0.422c0.789-0.239,1.835-0.385,2.717-0.385
		c2.184,0,3.341,0.991,3.341,3.23V89.522z M45.06,86.934c-0.532-0.073-1.083-0.11-1.56-0.11c-0.899,0-1.708,0.165-2.258,0.587
		c-0.496,0.367-0.771,0.955-0.771,1.707c0,1.34,0.863,1.982,2.056,1.982c0.991,0,2.038-0.477,2.533-1.23V86.934z"/>
	<path fill="#333333" d="M53.428,83.189c-1.065,0.147-2.221,0.532-3.084,1.193v7.489c-0.184,0.055-0.404,0.092-0.606,0.092
		c-0.202,0-0.404-0.037-0.587-0.092v-9.563c0.11-0.037,0.275-0.074,0.459-0.074c0.147,0,0.349,0.037,0.496,0.074l0.092,1.175h0.019
		c0.789-0.679,2.166-1.249,3.212-1.358c0.037,0.11,0.073,0.312,0.073,0.477C53.501,82.785,53.464,83.024,53.428,83.189z"/>
	<path fill="#333333" d="M60.916,91.78c-0.478,0.165-1.193,0.275-1.726,0.275c-1.817,0-2.68-0.863-2.68-2.9v-5.911h-1.652
		c-0.037-0.092-0.055-0.312-0.055-0.422c0-0.092,0.019-0.312,0.055-0.404l1.652-0.11v-2.497c0.147-0.055,0.386-0.092,0.587-0.092
		c0.202,0,0.459,0.037,0.606,0.092v2.497h2.698c0.037,0.092,0.074,0.367,0.074,0.458c0,0.129-0.037,0.349-0.074,0.478h-2.698v5.801
		c0,1.45,0.422,2.056,1.56,2.056c0.625,0,1.23-0.092,1.652-0.22c0.037,0.092,0.073,0.312,0.073,0.44
		C60.989,91.486,60.971,91.615,60.916,91.78z"/>
	<path fill="#333333" d="M70.404,91.89c-0.147,0.037-0.367,0.073-0.587,0.073c-0.184,0-0.422-0.037-0.606-0.092v-5.819
		c0-0.881-0.11-1.561-0.367-2.038c-0.312-0.587-0.899-0.881-1.854-0.881c-0.917,0-2.019,0.514-2.735,1.065v7.673
		c-0.202,0.055-0.404,0.092-0.624,0.092c-0.184,0-0.404-0.037-0.569-0.092v-9.563c0.129-0.055,0.349-0.074,0.478-0.074
		c0.184,0,0.404,0.019,0.514,0.074l0.092,0.955h0.019c1.01-0.826,2.166-1.138,3.102-1.138c0.937,0,1.909,0.312,2.441,0.955
		c0.587,0.697,0.698,1.707,0.698,2.698V91.89z"/>
	<path fill="#333333" d="M80.038,87.411h-6.149c0.074,2.111,1.065,3.708,3.359,3.708c0.826,0,1.597-0.11,2.276-0.275
		c0.037,0.092,0.073,0.275,0.073,0.385c0,0.184-0.037,0.349-0.092,0.478c-0.716,0.22-1.615,0.349-2.368,0.349
		c-1.45,0-2.551-0.459-3.23-1.193c-0.808-0.881-1.23-2.203-1.23-3.726c0-2.662,1.34-5.011,4.02-5.011
		c2.405,0,3.359,1.982,3.359,4.405C80.057,86.805,80.057,87.136,80.038,87.411z M78.863,86.53c0-1.688-0.184-3.506-2.221-3.506
		c-1.78,0-2.643,1.634-2.753,3.506H78.863z"/>
	<path fill="#333333" d="M86.699,83.189c-1.065,0.147-2.221,0.532-3.084,1.193v7.489c-0.184,0.055-0.404,0.092-0.606,0.092
		c-0.202,0-0.404-0.037-0.587-0.092v-9.563c0.11-0.037,0.275-0.074,0.459-0.074c0.147,0,0.349,0.037,0.496,0.074l0.092,1.175h0.019
		c0.789-0.679,2.166-1.249,3.212-1.358c0.037,0.11,0.073,0.312,0.073,0.477C86.772,82.785,86.736,83.024,86.699,83.189z"/>
	<path fill="#333333" d="M91.048,92.055c-0.917,0-1.872-0.165-2.533-0.422c-0.055-0.128-0.092-0.349-0.092-0.514
		c0-0.11,0.037-0.386,0.074-0.496c0.679,0.275,1.652,0.496,2.459,0.496c1.395,0,2.258-0.587,2.258-1.744
		c0-1.046-0.532-1.413-1.982-1.946c-2.019-0.734-2.68-1.579-2.68-2.827c0-1.689,1.395-2.478,3.194-2.478
		c0.605,0,1.395,0.11,1.854,0.257c0.055,0.165,0.073,0.331,0.073,0.44c0,0.147-0.037,0.404-0.073,0.533
		c-0.606-0.184-1.249-0.294-1.873-0.294c-1.303,0-2.092,0.496-2.092,1.505c0,0.881,0.496,1.303,2,1.872
		c1.377,0.514,2.644,1.028,2.644,2.882C94.279,91.192,92.865,92.055,91.048,92.055z"/>
	<path fill="#333333" d="M103.914,91.872c-0.165,0.055-0.367,0.092-0.551,0.092c-0.22,0-0.459-0.037-0.643-0.092v-5.801
		c0-2.019-0.514-2.937-2.221-2.937c-0.917,0-2.019,0.514-2.735,1.065v7.673c-0.202,0.055-0.422,0.092-0.624,0.092
		c-0.184,0-0.404-0.037-0.569-0.092v-13.4c0.166-0.055,0.422-0.092,0.587-0.092c0.166,0,0.441,0.037,0.606,0.092v4.717
		c0.973-0.752,2.129-1.064,3.029-1.064c0.936,0,1.891,0.312,2.423,0.955c0.587,0.697,0.698,1.707,0.698,2.698V91.872z"/>
	<path fill="#333333" d="M107.381,80.436c-0.422,0-0.771-0.367-0.771-0.808s0.349-0.79,0.771-0.79c0.422,0,0.789,0.349,0.789,0.79
		S107.803,80.436,107.381,80.436z M107.986,91.872c-0.165,0.055-0.404,0.092-0.605,0.092c-0.202,0-0.422-0.037-0.587-0.092v-9.563
		c0.147-0.037,0.385-0.092,0.569-0.092c0.202,0,0.478,0.037,0.624,0.092V91.872z"/>
	<path fill="#333333" d="M116.961,90.88c-0.716,0.643-1.835,0.991-2.9,0.991c-0.753,0-1.45-0.128-1.964-0.312v4.626
		c-0.184,0.055-0.349,0.092-0.606,0.092c-0.202,0-0.44-0.037-0.587-0.092V82.308c0.092-0.037,0.312-0.074,0.496-0.074
		s0.349,0.037,0.478,0.074l0.11,1.009h0.019c0.698-0.734,1.744-1.193,2.809-1.193c1.156,0,2.184,0.496,2.827,1.413
		c0.532,0.771,0.863,1.873,0.863,3.212C118.503,88.586,117.935,89.999,116.961,90.88z M114.686,83.097
		c-0.973,0-1.946,0.404-2.588,1.211v6.315c0.477,0.22,1.211,0.349,1.835,0.349c1.982,0,3.323-1.303,3.323-4.167
		C117.255,84.547,116.374,83.097,114.686,83.097z"/>
	<path fill="#333333" d="M136.36,84.199l-2.459,7.673c-0.147,0.055-0.422,0.092-0.569,0.092c-0.165,0-0.44-0.037-0.569-0.092
		l-2.203-7.416h-0.037l-2.312,7.416c-0.166,0.055-0.422,0.092-0.569,0.092s-0.385-0.037-0.551-0.092l-2.276-7.563
		c-0.202-0.624-0.294-1.34-0.312-2.019c0.146-0.037,0.44-0.073,0.624-0.073c0.202,0,0.385,0.037,0.551,0.092
		c0.018,0.661,0.128,1.358,0.293,1.964l1.67,5.966h0.019l2.386-7.948c0.128-0.037,0.385-0.055,0.514-0.055
		c0.128,0,0.404,0.019,0.514,0.055l2.258,7.948h0.019l1.835-5.947c0.202-0.679,0.349-1.322,0.386-1.982
		c0.128-0.055,0.44-0.092,0.605-0.092c0.166,0,0.422,0.037,0.532,0.092C136.709,82.932,136.562,83.556,136.36,84.199z"/>
	<path fill="#333333" d="M139.496,80.436c-0.422,0-0.771-0.367-0.771-0.808s0.349-0.79,0.771-0.79c0.422,0,0.789,0.349,0.789,0.79
		S139.918,80.436,139.496,80.436z M140.102,91.872c-0.165,0.055-0.404,0.092-0.605,0.092c-0.202,0-0.422-0.037-0.587-0.092v-9.563
		c0.147-0.037,0.385-0.092,0.569-0.092c0.202,0,0.478,0.037,0.624,0.092V91.872z"/>
	<path fill="#333333" d="M148.104,91.78c-0.478,0.165-1.193,0.275-1.726,0.275c-1.817,0-2.68-0.863-2.68-2.9v-5.911h-1.652
		c-0.037-0.092-0.055-0.312-0.055-0.422c0-0.092,0.019-0.312,0.055-0.404l1.652-0.11v-2.497c0.147-0.055,0.386-0.092,0.587-0.092
		c0.202,0,0.459,0.037,0.606,0.092v2.497h2.698c0.037,0.092,0.074,0.367,0.074,0.458c0,0.129-0.037,0.349-0.074,0.478h-2.698v5.801
		c0,1.45,0.422,2.056,1.56,2.056c0.625,0,1.23-0.092,1.652-0.22c0.037,0.092,0.073,0.312,0.073,0.44
		C148.178,91.486,148.16,91.615,148.104,91.78z"/>
	<path fill="#333333" d="M157.593,91.872c-0.165,0.055-0.367,0.092-0.551,0.092c-0.221,0-0.459-0.037-0.643-0.092v-5.801
		c0-2.019-0.514-2.937-2.221-2.937c-0.918,0-2.02,0.514-2.735,1.065v7.673c-0.202,0.055-0.422,0.092-0.624,0.092
		c-0.184,0-0.404-0.037-0.569-0.092v-13.4c0.166-0.055,0.422-0.092,0.587-0.092c0.166,0,0.441,0.037,0.606,0.092v4.717
		c0.973-0.752,2.129-1.064,3.028-1.064c0.937,0,1.892,0.312,2.424,0.955c0.587,0.697,0.697,1.707,0.697,2.698V91.872z"/>
	<path fill="#333333" d="M168.364,91.963c-1.23,0-2.239-0.037-3.249-0.092V79.463c0.734-0.037,1.707-0.092,2.643-0.092
		c2.809,0,4.186,0.789,4.186,3.065c0,1.376-0.697,2.386-1.836,2.753c1.726,0.202,2.827,1.395,2.827,3.157
		C172.935,90.88,170.971,91.963,168.364,91.963z M167.758,80.271c-0.312,0-0.917,0.018-1.395,0.055v4.552h1.432
		c1.597,0,2.938-0.349,2.938-2.423C170.732,80.583,169.318,80.271,167.758,80.271z M170.641,86.273
		c-0.588-0.367-1.23-0.478-2.148-0.478h-2.129v5.195c0.569,0.055,1.156,0.074,1.854,0.074c2.111,0,3.396-0.808,3.396-2.698
		C171.613,87.411,171.282,86.677,170.641,86.273z"/>
	<path fill="#333333" d="M182.661,80.417h-3.616v11.455c-0.146,0.055-0.422,0.092-0.624,0.092s-0.478-0.037-0.624-0.092V80.417
		h-3.616c-0.056-0.11-0.092-0.312-0.092-0.477c0-0.147,0.036-0.349,0.092-0.477h8.48c0.055,0.128,0.092,0.33,0.092,0.477
		C182.753,80.105,182.716,80.307,182.661,80.417z"/>
</g>
<g>
	<path fill="#333333" d="M16.964,110.774c0,0.661,0,1.487,0.037,2.35c-0.128,0.055-0.331,0.092-0.496,0.092
		c-0.147,0-0.349-0.037-0.496-0.092c-0.055-0.293-0.092-0.679-0.11-1.028h-0.018c-0.624,0.771-1.726,1.211-2.809,1.211
		c-1.707,0-3.139-0.955-3.139-2.918c0-1.12,0.459-1.946,1.175-2.46c0.808-0.569,1.873-0.752,3.011-0.752
		c0.642,0,1.175,0.037,1.652,0.11v-0.532c0-1.835-0.752-2.441-2.294-2.441c-0.863,0-1.927,0.184-2.588,0.349
		c-0.037-0.092-0.073-0.293-0.073-0.477c0-0.128,0.037-0.312,0.092-0.422c0.789-0.239,1.835-0.385,2.717-0.385
		c2.184,0,3.341,0.991,3.341,3.23V110.774z M15.771,108.186c-0.532-0.073-1.083-0.11-1.56-0.11c-0.899,0-1.708,0.165-2.258,0.587
		c-0.496,0.367-0.771,0.955-0.771,1.707c0,1.34,0.863,1.982,2.056,1.982c0.991,0,2.038-0.477,2.533-1.23V108.186z"/>
	<path fill="#333333" d="M27.204,113.142c-0.147,0.037-0.367,0.073-0.587,0.073c-0.184,0-0.422-0.037-0.606-0.092v-5.819
		c0-0.881-0.11-1.561-0.367-2.038c-0.312-0.587-0.899-0.881-1.854-0.881c-0.917,0-2.019,0.514-2.735,1.065v7.673
		c-0.202,0.055-0.404,0.092-0.624,0.092c-0.184,0-0.404-0.037-0.569-0.092v-9.563c0.129-0.055,0.349-0.074,0.478-0.074
		c0.184,0,0.404,0.019,0.514,0.074l0.092,0.955h0.019c1.01-0.826,2.166-1.138,3.102-1.138c0.937,0,1.909,0.312,2.441,0.955
		c0.587,0.697,0.698,1.707,0.698,2.698V113.142z"/>
	<path fill="#333333" d="M36.6,113.215c-0.166,0-0.367-0.055-0.478-0.092l-0.11-1.102h-0.019c-0.79,0.826-1.726,1.285-2.772,1.285
		c-2.533,0-3.745-2.111-3.745-4.681c0-2.552,1.083-5.25,4.002-5.25c0.917,0,1.762,0.312,2.441,0.789v-4.442
		c0.165-0.055,0.385-0.092,0.587-0.092c0.22,0,0.44,0.055,0.605,0.092v13.4C36.985,113.179,36.802,113.215,36.6,113.215z
		 M35.921,105.175c-0.661-0.551-1.505-0.826-2.368-0.826c-2.129,0-2.845,2.093-2.845,4.222c0,1.634,0.514,3.763,2.57,3.763
		c0.991,0,2.001-0.496,2.644-1.267V105.175z"/>
	<path fill="#333333" d="M47.94,113.215c-1.23,0-2.24-0.037-3.25-0.092v-12.409c0.734-0.037,1.708-0.092,2.644-0.092
		c2.809,0,4.185,0.789,4.185,3.065c0,1.376-0.697,2.386-1.835,2.753c1.726,0.202,2.827,1.395,2.827,3.157
		C52.511,112.132,50.547,113.215,47.94,113.215z M47.334,101.522c-0.312,0-0.918,0.018-1.395,0.055v4.552h1.432
		c1.597,0,2.937-0.349,2.937-2.423C50.308,101.834,48.895,101.522,47.334,101.522z M50.216,107.525
		c-0.587-0.367-1.23-0.478-2.147-0.478h-2.129v5.195c0.569,0.055,1.156,0.074,1.854,0.074c2.111,0,3.396-0.808,3.396-2.698
		C51.189,108.663,50.859,107.929,50.216,107.525z"/>
	<path fill="#333333" d="M62.237,101.669h-3.616v11.455c-0.147,0.055-0.422,0.092-0.624,0.092c-0.202,0-0.478-0.037-0.625-0.092
		v-11.455h-3.616c-0.055-0.11-0.092-0.312-0.092-0.477c0-0.147,0.037-0.349,0.092-0.477h8.481c0.055,0.128,0.092,0.33,0.092,0.477
		C62.329,101.357,62.292,101.559,62.237,101.669z"/>
	<path fill="#333333" d="M77.139,113.124c-0.092,0.037-0.33,0.073-0.496,0.073c-0.128,0-0.312-0.037-0.458-0.073l-7.012-10.408
		v10.408c-0.128,0.055-0.367,0.092-0.569,0.092c-0.184,0-0.404-0.037-0.551-0.092v-12.409c0.147-0.055,0.386-0.092,0.551-0.092
		c0.202,0,0.386,0.037,0.514,0.092l6.902,10.224v-10.224c0.184-0.055,0.386-0.092,0.569-0.092c0.165,0,0.385,0.037,0.55,0.092
		V113.124z"/>
	<path fill="#333333" d="M81.89,113.124c-0.147,0.055-0.422,0.092-0.624,0.092c-0.202,0-0.478-0.037-0.624-0.092v-12.409
		c0.146-0.055,0.422-0.092,0.624-0.092c0.202,0,0.477,0.037,0.624,0.092V113.124z"/>
	<path fill="#333333" d="M84.404,115.969c-0.11-0.092-0.257-0.312-0.312-0.459c0.752-0.605,1.321-1.285,1.505-2.038
		c-0.385-0.202-0.697-0.587-0.697-1.064c0-0.514,0.404-0.899,0.863-0.899c0.587,0,1.009,0.532,1.009,1.175
		C86.771,113.711,85.927,115.014,84.404,115.969z"/>
	<path fill="#333333" d="M104.795,105.451l-2.459,7.673c-0.147,0.055-0.422,0.092-0.569,0.092c-0.165,0-0.44-0.037-0.569-0.092
		l-2.203-7.416h-0.037l-2.312,7.416c-0.166,0.055-0.422,0.092-0.569,0.092s-0.385-0.037-0.551-0.092l-2.276-7.563
		c-0.202-0.624-0.294-1.34-0.312-2.019c0.146-0.037,0.44-0.073,0.624-0.073c0.202,0,0.385,0.037,0.551,0.092
		c0.018,0.661,0.128,1.358,0.293,1.964l1.67,5.966h0.019l2.386-7.948c0.128-0.037,0.385-0.055,0.514-0.055
		c0.128,0,0.404,0.019,0.514,0.055l2.258,7.948h0.019l1.835-5.947c0.202-0.679,0.349-1.322,0.386-1.982
		c0.128-0.055,0.44-0.092,0.605-0.092c0.166,0,0.422,0.037,0.532,0.092C105.144,104.184,104.997,104.808,104.795,105.451z"/>
	<path fill="#333333" d="M113.988,108.663h-6.149c0.074,2.111,1.065,3.708,3.359,3.708c0.826,0,1.597-0.11,2.276-0.275
		c0.037,0.092,0.073,0.275,0.073,0.385c0,0.184-0.037,0.349-0.092,0.478c-0.716,0.22-1.615,0.349-2.368,0.349
		c-1.45,0-2.551-0.459-3.23-1.193c-0.808-0.881-1.23-2.203-1.23-3.726c0-2.662,1.34-5.011,4.02-5.011
		c2.405,0,3.359,1.982,3.359,4.405C114.006,108.057,114.006,108.388,113.988,108.663z M112.813,107.782
		c0-1.688-0.184-3.506-2.221-3.506c-1.78,0-2.643,1.634-2.753,3.506H112.813z"/>
	<path fill="#333333" d="M122.906,113.307c-0.917,0-1.872-0.165-2.533-0.422c-0.055-0.128-0.092-0.349-0.092-0.514
		c0-0.11,0.037-0.386,0.074-0.496c0.679,0.275,1.652,0.496,2.459,0.496c1.395,0,2.258-0.587,2.258-1.744
		c0-1.046-0.532-1.413-1.982-1.946c-2.019-0.734-2.68-1.579-2.68-2.827c0-1.689,1.396-2.478,3.194-2.478
		c0.605,0,1.395,0.11,1.854,0.257c0.055,0.165,0.073,0.331,0.073,0.44c0,0.147-0.037,0.404-0.073,0.533
		c-0.606-0.184-1.249-0.294-1.873-0.294c-1.303,0-2.092,0.496-2.092,1.505c0,0.881,0.496,1.303,2,1.872
		c1.377,0.514,2.644,1.028,2.644,2.882C126.137,112.444,124.723,113.307,122.906,113.307z"/>
	<path fill="#333333" d="M135.257,108.663h-6.149c0.074,2.111,1.065,3.708,3.359,3.708c0.826,0,1.597-0.11,2.276-0.275
		c0.037,0.092,0.073,0.275,0.073,0.385c0,0.184-0.037,0.349-0.092,0.478c-0.716,0.22-1.615,0.349-2.368,0.349
		c-1.45,0-2.551-0.459-3.23-1.193c-0.808-0.881-1.23-2.203-1.23-3.726c0-2.662,1.34-5.011,4.02-5.011
		c2.405,0,3.359,1.982,3.359,4.405C135.276,108.057,135.276,108.388,135.257,108.663z M134.083,107.782
		c0-1.688-0.184-3.506-2.221-3.506c-1.78,0-2.643,1.634-2.753,3.506H134.083z"/>
	<path fill="#333333" d="M143.663,104.716c-0.587-0.239-1.358-0.385-2.038-0.385c-2.386,0-3.267,1.854-3.267,4.093
		c0,2.203,0.844,3.91,3.249,3.91c0.642,0,1.413-0.11,1.982-0.275c0.037,0.11,0.073,0.238,0.073,0.385
		c0,0.22-0.037,0.386-0.092,0.514c-0.532,0.22-1.395,0.349-2.074,0.349c-2.992,0-4.387-1.964-4.387-4.846
		c0-2.992,1.523-5.084,4.442-5.084c0.697,0,1.523,0.165,2.093,0.422c0.055,0.147,0.073,0.294,0.073,0.459
		C143.718,104.441,143.699,104.588,143.663,104.716z"/>
	<path fill="#333333" d="M153.041,109.489c0,2.791-1.157,3.818-3.58,3.818c-2.479,0-3.524-1.028-3.524-3.727v-6.021
		c0.165-0.055,0.385-0.092,0.587-0.092c0.257,0,0.458,0.055,0.605,0.092v5.874c0,1.78,0.275,2.955,2.35,2.955
		c1.946,0,2.368-1.138,2.368-2.992v-5.837c0.146-0.055,0.403-0.092,0.605-0.092s0.423,0.037,0.588,0.092V109.489z"/>
	<path fill="#333333" d="M160.124,104.441c-1.064,0.147-2.222,0.532-3.084,1.193v7.489c-0.184,0.055-0.404,0.092-0.605,0.092
		c-0.202,0-0.404-0.037-0.588-0.092v-9.563c0.11-0.037,0.275-0.074,0.459-0.074c0.146,0,0.349,0.037,0.496,0.074l0.092,1.175h0.018
		c0.79-0.679,2.166-1.249,3.213-1.358c0.036,0.11,0.073,0.312,0.073,0.477C160.197,104.037,160.16,104.276,160.124,104.441z"/>
	<path fill="#333333" d="M168.713,108.663h-6.149c0.073,2.111,1.064,3.708,3.358,3.708c0.826,0,1.598-0.11,2.276-0.275
		c0.037,0.092,0.073,0.275,0.073,0.385c0,0.184-0.036,0.349-0.091,0.478c-0.717,0.22-1.616,0.349-2.368,0.349
		c-1.45,0-2.552-0.459-3.231-1.193c-0.808-0.881-1.229-2.203-1.229-3.726c0-2.662,1.34-5.011,4.021-5.011
		c2.404,0,3.358,1.982,3.358,4.405C168.73,108.057,168.73,108.388,168.713,108.663z M167.538,107.782
		c0-1.688-0.184-3.506-2.222-3.506c-1.78,0-2.644,1.634-2.753,3.506H167.538z"/>
	<path fill="#333333" d="M177.687,113.215c-0.165,0-0.367-0.055-0.477-0.092l-0.11-1.102h-0.019
		c-0.789,0.826-1.726,1.285-2.771,1.285c-2.533,0-3.745-2.111-3.745-4.681c0-2.552,1.083-5.25,4.002-5.25
		c0.918,0,1.762,0.312,2.441,0.789v-4.442c0.165-0.055,0.386-0.092,0.587-0.092c0.221,0,0.44,0.055,0.606,0.092v13.4
		C178.072,113.179,177.889,113.215,177.687,113.215z M177.008,105.175c-0.661-0.551-1.506-0.826-2.368-0.826
		c-2.129,0-2.846,2.093-2.846,4.222c0,1.634,0.515,3.763,2.57,3.763c0.991,0,2.001-0.496,2.644-1.267V105.175z"/>
</g>
<g>
	<path fill="#333333" d="M15.514,134.283c-0.478,0.165-1.193,0.275-1.726,0.275c-1.817,0-2.68-0.863-2.68-2.9v-5.911H9.456
		c-0.037-0.092-0.055-0.312-0.055-0.422c0-0.092,0.019-0.312,0.055-0.404l1.652-0.11v-2.497c0.147-0.055,0.386-0.092,0.587-0.092
		c0.202,0,0.459,0.037,0.606,0.092v2.497H15c0.037,0.092,0.074,0.367,0.074,0.458c0,0.129-0.037,0.349-0.074,0.478h-2.698v5.801
		c0,1.45,0.422,2.056,1.56,2.056c0.625,0,1.23-0.092,1.652-0.22c0.037,0.092,0.073,0.312,0.073,0.44
		C15.587,133.989,15.569,134.118,15.514,134.283z"/>
	<path fill="#333333" d="M25.002,134.375c-0.165,0.055-0.367,0.092-0.551,0.092c-0.22,0-0.459-0.037-0.643-0.092v-5.801
		c0-2.019-0.514-2.937-2.221-2.937c-0.917,0-2.019,0.514-2.735,1.065v7.673c-0.202,0.055-0.422,0.092-0.624,0.092
		c-0.184,0-0.404-0.037-0.569-0.092v-13.4c0.166-0.055,0.422-0.092,0.587-0.092c0.166,0,0.441,0.037,0.606,0.092v4.717
		c0.973-0.752,2.129-1.064,3.029-1.064c0.936,0,1.891,0.312,2.423,0.955c0.587,0.697,0.698,1.707,0.698,2.698V134.375z"/>
	<path fill="#333333" d="M34.636,129.914h-6.149c0.074,2.111,1.065,3.708,3.359,3.708c0.826,0,1.597-0.11,2.276-0.275
		c0.037,0.092,0.073,0.275,0.073,0.385c0,0.184-0.037,0.349-0.092,0.478c-0.716,0.22-1.615,0.349-2.368,0.349
		c-1.45,0-2.551-0.459-3.23-1.193c-0.808-0.881-1.23-2.203-1.23-3.726c0-2.662,1.34-5.011,4.02-5.011
		c2.405,0,3.359,1.982,3.359,4.405C34.655,129.308,34.655,129.639,34.636,129.914z M33.461,129.033c0-1.688-0.184-3.506-2.221-3.506
		c-1.78,0-2.643,1.634-2.753,3.506H33.461z"/>
	<path fill="#333333" d="M42.636,134.375c-0.202,0.055-0.404,0.092-0.624,0.092c-0.184,0-0.404-0.037-0.569-0.092v-13.4
		c0.165-0.037,0.367-0.092,0.605-0.092c0.202,0,0.422,0.037,0.587,0.092V134.375z"/>
	<path fill="#333333" d="M52.07,132.025c0,0.661,0,1.487,0.037,2.35c-0.128,0.055-0.331,0.092-0.496,0.092
		c-0.147,0-0.349-0.037-0.496-0.092c-0.055-0.293-0.092-0.679-0.11-1.028h-0.018c-0.624,0.771-1.726,1.211-2.809,1.211
		c-1.707,0-3.139-0.955-3.139-2.918c0-1.12,0.459-1.946,1.175-2.46c0.808-0.569,1.873-0.752,3.011-0.752
		c0.642,0,1.175,0.037,1.652,0.11v-0.532c0-1.835-0.752-2.441-2.294-2.441c-0.863,0-1.927,0.184-2.588,0.349
		c-0.037-0.092-0.073-0.293-0.073-0.477c0-0.128,0.037-0.312,0.092-0.422c0.789-0.239,1.835-0.385,2.717-0.385
		c2.184,0,3.341,0.991,3.341,3.23V132.025z M50.877,129.437c-0.532-0.073-1.083-0.11-1.56-0.11c-0.899,0-1.708,0.165-2.258,0.587
		c-0.496,0.367-0.771,0.955-0.771,1.707c0,1.34,0.863,1.982,2.056,1.982c0.991,0,2.038-0.477,2.533-1.23V129.437z"/>
	<path fill="#333333" d="M59.245,125.692c-1.065,0.147-2.221,0.532-3.084,1.193v7.489c-0.184,0.055-0.404,0.092-0.606,0.092
		c-0.202,0-0.404-0.037-0.587-0.092v-9.563c0.11-0.037,0.275-0.074,0.459-0.074c0.147,0,0.349,0.037,0.496,0.074l0.092,1.175h0.019
		c0.789-0.679,2.166-1.249,3.212-1.358c0.037,0.11,0.073,0.312,0.073,0.477C59.318,125.288,59.282,125.527,59.245,125.692z"/>
	<path fill="#333333" d="M67.926,132.777c0,1.377-0.073,3.029-0.734,4.167c-0.789,1.358-2.203,1.946-3.616,1.946
		c-0.808,0-1.505-0.092-2.092-0.293c-0.055-0.11-0.074-0.294-0.074-0.441c0-0.11,0.037-0.33,0.074-0.44
		c0.569,0.147,1.23,0.257,1.891,0.257c2.313,0,3.359-1.432,3.359-3.946v-0.771c-0.716,0.752-1.726,1.12-2.552,1.12
		c-2.441,0-3.708-1.891-3.708-4.552c0-3.268,1.927-5.195,4.773-5.195c0.752,0,1.891,0.22,2.68,0.532V132.777z M66.733,125.747
		c-0.661-0.184-1.138-0.239-1.597-0.239c-2.331,0-3.433,1.964-3.433,4.259c0,2.038,0.771,3.635,2.57,3.635
		c0.918,0,1.854-0.459,2.46-1.102V125.747z"/>
	<path fill="#333333" d="M77.615,129.914h-6.149c0.074,2.111,1.065,3.708,3.359,3.708c0.826,0,1.597-0.11,2.276-0.275
		c0.037,0.092,0.073,0.275,0.073,0.385c0,0.184-0.037,0.349-0.092,0.478c-0.716,0.22-1.615,0.349-2.368,0.349
		c-1.45,0-2.551-0.459-3.23-1.193c-0.808-0.881-1.23-2.203-1.23-3.726c0-2.662,1.34-5.011,4.02-5.011
		c2.405,0,3.359,1.982,3.359,4.405C77.634,129.308,77.634,129.639,77.615,129.914z M76.44,129.033c0-1.688-0.184-3.506-2.221-3.506
		c-1.78,0-2.643,1.634-2.753,3.506H76.44z"/>
	<path fill="#333333" d="M82.129,134.558c-0.917,0-1.872-0.165-2.533-0.422c-0.055-0.128-0.092-0.349-0.092-0.514
		c0-0.11,0.037-0.386,0.074-0.496c0.679,0.275,1.652,0.496,2.459,0.496c1.395,0,2.258-0.587,2.258-1.744
		c0-1.046-0.532-1.413-1.982-1.946c-2.019-0.734-2.68-1.579-2.68-2.827c0-1.689,1.395-2.478,3.194-2.478
		c0.605,0,1.395,0.11,1.854,0.257c0.055,0.165,0.073,0.331,0.073,0.44c0,0.147-0.037,0.404-0.073,0.533
		c-0.606-0.184-1.249-0.294-1.873-0.294c-1.303,0-2.092,0.496-2.092,1.505c0,0.881,0.496,1.303,2,1.872
		c1.377,0.514,2.644,1.028,2.644,2.882C85.36,133.695,83.946,134.558,82.129,134.558z"/>
	<path fill="#333333" d="M92.572,134.283c-0.478,0.165-1.193,0.275-1.726,0.275c-1.817,0-2.68-0.863-2.68-2.9v-5.911h-1.652
		c-0.037-0.092-0.055-0.312-0.055-0.422c0-0.092,0.019-0.312,0.055-0.404l1.652-0.11v-2.497c0.147-0.055,0.386-0.092,0.587-0.092
		c0.202,0,0.459,0.037,0.606,0.092v2.497h2.698c0.037,0.092,0.074,0.367,0.074,0.458c0,0.129-0.037,0.349-0.074,0.478h-2.698v5.801
		c0,1.45,0.422,2.056,1.56,2.056c0.625,0,1.23-0.092,1.652-0.22c0.037,0.092,0.073,0.312,0.073,0.44
		C92.645,133.989,92.627,134.118,92.572,134.283z"/>
	<path fill="#333333" d="M105.143,125.967c-0.587-0.239-1.358-0.385-2.038-0.385c-2.386,0-3.267,1.854-3.267,4.093
		c0,2.203,0.844,3.91,3.249,3.91c0.642,0,1.413-0.11,1.982-0.275c0.037,0.11,0.073,0.238,0.073,0.385
		c0,0.22-0.037,0.386-0.092,0.514c-0.532,0.22-1.395,0.349-2.074,0.349c-2.992,0-4.387-1.964-4.387-4.846
		c0-2.992,1.523-5.084,4.442-5.084c0.697,0,1.523,0.165,2.093,0.422c0.055,0.147,0.073,0.294,0.073,0.459
		C105.198,125.692,105.179,125.839,105.143,125.967z"/>
	<path fill="#333333" d="M110.886,134.558c-2.405,0-3.947-1.652-3.947-4.956s1.561-4.975,3.965-4.975
		c2.405,0,3.928,1.634,3.928,4.938C114.833,132.869,113.291,134.558,110.886,134.558z M110.904,125.527
		c-1.762,0-2.716,1.358-2.716,4.057s0.936,4.075,2.698,4.075s2.698-1.377,2.698-4.075S112.667,125.527,110.904,125.527z"/>
	<path fill="#333333" d="M118.392,134.375c-0.202,0.055-0.404,0.092-0.624,0.092c-0.184,0-0.404-0.037-0.569-0.092v-13.4
		c0.165-0.037,0.367-0.092,0.605-0.092c0.202,0,0.422,0.037,0.587,0.092V134.375z"/>
	<path fill="#333333" d="M122.521,134.375c-0.202,0.055-0.404,0.092-0.624,0.092c-0.184,0-0.404-0.037-0.569-0.092v-13.4
		c0.165-0.037,0.367-0.092,0.605-0.092c0.202,0,0.422,0.037,0.587,0.092V134.375z"/>
	<path fill="#333333" d="M131.955,132.025c0,0.661,0,1.487,0.037,2.35c-0.128,0.055-0.331,0.092-0.496,0.092
		c-0.147,0-0.349-0.037-0.496-0.092c-0.055-0.293-0.092-0.679-0.11-1.028h-0.018c-0.624,0.771-1.726,1.211-2.809,1.211
		c-1.707,0-3.139-0.955-3.139-2.918c0-1.12,0.459-1.946,1.175-2.46c0.808-0.569,1.873-0.752,3.011-0.752
		c0.643,0,1.175,0.037,1.652,0.11v-0.532c0-1.835-0.752-2.441-2.294-2.441c-0.863,0-1.927,0.184-2.588,0.349
		c-0.037-0.092-0.073-0.293-0.073-0.477c0-0.128,0.037-0.312,0.092-0.422c0.789-0.239,1.835-0.385,2.717-0.385
		c2.184,0,3.341,0.991,3.341,3.23V132.025z M130.761,129.437c-0.532-0.073-1.083-0.11-1.56-0.11c-0.899,0-1.708,0.165-2.258,0.587
		c-0.496,0.367-0.771,0.955-0.771,1.707c0,1.34,0.863,1.982,2.056,1.982c0.991,0,2.038-0.477,2.533-1.23V129.437z"/>
	<path fill="#333333" d="M137.789,134.558c-0.844,0-1.927-0.128-2.937-0.496v-13.088c0.129-0.037,0.404-0.092,0.569-0.092
		c0.293,0,0.514,0.055,0.624,0.092v4.644c0.752-0.624,1.707-0.991,2.717-0.991c2.588,0,3.671,2.221,3.671,4.699
		C142.434,132.484,140.818,134.558,137.789,134.558z M138.597,125.655c-0.917,0-1.835,0.385-2.551,1.102v6.59
		c0.496,0.184,1.12,0.293,1.652,0.293c2.552,0,3.488-1.946,3.488-4.24C141.185,127.619,140.671,125.655,138.597,125.655z"/>
	<path fill="#333333" d="M148.177,134.558c-2.405,0-3.947-1.652-3.947-4.956s1.561-4.975,3.965-4.975
		c2.405,0,3.928,1.634,3.928,4.938C152.123,132.869,150.582,134.558,148.177,134.558z M148.195,125.527
		c-1.762,0-2.716,1.358-2.716,4.057s0.936,4.075,2.698,4.075s2.698-1.377,2.698-4.075S149.957,125.527,148.195,125.527z"/>
	<path fill="#333333" d="M158.729,125.692c-1.064,0.147-2.222,0.532-3.084,1.193v7.489c-0.184,0.055-0.404,0.092-0.605,0.092
		c-0.202,0-0.404-0.037-0.588-0.092v-9.563c0.11-0.037,0.275-0.074,0.459-0.074c0.146,0,0.349,0.037,0.496,0.074l0.092,1.175h0.018
		c0.79-0.679,2.166-1.249,3.213-1.358c0.036,0.11,0.073,0.312,0.073,0.477C158.803,125.288,158.766,125.527,158.729,125.692z"/>
	<path fill="#333333" d="M166.896,132.025c0,0.661,0,1.487,0.036,2.35c-0.128,0.055-0.33,0.092-0.495,0.092
		c-0.146,0-0.349-0.037-0.496-0.092c-0.055-0.293-0.092-0.679-0.109-1.028h-0.019c-0.624,0.771-1.726,1.211-2.809,1.211
		c-1.707,0-3.139-0.955-3.139-2.918c0-1.12,0.459-1.946,1.175-2.46c0.808-0.569,1.872-0.752,3.01-0.752
		c0.643,0,1.175,0.037,1.652,0.11v-0.532c0-1.835-0.753-2.441-2.295-2.441c-0.862,0-1.927,0.184-2.588,0.349
		c-0.036-0.092-0.073-0.293-0.073-0.477c0-0.128,0.037-0.312,0.092-0.422c0.789-0.239,1.836-0.385,2.717-0.385
		c2.185,0,3.341,0.991,3.341,3.23V132.025z M165.703,129.437c-0.532-0.073-1.083-0.11-1.561-0.11c-0.899,0-1.707,0.165-2.258,0.587
		c-0.495,0.367-0.771,0.955-0.771,1.707c0,1.34,0.862,1.982,2.056,1.982c0.991,0,2.038-0.477,2.533-1.23V129.437z"/>
	<path fill="#333333" d="M174.879,134.283c-0.478,0.165-1.193,0.275-1.726,0.275c-1.817,0-2.68-0.863-2.68-2.9v-5.911h-1.652
		c-0.037-0.092-0.055-0.312-0.055-0.422c0-0.092,0.018-0.312,0.055-0.404l1.652-0.11v-2.497c0.146-0.055,0.385-0.092,0.587-0.092
		s0.459,0.037,0.605,0.092v2.497h2.699c0.036,0.092,0.073,0.367,0.073,0.458c0,0.129-0.037,0.349-0.073,0.478h-2.699v5.801
		c0,1.45,0.423,2.056,1.561,2.056c0.624,0,1.23-0.092,1.652-0.22c0.037,0.092,0.073,0.312,0.073,0.44
		C174.952,133.989,174.934,134.118,174.879,134.283z"/>
	<path fill="#333333" d="M177.686,122.938c-0.422,0-0.771-0.367-0.771-0.808s0.35-0.79,0.771-0.79s0.789,0.349,0.789,0.79
		S178.107,122.938,177.686,122.938z M178.291,134.375c-0.165,0.055-0.403,0.092-0.605,0.092s-0.422-0.037-0.588-0.092v-9.563
		c0.147-0.037,0.386-0.092,0.569-0.092c0.202,0,0.478,0.037,0.624,0.092V134.375z"/>
	<path fill="#333333" d="M187.688,127.142l-2.882,7.232c-0.165,0.055-0.349,0.092-0.495,0.092c-0.202,0-0.367-0.037-0.514-0.092
		l-2.975-7.232c-0.33-0.826-0.477-1.652-0.477-2.331c0.146-0.037,0.403-0.092,0.568-0.092c0.221,0,0.441,0.037,0.625,0.092
		c0.018,0.624,0.092,1.34,0.366,2l2.387,6.058h0.037l2.312-6.058c0.257-0.642,0.386-1.358,0.386-2
		c0.128-0.055,0.403-0.092,0.643-0.092c0.128,0,0.367,0.018,0.532,0.073C188.185,125.453,188.056,126.243,187.688,127.142z"/>
	<path fill="#333333" d="M196.938,129.914h-6.149c0.073,2.111,1.064,3.708,3.359,3.708c0.825,0,1.597-0.11,2.275-0.275
		c0.037,0.092,0.074,0.275,0.074,0.385c0,0.184-0.037,0.349-0.092,0.478c-0.717,0.22-1.616,0.349-2.368,0.349
		c-1.45,0-2.552-0.459-3.231-1.193c-0.808-0.881-1.229-2.203-1.229-3.726c0-2.662,1.34-5.011,4.021-5.011
		c2.404,0,3.358,1.982,3.358,4.405C196.956,129.308,196.956,129.639,196.938,129.914z M195.764,129.033
		c0-1.688-0.184-3.506-2.222-3.506c-1.78,0-2.644,1.634-2.753,3.506H195.764z"/>
</g>
<g>
	<path fill="#333333" d="M14.706,146.944c-1.065,0.147-2.221,0.532-3.084,1.193v7.489c-0.184,0.055-0.404,0.092-0.606,0.092
		c-0.202,0-0.404-0.037-0.587-0.092v-9.563c0.11-0.037,0.275-0.074,0.459-0.074c0.147,0,0.349,0.037,0.496,0.074l0.092,1.175h0.019
		c0.789-0.679,2.166-1.249,3.212-1.358c0.037,0.11,0.073,0.312,0.073,0.477C14.779,146.541,14.743,146.779,14.706,146.944z"/>
	<path fill="#333333" d="M23.295,151.166h-6.149c0.074,2.111,1.065,3.708,3.359,3.708c0.826,0,1.597-0.109,2.276-0.275
		c0.037,0.092,0.073,0.275,0.073,0.386c0,0.184-0.037,0.349-0.092,0.478c-0.716,0.22-1.615,0.349-2.368,0.349
		c-1.45,0-2.551-0.459-3.23-1.193c-0.808-0.881-1.23-2.202-1.23-3.726c0-2.662,1.34-5.011,4.02-5.011
		c2.405,0,3.359,1.982,3.359,4.405C23.313,150.561,23.313,150.891,23.295,151.166z M22.12,150.285c0-1.688-0.184-3.506-2.221-3.506
		c-1.78,0-2.643,1.634-2.753,3.506H22.12z"/>
	<path fill="#333333" d="M27.809,155.811c-0.917,0-1.872-0.165-2.533-0.422c-0.055-0.129-0.092-0.35-0.092-0.515
		c0-0.109,0.037-0.385,0.074-0.495c0.679,0.275,1.652,0.495,2.459,0.495c1.395,0,2.258-0.587,2.258-1.743
		c0-1.047-0.532-1.414-1.982-1.946c-2.019-0.734-2.68-1.579-2.68-2.827c0-1.689,1.395-2.478,3.194-2.478
		c0.605,0,1.395,0.11,1.854,0.257c0.055,0.165,0.073,0.331,0.073,0.44c0,0.147-0.037,0.404-0.073,0.532
		c-0.606-0.183-1.249-0.293-1.873-0.293c-1.303,0-2.092,0.496-2.092,1.505c0,0.881,0.496,1.303,2,1.872
		c1.377,0.514,2.644,1.028,2.644,2.882C31.04,154.948,29.626,155.811,27.809,155.811z"/>
	<path fill="#333333" d="M40.179,151.166h-6.149c0.074,2.111,1.065,3.708,3.359,3.708c0.826,0,1.597-0.109,2.276-0.275
		c0.037,0.092,0.073,0.275,0.073,0.386c0,0.184-0.037,0.349-0.092,0.478c-0.716,0.22-1.615,0.349-2.368,0.349
		c-1.45,0-2.551-0.459-3.23-1.193c-0.808-0.881-1.23-2.202-1.23-3.726c0-2.662,1.34-5.011,4.02-5.011
		c2.405,0,3.359,1.982,3.359,4.405C40.197,150.561,40.197,150.891,40.179,151.166z M39.004,150.285c0-1.688-0.184-3.506-2.221-3.506
		c-1.78,0-2.643,1.634-2.753,3.506H39.004z"/>
	<path fill="#333333" d="M49.08,153.277c0,0.661,0,1.487,0.037,2.35c-0.128,0.055-0.331,0.092-0.496,0.092
		c-0.147,0-0.349-0.037-0.496-0.092c-0.055-0.294-0.092-0.679-0.11-1.028h-0.018c-0.624,0.771-1.726,1.212-2.809,1.212
		c-1.707,0-3.139-0.954-3.139-2.919c0-1.119,0.459-1.945,1.175-2.459c0.808-0.569,1.873-0.752,3.011-0.752
		c0.643,0,1.175,0.037,1.652,0.11v-0.532c0-1.835-0.752-2.441-2.294-2.441c-0.863,0-1.927,0.184-2.588,0.349
		c-0.037-0.092-0.073-0.293-0.073-0.477c0-0.128,0.037-0.312,0.092-0.422c0.789-0.239,1.835-0.385,2.717-0.385
		c2.184,0,3.341,0.991,3.341,3.23V153.277z M47.886,150.689c-0.532-0.073-1.083-0.11-1.56-0.11c-0.899,0-1.708,0.165-2.258,0.587
		c-0.496,0.367-0.771,0.955-0.771,1.707c0,1.341,0.863,1.983,2.056,1.983c0.991,0,2.038-0.478,2.533-1.23V150.689z"/>
	<path fill="#333333" d="M56.254,146.944c-1.065,0.147-2.221,0.532-3.084,1.193v7.489c-0.184,0.055-0.404,0.092-0.606,0.092
		c-0.202,0-0.404-0.037-0.587-0.092v-9.563c0.11-0.037,0.275-0.074,0.459-0.074c0.147,0,0.349,0.037,0.496,0.074l0.092,1.175h0.019
		c0.789-0.679,2.166-1.249,3.212-1.358c0.037,0.11,0.073,0.312,0.073,0.477C56.328,146.541,56.291,146.779,56.254,146.944z"/>
	<path fill="#333333" d="M64.018,147.22c-0.587-0.239-1.358-0.385-2.038-0.385c-2.386,0-3.267,1.854-3.267,4.093
		c0,2.203,0.844,3.91,3.249,3.91c0.642,0,1.413-0.11,1.982-0.275c0.037,0.11,0.073,0.238,0.073,0.386
		c0,0.22-0.037,0.385-0.092,0.514c-0.532,0.22-1.395,0.349-2.074,0.349c-2.992,0-4.387-1.964-4.387-4.846
		c0-2.992,1.523-5.084,4.442-5.084c0.697,0,1.523,0.165,2.093,0.422c0.055,0.147,0.073,0.294,0.073,0.459
		C64.073,146.944,64.054,147.091,64.018,147.22z"/>
	<path fill="#333333" d="M73.689,155.627c-0.165,0.055-0.367,0.092-0.551,0.092c-0.22,0-0.459-0.037-0.643-0.092v-5.801
		c0-2.019-0.514-2.937-2.221-2.937c-0.917,0-2.019,0.514-2.735,1.065v7.673c-0.202,0.055-0.422,0.092-0.624,0.092
		c-0.184,0-0.404-0.037-0.569-0.092v-13.4c0.166-0.055,0.422-0.092,0.587-0.092c0.166,0,0.441,0.037,0.606,0.092v4.717
		c0.973-0.752,2.129-1.064,3.029-1.064c0.936,0,1.891,0.312,2.423,0.955c0.587,0.697,0.698,1.707,0.698,2.698V155.627z"/>
	<path fill="#333333" d="M86.957,154.636c-0.716,0.643-1.835,0.991-2.9,0.991c-0.753,0-1.45-0.129-1.964-0.312v4.626
		c-0.184,0.056-0.349,0.092-0.606,0.092c-0.202,0-0.44-0.036-0.587-0.092v-13.877c0.092-0.037,0.312-0.074,0.496-0.074
		s0.349,0.037,0.478,0.074l0.11,1.009H82c0.698-0.734,1.744-1.193,2.809-1.193c1.156,0,2.184,0.496,2.827,1.413
		c0.532,0.771,0.863,1.873,0.863,3.212C88.499,152.341,87.93,153.755,86.957,154.636z M84.681,146.853
		c-0.973,0-1.946,0.404-2.588,1.211v6.315c0.477,0.22,1.211,0.349,1.835,0.349c1.982,0,3.323-1.304,3.323-4.167
		C87.25,148.303,86.369,146.853,84.681,146.853z"/>
	<path fill="#333333" d="M95.105,146.944c-1.065,0.147-2.221,0.532-3.084,1.193v7.489c-0.184,0.055-0.404,0.092-0.606,0.092
		c-0.202,0-0.404-0.037-0.587-0.092v-9.563c0.11-0.037,0.275-0.074,0.459-0.074c0.147,0,0.349,0.037,0.496,0.074l0.092,1.175h0.019
		c0.789-0.679,2.166-1.249,3.212-1.358c0.037,0.11,0.073,0.312,0.073,0.477C95.178,146.541,95.142,146.779,95.105,146.944z"/>
	<path fill="#333333" d="M100.28,155.811c-2.405,0-3.947-1.652-3.947-4.956c0-3.304,1.561-4.975,3.965-4.975
		c2.405,0,3.928,1.634,3.928,4.938C104.226,154.122,102.685,155.811,100.28,155.811z M100.298,146.779
		c-1.762,0-2.716,1.358-2.716,4.057s0.936,4.075,2.698,4.075s2.698-1.377,2.698-4.075S102.06,146.779,100.298,146.779z"/>
	<path fill="#333333" d="M113.476,154.03c0,1.376-0.073,3.028-0.734,4.167c-0.789,1.358-2.203,1.945-3.616,1.945
		c-0.808,0-1.505-0.092-2.092-0.294c-0.055-0.11-0.074-0.293-0.074-0.44c0-0.11,0.037-0.33,0.074-0.44
		c0.569,0.146,1.23,0.257,1.891,0.257c2.313,0,3.359-1.432,3.359-3.946v-0.771c-0.716,0.753-1.726,1.12-2.552,1.12
		c-2.441,0-3.708-1.891-3.708-4.553c0-3.267,1.927-5.194,4.773-5.194c0.752,0,1.891,0.22,2.68,0.532V154.03z M112.283,147
		c-0.661-0.184-1.138-0.239-1.597-0.239c-2.331,0-3.433,1.964-3.433,4.259c0,2.037,0.771,3.635,2.57,3.635
		c0.918,0,1.854-0.459,2.46-1.102V147z"/>
	<path fill="#333333" d="M120.614,146.944c-1.065,0.147-2.221,0.532-3.084,1.193v7.489c-0.184,0.055-0.404,0.092-0.606,0.092
		c-0.202,0-0.404-0.037-0.587-0.092v-9.563c0.11-0.037,0.275-0.074,0.459-0.074c0.147,0,0.349,0.037,0.496,0.074l0.092,1.175h0.019
		c0.789-0.679,2.166-1.249,3.212-1.358c0.037,0.11,0.073,0.312,0.073,0.477C120.687,146.541,120.65,146.779,120.614,146.944z"/>
	<path fill="#333333" d="M128.799,153.277c0,0.661,0,1.487,0.037,2.35c-0.128,0.055-0.331,0.092-0.496,0.092
		c-0.147,0-0.349-0.037-0.496-0.092c-0.055-0.294-0.092-0.679-0.11-1.028h-0.018c-0.624,0.771-1.726,1.212-2.809,1.212
		c-1.707,0-3.139-0.954-3.139-2.919c0-1.119,0.459-1.945,1.175-2.459c0.808-0.569,1.873-0.752,3.011-0.752
		c0.643,0,1.175,0.037,1.652,0.11v-0.532c0-1.835-0.752-2.441-2.294-2.441c-0.863,0-1.927,0.184-2.588,0.349
		c-0.037-0.092-0.073-0.293-0.073-0.477c0-0.128,0.037-0.312,0.092-0.422c0.789-0.239,1.835-0.385,2.717-0.385
		c2.184,0,3.341,0.991,3.341,3.23V153.277z M127.606,150.689c-0.532-0.073-1.083-0.11-1.56-0.11c-0.899,0-1.708,0.165-2.258,0.587
		c-0.496,0.367-0.771,0.955-0.771,1.707c0,1.341,0.863,1.983,2.056,1.983c0.991,0,2.038-0.478,2.533-1.23V150.689z"/>
	<path fill="#333333" d="M144.987,155.646c-0.184,0.036-0.367,0.073-0.551,0.073c-0.22,0-0.422-0.055-0.642-0.092v-5.801
		c0-2.019-0.514-2.937-2.221-2.937c-0.881,0-2.056,0.459-2.79,0.991c0.146,0.514,0.183,1.083,0.183,1.652v6.094
		c-0.183,0.055-0.367,0.092-0.55,0.092c-0.239,0-0.459-0.037-0.643-0.092v-5.801c0-2.019-0.459-2.937-2.166-2.937
		c-0.918,0-2.001,0.514-2.717,1.065v7.673c-0.202,0.055-0.44,0.092-0.661,0.092c-0.184,0-0.386-0.037-0.533-0.092v-9.563
		c0.092-0.037,0.294-0.074,0.496-0.074c0.166,0,0.367,0.037,0.496,0.074l0.092,0.955h0.019c1.01-0.826,2.166-1.138,3.102-1.138
		c0.937,0,1.836,0.312,2.368,0.955c0.073,0.073,0.128,0.165,0.184,0.257c0.973-0.79,2.221-1.211,3.414-1.211
		c0.937,0,1.891,0.312,2.423,0.955c0.587,0.697,0.697,1.707,0.697,2.698V155.646z"/>
	<path fill="#333333" d="M161.081,155.646c-0.184,0.036-0.367,0.073-0.551,0.073c-0.22,0-0.422-0.055-0.643-0.092v-5.801
		c0-2.019-0.514-2.937-2.221-2.937c-0.881,0-2.056,0.459-2.79,0.991c0.146,0.514,0.184,1.083,0.184,1.652v6.094
		c-0.184,0.055-0.367,0.092-0.551,0.092c-0.239,0-0.459-0.037-0.643-0.092v-5.801c0-2.019-0.459-2.937-2.166-2.937
		c-0.918,0-2.001,0.514-2.717,1.065v7.673c-0.202,0.055-0.44,0.092-0.661,0.092c-0.184,0-0.386-0.037-0.533-0.092v-9.563
		c0.092-0.037,0.294-0.074,0.496-0.074c0.166,0,0.367,0.037,0.496,0.074l0.092,0.955h0.019c1.01-0.826,2.166-1.138,3.103-1.138
		c0.936,0,1.835,0.312,2.367,0.955c0.074,0.073,0.129,0.165,0.184,0.257c0.974-0.79,2.222-1.211,3.415-1.211
		c0.936,0,1.891,0.312,2.423,0.955c0.587,0.697,0.697,1.707,0.697,2.698V155.646z"/>
	<path fill="#333333" d="M170.715,151.166h-6.149c0.073,2.111,1.064,3.708,3.358,3.708c0.826,0,1.598-0.109,2.276-0.275
		c0.037,0.092,0.073,0.275,0.073,0.386c0,0.184-0.036,0.349-0.091,0.478c-0.717,0.22-1.616,0.349-2.368,0.349
		c-1.45,0-2.552-0.459-3.231-1.193c-0.808-0.881-1.229-2.202-1.229-3.726c0-2.662,1.34-5.011,4.021-5.011
		c2.404,0,3.358,1.982,3.358,4.405C170.732,150.561,170.732,150.891,170.715,151.166z M169.54,150.285
		c0-1.688-0.184-3.506-2.222-3.506c-1.78,0-2.644,1.634-2.753,3.506H169.54z"/>
	<path fill="#333333" d="M178.164,144.191c-0.422,0-0.771-0.367-0.771-0.808s0.35-0.79,0.771-0.79s0.789,0.349,0.789,0.79
		S178.586,144.191,178.164,144.191z M178.77,155.627c-0.165,0.055-0.403,0.092-0.605,0.092s-0.422-0.037-0.588-0.092v-9.563
		c0.147-0.037,0.386-0.092,0.569-0.092c0.202,0,0.478,0.037,0.624,0.092V155.627z"/>
	<path fill="#333333" d="M189.048,155.646c-0.146,0.036-0.367,0.073-0.588,0.073c-0.184,0-0.422-0.037-0.605-0.092v-5.819
		c0-0.881-0.11-1.561-0.367-2.038c-0.312-0.587-0.899-0.881-1.854-0.881c-0.918,0-2.02,0.514-2.735,1.065v7.673
		c-0.202,0.055-0.404,0.092-0.624,0.092c-0.184,0-0.404-0.037-0.569-0.092v-9.563c0.129-0.055,0.349-0.074,0.478-0.074
		c0.184,0,0.403,0.019,0.514,0.074l0.092,0.955h0.019c1.01-0.826,2.166-1.138,3.103-1.138c0.936,0,1.909,0.312,2.441,0.955
		c0.587,0.697,0.697,1.707,0.697,2.698V155.646z"/>
	<path fill="#333333" d="M202.793,153.277c0,0.661,0,1.487,0.036,2.35c-0.128,0.055-0.33,0.092-0.495,0.092
		c-0.146,0-0.349-0.037-0.496-0.092c-0.055-0.294-0.092-0.679-0.109-1.028h-0.019c-0.624,0.771-1.726,1.212-2.809,1.212
		c-1.707,0-3.139-0.954-3.139-2.919c0-1.119,0.459-1.945,1.175-2.459c0.808-0.569,1.872-0.752,3.01-0.752
		c0.643,0,1.175,0.037,1.652,0.11v-0.532c0-1.835-0.753-2.441-2.295-2.441c-0.862,0-1.927,0.184-2.588,0.349
		c-0.036-0.092-0.073-0.293-0.073-0.477c0-0.128,0.037-0.312,0.092-0.422c0.789-0.239,1.836-0.385,2.717-0.385
		c2.185,0,3.341,0.991,3.341,3.23V153.277z M201.6,150.689c-0.532-0.073-1.083-0.11-1.561-0.11c-0.899,0-1.707,0.165-2.258,0.587
		c-0.495,0.367-0.771,0.955-0.771,1.707c0,1.341,0.862,1.983,2.056,1.983c0.991,0,2.038-0.478,2.533-1.23V150.689z"/>
</g>
<g>
	<path fill="#333333" d="M17.019,176.971c-0.166,0-0.367-0.055-0.478-0.092l-0.11-1.102h-0.019c-0.79,0.826-1.726,1.285-2.772,1.285
		c-2.533,0-3.745-2.111-3.745-4.681c0-2.552,1.083-5.25,4.002-5.25c0.917,0,1.762,0.312,2.441,0.789v-4.442
		c0.165-0.055,0.385-0.092,0.587-0.092c0.22,0,0.44,0.056,0.605,0.092v13.4C17.404,176.934,17.221,176.971,17.019,176.971z
		 M16.34,168.931c-0.661-0.551-1.505-0.826-2.368-0.826c-2.129,0-2.845,2.093-2.845,4.222c0,1.634,0.514,3.764,2.57,3.764
		c0.991,0,2.001-0.496,2.644-1.267V168.931z"/>
	<path fill="#333333" d="M27.222,172.418h-6.149c0.074,2.111,1.065,3.708,3.359,3.708c0.826,0,1.597-0.109,2.276-0.275
		c0.037,0.092,0.073,0.275,0.073,0.386c0,0.184-0.037,0.349-0.092,0.478c-0.716,0.22-1.615,0.349-2.368,0.349
		c-1.45,0-2.551-0.459-3.23-1.193c-0.808-0.881-1.23-2.202-1.23-3.727c0-2.661,1.34-5.011,4.02-5.011
		c2.405,0,3.359,1.982,3.359,4.405C27.241,171.812,27.241,172.143,27.222,172.418z M26.047,171.537c0-1.688-0.184-3.506-2.221-3.506
		c-1.78,0-2.643,1.634-2.753,3.506H26.047z"/>
	<path fill="#333333" d="M35.627,168.472c-0.587-0.238-1.358-0.386-2.038-0.386c-2.386,0-3.267,1.854-3.267,4.094
		c0,2.203,0.844,3.91,3.249,3.91c0.642,0,1.413-0.11,1.982-0.275c0.037,0.11,0.073,0.238,0.073,0.386
		c0,0.22-0.037,0.385-0.092,0.514c-0.532,0.22-1.395,0.349-2.074,0.349c-2.992,0-4.387-1.964-4.387-4.846
		c0-2.992,1.523-5.085,4.442-5.085c0.697,0,1.523,0.165,2.093,0.422c0.055,0.147,0.073,0.294,0.073,0.459
		C35.683,168.196,35.664,168.343,35.627,168.472z"/>
	<path fill="#333333" d="M44.473,174.529c0,0.661,0,1.487,0.037,2.35c-0.128,0.055-0.331,0.092-0.496,0.092
		c-0.147,0-0.349-0.037-0.496-0.092c-0.055-0.294-0.092-0.679-0.11-1.028H43.39c-0.624,0.771-1.726,1.212-2.809,1.212
		c-1.707,0-3.139-0.954-3.139-2.919c0-1.119,0.459-1.945,1.175-2.46c0.808-0.568,1.873-0.752,3.011-0.752
		c0.643,0,1.175,0.036,1.652,0.11v-0.533c0-1.835-0.752-2.44-2.294-2.44c-0.863,0-1.927,0.183-2.588,0.349
		c-0.037-0.092-0.073-0.294-0.073-0.478c0-0.129,0.037-0.312,0.092-0.422c0.789-0.239,1.835-0.386,2.717-0.386
		c2.184,0,3.341,0.991,3.341,3.23V174.529z M43.28,171.941c-0.532-0.074-1.083-0.11-1.56-0.11c-0.899,0-1.708,0.165-2.258,0.587
		c-0.496,0.367-0.771,0.955-0.771,1.707c0,1.341,0.863,1.983,2.056,1.983c0.991,0,2.038-0.478,2.533-1.23V171.941z"/>
	<path fill="#333333" d="M53.961,176.971c-0.166,0-0.367-0.055-0.478-0.092l-0.11-1.102h-0.019c-0.79,0.826-1.726,1.285-2.772,1.285
		c-2.533,0-3.745-2.111-3.745-4.681c0-2.552,1.083-5.25,4.002-5.25c0.917,0,1.762,0.312,2.441,0.789v-4.442
		c0.165-0.055,0.385-0.092,0.587-0.092c0.22,0,0.44,0.056,0.605,0.092v13.4C54.346,176.934,54.163,176.971,53.961,176.971z
		 M53.282,168.931c-0.661-0.551-1.505-0.826-2.368-0.826c-2.129,0-2.845,2.093-2.845,4.222c0,1.634,0.514,3.764,2.57,3.764
		c0.991,0,2.001-0.496,2.644-1.267V168.931z"/>
	<path fill="#333333" d="M64.165,172.418h-6.149c0.074,2.111,1.065,3.708,3.359,3.708c0.826,0,1.597-0.109,2.276-0.275
		c0.037,0.092,0.073,0.275,0.073,0.386c0,0.184-0.037,0.349-0.092,0.478c-0.716,0.22-1.615,0.349-2.368,0.349
		c-1.45,0-2.551-0.459-3.23-1.193c-0.808-0.881-1.23-2.202-1.23-3.727c0-2.661,1.34-5.011,4.02-5.011
		c2.405,0,3.359,1.982,3.359,4.405C64.183,171.812,64.183,172.143,64.165,172.418z M62.99,171.537c0-1.688-0.184-3.506-2.221-3.506
		c-1.78,0-2.643,1.634-2.753,3.506H62.99z"/>
	<path fill="#333333" d="M76.35,164.269c-0.275-0.074-0.771-0.147-1.157-0.147c-0.697,0-1.211,0.184-1.56,0.569
		c-0.533,0.569-0.625,1.34-0.625,2.312v0.312h2.588c0.037,0.092,0.074,0.312,0.074,0.44c0,0.146-0.037,0.367-0.074,0.495h-2.588
		v8.628c-0.165,0.055-0.349,0.092-0.587,0.092c-0.238,0-0.44-0.037-0.605-0.092v-8.628h-1.652c-0.037-0.092-0.055-0.33-0.055-0.44
		c0-0.092,0.018-0.293,0.055-0.385l1.652-0.11v-0.312c0-1.303,0.22-2.202,0.973-2.955c0.533-0.532,1.322-0.789,2.221-0.789
		c0.478,0,1.01,0.11,1.34,0.238c0.037,0.092,0.055,0.221,0.055,0.349C76.404,163.956,76.386,164.177,76.35,164.269z"/>
	<path fill="#333333" d="M80.662,177.062c-2.405,0-3.947-1.652-3.947-4.956c0-3.305,1.561-4.975,3.965-4.975
		c2.405,0,3.928,1.634,3.928,4.938C84.608,175.374,83.066,177.062,80.662,177.062z M80.68,168.031c-1.762,0-2.716,1.358-2.716,4.057
		s0.936,4.075,2.698,4.075s2.698-1.377,2.698-4.075S82.442,168.031,80.68,168.031z"/>
	<path fill="#333333" d="M91.214,168.196c-1.065,0.146-2.221,0.532-3.084,1.193v7.489c-0.184,0.055-0.404,0.092-0.606,0.092
		c-0.202,0-0.404-0.037-0.587-0.092v-9.563c0.11-0.037,0.275-0.073,0.459-0.073c0.147,0,0.349,0.036,0.496,0.073l0.092,1.175h0.019
		c0.789-0.68,2.166-1.248,3.212-1.358c0.037,0.11,0.073,0.312,0.073,0.478C91.288,167.793,91.251,168.031,91.214,168.196z"/>
	<path fill="#333333" d="M107.236,176.879c-0.092,0.037-0.33,0.073-0.496,0.073c-0.128,0-0.312-0.036-0.458-0.073l-7.012-10.408
		v10.408c-0.128,0.055-0.367,0.092-0.569,0.092c-0.184,0-0.404-0.037-0.551-0.092V164.47c0.147-0.055,0.386-0.092,0.551-0.092
		c0.202,0,0.386,0.037,0.514,0.092l6.902,10.225V164.47c0.184-0.055,0.386-0.092,0.569-0.092c0.165,0,0.385,0.037,0.55,0.092
		V176.879z"/>
	<path fill="#333333" d="M113.823,177.062c-2.405,0-3.947-1.652-3.947-4.956c0-3.305,1.561-4.975,3.965-4.975
		c2.405,0,3.928,1.634,3.928,4.938C117.77,175.374,116.228,177.062,113.823,177.062z M113.841,168.031
		c-1.762,0-2.716,1.358-2.716,4.057s0.936,4.075,2.698,4.075s2.698-1.377,2.698-4.075S115.604,168.031,113.841,168.031z"/>
	<path fill="#333333" d="M124.375,168.196c-1.065,0.146-2.221,0.532-3.084,1.193v7.489c-0.184,0.055-0.404,0.092-0.606,0.092
		c-0.202,0-0.404-0.037-0.587-0.092v-9.563c0.11-0.037,0.275-0.073,0.459-0.073c0.147,0,0.349,0.036,0.496,0.073l0.092,1.175h0.019
		c0.789-0.68,2.166-1.248,3.212-1.358c0.037,0.11,0.073,0.312,0.073,0.478C124.449,167.793,124.412,168.031,124.375,168.196z"/>
	<path fill="#333333" d="M131.863,176.787c-0.478,0.165-1.193,0.275-1.726,0.275c-1.817,0-2.68-0.862-2.68-2.9v-5.911h-1.652
		c-0.037-0.092-0.055-0.312-0.055-0.422c0-0.092,0.019-0.312,0.055-0.403l1.652-0.11v-2.497c0.147-0.055,0.386-0.092,0.587-0.092
		c0.202,0,0.459,0.037,0.606,0.092v2.497h2.698c0.037,0.092,0.074,0.367,0.074,0.459c0,0.128-0.037,0.349-0.074,0.477h-2.698v5.801
		c0,1.45,0.422,2.057,1.56,2.057c0.625,0,1.23-0.092,1.652-0.221c0.037,0.092,0.073,0.312,0.073,0.44
		C131.937,176.493,131.918,176.622,131.863,176.787z"/>
	<path fill="#333333" d="M141.333,176.879c-0.165,0.055-0.367,0.092-0.551,0.092c-0.22,0-0.459-0.037-0.643-0.092v-5.801
		c0-2.019-0.514-2.937-2.221-2.937c-0.917,0-2.019,0.514-2.735,1.064v7.673c-0.202,0.055-0.422,0.092-0.624,0.092
		c-0.184,0-0.404-0.037-0.569-0.092v-13.4c0.166-0.055,0.422-0.092,0.587-0.092c0.166,0,0.441,0.037,0.606,0.092v4.718
		c0.973-0.753,2.129-1.064,3.029-1.064c0.936,0,1.891,0.312,2.423,0.954c0.587,0.698,0.698,1.707,0.698,2.698V176.879z"/>
	<path fill="#333333" d="M150.968,172.418h-6.149c0.074,2.111,1.065,3.708,3.359,3.708c0.826,0,1.597-0.109,2.276-0.275
		c0.037,0.092,0.073,0.275,0.073,0.386c0,0.184-0.037,0.349-0.092,0.478c-0.716,0.22-1.615,0.349-2.368,0.349
		c-1.45,0-2.551-0.459-3.23-1.193c-0.808-0.881-1.23-2.202-1.23-3.727c0-2.661,1.34-5.011,4.02-5.011
		c2.405,0,3.359,1.982,3.359,4.405C150.986,171.812,150.986,172.143,150.968,172.418z M149.793,171.537
		c0-1.688-0.184-3.506-2.221-3.506c-1.78,0-2.643,1.634-2.753,3.506H149.793z"/>
	<path fill="#333333" d="M157.629,168.196c-1.064,0.146-2.222,0.532-3.084,1.193v7.489c-0.184,0.055-0.404,0.092-0.605,0.092
		c-0.202,0-0.404-0.037-0.588-0.092v-9.563c0.11-0.037,0.275-0.073,0.459-0.073c0.146,0,0.349,0.036,0.496,0.073l0.092,1.175h0.018
		c0.79-0.68,2.166-1.248,3.213-1.358c0.036,0.11,0.073,0.312,0.073,0.478C157.702,167.793,157.665,168.031,157.629,168.196z"/>
	<path fill="#333333" d="M167.191,176.897c-0.146,0.036-0.367,0.073-0.588,0.073c-0.184,0-0.422-0.037-0.605-0.092v-5.819
		c0-0.881-0.11-1.56-0.367-2.037c-0.312-0.588-0.899-0.881-1.854-0.881c-0.918,0-2.02,0.514-2.735,1.064v7.673
		c-0.202,0.055-0.404,0.092-0.624,0.092c-0.184,0-0.404-0.037-0.569-0.092v-9.563c0.129-0.056,0.349-0.073,0.478-0.073
		c0.184,0,0.403,0.018,0.514,0.073l0.092,0.954h0.019c1.01-0.826,2.166-1.138,3.103-1.138c0.936,0,1.909,0.312,2.441,0.954
		c0.587,0.698,0.697,1.707,0.697,2.698V176.897z"/>
	<path fill="#333333" d="M175.998,176.879c-0.147,0.055-0.423,0.092-0.625,0.092c-0.201,0-0.477-0.037-0.624-0.092V164.47
		c0.147-0.055,0.423-0.092,0.624-0.092c0.202,0,0.478,0.037,0.625,0.092V176.879z"/>
	<path fill="#333333" d="M183.486,168.196c-1.064,0.146-2.222,0.532-3.084,1.193v7.489c-0.184,0.055-0.404,0.092-0.605,0.092
		c-0.202,0-0.404-0.037-0.588-0.092v-9.563c0.11-0.037,0.275-0.073,0.459-0.073c0.146,0,0.349,0.036,0.496,0.073l0.092,1.175h0.018
		c0.79-0.68,2.166-1.248,3.213-1.358c0.036,0.11,0.073,0.312,0.073,0.478C183.56,167.793,183.522,168.031,183.486,168.196z"/>
	<path fill="#333333" d="M192.076,172.418h-6.149c0.073,2.111,1.064,3.708,3.358,3.708c0.826,0,1.598-0.109,2.276-0.275
		c0.037,0.092,0.073,0.275,0.073,0.386c0,0.184-0.036,0.349-0.091,0.478c-0.717,0.22-1.616,0.349-2.368,0.349
		c-1.45,0-2.552-0.459-3.231-1.193c-0.808-0.881-1.229-2.202-1.229-3.727c0-2.661,1.34-5.011,4.021-5.011
		c2.404,0,3.358,1.982,3.358,4.405C192.094,171.812,192.094,172.143,192.076,172.418z M190.901,171.537
		c0-1.688-0.184-3.506-2.222-3.506c-1.78,0-2.644,1.634-2.753,3.506H190.901z"/>
	<path fill="#333333" d="M195.671,176.879c-0.202,0.055-0.404,0.092-0.625,0.092c-0.183,0-0.403-0.037-0.568-0.092v-13.4
		c0.165-0.036,0.367-0.092,0.605-0.092c0.202,0,0.422,0.037,0.588,0.092V176.879z"/>
	<path fill="#333333" d="M205.105,174.529c0,0.661,0,1.487,0.036,2.35c-0.128,0.055-0.33,0.092-0.495,0.092
		c-0.146,0-0.349-0.037-0.496-0.092c-0.055-0.294-0.092-0.679-0.109-1.028h-0.019c-0.624,0.771-1.726,1.212-2.809,1.212
		c-1.707,0-3.139-0.954-3.139-2.919c0-1.119,0.459-1.945,1.175-2.46c0.808-0.568,1.872-0.752,3.01-0.752
		c0.643,0,1.175,0.036,1.652,0.11v-0.533c0-1.835-0.753-2.44-2.295-2.44c-0.862,0-1.927,0.183-2.588,0.349
		c-0.036-0.092-0.073-0.294-0.073-0.478c0-0.129,0.037-0.312,0.092-0.422c0.789-0.239,1.836-0.386,2.717-0.386
		c2.185,0,3.341,0.991,3.341,3.23V174.529z M203.912,171.941c-0.532-0.074-1.083-0.11-1.561-0.11c-0.899,0-1.707,0.165-2.258,0.587
		c-0.495,0.367-0.771,0.955-0.771,1.707c0,1.341,0.862,1.983,2.056,1.983c0.991,0,2.038-0.478,2.533-1.23V171.941z"/>
	<path fill="#333333" d="M215.346,176.897c-0.146,0.036-0.367,0.073-0.588,0.073c-0.184,0-0.422-0.037-0.605-0.092v-5.819
		c0-0.881-0.11-1.56-0.367-2.037c-0.312-0.588-0.899-0.881-1.854-0.881c-0.918,0-2.02,0.514-2.735,1.064v7.673
		c-0.202,0.055-0.404,0.092-0.624,0.092c-0.184,0-0.404-0.037-0.569-0.092v-9.563c0.129-0.056,0.349-0.073,0.478-0.073
		c0.184,0,0.403,0.018,0.514,0.073l0.092,0.954h0.019c1.01-0.826,2.166-1.138,3.103-1.138c0.936,0,1.909,0.312,2.441,0.954
		c0.587,0.698,0.697,1.707,0.697,2.698V176.897z"/>
	<path fill="#333333" d="M224.741,176.971c-0.165,0-0.367-0.055-0.477-0.092l-0.11-1.102h-0.019
		c-0.789,0.826-1.726,1.285-2.771,1.285c-2.533,0-3.745-2.111-3.745-4.681c0-2.552,1.083-5.25,4.002-5.25
		c0.918,0,1.762,0.312,2.441,0.789v-4.442c0.165-0.055,0.386-0.092,0.587-0.092c0.221,0,0.44,0.056,0.606,0.092v13.4
		C225.127,176.934,224.943,176.971,224.741,176.971z M224.062,168.931c-0.661-0.551-1.506-0.826-2.368-0.826
		c-2.129,0-2.846,2.093-2.846,4.222c0,1.634,0.515,3.764,2.57,3.764c0.991,0,2.001-0.496,2.644-1.267V168.931z"/>
	<path fill="#333333" d="M227.419,179.725c-0.11-0.092-0.257-0.312-0.312-0.459c0.753-0.606,1.322-1.285,1.506-2.038
		c-0.386-0.202-0.698-0.587-0.698-1.064c0-0.514,0.404-0.899,0.863-0.899c0.587,0,1.01,0.532,1.01,1.175
		C229.787,177.467,228.942,178.77,227.419,179.725z"/>
	<path fill="#333333" d="M247.81,169.206l-2.46,7.673c-0.146,0.055-0.422,0.092-0.568,0.092c-0.166,0-0.441-0.037-0.569-0.092
		l-2.203-7.416h-0.036l-2.313,7.416c-0.165,0.055-0.422,0.092-0.568,0.092c-0.147,0-0.386-0.037-0.551-0.092l-2.276-7.562
		c-0.202-0.624-0.294-1.34-0.312-2.02c0.147-0.037,0.44-0.073,0.624-0.073c0.202,0,0.386,0.036,0.551,0.092
		c0.019,0.661,0.129,1.358,0.294,1.964l1.671,5.966h0.018l2.387-7.948c0.129-0.037,0.386-0.055,0.514-0.055
		c0.129,0,0.404,0.018,0.515,0.055l2.258,7.948h0.018l1.836-5.947c0.202-0.68,0.349-1.321,0.386-1.982
		c0.128-0.056,0.44-0.092,0.605-0.092s0.422,0.036,0.532,0.092C248.158,167.939,248.012,168.563,247.81,169.206z"/>
	<path fill="#333333" d="M253.589,177.062c-2.404,0-3.946-1.652-3.946-4.956c0-3.305,1.561-4.975,3.965-4.975
		c2.405,0,3.929,1.634,3.929,4.938C257.536,175.374,255.994,177.062,253.589,177.062z M253.607,168.031
		c-1.762,0-2.717,1.358-2.717,4.057s0.937,4.075,2.698,4.075c1.763,0,2.699-1.377,2.699-4.075S255.37,168.031,253.607,168.031z"/>
	<path fill="#333333" d="M264.142,168.196c-1.064,0.146-2.222,0.532-3.084,1.193v7.489c-0.184,0.055-0.404,0.092-0.605,0.092
		c-0.202,0-0.404-0.037-0.588-0.092v-9.563c0.11-0.037,0.275-0.073,0.459-0.073c0.146,0,0.349,0.036,0.496,0.073l0.092,1.175h0.018
		c0.79-0.68,2.166-1.248,3.213-1.358c0.036,0.11,0.073,0.312,0.073,0.478C264.215,167.793,264.178,168.031,264.142,168.196z"/>
	<path fill="#333333" d="M271.61,176.787c-0.478,0.165-1.193,0.275-1.726,0.275c-1.817,0-2.68-0.862-2.68-2.9v-5.911h-1.652
		c-0.037-0.092-0.055-0.312-0.055-0.422c0-0.092,0.018-0.312,0.055-0.403l1.652-0.11v-2.497c0.146-0.055,0.385-0.092,0.587-0.092
		s0.459,0.037,0.605,0.092v2.497h2.699c0.036,0.092,0.073,0.367,0.073,0.459c0,0.128-0.037,0.349-0.073,0.477h-2.699v5.801
		c0,1.45,0.423,2.057,1.561,2.057c0.624,0,1.23-0.092,1.652-0.221c0.037,0.092,0.073,0.312,0.073,0.44
		C271.684,176.493,271.665,176.622,271.61,176.787z"/>
	<path fill="#333333" d="M281.1,176.879c-0.165,0.055-0.367,0.092-0.551,0.092c-0.221,0-0.459-0.037-0.643-0.092v-5.801
		c0-2.019-0.514-2.937-2.221-2.937c-0.918,0-2.02,0.514-2.735,1.064v7.673c-0.202,0.055-0.422,0.092-0.624,0.092
		c-0.184,0-0.404-0.037-0.569-0.092v-13.4c0.165-0.055,0.423-0.092,0.588-0.092s0.44,0.037,0.605,0.092v4.718
		c0.973-0.753,2.129-1.064,3.028-1.064c0.937,0,1.892,0.312,2.424,0.954c0.587,0.698,0.697,1.707,0.697,2.698V176.879z"/>
</g>
<path fill="#333333" d="M233.131,123.657c-3.769,0.191-7.249,2.629-8.62,6.402c-1.831,5.024,0.762,10.579,5.788,12.409
	c5.027,1.831,10.583-0.762,12.414-5.789c1.828-5.024-0.766-10.582-5.791-12.413C235.664,123.81,234.389,123.592,233.131,123.657
	 M233.24,115.299c0.28-0.047,0.554,0.177,0.605,0.457l0.582,3.273c1.363,0.077,2.724,0.349,4.069,0.84
	c1.349,0.491,2.572,1.184,3.666,1.999l2.565-2.147c0.217-0.183,0.557-0.178,0.74,0.041l3.547,4.26
	c0.184,0.217,0.179,0.556-0.041,0.739l-2.567,2.147c1.243,2.467,1.749,5.275,1.415,8.109l3.148,1.174
	c0.268,0.097,0.427,0.377,0.329,0.645l-1.893,5.232c-0.097,0.267-0.422,0.379-0.691,0.284l-3.148-1.126
	c-1.565,2.389-3.785,4.181-6.322,5.274l0.583,3.316c0.05,0.28-0.128,0.556-0.41,0.605l-5.483,0.971
	c-0.282,0.05-0.509-0.13-0.559-0.409l-0.583-3.319c-1.363-0.08-2.77-0.351-4.118-0.84c-1.345-0.494-2.57-1.185-3.665-1.999
	l-2.564,2.192c-0.218,0.183-0.509,0.131-0.694-0.086l-3.592-4.262c-0.183-0.215-0.133-0.556,0.087-0.741l2.566-2.145
	c-1.242-2.467-1.796-5.275-1.458-8.112l-3.15-1.125c-0.267-0.097-0.381-0.424-0.284-0.691l1.893-5.232
	c0.098-0.268,0.375-0.382,0.644-0.28l3.149,1.124c1.565-2.39,3.788-4.181,6.322-5.274l-0.581-3.318
	c-0.052-0.28,0.127-0.553,0.409-0.603L233.24,115.299z M262.512,89.56c-1.339,1.274-3.028,2.192-4.886,2.584l-0.556,13.649
	c6.861-0.435,12.994-3.803,17.036-8.924L262.512,89.56z M248.075,88.974l-12.138,6.385c3.626,5.425,9.454,9.262,16.259,10.24
	l0.541-13.688C250.915,91.369,249.307,90.353,248.075,88.974 M277.481,73.494l-12.138,6.384c0.22,0.889,0.32,1.817,0.284,2.773
	c-0.038,0.958-0.218,1.875-0.506,2.744l11.597,7.307c1.428-2.884,2.274-6.073,2.41-9.495
	C279.264,79.787,278.675,76.479,277.481,73.494 M253.732,77.388c-1.907,0.71-3.287,2.48-3.373,4.66
	c-0.114,2.908,2.098,5.33,5.005,5.449c2.907,0.112,5.272-2.128,5.386-5.035c0.119-2.907-2.08-5.287-4.987-5.405
	C255.035,77.031,254.367,77.151,253.732,77.388 M234.396,71.806c-1.428,2.881-2.262,6.121-2.399,9.54
	c-0.134,3.42,0.441,6.685,1.635,9.669l12.138-6.383c-0.218-0.888-0.321-1.822-0.284-2.776c0.038-0.955,0.219-1.876,0.505-2.742
	L234.396,71.806z M267.693,123.879c-4.107,0.424-7.623,3.462-8.481,7.722c-1.057,5.247,2.342,10.351,7.586,11.406
	c5.241,1.055,10.347-2.344,11.402-7.587c1.056-5.242-2.341-10.348-7.584-11.403C269.632,123.818,268.642,123.78,267.693,123.879
	 M258.961,58.896l-0.541,13.69c1.819,0.538,3.385,1.574,4.618,2.948l12.152-6.34C271.563,63.769,265.765,59.871,258.961,58.896
	 M249.074,59.578c-4.801,1.378-9.037,4.221-12.069,8.063l11.61,7.35c1.34-1.273,3.027-2.19,4.884-2.582l0.54-13.692
	C252.325,58.829,250.676,59.117,249.074,59.578 M265.865,115.713c0.2,0.013,0.363,0.146,0.431,0.349l1.068,3.149
	c1.358-0.127,2.791-0.069,4.195,0.21c1.404,0.285,2.722,0.789,3.923,1.43l2.216-2.508c0.188-0.213,0.476-0.254,0.689-0.062
	l4.193,3.674c0.21,0.186,0.214,0.528,0.022,0.741l-2.213,2.506c1.596,2.255,2.567,4.95,2.657,7.805l3.291,0.685
	c0.28,0.056,0.433,0.314,0.377,0.594l-1.088,5.457c-0.054,0.28-0.312,0.435-0.592,0.377l-3.285-0.641
	c-1.188,2.599-3.115,4.703-5.459,6.163l1.072,3.193c0.093,0.267-0.043,0.566-0.312,0.657l-5.277,1.785
	c-0.271,0.091-0.569-0.045-0.659-0.314l-1.072-3.193c-1.358,0.127-2.746,0.062-4.152-0.222c-1.404-0.284-2.72-0.784-3.922-1.425
	l-2.207,2.551c-0.189,0.213-0.531,0.218-0.745,0.028l-4.19-3.674c-0.213-0.189-0.213-0.53-0.025-0.745l2.214-2.506
	c-1.599-2.253-2.521-4.956-2.613-7.81l-3.282-0.642c-0.277-0.056-0.486-0.353-0.429-0.631l1.092-5.412
	c0.057-0.281,0.354-0.487,0.634-0.43l3.282,0.642c1.188-2.597,3.116-4.703,5.462-6.163l-1.075-3.192
	c-0.093-0.271,0.045-0.568,0.314-0.659l5.239-1.731C265.703,115.726,265.798,115.704,265.865,115.713 M241.706,49.175
	c0.222-0.114,0.468-0.071,0.587,0.148l2.218,4.225c2.732-1.055,5.657-1.712,8.691-1.942l0.176-4.772
	c0.01-0.248,0.251-0.418,0.498-0.409l6.248,0.224c0.247,0.013,0.416,0.254,0.406,0.5l-0.189,4.729c3.007,0.469,5.86,1.374,8.5,2.64
	l2.567-4.006c0.133-0.211,0.374-0.275,0.586-0.145l5.286,3.358c0.212,0.136,0.278,0.376,0.146,0.585l-2.509,4.036
	c2.317,1.878,4.306,4.075,5.991,6.532l4.228-2.22c0.218-0.116,0.483-0.03,0.597,0.192l2.946,5.541
	c0.116,0.22,0.027,0.483-0.191,0.599l-4.228,2.22c1.055,2.735,1.714,5.658,1.942,8.69l4.773,0.176
	c0.249,0.013,0.462,0.237,0.451,0.485l-0.27,6.262c-0.009,0.248-0.204,0.403-0.452,0.392l-4.774-0.175
	c-0.47,3.007-1.37,5.858-2.638,8.5l4.048,2.552c0.212,0.134,0.233,0.392,0.102,0.601l-3.302,5.317
	c-0.131,0.211-0.435,0.246-0.644,0.116l-4.035-2.511c-1.874,2.317-4.059,4.35-6.516,6.038l2.206,4.18
	c0.114,0.222,0.026,0.485-0.191,0.597l-5.542,2.946c-0.221,0.116-0.484,0.03-0.598-0.189l-2.221-4.226
	c-2.735,1.053-5.643,1.753-8.677,1.985l-0.189,4.729c-0.013,0.246-0.191,0.448-0.441,0.436l-6.261-0.268
	c-0.248-0.008-0.445-0.189-0.438-0.439l0.177-4.772c-3.008-0.47-5.859-1.374-8.504-2.643l-2.552,4.051
	c-0.132,0.211-0.39,0.233-0.6,0.099l-5.271-3.314c-0.213-0.131-0.293-0.42-0.159-0.626l2.566-4.01
	c-2.316-1.874-4.364-4.1-6.051-6.556l-4.228,2.219c-0.218,0.116-0.479,0.028-0.599-0.194l-2.943-5.541
	c-0.117-0.217-0.028-0.483,0.191-0.597l4.226-2.223c-1.054-2.735-1.713-5.655-1.943-8.689l-4.771-0.177
	c-0.248-0.008-0.446-0.191-0.436-0.439l0.265-6.263c0.013-0.248,0.193-0.446,0.442-0.437l4.771,0.176
	c0.47-3.006,1.374-5.857,2.641-8.502l-4.036-2.507c-0.209-0.133-0.248-0.435-0.114-0.642l3.316-5.276
	c0.132-0.211,0.418-0.293,0.63-0.159l4.05,2.554c1.874-2.317,4.056-4.35,6.515-6.039l-2.218-4.226
	c-0.118-0.22-0.03-0.482,0.189-0.596L241.706,49.175z M200.759,35.7c-5.48,2.067-9.491,7.294-9.734,13.516
	c-0.331,8.295,6.134,15.279,14.43,15.609c8.295,0.328,15.279-6.138,15.605-14.433c0.331-8.293-6.133-15.277-14.43-15.604
	C204.558,34.7,202.585,35.011,200.759,35.7 M196.96,23.295c0.393-0.207,0.89-0.021,1.095,0.366l2.437,4.591
	c2.051-0.525,4.2-0.794,6.427-0.706c2.223,0.088,4.374,0.512,6.374,1.202l2.774-4.413c0.236-0.375,0.722-0.452,1.094-0.217
	l7.299,4.591c0.377,0.239,0.497,0.708,0.26,1.085l-2.816,4.427c3.002,3.06,5.135,6.995,5.978,11.347l5.21,0.177
	c0.442,0.017,0.776,0.377,0.758,0.82l-0.363,8.627c-0.02,0.439-0.377,0.771-0.821,0.756l-5.166-0.192
	c-1.185,4.272-3.647,8.009-6.881,10.824l2.437,4.591c0.204,0.392,0.066,0.872-0.323,1.076l-7.619,4.021
	c-0.392,0.205-0.875,0.067-1.079-0.325l-2.44-4.592c-2.048,0.53-4.216,0.754-6.439,0.666c-2.222-0.088-4.37-0.515-6.374-1.204
	l-2.771,4.415c-0.239,0.375-0.708,0.496-1.083,0.259l-7.299-4.591c-0.372-0.237-0.51-0.75-0.273-1.125l2.817-4.43
	c-3-3.06-5.121-6.954-5.964-11.304l-5.227-0.219c-0.438-0.018-0.772-0.379-0.756-0.821l0.364-8.627
	c0.017-0.441,0.377-0.773,0.82-0.756l5.184,0.237c1.183-4.272,3.632-8.054,6.863-10.869l-2.435-4.591
	c-0.208-0.394-0.067-0.872,0.321-1.079L196.96,23.295z"/>
<g>
	<path fill="#59A6AE" d="M45.53,250.396H7.636c-0.435-0.956-0.869-3.216-0.869-4.867c0-1.217,0.174-2.955,0.348-4.172
		c4.954-1.825,6.866-4.867,6.866-10.604v-6.692H7.549c-0.261-1.564-0.521-3.737-0.521-4.867c0-1.564,0.174-3.39,0.521-4.867h6.432
		v-4.433c0-11.733,6.866-19.121,19.469-19.121c4.606,0,9.474,0.956,12.255,2.086c0.261,0.869,0.435,3.042,0.435,3.998
		c0,1.564-0.261,3.998-0.608,5.736c-2.694-1.043-7.04-1.825-10.69-1.825c-5.997,0-8.431,2.955-8.431,9.213v4.346h12.863
		c0.348,1.478,0.521,3.303,0.521,4.867c0,1.13-0.174,3.39-0.521,4.867H26.409v6.258c0,4.085-1.478,7.648-5.302,10.169v0.087h24.336
		c0.348,1.217,0.521,3.477,0.521,5.041C45.965,247.007,45.791,249.006,45.53,250.396z"/>
	<path fill="#59A6AE" d="M88.555,250.396H51.443c-0.782-1.825-1.043-4.085-1.043-6.084c0-1.043,0.087-2.347,0.261-3.216
		c6.084-6.171,12.603-13.124,18.339-19.556c4.259-4.78,7.648-9.213,7.648-14.08c0-4.259-2.955-6.692-8.17-6.692
		c-3.824,0-9.908,1.304-15.558,3.998c-0.348-1.478-0.695-4.085-0.695-6.171c0-1.043,0.174-3.129,0.521-4.52
		c4.259-1.825,11.125-3.477,17.817-3.477c9.908,0,18.6,4.606,18.6,15.297c0,9.387-5.041,15.731-15.818,27.03
		c-2.086,2.26-4.346,4.433-6.605,6.779h21.989c0.261,1.13,0.435,3.303,0.435,5.389C89.164,246.833,88.903,249.18,88.555,250.396z"/>
	<path fill="#59A6AE" d="M112.98,251.266c-11.038,0-21.555-5.736-21.555-16.861c0-6.692,4.693-12.429,11.038-15.384
		c-4.606-2.781-8.604-7.127-8.604-12.603c0-9.647,9.039-15.731,19.295-15.731c10.082,0,18.86,5.302,18.86,14.515
		c0,5.91-3.998,10.517-8.865,13.298c6.605,2.955,11.212,8.083,11.212,14.688C134.361,244.921,123.671,251.266,112.98,251.266z
		 M112.459,224.322c-4.433,1.999-8.257,5.302-8.257,9.647c0,4.172,3.563,7.648,8.865,7.648c5.215,0,8.518-3.39,8.518-7.735
		S117.5,226.408,112.459,224.322z M112.98,200.16c-3.65,0-6.779,2.26-6.779,5.649c0,3.737,2.868,6.432,7.04,8.083
		c3.737-1.738,6.432-4.693,6.432-7.996C119.673,202.246,116.892,200.16,112.98,200.16z"/>
	<path fill="#59A6AE" d="M149.313,251.787c-3.477,0-6.345-2.868-6.345-6.345s2.868-6.345,6.345-6.345s6.345,2.868,6.345,6.345
		S152.79,251.787,149.313,251.787z"/>
	<path fill="#59A6AE" d="M179.822,251.266c-15.818,0-21.902-11.125-21.902-27.552c0-18.513,6.866-32.94,26.074-32.94
		c3.303,0,7.909,0.521,9.821,1.217c0.348,1.217,0.435,3.216,0.435,4.172c0,1.651-0.174,3.911-0.608,5.128
		c-2.26-0.348-5.562-0.608-8.083-0.608c-8.431,0-13.472,5.128-14.428,14.602c2.694-1.738,7.301-3.216,11.56-3.216
		c10.43,0,17.035,7.822,17.035,18.339C199.726,242.14,191.99,251.266,179.822,251.266z M179.909,221.715
		c-3.737,0-7.475,1.564-9.3,3.303c-0.087,0.869-0.087,1.999-0.087,3.303c0,5.389,1.912,13.037,8.952,13.037
		c4.867,0,7.388-4.606,7.388-10.343C186.862,225.365,184.603,221.715,179.909,221.715z"/>
	<path fill="#59A6AE" d="M277.69,250.396c-1.391,0.348-4.346,0.435-5.736,0.435c-1.478,0-4.867-0.174-6.258-0.435v-27.291
		c0-3.303-0.087-5.736-1.304-7.214c-1.13-1.391-2.868-1.912-5.041-1.912c-2.955,0-7.127,1.304-9.821,2.955
		c0.087,1.478,0.174,2.955,0.174,4.693v28.769c-1.391,0.348-4.346,0.435-5.736,0.435c-1.478,0-4.867-0.174-6.258-0.435v-27.291
		c0-3.303-0.087-5.736-1.304-7.214c-1.13-1.391-2.868-1.912-5.041-1.912c-3.042,0-6.953,1.217-9.647,2.868v33.549
		c-1.999,0.348-4.78,0.435-6.345,0.435c-1.391,0-3.911-0.087-5.649-0.435v-45.282c1.13-0.261,3.911-0.435,5.215-0.435
		c1.217,0,3.737,0.174,5.041,0.435l0.521,4.085c3.824-2.868,9.3-4.954,14.167-4.954c5.041,0,9.474,1.738,12.863,5.476
		c4.693-3.216,10.343-5.476,16.079-5.476c4.259,0,8.604,1.738,10.777,4.346c2.694,3.216,3.303,7.388,3.303,13.732V250.396z"/>
</g>
</svg>
