<?xml version="1.0" encoding="utf-8"?>
<!-- Generator: Adobe Illustrator 16.0.0, SVG Export Plug-In . SVG Version: 6.00 Build 0)  -->
<!DOCTYPE svg PUBLIC "-//W3C//DTD SVG 1.1//EN" "http://www.w3.org/Graphics/SVG/1.1/DTD/svg11.dtd">
<svg version="1.1" id="Layer_1" xmlns="http://www.w3.org/2000/svg" xmlns:xlink="http://www.w3.org/1999/xlink" x="0px" y="0px"
	 width="300px" height="300px" viewBox="0 0 300 300" enable-background="new 0 0 300 300" xml:space="preserve">
<g>
	<path fill="#333333" d="M10,102.844c-3.471,0-5.289-2.603-5.289-7.19c0-4.586,1.818-7.189,5.289-7.189
		c3.471,0,5.289,2.603,5.289,7.189C15.289,100.241,13.471,102.844,10,102.844z M10,89.518c-2.5,0-3.802,2.004-3.802,6.136
		c0,4.132,1.302,6.136,3.802,6.136s3.801-2.004,3.801-6.136C13.801,91.522,12.5,89.518,10,89.518z"/>
	<path fill="#333333" d="M25.808,98.546c0,3.141-1.301,4.297-4.029,4.297c-2.789,0-3.967-1.157-3.967-4.194v-6.777
		c0.186-0.062,0.434-0.103,0.661-0.103c0.29,0,0.517,0.062,0.682,0.103v6.611c0,2.004,0.31,3.326,2.645,3.326
		c2.19,0,2.665-1.281,2.665-3.367v-6.57c0.165-0.062,0.455-0.103,0.682-0.103c0.228,0,0.475,0.041,0.661,0.103V98.546z"/>
	<path fill="#333333" d="M33.372,92.865c-1.198,0.166-2.5,0.599-3.471,1.343v8.429c-0.207,0.062-0.455,0.104-0.682,0.104
		c-0.227,0-0.455-0.042-0.661-0.104V91.873c0.124-0.041,0.31-0.083,0.517-0.083c0.166,0,0.393,0.042,0.558,0.083l0.104,1.322h0.021
		c0.889-0.764,2.438-1.405,3.616-1.529c0.042,0.124,0.083,0.351,0.083,0.537C33.455,92.41,33.414,92.679,33.372,92.865z"/>
	<path fill="#333333" d="M44.014,102.741c-1.384,0-2.521-0.042-3.657-0.104V88.671c0.826-0.042,1.921-0.104,2.975-0.104
		c3.161,0,4.71,0.889,4.71,3.45c0,1.55-0.785,2.686-2.066,3.099c1.942,0.228,3.182,1.57,3.182,3.554
		C49.159,101.521,46.948,102.741,44.014,102.741z M43.333,89.58c-0.352,0-1.033,0.021-1.57,0.062v5.124h1.611
		c1.797,0,3.306-0.393,3.306-2.727C46.679,89.931,45.088,89.58,43.333,89.58z M46.576,96.336c-0.661-0.414-1.384-0.537-2.417-0.537
		h-2.396v5.847c0.641,0.062,1.302,0.083,2.086,0.083c2.376,0,3.822-0.909,3.822-3.037C47.671,97.617,47.299,96.791,46.576,96.336z"
		/>
	<path fill="#333333" d="M59.244,97.617h-6.921c0.083,2.376,1.198,4.173,3.781,4.173c0.93,0,1.797-0.124,2.562-0.31
		c0.041,0.103,0.083,0.31,0.083,0.434c0,0.207-0.042,0.393-0.104,0.537c-0.806,0.248-1.818,0.393-2.665,0.393
		c-1.632,0-2.872-0.517-3.636-1.343c-0.909-0.992-1.384-2.479-1.384-4.194c0-2.996,1.508-5.64,4.525-5.64
		c2.707,0,3.781,2.231,3.781,4.958C59.264,96.935,59.264,97.307,59.244,97.617z M57.921,96.625c0-1.901-0.207-3.946-2.5-3.946
		c-2.004,0-2.975,1.839-3.099,3.946H57.921z"/>
	<path fill="#333333" d="M62.902,102.637c-0.227,0.062-0.455,0.104-0.702,0.104c-0.207,0-0.455-0.042-0.641-0.104V87.555
		c0.186-0.042,0.413-0.104,0.682-0.104c0.228,0,0.475,0.042,0.661,0.104V102.637z"/>
	<path fill="#333333" d="M71.849,88.443c-0.31-0.083-0.868-0.165-1.301-0.165c-0.785,0-1.364,0.207-1.756,0.641
		c-0.599,0.64-0.702,1.508-0.702,2.603v0.351h2.913c0.041,0.104,0.083,0.352,0.083,0.496c0,0.165-0.042,0.413-0.083,0.558h-2.913
		v9.71c-0.186,0.062-0.393,0.104-0.661,0.104c-0.269,0-0.496-0.042-0.682-0.104v-9.71h-1.859c-0.041-0.103-0.062-0.372-0.062-0.496
		c0-0.104,0.021-0.331,0.062-0.434l1.859-0.124v-0.351c0-1.467,0.248-2.479,1.095-3.326c0.599-0.599,1.487-0.889,2.5-0.889
		c0.537,0,1.136,0.124,1.508,0.269c0.042,0.104,0.062,0.248,0.062,0.393C71.911,88.092,71.89,88.34,71.849,88.443z"/>
	<path fill="#333333" d="M80.052,99.993c0,0.744,0,1.673,0.042,2.645c-0.145,0.062-0.372,0.104-0.558,0.104
		c-0.166,0-0.393-0.042-0.558-0.104c-0.062-0.331-0.103-0.765-0.124-1.157h-0.021c-0.703,0.868-1.942,1.363-3.161,1.363
		c-1.921,0-3.533-1.074-3.533-3.285c0-1.26,0.517-2.19,1.322-2.768c0.909-0.641,2.107-0.847,3.388-0.847
		c0.723,0,1.322,0.041,1.859,0.124v-0.599c0-2.066-0.847-2.748-2.583-2.748c-0.971,0-2.169,0.207-2.913,0.393
		c-0.042-0.104-0.083-0.331-0.083-0.537c0-0.145,0.041-0.351,0.103-0.475c0.889-0.269,2.066-0.434,3.058-0.434
		c2.458,0,3.76,1.116,3.76,3.636V99.993z M78.709,97.08c-0.599-0.083-1.219-0.124-1.756-0.124c-1.013,0-1.921,0.186-2.542,0.661
		c-0.558,0.413-0.868,1.074-0.868,1.921c0,1.508,0.971,2.231,2.314,2.231c1.116,0,2.293-0.537,2.851-1.384V97.08z"/>
	<path fill="#333333" d="M85.302,102.844c-1.033,0-2.107-0.186-2.851-0.475c-0.062-0.145-0.103-0.393-0.103-0.579
		c0-0.124,0.041-0.434,0.083-0.558c0.765,0.31,1.859,0.558,2.769,0.558c1.57,0,2.541-0.661,2.541-1.963
		c0-1.177-0.599-1.591-2.231-2.19c-2.273-0.826-3.017-1.777-3.017-3.182c0-1.901,1.57-2.789,3.595-2.789
		c0.682,0,1.57,0.124,2.087,0.289c0.062,0.186,0.083,0.372,0.083,0.496c0,0.165-0.041,0.455-0.083,0.599
		c-0.682-0.207-1.405-0.331-2.107-0.331c-1.467,0-2.355,0.558-2.355,1.694c0,0.992,0.558,1.467,2.252,2.107
		c1.55,0.579,2.976,1.157,2.976,3.244C88.939,101.873,87.348,102.844,85.302,102.844z"/>
	<path fill="#333333" d="M96.667,102.534c-0.537,0.186-1.343,0.31-1.942,0.31c-2.045,0-3.016-0.971-3.016-3.264v-6.653H89.85
		c-0.042-0.103-0.062-0.351-0.062-0.475c0-0.104,0.021-0.351,0.062-0.455l1.859-0.124v-2.81c0.165-0.062,0.434-0.104,0.661-0.104
		c0.227,0,0.517,0.042,0.682,0.104v2.81h3.037c0.042,0.104,0.083,0.413,0.083,0.517c0,0.145-0.041,0.393-0.083,0.537h-3.037v6.529
		c0,1.632,0.475,2.314,1.756,2.314c0.702,0,1.384-0.104,1.859-0.248c0.041,0.104,0.083,0.351,0.083,0.496
		C96.75,102.203,96.729,102.348,96.667,102.534z"/>
	<path fill="#333333" d="M106.938,102.844c-1.24,0-2.666-0.227-3.74-0.62c-0.062-0.166-0.104-0.372-0.104-0.599
		c0-0.207,0.042-0.455,0.083-0.62c1.095,0.434,2.583,0.703,3.657,0.703c2.087,0,3.182-0.93,3.182-2.645
		c0-1.508-0.806-2.19-2.334-2.748l-1.24-0.455c-2.066-0.764-3.244-1.756-3.244-3.739c0-2.314,1.839-3.657,4.442-3.657
		c1.012,0,2.045,0.145,2.975,0.393c0.062,0.124,0.083,0.331,0.083,0.516c0,0.166-0.041,0.434-0.103,0.579
		c-0.868-0.269-1.88-0.393-2.872-0.393c-1.529,0-3.078,0.537-3.078,2.479c0,1.549,0.785,2.086,2.541,2.748l1.095,0.413
		c1.901,0.723,3.12,1.694,3.12,3.719C111.4,101.604,109.541,102.844,106.938,102.844z"/>
	<path fill="#333333" d="M120.659,93.175c-0.661-0.269-1.529-0.434-2.293-0.434c-2.686,0-3.678,2.087-3.678,4.607
		c0,2.479,0.951,4.401,3.657,4.401c0.723,0,1.591-0.124,2.231-0.31c0.042,0.124,0.083,0.269,0.083,0.434
		c0,0.248-0.042,0.434-0.104,0.579c-0.599,0.248-1.57,0.393-2.334,0.393c-3.368,0-4.938-2.21-4.938-5.454
		c0-3.368,1.715-5.723,5-5.723c0.785,0,1.715,0.186,2.355,0.475c0.062,0.166,0.083,0.331,0.083,0.517
		C120.721,92.865,120.7,93.03,120.659,93.175z"/>
	<path fill="#333333" d="M131.135,102.637c-0.186,0.062-0.413,0.104-0.62,0.104c-0.248,0-0.517-0.042-0.723-0.104v-6.529
		c0-2.272-0.579-3.306-2.5-3.306c-1.033,0-2.272,0.579-3.078,1.198v8.636c-0.228,0.062-0.476,0.104-0.703,0.104
		c-0.207,0-0.455-0.042-0.641-0.104V87.555c0.186-0.062,0.475-0.104,0.661-0.104s0.496,0.042,0.682,0.104v5.31
		c1.095-0.847,2.396-1.198,3.409-1.198c1.054,0,2.128,0.351,2.727,1.074c0.661,0.785,0.785,1.921,0.785,3.037V102.637z"/>
	<path fill="#333333" d="M137.728,102.844c-2.707,0-4.442-1.859-4.442-5.578s1.756-5.599,4.463-5.599s4.421,1.839,4.421,5.558
		S140.435,102.844,137.728,102.844z M137.749,92.679c-1.983,0-3.058,1.529-3.058,4.566c0,3.037,1.054,4.587,3.037,4.587
		s3.037-1.55,3.037-4.587C140.765,94.208,139.732,92.679,137.749,92.679z"/>
	<path fill="#333333" d="M148.226,102.844c-2.707,0-4.442-1.859-4.442-5.578s1.756-5.599,4.463-5.599s4.421,1.839,4.421,5.558
		S150.932,102.844,148.226,102.844z M148.247,92.679c-1.983,0-3.058,1.529-3.058,4.566c0,3.037,1.054,4.587,3.037,4.587
		s3.038-1.55,3.038-4.587C151.264,94.208,150.23,92.679,148.247,92.679z"/>
	<path fill="#333333" d="M156.266,102.637c-0.229,0.062-0.455,0.104-0.703,0.104c-0.207,0-0.455-0.042-0.641-0.104V87.555
		c0.186-0.042,0.414-0.104,0.682-0.104c0.229,0,0.477,0.042,0.662,0.104V102.637z"/>
	<path fill="#333333" d="M167.506,102.844c-2.707,0-4.443-1.859-4.443-5.578s1.756-5.599,4.463-5.599s4.422,1.839,4.422,5.558
		S170.211,102.844,167.506,102.844z M167.525,92.679c-1.982,0-3.057,1.529-3.057,4.566c0,3.037,1.053,4.587,3.037,4.587
		c1.982,0,3.037-1.55,3.037-4.587C170.543,94.208,169.51,92.679,167.525,92.679z"/>
	<path fill="#333333" d="M180.256,88.443c-0.311-0.083-0.869-0.165-1.303-0.165c-0.785,0-1.363,0.207-1.756,0.641
		c-0.6,0.64-0.703,1.508-0.703,2.603v0.351h2.914c0.041,0.104,0.082,0.352,0.082,0.496c0,0.165-0.041,0.413-0.082,0.558h-2.914v9.71
		c-0.186,0.062-0.393,0.104-0.66,0.104c-0.27,0-0.496-0.042-0.682-0.104v-9.71h-1.859c-0.041-0.103-0.062-0.372-0.062-0.496
		c0-0.104,0.021-0.331,0.062-0.434l1.859-0.124v-0.351c0-1.467,0.248-2.479,1.094-3.326c0.6-0.599,1.488-0.889,2.5-0.889
		c0.537,0,1.137,0.124,1.51,0.269c0.041,0.104,0.061,0.248,0.061,0.393C180.316,88.092,180.297,88.34,180.256,88.443z"/>
	<path fill="#333333" d="M196.744,102.637c-0.164,0.062-0.434,0.104-0.723,0.104c-0.248,0-0.559-0.042-0.744-0.104l-1.26-3.616
		h-5.764l-1.221,3.636c-0.145,0.042-0.475,0.083-0.701,0.083c-0.248,0-0.518-0.042-0.723-0.104l4.752-13.966
		c0.227-0.062,0.494-0.104,0.701-0.104c0.229,0,0.477,0.042,0.662,0.104L196.744,102.637z M191.703,92.452
		c-0.207-0.558-0.455-1.364-0.641-2.087c-0.207,0.703-0.453,1.529-0.641,2.087l-1.818,5.475h5.021L191.703,92.452z"/>
	<path fill="#333333" d="M203.379,92.865c-1.197,0.166-2.5,0.599-3.471,1.343v8.429c-0.207,0.062-0.455,0.104-0.682,0.104
		s-0.455-0.042-0.66-0.104V91.873c0.123-0.041,0.309-0.083,0.516-0.083c0.166,0,0.393,0.042,0.559,0.083l0.104,1.322h0.02
		c0.889-0.764,2.438-1.405,3.615-1.529c0.041,0.124,0.084,0.351,0.084,0.537C203.463,92.41,203.42,92.679,203.379,92.865z"/>
	<path fill="#333333" d="M211.377,102.534c-0.537,0.186-1.344,0.31-1.943,0.31c-2.045,0-3.016-0.971-3.016-3.264v-6.653h-1.859
		c-0.041-0.103-0.062-0.351-0.062-0.475c0-0.104,0.021-0.351,0.062-0.455l1.859-0.124v-2.81c0.166-0.062,0.434-0.104,0.66-0.104
		c0.229,0,0.518,0.042,0.684,0.104v2.81h3.037c0.041,0.104,0.082,0.413,0.082,0.517c0,0.145-0.041,0.393-0.082,0.537h-3.037v6.529
		c0,1.632,0.475,2.314,1.756,2.314c0.701,0,1.383-0.104,1.859-0.248c0.041,0.104,0.082,0.351,0.082,0.496
		C211.459,102.203,211.438,102.348,211.377,102.534z"/>
	<path fill="#333333" d="M221.234,102.844c-0.951,0-2.17-0.145-3.307-0.558V87.555c0.145-0.042,0.455-0.104,0.641-0.104
		c0.33,0,0.578,0.062,0.703,0.104v5.227c0.846-0.703,1.92-1.116,3.057-1.116c2.914,0,4.133,2.5,4.133,5.289
		C226.461,100.509,224.643,102.844,221.234,102.844z M222.143,92.824c-1.033,0-2.066,0.434-2.871,1.239v7.417
		c0.557,0.207,1.26,0.33,1.859,0.33c2.871,0,3.926-2.19,3.926-4.772C225.057,95.034,224.477,92.824,222.143,92.824z"/>
	<path fill="#333333" d="M232.537,102.844c-2.707,0-4.441-1.859-4.441-5.578s1.756-5.599,4.463-5.599c2.705,0,4.42,1.839,4.42,5.558
		S235.244,102.844,232.537,102.844z M232.559,92.679c-1.984,0-3.059,1.529-3.059,4.566c0,3.037,1.055,4.587,3.037,4.587
		c1.984,0,3.037-1.55,3.037-4.587C235.574,94.208,234.541,92.679,232.559,92.679z"/>
	<path fill="#333333" d="M246.547,99.993c0,0.744,0,1.673,0.041,2.645c-0.145,0.062-0.371,0.104-0.559,0.104
		c-0.164,0-0.393-0.042-0.557-0.104c-0.062-0.331-0.104-0.765-0.125-1.157h-0.02c-0.703,0.868-1.943,1.363-3.162,1.363
		c-1.92,0-3.533-1.074-3.533-3.285c0-1.26,0.518-2.19,1.322-2.768c0.91-0.641,2.107-0.847,3.389-0.847
		c0.725,0,1.322,0.041,1.859,0.124v-0.599c0-2.066-0.846-2.748-2.582-2.748c-0.971,0-2.17,0.207-2.912,0.393
		c-0.043-0.104-0.084-0.331-0.084-0.537c0-0.145,0.041-0.351,0.104-0.475c0.889-0.269,2.066-0.434,3.059-0.434
		c2.457,0,3.76,1.116,3.76,3.636V99.993z M245.203,97.08c-0.598-0.083-1.219-0.124-1.756-0.124c-1.012,0-1.922,0.186-2.541,0.661
		c-0.559,0.413-0.867,1.074-0.867,1.921c0,1.508,0.971,2.231,2.314,2.231c1.115,0,2.293-0.537,2.85-1.384V97.08z"/>
	<path fill="#333333" d="M251.797,102.844c-1.033,0-2.107-0.186-2.852-0.475c-0.061-0.145-0.104-0.393-0.104-0.579
		c0-0.124,0.043-0.434,0.084-0.558c0.764,0.31,1.859,0.558,2.768,0.558c1.57,0,2.541-0.661,2.541-1.963
		c0-1.177-0.598-1.591-2.23-2.19c-2.273-0.826-3.016-1.777-3.016-3.182c0-1.901,1.568-2.789,3.594-2.789
		c0.682,0,1.57,0.124,2.086,0.289c0.062,0.186,0.084,0.372,0.084,0.496c0,0.165-0.041,0.455-0.084,0.599
		c-0.682-0.207-1.404-0.331-2.105-0.331c-1.469,0-2.355,0.558-2.355,1.694c0,0.992,0.557,1.467,2.252,2.107
		c1.549,0.579,2.975,1.157,2.975,3.244C255.434,101.873,253.842,102.844,251.797,102.844z"/>
	<path fill="#333333" d="M263.182,102.534c-0.537,0.186-1.342,0.31-1.941,0.31c-2.045,0-3.018-0.971-3.018-3.264v-6.653h-1.859
		c-0.041-0.103-0.061-0.351-0.061-0.475c0-0.104,0.02-0.351,0.061-0.455l1.859-0.124v-2.81c0.166-0.062,0.436-0.104,0.662-0.104
		s0.516,0.042,0.682,0.104v2.81h3.037c0.041,0.104,0.082,0.413,0.082,0.517c0,0.145-0.041,0.393-0.082,0.537h-3.037v6.529
		c0,1.632,0.475,2.314,1.756,2.314c0.703,0,1.385-0.104,1.859-0.248c0.041,0.104,0.084,0.351,0.084,0.496
		C263.266,102.203,263.244,102.348,263.182,102.534z"/>
	<path fill="#333333" d="M267.584,102.844c-1.033,0-2.107-0.186-2.852-0.475c-0.061-0.145-0.104-0.393-0.104-0.579
		c0-0.124,0.043-0.434,0.084-0.558c0.764,0.31,1.859,0.558,2.768,0.558c1.57,0,2.541-0.661,2.541-1.963
		c0-1.177-0.598-1.591-2.23-2.19c-2.273-0.826-3.016-1.777-3.016-3.182c0-1.901,1.568-2.789,3.594-2.789
		c0.682,0,1.57,0.124,2.086,0.289c0.062,0.186,0.084,0.372,0.084,0.496c0,0.165-0.041,0.455-0.084,0.599
		c-0.682-0.207-1.404-0.331-2.105-0.331c-1.469,0-2.355,0.558-2.355,1.694c0,0.992,0.557,1.467,2.252,2.107
		c1.549,0.579,2.975,1.157,2.975,3.244C271.221,101.873,269.629,102.844,267.584,102.844z"/>
</g>
<g>
	<path fill="#66A827" d="M28.031,147.727H6.374c-0.457-1.065-0.608-2.384-0.608-3.551c0-0.608,0.05-1.369,0.152-1.876
		c3.55-3.602,7.354-7.659,10.702-11.412c2.485-2.79,4.463-5.377,4.463-8.217c0-2.485-1.725-3.905-4.768-3.905
		c-2.232,0-5.782,0.761-9.079,2.333c-0.203-0.862-0.406-2.384-0.406-3.602c0-0.608,0.102-1.825,0.304-2.637
		c2.485-1.065,6.492-2.029,10.397-2.029c5.782,0,10.854,2.688,10.854,8.927c0,5.478-2.942,9.181-9.231,15.774
		c-1.217,1.318-2.536,2.586-3.854,3.956h12.832c0.152,0.659,0.254,1.927,0.254,3.145C28.386,145.647,28.234,147.017,28.031,147.727z
		"/>
	<path fill="#66A827" d="M63.029,119.628H53.95v28.099c-0.964,0.152-2.333,0.254-3.601,0.254s-2.638-0.102-3.652-0.254v-28.099
		h-9.079c-0.203-0.66-0.355-2.232-0.355-3.095c0-0.861,0.203-2.434,0.406-3.094h25.36c0.203,0.66,0.355,2.232,0.355,3.094
		C63.384,117.396,63.232,118.968,63.029,119.628z"/>
	<path fill="#66A827" d="M87.68,137.532c0,7.557-3.55,10.701-11.462,10.701c-7.709,0-11.26-3.145-11.26-10.701v-16.23
		c0.71-0.102,2.08-0.254,3.449-0.254c1.217,0,2.739,0.102,3.55,0.254v16.18c0,3.956,1.167,5.376,4.362,5.376
		c3.246,0,4.362-1.42,4.362-5.376v-16.18c0.71-0.152,2.282-0.254,3.55-0.254s2.942,0.152,3.449,0.254V137.532z"/>
	<path fill="#66A827" d="M107.361,126.678c-2.637,0.405-5.478,1.318-8.014,2.638v18.411c-0.71,0.152-2.231,0.254-3.449,0.254
		c-1.217,0-2.992-0.102-3.55-0.254v-26.425c0.761-0.102,2.029-0.254,3.043-0.254c0.862,0,2.231,0.102,2.941,0.254l0.406,3.246
		c1.876-1.674,5.274-3.5,8.571-3.754c0.102,0.406,0.203,1.877,0.203,2.942C107.513,124.75,107.462,125.968,107.361,126.678z"/>
	<path fill="#66A827" d="M134.041,147.727c-0.812,0.203-2.536,0.254-3.348,0.254c-0.862,0-2.84-0.102-3.652-0.254V130.38
		c0-2.738-1.42-3.905-3.703-3.905c-1.826,0-3.905,0.659-5.528,1.674v19.578c-1.167,0.203-2.79,0.254-3.703,0.254
		c-0.812,0-2.282-0.051-3.297-0.254v-26.425c0.66-0.152,2.283-0.254,3.043-0.254c0.71,0,2.181,0.102,2.941,0.254l0.355,2.333
		c2.282-1.674,5.579-2.841,8.521-2.841c5.579,0,8.369,3.449,8.369,9.231V147.727z"/>
	<path fill="#66A827" d="M160.67,136.974h-16.028c0.102,3.297,2.384,5.731,6.797,5.731c2.383,0,4.818-0.304,6.896-0.862
		c0.305,1.37,0.508,2.892,0.508,4.261c0,0.203,0,0.456-0.051,1.015c-2.586,0.761-5.275,1.115-7.913,1.115
		c-9.637,0-13.644-5.528-13.644-13.593c0-7.05,3.956-13.847,12.528-13.847c8.116,0,11.058,5.985,11.058,12.579
		C160.822,134.286,160.822,135.655,160.67,136.974z M153.822,131.952c0-3.195-0.861-5.883-4.159-5.883
		c-3.145,0-4.818,2.485-5.021,5.883H153.822z"/>
	<path fill="#66A827" d="M179.133,126.678c-2.637,0.405-5.479,1.318-8.014,2.638v18.411c-0.711,0.152-2.232,0.254-3.449,0.254
		s-2.992-0.102-3.551-0.254v-26.425c0.762-0.102,2.029-0.254,3.043-0.254c0.863,0,2.232,0.102,2.943,0.254l0.404,3.246
		c1.877-1.674,5.275-3.5,8.572-3.754c0.102,0.406,0.203,1.877,0.203,2.942C179.285,124.75,179.234,125.968,179.133,126.678z"/>
	<path fill="#66A827" d="M203.174,135.452h-3.551v12.274c-0.963,0.152-2.129,0.254-3.65,0.254c-1.369,0-2.639-0.102-3.602-0.254
		V113.49c2.941-0.152,7.404-0.304,10.297-0.304c7.76,0,13.389,2.688,13.389,10.752C216.057,131.801,211.137,135.452,203.174,135.452
		z M202.971,119.171c-1.014,0-2.332,0.051-3.348,0.102v10.094h3.146c3.904,0,5.984-1.015,5.984-5.174
		C208.754,120.642,206.979,119.171,202.971,119.171z"/>
	<path fill="#66A827" d="M234.369,126.678c-2.639,0.405-5.479,1.318-8.014,2.638v18.411c-0.711,0.152-2.232,0.254-3.449,0.254
		c-1.219,0-2.994-0.102-3.551-0.254v-26.425c0.76-0.102,2.029-0.254,3.043-0.254c0.861,0,2.232,0.102,2.941,0.254l0.406,3.246
		c1.877-1.674,5.275-3.5,8.572-3.754c0.102,0.406,0.201,1.877,0.201,2.942C234.52,124.75,234.471,125.968,234.369,126.678z"/>
	<path fill="#66A827" d="M241.672,118.41c-2.129,0-3.854-1.725-3.854-3.854c0-2.13,1.725-3.855,3.854-3.855
		c2.131,0,3.855,1.725,3.855,3.855C245.527,116.686,243.803,118.41,241.672,118.41z M245.172,147.727
		c-0.912,0.203-2.789,0.254-3.6,0.254c-1.219,0-2.537-0.102-3.398-0.254v-26.425c1.115-0.152,2.484-0.254,3.398-0.254
		c1.217,0,2.484,0.102,3.6,0.254V147.727z"/>
	<path fill="#66A827" d="M270.939,125.866l-12.529,16.535h11.971c0.203,0.608,0.305,1.521,0.305,2.688
		c0,0.608-0.051,1.877-0.254,2.638h-20.49c-0.203-0.659-0.406-1.775-0.406-2.435c0-0.608,0.102-1.521,0.203-2.181l12.426-16.484
		h-11.412c-0.203-0.761-0.305-1.725-0.305-2.739c0-0.761,0.152-2.028,0.355-2.586h19.934c0.203,0.608,0.406,1.572,0.406,2.435
		C271.143,124.345,271.041,125.46,270.939,125.866z"/>
	<path fill="#66A827" d="M296.096,136.974h-16.027c0.102,3.297,2.385,5.731,6.797,5.731c2.385,0,4.818-0.304,6.898-0.862
		c0.305,1.37,0.506,2.892,0.506,4.261c0,0.203,0,0.456-0.051,1.015c-2.586,0.761-5.273,1.115-7.912,1.115
		c-9.637,0-13.643-5.528-13.643-13.593c0-7.05,3.955-13.847,12.527-13.847c8.115,0,11.057,5.985,11.057,12.579
		C296.248,134.286,296.248,135.655,296.096,136.974z M289.25,131.952c0-3.195-0.863-5.883-4.16-5.883
		c-3.145,0-4.818,2.485-5.021,5.883H289.25z"/>
</g>
<g>
	<path fill="#66A827" d="M38.023,192.816c-0.659,0.102-1.978,0.254-3.398,0.254c-1.369,0-2.739-0.152-3.652-0.254l-4.159-16.94
		c-0.457-1.775-0.71-3.703-0.913-5.376H25.85c-0.152,1.673-0.558,3.651-0.964,5.376l-4.108,16.94
		c-0.913,0.102-2.333,0.254-3.651,0.254c-1.268,0-2.79-0.152-3.5-0.254L5.968,167.71c-0.812-2.638-1.319-5.782-1.319-9.181
		c1.065-0.203,2.384-0.253,3.5-0.253c1.876,0,2.79,0.101,3.601,0.253c0,3.297,0.457,6.036,1.065,8.369l3.094,11.717
		c0.457,1.825,0.913,4.209,1.167,6.492h0.101c0.254-2.283,0.66-4.667,1.116-6.543l4.768-20.035c0.913-0.152,1.775-0.253,2.688-0.253
		c0.964,0,1.826,0.101,2.79,0.253l4.869,20.086c0.457,1.825,0.964,4.209,1.217,6.492h0.102c0.254-2.283,0.71-4.667,1.217-6.543
		l3.246-11.666c0.66-2.333,1.167-5.072,1.167-8.369c0.812-0.152,2.283-0.253,3.804-0.253c1.014,0,2.384,0.101,3.348,0.253
		c0,3.754-0.558,6.594-1.37,9.181L38.023,192.816z"/>
	<path fill="#66A827" d="M54.712,163.5c-2.13,0-3.855-1.725-3.855-3.854s1.725-3.854,3.855-3.854s3.854,1.725,3.854,3.854
		S56.842,163.5,54.712,163.5z M58.211,192.816c-0.913,0.203-2.79,0.254-3.601,0.254c-1.217,0-2.536-0.102-3.398-0.254v-26.425
		c1.116-0.152,2.485-0.254,3.398-0.254c1.217,0,2.485,0.102,3.601,0.254V192.816z"/>
	<path fill="#66A827" d="M86.615,192.816c-0.812,0.203-2.536,0.254-3.348,0.254c-0.862,0-2.84-0.102-3.652-0.254V175.47
		c0-2.738-1.42-3.905-3.703-3.905c-1.826,0-3.905,0.659-5.528,1.674v19.578c-1.167,0.203-2.79,0.254-3.703,0.254
		c-0.812,0-2.282-0.051-3.297-0.254v-26.425c0.66-0.152,2.283-0.254,3.043-0.254c0.71,0,2.181,0.102,2.941,0.254l0.355,2.333
		c2.282-1.674,5.579-2.841,8.521-2.841c5.579,0,8.369,3.449,8.369,9.231V192.816z"/>
	<path fill="#66A827" d="M114.562,192.816c-0.812,0.203-2.536,0.254-3.348,0.254c-0.862,0-2.84-0.102-3.652-0.254V175.47
		c0-2.738-1.42-3.905-3.703-3.905c-1.826,0-3.905,0.659-5.528,1.674v19.578c-1.167,0.203-2.79,0.254-3.703,0.254
		c-0.812,0-2.282-0.051-3.297-0.254v-26.425c0.66-0.152,2.283-0.254,3.043-0.254c0.71,0,2.181,0.102,2.942,0.254l0.355,2.333
		c2.282-1.674,5.579-2.841,8.521-2.841c5.579,0,8.369,3.449,8.369,9.231V192.816z"/>
	<path fill="#66A827" d="M141.191,182.063h-16.027c0.101,3.297,2.384,5.731,6.796,5.731c2.384,0,4.818-0.304,6.898-0.862
		c0.304,1.37,0.507,2.892,0.507,4.261c0,0.203,0,0.456-0.051,1.015c-2.587,0.761-5.275,1.115-7.913,1.115
		c-9.637,0-13.644-5.528-13.644-13.593c0-7.05,3.956-13.847,12.528-13.847c8.115,0,11.057,5.985,11.057,12.579
		C141.344,179.376,141.344,180.745,141.191,182.063z M134.344,177.042c0-3.195-0.862-5.883-4.159-5.883
		c-3.145,0-4.818,2.485-5.021,5.883H134.344z"/>
	<path fill="#66A827" d="M159.654,171.768c-2.637,0.405-5.477,1.318-8.014,2.638v18.411c-0.709,0.152-2.231,0.254-3.449,0.254
		c-1.217,0-2.992-0.102-3.55-0.254v-26.425c0.761-0.102,2.029-0.254,3.043-0.254c0.862,0,2.231,0.102,2.941,0.254l0.407,3.246
		c1.875-1.674,5.273-3.5,8.57-3.754c0.102,0.406,0.203,1.877,0.203,2.942C159.807,169.84,159.756,171.058,159.654,171.768z"/>
	<path fill="#66A827" d="M169.9,193.323c-2.992,0-6.137-0.456-8.572-1.268c-0.152-0.761-0.203-1.725-0.203-2.739
		c0-0.812,0.203-1.978,0.406-2.688c2.334,0.812,5.682,1.369,7.658,1.369c2.74,0,4.312-0.913,4.312-2.79
		c0-1.623-1.268-2.384-4.615-3.448c-5.326-1.674-7.812-4.159-7.812-8.014c0-5.731,5.275-7.862,10.297-7.862
		c2.334,0,4.92,0.406,6.695,0.964c0.203,0.761,0.305,1.826,0.305,2.435c0,0.659-0.203,2.028-0.457,2.891
		c-1.725-0.507-4.107-0.912-6.086-0.912c-2.436,0-4.109,0.608-4.109,2.13c0,1.623,1.877,2.282,4.818,3.246
		c5.123,1.674,7.559,3.804,7.559,7.811C180.096,190.636,175.125,193.323,169.9,193.323z"/>
</g>
</svg>
