<?xml version="1.0" encoding="utf-8"?>
<!-- Generator: Adobe Illustrator 16.0.0, SVG Export Plug-In . SVG Version: 6.00 Build 0)  -->
<!DOCTYPE svg PUBLIC "-//W3C//DTD SVG 1.1//EN" "http://www.w3.org/Graphics/SVG/1.1/DTD/svg11.dtd">
<svg version="1.1" id="Layer_1" xmlns="http://www.w3.org/2000/svg" xmlns:xlink="http://www.w3.org/1999/xlink" x="0px" y="0px"
	 width="300px" height="300px" viewBox="0 0 300 300" enable-background="new 0 0 300 300" xml:space="preserve">
<g>
	<path fill="#59A6AE" d="M95.155,178.304c-1.071,0.129-2.442,0.578-3.492,1.179v8.098c-0.322,0.086-0.814,0.107-1.243,0.107
		c-0.429,0-0.964-0.043-1.243-0.107v-11.161c0.278-0.043,0.686-0.107,1.028-0.107c0.321,0,0.75,0.043,1.028,0.107l0.171,1.371h0.064
		c0.899-0.836,2.399-1.5,3.663-1.586c0.043,0.193,0.086,0.6,0.086,1.028C95.219,177.532,95.198,178.004,95.155,178.304z"/>
	<path fill="#59A6AE" d="M103.808,187.688c-0.343,0-0.814-0.043-1.092-0.107c-0.064-0.343-0.107-0.793-0.129-1.114h-0.021
		c-0.686,0.814-1.971,1.328-3.213,1.328c-2.142,0-3.706-1.264-3.706-3.428c0-3.256,2.806-4.027,5.292-4.027
		c0.428,0,1.071,0.043,1.393,0.064c0-1.692-0.622-2.271-2.314-2.271c-0.985,0-2.292,0.192-3.17,0.406
		c-0.086-0.257-0.129-0.643-0.129-0.942c0-0.278,0.043-0.643,0.129-0.856c1.071-0.321,2.463-0.536,3.578-0.536
		c2.721,0,4.392,1.136,4.392,3.942v4.435c0,1.156,0.021,1.971,0.043,2.999C104.558,187.666,104.129,187.688,103.808,187.688z
		 M102.352,182.203c-0.321-0.043-0.836-0.064-1.329-0.064c-1.864,0-2.849,0.793-2.849,2.014c0,1.071,0.707,1.692,1.821,1.692
		c0.9,0,1.821-0.407,2.357-0.985V182.203z"/>
	<path fill="#59A6AE" d="M108.154,178.239h-1.821c-0.085-0.278-0.128-0.535-0.128-0.835s0.043-0.558,0.128-0.836l1.821-0.129v-2.892
		c0.279-0.064,0.836-0.15,1.243-0.15c0.429,0,0.943,0.086,1.243,0.15v2.871h3.17c0.086,0.278,0.129,0.6,0.129,0.899
		s-0.043,0.6-0.129,0.921h-3.17v5.678c0,0.514,0.064,1.071,0.321,1.414c0.214,0.3,0.621,0.492,1.264,0.492
		c0.493,0,1.264-0.107,1.821-0.278c0.086,0.386,0.128,0.793,0.128,1.157c0,0.257-0.021,0.471-0.042,0.643
		c-0.515,0.257-1.5,0.449-2.528,0.449c-2.506,0-3.449-1.178-3.449-3.449V178.239z"/>
	<path fill="#59A6AE" d="M124.456,182.824h-6.941c0.043,1.928,1.307,3.063,3.256,3.063c0.986,0,1.885-0.129,2.85-0.364
		c0.107,0.557,0.15,1.136,0.15,1.778c-1.136,0.386-2.164,0.492-3.342,0.492c-3.642,0-5.527-2.292-5.527-5.741
		c0-3.128,1.821-5.849,5.184-5.849c3.128,0,4.414,2.442,4.414,5.463C124.499,182.246,124.478,182.567,124.456,182.824z
		 M122.014,180.938c0-1.35-0.278-2.806-1.992-2.806c-1.607,0-2.378,1.307-2.507,2.806H122.014z"/>
	<path fill="#59A6AE" d="M135.915,187.58c-0.364,0.064-0.75,0.107-1.135,0.107c-0.321,0-0.643-0.043-0.964-0.107l-0.086-0.985
		h-0.021c-0.792,0.729-1.907,1.199-2.999,1.199c-3.171,0-4.584-2.592-4.584-5.612c0-3.128,1.328-5.978,4.884-5.978
		c0.814,0,1.692,0.172,2.421,0.579v-4.842c0.407-0.064,0.835-0.086,1.243-0.086c0.407,0,0.835,0.021,1.242,0.086V187.58z
		 M133.43,178.732c-0.579-0.321-1.393-0.493-2.035-0.493c-2.228,0-2.721,2.014-2.721,3.856c0,1.628,0.45,3.642,2.463,3.642
		c0.814,0,1.692-0.386,2.292-0.921V178.732z"/>
	<path fill="#59A6AE" d="M150.993,187.688c-0.343,0-0.814-0.043-1.093-0.107c-0.064-0.343-0.107-0.793-0.128-1.114h-0.021
		c-0.686,0.814-1.971,1.328-3.213,1.328c-2.142,0-3.706-1.264-3.706-3.428c0-3.256,2.806-4.027,5.292-4.027
		c0.428,0,1.071,0.043,1.393,0.064c0-1.692-0.622-2.271-2.314-2.271c-0.985,0-2.292,0.192-3.17,0.406
		c-0.086-0.257-0.128-0.643-0.128-0.942c0-0.278,0.042-0.643,0.128-0.856c1.071-0.321,2.463-0.536,3.578-0.536
		c2.721,0,4.392,1.136,4.392,3.942v4.435c0,1.156,0.021,1.971,0.043,2.999C151.743,187.666,151.314,187.688,150.993,187.688z
		 M149.537,182.203c-0.322-0.043-0.835-0.064-1.329-0.064c-1.864,0-2.849,0.793-2.849,2.014c0,1.071,0.707,1.692,1.821,1.692
		c0.9,0,1.821-0.407,2.357-0.985V182.203z"/>
	<path fill="#59A6AE" d="M157.653,187.794c-1.307,0-2.55-0.235-3.471-0.492c-0.064-0.3-0.086-0.6-0.086-0.9
		c0-0.321,0.043-0.706,0.129-1.007c0.878,0.321,2.164,0.536,3.106,0.536c1.242,0,2.207-0.407,2.207-1.521
		c0-0.942-0.707-1.264-2.25-1.757c-2.313-0.749-3.213-1.714-3.213-3.277c0-2.186,2.099-3.171,4.177-3.171
		c0.814,0,1.993,0.15,2.657,0.364c0.085,0.257,0.128,0.557,0.128,0.836c0,0.321-0.064,0.707-0.149,1.007
		c-0.814-0.215-1.629-0.343-2.507-0.343c-1.222,0-1.949,0.364-1.949,1.178c0,0.836,0.899,1.136,2.206,1.607
		c1.886,0.664,3.149,1.264,3.149,3.406C161.788,186.53,159.902,187.794,157.653,187.794z"/>
	<path fill="#59A6AE" d="M182.48,179.054l-2.785,8.526c-0.279,0.086-0.836,0.107-1.2,0.107c-0.407,0-0.899-0.043-1.199-0.107
		l-1.929-7.627h-0.021l-2.12,7.627c-0.279,0.064-0.857,0.107-1.222,0.107c-0.407,0-0.921-0.043-1.178-0.107l-2.55-8.569
		c-0.214-0.75-0.386-1.606-0.386-2.592c0.321-0.064,0.793-0.107,1.2-0.107c0.406,0,0.985,0.043,1.285,0.107
		c0,0.813,0.128,1.735,0.343,2.592l1.393,5.57h0.043l2.228-8.142c0.257-0.042,0.6-0.106,1.007-0.106
		c0.364,0,0.729,0.043,1.007,0.106l2.164,8.163h0.043l1.585-5.742c0.215-0.792,0.321-1.606,0.321-2.441
		c0.3-0.064,0.879-0.107,1.286-0.107c0.406,0,0.878,0.043,1.199,0.107C182.93,177.254,182.759,178.239,182.48,179.054z"/>
	<path fill="#59A6AE" d="M189.268,187.794c-3.128,0-5.12-2.035-5.12-5.763s1.992-5.827,5.12-5.827s5.12,2.078,5.12,5.806
		S192.396,187.794,189.268,187.794z M189.268,178.111c-1.649,0-2.571,1.092-2.571,3.898s0.922,3.878,2.571,3.878
		s2.57-1.071,2.57-3.878S190.917,178.111,189.268,178.111z"/>
	<path fill="#59A6AE" d="M202.419,178.304c-1.071,0.129-2.442,0.578-3.492,1.179v8.098c-0.321,0.086-0.814,0.107-1.243,0.107
		c-0.428,0-0.964-0.043-1.242-0.107v-11.161c0.278-0.043,0.686-0.107,1.028-0.107c0.321,0,0.75,0.043,1.028,0.107l0.172,1.371h0.063
		c0.9-0.836,2.399-1.5,3.664-1.586c0.042,0.193,0.085,0.6,0.085,1.028C202.482,177.532,202.461,178.004,202.419,178.304z"/>
	<path fill="#59A6AE" d="M207.151,187.58c-0.364,0.064-0.922,0.107-1.286,0.107c-0.406,0-0.856-0.043-1.199-0.107v-15.639
		c0.407-0.064,0.856-0.086,1.221-0.086c0.429,0,0.9,0.021,1.265,0.086V187.58z"/>
	<path fill="#59A6AE" d="M219.04,187.58c-0.364,0.064-0.75,0.107-1.136,0.107c-0.321,0-0.643-0.043-0.964-0.107l-0.085-0.985h-0.021
		c-0.793,0.729-1.907,1.199-3,1.199c-3.17,0-4.584-2.592-4.584-5.612c0-3.128,1.328-5.978,4.885-5.978
		c0.813,0,1.692,0.172,2.42,0.579v-4.842c0.407-0.064,0.836-0.086,1.243-0.086s0.835,0.021,1.242,0.086V187.58z M216.555,178.732
		c-0.578-0.321-1.393-0.493-2.035-0.493c-2.228,0-2.721,2.014-2.721,3.856c0,1.628,0.45,3.642,2.464,3.642
		c0.814,0,1.692-0.386,2.292-0.921V178.732z"/>
	<path fill="#59A6AE" d="M225.421,182.953h-4.456c-0.064-0.258-0.129-0.644-0.129-0.922c0-0.321,0.043-0.75,0.129-1.007h4.456
		c0.086,0.257,0.129,0.643,0.129,0.964C225.55,182.268,225.485,182.674,225.421,182.953z"/>
	<path fill="#59A6AE" d="M230.069,187.58c-0.364,0.064-0.922,0.107-1.286,0.107c-0.406,0-0.856-0.043-1.199-0.107v-15.639
		c0.407-0.064,0.856-0.086,1.221-0.086c0.429,0,0.9,0.021,1.265,0.086V187.58z"/>
	<path fill="#59A6AE" d="M241.722,182.824h-6.941c0.043,1.928,1.307,3.063,3.257,3.063c0.985,0,1.885-0.129,2.849-0.364
		c0.107,0.557,0.15,1.136,0.15,1.778c-1.136,0.386-2.164,0.492-3.342,0.492c-3.643,0-5.527-2.292-5.527-5.741
		c0-3.128,1.82-5.849,5.185-5.849c3.127,0,4.413,2.442,4.413,5.463C241.765,182.246,241.743,182.567,241.722,182.824z
		 M239.279,180.938c0-1.35-0.278-2.806-1.992-2.806c-1.607,0-2.378,1.307-2.507,2.806H239.279z"/>
	<path fill="#59A6AE" d="M251.66,187.688c-0.343,0-0.814-0.043-1.093-0.107c-0.064-0.343-0.107-0.793-0.129-1.114h-0.021
		c-0.686,0.814-1.971,1.328-3.213,1.328c-2.143,0-3.707-1.264-3.707-3.428c0-3.256,2.807-4.027,5.292-4.027
		c0.429,0,1.071,0.043,1.393,0.064c0-1.692-0.621-2.271-2.313-2.271c-0.985,0-2.293,0.192-3.171,0.406
		c-0.086-0.257-0.129-0.643-0.129-0.942c0-0.278,0.043-0.643,0.129-0.856c1.071-0.321,2.464-0.536,3.577-0.536
		c2.722,0,4.393,1.136,4.393,3.942v4.435c0,1.156,0.021,1.971,0.042,2.999C252.409,187.666,251.981,187.688,251.66,187.688z
		 M250.203,182.203c-0.321-0.043-0.836-0.064-1.328-0.064c-1.864,0-2.85,0.793-2.85,2.014c0,1.071,0.707,1.692,1.821,1.692
		c0.899,0,1.82-0.407,2.356-0.985V182.203z"/>
	<path fill="#59A6AE" d="M264.469,187.58c-0.364,0.064-0.75,0.107-1.135,0.107c-0.322,0-0.644-0.043-0.965-0.107l-0.085-0.985
		h-0.021c-0.793,0.729-1.907,1.199-3,1.199c-3.17,0-4.584-2.592-4.584-5.612c0-3.128,1.328-5.978,4.884-5.978
		c0.814,0,1.693,0.172,2.421,0.579v-4.842c0.407-0.064,0.836-0.086,1.243-0.086s0.835,0.021,1.242,0.086V187.58z M261.983,178.732
		c-0.578-0.321-1.392-0.493-2.035-0.493c-2.228,0-2.721,2.014-2.721,3.856c0,1.628,0.45,3.642,2.464,3.642
		c0.814,0,1.692-0.386,2.292-0.921V178.732z"/>
	<path fill="#59A6AE" d="M268.364,174.769c-0.792,0-1.413-0.621-1.413-1.413c0-0.793,0.621-1.414,1.413-1.414
		c0.793,0,1.414,0.621,1.414,1.414C269.778,174.147,269.157,174.769,268.364,174.769z M269.629,187.58
		c-0.364,0.086-0.922,0.107-1.265,0.107c-0.406,0-0.856-0.043-1.199-0.107v-11.161c0.386-0.064,0.835-0.107,1.199-0.107
		c0.429,0,0.879,0.043,1.265,0.107V187.58z"/>
	<path fill="#59A6AE" d="M281.689,187.58c-0.321,0.086-0.836,0.107-1.179,0.107c-0.364,0-0.942-0.043-1.285-0.107v-6.62
		c0-0.899-0.086-1.628-0.472-2.078c-0.321-0.364-0.835-0.535-1.457-0.535c-0.899,0-1.842,0.364-2.506,0.835v8.398
		c-0.429,0.064-0.964,0.107-1.328,0.107c-0.343,0-0.793-0.021-1.157-0.107v-11.161c0.278-0.064,0.75-0.107,1.05-0.107
		c0.278,0,0.729,0.043,1.007,0.107l0.15,1.007c0.878-0.664,2.292-1.222,3.599-1.222c2.592,0,3.578,1.735,3.578,4.285V187.58z"/>
	<path fill="#59A6AE" d="M293.341,185.674c0,1.885-0.193,3.685-0.965,4.991c-0.921,1.563-2.827,2.186-4.52,2.186
		c-0.9,0-2.078-0.172-2.936-0.45c-0.086-0.214-0.086-0.6-0.086-0.879c0-0.235,0.043-0.664,0.107-0.899
		c0.964,0.257,1.929,0.386,2.721,0.386c1.222,0,2.121-0.45,2.678-1.371c0.45-0.75,0.536-1.649,0.536-2.635v-0.215
		c-0.578,0.472-1.607,0.793-2.485,0.793c-3.171,0-4.691-2.378-4.691-5.355c0-3.856,2.142-6.021,5.677-6.021
		c1.371,0,2.957,0.3,3.964,0.664V185.674z M290.877,178.261c-0.407-0.086-0.985-0.149-1.521-0.149c-2.185,0-3.106,1.456-3.106,4.049
		c0,1.842,0.601,3.428,2.442,3.428c0.793,0,1.649-0.278,2.186-0.771V178.261z"/>
</g>
<g>
	<path fill="#333333" d="M92.442,167.152c-2.391,0-3.923-1.643-3.923-4.928s1.551-4.945,3.942-4.945
		c2.391,0,3.905,1.624,3.905,4.909S94.833,167.152,92.442,167.152z M92.46,158.174c-1.752,0-2.701,1.35-2.701,4.033
		c0,2.683,0.931,4.051,2.683,4.051s2.683-1.368,2.683-4.051C95.125,159.523,94.212,158.174,92.46,158.174z"/>
	<path fill="#333333" d="M103.7,154.433c-0.274-0.073-0.767-0.146-1.15-0.146c-0.693,0-1.204,0.183-1.551,0.565
		c-0.529,0.566-0.621,1.333-0.621,2.3v0.311h2.573c0.037,0.091,0.073,0.31,0.073,0.438c0,0.146-0.036,0.365-0.073,0.493h-2.573
		v8.577c-0.165,0.055-0.347,0.091-0.584,0.091s-0.438-0.036-0.602-0.091v-8.577H97.55c-0.037-0.092-0.055-0.328-0.055-0.438
		c0-0.091,0.018-0.292,0.055-0.383l1.643-0.109v-0.311c0-1.296,0.219-2.189,0.967-2.938c0.529-0.529,1.314-0.784,2.208-0.784
		c0.474,0,1.003,0.109,1.332,0.237c0.037,0.091,0.055,0.219,0.055,0.347C103.754,154.122,103.736,154.341,103.7,154.433z"/>
	<path fill="#333333" d="M109.774,155.601c-0.42,0-0.767-0.365-0.767-0.804c0-0.438,0.347-0.784,0.767-0.784
		s0.785,0.347,0.785,0.784C110.559,155.235,110.194,155.601,109.774,155.601z M110.376,166.97c-0.164,0.055-0.401,0.091-0.602,0.091
		s-0.42-0.036-0.584-0.091v-9.508c0.146-0.037,0.383-0.092,0.566-0.092c0.201,0,0.474,0.037,0.62,0.092V166.97z"/>
	<path fill="#333333" d="M117.986,166.879c-0.474,0.164-1.186,0.273-1.715,0.273c-1.807,0-2.665-0.857-2.665-2.884v-5.876h-1.642
		c-0.037-0.092-0.055-0.311-0.055-0.42c0-0.091,0.018-0.311,0.055-0.401l1.642-0.109v-2.482c0.146-0.055,0.383-0.091,0.584-0.091
		s0.457,0.036,0.603,0.091v2.482h2.683c0.037,0.091,0.073,0.365,0.073,0.456c0,0.128-0.036,0.347-0.073,0.475h-2.683v5.767
		c0,1.441,0.419,2.044,1.551,2.044c0.62,0,1.223-0.091,1.642-0.219c0.037,0.091,0.073,0.311,0.073,0.438
		C118.059,166.587,118.041,166.714,117.986,166.879z"/>
	<path fill="#333333" d="M121.872,167.152c-0.913,0-1.861-0.164-2.519-0.42c-0.055-0.128-0.091-0.347-0.091-0.511
		c0-0.109,0.037-0.384,0.073-0.493c0.675,0.274,1.643,0.493,2.445,0.493c1.387,0,2.245-0.584,2.245-1.733
		c0-1.041-0.529-1.405-1.971-1.935c-2.007-0.73-2.665-1.569-2.665-2.811c0-1.679,1.387-2.464,3.175-2.464
		c0.603,0,1.387,0.109,1.843,0.256c0.055,0.164,0.073,0.328,0.073,0.438c0,0.146-0.037,0.401-0.073,0.529
		c-0.602-0.183-1.241-0.292-1.861-0.292c-1.296,0-2.081,0.493-2.081,1.496c0,0.876,0.493,1.296,1.989,1.862
		c1.369,0.511,2.628,1.021,2.628,2.864C125.083,166.295,123.678,167.152,121.872,167.152z"/>
	<path fill="#333333" d="M135.282,158.338c-1.059,0.146-2.208,0.529-3.066,1.186v7.446c-0.183,0.055-0.401,0.091-0.602,0.091
		c-0.201,0-0.402-0.036-0.584-0.091v-9.508c0.109-0.037,0.273-0.073,0.456-0.073c0.146,0,0.347,0.036,0.493,0.073l0.091,1.168h0.018
		c0.785-0.676,2.154-1.241,3.194-1.351c0.037,0.109,0.073,0.311,0.073,0.475C135.355,157.937,135.319,158.174,135.282,158.338z"/>
	<path fill="#333333" d="M143.457,162.535h-6.114c0.073,2.099,1.059,3.687,3.34,3.687c0.821,0,1.588-0.109,2.263-0.274
		c0.037,0.092,0.073,0.274,0.073,0.384c0,0.183-0.037,0.347-0.091,0.475c-0.711,0.219-1.606,0.347-2.354,0.347
		c-1.442,0-2.537-0.456-3.212-1.187c-0.803-0.876-1.223-2.189-1.223-3.704c0-2.646,1.332-4.982,3.997-4.982
		c2.391,0,3.339,1.971,3.339,4.38C143.475,161.933,143.475,162.262,143.457,162.535z M142.289,161.659
		c0-1.679-0.183-3.485-2.208-3.485c-1.771,0-2.628,1.624-2.738,3.485H142.289z"/>
	<path fill="#333333" d="M147.579,167.152c-0.913,0-1.861-0.164-2.519-0.42c-0.055-0.128-0.091-0.347-0.091-0.511
		c0-0.109,0.037-0.384,0.073-0.493c0.675,0.274,1.643,0.493,2.445,0.493c1.387,0,2.245-0.584,2.245-1.733
		c0-1.041-0.529-1.405-1.971-1.935c-2.008-0.73-2.665-1.569-2.665-2.811c0-1.679,1.387-2.464,3.175-2.464
		c0.603,0,1.387,0.109,1.843,0.256c0.055,0.164,0.073,0.328,0.073,0.438c0,0.146-0.037,0.401-0.073,0.529
		c-0.602-0.183-1.241-0.292-1.861-0.292c-1.296,0-2.081,0.493-2.081,1.496c0,0.876,0.493,1.296,1.989,1.862
		c1.369,0.511,2.628,1.021,2.628,2.864C150.791,166.295,149.386,167.152,147.579,167.152z"/>
	<path fill="#333333" d="M159.512,162.535h-6.113c0.073,2.099,1.059,3.687,3.34,3.687c0.821,0,1.588-0.109,2.263-0.274
		c0.037,0.092,0.073,0.274,0.073,0.384c0,0.183-0.036,0.347-0.091,0.475c-0.712,0.219-1.606,0.347-2.354,0.347
		c-1.441,0-2.537-0.456-3.212-1.187c-0.803-0.876-1.223-2.189-1.223-3.704c0-2.646,1.332-4.982,3.996-4.982
		c2.391,0,3.34,1.971,3.34,4.38C159.53,161.933,159.53,162.262,159.512,162.535z M158.344,161.659c0-1.679-0.182-3.485-2.208-3.485
		c-1.77,0-2.628,1.624-2.737,3.485H158.344z"/>
	<path fill="#333333" d="M168.016,164.634c0,0.657,0,1.479,0.036,2.336c-0.128,0.055-0.329,0.091-0.493,0.091
		c-0.146,0-0.347-0.036-0.492-0.091c-0.055-0.292-0.092-0.675-0.109-1.022h-0.019c-0.62,0.767-1.716,1.205-2.792,1.205
		c-1.697,0-3.121-0.949-3.121-2.901c0-1.113,0.456-1.935,1.168-2.446c0.803-0.565,1.861-0.748,2.993-0.748
		c0.639,0,1.168,0.037,1.643,0.109v-0.529c0-1.824-0.748-2.427-2.281-2.427c-0.857,0-1.916,0.183-2.573,0.347
		c-0.036-0.091-0.073-0.292-0.073-0.475c0-0.128,0.037-0.311,0.092-0.42c0.784-0.237,1.824-0.383,2.7-0.383
		c2.172,0,3.322,0.985,3.322,3.212V164.634z M166.829,162.061c-0.529-0.073-1.077-0.109-1.552-0.109
		c-0.894,0-1.697,0.164-2.244,0.584c-0.493,0.365-0.767,0.949-0.767,1.697c0,1.332,0.857,1.971,2.044,1.971
		c0.985,0,2.025-0.475,2.519-1.223V162.061z"/>
	<path fill="#333333" d="M174.783,158.338c-1.059,0.146-2.208,0.529-3.066,1.186v7.446c-0.182,0.055-0.401,0.091-0.602,0.091
		c-0.201,0-0.401-0.036-0.584-0.091v-9.508c0.109-0.037,0.273-0.073,0.456-0.073c0.146,0,0.347,0.036,0.493,0.073l0.091,1.168h0.019
		c0.784-0.676,2.153-1.241,3.193-1.351c0.036,0.109,0.073,0.311,0.073,0.475C174.856,157.937,174.819,158.174,174.783,158.338z"/>
	<path fill="#333333" d="M182.137,158.611c-0.584-0.237-1.351-0.383-2.025-0.383c-2.372,0-3.248,1.843-3.248,4.069
		c0,2.19,0.839,3.887,3.229,3.887c0.639,0,1.405-0.109,1.972-0.273c0.036,0.109,0.072,0.237,0.072,0.384
		c0,0.219-0.036,0.383-0.091,0.511c-0.529,0.219-1.387,0.347-2.062,0.347c-2.975,0-4.361-1.953-4.361-4.818
		c0-2.975,1.515-5.055,4.416-5.055c0.693,0,1.515,0.164,2.081,0.42c0.055,0.146,0.072,0.292,0.072,0.456
		C182.191,158.338,182.174,158.483,182.137,158.611z"/>
	<path fill="#333333" d="M191.388,166.97c-0.164,0.055-0.365,0.091-0.548,0.091c-0.219,0-0.456-0.036-0.639-0.091v-5.767
		c0-2.008-0.511-2.92-2.208-2.92c-0.913,0-2.008,0.511-2.72,1.059v7.628c-0.2,0.055-0.419,0.091-0.62,0.091
		c-0.183,0-0.401-0.036-0.565-0.091v-13.322c0.164-0.055,0.42-0.091,0.584-0.091s0.438,0.036,0.602,0.091v4.69
		c0.968-0.748,2.117-1.059,3.012-1.059c0.931,0,1.88,0.311,2.409,0.949c0.584,0.693,0.693,1.697,0.693,2.683V166.97z"/>
	<path fill="#333333" d="M204.615,162.535h-6.114c0.073,2.099,1.059,3.687,3.34,3.687c0.821,0,1.588-0.109,2.263-0.274
		c0.037,0.092,0.073,0.274,0.073,0.384c0,0.183-0.036,0.347-0.091,0.475c-0.712,0.219-1.606,0.347-2.354,0.347
		c-1.441,0-2.537-0.456-3.212-1.187c-0.803-0.876-1.223-2.189-1.223-3.704c0-2.646,1.332-4.982,3.996-4.982
		c2.391,0,3.34,1.971,3.34,4.38C204.633,161.933,204.633,162.262,204.615,162.535z M203.447,161.659
		c0-1.679-0.183-3.485-2.209-3.485c-1.77,0-2.628,1.624-2.737,3.485H203.447z"/>
	<path fill="#333333" d="M213.921,166.988c-0.146,0.036-0.365,0.072-0.584,0.072c-0.183,0-0.42-0.036-0.603-0.091v-5.785
		c0-0.876-0.109-1.551-0.365-2.025c-0.31-0.584-0.894-0.876-1.843-0.876c-0.913,0-2.008,0.511-2.72,1.059v7.628
		c-0.2,0.055-0.401,0.091-0.62,0.091c-0.183,0-0.401-0.036-0.565-0.091v-9.508c0.128-0.055,0.347-0.073,0.475-0.073
		c0.182,0,0.401,0.019,0.511,0.073l0.091,0.949h0.019c1.004-0.821,2.153-1.132,3.084-1.132s1.898,0.311,2.428,0.949
		c0.584,0.693,0.693,1.697,0.693,2.683V166.988z"/>
	<path fill="#333333" d="M222.787,159.779l-2.865,7.19c-0.164,0.055-0.347,0.091-0.492,0.091c-0.201,0-0.365-0.036-0.511-0.091
		l-2.957-7.19c-0.328-0.821-0.475-1.643-0.475-2.317c0.146-0.037,0.402-0.092,0.566-0.092c0.219,0,0.438,0.037,0.62,0.092
		c0.019,0.62,0.092,1.332,0.365,1.989l2.372,6.022h0.037l2.299-6.022c0.256-0.639,0.384-1.351,0.384-1.989
		c0.127-0.055,0.401-0.092,0.639-0.092c0.128,0,0.365,0.019,0.529,0.073C223.28,158.101,223.152,158.885,222.787,159.779z"/>
	<path fill="#333333" d="M225.578,155.601c-0.42,0-0.767-0.365-0.767-0.804c0-0.438,0.347-0.784,0.767-0.784
		c0.419,0,0.784,0.347,0.784,0.784C226.362,155.235,225.997,155.601,225.578,155.601z M226.18,166.97
		c-0.164,0.055-0.401,0.091-0.602,0.091c-0.201,0-0.42-0.036-0.584-0.091v-9.508c0.146-0.037,0.383-0.092,0.565-0.092
		c0.2,0,0.475,0.037,0.62,0.092V166.97z"/>
	<path fill="#333333" d="M232.986,158.338c-1.059,0.146-2.208,0.529-3.066,1.186v7.446c-0.182,0.055-0.401,0.091-0.602,0.091
		c-0.201,0-0.401-0.036-0.584-0.091v-9.508c0.109-0.037,0.273-0.073,0.456-0.073c0.146,0,0.347,0.036,0.493,0.073l0.091,1.168h0.019
		c0.784-0.676,2.153-1.241,3.193-1.351c0.036,0.109,0.073,0.311,0.073,0.475C233.06,157.937,233.022,158.174,232.986,158.338z"/>
	<path fill="#333333" d="M237.748,167.152c-2.391,0-3.924-1.643-3.924-4.928s1.551-4.945,3.941-4.945s3.905,1.624,3.905,4.909
		S240.139,167.152,237.748,167.152z M237.766,158.174c-1.752,0-2.7,1.35-2.7,4.033c0,2.683,0.931,4.051,2.683,4.051
		s2.683-1.368,2.683-4.051C240.431,159.523,239.518,158.174,237.766,158.174z"/>
	<path fill="#333333" d="M250.922,166.988c-0.146,0.036-0.365,0.072-0.584,0.072c-0.183,0-0.42-0.036-0.603-0.091v-5.785
		c0-0.876-0.109-1.551-0.365-2.025c-0.31-0.584-0.894-0.876-1.843-0.876c-0.912,0-2.008,0.511-2.72,1.059v7.628
		c-0.2,0.055-0.401,0.091-0.62,0.091c-0.183,0-0.401-0.036-0.565-0.091v-9.508c0.128-0.055,0.347-0.073,0.475-0.073
		c0.183,0,0.401,0.019,0.511,0.073l0.091,0.949h0.019c1.004-0.821,2.153-1.132,3.084-1.132s1.898,0.311,2.428,0.949
		c0.584,0.693,0.693,1.697,0.693,2.683V166.988z"/>
	<path fill="#333333" d="M266.561,166.988c-0.183,0.036-0.365,0.072-0.548,0.072c-0.219,0-0.42-0.055-0.639-0.091v-5.767
		c0-2.008-0.511-2.92-2.208-2.92c-0.876,0-2.044,0.456-2.774,0.985c0.146,0.511,0.183,1.076,0.183,1.643v6.059
		c-0.183,0.055-0.365,0.091-0.548,0.091c-0.237,0-0.456-0.036-0.639-0.091v-5.767c0-2.008-0.456-2.92-2.153-2.92
		c-0.912,0-1.989,0.511-2.701,1.059v7.628c-0.2,0.055-0.438,0.091-0.656,0.091c-0.183,0-0.384-0.036-0.529-0.091v-9.508
		c0.091-0.037,0.292-0.073,0.492-0.073c0.164,0,0.365,0.036,0.493,0.073l0.091,0.949h0.019c1.004-0.821,2.153-1.132,3.084-1.132
		s1.825,0.311,2.354,0.949c0.073,0.072,0.128,0.164,0.183,0.255c0.967-0.784,2.208-1.204,3.395-1.204
		c0.931,0,1.879,0.311,2.408,0.949c0.584,0.693,0.694,1.697,0.694,2.683V166.988z"/>
	<path fill="#333333" d="M275.771,162.535h-6.113c0.073,2.099,1.059,3.687,3.34,3.687c0.821,0,1.588-0.109,2.263-0.274
		c0.037,0.092,0.073,0.274,0.073,0.384c0,0.183-0.036,0.347-0.091,0.475c-0.712,0.219-1.606,0.347-2.354,0.347
		c-1.441,0-2.537-0.456-3.212-1.187c-0.803-0.876-1.223-2.189-1.223-3.704c0-2.646,1.332-4.982,3.996-4.982
		c2.391,0,3.34,1.971,3.34,4.38C275.79,161.933,275.79,162.262,275.771,162.535z M274.604,161.659c0-1.679-0.182-3.485-2.208-3.485
		c-1.77,0-2.628,1.624-2.737,3.485H274.604z"/>
	<path fill="#333333" d="M285.078,166.988c-0.146,0.036-0.365,0.072-0.584,0.072c-0.183,0-0.42-0.036-0.603-0.091v-5.785
		c0-0.876-0.109-1.551-0.365-2.025c-0.31-0.584-0.894-0.876-1.843-0.876c-0.912,0-2.008,0.511-2.72,1.059v7.628
		c-0.2,0.055-0.401,0.091-0.62,0.091c-0.183,0-0.401-0.036-0.565-0.091v-9.508c0.128-0.055,0.347-0.073,0.475-0.073
		c0.183,0,0.401,0.019,0.511,0.073l0.091,0.949h0.019c1.004-0.821,2.153-1.132,3.084-1.132s1.898,0.311,2.428,0.949
		c0.584,0.693,0.693,1.697,0.693,2.683V166.988z"/>
	<path fill="#333333" d="M292.558,166.879c-0.475,0.164-1.187,0.273-1.715,0.273c-1.808,0-2.665-0.857-2.665-2.884v-5.876h-1.643
		c-0.036-0.092-0.055-0.311-0.055-0.42c0-0.091,0.019-0.311,0.055-0.401l1.643-0.109v-2.482c0.146-0.055,0.384-0.091,0.584-0.091
		c0.201,0,0.456,0.036,0.603,0.091v2.482h2.683c0.036,0.091,0.073,0.365,0.073,0.456c0,0.128-0.037,0.347-0.073,0.475h-2.683v5.767
		c0,1.441,0.42,2.044,1.551,2.044c0.621,0,1.223-0.091,1.643-0.219c0.037,0.091,0.073,0.311,0.073,0.438
		C292.631,166.587,292.612,166.714,292.558,166.879z"/>
</g>
<g>
	<path fill="#59A6AE" d="M118.039,148.322c-1.426,0.285-3.995,0.476-6.752,0.476c-2.663,0-5.041-0.19-6.753-0.476V99.151
		l-13.505,8.94c-3.233-2.949-5.516-6.943-6.372-10.367l22.351-13.695c1.332-0.285,4.089-0.476,5.516-0.476
		c1.617,0,4.565,0.285,5.516,0.476V148.322z"/>
	<path fill="#59A6AE" d="M146.664,149.273c-15.217,0-22.636-11.223-22.636-33.098c0-22.065,7.704-33.098,22.921-33.098
		c15.122,0,22.54,11.033,22.54,33.098C169.489,138.05,161.786,149.273,146.664,149.273z M146.759,94.205
		c-6.087,0-8.75,5.612-8.75,21.97c0,16.073,2.663,21.97,8.75,21.97s8.75-5.896,8.75-21.97
		C155.509,99.817,152.846,94.205,146.759,94.205z"/>
	<path fill="#59A6AE" d="M196.974,149.273c-15.218,0-22.636-11.223-22.636-33.098c0-22.065,7.703-33.098,22.921-33.098
		c15.122,0,22.54,11.033,22.54,33.098C219.799,138.05,212.096,149.273,196.974,149.273z M197.068,94.205
		c-6.087,0-8.75,5.612-8.75,21.97c0,16.073,2.663,21.97,8.75,21.97s8.75-5.896,8.75-21.97
		C205.818,99.817,203.155,94.205,197.068,94.205z"/>
	<path fill="#59A6AE" d="M222.27,97.819c0-8.179,3.709-15.217,14.266-15.217c10.652,0,14.267,7.038,14.267,15.217
		c0,7.989-3.614,15.408-14.267,15.408C225.979,113.227,222.27,105.809,222.27,97.819z M242.527,149.368
		c-4.09-1.142-8.274-3.899-10.367-6.848l38.994-61.154c3.899,1.046,8.085,3.424,10.462,6.372L242.527,149.368z M239.769,98.01
		c0-4.09-0.855-6.658-3.233-6.658s-3.233,2.568-3.233,6.658c0,4.089,0.951,6.467,3.233,6.467
		C238.818,104.477,239.769,102.099,239.769,98.01z M261.834,134.341c0-8.179,3.709-15.217,14.267-15.217
		c10.651,0,14.266,7.038,14.266,15.217c0,7.989-3.614,15.408-14.266,15.408C265.543,149.749,261.834,142.33,261.834,134.341z
		 M279.334,134.531c0-4.09-0.856-6.658-3.233-6.658c-2.378,0-3.234,2.568-3.234,6.658c0,4.089,0.951,6.467,3.234,6.467
		C278.383,140.999,279.334,138.621,279.334,134.531z"/>
</g>
<g>
	<path fill="#333333" d="M11.987,102.367c-0.114,0.043-0.329,0.071-0.485,0.071c-0.157,0-0.372-0.028-0.486-0.071v-8.684
		l-2.499,1.585c-0.143-0.129-0.314-0.386-0.372-0.628l3.056-1.942c0.1-0.029,0.257-0.057,0.372-0.057c0.143,0,0.3,0.028,0.414,0.071
		V102.367z"/>
	<path fill="#333333" d="M21.396,102.51c-1.871,0-3.071-1.286-3.071-3.856s1.214-3.871,3.085-3.871c1.871,0,3.056,1.271,3.056,3.842
		C24.467,101.195,23.267,102.51,21.396,102.51z M21.411,95.482c-1.371,0-2.114,1.057-2.114,3.157c0,2.099,0.729,3.17,2.1,3.17
		s2.099-1.071,2.099-3.17C23.496,96.54,22.782,95.482,21.411,95.482z"/>
	<path fill="#333333" d="M30.207,92.555c-0.214-0.057-0.6-0.114-0.9-0.114c-0.542,0-0.943,0.143-1.214,0.443
		c-0.415,0.443-0.486,1.042-0.486,1.799v0.243h2.014c0.029,0.071,0.058,0.243,0.058,0.343c0,0.114-0.029,0.286-0.058,0.386h-2.014
		v6.712c-0.128,0.043-0.271,0.071-0.457,0.071s-0.343-0.028-0.471-0.071v-6.712h-1.286c-0.028-0.072-0.042-0.257-0.042-0.343
		c0-0.072,0.014-0.229,0.042-0.3l1.286-0.085v-0.243c0-1.014,0.171-1.714,0.757-2.299c0.415-0.414,1.028-0.614,1.728-0.614
		c0.372,0,0.786,0.085,1.043,0.186c0.028,0.071,0.043,0.171,0.043,0.271C30.25,92.312,30.235,92.483,30.207,92.555z"/>
	<path fill="#333333" d="M37.104,102.51c-1.871,0-3.071-1.286-3.071-3.856s1.214-3.871,3.085-3.871c1.871,0,3.056,1.271,3.056,3.842
		C40.174,101.195,38.974,102.51,37.104,102.51z M37.118,95.482c-1.371,0-2.114,1.057-2.114,3.157c0,2.099,0.729,3.17,2.1,3.17
		s2.099-1.071,2.099-3.17C39.203,96.54,38.489,95.482,37.118,95.482z"/>
	<path fill="#333333" d="M47.414,102.381c-0.114,0.029-0.286,0.057-0.457,0.057c-0.143,0-0.329-0.028-0.471-0.071v-4.527
		c0-0.686-0.086-1.214-0.286-1.585c-0.243-0.457-0.7-0.686-1.443-0.686c-0.714,0-1.571,0.4-2.128,0.828v5.97
		c-0.157,0.043-0.314,0.071-0.485,0.071c-0.143,0-0.314-0.028-0.443-0.071v-7.441c0.1-0.043,0.271-0.057,0.372-0.057
		c0.143,0,0.314,0.014,0.399,0.057l0.072,0.743h0.014c0.786-0.643,1.686-0.886,2.414-0.886c0.729,0,1.485,0.243,1.9,0.743
		c0.457,0.543,0.542,1.328,0.542,2.1V102.381z"/>
	<path fill="#333333" d="M50.268,102.367c-0.157,0.043-0.314,0.071-0.486,0.071c-0.143,0-0.314-0.028-0.442-0.071V91.94
		c0.128-0.028,0.285-0.071,0.471-0.071c0.157,0,0.329,0.029,0.457,0.071V102.367z"/>
	<path fill="#333333" d="M57.78,101.124c0,1.386-0.057,2.371-0.557,3.256c-0.571,1.014-1.699,1.5-2.713,1.5
		c-0.743,0-1.257-0.071-1.714-0.229c-0.043-0.085-0.057-0.229-0.057-0.343c0-0.085,0.028-0.271,0.057-0.357
		c0.428,0.128,0.942,0.229,1.628,0.229c1.571,0,2.428-1.128,2.428-3.085v-0.5c-0.729,0.643-1.542,0.914-2.285,0.914
		c-0.8,0-1.428-0.2-1.828-0.686c-0.443-0.529-0.5-1.3-0.5-2.071v-4.827c0.114-0.029,0.3-0.071,0.443-0.071
		c0.171,0,0.357,0.042,0.485,0.071v4.67c0,0.686,0.057,1.257,0.314,1.643c0.229,0.329,0.6,0.5,1.157,0.5
		c0.886,0,1.728-0.471,2.214-0.942v-5.87c0.128-0.029,0.314-0.071,0.485-0.071c0.143,0,0.329,0.042,0.443,0.071V101.124z"/>
	<path fill="#333333" d="M65.904,102.51c-2.313,0-3.028-1.843-3.028-4.356c0-2.985,1.043-5.584,4.056-5.584
		c0.343,0,0.7,0.057,0.9,0.114c0.043,0.085,0.057,0.229,0.057,0.3c0,0.085-0.029,0.271-0.071,0.343
		c-0.214-0.043-0.543-0.086-0.814-0.086c-1.928,0-2.914,1.585-3.071,4.07c0.542-0.514,1.457-0.885,2.299-0.885
		c1.557,0,2.542,1.171,2.542,2.842C68.774,101.096,67.746,102.51,65.904,102.51z M66.146,97.14c-0.742,0-1.656,0.385-2.242,1
		c-0.014,0.2-0.014,0.343-0.014,0.471c0,1.871,0.542,3.228,2.014,3.228c1.3,0,1.842-1.329,1.842-2.514
		C67.746,98.253,67.403,97.14,66.146,97.14z"/>
</g>
<g>
	<path fill="#333333" d="M13.515,115.404c0,2.171-0.9,2.971-2.785,2.971c-1.928,0-2.742-0.8-2.742-2.899v-4.685
		c0.128-0.043,0.3-0.071,0.457-0.071c0.2,0,0.357,0.042,0.471,0.071v4.57c0,1.385,0.214,2.299,1.828,2.299
		c1.514,0,1.843-0.885,1.843-2.328v-4.542c0.114-0.043,0.314-0.071,0.471-0.071s0.329,0.028,0.457,0.071V115.404z"/>
	<path fill="#333333" d="M21.254,118.246c-0.114,0.029-0.286,0.057-0.457,0.057c-0.143,0-0.329-0.028-0.471-0.071v-4.527
		c0-0.686-0.086-1.214-0.286-1.585c-0.243-0.457-0.7-0.686-1.443-0.686c-0.714,0-1.571,0.4-2.128,0.828v5.97
		c-0.157,0.043-0.314,0.071-0.485,0.071c-0.143,0-0.314-0.028-0.443-0.071v-7.441c0.1-0.043,0.271-0.057,0.372-0.057
		c0.143,0,0.314,0.014,0.399,0.057l0.072,0.743h0.014c0.786-0.643,1.686-0.886,2.414-0.886c0.729,0,1.485,0.243,1.9,0.743
		c0.457,0.543,0.542,1.328,0.542,2.1V118.246z"/>
	<path fill="#333333" d="M23.809,109.334c-0.329,0-0.6-0.286-0.6-0.628s0.271-0.614,0.6-0.614s0.614,0.271,0.614,0.614
		S24.138,109.334,23.809,109.334z M24.28,118.232c-0.128,0.043-0.314,0.071-0.471,0.071s-0.329-0.028-0.457-0.071v-7.441
		c0.114-0.029,0.3-0.071,0.443-0.071c0.157,0,0.371,0.028,0.485,0.071V118.232z"/>
	<path fill="#333333" d="M31.449,112.604l-2.242,5.627c-0.128,0.043-0.271,0.071-0.386,0.071c-0.157,0-0.286-0.028-0.4-0.071
		l-2.313-5.627c-0.257-0.643-0.372-1.285-0.372-1.813c0.114-0.029,0.314-0.071,0.443-0.071c0.171,0,0.343,0.028,0.486,0.071
		c0.014,0.485,0.071,1.042,0.285,1.557l1.857,4.713h0.029l1.799-4.713c0.2-0.5,0.3-1.057,0.3-1.557c0.1-0.043,0.314-0.071,0.5-0.071
		c0.1,0,0.286,0.014,0.414,0.057C31.835,111.291,31.735,111.905,31.449,112.604z"/>
	<path fill="#333333" d="M38.503,114.761h-4.785c0.057,1.643,0.829,2.885,2.614,2.885c0.643,0,1.243-0.086,1.771-0.214
		c0.028,0.071,0.057,0.214,0.057,0.3c0,0.143-0.029,0.271-0.071,0.372c-0.557,0.171-1.257,0.271-1.842,0.271
		c-1.128,0-1.985-0.357-2.514-0.929c-0.629-0.686-0.957-1.714-0.957-2.899c0-2.071,1.042-3.899,3.128-3.899
		c1.871,0,2.613,1.542,2.613,3.428C38.518,114.29,38.518,114.547,38.503,114.761z M37.589,114.076c0-1.314-0.143-2.728-1.728-2.728
		c-1.386,0-2.057,1.271-2.143,2.728H37.589z"/>
	<path fill="#333333" d="M43.529,111.477c-0.828,0.114-1.728,0.414-2.399,0.928v5.827c-0.143,0.043-0.314,0.071-0.471,0.071
		s-0.314-0.028-0.457-0.071v-7.441c0.086-0.029,0.214-0.057,0.357-0.057c0.114,0,0.271,0.028,0.386,0.057l0.071,0.914h0.014
		c0.614-0.528,1.686-0.971,2.5-1.057c0.029,0.086,0.057,0.243,0.057,0.372C43.586,111.162,43.558,111.348,43.529,111.477z"/>
	<path fill="#333333" d="M46.77,118.375c-0.714,0-1.457-0.129-1.971-0.329c-0.042-0.1-0.071-0.271-0.071-0.4
		c0-0.086,0.029-0.3,0.057-0.386c0.529,0.214,1.286,0.386,1.914,0.386c1.085,0,1.756-0.457,1.756-1.357
		c0-0.814-0.414-1.1-1.542-1.514c-1.571-0.571-2.085-1.228-2.085-2.199c0-1.314,1.085-1.928,2.485-1.928
		c0.472,0,1.086,0.086,1.443,0.2c0.042,0.128,0.057,0.257,0.057,0.343c0,0.114-0.029,0.314-0.057,0.414
		c-0.471-0.143-0.971-0.229-1.457-0.229c-1.014,0-1.628,0.386-1.628,1.171c0,0.686,0.385,1.014,1.557,1.457
		c1.071,0.4,2.057,0.8,2.057,2.242C49.284,117.704,48.184,118.375,46.77,118.375z"/>
	<path fill="#333333" d="M51.439,109.334c-0.329,0-0.6-0.286-0.6-0.628s0.271-0.614,0.6-0.614s0.614,0.271,0.614,0.614
		S51.768,109.334,51.439,109.334z M51.91,118.232c-0.128,0.043-0.314,0.071-0.471,0.071s-0.329-0.028-0.457-0.071v-7.441
		c0.114-0.029,0.3-0.071,0.443-0.071c0.157,0,0.371,0.028,0.485,0.071V118.232z"/>
	<path fill="#333333" d="M58.008,118.161c-0.371,0.128-0.928,0.214-1.342,0.214c-1.414,0-2.085-0.671-2.085-2.257v-4.599h-1.285
		c-0.029-0.072-0.043-0.243-0.043-0.329c0-0.072,0.014-0.243,0.043-0.314l1.285-0.085v-1.942c0.114-0.043,0.3-0.071,0.457-0.071
		c0.157,0,0.357,0.028,0.471,0.071v1.942h2.1c0.029,0.071,0.057,0.286,0.057,0.357c0,0.1-0.028,0.271-0.057,0.372h-2.1v4.513
		c0,1.128,0.329,1.6,1.214,1.6c0.485,0,0.957-0.071,1.285-0.171c0.029,0.071,0.057,0.243,0.057,0.343
		C58.065,117.932,58.051,118.032,58.008,118.161z"/>
	<path fill="#333333" d="M60.035,109.334c-0.329,0-0.6-0.286-0.6-0.628s0.271-0.614,0.6-0.614s0.614,0.271,0.614,0.614
		S60.364,109.334,60.035,109.334z M60.506,118.232c-0.128,0.043-0.314,0.071-0.471,0.071s-0.329-0.028-0.457-0.071v-7.441
		c0.114-0.029,0.3-0.071,0.443-0.071c0.157,0,0.371,0.028,0.485,0.071V118.232z"/>
	<path fill="#333333" d="M67.961,114.761h-4.785c0.057,1.643,0.829,2.885,2.614,2.885c0.643,0,1.243-0.086,1.771-0.214
		c0.029,0.071,0.057,0.214,0.057,0.3c0,0.143-0.028,0.271-0.071,0.372c-0.557,0.171-1.257,0.271-1.843,0.271
		c-1.128,0-1.985-0.357-2.514-0.929c-0.628-0.686-0.957-1.714-0.957-2.899c0-2.071,1.042-3.899,3.127-3.899
		c1.871,0,2.614,1.542,2.614,3.428C67.975,114.29,67.975,114.547,67.961,114.761z M67.047,114.076c0-1.314-0.143-2.728-1.728-2.728
		c-1.385,0-2.057,1.271-2.143,2.728H67.047z"/>
	<path fill="#333333" d="M71.316,118.375c-0.714,0-1.457-0.129-1.971-0.329c-0.042-0.1-0.071-0.271-0.071-0.4
		c0-0.086,0.029-0.3,0.057-0.386c0.529,0.214,1.286,0.386,1.914,0.386c1.085,0,1.756-0.457,1.756-1.357
		c0-0.814-0.414-1.1-1.542-1.514c-1.571-0.571-2.085-1.228-2.085-2.199c0-1.314,1.085-1.928,2.485-1.928
		c0.472,0,1.086,0.086,1.443,0.2c0.042,0.128,0.057,0.257,0.057,0.343c0,0.114-0.029,0.314-0.057,0.414
		c-0.471-0.143-0.971-0.229-1.457-0.229c-1.014,0-1.628,0.386-1.628,1.171c0,0.686,0.385,1.014,1.557,1.457
		c1.071,0.4,2.057,0.8,2.057,2.242C73.83,117.704,72.73,118.375,71.316,118.375z"/>
</g>
<g>
	<path fill="#333333" d="M8.545,126.783c-0.329,0-0.6-0.286-0.6-0.628s0.271-0.614,0.6-0.614s0.614,0.271,0.614,0.614
		S8.874,126.783,8.545,126.783z M9.016,135.681c-0.128,0.043-0.314,0.071-0.471,0.071s-0.329-0.028-0.457-0.071v-7.441
		c0.114-0.029,0.3-0.071,0.443-0.071c0.157,0,0.371,0.028,0.485,0.071V135.681z"/>
	<path fill="#333333" d="M16.856,135.695c-0.114,0.029-0.286,0.057-0.457,0.057c-0.143,0-0.329-0.028-0.471-0.071v-4.527
		c0-0.686-0.086-1.214-0.286-1.585c-0.243-0.457-0.7-0.686-1.442-0.686c-0.714,0-1.571,0.4-2.128,0.828v5.97
		c-0.157,0.043-0.314,0.071-0.485,0.071c-0.143,0-0.314-0.028-0.443-0.071v-7.441c0.1-0.043,0.271-0.057,0.371-0.057
		c0.143,0,0.314,0.014,0.4,0.057l0.071,0.743H12c0.786-0.643,1.685-0.886,2.414-0.886s1.485,0.243,1.899,0.743
		c0.457,0.543,0.543,1.328,0.543,2.1V135.695z"/>
	<path fill="#333333" d="M26.137,135.61c-0.371,0.128-0.928,0.214-1.342,0.214c-1.414,0-2.085-0.671-2.085-2.257v-4.599h-1.285
		c-0.029-0.072-0.043-0.243-0.043-0.329c0-0.072,0.014-0.243,0.043-0.314l1.285-0.085v-1.942c0.114-0.043,0.3-0.071,0.457-0.071
		c0.157,0,0.357,0.028,0.471,0.071v1.942h2.1c0.029,0.071,0.057,0.286,0.057,0.357c0,0.1-0.028,0.271-0.057,0.372h-2.1v4.513
		c0,1.128,0.329,1.6,1.214,1.6c0.485,0,0.957-0.071,1.285-0.171c0.029,0.071,0.057,0.243,0.057,0.343
		C26.194,135.381,26.18,135.481,26.137,135.61z"/>
	<path fill="#333333" d="M33.363,135.681c-0.128,0.043-0.286,0.071-0.428,0.071c-0.172,0-0.357-0.028-0.5-0.071v-4.513
		c0-1.571-0.4-2.285-1.729-2.285c-0.714,0-1.571,0.4-2.128,0.828v5.97c-0.157,0.043-0.328,0.071-0.485,0.071
		c-0.143,0-0.314-0.028-0.443-0.071v-10.426c0.128-0.042,0.329-0.071,0.457-0.071s0.343,0.029,0.471,0.071v3.671
		c0.757-0.586,1.657-0.829,2.356-0.829c0.729,0,1.471,0.243,1.886,0.743c0.457,0.543,0.542,1.328,0.542,2.1V135.681z"/>
	<path fill="#333333" d="M40.716,132.21h-4.785c0.057,1.643,0.829,2.885,2.614,2.885c0.643,0,1.243-0.086,1.771-0.214
		c0.028,0.071,0.057,0.214,0.057,0.3c0,0.143-0.029,0.271-0.071,0.372c-0.557,0.171-1.257,0.271-1.842,0.271
		c-1.128,0-1.985-0.357-2.514-0.929c-0.629-0.686-0.957-1.714-0.957-2.899c0-2.071,1.042-3.899,3.128-3.899
		c1.871,0,2.613,1.542,2.613,3.428C40.73,131.739,40.73,131.996,40.716,132.21z M39.802,131.525c0-1.314-0.143-2.728-1.728-2.728
		c-1.386,0-2.057,1.271-2.143,2.728H39.802z"/>
	<path fill="#333333" d="M46.855,132.382c0,0.943,0.157,1.657,0.571,2.114c0.357,0.386,0.9,0.614,1.714,0.614
		s1.371-0.229,1.728-0.614c0.415-0.457,0.571-1.171,0.571-2.114v-6.355c0.129-0.043,0.357-0.071,0.486-0.071
		c0.143,0,0.357,0.028,0.486,0.071v6.213c0,1.271-0.243,2.156-0.843,2.756c-0.528,0.528-1.328,0.829-2.428,0.829
		c-1.1,0-1.885-0.3-2.414-0.829c-0.6-0.6-0.843-1.485-0.843-2.756v-6.213c0.114-0.043,0.314-0.071,0.486-0.071
		s0.343,0.028,0.485,0.071V132.382z"/>
	<path fill="#333333" d="M61.235,135.681c-0.114,0.043-0.343,0.071-0.514,0.071s-0.372-0.014-0.614-0.071l-3.185-4.742l-1.028,1.157
		v3.585c-0.114,0.043-0.343,0.071-0.5,0.071c-0.157,0-0.357-0.028-0.471-0.071v-9.655c0.114-0.043,0.314-0.071,0.471-0.071
		c0.157,0,0.386,0.028,0.5,0.071v4.842l3.042-3.485c0.429-0.486,0.657-0.957,0.729-1.357c0.129-0.014,0.314-0.043,0.457-0.043
		c0.143,0,0.372,0.029,0.472,0.043c-0.029,0.457-0.314,1.071-0.9,1.742l-2.143,2.471L61.235,135.681z"/>
</g>
<g>
	<path fill="#333333" d="M16.686,147.16l-1.914,5.97c-0.114,0.043-0.329,0.071-0.443,0.071c-0.128,0-0.343-0.028-0.442-0.071
		l-1.714-5.77h-0.029l-1.799,5.77c-0.129,0.043-0.329,0.071-0.443,0.071s-0.3-0.028-0.429-0.071l-1.771-5.884
		c-0.157-0.486-0.229-1.042-0.243-1.571c0.114-0.029,0.343-0.058,0.486-0.058c0.157,0,0.3,0.029,0.428,0.072
		c0.014,0.514,0.1,1.057,0.229,1.528l1.3,4.643h0.014l1.856-6.185c0.1-0.029,0.3-0.043,0.4-0.043c0.1,0,0.314,0.014,0.399,0.043
		l1.757,6.185h0.015l1.428-4.628c0.157-0.528,0.271-1.028,0.3-1.542c0.1-0.043,0.343-0.072,0.471-0.072s0.329,0.029,0.414,0.072
		C16.957,146.174,16.843,146.66,16.686,147.16z"/>
	<path fill="#333333" d="M18.983,144.232c-0.329,0-0.6-0.286-0.6-0.628s0.271-0.614,0.6-0.614s0.614,0.271,0.614,0.614
		S19.312,144.232,18.983,144.232z M19.454,153.13c-0.128,0.043-0.314,0.071-0.471,0.071s-0.329-0.028-0.457-0.071v-7.441
		c0.114-0.029,0.3-0.072,0.443-0.072c0.157,0,0.371,0.029,0.485,0.072V153.13z"/>
	<path fill="#333333" d="M25.538,153.059c-0.371,0.129-0.928,0.214-1.342,0.214c-1.414,0-2.085-0.671-2.085-2.257v-4.599h-1.285
		c-0.029-0.071-0.043-0.243-0.043-0.328c0-0.071,0.014-0.243,0.043-0.314l1.285-0.085v-1.942c0.114-0.043,0.3-0.072,0.457-0.072
		c0.157,0,0.357,0.029,0.471,0.072v1.942h2.1c0.029,0.071,0.057,0.286,0.057,0.357c0,0.1-0.028,0.271-0.057,0.371h-2.1v4.514
		c0,1.128,0.329,1.6,1.214,1.6c0.485,0,0.957-0.071,1.285-0.172c0.029,0.071,0.057,0.243,0.057,0.343
		C25.595,152.83,25.581,152.93,25.538,153.059z"/>
	<path fill="#333333" d="M32.763,153.13c-0.128,0.043-0.286,0.071-0.428,0.071c-0.172,0-0.357-0.028-0.5-0.071v-4.513
		c0-1.571-0.4-2.285-1.729-2.285c-0.714,0-1.571,0.4-2.128,0.829v5.97c-0.157,0.043-0.328,0.071-0.485,0.071
		c-0.143,0-0.314-0.028-0.443-0.071v-10.426c0.128-0.043,0.329-0.072,0.457-0.072s0.343,0.029,0.471,0.072v3.67
		c0.757-0.585,1.657-0.829,2.356-0.829c0.729,0,1.471,0.243,1.886,0.743c0.457,0.543,0.542,1.329,0.542,2.1V153.13z"/>
</g>
<path fill="#333333" d="M62.217,146.448c-8.475-1.504-16.475,4.095-18.008,12.576c-1.505,8.333,4.069,16.483,12.535,18.007
	c8.485,1.524,16.56-4.107,18.062-12.581C76.305,155.987,70.684,147.95,62.217,146.448 M43.833,175.087
	c-1.083,0.755-2.135,1.491-3.333,2.331c0.137,0.135,0.341,0.276,0.47,0.47c0.925,1.383,0.634,3.164-0.677,4.187
	c-0.2,0.158-0.412,0.298-0.622,0.444c-4.53,3.177-9.062,6.354-13.593,9.529c-1.774,1.242-3.554,0.923-4.803-0.858
	c-0.859-1.223-1.717-2.444-2.57-3.671c-1.124-1.617-0.8-3.455,0.813-4.587c4.67-3.271,9.345-6.538,14.019-9.807
	c1.714-1.2,3.449-0.893,4.681,0.817c0.058,0.08,0.121,0.158,0.16,0.208c1.068-0.751,2.121-1.49,3.207-2.253
	c-3.182-5.957-3.583-12.154-0.883-18.44c2.09-4.864,5.666-8.342,10.488-10.528c9.205-4.176,20.559-0.663,25.799,7.977
	c5.5,9.071,3.432,20.59-4.862,27.07C63.664,184.587,51.129,183.598,43.833,175.087"/>
</svg>
