<?xml version="1.0" encoding="utf-8"?>
<!-- Generator: Adobe Illustrator 16.0.0, SVG Export Plug-In . SVG Version: 6.00 Build 0)  -->
<!DOCTYPE svg PUBLIC "-//W3C//DTD SVG 1.0//EN" "http://www.w3.org/TR/2001/REC-SVG-20010904/DTD/svg10.dtd">
<svg version="1.0" xmlns="http://www.w3.org/2000/svg" xmlns:xlink="http://www.w3.org/1999/xlink" x="0px" y="0px" width="300px"
	 height="300px" viewBox="0 0 300 300" style="enable-background:new 0 0 300 300;" xml:space="preserve">
<g id="Layer_1">
	<path style="fill:#58595B;" d="M94.456,35.85v29.145c-1.303-0.465-2.764-0.725-4.306-0.725c-5.507,0-9.969,3.307-9.969,7.385
		c0,4.081,4.461,7.389,9.969,7.389c5.167,0,9.417-2.915,9.917-6.649h0.052V32.873v-5.297l-40.612,8.13v4.556v31.379
		c-1.307-0.463-2.766-0.724-4.31-0.724c-5.506,0-9.968,3.308-9.968,7.389c0,4.079,4.462,7.386,9.968,7.386
		c5.168,0,9.419-2.916,9.921-6.648h0.047v-37.33L94.456,35.85z"/>
	<path style="fill:#58595B;" d="M60.24,12.678l-16.627,3.75v4.556v27.924c-1.303-0.464-2.765-0.723-4.308-0.723
		c-5.506,0-9.969,3.306-9.969,7.387c0,4.079,4.463,7.387,9.969,7.387c5.169,0,9.419-2.917,9.919-6.649h0.048V22.437L60.24,19.82
		V12.678z"/>
	<text transform="matrix(1 0 0 1 239.582 30.5425)" style="fill:#58595B; font-family:'FSMatthew-Light'; font-size:19.5578;"> </text>
	<text transform="matrix(1 0 0 1 255.5605 54.4458)" style="fill:#58595B; font-family:'FSMatthew-Light'; font-size:19.5578;"> </text>
	<text transform="matrix(1 0 0 1 265.8789 129.2231)" style="fill:#4FAEC5; font-family:'FSMatthew-Bold'; font-size:48.9445;"> </text>
</g>
<g id="Layer_2" style="display:none;">
	<text transform="matrix(1 0 0 1 115.9971 30.5425)" style="display:inline;"><tspan x="0" y="0" style="fill:#58595B; font-family:'FSMatthew-Light'; font-size:19.5578;">Our </tspan><tspan x="33.189" y="0" style="fill:#58595B; font-family:'FSMatthew-Light'; font-size:19.5578;">r</tspan><tspan x="39.214" y="0" style="fill:#58595B; font-family:'FSMatthew-Light'; font-size:19.5578;">esea</tspan><tspan x="75.511" y="0" style="fill:#58595B; font-family:'FSMatthew-Light'; font-size:19.5578;">r</tspan><tspan x="81.556" y="0" style="fill:#58595B; font-family:'FSMatthew-Light'; font-size:19.5578;">ch in </tspan></text>
	<text transform="matrix(1 0 0 1 115.9971 54.4458)" style="display:inline;"><tspan x="0" y="0" style="fill:#58595B; font-family:'FSMatthew-Light'; font-size:19.5578;">m</tspan><tspan x="16.585" y="0" style="fill:#58595B; font-family:'FSMatthew-Light'; font-size:19.5578;">u</tspan><tspan x="26.5" y="0" style="fill:#58595B; font-family:'FSMatthew-Light'; font-size:19.5578;">s</tspan><tspan x="34.108" y="0" style="fill:#58595B; font-family:'FSMatthew-Light'; font-size:19.5578;">i</tspan><tspan x="38.001" y="0" style="fill:#58595B; font-family:'FSMatthew-Light'; font-size:19.5578;">c and </tspan><tspan x="84.37" y="0" style="fill:#58595B; font-family:'FSMatthew-Light'; font-size:19.5578;">d</tspan><tspan x="94.403" y="0" style="fill:#58595B; font-family:'FSMatthew-Light'; font-size:19.5578;">r</tspan><tspan x="100.134" y="0" style="fill:#58595B; font-family:'FSMatthew-Light'; font-size:19.5578;">am</tspan><tspan x="126.204" y="0" style="fill:#58595B; font-family:'FSMatthew-Light'; font-size:19.5578;">a </tspan></text>
	<text transform="matrix(1 0 0 1 115.9971 78.3511)" style="display:inline;"><tspan x="0" y="0" style="fill:#58595B; font-family:'FSMatthew-Light'; font-size:19.5578;">i</tspan><tspan x="4.283" y="0" style="fill:#58595B; font-family:'FSMatthew-Light'; font-size:19.5578;">s</tspan><tspan x="12.243" y="0" style="fill:#58595B; font-family:'FSMatthew-Light'; font-size:19.5578;"> </tspan><tspan x="16.741" y="0" style="fill:#58595B; font-family:'FSMatthew-Light'; font-size:19.5578;">r</tspan><tspan x="22.863" y="0" style="fill:#58595B; font-family:'FSMatthew-Light'; font-size:19.5578;">an</tspan><tspan x="43.339" y="0" style="fill:#58595B; font-family:'FSMatthew-Light'; font-size:19.5578;">k</tspan><tspan x="52.296" y="0" style="fill:#58595B; font-family:'FSMatthew-Light'; font-size:19.5578;">ed</tspan><tspan x="72.304" y="0" style="fill:#58595B; font-family:'FSMatthew-Light'; font-size:19.5578;"> j</tspan><tspan x="81.437" y="0" style="fill:#58595B; font-family:'FSMatthew-Light'; font-size:19.5578;">o</tspan><tspan x="91.548" y="0" style="fill:#58595B; font-family:'FSMatthew-Light'; font-size:19.5578;">in</tspan><tspan x="106.452" y="0" style="fill:#58595B; font-family:'FSMatthew-Light'; font-size:19.5578;">t</tspan></text>
	<text transform="matrix(1 0 0 1 22.6182 129.2231)" style="display:inline;"><tspan x="0" y="0" style="fill:#4FAEC5; font-family:'FSMatthew-Bold'; font-size:48.9445; letter-spacing:-1;"> </tspan><tspan x="9.103" y="0" style="fill:#4FAEC5; font-family:'FSMatthew-Bold'; font-size:48.9445; letter-spacing:-5;"> </tspan><tspan x="14.291" y="0" style="fill:#4FAEC5; font-family:'FSMatthew-Bold'; font-size:48.9445; letter-spacing:-1;">2</tspan><tspan x="39.203" y="0" style="fill:#4FAEC5; font-family:'FSMatthew-Bold'; font-size:48.9445; letter-spacing:-3;">N</tspan><tspan x="69.157" y="0" style="fill:#4FAEC5; font-family:'FSMatthew-Bold'; font-size:48.9445; letter-spacing:-3;">D</tspan><tspan x="97.593" y="0" style="fill:#4FAEC5; font-family:'FSMatthew-Bold'; font-size:48.9445; letter-spacing:-1;"> IN</tspan><tspan x="151.284" y="0" style="fill:#4FAEC5; font-family:'FSMatthew-Bold'; font-size:48.9445; letter-spacing:-4;"> </tspan><tspan x="157.94" y="0" style="fill:#4FAEC5; font-family:'FSMatthew-Bold'; font-size:48.9445; letter-spacing:-1;">T</tspan><tspan x="182.755" y="0" style="fill:#4FAEC5; font-family:'FSMatthew-Bold'; font-size:48.9445; letter-spacing:-1;">H</tspan><tspan x="213.687" y="0" style="fill:#4FAEC5; font-family:'FSMatthew-Bold'; font-size:48.9445;">E </tspan></text>
	<text transform="matrix(1 0 0 1 22.6182 273.6094)" style="display:inline;"><tspan x="0" y="0" style="fill:#4FAEC5; font-family:'FSMatthew-Bold'; font-size:200.6724; letter-spacing:-7;">U</tspan><tspan x="124.015" y="0" style="fill:#4FAEC5; font-family:'FSMatthew-Bold'; font-size:200.6724;">K</tspan></text>
</g>
<g id="Layer_3">
	<g>
		<path style="fill:#58595B;" d="M122.12,30.738c-3.287,0-5.008-2.465-5.008-6.808s1.721-6.808,5.008-6.808
			c3.286,0,5.008,2.465,5.008,6.808S125.406,30.738,122.12,30.738z M122.12,18.121c-2.367,0-3.6,1.897-3.6,5.81
			c0,3.912,1.232,5.81,3.6,5.81c2.367,0,3.599-1.897,3.599-5.81C125.719,20.018,124.487,18.121,122.12,18.121z"/>
		<path style="fill:#58595B;" d="M137.082,26.669c0,2.973-1.232,4.069-3.814,4.069c-2.641,0-3.756-1.096-3.756-3.971v-6.417
			c0.176-0.059,0.411-0.098,0.626-0.098c0.274,0,0.489,0.059,0.646,0.098v6.26c0,1.897,0.293,3.149,2.504,3.149
			c2.074,0,2.523-1.212,2.523-3.188v-6.221c0.157-0.059,0.431-0.098,0.646-0.098c0.215,0,0.45,0.039,0.626,0.098V26.669z"/>
		<path style="fill:#58595B;" d="M144.24,21.29c-1.135,0.157-2.367,0.567-3.287,1.272v7.981c-0.195,0.059-0.43,0.098-0.646,0.098
			c-0.215,0-0.43-0.039-0.626-0.098V20.351c0.118-0.039,0.293-0.078,0.489-0.078c0.156,0,0.372,0.039,0.528,0.078l0.098,1.252h0.02
			c0.841-0.724,2.308-1.33,3.423-1.447c0.039,0.117,0.078,0.333,0.078,0.508C144.318,20.859,144.279,21.114,144.24,21.29z"/>
		<path style="fill:#58595B;" d="M155.074,21.29c-1.135,0.157-2.367,0.567-3.287,1.272v7.981c-0.195,0.059-0.43,0.098-0.645,0.098
			c-0.215,0-0.431-0.039-0.626-0.098V20.351c0.118-0.039,0.293-0.078,0.49-0.078c0.156,0,0.371,0.039,0.527,0.078l0.098,1.252h0.02
			c0.842-0.724,2.309-1.33,3.424-1.447c0.039,0.117,0.078,0.333,0.078,0.508C155.152,20.859,155.113,21.114,155.074,21.29z"/>
		<path style="fill:#58595B;" d="M163.818,25.789h-6.555c0.078,2.25,1.135,3.951,3.58,3.951c0.881,0,1.703-0.117,2.426-0.293
			c0.039,0.098,0.078,0.293,0.078,0.411c0,0.195-0.039,0.372-0.098,0.508c-0.762,0.235-1.721,0.372-2.523,0.372
			c-1.545,0-2.719-0.489-3.443-1.271c-0.859-0.939-1.311-2.348-1.311-3.971c0-2.836,1.43-5.34,4.285-5.34
			c2.562,0,3.58,2.113,3.58,4.695C163.838,25.144,163.838,25.496,163.818,25.789z M162.566,24.85c0-1.8-0.197-3.736-2.367-3.736
			c-1.898,0-2.818,1.741-2.936,3.736H162.566z"/>
		<path style="fill:#58595B;" d="M168.236,30.738c-0.979,0-1.994-0.176-2.699-0.45c-0.059-0.137-0.098-0.372-0.098-0.548
			c0-0.117,0.039-0.411,0.078-0.528c0.725,0.293,1.76,0.528,2.621,0.528c1.486,0,2.406-0.626,2.406-1.858
			c0-1.115-0.566-1.506-2.113-2.073c-2.15-0.783-2.855-1.683-2.855-3.013c0-1.8,1.486-2.641,3.404-2.641
			c0.645,0,1.486,0.117,1.975,0.274c0.059,0.176,0.078,0.352,0.078,0.469c0,0.157-0.039,0.431-0.078,0.567
			c-0.645-0.196-1.33-0.313-1.994-0.313c-1.389,0-2.23,0.528-2.23,1.604c0,0.939,0.527,1.389,2.133,1.995
			c1.467,0.548,2.816,1.096,2.816,3.071C171.68,29.819,170.174,30.738,168.236,30.738z"/>
		<path style="fill:#58595B;" d="M181.027,25.789h-6.553c0.078,2.25,1.135,3.951,3.58,3.951c0.879,0,1.701-0.117,2.426-0.293
			c0.039,0.098,0.078,0.293,0.078,0.411c0,0.195-0.039,0.372-0.098,0.508c-0.764,0.235-1.723,0.372-2.523,0.372
			c-1.547,0-2.721-0.489-3.443-1.271c-0.861-0.939-1.311-2.348-1.311-3.971c0-2.836,1.428-5.34,4.283-5.34
			c2.562,0,3.58,2.113,3.58,4.695C181.047,25.144,181.047,25.496,181.027,25.789z M179.775,24.85c0-1.8-0.195-3.736-2.367-3.736
			c-1.896,0-2.816,1.741-2.934,3.736H179.775z"/>
		<path style="fill:#58595B;" d="M190.141,28.039c0,0.704,0,1.584,0.039,2.504c-0.137,0.059-0.352,0.098-0.527,0.098
			c-0.156,0-0.371-0.039-0.527-0.098c-0.059-0.313-0.1-0.724-0.119-1.095h-0.02c-0.664,0.821-1.838,1.291-2.992,1.291
			c-1.818,0-3.346-1.018-3.346-3.11c0-1.193,0.49-2.074,1.252-2.622c0.861-0.606,1.996-0.802,3.209-0.802
			c0.686,0,1.252,0.039,1.76,0.117v-0.567c0-1.956-0.801-2.602-2.445-2.602c-0.918,0-2.053,0.196-2.758,0.372
			c-0.039-0.098-0.078-0.313-0.078-0.508c0-0.137,0.039-0.333,0.098-0.45c0.842-0.254,1.957-0.411,2.896-0.411
			c2.326,0,3.559,1.056,3.559,3.443V28.039z M188.869,25.28c-0.566-0.078-1.154-0.117-1.662-0.117c-0.959,0-1.818,0.176-2.406,0.626
			c-0.527,0.391-0.822,1.017-0.822,1.819c0,1.428,0.92,2.112,2.191,2.112c1.057,0,2.172-0.508,2.699-1.311V25.28z"/>
		<path style="fill:#58595B;" d="M197.396,21.29c-1.135,0.157-2.367,0.567-3.287,1.272v7.981c-0.195,0.059-0.43,0.098-0.645,0.098
			s-0.432-0.039-0.627-0.098V20.351c0.117-0.039,0.295-0.078,0.49-0.078c0.156,0,0.371,0.039,0.527,0.078l0.098,1.252h0.02
			c0.842-0.724,2.309-1.33,3.424-1.447c0.039,0.117,0.078,0.333,0.078,0.508C197.475,20.859,197.436,21.114,197.396,21.29z"/>
		<path style="fill:#58595B;" d="M205.299,21.583c-0.627-0.254-1.447-0.411-2.172-0.411c-2.543,0-3.482,1.976-3.482,4.362
			c0,2.347,0.9,4.167,3.463,4.167c0.686,0,1.506-0.117,2.113-0.293c0.039,0.118,0.078,0.254,0.078,0.411
			c0,0.234-0.039,0.411-0.098,0.547c-0.568,0.235-1.486,0.372-2.211,0.372c-3.188,0-4.676-2.093-4.676-5.165
			c0-3.188,1.625-5.418,4.734-5.418c0.744,0,1.623,0.176,2.23,0.45c0.059,0.157,0.078,0.313,0.078,0.489
			C205.357,21.29,205.338,21.446,205.299,21.583z"/>
		<path style="fill:#58595B;" d="M215.215,30.542c-0.176,0.059-0.391,0.098-0.586,0.098c-0.236,0-0.49-0.039-0.686-0.098v-6.182
			c0-2.152-0.547-3.13-2.367-3.13c-0.979,0-2.152,0.548-2.914,1.135v8.177c-0.215,0.059-0.451,0.098-0.666,0.098
			c-0.195,0-0.43-0.039-0.605-0.098v-14.28c0.176-0.059,0.449-0.098,0.625-0.098s0.471,0.039,0.646,0.098v5.027
			c1.037-0.802,2.27-1.134,3.227-1.134c0.998,0,2.016,0.333,2.582,1.017c0.627,0.743,0.744,1.819,0.744,2.875V30.542z"/>
		<path style="fill:#58595B;" d="M222.82,18.355c-0.449,0-0.82-0.391-0.82-0.861c0-0.469,0.371-0.841,0.82-0.841
			c0.451,0,0.842,0.372,0.842,0.841C223.662,17.964,223.271,18.355,222.82,18.355z M223.467,30.542
			c-0.176,0.059-0.43,0.098-0.646,0.098c-0.215,0-0.449-0.039-0.625-0.098V20.351c0.156-0.039,0.41-0.098,0.605-0.098
			c0.217,0,0.51,0.039,0.666,0.098V30.542z"/>
		<path style="fill:#58595B;" d="M234.029,30.562c-0.158,0.039-0.393,0.078-0.627,0.078c-0.195,0-0.449-0.039-0.645-0.098v-6.201
			c0-0.939-0.119-1.663-0.393-2.171c-0.332-0.626-0.959-0.939-1.975-0.939c-0.979,0-2.152,0.548-2.916,1.135v8.177
			c-0.215,0.059-0.43,0.098-0.664,0.098c-0.195,0-0.432-0.039-0.607-0.098V20.351c0.137-0.059,0.373-0.078,0.51-0.078
			c0.195,0,0.43,0.02,0.547,0.078l0.098,1.018h0.02c1.076-0.88,2.309-1.213,3.307-1.213s2.035,0.333,2.602,1.017
			c0.625,0.743,0.744,1.819,0.744,2.875V30.562z"/>
	</g>
	<g>
		<path style="fill:#58595B;" d="M131.49,54.465c-0.195,0.039-0.391,0.078-0.586,0.078c-0.235,0-0.45-0.059-0.685-0.098v-6.182
			c0-2.152-0.547-3.13-2.367-3.13c-0.939,0-2.191,0.489-2.974,1.057c0.157,0.547,0.196,1.154,0.196,1.76v6.495
			c-0.196,0.059-0.391,0.098-0.587,0.098c-0.254,0-0.489-0.039-0.685-0.098v-6.182c0-2.152-0.489-3.13-2.308-3.13
			c-0.979,0-2.132,0.548-2.896,1.135v8.177c-0.215,0.059-0.469,0.098-0.704,0.098c-0.196,0-0.411-0.039-0.567-0.098V44.254
			c0.098-0.039,0.313-0.078,0.528-0.078c0.176,0,0.391,0.039,0.528,0.078l0.098,1.018h0.02c1.076-0.88,2.308-1.213,3.306-1.213
			c0.998,0,1.956,0.333,2.523,1.017c0.078,0.078,0.137,0.176,0.195,0.274c1.037-0.841,2.367-1.291,3.639-1.291
			c0.998,0,2.015,0.333,2.582,1.017c0.626,0.743,0.743,1.819,0.743,2.875V54.465z"/>
		<path style="fill:#58595B;" d="M141.424,50.573c0,2.973-1.232,4.069-3.814,4.069c-2.641,0-3.756-1.096-3.756-3.971v-6.417
			c0.176-0.059,0.411-0.098,0.626-0.098c0.274,0,0.489,0.059,0.646,0.098v6.26c0,1.897,0.293,3.149,2.504,3.149
			c2.074,0,2.523-1.212,2.523-3.188v-6.221c0.157-0.059,0.431-0.098,0.646-0.098c0.215,0,0.45,0.039,0.626,0.098V50.573z"/>
		<path style="fill:#58595B;" d="M146.097,54.642c-0.979,0-1.996-0.176-2.7-0.45c-0.059-0.137-0.098-0.372-0.098-0.548
			c0-0.117,0.039-0.411,0.078-0.528c0.724,0.293,1.76,0.528,2.621,0.528c1.487,0,2.406-0.626,2.406-1.858
			c0-1.115-0.567-1.506-2.113-2.073c-2.152-0.783-2.856-1.683-2.856-3.013c0-1.8,1.487-2.641,3.404-2.641
			c0.646,0,1.487,0.117,1.976,0.274c0.059,0.176,0.078,0.352,0.078,0.469c0,0.157-0.039,0.431-0.078,0.567
			c-0.646-0.196-1.33-0.313-1.995-0.313c-1.389,0-2.23,0.528-2.23,1.604c0,0.939,0.528,1.389,2.132,1.995
			c1.467,0.548,2.816,1.096,2.816,3.071C149.54,53.722,148.034,54.642,146.097,54.642z"/>
		<path style="fill:#58595B;" d="M152.141,42.259c-0.451,0-0.822-0.391-0.822-0.861c0-0.469,0.371-0.841,0.822-0.841
			c0.449,0,0.84,0.372,0.84,0.841C152.98,41.868,152.59,42.259,152.141,42.259z M152.785,54.446
			c-0.176,0.059-0.43,0.098-0.645,0.098c-0.217,0-0.451-0.039-0.627-0.098V44.254c0.156-0.039,0.41-0.098,0.607-0.098
			c0.215,0,0.508,0.039,0.664,0.098V54.446z"/>
		<path style="fill:#58595B;" d="M161.744,45.486c-0.627-0.254-1.447-0.411-2.172-0.411c-2.543,0-3.482,1.976-3.482,4.362
			c0,2.347,0.9,4.167,3.463,4.167c0.686,0,1.506-0.117,2.113-0.293c0.039,0.118,0.078,0.254,0.078,0.411
			c0,0.234-0.039,0.411-0.098,0.547c-0.568,0.235-1.486,0.372-2.211,0.372c-3.188,0-4.676-2.093-4.676-5.165
			c0-3.188,1.625-5.418,4.734-5.418c0.744,0,1.623,0.176,2.23,0.45c0.059,0.157,0.078,0.313,0.078,0.489
			C161.803,45.193,161.783,45.35,161.744,45.486z"/>
		<path style="fill:#58595B;" d="M174.75,51.942c0,0.704,0,1.584,0.039,2.504c-0.137,0.059-0.352,0.098-0.529,0.098
			c-0.156,0-0.371-0.039-0.527-0.098c-0.059-0.313-0.098-0.724-0.117-1.095h-0.02c-0.666,0.821-1.84,1.291-2.992,1.291
			c-1.82,0-3.346-1.018-3.346-3.11c0-1.193,0.488-2.074,1.252-2.622c0.861-0.606,1.994-0.802,3.207-0.802
			c0.686,0,1.252,0.039,1.762,0.117v-0.567c0-1.956-0.803-2.602-2.445-2.602c-0.92,0-2.055,0.196-2.758,0.372
			c-0.039-0.098-0.078-0.313-0.078-0.508c0-0.137,0.039-0.333,0.098-0.45c0.84-0.254,1.955-0.411,2.895-0.411
			c2.328,0,3.561,1.056,3.561,3.443V51.942z M173.479,49.184c-0.568-0.078-1.154-0.117-1.662-0.117c-0.959,0-1.82,0.176-2.406,0.626
			c-0.529,0.391-0.822,1.017-0.822,1.819c0,1.428,0.92,2.112,2.191,2.112c1.057,0,2.17-0.508,2.699-1.311V49.184z"/>
		<path style="fill:#58595B;" d="M185.096,54.465c-0.156,0.039-0.391,0.078-0.625,0.078c-0.197,0-0.451-0.039-0.646-0.098v-6.201
			c0-0.939-0.117-1.663-0.391-2.171c-0.334-0.626-0.959-0.939-1.977-0.939c-0.979,0-2.152,0.548-2.914,1.135v8.177
			c-0.215,0.059-0.432,0.098-0.666,0.098c-0.195,0-0.43-0.039-0.605-0.098V44.254c0.137-0.059,0.371-0.078,0.508-0.078
			c0.195,0,0.432,0.02,0.549,0.078l0.098,1.018h0.02c1.076-0.88,2.309-1.213,3.305-1.213c0.998,0,2.035,0.333,2.602,1.017
			c0.627,0.743,0.744,1.819,0.744,2.875V54.465z"/>
		<path style="fill:#58595B;" d="M194.541,54.543c-0.176,0-0.391-0.059-0.508-0.098l-0.117-1.174h-0.02
			c-0.842,0.88-1.84,1.37-2.953,1.37c-2.701,0-3.992-2.25-3.992-4.988c0-2.719,1.154-5.595,4.266-5.595
			c0.979,0,1.877,0.333,2.602,0.841v-4.734c0.176-0.059,0.41-0.098,0.625-0.098c0.236,0,0.471,0.059,0.646,0.098v14.28
			C194.953,54.504,194.758,54.543,194.541,54.543z M193.818,45.976c-0.705-0.587-1.604-0.88-2.523-0.88
			c-2.27,0-3.033,2.23-3.033,4.5c0,1.741,0.549,4.01,2.74,4.01c1.055,0,2.131-0.528,2.816-1.35V45.976z"/>
		<path style="fill:#58595B;" d="M208.721,54.543c-0.176,0-0.391-0.059-0.508-0.098l-0.119-1.174h-0.02
			c-0.84,0.88-1.838,1.37-2.953,1.37c-2.699,0-3.99-2.25-3.99-4.988c0-2.719,1.154-5.595,4.264-5.595
			c0.979,0,1.879,0.333,2.602,0.841v-4.734c0.176-0.059,0.412-0.098,0.627-0.098c0.234,0,0.469,0.059,0.645,0.098v14.28
			C209.131,54.504,208.936,54.543,208.721,54.543z M207.996,45.976c-0.703-0.587-1.604-0.88-2.523-0.88
			c-2.268,0-3.031,2.23-3.031,4.5c0,1.741,0.547,4.01,2.738,4.01c1.057,0,2.133-0.528,2.816-1.35V45.976z"/>
		<path style="fill:#58595B;" d="M216.289,45.193c-1.135,0.157-2.367,0.567-3.287,1.272v7.981c-0.195,0.059-0.43,0.098-0.645,0.098
			s-0.432-0.039-0.627-0.098V44.254c0.117-0.039,0.295-0.078,0.49-0.078c0.156,0,0.371,0.039,0.527,0.078l0.098,1.252h0.02
			c0.842-0.724,2.309-1.33,3.424-1.447c0.039,0.117,0.078,0.333,0.078,0.508C216.367,44.763,216.328,45.017,216.289,45.193z"/>
		<path style="fill:#58595B;" d="M224.426,51.942c0,0.704,0,1.584,0.039,2.504c-0.137,0.059-0.352,0.098-0.529,0.098
			c-0.156,0-0.371-0.039-0.527-0.098c-0.059-0.313-0.098-0.724-0.117-1.095h-0.02c-0.666,0.821-1.84,1.291-2.992,1.291
			c-1.82,0-3.346-1.018-3.346-3.11c0-1.193,0.488-2.074,1.252-2.622c0.861-0.606,1.994-0.802,3.207-0.802
			c0.686,0,1.252,0.039,1.762,0.117v-0.567c0-1.956-0.803-2.602-2.445-2.602c-0.92,0-2.055,0.196-2.758,0.372
			c-0.039-0.098-0.078-0.313-0.078-0.508c0-0.137,0.039-0.333,0.098-0.45c0.84-0.254,1.955-0.411,2.895-0.411
			c2.328,0,3.561,1.056,3.561,3.443V51.942z M223.154,49.184c-0.568-0.078-1.154-0.117-1.662-0.117c-0.959,0-1.82,0.176-2.406,0.626
			c-0.529,0.391-0.822,1.017-0.822,1.819c0,1.428,0.92,2.112,2.191,2.112c1.057,0,2.17-0.508,2.699-1.311V49.184z"/>
		<path style="fill:#58595B;" d="M241.109,54.465c-0.195,0.039-0.391,0.078-0.586,0.078c-0.236,0-0.451-0.059-0.686-0.098v-6.182
			c0-2.152-0.547-3.13-2.367-3.13c-0.939,0-2.191,0.489-2.973,1.057c0.156,0.547,0.195,1.154,0.195,1.76v6.495
			c-0.195,0.059-0.391,0.098-0.586,0.098c-0.256,0-0.49-0.039-0.686-0.098v-6.182c0-2.152-0.488-3.13-2.309-3.13
			c-0.979,0-2.133,0.548-2.895,1.135v8.177c-0.215,0.059-0.471,0.098-0.705,0.098c-0.195,0-0.41-0.039-0.566-0.098V44.254
			c0.098-0.039,0.312-0.078,0.527-0.078c0.176,0,0.393,0.039,0.529,0.078l0.098,1.018h0.02c1.076-0.88,2.309-1.213,3.305-1.213
			c0.998,0,1.957,0.333,2.523,1.017c0.078,0.078,0.139,0.176,0.197,0.274c1.035-0.841,2.365-1.291,3.637-1.291
			c0.998,0,2.016,0.333,2.584,1.017c0.625,0.743,0.742,1.819,0.742,2.875V54.465z"/>
		<path style="fill:#58595B;" d="M250.496,51.942c0,0.704,0,1.584,0.039,2.504c-0.137,0.059-0.352,0.098-0.529,0.098
			c-0.156,0-0.371-0.039-0.527-0.098c-0.059-0.313-0.098-0.724-0.117-1.095h-0.02c-0.666,0.821-1.84,1.291-2.992,1.291
			c-1.82,0-3.346-1.018-3.346-3.11c0-1.193,0.488-2.074,1.252-2.622c0.861-0.606,1.994-0.802,3.207-0.802
			c0.686,0,1.252,0.039,1.762,0.117v-0.567c0-1.956-0.803-2.602-2.445-2.602c-0.92,0-2.055,0.196-2.758,0.372
			c-0.039-0.098-0.078-0.313-0.078-0.508c0-0.137,0.039-0.333,0.098-0.45c0.84-0.254,1.955-0.411,2.895-0.411
			c2.328,0,3.561,1.056,3.561,3.443V51.942z M249.225,49.184c-0.568-0.078-1.154-0.117-1.662-0.117c-0.959,0-1.82,0.176-2.406,0.626
			c-0.529,0.391-0.822,1.017-0.822,1.819c0,1.428,0.92,2.112,2.191,2.112c1.057,0,2.17-0.508,2.699-1.311V49.184z"/>
	</g>
	<g>
		<path style="fill:#58595B;" d="M118.032,66.164c-0.45,0-0.822-0.391-0.822-0.861c0-0.469,0.372-0.841,0.822-0.841
			c0.45,0,0.841,0.372,0.841,0.841C118.873,65.773,118.481,66.164,118.032,66.164z M118.677,78.351
			c-0.176,0.059-0.431,0.098-0.646,0.098c-0.215,0-0.45-0.039-0.626-0.098V68.159c0.156-0.039,0.411-0.098,0.606-0.098
			c0.215,0,0.509,0.039,0.666,0.098V78.351z"/>
		<path style="fill:#58595B;" d="M123.879,78.547c-0.978,0-1.995-0.176-2.699-0.45c-0.059-0.137-0.098-0.372-0.098-0.548
			c0-0.117,0.039-0.411,0.078-0.528c0.724,0.293,1.76,0.528,2.621,0.528c1.487,0,2.406-0.626,2.406-1.858
			c0-1.115-0.567-1.506-2.113-2.073c-2.152-0.783-2.856-1.683-2.856-3.013c0-1.8,1.487-2.641,3.404-2.641
			c0.646,0,1.487,0.117,1.976,0.274c0.059,0.176,0.078,0.352,0.078,0.469c0,0.157-0.039,0.431-0.078,0.567
			c-0.646-0.196-1.33-0.313-1.995-0.313c-1.389,0-2.23,0.528-2.23,1.604c0,0.939,0.528,1.389,2.132,1.995
			c1.467,0.548,2.817,1.096,2.817,3.071C127.323,77.627,125.816,78.547,123.879,78.547z"/>
		<path style="fill:#58595B;" d="M138.626,69.098c-1.135,0.157-2.367,0.567-3.287,1.272v7.981c-0.195,0.059-0.43,0.098-0.646,0.098
			c-0.215,0-0.43-0.039-0.626-0.098V68.159c0.118-0.039,0.293-0.078,0.489-0.078c0.156,0,0.372,0.039,0.528,0.078l0.098,1.252h0.02
			c0.841-0.724,2.308-1.33,3.423-1.447c0.039,0.117,0.078,0.333,0.078,0.508C138.705,68.668,138.666,68.922,138.626,69.098z"/>
		<path style="fill:#58595B;" d="M147.154,75.847c0,0.704,0,1.584,0.04,2.504c-0.137,0.059-0.352,0.098-0.528,0.098
			c-0.157,0-0.372-0.039-0.528-0.098c-0.059-0.313-0.098-0.724-0.117-1.095H146c-0.665,0.821-1.839,1.291-2.993,1.291
			c-1.819,0-3.345-1.018-3.345-3.11c0-1.193,0.489-2.074,1.252-2.622c0.86-0.606,1.995-0.802,3.208-0.802
			c0.685,0,1.252,0.039,1.76,0.117v-0.567c0-1.956-0.802-2.602-2.445-2.602c-0.919,0-2.054,0.196-2.758,0.372
			c-0.039-0.098-0.078-0.313-0.078-0.508c0-0.137,0.039-0.333,0.098-0.45c0.841-0.254,1.956-0.411,2.895-0.411
			c2.328,0,3.56,1.056,3.56,3.443V75.847z M145.882,73.089c-0.567-0.078-1.154-0.117-1.663-0.117c-0.958,0-1.819,0.176-2.406,0.626
			c-0.528,0.391-0.821,1.017-0.821,1.819c0,1.428,0.919,2.112,2.191,2.112c1.056,0,2.171-0.508,2.699-1.311V73.089z"/>
		<path style="fill:#58595B;" d="M157.871,78.371c-0.156,0.039-0.391,0.078-0.625,0.078c-0.195,0-0.451-0.039-0.646-0.098V72.15
			c0-0.939-0.117-1.663-0.391-2.171c-0.332-0.626-0.959-0.939-1.977-0.939c-0.977,0-2.15,0.548-2.914,1.135v8.177
			c-0.215,0.059-0.43,0.098-0.665,0.098c-0.195,0-0.43-0.039-0.606-0.098V68.159c0.137-0.059,0.372-0.078,0.509-0.078
			c0.196,0,0.43,0.02,0.548,0.078l0.098,1.018h0.02c1.076-0.88,2.309-1.213,3.307-1.213c0.996,0,2.033,0.333,2.602,1.017
			c0.625,0.743,0.742,1.819,0.742,2.875V78.371z"/>
		<path style="fill:#58595B;" d="M168.178,78.351c-0.137,0.039-0.43,0.098-0.645,0.098s-0.529-0.039-0.783-0.098l-3.324-5.243
			l-1.488,1.389v3.854c-0.195,0.059-0.449,0.098-0.684,0.098c-0.156,0-0.412-0.039-0.588-0.098v-14.28
			c0.176-0.059,0.393-0.098,0.646-0.098c0.234,0,0.43,0.039,0.625,0.098v8.94l3.307-3.091c0.705-0.665,1.057-1.252,1.154-1.761
			c0.137-0.059,0.43-0.098,0.605-0.098c0.178,0,0.451,0.039,0.568,0.098c-0.078,0.724-0.529,1.604-1.428,2.426l-1.82,1.683
			L168.178,78.351z"/>
		<path style="fill:#58595B;" d="M176.9,73.598h-6.553c0.078,2.25,1.135,3.951,3.58,3.951c0.879,0,1.701-0.117,2.426-0.293
			c0.039,0.098,0.078,0.293,0.078,0.411c0,0.195-0.039,0.372-0.098,0.508c-0.764,0.235-1.723,0.372-2.523,0.372
			c-1.547,0-2.721-0.489-3.443-1.271c-0.861-0.939-1.311-2.348-1.311-3.971c0-2.836,1.428-5.34,4.283-5.34
			c2.562,0,3.58,2.113,3.58,4.695C176.92,72.952,176.92,73.304,176.9,73.598z M175.648,72.659c0-1.8-0.195-3.736-2.367-3.736
			c-1.896,0-2.816,1.741-2.934,3.736H175.648z"/>
		<path style="fill:#58595B;" d="M186.248,78.449c-0.176,0-0.391-0.059-0.508-0.098l-0.117-1.174h-0.02
			c-0.842,0.88-1.84,1.37-2.953,1.37c-2.701,0-3.992-2.25-3.992-4.988c0-2.719,1.154-5.595,4.266-5.595
			c0.979,0,1.877,0.333,2.602,0.841v-4.734c0.176-0.059,0.41-0.098,0.625-0.098c0.236,0,0.471,0.059,0.646,0.098v14.28
			C186.66,78.41,186.465,78.449,186.248,78.449z M185.525,69.881c-0.705-0.587-1.604-0.88-2.523-0.88c-2.27,0-3.033,2.23-3.033,4.5
			c0,1.741,0.549,4.01,2.74,4.01c1.055,0,2.131-0.528,2.816-1.35V69.881z"/>
		<path style="fill:#58595B;" d="M195.832,78.429c0,1.761-0.275,2.954-1.115,3.834c-0.529,0.547-1.447,0.88-2.426,0.88
			c-0.332,0-0.549-0.02-0.881-0.078c-0.059-0.117-0.078-0.293-0.078-0.411c0-0.118,0.039-0.352,0.078-0.45
			c0.176,0.039,0.451,0.059,0.627,0.059c2.033,0,2.523-1.545,2.523-3.345V68.159c0.176-0.059,0.43-0.098,0.625-0.098
			c0.176,0,0.471,0.059,0.646,0.098V78.429z M195.186,66.164c-0.449,0-0.82-0.391-0.82-0.861c0-0.469,0.371-0.841,0.82-0.841
			c0.451,0,0.842,0.372,0.842,0.841C196.027,65.773,195.637,66.164,195.186,66.164z"/>
		<path style="fill:#58595B;" d="M202.402,78.547c-2.562,0-4.205-1.761-4.205-5.282s1.662-5.301,4.225-5.301
			s4.188,1.741,4.188,5.262C206.609,76.747,204.965,78.547,202.402,78.547z M202.422,68.922c-1.877,0-2.895,1.448-2.895,4.323
			s0.998,4.343,2.875,4.343c1.879,0,2.877-1.467,2.877-4.343S204.301,68.922,202.422,68.922z"/>
		<path style="fill:#58595B;" d="M209.58,66.164c-0.449,0-0.822-0.391-0.822-0.861c0-0.469,0.373-0.841,0.822-0.841
			s0.842,0.372,0.842,0.841C210.422,65.773,210.029,66.164,209.58,66.164z M210.225,78.351c-0.176,0.059-0.43,0.098-0.645,0.098
			s-0.449-0.039-0.627-0.098V68.159c0.158-0.039,0.412-0.098,0.607-0.098c0.215,0,0.508,0.039,0.664,0.098V78.351z"/>
		<path style="fill:#58595B;" d="M220.984,78.371c-0.158,0.039-0.393,0.078-0.627,0.078c-0.195,0-0.449-0.039-0.645-0.098V72.15
			c0-0.939-0.119-1.663-0.393-2.171c-0.332-0.626-0.959-0.939-1.975-0.939c-0.979,0-2.152,0.548-2.916,1.135v8.177
			c-0.215,0.059-0.43,0.098-0.664,0.098c-0.195,0-0.432-0.039-0.607-0.098V68.159c0.137-0.059,0.373-0.078,0.51-0.078
			c0.195,0,0.43,0.02,0.547,0.078l0.098,1.018h0.02c1.076-0.88,2.309-1.213,3.307-1.213s2.035,0.333,2.602,1.017
			c0.625,0.743,0.744,1.819,0.744,2.875V78.371z"/>
		<path style="fill:#58595B;" d="M229.197,78.253c-0.508,0.176-1.271,0.293-1.838,0.293c-1.938,0-2.857-0.919-2.857-3.091v-6.299
			h-1.76c-0.039-0.098-0.059-0.333-0.059-0.45c0-0.098,0.02-0.333,0.059-0.43l1.76-0.118v-2.66c0.158-0.059,0.412-0.098,0.627-0.098
			s0.488,0.039,0.645,0.098v2.66h2.877c0.039,0.098,0.078,0.392,0.078,0.489c0,0.137-0.039,0.372-0.078,0.509h-2.877v6.181
			c0,1.545,0.451,2.191,1.664,2.191c0.664,0,1.311-0.098,1.76-0.234c0.039,0.098,0.078,0.333,0.078,0.469
			C229.275,77.94,229.256,78.077,229.197,78.253z"/>
	</g>
	<g>
		<path style="fill:#4FAEC5;" d="M60.552,129.223H39.65c-0.44-1.028-0.587-2.301-0.587-3.426c0-0.588,0.049-1.322,0.147-1.812
			c3.426-3.476,7.098-7.392,10.329-11.014c2.398-2.692,4.308-5.188,4.308-7.93c0-2.399-1.665-3.77-4.602-3.77
			c-2.154,0-5.58,0.734-8.762,2.252c-0.196-0.832-0.392-2.301-0.392-3.476c0-0.587,0.098-1.762,0.294-2.545
			c2.398-1.028,6.266-1.958,10.035-1.958c5.58,0,10.476,2.594,10.476,8.615c0,5.287-2.839,8.86-8.909,15.224
			c-1.175,1.272-2.447,2.497-3.72,3.818H60.65c0.147,0.637,0.245,1.86,0.245,3.035C60.895,127.216,60.748,128.538,60.552,129.223z"
			/>
		<path style="fill:#4FAEC5;" d="M92.023,129.223c-0.489,0.098-1.664,0.196-2.497,0.196c-0.832,0-1.664-0.049-2.447-0.196
			l-15.224-21.195v21.195c-0.392,0.098-1.86,0.245-3.23,0.245c-1.126,0-2.448-0.146-3.133-0.245v-33.09
			c0.783-0.147,1.713-0.196,2.594-0.196c0.93,0,1.909,0.098,2.643,0.196l14.93,20.804V96.133c0.979-0.147,2.251-0.245,3.182-0.245
			s2.301,0.098,3.182,0.245V129.223z"/>
		<path style="fill:#4FAEC5;" d="M116.74,126.286c-3.035,2.35-6.951,3.182-12.336,3.182c-2.741,0-7.391-0.098-8.958-0.245v-33.09
			c2.398-0.147,7.391-0.245,10.182-0.245c10.769,0,16.3,4.552,16.3,16.398C121.928,118.405,120.313,123.496,116.74,126.286z
			 M105.775,101.664c-1.322,0-2.791,0.049-3.329,0.098v21.783c0.637,0.049,2.105,0.098,3.623,0.098
			c6.167,0,8.615-3.916,8.615-11.454C114.684,103.916,112.138,101.664,105.775,101.664z"/>
		<path style="fill:#4FAEC5;" d="M140.083,129.223c-0.93,0.147-2.056,0.245-3.524,0.245c-1.322,0-2.545-0.098-3.476-0.245v-33.09
			c0.93-0.147,2.301-0.245,3.524-0.245c1.371,0,2.594,0.098,3.476,0.245V129.223z"/>
		<path style="fill:#4FAEC5;" d="M172.145,129.223c-0.49,0.098-1.666,0.196-2.498,0.196s-1.664-0.049-2.447-0.196l-15.223-21.195
			v21.195c-0.393,0.098-1.86,0.245-3.231,0.245c-1.126,0-2.448-0.146-3.133-0.245v-33.09c0.783-0.147,1.713-0.196,2.594-0.196
			c0.93,0,1.909,0.098,2.643,0.196l14.929,20.804V96.133c0.98-0.147,2.252-0.245,3.184-0.245c0.93,0,2.299,0.098,3.182,0.245
			V129.223z"/>
		<path style="fill:#4FAEC5;" d="M206.209,102.104h-8.764v27.119c-0.93,0.147-2.252,0.245-3.475,0.245
			c-1.225,0-2.545-0.098-3.525-0.245v-27.119h-8.762c-0.195-0.636-0.342-2.153-0.342-2.986c0-0.832,0.195-2.35,0.391-2.986h24.477
			c0.195,0.636,0.342,2.154,0.342,2.986C206.551,99.951,206.404,101.468,206.209,102.104z"/>
		<path style="fill:#4FAEC5;" d="M234.547,129.223c-0.881,0.147-2.105,0.245-3.475,0.245c-1.371,0-2.596-0.098-3.525-0.245v-13.706
			h-11.504v13.706c-0.93,0.147-2.006,0.245-3.475,0.245c-1.322,0-2.594-0.098-3.525-0.245v-33.09
			c0.932-0.147,2.301-0.245,3.525-0.245c1.371,0,2.594,0.098,3.475,0.245v13.412h11.504V96.133c1.076-0.147,2.301-0.245,3.525-0.245
			c1.174,0,2.643,0.098,3.475,0.245V129.223z"/>
		<path style="fill:#4FAEC5;" d="M260.682,129.223h-20.705v-33.09h20.266c0.195,0.539,0.342,1.566,0.342,2.937
			c0,1.077-0.098,2.007-0.342,3.035h-13.266v7.147h11.209c0.195,0.539,0.344,1.518,0.344,2.888c0,1.077-0.098,1.958-0.344,2.986
			h-11.209v8.125h13.705c0.197,0.539,0.344,1.566,0.344,2.938C261.025,127.265,260.928,128.195,260.682,129.223z"/>
	</g>
	<g>
		<path style="fill:#4FAEC5;" d="M140.009,222.038c0,34.515-13.244,53.578-51.772,53.578c-38.93,0-51.17-19.063-51.17-53.578
			v-84.081c4.013-0.602,9.23-1.003,14.047-1.003c5.619,0,10.635,0.401,14.648,1.003v86.086c0,18.462,5.217,28.896,22.676,28.896
			c17.458,0,23.478-10.435,23.478-28.896v-86.086c3.612-0.602,9.632-1.003,14.248-1.003c4.415,0,10.435,0.401,13.846,1.003V222.038z
			"/>
		<path style="fill:#4FAEC5;" d="M268.238,273.609c-3.611,0.602-10.033,1.003-17.057,1.003c-5.018,0-12.24-0.401-16.455-1.003
			l-35.117-54.381l-9.23,11.036v43.345c-3.812,0.602-8.428,1.003-14.447,1.003c-5.418,0-10.436-0.401-14.248-1.003V137.958
			c3.812-0.602,9.432-1.003,14.447-1.003c5.619,0,10.637,0.401,14.248,1.003v58.395l23.277-27.291
			c10.234-12.04,15.854-20.669,18.061-31.104c4.014-0.602,9.633-1.003,14.047-1.003c3.611,0,9.832,0.401,14.047,1.003
			c-3.01,15.853-11.438,29.699-23.479,43.545l-16.053,18.461L268.238,273.609z"/>
	</g>
</g>
</svg>
