<?xml version="1.0" encoding="utf-8"?>
<!-- Generator: Adobe Illustrator 16.0.0, SVG Export Plug-In . SVG Version: 6.00 Build 0)  -->
<!DOCTYPE svg PUBLIC "-//W3C//DTD SVG 1.1//EN" "http://www.w3.org/Graphics/SVG/1.1/DTD/svg11.dtd">
<svg version="1.1" id="Layer_1" xmlns="http://www.w3.org/2000/svg" xmlns:xlink="http://www.w3.org/1999/xlink" x="0px" y="0px"
	 width="300px" height="300px" viewBox="0 0 300 300" enable-background="new 0 0 300 300" xml:space="preserve">
<g>
	<path fill="#59A6AE" d="M52.025,100.094c-1.814,0.363-5.081,0.605-8.589,0.605c-3.388,0-6.412-0.242-8.589-0.605V37.551
		L17.669,48.923c-4.113-3.75-7.017-8.831-8.105-13.186l28.428-17.42c1.693-0.363,5.202-0.605,7.016-0.605
		c2.057,0,5.807,0.363,7.017,0.605V100.094z"/>
	<path fill="#59A6AE" d="M88.438,101.304c-19.355,0-28.792-14.275-28.792-42.099c0-28.065,9.799-42.098,29.154-42.098
		c19.234,0,28.67,14.032,28.67,42.098C117.471,87.029,107.672,101.304,88.438,101.304z M88.559,31.261
		c-7.742,0-11.13,7.138-11.13,27.944c0,20.444,3.388,27.945,11.13,27.945s11.129-7.5,11.129-27.945
		C99.688,38.398,96.301,31.261,88.559,31.261z"/>
	<path fill="#59A6AE" d="M152.432,101.304c-19.355,0-28.792-14.275-28.792-42.099c0-28.065,9.799-42.098,29.155-42.098
		c19.234,0,28.67,14.032,28.67,42.098C181.465,87.029,171.666,101.304,152.432,101.304z M152.553,31.261
		c-7.742,0-11.13,7.138-11.13,27.944c0,20.444,3.388,27.945,11.13,27.945s11.129-7.5,11.129-27.945
		C163.682,38.398,160.295,31.261,152.553,31.261z"/>
	<path fill="#59A6AE" d="M184.61,35.858c0-10.404,4.718-19.355,18.146-19.355c13.549,0,18.146,8.952,18.146,19.355
		c0,10.162-4.597,19.597-18.146,19.597C189.328,55.455,184.61,46.02,184.61,35.858z M210.377,101.424
		c-5.201-1.452-10.524-4.959-13.186-8.71l49.598-77.785c4.96,1.331,10.283,4.355,13.308,8.105L210.377,101.424z M206.869,36.1
		c0-5.202-1.089-8.468-4.113-8.468s-4.113,3.266-4.113,8.468c0,5.202,1.21,8.226,4.113,8.226S206.869,41.302,206.869,36.1z
		 M234.935,82.311c0-10.404,4.718-19.355,18.146-19.355c13.549,0,18.146,8.952,18.146,19.355c0,10.162-4.597,19.597-18.146,19.597
		C239.652,101.908,234.935,92.473,234.935,82.311z M257.193,82.553c0-5.202-1.089-8.468-4.113-8.468s-4.113,3.266-4.113,8.468
		c0,5.202,1.21,8.226,4.113,8.226S257.193,87.755,257.193,82.553z"/>
</g>
<g>
	<path fill="#333333" d="M23.951,129.786c-2.443,0-4.009-1.678-4.009-5.035c0-3.356,1.585-5.053,4.028-5.053
		c2.442,0,3.99,1.66,3.99,5.016S26.394,129.786,23.951,129.786z M23.97,120.612c-1.79,0-2.76,1.38-2.76,4.121
		c0,2.741,0.951,4.14,2.741,4.14s2.741-1.398,2.741-4.14C26.692,121.992,25.76,120.612,23.97,120.612z"/>
	<path fill="#333333" d="M35.459,116.79c-0.28-0.075-0.783-0.149-1.175-0.149c-0.708,0-1.23,0.187-1.585,0.578
		c-0.541,0.578-0.634,1.361-0.634,2.349v0.317h2.629c0.038,0.093,0.075,0.317,0.075,0.448c0,0.149-0.037,0.373-0.075,0.503h-2.629
		v8.764c-0.168,0.056-0.354,0.093-0.597,0.093s-0.448-0.037-0.615-0.093v-8.764h-1.678c-0.038-0.093-0.056-0.336-0.056-0.448
		c0-0.093,0.019-0.298,0.056-0.392l1.678-0.112v-0.317c0-1.324,0.224-2.237,0.988-3.002c0.541-0.541,1.342-0.802,2.256-0.802
		c0.485,0,1.026,0.112,1.361,0.242c0.037,0.093,0.056,0.224,0.056,0.354C35.515,116.473,35.496,116.696,35.459,116.79z"/>
	<path fill="#333333" d="M42.511,125.292c0,1.23,0.205,2.163,0.746,2.759c0.466,0.504,1.175,0.802,2.238,0.802
		s1.79-0.298,2.256-0.802c0.541-0.597,0.746-1.529,0.746-2.759v-8.298c0.168-0.056,0.466-0.093,0.634-0.093
		c0.187,0,0.466,0.038,0.634,0.093v8.111c0,1.66-0.317,2.815-1.1,3.599c-0.69,0.69-1.734,1.082-3.17,1.082s-2.461-0.392-3.151-1.082
		c-0.783-0.783-1.1-1.939-1.1-3.599v-8.111c0.149-0.056,0.41-0.093,0.634-0.093c0.224,0,0.447,0.038,0.634,0.093V125.292z"/>
	<path fill="#333333" d="M53.795,129.6c-0.205,0.056-0.41,0.093-0.634,0.093c-0.187,0-0.41-0.037-0.578-0.093v-13.612
		c0.168-0.037,0.373-0.093,0.615-0.093c0.205,0,0.429,0.038,0.597,0.093V129.6z"/>
	<path fill="#333333" d="M58.532,129.786c-0.932,0-1.902-0.168-2.573-0.429c-0.056-0.131-0.093-0.354-0.093-0.522
		c0-0.112,0.037-0.392,0.074-0.503c0.69,0.28,1.678,0.503,2.499,0.503c1.417,0,2.293-0.597,2.293-1.771
		c0-1.062-0.541-1.436-2.014-1.976c-2.051-0.746-2.722-1.604-2.722-2.872c0-1.716,1.417-2.518,3.245-2.518
		c0.615,0,1.417,0.112,1.883,0.261c0.056,0.168,0.074,0.335,0.074,0.448c0,0.149-0.037,0.41-0.074,0.541
		c-0.616-0.187-1.268-0.298-1.902-0.298c-1.324,0-2.125,0.503-2.125,1.529c0,0.895,0.503,1.324,2.032,1.902
		c1.399,0.522,2.686,1.044,2.686,2.928C61.814,128.91,60.378,129.786,58.532,129.786z"/>
	<path fill="#333333" d="M68.791,129.506c-0.485,0.168-1.212,0.28-1.753,0.28c-1.846,0-2.722-0.876-2.722-2.946v-6.004h-1.678
		c-0.038-0.093-0.056-0.317-0.056-0.429c0-0.093,0.019-0.317,0.056-0.411l1.678-0.112v-2.536c0.149-0.056,0.392-0.093,0.597-0.093
		s0.466,0.037,0.615,0.093v2.536h2.741c0.038,0.093,0.075,0.373,0.075,0.466c0,0.13-0.037,0.354-0.075,0.485h-2.741v5.892
		c0,1.473,0.429,2.088,1.585,2.088c0.634,0,1.249-0.093,1.678-0.224c0.037,0.093,0.074,0.317,0.074,0.447
		C68.865,129.208,68.846,129.338,68.791,129.506z"/>
	<path fill="#333333" d="M77.09,125.068h-6.246c0.074,2.145,1.082,3.767,3.412,3.767c0.839,0,1.622-0.112,2.312-0.279
		c0.038,0.093,0.075,0.279,0.075,0.391c0,0.187-0.037,0.354-0.093,0.485c-0.727,0.224-1.641,0.354-2.405,0.354
		c-1.473,0-2.592-0.466-3.282-1.212c-0.82-0.895-1.25-2.238-1.25-3.785c0-2.704,1.361-5.091,4.083-5.091
		c2.443,0,3.413,2.014,3.413,4.475C77.109,124.453,77.109,124.789,77.09,125.068z M75.896,124.173c0-1.715-0.186-3.561-2.256-3.561
		c-1.809,0-2.685,1.659-2.797,3.561H75.896z"/>
	<path fill="#333333" d="M83.489,120.78c-1.081,0.149-2.256,0.541-3.132,1.212v7.607c-0.187,0.056-0.41,0.093-0.615,0.093
		s-0.41-0.037-0.597-0.093v-9.715c0.112-0.037,0.28-0.074,0.466-0.074c0.149,0,0.354,0.037,0.504,0.074l0.093,1.193h0.019
		c0.802-0.69,2.2-1.268,3.263-1.38c0.038,0.112,0.075,0.317,0.075,0.485C83.563,120.37,83.526,120.612,83.489,120.78z"/>
	<path fill="#333333" d="M90.988,125.292c0,1.23,0.205,2.163,0.746,2.759c0.466,0.504,1.175,0.802,2.238,0.802
		s1.79-0.298,2.256-0.802c0.541-0.597,0.746-1.529,0.746-2.759v-8.298c0.168-0.056,0.466-0.093,0.634-0.093
		c0.186,0,0.466,0.038,0.634,0.093v8.111c0,1.66-0.317,2.815-1.1,3.599c-0.69,0.69-1.734,1.082-3.17,1.082
		c-1.436,0-2.461-0.392-3.151-1.082c-0.783-0.783-1.1-1.939-1.1-3.599v-8.111c0.149-0.056,0.41-0.093,0.634-0.093
		c0.224,0,0.447,0.038,0.634,0.093V125.292z"/>
	<path fill="#333333" d="M108.482,129.618c-0.149,0.038-0.373,0.075-0.597,0.075c-0.187,0-0.429-0.037-0.615-0.093v-5.911
		c0-0.895-0.112-1.585-0.373-2.07c-0.317-0.597-0.914-0.895-1.883-0.895c-0.933,0-2.051,0.522-2.778,1.082v7.794
		c-0.205,0.056-0.41,0.093-0.634,0.093c-0.187,0-0.411-0.037-0.578-0.093v-9.715c0.13-0.056,0.354-0.074,0.485-0.074
		c0.186,0,0.41,0.019,0.522,0.074l0.093,0.97h0.019c1.025-0.839,2.2-1.156,3.151-1.156c0.951,0,1.939,0.317,2.48,0.97
		c0.597,0.708,0.708,1.734,0.708,2.741V129.618z"/>
	<path fill="#333333" d="M111.637,117.983c-0.429,0-0.783-0.373-0.783-0.82c0-0.448,0.354-0.802,0.783-0.802
		c0.429,0,0.802,0.354,0.802,0.802C112.438,117.61,112.065,117.983,111.637,117.983z M112.252,129.6
		c-0.168,0.056-0.41,0.093-0.615,0.093c-0.206,0-0.429-0.037-0.597-0.093v-9.715c0.149-0.037,0.391-0.093,0.578-0.093
		c0.205,0,0.485,0.038,0.634,0.093V129.6z"/>
	<path fill="#333333" d="M121.446,122.253l-2.927,7.347c-0.168,0.056-0.354,0.093-0.504,0.093c-0.205,0-0.373-0.037-0.522-0.093
		l-3.021-7.347c-0.336-0.839-0.485-1.678-0.485-2.368c0.149-0.037,0.41-0.093,0.578-0.093c0.224,0,0.447,0.038,0.634,0.093
		c0.019,0.634,0.093,1.361,0.373,2.033l2.424,6.153h0.038l2.349-6.153c0.261-0.653,0.392-1.38,0.392-2.033
		c0.131-0.056,0.41-0.093,0.653-0.093c0.13,0,0.373,0.019,0.541,0.075C121.949,120.538,121.819,121.339,121.446,122.253z"/>
	<path fill="#333333" d="M130.474,125.068h-6.247c0.074,2.145,1.082,3.767,3.412,3.767c0.839,0,1.622-0.112,2.312-0.279
		c0.038,0.093,0.075,0.279,0.075,0.391c0,0.187-0.037,0.354-0.093,0.485c-0.727,0.224-1.641,0.354-2.405,0.354
		c-1.473,0-2.592-0.466-3.282-1.212c-0.82-0.895-1.25-2.238-1.25-3.785c0-2.704,1.361-5.091,4.083-5.091
		c2.443,0,3.413,2.014,3.413,4.475C130.492,124.453,130.492,124.789,130.474,125.068z M129.28,124.173
		c0-1.715-0.187-3.561-2.256-3.561c-1.809,0-2.685,1.659-2.797,3.561H129.28z"/>
	<path fill="#333333" d="M136.872,120.78c-1.081,0.149-2.256,0.541-3.132,1.212v7.607c-0.187,0.056-0.41,0.093-0.615,0.093
		s-0.41-0.037-0.597-0.093v-9.715c0.112-0.037,0.28-0.074,0.466-0.074c0.149,0,0.354,0.037,0.504,0.074l0.093,1.193h0.019
		c0.802-0.69,2.2-1.268,3.263-1.38c0.038,0.112,0.075,0.317,0.075,0.485C136.946,120.37,136.909,120.612,136.872,120.78z"/>
	<path fill="#333333" d="M140.92,129.786c-0.932,0-1.902-0.168-2.573-0.429c-0.056-0.131-0.093-0.354-0.093-0.522
		c0-0.112,0.037-0.392,0.074-0.503c0.69,0.28,1.678,0.503,2.499,0.503c1.417,0,2.293-0.597,2.293-1.771
		c0-1.062-0.541-1.436-2.014-1.976c-2.051-0.746-2.722-1.604-2.722-2.872c0-1.716,1.417-2.518,3.245-2.518
		c0.615,0,1.417,0.112,1.883,0.261c0.056,0.168,0.074,0.335,0.074,0.448c0,0.149-0.037,0.41-0.074,0.541
		c-0.616-0.187-1.268-0.298-1.902-0.298c-1.324,0-2.125,0.503-2.125,1.529c0,0.895,0.503,1.324,2.032,1.902
		c1.399,0.522,2.686,1.044,2.686,2.928C144.202,128.91,142.766,129.786,140.92,129.786z"/>
	<path fill="#333333" d="M146.853,117.983c-0.429,0-0.783-0.373-0.783-0.82c0-0.448,0.354-0.802,0.783-0.802
		c0.429,0,0.802,0.354,0.802,0.802C147.654,117.61,147.281,117.983,146.853,117.983z M147.468,129.6
		c-0.168,0.056-0.41,0.093-0.615,0.093c-0.206,0-0.429-0.037-0.597-0.093v-9.715c0.149-0.037,0.391-0.093,0.578-0.093
		c0.205,0,0.485,0.038,0.634,0.093V129.6z"/>
	<path fill="#333333" d="M155.244,129.506c-0.484,0.168-1.212,0.28-1.752,0.28c-1.847,0-2.723-0.876-2.723-2.946v-6.004h-1.678
		c-0.038-0.093-0.056-0.317-0.056-0.429c0-0.093,0.019-0.317,0.056-0.411l1.678-0.112v-2.536c0.149-0.056,0.392-0.093,0.597-0.093
		s0.466,0.037,0.615,0.093v2.536h2.741c0.037,0.093,0.074,0.373,0.074,0.466c0,0.13-0.037,0.354-0.074,0.485h-2.741v5.892
		c0,1.473,0.429,2.088,1.585,2.088c0.634,0,1.249-0.093,1.678-0.224c0.038,0.093,0.075,0.317,0.075,0.447
		C155.319,129.208,155.301,129.338,155.244,129.506z"/>
	<path fill="#333333" d="M163.936,127.978c0,1.809-0.075,3.095-0.728,4.251c-0.746,1.324-2.219,1.958-3.543,1.958
		c-0.97,0-1.641-0.093-2.237-0.298c-0.056-0.112-0.074-0.298-0.074-0.447c0-0.112,0.037-0.354,0.074-0.466
		c0.56,0.168,1.23,0.298,2.126,0.298c2.051,0,3.17-1.473,3.17-4.028v-0.652c-0.951,0.839-2.014,1.193-2.983,1.193
		c-1.045,0-1.865-0.261-2.387-0.895c-0.578-0.69-0.653-1.697-0.653-2.704v-6.303c0.149-0.037,0.392-0.093,0.578-0.093
		c0.224,0,0.467,0.056,0.634,0.093v6.098c0,0.895,0.075,1.641,0.411,2.144c0.298,0.429,0.782,0.653,1.51,0.653
		c1.156,0,2.256-0.615,2.891-1.231v-7.664c0.167-0.037,0.41-0.093,0.634-0.093c0.187,0,0.429,0.056,0.578,0.093V127.978z"/>
	<path fill="#333333" d="M166.699,118.226c-0.578-0.131-1.008-0.503-1.008-1.1c0-0.522,0.392-0.951,0.914-0.951
		c0.765,0,1.212,0.56,1.212,1.398c0,1.23-0.728,2.592-1.846,3.58c-0.131-0.075-0.299-0.242-0.392-0.392
		C166.195,120.034,166.624,119.139,166.699,118.226z"/>
	<path fill="#333333" d="M170.95,129.786c-0.932,0-1.901-0.168-2.573-0.429c-0.056-0.131-0.093-0.354-0.093-0.522
		c0-0.112,0.037-0.392,0.074-0.503c0.69,0.28,1.679,0.503,2.499,0.503c1.417,0,2.293-0.597,2.293-1.771
		c0-1.062-0.54-1.436-2.014-1.976c-2.051-0.746-2.723-1.604-2.723-2.872c0-1.716,1.418-2.518,3.245-2.518
		c0.615,0,1.417,0.112,1.883,0.261c0.057,0.168,0.075,0.335,0.075,0.448c0,0.149-0.038,0.41-0.075,0.541
		c-0.615-0.187-1.268-0.298-1.901-0.298c-1.324,0-2.126,0.503-2.126,1.529c0,0.895,0.504,1.324,2.032,1.902
		c1.398,0.522,2.686,1.044,2.686,2.928C174.232,128.91,172.797,129.786,170.95,129.786z"/>
	<path fill="#333333" d="M183.298,129.786c-0.857,0-1.957-0.13-2.983-0.503v-13.295c0.131-0.037,0.41-0.093,0.578-0.093
		c0.299,0,0.522,0.056,0.634,0.093v4.718c0.765-0.634,1.734-1.007,2.76-1.007c2.63,0,3.729,2.256,3.729,4.773
		C188.016,127.679,186.375,129.786,183.298,129.786z M184.119,120.743c-0.933,0-1.865,0.392-2.593,1.119v6.694
		c0.504,0.186,1.138,0.298,1.679,0.298c2.592,0,3.543-1.976,3.543-4.307C186.748,122.738,186.226,120.743,184.119,120.743z"/>
	<path fill="#333333" d="M197.192,125.908c0,2.834-1.175,3.878-3.636,3.878c-2.518,0-3.58-1.044-3.58-3.785v-6.116
		c0.168-0.056,0.392-0.093,0.597-0.093c0.261,0,0.466,0.056,0.615,0.093v5.967c0,1.809,0.28,3.002,2.387,3.002
		c1.977,0,2.405-1.156,2.405-3.039v-5.93c0.149-0.056,0.41-0.093,0.615-0.093s0.43,0.038,0.597,0.093V125.908z"/>
	<path fill="#333333" d="M201.839,129.786c-0.932,0-1.901-0.168-2.573-0.429c-0.056-0.131-0.093-0.354-0.093-0.522
		c0-0.112,0.037-0.392,0.074-0.503c0.69,0.28,1.679,0.503,2.499,0.503c1.417,0,2.293-0.597,2.293-1.771
		c0-1.062-0.54-1.436-2.014-1.976c-2.051-0.746-2.723-1.604-2.723-2.872c0-1.716,1.418-2.518,3.245-2.518
		c0.615,0,1.417,0.112,1.883,0.261c0.057,0.168,0.075,0.335,0.075,0.448c0,0.149-0.038,0.41-0.075,0.541
		c-0.615-0.187-1.268-0.298-1.901-0.298c-1.324,0-2.126,0.503-2.126,1.529c0,0.895,0.504,1.324,2.032,1.902
		c1.398,0.522,2.686,1.044,2.686,2.928C205.121,128.91,203.686,129.786,201.839,129.786z"/>
	<path fill="#333333" d="M207.771,117.983c-0.429,0-0.783-0.373-0.783-0.82c0-0.448,0.354-0.802,0.783-0.802
		s0.802,0.354,0.802,0.802C208.573,117.61,208.2,117.983,207.771,117.983z M208.387,129.6c-0.168,0.056-0.41,0.093-0.615,0.093
		s-0.429-0.037-0.597-0.093v-9.715c0.149-0.037,0.392-0.093,0.578-0.093c0.205,0,0.484,0.038,0.634,0.093V129.6z"/>
	<path fill="#333333" d="M218.457,129.618c-0.149,0.038-0.373,0.075-0.597,0.075c-0.187,0-0.429-0.037-0.615-0.093v-5.911
		c0-0.895-0.112-1.585-0.373-2.07c-0.317-0.597-0.914-0.895-1.884-0.895c-0.932,0-2.051,0.522-2.778,1.082v7.794
		c-0.205,0.056-0.41,0.093-0.634,0.093c-0.187,0-0.41-0.037-0.578-0.093v-9.715c0.131-0.056,0.354-0.074,0.485-0.074
		c0.187,0,0.41,0.019,0.521,0.074l0.094,0.97h0.019c1.025-0.839,2.2-1.156,3.151-1.156s1.939,0.317,2.479,0.97
		c0.597,0.708,0.709,1.734,0.709,2.741V129.618z"/>
	<path fill="#333333" d="M227.876,125.068h-6.246c0.074,2.145,1.081,3.767,3.412,3.767c0.839,0,1.622-0.112,2.312-0.279
		c0.037,0.093,0.074,0.279,0.074,0.391c0,0.187-0.037,0.354-0.093,0.485c-0.728,0.224-1.642,0.354-2.406,0.354
		c-1.473,0-2.592-0.466-3.281-1.212c-0.82-0.895-1.249-2.238-1.249-3.785c0-2.704,1.36-5.091,4.083-5.091
		c2.442,0,3.412,2.014,3.412,4.475C227.895,124.453,227.895,124.789,227.876,125.068z M226.683,124.173
		c0-1.715-0.187-3.561-2.256-3.561c-1.809,0-2.686,1.659-2.797,3.561H226.683z"/>
	<path fill="#333333" d="M232.093,129.786c-0.932,0-1.901-0.168-2.573-0.429c-0.056-0.131-0.093-0.354-0.093-0.522
		c0-0.112,0.037-0.392,0.074-0.503c0.69,0.28,1.679,0.503,2.499,0.503c1.417,0,2.293-0.597,2.293-1.771
		c0-1.062-0.54-1.436-2.014-1.976c-2.051-0.746-2.723-1.604-2.723-2.872c0-1.716,1.418-2.518,3.245-2.518
		c0.615,0,1.417,0.112,1.883,0.261c0.057,0.168,0.075,0.335,0.075,0.448c0,0.149-0.038,0.41-0.075,0.541
		c-0.615-0.187-1.268-0.298-1.901-0.298c-1.324,0-2.126,0.503-2.126,1.529c0,0.895,0.504,1.324,2.032,1.902
		c1.398,0.522,2.686,1.044,2.686,2.928C235.375,128.91,233.939,129.786,232.093,129.786z"/>
	<path fill="#333333" d="M239.517,129.786c-0.932,0-1.901-0.168-2.573-0.429c-0.056-0.131-0.093-0.354-0.093-0.522
		c0-0.112,0.037-0.392,0.074-0.503c0.69,0.28,1.679,0.503,2.499,0.503c1.417,0,2.293-0.597,2.293-1.771
		c0-1.062-0.54-1.436-2.014-1.976c-2.051-0.746-2.723-1.604-2.723-2.872c0-1.716,1.418-2.518,3.245-2.518
		c0.615,0,1.417,0.112,1.883,0.261c0.057,0.168,0.075,0.335,0.075,0.448c0,0.149-0.038,0.41-0.075,0.541
		c-0.615-0.187-1.268-0.298-1.901-0.298c-1.324,0-2.126,0.503-2.126,1.529c0,0.895,0.504,1.324,2.032,1.902
		c1.398,0.522,2.686,1.044,2.686,2.928C242.799,128.91,241.363,129.786,239.517,129.786z"/>
</g>
<g>
	<path fill="#333333" d="M33.982,152.411c-0.186,0.037-0.373,0.074-0.559,0.074c-0.224,0-0.429-0.056-0.653-0.093V146.5
		c0-2.051-0.522-2.983-2.256-2.983c-0.895,0-2.088,0.466-2.834,1.007c0.149,0.522,0.187,1.1,0.187,1.678v6.19
		c-0.187,0.056-0.373,0.093-0.56,0.093c-0.242,0-0.466-0.037-0.652-0.093V146.5c0-2.051-0.466-2.983-2.2-2.983
		c-0.933,0-2.033,0.522-2.76,1.082v7.794c-0.205,0.056-0.448,0.093-0.671,0.093c-0.187,0-0.392-0.037-0.541-0.093v-9.715
		c0.093-0.037,0.298-0.074,0.503-0.074c0.168,0,0.373,0.037,0.503,0.074l0.093,0.97h0.019c1.025-0.839,2.2-1.156,3.151-1.156
		c0.951,0,1.864,0.317,2.405,0.97c0.075,0.075,0.13,0.168,0.187,0.261c0.988-0.802,2.256-1.231,3.468-1.231
		c0.951,0,1.92,0.317,2.461,0.97c0.597,0.708,0.708,1.734,0.708,2.741V152.411z"/>
	<path fill="#333333" d="M42.752,150.006c0,0.671,0,1.511,0.037,2.387c-0.13,0.056-0.336,0.093-0.503,0.093
		c-0.149,0-0.354-0.037-0.503-0.093c-0.056-0.299-0.093-0.689-0.112-1.044h-0.019c-0.634,0.783-1.752,1.23-2.853,1.23
		c-1.734,0-3.188-0.97-3.188-2.965c0-1.137,0.466-1.977,1.193-2.499c0.82-0.578,1.902-0.765,3.058-0.765
		c0.653,0,1.193,0.038,1.678,0.112v-0.541c0-1.865-0.764-2.48-2.331-2.48c-0.876,0-1.958,0.187-2.629,0.354
		c-0.037-0.093-0.074-0.298-0.074-0.485c0-0.131,0.037-0.317,0.093-0.429c0.802-0.242,1.864-0.392,2.759-0.392
		c2.219,0,3.394,1.007,3.394,3.282V150.006z M41.54,147.377c-0.541-0.075-1.1-0.112-1.585-0.112c-0.914,0-1.734,0.168-2.293,0.597
		c-0.503,0.373-0.783,0.97-0.783,1.734c0,1.361,0.876,2.014,2.088,2.014c1.007,0,2.07-0.484,2.573-1.249V147.377z"/>
	<path fill="#333333" d="M52.432,152.411c-0.149,0.037-0.373,0.074-0.597,0.074c-0.187,0-0.429-0.037-0.615-0.093v-5.911
		c0-0.895-0.112-1.585-0.373-2.07c-0.317-0.597-0.914-0.895-1.883-0.895c-0.933,0-2.051,0.522-2.778,1.082v7.794
		c-0.205,0.056-0.41,0.093-0.634,0.093c-0.187,0-0.411-0.037-0.578-0.093v-9.715c0.13-0.056,0.354-0.074,0.485-0.074
		c0.186,0,0.41,0.019,0.522,0.074l0.093,0.97h0.019c1.025-0.839,2.2-1.156,3.151-1.156c0.951,0,1.939,0.317,2.48,0.97
		c0.597,0.708,0.708,1.734,0.708,2.741V152.411z"/>
	<path fill="#333333" d="M61.199,150.006c0,0.671,0,1.511,0.037,2.387c-0.13,0.056-0.336,0.093-0.503,0.093
		c-0.149,0-0.354-0.037-0.503-0.093c-0.056-0.299-0.093-0.689-0.112-1.044h-0.019c-0.634,0.783-1.752,1.23-2.853,1.23
		c-1.734,0-3.188-0.97-3.188-2.965c0-1.137,0.466-1.977,1.193-2.499c0.82-0.578,1.902-0.765,3.058-0.765
		c0.653,0,1.193,0.038,1.678,0.112v-0.541c0-1.865-0.764-2.48-2.331-2.48c-0.876,0-1.958,0.187-2.629,0.354
		c-0.037-0.093-0.074-0.298-0.074-0.485c0-0.131,0.037-0.317,0.093-0.429c0.802-0.242,1.864-0.392,2.759-0.392
		c2.219,0,3.394,1.007,3.394,3.282V150.006z M59.987,147.377c-0.541-0.075-1.1-0.112-1.585-0.112c-0.914,0-1.734,0.168-2.293,0.597
		c-0.503,0.373-0.783,0.97-0.783,1.734c0,1.361,0.876,2.014,2.088,2.014c1.007,0,2.07-0.484,2.573-1.249V147.377z"/>
	<path fill="#333333" d="M70.45,150.771c0,1.398-0.074,3.076-0.746,4.232c-0.802,1.38-2.238,1.977-3.673,1.977
		c-0.82,0-1.529-0.093-2.125-0.298c-0.056-0.112-0.075-0.299-0.075-0.448c0-0.111,0.037-0.335,0.075-0.447
		c0.578,0.149,1.249,0.261,1.92,0.261c2.35,0,3.412-1.454,3.412-4.009v-0.783c-0.727,0.765-1.752,1.138-2.592,1.138
		c-2.48,0-3.767-1.92-3.767-4.624c0-3.319,1.958-5.277,4.848-5.277c0.765,0,1.92,0.224,2.722,0.541V150.771z M69.238,143.629
		c-0.671-0.187-1.156-0.243-1.622-0.243c-2.368,0-3.487,1.996-3.487,4.326c0,2.07,0.783,3.692,2.61,3.692
		c0.932,0,1.883-0.466,2.499-1.119V143.629z"/>
	<path fill="#333333" d="M79.571,147.861h-6.247c0.074,2.145,1.082,3.767,3.412,3.767c0.839,0,1.622-0.111,2.312-0.279
		c0.038,0.093,0.075,0.279,0.075,0.392c0,0.187-0.037,0.354-0.093,0.484c-0.727,0.224-1.641,0.354-2.405,0.354
		c-1.473,0-2.592-0.466-3.282-1.212c-0.82-0.895-1.25-2.238-1.25-3.785c0-2.704,1.361-5.091,4.083-5.091
		c2.443,0,3.413,2.014,3.413,4.475C79.59,147.246,79.59,147.582,79.571,147.861z M78.378,146.966c0-1.715-0.187-3.561-2.256-3.561
		c-1.809,0-2.685,1.659-2.797,3.561H78.378z"/>
	<path fill="#333333" d="M94.771,152.411c-0.186,0.037-0.373,0.074-0.559,0.074c-0.224,0-0.429-0.056-0.653-0.093V146.5
		c0-2.051-0.522-2.983-2.256-2.983c-0.895,0-2.088,0.466-2.834,1.007c0.149,0.522,0.187,1.1,0.187,1.678v6.19
		c-0.187,0.056-0.373,0.093-0.56,0.093c-0.242,0-0.466-0.037-0.652-0.093V146.5c0-2.051-0.466-2.983-2.2-2.983
		c-0.933,0-2.033,0.522-2.76,1.082v7.794c-0.205,0.056-0.448,0.093-0.671,0.093c-0.187,0-0.392-0.037-0.541-0.093v-9.715
		c0.093-0.037,0.298-0.074,0.503-0.074c0.168,0,0.373,0.037,0.503,0.074l0.093,0.97h0.019c1.025-0.839,2.2-1.156,3.151-1.156
		c0.951,0,1.864,0.317,2.405,0.97c0.075,0.075,0.13,0.168,0.187,0.261c0.988-0.802,2.256-1.231,3.468-1.231
		c0.951,0,1.92,0.317,2.461,0.97c0.597,0.708,0.708,1.734,0.708,2.741V152.411z"/>
	<path fill="#333333" d="M103.819,147.861h-6.246c0.074,2.145,1.082,3.767,3.412,3.767c0.839,0,1.622-0.111,2.312-0.279
		c0.038,0.093,0.075,0.279,0.075,0.392c0,0.187-0.037,0.354-0.093,0.484c-0.727,0.224-1.641,0.354-2.405,0.354
		c-1.473,0-2.592-0.466-3.282-1.212c-0.82-0.895-1.25-2.238-1.25-3.785c0-2.704,1.361-5.091,4.083-5.091
		c2.443,0,3.413,2.014,3.413,4.475C103.838,147.246,103.838,147.582,103.819,147.861z M102.626,146.966
		c0-1.715-0.186-3.561-2.256-3.561c-1.809,0-2.685,1.659-2.797,3.561H102.626z"/>
	<path fill="#333333" d="M112.978,152.411c-0.149,0.037-0.373,0.074-0.597,0.074c-0.187,0-0.429-0.037-0.615-0.093v-5.911
		c0-0.895-0.112-1.585-0.373-2.07c-0.317-0.597-0.914-0.895-1.883-0.895c-0.933,0-2.051,0.522-2.778,1.082v7.794
		c-0.205,0.056-0.41,0.093-0.634,0.093c-0.187,0-0.411-0.037-0.578-0.093v-9.715c0.13-0.056,0.354-0.074,0.485-0.074
		c0.186,0,0.41,0.019,0.522,0.074l0.093,0.97h0.019c1.025-0.839,2.2-1.156,3.151-1.156c0.951,0,1.939,0.317,2.48,0.97
		c0.597,0.708,0.708,1.734,0.708,2.741V152.411z"/>
	<path fill="#333333" d="M120.271,152.3c-0.485,0.167-1.212,0.279-1.753,0.279c-1.846,0-2.722-0.876-2.722-2.946v-6.004h-1.678
		c-0.038-0.093-0.056-0.317-0.056-0.429c0-0.093,0.019-0.317,0.056-0.411l1.678-0.112v-2.536c0.149-0.056,0.392-0.093,0.597-0.093
		s0.466,0.037,0.615,0.093v2.536h2.741c0.038,0.093,0.075,0.373,0.075,0.466c0,0.13-0.037,0.354-0.075,0.485h-2.741v5.892
		c0,1.473,0.429,2.088,1.585,2.088c0.634,0,1.249-0.093,1.678-0.224c0.037,0.093,0.074,0.317,0.074,0.447
		C120.346,152.001,120.327,152.132,120.271,152.3z"/>
	<path fill="#333333" d="M121.542,155.283c-0.112-0.094-0.261-0.317-0.317-0.467c0.765-0.615,1.343-1.305,1.529-2.069
		c-0.392-0.205-0.708-0.597-0.708-1.082c0-0.521,0.41-0.913,0.876-0.913c0.597,0,1.025,0.54,1.025,1.193
		C123.947,152.989,123.089,154.313,121.542,155.283z"/>
	<path fill="#333333" d="M132.489,152.579c-0.858,0-1.958-0.131-2.983-0.504v-13.294c0.13-0.037,0.41-0.093,0.578-0.093
		c0.298,0,0.522,0.056,0.634,0.093v4.718c0.765-0.634,1.734-1.007,2.76-1.007c2.629,0,3.729,2.256,3.729,4.773
		C137.207,150.472,135.566,152.579,132.489,152.579z M133.31,143.536c-0.932,0-1.865,0.392-2.592,1.119v6.694
		c0.503,0.187,1.137,0.298,1.678,0.298c2.592,0,3.542-1.976,3.542-4.307C135.938,145.531,135.417,143.536,133.31,143.536z"/>
	<path fill="#333333" d="M146.03,148.701c0,2.834-1.175,3.878-3.636,3.878c-2.517,0-3.58-1.044-3.58-3.785v-6.116
		c0.168-0.056,0.392-0.093,0.597-0.093c0.261,0,0.466,0.056,0.615,0.093v5.967c0,1.809,0.28,3.002,2.387,3.002
		c1.977,0,2.406-1.156,2.406-3.039v-5.93c0.149-0.056,0.41-0.093,0.615-0.093s0.429,0.038,0.597,0.093V148.701z"/>
	<path fill="#333333" d="M148.829,140.776c-0.429,0-0.783-0.373-0.783-0.82c0-0.448,0.354-0.802,0.783-0.802
		c0.429,0,0.802,0.354,0.802,0.802C149.631,140.403,149.258,140.776,148.829,140.776z M149.445,152.393
		c-0.168,0.056-0.41,0.093-0.616,0.093c-0.205,0-0.429-0.037-0.597-0.093v-9.715c0.149-0.037,0.392-0.093,0.578-0.093
		c0.205,0,0.485,0.038,0.634,0.093V152.393z"/>
	<path fill="#333333" d="M152.933,152.393c-0.205,0.056-0.41,0.093-0.634,0.093c-0.187,0-0.41-0.037-0.578-0.093v-13.612
		c0.168-0.037,0.373-0.093,0.615-0.093c0.205,0,0.429,0.038,0.597,0.093V152.393z"/>
	<path fill="#333333" d="M160.317,152.3c-0.484,0.167-1.212,0.279-1.752,0.279c-1.847,0-2.723-0.876-2.723-2.946v-6.004h-1.679
		c-0.037-0.093-0.056-0.317-0.056-0.429c0-0.093,0.019-0.317,0.056-0.411l1.679-0.112v-2.536c0.149-0.056,0.392-0.093,0.597-0.093
		s0.466,0.037,0.615,0.093v2.536h2.741c0.037,0.093,0.074,0.373,0.074,0.466c0,0.13-0.037,0.354-0.074,0.485h-2.741v5.892
		c0,1.473,0.429,2.088,1.585,2.088c0.634,0,1.249-0.093,1.678-0.224c0.038,0.093,0.075,0.317,0.075,0.447
		C160.393,152.001,160.374,152.132,160.317,152.3z"/>
	<path fill="#333333" d="M172.46,147.861h-6.246c0.074,2.145,1.081,3.767,3.412,3.767c0.839,0,1.622-0.111,2.312-0.279
		c0.037,0.093,0.074,0.279,0.074,0.392c0,0.187-0.037,0.354-0.093,0.484c-0.728,0.224-1.642,0.354-2.406,0.354
		c-1.473,0-2.592-0.466-3.281-1.212c-0.82-0.895-1.249-2.238-1.249-3.785c0-2.704,1.36-5.091,4.083-5.091
		c2.442,0,3.412,2.014,3.412,4.475C172.479,147.246,172.479,147.582,172.46,147.861z M171.267,146.966
		c0-1.715-0.187-3.561-2.256-3.561c-1.809,0-2.686,1.659-2.797,3.561H171.267z"/>
	<path fill="#333333" d="M181.618,152.411c-0.149,0.037-0.373,0.074-0.597,0.074c-0.187,0-0.429-0.037-0.615-0.093v-5.911
		c0-0.895-0.112-1.585-0.373-2.07c-0.317-0.597-0.914-0.895-1.884-0.895c-0.932,0-2.051,0.522-2.778,1.082v7.794
		c-0.205,0.056-0.41,0.093-0.634,0.093c-0.187,0-0.41-0.037-0.578-0.093v-9.715c0.131-0.056,0.354-0.074,0.485-0.074
		c0.187,0,0.41,0.019,0.521,0.074l0.094,0.97h0.019c1.025-0.839,2.2-1.156,3.151-1.156s1.939,0.317,2.479,0.97
		c0.597,0.708,0.709,1.734,0.709,2.741V152.411z"/>
	<path fill="#333333" d="M190.328,145.046l-2.927,7.347c-0.168,0.056-0.354,0.093-0.504,0.093c-0.205,0-0.373-0.037-0.521-0.093
		l-3.021-7.347c-0.335-0.839-0.484-1.678-0.484-2.368c0.149-0.037,0.41-0.093,0.578-0.093c0.224,0,0.447,0.038,0.634,0.093
		c0.019,0.634,0.094,1.361,0.373,2.033l2.424,6.153h0.037l2.35-6.153c0.261-0.653,0.392-1.38,0.392-2.033
		c0.131-0.056,0.41-0.093,0.652-0.093c0.131,0,0.373,0.019,0.541,0.075C190.832,143.331,190.701,144.132,190.328,145.046z"/>
	<path fill="#333333" d="M192.83,140.776c-0.429,0-0.783-0.373-0.783-0.82c0-0.448,0.354-0.802,0.783-0.802s0.802,0.354,0.802,0.802
		C193.632,140.403,193.259,140.776,192.83,140.776z M193.445,152.393c-0.168,0.056-0.41,0.093-0.615,0.093s-0.429-0.037-0.597-0.093
		v-9.715c0.149-0.037,0.392-0.093,0.578-0.093c0.205,0,0.484,0.038,0.634,0.093V152.393z"/>
	<path fill="#333333" d="M200.047,143.573c-1.081,0.149-2.256,0.541-3.133,1.212v7.607c-0.186,0.056-0.41,0.093-0.615,0.093
		s-0.41-0.037-0.597-0.093v-9.715c0.112-0.037,0.28-0.074,0.467-0.074c0.148,0,0.354,0.037,0.503,0.074l0.094,1.193h0.019
		c0.802-0.69,2.2-1.268,3.263-1.38c0.037,0.112,0.075,0.317,0.075,0.485C200.122,143.163,200.084,143.405,200.047,143.573z"/>
	<path fill="#333333" d="M204.543,152.579c-2.442,0-4.009-1.678-4.009-5.035c0-3.356,1.585-5.053,4.027-5.053s3.99,1.66,3.99,5.016
		S206.985,152.579,204.543,152.579z M204.562,143.405c-1.79,0-2.76,1.38-2.76,4.121c0,2.741,0.951,4.139,2.741,4.139
		s2.741-1.398,2.741-4.139C207.284,144.785,206.352,143.405,204.562,143.405z"/>
	<path fill="#333333" d="M217.654,152.411c-0.149,0.037-0.373,0.074-0.597,0.074c-0.187,0-0.429-0.037-0.615-0.093v-5.911
		c0-0.895-0.112-1.585-0.373-2.07c-0.317-0.597-0.914-0.895-1.884-0.895c-0.932,0-2.051,0.522-2.778,1.082v7.794
		c-0.205,0.056-0.41,0.093-0.634,0.093c-0.187,0-0.41-0.037-0.578-0.093v-9.715c0.131-0.056,0.354-0.074,0.485-0.074
		c0.187,0,0.41,0.019,0.521,0.074l0.094,0.97h0.019c1.025-0.839,2.2-1.156,3.151-1.156s1.939,0.317,2.479,0.97
		c0.597,0.708,0.709,1.734,0.709,2.741V152.411z"/>
	<path fill="#333333" d="M233.283,152.411c-0.187,0.037-0.373,0.074-0.56,0.074c-0.224,0-0.429-0.056-0.652-0.093V146.5
		c0-2.051-0.521-2.983-2.256-2.983c-0.896,0-2.089,0.466-2.834,1.007c0.148,0.522,0.187,1.1,0.187,1.678v6.19
		c-0.187,0.056-0.373,0.093-0.56,0.093c-0.243,0-0.467-0.037-0.653-0.093V146.5c0-2.051-0.466-2.983-2.2-2.983
		c-0.932,0-2.032,0.522-2.76,1.082v7.794c-0.205,0.056-0.447,0.093-0.671,0.093c-0.187,0-0.392-0.037-0.541-0.093v-9.715
		c0.094-0.037,0.299-0.074,0.504-0.074c0.168,0,0.373,0.037,0.503,0.074l0.094,0.97h0.019c1.025-0.839,2.2-1.156,3.151-1.156
		s1.864,0.317,2.405,0.97c0.074,0.075,0.131,0.168,0.187,0.261c0.988-0.802,2.256-1.231,3.468-1.231c0.951,0,1.921,0.317,2.462,0.97
		c0.597,0.708,0.708,1.734,0.708,2.741V152.411z"/>
	<path fill="#333333" d="M242.351,147.861h-6.246c0.074,2.145,1.081,3.767,3.412,3.767c0.839,0,1.622-0.111,2.312-0.279
		c0.037,0.093,0.074,0.279,0.074,0.392c0,0.187-0.037,0.354-0.093,0.484c-0.728,0.224-1.642,0.354-2.406,0.354
		c-1.473,0-2.592-0.466-3.281-1.212c-0.82-0.895-1.249-2.238-1.249-3.785c0-2.704,1.36-5.091,4.083-5.091
		c2.442,0,3.412,2.014,3.412,4.475C242.369,147.246,242.369,147.582,242.351,147.861z M241.157,146.966
		c0-1.715-0.187-3.561-2.256-3.561c-1.809,0-2.686,1.659-2.797,3.561H241.157z"/>
	<path fill="#333333" d="M251.49,152.411c-0.149,0.037-0.373,0.074-0.597,0.074c-0.187,0-0.429-0.037-0.615-0.093v-5.911
		c0-0.895-0.112-1.585-0.373-2.07c-0.317-0.597-0.914-0.895-1.884-0.895c-0.932,0-2.051,0.522-2.778,1.082v7.794
		c-0.205,0.056-0.41,0.093-0.634,0.093c-0.187,0-0.41-0.037-0.578-0.093v-9.715c0.131-0.056,0.354-0.074,0.485-0.074
		c0.187,0,0.41,0.019,0.521,0.074l0.094,0.97h0.019c1.025-0.839,2.2-1.156,3.151-1.156s1.939,0.317,2.479,0.97
		c0.597,0.708,0.709,1.734,0.709,2.741V152.411z"/>
	<path fill="#333333" d="M258.783,152.3c-0.484,0.167-1.212,0.279-1.752,0.279c-1.847,0-2.723-0.876-2.723-2.946v-6.004h-1.679
		c-0.037-0.093-0.056-0.317-0.056-0.429c0-0.093,0.019-0.317,0.056-0.411l1.679-0.112v-2.536c0.149-0.056,0.392-0.093,0.597-0.093
		s0.466,0.037,0.615,0.093v2.536h2.741c0.037,0.093,0.074,0.373,0.074,0.466c0,0.13-0.037,0.354-0.074,0.485h-2.741v5.892
		c0,1.473,0.429,2.088,1.585,2.088c0.634,0,1.249-0.093,1.678-0.224c0.038,0.093,0.075,0.317,0.075,0.447
		C258.858,152.001,258.84,152.132,258.783,152.3z"/>
	<path fill="#333333" d="M260.073,155.283c-0.112-0.094-0.261-0.317-0.317-0.467c0.765-0.615,1.343-1.305,1.529-2.069
		c-0.392-0.205-0.709-0.597-0.709-1.082c0-0.521,0.41-0.913,0.877-0.913c0.597,0,1.025,0.54,1.025,1.193
		C262.479,152.989,261.621,154.313,260.073,155.283z"/>
	<path fill="#333333" d="M275.029,150.006c0,0.671,0,1.511,0.037,2.387c-0.131,0.056-0.336,0.093-0.504,0.093
		c-0.148,0-0.354-0.037-0.503-0.093c-0.056-0.299-0.094-0.689-0.112-1.044h-0.019c-0.634,0.783-1.753,1.23-2.853,1.23
		c-1.734,0-3.188-0.97-3.188-2.965c0-1.137,0.466-1.977,1.193-2.499c0.82-0.578,1.901-0.765,3.058-0.765
		c0.652,0,1.193,0.038,1.679,0.112v-0.541c0-1.865-0.765-2.48-2.331-2.48c-0.876,0-1.958,0.187-2.629,0.354
		c-0.037-0.093-0.075-0.298-0.075-0.485c0-0.131,0.038-0.317,0.094-0.429c0.802-0.242,1.864-0.392,2.76-0.392
		c2.219,0,3.394,1.007,3.394,3.282V150.006z M273.817,147.377c-0.541-0.075-1.101-0.112-1.585-0.112
		c-0.914,0-1.734,0.168-2.294,0.597c-0.503,0.373-0.783,0.97-0.783,1.734c0,1.361,0.877,2.014,2.089,2.014
		c1.007,0,2.069-0.484,2.573-1.249V147.377z"/>
	<path fill="#333333" d="M285.064,152.411c-0.149,0.037-0.373,0.074-0.597,0.074c-0.187,0-0.429-0.037-0.615-0.093v-5.911
		c0-0.895-0.112-1.585-0.373-2.07c-0.317-0.597-0.914-0.895-1.884-0.895c-0.932,0-2.051,0.522-2.778,1.082v7.794
		c-0.205,0.056-0.41,0.093-0.634,0.093c-0.187,0-0.41-0.037-0.578-0.093v-9.715c0.131-0.056,0.354-0.074,0.485-0.074
		c0.187,0,0.41,0.019,0.521,0.074l0.094,0.97h0.019c1.025-0.839,2.2-1.156,3.151-1.156s1.939,0.317,2.479,0.97
		c0.597,0.708,0.709,1.734,0.709,2.741V152.411z"/>
	<path fill="#333333" d="M294.241,152.485c-0.168,0-0.373-0.056-0.484-0.093l-0.112-1.119h-0.019
		c-0.802,0.84-1.753,1.306-2.815,1.306c-2.573,0-3.804-2.145-3.804-4.755c0-2.592,1.1-5.333,4.064-5.333
		c0.933,0,1.79,0.317,2.48,0.802v-4.512c0.167-0.056,0.392-0.093,0.597-0.093c0.224,0,0.447,0.056,0.615,0.093v13.612
		C294.633,152.448,294.446,152.485,294.241,152.485z M293.552,144.319c-0.672-0.56-1.529-0.839-2.406-0.839
		c-2.162,0-2.89,2.126-2.89,4.289c0,1.659,0.522,3.822,2.61,3.822c1.007,0,2.032-0.504,2.686-1.287V144.319z"/>
</g>
<g>
	<path fill="#333333" d="M27.419,170.656h-6.246c0.074,2.145,1.082,3.767,3.412,3.767c0.839,0,1.622-0.111,2.312-0.279
		c0.038,0.093,0.075,0.279,0.075,0.392c0,0.187-0.037,0.354-0.093,0.484c-0.727,0.224-1.641,0.354-2.405,0.354
		c-1.473,0-2.592-0.466-3.282-1.212c-0.82-0.896-1.25-2.237-1.25-3.785c0-2.704,1.361-5.091,4.083-5.091
		c2.443,0,3.413,2.014,3.413,4.476C27.438,170.041,27.438,170.377,27.419,170.656z M26.226,169.762c0-1.716-0.186-3.562-2.256-3.562
		c-1.809,0-2.685,1.659-2.797,3.562H26.226z"/>
	<path fill="#333333" d="M36.932,175.206c-0.149,0.037-0.373,0.074-0.597,0.074c-0.187,0-0.429-0.037-0.615-0.093v-5.911
		c0-0.895-0.112-1.585-0.373-2.069c-0.317-0.597-0.914-0.896-1.883-0.896c-0.933,0-2.051,0.522-2.778,1.082v7.794
		c-0.205,0.056-0.41,0.093-0.634,0.093c-0.187,0-0.411-0.037-0.578-0.093v-9.715c0.13-0.056,0.354-0.074,0.485-0.074
		c0.186,0,0.41,0.019,0.522,0.074l0.093,0.97h0.019c1.025-0.839,2.2-1.156,3.151-1.156c0.951,0,1.939,0.317,2.48,0.97
		c0.597,0.709,0.708,1.734,0.708,2.741V175.206z"/>
	<path fill="#333333" d="M46.444,173.565c0,1.398-0.074,3.076-0.746,4.232c-0.802,1.38-2.238,1.977-3.673,1.977
		c-0.82,0-1.529-0.093-2.125-0.298c-0.056-0.112-0.075-0.299-0.075-0.448c0-0.111,0.037-0.335,0.075-0.447
		c0.578,0.149,1.249,0.261,1.92,0.261c2.35,0,3.412-1.454,3.412-4.009v-0.783c-0.727,0.765-1.752,1.138-2.592,1.138
		c-2.48,0-3.767-1.921-3.767-4.624c0-3.319,1.958-5.277,4.848-5.277c0.765,0,1.92,0.224,2.722,0.541V173.565z M45.232,166.424
		c-0.671-0.187-1.156-0.242-1.622-0.242c-2.368,0-3.487,1.995-3.487,4.325c0,2.07,0.783,3.692,2.61,3.692
		c0.932,0,1.883-0.466,2.499-1.119V166.424z"/>
	<path fill="#333333" d="M49.655,163.571c-0.429,0-0.783-0.373-0.783-0.821c0-0.447,0.354-0.802,0.783-0.802
		c0.429,0,0.802,0.354,0.802,0.802C50.457,163.198,50.084,163.571,49.655,163.571z M50.271,175.188
		c-0.168,0.056-0.41,0.093-0.615,0.093c-0.206,0-0.429-0.037-0.597-0.093v-9.715c0.149-0.037,0.391-0.093,0.578-0.093
		c0.205,0,0.485,0.037,0.634,0.093V175.188z"/>
	<path fill="#333333" d="M60.341,175.206c-0.149,0.037-0.373,0.074-0.597,0.074c-0.187,0-0.429-0.037-0.615-0.093v-5.911
		c0-0.895-0.112-1.585-0.373-2.069c-0.317-0.597-0.914-0.896-1.883-0.896c-0.932,0-2.051,0.522-2.778,1.082v7.794
		c-0.205,0.056-0.41,0.093-0.634,0.093c-0.187,0-0.411-0.037-0.578-0.093v-9.715c0.13-0.056,0.354-0.074,0.485-0.074
		c0.187,0,0.41,0.019,0.522,0.074l0.093,0.97h0.019c1.025-0.839,2.2-1.156,3.151-1.156c0.951,0,1.939,0.317,2.48,0.97
		c0.597,0.709,0.708,1.734,0.708,2.741V175.206z"/>
	<path fill="#333333" d="M69.76,170.656h-6.246c0.074,2.145,1.082,3.767,3.412,3.767c0.839,0,1.622-0.111,2.312-0.279
		c0.038,0.093,0.075,0.279,0.075,0.392c0,0.187-0.037,0.354-0.093,0.484c-0.727,0.224-1.641,0.354-2.405,0.354
		c-1.473,0-2.592-0.466-3.282-1.212c-0.82-0.896-1.25-2.237-1.25-3.785c0-2.704,1.361-5.091,4.083-5.091
		c2.443,0,3.413,2.014,3.413,4.476C69.779,170.041,69.779,170.377,69.76,170.656z M68.566,169.762c0-1.716-0.186-3.562-2.256-3.562
		c-1.809,0-2.685,1.659-2.797,3.562H68.566z"/>
	<path fill="#333333" d="M78.751,170.656h-6.247c0.074,2.145,1.082,3.767,3.412,3.767c0.839,0,1.622-0.111,2.312-0.279
		c0.038,0.093,0.075,0.279,0.075,0.392c0,0.187-0.037,0.354-0.093,0.484c-0.727,0.224-1.641,0.354-2.405,0.354
		c-1.473,0-2.592-0.466-3.282-1.212c-0.82-0.896-1.25-2.237-1.25-3.785c0-2.704,1.361-5.091,4.083-5.091
		c2.443,0,3.413,2.014,3.413,4.476C78.77,170.041,78.77,170.377,78.751,170.656z M77.558,169.762c0-1.716-0.187-3.562-2.256-3.562
		c-1.809,0-2.685,1.659-2.797,3.562H77.558z"/>
	<path fill="#333333" d="M85.149,166.368c-1.081,0.148-2.256,0.54-3.132,1.212v7.607c-0.187,0.056-0.41,0.093-0.615,0.093
		s-0.41-0.037-0.597-0.093v-9.715c0.112-0.037,0.28-0.074,0.466-0.074c0.149,0,0.354,0.037,0.504,0.074l0.093,1.193h0.019
		c0.802-0.689,2.2-1.268,3.263-1.38c0.038,0.112,0.075,0.317,0.075,0.485C85.224,165.958,85.187,166.2,85.149,166.368z"/>
	<path fill="#333333" d="M87.706,163.571c-0.429,0-0.783-0.373-0.783-0.821c0-0.447,0.354-0.802,0.783-0.802
		c0.429,0,0.802,0.354,0.802,0.802C88.508,163.198,88.135,163.571,87.706,163.571z M88.321,175.188
		c-0.168,0.056-0.41,0.093-0.615,0.093c-0.206,0-0.429-0.037-0.597-0.093v-9.715c0.149-0.037,0.391-0.093,0.578-0.093
		c0.205,0,0.485,0.037,0.634,0.093V175.188z"/>
	<path fill="#333333" d="M98.392,175.206c-0.149,0.037-0.373,0.074-0.597,0.074c-0.187,0-0.429-0.037-0.615-0.093v-5.911
		c0-0.895-0.112-1.585-0.373-2.069c-0.317-0.597-0.914-0.896-1.883-0.896c-0.932,0-2.051,0.522-2.778,1.082v7.794
		c-0.205,0.056-0.41,0.093-0.634,0.093c-0.187,0-0.411-0.037-0.578-0.093v-9.715c0.13-0.056,0.354-0.074,0.485-0.074
		c0.187,0,0.41,0.019,0.522,0.074l0.093,0.97h0.019c1.025-0.839,2.2-1.156,3.151-1.156c0.951,0,1.939,0.317,2.48,0.97
		c0.597,0.709,0.708,1.734,0.708,2.741V175.206z"/>
	<path fill="#333333" d="M107.904,173.565c0,1.398-0.074,3.076-0.746,4.232c-0.802,1.38-2.238,1.977-3.673,1.977
		c-0.82,0-1.529-0.093-2.125-0.298c-0.056-0.112-0.075-0.299-0.075-0.448c0-0.111,0.037-0.335,0.075-0.447
		c0.578,0.149,1.249,0.261,1.92,0.261c2.35,0,3.412-1.454,3.412-4.009v-0.783c-0.727,0.765-1.752,1.138-2.592,1.138
		c-2.48,0-3.767-1.921-3.767-4.624c0-3.319,1.958-5.277,4.848-5.277c0.765,0,1.92,0.224,2.722,0.541V173.565z M106.692,166.424
		c-0.671-0.187-1.156-0.242-1.622-0.242c-2.368,0-3.487,1.995-3.487,4.325c0,2.07,0.783,3.692,2.61,3.692
		c0.932,0,1.883-0.466,2.499-1.119V166.424z"/>
	<path fill="#333333" d="M118.891,166.368c-1.081,0.148-2.256,0.54-3.132,1.212v7.607c-0.187,0.056-0.41,0.093-0.615,0.093
		s-0.41-0.037-0.597-0.093v-9.715c0.112-0.037,0.28-0.074,0.466-0.074c0.149,0,0.354,0.037,0.504,0.074l0.093,1.193h0.019
		c0.802-0.689,2.2-1.268,3.263-1.38c0.038,0.112,0.075,0.317,0.075,0.485C118.966,165.958,118.929,166.2,118.891,166.368z"/>
	<path fill="#333333" d="M127.229,170.656h-6.247c0.074,2.145,1.082,3.767,3.412,3.767c0.839,0,1.622-0.111,2.312-0.279
		c0.038,0.093,0.075,0.279,0.075,0.392c0,0.187-0.037,0.354-0.093,0.484c-0.727,0.224-1.641,0.354-2.405,0.354
		c-1.473,0-2.592-0.466-3.282-1.212c-0.82-0.896-1.25-2.237-1.25-3.785c0-2.704,1.361-5.091,4.083-5.091
		c2.443,0,3.413,2.014,3.413,4.476C127.247,170.041,127.247,170.377,127.229,170.656z M126.035,169.762
		c0-1.716-0.187-3.562-2.256-3.562c-1.809,0-2.685,1.659-2.797,3.562H126.035z"/>
	<path fill="#333333" d="M131.445,175.374c-0.933,0-1.902-0.168-2.573-0.429c-0.056-0.131-0.093-0.354-0.093-0.522
		c0-0.111,0.037-0.392,0.074-0.503c0.69,0.279,1.678,0.503,2.499,0.503c1.417,0,2.293-0.597,2.293-1.771
		c0-1.062-0.541-1.436-2.014-1.977c-2.051-0.745-2.722-1.604-2.722-2.871c0-1.716,1.417-2.518,3.245-2.518
		c0.615,0,1.417,0.112,1.883,0.262c0.056,0.167,0.074,0.335,0.074,0.447c0,0.149-0.037,0.41-0.074,0.54
		c-0.616-0.186-1.268-0.298-1.902-0.298c-1.324,0-2.125,0.504-2.125,1.529c0,0.895,0.503,1.323,2.033,1.901
		c1.398,0.522,2.685,1.045,2.685,2.928C134.727,174.498,133.291,175.374,131.445,175.374z"/>
	<path fill="#333333" d="M143.643,170.656h-6.247c0.074,2.145,1.082,3.767,3.412,3.767c0.839,0,1.622-0.111,2.312-0.279
		c0.038,0.093,0.075,0.279,0.075,0.392c0,0.187-0.037,0.354-0.093,0.484c-0.727,0.224-1.641,0.354-2.405,0.354
		c-1.473,0-2.592-0.466-3.282-1.212c-0.82-0.896-1.25-2.237-1.25-3.785c0-2.704,1.361-5.091,4.083-5.091
		c2.443,0,3.413,2.014,3.413,4.476C143.661,170.041,143.661,170.377,143.643,170.656z M142.449,169.762
		c0-1.716-0.187-3.562-2.256-3.562c-1.809,0-2.685,1.659-2.797,3.562H142.449z"/>
	<path fill="#333333" d="M152.335,172.801c0,0.671,0,1.511,0.037,2.387c-0.131,0.056-0.336,0.093-0.504,0.093
		c-0.148,0-0.354-0.037-0.503-0.093c-0.056-0.299-0.094-0.689-0.112-1.044h-0.019c-0.634,0.783-1.752,1.23-2.853,1.23
		c-1.734,0-3.188-0.97-3.188-2.965c0-1.138,0.466-1.977,1.193-2.499c0.82-0.577,1.902-0.764,3.058-0.764
		c0.653,0,1.193,0.037,1.679,0.111v-0.541c0-1.864-0.765-2.479-2.331-2.479c-0.876,0-1.958,0.187-2.629,0.354
		c-0.037-0.094-0.074-0.299-0.074-0.485c0-0.13,0.037-0.316,0.093-0.429c0.802-0.242,1.864-0.392,2.759-0.392
		c2.219,0,3.394,1.007,3.394,3.282V172.801z M151.123,170.172c-0.541-0.075-1.101-0.112-1.585-0.112
		c-0.914,0-1.734,0.168-2.293,0.597c-0.503,0.373-0.783,0.97-0.783,1.734c0,1.361,0.876,2.014,2.088,2.014
		c1.007,0,2.07-0.484,2.574-1.249V170.172z"/>
	<path fill="#333333" d="M159.255,166.368c-1.081,0.148-2.256,0.54-3.133,1.212v7.607c-0.186,0.056-0.41,0.093-0.615,0.093
		s-0.41-0.037-0.597-0.093v-9.715c0.112-0.037,0.28-0.074,0.467-0.074c0.148,0,0.354,0.037,0.503,0.074l0.094,1.193h0.019
		c0.802-0.689,2.2-1.268,3.263-1.38c0.037,0.112,0.075,0.317,0.075,0.485C159.33,165.958,159.292,166.2,159.255,166.368z"/>
	<path fill="#333333" d="M166.771,166.647c-0.597-0.242-1.38-0.392-2.069-0.392c-2.424,0-3.319,1.884-3.319,4.158
		c0,2.237,0.857,3.972,3.301,3.972c0.652,0,1.436-0.112,2.014-0.279c0.037,0.111,0.074,0.242,0.074,0.392
		c0,0.224-0.037,0.391-0.093,0.521c-0.541,0.224-1.417,0.354-2.107,0.354c-3.039,0-4.456-1.995-4.456-4.923
		c0-3.039,1.547-5.165,4.512-5.165c0.709,0,1.548,0.168,2.126,0.429c0.056,0.149,0.074,0.299,0.074,0.467
		C166.827,166.368,166.809,166.517,166.771,166.647z"/>
	<path fill="#333333" d="M176.229,175.188c-0.168,0.056-0.373,0.093-0.56,0.093c-0.224,0-0.466-0.037-0.652-0.093v-5.893
		c0-2.051-0.522-2.983-2.257-2.983c-0.932,0-2.051,0.522-2.778,1.082v7.794c-0.205,0.056-0.429,0.093-0.634,0.093
		c-0.187,0-0.41-0.037-0.578-0.093v-13.611c0.168-0.057,0.43-0.094,0.597-0.094c0.168,0,0.448,0.037,0.615,0.094v4.792
		c0.988-0.765,2.163-1.082,3.077-1.082c0.951,0,1.921,0.317,2.461,0.97c0.597,0.709,0.709,1.734,0.709,2.741V175.188z"/>
	<path fill="#333333" d="M194.114,167.394l-2.498,7.794c-0.149,0.056-0.43,0.093-0.578,0.093c-0.168,0-0.448-0.037-0.578-0.093
		l-2.237-7.533h-0.038l-2.349,7.533c-0.168,0.056-0.43,0.093-0.578,0.093c-0.149,0-0.392-0.037-0.56-0.093l-2.312-7.683
		c-0.205-0.634-0.298-1.36-0.316-2.051c0.148-0.037,0.447-0.074,0.634-0.074c0.205,0,0.392,0.037,0.56,0.093
		c0.019,0.672,0.13,1.38,0.298,1.995l1.697,6.061h0.019l2.424-8.074c0.131-0.037,0.392-0.056,0.522-0.056
		c0.13,0,0.41,0.019,0.521,0.056l2.294,8.074h0.019l1.864-6.042c0.205-0.689,0.354-1.342,0.392-2.014
		c0.131-0.056,0.447-0.093,0.615-0.093s0.429,0.037,0.541,0.093C194.469,166.106,194.319,166.741,194.114,167.394z"/>
	<path fill="#333333" d="M202.901,172.801c0,0.671,0,1.511,0.037,2.387c-0.131,0.056-0.336,0.093-0.504,0.093
		c-0.148,0-0.354-0.037-0.503-0.093c-0.056-0.299-0.094-0.689-0.112-1.044h-0.019c-0.634,0.783-1.753,1.23-2.853,1.23
		c-1.734,0-3.188-0.97-3.188-2.965c0-1.138,0.466-1.977,1.193-2.499c0.82-0.577,1.901-0.764,3.058-0.764
		c0.653,0,1.193,0.037,1.679,0.111v-0.541c0-1.864-0.765-2.479-2.331-2.479c-0.876,0-1.958,0.187-2.629,0.354
		c-0.037-0.094-0.075-0.299-0.075-0.485c0-0.13,0.038-0.316,0.094-0.429c0.802-0.242,1.864-0.392,2.76-0.392
		c2.219,0,3.394,1.007,3.394,3.282V172.801z M201.689,170.172c-0.541-0.075-1.101-0.112-1.585-0.112
		c-0.914,0-1.734,0.168-2.294,0.597c-0.503,0.373-0.783,0.97-0.783,1.734c0,1.361,0.877,2.014,2.089,2.014
		c1.007,0,2.069-0.484,2.573-1.249V170.172z"/>
	<path fill="#333333" d="M207.64,175.374c-0.932,0-1.901-0.168-2.573-0.429c-0.056-0.131-0.093-0.354-0.093-0.522
		c0-0.111,0.037-0.392,0.074-0.503c0.69,0.279,1.679,0.503,2.499,0.503c1.417,0,2.293-0.597,2.293-1.771
		c0-1.062-0.54-1.436-2.014-1.977c-2.051-0.745-2.723-1.604-2.723-2.871c0-1.716,1.418-2.518,3.245-2.518
		c0.615,0,1.417,0.112,1.883,0.262c0.057,0.167,0.075,0.335,0.075,0.447c0,0.149-0.038,0.41-0.075,0.54
		c-0.615-0.186-1.268-0.298-1.901-0.298c-1.324,0-2.126,0.504-2.126,1.529c0,0.895,0.504,1.323,2.032,1.901
		c1.398,0.522,2.686,1.045,2.686,2.928C210.922,174.498,209.486,175.374,207.64,175.374z"/>
	<path fill="#333333" d="M218.627,175.262c0,1.679-0.262,2.816-1.063,3.655c-0.503,0.521-1.38,0.839-2.312,0.839
		c-0.317,0-0.522-0.019-0.84-0.074c-0.056-0.112-0.074-0.28-0.074-0.392c0-0.112,0.037-0.336,0.074-0.43
		c0.168,0.038,0.43,0.057,0.597,0.057c1.939,0,2.405-1.474,2.405-3.188v-10.256c0.168-0.056,0.41-0.093,0.597-0.093
		c0.168,0,0.448,0.056,0.616,0.093V175.262z M218.011,163.571c-0.429,0-0.782-0.373-0.782-0.821c0-0.447,0.354-0.802,0.782-0.802
		c0.43,0,0.802,0.354,0.802,0.802C218.812,163.198,218.44,163.571,218.011,163.571z"/>
	<path fill="#333333" d="M228.752,171.495c0,2.835-1.175,3.879-3.636,3.879c-2.518,0-3.58-1.044-3.58-3.785v-6.116
		c0.168-0.056,0.392-0.093,0.597-0.093c0.261,0,0.466,0.056,0.615,0.093v5.967c0,1.809,0.28,3.002,2.387,3.002
		c1.977,0,2.405-1.156,2.405-3.039v-5.93c0.149-0.056,0.41-0.093,0.615-0.093s0.43,0.037,0.597,0.093V171.495z"/>
	<path fill="#333333" d="M238.284,175.28c-0.168,0-0.373-0.056-0.484-0.093l-0.112-1.119h-0.019
		c-0.802,0.84-1.753,1.306-2.815,1.306c-2.573,0-3.804-2.145-3.804-4.755c0-2.592,1.1-5.333,4.064-5.333
		c0.933,0,1.79,0.317,2.48,0.802v-4.512c0.167-0.057,0.392-0.094,0.597-0.094c0.224,0,0.447,0.056,0.615,0.094v13.611
		C238.676,175.243,238.489,175.28,238.284,175.28z M237.595,167.113c-0.672-0.559-1.529-0.839-2.406-0.839
		c-2.162,0-2.89,2.126-2.89,4.289c0,1.659,0.522,3.822,2.61,3.822c1.007,0,2.032-0.504,2.686-1.286V167.113z"/>
	<path fill="#333333" d="M248.73,173.565c0,1.398-0.075,3.076-0.746,4.232c-0.802,1.38-2.237,1.977-3.674,1.977
		c-0.82,0-1.528-0.093-2.125-0.298c-0.056-0.112-0.075-0.299-0.075-0.448c0-0.111,0.038-0.335,0.075-0.447
		c0.578,0.149,1.249,0.261,1.92,0.261c2.35,0,3.413-1.454,3.413-4.009v-0.783c-0.728,0.765-1.753,1.138-2.592,1.138
		c-2.48,0-3.767-1.921-3.767-4.624c0-3.319,1.957-5.277,4.848-5.277c0.765,0,1.921,0.224,2.723,0.541V173.565z M247.519,166.424
		c-0.672-0.187-1.156-0.242-1.623-0.242c-2.367,0-3.486,1.995-3.486,4.325c0,2.07,0.783,3.692,2.61,3.692
		c0.933,0,1.884-0.466,2.499-1.119V166.424z"/>
	<path fill="#333333" d="M258.578,170.656h-6.246c0.074,2.145,1.081,3.767,3.412,3.767c0.839,0,1.622-0.111,2.312-0.279
		c0.037,0.093,0.074,0.279,0.074,0.392c0,0.187-0.037,0.354-0.093,0.484c-0.728,0.224-1.642,0.354-2.406,0.354
		c-1.473,0-2.592-0.466-3.281-1.212c-0.82-0.896-1.249-2.237-1.249-3.785c0-2.704,1.361-5.091,4.083-5.091
		c2.442,0,3.412,2.014,3.412,4.476C258.597,170.041,258.597,170.377,258.578,170.656z M257.385,169.762
		c0-1.716-0.187-3.562-2.256-3.562c-1.809,0-2.686,1.659-2.797,3.562H257.385z"/>
	<path fill="#333333" d="M267.681,175.28c-0.168,0-0.373-0.056-0.484-0.093l-0.112-1.119h-0.019
		c-0.802,0.84-1.753,1.306-2.815,1.306c-2.573,0-3.804-2.145-3.804-4.755c0-2.592,1.1-5.333,4.064-5.333
		c0.933,0,1.79,0.317,2.48,0.802v-4.512c0.167-0.057,0.392-0.094,0.597-0.094c0.224,0,0.447,0.056,0.615,0.094v13.611
		C268.072,175.243,267.886,175.28,267.681,175.28z M266.991,167.113c-0.672-0.559-1.529-0.839-2.406-0.839
		c-2.162,0-2.89,2.126-2.89,4.289c0,1.659,0.522,3.822,2.61,3.822c1.007,0,2.032-0.504,2.686-1.286V167.113z"/>
	<path fill="#333333" d="M280.756,175.095c-0.484,0.167-1.212,0.279-1.752,0.279c-1.847,0-2.723-0.876-2.723-2.946v-6.004h-1.679
		c-0.037-0.094-0.056-0.317-0.056-0.429c0-0.094,0.019-0.317,0.056-0.41l1.679-0.112v-2.536c0.149-0.056,0.392-0.093,0.597-0.093
		s0.466,0.037,0.615,0.093v2.536h2.741c0.037,0.094,0.074,0.373,0.074,0.467c0,0.13-0.037,0.354-0.074,0.484h-2.741v5.893
		c0,1.473,0.429,2.088,1.585,2.088c0.634,0,1.249-0.093,1.678-0.224c0.038,0.093,0.075,0.317,0.075,0.447
		C280.831,174.796,280.812,174.927,280.756,175.095z"/>
	<path fill="#333333" d="M285.961,175.374c-2.442,0-4.009-1.679-4.009-5.034c0-3.356,1.585-5.054,4.027-5.054s3.99,1.66,3.99,5.016
		C289.97,173.658,288.403,175.374,285.961,175.374z M285.979,166.2c-1.79,0-2.76,1.38-2.76,4.121c0,2.74,0.951,4.139,2.741,4.139
		s2.741-1.398,2.741-4.139C288.702,167.58,287.77,166.2,285.979,166.2z"/>
</g>
<g>
	<path fill="#333333" d="M23.466,198.167c-0.858,0-1.958-0.131-2.983-0.504v-13.294c0.13-0.038,0.41-0.094,0.578-0.094
		c0.298,0,0.522,0.056,0.634,0.094v4.717c0.765-0.634,1.734-1.007,2.76-1.007c2.629,0,3.729,2.257,3.729,4.773
		C28.184,196.06,26.543,198.167,23.466,198.167z M24.287,189.123c-0.932,0-1.865,0.392-2.592,1.119v6.694
		c0.503,0.187,1.137,0.298,1.678,0.298c2.592,0,3.542-1.977,3.542-4.307C26.916,191.119,26.394,189.123,24.287,189.123z"/>
	<path fill="#333333" d="M37.491,193.449h-6.246c0.074,2.145,1.082,3.767,3.412,3.767c0.839,0,1.622-0.111,2.312-0.279
		c0.038,0.093,0.075,0.279,0.075,0.392c0,0.187-0.037,0.354-0.093,0.484c-0.727,0.224-1.641,0.354-2.405,0.354
		c-1.473,0-2.592-0.466-3.282-1.212c-0.82-0.896-1.25-2.237-1.25-3.785c0-2.704,1.361-5.091,4.083-5.091
		c2.443,0,3.413,2.014,3.413,4.476C37.51,192.834,37.51,193.17,37.491,193.449z M36.298,192.555c0-1.716-0.186-3.562-2.256-3.562
		c-1.809,0-2.685,1.659-2.797,3.562H36.298z"/>
	<path fill="#333333" d="M55.676,190.187l-2.499,7.794c-0.149,0.056-0.429,0.093-0.578,0.093c-0.167,0-0.447-0.037-0.578-0.093
		l-2.238-7.533h-0.037l-2.35,7.533c-0.168,0.056-0.429,0.093-0.578,0.093c-0.149,0-0.392-0.037-0.559-0.093l-2.312-7.683
		c-0.205-0.634-0.298-1.36-0.317-2.051c0.149-0.037,0.448-0.074,0.634-0.074c0.205,0,0.392,0.037,0.559,0.093
		c0.019,0.672,0.131,1.38,0.298,1.995l1.697,6.061h0.019l2.424-8.074c0.13-0.037,0.392-0.056,0.522-0.056s0.41,0.019,0.522,0.056
		l2.293,8.074h0.019l1.864-6.042c0.205-0.689,0.354-1.342,0.392-2.014c0.131-0.056,0.448-0.093,0.615-0.093
		c0.168,0,0.429,0.037,0.541,0.093C56.03,188.899,55.881,189.534,55.676,190.187z"/>
	<path fill="#333333" d="M61.555,198.167c-2.443,0-4.009-1.679-4.009-5.034c0-3.356,1.585-5.054,4.028-5.054
		c2.442,0,3.99,1.66,3.99,5.016C65.563,196.451,63.997,198.167,61.555,198.167z M61.573,188.993c-1.79,0-2.76,1.38-2.76,4.121
		c0,2.74,0.951,4.139,2.741,4.139s2.741-1.398,2.741-4.139C64.295,190.373,63.363,188.993,61.573,188.993z"/>
	<path fill="#333333" d="M72.279,189.161c-1.081,0.148-2.256,0.54-3.132,1.212v7.607c-0.187,0.056-0.41,0.093-0.615,0.093
		s-0.41-0.037-0.597-0.093v-9.715c0.112-0.037,0.28-0.074,0.466-0.074c0.149,0,0.354,0.037,0.504,0.074l0.093,1.193h0.019
		c0.802-0.689,2.2-1.268,3.263-1.38c0.038,0.112,0.075,0.317,0.075,0.485C72.354,188.751,72.316,188.993,72.279,189.161z"/>
	<path fill="#333333" d="M75.768,197.98c-0.205,0.056-0.41,0.093-0.634,0.093c-0.187,0-0.41-0.037-0.578-0.093v-13.611
		c0.168-0.038,0.373-0.094,0.615-0.094c0.205,0,0.429,0.037,0.597,0.094V197.98z"/>
	<path fill="#333333" d="M85.41,198.073c-0.168,0-0.373-0.056-0.485-0.093l-0.112-1.119h-0.019c-0.802,0.84-1.753,1.306-2.815,1.306
		c-2.573,0-3.804-2.145-3.804-4.755c0-2.592,1.1-5.333,4.065-5.333c0.933,0,1.79,0.317,2.48,0.802v-4.512
		c0.168-0.057,0.392-0.094,0.597-0.094c0.224,0,0.448,0.056,0.615,0.094v13.611C85.801,198.036,85.615,198.073,85.41,198.073z
		 M84.72,189.906c-0.671-0.559-1.529-0.839-2.405-0.839c-2.163,0-2.89,2.126-2.89,4.289c0,1.659,0.522,3.822,2.61,3.822
		c1.007,0,2.033-0.504,2.685-1.286V189.906z"/>
	<path fill="#333333" d="M92.032,192.629c0.037,0.094,0.093,0.336,0.093,0.485c0,0.148-0.037,0.354-0.093,0.503h-3.636
		c-0.056-0.149-0.093-0.354-0.093-0.503c0-0.149,0.056-0.392,0.093-0.485H92.032z"/>
	<path fill="#333333" d="M95.763,197.98c-0.205,0.056-0.41,0.093-0.634,0.093c-0.187,0-0.41-0.037-0.578-0.093v-13.611
		c0.168-0.038,0.373-0.094,0.615-0.094c0.205,0,0.429,0.037,0.597,0.094V197.98z"/>
	<path fill="#333333" d="M105.647,193.449h-6.247c0.074,2.145,1.082,3.767,3.412,3.767c0.839,0,1.622-0.111,2.312-0.279
		c0.038,0.093,0.075,0.279,0.075,0.392c0,0.187-0.037,0.354-0.093,0.484c-0.727,0.224-1.641,0.354-2.405,0.354
		c-1.473,0-2.592-0.466-3.282-1.212c-0.82-0.896-1.25-2.237-1.25-3.785c0-2.704,1.361-5.091,4.083-5.091
		c2.443,0,3.413,2.014,3.413,4.476C105.666,192.834,105.666,193.17,105.647,193.449z M104.454,192.555
		c0-1.716-0.187-3.562-2.256-3.562c-1.809,0-2.685,1.659-2.797,3.562H104.454z"/>
	<path fill="#333333" d="M114.693,195.594c0,0.671,0,1.511,0.038,2.387c-0.13,0.056-0.335,0.093-0.503,0.093
		c-0.149,0-0.354-0.037-0.503-0.093c-0.056-0.299-0.093-0.689-0.112-1.044h-0.019c-0.634,0.783-1.752,1.23-2.853,1.23
		c-1.734,0-3.188-0.97-3.188-2.965c0-1.138,0.466-1.977,1.193-2.499c0.82-0.577,1.902-0.764,3.058-0.764
		c0.653,0,1.193,0.037,1.678,0.111v-0.541c0-1.864-0.764-2.479-2.331-2.479c-0.876,0-1.958,0.187-2.629,0.354
		c-0.037-0.094-0.074-0.299-0.074-0.485c0-0.13,0.037-0.316,0.093-0.429c0.802-0.242,1.864-0.392,2.759-0.392
		c2.219,0,3.394,1.007,3.394,3.282V195.594z M113.481,192.965c-0.541-0.075-1.1-0.112-1.585-0.112c-0.914,0-1.734,0.168-2.293,0.597
		c-0.503,0.373-0.783,0.97-0.783,1.734c0,1.361,0.876,2.014,2.088,2.014c1.007,0,2.07-0.484,2.573-1.249V192.965z"/>
	<path fill="#333333" d="M124.337,198.073c-0.168,0-0.373-0.056-0.485-0.093l-0.112-1.119h-0.019
		c-0.802,0.84-1.753,1.306-2.815,1.306c-2.573,0-3.804-2.145-3.804-4.755c0-2.592,1.1-5.333,4.065-5.333
		c0.933,0,1.79,0.317,2.48,0.802v-4.512c0.168-0.057,0.392-0.094,0.597-0.094c0.224,0,0.448,0.056,0.615,0.094v13.611
		C124.729,198.036,124.542,198.073,124.337,198.073z M123.647,189.906c-0.671-0.559-1.529-0.839-2.405-0.839
		c-2.163,0-2.89,2.126-2.89,4.289c0,1.659,0.522,3.822,2.61,3.822c1.007,0,2.033-0.504,2.685-1.286V189.906z"/>
	<path fill="#333333" d="M129.002,186.364c-0.429,0-0.783-0.373-0.783-0.821c0-0.447,0.354-0.802,0.783-0.802
		c0.429,0,0.802,0.354,0.802,0.802C129.804,185.991,129.431,186.364,129.002,186.364z M129.618,197.98
		c-0.168,0.056-0.41,0.093-0.616,0.093c-0.205,0-0.429-0.037-0.597-0.093v-9.715c0.149-0.037,0.392-0.093,0.578-0.093
		c0.205,0,0.485,0.037,0.634,0.093V197.98z"/>
	<path fill="#333333" d="M140.042,197.999c-0.149,0.037-0.373,0.074-0.597,0.074c-0.187,0-0.429-0.037-0.615-0.093v-5.911
		c0-0.895-0.112-1.585-0.373-2.069c-0.317-0.597-0.914-0.896-1.883-0.896c-0.933,0-2.051,0.522-2.778,1.082v7.794
		c-0.205,0.056-0.41,0.093-0.634,0.093c-0.187,0-0.411-0.037-0.578-0.093v-9.715c0.13-0.056,0.354-0.074,0.485-0.074
		c0.186,0,0.41,0.019,0.522,0.074l0.093,0.97h0.019c1.025-0.839,2.2-1.156,3.151-1.156c0.951,0,1.939,0.317,2.48,0.97
		c0.597,0.709,0.708,1.734,0.708,2.741V197.999z"/>
	<path fill="#333333" d="M149.928,196.358c0,1.398-0.074,3.076-0.746,4.232c-0.802,1.38-2.238,1.977-3.673,1.977
		c-0.82,0-1.529-0.093-2.125-0.298c-0.056-0.112-0.075-0.299-0.075-0.448c0-0.111,0.037-0.335,0.075-0.447
		c0.578,0.149,1.249,0.261,1.92,0.261c2.35,0,3.412-1.454,3.412-4.009v-0.783c-0.727,0.765-1.752,1.138-2.592,1.138
		c-2.48,0-3.767-1.921-3.767-4.624c0-3.319,1.958-5.277,4.848-5.277c0.765,0,1.92,0.224,2.722,0.541V196.358z M148.716,189.217
		c-0.671-0.187-1.156-0.242-1.622-0.242c-2.368,0-3.487,1.995-3.487,4.325c0,2.07,0.783,3.692,2.61,3.692
		c0.932,0,1.883-0.466,2.499-1.119V189.217z"/>
	<path fill="#333333" d="M160.785,198.167c-2.442,0-4.009-1.679-4.009-5.034c0-3.356,1.585-5.054,4.027-5.054s3.99,1.66,3.99,5.016
		C164.794,196.451,163.228,198.167,160.785,198.167z M160.804,188.993c-1.79,0-2.76,1.38-2.76,4.121c0,2.74,0.951,4.139,2.741,4.139
		s2.741-1.398,2.741-4.139C163.526,190.373,162.594,188.993,160.804,188.993z"/>
	<path fill="#333333" d="M171.49,189.161c-1.081,0.148-2.256,0.54-3.133,1.212v7.607c-0.186,0.056-0.41,0.093-0.615,0.093
		s-0.41-0.037-0.597-0.093v-9.715c0.112-0.037,0.28-0.074,0.467-0.074c0.148,0,0.354,0.037,0.503,0.074l0.094,1.193h0.019
		c0.802-0.689,2.2-1.268,3.263-1.38c0.037,0.112,0.075,0.317,0.075,0.485C171.565,188.751,171.527,188.993,171.49,189.161z"/>
	<path fill="#333333" d="M178.879,186.364c-0.429,0-0.783-0.373-0.783-0.821c0-0.447,0.354-0.802,0.783-0.802
		s0.802,0.354,0.802,0.802C179.681,185.991,179.308,186.364,178.879,186.364z M179.494,197.98c-0.168,0.056-0.41,0.093-0.615,0.093
		s-0.429-0.037-0.597-0.093v-9.715c0.149-0.037,0.392-0.093,0.578-0.093c0.205,0,0.484,0.037,0.634,0.093V197.98z"/>
	<path fill="#333333" d="M189.919,197.999c-0.149,0.037-0.373,0.074-0.597,0.074c-0.187,0-0.429-0.037-0.615-0.093v-5.911
		c0-0.895-0.112-1.585-0.373-2.069c-0.317-0.597-0.914-0.896-1.884-0.896c-0.932,0-2.051,0.522-2.778,1.082v7.794
		c-0.205,0.056-0.41,0.093-0.634,0.093c-0.187,0-0.41-0.037-0.578-0.093v-9.715c0.131-0.056,0.354-0.074,0.485-0.074
		c0.187,0,0.41,0.019,0.521,0.074l0.094,0.97h0.019c1.025-0.839,2.2-1.156,3.151-1.156s1.939,0.317,2.479,0.97
		c0.597,0.709,0.709,1.734,0.709,2.741V197.999z"/>
	<path fill="#333333" d="M197.939,197.888c-0.484,0.167-1.212,0.279-1.752,0.279c-1.847,0-2.723-0.876-2.723-2.946v-6.004h-1.679
		c-0.037-0.094-0.056-0.317-0.056-0.429c0-0.094,0.019-0.317,0.056-0.41l1.679-0.112v-2.536c0.149-0.056,0.392-0.093,0.597-0.093
		s0.466,0.037,0.615,0.093v2.536h2.741c0.037,0.094,0.074,0.373,0.074,0.467c0,0.13-0.037,0.354-0.074,0.484h-2.741v5.893
		c0,1.473,0.429,2.088,1.585,2.088c0.634,0,1.249-0.093,1.678-0.224c0.038,0.093,0.075,0.317,0.075,0.447
		C198.015,197.589,197.996,197.72,197.939,197.888z"/>
	<path fill="#333333" d="M206.594,193.449h-6.246c0.074,2.145,1.081,3.767,3.412,3.767c0.839,0,1.622-0.111,2.312-0.279
		c0.037,0.093,0.074,0.279,0.074,0.392c0,0.187-0.037,0.354-0.093,0.484c-0.728,0.224-1.642,0.354-2.406,0.354
		c-1.473,0-2.592-0.466-3.281-1.212c-0.82-0.896-1.249-2.237-1.249-3.785c0-2.704,1.361-5.091,4.083-5.091
		c2.442,0,3.412,2.014,3.412,4.476C206.612,192.834,206.612,193.17,206.594,193.449z M205.4,192.555
		c0-1.716-0.187-3.562-2.256-3.562c-1.809,0-2.686,1.659-2.797,3.562H205.4z"/>
	<path fill="#333333" d="M213.347,189.161c-1.081,0.148-2.256,0.54-3.133,1.212v7.607c-0.186,0.056-0.41,0.093-0.615,0.093
		s-0.41-0.037-0.597-0.093v-9.715c0.112-0.037,0.28-0.074,0.467-0.074c0.148,0,0.354,0.037,0.503,0.074l0.094,1.193h0.019
		c0.802-0.689,2.2-1.268,3.263-1.38c0.037,0.112,0.075,0.317,0.075,0.485C213.422,188.751,213.384,188.993,213.347,189.161z"/>
	<path fill="#333333" d="M223.045,197.999c-0.149,0.037-0.373,0.074-0.597,0.074c-0.187,0-0.429-0.037-0.615-0.093v-5.911
		c0-0.895-0.112-1.585-0.373-2.069c-0.317-0.597-0.914-0.896-1.884-0.896c-0.932,0-2.051,0.522-2.778,1.082v7.794
		c-0.205,0.056-0.41,0.093-0.634,0.093c-0.187,0-0.41-0.037-0.578-0.093v-9.715c0.131-0.056,0.354-0.074,0.485-0.074
		c0.187,0,0.41,0.019,0.521,0.074l0.094,0.97h0.019c1.025-0.839,2.2-1.156,3.151-1.156s1.939,0.317,2.479,0.97
		c0.597,0.709,0.709,1.734,0.709,2.741V197.999z"/>
	<path fill="#333333" d="M232.54,195.594c0,0.671,0,1.511,0.037,2.387c-0.131,0.056-0.336,0.093-0.504,0.093
		c-0.148,0-0.354-0.037-0.503-0.093c-0.056-0.299-0.094-0.689-0.112-1.044h-0.019c-0.634,0.783-1.753,1.23-2.853,1.23
		c-1.734,0-3.188-0.97-3.188-2.965c0-1.138,0.466-1.977,1.193-2.499c0.82-0.577,1.901-0.764,3.058-0.764
		c0.653,0,1.193,0.037,1.679,0.111v-0.541c0-1.864-0.765-2.479-2.331-2.479c-0.876,0-1.958,0.187-2.629,0.354
		c-0.037-0.094-0.075-0.299-0.075-0.485c0-0.13,0.038-0.316,0.094-0.429c0.802-0.242,1.864-0.392,2.76-0.392
		c2.219,0,3.394,1.007,3.394,3.282V195.594z M231.328,192.965c-0.541-0.075-1.101-0.112-1.585-0.112
		c-0.914,0-1.734,0.168-2.294,0.597c-0.503,0.373-0.783,0.97-0.783,1.734c0,1.361,0.877,2.014,2.089,2.014
		c1.007,0,2.069-0.484,2.573-1.249V192.965z"/>
	<path fill="#333333" d="M240.653,197.888c-0.484,0.167-1.212,0.279-1.752,0.279c-1.847,0-2.723-0.876-2.723-2.946v-6.004H234.5
		c-0.037-0.094-0.056-0.317-0.056-0.429c0-0.094,0.019-0.317,0.056-0.41l1.679-0.112v-2.536c0.149-0.056,0.392-0.093,0.597-0.093
		s0.466,0.037,0.615,0.093v2.536h2.741c0.037,0.094,0.074,0.373,0.074,0.467c0,0.13-0.037,0.354-0.074,0.484h-2.741v5.893
		c0,1.473,0.429,2.088,1.585,2.088c0.634,0,1.249-0.093,1.678-0.224c0.038,0.093,0.075,0.317,0.075,0.447
		C240.729,197.589,240.71,197.72,240.653,197.888z"/>
	<path fill="#333333" d="M243.49,186.364c-0.429,0-0.783-0.373-0.783-0.821c0-0.447,0.354-0.802,0.783-0.802
		s0.802,0.354,0.802,0.802C244.292,185.991,243.919,186.364,243.49,186.364z M244.105,197.98c-0.168,0.056-0.41,0.093-0.615,0.093
		s-0.429-0.037-0.597-0.093v-9.715c0.149-0.037,0.392-0.093,0.578-0.093c0.205,0,0.484,0.037,0.634,0.093V197.98z"/>
	<path fill="#333333" d="M250.54,198.167c-2.442,0-4.009-1.679-4.009-5.034c0-3.356,1.585-5.054,4.027-5.054s3.99,1.66,3.99,5.016
		C254.549,196.451,252.982,198.167,250.54,198.167z M250.559,188.993c-1.79,0-2.76,1.38-2.76,4.121c0,2.74,0.951,4.139,2.741,4.139
		s2.741-1.398,2.741-4.139C253.281,190.373,252.349,188.993,250.559,188.993z"/>
	<path fill="#333333" d="M264.36,197.999c-0.149,0.037-0.373,0.074-0.597,0.074c-0.187,0-0.429-0.037-0.615-0.093v-5.911
		c0-0.895-0.112-1.585-0.373-2.069c-0.317-0.597-0.914-0.896-1.884-0.896c-0.932,0-2.051,0.522-2.778,1.082v7.794
		c-0.205,0.056-0.41,0.093-0.634,0.093c-0.187,0-0.41-0.037-0.578-0.093v-9.715c0.131-0.056,0.354-0.074,0.485-0.074
		c0.187,0,0.41,0.019,0.521,0.074l0.094,0.97h0.019c1.025-0.839,2.2-1.156,3.151-1.156s1.939,0.317,2.479,0.97
		c0.597,0.709,0.709,1.734,0.709,2.741V197.999z"/>
	<path fill="#333333" d="M273.854,195.594c0,0.671,0,1.511,0.037,2.387c-0.131,0.056-0.336,0.093-0.504,0.093
		c-0.148,0-0.354-0.037-0.503-0.093c-0.056-0.299-0.094-0.689-0.112-1.044h-0.019c-0.634,0.783-1.753,1.23-2.853,1.23
		c-1.734,0-3.188-0.97-3.188-2.965c0-1.138,0.466-1.977,1.193-2.499c0.82-0.577,1.901-0.764,3.058-0.764
		c0.653,0,1.193,0.037,1.679,0.111v-0.541c0-1.864-0.765-2.479-2.331-2.479c-0.876,0-1.958,0.187-2.629,0.354
		c-0.037-0.094-0.075-0.299-0.075-0.485c0-0.13,0.038-0.316,0.094-0.429c0.802-0.242,1.864-0.392,2.76-0.392
		c2.219,0,3.394,1.007,3.394,3.282V195.594z M272.643,192.965c-0.541-0.075-1.101-0.112-1.585-0.112
		c-0.914,0-1.734,0.168-2.294,0.597c-0.503,0.373-0.783,0.97-0.783,1.734c0,1.361,0.877,2.014,2.089,2.014
		c1.007,0,2.069-0.484,2.573-1.249V192.965z"/>
	<path fill="#333333" d="M278.054,197.98c-0.205,0.056-0.41,0.093-0.635,0.093c-0.186,0-0.41-0.037-0.577-0.093v-13.611
		c0.167-0.038,0.372-0.094,0.615-0.094c0.205,0,0.429,0.037,0.597,0.094V197.98z"/>
	<path fill="#333333" d="M282.25,197.98c-0.205,0.056-0.41,0.093-0.635,0.093c-0.186,0-0.41-0.037-0.577-0.093v-13.611
		c0.167-0.038,0.372-0.094,0.615-0.094c0.205,0,0.429,0.037,0.597,0.094V197.98z"/>
	<path fill="#333333" d="M292.432,196.358c0,1.809-0.075,3.095-0.728,4.251c-0.746,1.324-2.219,1.958-3.543,1.958
		c-0.97,0-1.641-0.093-2.237-0.298c-0.056-0.112-0.074-0.299-0.074-0.448c0-0.111,0.037-0.354,0.074-0.466
		c0.56,0.168,1.23,0.298,2.126,0.298c2.051,0,3.17-1.473,3.17-4.027v-0.652c-0.951,0.839-2.014,1.193-2.983,1.193
		c-1.045,0-1.865-0.261-2.387-0.896c-0.578-0.689-0.653-1.696-0.653-2.703v-6.303c0.149-0.037,0.392-0.093,0.578-0.093
		c0.224,0,0.467,0.056,0.634,0.093v6.098c0,0.895,0.075,1.641,0.411,2.145c0.298,0.429,0.782,0.652,1.51,0.652
		c1.156,0,2.256-0.615,2.891-1.23v-7.664c0.167-0.037,0.41-0.093,0.634-0.093c0.187,0,0.429,0.056,0.578,0.093V196.358z"/>
</g>
<g>
	<path fill="#333333" d="M27.419,216.244h-6.246c0.074,2.145,1.082,3.767,3.412,3.767c0.839,0,1.622-0.111,2.312-0.279
		c0.038,0.093,0.075,0.279,0.075,0.392c0,0.187-0.037,0.354-0.093,0.484c-0.727,0.224-1.641,0.354-2.405,0.354
		c-1.473,0-2.592-0.466-3.282-1.212c-0.82-0.896-1.25-2.237-1.25-3.785c0-2.704,1.361-5.091,4.083-5.091
		c2.443,0,3.413,2.014,3.413,4.476C27.438,215.629,27.438,215.965,27.419,216.244z M26.226,215.35c0-1.716-0.186-3.562-2.256-3.562
		c-1.809,0-2.685,1.659-2.797,3.562H26.226z"/>
	<path fill="#333333" d="M36.521,220.868c-0.242,0-0.392-0.037-0.578-0.093c-0.112-0.504-0.224-0.876-0.597-1.38l-2.163-2.946
		l-2.293,3.059c-0.41,0.54-0.466,0.783-0.541,1.268c-0.205,0.056-0.429,0.093-0.597,0.093c-0.187,0-0.541-0.037-0.671-0.093
		c0.075-0.615,0.28-1.025,0.671-1.548l2.704-3.562l-2.312-3.058c-0.522-0.69-0.69-1.212-0.69-1.585
		c0.149-0.037,0.466-0.074,0.653-0.074c0.224,0,0.466,0.019,0.615,0.074c0.056,0.354,0.167,0.746,0.597,1.343l1.827,2.498
		l1.883-2.461c0.448-0.578,0.56-0.988,0.634-1.38c0.149-0.037,0.373-0.074,0.616-0.074c0.13,0,0.466,0.037,0.597,0.074
		c-0.019,0.522-0.28,1.007-0.69,1.566l-2.293,3.039l2.61,3.543c0.429,0.578,0.652,0.988,0.746,1.604
		C37.062,220.831,36.727,220.868,36.521,220.868z"/>
	<path fill="#333333" d="M45.251,212.235c-0.597-0.242-1.38-0.392-2.07-0.392c-2.424,0-3.319,1.884-3.319,4.158
		c0,2.237,0.858,3.972,3.3,3.972c0.653,0,1.436-0.112,2.014-0.279c0.037,0.111,0.074,0.242,0.074,0.392
		c0,0.224-0.037,0.391-0.093,0.521c-0.541,0.224-1.417,0.354-2.107,0.354c-3.039,0-4.457-1.995-4.457-4.923
		c0-3.039,1.548-5.165,4.513-5.165c0.708,0,1.547,0.168,2.125,0.429c0.056,0.149,0.075,0.299,0.075,0.467
		C45.307,211.956,45.289,212.104,45.251,212.235z"/>
	<path fill="#333333" d="M54.559,216.244h-6.247c0.074,2.145,1.082,3.767,3.412,3.767c0.839,0,1.622-0.111,2.312-0.279
		c0.038,0.093,0.075,0.279,0.075,0.392c0,0.187-0.037,0.354-0.093,0.484c-0.727,0.224-1.641,0.354-2.405,0.354
		c-1.473,0-2.592-0.466-3.282-1.212c-0.82-0.896-1.25-2.237-1.25-3.785c0-2.704,1.361-5.091,4.083-5.091
		c2.443,0,3.413,2.014,3.413,4.476C54.577,215.629,54.577,215.965,54.559,216.244z M53.365,215.35c0-1.716-0.187-3.562-2.256-3.562
		c-1.809,0-2.685,1.659-2.797,3.562H53.365z"/>
	<path fill="#333333" d="M58.216,220.775c-0.205,0.056-0.41,0.093-0.634,0.093c-0.187,0-0.41-0.037-0.578-0.093v-13.611
		c0.168-0.038,0.373-0.094,0.615-0.094c0.205,0,0.429,0.037,0.597,0.094V220.775z"/>
	<path fill="#333333" d="M62.413,220.775c-0.205,0.056-0.41,0.093-0.634,0.093c-0.187,0-0.41-0.037-0.578-0.093v-13.611
		c0.168-0.038,0.373-0.094,0.615-0.094c0.205,0,0.429,0.037,0.597,0.094V220.775z"/>
	<path fill="#333333" d="M72.297,216.244H66.05c0.074,2.145,1.082,3.767,3.412,3.767c0.839,0,1.622-0.111,2.312-0.279
		c0.038,0.093,0.075,0.279,0.075,0.392c0,0.187-0.037,0.354-0.093,0.484c-0.727,0.224-1.641,0.354-2.405,0.354
		c-1.473,0-2.592-0.466-3.282-1.212c-0.82-0.896-1.25-2.237-1.25-3.785c0-2.704,1.361-5.091,4.083-5.091
		c2.443,0,3.413,2.014,3.413,4.476C72.315,215.629,72.315,215.965,72.297,216.244z M71.104,215.35c0-1.716-0.187-3.562-2.256-3.562
		c-1.809,0-2.685,1.659-2.797,3.562H71.104z"/>
	<path fill="#333333" d="M82.164,220.794c-0.149,0.037-0.373,0.074-0.597,0.074c-0.187,0-0.429-0.037-0.615-0.093v-5.911
		c0-0.895-0.112-1.585-0.373-2.069c-0.317-0.597-0.914-0.896-1.883-0.896c-0.933,0-2.051,0.522-2.778,1.082v7.794
		c-0.205,0.056-0.41,0.093-0.634,0.093c-0.187,0-0.411-0.037-0.578-0.093v-9.715c0.13-0.056,0.354-0.074,0.485-0.074
		c0.186,0,0.41,0.019,0.522,0.074l0.093,0.97h0.019c1.025-0.839,2.2-1.156,3.151-1.156c0.951,0,1.939,0.317,2.48,0.97
		c0.597,0.709,0.708,1.734,0.708,2.741V220.794z"/>
	<path fill="#333333" d="M90.185,220.683c-0.485,0.167-1.212,0.279-1.753,0.279c-1.846,0-2.722-0.876-2.722-2.946v-6.004h-1.678
		c-0.038-0.094-0.056-0.317-0.056-0.429c0-0.094,0.019-0.317,0.056-0.41l1.678-0.112v-2.536c0.149-0.056,0.392-0.093,0.597-0.093
		s0.466,0.037,0.615,0.093v2.536h2.741c0.038,0.094,0.075,0.373,0.075,0.467c0,0.13-0.037,0.354-0.075,0.484h-2.741v5.893
		c0,1.473,0.429,2.088,1.585,2.088c0.634,0,1.249-0.093,1.678-0.224c0.037,0.093,0.074,0.317,0.074,0.447
		C90.259,220.384,90.241,220.515,90.185,220.683z"/>
	<path fill="#333333" d="M102.327,207.966c-0.28-0.075-0.783-0.149-1.175-0.149c-0.708,0-1.23,0.187-1.585,0.578
		c-0.541,0.578-0.634,1.361-0.634,2.35v0.316h2.629c0.038,0.094,0.075,0.317,0.075,0.447c0,0.149-0.037,0.373-0.075,0.504h-2.629
		v8.764c-0.168,0.056-0.354,0.093-0.597,0.093s-0.448-0.037-0.615-0.093v-8.764h-1.678c-0.038-0.094-0.056-0.336-0.056-0.447
		c0-0.094,0.019-0.299,0.056-0.392l1.678-0.112v-0.316c0-1.324,0.224-2.238,0.988-3.003c0.541-0.54,1.342-0.802,2.256-0.802
		c0.485,0,1.026,0.112,1.361,0.243c0.037,0.093,0.056,0.224,0.056,0.354C102.383,207.648,102.364,207.872,102.327,207.966z"/>
	<path fill="#333333" d="M106.73,220.962c-2.443,0-4.009-1.679-4.009-5.034c0-3.356,1.585-5.054,4.028-5.054
		c2.442,0,3.99,1.66,3.99,5.016C110.739,219.246,109.172,220.962,106.73,220.962z M106.749,211.788c-1.79,0-2.76,1.38-2.76,4.121
		c0,2.74,0.951,4.139,2.741,4.139s2.741-1.398,2.741-4.139C109.471,213.168,108.539,211.788,106.749,211.788z"/>
	<path fill="#333333" d="M117.436,211.956c-1.081,0.148-2.256,0.54-3.132,1.212v7.607c-0.187,0.056-0.41,0.093-0.615,0.093
		s-0.41-0.037-0.597-0.093v-9.715c0.112-0.037,0.28-0.074,0.466-0.074c0.149,0,0.354,0.037,0.504,0.074l0.093,1.193h0.019
		c0.802-0.689,2.2-1.268,3.263-1.38c0.038,0.112,0.075,0.317,0.075,0.485C117.511,211.546,117.474,211.788,117.436,211.956z"/>
	<path fill="#333333" d="M124.843,209.159c-0.429,0-0.783-0.373-0.783-0.821c0-0.447,0.354-0.802,0.783-0.802
		c0.429,0,0.802,0.354,0.802,0.802C125.645,208.786,125.271,209.159,124.843,209.159z M125.458,220.775
		c-0.168,0.056-0.41,0.093-0.615,0.093c-0.206,0-0.429-0.037-0.597-0.093v-9.715c0.149-0.037,0.391-0.093,0.578-0.093
		c0.205,0,0.485,0.037,0.634,0.093V220.775z"/>
	<path fill="#333333" d="M133.608,220.683c-0.485,0.167-1.212,0.279-1.753,0.279c-1.846,0-2.722-0.876-2.722-2.946v-6.004h-1.678
		c-0.038-0.094-0.056-0.317-0.056-0.429c0-0.094,0.019-0.317,0.056-0.41l1.678-0.112v-2.536c0.149-0.056,0.392-0.093,0.597-0.093
		s0.466,0.037,0.615,0.093v2.536h2.741c0.038,0.094,0.075,0.373,0.075,0.467c0,0.13-0.037,0.354-0.075,0.484h-2.741v5.893
		c0,1.473,0.429,2.088,1.585,2.088c0.634,0,1.249-0.093,1.678-0.224c0.037,0.093,0.074,0.317,0.074,0.447
		C133.682,220.384,133.664,220.515,133.608,220.683z"/>
	<path fill="#333333" d="M137.936,220.962c-0.932,0-1.902-0.168-2.573-0.429c-0.056-0.131-0.093-0.354-0.093-0.522
		c0-0.111,0.037-0.392,0.074-0.503c0.69,0.279,1.678,0.503,2.499,0.503c1.417,0,2.293-0.597,2.293-1.771
		c0-1.062-0.541-1.436-2.014-1.977c-2.051-0.745-2.722-1.604-2.722-2.871c0-1.716,1.417-2.518,3.245-2.518
		c0.615,0,1.417,0.112,1.883,0.262c0.056,0.167,0.074,0.335,0.074,0.447c0,0.149-0.037,0.41-0.074,0.54
		c-0.616-0.186-1.268-0.298-1.902-0.298c-1.324,0-2.125,0.504-2.125,1.529c0,0.895,0.503,1.323,2.032,1.901
		c1.399,0.522,2.686,1.045,2.686,2.928C141.218,220.086,139.782,220.962,137.936,220.962z"/>
	<path fill="#333333" d="M148.718,209.159c-0.429,0-0.783-0.373-0.783-0.821c0-0.447,0.354-0.802,0.783-0.802
		c0.429,0,0.802,0.354,0.802,0.802C149.52,208.786,149.146,209.159,148.718,209.159z M149.333,220.775
		c-0.168,0.056-0.41,0.093-0.615,0.093c-0.206,0-0.429-0.037-0.597-0.093v-9.715c0.149-0.037,0.391-0.093,0.578-0.093
		c0.205,0,0.485,0.037,0.634,0.093V220.775z"/>
	<path fill="#333333" d="M165.799,220.794c-0.187,0.037-0.373,0.074-0.56,0.074c-0.224,0-0.429-0.056-0.652-0.093v-5.893
		c0-2.051-0.521-2.983-2.256-2.983c-0.896,0-2.089,0.467-2.834,1.007c0.148,0.522,0.187,1.101,0.187,1.679v6.19
		c-0.187,0.056-0.373,0.093-0.56,0.093c-0.243,0-0.467-0.037-0.653-0.093v-5.893c0-2.051-0.466-2.983-2.2-2.983
		c-0.932,0-2.032,0.522-2.76,1.082v7.794c-0.205,0.056-0.447,0.093-0.671,0.093c-0.187,0-0.392-0.037-0.541-0.093v-9.715
		c0.094-0.037,0.299-0.074,0.504-0.074c0.168,0,0.373,0.037,0.503,0.074l0.094,0.97h0.019c1.025-0.839,2.2-1.156,3.151-1.156
		s1.864,0.317,2.405,0.97c0.074,0.074,0.131,0.168,0.187,0.261c0.988-0.802,2.256-1.23,3.468-1.23c0.951,0,1.921,0.317,2.462,0.97
		c0.597,0.709,0.708,1.734,0.708,2.741V220.794z"/>
	<path fill="#333333" d="M174.791,219.769c-0.727,0.652-1.864,1.007-2.945,1.007c-0.765,0-1.474-0.131-1.996-0.317v4.699
		c-0.186,0.056-0.354,0.093-0.615,0.093c-0.205,0-0.447-0.037-0.597-0.093v-14.097c0.094-0.037,0.317-0.074,0.504-0.074
		s0.354,0.037,0.484,0.074l0.112,1.025h0.019c0.709-0.745,1.771-1.212,2.853-1.212c1.175,0,2.219,0.504,2.872,1.436
		c0.54,0.783,0.876,1.902,0.876,3.264C176.357,217.438,175.779,218.873,174.791,219.769z M172.479,211.862
		c-0.988,0-1.977,0.41-2.63,1.23v6.415c0.485,0.224,1.231,0.354,1.865,0.354c2.014,0,3.375-1.323,3.375-4.232
		C175.09,213.336,174.194,211.862,172.479,211.862z"/>
	<path fill="#333333" d="M185.368,218.389c0,0.671,0,1.511,0.037,2.387c-0.131,0.056-0.336,0.093-0.504,0.093
		c-0.148,0-0.354-0.037-0.503-0.093c-0.056-0.299-0.094-0.689-0.112-1.044h-0.019c-0.634,0.783-1.753,1.23-2.853,1.23
		c-1.734,0-3.188-0.97-3.188-2.965c0-1.138,0.466-1.977,1.193-2.499c0.82-0.577,1.901-0.764,3.058-0.764
		c0.653,0,1.193,0.037,1.679,0.111v-0.541c0-1.864-0.765-2.479-2.331-2.479c-0.876,0-1.958,0.187-2.629,0.354
		c-0.037-0.094-0.075-0.299-0.075-0.485c0-0.13,0.038-0.316,0.094-0.429c0.802-0.242,1.864-0.392,2.76-0.392
		c2.219,0,3.394,1.007,3.394,3.282V218.389z M184.156,215.76c-0.541-0.075-1.101-0.112-1.585-0.112
		c-0.914,0-1.734,0.168-2.294,0.597c-0.503,0.373-0.783,0.97-0.783,1.734c0,1.361,0.877,2.014,2.089,2.014
		c1.007,0,2.069-0.484,2.573-1.249V215.76z"/>
	<path fill="#333333" d="M194.433,212.235c-0.597-0.242-1.38-0.392-2.069-0.392c-2.424,0-3.319,1.884-3.319,4.158
		c0,2.237,0.857,3.972,3.301,3.972c0.652,0,1.436-0.112,2.014-0.279c0.037,0.111,0.074,0.242,0.074,0.392
		c0,0.224-0.037,0.391-0.093,0.521c-0.541,0.224-1.417,0.354-2.107,0.354c-3.039,0-4.456-1.995-4.456-4.923
		c0-3.039,1.547-5.165,4.512-5.165c0.709,0,1.548,0.168,2.126,0.429c0.056,0.149,0.074,0.299,0.074,0.467
		C194.488,211.956,194.47,212.104,194.433,212.235z"/>
	<path fill="#333333" d="M202.08,220.683c-0.484,0.167-1.212,0.279-1.752,0.279c-1.847,0-2.723-0.876-2.723-2.946v-6.004h-1.679
		c-0.037-0.094-0.056-0.317-0.056-0.429c0-0.094,0.019-0.317,0.056-0.41l1.679-0.112v-2.536c0.149-0.056,0.392-0.093,0.597-0.093
		s0.466,0.037,0.615,0.093v2.536h2.741c0.037,0.094,0.074,0.373,0.074,0.467c0,0.13-0.037,0.354-0.074,0.484h-2.741v5.893
		c0,1.473,0.429,2.088,1.585,2.088c0.634,0,1.249-0.093,1.678-0.224c0.038,0.093,0.075,0.317,0.075,0.447
		C202.155,220.384,202.137,220.515,202.08,220.683z"/>
</g>
</svg>
