<?xml version="1.0" encoding="utf-8"?>
<!-- Generator: Adobe Illustrator 16.0.0, SVG Export Plug-In . SVG Version: 6.00 Build 0)  -->
<!DOCTYPE svg PUBLIC "-//W3C//DTD SVG 1.1//EN" "http://www.w3.org/Graphics/SVG/1.1/DTD/svg11.dtd">
<svg version="1.1" id="Layer_1" xmlns="http://www.w3.org/2000/svg" xmlns:xlink="http://www.w3.org/1999/xlink" x="0px" y="0px"
	 width="300px" height="300px" viewBox="0 0 300 300" enable-background="new 0 0 300 300" xml:space="preserve">
<path fill="#333333" d="M30.572,31.791l-5.95-2.679l-6.062,2.679l0.876-6.258l-4.491-4.629l6.538-1.16l3.101-5.606l3.212,5.57
	l6.461,1.159l-4.49,4.559L30.572,31.791z M24.163,6.956c-9.093,0-16.462,7.303-16.462,16.313s7.369,16.313,16.462,16.313
	c9.091,0,16.462-7.303,16.462-16.313S33.253,6.956,24.163,6.956"/>
<path fill="#333333" d="M77.88,31.791l-5.95-2.679l-6.06,2.679l0.875-6.258l-4.49-4.629l6.535-1.16l3.105-5.606l3.21,5.57
	l6.459,1.159l-4.488,4.559L77.88,31.791z M71.471,6.956c-9.091,0-16.462,7.303-16.462,16.313s7.372,16.313,16.462,16.313
	s16.464-7.303,16.464-16.313S80.562,6.956,71.471,6.956"/>
<path fill="#333333" d="M172.684,31.791l-5.953-2.679l-6.06,2.679l0.875-6.258l-4.491-4.629l6.54-1.16l3.101-5.606l3.212,5.57
	l6.459,1.159l-4.488,4.559L172.684,31.791z M166.275,6.956c-9.095,0-16.468,7.303-16.468,16.313s7.372,16.313,16.468,16.313
	c9.089,0,16.463-7.303,16.463-16.313S175.366,6.956,166.275,6.956"/>
<path fill="#333333" d="M125.213,31.791l-5.948-2.679l-6.058,2.679l0.875-6.258l-4.491-4.629l6.535-1.16l3.103-5.606l3.212,5.57
	l6.459,1.159l-4.486,4.559L125.213,31.791z M118.809,6.956c-9.091,0-16.462,7.303-16.462,16.313s7.372,16.313,16.462,16.313
	s16.46-7.303,16.46-16.313S127.899,6.956,118.809,6.956"/>
<path fill="#333333" d="M220.159,31.791l-5.952-2.679l-6.062,2.679l0.874-6.258l-4.488-4.629l6.537-1.16l3.101-5.606l3.211,5.57
	l6.461,1.159l-4.488,4.559L220.159,31.791z M213.75,6.956c-9.093,0-16.465,7.303-16.465,16.313s7.369,16.313,16.465,16.313
	c9.089,0,16.46-7.303,16.46-16.313S222.841,6.956,213.75,6.956"/>
<g>
	<path fill="#59A6AE" d="M8.015,52.294c0.475-0.079,1.03-0.132,1.558-0.132c0.607,0,1.135,0.053,1.637,0.132V63.83
		c0,2.481,0.739,4.039,3.326,4.039s3.353-1.558,3.353-4.039V52.294c0.449-0.079,1.003-0.132,1.531-0.132s1.109,0.053,1.558,0.132
		v11.192c0,4.593-1.637,6.917-6.441,6.917c-4.831,0-6.521-2.323-6.521-6.917V52.294z"/>
	<path fill="#59A6AE" d="M27.577,70.139c-0.449,0.079-1.135,0.132-1.583,0.132c-0.502,0-1.056-0.053-1.479-0.132V50.868
		c0.501-0.079,1.056-0.105,1.505-0.105c0.528,0,1.108,0.026,1.557,0.105V70.139z"/>
	<path fill="#59A6AE" d="M34.784,70.403c-1.61,0-3.142-0.291-4.276-0.607c-0.079-0.37-0.105-0.739-0.105-1.108
		c0-0.396,0.053-0.872,0.158-1.241c1.082,0.396,2.666,0.66,3.828,0.66c1.531,0,2.719-0.501,2.719-1.874
		c0-1.162-0.871-1.558-2.771-2.165c-2.851-0.924-3.959-2.112-3.959-4.039c0-2.692,2.587-3.907,5.147-3.907
		c1.003,0,2.455,0.185,3.273,0.449c0.106,0.317,0.159,0.687,0.159,1.029c0,0.396-0.079,0.871-0.185,1.241
		c-1.003-0.264-2.006-0.422-3.088-0.422c-1.505,0-2.402,0.449-2.402,1.452c0,1.029,1.109,1.399,2.719,1.979
		c2.323,0.818,3.88,1.558,3.88,4.197C39.879,68.845,37.556,70.403,34.784,70.403z"/>
	<path fill="#59A6AE" d="M43.1,58.629h-2.244c-0.106-0.343-0.159-0.66-0.159-1.03s0.053-0.686,0.159-1.029l2.244-0.158v-3.564
		c0.343-0.079,1.029-0.185,1.531-0.185c0.528,0,1.162,0.105,1.531,0.185v3.537h3.907c0.106,0.343,0.159,0.739,0.159,1.109
		s-0.053,0.739-0.159,1.135h-3.907v6.995c0,0.634,0.079,1.32,0.396,1.742c0.264,0.37,0.766,0.607,1.558,0.607
		c0.607,0,1.557-0.132,2.244-0.343c0.105,0.475,0.158,0.977,0.158,1.425c0,0.317-0.026,0.581-0.053,0.792
		c-0.633,0.317-1.848,0.555-3.115,0.555c-3.088,0-4.25-1.452-4.25-4.25V58.629z"/>
	<path fill="#59A6AE" d="M63.322,64.278h-8.553c0.053,2.376,1.61,3.775,4.012,3.775c1.214,0,2.323-0.158,3.511-0.449
		c0.132,0.687,0.185,1.399,0.185,2.191c-1.399,0.475-2.666,0.607-4.118,0.607c-4.487,0-6.811-2.825-6.811-7.075
		c0-3.854,2.244-7.207,6.388-7.207c3.854,0,5.438,3.009,5.438,6.731C63.375,63.565,63.348,63.961,63.322,64.278z M60.312,61.956
		c0-1.663-0.343-3.458-2.455-3.458c-1.979,0-2.93,1.61-3.088,3.458H60.312z"/>
	<path fill="#59A6AE" d="M73.591,58.708c-1.32,0.158-3.009,0.713-4.303,1.452v9.979c-0.396,0.105-1.003,0.132-1.531,0.132
		c-0.528,0-1.188-0.053-1.531-0.132V56.385c0.343-0.053,0.845-0.132,1.267-0.132c0.396,0,0.924,0.053,1.267,0.132l0.211,1.689h0.08
		c1.108-1.029,2.957-1.848,4.514-1.953c0.053,0.237,0.106,0.739,0.106,1.267C73.671,57.758,73.645,58.339,73.591,58.708z"/>
	<path fill="#59A6AE" d="M83.888,54.353c-0.977,0-1.743-0.766-1.743-1.743c0-0.977,0.766-1.742,1.743-1.742
		c0.977,0,1.742,0.766,1.742,1.742C85.63,53.587,84.865,54.353,83.888,54.353z M85.445,70.139c-0.449,0.105-1.135,0.132-1.557,0.132
		c-0.502,0-1.056-0.053-1.479-0.132V56.385c0.475-0.079,1.03-0.132,1.479-0.132c0.528,0,1.082,0.053,1.557,0.132V70.139z"/>
	<path fill="#59A6AE" d="M92.652,70.403c-1.61,0-3.142-0.291-4.276-0.607c-0.079-0.37-0.105-0.739-0.105-1.108
		c0-0.396,0.053-0.872,0.158-1.241c1.082,0.396,2.666,0.66,3.828,0.66c1.531,0,2.719-0.501,2.719-1.874
		c0-1.162-0.871-1.558-2.771-2.165c-2.851-0.924-3.959-2.112-3.959-4.039c0-2.692,2.587-3.907,5.147-3.907
		c1.003,0,2.455,0.185,3.273,0.449c0.106,0.317,0.159,0.687,0.159,1.029c0,0.396-0.079,0.871-0.185,1.241
		c-1.003-0.264-2.006-0.422-3.088-0.422c-1.505,0-2.402,0.449-2.402,1.452c0,1.029,1.109,1.399,2.719,1.979
		c2.323,0.818,3.88,1.558,3.88,4.197C97.747,68.845,95.424,70.403,92.652,70.403z"/>
	<path fill="#59A6AE" d="M111.95,70.403c-3.854,0-6.309-2.508-6.309-7.101s2.455-7.18,6.309-7.18s6.309,2.561,6.309,7.154
		S115.804,70.403,111.95,70.403z M111.95,58.471c-2.033,0-3.167,1.347-3.167,4.805s1.135,4.778,3.167,4.778s3.168-1.32,3.168-4.778
		S113.983,58.471,111.95,58.471z"/>
	<path fill="#59A6AE" d="M132.462,70.139c-0.396,0.105-1.029,0.132-1.452,0.132c-0.449,0-1.162-0.053-1.584-0.132v-8.157
		c0-1.109-0.105-2.006-0.581-2.561c-0.396-0.449-1.03-0.66-1.795-0.66c-1.109,0-2.271,0.449-3.089,1.03v10.348
		c-0.528,0.079-1.188,0.132-1.637,0.132c-0.422,0-0.977-0.026-1.425-0.132V56.385c0.343-0.079,0.924-0.132,1.293-0.132
		c0.343,0,0.897,0.053,1.241,0.132l0.185,1.241c1.083-0.818,2.825-1.504,4.435-1.504c3.194,0,4.408,2.138,4.408,5.279V70.139z"/>
	<path fill="#59A6AE" d="M146.824,64.278h-8.553c0.053,2.376,1.61,3.775,4.012,3.775c1.214,0,2.323-0.158,3.511-0.449
		c0.132,0.687,0.185,1.399,0.185,2.191c-1.399,0.475-2.666,0.607-4.118,0.607c-4.487,0-6.811-2.825-6.811-7.075
		c0-3.854,2.244-7.207,6.388-7.207c3.854,0,5.438,3.009,5.438,6.731C146.877,63.565,146.851,63.961,146.824,64.278z M143.815,61.956
		c0-1.663-0.343-3.458-2.455-3.458c-1.98,0-2.93,1.61-3.088,3.458H143.815z"/>
	<path fill="#59A6AE" d="M161.239,70.403c-3.854,0-6.31-2.508-6.31-7.101s2.455-7.18,6.31-7.18c3.854,0,6.309,2.561,6.309,7.154
		S165.093,70.403,161.239,70.403z M161.239,58.471c-2.033,0-3.168,1.347-3.168,4.805s1.135,4.778,3.168,4.778
		c2.032,0,3.167-1.32,3.167-4.778S163.271,58.471,161.239,58.471z"/>
	<path fill="#59A6AE" d="M178.61,53.086c-0.687-0.238-1.347-0.343-1.954-0.343c-1.029,0-1.795,0.37-2.243,1.162
		c-0.265,0.475-0.344,1.056-0.344,2.006v0.475h3.432c0.132,0.317,0.186,0.818,0.186,1.083c0,0.291-0.054,0.792-0.159,1.162h-3.458
		v11.509c-0.369,0.079-1.029,0.132-1.505,0.132c-0.422,0-1.135-0.053-1.53-0.132V58.629h-2.191
		c-0.105-0.291-0.158-0.766-0.158-1.056c0-0.316,0.053-0.792,0.158-1.029l2.191-0.132v-0.37c0-1.769,0.343-3.036,1.188-4.013
		c0.871-0.977,2.297-1.478,3.749-1.478c0.897,0,1.9,0.185,2.719,0.475c0.079,0.29,0.105,0.633,0.105,1.003
		C178.795,52.347,178.742,52.743,178.61,53.086z"/>
	<path fill="#59A6AE" d="M187.877,58.629h-2.243c-0.105-0.343-0.158-0.66-0.158-1.03s0.053-0.686,0.158-1.029l2.243-0.158v-3.564
		c0.344-0.079,1.03-0.185,1.531-0.185c0.528,0,1.162,0.105,1.531,0.185v3.537h3.907c0.105,0.343,0.158,0.739,0.158,1.109
		s-0.053,0.739-0.158,1.135h-3.907v6.995c0,0.634,0.079,1.32,0.396,1.742c0.264,0.37,0.765,0.607,1.557,0.607
		c0.607,0,1.558-0.132,2.244-0.343c0.105,0.475,0.158,0.977,0.158,1.425c0,0.317-0.026,0.581-0.053,0.792
		c-0.634,0.317-1.848,0.555-3.115,0.555c-3.088,0-4.25-1.452-4.25-4.25V58.629z"/>
	<path fill="#59A6AE" d="M209.551,61.401v8.738c-0.396,0.105-1.03,0.132-1.452,0.132c-0.449,0-1.161-0.053-1.584-0.132v-8.157
		c0-1.109-0.105-2.006-0.581-2.561c-0.396-0.449-1.029-0.66-1.795-0.66c-1.108,0-2.27,0.449-3.088,1.03v10.348
		c-0.528,0.079-1.188,0.132-1.637,0.132c-0.423,0-0.977-0.026-1.426-0.132V50.868c0.369-0.079,0.977-0.105,1.505-0.105
		c0.527,0,1.161,0.026,1.558,0.105v6.547c1.003-0.687,2.64-1.293,4.091-1.293C208.336,56.122,209.551,58.26,209.551,61.401z"/>
	<path fill="#59A6AE" d="M223.912,64.278h-8.553c0.053,2.376,1.61,3.775,4.013,3.775c1.214,0,2.322-0.158,3.511-0.449
		c0.132,0.687,0.185,1.399,0.185,2.191c-1.399,0.475-2.666,0.607-4.118,0.607c-4.487,0-6.811-2.825-6.811-7.075
		c0-3.854,2.244-7.207,6.389-7.207c3.854,0,5.438,3.009,5.438,6.731C223.965,63.565,223.938,63.961,223.912,64.278z M220.902,61.956
		c0-1.663-0.343-3.458-2.454-3.458c-1.98,0-2.931,1.61-3.089,3.458H220.902z"/>
</g>
<g>
	<path fill="#333333" d="M12.009,201.832c-0.475,0-0.868-0.413-0.868-0.909s0.393-0.889,0.868-0.889
		c0.476,0,0.889,0.393,0.889,0.889S12.484,201.832,12.009,201.832z M12.691,214.703c-0.186,0.062-0.455,0.104-0.682,0.104
		c-0.227,0-0.475-0.042-0.661-0.104v-10.764c0.166-0.042,0.434-0.104,0.641-0.104c0.228,0,0.537,0.041,0.703,0.104V214.703z"/>
	<path fill="#333333" d="M23.662,214.724c-0.165,0.041-0.413,0.083-0.661,0.083c-0.207,0-0.475-0.042-0.682-0.104v-6.55
		c0-0.991-0.124-1.756-0.413-2.293c-0.352-0.661-1.013-0.991-2.087-0.991c-1.033,0-2.272,0.578-3.078,1.198v8.636
		c-0.228,0.062-0.455,0.104-0.703,0.104c-0.207,0-0.455-0.042-0.641-0.104v-10.764c0.145-0.062,0.393-0.083,0.537-0.083
		c0.207,0,0.455,0.021,0.579,0.083l0.104,1.074h0.021c1.136-0.93,2.438-1.281,3.492-1.281s2.148,0.352,2.748,1.074
		c0.661,0.785,0.785,1.922,0.785,3.037V214.724z"/>
	<path fill="#333333" d="M36.306,214.6c-0.537,0.187-1.343,0.311-1.942,0.311c-2.045,0-3.016-0.972-3.016-3.265v-6.652h-1.859
		c-0.042-0.104-0.062-0.352-0.062-0.476c0-0.104,0.021-0.352,0.062-0.454l1.859-0.124v-2.811c0.165-0.062,0.434-0.103,0.661-0.103
		c0.227,0,0.517,0.041,0.682,0.103v2.811h3.037c0.042,0.103,0.083,0.413,0.083,0.517c0,0.145-0.041,0.392-0.083,0.537H32.69v6.528
		c0,1.632,0.475,2.313,1.756,2.313c0.702,0,1.384-0.103,1.859-0.247c0.041,0.103,0.083,0.351,0.083,0.495
		C36.389,214.27,36.368,214.414,36.306,214.6z"/>
	<path fill="#333333" d="M46.368,214.703c-0.186,0.062-0.413,0.104-0.62,0.104c-0.248,0-0.517-0.042-0.723-0.104v-6.528
		c0-2.273-0.579-3.306-2.5-3.306c-1.033,0-2.272,0.578-3.078,1.198v8.636c-0.228,0.062-0.476,0.104-0.703,0.104
		c-0.207,0-0.455-0.042-0.641-0.104v-15.082c0.186-0.062,0.475-0.104,0.661-0.104s0.496,0.041,0.682,0.104v5.31
		c1.095-0.847,2.396-1.198,3.409-1.198c1.054,0,2.128,0.352,2.727,1.074c0.661,0.785,0.785,1.922,0.785,3.037V214.703z"/>
	<path fill="#333333" d="M56.615,209.683h-6.921c0.083,2.376,1.198,4.174,3.781,4.174c0.93,0,1.797-0.124,2.562-0.311
		c0.041,0.104,0.083,0.311,0.083,0.435c0,0.206-0.042,0.392-0.104,0.537c-0.806,0.247-1.818,0.393-2.665,0.393
		c-1.632,0-2.872-0.517-3.636-1.344c-0.909-0.991-1.384-2.479-1.384-4.193c0-2.996,1.508-5.641,4.525-5.641
		c2.707,0,3.781,2.231,3.781,4.959C56.636,209.001,56.636,209.373,56.615,209.683z M55.293,208.691c0-1.901-0.207-3.946-2.5-3.946
		c-2.004,0-2.975,1.839-3.099,3.946H55.293z"/>
	<path fill="#333333" d="M64.715,209.931c0,1.363,0.227,2.396,0.826,3.058c0.517,0.558,1.302,0.889,2.479,0.889
		c1.177,0,1.983-0.331,2.5-0.889c0.599-0.661,0.827-1.694,0.827-3.058v-9.194c0.186-0.062,0.517-0.103,0.702-0.103
		c0.207,0,0.517,0.041,0.703,0.103v8.987c0,1.839-0.351,3.12-1.219,3.988c-0.765,0.764-1.921,1.198-3.512,1.198
		s-2.728-0.435-3.492-1.198c-0.868-0.868-1.219-2.149-1.219-3.988v-8.987c0.166-0.062,0.455-0.103,0.703-0.103
		s0.496,0.041,0.703,0.103V209.931z"/>
	<path fill="#333333" d="M85.127,214.703c-0.166,0.062-0.496,0.104-0.744,0.104c-0.248,0-0.537-0.021-0.888-0.104l-4.607-6.859
		l-1.487,1.674v5.186c-0.166,0.062-0.496,0.104-0.723,0.104c-0.228,0-0.517-0.042-0.682-0.104v-13.967
		c0.165-0.062,0.454-0.103,0.682-0.103c0.227,0,0.558,0.041,0.723,0.103v7.004l4.4-5.041c0.62-0.702,0.951-1.384,1.054-1.963
		c0.186-0.021,0.455-0.062,0.661-0.062s0.537,0.041,0.682,0.062c-0.042,0.661-0.455,1.55-1.302,2.521l-3.099,3.574L85.127,214.703z"
		/>
	<path fill="#333333" d="M97.048,200.51c-0.31-0.083-0.868-0.166-1.301-0.166c-0.785,0-1.364,0.207-1.756,0.641
		c-0.599,0.641-0.702,1.509-0.702,2.604v0.352h2.913c0.041,0.103,0.083,0.351,0.083,0.495c0,0.166-0.042,0.413-0.083,0.559h-2.913
		v9.71c-0.186,0.062-0.393,0.104-0.661,0.104s-0.496-0.042-0.682-0.104v-9.71h-1.859c-0.042-0.104-0.062-0.372-0.062-0.496
		c0-0.104,0.021-0.331,0.062-0.434l1.859-0.124v-0.352c0-1.467,0.248-2.479,1.095-3.326c0.599-0.6,1.487-0.889,2.5-0.889
		c0.537,0,1.136,0.124,1.508,0.269c0.042,0.104,0.062,0.248,0.062,0.393C97.11,200.158,97.089,200.406,97.048,200.51z"/>
	<path fill="#333333" d="M101.284,214.91c-2.707,0-4.442-1.86-4.442-5.579s1.756-5.599,4.463-5.599s4.421,1.839,4.421,5.558
		S103.99,214.91,101.284,214.91z M101.305,204.745c-1.983,0-3.058,1.528-3.058,4.565s1.054,4.587,3.037,4.587
		s3.037-1.55,3.037-4.587S103.288,204.745,101.305,204.745z"/>
	<path fill="#333333" d="M112.544,204.931c-1.198,0.165-2.5,0.6-3.471,1.343v8.43c-0.207,0.062-0.455,0.104-0.682,0.104
		c-0.227,0-0.455-0.042-0.661-0.104v-10.764c0.124-0.042,0.31-0.083,0.517-0.083c0.166,0,0.393,0.041,0.558,0.083l0.103,1.322h0.021
		c0.889-0.765,2.438-1.405,3.616-1.529c0.042,0.124,0.083,0.352,0.083,0.537C112.626,204.477,112.585,204.745,112.544,204.931z"/>
	<path fill="#333333" d="M131.325,206.067l-2.769,8.636c-0.166,0.062-0.475,0.104-0.641,0.104c-0.186,0-0.496-0.042-0.641-0.104
		l-2.479-8.347h-0.042l-2.603,8.347c-0.186,0.062-0.475,0.104-0.641,0.104c-0.165,0-0.434-0.042-0.62-0.104l-2.562-8.512
		c-0.227-0.703-0.331-1.509-0.351-2.273c0.165-0.041,0.496-0.082,0.702-0.082c0.228,0,0.434,0.041,0.62,0.104
		c0.021,0.743,0.145,1.528,0.331,2.21l1.88,6.715h0.021l2.686-8.946c0.145-0.041,0.434-0.062,0.579-0.062s0.455,0.021,0.579,0.062
		l2.541,8.946h0.021l2.066-6.694c0.227-0.764,0.393-1.487,0.434-2.23c0.145-0.062,0.496-0.104,0.682-0.104
		c0.186,0,0.475,0.041,0.599,0.104C131.717,204.642,131.552,205.344,131.325,206.067z"/>
	<path fill="#333333" d="M137.233,214.91c-2.707,0-4.442-1.86-4.442-5.579s1.756-5.599,4.463-5.599s4.421,1.839,4.421,5.558
		S139.94,214.91,137.233,214.91z M137.254,204.745c-1.983,0-3.058,1.528-3.058,4.565s1.054,4.587,3.037,4.587
		s3.037-1.55,3.037-4.587S139.238,204.745,137.254,204.745z"/>
	<path fill="#333333" d="M148.515,204.931c-1.198,0.165-2.5,0.6-3.471,1.343v8.43c-0.207,0.062-0.455,0.104-0.682,0.104
		c-0.227,0-0.455-0.042-0.661-0.104v-10.764c0.124-0.042,0.31-0.083,0.517-0.083c0.166,0,0.393,0.041,0.558,0.083l0.103,1.322h0.021
		c0.889-0.765,2.438-1.405,3.616-1.529c0.042,0.124,0.083,0.352,0.083,0.537C148.597,204.477,148.556,204.745,148.515,204.931z"/>
	<path fill="#333333" d="M151.779,214.703c-0.228,0.062-0.455,0.104-0.703,0.104c-0.207,0-0.454-0.042-0.64-0.104v-15.082
		c0.186-0.041,0.413-0.104,0.682-0.104c0.227,0,0.475,0.041,0.661,0.104V214.703z"/>
	<path fill="#333333" d="M161.861,214.807c-0.187,0-0.413-0.062-0.537-0.104l-0.124-1.239h-0.021
		c-0.889,0.93-1.942,1.446-3.12,1.446c-2.852,0-4.215-2.376-4.215-5.269c0-2.872,1.219-5.909,4.504-5.909
		c1.033,0,1.983,0.352,2.748,0.889v-5c0.186-0.062,0.434-0.104,0.661-0.104c0.248,0,0.496,0.062,0.682,0.104v15.082
		C162.295,214.765,162.088,214.807,161.861,214.807z M161.097,205.757c-0.744-0.619-1.694-0.93-2.665-0.93
		c-2.396,0-3.202,2.355-3.202,4.752c0,1.839,0.578,4.235,2.892,4.235c1.116,0,2.252-0.558,2.976-1.425V205.757z"/>
	<path fill="#333333" d="M168.598,208.773c0.041,0.104,0.103,0.372,0.103,0.537s-0.041,0.393-0.103,0.558h-4.029
		c-0.062-0.165-0.104-0.393-0.104-0.558s0.062-0.434,0.104-0.537H168.598z"/>
	<path fill="#333333" d="M172.13,214.703c-0.228,0.062-0.454,0.104-0.702,0.104c-0.207,0-0.455-0.042-0.641-0.104v-15.082
		c0.186-0.041,0.413-0.104,0.682-0.104c0.228,0,0.476,0.041,0.661,0.104V214.703z"/>
	<path fill="#333333" d="M182.48,209.683h-6.922c0.083,2.376,1.198,4.174,3.781,4.174c0.93,0,1.798-0.124,2.562-0.311
		c0.042,0.104,0.083,0.311,0.083,0.435c0,0.206-0.041,0.392-0.104,0.537c-0.806,0.247-1.818,0.393-2.665,0.393
		c-1.632,0-2.872-0.517-3.636-1.344c-0.909-0.991-1.385-2.479-1.385-4.193c0-2.996,1.508-5.641,4.524-5.641
		c2.707,0,3.781,2.231,3.781,4.959C182.501,209.001,182.501,209.373,182.48,209.683z M181.158,208.691
		c0-1.901-0.207-3.946-2.5-3.946c-2.004,0-2.976,1.839-3.1,3.946H181.158z"/>
	<path fill="#333333" d="M191.901,212.059c0,0.744,0,1.674,0.042,2.645c-0.146,0.062-0.372,0.104-0.559,0.104
		c-0.165,0-0.393-0.042-0.558-0.104c-0.062-0.331-0.104-0.765-0.124-1.157h-0.021c-0.702,0.868-1.942,1.364-3.161,1.364
		c-1.921,0-3.533-1.075-3.533-3.285c0-1.261,0.517-2.19,1.322-2.769c0.909-0.641,2.107-0.848,3.389-0.848
		c0.723,0,1.322,0.042,1.859,0.124v-0.599c0-2.066-0.847-2.748-2.582-2.748c-0.972,0-2.17,0.207-2.913,0.393
		c-0.042-0.104-0.083-0.331-0.083-0.537c0-0.145,0.041-0.352,0.104-0.476c0.888-0.269,2.065-0.434,3.058-0.434
		c2.458,0,3.76,1.115,3.76,3.637V212.059z M190.559,209.146c-0.599-0.083-1.219-0.124-1.756-0.124c-1.013,0-1.922,0.186-2.541,0.661
		c-0.559,0.413-0.868,1.074-0.868,1.922c0,1.508,0.971,2.23,2.314,2.23c1.115,0,2.293-0.537,2.851-1.384V209.146z"/>
	<path fill="#333333" d="M201.984,214.807c-0.187,0-0.413-0.062-0.537-0.104l-0.124-1.239h-0.021
		c-0.889,0.93-1.942,1.446-3.12,1.446c-2.852,0-4.215-2.376-4.215-5.269c0-2.872,1.219-5.909,4.504-5.909
		c1.033,0,1.983,0.352,2.748,0.889v-5c0.186-0.062,0.434-0.104,0.661-0.104c0.248,0,0.496,0.062,0.682,0.104v15.082
		C202.418,214.765,202.211,214.807,201.984,214.807z M201.22,205.757c-0.744-0.619-1.694-0.93-2.665-0.93
		c-2.396,0-3.202,2.355-3.202,4.752c0,1.839,0.578,4.235,2.892,4.235c1.116,0,2.252-0.558,2.976-1.425V205.757z"/>
	<path fill="#333333" d="M206.529,201.832c-0.475,0-0.867-0.413-0.867-0.909s0.393-0.889,0.867-0.889
		c0.476,0,0.889,0.393,0.889,0.889S207.005,201.832,206.529,201.832z M207.211,214.703c-0.186,0.062-0.454,0.104-0.682,0.104
		c-0.227,0-0.475-0.042-0.661-0.104v-10.764c0.165-0.042,0.435-0.104,0.641-0.104c0.228,0,0.537,0.041,0.702,0.104V214.703z"/>
	<path fill="#333333" d="M218.183,214.724c-0.165,0.041-0.413,0.083-0.661,0.083c-0.206,0-0.475-0.042-0.682-0.104v-6.55
		c0-0.991-0.124-1.756-0.413-2.293c-0.352-0.661-1.013-0.991-2.087-0.991c-1.033,0-2.272,0.578-3.078,1.198v8.636
		c-0.228,0.062-0.455,0.104-0.703,0.104c-0.206,0-0.454-0.042-0.64-0.104v-10.764c0.145-0.062,0.393-0.083,0.537-0.083
		c0.206,0,0.454,0.021,0.578,0.083l0.104,1.074h0.021c1.137-0.93,2.438-1.281,3.491-1.281s2.149,0.352,2.748,1.074
		c0.661,0.785,0.785,1.922,0.785,3.037V214.724z"/>
	<path fill="#333333" d="M228.534,212.905c0,1.55-0.083,3.409-0.827,4.69c-0.888,1.528-2.479,2.189-4.07,2.189
		c-0.908,0-1.693-0.103-2.354-0.33c-0.062-0.124-0.083-0.331-0.083-0.496c0-0.124,0.041-0.372,0.083-0.496
		c0.641,0.166,1.384,0.29,2.128,0.29c2.603,0,3.78-1.612,3.78-4.442v-0.868c-0.806,0.848-1.941,1.261-2.871,1.261
		c-2.748,0-4.174-2.128-4.174-5.124c0-3.678,2.169-5.847,5.372-5.847c0.847,0,2.128,0.248,3.017,0.6V212.905z M227.19,204.993
		c-0.743-0.207-1.28-0.269-1.797-0.269c-2.624,0-3.863,2.21-3.863,4.793c0,2.293,0.867,4.091,2.892,4.091
		c1.033,0,2.087-0.517,2.769-1.24V204.993z"/>
</g>
<g>
	<path fill="#333333" d="M16.079,230.179c-1.198,0.165-2.5,0.6-3.471,1.343v8.43c-0.207,0.062-0.455,0.104-0.682,0.104
		c-0.227,0-0.455-0.042-0.661-0.104v-10.764c0.124-0.042,0.31-0.083,0.517-0.083c0.166,0,0.393,0.041,0.558,0.083l0.103,1.322h0.021
		c0.889-0.765,2.438-1.405,3.616-1.529c0.042,0.124,0.083,0.352,0.083,0.537C16.162,229.725,16.121,229.993,16.079,230.179z"/>
	<path fill="#333333" d="M25.129,234.931h-6.921c0.083,2.376,1.198,4.174,3.781,4.174c0.93,0,1.797-0.124,2.562-0.311
		c0.041,0.104,0.083,0.311,0.083,0.435c0,0.206-0.042,0.392-0.104,0.537c-0.806,0.247-1.818,0.393-2.665,0.393
		c-1.632,0-2.872-0.517-3.636-1.344c-0.909-0.991-1.384-2.479-1.384-4.193c0-2.996,1.508-5.641,4.525-5.641
		c2.707,0,3.781,2.231,3.781,4.959C25.149,234.249,25.149,234.621,25.129,234.931z M23.807,233.939c0-1.901-0.207-3.946-2.5-3.946
		c-2.004,0-2.975,1.839-3.099,3.946H23.807z"/>
	<path fill="#333333" d="M29.592,240.158c-1.033,0-2.107-0.187-2.852-0.476c-0.062-0.145-0.103-0.393-0.103-0.578
		c0-0.124,0.041-0.435,0.083-0.559c0.765,0.311,1.859,0.559,2.769,0.559c1.57,0,2.541-0.661,2.541-1.963
		c0-1.178-0.599-1.591-2.231-2.19c-2.273-0.826-3.017-1.776-3.017-3.182c0-1.9,1.57-2.789,3.595-2.789
		c0.682,0,1.57,0.124,2.087,0.289c0.062,0.187,0.083,0.372,0.083,0.496c0,0.165-0.041,0.454-0.083,0.599
		c-0.682-0.206-1.405-0.33-2.107-0.33c-1.467,0-2.355,0.558-2.355,1.694c0,0.991,0.558,1.467,2.252,2.107
		c1.549,0.578,2.975,1.157,2.975,3.243C33.228,239.187,31.637,240.158,29.592,240.158z"/>
	<path fill="#333333" d="M42.897,234.931h-6.921c0.083,2.376,1.198,4.174,3.781,4.174c0.93,0,1.797-0.124,2.562-0.311
		c0.041,0.104,0.083,0.311,0.083,0.435c0,0.206-0.042,0.392-0.104,0.537c-0.806,0.247-1.818,0.393-2.665,0.393
		c-1.632,0-2.872-0.517-3.636-1.344c-0.909-0.991-1.384-2.479-1.384-4.193c0-2.996,1.508-5.641,4.525-5.641
		c2.707,0,3.781,2.231,3.781,4.959C42.918,234.249,42.918,234.621,42.897,234.931z M41.575,233.939c0-1.901-0.207-3.946-2.5-3.946
		c-2.004,0-2.975,1.839-3.099,3.946H41.575z"/>
	<path fill="#333333" d="M52.339,237.307c0,0.744,0,1.674,0.042,2.645c-0.145,0.062-0.372,0.104-0.558,0.104
		c-0.166,0-0.393-0.042-0.558-0.104c-0.062-0.331-0.103-0.765-0.124-1.157H51.12c-0.703,0.868-1.942,1.364-3.161,1.364
		c-1.921,0-3.533-1.075-3.533-3.285c0-1.261,0.517-2.19,1.322-2.769c0.909-0.641,2.107-0.848,3.388-0.848
		c0.723,0,1.322,0.042,1.859,0.124v-0.599c0-2.066-0.847-2.748-2.583-2.748c-0.971,0-2.169,0.207-2.913,0.393
		c-0.042-0.104-0.083-0.331-0.083-0.537c0-0.145,0.041-0.352,0.103-0.476c0.889-0.269,2.066-0.434,3.058-0.434
		c2.458,0,3.76,1.115,3.76,3.637V237.307z M50.996,234.394c-0.599-0.083-1.219-0.124-1.756-0.124c-1.013,0-1.921,0.186-2.542,0.661
		c-0.558,0.413-0.868,1.074-0.868,1.922c0,1.508,0.971,2.23,2.314,2.23c1.116,0,2.293-0.537,2.851-1.384V234.394z"/>
	<path fill="#333333" d="M59.818,230.179c-1.198,0.165-2.5,0.6-3.471,1.343v8.43c-0.207,0.062-0.455,0.104-0.682,0.104
		c-0.227,0-0.455-0.042-0.661-0.104v-10.764c0.124-0.042,0.31-0.083,0.517-0.083c0.166,0,0.393,0.041,0.558,0.083l0.103,1.322h0.021
		c0.889-0.765,2.438-1.405,3.616-1.529c0.042,0.124,0.083,0.352,0.083,0.537C59.901,229.725,59.86,229.993,59.818,230.179z"/>
	<path fill="#333333" d="M67.959,230.488c-0.661-0.269-1.529-0.434-2.293-0.434c-2.686,0-3.678,2.087-3.678,4.607
		c0,2.479,0.951,4.4,3.657,4.4c0.723,0,1.591-0.124,2.231-0.31c0.042,0.124,0.083,0.269,0.083,0.434
		c0,0.248-0.042,0.434-0.104,0.579c-0.599,0.247-1.57,0.393-2.334,0.393c-3.368,0-4.938-2.211-4.938-5.455
		c0-3.367,1.715-5.723,5-5.723c0.785,0,1.715,0.186,2.355,0.476c0.062,0.165,0.083,0.33,0.083,0.517
		C68.021,230.179,68,230.344,67.959,230.488z"/>
	<path fill="#333333" d="M78.227,239.951c-0.186,0.062-0.413,0.104-0.62,0.104c-0.248,0-0.517-0.042-0.723-0.104v-6.528
		c0-2.273-0.579-3.306-2.5-3.306c-1.033,0-2.272,0.578-3.078,1.198v8.636c-0.228,0.062-0.476,0.104-0.703,0.104
		c-0.207,0-0.455-0.042-0.641-0.104v-15.082c0.186-0.062,0.475-0.104,0.661-0.104s0.496,0.041,0.682,0.104v5.31
		c1.095-0.847,2.396-1.198,3.409-1.198c1.054,0,2.128,0.352,2.727,1.074c0.661,0.785,0.785,1.922,0.785,3.037V239.951z"/>
	<path fill="#333333" d="M85.893,227.08c-0.476,0-0.868-0.413-0.868-0.909s0.393-0.889,0.868-0.889c0.475,0,0.888,0.393,0.888,0.889
		S86.368,227.08,85.893,227.08z M86.574,239.951c-0.186,0.062-0.455,0.104-0.682,0.104c-0.228,0-0.476-0.042-0.661-0.104v-10.764
		c0.165-0.042,0.434-0.104,0.64-0.104c0.228,0,0.537,0.041,0.703,0.104V239.951z"/>
	<path fill="#333333" d="M97.524,239.972c-0.165,0.041-0.413,0.083-0.661,0.083c-0.207,0-0.475-0.042-0.682-0.104v-6.55
		c0-0.991-0.124-1.756-0.413-2.293c-0.352-0.661-1.013-0.991-2.087-0.991c-1.033,0-2.272,0.578-3.078,1.198v8.636
		c-0.228,0.062-0.455,0.104-0.703,0.104c-0.207,0-0.455-0.042-0.641-0.104v-10.764c0.145-0.062,0.393-0.083,0.537-0.083
		c0.207,0,0.455,0.021,0.579,0.083l0.104,1.074H90.5c1.136-0.93,2.438-1.281,3.492-1.281s2.148,0.352,2.748,1.074
		c0.661,0.785,0.785,1.922,0.785,3.037V239.972z"/>
	<path fill="#333333" d="M111.801,237.307c0,0.744,0,1.674,0.041,2.645c-0.145,0.062-0.372,0.104-0.558,0.104
		c-0.166,0-0.393-0.042-0.558-0.104c-0.062-0.331-0.103-0.765-0.124-1.157h-0.021c-0.703,0.868-1.942,1.364-3.161,1.364
		c-1.921,0-3.533-1.075-3.533-3.285c0-1.261,0.517-2.19,1.322-2.769c0.909-0.641,2.107-0.848,3.388-0.848
		c0.723,0,1.322,0.042,1.859,0.124v-0.599c0-2.066-0.847-2.748-2.583-2.748c-0.971,0-2.169,0.207-2.913,0.393
		c-0.042-0.104-0.083-0.331-0.083-0.537c0-0.145,0.041-0.352,0.103-0.476c0.889-0.269,2.066-0.434,3.058-0.434
		c2.458,0,3.76,1.115,3.76,3.637V237.307z M110.458,234.394c-0.599-0.083-1.219-0.124-1.756-0.124c-1.013,0-1.921,0.186-2.542,0.661
		c-0.558,0.413-0.868,1.074-0.868,1.922c0,1.508,0.971,2.23,2.314,2.23c1.116,0,2.293-0.537,2.851-1.384V234.394z"/>
	<path fill="#333333" d="M119.28,230.179c-1.198,0.165-2.5,0.6-3.471,1.343v8.43c-0.207,0.062-0.455,0.104-0.682,0.104
		c-0.227,0-0.455-0.042-0.661-0.104v-10.764c0.124-0.042,0.31-0.083,0.517-0.083c0.166,0,0.393,0.041,0.558,0.083l0.104,1.322h0.021
		c0.889-0.765,2.438-1.405,3.616-1.529c0.042,0.124,0.083,0.352,0.083,0.537C119.362,229.725,119.321,229.993,119.28,230.179z"/>
	<path fill="#333333" d="M127.09,239.848c-0.537,0.187-1.343,0.311-1.942,0.311c-2.045,0-3.016-0.972-3.016-3.265v-6.652h-1.859
		c-0.042-0.104-0.062-0.352-0.062-0.476c0-0.104,0.021-0.352,0.062-0.454l1.859-0.124v-2.811c0.165-0.062,0.434-0.103,0.661-0.103
		c0.227,0,0.517,0.041,0.682,0.103v2.811h3.037c0.042,0.103,0.083,0.413,0.083,0.517c0,0.145-0.041,0.392-0.083,0.537h-3.037v6.528
		c0,1.632,0.475,2.313,1.756,2.313c0.702,0,1.384-0.103,1.859-0.247c0.041,0.103,0.083,0.351,0.083,0.495
		C127.172,239.518,127.152,239.662,127.09,239.848z"/>
	<path fill="#333333" d="M140.602,237.307c0,0.744,0,1.674,0.042,2.645c-0.145,0.062-0.372,0.104-0.558,0.104
		c-0.166,0-0.393-0.042-0.558-0.104c-0.062-0.331-0.103-0.765-0.124-1.157h-0.021c-0.703,0.868-1.942,1.364-3.161,1.364
		c-1.921,0-3.533-1.075-3.533-3.285c0-1.261,0.517-2.19,1.322-2.769c0.909-0.641,2.107-0.848,3.388-0.848
		c0.723,0,1.322,0.042,1.859,0.124v-0.599c0-2.066-0.847-2.748-2.583-2.748c-0.971,0-2.169,0.207-2.913,0.393
		c-0.042-0.104-0.083-0.331-0.083-0.537c0-0.145,0.041-0.352,0.103-0.476c0.889-0.269,2.066-0.434,3.058-0.434
		c2.458,0,3.76,1.115,3.76,3.637V237.307z M139.259,234.394c-0.599-0.083-1.219-0.124-1.756-0.124c-1.013,0-1.921,0.186-2.542,0.661
		c-0.558,0.413-0.868,1.074-0.868,1.922c0,1.508,0.971,2.23,2.314,2.23c1.116,0,2.293-0.537,2.851-1.384V234.394z"/>
	<path fill="#333333" d="M151.531,239.972c-0.165,0.041-0.413,0.083-0.661,0.083c-0.207,0-0.475-0.042-0.682-0.104v-6.55
		c0-0.991-0.124-1.756-0.413-2.293c-0.352-0.661-1.013-0.991-2.087-0.991c-1.033,0-2.272,0.578-3.078,1.198v8.636
		c-0.228,0.062-0.455,0.104-0.703,0.104c-0.207,0-0.455-0.042-0.641-0.104v-10.764c0.145-0.062,0.393-0.083,0.537-0.083
		c0.207,0,0.455,0.021,0.579,0.083l0.104,1.074h0.021c1.136-0.93,2.438-1.281,3.492-1.281s2.148,0.352,2.748,1.074
		c0.661,0.785,0.785,1.922,0.785,3.037V239.972z"/>
	<path fill="#333333" d="M161.511,240.055c-0.187,0-0.413-0.062-0.537-0.104l-0.124-1.239h-0.021
		c-0.889,0.93-1.942,1.446-3.12,1.446c-2.852,0-4.215-2.376-4.215-5.269c0-2.872,1.219-5.909,4.504-5.909
		c1.033,0,1.983,0.352,2.748,0.889v-5c0.186-0.062,0.434-0.104,0.661-0.104c0.248,0,0.496,0.062,0.682,0.104v15.082
		C161.944,240.013,161.737,240.055,161.511,240.055z M160.746,231.005c-0.744-0.619-1.694-0.93-2.665-0.93
		c-2.396,0-3.202,2.355-3.202,4.752c0,1.839,0.578,4.235,2.892,4.235c1.116,0,2.252-0.558,2.976-1.425V231.005z"/>
	<path fill="#333333" d="M176.469,240.055c-0.187,0-0.413-0.062-0.537-0.104l-0.124-1.239h-0.021
		c-0.889,0.93-1.942,1.446-3.12,1.446c-2.852,0-4.215-2.376-4.215-5.269c0-2.872,1.219-5.909,4.504-5.909
		c1.033,0,1.983,0.352,2.748,0.889v-5c0.186-0.062,0.434-0.104,0.661-0.104c0.248,0,0.496,0.062,0.682,0.104v15.082
		C176.902,240.013,176.695,240.055,176.469,240.055z M175.704,231.005c-0.744-0.619-1.694-0.93-2.665-0.93
		c-2.396,0-3.202,2.355-3.202,4.752c0,1.839,0.578,4.235,2.892,4.235c1.116,0,2.252-0.558,2.976-1.425V231.005z"/>
	<path fill="#333333" d="M187.337,234.931h-6.922c0.083,2.376,1.198,4.174,3.781,4.174c0.93,0,1.798-0.124,2.562-0.311
		c0.042,0.104,0.083,0.311,0.083,0.435c0,0.206-0.041,0.392-0.104,0.537c-0.806,0.247-1.818,0.393-2.665,0.393
		c-1.632,0-2.872-0.517-3.636-1.344c-0.909-0.991-1.385-2.479-1.385-4.193c0-2.996,1.509-5.641,4.524-5.641
		c2.707,0,3.781,2.231,3.781,4.959C187.357,234.249,187.357,234.621,187.337,234.931z M186.015,233.939
		c0-1.901-0.207-3.946-2.5-3.946c-2.004,0-2.976,1.839-3.1,3.946H186.015z"/>
	<path fill="#333333" d="M191.82,240.158c-1.033,0-2.107-0.187-2.852-0.476c-0.062-0.145-0.104-0.393-0.104-0.578
		c0-0.124,0.042-0.435,0.083-0.559c0.765,0.311,1.859,0.559,2.769,0.559c1.57,0,2.541-0.661,2.541-1.963
		c0-1.178-0.599-1.591-2.231-2.19c-2.272-0.826-3.017-1.776-3.017-3.182c0-1.9,1.57-2.789,3.596-2.789
		c0.682,0,1.57,0.124,2.086,0.289c0.062,0.187,0.083,0.372,0.083,0.496c0,0.165-0.041,0.454-0.083,0.599
		c-0.682-0.206-1.404-0.33-2.106-0.33c-1.468,0-2.355,0.558-2.355,1.694c0,0.991,0.558,1.467,2.252,2.107
		c1.549,0.578,2.975,1.157,2.975,3.243C195.456,239.187,193.865,240.158,191.82,240.158z"/>
	<path fill="#333333" d="M198.184,227.08c-0.475,0-0.867-0.413-0.867-0.909s0.393-0.889,0.867-0.889
		c0.476,0,0.889,0.393,0.889,0.889S198.659,227.08,198.184,227.08z M198.865,239.951c-0.186,0.062-0.454,0.104-0.682,0.104
		c-0.227,0-0.475-0.042-0.661-0.104v-10.764c0.165-0.042,0.435-0.104,0.641-0.104c0.228,0,0.537,0.041,0.702,0.104V239.951z"/>
	<path fill="#333333" d="M209.341,238.153c0,1.55-0.083,3.409-0.827,4.69c-0.888,1.528-2.479,2.189-4.07,2.189
		c-0.908,0-1.693-0.103-2.354-0.33c-0.062-0.124-0.083-0.331-0.083-0.496c0-0.124,0.041-0.372,0.083-0.496
		c0.641,0.166,1.384,0.29,2.128,0.29c2.603,0,3.78-1.612,3.78-4.442v-0.868c-0.806,0.848-1.941,1.261-2.871,1.261
		c-2.748,0-4.174-2.128-4.174-5.124c0-3.678,2.169-5.847,5.372-5.847c0.847,0,2.128,0.248,3.017,0.6V238.153z M207.997,230.241
		c-0.743-0.207-1.28-0.269-1.797-0.269c-2.624,0-3.863,2.21-3.863,4.793c0,2.293,0.867,4.091,2.892,4.091
		c1.033,0,2.087-0.517,2.769-1.24V230.241z"/>
	<path fill="#333333" d="M220.229,239.972c-0.165,0.041-0.413,0.083-0.661,0.083c-0.206,0-0.475-0.042-0.682-0.104v-6.55
		c0-0.991-0.124-1.756-0.413-2.293c-0.352-0.661-1.013-0.991-2.087-0.991c-1.033,0-2.272,0.578-3.078,1.198v8.636
		c-0.228,0.062-0.455,0.104-0.703,0.104c-0.206,0-0.454-0.042-0.64-0.104v-10.764c0.145-0.062,0.393-0.083,0.537-0.083
		c0.206,0,0.454,0.021,0.578,0.083l0.104,1.074h0.021c1.137-0.93,2.438-1.281,3.491-1.281s2.149,0.352,2.748,1.074
		c0.661,0.785,0.785,1.922,0.785,3.037V239.972z"/>
	<path fill="#333333" d="M222.006,243.153c-0.124-0.104-0.289-0.351-0.352-0.517c0.847-0.682,1.487-1.446,1.694-2.293
		c-0.434-0.228-0.785-0.661-0.785-1.198c0-0.578,0.454-1.013,0.971-1.013c0.661,0,1.137,0.6,1.137,1.322
		C224.671,240.612,223.721,242.079,222.006,243.153z"/>
</g>
<g>
	<path fill="#333333" d="M14.571,265.406c-0.95,0-2.169-0.146-3.306-0.559v-14.73c0.145-0.041,0.455-0.104,0.641-0.104
		c0.331,0,0.579,0.062,0.703,0.104v5.227c0.847-0.702,1.921-1.115,3.058-1.115c2.913,0,4.132,2.5,4.132,5.289
		C19.798,263.071,17.98,265.406,14.571,265.406z M15.48,255.386c-1.033,0-2.066,0.434-2.872,1.239v7.417
		c0.558,0.207,1.26,0.331,1.859,0.331c2.872,0,3.925-2.19,3.925-4.772C18.393,257.597,17.814,255.386,15.48,255.386z"/>
	<path fill="#333333" d="M22.98,252.328c-0.476,0-0.868-0.413-0.868-0.909s0.393-0.889,0.868-0.889c0.475,0,0.888,0.393,0.888,0.889
		S23.456,252.328,22.98,252.328z M23.662,265.199c-0.186,0.062-0.455,0.104-0.682,0.104c-0.228,0-0.476-0.042-0.661-0.104v-10.764
		c0.165-0.042,0.434-0.104,0.64-0.104c0.228,0,0.537,0.041,0.703,0.104V265.199z"/>
	<path fill="#333333" d="M30.583,265.406c-2.707,0-4.442-1.86-4.442-5.579s1.756-5.599,4.463-5.599s4.421,1.839,4.421,5.558
		S33.29,265.406,30.583,265.406z M30.604,255.241c-1.983,0-3.058,1.528-3.058,4.565s1.054,4.587,3.037,4.587s3.037-1.55,3.037-4.587
		S32.587,255.241,30.604,255.241z"/>
	<path fill="#333333" d="M52.401,265.22c-0.207,0.041-0.414,0.083-0.62,0.083c-0.248,0-0.475-0.062-0.723-0.104v-6.528
		c0-2.273-0.579-3.306-2.5-3.306c-0.992,0-2.314,0.517-3.14,1.115c0.165,0.578,0.207,1.219,0.207,1.859v6.859
		c-0.207,0.062-0.413,0.104-0.62,0.104c-0.269,0-0.517-0.042-0.723-0.104v-6.528c0-2.273-0.517-3.306-2.438-3.306
		c-1.033,0-2.252,0.578-3.058,1.198v8.636c-0.228,0.062-0.496,0.104-0.744,0.104c-0.207,0-0.434-0.042-0.599-0.104v-10.764
		c0.104-0.042,0.331-0.083,0.558-0.083c0.186,0,0.413,0.041,0.558,0.083l0.104,1.074h0.021c1.136-0.93,2.438-1.281,3.492-1.281
		s2.066,0.352,2.665,1.074c0.083,0.083,0.145,0.187,0.207,0.289c1.095-0.888,2.5-1.363,3.843-1.363c1.054,0,2.128,0.352,2.728,1.074
		c0.661,0.785,0.785,1.922,0.785,3.037V265.22z"/>
	<path fill="#333333" d="M63.042,260.179h-6.921c0.083,2.376,1.198,4.174,3.781,4.174c0.93,0,1.797-0.124,2.562-0.311
		c0.041,0.104,0.083,0.311,0.083,0.435c0,0.206-0.042,0.392-0.104,0.537c-0.806,0.247-1.818,0.393-2.665,0.393
		c-1.632,0-2.872-0.517-3.636-1.344c-0.909-0.991-1.384-2.479-1.384-4.193c0-2.996,1.508-5.641,4.525-5.641
		c2.707,0,3.781,2.231,3.781,4.959C63.062,259.497,63.062,259.869,63.042,260.179z M61.72,259.188c0-1.901-0.207-3.946-2.5-3.946
		c-2.004,0-2.975,1.839-3.099,3.946H61.72z"/>
	<path fill="#333333" d="M72.917,265.303c-0.186,0-0.413-0.062-0.537-0.104l-0.124-1.239h-0.021c-0.888,0.93-1.942,1.446-3.12,1.446
		c-2.851,0-4.215-2.376-4.215-5.269c0-2.872,1.219-5.909,4.504-5.909c1.033,0,1.983,0.352,2.748,0.889v-5
		c0.186-0.062,0.434-0.104,0.661-0.104c0.248,0,0.496,0.062,0.682,0.104v15.082C73.352,265.261,73.145,265.303,72.917,265.303z
		 M72.153,256.253c-0.744-0.619-1.694-0.93-2.665-0.93c-2.397,0-3.203,2.355-3.203,4.752c0,1.839,0.579,4.235,2.893,4.235
		c1.116,0,2.252-0.558,2.975-1.425V256.253z"/>
	<path fill="#333333" d="M77.855,252.328c-0.475,0-0.868-0.413-0.868-0.909s0.393-0.889,0.868-0.889
		c0.476,0,0.889,0.393,0.889,0.889S78.331,252.328,77.855,252.328z M78.538,265.199c-0.186,0.062-0.455,0.104-0.682,0.104
		c-0.227,0-0.475-0.042-0.661-0.104v-10.764c0.166-0.042,0.434-0.104,0.641-0.104c0.228,0,0.537,0.041,0.703,0.104V265.199z"/>
	<path fill="#333333" d="M88.414,255.736c-0.661-0.269-1.529-0.434-2.293-0.434c-2.686,0-3.678,2.087-3.678,4.607
		c0,2.479,0.951,4.4,3.657,4.4c0.723,0,1.591-0.124,2.231-0.31c0.041,0.124,0.083,0.269,0.083,0.434
		c0,0.248-0.042,0.434-0.104,0.579c-0.599,0.247-1.57,0.393-2.334,0.393c-3.368,0-4.938-2.211-4.938-5.455
		c0-3.367,1.715-5.723,5-5.723c0.785,0,1.715,0.186,2.355,0.476c0.062,0.165,0.083,0.33,0.083,0.517
		C88.476,255.427,88.455,255.592,88.414,255.736z"/>
	<path fill="#333333" d="M98.165,262.555c0,0.744,0,1.674,0.042,2.645c-0.145,0.062-0.372,0.104-0.558,0.104
		c-0.166,0-0.393-0.042-0.558-0.104c-0.062-0.331-0.103-0.765-0.124-1.157h-0.021c-0.703,0.868-1.942,1.364-3.161,1.364
		c-1.921,0-3.533-1.075-3.533-3.285c0-1.261,0.517-2.19,1.322-2.769c0.909-0.641,2.107-0.848,3.388-0.848
		c0.723,0,1.322,0.042,1.859,0.124v-0.599c0-2.066-0.847-2.748-2.583-2.748c-0.971,0-2.169,0.207-2.913,0.393
		c-0.042-0.104-0.083-0.331-0.083-0.537c0-0.145,0.041-0.352,0.103-0.476c0.889-0.269,2.066-0.434,3.058-0.434
		c2.458,0,3.76,1.115,3.76,3.637V262.555z M96.822,259.642c-0.599-0.083-1.219-0.124-1.756-0.124c-1.013,0-1.921,0.186-2.542,0.661
		c-0.558,0.413-0.868,1.074-0.868,1.922c0,1.508,0.971,2.23,2.314,2.23c1.116,0,2.293-0.537,2.851-1.384V259.642z"/>
	<path fill="#333333" d="M102.607,265.199c-0.227,0.062-0.455,0.104-0.702,0.104c-0.207,0-0.455-0.042-0.641-0.104v-15.082
		c0.186-0.041,0.413-0.104,0.682-0.104c0.228,0,0.475,0.041,0.661,0.104V265.199z"/>
	<path fill="#333333" d="M112.813,265.406c-1.033,0-2.107-0.187-2.851-0.476c-0.062-0.145-0.103-0.393-0.103-0.578
		c0-0.124,0.041-0.435,0.083-0.559c0.765,0.311,1.859,0.559,2.769,0.559c1.57,0,2.541-0.661,2.541-1.963
		c0-1.178-0.599-1.591-2.231-2.19c-2.273-0.826-3.017-1.776-3.017-3.182c0-1.9,1.57-2.789,3.595-2.789
		c0.682,0,1.57,0.124,2.087,0.289c0.062,0.187,0.083,0.372,0.083,0.496c0,0.165-0.041,0.454-0.083,0.599
		c-0.682-0.206-1.405-0.33-2.107-0.33c-1.467,0-2.355,0.558-2.355,1.694c0,0.991,0.558,1.467,2.252,2.107
		c1.55,0.578,2.976,1.157,2.976,3.243C116.45,264.435,114.859,265.406,112.813,265.406z"/>
	<path fill="#333333" d="M125.603,255.736c-0.661-0.269-1.529-0.434-2.293-0.434c-2.686,0-3.678,2.087-3.678,4.607
		c0,2.479,0.951,4.4,3.657,4.4c0.723,0,1.591-0.124,2.231-0.31c0.042,0.124,0.083,0.269,0.083,0.434
		c0,0.248-0.042,0.434-0.104,0.579c-0.599,0.247-1.57,0.393-2.334,0.393c-3.368,0-4.938-2.211-4.938-5.455
		c0-3.367,1.715-5.723,5-5.723c0.785,0,1.715,0.186,2.355,0.476c0.062,0.165,0.083,0.33,0.083,0.517
		C125.665,255.427,125.644,255.592,125.603,255.736z"/>
	<path fill="#333333" d="M128.764,252.328c-0.475,0-0.868-0.413-0.868-0.909s0.393-0.889,0.868-0.889
		c0.476,0,0.889,0.393,0.889,0.889S129.239,252.328,128.764,252.328z M129.446,265.199c-0.186,0.062-0.455,0.104-0.682,0.104
		c-0.227,0-0.475-0.042-0.661-0.104v-10.764c0.166-0.042,0.434-0.104,0.641-0.104c0.228,0,0.537,0.041,0.703,0.104V265.199z"/>
	<path fill="#333333" d="M140.23,260.179h-6.921c0.083,2.376,1.198,4.174,3.781,4.174c0.93,0,1.797-0.124,2.562-0.311
		c0.041,0.104,0.083,0.311,0.083,0.435c0,0.206-0.042,0.392-0.104,0.537c-0.806,0.247-1.818,0.393-2.665,0.393
		c-1.632,0-2.872-0.517-3.636-1.344c-0.909-0.991-1.384-2.479-1.384-4.193c0-2.996,1.508-5.641,4.525-5.641
		c2.707,0,3.781,2.231,3.781,4.959C140.251,259.497,140.251,259.869,140.23,260.179z M138.908,259.188
		c0-1.901-0.207-3.946-2.5-3.946c-2.004,0-2.975,1.839-3.099,3.946H138.908z"/>
	<path fill="#333333" d="M150.954,265.22c-0.165,0.041-0.413,0.083-0.661,0.083c-0.207,0-0.475-0.042-0.682-0.104v-6.55
		c0-0.991-0.124-1.756-0.413-2.293c-0.352-0.661-1.013-0.991-2.087-0.991c-1.033,0-2.272,0.578-3.078,1.198v8.636
		c-0.228,0.062-0.455,0.104-0.703,0.104c-0.207,0-0.455-0.042-0.641-0.104v-10.764c0.145-0.062,0.393-0.083,0.537-0.083
		c0.207,0,0.455,0.021,0.579,0.083l0.104,1.074h0.021c1.136-0.93,2.438-1.281,3.492-1.281s2.148,0.352,2.748,1.074
		c0.661,0.785,0.785,1.922,0.785,3.037V265.22z"/>
	<path fill="#333333" d="M160.685,255.736c-0.661-0.269-1.529-0.434-2.293-0.434c-2.687,0-3.678,2.087-3.678,4.607
		c0,2.479,0.95,4.4,3.656,4.4c0.724,0,1.591-0.124,2.231-0.31c0.042,0.124,0.083,0.269,0.083,0.434c0,0.248-0.041,0.434-0.104,0.579
		c-0.599,0.247-1.57,0.393-2.335,0.393c-3.367,0-4.938-2.211-4.938-5.455c0-3.367,1.715-5.723,5-5.723
		c0.785,0,1.715,0.186,2.355,0.476c0.062,0.165,0.082,0.33,0.082,0.517C160.746,255.427,160.726,255.592,160.685,255.736z"/>
	<path fill="#333333" d="M170.788,260.179h-6.922c0.083,2.376,1.198,4.174,3.781,4.174c0.93,0,1.798-0.124,2.562-0.311
		c0.042,0.104,0.083,0.311,0.083,0.435c0,0.206-0.041,0.392-0.104,0.537c-0.806,0.247-1.818,0.393-2.665,0.393
		c-1.632,0-2.872-0.517-3.636-1.344c-0.909-0.991-1.385-2.479-1.385-4.193c0-2.996,1.509-5.641,4.524-5.641
		c2.707,0,3.781,2.231,3.781,4.959C170.809,259.497,170.809,259.869,170.788,260.179z M169.466,259.188
		c0-1.901-0.207-3.946-2.5-3.946c-2.004,0-2.976,1.839-3.1,3.946H169.466z"/>
	<path fill="#333333" d="M175.644,265.406c-1.033,0-2.107-0.187-2.852-0.476c-0.062-0.145-0.104-0.393-0.104-0.578
		c0-0.124,0.042-0.435,0.083-0.559c0.765,0.311,1.859,0.559,2.769,0.559c1.57,0,2.541-0.661,2.541-1.963
		c0-1.178-0.599-1.591-2.231-2.19c-2.272-0.826-3.016-1.776-3.016-3.182c0-1.9,1.569-2.789,3.595-2.789
		c0.682,0,1.57,0.124,2.086,0.289c0.062,0.187,0.083,0.372,0.083,0.496c0,0.165-0.041,0.454-0.083,0.599
		c-0.682-0.206-1.404-0.33-2.106-0.33c-1.468,0-2.355,0.558-2.355,1.694c0,0.991,0.558,1.467,2.252,2.107
		c1.549,0.578,2.975,1.157,2.975,3.243C179.279,264.435,177.688,265.406,175.644,265.406z"/>
	<path fill="#333333" d="M180.768,268.401c-0.124-0.104-0.289-0.351-0.352-0.517c0.847-0.682,1.487-1.446,1.694-2.293
		c-0.434-0.228-0.785-0.661-0.785-1.198c0-0.578,0.454-1.013,0.971-1.013c0.661,0,1.137,0.6,1.137,1.322
		C183.433,265.86,182.482,267.327,180.768,268.401z"/>
	<path fill="#333333" d="M198.143,262.555c0,0.744,0,1.674,0.042,2.645c-0.146,0.062-0.372,0.104-0.559,0.104
		c-0.165,0-0.393-0.042-0.558-0.104c-0.062-0.331-0.104-0.765-0.124-1.157h-0.021c-0.702,0.868-1.942,1.364-3.161,1.364
		c-1.921,0-3.533-1.075-3.533-3.285c0-1.261,0.517-2.19,1.322-2.769c0.909-0.641,2.107-0.848,3.389-0.848
		c0.724,0,1.322,0.042,1.859,0.124v-0.599c0-2.066-0.847-2.748-2.582-2.748c-0.972,0-2.17,0.207-2.913,0.393
		c-0.042-0.104-0.083-0.331-0.083-0.537c0-0.145,0.041-0.352,0.104-0.476c0.888-0.269,2.065-0.434,3.058-0.434
		c2.458,0,3.76,1.115,3.76,3.637V262.555z M196.8,259.642c-0.599-0.083-1.219-0.124-1.756-0.124c-1.013,0-1.922,0.186-2.541,0.661
		c-0.559,0.413-0.868,1.074-0.868,1.922c0,1.508,0.971,2.23,2.314,2.23c1.115,0,2.293-0.537,2.851-1.384V259.642z"/>
	<path fill="#333333" d="M209.465,265.22c-0.165,0.041-0.413,0.083-0.661,0.083c-0.206,0-0.475-0.042-0.682-0.104v-6.55
		c0-0.991-0.124-1.756-0.413-2.293c-0.352-0.661-1.013-0.991-2.087-0.991c-1.033,0-2.272,0.578-3.078,1.198v8.636
		c-0.228,0.062-0.455,0.104-0.703,0.104c-0.206,0-0.454-0.042-0.64-0.104v-10.764c0.145-0.062,0.393-0.083,0.537-0.083
		c0.206,0,0.454,0.021,0.578,0.083l0.104,1.074h0.021c1.137-0.93,2.438-1.281,3.491-1.281s2.149,0.352,2.748,1.074
		c0.661,0.785,0.785,1.922,0.785,3.037V265.22z"/>
	<path fill="#333333" d="M219.837,265.303c-0.187,0-0.413-0.062-0.537-0.104l-0.124-1.239h-0.021
		c-0.889,0.93-1.942,1.446-3.12,1.446c-2.852,0-4.215-2.376-4.215-5.269c0-2.872,1.219-5.909,4.504-5.909
		c1.033,0,1.983,0.352,2.748,0.889v-5c0.186-0.062,0.434-0.104,0.661-0.104c0.248,0,0.496,0.062,0.682,0.104v15.082
		C220.271,265.261,220.063,265.303,219.837,265.303z M219.072,256.253c-0.744-0.619-1.694-0.93-2.665-0.93
		c-2.396,0-3.202,2.355-3.202,4.752c0,1.839,0.578,4.235,2.892,4.235c1.116,0,2.252-0.558,2.976-1.425V256.253z"/>
</g>
<g>
	<path fill="#333333" d="M19.529,290.468c-0.165,0.041-0.413,0.083-0.661,0.083c-0.207,0-0.475-0.042-0.682-0.104v-6.55
		c0-0.991-0.124-1.756-0.413-2.293c-0.352-0.661-1.013-0.991-2.087-0.991c-1.033,0-2.272,0.578-3.078,1.198v8.636
		c-0.228,0.062-0.455,0.104-0.703,0.104c-0.207,0-0.455-0.042-0.641-0.104v-10.764c0.145-0.062,0.393-0.083,0.537-0.083
		c0.207,0,0.455,0.021,0.579,0.083l0.104,1.074h0.021c1.136-0.93,2.438-1.281,3.492-1.281s2.148,0.352,2.748,1.074
		c0.661,0.785,0.785,1.922,0.785,3.037V290.468z"/>
	<path fill="#333333" d="M30.417,286.356c0,3.141-1.301,4.298-4.029,4.298c-2.789,0-3.967-1.157-3.967-4.194v-6.776
		c0.186-0.062,0.434-0.104,0.661-0.104c0.29,0,0.517,0.062,0.682,0.104v6.611c0,2.004,0.31,3.326,2.645,3.326
		c2.19,0,2.665-1.281,2.665-3.368v-6.569c0.165-0.062,0.455-0.104,0.682-0.104c0.228,0,0.475,0.041,0.661,0.104V286.356z"/>
	<path fill="#333333" d="M38.187,280.675c-1.198,0.165-2.5,0.6-3.471,1.343v8.43c-0.207,0.062-0.455,0.104-0.682,0.104
		c-0.227,0-0.455-0.042-0.661-0.104v-10.764c0.124-0.042,0.31-0.083,0.517-0.083c0.166,0,0.393,0.041,0.558,0.083l0.103,1.322h0.021
		c0.889-0.765,2.438-1.405,3.616-1.529c0.042,0.124,0.083,0.352,0.083,0.537C38.269,280.221,38.228,280.489,38.187,280.675z"/>
	<path fill="#333333" d="M42.877,290.654c-1.033,0-2.107-0.187-2.852-0.476c-0.062-0.145-0.103-0.393-0.103-0.578
		c0-0.124,0.041-0.435,0.083-0.559c0.765,0.311,1.859,0.559,2.769,0.559c1.57,0,2.541-0.661,2.541-1.963
		c0-1.178-0.599-1.591-2.231-2.19c-2.273-0.826-3.017-1.776-3.017-3.182c0-1.9,1.57-2.789,3.595-2.789
		c0.682,0,1.57,0.124,2.087,0.289c0.062,0.187,0.083,0.372,0.083,0.496c0,0.165-0.041,0.454-0.083,0.599
		c-0.682-0.206-1.405-0.33-2.107-0.33c-1.467,0-2.355,0.558-2.355,1.694c0,0.991,0.558,1.467,2.252,2.107
		c1.549,0.578,2.975,1.157,2.975,3.243C46.513,289.683,44.922,290.654,42.877,290.654z"/>
	<path fill="#333333" d="M49.653,277.576c-0.475,0-0.868-0.413-0.868-0.909s0.393-0.889,0.868-0.889
		c0.476,0,0.889,0.393,0.889,0.889S50.129,277.576,49.653,277.576z M50.335,290.447c-0.186,0.062-0.455,0.104-0.682,0.104
		c-0.227,0-0.475-0.042-0.661-0.104v-10.764c0.166-0.042,0.434-0.104,0.641-0.104c0.228,0,0.537,0.041,0.703,0.104V290.447z"/>
	<path fill="#333333" d="M61.678,290.468c-0.165,0.041-0.413,0.083-0.661,0.083c-0.207,0-0.475-0.042-0.682-0.104v-6.55
		c0-0.991-0.124-1.756-0.413-2.293c-0.352-0.661-1.013-0.991-2.087-0.991c-1.033,0-2.272,0.578-3.078,1.198v8.636
		c-0.228,0.062-0.455,0.104-0.703,0.104c-0.207,0-0.455-0.042-0.641-0.104v-10.764c0.145-0.062,0.393-0.083,0.537-0.083
		c0.207,0,0.455,0.021,0.579,0.083l0.104,1.074h0.021c1.136-0.93,2.438-1.281,3.492-1.281s2.148,0.352,2.748,1.074
		c0.661,0.785,0.785,1.922,0.785,3.037V290.468z"/>
	<path fill="#333333" d="M72.421,288.649c0,1.55-0.083,3.409-0.826,4.69c-0.889,1.528-2.479,2.189-4.07,2.189
		c-0.909,0-1.694-0.103-2.355-0.33c-0.062-0.124-0.083-0.331-0.083-0.496c0-0.124,0.042-0.372,0.083-0.496
		c0.641,0.166,1.384,0.29,2.128,0.29c2.603,0,3.781-1.612,3.781-4.442v-0.868c-0.806,0.848-1.942,1.261-2.872,1.261
		c-2.748,0-4.173-2.128-4.173-5.124c0-3.678,2.169-5.847,5.372-5.847c0.847,0,2.128,0.248,3.017,0.6V288.649z M71.079,280.737
		c-0.744-0.207-1.281-0.269-1.797-0.269c-2.624,0-3.864,2.21-3.864,4.793c0,2.293,0.868,4.091,2.893,4.091
		c1.033,0,2.086-0.517,2.769-1.24V280.737z"/>
	<path fill="#333333" d="M87.545,287.803c0,0.744,0,1.674,0.042,2.645c-0.145,0.062-0.372,0.104-0.558,0.104
		c-0.166,0-0.393-0.042-0.558-0.104c-0.062-0.331-0.103-0.765-0.124-1.157h-0.021c-0.703,0.868-1.942,1.364-3.161,1.364
		c-1.921,0-3.533-1.075-3.533-3.285c0-1.261,0.517-2.19,1.322-2.769c0.909-0.641,2.107-0.848,3.388-0.848
		c0.723,0,1.322,0.042,1.859,0.124v-0.599c0-2.066-0.847-2.748-2.583-2.748c-0.971,0-2.169,0.207-2.913,0.393
		c-0.042-0.104-0.083-0.331-0.083-0.537c0-0.145,0.041-0.352,0.103-0.476c0.889-0.269,2.066-0.434,3.058-0.434
		c2.458,0,3.76,1.115,3.76,3.637V287.803z M86.202,284.89c-0.599-0.083-1.219-0.124-1.756-0.124c-1.013,0-1.921,0.186-2.542,0.661
		c-0.558,0.413-0.868,1.074-0.868,1.922c0,1.508,0.971,2.23,2.314,2.23c1.116,0,2.293-0.537,2.851-1.384V284.89z"/>
	<path fill="#333333" d="M98.867,290.468c-0.165,0.041-0.413,0.083-0.661,0.083c-0.207,0-0.475-0.042-0.682-0.104v-6.55
		c0-0.991-0.124-1.756-0.413-2.293c-0.352-0.661-1.013-0.991-2.087-0.991c-1.033,0-2.272,0.578-3.078,1.198v8.636
		c-0.228,0.062-0.455,0.104-0.703,0.104c-0.207,0-0.455-0.042-0.641-0.104v-10.764c0.145-0.062,0.393-0.083,0.537-0.083
		c0.207,0,0.455,0.021,0.579,0.083l0.104,1.074h0.021c1.136-0.93,2.438-1.281,3.492-1.281s2.148,0.352,2.748,1.074
		c0.661,0.785,0.785,1.922,0.785,3.037V290.468z"/>
	<path fill="#333333" d="M109.239,290.551c-0.186,0-0.413-0.062-0.537-0.104l-0.124-1.239h-0.021
		c-0.888,0.93-1.942,1.446-3.12,1.446c-2.851,0-4.215-2.376-4.215-5.269c0-2.872,1.219-5.909,4.504-5.909
		c1.033,0,1.983,0.352,2.748,0.889v-5c0.186-0.062,0.434-0.104,0.661-0.104c0.248,0,0.496,0.062,0.682,0.104v15.082
		C109.673,290.509,109.466,290.551,109.239,290.551z M108.475,281.501c-0.744-0.619-1.694-0.93-2.665-0.93
		c-2.397,0-3.203,2.355-3.203,4.752c0,1.839,0.579,4.235,2.893,4.235c1.116,0,2.252-0.558,2.975-1.425V281.501z"/>
	<path fill="#333333" d="M125.829,290.447c-0.186,0.062-0.413,0.104-0.62,0.104c-0.248,0-0.517-0.042-0.723-0.104v-6.528
		c0-2.273-0.579-3.306-2.5-3.306c-1.033,0-2.272,0.578-3.078,1.198v8.636c-0.228,0.062-0.476,0.104-0.703,0.104
		c-0.207,0-0.455-0.042-0.641-0.104v-15.082c0.186-0.062,0.475-0.104,0.661-0.104s0.496,0.041,0.682,0.104v5.31
		c1.095-0.847,2.396-1.198,3.409-1.198c1.054,0,2.128,0.352,2.727,1.074c0.661,0.785,0.785,1.922,0.785,3.037V290.447z"/>
	<path fill="#333333" d="M136.47,285.427h-6.921c0.083,2.376,1.198,4.174,3.781,4.174c0.93,0,1.797-0.124,2.562-0.311
		c0.041,0.104,0.083,0.311,0.083,0.435c0,0.206-0.042,0.392-0.104,0.537c-0.806,0.247-1.818,0.393-2.665,0.393
		c-1.632,0-2.872-0.517-3.636-1.344c-0.909-0.991-1.384-2.479-1.384-4.193c0-2.996,1.508-5.641,4.525-5.641
		c2.707,0,3.781,2.231,3.781,4.959C136.49,284.745,136.49,285.117,136.47,285.427z M135.147,284.436c0-1.901-0.207-3.946-2.5-3.946
		c-2.004,0-2.975,1.839-3.099,3.946H135.147z"/>
	<path fill="#333333" d="M146.283,287.803c0,0.744,0,1.674,0.042,2.645c-0.145,0.062-0.372,0.104-0.558,0.104
		c-0.166,0-0.393-0.042-0.558-0.104c-0.062-0.331-0.103-0.765-0.124-1.157h-0.021c-0.703,0.868-1.942,1.364-3.161,1.364
		c-1.921,0-3.533-1.075-3.533-3.285c0-1.261,0.517-2.19,1.322-2.769c0.909-0.641,2.107-0.848,3.388-0.848
		c0.723,0,1.322,0.042,1.859,0.124v-0.599c0-2.066-0.847-2.748-2.583-2.748c-0.971,0-2.169,0.207-2.913,0.393
		c-0.042-0.104-0.083-0.331-0.083-0.537c0-0.145,0.041-0.352,0.103-0.476c0.889-0.269,2.066-0.434,3.058-0.434
		c2.458,0,3.76,1.115,3.76,3.637V287.803z M144.94,284.89c-0.599-0.083-1.219-0.124-1.756-0.124c-1.013,0-1.921,0.186-2.542,0.661
		c-0.558,0.413-0.868,1.074-0.868,1.922c0,1.508,0.971,2.23,2.314,2.23c1.116,0,2.293-0.537,2.851-1.384V284.89z"/>
	<path fill="#333333" d="M150.726,290.447c-0.227,0.062-0.455,0.104-0.702,0.104c-0.207,0-0.455-0.042-0.641-0.104v-15.082
		c0.186-0.041,0.413-0.104,0.682-0.104c0.228,0,0.475,0.041,0.661,0.104V290.447z"/>
	<path fill="#333333" d="M159.506,290.344c-0.537,0.187-1.343,0.311-1.942,0.311c-2.045,0-3.017-0.972-3.017-3.265v-6.652h-1.859
		c-0.041-0.104-0.062-0.352-0.062-0.476c0-0.104,0.021-0.352,0.062-0.454l1.859-0.124v-2.811c0.166-0.062,0.435-0.103,0.661-0.103
		c0.228,0,0.517,0.041,0.683,0.103v2.811h3.037c0.041,0.103,0.082,0.413,0.082,0.517c0,0.145-0.041,0.392-0.082,0.537h-3.037v6.528
		c0,1.632,0.475,2.313,1.756,2.313c0.702,0,1.384-0.103,1.859-0.247c0.041,0.103,0.083,0.351,0.083,0.495
		C159.589,290.014,159.567,290.158,159.506,290.344z"/>
	<path fill="#333333" d="M169.96,290.447c-0.186,0.062-0.413,0.104-0.62,0.104c-0.247,0-0.516-0.042-0.723-0.104v-6.528
		c0-2.273-0.578-3.306-2.5-3.306c-1.033,0-2.272,0.578-3.078,1.198v8.636c-0.228,0.062-0.476,0.104-0.703,0.104
		c-0.206,0-0.454-0.042-0.64-0.104v-15.082c0.186-0.062,0.475-0.104,0.661-0.104c0.186,0,0.495,0.041,0.682,0.104v5.31
		c1.095-0.847,2.396-1.198,3.409-1.198c1.054,0,2.128,0.352,2.727,1.074c0.661,0.785,0.785,1.922,0.785,3.037V290.447z"/>
	<path fill="#333333" d="M180.063,290.654c-1.033,0-2.107-0.187-2.852-0.476c-0.062-0.145-0.104-0.393-0.104-0.578
		c0-0.124,0.042-0.435,0.083-0.559c0.765,0.311,1.859,0.559,2.769,0.559c1.57,0,2.541-0.661,2.541-1.963
		c0-1.178-0.599-1.591-2.231-2.19c-2.272-0.826-3.016-1.776-3.016-3.182c0-1.9,1.569-2.789,3.595-2.789
		c0.682,0,1.57,0.124,2.086,0.289c0.062,0.187,0.083,0.372,0.083,0.496c0,0.165-0.041,0.454-0.083,0.599
		c-0.682-0.206-1.404-0.33-2.106-0.33c-1.468,0-2.355,0.558-2.355,1.694c0,0.991,0.558,1.467,2.252,2.107
		c1.549,0.578,2.975,1.157,2.975,3.243C183.699,289.683,182.108,290.654,180.063,290.654z"/>
	<path fill="#333333" d="M192.873,280.984c-0.661-0.269-1.529-0.434-2.293-0.434c-2.687,0-3.678,2.087-3.678,4.607
		c0,2.479,0.95,4.4,3.656,4.4c0.724,0,1.591-0.124,2.231-0.31c0.042,0.124,0.083,0.269,0.083,0.434c0,0.248-0.041,0.434-0.104,0.579
		c-0.599,0.247-1.57,0.393-2.335,0.393c-3.367,0-4.938-2.211-4.938-5.455c0-3.367,1.715-5.723,5-5.723
		c0.785,0,1.715,0.186,2.355,0.476c0.062,0.165,0.082,0.33,0.082,0.517C192.935,280.675,192.914,280.84,192.873,280.984z"/>
	<path fill="#333333" d="M196.014,277.576c-0.475,0-0.867-0.413-0.867-0.909s0.393-0.889,0.867-0.889
		c0.476,0,0.889,0.393,0.889,0.889S196.489,277.576,196.014,277.576z M196.695,290.447c-0.186,0.062-0.454,0.104-0.682,0.104
		c-0.227,0-0.475-0.042-0.661-0.104v-10.764c0.165-0.042,0.435-0.104,0.641-0.104c0.228,0,0.537,0.041,0.702,0.104V290.447z"/>
	<path fill="#333333" d="M207.46,285.427h-6.922c0.083,2.376,1.198,4.174,3.781,4.174c0.93,0,1.798-0.124,2.562-0.311
		c0.042,0.104,0.083,0.311,0.083,0.435c0,0.206-0.041,0.392-0.104,0.537c-0.806,0.247-1.818,0.393-2.665,0.393
		c-1.632,0-2.872-0.517-3.636-1.344c-0.909-0.991-1.385-2.479-1.385-4.193c0-2.996,1.509-5.641,4.524-5.641
		c2.707,0,3.781,2.231,3.781,4.959C207.48,284.745,207.48,285.117,207.46,285.427z M206.138,284.436c0-1.901-0.207-3.946-2.5-3.946
		c-2.004,0-2.976,1.839-3.1,3.946H206.138z"/>
	<path fill="#333333" d="M218.203,290.468c-0.165,0.041-0.413,0.083-0.661,0.083c-0.206,0-0.475-0.042-0.682-0.104v-6.55
		c0-0.991-0.124-1.756-0.413-2.293c-0.352-0.661-1.013-0.991-2.087-0.991c-1.033,0-2.272,0.578-3.078,1.198v8.636
		c-0.228,0.062-0.455,0.104-0.703,0.104c-0.206,0-0.454-0.042-0.64-0.104v-10.764c0.145-0.062,0.393-0.083,0.537-0.083
		c0.206,0,0.454,0.021,0.578,0.083l0.104,1.074h0.021c1.137-0.93,2.438-1.281,3.491-1.281s2.149,0.352,2.748,1.074
		c0.661,0.785,0.785,1.922,0.785,3.037V290.468z"/>
	<path fill="#333333" d="M227.936,280.984c-0.661-0.269-1.529-0.434-2.293-0.434c-2.687,0-3.678,2.087-3.678,4.607
		c0,2.479,0.95,4.4,3.656,4.4c0.724,0,1.591-0.124,2.231-0.31c0.042,0.124,0.083,0.269,0.083,0.434c0,0.248-0.041,0.434-0.104,0.579
		c-0.599,0.247-1.57,0.393-2.335,0.393c-3.367,0-4.938-2.211-4.938-5.455c0-3.367,1.715-5.723,5-5.723
		c0.785,0,1.715,0.186,2.355,0.476c0.062,0.165,0.082,0.33,0.082,0.517C227.997,280.675,227.977,280.84,227.936,280.984z"/>
	<path fill="#333333" d="M238.038,285.427h-6.922c0.083,2.376,1.198,4.174,3.781,4.174c0.93,0,1.798-0.124,2.562-0.311
		c0.042,0.104,0.083,0.311,0.083,0.435c0,0.206-0.041,0.392-0.104,0.537c-0.806,0.247-1.818,0.393-2.665,0.393
		c-1.632,0-2.872-0.517-3.636-1.344c-0.909-0.991-1.385-2.479-1.385-4.193c0-2.996,1.509-5.641,4.524-5.641
		c2.707,0,3.781,2.231,3.781,4.959C238.059,284.745,238.059,285.117,238.038,285.427z M236.716,284.436
		c0-1.901-0.207-3.946-2.5-3.946c-2.004,0-2.976,1.839-3.1,3.946H236.716z"/>
	<path fill="#333333" d="M242.894,290.654c-1.033,0-2.107-0.187-2.852-0.476c-0.062-0.145-0.104-0.393-0.104-0.578
		c0-0.124,0.042-0.435,0.083-0.559c0.765,0.311,1.859,0.559,2.769,0.559c1.57,0,2.541-0.661,2.541-1.963
		c0-1.178-0.599-1.591-2.231-2.19c-2.272-0.826-3.016-1.776-3.016-3.182c0-1.9,1.569-2.789,3.595-2.789
		c0.682,0,1.57,0.124,2.086,0.289c0.062,0.187,0.083,0.372,0.083,0.496c0,0.165-0.041,0.454-0.083,0.599
		c-0.682-0.206-1.404-0.33-2.106-0.33c-1.468,0-2.355,0.558-2.355,1.694c0,0.991,0.558,1.467,2.252,2.107
		c1.549,0.578,2.975,1.157,2.975,3.243C246.529,289.683,244.938,290.654,242.894,290.654z"/>
</g>
<g>
	<path fill="#59A6AE" d="M29.248,179.871c0,6.223-2.923,8.812-9.438,8.812c-6.348,0-9.271-2.59-9.271-8.812v-13.364
		c0.584-0.083,1.712-0.209,2.84-0.209c1.002,0,2.255,0.084,2.923,0.209v13.322c0,3.258,0.96,4.428,3.592,4.428
		c2.673,0,3.592-1.17,3.592-4.428v-13.322c0.584-0.125,1.879-0.209,2.923-0.209c1.044,0,2.422,0.126,2.84,0.209V179.871z"/>
	<path fill="#59A6AE" d="M53.473,188.266c-0.668,0.167-2.088,0.209-2.756,0.209c-0.71,0-2.339-0.084-3.007-0.209v-14.283
		c0-2.255-1.169-3.216-3.049-3.216c-1.503,0-3.216,0.543-4.552,1.378v16.121c-0.96,0.167-2.297,0.209-3.049,0.209
		c-0.668,0-1.879-0.042-2.714-0.209v-21.759c0.543-0.125,1.879-0.209,2.506-0.209c0.584,0,1.796,0.084,2.422,0.209l0.292,1.921
		c1.879-1.378,4.594-2.339,7.017-2.339c4.594,0,6.891,2.841,6.891,7.602V188.266z"/>
	<path fill="#59A6AE" d="M61.743,164.126c-1.754,0-3.174-1.42-3.174-3.174s1.42-3.174,3.174-3.174c1.754,0,3.174,1.42,3.174,3.174
		S63.498,164.126,61.743,164.126z M64.625,188.266c-0.752,0.167-2.297,0.209-2.965,0.209c-1.002,0-2.088-0.084-2.798-0.209v-21.759
		c0.918-0.125,2.046-0.209,2.798-0.209c1.002,0,2.046,0.084,2.965,0.209V188.266z"/>
	<path fill="#59A6AE" d="M87.387,172.896l-6.265,15.369c-0.417,0.084-1.503,0.209-2.589,0.209c-1.127,0-2.338-0.125-2.84-0.209
		l-6.014-15.452c-0.793-2.089-1.169-4.135-1.169-6.307c0.751-0.125,1.796-0.209,2.673-0.209c1.211,0,2.046,0.084,2.714,0.209
		c0,1.545,0.209,3.258,0.752,4.887l3.842,11.025h0.083l3.967-11.025c0.543-1.629,0.752-3.049,0.752-4.887
		c0.584-0.083,1.837-0.209,2.756-0.209s1.879,0.084,2.547,0.209C88.598,168.846,88.18,170.976,87.387,172.896z"/>
	<path fill="#59A6AE" d="M110.023,179.412H96.827c0.083,2.714,1.963,4.719,5.596,4.719c1.963,0,3.967-0.25,5.68-0.71
		c0.25,1.128,0.417,2.381,0.417,3.508c0,0.168,0,0.376-0.042,0.836c-2.13,0.626-4.343,0.919-6.515,0.919
		c-7.935,0-11.234-4.553-11.234-11.193c0-5.805,3.257-11.401,10.315-11.401c6.682,0,9.104,4.929,9.104,10.357
		C110.149,177.198,110.149,178.326,110.023,179.412z M104.386,175.277c0-2.631-0.71-4.845-3.425-4.845
		c-2.589,0-3.967,2.047-4.134,4.845H104.386z"/>
	<path fill="#59A6AE" d="M126.438,170.934c-2.171,0.334-4.51,1.086-6.599,2.172v15.16c-0.584,0.125-1.837,0.209-2.84,0.209
		s-2.464-0.084-2.923-0.209v-21.759c0.626-0.083,1.67-0.209,2.506-0.209c0.71,0,1.837,0.084,2.422,0.209l0.334,2.673
		c1.545-1.378,4.343-2.882,7.058-3.091c0.083,0.335,0.167,1.546,0.167,2.423C126.564,169.347,126.522,170.35,126.438,170.934z"/>
	<path fill="#59A6AE" d="M136.087,188.684c-2.464,0-5.054-0.376-7.058-1.044c-0.125-0.627-0.167-1.421-0.167-2.256
		c0-0.668,0.167-1.629,0.334-2.213c1.921,0.668,4.678,1.127,6.306,1.127c2.255,0,3.55-0.752,3.55-2.297
		c0-1.336-1.044-1.963-3.8-2.84c-4.385-1.378-6.432-3.425-6.432-6.599c0-4.719,4.344-6.474,8.478-6.474
		c1.921,0,4.051,0.335,5.513,0.794c0.167,0.626,0.25,1.504,0.25,2.005c0,0.543-0.167,1.67-0.375,2.38
		c-1.42-0.417-3.383-0.751-5.012-0.751c-2.005,0-3.383,0.501-3.383,1.754c0,1.336,1.545,1.879,3.967,2.673
		c4.218,1.378,6.223,3.132,6.223,6.432C144.481,186.47,140.388,188.684,136.087,188.684z"/>
	<path fill="#59A6AE" d="M151.666,164.126c-1.754,0-3.174-1.42-3.174-3.174s1.42-3.174,3.174-3.174c1.754,0,3.174,1.42,3.174,3.174
		S153.42,164.126,151.666,164.126z M154.547,188.266c-0.751,0.167-2.297,0.209-2.965,0.209c-1.002,0-2.088-0.084-2.798-0.209
		v-21.759c0.918-0.125,2.046-0.209,2.798-0.209c1.002,0,2.047,0.084,2.965,0.209V188.266z"/>
	<path fill="#59A6AE" d="M173.801,187.848c-1.253,0.502-2.756,0.836-5.179,0.836c-4.719,0-7.058-2.297-7.058-6.892v-10.983h-3.592
		c-0.167-0.627-0.292-1.671-0.292-2.214c0-0.501,0.125-1.42,0.25-1.837l3.634-0.251v-5.596c0.459-0.084,1.921-0.168,2.882-0.168
		c1.044,0,2.339,0.084,2.881,0.168v5.596h6.015c0.167,0.585,0.25,1.42,0.25,1.88c0,0.501-0.041,1.837-0.209,2.422h-6.056v10.148
		c0,2.088,0.836,3.007,2.882,3.007c1.128,0,2.506-0.167,3.467-0.501c0.167,0.543,0.376,1.587,0.376,2.548
		C174.052,186.512,173.968,187.389,173.801,187.848z"/>
	<path fill="#59A6AE" d="M181.027,164.126c-1.754,0-3.175-1.42-3.175-3.174s1.421-3.174,3.175-3.174s3.174,1.42,3.174,3.174
		S182.781,164.126,181.027,164.126z M183.908,188.266c-0.751,0.167-2.297,0.209-2.965,0.209c-1.002,0-2.088-0.084-2.798-0.209
		v-21.759c0.919-0.125,2.046-0.209,2.798-0.209c1.002,0,2.047,0.084,2.965,0.209V188.266z"/>
	<path fill="#59A6AE" d="M207.422,179.412h-13.197c0.084,2.714,1.963,4.719,5.597,4.719c1.963,0,3.968-0.25,5.68-0.71
		c0.251,1.128,0.418,2.381,0.418,3.508c0,0.168,0,0.376-0.042,0.836c-2.13,0.626-4.344,0.919-6.516,0.919
		c-7.935,0-11.234-4.553-11.234-11.193c0-5.805,3.258-11.401,10.316-11.401c6.682,0,9.104,4.929,9.104,10.357
		C207.548,177.198,207.548,178.326,207.422,179.412z M201.784,175.277c0-2.631-0.71-4.845-3.425-4.845
		c-2.589,0-3.968,2.047-4.135,4.845H201.784z"/>
	<path fill="#59A6AE" d="M217.905,188.684c-2.464,0-5.053-0.376-7.058-1.044c-0.125-0.627-0.167-1.421-0.167-2.256
		c0-0.668,0.167-1.629,0.334-2.213c1.921,0.668,4.678,1.127,6.307,1.127c2.255,0,3.55-0.752,3.55-2.297
		c0-1.336-1.044-1.963-3.801-2.84c-4.385-1.378-6.432-3.425-6.432-6.599c0-4.719,4.344-6.474,8.479-6.474
		c1.921,0,4.051,0.335,5.513,0.794c0.167,0.626,0.25,1.504,0.25,2.005c0,0.543-0.167,1.67-0.376,2.38
		c-1.42-0.417-3.383-0.751-5.012-0.751c-2.004,0-3.383,0.501-3.383,1.754c0,1.336,1.546,1.879,3.968,2.673
		c4.219,1.378,6.223,3.132,6.223,6.432C226.3,186.47,222.207,188.684,217.905,188.684z"/>
</g>
<path fill="#59A6AE" d="M226.699,128.954c0-6.869-2.099-11.833-5.82-15.074c-4.196-3.627-10.113-4.963-17.556-4.963h-4.199V97.083
	h23.854c0.192-1.143,0.478-4.291,0.478-6.104c0-1.717-0.19-4.103-0.478-5.629H186.91v34.444h12.501
	c5.151,0,8.683,0.858,10.783,2.959c1.621,1.621,2.386,4.103,2.386,6.869c0,6.488-4.39,10.115-11.165,10.115
	c-5.345,0-12.119-0.861-16.509-2.197c-0.572,1.816-0.859,4.009-0.859,6.107c0,1.91,0.287,3.627,0.478,4.295
	c5.249,1.812,12.882,2.865,18.036,2.865C215.534,150.808,226.699,143.553,226.699,128.954 M148.554,105.575
	c0,7.824-3.912,9.734-11.256,9.734h-5.917V96.321c1.908-0.094,4.39-0.193,6.297-0.193
	C145.215,96.128,148.554,98.899,148.554,105.575 M162.294,105.1c0-15.171-10.591-20.229-25.188-20.229
	c-5.441,0-13.837,0.285-19.372,0.572v64.409c1.814,0.287,4.199,0.476,6.775,0.476c2.863,0,5.058-0.188,6.871-0.476v-23.094h6.679
	C153.04,126.759,162.294,119.89,162.294,105.1 M96.076,117.599c0,15.173-4.674,21.471-12.882,21.471
	c-8.205,0-12.882-6.298-12.882-21.471c0-15.171,4.677-21.471,12.882-21.471C91.401,96.128,96.076,102.428,96.076,117.599
	 M110.197,117.599c0-20.991-9.349-33.205-27.003-33.205c-17.653,0-27.001,12.214-27.001,33.205s9.349,33.209,27.001,33.209
	C100.849,150.808,110.197,138.589,110.197,117.599 M55.619,91.169c0-1.623-0.287-4.58-0.668-5.82H7.241
	c-0.381,1.24-0.762,4.197-0.762,5.82s0.285,4.58,0.666,5.82h17.079v52.864c1.91,0.287,4.486,0.476,6.872,0.476
	s4.961-0.188,6.775-0.476V96.989h17.081C55.332,95.749,55.619,92.792,55.619,91.169"/>
</svg>
