<?xml version="1.0" encoding="utf-8"?>
<!-- Generator: Adobe Illustrator 16.0.0, SVG Export Plug-In . SVG Version: 6.00 Build 0)  -->
<!DOCTYPE svg PUBLIC "-//W3C//DTD SVG 1.0//EN" "http://www.w3.org/TR/2001/REC-SVG-20010904/DTD/svg10.dtd">
<svg version="1.0" xmlns="http://www.w3.org/2000/svg" xmlns:xlink="http://www.w3.org/1999/xlink" x="0px" y="0px" width="300px"
	 height="300px" viewBox="0 0 300 300" style="enable-background:new 0 0 300 300;" xml:space="preserve">
<g id="Text" style="display:none;">
	<text transform="matrix(1 0 0 1 10.6143 209.7549)" style="display:inline;"><tspan x="0" y="0" style="fill:#1A2A4F; font-family:'FSMatthew-Bold'; font-size:26.3623;">4 </tspan><tspan x="20.167" y="0" style="fill:#1A2A4F; font-family:'FSMatthew-Bold'; font-size:26.3623;">C</tspan><tspan x="35.958" y="0" style="fill:#1A2A4F; font-family:'FSMatthew-Bold'; font-size:26.3623;">AMP</tspan><tspan x="89.868" y="0" style="fill:#1A2A4F; font-family:'FSMatthew-Bold'; font-size:26.3623;">U</tspan><tspan x="107.056" y="0" style="fill:#1A2A4F; font-family:'FSMatthew-Bold'; font-size:26.3623;">SE</tspan><tspan x="135.395" y="0" style="fill:#1A2A4F; font-family:'FSMatthew-Bold'; font-size:26.3623;">S</tspan><tspan x="149.499" y="0" style="fill:#1A2A4F; font-family:'FSMatthew-Bold'; font-size:26.3623;"> </tspan><tspan x="155.324" y="0" style="fill:#1A2A4F; font-family:'FSMatthew-Bold'; font-size:26.3623;">A</tspan><tspan x="171.88" y="0" style="fill:#1A2A4F; font-family:'FSMatthew-Bold'; font-size:26.3623;">C</tspan><tspan x="187.064" y="0" style="fill:#1A2A4F; font-family:'FSMatthew-Bold'; font-size:26.3623;">R</tspan><tspan x="202.434" y="0" style="fill:#1A2A4F; font-family:'FSMatthew-Bold'; font-size:26.3623;">O</tspan><tspan x="219.568" y="0" style="fill:#1A2A4F; font-family:'FSMatthew-Bold'; font-size:26.3623;">S</tspan><tspan x="233.355" y="0" style="fill:#1A2A4F; font-family:'FSMatthew-Bold'; font-size:26.3623;">S N</tspan><tspan x="271.448" y="0" style="fill:#1A2A4F; font-family:'FSMatthew-Bold'; font-size:26.3623;">I </tspan></text>
	<text transform="matrix(1 0 0 1 9.0986 229.21)" style="display:inline;"><tspan x="0" y="0" style="fill:#1A2A4F; font-family:'FSMatthew-Bold'; font-size:13.1811;">(BEL</tspan><tspan x="26.968" y="0" style="fill:#1A2A4F; font-family:'FSMatthew-Bold'; font-size:13.1811;">F</tspan><tspan x="33.4" y="0" style="fill:#1A2A4F; font-family:'FSMatthew-Bold'; font-size:13.1811;">A</tspan><tspan x="42.047" y="0" style="fill:#1A2A4F; font-family:'FSMatthew-Bold'; font-size:13.1811;">S</tspan><tspan x="48.822" y="0" style="fill:#1A2A4F; font-family:'FSMatthew-Bold'; font-size:13.1811; letter-spacing:-1;">T</tspan><tspan x="54.767" y="0" style="fill:#1A2A4F; font-family:'FSMatthew-Bold'; font-size:13.1811;">, </tspan><tspan x="61.186" y="0" style="fill:#1A2A4F; font-family:'FSMatthew-Bold'; font-size:13.1811;">C</tspan><tspan x="68.659" y="0" style="fill:#1A2A4F; font-family:'FSMatthew-Bold'; font-size:13.1811;">OLE</tspan><tspan x="91.37" y="0" style="fill:#1A2A4F; font-family:'FSMatthew-Bold'; font-size:13.1811;">R</tspan><tspan x="99.516" y="0" style="fill:#1A2A4F; font-family:'FSMatthew-Bold'; font-size:13.1811;">AIN</tspan><tspan x="121.199" y="0" style="fill:#1A2A4F; font-family:'FSMatthew-Bold'; font-size:13.1811;">E</tspan><tspan x="128.699" y="0" style="fill:#1A2A4F; font-family:'FSMatthew-Bold'; font-size:13.1811;">, JOR</tspan><tspan x="157.802" y="0" style="fill:#1A2A4F; font-family:'FSMatthew-Bold'; font-size:13.1811;">D</tspan><tspan x="166.172" y="0" style="fill:#1A2A4F; font-family:'FSMatthew-Bold'; font-size:13.1811;">AN</tspan><tspan x="183.939" y="0" style="fill:#1A2A4F; font-family:'FSMatthew-Bold'; font-size:13.1811;">S</tspan><tspan x="190.715" y="0" style="fill:#1A2A4F; font-family:'FSMatthew-Bold'; font-size:13.1811;">T</tspan><tspan x="197.74" y="0" style="fill:#1A2A4F; font-family:'FSMatthew-Bold'; font-size:13.1811;">O</tspan><tspan x="206.295" y="0" style="fill:#1A2A4F; font-family:'FSMatthew-Bold'; font-size:13.1811;">WN, M</tspan><tspan x="244.44" y="0" style="fill:#1A2A4F; font-family:'FSMatthew-Bold'; font-size:13.1811;">A</tspan><tspan x="252.783" y="0" style="fill:#1A2A4F; font-family:'FSMatthew-Bold'; font-size:13.1811;">G</tspan><tspan x="261.272" y="0" style="fill:#1A2A4F; font-family:'FSMatthew-Bold'; font-size:13.1811;">E</tspan><tspan x="268.284" y="0" style="fill:#1A2A4F; font-family:'FSMatthew-Bold'; font-size:13.1811;">E</tspan><tspan x="275.362" y="0" style="fill:#1A2A4F; font-family:'FSMatthew-Bold'; font-size:13.1811;">) </tspan></text>
</g>
<g id="Text_Flat">
	<g>
		<path style="fill:#1A2A4F;" d="M24.853,205.905h-2.32v3.85c-0.316,0.053-1.055,0.132-1.872,0.132
			c-0.765,0-1.371-0.053-1.793-0.132v-3.85h-7.699c-0.105-0.343-0.185-0.949-0.185-1.424c0-0.554,0.079-1.055,0.185-1.424
			l5.405-11.127c0.475-0.079,1.266-0.132,1.846-0.132c0.817,0,1.688,0.079,2.083,0.132l-5.405,10.863h3.771v-3.639
			c0.475-0.079,1.213-0.132,1.819-0.132c0.633,0,1.397,0.053,1.846,0.132v3.639h2.32c0.132,0.422,0.185,1.002,0.185,1.556
			S24.958,205.615,24.853,205.905z"/>
		<path style="fill:#1A2A4F;" d="M44.914,195.648c-1.266-0.396-2.848-0.686-4.113-0.686c-3.006,0-4.957,2.136-4.957,5.959
			c0,3.507,1.529,5.801,4.931,5.801c1.266,0,2.689-0.264,3.955-0.659c0.185,0.475,0.316,1.213,0.316,1.767
			c0,0.448-0.026,1.002-0.079,1.239c-1.318,0.606-3.006,0.949-4.562,0.949c-5.669,0-8.464-3.428-8.464-9.018
			c0-5.432,3.006-9.334,8.622-9.334c1.371,0,3.164,0.343,4.43,0.896c0.079,0.264,0.105,0.844,0.105,1.187
			C45.098,194.567,44.993,195.332,44.914,195.648z"/>
		<path style="fill:#1A2A4F;" d="M63.5,209.755c-0.343,0.079-1.16,0.132-2.03,0.132c-0.686,0-1.477-0.079-1.819-0.132l-1.318-3.612
			h-6.328l-1.239,3.612c-0.58,0.079-1.266,0.132-1.951,0.132s-1.477-0.053-1.872-0.132l6.223-17.824
			c0.369-0.079,1.239-0.132,1.819-0.132c0.712,0,1.556,0.053,1.846,0.132L63.5,209.755z M57.198,203.005l-1.556-5.036
			c-0.185-0.58-0.369-1.318-0.527-2.136h-0.053c-0.132,0.817-0.343,1.556-0.527,2.136l-1.477,5.036H57.198z"/>
		<path style="fill:#1A2A4F;" d="M83.772,209.755c-0.316,0.079-1.028,0.132-1.767,0.132c-0.791,0-1.529-0.079-1.846-0.132
			l-0.316-10.705l-3.902,9.018c-0.29,0.105-0.923,0.158-1.318,0.158c-0.475,0-1.055-0.053-1.345-0.132l-3.902-9.044l-0.343,10.705
			c-0.343,0.079-1.16,0.132-1.872,0.132c-0.422,0-1.134-0.053-1.608-0.132l0.765-17.824c0.501-0.053,1.002-0.132,1.529-0.132
			c0.633,0,1.239,0.053,1.556,0.132l5.221,12.103l5.247-12.103c0.527-0.079,1.055-0.132,1.529-0.132c0.606,0,1.16,0.053,1.556,0.132
			L83.772,209.755z"/>
		<path style="fill:#1A2A4F;" d="M93.049,203.374h-1.846v6.381c-0.501,0.079-1.107,0.132-1.898,0.132
			c-0.712,0-1.371-0.053-1.872-0.132v-17.798c1.529-0.079,3.85-0.158,5.353-0.158c4.034,0,6.961,1.397,6.961,5.59
			C99.747,201.476,97.189,203.374,93.049,203.374z M92.944,194.91c-0.527,0-1.213,0.026-1.74,0.053v5.247h1.635
			c2.03,0,3.111-0.527,3.111-2.689C95.95,195.675,95.027,194.91,92.944,194.91z"/>
		<path style="fill:#1A2A4F;" d="M115.907,202.979c0,4.535-1.74,7.04-6.803,7.04c-5.115,0-6.724-2.505-6.724-7.04v-11.048
			c0.527-0.079,1.213-0.132,1.846-0.132c0.738,0,1.397,0.053,1.925,0.132v11.312c0,2.426,0.686,3.797,2.979,3.797
			s3.085-1.371,3.085-3.797v-11.312c0.475-0.079,1.266-0.132,1.872-0.132c0.58,0,1.371,0.053,1.819,0.132V202.979z"/>
		<path style="fill:#1A2A4F;" d="M124.499,210.019c-1.925,0-4.034-0.369-5.537-1.055c-0.079-0.369-0.132-0.844-0.132-1.266
			c0-0.633,0.079-1.239,0.264-1.951c1.556,0.633,3.612,1.028,5.221,1.028c1.872,0,2.874-0.87,2.874-2.057
			c0-1.318-0.844-1.872-3.401-2.663c-2.848-0.87-4.931-2.241-4.931-5.3c0-3.27,2.821-5.089,6.539-5.089
			c1.714,0,3.243,0.264,4.271,0.606c0.079,0.29,0.132,0.765,0.132,1.45c0,0.501-0.053,1.266-0.158,1.688
			c-1.318-0.343-2.821-0.527-4.034-0.527c-1.978,0-3.059,0.659-3.059,1.714c0,1.239,0.976,1.74,3.349,2.479
			c2.848,0.896,4.957,2.241,4.957,5.405C130.854,207.936,128.138,210.019,124.499,210.019z"/>
		<path style="fill:#1A2A4F;" d="M144.931,209.755h-11.153v-17.824h10.916c0.105,0.29,0.185,0.844,0.185,1.582
			c0,0.58-0.053,1.081-0.185,1.635h-7.146v3.85h6.038c0.105,0.29,0.185,0.817,0.185,1.556c0,0.58-0.053,1.055-0.185,1.608h-6.038
			v4.377h7.383c0.105,0.29,0.185,0.844,0.185,1.582C145.115,208.7,145.062,209.201,144.931,209.755z"/>
		<path style="fill:#1A2A4F;" d="M152.838,210.019c-1.924,0-4.034-0.369-5.537-1.055c-0.079-0.369-0.132-0.844-0.132-1.266
			c0-0.633,0.079-1.239,0.264-1.951c1.556,0.633,3.612,1.028,5.221,1.028c1.871,0,2.873-0.87,2.873-2.057
			c0-1.318-0.844-1.872-3.4-2.663c-2.848-0.87-4.931-2.241-4.931-5.3c0-3.27,2.821-5.089,6.539-5.089
			c1.715,0,3.244,0.264,4.271,0.606c0.08,0.29,0.133,0.765,0.133,1.45c0,0.501-0.053,1.266-0.158,1.688
			c-1.318-0.343-2.822-0.527-4.035-0.527c-1.977,0-3.058,0.659-3.058,1.714c0,1.239,0.976,1.74,3.349,2.479
			c2.848,0.896,4.957,2.241,4.957,5.405C159.193,207.936,156.477,210.019,152.838,210.019z"/>
		<path style="fill:#1A2A4F;" d="M182.866,209.755c-0.343,0.079-1.16,0.132-2.03,0.132c-0.686,0-1.477-0.079-1.819-0.132
			l-1.318-3.612h-6.328l-1.239,3.612c-0.58,0.079-1.266,0.132-1.951,0.132s-1.477-0.053-1.872-0.132l6.223-17.824
			c0.369-0.079,1.239-0.132,1.819-0.132c0.712,0,1.556,0.053,1.846,0.132L182.866,209.755z M176.564,203.005l-1.556-5.036
			c-0.185-0.58-0.369-1.318-0.527-2.136h-0.053c-0.132,0.817-0.343,1.556-0.527,2.136l-1.477,5.036H176.564z"/>
		<path style="fill:#1A2A4F;" d="M196.627,195.648c-1.266-0.396-2.848-0.686-4.113-0.686c-3.006,0-4.957,2.136-4.957,5.959
			c0,3.507,1.529,5.801,4.931,5.801c1.266,0,2.689-0.264,3.955-0.659c0.185,0.475,0.316,1.213,0.316,1.767
			c0,0.448-0.026,1.002-0.079,1.239c-1.318,0.606-3.006,0.949-4.562,0.949c-5.669,0-8.464-3.428-8.464-9.018
			c0-5.432,3.006-9.334,8.622-9.334c1.371,0,3.164,0.343,4.43,0.896c0.079,0.264,0.105,0.844,0.105,1.187
			C196.812,194.567,196.706,195.332,196.627,195.648z"/>
		<path style="fill:#1A2A4F;" d="M212.787,209.729c-0.686,0.105-1.397,0.158-2.215,0.158c-0.738,0-1.477-0.026-1.978-0.132
			l-3.612-6.407h-1.556v6.407c-0.659,0.105-1.213,0.132-1.925,0.132c-0.633,0-1.187-0.026-1.846-0.132v-17.824
			c1.213-0.079,3.744-0.132,5.273-0.132c4.482,0,6.724,1.582,6.724,5.695c0,2.188-1.318,4.377-3.164,5.168L212.787,209.729z
			 M205.167,194.884c-0.58,0-1.292,0.026-1.74,0.053v5.273h1.318c2.162,0,3.111-0.791,3.111-2.742S206.907,194.884,205.167,194.884z
			"/>
		<path style="fill:#1A2A4F;" d="M221.67,210.019c-4.878,0-7.462-3.375-7.462-9.176s2.584-9.176,7.462-9.176
			s7.462,3.375,7.462,9.176S226.548,210.019,221.67,210.019z M221.67,194.91c-2.268,0-3.56,1.74-3.56,5.933s1.292,5.933,3.56,5.933
			s3.56-1.74,3.56-5.933S223.938,194.91,221.67,194.91z"/>
		<path style="fill:#1A2A4F;" d="M237.012,210.019c-1.925,0-4.034-0.369-5.537-1.055c-0.079-0.369-0.132-0.844-0.132-1.266
			c0-0.633,0.079-1.239,0.264-1.951c1.556,0.633,3.612,1.028,5.221,1.028c1.872,0,2.874-0.87,2.874-2.057
			c0-1.318-0.844-1.872-3.401-2.663c-2.848-0.87-4.931-2.241-4.931-5.3c0-3.27,2.821-5.089,6.539-5.089
			c1.714,0,3.243,0.264,4.271,0.606c0.079,0.29,0.132,0.765,0.132,1.45c0,0.501-0.053,1.266-0.158,1.688
			c-1.318-0.343-2.821-0.527-4.034-0.527c-1.978,0-3.059,0.659-3.059,1.714c0,1.239,0.976,1.74,3.349,2.479
			c2.848,0.896,4.957,2.241,4.957,5.405C243.366,207.936,240.65,210.019,237.012,210.019z"/>
		<path style="fill:#1A2A4F;" d="M250.799,210.019c-1.925,0-4.034-0.369-5.537-1.055c-0.079-0.369-0.132-0.844-0.132-1.266
			c0-0.633,0.079-1.239,0.264-1.951c1.556,0.633,3.612,1.028,5.221,1.028c1.872,0,2.874-0.87,2.874-2.057
			c0-1.318-0.844-1.872-3.401-2.663c-2.848-0.87-4.931-2.241-4.931-5.3c0-3.27,2.821-5.089,6.539-5.089
			c1.714,0,3.243,0.264,4.271,0.606c0.079,0.29,0.132,0.765,0.132,1.45c0,0.501-0.053,1.266-0.158,1.688
			c-1.318-0.343-2.821-0.527-4.034-0.527c-1.978,0-3.059,0.659-3.059,1.714c0,1.239,0.976,1.74,3.349,2.479
			c2.848,0.896,4.957,2.241,4.957,5.405C257.153,207.936,254.438,210.019,250.799,210.019z"/>
		<path style="fill:#1A2A4F;" d="M280.194,209.755c-0.264,0.053-0.896,0.105-1.345,0.105s-0.896-0.026-1.318-0.105l-8.2-11.417
			v11.417c-0.211,0.053-1.002,0.132-1.74,0.132c-0.606,0-1.318-0.079-1.688-0.132v-17.824c0.422-0.079,0.923-0.105,1.397-0.105
			c0.501,0,1.028,0.053,1.424,0.105l8.042,11.206v-11.206c0.527-0.079,1.213-0.132,1.714-0.132s1.239,0.053,1.714,0.132V209.755z"/>
		<path style="fill:#1A2A4F;" d="M287.863,209.755c-0.501,0.079-1.107,0.132-1.898,0.132c-0.712,0-1.371-0.053-1.872-0.132v-17.824
			c0.501-0.079,1.239-0.132,1.898-0.132c0.738,0,1.397,0.053,1.872,0.132V209.755z"/>
	</g>
	<g>
		<path style="fill:#1A2A4F;" d="M12.526,231.029c-1.688-1.556-2.716-3.454-2.716-5.722c0-2.308,1.068-4.259,2.716-5.722
			c0.396,0.079,0.857,0.448,1.042,0.712c-1.292,1.371-1.978,3.164-1.978,5.01s0.738,3.586,1.978,5.01
			C13.383,230.581,12.922,230.95,12.526,231.029z"/>
		<path style="fill:#1A2A4F;" d="M17.997,229.275c-0.936,0-1.846-0.025-2.782-0.078v-8.887c0.765-0.053,1.78-0.078,2.465-0.078
			c2.03,0,3.27,0.619,3.27,2.293c0,0.844-0.356,1.477-1.187,1.846c1.107,0.264,1.819,1.068,1.819,2.149
			C21.583,228.577,20.093,229.275,17.997,229.275z M17.812,221.787c-0.237,0-0.501,0.014-0.712,0.027v2.004h0.738
			c0.857,0,1.266-0.277,1.266-1.082C19.104,221.906,18.458,221.787,17.812,221.787z M18.023,225.295H17.1v2.398
			c0.25,0.014,0.62,0.027,0.87,0.027c1.173,0,1.74-0.33,1.74-1.213C19.71,225.598,19.223,225.295,18.023,225.295z"/>
		<path style="fill:#1A2A4F;" d="M28.542,229.21h-5.577v-8.912h5.458c0.053,0.146,0.092,0.422,0.092,0.791
			c0,0.29-0.026,0.54-0.092,0.817h-3.573v1.925h3.019c0.053,0.146,0.092,0.409,0.092,0.778c0,0.289-0.026,0.527-0.092,0.804h-3.019
			v2.188h3.691c0.053,0.145,0.092,0.422,0.092,0.791C28.634,228.683,28.608,228.934,28.542,229.21z"/>
		<path style="fill:#1A2A4F;" d="M35.581,229.21h-5.458v-8.912c0.25-0.04,0.593-0.065,0.923-0.065c0.369,0,0.725,0.025,0.962,0.065
			v7.304h3.573c0.053,0.145,0.092,0.422,0.092,0.791C35.673,228.683,35.646,228.934,35.581,229.21z"/>
		<path style="fill:#1A2A4F;" d="M42.448,221.906h-3.507v1.925h2.953c0.053,0.146,0.092,0.409,0.092,0.778
			c0,0.289-0.026,0.527-0.092,0.804h-2.953v3.797c-0.25,0.04-0.541,0.065-0.936,0.065c-0.356,0-0.699-0.025-0.949-0.065v-8.912
			h5.392c0.053,0.146,0.092,0.422,0.092,0.791C42.54,221.379,42.514,221.629,42.448,221.906z"/>
		<path style="fill:#1A2A4F;" d="M50.963,229.21c-0.171,0.04-0.58,0.065-1.015,0.065c-0.343,0-0.738-0.039-0.91-0.065l-0.659-1.806
			h-3.164l-0.62,1.806c-0.29,0.04-0.633,0.065-0.976,0.065s-0.738-0.025-0.936-0.065l3.111-8.912c0.185-0.04,0.62-0.065,0.91-0.065
			c0.356,0,0.778,0.025,0.923,0.065L50.963,229.21z M47.812,225.835l-0.778-2.519c-0.092-0.289-0.185-0.658-0.264-1.067h-0.026
			c-0.066,0.409-0.171,0.778-0.264,1.067l-0.738,2.519H47.812z"/>
		<path style="fill:#1A2A4F;" d="M54.561,229.342c-0.962,0-2.017-0.185-2.769-0.527c-0.04-0.185-0.066-0.422-0.066-0.633
			c0-0.316,0.04-0.619,0.132-0.976c0.778,0.316,1.806,0.515,2.61,0.515c0.936,0,1.437-0.436,1.437-1.029
			c0-0.658-0.422-0.936-1.701-1.331c-1.424-0.435-2.465-1.12-2.465-2.649c0-1.635,1.411-2.545,3.27-2.545
			c0.857,0,1.622,0.132,2.136,0.303c0.04,0.146,0.066,0.383,0.066,0.726c0,0.251-0.026,0.633-0.079,0.844
			c-0.659-0.171-1.411-0.264-2.017-0.264c-0.989,0-1.529,0.329-1.529,0.856c0,0.62,0.488,0.871,1.674,1.24
			c1.424,0.447,2.479,1.12,2.479,2.702C57.738,228.301,56.38,229.342,54.561,229.342z"/>
		<path style="fill:#1A2A4F;" d="M64.829,221.906h-2.36v7.304c-0.25,0.04-0.606,0.065-0.936,0.065s-0.686-0.025-0.949-0.065v-7.304
			h-2.36c-0.053-0.172-0.092-0.58-0.092-0.805c0-0.224,0.053-0.633,0.105-0.804h6.592c0.053,0.171,0.092,0.58,0.092,0.804
			C64.921,221.326,64.882,221.734,64.829,221.906z"/>
		<path style="fill:#1A2A4F;" d="M64.538,231.596c-0.211-0.145-0.488-0.422-0.567-0.725c0.554-0.396,0.962-0.87,1.147-1.357
			c-0.25-0.225-0.448-0.541-0.448-0.977c0-0.514,0.448-0.936,0.976-0.936c0.593,0,0.989,0.436,0.989,1.081
			C66.634,229.711,65.671,230.938,64.538,231.596z"/>
		<path style="fill:#1A2A4F;" d="M77.351,222.156c-0.633-0.197-1.424-0.342-2.057-0.342c-1.503,0-2.479,1.067-2.479,2.979
			c0,1.754,0.765,2.9,2.465,2.9c0.633,0,1.345-0.131,1.978-0.329c0.092,0.237,0.158,0.606,0.158,0.884c0,0.224-0.013,0.5-0.04,0.619
			c-0.659,0.303-1.503,0.475-2.281,0.475c-2.834,0-4.232-1.714-4.232-4.509c0-2.716,1.503-4.667,4.311-4.667
			c0.686,0,1.582,0.172,2.215,0.448c0.04,0.132,0.053,0.422,0.053,0.593C77.443,221.616,77.39,221.998,77.351,222.156z"/>
		<path style="fill:#1A2A4F;" d="M82.069,229.342c-2.439,0-3.731-1.688-3.731-4.588s1.292-4.588,3.731-4.588
			s3.731,1.688,3.731,4.588S84.508,229.342,82.069,229.342z M82.069,221.787c-1.134,0-1.78,0.871-1.78,2.967s0.646,2.967,1.78,2.967
			s1.78-0.871,1.78-2.967S83.203,221.787,82.069,221.787z"/>
		<path style="fill:#1A2A4F;" d="M92.825,229.21h-5.458v-8.912c0.25-0.04,0.593-0.065,0.923-0.065c0.369,0,0.725,0.025,0.962,0.065
			v7.304h3.573c0.053,0.145,0.092,0.422,0.092,0.791C92.917,228.683,92.891,228.934,92.825,229.21z"/>
		<path style="fill:#1A2A4F;" d="M99.877,229.21H94.3v-8.912h5.458c0.053,0.146,0.092,0.422,0.092,0.791
			c0,0.29-0.026,0.54-0.092,0.817h-3.573v1.925h3.019c0.053,0.146,0.092,0.409,0.092,0.778c0,0.289-0.026,0.527-0.092,0.804h-3.019
			v2.188h3.691c0.053,0.145,0.092,0.422,0.092,0.791C99.969,228.683,99.943,228.934,99.877,229.21z"/>
		<path style="fill:#1A2A4F;" d="M108.023,229.197c-0.343,0.053-0.699,0.078-1.107,0.078c-0.369,0-0.738-0.013-0.989-0.065
			l-1.806-3.204h-0.778v3.204c-0.33,0.053-0.606,0.065-0.962,0.065c-0.316,0-0.593-0.013-0.923-0.065v-8.912
			c0.606-0.04,1.872-0.065,2.637-0.065c2.241,0,3.362,0.791,3.362,2.848c0,1.094-0.659,2.188-1.582,2.584L108.023,229.197z
			 M104.213,221.774c-0.29,0-0.646,0.013-0.87,0.026v2.637h0.659c1.081,0,1.556-0.396,1.556-1.371S105.083,221.774,104.213,221.774z
			"/>
		<path style="fill:#1A2A4F;" d="M117.079,229.21c-0.171,0.04-0.58,0.065-1.015,0.065c-0.343,0-0.738-0.039-0.91-0.065l-0.659-1.806
			h-3.164l-0.62,1.806c-0.29,0.04-0.633,0.065-0.976,0.065s-0.738-0.025-0.936-0.065l3.111-8.912c0.185-0.04,0.62-0.065,0.91-0.065
			c0.356,0,0.778,0.025,0.923,0.065L117.079,229.21z M113.928,225.835l-0.778-2.519c-0.092-0.289-0.185-0.658-0.264-1.067h-0.026
			c-0.066,0.409-0.171,0.778-0.264,1.067l-0.738,2.519H113.928z"/>
		<path style="fill:#1A2A4F;" d="M120.162,229.21c-0.25,0.04-0.554,0.065-0.949,0.065c-0.356,0-0.686-0.025-0.936-0.065v-8.912
			c0.25-0.04,0.62-0.065,0.949-0.065c0.369,0,0.699,0.025,0.936,0.065V229.21z"/>
		<path style="fill:#1A2A4F;" d="M129.311,229.21c-0.132,0.026-0.448,0.053-0.672,0.053s-0.448-0.013-0.659-0.053l-4.1-5.708v5.708
			c-0.105,0.026-0.501,0.065-0.87,0.065c-0.303,0-0.659-0.039-0.844-0.065v-8.912c0.211-0.04,0.461-0.053,0.699-0.053
			c0.25,0,0.514,0.026,0.712,0.053l4.021,5.603v-5.603c0.264-0.04,0.606-0.065,0.857-0.065s0.62,0.025,0.857,0.065V229.21z"/>
		<path style="fill:#1A2A4F;" d="M136.863,229.21h-5.577v-8.912h5.458c0.053,0.146,0.092,0.422,0.092,0.791
			c0,0.29-0.026,0.54-0.092,0.817h-3.573v1.925h3.019c0.053,0.146,0.092,0.409,0.092,0.778c0,0.289-0.026,0.527-0.092,0.804h-3.019
			v2.188h3.691c0.053,0.145,0.092,0.422,0.092,0.791C136.955,228.683,136.929,228.934,136.863,229.21z"/>
		<path style="fill:#1A2A4F;" d="M138.47,231.596c-0.211-0.145-0.488-0.422-0.567-0.725c0.554-0.396,0.962-0.87,1.147-1.357
			c-0.25-0.225-0.448-0.541-0.448-0.977c0-0.514,0.448-0.936,0.976-0.936c0.593,0,0.989,0.436,0.989,1.081
			C140.566,229.711,139.604,230.938,138.47,231.596z"/>
		<path style="fill:#1A2A4F;" d="M149.437,226.139c0,0.83-0.171,1.74-0.765,2.359c-0.567,0.606-1.45,0.844-2.307,0.844
			c-0.633,0-1.345-0.105-1.819-0.277c-0.04-0.171-0.066-0.461-0.066-0.686c0-0.303,0.026-0.553,0.119-0.804
			c0.448,0.118,1.042,0.198,1.45,0.198c0.989,0,1.503-0.527,1.503-1.74v-5.735c0.25-0.04,0.606-0.065,0.936-0.065
			c0.369,0,0.712,0.025,0.949,0.065V226.139z"/>
		<path style="fill:#1A2A4F;" d="M154.695,229.342c-2.438,0-3.73-1.688-3.73-4.588s1.292-4.588,3.73-4.588
			c2.439,0,3.731,1.688,3.731,4.588S157.135,229.342,154.695,229.342z M154.695,221.787c-1.133,0-1.779,0.871-1.779,2.967
			s0.646,2.967,1.779,2.967c1.135,0,1.78-0.871,1.78-2.967S155.83,221.787,154.695,221.787z"/>
		<path style="fill:#1A2A4F;" d="M166.559,229.197c-0.342,0.053-0.698,0.078-1.107,0.078c-0.369,0-0.738-0.013-0.988-0.065
			l-1.807-3.204h-0.777v3.204c-0.33,0.053-0.606,0.065-0.963,0.065c-0.316,0-0.593-0.013-0.922-0.065v-8.912
			c0.605-0.04,1.871-0.065,2.637-0.065c2.24,0,3.361,0.791,3.361,2.848c0,1.094-0.659,2.188-1.582,2.584L166.559,229.197z
			 M162.749,221.774c-0.29,0-0.646,0.013-0.87,0.026v2.637h0.659c1.081,0,1.556-0.396,1.556-1.371S163.619,221.774,162.749,221.774z
			"/>
		<path style="fill:#1A2A4F;" d="M173.624,228.419c-0.817,0.633-1.872,0.856-3.322,0.856c-0.738,0-1.991-0.025-2.413-0.065v-8.912
			c0.646-0.04,1.991-0.065,2.742-0.065c2.9,0,4.391,1.226,4.391,4.416C175.021,226.297,174.586,227.668,173.624,228.419z
			 M170.671,221.787c-0.356,0-0.751,0.014-0.896,0.027v5.866c0.171,0.013,0.567,0.026,0.976,0.026c1.661,0,2.32-1.055,2.32-3.085
			C173.07,222.395,172.385,221.787,170.671,221.787z"/>
		<path style="fill:#1A2A4F;" d="M183.734,229.21c-0.172,0.04-0.58,0.065-1.016,0.065c-0.342,0-0.738-0.039-0.909-0.065
			l-0.659-1.806h-3.164l-0.619,1.806c-0.291,0.04-0.633,0.065-0.977,0.065c-0.342,0-0.738-0.025-0.936-0.065l3.111-8.912
			c0.185-0.04,0.619-0.065,0.91-0.065c0.355,0,0.777,0.025,0.922,0.065L183.734,229.21z M180.584,225.835l-0.778-2.519
			c-0.093-0.289-0.185-0.658-0.264-1.067h-0.026c-0.066,0.409-0.172,0.778-0.264,1.067l-0.738,2.519H180.584z"/>
		<path style="fill:#1A2A4F;" d="M192.051,229.21c-0.131,0.026-0.447,0.053-0.672,0.053s-0.448-0.013-0.659-0.053l-4.101-5.708
			v5.708c-0.105,0.026-0.5,0.065-0.869,0.065c-0.304,0-0.66-0.039-0.844-0.065v-8.912c0.211-0.04,0.461-0.053,0.698-0.053
			c0.251,0,0.515,0.026,0.712,0.053l4.021,5.603v-5.603c0.264-0.04,0.605-0.065,0.856-0.065s0.62,0.025,0.856,0.065V229.21z"/>
		<path style="fill:#1A2A4F;" d="M196.453,229.342c-0.963,0-2.018-0.185-2.77-0.527c-0.039-0.185-0.065-0.422-0.065-0.633
			c0-0.316,0.04-0.619,0.132-0.976c0.777,0.316,1.807,0.515,2.61,0.515c0.937,0,1.437-0.436,1.437-1.029
			c0-0.658-0.422-0.936-1.7-1.331c-1.424-0.435-2.466-1.12-2.466-2.649c0-1.635,1.411-2.545,3.27-2.545
			c0.857,0,1.622,0.132,2.137,0.303c0.039,0.146,0.065,0.383,0.065,0.726c0,0.251-0.026,0.633-0.079,0.844
			c-0.659-0.171-1.41-0.264-2.018-0.264c-0.988,0-1.529,0.329-1.529,0.856c0,0.62,0.488,0.871,1.675,1.24
			c1.424,0.447,2.479,1.12,2.479,2.702C199.63,228.301,198.271,229.342,196.453,229.342z"/>
		<path style="fill:#1A2A4F;" d="M206.722,221.906h-2.36v7.304c-0.25,0.04-0.605,0.065-0.936,0.065s-0.686-0.025-0.949-0.065v-7.304
			h-2.359c-0.053-0.172-0.093-0.58-0.093-0.805c0-0.224,0.053-0.633,0.105-0.804h6.592c0.053,0.171,0.093,0.58,0.093,0.804
			C206.814,221.326,206.774,221.734,206.722,221.906z"/>
		<path style="fill:#1A2A4F;" d="M211.15,229.342c-2.439,0-3.731-1.688-3.731-4.588s1.292-4.588,3.731-4.588
			c2.438,0,3.73,1.688,3.73,4.588S213.589,229.342,211.15,229.342z M211.15,221.787c-1.135,0-1.78,0.871-1.78,2.967
			s0.646,2.967,1.78,2.967c1.133,0,1.779-0.871,1.779-2.967S212.283,221.787,211.15,221.787z"/>
		<path style="fill:#1A2A4F;" d="M224.358,229.21c-0.171,0.026-0.515,0.065-0.884,0.065c-0.355,0-0.711-0.039-0.949-0.065
			l-1.08-4.403c-0.119-0.461-0.186-0.963-0.238-1.397h-0.013c-0.04,0.435-0.146,0.949-0.251,1.397l-1.067,4.403
			c-0.237,0.026-0.606,0.065-0.949,0.065c-0.329,0-0.726-0.039-0.909-0.065l-1.991-6.526c-0.211-0.686-0.343-1.502-0.343-2.386
			c0.277-0.053,0.619-0.065,0.91-0.065c0.487,0,0.725,0.025,0.936,0.065c0,0.856,0.119,1.569,0.277,2.175l0.804,3.046
			c0.118,0.475,0.237,1.095,0.304,1.688h0.025c0.066-0.593,0.172-1.213,0.291-1.7l1.238-5.208c0.238-0.04,0.462-0.065,0.699-0.065
			c0.25,0,0.475,0.025,0.725,0.065l1.266,5.221c0.119,0.475,0.251,1.095,0.316,1.688h0.027c0.065-0.593,0.184-1.213,0.316-1.7
			l0.844-3.033c0.171-0.605,0.303-1.318,0.303-2.175c0.211-0.04,0.594-0.065,0.988-0.065c0.264,0,0.62,0.025,0.871,0.065
			c0,0.976-0.146,1.714-0.356,2.386L224.358,229.21z"/>
		<path style="fill:#1A2A4F;" d="M235.232,229.21c-0.133,0.026-0.449,0.053-0.673,0.053s-0.448-0.013-0.659-0.053l-4.1-5.708v5.708
			c-0.105,0.026-0.502,0.065-0.871,0.065c-0.303,0-0.658-0.039-0.844-0.065v-8.912c0.211-0.04,0.462-0.053,0.699-0.053
			c0.25,0,0.514,0.026,0.712,0.053l4.021,5.603v-5.603c0.264-0.04,0.607-0.065,0.857-0.065s0.619,0.025,0.857,0.065V229.21z"/>
		<path style="fill:#1A2A4F;" d="M236.891,231.596c-0.211-0.145-0.487-0.422-0.566-0.725c0.554-0.396,0.963-0.87,1.146-1.357
			c-0.25-0.225-0.447-0.541-0.447-0.977c0-0.514,0.447-0.936,0.975-0.936c0.594,0,0.989,0.436,0.989,1.081
			C238.987,229.711,238.025,230.938,236.891,231.596z"/>
		<path style="fill:#1A2A4F;" d="M252.645,229.21c-0.158,0.04-0.515,0.065-0.884,0.065c-0.396,0-0.765-0.039-0.923-0.065
			l-0.158-5.353l-1.951,4.509c-0.145,0.053-0.461,0.079-0.659,0.079c-0.237,0-0.527-0.026-0.673-0.066l-1.951-4.521l-0.171,5.353
			c-0.171,0.04-0.58,0.065-0.937,0.065c-0.211,0-0.566-0.025-0.804-0.065l0.382-8.912c0.251-0.026,0.502-0.065,0.766-0.065
			c0.316,0,0.619,0.025,0.777,0.065l2.61,6.052l2.624-6.052c0.264-0.04,0.527-0.065,0.764-0.065c0.304,0,0.58,0.025,0.778,0.065
			L252.645,229.21z"/>
		<path style="fill:#1A2A4F;" d="M262.003,229.21c-0.171,0.04-0.58,0.065-1.015,0.065c-0.344,0-0.738-0.039-0.91-0.065l-0.659-1.806
			h-3.164l-0.62,1.806c-0.289,0.04-0.633,0.065-0.975,0.065c-0.344,0-0.738-0.025-0.937-0.065l3.111-8.912
			c0.185-0.04,0.62-0.065,0.909-0.065c0.356,0,0.778,0.025,0.924,0.065L262.003,229.21z M258.852,225.835l-0.777-2.519
			c-0.092-0.289-0.185-0.658-0.264-1.067h-0.026c-0.065,0.409-0.171,0.778-0.264,1.067l-0.738,2.519H258.852z"/>
		<path style="fill:#1A2A4F;" d="M269.581,228.867c-0.686,0.303-1.806,0.475-2.848,0.475c-2.966,0-4.271-1.898-4.271-4.496
			c0-2.715,1.608-4.68,4.47-4.68c0.816,0,1.753,0.172,2.307,0.408c0.039,0.211,0.066,0.527,0.066,0.673
			c0,0.29-0.053,0.606-0.105,0.804c-0.567-0.184-1.385-0.303-2.137-0.303c-1.898,0-2.649,1.385-2.649,3.072
			c0,1.793,0.791,2.939,2.386,2.939c0.356,0,0.699-0.026,0.896-0.079v-2.848c0.251-0.04,0.594-0.065,0.924-0.065
			c0.369,0,0.725,0.025,0.962,0.065V228.867z"/>
		<path style="fill:#1A2A4F;" d="M276.937,229.21h-5.577v-8.912h5.459c0.053,0.146,0.092,0.422,0.092,0.791
			c0,0.29-0.026,0.54-0.092,0.817h-3.573v1.925h3.019c0.053,0.146,0.093,0.409,0.093,0.778c0,0.289-0.026,0.527-0.093,0.804h-3.019
			v2.188h3.691c0.053,0.145,0.093,0.422,0.093,0.791C277.029,228.683,277.002,228.934,276.937,229.21z"/>
		<path style="fill:#1A2A4F;" d="M283.948,229.21h-5.577v-8.912h5.459c0.053,0.146,0.092,0.422,0.092,0.791
			c0,0.29-0.026,0.54-0.092,0.817h-3.573v1.925h3.019c0.053,0.146,0.093,0.409,0.093,0.778c0,0.289-0.026,0.527-0.093,0.804h-3.019
			v2.188h3.691c0.053,0.145,0.093,0.422,0.093,0.791C284.041,228.683,284.014,228.934,283.948,229.21z"/>
		<path style="fill:#1A2A4F;" d="M287.098,225.308c0-1.846-0.686-3.639-1.978-5.01c0.185-0.264,0.646-0.633,1.042-0.712
			c1.647,1.463,2.715,3.414,2.715,5.722c0,2.268-1.027,4.166-2.715,5.722c-0.396-0.079-0.857-0.448-1.042-0.712
			C286.359,228.894,287.098,227.153,287.098,225.308z"/>
	</g>
</g>
<g id="Buildings">
	<polygon style="fill:#FFFFFF;" points="105.977,122.826 50.798,144.786 50.798,172.686 105.977,172.686 	"/>
	<path style="fill:#FFFFFF;" d="M145.547,142.899c10.009,1.243,19.695,2.443,29.491,3.657v5.859
		c-4.366-0.401-8.598-0.777-12.827-1.185c-4.896-0.473-9.785-1.036-14.691-1.425c-1.482-0.117-2.141-0.505-2-2.091
		C145.652,146.227,145.547,144.718,145.547,142.899"/>
	<path style="fill:#FFFFFF;" d="M175.165,96.12c-3.608-1.257-6.938-2.411-10.261-3.58c-5.93-2.089-11.845-4.215-17.79-6.263
		c-1.166-0.402-1.689-0.961-1.593-2.246c0.114-1.557,0.026-3.128,0.026-4.985c3.839,1.444,7.44,2.792,11.04,4.153
		c5.45,2.061,10.882,4.179,16.361,6.165c1.616,0.586,2.57,1.296,2.248,3.201C175.017,93.629,175.165,94.749,175.165,96.12"/>
	<path style="fill:#FFFFFF;" d="M175.165,141.195c-9.987-1.487-19.729-2.936-29.53-4.394v-6.59c2.866,0.467,5.609,0.888,8.341,1.363
		c6.577,1.148,13.144,2.35,19.726,3.461c1.031,0.174,1.528,0.487,1.479,1.589C175.119,138.052,175.165,139.483,175.165,141.195"/>
	<path style="fill:#FFFFFF;" d="M175.101,157.824v5.876c-9.802-0.45-19.521-0.894-29.395-1.345v-6.659
		C155.527,156.406,165.246,157.109,175.101,157.824"/>
	<path style="fill:#FFFFFF;" d="M175.167,107.404c-3.85-1.166-7.34-2.23-10.831-3.283c-5.757-1.738-11.512-3.499-17.287-5.182
		c-1.138-0.333-1.6-0.85-1.525-2.053c0.1-1.559,0.024-3.129,0.024-4.954c0.941,0.249,1.682,0.403,2.398,0.638
		c8.261,2.714,16.498,5.507,24.794,8.111c1.886,0.593,2.769,1.37,2.45,3.384C175.042,105.021,175.167,106.017,175.167,107.404"/>
	<path style="fill:#FFFFFF;" d="M175.167,129.932c-10.016-2-19.684-3.932-29.475-5.889v-6.634
		c5.429,1.206,10.774,2.385,16.116,3.586c3.823,0.862,7.628,1.814,11.471,2.595c1.387,0.282,2.086,0.748,1.915,2.282
		C175.058,127.091,175.167,128.336,175.167,129.932"/>
	<path style="fill:#FFFFFF;" d="M175.065,112.75v5.882c-6.098-1.519-12.06-2.998-18.016-4.49c-3.367-0.844-6.715-1.753-10.095-2.539
		c-1.017-0.238-1.46-0.637-1.42-1.703c0.061-1.68,0.016-3.364,0.016-5.32C155.558,107.35,165.257,110.035,175.065,112.75"/>
	<path style="fill:#FFFFFF;" d="M117.314,118.659c0-1.945-0.09-3.453,0.047-4.938c0.049-0.515,0.551-1.198,1.029-1.428
		c5.299-2.561,10.633-5.045,16.336-7.729c0,2.164,0.04,4.09-0.037,6.014c-0.013,0.336-0.439,0.809-0.787,0.959
		C128.519,113.88,123.117,116.178,117.314,118.659"/>
	<path style="fill:#FFFFFF;" d="M117.244,129.948c0-2.041-0.034-3.705,0.031-5.363c0.012-0.289,0.399-0.7,0.706-0.818
		c5.465-2.118,10.944-4.2,16.752-6.415c0,2.161,0.037,4.035-0.033,5.904c-0.013,0.336-0.411,0.84-0.739,0.954
		C128.555,126.099,123.13,127.939,117.244,129.948"/>
	<path style="fill:#FFFFFF;" d="M134.625,155.719v6.613c-5.673,0.455-11.315,0.906-17.294,1.385c0-1.842-0.074-3.452,0.056-5.048
		c0.03-0.374,0.715-0.941,1.153-0.998C123.845,156.981,129.16,156.368,134.625,155.719"/>
	<path style="fill:#FFFFFF;" d="M117.319,152.433c0-1.853-0.072-3.416,0.05-4.966c0.032-0.4,0.621-0.995,1.044-1.09
		c5.342-1.186,10.697-2.296,16.312-3.483c0,2.102,0.05,3.983-0.043,5.856c-0.017,0.347-0.569,0.895-0.941,0.959
		C128.404,150.635,123.055,151.493,117.319,152.433"/>
	<path style="fill:#FFFFFF;" d="M117.323,141.17c0-1.832-0.056-3.445,0.041-5.048c0.023-0.376,0.501-0.932,0.878-1.048
		c5.356-1.652,10.731-3.243,16.493-4.963c0,2.159,0.05,4.024-0.045,5.882c-0.018,0.368-0.545,0.922-0.932,1.023
		C128.397,138.412,123.021,139.744,117.323,141.17"/>
	<path style="fill:#FFFFFF;" d="M117.32,96.132c0-2.083-0.057-3.64,0.039-5.188c0.026-0.428,0.415-0.969,0.793-1.218
		c5.37-3.513,10.765-6.984,16.544-10.718c0,2.32,0.021,4.302-0.027,6.28c-0.006,0.25-0.319,0.573-0.572,0.725
		C128.672,89.303,123.234,92.571,117.32,96.132"/>
	<path style="fill:#FFFFFF;" d="M134.736,91.765c0,2.279,0.037,4.094-0.03,5.904c-0.015,0.377-0.327,0.911-0.654,1.083
		c-5.434,2.842-10.892,5.636-16.729,8.64c0-1.961-0.058-3.572,0.037-5.173c0.026-0.414,0.446-0.952,0.834-1.172
		C123.538,98.013,128.906,95.025,134.736,91.765"/>
	<path style="fill:#FFFFFF;" d="M232.662,158.895c4.212,0.494,8.423,1.001,12.636,1.484c2.23,0.255,1.224,1.795,1.439,3.14
		c-4.65-0.442-9.067-0.763-13.442-1.403c-0.56-0.084-0.878-1.824-1.308-2.798C232.21,159.178,232.436,159.034,232.662,158.895"/>
	<path style="fill:#FFFFFF;" d="M246.449,168.983c-0.365,0-0.624,0.012-0.879-0.003c-4.315-0.226-8.629-0.455-13.102-0.691v-3.204
		c2.559,0.149,5.136,0.294,7.714,0.458c1.371,0.088,2.738,0.234,4.112,0.307C246.925,165.987,247.034,166.119,246.449,168.983"/>
	<path style="fill:#FFFFFF;" d="M246.479,147.074c-4.503-1.12-8.955-2.119-13.312-3.429c-0.621-0.187-0.795-1.872-1.176-2.864
		c0.173-0.14,0.342-0.281,0.513-0.421c1.474,0.372,2.951,0.721,4.417,1.124c2.581,0.71,5.121,1.607,7.737,2.134
		C246.664,144.021,247.115,144.997,246.479,147.074"/>
	<path style="fill:#FFFFFF;" d="M246.455,158.027c-4.431-0.657-8.889-1.227-13.289-2.091c-0.544-0.107-0.78-1.788-1.158-2.74
		c0.178-0.159,0.354-0.318,0.53-0.477c2.861,0.471,5.724,0.935,8.581,1.417c1.097,0.183,2.177,0.434,3.271,0.615
		C247.016,155.187,247.049,155.226,246.455,158.027"/>
	<path style="fill:#FFFFFF;" d="M232.562,134.163c1.868,0.59,3.713,1.156,5.549,1.756c2.229,0.728,4.413,1.632,6.684,2.184
		c1.997,0.486,2.272,1.567,1.674,3.481c-2.812-0.834-5.601-1.655-8.384-2.49c-1.187-0.355-2.362-0.747-3.546-1.106
		C232.025,137.225,232.023,137.23,232.562,134.163"/>
	<path style="fill:#FFFFFF;" d="M246.599,152.584c-4.514-0.905-8.883-1.711-13.211-2.686c-2.036-0.458-0.736-2.093-1.035-3.45
		c4.613,1.036,9.021,1.964,13.394,3.04C247.516,149.922,246.562,151.327,246.599,152.584"/>
	<path style="fill:#FFFFFF;" d="M232.519,127.942c2.532,0.947,5.022,1.874,7.512,2.813c1.591,0.599,3.139,1.356,4.771,1.786
		c1.941,0.512,2.288,1.613,1.669,3.563c-2.189-0.758-4.325-1.495-6.458-2.238c-1.791-0.625-3.578-1.256-5.367-1.882
		C232.063,131.08,232.063,131.081,232.519,127.942"/>
	<path style="fill:#FFFFFF;" d="M197.159,160.39c1.306,0,2.343-0.028,3.378,0.013c0.444,0.016,0.88,0.178,1.405,0.295v5.919
		c-1.264,0-2.547,0.085-3.806-0.054c-0.362-0.04-0.906-0.706-0.934-1.115C197.097,163.829,197.159,162.195,197.159,160.39"/>
	<path style="fill:#FFFFFF;" d="M201.859,127.998c-0.249,0.032-0.383,0.082-0.505,0.062c-4.433-0.752-4.843-1.472-4.02-7.027
		C201.83,121.161,202.626,122.364,201.859,127.998"/>
	<path style="fill:#FFFFFF;" d="M197.16,140.604c4.901,0.328,4.901,0.328,4.886,4.67c-0.001,0.64,0,1.28,0,2.161
		c-1.464-0.176-2.743-0.261-3.981-0.521c-0.358-0.075-0.844-0.647-0.862-1.012C197.11,144.156,197.16,142.406,197.16,140.604"/>
	<path style="fill:#FFFFFF;" d="M201.926,150.925v5.867c-0.132,0.084-0.237,0.211-0.335,0.207c-4.947-0.204-4.947-0.204-4.267-6.599
		C198.818,150.57,200.314,150.741,201.926,150.925"/>
	<path style="fill:#FFFFFF;" d="M197.328,111.085c4.885,0.883,5.304,1.569,4.554,7.271
		C197.17,117.872,196.573,116.939,197.328,111.085"/>
	<path style="fill:#FFFFFF;" d="M197.411,130.664c1.451,0.321,2.898,0.642,4.635,1.025v3.036v2.84
		c-0.298,0.104-0.418,0.191-0.522,0.174C196.607,136.993,196.31,136.493,197.411,130.664"/>
	<path style="fill:#FFFFFF;" d="M205.892,160.854c1.322,0.106,2.668,0.212,4.162,0.33v5.597
		C205.69,167.779,204.468,166.056,205.892,160.854"/>
	<path style="fill:#FFFFFF;" d="M205.835,132.841c4.318-0.024,5.305,1.535,4.071,6.433
		C205.171,138.894,204.573,137.952,205.835,132.841"/>
	<path style="fill:#FFFFFF;" d="M205.723,113.905c5.306,1.399,4.623,0.38,4.294,6.877
		C205.674,120.535,204.994,119.469,205.723,113.905"/>
	<path style="fill:#FFFFFF;" d="M210.019,129.951c-4.346,0.019-5.19-1.309-4.255-6.519
		C210.033,123.537,210.706,124.542,210.019,129.951"/>
	<path style="fill:#FFFFFF;" d="M205.767,142.25c5.261,0.333,4.594-0.157,4.227,6.103
		C205.849,148.976,204.889,147.625,205.767,142.25"/>
	<path style="fill:#FFFFFF;" d="M209.979,157.589c-4.995,0.079-4.669,0.914-4.242-5.843
		C210.909,151.49,210.426,151.503,209.979,157.589"/>
	<path style="fill:#FFFFFF;" d="M185.075,160.396c1.18-0.06,2.251-0.113,3.429-0.172c0.047,0.444,0.104,0.756,0.107,1.064
		c0.01,1.623,0.005,3.247,0.005,5.149c-1.192,0.095-2.295,0.179-3.541,0.277V160.396z"/>
	<path style="fill:#FFFFFF;" d="M213.961,116.671c4.55,1.207,3.957,0.09,3.702,6.418
		C213.671,122.904,212.909,121.582,213.961,116.671"/>
	<path style="fill:#FFFFFF;" d="M213.928,143.427c1.343,0.263,2.542,0.498,3.788,0.742v5.362
		C213.639,149.772,213.087,148.9,213.928,143.427"/>
	<path style="fill:#FFFFFF;" d="M213.854,161.44c1.368,0.086,2.571,0.165,3.855,0.248v5.518h-3.855V161.44z"/>
	<path style="fill:#FFFFFF;" d="M188.504,156.588c-1.25,0.119-2.265,0.216-3.538,0.336c0-1.912-0.065-3.65,0.051-5.378
		c0.026-0.372,0.648-0.884,1.088-1.007c0.722-0.206,1.518-0.146,2.399-0.209V156.588z"/>
	<path style="fill:#FFFFFF;" d="M217.683,158.527c-1.381-0.113-2.592-0.211-3.967-0.323c0-1.438-0.01-2.671,0.005-3.903
		c0.007-0.574,0.062-1.147,0.105-1.88c1.338,0.178,2.539,0.34,3.856,0.518V158.527z"/>
	<path style="fill:#FFFFFF;" d="M217.643,140.94c-1.338-0.26-2.54-0.493-3.829-0.744v-5.494
		C218.651,135.165,217.882,134.723,217.643,140.94"/>
	<path style="fill:#FFFFFF;" d="M185.055,131.236c1.15-0.284,2.218-0.547,3.437-0.846v6.306c-1.075,0.238-2.19,0.481-3.437,0.757
		V131.236z"/>
	<path style="fill:#FFFFFF;" d="M188.61,120.315c0,2.137,0.355,4.058-0.146,5.72c-0.26,0.865-2.028,1.277-3.506,2.116
		c0-2.312-0.147-4.025,0.038-5.699C185.225,120.398,187.248,121.252,188.61,120.315"/>
	<path style="fill:#FFFFFF;" d="M217.571,132.146c-1.344-0.343-2.527-0.646-3.747-0.957v-5.501
		C217.891,126.002,218.406,126.872,217.571,132.146"/>
	<path style="fill:#FFFFFF;" d="M188.502,146.608c-1.065,0.176-2.127,0.35-3.526,0.58c0-1.983-0.066-3.775,0.06-5.555
		c0.021-0.346,0.755-0.765,1.233-0.925c0.667-0.22,1.403-0.226,2.233-0.34V146.608z"/>
	<path style="fill:#FFFFFF;" d="M188.608,110.781c0,1.75,0.369,3.616-0.137,5.207c-0.303,0.954-1.966,1.479-3.017,2.194
		c-0.166-0.155-0.33-0.312-0.496-0.467c0-1.695-0.381-3.52,0.139-5.035c0.34-1.002,1.978-1.562,3.033-2.319
		C188.291,110.501,188.451,110.641,188.608,110.781"/>
	<path style="fill:#FFFFFF;" d="M226.988,152.692c0.509,3.151,0.509,3.152-2.148,3.808c-1.183,0.292-2.365,0.578-3.536,0.864
		c-0.765-2.628-0.697-2.766,1.615-3.463C224.266,153.494,225.613,153.1,226.988,152.692"/>
	<path style="fill:#FFFFFF;" d="M221.166,146.072c-0.533-1.896-0.363-3.129,1.509-3.786c1.46-0.511,2.831-1.271,4.372-1.98
		c0.397,2.026,0.404,3.507-1.874,4.098C223.817,144.755,222.56,145.478,221.166,146.072"/>
	<path style="fill:#FFFFFF;" d="M221.187,163.093c-0.666-2.097-0.266-3.267,1.896-3.468c1.296-0.121,2.566-0.465,3.846-0.705
		c0.696,2.927,0.609,3.063-2.225,3.576C223.556,162.704,222.403,162.888,221.187,163.093"/>
	<path style="fill:#FFFFFF;" d="M227.15,165.045v3.223c-2.019,0.175-3.985,0.347-5.922,0.515c-0.592-2.853-0.434-3.077,2.073-3.323
		C224.523,165.34,225.742,165.197,227.15,165.045"/>
	<path style="fill:#FFFFFF;" d="M221.104,134.737c-0.353-3.042,1.226-4.68,5.988-6.566c0.367,1.799,0.271,3.249-1.751,4.104
		C223.925,132.871,222.659,133.815,221.104,134.737"/>
	<path style="fill:#FFFFFF;" d="M227.061,146.479c0.336,3.168,0.336,3.171-2.393,4.091c-1.053,0.354-2.106,0.701-3.162,1.035
		c-0.107,0.033-0.249-0.043-0.386-0.07c-0.636-1.895-0.117-3.071,1.955-3.571C224.386,147.649,225.622,147.027,227.061,146.479"/>
	<path style="fill:#FFFFFF;" d="M226.969,134.173c0.63,2.111,0.277,3.457-1.767,4.196c-1.336,0.484-2.562,1.27-3.993,1.999
		c-0.506-1.693-0.58-2.956,1.258-3.765C223.992,135.931,225.418,135.023,226.969,134.173"/>
	<path style="fill:#FFFFFF;" d="M182.249,140.965v6.675c-0.911,0.127-1.78,0.248-2.907,0.404c0-1.802-0.266-3.491,0.114-5.019
		C179.641,142.276,181.021,141.823,182.249,140.965"/>
	<path style="fill:#FFFFFF;" d="M182.359,122.574c0,1.732,0.246,3.519-0.116,5.172c-0.153,0.705-1.576,1.131-2.897,1.995
		c0-2.314-0.262-4.04,0.111-5.618c0.187-0.787,1.536-1.297,2.359-1.931C181.997,122.319,182.177,122.446,182.359,122.574"/>
	<path style="fill:#FFFFFF;" d="M179.349,138.513c0-1.674-0.263-3.41,0.114-4.995c0.175-0.745,1.573-1.201,2.909-2.13
		c0,2.395,0.257,4.131-0.113,5.722c-0.173,0.743-1.563,1.204-2.402,1.792C179.688,138.771,179.518,138.643,179.349,138.513"/>
	<path style="fill:#FFFFFF;" d="M182.369,113.094c0,1.683,0.269,3.43-0.114,5.02c-0.188,0.78-1.59,1.268-2.905,2.224
		c0-2.381-0.268-4.127,0.112-5.719c0.188-0.787,1.562-1.289,2.4-1.92C182.032,112.83,182.2,112.962,182.369,113.094"/>
	<path style="fill:#FFFFFF;" d="M182.266,160.892v5.784c-0.883,0.054-1.753,0.108-2.919,0.177c0-1.779-0.218-3.485,0.112-5.078
		c0.129-0.62,1.496-0.986,2.299-1.467C181.929,160.502,182.096,160.697,182.266,160.892"/>
	<path style="fill:#FFFFFF;" d="M182.283,151.446v5.734c-0.955,0.076-1.826,0.146-2.939,0.232c0-1.767-0.246-3.431,0.11-4.954
		c0.163-0.696,1.512-1.118,2.323-1.664C181.945,151.01,182.114,151.23,182.283,151.446"/>
	<path style="fill:#C0588E;" d="M182.283,151.446c-0.169-0.216-0.338-0.437-0.506-0.651c-0.812,0.546-2.16,0.968-2.323,1.664
		c-0.356,1.523-0.11,3.188-0.11,4.954c1.114-0.087,1.982-0.156,2.939-0.232V151.446z M182.266,160.894
		c-0.169-0.196-0.339-0.392-0.509-0.586c-0.802,0.48-2.169,0.847-2.298,1.467c-0.33,1.593-0.11,3.3-0.11,5.078
		c1.164-0.07,2.034-0.123,2.917-0.177V160.894z M182.369,113.094c-0.169-0.132-0.338-0.264-0.507-0.395
		c-0.838,0.63-2.213,1.134-2.399,1.919c-0.379,1.593-0.114,3.339-0.114,5.72c1.315-0.957,2.718-1.443,2.906-2.224
		C182.638,116.525,182.369,114.776,182.369,113.094 M179.349,138.513c0.17,0.13,0.337,0.259,0.508,0.39
		c0.839-0.589,2.229-1.048,2.402-1.792c0.372-1.591,0.113-3.328,0.113-5.724c-1.334,0.93-2.733,1.387-2.909,2.132
		C179.088,135.103,179.349,136.838,179.349,138.513 M182.359,122.574c-0.183-0.129-0.362-0.257-0.544-0.384
		c-0.822,0.636-2.172,1.147-2.358,1.932c-0.373,1.577-0.111,3.305-0.111,5.62c1.321-0.865,2.744-1.292,2.897-1.996
		C182.605,126.092,182.359,124.307,182.359,122.574 M182.247,140.965c-1.226,0.858-2.605,1.312-2.791,2.06
		c-0.381,1.529-0.114,3.217-0.114,5.02c1.127-0.157,1.997-0.277,2.905-0.403V140.965z M226.969,134.173
		c-1.551,0.85-2.977,1.757-4.502,2.43c-1.838,0.81-1.764,2.072-1.258,3.765c1.432-0.729,2.657-1.516,3.993-1.999
		C227.246,137.629,227.599,136.285,226.969,134.173 M227.061,146.478c-1.438,0.548-2.674,1.171-3.987,1.486
		c-2.07,0.499-2.589,1.677-1.955,3.571c0.142,0.027,0.28,0.103,0.388,0.068c1.056-0.332,2.109-0.68,3.162-1.033
		C227.396,149.649,227.396,149.647,227.061,146.478 M221.104,134.737c1.556-0.922,2.821-1.866,4.237-2.462
		c2.022-0.855,2.118-2.305,1.751-4.104C222.329,130.058,220.751,131.695,221.104,134.737 M227.15,165.045
		c-1.408,0.152-2.627,0.293-3.848,0.412c-2.508,0.248-2.666,0.473-2.074,3.325c1.937-0.168,3.903-0.34,5.922-0.516V165.045z
		 M221.189,163.093c1.212-0.205,2.364-0.387,3.513-0.595c2.838-0.515,2.923-0.651,2.227-3.58c-1.278,0.242-2.55,0.586-3.844,0.706
		C220.92,159.827,220.521,160.995,221.189,163.093 M221.166,146.073c1.394-0.594,2.652-1.316,4.007-1.668
		c2.277-0.589,2.271-2.074,1.876-4.098c-1.543,0.709-2.914,1.469-4.375,1.98C220.802,142.943,220.633,144.174,221.166,146.073
		 M226.99,152.69c-1.377,0.408-2.725,0.806-4.071,1.211c-2.311,0.697-2.38,0.834-1.615,3.463c1.173-0.286,2.354-0.574,3.536-0.864
		C227.499,155.845,227.499,155.842,226.99,152.69 M188.61,110.781c-0.159-0.14-0.316-0.279-0.479-0.42
		c-1.057,0.756-2.693,1.317-3.037,2.319c-0.517,1.515-0.134,3.34-0.134,5.035c0.164,0.155,0.328,0.312,0.494,0.467
		c1.051-0.717,2.714-1.241,3.017-2.194C188.978,114.397,188.61,112.532,188.61,110.781 M188.502,146.609v-6.242
		c-0.831,0.116-1.568,0.122-2.233,0.343c-0.479,0.158-1.212,0.579-1.235,0.922c-0.124,1.78-0.058,3.574-0.058,5.557
		C186.374,146.957,187.436,146.783,188.502,146.609 M217.571,132.146c0.834-5.275,0.319-6.145-3.748-6.458v5.501
		C215.044,131.5,216.228,131.803,217.571,132.146 M188.61,120.315c-1.362,0.938-3.386,0.083-3.613,2.137
		c-0.187,1.676-0.038,3.386-0.038,5.699c1.478-0.838,3.246-1.25,3.506-2.117C188.966,124.373,188.61,122.452,188.61,120.315
		 M185.054,131.237v6.217c1.247-0.276,2.362-0.522,3.438-0.757v-6.307C187.272,130.691,186.206,130.952,185.054,131.237
		 M217.64,140.94c0.242-6.216,1.012-5.773-3.826-6.237v5.496C215.103,140.449,216.303,140.68,217.64,140.94 M217.683,158.525v-5.587
		c-1.317-0.178-2.519-0.337-3.856-0.518c-0.044,0.732-0.1,1.306-0.105,1.883c-0.015,1.229-0.005,2.462-0.005,3.9
		C215.091,158.315,216.3,158.414,217.683,158.525 M188.507,156.588v-6.255c-0.886,0.06-1.681,0.003-2.402,0.206
		c-0.44,0.125-1.062,0.635-1.087,1.007c-0.115,1.728-0.051,3.466-0.051,5.378C186.241,156.804,187.254,156.707,188.507,156.588
		 M213.854,161.44v5.766h3.857v-5.518C216.426,161.604,215.222,161.525,213.854,161.44 M213.929,143.426
		c-0.842,5.474-0.291,6.346,3.787,6.106v-5.363C216.469,143.926,215.271,143.69,213.929,143.426 M213.961,116.671
		c-1.052,4.91-0.29,6.234,3.702,6.418C217.918,116.761,218.511,117.878,213.961,116.671 M185.075,160.396v6.319
		c1.244-0.099,2.349-0.187,3.54-0.277c0-1.902,0.006-3.524-0.004-5.147c-0.003-0.311-0.061-0.622-0.107-1.065
		C187.327,160.282,186.255,160.334,185.075,160.396 M209.979,157.589c0.447-6.086,0.931-6.098-4.242-5.843
		C205.31,158.503,204.983,157.668,209.979,157.589 M205.767,142.249c-0.88,5.376,0.082,6.728,4.228,6.103
		C210.36,142.094,211.027,142.583,205.767,142.249 M210.018,129.951c0.689-5.41,0.016-6.416-4.254-6.517
		C204.826,128.642,205.672,129.969,210.018,129.951 M205.722,113.905c-0.729,5.564-0.048,6.63,4.296,6.877
		C210.346,114.285,211.028,115.304,205.722,113.905 M205.835,132.84c-1.262,5.11-0.664,6.055,4.073,6.434
		C211.14,134.376,210.154,132.817,205.835,132.84 M205.892,160.854c-1.423,5.202-0.199,6.926,4.159,5.927v-5.597
		C208.561,161.065,207.216,160.96,205.892,160.854 M197.411,130.664c-1.102,5.831-0.804,6.328,4.112,7.077
		c0.104,0.014,0.225-0.072,0.522-0.176v-2.84v-3.036C200.31,131.306,198.862,130.985,197.411,130.664 M197.329,111.084
		c-0.756,5.854-0.159,6.787,4.553,7.271C202.63,112.655,202.214,111.968,197.329,111.084 M201.926,150.925
		c-1.61-0.184-3.107-0.354-4.599-0.523c-0.684,6.394-0.684,6.396,4.261,6.596c0.101,0.006,0.206-0.12,0.338-0.205V150.925z
		 M197.16,140.604c0,1.803-0.05,3.553,0.041,5.296c0.02,0.366,0.506,0.938,0.863,1.012c1.24,0.262,2.518,0.347,3.984,0.523
		c0-0.88-0.004-1.521,0-2.161C202.061,140.931,202.061,140.931,197.16,140.604 M201.86,127.998c0.766-5.634-0.03-6.835-4.525-6.965
		c-0.823,5.553-0.413,6.273,4.02,7.028C201.477,128.08,201.611,128.031,201.86,127.998 M197.159,160.39
		c0,1.806-0.062,3.439,0.044,5.06c0.027,0.407,0.571,1.073,0.935,1.113c1.257,0.139,2.541,0.054,3.805,0.054v-5.921
		c-0.522-0.113-0.961-0.277-1.405-0.293C199.502,160.361,198.465,160.39,197.159,160.39 M232.519,127.942
		c-0.453,3.14-0.453,3.138,2.127,4.04c1.788,0.627,3.576,1.26,5.367,1.884c2.133,0.744,4.268,1.48,6.458,2.238
		c0.619-1.951,0.271-3.051-1.669-3.562c-1.633-0.431-3.182-1.188-4.771-1.787C237.544,129.816,235.052,128.889,232.519,127.942
		 M246.597,152.584c-0.036-1.259,0.919-2.66-0.851-3.097c-4.372-1.074-8.78-2.003-13.396-3.04c0.301,1.357-0.999,2.993,1.037,3.452
		C237.716,150.873,242.085,151.677,246.597,152.584 M232.562,134.163c-0.54,3.067-0.539,3.062,1.977,3.824
		c1.185,0.358,2.359,0.751,3.546,1.106c2.783,0.836,5.571,1.655,8.386,2.49c0.597-1.914,0.319-2.995-1.676-3.481
		c-2.271-0.552-4.455-1.456-6.684-2.184C236.276,135.32,234.432,134.753,232.562,134.163 M246.455,158.027
		c0.594-2.803,0.561-2.841-2.065-3.275c-1.094-0.183-2.174-0.433-3.271-0.617c-2.857-0.48-5.72-0.944-8.579-1.413
		c-0.178,0.156-0.354,0.313-0.532,0.475c0.378,0.952,0.614,2.634,1.158,2.74C237.566,156.801,242.024,157.37,246.455,158.027
		 M246.479,147.074c0.635-2.076,0.185-3.053-1.82-3.456c-2.616-0.528-5.156-1.425-7.737-2.135c-1.466-0.404-2.943-0.752-4.417-1.124
		c-0.171,0.14-0.342,0.281-0.51,0.421c0.378,0.991,0.552,2.677,1.173,2.865C237.524,144.955,241.977,145.956,246.479,147.074
		 M246.449,168.983c0.585-2.864,0.476-2.996-2.154-3.135c-1.373-0.071-2.741-0.218-4.112-0.307
		c-2.576-0.162-5.155-0.307-7.714-0.459v3.206c4.473,0.236,8.786,0.466,13.1,0.691C245.825,168.995,246.084,168.983,246.449,168.983
		 M232.662,158.895c-0.227,0.14-0.452,0.283-0.675,0.423c0.43,0.975,0.748,2.716,1.308,2.798c4.375,0.641,8.792,0.96,13.442,1.401
		c-0.216-1.342,0.791-2.883-1.439-3.138C241.085,159.896,236.874,159.389,232.662,158.895 M134.736,91.765
		c-5.831,3.261-11.201,6.247-16.542,9.279c-0.389,0.222-0.807,0.76-0.833,1.174c-0.095,1.601-0.039,3.211-0.039,5.171
		c5.839-3.002,11.297-5.796,16.73-8.638c0.328-0.171,0.639-0.706,0.654-1.082C134.773,95.858,134.736,94.044,134.736,91.765
		 M117.32,96.132c5.914-3.562,11.351-6.831,16.777-10.119c0.253-0.153,0.567-0.476,0.573-0.725c0.045-1.98,0.026-3.96,0.026-6.28
		c-5.779,3.732-11.177,7.204-16.544,10.716c-0.38,0.249-0.767,0.792-0.795,1.22C117.262,92.492,117.32,94.048,117.32,96.132
		 M117.325,141.17c5.695-1.427,11.072-2.759,16.433-4.154c0.387-0.101,0.914-0.656,0.932-1.023c0.097-1.857,0.045-3.723,0.045-5.882
		c-5.761,1.72-11.136,3.311-16.491,4.963c-0.381,0.116-0.856,0.672-0.88,1.048C117.269,137.726,117.325,139.339,117.325,141.17
		 M117.319,152.433c5.736-0.938,11.085-1.796,16.423-2.724c0.372-0.064,0.922-0.614,0.939-0.958
		c0.094-1.874,0.044-3.754,0.044-5.855c-5.615,1.185-10.972,2.296-16.313,3.482c-0.425,0.094-1.012,0.689-1.044,1.089
		C117.246,149.015,117.319,150.582,117.319,152.433 M134.625,155.719c-5.464,0.649-10.781,1.263-16.085,1.952
		c-0.439,0.057-1.123,0.624-1.153,0.998c-0.13,1.596-0.055,3.209-0.055,5.048c5.978-0.478,11.62-0.93,17.293-1.385V155.719z
		 M117.243,129.95c5.887-2.01,11.312-3.85,16.718-5.738c0.329-0.116,0.725-0.618,0.738-0.954c0.071-1.871,0.034-3.747,0.034-5.905
		c-5.807,2.215-11.288,4.297-16.754,6.415c-0.304,0.118-0.69,0.528-0.702,0.817C117.21,126.244,117.243,127.907,117.243,129.95
		 M117.313,118.66c5.803-2.482,11.206-4.78,16.589-7.122c0.348-0.151,0.774-0.622,0.788-0.96c0.075-1.921,0.038-3.849,0.038-6.013
		c-5.704,2.685-11.039,5.169-16.338,7.729c-0.477,0.229-0.979,0.914-1.029,1.428C117.224,115.207,117.313,116.713,117.313,118.66
		 M175.065,112.751c-9.809-2.715-19.508-5.401-29.515-8.17c0,1.956,0.045,3.641-0.016,5.32c-0.04,1.065,0.403,1.465,1.42,1.701
		c3.378,0.787,6.728,1.697,10.093,2.542c5.958,1.492,11.92,2.97,18.018,4.489V112.751z M175.165,129.933
		c0-1.596-0.107-2.842,0.028-4.06c0.171-1.535-0.528-2-1.917-2.283c-3.841-0.779-7.646-1.735-11.471-2.594
		c-5.34-1.202-10.686-2.381-16.116-3.587v6.635C155.485,126,165.15,127.931,175.165,129.933 M175.165,107.405
		c0-1.389-0.125-2.384,0.026-3.338c0.318-2.015-0.566-2.792-2.449-3.384c-8.298-2.604-16.534-5.396-24.796-8.11
		c-0.714-0.236-1.457-0.391-2.397-0.639c0,1.825,0.076,3.395-0.022,4.954c-0.079,1.203,0.385,1.72,1.523,2.053
		c5.775,1.683,11.53,3.443,17.287,5.182C167.827,105.175,171.315,106.238,175.165,107.405 M175.099,157.823
		c-9.853-0.714-19.569-1.417-29.391-2.127v6.659c9.871,0.451,19.593,0.895,29.391,1.345V157.823z M175.165,141.194
		c0-1.71-0.046-3.143,0.017-4.569c0.048-1.102-0.447-1.417-1.48-1.591c-6.582-1.111-13.148-2.311-19.726-3.458
		c-2.731-0.478-5.474-0.898-8.341-1.365v6.59C155.436,138.259,165.178,139.707,175.165,141.194 M175.165,96.121
		c0-1.371-0.148-2.492,0.032-3.558c0.322-1.904-0.63-2.613-2.248-3.2c-5.479-1.986-10.911-4.102-16.361-6.163
		c-3.6-1.36-7.2-2.71-11.04-4.154c0,1.858,0.089,3.43-0.026,4.987c-0.096,1.284,0.427,1.841,1.593,2.245
		c5.943,2.047,11.86,4.174,17.79,6.263C168.228,93.71,171.557,94.861,175.165,96.121 M145.547,142.899
		c0,1.82,0.104,3.328-0.027,4.816c-0.143,1.586,0.518,1.976,2,2.091c4.906,0.388,9.794,0.954,14.691,1.425
		c4.229,0.407,8.461,0.783,12.827,1.185v-5.859C165.242,145.341,155.557,144.14,145.547,142.899 M138.024,65.478V68
		c0,33.507-0.005,67.014,0.032,100.52c0.001,0.826,0.529,2.376,0.748,2.364c1.718-0.088,0.937-1.538,0.937-2.38
		c0.045-33.44,0.039-66.881,0.039-100.321c-0.003-0.783-0.003-1.565-0.003-2.583c0.778,0.255,1.391,0.411,1.967,0.654
		c12.001,5.097,23.991,10.224,36.012,15.274c1.249,0.526,1.622,1.18,1.608,2.485c-0.063,6.504-0.029,13.008-0.029,19.513v2.457
		c4.196-1.704,8.116-3.293,12.337-5.006c0,0.927,0,1.611,0,2.294c0,21.55,0,43.098-0.001,64.646c0,0.526-0.103,1.079,0.028,1.569
		c0.143,0.529,0.502,1,0.768,1.494c0.294-0.461,0.709-0.888,0.847-1.392c0.148-0.552,0.037-1.175,0.037-1.765
		c0-21.418,0-42.836,0-64.254v-2.418c2.563,0.979,4.93,1.886,7.296,2.787c6.243,2.382,12.473,4.798,18.74,7.107
		c1.198,0.441,1.578,1.02,1.557,2.26c-0.071,4.378-0.026,8.757-0.026,13.669c2.74-1.961,5.096-3.645,7.798-5.582v49.482
		c0.28,0.011,0.563,0.019,0.845,0.031c0.02-4.004,0.048-8.005,0.059-12.007c0.01-4.139,0.004-8.278,0.004-12.416
		c0-4.14,0-8.278,0-12.417v-12.647c1.173,0.474,2.194,0.867,3.201,1.293c4.646,1.967,9.27,3.992,13.944,5.889
		c1.457,0.59,2.046,1.32,2.034,2.997c-0.086,12.285-0.046,24.57-0.046,36.858c0,0.771,0,1.542,0,2.54h7.908v5.464H108.51v-2.698
		v-2.688h6.372v-2.634c0-28.047,0.016-56.093-0.035-84.14c-0.002-1.549,0.476-2.479,1.726-3.369
		C123.634,75.921,130.632,70.819,138.024,65.478"/>
	<path style="fill:#C0588E;" d="M98.384,144.518c-0.435,0.056-0.75,0.066-1.052,0.137c-14.646,3.414-29.291,6.828-43.936,10.255
		c-2.675,0.627-2.82,0.921-2.012,3.974c15.642-2.947,31.301-5.898,47-8.856V144.518z M51.218,149.956
		c3.846-1.181,7.533-2.305,11.215-3.442c11.442-3.536,22.887-7.06,34.311-10.646c0.665-0.208,1.574-0.867,1.668-1.429
		c0.237-1.441,0.079-2.949,0.079-4.623c-0.911,0.298-1.526,0.483-2.133,0.697c-14.255,5.037-28.51,10.076-42.767,15.113
		C50.798,146.613,50.795,146.609,51.218,149.956 M98.387,159.055c-1.671,0.157-3.216,0.276-4.754,0.452
		c-13.335,1.53-26.669,3.08-40.007,4.601c-2.901,0.331-3.054,0.514-2.269,3.745c15.627-1.068,31.286-2.139,47.03-3.214V159.055z
		 M38.021,176.761v-4.565h8.743v-2.484c0-8.869,0.025-17.739-0.027-26.608c-0.008-1.271,0.292-1.966,1.539-2.527
		c20.741-9.329,41.457-18.718,62.178-28.088c0.578-0.263,1.176-0.477,2.036-0.824v60.352h2.857v-60.407
		c2.746,1.069,5.214,2.028,7.941,3.09l1.054,61.431L38.021,176.761z"/>
</g>
</svg>
